STARTFONT 2.1
FONT -DEC-Terminal-Bold-R-Normal--50-360-100-100-C-300-ISO8859-8
SIZE 36 100 100
FONTBOUNDINGBOX 30 50 0 -10

STARTPROPERTIES 26
CHARSET_REGISTRY "ISO8859"
CHARSET_ENCODING "8"
CAP_HEIGHT 30
X_HEIGHT 24
AVERAGE_WIDTH 300
FIGURE_WIDTH "RGB_RED_MAP"
SPACING "C"
FONTNAME_REGISTRY ""
FAMILY_NAME "Terminal"
FOUNDRY "Bitstream"
WEIGHT_NAME "Bold"
SETWIDTH_NAME "Normal"
SLANT "R"
ADD_STYLE_NAME ""
PIXEL_SIZE 50
RESOLUTION_X 100
RESOLUTION_Y 100
CHARSET_COLLECTIONS "ASCII ISO8859-8"
FULL_NAME "Terminal Bold"
COPYRIGHT "Copyright (c) Digital Israel"
QUAD_WIDTH 30
POINT_SIZE 360
WEIGHT 10
DEFAULT_CHAR 159
FONT_DESCENT 10
FONT_ASCENT 40
ENDPROPERTIES

CHARS 155

STARTCHAR space
ENCODING 32
SWIDTH 600 0
DWIDTH 30 0
BBX 1 1 0 0
BITMAP
00
ENDCHAR

STARTCHAR exclam
ENCODING 33
SWIDTH 600 0
DWIDTH 30 0
BBX 12 30 9 0
BITMAP
3FC0
3FC0
3FC0
3FC0
3FC0
3FC0
3FC0
3FC0
3FC0
3FC0
3FC0
3FC0
3FC0
3FC0
3FC0
3FC0
3FC0
3FC0
0000
0000
0F00
0F00
FFF0
FFF0
FFF0
FFF0
FFF0
FFF0
0F00
0F00
ENDCHAR

STARTCHAR quotedbl
ENCODING 34
SWIDTH 600 0
DWIDTH 30 0
BBX 16 14 7 20
BITMAP
FC3F
FC3F
FC3F
FC3F
FC3F
FC3F
FC3F
FC3F
FC3F
FC3F
FC3F
FC3F
FC3F
FC3F
ENDCHAR

STARTCHAR numbersign
ENCODING 35
SWIDTH 600 0
DWIDTH 30 0
BBX 28 38 1 -6
BITMAP
03F0FC00
03F0FC00
03F0FC00
03F0FC00
03F0FC00
03F0FC00
03F0FC00
03F0FC00
03F0FC00
03F0FC00
FFFFFFF0
FFFFFFF0
FFFFFFF0
FFFFFFF0
FFFFFFF0
FFFFFFF0
03F0FC00
03F0FC00
03F0FC00
03F0FC00
03F0FC00
03F0FC00
FFFFFFF0
FFFFFFF0
FFFFFFF0
FFFFFFF0
FFFFFFF0
FFFFFFF0
03F0FC00
03F0FC00
03F0FC00
03F0FC00
03F0FC00
03F0FC00
03F0FC00
03F0FC00
03F0FC00
03F0FC00
ENDCHAR

STARTCHAR dollar
ENCODING 36
SWIDTH 600 0
DWIDTH 30 0
BBX 24 44 3 -8
BITMAP
003F00
003F00
003F00
003F00
003F00
003F00
03FF3F
03FF3F
3FFFFF
3FFFFF
FFFFFF
FFFFFF
FF00FF
FF00FF
FF003F
FF003F
FFF000
FFF000
3FFF00
3FFF00
0FFFF0
0FFFF0
00FFFC
00FFFC
000FFF
000FFF
FC00FF
FC00FF
FF00FF
FF00FF
FFFFFF
FFFFFF
FFFFFC
FFFFFC
FCFFC0
FCFFC0
00FC00
00FC00
00FC00
00FC00
00FC00
00FC00
00FC00
00FC00
ENDCHAR

STARTCHAR percent
ENCODING 37
SWIDTH 600 0
DWIDTH 30 0
BBX 24 32 3 -3
BITMAP
3FF000
3FF000
FFFC00
FFFC00
F87C00
F87C00
F87C0F
F87C0F
F87C3C
F87C3C
FFFCF0
FFFCF0
3FF3C0
3FF3C0
000F00
000F00
00F000
00F000
03CFFC
03CFFC
0F3FFF
0F3FFF
3C3E1F
3C3E1F
F03E1F
F03E1F
003E1F
003E1F
003FFF
003FFF
000FFC
000FFC
ENDCHAR

STARTCHAR ampersand
ENCODING 38
SWIDTH 600 0
DWIDTH 30 0
BBX 24 30 3 0
BITMAP
03FF3C
03FF3C
0FFFFC
0FFFFC
0FF0FC
0FE0FC
0FE03C
0FE03C
0FE000
0FE000
03FC3F
03FC3F
03FC3F
03FC3F
1FFF3F
1FFF3F
FF3FFC
FF3FFC
FF0FFC
FF0FFC
FF0FFC
FF0FFC
FF03FC
FF03FC
FFFFFF
FFFFFF
FFFFFF
FFFFFF
1FFF3F
1FFF3F
ENDCHAR

STARTCHAR quoteright
ENCODING 39
SWIDTH 600 0
DWIDTH 30 0
BBX 14 14 8 22
BITMAP
0FFC
0FFC
0FFC
0FFC
3FF0
3FF0
3FC0
3FC0
FF00
FF00
FC00
FC00
F000
F000
ENDCHAR

STARTCHAR parenleft
ENCODING 40
SWIDTH 600 0
DWIDTH 30 0
BBX 16 42 9 -6
BITMAP
003F
003F
00FC
00FC
03FC
03FC
0FF0
0FF0
3FC0
3FC0
3FC0
3FC0
FF00
FF00
FF00
FF00
FF00
FF00
FF00
FF00
FF00
FF00
FF00
FF00
FF00
FF00
FF00
FF00
FF00
FF00
3FC0
3FC0
3FC0
3FC0
0FF0
0FF0
03FC
03FC
00FC
00FC
003F
003F
ENDCHAR

STARTCHAR parenright
ENCODING 41
SWIDTH 600 0
DWIDTH 30 0
BBX 16 42 5 -6
BITMAP
3F00
3F00
0FC0
0FC0
0FF0
0FF0
03F0
03F0
03FC
03FC
03FC
03FC
00FF
00FF
00FF
00FF
00FF
00FF
00FF
00FF
00FF
00FF
00FF
00FF
00FF
00FF
00FF
00FF
03FC
03FC
03FC
03FC
0FF0
0FF0
0FC0
0FC0
3FC0
3FC0
3F00
3F00
FC00
FC00
ENDCHAR

STARTCHAR asterisk
ENCODING 42
SWIDTH 600 0
DWIDTH 30 0
BBX 26 22 2 4
BITMAP
003F0000
003F0000
003F0000
003F0000
003F0000
003F0000
F87F87C0
FCFFCFC0
FFFFFFC0
FFFFFFC0
7FFFFF80
1FFFFE00
07FFF800
03FFF000
03FFF000
03FFF000
0FF3FC00
0FF3FC00
3FC0FF00
3FC0FF00
3F003F00
3F003F00
ENDCHAR

STARTCHAR plus
ENCODING 43
SWIDTH 600 0
DWIDTH 30 0
BBX 24 26 3 2
BITMAP
00FF00
00FF00
00FF00
00FF00
00FF00
00FF00
00FF00
00FF00
00FF00
00FF00
FFFFFF
FFFFFF
FFFFFF
FFFFFF
FFFFFF
FFFFFF
00FF00
00FF00
00FF00
00FF00
00FF00
00FF00
00FF00
00FF00
00FF00
00FF00
ENDCHAR

STARTCHAR comma
ENCODING 44
SWIDTH 600 0
DWIDTH 30 0
BBX 10 16 10 -8
BITMAP
3FC0
3FC0
3FC0
3FC0
3F00
3F00
3F00
3F00
FC00
FC00
FC00
FC00
FC00
FC00
F000
F000
ENDCHAR

STARTCHAR minus
ENCODING 45
SWIDTH 600 0
DWIDTH 30 0
BBX 20 6 5 12
BITMAP
FFFFF0
FFFFF0
FFFFF0
FFFFF0
FFFFF0
FFFFF0
ENDCHAR

STARTCHAR period
ENCODING 46
SWIDTH 600 0
DWIDTH 30 0
BBX 10 10 10 -1
BITMAP
1E00
1E00
FFC0
FFC0
FFC0
FFC0
FFC0
FFC0
1E00
1E00
ENDCHAR

STARTCHAR slash
ENCODING 47
SWIDTH 600 0
DWIDTH 30 0
BBX 26 45 2 -7
BITMAP
00000FC0
00000FC0
00000FC0
00000FC0
00003FC0
00003F00
00003F00
00003F00
0000FF00
0000FC00
0000FC00
0000FC00
0003FC00
0003F000
0003F000
0003F000
000FF000
000FC000
000FC000
000FC000
003FC000
003F0000
003F0000
003F0000
00FF0000
00FC0000
00FC0000
00FC0000
03FC0000
03F00000
03F00000
03F00000
0FF00000
0FC00000
0FC00000
0FC00000
3FC00000
3F000000
3F000000
3F000000
FF000000
FC000000
FC000000
FC000000
FC000000
ENDCHAR

STARTCHAR zero
ENCODING 48
SWIDTH 600 0
DWIDTH 30 0
BBX 22 30 4 0
BITMAP
00FC00
00FC00
0FFFC0
0FFFC0
3FCFF0
3FCFF0
3F03F0
3F03F0
FF03FC
FF03FC
FF03FC
FF03FC
FF03FC
FF03FC
FF03FC
FF03FC
FF03FC
FF03FC
FF03FC
FF03FC
FF03FC
FF03FC
3F03F0
3F03F0
3FCFF0
3FCFF0
0FFFC0
0FFFC0
00FC00
00FC00
ENDCHAR

STARTCHAR one
ENCODING 49
SWIDTH 600 0
DWIDTH 30 0
BBX 21 30 5 0
BITMAP
01FE00
03FE00
0FFE00
1FFE00
3FFE00
7FFE00
7DFE00
79FE00
71FE00
41FE00
01FE00
01FE00
01FE00
01FE00
01FE00
01FE00
01FE00
01FE00
01FE00
01FE00
01FE00
01FE00
01FE00
01FE00
FFFFF8
FFFFF8
FFFFF8
FFFFF8
FFFFF8
FFFFF8
ENDCHAR

STARTCHAR two
ENCODING 50
SWIDTH 600 0
DWIDTH 30 0
BBX 22 30 4 0
BITMAP
07FFC0
1FFFC0
7FFFF0
7FFFF0
FFFFFC
FFFFFC
FC07FC
FC03FC
FC03FC
FC07FC
000FFC
000FFC
003FF0
003FF0
00FFC0
00FFC0
03FF00
03FE00
0FF800
0FF000
3FE0FC
3FC0FC
FF80FC
FF00FC
FFFFFC
FFFFFC
FFFFFC
FFFFFC
FFFFFC
FFFFFC
ENDCHAR

STARTCHAR three
ENCODING 51
SWIDTH 600 0
DWIDTH 30 0
BBX 21 30 4 0
BITMAP
0FFF00
1FFFC0
FFFFC0
FFFFF0
FFFFF8
FFFFF8
FC0FF8
FC07F8
0007F8
0007F8
0007F8
000FF8
03FFF8
03FFF0
03FF80
03FF80
03FFE0
03FFF8
000FF8
0007F8
0007F8
0007F8
FC07F8
FE0FF8
FFFFF8
FFFFF8
FFFFF0
FFFFF0
0FFF80
0FFF80
ENDCHAR

STARTCHAR four
ENCODING 52
SWIDTH 600 0
DWIDTH 30 0
BBX 26 30 2 0
BITMAP
0003FC00
0003FC00
000FFC00
000FFC00
003FFC00
003FFC00
00FFFC00
00FFFC00
03FBFC00
03F3FC00
0FE3FC00
0FC3FC00
3FC3FC00
7F83FC00
7F03FC00
FE03FC00
FFFFFFC0
FFFFFFC0
FFFFFFC0
FFFFFFC0
FFFFFFC0
FFFFFFC0
0003FC00
0003FC00
0003FC00
0003FC00
0003FC00
0003FC00
0003FC00
0003FC00
ENDCHAR

STARTCHAR five
ENCODING 53
SWIDTH 600 0
DWIDTH 30 0
BBX 22 30 4 0
BITMAP
FFFFF8
FFFFF8
FFFFF8
FFFFF8
FFFFF8
FFFFF8
FF0000
FF0000
FF0000
FF0000
FFFF80
FFFFC0
FFFFF0
FFFFF0
FFFFFC
FFFFFC
FC0FFC
000FFC
0003FC
0003FC
0003FC
0003FC
FC0FFC
FC0FFC
FFFFFC
FFFFFC
FFFFF0
FFFFF0
3FFFC0
1FFF80
ENDCHAR

STARTCHAR six
ENCODING 54
SWIDTH 600 0
DWIDTH 30 0
BBX 22 30 4 0
BITMAP
007FF0
007FF0
03FFF0
03FFF0
0FFFF0
0FFFF0
3FF000
3FC000
3F0000
FF0000
FF3FC0
FF3FC0
FFFFF0
FFFFF0
FFFFFC
FFFFFC
FFC3FC
FFC3FC
FF00FC
FF00FC
FF00FC
FF00FC
FFC3FC
3FC3FC
3FFFFC
3FFFF0
0FFFF0
0FFFF0
03FF80
03FF80
ENDCHAR

STARTCHAR seven
ENCODING 55
SWIDTH 600 0
DWIDTH 30 0
BBX 22 30 4 0
BITMAP
FFFFFC
FFFFFC
FFFFFC
FFFFFC
FFFFFC
FFFFFC
FC01FC
FC01FC
0001FC
0003FC
0003F0
0003F0
000FF0
000FF0
000FE0
000FE0
000FE0
003F80
003F80
003F80
003F80
00FF80
00FE00
00FE00
00FE00
03FE00
03F800
03F800
03F800
03F800
ENDCHAR

STARTCHAR eight
ENCODING 56
SWIDTH 600 0
DWIDTH 30 0
BBX 22 30 4 0
BITMAP
07FF80
07FF80
3FFFF0
3FFFF0
FF87FC
FF03FC
FF03FC
FF03FC
FF03FC
FF03FC
3F03F0
3F87F0
0FFFE0
07FFC0
1FFFF0
3FFFF0
FF87FC
FF03FC
FF03FC
FF03FC
FF03FC
FF03FC
FF03FC
FF03FC
FF03FC
FF87FC
3FFFF0
3FFFF0
0FFFC0
0FFFC0
ENDCHAR

STARTCHAR nine
ENCODING 57
SWIDTH 600 0
DWIDTH 30 0
BBX 22 30 4 0
BITMAP
07FF00
07FF00
3FFFC0
3FFFC0
3FFFF0
FFFFF0
FF0FF0
FF0FFC
FC03FC
FC03FC
FC03FC
FC03FC
FF0FFC
FF0FFC
FFFFFC
FFFFFC
3FFFFC
3FFFFC
0FF3FC
0FF3FC
0003FC
0003F0
000FF0
003FF0
3FFFC0
3FFFC0
3FFF00
3FFF00
3FF800
3FF800
ENDCHAR

STARTCHAR colon
ENCODING 58
SWIDTH 600 0
DWIDTH 30 0
BBX 10 24 10 0
BITMAP
1E00
1E00
FFC0
FFC0
FFC0
FFC0
FFC0
FFC0
1E00
1E00
0000
0000
0000
0000
1E00
1E00
FFC0
FFC0
FFC0
FFC0
FFC0
FFC0
1E00
1E00
ENDCHAR

STARTCHAR semicolon
ENCODING 59
SWIDTH 600 0
DWIDTH 30 0
BBX 11 32 10 -8
BITMAP
0F00
0F00
7FE0
7FE0
7FE0
7FE0
7FE0
7FE0
0F00
0F00
0000
0000
0000
0000
0000
0000
3FC0
3FC0
3FC0
3FC0
3F00
3F00
3F00
3F00
FC00
FC00
FC00
FC00
FC00
FC00
F000
F000
ENDCHAR

STARTCHAR less
ENCODING 60
SWIDTH 600 0
DWIDTH 30 0
BBX 22 26 4 2
BITMAP
00003C
00003C
0003FC
0003FC
000FFC
000FFC
00FFC0
00FFC0
0FFC00
0FFC00
FFC000
FFC000
FF0000
FF0000
FFC000
FFC000
0FFC00
0FFC00
03FFC0
03FFC0
003FFC
003FFC
0003FC
0003FC
00003C
00003C
ENDCHAR

STARTCHAR equal
ENCODING 61
SWIDTH 600 0
DWIDTH 30 0
BBX 22 18 4 6
BITMAP
FFFFFC
FFFFFC
FFFFFC
FFFFFC
FFFFFC
FFFFFC
000000
000000
000000
000000
000000
000000
FFFFFC
FFFFFC
FFFFFC
FFFFFC
FFFFFC
FFFFFC
ENDCHAR

STARTCHAR greater
ENCODING 62
SWIDTH 600 0
DWIDTH 30 0
BBX 22 26 4 2
BITMAP
F00000
F00000
FF0000
FF0000
FFF000
FFF000
0FFF00
0FFF00
00FFC0
00FFC0
000FFC
000FFC
0003FC
0003FC
000FFC
000FFC
00FFC0
00FFC0
0FFC00
0FFC00
FFC000
FFC000
FF0000
FF0000
F00000
F00000
ENDCHAR

STARTCHAR question
ENCODING 63
SWIDTH 600 0
DWIDTH 30 0
BBX 20 30 6 0
BITMAP
3FFF00
3FFFC0
FFFFC0
FFFFF0
FFFFF0
FFFFF0
FF0FF0
FF0FF0
000FF0
001FF0
007FF0
007FF0
03FFC0
03FFC0
0FFC00
0FFC00
0FF000
0FF000
000000
000000
03C000
03C000
1FF800
1FF800
1FF800
1FF800
1FF800
1FF800
03C000
03C000
ENDCHAR

STARTCHAR at
ENCODING 64
SWIDTH 600 0
DWIDTH 30 0
BBX 26 38 3 -6
BITMAP
00FFC000
00FFC000
0FFFF000
0FFFF000
3FFFFC00
3F80FC00
3F007C00
3E003C00
FC003F00
FC003F00
FC0FFF00
FC0FFF00
FC3FFF00
FC3FFF00
FCFC3F00
FCFC3F00
FCFC3F00
FCFC3F00
FCFC3F00
FCFC3F00
FCFC3F00
FCFC3F00
FC3FFFC0
FC3FFFC0
FC0FCFC0
FC0FCFC0
FC000000
FC000000
FF000000
FF000000
3FC00F00
3FC00F00
0FFFFF00
0FFFFF00
03FFFC00
03FFFC00
003FC000
003FC000
ENDCHAR

STARTCHAR A
ENCODING 65
SWIDTH 600 0
DWIDTH 30 0
BBX 26 30 2 0
BITMAP
00FFC000
00FFC000
00FFC000
03FFF000
03FFF000
03FFF000
03FFF000
03F3F000
0FF3FC00
0FF3FC00
0FF3FC00
0FC0FC00
0FC0FC00
0FC0FC00
0FC0FC00
0FC0FC00
3FFFFF00
3FFFFF00
3FFFFF00
3FFFFF00
3FFFFF00
3FFFFF00
3F807F00
3F807F00
FFC0FFC0
FFC0FFC0
FFC0FFC0
FFC0FFC0
FFC0FFC0
FFC0FFC0
ENDCHAR

STARTCHAR B
ENCODING 66
SWIDTH 600 0
DWIDTH 30 0
BBX 24 30 3 0
BITMAP
FFFFF0
FFFFF0
FFFFFC
FFFFFC
FFFFFF
FFFFFF
3FC0FF
3FC0FF
3FC0FF
3FC0FF
3FC0FC
3FC0FC
3FFFF0
3FFFF0
3FFFFC
3FFFFC
3FC0FF
3FC0FF
3FC0FF
3FC0FF
3FC0FF
3FC0FF
3FC0FF
3FC0FF
FFFFFF
FFFFFF
FFFFFC
FFFFFC
FFFFF0
FFFFF0
ENDCHAR

STARTCHAR C
ENCODING 67
SWIDTH 600 0
DWIDTH 30 0
BBX 23 30 4 0
BITMAP
03FF1E
03FF9E
3FFFFE
3FFFFE
3FFFFE
3FFFFE
FFC07E
FFC07E
FF007E
FF007E
FF0000
FF0000
FF0000
FF0000
FF0000
FF0000
FF0000
FF0000
FF0000
FF0000
FF0000
FF0000
FFC07E
FFC07E
3FFFFE
3FFFFE
3FFFFE
3FFFFE
03FFC0
03FFC0
ENDCHAR

STARTCHAR D
ENCODING 68
SWIDTH 600 0
DWIDTH 30 0
BBX 24 30 3 0
BITMAP
FFFFC0
FFFFC0
FFFFFC
FFFFFC
FFFFFC
FFFFFC
3FC3FF
3FC3FF
3FC0FF
3FC0FF
3FC0FF
3FC0FF
3FC0FF
3FC0FF
3FC0FF
3FC0FF
3FC0FF
3FC0FF
3FC0FF
3FC0FF
3FC0FF
3FC0FF
3FC3FF
3FC3FF
FFFFFC
FFFFFC
FFFFFC
FFFFFC
FFFFC0
FFFFC0
ENDCHAR

STARTCHAR E
ENCODING 69
SWIDTH 600 0
DWIDTH 30 0
BBX 22 30 4 0
BITMAP
FFFFFC
FFFFFC
FFFFFC
FFFFFC
FFFFFC
FFFFFC
3FC0FC
3FC0FC
3FC000
3FC000
3FC000
3FC000
3FFFC0
3FFFC0
3FFFC0
3FFFC0
3FFFC0
3FFFC0
3FC000
3FC000
3FC000
3FC000
3FC0FC
3FC0FC
FFFFFC
FFFFFC
FFFFFC
FFFFFC
FFFFFC
FFFFFC
ENDCHAR

STARTCHAR F
ENCODING 70
SWIDTH 600 0
DWIDTH 30 0
BBX 23 30 5 0
BITMAP
FFFFFE
FFFFFE
FFFFFE
FFFFFE
FFFFFE
FFFFFE
1FE07E
1FE07E
1FE000
1FE000
1FE000
1FE000
1FFFE0
1FFFE0
1FFFE0
1FFFE0
1FFFE0
1FFFE0
1FE000
1FE000
1FE000
1FE000
1FE000
1FE000
FFFE00
FFFE00
FFFE00
FFFE00
FFFE00
FFFE00
ENDCHAR

STARTCHAR G
ENCODING 71
SWIDTH 600 0
DWIDTH 30 0
BBX 24 30 3 0
BITMAP
03FF9E
03FF9E
3FFFFE
3FFFFE
3FFFFE
3FFFFE
FFC07E
FFC07E
FF007E
FF007E
FF0000
FF0000
FF0000
FF0000
FF0FFF
FF0FFF
FF0FFF
FF0FFF
FF0FFF
FF0FFF
FF00FF
FF00FF
FFC0FF
FFC0FF
3FFFFC
3FFFFC
3FFFFC
3FFFFC
03FFC0
03FFC0
ENDCHAR

STARTCHAR H
ENCODING 72
SWIDTH 600 0
DWIDTH 30 0
BBX 26 30 2 0
BITMAP
FFC0FFC0
FFC0FFC0
FFC0FFC0
FFC0FFC0
FFC0FFC0
FFC0FFC0
3FC0FF00
3FC0FF00
3FC0FF00
3FC0FF00
3FFFFF00
3FFFFF00
3FFFFF00
3FFFFF00
3FFFFF00
3FFFFF00
3FFFFF00
3FFFFF00
3FC0FF00
3FC0FF00
3FC0FF00
3FC0FF00
3FC0FF00
3FC0FF00
FFC0FFC0
FFC0FFC0
FFC0FFC0
FFC0FFC0
FFC0FFC0
FFC0FFC0
ENDCHAR

STARTCHAR I
ENCODING 73
SWIDTH 600 0
DWIDTH 30 0
BBX 20 30 5 0
BITMAP
FFFFF0
FFFFF0
FFFFF0
FFFFF0
FFFFF0
FFFFF0
03FC00
03FC00
03FC00
03FC00
03FC00
03FC00
03FC00
03FC00
03FC00
03FC00
03FC00
03FC00
03FC00
03FC00
03FC00
03FC00
03FC00
03FC00
FFFFF0
FFFFF0
FFFFF0
FFFFF0
FFFFF0
FFFFF0
ENDCHAR

STARTCHAR J
ENCODING 74
SWIDTH 600 0
DWIDTH 30 0
BBX 24 30 3 0
BITMAP
00FFFF
00FFFF
00FFFF
00FFFF
00FFFF
00FFFF
0003FC
0003FC
0003FC
0003FC
0003FC
0003FC
0003FC
0003FC
0003FC
0003FC
0003FC
0003FC
FC03FC
FC03FC
FC03FC
FC03FC
FF03FC
FF07FC
FFFFF0
FFFFF0
3FFFF0
3FFFF0
03FF00
03FF00
ENDCHAR

STARTCHAR K
ENCODING 75
SWIDTH 600 0
DWIDTH 30 0
BBX 25 30 3 0
BITMAP
FFC3FF80
FFC3FF80
FFC3FF80
FFC3FF80
FFC3FF80
FFC1FF80
3FC3FC00
3FC7F000
3FC7F000
3FCFE000
3FFFC000
3FFF8000
3FFF0000
3FFF0000
3FFF0000
3FFF8000
3FFFC000
3FFFE000
3FDFF000
3FCFF800
3FCFF800
3FC3FC00
3FC3FE00
3FC3FE00
FFC3FF80
FFC0FF80
FFC0FF80
FFC0FF80
FFC0FF80
FFC0FF80
ENDCHAR

STARTCHAR L
ENCODING 76
SWIDTH 600 0
DWIDTH 30 0
BBX 24 30 3 0
BITMAP
FFFF00
FFFF00
FFFF00
FFFF00
FFFF00
FFFF00
0FF000
0FF000
0FF000
0FF000
0FF000
0FF000
0FF000
0FF000
0FF000
0FF000
0FF000
0FF000
0FF03F
0FF03F
0FF03F
0FF03F
0FF03F
0FF03F
FFFFFF
FFFFFF
FFFFFF
FFFFFF
FFFFFF
FFFFFF
ENDCHAR

STARTCHAR M
ENCODING 77
SWIDTH 600 0
DWIDTH 30 0
BBX 26 30 2 0
BITMAP
FF003FC0
FF003FC0
FF003FC0
FF003FC0
FFC0FFC0
FFC0FFC0
3FC0FF00
3FC0FF00
3FF3FF00
3FF3FF00
3FFFFF00
3FFFFF00
3FFFFF00
3FFFFF00
3FFFFF00
3FFFFF00
3F3F3F00
3F3F3F00
3F3F3F00
3F3F3F00
3F1E3F00
3F0C3F00
3F0C3F00
3F0C3F00
FF003FC0
FF003FC0
FF003FC0
FF003FC0
FF003FC0
FF003FC0
ENDCHAR

STARTCHAR N
ENCODING 78
SWIDTH 600 0
DWIDTH 30 0
BBX 26 30 2 0
BITMAP
FF80FFC0
FF80FFC0
FF80FFC0
FF80FFC0
FF80FFC0
FFC0FFC0
3FE0FF00
3FF0FF00
3FF8FF00
3FF8FF00
3FFCFF00
3FFEFF00
3FFFFF00
3FFFFF00
3FFFFF00
3FFFFF00
3FFFFF00
3FFFFF00
3FBFFF00
3F9FFF00
3F8FFF00
3F8FFF00
3F87FF00
3F83FF00
FF81FF00
FF80FF00
FF80FF00
FF80FF00
FF80FF00
FF80FF00
ENDCHAR

STARTCHAR O
ENCODING 79
SWIDTH 600 0
DWIDTH 30 0
BBX 24 30 3 0
BITMAP
03FFC0
03FFC0
3FFFFC
3FFFFC
3FFFFC
3FFFFC
FFC3FF
FFC3FF
FF00FF
FF00FF
FF00FF
FF00FF
FF00FF
FF00FF
FF00FF
FF00FF
FF00FF
FF00FF
FF00FF
FF00FF
FF00FF
FF00FF
FFC3FF
FFC3FF
3FFFFC
3FFFFC
3FFFFC
3FFFFC
03FFC0
03FFC0
ENDCHAR

STARTCHAR P
ENCODING 80
SWIDTH 600 0
DWIDTH 30 0
BBX 24 30 3 0
BITMAP
FFFFF0
FFFFF0
FFFFFC
FFFFFC
FFFFFF
FFFFFF
3FC0FF
3FC0FF
3FC0FF
3FC0FF
3FC0FF
3FC0FF
3FC0FF
3FC0FF
3FFFFF
3FFFFF
3FFFFC
3FFFFC
3FFFF0
3FFFF0
3FC000
3FC000
3FC000
3FC000
FFFC00
FFFC00
FFFC00
FFFC00
FFFC00
FFFC00
ENDCHAR

STARTCHAR Q
ENCODING 81
SWIDTH 600 0
DWIDTH 30 0
BBX 24 38 3 -8
BITMAP
03FFC0
03FFC0
3FFFFC
3FFFFC
3FFFFC
3FFFFC
FFC3FF
FFC3FF
FF00FF
FF00FF
FF00FF
FF00FF
FF00FF
FF00FF
FF00FF
FF00FF
FF00FF
FF00FF
FF00FF
FF00FF
FF00FF
FF00FF
FFC3FF
FFC3FF
3FFFFC
3FFFFC
3FFFFC
3FFFFC
03FFC0
03FFC0
03F000
03F800
07FFF8
0FFFFC
0FFFFC
0FFFFC
07DFFC
000FF8
ENDCHAR

STARTCHAR R
ENCODING 82
SWIDTH 600 0
DWIDTH 30 0
BBX 26 30 2 0
BITMAP
FFFFF000
FFFFF000
FFFFFC00
FFFFFC00
FFFFFF00
FFFFFF00
3FC1FF00
3FC0FF00
3FC0FF00
3FC0FF00
3FC0FF00
3FC0FF00
3FC1FC00
3FFFFC00
3FFFE000
3FFFE000
3FFFE000
3FFFF800
3FFFF800
3FC3FC00
3FC3FC00
3FC3FC00
3FC0FF00
3FC0FF00
FFC0FFC0
FFC0FFC0
FFC03FC0
FFC03FC0
FFC03FC0
FFC03FC0
ENDCHAR

STARTCHAR S
ENCODING 83
SWIDTH 600 0
DWIDTH 30 0
BBX 20 30 5 0
BITMAP
0FF8F0
0FF8F0
3FFFF0
3FFFF0
FFFFF0
FFFFF0
FF0FF0
FF0FF0
FF00F0
FF00F0
FFC000
FFC000
FFFC00
FFFC00
3FFFC0
3FFFC0
03FFF0
03FFF0
003FF0
003FF0
F00FF0
F00FF0
FC0FF0
FC0FF0
FFFFF0
FFFFF0
FFFFC0
FFFFC0
F3FF00
F3FF00
ENDCHAR

STARTCHAR T
ENCODING 84
SWIDTH 600 0
DWIDTH 30 0
BBX 26 30 2 0
BITMAP
FFFFFFC0
FFFFFFC0
FFFFFFC0
FFFFFFC0
FFFFFFC0
FFFFFFC0
FC7F8FC0
FC7F8FC0
FC7F8FC0
FC7F8FC0
FC7F8FC0
FC7F8FC0
007F8000
007F8000
007F8000
007F8000
007F8000
007F8000
007F8000
007F8000
007F8000
007F8000
007F8000
007F8000
07FFF800
07FFF800
07FFF800
07FFF800
07FFF800
07FFF800
ENDCHAR

STARTCHAR U
ENCODING 85
SWIDTH 600 0
DWIDTH 30 0
BBX 24 30 3 0
BITMAP
FFC3FF
FFC3FF
FFC3FF
FFC3FF
FFC3FF
FFC3FF
3FC3FC
3FC3FC
3FC3FC
3FC3FC
3FC3FC
3FC3FC
3FC3FC
3FC3FC
3FC3FC
3FC3FC
3FC3FC
3FC3FC
3FC3FC
3FC3FC
3FC3FC
3FC3FC
3FC3FC
3FC3FC
3FFFFC
3FFFFC
0FFFF0
0FFFF0
03FFC0
03FFC0
ENDCHAR

STARTCHAR V
ENCODING 86
SWIDTH 600 0
DWIDTH 30 0
BBX 26 30 2 0
BITMAP
FF003FC0
FF003FC0
FF003FC0
FF003FC0
FF003FC0
FF003FC0
3F003F00
3F003F00
3FC0FF00
3FC0FF00
3FC0FF00
3FC0FF00
3FC0FF00
3FC0FF00
0FE1FC00
0FE1FC00
0FE1FC00
0FE1FC00
0FE1FC00
0FE1FC00
0FFFFC00
07FFF800
01FFE000
01FFE000
01FFE000
01FFE000
003F0000
003F0000
003F0000
003F0000
ENDCHAR

STARTCHAR W
ENCODING 87
SWIDTH 600 0
DWIDTH 30 0
BBX 28 30 1 0
BITMAP
FFC03FF0
FFC03FF0
FFC03FF0
FFC03FF0
FFC03FF0
FFC03FF0
3F000FC0
3F000FC0
3F000FC0
3F000FC0
3F0F0FC0
3F0F0FC0
3F0F0FC0
3F0F0FC0
3F0F0FC0
3F3FCFC0
3F3FCFC0
3F3FCFC0
3FFFFFC0
3FFFFFC0
0FFFFF00
0FFFFF00
0FFFFF00
0FFFFF00
0FF0FF00
0FF0FF00
03F0FC00
03F0FC00
03F0FC00
03E07C00
ENDCHAR

STARTCHAR X
ENCODING 88
SWIDTH 600 0
DWIDTH 30 0
BBX 26 30 2 0
BITMAP
FFE1FFC0
FFE1FFC0
FFE1FFC0
FFE1FFC0
FFE1FFC0
FFE1FFC0
3F807F00
1F807E00
1FE1FE00
0FE1FC00
07FFF800
07FFF800
01FFE000
01FFE000
007F8000
007F8000
00FFC000
01FFE000
01FFE000
03FFE000
07FFF800
07FFF800
1FE1FE00
1FE1FE00
FF807FC0
FF807FC0
FF807FC0
FF807FC0
FF807FC0
FF807FC0
ENDCHAR

STARTCHAR Y
ENCODING 89
SWIDTH 600 0
DWIDTH 30 0
BBX 26 30 2 0
BITMAP
FF003FC0
FF003FC0
FF003FC0
FF807FC0
FF807FC0
FFC0FFC0
1FE1FE00
1FE1FE00
0FE1FC00
07F3F800
07F3F800
07F3F800
01FFE000
01FFE000
01FFE000
01FFE000
007F8000
007F8000
007F8000
007F8000
007F8000
007F8000
007F8000
007F8000
01FFE000
01FFE000
01FFE000
01FFE000
01FFE000
01FFE000
ENDCHAR

STARTCHAR Z
ENCODING 90
SWIDTH 600 0
DWIDTH 30 0
BBX 20 30 5 0
BITMAP
FFFFF0
FFFFF0
FFFFF0
FFFFF0
FFFFF0
FFFFF0
F01FF0
F01FE0
F03FC0
F03FC0
007F80
00FF80
00FF00
01FE00
01FE00
03FC00
03FC00
07F800
0FF000
0FF000
3FE0F0
3FE0F0
7FC0F0
7FC0F0
FFFFF0
FFFFF0
FFFFF0
FFFFF0
FFFFF0
FFFFF0
ENDCHAR

STARTCHAR bracketleft
ENCODING 91
SWIDTH 600 0
DWIDTH 30 0
BBX 14 44 10 -8
BITMAP
FFFC
FFFC
FFFC
FFFC
FFFC
FFFC
FF00
FF00
FF00
FF00
FF00
FF00
FF00
FF00
FF00
FF00
FF00
FF00
FF00
FF00
FF00
FF00
FF00
FF00
FF00
FF00
FF00
FF00
FF00
FF00
FF00
FF00
FF00
FF00
FF00
FF00
FF00
FF00
FFFC
FFFC
FFFC
FFFC
FFFC
FFFC
ENDCHAR

STARTCHAR backslash
ENCODING 92
SWIDTH 600 0
DWIDTH 30 0
BBX 26 45 2 -8
BITMAP
FC000000
FC000000
FC000000
FC000000
FF000000
3F000000
3F000000
3F000000
3FC00000
0FC00000
0FC00000
0FC00000
0FF00000
03F00000
03F00000
03F00000
03FC0000
00FC0000
00FC0000
00FC0000
00FF0000
003F0000
003F0000
003F0000
003FC000
000FC000
000FC000
000FC000
000FF000
0003F000
0003F000
0003F000
0003FC00
0000FC00
0000FC00
0000FC00
0000FF00
00003F00
00003F00
00003F00
00003FC0
00000FC0
00000FC0
00000FC0
00000FC0
ENDCHAR

STARTCHAR bracketright
ENCODING 93
SWIDTH 600 0
DWIDTH 30 0
BBX 14 44 6 -8
BITMAP
FFFC
FFFC
FFFC
FFFC
FFFC
FFFC
03FC
03FC
03FC
03FC
03FC
03FC
03FC
03FC
03FC
03FC
03FC
03FC
03FC
03FC
03FC
03FC
03FC
03FC
03FC
03FC
03FC
03FC
03FC
03FC
03FC
03FC
03FC
03FC
03FC
03FC
03FC
03FC
FFFC
FFFC
FFFC
FFFC
FFFC
FFFC
ENDCHAR

STARTCHAR asciicircum
ENCODING 94
SWIDTH 600 0
DWIDTH 30 0
BBX 22 12 4 9
BITMAP
00FC00
00FC00
03FF00
03FF00
0FFFC0
0FFFC0
3F87F0
3F87F0
FE01FC
FE01FC
F8007C
F8007C
ENDCHAR

STARTCHAR underscore
ENCODING 95
SWIDTH 600 0
DWIDTH 30 0
BBX 26 6 2 0
BITMAP
FFFFFFC0
FFFFFFC0
FFFFFFC0
FFFFFFC0
FFFFFFC0
FFFFFFC0
ENDCHAR

STARTCHAR quoteleft
ENCODING 96
SWIDTH 600 0
DWIDTH 30 0
BBX 16 14 5 22
BITMAP
FFC0
FFC0
3FE0
3FE0
0FF8
0FF8
03F8
01F8
00FE
00FE
003F
003F
000E
0006
ENDCHAR

STARTCHAR a
ENCODING 97
SWIDTH 600 0
DWIDTH 30 0
BBX 24 24 3 0
BITMAP
0FFFC0
0FFFC0
3FFFF0
3FFFF0
3FFFFC
3F01FC
0000FC
0000FC
07FFFC
07FFFC
3FFFFC
3FFFFC
FFFFFC
FFFFFC
FF03FC
FF03FC
FF03FC
FF03FC
FFFFFF
FFFFFF
FFFFFF
3FFFFF
3FFCFF
0FFCFF
ENDCHAR

STARTCHAR b
ENCODING 98
SWIDTH 600 0
DWIDTH 30 0
BBX 25 32 2 0
BITMAP
FFE00000
FFE00000
FFE00000
FFE00000
FFE00000
1FE00000
1FE00000
1FE00000
1FE7F800
1FE7F800
1FFFFE00
1FFFFE00
1FFFFE00
1FFFFE00
1FE0FF80
1FE0FF80
1FE07F80
1FE07F80
1FE07F80
1FE07F80
1FE07F80
1FE07F80
1FE07F80
1FE07F80
1FE07F80
1FE0FF80
FFFFFE00
FFFFFE00
FFFFFE00
FFFFFE00
FFE7F800
FFE7F800
ENDCHAR

STARTCHAR c
ENCODING 99
SWIDTH 600 0
DWIDTH 30 0
BBX 24 24 3 0
BITMAP
00FFCF
03FFCF
0FFFFF
0FFFFF
3FF0FF
3FF0FF
3FC03F
FFC03F
FF003F
FF003F
FF0000
FF0000
FF0000
FF0000
FF0000
FF0000
FFC03F
3FC03F
3FF0FF
3FF0FF
0FFFFC
0FFFFC
03FFF0
00FFC0
ENDCHAR

STARTCHAR d
ENCODING 100
SWIDTH 600 0
DWIDTH 30 0
BBX 24 32 3 0
BITMAP
000FFC
000FFC
000FFC
000FFC
000FFC
0003FC
0003FC
0003FC
01FFFC
0FFFFC
0FFFFC
3FFFFC
3FFFFC
3FFFFC
FF83FC
FF03FC
FF03FC
FF03FC
FF03FC
FF03FC
FF03FC
FF03FC
FF03FC
FF03FC
FF03FC
FF83FC
3FFFFF
3FFFFF
3FFFFF
0FFFFF
0FFCFF
01FCFF
ENDCHAR

STARTCHAR e
ENCODING 101
SWIDTH 600 0
DWIDTH 30 0
BBX 22 24 4 0
BITMAP
03FF00
03FF00
3FFFF0
3FFFF0
3FFFF0
3F87F0
FF03FC
FF03FC
FF03FC
FF03FC
FFFFFC
FFFFFC
FFFFF0
FFFFF0
FF0000
FF0000
FFC0FC
FFC0FC
3FFFFC
3FFFFC
3FFFFC
3FFFFC
03FFC0
03FFC0
ENDCHAR

STARTCHAR f
ENCODING 102
SWIDTH 600 0
DWIDTH 30 0
BBX 21 32 5 0
BITMAP
00FFF8
00FFF8
03FFF8
03FFF8
03FFF8
03FC00
03FC00
03FC00
FFFFF8
FFFFF8
FFFFF8
FFFFF8
FFFFF8
FFFFF8
03FC00
03FC00
03FC00
03FC00
03FC00
03FC00
03FC00
03FC00
03FC00
03FC00
03FC00
03FC00
FFFFF8
FFFFF8
FFFFF8
FFFFF8
FFFFF8
FFFFF8
ENDCHAR

STARTCHAR g
ENCODING 103
SWIDTH 600 0
DWIDTH 30 0
BBX 22 34 3 -10
BITMAP
03FCFC
03FCFC
3FFFFC
3FFFFC
3FFFFC
3FFFFC
FF83FC
FF03FC
FF03FC
FF03FC
FF03FC
FF03FC
FF03FC
FF03FC
FF03FC
FF03FC
FF03FC
FF83FC
FFFFFC
3FFFFC
3FFFFC
3FFFFC
03FFFC
03FFFC
0003FC
0003FC
0003FC
0003FC
000FFC
3FFFFC
3FFFF0
3FFFF0
3FFFC0
3FFFC0
ENDCHAR

STARTCHAR h
ENCODING 104
SWIDTH 600 0
DWIDTH 30 0
BBX 24 32 3 0
BITMAP
FFC000
FFC000
FFC000
FFC000
FFC000
FFC000
3FC000
3FC000
3FCFC0
3FCFC0
3FFFF0
3FFFF0
3FFFFC
3FFFFC
3FE3FC
3FC3FC
3FC3FC
3FC3FC
3FC3FC
3FC3FC
3FC3FC
3FC3FC
3FC3FC
3FC3FC
3FC3FC
3FC3FC
FFC3FF
FFC3FF
FFC3FF
FFC3FF
FFC3FF
FFC3FF
ENDCHAR

STARTCHAR i
ENCODING 105
SWIDTH 600 0
DWIDTH 30 0
BBX 20 36 6 0
BITMAP
03FC00
03FC00
03FC00
03FC00
03FC00
03FC00
03FC00
03FC00
000000
000000
000000
000000
7FFC00
7FFC00
7FFC00
7FFC00
03FC00
03FC00
03FC00
03FC00
03FC00
03FC00
03FC00
03FC00
03FC00
03FC00
03FC00
03FC00
03FC00
03FC00
FFFFF0
FFFFF0
FFFFF0
FFFFF0
FFFFF0
FFFFF0
ENDCHAR

STARTCHAR j
ENCODING 106
SWIDTH 600 0
DWIDTH 30 0
BBX 18 46 4 -10
BITMAP
003FC0
003FC0
003FC0
003FC0
003FC0
003FC0
003FC0
003FC0
000000
000000
000000
000000
3FFFC0
3FFFC0
3FFFC0
3FFFC0
3FFFC0
003FC0
003FC0
003FC0
003FC0
003FC0
003FC0
003FC0
003FC0
003FC0
003FC0
003FC0
003FC0
003FC0
003FC0
003FC0
003FC0
003FC0
003FC0
003FC0
003FC0
003FC0
003FC0
00FFC0
00FFC0
FFFFC0
FFFF00
FFFF00
FFF000
FFF000
ENDCHAR

STARTCHAR k
ENCODING 107
SWIDTH 600 0
DWIDTH 30 0
BBX 24 32 3 0
BITMAP
FFC000
FFC000
FFC000
FFC000
FFC000
FFC000
3FC000
3FC000
3FC0FF
3FC0FF
3FC0FF
3FC0FF
3FC3FF
3FC3F8
3FCFF8
3FCFF0
3FFFC0
3FFFC0
3FFF00
3FFF00
3FFF00
3FFF00
3FFFC0
3FFFC0
3FCFF0
3FCFF0
FFCFFF
FFCFFF
FFC3FF
FFC3FF
FFC3FF
FFC3FF
ENDCHAR

STARTCHAR l
ENCODING 108
SWIDTH 600 0
DWIDTH 30 0
BBX 20 32 6 0
BITMAP
FFFC00
FFFC00
FFFC00
FFFC00
FFFC00
03FC00
03FC00
03FC00
03FC00
03FC00
03FC00
03FC00
03FC00
03FC00
03FC00
03FC00
03FC00
03FC00
03FC00
03FC00
03FC00
03FC00
03FC00
03FC00
03FC00
03FC00
FFFFF0
FFFFF0
FFFFF0
FFFFF0
FFFFF0
FFFFF0
ENDCHAR

STARTCHAR m
ENCODING 109
SWIDTH 600 0
DWIDTH 30 0
BBX 30 24 0 0
BITMAP
FFC7C7C0
FFC7C7C0
FFCFCFF0
FFFFFFF0
3FFFFFF0
3FFFFFF0
3FFFFFF0
3FCFCFF0
3FCFCFF0
3FCFCFF0
3FCFCFF0
3FCFCFF0
3FCFCFF0
3FCFCFF0
3FCFCFF0
3FCFCFF0
3FCFCFF0
3FCFCFF0
FFCFCFFC
FFCFCFFC
FFCFCFFC
FFCFCFFC
FFCFCFFC
FFCFCFFC
ENDCHAR

STARTCHAR n
ENCODING 110
SWIDTH 600 0
DWIDTH 30 0
BBX 24 24 3 0
BITMAP
FFCFC0
FFCFC0
FFFFF0
FFFFF0
FFFFFC
3FFFFC
3FE3FC
3FC3FC
3FC3FC
3FC3FC
3FC3FC
3FC3FC
3FC3FC
3FC3FC
3FC3FC
3FC3FC
3FC3FC
3FC3FC
FFC3FF
FFC3FF
FFC3FF
FFC3FF
FFC3FF
FFC3FF
ENDCHAR

STARTCHAR o
ENCODING 111
SWIDTH 600 0
DWIDTH 30 0
BBX 26 24 2 0
BITMAP
00FFC000
00FFC000
0FFFFC00
0FFFFC00
3FFFFF00
3FFFFF00
3FC0FF00
3FC0FF00
FF003FC0
FF003FC0
FF003FC0
FF003FC0
FF003FC0
FF003FC0
FF003FC0
FF003FC0
3FC0FF00
3FC0FF00
3FFFFF00
3FFFFF00
0FFFFC00
0FFFFC00
00FFC000
00FFC000
ENDCHAR

STARTCHAR p
ENCODING 112
SWIDTH 600 0
DWIDTH 30 0
BBX 26 34 1 -10
BITMAP
FFF3FC00
FFF3FC00
FFFFFF00
FFFFFF00
FFFFFFC0
0FFFFFC0
0FF07FC0
0FF03FC0
0FF03FC0
0FF03FC0
0FF03FC0
0FF03FC0
0FF03FC0
0FF03FC0
0FF03FC0
0FF03FC0
0FF03FC0
0FF07FC0
0FFFFFC0
0FFFFFC0
0FFFFF00
0FFFFF00
0FF3F000
0FF3F000
0FF00000
0FF00000
0FF00000
0FF00000
FFFF0000
FFFF0000
FFFF0000
FFFF0000
FFFF0000
FFFF0000
ENDCHAR

STARTCHAR q
ENCODING 113
SWIDTH 600 0
DWIDTH 30 0
BBX 24 34 3 -10
BITMAP
03FCFF
03FCFF
3FFFFF
3FFFFF
3FFFFF
3FFFFF
FF83FC
FF03FC
FF03FC
FF03FC
FF03FC
FF03FC
FF03FC
FF03FC
FF03FC
FF03FC
FF03FC
FF83FC
3FFFFC
3FFFFC
3FFFFC
3FFFFC
03F3FC
03F3FC
0003FC
0003FC
0003FC
0003FC
003FFF
003FFF
003FFF
003FFF
003FFF
003FFF
ENDCHAR

STARTCHAR r
ENCODING 114
SWIDTH 600 0
DWIDTH 30 0
BBX 24 24 4 0
BITMAP
FFF1FF
FFF1FF
FFFFFF
FFFFFF
FFFF3F
03FF3F
03FC3F
03FC3F
03FC00
03FC00
03FC00
03FC00
03FC00
03FC00
03FC00
03FC00
03FC00
03FC00
FFFFF0
FFFFF0
FFFFF0
FFFFF0
FFFFF0
FFFFF0
ENDCHAR

STARTCHAR s
ENCODING 115
SWIDTH 600 0
DWIDTH 30 0
BBX 20 24 5 0
BITMAP
0FFCF0
0FFCF0
3FFFF0
3FFFF0
FFFFF0
FFFFF0
FF00F0
FF00F0
FFF000
FFF000
3FFF00
3FFF00
0FFFC0
0FFFC0
00FFF0
00FFF0
F00FF0
F80FF0
FFFFF0
FFFFF0
FFFFC0
FFFFC0
F3FF00
F3FF00
ENDCHAR

STARTCHAR t
ENCODING 116
SWIDTH 600 0
DWIDTH 30 0
BBX 24 32 2 0
BITMAP
03FC00
03FC00
03FC00
03FC00
03FC00
03FC00
03FC00
03FC00
FFFFFE
FFFFFE
FFFFFE
FFFFFE
FFFFFE
FFFFFE
03FC00
03FC00
03FC00
03FC00
03FC00
03FC00
03FC00
03FC00
03FC00
03FC00
03FF00
03FF00
03FFFF
03FFFF
00FFFF
00FFFF
003FFF
003FFF
ENDCHAR

STARTCHAR u
ENCODING 117
SWIDTH 600 0
DWIDTH 30 0
BBX 25 24 2 0
BITMAP
FFE7FE00
FFE7FE00
FFE7FE00
FFE7FE00
FFE7FE00
1FE1FE00
1FE1FE00
1FE1FE00
1FE1FE00
1FE1FE00
1FE1FE00
1FE1FE00
1FE1FE00
1FE1FE00
1FE1FE00
1FE1FE00
1FE1FE00
1FE1FE00
1FFFFF80
1FFFFF80
1FFFFF80
1FFFFF80
07F9FF80
07F9FF80
ENDCHAR

STARTCHAR v
ENCODING 118
SWIDTH 600 0
DWIDTH 30 0
BBX 27 24 1 0
BITMAP
FFC07FE0
FFC07FE0
FFC07FE0
FFC07FE0
FFC07FE0
1FE0FF00
1FE0FF00
1FE0FF00
1FE0FF00
1FE0FF00
07F1FC00
07F1FC00
07F1FC00
07F1FC00
07F1FC00
07FFFC00
01FFF000
01FFF000
01FFF000
01FFF000
01FFF000
007FC000
007FC000
007FC000
ENDCHAR

STARTCHAR w
ENCODING 119
SWIDTH 600 0
DWIDTH 30 0
BBX 28 24 1 0
BITMAP
FFC03FF0
FFC03FF0
FFC03FF0
FFC03FF0
FFCF3FF0
1FCF3F80
1FCF3F80
1FCF3F80
1FCF3F80
1FCF3F80
1FCF3F80
1FCF3F80
1FFFFF80
1FFFFF80
1FFFFF80
1FFFFF80
1FFFFF80
1FFFFF80
07F0FE00
07F0FE00
07F0FE00
07F0FE00
07F0FE00
07F0FE00
ENDCHAR

STARTCHAR x
ENCODING 120
SWIDTH 600 0
DWIDTH 30 0
BBX 26 24 2 0
BITMAP
FF807FC0
FF807FC0
FF807FC0
FFE1FFC0
FFE1FFC0
07E1F800
07E1F800
07F3F800
07FFF800
07FFF800
01FFE000
01FFE000
01FFE000
01FFE000
07FFF800
07FFF800
07F3F800
07E1F800
FFE1FFC0
FFE1FFC0
FF807FC0
FF807FC0
FF807FC0
FF807FC0
ENDCHAR

STARTCHAR y
ENCODING 121
SWIDTH 600 0
DWIDTH 30 0
BBX 28 34 1 -10
BITMAP
FF801FF0
FF801FF0
FF801FF0
FF801FF0
FFE07FF0
0FE07F00
0FE07F00
0FE07F00
0FE07C00
0FF0FC00
03F0FC00
03F0FC00
03F0FC00
03F0FC00
03FFF000
03FFF000
00FFF000
00FFF000
00FFC000
00FFC000
00FFC000
00FFC000
003FC000
003FC000
003F0000
003F0000
00FF0000
00FF0000
00FF0000
00FF0000
0FFFF000
0FFFF000
0FFFF000
0FFFF000
ENDCHAR

STARTCHAR z
ENCODING 122
SWIDTH 600 0
DWIDTH 30 0
BBX 20 24 5 0
BITMAP
FFFFF0
FFFFF0
FFFFF0
FFFFF0
FFFFF0
FFFFF0
F03FC0
F03FC0
F03F00
F0FF00
00FC00
00FC00
03F800
03F000
0FF0F0
0FE0F0
3FC0F0
3FC0F0
FFFFF0
FFFFF0
FFFFF0
FFFFF0
FFFFF0
FFFFF0
ENDCHAR

STARTCHAR braceleft
ENCODING 123
SWIDTH 600 0
DWIDTH 30 0
BBX 18 44 7 -8
BITMAP
00FFC0
00FFC0
03FFC0
03FFC0
0FFFC0
0FFFC0
0FF000
0FF000
0FF000
0FF000
0FF000
0FF000
0FF000
0FF000
0FF000
0FF000
3FC000
3FC000
3FC000
3FC000
FF0000
FF0000
3FC000
3FC000
3FC000
3FC000
0FF000
0FF000
0FF000
0FF000
0FF000
0FF000
0FF000
0FF000
0FF000
0FF000
0FF000
0FF000
0FFFC0
0FFFC0
03FFC0
03FFC0
00FFC0
00FFC0
ENDCHAR

STARTCHAR bar
ENCODING 124
SWIDTH 600 0
DWIDTH 30 0
BBX 8 45 12 -7
BITMAP
FF
FF
FF
FF
FF
FF
FF
FF
FF
FF
FF
FF
FF
FF
FF
FF
FF
FF
FF
FF
FF
FF
FF
FF
FF
FF
FF
FF
FF
FF
FF
FF
FF
FF
FF
FF
FF
FF
FF
FF
FF
FF
FF
FF
FF
ENDCHAR

STARTCHAR braceright
ENCODING 125
SWIDTH 600 0
DWIDTH 30 0
BBX 18 44 6 -8
BITMAP
FFC000
FFC000
FFF000
FFF000
FFFC00
FFFC00
03FC00
03FC00
03FC00
03FC00
03FC00
03FC00
03FC00
03FC00
03FC00
03FC00
03FC00
03FC00
00FF00
00FF00
00FF00
00FF00
003FC0
003FC0
00FF00
00FF00
00FF00
00FF00
03FC00
03FC00
03FC00
03FC00
03FC00
03FC00
03FC00
03FC00
03FC00
03FC00
FFFC00
FFFC00
FFF000
FFF000
FFC000
FFC000
ENDCHAR

STARTCHAR asciitilde
ENCODING 126
SWIDTH 600 0
DWIDTH 30 0
BBX 24 10 3 10
BITMAP
0FC01F
3FF01F
3FF81F
7FFC1F
7FFF3F
FC7FFF
F83FFE
F81FFE
F807F8
F803F0
ENDCHAR

STARTCHAR unknown_0x9f
ENCODING 159
SWIDTH 600 0
DWIDTH 30 0
BBX 30 50 0 -10
BITMAP
03FFFF00
1FFFFFC0
3FFFFFF8
7FFFFFF8
7FFFFFFC
FFFFFFFC
FFFFFFFC
FFF00FFC
FFE007FC
FFC003FC
FFC003FC
FFC003FC
FFC003FC
FFE003FC
FFF003FC
7FFC0000
7FFC0000
3FFF0000
3FFF0000
0FFFC000
0FFFC000
03FFC000
03FFF000
00FFFC00
007FFC00
003FFC00
003FFC00
003FFC00
003FFC00
003FFC00
003FFC00
00000000
00000000
00000000
00000000
00000000
00000000
00000000
00000000
003FFC00
003FFC00
003FFC00
003FFC00
003FFC00
003FFC00
003FFC00
003FFC00
003FFC00
003FFC00
003FFC00
ENDCHAR

STARTCHAR unknown_0xa1
ENCODING 161
SWIDTH 600 0
DWIDTH 30 0
BBX 10 32 11 -8
BITMAP
1E00
1E00
FFC0
FFC0
FFC0
FFC0
FFC0
FFC0
1E00
1E00
0000
0000
7F80
7F80
7F80
7F80
7F80
7F80
7F80
7F80
7F80
7F80
7F80
7F80
7F80
7F80
7F80
7F80
7F80
7F80
7F80
7F80
ENDCHAR

STARTCHAR cent
ENCODING 162
SWIDTH 600 0
DWIDTH 30 0
BBX 22 34 4 -4
BITMAP
003C00
003C00
003C00
003C00
003C00
003C00
0FFFFC
0FFFFC
3FFFFC
3FFFFC
FFC0FC
FFC0FC
FF00FC
FF00FC
FF0000
FF0000
FF0000
FF0000
FF0000
FF0000
FFC0FC
FFC0FC
3FFFFC
3FFFFC
3FFFFC
3FFFFC
03FFC0
03FFC0
003C00
003C00
003C00
003C00
003C00
003C00
ENDCHAR

STARTCHAR sterling
ENCODING 163
SWIDTH 600 0
DWIDTH 30 0
BBX 26 30 2 0
BITMAP
03FFFC00
03FFFC00
0FFFFC00
0FFFFC00
0FE0FC00
0FC0FC00
0FC0FC00
0FC0FC00
0FF00000
0FF00000
03F00000
03F00000
FFFFF000
FFFFF000
FFFFF000
FFFFF000
03FC0000
03FC0000
03FC0000
03FC0000
03FC0000
03FC0000
0FF00FC0
0FF00FC0
3FFFFFC0
3FFFFFC0
3FFFFF00
3FFFFF00
3FC3FC00
3FC3FC00
ENDCHAR

STARTCHAR currency
ENCODING 164
SWIDTH 600 0
DWIDTH 30 0
BBX 24 26 3 0
BITMAP
FC003F
FC003F
FC003F
FC003F
3CFF3C
3CFF3C
0FFFF0
0FFFF0
3FC3FC
3FC3FC
3FC3FC
3FC3FC
3FC3FC
3FC3FC
3FC3FC
3FC3FC
3FC3FC
3FC3FC
0FFFF0
0FFFF0
3CFF3C
3CFF3C
FC003F
FC003F
FC003F
FC003F
ENDCHAR

STARTCHAR yen
ENCODING 165
SWIDTH 600 0
DWIDTH 30 0
BBX 28 30 1 0
BITMAP
FFF0FFF0
FFF0FFF0
FFF0FFF0
FFF0FFF0
FFF0FFF0
FFF0FFF0
3FC03F00
3FC03F00
0FF03C00
0FF03C00
FFFCFFF0
FFFCFFF0
FFFFFFF0
FFFFFFF0
00FFF000
00FFF000
003FC000
003FC000
FFFFFFF0
FFFFFFF0
FFFFFFF0
FFFFFFF0
003FC000
003FC000
03FFFC00
03FFFC00
03FFFC00
03FFFC00
03FFFC00
03FFFC00
ENDCHAR

STARTCHAR brokenbar
ENCODING 166
SWIDTH 600 0
DWIDTH 30 0
BBX 8 44 11 -7
BITMAP
FF
FF
FF
FF
FF
FF
FF
FF
FF
FF
FF
FF
FF
FF
FF
FF
FF
FF
FF
FF
00
00
00
00
FF
FF
FF
FF
FF
FF
FF
FF
FF
FF
FF
FF
FF
FF
FF
FF
FF
FF
FF
FF
ENDCHAR

STARTCHAR section
ENCODING 167
SWIDTH 600 0
DWIDTH 30 0
BBX 26 36 2 -4
BITMAP
003FFF00
003FFF00
03FFFF00
03FFFF00
0FFFFF00
0FFFFF00
3FFC0F00
3FFE0F00
FFFF0000
FFFF8000
FCFFC000
FCFFE000
FC3FF000
FC3FF800
FF0FFC00
FF0FFE00
FFC3FF00
7FC0FF80
3FF07F80
1FF07FC0
1FFC1FC0
07FC1FC0
01FF1FC0
01FF3FC0
00FFFF00
003FFF00
001FFF00
000FFC00
3C07FC00
3C03FC00
3FFFFC00
3FFFF000
3FFFF000
3FFFF000
3FFFC000
3FFFC000
ENDCHAR

STARTCHAR dieresis
ENCODING 168
SWIDTH 600 0
DWIDTH 30 0
BBX 20 8 5 28
BITMAP
3C03C0
7E07E0
FF0FF0
FF0FF0
FF0FF0
FF0FF0
7E07E0
3C03C0
ENDCHAR

STARTCHAR copyright
ENCODING 169
SWIDTH 600 0
DWIDTH 30 0
BBX 28 32 1 0
BITMAP
03FFFC00
03FFFC00
3FFFFFC0
3FFFFFC0
3F000FC0
3F000FC0
3F000FC0
3F000FC0
FC3FC3F0
FC3FC3F0
FCFFC3F0
FCFFC3F0
FCFC03F0
FCFC03F0
FCFC03F0
FCFC03F0
FCFC03F0
FCFC03F0
FCFC03F0
FCFC03F0
FCFFC3F0
FCFFC3F0
FC3FC3F0
FC3FC3F0
3F000FC0
3F000FC0
3F000FC0
3F000FC0
3FFFFFC0
3FFFFFC0
03FFFC00
03FFFC00
ENDCHAR

STARTCHAR multiply
ENCODING 170
SWIDTH 600 0
DWIDTH 30 0
BBX 20 30 5 6
BITMAP
3FF000
3FFC00
3FFF00
3FFF00
3FFFC0
3FFFC0
000FC0
000FC0
0FFFC0
3FFFC0
3FFFC0
FFFFC0
FF0FC0
FF0FC0
FF0FC0
FF0FC0
FF0FC0
FF0FC0
FFFFF0
3FFFF0
3FF3F0
0FF3F0
000000
000000
FFFFF0
FFFFF0
FFFFF0
FFFFF0
FFFFF0
FFFFF0
ENDCHAR

STARTCHAR guillemotleft
ENCODING 171
SWIDTH 600 0
DWIDTH 30 0
BBX 24 18 3 0
BITMAP
00F00F
00F00F
03F03F
03F03F
0FF0FF
0FF0FF
3FC3FC
3FC3FC
FF0FF0
FF0FF0
3FC3FC
3FC3FC
0FF0FF
0FF0FF
03F03F
03F03F
00F00F
00F00F
ENDCHAR

STARTCHAR logicalnot
ENCODING 172
SWIDTH 600 0
DWIDTH 30 0
BBX 22 16 4 6
BITMAP
FFFFFC
FFFFFC
FFFFFC
FFFFFC
FFFFFC
FFFFFC
0000FC
0000FC
0000FC
0000FC
0000FC
0000FC
0000FC
0000FC
0000FC
0000FC
ENDCHAR

STARTCHAR hyphen
ENCODING 173
SWIDTH 600 0
DWIDTH 30 0
BBX 18 6 6 10
BITMAP
FFFFC0
FFFFC0
FFFFC0
FFFFC0
FFFFC0
FFFFC0
ENDCHAR

STARTCHAR registered
ENCODING 174
SWIDTH 600 0
DWIDTH 30 0
BBX 28 32 1 0
BITMAP
00FFF000
00FFF000
3FFFFFC0
3FFFFFC0
3F000FC0
3F000FC0
FC0003F0
FC0003F0
FCFFC3F0
FCFFC3F0
FCF1F3F0
FCF0F3F0
FCF0F3F0
FCF0F3F0
FCF1F3F0
FCF3E3F0
FCFF83F0
FCFF83F0
FCF3C3F0
FCF3C3F0
FCF1F3F0
FCF0F3F0
FCF0FBF0
FCF0FBF0
FC0003F0
FC0003F0
3F000FC0
3F000FC0
3FFFFFC0
3FFFFFC0
03FFFC00
03FFFC00
ENDCHAR

STARTCHAR macron
ENCODING 175
SWIDTH 600 0
DWIDTH 30 0
BBX 18 6 6 30
BITMAP
FFFFC0
FFFFC0
FFFFC0
FFFFC0
FFFFC0
FFFFC0
ENDCHAR

STARTCHAR degree
ENCODING 176
SWIDTH 600 0
DWIDTH 30 0
BBX 18 16 6 19
BITMAP
0FFC00
0FFC00
3FFF00
3FFF00
FE1FC0
FC0FC0
FC0FC0
FC0FC0
FC0FC0
FC0FC0
FC0FC0
FE1FC0
3FFF00
3FFF00
0FFC00
0FFC00
ENDCHAR

STARTCHAR plusminus
ENCODING 177
SWIDTH 600 0
DWIDTH 30 0
BBX 22 30 4 0
BITMAP
00FC00
00FC00
00FC00
00FC00
00FC00
00FC00
00FC00
00FC00
FFFFFC
FFFFFC
FFFFFC
FFFFFC
FFFFFC
FFFFFC
00FC00
00FC00
00FC00
00FC00
00FC00
00FC00
00FC00
00FC00
000000
000000
FFFFFC
FFFFFC
FFFFFC
FFFFFC
FFFFFC
FFFFFC
ENDCHAR

STARTCHAR twosuperior
ENCODING 178
SWIDTH 600 0
DWIDTH 30 0
BBX 16 20 7 16
BITMAP
7FF0
7FFC
7FFF
7FFF
7FFF
007F
007F
01FF
01FE
07FE
07F8
07F8
1FE0
1FC0
FFFF
FFFF
FFFF
FFFF
FFFF
FFFF
ENDCHAR

STARTCHAR threesuperior
ENCODING 179
SWIDTH 600 0
DWIDTH 30 0
BBX 15 20 7 15
BITMAP
3FF8
3FF8
FFFE
FFFE
FFFE
F0FE
00FE
00FE
0FF8
0FF8
0FF8
00FE
00FE
00FE
F0FE
FFFE
FFFE
FFFE
3FF8
3FF8
ENDCHAR

STARTCHAR acute
ENCODING 180
SWIDTH 600 0
DWIDTH 30 0
BBX 14 10 8 27
BITMAP
03FC
03FC
03FC
0FFC
0FF0
0FF0
3F80
3F00
FC00
FC00
ENDCHAR

STARTCHAR mu
ENCODING 181
SWIDTH 600 0
DWIDTH 30 0
BBX 26 31 2 -7
BITMAP
0FF03FC0
0FF03FC0
0FF03FC0
0FF03FC0
0FF03FC0
0FF03FC0
0FF03FC0
0FF03FC0
0FF03FC0
0FF03FC0
0FF0FF00
0FF0FF00
3FC0FF00
3FC0FF00
3FC0FF00
3FC0FF00
3FC3FF00
3FC3FF00
3FFFFFC0
3FFFFFC0
FFFFFFC0
FFFFFFC0
FFFC3FC0
FFFC3FC0
FF000000
FF000000
FF000000
FF000000
FF000000
FF000000
FF000000
ENDCHAR

STARTCHAR paragraph
ENCODING 182
SWIDTH 600 0
DWIDTH 30 0
BBX 26 36 2 -3
BITMAP
03FFFFC0
03FFFFC0
0FFFFFC0
0FFFFFC0
3FFE3FC0
3FFE3F00
FFFE3F00
FFFE3F00
FFFE3F00
FFFE3F00
FFFE3F00
FFFE3F00
FFFE3F00
FFFE3F00
3FFE3F00
3FFE3F00
0FFE3F00
0FFE3F00
03FE3F00
03FE3F00
007E3F00
007E3F00
007E3F00
007E3F00
007E3F00
007E3F00
007E3F00
007E3F00
007E3F00
007E3F00
03FE3FC0
03FE3FC0
03FE3FC0
03FE3FC0
03FE3FC0
03FE3FC0
ENDCHAR

STARTCHAR periodcentered
ENCODING 183
SWIDTH 600 0
DWIDTH 30 0
BBX 10 10 10 8
BITMAP
3F00
3F00
FFC0
FFC0
FFC0
FFC0
FFC0
FFC0
3F00
3F00
ENDCHAR

STARTCHAR cedilla
ENCODING 184
SWIDTH 600 0
DWIDTH 30 0
BBX 14 10 8 -10
BITMAP
0F00
0F00
0FF0
0FF0
0FFC
0FFC
00FC
00FC
FFF0
FFF0
ENDCHAR

STARTCHAR onesuperior
ENCODING 185
SWIDTH 600 0
DWIDTH 30 0
BBX 15 20 8 16
BITMAP
0FE0
0FE0
3FE0
FFE0
FFE0
FFE0
CFE0
0FE0
0FE0
0FE0
0FE0
0FE0
0FE0
0FE0
FFFE
FFFE
FFFE
FFFE
FFFE
FFFE
ENDCHAR

STARTCHAR divide
ENCODING 186
SWIDTH 600 0
DWIDTH 30 0
BBX 20 30 5 6
BITMAP
0FFF00
0FFF00
3FFFC0
3FFFC0
3FFFC0
3FFFC0
FF0FF0
FF0FF0
FF0FF0
FF0FF0
FF0FF0
FF0FF0
FF0FF0
FF0FF0
FF0FF0
FF0FF0
3FFFF0
3FFFF0
3FFFC0
3FFFC0
0FFF00
0FFF00
000000
000000
FFFFF0
FFFFF0
FFFFF0
FFFFF0
FFFFF0
FFFFF0
ENDCHAR

STARTCHAR guillemotright
ENCODING 187
SWIDTH 600 0
DWIDTH 30 0
BBX 24 18 3 0
BITMAP
F00F00
F00F00
FC0FC0
FC0FC0
FF0FF0
FF0FF0
3FC3FC
3FC3FC
0FF0FF
0FF0FF
3FC3FC
3FC3FC
FF0FF0
FF0FF0
FC0FC0
FC0FC0
F00F00
F00F00
ENDCHAR

STARTCHAR onequarter
ENCODING 188
SWIDTH 600 0
DWIDTH 30 0
BBX 26 42 2 -10
BITMAP
0FC00000
3FC00000
FFC00000
FFC00000
FFC00000
CFC00000
0FC00000
0FC00000
0FC00000
0FC00000
0FC00000
0FC00000
FFFC0000
FFFC0000
FFFC0000
FFFC0000
FFFC1F00
FFFC1F00
0000FF00
0000FF00
000FF000
000FF000
00FF0000
00FF0000
0FF03F00
0FF03F00
FF00FF00
FF00FF00
FC03FF00
FC03FF00
000F3F00
000F3F00
003C3F00
003C3F00
003FFFC0
003FFFC0
003FFFC0
003FFFC0
00003F00
00003F00
00003F00
00003F00
ENDCHAR

STARTCHAR onehalf
ENCODING 189
SWIDTH 600 0
DWIDTH 30 0
BBX 26 42 2 -10
BITMAP
0FC00000
3FC00000
FFC00000
FFC00000
FFC00000
CFC00000
0FC00000
0FC00000
0FC00000
0FC00000
0FC00000
0FC00000
FFFC0000
FFFC0000
FFFC0F00
FFFC0F00
FFFCFF00
FFFCFF00
000FF000
000FF000
007F0000
007F0000
03F00000
03F00000
3FCFFF00
3FCFFF00
FC3FFFC0
FC3FFFC0
F03F0FC0
F03F0FC0
00003FC0
00003FC0
0000FF00
0000FF00
0003FC00
0003FC00
000FF000
000FF000
003FFFC0
003FFFC0
003FFFC0
003FFFC0
ENDCHAR

STARTCHAR threequarters
ENCODING 190
SWIDTH 600 0
DWIDTH 30 0
BBX 26 42 2 -10
BITMAP
3FF00000
3FF00000
FFFC0000
FFFC0000
F0FC0000
F0FC0000
00FC0000
00FC0000
0FF00000
0FF00000
00FC0000
00FC0000
F0FC0000
F0FC0000
FFFC0780
FFFC0780
3FF03F80
3FF03F80
0003FC00
0003FC00
003FC000
003FC000
03FC0000
03FC0000
3FF03F00
3FF03F00
FF00FF00
FF00FF00
F003FF00
F003FF00
000F3F00
000F3F00
003C3F00
003C3F00
003FFFC0
003FFFC0
003FFFC0
003FFFC0
00003F00
00003F00
00003F00
00003F00
ENDCHAR

STARTCHAR unknown_0xbf
ENCODING 191
SWIDTH 600 0
DWIDTH 30 0
BBX 20 34 5 -9
BITMAP
003C00
003C00
01FF80
01FF80
01FF80
01FF80
01FF80
01FF80
003C00
003C00
000000
000000
000000
007F00
007F00
007F00
00FF00
00FF00
03FF00
03FF00
3FFC00
3FFC00
FFE000
FFE000
FF8000
FF0000
FF0FF0
FF0FF0
FFFFF0
FFFFF0
FFFFF0
3FFFF0
3FFFC0
0FFFC0
ENDCHAR

STARTCHAR dblunderscore
ENCODING 223
SWIDTH 600 0
DWIDTH 30 0
BBX 30 41 0 -9
BITMAP
00000000
00000000
00000000
00000000
00000000
00000000
00000000
00000000
00000000
00000000
00000000
00000000
00000000
00000000
00000000
00000000
00000000
00000000
00000000
00000000
00000000
00000000
00000000
00000000
00000000
00000000
00000000
00000000
00000000
00000000
FFFFFFFC
FFFFFFFC
FFFFFFFC
FFFFFFFC
00000000
00000000
00000000
FFFFFFFC
FFFFFFFC
FFFFFFFC
FFFFFFFC
ENDCHAR

STARTCHAR aleph
ENCODING 224
SWIDTH 600 0
DWIDTH 30 0
BBX 25 27 3 0
BITMAP
FF03FF00
FF83FF00
7F83FF00
3FC3FF00
1FE3FF00
1FF0FF00
0FF0FF00
07F8FF00
03FCFF00
03FEFF00
01FEFF00
3FFFFE00
3FFFFE00
3FFFFE00
3FFFC000
3FDFE000
7F8FF000
7F8FF800
7F87F800
7F83FC00
7F81FE00
7F81FE00
FF00FF00
FF007F80
FF003F80
FF003F80
FF001F00
ENDCHAR

STARTCHAR beth
ENCODING 225
SWIDTH 600 0
DWIDTH 30 0
BBX 25 27 3 0
BITMAP
7FFFC000
7FFFC000
7FFFF000
7FFFF000
7FFFFC00
7FFFFC00
0007FC00
0003FC00
0003FC00
0003FC00
0003FC00
0003FC00
0003FC00
0003FC00
0003FC00
0003FC00
0003FC00
0003FC00
0003FC00
0003FC00
0003FC00
FFFFFF80
FFFFFF80
FFFFFF80
FFFFFF80
FFFFFF80
FFFFFF80
ENDCHAR

STARTCHAR gimmel
ENCODING 226
SWIDTH 600 0
DWIDTH 30 0
BBX 24 27 3 0
BITMAP
1FFC00
1FFE00
1FFF00
1FFF80
1FFF80
1FFFC0
007FC0
003FC0
003FE0
001FE0
001FE0
001FF0
000FF0
000FF0
000FF8
0007F8
01FFF8
01FFFC
07FFFC
07FFFC
1FFFFE
1FF1FE
FFF1FE
FFC1FF
FFC0FF
FF00FF
FF00FF
ENDCHAR

STARTCHAR daleth
ENCODING 227
SWIDTH 600 0
DWIDTH 30 0
BBX 24 27 3 0
BITMAP
FFFFFF
FFFFFF
FFFFFF
FFFFFF
FFFFFF
FFFFFF
000FF0
000FF0
000FF0
000FF0
000FF0
000FF0
000FF0
000FF0
000FF0
000FF0
000FF0
000FF0
000FF0
000FF0
000FF0
000FF0
000FF0
000FF0
000FF0
000FF0
000FF0
ENDCHAR

STARTCHAR he
ENCODING 228
SWIDTH 600 0
DWIDTH 30 0
BBX 24 27 3 0
BITMAP
FFFFF0
FFFFF0
FFFFFC
FFFFFC
FFFFFF
FFFFFF
0001FF
0000FF
0000FF
0000FF
0000FF
0000FF
0000FF
0000FF
FF00FF
FF00FF
FF00FF
FF00FF
FF00FF
FF00FF
FF00FF
FF00FF
FF00FF
FF00FF
FF00FF
FF00FF
FF00FF
ENDCHAR

STARTCHAR waw
ENCODING 229
SWIDTH 600 0
DWIDTH 30 0
BBX 24 27 3 0
BITMAP
07FFC0
07FFC0
07FFC0
07FFC0
07FFC0
07FFC0
003FC0
003FC0
003FC0
003FC0
003FC0
003FC0
003FC0
003FC0
003FC0
003FC0
003FC0
003FC0
003FC0
003FC0
003FC0
003FC0
003FC0
003FC0
003FC0
003FC0
003FC0
ENDCHAR

STARTCHAR zayin
ENCODING 230
SWIDTH 600 0
DWIDTH 30 0
BBX 25 27 1 0
BITMAP
0FFFFF00
0FFFFF00
0FFFFF00
0FFFFF00
0FFFFF00
0FFFFF00
001FF000
001FE000
003FC000
003FC000
007F8000
007F8000
00FF0000
00FF0000
00FF0000
00FF0000
00FF0000
007F8000
007F8000
007F8000
003FC000
003FC000
003FC000
003FC000
001FE000
001FE000
001FE000
ENDCHAR

STARTCHAR het
ENCODING 231
SWIDTH 600 0
DWIDTH 30 0
BBX 26 27 2 0
BITMAP
FFFFFC00
FFFFFC00
FFFFFF00
FFFFFF00
FFFFFFC0
FFFFFFC0
3FC07FC0
3FC03FC0
3FC03FC0
3FC03FC0
3FC03FC0
3FC03FC0
3FC03FC0
3FC03FC0
3FC03FC0
3FC03FC0
3FC03FC0
3FC03FC0
3FC03FC0
3FC03FC0
3FC03FC0
3FC03FC0
3FC03FC0
3FC03FC0
3FC03FC0
3FC03FC0
3FC03FC0
ENDCHAR

STARTCHAR teth
ENCODING 232
SWIDTH 600 0
DWIDTH 30 0
BBX 26 27 2 0
BITMAP
7F81FFC0
7F81FFC0
7F81FFC0
7F81FFC0
7F81FFC0
7F81FFC0
7F803FC0
7F803FC0
7F803FC0
3F803FC0
3FC03FC0
3FC03FC0
3FC03FC0
3FC03FC0
3FC03FC0
3FC03FC0
3FC03FC0
1FE03FC0
1FE03FC0
1FE0FFC0
1FE0FFC0
1FFFFFC0
1FFFFFC0
1FFFFF00
1FFFFF00
1FFFFC00
1FFFFC00
ENDCHAR

STARTCHAR yod
ENCODING 233
SWIDTH 600 0
DWIDTH 30 0
BBX 22 27 4 0
BITMAP
1FFFC0
1FFFC0
1FFFC0
1FFFC0
1FFFC0
1FFFC0
003FC0
003FC0
003FC0
003FC0
003FC0
003FC0
003FC0
003FC0
000000
000000
000000
000000
000000
000000
000000
000000
000000
000000
000000
000000
000000
ENDCHAR

STARTCHAR kaphfinal
ENCODING 234
SWIDTH 600 0
DWIDTH 30 0
BBX 24 35 3 -8
BITMAP
FFFFF0
FFFFF0
FFFFFC
FFFFFC
FFFFFF
FFFFFF
0001FF
0000FF
0000FF
0000FF
0000FF
0000FF
0000FF
0000FF
0000FF
0000FF
0000FF
0000FF
0000FF
0000FF
0000FF
0000FF
0000FF
0000FF
0000FF
0000FF
0000FF
0000FF
0000FF
0000FF
0000FF
0000FF
0000FF
0000FF
0000FF
ENDCHAR

STARTCHAR kaph
ENCODING 235
SWIDTH 600 0
DWIDTH 30 0
BBX 24 27 3 0
BITMAP
FFFFC0
FFFFC0
FFFFFC
FFFFFC
FFFFFC
FFFFFC
0003FF
0003FF
0000FF
0000FF
0000FF
0000FF
0000FF
0000FF
0000FF
0000FF
0000FF
0000FF
0000FF
0003FF
0003FF
FFFFFC
FFFFFC
FFFFFC
FFFFFC
FFFFC0
FFFFC0
ENDCHAR

STARTCHAR lamed
ENCODING 236
SWIDTH 600 0
DWIDTH 30 0
BBX 25 37 1 0
BITMAP
00000000
00000000
7F800000
7F800000
7F800000
7F800000
7F800000
7F800000
7F800000
7F800000
7FFFFF80
7FFFFF80
7FFFFF80
7FFFFF80
7FFFFF80
7FFFFF80
00007F80
00007F80
00007F80
00007F80
00007F80
00007F80
00007F80
00007F00
0000FF00
0000FF00
0000FF00
0001FF00
0001FE00
0003FE00
0007FE00
00FFFC00
00FFFC00
00FFF800
00FFF000
00FFC000
00FF0000
ENDCHAR

STARTCHAR memfinal
ENCODING 237
SWIDTH 600 0
DWIDTH 30 0
BBX 26 27 0 0
BITMAP
FFFFFC00
FFFFFC00
FFFFFF00
FFFFFF00
FFFFFFC0
FFFFFFC0
3FC07FC0
3FC03FC0
3FC03FC0
3FC03FC0
3FC03FC0
3FC03FC0
3FC03FC0
3FC03FC0
3FC03FC0
3FC03FC0
3FC03FC0
3FC03FC0
3FC03FC0
3FC03FC0
3FC03FC0
3FFFFFC0
3FFFFFC0
3FFFFFC0
3FFFFFC0
3FFFFFC0
3FFFFFC0
ENDCHAR

STARTCHAR mem
ENCODING 238
SWIDTH 600 0
DWIDTH 30 0
BBX 25 27 2 0
BITMAP
7FFFF800
7FFFF800
7FFFFE00
7FFFFE00
7FFFFF80
7FFFFF80
0FF0FF80
0FF07F80
0FF07F80
1FE07F80
1FE07F80
1FE07F80
1FE07F80
3FC07F80
3FC07F80
3FC07F80
3FC07F80
7F807F80
7F807F80
7F807F80
7F807F80
FF1FFF80
FF1FFF80
FF1FFF80
FF1FFF80
FF1FFF80
FF1FFF80
ENDCHAR

STARTCHAR nunfinal
ENCODING 239
SWIDTH 600 0
DWIDTH 30 0
BBX 25 35 2 -8
BITMAP
00FFFF00
00FFFF00
00FFFF00
00FFFF00
00FFFF00
00FFFF00
0000FF00
0000FF00
0000FF00
0000FF00
0000FF00
0000FF00
0000FF00
0000FF00
0000FF00
0000FF00
0000FF00
0000FF00
0000FF00
0000FF00
0000FF00
0000FF00
0000FF00
0000FF00
0000FF00
0000FF00
0000FF00
0000FF00
0000FF00
0000FF00
0000FF00
0000FF00
0000FF00
0000FF00
0000FF00
ENDCHAR

STARTCHAR nun
ENCODING 240
SWIDTH 600 0
DWIDTH 30 0
BBX 24 27 2 0
BITMAP
00FFFC
00FFFC
00FFFC
00FFFC
00FFFC
00FFFC
0003FC
0003FC
0003FC
0003FC
0003FC
0003FC
0003FC
0003FC
0003FC
0003FC
0003FC
0003FC
0003FC
0003FC
0003FC
07FFFC
07FFFC
07FFFC
07FFFC
07FFFC
07FFFC
ENDCHAR

STARTCHAR samekh
ENCODING 241
SWIDTH 600 0
DWIDTH 30 0
BBX 26 27 1 0
BITMAP
7FFFFFC0
7FFFFFC0
7FFFFFC0
7FFFFFC0
7FFFFFC0
7FFFFFC0
7F803FC0
7F803FC0
7F803FC0
7F803FC0
7F803FC0
3FC03FC0
3FC03FC0
3FC03FC0
3FC03FC0
3FC03FC0
3FC03FC0
3FC03FC0
1FE03FC0
1FE0FFC0
1FE0FFC0
1FFFFF00
1FFFFF00
1FFFFF00
1FFFFF00
1FFFF000
1FFFF000
ENDCHAR

STARTCHAR ayin
ENCODING 242
SWIDTH 600 0
DWIDTH 30 0
BBX 26 27 1 0
BITMAP
FFC3FFC0
FFC3FFC0
FFC3FFC0
FFC3FFC0
FFC3FFC0
FFE3FFC0
1FE03FC0
1FE03FC0
1FE03FC0
1FE03FC0
0FF03FC0
0FF03FC0
0FF03FC0
0FF03FC0
0FF03FC0
0FF03FC0
07F83FC0
07F83FC0
07F83FC0
07F8FFC0
07F8FFC0
FFFFFF00
FFFFFF00
FFFFFF00
FFFFFF00
FFFFF000
FFFFF000
ENDCHAR

STARTCHAR pefinal
ENCODING 243
SWIDTH 600 0
DWIDTH 30 0
BBX 28 35 1 -8
BITMAP
FFFFFFC0
FFFFFFC0
FFFFFFC0
FFFFFFC0
FFFFFFC0
FFFFFFC0
3FC03FC0
3FC03FC0
3FC03FC0
3FC03FC0
3FC03FC0
3FC03FC0
3FC03FC0
3FC03FC0
00003FC0
00003FC0
00003FC0
00003FC0
00003FC0
00003FC0
00003FC0
00003FC0
00003FC0
00003FC0
00003FC0
00003FC0
00003FC0
00003FC0
00003FC0
00003FC0
00003FC0
00003FC0
00003FC0
00003FC0
00003FC0
ENDCHAR

STARTCHAR pe
ENCODING 244
SWIDTH 600 0
DWIDTH 30 0
BBX 26 27 2 0
BITMAP
FFFFFFC0
FFFFFFC0
FFFFFFC0
FFFFFFC0
FFFFFFC0
FFFFFFC0
3FC03FC0
3FC03FC0
3FC03FC0
3FC03FC0
3FC03FC0
3FC03FC0
3FC03FC0
3FC03FC0
00003FC0
00003FC0
00003FC0
00003FC0
00003FC0
0000FFC0
0000FFC0
FFFFFF00
FFFFFF00
FFFFFF00
FFFFFF00
FFFFF000
FFFFF000
ENDCHAR

STARTCHAR zadikfinal
ENCODING 245
SWIDTH 600 0
DWIDTH 30 0
BBX 27 35 1 -8
BITMAP
FF81FFE0
FFC1FFE0
FFC1FFE0
FFE1FFE0
FFE1FFE0
FFF1FFE0
1FF01FE0
1FF81FE0
0FF81FC0
0FFC3FC0
07FC3FC0
07FE3F80
03FE7F80
03FF7F80
01FF7F00
01FFFF00
00FFFF00
00FFC000
007FC000
007FE000
003FE000
003FF000
001FF000
001FF800
000FF800
000FFC00
0007FC00
0007FE00
0003FE00
0003FF00
0001FF00
0001FF80
0000FF80
0000FFC0
00007FC0
ENDCHAR

STARTCHAR zadik
ENCODING 246
SWIDTH 600 0
DWIDTH 30 0
BBX 26 27 2 0
BITMAP
FF01FFC0
FF01FFC0
FF81FFC0
FFC1FFC0
7FE1FFC0
7FE1FFC0
3FF03FC0
1FF83FC0
0FFC3F80
0FFC7F80
07FE7F80
03FF7F00
01FFFF00
01FFFF00
00FFFF00
007FE000
003FF000
003FF000
001FF800
000FFC00
0007FE00
0007FE00
FFFFFF00
FFFFFF80
FFFFFFC0
FFFFFFC0
FFFFFFC0
ENDCHAR

STARTCHAR kof
ENCODING 247
SWIDTH 600 0
DWIDTH 30 0
BBX 25 35 2 -8
BITMAP
FFFFF800
FFFFF800
FFFFFE00
FFFFFE00
FFFFFF80
FFFFFF80
0000FF80
00007F80
00007F80
00007F80
00007F80
00007F80
00007F80
00007F80
7F807F80
7F807F80
7F807F80
7F807F80
7F807F80
7F81FF00
7F81FF00
7F8FFF00
7F8FFE00
7F8FFE00
7F8FFC00
7F8FF800
7F8FE000
7F800000
7F800000
7F800000
7F800000
7F800000
7F800000
7F800000
7F800000
ENDCHAR

STARTCHAR resh
ENCODING 248
SWIDTH 600 0
DWIDTH 30 0
BBX 25 27 3 0
BITMAP
FFFFF000
FFFFF000
FFFFFC00
FFFFFC00
FFFFFF00
FFFFFF00
0001FF00
0000FF00
0000FF00
0000FF00
0000FF00
0000FF00
0000FF00
0000FF00
0000FF00
0000FF00
0000FF00
0000FF00
0000FF00
0000FF00
0000FF00
0000FF00
0000FF00
0000FF00
0000FF00
0000FF00
0000FF00
ENDCHAR

STARTCHAR shin
ENCODING 249
SWIDTH 600 0
DWIDTH 30 0
BBX 27 27 1 0
BITMAP
7F1F9FE0
7F1F9FE0
7F1F9FE0
7F1F9FE0
7F1F9FE0
7F9F9FE0
7F9F9FE0
3FBF1FE0
3FBF1FE0
3FBF1FE0
3FFF1FE0
3FFE1FE0
3FFE1FE0
3FFE1FE0
1FFE1FE0
1FE01FE0
1FE01FE0
1FE01FE0
1FE01FE0
1FE07FE0
1FE07FE0
0FFFFF80
0FFFFF80
0FFFFF80
0FFFFF80
0FFFF800
0FFFF800
ENDCHAR

STARTCHAR taf
ENCODING 250
SWIDTH 600 0
DWIDTH 30 0
BBX 27 27 1 0
BITMAP
FFFFFC00
FFFFFC00
FFFFFF00
FFFFFF00
FFFFFFC0
FFFFFFC0
1FE07FC0
1FE03FC0
1FE03FC0
1FE03FC0
1FE03FC0
1FE03FC0
1FE03FC0
1FE03FC0
1FE03FC0
1FE03FC0
1FE03FC0
1FE03FC0
1FE03FC0
1FE03FC0
1FE03FC0
FFE03FC0
FFE03FC0
FFE03FC0
FFE03FC0
FFE03FC0
FFC03FC0
ENDCHAR

ENDFONT
