STARTFONT 2.1
FONT -DEC-Terminal-Bold-R-Narrow--18-140-100-100-C-7-ISO8859-8
SIZE 14 100 100
FONTBOUNDINGBOX 7 20 0 -5

STARTPROPERTIES 25
FONTNAME_REGISTRY ""
FAMILY_NAME "Terminal"
FOUNDRY "DEC"
WEIGHT_NAME "Bold"
SETWIDTH_NAME "Narrow"
SLANT "R"
ADD_STYLE_NAME ""
PIXEL_SIZE 18
RESOLUTION_X 100
RESOLUTION_Y 100
SPACING "C"
AVERAGE_WIDTH 70
CHARSET_REGISTRY "ISO8859"
CHARSET_ENCODING "8"
CHARSET_COLLECTIONS "ASCII ISO8859-8"
FULL_NAME "Terminal Bold Narrow"
COPYRIGHT "Digital Israel"
CAP_HEIGHT 11
X_HEIGHT 9
QUAD_WIDTH 7
POINT_SIZE 140
WEIGHT 10
DEFAULT_CHAR 159
FONT_DESCENT 5
FONT_ASCENT 15
ENDPROPERTIES

CHARS 156

STARTCHAR space
ENCODING 32
SWIDTH 360 0
DWIDTH 7 0
BBX 4 11 2 0
BITMAP
00
00
00
00
00
00
00
00
00
00
00
ENDCHAR

STARTCHAR exclam
ENCODING 33
SWIDTH 360 0
DWIDTH 7 0
BBX 4 11 2 0
BITMAP
60
60
60
60
60
60
60
00
60
F0
60
ENDCHAR

STARTCHAR quotedbl
ENCODING 34
SWIDTH 360 0
DWIDTH 7 0
BBX 5 5 1 8
BITMAP
D8
D8
D8
D8
D8
ENDCHAR

STARTCHAR numbersign
ENCODING 35
SWIDTH 360 0
DWIDTH 7 0
BBX 6 13 1 -2
BITMAP
48
48
48
48
FC
FC
48
48
FC
FC
48
48
48
ENDCHAR

STARTCHAR dollar
ENCODING 36
SWIDTH 360 0
DWIDTH 7 0
BBX 6 15 1 -3
BITMAP
30
30
78
FC
CC
C0
F0
7C
0C
CC
FC
F8
30
30
30
ENDCHAR

STARTCHAR percent
ENCODING 37
SWIDTH 360 0
DWIDTH 7 0
BBX 7 11 0 0
BITMAP
70
D8
D8
70
06
3C
E0
1C
36
36
1C
ENDCHAR

STARTCHAR ampersand
ENCODING 38
SWIDTH 360 0
DWIDTH 7 0
BBX 6 11 1 0
BITMAP
38
78
60
60
60
70
F4
DC
D8
FC
6C
ENDCHAR

STARTCHAR quoteright
ENCODING 39
SWIDTH 360 0
DWIDTH 7 0
BBX 4 5 2 8
BITMAP
30
20
60
40
C0
ENDCHAR

STARTCHAR parenleft
ENCODING 40
SWIDTH 360 0
DWIDTH 7 0
BBX 4 14 2 -2
BITMAP
30
30
60
60
C0
C0
C0
C0
C0
C0
60
60
30
30
ENDCHAR

STARTCHAR parenright
ENCODING 41
SWIDTH 360 0
DWIDTH 7 0
BBX 4 14 2 -2
BITMAP
C0
C0
60
60
30
30
30
30
30
30
60
60
C0
C0
ENDCHAR

STARTCHAR asterisk
ENCODING 42
SWIDTH 360 0
DWIDTH 7 0
BBX 5 7 1 2
BITMAP
20
20
A8
F8
70
50
D8
ENDCHAR

STARTCHAR plus
ENCODING 43
SWIDTH 360 0
DWIDTH 7 0
BBX 6 8 1 1
BITMAP
30
30
30
FC
FC
30
30
30
ENDCHAR

STARTCHAR comma
ENCODING 44
SWIDTH 360 0
DWIDTH 7 0
BBX 3 5 2 -2
BITMAP
60
60
C0
C0
80
ENDCHAR

STARTCHAR minus
ENCODING 45
SWIDTH 360 0
DWIDTH 7 0
BBX 4 2 2 3
BITMAP
F0
F0
ENDCHAR

STARTCHAR period
ENCODING 46
SWIDTH 360 0
DWIDTH 7 0
BBX 4 3 2 0
BITMAP
60
F0
60
ENDCHAR

STARTCHAR slash
ENCODING 47
SWIDTH 360 0
DWIDTH 7 0
BBX 5 13 2 -1
BITMAP
18
18
18
30
30
30
60
60
60
60
C0
C0
C0
ENDCHAR

STARTCHAR zero
ENCODING 48
SWIDTH 360 0
DWIDTH 7 0
BBX 6 11 1 0
BITMAP
30
78
78
CC
CC
CC
CC
CC
78
78
30
ENDCHAR

STARTCHAR one
ENCODING 49
SWIDTH 360 0
DWIDTH 7 0
BBX 6 11 1 0
BITMAP
30
F0
F0
30
30
30
30
30
30
FC
FC
ENDCHAR

STARTCHAR two
ENCODING 50
SWIDTH 360 0
DWIDTH 7 0
BBX 6 11 1 0
BITMAP
78
FC
CC
0C
0C
18
18
30
60
FC
FC
ENDCHAR

STARTCHAR three
ENCODING 51
SWIDTH 360 0
DWIDTH 7 0
BBX 6 11 1 0
BITMAP
78
FC
CC
0C
38
3C
0C
0C
CC
FC
78
ENDCHAR

STARTCHAR four
ENCODING 52
SWIDTH 360 0
DWIDTH 7 0
BBX 6 11 1 0
BITMAP
18
38
38
78
58
D8
FC
FC
18
7C
7C
ENDCHAR

STARTCHAR five
ENCODING 53
SWIDTH 360 0
DWIDTH 7 0
BBX 6 11 1 0
BITMAP
FC
FC
C0
C0
F8
FC
0C
0C
CC
FC
78
ENDCHAR

STARTCHAR six
ENCODING 54
SWIDTH 360 0
DWIDTH 7 0
BBX 6 11 1 0
BITMAP
1C
3C
70
60
F8
FC
CC
CC
CC
FC
78
ENDCHAR

STARTCHAR seven
ENCODING 55
SWIDTH 360 0
DWIDTH 7 0
BBX 6 11 1 0
BITMAP
FC
FC
8C
0C
18
18
18
30
30
30
70
ENDCHAR

STARTCHAR eight
ENCODING 56
SWIDTH 360 0
DWIDTH 7 0
BBX 6 11 1 0
BITMAP
78
FC
CC
CC
78
FC
CC
CC
CC
FC
78
ENDCHAR

STARTCHAR nine
ENCODING 57
SWIDTH 360 0
DWIDTH 7 0
BBX 6 11 1 0
BITMAP
78
FC
CC
CC
CC
FC
7C
18
38
F0
E0
ENDCHAR

STARTCHAR colon
ENCODING 58
SWIDTH 360 0
DWIDTH 7 0
BBX 4 8 2 0
BITMAP
60
F0
60
00
00
60
F0
60
ENDCHAR

STARTCHAR semicolon
ENCODING 59
SWIDTH 360 0
DWIDTH 7 0
BBX 4 10 2 -2
BITMAP
60
F0
60
00
00
60
60
C0
C0
80
ENDCHAR

STARTCHAR less
ENCODING 60
SWIDTH 360 0
DWIDTH 7 0
BBX 6 9 1 1
BITMAP
0C
1C
38
70
E0
70
38
1C
0C
ENDCHAR

STARTCHAR equal
ENCODING 61
SWIDTH 360 0
DWIDTH 7 0
BBX 6 6 1 2
BITMAP
FC
FC
00
00
FC
FC
ENDCHAR

STARTCHAR greater
ENCODING 62
SWIDTH 360 0
DWIDTH 7 0
BBX 6 9 1 1
BITMAP
C0
E0
70
38
1C
38
70
E0
C0
ENDCHAR

STARTCHAR question
ENCODING 63
SWIDTH 360 0
DWIDTH 7 0
BBX 6 11 1 0
BITMAP
78
FC
8C
1C
38
30
30
00
30
78
30
ENDCHAR

STARTCHAR at
ENCODING 64
SWIDTH 360 0
DWIDTH 7 0
BBX 6 14 1 -2
BITMAP
78
FC
C4
C4
DC
DC
D4
D4
DC
DC
C0
C0
FC
78
ENDCHAR

STARTCHAR A
ENCODING 65
SWIDTH 360 0
DWIDTH 7 0
BBX 6 11 1 0
BITMAP
30
78
78
CC
CC
CC
FC
FC
CC
CC
CC
ENDCHAR

STARTCHAR B
ENCODING 66
SWIDTH 360 0
DWIDTH 7 0
BBX 6 11 1 0
BITMAP
F8
FC
CC
CC
FC
F8
CC
CC
CC
FC
F8
ENDCHAR

STARTCHAR C
ENCODING 67
SWIDTH 360 0
DWIDTH 7 0
BBX 6 11 1 0
BITMAP
74
FC
CC
CC
C0
C0
C0
C0
CC
FC
78
ENDCHAR

STARTCHAR D
ENCODING 68
SWIDTH 360 0
DWIDTH 7 0
BBX 6 11 1 0
BITMAP
F8
FC
CC
CC
CC
CC
CC
CC
CC
FC
F8
ENDCHAR

STARTCHAR E
ENCODING 69
SWIDTH 360 0
DWIDTH 7 0
BBX 6 11 1 0
BITMAP
FC
FC
C0
C0
F8
F8
C0
C0
C0
FC
FC
ENDCHAR

STARTCHAR F
ENCODING 70
SWIDTH 360 0
DWIDTH 7 0
BBX 6 11 1 0
BITMAP
FC
FC
C0
C0
F8
F8
C0
C0
C0
C0
C0
ENDCHAR

STARTCHAR G
ENCODING 71
SWIDTH 360 0
DWIDTH 7 0
BBX 6 11 1 0
BITMAP
74
FC
CC
CC
C0
DC
DC
CC
CC
FC
78
ENDCHAR

STARTCHAR H
ENCODING 72
SWIDTH 360 0
DWIDTH 7 0
BBX 6 11 1 0
BITMAP
CC
CC
CC
CC
FC
FC
CC
CC
CC
CC
CC
ENDCHAR

STARTCHAR I
ENCODING 73
SWIDTH 360 0
DWIDTH 7 0
BBX 6 11 1 0
BITMAP
FC
FC
30
30
30
30
30
30
30
FC
FC
ENDCHAR

STARTCHAR J
ENCODING 74
SWIDTH 360 0
DWIDTH 7 0
BBX 6 11 1 0
BITMAP
7C
7C
18
18
18
18
18
D8
D8
F8
70
ENDCHAR

STARTCHAR K
ENCODING 75
SWIDTH 360 0
DWIDTH 7 0
BBX 6 11 1 0
BITMAP
CC
CC
D8
D8
F0
F0
D8
D8
D8
CC
CC
ENDCHAR

STARTCHAR L
ENCODING 76
SWIDTH 360 0
DWIDTH 7 0
BBX 6 11 1 0
BITMAP
F0
F0
60
60
60
60
60
60
64
FC
FC
ENDCHAR

STARTCHAR M
ENCODING 77
SWIDTH 360 0
DWIDTH 7 0
BBX 6 11 1 0
BITMAP
84
CC
CC
FC
FC
FC
CC
CC
CC
CC
CC
ENDCHAR

STARTCHAR N
ENCODING 78
SWIDTH 360 0
DWIDTH 7 0
BBX 6 11 1 0
BITMAP
CC
CC
CC
EC
EC
FC
DC
DC
CC
CC
CC
ENDCHAR

STARTCHAR O
ENCODING 79
SWIDTH 360 0
DWIDTH 7 0
BBX 6 11 1 0
BITMAP
78
FC
CC
CC
CC
CC
CC
CC
CC
FC
78
ENDCHAR

STARTCHAR P
ENCODING 80
SWIDTH 360 0
DWIDTH 7 0
BBX 6 11 1 0
BITMAP
F8
FC
CC
CC
CC
FC
F8
C0
C0
E0
E0
ENDCHAR

STARTCHAR Q
ENCODING 81
SWIDTH 360 0
DWIDTH 7 0
BBX 6 14 1 -3
BITMAP
78
FC
CC
CC
CC
CC
CC
CC
CC
FC
78
40
FC
DC
ENDCHAR

STARTCHAR R
ENCODING 82
SWIDTH 360 0
DWIDTH 7 0
BBX 6 11 1 0
BITMAP
F8
FC
CC
CC
CC
F8
F8
D8
DC
CC
CC
ENDCHAR

STARTCHAR S
ENCODING 83
SWIDTH 360 0
DWIDTH 7 0
BBX 6 11 1 0
BITMAP
7C
FC
CC
C0
E0
78
1C
0C
CC
FC
F8
ENDCHAR

STARTCHAR T
ENCODING 84
SWIDTH 360 0
DWIDTH 7 0
BBX 6 11 1 0
BITMAP
FC
FC
B4
30
30
30
30
30
30
78
78
ENDCHAR

STARTCHAR U
ENCODING 85
SWIDTH 360 0
DWIDTH 7 0
BBX 6 11 1 0
BITMAP
CC
CC
CC
CC
CC
CC
CC
CC
CC
FC
78
ENDCHAR

STARTCHAR V
ENCODING 86
SWIDTH 360 0
DWIDTH 7 0
BBX 6 11 1 0
BITMAP
CC
CC
CC
CC
CC
CC
CC
78
78
30
30
ENDCHAR

STARTCHAR W
ENCODING 87
SWIDTH 360 0
DWIDTH 7 0
BBX 6 11 1 0
BITMAP
CC
CC
CC
CC
CC
CC
FC
FC
FC
CC
84
ENDCHAR

STARTCHAR X
ENCODING 88
SWIDTH 360 0
DWIDTH 7 0
BBX 6 11 1 0
BITMAP
CC
CC
CC
CC
78
30
78
78
CC
CC
CC
ENDCHAR

STARTCHAR Y
ENCODING 89
SWIDTH 360 0
DWIDTH 7 0
BBX 6 11 1 0
BITMAP
CC
CC
CC
CC
78
78
30
30
30
78
78
ENDCHAR

STARTCHAR Z
ENCODING 90
SWIDTH 360 0
DWIDTH 7 0
BBX 6 11 1 0
BITMAP
FC
FC
8C
1C
18
38
30
70
64
FC
FC
ENDCHAR

STARTCHAR bracketleft
ENCODING 91
SWIDTH 360 0
DWIDTH 7 0
BBX 3 14 2 -2
BITMAP
E0
E0
C0
C0
C0
C0
C0
C0
C0
C0
C0
C0
E0
E0
ENDCHAR

STARTCHAR backslash
ENCODING 92
SWIDTH 360 0
DWIDTH 7 0
BBX 5 13 1 -1
BITMAP
C0
C0
C0
60
60
60
30
30
30
30
18
18
18
ENDCHAR

STARTCHAR bracketright
ENCODING 93
SWIDTH 360 0
DWIDTH 7 0
BBX 3 14 2 -2
BITMAP
E0
E0
60
60
60
60
60
60
60
60
60
60
E0
E0
ENDCHAR

STARTCHAR asciicircum
ENCODING 94
SWIDTH 360 0
DWIDTH 7 0
BBX 6 4 1 9
BITMAP
30
78
CC
84
ENDCHAR

STARTCHAR underscore
ENCODING 95
SWIDTH 360 0
DWIDTH 7 0
BBX 6 2 1 0
BITMAP
FC
FC
ENDCHAR

STARTCHAR quoteleft
ENCODING 96
SWIDTH 360 0
DWIDTH 7 0
BBX 4 4 2 9
BITMAP
C0
60
60
30
ENDCHAR

STARTCHAR a
ENCODING 97
SWIDTH 360 0
DWIDTH 7 0
BBX 6 9 1 0
BITMAP
78
FC
0C
7C
FC
CC
CC
FC
6C
ENDCHAR

STARTCHAR b
ENCODING 98
SWIDTH 360 0
DWIDTH 7 0
BBX 6 12 1 0
BITMAP
C0
C0
C0
D8
FC
CC
CC
CC
CC
CC
FC
F8
ENDCHAR

STARTCHAR c
ENCODING 99
SWIDTH 360 0
DWIDTH 7 0
BBX 6 9 1 0
BITMAP
74
FC
CC
CC
C0
C0
CC
FC
78
ENDCHAR

STARTCHAR d
ENCODING 100
SWIDTH 360 0
DWIDTH 7 0
BBX 6 12 1 0
BITMAP
1C
1C
0C
6C
FC
CC
CC
CC
CC
CC
FC
7C
ENDCHAR

STARTCHAR e
ENCODING 101
SWIDTH 360 0
DWIDTH 7 0
BBX 6 9 1 0
BITMAP
78
FC
CC
FC
FC
C0
CC
FC
78
ENDCHAR

STARTCHAR f
ENCODING 102
SWIDTH 360 0
DWIDTH 7 0
BBX 6 12 1 0
BITMAP
18
3C
30
FC
FC
30
30
30
30
30
FC
FC
ENDCHAR

STARTCHAR g
ENCODING 103
SWIDTH 360 0
DWIDTH 7 0
BBX 6 13 1 -4
BITMAP
6C
FC
CC
CC
CC
CC
CC
FC
7C
0C
0C
7C
78
ENDCHAR

STARTCHAR h
ENCODING 104
SWIDTH 360 0
DWIDTH 7 0
BBX 6 12 1 0
BITMAP
C0
C0
C0
D8
FC
EC
CC
CC
CC
CC
CC
CC
ENDCHAR

STARTCHAR i
ENCODING 105
SWIDTH 360 0
DWIDTH 7 0
BBX 6 13 1 0
BITMAP
30
30
30
00
70
70
30
30
30
30
30
FC
FC
ENDCHAR

STARTCHAR j
ENCODING 106
SWIDTH 360 0
DWIDTH 7 0
BBX 4 17 2 -4
BITMAP
30
30
30
00
F0
F0
30
30
30
30
30
30
30
30
30
F0
E0
ENDCHAR

STARTCHAR k
ENCODING 107
SWIDTH 360 0
DWIDTH 7 0
BBX 6 12 1 0
BITMAP
C0
C0
C0
CC
DC
D8
F0
F0
D8
D8
DC
CC
ENDCHAR

STARTCHAR l
ENCODING 108
SWIDTH 360 0
DWIDTH 7 0
BBX 6 12 1 0
BITMAP
70
70
30
30
30
30
30
30
30
30
FC
FC
ENDCHAR

STARTCHAR m
ENCODING 109
SWIDTH 360 0
DWIDTH 7 0
BBX 7 9 0 0
BITMAP
AC
FE
D6
D6
D6
D6
D6
D6
D6
ENDCHAR

STARTCHAR n
ENCODING 110
SWIDTH 360 0
DWIDTH 7 0
BBX 6 9 1 0
BITMAP
D8
FC
EC
CC
CC
CC
CC
CC
CC
ENDCHAR

STARTCHAR o
ENCODING 111
SWIDTH 360 0
DWIDTH 7 0
BBX 6 9 1 0
BITMAP
78
FC
CC
CC
CC
CC
CC
FC
78
ENDCHAR

STARTCHAR p
ENCODING 112
SWIDTH 360 0
DWIDTH 7 0
BBX 6 13 1 -4
BITMAP
D8
FC
CC
CC
CC
CC
CC
FC
F8
C0
C0
F0
F0
ENDCHAR

STARTCHAR q
ENCODING 113
SWIDTH 360 0
DWIDTH 7 0
BBX 6 13 1 -4
BITMAP
6C
FC
CC
CC
CC
CC
CC
FC
7C
0C
0C
3C
3C
ENDCHAR

STARTCHAR r
ENCODING 114
SWIDTH 360 0
DWIDTH 7 0
BBX 6 9 1 0
BITMAP
DC
FC
60
60
60
60
60
F8
F8
ENDCHAR

STARTCHAR s
ENCODING 115
SWIDTH 360 0
DWIDTH 7 0
BBX 6 9 1 0
BITMAP
7C
FC
C4
E0
78
1C
8C
FC
F8
ENDCHAR

STARTCHAR t
ENCODING 116
SWIDTH 360 0
DWIDTH 7 0
BBX 6 12 1 0
BITMAP
60
60
60
FC
FC
60
60
60
60
6C
7C
38
ENDCHAR

STARTCHAR u
ENCODING 117
SWIDTH 360 0
DWIDTH 7 0
BBX 6 9 1 0
BITMAP
CC
CC
CC
CC
CC
CC
DC
FC
6C
ENDCHAR

STARTCHAR v
ENCODING 118
SWIDTH 360 0
DWIDTH 7 0
BBX 6 9 1 0
BITMAP
CC
CC
CC
CC
CC
CC
78
78
30
ENDCHAR

STARTCHAR w
ENCODING 119
SWIDTH 360 0
DWIDTH 7 0
BBX 7 9 0 0
BITMAP
C6
C6
D6
D6
D6
D6
7C
6C
6C
ENDCHAR

STARTCHAR x
ENCODING 120
SWIDTH 360 0
DWIDTH 7 0
BBX 6 9 1 0
BITMAP
CC
CC
CC
78
30
78
CC
CC
CC
ENDCHAR

STARTCHAR y
ENCODING 121
SWIDTH 360 0
DWIDTH 7 0
BBX 6 13 1 -4
BITMAP
CC
CC
CC
CC
CC
CC
78
78
30
30
30
F8
F8
ENDCHAR

STARTCHAR z
ENCODING 122
SWIDTH 360 0
DWIDTH 7 0
BBX 6 9 1 0
BITMAP
FC
FC
18
18
30
30
60
FC
FC
ENDCHAR

STARTCHAR braceleft
ENCODING 123
SWIDTH 360 0
DWIDTH 7 0
BBX 5 14 1 -2
BITMAP
18
18
30
30
30
30
E0
30
30
30
30
30
18
18
ENDCHAR

STARTCHAR bar
ENCODING 124
SWIDTH 360 0
DWIDTH 7 0
BBX 2 16 3 -3
BITMAP
C0
C0
C0
C0
C0
C0
C0
C0
C0
C0
C0
C0
C0
C0
C0
C0
ENDCHAR

STARTCHAR braceright
ENCODING 125
SWIDTH 360 0
DWIDTH 7 0
BBX 5 14 1 -2
BITMAP
C0
C0
60
60
60
60
38
60
60
60
60
60
C0
C0
ENDCHAR

STARTCHAR asciitilde
ENCODING 126
SWIDTH 360 0
DWIDTH 7 0
BBX 6 3 1 10
BITMAP
64
FC
98
ENDCHAR

STARTCHAR unknown_0x80
ENCODING 128
SWIDTH 360 0
DWIDTH 7 0
BBX 6 11 1 0
BITMAP
7C
FC
D8
D8
DC
DC
D8
D8
D8
FC
7C
ENDCHAR

STARTCHAR unknown_0x81
ENCODING 129
SWIDTH 360 0
DWIDTH 7 0
BBX 7 9 0 0
BITMAP
6C
FE
DA
DE
DE
D8
DA
FE
6C
ENDCHAR

STARTCHAR unknown_0xa1
ENCODING 161
SWIDTH 360 0
DWIDTH 7 0
BBX 4 11 2 0
BITMAP
60
F0
60
00
60
60
60
60
60
60
60
ENDCHAR

STARTCHAR cent
ENCODING 162
SWIDTH 360 0
DWIDTH 7 0
BBX 6 12 1 -1
BITMAP
30
30
78
FC
CC
C0
C0
CC
FC
78
30
30
ENDCHAR

STARTCHAR sterling
ENCODING 163
SWIDTH 360 0
DWIDTH 7 0
BBX 6 11 1 0
BITMAP
38
7C
6C
60
F8
F8
60
60
60
FC
DC
ENDCHAR

STARTCHAR currency
ENCODING 164
SWIDTH 360 0
DWIDTH 7 0
BBX 6 9 1 1
BITMAP
CC
FC
78
CC
CC
CC
78
FC
CC
ENDCHAR

STARTCHAR yen
ENCODING 165
SWIDTH 360 0
DWIDTH 7 0
BBX 6 11 1 0
BITMAP
CC
CC
CC
CC
78
FC
30
FC
30
78
78
ENDCHAR

STARTCHAR brokenbar
ENCODING 166
SWIDTH 360 0
DWIDTH 7 0
BBX 2 17 3 -4
BITMAP
C0
C0
C0
C0
C0
C0
C0
00
00
00
C0
C0
C0
C0
C0
C0
C0
ENDCHAR

STARTCHAR section
ENCODING 167
SWIDTH 360 0
DWIDTH 7 0
BBX 6 13 1 -2
BITMAP
3C
7C
64
60
F0
D8
D8
6C
6C
38
98
F8
F0
ENDCHAR

STARTCHAR dieresis
ENCODING 168
SWIDTH 360 0
DWIDTH 7 0
BBX 6 2 1 11
BITMAP
CC
CC
ENDCHAR

STARTCHAR copyright
ENCODING 169
SWIDTH 360 0
DWIDTH 7 0
BBX 7 11 0 0
BITMAP
38
7C
C6
BA
BA
A2
BA
BA
C6
7C
38
ENDCHAR

STARTCHAR multiply
ENCODING 170
SWIDTH 360 0
DWIDTH 7 0
BBX 6 7 1 2
BITMAP
CC
CC
78
30
78
CC
CC
ENDCHAR

STARTCHAR guillemotleft
ENCODING 171
SWIDTH 360 0
DWIDTH 7 0
BBX 6 7 1 0
BITMAP
6C
6C
D8
D8
D8
6C
6C
ENDCHAR

STARTCHAR logicalnot
ENCODING 172
SWIDTH 360 0
DWIDTH 7 0
BBX 6 5 1 3
BITMAP
FC
FC
0C
0C
0C
ENDCHAR

STARTCHAR hyphen
ENCODING 173
SWIDTH 360 0
DWIDTH 7 0
BBX 4 2 2 3
BITMAP
F0
F0
ENDCHAR

STARTCHAR registered
ENCODING 174
SWIDTH 360 0
DWIDTH 7 0
BBX 7 11 0 0
BITMAP
38
7C
C6
BA
AA
B2
AA
AA
C6
7C
38
ENDCHAR

STARTCHAR macron
ENCODING 175
SWIDTH 360 0
DWIDTH 7 0
BBX 4 2 2 11
BITMAP
F0
F0
ENDCHAR

STARTCHAR degree
ENCODING 176
SWIDTH 360 0
DWIDTH 7 0
BBX 6 6 1 7
BITMAP
78
FC
CC
CC
FC
78
ENDCHAR

STARTCHAR plusminus
ENCODING 177
SWIDTH 360 0
DWIDTH 7 0
BBX 6 11 1 0
BITMAP
30
30
30
FC
FC
30
30
30
00
FC
FC
ENDCHAR

STARTCHAR twosuperior
ENCODING 178
SWIDTH 360 0
DWIDTH 7 0
BBX 4 7 2 6
BITMAP
E0
F0
30
60
C0
F0
F0
ENDCHAR

STARTCHAR threesuperior
ENCODING 179
SWIDTH 360 0
DWIDTH 7 0
BBX 4 7 2 6
BITMAP
E0
F0
30
E0
30
F0
E0
ENDCHAR

STARTCHAR acute
ENCODING 180
SWIDTH 360 0
DWIDTH 7 0
BBX 4 3 2 11
BITMAP
30
60
C0
ENDCHAR

STARTCHAR mu
ENCODING 181
SWIDTH 360 0
DWIDTH 7 0
BBX 6 13 1 -4
BITMAP
6C
6C
6C
6C
CC
D8
D8
FC
FC
C0
C0
C0
C0
ENDCHAR

STARTCHAR paragraph
ENCODING 182
SWIDTH 360 0
DWIDTH 7 0
BBX 7 13 0 -2
BITMAP
3E
76
F6
F6
F6
76
36
36
36
36
36
36
36
ENDCHAR

STARTCHAR periodcentered
ENCODING 183
SWIDTH 360 0
DWIDTH 7 0
BBX 4 3 2 3
BITMAP
60
F0
60
ENDCHAR

STARTCHAR cedilla
ENCODING 184
SWIDTH 360 0
DWIDTH 7 0
BBX 4 4 2 -4
BITMAP
60
30
F0
E0
ENDCHAR

STARTCHAR onesuperior
ENCODING 185
SWIDTH 360 0
DWIDTH 7 0
BBX 4 7 2 6
BITMAP
E0
60
60
60
60
60
F0
ENDCHAR

STARTCHAR divide
ENCODING 186
SWIDTH 360 0
DWIDTH 7 0
BBX 6 10 1 0
BITMAP
30
30
30
00
FC
FC
00
30
30
30
ENDCHAR

STARTCHAR guillemotright
ENCODING 187
SWIDTH 360 0
DWIDTH 7 0
BBX 6 7 1 0
BITMAP
D8
D8
6C
6C
6C
D8
D8
ENDCHAR

STARTCHAR onequarter
ENCODING 188
SWIDTH 360 0
DWIDTH 7 0
BBX 7 16 0 -4
BITMAP
E0
60
60
60
60
60
F2
0E
38
E4
0C
1C
2C
3E
0C
0C
ENDCHAR

STARTCHAR onehalf
ENCODING 189
SWIDTH 360 0
DWIDTH 7 0
BBX 7 16 0 -4
BITMAP
E0
60
60
60
60
60
F2
0E
38
EC
1E
06
06
0C
1E
1E
ENDCHAR

STARTCHAR threequarters
ENCODING 190
SWIDTH 360 0
DWIDTH 7 0
BBX 7 16 0 -4
BITMAP
70
78
18
30
18
78
72
0E
38
E4
0C
1C
2C
3E
0C
0C
ENDCHAR

STARTCHAR unknown_0xbf
ENCODING 191
SWIDTH 360 0
DWIDTH 7 0
BBX 6 11 1 0
BITMAP
30
78
30
00
30
30
70
E0
C4
FC
78
ENDCHAR

STARTCHAR dblunderscore
ENCODING 223
SWIDTH 360 0
DWIDTH 7 0
BBX 6 15 1 -5
BITMAP
00
00
00
00
00
00
00
00
FC
FC
00
00
FC
FC
00
ENDCHAR

STARTCHAR aleph
ENCODING 224
SWIDTH 360 0
DWIDTH 7 0
BBX 7 15 0 0
BITMAP
00
00
00
00
00
66
66
76
36
7E
6C
6C
6E
66
66
ENDCHAR

STARTCHAR beth
ENCODING 225
SWIDTH 360 0
DWIDTH 7 0
BBX 7 15 0 0
BITMAP
00
00
00
00
00
7C
7C
0C
0C
0C
0C
0C
0C
7E
7E
ENDCHAR

STARTCHAR gimmel
ENCODING 226
SWIDTH 360 0
DWIDTH 7 0
BBX 7 15 0 0
BITMAP
00
00
00
00
00
1E
1E
06
06
06
0E
1E
3E
76
66
ENDCHAR

STARTCHAR daleth
ENCODING 227
SWIDTH 360 0
DWIDTH 7 0
BBX 7 15 0 0
BITMAP
00
00
00
00
00
7E
7E
0C
0C
0C
0C
0C
0C
0C
0C
ENDCHAR

STARTCHAR he
ENCODING 228
SWIDTH 360 0
DWIDTH 7 0
BBX 7 15 0 0
BITMAP
00
00
00
00
00
3E
3E
06
06
36
36
36
36
36
36
ENDCHAR

STARTCHAR waw
ENCODING 229
SWIDTH 360 0
DWIDTH 7 0
BBX 7 15 0 0
BITMAP
00
00
00
00
00
3C
3C
0C
0C
0C
0C
0C
0C
0C
0C
ENDCHAR

STARTCHAR zayin
ENCODING 230
SWIDTH 360 0
DWIDTH 7 0
BBX 7 15 0 0
BITMAP
00
00
00
00
00
3E
3E
18
18
0C
0C
0C
0C
0C
0C
ENDCHAR

STARTCHAR het
ENCODING 231
SWIDTH 360 0
DWIDTH 7 0
BBX 7 15 0 0
BITMAP
00
00
00
00
00
7E
7E
66
66
66
66
66
66
66
66
ENDCHAR

STARTCHAR teth
ENCODING 232
SWIDTH 360 0
DWIDTH 7 0
BBX 7 15 0 0
BITMAP
00
00
00
00
00
66
6E
6E
66
66
66
66
66
7E
3C
ENDCHAR

STARTCHAR yod
ENCODING 233
SWIDTH 360 0
DWIDTH 7 0
BBX 7 15 0 0
BITMAP
00
00
00
00
00
3C
3C
0C
0C
0C
0C
00
00
00
00
ENDCHAR

STARTCHAR kaphfinal
ENCODING 234
SWIDTH 360 0
DWIDTH 7 0
BBX 7 19 0 -4
BITMAP
00
00
00
00
00
7E
7E
06
06
06
06
06
06
06
06
06
06
06
06
ENDCHAR

STARTCHAR kaph
ENCODING 235
SWIDTH 360 0
DWIDTH 7 0
BBX 7 16 0 -1
BITMAP
00
00
00
00
00
7C
7E
06
06
06
06
06
06
7E
7C
00
ENDCHAR

STARTCHAR lamed
ENCODING 236
SWIDTH 360 0
DWIDTH 7 0
BBX 7 15 0 0
BITMAP
00
00
60
60
60
7C
7E
06
06
0E
0C
1C
18
38
30
ENDCHAR

STARTCHAR memfinal
ENCODING 237
SWIDTH 360 0
DWIDTH 7 0
BBX 7 15 0 0
BITMAP
00
00
00
00
00
7C
7E
66
66
66
66
66
66
7E
7E
ENDCHAR

STARTCHAR mem
ENCODING 238
SWIDTH 360 0
DWIDTH 7 0
BBX 7 15 0 0
BITMAP
00
00
00
00
00
6C
6C
7E
76
36
36
66
66
6E
6E
ENDCHAR

STARTCHAR nunfinal
ENCODING 239
SWIDTH 360 0
DWIDTH 7 0
BBX 7 18 0 -3
BITMAP
00
00
00
00
00
3C
3C
0C
0C
0C
0C
0C
0C
0C
0C
0C
0C
0C
ENDCHAR

STARTCHAR nun
ENCODING 240
SWIDTH 360 0
DWIDTH 7 0
BBX 7 15 0 0
BITMAP
00
00
00
00
00
38
3C
0C
0C
0C
0C
0C
0C
3C
3C
ENDCHAR

STARTCHAR samekh
ENCODING 241
SWIDTH 360 0
DWIDTH 7 0
BBX 7 19 0 -4
BITMAP
00
00
00
00
00
7C
7E
66
66
66
66
66
66
7E
3C
00
00
00
00
ENDCHAR

STARTCHAR ayin
ENCODING 242
SWIDTH 360 0
DWIDTH 7 0
BBX 7 19 0 -4
BITMAP
00
00
00
00
00
36
36
36
36
36
36
36
36
7E
7C
00
00
00
00
ENDCHAR

STARTCHAR pefinal
ENCODING 243
SWIDTH 360 0
DWIDTH 7 0
BBX 7 19 0 -4
BITMAP
00
00
00
00
00
7E
7E
66
66
66
76
76
06
06
06
06
06
06
06
ENDCHAR

STARTCHAR pe
ENCODING 244
SWIDTH 360 0
DWIDTH 7 0
BBX 7 15 0 0
BITMAP
00
00
00
00
00
7C
7E
66
66
76
76
06
06
7E
7E
ENDCHAR

STARTCHAR zadikfinal
ENCODING 245
SWIDTH 360 0
DWIDTH 7 0
BBX 7 19 0 -4
BITMAP
00
00
00
00
00
66
66
66
6C
7C
78
70
60
60
60
60
60
60
60
ENDCHAR

STARTCHAR zadik
ENCODING 246
SWIDTH 360 0
DWIDTH 7 0
BBX 7 15 0 0
BITMAP
00
00
00
00
00
66
66
76
3C
3C
18
1C
0C
7E
7E
ENDCHAR

STARTCHAR kof
ENCODING 247
SWIDTH 360 0
DWIDTH 7 0
BBX 7 18 0 -3
BITMAP
00
00
00
00
00
7C
7E
06
06
66
6E
6C
7C
78
78
60
60
60
ENDCHAR

STARTCHAR resh
ENCODING 248
SWIDTH 360 0
DWIDTH 7 0
BBX 7 15 0 0
BITMAP
00
00
00
00
00
7E
7E
06
06
06
06
06
06
06
06
ENDCHAR

STARTCHAR shin
ENCODING 249
SWIDTH 360 0
DWIDTH 7 0
BBX 7 15 0 0
BITMAP
00
00
00
00
00
5A
5A
5A
5A
5A
5A
5A
5A
7E
3C
ENDCHAR

STARTCHAR taf
ENCODING 250
SWIDTH 360 0
DWIDTH 7 0
BBX 7 15 0 0
BITMAP
00
00
00
00
00
7E
7E
36
36
36
36
36
36
76
76
ENDCHAR

ENDFONT
