STARTFONT 2.1
FONT -DEC-Terminal-Medium-R-Narrow--28-200-100-100-C-12-ISO8859-8
SIZE 20 100 100
FONTBOUNDINGBOX 13 27 0 -4

STARTPROPERTIES 25
FONTNAME_REGISTRY ""
FAMILY_NAME "Terminal"
FOUNDRY "DEC"
WEIGHT_NAME "Medium"
SETWIDTH_NAME "Narrow"
SLANT "R"
ADD_STYLE_NAME ""
PIXEL_SIZE 28
RESOLUTION_X 100
RESOLUTION_Y 100
SPACING "C"
AVERAGE_WIDTH 120
CHARSET_REGISTRY "ISO8859"
CHARSET_ENCODING "8"
CHARSET_COLLECTIONS "ASCII ISO8859-8 "
FULL_NAME "Terminal Narrow"
COPYRIGHT "Digital Israel"
CAP_HEIGHT 16
X_HEIGHT 12
QUAD_WIDTH 12
POINT_SIZE 200
WEIGHT 10
DEFAULT_CHAR 159
FONT_DESCENT 4
FONT_ASCENT 22
ENDPROPERTIES

CHARS 156

STARTCHAR space
ENCODING 32
SWIDTH 432 0
DWIDTH 12 0
BBX 2 16 5 0
BITMAP
00
00
00
00
00
00
00
00
00
00
00
00
00
00
00
00
ENDCHAR

STARTCHAR exclam
ENCODING 33
SWIDTH 432 0
DWIDTH 12 0
BBX 2 16 5 0
BITMAP
C0
C0
C0
C0
C0
C0
C0
C0
C0
C0
C0
00
00
C0
C0
C0
ENDCHAR

STARTCHAR quotedbl
ENCODING 34
SWIDTH 432 0
DWIDTH 12 0
BBX 6 6 3 12
BITMAP
CC
CC
CC
CC
CC
CC
ENDCHAR

STARTCHAR numbersign
ENCODING 35
SWIDTH 432 0
DWIDTH 12 0
BBX 10 14 1 2
BITMAP
3300
3300
3300
3300
FFC0
FFC0
3300
3300
FFC0
FFC0
3300
3300
3300
3300
ENDCHAR

STARTCHAR dollar
ENCODING 36
SWIDTH 432 0
DWIDTH 12 0
BBX 10 16 1 0
BITMAP
0C00
0C00
3F00
7F80
EDC0
CCC0
EC00
7F00
3F80
0DC0
CCC0
EDC0
7F80
3F00
0C00
0C00
ENDCHAR

STARTCHAR percent
ENCODING 37
SWIDTH 432 0
DWIDTH 12 0
BBX 11 16 1 0
BITMAP
3000
7800
CC60
CCE0
79C0
3380
0700
0E00
1C00
3800
7300
E780
CCC0
0CC0
0780
0300
ENDCHAR

STARTCHAR ampersand
ENCODING 38
SWIDTH 432 0
DWIDTH 12 0
BBX 10 16 1 0
BITMAP
1C00
3E00
7700
6300
6300
7700
3E00
3800
7C00
EEC0
C7C0
C380
C380
E7C0
7EC0
3CC0
ENDCHAR

STARTCHAR quoteright
ENCODING 39
SWIDTH 432 0
DWIDTH 12 0
BBX 3 5 4 13
BITMAP
60
60
60
C0
80
ENDCHAR

STARTCHAR parenleft
ENCODING 40
SWIDTH 432 0
DWIDTH 12 0
BBX 6 20 3 -2
BITMAP
0C
18
30
30
60
60
C0
C0
C0
C0
C0
C0
C0
C0
60
60
30
30
18
0C
ENDCHAR

STARTCHAR parenright
ENCODING 41
SWIDTH 432 0
DWIDTH 12 0
BBX 6 20 3 -2
BITMAP
C0
60
30
30
18
18
0C
0C
0C
0C
0C
0C
0C
0C
18
18
30
30
60
C0
ENDCHAR

STARTCHAR asterisk
ENCODING 42
SWIDTH 432 0
DWIDTH 12 0
BBX 8 10 2 6
BITMAP
18
18
DB
FF
7E
7E
FF
DB
18
18
ENDCHAR

STARTCHAR plus
ENCODING 43
SWIDTH 432 0
DWIDTH 12 0
BBX 10 10 1 3
BITMAP
0C00
0C00
0C00
0C00
FFC0
FFC0
0C00
0C00
0C00
0C00
ENDCHAR

STARTCHAR comma
ENCODING 44
SWIDTH 432 0
DWIDTH 12 0
BBX 3 5 4 -2
BITMAP
60
60
60
C0
80
ENDCHAR

STARTCHAR minus
ENCODING 45
SWIDTH 432 0
DWIDTH 12 0
BBX 10 2 1 7
BITMAP
FFC0
FFC0
ENDCHAR

STARTCHAR period
ENCODING 46
SWIDTH 432 0
DWIDTH 12 0
BBX 2 3 4 0
BITMAP
C0
C0
C0
ENDCHAR

STARTCHAR slash
ENCODING 47
SWIDTH 432 0
DWIDTH 12 0
BBX 9 16 1 0
BITMAP
0180
0180
0300
0300
0600
0600
0C00
0C00
1800
1800
3000
3000
6000
6000
C000
C000
ENDCHAR

STARTCHAR zero
ENCODING 48
SWIDTH 432 0
DWIDTH 12 0
BBX 10 16 1 0
BITMAP
1E00
3F00
6180
6180
C0C0
C0C0
C0C0
C0C0
C0C0
C0C0
C0C0
C0C0
6180
6180
3F00
1E00
ENDCHAR

STARTCHAR one
ENCODING 49
SWIDTH 432 0
DWIDTH 12 0
BBX 10 16 1 0
BITMAP
0C00
1C00
3C00
7C00
EC00
CC00
0C00
0C00
0C00
0C00
0C00
0C00
0C00
0C00
FFC0
FFC0
ENDCHAR

STARTCHAR two
ENCODING 50
SWIDTH 432 0
DWIDTH 12 0
BBX 10 16 1 0
BITMAP
3F00
7F80
E1C0
C0C0
C0C0
01C0
0380
0700
0E00
1C00
3800
7000
E000
C0C0
FFC0
FFC0
ENDCHAR

STARTCHAR three
ENCODING 51
SWIDTH 432 0
DWIDTH 12 0
BBX 10 16 1 0
BITMAP
3F00
7F80
E1C0
C0C0
00C0
01C0
0F80
0F80
01C0
00C0
00C0
00C0
C0C0
E1C0
7F80
3F00
ENDCHAR

STARTCHAR four
ENCODING 52
SWIDTH 432 0
DWIDTH 12 0
BBX 10 16 1 0
BITMAP
0700
0700
0F00
0F00
1B00
1B00
3300
3300
6300
6300
FFC0
FFC0
0300
0300
0300
0300
ENDCHAR

STARTCHAR five
ENCODING 53
SWIDTH 432 0
DWIDTH 12 0
BBX 10 16 1 0
BITMAP
FFC0
FFC0
C000
C000
C000
DF00
FF80
E1C0
C0C0
00C0
00C0
00C0
C0C0
E1C0
7F80
3F00
ENDCHAR

STARTCHAR six
ENCODING 54
SWIDTH 432 0
DWIDTH 12 0
BBX 10 16 1 0
BITMAP
3F00
7F80
E1C0
C0C0
C000
DF00
FF80
E1C0
C0C0
C0C0
C0C0
C0C0
C0C0
E1C0
7F80
3F00
ENDCHAR

STARTCHAR seven
ENCODING 55
SWIDTH 432 0
DWIDTH 12 0
BBX 10 16 1 0
BITMAP
FFC0
FFC0
00C0
00C0
0180
0180
0300
0300
0600
0600
0C00
0C00
1800
1800
3000
3000
ENDCHAR

STARTCHAR eight
ENCODING 56
SWIDTH 432 0
DWIDTH 12 0
BBX 10 16 1 0
BITMAP
3F00
7F80
E1C0
C0C0
C0C0
E1C0
7F80
7F80
E1C0
C0C0
C0C0
C0C0
C0C0
E1C0
7F80
3F00
ENDCHAR

STARTCHAR nine
ENCODING 57
SWIDTH 432 0
DWIDTH 12 0
BBX 10 16 1 0
BITMAP
3F00
7F80
E1C0
C0C0
C0C0
C0C0
C0C0
E1C0
7FC0
3EC0
00C0
00C0
C0C0
E1C0
7F80
3F00
ENDCHAR

STARTCHAR colon
ENCODING 58
SWIDTH 432 0
DWIDTH 12 0
BBX 2 10 5 0
BITMAP
C0
C0
C0
00
00
00
00
C0
C0
C0
ENDCHAR

STARTCHAR semicolon
ENCODING 59
SWIDTH 432 0
DWIDTH 12 0
BBX 4 12 3 -2
BITMAP
30
30
30
00
00
00
00
30
30
30
60
C0
ENDCHAR

STARTCHAR less
ENCODING 60
SWIDTH 432 0
DWIDTH 12 0
BBX 9 14 2 0
BITMAP
0380
0700
0E00
1C00
3800
7000
E000
E000
7000
3800
1C00
0E00
0700
0380
ENDCHAR

STARTCHAR equal
ENCODING 61
SWIDTH 432 0
DWIDTH 12 0
BBX 10 6 1 5
BITMAP
FFC0
FFC0
0000
0000
FFC0
FFC0
ENDCHAR

STARTCHAR greater
ENCODING 62
SWIDTH 432 0
DWIDTH 12 0
BBX 9 14 2 0
BITMAP
E000
7000
3800
1C00
0E00
0700
0380
0380
0700
0E00
1C00
3800
7000
E000
ENDCHAR

STARTCHAR question
ENCODING 63
SWIDTH 432 0
DWIDTH 12 0
BBX 10 16 1 0
BITMAP
3F00
7F80
E1C0
C0C0
C0C0
01C0
0380
0700
0E00
0C00
0C00
0C00
0000
0C00
0C00
0C00
ENDCHAR

STARTCHAR at
ENCODING 64
SWIDTH 432 0
DWIDTH 12 0
BBX 10 16 1 0
BITMAP
3F00
7F80
E1C0
C0C0
C6C0
CFC0
CCC0
CCC0
CCC0
CCC0
CFC0
C6C0
C000
E000
7F80
3F00
ENDCHAR

STARTCHAR A
ENCODING 65
SWIDTH 432 0
DWIDTH 12 0
BBX 10 16 1 0
BITMAP
0C00
0C00
1E00
3300
3300
6180
6180
C0C0
C0C0
FFC0
FFC0
C0C0
C0C0
C0C0
C0C0
C0C0
ENDCHAR

STARTCHAR B
ENCODING 66
SWIDTH 432 0
DWIDTH 12 0
BBX 10 16 1 0
BITMAP
FF00
FF80
C1C0
C0C0
C0C0
C1C0
FF80
FF80
C1C0
C0C0
C0C0
C0C0
C0C0
C1C0
FF80
FF00
ENDCHAR

STARTCHAR C
ENCODING 67
SWIDTH 432 0
DWIDTH 12 0
BBX 10 16 1 0
BITMAP
3F00
7F80
E1C0
C0C0
C000
C000
C000
C000
C000
C000
C000
C000
C0C0
E1C0
7F80
3F00
ENDCHAR

STARTCHAR D
ENCODING 68
SWIDTH 432 0
DWIDTH 12 0
BBX 10 16 1 0
BITMAP
FF00
FF80
61C0
60C0
60C0
60C0
60C0
60C0
60C0
60C0
60C0
60C0
60C0
61C0
FF80
FF00
ENDCHAR

STARTCHAR E
ENCODING 69
SWIDTH 432 0
DWIDTH 12 0
BBX 10 16 1 0
BITMAP
FFC0
FFC0
C000
C000
C000
C000
C000
FF00
FF00
C000
C000
C000
C000
C000
FFC0
FFC0
ENDCHAR

STARTCHAR F
ENCODING 70
SWIDTH 432 0
DWIDTH 12 0
BBX 10 16 1 0
BITMAP
FFC0
FFC0
C000
C000
C000
C000
C000
FF00
FF00
C000
C000
C000
C000
C000
C000
C000
ENDCHAR

STARTCHAR G
ENCODING 71
SWIDTH 432 0
DWIDTH 12 0
BBX 10 16 1 0
BITMAP
3F00
7F80
E1C0
C0C0
C000
C000
C000
C3C0
C3C0
C0C0
C0C0
C0C0
C0C0
E0C0
7FC0
3FC0
ENDCHAR

STARTCHAR H
ENCODING 72
SWIDTH 432 0
DWIDTH 12 0
BBX 10 16 1 0
BITMAP
C0C0
C0C0
C0C0
C0C0
C0C0
C0C0
C0C0
FFC0
FFC0
C0C0
C0C0
C0C0
C0C0
C0C0
C0C0
C0C0
ENDCHAR

STARTCHAR I
ENCODING 73
SWIDTH 432 0
DWIDTH 12 0
BBX 10 16 1 0
BITMAP
FFC0
FFC0
0C00
0C00
0C00
0C00
0C00
0C00
0C00
0C00
0C00
0C00
0C00
0C00
FFC0
FFC0
ENDCHAR

STARTCHAR J
ENCODING 74
SWIDTH 432 0
DWIDTH 12 0
BBX 10 16 1 0
BITMAP
0FC0
0FC0
0180
0180
0180
0180
0180
0180
0180
0180
C180
C180
C180
E380
7F00
3E00
ENDCHAR

STARTCHAR K
ENCODING 75
SWIDTH 432 0
DWIDTH 12 0
BBX 10 16 1 0
BITMAP
C0C0
C1C0
C380
C700
CE00
DC00
F800
F000
F000
F800
DC00
CE00
C700
C380
C1C0
C0C0
ENDCHAR

STARTCHAR L
ENCODING 76
SWIDTH 432 0
DWIDTH 12 0
BBX 10 16 1 0
BITMAP
C000
C000
C000
C000
C000
C000
C000
C000
C000
C000
C000
C000
C000
C000
FFC0
FFC0
ENDCHAR

STARTCHAR M
ENCODING 77
SWIDTH 432 0
DWIDTH 12 0
BBX 10 16 1 0
BITMAP
C0C0
E1C0
E1C0
F3C0
F3C0
DEC0
DEC0
CCC0
CCC0
C0C0
C0C0
C0C0
C0C0
C0C0
C0C0
C0C0
ENDCHAR

STARTCHAR N
ENCODING 78
SWIDTH 432 0
DWIDTH 12 0
BBX 10 16 1 0
BITMAP
C0C0
E0C0
E0C0
F0C0
F0C0
D8C0
D8C0
CCC0
CCC0
C6C0
C6C0
C3C0
C3C0
C1C0
C1C0
C0C0
ENDCHAR

STARTCHAR O
ENCODING 79
SWIDTH 432 0
DWIDTH 12 0
BBX 10 16 1 0
BITMAP
3F00
7F80
E1C0
C0C0
C0C0
C0C0
C0C0
C0C0
C0C0
C0C0
C0C0
C0C0
C0C0
E1C0
7F80
3F00
ENDCHAR

STARTCHAR P
ENCODING 80
SWIDTH 432 0
DWIDTH 12 0
BBX 10 16 1 0
BITMAP
FF00
FF80
C1C0
C0C0
C0C0
C0C0
C0C0
C1C0
FF80
FF00
C000
C000
C000
C000
C000
C000
ENDCHAR

STARTCHAR Q
ENCODING 81
SWIDTH 432 0
DWIDTH 12 0
BBX 10 18 1 -2
BITMAP
3F00
7F80
E1C0
C0C0
C0C0
C0C0
C0C0
C0C0
C0C0
C0C0
C0C0
C0C0
CCC0
E7C0
7F80
3F00
0180
00C0
ENDCHAR

STARTCHAR R
ENCODING 82
SWIDTH 432 0
DWIDTH 12 0
BBX 10 16 1 0
BITMAP
FF00
FF80
C1C0
C0C0
C0C0
C0C0
C0C0
C1C0
FF80
FF00
C600
C300
C380
C180
C1C0
C0C0
ENDCHAR

STARTCHAR S
ENCODING 83
SWIDTH 432 0
DWIDTH 12 0
BBX 10 16 1 0
BITMAP
3F00
7F80
E1C0
C0C0
C000
E000
7F00
3F80
01C0
00C0
00C0
00C0
C0C0
E1C0
7F80
3F00
ENDCHAR

STARTCHAR T
ENCODING 84
SWIDTH 432 0
DWIDTH 12 0
BBX 10 16 1 0
BITMAP
FFC0
FFC0
0C00
0C00
0C00
0C00
0C00
0C00
0C00
0C00
0C00
0C00
0C00
0C00
0C00
0C00
ENDCHAR

STARTCHAR U
ENCODING 85
SWIDTH 432 0
DWIDTH 12 0
BBX 10 16 1 0
BITMAP
C0C0
C0C0
C0C0
C0C0
C0C0
C0C0
C0C0
C0C0
C0C0
C0C0
C0C0
C0C0
C0C0
E1C0
7F80
3F00
ENDCHAR

STARTCHAR V
ENCODING 86
SWIDTH 432 0
DWIDTH 12 0
BBX 10 16 1 0
BITMAP
C0C0
C0C0
C0C0
C0C0
C0C0
C0C0
C0C0
C0C0
E1C0
6180
6180
3300
3300
1E00
1E00
0C00
ENDCHAR

STARTCHAR W
ENCODING 87
SWIDTH 432 0
DWIDTH 12 0
BBX 10 16 1 0
BITMAP
C0C0
C0C0
C0C0
C0C0
C0C0
C0C0
CCC0
CCC0
CCC0
CCC0
CCC0
CCC0
CCC0
CCC0
FFC0
7380
ENDCHAR

STARTCHAR X
ENCODING 88
SWIDTH 432 0
DWIDTH 12 0
BBX 10 16 1 0
BITMAP
C0C0
C0C0
C0C0
6180
6180
3300
3F00
1E00
1E00
3F00
3300
6180
6180
C0C0
C0C0
C0C0
ENDCHAR

STARTCHAR Y
ENCODING 89
SWIDTH 432 0
DWIDTH 12 0
BBX 10 16 1 0
BITMAP
C0C0
C0C0
C0C0
C0C0
C0C0
E1C0
6180
7380
3F00
1E00
0C00
0C00
0C00
0C00
0C00
0C00
ENDCHAR

STARTCHAR Z
ENCODING 90
SWIDTH 432 0
DWIDTH 12 0
BBX 10 16 1 0
BITMAP
FFC0
FFC0
00C0
00C0
01C0
0380
0700
0E00
1C00
3800
7000
E000
C000
C000
FFC0
FFC0
ENDCHAR

STARTCHAR bracketleft
ENCODING 91
SWIDTH 432 0
DWIDTH 12 0
BBX 6 20 3 -2
BITMAP
FC
FC
C0
C0
C0
C0
C0
C0
C0
C0
C0
C0
C0
C0
C0
C0
C0
C0
FC
FC
ENDCHAR

STARTCHAR backslash
ENCODING 92
SWIDTH 432 0
DWIDTH 12 0
BBX 9 16 2 0
BITMAP
C000
C000
6000
6000
3000
3000
1800
1800
0C00
0C00
0600
0600
0300
0300
0180
0180
ENDCHAR

STARTCHAR bracketright
ENCODING 93
SWIDTH 432 0
DWIDTH 12 0
BBX 6 20 3 -2
BITMAP
FC
FC
0C
0C
0C
0C
0C
0C
0C
0C
0C
0C
0C
0C
0C
0C
0C
0C
FC
FC
ENDCHAR

STARTCHAR asciicircum
ENCODING 94
SWIDTH 432 0
DWIDTH 12 0
BBX 10 6 1 12
BITMAP
0C00
1E00
3F00
7380
E1C0
C0C0
ENDCHAR

STARTCHAR underscore
ENCODING 95
SWIDTH 432 0
DWIDTH 12 0
BBX 10 2 1 -2
BITMAP
FFC0
FFC0
ENDCHAR

STARTCHAR quoteleft
ENCODING 96
SWIDTH 432 0
DWIDTH 12 0
BBX 3 5 5 13
BITMAP
C0
C0
C0
60
20
ENDCHAR

STARTCHAR a
ENCODING 97
SWIDTH 432 0
DWIDTH 12 0
BBX 10 12 1 0
BITMAP
7F00
7F80
01C0
00C0
3EC0
7FC0
E1C0
C0C0
C0C0
E1C0
7FC0
3EC0
ENDCHAR

STARTCHAR b
ENCODING 98
SWIDTH 432 0
DWIDTH 12 0
BBX 10 16 1 0
BITMAP
C000
C000
C000
C000
CF00
DF80
F1C0
E0C0
C0C0
C0C0
C0C0
C0C0
C0C0
E1C0
FF80
DF00
ENDCHAR

STARTCHAR c
ENCODING 99
SWIDTH 432 0
DWIDTH 12 0
BBX 10 12 1 0
BITMAP
3F00
7F80
E1C0
C0C0
C000
C000
C000
C000
C0C0
E1C0
7F80
3F00
ENDCHAR

STARTCHAR d
ENCODING 100
SWIDTH 432 0
DWIDTH 12 0
BBX 10 16 1 0
BITMAP
00C0
00C0
00C0
00C0
3EC0
7FC0
E1C0
C0C0
C0C0
C0C0
C0C0
C0C0
C0C0
E1C0
7FC0
3EC0
ENDCHAR

STARTCHAR e
ENCODING 101
SWIDTH 432 0
DWIDTH 12 0
BBX 10 12 1 0
BITMAP
3F00
7F80
E1C0
C0C0
FFC0
FFC0
C000
C000
C0C0
E1C0
7F80
3F00
ENDCHAR

STARTCHAR f
ENCODING 102
SWIDTH 432 0
DWIDTH 12 0
BBX 10 16 2 0
BITMAP
0F00
1F80
39C0
30C0
3000
3000
FF00
FF00
3000
3000
3000
3000
3000
3000
3000
3000
ENDCHAR

STARTCHAR g
ENCODING 103
SWIDTH 432 0
DWIDTH 12 0
BBX 10 16 1 -4
BITMAP
3FC0
7FC0
E1C0
C0C0
C0C0
C0C0
C0C0
C0C0
61C0
7FC0
3FC0
00C0
00C0
C180
FF80
7F00
ENDCHAR

STARTCHAR h
ENCODING 104
SWIDTH 432 0
DWIDTH 12 0
BBX 10 16 1 0
BITMAP
C000
C000
C000
C000
CF00
DF80
F1C0
E0C0
C0C0
C0C0
C0C0
C0C0
C0C0
C0C0
C0C0
C0C0
ENDCHAR

STARTCHAR i
ENCODING 105
SWIDTH 432 0
DWIDTH 12 0
BBX 10 16 1 0
BITMAP
0C00
0C00
0C00
0000
7C00
7C00
0C00
0C00
0C00
0C00
0C00
0C00
0C00
0C00
FFC0
FFC0
ENDCHAR

STARTCHAR j
ENCODING 106
SWIDTH 432 0
DWIDTH 12 0
BBX 7 19 3 -3
BITMAP
06
06
06
00
3E
3E
06
06
06
06
06
06
06
06
06
06
0E
FC
F8
ENDCHAR

STARTCHAR k
ENCODING 107
SWIDTH 432 0
DWIDTH 12 0
BBX 10 16 1 0
BITMAP
C000
C000
C000
C000
C380
C700
CE00
DC00
F800
F800
FC00
CE00
C700
C380
C1C0
C0C0
ENDCHAR

STARTCHAR l
ENCODING 108
SWIDTH 432 0
DWIDTH 12 0
BBX 10 16 1 0
BITMAP
3C00
3C00
0C00
0C00
0C00
0C00
0C00
0C00
0C00
0C00
0C00
0C00
0C00
0C00
FFC0
FFC0
ENDCHAR

STARTCHAR m
ENCODING 109
SWIDTH 432 0
DWIDTH 12 0
BBX 10 12 1 0
BITMAP
F380
FFC0
DEC0
CCC0
CCC0
CCC0
CCC0
CCC0
CCC0
CCC0
CCC0
CCC0
ENDCHAR

STARTCHAR n
ENCODING 110
SWIDTH 432 0
DWIDTH 12 0
BBX 10 12 1 0
BITMAP
CF00
DF80
F1C0
E0C0
C0C0
C0C0
C0C0
C0C0
C0C0
C0C0
C0C0
C0C0
ENDCHAR

STARTCHAR o
ENCODING 111
SWIDTH 432 0
DWIDTH 12 0
BBX 10 12 1 0
BITMAP
3F00
7F80
E1C0
C0C0
C0C0
C0C0
C0C0
C0C0
C0C0
E1C0
7F80
3F00
ENDCHAR

STARTCHAR p
ENCODING 112
SWIDTH 432 0
DWIDTH 12 0
BBX 10 15 1 -3
BITMAP
DF00
FF80
E1C0
C0C0
C0C0
C0C0
C0C0
C0C0
C0C0
E1C0
FF80
DF00
C000
C000
C000
ENDCHAR

STARTCHAR q
ENCODING 113
SWIDTH 432 0
DWIDTH 12 0
BBX 10 15 1 -3
BITMAP
3EC0
7FC0
E1C0
C0C0
C0C0
C0C0
C0C0
C0C0
C1C0
E3C0
7EC0
3CC0
00C0
00C0
00C0
ENDCHAR

STARTCHAR r
ENCODING 114
SWIDTH 432 0
DWIDTH 12 0
BBX 9 12 2 0
BITMAP
CF00
FF80
7180
6000
6000
6000
6000
6000
6000
6000
6000
6000
ENDCHAR

STARTCHAR s
ENCODING 115
SWIDTH 432 0
DWIDTH 12 0
BBX 10 12 1 0
BITMAP
3F00
7F80
E1C0
C0C0
E000
7F00
3F80
01C0
C0C0
E1C0
7F80
3F00
ENDCHAR

STARTCHAR t
ENCODING 116
SWIDTH 432 0
DWIDTH 12 0
BBX 10 16 1 0
BITMAP
3000
3000
3000
3000
FF80
FF80
3000
3000
3000
3000
3000
3000
30C0
39C0
1F80
0F00
ENDCHAR

STARTCHAR u
ENCODING 117
SWIDTH 432 0
DWIDTH 12 0
BBX 10 12 1 0
BITMAP
C0C0
C0C0
C0C0
C0C0
C0C0
C0C0
C0C0
C0C0
C1C0
E3C0
7EC0
3CC0
ENDCHAR

STARTCHAR v
ENCODING 118
SWIDTH 432 0
DWIDTH 12 0
BBX 10 12 1 0
BITMAP
C0C0
C0C0
C0C0
C0C0
C0C0
C0C0
6180
6180
3300
3300
1E00
0C00
ENDCHAR

STARTCHAR w
ENCODING 119
SWIDTH 432 0
DWIDTH 12 0
BBX 10 12 1 0
BITMAP
C0C0
C0C0
C0C0
C0C0
CCC0
CCC0
CCC0
CCC0
CCC0
CCC0
7F80
3300
ENDCHAR

STARTCHAR x
ENCODING 120
SWIDTH 432 0
DWIDTH 12 0
BBX 10 12 1 0
BITMAP
E1C0
6180
3300
3300
1E00
0C00
0C00
1E00
3300
3300
6180
E1C0
ENDCHAR

STARTCHAR y
ENCODING 121
SWIDTH 432 0
DWIDTH 12 0
BBX 10 15 1 -3
BITMAP
C0C0
C0C0
C0C0
C0C0
E0C0
6180
6180
3180
3F00
1F00
0600
0E00
1C00
7800
7000
ENDCHAR

STARTCHAR z
ENCODING 122
SWIDTH 432 0
DWIDTH 12 0
BBX 10 12 1 0
BITMAP
FFC0
FFC0
01C0
0380
0700
0E00
1C00
3800
7000
E000
FFC0
FFC0
ENDCHAR

STARTCHAR braceleft
ENCODING 123
SWIDTH 432 0
DWIDTH 12 0
BBX 8 20 2 -2
BITMAP
0F
1F
38
30
30
38
1C
0C
F8
F8
0C
1C
38
30
30
30
30
38
1F
0F
ENDCHAR

STARTCHAR bar
ENCODING 124
SWIDTH 432 0
DWIDTH 12 0
BBX 2 16 5 0
BITMAP
C0
C0
C0
C0
C0
C0
C0
C0
C0
C0
C0
C0
C0
C0
C0
C0
ENDCHAR

STARTCHAR braceright
ENCODING 125
SWIDTH 432 0
DWIDTH 12 0
BBX 8 20 2 -2
BITMAP
F0
F8
1C
0C
0C
1C
38
30
1F
1F
30
38
1C
0C
0C
0C
0C
1C
F8
F0
ENDCHAR

STARTCHAR asciitilde
ENCODING 126
SWIDTH 432 0
DWIDTH 12 0
BBX 10 6 1 12
BITMAP
70C0
F8C0
FCC0
CFC0
C7C0
C380
ENDCHAR

STARTCHAR unknown_0x80
ENCODING 128
SWIDTH 432 0
DWIDTH 12 0
BBX 10 16 1 0
BITMAP
7FC0
FFC0
CC00
CC00
CC00
CC00
CC00
CF80
CF80
CC00
CC00
CC00
CC00
CC00
FFC0
7FC0
ENDCHAR

STARTCHAR unknown_0x81
ENCODING 129
SWIDTH 432 0
DWIDTH 12 0
BBX 10 12 1 0
BITMAP
7B80
FFC0
CCC0
CCC0
CCC0
CFC0
CFC0
CC00
CC00
CCC0
FFC0
7780
ENDCHAR

STARTCHAR unknown_0xa1
ENCODING 161
SWIDTH 432 0
DWIDTH 12 0
BBX 2 18 6 -2
BITMAP
C0
C0
C0
00
00
C0
C0
C0
C0
C0
C0
C0
C0
C0
C0
C0
C0
C0
ENDCHAR

STARTCHAR cent
ENCODING 162
SWIDTH 432 0
DWIDTH 12 0
BBX 10 14 2 0
BITMAP
0C00
0C00
3F00
7F80
EDC0
CCC0
CC00
CC00
CCC0
EDC0
7F80
3F00
0C00
0C00
ENDCHAR

STARTCHAR sterling
ENCODING 163
SWIDTH 432 0
DWIDTH 12 0
BBX 10 16 1 0
BITMAP
0F00
1F80
39C0
30C0
3000
3000
FF00
FF00
3000
3000
3000
3000
3000
38C0
7FC0
CF80
ENDCHAR

STARTCHAR currency
ENCODING 164
SWIDTH 432 0
DWIDTH 12 0
BBX 10 11 1 3
BITMAP
C0C0
E1C0
7F80
3F00
3300
3300
3300
3F00
7F80
E1C0
C0C0
ENDCHAR

STARTCHAR yen
ENCODING 165
SWIDTH 432 0
DWIDTH 12 0
BBX 10 16 1 0
BITMAP
C0C0
C0C0
C0C0
E1C0
7380
3F00
1E00
FFC0
FFC0
0C00
FFC0
FFC0
0C00
0C00
0C00
0C00
ENDCHAR

STARTCHAR brokenbar
ENCODING 166
SWIDTH 432 0
DWIDTH 12 0
BBX 2 16 5 0
BITMAP
C0
C0
C0
C0
C0
C0
00
00
00
00
C0
C0
C0
C0
C0
C0
ENDCHAR

STARTCHAR section
ENCODING 167
SWIDTH 432 0
DWIDTH 12 0
BBX 8 18 2 0
BITMAP
3C
7E
E7
E3
70
38
7C
CE
C7
E3
73
3E
1C
0E
C7
E7
7E
3C
ENDCHAR

STARTCHAR dieresis
ENCODING 168
SWIDTH 432 0
DWIDTH 12 0
BBX 6 3 3 14
BITMAP
CC
CC
CC
ENDCHAR

STARTCHAR copyright
ENCODING 169
SWIDTH 432 0
DWIDTH 12 0
BBX 11 14 1 1
BITMAP
3F80
60C0
C060
9F20
BBA0
B1A0
B020
B020
B1A0
BBA0
9F20
C060
60C0
3F80
ENDCHAR

STARTCHAR multiply
ENCODING 170
SWIDTH 432 0
DWIDTH 12 0
BBX 10 10 1 3
BITMAP
4080
E1C0
7380
3F00
1E00
1E00
3F00
7380
E1C0
4080
ENDCHAR

STARTCHAR guillemotleft
ENCODING 171
SWIDTH 432 0
DWIDTH 12 0
BBX 10 10 1 2
BITMAP
0CC0
1980
3300
6600
CC00
CC00
6600
3300
1980
0CC0
ENDCHAR

STARTCHAR logicalnot
ENCODING 172
SWIDTH 432 0
DWIDTH 12 0
BBX 6 3 3 13
BITMAP
FC
FC
0C
ENDCHAR

STARTCHAR hyphen
ENCODING 173
SWIDTH 432 0
DWIDTH 12 0
BBX 6 2 3 7
BITMAP
FC
FC
ENDCHAR

STARTCHAR registered
ENCODING 174
SWIDTH 432 0
DWIDTH 12 0
BBX 11 14 1 1
BITMAP
3F80
60C0
C060
BF20
B3A0
B1A0
B320
BE20
B720
B3A0
B1E0
C060
60C0
3F80
ENDCHAR

STARTCHAR macron
ENCODING 175
SWIDTH 432 0
DWIDTH 12 0
BBX 6 2 3 14
BITMAP
FC
FC
ENDCHAR

STARTCHAR degree
ENCODING 176
SWIDTH 432 0
DWIDTH 12 0
BBX 6 6 2 12
BITMAP
30
78
CC
CC
78
30
ENDCHAR

STARTCHAR plusminus
ENCODING 177
SWIDTH 432 0
DWIDTH 12 0
BBX 10 13 1 0
BITMAP
0C00
0C00
0C00
0C00
FFC0
FFC0
0C00
0C00
0C00
0C00
0000
FFC0
FFC0
ENDCHAR

STARTCHAR twosuperior
ENCODING 178
SWIDTH 432 0
DWIDTH 12 0
BBX 6 10 3 8
BITMAP
78
FC
CC
0C
1C
38
70
E0
FC
FC
ENDCHAR

STARTCHAR threesuperior
ENCODING 179
SWIDTH 432 0
DWIDTH 12 0
BBX 6 10 3 8
BITMAP
78
FC
8C
0C
38
38
0C
8C
FC
78
ENDCHAR

STARTCHAR acute
ENCODING 180
SWIDTH 432 0
DWIDTH 12 0
BBX 4 3 5 14
BITMAP
30
60
C0
ENDCHAR

STARTCHAR mu
ENCODING 181
SWIDTH 432 0
DWIDTH 12 0
BBX 10 14 1 -2
BITMAP
6180
6180
6180
6180
6180
6180
6180
6180
6180
6180
7FC0
7EC0
C000
8000
ENDCHAR

STARTCHAR paragraph
ENCODING 182
SWIDTH 432 0
DWIDTH 12 0
BBX 9 19 1 -1
BITMAP
1F80
3F80
7980
7980
F980
F980
F980
F980
F980
7980
7980
3980
1980
1980
1980
1980
1980
1980
1980
ENDCHAR

STARTCHAR periodcentered
ENCODING 183
SWIDTH 432 0
DWIDTH 12 0
BBX 2 3 5 7
BITMAP
C0
C0
C0
ENDCHAR

STARTCHAR cedilla
ENCODING 184
SWIDTH 432 0
DWIDTH 12 0
BBX 5 3 2 -3
BITMAP
38
70
E0
ENDCHAR

STARTCHAR onesuperior
ENCODING 185
SWIDTH 432 0
DWIDTH 12 0
BBX 6 10 3 8
BITMAP
30
70
F0
F0
30
30
30
30
FC
FC
ENDCHAR

STARTCHAR divide
ENCODING 186
SWIDTH 432 0
DWIDTH 12 0
BBX 10 10 1 3
BITMAP
0C00
0C00
0C00
0000
FFC0
FFC0
0000
0C00
0C00
0C00
ENDCHAR

STARTCHAR guillemotright
ENCODING 187
SWIDTH 432 0
DWIDTH 12 0
BBX 10 10 1 2
BITMAP
CC00
6600
3300
1980
0CC0
0CC0
1980
3300
6600
CC00
ENDCHAR

STARTCHAR onequarter
ENCODING 188
SWIDTH 432 0
DWIDTH 12 0
BBX 10 18 1 0
BITMAP
3000
7000
F000
3000
30C0
31C0
FB80
FF00
0E00
1C00
3980
7380
E780
CF80
1D80
3FC0
3FC0
0180
ENDCHAR

STARTCHAR onehalf
ENCODING 189
SWIDTH 432 0
DWIDTH 12 0
BBX 11 18 0 0
BITMAP
1800
3800
7800
7800
1860
18E0
7FC0
7F80
0700
0E00
1FC0
3FE0
7660
E0E0
C1C0
0380
07E0
07E0
ENDCHAR

STARTCHAR threequarters
ENCODING 190
SWIDTH 432 0
DWIDTH 12 0
BBX 12 17 1 0
BITMAP
F800
FC00
0C00
0C20
7870
0CE0
0DC0
FF80
FF00
0EC0
1DC0
3BC0
76C0
ECC0
5FE0
1FE0
00C0
ENDCHAR

STARTCHAR unknown_0xbf
ENCODING 191
SWIDTH 432 0
DWIDTH 12 0
BBX 10 18 1 -2
BITMAP
0C00
0C00
0C00
0000
0000
0C00
0C00
0C00
0C00
1C00
3800
7000
E000
C0C0
C0C0
E1C0
7F80
3F00
ENDCHAR

STARTCHAR dblunderscore
ENCODING 223
SWIDTH 432 0
DWIDTH 12 0
BBX 12 26 0 -3
BITMAP
0000
0000
0000
0000
0000
0000
0000
0000
0000
0000
0000
0000
0000
0000
0000
0000
0000
0000
7FE0
7FE0
0000
0000
7FE0
7FE0
0000
0000
ENDCHAR

STARTCHAR aleph
ENCODING 224
SWIDTH 432 0
DWIDTH 12 0
BBX 12 20 0 0
BITMAP
0000
0000
0000
0000
0000
0000
7060
3860
1C60
0C60
1E60
36E0
33C0
6380
6180
61C0
60C0
60E0
6060
6060
ENDCHAR

STARTCHAR beth
ENCODING 225
SWIDTH 432 0
DWIDTH 12 0
BBX 12 20 0 0
BITMAP
0000
0000
0000
0000
0000
0000
3F00
3F80
0180
0180
0180
0180
0180
0180
0180
0180
0180
0180
3FE0
3FE0
ENDCHAR

STARTCHAR gimmel
ENCODING 226
SWIDTH 432 0
DWIDTH 12 0
BBX 12 20 0 0
BITMAP
0000
0000
0000
0000
0000
0000
1F00
1F80
0180
0180
0180
0180
0180
0380
0780
0F80
1D80
3980
7180
6180
ENDCHAR

STARTCHAR daleth
ENCODING 227
SWIDTH 432 0
DWIDTH 12 0
BBX 12 20 0 0
BITMAP
0000
0000
0000
0000
0000
0000
3FE0
3FE0
0180
0180
0180
0180
0180
0180
0180
0180
0180
0180
0180
0180
ENDCHAR

STARTCHAR he
ENCODING 228
SWIDTH 432 0
DWIDTH 12 0
BBX 12 20 0 0
BITMAP
0000
0000
0000
0000
0000
0000
3FC0
3FE0
0060
0060
0060
3060
3060
3060
3060
3060
3060
3060
3060
3060
ENDCHAR

STARTCHAR waw
ENCODING 229
SWIDTH 432 0
DWIDTH 12 0
BBX 12 20 0 0
BITMAP
0000
0000
0000
0000
0000
0000
1F00
1F00
0300
0300
0300
0300
0300
0300
0300
0300
0300
0300
0300
0300
ENDCHAR

STARTCHAR zayin
ENCODING 230
SWIDTH 432 0
DWIDTH 12 0
BBX 12 20 0 0
BITMAP
0000
0000
0000
0000
0000
0000
3F80
3F80
0600
0600
0600
0600
0300
0300
0300
0300
0300
0300
0300
0300
ENDCHAR

STARTCHAR het
ENCODING 231
SWIDTH 432 0
DWIDTH 12 0
BBX 10 20 1 0
BITMAP
0000
0000
0000
0000
0000
0000
7F80
7FC0
60C0
60C0
60C0
60C0
60C0
60C0
60C0
60C0
60C0
60C0
60C0
60C0
ENDCHAR

STARTCHAR teth
ENCODING 232
SWIDTH 432 0
DWIDTH 12 0
BBX 10 20 1 0
BITMAP
0000
0000
0000
0000
0000
0000
C780
C7C0
CCC0
CCC0
C0C0
C0C0
C0C0
C0C0
C0C0
C0C0
C0C0
6180
7F80
1E00
ENDCHAR

STARTCHAR yod
ENCODING 233
SWIDTH 432 0
DWIDTH 12 0
BBX 12 20 0 0
BITMAP
0000
0000
0000
0000
0000
0000
1F00
1F00
0300
0300
0300
0300
0300
0000
0000
0000
0000
0000
0000
0000
ENDCHAR

STARTCHAR kaphfinal
ENCODING 234
SWIDTH 432 0
DWIDTH 12 0
BBX 10 24 1 -4
BITMAP
0000
0000
0000
0000
0000
0000
7FC0
7FC0
00C0
00C0
00C0
00C0
00C0
00C0
00C0
00C0
00C0
00C0
00C0
00C0
00C0
00C0
00C0
00C0
ENDCHAR

STARTCHAR kaph
ENCODING 235
SWIDTH 432 0
DWIDTH 12 0
BBX 10 20 1 0
BITMAP
0000
0000
0000
0000
0000
0000
7C00
7F00
0380
0180
00C0
00C0
00C0
00C0
00C0
00C0
0180
0380
7F00
7C00
ENDCHAR

STARTCHAR lamed
ENCODING 236
SWIDTH 432 0
DWIDTH 12 0
BBX 10 20 1 0
BITMAP
0000
0000
6000
6000
6000
6000
7F80
7FC0
00C0
00C0
00C0
00C0
0180
0180
0380
0300
0700
0600
0E00
1C00
ENDCHAR

STARTCHAR memfinal
ENCODING 237
SWIDTH 432 0
DWIDTH 12 0
BBX 11 20 0 0
BITMAP
0000
0000
0000
0000
0000
0000
3FC0
3FE0
3060
3060
3060
3060
3060
3060
3060
3060
3060
3060
3FE0
3FE0
ENDCHAR

STARTCHAR mem
ENCODING 238
SWIDTH 432 0
DWIDTH 12 0
BBX 10 20 1 0
BITMAP
0000
0000
0000
0000
0000
0000
6700
6F80
7980
71C0
30C0
30C0
30C0
60C0
60C0
60C0
60C0
60C0
67C0
67C0
ENDCHAR

STARTCHAR nunfinal
ENCODING 239
SWIDTH 432 0
DWIDTH 12 0
BBX 12 24 0 -4
BITMAP
0000
0000
0000
0000
0000
0000
07C0
07C0
00C0
00C0
00C0
00C0
00C0
00C0
00C0
00C0
00C0
00C0
00C0
00C0
00C0
00C0
00C0
00C0
ENDCHAR

STARTCHAR nun
ENCODING 240
SWIDTH 432 0
DWIDTH 12 0
BBX 12 20 0 0
BITMAP
0000
0000
0000
0000
0000
0000
1F00
1F80
0180
0180
0180
0180
0180
0180
0180
0180
0180
0180
1F80
1F80
ENDCHAR

STARTCHAR samekh
ENCODING 241
SWIDTH 432 0
DWIDTH 12 0
BBX 10 20 1 0
BITMAP
0000
0000
0000
0000
0000
0000
7F80
7FC0
60C0
60C0
60C0
60C0
60C0
60C0
60C0
60C0
60C0
3180
3F80
0E00
ENDCHAR

STARTCHAR ayin
ENCODING 242
SWIDTH 432 0
DWIDTH 12 0
BBX 10 20 1 0
BITMAP
0000
0000
0000
0000
0000
0000
18C0
18C0
18C0
18C0
18C0
18C0
18C0
18C0
18C0
18C0
18C0
1980
7F80
7E00
ENDCHAR

STARTCHAR pefinal
ENCODING 243
SWIDTH 432 0
DWIDTH 12 0
BBX 10 24 1 -4
BITMAP
0000
0000
0000
0000
0000
0000
7F80
7FC0
60C0
60C0
60C0
60C0
60C0
7CC0
7CC0
00C0
00C0
00C0
00C0
00C0
00C0
00C0
00C0
00C0
ENDCHAR

STARTCHAR pe
ENCODING 244
SWIDTH 432 0
DWIDTH 12 0
BBX 10 20 1 0
BITMAP
0000
0000
0000
0000
0000
0000
7E00
7F80
6180
60C0
60C0
60C0
60C0
7CC0
7CC0
00C0
00C0
00C0
7FC0
7FC0
ENDCHAR

STARTCHAR zadikfinal
ENCODING 245
SWIDTH 432 0
DWIDTH 12 0
BBX 11 24 0 -4
BITMAP
0000
0000
0000
0000
0000
0000
3060
3060
3060
3060
30C0
30C0
3180
3380
3F00
3C00
3000
3000
3000
3000
3000
3000
3000
3000
ENDCHAR

STARTCHAR zadik
ENCODING 246
SWIDTH 432 0
DWIDTH 12 0
BBX 10 20 1 0
BITMAP
0000
0000
0000
0000
0000
0000
60C0
60C0
60C0
30C0
31C0
1980
1F00
0E00
0700
0380
0180
00C0
7FC0
7FC0
ENDCHAR

STARTCHAR kof
ENCODING 247
SWIDTH 432 0
DWIDTH 12 0
BBX 10 24 1 -4
BITMAP
0000
0000
0000
0000
0000
0000
FFC0
FFC0
00C0
00C0
00C0
60C0
6180
6180
6180
6300
6300
6300
6600
6600
6000
6000
6000
6000
ENDCHAR

STARTCHAR resh
ENCODING 248
SWIDTH 432 0
DWIDTH 12 0
BBX 10 20 0 0
BITMAP
0000
0000
0000
0000
0000
0000
3F80
3FC0
00C0
00C0
00C0
00C0
00C0
00C0
00C0
00C0
00C0
00C0
00C0
00C0
ENDCHAR

STARTCHAR shin
ENCODING 249
SWIDTH 432 0
DWIDTH 12 0
BBX 10 20 1 0
BITMAP
0000
0000
0000
0000
0000
0000
CCC0
CCC0
CCC0
CCC0
CCC0
CCC0
CCC0
CCC0
CCC0
CCC0
C0C0
6180
7F80
1E00
ENDCHAR

STARTCHAR taf
ENCODING 250
SWIDTH 432 0
DWIDTH 12 0
BBX 10 20 1 0
BITMAP
0000
0000
0000
0000
0000
0000
FF80
FFC0
30C0
30C0
30C0
30C0
30C0
30C0
30C0
30C0
30C0
30C0
F0C0
E0C0
ENDCHAR

ENDFONT
