STARTFONT 2.1
FONT -DEC-Terminal-Medium-R-Wide--25-180-100-100-C-140-ISO8859-8
SIZE 18 100 100
FONTBOUNDINGBOX 16 28 0 -5

STARTPROPERTIES 25
CHARSET_REGISTRY "ISO8859"
CHARSET_ENCODING "8"
CAP_HEIGHT 15
X_HEIGHT 12
AVERAGE_WIDTH 140
FONTNAME_REGISTRY ""
FAMILY_NAME "Terminal"
FOUNDRY "DEC"
WEIGHT_NAME "Medium"
SETWIDTH_NAME "Wide"
SLANT "R"
ADD_STYLE_NAME ""
PIXEL_SIZE 25
RESOLUTION_X 100
RESOLUTION_Y 100
SPACING "C"
CHARSET_COLLECTIONS "ASCII ISO8859-8"
FULL_NAME "Terminal Wide"
COPYRIGHT "Copyright (c) 1988 Bitstream, Inc., Copyright 1991 Digital Equipment Corp."
QUAD_WIDTH 16
POINT_SIZE 180
WEIGHT 10
DEFAULT_CHAR 159
FONT_DESCENT 5
FONT_ASCENT 24
ENDPROPERTIES

CHARS 194

STARTCHAR space
ENCODING 32
SWIDTH 640 0
DWIDTH 16 0
BBX 6 15 5 0
BITMAP
00
00
00
00
00
00
00
00
00
00
00
00
00
00
00
ENDCHAR

STARTCHAR exclam
ENCODING 33
SWIDTH 640 0
DWIDTH 16 0
BBX 6 15 5 0
BITMAP
30
30
30
30
30
30
30
30
30
00
00
00
30
FC
30
ENDCHAR

STARTCHAR quotedbl
ENCODING 34
SWIDTH 640 0
DWIDTH 16 0
BBX 7 6 4 10
BITMAP
C6
C6
C6
C6
C6
C6
ENDCHAR

STARTCHAR numbersign
ENCODING 35
SWIDTH 640 0
DWIDTH 16 0
BBX 11 16 2 -1
BITMAP
3180
3180
3180
3180
3180
FFE0
3180
3180
3180
3180
FFE0
3180
3180
3180
3180
3180
ENDCHAR

STARTCHAR dollar
ENCODING 36
SWIDTH 640 0
DWIDTH 16 0
BBX 12 21 2 -3
BITMAP
0600
0600
0600
0600
3FD0
6070
C030
C030
7800
3F00
07E0
00E0
C030
C030
E030
F860
CFC0
0600
0600
0600
0600
ENDCHAR

STARTCHAR percent
ENCODING 37
SWIDTH 640 0
DWIDTH 16 0
BBX 14 15 1 0
BITMAP
7E00
C300
C300
C300
C318
7E70
01C0
0380
0E00
39F8
630C
030C
030C
030C
01F8
ENDCHAR

STARTCHAR ampersand
ENCODING 38
SWIDTH 640 0
DWIDTH 16 0
BBX 11 15 3 0
BITMAP
3F80
7180
6180
6000
6000
3000
1800
7860
EC60
C640
C6C0
C380
C180
E7E0
7C60
ENDCHAR

STARTCHAR quoteright
ENCODING 39
SWIDTH 640 0
DWIDTH 16 0
BBX 8 6 4 11
BITMAP
0F
1E
3C
78
60
C0
ENDCHAR

STARTCHAR parenleft
ENCODING 40
SWIDTH 640 0
DWIDTH 16 0
BBX 7 22 5 -4
BITMAP
06
0C
18
30
30
60
60
C0
C0
C0
C0
C0
C0
C0
C0
60
60
30
30
18
0C
06
ENDCHAR

STARTCHAR parenright
ENCODING 41
SWIDTH 640 0
DWIDTH 16 0
BBX 7 22 5 -4
BITMAP
C0
60
30
18
18
0C
0C
06
06
06
06
06
06
06
06
0C
0C
18
18
30
60
C0
ENDCHAR

STARTCHAR asterisk
ENCODING 42
SWIDTH 640 0
DWIDTH 16 0
BBX 10 10 3 4
BITMAP
0C00
CCC0
CCC0
3F00
3F00
0C00
3300
3300
C0C0
C0C0
ENDCHAR

STARTCHAR plus
ENCODING 43
SWIDTH 640 0
DWIDTH 16 0
BBX 14 11 1 2
BITMAP
0300
0300
0300
0300
0300
FFFC
0300
0300
0300
0300
0300
ENDCHAR

STARTCHAR comma
ENCODING 44
SWIDTH 640 0
DWIDTH 16 0
BBX 7 6 4 -3
BITMAP
1E
1C
38
30
60
C0
ENDCHAR

STARTCHAR minus
ENCODING 45
SWIDTH 640 0
DWIDTH 16 0
BBX 12 1 2 7
BITMAP
FFF0
ENDCHAR

STARTCHAR period
ENCODING 46
SWIDTH 640 0
DWIDTH 16 0
BBX 6 3 5 0
BITMAP
30
FC
30
ENDCHAR

STARTCHAR slash
ENCODING 47
SWIDTH 640 0
DWIDTH 16 0
BBX 10 19 3 -2
BITMAP
00C0
00C0
0180
0180
0300
0300
0600
0600
0C00
0C00
0C00
1800
1800
3000
3000
6000
6000
C000
C000
ENDCHAR

STARTCHAR zero
ENCODING 48
SWIDTH 640 0
DWIDTH 16 0
BBX 12 15 2 0
BITMAP
1F80
39C0
6060
6060
C030
C030
C030
C030
C030
C030
C030
6060
6060
39C0
1F80
ENDCHAR

STARTCHAR one
ENCODING 49
SWIDTH 640 0
DWIDTH 16 0
BBX 11 15 2 0
BITMAP
0600
0E00
3600
C600
0600
0600
0600
0600
0600
0600
0600
0600
0600
0600
7FE0
ENDCHAR

STARTCHAR two
ENCODING 50
SWIDTH 640 0
DWIDTH 16 0
BBX 11 15 3 0
BITMAP
3F80
60C0
C060
C060
00C0
00C0
0180
0300
0600
0400
0C00
1800
3060
6060
FFE0
ENDCHAR

STARTCHAR three
ENCODING 51
SWIDTH 640 0
DWIDTH 16 0
BBX 11 15 3 0
BITMAP
3F00
E180
C0C0
00C0
00C0
0180
1F00
0380
00C0
0060
0060
0060
C0C0
E1C0
7F00
ENDCHAR

STARTCHAR four
ENCODING 52
SWIDTH 640 0
DWIDTH 16 0
BBX 12 15 2 0
BITMAP
00C0
01C0
03C0
06C0
0CC0
08C0
18C0
30C0
60C0
C0C0
FFF0
00C0
00C0
00C0
03F0
ENDCHAR

STARTCHAR five
ENCODING 53
SWIDTH 640 0
DWIDTH 16 0
BBX 11 15 3 0
BITMAP
FFC0
C000
C000
C000
C000
DF00
E3C0
00C0
0060
0060
0060
0060
C0E0
E1C0
7F00
ENDCHAR

STARTCHAR six
ENCODING 54
SWIDTH 640 0
DWIDTH 16 0
BBX 12 15 2 0
BITMAP
07E0
1C00
3000
6000
4000
C000
DFC0
F060
E030
C030
C030
C030
4030
70E0
1F80
ENDCHAR

STARTCHAR seven
ENCODING 55
SWIDTH 640 0
DWIDTH 16 0
BBX 12 15 2 0
BITMAP
FFF0
C030
C070
C060
00C0
00C0
0180
0380
0300
0600
0600
0C00
0C00
1800
1800
ENDCHAR

STARTCHAR eight
ENCODING 56
SWIDTH 640 0
DWIDTH 16 0
BBX 12 15 2 0
BITMAP
1F80
70E0
6060
C030
C030
6060
3FC0
70E0
E070
C030
C030
C030
E070
70E0
1F80
ENDCHAR

STARTCHAR nine
ENCODING 57
SWIDTH 640 0
DWIDTH 16 0
BBX 12 15 2 0
BITMAP
3F80
60E0
C060
C030
C030
C030
C070
60F0
3FB0
0030
0060
0060
00C0
0380
7E00
ENDCHAR

STARTCHAR colon
ENCODING 58
SWIDTH 640 0
DWIDTH 16 0
BBX 6 10 5 0
BITMAP
30
FC
30
00
00
00
00
30
FC
30
ENDCHAR

STARTCHAR semicolon
ENCODING 59
SWIDTH 640 0
DWIDTH 16 0
BBX 8 13 4 -3
BITMAP
0C
3F
0C
00
00
00
00
1E
1C
38
30
60
C0
ENDCHAR

STARTCHAR less
ENCODING 60
SWIDTH 640 0
DWIDTH 16 0
BBX 11 11 2 1
BITMAP
0060
01C0
0700
1C00
3000
E000
3000
1C00
0700
01C0
0060
ENDCHAR

STARTCHAR equal
ENCODING 61
SWIDTH 640 0
DWIDTH 16 0
BBX 12 5 2 5
BITMAP
FFF0
0000
0000
0000
FFF0
ENDCHAR

STARTCHAR greater
ENCODING 62
SWIDTH 640 0
DWIDTH 16 0
BBX 11 11 2 1
BITMAP
C000
7000
1C00
0700
0180
00E0
0180
0700
1C00
7000
C000
ENDCHAR

STARTCHAR question
ENCODING 63
SWIDTH 640 0
DWIDTH 16 0
BBX 11 15 2 0
BITMAP
1F00
71C0
C060
C060
00C0
0380
0600
0600
0600
0000
0000
0000
0600
1F80
0600
ENDCHAR

STARTCHAR at
ENCODING 64
SWIDTH 640 0
DWIDTH 16 0
BBX 14 20 1 -3
BITMAP
0FC0
3860
6030
6030
C030
C030
C3F0
C630
C630
C630
C630
C630
C630
C3FC
C000
C000
6000
600C
381C
0FF0
ENDCHAR

STARTCHAR A
ENCODING 65
SWIDTH 640 0
DWIDTH 16 0
BBX 16 15 0 0
BITMAP
0180
0180
0180
0660
0660
0660
0C30
0C30
1818
1FF8
1818
300C
300C
300C
FC3F
ENDCHAR

STARTCHAR B
ENCODING 66
SWIDTH 640 0
DWIDTH 16 0
BBX 14 15 1 0
BITMAP
FFE0
3038
300C
300C
300C
3018
3FF0
3018
300C
300C
300C
300C
300C
3038
FFE0
ENDCHAR

STARTCHAR C
ENCODING 67
SWIDTH 640 0
DWIDTH 16 0
BBX 13 15 1 0
BITMAP
1FD8
6078
6018
C018
C000
C000
C000
C000
C000
C000
C000
C018
6018
7070
1FC0
ENDCHAR

STARTCHAR D
ENCODING 68
SWIDTH 640 0
DWIDTH 16 0
BBX 14 15 1 0
BITMAP
FFE0
3038
300C
300C
300C
300C
300C
300C
300C
300C
300C
300C
300C
3038
FFE0
ENDCHAR

STARTCHAR E
ENCODING 69
SWIDTH 640 0
DWIDTH 16 0
BBX 13 15 1 0
BITMAP
FFF8
3018
3018
3018
3040
3040
3FC0
3040
3040
3000
3000
3018
3018
3018
FFF8
ENDCHAR

STARTCHAR F
ENCODING 70
SWIDTH 640 0
DWIDTH 16 0
BBX 14 15 1 0
BITMAP
FFFC
300C
300C
300C
3040
3040
3FC0
3040
3040
3000
3000
3000
3000
3000
FE00
ENDCHAR

STARTCHAR G
ENCODING 71
SWIDTH 640 0
DWIDTH 16 0
BBX 14 15 1 0
BITMAP
1FD8
7078
6018
C018
C000
C000
C000
C000
C07C
C018
C018
C018
6018
7030
1FE0
ENDCHAR

STARTCHAR H
ENCODING 72
SWIDTH 640 0
DWIDTH 16 0
BBX 14 15 1 0
BITMAP
F87C
6018
6018
6018
6018
6018
6018
7FF8
6018
6018
6018
6018
6018
6018
F87C
ENDCHAR

STARTCHAR I
ENCODING 73
SWIDTH 640 0
DWIDTH 16 0
BBX 12 15 2 0
BITMAP
FFF0
0600
0600
0600
0600
0600
0600
0600
0600
0600
0600
0600
0600
0600
FFF0
ENDCHAR

STARTCHAR J
ENCODING 74
SWIDTH 640 0
DWIDTH 16 0
BBX 14 15 1 0
BITMAP
07FC
0060
0060
0060
0060
0060
0060
0060
0060
0060
C060
C060
C060
60C0
1F80
ENDCHAR

STARTCHAR K
ENCODING 75
SWIDTH 640 0
DWIDTH 16 0
BBX 14 15 1 0
BITMAP
FCFC
3030
3060
30C0
3180
3300
3780
3D80
38C0
3060
3060
3030
3038
3018
FC3C
ENDCHAR

STARTCHAR L
ENCODING 76
SWIDTH 640 0
DWIDTH 16 0
BBX 13 15 1 0
BITMAP
FC00
3000
3000
3000
3000
3000
3000
3000
3000
3000
3000
3000
3018
3018
FFF8
ENDCHAR

STARTCHAR M
ENCODING 77
SWIDTH 640 0
DWIDTH 16 0
BBX 15 15 1 0
BITMAP
F01E
3018
3838
3838
3838
3458
3458
36D8
3298
3298
3118
3118
3018
3018
FC7E
ENDCHAR

STARTCHAR N
ENCODING 78
SWIDTH 640 0
DWIDTH 16 0
BBX 16 15 0 0
BITMAP
F83F
3C0C
340C
360C
320C
330C
310C
318C
30CC
304C
306C
302C
303C
301C
FC1C
ENDCHAR

STARTCHAR O
ENCODING 79
SWIDTH 640 0
DWIDTH 16 0
BBX 14 15 1 0
BITMAP
1FE0
7038
6018
C00C
C00C
C00C
C00C
C00C
C00C
C00C
C00C
C00C
6018
7038
1FE0
ENDCHAR

STARTCHAR P
ENCODING 80
SWIDTH 640 0
DWIDTH 16 0
BBX 14 15 1 0
BITMAP
FFF0
3018
300C
300C
300C
300C
3018
3FF0
3000
3000
3000
3000
3000
3000
FE00
ENDCHAR

STARTCHAR Q
ENCODING 81
SWIDTH 640 0
DWIDTH 16 0
BBX 14 19 1 -4
BITMAP
1FE0
7038
6018
C00C
C00C
C00C
C00C
C00C
C00C
C00C
C00C
C00C
6018
7038
1FE0
0400
0400
3F18
71F0
ENDCHAR

STARTCHAR R
ENCODING 82
SWIDTH 640 0
DWIDTH 16 0
BBX 15 15 1 0
BITMAP
FFE0
3030
3018
3018
3018
3030
3FE0
3180
30C0
3060
3060
3030
3030
3018
FC1E
ENDCHAR

STARTCHAR S
ENCODING 83
SWIDTH 640 0
DWIDTH 16 0
BBX 12 15 2 0
BITMAP
3FB0
6070
C030
C030
E000
7C00
1F80
03E0
0070
0030
C030
C030
C030
F060
DFC0
ENDCHAR

STARTCHAR T
ENCODING 84
SWIDTH 640 0
DWIDTH 16 0
BBX 14 15 1 0
BITMAP
FFFC
C30C
C30C
C30C
C30C
0300
0300
0300
0300
0300
0300
0300
0300
0300
1FE0
ENDCHAR

STARTCHAR U
ENCODING 85
SWIDTH 640 0
DWIDTH 16 0
BBX 16 15 0 0
BITMAP
FC3F
300C
300C
300C
300C
300C
300C
300C
300C
300C
300C
300C
300C
1818
0FF0
ENDCHAR

STARTCHAR V
ENCODING 86
SWIDTH 640 0
DWIDTH 16 0
BBX 15 15 0 0
BITMAP
FCFE
3018
3018
3018
1830
1830
1830
0C60
0C60
0C60
06C0
06C0
06C0
0380
0380
ENDCHAR

STARTCHAR W
ENCODING 87
SWIDTH 640 0
DWIDTH 16 0
BBX 16 15 0 0
BITMAP
F00F
6006
6006
6186
6186
318C
318C
33CC
33CC
324C
366C
366C
1428
1C38
1C38
ENDCHAR

STARTCHAR X
ENCODING 88
SWIDTH 640 0
DWIDTH 16 0
BBX 15 15 0 0
BITMAP
F83C
7018
3830
1860
0C40
0EC0
0780
0380
07C0
0CE0
1870
1830
3018
701C
F83E
ENDCHAR

STARTCHAR Y
ENCODING 89
SWIDTH 640 0
DWIDTH 16 0
BBX 16 15 0 0
BITMAP
FE7F
380C
181C
1C18
0C30
0660
0660
03C0
03C0
0180
0180
0180
0180
0180
0FF0
ENDCHAR

STARTCHAR Z
ENCODING 90
SWIDTH 640 0
DWIDTH 16 0
BBX 12 15 2 0
BITMAP
FFF0
C030
C070
C0E0
01C0
0180
0300
0600
0C00
1800
3800
7030
E030
C030
FFF0
ENDCHAR

STARTCHAR bracketleft
ENCODING 91
SWIDTH 640 0
DWIDTH 16 0
BBX 7 22 6 -4
BITMAP
FE
C0
C0
C0
C0
C0
C0
C0
C0
C0
C0
C0
C0
C0
C0
C0
C0
C0
C0
C0
C0
FE
ENDCHAR

STARTCHAR backslash
ENCODING 92
SWIDTH 640 0
DWIDTH 16 0
BBX 10 19 3 -2
BITMAP
C000
C000
6000
6000
3000
3000
1800
1800
0C00
0C00
0C00
0600
0600
0300
0300
0180
0180
00C0
00C0
ENDCHAR

STARTCHAR bracketright
ENCODING 93
SWIDTH 640 0
DWIDTH 16 0
BBX 6 22 4 -4
BITMAP
FC
0C
0C
0C
0C
0C
0C
0C
0C
0C
0C
0C
0C
0C
0C
0C
0C
0C
0C
0C
0C
FC
ENDCHAR

STARTCHAR asciicircum
ENCODING 94
SWIDTH 640 0
DWIDTH 16 0
BBX 12 4 2 7
BITMAP
0600
1F80
39C0
E070
ENDCHAR

STARTCHAR underscore
ENCODING 95
SWIDTH 640 0
DWIDTH 16 0
BBX 16 1 0 0
BITMAP
FFFF
ENDCHAR

STARTCHAR quoteleft
ENCODING 96
SWIDTH 640 0
DWIDTH 16 0
BBX 7 6 4 11
BITMAP
F0
78
38
1C
0C
06
ENDCHAR

STARTCHAR a
ENCODING 97
SWIDTH 640 0
DWIDTH 16 0
BBX 13 12 1 0
BITMAP
1FE0
6070
6030
0030
1FF0
7030
E030
C030
C030
E070
71B0
3F38
ENDCHAR

STARTCHAR b
ENCODING 98
SWIDTH 640 0
DWIDTH 16 0
BBX 13 16 1 0
BITMAP
E000
6000
6000
6000
67C0
6C70
7030
7038
6018
6018
6018
6018
7038
7030
6C70
E7C0
ENDCHAR

STARTCHAR c
ENCODING 99
SWIDTH 640 0
DWIDTH 16 0
BBX 12 12 2 0
BITMAP
1FB0
70F0
6070
E030
C030
C000
C000
C000
E030
6030
70E0
1FC0
ENDCHAR

STARTCHAR d
ENCODING 100
SWIDTH 640 0
DWIDTH 16 0
BBX 13 16 1 0
BITMAP
0070
0030
0030
0030
1F30
71B0
6070
E070
C030
C030
C030
C030
E070
6070
71B0
1F38
ENDCHAR

STARTCHAR e
ENCODING 101
SWIDTH 640 0
DWIDTH 16 0
BBX 12 12 2 0
BITMAP
1F80
70E0
6060
E070
C030
FFF0
C000
C000
E070
6060
70E0
1F80
ENDCHAR

STARTCHAR f
ENCODING 102
SWIDTH 640 0
DWIDTH 16 0
BBX 11 17 2 0
BITMAP
07E0
0C00
0C00
0C00
0C00
FFE0
0C00
0C00
0C00
0C00
0C00
0C00
0C00
0C00
0C00
0C00
FFE0
ENDCHAR

STARTCHAR g
ENCODING 103
SWIDTH 640 0
DWIDTH 16 0
BBX 13 17 1 -5
BITMAP
1F38
71F0
6070
C030
C030
C030
C030
C030
C030
6070
71F0
1FB0
0030
0030
0060
01C0
FF00
ENDCHAR

STARTCHAR h
ENCODING 104
SWIDTH 640 0
DWIDTH 16 0
BBX 13 16 1 0
BITMAP
E000
6000
6000
6000
67E0
7C70
7030
6030
6030
6030
6030
6030
6030
6030
6030
F078
ENDCHAR

STARTCHAR i
ENCODING 105
SWIDTH 640 0
DWIDTH 16 0
BBX 12 18 2 0
BITMAP
0600
0600
0600
0000
0000
0000
FE00
0600
0600
0600
0600
0600
0600
0600
0600
0600
0600
FFF0
ENDCHAR

STARTCHAR j
ENCODING 106
SWIDTH 640 0
DWIDTH 16 0
BBX 8 23 2 -5
BITMAP
03
03
03
00
00
00
FF
03
03
03
03
03
03
03
03
03
03
03
03
07
06
0E
F8
ENDCHAR

STARTCHAR k
ENCODING 107
SWIDTH 640 0
DWIDTH 16 0
BBX 13 16 2 0
BITMAP
E000
6000
6000
6000
6038
6060
60C0
6180
6700
7E00
6700
6180
60C0
6060
6030
F078
ENDCHAR

STARTCHAR l
ENCODING 108
SWIDTH 640 0
DWIDTH 16 0
BBX 12 16 2 0
BITMAP
FE00
0600
0600
0600
0600
0600
0600
0600
0600
0600
0600
0600
0600
0600
0600
FFF0
ENDCHAR

STARTCHAR m
ENCODING 109
SWIDTH 640 0
DWIDTH 16 0
BBX 14 12 1 0
BITMAP
EEF0
7398
6318
6318
6318
6318
6318
6318
6318
6318
6318
E79C
ENDCHAR

STARTCHAR n
ENCODING 110
SWIDTH 640 0
DWIDTH 16 0
BBX 13 12 1 0
BITMAP
E7E0
7C70
7030
6030
6030
6030
6030
6030
6030
6030
6030
F8F8
ENDCHAR

STARTCHAR o
ENCODING 111
SWIDTH 640 0
DWIDTH 16 0
BBX 13 12 1 0
BITMAP
1FC0
78F0
6030
E038
C018
C018
C018
C018
E038
6030
78F0
1FC0
ENDCHAR

STARTCHAR p
ENCODING 112
SWIDTH 640 0
DWIDTH 16 0
BBX 13 17 1 -5
BITMAP
EFC0
7870
7030
6018
6018
6018
6018
6018
6018
7030
7870
6FC0
6000
6000
6000
6000
F000
ENDCHAR

STARTCHAR q
ENCODING 113
SWIDTH 640 0
DWIDTH 16 0
BBX 13 17 1 -5
BITMAP
1FB8
70F0
6070
C030
C030
C030
C030
C030
C030
6070
70F0
1FB0
0030
0030
0030
0030
0078
ENDCHAR

STARTCHAR r
ENCODING 114
SWIDTH 640 0
DWIDTH 16 0
BBX 13 12 2 0
BITMAP
F3F0
3618
3818
3800
3000
3000
3000
3000
3000
3000
3000
FE00
ENDCHAR

STARTCHAR s
ENCODING 115
SWIDTH 640 0
DWIDTH 16 0
BBX 12 12 2 0
BITMAP
3F90
60F0
C070
E030
7C00
1F80
03E0
C070
C030
E030
F0E0
9FC0
ENDCHAR

STARTCHAR t
ENCODING 116
SWIDTH 640 0
DWIDTH 16 0
BBX 13 15 1 0
BITMAP
1800
1800
1800
FFF0
1800
1800
1800
1800
1800
1800
1800
1800
1800
1C38
0FF0
ENDCHAR

STARTCHAR u
ENCODING 117
SWIDTH 640 0
DWIDTH 16 0
BBX 13 12 1 0
BITMAP
E070
6030
6030
6030
6030
6030
6030
6030
6030
6070
70F0
3FB8
ENDCHAR

STARTCHAR v
ENCODING 118
SWIDTH 640 0
DWIDTH 16 0
BBX 14 12 1 0
BITMAP
F03C
6018
6018
3030
3030
1860
1860
0CC0
0CC0
0780
0700
0300
ENDCHAR

STARTCHAR w
ENCODING 119
SWIDTH 640 0
DWIDTH 16 0
BBX 15 12 0 0
BITMAP
E00E
C006
C106
C106
638C
638C
66CC
644C
6C6C
3838
3018
3018
ENDCHAR

STARTCHAR x
ENCODING 120
SWIDTH 640 0
DWIDTH 16 0
BBX 14 12 1 0
BITMAP
7878
3030
1860
0CC0
0780
0300
0780
0CC0
1860
3070
7038
F87C
ENDCHAR

STARTCHAR y
ENCODING 121
SWIDTH 640 0
DWIDTH 16 0
BBX 14 17 1 -5
BITMAP
F83C
7018
3038
3030
3870
1860
18C0
0CC0
0D80
0700
0700
0600
0C00
0C00
1800
1800
7C00
ENDCHAR

STARTCHAR z
ENCODING 122
SWIDTH 640 0
DWIDTH 16 0
BBX 12 12 2 0
BITMAP
FFF0
C070
C0E0
C1C0
0380
0700
0E00
1C00
3830
7030
E030
FFF0
ENDCHAR

STARTCHAR braceleft
ENCODING 123
SWIDTH 640 0
DWIDTH 16 0
BBX 8 22 4 -4
BITMAP
0F
18
18
18
18
18
18
18
18
18
E0
18
18
18
18
18
18
18
18
18
18
0F
ENDCHAR

STARTCHAR bar
ENCODING 124
SWIDTH 640 0
DWIDTH 16 0
BBX 2 22 7 -3
BITMAP
C0
C0
C0
C0
C0
C0
C0
C0
C0
C0
C0
C0
C0
C0
C0
C0
C0
C0
C0
C0
C0
C0
ENDCHAR

STARTCHAR braceright
ENCODING 125
SWIDTH 640 0
DWIDTH 16 0
BBX 8 22 3 -4
BITMAP
F0
18
18
18
18
18
18
18
18
18
07
18
18
18
18
18
18
18
18
18
18
F0
ENDCHAR

STARTCHAR asciitilde
ENCODING 126
SWIDTH 640 0
DWIDTH 16 0
BBX 12 4 2 6
BITMAP
3830
7E30
C7E0
C1C0
ENDCHAR

STARTCHAR unknown_0x80
ENCODING 128
SWIDTH 640 0
DWIDTH 16 0
BBX 16 15 0 0
BITMAP
1FFF
3183
6183
6180
C180
C184
C184
C1FC
C184
C184
C180
E180
6183
7183
1FFF
ENDCHAR

STARTCHAR unknown_0x81
ENCODING 129
SWIDTH 640 0
DWIDTH 16 0
BBX 16 15 0 0
BITMAP
FE7F
380C
181C
1C18
0C30
0660
0660
03C0
03C0
0180
0180
0180
0180
0180
0FF0
ENDCHAR

STARTCHAR unknown_0x82
ENCODING 130
SWIDTH 640 0
DWIDTH 16 0
BBX 16 20 0 0
BITMAP
1818
1818
1818
0000
0000
FE7F
380C
181C
1C18
0C30
0630
0660
03C0
03C0
0180
0180
0180
0180
0180
0FF0
ENDCHAR

STARTCHAR unknown_0x9f
ENCODING 159
SWIDTH 640 0
DWIDTH 16 0
BBX 14 27 1 -4
BITMAP
0FE0
3FF8
7FF8
783C
F01C
F01C
F01C
F000
F800
7800
3C00
3E00
1F00
0F00
0780
0380
0380
0380
0000
0000
0000
0380
07C0
0FE0
0FE0
07C0
0380
ENDCHAR

STARTCHAR unknown_0xa1
ENCODING 161
SWIDTH 640 0
DWIDTH 16 0
BBX 6 15 5 -2
BITMAP
30
FC
30
00
00
00
30
30
30
30
30
30
30
30
30
ENDCHAR

STARTCHAR cent
ENCODING 162
SWIDTH 640 0
DWIDTH 16 0
BBX 12 18 2 -2
BITMAP
0600
0600
0600
1F30
70F0
6070
E030
C000
C000
C000
E000
6070
70F0
1FC0
0600
0600
0600
0600
ENDCHAR

STARTCHAR sterling
ENCODING 163
SWIDTH 640 0
DWIDTH 16 0
BBX 13 15 2 0
BITMAP
0F80
18C0
3060
3060
3800
1800
0C00
FFE0
0C00
0C00
0C00
0C00
3E08
FFF8
C1F0
ENDCHAR

STARTCHAR currency
ENCODING 164
SWIDTH 640 0
DWIDTH 16 0
BBX 11 11 2 2
BITMAP
C060
C060
3F80
C060
C060
C060
C060
C060
3F80
C060
C060
ENDCHAR

STARTCHAR yen
ENCODING 165
SWIDTH 640 0
DWIDTH 16 0
BBX 16 15 0 0
BITMAP
FE7F
380C
180C
1C18
7C3E
0660
0660
03C0
7FFE
0180
0180
0180
0180
0180
1FF8
ENDCHAR

STARTCHAR brokenbar
ENCODING 166
SWIDTH 640 0
DWIDTH 16 0
BBX 2 21 7 -4
BITMAP
C0
C0
C0
C0
C0
C0
C0
C0
00
00
00
00
00
C0
C0
C0
C0
C0
C0
C0
C0
ENDCHAR

STARTCHAR section
ENCODING 167
SWIDTH 640 0
DWIDTH 16 0
BBX 11 18 3 -3
BITMAP
1FE0
6060
C060
C000
F000
7E00
CF80
C1C0
E0C0
7060
3C60
1FC0
0380
00C0
0060
C060
C0C0
FF00
ENDCHAR

STARTCHAR dieresis
ENCODING 168
SWIDTH 640 0
DWIDTH 16 0
BBX 10 3 3 16
BITMAP
E1C0
E1C0
E1C0
ENDCHAR

STARTCHAR copyright
ENCODING 169
SWIDTH 640 0
DWIDTH 16 0
BBX 16 13 0 1
BITMAP
0FF0
381C
6006
43C2
C663
C623
C603
C623
C663
43C2
6006
381C
0FF0
ENDCHAR

STARTCHAR multiply
ENCODING 170
SWIDTH 640 0
DWIDTH 16 0
BBX 11 13 3 3
BITMAP
7F80
00C0
0060
3FE0
60E0
C060
C060
E1E0
7F60
0000
0000
0000
FFE0
ENDCHAR

STARTCHAR guillemotleft
ENCODING 171
SWIDTH 640 0
DWIDTH 16 0
BBX 12 10 2 1
BITMAP
1830
3060
70E0
60C0
C180
C180
60C0
70E0
3060
1830
ENDCHAR

STARTCHAR logicalnot
ENCODING 172
SWIDTH 640 0
DWIDTH 16 0
BBX 12 5 2 5
BITMAP
FFF0
0030
0030
0030
0030
ENDCHAR

STARTCHAR hyphen
ENCODING 173
SWIDTH 640 0
DWIDTH 16 0
BBX 10 1 3 7
BITMAP
FFC0
ENDCHAR

STARTCHAR registered
ENCODING 174
SWIDTH 640 0
DWIDTH 16 0
BBX 16 13 0 1
BITMAP
0FF0
381C
6006
47C2
C663
C663
C7C3
C663
C663
4662
6006
381C
0FF0
ENDCHAR

STARTCHAR macron
ENCODING 175
SWIDTH 640 0
DWIDTH 16 0
BBX 8 2 4 15
BITMAP
FF
FF
ENDCHAR

STARTCHAR degree
ENCODING 176
SWIDTH 640 0
DWIDTH 16 0
BBX 11 7 2 9
BITMAP
3F80
60C0
C060
C060
C060
60C0
3F80
ENDCHAR

STARTCHAR plusminus
ENCODING 177
SWIDTH 640 0
DWIDTH 16 0
BBX 12 13 2 0
BITMAP
0600
0600
0600
0600
FFF0
0600
0600
0600
0600
0000
0000
0000
FFF0
ENDCHAR

STARTCHAR twosuperior
ENCODING 178
SWIDTH 640 0
DWIDTH 16 0
BBX 12 11 2 5
BITMAP
1F80
70C0
C060
C060
00C0
0180
0700
0C00
1830
7030
FFF0
ENDCHAR

STARTCHAR threesuperior
ENCODING 179
SWIDTH 640 0
DWIDTH 16 0
BBX 11 11 2 5
BITMAP
3F80
E0C0
C060
0060
00C0
0F80
00C0
0060
C060
E0C0
3F80
ENDCHAR

STARTCHAR acute
ENCODING 180
SWIDTH 640 0
DWIDTH 16 0
BBX 8 4 5 15
BITMAP
1F
3C
F0
C0
ENDCHAR

STARTCHAR mu
ENCODING 181
SWIDTH 640 0
DWIDTH 16 0
BBX 12 16 2 -4
BITMAP
1830
1830
1830
3060
3060
3060
3060
60C0
60C0
60C0
63C0
7EF0
C000
C000
C000
C000
ENDCHAR

STARTCHAR paragraph
ENCODING 182
SWIDTH 640 0
DWIDTH 16 0
BBX 14 19 1 -3
BITMAP
0FFC
3E30
7E30
7E30
FE30
FE30
FE30
7E30
3E30
0E30
0630
0630
0630
0630
0630
0630
0630
0630
1E3C
ENDCHAR

STARTCHAR periodcentered
ENCODING 183
SWIDTH 640 0
DWIDTH 16 0
BBX 12 11 2 2
BITMAP
0600
0600
0600
0600
0600
FFF0
0600
0600
0600
0600
0600
ENDCHAR

STARTCHAR cedilla
ENCODING 184
SWIDTH 640 0
DWIDTH 16 0
BBX 7 6 5 -5
BITMAP
30
30
3C
0E
0E
FC
ENDCHAR

STARTCHAR onesuperior
ENCODING 185
SWIDTH 640 0
DWIDTH 16 0
BBX 8 11 4 5
BITMAP
18
38
D8
18
18
18
18
18
18
18
FF
ENDCHAR

STARTCHAR divide
ENCODING 186
SWIDTH 640 0
DWIDTH 16 0
BBX 11 13 2 3
BITMAP
3F80
60C0
C060
C060
C060
C060
C060
60C0
3F80
0000
0000
0000
FFE0
ENDCHAR

STARTCHAR guillemotright
ENCODING 187
SWIDTH 640 0
DWIDTH 16 0
BBX 12 10 2 1
BITMAP
C180
60C0
70E0
3060
1830
1830
3060
70E0
60C0
C180
ENDCHAR

STARTCHAR onequarter
ENCODING 188
SWIDTH 640 0
DWIDTH 16 0
BBX 14 20 0 -4
BITMAP
1800
3800
D800
1800
1800
1800
1800
180C
7E3C
01E0
0780
3C18
3038
0058
0098
0118
03FC
0018
0018
0018
ENDCHAR

STARTCHAR onehalf
ENCODING 189
SWIDTH 640 0
DWIDTH 16 0
BBX 15 20 0 -4
BITMAP
1800
3800
D800
1800
1800
1800
180C
183C
7EF0
01C0
0F00
3CF8
318C
0306
0006
000C
0038
0060
01C0
03FE
ENDCHAR

STARTCHAR threequarters
ENCODING 190
SWIDTH 640 0
DWIDTH 16 0
BBX 15 20 0 -4
BITMAP
3E00
C180
C180
0180
0E00
0180
C180
C186
3E1E
0070
03C0
1F18
1838
0058
0098
0118
03FC
0018
0018
0018
ENDCHAR

STARTCHAR unknown_0xbf
ENCODING 191
SWIDTH 640 0
DWIDTH 16 0
BBX 11 15 3 -2
BITMAP
0000
0000
0000
0000
0000
0000
0000
0000
0000
0000
0000
0000
0000
0000
0000
ENDCHAR

STARTCHAR unknown_0xc0
ENCODING 192
SWIDTH 640 0
DWIDTH 16 0
BBX 16 21 0 0
BITMAP
0000
0000
0000
0000
0000
0000
0000
0000
0000
0000
0000
0000
0000
0000
0000
0000
0000
0000
0000
0000
0000
ENDCHAR

STARTCHAR unknown_0xc1
ENCODING 193
SWIDTH 640 0
DWIDTH 16 0
BBX 16 21 0 0
BITMAP
0000
0000
0000
0000
0000
0000
0000
0000
0000
0000
0000
0000
0000
0000
0000
0000
0000
0000
0000
0000
0000
ENDCHAR

STARTCHAR unknown_0xc2
ENCODING 194
SWIDTH 640 0
DWIDTH 16 0
BBX 16 21 0 0
BITMAP
0000
0000
0000
0000
0000
0000
0000
0000
0000
0000
0000
0000
0000
0000
0000
0000
0000
0000
0000
0000
0000
ENDCHAR

STARTCHAR unknown_0xc3
ENCODING 195
SWIDTH 640 0
DWIDTH 16 0
BBX 16 21 0 0
BITMAP
0000
0000
0000
0000
0000
0000
0000
0000
0000
0000
0000
0000
0000
0000
0000
0000
0000
0000
0000
0000
0000
ENDCHAR

STARTCHAR unknown_0xc4
ENCODING 196
SWIDTH 640 0
DWIDTH 16 0
BBX 16 21 0 0
BITMAP
0000
0000
0000
0000
0000
0000
0000
0000
0000
0000
0000
0000
0000
0000
0000
0000
0000
0000
0000
0000
0000
ENDCHAR

STARTCHAR unknown_0xc5
ENCODING 197
SWIDTH 640 0
DWIDTH 16 0
BBX 16 21 0 0
BITMAP
0000
0000
0000
0000
0000
0000
0000
0000
0000
0000
0000
0000
0000
0000
0000
0000
0000
0000
0000
0000
0000
ENDCHAR

STARTCHAR unknown_0xc6
ENCODING 198
SWIDTH 640 0
DWIDTH 16 0
BBX 16 15 0 0
BITMAP
0000
0000
0000
0000
0000
0000
0000
0000
0000
0000
0000
0000
0000
0000
0000
ENDCHAR

STARTCHAR unknown_0xc7
ENCODING 199
SWIDTH 640 0
DWIDTH 16 0
BBX 13 20 1 -5
BITMAP
0000
0000
0000
0000
0000
0000
0000
0000
0000
0000
0000
0000
0000
0000
0000
0000
0000
0000
0000
0000
ENDCHAR

STARTCHAR unknown_0xc8
ENCODING 200
SWIDTH 640 0
DWIDTH 16 0
BBX 13 21 1 0
BITMAP
0000
0000
0000
0000
0000
0000
0000
0000
0000
0000
0000
0000
0000
0000
0000
0000
0000
0000
0000
0000
0000
ENDCHAR

STARTCHAR unknown_0xc9
ENCODING 201
SWIDTH 640 0
DWIDTH 16 0
BBX 13 21 1 0
BITMAP
0000
0000
0000
0000
0000
0000
0000
0000
0000
0000
0000
0000
0000
0000
0000
0000
0000
0000
0000
0000
0000
ENDCHAR

STARTCHAR unknown_0xca
ENCODING 202
SWIDTH 640 0
DWIDTH 16 0
BBX 13 21 1 0
BITMAP
0000
0000
0000
0000
0000
0000
0000
0000
0000
0000
0000
0000
0000
0000
0000
0000
0000
0000
0000
0000
0000
ENDCHAR

STARTCHAR unknown_0xcb
ENCODING 203
SWIDTH 640 0
DWIDTH 16 0
BBX 13 21 1 0
BITMAP
0000
0000
0000
0000
0000
0000
0000
0000
0000
0000
0000
0000
0000
0000
0000
0000
0000
0000
0000
0000
0000
ENDCHAR

STARTCHAR unknown_0xcc
ENCODING 204
SWIDTH 640 0
DWIDTH 16 0
BBX 12 21 2 0
BITMAP
0000
0000
0000
0000
0000
0000
0000
0000
0000
0000
0000
0000
0000
0000
0000
0000
0000
0000
0000
0000
0000
ENDCHAR

STARTCHAR unknown_0xcd
ENCODING 205
SWIDTH 640 0
DWIDTH 16 0
BBX 12 21 2 0
BITMAP
0000
0000
0000
0000
0000
0000
0000
0000
0000
0000
0000
0000
0000
0000
0000
0000
0000
0000
0000
0000
0000
ENDCHAR

STARTCHAR unknown_0xce
ENCODING 206
SWIDTH 640 0
DWIDTH 16 0
BBX 12 21 2 0
BITMAP
0000
0000
0000
0000
0000
0000
0000
0000
0000
0000
0000
0000
0000
0000
0000
0000
0000
0000
0000
0000
0000
ENDCHAR

STARTCHAR unknown_0xcf
ENCODING 207
SWIDTH 640 0
DWIDTH 16 0
BBX 12 21 2 0
BITMAP
0000
0000
0000
0000
0000
0000
0000
0000
0000
0000
0000
0000
0000
0000
0000
0000
0000
0000
0000
0000
0000
ENDCHAR

STARTCHAR unknown_0xd0
ENCODING 208
SWIDTH 640 0
DWIDTH 16 0
BBX 14 15 1 0
BITMAP
0000
0000
0000
0000
0000
0000
0000
0000
0000
0000
0000
0000
0000
0000
0000
ENDCHAR

STARTCHAR unknown_0xd1
ENCODING 209
SWIDTH 640 0
DWIDTH 16 0
BBX 16 21 0 0
BITMAP
0000
0000
0000
0000
0000
0000
0000
0000
0000
0000
0000
0000
0000
0000
0000
0000
0000
0000
0000
0000
0000
ENDCHAR

STARTCHAR unknown_0xd2
ENCODING 210
SWIDTH 640 0
DWIDTH 16 0
BBX 14 21 1 0
BITMAP
0000
0000
0000
0000
0000
0000
0000
0000
0000
0000
0000
0000
0000
0000
0000
0000
0000
0000
0000
0000
0000
ENDCHAR

STARTCHAR unknown_0xd3
ENCODING 211
SWIDTH 640 0
DWIDTH 16 0
BBX 14 21 1 0
BITMAP
0000
0000
0000
0000
0000
0000
0000
0000
0000
0000
0000
0000
0000
0000
0000
0000
0000
0000
0000
0000
0000
ENDCHAR

STARTCHAR unknown_0xd4
ENCODING 212
SWIDTH 640 0
DWIDTH 16 0
BBX 14 21 1 0
BITMAP
0000
0000
0000
0000
0000
0000
0000
0000
0000
0000
0000
0000
0000
0000
0000
0000
0000
0000
0000
0000
0000
ENDCHAR

STARTCHAR unknown_0xd5
ENCODING 213
SWIDTH 640 0
DWIDTH 16 0
BBX 14 21 1 0
BITMAP
0000
0000
0000
0000
0000
0000
0000
0000
0000
0000
0000
0000
0000
0000
0000
0000
0000
0000
0000
0000
0000
ENDCHAR

STARTCHAR unknown_0xd6
ENCODING 214
SWIDTH 640 0
DWIDTH 16 0
BBX 14 21 1 0
BITMAP
0000
0000
0000
0000
0000
0000
0000
0000
0000
0000
0000
0000
0000
0000
0000
0000
0000
0000
0000
0000
0000
ENDCHAR

STARTCHAR unknown_0xd7
ENCODING 215
SWIDTH 640 0
DWIDTH 16 0
BBX 12 10 2 3
BITMAP
0000
0000
0000
0000
0000
0000
0000
0000
0000
0000
ENDCHAR

STARTCHAR unknown_0xd8
ENCODING 216
SWIDTH 640 0
DWIDTH 16 0
BBX 12 17 2 -1
BITMAP
0000
0000
0000
0000
0000
0000
0000
0000
0000
0000
0000
0000
0000
0000
0000
0000
0000
ENDCHAR

STARTCHAR unknown_0xd9
ENCODING 217
SWIDTH 640 0
DWIDTH 16 0
BBX 16 21 0 0
BITMAP
0000
0000
0000
0000
0000
0000
0000
0000
0000
0000
0000
0000
0000
0000
0000
0000
0000
0000
0000
0000
0000
ENDCHAR

STARTCHAR unknown_0xda
ENCODING 218
SWIDTH 640 0
DWIDTH 16 0
BBX 16 21 0 0
BITMAP
0000
0000
0000
0000
0000
0000
0000
0000
0000
0000
0000
0000
0000
0000
0000
0000
0000
0000
0000
0000
0000
ENDCHAR

STARTCHAR unknown_0xdb
ENCODING 219
SWIDTH 640 0
DWIDTH 16 0
BBX 16 21 0 0
BITMAP
0000
0000
0000
0000
0000
0000
0000
0000
0000
0000
0000
0000
0000
0000
0000
0000
0000
0000
0000
0000
0000
ENDCHAR

STARTCHAR unknown_0xdc
ENCODING 220
SWIDTH 640 0
DWIDTH 16 0
BBX 16 21 0 0
BITMAP
0000
0000
0000
0000
0000
0000
0000
0000
0000
0000
0000
0000
0000
0000
0000
0000
0000
0000
0000
0000
0000
ENDCHAR

STARTCHAR unknown_0xdd
ENCODING 221
SWIDTH 640 0
DWIDTH 16 0
BBX 16 21 0 0
BITMAP
0000
0000
0000
0000
0000
0000
0000
0000
0000
0000
0000
0000
0000
0000
0000
0000
0000
0000
0000
0000
0000
ENDCHAR

STARTCHAR unknown_0xde
ENCODING 222
SWIDTH 640 0
DWIDTH 16 0
BBX 12 15 2 0
BITMAP
0000
0000
0000
0000
0000
0000
0000
0000
0000
0000
0000
0000
0000
0000
0000
ENDCHAR

STARTCHAR dblunderscore
ENCODING 223
SWIDTH 640 0
DWIDTH 16 0
BBX 16 14 0 -5
BITMAP
0000
0000
0000
0000
0000
0000
0000
0000
FFFF
FFFF
0000
0000
FFFF
FFFF
ENDCHAR

STARTCHAR aleph
ENCODING 224
SWIDTH 640 0
DWIDTH 16 0
BBX 14 14 1 0
BITMAP
C018
E018
7018
3818
1C18
3E18
7730
63E0
C1C0
C0E0
C070
C038
C01C
C008
ENDCHAR

STARTCHAR beth
ENCODING 225
SWIDTH 640 0
DWIDTH 16 0
BBX 13 14 1 0
BITMAP
7F00
7FC0
00C0
0060
0060
0060
0060
0060
0060
0060
0060
0060
FFF8
FFF8
ENDCHAR

STARTCHAR gimmel
ENCODING 226
SWIDTH 640 0
DWIDTH 16 0
BBX 13 14 1 0
BITMAP
0FC0
0FE0
0070
0030
0030
0030
0030
0070
00F0
01B0
0330
0E30
7C30
7030
ENDCHAR

STARTCHAR daleth
ENCODING 227
SWIDTH 640 0
DWIDTH 16 0
BBX 13 14 1 0
BITMAP
FFF8
FFF8
0180
0180
0180
0180
0180
0180
0180
0180
0180
0180
0180
0180
ENDCHAR

STARTCHAR he
ENCODING 228
SWIDTH 640 0
DWIDTH 16 0
BBX 13 14 1 0
BITMAP
FFC0
FFF0
0030
0018
0018
0018
6018
6018
6018
6018
6018
6018
6018
6018
ENDCHAR

STARTCHAR waw
ENCODING 229
SWIDTH 640 0
DWIDTH 16 0
BBX 13 14 1 0
BITMAP
1F00
1F00
0300
0300
0300
0300
0300
0300
0300
0300
0300
0300
0300
0300
ENDCHAR

STARTCHAR zayin
ENCODING 230
SWIDTH 640 0
DWIDTH 16 0
BBX 13 14 1 0
BITMAP
3FC0
3FC0
0600
0600
0600
0300
0300
0300
0300
0600
0600
0600
0600
0600
ENDCHAR

STARTCHAR het
ENCODING 231
SWIDTH 640 0
DWIDTH 16 0
BBX 13 14 1 0
BITMAP
FFC0
FFF0
C030
C018
C018
C018
C018
C018
C018
C018
C018
C018
C018
C018
ENDCHAR

STARTCHAR teth
ENCODING 232
SWIDTH 640 0
DWIDTH 16 0
BBX 13 14 1 0
BITMAP
C1E0
C3F0
C738
C618
C618
C618
C018
C018
C018
C018
C018
6030
7FF0
1FC0
ENDCHAR

STARTCHAR yod
ENCODING 233
SWIDTH 640 0
DWIDTH 16 0
BBX 13 14 1 0
BITMAP
0F80
0F80
0180
0180
0180
0180
0000
0000
0000
0000
0000
0000
0000
0000
ENDCHAR

STARTCHAR kaphfinal
ENCODING 234
SWIDTH 640 0
DWIDTH 16 0
BBX 13 19 1 -5
BITMAP
FFF8
FFF8
0060
0060
0060
0060
0060
0060
0060
0060
0060
0060
0060
0060
0060
0060
0060
0060
0000
ENDCHAR

STARTCHAR kaph
ENCODING 235
SWIDTH 640 0
DWIDTH 16 0
BBX 13 14 1 0
BITMAP
FFC0
FFF0
0030
0018
0018
0018
0018
0018
0018
0018
0018
0030
FFF0
FFC0
ENDCHAR

STARTCHAR lamed
ENCODING 236
SWIDTH 640 0
DWIDTH 16 0
BBX 13 19 1 0
BITMAP
C000
C000
C000
C000
C000
FFF8
FFF8
0038
0030
0070
0060
00E0
00C0
01C0
0180
0380
0300
0700
0600
ENDCHAR

STARTCHAR memfinal
ENCODING 237
SWIDTH 640 0
DWIDTH 16 0
BBX 13 14 1 0
BITMAP
FFC0
FFF0
C030
C018
C018
C018
C018
C018
C018
C018
C018
C018
FFF8
FFF8
ENDCHAR

STARTCHAR mem
ENCODING 238
SWIDTH 640 0
DWIDTH 16 0
BBX 14 14 1 0
BITMAP
43C0
C7F0
EC38
7818
700C
300C
600C
600C
600C
600C
C00C
C00C
C3FC
C3FC
ENDCHAR

STARTCHAR nunfinal
ENCODING 239
SWIDTH 640 0
DWIDTH 16 0
BBX 13 19 1 -5
BITMAP
01F8
01F8
0018
0018
0018
0018
0018
0018
0018
0018
0018
0018
0018
0018
0018
0018
0018
0018
0000
ENDCHAR

STARTCHAR nun
ENCODING 240
SWIDTH 640 0
DWIDTH 16 0
BBX 13 14 1 0
BITMAP
1F00
1FC0
00C0
0060
0060
0060
0060
0060
0060
0060
0060
0060
7FE0
7FE0
ENDCHAR

STARTCHAR samekh
ENCODING 241
SWIDTH 640 0
DWIDTH 16 0
BBX 13 14 1 0
BITMAP
FFF8
FFF8
C018
C018
C018
C018
C018
C018
C018
E038
6030
7070
3FE0
0F80
ENDCHAR

STARTCHAR ayin
ENCODING 242
SWIDTH 640 0
DWIDTH 16 0
BBX 13 14 1 0
BITMAP
6018
6018
7018
3018
3818
1818
1C18
0C18
0E18
0618
0718
0330
FFF0
FFC0
ENDCHAR

STARTCHAR pefinal
ENCODING 243
SWIDTH 640 0
DWIDTH 16 0
BBX 13 19 1 -5
BITMAP
FFC0
FFF0
C030
C018
C018
C018
E018
7E18
3E18
0018
0018
0018
0018
0018
0018
0018
0018
0018
0000
ENDCHAR

STARTCHAR pe
ENCODING 244
SWIDTH 640 0
DWIDTH 16 0
BBX 13 14 1 0
BITMAP
FFC0
FFF0
C030
C018
C018
C018
E018
7E18
3E18
0018
0038
0030
FFF0
FFC0
ENDCHAR

STARTCHAR zadikfinal
ENCODING 245
SWIDTH 640 0
DWIDTH 16 0
BBX 13 19 1 -5
BITMAP
4018
E018
7018
3818
1C18
0C18
0630
07F0
03C0
0300
0300
0300
0300
0300
0300
0300
0300
0300
0000
ENDCHAR

STARTCHAR zadik
ENCODING 246
SWIDTH 640 0
DWIDTH 16 0
BBX 13 14 1 0
BITMAP
E030
F030
3830
1C30
0E30
0770
03E0
0180
00C0
00E0
0070
0030
FFF8
FFF8
ENDCHAR

STARTCHAR kof
ENCODING 247
SWIDTH 640 0
DWIDTH 16 0
BBX 13 19 1 -5
BITMAP
FFF8
FFF8
0018
0018
0030
0030
6060
6060
60C0
60C0
6180
6180
6300
6300
6000
6000
6000
6000
0000
ENDCHAR

STARTCHAR resh
ENCODING 248
SWIDTH 640 0
DWIDTH 16 0
BBX 13 14 1 0
BITMAP
7FC0
7FF0
0030
0018
0018
0018
0018
0018
0018
0018
0018
0018
0018
0018
ENDCHAR

STARTCHAR shin
ENCODING 249
SWIDTH 640 0
DWIDTH 16 0
BBX 14 14 1 0
BITMAP
C30C
C30C
C30C
C30C
C30C
C30C
C30C
C30C
C30C
C30C
C30C
6318
7FF8
1FE0
ENDCHAR

STARTCHAR taf
ENCODING 250
SWIDTH 640 0
DWIDTH 16 0
BBX 13 14 1 0
BITMAP
FFC0
FFF0
3030
3018
3018
3018
3018
3018
3018
3018
3018
3018
F018
E018
ENDCHAR

STARTCHAR unknown_0xfb
ENCODING 251
SWIDTH 640 0
DWIDTH 16 0
BBX 13 19 1 0
BITMAP
0F80
1DC0
7070
6030
0000
0000
0000
E070
6030
6030
6030
6030
6030
6030
6030
6030
6070
70F0
3FB8
ENDCHAR

STARTCHAR unknown_0xfc
ENCODING 252
SWIDTH 640 0
DWIDTH 16 0
BBX 13 19 1 0
BITMAP
70E0
70E0
70E0
0000
0000
0000
0000
E070
6030
6030
6030
6030
6030
6030
6030
6030
6070
70F0
3FB8
ENDCHAR

STARTCHAR unknown_0xfd
ENCODING 253
SWIDTH 640 0
DWIDTH 16 0
BBX 14 24 1 -5
BITMAP
007C
00F0
03C0
0300
0000
0000
0000
F83C
7018
3038
3030
3870
1860
18C0
0CC0
0D80
0700
0700
0600
0C00
0C00
1800
1800
7C00
ENDCHAR

STARTCHAR unknown_0xfe
ENCODING 254
SWIDTH 640 0
DWIDTH 16 0
BBX 13 20 1 -5
BITMAP
E000
6000
6000
6FC0
7870
7030
6018
6018
6018
6018
6018
6018
7030
7870
6FC0
6000
6000
6000
6000
F000
ENDCHAR

STARTCHAR unknown_0xff
ENCODING 255
SWIDTH 640 0
DWIDTH 16 0
BBX 14 24 1 -5
BITMAP
3870
3870
3870
0000
0000
0000
0000
F83C
7018
3038
3030
3870
1860
18C0
0CC0
0D80
0700
0700
0600
0C00
0C00
1800
1800
7C00
ENDCHAR

ENDFONT
