STARTFONT 2.1
FONT -Bitstream-Dutch 801-Medium-R-Normal--12-120-75-75-P-92-DEC-DECmath_Symbol
SIZE 12 75 75
FONTBOUNDINGBOX 17 22 -3 -12

STARTPROPERTIES 26
FONTNAME_REGISTRY ""
FAMILY_NAME "Dutch 801"
FOUNDRY "Bitstream"
WEIGHT_NAME "Medium"
SETWIDTH_NAME "Normal"
SLANT "R"
ADD_STYLE_NAME ""
PIXEL_SIZE 12
POINT_SIZE 120
RESOLUTION_X 75
RESOLUTION_Y 75
SPACING "P"
AVERAGE_WIDTH 92
CHARSET_REGISTRY "DEC"
CHARSET_ENCODING "DECmath_Symbol"
CAP_HEIGHT 9
X_HEIGHT 0
CHARSET_COLLECTIONS "DEC-DECmath_Symbol"
FULL_NAME "Dutch 801 Roman DECmath_Symbol"
COPYRIGHT "Copyright 1989 by Bitstream, Inc. and Digital Equipment Corp. All rights reserved."
NOTICE "Dutch 801 is a registered trademark of Bitstream, Inc."
WEIGHT 10
QUAD_WIDTH 7
DEFAULT_CHAR 32
FONT_DESCENT 12
FONT_ASCENT 10
ENDPROPERTIES

CHARS 128

STARTCHAR arrowleft
ENCODING 32
SWIDTH 1000 0
DWIDTH 12 0
BBX 11 5 1 1
BITMAP
3000
4000
FFE0
4000
3000
ENDCHAR

STARTCHAR arrowright
ENCODING 33
SWIDTH 1000 0
DWIDTH 12 0
BBX 11 5 1 1
BITMAP
0180
0040
FFE0
0040
0180
ENDCHAR

STARTCHAR arrowup
ENCODING 34
SWIDTH 500 0
DWIDTH 6 0
BBX 5 12 1 -3
BITMAP
20
70
A8
A8
20
20
20
20
20
20
20
20
ENDCHAR

STARTCHAR arrowdown
ENCODING 35
SWIDTH 500 0
DWIDTH 6 0
BBX 5 12 1 -3
BITMAP
20
20
20
20
20
20
20
20
A8
A8
70
20
ENDCHAR

STARTCHAR arrowboth
ENCODING 36
SWIDTH 1000 0
DWIDTH 12 0
BBX 11 5 1 1
BITMAP
3180
4040
FFE0
4040
3180
ENDCHAR

STARTCHAR arrownortheast
ENCODING 37
SWIDTH 1000 0
DWIDTH 12 0
BBX 11 11 1 -2
BITMAP
01E0
0060
00A0
0120
0200
0400
0800
1000
2000
4000
8000
ENDCHAR

STARTCHAR arrowsoutheast
ENCODING 38
SWIDTH 1000 0
DWIDTH 12 0
BBX 11 11 1 -2
BITMAP
8000
4000
2000
1000
0800
0400
0200
0120
00A0
0060
01E0
ENDCHAR

STARTCHAR similarequal
ENCODING 39
SWIDTH 1000 0
DWIDTH 12 0
BBX 8 4 2 2
BITMAP
71
8E
00
FF
ENDCHAR

STARTCHAR arrowdblleft
ENCODING 40
SWIDTH 1000 0
DWIDTH 12 0
BBX 11 5 1 1
BITMAP
2000
7FE0
8000
7FE0
2000
ENDCHAR

STARTCHAR arrowdblright
ENCODING 41
SWIDTH 1000 0
DWIDTH 12 0
BBX 11 5 1 1
BITMAP
0080
FFC0
0020
FFC0
0080
ENDCHAR

STARTCHAR arrowdblup
ENCODING 42
SWIDTH 500 0
DWIDTH 6 0
BBX 5 12 1 -3
BITMAP
20
50
D8
50
50
50
50
50
50
50
50
50
ENDCHAR

STARTCHAR arrowdbldown
ENCODING 43
SWIDTH 500 0
DWIDTH 6 0
BBX 5 12 1 -3
BITMAP
50
50
50
50
50
50
50
50
50
D8
50
20
ENDCHAR

STARTCHAR arrowdblboth
ENCODING 44
SWIDTH 1000 0
DWIDTH 12 0
BBX 11 5 1 1
BITMAP
2080
7FC0
8020
7FC0
2080
ENDCHAR

STARTCHAR arrownorthwest
ENCODING 45
SWIDTH 1000 0
DWIDTH 12 0
BBX 11 11 1 -2
BITMAP
F000
C000
A000
9000
0800
0400
0200
0100
0080
0040
0020
ENDCHAR

STARTCHAR arrowsouthwest
ENCODING 46
SWIDTH 1000 0
DWIDTH 12 0
BBX 11 11 1 -2
BITMAP
0020
0040
0080
0100
0200
0400
0800
9000
A000
C000
F000
ENDCHAR

STARTCHAR proportional
ENCODING 47
SWIDTH 1000 0
DWIDTH 12 0
BBX 7 5 3 1
BITMAP
76
88
88
88
76
ENDCHAR

STARTCHAR prime
ENCODING 48
SWIDTH 278 0
DWIDTH 3 0
BBX 2 4 0 3
BITMAP
40
40
80
80
ENDCHAR

STARTCHAR infinity
ENCODING 49
SWIDTH 833 0
DWIDTH 10 0
BBX 8 5 1 1
BITMAP
76
89
99
91
6E
ENDCHAR

STARTCHAR element
ENCODING 50
SWIDTH 1000 0
DWIDTH 12 0
BBX 8 8 2 0
BITMAP
3F
40
80
FF
80
80
40
3F
ENDCHAR

STARTCHAR suchthat
ENCODING 51
SWIDTH 1000 0
DWIDTH 12 0
BBX 8 8 2 0
BITMAP
FC
02
01
FF
01
01
02
FC
ENDCHAR

STARTCHAR trianglelgup
ENCODING 52
SWIDTH 1000 0
DWIDTH 12 0
BBX 9 9 2 0
BITMAP
0800
1400
1400
2200
2200
4100
4100
8080
FF80
ENDCHAR

STARTCHAR trianglelgdown
ENCODING 53
SWIDTH 1000 0
DWIDTH 12 0
BBX 9 9 2 -2
BITMAP
FF80
8080
4100
4100
2200
2200
1400
1400
0800
ENDCHAR

STARTCHAR slashnegate
ENCODING 54
SWIDTH 0 0
DWIDTH 6 0
BBX 5 12 1 -3
BITMAP
08
08
10
10
10
20
20
40
40
40
80
80
ENDCHAR

STARTCHAR mapsto
ENCODING 55
SWIDTH 0 0
DWIDTH 1 0
BBX 2 5 0 1
BITMAP
80
80
C0
80
80
ENDCHAR

STARTCHAR universal
ENCODING 56
SWIDTH 637 0
DWIDTH 8 0
BBX 8 8 0 0
BITMAP
81
81
7E
42
24
24
18
18
ENDCHAR

STARTCHAR existential
ENCODING 57
SWIDTH 639 0
DWIDTH 8 0
BBX 6 8 1 0
BITMAP
FC
04
04
FC
04
04
04
FC
ENDCHAR

STARTCHAR logicalnot
ENCODING 58
SWIDTH 833 0
DWIDTH 10 0
BBX 7 3 2 2
BITMAP
FE
02
02
ENDCHAR

STARTCHAR emptyset
ENCODING 59
SWIDTH 500 0
DWIDTH 6 0
BBX 6 10 0 -1
BITMAP
04
34
48
94
94
A4
A4
48
B0
80
ENDCHAR

STARTCHAR Rfraktur
ENCODING 60
SWIDTH 794 0
DWIDTH 9 0
BBX 9 9 0 -1
BITMAP
2E00
5500
4880
2880
AF00
4900
0900
2900
1080
ENDCHAR

STARTCHAR Ifraktur
ENCODING 61
SWIDTH 699 0
DWIDTH 9 0
BBX 7 10 1 -1
BITMAP
20
52
8C
48
08
04
02
42
A4
18
ENDCHAR

STARTCHAR latticetop
ENCODING 62
SWIDTH 778 0
DWIDTH 10 0
BBX 9 9 1 0
BITMAP
FF80
0800
0800
0800
0800
0800
0800
0800
0800
ENDCHAR

STARTCHAR latticebot
ENCODING 63
SWIDTH 778 0
DWIDTH 10 0
BBX 9 9 1 0
BITMAP
0800
0800
0800
0800
0800
0800
0800
0800
FF80
ENDCHAR

STARTCHAR aleph
ENCODING 64
SWIDTH 602 0
DWIDTH 7 0
BBX 6 8 1 0
BITMAP
88
CC
48
70
B0
98
CC
84
ENDCHAR

STARTCHAR Acursive
ENCODING 65
SWIDTH 630 0
DWIDTH 8 0
BBX 9 10 -2 -1
BITMAP
0100
0100
0300
0500
0500
1F80
4900
9180
A100
C000
ENDCHAR

STARTCHAR Bcursive
ENCODING 66
SWIDTH 613 0
DWIDTH 8 0
BBX 8 9 0 0
BITMAP
32
57
19
22
2C
42
42
94
98
ENDCHAR

STARTCHAR Ccursive
ENCODING 67
SWIDTH 546 0
DWIDTH 7 0
BBX 8 9 0 0
BITMAP
07
19
22
44
58
80
84
C8
70
ENDCHAR

STARTCHAR Dcursive
ENCODING 68
SWIDTH 722 0
DWIDTH 9 0
BBX 9 9 0 0
BITMAP
3F00
4980
9080
9080
2080
2100
4100
E600
B800
ENDCHAR

STARTCHAR Ecursive
ENCODING 69
SWIDTH 535 0
DWIDTH 7 0
BBX 7 9 0 0
BITMAP
0C
12
24
10
38
40
84
C8
70
ENDCHAR

STARTCHAR Fcursive
ENCODING 70
SWIDTH 558 0
DWIDTH 7 0
BBX 8 9 0 0
BITMAP
38
47
44
04
38
08
50
90
60
ENDCHAR

STARTCHAR Gcursive
ENCODING 71
SWIDTH 595 0
DWIDTH 7 0
BBX 8 12 0 -3
BITMAP
07
19
22
40
4E
84
84
C8
78
10
50
20
ENDCHAR

STARTCHAR Hcursive
ENCODING 72
SWIDTH 722 0
DWIDTH 9 0
BBX 12 9 -3 0
BITMAP
0630
0220
0420
0440
07E0
0880
0880
1080
E0C0
ENDCHAR

STARTCHAR Icursive
ENCODING 73
SWIDTH 431 0
DWIDTH 5 0
BBX 6 9 -1 0
BITMAP
1C
28
08
10
10
10
20
A0
C0
ENDCHAR

STARTCHAR Jcursive
ENCODING 74
SWIDTH 475 0
DWIDTH 6 0
BBX 7 10 -1 -1
BITMAP
1E
24
24
28
08
08
50
90
A0
C0
ENDCHAR

STARTCHAR Kcursive
ENCODING 75
SWIDTH 676 0
DWIDTH 8 0
BBX 9 9 0 0
BITMAP
3080
1100
1200
2400
2800
3000
4800
4A00
8400
ENDCHAR

STARTCHAR Lcursive
ENCODING 76
SWIDTH 602 0
DWIDTH 7 0
BBX 8 10 -1 -1
BITMAP
06
09
12
10
10
20
20
42
A4
18
ENDCHAR

STARTCHAR Mcursive
ENCODING 77
SWIDTH 896 0
DWIDTH 11 0
BBX 13 10 -3 -1
BITMAP
0608
0208
0210
0230
0550
0550
4990
9110
A118
C000
ENDCHAR

STARTCHAR Ncursive
ENCODING 78
SWIDTH 722 0
DWIDTH 9 0
BBX 12 10 -3 -1
BITMAP
0620
0A50
0210
0510
0520
0920
48C0
9080
A080
C000
ENDCHAR

STARTCHAR Ocursive
ENCODING 79
SWIDTH 671 0
DWIDTH 8 0
BBX 8 9 0 0
BITMAP
0E
2B
51
41
81
82
82
CC
70
ENDCHAR

STARTCHAR Pcursive
ENCODING 80
SWIDTH 593 0
DWIDTH 7 0
BBX 7 9 0 0
BITMAP
36
5A
12
22
2C
70
40
80
C0
ENDCHAR

STARTCHAR Qcursive
ENCODING 81
SWIDTH 676 0
DWIDTH 8 0
BBX 8 10 0 -1
BITMAP
0C
32
41
41
81
92
62
0C
F1
1E
ENDCHAR

STARTCHAR Rcursive
ENCODING 82
SWIDTH 662 0
DWIDTH 8 0
BBX 8 9 0 0
BITMAP
33
55
19
22
24
78
48
8A
84
ENDCHAR

STARTCHAR Scursive
ENCODING 83
SWIDTH 523 0
DWIDTH 7 0
BBX 7 9 0 0
BITMAP
0C
12
24
20
10
08
88
90
60
ENDCHAR

STARTCHAR Tcursive
ENCODING 84
SWIDTH 650 0
DWIDTH 8 0
BBX 7 9 1 0
BITMAP
76
98
10
20
20
40
44
48
30
ENDCHAR

STARTCHAR Ucursive
ENCODING 85
SWIDTH 699 0
DWIDTH 9 0
BBX 9 9 0 0
BITMAP
1180
7100
2200
2200
4200
4400
4C00
9400
E600
ENDCHAR

STARTCHAR Vcursive
ENCODING 86
SWIDTH 569 0
DWIDTH 7 0
BBX 7 9 0 0
BITMAP
42
C2
44
44
48
90
90
A0
C0
ENDCHAR

STARTCHAR Wcursive
ENCODING 87
SWIDTH 792 0
DWIDTH 10 0
BBX 10 9 0 0
BITMAP
4440
C440
4880
4880
4900
9100
9200
B400
D800
ENDCHAR

STARTCHAR Xcursive
ENCODING 88
SWIDTH 722 0
DWIDTH 9 0
BBX 9 9 -1 0
BITMAP
1080
2900
0900
0A00
0400
4C00
9480
A500
C600
ENDCHAR

STARTCHAR Ycursive
ENCODING 89
SWIDTH 625 0
DWIDTH 8 0
BBX 8 12 0 -3
BITMAP
21
61
22
22
24
44
48
58
70
10
A0
C0
ENDCHAR

STARTCHAR Zcursive
ENCODING 90
SWIDTH 588 0
DWIDTH 7 0
BBX 7 10 0 -1
BITMAP
3E
44
08
10
10
20
40
C2
A4
18
ENDCHAR

STARTCHAR union
ENCODING 91
SWIDTH 1000 0
DWIDTH 12 0
BBX 8 8 2 0
BITMAP
81
81
81
81
81
81
42
3C
ENDCHAR

STARTCHAR intersection
ENCODING 92
SWIDTH 1000 0
DWIDTH 12 0
BBX 8 8 2 0
BITMAP
3C
42
81
81
81
81
81
81
ENDCHAR

STARTCHAR unionmultiset
ENCODING 93
SWIDTH 1000 0
DWIDTH 12 0
BBX 8 8 2 0
BITMAP
81
81
89
9D
89
81
42
3C
ENDCHAR

STARTCHAR logicaland
ENCODING 94
SWIDTH 1000 0
DWIDTH 12 0
BBX 9 9 2 -1
BITMAP
0800
1400
1400
2200
2200
4100
4100
8080
8080
ENDCHAR

STARTCHAR logicalor
ENCODING 95
SWIDTH 1000 0
DWIDTH 12 0
BBX 9 9 2 -1
BITMAP
8080
8080
4100
4100
2200
2200
1400
1400
0800
ENDCHAR

STARTCHAR turnstileleft
ENCODING 96
SWIDTH 611 0
DWIDTH 8 0
BBX 7 9 1 0
BITMAP
80
80
80
80
FE
80
80
80
80
ENDCHAR

STARTCHAR turnstileright
ENCODING 97
SWIDTH 611 0
DWIDTH 8 0
BBX 7 9 1 0
BITMAP
02
02
02
02
FE
02
02
02
02
ENDCHAR

STARTCHAR bracketleftbt
ENCODING 98
SWIDTH 528 0
DWIDTH 7 0
BBX 3 12 3 -3
BITMAP
80
80
80
80
80
80
80
80
80
80
80
E0
ENDCHAR

STARTCHAR bracketrightbt
ENCODING 99
SWIDTH 528 0
DWIDTH 7 0
BBX 3 12 1 -3
BITMAP
20
20
20
20
20
20
20
20
20
20
20
E0
ENDCHAR

STARTCHAR bracketlefttp
ENCODING 100
SWIDTH 528 0
DWIDTH 7 0
BBX 3 12 3 -3
BITMAP
E0
80
80
80
80
80
80
80
80
80
80
80
ENDCHAR

STARTCHAR bracketrighttp
ENCODING 101
SWIDTH 528 0
DWIDTH 7 0
BBX 3 12 1 -3
BITMAP
E0
20
20
20
20
20
20
20
20
20
20
20
ENDCHAR

STARTCHAR braceleft
ENCODING 102
SWIDTH 500 0
DWIDTH 6 0
BBX 4 12 1 -3
BITMAP
10
20
20
20
60
80
60
20
20
20
20
10
ENDCHAR

STARTCHAR braceright
ENCODING 103
SWIDTH 500 0
DWIDTH 6 0
BBX 4 12 1 -3
BITMAP
80
40
40
40
60
10
60
40
40
40
40
80
ENDCHAR

STARTCHAR angleleft
ENCODING 104
SWIDTH 333 0
DWIDTH 4 0
BBX 3 13 1 -3
BITMAP
20
20
40
40
40
80
80
80
40
40
40
20
20
ENDCHAR

STARTCHAR angleright
ENCODING 105
SWIDTH 333 0
DWIDTH 4 0
BBX 3 13 1 -3
BITMAP
80
80
40
40
40
20
20
20
40
40
40
80
80
ENDCHAR

STARTCHAR bar
ENCODING 106
SWIDTH 602 0
DWIDTH 7 0
BBX 1 12 3 -3
BITMAP
80
80
80
80
80
80
80
80
80
80
80
80
ENDCHAR

STARTCHAR bardbl
ENCODING 107
SWIDTH 1000 0
DWIDTH 12 0
BBX 3 12 5 -3
BITMAP
A0
A0
A0
A0
A0
A0
A0
A0
A0
A0
A0
A0
ENDCHAR

STARTCHAR arrowupdown
ENCODING 108
SWIDTH 500 0
DWIDTH 6 0
BBX 5 12 1 -3
BITMAP
20
70
A8
A8
20
20
20
20
A8
A8
70
20
ENDCHAR

STARTCHAR arrowdblupdown
ENCODING 109
SWIDTH 500 0
DWIDTH 6 0
BBX 5 12 1 -3
BITMAP
20
50
D8
50
50
50
50
50
50
D8
50
20
ENDCHAR

STARTCHAR backslash
ENCODING 110
SWIDTH 500 0
DWIDTH 6 0
BBX 5 12 1 -3
BITMAP
80
80
40
40
40
20
20
10
10
10
08
08
ENDCHAR

STARTCHAR wreathproduct
ENCODING 111
SWIDTH 278 0
DWIDTH 3 0
BBX 3 7 0 -1
BITMAP
C0
20
20
40
80
80
60
ENDCHAR

STARTCHAR radical
ENCODING 112
SWIDTH 1000 0
DWIDTH 12 0
BBX 12 12 0 -12
BITMAP
0010
0020
0020
0040
0040
0080
2080
5100
9100
0A00
0A00
0400
ENDCHAR

STARTCHAR coproduct
ENCODING 113
SWIDTH 768 0
DWIDTH 10 0
BBX 9 8 1 0
BITMAP
F780
4100
4100
4100
4100
4100
4100
FF80
ENDCHAR

STARTCHAR gradient
ENCODING 114
SWIDTH 713 0
DWIDTH 9 0
BBX 9 8 0 0
BITMAP
FF80
4100
4100
2200
2200
1400
1400
0800
ENDCHAR

STARTCHAR integral
ENCODING 115
SWIDTH 274 0
DWIDTH 3 0
BBX 5 11 -1 -2
BITMAP
18
20
20
20
20
20
20
20
20
20
C0
ENDCHAR

STARTCHAR unionsqr
ENCODING 116
SWIDTH 1000 0
DWIDTH 12 0
BBX 8 8 2 0
BITMAP
81
81
81
81
81
81
81
FF
ENDCHAR

STARTCHAR intersectsqr
ENCODING 117
SWIDTH 1000 0
DWIDTH 12 0
BBX 8 8 2 0
BITMAP
FF
81
81
81
81
81
81
81
ENDCHAR

STARTCHAR reflsubsetsq
ENCODING 118
SWIDTH 1000 0
DWIDTH 12 0
BBX 8 10 2 -2
BITMAP
FF
80
80
80
80
80
80
FF
00
FF
ENDCHAR

STARTCHAR reflsupersetsq
ENCODING 119
SWIDTH 1000 0
DWIDTH 12 0
BBX 8 10 2 -2
BITMAP
FF
01
01
01
01
01
01
FF
00
FF
ENDCHAR

STARTCHAR section
ENCODING 120
SWIDTH 500 0
DWIDTH 6 0
BBX 4 10 1 -1
BITMAP
60
90
80
60
90
90
60
10
90
60
ENDCHAR

STARTCHAR dagger
ENCODING 121
SWIDTH 500 0
DWIDTH 6 0
BBX 5 10 1 -1
BITMAP
20
20
F8
20
20
20
20
20
20
20
ENDCHAR

STARTCHAR daggerdbl
ENCODING 122
SWIDTH 500 0
DWIDTH 6 0
BBX 5 10 1 -1
BITMAP
20
20
F8
20
20
20
20
F8
20
20
ENDCHAR

STARTCHAR paragraph
ENCODING 123
SWIDTH 500 0
DWIDTH 6 0
BBX 6 9 0 -1
BITMAP
7C
E8
E8
68
28
28
28
28
28
ENDCHAR

STARTCHAR clubsuit
ENCODING 124
SWIDTH 1150 0
DWIDTH 14 0
BBX 11 11 2 -2
BITMAP
0E00
1F00
1F00
0E00
6EC0
F5E0
FFE0
F5E0
64C0
0400
1F00
ENDCHAR

STARTCHAR diamondsuit
ENCODING 125
SWIDTH 1148 0
DWIDTH 14 0
BBX 11 12 2 -2
BITMAP
0400
0A00
1100
2080
4040
8020
8020
4040
2080
1100
0A00
0400
ENDCHAR

STARTCHAR heartsuit
ENCODING 126
SWIDTH 1147 0
DWIDTH 14 0
BBX 13 11 1 -2
BITMAP
38E0
4510
8208
8008
8008
4010
2020
1040
0880
0500
0200
ENDCHAR

STARTCHAR spadesuit
ENCODING 127
SWIDTH 1148 0
DWIDTH 14 0
BBX 11 11 2 -2
BITMAP
0400
0E00
1F00
3F80
7FC0
FFE0
FFE0
FFE0
75C0
0400
1F00
ENDCHAR

STARTCHAR minus
ENCODING 160
SWIDTH 833 0
DWIDTH 10 0
BBX 7 1 2 3
BITMAP
FE
ENDCHAR

STARTCHAR dotmath
ENCODING 161
SWIDTH 572 0
DWIDTH 7 0
BBX 2 2 3 3
BITMAP
C0
C0
ENDCHAR

STARTCHAR multiply
ENCODING 162
SWIDTH 833 0
DWIDTH 10 0
BBX 7 7 2 0
BITMAP
82
44
28
10
28
44
82
ENDCHAR

STARTCHAR asteriskmath
ENCODING 163
SWIDTH 1000 0
DWIDTH 12 0
BBX 5 5 4 1
BITMAP
20
A8
70
A8
20
ENDCHAR

STARTCHAR divide
ENCODING 164
SWIDTH 833 0
DWIDTH 10 0
BBX 7 5 2 1
BITMAP
10
00
FE
00
10
ENDCHAR

STARTCHAR diamondop
ENCODING 165
SWIDTH 500 0
DWIDTH 6 0
BBX 5 6 0 0
BITMAP
20
50
88
88
50
20
ENDCHAR

STARTCHAR plusminus
ENCODING 166
SWIDTH 833 0
DWIDTH 10 0
BBX 7 8 2 0
BITMAP
10
10
10
FE
10
10
10
FE
ENDCHAR

STARTCHAR minusplus
ENCODING 167
SWIDTH 833 0
DWIDTH 10 0
BBX 7 8 2 0
BITMAP
FE
10
10
10
FE
10
10
10
ENDCHAR

STARTCHAR circleplus
ENCODING 168
SWIDTH 1000 0
DWIDTH 12 0
BBX 9 9 2 -1
BITMAP
3E00
4900
8880
8880
FF80
8880
8880
4900
3E00
ENDCHAR

STARTCHAR circleminus
ENCODING 169
SWIDTH 1000 0
DWIDTH 12 0
BBX 9 9 2 -1
BITMAP
3E00
4100
8080
8080
FF80
8080
8080
4100
3E00
ENDCHAR

STARTCHAR circlemultiply
ENCODING 170
SWIDTH 1000 0
DWIDTH 12 0
BBX 9 9 2 -1
BITMAP
3E00
4100
A280
9480
8880
9480
A280
4100
3E00
ENDCHAR

STARTCHAR circledivide
ENCODING 171
SWIDTH 1000 0
DWIDTH 12 0
BBX 9 9 2 -1
BITMAP
3E00
4100
8280
8480
8880
9080
A080
4100
3E00
ENDCHAR

STARTCHAR circledot
ENCODING 172
SWIDTH 1000 0
DWIDTH 12 0
BBX 9 9 2 -1
BITMAP
3E00
4100
8080
8080
8880
8080
8080
4100
3E00
ENDCHAR

STARTCHAR overlaycircle
ENCODING 173
SWIDTH 1000 0
DWIDTH 12 0
BBX 12 12 0 -3
BITMAP
0F00
30C0
4020
4020
8010
8010
8010
8010
4020
4020
30C0
0F00
ENDCHAR

STARTCHAR circleop
ENCODING 174
SWIDTH 500 0
DWIDTH 6 0
BBX 5 5 1 1
BITMAP
70
88
88
88
70
ENDCHAR

STARTCHAR bullet
ENCODING 175
SWIDTH 500 0
DWIDTH 6 0
BBX 5 5 1 1
BITMAP
70
F8
F8
F8
70
ENDCHAR

STARTCHAR hardyequiv
ENCODING 176
SWIDTH 1000 0
DWIDTH 12 0
BBX 7 5 3 1
BITMAP
82
7C
00
7C
82
ENDCHAR

STARTCHAR equivalence
ENCODING 177
SWIDTH 1000 0
DWIDTH 12 0
BBX 7 5 3 1
BITMAP
FE
00
FE
00
FE
ENDCHAR

STARTCHAR reflexsubset
ENCODING 178
SWIDTH 1000 0
DWIDTH 12 0
BBX 8 10 2 -2
BITMAP
3F
40
80
80
80
80
40
3F
00
FF
ENDCHAR

STARTCHAR reflexsuperset
ENCODING 179
SWIDTH 1000 0
DWIDTH 12 0
BBX 8 10 2 -2
BITMAP
FC
02
01
01
01
01
02
FC
00
FF
ENDCHAR

STARTCHAR lessequal
ENCODING 180
SWIDTH 1000 0
DWIDTH 12 0
BBX 7 7 3 0
BITMAP
06
38
C0
38
06
00
FE
ENDCHAR

STARTCHAR greaterequal
ENCODING 181
SWIDTH 1000 0
DWIDTH 12 0
BBX 7 7 3 0
BITMAP
C0
38
06
38
C0
00
FE
ENDCHAR

STARTCHAR precedesequal
ENCODING 182
SWIDTH 1000 0
DWIDTH 12 0
BBX 7 8 3 0
BITMAP
02
04
18
E0
18
04
02
FE
ENDCHAR

STARTCHAR followsequal
ENCODING 183
SWIDTH 1000 0
DWIDTH 12 0
BBX 7 8 3 0
BITMAP
80
40
30
0E
30
40
80
FE
ENDCHAR

STARTCHAR similar
ENCODING 184
SWIDTH 1000 0
DWIDTH 12 0
BBX 8 2 2 3
BITMAP
71
8E
ENDCHAR

STARTCHAR approxequal
ENCODING 185
SWIDTH 1000 0
DWIDTH 12 0
BBX 8 5 2 1
BITMAP
71
8E
00
71
8E
ENDCHAR

STARTCHAR propersubset
ENCODING 186
SWIDTH 1000 0
DWIDTH 12 0
BBX 8 8 2 0
BITMAP
3F
40
80
80
80
80
40
3F
ENDCHAR

STARTCHAR propersuperset
ENCODING 187
SWIDTH 1000 0
DWIDTH 12 0
BBX 8 8 2 0
BITMAP
FC
02
01
01
01
01
02
FC
ENDCHAR

STARTCHAR muchless
ENCODING 188
SWIDTH 1000 0
DWIDTH 12 0
BBX 10 7 1 0
BITMAP
0440
1980
2200
CC00
2200
1980
0440
ENDCHAR

STARTCHAR muchgreater
ENCODING 189
SWIDTH 1000 0
DWIDTH 12 0
BBX 10 7 1 0
BITMAP
8800
6600
1100
0CC0
1100
6600
8800
ENDCHAR

STARTCHAR precedes
ENCODING 190
SWIDTH 1000 0
DWIDTH 12 0
BBX 7 7 3 0
BITMAP
02
04
18
E0
18
04
02
ENDCHAR

STARTCHAR follows
ENCODING 191
SWIDTH 1000 0
DWIDTH 12 0
BBX 7 7 3 0
BITMAP
80
40
30
0E
30
40
80
ENDCHAR

ENDFONT
