STARTFONT 2.1
FONT -DEC-Present Bullets-Medium-R-Normal--36-360-75-75-P-343-DEC-FontSpecific
SIZE 36 75 75
FONTBOUNDINGBOX 47 32 0 -3

STARTPROPERTIES 22
CHARSET_REGISTRY "DEC"
CHARSET_ENCODING "FontSpecific"
AVERAGE_WIDTH 343
FAMILY_NAME "Present Bullets"
FOUNDRY "DEC"
WEIGHT_NAME "Medium"
SLANT "R"
SETWIDTH_NAME "Normal"
ADD_STYLE_NAME ""
PIXEL_SIZE 36
POINT_SIZE 360
RESOLUTION_X 75
RESOLUTION_Y 75
SPACING "P"
FULL_NAME "Present Bullets"
COPYRIGHT "Copyright 1990, 1991, Digital Equipment Corporation  Created by Loree Nelson, The Artis Consultancy"
WEIGHT 10
X_HEIGHT 26
QUAD_WIDTH 31
DEFAULT_CHAR 32
FONT_DESCENT 4
FONT_ASCENT 31
ENDPROPERTIES

CHARS 59

STARTCHAR space
ENCODING 32
SWIDTH 250 0
DWIDTH 9 0
BBX 0 0 0 0
BITMAP
ENDCHAR

STARTCHAR A
ENCODING 65
SWIDTH 704 0
DWIDTH 25 0
BBX 18 24 0 4
BITMAP
000180
000180
000380
000780
0007C0
000F80
000F00
FFF3C0
801E40
801C40
801C40
803840
843840
867040
866040
8F6040
8FE040
87C040
87C040
83C040
818040
818040
800040
FFFFC0
ENDCHAR

STARTCHAR B
ENCODING 66
SWIDTH 616 0
DWIDTH 22 0
BBX 16 28 2 0
BITMAP
0002
0007
000F
000F
001F
001F
003F
003F
003E
007C
0078
00F8
00F0
00E0
01E0
C1C0
41C0
6380
6380
F300
F700
FF00
7E00
3E00
3E00
1C00
1C00
0C00
ENDCHAR

STARTCHAR C
ENCODING 67
SWIDTH 740 0
DWIDTH 27 0
BBX 18 24 1 2
BITMAP
800000
C00000
F00000
780000
1E0000
0F8000
03C000
00F000
007C00
001E00
000780
0003C0
000780
001E00
003C00
00F000
01E000
078000
0F0000
3C0000
780000
E00000
C00000
800000
ENDCHAR

STARTCHAR D
ENCODING 68
SWIDTH 953 0
DWIDTH 34 0
BBX 31 29 2 0
BITMAP
00010000
00010000
00038000
00028000
0006C000
00044000
000C6000
00082000
00183000
00101000
FFF01FFE
6000000C
30000018
18000030
060000C0
03000180
01800300
00C00600
00400600
00800200
00800200
01800300
01038100
010EE100
03383980
02E00E80
03800380
070001C0
04000040
ENDCHAR

STARTCHAR E
ENCODING 69
SWIDTH 1048 0
DWIDTH 38 0
BBX 31 29 2 0
BITMAP
00010000
00010000
00038000
00038000
0007C000
0007C000
000FC000
000FE000
000FE000
001FF000
FFFFFFFE
7FFFFFFC
3FFFFFF8
1FFFFFF0
0FFFFFE0
03FFFFC0
01FFFF00
00FFFE00
007FFE00
00FFFE00
00FFFE00
01FFFF00
01FFFF00
01FEFF00
03F83F80
03E00F80
03800380
070000C0
04000020
ENDCHAR

STARTCHAR F
ENCODING 70
SWIDTH 732 0
DWIDTH 26 0
BBX 21 29 0 0
BITMAP
001000
001000
001800
001800
001C00
001E00
001F00
001F00
FFFF80
FFFFC0
FFFFC0
FFFFE0
FFFFF0
FFFFF8
FFFFF8
FFFFF8
FFFFF0
FFFFE0
FFFFE0
FFFFC0
FFFF80
FFFF00
001F00
001E00
001C00
001C00
001800
001000
001000
ENDCHAR

STARTCHAR G
ENCODING 71
SWIDTH 732 0
DWIDTH 26 0
BBX 21 29 0 0
BITMAP
001000
001000
001800
001400
001200
001200
001100
001080
FFF080
800040
800040
800020
800010
800010
800008
800018
800030
800060
800060
8000C0
FFF180
FFF300
001300
001600
001C00
001C00
001800
001000
001000
ENDCHAR

STARTCHAR H
ENCODING 72
SWIDTH 1000 0
DWIDTH 36 0
BBX 37 5 0 1
BITMAP
00007FFFF8
00007FFFF8
0000000000
FFFFFFFFF8
FFFFFFFFF8
ENDCHAR

STARTCHAR I
ENCODING 73
SWIDTH 787 0
DWIDTH 28 0
BBX 19 27 1 0
BITMAP
F00000
FE0000
FF8000
FFC000
FFF000
1FF800
0FFC00
03FC00
00FE00
007F00
003F80
003F80
001FC0
000FC0
000FC0
000FE0
0007E0
0007E0
0007E0
0007E0
0007E0
0007E0
0007E0
0007E0
0007E0
0007E0
000FC0
ENDCHAR

STARTCHAR J
ENCODING 74
SWIDTH 756 0
DWIDTH 27 0
BBX 17 28 2 -3
BITMAP
C00000
E00000
F00180
780380
380780
1C0F00
1C1E00
0E1E00
073C00
073800
03F000
03F000
01E000
01E000
03E000
07F000
077000
0E3800
0E3800
1C1C00
3C1C00
381E00
780E00
F00E00
600700
000700
000700
000300
ENDCHAR

STARTCHAR K
ENCODING 75
SWIDTH 935 0
DWIDTH 34 0
BBX 24 29 2 0
BITMAP
F8001F
7C003E
7C003C
3E0078
1E00F8
1F00F0
0F81E0
0783E0
03C7C0
03E780
01EF80
00FF00
00FE00
007C00
007C00
007E00
00FE00
01FF00
01EF80
03E7C0
07C3C0
0783E0
0F81F0
1F00F0
1E00F8
3E007C
7C003E
7C003E
F8001F
ENDCHAR

STARTCHAR L
ENCODING 76
SWIDTH 1000 0
DWIDTH 36 0
BBX 32 24 1 2
BITMAP
0C000000
37800000
66400000
4E700000
9C680000
B8C40000
F0C30000
43E08000
25106000
1E081000
0C060C00
02010200
0180C180
00402040
00301820
00080410
00060308
00010094
0000C064
000020E2
000018C2
00000582
000003C3
0000003F
ENDCHAR

STARTCHAR M
ENCODING 77
SWIDTH 1440 0
DWIDTH 52 0
BBX 46 21 0 -1
BITMAP
000FFFFFE000
007FFFFFF800
00FFFFFFFC00
03FFFFFFFF00
07FFFFFFFF80
1FC000000FE0
3FDFFFFFEFF0
FFDFFFFFEFFC
FFDFC00FEFFC
FFDF0003EFFC
FFBE0001F7FC
FF7E0001FBFC
7EFF0003FDF8
3DFF0003FEF0
1BFFC007FF60
07FFF01FFF80
0FFFFFFFFFC0
0FFFFFFFFFC0
0FFFFFFFFFC0
0FFFFFFFFFC0
0FFFFFFFFFC0
ENDCHAR

STARTCHAR N
ENCODING 78
SWIDTH 1292 0
DWIDTH 47 0
BBX 35 23 1 0
BITMAP
007FFF8000
3FFFFFFF00
7FFFFFFF80
FFF7FFFFC0
FE30019FE0
FEFFFFDFE0
FEFFFFFFE0
FFFFFFFFE0
FFE110F7E0
E3FFFFF8C0
07FFFFFC00
07FFFFFC00
0F80003E00
1FFFFFFF00
1FFFFFFF80
1000000080
1FFFFFFF00
1FFFFFFF00
1FFFFFFF00
1FFFFFFF00
1FFFFFFF00
1FFFFFFF00
1F1FFFC700
ENDCHAR

STARTCHAR O
ENCODING 79
SWIDTH 1488 0
DWIDTH 54 0
BBX 47 21 0 2
BITMAP
00001FFFFFFE
00FFE0000034
0F500000001C
0850000007E0
109000007800
109000038000
109000060000
209001390000
209000C90000
20A000448000
213E00448000
412500688000
412480190000
412870060000
81280E030000
812801810000
923000678000
AA2000188000
52C000068000
4F0000018000
700000000000
ENDCHAR

STARTCHAR P
ENCODING 80
SWIDTH 1292 0
DWIDTH 47 0
BBX 35 15 1 4
BITMAP
000FFFC000
00F0183FC0
0300040020
F400030040
980040FFC0
9801A08000
98021F8000
980C204000
9FF0C02000
98003FC000
9800E0C000
9800408000
98003F0000
F700618000
00FFFF0000
ENDCHAR

STARTCHAR Q
ENCODING 81
SWIDTH 844 0
DWIDTH 30 0
BBX 22 23 1 3
BITMAP
070000
078000
078000
03C000
03C000
03E000
01E000
01F000
81F000
C0F800
C0FC00
FFFFFC
FFFFFC
FFFFFC
C0F800
C0F800
01F000
01F000
01E000
03C000
03C000
078000
070000
ENDCHAR

STARTCHAR R
ENCODING 82
SWIDTH 1195 0
DWIDTH 43 0
BBX 26 23 1 0
BITMAP
07FFF800
0FFFFC00
1C000E00
18000600
18000600
38000700
30000300
3FFFFF80
7FFFFFC0
FFFFFFC0
E3FFF1C0
E3FFF1C0
E3FFF1C0
FFFFFFC0
FFFFFFC0
FFFFFFC0
FFFFFFC0
FFFFFFC0
38000700
38000700
38000700
38000700
18000300
ENDCHAR

STARTCHAR S
ENCODING 83
SWIDTH 1376 0
DWIDTH 50 0
BBX 45 21 0 1
BITMAP
FFFFFFFFFFF0
C00000000030
B000000000D0
8C0000000110
820000000610
818000001810
806000002010
80100000C010
800C00010010
800300060010
8004F03A0010
80080FC10010
80100000C010
802000002010
804000001010
818000000C10
820000000210
840000000190
880000000050
900000000030
FFFFFFFFFFF8
ENDCHAR

STARTCHAR T
ENCODING 84
SWIDTH 1098 0
DWIDTH 40 0
BBX 28 30 2 -1
BITMAP
02000400
42000420
22000440
12000480
08000100
03E07C00
F7F07EF0
07EFBE00
0FBFDE00
0E78E600
09E21800
03C70C00
07870600
07870600
0F020300
0F020300
0F020300
0F020300
0F030600
0701C600
0780EE00
03806C00
01C01800
01F07000
00FFF000
00FFF000
00E03E00
01E01E00
03C00E00
01800000
ENDCHAR

STARTCHAR U
ENCODING 85
SWIDTH 992 0
DWIDTH 36 0
BBX 27 29 2 0
BITMAP
00020000
00020000
00020000
00020000
0C000380
02000400
011F8800
0070E000
00C03000
01801800
01000800
02000400
FA1F85E0
0230C400
02198400
02090400
01090800
01090800
00C93000
00294000
00294000
00294000
00294000
00294000
003FC000
00204000
001F8000
00000000
000F0000
ENDCHAR

STARTCHAR V
ENCODING 86
SWIDTH 1175 0
DWIDTH 42 0
BBX 32 28 0 0
BITMAP
1FFFFE00
1FFFFE00
18000600
18000600
18000600
18000600
18000600
18000600
18000600
18000600
18000600
18000600
18000600
18000600
1FFFFE00
1FFFFE00
01FFE000
00000000
1FFFFFFC
1FFFFE02
1FFFFE02
1FFFFE3C
00000040
1FFFFE60
2000E110
2000F100
6000F19F
FFFFFF9F
ENDCHAR

STARTCHAR W
ENCODING 87
SWIDTH 790 0
DWIDTH 28 0
BBX 21 24 1 0
BITMAP
006000
019C00
0E0300
3000C0
C00030
E00038
9800C8
870308
80CC08
803008
801008
801008
801008
801008
801008
801008
801008
801008
C01018
301060
0C10C0
031300
00DC00
003000
ENDCHAR

STARTCHAR X
ENCODING 88
SWIDTH 860 0
DWIDTH 31 0
BBX 21 24 1 0
BITMAP
FFFFF8
FFFFF8
FFEFF8
FFEFF8
FFE7F8
FFE3F8
0001F8
0000F8
0000F8
000078
000038
000018
000038
000038
000078
0000F8
0001F8
0001F8
FFE3F8
FFE7F8
FFE7F8
FFEFF8
FFFFF8
FFFFF8
ENDCHAR

STARTCHAR Y
ENCODING 89
SWIDTH 804 0
DWIDTH 29 0
BBX 22 27 1 0
BITMAP
001000
001000
001C00
001400
001200
001900
001C80
001E80
FFFA40
FFF920
C00090
C00050
C00048
C00024
C00068
C000C8
C00090
FFF920
FFFA40
001E80
001880
001900
001200
001400
001800
001000
001000
ENDCHAR

STARTCHAR Z
ENCODING 90
SWIDTH 1220 0
DWIDTH 44 0
BBX 32 24 1 0
BITMAP
C0000000
70000000
2E000000
11C00000
08100000
04020000
02004000
01000800
00800100
00400020
00200004
003FFFFF
001FFFFF
003FFFF8
007FFFE0
00FFFF00
01FFF800
03FFC000
07FE0000
0FF80000
1FC00000
3E000000
70000000
80000000
ENDCHAR

STARTCHAR bracketleft
ENCODING 91
SWIDTH 1260 0
DWIDTH 45 0
BBX 34 14 1 4
BITMAP
0000100000
00000C0000
0000070000
000003E000
000001F800
000000FE00
FFFFFFFF80
FFFFFFFFC0
000000FE00
000001F800
000003E000
0000078000
00000E0000
0000080000
ENDCHAR

STARTCHAR backslash
ENCODING 92
SWIDTH 915 0
DWIDTH 33 0
BBX 24 23 1 1
BITMAP
005A00
003C00
061860
165A78
0EFFF0
3EBD7C
3FFFFC
03FFC0
0FBDB0
9BFFFB
4FFFF6
FFFFFF
FFFFFF
67BDE6
DDFFFB
0FFFF0
0D7FB0
3EFFFC
0EDBF8
1EDBF8
061860
043C60
005A00
ENDCHAR

STARTCHAR bracketright
ENCODING 93
SWIDTH 1292 0
DWIDTH 47 0
BBX 36 14 0 5
BITMAP
000FFFFFE0
007FFFFFF0
01FFFFFFF0
E3FFFFFFE0
E7FF7F0000
E7FDDF8000
E7FFBFC000
E7FBEBC000
E6AFDFC000
E7FFEBC000
E7FFDFC000
E7FFEB0000
E3FFFF0000
007F800000
ENDCHAR

STARTCHAR asciicircum
ENCODING 94
SWIDTH 940 0
DWIDTH 34 0
BBX 18 1 8 10
BITMAP
FFFFC0
ENDCHAR

STARTCHAR underscore
ENCODING 95
SWIDTH 1164 0
DWIDTH 42 0
BBX 32 1 5 10
BITMAP
FFFFFFFF
ENDCHAR

STARTCHAR grave
ENCODING 96
SWIDTH 720 0
DWIDTH 26 0
BBX 19 18 0 4
BITMAP
03F000
040C00
180300
100100
200080
400040
400040
800020
800020
800020
800020
800020
400040
400040
200080
100100
0C0600
03F800
ENDCHAR

STARTCHAR a
ENCODING 97
SWIDTH 720 0
DWIDTH 26 0
BBX 17 17 3 5
BITMAP
03E000
0FF800
3FFE00
7FFE00
7FFF00
FFFF80
FFFF80
FFFF80
FFFF80
FFFF80
FFFF80
FFFF80
7FFF00
7FFF00
3FFE00
1FFC00
07F000
ENDCHAR

STARTCHAR b
ENCODING 98
SWIDTH 1272 0
DWIDTH 46 0
BBX 38 16 2 4
BITMAP
0000000F80
0000003FE0
0000007FF0
000780FFF8
381FE0FFFC
7C1FE1FFFC
FE3FF1FFFC
FE3FF1FFFC
FE3FF1FFFC
7C3FF1FFFC
381FE1FFFC
001FE1FFFC
000780FFF8
0000007FF0
0000003FE0
0000001F80
ENDCHAR

STARTCHAR c
ENCODING 99
SWIDTH 556 0
DWIDTH 20 0
BBX 12 26 0 0
BITMAP
C000
F800
FE00
FF00
FF80
FFC0
FFC0
FFE0
FFE0
FFF0
FFF0
FFF0
FFF0
FFF0
FFF0
FFF0
FFF0
FFE0
FFE0
FFC0
FFC0
FF80
FF00
FE00
F800
E000
ENDCHAR

STARTCHAR d
ENCODING 100
SWIDTH 616 0
DWIDTH 22 0
BBX 14 29 2 0
BITMAP
8000
3000
0C00
0300
0180
00C0
0060
0030
0038
0018
001C
001C
001C
001C
001C
003C
003C
007C
007C
00F8
01F8
07F0
0FF0
7FE0
7FC0
7F80
7F00
7C00
7000
ENDCHAR

STARTCHAR e
ENCODING 101
SWIDTH 956 0
DWIDTH 34 0
BBX 28 27 1 0
BITMAP
000C0000
00030000
0000C000
00006000
00001800
00000600
00000180
00000060
00000010
00000060
000000C0
00000380
00000780
00001F00
00003E00
0000FC00
0001F800
0003F000
000FE000
001FC000
007F8000
00FF0000
03FF0000
07FE0000
1FFC0000
3FF80000
FFF00000
ENDCHAR

STARTCHAR f
ENCODING 102
SWIDTH 932 0
DWIDTH 34 0
BBX 27 27 2 0
BITMAP
000C0000
000C0000
000E0000
001E0000
001F0000
003F0000
003D8000
007D8000
007CC000
00F8C000
00F86000
01F86000
01F03000
03F03000
03F01800
07E01800
07E00C00
0FE00C00
0FC00600
1FC00700
1FC00300
3FC00380
3F800180
7F8001C0
7F8000C0
FF0000E0
FFFFFFE0
ENDCHAR

STARTCHAR g
ENCODING 103
SWIDTH 956 0
DWIDTH 34 0
BBX 29 19 3 4
BITMAP
00020000
00070000
000F8000
001FC000
001FC000
003FE000
007FF000
00FFF800
00FFF800
01FFFC00
03FFFE00
07FFFF00
07FFFF00
0FFFFF80
1FFFFFC0
3FFFFFE0
3FFFFFE0
7FFFFFF0
FFFFFFF8
ENDCHAR

STARTCHAR h
ENCODING 104
SWIDTH 620 0
DWIDTH 22 0
BBX 17 24 2 2
BITMAP
00C000
01C000
03E000
03F000
07F800
0FF800
1FFC00
1FFE00
3FFE00
7FFF00
FFFF80
FFFF80
7FFF80
7FFF00
3FFE00
1FFE00
1FFC00
0FF800
07F800
07F000
03F000
01E000
01C000
00C000
ENDCHAR

STARTCHAR i
ENCODING 105
SWIDTH 620 0
DWIDTH 22 0
BBX 17 24 2 2
BITMAP
00C000
01C000
03E000
03B000
07B800
0F1800
1F0C00
1E0600
3E0600
7C0300
FC0180
FC0180
7C0180
7C0300
3E0600
1E0600
1F0C00
0F1800
071800
07B000
03B000
01E000
01C000
00C000
ENDCHAR

STARTCHAR j
ENCODING 106
SWIDTH 1023 0
DWIDTH 37 0
BBX 33 19 2 5
BITMAP
0001C00000
0007F00000
000FF80000
003FFE0000
00FFFF8000
03FFFFC000
07FFFFF000
1FFFFFFC00
7FFFFFFE00
FFFFFFFF80
3FFFFFFF00
1FFFFFFC00
07FFFFF800
01FFFFE000
00FFFF8000
003FFE0000
000FF80000
0007F00000
0001C00000
ENDCHAR

STARTCHAR k
ENCODING 107
SWIDTH 930 0
DWIDTH 33 0
BBX 32 29 1 0
BITMAP
00010000
00010000
00018000
00018000
00018000
00038000
0003C000
0003C000
0007E000
000FE000
001FF000
003FF800
007FFE00
01FFFF80
FFFFFFFF
03FFFF00
00FFFC00
003FF800
001FF000
000FE000
0007E000
0007C000
0003C000
00038000
00018000
00018000
00018000
00018000
00010000
ENDCHAR

STARTCHAR l
ENCODING 108
SWIDTH 548 0
DWIDTH 20 0
BBX 11 26 3 0
BITMAP
8000
C000
E000
F000
F800
FC00
FC00
FE00
FF00
FF80
FFC0
FFE0
FFE0
FFC0
FF80
FF80
FF00
FE00
FC00
FC00
F800
F000
E000
E000
C000
8000
ENDCHAR

STARTCHAR m
ENCODING 109
SWIDTH 896 0
DWIDTH 32 0
BBX 25 10 3 7
BITMAP
FFFFFF80
FFFFFC00
7FFFF000
7FFFC000
3FFF0000
3FFC0000
1FF00000
0FC00000
0F000000
04000000
ENDCHAR

STARTCHAR n
ENCODING 110
SWIDTH 1000 0
DWIDTH 36 0
BBX 32 15 2 6
BITMAP
C0000000
38000000
07C00000
01FC0000
003FE000
000FFE00
0001FFE0
00007FFF
00000FFC
000007C0
00001E00
00007000
00038000
001C0000
00200000
ENDCHAR

STARTCHAR o
ENCODING 111
SWIDTH 1000 0
DWIDTH 36 0
BBX 35 11 0 8
BITMAP
0000300000
0000380000
00003E0000
00003F0000
00003FC000
FFFFFFE000
FFFFFFF800
FFFFFFFC00
FFFFFFFF00
FFFFFFFF80
FFFFFFFFE0
ENDCHAR

STARTCHAR p
ENCODING 112
SWIDTH 1096 0
DWIDTH 39 0
BBX 35 11 1 7
BITMAP
01FFFFFFE0
01FFFFFFC0
03FFFFFFC0
07FFFFFF80
0FFFFFFF00
0FFFFFFF00
1FFFFFFE00
3FFFFFFC00
3FFFFFFC00
7FFFFFF800
FFFFFFF800
ENDCHAR

STARTCHAR q
ENCODING 113
SWIDTH 704 0
DWIDTH 25 0
BBX 21 29 1 0
BITMAP
000FF8
001FE8
001FE8
003FD0
003FD0
003FE0
007FA0
007FA0
00FF40
00FF40
00FF80
01FE80
01FF00
03FD00
03FD00
07FA00
07FA00
07FC00
0FF400
0FF800
1FE800
1FE800
3FF000
3FD000
3FE000
7FA000
7FC000
FF4000
FFC000
ENDCHAR

STARTCHAR r
ENCODING 114
SWIDTH 1036 0
DWIDTH 37 0
BBX 35 29 0 0
BITMAP
00000000E0
00000000E0
00000001E0
00000001C0
00000003C0
0000000380
0000000780
0000000780
0000000F00
0000001F00
0000001F00
0000003E00
0000003E00
0000007C00
0000007C00
000000FC00
000000F800
000001F800
000001F800
000003F000
000003F000
000007E000
000007E000
00000FE000
00000FC000
0FFFFFC000
1FFFFFC000
3FFFFF8000
FFFFFF8000
ENDCHAR

STARTCHAR s
ENCODING 115
SWIDTH 1264 0
DWIDTH 46 0
BBX 39 29 2 0
BITMAP
0000000002
0000000002
0000000004
0000000004
0000000004
000000000C
000000000C
000000001C
000000003C
000000003C
000000007C
00000000FC
00000000FC
00000001FC
00000003FC
00000007FC
0000000FFC
0000001FFC
0000003FFC
000000FFFC
000001FFFC
000003FFFC
00000FFFFC
00003FFFFC
0000FFFFFC
0003FFFFFC
001FFFFFFC
01FFFFFFFC
FFFFFFFFFC
ENDCHAR

STARTCHAR t
ENCODING 116
SWIDTH 884 0
DWIDTH 32 0
BBX 21 18 2 3
BITMAP
FFFFC0
800060
800070
800078
800078
800078
800078
800078
800078
800078
800078
800078
800078
800078
FFFFF8
7FFFF8
3FFFF8
0FFFF8
ENDCHAR

STARTCHAR u
ENCODING 117
SWIDTH 844 0
DWIDTH 30 0
BBX 18 17 2 6
BITMAP
FFFFC0
FFFFC0
FFFFC0
FFFFC0
FFFFC0
FFFFC0
FFFFC0
FFFFC0
FFFFC0
FFFFC0
FFFFC0
FFFFC0
FFFFC0
FFFFC0
FFFFC0
FFFFC0
FFFFC0
ENDCHAR

STARTCHAR v
ENCODING 118
SWIDTH 1176 0
DWIDTH 42 0
BBX 32 14 2 6
BITMAP
FFFFFFFF
FFFFFFFF
FFFFFFFF
FFFFFFFF
FFFFFFFF
FFFFFFFF
FFFFFFFF
FFFFFFFF
FFFFFFFF
FFFFFFFF
FFFFFFFF
FFFFFFFF
FFFFFFFF
FFFFFFFF
ENDCHAR

STARTCHAR w
ENCODING 119
SWIDTH 1252 0
DWIDTH 45 0
BBX 36 17 0 4
BITMAP
FFFFEFCED0
FFFFEFCED0
FFFFEFCED0
FFFFEFCED0
FFFFEFCED0
FFFFEFCED0
FFFFEFCED0
FFFFEFCED0
FFFFEFCED0
FFFFEFCED0
FFFFEFCED0
FFFFEFCED0
FFFFEFCED0
FFFFEFCED0
FFFFEFCED0
FFFFEFCED0
FFFFEFCED0
ENDCHAR

STARTCHAR x
ENCODING 120
SWIDTH 1244 0
DWIDTH 45 0
BBX 38 28 0 -2
BITMAP
0000000400
0000000400
0000000400
0000000600
0000000700
B3BF7FFF00
B3BF7FFF80
B3BF7FFFC0
B3BF7FFFE0
B3BF7FFFE0
B3BF7FFFF0
B3BF7FFFF8
B3BF7FFFF8
B3BF7FFFFC
B3BF7FFFFC
B3BF7FFFF8
B3BF7FFFF8
B3BF7FFFF0
B3BF7FFFE0
B3BF7FFFE0
B3BF7FFFC0
B3BF7FFF80
B3BF7FFF80
0000000700
0000000600
0000000400
0000000400
0000000400
ENDCHAR

STARTCHAR y
ENCODING 121
SWIDTH 864 0
DWIDTH 31 0
BBX 23 17 0 4
BITMAP
FFFFFA
80FFFA
80FFFA
80FFFA
80FFFA
80FFFA
80FFFA
80FFFA
80FFFA
80FFFA
80FFFA
80FFFA
80FFFA
80FFFA
80FFFA
80FFFA
FFFFFA
ENDCHAR

STARTCHAR z
ENCODING 122
SWIDTH 704 0
DWIDTH 25 0
BBX 18 17 0 4
BITMAP
FFFFC0
800040
800040
800040
800040
800040
800040
800040
800040
800040
800040
800040
800040
800040
800040
800040
FFFFC0
ENDCHAR

ENDFONT
