STARTFONT 2.1
FONT -DEC-Terminal-Medium-R-Wide--14-140-75-75-C-120-DEC-DECtech
SIZE 14 75 75
FONTBOUNDINGBOX 12 14 0 -2

STARTPROPERTIES 24
FOUNDRY "DEC"
FAMILY_NAME "Terminal"
WEIGHT_NAME "Medium"
SLANT "R"
SETWIDTH_NAME "Wide"
ADD_STYLE_NAME ""
PIXEL_SIZE 14
POINT_SIZE 140
RESOLUTION_X 75
RESOLUTION_Y 75
SPACING "C"
AVERAGE_WIDTH 120
CHARSET_REGISTRY "DEC"
CHARSET_ENCODING "DECtech"
CAP_HEIGHT 9
COPYRIGHT "Copyright (c) 1991 Digital Equipment Corporation. All Rights Reserved."
_DEC_PRODUCTINFO "DECterm Fonts V2.2, 11-Nov-1991"
FULL_NAME "Terminal Wide DECtech"
WEIGHT 10
X_HEIGHT -1
QUAD_WIDTH 12
DEFAULT_CHAR 159
FONT_DESCENT 2
FONT_ASCENT 12
ENDPROPERTIES

CHARS 182

STARTCHAR space
ENCODING 32
SWIDTH 860 0
DWIDTH 12 0
BBX 12 14 0 -2
BITMAP
0000
0000
0000
0000
0000
0000
0000
0000
0000
0000
0000
0000
0000
0000
ENDCHAR

STARTCHAR exclam
ENCODING 33
SWIDTH 860 0
DWIDTH 12 0
BBX 12 14 0 -2
BITMAP
0000
0000
0000
0600
0600
0600
0600
0600
0600
0000
0600
0600
0000
0000
ENDCHAR

STARTCHAR quotedbl
ENCODING 34
SWIDTH 860 0
DWIDTH 12 0
BBX 12 14 0 -2
BITMAP
0000
0000
1980
1980
1980
1980
0000
0000
0000
0000
0000
0000
0000
0000
ENDCHAR

STARTCHAR numbersign
ENCODING 35
SWIDTH 860 0
DWIDTH 12 0
BBX 12 14 0 -2
BITMAP
0000
0000
0000
1980
1980
7FE0
1980
1980
7FE0
1980
1980
1980
0000
0000
ENDCHAR

STARTCHAR dollar
ENCODING 36
SWIDTH 860 0
DWIDTH 12 0
BBX 12 14 0 -2
BITMAP
0000
0000
0600
0600
3FC0
6660
6600
3FC0
0660
6660
3FC0
0600
0600
0000
ENDCHAR

STARTCHAR percent
ENCODING 37
SWIDTH 860 0
DWIDTH 12 0
BBX 12 14 0 -2
BITMAP
0000
0000
0000
3860
44C0
3980
0300
0600
0C00
19C0
3220
61C0
0000
0000
ENDCHAR

STARTCHAR ampersand
ENCODING 38
SWIDTH 860 0
DWIDTH 12 0
BBX 12 14 0 -2
BITMAP
0000
0000
0000
1E00
3300
3300
1E00
1E20
3620
6340
71C0
3F60
0000
0000
ENDCHAR

STARTCHAR quoteright
ENCODING 39
SWIDTH 860 0
DWIDTH 12 0
BBX 12 14 0 -2
BITMAP
0000
0000
0000
0600
0600
0200
0400
0000
0000
0000
0000
0000
0000
0000
ENDCHAR

STARTCHAR parenleft
ENCODING 40
SWIDTH 860 0
DWIDTH 12 0
BBX 12 14 0 -2
BITMAP
0000
0000
01C0
0300
0600
0C00
0C00
0C00
0C00
0C00
0600
0300
01C0
0000
ENDCHAR

STARTCHAR parenright
ENCODING 41
SWIDTH 860 0
DWIDTH 12 0
BBX 12 14 0 -2
BITMAP
0000
0000
1C00
0600
0300
0180
0180
0180
0180
0180
0300
0600
1C00
0000
ENDCHAR

STARTCHAR asterisk
ENCODING 42
SWIDTH 860 0
DWIDTH 12 0
BBX 12 14 0 -2
BITMAP
0000
0000
0000
0000
0600
6660
1F80
1F80
6660
0600
0000
0000
0000
0000
ENDCHAR

STARTCHAR plus
ENCODING 43
SWIDTH 860 0
DWIDTH 12 0
BBX 12 14 0 -2
BITMAP
0000
0000
0000
0000
0000
0600
0600
7FE0
0600
0600
0000
0000
0000
0000
ENDCHAR

STARTCHAR comma
ENCODING 44
SWIDTH 860 0
DWIDTH 12 0
BBX 12 14 0 -2
BITMAP
0000
0000
0000
0000
0000
0000
0000
0000
0000
0000
0C00
0C00
1800
0000
ENDCHAR

STARTCHAR minus
ENCODING 45
SWIDTH 860 0
DWIDTH 12 0
BBX 12 14 0 -2
BITMAP
0000
0000
0000
0000
0000
0000
0000
3FE0
0000
0000
0000
0000
0000
0000
ENDCHAR

STARTCHAR period
ENCODING 46
SWIDTH 860 0
DWIDTH 12 0
BBX 12 14 0 -2
BITMAP
0000
0000
0000
0000
0000
0000
0000
0000
0000
0000
0600
0600
0000
0000
ENDCHAR

STARTCHAR slash
ENCODING 47
SWIDTH 860 0
DWIDTH 12 0
BBX 12 14 0 -2
BITMAP
0000
0000
0060
00C0
00C0
0180
0300
0600
0600
0C00
1800
1800
3000
0000
ENDCHAR

STARTCHAR zero
ENCODING 48
SWIDTH 860 0
DWIDTH 12 0
BBX 12 14 0 -2
BITMAP
0000
0000
0000
0F00
1080
30C0
30C0
30C0
30C0
30C0
1080
0F00
0000
0000
ENDCHAR

STARTCHAR one
ENCODING 49
SWIDTH 860 0
DWIDTH 12 0
BBX 12 14 0 -2
BITMAP
0000
0000
0000
0600
0E00
1600
0600
0600
0600
0600
0600
3FC0
0000
0000
ENDCHAR

STARTCHAR two
ENCODING 50
SWIDTH 860 0
DWIDTH 12 0
BBX 12 14 0 -2
BITMAP
0000
0000
0000
1F80
30C0
00C0
00C0
0180
0700
0C00
1800
3FC0
0000
0000
ENDCHAR

STARTCHAR three
ENCODING 51
SWIDTH 860 0
DWIDTH 12 0
BBX 12 14 0 -2
BITMAP
0000
0000
0000
1F80
30C0
00C0
00C0
0780
00C0
00C0
30C0
1F80
0000
0000
ENDCHAR

STARTCHAR four
ENCODING 52
SWIDTH 860 0
DWIDTH 12 0
BBX 12 14 0 -2
BITMAP
0000
0000
0000
0180
0380
0580
0980
1980
3FE0
0180
0180
0180
0000
0000
ENDCHAR

STARTCHAR five
ENCODING 53
SWIDTH 860 0
DWIDTH 12 0
BBX 12 14 0 -2
BITMAP
0000
0000
0000
3FC0
3000
3000
3F80
30C0
00C0
00C0
30C0
1F80
0000
0000
ENDCHAR

STARTCHAR six
ENCODING 54
SWIDTH 860 0
DWIDTH 12 0
BBX 12 14 0 -2
BITMAP
0000
0000
0000
0780
1800
3000
3000
3F80
30C0
30C0
30C0
1F80
0000
0000
ENDCHAR

STARTCHAR seven
ENCODING 55
SWIDTH 860 0
DWIDTH 12 0
BBX 12 14 0 -2
BITMAP
0000
0000
0000
3FC0
00C0
0180
0300
0600
0600
0C00
0C00
0C00
0000
0000
ENDCHAR

STARTCHAR eight
ENCODING 56
SWIDTH 860 0
DWIDTH 12 0
BBX 12 14 0 -2
BITMAP
0000
0000
0000
1F80
30C0
30C0
30C0
1F80
30C0
30C0
30C0
1F80
0000
0000
ENDCHAR

STARTCHAR nine
ENCODING 57
SWIDTH 860 0
DWIDTH 12 0
BBX 12 14 0 -2
BITMAP
0000
0000
0000
1F80
30C0
30C0
30C0
1FC0
00C0
00C0
0180
1F00
0000
0000
ENDCHAR

STARTCHAR colon
ENCODING 58
SWIDTH 860 0
DWIDTH 12 0
BBX 12 14 0 -2
BITMAP
0000
0000
0000
0000
0000
0600
0600
0000
0000
0000
0600
0600
0000
0000
ENDCHAR

STARTCHAR semicolon
ENCODING 59
SWIDTH 860 0
DWIDTH 12 0
BBX 12 14 0 -2
BITMAP
0000
0000
0000
0000
0000
0600
0600
0000
0000
0000
0600
0600
0C00
0000
ENDCHAR

STARTCHAR less
ENCODING 60
SWIDTH 860 0
DWIDTH 12 0
BBX 12 14 0 -2
BITMAP
0000
0000
0000
0000
0000
00C0
0300
0C00
3000
0C00
0300
00C0
0000
0000
ENDCHAR

STARTCHAR equal
ENCODING 61
SWIDTH 860 0
DWIDTH 12 0
BBX 12 14 0 -2
BITMAP
0000
0000
0000
0000
0000
0000
0000
7FE0
0000
7FE0
0000
0000
0000
0000
ENDCHAR

STARTCHAR greater
ENCODING 62
SWIDTH 860 0
DWIDTH 12 0
BBX 12 14 0 -2
BITMAP
0000
0000
0000
0000
0000
3000
0C00
0300
00C0
0300
0C00
3000
0000
0000
ENDCHAR

STARTCHAR question
ENCODING 63
SWIDTH 860 0
DWIDTH 12 0
BBX 12 14 0 -2
BITMAP
0000
0000
0000
3FC0
6060
0060
0060
03C0
0600
0000
0600
0600
0000
0000
ENDCHAR

STARTCHAR at
ENCODING 64
SWIDTH 860 0
DWIDTH 12 0
BBX 12 14 0 -2
BITMAP
0000
0000
0000
3FC0
6060
63E0
6660
6660
6660
63E0
6000
3FE0
0000
0000
ENDCHAR

STARTCHAR A
ENCODING 65
SWIDTH 860 0
DWIDTH 12 0
BBX 12 14 0 -2
BITMAP
0000
0000
0000
0F00
1980
30C0
30C0
7FE0
6060
6060
6060
6060
0000
0000
ENDCHAR

STARTCHAR B
ENCODING 66
SWIDTH 860 0
DWIDTH 12 0
BBX 12 14 0 -2
BITMAP
0000
0000
0000
7FC0
6060
6060
6060
7FC0
6060
6060
6060
7FC0
0000
0000
ENDCHAR

STARTCHAR C
ENCODING 67
SWIDTH 860 0
DWIDTH 12 0
BBX 12 14 0 -2
BITMAP
0000
0000
0000
3FC0
6060
6000
6000
6000
6000
6000
6060
3FC0
0000
0000
ENDCHAR

STARTCHAR D
ENCODING 68
SWIDTH 860 0
DWIDTH 12 0
BBX 12 14 0 -2
BITMAP
0000
0000
0000
7FC0
6060
6060
6060
6060
6060
6060
6060
7FC0
0000
0000
ENDCHAR

STARTCHAR E
ENCODING 69
SWIDTH 860 0
DWIDTH 12 0
BBX 12 14 0 -2
BITMAP
0000
0000
0000
3FE0
3000
3000
3000
3FC0
3000
3000
3000
3FE0
0000
0000
ENDCHAR

STARTCHAR F
ENCODING 70
SWIDTH 860 0
DWIDTH 12 0
BBX 12 14 0 -2
BITMAP
0000
0000
0000
3FE0
3000
3000
3000
3FC0
3000
3000
3000
3000
0000
0000
ENDCHAR

STARTCHAR G
ENCODING 71
SWIDTH 860 0
DWIDTH 12 0
BBX 12 14 0 -2
BITMAP
0000
0000
0000
3FC0
6060
6000
6000
6000
61E0
6060
6060
3FC0
0000
0000
ENDCHAR

STARTCHAR H
ENCODING 72
SWIDTH 860 0
DWIDTH 12 0
BBX 12 14 0 -2
BITMAP
0000
0000
0000
6060
6060
6060
6060
7FE0
6060
6060
6060
6060
0000
0000
ENDCHAR

STARTCHAR I
ENCODING 73
SWIDTH 860 0
DWIDTH 12 0
BBX 12 14 0 -2
BITMAP
0000
0000
0000
7FE0
0600
0600
0600
0600
0600
0600
0600
7FE0
0000
0000
ENDCHAR

STARTCHAR J
ENCODING 74
SWIDTH 860 0
DWIDTH 12 0
BBX 12 14 0 -2
BITMAP
0000
0000
0000
1FE0
0180
0180
0180
0180
0180
0180
6180
3F00
0000
0000
ENDCHAR

STARTCHAR K
ENCODING 75
SWIDTH 860 0
DWIDTH 12 0
BBX 12 14 0 -2
BITMAP
0000
0000
0000
6060
6180
6600
7800
7C00
6600
6180
60C0
6060
0000
0000
ENDCHAR

STARTCHAR L
ENCODING 76
SWIDTH 860 0
DWIDTH 12 0
BBX 12 14 0 -2
BITMAP
0000
0000
0000
3000
3000
3000
3000
3000
3000
3000
3000
3FE0
0000
0000
ENDCHAR

STARTCHAR M
ENCODING 77
SWIDTH 860 0
DWIDTH 12 0
BBX 12 14 0 -2
BITMAP
0000
0000
0000
6060
70E0
79E0
6F60
6660
6660
6060
6060
6060
0000
0000
ENDCHAR

STARTCHAR N
ENCODING 78
SWIDTH 860 0
DWIDTH 12 0
BBX 12 14 0 -2
BITMAP
0000
0000
0000
6060
7060
7860
6C60
6660
6360
61E0
60E0
6060
0000
0000
ENDCHAR

STARTCHAR O
ENCODING 79
SWIDTH 860 0
DWIDTH 12 0
BBX 12 14 0 -2
BITMAP
0000
0000
0000
3FC0
6060
6060
6060
6060
6060
6060
6060
3FC0
0000
0000
ENDCHAR

STARTCHAR P
ENCODING 80
SWIDTH 860 0
DWIDTH 12 0
BBX 12 14 0 -2
BITMAP
0000
0000
0000
7FC0
6060
6060
6060
7FC0
6000
6000
6000
6000
0000
0000
ENDCHAR

STARTCHAR Q
ENCODING 81
SWIDTH 860 0
DWIDTH 12 0
BBX 12 14 0 -2
BITMAP
0000
0000
0000
3FC0
6060
6060
6060
6060
6060
6060
61E0
3FC0
0060
0000
ENDCHAR

STARTCHAR R
ENCODING 82
SWIDTH 860 0
DWIDTH 12 0
BBX 12 14 0 -2
BITMAP
0000
0000
0000
7FC0
6060
6060
6060
7FC0
6180
60C0
60C0
6060
0000
0000
ENDCHAR

STARTCHAR S
ENCODING 83
SWIDTH 860 0
DWIDTH 12 0
BBX 12 14 0 -2
BITMAP
0000
0000
0000
3FC0
6060
6000
6000
3FC0
0060
0060
6060
3FC0
0000
0000
ENDCHAR

STARTCHAR T
ENCODING 84
SWIDTH 860 0
DWIDTH 12 0
BBX 12 14 0 -2
BITMAP
0000
0000
0000
7FE0
0600
0600
0600
0600
0600
0600
0600
0600
0000
0000
ENDCHAR

STARTCHAR U
ENCODING 85
SWIDTH 860 0
DWIDTH 12 0
BBX 12 14 0 -2
BITMAP
0000
0000
0000
6060
6060
6060
6060
6060
6060
6060
6060
3FC0
0000
0000
ENDCHAR

STARTCHAR V
ENCODING 86
SWIDTH 860 0
DWIDTH 12 0
BBX 12 14 0 -2
BITMAP
0000
0000
0000
6060
6060
6060
6060
30C0
30C0
1980
0F00
0600
0000
0000
ENDCHAR

STARTCHAR W
ENCODING 87
SWIDTH 860 0
DWIDTH 12 0
BBX 12 14 0 -2
BITMAP
0000
0000
0000
6060
6060
6060
6660
6660
6F60
2940
39C0
1080
0000
0000
ENDCHAR

STARTCHAR X
ENCODING 88
SWIDTH 860 0
DWIDTH 12 0
BBX 12 14 0 -2
BITMAP
0000
0000
0000
6060
30C0
1980
0F00
0F00
1980
30C0
30C0
6060
0000
0000
ENDCHAR

STARTCHAR Y
ENCODING 89
SWIDTH 860 0
DWIDTH 12 0
BBX 12 14 0 -2
BITMAP
0000
0000
0000
6060
30C0
1980
0F00
0600
0600
0600
0600
0600
0000
0000
ENDCHAR

STARTCHAR Z
ENCODING 90
SWIDTH 860 0
DWIDTH 12 0
BBX 12 14 0 -2
BITMAP
0000
0000
0000
7FC0
0180
0300
0600
0E00
0C00
1800
3000
7FC0
0000
0000
ENDCHAR

STARTCHAR bracketleft
ENCODING 91
SWIDTH 860 0
DWIDTH 12 0
BBX 12 14 0 -2
BITMAP
0000
0000
0FC0
0C00
0C00
0C00
0C00
0C00
0C00
0C00
0C00
0C00
0FC0
0000
ENDCHAR

STARTCHAR backslash
ENCODING 92
SWIDTH 860 0
DWIDTH 12 0
BBX 12 14 0 -2
BITMAP
0000
0000
3000
1800
1800
0C00
0600
0600
0300
0180
01C0
00C0
0060
0000
ENDCHAR

STARTCHAR bracketright
ENCODING 93
SWIDTH 860 0
DWIDTH 12 0
BBX 12 14 0 -2
BITMAP
0000
0000
1F80
0180
0180
0180
0180
0180
0180
0180
0180
0180
1F80
0000
ENDCHAR

STARTCHAR asciicircum
ENCODING 94
SWIDTH 860 0
DWIDTH 12 0
BBX 12 14 0 -2
BITMAP
0000
0000
0000
0000
0000
0600
1980
6060
0000
0000
0000
0000
0000
0000
ENDCHAR

STARTCHAR ldblank
ENCODING 95
SWIDTH 860 0
DWIDTH 12 0
BBX 12 14 0 -2
BITMAP
0000
0000
0000
0000
0000
0000
0000
0000
0000
0000
0000
0000
0000
0000
ENDCHAR

STARTCHAR diamond
ENCODING 96
SWIDTH 860 0
DWIDTH 12 0
BBX 12 14 0 -2
BITMAP
0000
0000
0000
0000
0000
0600
1F80
7FE0
1F80
0600
0000
0000
0000
0000
ENDCHAR

STARTCHAR checkerboard
ENCODING 97
SWIDTH 860 0
DWIDTH 12 0
BBX 12 14 0 -2
BITMAP
AAA0
5550
AAA0
5550
AAA0
5550
AAA0
5550
AAA0
5550
AAA0
5550
AAA0
5550
ENDCHAR

STARTCHAR HT
ENCODING 98
SWIDTH 860 0
DWIDTH 12 0
BBX 12 14 0 -2
BITMAP
0000
0000
6300
6300
7F00
6300
6300
0000
0FC0
0300
0300
0300
0300
0000
ENDCHAR

STARTCHAR FF
ENCODING 99
SWIDTH 860 0
DWIDTH 12 0
BBX 12 14 0 -2
BITMAP
0000
0000
7F00
6000
7C00
6000
6000
0000
0FE0
0C00
0F80
0C00
0C00
0000
ENDCHAR

STARTCHAR CR
ENCODING 100
SWIDTH 860 0
DWIDTH 12 0
BBX 12 14 0 -2
BITMAP
0000
0000
3F00
6180
6000
6180
3F00
0000
1FC0
1860
1FC0
18C0
1860
0000
ENDCHAR

STARTCHAR LF
ENCODING 101
SWIDTH 860 0
DWIDTH 12 0
BBX 12 14 0 -2
BITMAP
0000
0000
6000
6000
6000
6000
7E00
0000
0FE0
0C00
0F80
0C00
0C00
0000
ENDCHAR

STARTCHAR degree
ENCODING 102
SWIDTH 860 0
DWIDTH 12 0
BBX 12 14 0 -2
BITMAP
0000
0000
0000
0F00
1980
0F00
0000
0000
0000
0000
0000
0000
0000
0000
ENDCHAR

STARTCHAR plusminus
ENCODING 103
SWIDTH 860 0
DWIDTH 12 0
BBX 12 14 0 -2
BITMAP
0000
0000
0000
0000
0000
0600
0600
7FE0
0600
0600
0000
7FE0
0000
0000
ENDCHAR

STARTCHAR NL
ENCODING 104
SWIDTH 860 0
DWIDTH 12 0
BBX 12 14 0 -2
BITMAP
0000
0000
3180
3980
3580
3380
3180
0000
0C00
0C00
0C00
0C00
0FC0
0000
ENDCHAR

STARTCHAR VT
ENCODING 105
SWIDTH 860 0
DWIDTH 12 0
BBX 12 14 0 -2
BITMAP
0000
0000
6180
6180
3300
3300
1E00
0000
0FC0
0300
0300
0300
0300
0000
ENDCHAR

STARTCHAR ldcornsqlr
ENCODING 106
SWIDTH 860 0
DWIDTH 12 0
BBX 12 14 0 -2
BITMAP
0600
0600
0600
0600
0600
0600
0600
FE00
0000
0000
0000
0000
0000
0000
ENDCHAR

STARTCHAR ldcornsqur
ENCODING 107
SWIDTH 860 0
DWIDTH 12 0
BBX 12 14 0 -2
BITMAP
0000
0000
0000
0000
0000
0000
0000
FE00
0600
0600
0600
0600
0600
0600
ENDCHAR

STARTCHAR ldcornsqul
ENCODING 108
SWIDTH 860 0
DWIDTH 12 0
BBX 12 14 0 -2
BITMAP
0000
0000
0000
0000
0000
0000
0000
07F0
0600
0600
0600
0600
0600
0600
ENDCHAR

STARTCHAR ldcornsqll
ENCODING 109
SWIDTH 860 0
DWIDTH 12 0
BBX 12 14 0 -2
BITMAP
0600
0600
0600
0600
0600
0600
0600
07F0
0000
0000
0000
0000
0000
0000
ENDCHAR

STARTCHAR ldcross
ENCODING 110
SWIDTH 860 0
DWIDTH 12 0
BBX 12 14 0 -2
BITMAP
0600
0600
0600
0600
0600
0600
0600
FFF0
0600
0600
0600
0600
0600
0600
ENDCHAR

STARTCHAR ldscan1
ENCODING 111
SWIDTH 860 0
DWIDTH 12 0
BBX 12 14 0 -2
BITMAP
0000
FFF0
0000
0000
0000
0000
0000
0000
0000
0000
0000
0000
0000
0000
ENDCHAR

STARTCHAR ldscan3
ENCODING 112
SWIDTH 860 0
DWIDTH 12 0
BBX 12 14 0 -2
BITMAP
0000
0000
0000
0000
FFF0
0000
0000
0000
0000
0000
0000
0000
0000
0000
ENDCHAR

STARTCHAR ldhorizontal
ENCODING 113
SWIDTH 860 0
DWIDTH 12 0
BBX 12 14 0 -2
BITMAP
0000
0000
0000
0000
0000
0000
0000
FFF0
0000
0000
0000
0000
0000
0000
ENDCHAR

STARTCHAR ldscan7
ENCODING 114
SWIDTH 860 0
DWIDTH 12 0
BBX 12 14 0 -2
BITMAP
0000
0000
0000
0000
0000
0000
0000
0000
0000
0000
FFF0
0000
0000
0000
ENDCHAR

STARTCHAR ldscan9
ENCODING 115
SWIDTH 860 0
DWIDTH 12 0
BBX 12 14 0 -2
BITMAP
0000
0000
0000
0000
0000
0000
0000
0000
0000
0000
0000
0000
0000
FFF0
ENDCHAR

STARTCHAR ldteelft
ENCODING 116
SWIDTH 860 0
DWIDTH 12 0
BBX 12 14 0 -2
BITMAP
0600
0600
0600
0600
0600
0600
0600
07F0
0600
0600
0600
0600
0600
0600
ENDCHAR

STARTCHAR ldteert
ENCODING 117
SWIDTH 860 0
DWIDTH 12 0
BBX 12 14 0 -2
BITMAP
0600
0600
0600
0600
0600
0600
0600
FE00
0600
0600
0600
0600
0600
0600
ENDCHAR

STARTCHAR ldteebt
ENCODING 118
SWIDTH 860 0
DWIDTH 12 0
BBX 12 14 0 -2
BITMAP
0600
0600
0600
0600
0600
0600
0600
FFF0
0000
0000
0000
0000
0000
0000
ENDCHAR

STARTCHAR ldteetp
ENCODING 119
SWIDTH 860 0
DWIDTH 12 0
BBX 12 14 0 -2
BITMAP
0000
0000
0000
0000
0000
0000
0000
FFF0
0600
0600
0600
0600
0600
0600
ENDCHAR

STARTCHAR ldvertical
ENCODING 120
SWIDTH 860 0
DWIDTH 12 0
BBX 12 14 0 -2
BITMAP
0600
0600
0600
0600
0600
0600
0600
0600
0600
0600
0600
0600
0600
0600
ENDCHAR

STARTCHAR lessequal
ENCODING 121
SWIDTH 860 0
DWIDTH 12 0
BBX 12 14 0 -2
BITMAP
0000
0000
0000
0000
03C0
1E00
7000
1E00
03C0
0000
0000
7FE0
0000
0000
ENDCHAR

STARTCHAR greaterequal
ENCODING 122
SWIDTH 860 0
DWIDTH 12 0
BBX 12 14 0 -2
BITMAP
0000
0000
0000
0000
3C00
0780
00E0
0780
3C00
0000
0000
7FE0
0000
0000
ENDCHAR

STARTCHAR pi
ENCODING 123
SWIDTH 860 0
DWIDTH 12 0
BBX 12 14 0 -2
BITMAP
0000
0000
0000
0000
0000
7FE0
1980
1980
1980
1980
1980
7180
0000
0000
ENDCHAR

STARTCHAR notequal
ENCODING 124
SWIDTH 860 0
DWIDTH 12 0
BBX 12 14 0 -2
BITMAP
0000
0000
0000
0000
0000
0060
0180
7FE0
0600
7FE0
1800
6000
0000
0000
ENDCHAR

STARTCHAR sterling
ENCODING 125
SWIDTH 860 0
DWIDTH 12 0
BBX 12 14 0 -2
BITMAP
0000
0000
0000
0F80
18C0
18C0
1800
7E00
1800
1800
1860
77C0
0000
0000
ENDCHAR

STARTCHAR periodcentered
ENCODING 126
SWIDTH 860 0
DWIDTH 12 0
BBX 12 14 0 -2
BITMAP
0000
0000
0000
0000
0000
0000
0000
0600
0600
0000
0000
0000
0000
0000
ENDCHAR

STARTCHAR Error
ENCODING 159
SWIDTH 860 0
DWIDTH 12 0
BBX 12 14 0 -2
BITMAP
1F80
3FC0
7FE0
78E0
7800
3C00
1E00
0F00
0700
0700
0000
0700
0700
0700
ENDCHAR

STARTCHAR space
ENCODING 160
SWIDTH 860 0
DWIDTH 12 0
BBX 12 14 0 -2
BITMAP
0000
0000
0000
0000
0000
0000
0000
0000
0000
0000
0000
0000
0000
0000
ENDCHAR

STARTCHAR ldradicalbt
ENCODING 161
SWIDTH 860 0
DWIDTH 12 0
BBX 12 14 0 -2
BITMAP
0600
0600
0600
0600
0600
0600
0600
0600
E600
1600
0E00
0600
0000
0000
ENDCHAR

STARTCHAR ldradicaltp
ENCODING 162
SWIDTH 860 0
DWIDTH 12 0
BBX 12 14 0 -2
BITMAP
0000
0000
0000
0000
0000
0000
0000
07F0
0600
0600
0600
0600
0600
0600
ENDCHAR

STARTCHAR ldhorizontal
ENCODING 163
SWIDTH 860 0
DWIDTH 12 0
BBX 12 14 0 -2
BITMAP
0000
0000
0000
0000
0000
0000
0000
FFF0
0000
0000
0000
0000
0000
0000
ENDCHAR

STARTCHAR ldintegraltp
ENCODING 164
SWIDTH 860 0
DWIDTH 12 0
BBX 12 14 0 -2
BITMAP
0000
0000
0380
0640
0640
0600
0600
0600
0600
0600
0600
0600
0600
0600
ENDCHAR

STARTCHAR ldintegralbt
ENCODING 165
SWIDTH 860 0
DWIDTH 12 0
BBX 12 14 0 -2
BITMAP
0600
0600
0600
0600
0600
0600
0600
0600
0600
0600
2600
2600
1C00
0000
ENDCHAR

STARTCHAR ldvertical
ENCODING 166
SWIDTH 860 0
DWIDTH 12 0
BBX 12 14 0 -2
BITMAP
0600
0600
0600
0600
0600
0600
0600
0600
0600
0600
0600
0600
0600
0600
ENDCHAR

STARTCHAR ldbracketlfttp
ENCODING 167
SWIDTH 860 0
DWIDTH 12 0
BBX 12 14 0 -2
BITMAP
0000
0000
07C0
0600
0600
0600
0600
0600
0600
0600
0600
0600
0600
0600
ENDCHAR

STARTCHAR ldbracketlftbt
ENCODING 168
SWIDTH 860 0
DWIDTH 12 0
BBX 12 14 0 -2
BITMAP
0600
0600
0600
0600
0600
0600
0600
0600
0600
0600
0600
0600
07C0
0000
ENDCHAR

STARTCHAR ldbracketrttp
ENCODING 169
SWIDTH 860 0
DWIDTH 12 0
BBX 12 14 0 -2
BITMAP
0000
0000
3E00
0600
0600
0600
0600
0600
0600
0600
0600
0600
0600
0600
ENDCHAR

STARTCHAR ldbracketrtbt
ENCODING 170
SWIDTH 860 0
DWIDTH 12 0
BBX 12 14 0 -2
BITMAP
0600
0600
0600
0600
0600
0600
0600
0600
0600
0600
0600
0600
3E00
0000
ENDCHAR

STARTCHAR ldbracelfttp
ENCODING 171
SWIDTH 860 0
DWIDTH 12 0
BBX 12 14 0 -2
BITMAP
0000
0000
0180
0200
0600
0600
0600
0600
0600
0600
0600
0600
0600
0600
ENDCHAR

STARTCHAR ldbracelftbt
ENCODING 172
SWIDTH 860 0
DWIDTH 12 0
BBX 12 14 0 -2
BITMAP
0600
0600
0600
0600
0600
0600
0600
0600
0600
0600
0600
0200
0180
0000
ENDCHAR

STARTCHAR ldbracerttp
ENCODING 173
SWIDTH 860 0
DWIDTH 12 0
BBX 12 14 0 -2
BITMAP
0000
0000
1800
0400
0600
0600
0600
0600
0600
0600
0600
0600
0600
0600
ENDCHAR

STARTCHAR ldbracertbt
ENCODING 174
SWIDTH 860 0
DWIDTH 12 0
BBX 12 14 0 -2
BITMAP
0600
0600
0600
0600
0600
0600
0600
0600
0600
0600
0600
0400
1800
0000
ENDCHAR

STARTCHAR ldbracelftmid
ENCODING 175
SWIDTH 860 0
DWIDTH 12 0
BBX 12 14 0 -2
BITMAP
0600
0600
0600
0600
0600
0600
0E00
3C00
0E00
0600
0600
0600
0600
0600
ENDCHAR

STARTCHAR ldbracertmid
ENCODING 176
SWIDTH 860 0
DWIDTH 12 0
BBX 12 14 0 -2
BITMAP
0600
0600
0600
0600
0600
0600
0700
03C0
0700
0600
0600
0600
0600
0600
ENDCHAR

STARTCHAR ldsigmalfttp
ENCODING 177
SWIDTH 860 0
DWIDTH 12 0
BBX 12 14 0 -2
BITMAP
0000
0000
0000
0000
0000
0000
0000
03F0
0300
0180
00C0
0060
0030
0010
ENDCHAR

STARTCHAR ldsigmalftbt
ENCODING 178
SWIDTH 860 0
DWIDTH 12 0
BBX 12 14 0 -2
BITMAP
0000
0010
0030
0060
00C0
0180
0300
0600
07F0
0000
0000
0000
0000
0000
ENDCHAR

STARTCHAR ldbackslash
ENCODING 179
SWIDTH 860 0
DWIDTH 12 0
BBX 12 14 0 -2
BITMAP
8000
C000
6000
3000
1800
0C00
0400
0600
0300
0180
00C0
0060
0030
0010
ENDCHAR

STARTCHAR ldslash
ENCODING 180
SWIDTH 860 0
DWIDTH 12 0
BBX 12 14 0 -2
BITMAP
0010
0030
0060
00C0
0180
0300
0200
0600
0C00
1800
3000
6000
C000
8000
ENDCHAR

STARTCHAR ldsigmarttp
ENCODING 181
SWIDTH 860 0
DWIDTH 12 0
BBX 12 14 0 -2
BITMAP
0000
0000
0000
0000
0000
0000
0000
FFC0
0040
0040
0040
0000
0000
0000
ENDCHAR

STARTCHAR ldsigmartbt
ENCODING 182
SWIDTH 860 0
DWIDTH 12 0
BBX 12 14 0 -2
BITMAP
0000
0000
0000
0000
0040
0040
0040
FFC0
0000
0000
0000
0000
0000
0000
ENDCHAR

STARTCHAR ldsigmamid
ENCODING 183
SWIDTH 860 0
DWIDTH 12 0
BBX 12 14 0 -2
BITMAP
8000
C000
6000
3000
1800
0C00
0600
0600
0600
0C00
1800
3000
6000
C000
ENDCHAR

STARTCHAR lessequal
ENCODING 188
SWIDTH 860 0
DWIDTH 12 0
BBX 12 14 0 -2
BITMAP
0000
0000
0000
0000
03C0
1E00
7000
1E00
03C0
0000
0000
7FE0
0000
0000
ENDCHAR

STARTCHAR notequal
ENCODING 189
SWIDTH 860 0
DWIDTH 12 0
BBX 12 14 0 -2
BITMAP
0000
0000
0000
0000
0000
0060
0180
7FE0
0600
7FE0
1800
6000
0000
0000
ENDCHAR

STARTCHAR greaterequal
ENCODING 190
SWIDTH 860 0
DWIDTH 12 0
BBX 12 14 0 -2
BITMAP
0000
0000
0000
0000
3C00
0780
00E0
0780
3C00
0000
0000
7FE0
0000
0000
ENDCHAR

STARTCHAR integral
ENCODING 191
SWIDTH 860 0
DWIDTH 12 0
BBX 12 14 0 -2
BITMAP
0000
0000
0180
0240
0640
0600
0600
0600
0600
0600
2600
2600
1C00
0000
ENDCHAR

STARTCHAR therefore
ENCODING 192
SWIDTH 860 0
DWIDTH 12 0
BBX 12 14 0 -2
BITMAP
0000
0000
0000
0000
0600
0600
0000
0000
0000
6060
6060
0000
0000
0000
ENDCHAR

STARTCHAR proportional
ENCODING 193
SWIDTH 860 0
DWIDTH 12 0
BBX 12 14 0 -2
BITMAP
0000
0000
0000
0000
0000
39C0
67C0
6600
6600
67C0
39C0
0000
0000
0000
ENDCHAR

STARTCHAR infinity
ENCODING 194
SWIDTH 860 0
DWIDTH 12 0
BBX 12 14 0 -2
BITMAP
0000
0000
0000
0000
0000
39C0
76E0
6660
6660
76E0
39C0
0000
0000
0000
ENDCHAR

STARTCHAR divide
ENCODING 195
SWIDTH 860 0
DWIDTH 12 0
BBX 12 14 0 -2
BITMAP
0000
0000
0000
0000
0600
0600
0000
7FE0
0000
0600
0600
0000
0000
0000
ENDCHAR

STARTCHAR Delta
ENCODING 196
SWIDTH 860 0
DWIDTH 12 0
BBX 12 14 0 -2
BITMAP
0000
0000
0000
0600
0F00
0B00
1380
11C0
20C0
40E0
4060
7FE0
0000
0000
ENDCHAR

STARTCHAR gradient
ENCODING 197
SWIDTH 860 0
DWIDTH 12 0
BBX 12 14 0 -2
BITMAP
0000
0000
0000
7FE0
4060
40E0
20C0
11C0
1380
0B00
0F00
0600
0000
0000
ENDCHAR

STARTCHAR Phi
ENCODING 198
SWIDTH 860 0
DWIDTH 12 0
BBX 12 14 0 -2
BITMAP
0000
0000
0000
0F80
0200
1FC0
3260
3260
3260
1FC0
0200
0F80
0000
0000
ENDCHAR

STARTCHAR Gamma
ENCODING 199
SWIDTH 860 0
DWIDTH 12 0
BBX 12 14 0 -2
BITMAP
0000
0000
0000
3FE0
1820
1800
1800
1800
1800
1800
1800
3C00
0000
0000
ENDCHAR

STARTCHAR similar
ENCODING 200
SWIDTH 860 0
DWIDTH 12 0
BBX 12 14 0 -2
BITMAP
0000
0000
0000
0000
0000
0000
0C20
1640
2380
0000
0000
0000
0000
0000
ENDCHAR

STARTCHAR approxequal
ENCODING 201
SWIDTH 860 0
DWIDTH 12 0
BBX 12 14 0 -2
BITMAP
0000
0000
0000
0000
0000
0C20
1640
2380
0000
3FE0
0000
0000
0000
0000
ENDCHAR

STARTCHAR Theta
ENCODING 202
SWIDTH 860 0
DWIDTH 12 0
BBX 12 14 0 -2
BITMAP
0000
0000
0000
0F80
18C0
3060
3560
3760
3560
3060
18C0
0F80
0000
0000
ENDCHAR

STARTCHAR multiply
ENCODING 203
SWIDTH 860 0
DWIDTH 12 0
BBX 12 14 0 -2
BITMAP
0000
0000
0000
0000
1040
0880
0500
0200
0500
0880
1040
0000
0000
0000
ENDCHAR

STARTCHAR Lambda
ENCODING 204
SWIDTH 860 0
DWIDTH 12 0
BBX 12 14 0 -2
BITMAP
0000
0000
0000
0600
0600
0B00
0B00
1180
1180
20C0
20C0
71E0
0000
0000
ENDCHAR

STARTCHAR arrowdblboth
ENCODING 205
SWIDTH 860 0
DWIDTH 12 0
BBX 12 14 0 -2
BITMAP
0000
0000
0000
0000
0880
1040
3FE0
4010
3FE0
1040
0880
0000
0000
0000
ENDCHAR

STARTCHAR arrowdblright
ENCODING 206
SWIDTH 860 0
DWIDTH 12 0
BBX 12 14 0 -2
BITMAP
0000
0000
0000
0000
0100
0080
3FC0
0020
3FC0
0080
0100
0000
0000
0000
ENDCHAR

STARTCHAR equivalence
ENCODING 207
SWIDTH 860 0
DWIDTH 12 0
BBX 12 14 0 -2
BITMAP
0000
0000
0000
0000
0000
3FE0
0000
3FE0
0000
3FE0
0000
0000
0000
0000
ENDCHAR

STARTCHAR Pi
ENCODING 208
SWIDTH 860 0
DWIDTH 12 0
BBX 12 14 0 -2
BITMAP
0000
0000
0000
3FE0
18C0
18C0
18C0
18C0
18C0
18C0
18C0
3DE0
0000
0000
ENDCHAR

STARTCHAR Psi
ENCODING 209
SWIDTH 860 0
DWIDTH 12 0
BBX 12 14 0 -2
BITMAP
0000
0000
0000
4F20
2640
2640
36C0
1F80
0600
0600
0600
0F00
0000
0000
ENDCHAR

STARTCHAR Sigma
ENCODING 211
SWIDTH 860 0
DWIDTH 12 0
BBX 12 14 0 -2
BITMAP
0000
0000
0000
3FC0
1840
0C00
0600
0600
0C00
0C00
1840
3FC0
0000
0000
ENDCHAR

STARTCHAR radical
ENCODING 214
SWIDTH 860 0
DWIDTH 12 0
BBX 12 14 0 -2
BITMAP
0010
0030
0060
0040
00C0
0180
3100
7300
3E00
1C00
1800
0000
0000
0000
ENDCHAR

STARTCHAR Omega
ENCODING 215
SWIDTH 860 0
DWIDTH 12 0
BBX 12 14 0 -2
BITMAP
0000
0000
0000
0F00
1980
30C0
30C0
30C0
30C0
1080
0900
39C0
0000
0000
ENDCHAR

STARTCHAR Xi
ENCODING 216
SWIDTH 860 0
DWIDTH 12 0
BBX 12 14 0 -2
BITMAP
0000
0000
0000
7FE0
4020
1080
1F80
1F80
1080
0000
4020
7FE0
0000
0000
ENDCHAR

STARTCHAR Upsilon1
ENCODING 217
SWIDTH 860 0
DWIDTH 12 0
BBX 12 14 0 -2
BITMAP
0000
0000
0000
6060
6060
30C0
1980
0F00
0600
0600
0600
0600
0000
0000
ENDCHAR

STARTCHAR propersubset
ENCODING 218
SWIDTH 860 0
DWIDTH 12 0
BBX 12 14 0 -2
BITMAP
0000
0000
0000
1FC0
3FC0
3000
3000
3000
3000
3FC0
1FC0
0000
0000
0000
ENDCHAR

STARTCHAR propersuperset
ENCODING 219
SWIDTH 860 0
DWIDTH 12 0
BBX 12 14 0 -2
BITMAP
0000
0000
0000
3F80
3FC0
00C0
00C0
00C0
00C0
3FC0
3F80
0000
0000
0000
ENDCHAR

STARTCHAR intersection
ENCODING 220
SWIDTH 860 0
DWIDTH 12 0
BBX 12 14 0 -2
BITMAP
0000
0000
0000
1F80
3FC0
30C0
30C0
30C0
30C0
30C0
30C0
0000
0000
0000
ENDCHAR

STARTCHAR union
ENCODING 221
SWIDTH 860 0
DWIDTH 12 0
BBX 12 14 0 -2
BITMAP
0000
0000
0000
30C0
30C0
30C0
30C0
30C0
30C0
3FC0
1F80
0000
0000
0000
ENDCHAR

STARTCHAR logicaland
ENCODING 222
SWIDTH 860 0
DWIDTH 12 0
BBX 12 14 0 -2
BITMAP
0000
0000
0000
0000
0200
0700
0D80
18C0
18C0
3060
3060
0000
0000
0000
ENDCHAR

STARTCHAR logicalor
ENCODING 223
SWIDTH 860 0
DWIDTH 12 0
BBX 12 14 0 -2
BITMAP
0000
0000
0000
0000
3060
3060
18C0
18C0
0D80
0700
0200
0000
0000
0000
ENDCHAR

STARTCHAR logicalnot
ENCODING 224
SWIDTH 860 0
DWIDTH 12 0
BBX 12 14 0 -2
BITMAP
0000
0000
0000
0000
0000
0000
0000
3FE0
0060
0060
0000
0000
0000
0000
ENDCHAR

STARTCHAR alpha
ENCODING 225
SWIDTH 860 0
DWIDTH 12 0
BBX 12 14 0 -2
BITMAP
0000
0000
0000
0000
0000
0E40
1380
3180
3180
3180
3180
1EE0
0000
0000
ENDCHAR

STARTCHAR beta
ENCODING 226
SWIDTH 860 0
DWIDTH 12 0
BBX 12 14 0 -2
BITMAP
0000
0000
0000
0780
08C0
18C0
3B80
18C0
18C0
18C0
1CC0
1B80
3000
3000
ENDCHAR

STARTCHAR chi
ENCODING 227
SWIDTH 860 0
DWIDTH 12 0
BBX 12 14 0 -2
BITMAP
0000
0000
0000
0000
0000
38C0
1880
0D00
0600
0700
0980
0980
10C0
30E0
ENDCHAR

STARTCHAR delta
ENCODING 228
SWIDTH 860 0
DWIDTH 12 0
BBX 12 14 0 -2
BITMAP
0000
0380
0640
0600
0300
0F80
18C0
18C0
18C0
18C0
18C0
0F80
0000
0000
ENDCHAR

STARTCHAR epsilon
ENCODING 229
SWIDTH 860 0
DWIDTH 12 0
BBX 12 14 0 -2
BITMAP
0000
0000
0000
0000
0000
1F80
3040
3000
1E00
3000
3040
1F80
0000
0000
ENDCHAR

STARTCHAR phi
ENCODING 230
SWIDTH 860 0
DWIDTH 12 0
BBX 12 14 0 -2
BITMAP
0000
0100
0100
0F80
1AC0
32C0
32C0
36C0
34C0
34C0
3580
1F00
0800
0800
ENDCHAR

STARTCHAR gamma
ENCODING 231
SWIDTH 860 0
DWIDTH 12 0
BBX 12 14 0 -2
BITMAP
0000
0000
0000
0000
1000
38C0
5880
0980
0B00
0E00
0600
0C00
0C00
1800
ENDCHAR

STARTCHAR eta
ENCODING 232
SWIDTH 860 0
DWIDTH 12 0
BBX 12 14 0 -2
BITMAP
0000
0000
0000
0000
0000
3B80
0CC0
0CC0
0CC0
0CC0
0CC0
0CC0
00C0
00C0
ENDCHAR

STARTCHAR iota
ENCODING 233
SWIDTH 860 0
DWIDTH 12 0
BBX 12 14 0 -2
BITMAP
0000
0000
0000
0000
0000
1E00
0600
0600
0600
0600
0640
0380
0000
0000
ENDCHAR

STARTCHAR theta
ENCODING 234
SWIDTH 860 0
DWIDTH 12 0
BBX 12 14 0 -2
BITMAP
0000
0000
0000
0F00
1080
30C0
30C0
3FC0
30C0
30C0
1080
0F00
0000
0000
ENDCHAR

STARTCHAR kappa
ENCODING 235
SWIDTH 860 0
DWIDTH 12 0
BBX 12 14 0 -2
BITMAP
0000
0000
0000
0000
0000
3CC0
0D00
0E00
0F00
0D80
0CC0
0CC0
0000
0000
ENDCHAR

STARTCHAR lambda
ENCODING 236
SWIDTH 860 0
DWIDTH 12 0
BBX 12 14 0 -2
BITMAP
0000
0000
0000
3800
0C00
0600
0300
0700
0D80
0CC0
18C0
38C0
0000
0000
ENDCHAR

STARTCHAR nu
ENCODING 238
SWIDTH 860 0
DWIDTH 12 0
BBX 12 14 0 -2
BITMAP
0000
0000
0000
0000
0000
7100
1880
1880
1900
1900
1A00
1C00
0000
0000
ENDCHAR

STARTCHAR partialdiff
ENCODING 239
SWIDTH 860 0
DWIDTH 12 0
BBX 12 14 0 -2
BITMAP
0000
0000
0E00
0380
0180
07C0
08C0
18C0
18C0
18C0
1C80
0F00
0000
0000
ENDCHAR

STARTCHAR pi
ENCODING 240
SWIDTH 860 0
DWIDTH 12 0
BBX 12 14 0 -2
BITMAP
0000
0000
0000
0000
0000
7FE0
1980
1980
1980
1980
1980
7180
0000
0000
ENDCHAR

STARTCHAR psi
ENCODING 241
SWIDTH 860 0
DWIDTH 12 0
BBX 12 14 0 -2
BITMAP
0000
0000
0000
0200
0200
6260
32C0
32C0
34C0
34C0
1F80
0400
0400
0400
ENDCHAR

STARTCHAR rho
ENCODING 242
SWIDTH 860 0
DWIDTH 12 0
BBX 12 14 0 -2
BITMAP
0000
0000
0000
0000
0000
07C0
0860
1860
1860
1860
1FC0
1800
1800
0000
ENDCHAR

STARTCHAR sigma
ENCODING 243
SWIDTH 860 0
DWIDTH 12 0
BBX 12 14 0 -2
BITMAP
0000
0000
0000
0000
0000
07E0
0D80
18C0
18C0
18C0
18C0
0F80
0000
0000
ENDCHAR

STARTCHAR tau
ENCODING 244
SWIDTH 860 0
DWIDTH 12 0
BBX 12 14 0 -2
BITMAP
0000
0000
0000
0000
0040
3F80
4C00
0C00
0C00
0C00
0C80
0700
0000
0000
ENDCHAR

STARTCHAR florin
ENCODING 246
SWIDTH 860 0
DWIDTH 12 0
BBX 12 14 0 -2
BITMAP
0000
0000
0000
0380
0600
0600
1F80
0600
0600
0600
0600
0600
0600
1C00
ENDCHAR

STARTCHAR omega
ENCODING 247
SWIDTH 860 0
DWIDTH 12 0
BBX 12 14 0 -2
BITMAP
0000
0000
0000
0000
0000
0880
18C0
1AC0
1AC0
1AC0
1AC0
0D80
0000
0000
ENDCHAR

STARTCHAR xi
ENCODING 248
SWIDTH 860 0
DWIDTH 12 0
BBX 12 14 0 -2
BITMAP
0000
0000
0800
0780
0C00
0C00
0400
1F00
3000
3000
3800
1FC0
00C0
0180
ENDCHAR

STARTCHAR upsilon
ENCODING 249
SWIDTH 860 0
DWIDTH 12 0
BBX 12 14 0 -2
BITMAP
0000
0000
0000
0000
0000
70E0
18E0
18C0
1980
1900
1B00
0E00
0000
0000
ENDCHAR

STARTCHAR zeta
ENCODING 250
SWIDTH 860 0
DWIDTH 12 0
BBX 12 14 0 -2
BITMAP
0000
0000
0800
0780
0C00
1800
1000
3000
3000
3000
3800
1FC0
00C0
0180
ENDCHAR

STARTCHAR arrowleft
ENCODING 251
SWIDTH 860 0
DWIDTH 12 0
BBX 12 14 0 -2
BITMAP
0000
0000
0000
0000
0400
0800
1000
3FF0
1000
0800
0400
0000
0000
0000
ENDCHAR

STARTCHAR arrowup
ENCODING 252
SWIDTH 860 0
DWIDTH 12 0
BBX 12 14 0 -2
BITMAP
0000
0000
0600
0F00
1680
2640
0600
0600
0600
0600
0600
0600
0600
0000
ENDCHAR

STARTCHAR arrowright
ENCODING 253
SWIDTH 860 0
DWIDTH 12 0
BBX 12 14 0 -2
BITMAP
0000
0000
0000
0000
0200
0100
0080
FFC0
0080
0100
0200
0000
0000
0000
ENDCHAR

STARTCHAR arrowdown
ENCODING 254
SWIDTH 860 0
DWIDTH 12 0
BBX 12 14 0 -2
BITMAP
0000
0600
0600
0600
0600
0600
0600
0600
2640
1680
0F00
0600
0000
0000
ENDCHAR

ENDFONT
