STARTFONT 2.1
FONT -Adobe-ITC Bookman-Demi-R-Normal--19-140-100-100-P-113-ISO8859-1
SIZE 14 100 100
FONTBOUNDINGBOX 27 19 -2 -5

STARTPROPERTIES 26
_DEC_DEVICE_FONTNAMES "PS=Bookman-Demi"
FONTNAME_REGISTRY ""
FAMILY_NAME "ITC Bookman"
FOUNDRY "Adobe"
WEIGHT_NAME "Demi"
SLANT "R"
SETWIDTH_NAME "Normal"
ADD_STYLE_NAME ""
PIXEL_SIZE 19
POINT_SIZE 140
RESOLUTION_X 100
RESOLUTION_Y 100
SPACING "P"
AVERAGE_WIDTH 113
CHARSET_REGISTRY "ISO8859"
CHARSET_ENCODING "1"
CHARSET_COLLECTIONS "ASCII ISO8859-1 ADOBE-STANDARD"
FULL_NAME "ITC Bookman Demi"
COPYRIGHT "Copyright (c) 1991 Adobe Systems, Inc."
CAP_HEIGHT 13
X_HEIGHT 9
WEIGHT 10
QUAD_WIDTH 14
DEFAULT_CHAR 0
FONT_DESCENT 5
FONT_ASCENT 14
ENDPROPERTIES

CHARS 190

STARTCHAR space
ENCODING 32
SWIDTH 399 0
DWIDTH 7 0
BBX 1 1 0 0
BITMAP
00
ENDCHAR

STARTCHAR exclam
ENCODING 33
SWIDTH 365 0
DWIDTH 7 0
BBX 3 13 2 0
BITMAP
40
E0
E0
E0
E0
E0
E0
E0
40
40
00
E0
E0
ENDCHAR

STARTCHAR quotedbl
ENCODING 34
SWIDTH 431 0
DWIDTH 8 0
BBX 5 5 1 8
BITMAP
D8
D8
D8
D8
D8
ENDCHAR

STARTCHAR numbersign
ENCODING 35
SWIDTH 647 0
DWIDTH 12 0
BBX 10 13 1 0
BITMAP
1980
1980
1980
1980
7FC0
3300
3300
3300
FF80
6600
6600
6600
6600
ENDCHAR

STARTCHAR dollar
ENCODING 36
SWIDTH 667 0
DWIDTH 12 0
BBX 9 13 1 0
BITMAP
0C00
0C00
7F00
E380
E180
FC00
7F00
0F80
C380
F380
7F00
0C00
0C00
ENDCHAR

STARTCHAR percent
ENCODING 37
SWIDTH 936 0
DWIDTH 18 0
BBX 16 13 1 0
BITMAP
3830
7C30
EE60
C660
C6C0
EEDC
7DBE
3B77
0363
0663
0677
0C3E
0C1C
ENDCHAR

STARTCHAR ampersand
ENCODING 38
SWIDTH 792 0
DWIDTH 15 0
BBX 13 13 1 0
BITMAP
1E00
3F00
7300
7300
3EF8
3C70
7E60
E760
E3C0
E1C0
F3E0
7F78
3E38
ENDCHAR

STARTCHAR quoteright
ENCODING 39
SWIDTH 324 0
DWIDTH 6 0
BBX 3 4 1 9
BITMAP
E0
E0
60
C0
ENDCHAR

STARTCHAR parenleft
ENCODING 40
SWIDTH 310 0
DWIDTH 7 0
BBX 5 16 1 -3
BITMAP
38
70
60
E0
E0
E0
E0
E0
E0
E0
E0
E0
E0
60
70
38
ENDCHAR

STARTCHAR parenright
ENCODING 41
SWIDTH 310 0
DWIDTH 7 0
BBX 5 16 1 -3
BITMAP
E0
70
30
38
38
38
38
38
38
38
38
38
38
30
70
E0
ENDCHAR

STARTCHAR asterisk
ENCODING 42
SWIDTH 466 0
DWIDTH 9 0
BBX 5 5 2 8
BITMAP
20
F8
70
F8
20
ENDCHAR

STARTCHAR plus
ENCODING 43
SWIDTH 620 0
DWIDTH 11 0
BBX 8 8 1 1
BITMAP
18
18
18
FF
FF
18
18
18
ENDCHAR

STARTCHAR comma
ENCODING 44
SWIDTH 342 0
DWIDTH 6 0
BBX 3 4 2 -2
BITMAP
E0
E0
60
C0
ENDCHAR

STARTCHAR minus
ENCODING 45
SWIDTH 606 0
DWIDTH 11 0
BBX 9 2 1 4
BITMAP
FF80
FF80
ENDCHAR

STARTCHAR period
ENCODING 46
SWIDTH 346 0
DWIDTH 6 0
BBX 3 2 2 0
BITMAP
E0
E0
ENDCHAR

STARTCHAR slash
ENCODING 47
SWIDTH 380 0
DWIDTH 8 0
BBX 7 15 0 -2
BITMAP
06
06
0C
0C
0C
18
18
18
30
30
60
60
60
C0
C0
ENDCHAR

STARTCHAR zero
ENCODING 48
SWIDTH 667 0
DWIDTH 12 0
BBX 10 13 1 0
BITMAP
1E00
7F80
7380
E1C0
E1C0
E1C0
E1C0
E1C0
E1C0
E1C0
7380
7F80
1E00
ENDCHAR

STARTCHAR one
ENCODING 49
SWIDTH 667 0
DWIDTH 12 0
BBX 7 13 3 0
BITMAP
18
F8
F8
38
38
38
38
38
38
38
38
7C
FE
ENDCHAR

STARTCHAR two
ENCODING 50
SWIDTH 667 0
DWIDTH 12 0
BBX 10 13 1 0
BITMAP
3F00
7F80
E3C0
F1C0
61C0
03C0
0380
0700
0E00
18C0
7FC0
FFC0
FF80
ENDCHAR

STARTCHAR three
ENCODING 51
SWIDTH 667 0
DWIDTH 12 0
BBX 10 13 1 0
BITMAP
3F00
FF80
F3C0
E1C0
0380
1F00
1F80
03C0
01C0
61C0
F3C0
FF80
7F00
ENDCHAR

STARTCHAR four
ENCODING 52
SWIDTH 667 0
DWIDTH 12 0
BBX 10 13 1 0
BITMAP
0300
0700
0F00
0F00
1F00
3700
6700
C700
FFC0
FFC0
0700
0F80
1FC0
ENDCHAR

STARTCHAR five
ENCODING 53
SWIDTH 667 0
DWIDTH 12 0
BBX 10 14 1 0
BITMAP
0180
7F80
7F80
7F00
6000
7F00
7F80
63C0
01C0
01C0
61C0
F3C0
7F80
3F00
ENDCHAR

STARTCHAR six
ENCODING 54
SWIDTH 667 0
DWIDTH 12 0
BBX 10 13 1 0
BITMAP
1F00
7F80
71C0
E180
E000
FF00
FF80
F3C0
E1C0
E1C0
73C0
7F80
1E00
ENDCHAR

STARTCHAR seven
ENCODING 55
SWIDTH 667 0
DWIDTH 12 0
BBX 10 13 1 0
BITMAP
FFC0
FFC0
E1C0
C380
0700
0700
0E00
1E00
1C00
1C00
3C00
3C00
3C00
ENDCHAR

STARTCHAR eight
ENCODING 56
SWIDTH 667 0
DWIDTH 12 0
BBX 10 13 1 0
BITMAP
1E00
7F80
F3C0
E1C0
F1C0
7F80
3F00
7780
E3C0
E1C0
F3C0
7F80
3F00
ENDCHAR

STARTCHAR nine
ENCODING 57
SWIDTH 667 0
DWIDTH 12 0
BBX 10 13 1 0
BITMAP
3F00
7F80
F3C0
E1C0
E1C0
F3C0
7FC0
3FC0
01C0
61C0
E380
7F80
3E00
ENDCHAR

STARTCHAR colon
ENCODING 58
SWIDTH 346 0
DWIDTH 6 0
BBX 3 9 2 0
BITMAP
E0
E0
00
00
00
00
00
E0
E0
ENDCHAR

STARTCHAR semicolon
ENCODING 59
SWIDTH 348 0
DWIDTH 6 0
BBX 3 11 2 -2
BITMAP
E0
E0
00
00
00
00
00
E0
E0
60
C0
ENDCHAR

STARTCHAR less
ENCODING 60
SWIDTH 620 0
DWIDTH 11 0
BBX 10 9 0 0
BITMAP
00C0
07C0
3F00
F800
C000
F800
3F00
07C0
00C0
ENDCHAR

STARTCHAR equal
ENCODING 61
SWIDTH 620 0
DWIDTH 11 0
BBX 9 5 1 2
BITMAP
FF80
FF80
0000
FF80
FF80
ENDCHAR

STARTCHAR greater
ENCODING 62
SWIDTH 620 0
DWIDTH 11 0
BBX 10 9 1 0
BITMAP
C000
F800
3F00
07C0
00C0
07C0
3F00
F800
C000
ENDCHAR

STARTCHAR question
ENCODING 63
SWIDTH 669 0
DWIDTH 12 0
BBX 10 13 1 0
BITMAP
1E00
7F80
E3C0
F1C0
61C0
03C0
0F80
1E00
1C00
1C00
0000
1C00
1C00
ENDCHAR

STARTCHAR at
ENCODING 64
SWIDTH 819 0
DWIDTH 15 0
BBX 13 13 1 0
BITMAP
0F80
38E0
6030
47D0
CCD8
8CC8
9888
9998
D990
4F70
6000
38E0
0F80
ENDCHAR

STARTCHAR A
ENCODING 65
SWIDTH 729 0
DWIDTH 13 0
BBX 15 13 -1 0
BITMAP
0380
0380
07C0
07C0
0EE0
0EE0
0C70
1FF0
1FF0
3838
3038
783C
FCFE
ENDCHAR

STARTCHAR B
ENCODING 66
SWIDTH 720 0
DWIDTH 14 0
BBX 13 13 0 0
BITMAP
FFC0
7FF0
3878
3838
3878
3FF0
3FE0
3870
3838
3838
3878
7FF0
FFE0
ENDCHAR

STARTCHAR C
ENCODING 67
SWIDTH 731 0
DWIDTH 14 0
BBX 13 13 0 0
BITMAP
1FB0
7FF0
7838
F018
E000
E000
E000
E000
E000
F018
7838
7FF0
1FC0
ENDCHAR

STARTCHAR D
ENCODING 68
SWIDTH 782 0
DWIDTH 15 0
BBX 14 13 0 0
BITMAP
FFC0
7FF0
3878
3838
383C
381C
381C
381C
383C
3838
3878
7FF0
FFE0
ENDCHAR

STARTCHAR E
ENCODING 69
SWIDTH 724 0
DWIDTH 13 0
BBX 13 13 0 0
BITMAP
FFF0
7FF0
3838
3818
3880
3F80
3F80
3880
3800
3818
3838
7FF0
FFF0
ENDCHAR

STARTCHAR F
ENCODING 70
SWIDTH 687 0
DWIDTH 12 0
BBX 12 13 0 0
BITMAP
FFE0
7FE0
3870
3830
3880
3F80
3F80
3880
3800
3800
3800
7C00
FE00
ENDCHAR

STARTCHAR G
ENCODING 71
SWIDTH 780 0
DWIDTH 14 0
BBX 13 13 1 0
BITMAP
1F60
7FE0
7070
F030
E000
E000
E000
E1F8
E070
F070
7070
7FF0
1FB0
ENDCHAR

STARTCHAR H
ENCODING 72
SWIDTH 820 0
DWIDTH 15 0
BBX 15 13 0 0
BITMAP
FEFE
7C7C
3838
3838
3838
3FF8
3FF8
3838
3838
3838
3838
7C7C
FEFE
ENDCHAR

STARTCHAR I
ENCODING 73
SWIDTH 399 0
DWIDTH 8 0
BBX 7 13 0 0
BITMAP
FE
7C
38
38
38
38
38
38
38
38
38
7C
FE
ENDCHAR

STARTCHAR J
ENCODING 74
SWIDTH 642 0
DWIDTH 12 0
BBX 12 13 0 0
BITMAP
07F0
03E0
01C0
01C0
01C0
01C0
01C0
61C0
F1C0
F1C0
E3C0
7F80
3F00
ENDCHAR

STARTCHAR K
ENCODING 75
SWIDTH 790 0
DWIDTH 15 0
BBX 15 13 0 0
BITMAP
FFFC
7CF0
38E0
39C0
3B80
3F00
3F80
3BC0
39E0
38F0
3878
7C7C
FEFE
ENDCHAR

STARTCHAR L
ENCODING 76
SWIDTH 641 0
DWIDTH 12 0
BBX 12 13 0 0
BITMAP
FE00
7C00
3800
3800
3800
3800
3800
3800
3800
3830
3870
7FE0
FFE0
ENDCHAR

STARTCHAR M
ENCODING 77
SWIDTH 945 0
DWIDTH 18 0
BBX 17 13 0 0
BITMAP
FC1F80
7C1F00
3C3E00
3E3E00
362E00
376E00
376E00
33CE00
33CE00
33CE00
318E00
799F00
FCBF80
ENDCHAR

STARTCHAR N
ENCODING 78
SWIDTH 745 0
DWIDTH 14 0
BBX 15 13 0 0
BITMAP
FC7E
7C3C
3E18
3E18
3F18
3718
3398
33D8
31D8
31F8
30F8
7878
FC78
ENDCHAR

STARTCHAR O
ENCODING 79
SWIDTH 803 0
DWIDTH 15 0
BBX 13 13 1 0
BITMAP
1FC0
7FF0
7070
F078
E038
E038
E038
E038
E038
F078
7070
7FF0
1FC0
ENDCHAR

STARTCHAR P
ENCODING 80
SWIDTH 659 0
DWIDTH 12 0
BBX 12 13 0 0
BITMAP
FFC0
7FE0
38F0
3870
3870
38F0
3FE0
3FC0
3800
3800
3800
7C00
FE00
ENDCHAR

STARTCHAR Q
ENCODING 81
SWIDTH 790 0
DWIDTH 15 0
BBX 13 17 1 -4
BITMAP
1FC0
7FF0
7070
F078
E038
E038
E038
E038
E038
F3F8
7F70
3FE0
1FF0
6038
7038
7FF0
1FC0
ENDCHAR

STARTCHAR R
ENCODING 82
SWIDTH 776 0
DWIDTH 14 0
BBX 14 13 0 0
BITMAP
FFE0
7FF0
3878
3838
3838
3878
3FF0
3BC0
39E0
38E0
38F0
7C78
FE3C
ENDCHAR

STARTCHAR S
ENCODING 83
SWIDTH 660 0
DWIDTH 13 0
BBX 11 13 1 0
BITMAP
3D80
FF80
E1C0
E0C0
F800
7E00
1F80
07C0
01E0
C0E0
E0E0
7FC0
6F80
ENDCHAR

STARTCHAR T
ENCODING 84
SWIDTH 694 0
DWIDTH 13 0
BBX 13 13 0 0
BITMAP
7FF0
FFF8
E738
C718
0700
0700
0700
0700
0700
0700
0700
0F80
1FC0
ENDCHAR

STARTCHAR U
ENCODING 85
SWIDTH 737 0
DWIDTH 14 0
BBX 14 13 0 0
BITMAP
FEFC
7C78
3830
3830
3830
3830
3830
3830
3830
3830
3C70
1FE0
0FC0
ENDCHAR

STARTCHAR V
ENCODING 86
SWIDTH 696 0
DWIDTH 13 0
BBX 14 13 -1 0
BITMAP
FCFC
7878
3830
3C70
1C60
1C60
1E60
0EC0
0EC0
0FC0
0780
0780
0780
ENDCHAR

STARTCHAR W
ENCODING 87
SWIDTH 929 0
DWIDTH 18 0
BBX 18 13 0 0
BITMAP
FBF7C0
79E780
71C300
78C300
38E700
38E600
3DE600
1DF600
1D7400
1F7C00
0F3C00
0F3C00
0E3800
ENDCHAR

STARTCHAR X
ENCODING 88
SWIDTH 769 0
DWIDTH 13 0
BBX 13 13 0 0
BITMAP
FCF8
7870
3CE0
1DC0
0F80
0F80
0700
0F80
0FC0
1DC0
39E0
70F0
F9F8
ENDCHAR

STARTCHAR Y
ENCODING 89
SWIDTH 683 0
DWIDTH 13 0
BBX 13 13 0 0
BITMAP
FCF8
7870
3C60
3CC0
1EC0
0F80
0F80
0700
0700
0700
0700
0F80
1FC0
ENDCHAR

STARTCHAR Z
ENCODING 90
SWIDTH 636 0
DWIDTH 13 0
BBX 12 13 0 0
BITMAP
7FF0
7FF0
E1E0
E3C0
0380
0780
0F00
1E00
1C00
3C30
7870
FFF0
FFE0
ENDCHAR

STARTCHAR bracketleft
ENCODING 91
SWIDTH 306 0
DWIDTH 6 0
BBX 4 16 1 -3
BITMAP
F0
E0
E0
E0
E0
E0
E0
E0
E0
E0
E0
E0
E0
E0
E0
F0
ENDCHAR

STARTCHAR backslash
ENCODING 92
SWIDTH 593 0
DWIDTH 11 0
BBX 7 13 2 0
BITMAP
C0
C0
E0
60
70
30
38
18
1C
0C
0E
06
06
ENDCHAR

STARTCHAR bracketright
ENCODING 93
SWIDTH 306 0
DWIDTH 6 0
BBX 4 16 1 -3
BITMAP
F0
70
70
70
70
70
70
70
70
70
70
70
70
70
70
F0
ENDCHAR

STARTCHAR asciicircum
ENCODING 94
SWIDTH 620 0
DWIDTH 11 0
BBX 9 8 1 5
BITMAP
1C00
1C00
3600
3600
6300
6300
C180
C180
ENDCHAR

STARTCHAR underscore
ENCODING 95
SWIDTH 902 0
DWIDTH 9 0
BBX 9 2 0 -4
BITMAP
FF80
FF80
ENDCHAR

STARTCHAR quoteleft
ENCODING 96
SWIDTH 324 0
DWIDTH 6 0
BBX 3 4 1 9
BITMAP
60
C0
E0
E0
ENDCHAR

STARTCHAR a
ENCODING 97
SWIDTH 581 0
DWIDTH 11 0
BBX 10 9 1 0
BITMAP
3E00
FF00
E380
1F80
7F80
E380
E380
FFC0
7DC0
ENDCHAR

STARTCHAR b
ENCODING 98
SWIDTH 601 0
DWIDTH 11 0
BBX 11 13 0 0
BITMAP
3000
F000
F000
7000
7780
7FC0
79E0
70E0
70E0
70E0
78E0
7FC0
6F80
ENDCHAR

STARTCHAR c
ENCODING 99
SWIDTH 570 0
DWIDTH 11 0
BBX 9 9 1 0
BITMAP
3F00
7F80
F380
E380
E000
E000
F180
7F80
3F00
ENDCHAR

STARTCHAR d
ENCODING 100
SWIDTH 643 0
DWIDTH 12 0
BBX 11 13 1 0
BITMAP
00C0
03C0
03C0
01C0
3DC0
7FC0
F3C0
E1C0
E1C0
E1C0
F3C0
7FC0
3EE0
ENDCHAR

STARTCHAR e
ENCODING 101
SWIDTH 568 0
DWIDTH 10 0
BBX 9 9 1 0
BITMAP
3E00
7F00
E380
FF80
E000
E000
F380
7F00
3E00
ENDCHAR

STARTCHAR f
ENCODING 102
SWIDTH 385 0
DWIDTH 7 0
BBX 9 13 0 0
BITMAP
0F00
1F80
3980
3800
FE00
FE00
3800
3800
3800
3800
3800
7C00
FE00
ENDCHAR

STARTCHAR g
ENCODING 103
SWIDTH 574 0
DWIDTH 10 0
BBX 11 16 0 -5
BITMAP
00E0
01E0
3F00
7B80
71C0
71C0
3B80
7F00
6000
7F00
3FC0
7FC0
C0E0
E0E0
7FC0
3F80
ENDCHAR

STARTCHAR h
ENCODING 104
SWIDTH 668 0
DWIDTH 12 0
BBX 13 13 0 0
BITMAP
1800
7800
7800
3800
3BC0
3FE0
3CE0
38E0
38E0
38E0
38E0
7DF0
FDF8
ENDCHAR

STARTCHAR i
ENCODING 105
SWIDTH 355 0
DWIDTH 8 0
BBX 7 12 1 0
BITMAP
38
38
00
18
78
78
38
38
38
38
7C
FE
ENDCHAR

STARTCHAR j
ENCODING 106
SWIDTH 345 0
DWIDTH 7 0
BBX 7 17 -1 -5
BITMAP
0E
0E
00
06
1E
1E
0E
0E
0E
0E
0E
0E
0E
0E
CE
EC
78
ENDCHAR

STARTCHAR k
ENCODING 107
SWIDTH 645 0
DWIDTH 12 0
BBX 12 13 0 0
BITMAP
1800
7800
7800
3800
39F0
39C0
3B80
3F00
3F00
3F80
3BC0
79E0
FDF0
ENDCHAR

STARTCHAR l
ENCODING 108
SWIDTH 343 0
DWIDTH 6 0
BBX 7 13 0 0
BITMAP
18
78
78
38
38
38
38
38
38
38
38
7C
FE
ENDCHAR

STARTCHAR m
ENCODING 109
SWIDTH 973 0
DWIDTH 18 0
BBX 19 9 0 0
BITMAP
1BEF00
7FFF80
7CF380
38E380
38E380
38E380
38E380
7DF7C0
FDF7E0
ENDCHAR

STARTCHAR n
ENCODING 110
SWIDTH 672 0
DWIDTH 12 0
BBX 13 9 0 0
BITMAP
1BC0
7FE0
7CE0
38E0
38E0
38E0
38E0
7DF0
FDF8
ENDCHAR

STARTCHAR o
ENCODING 111
SWIDTH 616 0
DWIDTH 11 0
BBX 10 9 1 0
BITMAP
3F00
7F80
7380
E1C0
E1C0
E1C0
7380
7F80
3F00
ENDCHAR

STARTCHAR p
ENCODING 112
SWIDTH 639 0
DWIDTH 12 0
BBX 12 14 0 -5
BITMAP
1BC0
7FE0
7CF0
3870
3870
3870
3CF0
3FE0
3BC0
3800
3800
3800
7C00
FE00
ENDCHAR

STARTCHAR q
ENCODING 113
SWIDTH 626 0
DWIDTH 12 0
BBX 12 14 1 -5
BITMAP
3DC0
7FC0
F3C0
E1C0
E1C0
E1C0
F3C0
7FC0
3DC0
01C0
01C0
01C0
03E0
07F0
ENDCHAR

STARTCHAR r
ENCODING 114
SWIDTH 462 0
DWIDTH 10 0
BBX 9 9 1 0
BITMAP
3B00
FF80
FB80
3800
3800
3800
3800
7C00
FE00
ENDCHAR

STARTCHAR s
ENCODING 115
SWIDTH 512 0
DWIDTH 10 0
BBX 9 9 1 0
BITMAP
7D80
FF80
E180
FC00
7F00
0F80
E380
FF80
DF00
ENDCHAR

STARTCHAR t
ENCODING 116
SWIDTH 464 0
DWIDTH 9 0
BBX 9 12 0 0
BITMAP
1800
1800
3800
FF00
FF00
3800
3800
3800
3800
3980
3F80
1E00
ENDCHAR

STARTCHAR u
ENCODING 117
SWIDTH 660 0
DWIDTH 12 0
BBX 11 9 1 0
BITMAP
30C0
F3C0
F3C0
71C0
71C0
71C0
71C0
7BE0
3EE0
ENDCHAR

STARTCHAR v
ENCODING 118
SWIDTH 585 0
DWIDTH 11 0
BBX 12 9 0 0
BITMAP
FDF0
78E0
3DC0
1D80
1F80
0F00
0F00
0600
0600
ENDCHAR

STARTCHAR w
ENCODING 119
SWIDTH 803 0
DWIDTH 14 0
BBX 15 9 0 0
BITMAP
F7BE
739C
7398
3998
3BD0
3AF0
1EF0
1CE0
1CE0
ENDCHAR

STARTCHAR x
ENCODING 120
SWIDTH 597 0
DWIDTH 11 0
BBX 11 9 0 0
BITMAP
FDE0
79C0
3D80
1F00
0E00
1F00
3780
73C0
FBE0
ENDCHAR

STARTCHAR y
ENCODING 121
SWIDTH 607 0
DWIDTH 10 0
BBX 11 14 0 -5
BITMAP
FBE0
71C0
7180
3B80
3B80
1B00
1F00
0E00
0E00
0C00
4C00
FC00
F800
7000
ENDCHAR

STARTCHAR z
ENCODING 122
SWIDTH 565 0
DWIDTH 10 0
BBX 9 9 1 0
BITMAP
7F80
E780
CF00
0E00
1C00
3800
7980
F380
FF00
ENDCHAR

STARTCHAR braceleft
ENCODING 123
SWIDTH 314 0
DWIDTH 7 0
BBX 5 16 1 -3
BITMAP
38
60
60
60
60
60
60
C0
C0
60
60
60
60
60
60
38
ENDCHAR

STARTCHAR bar
ENCODING 124
SWIDTH 620 0
DWIDTH 12 0
BBX 2 13 5 0
BITMAP
C0
C0
C0
C0
C0
C0
C0
C0
C0
C0
C0
C0
C0
ENDCHAR

STARTCHAR braceright
ENCODING 125
SWIDTH 314 0
DWIDTH 7 0
BBX 5 16 1 -3
BITMAP
E0
30
30
30
30
30
30
18
18
30
30
30
30
30
30
E0
ENDCHAR

STARTCHAR asciitilde
ENCODING 126
SWIDTH 620 0
DWIDTH 11 0
BBX 9 3 1 3
BITMAP
7180
FF80
C700
ENDCHAR

STARTCHAR exclamdown
ENCODING 161
SWIDTH 365 0
DWIDTH 7 0
BBX 3 13 2 -4
BITMAP
E0
E0
00
40
40
E0
E0
E0
E0
E0
E0
E0
40
ENDCHAR

STARTCHAR cent
ENCODING 162
SWIDTH 667 0
DWIDTH 12 0
BBX 8 13 2 0
BITMAP
18
18
18
7E
FF
E6
C0
E2
FF
7E
18
18
18
ENDCHAR

STARTCHAR sterling
ENCODING 163
SWIDTH 667 0
DWIDTH 12 0
BBX 11 13 1 0
BITMAP
0F80
3FE0
38E0
78E0
3800
FF00
FF00
1C00
1C00
7CC0
FCE0
DFE0
73C0
ENDCHAR

STARTCHAR currency
ENCODING 164
SWIDTH 511 0
DWIDTH 12 0
BBX 9 9 1 3
BITMAP
C180
DD80
7700
6300
4100
6300
7700
DD80
C180
ENDCHAR

STARTCHAR yen
ENCODING 165
SWIDTH 667 0
DWIDTH 12 0
BBX 13 13 0 0
BITMAP
FCF8
7870
3860
3CC0
1E80
7FF0
0700
0700
7FF0
0700
0700
0F80
1FC0
ENDCHAR

STARTCHAR brokenbar
ENCODING 166
SWIDTH 620 0
DWIDTH 12 0
BBX 2 13 5 0
BITMAP
C0
C0
C0
C0
C0
00
00
00
C0
C0
C0
C0
C0
ENDCHAR

STARTCHAR section
ENCODING 167
SWIDTH 595 0
DWIDTH 11 0
BBX 9 16 1 -3
BITMAP
7F00
FF80
E380
E000
FC00
7F00
CF80
E380
F980
7F00
1F80
0780
E380
E380
FF00
7E00
ENDCHAR

STARTCHAR dieresis
ENCODING 168
SWIDTH 510 0
DWIDTH 10 0
BBX 6 2 2 10
BITMAP
CC
CC
ENDCHAR

STARTCHAR copyright
ENCODING 169
SWIDTH 747 0
DWIDTH 15 0
BBX 13 13 1 0
BITMAP
0F80
38E0
6030
4F90
DCD8
98C8
9808
9808
DCD8
4F90
6030
38E0
0F80
ENDCHAR

STARTCHAR ordfeminine
ENCODING 170
SWIDTH 400 0
DWIDTH 8 0
BBX 6 8 1 5
BITMAP
70
D8
58
F8
D8
FC
00
FC
ENDCHAR

STARTCHAR guillemotleft
ENCODING 171
SWIDTH 394 0
DWIDTH 9 0
BBX 7 7 1 1
BITMAP
12
36
6C
D8
6C
36
12
ENDCHAR

STARTCHAR logicalnot
ENCODING 172
SWIDTH 606 0
DWIDTH 11 0
BBX 9 6 1 1
BITMAP
FF80
FF80
0180
0180
0180
0180
ENDCHAR

STARTCHAR hyphen
ENCODING 173
SWIDTH 360 0
DWIDTH 7 0
BBX 6 2 0 4
BITMAP
FC
FC
ENDCHAR

STARTCHAR registered
ENCODING 174
SWIDTH 747 0
DWIDTH 15 0
BBX 13 13 1 0
BITMAP
0F80
38E0
6030
5F90
CCD8
8CC8
8F88
8D88
CCD8
5CD0
6030
38E0
0F80
ENDCHAR

STARTCHAR macron
ENCODING 175
SWIDTH 451 0
DWIDTH 8 0
BBX 6 2 1 10
BITMAP
FC
FC
ENDCHAR

STARTCHAR degree
ENCODING 176
SWIDTH 400 0
DWIDTH 7 0
BBX 6 6 0 7
BITMAP
78
CC
84
84
CC
78
ENDCHAR

STARTCHAR plusminus
ENCODING 177
SWIDTH 620 0
DWIDTH 11 0
BBX 8 9 1 0
BITMAP
18
18
FF
FF
18
18
00
FF
FF
ENDCHAR

STARTCHAR twosuperior
ENCODING 178
SWIDTH 667 0
DWIDTH 7 0
BBX 7 8 0 5
BITMAP
7C
CE
C6
0C
18
30
7E
FE
ENDCHAR

STARTCHAR threesuperior
ENCODING 179
SWIDTH 667 0
DWIDTH 7 0
BBX 7 8 0 5
BITMAP
7C
C6
C6
1C
0E
C6
C6
7C
ENDCHAR

STARTCHAR acute
ENCODING 180
SWIDTH 393 0
DWIDTH 7 0
BBX 4 4 2 10
BITMAP
30
70
E0
80
ENDCHAR

STARTCHAR mu
ENCODING 181
SWIDTH 660 0
DWIDTH 12 0
BBX 11 14 1 -5
BITMAP
30C0
F3C0
F3C0
71C0
71C0
71C0
71C0
7BE0
7EE0
6000
E000
F000
F000
6000
ENDCHAR

STARTCHAR paragraph
ENCODING 182
SWIDTH 791 0
DWIDTH 15 0
BBX 12 15 1 -2
BITMAP
1FF0
7FF0
7EC0
FEC0
FEC0
FEC0
7EC0
7EC0
1EC0
06C0
06C0
06C0
06C0
1FF0
1FF0
ENDCHAR

STARTCHAR periodcentered
ENCODING 183
SWIDTH 346 0
DWIDTH 6 0
BBX 3 2 2 4
BITMAP
E0
E0
ENDCHAR

STARTCHAR cedilla
ENCODING 184
SWIDTH 352 0
DWIDTH 7 0
BBX 5 5 1 -5
BITMAP
30
30
98
F8
70
ENDCHAR

STARTCHAR onesuperior
ENCODING 185
SWIDTH 667 0
DWIDTH 7 0
BBX 6 8 1 5
BITMAP
30
F0
30
30
30
30
30
FC
ENDCHAR

STARTCHAR ordmasculine
ENCODING 186
SWIDTH 400 0
DWIDTH 8 0
BBX 6 8 1 5
BITMAP
78
CC
CC
CC
CC
78
00
FC
ENDCHAR

STARTCHAR guillemotright
ENCODING 187
SWIDTH 394 0
DWIDTH 9 0
BBX 7 7 1 1
BITMAP
90
D8
6C
36
6C
D8
90
ENDCHAR

STARTCHAR onequarter
ENCODING 188
SWIDTH 111 0
DWIDTH 18 0
BBX 16 13 1 0
BITMAP
3018
F018
3030
3060
3060
30C4
31CC
FD9C
032C
034C
06FF
0C0C
0C1E
ENDCHAR

STARTCHAR onehalf
ENCODING 189
SWIDTH 111 0
DWIDTH 18 0
BBX 17 13 0 0
BITMAP
301800
F01800
303000
306000
306000
30DF00
31F380
FDB180
030300
030600
060C00
0C1F80
0C3F80
ENDCHAR

STARTCHAR threequarters
ENCODING 190
SWIDTH 111 0
DWIDTH 18 0
BBX 17 13 0 0
BITMAP
7C0C00
C60C00
C61800
1C3000
0E3000
C66200
C6E600
7CCE00
019600
01A600
037F80
060600
060F00
ENDCHAR

STARTCHAR questiondown
ENCODING 191
SWIDTH 669 0
DWIDTH 12 0
BBX 10 13 1 -4
BITMAP
0E00
0E00
0000
0E00
0E00
1E00
7C00
F000
E180
E3C0
F1C0
7F80
1E00
ENDCHAR

STARTCHAR Agrave
ENCODING 192
SWIDTH 729 0
DWIDTH 13 0
BBX 15 14 -1 0
BITMAP
0600
0700
0380
0080
0000
0380
0380
06C0
0CE0
1FF0
1FF0
3038
783C
FCFE
ENDCHAR

STARTCHAR Aacute
ENCODING 193
SWIDTH 729 0
DWIDTH 13 0
BBX 15 14 -1 0
BITMAP
0180
0380
0700
0400
0000
0380
0380
06C0
0CE0
1FF0
1FF0
3038
783C
FCFE
ENDCHAR

STARTCHAR Acircumflex
ENCODING 194
SWIDTH 729 0
DWIDTH 13 0
BBX 15 14 -1 0
BITMAP
0300
0780
0CC0
0000
0000
0380
0380
06C0
0CE0
1FF0
1FF0
3038
783C
FCFE
ENDCHAR

STARTCHAR Atilde
ENCODING 195
SWIDTH 729 0
DWIDTH 13 0
BBX 15 14 -1 0
BITMAP
0720
0FE0
09C0
0000
0000
0380
0380
06C0
0CE0
1FF0
1FF0
3038
783C
FCFE
ENDCHAR

STARTCHAR Adieresis
ENCODING 196
SWIDTH 729 0
DWIDTH 13 0
BBX 15 13 -1 0
BITMAP
0CC0
0CC0
0000
0000
0380
0380
06C0
0CE0
1FF0
1FF0
3038
783C
FCFE
ENDCHAR

STARTCHAR Aring
ENCODING 197
SWIDTH 729 0
DWIDTH 13 0
BBX 15 13 -1 0
BITMAP
0380
06C0
0380
0000
0380
0380
06C0
0CE0
1FF0
1FF0
3038
783C
FCFE
ENDCHAR

STARTCHAR AE
ENCODING 198
SWIDTH 1149 0
DWIDTH 22 0
BBX 22 13 -1 0
BITMAP
007FF8
007FF8
00FC1C
01DC0C
01DC40
039FC0
07FFC0
07FC40
0E1C00
1C1C0C
1C1C1C
783FF8
F87FF8
ENDCHAR

STARTCHAR Ccedilla
ENCODING 199
SWIDTH 731 0
DWIDTH 14 0
BBX 13 18 0 -5
BITMAP
1FB0
7FF0
7838
F018
E000
E000
E000
E000
E000
F018
7838
7FF0
1FC0
0300
0300
0980
0F80
0700
ENDCHAR

STARTCHAR Egrave
ENCODING 200
SWIDTH 724 0
DWIDTH 13 0
BBX 13 14 0 0
BITMAP
0C00
0E00
0700
0100
0000
FFF0
7FF0
3838
3918
3F00
3918
3838
7FF0
FFF0
ENDCHAR

STARTCHAR Eacute
ENCODING 201
SWIDTH 724 0
DWIDTH 13 0
BBX 13 14 0 0
BITMAP
0300
0700
0E00
0800
0000
FFF0
7FF0
3838
3918
3F00
3918
3838
7FF0
FFF0
ENDCHAR

STARTCHAR Ecircumflex
ENCODING 202
SWIDTH 724 0
DWIDTH 13 0
BBX 13 14 0 0
BITMAP
0600
0F00
1980
0000
0000
FFF0
7FF0
3838
3918
3F00
3918
3838
7FF0
FFF0
ENDCHAR

STARTCHAR Edieresis
ENCODING 203
SWIDTH 724 0
DWIDTH 13 0
BBX 13 13 0 0
BITMAP
1980
1980
0000
0000
FFF0
7FF0
3838
3918
3F00
3918
3838
7FF0
FFF0
ENDCHAR

STARTCHAR Igrave
ENCODING 204
SWIDTH 399 0
DWIDTH 8 0
BBX 7 14 0 0
BITMAP
60
70
38
08
00
FE
7C
38
38
38
38
38
7C
FE
ENDCHAR

STARTCHAR Iacute
ENCODING 205
SWIDTH 399 0
DWIDTH 8 0
BBX 7 14 0 0
BITMAP
18
38
70
40
00
FE
7C
38
38
38
38
38
7C
FE
ENDCHAR

STARTCHAR Icircumflex
ENCODING 206
SWIDTH 399 0
DWIDTH 8 0
BBX 7 14 0 0
BITMAP
30
78
CC
00
00
FE
7C
38
38
38
38
38
7C
FE
ENDCHAR

STARTCHAR Idieresis
ENCODING 207
SWIDTH 399 0
DWIDTH 8 0
BBX 7 13 0 0
BITMAP
CC
CC
00
00
FE
7C
38
38
38
38
38
7C
FE
ENDCHAR

STARTCHAR Eth
ENCODING 208
SWIDTH 782 0
DWIDTH 15 0
BBX 14 13 0 0
BITMAP
FFC0
7FF0
3878
3838
383C
FF1C
FF1C
381C
383C
3838
3878
7FF0
FFE0
ENDCHAR

STARTCHAR Ntilde
ENCODING 209
SWIDTH 745 0
DWIDTH 14 0
BBX 15 14 0 0
BITMAP
0720
0FE0
09C0
0000
0000
F87E
7C18
3E18
3718
3398
31D8
30F8
7878
FC38
ENDCHAR

STARTCHAR Ograve
ENCODING 210
SWIDTH 803 0
DWIDTH 15 0
BBX 13 14 1 0
BITMAP
0C00
0E00
0700
0100
0000
1FC0
7FF0
7070
E038
E038
E038
7070
7FF0
1FC0
ENDCHAR

STARTCHAR Oacute
ENCODING 211
SWIDTH 803 0
DWIDTH 15 0
BBX 13 14 1 0
BITMAP
0300
0700
0E00
0800
0000
1FC0
7FF0
7070
E038
E038
E038
7070
7FF0
1FC0
ENDCHAR

STARTCHAR Ocircumflex
ENCODING 212
SWIDTH 803 0
DWIDTH 15 0
BBX 13 14 1 0
BITMAP
0600
0F00
1980
0000
0000
1FC0
7FF0
7070
E038
E038
E038
7070
7FF0
1FC0
ENDCHAR

STARTCHAR Otilde
ENCODING 213
SWIDTH 803 0
DWIDTH 15 0
BBX 13 14 1 0
BITMAP
0E40
1FC0
1380
0000
0000
1FC0
7FF0
7070
E038
E038
E038
7070
7FF0
1FC0
ENDCHAR

STARTCHAR Odieresis
ENCODING 214
SWIDTH 803 0
DWIDTH 15 0
BBX 13 13 1 0
BITMAP
1980
1980
0000
0000
1FC0
7FF0
7070
E038
E038
E038
7070
7FF0
1FC0
ENDCHAR

STARTCHAR multiply
ENCODING 215
SWIDTH 620 0
DWIDTH 11 0
BBX 8 8 1 1
BITMAP
C3
E7
7E
3C
3C
7E
E7
C3
ENDCHAR

STARTCHAR Oslash
ENCODING 216
SWIDTH 804 0
DWIDTH 15 0
BBX 13 15 1 -1
BITMAP
0018
1FF0
7DF0
70F0
F1B8
E1B8
E338
E638
E638
EC38
E878
7870
7DF0
7FC0
C000
ENDCHAR

STARTCHAR Ugrave
ENCODING 217
SWIDTH 737 0
DWIDTH 14 0
BBX 14 14 0 0
BITMAP
0600
0700
0380
0080
0000
FEFC
7C78
3830
3830
3830
3830
3C70
1FE0
0FC0
ENDCHAR

STARTCHAR Uacute
ENCODING 218
SWIDTH 737 0
DWIDTH 14 0
BBX 14 14 0 0
BITMAP
0180
0380
0700
0400
0000
FEFC
7C78
3830
3830
3830
3830
3C70
1FE0
0FC0
ENDCHAR

STARTCHAR Ucircumflex
ENCODING 219
SWIDTH 737 0
DWIDTH 14 0
BBX 14 14 0 0
BITMAP
0300
0780
0CC0
0000
0000
FEFC
7C78
3830
3830
3830
3830
3C70
1FE0
0FC0
ENDCHAR

STARTCHAR Udieresis
ENCODING 220
SWIDTH 737 0
DWIDTH 14 0
BBX 14 13 0 0
BITMAP
0CC0
0CC0
0000
0000
FEFC
7C78
3830
3830
3830
3830
3C70
1FE0
0FC0
ENDCHAR

STARTCHAR Yacute
ENCODING 221
SWIDTH 683 0
DWIDTH 13 0
BBX 13 14 0 0
BITMAP
0180
0380
0700
0400
0000
FCF8
7860
38C0
1D80
0F00
0700
0700
0F80
1FC0
ENDCHAR

STARTCHAR Thorn
ENCODING 222
SWIDTH 659 0
DWIDTH 12 0
BBX 12 13 0 0
BITMAP
FE00
7C00
3800
3F80
3FE0
38F0
3870
38F0
3FE0
3F80
3800
7C00
FE00
ENDCHAR

STARTCHAR germandbls
ENCODING 223
SWIDTH 652 0
DWIDTH 12 0
BBX 13 15 -1 -2
BITMAP
03E0
0FF0
1E70
1C70
3CE0
3DC0
1CF0
1C78
1C38
1C38
1C38
1DF0
1DE0
F800
F000
ENDCHAR

STARTCHAR agrave
ENCODING 224
SWIDTH 581 0
DWIDTH 11 0
BBX 10 14 1 0
BITMAP
1800
1C00
0E00
0200
0000
3E00
FF00
E380
1F80
7F80
E380
E380
FFC0
7DC0
ENDCHAR

STARTCHAR aacute
ENCODING 225
SWIDTH 581 0
DWIDTH 11 0
BBX 10 14 1 0
BITMAP
0600
0E00
1C00
1000
0000
3E00
FF00
E380
1F80
7F80
E380
E380
FFC0
7DC0
ENDCHAR

STARTCHAR acircumflex
ENCODING 226
SWIDTH 581 0
DWIDTH 11 0
BBX 10 13 1 0
BITMAP
0C00
1E00
3300
0000
3E00
FF00
E380
1F80
7F80
E380
E380
FFC0
7DC0
ENDCHAR

STARTCHAR atilde
ENCODING 227
SWIDTH 581 0
DWIDTH 11 0
BBX 10 13 1 0
BITMAP
3900
7F00
4E00
0000
3E00
FF00
E380
1F80
7F80
E380
E380
FFC0
7DC0
ENDCHAR

STARTCHAR adieresis
ENCODING 228
SWIDTH 581 0
DWIDTH 11 0
BBX 10 12 1 0
BITMAP
3300
3300
0000
3E00
FF00
E380
1F80
7F80
E380
E380
FFC0
7DC0
ENDCHAR

STARTCHAR aring
ENCODING 229
SWIDTH 581 0
DWIDTH 11 0
BBX 10 13 1 0
BITMAP
1C00
3600
1C00
0000
3E00
FF00
E380
1F80
7F80
E380
E380
FFC0
7DC0
ENDCHAR

STARTCHAR ae
ENCODING 230
SWIDTH 873 0
DWIDTH 16 0
BBX 15 9 1 0
BITMAP
7FF8
F3DC
E38E
0FFE
7B80
E380
E38E
FFDC
7CF8
ENDCHAR

STARTCHAR ccedilla
ENCODING 231
SWIDTH 570 0
DWIDTH 11 0
BBX 9 14 1 -5
BITMAP
3F00
7F80
F380
E380
E000
E000
F180
7F80
3F00
0C00
0C00
2600
3E00
1C00
ENDCHAR

STARTCHAR egrave
ENCODING 232
SWIDTH 568 0
DWIDTH 10 0
BBX 9 14 1 0
BITMAP
3000
3800
1C00
0400
0000
3E00
7F00
E380
FF80
E000
E000
F380
7F00
3E00
ENDCHAR

STARTCHAR eacute
ENCODING 233
SWIDTH 568 0
DWIDTH 10 0
BBX 9 14 1 0
BITMAP
0C00
1C00
3800
2000
0000
3E00
7F00
E380
FF80
E000
E000
F380
7F00
3E00
ENDCHAR

STARTCHAR ecircumflex
ENCODING 234
SWIDTH 568 0
DWIDTH 10 0
BBX 9 13 1 0
BITMAP
1800
3C00
6600
0000
3E00
7F00
E380
FF80
E000
E000
F380
7F00
3E00
ENDCHAR

STARTCHAR edieresis
ENCODING 235
SWIDTH 568 0
DWIDTH 10 0
BBX 9 12 1 0
BITMAP
6600
6600
0000
3E00
7F00
E380
FF80
E000
E000
F380
7F00
3E00
ENDCHAR

STARTCHAR igrave
ENCODING 236
SWIDTH 355 0
DWIDTH 8 0
BBX 7 14 1 0
BITMAP
60
70
38
08
00
18
78
78
38
38
38
38
7C
FE
ENDCHAR

STARTCHAR iacute
ENCODING 237
SWIDTH 355 0
DWIDTH 8 0
BBX 7 14 1 0
BITMAP
18
38
70
40
00
18
78
78
38
38
38
38
7C
FE
ENDCHAR

STARTCHAR icircumflex
ENCODING 238
SWIDTH 355 0
DWIDTH 8 0
BBX 7 13 1 0
BITMAP
30
78
CC
00
18
78
78
38
38
38
38
7C
FE
ENDCHAR

STARTCHAR idieresis
ENCODING 239
SWIDTH 355 0
DWIDTH 8 0
BBX 7 12 1 0
BITMAP
CC
CC
00
18
78
78
38
38
38
38
7C
FE
ENDCHAR

STARTCHAR eth
ENCODING 240
SWIDTH 616 0
DWIDTH 11 0
BBX 10 13 1 0
BITMAP
6300
1C00
3C00
C600
3F00
7F80
7380
E1C0
E1C0
E1C0
7380
7F80
3F00
ENDCHAR

STARTCHAR ntilde
ENCODING 241
SWIDTH 672 0
DWIDTH 12 0
BBX 13 13 0 0
BITMAP
0E40
1FC0
1380
0000
1BC0
7FE0
7CE0
38E0
38E0
38E0
38E0
7DF0
FDF8
ENDCHAR

STARTCHAR ograve
ENCODING 242
SWIDTH 616 0
DWIDTH 11 0
BBX 10 14 1 0
BITMAP
1800
1C00
0E00
0200
0000
3F00
7F80
7380
E1C0
E1C0
E1C0
7380
7F80
3F00
ENDCHAR

STARTCHAR oacute
ENCODING 243
SWIDTH 616 0
DWIDTH 11 0
BBX 10 14 1 0
BITMAP
0600
0E00
1C00
1000
0000
3F00
7F80
7380
E1C0
E1C0
E1C0
7380
7F80
3F00
ENDCHAR

STARTCHAR ocircumflex
ENCODING 244
SWIDTH 616 0
DWIDTH 11 0
BBX 10 13 1 0
BITMAP
0C00
1E00
3300
0000
3F00
7F80
7380
E1C0
E1C0
E1C0
7380
7F80
3F00
ENDCHAR

STARTCHAR otilde
ENCODING 245
SWIDTH 616 0
DWIDTH 11 0
BBX 10 13 1 0
BITMAP
3900
7F00
4E00
0000
3F00
7F80
7380
E1C0
E1C0
E1C0
7380
7F80
3F00
ENDCHAR

STARTCHAR odieresis
ENCODING 246
SWIDTH 616 0
DWIDTH 11 0
BBX 10 12 1 0
BITMAP
3300
3300
0000
3F00
7F80
7380
E1C0
E1C0
E1C0
7380
7F80
3F00
ENDCHAR

STARTCHAR divide
ENCODING 247
SWIDTH 620 0
DWIDTH 11 0
BBX 8 8 1 1
BITMAP
18
18
00
FF
FF
00
18
18
ENDCHAR

STARTCHAR oslash
ENCODING 248
SWIDTH 617 0
DWIDTH 11 0
BBX 10 11 1 -1
BITMAP
0100
3F00
7F80
7580
E5C0
EDC0
E9C0
6B80
7F80
3F00
2000
ENDCHAR

STARTCHAR ugrave
ENCODING 249
SWIDTH 660 0
DWIDTH 12 0
BBX 11 14 1 0
BITMAP
1800
1C00
0E00
0200
0000
30C0
F3C0
F3C0
71C0
71C0
71C0
71C0
7BE0
3EE0
ENDCHAR

STARTCHAR uacute
ENCODING 250
SWIDTH 660 0
DWIDTH 12 0
BBX 11 14 1 0
BITMAP
0600
0E00
1C00
1000
0000
30C0
F3C0
F3C0
71C0
71C0
71C0
71C0
7BE0
3EE0
ENDCHAR

STARTCHAR ucircumflex
ENCODING 251
SWIDTH 660 0
DWIDTH 12 0
BBX 11 13 1 0
BITMAP
0C00
1E00
3300
0000
30C0
F3C0
F3C0
71C0
71C0
71C0
71C0
7BE0
3EE0
ENDCHAR

STARTCHAR udieresis
ENCODING 252
SWIDTH 660 0
DWIDTH 12 0
BBX 11 12 1 0
BITMAP
3300
3300
0000
30C0
F3C0
F3C0
71C0
71C0
71C0
71C0
7BE0
3EE0
ENDCHAR

STARTCHAR yacute
ENCODING 253
SWIDTH 607 0
DWIDTH 10 0
BBX 11 19 0 -5
BITMAP
0180
0380
0700
0400
0000
FBE0
71C0
7180
3B80
3B80
1B00
1F00
0E00
0E00
0C00
4C00
FC00
F800
7000
ENDCHAR

STARTCHAR thorn
ENCODING 254
SWIDTH 639 0
DWIDTH 12 0
BBX 12 18 0 -5
BITMAP
1800
7800
7800
3800
3BC0
3FE0
3CF0
3870
3870
3870
3CF0
3FE0
3BC0
3800
3800
3800
7C00
FE00
ENDCHAR

STARTCHAR ydieresis
ENCODING 255
SWIDTH 607 0
DWIDTH 10 0
BBX 11 17 0 -5
BITMAP
3300
3300
0000
FBE0
71C0
7180
3B80
3B80
1B00
1F00
0E00
0E00
0C00
4C00
FC00
F800
7000
ENDCHAR

ENDFONT
