STARTFONT 2.1
FONT -Adobe-Helvetica-Bold-O-Narrow--11-80-100-100-P-48-ISO8859-1
SIZE 8 100 100
FONTBOUNDINGBOX 12 11 -2 -2

STARTPROPERTIES 26
_DEC_DEVICE_FONTNAMES "PS=Helvetica-Narrow-BoldOblique"
FONTNAME_REGISTRY ""
FAMILY_NAME "Helvetica"
FOUNDRY "Adobe"
WEIGHT_NAME "Bold"
SLANT "O"
SETWIDTH_NAME "Narrow"
ADD_STYLE_NAME ""
PIXEL_SIZE 11
POINT_SIZE 80
RESOLUTION_X 100
RESOLUTION_Y 100
SPACING "P"
AVERAGE_WIDTH 48
CHARSET_REGISTRY "ISO8859"
CHARSET_ENCODING "1"
CHARSET_COLLECTIONS "ASCII ISO8859-1 ADOBE-STANDARD"
FULL_NAME "Helvetica Narrow Bold Oblique"
COPYRIGHT "Copyright (c) 1991 Adobe Systems, Inc."
CAP_HEIGHT 8
X_HEIGHT 6
WEIGHT 10
QUAD_WIDTH 5
DEFAULT_CHAR 0
FONT_DESCENT 2
FONT_ASCENT 9
ENDPROPERTIES

CHARS 190

STARTCHAR space
ENCODING 32
SWIDTH 228 0
DWIDTH 2 0
BBX 1 1 0 0
BITMAP
00
ENDCHAR

STARTCHAR exclam
ENCODING 33
SWIDTH 273 0
DWIDTH 3 0
BBX 4 8 0 0
BITMAP
30
30
20
60
40
40
00
80
ENDCHAR

STARTCHAR quotedbl
ENCODING 34
SWIDTH 389 0
DWIDTH 4 0
BBX 3 3 2 5
BITMAP
A0
A0
A0
ENDCHAR

STARTCHAR numbersign
ENCODING 35
SWIDTH 456 0
DWIDTH 5 0
BBX 7 8 0 0
BITMAP
14
14
7E
28
28
FC
50
50
ENDCHAR

STARTCHAR dollar
ENCODING 36
SWIDTH 456 0
DWIDTH 5 0
BBX 6 9 0 -1
BITMAP
08
1C
28
30
18
28
A8
F0
40
ENDCHAR

STARTCHAR percent
ENCODING 37
SWIDTH 729 0
DWIDTH 8 0
BBX 6 8 1 0
BITMAP
64
AC
B8
D0
2C
74
D4
98
ENDCHAR

STARTCHAR ampersand
ENCODING 38
SWIDTH 592 0
DWIDTH 6 0
BBX 6 8 0 0
BITMAP
18
34
34
38
50
D4
D8
74
ENDCHAR

STARTCHAR quoteright
ENCODING 39
SWIDTH 228 0
DWIDTH 2 0
BBX 2 3 1 5
BITMAP
40
40
80
ENDCHAR

STARTCHAR parenleft
ENCODING 40
SWIDTH 273 0
DWIDTH 3 0
BBX 4 10 0 -2
BITMAP
10
20
20
60
40
C0
C0
C0
40
20
ENDCHAR

STARTCHAR parenright
ENCODING 41
SWIDTH 273 0
DWIDTH 3 0
BBX 4 10 -1 -2
BITMAP
40
20
30
30
30
60
60
40
40
80
ENDCHAR

STARTCHAR asterisk
ENCODING 42
SWIDTH 319 0
DWIDTH 3 0
BBX 4 4 0 4
BITMAP
20
F0
40
A0
ENDCHAR

STARTCHAR plus
ENCODING 43
SWIDTH 479 0
DWIDTH 5 0
BBX 4 5 0 0
BITMAP
20
20
F0
40
40
ENDCHAR

STARTCHAR comma
ENCODING 44
SWIDTH 228 0
DWIDTH 2 0
BBX 2 3 -1 -2
BITMAP
40
40
80
ENDCHAR

STARTCHAR minus
ENCODING 45
SWIDTH 479 0
DWIDTH 5 0
BBX 4 1 0 2
BITMAP
F0
ENDCHAR

STARTCHAR period
ENCODING 46
SWIDTH 228 0
DWIDTH 2 0
BBX 1 1 0 0
BITMAP
80
ENDCHAR

STARTCHAR slash
ENCODING 47
SWIDTH 228 0
DWIDTH 2 0
BBX 4 8 -1 0
BITMAP
10
30
20
60
40
40
C0
80
ENDCHAR

STARTCHAR zero
ENCODING 48
SWIDTH 456 0
DWIDTH 5 0
BBX 6 8 0 0
BITMAP
18
3C
24
68
48
D0
F0
60
ENDCHAR

STARTCHAR one
ENCODING 49
SWIDTH 456 0
DWIDTH 5 0
BBX 4 8 1 0
BITMAP
10
70
20
60
60
40
C0
C0
ENDCHAR

STARTCHAR two
ENCODING 50
SWIDTH 456 0
DWIDTH 5 0
BBX 6 8 0 0
BITMAP
18
2C
0C
18
30
60
C0
F0
ENDCHAR

STARTCHAR three
ENCODING 51
SWIDTH 456 0
DWIDTH 5 0
BBX 6 8 0 0
BITMAP
18
2C
08
30
18
18
B0
60
ENDCHAR

STARTCHAR four
ENCODING 52
SWIDTH 456 0
DWIDTH 5 0
BBX 6 8 0 0
BITMAP
04
0C
1C
28
68
FC
10
10
ENDCHAR

STARTCHAR five
ENCODING 53
SWIDTH 456 0
DWIDTH 5 0
BBX 6 8 0 0
BITMAP
3C
30
60
70
18
18
30
E0
ENDCHAR

STARTCHAR six
ENCODING 54
SWIDTH 456 0
DWIDTH 5 0
BBX 6 8 0 0
BITMAP
18
34
20
70
68
C8
D0
60
ENDCHAR

STARTCHAR seven
ENCODING 55
SWIDTH 456 0
DWIDTH 5 0
BBX 5 8 1 0
BITMAP
78
78
10
20
20
40
C0
C0
ENDCHAR

STARTCHAR eight
ENCODING 56
SWIDTH 456 0
DWIDTH 5 0
BBX 6 8 0 0
BITMAP
18
34
68
30
68
C8
D0
60
ENDCHAR

STARTCHAR nine
ENCODING 57
SWIDTH 456 0
DWIDTH 5 0
BBX 6 8 0 0
BITMAP
18
2C
4C
58
38
10
B0
60
ENDCHAR

STARTCHAR colon
ENCODING 58
SWIDTH 273 0
DWIDTH 3 0
BBX 2 5 0 0
BITMAP
40
00
00
00
80
ENDCHAR

STARTCHAR semicolon
ENCODING 59
SWIDTH 273 0
DWIDTH 3 0
BBX 3 7 -1 -2
BITMAP
20
00
00
00
40
40
80
ENDCHAR

STARTCHAR less
ENCODING 60
SWIDTH 479 0
DWIDTH 5 0
BBX 5 5 0 0
BITMAP
18
30
C0
60
30
ENDCHAR

STARTCHAR equal
ENCODING 61
SWIDTH 479 0
DWIDTH 5 0
BBX 5 3 0 1
BITMAP
78
00
F0
ENDCHAR

STARTCHAR greater
ENCODING 62
SWIDTH 479 0
DWIDTH 5 0
BBX 5 5 0 0
BITMAP
60
30
18
60
C0
ENDCHAR

STARTCHAR question
ENCODING 63
SWIDTH 501 0
DWIDTH 5 0
BBX 6 8 0 0
BITMAP
38
6C
0C
38
60
40
00
80
ENDCHAR

STARTCHAR at
ENCODING 64
SWIDTH 800 0
DWIDTH 8 0
BBX 8 10 0 -2
BITMAP
1C
22
43
99
AD
AD
AA
94
40
38
ENDCHAR

STARTCHAR A
ENCODING 65
SWIDTH 592 0
DWIDTH 6 0
BBX 5 8 0 0
BITMAP
18
18
38
28
68
78
D8
D8
ENDCHAR

STARTCHAR B
ENCODING 66
SWIDTH 592 0
DWIDTH 6 0
BBX 7 8 0 0
BITMAP
3C
36
24
78
6C
4C
D8
F0
ENDCHAR

STARTCHAR C
ENCODING 67
SWIDTH 592 0
DWIDTH 6 0
BBX 7 8 0 0
BITMAP
1C
36
20
60
40
C0
D8
70
ENDCHAR

STARTCHAR D
ENCODING 68
SWIDTH 592 0
DWIDTH 6 0
BBX 7 8 0 0
BITMAP
3C
36
36
66
6C
CC
D8
F0
ENDCHAR

STARTCHAR E
ENCODING 69
SWIDTH 547 0
DWIDTH 6 0
BBX 6 8 1 0
BITMAP
3C
30
60
78
60
C0
C0
F0
ENDCHAR

STARTCHAR F
ENCODING 70
SWIDTH 501 0
DWIDTH 5 0
BBX 6 8 0 0
BITMAP
3C
30
60
78
60
C0
C0
C0
ENDCHAR

STARTCHAR G
ENCODING 71
SWIDTH 638 0
DWIDTH 7 0
BBX 7 8 1 0
BITMAP
1C
36
60
60
DC
CC
D8
68
ENDCHAR

STARTCHAR H
ENCODING 72
SWIDTH 592 0
DWIDTH 6 0
BBX 7 8 0 0
BITMAP
36
36
6C
7C
6C
D8
D8
D8
ENDCHAR

STARTCHAR I
ENCODING 73
SWIDTH 228 0
DWIDTH 3 0
BBX 4 8 0 0
BITMAP
30
30
60
60
60
C0
C0
C0
ENDCHAR

STARTCHAR J
ENCODING 74
SWIDTH 456 0
DWIDTH 5 0
BBX 6 8 0 0
BITMAP
0C
0C
18
18
10
30
B0
60
ENDCHAR

STARTCHAR K
ENCODING 75
SWIDTH 592 0
DWIDTH 6 0
BBX 7 8 0 0
BITMAP
32
36
2C
78
70
50
D8
D8
ENDCHAR

STARTCHAR L
ENCODING 76
SWIDTH 501 0
DWIDTH 5 0
BBX 4 8 0 0
BITMAP
30
30
60
60
60
C0
C0
F0
ENDCHAR

STARTCHAR M
ENCODING 77
SWIDTH 683 0
DWIDTH 7 0
BBX 7 8 0 0
BITMAP
22
22
36
7E
56
54
AC
AC
ENDCHAR

STARTCHAR N
ENCODING 78
SWIDTH 592 0
DWIDTH 6 0
BBX 7 8 0 0
BITMAP
26
26
34
74
5C
58
C8
C8
ENDCHAR

STARTCHAR O
ENCODING 79
SWIDTH 638 0
DWIDTH 7 0
BBX 7 8 0 0
BITMAP
1C
36
66
66
CC
CC
D8
70
ENDCHAR

STARTCHAR P
ENCODING 80
SWIDTH 547 0
DWIDTH 6 0
BBX 7 8 0 0
BITMAP
3C
36
26
6C
78
40
C0
C0
ENDCHAR

STARTCHAR Q
ENCODING 81
SWIDTH 638 0
DWIDTH 7 0
BBX 7 9 0 -1
BITMAP
1C
36
66
66
CC
CC
D8
70
18
ENDCHAR

STARTCHAR R
ENCODING 82
SWIDTH 592 0
DWIDTH 6 0
BBX 7 8 0 0
BITMAP
3C
36
26
6C
78
48
D8
D8
ENDCHAR

STARTCHAR S
ENCODING 83
SWIDTH 547 0
DWIDTH 6 0
BBX 7 8 0 0
BITMAP
1C
36
60
38
0C
CC
D8
70
ENDCHAR

STARTCHAR T
ENCODING 84
SWIDTH 501 0
DWIDTH 5 0
BBX 5 8 1 0
BITMAP
78
30
20
60
60
40
C0
C0
ENDCHAR

STARTCHAR U
ENCODING 85
SWIDTH 592 0
DWIDTH 6 0
BBX 7 8 0 0
BITMAP
36
36
24
6C
48
D8
D8
70
ENDCHAR

STARTCHAR V
ENCODING 86
SWIDTH 547 0
DWIDTH 6 0
BBX 6 8 1 0
BITMAP
C4
CC
C8
D8
50
70
60
60
ENDCHAR

STARTCHAR W
ENCODING 87
SWIDTH 774 0
DWIDTH 8 0
BBX 9 8 0 0
BITMAP
6D80
6D80
4900
5B00
DA00
EC00
CC00
8800
ENDCHAR

STARTCHAR X
ENCODING 88
SWIDTH 547 0
DWIDTH 6 0
BBX 8 8 0 0
BITMAP
33
33
16
1C
38
68
CC
CC
ENDCHAR

STARTCHAR Y
ENCODING 89
SWIDTH 547 0
DWIDTH 6 0
BBX 6 8 1 0
BITMAP
CC
CC
D8
70
60
40
C0
C0
ENDCHAR

STARTCHAR Z
ENCODING 90
SWIDTH 501 0
DWIDTH 5 0
BBX 6 8 0 0
BITMAP
3C
0C
18
30
20
60
C0
F0
ENDCHAR

STARTCHAR bracketleft
ENCODING 91
SWIDTH 273 0
DWIDTH 3 0
BBX 6 10 -1 -2
BITMAP
1C
18
30
30
20
60
60
40
C0
E0
ENDCHAR

STARTCHAR backslash
ENCODING 92
SWIDTH 228 0
DWIDTH 2 0
BBX 2 8 0 0
BITMAP
80
80
80
80
40
40
40
40
ENDCHAR

STARTCHAR bracketright
ENCODING 93
SWIDTH 273 0
DWIDTH 3 0
BBX 6 10 -2 -2
BITMAP
1C
0C
08
18
18
10
30
30
60
E0
ENDCHAR

STARTCHAR asciicircum
ENCODING 94
SWIDTH 479 0
DWIDTH 5 0
BBX 4 4 1 4
BITMAP
30
70
50
90
ENDCHAR

STARTCHAR underscore
ENCODING 95
SWIDTH 456 0
DWIDTH 5 0
BBX 5 1 -1 -2
BITMAP
F8
ENDCHAR

STARTCHAR quoteleft
ENCODING 96
SWIDTH 228 0
DWIDTH 2 0
BBX 2 3 1 5
BITMAP
40
80
80
ENDCHAR

STARTCHAR a
ENCODING 97
SWIDTH 456 0
DWIDTH 5 0
BBX 5 6 0 0
BITMAP
70
18
78
90
F0
D0
ENDCHAR

STARTCHAR b
ENCODING 98
SWIDTH 501 0
DWIDTH 5 0
BBX 5 8 0 0
BITMAP
30
30
70
68
68
C8
D0
E0
ENDCHAR

STARTCHAR c
ENCODING 99
SWIDTH 456 0
DWIDTH 5 0
BBX 5 6 0 0
BITMAP
30
68
60
C0
D0
60
ENDCHAR

STARTCHAR d
ENCODING 100
SWIDTH 501 0
DWIDTH 5 0
BBX 6 8 0 0
BITMAP
0C
0C
38
58
98
B0
B0
70
ENDCHAR

STARTCHAR e
ENCODING 101
SWIDTH 456 0
DWIDTH 5 0
BBX 5 6 0 0
BITMAP
30
68
78
C0
D0
60
ENDCHAR

STARTCHAR f
ENCODING 102
SWIDTH 273 0
DWIDTH 3 0
BBX 5 8 0 0
BITMAP
18
30
F8
60
60
40
C0
C0
ENDCHAR

STARTCHAR g
ENCODING 103
SWIDTH 501 0
DWIDTH 5 0
BBX 5 8 0 -2
BITMAP
38
58
98
B0
B0
70
20
C0
ENDCHAR

STARTCHAR h
ENCODING 104
SWIDTH 501 0
DWIDTH 5 0
BBX 5 8 0 0
BITMAP
30
30
70
68
68
D0
D0
D0
ENDCHAR

STARTCHAR i
ENCODING 105
SWIDTH 228 0
DWIDTH 2 0
BBX 2 8 0 0
BITMAP
40
00
40
40
C0
C0
80
80
ENDCHAR

STARTCHAR j
ENCODING 106
SWIDTH 228 0
DWIDTH 2 0
BBX 3 10 -1 -2
BITMAP
20
00
20
20
60
60
40
40
40
80
ENDCHAR

STARTCHAR k
ENCODING 107
SWIDTH 456 0
DWIDTH 5 0
BBX 6 8 0 0
BITMAP
30
30
64
68
70
E0
D0
D0
ENDCHAR

STARTCHAR l
ENCODING 108
SWIDTH 228 0
DWIDTH 2 0
BBX 3 8 0 0
BITMAP
20
20
60
40
40
C0
80
80
ENDCHAR

STARTCHAR m
ENCODING 109
SWIDTH 729 0
DWIDTH 8 0
BBX 8 6 0 0
BITMAP
56
7F
6B
D6
D6
D6
ENDCHAR

STARTCHAR n
ENCODING 110
SWIDTH 501 0
DWIDTH 5 0
BBX 5 6 0 0
BITMAP
50
68
68
D0
D0
D0
ENDCHAR

STARTCHAR o
ENCODING 111
SWIDTH 501 0
DWIDTH 5 0
BBX 5 6 0 0
BITMAP
30
58
98
98
B0
60
ENDCHAR

STARTCHAR p
ENCODING 112
SWIDTH 501 0
DWIDTH 5 0
BBX 6 8 -1 -2
BITMAP
38
34
34
64
68
70
C0
C0
ENDCHAR

STARTCHAR q
ENCODING 113
SWIDTH 501 0
DWIDTH 5 0
BBX 5 8 0 -2
BITMAP
38
58
98
B0
B0
60
60
60
ENDCHAR

STARTCHAR r
ENCODING 114
SWIDTH 319 0
DWIDTH 3 0
BBX 4 6 0 0
BITMAP
70
60
40
C0
C0
C0
ENDCHAR

STARTCHAR s
ENCODING 115
SWIDTH 456 0
DWIDTH 5 0
BBX 5 6 0 0
BITMAP
30
68
60
30
90
60
ENDCHAR

STARTCHAR t
ENCODING 116
SWIDTH 273 0
DWIDTH 3 0
BBX 4 8 0 0
BITMAP
20
20
F0
60
40
C0
C0
60
ENDCHAR

STARTCHAR u
ENCODING 117
SWIDTH 501 0
DWIDTH 5 0
BBX 5 6 0 0
BITMAP
58
58
58
B0
B0
50
ENDCHAR

STARTCHAR v
ENCODING 118
SWIDTH 456 0
DWIDTH 5 0
BBX 5 6 0 0
BITMAP
C8
D8
50
70
60
40
ENDCHAR

STARTCHAR w
ENCODING 119
SWIDTH 638 0
DWIDTH 7 0
BBX 8 6 0 0
BITMAP
CB
DA
7E
6C
48
48
ENDCHAR

STARTCHAR x
ENCODING 120
SWIDTH 456 0
DWIDTH 5 0
BBX 5 6 0 0
BITMAP
D8
D8
70
60
B0
B0
ENDCHAR

STARTCHAR y
ENCODING 121
SWIDTH 456 0
DWIDTH 5 0
BBX 6 8 -1 -2
BITMAP
6C
6C
28
38
30
30
60
C0
ENDCHAR

STARTCHAR z
ENCODING 122
SWIDTH 410 0
DWIDTH 4 0
BBX 4 6 0 0
BITMAP
70
30
60
40
C0
E0
ENDCHAR

STARTCHAR braceleft
ENCODING 123
SWIDTH 319 0
DWIDTH 3 0
BBX 5 10 0 -2
BITMAP
18
30
30
20
C0
60
60
C0
C0
60
ENDCHAR

STARTCHAR bar
ENCODING 124
SWIDTH 230 0
DWIDTH 2 0
BBX 2 8 0 0
BITMAP
40
40
40
40
80
80
80
80
ENDCHAR

STARTCHAR braceright
ENCODING 125
SWIDTH 319 0
DWIDTH 3 0
BBX 5 10 -1 -2
BITMAP
30
18
18
30
30
18
20
60
60
C0
ENDCHAR

STARTCHAR asciitilde
ENCODING 126
SWIDTH 479 0
DWIDTH 5 0
BBX 5 2 0 2
BITMAP
68
B0
ENDCHAR

STARTCHAR exclamdown
ENCODING 161
SWIDTH 273 0
DWIDTH 3 0
BBX 4 8 -1 -2
BITMAP
10
00
20
20
60
40
C0
C0
ENDCHAR

STARTCHAR cent
ENCODING 162
SWIDTH 456 0
DWIDTH 5 0
BBX 5 8 0 -1
BITMAP
10
30
78
50
A0
F0
60
40
ENDCHAR

STARTCHAR sterling
ENCODING 163
SWIDTH 456 0
DWIDTH 5 0
BBX 6 8 0 0
BITMAP
1C
34
30
78
20
60
68
B0
ENDCHAR

STARTCHAR currency
ENCODING 164
SWIDTH 456 0
DWIDTH 5 0
BBX 6 6 0 1
BITMAP
24
38
48
48
70
90
ENDCHAR

STARTCHAR yen
ENCODING 165
SWIDTH 456 0
DWIDTH 5 0
BBX 7 8 0 0
BITMAP
66
64
28
7C
30
F8
60
60
ENDCHAR

STARTCHAR brokenbar
ENCODING 166
SWIDTH 230 0
DWIDTH 2 0
BBX 2 8 0 0
BITMAP
40
40
40
00
00
80
80
80
ENDCHAR

STARTCHAR section
ENCODING 167
SWIDTH 456 0
DWIDTH 5 0
BBX 6 9 0 -1
BITMAP
18
34
30
58
48
68
30
B0
60
ENDCHAR

STARTCHAR dieresis
ENCODING 168
SWIDTH 273 0
DWIDTH 3 0
BBX 3 1 1 7
BITMAP
A0
ENDCHAR

STARTCHAR copyright
ENCODING 169
SWIDTH 604 0
DWIDTH 6 0
BBX 7 8 0 0
BITMAP
18
64
5A
A2
AA
94
C8
70
ENDCHAR

STARTCHAR ordfeminine
ENCODING 170
SWIDTH 303 0
DWIDTH 3 0
BBX 3 5 0 3
BITMAP
60
60
A0
00
60
ENDCHAR

STARTCHAR guillemotleft
ENCODING 171
SWIDTH 456 0
DWIDTH 5 0
BBX 5 4 0 1
BITMAP
28
50
A0
50
ENDCHAR

STARTCHAR logicalnot
ENCODING 172
SWIDTH 479 0
DWIDTH 5 0
BBX 4 3 0 1
BITMAP
F0
10
10
ENDCHAR

STARTCHAR hyphen
ENCODING 173
SWIDTH 273 0
DWIDTH 3 0
BBX 2 1 1 3
BITMAP
C0
ENDCHAR

STARTCHAR registered
ENCODING 174
SWIDTH 604 0
DWIDTH 6 0
BBX 7 8 0 0
BITMAP
18
64
5A
9A
B2
AC
C8
70
ENDCHAR

STARTCHAR macron
ENCODING 175
SWIDTH 273 0
DWIDTH 3 0
BBX 3 1 1 7
BITMAP
E0
ENDCHAR

STARTCHAR degree
ENCODING 176
SWIDTH 328 0
DWIDTH 3 0
BBX 3 3 1 5
BITMAP
60
A0
C0
ENDCHAR

STARTCHAR plusminus
ENCODING 177
SWIDTH 479 0
DWIDTH 5 0
BBX 5 7 0 0
BITMAP
10
10
78
20
20
00
F0
ENDCHAR

STARTCHAR twosuperior
ENCODING 178
SWIDTH 273 0
DWIDTH 3 0
BBX 3 4 1 4
BITMAP
60
A0
40
E0
ENDCHAR

STARTCHAR threesuperior
ENCODING 179
SWIDTH 273 0
DWIDTH 3 0
BBX 3 4 1 4
BITMAP
E0
40
20
C0
ENDCHAR

STARTCHAR acute
ENCODING 180
SWIDTH 273 0
DWIDTH 3 0
BBX 2 2 2 7
BITMAP
40
80
ENDCHAR

STARTCHAR mu
ENCODING 181
SWIDTH 501 0
DWIDTH 5 0
BBX 5 8 0 -2
BITMAP
58
58
58
B0
B0
D0
80
80
ENDCHAR

STARTCHAR paragraph
ENCODING 182
SWIDTH 456 0
DWIDTH 5 0
BBX 5 9 0 -1
BITMAP
78
E8
E8
D0
50
50
A0
A0
A0
ENDCHAR

STARTCHAR periodcentered
ENCODING 183
SWIDTH 228 0
DWIDTH 2 0
BBX 1 1 1 3
BITMAP
80
ENDCHAR

STARTCHAR cedilla
ENCODING 184
SWIDTH 273 0
DWIDTH 3 0
BBX 2 2 -1 -2
BITMAP
40
C0
ENDCHAR

STARTCHAR onesuperior
ENCODING 185
SWIDTH 273 0
DWIDTH 3 0
BBX 2 4 1 4
BITMAP
C0
40
40
40
ENDCHAR

STARTCHAR ordmasculine
ENCODING 186
SWIDTH 299 0
DWIDTH 3 0
BBX 3 5 1 3
BITMAP
60
A0
C0
00
C0
ENDCHAR

STARTCHAR guillemotright
ENCODING 187
SWIDTH 456 0
DWIDTH 5 0
BBX 5 4 0 1
BITMAP
50
28
50
A0
ENDCHAR

STARTCHAR onequarter
ENCODING 188
SWIDTH 684 0
DWIDTH 7 0
BBX 7 8 0 0
BITMAP
C4
48
48
50
24
4C
5E
88
ENDCHAR

STARTCHAR onehalf
ENCODING 189
SWIDTH 684 0
DWIDTH 7 0
BBX 6 8 0 0
BITMAP
C4
48
48
50
2C
54
48
9C
ENDCHAR

STARTCHAR threequarters
ENCODING 190
SWIDTH 684 0
DWIDTH 7 0
BBX 7 8 0 0
BITMAP
E4
48
28
D0
24
4C
5E
88
ENDCHAR

STARTCHAR questiondown
ENCODING 191
SWIDTH 501 0
DWIDTH 5 0
BBX 6 8 -1 -2
BITMAP
04
00
08
18
70
C0
D8
70
ENDCHAR

STARTCHAR Agrave
ENCODING 192
SWIDTH 592 0
DWIDTH 6 0
BBX 5 9 0 0
BITMAP
10
08
00
18
18
28
78
D8
D8
ENDCHAR

STARTCHAR Aacute
ENCODING 193
SWIDTH 592 0
DWIDTH 6 0
BBX 6 9 0 0
BITMAP
04
08
00
18
18
28
78
D8
D8
ENDCHAR

STARTCHAR Acircumflex
ENCODING 194
SWIDTH 592 0
DWIDTH 6 0
BBX 6 9 0 0
BITMAP
0C
14
00
18
18
28
78
D8
D8
ENDCHAR

STARTCHAR Atilde
ENCODING 195
SWIDTH 592 0
DWIDTH 6 0
BBX 7 9 0 0
BITMAP
1A
2C
00
18
18
28
78
D8
D8
ENDCHAR

STARTCHAR Adieresis
ENCODING 196
SWIDTH 592 0
DWIDTH 6 0
BBX 6 8 0 0
BITMAP
14
00
18
18
28
78
D8
D8
ENDCHAR

STARTCHAR Aring
ENCODING 197
SWIDTH 592 0
DWIDTH 6 0
BBX 6 9 0 0
BITMAP
0C
14
18
18
18
28
78
D8
D8
ENDCHAR

STARTCHAR AE
ENCODING 198
SWIDTH 820 0
DWIDTH 9 0
BBX 10 8 0 0
BITMAP
0FC0
0F00
1A00
3780
2600
7C00
CC00
CF00
ENDCHAR

STARTCHAR Ccedilla
ENCODING 199
SWIDTH 592 0
DWIDTH 6 0
BBX 7 10 0 -2
BITMAP
1C
36
20
60
40
C0
D8
70
20
60
ENDCHAR

STARTCHAR Egrave
ENCODING 200
SWIDTH 547 0
DWIDTH 6 0
BBX 5 9 1 0
BITMAP
10
08
00
78
60
78
C0
C0
F0
ENDCHAR

STARTCHAR Eacute
ENCODING 201
SWIDTH 547 0
DWIDTH 6 0
BBX 5 9 1 0
BITMAP
08
10
00
78
60
78
C0
C0
F0
ENDCHAR

STARTCHAR Ecircumflex
ENCODING 202
SWIDTH 547 0
DWIDTH 6 0
BBX 5 9 1 0
BITMAP
18
28
00
78
60
78
C0
C0
F0
ENDCHAR

STARTCHAR Edieresis
ENCODING 203
SWIDTH 547 0
DWIDTH 6 0
BBX 5 8 1 0
BITMAP
28
00
78
60
78
C0
C0
F0
ENDCHAR

STARTCHAR Igrave
ENCODING 204
SWIDTH 228 0
DWIDTH 3 0
BBX 4 9 0 0
BITMAP
20
10
00
60
60
60
C0
C0
C0
ENDCHAR

STARTCHAR Iacute
ENCODING 205
SWIDTH 228 0
DWIDTH 3 0
BBX 4 9 0 0
BITMAP
10
20
00
60
60
60
C0
C0
C0
ENDCHAR

STARTCHAR Icircumflex
ENCODING 206
SWIDTH 228 0
DWIDTH 3 0
BBX 4 9 0 0
BITMAP
30
50
00
60
60
60
C0
C0
C0
ENDCHAR

STARTCHAR Idieresis
ENCODING 207
SWIDTH 228 0
DWIDTH 3 0
BBX 4 8 0 0
BITMAP
50
00
60
60
60
C0
C0
C0
ENDCHAR

STARTCHAR Eth
ENCODING 208
SWIDTH 592 0
DWIDTH 6 0
BBX 7 8 0 0
BITMAP
3C
36
26
F6
6C
CC
D8
F0
ENDCHAR

STARTCHAR Ntilde
ENCODING 209
SWIDTH 592 0
DWIDTH 6 0
BBX 7 9 0 0
BITMAP
1A
2C
00
44
64
74
B8
98
88
ENDCHAR

STARTCHAR Ograve
ENCODING 210
SWIDTH 638 0
DWIDTH 7 0
BBX 6 9 0 0
BITMAP
10
08
00
38
6C
CC
CC
D8
70
ENDCHAR

STARTCHAR Oacute
ENCODING 211
SWIDTH 638 0
DWIDTH 7 0
BBX 6 9 0 0
BITMAP
08
10
00
38
6C
CC
CC
D8
70
ENDCHAR

STARTCHAR Ocircumflex
ENCODING 212
SWIDTH 638 0
DWIDTH 7 0
BBX 6 9 0 0
BITMAP
0C
14
00
38
6C
CC
CC
D8
70
ENDCHAR

STARTCHAR Otilde
ENCODING 213
SWIDTH 638 0
DWIDTH 7 0
BBX 7 9 0 0
BITMAP
1A
2C
00
38
6C
CC
CC
D8
70
ENDCHAR

STARTCHAR Odieresis
ENCODING 214
SWIDTH 638 0
DWIDTH 7 0
BBX 6 8 0 0
BITMAP
14
00
38
6C
CC
CC
D8
70
ENDCHAR

STARTCHAR multiply
ENCODING 215
SWIDTH 479 0
DWIDTH 5 0
BBX 5 5 0 0
BITMAP
48
30
20
60
90
ENDCHAR

STARTCHAR Oslash
ENCODING 216
SWIDTH 638 0
DWIDTH 7 0
BBX 9 8 -1 0
BITMAP
0E80
1B00
3700
3B00
6600
6600
6C00
B800
ENDCHAR

STARTCHAR Ugrave
ENCODING 217
SWIDTH 592 0
DWIDTH 6 0
BBX 6 9 0 0
BITMAP
10
08
00
6C
6C
48
D8
D8
70
ENDCHAR

STARTCHAR Uacute
ENCODING 218
SWIDTH 592 0
DWIDTH 6 0
BBX 6 9 0 0
BITMAP
08
10
00
6C
6C
48
D8
D8
70
ENDCHAR

STARTCHAR Ucircumflex
ENCODING 219
SWIDTH 592 0
DWIDTH 6 0
BBX 6 9 0 0
BITMAP
0C
14
00
6C
6C
48
D8
D8
70
ENDCHAR

STARTCHAR Udieresis
ENCODING 220
SWIDTH 592 0
DWIDTH 6 0
BBX 6 8 0 0
BITMAP
28
00
6C
6C
48
D8
D8
70
ENDCHAR

STARTCHAR Yacute
ENCODING 221
SWIDTH 547 0
DWIDTH 6 0
BBX 6 9 1 0
BITMAP
08
10
00
CC
D8
70
20
60
60
ENDCHAR

STARTCHAR Thorn
ENCODING 222
SWIDTH 547 0
DWIDTH 6 0
BBX 7 8 0 0
BITMAP
30
30
3C
66
4C
78
C0
C0
ENDCHAR

STARTCHAR germandbls
ENCODING 223
SWIDTH 501 0
DWIDTH 5 0
BBX 5 8 0 0
BITMAP
30
68
68
70
C8
C8
D0
E0
ENDCHAR

STARTCHAR agrave
ENCODING 224
SWIDTH 456 0
DWIDTH 5 0
BBX 5 9 0 0
BITMAP
20
10
00
70
18
78
90
F0
D0
ENDCHAR

STARTCHAR aacute
ENCODING 225
SWIDTH 456 0
DWIDTH 5 0
BBX 5 9 0 0
BITMAP
10
20
00
70
18
78
90
F0
D0
ENDCHAR

STARTCHAR acircumflex
ENCODING 226
SWIDTH 456 0
DWIDTH 5 0
BBX 5 9 0 0
BITMAP
18
28
00
70
18
78
90
F0
D0
ENDCHAR

STARTCHAR atilde
ENCODING 227
SWIDTH 456 0
DWIDTH 5 0
BBX 7 9 0 0
BITMAP
1A
2C
00
70
18
78
90
F0
D0
ENDCHAR

STARTCHAR adieresis
ENCODING 228
SWIDTH 456 0
DWIDTH 5 0
BBX 5 8 0 0
BITMAP
28
00
70
18
78
90
F0
D0
ENDCHAR

STARTCHAR aring
ENCODING 229
SWIDTH 456 0
DWIDTH 5 0
BBX 5 9 0 0
BITMAP
18
28
30
70
18
78
90
F0
D0
ENDCHAR

STARTCHAR ae
ENCODING 230
SWIDTH 729 0
DWIDTH 8 0
BBX 8 6 0 0
BITMAP
76
0D
7F
98
FA
EC
ENDCHAR

STARTCHAR ccedilla
ENCODING 231
SWIDTH 456 0
DWIDTH 5 0
BBX 5 8 0 -2
BITMAP
30
68
60
C0
D0
60
40
C0
ENDCHAR

STARTCHAR egrave
ENCODING 232
SWIDTH 456 0
DWIDTH 5 0
BBX 5 9 0 0
BITMAP
10
08
00
30
68
78
C0
D0
60
ENDCHAR

STARTCHAR eacute
ENCODING 233
SWIDTH 456 0
DWIDTH 5 0
BBX 5 9 0 0
BITMAP
08
10
00
30
68
78
C0
D0
60
ENDCHAR

STARTCHAR ecircumflex
ENCODING 234
SWIDTH 456 0
DWIDTH 5 0
BBX 5 9 0 0
BITMAP
18
28
00
30
68
78
C0
D0
60
ENDCHAR

STARTCHAR edieresis
ENCODING 235
SWIDTH 456 0
DWIDTH 5 0
BBX 5 8 0 0
BITMAP
28
00
30
68
78
C0
D0
60
ENDCHAR

STARTCHAR igrave
ENCODING 236
SWIDTH 228 0
DWIDTH 2 0
BBX 3 9 0 0
BITMAP
40
20
00
40
40
C0
C0
80
80
ENDCHAR

STARTCHAR iacute
ENCODING 237
SWIDTH 228 0
DWIDTH 2 0
BBX 3 9 0 0
BITMAP
20
40
00
40
40
C0
C0
80
80
ENDCHAR

STARTCHAR icircumflex
ENCODING 238
SWIDTH 228 0
DWIDTH 2 0
BBX 4 9 0 0
BITMAP
30
50
00
40
40
C0
C0
80
80
ENDCHAR

STARTCHAR idieresis
ENCODING 239
SWIDTH 228 0
DWIDTH 2 0
BBX 4 8 0 0
BITMAP
50
00
40
40
C0
C0
80
80
ENDCHAR

STARTCHAR eth
ENCODING 240
SWIDTH 501 0
DWIDTH 5 0
BBX 5 9 0 0
BITMAP
28
30
50
38
58
98
98
B0
60
ENDCHAR

STARTCHAR ntilde
ENCODING 241
SWIDTH 501 0
DWIDTH 5 0
BBX 7 9 0 0
BITMAP
1A
2C
00
50
68
68
D0
D0
D0
ENDCHAR

STARTCHAR ograve
ENCODING 242
SWIDTH 501 0
DWIDTH 5 0
BBX 5 9 0 0
BITMAP
20
10
00
30
58
98
98
B0
60
ENDCHAR

STARTCHAR oacute
ENCODING 243
SWIDTH 501 0
DWIDTH 5 0
BBX 5 9 0 0
BITMAP
08
10
00
30
58
98
98
B0
60
ENDCHAR

STARTCHAR ocircumflex
ENCODING 244
SWIDTH 501 0
DWIDTH 5 0
BBX 5 9 0 0
BITMAP
18
28
00
30
58
98
98
B0
60
ENDCHAR

STARTCHAR otilde
ENCODING 245
SWIDTH 501 0
DWIDTH 5 0
BBX 7 9 0 0
BITMAP
1A
2C
00
30
58
98
98
B0
60
ENDCHAR

STARTCHAR odieresis
ENCODING 246
SWIDTH 501 0
DWIDTH 5 0
BBX 5 8 0 0
BITMAP
28
00
30
58
98
98
B0
60
ENDCHAR

STARTCHAR divide
ENCODING 247
SWIDTH 479 0
DWIDTH 5 0
BBX 4 5 0 0
BITMAP
20
00
F0
00
40
ENDCHAR

STARTCHAR oslash
ENCODING 248
SWIDTH 501 0
DWIDTH 5 0
BBX 5 8 0 -1
BITMAP
08
30
58
B8
D8
B0
60
80
ENDCHAR

STARTCHAR ugrave
ENCODING 249
SWIDTH 501 0
DWIDTH 5 0
BBX 5 9 0 0
BITMAP
10
08
00
58
58
58
B0
B0
50
ENDCHAR

STARTCHAR uacute
ENCODING 250
SWIDTH 501 0
DWIDTH 5 0
BBX 5 9 0 0
BITMAP
08
10
00
58
58
58
B0
B0
50
ENDCHAR

STARTCHAR ucircumflex
ENCODING 251
SWIDTH 501 0
DWIDTH 5 0
BBX 5 9 0 0
BITMAP
18
28
00
58
58
58
B0
B0
50
ENDCHAR

STARTCHAR udieresis
ENCODING 252
SWIDTH 501 0
DWIDTH 5 0
BBX 5 8 0 0
BITMAP
28
00
58
58
58
B0
B0
50
ENDCHAR

STARTCHAR yacute
ENCODING 253
SWIDTH 456 0
DWIDTH 5 0
BBX 6 11 -1 -2
BITMAP
04
08
00
24
2C
28
30
30
20
60
C0
ENDCHAR

STARTCHAR thorn
ENCODING 254
SWIDTH 501 0
DWIDTH 5 0
BBX 6 10 -1 -2
BITMAP
18
18
30
38
34
64
68
70
C0
C0
ENDCHAR

STARTCHAR ydieresis
ENCODING 255
SWIDTH 456 0
DWIDTH 5 0
BBX 6 10 -1 -2
BITMAP
14
00
24
2C
28
30
30
20
60
C0
ENDCHAR

ENDFONT
