STARTFONT 2.1
FONT -Adobe-Helvetica-Bold-O-Narrow--14-100-100-100-P-70-ISO8859-1
SIZE 10 100 100
FONTBOUNDINGBOX 17 15 -2 -3

STARTPROPERTIES 26
_DEC_DEVICE_FONTNAMES "PS=Helvetica-Narrow-BoldOblique"
FONTNAME_REGISTRY ""
FAMILY_NAME "Helvetica"
FOUNDRY "Adobe"
WEIGHT_NAME "Bold"
SLANT "O"
SETWIDTH_NAME "Narrow"
ADD_STYLE_NAME ""
PIXEL_SIZE 14
POINT_SIZE 100
RESOLUTION_X 100
RESOLUTION_Y 100
SPACING "P"
AVERAGE_WIDTH 70
CHARSET_REGISTRY "ISO8859"
CHARSET_ENCODING "1"
CHARSET_COLLECTIONS "ASCII ISO8859-1 ADOBE-STANDARD"
FULL_NAME "Helvetica Narrow Bold Oblique"
COPYRIGHT "Copyright (c) 1991 Adobe Systems, Inc."
CAP_HEIGHT 11
X_HEIGHT 8
WEIGHT 10
QUAD_WIDTH 8
DEFAULT_CHAR 0
FONT_DESCENT 3
FONT_ASCENT 12
ENDPROPERTIES

CHARS 190

STARTCHAR space
ENCODING 32
SWIDTH 228 0
DWIDTH 3 0
BBX 1 1 0 0
BITMAP
00
ENDCHAR

STARTCHAR exclam
ENCODING 33
SWIDTH 273 0
DWIDTH 4 0
BBX 4 11 1 0
BITMAP
30
30
30
60
60
60
C0
C0
00
C0
C0
ENDCHAR

STARTCHAR quotedbl
ENCODING 34
SWIDTH 389 0
DWIDTH 4 0
BBX 3 3 2 8
BITMAP
A0
A0
A0
ENDCHAR

STARTCHAR numbersign
ENCODING 35
SWIDTH 456 0
DWIDTH 7 0
BBX 9 11 0 0
BITMAP
1B00
1B00
1B00
7F80
3600
3600
3600
FF00
6C00
6C00
6C00
ENDCHAR

STARTCHAR dollar
ENCODING 36
SWIDTH 456 0
DWIDTH 7 0
BBX 8 14 0 -2
BITMAP
04
1E
3F
6B
68
78
3C
1E
16
D6
FC
78
20
20
ENDCHAR

STARTCHAR percent
ENCODING 37
SWIDTH 729 0
DWIDTH 11 0
BBX 10 11 1 0
BITMAP
38C0
7D80
CF00
FA00
7600
0C00
1B80
17C0
3CC0
6F80
C700
ENDCHAR

STARTCHAR ampersand
ENCODING 38
SWIDTH 592 0
DWIDTH 9 0
BBX 10 11 0 0
BITMAP
0E00
1F00
3300
3600
1C00
38C0
6D80
C700
C700
FD80
7980
ENDCHAR

STARTCHAR quoteright
ENCODING 39
SWIDTH 228 0
DWIDTH 3 0
BBX 2 4 2 7
BITMAP
C0
C0
40
80
ENDCHAR

STARTCHAR parenleft
ENCODING 40
SWIDTH 273 0
DWIDTH 4 0
BBX 6 14 0 -3
BITMAP
0C
18
30
30
60
60
60
C0
C0
C0
C0
C0
C0
60
ENDCHAR

STARTCHAR parenright
ENCODING 41
SWIDTH 273 0
DWIDTH 4 0
BBX 6 14 -2 -3
BITMAP
18
0C
0C
0C
0C
0C
0C
18
18
18
30
30
60
C0
ENDCHAR

STARTCHAR asterisk
ENCODING 42
SWIDTH 319 0
DWIDTH 6 0
BBX 6 5 1 6
BITMAP
10
7C
30
78
C8
ENDCHAR

STARTCHAR plus
ENCODING 43
SWIDTH 479 0
DWIDTH 7 0
BBX 5 6 1 1
BITMAP
30
30
F8
F8
60
60
ENDCHAR

STARTCHAR comma
ENCODING 44
SWIDTH 228 0
DWIDTH 3 0
BBX 2 4 0 -2
BITMAP
C0
C0
40
80
ENDCHAR

STARTCHAR minus
ENCODING 45
SWIDTH 479 0
DWIDTH 9 0
BBX 6 2 2 3
BITMAP
FC
FC
ENDCHAR

STARTCHAR period
ENCODING 46
SWIDTH 228 0
DWIDTH 3 0
BBX 2 2 0 0
BITMAP
C0
C0
ENDCHAR

STARTCHAR slash
ENCODING 47
SWIDTH 228 0
DWIDTH 4 0
BBX 8 14 -2 -3
BITMAP
03
03
06
06
0C
0C
18
18
30
30
60
60
C0
C0
ENDCHAR

STARTCHAR zero
ENCODING 48
SWIDTH 456 0
DWIDTH 7 0
BBX 8 11 0 0
BITMAP
1E
3F
33
63
63
66
C6
C6
CC
FC
78
ENDCHAR

STARTCHAR one
ENCODING 49
SWIDTH 456 0
DWIDTH 6 0
BBX 4 11 2 0
BITMAP
30
F0
F0
60
60
60
60
C0
C0
C0
C0
ENDCHAR

STARTCHAR two
ENCODING 50
SWIDTH 456 0
DWIDTH 7 0
BBX 8 11 0 0
BITMAP
1E
3F
33
03
06
1C
38
60
C0
FC
FC
ENDCHAR

STARTCHAR three
ENCODING 51
SWIDTH 456 0
DWIDTH 7 0
BBX 8 11 0 0
BITMAP
1E
3F
33
03
1E
1C
06
06
CE
FC
78
ENDCHAR

STARTCHAR four
ENCODING 52
SWIDTH 456 0
DWIDTH 7 0
BBX 7 11 0 0
BITMAP
06
06
0E
1E
36
34
64
FE
FE
0C
0C
ENDCHAR

STARTCHAR five
ENCODING 53
SWIDTH 456 0
DWIDTH 7 0
BBX 8 11 0 0
BITMAP
3F
3F
30
60
7C
7E
06
C6
CE
FC
78
ENDCHAR

STARTCHAR six
ENCODING 54
SWIDTH 456 0
DWIDTH 7 0
BBX 8 11 0 0
BITMAP
1E
3F
33
60
7C
7E
E6
C6
CE
FC
78
ENDCHAR

STARTCHAR seven
ENCODING 55
SWIDTH 456 0
DWIDTH 7 0
BBX 7 11 1 0
BITMAP
7E
7E
06
0C
18
18
30
60
60
C0
C0
ENDCHAR

STARTCHAR eight
ENCODING 56
SWIDTH 456 0
DWIDTH 7 0
BBX 8 11 0 0
BITMAP
1E
3F
73
66
3C
3C
66
C6
CE
FC
78
ENDCHAR

STARTCHAR nine
ENCODING 57
SWIDTH 456 0
DWIDTH 7 0
BBX 8 11 0 0
BITMAP
1E
3F
73
63
67
7E
3E
06
CC
FC
78
ENDCHAR

STARTCHAR colon
ENCODING 58
SWIDTH 273 0
DWIDTH 4 0
BBX 4 8 0 0
BITMAP
30
30
00
00
00
00
C0
C0
ENDCHAR

STARTCHAR semicolon
ENCODING 59
SWIDTH 273 0
DWIDTH 4 0
BBX 4 10 0 -2
BITMAP
30
30
00
00
00
00
C0
C0
40
80
ENDCHAR

STARTCHAR less
ENCODING 60
SWIDTH 479 0
DWIDTH 7 0
BBX 7 6 0 1
BITMAP
06
1E
78
F0
3C
0C
ENDCHAR

STARTCHAR equal
ENCODING 61
SWIDTH 479 0
DWIDTH 7 0
BBX 7 5 0 2
BITMAP
7E
7E
00
FC
FC
ENDCHAR

STARTCHAR greater
ENCODING 62
SWIDTH 479 0
DWIDTH 7 0
BBX 7 6 0 1
BITMAP
60
78
1E
3C
F0
C0
ENDCHAR

STARTCHAR question
ENCODING 63
SWIDTH 501 0
DWIDTH 7 0
BBX 6 11 2 0
BITMAP
78
FC
CC
0C
38
70
C0
C0
00
C0
C0
ENDCHAR

STARTCHAR at
ENCODING 64
SWIDTH 800 0
DWIDTH 12 0
BBX 12 12 0 -1
BITMAP
0780
1C60
3030
66D0
4D90
D9B0
B320
B360
9DC0
C000
6180
1F00
ENDCHAR

STARTCHAR A
ENCODING 65
SWIDTH 592 0
DWIDTH 8 0
BBX 8 11 0 0
BITMAP
06
06
0E
0E
1E
33
33
7F
FF
C3
C3
ENDCHAR

STARTCHAR B
ENCODING 66
SWIDTH 592 0
DWIDTH 8 0
BBX 8 11 1 0
BITMAP
3E
3F
33
66
7C
7C
66
C6
CC
FC
F8
ENDCHAR

STARTCHAR C
ENCODING 67
SWIDTH 592 0
DWIDTH 8 0
BBX 8 11 1 0
BITMAP
1E
3F
33
60
60
60
C0
C0
CC
FC
78
ENDCHAR

STARTCHAR D
ENCODING 68
SWIDTH 592 0
DWIDTH 9 0
BBX 9 11 1 0
BITMAP
3E00
3F00
3380
6180
6180
6180
6300
C300
C600
FE00
F800
ENDCHAR

STARTCHAR E
ENCODING 69
SWIDTH 547 0
DWIDTH 8 0
BBX 8 11 1 0
BITMAP
3F
3F
30
60
7C
7C
60
C0
C0
FC
FC
ENDCHAR

STARTCHAR F
ENCODING 70
SWIDTH 501 0
DWIDTH 7 0
BBX 8 11 1 0
BITMAP
3F
3F
30
60
7C
7C
60
C0
C0
C0
C0
ENDCHAR

STARTCHAR G
ENCODING 71
SWIDTH 638 0
DWIDTH 9 0
BBX 9 11 1 0
BITMAP
1F00
3F80
3180
6000
6000
6F00
CF00
C600
C600
FE00
7600
ENDCHAR

STARTCHAR H
ENCODING 72
SWIDTH 592 0
DWIDTH 9 0
BBX 9 11 1 0
BITMAP
3180
3180
3180
6300
7F00
7F00
6300
C600
C600
C600
C600
ENDCHAR

STARTCHAR I
ENCODING 73
SWIDTH 228 0
DWIDTH 6 0
BBX 4 11 2 0
BITMAP
30
30
30
60
60
60
60
C0
C0
C0
C0
ENDCHAR

STARTCHAR J
ENCODING 74
SWIDTH 456 0
DWIDTH 6 0
BBX 7 11 0 0
BITMAP
06
06
06
0C
0C
0C
0C
18
D8
F8
70
ENDCHAR

STARTCHAR K
ENCODING 75
SWIDTH 592 0
DWIDTH 8 0
BBX 9 11 1 0
BITMAP
3180
3300
3600
6C00
7800
7800
7800
CC00
CC00
C600
C600
ENDCHAR

STARTCHAR L
ENCODING 76
SWIDTH 501 0
DWIDTH 7 0
BBX 8 11 1 0
BITMAP
30
30
30
60
60
60
60
C0
C0
FC
FC
ENDCHAR

STARTCHAR M
ENCODING 77
SWIDTH 683 0
DWIDTH 11 0
BBX 11 11 1 0
BITMAP
3060
3060
30E0
71C0
79C0
7BC0
5EC0
DD80
DD80
C980
C980
ENDCHAR

STARTCHAR N
ENCODING 78
SWIDTH 592 0
DWIDTH 9 0
BBX 9 11 1 0
BITMAP
3180
3180
3180
7B00
7B00
7F00
6F00
CE00
C600
C600
C600
ENDCHAR

STARTCHAR O
ENCODING 79
SWIDTH 638 0
DWIDTH 9 0
BBX 9 11 1 0
BITMAP
1F00
3F80
3180
6180
6180
6300
C300
C300
C600
FE00
7C00
ENDCHAR

STARTCHAR P
ENCODING 80
SWIDTH 547 0
DWIDTH 9 0
BBX 9 11 1 0
BITMAP
3F00
3F80
3180
3180
6300
7F00
7E00
6000
C000
C000
C000
ENDCHAR

STARTCHAR Q
ENCODING 81
SWIDTH 638 0
DWIDTH 9 0
BBX 9 12 1 -1
BITMAP
1F00
3F80
3180
6180
6180
6300
C300
C300
C600
FC00
7E00
0600
ENDCHAR

STARTCHAR R
ENCODING 82
SWIDTH 592 0
DWIDTH 9 0
BBX 9 11 1 0
BITMAP
3F00
3F80
3180
3180
6300
7E00
7C00
6600
C600
C600
C600
ENDCHAR

STARTCHAR S
ENCODING 83
SWIDTH 547 0
DWIDTH 8 0
BBX 8 11 1 0
BITMAP
1E
3F
63
60
70
3C
0E
06
C6
FC
78
ENDCHAR

STARTCHAR T
ENCODING 84
SWIDTH 501 0
DWIDTH 6 0
BBX 6 11 2 0
BITMAP
FC
FC
30
30
60
60
60
60
C0
C0
C0
ENDCHAR

STARTCHAR U
ENCODING 85
SWIDTH 592 0
DWIDTH 9 0
BBX 9 11 1 0
BITMAP
3180
3180
3180
6300
6300
6300
C300
C600
C600
FE00
7C00
ENDCHAR

STARTCHAR V
ENCODING 86
SWIDTH 547 0
DWIDTH 8 0
BBX 8 11 2 0
BITMAP
C3
C3
C6
C6
CC
CC
58
70
70
60
60
ENDCHAR

STARTCHAR W
ENCODING 87
SWIDTH 774 0
DWIDTH 10 0
BBX 10 11 2 0
BITMAP
CCC0
CCC0
CCC0
CD80
DD80
DD00
FF00
EE00
EE00
CC00
CC00
ENDCHAR

STARTCHAR X
ENCODING 88
SWIDTH 547 0
DWIDTH 8 0
BBX 10 11 0 0
BITMAP
30C0
30C0
1980
1F00
0E00
0C00
1C00
3E00
6600
C300
C300
ENDCHAR

STARTCHAR Y
ENCODING 89
SWIDTH 547 0
DWIDTH 8 0
BBX 8 11 2 0
BITMAP
C3
C3
C6
6C
6C
38
30
30
60
60
60
ENDCHAR

STARTCHAR Z
ENCODING 90
SWIDTH 501 0
DWIDTH 7 0
BBX 9 11 0 0
BITMAP
3F80
3F80
0300
0600
0C00
1800
3000
6000
C000
FE00
FE00
ENDCHAR

STARTCHAR bracketleft
ENCODING 91
SWIDTH 273 0
DWIDTH 4 0
BBX 6 14 0 -3
BITMAP
1C
18
18
30
30
30
30
60
60
60
60
C0
C0
E0
ENDCHAR

STARTCHAR backslash
ENCODING 92
SWIDTH 228 0
DWIDTH 5 0
BBX 4 11 1 0
BITMAP
C0
C0
C0
40
60
60
60
20
30
30
30
ENDCHAR

STARTCHAR bracketright
ENCODING 93
SWIDTH 273 0
DWIDTH 4 0
BBX 6 14 -1 -3
BITMAP
1C
0C
0C
18
18
18
18
30
30
30
30
60
60
E0
ENDCHAR

STARTCHAR asciicircum
ENCODING 94
SWIDTH 479 0
DWIDTH 7 0
BBX 5 5 2 6
BITMAP
18
38
68
C8
88
ENDCHAR

STARTCHAR underscore
ENCODING 95
SWIDTH 456 0
DWIDTH 7 0
BBX 7 1 -1 -2
BITMAP
FE
ENDCHAR

STARTCHAR quoteleft
ENCODING 96
SWIDTH 228 0
DWIDTH 3 0
BBX 2 4 2 7
BITMAP
40
80
C0
C0
ENDCHAR

STARTCHAR a
ENCODING 97
SWIDTH 456 0
DWIDTH 7 0
BBX 8 8 0 0
BITMAP
3C
7E
46
3E
FC
CC
FC
76
ENDCHAR

STARTCHAR b
ENCODING 98
SWIDTH 501 0
DWIDTH 7 0
BBX 7 11 0 0
BITMAP
30
30
30
6C
7E
66
66
C6
CC
FC
D8
ENDCHAR

STARTCHAR c
ENCODING 99
SWIDTH 456 0
DWIDTH 7 0
BBX 7 8 0 0
BITMAP
3C
7E
66
C0
C0
CC
FC
78
ENDCHAR

STARTCHAR d
ENCODING 100
SWIDTH 501 0
DWIDTH 7 0
BBX 8 11 0 0
BITMAP
03
03
03
36
7E
66
C6
CC
CC
FC
6C
ENDCHAR

STARTCHAR e
ENCODING 101
SWIDTH 456 0
DWIDTH 7 0
BBX 7 8 0 0
BITMAP
3C
7E
66
FE
FC
C0
FC
78
ENDCHAR

STARTCHAR f
ENCODING 102
SWIDTH 273 0
DWIDTH 5 0
BBX 5 11 1 0
BITMAP
18
38
30
F8
F8
60
60
C0
C0
C0
C0
ENDCHAR

STARTCHAR g
ENCODING 103
SWIDTH 501 0
DWIDTH 7 0
BBX 8 11 -1 -3
BITMAP
1B
3F
33
63
66
66
7E
36
0C
FC
78
ENDCHAR

STARTCHAR h
ENCODING 104
SWIDTH 501 0
DWIDTH 7 0
BBX 8 11 0 0
BITMAP
30
30
30
6C
7E
76
66
CC
CC
CC
CC
ENDCHAR

STARTCHAR i
ENCODING 105
SWIDTH 228 0
DWIDTH 5 0
BBX 4 11 1 0
BITMAP
30
30
00
60
60
60
60
C0
C0
C0
C0
ENDCHAR

STARTCHAR j
ENCODING 106
SWIDTH 228 0
DWIDTH 5 0
BBX 6 14 -1 -3
BITMAP
0C
0C
00
18
18
18
18
30
30
30
30
60
60
C0
ENDCHAR

STARTCHAR k
ENCODING 107
SWIDTH 456 0
DWIDTH 6 0
BBX 7 11 0 0
BITMAP
30
30
30
66
6C
78
70
D8
D8
CC
CC
ENDCHAR

STARTCHAR l
ENCODING 108
SWIDTH 228 0
DWIDTH 5 0
BBX 4 11 1 0
BITMAP
30
30
30
60
60
60
60
C0
C0
C0
C0
ENDCHAR

STARTCHAR m
ENCODING 109
SWIDTH 729 0
DWIDTH 11 0
BBX 11 8 0 0
BITMAP
5DC0
7FE0
7760
6660
CCC0
CCC0
CCC0
CCC0
ENDCHAR

STARTCHAR n
ENCODING 110
SWIDTH 501 0
DWIDTH 7 0
BBX 7 8 0 0
BITMAP
6C
7E
76
66
CC
CC
CC
CC
ENDCHAR

STARTCHAR o
ENCODING 111
SWIDTH 501 0
DWIDTH 7 0
BBX 7 8 0 0
BITMAP
3C
7E
66
C6
C6
CC
FC
78
ENDCHAR

STARTCHAR p
ENCODING 112
SWIDTH 501 0
DWIDTH 7 0
BBX 8 11 -1 -3
BITMAP
36
3F
33
33
63
66
7E
6C
C0
C0
C0
ENDCHAR

STARTCHAR q
ENCODING 113
SWIDTH 501 0
DWIDTH 7 0
BBX 7 11 0 -3
BITMAP
36
7E
66
C6
CC
CC
FC
6C
18
18
18
ENDCHAR

STARTCHAR r
ENCODING 114
SWIDTH 319 0
DWIDTH 4 0
BBX 5 8 0 0
BITMAP
58
70
60
60
C0
C0
C0
C0
ENDCHAR

STARTCHAR s
ENCODING 115
SWIDTH 456 0
DWIDTH 7 0
BBX 7 8 0 0
BITMAP
3C
7E
66
30
18
CC
FC
78
ENDCHAR

STARTCHAR t
ENCODING 116
SWIDTH 273 0
DWIDTH 5 0
BBX 5 10 1 0
BITMAP
30
30
F8
F8
60
60
C0
C0
E0
60
ENDCHAR

STARTCHAR u
ENCODING 117
SWIDTH 501 0
DWIDTH 7 0
BBX 7 8 0 0
BITMAP
66
66
66
CC
CC
DC
FC
6C
ENDCHAR

STARTCHAR v
ENCODING 118
SWIDTH 456 0
DWIDTH 7 0
BBX 6 8 1 0
BITMAP
CC
CC
D8
D8
70
70
60
60
ENDCHAR

STARTCHAR w
ENCODING 119
SWIDTH 638 0
DWIDTH 9 0
BBX 8 8 1 0
BITMAP
DB
DB
DA
FE
EC
6C
48
48
ENDCHAR

STARTCHAR x
ENCODING 120
SWIDTH 456 0
DWIDTH 7 0
BBX 7 8 0 0
BITMAP
66
66
6C
38
38
6C
CC
CC
ENDCHAR

STARTCHAR y
ENCODING 121
SWIDTH 456 0
DWIDTH 7 0
BBX 7 11 0 -3
BITMAP
66
66
6C
6C
38
38
30
30
60
E0
C0
ENDCHAR

STARTCHAR z
ENCODING 122
SWIDTH 410 0
DWIDTH 7 0
BBX 7 8 0 0
BITMAP
7E
7E
0C
18
30
60
FC
FC
ENDCHAR

STARTCHAR braceleft
ENCODING 123
SWIDTH 319 0
DWIDTH 4 0
BBX 6 14 0 -3
BITMAP
0C
18
30
30
30
60
C0
60
60
60
C0
C0
C0
60
ENDCHAR

STARTCHAR bar
ENCODING 124
SWIDTH 230 0
DWIDTH 3 0
BBX 4 14 0 -3
BITMAP
10
10
10
20
20
20
20
40
40
40
80
80
80
80
ENDCHAR

STARTCHAR braceright
ENCODING 125
SWIDTH 319 0
DWIDTH 4 0
BBX 6 14 -2 -3
BITMAP
18
0C
0C
0C
18
18
18
0C
18
30
30
30
60
C0
ENDCHAR

STARTCHAR asciitilde
ENCODING 126
SWIDTH 479 0
DWIDTH 7 0
BBX 7 3 0 3
BITMAP
32
7C
98
ENDCHAR

STARTCHAR exclamdown
ENCODING 161
SWIDTH 273 0
DWIDTH 3 0
BBX 4 11 -1 -3
BITMAP
30
30
00
30
30
60
60
60
C0
C0
C0
ENDCHAR

STARTCHAR cent
ENCODING 162
SWIDTH 456 0
DWIDTH 7 0
BBX 7 10 0 -1
BITMAP
08
3C
7E
6E
D0
D0
EC
FC
78
20
ENDCHAR

STARTCHAR sterling
ENCODING 163
SWIDTH 456 0
DWIDTH 7 0
BBX 8 11 0 0
BITMAP
0E
1F
33
30
18
7E
18
18
30
FE
DC
ENDCHAR

STARTCHAR currency
ENCODING 164
SWIDTH 456 0
DWIDTH 7 0
BBX 8 7 0 2
BITMAP
13
1E
36
66
6C
78
C8
ENDCHAR

STARTCHAR yen
ENCODING 165
SWIDTH 456 0
DWIDTH 7 0
BBX 8 11 1 0
BITMAP
C3
C3
66
6C
38
7C
30
F8
60
60
60
ENDCHAR

STARTCHAR brokenbar
ENCODING 166
SWIDTH 230 0
DWIDTH 3 0
BBX 4 14 0 -3
BITMAP
10
10
10
20
20
20
00
00
40
40
40
80
80
80
ENDCHAR

STARTCHAR section
ENCODING 167
SWIDTH 456 0
DWIDTH 7 0
BBX 9 14 -1 -3
BITMAP
0700
0F80
1980
1800
3C00
6E00
6700
7300
3B00
1E00
0C00
CC00
F800
7000
ENDCHAR

STARTCHAR dieresis
ENCODING 168
SWIDTH 273 0
DWIDTH 5 0
BBX 5 2 1 9
BITMAP
D8
D8
ENDCHAR

STARTCHAR copyright
ENCODING 169
SWIDTH 604 0
DWIDTH 13 0
BBX 12 11 1 0
BITMAP
0FC0
3860
6730
6DB0
D9B0
D830
D9B0
DB60
CE60
61C0
3F00
ENDCHAR

STARTCHAR ordfeminine
ENCODING 170
SWIDTH 303 0
DWIDTH 5 0
BBX 5 7 1 4
BITMAP
70
18
78
B0
D0
00
F0
ENDCHAR

STARTCHAR guillemotleft
ENCODING 171
SWIDTH 456 0
DWIDTH 8 0
BBX 8 5 0 2
BITMAP
1B
36
6C
6C
36
ENDCHAR

STARTCHAR logicalnot
ENCODING 172
SWIDTH 479 0
DWIDTH 9 0
BBX 6 5 2 2
BITMAP
FC
FC
08
18
18
ENDCHAR

STARTCHAR hyphen
ENCODING 173
SWIDTH 273 0
DWIDTH 4 0
BBX 3 2 0 3
BITMAP
E0
E0
ENDCHAR

STARTCHAR registered
ENCODING 174
SWIDTH 604 0
DWIDTH 13 0
BBX 12 11 1 0
BITMAP
0FC0
3860
6730
65B0
CD30
CE30
CB30
DB60
DB60
61C0
3F00
ENDCHAR

STARTCHAR macron
ENCODING 175
SWIDTH 273 0
DWIDTH 4 0
BBX 4 2 1 9
BITMAP
F0
F0
ENDCHAR

STARTCHAR degree
ENCODING 176
SWIDTH 328 0
DWIDTH 6 0
BBX 4 4 2 7
BITMAP
60
90
90
60
ENDCHAR

STARTCHAR plusminus
ENCODING 177
SWIDTH 479 0
DWIDTH 7 0
BBX 6 9 0 0
BITMAP
18
18
7C
7C
30
30
00
F8
F8
ENDCHAR

STARTCHAR twosuperior
ENCODING 178
SWIDTH 273 0
DWIDTH 4 0
BBX 5 6 0 5
BITMAP
30
48
18
60
80
F0
ENDCHAR

STARTCHAR threesuperior
ENCODING 179
SWIDTH 273 0
DWIDTH 4 0
BBX 5 6 0 5
BITMAP
70
08
70
10
90
60
ENDCHAR

STARTCHAR acute
ENCODING 180
SWIDTH 273 0
DWIDTH 4 0
BBX 4 3 2 9
BITMAP
30
70
C0
ENDCHAR

STARTCHAR mu
ENCODING 181
SWIDTH 501 0
DWIDTH 7 0
BBX 8 11 -1 -3
BITMAP
33
33
33
66
66
6E
7E
F6
C0
C0
C0
ENDCHAR

STARTCHAR paragraph
ENCODING 182
SWIDTH 456 0
DWIDTH 10 0
BBX 10 14 0 -3
BITMAP
0FC0
1FC0
1EC0
3D80
3D80
1D80
0D80
1B00
1B00
1B00
1B00
3600
3600
3600
ENDCHAR

STARTCHAR periodcentered
ENCODING 183
SWIDTH 228 0
DWIDTH 3 0
BBX 2 2 1 5
BITMAP
C0
C0
ENDCHAR

STARTCHAR cedilla
ENCODING 184
SWIDTH 273 0
DWIDTH 5 0
BBX 3 3 0 -3
BITMAP
40
60
C0
ENDCHAR

STARTCHAR onesuperior
ENCODING 185
SWIDTH 273 0
DWIDTH 4 0
BBX 3 6 1 5
BITMAP
20
E0
20
40
40
40
ENDCHAR

STARTCHAR ordmasculine
ENCODING 186
SWIDTH 299 0
DWIDTH 6 0
BBX 6 7 1 4
BITMAP
38
6C
CC
D8
70
00
F8
ENDCHAR

STARTCHAR guillemotright
ENCODING 187
SWIDTH 456 0
DWIDTH 8 0
BBX 7 5 0 2
BITMAP
6C
36
36
6C
D8
ENDCHAR

STARTCHAR onequarter
ENCODING 188
SWIDTH 684 0
DWIDTH 11 0
BBX 9 11 1 0
BITMAP
2300
E200
2400
4400
4800
5980
1280
2500
2900
4F80
C200
ENDCHAR

STARTCHAR onehalf
ENCODING 189
SWIDTH 684 0
DWIDTH 11 0
BBX 9 11 1 0
BITMAP
2300
E200
2400
4400
4800
5B00
1480
2180
2600
4800
CF00
ENDCHAR

STARTCHAR threequarters
ENCODING 190
SWIDTH 684 0
DWIDTH 11 0
BBX 10 11 0 0
BITMAP
7180
0900
7200
1200
9400
6CC0
0940
1280
1480
27C0
6100
ENDCHAR

STARTCHAR questiondown
ENCODING 191
SWIDTH 501 0
DWIDTH 7 0
BBX 6 11 0 -3
BITMAP
0C
0C
00
0C
0C
38
70
C0
CC
FC
78
ENDCHAR

STARTCHAR Agrave
ENCODING 192
SWIDTH 592 0
DWIDTH 8 0
BBX 8 12 0 0
BITMAP
18
1C
06
00
0C
0C
1E
32
3E
7F
C3
C3
ENDCHAR

STARTCHAR Aacute
ENCODING 193
SWIDTH 592 0
DWIDTH 8 0
BBX 8 12 0 0
BITMAP
06
0E
18
00
0C
0C
1E
32
3E
7F
C3
C3
ENDCHAR

STARTCHAR Acircumflex
ENCODING 194
SWIDTH 592 0
DWIDTH 8 0
BBX 8 12 0 0
BITMAP
06
0E
1B
00
0C
0C
1E
32
3E
7F
C3
C3
ENDCHAR

STARTCHAR Atilde
ENCODING 195
SWIDTH 592 0
DWIDTH 8 0
BBX 8 12 0 0
BITMAP
19
3F
26
00
0C
0C
1E
32
3E
7F
C3
C3
ENDCHAR

STARTCHAR Adieresis
ENCODING 196
SWIDTH 592 0
DWIDTH 8 0
BBX 8 11 0 0
BITMAP
1B
1B
00
0C
0C
1E
32
3E
7F
C3
C3
ENDCHAR

STARTCHAR Aring
ENCODING 197
SWIDTH 592 0
DWIDTH 8 0
BBX 8 12 0 0
BITMAP
03
05
06
0E
0E
1E
33
33
7F
FF
C3
C3
ENDCHAR

STARTCHAR AE
ENCODING 198
SWIDTH 820 0
DWIDTH 12 0
BBX 13 11 0 0
BITMAP
07F8
07F8
0F80
0F00
1BE0
33E0
3300
7E00
FE00
C7E0
C7E0
ENDCHAR

STARTCHAR Ccedilla
ENCODING 199
SWIDTH 592 0
DWIDTH 8 0
BBX 8 14 1 -3
BITMAP
1E
3F
33
60
60
60
C0
C0
CC
FC
78
20
30
60
ENDCHAR

STARTCHAR Egrave
ENCODING 200
SWIDTH 547 0
DWIDTH 8 0
BBX 8 12 1 0
BITMAP
18
1C
06
00
3F
3F
60
7C
7C
C0
FC
FC
ENDCHAR

STARTCHAR Eacute
ENCODING 201
SWIDTH 547 0
DWIDTH 8 0
BBX 8 12 1 0
BITMAP
06
0E
18
00
3F
3F
60
7C
7C
C0
FC
FC
ENDCHAR

STARTCHAR Ecircumflex
ENCODING 202
SWIDTH 547 0
DWIDTH 8 0
BBX 8 12 1 0
BITMAP
06
0E
1B
00
3F
3F
60
7C
7C
C0
FC
FC
ENDCHAR

STARTCHAR Edieresis
ENCODING 203
SWIDTH 547 0
DWIDTH 8 0
BBX 8 11 1 0
BITMAP
1B
1B
00
3F
3F
60
7C
7C
C0
FC
FC
ENDCHAR

STARTCHAR Igrave
ENCODING 204
SWIDTH 228 0
DWIDTH 6 0
BBX 4 12 2 0
BITMAP
C0
E0
30
00
60
60
60
60
C0
C0
C0
C0
ENDCHAR

STARTCHAR Iacute
ENCODING 205
SWIDTH 228 0
DWIDTH 6 0
BBX 4 12 2 0
BITMAP
30
70
C0
00
60
60
60
60
C0
C0
C0
C0
ENDCHAR

STARTCHAR Icircumflex
ENCODING 206
SWIDTH 228 0
DWIDTH 6 0
BBX 5 12 2 0
BITMAP
30
70
D8
00
60
60
60
60
C0
C0
C0
C0
ENDCHAR

STARTCHAR Idieresis
ENCODING 207
SWIDTH 228 0
DWIDTH 6 0
BBX 5 11 2 0
BITMAP
D8
D8
00
60
60
60
60
C0
C0
C0
C0
ENDCHAR

STARTCHAR Eth
ENCODING 208
SWIDTH 592 0
DWIDTH 9 0
BBX 9 11 1 0
BITMAP
3E00
3F00
3380
6180
6180
F980
6300
C300
C600
FE00
F800
ENDCHAR

STARTCHAR Ntilde
ENCODING 209
SWIDTH 592 0
DWIDTH 9 0
BBX 8 12 1 0
BITMAP
19
3F
26
00
63
63
73
7B
DE
CE
C6
C6
ENDCHAR

STARTCHAR Ograve
ENCODING 210
SWIDTH 638 0
DWIDTH 9 0
BBX 9 12 1 0
BITMAP
0C00
0E00
0300
0000
1F00
3F80
6180
6180
C300
C300
FE00
7C00
ENDCHAR

STARTCHAR Oacute
ENCODING 211
SWIDTH 638 0
DWIDTH 9 0
BBX 9 12 1 0
BITMAP
0300
0700
0C00
0000
1F00
3F80
6180
6180
C300
C300
FE00
7C00
ENDCHAR

STARTCHAR Ocircumflex
ENCODING 212
SWIDTH 638 0
DWIDTH 9 0
BBX 9 12 1 0
BITMAP
0300
0700
0D80
0000
1F00
3F80
6180
6180
C300
C300
FE00
7C00
ENDCHAR

STARTCHAR Otilde
ENCODING 213
SWIDTH 638 0
DWIDTH 9 0
BBX 9 12 1 0
BITMAP
0C80
1F80
1300
0000
1F00
3F80
6180
6180
C300
C300
FE00
7C00
ENDCHAR

STARTCHAR Odieresis
ENCODING 214
SWIDTH 638 0
DWIDTH 9 0
BBX 9 11 1 0
BITMAP
1B00
1B00
0000
1F00
3F80
6180
6180
C300
C300
FE00
7C00
ENDCHAR

STARTCHAR multiply
ENCODING 215
SWIDTH 479 0
DWIDTH 7 0
BBX 7 6 0 1
BITMAP
66
6C
38
38
6C
CC
ENDCHAR

STARTCHAR Oslash
ENCODING 216
SWIDTH 638 0
DWIDTH 9 0
BBX 11 11 0 0
BITMAP
0F60
1FC0
19C0
33C0
36C0
3D80
7980
7180
6300
7F00
DE00
ENDCHAR

STARTCHAR Ugrave
ENCODING 217
SWIDTH 592 0
DWIDTH 9 0
BBX 8 12 1 0
BITMAP
18
1C
06
00
63
63
63
C6
C6
C6
FE
7C
ENDCHAR

STARTCHAR Uacute
ENCODING 218
SWIDTH 592 0
DWIDTH 9 0
BBX 8 12 1 0
BITMAP
06
0E
18
00
63
63
63
C6
C6
C6
FE
7C
ENDCHAR

STARTCHAR Ucircumflex
ENCODING 219
SWIDTH 592 0
DWIDTH 9 0
BBX 8 12 1 0
BITMAP
06
0E
1B
00
63
63
63
C6
C6
C6
FE
7C
ENDCHAR

STARTCHAR Udieresis
ENCODING 220
SWIDTH 592 0
DWIDTH 9 0
BBX 8 11 1 0
BITMAP
36
36
00
63
63
63
C6
C6
C6
FE
7C
ENDCHAR

STARTCHAR Yacute
ENCODING 221
SWIDTH 547 0
DWIDTH 8 0
BBX 7 12 2 0
BITMAP
06
0E
18
00
C6
C6
6C
38
30
60
60
60
ENDCHAR

STARTCHAR Thorn
ENCODING 222
SWIDTH 547 0
DWIDTH 9 0
BBX 8 11 1 0
BITMAP
30
30
3E
3F
63
63
66
7E
FC
C0
C0
ENDCHAR

STARTCHAR germandbls
ENCODING 223
SWIDTH 501 0
DWIDTH 7 0
BBX 8 11 0 0
BITMAP
1E
3F
33
66
6C
6C
66
C6
C6
DC
D8
ENDCHAR

STARTCHAR agrave
ENCODING 224
SWIDTH 456 0
DWIDTH 7 0
BBX 7 12 0 0
BITMAP
30
38
0C
00
3C
7E
46
3E
FC
CC
FC
76
ENDCHAR

STARTCHAR aacute
ENCODING 225
SWIDTH 456 0
DWIDTH 7 0
BBX 7 12 0 0
BITMAP
06
0E
18
00
3C
7E
46
3E
FC
CC
FC
76
ENDCHAR

STARTCHAR acircumflex
ENCODING 226
SWIDTH 456 0
DWIDTH 7 0
BBX 7 12 0 0
BITMAP
0C
1C
36
00
3C
7E
46
3E
FC
CC
FC
76
ENDCHAR

STARTCHAR atilde
ENCODING 227
SWIDTH 456 0
DWIDTH 7 0
BBX 8 12 0 0
BITMAP
19
3F
26
00
3C
7E
46
3E
FC
CC
FC
76
ENDCHAR

STARTCHAR adieresis
ENCODING 228
SWIDTH 456 0
DWIDTH 7 0
BBX 7 11 0 0
BITMAP
36
36
00
3C
7E
46
3E
FC
CC
FC
76
ENDCHAR

STARTCHAR aring
ENCODING 229
SWIDTH 456 0
DWIDTH 7 0
BBX 7 12 0 0
BITMAP
0C
14
18
00
3C
7E
46
3E
FC
CC
FC
76
ENDCHAR

STARTCHAR ae
ENCODING 230
SWIDTH 729 0
DWIDTH 11 0
BBX 11 8 0 0
BITMAP
3DC0
7FE0
4660
3FE0
FFC0
CC00
FFC0
7780
ENDCHAR

STARTCHAR ccedilla
ENCODING 231
SWIDTH 456 0
DWIDTH 7 0
BBX 7 11 0 -3
BITMAP
3C
7E
66
C0
C0
CC
FC
78
20
30
60
ENDCHAR

STARTCHAR egrave
ENCODING 232
SWIDTH 456 0
DWIDTH 7 0
BBX 7 12 0 0
BITMAP
30
38
0C
00
3C
7E
66
FE
FC
C0
FC
78
ENDCHAR

STARTCHAR eacute
ENCODING 233
SWIDTH 456 0
DWIDTH 7 0
BBX 7 12 0 0
BITMAP
06
0E
18
00
3C
7E
66
FE
FC
C0
FC
78
ENDCHAR

STARTCHAR ecircumflex
ENCODING 234
SWIDTH 456 0
DWIDTH 7 0
BBX 7 12 0 0
BITMAP
0C
1C
36
00
3C
7E
66
FE
FC
C0
FC
78
ENDCHAR

STARTCHAR edieresis
ENCODING 235
SWIDTH 456 0
DWIDTH 7 0
BBX 7 11 0 0
BITMAP
36
36
00
3C
7E
66
FE
FC
C0
FC
78
ENDCHAR

STARTCHAR igrave
ENCODING 236
SWIDTH 228 0
DWIDTH 5 0
BBX 4 12 1 0
BITMAP
C0
E0
30
00
60
60
60
60
C0
C0
C0
C0
ENDCHAR

STARTCHAR iacute
ENCODING 237
SWIDTH 228 0
DWIDTH 5 0
BBX 5 12 1 0
BITMAP
18
38
60
00
60
60
60
60
C0
C0
C0
C0
ENDCHAR

STARTCHAR icircumflex
ENCODING 238
SWIDTH 228 0
DWIDTH 5 0
BBX 5 12 1 0
BITMAP
30
70
D8
00
60
60
60
60
C0
C0
C0
C0
ENDCHAR

STARTCHAR idieresis
ENCODING 239
SWIDTH 228 0
DWIDTH 5 0
BBX 5 11 1 0
BITMAP
D8
D8
00
60
60
60
60
C0
C0
C0
C0
ENDCHAR

STARTCHAR eth
ENCODING 240
SWIDTH 501 0
DWIDTH 7 0
BBX 7 11 0 0
BITMAP
34
18
2C
3E
7E
66
C6
C6
CC
FC
78
ENDCHAR

STARTCHAR ntilde
ENCODING 241
SWIDTH 501 0
DWIDTH 7 0
BBX 7 12 0 0
BITMAP
32
7E
4C
00
6C
7E
76
66
CC
CC
CC
CC
ENDCHAR

STARTCHAR ograve
ENCODING 242
SWIDTH 501 0
DWIDTH 7 0
BBX 7 12 0 0
BITMAP
30
38
0C
00
3C
7E
66
C6
C6
CC
FC
78
ENDCHAR

STARTCHAR oacute
ENCODING 243
SWIDTH 501 0
DWIDTH 7 0
BBX 7 12 0 0
BITMAP
06
0E
18
00
3C
7E
66
C6
C6
CC
FC
78
ENDCHAR

STARTCHAR ocircumflex
ENCODING 244
SWIDTH 501 0
DWIDTH 7 0
BBX 7 12 0 0
BITMAP
0C
1C
36
00
3C
7E
66
C6
C6
CC
FC
78
ENDCHAR

STARTCHAR otilde
ENCODING 245
SWIDTH 501 0
DWIDTH 7 0
BBX 8 12 0 0
BITMAP
19
3F
26
00
3C
7E
66
C6
C6
CC
FC
78
ENDCHAR

STARTCHAR odieresis
ENCODING 246
SWIDTH 501 0
DWIDTH 7 0
BBX 7 11 0 0
BITMAP
36
36
00
3C
7E
66
C6
C6
CC
FC
78
ENDCHAR

STARTCHAR divide
ENCODING 247
SWIDTH 479 0
DWIDTH 7 0
BBX 5 8 1 0
BITMAP
30
30
00
F8
F8
00
60
60
ENDCHAR

STARTCHAR oslash
ENCODING 248
SWIDTH 501 0
DWIDTH 7 0
BBX 7 10 0 -1
BITMAP
06
3C
7E
6E
D6
E6
CC
FC
78
C0
ENDCHAR

STARTCHAR ugrave
ENCODING 249
SWIDTH 501 0
DWIDTH 7 0
BBX 7 12 0 0
BITMAP
30
38
0C
00
66
66
66
CC
CC
DC
FC
6C
ENDCHAR

STARTCHAR uacute
ENCODING 250
SWIDTH 501 0
DWIDTH 7 0
BBX 7 12 0 0
BITMAP
06
0E
18
00
66
66
66
CC
CC
DC
FC
6C
ENDCHAR

STARTCHAR ucircumflex
ENCODING 251
SWIDTH 501 0
DWIDTH 7 0
BBX 7 12 0 0
BITMAP
0C
1C
36
00
66
66
66
CC
CC
DC
FC
6C
ENDCHAR

STARTCHAR udieresis
ENCODING 252
SWIDTH 501 0
DWIDTH 7 0
BBX 7 11 0 0
BITMAP
36
36
00
66
66
66
CC
CC
DC
FC
6C
ENDCHAR

STARTCHAR yacute
ENCODING 253
SWIDTH 456 0
DWIDTH 7 0
BBX 7 15 0 -3
BITMAP
06
0E
18
00
66
66
6C
6C
38
38
30
30
60
E0
C0
ENDCHAR

STARTCHAR thorn
ENCODING 254
SWIDTH 501 0
DWIDTH 7 0
BBX 8 14 -1 -3
BITMAP
18
18
18
36
3F
33
33
63
66
7E
6C
C0
C0
C0
ENDCHAR

STARTCHAR ydieresis
ENCODING 255
SWIDTH 456 0
DWIDTH 7 0
BBX 7 14 0 -3
BITMAP
36
36
00
66
66
6C
6C
38
38
30
30
60
E0
C0
ENDCHAR

ENDFONT
