STARTFONT 2.1
FONT -Adobe-Palatino-Bold-I-Normal--25-180-100-100-P-135-ISO8859-1
SIZE 18 100 100
FONTBOUNDINGBOX 29 24 -3 -6

STARTPROPERTIES 26
_DEC_DEVICE_FONTNAMES "PS=Palatino-BoldItalic"
FONTNAME_REGISTRY ""
FAMILY_NAME "Palatino"
FOUNDRY "Adobe"
WEIGHT_NAME "Bold"
SLANT "I"
SETWIDTH_NAME "Normal"
ADD_STYLE_NAME ""
PIXEL_SIZE 25
POINT_SIZE 180
RESOLUTION_X 100
RESOLUTION_Y 100
SPACING "P"
AVERAGE_WIDTH 135
CHARSET_REGISTRY "ISO8859"
CHARSET_ENCODING "1"
CHARSET_COLLECTIONS "ASCII ISO8859-1 ADOBE-STANDARD"
FULL_NAME "Palatino Bold Italic"
COPYRIGHT "Copyright (c) 1991 Adobe Systems, Inc."
CAP_HEIGHT 18
X_HEIGHT 12
WEIGHT 10
QUAD_WIDTH 15
DEFAULT_CHAR 0
FONT_DESCENT 6
FONT_ASCENT 18
ENDPROPERTIES

CHARS 190

STARTCHAR space
ENCODING 32
SWIDTH 250 0
DWIDTH 6 0
BBX 1 1 0 0
BITMAP
00
ENDCHAR

STARTCHAR exclam
ENCODING 33
SWIDTH 333 0
DWIDTH 8 0
BBX 7 18 1 0
BITMAP
1E
1E
1E
1C
3C
3C
38
38
38
30
30
20
20
00
60
F0
F0
60
ENDCHAR

STARTCHAR quotedbl
ENCODING 34
SWIDTH 500 0
DWIDTH 11 0
BBX 7 7 3 11
BITMAP
66
EE
EE
CC
CC
88
88
ENDCHAR

STARTCHAR numbersign
ENCODING 35
SWIDTH 606 0
DWIDTH 12 0
BBX 13 18 -1 0
BITMAP
0C60
0C60
0C60
0C60
0C60
7FF8
7FF8
18C0
18C0
18C0
FFF0
FFF0
3180
3180
3180
3180
3180
3180
ENDCHAR

STARTCHAR dollar
ENCODING 36
SWIDTH 500 0
DWIDTH 12 0
BBX 10 20 1 -2
BITMAP
0200
0F80
1FC0
32C0
6240
6240
6400
7400
7C00
3F00
1F80
0FC0
0BC0
09C0
89C0
CB80
7F00
3E00
1000
1000
ENDCHAR

STARTCHAR percent
ENCODING 37
SWIDTH 889 0
DWIDTH 19 0
BBX 16 18 1 0
BITMAP
1C18
3E38
63F0
6230
C620
C460
CC40
F8C0
7080
018E
0119
0331
0231
0663
0462
0C66
087C
1838
ENDCHAR

STARTCHAR ampersand
ENCODING 38
SWIDTH 833 0
DWIDTH 21 0
BBX 18 18 2 0
BITMAP
03E000
07F000
0C3000
181000
181000
1C0180
0E00C0
0F81C0
380F80
707E00
E0FC00
E08E00
E00600
E00600
E00600
700C00
3C3800
0FF000
ENDCHAR

STARTCHAR quoteright
ENCODING 39
SWIDTH 278 0
DWIDTH 7 0
BBX 5 7 1 11
BITMAP
38
38
38
30
70
60
C0
ENDCHAR

STARTCHAR parenleft
ENCODING 40
SWIDTH 333 0
DWIDTH 8 0
BBX 8 22 0 -4
BITMAP
03
06
0C
1C
18
38
30
70
60
E0
E0
E0
E0
E0
E0
E0
60
60
30
30
18
0C
ENDCHAR

STARTCHAR parenright
ENCODING 41
SWIDTH 333 0
DWIDTH 8 0
BBX 8 22 0 -4
BITMAP
30
18
0C
0C
06
06
07
07
07
07
07
07
07
06
0E
0C
1C
18
38
30
60
C0
ENDCHAR

STARTCHAR asterisk
ENCODING 42
SWIDTH 444 0
DWIDTH 11 0
BBX 9 9 2 9
BITMAP
0C00
CC00
EC00
7B80
1F80
7C00
EC00
CE00
0600
ENDCHAR

STARTCHAR plus
ENCODING 43
SWIDTH 606 0
DWIDTH 15 0
BBX 12 12 1 0
BITMAP
0600
0600
0600
0600
0600
FFF0
FFF0
0600
0600
0600
0600
0600
ENDCHAR

STARTCHAR comma
ENCODING 44
SWIDTH 250 0
DWIDTH 6 0
BBX 6 7 -1 -4
BITMAP
1C
3C
38
70
60
C0
80
ENDCHAR

STARTCHAR minus
ENCODING 45
SWIDTH 606 0
DWIDTH 15 0
BBX 12 2 1 5
BITMAP
FFF0
FFF0
ENDCHAR

STARTCHAR period
ENCODING 46
SWIDTH 250 0
DWIDTH 6 0
BBX 4 4 1 0
BITMAP
60
F0
F0
60
ENDCHAR

STARTCHAR slash
ENCODING 47
SWIDTH 315 0
DWIDTH 7 0
BBX 7 18 0 0
BITMAP
06
06
06
0C
0C
0C
18
18
18
30
30
30
60
60
60
C0
C0
C0
ENDCHAR

STARTCHAR zero
ENCODING 48
SWIDTH 500 0
DWIDTH 12 0
BBX 11 18 0 0
BITMAP
0F80
1DC0
38C0
38E0
70E0
70E0
70E0
E0E0
E0E0
E0E0
E1C0
E1C0
E1C0
E1C0
E380
6380
7700
3E00
ENDCHAR

STARTCHAR one
ENCODING 49
SWIDTH 500 0
DWIDTH 12 0
BBX 8 18 1 0
BITMAP
03
0F
3F
E7
07
07
0E
0E
0E
0E
0E
0E
1C
1C
1C
1C
1C
7F
ENDCHAR

STARTCHAR two
ENCODING 50
SWIDTH 500 0
DWIDTH 12 0
BBX 11 18 0 0
BITMAP
0F80
1FC0
39E0
30E0
20E0
00E0
00E0
01C0
01C0
0380
0300
0600
0C00
1800
3000
6000
FFE0
FFE0
ENDCHAR

STARTCHAR three
ENCODING 51
SWIDTH 500 0
DWIDTH 12 0
BBX 11 18 0 0
BITMAP
0F80
1FC0
31E0
20E0
00E0
00E0
01C0
0F80
0380
01C0
00E0
00E0
00E0
01E0
81C0
C3C0
E780
7E00
ENDCHAR

STARTCHAR four
ENCODING 52
SWIDTH 500 0
DWIDTH 12 0
BBX 11 18 0 0
BITMAP
00C0
01C0
03C0
07C0
05C0
0DC0
09C0
19C0
3380
2380
6380
4380
FFE0
FFE0
0700
0700
0700
1FC0
ENDCHAR

STARTCHAR five
ENCODING 53
SWIDTH 500 0
DWIDTH 12 0
BBX 10 18 1 0
BITMAP
3FC0
7FC0
7FC0
6000
6000
C000
CF00
FF80
E380
C1C0
01C0
01C0
01C0
01C0
8380
C380
E700
7C00
ENDCHAR

STARTCHAR six
ENCODING 54
SWIDTH 500 0
DWIDTH 12 0
BBX 11 18 0 0
BITMAP
01E0
07E0
0C00
1800
3000
3000
6000
6780
EDC0
F0E0
E0E0
E0E0
E0E0
E0E0
E1C0
61C0
7380
3E00
ENDCHAR

STARTCHAR seven
ENCODING 55
SWIDTH 500 0
DWIDTH 12 0
BBX 11 18 1 0
BITMAP
FFE0
FFE0
FFC0
00C0
0180
0180
0300
0300
0600
0E00
0C00
1C00
1800
3800
7000
7000
E000
E000
ENDCHAR

STARTCHAR eight
ENCODING 56
SWIDTH 500 0
DWIDTH 12 0
BBX 11 18 0 0
BITMAP
0F80
1CC0
3860
3860
3860
3CC0
3F80
1F00
1F80
33C0
61E0
60E0
C0E0
C0E0
C0C0
E1C0
7380
3F00
ENDCHAR

STARTCHAR nine
ENCODING 57
SWIDTH 500 0
DWIDTH 12 0
BBX 11 18 0 0
BITMAP
0700
1F80
31C0
60C0
E0E0
E0E0
E0E0
E0E0
F1E0
7EE0
3CE0
00E0
01C0
01C0
0180
C380
6700
3E00
ENDCHAR

STARTCHAR colon
ENCODING 58
SWIDTH 250 0
DWIDTH 6 0
BBX 5 12 1 0
BITMAP
30
78
78
30
00
00
00
00
60
F0
F0
60
ENDCHAR

STARTCHAR semicolon
ENCODING 59
SWIDTH 250 0
DWIDTH 6 0
BBX 7 16 -1 -4
BITMAP
0C
1E
1E
0C
00
00
00
00
00
1C
3C
38
70
60
C0
80
ENDCHAR

STARTCHAR less
ENCODING 60
SWIDTH 606 0
DWIDTH 15 0
BBX 12 12 1 0
BITMAP
0070
01F0
07C0
1F00
3C00
F000
F000
3C00
1F00
07C0
01F0
0070
ENDCHAR

STARTCHAR equal
ENCODING 61
SWIDTH 606 0
DWIDTH 15 0
BBX 12 6 1 3
BITMAP
FFF0
FFF0
0000
0000
FFF0
FFF0
ENDCHAR

STARTCHAR greater
ENCODING 62
SWIDTH 606 0
DWIDTH 15 0
BBX 12 12 1 0
BITMAP
E000
F800
3E00
0F80
03C0
00F0
00F0
03C0
0F80
3E00
F800
E000
ENDCHAR

STARTCHAR question
ENCODING 63
SWIDTH 444 0
DWIDTH 11 0
BBX 9 18 2 0
BITMAP
3E00
7F00
C780
8380
8380
0780
0F00
1E00
3800
6000
4000
6000
2000
0000
6000
F000
F000
6000
ENDCHAR

STARTCHAR at
ENCODING 64
SWIDTH 833 0
DWIDTH 19 0
BBX 16 17 1 0
BITMAP
03F0
0FFC
3C0E
3006
61DB
673B
CE3B
CC73
DC73
DC72
DCE6
DF6C
6E70
6006
381C
1FF8
07E0
ENDCHAR

STARTCHAR A
ENCODING 65
SWIDTH 722 0
DWIDTH 18 0
BBX 17 18 -1 0
BITMAP
003800
003800
007800
007800
00D800
009C00
019C00
011C00
031C00
061C00
07FC00
0C1C00
0C0E00
180E00
180E00
300E00
300E00
FC3F80
ENDCHAR

STARTCHAR B
ENCODING 66
SWIDTH 667 0
DWIDTH 16 0
BBX 15 18 0 0
BITMAP
3FF8
0E1C
0E0E
0E0E
0E0E
1C0E
1C1C
1C38
1FE0
1C38
1C1C
1C1C
381C
381C
381C
3838
3870
FFC0
ENDCHAR

STARTCHAR C
ENCODING 67
SWIDTH 685 0
DWIDTH 17 0
BBX 15 18 1 0
BITMAP
03FC
0F0E
1C06
3806
7806
7000
F000
E000
E000
E000
E000
E000
E000
E000
F01C
7078
3FE0
0F80
ENDCHAR

STARTCHAR D
ENCODING 68
SWIDTH 778 0
DWIDTH 19 0
BBX 18 18 0 0
BITMAP
3FFE00
0E0700
0E0380
0E0380
0E01C0
1C01C0
1C01C0
1C01C0
1C01C0
1C01C0
1C0180
1C0380
380300
380700
380E00
381C00
387000
FFC000
ENDCHAR

STARTCHAR E
ENCODING 69
SWIDTH 611 0
DWIDTH 15 0
BBX 15 18 0 0
BITMAP
3FFE
0E06
0E02
0E02
0E00
1C00
1C00
1C00
1FF0
1C00
1C00
1C00
3800
3800
3808
3808
3818
FFF8
ENDCHAR

STARTCHAR F
ENCODING 70
SWIDTH 556 0
DWIDTH 15 0
BBX 15 18 0 0
BITMAP
3FFE
0E06
0E02
0E02
0E00
1C00
1C00
1C00
1FF0
1C00
1C00
1C00
3800
3800
3800
3800
3800
FF00
ENDCHAR

STARTCHAR G
ENCODING 71
SWIDTH 778 0
DWIDTH 18 0
BBX 16 18 1 0
BITMAP
03FC
0F0E
1C06
3806
7806
7000
F000
E000
E000
E000
E000
E03F
E00E
E00E
F00E
701C
3FF0
0FC0
ENDCHAR

STARTCHAR H
ENCODING 72
SWIDTH 778 0
DWIDTH 19 0
BBX 19 18 0 0
BITMAP
3F8FE0
0E0380
0E0380
0E0380
0E0380
1C0700
1C0700
1C0700
1FFF00
1C0700
1C0700
1C0700
380E00
380E00
380E00
380E00
380E00
FE3F80
ENDCHAR

STARTCHAR I
ENCODING 73
SWIDTH 389 0
DWIDTH 9 0
BBX 9 18 0 0
BITMAP
3F80
0E00
0E00
0E00
0E00
1C00
1C00
1C00
1C00
1C00
1C00
1C00
3800
3800
3800
3800
3800
FE00
ENDCHAR

STARTCHAR J
ENCODING 74
SWIDTH 389 0
DWIDTH 10 0
BBX 10 23 -1 -5
BITMAP
1FC0
0700
0700
0700
0700
0700
0E00
0E00
0E00
0E00
0E00
0E00
1C00
1C00
1C00
1C00
1C00
3800
3800
3800
3000
E000
C000
ENDCHAR

STARTCHAR K
ENCODING 75
SWIDTH 722 0
DWIDTH 18 0
BBX 18 18 0 0
BITMAP
3F83C0
0E0300
0E0600
0E0C00
0E1800
1C3000
1C6000
1CC000
1F8000
1FC000
1DE000
1CE000
38F000
387800
383800
383C00
381E00
FE1F80
ENDCHAR

STARTCHAR L
ENCODING 76
SWIDTH 611 0
DWIDTH 15 0
BBX 14 18 0 0
BITMAP
3F80
0E00
0E00
0E00
0E00
1C00
1C00
1C00
1C00
1C00
1C00
1C00
3800
380C
380C
380C
381C
FFFC
ENDCHAR

STARTCHAR M
ENCODING 77
SWIDTH 944 0
DWIDTH 23 0
BBX 24 18 -1 0
BITMAP
1F001F
07803C
07807C
078078
0780F8
0DC0B8
09C1B8
09C138
09C370
18E270
10E670
10E470
10EC70
30F8E0
2078E0
2070E0
2070E0
F863F8
ENDCHAR

STARTCHAR N
ENCODING 78
SWIDTH 778 0
DWIDTH 19 0
BBX 20 18 0 0
BITMAP
3E01F0
0F0040
0F0040
0F8040
0F80C0
0BC080
09C080
09E080
18E080
10F180
107100
107900
103900
303D00
201F00
201E00
200E00
FC0E00
ENDCHAR

STARTCHAR O
ENCODING 79
SWIDTH 833 0
DWIDTH 20 0
BBX 18 18 1 0
BITMAP
03FC00
0F0F00
1C0380
380380
7801C0
7001C0
F001C0
E001C0
E001C0
E001C0
E003C0
E00380
E00380
E00780
F00700
700E00
3C3C00
0FE000
ENDCHAR

STARTCHAR P
ENCODING 80
SWIDTH 667 0
DWIDTH 16 0
BBX 15 18 0 0
BITMAP
3FF8
0E1C
0E0E
0E0E
0E0E
1C0E
1C0C
1C1C
1C38
1DE0
1C00
1C00
3800
3800
3800
3800
3800
FF00
ENDCHAR

STARTCHAR Q
ENCODING 81
SWIDTH 833 0
DWIDTH 20 0
BBX 18 23 1 -5
BITMAP
03FC00
0F0F00
1C0380
380380
7801C0
7001C0
F001C0
E001C0
E001C0
E001C0
E003C0
E00380
E00380
E00780
F00700
700E00
3C3C00
0FE000
0E0000
1FC080
31F380
207F00
003E00
ENDCHAR

STARTCHAR R
ENCODING 82
SWIDTH 722 0
DWIDTH 18 0
BBX 17 18 0 0
BITMAP
3FFC00
0E0E00
0E0700
0E0700
0E0700
1C0700
1C0E00
1C1C00
1DF000
1CE000
1C7000
1C7000
383800
383C00
381C00
381E00
380F00
FE0F80
ENDCHAR

STARTCHAR S
ENCODING 83
SWIDTH 556 0
DWIDTH 14 0
BBX 13 18 0 0
BITMAP
03F8
0E38
1808
3008
3000
3800
3C00
3F00
1FE0
07F0
00F8
0038
0038
8038
8070
C0E0
E1C0
7F00
ENDCHAR

STARTCHAR T
ENCODING 84
SWIDTH 611 0
DWIDTH 15 0
BBX 15 18 1 0
BITMAP
FFFE
C386
8382
8382
0380
0700
0700
0700
0700
0700
0700
0700
0E00
0E00
0E00
0E00
0E00
3F80
ENDCHAR

STARTCHAR U
ENCODING 85
SWIDTH 778 0
DWIDTH 19 0
BBX 17 18 2 0
BITMAP
F83F80
380E00
380E00
380E00
380E00
700E00
701C00
701C00
701C00
701C00
E01C00
E01C00
E03800
E03800
E07800
F0B800
7F3800
3E3E00
ENDCHAR

STARTCHAR V
ENCODING 86
SWIDTH 667 0
DWIDTH 17 0
BBX 16 18 2 0
BITMAP
FE3F
380C
380C
3818
3818
3830
1C30
1C60
1C60
1CC0
1CC0
1D80
1D80
0F00
0F00
0E00
0E00
0C00
ENDCHAR

STARTCHAR W
ENCODING 87
SWIDTH 1000 0
DWIDTH 25 0
BBX 23 18 2 0
BITMAP
FE187E
381818
383818
383818
387C30
387C30
1C7C30
1CDC60
1CDC60
1CCE60
1D8E60
1D8EC0
1D8EC0
0F07C0
0F0780
0E0780
0E0380
0C0300
ENDCHAR

STARTCHAR X
ENCODING 88
SWIDTH 722 0
DWIDTH 18 0
BBX 19 18 0 0
BITMAP
3FCFE0
0F0380
070300
078600
038C00
03C800
01D800
01F000
00E000
01E000
01F000
037000
063800
063800
0C3C00
181C00
381E00
FE3F80
ENDCHAR

STARTCHAR Y
ENCODING 89
SWIDTH 611 0
DWIDTH 15 0
BBX 15 18 1 0
BITMAP
300E
781C
F818
3C30
1C60
0E60
0EC0
06C0
0780
0780
0700
0700
0700
0E00
0E00
0E00
0E00
3F80
ENDCHAR

STARTCHAR Z
ENCODING 90
SWIDTH 667 0
DWIDTH 17 0
BBX 16 18 0 0
BITMAP
0FFF
1FFF
180E
101C
1038
0070
00E0
01E0
01C0
0380
0700
0E00
1E00
1C02
3802
7006
FFFE
FFFC
ENDCHAR

STARTCHAR bracketleft
ENCODING 91
SWIDTH 333 0
DWIDTH 8 0
BBX 9 22 0 -4
BITMAP
1F80
1C00
1C00
1C00
1C00
1C00
3800
3800
3800
3800
3800
7000
7000
7000
7000
7000
E000
E000
E000
E000
E000
FC00
ENDCHAR

STARTCHAR backslash
ENCODING 92
SWIDTH 606 0
DWIDTH 15 0
BBX 11 18 2 0
BITMAP
E000
E000
7000
7000
3800
3800
1C00
1C00
0E00
0E00
0700
0700
0380
0380
01C0
01C0
00E0
00E0
ENDCHAR

STARTCHAR bracketright
ENCODING 93
SWIDTH 333 0
DWIDTH 8 0
BBX 9 22 -1 -4
BITMAP
1F80
0380
0380
0380
0380
0700
0700
0700
0700
0700
0700
0E00
0E00
0E00
0E00
0E00
1C00
1C00
1C00
1C00
1C00
FC00
ENDCHAR

STARTCHAR asciicircum
ENCODING 94
SWIDTH 606 0
DWIDTH 15 0
BBX 10 10 2 8
BITMAP
0C00
1E00
1E00
3F00
3300
7380
6180
E1C0
C0C0
C0C0
ENDCHAR

STARTCHAR underscore
ENCODING 95
SWIDTH 500 0
DWIDTH 12 0
BBX 12 2 -1 -4
BITMAP
FFF0
FFF0
ENDCHAR

STARTCHAR quoteleft
ENCODING 96
SWIDTH 278 0
DWIDTH 7 0
BBX 5 7 1 11
BITMAP
18
30
70
60
E0
E0
E0
ENDCHAR

STARTCHAR a
ENCODING 97
SWIDTH 556 0
DWIDTH 14 0
BBX 12 12 1 0
BITMAP
03F0
0FF0
18E0
30E0
70E0
61C0
E1C0
E1C0
E3C0
E5D0
F9E0
71C0
ENDCHAR

STARTCHAR b
ENCODING 98
SWIDTH 537 0
DWIDTH 13 0
BBX 11 18 1 0
BITMAP
1C00
FC00
3800
3800
3800
3800
71C0
73E0
74E0
78E0
70E0
70E0
E0E0
E0C0
E1C0
E180
F300
7C00
ENDCHAR

STARTCHAR c
ENCODING 99
SWIDTH 444 0
DWIDTH 12 0
BBX 10 12 1 0
BITMAP
0780
1FC0
38C0
70C0
7000
E000
E000
E000
E040
F180
7F00
3C00
ENDCHAR

STARTCHAR d
ENCODING 100
SWIDTH 556 0
DWIDTH 14 0
BBX 13 18 1 0
BITMAP
0018
00F8
0038
0038
0070
0070
0F70
19E0
30E0
70E0
60E0
E0E0
E1C0
E1C0
E3C0
E5D0
F9E0
71C0
ENDCHAR

STARTCHAR e
ENCODING 101
SWIDTH 444 0
DWIDTH 12 0
BBX 10 12 1 0
BITMAP
0780
1DC0
39C0
71C0
7380
F600
F800
E000
E040
F180
7F00
3C00
ENDCHAR

STARTCHAR f
ENCODING 102
SWIDTH 333 0
DWIDTH 8 0
BBX 13 24 -2 -6
BITMAP
0078
00F8
0198
0380
0380
0380
1FE0
0700
0700
0700
0700
0700
0E00
0E00
0E00
0E00
0E00
1C00
1C00
1C00
1C00
1800
F000
E000
ENDCHAR

STARTCHAR g
ENCODING 103
SWIDTH 500 0
DWIDTH 13 0
BBX 15 18 -1 -6
BITMAP
03C0
0EFE
1C7C
3870
3870
3870
3870
3CE0
1FC0
0700
0C00
0FC0
1FF0
7078
E038
E038
7070
3FC0
ENDCHAR

STARTCHAR h
ENCODING 104
SWIDTH 556 0
DWIDTH 14 0
BBX 13 18 1 0
BITMAP
0E00
7E00
1C00
1C00
1C00
1C00
38F0
39F0
3A70
3C70
3C70
7060
70E0
70E0
70E0
E1C8
E1D0
E1E0
ENDCHAR

STARTCHAR i
ENCODING 105
SWIDTH 333 0
DWIDTH 8 0
BBX 7 18 2 0
BITMAP
0E
0E
0E
00
00
00
38
78
B8
38
70
70
70
70
E0
E8
F0
E0
ENDCHAR

STARTCHAR j
ENCODING 106
SWIDTH 333 0
DWIDTH 8 0
BBX 9 24 0 -6
BITMAP
0380
0380
0380
0000
0000
0000
0E00
1E00
2E00
0E00
1C00
1C00
1C00
1C00
1C00
1C00
3800
3800
3800
3800
3800
3000
E000
C000
ENDCHAR

STARTCHAR k
ENCODING 107
SWIDTH 556 0
DWIDTH 14 0
BBX 12 18 2 0
BITMAP
1C00
FC00
3800
3800
3800
3800
7060
71E0
7300
7600
7C00
7E00
EE00
E700
E780
E3D0
E1E0
E1C0
ENDCHAR

STARTCHAR l
ENCODING 108
SWIDTH 333 0
DWIDTH 8 0
BBX 6 18 2 0
BITMAP
1C
FC
38
38
38
38
70
70
70
70
70
70
E0
E0
E0
E8
F0
E0
ENDCHAR

STARTCHAR m
ENCODING 109
SWIDTH 833 0
DWIDTH 20 0
BBX 19 12 0 0
BITMAP
18F1E0
39F3E0
7B76E0
BE7CE0
3C78E0
3871C0
70E1C0
70E1C0
70E380
E1C3A0
E1C3C0
E1C380
ENDCHAR

STARTCHAR n
ENCODING 110
SWIDTH 556 0
DWIDTH 14 0
BBX 13 12 1 0
BITMAP
18F0
39F0
7A70
BE70
3C70
3860
70E0
70E0
70E0
E1C8
E1D0
E1E0
ENDCHAR

STARTCHAR o
ENCODING 111
SWIDTH 556 0
DWIDTH 14 0
BBX 12 12 1 0
BITMAP
07C0
1CE0
3870
7070
7070
E070
E070
E0E0
E0E0
E1C0
F380
7E00
ENDCHAR

STARTCHAR p
ENCODING 112
SWIDTH 556 0
DWIDTH 14 0
BBX 13 18 0 -6
BITMAP
1C70
3CF8
7D38
1E38
1C38
1C38
3838
3830
3870
3860
3CC0
7700
7000
7000
7000
E000
E000
E000
ENDCHAR

STARTCHAR q
ENCODING 113
SWIDTH 537 0
DWIDTH 13 0
BBX 11 18 1 -6
BITMAP
0FE0
19E0
30E0
70E0
60E0
E1C0
E1C0
E1C0
E3C0
E5C0
F9C0
7380
0380
0380
0380
0700
0700
0700
ENDCHAR

STARTCHAR r
ENCODING 114
SWIDTH 389 0
DWIDTH 10 0
BBX 9 12 1 0
BITMAP
1980
3B80
FF80
3980
3800
7000
7000
7000
E000
E000
E000
E000
ENDCHAR

STARTCHAR s
ENCODING 115
SWIDTH 444 0
DWIDTH 11 0
BBX 9 12 1 0
BITMAP
1F80
7F80
E080
C080
F800
7F00
1F80
0380
8180
8300
FE00
FC00
ENDCHAR

STARTCHAR t
ENCODING 116
SWIDTH 389 0
DWIDTH 8 0
BBX 8 16 1 0
BITMAP
0C
1C
1C
1C
7F
FF
38
38
38
38
70
70
70
74
78
70
ENDCHAR

STARTCHAR u
ENCODING 117
SWIDTH 556 0
DWIDTH 14 0
BBX 12 12 1 0
BITMAP
1870
3870
7870
B8E0
38E0
70E0
71E0
71C0
E3C0
E5D0
F9E0
F1C0
ENDCHAR

STARTCHAR v
ENCODING 118
SWIDTH 556 0
DWIDTH 14 0
BBX 12 12 1 0
BITMAP
7E70
FCF0
8C30
9830
3830
3030
7060
7060
70C0
79C0
3F00
1E00
ENDCHAR

STARTCHAR w
ENCODING 119
SWIDTH 833 0
DWIDTH 20 0
BBX 19 12 1 0
BITMAP
7E38E0
FC39E0
8C3860
987060
387060
307060
7070C0
70E0C0
70E180
79F380
3F7F00
1E3E00
ENDCHAR

STARTCHAR x
ENCODING 120
SWIDTH 500 0
DWIDTH 12 0
BBX 12 12 0 0
BITMAP
3870
7CF0
DD90
0F00
0F00
0E00
0F00
1F00
1380
B3B0
E1E0
E1C0
ENDCHAR

STARTCHAR y
ENCODING 121
SWIDTH 556 0
DWIDTH 14 0
BBX 13 18 1 -6
BITMAP
1838
3838
7838
B870
3870
7070
7070
70E0
70E0
73E0
7EE0
38E0
01C0
01C0
01C0
6380
7300
3E00
ENDCHAR

STARTCHAR z
ENCODING 122
SWIDTH 500 0
DWIDTH 12 0
BBX 11 12 1 0
BITMAP
7E60
7FE0
47C0
4180
0300
0600
0C00
1800
3040
7C40
FFC0
C7C0
ENDCHAR

STARTCHAR braceleft
ENCODING 123
SWIDTH 333 0
DWIDTH 8 0
BBX 8 22 0 -4
BITMAP
07
0C
18
38
38
38
38
38
38
70
C0
60
70
70
70
E0
E0
E0
E0
E0
60
38
ENDCHAR

STARTCHAR bar
ENCODING 124
SWIDTH 606 0
DWIDTH 15 0
BBX 2 18 6 0
BITMAP
C0
C0
C0
C0
C0
C0
C0
C0
C0
C0
C0
C0
C0
C0
C0
C0
C0
C0
ENDCHAR

STARTCHAR braceright
ENCODING 125
SWIDTH 333 0
DWIDTH 8 0
BBX 8 22 -1 -4
BITMAP
1C
06
07
07
07
07
07
0E
0E
0E
06
03
0E
1C
1C
1C
1C
1C
1C
18
30
E0
ENDCHAR

STARTCHAR asciitilde
ENCODING 126
SWIDTH 606 0
DWIDTH 15 0
BBX 12 4 1 5
BITMAP
3C30
7E70
E7E0
C3C0
ENDCHAR

STARTCHAR exclamdown
ENCODING 161
SWIDTH 333 0
DWIDTH 8 0
BBX 7 18 0 -6
BITMAP
0C
1E
1E
0C
00
08
08
18
18
38
38
38
78
78
70
F0
F0
F0
ENDCHAR

STARTCHAR cent
ENCODING 162
SWIDTH 500 0
DWIDTH 12 0
BBX 10 16 0 -2
BITMAP
0100
0100
0780
1FC0
3AC0
72C0
7400
E400
E400
E800
E840
F180
7F00
3C00
2000
2000
ENDCHAR

STARTCHAR sterling
ENCODING 163
SWIDTH 500 0
DWIDTH 12 0
BBX 11 18 0 0
BITMAP
03C0
07E0
0C60
1820
3800
3800
3800
3800
3800
FF80
3800
3800
3000
3020
3020
7FE0
FFE0
C7C0
ENDCHAR

STARTCHAR currency
ENCODING 164
SWIDTH 606 0
DWIDTH 12 0
BBX 12 13 -1 2
BITMAP
CF30
FFF0
7FE0
70E0
E070
C030
C030
C030
E070
70E0
7FE0
FFF0
CF30
ENDCHAR

STARTCHAR yen
ENCODING 165
SWIDTH 500 0
DWIDTH 12 0
BBX 13 18 -1 0
BITMAP
6018
F030
7020
3860
3840
18C0
1C80
0D80
0D00
7DE0
7FE0
0700
7FE0
7FE0
0E00
0E00
0E00
3F80
ENDCHAR

STARTCHAR brokenbar
ENCODING 166
SWIDTH 606 0
DWIDTH 15 0
BBX 2 18 6 0
BITMAP
C0
C0
C0
C0
C0
C0
C0
00
00
00
C0
C0
C0
C0
C0
C0
C0
C0
ENDCHAR

STARTCHAR section
ENCODING 167
SWIDTH 556 0
DWIDTH 13 0
BBX 11 22 1 -4
BITMAP
07C0
1CE0
3860
3820
3820
3C00
1F00
1F80
33C0
61E0
60E0
7060
7860
3E40
1F80
0780
03C0
81C0
81C0
C380
E700
7C00
ENDCHAR

STARTCHAR dieresis
ENCODING 168
SWIDTH 333 0
DWIDTH 10 0
BBX 8 3 5 15
BITMAP
E7
E7
E7
ENDCHAR

STARTCHAR copyright
ENCODING 169
SWIDTH 747 0
DWIDTH 21 0
BBX 19 18 1 0
BITMAP
03F800
0E0E00
180300
300180
61F0C0
6398C0
C70860
CE0060
CE0060
CE0060
CE0060
C70060
6798C0
61F0C0
300180
180300
0E0E00
03F800
ENDCHAR

STARTCHAR ordfeminine
ENCODING 170
SWIDTH 333 0
DWIDTH 8 0
BBX 8 11 0 7
BITMAP
0F
1B
33
66
6E
77
66
00
00
FE
FE
ENDCHAR

STARTCHAR guillemotleft
ENCODING 171
SWIDTH 500 0
DWIDTH 12 0
BBX 10 10 1 1
BITMAP
0CC0
1980
3300
7700
EE00
EE00
7700
3300
1980
0CC0
ENDCHAR

STARTCHAR logicalnot
ENCODING 172
SWIDTH 606 0
DWIDTH 15 0
BBX 12 7 1 2
BITMAP
FFF0
FFF0
0030
0030
0030
0030
0030
ENDCHAR

STARTCHAR hyphen
ENCODING 173
SWIDTH 389 0
DWIDTH 10 0
BBX 8 2 0 5
BITMAP
FF
FF
ENDCHAR

STARTCHAR registered
ENCODING 174
SWIDTH 747 0
DWIDTH 21 0
BBX 19 18 1 0
BITMAP
03F800
0E0E00
180300
300180
67F0C0
6338C0
C31860
C31860
C33060
C3E060
C37060
C33860
631CC0
678EC0
300180
180300
0E0E00
03F800
ENDCHAR

STARTCHAR macron
ENCODING 175
SWIDTH 333 0
DWIDTH 8 0
BBX 8 2 6 14
BITMAP
FF
FF
ENDCHAR

STARTCHAR degree
ENCODING 176
SWIDTH 400 0
DWIDTH 9 0
BBX 8 7 1 11
BITMAP
3C
66
C3
C3
C3
66
3C
ENDCHAR

STARTCHAR plusminus
ENCODING 177
SWIDTH 606 0
DWIDTH 15 0
BBX 12 12 1 0
BITMAP
0600
0600
0600
FFF0
FFF0
0600
0600
0600
0000
0000
FFF0
FFF0
ENDCHAR

STARTCHAR twosuperior
ENCODING 178
SWIDTH 300 0
DWIDTH 7 0
BBX 8 11 0 7
BITMAP
1E
37
63
03
07
06
0C
18
30
60
FE
ENDCHAR

STARTCHAR threesuperior
ENCODING 179
SWIDTH 300 0
DWIDTH 7 0
BBX 9 11 -1 7
BITMAP
0F00
1B80
3180
0180
0300
0E00
0300
0300
C300
6600
3C00
ENDCHAR

STARTCHAR acute
ENCODING 180
SWIDTH 333 0
DWIDTH 8 0
BBX 5 5 7 13
BITMAP
18
38
70
C0
80
ENDCHAR

STARTCHAR mu
ENCODING 181
SWIDTH 556 0
DWIDTH 14 0
BBX 14 18 -1 -6
BITMAP
061C
0E1C
1E1C
2E38
0E38
1C38
1C78
1C70
38F0
3974
3E78
3C70
7000
7000
6000
E000
E000
C000
ENDCHAR

STARTCHAR paragraph
ENCODING 182
SWIDTH 556 0
DWIDTH 13 0
BBX 14 23 0 -5
BITMAP
1FFC
3DB0
79B0
F1B0
F1B0
F360
F360
7B60
3F60
0360
0360
06C0
06C0
06C0
06C0
06C0
06C0
0D80
0D80
0D80
0D80
0D80
3FE0
ENDCHAR

STARTCHAR periodcentered
ENCODING 183
SWIDTH 250 0
DWIDTH 6 0
BBX 4 4 0 4
BITMAP
60
F0
F0
60
ENDCHAR

STARTCHAR cedilla
ENCODING 184
SWIDTH 333 0
DWIDTH 8 0
BBX 6 6 -1 -6
BITMAP
18
30
78
1C
DC
78
ENDCHAR

STARTCHAR onesuperior
ENCODING 185
SWIDTH 300 0
DWIDTH 7 0
BBX 6 11 1 7
BITMAP
0C
1C
6C
08
18
18
10
30
30
30
FC
ENDCHAR

STARTCHAR ordmasculine
ENCODING 186
SWIDTH 333 0
DWIDTH 8 0
BBX 8 11 0 7
BITMAP
1E
33
33
63
66
66
3C
00
00
FC
FC
ENDCHAR

STARTCHAR guillemotright
ENCODING 187
SWIDTH 500 0
DWIDTH 13 0
BBX 11 10 1 1
BITMAP
C600
6300
3180
39C0
1CE0
1CE0
39C0
3180
6300
C600
ENDCHAR

STARTCHAR onequarter
ENCODING 188
SWIDTH 750 0
DWIDTH 18 0
BBX 17 18 0 0
BITMAP
0C0600
1C0C00
6C0C00
081800
181800
183000
106000
306180
30C380
30C580
FD8980
019300
032300
064300
067F80
0C0600
0C0600
180F00
ENDCHAR

STARTCHAR onehalf
ENCODING 189
SWIDTH 750 0
DWIDTH 18 0
BBX 18 18 0 0
BITMAP
0C0600
1C0C00
6C0C00
081800
181800
183000
106000
306780
30CDC0
30D8C0
FD80C0
0181C0
030180
060300
060600
0C0C00
0C1800
183F80
ENDCHAR

STARTCHAR threequarters
ENCODING 190
SWIDTH 750 0
DWIDTH 18 0
BBX 18 18 -1 0
BITMAP
0F0300
1B8600
318600
018C00
030C00
0E1800
033000
0330C0
C361C0
6662C0
3CC4C0
00C980
019180
032180
033FC0
060300
060300
0C0780
ENDCHAR

STARTCHAR questiondown
ENCODING 191
SWIDTH 444 0
DWIDTH 11 0
BBX 9 18 0 -6
BITMAP
0300
0780
0780
0300
0000
0200
0300
0100
0300
0E00
3C00
7800
F000
E080
E080
F180
7F00
3E00
ENDCHAR

STARTCHAR Agrave
ENCODING 192
SWIDTH 722 0
DWIDTH 18 0
BBX 17 18 -1 0
BITMAP
006000
007000
003800
000C00
000400
000000
007C00
00DC00
019C00
019C00
03FC00
061C00
060E00
0C0E00
080E00
380E00
300E00
FC3F80
ENDCHAR

STARTCHAR Aacute
ENCODING 193
SWIDTH 722 0
DWIDTH 18 0
BBX 17 18 -1 0
BITMAP
000C00
001C00
003800
006000
004000
000000
007C00
00DC00
019C00
019C00
03FC00
061C00
060E00
0C0E00
080E00
380E00
300E00
FC3F80
ENDCHAR

STARTCHAR Acircumflex
ENCODING 194
SWIDTH 722 0
DWIDTH 18 0
BBX 17 18 -1 0
BITMAP
000800
001C00
003E00
006700
00C300
000000
007C00
00DC00
019C00
019C00
03FC00
061C00
060E00
0C0E00
080E00
380E00
300E00
FC3F80
ENDCHAR

STARTCHAR Atilde
ENCODING 195
SWIDTH 722 0
DWIDTH 18 0
BBX 17 18 -1 0
BITMAP
007080
00FF00
010E00
000000
000000
000000
007C00
00DC00
019C00
019C00
03FC00
061C00
060E00
0C0E00
080E00
380E00
300E00
FC3F80
ENDCHAR

STARTCHAR Adieresis
ENCODING 196
SWIDTH 722 0
DWIDTH 18 0
BBX 17 18 -1 0
BITMAP
01CE00
01CE00
01CE00
000000
000000
000000
007C00
00DC00
019C00
019C00
03FC00
061C00
060E00
0C0E00
080E00
380E00
300E00
FC3F80
ENDCHAR

STARTCHAR Aring
ENCODING 197
SWIDTH 722 0
DWIDTH 18 0
BBX 17 18 -1 0
BITMAP
003800
006C00
004400
006C00
003800
000000
007C00
00DC00
019C00
019C00
03FC00
061C00
060E00
0C0E00
080E00
380E00
300E00
FC3F80
ENDCHAR

STARTCHAR AE
ENCODING 198
SWIDTH 944 0
DWIDTH 23 0
BBX 24 18 -1 0
BITMAP
007FFF
001B83
003381
003381
006380
006700
00C700
00C700
0187FC
018700
03FF00
060700
060E00
0C0E00
0C0E02
180E02
381E06
FE3FFE
ENDCHAR

STARTCHAR Ccedilla
ENCODING 199
SWIDTH 685 0
DWIDTH 17 0
BBX 15 24 1 -6
BITMAP
03FC
0F0E
1C06
3806
7806
7000
F000
E000
E000
E000
E000
E000
E000
E000
F01C
7078
3FE0
0F80
0600
0C00
1E00
0700
3700
1E00
ENDCHAR

STARTCHAR Egrave
ENCODING 200
SWIDTH 611 0
DWIDTH 15 0
BBX 14 18 0 0
BITMAP
0600
0700
0380
00C0
0040
0000
3FFC
1C0C
1C04
1C00
1C00
1FE0
3800
3800
3808
3808
3818
FFF8
ENDCHAR

STARTCHAR Eacute
ENCODING 201
SWIDTH 611 0
DWIDTH 15 0
BBX 14 18 0 0
BITMAP
0030
0070
00E0
0180
0100
0000
3FFC
1C0C
1C04
1C00
1C00
1FE0
3800
3800
3808
3808
3818
FFF8
ENDCHAR

STARTCHAR Ecircumflex
ENCODING 202
SWIDTH 611 0
DWIDTH 15 0
BBX 14 18 0 0
BITMAP
0040
00E0
01F0
0338
0618
0000
3FFC
1C0C
1C04
1C00
1C00
1FE0
3800
3800
3808
3808
3818
FFF8
ENDCHAR

STARTCHAR Edieresis
ENCODING 203
SWIDTH 611 0
DWIDTH 15 0
BBX 14 18 0 0
BITMAP
0738
0738
0738
0000
0000
0000
3FFC
1C0C
1C04
1C00
1C00
1FE0
3800
3800
3808
3808
3818
FFF8
ENDCHAR

STARTCHAR Igrave
ENCODING 204
SWIDTH 389 0
DWIDTH 9 0
BBX 9 18 0 0
BITMAP
3000
3800
1C00
0600
0200
0000
3F80
0E00
0C00
0C00
0C00
1C00
1800
1800
1800
3800
3800
FE00
ENDCHAR

STARTCHAR Iacute
ENCODING 205
SWIDTH 389 0
DWIDTH 9 0
BBX 9 18 0 0
BITMAP
0180
0380
0700
0C00
0800
0000
3F80
0E00
0C00
0C00
0C00
1C00
1800
1800
1800
3800
3800
FE00
ENDCHAR

STARTCHAR Icircumflex
ENCODING 206
SWIDTH 389 0
DWIDTH 9 0
BBX 10 18 0 0
BITMAP
0200
0700
0F80
19C0
30C0
0000
3F80
0E00
0C00
0C00
0C00
1C00
1800
1800
1800
3800
3800
FE00
ENDCHAR

STARTCHAR Idieresis
ENCODING 207
SWIDTH 389 0
DWIDTH 9 0
BBX 10 18 0 0
BITMAP
39C0
39C0
39C0
0000
0000
0000
3F80
0E00
0C00
0C00
0C00
1C00
1800
1800
1800
3800
3800
FE00
ENDCHAR

STARTCHAR Eth
ENCODING 208
SWIDTH 778 0
DWIDTH 19 0
BBX 18 18 0 0
BITMAP
3FFE00
0E0700
0E0380
0E0380
0E01C0
1C01C0
1C01C0
1C01C0
7F81C0
1C01C0
1C0180
1C0380
380300
380700
380E00
381C00
387000
FFC000
ENDCHAR

STARTCHAR Ntilde
ENCODING 209
SWIDTH 778 0
DWIDTH 19 0
BBX 20 18 0 0
BITMAP
007100
00FE00
011C00
000000
000000
000000
3E01F0
0F0040
0F8040
0BC040
19E0C0
10F080
107880
303D80
201F00
200F00
200700
FC0300
ENDCHAR

STARTCHAR Ograve
ENCODING 210
SWIDTH 833 0
DWIDTH 20 0
BBX 18 18 1 0
BITMAP
030000
038000
01C000
006000
002000
000000
03FC00
0F0F00
1C0380
380380
7801C0
7001C0
E00380
E00780
F00700
700E00
3C3C00
0FE000
ENDCHAR

STARTCHAR Oacute
ENCODING 211
SWIDTH 833 0
DWIDTH 20 0
BBX 18 18 1 0
BITMAP
000C00
001C00
003800
006000
004000
000000
03FE00
0F0F00
1C0380
380380
7801C0
7001C0
E00380
E00780
F00700
700E00
3C3C00
0FE000
ENDCHAR

STARTCHAR Ocircumflex
ENCODING 212
SWIDTH 833 0
DWIDTH 20 0
BBX 18 18 1 0
BITMAP
002000
007000
00F800
019C00
030C00
000000
03FC00
0F0F00
1C0380
380380
7801C0
7001C0
E00380
E00780
F00700
700E00
3C3C00
0FE000
ENDCHAR

STARTCHAR Otilde
ENCODING 213
SWIDTH 833 0
DWIDTH 20 0
BBX 18 18 1 0
BITMAP
01C200
03FC00
043800
000000
000000
000000
03FC00
0F0F00
1C0380
380380
7801C0
7001C0
E00380
E00780
F00700
700E00
3C3C00
0FE000
ENDCHAR

STARTCHAR Odieresis
ENCODING 214
SWIDTH 833 0
DWIDTH 20 0
BBX 18 18 1 0
BITMAP
039C00
039C00
039C00
000000
000000
000000
03FC00
0F0F00
1C0380
380380
7801C0
7001C0
E00380
E00780
F00700
700E00
3C3C00
0FE000
ENDCHAR

STARTCHAR multiply
ENCODING 215
SWIDTH 606 0
DWIDTH 15 0
BBX 12 12 1 0
BITMAP
4020
E070
70E0
39C0
1F80
0F00
0F00
1F80
39C0
70E0
E070
4020
ENDCHAR

STARTCHAR Oslash
ENCODING 216
SWIDTH 833 0
DWIDTH 20 0
BBX 20 18 0 0
BITMAP
01FE30
0787E0
0E01C0
1C01C0
3C03E0
3806E0
780CE0
7018E0
7030E0
7060E0
70C1E0
7181C0
7301C0
7603C0
7C0380
380700
7E1E00
C7F000
ENDCHAR

STARTCHAR Ugrave
ENCODING 217
SWIDTH 778 0
DWIDTH 19 0
BBX 17 18 1 0
BITMAP
018000
01C000
00E000
003000
001000
000000
F83F80
380E00
380E00
380E00
700E00
700E00
701C00
701C00
703C00
785C00
3F9C00
1F1F00
ENDCHAR

STARTCHAR Uacute
ENCODING 218
SWIDTH 778 0
DWIDTH 19 0
BBX 17 18 2 0
BITMAP
003000
007000
00E000
018000
010000
000000
F83F80
380E00
380E00
380E00
700E00
700E00
701C00
701C00
703C00
785C00
3F9C00
1F1F00
ENDCHAR

STARTCHAR Ucircumflex
ENCODING 219
SWIDTH 778 0
DWIDTH 19 0
BBX 17 18 2 0
BITMAP
008000
01C000
03E000
067000
0C3000
000000
F83F80
380E00
380E00
380E00
700E00
700E00
701C00
701C00
703C00
785C00
3F9C00
1F1F00
ENDCHAR

STARTCHAR Udieresis
ENCODING 220
SWIDTH 778 0
DWIDTH 19 0
BBX 17 18 2 0
BITMAP
073800
073800
073800
000000
000000
000000
F83F80
380E00
380E00
380E00
700E00
700E00
701C00
701C00
703C00
785C00
3F9C00
1F1F00
ENDCHAR

STARTCHAR Yacute
ENCODING 221
SWIDTH 611 0
DWIDTH 15 0
BBX 12 18 1 0
BITMAP
0060
00E0
01C0
0300
0200
0000
7030
F860
3CC0
1D80
0F00
0E00
0E00
0E00
1C00
1C00
1C00
3E00
ENDCHAR

STARTCHAR Thorn
ENCODING 222
SWIDTH 667 0
DWIDTH 16 0
BBX 15 18 0 0
BITMAP
3FC0
0E00
0E00
0E00
0FF8
1C1C
1C0E
1C0E
1C0E
1C0E
1C0C
181C
3C38
3BE0
3800
3800
3800
FF00
ENDCHAR

STARTCHAR germandbls
ENCODING 223
SWIDTH 556 0
DWIDTH 14 0
BBX 15 24 -2 -6
BITMAP
007C
00CE
0186
0386
038E
038C
1F18
0710
0730
0738
071C
071C
0E0E
0E0E
0E0E
0E8E
0E9C
1C78
1C00
1C00
1C00
1800
F000
E000
ENDCHAR

STARTCHAR agrave
ENCODING 224
SWIDTH 556 0
DWIDTH 14 0
BBX 12 18 1 0
BITMAP
0300
0380
01C0
0060
0020
0000
03F0
0FF0
18E0
30E0
70E0
61C0
E1C0
E1C0
E3C0
E5D0
F9E0
71C0
ENDCHAR

STARTCHAR aacute
ENCODING 225
SWIDTH 556 0
DWIDTH 14 0
BBX 12 18 1 0
BITMAP
0060
00E0
01C0
0300
0200
0000
03F0
0FF0
18E0
30E0
70E0
61C0
E1C0
E1C0
E3C0
E5D0
F9E0
71C0
ENDCHAR

STARTCHAR acircumflex
ENCODING 226
SWIDTH 556 0
DWIDTH 14 0
BBX 12 18 1 0
BITMAP
0080
01C0
03E0
0670
0C30
0000
03F0
0FF0
18E0
30E0
70E0
61C0
E1C0
E1C0
E3C0
E5D0
F9E0
71C0
ENDCHAR

STARTCHAR atilde
ENCODING 227
SWIDTH 556 0
DWIDTH 14 0
BBX 13 18 1 0
BITMAP
0388
07F0
08E0
0000
0000
0000
03F0
0FF0
18E0
30E0
70E0
61C0
E1C0
E1C0
E3C0
E5D0
F9E0
71C0
ENDCHAR

STARTCHAR adieresis
ENCODING 228
SWIDTH 556 0
DWIDTH 14 0
BBX 12 18 1 0
BITMAP
0E70
0E70
0E70
0000
0000
0000
03F0
0FF0
18E0
30E0
70E0
61C0
E1C0
E1C0
E3C0
E5D0
F9E0
71C0
ENDCHAR

STARTCHAR aring
ENCODING 229
SWIDTH 556 0
DWIDTH 14 0
BBX 12 18 1 0
BITMAP
01C0
0360
0220
0360
01C0
0000
03F0
0FF0
18E0
30E0
70E0
61C0
E1C0
E1C0
E3C0
E5D0
F9E0
71C0
ENDCHAR

STARTCHAR ae
ENCODING 230
SWIDTH 738 0
DWIDTH 18 0
BBX 16 12 1 0
BITMAP
1E1E
3F77
23E7
01C7
01CE
1FD8
71E0
E180
E381
E7C6
FDFC
78F0
ENDCHAR

STARTCHAR ccedilla
ENCODING 231
SWIDTH 444 0
DWIDTH 12 0
BBX 10 18 1 -6
BITMAP
0780
1FC0
38C0
70C0
7000
E000
E000
E000
E040
F180
7F00
3C00
0C00
1800
3C00
0E00
6E00
3C00
ENDCHAR

STARTCHAR egrave
ENCODING 232
SWIDTH 444 0
DWIDTH 12 0
BBX 10 18 1 0
BITMAP
1800
1C00
0E00
0300
0100
0000
0780
1DC0
39C0
71C0
7380
F600
F800
E000
E040
F180
7F00
3C00
ENDCHAR

STARTCHAR eacute
ENCODING 233
SWIDTH 444 0
DWIDTH 12 0
BBX 10 18 1 0
BITMAP
0180
0380
0700
0C00
0800
0000
0780
1DC0
39C0
71C0
7380
F600
F800
E000
E040
F180
7F00
3C00
ENDCHAR

STARTCHAR ecircumflex
ENCODING 234
SWIDTH 444 0
DWIDTH 12 0
BBX 11 18 1 0
BITMAP
0100
0380
07C0
0CE0
1860
0000
0780
1DC0
39C0
71C0
7380
F600
F800
E000
E040
F180
7F00
3C00
ENDCHAR

STARTCHAR edieresis
ENCODING 235
SWIDTH 444 0
DWIDTH 12 0
BBX 11 18 1 0
BITMAP
1CE0
1CE0
1CE0
0000
0000
0000
0780
1DC0
39C0
71C0
7380
F600
F800
E000
E040
F180
7F00
3C00
ENDCHAR

STARTCHAR igrave
ENCODING 236
SWIDTH 333 0
DWIDTH 8 0
BBX 5 18 2 0
BITMAP
C0
E0
70
18
08
00
38
78
B8
38
70
70
70
70
E0
E8
F0
E0
ENDCHAR

STARTCHAR iacute
ENCODING 237
SWIDTH 333 0
DWIDTH 7 0
BBX 7 18 1 0
BITMAP
06
0E
1C
30
20
00
38
78
B8
38
70
70
70
70
E0
E8
F0
E0
ENDCHAR

STARTCHAR icircumflex
ENCODING 238
SWIDTH 333 0
DWIDTH 8 0
BBX 8 18 2 0
BITMAP
08
1C
3E
67
C3
00
38
78
B8
38
70
70
70
70
E0
E8
F0
E0
ENDCHAR

STARTCHAR idieresis
ENCODING 239
SWIDTH 333 0
DWIDTH 8 0
BBX 8 18 2 0
BITMAP
E7
E7
E7
00
00
00
38
78
B8
38
70
70
70
70
E0
E8
F0
E0
ENDCHAR

STARTCHAR eth
ENCODING 240
SWIDTH 556 0
DWIDTH 14 0
BBX 12 18 1 0
BITMAP
1F30
33E0
03C0
0CC0
00E0
00E0
07E0
1CF0
3870
7070
7070
E070
E070
E0E0
E0E0
E1C0
F380
7E00
ENDCHAR

STARTCHAR ntilde
ENCODING 241
SWIDTH 556 0
DWIDTH 14 0
BBX 13 18 1 0
BITMAP
0388
07F0
08E0
0000
0000
0000
18F0
39F0
7A70
BE70
3C70
3860
70E0
70E0
70E0
E1C8
E1D0
E1E0
ENDCHAR

STARTCHAR ograve
ENCODING 242
SWIDTH 556 0
DWIDTH 14 0
BBX 12 18 1 0
BITMAP
0C00
0E00
0700
0180
0080
0000
07C0
1CE0
3870
7070
7070
E070
E070
E0E0
E0E0
E1C0
F380
7E00
ENDCHAR

STARTCHAR oacute
ENCODING 243
SWIDTH 556 0
DWIDTH 14 0
BBX 12 18 1 0
BITMAP
0060
00E0
01C0
0300
0200
0000
07C0
1CE0
3870
7070
7070
E070
E070
E0E0
E0E0
E1C0
F380
7E00
ENDCHAR

STARTCHAR ocircumflex
ENCODING 244
SWIDTH 556 0
DWIDTH 14 0
BBX 12 18 1 0
BITMAP
0080
01C0
03E0
0670
0C30
0000
07C0
1CE0
3870
7070
7070
E070
E070
E0E0
E0E0
E1C0
F380
7E00
ENDCHAR

STARTCHAR otilde
ENCODING 245
SWIDTH 556 0
DWIDTH 14 0
BBX 12 18 1 0
BITMAP
0710
0FE0
11C0
0000
0000
0000
07C0
1CE0
3870
7070
7070
E070
E070
E0E0
E0E0
E1C0
F380
7E00
ENDCHAR

STARTCHAR odieresis
ENCODING 246
SWIDTH 556 0
DWIDTH 14 0
BBX 12 18 1 0
BITMAP
0E70
0E70
0E70
0000
0000
0000
07C0
1CE0
3870
7070
7070
E070
E070
E0E0
E0E0
E1C0
F380
7E00
ENDCHAR

STARTCHAR divide
ENCODING 247
SWIDTH 606 0
DWIDTH 15 0
BBX 12 12 1 0
BITMAP
0600
0F00
0F00
0600
0000
FFF0
FFF0
0000
0600
0F00
0F00
0600
ENDCHAR

STARTCHAR oslash
ENCODING 248
SWIDTH 556 0
DWIDTH 14 0
BBX 15 13 -1 0
BITMAP
0006
01FC
0738
0E3C
1C7C
1CDC
399C
3B1C
3E38
3C38
3870
7CE0
DF80
ENDCHAR

STARTCHAR ugrave
ENCODING 249
SWIDTH 556 0
DWIDTH 14 0
BBX 12 18 1 0
BITMAP
1800
1C00
0E00
0300
0100
0000
1870
3870
7870
B8E0
38E0
70E0
71E0
71C0
E3C0
E5D0
F9E0
F1C0
ENDCHAR

STARTCHAR uacute
ENCODING 250
SWIDTH 556 0
DWIDTH 14 0
BBX 12 18 1 0
BITMAP
0060
00E0
01C0
0300
0200
0000
1870
3870
7870
B8E0
38E0
70E0
71E0
71C0
E3C0
E5D0
F9E0
F1C0
ENDCHAR

STARTCHAR ucircumflex
ENCODING 251
SWIDTH 556 0
DWIDTH 14 0
BBX 12 18 1 0
BITMAP
0100
0380
07C0
0CE0
1860
0000
1870
3870
7870
B8E0
38E0
70E0
71E0
71C0
E3C0
E5D0
F9E0
F1C0
ENDCHAR

STARTCHAR udieresis
ENCODING 252
SWIDTH 556 0
DWIDTH 14 0
BBX 12 18 1 0
BITMAP
0E70
0E70
0E70
0000
0000
0000
1870
3870
7870
B8E0
38E0
70E0
71E0
71C0
E3C0
E5D0
F9E0
F1C0
ENDCHAR

STARTCHAR yacute
ENCODING 253
SWIDTH 556 0
DWIDTH 14 0
BBX 13 24 1 -6
BITMAP
0030
0070
00E0
0180
0100
0000
1838
3838
7838
B870
3870
7070
7070
70E0
70E0
73E0
7EE0
38E0
01C0
01C0
01C0
6380
7300
3E00
ENDCHAR

STARTCHAR thorn
ENCODING 254
SWIDTH 556 0
DWIDTH 14 0
BBX 13 24 0 -6
BITMAP
0700
3F00
0E00
0E00
0E00
0E00
1C70
1CF8
1D38
1E38
1C38
1C38
3838
3830
3870
3860
3CC0
7700
7000
7000
7000
E000
E000
E000
ENDCHAR

STARTCHAR ydieresis
ENCODING 255
SWIDTH 556 0
DWIDTH 14 0
BBX 13 24 1 -6
BITMAP
0E70
0E70
0E70
0000
0000
0000
1838
3838
7838
B870
3870
7070
7070
70E0
70E0
73E0
7EE0
38E0
01C0
01C0
01C0
6380
7300
3E00
ENDCHAR

ENDFONT
