STARTFONT 2.1
FONT -Adobe-Palatino-Bold-I-Normal--19-140-100-100-P-103-ISO8859-1
SIZE 14 100 100
FONTBOUNDINGBOX 24 19 -2 -5

STARTPROPERTIES 26
_DEC_DEVICE_FONTNAMES "PS=Palatino-BoldItalic"
FONTNAME_REGISTRY ""
FAMILY_NAME "Palatino"
FOUNDRY "Adobe"
WEIGHT_NAME "Bold"
SLANT "I"
SETWIDTH_NAME "Normal"
ADD_STYLE_NAME ""
PIXEL_SIZE 19
POINT_SIZE 140
RESOLUTION_X 100
RESOLUTION_Y 100
SPACING "P"
AVERAGE_WIDTH 103
CHARSET_REGISTRY "ISO8859"
CHARSET_ENCODING "1"
CHARSET_COLLECTIONS "ASCII ISO8859-1 ADOBE-STANDARD"
FULL_NAME "Palatino Bold Italic"
COPYRIGHT "Copyright (c) 1991 Adobe Systems, Inc."
CAP_HEIGHT 13
X_HEIGHT 9
WEIGHT 10
QUAD_WIDTH 12
DEFAULT_CHAR 0
FONT_DESCENT 5
FONT_ASCENT 14
ENDPROPERTIES

CHARS 190

STARTCHAR space
ENCODING 32
SWIDTH 250 0
DWIDTH 5 0
BBX 1 1 0 0
BITMAP
00
ENDCHAR

STARTCHAR exclam
ENCODING 33
SWIDTH 333 0
DWIDTH 6 0
BBX 5 13 1 0
BITMAP
38
78
78
70
70
60
60
40
40
00
E0
E0
E0
ENDCHAR

STARTCHAR quotedbl
ENCODING 34
SWIDTH 500 0
DWIDTH 9 0
BBX 5 5 2 8
BITMAP
D8
D8
D8
D8
90
ENDCHAR

STARTCHAR numbersign
ENCODING 35
SWIDTH 606 0
DWIDTH 11 0
BBX 10 13 1 0
BITMAP
1980
1980
1980
7FC0
7FC0
3300
3300
FF80
FF80
6600
6600
6600
6600
ENDCHAR

STARTCHAR dollar
ENCODING 36
SWIDTH 500 0
DWIDTH 9 0
BBX 9 16 0 -2
BITMAP
0200
1F00
3580
6480
6400
7800
7E00
3F00
0F00
0B00
1300
9300
D600
7C00
2000
2000
ENDCHAR

STARTCHAR percent
ENCODING 37
SWIDTH 889 0
DWIDTH 16 0
BBX 14 13 1 0
BITMAP
3860
7FE0
E4C0
C4C0
CD80
F980
7338
037C
06E4
06C4
0CCC
0CF8
1870
ENDCHAR

STARTCHAR ampersand
ENCODING 38
SWIDTH 833 0
DWIDTH 16 0
BBX 15 13 1 0
BITMAP
0F80
1980
3880
380C
1C06
0E06
38FC
71F0
E130
E030
E060
71C0
3F00
ENDCHAR

STARTCHAR quoteright
ENCODING 39
SWIDTH 278 0
DWIDTH 5 0
BBX 5 5 0 8
BITMAP
38
38
70
60
C0
ENDCHAR

STARTCHAR parenleft
ENCODING 40
SWIDTH 333 0
DWIDTH 6 0
BBX 6 16 0 -2
BITMAP
04
18
30
30
60
60
C0
C0
C0
C0
C0
C0
60
60
20
10
ENDCHAR

STARTCHAR parenright
ENCODING 41
SWIDTH 333 0
DWIDTH 7 0
BBX 6 16 0 -2
BITMAP
20
10
18
18
0C
0C
0C
0C
0C
0C
18
18
30
30
60
80
ENDCHAR

STARTCHAR asterisk
ENCODING 42
SWIDTH 444 0
DWIDTH 8 0
BBX 7 7 1 6
BITMAP
0C
6C
78
3E
FE
D8
18
ENDCHAR

STARTCHAR plus
ENCODING 43
SWIDTH 606 0
DWIDTH 11 0
BBX 8 9 1 0
BITMAP
18
18
18
FF
FF
18
18
18
18
ENDCHAR

STARTCHAR comma
ENCODING 44
SWIDTH 250 0
DWIDTH 5 0
BBX 5 5 -2 -2
BITMAP
38
38
70
60
C0
ENDCHAR

STARTCHAR minus
ENCODING 45
SWIDTH 606 0
DWIDTH 11 0
BBX 9 2 1 4
BITMAP
FF80
FF80
ENDCHAR

STARTCHAR period
ENCODING 46
SWIDTH 250 0
DWIDTH 5 0
BBX 3 3 0 0
BITMAP
E0
E0
E0
ENDCHAR

STARTCHAR slash
ENCODING 47
SWIDTH 315 0
DWIDTH 6 0
BBX 5 13 0 0
BITMAP
18
18
18
30
30
30
30
60
60
60
C0
C0
C0
ENDCHAR

STARTCHAR zero
ENCODING 48
SWIDTH 500 0
DWIDTH 9 0
BBX 9 13 0 0
BITMAP
0F00
1D80
3980
7180
7380
E380
E380
E700
C700
C600
CE00
DC00
7800
ENDCHAR

STARTCHAR one
ENCODING 49
SWIDTH 500 0
DWIDTH 9 0
BBX 7 13 0 0
BITMAP
06
1E
6E
0E
0C
1C
1C
1C
18
38
38
38
FE
ENDCHAR

STARTCHAR two
ENCODING 50
SWIDTH 500 0
DWIDTH 9 0
BBX 9 13 0 0
BITMAP
1E00
3F00
6780
4380
0380
0300
0600
0C00
1800
3000
6000
FF00
FF00
ENDCHAR

STARTCHAR three
ENCODING 51
SWIDTH 500 0
DWIDTH 9 0
BBX 8 13 0 0
BITMAP
1E
3F
63
03
06
1C
0E
07
07
07
8E
FC
78
ENDCHAR

STARTCHAR four
ENCODING 52
SWIDTH 500 0
DWIDTH 9 0
BBX 9 13 0 0
BITMAP
0300
0700
0F00
1B00
3300
2600
6600
C600
FF80
FF80
0C00
0C00
3F00
ENDCHAR

STARTCHAR five
ENCODING 53
SWIDTH 500 0
DWIDTH 9 0
BBX 9 13 0 0
BITMAP
3F80
3F80
3000
6000
6E00
7F00
6700
0300
0300
0700
8E00
FE00
7800
ENDCHAR

STARTCHAR six
ENCODING 54
SWIDTH 500 0
DWIDTH 9 0
BBX 8 13 0 0
BITMAP
0F
1F
30
60
6E
FF
F3
E3
E3
E3
E6
7E
38
ENDCHAR

STARTCHAR seven
ENCODING 55
SWIDTH 500 0
DWIDTH 9 0
BBX 8 13 1 0
BITMAP
FF
FF
07
06
0C
0C
18
18
30
30
60
E0
E0
ENDCHAR

STARTCHAR eight
ENCODING 56
SWIDTH 500 0
DWIDTH 9 0
BBX 9 13 0 0
BITMAP
0F00
1F80
3180
3180
3900
1E00
3E00
6700
C300
C300
C700
7E00
3C00
ENDCHAR

STARTCHAR nine
ENCODING 57
SWIDTH 500 0
DWIDTH 9 0
BBX 9 13 0 0
BITMAP
0F00
1F80
3980
7180
6180
6380
7F80
3B00
0300
0600
0E00
DC00
7800
ENDCHAR

STARTCHAR colon
ENCODING 58
SWIDTH 250 0
DWIDTH 5 0
BBX 4 8 0 0
BITMAP
70
70
70
00
00
E0
E0
E0
ENDCHAR

STARTCHAR semicolon
ENCODING 59
SWIDTH 250 0
DWIDTH 5 0
BBX 6 10 -2 -2
BITMAP
1C
1C
1C
00
00
38
38
70
60
C0
ENDCHAR

STARTCHAR less
ENCODING 60
SWIDTH 606 0
DWIDTH 11 0
BBX 10 9 0 0
BITMAP
01C0
0780
1F00
7C00
F000
7C00
1F00
0780
01C0
ENDCHAR

STARTCHAR equal
ENCODING 61
SWIDTH 606 0
DWIDTH 11 0
BBX 8 5 1 2
BITMAP
FF
FF
00
FF
FF
ENDCHAR

STARTCHAR greater
ENCODING 62
SWIDTH 606 0
DWIDTH 11 0
BBX 10 9 1 0
BITMAP
E000
7800
3E00
0F80
03C0
0F80
3E00
7800
E000
ENDCHAR

STARTCHAR question
ENCODING 63
SWIDTH 444 0
DWIDTH 8 0
BBX 7 13 1 0
BITMAP
3C
7E
4E
0E
1C
38
70
60
20
00
E0
E0
E0
ENDCHAR

STARTCHAR at
ENCODING 64
SWIDTH 833 0
DWIDTH 16 0
BBX 14 13 1 0
BITMAP
07E0
1C38
3008
61EC
6764
CE64
DCCC
DCC8
DDD8
CEF0
6000
7870
1FC0
ENDCHAR

STARTCHAR A
ENCODING 65
SWIDTH 722 0
DWIDTH 14 0
BBX 13 13 0 0
BITMAP
0180
03C0
03C0
06C0
04E0
0CE0
08E0
1FE0
1070
3070
2070
6070
F0F8
ENDCHAR

STARTCHAR B
ENCODING 66
SWIDTH 667 0
DWIDTH 13 0
BBX 12 13 0 0
BITMAP
3FE0
1C70
1C70
1C70
3870
38E0
3F80
38E0
7070
7070
7070
70E0
FF80
ENDCHAR

STARTCHAR C
ENCODING 67
SWIDTH 685 0
DWIDTH 13 0
BBX 12 13 1 0
BITMAP
07E0
1C70
3830
7010
6000
E000
E000
E000
E000
E000
F060
7FC0
3F00
ENDCHAR

STARTCHAR D
ENCODING 68
SWIDTH 778 0
DWIDTH 15 0
BBX 15 13 -1 0
BITMAP
3FF8
0E3C
0E1E
0E0E
1C0E
1C0E
1C0E
1C0E
381C
381C
3838
3870
FFC0
ENDCHAR

STARTCHAR E
ENCODING 69
SWIDTH 611 0
DWIDTH 11 0
BBX 11 13 0 0
BITMAP
3FE0
1C20
1C20
1C00
3800
3800
3F80
3800
3800
7000
7040
7040
FFC0
ENDCHAR

STARTCHAR F
ENCODING 70
SWIDTH 556 0
DWIDTH 10 0
BBX 11 13 0 0
BITMAP
3FE0
1C20
1C20
1C00
3800
3800
3F80
3800
3800
7000
7000
7000
FC00
ENDCHAR

STARTCHAR G
ENCODING 71
SWIDTH 778 0
DWIDTH 14 0
BBX 13 13 1 0
BITMAP
07E0
1C70
3830
7010
6000
E000
E000
E1F8
E070
E070
F060
7FC0
3F00
ENDCHAR

STARTCHAR H
ENCODING 72
SWIDTH 778 0
DWIDTH 15 0
BBX 15 13 0 0
BITMAP
3E3E
1C1C
1C1C
1C1C
3838
3838
3FF8
3838
3838
7070
7070
7070
F8F8
ENDCHAR

STARTCHAR I
ENCODING 73
SWIDTH 389 0
DWIDTH 7 0
BBX 9 13 -1 0
BITMAP
3F80
0E00
0E00
0E00
1C00
1C00
1C00
1C00
1C00
3800
3800
3800
FE00
ENDCHAR

STARTCHAR J
ENCODING 74
SWIDTH 389 0
DWIDTH 7 0
BBX 10 17 -1 -4
BITMAP
1FC0
0700
0700
0700
0E00
0E00
0E00
0E00
0E00
0E00
1C00
1C00
1C00
1800
3800
3000
E000
ENDCHAR

STARTCHAR K
ENCODING 75
SWIDTH 722 0
DWIDTH 13 0
BBX 15 13 -1 0
BITMAP
3F9E
0E18
0E30
0E60
1CC0
1D80
1F80
1FC0
1DE0
38E0
3870
3838
FE3C
ENDCHAR

STARTCHAR L
ENCODING 76
SWIDTH 611 0
DWIDTH 11 0
BBX 11 13 -1 0
BITMAP
3F80
0E00
0E00
0E00
1C00
1C00
1C00
1C00
1C00
3800
3820
3820
FFE0
ENDCHAR

STARTCHAR M
ENCODING 77
SWIDTH 944 0
DWIDTH 18 0
BBX 18 13 0 0
BITMAP
3C03C0
1C0780
1E0780
1E0F80
3E0B80
371B80
371380
373380
33A700
63E700
61C700
61C700
F08F80
ENDCHAR

STARTCHAR N
ENCODING 78
SWIDTH 778 0
DWIDTH 15 0
BBX 15 13 0 0
BITMAP
3E1E
1E0C
1E0C
1F0C
3718
3398
3398
31D8
31D8
60F0
60F0
6070
F070
ENDCHAR

STARTCHAR O
ENCODING 79
SWIDTH 833 0
DWIDTH 16 0
BBX 14 13 1 0
BITMAP
07E0
1C38
3818
701C
701C
E01C
E01C
E01C
E038
E038
6070
70E0
1F80
ENDCHAR

STARTCHAR P
ENCODING 80
SWIDTH 667 0
DWIDTH 13 0
BBX 13 13 0 0
BITMAP
3FF0
0E78
0E38
0E38
1C38
1C30
1C70
1DC0
1C00
3800
3800
3800
FE00
ENDCHAR

STARTCHAR Q
ENCODING 81
SWIDTH 833 0
DWIDTH 16 0
BBX 14 17 1 -4
BITMAP
07E0
1C38
3818
701C
701C
E01C
E01C
E01C
E038
E038
6070
70E0
1F80
0F00
3B8C
31F8
00F0
ENDCHAR

STARTCHAR R
ENCODING 82
SWIDTH 722 0
DWIDTH 14 0
BBX 13 13 1 0
BITMAP
7FE0
1CF0
1C70
1C70
3860
38C0
3B80
39C0
39C0
70E0
70F0
7070
FC78
ENDCHAR

STARTCHAR S
ENCODING 83
SWIDTH 556 0
DWIDTH 10 0
BBX 10 13 0 0
BITMAP
0F80
19C0
30C0
3040
3800
3E00
1F00
0780
0380
8180
8380
FF00
7C00
ENDCHAR

STARTCHAR T
ENCODING 84
SWIDTH 611 0
DWIDTH 11 0
BBX 11 13 1 0
BITMAP
FFE0
8E20
8E20
0E00
1C00
1C00
1C00
1C00
1C00
3800
3800
3800
FE00
ENDCHAR

STARTCHAR U
ENCODING 85
SWIDTH 778 0
DWIDTH 15 0
BBX 15 13 1 0
BITMAP
7C7E
3838
3838
3838
7070
7070
7070
7070
E0E0
E0E0
E1E0
7FE0
3CF8
ENDCHAR

STARTCHAR V
ENCODING 86
SWIDTH 667 0
DWIDTH 12 0
BBX 14 13 0 0
BITMAP
FC3C
3810
3830
3820
3860
1C40
1CC0
1C80
1D80
1D00
0F00
0E00
0E00
ENDCHAR

STARTCHAR W
ENCODING 87
SWIDTH 1000 0
DWIDTH 19 0
BBX 20 13 0 0
BITMAP
FC73F0
3870C0
387080
387080
38F180
1CB900
1CB900
1DBB00
1D3A00
1D3A00
0F1E00
0E1C00
0E1C00
ENDCHAR

STARTCHAR X
ENCODING 88
SWIDTH 722 0
DWIDTH 14 0
BBX 16 13 -1 0
BITMAP
1F9F
0F0C
0718
03B0
03E0
01C0
01C0
03E0
06E0
0CF0
1870
3078
F8FC
ENDCHAR

STARTCHAR Y
ENCODING 89
SWIDTH 611 0
DWIDTH 11 0
BBX 12 13 0 0
BITMAP
7030
F860
38C0
1D80
1D80
0F00
0F00
0E00
0E00
0E00
1C00
1C00
7F00
ENDCHAR

STARTCHAR Z
ENCODING 90
SWIDTH 667 0
DWIDTH 12 0
BBX 13 13 0 0
BITMAP
3FF8
3078
20F0
01E0
01C0
03C0
0780
0F00
0E00
1E00
3C10
7830
FFF0
ENDCHAR

STARTCHAR bracketleft
ENCODING 91
SWIDTH 333 0
DWIDTH 6 0
BBX 6 16 0 -2
BITMAP
3C
30
30
30
30
60
60
60
60
60
60
C0
C0
C0
C0
F0
ENDCHAR

STARTCHAR backslash
ENCODING 92
SWIDTH 606 0
DWIDTH 10 0
BBX 8 13 1 0
BITMAP
C0
C0
60
60
30
30
18
18
0C
0C
06
06
03
ENDCHAR

STARTCHAR bracketright
ENCODING 93
SWIDTH 333 0
DWIDTH 6 0
BBX 6 16 0 -2
BITMAP
3C
0C
0C
0C
0C
18
18
18
18
18
18
30
30
30
30
F0
ENDCHAR

STARTCHAR asciicircum
ENCODING 94
SWIDTH 606 0
DWIDTH 11 0
BBX 8 7 2 6
BITMAP
18
3C
3C
66
66
C3
C3
ENDCHAR

STARTCHAR underscore
ENCODING 95
SWIDTH 500 0
DWIDTH 9 0
BBX 9 2 0 -4
BITMAP
FF80
FF80
ENDCHAR

STARTCHAR quoteleft
ENCODING 96
SWIDTH 278 0
DWIDTH 5 0
BBX 5 5 0 8
BITMAP
18
30
70
E0
E0
ENDCHAR

STARTCHAR a
ENCODING 97
SWIDTH 556 0
DWIDTH 10 0
BBX 9 9 0 0
BITMAP
1F80
3380
6380
E380
E300
E700
EF00
F780
6700
ENDCHAR

STARTCHAR b
ENCODING 98
SWIDTH 537 0
DWIDTH 10 0
BBX 9 13 0 0
BITMAP
1800
7800
3800
3800
7300
7780
7B80
7380
E380
E380
E700
EE00
7800
ENDCHAR

STARTCHAR c
ENCODING 99
SWIDTH 444 0
DWIDTH 8 0
BBX 7 9 0 0
BITMAP
1E
36
62
E0
E0
E0
E6
FC
78
ENDCHAR

STARTCHAR d
ENCODING 100
SWIDTH 556 0
DWIDTH 10 0
BBX 10 13 0 0
BITMAP
00C0
03C0
01C0
01C0
1FC0
3B80
7380
6380
E700
E700
EF00
FF80
7700
ENDCHAR

STARTCHAR e
ENCODING 101
SWIDTH 444 0
DWIDTH 9 0
BBX 8 9 0 0
BITMAP
1E
37
67
E6
F8
E0
E0
E6
7C
ENDCHAR

STARTCHAR f
ENCODING 102
SWIDTH 333 0
DWIDTH 6 0
BBX 10 18 -2 -5
BITMAP
01C0
03C0
0600
0E00
3F80
0E00
0E00
1C00
1C00
1C00
1C00
1C00
3800
3800
3800
3000
E000
C000
ENDCHAR

STARTCHAR g
ENCODING 103
SWIDTH 500 0
DWIDTH 9 0
BBX 11 14 -2 -5
BITMAP
07E0
1DC0
38C0
38C0
39C0
1F80
0C00
1800
1F00
3F80
61C0
C1C0
FF80
7E00
ENDCHAR

STARTCHAR h
ENCODING 104
SWIDTH 556 0
DWIDTH 11 0
BBX 10 13 0 0
BITMAP
1800
7800
3800
3800
7180
73C0
75C0
79C0
71C0
E380
E380
E3C0
E380
ENDCHAR

STARTCHAR i
ENCODING 105
SWIDTH 333 0
DWIDTH 7 0
BBX 6 13 0 0
BITMAP
1C
1C
00
00
18
38
78
B8
38
70
70
78
70
ENDCHAR

STARTCHAR j
ENCODING 106
SWIDTH 333 0
DWIDTH 6 0
BBX 8 17 -2 -5
BITMAP
07
07
00
06
0E
1E
2E
0E
1C
1C
1C
1C
38
38
30
E0
C0
ENDCHAR

STARTCHAR k
ENCODING 107
SWIDTH 556 0
DWIDTH 10 0
BBX 9 13 0 0
BITMAP
1800
7800
3800
3800
7380
7600
7C00
7800
7C00
EE00
E700
E780
E300
ENDCHAR

STARTCHAR l
ENCODING 108
SWIDTH 333 0
DWIDTH 7 0
BBX 5 13 1 0
BITMAP
18
78
38
38
70
70
70
70
70
E0
E0
F0
E0
ENDCHAR

STARTCHAR m
ENCODING 109
SWIDTH 833 0
DWIDTH 17 0
BBX 16 9 0 0
BITMAP
3186
F3CF
75D7
79E7
71C7
E38E
E38E
E38F
E38E
ENDCHAR

STARTCHAR n
ENCODING 110
SWIDTH 556 0
DWIDTH 11 0
BBX 10 9 0 0
BITMAP
3180
F3C0
75C0
79C0
71C0
E380
E380
E3C0
E380
ENDCHAR

STARTCHAR o
ENCODING 111
SWIDTH 556 0
DWIDTH 10 0
BBX 9 9 0 0
BITMAP
1F00
3780
6380
E380
E380
E380
E300
F600
7C00
ENDCHAR

STARTCHAR p
ENCODING 112
SWIDTH 556 0
DWIDTH 11 0
BBX 11 14 -1 -5
BITMAP
0CC0
3DE0
1EE0
1CE0
38E0
38E0
39C0
3B80
7E00
7000
7000
E000
E000
E000
ENDCHAR

STARTCHAR q
ENCODING 113
SWIDTH 537 0
DWIDTH 10 0
BBX 9 14 0 -5
BITMAP
1E80
3B80
7380
6380
E380
E700
EF00
F700
6E00
0E00
0E00
1C00
1C00
1C00
ENDCHAR

STARTCHAR r
ENCODING 114
SWIDTH 389 0
DWIDTH 7 0
BBX 7 9 0 0
BITMAP
32
F6
7E
78
70
E0
E0
E0
E0
ENDCHAR

STARTCHAR s
ENCODING 115
SWIDTH 444 0
DWIDTH 8 0
BBX 7 9 0 0
BITMAP
3E
76
62
78
3C
0E
8E
DC
F8
ENDCHAR

STARTCHAR t
ENCODING 116
SWIDTH 389 0
DWIDTH 7 0
BBX 7 12 1 0
BITMAP
18
38
38
FE
70
70
70
E0
E0
E0
F0
E0
ENDCHAR

STARTCHAR u
ENCODING 117
SWIDTH 556 0
DWIDTH 10 0
BBX 9 9 0 0
BITMAP
7380
F380
7380
6380
E700
E700
EF00
F780
7700
ENDCHAR

STARTCHAR v
ENCODING 118
SWIDTH 556 0
DWIDTH 10 0
BBX 9 9 0 0
BITMAP
7980
9B80
3980
3980
7180
7100
7300
7E00
3C00
ENDCHAR

STARTCHAR w
ENCODING 119
SWIDTH 833 0
DWIDTH 16 0
BBX 15 9 0 0
BITMAP
78C6
98CE
39C6
3986
718C
738C
739C
7FF8
3DE0
ENDCHAR

STARTCHAR x
ENCODING 120
SWIDTH 500 0
DWIDTH 10 0
BBX 10 9 0 0
BITMAP
3180
7B80
BA00
1C00
0C00
1E00
3740
E780
C300
ENDCHAR

STARTCHAR y
ENCODING 121
SWIDTH 556 0
DWIDTH 10 0
BBX 11 14 -1 -5
BITMAP
1860
78E0
38E0
38E0
71C0
73C0
77C0
7DC0
3B80
0380
0300
C700
CE00
7C00
ENDCHAR

STARTCHAR z
ENCODING 122
SWIDTH 500 0
DWIDTH 9 0
BBX 9 9 0 0
BITMAP
3F80
7F00
4600
0C00
1800
3000
6100
FF00
FE00
ENDCHAR

STARTCHAR braceleft
ENCODING 123
SWIDTH 333 0
DWIDTH 6 0
BBX 6 16 0 -2
BITMAP
0C
10
30
30
30
30
60
C0
60
60
60
60
C0
C0
C0
60
ENDCHAR

STARTCHAR bar
ENCODING 124
SWIDTH 606 0
DWIDTH 11 0
BBX 2 13 5 0
BITMAP
C0
C0
C0
C0
C0
C0
C0
C0
C0
C0
C0
C0
C0
ENDCHAR

STARTCHAR braceright
ENCODING 125
SWIDTH 333 0
DWIDTH 6 0
BBX 6 16 -1 -2
BITMAP
18
0C
0C
0C
18
18
18
0C
30
30
30
30
30
30
20
C0
ENDCHAR

STARTCHAR asciitilde
ENCODING 126
SWIDTH 606 0
DWIDTH 11 0
BBX 8 3 1 4
BITMAP
73
FF
CE
ENDCHAR

STARTCHAR exclamdown
ENCODING 161
SWIDTH 333 0
DWIDTH 6 0
BBX 5 13 0 -4
BITMAP
38
38
38
00
10
10
30
30
70
70
F0
F0
E0
ENDCHAR

STARTCHAR cent
ENCODING 162
SWIDTH 500 0
DWIDTH 9 0
BBX 8 12 0 -2
BITMAP
02
1F
37
65
E8
E8
E8
F3
F6
3C
20
20
ENDCHAR

STARTCHAR sterling
ENCODING 163
SWIDTH 500 0
DWIDTH 9 0
BBX 10 13 -1 0
BITMAP
03C0
06C0
0C40
1C00
1C00
1C00
7F00
3800
3800
3040
6040
FFC0
CF80
ENDCHAR

STARTCHAR currency
ENCODING 164
SWIDTH 606 0
DWIDTH 11 0
BBX 9 9 1 2
BITMAP
DD80
FF80
6300
C180
C180
C180
6300
FF80
DD80
ENDCHAR

STARTCHAR yen
ENCODING 165
SWIDTH 500 0
DWIDTH 9 0
BBX 11 13 0 0
BITMAP
6060
F0C0
7180
3980
3B00
1B00
1E00
7F80
0E00
7F80
1C00
1C00
7F00
ENDCHAR

STARTCHAR brokenbar
ENCODING 166
SWIDTH 606 0
DWIDTH 11 0
BBX 2 13 5 0
BITMAP
C0
C0
C0
C0
C0
00
00
C0
C0
C0
C0
C0
C0
ENDCHAR

STARTCHAR section
ENCODING 167
SWIDTH 556 0
DWIDTH 10 0
BBX 10 18 0 -5
BITMAP
0F80
19C0
30C0
3040
3800
1E00
2700
6380
6180
7180
3900
1E00
0700
0300
8300
C600
FC00
7800
ENDCHAR

STARTCHAR dieresis
ENCODING 168
SWIDTH 333 0
DWIDTH 7 0
BBX 6 2 2 11
BITMAP
CC
CC
ENDCHAR

STARTCHAR copyright
ENCODING 169
SWIDTH 747 0
DWIDTH 15 0
BBX 13 13 1 0
BITMAP
0F80
38E0
6030
4790
CCD8
98C8
9808
9808
DCD8
4F90
6030
38E0
0F80
ENDCHAR

STARTCHAR ordfeminine
ENCODING 170
SWIDTH 333 0
DWIDTH 8 0
BBX 8 8 0 5
BITMAP
0D
17
26
6E
77
66
00
FE
ENDCHAR

STARTCHAR guillemotleft
ENCODING 171
SWIDTH 500 0
DWIDTH 11 0
BBX 9 7 1 1
BITMAP
1980
3300
6600
EE00
6600
3300
1980
ENDCHAR

STARTCHAR logicalnot
ENCODING 172
SWIDTH 606 0
DWIDTH 11 0
BBX 9 5 1 2
BITMAP
FF80
FF80
0180
0180
0180
ENDCHAR

STARTCHAR hyphen
ENCODING 173
SWIDTH 389 0
DWIDTH 7 0
BBX 5 2 1 4
BITMAP
F8
F8
ENDCHAR

STARTCHAR registered
ENCODING 174
SWIDTH 747 0
DWIDTH 15 0
BBX 13 13 1 0
BITMAP
0F80
38E0
6030
5F90
CCD8
8CC8
8F88
8D88
CCD8
5CD0
6030
38E0
0F80
ENDCHAR

STARTCHAR macron
ENCODING 175
SWIDTH 333 0
DWIDTH 6 0
BBX 6 1 1 11
BITMAP
FC
ENDCHAR

STARTCHAR degree
ENCODING 176
SWIDTH 400 0
DWIDTH 7 0
BBX 6 6 1 7
BITMAP
78
CC
84
84
CC
78
ENDCHAR

STARTCHAR plusminus
ENCODING 177
SWIDTH 606 0
DWIDTH 11 0
BBX 8 9 1 0
BITMAP
18
18
FF
FF
18
18
00
FF
FF
ENDCHAR

STARTCHAR twosuperior
ENCODING 178
SWIDTH 300 0
DWIDTH 6 0
BBX 6 8 0 5
BITMAP
38
4C
0C
1C
18
30
40
F8
ENDCHAR

STARTCHAR threesuperior
ENCODING 179
SWIDTH 300 0
DWIDTH 6 0
BBX 6 8 0 5
BITMAP
38
4C
0C
30
18
18
98
70
ENDCHAR

STARTCHAR acute
ENCODING 180
SWIDTH 333 0
DWIDTH 6 0
BBX 5 4 1 10
BITMAP
18
38
70
C0
ENDCHAR

STARTCHAR mu
ENCODING 181
SWIDTH 556 0
DWIDTH 10 0
BBX 11 14 -2 -5
BITMAP
1CE0
3CE0
1CE0
18E0
39C0
39C0
3BC0
3DE0
7DC0
7000
6000
E000
E000
C000
ENDCHAR

STARTCHAR paragraph
ENCODING 182
SWIDTH 556 0
DWIDTH 12 0
BBX 11 18 1 -5
BITMAP
3FE0
7EC0
F6C0
E6C0
ED80
ED80
ED80
7D80
1B00
1B00
1B00
1B00
1B00
3600
3600
3600
3600
FF80
ENDCHAR

STARTCHAR periodcentered
ENCODING 183
SWIDTH 250 0
DWIDTH 5 0
BBX 3 3 1 4
BITMAP
E0
E0
E0
ENDCHAR

STARTCHAR cedilla
ENCODING 184
SWIDTH 333 0
DWIDTH 6 0
BBX 5 4 -1 -4
BITMAP
20
78
38
F0
ENDCHAR

STARTCHAR onesuperior
ENCODING 185
SWIDTH 300 0
DWIDTH 6 0
BBX 4 8 1 5
BITMAP
10
70
30
20
20
60
60
F0
ENDCHAR

STARTCHAR ordmasculine
ENCODING 186
SWIDTH 333 0
DWIDTH 8 0
BBX 7 8 0 5
BITMAP
1C
36
26
64
6C
38
00
FC
ENDCHAR

STARTCHAR guillemotright
ENCODING 187
SWIDTH 500 0
DWIDTH 11 0
BBX 9 7 1 1
BITMAP
CC00
6600
3300
3B80
3300
6600
CC00
ENDCHAR

STARTCHAR onequarter
ENCODING 188
SWIDTH 750 0
DWIDTH 14 0
BBX 13 13 0 0
BITMAP
1020
7060
30C0
2080
2180
6318
6238
F658
0CB0
0930
1BF8
3060
20F0
ENDCHAR

STARTCHAR onehalf
ENCODING 189
SWIDTH 750 0
DWIDTH 14 0
BBX 13 13 0 0
BITMAP
1020
7060
30C0
2080
6180
6370
6298
F618
0C38
0830
1860
3080
21F0
ENDCHAR

STARTCHAR threequarters
ENCODING 190
SWIDTH 750 0
DWIDTH 14 0
BBX 13 13 0 0
BITMAP
3820
4C60
0CC0
3080
1980
1B18
9A38
7658
0CB0
0930
1BF8
3060
20F0
ENDCHAR

STARTCHAR questiondown
ENCODING 191
SWIDTH 444 0
DWIDTH 8 0
BBX 6 13 0 -4
BITMAP
1C
1C
1C
00
08
0C
1C
38
70
E0
E4
FC
78
ENDCHAR

STARTCHAR Agrave
ENCODING 192
SWIDTH 722 0
DWIDTH 14 0
BBX 13 14 0 0
BITMAP
0600
0700
0380
00C0
0000
01C0
03C0
06E0
0CE0
1FF0
1070
3070
6070
F0F8
ENDCHAR

STARTCHAR Aacute
ENCODING 193
SWIDTH 722 0
DWIDTH 14 0
BBX 13 14 0 0
BITMAP
0060
00E0
01C0
0300
0000
01C0
03C0
06E0
0CE0
1FF0
1070
3070
6070
F0F8
ENDCHAR

STARTCHAR Acircumflex
ENCODING 194
SWIDTH 722 0
DWIDTH 14 0
BBX 13 14 0 0
BITMAP
00C0
01C0
0360
0660
0000
01C0
03C0
06E0
0CE0
1FF0
1070
3070
6070
F0F8
ENDCHAR

STARTCHAR Atilde
ENCODING 195
SWIDTH 722 0
DWIDTH 14 0
BBX 13 13 0 0
BITMAP
0310
06B0
0460
0000
01C0
03C0
06E0
0CE0
1FF0
1070
3070
6070
F0F8
ENDCHAR

STARTCHAR Adieresis
ENCODING 196
SWIDTH 722 0
DWIDTH 14 0
BBX 13 13 0 0
BITMAP
0330
0330
0000
0000
01C0
03C0
06E0
0CE0
1FF0
1070
3070
6070
F0F8
ENDCHAR

STARTCHAR Aring
ENCODING 197
SWIDTH 722 0
DWIDTH 14 0
BBX 13 14 0 0
BITMAP
01C0
0360
0360
0360
01C0
01C0
03C0
06E0
0CE0
1FF0
1070
3070
6070
F0F8
ENDCHAR

STARTCHAR AE
ENCODING 198
SWIDTH 944 0
DWIDTH 18 0
BBX 18 13 0 0
BITMAP
07FFC0
01B840
033840
023800
067000
047000
0C7F00
1FF000
107000
30E000
20E080
60E080
F1FF80
ENDCHAR

STARTCHAR Ccedilla
ENCODING 199
SWIDTH 685 0
DWIDTH 13 0
BBX 12 17 1 -4
BITMAP
07E0
1C70
3830
7010
6000
E000
E000
E000
E000
E000
F060
7FC0
3F00
1800
3C00
0C00
7800
ENDCHAR

STARTCHAR Egrave
ENCODING 200
SWIDTH 611 0
DWIDTH 11 0
BBX 11 14 0 0
BITMAP
1800
1C00
0E00
0300
0000
7FE0
1C20
1C20
3800
3F80
3800
7040
7040
FFC0
ENDCHAR

STARTCHAR Eacute
ENCODING 201
SWIDTH 611 0
DWIDTH 11 0
BBX 11 14 0 0
BITMAP
0180
0380
0700
0C00
0000
7FE0
1C20
1C20
3800
3F80
3800
7040
7040
FFC0
ENDCHAR

STARTCHAR Ecircumflex
ENCODING 202
SWIDTH 611 0
DWIDTH 11 0
BBX 11 14 0 0
BITMAP
0180
0380
06C0
0CC0
0000
7FE0
1C20
1C20
3800
3F80
3800
7040
7040
FFC0
ENDCHAR

STARTCHAR Edieresis
ENCODING 203
SWIDTH 611 0
DWIDTH 11 0
BBX 11 13 0 0
BITMAP
0660
0660
0000
0000
7FE0
1C20
1C20
3800
3F80
3800
7040
7040
FFC0
ENDCHAR

STARTCHAR Igrave
ENCODING 204
SWIDTH 389 0
DWIDTH 7 0
BBX 9 14 -1 0
BITMAP
3000
3800
1C00
0600
0000
3F80
0E00
0E00
1C00
1C00
1C00
3800
3800
FE00
ENDCHAR

STARTCHAR Iacute
ENCODING 205
SWIDTH 389 0
DWIDTH 7 0
BBX 9 14 -1 0
BITMAP
0300
0700
0E00
1800
0000
3F80
0E00
0E00
1C00
1C00
1C00
3800
3800
FE00
ENDCHAR

STARTCHAR Icircumflex
ENCODING 206
SWIDTH 389 0
DWIDTH 7 0
BBX 9 14 -1 0
BITMAP
0300
0700
0D80
1980
0000
3F80
0E00
0E00
1C00
1C00
1C00
3800
3800
FE00
ENDCHAR

STARTCHAR Idieresis
ENCODING 207
SWIDTH 389 0
DWIDTH 7 0
BBX 9 13 -1 0
BITMAP
1980
1980
0000
0000
3F80
0E00
0E00
1C00
1C00
1C00
3800
3800
FE00
ENDCHAR

STARTCHAR Eth
ENCODING 208
SWIDTH 778 0
DWIDTH 15 0
BBX 15 13 -1 0
BITMAP
3FF8
0E3C
0E1E
0E0E
1C0E
1C0E
7F0E
1C0E
381C
381C
3838
3870
FFC0
ENDCHAR

STARTCHAR Ntilde
ENCODING 209
SWIDTH 778 0
DWIDTH 15 0
BBX 15 13 0 0
BITMAP
0310
06B0
0460
0000
3E1E
1F0C
3F8C
3798
33D8
61F0
60F0
60F0
F060
ENDCHAR

STARTCHAR Ograve
ENCODING 210
SWIDTH 833 0
DWIDTH 16 0
BBX 14 14 1 0
BITMAP
0C00
0E00
0700
0180
0000
07E0
1C38
3818
701C
E01C
E038
6070
70E0
1F80
ENDCHAR

STARTCHAR Oacute
ENCODING 211
SWIDTH 833 0
DWIDTH 16 0
BBX 14 14 1 0
BITMAP
0060
00E0
01C0
0300
0000
07E0
1C38
3818
701C
E01C
E038
6070
70E0
1F80
ENDCHAR

STARTCHAR Ocircumflex
ENCODING 212
SWIDTH 833 0
DWIDTH 16 0
BBX 14 14 1 0
BITMAP
0060
00E0
01B0
0330
0000
07E0
1C38
3818
701C
E01C
E038
6070
70E0
1F80
ENDCHAR

STARTCHAR Otilde
ENCODING 213
SWIDTH 833 0
DWIDTH 16 0
BBX 14 13 1 0
BITMAP
0310
06B0
0460
0000
07E0
1C38
3818
701C
E01C
E038
6070
70E0
1F80
ENDCHAR

STARTCHAR Odieresis
ENCODING 214
SWIDTH 833 0
DWIDTH 16 0
BBX 14 13 1 0
BITMAP
0660
0660
0000
0000
07E0
1C38
3818
701C
E01C
E038
6070
70E0
1F80
ENDCHAR

STARTCHAR multiply
ENCODING 215
SWIDTH 606 0
DWIDTH 11 0
BBX 9 9 1 0
BITMAP
4100
E380
7700
3E00
1C00
3E00
7700
E380
4100
ENDCHAR

STARTCHAR Oslash
ENCODING 216
SWIDTH 833 0
DWIDTH 16 0
BBX 14 13 1 0
BITMAP
07EC
1C38
3838
707C
70DC
E19C
E31C
E61C
EC38
F838
7070
70E0
DF80
ENDCHAR

STARTCHAR Ugrave
ENCODING 217
SWIDTH 778 0
DWIDTH 15 0
BBX 14 14 1 0
BITMAP
0600
0700
0380
00C0
0000
F8FC
7070
7070
7070
E0E0
E0E0
E1E0
7FE0
3CF8
ENDCHAR

STARTCHAR Uacute
ENCODING 218
SWIDTH 778 0
DWIDTH 15 0
BBX 14 14 1 0
BITMAP
00C0
01C0
0380
0600
0000
F8FC
7070
7070
7070
E0E0
E0E0
E1E0
7FE0
3CF8
ENDCHAR

STARTCHAR Ucircumflex
ENCODING 219
SWIDTH 778 0
DWIDTH 15 0
BBX 14 14 1 0
BITMAP
0180
0380
06C0
0CC0
0000
F8FC
7070
7070
7070
E0E0
E0E0
E1E0
7FE0
3CF8
ENDCHAR

STARTCHAR Udieresis
ENCODING 220
SWIDTH 778 0
DWIDTH 15 0
BBX 14 13 1 0
BITMAP
0660
0660
0000
0000
F8FC
7070
7070
7070
E0E0
E0E0
E1E0
7FE0
3CF8
ENDCHAR

STARTCHAR Yacute
ENCODING 221
SWIDTH 611 0
DWIDTH 11 0
BBX 11 14 0 0
BITMAP
00C0
01C0
0380
0600
0000
F0E0
79C0
3980
1B00
1E00
0E00
1C00
1C00
7F00
ENDCHAR

STARTCHAR Thorn
ENCODING 222
SWIDTH 667 0
DWIDTH 13 0
BBX 13 13 0 0
BITMAP
3F80
0E00
0FF0
0E78
1C38
1C38
1C38
1C30
1870
3FC0
3800
3800
FE00
ENDCHAR

STARTCHAR germandbls
ENCODING 223
SWIDTH 556 0
DWIDTH 10 0
BBX 11 18 -2 -5
BITMAP
03C0
0760
0660
0E60
3E40
0E80
0EC0
0CE0
1C60
1C60
1C60
1DC0
1980
3800
3800
3000
E000
C000
ENDCHAR

STARTCHAR agrave
ENCODING 224
SWIDTH 556 0
DWIDTH 10 0
BBX 9 14 0 0
BITMAP
3000
3800
1C00
0600
0000
1F80
3380
6380
E380
E300
E700
EF00
F780
6700
ENDCHAR

STARTCHAR aacute
ENCODING 225
SWIDTH 556 0
DWIDTH 10 0
BBX 10 14 0 0
BITMAP
00C0
01C0
0380
0600
0000
1F80
3380
6380
E380
E300
E700
EF00
F780
6700
ENDCHAR

STARTCHAR acircumflex
ENCODING 226
SWIDTH 556 0
DWIDTH 10 0
BBX 10 14 0 0
BITMAP
0180
0380
06C0
0CC0
0000
1F80
3380
6380
E380
E300
E700
EF00
F780
6700
ENDCHAR

STARTCHAR atilde
ENCODING 227
SWIDTH 556 0
DWIDTH 10 0
BBX 10 13 0 0
BITMAP
0EC0
1B80
0000
0000
1F80
3380
6380
E380
E300
E700
EF00
F780
6700
ENDCHAR

STARTCHAR adieresis
ENCODING 228
SWIDTH 556 0
DWIDTH 10 0
BBX 9 13 0 0
BITMAP
1980
1980
0000
0000
1F80
3380
6380
E380
E300
E700
EF00
F780
6700
ENDCHAR

STARTCHAR aring
ENCODING 229
SWIDTH 556 0
DWIDTH 10 0
BBX 9 14 0 0
BITMAP
0700
0D80
0D80
0700
0000
1F80
3380
6380
E380
E300
E700
EF00
F780
6700
ENDCHAR

STARTCHAR ae
ENCODING 230
SWIDTH 738 0
DWIDTH 14 0
BBX 13 9 0 0
BITMAP
38F0
7DB8
4738
0730
7FC0
E700
E700
FF30
73E0
ENDCHAR

STARTCHAR ccedilla
ENCODING 231
SWIDTH 444 0
DWIDTH 8 0
BBX 7 13 0 -4
BITMAP
1E
36
62
E0
E0
E0
E6
FC
78
10
3C
1C
78
ENDCHAR

STARTCHAR egrave
ENCODING 232
SWIDTH 444 0
DWIDTH 9 0
BBX 8 14 0 0
BITMAP
60
70
38
0C
00
1E
37
67
E6
F8
E0
E0
E6
7C
ENDCHAR

STARTCHAR eacute
ENCODING 233
SWIDTH 444 0
DWIDTH 9 0
BBX 9 14 0 0
BITMAP
0180
0380
0700
0C00
0000
1E00
3700
6700
E600
F800
E000
E000
E600
7C00
ENDCHAR

STARTCHAR ecircumflex
ENCODING 234
SWIDTH 444 0
DWIDTH 9 0
BBX 9 14 0 0
BITMAP
0300
0700
0D80
1980
0000
1E00
3700
6700
E600
F800
E000
E000
E600
7C00
ENDCHAR

STARTCHAR edieresis
ENCODING 235
SWIDTH 444 0
DWIDTH 9 0
BBX 8 13 0 0
BITMAP
33
33
00
00
1E
37
67
E6
F8
E0
E0
E6
7C
ENDCHAR

STARTCHAR igrave
ENCODING 236
SWIDTH 333 0
DWIDTH 7 0
BBX 5 14 0 0
BITMAP
C0
E0
70
18
00
18
38
78
B8
38
70
70
78
70
ENDCHAR

STARTCHAR iacute
ENCODING 237
SWIDTH 333 0
DWIDTH 7 0
BBX 8 14 0 0
BITMAP
03
07
0E
18
00
18
38
78
B8
38
70
70
78
70
ENDCHAR

STARTCHAR icircumflex
ENCODING 238
SWIDTH 333 0
DWIDTH 7 0
BBX 7 14 0 0
BITMAP
0C
1C
36
66
00
18
38
78
B8
38
70
70
78
70
ENDCHAR

STARTCHAR idieresis
ENCODING 239
SWIDTH 333 0
DWIDTH 7 0
BBX 7 13 0 0
BITMAP
66
66
00
00
18
38
78
B8
38
70
70
78
70
ENDCHAR

STARTCHAR eth
ENCODING 240
SWIDTH 556 0
DWIDTH 10 0
BBX 9 14 0 0
BITMAP
3980
4E00
0E00
3700
0300
1F80
3780
6380
E380
E380
E380
E300
F600
7C00
ENDCHAR

STARTCHAR ntilde
ENCODING 241
SWIDTH 556 0
DWIDTH 11 0
BBX 10 13 0 0
BITMAP
0EC0
1B80
0000
0000
3180
F3C0
75C0
79C0
71C0
E380
E380
E3C0
E380
ENDCHAR

STARTCHAR ograve
ENCODING 242
SWIDTH 556 0
DWIDTH 10 0
BBX 9 14 0 0
BITMAP
3000
3800
1C00
0600
0000
1F00
3780
6380
E380
E380
E380
E300
F600
7C00
ENDCHAR

STARTCHAR oacute
ENCODING 243
SWIDTH 556 0
DWIDTH 10 0
BBX 9 14 0 0
BITMAP
0180
0380
0700
0C00
0000
1F00
3780
6380
E380
E380
E380
E300
F600
7C00
ENDCHAR

STARTCHAR ocircumflex
ENCODING 244
SWIDTH 556 0
DWIDTH 10 0
BBX 9 14 0 0
BITMAP
0300
0700
0D80
1980
0000
1F00
3780
6380
E380
E380
E380
E300
F600
7C00
ENDCHAR

STARTCHAR otilde
ENCODING 245
SWIDTH 556 0
DWIDTH 10 0
BBX 10 13 0 0
BITMAP
0EC0
1B80
0000
0000
1F00
3780
6380
E380
E380
E380
E300
F600
7C00
ENDCHAR

STARTCHAR odieresis
ENCODING 246
SWIDTH 556 0
DWIDTH 10 0
BBX 9 13 0 0
BITMAP
1980
1980
0000
0000
1F00
3780
6380
E380
E380
E380
E300
F600
7C00
ENDCHAR

STARTCHAR divide
ENCODING 247
SWIDTH 606 0
DWIDTH 11 0
BBX 8 8 1 1
BITMAP
18
18
00
FF
FF
00
18
18
ENDCHAR

STARTCHAR oslash
ENCODING 248
SWIDTH 556 0
DWIDTH 10 0
BBX 11 9 -1 0
BITMAP
0FA0
1BC0
31C0
73C0
75C0
79C0
7180
7B00
BE00
ENDCHAR

STARTCHAR ugrave
ENCODING 249
SWIDTH 556 0
DWIDTH 10 0
BBX 9 14 0 0
BITMAP
3000
3800
1C00
0600
0000
7380
F380
7380
6380
E700
E700
EF00
F780
7700
ENDCHAR

STARTCHAR uacute
ENCODING 250
SWIDTH 556 0
DWIDTH 10 0
BBX 9 14 0 0
BITMAP
0180
0380
0700
0C00
0000
7380
F380
7380
6380
E700
E700
EF00
F780
7700
ENDCHAR

STARTCHAR ucircumflex
ENCODING 251
SWIDTH 556 0
DWIDTH 10 0
BBX 9 14 0 0
BITMAP
0300
0700
0D80
1980
0000
7380
F380
7380
6380
E700
E700
EF00
F780
7700
ENDCHAR

STARTCHAR udieresis
ENCODING 252
SWIDTH 556 0
DWIDTH 10 0
BBX 9 13 0 0
BITMAP
3300
3300
0000
0000
7380
F380
7380
6380
E700
E700
EF00
F780
7700
ENDCHAR

STARTCHAR yacute
ENCODING 253
SWIDTH 556 0
DWIDTH 10 0
BBX 11 19 -1 -5
BITMAP
00C0
01C0
0380
0600
0000
1860
78E0
38E0
38E0
71C0
73C0
77C0
7DC0
3B80
0380
0300
C700
CE00
7C00
ENDCHAR

STARTCHAR thorn
ENCODING 254
SWIDTH 556 0
DWIDTH 11 0
BBX 11 18 -1 -5
BITMAP
0600
1E00
0E00
0E00
1CC0
1DE0
1EE0
1CE0
38E0
38E0
39C0
3B80
7E00
7000
7000
E000
E000
E000
ENDCHAR

STARTCHAR ydieresis
ENCODING 255
SWIDTH 556 0
DWIDTH 10 0
BBX 11 17 -1 -5
BITMAP
0CC0
0CC0
0000
1860
78E0
38E0
38E0
71C0
73C0
77C0
7DC0
3B80
0380
0300
C700
CE00
7C00
ENDCHAR

ENDFONT
