STARTFONT 2.1
FONT -Adobe-Palatino-Bold-I-Normal--33-240-100-100-P-178-ISO8859-1
SIZE 24 100 100
FONTBOUNDINGBOX 39 34 -5 -9

STARTPROPERTIES 26
_DEC_DEVICE_FONTNAMES "PS=Palatino-BoldItalic"
FONTNAME_REGISTRY ""
FAMILY_NAME "Palatino"
FOUNDRY "Adobe"
WEIGHT_NAME "Bold"
SLANT "I"
SETWIDTH_NAME "Normal"
ADD_STYLE_NAME ""
PIXEL_SIZE 33
POINT_SIZE 240
RESOLUTION_X 100
RESOLUTION_Y 100
SPACING "P"
AVERAGE_WIDTH 178
CHARSET_REGISTRY "ISO8859"
CHARSET_ENCODING "1"
CHARSET_COLLECTIONS "ASCII ISO8859-1 ADOBE-STANDARD"
FULL_NAME "Palatino Bold Italic"
COPYRIGHT "Copyright (c) 1991 Adobe Systems, Inc."
CAP_HEIGHT 23
X_HEIGHT 16
WEIGHT 10
QUAD_WIDTH 20
DEFAULT_CHAR 0
FONT_DESCENT 9
FONT_ASCENT 25
ENDPROPERTIES

CHARS 190

STARTCHAR space
ENCODING 32
SWIDTH 250 0
DWIDTH 8 0
BBX 1 1 0 0
BITMAP
00
ENDCHAR

STARTCHAR exclam
ENCODING 33
SWIDTH 333 0
DWIDTH 11 0
BBX 9 23 1 0
BITMAP
0380
0F80
0F80
0F00
0F00
0F00
0E00
0E00
0E00
1C00
1C00
1C00
1800
1800
1800
1000
0000
0000
0000
6000
F000
F000
6000
ENDCHAR

STARTCHAR quotedbl
ENCODING 34
SWIDTH 500 0
DWIDTH 17 0
BBX 14 11 2 12
BITMAP
3018
783C
783C
783C
F078
F078
E070
E070
C060
C060
8040
ENDCHAR

STARTCHAR numbersign
ENCODING 35
SWIDTH 500 0
DWIDTH 17 0
BBX 16 23 0 0
BITMAP
071C
071C
071C
071C
071C
073C
0F38
7FFF
7FFF
7FFF
0E38
0E38
0E70
FFFE
FFFE
FFFE
1C70
1C70
1CF0
1CE0
38E0
38E0
38E0
ENDCHAR

STARTCHAR dollar
ENCODING 36
SWIDTH 500 0
DWIDTH 16 0
BBX 16 30 0 -5
BITMAP
0020
0020
00FC
03FF
0E6F
0C42
1842
3842
38C0
38C0
3EC0
3F80
1FF0
1FFC
07FE
01FE
011E
010E
410E
430E
431C
6318
7238
FFE0
1F80
0600
0600
0600
0400
0400
ENDCHAR

STARTCHAR percent
ENCODING 37
SWIDTH 889 0
DWIDTH 29 0
BBX 22 22 3 0
BITMAP
1F00C0
3DC380
78FF80
708300
F08300
F08600
E18400
E10C00
E31800
761800
3C3000
0030F8
0061EC
0043C4
00C784
018784
018784
03070C
030708
060718
0403B0
0C01E0
ENDCHAR

STARTCHAR ampersand
ENCODING 38
SWIDTH 833 0
DWIDTH 28 0
BBX 25 23 2 0
BITMAP
003F0000
00FF8000
03830000
07010000
0E010000
0E000100
0F000180
0F000080
0F900080
07F00180
03F01F80
0F03FF00
3C0FFC00
780FF000
70087800
F0183800
F0003800
F0007800
F8007000
7C00E000
7F03C000
3FFF0000
07F00000
ENDCHAR

STARTCHAR quoteright
ENCODING 39
SWIDTH 278 0
DWIDTH 9 0
BBX 7 9 2 14
BITMAP
0E
3E
3C
38
70
70
60
C0
80
ENDCHAR

STARTCHAR parenleft
ENCODING 40
SWIDTH 333 0
DWIDTH 11 0
BBX 10 28 2 -4
BITMAP
0040
00C0
0380
0700
0F00
0E00
1E00
3C00
3C00
7800
7800
7800
F000
F000
F000
F000
F000
F000
F000
7000
7000
7000
3000
3800
1800
0C00
0C00
0400
ENDCHAR

STARTCHAR parenright
ENCODING 41
SWIDTH 333 0
DWIDTH 11 0
BBX 10 28 -1 -4
BITMAP
0800
0C00
0C00
0600
0700
0300
0380
0380
0380
0380
03C0
03C0
03C0
03C0
03C0
03C0
0780
0780
0780
0F00
0F00
0E00
1C00
3C00
3800
7000
C000
8000
ENDCHAR

STARTCHAR asterisk
ENCODING 42
SWIDTH 444 0
DWIDTH 15 0
BBX 12 12 3 11
BITMAP
0380
6380
6380
F300
3A00
0FF0
1FF0
FA10
F300
6300
0380
0300
ENDCHAR

STARTCHAR plus
ENCODING 43
SWIDTH 606 0
DWIDTH 20 0
BBX 17 17 2 0
BITMAP
01C000
01C000
01C000
01C000
01C000
01C000
01C000
FFFF80
FFFF80
FFFF80
01C000
01C000
01C000
01C000
01C000
01C000
01C000
ENDCHAR

STARTCHAR comma
ENCODING 44
SWIDTH 250 0
DWIDTH 8 0
BBX 8 10 -1 -5
BITMAP
07
1E
1E
1C
3C
38
70
70
E0
C0
ENDCHAR

STARTCHAR minus
ENCODING 45
SWIDTH 606 0
DWIDTH 20 0
BBX 17 3 2 7
BITMAP
FFFF80
FFFF80
FFFF80
ENDCHAR

STARTCHAR period
ENCODING 46
SWIDTH 250 0
DWIDTH 8 0
BBX 4 4 0 0
BITMAP
60
F0
F0
60
ENDCHAR

STARTCHAR slash
ENCODING 47
SWIDTH 315 0
DWIDTH 11 0
BBX 11 24 0 0
BITMAP
00E0
00C0
01C0
01C0
0180
0380
0300
0300
0700
0600
0600
0E00
0C00
0C00
1C00
1800
3800
3800
3000
7000
6000
6000
E000
C000
ENDCHAR

STARTCHAR zero
ENCODING 48
SWIDTH 500 0
DWIDTH 16 0
BBX 15 23 1 0
BITMAP
03F0
0738
0E1C
1E1C
3C1E
3C1E
3C1E
781E
781E
781E
F83E
F83E
F83C
F03C
F03C
F07C
F078
F078
F070
70F0
70E0
39C0
1F80
ENDCHAR

STARTCHAR one
ENCODING 49
SWIDTH 500 0
DWIDTH 16 0
BBX 13 23 1 0
BITMAP
0030
00F0
07F0
3FF0
79E0
61E0
01E0
01E0
03E0
03E0
03C0
03C0
03C0
03C0
07C0
0780
0780
0780
0780
0F80
0F80
0F80
FFF8
ENDCHAR

STARTCHAR two
ENCODING 50
SWIDTH 500 0
DWIDTH 16 0
BBX 15 23 0 0
BITMAP
03F0
0FF8
0FFC
1C7E
183E
301E
001E
001E
001C
003C
0038
0078
00F0
00E0
01C0
0380
0700
0E00
1C00
3FFE
7FFE
FFFE
FFFC
ENDCHAR

STARTCHAR three
ENCODING 51
SWIDTH 500 0
DWIDTH 16 0
BBX 15 23 0 0
BITMAP
01F0
07FC
0FFC
1C3E
101E
101E
001E
001C
0038
0070
07C0
0FF8
007C
003E
003E
001E
403E
403E
403C
C07C
E078
F1E0
3F80
ENDCHAR

STARTCHAR four
ENCODING 52
SWIDTH 500 0
DWIDTH 16 0
BBX 16 23 0 0
BITMAP
0006
003E
007C
00FC
01BC
01BC
033C
063C
0478
0C78
1878
3078
3078
6070
7FFF
FFFF
FFFF
00F0
00F0
01E0
01E0
03F0
1FFE
ENDCHAR

STARTCHAR five
ENCODING 53
SWIDTH 500 0
DWIDTH 16 0
BBX 16 22 0 0
BITMAP
07FF
0FFE
0FFE
0C00
0C00
0800
0800
1800
1BF0
1FF8
187C
103E
001E
001E
001E
001E
403E
403C
603C
6078
F1E0
3FC0
ENDCHAR

STARTCHAR six
ENCODING 54
SWIDTH 500 0
DWIDTH 16 0
BBX 15 23 1 0
BITMAP
003E
00FE
03C2
0700
0E00
1E00
1C00
3C00
7C00
79F8
7BFC
FE7E
FC3E
F81E
F81E
F01E
F01E
F03C
F03C
7878
7870
3FC0
0F00
ENDCHAR

STARTCHAR seven
ENCODING 55
SWIDTH 500 0
DWIDTH 16 0
BBX 16 22 2 0
BITMAP
7FFF
7FFF
FFFE
FFFC
000C
0018
0030
0030
0060
00E0
00C0
01C0
0380
0300
0700
0E00
1E00
1C00
3C00
7800
7800
F000
ENDCHAR

STARTCHAR eight
ENCODING 56
SWIDTH 500 0
DWIDTH 16 0
BBX 15 23 1 0
BITMAP
00F0
03FC
061C
0C0E
1C0E
1C0E
1C0C
3C1C
1F38
1FE0
0FE0
07F0
0FF8
38FC
707C
603C
E03C
E038
E038
E030
70E0
3FC0
1E00
ENDCHAR

STARTCHAR nine
ENCODING 57
SWIDTH 500 0
DWIDTH 16 0
BBX 15 23 1 0
BITMAP
01E0
07F8
0E3C
1C3C
3C1E
381E
781E
781E
781E
781E
783E
7C3E
3EFE
3FFC
1F3C
0038
0078
0070
0070
80E0
C1C0
FF80
7E00
ENDCHAR

STARTCHAR colon
ENCODING 58
SWIDTH 250 0
DWIDTH 8 0
BBX 7 15 0 0
BITMAP
0C
1E
1E
0C
00
00
00
00
00
00
00
60
F0
F0
60
ENDCHAR

STARTCHAR semicolon
ENCODING 59
SWIDTH 250 0
DWIDTH 8 0
BBX 8 20 -1 -5
BITMAP
06
0F
0F
06
00
00
00
00
00
00
00
0E
3E
3C
38
70
70
60
C0
80
ENDCHAR

STARTCHAR less
ENCODING 60
SWIDTH 606 0
DWIDTH 20 0
BBX 17 18 2 -1
BITMAP
000180
000780
001F80
00FF00
03FC00
0FE000
7F8000
FE0000
F00000
FC0000
7F0000
1FC000
07F000
01FC00
007F80
001F80
000780
000180
ENDCHAR

STARTCHAR equal
ENCODING 61
SWIDTH 606 0
DWIDTH 20 0
BBX 17 9 2 4
BITMAP
FFFF80
FFFF80
FFFF80
000000
000000
000000
FFFF80
FFFF80
FFFF80
ENDCHAR

STARTCHAR greater
ENCODING 62
SWIDTH 606 0
DWIDTH 20 0
BBX 17 18 1 -1
BITMAP
C00000
F00000
FC0000
7F8000
1FE000
03F800
00FF00
003F80
000780
001F80
007F00
01FC00
07F000
1FC000
FF0000
FC0000
F00000
C00000
ENDCHAR

STARTCHAR question
ENCODING 63
SWIDTH 444 0
DWIDTH 14 0
BBX 11 23 2 0
BITMAP
1F00
7FC0
7FC0
C3E0
81E0
81E0
01E0
03E0
07C0
0F80
1E00
1C00
3800
3000
2000
3000
0000
0000
0000
6000
F000
F000
6000
ENDCHAR

STARTCHAR at
ENCODING 64
SWIDTH 833 0
DWIDTH 28 0
BBX 21 23 2 0
BITMAP
01FE00
07FF80
0FC7C0
1E01E0
380070
700030
70FFB8
61DF98
E3CF98
C78F18
C78F18
CF8F18
CF0F38
CF0E30
EF1E70
E73E60
776FC0
73EF30
380070
1E00E0
0FC3C0
07FF80
01FE00
ENDCHAR

STARTCHAR A
ENCODING 65
SWIDTH 722 0
DWIDTH 24 0
BBX 24 23 -1 0
BITMAP
0001C0
0003C0
0007C0
0007E0
000DE0
000DE0
0019E0
0019E0
0031E0
0060F0
0060F0
00C0F0
00C0F0
01FFF0
0380F0
0300F0
0600F8
060078
0C0078
1C0078
180078
3800FC
FF03FF
ENDCHAR

STARTCHAR B
ENCODING 66
SWIDTH 667 0
DWIDTH 22 0
BBX 21 23 0 0
BITMAP
1FFFE0
07E1F0
03C0F8
03C078
03C078
07C078
07C078
07C0F0
0780F0
0781E0
078380
0FFF00
0F83C0
0F81E0
0F00F0
0F00F0
0F00F0
1F00F0
1F01F0
1F01E0
1E03C0
3FFF80
FFFC00
ENDCHAR

STARTCHAR C
ENCODING 67
SWIDTH 685 0
DWIDTH 21 0
BBX 21 23 0 0
BITMAP
001FE0
00FFF8
03E0F8
078018
0F0018
1E0010
3C0010
3C0000
7C0000
780000
780000
F80000
F80000
F80000
F80000
F80000
F80000
780000
7C0020
7E0060
3F83C0
1FFF00
07FC00
ENDCHAR

STARTCHAR D
ENCODING 68
SWIDTH 778 0
DWIDTH 26 0
BBX 25 23 0 0
BITMAP
3FFFE000
0FFFF800
07C07C00
07C03E00
07C01F00
07800F00
07800F00
07800F80
07800F80
0F800F80
0F800F80
0F000F00
0F000F00
0F001F00
1F001F00
1F001E00
1E003E00
1E003C00
1E007800
1E00F000
3E01E000
3FFFC000
FFFE0000
ENDCHAR

STARTCHAR E
ENCODING 69
SWIDTH 611 0
DWIDTH 20 0
BBX 20 23 0 0
BITMAP
1FFFF0
07FFF0
03C030
03C020
07C020
07C000
078000
078000
078000
078000
0FFF00
0FFF00
0F0000
0F0000
0F0000
1F0000
1F0000
1F0040
1E0040
1E00C0
3E00C0
7FFF80
FFFF80
ENDCHAR

STARTCHAR F
ENCODING 70
SWIDTH 556 0
DWIDTH 19 0
BBX 20 23 0 0
BITMAP
1FFFF0
07FFF0
03E030
03E030
03C020
03C020
03C000
07C000
07C000
078000
078000
07FF80
07FF80
0F8000
0F8000
0F0000
0F0000
0F0000
1F0000
1F0000
1F0000
3F0000
FFE000
ENDCHAR

STARTCHAR G
ENCODING 71
SWIDTH 778 0
DWIDTH 25 0
BBX 22 23 2 0
BITMAP
003FE0
00FFF8
03E0F8
078038
0F0018
1E0018
3C0010
3C0000
780000
780000
F80000
F80000
F00000
F00000
F00FFC
F001F0
F801F0
F801E0
F801E0
7C01E0
3E03E0
1FFF80
07F800
ENDCHAR

STARTCHAR H
ENCODING 72
SWIDTH 778 0
DWIDTH 26 0
BBX 27 23 -1 0
BITMAP
1FF87FE0
07E01F80
03C01F00
03C01F00
03C01F00
07C01E00
07C01E00
07801E00
07803E00
07803E00
07FFFC00
0FFFFC00
0F003C00
0F003C00
0F003C00
0F007C00
1F007C00
1F007800
1E007800
1E007800
1E00F800
3F00F800
FFC7FF00
ENDCHAR

STARTCHAR I
ENCODING 73
SWIDTH 389 0
DWIDTH 13 0
BBX 14 23 -1 0
BITMAP
1FFC
03E0
03E0
03C0
03C0
03C0
07C0
07C0
07C0
0780
0780
0780
0F80
0F80
0F80
0F00
0F00
0F00
1F00
1F00
1F00
3F00
FFE0
ENDCHAR

STARTCHAR J
ENCODING 74
SWIDTH 389 0
DWIDTH 13 0
BBX 15 30 -1 -7
BITMAP
0FFE
01F0
01F0
01F0
01E0
01E0
01E0
03E0
03E0
03E0
03C0
03C0
03C0
03C0
07C0
07C0
0780
0780
0780
0780
0F80
0F00
0F00
0F00
0F00
1E00
1E00
1C00
3800
F000
ENDCHAR

STARTCHAR K
ENCODING 75
SWIDTH 722 0
DWIDTH 24 0
BBX 25 23 -1 0
BITMAP
1FFC0F80
03E01E00
03E03C00
03C03000
03C06000
03C0C000
03C18000
07C30000
07C60000
079C0000
07B80000
07FC0000
07FE0000
0FBE0000
0F1F0000
0F0F8000
0F0FC000
0F07C000
1E03E000
1E03F000
1E01F800
3F00FC00
FFC0FE00
ENDCHAR

STARTCHAR L
ENCODING 76
SWIDTH 611 0
DWIDTH 19 0
BBX 19 23 -1 0
BITMAP
1FFC00
03E000
03E000
03C000
03C000
03C000
07C000
07C000
078000
078000
078000
078000
0F8000
0F8000
0F0000
0F0000
0F0000
0F0060
1F0060
1F0060
1E00C0
3FFFC0
FFFFC0
ENDCHAR

STARTCHAR M
ENCODING 77
SWIDTH 944 0
DWIDTH 31 0
BBX 33 24 -1 -1
BITMAP
0FE0007F80
03F000FE00
01F000FC00
01F001FC00
01F001F800
03F8037800
03F8077800
0278067800
06780CF800
067C0CF800
067C18F000
063C38F000
0C3C30F000
0C3E60F000
0C3E61F000
0C1EC1E000
181EC1E000
181F81E000
181F81E000
180F01E000
300E03E000
780E03E000
FE0C0FFC00
0004000000
ENDCHAR

STARTCHAR N
ENCODING 78
SWIDTH 778 0
DWIDTH 26 0
BBX 28 23 -1 0
BITMAP
3FC00FF0
07E003C0
03E00180
03F00180
03F00180
03F80300
02FC0300
067C0300
063E0300
063E0300
061F0200
061F0600
0C0F8600
0C07C600
0C07C600
0C03E400
0C03EC00
0C01FC00
1801FC00
1800FC00
18007C00
3C007800
FF003800
ENDCHAR

STARTCHAR O
ENCODING 79
SWIDTH 833 0
DWIDTH 26 0
BBX 25 23 0 0
BITMAP
001FC000
00FFF000
03E07C00
07803E00
0F001F00
1E000F00
3E000F00
3E000F80
7C000F80
7C000F80
7C000F80
F8000F80
F8000F00
F8001F00
F8001F00
F8001E00
F8003E00
78003C00
7C007800
7C00F000
3E01E000
0FFFC000
03FE0000
ENDCHAR

STARTCHAR P
ENCODING 80
SWIDTH 667 0
DWIDTH 22 0
BBX 22 23 -1 0
BITMAP
1FFFE0
03FFF8
03E0F8
03E07C
03C07C
03C03C
03C03C
03C07C
07C07C
07C078
0780F8
0781F0
079FC0
0F9F00
0F8000
0F0000
0F0000
0F0000
0F0000
1F0000
1F0000
1F0000
FFE000
ENDCHAR

STARTCHAR Q
ENCODING 81
SWIDTH 833 0
DWIDTH 26 0
BBX 25 30 0 -7
BITMAP
001F8000
00FFF800
03E07C00
07803E00
0F001F00
1E000F00
3E000F80
3E000F80
7C000F80
7C000F80
7C000F80
F8000F80
F8000F00
F8001F00
F8001F00
F8001E00
F8003E00
78003C00
7C007800
3C00F000
3E01E000
0FC7C000
03FE0000
07C00000
0FF80100
187E0300
101FC600
100FFE00
0003FC00
0000F800
ENDCHAR

STARTCHAR R
ENCODING 82
SWIDTH 722 0
DWIDTH 24 0
BBX 24 23 -1 0
BITMAP
1FFFE0
07FFF8
03E0FC
03C07C
03C07C
07C03C
07C07C
07C07C
0780F8
0781F0
078FC0
0FBE00
0F9F00
0F9F80
0F0F80
0F07C0
0F07E0
1F03E0
1F03F0
1E01F0
1E00F8
3F00FC
FFC07F
ENDCHAR

STARTCHAR S
ENCODING 83
SWIDTH 556 0
DWIDTH 16 0
BBX 15 23 0 0
BITMAP
00FC
03FE
0E0E
1C06
1802
3802
3800
3800
3C00
3F80
3FF0
1FFC
0FFC
00FE
003E
001E
401E
C01C
C01C
C038
F070
FFE0
3F00
ENDCHAR

STARTCHAR T
ENCODING 84
SWIDTH 611 0
DWIDTH 20 0
BBX 20 23 1 0
BITMAP
7FFFF0
FFFFF0
C0F030
C0F030
C1F020
81F020
01F000
01E000
01E000
01E000
03E000
03E000
03E000
03C000
03C000
03C000
07C000
07C000
078000
078000
078000
0FC000
7FF000
ENDCHAR

STARTCHAR U
ENCODING 85
SWIDTH 778 0
DWIDTH 26 0
BBX 25 23 0 0
BITMAP
FF03FF80
1F007E00
1F007C00
1F007C00
1E007C00
1E007800
1E007800
3E007800
3E00F800
3C00F800
3C00F800
3C00F000
7C00F000
7C01F000
7C01F000
7801F000
7801F000
7803E000
7C07E000
7E1DE000
3FF3E000
3FE3E000
0F83FE00
ENDCHAR

STARTCHAR V
ENCODING 86
SWIDTH 667 0
DWIDTH 22 0
BBX 23 23 0 0
BITMAP
FFC0FE
3F003C
1F0038
1F0030
1F0070
1F0060
1F00C0
0F00C0
0F0180
0F0180
0F8300
0F8300
0F8600
078C00
078C00
079800
07D800
07F000
07F000
03E000
03C000
03C000
038000
ENDCHAR

STARTCHAR W
ENCODING 87
SWIDTH 1000 0
DWIDTH 33 0
BBX 34 23 0 0
BITMAP
FFC0601FC0
3F00E00780
1E00E00300
1E00F00700
1E01F00600
1E01F00600
1F03F00C00
1F03F80C00
1F06781800
1F06781800
0F0C7C1800
0F0C7C3000
0F183C3000
0F103C6000
0F303E6000
0F203E6000
0F601EC000
0FC01EC000
0FC01F8000
0F801F8000
0F800F8000
07000F0000
07000F0000
ENDCHAR

STARTCHAR X
ENCODING 88
SWIDTH 722 0
DWIDTH 25 0
BBX 26 23 -1 0
BITMAP
1FFC7FC0
03E00F00
03E00C00
01F01800
00F03800
00F87000
0078E000
007DC000
003D8000
003F0000
001E0000
001F0000
001F0000
003F8000
00678000
00E7C000
01C3C000
0383E000
0701E000
0601F000
0E01F000
3C01F800
FF87FE00
ENDCHAR

STARTCHAR Y
ENCODING 89
SWIDTH 611 0
DWIDTH 20 0
BBX 21 23 0 0
BITMAP
380018
7C0038
FE0078
FE00F0
1F01C0
1F0380
0F0700
0F8600
078C00
079800
07F800
03F000
03F000
03E000
03E000
03E000
03C000
03C000
03C000
078000
078000
0FC000
3FF000
ENDCHAR

STARTCHAR Z
ENCODING 90
SWIDTH 667 0
DWIDTH 23 0
BBX 22 23 0 0
BITMAP
0FFFFC
0FFFFC
0C01F8
0801F0
1803E0
1807E0
000FC0
000F80
001F00
003E00
007E00
00FC00
00F800
01F000
03F000
07E000
07C000
0F8018
1F8018
3F0010
7E0030
7FFFF0
FFFFF0
ENDCHAR

STARTCHAR bracketleft
ENCODING 91
SWIDTH 333 0
DWIDTH 11 0
BBX 12 27 1 -3
BITMAP
0FF0
0F00
0F00
0E00
1E00
1E00
1E00
1E00
1C00
1C00
1C00
3C00
3C00
3C00
3C00
3800
3800
3800
7800
7800
7800
7800
7000
F000
F000
F000
FF00
ENDCHAR

STARTCHAR backslash
ENCODING 92
SWIDTH 606 0
DWIDTH 20 0
BBX 14 24 3 0
BITMAP
E000
E000
F000
7000
7800
3800
3C00
1C00
1E00
0E00
0F00
0700
0380
03C0
01C0
01E0
00E0
00F0
0070
0078
0038
003C
001C
001C
ENDCHAR

STARTCHAR bracketright
ENCODING 93
SWIDTH 333 0
DWIDTH 11 0
BBX 11 27 -1 -3
BITMAP
1FE0
01E0
01E0
01C0
01C0
01C0
03C0
03C0
03C0
0380
0380
0380
0380
0780
0780
0780
0700
0700
0700
0F00
0F00
0F00
0F00
0E00
1E00
1E00
FE00
ENDCHAR

STARTCHAR asciicircum
ENCODING 94
SWIDTH 606 0
DWIDTH 20 0
BBX 16 13 2 10
BITMAP
03C0
03C0
07E0
07E0
0FF0
0E70
1E78
1C38
3C3C
381C
781E
700E
F00F
ENDCHAR

STARTCHAR underscore
ENCODING 95
SWIDTH 500 0
DWIDTH 16 0
BBX 16 2 0 -5
BITMAP
FFFF
FFFF
ENDCHAR

STARTCHAR quoteleft
ENCODING 96
SWIDTH 278 0
DWIDTH 9 0
BBX 7 9 2 14
BITMAP
02
06
0C
1C
1C
38
78
F8
E0
ENDCHAR

STARTCHAR a
ENCODING 97
SWIDTH 556 0
DWIDTH 17 0
BBX 16 16 0 0
BITMAP
00F3
03FE
061E
1C1E
3C1E
383C
783C
787C
787C
70F8
F1B8
F1B8
F37B
FE7F
FC7C
7078
ENDCHAR

STARTCHAR b
ENCODING 98
SWIDTH 537 0
DWIDTH 17 0
BBX 16 24 0 0
BITMAP
0700
7F00
1E00
1E00
1E00
1E00
3C00
3C00
3C1E
3CFF
3DDF
3B0F
7E0F
7C0F
780F
781E
781E
F01E
F03C
F03C
F078
F8E0
7F80
1C00
ENDCHAR

STARTCHAR c
ENCODING 99
SWIDTH 444 0
DWIDTH 15 0
BBX 14 16 0 0
BITMAP
00FC
03FC
0E1C
1C0C
3808
7808
7800
7800
F000
F000
F000
F000
F818
FC70
7FC0
3F00
ENDCHAR

STARTCHAR d
ENCODING 100
SWIDTH 556 0
DWIDTH 17 0
BBX 17 24 0 0
BITMAP
000380
003F80
000F80
000F00
000F00
000F00
000F00
000F00
00FE00
03FE00
0E1E00
1C1E00
3C1C00
381C00
783C00
783C00
707C00
F0F800
F1F800
F1B800
F33B00
FE7F00
FC7C00
707800
ENDCHAR

STARTCHAR e
ENCODING 101
SWIDTH 444 0
DWIDTH 14 0
BBX 13 16 0 0
BITMAP
00F0
03F8
0E38
1C38
3C38
3870
78E0
73C0
7F00
F000
F000
F000
F030
F8E0
7F80
3E00
ENDCHAR

STARTCHAR f
ENCODING 102
SWIDTH 333 0
DWIDTH 10 0
BBX 15 33 -3 -9
BITMAP
000E
001E
003E
00E2
00E0
01C0
01C0
03C0
03C0
0FFC
1FFC
03C0
0380
0380
0780
0780
0780
0780
0780
0700
0700
0700
0F00
0F00
0E00
0E00
0E00
0C00
0C00
1800
9800
F000
E000
ENDCHAR

STARTCHAR g
ENCODING 103
SWIDTH 500 0
DWIDTH 16 0
BBX 20 25 -3 -9
BITMAP
007FF0
03FFF0
078780
070780
0F0780
0F0780
0E0780
0E0700
0F0F00
0F1E00
07F800
006000
01C000
03E000
03F000
03F800
0FFE00
387F00
701F00
E00F00
E00F00
E00F00
700E00
7C3C00
1FF000
ENDCHAR

STARTCHAR h
ENCODING 104
SWIDTH 556 0
DWIDTH 17 0
BBX 16 24 0 0
BITMAP
0700
3F00
0F00
0F00
0F00
0E00
0E00
1E00
1E0E
1E3E
1C7E
1CDE
1D9E
3F1E
3E1C
3E1C
3C3C
383C
7838
7838
707B
707F
F07C
E070
ENDCHAR

STARTCHAR i
ENCODING 105
SWIDTH 333 0
DWIDTH 11 0
BBX 9 23 1 0
BITMAP
0300
0780
0780
0300
0000
0000
0000
0600
1E00
3E00
FE00
9E00
1E00
1C00
3C00
3C00
3C00
3800
7800
7B00
7F00
7C00
7000
ENDCHAR

STARTCHAR j
ENCODING 106
SWIDTH 333 0
DWIDTH 10 0
BBX 13 32 -3 -9
BITMAP
0030
0078
0078
0030
0000
0000
0000
0060
01E0
07E0
0DE0
19E0
01E0
01E0
01C0
03C0
03C0
03C0
0380
0380
0780
0780
0700
0700
0700
0E00
0E00
0C00
0C00
9800
F000
E000
ENDCHAR

STARTCHAR k
ENCODING 107
SWIDTH 556 0
DWIDTH 17 0
BBX 17 24 0 0
BITMAP
038000
3F8000
0F8000
078000
0F0000
0F0000
0F0000
0F0000
0E0380
0E0F80
1E1F00
1E3000
1E6000
1CC000
3DC000
3FE000
3FE000
3CF000
38F000
78F800
787980
787F80
F03E00
C03800
ENDCHAR

STARTCHAR l
ENCODING 108
SWIDTH 333 0
DWIDTH 11 0
BBX 8 24 2 0
BITMAP
07
3F
0F
0F
1E
1E
1E
1E
1C
3C
3C
3C
38
78
78
78
78
F0
F0
F0
F6
FE
F8
E0
ENDCHAR

STARTCHAR m
ENCODING 109
SWIDTH 833 0
DWIDTH 27 0
BBX 26 16 0 0
BITMAP
06070380
1E1F0F80
3E3F1F80
FE6F3780
9ECE6780
1D8EC700
1F0F8F00
1F0F0F00
3E1F0F00
3C1E0E00
3C1C1E00
381C1E00
783C1EC0
783C1F80
783C1F00
60701C00
ENDCHAR

STARTCHAR n
ENCODING 110
SWIDTH 556 0
DWIDTH 17 0
BBX 16 16 0 0
BITMAP
0606
1E1E
3E3E
FCFE
9DDE
1F9E
1F1C
3E1C
3C3C
3C3C
3838
7838
787B
707F
F07C
E070
ENDCHAR

STARTCHAR o
ENCODING 111
SWIDTH 556 0
DWIDTH 18 0
BBX 15 16 1 0
BITMAP
03F8
0F7C
1C3E
3C1E
381E
781E
781E
701E
F01C
F03C
F03C
F038
F078
F870
7DE0
3F80
ENDCHAR

STARTCHAR p
ENCODING 112
SWIDTH 556 0
DWIDTH 18 0
BBX 18 25 -1 -9
BITMAP
010380
078FC0
1F1FC0
7F73C0
6F63C0
0FC3C0
0F83C0
0F0380
0F0780
0E0780
1E0700
1E0F00
1C0E00
1E1800
3FF000
3FC000
3C0000
380000
780000
780000
780000
780000
700000
F00000
F00000
ENDCHAR

STARTCHAR q
ENCODING 113
SWIDTH 537 0
DWIDTH 17 0
BBX 16 25 0 -9
BITMAP
00F9
03FF
060F
0C0E
1C1E
3C1E
381E
783C
787C
70FC
70FC
F1B8
F338
FE78
F878
7078
0070
00F0
00F0
00F0
00F0
00E0
01E0
01E0
0180
ENDCHAR

STARTCHAR r
ENCODING 114
SWIDTH 389 0
DWIDTH 12 0
BBX 12 16 0 0
BITMAP
0C30
3CF0
7DF0
FDE0
3B00
3A00
3E00
3C00
7C00
7800
7800
7000
7000
F000
F000
F000
ENDCHAR

STARTCHAR s
ENCODING 115
SWIDTH 444 0
DWIDTH 15 0
BBX 12 16 1 0
BITMAP
03E0
0FF0
1870
3030
7010
7800
7F00
7FE0
3FF0
07F0
00F0
8070
C070
E0E0
FF80
7F00
ENDCHAR

STARTCHAR t
ENCODING 116
SWIDTH 389 0
DWIDTH 13 0
BBX 12 21 1 0
BITMAP
0180
0380
0F80
0F80
0F00
0F10
7FF0
FFF0
1E00
1E00
1C00
1C00
3C00
3C00
3C00
3800
78C0
79C0
7F00
7C00
3800
ENDCHAR

STARTCHAR u
ENCODING 117
SWIDTH 556 0
DWIDTH 17 0
BBX 16 16 0 0
BITMAP
0E07
3E0F
7E0E
DE1E
1E1E
1C1E
1C3C
1C3C
3C7C
38FC
38F8
39B8
7B3B
7E7F
7C7C
7870
ENDCHAR

STARTCHAR v
ENCODING 118
SWIDTH 556 0
DWIDTH 17 0
BBX 16 16 0 0
BITMAP
7FCE
7F9F
C19F
8307
8607
0E06
1E06
1C06
1C0C
3C0C
3C08
3C18
3C30
3E60
1FC0
0F00
ENDCHAR

STARTCHAR w
ENCODING 119
SWIDTH 833 0
DWIDTH 27 0
BBX 26 16 0 0
BITMAP
7FC38380
7F878FC0
41878BC0
C30781C0
860701C0
0E0F01C0
0E0F0180
1C0F0180
1C1F0300
3C1E0300
3C3E0600
3C3E0C00
3C6F0C00
3ECF3800
1F8FE000
0F07C000
ENDCHAR

STARTCHAR x
ENCODING 120
SWIDTH 500 0
DWIDTH 18 0
BBX 17 16 0 0
BITMAP
1F0380
1F8780
3F8F00
639900
03F000
03E000
03E000
01C000
01C000
03E000
07E000
07E000
8CF200
F8FE00
F0FC00
E07000
ENDCHAR

STARTCHAR y
ENCODING 121
SWIDTH 556 0
DWIDTH 18 0
BBX 17 25 0 -9
BITMAP
060080
1E0780
3E0780
FE0F00
9E0F00
1E0F00
1E1E00
1E1E00
1E1E00
1C3C00
1C7C00
1CFC00
1DFC00
1FB800
1E3800
1C7800
007000
007000
006000
00E000
00C000
E1C000
E18000
F70000
7C0000
ENDCHAR

STARTCHAR z
ENCODING 122
SWIDTH 500 0
DWIDTH 16 0
BBX 15 16 0 0
BITMAP
1F06
3FFC
3FFC
63F8
6030
0060
00C0
0180
0300
0600
0C00
1804
3F0C
7FFC
FFF8
C3F0
ENDCHAR

STARTCHAR braceleft
ENCODING 123
SWIDTH 333 0
DWIDTH 11 0
BBX 9 29 1 -4
BITMAP
0080
0380
0F00
0E00
0E00
1E00
1C00
1C00
1C00
1C00
3C00
3C00
3800
7800
E000
7000
7000
7000
7000
7000
7000
7000
F000
F000
E000
E000
E000
7000
1000
ENDCHAR

STARTCHAR bar
ENCODING 124
SWIDTH 606 0
DWIDTH 20 0
BBX 3 24 9 0
BITMAP
E0
E0
E0
E0
E0
E0
E0
E0
E0
E0
E0
E0
E0
E0
E0
E0
E0
E0
E0
E0
E0
E0
E0
E0
ENDCHAR

STARTCHAR braceright
ENCODING 125
SWIDTH 333 0
DWIDTH 11 0
BBX 9 29 1 -4
BITMAP
0400
0700
0380
0380
0380
0380
0780
0780
0700
0700
0700
0700
0700
0700
0380
0700
0E00
0E00
1E00
1E00
1C00
1C00
1C00
3C00
3C00
3800
7800
F000
C000
ENDCHAR

STARTCHAR asciitilde
ENCODING 126
SWIDTH 606 0
DWIDTH 20 0
BBX 17 6 2 5
BITMAP
0E0100
3F8380
7FFF80
FFFF00
E0FE00
403800
ENDCHAR

STARTCHAR exclamdown
ENCODING 161
SWIDTH 333 0
DWIDTH 11 0
BBX 9 23 0 -7
BITMAP
0300
0780
0780
0300
0000
0000
0000
0400
0C00
0C00
0C00
1C00
1C00
1C00
3800
3800
3800
7800
7800
7800
F800
F800
E000
ENDCHAR

STARTCHAR cent
ENCODING 162
SWIDTH 500 0
DWIDTH 17 0
BBX 13 21 2 -3
BITMAP
0020
0020
0068
07F8
0EF8
1C90
3890
7980
7900
7100
7300
F200
F600
F600
F430
FCE0
7F80
3E00
1800
1000
1000
ENDCHAR

STARTCHAR sterling
ENCODING 163
SWIDTH 500 0
DWIDTH 17 0
BBX 15 23 2 0
BITMAP
007C
00FE
03CE
0704
0F04
1F00
1E00
1E00
1E00
1E00
1E00
FFE0
FFE0
1C00
1C00
1C00
1800
3804
300C
300C
FFF8
EFF8
C0F8
ENDCHAR

STARTCHAR currency
ENCODING 164
SWIDTH 500 0
DWIDTH 17 0
BBX 15 15 1 4
BITMAP
47C4
FFFE
FFFC
7C3C
701C
F01E
E00E
E00E
E00E
E00E
701C
7C3C
FFFC
FFFE
47C4
ENDCHAR

STARTCHAR yen
ENCODING 165
SWIDTH 500 0
DWIDTH 17 0
BBX 19 23 -1 0
BITMAP
180000
3E0060
FE00E0
FF01E0
1F0380
0F0700
0F8600
078C00
078C00
039800
03D800
1FFF00
1FFF00
01E000
01E000
3FFF00
3FFF00
03E000
03C000
03C000
03C000
07E000
1FF800
ENDCHAR

STARTCHAR brokenbar
ENCODING 166
SWIDTH 606 0
DWIDTH 20 0
BBX 3 24 9 0
BITMAP
E0
E0
E0
E0
E0
E0
E0
E0
E0
E0
00
00
00
00
E0
E0
E0
E0
E0
E0
E0
E0
E0
E0
ENDCHAR

STARTCHAR section
ENCODING 167
SWIDTH 556 0
DWIDTH 19 0
BBX 15 28 2 -5
BITMAP
01F0
07FE
0E1E
0C0C
1C04
1C04
1E00
1F00
0FC0
1FF0
39F8
30FC
703C
701C
781C
7C0C
3F18
1FF8
07F0
03F0
00F0
0078
4038
C030
C030
E060
F9C0
3F00
ENDCHAR

STARTCHAR dieresis
ENCODING 168
SWIDTH 333 0
DWIDTH 11 0
BBX 11 4 0 17
BITMAP
60C0
F1E0
F1E0
60C0
ENDCHAR

STARTCHAR copyright
ENCODING 169
SWIDTH 747 0
DWIDTH 25 0
BBX 23 23 1 0
BITMAP
01FE00
07FF80
0F87E0
1C00F0
380038
70FE1C
61E71C
E3830C
E3830E
C70006
C70006
C70006
C70006
C78006
E7800E
63C10C
61F71C
70FC18
380038
1C00F0
0F87E0
07FF80
01FE00
ENDCHAR

STARTCHAR ordfeminine
ENCODING 170
SWIDTH 333 0
DWIDTH 11 0
BBX 10 15 2 10
BITMAP
0040
1FC0
3980
7180
6380
E780
EF80
CF00
DBC0
F3C0
C300
0000
0000
FF00
FF00
ENDCHAR

STARTCHAR guillemotleft
ENCODING 171
SWIDTH 500 0
DWIDTH 17 0
BBX 15 12 1 2
BITMAP
0306
060C
0C18
1C38
3870
78F0
F1E0
70E0
3870
1C38
0C18
0408
ENDCHAR

STARTCHAR logicalnot
ENCODING 172
SWIDTH 606 0
DWIDTH 20 0
BBX 17 10 2 3
BITMAP
FFFF80
FFFF80
FFFF80
000380
000380
000380
000380
000380
000380
000380
ENDCHAR

STARTCHAR hyphen
ENCODING 173
SWIDTH 389 0
DWIDTH 13 0
BBX 11 3 1 7
BITMAP
7FE0
FFE0
FFC0
ENDCHAR

STARTCHAR registered
ENCODING 174
SWIDTH 747 0
DWIDTH 25 0
BBX 23 23 1 0
BITMAP
01FE00
07FF80
0F87E0
1E00F0
380078
73FC38
71CE1C
61C70C
E1C70E
C1C706
C1CE06
C1F806
C1DC06
C1CE06
E1CF0E
E1C70C
61C79C
73E3DC
380038
1C00F0
0F83E0
07FF80
01FE00
ENDCHAR

STARTCHAR macron
ENCODING 175
SWIDTH 333 0
DWIDTH 11 0
BBX 11 2 0 17
BITMAP
7FE0
FFC0
ENDCHAR

STARTCHAR degree
ENCODING 176
SWIDTH 400 0
DWIDTH 13 0
BBX 10 10 2 13
BITMAP
1E00
7F80
7380
E1C0
C0C0
C0C0
E1C0
7380
7F80
1E00
ENDCHAR

STARTCHAR plusminus
ENCODING 177
SWIDTH 606 0
DWIDTH 20 0
BBX 17 17 2 0
BITMAP
01C000
01C000
01C000
01C000
01C000
FFFF80
FFFF80
FFFF80
01C000
01C000
01C000
01C000
01C000
000000
FFFF80
FFFF80
FFFF80
ENDCHAR

STARTCHAR twosuperior
ENCODING 178
SWIDTH 300 0
DWIDTH 10 0
BBX 10 14 1 9
BITMAP
0F00
3F80
23C0
61C0
01C0
0180
0380
0300
0600
0C00
1800
3000
7FC0
FF80
ENDCHAR

STARTCHAR threesuperior
ENCODING 179
SWIDTH 300 0
DWIDTH 10 0
BBX 10 14 1 9
BITMAP
0F00
3F80
31C0
01C0
0380
0700
1E00
0300
0380
8380
8380
8380
C700
7C00
ENDCHAR

STARTCHAR acute
ENCODING 180
SWIDTH 333 0
DWIDTH 11 0
BBX 6 5 2 17
BITMAP
0C
1C
3C
70
C0
ENDCHAR

STARTCHAR mu
ENCODING 181
SWIDTH 556 0
DWIDTH 18 0
BBX 18 23 -1 -7
BITMAP
0300C0
0F83C0
3F8780
7F0780
0F0780
0F0700
0F0F00
0E1F00
0E1F00
1E3E00
1E6E00
1CEE00
1DDEC0
3F9F80
3E1E00
381800
380000
700000
700000
700000
700000
F00000
C00000
ENDCHAR

STARTCHAR paragraph
ENCODING 182
SWIDTH 556 0
DWIDTH 19 0
BBX 21 30 0 -7
BITMAP
1FFFF8
7E3FC0
7C3980
F83180
F87380
F87380
F87380
F87300
F87300
786700
786700
3CE700
1CE700
0FE600
03C600
00CE00
01CE00
01CE00
01CE00
01CC00
018C00
019C00
039C00
039C00
039800
039800
031800
073800
073C00
3FFF00
ENDCHAR

STARTCHAR periodcentered
ENCODING 183
SWIDTH 250 0
DWIDTH 8 0
BBX 5 4 2 7
BITMAP
70
F8
F8
70
ENDCHAR

STARTCHAR cedilla
ENCODING 184
SWIDTH 333 0
DWIDTH 11 0
BBX 8 7 0 -7
BITMAP
08
18
3E
07
07
CE
7C
ENDCHAR

STARTCHAR onesuperior
ENCODING 185
SWIDTH 300 0
DWIDTH 10 0
BBX 8 14 2 9
BITMAP
03
1F
7E
CE
0E
0E
0E
0C
1C
1C
1C
1C
38
FF
ENDCHAR

STARTCHAR ordmasculine
ENCODING 186
SWIDTH 333 0
DWIDTH 11 0
BBX 10 14 2 10
BITMAP
1F00
3B80
61C0
E1C0
E1C0
C180
C180
E300
E600
7C00
0000
0000
FE00
FE00
ENDCHAR

STARTCHAR guillemotright
ENCODING 187
SWIDTH 500 0
DWIDTH 17 0
BBX 15 12 1 2
BITMAP
2040
3060
3870
1C38
0E1C
0F1E
1E3C
1C38
3870
3060
60C0
C180
ENDCHAR

STARTCHAR onequarter
ENCODING 188
SWIDTH 750 0
DWIDTH 25 0
BBX 23 23 1 0
BITMAP
020010
1E0030
7E0060
CE0060
0E00C0
0E01C0
0C0180
1C0300
1C0700
1C0604
1C0C3C
181C7C
38187C
FF30D8
007198
006338
00C338
00C638
018FFE
030030
030070
060070
0601FC
ENDCHAR

STARTCHAR onehalf
ENCODING 189
SWIDTH 750 0
DWIDTH 25 0
BBX 24 23 0 0
BITMAP
030018
1F0018
7F0030
460070
0E0060
0E00C0
0E01C0
0E0180
0C0300
1C033C
1C067E
1C0ECF
1C0D87
FF1807
003807
003006
00600C
00E018
00C030
018060
0380C0
0301FF
0203FF
ENDCHAR

STARTCHAR threequarters
ENCODING 190
SWIDTH 750 0
DWIDTH 25 0
BBX 24 23 0 0
BITMAP
0F0018
3F8038
31C030
01C060
018060
0300C0
1F0180
038180
01C300
41C70E
41C61E
438C3E
E71C7E
3E186E
0030CC
00718C
00619C
00C31C
00C3FF
018018
030018
030038
0600FE
ENDCHAR

STARTCHAR questiondown
ENCODING 191
SWIDTH 444 0
DWIDTH 14 0
BBX 11 24 0 -8
BITMAP
00C0
01E0
01E0
00C0
0000
0000
0000
0180
0080
0180
0180
0380
0F00
1E00
3C00
7800
F800
F000
F020
F020
F860
7FC0
7FC0
1F00
ENDCHAR

STARTCHAR Agrave
ENCODING 192
SWIDTH 722 0
DWIDTH 24 0
BBX 24 25 -1 0
BITMAP
001800
001C00
001E00
000700
000180
000000
000780
000780
000F80
000FC0
001BC0
0033C0
0033C0
0061E0
00C1E0
00C1E0
0181E0
03FFF0
0300F0
0600F0
0C0078
0C0078
180078
3800FC
FF03FF
ENDCHAR

STARTCHAR Aacute
ENCODING 193
SWIDTH 722 0
DWIDTH 24 0
BBX 24 25 -1 0
BITMAP
0000C0
0001C0
0003C0
000700
000C00
000000
000780
000780
000F80
000FC0
001BC0
0033C0
0033C0
0061E0
00C1E0
00C1E0
0181E0
03FFF0
0300F0
0600F0
0C0078
0C0078
180078
3800FC
FF03FF
ENDCHAR

STARTCHAR Acircumflex
ENCODING 194
SWIDTH 722 0
DWIDTH 24 0
BBX 24 25 -1 0
BITMAP
000180
000380
0006C0
000C40
001860
000000
000780
000780
000F80
000FC0
001BC0
0033C0
0033C0
0061E0
00C1E0
00C1E0
0181E0
03FFF0
0300F0
0600F0
0C0078
0C0078
180078
3800FC
FF03FF
ENDCHAR

STARTCHAR Atilde
ENCODING 195
SWIDTH 722 0
DWIDTH 24 0
BBX 24 23 -1 0
BITMAP
000E30
001FE0
0031C0
000000
000780
000780
000F80
000FC0
001BC0
0033C0
0033C0
0061E0
00C1E0
00C1E0
0181E0
03FFF0
0300F0
0600F0
0C0078
0C0078
180078
3800FC
FF03FF
ENDCHAR

STARTCHAR Adieresis
ENCODING 196
SWIDTH 722 0
DWIDTH 24 0
BBX 24 24 -1 0
BITMAP
003060
0078F0
0078F0
003060
000000
000780
000780
000F80
000FC0
001BC0
0033C0
0033C0
0061E0
00C1E0
00C1E0
0181E0
03FFF0
0300F0
0600F0
0C0078
0C0078
180078
3800FC
FF03FF
ENDCHAR

STARTCHAR Aring
ENCODING 197
SWIDTH 722 0
DWIDTH 24 0
BBX 24 25 -1 0
BITMAP
0007C0
000C60
000C60
000C60
0007C0
000000
000780
000780
000F80
000FC0
001BC0
0033C0
0033C0
0061E0
00C1E0
00C1E0
0181E0
03FFF0
0300F0
0600F0
0C0078
0C0078
180078
3800FC
FF03FF
ENDCHAR

STARTCHAR AE
ENCODING 198
SWIDTH 944 0
DWIDTH 31 0
BBX 32 23 -1 0
BITMAP
001FFFFF
0003FFFF
0003BC03
00033C02
00063C02
00063C00
000C7C00
00187C00
00187800
00307800
00607FF8
00607FF0
00C0F800
01FFF800
0180F000
0300F000
0700F000
0600F004
0C01F004
1C01E00C
3801E00C
7C03FFF8
FF07FFF8
ENDCHAR

STARTCHAR Ccedilla
ENCODING 199
SWIDTH 685 0
DWIDTH 21 0
BBX 21 30 0 -7
BITMAP
001FE0
00FFF8
03E0F8
078018
0F0018
1E0010
3C0010
3C0000
7C0000
780000
780000
F80000
F80000
F80000
F80000
F80000
F80000
780000
7C0020
7E0060
3F83C0
1FFF00
07FC00
002000
006000
00F800
001C00
001C00
033800
01F000
ENDCHAR

STARTCHAR Egrave
ENCODING 200
SWIDTH 611 0
DWIDTH 20 0
BBX 20 25 0 0
BITMAP
006000
007000
007800
001C00
000600
000000
1FFFF0
07FFF0
03C030
03C020
07C020
078000
078000
078000
0FFF00
0FFF00
0F0000
0F0000
0F0000
1E0040
1E0040
1E00C0
1E00C0
3FFF80
FFFF80
ENDCHAR

STARTCHAR Eacute
ENCODING 201
SWIDTH 611 0
DWIDTH 20 0
BBX 20 25 0 0
BITMAP
000300
000700
000F00
001C00
003000
000000
1FFFF0
07FFF0
03C030
03C020
07C020
078000
078000
078000
0FFF00
0FFF00
0F0000
0F0000
0F0000
1E0040
1E0040
1E00C0
1E00C0
3FFF80
FFFF80
ENDCHAR

STARTCHAR Ecircumflex
ENCODING 202
SWIDTH 611 0
DWIDTH 20 0
BBX 20 25 0 0
BITMAP
000C00
001C00
003600
006200
00C300
000000
1FFFF0
07FFF0
03C030
03C020
07C020
078000
078000
078000
0FFF00
0FFF00
0F0000
0F0000
0F0000
1E0040
1E0040
1E00C0
1E00C0
3FFF80
FFFF80
ENDCHAR

STARTCHAR Edieresis
ENCODING 203
SWIDTH 611 0
DWIDTH 20 0
BBX 20 24 0 0
BITMAP
00C180
01E3C0
01E3C0
00C180
000000
1FFFF0
07FFF0
03C030
03C020
07C020
078000
078000
078000
0FFF00
0FFF00
0F0000
0F0000
0F0000
1E0040
1E0040
1E00C0
1E00C0
3FFF80
FFFF80
ENDCHAR

STARTCHAR Igrave
ENCODING 204
SWIDTH 389 0
DWIDTH 13 0
BBX 14 25 -1 0
BITMAP
0300
0380
03C0
00E0
0030
0000
0FFC
03F0
03E0
03E0
03E0
07C0
07C0
07C0
07C0
07C0
0F80
0F80
0F80
0F80
1F00
1F00
1F00
3F00
FFC0
ENDCHAR

STARTCHAR Iacute
ENCODING 205
SWIDTH 389 0
DWIDTH 13 0
BBX 14 25 -1 0
BITMAP
0018
0038
0078
00E0
0180
0000
0FFC
03F0
03E0
03E0
03E0
07C0
07C0
07C0
07C0
07C0
0F80
0F80
0F80
0F80
1F00
1F00
1F00
3F00
FFC0
ENDCHAR

STARTCHAR Icircumflex
ENCODING 206
SWIDTH 389 0
DWIDTH 13 0
BBX 14 25 -1 0
BITMAP
0030
0070
00D8
0188
030C
0000
0FFC
03F0
03E0
03E0
03E0
07C0
07C0
07C0
07C0
07C0
0F80
0F80
0F80
0F80
1F00
1F00
1F00
3F00
FFC0
ENDCHAR

STARTCHAR Idieresis
ENCODING 207
SWIDTH 389 0
DWIDTH 13 0
BBX 15 24 -1 0
BITMAP
060C
0F1E
0F1E
060C
0000
0FFC
03F0
03E0
03E0
03E0
07C0
07C0
07C0
07C0
07C0
0F80
0F80
0F80
0F80
1F00
1F00
1F00
3F00
FFC0
ENDCHAR

STARTCHAR Eth
ENCODING 208
SWIDTH 778 0
DWIDTH 26 0
BBX 25 23 0 0
BITMAP
1FFFF000
07FFFC00
03C07E00
03C01E00
07C01F00
07C00F00
07800F00
07800F80
07800F80
07800F80
7FF00F80
7FF00F00
0F000F00
0F001F00
0F001F00
0F001E00
1F003E00
1F003C00
1E007800
1E00F000
1E01E000
3FFFC000
FFFE0000
ENDCHAR

STARTCHAR Ntilde
ENCODING 209
SWIDTH 778 0
DWIDTH 26 0
BBX 28 23 -1 0
BITMAP
00038C00
0007F800
000C7000
00000000
1FF00FF0
03F803C0
01F80180
03FC0180
037E0300
037E0300
033F0300
061F8300
061F8600
060FC600
0607E600
0C07E600
0C03FC00
0C01FC00
0C01FC00
1800FC00
18007800
3C007800
FF003800
ENDCHAR

STARTCHAR Ograve
ENCODING 210
SWIDTH 833 0
DWIDTH 26 0
BBX 25 25 0 0
BITMAP
00180000
001C0000
001E0000
00070000
00018000
00000000
003FE000
01FFF800
07C03E00
0F001F00
1E001F00
3C000F80
7C000F80
7C000F80
F8000F80
F8000F80
F8000F80
F8001F00
F8001F00
F8001E00
7C003C00
7C007800
3E01F000
0FFFC000
03FE0000
ENDCHAR

STARTCHAR Oacute
ENCODING 211
SWIDTH 833 0
DWIDTH 26 0
BBX 25 25 0 0
BITMAP
0000C000
0001C000
0003C000
00070000
000C0000
00000000
003FE000
01FFF800
07C03E00
0F001F00
1E001F00
3C000F80
7C000F80
7C000F80
F8000F80
F8000F80
F8000F80
F8001F00
F8001F00
F8001E00
7C003C00
7C007800
3E01F000
0FFFC000
03FE0000
ENDCHAR

STARTCHAR Ocircumflex
ENCODING 212
SWIDTH 833 0
DWIDTH 26 0
BBX 25 25 0 0
BITMAP
00030000
00070000
000D8000
00188000
0030C000
00000000
003FE000
01FFF800
07C03E00
0F001F00
1E001F00
3C000F80
7C000F80
7C000F80
F8000F80
F8000F80
F8000F80
F8001F00
F8001F00
F8001E00
7C003C00
7C007800
3E01F000
0FFFC000
03FE0000
ENDCHAR

STARTCHAR Otilde
ENCODING 213
SWIDTH 833 0
DWIDTH 26 0
BBX 25 23 0 0
BITMAP
001C6000
003FC000
00638000
00000000
003FE000
01FFF800
07C03E00
0F001F00
1E001F00
3C000F80
7C000F80
7C000F80
F8000F80
F8000F80
F8000F80
F8001F00
F8001F00
F8001E00
7C003C00
7C007800
3E01F000
0FFFC000
03FE0000
ENDCHAR

STARTCHAR Odieresis
ENCODING 214
SWIDTH 833 0
DWIDTH 26 0
BBX 25 24 0 0
BITMAP
00306000
0078F000
0078F000
00306000
00000000
003FE000
01FFF800
07C03E00
0F001F00
1E001F00
3C000F80
7C000F80
7C000F80
F8000F80
F8000F80
F8000F80
F8001F00
F8001F00
F8001E00
7C003C00
7C007800
3E01F000
0FFFC000
03FE0000
ENDCHAR

STARTCHAR multiply
ENCODING 215
SWIDTH 606 0
DWIDTH 20 0
BBX 15 15 3 1
BITMAP
600C
F01E
F83E
7C7C
3EF8
1FF0
0FE0
07C0
0FE0
1FF0
3EF8
7C7C
F83E
F01E
600C
ENDCHAR

STARTCHAR Oslash
ENCODING 216
SWIDTH 833 0
DWIDTH 26 0
BBX 25 25 0 -1
BITMAP
00000100
001FC380
00FFF700
03E07E00
07803E00
0F003F00
1E007F00
3E00EF00
3E01CF80
7C038F80
7C070F80
7C0E0F80
F81C0F80
F8380F00
F8701F00
F8E01F00
F9C01E00
FB803E00
7F003C00
7E007800
7C00F000
3E01E000
7FFFC000
E3FE0000
C0000000
ENDCHAR

STARTCHAR Ugrave
ENCODING 217
SWIDTH 778 0
DWIDTH 26 0
BBX 24 25 1 0
BITMAP
00C000
00E000
00F000
003800
000C00
000000
FF07FF
1F00FC
1F00F8
1F00F8
3E00F8
3E01F0
3E01F0
3E01F0
7C01F0
7C01E0
7C03E0
7C03E0
F803E0
F807E0
F80FC0
FC1FC0
7FF7C0
7FE7C0
1F87F8
ENDCHAR

STARTCHAR Uacute
ENCODING 218
SWIDTH 778 0
DWIDTH 26 0
BBX 24 25 1 0
BITMAP
000600
000E00
001E00
003800
006000
000000
FF07FF
1F00FC
1F00F8
1F00F8
3E00F8
3E01F0
3E01F0
3E01F0
7C01F0
7C01E0
7C03E0
7C03E0
F803E0
F807E0
F80FC0
FC1FC0
7FF7C0
7FE7C0
1F87F8
ENDCHAR

STARTCHAR Ucircumflex
ENCODING 219
SWIDTH 778 0
DWIDTH 26 0
BBX 24 25 1 0
BITMAP
000600
000E00
001B00
003100
006180
000000
FF07FF
1F00FC
1F00F8
1F00F8
3E00F8
3E01F0
3E01F0
3E01F0
7C01F0
7C01E0
7C03E0
7C03E0
F803E0
F807E0
F80FC0
FC1FC0
7FF7C0
7FE7C0
1F87F8
ENDCHAR

STARTCHAR Udieresis
ENCODING 220
SWIDTH 778 0
DWIDTH 26 0
BBX 24 24 1 0
BITMAP
00C180
01E3C0
01E3C0
00C180
000000
FF07FF
1F00FC
1F00F8
1F00F8
3E00F8
3E01F0
3E01F0
3E01F0
7C01F0
7C01E0
7C03E0
7C03E0
F803E0
F807E0
F80FC0
FC1FC0
7FF7C0
7FE7C0
1F87F8
ENDCHAR

STARTCHAR Yacute
ENCODING 221
SWIDTH 611 0
DWIDTH 20 0
BBX 21 25 0 0
BITMAP
000600
000E00
001E00
003800
006000
000000
3C0018
7E0078
FE00F8
9F01C0
0F0380
0F8700
078E00
079C00
07F800
03F000
03E000
03C000
03C000
03C000
078000
078000
078000
0FC000
3FF000
ENDCHAR

STARTCHAR Thorn
ENCODING 222
SWIDTH 667 0
DWIDTH 21 0
BBX 20 23 0 0
BITMAP
1FF800
03E000
03C000
03C000
03C000
03FFC0
07C7E0
07C1F0
0781F0
0780F0
0780F0
0780F0
0F80F0
0F01F0
0F01E0
0F03C0
0FC780
1F7F00
1F0000
1F0000
1E0000
3F0000
FFC000
ENDCHAR

STARTCHAR germandbls
ENCODING 223
SWIDTH 556 0
DWIDTH 18 0
BBX 20 33 -3 -9
BITMAP
0007C0
000FE0
0038F0
0070F0
00E070
00E070
01E0E0
01E0C0
01E180
07C300
1FC300
03C700
03C700
03C780
03C7C0
0383E0
0783E0
0781E0
0781E0
0780E0
0720E0
0760C0
077380
0F3F00
0E0000
0E0000
0E0000
0C0000
0C0000
180000
D80000
F00000
E00000
ENDCHAR

STARTCHAR agrave
ENCODING 224
SWIDTH 556 0
DWIDTH 17 0
BBX 16 22 0 0
BITMAP
0180
01C0
01E0
0070
0018
0000
00F3
03FE
061E
1C1E
3C1E
383C
783C
787C
787C
70F8
F1B8
F1B8
F37B
FE7F
FC7C
7078
ENDCHAR

STARTCHAR aacute
ENCODING 225
SWIDTH 556 0
DWIDTH 17 0
BBX 16 22 0 0
BITMAP
0006
000E
001E
0038
0060
0000
00F3
03FE
061E
1C1E
3C1E
383C
783C
787C
787C
70F8
F1B8
F1B8
F37B
FE7F
FC7C
7078
ENDCHAR

STARTCHAR acircumflex
ENCODING 226
SWIDTH 556 0
DWIDTH 17 0
BBX 16 22 0 0
BITMAP
0018
0038
006C
00C4
0186
0000
00F3
03FE
061E
1C1E
3C1E
383C
783C
787C
787C
70F8
F1B8
F1B8
F37B
FE7F
FC7C
7078
ENDCHAR

STARTCHAR atilde
ENCODING 227
SWIDTH 556 0
DWIDTH 17 0
BBX 16 20 0 0
BITMAP
00E3
01FE
031C
0000
00F3
03FE
061E
1C1E
3C1E
383C
783C
787C
787C
70F8
F1B8
F1B8
F37B
FE7F
FC7C
7078
ENDCHAR

STARTCHAR adieresis
ENCODING 228
SWIDTH 556 0
DWIDTH 17 0
BBX 16 21 0 0
BITMAP
0306
078F
078F
0306
0000
00F3
03FE
061E
1C1E
3C1E
383C
783C
787C
787C
70F8
F1B8
F1B8
F37B
FE7F
FC7C
7078
ENDCHAR

STARTCHAR aring
ENCODING 229
SWIDTH 556 0
DWIDTH 17 0
BBX 16 22 0 0
BITMAP
00F8
018C
018C
018C
00F8
0000
00F3
03FE
061E
1C1E
3C1E
383C
783C
787C
787C
70F8
F1B8
F1B8
F37B
FE7F
FC7C
7078
ENDCHAR

STARTCHAR ae
ENCODING 230
SWIDTH 738 0
DWIDTH 23 0
BBX 22 16 0 0
BITMAP
0FC0F8
3FE3FC
31E61C
207E1C
007C3C
007C38
0078F0
07FF80
3E7800
707800
F07800
E0F800
F0F818
F3FCF0
FE7FC0
7C3F00
ENDCHAR

STARTCHAR ccedilla
ENCODING 231
SWIDTH 444 0
DWIDTH 15 0
BBX 14 23 0 -7
BITMAP
00FC
03FC
0E1C
1C0C
3808
7808
7800
7800
F000
F000
F000
F000
F818
FC70
7FC0
3F00
0100
0300
07C0
00E0
00E0
19C0
0F80
ENDCHAR

STARTCHAR egrave
ENCODING 232
SWIDTH 444 0
DWIDTH 14 0
BBX 13 22 0 0
BITMAP
0600
0700
0780
01C0
0060
0000
00F0
03F8
0E38
1C38
3C38
3870
78E0
73C0
7F00
F000
F000
F000
F030
F8E0
7F80
3E00
ENDCHAR

STARTCHAR eacute
ENCODING 233
SWIDTH 444 0
DWIDTH 14 0
BBX 13 22 0 0
BITMAP
0018
0038
0078
00E0
0180
0000
00F0
03F8
0E38
1C38
3C38
3870
78E0
73C0
7F00
F000
F000
F000
F030
F8E0
7F80
3E00
ENDCHAR

STARTCHAR ecircumflex
ENCODING 234
SWIDTH 444 0
DWIDTH 14 0
BBX 13 22 0 0
BITMAP
0060
00E0
01B0
0310
0618
0000
00F0
03F8
0E38
1C38
3C38
3870
78E0
73C0
7F00
F000
F000
F000
F030
F8E0
7F80
3E00
ENDCHAR

STARTCHAR edieresis
ENCODING 235
SWIDTH 444 0
DWIDTH 14 0
BBX 14 21 0 0
BITMAP
0C18
1E3C
1E3C
0C18
0000
00F0
03F8
0E38
1C38
3C38
3870
78E0
73C0
7F00
F000
F000
F000
F030
F8E0
7F80
3E00
ENDCHAR

STARTCHAR igrave
ENCODING 236
SWIDTH 333 0
DWIDTH 11 0
BBX 8 22 1 0
BITMAP
30
38
3C
0E
03
00
06
1E
3E
FE
9E
1E
1C
3C
3C
3C
38
78
7B
7F
7C
70
ENDCHAR

STARTCHAR iacute
ENCODING 237
SWIDTH 333 0
DWIDTH 11 0
BBX 10 22 1 0
BITMAP
00C0
01C0
03C0
0700
0C00
0000
0600
1E00
3E00
FE00
9E00
1E00
1C00
3C00
3C00
3C00
3800
7800
7B00
7F00
7C00
7000
ENDCHAR

STARTCHAR icircumflex
ENCODING 238
SWIDTH 333 0
DWIDTH 11 0
BBX 10 22 1 0
BITMAP
0300
0700
0D80
1880
30C0
0000
0600
1E00
3E00
FE00
9E00
1E00
1C00
3C00
3C00
3C00
3800
7800
7B00
7F00
7C00
7000
ENDCHAR

STARTCHAR idieresis
ENCODING 239
SWIDTH 333 0
DWIDTH 11 0
BBX 11 21 1 0
BITMAP
60C0
F1E0
F1E0
60C0
0000
0600
1E00
3E00
FE00
9E00
1E00
1C00
3C00
3C00
3C00
3800
7800
7B00
7F00
7C00
7000
ENDCHAR

STARTCHAR eth
ENCODING 240
SWIDTH 556 0
DWIDTH 18 0
BBX 15 25 1 0
BITMAP
0006
1FCE
18FC
00F8
03FC
033C
003C
003C
003C
03FC
0E7E
1C3E
381E
781E
F81E
F81E
F81E
F03E
F03C
F03C
F03C
F078
F070
7DE0
3F80
ENDCHAR

STARTCHAR ntilde
ENCODING 241
SWIDTH 556 0
DWIDTH 17 0
BBX 16 20 0 0
BITMAP
01C6
03FC
0638
0000
0606
1E1E
3E3E
FCFE
9DDE
1F9E
1F1C
3E1C
3C3C
3C3C
3838
7838
787B
707F
F07C
E070
ENDCHAR

STARTCHAR ograve
ENCODING 242
SWIDTH 556 0
DWIDTH 18 0
BBX 15 22 1 0
BITMAP
0C00
0E00
0F00
0380
00C0
0000
03F8
0F7C
1C3E
3C1E
381E
781E
781E
701E
F01C
F03C
F03C
F038
F078
F870
7DE0
3F80
ENDCHAR

STARTCHAR oacute
ENCODING 243
SWIDTH 556 0
DWIDTH 18 0
BBX 15 22 1 0
BITMAP
000C
001C
003C
0070
00C0
0000
03F8
0F7C
1C3E
3C1E
381E
781E
781E
701E
F01C
F03C
F03C
F038
F078
F870
7DE0
3F80
ENDCHAR

STARTCHAR ocircumflex
ENCODING 244
SWIDTH 556 0
DWIDTH 18 0
BBX 15 22 1 0
BITMAP
0030
0070
00D8
0188
030C
0000
03F8
0F7C
1C3E
3C1E
381E
781E
781E
701E
F01C
F03C
F03C
F038
F078
F870
7DE0
3F80
ENDCHAR

STARTCHAR otilde
ENCODING 245
SWIDTH 556 0
DWIDTH 18 0
BBX 15 20 1 0
BITMAP
038C
07F8
0C70
0000
03F8
0F7C
1C3E
3C1E
381E
781E
781E
701E
F01C
F03C
F03C
F038
F078
F870
7DE0
3F80
ENDCHAR

STARTCHAR odieresis
ENCODING 246
SWIDTH 556 0
DWIDTH 18 0
BBX 15 21 1 0
BITMAP
060C
0F1E
0F1E
060C
0000
03F8
0F7C
1C3E
3C1E
381E
781E
781E
701E
F01C
F03C
F03C
F038
F078
F870
7DE0
3F80
ENDCHAR

STARTCHAR divide
ENCODING 247
SWIDTH 606 0
DWIDTH 20 0
BBX 16 17 2 0
BITMAP
0180
03C0
03C0
0180
0000
0000
0000
FFFF
FFFF
FFFF
0000
0000
0000
0180
03C0
03C0
0180
ENDCHAR

STARTCHAR oslash
ENCODING 248
SWIDTH 556 0
DWIDTH 18 0
BBX 16 18 0 -1
BITMAP
0003
01FE
07BE
0E1E
1C1F
1C3F
3C6F
3CCF
398F
790E
7B1E
7E1E
7C1C
7838
3C70
7FE0
CF00
8000
ENDCHAR

STARTCHAR ugrave
ENCODING 249
SWIDTH 556 0
DWIDTH 17 0
BBX 16 22 0 0
BITMAP
0600
0700
0780
01C0
0060
0000
0E07
3E0F
7E0E
DE1E
1E1E
1C1E
1C3C
1C3C
3C7C
38FC
38F8
39B8
7B3B
7E7F
7C7C
7870
ENDCHAR

STARTCHAR uacute
ENCODING 250
SWIDTH 556 0
DWIDTH 17 0
BBX 16 22 0 0
BITMAP
000C
001C
003C
0070
00C0
0000
0E07
3E0F
7E0E
DE1E
1E1E
1C1E
1C3C
1C3C
3C7C
38FC
38F8
39B8
7B3B
7E7F
7C7C
7870
ENDCHAR

STARTCHAR ucircumflex
ENCODING 251
SWIDTH 556 0
DWIDTH 17 0
BBX 16 22 0 0
BITMAP
0030
0070
00D8
0188
030C
0000
0E07
3E0F
7E0E
DE1E
1E1E
1C1E
1C3C
1C3C
3C7C
38FC
38F8
39B8
7B3B
7E7F
7C7C
7870
ENDCHAR

STARTCHAR udieresis
ENCODING 252
SWIDTH 556 0
DWIDTH 17 0
BBX 16 21 0 0
BITMAP
060C
0F1E
0F1E
060C
0000
0E07
3E0F
7E0E
DE1E
1E1E
1C1E
1C3C
1C3C
3C7C
38FC
38F8
39B8
7B3B
7E7F
7C7C
7870
ENDCHAR

STARTCHAR yacute
ENCODING 253
SWIDTH 556 0
DWIDTH 18 0
BBX 17 31 0 -9
BITMAP
001800
003800
007800
00E000
018000
000000
060080
1E0780
3E0780
FE0F00
9E0F00
1E0F00
1E1E00
1E1E00
1E1E00
1C3C00
1C7C00
1CFC00
1DFC00
1FB800
1E3800
1C7800
007000
007000
006000
00E000
00C000
E1C000
E18000
F70000
7C0000
ENDCHAR

STARTCHAR thorn
ENCODING 254
SWIDTH 556 0
DWIDTH 17 0
BBX 18 32 -2 -8
BITMAP
006000
01E000
07E000
0DC000
01C000
01C000
03C000
038000
038380
038FC0
079FC0
0773C0
0763C0
07C3C0
0F83C0
0F8380
0F0780
0E0780
1E0700
1E0F00
1C0E00
1E1800
3FF000
3FC000
3C0000
380000
780000
780000
780000
780000
F00000
F00000
ENDCHAR

STARTCHAR ydieresis
ENCODING 255
SWIDTH 556 0
DWIDTH 18 0
BBX 17 30 0 -9
BITMAP
030600
078F00
078F00
030600
000000
060080
1E0780
3E0780
FE0F00
9E0F00
1E0F00
1E1E00
1E1E00
1E1E00
1C3C00
1C7C00
1CFC00
1DFC00
1FB800
1E3800
1C7800
007000
007000
006000
00E000
00C000
E1C000
E18000
F70000
7C0000
ENDCHAR

ENDFONT
