STARTFONT 2.1
FONT -Adobe-ITC Lubalin Graph-Demi-R-Normal--33-240-100-100-P-184-ISO8859-1
SIZE 24 100 100
FONTBOUNDINGBOX 43 37 -5 -7

STARTPROPERTIES 25
FONTNAME_REGISTRY ""
FAMILY_NAME "ITC Lubalin Graph"
FOUNDRY "Adobe"
WEIGHT_NAME "Demi"
SLANT "R"
SETWIDTH_NAME "Normal"
ADD_STYLE_NAME ""
PIXEL_SIZE 33
POINT_SIZE 240
RESOLUTION_X 100
RESOLUTION_Y 100
SPACING "P"
AVERAGE_WIDTH 184
CHARSET_REGISTRY "ISO8859"
CHARSET_ENCODING "1"
CHARSET_COLLECTIONS "ASCII ISO8859-1 ADOBE-STANDARD"
FULL_NAME "ITC Lubalin Graph Demi"
COPYRIGHT "Copyright (c) 1987 Adobe Systems, Inc., Portions Copyright 1988 Digital Equipment Corp."
CAP_HEIGHT 23
X_HEIGHT 18
WEIGHT 10
QUAD_WIDTH 19
DEFAULT_CHAR 32
FONT_DESCENT 7
FONT_ASCENT 27
ENDPROPERTIES

CHARS 190

STARTCHAR space
ENCODING 32
SWIDTH 300 0
DWIDTH 10 0
BBX 1 1 0 0
BITMAP
00
ENDCHAR

STARTCHAR exclam
ENCODING 33
SWIDTH 200 0
DWIDTH 6 0
BBX 4 23 1 0
BITMAP
F0
F0
F0
F0
F0
F0
F0
F0
F0
F0
F0
F0
F0
F0
F0
F0
00
00
F0
F0
F0
F0
F0
ENDCHAR

STARTCHAR quotedbl
ENCODING 34
SWIDTH 400 0
DWIDTH 13 0
BBX 10 9 1 14
BITMAP
F3C0
F3C0
F3C0
F3C0
6180
6180
6180
6180
6180
ENDCHAR

STARTCHAR numbersign
ENCODING 35
SWIDTH 660 0
DWIDTH 19 0
BBX 15 23 2 0
BITMAP
0318
0318
0318
0318
0630
0630
0630
7FFE
7FFE
0630
0630
0C60
0C60
FFFC
FFFC
18C0
18C0
18C0
18C0
3180
3180
3180
3180
ENDCHAR

STARTCHAR dollar
ENCODING 36
SWIDTH 580 0
DWIDTH 18 0
BBX 14 31 2 -4
BITMAP
0700
0700
0700
0700
0FB8
3FF8
7FF8
78F8
F078
F038
F000
F000
F800
FE00
7FC0
3FF0
0FF8
01F8
007C
003C
F03C
F03C
F03C
F878
FFF8
FFF0
EFE0
0780
0700
0700
0700
ENDCHAR

STARTCHAR percent
ENCODING 37
SWIDTH 860 0
DWIDTH 27 0
BBX 25 23 1 0
BITMAP
1F00E000
3F80C000
7FC1C000
F1E18000
E0E38000
E0E30000
E0E70000
F1E60000
7FCE0000
3F8E0000
1F1C0000
001C0000
00187C00
0038FE00
0031FF00
0073C780
00738380
00E38380
00E38380
01C3C780
01C1FF00
0380FE00
03807C00
ENDCHAR

STARTCHAR ampersand
ENCODING 38
SWIDTH 720 0
DWIDTH 23 0
BBX 20 23 1 0
BITMAP
07C000
0FF000
1FF000
1E7800
3C3800
3C3800
3C3800
1E7000
1FF000
0FE1F0
0FC1F0
1FE3F0
3FF3F0
7CFF80
787F80
F03F00
F01F00
F03F80
F83FC0
7FFFE0
3FF1E0
1FE0C0
078080
ENDCHAR

STARTCHAR quoteright
ENCODING 39
SWIDTH 200 0
DWIDTH 6 0
BBX 4 9 1 14
BITMAP
F0
F0
F0
F0
F0
30
30
F0
E0
ENDCHAR

STARTCHAR parenleft
ENCODING 40
SWIDTH 360 0
DWIDTH 12 0
BBX 9 27 1 -4
BITMAP
0080
0380
0780
0F80
1F80
3F00
3E00
7C00
7800
7800
F800
F000
F000
F000
F000
F000
F800
7800
7800
7C00
3E00
3F00
1F80
0F80
0780
0380
0080
ENDCHAR

STARTCHAR parenright
ENCODING 41
SWIDTH 360 0
DWIDTH 12 0
BBX 9 27 1 -4
BITMAP
8000
E000
F000
F800
FC00
7E00
3E00
1F00
0F00
0F00
0F80
0780
0780
0780
0780
0780
0F80
0F00
0F00
1F00
3E00
7E00
FC00
F800
F000
E000
8000
ENDCHAR

STARTCHAR asterisk
ENCODING 42
SWIDTH 360 0
DWIDTH 12 0
BBX 10 9 1 14
BITMAP
2200
7700
3E00
1EC0
FFC0
DE00
3F00
7380
2100
ENDCHAR

STARTCHAR plus
ENCODING 43
SWIDTH 660 0
DWIDTH 21 0
BBX 15 17 3 3
BITMAP
0380
0380
0380
0380
0380
0380
0380
FFFE
FFFE
FFFE
0380
0380
0380
0380
0380
0380
0380
ENDCHAR

STARTCHAR comma
ENCODING 44
SWIDTH 300 0
DWIDTH 9 0
BBX 4 9 3 -4
BITMAP
F0
F0
F0
F0
F0
30
30
F0
E0
ENDCHAR

STARTCHAR minus
ENCODING 45
SWIDTH 660 0
DWIDTH 21 0
BBX 15 3 3 10
BITMAP
FFFE
FFFE
FFFE
ENDCHAR

STARTCHAR period
ENCODING 46
SWIDTH 300 0
DWIDTH 9 0
BBX 4 5 3 0
BITMAP
F0
F0
F0
F0
F0
ENDCHAR

STARTCHAR slash
ENCODING 47
SWIDTH 580 0
DWIDTH 19 0
BBX 17 29 1 -6
BITMAP
000380
000700
000600
000E00
000C00
001C00
001800
003800
003000
007000
006000
00E000
00C000
01C000
01C000
018000
038000
030000
070000
060000
0E0000
0C0000
1C0000
180000
380000
300000
700000
600000
E00000
ENDCHAR

STARTCHAR zero
ENCODING 48
SWIDTH 580 0
DWIDTH 18 0
BBX 16 23 1 0
BITMAP
07E0
1FF8
3FFC
7FFE
7C3E
F81F
F00F
F00F
F00F
F00F
F00F
F00F
F00F
F00F
F00F
F00F
F00F
F81F
7C3E
7FFE
3FFC
1FF8
07E0
ENDCHAR

STARTCHAR one
ENCODING 49
SWIDTH 580 0
DWIDTH 18 0
BBX 10 23 4 0
BITMAP
FE00
FE00
FE00
FE00
1E00
1E00
1E00
1E00
1E00
1E00
1E00
1E00
1E00
1E00
1E00
1E00
1E00
1E00
1E00
FFC0
FFC0
FFC0
FFC0
ENDCHAR

STARTCHAR two
ENCODING 50
SWIDTH 580 0
DWIDTH 18 0
BBX 14 23 2 0
BITMAP
07C0
1FE0
3FF0
7FF8
7878
F03C
F03C
F03C
003C
007C
0078
00F0
01F0
03E0
07C0
0F80
1F00
3E3C
7C3C
FFFC
FFFC
FFFC
FFFC
ENDCHAR

STARTCHAR three
ENCODING 51
SWIDTH 580 0
DWIDTH 18 0
BBX 15 23 1 0
BITMAP
03C0
0FE0
1FF8
3FF8
3C7C
783C
003C
003C
0078
03F0
03F0
03F8
007C
003E
001E
001E
F01E
F01E
783C
7FFC
3FF8
1FF0
07C0
ENDCHAR

STARTCHAR four
ENCODING 52
SWIDTH 580 0
DWIDTH 18 0
BBX 17 23 0 0
BITMAP
007C00
00FC00
00FC00
01FC00
03FC00
03FC00
07BC00
0F3C00
0F3C00
1E3C00
3C3C00
3C3C00
783C00
F83C00
FFFF80
FFFF80
FFFF80
003C00
003C00
00FF00
00FF00
00FF00
00FF00
ENDCHAR

STARTCHAR five
ENCODING 53
SWIDTH 580 0
DWIDTH 18 0
BBX 16 23 1 0
BITMAP
1FFC
1FFC
1FFC
1FFC
3C00
3C00
3800
39E0
3BF8
7FFC
7FFE
7C3E
781F
000F
000F
000F
F00F
F81F
7C3E
7FFE
3FFC
1FF0
07E0
ENDCHAR

STARTCHAR six
ENCODING 54
SWIDTH 580 0
DWIDTH 18 0
BBX 16 23 1 0
BITMAP
01F0
01E0
03C0
03C0
0780
0F80
0F00
1F00
3FE0
3FF8
7FFC
7C3E
F81E
F00F
F00F
F00F
F00F
781E
7C3E
3FFC
1FF8
0FF0
03C0
ENDCHAR

STARTCHAR seven
ENCODING 55
SWIDTH 580 0
DWIDTH 18 0
BBX 15 23 2 0
BITMAP
FFFE
FFFE
FFFE
FFFC
F03C
F03C
F078
F078
00F0
00F0
00F0
01E0
01E0
03C0
03C0
0780
0780
0F80
0F00
1F00
1E00
3E00
3E00
ENDCHAR

STARTCHAR eight
ENCODING 56
SWIDTH 580 0
DWIDTH 18 0
BBX 15 23 1 0
BITMAP
0380
0FE0
1FF0
3FF8
7C7C
783C
783C
7838
3C78
1FF0
1FF0
3FF8
7C7C
F83E
F01E
F01E
F01E
F01E
783C
7FFC
3FF8
1FF0
07C0
ENDCHAR

STARTCHAR nine
ENCODING 57
SWIDTH 580 0
DWIDTH 18 0
BBX 16 23 1 0
BITMAP
03C0
0FF0
3FF8
3FFC
7C3E
781E
F00F
F00F
F00F
F00F
781F
7C3E
3FFE
3FFC
0FFC
03F8
00F8
01F0
01E0
03E0
07C0
0F80
1F80
ENDCHAR

STARTCHAR colon
ENCODING 58
SWIDTH 300 0
DWIDTH 9 0
BBX 4 17 3 0
BITMAP
F0
F0
F0
F0
F0
00
00
00
00
00
00
00
F0
F0
F0
F0
F0
ENDCHAR

STARTCHAR semicolon
ENCODING 59
SWIDTH 300 0
DWIDTH 9 0
BBX 4 21 3 -4
BITMAP
F0
F0
F0
F0
F0
00
00
00
00
00
00
00
F0
F0
F0
F0
F0
30
30
F0
E0
ENDCHAR

STARTCHAR less
ENCODING 60
SWIDTH 660 0
DWIDTH 21 0
BBX 16 19 2 2
BITMAP
0001
0007
001F
007E
01F8
07E0
1F80
7E00
F800
E000
F800
7E00
1F80
07E0
01F8
007E
001F
0007
0001
ENDCHAR

STARTCHAR equal
ENCODING 61
SWIDTH 660 0
DWIDTH 21 0
BBX 15 8 3 7
BITMAP
FFFE
FFFE
FFFE
0000
0000
FFFE
FFFE
FFFE
ENDCHAR

STARTCHAR greater
ENCODING 62
SWIDTH 660 0
DWIDTH 21 0
BBX 16 19 2 2
BITMAP
8000
E000
F800
7E00
1F80
07E0
01F8
007E
001F
0007
001F
007E
01F8
07E0
1F80
7E00
F800
E000
8000
ENDCHAR

STARTCHAR question
ENCODING 63
SWIDTH 540 0
DWIDTH 17 0
BBX 15 23 1 0
BITMAP
07C0
1FF0
3FF8
7FFC
787C
F03E
F01E
F01E
003E
003C
007C
00F8
01F0
03E0
03C0
0780
0000
0000
0780
0780
0780
0780
0780
ENDCHAR

STARTCHAR at
ENCODING 64
SWIDTH 880 0
DWIDTH 28 0
BBX 23 23 2 0
BITMAP
007F00
01FFC0
0700F0
0C0038
180018
301C0C
607EC4
60E3C6
41C1C6
C18186
C38186
C30386
C30304
C3030C
C3070C
638F18
61FFF0
30F1C0
380000
1C0018
070070
03FFE0
007F00
ENDCHAR

STARTCHAR A
ENCODING 65
SWIDTH 780 0
DWIDTH 25 0
BBX 24 23 0 0
BITMAP
03FC00
03FC00
03FE00
03FE00
007F00
00FF00
00E700
01E780
01E780
01C3C0
03C3C0
0383E0
0781E0
07FFE0
0FFFF0
0FFFF0
0F00F8
1E00F8
1E0078
FE007F
FF81FF
FF81FF
FF81FF
ENDCHAR

STARTCHAR B
ENCODING 66
SWIDTH 600 0
DWIDTH 19 0
BBX 17 23 1 0
BITMAP
FFF000
FFFC00
FFFE00
FFFF00
3C1F00
3C0F00
3C0F00
3C0F00
3C1E00
3FFE00
3FFC00
3FFE00
3FFF00
3C0F00
3C0780
3C0780
3C0780
3C0780
3C0F80
FFFF00
FFFF00
FFFE00
FFF800
ENDCHAR

STARTCHAR C
ENCODING 67
SWIDTH 760 0
DWIDTH 24 0
BBX 22 23 1 0
BITMAP
00FC38
03FF38
0FFFF8
1FFFF8
3F83F8
3E00F8
7C0078
780000
F00000
F00000
F00000
F00000
F00000
F00000
F80000
78003C
7C007C
3F00F8
1F83F0
0FFFE0
07FFC0
03FF00
007C00
ENDCHAR

STARTCHAR D
ENCODING 68
SWIDTH 740 0
DWIDTH 23 0
BBX 22 23 0 0
BITMAP
FFFE00
FFFF80
FFFFC0
FFFFE0
1E03F0
1E00F8
1E0078
1E0078
1E007C
1E003C
1E003C
1E003C
1E003C
1E003C
1E007C
1E0078
1E00F8
1E00F8
1E03F0
FFFFE0
FFFFC0
FFFF80
FFFE00
ENDCHAR

STARTCHAR E
ENCODING 69
SWIDTH 580 0
DWIDTH 18 0
BBX 16 23 1 0
BITMAP
FFFF
FFFF
FFFF
FFFF
3C0F
3C0F
3C0F
3C00
3C00
3C00
3FF8
3FF8
3FF8
3C00
3C00
3C00
3C0F
3C0F
3C0F
FFFF
FFFF
FFFF
FFFF
ENDCHAR

STARTCHAR F
ENCODING 70
SWIDTH 580 0
DWIDTH 18 0
BBX 16 23 1 0
BITMAP
FFFF
FFFF
FFFF
FFFF
3C0F
3C0F
3C0F
3C00
3C00
3C00
3FF8
3FF8
3FF8
3C00
3C00
3C00
3C00
3C00
3C00
FF80
FF80
FF80
FF80
ENDCHAR

STARTCHAR G
ENCODING 71
SWIDTH 780 0
DWIDTH 25 0
BBX 22 23 1 0
BITMAP
00FE38
03FFB8
0FFFF8
1FFFF8
3F03F8
3E00F8
7C00F8
780000
F80000
F00000
F00000
F07FFC
F07FFC
F07FFC
F87FFC
78007C
7C00FC
3E01FC
3F03FC
1FFFDC
0FFF9C
07FF1C
00FC1C
ENDCHAR

STARTCHAR H
ENCODING 72
SWIDTH 740 0
DWIDTH 23 0
BBX 21 23 1 0
BITMAP
FF8FF8
FF8FF8
FF8FF8
FF8FF8
3C01E0
3C01E0
3C01E0
3C01E0
3C01E0
3FFFE0
3FFFE0
3FFFE0
3FFFE0
3C01E0
3C01E0
3C01E0
3C01E0
3C01E0
3C01E0
FF8FF8
FF8FF8
FF8FF8
FF8FF8
ENDCHAR

STARTCHAR I
ENCODING 73
SWIDTH 340 0
DWIDTH 11 0
BBX 8 23 1 0
BITMAP
FF
FF
FF
FF
3C
3C
3C
3C
3C
3C
3C
3C
3C
3C
3C
3C
3C
3C
3C
FF
FF
FF
FF
ENDCHAR

STARTCHAR J
ENCODING 74
SWIDTH 540 0
DWIDTH 17 0
BBX 15 23 1 0
BITMAP
01FE
01FE
01FE
01FE
0078
0078
0078
0078
0078
0078
0078
0078
0078
0078
0078
0078
F078
F078
F8F8
7FF0
7FF0
3FE0
0F80
ENDCHAR

STARTCHAR K
ENCODING 75
SWIDTH 720 0
DWIDTH 23 0
BBX 20 23 1 0
BITMAP
FF1FF0
FF1FF0
FF1FF0
FF1FF0
3C0F80
3C1F00
3C3E00
3C7C00
3CF800
3DF000
3FE000
3FC000
3FE000
3DF000
3CF800
3C7C00
3C3E00
3C1F00
3C0F80
FF1FF0
FF1FF0
FF1FF0
FF1FF0
ENDCHAR

STARTCHAR L
ENCODING 76
SWIDTH 560 0
DWIDTH 18 0
BBX 15 23 1 0
BITMAP
FF00
FF00
FF00
FF00
3C00
3C00
3C00
3C00
3C00
3C00
3C00
3C00
3C00
3C00
3C00
3C00
3C1E
3C1E
3C1E
FFFE
FFFE
FFFE
FFFE
ENDCHAR

STARTCHAR M
ENCODING 77
SWIDTH 960 0
DWIDTH 30 0
BBX 27 23 1 0
BITMAP
FF001FE0
FF001FE0
FF001FE0
FF803FE0
3F803F80
3FC07F80
3FC07F80
3DC07780
3DE0F780
3DE0F780
3CE0E780
3CF1E780
3CF1E780
3C71C780
3C7BC780
3C3BC780
3C3F8780
3C3F8780
3C1F0780
FF9F1FE0
FF9F1FE0
FF8E1FE0
FF8E1FE0
ENDCHAR

STARTCHAR N
ENCODING 78
SWIDTH 800 0
DWIDTH 25 0
BBX 22 23 1 0
BITMAP
FC03FC
FC03FC
FE03FC
FF03FC
3F80F0
3F80F0
3FC0F0
3FE0F0
3DE0F0
3DF0F0
3CF8F0
3C78F0
3C7CF0
3C3EF0
3C1EF0
3C1FF0
3C0FF0
3C07F0
3C07F0
FF03F0
FF01F0
FF01F0
FF00F0
ENDCHAR

STARTCHAR O
ENCODING 79
SWIDTH 780 0
DWIDTH 25 0
BBX 22 23 1 0
BITMAP
00FC00
07FF80
0FFFC0
1FFFE0
3F87F0
3E01F0
7C00F8
780078
F8007C
F0003C
F0003C
F0003C
F0003C
F0003C
F8007C
780078
7C00F8
3E01F0
3F87F0
1FFFE0
0FFFC0
07FF80
00FC00
ENDCHAR

STARTCHAR P
ENCODING 80
SWIDTH 600 0
DWIDTH 19 0
BBX 17 23 1 0
BITMAP
FFF000
FFFC00
FFFE00
FFFF00
3C1F00
3C0F80
3C0780
3C0780
3C0780
3C0F80
3C1F00
3FFF00
3FFE00
3FFC00
3FF000
3C0000
3C0000
3C0000
3C0000
FF8000
FF8000
FF8000
FF8000
ENDCHAR

STARTCHAR Q
ENCODING 81
SWIDTH 860 0
DWIDTH 27 0
BBX 25 23 1 0
BITMAP
00FC0000
07FF0000
0FFFC000
1FFFE000
3F87F000
3E01F000
7C00F800
78007800
F8007C00
F0003C00
F0003C00
F3C03C00
FFF03C00
FFFC3C00
FFFE7C00
781FF800
7C0FF800
3E03F000
3F07F380
1FFFFB80
0FFFFF80
07FF3F80
01FC0F80
ENDCHAR

STARTCHAR R
ENCODING 82
SWIDTH 640 0
DWIDTH 20 0
BBX 19 23 1 0
BITMAP
FFF800
FFFE00
FFFF00
FFFF80
3C0F80
3C07C0
3C03C0
3C03C0
3C03C0
3C03C0
3C0780
3C0F80
3FFF00
3DFE00
3CF800
3CF800
3C7C00
3C3E00
3C3E00
FF1FE0
FF0FE0
FF0FE0
FF07E0
ENDCHAR

STARTCHAR S
ENCODING 83
SWIDTH 520 0
DWIDTH 17 0
BBX 14 23 2 0
BITMAP
0F38
3FF8
7FF8
78F8
F078
F078
F000
F000
F800
FF00
7FE0
3FF0
0FF8
03F8
007C
003C
F03C
F03C
F87C
FCF8
FFF8
FFF0
E7C0
ENDCHAR

STARTCHAR T
ENCODING 84
SWIDTH 600 0
DWIDTH 19 0
BBX 16 23 1 0
BITMAP
FFFF
FFFF
FFFF
FFFF
E3C7
E3C7
E3C7
03C0
03C0
03C0
03C0
03C0
03C0
03C0
03C0
03C0
03C0
03C0
03C0
0FF0
0FF0
0FF0
0FF0
ENDCHAR

STARTCHAR U
ENCODING 85
SWIDTH 700 0
DWIDTH 22 0
BBX 20 23 1 0
BITMAP
FF0FF0
FF0FF0
FF0FF0
FF0FF0
3C03C0
3C03C0
3C03C0
3C03C0
3C03C0
3C03C0
3C03C0
3C03C0
3C03C0
3C03C0
3C03C0
3C03C0
3C03C0
3E07C0
1F0F80
1FFF80
0FFF00
07FE00
01F800
ENDCHAR

STARTCHAR V
ENCODING 86
SWIDTH 740 0
DWIDTH 24 0
BBX 23 23 0 0
BITMAP
FF83FE
FF83FE
FF83FE
FF83FE
1E00F0
1E00F0
1F01E0
0F01E0
0F01E0
0F83C0
0783C0
0783C0
07C780
03C780
03CF80
03EF00
01EF00
01FF00
01FE00
00FE00
00FC00
00FC00
007C00
ENDCHAR

STARTCHAR W
ENCODING 87
SWIDTH 1020 0
DWIDTH 32 0
BBX 31 23 0 0
BITMAP
FF8383FE
FF87C3FE
FF87C3FE
FF87C3FE
1E07C0F0
1E0FE0F0
1E0FE0F0
1E0FE0E0
0F0EE1E0
0F1EF1E0
0F1EF1E0
0F1C71C0
079C7BC0
07BC7BC0
07BC7BC0
03F83F80
03F83F80
03F83F80
03F83F80
01F01F00
01F01F00
01F01F00
01F00F00
ENDCHAR

STARTCHAR X
ENCODING 88
SWIDTH 740 0
DWIDTH 24 0
BBX 21 23 1 0
BITMAP
FF8FF8
FF8FF8
FF8FF8
FE03F8
1F07C0
0F8F80
0F8F80
07DF00
03FE00
01FC00
01F800
00F800
01FC00
03FE00
03FE00
07DF00
0F8F80
1F07C0
1F07C0
FE03F8
FF8FF8
FF8FF8
FF8FF8
ENDCHAR

STARTCHAR Y
ENCODING 89
SWIDTH 680 0
DWIDTH 22 0
BBX 20 23 0 0
BITMAP
FF0FF0
FF0FF0
FF0FF0
FF0FF0
1E0780
1E0780
0F0F00
0F0F00
079E00
079E00
03DC00
03FC00
01F800
01F800
00F000
00F000
00F000
00F000
00F000
03FC00
03FC00
03FC00
03FC00
ENDCHAR

STARTCHAR Z
ENCODING 90
SWIDTH 560 0
DWIDTH 18 0
BBX 16 23 1 0
BITMAP
FFFE
FFFE
FFFE
FFFE
F03E
F07C
F078
00F8
01F0
01E0
03C0
07C0
0780
0F00
1F00
3E00
3C0F
7C0F
F80F
FFFF
FFFF
FFFF
FFFF
ENDCHAR

STARTCHAR bracketleft
ENCODING 91
SWIDTH 380 0
DWIDTH 12 0
BBX 9 27 1 -4
BITMAP
FF80
FF80
FF80
FF80
F000
F000
F000
F000
F000
F000
F000
F000
F000
F000
F000
F000
F000
F000
F000
F000
F000
F000
F000
FF80
FF80
FF80
FF80
ENDCHAR

STARTCHAR backslash
ENCODING 92
SWIDTH 620 0
DWIDTH 20 0
BBX 12 23 3 0
BITMAP
E000
6000
7000
7000
3800
3800
1800
1C00
1C00
0E00
0E00
0600
0700
0700
0380
0380
0180
01C0
01C0
00E0
00E0
0060
0070
ENDCHAR

STARTCHAR bracketright
ENCODING 93
SWIDTH 380 0
DWIDTH 12 0
BBX 9 27 1 -4
BITMAP
FF80
FF80
FF80
FF80
0780
0780
0780
0780
0780
0780
0780
0780
0780
0780
0780
0780
0780
0780
0780
0780
0780
0780
0780
FF80
FF80
FF80
FF80
ENDCHAR

STARTCHAR asciicircum
ENCODING 94
SWIDTH 660 0
DWIDTH 21 0
BBX 18 18 1 5
BITMAP
01C000
01E000
01E000
03F000
033000
073800
063800
061800
0E1C00
0C0C00
1C0E00
180600
380700
380700
300300
700380
600180
E001C0
ENDCHAR

STARTCHAR underscore
ENCODING 95
SWIDTH 500 0
DWIDTH 16 0
BBX 16 3 0 -4
BITMAP
FFFF
FFFF
FFFF
ENDCHAR

STARTCHAR quoteleft
ENCODING 96
SWIDTH 200 0
DWIDTH 6 0
BBX 4 9 1 14
BITMAP
70
F0
C0
C0
F0
F0
F0
F0
F0
ENDCHAR

STARTCHAR a
ENCODING 97
SWIDTH 660 0
DWIDTH 21 0
BBX 20 18 0 0
BITMAP
03E3F0
0FFBF0
1FFFF0
3FFFF0
7E1FC0
7807C0
F803C0
F003C0
F003C0
F003C0
F003C0
F807C0
7807C0
7E1FC0
3FFFF0
1FFFF0
0FFBF0
03E3F0
ENDCHAR

STARTCHAR b
ENCODING 98
SWIDTH 660 0
DWIDTH 21 0
BBX 20 23 0 0
BITMAP
FC0000
FC0000
FC0000
FC0000
3C0000
3C7C00
3DFF00
3FFF80
3FFFC0
3F87E0
3E01E0
3E00F0
3C00F0
3C00F0
3C00F0
3C00F0
3E00F0
3E01E0
3F87E0
FFFFC0
FFFF80
FDFF00
FC7C00
ENDCHAR

STARTCHAR c
ENCODING 99
SWIDTH 580 0
DWIDTH 18 0
BBX 17 18 0 0
BITMAP
03E700
0FFF00
1FFF00
3FFF00
7E1F00
780700
F80000
F00000
F00000
F00000
F00000
F80000
780F80
7E3F00
3FFE00
1FFC00
0FF800
03E000
ENDCHAR

STARTCHAR d
ENCODING 100
SWIDTH 660 0
DWIDTH 21 0
BBX 20 23 0 0
BITMAP
000FC0
000FC0
000FC0
000FC0
0003C0
03E3C0
0FFBC0
1FFFC0
3FFFC0
7E1FC0
7807C0
F803C0
F003C0
F003C0
F003C0
F003C0
F803C0
7807C0
7E1FC0
3FFFF0
1FFFF0
0FFBF0
03E3F0
ENDCHAR

STARTCHAR e
ENCODING 101
SWIDTH 580 0
DWIDTH 18 0
BBX 17 18 0 0
BITMAP
01E000
07F800
1FFE00
3FFF00
7C1F00
780F80
F00780
F00780
FFFF80
FFFF80
FFFF80
F00000
F80000
7C1F80
3FFF00
3FFE00
0FF800
03E000
ENDCHAR

STARTCHAR f
ENCODING 102
SWIDTH 320 0
DWIDTH 10 0
BBX 9 23 0 0
BITMAP
0780
0F80
1F80
3E00
3C00
FF00
FF00
FF00
FF00
3C00
3C00
3C00
3C00
3C00
3C00
3C00
3C00
3C00
3C00
FF00
FF00
FF00
FF00
ENDCHAR

STARTCHAR g
ENCODING 103
SWIDTH 660 0
DWIDTH 21 0
BBX 19 25 0 -7
BITMAP
03E3E0
0FFBE0
1FFFE0
3FFFE0
7E1F80
780780
F00780
F00380
F00380
F00380
F00380
F80780
780780
7E1F80
3FFF80
1FFF80
0FFB80
03E380
000380
7C0780
7C0F00
3F1F00
1FFE00
0FFC00
03F000
ENDCHAR

STARTCHAR h
ENCODING 104
SWIDTH 640 0
DWIDTH 20 0
BBX 19 23 0 0
BITMAP
FC0000
FC0000
FC0000
FC0000
3C0000
3C7800
3DFE00
3FFF00
3FFF00
3F0F80
3E0780
3C0780
3C0780
3C0780
3C0780
3C0780
3C0780
3C0780
3C0780
FF1FE0
FF1FE0
FF1FE0
FF1FE0
ENDCHAR

STARTCHAR i
ENCODING 105
SWIDTH 300 0
DWIDTH 10 0
BBX 8 23 1 0
BITMAP
3C
3C
3C
3C
00
FC
FC
FC
FC
3C
3C
3C
3C
3C
3C
3C
3C
3C
3C
FF
FF
FF
FF
ENDCHAR

STARTCHAR j
ENCODING 106
SWIDTH 280 0
DWIDTH 9 0
BBX 7 30 0 -7
BITMAP
1E
1E
1E
1E
00
7E
7E
7E
7E
1E
1E
1E
1E
1E
1E
1E
1E
1E
1E
1E
1E
1E
1E
1E
1E
3C
FC
F8
F0
C0
ENDCHAR

STARTCHAR k
ENCODING 107
SWIDTH 600 0
DWIDTH 19 0
BBX 17 23 1 0
BITMAP
FC0000
FC0000
FC0000
FC0000
3C0000
3CFF00
3CFF00
3CFF00
3C7F00
3C7800
3CF000
3DE000
3FC000
3F8000
3FC000
3DE000
3CF000
3C7800
3C3C00
FEFF80
FEFF80
FEFF80
FEFF80
ENDCHAR

STARTCHAR l
ENCODING 108
SWIDTH 300 0
DWIDTH 10 0
BBX 8 23 1 0
BITMAP
FC
FC
FC
FC
3C
3C
3C
3C
3C
3C
3C
3C
3C
3C
3C
3C
3C
3C
3C
FF
FF
FF
FF
ENDCHAR

STARTCHAR m
ENCODING 109
SWIDTH 980 0
DWIDTH 31 0
BBX 28 18 1 0
BITMAP
F8E03C00
F9F87F00
FBFCFF80
FFFFFF80
3F1FC7C0
3E0F83C0
3C0F03C0
3C0F03C0
3C0F03C0
3C0F03C0
3C0F03C0
3C0F03C0
3C0F03C0
3C0F03C0
FF3FCFF0
FF3FCFF0
FF3FCFF0
FF3FCFF0
ENDCHAR

STARTCHAR n
ENCODING 110
SWIDTH 640 0
DWIDTH 20 0
BBX 19 18 0 0
BITMAP
FC7800
FDFE00
FFFF00
FFFF00
3E0F80
3C0780
3C0780
3C0780
3C0780
3C0780
3C0780
3C0780
3C0780
3C0780
FF1FE0
FF1FE0
FF1FE0
FF1FE0
ENDCHAR

STARTCHAR o
ENCODING 111
SWIDTH 580 0
DWIDTH 18 0
BBX 18 18 0 0
BITMAP
03F000
0FFC00
1FFE00
3FFF00
7E1F80
780780
780780
F003C0
F003C0
F003C0
F003C0
780780
780780
7E1F00
3FFF00
1FFE00
0FFC00
03F000
ENDCHAR

STARTCHAR p
ENCODING 112
SWIDTH 660 0
DWIDTH 21 0
BBX 20 24 0 -6
BITMAP
FC7C00
FCFF00
FFFF80
FFFFC0
3F87E0
3E01E0
3E00F0
3C00F0
3C00F0
3C00F0
3C00F0
3E01F0
3E01E0
3F87E0
3FFFC0
3FFF80
3DFF00
3C7C00
3C0000
3C0000
FF0000
FF0000
FF0000
FF0000
ENDCHAR

STARTCHAR q
ENCODING 113
SWIDTH 660 0
DWIDTH 21 0
BBX 20 24 0 -6
BITMAP
03E3F0
0FFBF0
1FFFF0
3FFFF0
7E1FC0
7807C0
F803C0
F003C0
F003C0
F003C0
F003C0
F803C0
7807C0
7E1FC0
3FFFC0
1FFFC0
0FFBC0
03E3C0
0003C0
0003C0
000FF0
000FF0
000FF0
000FF0
ENDCHAR

STARTCHAR r
ENCODING 114
SWIDTH 380 0
DWIDTH 12 0
BBX 11 18 0 0
BITMAP
FCE0
FDE0
FFE0
FFE0
3F00
3E00
3C00
3C00
3C00
3C00
3C00
3C00
3C00
3C00
FF00
FF00
FF00
FF00
ENDCHAR

STARTCHAR s
ENCODING 115
SWIDTH 460 0
DWIDTH 15 0
BBX 13 18 1 0
BITMAP
1F70
3FF0
7FF0
F9F0
F0F0
F000
FC00
7F80
7FE0
3FF0
0FF0
01F8
00F8
F078
F8F0
FFF0
FFE0
EF80
ENDCHAR

STARTCHAR t
ENCODING 116
SWIDTH 340 0
DWIDTH 11 0
BBX 9 23 1 0
BITMAP
3C00
3C00
3C00
3C00
3C00
FF80
FF80
FF80
FF80
3C00
3C00
3C00
3C00
3C00
3C00
3C00
3C00
3C00
3C00
3F80
3F80
3F80
3F80
ENDCHAR

STARTCHAR u
ENCODING 117
SWIDTH 640 0
DWIDTH 20 0
BBX 19 18 0 0
BITMAP
FC1F80
FC1F80
FC1F80
FC1F80
3C0780
3C0780
3C0780
3C0780
3C0780
3C0780
3C0780
3C0F80
3C0F80
3E1F80
1FFFE0
1FFFE0
0FF7E0
03E7E0
ENDCHAR

STARTCHAR v
ENCODING 118
SWIDTH 600 0
DWIDTH 19 0
BBX 18 18 0 0
BITMAP
FF3FC0
FF3FC0
FF3FC0
FF3FC0
3C0F00
3C0F00
1E1E00
1E1E00
0E1C00
0F3C00
0F3C00
073800
07F800
07F800
03F000
03F000
01E000
01E000
ENDCHAR

STARTCHAR w
ENCODING 119
SWIDTH 880 0
DWIDTH 28 0
BBX 26 18 0 0
BITMAP
FF003FC0
FF1E3FC0
FF1E3FC0
FF1E3FC0
1C1E0E00
1C3F0E00
1E3F1E00
1E3F1C00
0E7F1C00
0E739C00
0F73BC00
0F73B800
07E3F800
07E1F800
07E1F000
07C1F000
03C1F000
03C0E000
ENDCHAR

STARTCHAR x
ENCODING 120
SWIDTH 620 0
DWIDTH 20 0
BBX 18 18 0 0
BITMAP
FF3FC0
FF3FC0
FF3FC0
FE0FC0
1F1F00
0FBE00
07FC00
03F800
01F000
03F000
07F800
0FFC00
1F3E00
3E1F00
FC0FC0
FF3FC0
FF3FC0
FF3FC0
ENDCHAR

STARTCHAR y
ENCODING 121
SWIDTH 600 0
DWIDTH 19 0
BBX 19 24 0 -6
BITMAP
FF1FE0
FF1FE0
FF1FE0
FF1FE0
1E0700
1E0F00
1E0F00
0F1E00
0F1E00
071C00
07BC00
07BC00
03F800
03F800
01F000
01F000
00E000
01E000
01C000
03C000
0FF000
0FF000
0FF000
0FF000
ENDCHAR

STARTCHAR z
ENCODING 122
SWIDTH 460 0
DWIDTH 15 0
BBX 14 18 0 0
BITMAP
7FF8
7FF8
7FF8
7FF8
7078
70F0
01E0
03C0
0380
0780
0F00
1E00
3C1C
781C
FFFC
FFFC
FFFC
FFFC
ENDCHAR

STARTCHAR braceleft
ENCODING 123
SWIDTH 320 0
DWIDTH 10 0
BBX 7 29 2 -5
BITMAP
02
0C
18
38
38
38
38
38
38
38
38
38
38
70
E0
70
38
38
38
38
38
38
38
38
38
38
18
0C
02
ENDCHAR

STARTCHAR bar
ENCODING 124
SWIDTH 660 0
DWIDTH 21 0
BBX 3 23 9 0
BITMAP
E0
E0
E0
E0
E0
E0
E0
E0
E0
E0
E0
E0
E0
E0
E0
E0
E0
E0
E0
E0
E0
E0
E0
ENDCHAR

STARTCHAR braceright
ENCODING 125
SWIDTH 320 0
DWIDTH 10 0
BBX 7 29 2 -5
BITMAP
80
60
30
38
38
38
38
38
38
38
38
38
38
1C
0E
1C
38
38
38
38
38
38
38
38
38
38
30
60
80
ENDCHAR

STARTCHAR asciitilde
ENCODING 126
SWIDTH 660 0
DWIDTH 21 0
BBX 17 5 1 9
BITMAP
1E0100
3F8380
7FFF00
E0FE00
403C00
ENDCHAR

STARTCHAR exclamdown
ENCODING 161
SWIDTH 200 0
DWIDTH 6 0
BBX 4 24 1 -6
BITMAP
F0
F0
F0
F0
F0
00
00
00
F0
F0
F0
F0
F0
F0
F0
F0
F0
F0
F0
F0
F0
F0
F0
F0
ENDCHAR

STARTCHAR cent
ENCODING 162
SWIDTH 580 0
DWIDTH 19 0
BBX 14 21 2 1
BITMAP
0380
0380
0380
07DC
1FFC
3FFC
7FFC
787C
F03C
F000
F000
F000
F000
787C
7FFC
3FF8
1FF0
07C0
0380
0380
0380
ENDCHAR

STARTCHAR sterling
ENCODING 163
SWIDTH 680 0
DWIDTH 19 0
BBX 17 23 0 0
BITMAP
03CE00
0FFE00
1FFE00
3FFE00
3C1E00
780E00
780E00
780000
780000
3C0000
FFF000
FFF000
FFF000
0F8000
07C000
03C380
03C380
03C380
038780
3FFF80
3FFF00
3FFE00
3FFC00
ENDCHAR

STARTCHAR currency
ENCODING 164
SWIDTH 580 0
DWIDTH 19 0
BBX 16 16 1 3
BITMAP
23C4
7FFE
FFFF
3FFC
3C3C
781E
700E
700E
700E
700E
781E
3C3C
3FFC
FFFF
7FFE
23C4
ENDCHAR

STARTCHAR yen
ENCODING 165
SWIDTH 720 0
DWIDTH 19 0
BBX 18 23 0 0
BITMAP
FF3FC0
FF3FC0
FF3FC0
FF3FC0
1C0E00
1C0E00
1E1C00
0E1C00
0F3C00
7F3F80
7FFF80
03F000
03F000
7FFF80
7FFF80
01E000
01E000
01E000
01E000
07F800
07F800
07F800
07F800
ENDCHAR

STARTCHAR brokenbar
ENCODING 166
SWIDTH 660 0
DWIDTH 21 0
BBX 3 23 9 0
BITMAP
E0
E0
E0
E0
E0
E0
E0
E0
00
00
00
00
00
00
00
E0
E0
E0
E0
E0
E0
E0
E0
ENDCHAR

STARTCHAR section
ENCODING 167
SWIDTH 460 0
DWIDTH 15 0
BBX 11 27 2 -4
BITMAP
1E00
3F80
7FC0
F1C0
E1E0
E000
F000
7800
3E00
1F80
7FC0
F1C0
E0E0
E0E0
E0E0
71C0
7F80
3F80
0FC0
01E0
00E0
E0E0
E0E0
F1E0
7FC0
7F80
1F00
ENDCHAR

STARTCHAR dieresis
ENCODING 168
SWIDTH 460 0
DWIDTH 15 0
BBX 10 4 2 19
BITMAP
F3C0
F3C0
F3C0
F3C0
ENDCHAR

STARTCHAR copyright
ENCODING 169
SWIDTH 820 0
DWIDTH 26 0
BBX 23 23 1 0
BITMAP
00FE00
03FF80
0F01E0
1C0070
30FC18
31FF18
63838C
63010C
C70006
C60006
C60006
C60006
C60006
C70006
63010C
63838C
31FF18
30FC18
1C0070
0C0060
0701C0
03FF80
00FE00
ENDCHAR

STARTCHAR ordfeminine
ENCODING 170
SWIDTH 420 0
DWIDTH 13 0
BBX 12 13 1 10
BITMAP
1EF0
7FF0
61C0
C0C0
C0C0
C0C0
C0C0
61C0
7FF0
1EF0
0000
FFF0
FFF0
ENDCHAR

STARTCHAR guillemotleft
ENCODING 171
SWIDTH 360 0
DWIDTH 12 0
BBX 9 10 1 4
BITMAP
1080
3180
7380
E700
C600
C600
E700
7380
3180
1080
ENDCHAR

STARTCHAR logicalnot
ENCODING 172
SWIDTH 660 0
DWIDTH 21 0
BBX 18 10 1 5
BITMAP
FFFFC0
FFFFC0
FFFFC0
0001C0
0001C0
0001C0
0001C0
0001C0
0001C0
0001C0
ENDCHAR

STARTCHAR hyphen
ENCODING 173
SWIDTH 320 0
DWIDTH 10 0
BBX 8 4 1 7
BITMAP
FF
FF
FF
FF
ENDCHAR

STARTCHAR registered
ENCODING 174
SWIDTH 820 0
DWIDTH 26 0
BBX 23 23 1 0
BITMAP
00FE00
03FF80
0F01E0
1C0070
33FE18
33FF18
63038C
63018C
C30186
C30386
C3FF06
C3FC06
C31C06
C30E06
63070C
63038C
3301D8
3300F8
180030
1C0070
0F01E0
03FF80
00FE00
ENDCHAR

STARTCHAR macron
ENCODING 175
SWIDTH 520 0
DWIDTH 17 0
BBX 12 3 2 20
BITMAP
FFF0
FFF0
FFF0
ENDCHAR

STARTCHAR degree
ENCODING 176
SWIDTH 400 0
DWIDTH 13 0
BBX 9 9 2 14
BITMAP
3E00
7F00
6300
C180
C180
C180
6300
7F00
3E00
ENDCHAR

STARTCHAR plusminus
ENCODING 177
SWIDTH 660 0
DWIDTH 21 0
BBX 15 17 3 3
BITMAP
0380
0380
0380
0380
FFFE
FFFE
FFFE
0380
0380
0380
0380
0000
0000
0000
FFFE
FFFE
FFFE
ENDCHAR

STARTCHAR twosuperior
ENCODING 178
SWIDTH 348 0
DWIDTH 11 0
BBX 10 14 1 9
BITMAP
1E00
7F80
F3C0
E1C0
E1C0
01C0
0380
0700
0E00
1C00
38C0
70C0
FFC0
FFC0
ENDCHAR

STARTCHAR threesuperior
ENCODING 179
SWIDTH 348 0
DWIDTH 11 0
BBX 10 14 1 9
BITMAP
1E00
3F00
7380
7180
0380
0F00
0F00
0380
01C0
01C0
E1C0
F3C0
7F80
1E00
ENDCHAR

STARTCHAR acute
ENCODING 180
SWIDTH 460 0
DWIDTH 15 0
BBX 11 6 3 19
BITMAP
0180
07C0
1FE0
7F80
FC00
7000
ENDCHAR

STARTCHAR mu
ENCODING 181
SWIDTH 640 0
DWIDTH 20 0
BBX 19 24 0 -6
BITMAP
FC1F80
FC1F80
FC1F80
FC1F80
3C0780
3C0780
3C0780
3C0780
3C0780
3C0780
3C0780
3C0780
3C0780
3E0F80
3FFFE0
3FFFE0
3FFBE0
3BE3E0
380000
380000
380000
380000
380000
380000
ENDCHAR

STARTCHAR paragraph
ENCODING 182
SWIDTH 540 0
DWIDTH 17 0
BBX 16 27 1 -4
BITMAP
0FFF
3FFF
7FFF
FF1C
FF1C
FF1C
FF1C
FF1C
FF1C
7F1C
3F1C
0F1C
071C
071C
071C
071C
071C
071C
071C
071C
071C
071C
071C
071C
071C
071C
071C
ENDCHAR

STARTCHAR periodcentered
ENCODING 183
SWIDTH 300 0
DWIDTH 10 0
BBX 4 5 3 9
BITMAP
F0
F0
F0
F0
F0
ENDCHAR

STARTCHAR cedilla
ENCODING 184
SWIDTH 360 0
DWIDTH 12 0
BBX 7 7 2 -7
BITMAP
30
7C
7E
06
C6
FE
7C
ENDCHAR

STARTCHAR onesuperior
ENCODING 185
SWIDTH 348 0
DWIDTH 11 0
BBX 7 14 2 9
BITMAP
F8
F8
38
38
38
38
38
38
38
38
38
38
FE
FE
ENDCHAR

STARTCHAR ordmasculine
ENCODING 186
SWIDTH 360 0
DWIDTH 12 0
BBX 10 13 1 10
BITMAP
3F00
7F80
E1C0
C0C0
C0C0
C0C0
C0C0
E1C0
7F80
3F00
0000
FFC0
FFC0
ENDCHAR

STARTCHAR guillemotright
ENCODING 187
SWIDTH 360 0
DWIDTH 12 0
BBX 9 10 1 4
BITMAP
8400
C600
E700
7380
3180
3180
7380
E700
C600
8400
ENDCHAR

STARTCHAR onequarter
ENCODING 188
SWIDTH 870 0
DWIDTH 28 0
BBX 23 23 2 0
BITMAP
F80700
F80700
380600
380E00
380C00
381C00
381C00
381800
383800
383038
387078
3870F8
FC61F8
FCE1B8
00C338
01C738
01CE38
018FFE
038FFE
030038
070038
07007E
0E007E
ENDCHAR

STARTCHAR onehalf
ENCODING 189
SWIDTH 870 0
DWIDTH 28 0
BBX 24 23 2 0
BITMAP
F80380
F80300
380700
380700
380E00
380E00
380C00
381C00
381800
383878
3839FE
3871CF
FE7387
FEE387
00E007
00C00E
01C01C
01C038
038070
0380E6
0701C6
0703FE
0E03FE
ENDCHAR

STARTCHAR threequarters
ENCODING 190
SWIDTH 870 0
DWIDTH 28 0
BBX 26 23 0 0
BITMAP
1E007000
3F00E000
7380E000
7181C000
0381C000
0F038000
0F038000
03870000
01C70000
01C60700
E1CE0F00
F38E1F00
7F9C3F00
1E1C3700
00386700
0038E700
0031C700
0071FFC0
0063FFC0
00E00700
00C00700
01C01FC0
03801FC0
ENDCHAR

STARTCHAR questiondown
ENCODING 191
SWIDTH 540 0
DWIDTH 17 0
BBX 15 24 1 -6
BITMAP
0780
0780
0780
0780
0780
0000
0000
0780
0780
0F00
1F00
3E00
7C00
7800
F000
F000
F01E
F01E
F03E
787C
7FFC
3FF8
1FF0
07C0
ENDCHAR

STARTCHAR Agrave
ENCODING 192
SWIDTH 780 0
DWIDTH 25 0
BBX 24 30 0 0
BITMAP
030000
07C000
0FF000
03FC00
007E00
001C00
000000
03FC00
03FC00
03FE00
03FE00
007F00
00FF00
00E700
01E780
01E780
01C3C0
03C3C0
0383E0
0781E0
07FFE0
0FFFF0
0FFFF0
0F00F8
1E00F8
1E0078
FE007F
FF81FF
FF81FF
FF81FF
ENDCHAR

STARTCHAR Aacute
ENCODING 193
SWIDTH 780 0
DWIDTH 25 0
BBX 24 30 0 0
BITMAP
000600
001F00
007F80
01FE00
03F000
01C000
000000
03FC00
03FC00
03FE00
03FE00
007F00
00FF00
00E700
01E780
01E780
01C3C0
03C3C0
0383E0
0781E0
07FFE0
0FFFF0
0FFFF0
0F00F8
1E00F8
1E0078
FE007F
FF81FF
FF81FF
FF81FF
ENDCHAR

STARTCHAR Acircumflex
ENCODING 194
SWIDTH 780 0
DWIDTH 25 0
BBX 24 29 0 0
BITMAP
003C00
007E00
00FF00
01E780
03C3C0
000000
03FC00
03FC00
03FE00
03FE00
007F00
00FF00
00E700
01E780
01E780
01C3C0
03C3C0
0383E0
0781E0
07FFE0
0FFFF0
0FFFF0
0F00F8
1E00F8
1E0078
FE007F
FF81FF
FF81FF
FF81FF
ENDCHAR

STARTCHAR Atilde
ENCODING 195
SWIDTH 780 0
DWIDTH 25 0
BBX 24 29 0 0
BITMAP
01E300
03FF80
07FF00
031E00
000000
000000
03FC00
03FC00
03FE00
03FE00
007F00
00FF00
00E700
01E780
01E780
01C3C0
03C3C0
0383E0
0781E0
07FFE0
0FFFF0
0FFFF0
0F00F8
1E00F8
1E0078
FE007F
FF81FF
FF81FF
FF81FF
ENDCHAR

STARTCHAR Adieresis
ENCODING 196
SWIDTH 780 0
DWIDTH 25 0
BBX 24 29 0 0
BITMAP
03CF00
03CF00
03CF00
03CF00
000000
000000
03FC00
03FC00
03FE00
03FE00
007F00
00FF00
00E700
01E780
01E780
01C3C0
03C3C0
0383E0
0781E0
07FFE0
0FFFF0
0FFFF0
0F00F8
1E00F8
1E0078
FE007F
FF81FF
FF81FF
FF81FF
ENDCHAR

STARTCHAR Aring
ENCODING 197
SWIDTH 780 0
DWIDTH 25 0
BBX 24 30 0 0
BITMAP
003C00
007E00
00E700
00C300
00C300
00E700
007E00
003C00
03FC00
03FE00
03FE00
007F00
00FF00
00E700
01E780
01E780
01C3C0
03C3C0
0383E0
0781E0
07FFE0
0FFFF0
0FFFF0
0F00F8
1E00F8
1E0078
FE007F
FF81FF
FF81FF
FF81FF
ENDCHAR

STARTCHAR AE
ENCODING 198
SWIDTH 980 0
DWIDTH 31 0
BBX 29 23 0 0
BITMAP
003FFFF8
003FFFF8
003FFFF8
003FFFF8
000FE078
001FE078
001DE078
0039E000
0039E000
0071E000
00E1FFC0
00E1FFC0
01C1FFC0
03FFE000
03FFE000
07FFE000
0F01E078
0E01E078
1E01E078
FE01FFF8
FF87FFF8
FF87FFF8
FF87FFF8
ENDCHAR

STARTCHAR Ccedilla
ENCODING 199
SWIDTH 760 0
DWIDTH 24 0
BBX 22 30 1 -7
BITMAP
00FC38
07FF38
0FFFF8
1FFFF8
3F03F8
3E00F8
7C0078
780000
F00000
F00000
F00000
F00000
F00000
F00000
F80000
78007C
7C00F8
3F01F8
1FFFF0
0FFFE0
07FFC0
03FF00
007800
006000
00F800
00FC00
000C00
018C00
01FC00
00F800
ENDCHAR

STARTCHAR Egrave
ENCODING 200
SWIDTH 580 0
DWIDTH 18 0
BBX 16 30 1 0
BITMAP
1800
3E00
7F80
1FE0
03F0
00E0
0000
FFFF
FFFF
FFFF
FFFF
3C0F
3C0F
3C0F
3C00
3C00
3C00
3FF8
3FF8
3FF8
3C00
3C00
3C00
3C0F
3C0F
3C0F
FFFF
FFFF
FFFF
FFFF
ENDCHAR

STARTCHAR Eacute
ENCODING 201
SWIDTH 580 0
DWIDTH 18 0
BBX 16 30 1 0
BITMAP
000C
003E
00FF
03FC
07E0
0380
0000
FFFF
FFFF
FFFF
FFFF
3C0F
3C0F
3C0F
3C00
3C00
3C00
3FF8
3FF8
3FF8
3C00
3C00
3C00
3C0F
3C0F
3C0F
FFFF
FFFF
FFFF
FFFF
ENDCHAR

STARTCHAR Ecircumflex
ENCODING 202
SWIDTH 580 0
DWIDTH 18 0
BBX 16 29 1 0
BITMAP
03C0
07E0
0FF0
1E78
3C3C
0000
FFFF
FFFF
FFFF
FFFF
3C0F
3C0F
3C0F
3C00
3C00
3C00
3FF8
3FF8
3FF8
3C00
3C00
3C00
3C0F
3C0F
3C0F
FFFF
FFFF
FFFF
FFFF
ENDCHAR

STARTCHAR Edieresis
ENCODING 203
SWIDTH 580 0
DWIDTH 18 0
BBX 16 29 1 0
BITMAP
1E78
1E78
1E78
1E78
0000
0000
FFFF
FFFF
FFFF
FFFF
3C0F
3C0F
3C0F
3C00
3C00
3C00
3FF8
3FF8
3FF8
3C00
3C00
3C00
3C0F
3C0F
3C0F
FFFF
FFFF
FFFF
FFFF
ENDCHAR

STARTCHAR Igrave
ENCODING 204
SWIDTH 340 0
DWIDTH 11 0
BBX 11 30 -1 0
BITMAP
3000
7C00
FF00
3FC0
07E0
01C0
0000
7F80
7F80
7F80
7F80
1E00
1E00
1E00
1E00
1E00
1E00
1E00
1E00
1E00
1E00
1E00
1E00
1E00
1E00
1E00
7F80
7F80
7F80
7F80
ENDCHAR

STARTCHAR Iacute
ENCODING 205
SWIDTH 340 0
DWIDTH 11 0
BBX 11 30 1 0
BITMAP
0180
07C0
1FE0
7F80
FC00
7000
0000
FF00
FF00
FF00
FF00
3C00
3C00
3C00
3C00
3C00
3C00
3C00
3C00
3C00
3C00
3C00
3C00
3C00
3C00
3C00
FF00
FF00
FF00
FF00
ENDCHAR

STARTCHAR Icircumflex
ENCODING 206
SWIDTH 340 0
DWIDTH 11 0
BBX 12 29 -1 0
BITMAP
0F00
1F80
3FC0
79E0
F0F0
0000
3FC0
3FC0
3FC0
3FC0
0F00
0F00
0F00
0F00
0F00
0F00
0F00
0F00
0F00
0F00
0F00
0F00
0F00
0F00
0F00
3FC0
3FC0
3FC0
3FC0
ENDCHAR

STARTCHAR Idieresis
ENCODING 207
SWIDTH 340 0
DWIDTH 11 0
BBX 10 29 0 0
BITMAP
F3C0
F3C0
F3C0
F3C0
0000
0000
7F80
7F80
7F80
7F80
1E00
1E00
1E00
1E00
1E00
1E00
1E00
1E00
1E00
1E00
1E00
1E00
1E00
1E00
1E00
7F80
7F80
7F80
7F80
ENDCHAR

STARTCHAR Eth
ENCODING 208
SWIDTH 740 0
DWIDTH 24 0
BBX 21 23 1 0
BITMAP
FFFC00
FFFF00
FFFF80
FFFFC0
3C07E0
3C01F0
3C01F0
3C00F0
3C00F8
3C0078
FFC078
FFC078
FFC078
3C0078
3C00F8
3C00F0
3C00F0
3C01F0
3C07E0
FFFFC0
FFFF80
FFFF00
FFFC00
ENDCHAR

STARTCHAR Ntilde
ENCODING 209
SWIDTH 800 0
DWIDTH 25 0
BBX 22 29 1 0
BITMAP
01E300
03FF80
07FF00
031E00
000000
000000
FC03FC
FC03FC
FE03FC
FF03FC
3F80F0
3F80F0
3FC0F0
3FE0F0
3DE0F0
3DF0F0
3CF8F0
3C78F0
3C7CF0
3C3EF0
3C1EF0
3C1FF0
3C0FF0
3C07F0
3C07F0
FF03F0
FF01F0
FF01F0
FF00F0
ENDCHAR

STARTCHAR Ograve
ENCODING 210
SWIDTH 780 0
DWIDTH 25 0
BBX 22 30 1 0
BITMAP
018000
03E000
07F800
01FE00
003F00
000E00
000000
00FC00
07FF80
0FFFC0
1FFFE0
3F87F0
3E01F0
7C00F8
780078
F8007C
F0003C
F0003C
F0003C
F0003C
F0003C
F8007C
780078
7C00F8
3E01F0
3F87F0
1FFFE0
0FFFC0
07FF80
00FC00
ENDCHAR

STARTCHAR Oacute
ENCODING 211
SWIDTH 780 0
DWIDTH 25 0
BBX 22 30 1 0
BITMAP
000300
000F80
003FC0
00FF00
01F800
00E000
000000
00FC00
07FF80
0FFFC0
1FFFE0
3F87F0
3E01F0
7C00F8
780078
F8007C
F0003C
F0003C
F0003C
F0003C
F0003C
F8007C
780078
7C00F8
3E01F0
3F87F0
1FFFE0
0FFFC0
07FF80
00FC00
ENDCHAR

STARTCHAR Ocircumflex
ENCODING 212
SWIDTH 780 0
DWIDTH 25 0
BBX 22 29 1 0
BITMAP
007800
00FC00
01FE00
03CF00
078780
000000
00FC00
07FF80
0FFFC0
1FFFE0
3F87F0
3E01F0
7C00F8
780078
F8007C
F0003C
F0003C
F0003C
F0003C
F0003C
F8007C
780078
7C00F8
3E01F0
3F87F0
1FFFE0
0FFFC0
07FF80
00FC00
ENDCHAR

STARTCHAR Otilde
ENCODING 213
SWIDTH 780 0
DWIDTH 25 0
BBX 22 29 1 0
BITMAP
01E300
03FF80
07FF00
031E00
000000
000000
00FC00
07FF80
0FFFC0
1FFFE0
3F87F0
3E01F0
7C00F8
780078
F8007C
F0003C
F0003C
F0003C
F0003C
F0003C
F8007C
780078
7C00F8
3E01F0
3F87F0
1FFFE0
0FFFC0
07FF80
00FC00
ENDCHAR

STARTCHAR Odieresis
ENCODING 214
SWIDTH 780 0
DWIDTH 25 0
BBX 22 29 1 0
BITMAP
03CF00
03CF00
03CF00
03CF00
000000
000000
00FC00
07FF80
0FFFC0
1FFFE0
3F87F0
3E01F0
7C00F8
780078
F8007C
F0003C
F0003C
F0003C
F0003C
F0003C
F8007C
780078
7C00F8
3E01F0
3F87F0
1FFFE0
0FFFC0
07FF80
00FC00
ENDCHAR

STARTCHAR multiply
ENCODING 215
SWIDTH 660 0
DWIDTH 21 0
BBX 15 15 3 4
BITMAP
2008
F01E
783C
3C78
1EF0
0FE0
07C0
0380
07C0
0FE0
1EF0
3C78
783C
F01E
2008
ENDCHAR

STARTCHAR Oslash
ENCODING 216
SWIDTH 780 0
DWIDTH 25 0
BBX 22 25 1 -1
BITMAP
000010
00F838
03FF78
0FFFF0
1FFFE0
3F07F0
3E03F0
7C07F8
780F78
F80E7C
F01C3C
F03C3C
F0783C
F0703C
F0E03C
F9C07C
7BC078
7F80F8
3F01F0
3F83F0
1FFFE0
3FFFC0
7BFF00
70FC00
200000
ENDCHAR

STARTCHAR Ugrave
ENCODING 217
SWIDTH 700 0
DWIDTH 22 0
BBX 20 30 1 0
BITMAP
060000
0F8000
1FE000
07F800
00FC00
003800
000000
FF0FF0
FF0FF0
FF0FF0
FF0FF0
3C03C0
3C03C0
3C03C0
3C03C0
3C03C0
3C03C0
3C03C0
3C03C0
3C03C0
3C03C0
3C03C0
3C03C0
3C03C0
3E07C0
1F0F80
1FFF80
0FFF00
07FE00
01F800
ENDCHAR

STARTCHAR Uacute
ENCODING 218
SWIDTH 700 0
DWIDTH 22 0
BBX 20 30 1 0
BITMAP
000300
000F80
003FC0
00FF00
01F800
00E000
000000
FF0FF0
FF0FF0
FF0FF0
FF0FF0
3C03C0
3C03C0
3C03C0
3C03C0
3C03C0
3C03C0
3C03C0
3C03C0
3C03C0
3C03C0
3C03C0
3C03C0
3C03C0
3E07C0
1F0F80
1FFF80
0FFF00
07FE00
01F800
ENDCHAR

STARTCHAR Ucircumflex
ENCODING 219
SWIDTH 700 0
DWIDTH 22 0
BBX 20 29 1 0
BITMAP
00F000
01F800
03FC00
079E00
0F0F00
000000
FF0FF0
FF0FF0
FF0FF0
FF0FF0
3C03C0
3C03C0
3C03C0
3C03C0
3C03C0
3C03C0
3C03C0
3C03C0
3C03C0
3C03C0
3C03C0
3C03C0
3C03C0
3E07C0
1F0F80
1FFF80
0FFF00
07FE00
01F800
ENDCHAR

STARTCHAR Udieresis
ENCODING 220
SWIDTH 700 0
DWIDTH 22 0
BBX 20 29 1 0
BITMAP
079E00
079E00
079E00
079E00
000000
000000
FF0FF0
FF0FF0
FF0FF0
FF0FF0
3C03C0
3C03C0
3C03C0
3C03C0
3C03C0
3C03C0
3C03C0
3C03C0
3C03C0
3C03C0
3C03C0
3C03C0
3C03C0
3E07C0
1F0F80
1FFF80
0FFF00
07FE00
01F800
ENDCHAR

STARTCHAR Yacute
ENCODING 221
SWIDTH 680 0
DWIDTH 22 0
BBX 20 30 0 0
BITMAP
000300
000F80
003FC0
00FF00
01F800
00E000
000000
FF0FF0
FF0FF0
FF0FF0
FF0FF0
1E0780
1E0780
0F0F00
0F0F00
079E00
079E00
03DC00
03FC00
01F800
01F800
00F000
00F000
00F000
00F000
00F000
03FC00
03FC00
03FC00
03FC00
ENDCHAR

STARTCHAR Thorn
ENCODING 222
SWIDTH 600 0
DWIDTH 19 0
BBX 17 23 1 0
BITMAP
FF8000
FF8000
FF8000
FF8000
3C0000
3FF800
3FFE00
3FFF00
3C1F00
3C0F80
3C0780
3C0780
3C0780
3C0F80
3C1F00
3FFF00
3FFE00
3FF800
3C0000
FF8000
FF8000
FF8000
FF8000
ENDCHAR

STARTCHAR germandbls
ENCODING 223
SWIDTH 600 0
DWIDTH 19 0
BBX 18 24 0 -1
BITMAP
01F000
07F800
0FFC00
1FFE00
1E1E00
1C0F00
3C0F00
3C0F00
3C0E00
3C3E00
3CFC00
3CFE00
3CFF00
3C0F80
3C0780
3C03C0
3C03C0
3C03C0
3C03C0
FC8780
FCFF80
FCFF00
FCFE00
007800
ENDCHAR

STARTCHAR agrave
ENCODING 224
SWIDTH 660 0
DWIDTH 21 0
BBX 20 25 0 0
BITMAP
030000
07C000
0FF000
03FC00
007E00
001C00
000000
03E3F0
0FFBF0
1FFFF0
3FFFF0
7E1FC0
7807C0
7803C0
F003C0
F003C0
F003C0
F003C0
7807C0
7807C0
7E1FC0
3FFFF0
1FFFF0
0FFBF0
03E3F0
ENDCHAR

STARTCHAR aacute
ENCODING 225
SWIDTH 660 0
DWIDTH 21 0
BBX 20 25 0 0
BITMAP
000600
001F00
007F80
01FE00
03F000
01C000
000000
03E3F0
0FFBF0
1FFFF0
3FFFF0
7E1FC0
7807C0
7803C0
F003C0
F003C0
F003C0
F003C0
7807C0
7807C0
7E1FC0
3FFFF0
1FFFF0
0FFBF0
03E3F0
ENDCHAR

STARTCHAR acircumflex
ENCODING 226
SWIDTH 660 0
DWIDTH 21 0
BBX 20 24 0 0
BITMAP
00F000
01F800
03FC00
079E00
0F0F00
000000
03E3F0
0FFBF0
1FFFF0
3FFFF0
7E1FC0
7807C0
7803C0
F003C0
F003C0
F003C0
F003C0
7807C0
7807C0
7E1FC0
3FFFF0
1FFFF0
0FFBF0
03E3F0
ENDCHAR

STARTCHAR atilde
ENCODING 227
SWIDTH 660 0
DWIDTH 21 0
BBX 20 24 0 0
BITMAP
03C600
07FF00
0FFE00
063C00
000000
000000
03E3F0
0FFBF0
1FFFF0
3FFFF0
7E1FC0
7807C0
7803C0
F003C0
F003C0
F003C0
F003C0
7807C0
7807C0
7E1FC0
3FFFF0
1FFFF0
0FFBF0
03E3F0
ENDCHAR

STARTCHAR adieresis
ENCODING 228
SWIDTH 660 0
DWIDTH 21 0
BBX 20 24 0 0
BITMAP
079E00
079E00
079E00
079E00
000000
000000
03E3F0
0FFBF0
1FFFF0
3FFFF0
7E1FC0
7807C0
7803C0
F003C0
F003C0
F003C0
F003C0
7807C0
7807C0
7E1FC0
3FFFF0
1FFFF0
0FFBF0
03E3F0
ENDCHAR

STARTCHAR aring
ENCODING 229
SWIDTH 660 0
DWIDTH 21 0
BBX 20 27 0 0
BITMAP
00F000
01F800
039C00
030C00
030C00
039C00
01F800
00F000
000000
03E3F0
0FFBF0
1FFFF0
3FFFF0
7E1FC0
7807C0
7803C0
F003C0
F003C0
F003C0
F003C0
7807C0
7807C0
7E1FC0
3FFFF0
1FFFF0
0FFBF0
03E3F0
ENDCHAR

STARTCHAR ae
ENCODING 230
SWIDTH 1040 0
DWIDTH 33 0
BBX 31 18 0 0
BITMAP
01E3C780
07FBDFE0
1FFFFFF0
3FFFFFF8
3E1FF078
7807E03C
7807C01C
F003C01E
F003FFFE
F003FFFE
F003FFFE
F007C000
7807E000
7C1FF07C
3FFFFFF8
1FFFFFF0
0FFBDFE0
03E3C780
ENDCHAR

STARTCHAR ccedilla
ENCODING 231
SWIDTH 580 0
DWIDTH 18 0
BBX 17 25 0 -7
BITMAP
03E700
0FFF00
1FFF00
3FFF00
7E1F00
780700
F00000
F00000
F00000
F00000
F00000
F80000
780F80
7E1F00
3FFE00
1FFC00
0FF800
03E000
018000
03E000
03F000
003000
063000
07F000
03E000
ENDCHAR

STARTCHAR egrave
ENCODING 232
SWIDTH 580 0
DWIDTH 18 0
BBX 17 25 0 0
BITMAP
060000
0F8000
1FE000
07F800
00FC00
003800
000000
01E000
07F800
1FFE00
3FFF00
3E1F00
780780
700780
F00380
FFFF80
FFFF80
FFFF80
F00000
780000
7E1F80
3FFF00
1FFE00
07F800
01E000
ENDCHAR

STARTCHAR eacute
ENCODING 233
SWIDTH 580 0
DWIDTH 18 0
BBX 17 25 0 0
BITMAP
000C00
003E00
00FF00
03FC00
07E000
038000
000000
01E000
07F800
1FFE00
3FFE00
3E1F00
780700
700780
F00380
FFFF80
FFFF80
FFFF80
F00000
780000
7E1F80
3FFF00
1FFE00
07F800
01E000
ENDCHAR

STARTCHAR ecircumflex
ENCODING 234
SWIDTH 580 0
DWIDTH 18 0
BBX 17 24 0 0
BITMAP
01E000
03F000
07F800
0F3C00
1E1E00
000000
01E000
07F800
1FFE00
3FFE00
3E1F00
780700
700780
F00380
FFFF80
FFFF80
FFFF80
F00000
780000
7E1F80
3FFF00
1FFE00
07F800
01E000
ENDCHAR

STARTCHAR edieresis
ENCODING 235
SWIDTH 580 0
DWIDTH 18 0
BBX 17 24 0 0
BITMAP
0F3C00
0F3C00
0F3C00
0F3C00
000000
000000
01E000
07F800
1FFE00
3FFE00
3E1F00
780700
700780
F00380
FFFF80
FFFF80
FFFF80
F00000
780000
7C0F80
3FFF00
1FFE00
07F800
01E000
ENDCHAR

STARTCHAR igrave
ENCODING 236
SWIDTH 300 0
DWIDTH 10 0
BBX 11 25 -1 0
BITMAP
3000
7C00
FF00
3FC0
07E0
01C0
0000
3F00
3F00
3F00
3F00
0F00
0F00
0F00
0F00
0F00
0F00
0F00
0F00
0F00
0F00
3FC0
3FC0
3FC0
3FC0
ENDCHAR

STARTCHAR iacute
ENCODING 237
SWIDTH 300 0
DWIDTH 10 0
BBX 11 25 0 0
BITMAP
0180
07C0
1FE0
7F80
FC00
7000
0000
7E00
7E00
7E00
7E00
1E00
1E00
1E00
1E00
1E00
1E00
1E00
1E00
1E00
1E00
7F80
7F80
7F80
7F80
ENDCHAR

STARTCHAR icircumflex
ENCODING 238
SWIDTH 300 0
DWIDTH 10 0
BBX 12 24 -1 0
BITMAP
0F00
1F80
3FC0
79E0
F0F0
0000
3F00
3F00
3F00
3F00
0F00
0F00
0F00
0F00
0F00
0F00
0F00
0F00
0F00
0F00
3FC0
3FC0
3FC0
3FC0
ENDCHAR

STARTCHAR idieresis
ENCODING 239
SWIDTH 300 0
DWIDTH 10 0
BBX 10 24 0 0
BITMAP
F3C0
F3C0
F3C0
F3C0
0000
0000
7E00
7E00
7E00
7E00
1E00
1E00
1E00
1E00
1E00
1E00
1E00
1E00
1E00
1E00
7F80
7F80
7F80
7F80
ENDCHAR

STARTCHAR eth
ENCODING 240
SWIDTH 580 0
DWIDTH 19 0
BBX 18 23 0 0
BITMAP
3F0180
0F8F80
07FF80
1FFC00
7FF000
78F800
63FC00
0FFE00
3FFF00
3E0F80
780780
7007C0
F003C0
F003C0
F003C0
F003C0
F80380
780780
7C1F00
3FFF00
1FFE00
0FFC00
03F000
ENDCHAR

STARTCHAR ntilde
ENCODING 241
SWIDTH 640 0
DWIDTH 20 0
BBX 19 24 0 0
BITMAP
078C00
0FFE00
1FFC00
0C7800
000000
000000
FC7800
FDFE00
FFFF00
FFFF00
3E0F80
3C0780
3C0780
3C0780
3C0780
3C0780
3C0780
3C0780
3C0780
3C0780
FF1FE0
FF1FE0
FF1FE0
FF1FE0
ENDCHAR

STARTCHAR ograve
ENCODING 242
SWIDTH 580 0
DWIDTH 18 0
BBX 18 25 0 0
BITMAP
060000
0F8000
1FE000
07F800
00FC00
003800
000000
03F000
0FFC00
1FFE00
3FFF00
3E1F00
780780
700780
F003C0
F003C0
F003C0
F003C0
700380
780780
3E1F00
3FFF00
1FFE00
0FFC00
03F000
ENDCHAR

STARTCHAR oacute
ENCODING 243
SWIDTH 580 0
DWIDTH 18 0
BBX 18 25 0 0
BITMAP
000C00
003E00
00FF00
03FC00
07E000
038000
000000
03F000
0FFC00
1FFE00
3FFF00
3E1F00
780780
780780
F003C0
F003C0
F003C0
F003C0
780780
780780
3E1F00
3FFF00
1FFE00
0FFC00
03F000
ENDCHAR

STARTCHAR ocircumflex
ENCODING 244
SWIDTH 580 0
DWIDTH 18 0
BBX 18 24 0 0
BITMAP
01E000
03F000
07F800
0F3C00
1E1E00
000000
03F000
0FFC00
1FFE00
3FFF00
3E1F00
780780
780780
F003C0
F003C0
F003C0
F003C0
780780
780780
3E1F00
3FFF00
1FFE00
0FFC00
03F000
ENDCHAR

STARTCHAR otilde
ENCODING 245
SWIDTH 580 0
DWIDTH 18 0
BBX 18 24 0 0
BITMAP
078C00
0FFE00
1FFC00
0C7800
000000
000000
03F000
0FFC00
1FFE00
3FFF00
3E1F00
780780
780780
F003C0
F003C0
F003C0
F003C0
780780
780780
3E1F00
3FFF00
1FFE00
0FFC00
03F000
ENDCHAR

STARTCHAR odieresis
ENCODING 246
SWIDTH 580 0
DWIDTH 18 0
BBX 18 24 0 0
BITMAP
0F3C00
0F3C00
0F3C00
0F3C00
000000
000000
03F000
0FFC00
1FFE00
3FFF00
3E1F00
780780
780780
F003C0
F003C0
F003C0
F003C0
780780
780780
3E1F00
3FFF00
1FFE00
0FFC00
03F000
ENDCHAR

STARTCHAR divide
ENCODING 247
SWIDTH 660 0
DWIDTH 21 0
BBX 15 13 3 5
BITMAP
0380
0380
0380
0000
0000
FFFE
FFFE
FFFE
0000
0000
0380
0380
0380
ENDCHAR

STARTCHAR oslash
ENCODING 248
SWIDTH 600 0
DWIDTH 19 0
BBX 18 20 0 -1
BITMAP
000100
03F380
0FFF80
1FFF00
3FFE00
3C1F00
783F80
707B80
F073C0
F0E3C0
F1C3C0
F3C3C0
7B8780
7F0780
3E0F00
1FFF00
3FFE00
7FFC00
73F000
200000
ENDCHAR

STARTCHAR ugrave
ENCODING 249
SWIDTH 640 0
DWIDTH 20 0
BBX 19 26 0 0
BITMAP
180000
3E0000
7F8000
1FE000
03F000
00E000
000000
000000
FC1F80
FC1F80
FC1F80
FC1F80
3C0780
3C0780
3C0780
3C0780
3C0780
3C0780
3C0780
3C0780
3C0780
3E0F80
1FFFE0
1FFFE0
0FF7E0
03C7E0
ENDCHAR

STARTCHAR uacute
ENCODING 250
SWIDTH 640 0
DWIDTH 20 0
BBX 19 25 0 0
BITMAP
000C00
003E00
00FF00
03FC00
07E000
038000
000000
FC1F80
FC1F80
FC1F80
FC1F80
3C0780
3C0780
3C0780
3C0780
3C0780
3C0780
3C0780
3C0780
3C0780
3E0F80
1FFFE0
1FFFE0
0FF7E0
03C7E0
ENDCHAR

STARTCHAR ucircumflex
ENCODING 251
SWIDTH 640 0
DWIDTH 20 0
BBX 19 24 0 0
BITMAP
01E000
03F000
07F800
0F3C00
1E1E00
000000
FC1F80
FC1F80
FC1F80
FC1F80
3C0780
3C0780
3C0780
3C0780
3C0780
3C0780
3C0780
3C0780
3C0F80
3E1F80
1FFFE0
1FFFE0
0FF7E0
03C7E0
ENDCHAR

STARTCHAR udieresis
ENCODING 252
SWIDTH 640 0
DWIDTH 20 0
BBX 19 24 0 0
BITMAP
0F3C00
0F3C00
0F3C00
0F3C00
000000
000000
FC1F80
FC1F80
FC1F80
FC1F80
3C0780
3C0780
3C0780
3C0780
3C0780
3C0780
3C0780
3C0780
3C0780
3E0F80
1F1FE0
1FFFE0
0FF7E0
03C7E0
ENDCHAR

STARTCHAR yacute
ENCODING 253
SWIDTH 600 0
DWIDTH 19 0
BBX 19 31 0 -6
BITMAP
000300
000F80
003FC0
00FF00
01F800
00E000
000000
FF1FE0
FF1FE0
FF1FE0
FF1FE0
1E0700
1E0F00
1E0F00
0F1E00
0F1E00
071C00
07BC00
07BC00
03F800
01F800
01F000
00F000
00E000
01E000
01C000
03C000
0FF000
0FF000
0FF000
0FF000
ENDCHAR

STARTCHAR thorn
ENCODING 254
SWIDTH 660 0
DWIDTH 21 0
BBX 20 29 0 -6
BITMAP
FC0000
FC0000
FC0000
FC0000
3C0000
3C7800
3DFE00
3FFF80
3FFFC0
3F03E0
3E01E0
3C01F0
3C00F0
3C00F0
3C00F0
3C00F0
3C01F0
3E01E0
3F03E0
3FFFC0
3FFF80
3DFF00
3C7C00
3C0000
3C0000
FF0000
FF0000
FF0000
FF0000
ENDCHAR

STARTCHAR ydieresis
ENCODING 255
SWIDTH 600 0
DWIDTH 19 0
BBX 19 30 0 -6
BITMAP
0F1E00
0F1E00
0F1E00
0F1E00
000000
000000
FF1FE0
FF1FE0
FF1FE0
FF1FE0
1E0700
1E0F00
1E0F00
0F1E00
0F1E00
071C00
07BC00
07BC00
03F800
03F800
01F000
00F000
00E000
01E000
01C000
03C000
0FF000
0FF000
0FF000
0FF000
ENDCHAR

ENDFONT
