STARTFONT 2.1
FONT -DEC-Present Bullets-Medium-R-Normal--10-100-100-100-P-123-DEC-FontSpecific
SIZE 10 100 100
FONTBOUNDINGBOX 19 12 0 -1

STARTPROPERTIES 22
CHARSET_REGISTRY "DEC"
CHARSET_ENCODING "FontSpecific"
AVERAGE_WIDTH 123
FAMILY_NAME "Present Bullets"
FOUNDRY "DEC"
WEIGHT_NAME "Medium"
SLANT "R"
SETWIDTH_NAME "Normal"
ADD_STYLE_NAME ""
PIXEL_SIZE 10
POINT_SIZE 100
RESOLUTION_X 100
RESOLUTION_Y 100
SPACING "P"
FULL_NAME "Present Bullets"
COPYRIGHT "Copyright 1990, 1991, Digital Equipment Corporation  Created by Loree Nelson, The Artis Consultancy"
WEIGHT 10
X_HEIGHT 9
QUAD_WIDTH 11
DEFAULT_CHAR 32
FONT_DESCENT 2
FONT_ASCENT 11
ENDPROPERTIES

CHARS 59

STARTCHAR space
ENCODING 32
SWIDTH 250 0
DWIDTH 3 0
BBX 0 0 0 0
BITMAP
ENDCHAR

STARTCHAR A
ENCODING 65
SWIDTH 704 0
DWIDTH 9 0
BBX 7 8 0 1
BITMAP
06
0E
F6
8E
AA
BA
92
FE
ENDCHAR

STARTCHAR B
ENCODING 66
SWIDTH 616 0
DWIDTH 8 0
BBX 7 9 0 0
BITMAP
04
0E
0C
1C
18
50
F0
60
20
ENDCHAR

STARTCHAR C
ENCODING 67
SWIDTH 740 0
DWIDTH 10 0
BBX 7 9 0 0
BITMAP
80
60
10
0C
06
08
30
40
80
ENDCHAR

STARTCHAR D
ENCODING 68
SWIDTH 953 0
DWIDTH 12 0
BBX 12 10 0 0
BITMAP
0200
0600
0500
F9F0
2020
30C0
1880
1080
1F40
30C0
ENDCHAR

STARTCHAR E
ENCODING 69
SWIDTH 1048 0
DWIDTH 14 0
BBX 10 11 1 0
BITMAP
0400
0C00
0C00
0E00
FFC0
7F80
3F00
3F00
3F00
3300
4080
ENDCHAR

STARTCHAR F
ENCODING 70
SWIDTH 732 0
DWIDTH 10 0
BBX 8 10 0 0
BITMAP
08
08
0C
FE
FE
FF
FE
FC
08
08
ENDCHAR

STARTCHAR G
ENCODING 71
SWIDTH 732 0
DWIDTH 10 0
BBX 8 10 0 0
BITMAP
10
1C
F4
82
81
83
82
F4
18
10
ENDCHAR

STARTCHAR H
ENCODING 72
SWIDTH 1000 0
DWIDTH 13 0
BBX 15 1 0 0
BITMAP
FFFE
ENDCHAR

STARTCHAR I
ENCODING 73
SWIDTH 787 0
DWIDTH 10 0
BBX 8 9 0 0
BITMAP
E0
F0
3C
0C
06
06
07
07
06
ENDCHAR

STARTCHAR J
ENCODING 74
SWIDTH 756 0
DWIDTH 10 0
BBX 7 10 0 -1
BITMAP
80
46
24
38
10
38
28
6C
44
04
ENDCHAR

STARTCHAR K
ENCODING 75
SWIDTH 935 0
DWIDTH 12 0
BBX 9 10 0 0
BITMAP
C100
6300
3600
1400
1800
1C00
1400
3600
6300
C180
ENDCHAR

STARTCHAR L
ENCODING 76
SWIDTH 1000 0
DWIDTH 13 0
BBX 12 9 0 0
BITMAP
3000
7800
DE00
6F00
1680
0960
0260
0150
0090
ENDCHAR

STARTCHAR M
ENCODING 77
SWIDTH 1440 0
DWIDTH 19 0
BBX 17 9 0 -1
BITMAP
00E000
0FFC00
3FFE00
FFFF80
FF9F80
FF1F80
7FFF00
7FFF00
7FFF00
ENDCHAR

STARTCHAR N
ENCODING 78
SWIDTH 1292 0
DWIDTH 17 0
BBX 13 8 0 0
BITMAP
7FF0
FC78
FFF8
BFF0
7FF0
7FF0
7FF0
7FF0
ENDCHAR

STARTCHAR O
ENCODING 79
SWIDTH 1488 0
DWIDTH 19 0
BBX 18 8 1 0
BITMAP
1FFFC0
780F80
98B000
98F000
BC5000
B3B000
F07000
E03000
ENDCHAR

STARTCHAR P
ENCODING 80
SWIDTH 1292 0
DWIDTH 17 0
BBX 13 7 0 1
BITMAP
0E00
D3F8
E6F8
FFC0
C3C0
FFC0
0180
ENDCHAR

STARTCHAR Q
ENCODING 81
SWIDTH 844 0
DWIDTH 11 0
BBX 9 9 0 0
BITMAP
3000
1000
1800
9800
7F80
D800
1800
1000
3000
ENDCHAR

STARTCHAR R
ENCODING 82
SWIDTH 1195 0
DWIDTH 16 0
BBX 10 9 0 0
BITMAP
3F00
2080
4080
7F80
9F40
FFC0
FFC0
4080
4080
ENDCHAR

STARTCHAR S
ENCODING 83
SWIDTH 1376 0
DWIDTH 18 0
BBX 16 8 0 0
BITMAP
FFFF
C003
B00D
8C31
8BD1
9009
A005
FFFF
ENDCHAR

STARTCHAR T
ENCODING 84
SWIDTH 1098 0
DWIDTH 14 0
BBX 11 11 1 -1
BITMAP
5500
F7E0
6B00
5D00
3E00
7D80
3F80
1F00
2F00
3F00
2300
ENDCHAR

STARTCHAR U
ENCODING 85
SWIDTH 992 0
DWIDTH 13 0
BBX 8 10 3 0
BITMAP
30
F8
48
89
E8
78
78
78
68
20
ENDCHAR

STARTCHAR V
ENCODING 86
SWIDTH 1175 0
DWIDTH 15 0
BBX 11 9 0 0
BITMAP
7F00
4100
4100
4100
7F00
7FC0
7F20
7F40
FFE0
ENDCHAR

STARTCHAR W
ENCODING 87
SWIDTH 790 0
DWIDTH 10 0
BBX 8 9 0 0
BITMAP
3C
C2
E7
99
89
89
89
6A
1C
ENDCHAR

STARTCHAR X
ENCODING 88
SWIDTH 860 0
DWIDTH 11 0
BBX 8 9 0 0
BITMAP
FF
F7
07
03
01
03
07
F7
FF
ENDCHAR

STARTCHAR Y
ENCODING 89
SWIDTH 804 0
DWIDTH 10 0
BBX 9 9 0 0
BITMAP
0C00
0E00
FD00
FB00
C180
C300
0D00
0A00
0800
ENDCHAR

STARTCHAR Z
ENCODING 90
SWIDTH 1220 0
DWIDTH 16 0
BBX 11 9 1 0
BITMAP
8000
D000
4600
21C0
1FE0
1FE0
3E00
7000
8000
ENDCHAR

STARTCHAR bracketleft
ENCODING 91
SWIDTH 1260 0
DWIDTH 16 0
BBX 13 5 0 2
BITMAP
0080
00C0
0060
FFF8
0080
ENDCHAR

STARTCHAR backslash
ENCODING 92
SWIDTH 915 0
DWIDTH 12 0
BBX 9 9 0 0
BITMAP
0C00
7F00
7F80
7F80
FF80
FF80
FF80
7F80
3F00
ENDCHAR

STARTCHAR bracketright
ENCODING 93
SWIDTH 1292 0
DWIDTH 17 0
BBX 13 5 0 2
BITMAP
1FF8
BF80
B780
BF80
BF80
ENDCHAR

STARTCHAR asciicircum
ENCODING 94
SWIDTH 940 0
DWIDTH 12 0
BBX 7 1 2 4
BITMAP
FE
ENDCHAR

STARTCHAR underscore
ENCODING 95
SWIDTH 1164 0
DWIDTH 15 0
BBX 12 1 1 4
BITMAP
FFF0
ENDCHAR

STARTCHAR grave
ENCODING 96
SWIDTH 720 0
DWIDTH 9 0
BBX 7 6 0 2
BITMAP
2C
42
82
82
42
64
ENDCHAR

STARTCHAR a
ENCODING 97
SWIDTH 720 0
DWIDTH 9 0
BBX 7 6 1 2
BITMAP
38
7C
FE
FE
7C
38
ENDCHAR

STARTCHAR b
ENCODING 98
SWIDTH 1272 0
DWIDTH 17 0
BBX 14 6 1 1
BITMAP
0070
0CF8
DEFC
DEFC
0CF8
0078
ENDCHAR

STARTCHAR c
ENCODING 99
SWIDTH 556 0
DWIDTH 7 0
BBX 5 9 0 0
BITMAP
C0
E0
F0
F0
F8
F8
F0
E0
C0
ENDCHAR

STARTCHAR d
ENCODING 100
SWIDTH 616 0
DWIDTH 8 0
BBX 5 10 1 0
BITMAP
80
60
10
10
18
18
30
70
E0
C0
ENDCHAR

STARTCHAR e
ENCODING 101
SWIDTH 956 0
DWIDTH 12 0
BBX 9 9 1 0
BITMAP
0C00
0300
0080
0080
0100
0600
1C00
3800
F000
ENDCHAR

STARTCHAR f
ENCODING 102
SWIDTH 932 0
DWIDTH 12 0
BBX 10 9 0 0
BITMAP
0400
0E00
0E00
1F00
1900
3980
3880
70C0
FFC0
ENDCHAR

STARTCHAR g
ENCODING 103
SWIDTH 956 0
DWIDTH 12 0
BBX 11 8 1 1
BITMAP
0600
0600
0F00
1F80
1F80
3FC0
7FE0
FFE0
ENDCHAR

STARTCHAR h
ENCODING 104
SWIDTH 620 0
DWIDTH 8 0
BBX 7 9 0 0
BITMAP
18
1C
3C
7E
FE
7E
3C
1C
18
ENDCHAR

STARTCHAR i
ENCODING 105
SWIDTH 620 0
DWIDTH 8 0
BBX 7 9 0 0
BITMAP
18
1C
34
72
E2
76
34
1C
18
ENDCHAR

STARTCHAR j
ENCODING 106
SWIDTH 1023 0
DWIDTH 13 0
BBX 12 7 0 2
BITMAP
0700
1F80
3FE0
FFF0
3FE0
1FC0
0700
ENDCHAR

STARTCHAR k
ENCODING 107
SWIDTH 930 0
DWIDTH 12 0
BBX 8 10 2 0
BITMAP
08
08
18
1C
7F
FF
3C
1C
08
08
ENDCHAR

STARTCHAR l
ENCODING 108
SWIDTH 548 0
DWIDTH 7 0
BBX 5 9 1 0
BITMAP
C0
E0
F0
F8
F8
F0
F0
E0
C0
ENDCHAR

STARTCHAR m
ENCODING 109
SWIDTH 896 0
DWIDTH 12 0
BBX 9 3 1 3
BITMAP
FF80
7C00
3000
ENDCHAR

STARTCHAR n
ENCODING 110
SWIDTH 1000 0
DWIDTH 13 0
BBX 10 5 2 2
BITMAP
C000
3C00
07C0
0600
1800
ENDCHAR

STARTCHAR o
ENCODING 111
SWIDTH 1000 0
DWIDTH 13 0
BBX 13 4 0 3
BITMAP
0180
01C0
FFF0
FFF8
ENDCHAR

STARTCHAR p
ENCODING 112
SWIDTH 1096 0
DWIDTH 14 0
BBX 13 4 0 2
BITMAP
1FF8
3FF0
7FE0
FFE0
ENDCHAR

STARTCHAR q
ENCODING 113
SWIDTH 704 0
DWIDTH 9 0
BBX 8 10 0 0
BITMAP
0F
0F
0F
1E
1A
3C
3C
78
78
F8
ENDCHAR

STARTCHAR r
ENCODING 114
SWIDTH 1036 0
DWIDTH 13 0
BBX 12 10 1 0
BITMAP
0010
0030
0030
0060
0060
00E0
00C0
01C0
0380
FF80
ENDCHAR

STARTCHAR s
ENCODING 115
SWIDTH 1264 0
DWIDTH 16 0
BBX 13 10 2 0
BITMAP
0008
0008
0008
0018
0038
0078
00F8
01F8
07F8
FFF8
ENDCHAR

STARTCHAR t
ENCODING 116
SWIDTH 884 0
DWIDTH 11 0
BBX 8 7 0 1
BITMAP
81
81
81
81
81
81
7F
ENDCHAR

STARTCHAR u
ENCODING 117
SWIDTH 844 0
DWIDTH 11 0
BBX 7 6 0 2
BITMAP
FE
FE
FE
FE
FE
FE
ENDCHAR

STARTCHAR v
ENCODING 118
SWIDTH 1176 0
DWIDTH 15 0
BBX 12 5 0 2
BITMAP
FFF0
FFF0
FFF0
FFF0
FFF0
ENDCHAR

STARTCHAR w
ENCODING 119
SWIDTH 1252 0
DWIDTH 16 0
BBX 13 6 0 1
BITMAP
FFB8
FFB8
FFB8
FFB8
FFB8
FFB8
ENDCHAR

STARTCHAR x
ENCODING 120
SWIDTH 1244 0
DWIDTH 16 0
BBX 14 9 0 0
BITMAP
0020
0020
EFF0
EFF8
EFFC
EFF8
EFF0
0030
0020
ENDCHAR

STARTCHAR y
ENCODING 121
SWIDTH 864 0
DWIDTH 11 0
BBX 8 5 0 2
BITMAP
FF
9F
9F
9F
FF
ENDCHAR

STARTCHAR z
ENCODING 122
SWIDTH 704 0
DWIDTH 9 0
BBX 6 5 0 2
BITMAP
FC
84
84
84
FC
ENDCHAR

ENDFONT
