STARTFONT 2.1
FONT -Adobe-ITC Souvenir-Demi-I-Normal--34-240-100-100-P-197-ISO8859-1
SIZE 24 100 100
FONTBOUNDINGBOX 46 38 -4 -7

STARTPROPERTIES 25
FONTNAME_REGISTRY ""
FAMILY_NAME "ITC Souvenir"
FOUNDRY "Adobe"
WEIGHT_NAME "Demi"
SLANT "I"
SETWIDTH_NAME "Normal"
ADD_STYLE_NAME ""
PIXEL_SIZE 34
POINT_SIZE 240
RESOLUTION_X 100
RESOLUTION_Y 100
SPACING "P"
AVERAGE_WIDTH 197
CHARSET_REGISTRY "ISO8859"
CHARSET_ENCODING "1"
CHARSET_COLLECTIONS "ASCII ISO8859-1 ADOBE-STANDARD"
FULL_NAME "ITC Souvenir Demi Italic"
COPYRIGHT "Copyright (c) 1987 Adobe Systems, Inc., Portions Copyright 1988 Digital Equipment Corp."
CAP_HEIGHT 24
X_HEIGHT 16
WEIGHT 10
QUAD_WIDTH 21
DEFAULT_CHAR 32
FONT_DESCENT 7
FONT_ASCENT 28
ENDPROPERTIES

CHARS 190

STARTCHAR space
ENCODING 32
SWIDTH 340 0
DWIDTH 11 0
BBX 1 1 0 0
BITMAP
00
ENDCHAR

STARTCHAR exclam
ENCODING 33
SWIDTH 380 0
DWIDTH 12 0
BBX 10 24 3 0
BITMAP
0F80
1FC0
1FC0
1FC0
1F80
1F80
1F00
1F00
1F00
1E00
1E00
1E00
1C00
1C00
1C00
1C00
1800
1800
0000
3800
7C00
FC00
F800
7000
ENDCHAR

STARTCHAR quotedbl
ENCODING 34
SWIDTH 580 0
DWIDTH 19 0
BBX 11 10 7 14
BITMAP
70E0
F1E0
F1E0
F1E0
E1C0
E1C0
E1C0
C180
C180
C180
ENDCHAR

STARTCHAR numbersign
ENCODING 35
SWIDTH 660 0
DWIDTH 22 0
BBX 20 26 3 -1
BITMAP
004080
00E1C0
00E1C0
01C380
01C380
01C380
1FFFE0
3FFFF0
3FFFF0
1FFFE0
038700
038700
070E00
070E00
070E00
7FFF80
FFFFC0
FFFFC0
7FFF80
1C3800
1C3800
1C3800
387000
387000
387000
102000
ENDCHAR

STARTCHAR dollar
ENCODING 36
SWIDTH 680 0
DWIDTH 21 0
BBX 19 31 3 -4
BITMAP
001800
003C00
003800
00FE00
03FF80
0F83C0
1F01E0
1E01E0
3E01C0
3E0000
3F0000
3F8000
1FE000
1FF800
0FFE00
03FF00
00FF80
001FC0
000FC0
0007C0
E007C0
F00780
F00F80
F00F00
7C3E00
3FFC00
0FE000
038000
078000
070000
030000
ENDCHAR

STARTCHAR percent
ENCODING 37
SWIDTH 900 0
DWIDTH 28 0
BBX 25 24 4 0
BITMAP
0F000C00
3B801C00
31C03800
71C07000
71C06000
E1C0C000
E1C1C000
E1838000
E3830000
E3060000
770E0000
3C1C0000
00183E00
00307700
0070E380
0061C380
00C1C380
01C3C380
03838380
03038700
06038700
0E038E00
1C01DE00
1800F800
ENDCHAR

STARTCHAR ampersand
ENCODING 38
SWIDTH 880 0
DWIDTH 28 0
BBX 26 24 3 0
BITMAP
001F8000
00FFE000
01F1F000
03E0F000
03E0F000
07E0F000
07E1E000
07E3C000
03F78000
03FF0000
01FC1FC0
03F81FC0
0FFC0F00
3EFE0E00
7C7E0E00
783F1C00
F83FB800
F81FF000
F80FE000
F807E000
7C0FF800
7FFFFF80
1FF8FF80
07C01E00
ENDCHAR

STARTCHAR quoteright
ENCODING 39
SWIDTH 320 0
DWIDTH 10 0
BBX 6 9 6 15
BITMAP
38
FC
FC
FC
18
38
30
60
80
ENDCHAR

STARTCHAR parenleft
ENCODING 40
SWIDTH 360 0
DWIDTH 12 0
BBX 11 29 3 -5
BITMAP
0060
00E0
01C0
03C0
0780
0F80
0F00
1F00
3E00
3E00
3C00
7C00
7C00
7800
F800
F800
F800
F800
F800
F800
F800
7800
7800
7800
7800
3C00
3C00
1C00
0C00
ENDCHAR

STARTCHAR parenright
ENCODING 41
SWIDTH 360 0
DWIDTH 12 0
BBX 11 29 1 -5
BITMAP
0600
0700
0780
0780
07C0
03C0
03C0
03C0
03E0
03E0
03E0
03E0
03E0
03E0
03E0
03C0
07C0
07C0
0780
0F80
0F80
0F00
1F00
1E00
3C00
7C00
7800
F000
C000
ENDCHAR

STARTCHAR asterisk
ENCODING 42
SWIDTH 680 0
DWIDTH 22 0
BBX 12 12 7 12
BITMAP
0700
0700
6700
F700
F670
7FF0
0FF0
3E00
7B80
73C0
73C0
0180
ENDCHAR

STARTCHAR plus
ENCODING 43
SWIDTH 660 0
DWIDTH 21 0
BBX 17 17 4 1
BITMAP
01C000
01C000
01C000
01C000
01C000
01C000
01C000
FFFF80
FFFF80
FFFF80
01C000
01C000
01C000
01C000
01C000
01C000
01C000
ENDCHAR

STARTCHAR comma
ENCODING 44
SWIDTH 340 0
DWIDTH 10 0
BBX 6 10 3 -5
BITMAP
38
7C
FC
FC
7C
1C
18
38
70
C0
ENDCHAR

STARTCHAR minus
ENCODING 45
SWIDTH 660 0
DWIDTH 21 0
BBX 16 3 4 8
BITMAP
FFFF
FFFF
FFFF
ENDCHAR

STARTCHAR period
ENCODING 46
SWIDTH 340 0
DWIDTH 10 0
BBX 6 5 2 0
BITMAP
38
7C
FC
F8
70
ENDCHAR

STARTCHAR slash
ENCODING 47
SWIDTH 420 0
DWIDTH 13 0
BBX 18 30 -1 -6
BITMAP
0001C0
000380
000380
000700
000700
000E00
000E00
001C00
001C00
003800
003800
007000
007000
00E000
00E000
01C000
01C000
038000
038000
070000
070000
0E0000
0E0000
1C0000
1C0000
380000
380000
700000
700000
E00000
ENDCHAR

STARTCHAR zero
ENCODING 48
SWIDTH 680 0
DWIDTH 21 0
BBX 19 24 3 0
BITMAP
00FC00
03FF00
07C780
0F87C0
1F03C0
3F03E0
3E03E0
7E03E0
7E03E0
7C03E0
7C03E0
FC07E0
FC07E0
F807C0
F807C0
F80FC0
F80FC0
F80F80
F81F80
781F00
7C3E00
3C7C00
1FF800
07E000
ENDCHAR

STARTCHAR one
ENCODING 49
SWIDTH 680 0
DWIDTH 21 0
BBX 13 24 5 0
BITMAP
0038
01F8
1FF8
1FF0
07F0
03F0
03F0
03F0
03F0
03E0
07E0
07E0
07E0
07E0
07E0
07C0
07C0
0FC0
0FC0
0FC0
0FC0
3FE0
FFF8
FFF8
ENDCHAR

STARTCHAR two
ENCODING 50
SWIDTH 680 0
DWIDTH 21 0
BBX 20 24 2 0
BITMAP
007F00
01FFC0
07C7E0
0F03F0
1F03F0
1E03F0
1F03F0
1F07E0
0E07E0
000FC0
001F80
003F00
007E00
00FC00
01F800
03F000
07E000
0F8000
1F00C0
3E01C0
7FFF80
FFFF80
FFFF00
FFFF00
ENDCHAR

STARTCHAR three
ENCODING 51
SWIDTH 680 0
DWIDTH 21 0
BBX 20 24 2 0
BITMAP
00FF00
03FFC0
07C7E0
0F83F0
0F83F0
0F83F0
0703F0
0007E0
0007E0
001F80
01FE00
03FE00
01FF80
000FC0
000FE0
0007E0
0007E0
7007E0
F80FE0
F80FC0
F81F80
7C3F00
3FFE00
0FF800
ENDCHAR

STARTCHAR four
ENCODING 52
SWIDTH 680 0
DWIDTH 21 0
BBX 19 24 3 0
BITMAP
0007C0
001FC0
003FC0
007FC0
00EF80
01CF80
018F80
031F80
071F80
0E1F80
1C1F00
1C3F00
383F00
303F00
703F00
603F00
FFFFE0
FFFFE0
007E00
007E00
007E00
007E00
01FF00
01FF00
ENDCHAR

STARTCHAR five
ENCODING 53
SWIDTH 680 0
DWIDTH 21 0
BBX 20 24 3 0
BITMAP
030070
07FFE0
07FFE0
07FF80
07FC00
0E0000
0E0000
0C0000
0C0000
1CFC00
1FFF00
1F3F80
1C1FC0
000FC0
000FC0
000FC0
000FC0
700FC0
F81F80
F81F80
F83F00
F87E00
7FFC00
0FE000
ENDCHAR

STARTCHAR six
ENCODING 54
SWIDTH 680 0
DWIDTH 21 0
BBX 19 24 3 0
BITMAP
0007E0
003FE0
00FE00
01F800
03E000
07C000
0F8000
1F8000
1F0000
3F7E00
3FFF80
7F8FC0
7F07C0
7E07E0
FE07E0
FC07E0
FC07E0
FC07C0
FC0FC0
7C0F80
7C1F00
3E3E00
1FFC00
07F000
ENDCHAR

STARTCHAR seven
ENCODING 55
SWIDTH 680 0
DWIDTH 21 0
BBX 18 24 5 0
BITMAP
3FFFC0
3FFFC0
7FFF80
7FFF80
E00700
C00F00
000E00
001E00
003C00
007C00
00F800
00F800
01F000
03F000
03E000
07E000
0FC000
0FC000
1F8000
3F8000
3F0000
7F0000
7E0000
FE0000
ENDCHAR

STARTCHAR eight
ENCODING 56
SWIDTH 680 0
DWIDTH 21 0
BBX 21 24 2 0
BITMAP
003F80
01FFE0
03E1F0
07C0F8
0F80F8
1F80F8
1F80F0
1FC1F0
0FF3E0
0FFF80
07FF00
03FF80
07FFC0
1FBFC0
3E1FE0
7C0FE0
7807E0
F807E0
F807C0
F807C0
7C0F80
7E1F00
3FFE00
07F000
ENDCHAR

STARTCHAR nine
ENCODING 57
SWIDTH 680 0
DWIDTH 21 0
BBX 18 24 4 0
BITMAP
01F800
07FE00
0F1F00
3E0F80
3E0F80
7C0FC0
7C0FC0
FC0FC0
FC0FC0
FC0FC0
FC1F80
7C1F80
7E7F80
3FFF00
0F9F00
003E00
003E00
007C00
00F800
01F800
03E000
0FC000
FF0000
FC0000
ENDCHAR

STARTCHAR colon
ENCODING 58
SWIDTH 320 0
DWIDTH 10 0
BBX 7 13 3 0
BITMAP
1C
3E
7E
7C
38
00
00
00
38
7C
FC
F8
70
ENDCHAR

STARTCHAR semicolon
ENCODING 59
SWIDTH 340 0
DWIDTH 10 0
BBX 7 18 3 -5
BITMAP
1C
3E
7E
7C
38
00
00
00
38
7C
FC
FC
7C
1C
18
38
70
C0
ENDCHAR

STARTCHAR less
ENCODING 60
SWIDTH 660 0
DWIDTH 21 0
BBX 18 19 4 0
BITMAP
000040
0001C0
000FC0
003F00
00FC00
03F000
0FC000
3E0000
F80000
E00000
F80000
3E0000
0FC000
03F000
00FC00
003F00
0007C0
0001C0
000040
ENDCHAR

STARTCHAR equal
ENCODING 61
SWIDTH 660 0
DWIDTH 21 0
BBX 17 8 4 5
BITMAP
FFFF80
FFFF80
FFFF80
000000
000000
FFFF80
FFFF80
FFFF80
ENDCHAR

STARTCHAR greater
ENCODING 62
SWIDTH 660 0
DWIDTH 21 0
BBX 18 19 3 0
BITMAP
800000
E00000
FC0000
3F0000
0FC000
03F000
00FC00
001F00
000780
0001C0
0007C0
001F00
00FC00
03F000
0FC000
3F0000
FC0000
E00000
800000
ENDCHAR

STARTCHAR question
ENCODING 63
SWIDTH 520 0
DWIDTH 16 0
BBX 16 24 3 0
BITMAP
07E0
1FFC
7C7E
783E
F83F
F83F
703F
003E
007E
00FC
01F8
07F0
0FC0
0F00
1E00
1C00
1800
1800
0000
1C00
3E00
7E00
7C00
3800
ENDCHAR

STARTCHAR at
ENCODING 64
SWIDTH 860 0
DWIDTH 28 0
BBX 24 24 4 0
BITMAP
00FF00
03FFC0
0781F0
0E0038
1C001C
38000E
703CE6
60FFE7
61F3C3
C1E3C3
C3C383
C38383
C78787
C78706
C70F0E
C70E0C
E71E38
63F7F0
71C7C6
38000E
1C001C
0F00F8
07FFE0
01FF80
ENDCHAR

STARTCHAR A
ENCODING 65
SWIDTH 760 0
DWIDTH 24 0
BBX 24 24 1 0
BITMAP
000380
0007C0
000FC0
000FC0
001FE0
003FE0
0073E0
0073F0
00E3F0
00E1F0
01C1F0
0381F8
0380F8
0700F8
07FFF8
0FFFFC
0FFFFC
1C00FC
1C00FC
38007E
38007E
78007E
FC00FF
FC00FF
ENDCHAR

STARTCHAR B
ENCODING 66
SWIDTH 780 0
DWIDTH 25 0
BBX 24 24 2 0
BITMAP
0FFFF8
0FFFFE
07FFFE
07E07F
07E03F
07C03F
07C03E
0FC07E
0FC0FC
0F83F8
0F9FE0
0FFFF0
0FF9FC
1FE0FE
1F807E
1F807F
1F807F
1F007F
1F007E
3F00FE
3F03FC
7FFFF8
FFFFF0
FFFFC0
ENDCHAR

STARTCHAR C
ENCODING 67
SWIDTH 780 0
DWIDTH 25 0
BBX 24 24 3 0
BITMAP
001FE0
00FFF8
03F87E
07E01F
0FC00F
1F800E
3F0006
3F0006
7E0000
7E0000
FE0000
FC0000
FC0000
FC0000
FC0000
FC0000
FC0000
7E0008
7E001C
3F0038
1FC0F0
0FFFE0
07FF80
00FE00
ENDCHAR

STARTCHAR D
ENCODING 68
SWIDTH 860 0
DWIDTH 27 0
BBX 27 24 2 0
BITMAP
0FFFF000
0FFFFE00
07FFFF00
07E01F80
07E00FC0
07E00FC0
07C00FE0
0FC007E0
0FC007E0
0FC007E0
0FC007E0
0FC007E0
0F8007E0
0F800FC0
1F800FC0
1F800FC0
1F801F80
1F801F80
1F003F00
3F007E00
3F01FC00
7FFFF800
FFFFE000
FFFF0000
ENDCHAR

STARTCHAR E
ENCODING 69
SWIDTH 700 0
DWIDTH 22 0
BBX 22 24 2 0
BITMAP
0FFFFC
0FFFFC
07FFFC
07E00C
07C00C
07C000
0FC000
0FC000
0F8000
0F80C0
0FFFC0
0FFF80
1FFF80
1F8000
1F8000
1F8000
1F8000
1F0000
3F0000
3F0018
3F0070
7FFFF0
FFFFE0
FFFFE0
ENDCHAR

STARTCHAR F
ENCODING 70
SWIDTH 640 0
DWIDTH 20 0
BBX 21 24 2 0
BITMAP
0FFFF8
0FFFF8
07FFF8
07E018
07C018
0FC000
0FC000
0FC000
0FC000
0F80C0
0FFFC0
1FFFC0
1FFF80
1F8180
1F8000
1F8000
1F8000
1F0000
3F0000
3F0000
3F0000
7F0000
FF8000
FF8000
ENDCHAR

STARTCHAR G
ENCODING 71
SWIDTH 820 0
DWIDTH 26 0
BBX 24 24 3 0
BITMAP
003FF0
00FFFC
03F83F
07E00F
0FC007
1F8007
3F0007
3F0003
7E0000
7E0000
FE0000
FC03FF
FC07FF
FC03FF
FC003E
FC003E
FC003C
7E007C
7E007E
3F007E
1FC1FE
0FFFF8
03FFC0
00FE00
ENDCHAR

STARTCHAR H
ENCODING 72
SWIDTH 880 0
DWIDTH 28 0
BBX 28 24 2 0
BITMAP
0FF80FF0
0FF80FF0
07E007E0
07E007E0
07E007C0
07C007C0
07C00FC0
0FC00FC0
0FC00FC0
0FC00FC0
0FFFFF80
0FFFFF80
0FFFFF80
1F801F80
1F801F80
1F801F00
1F801F00
1F003F00
3F003F00
3F003F00
3F003E00
7F007E00
FF80FF00
FF80FF00
ENDCHAR

STARTCHAR I
ENCODING 73
SWIDTH 400 0
DWIDTH 13 0
BBX 12 24 2 0
BITMAP
0FF0
0FF0
07E0
07E0
07C0
0FC0
0FC0
0FC0
0FC0
0F80
0F80
0F80
1F80
1F80
1F80
1F00
1F00
1F00
3F00
3F00
3F00
7F00
FF80
FF80
ENDCHAR

STARTCHAR J
ENCODING 74
SWIDTH 600 0
DWIDTH 19 0
BBX 20 24 1 0
BITMAP
001FF0
001FF0
000FE0
000FC0
000FC0
000FC0
000FC0
000F80
000F80
001F80
001F80
001F80
001F80
001F00
1C1F00
3E3F00
7E3F00
FC3F00
F03E00
F03E00
F07E00
F8FC00
7FF800
1FE000
ENDCHAR

STARTCHAR K
ENCODING 75
SWIDTH 780 0
DWIDTH 25 0
BBX 25 24 2 0
BITMAP
0FF03F80
0FF03F80
07E01E00
07C03C00
07C07800
07C0F000
0FC1E000
0FC3C000
0FC78000
0F8F0000
0F9F0000
0FBF8000
1FFFC000
1FEFC000
1FCFE000
1F87E000
1F07F000
1F03F000
3F03F800
3F01F800
3F01F800
3F01FC00
FF83FE00
FF83FE00
ENDCHAR

STARTCHAR L
ENCODING 76
SWIDTH 660 0
DWIDTH 21 0
BBX 20 24 2 0
BITMAP
0FF800
0FF800
07F000
07E000
07E000
07C000
0FC000
0FC000
0FC000
0FC000
0F8000
1F8000
1F8000
1F8000
1F8000
1F8000
1F0000
3F0000
3F0030
3F0030
3F00F0
7FFFE0
FFFFE0
FFFFE0
ENDCHAR

STARTCHAR M
ENCODING 77
SWIDTH 960 0
DWIDTH 30 0
BBX 30 24 2 0
BITMAP
0FF003FC
0FF007FC
07F007F8
07F807F0
0FF80FF0
0EF81DF0
0EF819F0
0EF83BF0
0CFC33F0
0CFC73F0
0C7C63E0
1C7CE3E0
1C7CC3E0
1C7FC7E0
1C7F87E0
183F87E0
183F07C0
383E07C0
383E0FC0
383C0FC0
381C0FC0
78001FC0
FC003FE0
FC003FE0
ENDCHAR

STARTCHAR N
ENCODING 78
SWIDTH 800 0
DWIDTH 25 0
BBX 26 24 2 0
BITMAP
0FE00FC0
0FE00FC0
07F00780
07F00700
07F80700
07FC0700
0EFC0700
0EFE0700
0E7E0600
0E3F0E00
0C3F0E00
0C1F8E00
1C1F8E00
1C0FCE00
1C0FCC00
1C07EC00
1807FC00
1803FC00
3803FC00
3801F800
3801F800
7800F800
FC00F800
FC007800
ENDCHAR

STARTCHAR O
ENCODING 79
SWIDTH 860 0
DWIDTH 27 0
BBX 26 24 3 0
BITMAP
003FE000
00FFF800
03F8FE00
07E03F00
0FC01F00
1F801F80
3F000F80
3F000FC0
7E000FC0
7E000FC0
FE000FC0
FC000FC0
FC000FC0
FC001F80
FC001F80
FC001F80
FC003F00
7C003F00
7E007E00
3E00FC00
3F01F800
1FC7F000
07FFC000
01FF0000
ENDCHAR

STARTCHAR P
ENCODING 80
SWIDTH 720 0
DWIDTH 23 0
BBX 24 24 2 0
BITMAP
0FFFF0
0FFFFC
07FFFE
07C07F
07C03F
0FC03F
0FC03F
0FC03F
0FC07E
0F80FE
0F81FC
0F87F8
1FFFE0
1FFF00
1FF800
1F8000
1F8000
1F0000
3F0000
3F0000
3F0000
7F0000
FF8000
FF8000
ENDCHAR

STARTCHAR Q
ENCODING 81
SWIDTH 880 0
DWIDTH 28 0
BBX 26 28 3 -4
BITMAP
003FE000
00FFF800
03F8FE00
07E03F00
0FC01F00
1F801F80
3F000F80
3F000FC0
7E000FC0
7E000FC0
FC000FC0
FC000FC0
FC000FC0
FC001F80
FC001F80
FC001F80
FC183F00
7C383F00
7E387E00
3E38FC00
1F39F800
0FFFE000
03FF8000
007E0000
000F8000
0007FC00
0003FE00
0000FC00
ENDCHAR

STARTCHAR R
ENCODING 82
SWIDTH 780 0
DWIDTH 25 0
BBX 24 24 2 0
BITMAP
0FFFF8
0FFFFE
07FFFF
07E07F
07C03F
07C03F
0FC03F
0FC07E
0FC07E
0F80FC
0F83F8
0F9FE0
1FFFC0
1FFFE0
1FC7E0
1F07F0
1F03F0
1F03F0
3F01F0
3F01F8
3F01F8
7F03F8
FF87FC
FF87FC
ENDCHAR

STARTCHAR S
ENCODING 83
SWIDTH 680 0
DWIDTH 21 0
BBX 21 24 1 0
BITMAP
007F80
01FFF0
03E1F8
07C078
0F8038
1F8038
1F8030
1FC000
1FF000
1FFE00
0FFF80
07FFE0
03FFF0
007FF8
000FF8
0003F8
7001F8
F801F8
F801F0
7803E0
7E07E0
3FFF80
0FFF00
01F800
ENDCHAR

STARTCHAR T
ENCODING 84
SWIDTH 660 0
DWIDTH 21 0
BBX 21 24 3 0
BITMAP
7FFFF8
7FFFF8
FFFFF8
E0FC38
C0F818
00F800
01F800
01F800
01F800
01F000
01F000
03F000
03F000
03F000
03F000
03F000
03E000
07E000
07E000
07E000
07E000
0FE000
1FF000
1FF000
ENDCHAR

STARTCHAR U
ENCODING 85
SWIDTH 800 0
DWIDTH 25 0
BBX 24 24 4 0
BITMAP
3FC03F
3FC03F
1F801E
1F001C
1F001C
3F001C
3F001C
3E0038
3E0038
7E0038
7E0038
7E0038
7C0038
7C0038
FC0030
FC0070
FC0070
FC0070
FC00E0
7C00E0
7E01C0
3F8780
1FFF00
07FC00
ENDCHAR

STARTCHAR V
ENCODING 86
SWIDTH 720 0
DWIDTH 23 0
BBX 24 24 3 0
BITMAP
FF807F
FF807F
7E001E
7E001C
7E003C
7E0038
3E0078
3E0070
3E00E0
3F00E0
3F01C0
3F01C0
1F0380
1F0380
1F8700
1F8F00
0F8E00
0FDE00
0FDC00
0FF800
07F800
07F000
03E000
01C000
ENDCHAR

STARTCHAR W
ENCODING 87
SWIDTH 1020 0
DWIDTH 32 0
BBX 32 24 4 0
BITMAP
FF8FF83F
FF8FF83F
7F07F00E
7E07E00E
7E07E01C
7E07E01C
7E07E01C
7E07E038
7E07E038
7E0FE070
7E0FE070
7E1FE0E0
3E1FE0E0
3E3BF1E0
3E3BF1C0
3E73F380
3F71F380
3F61FB00
3FE1FF00
3FC1FE00
1FC1FC00
1F80FC00
1F00F800
0E007000
ENDCHAR

STARTCHAR X
ENCODING 88
SWIDTH 740 0
DWIDTH 23 0
BBX 26 24 0 0
BITMAP
0FF81FC0
0FF81FC0
07F00F80
03F00F00
03F81E00
01F83C00
01FC7800
00FCF000
007FE000
007FC000
003F8000
003F8000
003FC000
007FC000
00FFE000
01E7E000
03C3F000
0783F800
0F01F800
1E01FC00
3E00FC00
7E00FE00
FF01FF00
FF01FF00
ENDCHAR

STARTCHAR Y
ENCODING 89
SWIDTH 740 0
DWIDTH 23 0
BBX 25 24 3 0
BITMAP
FFC03F80
FFC03F80
7F001F00
3F001E00
3F803C00
1F807800
1F807000
0FC0E000
0FC1C000
07E3C000
07E78000
03FF0000
03FE0000
01FC0000
01F80000
01F80000
01F80000
01F80000
01F80000
01F80000
01F80000
03F80000
07FC0000
07FC0000
ENDCHAR

STARTCHAR Z
ENCODING 90
SWIDTH 620 0
DWIDTH 20 0
BBX 22 24 1 0
BITMAP
07FFFC
07FFFC
0FFFF8
0E01F8
0C03F0
0007F0
000FE0
001FC0
001F80
003F00
007E00
00FE00
01FC00
03F800
07F000
07E000
0FC000
1FC000
3F8030
3F0070
7E01E0
FFFFE0
FFFFC0
FFFFC0
ENDCHAR

STARTCHAR bracketleft
ENCODING 91
SWIDTH 340 0
DWIDTH 11 0
BBX 12 29 1 -5
BITMAP
07F0
07F0
0FC0
0F80
0F00
0F00
0F00
0F00
1F00
1E00
1E00
1E00
1E00
1E00
3E00
3C00
3C00
3C00
3C00
3C00
7C00
7800
7800
7800
7800
7800
FC00
FF00
FF00
ENDCHAR

STARTCHAR backslash
ENCODING 92
SWIDTH 660 0
DWIDTH 21 0
BBX 13 24 6 0
BITMAP
E000
6000
7000
3000
3000
1800
1800
0C00
0C00
0E00
0600
0600
0300
0300
0380
0180
0180
00C0
00C0
00E0
0060
0060
0030
0038
ENDCHAR

STARTCHAR bracketright
ENCODING 93
SWIDTH 340 0
DWIDTH 11 0
BBX 12 29 1 -5
BITMAP
0FF0
0FF0
03F0
01E0
01E0
01E0
01E0
01E0
03E0
03C0
03C0
03C0
03C0
03C0
07C0
0780
0780
0780
0780
0780
0F80
0F00
0F00
0F00
0F00
1F00
3F00
FE00
FE00
ENDCHAR

STARTCHAR asciicircum
ENCODING 94
SWIDTH 660 0
DWIDTH 21 0
BBX 19 18 3 6
BITMAP
00E000
00E000
01F000
01F000
03B800
031800
071C00
061C00
0E0E00
0E0E00
1C0700
1C0700
380380
380380
300180
7001C0
6000C0
E000E0
ENDCHAR

STARTCHAR underscore
ENCODING 95
SWIDTH 500 0
DWIDTH 16 0
BBX 16 3 0 -4
BITMAP
FFFF
FFFF
FFFF
ENDCHAR

STARTCHAR quoteleft
ENCODING 96
SWIDTH 320 0
DWIDTH 10 0
BBX 6 9 5 15
BITMAP
04
18
30
70
60
FC
FC
FC
78
ENDCHAR

STARTCHAR a
ENCODING 97
SWIDTH 640 0
DWIDTH 20 0
BBX 18 16 2 0
BITMAP
01F1C0
07FFC0
1F9F80
3E0F80
3E0F80
7C0F80
7C0F80
F80F00
F81F00
F81F00
F83F00
F87F00
7CFFC0
7FDFC0
3F9F00
1E0C00
ENDCHAR

STARTCHAR b
ENCODING 98
SWIDTH 640 0
DWIDTH 20 0
BBX 18 24 2 0
BITMAP
078000
3F8000
3F8000
1F0000
1F0000
1F0000
1F0000
1F0000
3E3E00
3EFF00
3FFF80
3F0FC0
3E07C0
3E07C0
7C07C0
7C07C0
7C07C0
7C0FC0
7C0F80
FC1F80
FC1F00
FE3E00
EFFC00
C3E000
ENDCHAR

STARTCHAR c
ENCODING 99
SWIDTH 540 0
DWIDTH 17 0
BBX 15 16 2 0
BITMAP
01F8
07FC
1F1E
3E1E
7E0E
7C00
FC00
F800
F800
F800
F800
F80C
7C1C
7FF8
1FF0
0780
ENDCHAR

STARTCHAR d
ENCODING 100
SWIDTH 680 0
DWIDTH 22 0
BBX 19 24 3 0
BITMAP
0001E0
0007E0
0007E0
0003E0
0003E0
0007C0
0007C0
0007C0
03E7C0
0FF7C0
1F3FC0
3E1F80
7E0F80
7C0F80
FC0F80
F80F80
F81F80
F81F00
F83F00
F83F00
FCEFC0
7FCFC0
3F8F00
0F0C00
ENDCHAR

STARTCHAR e
ENCODING 101
SWIDTH 580 0
DWIDTH 18 0
BBX 17 16 2 0
BITMAP
01FC00
07FF00
1F8F80
3E0F80
7C0F80
7C1F00
F83E00
F8FC00
FFE000
FF8000
F80000
F80300
7C0F00
7FFE00
1FF800
07C000
ENDCHAR

STARTCHAR f
ENCODING 102
SWIDTH 420 0
DWIDTH 13 0
BBX 20 30 -2 -6
BITMAP
0003C0
000FE0
001FF0
003E60
003C00
003C00
007C00
007C00
007C00
01FF80
03FF80
03FF00
00F800
00F800
00F800
00F000
01F000
01F000
01F000
01F000
01E000
01E000
03E000
03C000
03C000
03C000
678000
FF0000
7E0000
380000
ENDCHAR

STARTCHAR g
ENCODING 103
SWIDTH 600 0
DWIDTH 19 0
BBX 20 22 0 -6
BITMAP
007F70
03FFF0
07CFE0
0F8780
0F07C0
1F07C0
3E07C0
3E07C0
3E07C0
3E0F80
3E0F80
3E1F00
1F3E00
0FFC00
03FE00
001F00
180F80
780F80
F81F80
FFFF00
7FFE00
1FF800
ENDCHAR

STARTCHAR h
ENCODING 104
SWIDTH 680 0
DWIDTH 22 0
BBX 18 24 3 0
BITMAP
078000
3F8000
3F0000
1F0000
1F0000
1F0000
1F0000
1E0000
1E1E00
3E7F00
3EFF80
3FCF80
3F8F80
3F0F80
7E0F80
7E0F00
7C1F00
7C1F00
7C1F00
FC1E00
F81F00
F83FC0
F83FC0
F81F00
ENDCHAR

STARTCHAR i
ENCODING 105
SWIDTH 340 0
DWIDTH 11 0
BBX 8 22 3 0
BITMAP
0E
1F
3F
3E
1C
00
0E
3E
FE
FE
7C
7C
7C
7C
7C
78
F8
F8
FE
FE
FC
70
ENDCHAR

STARTCHAR j
ENCODING 106
SWIDTH 340 0
DWIDTH 11 0
BBX 14 28 -2 -6
BITMAP
0038
007C
00FC
00F8
0070
0000
0038
00F8
03F8
03F8
01F0
01F0
01F0
01F0
01F0
01F0
01E0
01E0
03E0
03E0
03E0
03C0
03C0
07C0
67C0
F780
FF00
7C00
ENDCHAR

STARTCHAR k
ENCODING 107
SWIDTH 600 0
DWIDTH 19 0
BBX 18 24 3 0
BITMAP
038000
1F8000
7F0000
3F0000
1F0000
1F0000
1F0000
1E0000
3E0780
3E1FC0
3E3FC0
3E7380
3CE000
3DE000
7FF000
7FF000
7DF000
7CF800
78F800
F8F800
F8FC00
F87F00
F87F00
F03C00
ENDCHAR

STARTCHAR l
ENCODING 108
SWIDTH 360 0
DWIDTH 11 0
BBX 8 24 3 0
BITMAP
07
1F
7F
7F
1F
1E
3E
3E
3E
3E
3C
7C
7C
7C
7C
7C
78
F8
F8
F8
FE
FE
FC
70
ENDCHAR

STARTCHAR m
ENCODING 109
SWIDTH 980 0
DWIDTH 31 0
BBX 27 16 4 0
BITMAP
183C0F00
7CFE3F80
FDFF7FC0
FF9FE7C0
7F1FC7C0
7E1F87C0
7C1F07C0
7C1F0F80
7C3F0F80
F83E0F80
F83E0F80
F83E0F80
F83E1FE0
F83E1FE0
F07C1FC0
F07C0F00
ENDCHAR

STARTCHAR n
ENCODING 110
SWIDTH 680 0
DWIDTH 22 0
BBX 18 16 3 0
BITMAP
0C1E00
3E7F00
FEFF80
FFCF80
3F8F80
3F0F80
3E0F80
3E0F00
3C0F00
7C1F00
7C1F00
7C1F00
7C1FC0
781FC0
F81F80
F81C00
ENDCHAR

STARTCHAR o
ENCODING 111
SWIDTH 640 0
DWIDTH 20 0
BBX 18 16 2 0
BITMAP
03F800
0FFE00
1F1F00
3E0F80
7C0780
7C07C0
FC07C0
F807C0
F807C0
F80FC0
F80F80
F80F80
7C1F00
7E3E00
1FFC00
07F000
ENDCHAR

STARTCHAR p
ENCODING 112
SWIDTH 660 0
DWIDTH 21 0
BBX 21 22 0 -6
BITMAP
0387C0
0F9FF0
1FBFF0
1FF1F8
0FE0F8
0FC0F8
0FC0F8
0F80F8
0F81F8
0F81F0
0F81F0
1F03E0
1F07E0
1F7FC0
1F7F00
1F3C00
1E0000
3E0000
3E0000
3E0000
FF0000
FF0000
ENDCHAR

STARTCHAR q
ENCODING 113
SWIDTH 640 0
DWIDTH 20 0
BBX 18 22 2 -6
BITMAP
03F0C0
0FFBC0
1F1FC0
3E0F80
7C0F80
7C0F80
7C0F80
F80F80
F81F00
F81F00
F81F00
F83F00
FC7F00
7FFE00
7FDE00
1F1E00
003E00
003E00
003E00
007E00
00FF00
00FF00
ENDCHAR

STARTCHAR r
ENCODING 114
SWIDTH 460 0
DWIDTH 15 0
BBX 14 16 3 0
BITMAP
0618
1E7C
7EFC
7FFC
3FBC
3F18
3E00
3E00
3E00
7C00
7C00
7C00
7800
F800
F800
F800
ENDCHAR

STARTCHAR s
ENCODING 115
SWIDTH 520 0
DWIDTH 16 0
BBX 15 16 2 0
BITMAP
03F0
0FFC
1F1E
3E0E
3E0C
3F00
3FE0
1FF8
0FF8
03FC
60FC
F07C
F078
78F8
3FF0
0FC0
ENDCHAR

STARTCHAR t
ENCODING 116
SWIDTH 420 0
DWIDTH 13 0
BBX 10 20 4 0
BITMAP
0700
0700
0F00
0E00
1E00
7FC0
FFC0
FF80
3C00
3C00
7C00
7C00
7C00
7C00
F800
F800
F980
FF80
FF00
FC00
ENDCHAR

STARTCHAR u
ENCODING 117
SWIDTH 680 0
DWIDTH 22 0
BBX 17 16 3 0
BITMAP
0E0F80
3E0F80
FE0F80
FC0F80
7C0F80
7C1F00
7C1F00
7C1F00
7C1F00
F83F00
F83F00
F87F00
FCFF80
FFDF80
7F9E00
3E1800
ENDCHAR

STARTCHAR v
ENCODING 118
SWIDTH 580 0
DWIDTH 18 0
BBX 15 16 4 0
BITMAP
1C1C
3E3C
FE3E
FC3E
7C1E
7C0E
7C0E
7C0C
7C0C
F81C
F818
F838
FC70
FFE0
7FC0
1F00
ENDCHAR

STARTCHAR w
ENCODING 119
SWIDTH 840 0
DWIDTH 27 0
BBX 23 16 4 0
BITMAP
1C1F1C
3E1F3C
FE1F3E
FC1F1E
7C1E0E
7C1E0E
7C3E0E
7C3E0C
783E0C
F87C1C
F87C18
F8FC38
F9FE70
FFBFE0
7F1FC0
3C0F00
ENDCHAR

STARTCHAR x
ENCODING 120
SWIDTH 580 0
DWIDTH 18 0
BBX 19 16 1 0
BITMAP
0701C0
0F83E0
3F87E0
3FCEC0
07DC00
07F800
03F000
03F000
01F800
03F800
07FC00
0E7E00
7C7FC0
F83FC0
F83F80
E00E00
ENDCHAR

STARTCHAR y
ENCODING 121
SWIDTH 560 0
DWIDTH 18 0
BBX 17 22 1 -6
BITMAP
0F0700
7F0F80
7F0F80
1F0780
1E0380
3E0380
3E0380
3E0300
3E0700
3E0600
3E0E00
3F0C00
3F1C00
1FF800
1FF000
0E7000
00E000
01C000
638000
FF0000
FE0000
780000
ENDCHAR

STARTCHAR z
ENCODING 122
SWIDTH 500 0
DWIDTH 16 0
BBX 16 16 1 0
BITMAP
0FFF
1FFF
3C3F
3C7E
18FC
01F8
03F0
03F0
07E0
0FC0
1F86
3F0F
3F0F
7E1E
FFFC
7FF0
ENDCHAR

STARTCHAR braceleft
ENCODING 123
SWIDTH 340 0
DWIDTH 11 0
BBX 11 29 1 -5
BITMAP
01E0
0780
0780
0F80
0F80
0F00
0F00
1F00
1F00
1F00
1E00
1E00
3E00
3C00
F000
7800
3C00
3C00
3C00
7C00
7C00
7800
7800
7800
F800
F000
F000
7000
1C00
ENDCHAR

STARTCHAR bar
ENCODING 124
SWIDTH 660 0
DWIDTH 21 0
BBX 2 24 13 0
BITMAP
C0
C0
C0
C0
C0
C0
C0
C0
C0
C0
C0
C0
C0
C0
C0
C0
C0
C0
C0
C0
C0
C0
C0
C0
ENDCHAR

STARTCHAR braceright
ENCODING 125
SWIDTH 340 0
DWIDTH 11 0
BBX 12 29 1 -5
BITMAP
0FC0
03E0
03E0
03E0
03E0
03E0
03C0
03C0
03C0
07C0
07C0
07C0
07C0
03C0
01F0
07C0
0780
0F80
0F00
0F00
1F00
1F00
1F00
1E00
1E00
1E00
3E00
3C00
F800
ENDCHAR

STARTCHAR asciitilde
ENCODING 126
SWIDTH 660 0
DWIDTH 21 0
BBX 16 5 5 7
BITMAP
3E02
7F87
FFFF
E3FE
40F8
ENDCHAR

STARTCHAR exclamdown
ENCODING 161
SWIDTH 380 0
DWIDTH 12 0
BBX 10 25 2 -7
BITMAP
0380
07C0
0FC0
0F80
0700
0000
0000
0600
0600
0E00
0E00
0E00
0E00
1E00
1E00
1E00
3E00
3E00
3E00
7E00
7E00
FE00
FE00
FE00
7C00
ENDCHAR

STARTCHAR cent
ENCODING 162
SWIDTH 660 0
DWIDTH 21 0
BBX 15 23 6 0
BITMAP
0030
0030
0060
0060
01F8
07FE
1F1E
3E1E
7C0C
7C00
F800
F800
F800
F800
F800
FC0C
7E1C
3FF8
0FE0
0300
0300
0600
0600
ENDCHAR

STARTCHAR sterling
ENCODING 163
SWIDTH 660 0
DWIDTH 22 0
BBX 19 24 3 0
BITMAP
007F00
01FFC0
03E3C0
07C1E0
0781E0
0F80C0
0F8000
0F8000
0F8000
0F8000
0F8000
3FFC00
3FFC00
0F8000
0F8000
0F0000
0F0000
1E0000
1E0000
3CF180
79FF80
FFFF00
FFFF00
F83C00
ENDCHAR

STARTCHAR currency
ENCODING 164
SWIDTH 680 0
DWIDTH 22 0
BBX 17 18 4 3
BITMAP
400100
E3E380
7FFF00
3FFE00
3C1E00
780F00
700700
E00380
E00380
E00380
E00380
E00380
700700
780F00
3C1E00
7FFF00
EFFB80
43E100
ENDCHAR

STARTCHAR yen
ENCODING 165
SWIDTH 680 0
DWIDTH 22 0
BBX 22 24 3 0
BITMAP
7FC1FC
7FC1FC
3F80F0
3F80E0
1F81E0
1F81C0
1F81C0
0FC380
0FC700
7FC7E0
7FCFE0
07FC00
03FC00
03F800
FFFFC0
FFFFC0
03F000
03F000
03E000
03E000
03E000
07E000
1FF800
1FF800
ENDCHAR

STARTCHAR brokenbar
ENCODING 166
SWIDTH 660 0
DWIDTH 21 0
BBX 2 24 13 0
BITMAP
C0
C0
C0
C0
C0
C0
C0
C0
C0
00
00
00
00
00
00
C0
C0
C0
C0
C0
C0
C0
C0
C0
ENDCHAR

STARTCHAR section
ENCODING 167
SWIDTH 680 0
DWIDTH 22 0
BBX 20 31 2 -7
BITMAP
007F80
01FFE0
03E1F0
07C070
0F8070
0F8030
1F8030
1FC000
1FF000
0FFE00
07FFC0
0FFFE0
1C7FF0
3C0FF0
7C01F0
7E00F0
7F80F0
3FF1E0
3FFFC0
1FFF80
07FFC0
00FFC0
001FC0
400FC0
C007C0
E007C0
E00780
F00F80
7C3F00
7FFC00
0FF000
ENDCHAR

STARTCHAR dieresis
ENCODING 168
SWIDTH 520 0
DWIDTH 17 0
BBX 13 5 6 17
BITMAP
7070
F8F8
F8F8
F8F8
7070
ENDCHAR

STARTCHAR copyright
ENCODING 169
SWIDTH 840 0
DWIDTH 27 0
BBX 24 24 3 0
BITMAP
00FF00
03FFC0
0700E0
1C0038
183E18
30FF8C
61C386
638186
C30083
C70003
C70003
C70003
C70003
C70003
C70003
C38043
6380C6
61E386
30FF0C
383E1C
1C0038
0F00F0
03FFC0
00FF00
ENDCHAR

STARTCHAR ordfeminine
ENCODING 170
SWIDTH 440 0
DWIDTH 14 0
BBX 12 14 4 10
BITMAP
0730
1FF0
38F0
3860
70E0
70E0
79F0
3FE0
1EC0
0000
0000
0000
FFC0
FFC0
ENDCHAR

STARTCHAR guillemotleft
ENCODING 171
SWIDTH 460 0
DWIDTH 15 0
BBX 12 12 2 2
BITMAP
0410
0C30
1C70
38E0
71C0
E380
E380
6180
70C0
30C0
1860
1860
ENDCHAR

STARTCHAR logicalnot
ENCODING 172
SWIDTH 660 0
DWIDTH 21 0
BBX 17 10 4 3
BITMAP
FFFF80
FFFF80
FFFF80
000380
000380
000380
000380
000380
000380
000380
ENDCHAR

STARTCHAR hyphen
ENCODING 173
SWIDTH 300 0
DWIDTH 10 0
BBX 9 4 2 7
BITMAP
7F80
FF80
FF80
FF00
ENDCHAR

STARTCHAR registered
ENCODING 174
SWIDTH 840 0
DWIDTH 27 0
BBX 24 24 3 0
BITMAP
00FF00
03FFC0
0F00F0
1C0038
3BFF1C
33FF8C
6181C6
6180C6
C180C3
C181C3
C18783
C1FF03
C1FE03
C18303
C18383
C18183
6181C6
6180C6
33E1EC
38001C
1C0038
0F00F0
03FFC0
00FF00
ENDCHAR

STARTCHAR macron
ENCODING 175
SWIDTH 480 0
DWIDTH 15 0
BBX 12 3 5 17
BITMAP
7FE0
FFF0
7FE0
ENDCHAR

STARTCHAR degree
ENCODING 176
SWIDTH 400 0
DWIDTH 13 0
BBX 10 10 5 14
BITMAP
1E00
7F80
6180
E1C0
C0C0
C0C0
6180
6180
7F80
1E00
ENDCHAR

STARTCHAR plusminus
ENCODING 177
SWIDTH 660 0
DWIDTH 21 0
BBX 17 16 4 1
BITMAP
01C000
01C000
01C000
01C000
FFFF80
FFFF80
FFFF80
01C000
01C000
01C000
01C000
000000
000000
FFFF80
FFFF80
FFFF80
ENDCHAR

STARTCHAR twosuperior
ENCODING 178
SWIDTH 408 0
DWIDTH 13 0
BBX 13 14 3 10
BITMAP
07E0
1FF0
38F8
7078
7078
00F0
01E0
03C0
0F00
1E00
3C30
7FF0
FFE0
FFE0
ENDCHAR

STARTCHAR threesuperior
ENCODING 179
SWIDTH 408 0
DWIDTH 13 0
BBX 12 14 3 10
BITMAP
07C0
1FE0
3CF0
1870
0070
01E0
0FC0
0FC0
01E0
70E0
F0E0
F1E0
7FC0
3F00
ENDCHAR

STARTCHAR acute
ENCODING 180
SWIDTH 320 0
DWIDTH 10 0
BBX 6 6 5 17
BITMAP
3C
7C
78
70
E0
C0
ENDCHAR

STARTCHAR mu
ENCODING 181
SWIDTH 680 0
DWIDTH 22 0
BBX 20 22 1 -6
BITMAP
0381F0
0F81F0
3F83E0
3F83E0
0F83E0
0F03E0
1F07E0
1F07C0
1F07C0
1F0FC0
1F0FC0
3F1FC0
3F37F0
3FF7F0
3FE7C0
3B8700
780000
700000
700000
F80000
F80000
F00000
ENDCHAR

STARTCHAR paragraph
ENCODING 182
SWIDTH 660 0
DWIDTH 21 0
BBX 24 30 2 -6
BITMAP
03FFFF
0FFFFF
3F8738
3E0738
7C0738
780638
F80630
F80E70
F80E70
F80E70
F80E70
780C60
7C0C60
3E1CE0
1F9CE0
07FCE0
007CE0
0018C0
0018C0
0039C0
0039C0
0039C0
003180
003180
003180
007380
007380
006300
006300
006300
ENDCHAR

STARTCHAR periodcentered
ENCODING 183
SWIDTH 340 0
DWIDTH 11 0
BBX 6 5 4 7
BITMAP
78
FC
FC
FC
78
ENDCHAR

STARTCHAR cedilla
ENCODING 184
SWIDTH 540 0
DWIDTH 17 0
BBX 10 7 3 -7
BITMAP
0C00
0C00
0F80
03C0
01C0
E3C0
7F80
ENDCHAR

STARTCHAR onesuperior
ENCODING 185
SWIDTH 408 0
DWIDTH 13 0
BBX 8 14 5 10
BITMAP
07
7F
7F
0E
0E
0E
0E
1E
1C
1C
1C
3C
FF
FF
ENDCHAR

STARTCHAR ordmasculine
ENCODING 186
SWIDTH 440 0
DWIDTH 14 0
BBX 12 14 4 10
BITMAP
0FC0
1FE0
3CF0
7070
7070
7070
79E0
3FC0
1F80
0000
0000
0000
FFC0
FFC0
ENDCHAR

STARTCHAR guillemotright
ENCODING 187
SWIDTH 460 0
DWIDTH 15 0
BBX 12 12 3 2
BITMAP
6180
6180
30C0
38E0
1860
1C70
1C70
38E0
71C0
E380
C300
8200
ENDCHAR

STARTCHAR onequarter
ENCODING 188
SWIDTH 1020 0
DWIDTH 33 0
BBX 28 24 4 0
BITMAP
07000300
7F000700
7F000E00
0F000C00
0E001800
0E003000
0E007000
1E00E000
1C00C000
1C0180E0
1C0301E0
3C0703E0
FF0E07E0
FF0C0DE0
001819C0
003831C0
007063C0
0060C3C0
00C0FFF0
0180FFF0
03800380
07000780
0E001FE0
0C001FE0
ENDCHAR

STARTCHAR onehalf
ENCODING 189
SWIDTH 1020 0
DWIDTH 33 0
BBX 30 24 4 0
BITMAP
07000180
7F000380
7F000700
0F000E00
0E001C00
0E003800
0E007000
1E006000
1E00C000
1C01C000
1C0383E0
3C070FF8
FF0E1E7C
FF0C1C3C
00181C3C
00380078
007000F0
006001E0
00C00380
01800F00
03801E18
07003FF8
0E007FF0
0C007FF0
ENDCHAR

STARTCHAR threequarters
ENCODING 190
SWIDTH 1020 0
DWIDTH 33 0
BBX 30 24 2 0
BITMAP
07C00060
1FE000E0
3CF001C0
18700380
00700700
01E00600
0FC00C00
0FC01800
01E03800
70E0701C
F0E0603C
F1E0C07C
7FC1C0FC
1F0381BC
00070338
00060638
000C0C78
00181878
00383FFC
00703FFC
00600070
00C000F0
01C003FC
018003FC
ENDCHAR

STARTCHAR questiondown
ENCODING 191
SWIDTH 520 0
DWIDTH 16 0
BBX 15 25 1 -7
BITMAP
0038
007C
00FC
00F8
0070
0000
0000
0030
0030
0030
0070
01E0
07E0
0FC0
1F00
3E00
7E00
7C00
FC0C
FC1E
FC3E
7C3C
7C7C
3FF0
0FC0
ENDCHAR

STARTCHAR Agrave
ENCODING 192
SWIDTH 760 0
DWIDTH 24 0
BBX 24 31 1 0
BITMAP
001E00
001F00
000F00
000700
000380
000180
000000
000380
0007C0
000FC0
000FC0
001FE0
003FE0
0073E0
0073F0
00E3F0
00E1F0
01C1F0
0381F8
0380F8
0700F8
07FFF8
0FFFFC
0FFFFC
1C00FC
1C00FC
38007E
38007E
78007E
FC00FF
FC00FF
ENDCHAR

STARTCHAR Aacute
ENCODING 193
SWIDTH 760 0
DWIDTH 24 0
BBX 24 31 1 0
BITMAP
000078
0000F8
0000F0
0000E0
0001C0
000180
000000
000380
0007C0
000FC0
000FC0
001FE0
003FE0
0073E0
0073F0
00E3F0
00E1F0
01C1F0
0381F8
0380F8
0700F8
07FFF8
0FFFFC
0FFFFC
1C00FC
1C00FC
38007E
38007E
78007E
FC00FF
FC00FF
ENDCHAR

STARTCHAR Acircumflex
ENCODING 194
SWIDTH 760 0
DWIDTH 24 0
BBX 24 31 1 0
BITMAP
000300
000780
000FC0
001FE0
003870
003030
000000
000380
0007C0
000FC0
000FC0
001FE0
003FE0
0073E0
0073F0
00E3F0
00E1F0
01C1F0
0381F8
0380F8
0700F8
07FFF8
0FFFFC
0FFFFC
1C00FC
1C00FC
38007E
38007E
78007E
FC00FF
FC00FF
ENDCHAR

STARTCHAR Atilde
ENCODING 195
SWIDTH 760 0
DWIDTH 24 0
BBX 24 30 1 0
BITMAP
000E10
001FF0
003FE0
0021C0
000000
000000
000380
0007C0
000FC0
000FC0
001FE0
003FE0
0073E0
0073F0
00E3F0
00E1F0
01C1F0
0381F8
0380F8
0700F8
07FFF8
0FFFFC
0FFFFC
1C00FC
1C00FC
38007E
38007E
78007E
FC00FF
FC00FF
ENDCHAR

STARTCHAR Adieresis
ENCODING 196
SWIDTH 760 0
DWIDTH 24 0
BBX 24 31 1 0
BITMAP
003838
007C7C
007C7C
007C7C
003838
000000
000000
000380
0007C0
000FC0
000FC0
001FE0
003FE0
0073E0
0073F0
00E3F0
00E1F0
01C1F0
0381F8
0380F8
0700F8
07FFF8
0FFFFC
0FFFFC
1C00FC
1C00FC
38007E
38007E
78007E
FC00FF
FC00FF
ENDCHAR

STARTCHAR Aring
ENCODING 197
SWIDTH 760 0
DWIDTH 24 0
BBX 24 31 1 0
BITMAP
000380
0007C0
000C60
000C60
0007C0
000380
000000
000380
0007C0
000FC0
000FC0
001FE0
003FE0
0073E0
0073F0
00E3F0
00E1F0
01C1F0
0381F8
0380F8
0700F8
07FFF8
0FFFFC
0FFFFC
1C00FC
1C00FC
38007E
38007E
78007E
FC00FF
FC00FF
ENDCHAR

STARTCHAR AE
ENCODING 198
SWIDTH 1000 0
DWIDTH 32 0
BBX 32 24 0 0
BITMAP
0000FFFF
0001FFFF
0003FFFF
00073F03
000E3E00
000E3E00
001C3E00
00387E00
00387C00
00707C0C
00E07FFC
01E07FF8
01C0FFF8
0380FC18
03FFFC00
07FFFC00
0FFFF800
0E00F800
1E01F800
1C01F803
3C01F80E
7803FFFE
FC07FFFC
FC07FFFC
ENDCHAR

STARTCHAR Ccedilla
ENCODING 199
SWIDTH 780 0
DWIDTH 25 0
BBX 24 31 3 -7
BITMAP
001FE0
00FFF8
03F87E
07E01F
0FC00F
1F800E
3F0006
3F0006
7E0000
7E0000
FE0000
FC0000
FC0000
FC0000
FC0000
FC0000
FC0000
7E0008
7E001C
3F0038
1FC0F0
0FFFE0
07FF80
01FE00
003000
003000
003E00
000F00
000700
038F00
01FE00
ENDCHAR

STARTCHAR Egrave
ENCODING 200
SWIDTH 700 0
DWIDTH 22 0
BBX 22 31 2 0
BITMAP
003C00
003E00
001E00
000E00
000700
000300
000000
0FFFFC
0FFFFC
07FFFC
07E00C
07C00C
07C000
0FC000
0FC000
0F8000
0F80C0
0FFFC0
0FFF80
1FFF80
1F8180
1F8000
1F8000
1F8000
1F0000
3F0000
3F0018
3F0070
7FFFF0
FFFFE0
FFFFE0
ENDCHAR

STARTCHAR Eacute
ENCODING 201
SWIDTH 700 0
DWIDTH 22 0
BBX 22 31 2 0
BITMAP
0003C0
0007C0
000780
000700
000E00
000C00
000000
0FFFFC
0FFFFC
07FFFC
07E00C
07C00C
07C000
0FC000
0FC000
0F8000
0F80C0
0FFFC0
0FFF80
1FFF80
1F8180
1F8000
1F8000
1F8000
1F0000
3F0000
3F0018
3F0070
7FFFF0
FFFFE0
FFFFE0
ENDCHAR

STARTCHAR Ecircumflex
ENCODING 202
SWIDTH 700 0
DWIDTH 22 0
BBX 22 31 2 0
BITMAP
000600
000F00
001F80
003FC0
0070E0
006060
000000
0FFFFC
0FFFFC
07FFFC
07E00C
07C00C
07C000
0FC000
0FC000
0F8000
0F80C0
0FFFC0
0FFF80
1FFF80
1F8180
1F8000
1F8000
1F8000
1F0000
3F0000
3F0018
3F0070
7FFFF0
FFFFE0
FFFFE0
ENDCHAR

STARTCHAR Edieresis
ENCODING 203
SWIDTH 700 0
DWIDTH 22 0
BBX 22 31 2 0
BITMAP
00E0E0
01F1F0
01F1F0
01F1F0
00E0E0
000000
000000
0FFFFC
0FFFFC
07FFFC
07E00C
07C00C
07C000
0FC000
0FC000
0F8000
0F80C0
0FFFC0
0FFF80
1FFF80
1F8180
1F8000
1F8000
1F8000
1F0000
3F0000
3F0018
3F0070
7FFFF0
FFFFE0
FFFFE0
ENDCHAR

STARTCHAR Igrave
ENCODING 204
SWIDTH 400 0
DWIDTH 13 0
BBX 12 31 2 0
BITMAP
0780
07C0
03C0
01C0
00E0
0060
0000
0FF0
0FF0
07E0
07E0
07C0
0FC0
0FC0
0FC0
0FC0
0F80
0F80
0F80
1F80
1F80
1F80
1F00
1F00
1F00
3F00
3F00
3F00
7F00
FF80
FF80
ENDCHAR

STARTCHAR Iacute
ENCODING 205
SWIDTH 400 0
DWIDTH 13 0
BBX 13 31 2 0
BITMAP
0078
00F8
00F0
00E0
01C0
0180
0000
0FF0
0FF0
07E0
07E0
07C0
0FC0
0FC0
0FC0
0FC0
0F80
0F80
0F80
1F80
1F80
1F80
1F00
1F00
1F00
3F00
3F00
3F00
7F00
FF80
FF80
ENDCHAR

STARTCHAR Icircumflex
ENCODING 206
SWIDTH 400 0
DWIDTH 13 0
BBX 13 31 2 0
BITMAP
0180
03C0
07E0
0FF0
1C38
1818
0000
0FF0
0FF0
07E0
07E0
07C0
0FC0
0FC0
0FC0
0FC0
0F80
0F80
0F80
1F80
1F80
1F80
1F00
1F00
1F00
3F00
3F00
3F00
7F00
FF80
FF80
ENDCHAR

STARTCHAR Idieresis
ENCODING 207
SWIDTH 400 0
DWIDTH 13 0
BBX 15 31 2 0
BITMAP
1C1C
3E3E
3E3E
3E3E
1C1C
0000
0000
0FF0
0FF0
07E0
07E0
07C0
0FC0
0FC0
0FC0
0FC0
0F80
0F80
0F80
1F80
1F80
1F80
1F00
1F00
1F00
3F00
3F00
3F00
7F00
FF80
FF80
ENDCHAR

STARTCHAR Eth
ENCODING 208
SWIDTH 860 0
DWIDTH 28 0
BBX 27 24 2 0
BITMAP
0FFFF000
0FFFFE00
07FFFF00
07E03F80
07E01FC0
07E00FC0
07E00FE0
07C007E0
0FC007E0
0FC007E0
0FC007E0
7FFC07E0
FFFE07E0
7FFC07E0
1F800FE0
1F800FC0
1F800FC0
1F801F80
1F003F00
3F007E00
3F01FC00
7FFFF800
FFFFE000
FFFF0000
ENDCHAR

STARTCHAR Ntilde
ENCODING 209
SWIDTH 800 0
DWIDTH 25 0
BBX 26 30 2 0
BITMAP
00070800
000FF800
001FF000
0010E000
00000000
00000000
0FE00FC0
0FE00FC0
07F00780
07F00700
07F80700
07FC0700
0EFC0700
0EFE0700
0E7E0600
0E3F0E00
0C3F0E00
0C1F8E00
1C1F8E00
1C0FCE00
1C0FCC00
1C07EC00
1807FC00
1803FC00
3803FC00
3801F800
3801F800
7800F800
FC00F800
FC007800
ENDCHAR

STARTCHAR Ograve
ENCODING 210
SWIDTH 860 0
DWIDTH 27 0
BBX 26 31 3 0
BITMAP
001E0000
001F0000
000F0000
00070000
00038000
00018000
00000000
003FE000
00FFF800
03F8FE00
07E03F00
0FC01F00
1F801F80
3F000F80
3F000FC0
7E000FC0
7E000FC0
FE000FC0
FC000FC0
FC000FC0
FC001F80
FC001F80
FC001F80
FC003F00
7C003F00
7E007E00
3E00FC00
3F01F800
1FC7F000
07FFC000
01FF0000
ENDCHAR

STARTCHAR Oacute
ENCODING 211
SWIDTH 860 0
DWIDTH 27 0
BBX 26 31 3 0
BITMAP
0001E000
0003E000
0003C000
00038000
00070000
00060000
00000000
003FE000
00FFF800
03F8FE00
07E03F00
0FC01F00
1F801F80
3F000F80
3F000FC0
7E000FC0
7E000FC0
FE000FC0
FC000FC0
FC000FC0
FC001F80
FC001F80
FC001F80
FC003F00
7C003F00
7E007E00
3E00FC00
3F01F800
1FC7F000
07FFC000
01FF0000
ENDCHAR

STARTCHAR Ocircumflex
ENCODING 212
SWIDTH 860 0
DWIDTH 27 0
BBX 26 31 3 0
BITMAP
00030000
00078000
000FC000
001FE000
00387000
00303000
00000000
003FE000
00FFF800
03F8FE00
07E03F00
0FC01F00
1F801F80
3F000F80
3F000FC0
7E000FC0
7E000FC0
FE000FC0
FC000FC0
FC000FC0
FC001F80
FC001F80
FC001F80
FC003F00
7C003F00
7E007E00
3E00FC00
3F01F800
1FC7F000
07FFC000
01FF0000
ENDCHAR

STARTCHAR Otilde
ENCODING 213
SWIDTH 860 0
DWIDTH 27 0
BBX 26 30 3 0
BITMAP
00070800
000FF800
001FF000
0010E000
00000000
00000000
003FE000
00FFF800
03F8FE00
07E03F00
0FC01F00
1F801F80
3F000F80
3F000FC0
7E000FC0
7E000FC0
FE000FC0
FC000FC0
FC000FC0
FC001F80
FC001F80
FC001F80
FC003F00
7C003F00
7E007E00
3E00FC00
3F01F800
1FC7F000
07FFC000
01FF0000
ENDCHAR

STARTCHAR Odieresis
ENCODING 214
SWIDTH 860 0
DWIDTH 27 0
BBX 26 31 3 0
BITMAP
001C1C00
003E3E00
003E3E00
003E3E00
001C1C00
00000000
00000000
003FE000
00FFF800
03F8FE00
07E03F00
0FC01F00
1F801F80
3F000F80
3F000FC0
7E000FC0
7E000FC0
FE000FC0
FC000FC0
FC000FC0
FC001F80
FC001F80
FC001F80
FC003F00
7C003F00
7E007E00
3E00FC00
3F01F800
1FC7F000
07FFC000
01FF0000
ENDCHAR

STARTCHAR multiply
ENCODING 215
SWIDTH 660 0
DWIDTH 21 0
BBX 17 17 4 1
BITMAP
200200
700700
F80F80
7C1F00
3E3E00
1F7C00
0FF800
07F000
03E000
07F000
0FF800
1F7C00
3E3E00
7C1F00
F80F80
700700
200200
ENDCHAR

STARTCHAR Oslash
ENCODING 216
SWIDTH 860 0
DWIDTH 28 0
BBX 26 24 3 0
BITMAP
003FE1C0
00FFFB80
03F0FF00
07C03F00
0F801F80
1F803F80
3F007F80
3E00EFC0
7E01CFC0
7E038FC0
7C070FC0
FC0E0FC0
FC1C0FC0
FC380FC0
FC701F80
FCE01F80
FDC01F00
7F803F00
7F003E00
3E007C00
3F00F800
3FC3F000
77FFC000
E0FF0000
ENDCHAR

STARTCHAR Ugrave
ENCODING 217
SWIDTH 800 0
DWIDTH 25 0
BBX 24 31 4 0
BITMAP
003C00
003E00
001E00
000E00
000700
000300
000000
3FC03F
3FC03F
1F801E
1F001C
1F001C
3F001C
3F001C
3E0038
3E0038
7E0038
7E0038
7E0038
7C0038
7C0038
FC0030
FC0070
FC0070
FC0070
FC00E0
7C00E0
7E01C0
3F8780
1FFF00
07FC00
ENDCHAR

STARTCHAR Uacute
ENCODING 218
SWIDTH 800 0
DWIDTH 25 0
BBX 24 31 4 0
BITMAP
0003C0
0007C0
000780
000700
000E00
000C00
000000
3FC03F
3FC03F
1F801E
1F001C
1F001C
3F001C
3F001C
3E0038
3E0038
7E0038
7E0038
7E0038
7C0038
7C0038
FC0030
FC0070
FC0070
FC0070
FC00E0
7C00E0
7E01C0
3F8780
1FFF00
07FC00
ENDCHAR

STARTCHAR Ucircumflex
ENCODING 219
SWIDTH 800 0
DWIDTH 25 0
BBX 24 31 4 0
BITMAP
000600
000F00
001F80
003FC0
0070E0
006060
000000
3FC03F
3FC03F
1F801E
1F001C
1F001C
3F001C
3F001C
3E0038
3E0038
7E0038
7E0038
7E0038
7C0038
7C0038
FC0030
FC0070
FC0070
FC0070
FC00E0
7C00E0
7E01C0
3F8780
1FFF00
07FC00
ENDCHAR

STARTCHAR Udieresis
ENCODING 220
SWIDTH 800 0
DWIDTH 25 0
BBX 24 31 4 0
BITMAP
007070
00F8F8
00F8F8
00F8F8
007070
000000
000000
3FC03F
3FC03F
1F801E
1F001C
1F001C
3F001C
3F001C
3E0038
3E0038
7E0038
7E0038
7E0038
7C0038
7C0038
FC0030
FC0070
FC0070
FC0070
FC00E0
7C00E0
7E01C0
3F8780
1FFF00
07FC00
ENDCHAR

STARTCHAR Yacute
ENCODING 221
SWIDTH 740 0
DWIDTH 23 0
BBX 25 31 3 0
BITMAP
0003C000
0007C000
00078000
00070000
000E0000
000C0000
00000000
FFC03F80
FFC03F80
7F001F00
3F001E00
3F803C00
1F807800
1F807000
0FC0E000
0FC1C000
07E38000
07E78000
03FF0000
03FE0000
01FC0000
01F80000
01F80000
01F80000
01F80000
01F80000
01F80000
01F80000
03F80000
07FC0000
07FC0000
ENDCHAR

STARTCHAR Thorn
ENCODING 222
SWIDTH 720 0
DWIDTH 23 0
BBX 23 24 2 0
BITMAP
07F000
07F000
03E000
03C000
07C000
07FFE0
07FFF8
07E1FC
07C0FE
0FC07E
0F807E
0F807E
0F807C
0F80FC
1F01F8
1F03F0
1F1FE0
1FFF80
3FF800
3F0000
3E0000
7E0000
FF8000
FF8000
ENDCHAR

STARTCHAR germandbls
ENCODING 223
SWIDTH 640 0
DWIDTH 20 0
BBX 20 24 2 0
BITMAP
007F00
01FFC0
03E3E0
07C1F0
07C1F0
0F81F0
0F81F0
0F83E0
0F87C0
1F8F00
1F0E00
1F1F00
1F1F00
1F1F80
1F1F80
3E0FC0
3E0FC0
3E07E0
3E07E0
3E07E0
7E07C0
7CE7C0
FCFF80
FC7E00
ENDCHAR

STARTCHAR agrave
ENCODING 224
SWIDTH 640 0
DWIDTH 20 0
BBX 18 23 2 0
BITMAP
03C000
03E000
01E000
00E000
007000
003000
000000
01F1C0
07FFC0
1F9F80
3E0F80
3E0F80
7C0F80
7C0F80
F80F00
F81F00
F81F00
F83F00
F87F00
7CFFC0
7FDFC0
3F9F00
1E0C00
ENDCHAR

STARTCHAR aacute
ENCODING 225
SWIDTH 640 0
DWIDTH 20 0
BBX 18 23 2 0
BITMAP
001E00
003E00
003C00
003800
007000
006000
000000
01F1C0
07FFC0
1F9F80
3E0F80
3E0F80
7C0F80
7C0F80
F80F00
F81F00
F81F00
F83F00
F87F00
7CFFC0
7FDFC0
3F9F00
1E0C00
ENDCHAR

STARTCHAR acircumflex
ENCODING 226
SWIDTH 640 0
DWIDTH 20 0
BBX 18 23 2 0
BITMAP
006000
00F000
01F800
03FC00
070E00
060600
000000
01F1C0
07FFC0
1F9F80
3E0F80
3E0F80
7C0F80
7C0F80
F80F00
F81F00
F81F00
F83F00
F87F00
7CFFC0
7FDFC0
3F9F00
1E0C00
ENDCHAR

STARTCHAR atilde
ENCODING 227
SWIDTH 640 0
DWIDTH 20 0
BBX 18 22 2 0
BITMAP
00E100
01FF00
03FE00
021C00
000000
000000
01F1C0
07FFC0
1F9F80
3E0F80
3E0F80
7C0F80
7C0F80
F80F00
F81F00
F81F00
F83F00
F87F00
7CFFC0
7FDFC0
3F9F00
1E0C00
ENDCHAR

STARTCHAR adieresis
ENCODING 228
SWIDTH 640 0
DWIDTH 20 0
BBX 18 23 2 0
BITMAP
070700
0F8F80
0F8F80
0F8F80
070700
000000
000000
01F1C0
07FFC0
1F9F80
3E0F80
3E0F80
7C0F80
7C0F80
F80F00
F81F00
F81F00
F83F00
F87F00
7CFFC0
7FDFC0
3F9F00
1E0C00
ENDCHAR

STARTCHAR aring
ENCODING 229
SWIDTH 640 0
DWIDTH 20 0
BBX 18 24 2 0
BITMAP
007000
00F800
018C00
018C00
018C00
00F800
007000
000000
01F1C0
07FFC0
1F9F80
3E0F80
3E0F80
7C0F80
7C0F80
F80F00
F81F00
F81F00
F83F00
F87F00
7CFFC0
7FDFC0
3F9F00
1E0C00
ENDCHAR

STARTCHAR ae
ENCODING 230
SWIDTH 900 0
DWIDTH 29 0
BBX 28 16 2 0
BITMAP
07F83F80
1FFCFFE0
3F1FF3F0
3C0FC1F0
180F81F0
000F83E0
03FF07C0
1FFF1F80
3F1FFE00
7C1FF000
781F0000
F83F8060
F87FC1E0
7FF7FFC0
7FE3FF00
1F80FC00
ENDCHAR

STARTCHAR ccedilla
ENCODING 231
SWIDTH 540 0
DWIDTH 17 0
BBX 15 23 2 -7
BITMAP
01F8
07FC
1F1E
3E1E
7E0E
7C00
FC00
F800
F800
F800
F800
F80C
7C1C
7FF8
1FF0
0FC0
0600
0600
07C0
01E0
00E0
71E0
3FC0
ENDCHAR

STARTCHAR egrave
ENCODING 232
SWIDTH 580 0
DWIDTH 18 0
BBX 17 23 2 0
BITMAP
078000
07C000
03C000
01C000
00E000
006000
000000
01FC00
07FF00
1F8F80
3E0F80
7C0F80
7C1F00
F83E00
FFFC00
FFE000
F80000
F80000
F80300
7C0F00
7FFE00
1FF800
07E000
ENDCHAR

STARTCHAR eacute
ENCODING 233
SWIDTH 580 0
DWIDTH 18 0
BBX 17 23 2 0
BITMAP
003C00
007C00
007800
007000
00E000
00C000
000000
01FC00
07FF00
1F8F80
3E0F80
7C0F80
7C1F00
F83E00
FFFC00
FFE000
F80000
F80000
F80300
7C0F00
7FFE00
1FF800
07F000
ENDCHAR

STARTCHAR ecircumflex
ENCODING 234
SWIDTH 580 0
DWIDTH 18 0
BBX 17 23 2 0
BITMAP
006000
00F000
01F800
03FC00
070E00
060600
000000
01FC00
07FF00
1F8F00
3E0F80
3C0F80
7C1F00
F83E00
FFFC00
FFE000
F80000
F80000
F80300
7C0F00
7FFC00
1FF800
07C000
ENDCHAR

STARTCHAR edieresis
ENCODING 235
SWIDTH 580 0
DWIDTH 18 0
BBX 17 23 2 0
BITMAP
070700
0F8F80
0F8F80
0F8F80
070700
000000
000000
01FC00
07FF00
1F8F00
3E0F80
3C0F80
7C1F00
F83E00
FFFC00
FFE000
F80000
F80000
F80300
7C0F00
7FFC00
1FF800
07C000
ENDCHAR

STARTCHAR igrave
ENCODING 236
SWIDTH 340 0
DWIDTH 11 0
BBX 7 23 3 0
BITMAP
F0
F8
78
38
1C
0C
00
0E
3E
FE
FE
7C
7C
7C
7C
78
78
F8
F8
FE
FE
F8
E0
ENDCHAR

STARTCHAR iacute
ENCODING 237
SWIDTH 340 0
DWIDTH 11 0
BBX 8 23 3 0
BITMAP
0F
1F
1E
1C
38
30
00
0E
3E
FE
FC
7C
7C
7C
7C
78
78
F8
F8
FE
FE
F8
E0
ENDCHAR

STARTCHAR icircumflex
ENCODING 238
SWIDTH 340 0
DWIDTH 11 0
BBX 10 23 2 0
BITMAP
0C00
1E00
3F00
7F80
E1C0
C0C0
0000
0700
1F00
7F00
7E00
3E00
3E00
3E00
3E00
3C00
3C00
7C00
7C00
7F00
7F00
7C00
7000
ENDCHAR

STARTCHAR idieresis
ENCODING 239
SWIDTH 340 0
DWIDTH 11 0
BBX 13 23 1 0
BITMAP
7070
F8F8
F8F8
F8F8
7070
0000
0000
0380
0F80
3F80
3F00
1F00
1F00
1F00
1F00
1E00
1E00
3E00
3E00
3F80
3F80
3E00
3800
ENDCHAR

STARTCHAR eth
ENCODING 240
SWIDTH 640 0
DWIDTH 20 0
BBX 18 26 2 0
BITMAP
003800
7C7000
7FE000
07E000
07F800
0E7C00
1C3E00
381F00
000F00
000780
03F380
0FFFC0
1F1FC0
3E0FC0
7C07C0
7C07C0
FC07C0
F807C0
F807C0
F80FC0
F80F80
F80F00
7C1F00
7E3E00
1FF800
07E000
ENDCHAR

STARTCHAR ntilde
ENCODING 241
SWIDTH 680 0
DWIDTH 22 0
BBX 18 22 3 0
BITMAP
01C200
03FE00
07FC00
043800
000000
000000
0C1E00
3E7F00
FEFF80
FFCF80
3F8F80
3F0F80
3E0F80
3E0F00
3C0F00
7C1F00
7C1F00
7C1F00
7C1FC0
781FC0
F81F00
F81C00
ENDCHAR

STARTCHAR ograve
ENCODING 242
SWIDTH 640 0
DWIDTH 20 0
BBX 18 23 2 0
BITMAP
03C000
03E000
01E000
00E000
007000
003000
000000
03F800
0FFE00
1F1F00
3E0F80
7C0780
7C07C0
FC07C0
F807C0
F807C0
F80FC0
F80F80
F80F80
7C1F00
7E3E00
1FFC00
07F000
ENDCHAR

STARTCHAR oacute
ENCODING 243
SWIDTH 640 0
DWIDTH 20 0
BBX 18 23 2 0
BITMAP
003C00
007C00
007800
007000
00E000
00C000
000000
03F800
0FFE00
1F1F00
3E0F80
7C0780
7C07C0
FC07C0
F807C0
F807C0
F80FC0
F80F80
F80F80
7C1F00
7E3E00
1FFC00
07F000
ENDCHAR

STARTCHAR ocircumflex
ENCODING 244
SWIDTH 640 0
DWIDTH 20 0
BBX 18 23 2 0
BITMAP
006000
00F000
01F800
03FC00
070E00
060600
000000
03F800
0FFE00
1F1F00
3E0F80
7C0780
7C07C0
FC07C0
F807C0
F807C0
F80FC0
F80F80
F80F80
7C1F00
7E3E00
1FFC00
07F000
ENDCHAR

STARTCHAR otilde
ENCODING 245
SWIDTH 640 0
DWIDTH 20 0
BBX 18 22 2 0
BITMAP
01C200
03FE00
07FC00
043800
000000
000000
03F800
0FFE00
1F1F00
3E0F80
7C0780
7C07C0
FC07C0
F807C0
F807C0
F80FC0
F80F80
F80F80
7C1F00
7E3E00
1FFC00
07F000
ENDCHAR

STARTCHAR odieresis
ENCODING 246
SWIDTH 640 0
DWIDTH 20 0
BBX 18 23 2 0
BITMAP
0E0E00
1F1F00
1F1F00
1F1F00
0E0E00
000000
000000
03F800
0FFE00
1F1F00
3E0F80
7C0780
7C07C0
FC07C0
F807C0
F807C0
F80FC0
F80F80
F80F80
7C1F00
7E3E00
1FFC00
07F000
ENDCHAR

STARTCHAR divide
ENCODING 247
SWIDTH 660 0
DWIDTH 21 0
BBX 17 19 4 0
BITMAP
01C000
03E000
03E000
03E000
01C000
000000
000000
000000
FFFF80
FFFF80
FFFF80
000000
000000
000000
01C000
03E000
03E000
03E000
01C000
ENDCHAR

STARTCHAR oslash
ENCODING 248
SWIDTH 640 0
DWIDTH 20 0
BBX 18 18 2 -1
BITMAP
0000C0
01F9C0
0FFF80
1F1F00
3E0F80
3C1F80
7C3FC0
7877C0
F8E7C0
F9C7C0
FB87C0
FF0F80
FE0F80
7C1F00
3E3E00
7FFC00
E7E000
C00000
ENDCHAR

STARTCHAR ugrave
ENCODING 249
SWIDTH 680 0
DWIDTH 22 0
BBX 17 23 4 0
BITMAP
078000
07C000
03C000
01C000
00E000
006000
000000
0E0F80
3E0F80
FE0F80
FC0F80
7C0F80
7C1F00
7C1F00
7C1F00
7C1F00
F83F00
F83F00
F87F00
FCFF80
FFDF80
7F9E00
3E1800
ENDCHAR

STARTCHAR uacute
ENCODING 250
SWIDTH 680 0
DWIDTH 22 0
BBX 17 23 3 0
BITMAP
003C00
007C00
007800
007000
00E000
00C000
000000
0E0F80
3E0F80
FE0F80
FC0F80
7C0F80
7C1F00
7C1F00
7C1F00
7C1F00
F83F00
F83F00
F87F00
FCFF80
FFDF80
7F9E00
3E1800
ENDCHAR

STARTCHAR ucircumflex
ENCODING 251
SWIDTH 680 0
DWIDTH 22 0
BBX 17 23 3 0
BITMAP
00C000
01E000
03F000
07F800
0E1C00
0C0C00
000000
0E0F80
3E0F80
FE0F80
FC0F80
7C0F80
7C1F00
7C1F00
7C1F00
7C1F00
F83F00
F83F00
F87F00
FCFF80
FFDF80
7F9E00
3E1800
ENDCHAR

STARTCHAR udieresis
ENCODING 252
SWIDTH 680 0
DWIDTH 22 0
BBX 17 23 3 0
BITMAP
0E0E00
1F1F00
1F1F00
1F1F00
0E0E00
000000
000000
0E0F80
3E0F80
FE0F80
FC0F80
7C0F80
7C1F00
7C1F00
7C1F00
7C1F00
F83F00
F83F00
F87F00
FCFF80
FFDF80
7F9E00
3E1800
ENDCHAR

STARTCHAR yacute
ENCODING 253
SWIDTH 560 0
DWIDTH 18 0
BBX 17 29 1 -6
BITMAP
001E00
003E00
003C00
003800
007000
006000
000000
0F0300
7F0780
7F0780
3F0780
3E0380
3E0380
3E0380
3E0300
3E0700
3E0600
3E0E00
3F0C00
3F1C00
1FF800
1FF000
0E7000
00E000
01C000
678000
FF0000
FC0000
700000
ENDCHAR

STARTCHAR thorn
ENCODING 254
SWIDTH 660 0
DWIDTH 21 0
BBX 21 28 0 -5
BITMAP
006000
03E000
0FE000
0FE000
03E000
03C000
03C000
03CFC0
07DFF0
07FFF0
07F1F8
07E0F8
07C0F8
0FC0F8
0F80F8
0F80F8
0F81F0
0F81F0
1F03E0
1F07E0
1F7FC0
1F7F00
1E3C00
3E0000
3E0000
7E0000
FF0000
FF0000
ENDCHAR

STARTCHAR ydieresis
ENCODING 255
SWIDTH 560 0
DWIDTH 18 0
BBX 17 29 1 -6
BITMAP
070700
0F8F80
0F8F80
0F8F80
070700
000000
000000
0F0300
7F0780
7F0780
3F0780
3E0380
3E0380
3E0380
3E0300
3E0700
3E0600
3E0E00
3F0C00
3F9C00
1FF800
1FF000
0E7000
00E000
01C000
678000
FF0000
FC0000
700000
ENDCHAR

ENDFONT
