STARTFONT 2.1
FONT -Adobe-ITC Souvenir-Light-I-Normal--34-240-100-100-P-177-ISO8859-1
SIZE 24 100 100
FONTBOUNDINGBOX 47 37 -6 -7

STARTPROPERTIES 25
FONTNAME_REGISTRY ""
FAMILY_NAME "ITC Souvenir"
FOUNDRY "Adobe"
WEIGHT_NAME "Light"
SLANT "I"
SETWIDTH_NAME "Normal"
ADD_STYLE_NAME ""
PIXEL_SIZE 34
POINT_SIZE 240
RESOLUTION_X 100
RESOLUTION_Y 100
SPACING "P"
AVERAGE_WIDTH 177
CHARSET_REGISTRY "ISO8859"
CHARSET_ENCODING "1"
CHARSET_COLLECTIONS "ASCII ISO8859-1 ADOBE-STANDARD"
FULL_NAME "ITC Souvenir Light Italic"
COPYRIGHT "Copyright (c) 1987 Adobe Systems, Inc., Portions Copyright 1988 Digital Equipment Corp."
CAP_HEIGHT 24
X_HEIGHT 15
WEIGHT 10
QUAD_WIDTH 19
DEFAULT_CHAR 32
FONT_DESCENT 6
FONT_ASCENT 27
ENDPROPERTIES

CHARS 190

STARTCHAR space
ENCODING 32
SWIDTH 300 0
DWIDTH 10 0
BBX 1 1 0 0
BITMAP
00
ENDCHAR

STARTCHAR exclam
ENCODING 33
SWIDTH 300 0
DWIDTH 10 0
BBX 6 24 2 0
BITMAP
0C
1C
1C
1C
1C
1C
18
18
38
38
30
30
30
30
30
20
20
20
00
00
60
E0
E0
C0
ENDCHAR

STARTCHAR quotedbl
ENCODING 34
SWIDTH 360 0
DWIDTH 12 0
BBX 10 11 3 14
BITMAP
30C0
71C0
71C0
6180
6180
6180
6380
C300
C300
C300
C300
ENDCHAR

STARTCHAR numbersign
ENCODING 35
SWIDTH 600 0
DWIDTH 19 0
BBX 18 19 1 3
BITMAP
002080
006180
004100
00C300
008200
1FFFC0
1FFFC0
030C00
020800
061800
041000
0C3000
FFFE00
FFFE00
186000
104000
30C000
208000
618000
ENDCHAR

STARTCHAR dollar
ENCODING 36
SWIDTH 600 0
DWIDTH 19 0
BBX 17 30 1 -3
BITMAP
001800
001000
003000
01FC00
07FF00
0F0780
0C0380
1C0380
180100
180000
1C0000
1E0000
0F0000
07C000
03F000
00FC00
003E00
000E00
000700
000700
000300
600300
E00600
F00E00
7C1C00
1FF800
07E000
030000
020000
060000
ENDCHAR

STARTCHAR percent
ENCODING 37
SWIDTH 900 0
DWIDTH 28 0
BBX 26 24 2 0
BITMAP
0F800C00
18C00C00
30C01800
70603000
60603000
E0606000
E060C000
C0E0C000
C0E18000
C1C30000
C1C30E00
61863F80
630C6180
3E18E0C0
0018C0C0
0031C0C0
0061C0C0
006181C0
00C181C0
01818180
01818380
0300C300
0600FE00
06003800
ENDCHAR

STARTCHAR ampersand
ENCODING 38
SWIDTH 820 0
DWIDTH 26 0
BBX 25 24 0 0
BITMAP
001E0000
007F8000
00C1C000
0180C000
0380C000
0301C000
03018000
03830000
018E0000
01F80000
01F07F80
03E03E00
0F701C00
1C701800
38383000
701C2000
601C6000
E00EC000
E00F8000
E0078000
F00FC000
783DF000
3FF0FF00
0FC03C00
ENDCHAR

STARTCHAR quoteright
ENCODING 39
SWIDTH 300 0
DWIDTH 10 0
BBX 5 8 4 16
BITMAP
30
78
78
38
10
20
40
80
ENDCHAR

STARTCHAR parenleft
ENCODING 40
SWIDTH 260 0
DWIDTH 8 0
BBX 9 29 1 -5
BITMAP
0180
0300
0600
0600
0C00
0C00
1800
1800
3000
3000
7000
6000
6000
6000
E000
C000
C000
C000
C000
C000
C000
C000
C000
C000
C000
6000
6000
6000
3000
ENDCHAR

STARTCHAR parenright
ENCODING 41
SWIDTH 260 0
DWIDTH 8 0
BBX 8 29 -1 -5
BITMAP
0C
04
06
06
06
06
03
03
03
03
03
03
03
03
03
07
06
06
06
0E
0C
0C
18
18
30
30
60
60
C0
ENDCHAR

STARTCHAR asterisk
ENCODING 42
SWIDTH 540 0
DWIDTH 17 0
BBX 14 13 2 11
BITMAP
01C0
21C0
7180
7988
1F3C
0FF8
07E0
1F80
7FE0
F678
4638
0E10
0E00
ENDCHAR

STARTCHAR plus
ENCODING 43
SWIDTH 660 0
DWIDTH 21 0
BBX 16 16 3 0
BITMAP
0180
0180
0180
0180
0180
0180
0180
FFFF
FFFF
0180
0180
0180
0180
0180
0180
0180
ENDCHAR

STARTCHAR comma
ENCODING 44
SWIDTH 300 0
DWIDTH 9 0
BBX 5 9 0 -5
BITMAP
18
38
38
18
10
10
20
40
80
ENDCHAR

STARTCHAR minus
ENCODING 45
SWIDTH 660 0
DWIDTH 21 0
BBX 17 2 2 7
BITMAP
FFFF80
FFFF80
ENDCHAR

STARTCHAR period
ENCODING 46
SWIDTH 300 0
DWIDTH 9 0
BBX 3 4 2 0
BITMAP
60
E0
E0
C0
ENDCHAR

STARTCHAR slash
ENCODING 47
SWIDTH 220 0
DWIDTH 7 0
BBX 15 28 -4 -4
BITMAP
0006
0006
000C
000C
0018
0018
0030
0030
0060
0060
00C0
00C0
0180
0180
0300
0300
0600
0600
0C00
0C00
1800
1800
3000
3000
6000
6000
C000
C000
ENDCHAR

STARTCHAR zero
ENCODING 48
SWIDTH 600 0
DWIDTH 19 0
BBX 17 24 2 0
BITMAP
00F000
03FC00
070E00
0C0700
1C0300
180380
380380
300380
700380
700380
700380
E00380
E00380
E00700
E00700
E00700
E00600
E00E00
E00C00
601C00
701800
387000
1FE000
078000
ENDCHAR

STARTCHAR one
ENCODING 49
SWIDTH 600 0
DWIDTH 19 0
BBX 11 24 3 0
BITMAP
0060
00E0
03E0
1FC0
01C0
01C0
01C0
0180
0180
0180
0380
0380
0380
0300
0300
0300
0700
0700
0700
0600
0E00
0E00
1F00
FFE0
ENDCHAR

STARTCHAR two
ENCODING 50
SWIDTH 600 0
DWIDTH 19 0
BBX 18 24 1 0
BITMAP
007C00
01FF00
038380
0601C0
0C01C0
0C01C0
1C01C0
1E0380
0C0380
000700
000E00
001C00
003800
007000
00E000
01C000
038000
070000
0E0000
1C0100
380300
700E00
FFFE00
FFFC00
ENDCHAR

STARTCHAR three
ENCODING 51
SWIDTH 600 0
DWIDTH 19 0
BBX 17 24 1 0
BITMAP
00F800
03FE00
070700
0E0380
0C0380
0E0380
060380
000700
000600
001C00
007000
03F000
003C00
000E00
000700
000700
000700
600700
E00E00
E00E00
E01C00
703800
3FF000
0FC000
ENDCHAR

STARTCHAR four
ENCODING 52
SWIDTH 600 0
DWIDTH 19 0
BBX 17 24 1 0
BITMAP
000E00
001E00
003600
006600
00C600
018E00
038E00
030C00
060C00
0C0C00
181C00
181C00
301800
601800
601800
C03800
FFFF80
FFFF80
003800
003000
007000
007000
00F800
01FC00
ENDCHAR

STARTCHAR five
ENCODING 53
SWIDTH 600 0
DWIDTH 19 0
BBX 16 24 1 0
BITMAP
07FF
07FE
07F8
0400
0C00
0C00
0C00
0800
1800
1BF0
1FFC
1C1E
180E
0007
0007
0007
0007
0007
600E
E00E
E01C
7878
3FE0
0780
ENDCHAR

STARTCHAR six
ENCODING 54
SWIDTH 600 0
DWIDTH 19 0
BBX 17 24 1 0
BITMAP
000F80
003C00
00F000
01C000
038000
070000
0E0000
1C0000
380000
38F800
73FE00
7F0F00
7C0700
F00380
F00380
E00380
E00380
E00300
E00700
600600
700E00
383C00
1FF000
07C000
ENDCHAR

STARTCHAR seven
ENCODING 55
SWIDTH 600 0
DWIDTH 19 0
BBX 16 25 4 -1
BITMAP
3FFF
7FFE
7FFE
C00C
800C
0018
0018
0030
0030
0060
00E0
00C0
01C0
0180
0380
0700
0600
0E00
0E00
1C00
1C00
3800
3800
7000
7000
ENDCHAR

STARTCHAR eight
ENCODING 56
SWIDTH 600 0
DWIDTH 19 0
BBX 19 24 1 0
BITMAP
00FE00
03FF80
0701C0
0E00C0
0C00E0
1C00E0
1C00C0
0E01C0
0F8380
03CE00
01F800
01F800
073C00
1C1E00
380E00
700700
600700
E00300
E00300
E00700
700600
781E00
3FF800
0FE000
ENDCHAR

STARTCHAR nine
ENCODING 57
SWIDTH 600 0
DWIDTH 19 0
BBX 16 24 3 0
BITMAP
01E0
07F8
1E1C
380E
3006
7007
6007
E007
E007
E00F
E00F
601E
703E
3FEE
0F8C
001C
0038
0038
0070
00E0
03C0
0F00
3E00
F000
ENDCHAR

STARTCHAR colon
ENCODING 58
SWIDTH 300 0
DWIDTH 9 0
BBX 4 13 2 0
BITMAP
30
70
70
60
00
00
00
00
00
60
E0
E0
C0
ENDCHAR

STARTCHAR semicolon
ENCODING 59
SWIDTH 300 0
DWIDTH 9 0
BBX 5 18 1 -5
BITMAP
18
38
38
30
00
00
00
00
00
00
30
70
70
30
20
20
40
80
ENDCHAR

STARTCHAR less
ENCODING 60
SWIDTH 660 0
DWIDTH 21 0
BBX 17 18 2 -1
BITMAP
000180
000780
001E00
007800
01E000
078000
1E0000
780000
E00000
E00000
780000
1E0000
078000
01E000
007800
001E00
000780
000180
ENDCHAR

STARTCHAR equal
ENCODING 61
SWIDTH 660 0
DWIDTH 21 0
BBX 17 7 2 5
BITMAP
FFFF80
FFFF80
000000
000000
000000
FFFF80
FFFF80
ENDCHAR

STARTCHAR greater
ENCODING 62
SWIDTH 660 0
DWIDTH 21 0
BBX 17 18 2 -1
BITMAP
C00000
F00000
3C0000
0F0000
03C000
00F000
003C00
000F00
000380
000380
000F00
003C00
00F000
03C000
0F0000
3C0000
F00000
C00000
ENDCHAR

STARTCHAR question
ENCODING 63
SWIDTH 420 0
DWIDTH 13 0
BBX 12 24 3 0
BITMAP
1F80
71C0
6060
E060
C070
0070
0070
00E0
00E0
01C0
0380
0E00
3C00
3000
6000
6000
4000
4000
0000
0000
6000
E000
E000
C000
ENDCHAR

STARTCHAR at
ENCODING 64
SWIDTH 820 0
DWIDTH 26 0
BBX 24 24 1 0
BITMAP
007FC0
01C070
070018
0C000C
180006
301E72
207363
60C1E1
41C1C1
C381C1
830181
870181
870383
860302
860706
860E0C
C70E18
433670
61E3C2
30000C
180018
0E0070
0383C0
00FE00
ENDCHAR

STARTCHAR A
ENCODING 65
SWIDTH 740 0
DWIDTH 23 0
BBX 23 24 -1 0
BITMAP
000100
000300
000780
000F80
000DC0
0019C0
0031C0
0060E0
0060E0
00C0E0
00C0E0
018070
030070
030070
07FFF0
07FFF8
0C0038
0C0038
180038
180038
30001C
30001C
70003C
F8007E
ENDCHAR

STARTCHAR B
ENCODING 66
SWIDTH 680 0
DWIDTH 22 0
BBX 20 24 0 0
BITMAP
0FFF00
07FFC0
0700E0
070060
070070
070070
060070
0600E0
0E00E0
0E0380
0E0F00
0E7E00
0FE780
0F81E0
1C00E0
1C0070
1C0070
1C0070
180070
3800E0
3801E0
380FC0
7FFF00
FFF000
ENDCHAR

STARTCHAR C
ENCODING 67
SWIDTH 720 0
DWIDTH 23 0
BBX 21 24 1 0
BITMAP
003F80
00FFE0
03C078
070038
0E0018
1C0010
380010
380000
700000
700000
F00000
E00000
E00000
E00000
E00000
E00000
E00000
E00000
700030
700060
3800C0
1E0380
0FFF00
03FC00
ENDCHAR

STARTCHAR D
ENCODING 68
SWIDTH 760 0
DWIDTH 24 0
BBX 24 24 0 0
BITMAP
0FFF80
07FFF0
070078
07001C
07000E
07000E
060007
060007
0E0007
0E0007
0E0007
0E0007
0C0007
0C0007
0C000E
1C000E
1C001C
1C001C
1C0038
180070
3800E0
3803C0
7FFF80
FFFC00
ENDCHAR

STARTCHAR E
ENCODING 69
SWIDTH 660 0
DWIDTH 21 0
BBX 20 24 0 0
BITMAP
0FFFF0
07FFF0
070030
070010
070000
070000
060000
060000
0E0000
0E0080
0FFF80
0FFF00
0C0100
0C0000
1C0000
1C0000
1C0000
180000
180000
380000
380020
3800E0
7FFFC0
FFFFC0
ENDCHAR

STARTCHAR F
ENCODING 70
SWIDTH 580 0
DWIDTH 18 0
BBX 18 24 1 0
BITMAP
1FFFC0
0FFFC0
0E00C0
0E0040
0E0000
0E0000
0C0000
0C0000
1C0000
1C0000
1C0200
1FFE00
1FFC00
180400
180000
380000
380000
380000
300000
300000
700000
700000
780000
FC0000
ENDCHAR

STARTCHAR G
ENCODING 71
SWIDTH 760 0
DWIDTH 24 0
BBX 22 24 1 0
BITMAP
003F80
00FFF0
03C07C
07001C
0E000C
1C0008
380008
380000
700000
700000
E00000
E00000
E003FC
E003FC
E0003C
E00038
E00038
700038
700038
380038
3C0078
1F01E0
07FF80
01FC00
ENDCHAR

STARTCHAR H
ENCODING 72
SWIDTH 820 0
DWIDTH 26 0
BBX 27 24 0 0
BITMAP
0FC007E0
078003C0
07000380
07000380
07000380
07000380
06000300
06000700
0E000700
0E000700
0FFFFF00
0FFFFF00
0C000600
0C000600
1C000E00
1C000E00
1C000E00
1C000E00
18000C00
18000C00
38001C00
38001C00
7C003E00
FE007F00
ENDCHAR

STARTCHAR I
ENCODING 73
SWIDTH 300 0
DWIDTH 9 0
BBX 10 24 0 0
BITMAP
0FC0
0780
0700
0700
0700
0600
0600
0600
0E00
0E00
0E00
0C00
0C00
0C00
0C00
1C00
1C00
1C00
1800
1800
3800
3800
7C00
FE00
ENDCHAR

STARTCHAR J
ENCODING 74
SWIDTH 500 0
DWIDTH 16 0
BBX 17 24 0 0
BITMAP
003F80
000F00
000E00
000E00
000E00
000E00
000C00
001C00
001C00
001C00
001C00
001800
001800
003800
003800
003800
383800
783000
C03000
C07000
C06000
E1E000
7FC000
1F0000
ENDCHAR

STARTCHAR K
ENCODING 75
SWIDTH 700 0
DWIDTH 22 0
BBX 22 24 1 0
BITMAP
1FC0FC
0F8078
070070
0700E0
0601C0
060380
0E0700
0E0E00
0E1C00
0C3800
0C7000
0CF800
1DDC00
1F0C00
1E0E00
1C0700
180700
180380
380380
380180
3801C0
3801C0
7841E0
FC03F0
ENDCHAR

STARTCHAR L
ENCODING 76
SWIDTH 640 0
DWIDTH 20 0
BBX 18 24 0 0
BITMAP
1FC000
078000
070000
070000
070000
060000
060000
060000
0E0000
0E0000
0E0000
0C0000
0C0000
1C0000
1C0000
1C0000
180000
180000
180000
380040
380040
3801C0
7FFF80
FFFF80
ENDCHAR

STARTCHAR M
ENCODING 77
SWIDTH 880 0
DWIDTH 28 0
BBX 29 24 0 0
BITMAP
1F8001F8
078003E0
07C007C0
06C006C0
06C00CC0
06E00DC0
06E01980
06603980
04603380
0C706380
0C706380
0C70C380
0C30C300
0C398300
0C398700
081B0700
181B0700
181E0700
181E0600
180C0E00
18080E00
38080E00
38001F00
FC003F80
ENDCHAR

STARTCHAR N
ENCODING 78
SWIDTH 780 0
DWIDTH 25 0
BBX 26 24 0 0
BITMAP
1F800FC0
07C00780
07C00300
06E00300
06700300
06700600
06380600
061C0600
061C0600
0C0E0600
0C070600
0C070C00
0C038C00
0C038C00
0C01CC00
0C01CC00
1800EC00
1800EC00
18007800
18007800
18003800
18003800
3C001800
FE001800
ENDCHAR

STARTCHAR O
ENCODING 79
SWIDTH 780 0
DWIDTH 25 0
BBX 24 24 1 0
BITMAP
003F80
00FFE0
03C078
07001C
0E000E
1C000E
380006
380007
700007
700007
700007
E00007
E00007
E00007
E0000E
E0000E
E0000E
60001C
700038
700038
3800F0
1E03C0
07FF80
01FC00
ENDCHAR

STARTCHAR P
ENCODING 80
SWIDTH 640 0
DWIDTH 20 0
BBX 21 24 0 0
BITMAP
1FFF00
07FFC0
0700F0
070070
060038
060038
060038
0E0038
0E0070
0E0070
0C00E0
0C03C0
0C1F00
0FFC00
1FE000
1C0000
1C0000
1C0000
180000
180000
380000
380000
780000
FE0000
ENDCHAR

STARTCHAR Q
ENCODING 81
SWIDTH 780 0
DWIDTH 25 0
BBX 24 28 1 -4
BITMAP
003F80
00FFE0
03C078
07003C
0E001C
1C000E
38000E
380007
700007
700007
F00007
E00007
E00007
E0000F
E0000E
E0000E
E0001C
E0001C
702038
702070
3820E0
1E33C0
07FF00
01FC00
001E00
000780
0003F8
0000F0
ENDCHAR

STARTCHAR R
ENCODING 82
SWIDTH 700 0
DWIDTH 22 0
BBX 22 24 0 0
BITMAP
1FFFE0
07FFF8
07003C
07001C
07001C
07001C
060018
060038
060070
0E00E0
0E03C0
0E3F00
0FFE00
0FC700
0C0700
1C0300
1C0380
1C0180
1801C0
1801C0
3800C0
3800E0
7C01E0
FE03F0
ENDCHAR

STARTCHAR S
ENCODING 83
SWIDTH 620 0
DWIDTH 20 0
BBX 17 24 1 0
BITMAP
01FC00
07FF00
0E0780
1C0180
180180
380100
380100
380000
3C0000
1F0000
0FC000
03F000
00FC00
001E00
000F00
000780
700380
F00380
E00380
E00700
E00700
701E00
3FFC00
0FF000
ENDCHAR

STARTCHAR T
ENCODING 84
SWIDTH 660 0
DWIDTH 21 0
BBX 20 24 2 0
BITMAP
7FFFF0
7FFFF0
E07030
807010
007000
006000
006000
006000
00E000
00E000
00E000
00E000
00C000
00C000
01C000
01C000
01C000
01C000
018000
018000
038000
038000
078000
0FE000
ENDCHAR

STARTCHAR U
ENCODING 85
SWIDTH 760 0
DWIDTH 24 0
BBX 23 24 2 0
BITMAP
3F007E
1E003C
1C0018
1C0018
180018
380018
380018
380018
300030
700030
700030
700030
600030
E00030
E00030
E00060
E00060
E00060
E000C0
7000C0
700180
3C0700
1FFE00
03F800
ENDCHAR

STARTCHAR V
ENCODING 86
SWIDTH 700 0
DWIDTH 22 0
BBX 21 24 3 0
BITMAP
FC01F8
7800F0
700060
700060
7000C0
7000C0
3000C0
300180
380180
380300
380300
380600
180600
1C0C00
1C0C00
1C1800
0C1800
0E3000
0E2000
066000
07C000
07C000
038000
030000
ENDCHAR

STARTCHAR W
ENCODING 87
SWIDTH 980 0
DWIDTH 31 0
BBX 30 24 3 0
BITMAP
FC07C07C
78038038
70030030
70030030
70070030
70070060
70070060
700F00C0
700F80C0
701B80C0
301B8180
30338180
38338180
38618300
3861C300
38C1C600
38C1C600
1981CC00
1980CC00
1B00D800
1E00F800
1E007000
0C006000
08002000
ENDCHAR

STARTCHAR X
ENCODING 88
SWIDTH 740 0
DWIDTH 23 0
BBX 25 24 -1 0
BITMAP
0FC01F80
07800F00
03800E00
03801C00
01C01800
01C03000
00C06000
00E0C000
00718000
00730000
003E0000
001E0000
001E0000
003F0000
00678000
00C38000
0181C000
0301E000
0700E000
06007000
0E007000
1C003800
3C007C00
FE00FE00
ENDCHAR

STARTCHAR Y
ENCODING 89
SWIDTH 740 0
DWIDTH 23 0
BBX 24 24 2 0
BITMAP
FE003F
7C001E
38001C
380038
1C0038
1C0070
0E0060
0F00C0
070180
038300
038600
01CC00
00F800
00F000
007000
007000
007000
006000
00E000
00E000
00E000
00E000
01E000
07F800
ENDCHAR

STARTCHAR Z
ENCODING 90
SWIDTH 580 0
DWIDTH 18 0
BBX 20 24 -1 0
BITMAP
07FFF0
07FFF0
0C00E0
0800E0
0001C0
000380
000780
000F00
000E00
001C00
003800
007000
00E000
01E000
03C000
078000
070000
0E0000
1C0000
380080
780180
700700
FFFF00
FFFF00
ENDCHAR

STARTCHAR bracketleft
ENCODING 91
SWIDTH 220 0
DWIDTH 7 0
BBX 8 29 0 -5
BITMAP
0F
0E
18
18
18
18
18
18
30
30
30
30
30
30
30
60
60
60
60
60
60
60
60
C0
C0
C0
C0
E0
F0
ENDCHAR

STARTCHAR backslash
ENCODING 92
SWIDTH 600 0
DWIDTH 19 0
BBX 12 25 3 -1
BITMAP
C000
C000
6000
6000
3000
3000
1800
1800
0C00
0C00
0C00
0600
0600
0300
0300
0300
0180
0180
00C0
00C0
00C0
0060
0060
0030
0030
ENDCHAR

STARTCHAR bracketright
ENCODING 93
SWIDTH 220 0
DWIDTH 7 0
BBX 8 29 0 -5
BITMAP
0F
07
03
03
03
03
06
06
06
06
06
06
06
06
0C
0C
0C
0C
0C
0C
0C
18
18
18
18
18
18
70
F0
ENDCHAR

STARTCHAR asciicircum
ENCODING 94
SWIDTH 660 0
DWIDTH 21 0
BBX 16 17 3 7
BITMAP
0180
0180
03C0
0240
0660
0660
0C30
0C30
1818
1818
300C
300C
300C
6006
6006
C003
C003
ENDCHAR

STARTCHAR underscore
ENCODING 95
SWIDTH 500 0
DWIDTH 16 0
BBX 16 2 0 -4
BITMAP
FFFF
FFFF
ENDCHAR

STARTCHAR quoteleft
ENCODING 96
SWIDTH 300 0
DWIDTH 10 0
BBX 5 8 4 17
BITMAP
08
10
20
40
C0
F0
F0
60
ENDCHAR

STARTCHAR a
ENCODING 97
SWIDTH 520 0
DWIDTH 16 0
BBX 15 15 0 0
BITMAP
01E2
07FE
1E1E
380C
300C
700C
601C
E01C
E018
E018
E038
6078
70DC
3F9C
1F18
ENDCHAR

STARTCHAR b
ENCODING 98
SWIDTH 540 0
DWIDTH 17 0
BBX 15 24 1 0
BITMAP
0C00
3C00
1C00
1800
1800
1800
1800
1800
3000
31F0
37F8
3E1C
380C
380E
300E
700E
700E
600C
601C
6018
6038
F070
FFE0
8F80
ENDCHAR

STARTCHAR c
ENCODING 99
SWIDTH 460 0
DWIDTH 15 0
BBX 14 15 0 0
BITMAP
01F0
07FC
1E1C
380C
3000
7000
6000
E000
E000
E000
E008
6018
7070
3FE0
0F80
ENDCHAR

STARTCHAR d
ENCODING 100
SWIDTH 580 0
DWIDTH 18 0
BBX 17 24 0 0
BITMAP
000180
000780
000380
000380
000380
000300
000300
000300
000300
03E300
0FFB00
1C1E00
380E00
300E00
700E00
600E00
E00C00
E00C00
E01C00
E01C00
603C00
70EF00
3FCE00
0F0C00
ENDCHAR

STARTCHAR e
ENCODING 101
SWIDTH 500 0
DWIDTH 16 0
BBX 15 15 0 0
BITMAP
01F8
07FC
1E06
3806
300E
703C
60F0
FFC0
FF00
E000
E004
600C
7838
3FF0
0FC0
ENDCHAR

STARTCHAR f
ENCODING 102
SWIDTH 360 0
DWIDTH 11 0
BBX 14 30 -1 -6
BITMAP
0038
007C
006C
00C0
00C0
01C0
01C0
0180
0180
0FF0
0FF0
0380
0380
0380
0300
0300
0700
0700
0700
0600
0600
0E00
0E00
0C00
0C00
0C00
1800
1800
F000
E000
ENDCHAR

STARTCHAR g
ENCODING 103
SWIDTH 520 0
DWIDTH 17 0
BBX 16 22 0 -7
BITMAP
03FF
0FFF
1C18
180C
380C
300E
700E
700E
701C
701C
3038
1870
1FE0
07F0
0038
0018
0018
4018
C038
E070
FFE0
3F80
ENDCHAR

STARTCHAR h
ENCODING 104
SWIDTH 580 0
DWIDTH 18 0
BBX 14 24 2 0
BITMAP
0C00
3C00
1C00
1800
1800
1800
1800
1800
3800
30F0
33F8
371C
3C0C
380C
780C
700C
701C
601C
6018
6018
E018
C038
C03C
C018
ENDCHAR

STARTCHAR i
ENCODING 105
SWIDTH 280 0
DWIDTH 9 0
BBX 5 21 2 0
BITMAP
18
38
38
30
00
00
18
78
38
30
30
30
70
70
60
60
60
60
E0
F0
E0
ENDCHAR

STARTCHAR j
ENCODING 106
SWIDTH 260 0
DWIDTH 8 0
BBX 10 27 -3 -6
BITMAP
00C0
01C0
01C0
0180
0000
0000
0180
0780
0380
0180
0180
0380
0380
0300
0300
0300
0300
0700
0700
0600
0600
0600
0C00
0C00
1800
F000
E000
ENDCHAR

STARTCHAR k
ENCODING 107
SWIDTH 560 0
DWIDTH 18 0
BBX 14 24 2 0
BITMAP
0C00
3C00
1C00
1800
1800
1800
1800
1800
3800
381C
307C
31E0
3380
6600
6F00
7B00
7380
7380
6180
61C0
E0C0
C0E0
C078
C030
ENDCHAR

STARTCHAR l
ENCODING 108
SWIDTH 300 0
DWIDTH 10 0
BBX 6 24 2 0
BITMAP
0C
3C
1C
1C
18
18
18
18
18
38
30
30
30
30
30
70
60
60
60
60
60
E0
F0
C0
ENDCHAR

STARTCHAR m
ENCODING 109
SWIDTH 880 0
DWIDTH 28 0
BBX 24 15 1 0
BITMAP
30701C
F1F87E
739CE6
360D83
3C0F03
380E03
380E03
300C07
301C07
701C06
701C06
60180E
E0380E
E0380F
E0380C
ENDCHAR

STARTCHAR n
ENCODING 110
SWIDTH 600 0
DWIDTH 19 0
BBX 14 15 2 0
BITMAP
30F0
F3F8
771C
3C0C
380C
380C
380C
701C
701C
7018
6018
6018
E038
E03C
E030
ENDCHAR

STARTCHAR o
ENCODING 111
SWIDTH 560 0
DWIDTH 18 0
BBX 16 15 1 0
BITMAP
03E0
0FF8
1C1C
380E
7006
7007
E007
E007
E007
E00E
600E
701C
3838
1FF0
07C0
ENDCHAR

STARTCHAR p
ENCODING 112
SWIDTH 580 0
DWIDTH 18 0
BBX 18 21 -1 -6
BITMAP
063E00
3EFF00
1DC380
0F0180
0E01C0
0E01C0
0C01C0
0C01C0
0C0180
1C0380
1C0300
180700
198E00
19FC00
38F000
380000
300000
300000
300000
700000
FC0000
ENDCHAR

STARTCHAR q
ENCODING 113
SWIDTH 560 0
DWIDTH 18 0
BBX 16 21 1 -6
BITMAP
01E1
07FB
1E1E
380E
300E
700E
600E
E00C
E00C
E01C
E01C
603C
70EC
3FDC
1F18
0018
0018
0018
0018
0038
00FC
ENDCHAR

STARTCHAR r
ENCODING 114
SWIDTH 400 0
DWIDTH 13 0
BBX 11 15 2 0
BITMAP
31C0
F3E0
7660
3440
3C00
3800
3800
7000
7000
6000
6000
E000
C000
C000
C000
ENDCHAR

STARTCHAR s
ENCODING 115
SWIDTH 420 0
DWIDTH 13 0
BBX 11 15 1 0
BITMAP
0700
1FC0
38E0
7060
7000
3800
3C00
0F00
03C0
01C0
C0E0
C0E0
E1C0
7F80
1E00
ENDCHAR

STARTCHAR t
ENCODING 116
SWIDTH 360 0
DWIDTH 11 0
BBX 8 20 2 0
BITMAP
08
08
18
18
18
FF
FF
30
30
30
30
70
70
60
60
60
62
FC
F0
C0
ENDCHAR

STARTCHAR u
ENCODING 117
SWIDTH 580 0
DWIDTH 18 0
BBX 14 15 2 0
BITMAP
701C
F01C
6018
6018
6018
6038
E038
E038
C030
C070
C070
C0F0
E3B8
7F38
3C30
ENDCHAR

STARTCHAR v
ENCODING 118
SWIDTH 480 0
DWIDTH 15 0
BBX 12 15 2 0
BITMAP
3060
F0F0
7070
3030
3030
7030
7030
6030
6060
E060
E0C0
E0C0
7380
7F00
1C00
ENDCHAR

STARTCHAR w
ENCODING 119
SWIDTH 720 0
DWIDTH 23 0
BBX 20 15 2 0
BITMAP
303860
F03860
603070
603030
607030
607030
E06030
E06030
C0E060
C0E060
C1E0C0
C160C0
E77180
7E3F00
381E00
ENDCHAR

STARTCHAR x
ENCODING 120
SWIDTH 540 0
DWIDTH 17 0
BBX 16 15 0 0
BITMAP
0C06
3C0F
0E0C
0618
0730
03E0
03C0
01C0
03C0
03E0
0660
0C70
7838
F01E
601C
ENDCHAR

STARTCHAR y
ENCODING 121
SWIDTH 500 0
DWIDTH 16 0
BBX 15 21 0 -6
BITMAP
180C
780E
380E
3006
3006
3006
3004
380C
380C
3818
1818
1830
1C60
0FE0
07C0
0080
0180
0300
4E00
FC00
F000
ENDCHAR

STARTCHAR z
ENCODING 122
SWIDTH 460 0
DWIDTH 15 0
BBX 14 15 0 0
BITMAP
0FFC
1FFC
3838
3870
00E0
01C0
0180
0300
0600
0E00
1C30
3838
7038
FFF0
FFE0
ENDCHAR

STARTCHAR braceleft
ENCODING 123
SWIDTH 300 0
DWIDTH 10 0
BBX 10 30 2 -5
BITMAP
00C0
0300
0600
0600
0C00
0C00
0C00
0C00
0C00
0C00
1800
1800
1800
3000
E000
6000
3000
3000
3000
3000
3000
3000
6000
6000
6000
6000
6000
6000
2000
1800
ENDCHAR

STARTCHAR bar
ENCODING 124
SWIDTH 660 0
DWIDTH 21 0
BBX 2 24 10 0
BITMAP
C0
C0
C0
C0
C0
C0
C0
C0
C0
C0
C0
C0
C0
C0
C0
C0
C0
C0
C0
C0
C0
C0
C0
C0
ENDCHAR

STARTCHAR braceright
ENCODING 125
SWIDTH 300 0
DWIDTH 10 0
BBX 10 30 -1 -5
BITMAP
0600
0100
0180
0180
0180
0180
0180
0180
0300
0300
0300
0300
0300
0180
01C0
0300
0300
0600
0600
0600
0C00
0C00
0C00
0C00
0C00
0C00
1800
1800
3000
C000
ENDCHAR

STARTCHAR asciitilde
ENCODING 126
SWIDTH 660 0
DWIDTH 21 0
BBX 18 5 2 6
BITMAP
1E0080
3F81C0
73F380
E07F00
401E00
ENDCHAR

STARTCHAR exclamdown
ENCODING 161
SWIDTH 300 0
DWIDTH 10 0
BBX 6 24 2 -6
BITMAP
0C
1C
1C
18
00
00
10
10
10
30
30
30
30
30
70
70
60
60
E0
E0
E0
E0
E0
C0
ENDCHAR

STARTCHAR cent
ENCODING 162
SWIDTH 600 0
DWIDTH 19 0
BBX 14 22 3 1
BITMAP
0060
0040
00C0
01E0
07F8
0E1C
1C08
3800
7000
7000
E000
E000
E000
E000
E008
F018
7870
3FE0
0F80
0600
0400
0C00
ENDCHAR

STARTCHAR sterling
ENCODING 163
SWIDTH 600 0
DWIDTH 19 0
BBX 15 24 2 0
BITMAP
01F0
07FC
0E0E
0C06
1C06
1C00
1C00
1C00
1C00
1C00
1C00
7FF0
7FF0
1C00
1C00
1C00
1800
1800
1800
3000
3004
6F0C
FFF8
61F0
ENDCHAR

STARTCHAR currency
ENCODING 164
SWIDTH 740 0
DWIDTH 19 0
BBX 16 19 2 2
BITMAP
C003
E7E7
7FFE
3C3C
700E
6006
6006
C003
C003
C003
C003
C003
6006
6006
700E
3C3C
7FFE
E7E7
C003
ENDCHAR

STARTCHAR yen
ENCODING 165
SWIDTH 800 0
DWIDTH 19 0
BBX 23 24 0 0
BITMAP
FC007E
78003C
380038
380030
180070
1C0060
0C00C0
0E01C0
060180
070300
030600
038C00
1FFF80
1FFF80
00E000
3FFF00
3FFF00
00E000
00C000
00C000
01C000
01C000
03E000
07F000
ENDCHAR

STARTCHAR brokenbar
ENCODING 166
SWIDTH 660 0
DWIDTH 21 0
BBX 2 24 10 0
BITMAP
C0
C0
C0
C0
C0
C0
C0
C0
C0
00
00
00
00
00
00
C0
C0
C0
C0
C0
C0
C0
C0
C0
ENDCHAR

STARTCHAR section
ENCODING 167
SWIDTH 560 0
DWIDTH 18 0
BBX 17 30 0 -6
BITMAP
007C00
01FF00
038380
060180
060080
0C0080
0C0000
0E0000
0F8000
07F000
0FFC00
187F00
300F00
300780
700380
780300
3C0300
3F8600
0FFC00
03F800
007C00
001C00
000C00
800C00
800C00
C01800
E01800
707000
7FE000
1F8000
ENDCHAR

STARTCHAR dieresis
ENCODING 168
SWIDTH 360 0
DWIDTH 12 0
BBX 9 4 3 16
BITMAP
6180
E380
E380
C300
ENDCHAR

STARTCHAR copyright
ENCODING 169
SWIDTH 820 0
DWIDTH 26 0
BBX 23 24 2 0
BITMAP
00FE00
0783C0
0C0060
180030
303E18
20FF88
61C38C
438184
430084
C70006
860002
860002
860002
860002
C60006
470104
430304
63C70C
21FE08
307818
180030
0C0060
0783C0
00FE00
ENDCHAR

STARTCHAR ordfeminine
ENCODING 170
SWIDTH 400 0
DWIDTH 13 0
BBX 10 13 2 11
BITMAP
0EC0
3B80
6180
C180
C180
C180
C380
6780
3DC0
0000
0000
0000
FFC0
ENDCHAR

STARTCHAR guillemotleft
ENCODING 171
SWIDTH 360 0
DWIDTH 12 0
BBX 10 11 2 3
BITMAP
18C0
1080
3180
6300
C600
C600
C600
4200
6300
2100
3180
ENDCHAR

STARTCHAR logicalnot
ENCODING 172
SWIDTH 660 0
DWIDTH 21 0
BBX 17 10 2 2
BITMAP
FFFF80
FFFF80
000180
000180
000180
000180
000180
000180
000180
000180
ENDCHAR

STARTCHAR hyphen
ENCODING 173
SWIDTH 260 0
DWIDTH 8 0
BBX 7 2 1 8
BITMAP
FE
FE
ENDCHAR

STARTCHAR registered
ENCODING 174
SWIDTH 820 0
DWIDTH 26 0
BBX 23 24 2 0
BITMAP
00FE00
0783C0
0C0060
180030
33FE18
21FF08
61838C
418184
418184
C18386
818F02
83FC02
83CC02
830E02
C30606
430604
430304
63070C
278788
300018
180030
0C0060
0783C0
00FE00
ENDCHAR

STARTCHAR macron
ENCODING 175
SWIDTH 300 0
DWIDTH 10 0
BBX 8 2 3 17
BITMAP
FF
FF
ENDCHAR

STARTCHAR degree
ENCODING 176
SWIDTH 400 0
DWIDTH 13 0
BBX 10 10 3 14
BITMAP
0C00
3F00
6180
4080
C0C0
C0C0
4080
6180
3F00
0C00
ENDCHAR

STARTCHAR plusminus
ENCODING 177
SWIDTH 660 0
DWIDTH 21 0
BBX 16 17 3 0
BITMAP
0180
0180
0180
0180
0180
0180
FFFF
FFFF
0180
0180
0180
0180
0180
0000
0000
FFFF
FFFF
ENDCHAR

STARTCHAR twosuperior
ENCODING 178
SWIDTH 360 0
DWIDTH 12 0
BBX 12 14 1 10
BITMAP
07C0
0C60
1830
1830
1830
0060
00C0
0380
0700
0C00
1800
3020
7FE0
FFC0
ENDCHAR

STARTCHAR threesuperior
ENCODING 179
SWIDTH 360 0
DWIDTH 12 0
BBX 10 14 3 10
BITMAP
0F00
1980
30C0
30C0
00C0
0380
1E00
0600
0300
0180
C180
C180
6300
3E00
ENDCHAR

STARTCHAR acute
ENCODING 180
SWIDTH 280 0
DWIDTH 9 0
BBX 6 5 4 16
BITMAP
3C
38
70
60
C0
ENDCHAR

STARTCHAR mu
ENCODING 181
SWIDTH 580 0
DWIDTH 19 0
BBX 16 21 0 -6
BITMAP
0C07
3C07
1C07
1806
1806
1806
180E
180E
380C
301C
301C
303C
38EE
3FCE
670C
6000
6000
6000
C000
C000
C000
ENDCHAR

STARTCHAR paragraph
ENCODING 182
SWIDTH 680 0
DWIDTH 22 0
BBX 21 30 1 -6
BITMAP
03FFF8
0FFFF8
1E0CC0
380CC0
700CC0
600CC0
E00CC0
E01980
E01980
E01980
701980
701980
3C1980
1FF300
03F300
003300
003300
003300
003300
006600
006600
006600
006600
006600
006600
00CC00
00CC00
00CC00
00CC00
00CC00
ENDCHAR

STARTCHAR periodcentered
ENCODING 183
SWIDTH 300 0
DWIDTH 10 0
BBX 3 4 3 6
BITMAP
60
E0
E0
C0
ENDCHAR

STARTCHAR cedilla
ENCODING 184
SWIDTH 380 0
DWIDTH 12 0
BBX 7 6 2 -5
BITMAP
10
30
3C
06
C6
7C
ENDCHAR

STARTCHAR onesuperior
ENCODING 185
SWIDTH 360 0
DWIDTH 12 0
BBX 8 14 3 10
BITMAP
03
3F
06
06
06
0E
0C
0C
0C
18
18
18
3C
FF
ENDCHAR

STARTCHAR ordmasculine
ENCODING 186
SWIDTH 400 0
DWIDTH 13 0
BBX 10 13 2 11
BITMAP
1F00
3180
60C0
C0C0
C0C0
C0C0
C180
6300
3E00
0000
0000
0000
FFC0
ENDCHAR

STARTCHAR guillemotright
ENCODING 187
SWIDTH 360 0
DWIDTH 12 0
BBX 10 11 0 3
BITMAP
6300
2100
3180
1080
18C0
18C0
18C0
3180
6300
4200
C600
ENDCHAR

STARTCHAR onequarter
ENCODING 188
SWIDTH 900 0
DWIDTH 29 0
BBX 26 24 2 0
BITMAP
01000300
07000600
3F000C00
06001800
06003000
06003000
06006000
0C00C000
0C018080
0C018180
0C030380
18060780
180C0D80
3C0C1980
FF183180
00306300
0060C300
00608300
00C18300
0181FFC0
03000600
03000600
06000F00
0C001F80
ENDCHAR

STARTCHAR onehalf
ENCODING 189
SWIDTH 900 0
DWIDTH 29 0
BBX 28 24 2 0
BITMAP
01000300
07000600
1F000C00
06000C00
06001800
06003000
06006000
0C006000
0C00C000
0C018000
0C0307C0
18030C60
18061830
3C0C1830
FF181830
00180060
003000C0
00600380
00600700
00C00C00
01801800
03003020
03007FE0
0600FFC0
ENDCHAR

STARTCHAR threequarters
ENCODING 190
SWIDTH 900 0
DWIDTH 29 0
BBX 25 24 2 0
BITMAP
0F000600
19800C00
30C01800
30C03000
00C03000
03806000
1E00C000
06008000
03018000
01830100
C1860300
C1860700
630C0F00
3E181B00
00303300
00306600
0060C600
00C18600
00830600
0183FF80
03000600
06000C00
06000C00
0C001E00
ENDCHAR

STARTCHAR questiondown
ENCODING 191
SWIDTH 420 0
DWIDTH 13 0
BBX 12 24 0 -6
BITMAP
0030
0070
0070
0060
0000
0000
0020
0020
0060
0040
00C0
0380
0700
1C00
3800
7000
6000
E000
E000
E030
7070
7070
3CE0
0F80
ENDCHAR

STARTCHAR Agrave
ENCODING 192
SWIDTH 740 0
DWIDTH 23 0
BBX 23 30 -1 0
BITMAP
000F00
000700
000380
000180
0000C0
000000
000100
000300
000780
000F80
000DC0
0019C0
0031C0
0060E0
0060E0
00C0E0
00C060
018070
030070
030070
07FFF0
07FFF8
0C0038
0C0038
180038
180038
30001C
30001C
70003C
F8007E
ENDCHAR

STARTCHAR Aacute
ENCODING 193
SWIDTH 740 0
DWIDTH 23 0
BBX 23 30 -1 0
BITMAP
0001E0
0001C0
000380
000300
000600
000000
000100
000300
000780
000F80
000DC0
0019C0
0031C0
0060E0
0060E0
00C0E0
00C060
018070
030070
030070
07FFF0
07FFF8
0C0038
0C0038
180038
180038
30001C
30001C
70003C
F8007E
ENDCHAR

STARTCHAR Acircumflex
ENCODING 194
SWIDTH 740 0
DWIDTH 23 0
BBX 23 30 -1 0
BITMAP
000100
000380
0007C0
000C60
001830
000000
000100
000300
000780
000F80
000DC0
0019C0
0031C0
0060E0
0060E0
00C0E0
00C060
018070
030070
030070
07FFF0
07FFF8
0C0038
0C0038
180038
180038
30001C
30001C
70003C
F8007E
ENDCHAR

STARTCHAR Atilde
ENCODING 195
SWIDTH 740 0
DWIDTH 23 0
BBX 23 29 -1 0
BITMAP
000388
0007F0
0008E0
000000
000000
000100
000300
000780
000F80
000DC0
0019C0
0031C0
0060E0
0060E0
00C0E0
00C060
018070
030070
030070
07FFF0
07FFF8
0C0038
0C0038
180038
180038
30001C
30001C
70003C
F8007E
ENDCHAR

STARTCHAR Adieresis
ENCODING 196
SWIDTH 740 0
DWIDTH 23 0
BBX 23 30 -1 0
BITMAP
000C30
001C70
001C70
001860
000000
000000
000100
000300
000780
000F80
000DC0
0019C0
0031C0
0060E0
0060E0
00C0E0
00C060
018070
030070
030070
07FFF0
07FFF8
0C0038
0C0038
180038
180038
30001C
30001C
70003C
F8007E
ENDCHAR

STARTCHAR Aring
ENCODING 197
SWIDTH 740 0
DWIDTH 23 0
BBX 23 30 -1 0
BITMAP
0003C0
000660
000420
000660
0003C0
000000
000100
000300
000780
000F80
000DC0
0019C0
0031C0
0060E0
0060E0
00C0E0
00C060
018070
030070
030070
07FFF0
07FFF8
0C0038
0C0038
180038
180038
30001C
30001C
70003C
F8007E
ENDCHAR

STARTCHAR AE
ENCODING 198
SWIDTH 960 0
DWIDTH 31 0
BBX 31 24 -1 0
BITMAP
0003FFFE
0001FFFE
0001B806
00033802
00063000
000C3000
00187000
00187000
00307000
00607010
00C07FF0
00C07FE0
0180E020
0180E000
03FFE000
07FFE000
0600C000
0C00C000
1801C000
1801C004
3001C00C
3001C018
7803FFF8
FC07FFF8
ENDCHAR

STARTCHAR Ccedilla
ENCODING 199
SWIDTH 720 0
DWIDTH 23 0
BBX 21 29 1 -5
BITMAP
003F00
00FFE0
03C078
070038
0E0018
1C0018
380018
380000
700000
700000
F00000
E00000
E00000
E00000
E00000
E00000
E00000
600000
700030
700060
3800C0
1E0380
0FFF00
01F800
006000
007800
000C00
030C00
01F800
ENDCHAR

STARTCHAR Egrave
ENCODING 200
SWIDTH 660 0
DWIDTH 21 0
BBX 20 30 0 0
BITMAP
007800
003800
001C00
000C00
000600
000000
0FFFF0
07FFF0
070030
070010
070000
060000
060000
060000
0E0000
0E0080
0FFF80
0FFF00
0C0100
0C0000
1C0000
1C0000
1C0000
180000
180000
380000
380020
3800E0
7FFFC0
FFFFC0
ENDCHAR

STARTCHAR Eacute
ENCODING 201
SWIDTH 660 0
DWIDTH 21 0
BBX 20 30 0 0
BITMAP
000780
000700
000E00
000C00
001800
000000
0FFFF0
07FFF0
070030
070010
070000
060000
060000
060000
0E0000
0E0080
0FFF80
0FFF00
0C0100
0C0000
1C0000
1C0000
1C0000
180000
180000
380000
380020
3800E0
7FFFC0
FFFFC0
ENDCHAR

STARTCHAR Ecircumflex
ENCODING 202
SWIDTH 660 0
DWIDTH 21 0
BBX 20 30 0 0
BITMAP
000800
001C00
003E00
006300
00C180
000000
0FFFF0
07FFF0
070030
070010
070000
060000
060000
060000
0E0000
0E0080
0FFF80
0FFF00
0C0100
0C0000
1C0000
1C0000
1C0000
180000
180000
380000
380020
3800E0
7FFFC0
FFFFC0
ENDCHAR

STARTCHAR Edieresis
ENCODING 203
SWIDTH 660 0
DWIDTH 21 0
BBX 20 30 0 0
BITMAP
0030C0
0071C0
0071C0
006180
000000
000000
0FFFF0
07FFF0
070030
070010
070000
060000
060000
060000
0E0000
0E0080
0FFF80
0FFF00
0C0100
0C0000
1C0000
1C0000
1C0000
180000
180000
380000
380020
3800E0
7FFFC0
FFFFC0
ENDCHAR

STARTCHAR Igrave
ENCODING 204
SWIDTH 300 0
DWIDTH 9 0
BBX 10 30 0 0
BITMAP
0F00
0700
0380
0180
00C0
0000
0FC0
0780
0700
0700
0700
0600
0600
0E00
0E00
0E00
0E00
0C00
0C00
0C00
1C00
1C00
1C00
1C00
1800
1800
3800
3800
7C00
FE00
ENDCHAR

STARTCHAR Iacute
ENCODING 205
SWIDTH 300 0
DWIDTH 9 0
BBX 11 30 0 0
BITMAP
01E0
01C0
0380
0300
0600
0000
0FC0
0780
0700
0700
0700
0600
0600
0E00
0E00
0E00
0E00
0C00
0C00
0C00
1C00
1C00
1C00
1C00
1800
1800
3800
3800
7C00
FE00
ENDCHAR

STARTCHAR Icircumflex
ENCODING 206
SWIDTH 300 0
DWIDTH 9 0
BBX 12 30 0 0
BITMAP
0100
0380
07C0
0C60
1830
0000
0FC0
0780
0700
0700
0700
0600
0600
0E00
0E00
0E00
0E00
0C00
0C00
0C00
1C00
1C00
1C00
1C00
1800
1800
3800
3800
7C00
FE00
ENDCHAR

STARTCHAR Idieresis
ENCODING 207
SWIDTH 300 0
DWIDTH 9 0
BBX 12 30 0 0
BITMAP
0C30
1C70
1C70
1860
0000
0000
0FC0
0780
0700
0700
0700
0600
0600
0E00
0E00
0E00
0E00
0C00
0C00
0C00
1C00
1C00
1C00
1C00
1800
1800
3800
3800
7C00
FE00
ENDCHAR

STARTCHAR Eth
ENCODING 208
SWIDTH 760 0
DWIDTH 24 0
BBX 23 24 1 0
BITMAP
0FFF00
07FFE0
0700F0
070038
07001C
07001C
06000E
0E000E
0E000E
0E000E
FFE00E
FFE00E
0C000E
0C000E
0C001C
1C001C
1C0018
1C0038
1C0070
1800F0
3801E0
380780
7FFF00
FFF800
ENDCHAR

STARTCHAR Ntilde
ENCODING 209
SWIDTH 780 0
DWIDTH 25 0
BBX 26 29 0 0
BITMAP
00071000
000FE000
0011C000
00000000
00000000
1F800FC0
07C00780
07C00300
06E00300
06700300
06700300
06380600
061C0600
061C0600
0C0E0600
0C070600
0C070600
0C038600
0C038C00
0C01CC00
0C01CC00
1800EC00
1800EC00
18007800
18007800
18003800
18003800
3C001800
FE001800
ENDCHAR

STARTCHAR Ograve
ENCODING 210
SWIDTH 780 0
DWIDTH 25 0
BBX 24 30 1 0
BITMAP
003E00
001E00
000700
000300
000180
000000
003F80
00FFE0
03C078
07001C
0E000E
1C000E
380006
380007
700007
700007
600007
E00007
E00007
E00007
E0000E
E0000E
E0000E
60001C
700038
700038
3800F0
1E03C0
07FF80
01FC00
ENDCHAR

STARTCHAR Oacute
ENCODING 211
SWIDTH 780 0
DWIDTH 25 0
BBX 24 30 1 0
BITMAP
0001E0
0001C0
000380
000300
000600
000000
003F80
00FFE0
03C078
07001C
0E000E
1C000E
380006
380007
700007
700007
600007
E00007
E00007
E00007
E0000E
E0000E
E0000E
60001C
700038
700038
3800F0
1E03C0
07FF80
01FC00
ENDCHAR

STARTCHAR Ocircumflex
ENCODING 212
SWIDTH 780 0
DWIDTH 25 0
BBX 24 30 1 0
BITMAP
000200
000700
000F80
0018C0
003060
000000
003F80
00FFE0
03C078
07001C
0E000E
1C000E
380006
380007
700007
700007
600007
E00007
E00007
E00007
E0000E
E0000E
E0000E
60001C
700038
700038
3800F0
1E03C0
07FF80
01FC00
ENDCHAR

STARTCHAR Otilde
ENCODING 213
SWIDTH 780 0
DWIDTH 25 0
BBX 24 29 1 0
BITMAP
000710
001FE0
0021C0
000000
000000
003F80
00FFE0
03C078
07001C
0E000E
1C000E
380006
380007
700007
700007
600007
E00007
E00007
E00007
E0000E
E0000E
E0000E
60001C
700038
700038
3800F0
1E03C0
07FF80
01FC00
ENDCHAR

STARTCHAR Odieresis
ENCODING 214
SWIDTH 780 0
DWIDTH 25 0
BBX 24 30 1 0
BITMAP
001860
0038E0
0038E0
0030C0
000000
000000
003F80
00FFE0
03C078
07001C
0E000E
1C000E
380006
380007
700007
700007
600007
E00007
E00007
E00007
E0000E
E0000E
E0000E
60001C
700038
700038
3800F0
1E03C0
07FF80
01FC00
ENDCHAR

STARTCHAR multiply
ENCODING 215
SWIDTH 660 0
DWIDTH 21 0
BBX 17 17 2 0
BITMAP
400100
E00380
700700
380E00
1C1C00
0E3800
077000
03E000
01C000
03E000
077000
0E3800
1C1C00
380E00
700700
E00380
400100
ENDCHAR

STARTCHAR Oslash
ENCODING 216
SWIDTH 780 0
DWIDTH 25 0
BBX 24 24 1 0
BITMAP
003F81
00FFE3
03C076
07003C
0E001C
1C003C
38006E
3800C6
700187
700307
700607
E00C07
E01807
E03007
E06007
E0C00E
E1800E
63001C
76001C
3C0038
380070
3E01E0
67FF80
41FE00
ENDCHAR

STARTCHAR Ugrave
ENCODING 217
SWIDTH 760 0
DWIDTH 24 0
BBX 23 30 2 0
BITMAP
007800
003800
001C00
000C00
000600
000000
3F007E
1E003C
1C0018
1C0018
180018
380018
380018
380018
300030
700030
700030
700030
600030
E00030
E00030
E00060
E00060
E00060
E000C0
6000C0
700180
3C0700
1FFE00
03F800
ENDCHAR

STARTCHAR Uacute
ENCODING 218
SWIDTH 760 0
DWIDTH 24 0
BBX 23 30 2 0
BITMAP
000780
000700
000E00
000C00
001800
000000
3F007E
1E003C
1C0018
1C0018
180018
380018
380018
380018
300030
700030
700030
700030
600030
E00030
E00030
E00060
E00060
E00060
E000C0
6000C0
700380
3C0F00
1FFC00
03F000
ENDCHAR

STARTCHAR Ucircumflex
ENCODING 219
SWIDTH 760 0
DWIDTH 24 0
BBX 23 30 2 0
BITMAP
000400
000E00
001F00
003180
0060C0
000000
3F007E
1E003C
1C0018
1C0018
180018
380018
380018
380018
300030
700030
700030
700030
600030
E00030
E00030
E00060
E00060
E00060
E000C0
6000C0
700180
3C0700
1FFE00
03F800
ENDCHAR

STARTCHAR Udieresis
ENCODING 220
SWIDTH 760 0
DWIDTH 24 0
BBX 23 30 2 0
BITMAP
0030C0
0071C0
0071C0
006180
000000
000000
3F007E
1E003C
1C0018
1C0018
180018
380018
380018
380018
300030
700030
700030
700030
600030
E00030
E00030
E00060
E00060
E00060
E000C0
6000C0
700180
3C0700
1FFE00
03F800
ENDCHAR

STARTCHAR Yacute
ENCODING 221
SWIDTH 740 0
DWIDTH 23 0
BBX 24 30 2 0
BITMAP
000780
000700
000E00
000C00
001800
000000
FE003F
7C001E
38001C
380038
1C0030
1C0070
0E0060
0F00C0
070180
038300
038600
01CC00
00F800
00F000
007000
007000
007000
006000
00E000
00E000
00E000
00E000
01E000
07F800
ENDCHAR

STARTCHAR Thorn
ENCODING 222
SWIDTH 640 0
DWIDTH 20 0
BBX 20 24 1 0
BITMAP
1FC000
0F8000
070000
070000
060000
07FE00
0FFFC0
0E01E0
0E00F0
0C0070
0C0070
0C0070
1C0060
1C00E0
1C01C0
180380
181F00
1FFC00
3FE000
380000
380000
380000
780000
FC0000
ENDCHAR

STARTCHAR germandbls
ENCODING 223
SWIDTH 540 0
DWIDTH 17 0
BBX 16 24 0 0
BITMAP
007C
01FE
0386
0303
0603
0603
0E06
0C06
0C0C
0C18
1C30
1C60
1C70
1870
1838
181C
380C
380E
3806
3006
3006
330C
71FC
F0F0
ENDCHAR

STARTCHAR agrave
ENCODING 224
SWIDTH 520 0
DWIDTH 16 0
BBX 15 21 0 0
BITMAP
0F00
0700
0380
0180
00C0
0000
01E2
07FE
1E1E
380C
300C
700C
600C
601C
E018
E018
E038
6078
70DC
3F9C
1F18
ENDCHAR

STARTCHAR aacute
ENCODING 225
SWIDTH 520 0
DWIDTH 16 0
BBX 15 21 0 0
BITMAP
003C
0038
0070
0060
00C0
0000
01E2
07FE
1E1E
380C
300C
700C
600C
601C
E018
E018
E038
6078
70DC
3F9C
1F18
ENDCHAR

STARTCHAR acircumflex
ENCODING 226
SWIDTH 520 0
DWIDTH 16 0
BBX 15 21 0 0
BITMAP
0040
00E0
01F0
0318
060C
0000
01E2
07FE
1E1E
380C
300C
700C
600C
601C
E018
E018
E038
6078
70DC
3F9C
1F18
ENDCHAR

STARTCHAR atilde
ENCODING 227
SWIDTH 520 0
DWIDTH 16 0
BBX 15 20 0 0
BITMAP
00E2
01FC
0238
0000
0000
01E2
07FE
1E1E
380C
300C
700C
600C
601C
E018
E018
E038
6078
70DC
3F9C
1F18
ENDCHAR

STARTCHAR adieresis
ENCODING 228
SWIDTH 520 0
DWIDTH 16 0
BBX 15 21 0 0
BITMAP
030C
071C
071C
0618
0000
0000
01E2
07FE
1E1E
380C
300C
700C
600C
601C
E018
E018
E038
6078
70DC
3F9C
1F18
ENDCHAR

STARTCHAR aring
ENCODING 229
SWIDTH 520 0
DWIDTH 16 0
BBX 15 21 0 0
BITMAP
00F0
0198
0108
0198
00F0
0000
01E2
07FE
1E1E
380C
300C
700C
600C
601C
E018
E018
E038
6078
70DC
3F9C
1F18
ENDCHAR

STARTCHAR ae
ENCODING 230
SWIDTH 820 0
DWIDTH 26 0
BBX 25 15 0 0
BITMAP
0FC07C00
3FF1FF00
703B8300
201E0380
001C0380
00180700
03FFFE00
1FFFF000
78180000
E0180000
C0380000
C07C0300
E0EF0E00
7FC7FC00
1F01F000
ENDCHAR

STARTCHAR ccedilla
ENCODING 231
SWIDTH 460 0
DWIDTH 15 0
BBX 13 20 0 -5
BITMAP
01E0
07F8
1E38
3818
3000
7000
6000
E000
E000
E000
E010
6030
70E0
3FC0
1F00
0C00
0F00
0180
6180
3F00
ENDCHAR

STARTCHAR egrave
ENCODING 232
SWIDTH 500 0
DWIDTH 16 0
BBX 14 21 0 0
BITMAP
0F00
0700
0380
0180
00C0
0000
01F8
07FC
1E0C
380C
301C
7038
60F0
FFC0
FF00
E000
E004
600C
7838
3FF0
0FC0
ENDCHAR

STARTCHAR eacute
ENCODING 233
SWIDTH 500 0
DWIDTH 16 0
BBX 15 21 0 0
BITMAP
003C
0038
0070
0060
00C0
0000
01F8
07FC
1E06
3806
300E
703C
60F0
FFC0
FF00
E000
E004
600C
7838
3FF0
0FC0
ENDCHAR

STARTCHAR ecircumflex
ENCODING 234
SWIDTH 500 0
DWIDTH 16 0
BBX 15 21 0 0
BITMAP
0040
00E0
01F0
0318
060C
0000
01F8
07FC
1E06
3806
300E
703C
60F0
FFC0
FF00
E000
E004
600C
7838
3FF0
0FC0
ENDCHAR

STARTCHAR edieresis
ENCODING 235
SWIDTH 500 0
DWIDTH 16 0
BBX 15 21 0 0
BITMAP
0186
038E
038E
030C
0000
0000
01F8
07FC
1E06
3806
300E
703C
60F0
FFC0
FF00
E000
E004
600C
7838
3FF0
0FC0
ENDCHAR

STARTCHAR igrave
ENCODING 236
SWIDTH 280 0
DWIDTH 9 0
BBX 6 21 1 0
BITMAP
F0
70
38
18
0C
00
18
78
38
30
30
30
70
70
60
60
60
60
E0
F0
E0
ENDCHAR

STARTCHAR iacute
ENCODING 237
SWIDTH 280 0
DWIDTH 9 0
BBX 9 21 2 0
BITMAP
0780
0700
0E00
0C00
1800
0000
1800
7800
3800
3000
3000
3000
7000
7000
6000
6000
6000
6000
E000
F000
E000
ENDCHAR

STARTCHAR icircumflex
ENCODING 238
SWIDTH 280 0
DWIDTH 9 0
BBX 9 21 1 0
BITMAP
0800
1C00
3E00
6300
C180
0000
1800
7800
3800
3000
3000
3000
7000
7000
6000
6000
6000
6000
E000
F000
E000
ENDCHAR

STARTCHAR idieresis
ENCODING 239
SWIDTH 280 0
DWIDTH 9 0
BBX 9 21 1 0
BITMAP
6180
E380
E380
C300
0000
0000
1800
7800
3800
3000
3000
3000
7000
7000
6000
6000
6000
6000
E000
F000
E000
ENDCHAR

STARTCHAR eth
ENCODING 240
SWIDTH 560 0
DWIDTH 18 0
BBX 17 25 0 0
BITMAP
003000
F06000
3DC000
078000
0FC000
1CE000
303800
001C00
000C00
000E00
01E700
07FF00
1E1F00
380780
300380
700380
600380
E00300
E00300
E00300
600600
700E00
381C00
1FF800
07E000
ENDCHAR

STARTCHAR ntilde
ENCODING 241
SWIDTH 600 0
DWIDTH 19 0
BBX 14 20 2 0
BITMAP
0388
07F0
08E0
0000
0000
30F0
F3F8
771C
340C
3C0C
380C
380C
701C
7018
7018
6018
6018
E038
E03C
E030
ENDCHAR

STARTCHAR ograve
ENCODING 242
SWIDTH 560 0
DWIDTH 18 0
BBX 17 21 0 0
BITMAP
078000
038000
01C000
00C000
006000
000000
01F000
07FC00
1E0E00
380700
300300
700380
600380
E00380
E00300
E00700
E00600
700E00
383C00
1FF000
07C000
ENDCHAR

STARTCHAR oacute
ENCODING 243
SWIDTH 560 0
DWIDTH 18 0
BBX 17 21 0 0
BITMAP
007800
007000
00E000
00C000
018000
000000
01F000
07FC00
1E0E00
380700
300300
700380
600380
E00380
E00300
E00700
E00600
700E00
383C00
1FF000
07C000
ENDCHAR

STARTCHAR ocircumflex
ENCODING 244
SWIDTH 560 0
DWIDTH 18 0
BBX 17 21 0 0
BITMAP
004000
00E000
01F000
031800
060C00
000000
01F000
07FC00
1E0E00
380700
300300
700380
600380
E00380
E00300
E00700
E00600
700E00
383C00
1FF000
07C000
ENDCHAR

STARTCHAR otilde
ENCODING 245
SWIDTH 560 0
DWIDTH 18 0
BBX 17 20 0 0
BITMAP
01C400
03F800
047000
000000
000000
01F000
07FC00
1E0E00
380700
300300
700380
600380
E00380
E00300
E00700
E00600
700E00
383C00
1FF000
07C000
ENDCHAR

STARTCHAR odieresis
ENCODING 246
SWIDTH 560 0
DWIDTH 18 0
BBX 17 21 0 0
BITMAP
030C00
071C00
071C00
061800
000000
000000
01F000
07FC00
1E0E00
380700
300300
700380
600380
E00380
E00300
E00700
E00600
700E00
383C00
1FF000
07C000
ENDCHAR

STARTCHAR divide
ENCODING 247
SWIDTH 660 0
DWIDTH 21 0
BBX 17 14 2 1
BITMAP
01C000
01C000
01C000
000000
000000
000000
FFFF80
FFFF80
000000
000000
000000
01C000
01C000
01C000
ENDCHAR

STARTCHAR oslash
ENCODING 248
SWIDTH 560 0
DWIDTH 18 0
BBX 17 17 0 -1
BITMAP
000100
01F300
07FE00
1E0E00
381F00
303300
706380
60C380
E08380
E18300
E30700
660600
7C0E00
383C00
3FF000
67C000
400000
ENDCHAR

STARTCHAR ugrave
ENCODING 249
SWIDTH 580 0
DWIDTH 18 0
BBX 14 21 2 0
BITMAP
0F00
0700
0380
0180
00C0
0000
701C
F01C
6018
6018
6018
6038
E038
E030
C030
C070
C070
C0F0
E3B8
7F38
3C30
ENDCHAR

STARTCHAR uacute
ENCODING 250
SWIDTH 580 0
DWIDTH 18 0
BBX 14 21 2 0
BITMAP
00F0
00E0
01C0
0180
0300
0000
701C
F01C
6018
6018
6018
6038
E038
E030
C030
C070
C070
C1F0
E1B8
7F38
3C30
ENDCHAR

STARTCHAR ucircumflex
ENCODING 251
SWIDTH 580 0
DWIDTH 18 0
BBX 14 21 2 0
BITMAP
0100
0380
07C0
0C60
1830
0000
701C
F01C
6018
6018
6018
6038
E038
E030
C030
C070
C070
C1F0
E1B8
7F38
3C30
ENDCHAR

STARTCHAR udieresis
ENCODING 252
SWIDTH 580 0
DWIDTH 18 0
BBX 14 21 2 0
BITMAP
0618
0E38
0E38
0C30
0000
0000
701C
F01C
6018
6018
6018
6038
E038
E030
C030
C070
C070
C1F0
E1B8
7F38
3C30
ENDCHAR

STARTCHAR yacute
ENCODING 253
SWIDTH 500 0
DWIDTH 16 0
BBX 15 27 0 -6
BITMAP
0078
0070
00E0
00C0
0180
0000
180C
780E
380E
3006
3006
3006
3004
380C
380C
3818
1818
1830
1C60
0FE0
07C0
0080
0180
0300
4E00
FC00
F000
ENDCHAR

STARTCHAR thorn
ENCODING 254
SWIDTH 580 0
DWIDTH 19 0
BBX 18 28 -1 -6
BITMAP
030000
0F0000
070000
060000
060000
060000
060000
063C00
0CFF00
0D8380
0F0180
0E01C0
0E01C0
0C01C0
0C01C0
1C0180
1C0380
180300
180700
181E00
1BF800
39E000
380000
300000
300000
700000
700000
F80000
ENDCHAR

STARTCHAR ydieresis
ENCODING 255
SWIDTH 500 0
DWIDTH 16 0
BBX 15 27 0 -6
BITMAP
0618
0E38
0E38
0C30
0000
0000
180C
780E
380E
3006
3006
3006
3004
380C
380C
3818
1818
1830
1C60
0FE0
07C0
0080
0180
0300
4E00
FC00
F000
ENDCHAR

ENDFONT
