STARTFONT 2.1
FONT -DEC-Terminal-Medium-R-Wide--14-100-100-100-C-120-ISO8859-1
SIZE 10 100 100
FONTBOUNDINGBOX 12 14 0 -2

STARTPROPERTIES 24
FOUNDRY "DEC"
FAMILY_NAME "Terminal"
WEIGHT_NAME "Medium"
SLANT "R"
SETWIDTH_NAME "Wide"
ADD_STYLE_NAME ""
PIXEL_SIZE 14
POINT_SIZE 100
RESOLUTION_X 100
RESOLUTION_Y 100
SPACING "C"
AVERAGE_WIDTH 120
CHARSET_REGISTRY "ISO8859"
CHARSET_ENCODING "1"
CAP_HEIGHT 9
X_HEIGHT 7
COPYRIGHT "Copyright (c) 1991 Digital Equipment Corporation. All Rights Reserved."
_DEC_PRODUCTINFO "DECterm Fonts V2.2, 11-Nov-1991"
FULL_NAME "Terminal Wide"
WEIGHT 10
QUAD_WIDTH 12
DEFAULT_CHAR 159
FONT_DESCENT 2
FONT_ASCENT 12
ENDPROPERTIES

CHARS 195

STARTCHAR space
ENCODING 32
SWIDTH 860 0
DWIDTH 12 0
BBX 12 14 0 -2
BITMAP
0000
0000
0000
0000
0000
0000
0000
0000
0000
0000
0000
0000
0000
0000
ENDCHAR

STARTCHAR exclam
ENCODING 33
SWIDTH 860 0
DWIDTH 12 0
BBX 12 14 0 -2
BITMAP
0000
0000
0000
0600
0600
0600
0600
0600
0600
0000
0600
0600
0000
0000
ENDCHAR

STARTCHAR quotedbl
ENCODING 34
SWIDTH 860 0
DWIDTH 12 0
BBX 12 14 0 -2
BITMAP
0000
0000
0CC0
0CC0
0CC0
0CC0
0000
0000
0000
0000
0000
0000
0000
0000
ENDCHAR

STARTCHAR numbersign
ENCODING 35
SWIDTH 860 0
DWIDTH 12 0
BBX 12 14 0 -2
BITMAP
0000
0000
0000
1980
1980
7FE0
1980
1980
7FE0
1980
1980
1980
0000
0000
ENDCHAR

STARTCHAR dollar
ENCODING 36
SWIDTH 860 0
DWIDTH 12 0
BBX 12 14 0 -2
BITMAP
0000
0000
0000
0600
3FC0
6660
6600
3FC0
0660
6660
3FC0
0600
0000
0000
ENDCHAR

STARTCHAR percent
ENCODING 37
SWIDTH 860 0
DWIDTH 12 0
BBX 12 14 0 -2
BITMAP
0000
0000
0000
3860
44C0
3980
0300
0600
0C00
19C0
3220
61C0
0000
0000
ENDCHAR

STARTCHAR ampersand
ENCODING 38
SWIDTH 860 0
DWIDTH 12 0
BBX 12 14 0 -2
BITMAP
0000
0000
0000
1E00
3300
3300
1E00
1C20
3620
6340
71C0
3F60
0000
0000
ENDCHAR

STARTCHAR quoteright
ENCODING 39
SWIDTH 860 0
DWIDTH 12 0
BBX 12 14 0 -2
BITMAP
0000
0000
0000
0600
0600
0200
0400
0000
0000
0000
0000
0000
0000
0000
ENDCHAR

STARTCHAR parenleft
ENCODING 40
SWIDTH 860 0
DWIDTH 12 0
BBX 12 14 0 -2
BITMAP
0000
0000
01C0
0300
0600
0C00
0C00
0C00
0C00
0C00
0600
0300
01C0
0000
ENDCHAR

STARTCHAR parenright
ENCODING 41
SWIDTH 860 0
DWIDTH 12 0
BBX 12 14 0 -2
BITMAP
0000
0000
1C00
0600
0300
0180
0180
0180
0180
0180
0300
0600
1C00
0000
ENDCHAR

STARTCHAR asterisk
ENCODING 42
SWIDTH 860 0
DWIDTH 12 0
BBX 12 14 0 -2
BITMAP
0000
0000
0000
0000
0600
6660
1F80
1F80
6660
0600
0000
0000
0000
0000
ENDCHAR

STARTCHAR plus
ENCODING 43
SWIDTH 860 0
DWIDTH 12 0
BBX 12 14 0 -2
BITMAP
0000
0000
0000
0000
0000
0600
0600
7FE0
0600
0600
0000
0000
0000
0000
ENDCHAR

STARTCHAR comma
ENCODING 44
SWIDTH 860 0
DWIDTH 12 0
BBX 12 14 0 -2
BITMAP
0000
0000
0000
0000
0000
0000
0000
0000
0000
0000
0600
0600
0C00
0000
ENDCHAR

STARTCHAR minus
ENCODING 45
SWIDTH 860 0
DWIDTH 12 0
BBX 12 14 0 -2
BITMAP
0000
0000
0000
0000
0000
0000
0000
7FE0
0000
0000
0000
0000
0000
0000
ENDCHAR

STARTCHAR period
ENCODING 46
SWIDTH 860 0
DWIDTH 12 0
BBX 12 14 0 -2
BITMAP
0000
0000
0000
0000
0000
0000
0000
0000
0000
0000
0600
0600
0000
0000
ENDCHAR

STARTCHAR slash
ENCODING 47
SWIDTH 860 0
DWIDTH 12 0
BBX 12 14 0 -2
BITMAP
0000
0000
0060
00C0
00C0
0180
0300
0300
0600
0C00
1800
1800
3000
0000
ENDCHAR

STARTCHAR zero
ENCODING 48
SWIDTH 860 0
DWIDTH 12 0
BBX 12 14 0 -2
BITMAP
0000
0000
0000
0F00
1080
30C0
30C0
30C0
30C0
30C0
1080
0F00
0000
0000
ENDCHAR

STARTCHAR one
ENCODING 49
SWIDTH 860 0
DWIDTH 12 0
BBX 12 14 0 -2
BITMAP
0000
0000
0000
0200
0600
0E00
1600
0600
0600
0600
0600
3FC0
0000
0000
ENDCHAR

STARTCHAR two
ENCODING 50
SWIDTH 860 0
DWIDTH 12 0
BBX 12 14 0 -2
BITMAP
0000
0000
0000
1F80
30C0
00C0
00C0
0180
0700
0C00
1800
3FC0
0000
0000
ENDCHAR

STARTCHAR three
ENCODING 51
SWIDTH 860 0
DWIDTH 12 0
BBX 12 14 0 -2
BITMAP
0000
0000
0000
1F80
30C0
00C0
00C0
0780
00C0
00C0
30C0
1F80
0000
0000
ENDCHAR

STARTCHAR four
ENCODING 52
SWIDTH 860 0
DWIDTH 12 0
BBX 12 14 0 -2
BITMAP
0000
0000
0000
0180
0380
0580
0980
1180
3FE0
0180
0180
0180
0000
0000
ENDCHAR

STARTCHAR five
ENCODING 53
SWIDTH 860 0
DWIDTH 12 0
BBX 12 14 0 -2
BITMAP
0000
0000
0000
3FC0
3000
3000
3F80
30C0
00C0
00C0
30C0
1F80
0000
0000
ENDCHAR

STARTCHAR six
ENCODING 54
SWIDTH 860 0
DWIDTH 12 0
BBX 12 14 0 -2
BITMAP
0000
0000
0000
0780
1800
3000
3000
3F80
30C0
30C0
30C0
1F80
0000
0000
ENDCHAR

STARTCHAR seven
ENCODING 55
SWIDTH 860 0
DWIDTH 12 0
BBX 12 14 0 -2
BITMAP
0000
0000
0000
3FC0
00C0
0180
0300
0600
0600
0C00
0C00
0C00
0000
0000
ENDCHAR

STARTCHAR eight
ENCODING 56
SWIDTH 860 0
DWIDTH 12 0
BBX 12 14 0 -2
BITMAP
0000
0000
0000
1F80
30C0
30C0
30C0
1F80
30C0
30C0
30C0
1F80
0000
0000
ENDCHAR

STARTCHAR nine
ENCODING 57
SWIDTH 860 0
DWIDTH 12 0
BBX 12 14 0 -2
BITMAP
0000
0000
0000
1F80
30C0
30C0
30C0
1FC0
00C0
00C0
0180
1F00
0000
0000
ENDCHAR

STARTCHAR colon
ENCODING 58
SWIDTH 860 0
DWIDTH 12 0
BBX 12 14 0 -2
BITMAP
0000
0000
0000
0000
0000
0600
0600
0000
0000
0000
0600
0600
0000
0000
ENDCHAR

STARTCHAR semicolon
ENCODING 59
SWIDTH 860 0
DWIDTH 12 0
BBX 12 14 0 -2
BITMAP
0000
0000
0000
0000
0000
0600
0600
0000
0000
0000
0600
0600
0C00
0000
ENDCHAR

STARTCHAR less
ENCODING 60
SWIDTH 860 0
DWIDTH 12 0
BBX 12 14 0 -2
BITMAP
0000
0000
0000
0000
0000
00C0
0300
0C00
3000
0C00
0300
00C0
0000
0000
ENDCHAR

STARTCHAR equal
ENCODING 61
SWIDTH 860 0
DWIDTH 12 0
BBX 12 14 0 -2
BITMAP
0000
0000
0000
0000
0000
0000
0000
7FE0
0000
7FE0
0000
0000
0000
0000
ENDCHAR

STARTCHAR greater
ENCODING 62
SWIDTH 860 0
DWIDTH 12 0
BBX 12 14 0 -2
BITMAP
0000
0000
0000
0000
0000
3000
0C00
0300
00C0
0300
0C00
3000
0000
0000
ENDCHAR

STARTCHAR question
ENCODING 63
SWIDTH 860 0
DWIDTH 12 0
BBX 12 14 0 -2
BITMAP
0000
0000
0000
3FC0
6060
0060
0060
03C0
0600
0000
0600
0600
0000
0000
ENDCHAR

STARTCHAR at
ENCODING 64
SWIDTH 860 0
DWIDTH 12 0
BBX 12 14 0 -2
BITMAP
0000
0000
0000
3FC0
6060
63E0
6660
6660
6660
63E0
6000
3FE0
0000
0000
ENDCHAR

STARTCHAR A
ENCODING 65
SWIDTH 860 0
DWIDTH 12 0
BBX 12 14 0 -2
BITMAP
0000
0000
0000
0F00
1980
30C0
30C0
7FE0
6060
6060
6060
6060
0000
0000
ENDCHAR

STARTCHAR B
ENCODING 66
SWIDTH 860 0
DWIDTH 12 0
BBX 12 14 0 -2
BITMAP
0000
0000
0000
7FC0
6060
6060
6060
7FC0
6060
6060
6060
7FC0
0000
0000
ENDCHAR

STARTCHAR C
ENCODING 67
SWIDTH 860 0
DWIDTH 12 0
BBX 12 14 0 -2
BITMAP
0000
0000
0000
3FC0
6060
6000
6000
6000
6000
6000
6060
3FC0
0000
0000
ENDCHAR

STARTCHAR D
ENCODING 68
SWIDTH 860 0
DWIDTH 12 0
BBX 12 14 0 -2
BITMAP
0000
0000
0000
7FC0
6060
6060
6060
6060
6060
6060
6060
7FC0
0000
0000
ENDCHAR

STARTCHAR E
ENCODING 69
SWIDTH 860 0
DWIDTH 12 0
BBX 12 14 0 -2
BITMAP
0000
0000
0000
3FE0
3000
3000
3000
3FC0
3000
3000
3000
3FE0
0000
0000
ENDCHAR

STARTCHAR F
ENCODING 70
SWIDTH 860 0
DWIDTH 12 0
BBX 12 14 0 -2
BITMAP
0000
0000
0000
3FE0
3000
3000
3000
3FC0
3000
3000
3000
3000
0000
0000
ENDCHAR

STARTCHAR G
ENCODING 71
SWIDTH 860 0
DWIDTH 12 0
BBX 12 14 0 -2
BITMAP
0000
0000
0000
3FC0
6060
6000
6000
6000
61E0
6060
6060
3FC0
0000
0000
ENDCHAR

STARTCHAR H
ENCODING 72
SWIDTH 860 0
DWIDTH 12 0
BBX 12 14 0 -2
BITMAP
0000
0000
0000
6060
6060
6060
6060
7FE0
6060
6060
6060
6060
0000
0000
ENDCHAR

STARTCHAR I
ENCODING 73
SWIDTH 860 0
DWIDTH 12 0
BBX 12 14 0 -2
BITMAP
0000
0000
0000
7FE0
0600
0600
0600
0600
0600
0600
0600
7FE0
0000
0000
ENDCHAR

STARTCHAR J
ENCODING 74
SWIDTH 860 0
DWIDTH 12 0
BBX 12 14 0 -2
BITMAP
0000
0000
0000
1FE0
0180
0180
0180
0180
0180
0180
6180
3F00
0000
0000
ENDCHAR

STARTCHAR K
ENCODING 75
SWIDTH 860 0
DWIDTH 12 0
BBX 12 14 0 -2
BITMAP
0000
0000
0000
6060
6180
6600
7800
7C00
6600
6180
60C0
6060
0000
0000
ENDCHAR

STARTCHAR L
ENCODING 76
SWIDTH 860 0
DWIDTH 12 0
BBX 12 14 0 -2
BITMAP
0000
0000
0000
3000
3000
3000
3000
3000
3000
3000
3000
3FE0
0000
0000
ENDCHAR

STARTCHAR M
ENCODING 77
SWIDTH 860 0
DWIDTH 12 0
BBX 12 14 0 -2
BITMAP
0000
0000
0000
6060
70E0
79E0
6F60
6660
6660
6060
6060
6060
0000
0000
ENDCHAR

STARTCHAR N
ENCODING 78
SWIDTH 860 0
DWIDTH 12 0
BBX 12 14 0 -2
BITMAP
0000
0000
0000
6060
7060
7860
6C60
6660
6360
61E0
60E0
6060
0000
0000
ENDCHAR

STARTCHAR O
ENCODING 79
SWIDTH 860 0
DWIDTH 12 0
BBX 12 14 0 -2
BITMAP
0000
0000
0000
3FC0
6060
6060
6060
6060
6060
6060
6060
3FC0
0000
0000
ENDCHAR

STARTCHAR P
ENCODING 80
SWIDTH 860 0
DWIDTH 12 0
BBX 12 14 0 -2
BITMAP
0000
0000
0000
7FC0
6060
6060
6060
7FC0
6000
6000
6000
6000
0000
0000
ENDCHAR

STARTCHAR Q
ENCODING 81
SWIDTH 860 0
DWIDTH 12 0
BBX 12 14 0 -2
BITMAP
0000
0000
0000
3FC0
6060
6060
6060
6060
6060
6060
61E0
3FC0
0060
0000
ENDCHAR

STARTCHAR R
ENCODING 82
SWIDTH 860 0
DWIDTH 12 0
BBX 12 14 0 -2
BITMAP
0000
0000
0000
7FC0
6060
6060
6060
7FC0
6180
60C0
60C0
6060
0000
0000
ENDCHAR

STARTCHAR S
ENCODING 83
SWIDTH 860 0
DWIDTH 12 0
BBX 12 14 0 -2
BITMAP
0000
0000
0000
3FC0
6060
6000
6000
3FC0
0060
0060
6060
3FC0
0000
0000
ENDCHAR

STARTCHAR T
ENCODING 84
SWIDTH 860 0
DWIDTH 12 0
BBX 12 14 0 -2
BITMAP
0000
0000
0000
7FE0
0600
0600
0600
0600
0600
0600
0600
0600
0000
0000
ENDCHAR

STARTCHAR U
ENCODING 85
SWIDTH 860 0
DWIDTH 12 0
BBX 12 14 0 -2
BITMAP
0000
0000
0000
6060
6060
6060
6060
6060
6060
6060
6060
3FC0
0000
0000
ENDCHAR

STARTCHAR V
ENCODING 86
SWIDTH 860 0
DWIDTH 12 0
BBX 12 14 0 -2
BITMAP
0000
0000
0000
6060
6060
6060
6060
30C0
30C0
1980
0F00
0600
0000
0000
ENDCHAR

STARTCHAR W
ENCODING 87
SWIDTH 860 0
DWIDTH 12 0
BBX 12 14 0 -2
BITMAP
0000
0000
0000
6060
6060
6060
6660
6660
6F60
2940
39C0
1080
0000
0000
ENDCHAR

STARTCHAR X
ENCODING 88
SWIDTH 860 0
DWIDTH 12 0
BBX 12 14 0 -2
BITMAP
0000
0000
0000
6060
30C0
1980
0F00
0F00
1980
30C0
30C0
6060
0000
0000
ENDCHAR

STARTCHAR Y
ENCODING 89
SWIDTH 860 0
DWIDTH 12 0
BBX 12 14 0 -2
BITMAP
0000
0000
0000
6060
30C0
1980
0F00
0600
0600
0600
0600
0600
0000
0000
ENDCHAR

STARTCHAR Z
ENCODING 90
SWIDTH 860 0
DWIDTH 12 0
BBX 12 14 0 -2
BITMAP
0000
0000
0000
7FC0
0180
0300
0600
0E00
0C00
1800
3000
7FC0
0000
0000
ENDCHAR

STARTCHAR bracketleft
ENCODING 91
SWIDTH 860 0
DWIDTH 12 0
BBX 12 14 0 -2
BITMAP
0000
0000
0FC0
0C00
0C00
0C00
0C00
0C00
0C00
0C00
0C00
0C00
0FC0
0000
ENDCHAR

STARTCHAR backslash
ENCODING 92
SWIDTH 860 0
DWIDTH 12 0
BBX 12 14 0 -2
BITMAP
0000
0000
3000
1800
1800
0C00
0600
0300
0300
0180
00C0
00C0
0060
0000
ENDCHAR

STARTCHAR bracketright
ENCODING 93
SWIDTH 860 0
DWIDTH 12 0
BBX 12 14 0 -2
BITMAP
0000
0000
1F80
0180
0180
0180
0180
0180
0180
0180
0180
0180
1F80
0000
ENDCHAR

STARTCHAR asciicircum
ENCODING 94
SWIDTH 860 0
DWIDTH 12 0
BBX 12 14 0 -2
BITMAP
0000
0000
0000
0000
0000
0600
1980
6060
0000
0000
0000
0000
0000
0000
ENDCHAR

STARTCHAR underscore
ENCODING 95
SWIDTH 860 0
DWIDTH 12 0
BBX 12 14 0 -2
BITMAP
0000
0000
0000
0000
0000
0000
0000
0000
0000
0000
0000
7FE0
0000
0000
ENDCHAR

STARTCHAR quoteleft
ENCODING 96
SWIDTH 860 0
DWIDTH 12 0
BBX 12 14 0 -2
BITMAP
0000
0000
0000
0600
0600
0400
0200
0000
0000
0000
0000
0000
0000
0000
ENDCHAR

STARTCHAR a
ENCODING 97
SWIDTH 860 0
DWIDTH 12 0
BBX 12 14 0 -2
BITMAP
0000
0000
0000
0000
0000
3FC0
0060
0060
3FE0
6060
6060
3FB0
0000
0000
ENDCHAR

STARTCHAR b
ENCODING 98
SWIDTH 860 0
DWIDTH 12 0
BBX 12 14 0 -2
BITMAP
0000
0000
0000
6000
6000
6FC0
7060
6060
6060
6060
7060
6FC0
0000
0000
ENDCHAR

STARTCHAR c
ENCODING 99
SWIDTH 860 0
DWIDTH 12 0
BBX 12 14 0 -2
BITMAP
0000
0000
0000
0000
0000
3FC0
6060
6000
6000
6000
6060
3FC0
0000
0000
ENDCHAR

STARTCHAR d
ENCODING 100
SWIDTH 860 0
DWIDTH 12 0
BBX 12 14 0 -2
BITMAP
0000
0000
0000
0060
0060
3F60
60E0
6060
6060
6060
60E0
3F60
0000
0000
ENDCHAR

STARTCHAR e
ENCODING 101
SWIDTH 860 0
DWIDTH 12 0
BBX 12 14 0 -2
BITMAP
0000
0000
0000
0000
0000
3FC0
6060
6060
7FE0
6000
6060
3FC0
0000
0000
ENDCHAR

STARTCHAR f
ENCODING 102
SWIDTH 860 0
DWIDTH 12 0
BBX 12 14 0 -2
BITMAP
0000
0000
0000
0FE0
1800
1800
7FC0
1800
1800
1800
1800
1800
0000
0000
ENDCHAR

STARTCHAR g
ENCODING 103
SWIDTH 860 0
DWIDTH 12 0
BBX 12 14 0 -2
BITMAP
0000
0000
0000
0000
0000
3FE0
6060
6060
6060
6060
3FE0
0060
00C0
3F00
ENDCHAR

STARTCHAR h
ENCODING 104
SWIDTH 860 0
DWIDTH 12 0
BBX 12 14 0 -2
BITMAP
0000
0000
0000
6000
6000
6FC0
7060
6060
6060
6060
6060
6060
0000
0000
ENDCHAR

STARTCHAR i
ENCODING 105
SWIDTH 860 0
DWIDTH 12 0
BBX 12 14 0 -2
BITMAP
0000
0000
0000
0600
0000
1E00
0600
0600
0600
0600
0600
7FE0
0000
0000
ENDCHAR

STARTCHAR j
ENCODING 106
SWIDTH 860 0
DWIDTH 12 0
BBX 12 14 0 -2
BITMAP
0000
0000
0000
0300
0000
1F00
0300
0300
0300
0300
0300
0300
0300
7E00
ENDCHAR

STARTCHAR k
ENCODING 107
SWIDTH 860 0
DWIDTH 12 0
BBX 12 14 0 -2
BITMAP
0000
0000
0000
6000
6000
6060
6180
6600
7800
6600
6180
6060
0000
0000
ENDCHAR

STARTCHAR l
ENCODING 108
SWIDTH 860 0
DWIDTH 12 0
BBX 12 14 0 -2
BITMAP
0000
0000
0000
1E00
0600
0600
0600
0600
0600
0600
0600
7FE0
0000
0000
ENDCHAR

STARTCHAR m
ENCODING 109
SWIDTH 860 0
DWIDTH 12 0
BBX 12 14 0 -2
BITMAP
0000
0000
0000
0000
0000
79C0
6660
6660
6660
6660
6060
6060
0000
0000
ENDCHAR

STARTCHAR n
ENCODING 110
SWIDTH 860 0
DWIDTH 12 0
BBX 12 14 0 -2
BITMAP
0000
0000
0000
0000
0000
6FC0
7060
6060
6060
6060
6060
6060
0000
0000
ENDCHAR

STARTCHAR o
ENCODING 111
SWIDTH 860 0
DWIDTH 12 0
BBX 12 14 0 -2
BITMAP
0000
0000
0000
0000
0000
3FC0
6060
6060
6060
6060
6060
3FC0
0000
0000
ENDCHAR

STARTCHAR p
ENCODING 112
SWIDTH 860 0
DWIDTH 12 0
BBX 12 14 0 -2
BITMAP
0000
0000
0000
0000
0000
6FC0
7060
6060
6060
6060
7060
6FC0
6000
6000
ENDCHAR

STARTCHAR q
ENCODING 113
SWIDTH 860 0
DWIDTH 12 0
BBX 12 14 0 -2
BITMAP
0000
0000
0000
0000
0000
3F60
60E0
6060
6060
6060
60E0
3F60
0060
0060
ENDCHAR

STARTCHAR r
ENCODING 114
SWIDTH 860 0
DWIDTH 12 0
BBX 12 14 0 -2
BITMAP
0000
0000
0000
0000
0000
3BC0
1C60
1800
1800
1800
1800
1800
0000
0000
ENDCHAR

STARTCHAR s
ENCODING 115
SWIDTH 860 0
DWIDTH 12 0
BBX 12 14 0 -2
BITMAP
0000
0000
0000
0000
0000
3FC0
6020
6000
3FC0
0060
6060
3FC0
0000
0000
ENDCHAR

STARTCHAR t
ENCODING 116
SWIDTH 860 0
DWIDTH 12 0
BBX 12 14 0 -2
BITMAP
0000
0000
0000
1800
1800
7F80
1800
1800
1800
1800
1800
0FC0
0000
0000
ENDCHAR

STARTCHAR u
ENCODING 117
SWIDTH 860 0
DWIDTH 12 0
BBX 12 14 0 -2
BITMAP
0000
0000
0000
0000
0000
6060
6060
6060
6060
6060
60E0
3F60
0000
0000
ENDCHAR

STARTCHAR v
ENCODING 118
SWIDTH 860 0
DWIDTH 12 0
BBX 12 14 0 -2
BITMAP
0000
0000
0000
0000
0000
6060
6060
30C0
30C0
1980
0F00
0600
0000
0000
ENDCHAR

STARTCHAR w
ENCODING 119
SWIDTH 860 0
DWIDTH 12 0
BBX 12 14 0 -2
BITMAP
0000
0000
0000
0000
0000
6060
6060
6660
6660
6660
6F60
39C0
0000
0000
ENDCHAR

STARTCHAR x
ENCODING 120
SWIDTH 860 0
DWIDTH 12 0
BBX 12 14 0 -2
BITMAP
0000
0000
0000
0000
0000
60C0
3180
1F00
0E00
1B00
3180
60C0
0000
0000
ENDCHAR

STARTCHAR y
ENCODING 121
SWIDTH 860 0
DWIDTH 12 0
BBX 12 14 0 -2
BITMAP
0000
0000
0000
0000
0000
6060
6060
30C0
30C0
1980
0F00
0600
0C00
3800
ENDCHAR

STARTCHAR z
ENCODING 122
SWIDTH 860 0
DWIDTH 12 0
BBX 12 14 0 -2
BITMAP
0000
0000
0000
0000
0000
7FC0
01C0
0380
0E00
1C00
7000
7FC0
0000
0000
ENDCHAR

STARTCHAR braceleft
ENCODING 123
SWIDTH 860 0
DWIDTH 12 0
BBX 12 14 0 -2
BITMAP
0000
0000
07C0
0C00
0C00
0C00
0600
3C00
0600
0C00
0C00
0C00
07C0
0000
ENDCHAR

STARTCHAR bar
ENCODING 124
SWIDTH 860 0
DWIDTH 12 0
BBX 12 14 0 -2
BITMAP
0000
0000
0600
0600
0600
0600
0600
0600
0600
0600
0600
0600
0600
0000
ENDCHAR

STARTCHAR braceright
ENCODING 125
SWIDTH 860 0
DWIDTH 12 0
BBX 12 14 0 -2
BITMAP
0000
0000
3E00
0300
0300
0300
0600
03C0
0600
0300
0300
0300
3E00
0000
ENDCHAR

STARTCHAR asciitilde
ENCODING 126
SWIDTH 860 0
DWIDTH 12 0
BBX 12 14 0 -2
BITMAP
0000
0000
0000
0000
0000
3C60
6660
63C0
0000
0000
0000
0000
0000
0000
ENDCHAR

STARTCHAR OE
ENCODING 128
SWIDTH 860 0
DWIDTH 12 0
BBX 12 14 0 -2
BITMAP
0000
0000
0000
3FF0
6300
6300
6300
63E0
6300
6300
6300
3FF0
0000
0000
ENDCHAR

STARTCHAR oe
ENCODING 129
SWIDTH 860 0
DWIDTH 12 0
BBX 12 14 0 -2
BITMAP
0000
0000
0000
0000
0000
3FC0
6620
6620
67E0
6600
6620
3FC0
0000
0000
ENDCHAR

STARTCHAR Ydieresis
ENCODING 130
SWIDTH 860 0
DWIDTH 12 0
BBX 12 14 0 -2
BITMAP
1980
1980
0000
6060
30C0
1980
0F00
0600
0600
0600
0600
0600
0000
0000
ENDCHAR

STARTCHAR Error
ENCODING 159
SWIDTH 860 0
DWIDTH 12 0
BBX 12 14 0 -2
BITMAP
0000
1FC0
3FE0
7060
6000
7000
3C00
0E00
0600
0600
0000
0600
0600
0600
ENDCHAR

STARTCHAR space
ENCODING 160
SWIDTH 860 0
DWIDTH 12 0
BBX 12 14 0 -2
BITMAP
0000
0000
0000
0000
0000
0000
0000
0000
0000
0000
0000
0000
0000
0000
ENDCHAR

STARTCHAR exclamdown
ENCODING 161
SWIDTH 860 0
DWIDTH 12 0
BBX 12 14 0 -2
BITMAP
0000
0000
0000
0600
0600
0000
0600
0600
0600
0600
0600
0600
0600
0000
ENDCHAR

STARTCHAR cent
ENCODING 162
SWIDTH 860 0
DWIDTH 12 0
BBX 12 14 0 -2
BITMAP
0000
0000
0000
0600
0600
3FC0
6060
6000
6060
3FC0
0600
0600
0000
0000
ENDCHAR

STARTCHAR sterling
ENCODING 163
SWIDTH 860 0
DWIDTH 12 0
BBX 12 14 0 -2
BITMAP
0000
0000
0000
0F80
18C0
18C0
1800
7E00
1800
1800
1860
6FC0
0000
0000
ENDCHAR

STARTCHAR currency
ENCODING 164
SWIDTH 860 0
DWIDTH 12 0
BBX 12 14 0 -2
BITMAP
0000
0000
0000
0000
2040
1F80
1980
1980
1980
1F80
2040
0000
0000
0000
ENDCHAR

STARTCHAR yen
ENCODING 165
SWIDTH 860 0
DWIDTH 12 0
BBX 12 14 0 -2
BITMAP
0000
0000
0000
6060
6060
30C0
1980
7FE0
0600
7FE0
0600
0600
0000
0000
ENDCHAR

STARTCHAR brokenbar
ENCODING 166
SWIDTH 860 0
DWIDTH 12 0
BBX 12 14 0 -2
BITMAP
0000
0000
0600
0600
0600
0600
0000
0000
0000
0600
0600
0600
0600
0000
ENDCHAR

STARTCHAR section
ENCODING 167
SWIDTH 860 0
DWIDTH 12 0
BBX 12 14 0 -2
BITMAP
0000
0000
0000
1F80
30C0
1800
1F80
30C0
30C0
1F80
0180
30C0
1F80
0000
ENDCHAR

STARTCHAR dieresi
ENCODING 168
SWIDTH 860 0
DWIDTH 12 0
BBX 12 14 0 -2
BITMAP
0000
0000
1980
1980
0000
0000
0000
0000
0000
0000
0000
0000
0000
0000
ENDCHAR

STARTCHAR copyright
ENCODING 169
SWIDTH 860 0
DWIDTH 12 0
BBX 12 14 0 -2
BITMAP
0000
0000
0000
0000
3FC0
4020
4720
4C20
4C20
4720
4020
3FC0
0000
0000
ENDCHAR

STARTCHAR ordfeminine
ENCODING 170
SWIDTH 860 0
DWIDTH 12 0
BBX 12 14 0 -2
BITMAP
0000
0000
0000
1F80
00C0
1FC0
30C0
1FC0
0000
3FC0
0000
0000
0000
0000
ENDCHAR

STARTCHAR guillemotleft
ENCODING 171
SWIDTH 860 0
DWIDTH 12 0
BBX 12 14 0 -2
BITMAP
0000
0000
0000
0000
0000
0000
0630
18C0
6300
18C0
0630
0000
0000
0000
ENDCHAR

STARTCHAR logicalnot
ENCODING 172
SWIDTH 860 0
DWIDTH 12 0
BBX 12 14 0 -2
BITMAP
0000
0000
0000
0000
0000
0000
7FE0
0060
0060
0000
0000
0000
0000
0000
ENDCHAR

STARTCHAR hyphen
ENCODING 173
SWIDTH 860 0
DWIDTH 12 0
BBX 12 14 0 -2
BITMAP
0000
0000
0000
0000
0000
0000
0000
1F00
0000
0000
0000
0000
0000
0000
ENDCHAR

STARTCHAR registered
ENCODING 174
SWIDTH 860 0
DWIDTH 12 0
BBX 12 14 0 -2
BITMAP
0000
0000
0000
0000
3FC0
4020
5F20
59A0
5F20
59A0
4020
3FC0
0000
0000
ENDCHAR

STARTCHAR macron
ENCODING 175
SWIDTH 860 0
DWIDTH 12 0
BBX 12 14 0 -2
BITMAP
0000
0000
0000
3FC0
0000
0000
0000
0000
0000
0000
0000
0000
0000
0000
ENDCHAR

STARTCHAR degree
ENCODING 176
SWIDTH 860 0
DWIDTH 12 0
BBX 12 14 0 -2
BITMAP
0000
0000
0000
0F00
1980
0F00
0000
0000
0000
0000
0000
0000
0000
0000
ENDCHAR

STARTCHAR plusminus
ENCODING 177
SWIDTH 860 0
DWIDTH 12 0
BBX 12 14 0 -2
BITMAP
0000
0000
0000
0000
0000
0600
0600
7FE0
0600
0600
0000
7FE0
0000
0000
ENDCHAR

STARTCHAR twosuperior
ENCODING 178
SWIDTH 860 0
DWIDTH 12 0
BBX 12 14 0 -2
BITMAP
0000
0000
0000
1F00
0180
0F00
1800
1F80
0000
0000
0000
0000
0000
0000
ENDCHAR

STARTCHAR threesuperior
ENCODING 179
SWIDTH 860 0
DWIDTH 12 0
BBX 12 14 0 -2
BITMAP
0000
0000
0000
1F00
0180
0700
0180
1F00
0000
0000
0000
0000
0000
0000
ENDCHAR

STARTCHAR acute
ENCODING 180
SWIDTH 860 0
DWIDTH 12 0
BBX 12 14 0 -2
BITMAP
0000
0300
0600
0000
0000
0000
0000
0000
0000
0000
0000
0000
0000
0000
ENDCHAR

STARTCHAR mu
ENCODING 181
SWIDTH 860 0
DWIDTH 12 0
BBX 12 14 0 -2
BITMAP
0000
0000
0000
0000
0000
1980
1980
1980
1980
1980
1980
3F60
3000
3000
ENDCHAR

STARTCHAR paragraph
ENCODING 182
SWIDTH 860 0
DWIDTH 12 0
BBX 12 14 0 -2
BITMAP
0000
0000
0000
3FC0
7CC0
7CC0
7CC0
7CC0
3CC0
0CC0
0CC0
0CC0
0CC0
0000
ENDCHAR

STARTCHAR periodcentered
ENCODING 183
SWIDTH 860 0
DWIDTH 12 0
BBX 12 14 0 -2
BITMAP
0000
0000
0000
0000
0000
0000
0000
0600
0600
0000
0000
0000
0000
0000
ENDCHAR

STARTCHAR cedilla
ENCODING 184
SWIDTH 860 0
DWIDTH 12 0
BBX 12 14 0 -2
BITMAP
0000
0000
0000
0000
0000
0000
0000
0000
0000
0000
0000
0300
0700
1C00
ENDCHAR

STARTCHAR onesuperior
ENCODING 185
SWIDTH 860 0
DWIDTH 12 0
BBX 12 14 0 -2
BITMAP
0000
0000
0000
0600
1E00
0600
0600
1F80
0000
0000
0000
0000
0000
0000
ENDCHAR

STARTCHAR ordmasculine
ENCODING 186
SWIDTH 860 0
DWIDTH 12 0
BBX 12 14 0 -2
BITMAP
0000
0000
0000
1F80
30C0
30C0
30C0
1F80
0000
3FC0
0000
0000
0000
0000
ENDCHAR

STARTCHAR guillemotright
ENCODING 187
SWIDTH 860 0
DWIDTH 12 0
BBX 12 14 0 -2
BITMAP
0000
0000
0000
0000
0000
0000
6300
18C0
0630
18C0
6300
0000
0000
0000
ENDCHAR

STARTCHAR onequarter
ENCODING 188
SWIDTH 860 0
DWIDTH 12 0
BBX 12 14 0 -2
BITMAP
0000
0000
0000
1800
7800
1860
1980
3E00
1980
6780
1D80
1FE0
0180
0000
ENDCHAR

STARTCHAR onehalf
ENCODING 189
SWIDTH 860 0
DWIDTH 12 0
BBX 12 14 0 -2
BITMAP
0000
0000
0000
1800
7800
1860
1980
3E00
1FC0
6060
03C0
0600
07E0
0000
ENDCHAR

STARTCHAR threequarters
ENCODING 190
SWIDTH 860 0
DWIDTH 12 0
BBX 12 14 0 -2
BITMAP
0000
0000
0000
7800
0C00
3860
0D80
7B00
0DC0
33C0
0EC0
0FF0
00C0
0000
ENDCHAR

STARTCHAR questiondown
ENCODING 191
SWIDTH 860 0
DWIDTH 12 0
BBX 12 14 0 -2
BITMAP
0000
0000
0000
0600
0600
0000
0600
0600
0600
3C00
6000
6060
3FC0
0000
ENDCHAR

STARTCHAR Agrave
ENCODING 192
SWIDTH 860 0
DWIDTH 12 0
BBX 12 14 0 -2
BITMAP
0C00
0600
0000
0F00
1980
30C0
30C0
7FE0
6060
6060
6060
6060
0000
0000
ENDCHAR

STARTCHAR Aacute
ENCODING 193
SWIDTH 860 0
DWIDTH 12 0
BBX 12 14 0 -2
BITMAP
0300
0600
0000
0F00
1980
30C0
30C0
7FE0
6060
6060
6060
6060
0000
0000
ENDCHAR

STARTCHAR Acircumflex
ENCODING 194
SWIDTH 860 0
DWIDTH 12 0
BBX 12 14 0 -2
BITMAP
0600
1980
0000
0F00
1980
30C0
30C0
7FE0
6060
6060
6060
6060
0000
0000
ENDCHAR

STARTCHAR Atilde
ENCODING 195
SWIDTH 860 0
DWIDTH 12 0
BBX 12 14 0 -2
BITMAP
3C60
63C0
0000
0F00
1980
30C0
30C0
7FE0
6060
6060
6060
6060
0000
0000
ENDCHAR

STARTCHAR Adieresis
ENCODING 196
SWIDTH 860 0
DWIDTH 12 0
BBX 12 14 0 -2
BITMAP
1980
1980
0000
0F00
1980
30C0
30C0
7FE0
6060
6060
6060
6060
0000
0000
ENDCHAR

STARTCHAR Aring
ENCODING 197
SWIDTH 860 0
DWIDTH 12 0
BBX 12 14 0 -2
BITMAP
0F00
1980
0F00
0F00
1980
30C0
6060
7FE0
6060
6060
6060
6060
0000
0000
ENDCHAR

STARTCHAR AE
ENCODING 198
SWIDTH 860 0
DWIDTH 12 0
BBX 12 14 0 -2
BITMAP
0000
0000
0000
1FF0
3300
3300
6300
63E0
7F00
6300
6300
63F0
0000
0000
ENDCHAR

STARTCHAR Ccedilla
ENCODING 199
SWIDTH 860 0
DWIDTH 12 0
BBX 12 14 0 -2
BITMAP
0000
0000
0000
3FC0
6060
6000
6000
6000
6000
6000
6060
3FC0
0700
1C00
ENDCHAR

STARTCHAR Egrave
ENCODING 200
SWIDTH 860 0
DWIDTH 12 0
BBX 12 14 0 -2
BITMAP
0600
0300
0000
3FE0
3000
3000
3000
3FC0
3000
3000
3000
3FE0
0000
0000
ENDCHAR

STARTCHAR Eacute
ENCODING 201
SWIDTH 860 0
DWIDTH 12 0
BBX 12 14 0 -2
BITMAP
0180
0300
0000
3FE0
3000
3000
3000
3FC0
3000
3000
3000
3FE0
0000
0000
ENDCHAR

STARTCHAR Ecircumflex
ENCODING 202
SWIDTH 860 0
DWIDTH 12 0
BBX 12 14 0 -2
BITMAP
0600
1980
0000
3FE0
3000
3000
3000
3FC0
3000
3000
3000
3FE0
0000
0000
ENDCHAR

STARTCHAR Edieresis
ENCODING 203
SWIDTH 860 0
DWIDTH 12 0
BBX 12 14 0 -2
BITMAP
0CC0
0CC0
0000
3FE0
3000
3000
3000
3FC0
3000
3000
3000
3FE0
0000
0000
ENDCHAR

STARTCHAR Igrave
ENCODING 204
SWIDTH 860 0
DWIDTH 12 0
BBX 12 14 0 -2
BITMAP
0C00
0600
0000
7FE0
0600
0600
0600
0600
0600
0600
0600
7FE0
0000
0000
ENDCHAR

STARTCHAR Iacute
ENCODING 205
SWIDTH 860 0
DWIDTH 12 0
BBX 12 14 0 -2
BITMAP
0300
0600
0000
7FE0
0600
0600
0600
0600
0600
0600
0600
7FE0
0000
0000
ENDCHAR

STARTCHAR Icircumflex
ENCODING 206
SWIDTH 860 0
DWIDTH 12 0
BBX 12 14 0 -2
BITMAP
0600
1980
0000
7FE0
0600
0600
0600
0600
0600
0600
0600
7FE0
0000
0000
ENDCHAR

STARTCHAR Idieresis
ENCODING 207
SWIDTH 860 0
DWIDTH 12 0
BBX 12 14 0 -2
BITMAP
1980
1980
0000
7FE0
0600
0600
0600
0600
0600
0600
0600
7FE0
0000
0000
ENDCHAR

STARTCHAR Eth
ENCODING 208
SWIDTH 860 0
DWIDTH 12 0
BBX 12 14 0 -2
BITMAP
0000
0000
0000
7FC0
6060
6060
6060
F860
6060
6060
6060
7FC0
0000
0000
ENDCHAR

STARTCHAR Ntilde
ENCODING 209
SWIDTH 860 0
DWIDTH 12 0
BBX 12 14 0 -2
BITMAP
3C60
63C0
0000
6060
7060
7860
6C60
6460
6660
6360
61E0
60E0
0000
0000
ENDCHAR

STARTCHAR Ograve
ENCODING 210
SWIDTH 860 0
DWIDTH 12 0
BBX 12 14 0 -2
BITMAP
0C00
0600
0000
3FC0
6060
6060
6060
6060
6060
6060
6060
3FC0
0000
0000
ENDCHAR

STARTCHAR Oacute
ENCODING 211
SWIDTH 860 0
DWIDTH 12 0
BBX 12 14 0 -2
BITMAP
0300
0600
0000
3FC0
6060
6060
6060
6060
6060
6060
6060
3FC0
0000
0000
ENDCHAR

STARTCHAR Ocircumflex
ENCODING 212
SWIDTH 860 0
DWIDTH 12 0
BBX 12 14 0 -2
BITMAP
0600
1980
0000
3FC0
6060
6060
6060
6060
6060
6060
6060
3FC0
0000
0000
ENDCHAR

STARTCHAR Otilde
ENCODING 213
SWIDTH 860 0
DWIDTH 12 0
BBX 12 14 0 -2
BITMAP
3C60
63C0
0000
3FC0
6060
6060
6060
6060
6060
6060
6060
3FC0
0000
0000
ENDCHAR

STARTCHAR Odieresis
ENCODING 214
SWIDTH 860 0
DWIDTH 12 0
BBX 12 14 0 -2
BITMAP
1980
1980
0000
3FC0
6060
6060
6060
6060
6060
6060
6060
3FC0
0000
0000
ENDCHAR

STARTCHAR multiply
ENCODING 215
SWIDTH 860 0
DWIDTH 12 0
BBX 12 14 0 -2
BITMAP
0000
0000
0000
0000
0000
6060
1980
0600
1980
6060
0000
0000
0000
0000
ENDCHAR

STARTCHAR Oslash
ENCODING 216
SWIDTH 860 0
DWIDTH 12 0
BBX 12 14 0 -2
BITMAP
0000
0000
0020
1FC0
30C0
31C0
32C0
34C0
34C0
38C0
30C0
3F80
4000
0000
ENDCHAR

STARTCHAR Ugrave
ENCODING 217
SWIDTH 860 0
DWIDTH 12 0
BBX 12 14 0 -2
BITMAP
0C00
0600
0000
6060
6060
6060
6060
6060
6060
6060
6060
3FC0
0000
0000
ENDCHAR

STARTCHAR Uacute
ENCODING 218
SWIDTH 860 0
DWIDTH 12 0
BBX 12 14 0 -2
BITMAP
0300
0600
0000
6060
6060
6060
6060
6060
6060
6060
6060
3FC0
0000
0000
ENDCHAR

STARTCHAR Ucircumflex
ENCODING 219
SWIDTH 860 0
DWIDTH 12 0
BBX 12 14 0 -2
BITMAP
0600
1980
0000
6060
6060
6060
6060
6060
6060
6060
6060
3FC0
0000
0000
ENDCHAR

STARTCHAR Udieresis
ENCODING 220
SWIDTH 860 0
DWIDTH 12 0
BBX 12 14 0 -2
BITMAP
1980
1980
0000
6060
6060
6060
6060
6060
6060
6060
6060
3FC0
0000
0000
ENDCHAR

STARTCHAR Yacute
ENCODING 221
SWIDTH 860 0
DWIDTH 12 0
BBX 12 14 0 -2
BITMAP
0300
0600
0000
6060
30C0
1980
0F00
0600
0600
0600
0600
0600
0000
0000
ENDCHAR

STARTCHAR Thorn
ENCODING 222
SWIDTH 860 0
DWIDTH 12 0
BBX 12 14 0 -2
BITMAP
0000
0000
0000
7E00
1800
1FC0
1860
1860
1860
1FC0
1800
7E00
0000
0000
ENDCHAR

STARTCHAR germandbls
ENCODING 223
SWIDTH 860 0
DWIDTH 12 0
BBX 12 14 0 -2
BITMAP
0000
0000
0000
0FC0
1860
1860
1860
39C0
1860
1860
1860
79C0
0000
0000
ENDCHAR

STARTCHAR agrave
ENCODING 224
SWIDTH 860 0
DWIDTH 12 0
BBX 12 14 0 -2
BITMAP
0000
0000
0C00
0600
0000
3FC0
0060
0060
3FE0
6060
6060
3FB0
0000
0000
ENDCHAR

STARTCHAR aacute
ENCODING 225
SWIDTH 860 0
DWIDTH 12 0
BBX 12 14 0 -2
BITMAP
0000
0000
0300
0600
0000
3FC0
0060
0060
3FE0
6060
6060
3FB0
0000
0000
ENDCHAR

STARTCHAR acircumflex
ENCODING 226
SWIDTH 860 0
DWIDTH 12 0
BBX 12 14 0 -2
BITMAP
0000
0000
0600
1980
0000
3FC0
0060
0060
3FE0
6060
6060
3FB0
0000
0000
ENDCHAR

STARTCHAR atilde
ENCODING 227
SWIDTH 860 0
DWIDTH 12 0
BBX 12 14 0 -2
BITMAP
0000
0000
3C60
63C0
0000
3FC0
0060
0060
3FE0
6060
6060
3FB0
0000
0000
ENDCHAR

STARTCHAR adieresis
ENCODING 228
SWIDTH 860 0
DWIDTH 12 0
BBX 12 14 0 -2
BITMAP
0000
0000
1980
1980
0000
3FC0
0060
0060
3FE0
6060
6060
3FB0
0000
0000
ENDCHAR

STARTCHAR aring
ENCODING 229
SWIDTH 860 0
DWIDTH 12 0
BBX 12 14 0 -2
BITMAP
0000
0F80
18C0
0F80
0000
3FC0
0060
0060
3FE0
6060
6060
3FB0
0000
0000
ENDCHAR

STARTCHAR ae
ENCODING 230
SWIDTH 860 0
DWIDTH 12 0
BBX 12 14 0 -2
BITMAP
0000
0000
0000
0000
0000
7BC0
0620
0620
3FE0
4600
4620
3BC0
0000
0000
ENDCHAR

STARTCHAR ccedilla
ENCODING 231
SWIDTH 860 0
DWIDTH 12 0
BBX 12 14 0 -2
BITMAP
0000
0000
0000
0000
0000
3FC0
6060
6000
6000
6000
6060
3FC0
0700
1C00
ENDCHAR

STARTCHAR egrave
ENCODING 232
SWIDTH 860 0
DWIDTH 12 0
BBX 12 14 0 -2
BITMAP
0000
0000
0C00
0600
0000
3FC0
6060
6060
7FE0
6000
6060
3FC0
0000
0000
ENDCHAR

STARTCHAR eacute
ENCODING 233
SWIDTH 860 0
DWIDTH 12 0
BBX 12 14 0 -2
BITMAP
0000
0000
0300
0600
0000
3FC0
6060
6060
7FE0
6000
6060
3FC0
0000
0000
ENDCHAR

STARTCHAR ecircumflex
ENCODING 234
SWIDTH 860 0
DWIDTH 12 0
BBX 12 14 0 -2
BITMAP
0000
0000
0600
1980
0000
3FC0
6060
6060
7FE0
6000
6060
3FC0
0000
0000
ENDCHAR

STARTCHAR edieresis
ENCODING 235
SWIDTH 860 0
DWIDTH 12 0
BBX 12 14 0 -2
BITMAP
0000
0000
1980
1980
0000
3FC0
6060
6060
7FE0
6000
6060
3FC0
0000
0000
ENDCHAR

STARTCHAR igrave
ENCODING 236
SWIDTH 860 0
DWIDTH 12 0
BBX 12 14 0 -2
BITMAP
0000
0000
0C00
0600
0000
1E00
0600
0600
0600
0600
0600
7FE0
0000
0000
ENDCHAR

STARTCHAR iacute
ENCODING 237
SWIDTH 860 0
DWIDTH 12 0
BBX 12 14 0 -2
BITMAP
0000
0000
0600
0C00
0000
1E00
0600
0600
0600
0600
0600
7FE0
0000
0000
ENDCHAR

STARTCHAR icircumflex
ENCODING 238
SWIDTH 860 0
DWIDTH 12 0
BBX 12 14 0 -2
BITMAP
0000
0000
0600
1980
0000
1E00
0600
0600
0600
0600
0600
7FE0
0000
0000
ENDCHAR

STARTCHAR idieresis
ENCODING 239
SWIDTH 860 0
DWIDTH 12 0
BBX 12 14 0 -2
BITMAP
0000
0000
1980
1980
0000
1E00
0600
0600
0600
0600
0600
7FE0
0000
0000
ENDCHAR

STARTCHAR eth
ENCODING 240
SWIDTH 860 0
DWIDTH 12 0
BBX 12 14 0 -2
BITMAP
0000
0000
3300
0C00
3700
0180
3FC0
6060
6060
6060
6060
3FC0
0000
0000
ENDCHAR

STARTCHAR ntilde
ENCODING 241
SWIDTH 860 0
DWIDTH 12 0
BBX 12 14 0 -2
BITMAP
0000
0000
3C60
63C0
0000
6FC0
7060
6060
6060
6060
6060
6060
0000
0000
ENDCHAR

STARTCHAR ograve
ENCODING 242
SWIDTH 860 0
DWIDTH 12 0
BBX 12 14 0 -2
BITMAP
0000
0000
0C00
0600
0000
3FC0
6060
6060
6060
6060
6060
3FC0
0000
0000
ENDCHAR

STARTCHAR oacute
ENCODING 243
SWIDTH 860 0
DWIDTH 12 0
BBX 12 14 0 -2
BITMAP
0000
0000
0300
0600
0000
3FC0
6060
6060
6060
6060
6060
3FC0
0000
0000
ENDCHAR

STARTCHAR ocircumflex
ENCODING 244
SWIDTH 860 0
DWIDTH 12 0
BBX 12 14 0 -2
BITMAP
0000
0000
0600
1980
0000
3FC0
6060
6060
6060
6060
6060
3FC0
0000
0000
ENDCHAR

STARTCHAR otilde
ENCODING 245
SWIDTH 860 0
DWIDTH 12 0
BBX 12 14 0 -2
BITMAP
0000
0000
3C60
63C0
0000
3FC0
6060
6060
6060
6060
6060
3FC0
0000
0000
ENDCHAR

STARTCHAR odieresis
ENCODING 246
SWIDTH 860 0
DWIDTH 12 0
BBX 12 14 0 -2
BITMAP
0000
0000
1980
1980
0000
3FC0
6060
6060
6060
6060
6060
3FC0
0000
0000
ENDCHAR

STARTCHAR divide
ENCODING 247
SWIDTH 860 0
DWIDTH 12 0
BBX 12 14 0 -2
BITMAP
0000
0000
0000
0000
0600
0600
0000
7FE0
0000
0600
0600
0000
0000
0000
ENDCHAR

STARTCHAR oslash
ENCODING 248
SWIDTH 860 0
DWIDTH 12 0
BBX 12 14 0 -2
BITMAP
0000
0000
0000
0000
0020
3FC0
60E0
6360
6660
6C60
7060
3FC0
4000
0000
ENDCHAR

STARTCHAR ugrave
ENCODING 249
SWIDTH 860 0
DWIDTH 12 0
BBX 12 14 0 -2
BITMAP
0000
0000
0C00
0600
0000
6060
6060
6060
6060
6060
60E0
3F60
0000
0000
ENDCHAR

STARTCHAR uacute
ENCODING 250
SWIDTH 860 0
DWIDTH 12 0
BBX 12 14 0 -2
BITMAP
0000
0000
0300
0600
0000
6060
6060
6060
6060
6060
60E0
3F60
0000
0000
ENDCHAR

STARTCHAR ucircumflex
ENCODING 251
SWIDTH 860 0
DWIDTH 12 0
BBX 12 14 0 -2
BITMAP
0000
0000
0600
1980
0000
6060
6060
6060
6060
6060
60E0
3F60
0000
0000
ENDCHAR

STARTCHAR udieresis
ENCODING 252
SWIDTH 860 0
DWIDTH 12 0
BBX 12 14 0 -2
BITMAP
0000
0000
1980
1980
0000
6060
6060
6060
6060
6060
60E0
3F60
0000
0000
ENDCHAR

STARTCHAR yacute
ENCODING 253
SWIDTH 860 0
DWIDTH 12 0
BBX 12 14 0 -2
BITMAP
0000
0300
0600
0000
0000
6060
6060
30C0
30C0
1980
0F00
0600
0C00
3800
ENDCHAR

STARTCHAR thorn
ENCODING 254
SWIDTH 860 0
DWIDTH 12 0
BBX 12 14 0 -2
BITMAP
0000
0000
0000
3000
3000
3FC0
3060
3060
3060
3060
3060
3FC0
3000
3000
ENDCHAR

STARTCHAR ydieresis
ENCODING 255
SWIDTH 860 0
DWIDTH 12 0
BBX 12 14 0 -2
BITMAP
0000
1980
1980
0000
0000
6060
6060
30C0
30C0
1980
0F00
0600
0C00
3800
ENDCHAR

ENDFONT
