STARTFONT 2.1
COMMENT the Lisp Machine name for this font was "25fgb1.ast"
FONT fgb1-25.bdf
SIZE 24 75 75
FONTBOUNDINGBOX 16 20 0 0
STARTPROPERTIES 3
FONT_DESCENT 5
FONT_ASCENT 20
COPYRIGHT "Public domain font.  Share and enjoy."
ENDPROPERTIES
CHARS 97
STARTCHAR C013
ENCODING 11
SWIDTH 666 0
DWIDTH 16 0
BBX 16 25 0 -5
BITMAP
0000
0000
0000
0080
01c0
03e0
07f0
0ff8
0dd8
09c8
01c0
01c0
01c0
01c0
01c0
01c0
01c0
01c0
0000
0000
0000
0000
0000
0000
0000
ENDCHAR
STARTCHAR C034
ENCODING 28
SWIDTH 666 0
DWIDTH 16 0
BBX 16 25 0 -5
BITMAP
0000
0000
0180
03c0
01e0
00f0
0078
001c
001c
001c
001c
0038
0078
10f0
19e0
1fc0
1f80
1f00
1f80
1fc0
0000
0000
0000
0000
0000
ENDCHAR
STARTCHAR C037
ENCODING 31
SWIDTH 666 0
DWIDTH 16 0
BBX 16 25 0 -5
BITMAP
0000
0000
0000
0000
0000
0000
0000
0000
0000
0000
0000
0000
0000
0000
0000
0000
0000
0000
0000
0000
0000
0000
0000
0000
0000
ENDCHAR
STARTCHAR C040
ENCODING 32
SWIDTH 666 0
DWIDTH 16 0
BBX 16 25 0 -5
BITMAP
0000
0000
0000
0000
0000
0000
0000
0000
0000
0000
0000
0000
0000
0000
0000
0000
0000
0000
0000
0000
0000
0000
0000
0000
0000
ENDCHAR
STARTCHAR !
ENCODING 33
SWIDTH 666 0
DWIDTH 16 0
BBX 16 25 0 -5
BITMAP
0000
0380
0380
0380
0380
0380
0380
0380
0380
0380
0380
0380
0380
0380
0000
0000
0000
0380
0380
0380
0000
0000
0000
0000
0000
ENDCHAR
STARTCHAR "
ENCODING 34
SWIDTH 666 0
DWIDTH 16 0
BBX 16 25 0 -5
BITMAP
0000
0e70
0e70
0e70
0e70
0e70
0e70
0e70
0e70
0e70
0000
0000
0000
0000
0000
0000
0000
0000
0000
0000
0000
0000
0000
0000
0000
ENDCHAR
STARTCHAR #
ENCODING 35
SWIDTH 666 0
DWIDTH 16 0
BBX 16 25 0 -5
BITMAP
00cc
00cc
0198
0198
0198
0330
0330
3ffe
3ffe
0660
0660
7ffc
7ffc
0cc0
0cc0
1980
1980
1980
3300
3300
0000
0000
0000
0000
0000
ENDCHAR
STARTCHAR $
ENCODING 36
SWIDTH 666 0
DWIDTH 16 0
BBX 16 25 0 -5
BITMAP
0180
07f0
0ff8
1d98
1980
1980
1980
1d80
0f80
07e0
01f0
01b8
019c
018c
018c
318c
318c
399c
1ff8
0ff0
0180
0000
0000
0000
0000
ENDCHAR
STARTCHAR %
ENCODING 37
SWIDTH 666 0
DWIDTH 16 0
BBX 16 25 0 -5
BITMAP
0000
001c
3c1c
7e38
6638
6670
6670
7ee0
3ce0
01c0
01c0
0380
0380
073c
077e
0e66
0e66
1c66
1c7e
383c
3800
0000
0000
0000
0000
ENDCHAR
STARTCHAR &
ENCODING 38
SWIDTH 666 0
DWIDTH 16 0
BBX 16 25 0 -5
BITMAP
0000
0780
0fc0
1ce0
1860
1860
1ce0
0fc0
0780
0f86
1fc6
38ee
707c
607c
6038
6078
707c
38ee
3fce
0f86
0000
0000
0000
0000
0000
ENDCHAR
STARTCHAR '
ENCODING 39
SWIDTH 666 0
DWIDTH 16 0
BBX 16 25 0 -5
BITMAP
0000
01c0
01c0
01c0
01c0
01c0
01c0
01c0
01c0
01c0
0000
0000
0000
0000
0000
0000
0000
0000
0000
0000
0000
0000
0000
0000
0000
ENDCHAR
STARTCHAR (
ENCODING 40
SWIDTH 666 0
DWIDTH 16 0
BBX 16 25 0 -5
BITMAP
00e0
01c0
01c0
0380
0380
0700
0700
0e00
0e00
0e00
0e00
0e00
0e00
0e00
0e00
0e00
0e00
0700
0700
0380
0380
01c0
01c0
00e0
0000
ENDCHAR
STARTCHAR )
ENCODING 41
SWIDTH 666 0
DWIDTH 16 0
BBX 16 25 0 -5
BITMAP
0700
0380
0380
01c0
01c0
00e0
00e0
0070
0070
0070
0070
0070
0070
0070
0070
0070
0070
00e0
00e0
01c0
01c0
0380
0380
0700
0000
ENDCHAR
STARTCHAR *
ENCODING 42
SWIDTH 666 0
DWIDTH 16 0
BBX 16 25 0 -5
BITMAP
0000
0100
0380
3398
3bb8
3ff8
1ff0
0fe0
07c0
0fe0
1ef0
3c78
3838
0000
0000
0000
0000
0000
0000
0000
0000
0000
0000
0000
0000
ENDCHAR
STARTCHAR +
ENCODING 43
SWIDTH 666 0
DWIDTH 16 0
BBX 16 25 0 -5
BITMAP
0000
0000
0000
0000
0000
0380
0380
0380
0380
0380
7ffc
7ffc
7ffc
0380
0380
0380
0380
0380
0000
0000
0000
0000
0000
0000
0000
ENDCHAR
STARTCHAR ,
ENCODING 44
SWIDTH 666 0
DWIDTH 16 0
BBX 16 25 0 -5
BITMAP
0000
0000
0000
0000
0000
0000
0000
0000
0000
0000
0000
0000
0000
0000
0000
0000
0380
07c0
07c0
03c0
01c0
0380
0700
0600
0000
ENDCHAR
STARTCHAR -
ENCODING 45
SWIDTH 666 0
DWIDTH 16 0
BBX 16 25 0 -5
BITMAP
0000
0000
0000
0000
0000
0000
0000
0000
0000
0000
1ff8
1ff8
1ff8
0000
0000
0000
0000
0000
0000
0000
0000
0000
0000
0000
0000
ENDCHAR
STARTCHAR .
ENCODING 46
SWIDTH 666 0
DWIDTH 16 0
BBX 16 25 0 -5
BITMAP
0000
0000
0000
0000
0000
0000
0000
0000
0000
0000
0000
0000
0000
0000
0000
0000
01c0
03e0
03e0
01c0
0000
0000
0000
0000
0000
ENDCHAR
STARTCHAR /
ENCODING 47
SWIDTH 666 0
DWIDTH 16 0
BBX 16 25 0 -5
BITMAP
001c
001c
0038
0038
0070
0070
0060
00e0
00e0
00c0
01c0
0180
0380
0380
0700
0700
0e00
0e00
0c00
1c00
1c00
0000
0000
0000
0000
ENDCHAR
STARTCHAR 0
ENCODING 48
SWIDTH 666 0
DWIDTH 16 0
BBX 16 25 0 -5
BITMAP
0000
07c0
0fe0
1ef0
1c70
3838
3838
3838
3838
3838
3838
3838
3838
3838
3838
3838
1c70
1ef0
0fe0
07c0
0000
0000
0000
0000
0000
ENDCHAR
STARTCHAR 1
ENCODING 49
SWIDTH 666 0
DWIDTH 16 0
BBX 16 25 0 -5
BITMAP
0000
0fc0
0fc0
01c0
01c0
01c0
01c0
01c0
01c0
01c0
01c0
01c0
01c0
01c0
01c0
01c0
01c0
01c0
0ff8
0ff8
0000
0000
0000
0000
0000
ENDCHAR
STARTCHAR 2
ENCODING 50
SWIDTH 666 0
DWIDTH 16 0
BBX 16 25 0 -5
BITMAP
0000
07e0
0ff0
1c38
1c18
1c18
0018
0038
0070
00e0
01c0
0380
0700
0e00
1c00
3800
3800
3800
3ff8
3ff8
0000
0000
0000
0000
0000
ENDCHAR
STARTCHAR 3
ENCODING 51
SWIDTH 666 0
DWIDTH 16 0
BBX 16 25 0 -5
BITMAP
0000
07c0
0fe0
1c70
1c38
0038
0038
0038
0070
03e0
03f0
0078
001c
001c
001c
301c
381c
3c78
1ff0
07e0
0000
0000
0000
0000
0000
ENDCHAR
STARTCHAR 4
ENCODING 52
SWIDTH 666 0
DWIDTH 16 0
BBX 16 25 0 -5
BITMAP
0000
00f0
01f0
01f0
03f0
0770
0670
0e70
0c70
1c70
1870
3870
7070
7ffc
7ffc
0070
0070
0070
0070
0070
0000
0000
0000
0000
0000
ENDCHAR
STARTCHAR 5
ENCODING 53
SWIDTH 666 0
DWIDTH 16 0
BBX 16 25 0 -5
BITMAP
0000
0ff8
0ff8
0c00
0c00
0c00
0c00
0de0
0ff0
0e38
0e1c
001c
001c
001c
001c
181c
1c18
0e38
07f0
03e0
0000
0000
0000
0000
0000
ENDCHAR
STARTCHAR 6
ENCODING 54
SWIDTH 666 0
DWIDTH 16 0
BBX 16 25 0 -5
BITMAP
0000
03f0
07f8
0e18
0c00
1800
1800
39e0
3bf0
3e38
3c1c
381c
381c
381c
381c
181c
1c18
0e38
07f0
03e0
0000
0000
0000
0000
0000
ENDCHAR
STARTCHAR 7
ENCODING 55
SWIDTH 666 0
DWIDTH 16 0
BBX 16 25 0 -5
BITMAP
0000
1ffc
1ffc
001c
0038
0038
0030
0070
0060
0060
00e0
00c0
01c0
0180
0380
0300
0700
0700
0e00
0e00
0000
0000
0000
0000
0000
ENDCHAR
STARTCHAR 8
ENCODING 56
SWIDTH 666 0
DWIDTH 16 0
BBX 16 25 0 -5
BITMAP
0000
0fe0
1ff0
3c78
3838
3838
3838
3838
1c70
0fe0
1ff0
3838
701c
701c
701c
701c
701c
3838
1ff0
0fe0
0000
0000
0000
0000
0000
ENDCHAR
STARTCHAR 9
ENCODING 57
SWIDTH 666 0
DWIDTH 16 0
BBX 16 25 0 -5
BITMAP
0000
07c0
0ff0
1e30
1c18
3818
381c
381c
381c
381c
381c
1c3c
0ffc
07dc
0018
0038
0030
1c70
1fe0
0fc0
0000
0000
0000
0000
0000
ENDCHAR
STARTCHAR :
ENCODING 58
SWIDTH 666 0
DWIDTH 16 0
BBX 16 25 0 -5
BITMAP
0000
0000
0000
0000
0000
0000
0000
01c0
03e0
03e0
01c0
0000
0000
0000
0000
0000
01c0
03e0
03e0
01c0
0000
0000
0000
0000
0000
ENDCHAR
STARTCHAR ;
ENCODING 59
SWIDTH 666 0
DWIDTH 16 0
BBX 16 25 0 -5
BITMAP
0000
0000
0000
0000
0000
0000
0000
01c0
03e0
03e0
01c0
0000
0000
0000
0000
0000
01c0
03e0
03e0
01e0
00e0
01c0
0380
0300
0000
ENDCHAR
STARTCHAR <
ENCODING 60
SWIDTH 666 0
DWIDTH 16 0
BBX 16 25 0 -5
BITMAP
0000
0038
0070
00e0
01c0
0380
0700
0e00
1c00
3800
7000
3800
1c00
0e00
0700
0380
01c0
00e0
0070
0038
0000
0000
0000
0000
0000
ENDCHAR
STARTCHAR =
ENCODING 61
SWIDTH 666 0
DWIDTH 16 0
BBX 16 25 0 -5
BITMAP
0000
0000
0000
0000
0000
0000
0000
3ff8
3ff8
3ff8
0000
0000
0000
3ff8
3ff8
3ff8
0000
0000
0000
0000
0000
0000
0000
0000
0000
ENDCHAR
STARTCHAR >
ENCODING 62
SWIDTH 666 0
DWIDTH 16 0
BBX 16 25 0 -5
BITMAP
0000
1c00
0e00
0700
0380
01c0
00e0
0070
0038
001c
000e
001c
0038
0070
00e0
01c0
0380
0700
0e00
1c00
0000
0000
0000
0000
0000
ENDCHAR
STARTCHAR ?
ENCODING 63
SWIDTH 666 0
DWIDTH 16 0
BBX 16 25 0 -5
BITMAP
0000
03f0
07f8
0f3c
0e1c
0e1c
001c
003c
0078
00f0
01e0
01c0
01c0
01c0
01c0
0000
0000
01c0
01c0
01c0
0000
0000
0000
0000
0000
ENDCHAR
STARTCHAR @
ENCODING 64
SWIDTH 666 0
DWIDTH 16 0
BBX 16 25 0 -5
BITMAP
0000
07e0
0ff0
1c38
181c
380c
30fc
31fc
339c
330c
330c
330c
339c
31fc
30f8
3800
1800
1c60
0fe0
07e0
0000
0000
0000
0000
0000
ENDCHAR
STARTCHAR A
ENCODING 65
SWIDTH 666 0
DWIDTH 16 0
BBX 16 25 0 -5
BITMAP
0000
03c0
03c0
07e0
0660
0660
0e60
0e70
0e70
0c30
1c38
1c38
1ff8
1ff8
381c
381c
381c
700e
700e
700e
0000
0000
0000
0000
0000
ENDCHAR
STARTCHAR B
ENCODING 66
SWIDTH 666 0
DWIDTH 16 0
BBX 16 25 0 -5
BITMAP
0000
3fe0
3ff0
3878
3838
3838
3838
3838
3870
3fe0
3fe0
3870
3838
381c
381c
381c
383c
3878
3ff0
3fe0
0000
0000
0000
0000
0000
ENDCHAR
STARTCHAR C
ENCODING 67
SWIDTH 666 0
DWIDTH 16 0
BBX 16 25 0 -5
BITMAP
0000
03e0
07f0
0e38
1c1c
1c1c
3800
3800
3800
3800
3800
3800
3800
3800
3800
1c1c
1c1c
0e38
07f0
03e0
0000
0000
0000
0000
0000
ENDCHAR
STARTCHAR D
ENCODING 68
SWIDTH 666 0
DWIDTH 16 0
BBX 16 25 0 -5
BITMAP
0000
3fc0
3fe0
3870
3838
381c
381c
381c
381c
381c
381c
381c
381c
381c
381c
381c
3838
3870
3fe0
3fc0
0000
0000
0000
0000
0000
ENDCHAR
STARTCHAR E
ENCODING 69
SWIDTH 666 0
DWIDTH 16 0
BBX 16 25 0 -5
BITMAP
0000
3ffc
3ffc
3800
3800
3800
3800
3800
3800
3ff0
3ff0
3800
3800
3800
3800
3800
3800
3800
3ffc
3ffc
0000
0000
0000
0000
0000
ENDCHAR
STARTCHAR F
ENCODING 70
SWIDTH 666 0
DWIDTH 16 0
BBX 16 25 0 -5
BITMAP
0000
3ffc
3ffc
3800
3800
3800
3800
3800
3800
3ff0
3ff0
3800
3800
3800
3800
3800
3800
3800
3800
3800
0000
0000
0000
0000
0000
ENDCHAR
STARTCHAR G
ENCODING 71
SWIDTH 666 0
DWIDTH 16 0
BBX 16 25 0 -5
BITMAP
0000
07e0
0ff0
1e38
3c1c
381c
3800
3800
3800
3800
3800
39fc
39fc
380c
380c
380c
3c1c
1e3c
0ffc
07ec
0000
0000
0000
0000
0000
ENDCHAR
STARTCHAR H
ENCODING 72
SWIDTH 666 0
DWIDTH 16 0
BBX 16 25 0 -5
BITMAP
0000
381c
381c
381c
381c
381c
381c
381c
381c
3ffc
3ffc
381c
381c
381c
381c
381c
381c
381c
381c
381c
0000
0000
0000
0000
0000
ENDCHAR
STARTCHAR I
ENCODING 73
SWIDTH 666 0
DWIDTH 16 0
BBX 16 25 0 -5
BITMAP
0000
1ffc
1ffc
01c0
01c0
01c0
01c0
01c0
01c0
01c0
01c0
01c0
01c0
01c0
01c0
01c0
01c0
01c0
1ffc
1ffc
0000
0000
0000
0000
0000
ENDCHAR
STARTCHAR J
ENCODING 74
SWIDTH 666 0
DWIDTH 16 0
BBX 16 25 0 -5
BITMAP
0000
01fc
01fc
001c
001c
001c
001c
001c
001c
001c
001c
001c
381c
381c
381c
381c
381c
1c38
0ff0
07e0
0000
0000
0000
0000
0000
ENDCHAR
STARTCHAR K
ENCODING 75
SWIDTH 666 0
DWIDTH 16 0
BBX 16 25 0 -5
BITMAP
0000
7018
7038
7070
70e0
71c0
7380
7700
7e00
7c00
7c00
7e00
7f00
7780
73c0
71e0
70f0
7078
703c
701c
0000
0000
0000
0000
0000
ENDCHAR
STARTCHAR L
ENCODING 76
SWIDTH 666 0
DWIDTH 16 0
BBX 16 25 0 -5
BITMAP
0000
1c00
1c00
1c00
1c00
1c00
1c00
1c00
1c00
1c00
1c00
1c00
1c00
1c00
1c00
1c00
1c00
1c00
1ffe
1ffe
0000
0000
0000
0000
0000
ENDCHAR
STARTCHAR M
ENCODING 77
SWIDTH 666 0
DWIDTH 16 0
BBX 16 25 0 -5
BITMAP
0000
701c
783c
783c
7c7c
7c7c
7efc
76dc
77dc
77dc
739c
739c
711c
711c
701c
701c
701c
701c
701c
701c
0000
0000
0000
0000
0000
ENDCHAR
STARTCHAR N
ENCODING 78
SWIDTH 666 0
DWIDTH 16 0
BBX 16 25 0 -5
BITMAP
0000
381c
3c1c
3c1c
3e1c
3e1c
3f1c
3b1c
3b1c
3b9c
399c
39dc
39dc
38dc
38fc
387c
387c
383c
383c
381c
0000
0000
0000
0000
0000
ENDCHAR
STARTCHAR O
ENCODING 79
SWIDTH 666 0
DWIDTH 16 0
BBX 16 25 0 -5
BITMAP
0000
07e0
0ff0
1e78
3c3c
381c
700e
700e
700e
700e
700e
700e
700e
700e
700e
381c
3c3c
1e78
0ff0
07e0
0000
0000
0000
0000
0000
ENDCHAR
STARTCHAR P
ENCODING 80
SWIDTH 666 0
DWIDTH 16 0
BBX 16 25 0 -5
BITMAP
0000
1fe0
1ff0
1c38
1c1c
1c1c
1c1c
1c1c
1c1c
1c1c
1c38
1ff0
1fe0
1c00
1c00
1c00
1c00
1c00
1c00
1c00
0000
0000
0000
0000
0000
ENDCHAR
STARTCHAR Q
ENCODING 81
SWIDTH 666 0
DWIDTH 16 0
BBX 16 25 0 -5
BITMAP
0000
07e0
0ff0
1e78
3c3c
381c
700e
700e
700e
700e
700e
700e
700e
700e
700e
381c
3c3c
1e78
0ff0
07e0
00e0
0070
0038
0018
0000
ENDCHAR
STARTCHAR R
ENCODING 82
SWIDTH 666 0
DWIDTH 16 0
BBX 16 25 0 -5
BITMAP
0000
3fe0
3ff0
3878
3838
3838
3838
3838
3838
3870
3fe0
3fc0
39c0
38e0
3870
3870
3838
381c
381e
380c
0000
0000
0000
0000
0000
ENDCHAR
STARTCHAR S
ENCODING 83
SWIDTH 666 0
DWIDTH 16 0
BBX 16 25 0 -5
BITMAP
0000
0ff0
1ff8
3c38
3818
3800
3c00
1f00
0f80
07e0
01f0
0078
003c
001c
001c
701c
701c
783c
3ff8
1ff0
0000
0000
0000
0000
0000
ENDCHAR
STARTCHAR T
ENCODING 84
SWIDTH 666 0
DWIDTH 16 0
BBX 16 25 0 -5
BITMAP
0000
3ffe
3ffe
01c0
01c0
01c0
01c0
01c0
01c0
01c0
01c0
01c0
01c0
01c0
01c0
01c0
01c0
01c0
01c0
01c0
0000
0000
0000
0000
0000
ENDCHAR
STARTCHAR U
ENCODING 85
SWIDTH 666 0
DWIDTH 16 0
BBX 16 25 0 -5
BITMAP
0000
381c
381c
381c
381c
381c
381c
381c
381c
381c
381c
381c
381c
381c
381c
381c
381c
1c38
0ff0
07e0
0000
0000
0000
0000
0000
ENDCHAR
STARTCHAR V
ENCODING 86
SWIDTH 666 0
DWIDTH 16 0
BBX 16 25 0 -5
BITMAP
0000
700e
700e
700e
700e
381c
381c
381c
1c38
1c38
1c38
1c38
1c38
0e70
0e70
0e70
0660
07e0
03c0
03c0
0000
0000
0000
0000
0000
ENDCHAR
STARTCHAR W
ENCODING 87
SWIDTH 666 0
DWIDTH 16 0
BBX 16 25 0 -5
BITMAP
0000
700e
700e
700e
700e
700e
700e
381c
399c
399c
399c
3bdc
3bdc
1bd8
1ff8
1e78
1e78
1c38
0c30
0c30
0000
0000
0000
0000
0000
ENDCHAR
STARTCHAR X
ENCODING 88
SWIDTH 666 0
DWIDTH 16 0
BBX 16 25 0 -5
BITMAP
0000
380e
380e
1c1c
1c1c
0e38
0e38
0770
03e0
03e0
01c0
03e0
03e0
0770
0630
0e38
1c1c
1c1c
380e
380e
0000
0000
0000
0000
0000
ENDCHAR
STARTCHAR Y
ENCODING 89
SWIDTH 666 0
DWIDTH 16 0
BBX 16 25 0 -5
BITMAP
0000
380e
380e
1c1c
1c1c
0e38
0e38
0770
0770
03e0
01c0
01c0
01c0
01c0
01c0
01c0
01c0
01c0
01c0
01c0
0000
0000
0000
0000
0000
ENDCHAR
STARTCHAR Z
ENCODING 90
SWIDTH 666 0
DWIDTH 16 0
BBX 16 25 0 -5
BITMAP
0000
1ffc
1ffc
0038
0038
0070
0060
00e0
00c0
01c0
0180
0380
0300
0700
0e00
0e00
1c00
1c00
3ffc
3ffc
0000
0000
0000
0000
0000
ENDCHAR
STARTCHAR [
ENCODING 91
SWIDTH 666 0
DWIDTH 16 0
BBX 16 25 0 -5
BITMAP
3fe0
3fe0
3800
3800
3800
3800
3800
3800
3800
3800
3800
3800
3800
3800
3800
3800
3800
3800
3800
3800
3800
3800
3fe0
3fe0
0000
ENDCHAR
STARTCHAR \
ENCODING 92
SWIDTH 666 0
DWIDTH 16 0
BBX 16 25 0 -5
BITMAP
3800
3800
1c00
1c00
0e00
0e00
0600
0700
0700
0300
0380
0180
01c0
01c0
00e0
00e0
0070
0070
0030
0038
0038
0018
001c
001c
0000
ENDCHAR
STARTCHAR ]
ENCODING 93
SWIDTH 666 0
DWIDTH 16 0
BBX 16 25 0 -5
BITMAP
07fc
07fc
001c
001c
001c
001c
001c
001c
001c
001c
001c
001c
001c
001c
001c
001c
001c
001c
001c
001c
001c
001c
07fc
07fc
0000
ENDCHAR
STARTCHAR ^
ENCODING 94
SWIDTH 666 0
DWIDTH 16 0
BBX 16 25 0 -5
BITMAP
0180
03c0
07e0
0ff0
1e78
3c3c
781e
f00f
0000
0000
0000
0000
0000
0000
0000
0000
0000
0000
0000
0000
0000
0000
0000
0000
0000
ENDCHAR
STARTCHAR _
ENCODING 95
SWIDTH 666 0
DWIDTH 16 0
BBX 16 25 0 -5
BITMAP
0000
0000
0000
0000
0000
0000
0000
0000
0000
0000
0000
0000
0000
0000
0000
0000
0000
0000
0000
ffff
ffff
0000
0000
0000
0000
ENDCHAR
STARTCHAR a
ENCODING 97
SWIDTH 666 0
DWIDTH 16 0
BBX 16 25 0 -5
BITMAP
0000
0000
0000
0000
0000
0000
0fe0
1ff0
1838
0038
0038
0fb8
1ff8
3c78
3838
3838
3838
3c78
1ffc
0f9c
0000
0000
0000
0000
0000
ENDCHAR
STARTCHAR b
ENCODING 98
SWIDTH 666 0
DWIDTH 16 0
BBX 16 25 0 -5
BITMAP
0000
3800
3800
3800
3800
3800
3be0
3ff0
3c38
381c
381c
381c
381c
381c
381c
381c
381c
3c38
3ff0
3be0
0000
0000
0000
0000
0000
ENDCHAR
STARTCHAR c
ENCODING 99
SWIDTH 666 0
DWIDTH 16 0
BBX 16 25 0 -5
BITMAP
0000
0000
0000
0000
0000
0000
07f0
0ff8
1e3c
3c1c
3800
3800
3800
3800
3800
3800
3c1c
1e3c
0ff8
07f0
0000
0000
0000
0000
0000
ENDCHAR
STARTCHAR d
ENCODING 100
SWIDTH 666 0
DWIDTH 16 0
BBX 16 25 0 -5
BITMAP
0000
001c
001c
001c
001c
001c
07dc
0ffc
1c3c
381c
381c
381c
381c
381c
381c
381c
381c
1c3c
0ffc
07dc
0000
0000
0000
0000
0000
ENDCHAR
STARTCHAR e
ENCODING 101
SWIDTH 666 0
DWIDTH 16 0
BBX 16 25 0 -5
BITMAP
0000
0000
0000
0000
0000
0000
07e0
0ff0
1c38
1c38
381c
381c
3ffc
3ffc
3800
3800
1c1c
1c1c
0ff8
07f0
0000
0000
0000
0000
0000
ENDCHAR
STARTCHAR f
ENCODING 102
SWIDTH 666 0
DWIDTH 16 0
BBX 16 25 0 -5
BITMAP
0000
01fc
03fe
078e
0700
0700
3ff0
3ff0
0700
0700
0700
0700
0700
0700
0700
0700
0700
0700
0700
0700
0000
0000
0000
0000
0000
ENDCHAR
STARTCHAR g
ENCODING 103
SWIDTH 666 0
DWIDTH 16 0
BBX 16 25 0 -5
BITMAP
0000
0000
0000
0000
0000
0000
07dc
0ffc
1c3c
381c
381c
381c
381c
381c
381c
381c
1c3c
0ffc
07dc
001c
181c
1c38
0ff0
07e0
0000
ENDCHAR
STARTCHAR h
ENCODING 104
SWIDTH 666 0
DWIDTH 16 0
BBX 16 25 0 -5
BITMAP
0000
3800
3800
3800
3800
3800
3be0
3ff0
3e78
3c38
3838
3838
3838
3838
3838
3838
3838
3838
3838
3838
0000
0000
0000
0000
0000
ENDCHAR
STARTCHAR i
ENCODING 105
SWIDTH 666 0
DWIDTH 16 0
BBX 16 25 0 -5
BITMAP
0000
00e0
00e0
00e0
0000
0000
0fe0
0fe0
00e0
00e0
00e0
00e0
00e0
00e0
00e0
00e0
00e0
00e0
00e0
00e0
0000
0000
0000
0000
0000
ENDCHAR
STARTCHAR j
ENCODING 106
SWIDTH 666 0
DWIDTH 16 0
BBX 16 25 0 -5
BITMAP
0000
0038
0038
0038
0000
0000
03f8
03f8
0038
0038
0038
0038
0038
0038
0038
0038
0038
0038
3838
3838
3838
1c70
0fe0
07c0
0000
ENDCHAR
STARTCHAR k
ENCODING 107
SWIDTH 666 0
DWIDTH 16 0
BBX 16 25 0 -5
BITMAP
0000
1c00
1c00
1c00
1c00
1c00
1c18
1c38
1c70
1ce0
1dc0
1f80
1f80
1fc0
1de0
1cf0
1c78
1c3c
1c1e
1c0c
0000
0000
0000
0000
0000
ENDCHAR
STARTCHAR l
ENCODING 108
SWIDTH 666 0
DWIDTH 16 0
BBX 16 25 0 -5
BITMAP
0000
0fe0
0fe0
00e0
00e0
00e0
00e0
00e0
00e0
00e0
00e0
00e0
00e0
00e0
00e0
00e0
00e0
00e0
00e0
00e0
0000
0000
0000
0000
0000
ENDCHAR
STARTCHAR m
ENCODING 109
SWIDTH 666 0
DWIDTH 16 0
BBX 16 25 0 -5
BITMAP
0000
0000
0000
0000
0000
0000
6e78
7ffc
7bde
718e
718e
718e
718e
718e
718e
718e
718e
718e
718e
718e
0000
0000
0000
0000
0000
ENDCHAR
STARTCHAR n
ENCODING 110
SWIDTH 666 0
DWIDTH 16 0
BBX 16 25 0 -5
BITMAP
0000
0000
0000
0000
0000
0000
3be0
3ff0
3e78
3c38
3838
3838
3838
3838
3838
3838
3838
3838
3838
3838
0000
0000
0000
0000
0000
ENDCHAR
STARTCHAR o
ENCODING 111
SWIDTH 666 0
DWIDTH 16 0
BBX 16 25 0 -5
BITMAP
0000
0000
0000
0000
0000
0000
07e0
0ff0
1c38
381c
381c
381c
381c
381c
381c
381c
381c
1c38
0ff0
07e0
0000
0000
0000
0000
0000
ENDCHAR
STARTCHAR p
ENCODING 112
SWIDTH 666 0
DWIDTH 16 0
BBX 16 25 0 -5
BITMAP
0000
0000
0000
0000
0000
0000
3be0
3ff0
3c78
383c
381c
381c
381c
381c
381c
381c
383c
3c78
3ff0
3be0
3800
3800
3800
3800
0000
ENDCHAR
STARTCHAR q
ENCODING 113
SWIDTH 666 0
DWIDTH 16 0
BBX 16 25 0 -5
BITMAP
0000
0000
0000
0000
0000
0000
07dc
0ffc
1c3c
381c
381c
381c
381c
381c
381c
381c
381c
1c3c
0ffc
07dc
001c
001c
001c
001c
0000
ENDCHAR
STARTCHAR r
ENCODING 114
SWIDTH 666 0
DWIDTH 16 0
BBX 16 25 0 -5
BITMAP
0000
0000
0000
0000
0000
0000
39f0
3bf8
3f3c
3e18
3c00
3800
3800
3800
3800
3800
3800
3800
3800
3800
0000
0000
0000
0000
0000
ENDCHAR
STARTCHAR s
ENCODING 115
SWIDTH 666 0
DWIDTH 16 0
BBX 16 25 0 -5
BITMAP
0000
0000
0000
0000
0000
0000
07f0
0ff8
1e38
1c00
1e00
0f80
07e0
01f8
007c
003c
381c
3c3c
1ff8
0ff0
0000
0000
0000
0000
0000
ENDCHAR
STARTCHAR t
ENCODING 116
SWIDTH 666 0
DWIDTH 16 0
BBX 16 25 0 -5
BITMAP
0000
0000
0700
0700
0700
0700
3ff8
3ff8
0700
0700
0700
0700
0700
0700
0700
071c
071c
079c
03f8
01f0
0000
0000
0000
0000
0000
ENDCHAR
STARTCHAR u
ENCODING 117
SWIDTH 666 0
DWIDTH 16 0
BBX 16 25 0 -5
BITMAP
0000
0000
0000
0000
0000
0000
3838
3838
3838
3838
3838
3838
3838
3838
3838
3838
3838
3c78
1ff8
0fb8
0000
0000
0000
0000
0000
ENDCHAR
STARTCHAR v
ENCODING 118
SWIDTH 666 0
DWIDTH 16 0
BBX 16 25 0 -5
BITMAP
0000
0000
0000
0000
0000
0000
700e
700e
381c
381c
1c18
1c38
1c38
0e70
0e70
0660
0660
03c0
03c0
0180
0000
0000
0000
0000
0000
ENDCHAR
STARTCHAR w
ENCODING 119
SWIDTH 666 0
DWIDTH 16 0
BBX 16 25 0 -5
BITMAP
0000
0000
0000
0000
0000
0000
e007
e007
e007
718e
718e
73ce
73ce
37ec
366c
366c
3c3c
1c38
1c38
1818
0000
0000
0000
0000
0000
ENDCHAR
STARTCHAR x
ENCODING 120
SWIDTH 666 0
DWIDTH 16 0
BBX 16 25 0 -5
BITMAP
0000
0000
0000
0000
0000
0000
701c
783c
3838
1c70
0ee0
07c0
0380
0380
07c0
0ee0
1c70
3838
783c
701c
0000
0000
0000
0000
0000
ENDCHAR
STARTCHAR y
ENCODING 121
SWIDTH 666 0
DWIDTH 16 0
BBX 16 25 0 -5
BITMAP
0000
0000
0000
0000
0000
0000
700e
700e
381c
381c
1c38
1c38
0e70
0e70
07e0
03e0
03c0
01c0
01c0
0380
0380
e700
ff00
7e00
0000
ENDCHAR
STARTCHAR z
ENCODING 122
SWIDTH 666 0
DWIDTH 16 0
BBX 16 25 0 -5
BITMAP
0000
0000
0000
0000
0000
0000
1ffc
1ffc
001c
0038
0070
00e0
01c0
0380
0700
0e00
1c00
3800
3ffc
3ffc
0000
0000
0000
0000
0000
ENDCHAR
STARTCHAR {
ENCODING 123
SWIDTH 666 0
DWIDTH 16 0
BBX 16 25 0 -5
BITMAP
00f0
01c0
0380
0380
0380
0380
0380
0380
0380
0700
0e00
1c00
0e00
0700
0380
0380
0380
0380
0380
0380
0380
0380
01c0
00f0
0000
ENDCHAR
STARTCHAR |
ENCODING 124
SWIDTH 666 0
DWIDTH 16 0
BBX 16 25 0 -5
BITMAP
0380
0380
0380
0380
0380
0380
0380
0380
0380
0380
0380
0380
0380
0380
0380
0380
0380
0380
0380
0380
0380
0380
0380
0380
0000
ENDCHAR
STARTCHAR }
ENCODING 125
SWIDTH 666 0
DWIDTH 16 0
BBX 16 25 0 -5
BITMAP
0f00
0380
01c0
01c0
01c0
01c0
01c0
01c0
01c0
00e0
0070
0038
0070
00e0
01c0
01c0
01c0
01c0
01c0
01c0
01c0
01c0
0380
0f00
0000
ENDCHAR
STARTCHAR ~
ENCODING 126
SWIDTH 666 0
DWIDTH 16 0
BBX 16 25 0 -5
BITMAP
0000
0000
0000
0000
0000
0000
0000
0000
0000
0000
0e03
1f86
3ffc
61f8
c070
0000
0000
0000
0000
0000
0000
0000
0000
0000
0000
ENDCHAR
ENDFONT
