STARTFONT 2.1
FONT pc12x20
SIZE 20 75 75
FONTBOUNDINGBOX 12 20 0 -4

STARTPROPERTIES 9
POINT_SIZE 200
WEIGHT 10
RESOLUTION_X 75
RESOLUTION_Y 75
X_HEIGHT 16
QUAD_WIDTH 12
DEFAULT_CHAR 0
FONT_DESCENT 4
FONT_ASCENT 16
ENDPROPERTIES

CHARS 256

STARTCHAR null
ENCODING 0
SWIDTH 666 0
DWIDTH 12 0
BBX 12 20 0 -4
BITMAP
0000
0000
0000
0000
0000
0000
0000
0000
0000
0000
0000
0000
0000
0000
0000
0000
0000
0000
0000
0000
ENDCHAR

STARTCHAR smiley
ENCODING 1
SWIDTH 666 0
DWIDTH 12 0
BBX 12 20 0 -4
BITMAP
0000
0000
7FE0
C030
8010
8010
9990
9990
8010
8010
9090
9F90
8F10
8010
C030
7FE0
0000
0000
0000
0000
ENDCHAR

STARTCHAR reverse_smiley
ENCODING 2
SWIDTH 666 0
DWIDTH 12 0
BBX 12 20 0 -4
BITMAP
0000
0000
7FE0
FFF0
FFF0
FFF0
E670
E670
FFF0
FFF0
EF70
E070
F0F0
FFF0
FFF0
7FE0
0000
0000
0000
0000
ENDCHAR

STARTCHAR heart
ENCODING 3
SWIDTH 666 0
DWIDTH 12 0
BBX 12 20 0 -4
BITMAP
0000
0000
0000
0000
3180
7BC0
7FC0
7FC0
7FC0
7FC0
7FC0
3F80
3F80
1F00
0E00
0400
0000
0000
0000
0000
ENDCHAR

STARTCHAR diamond
ENCODING 4
SWIDTH 666 0
DWIDTH 12 0
BBX 12 20 0 -4
BITMAP
0000
0000
0000
0000
0C00
1E00
3F00
7F80
FFC0
FFC0
7F80
3F00
1E00
0C00
0000
0000
0000
0000
0000
0000
ENDCHAR

STARTCHAR club
ENCODING 5
SWIDTH 666 0
DWIDTH 12 0
BBX 12 20 0 -4
BITMAP
0000
0000
0C00
1E00
1E00
1E00
0C00
6D80
FFC0
FFC0
6D80
0C00
0C00
0C00
7F80
7F80
0000
0000
0000
0000
ENDCHAR

STARTCHAR spade
ENCODING 6
SWIDTH 666 0
DWIDTH 12 0
BBX 12 20 0 -4
BITMAP
0000
0000
0C00
1E00
3F00
7F80
FFC0
FFC0
FFC0
FFC0
FFC0
6D80
0C00
0C00
7F80
7F80
0000
0000
0000
0000
ENDCHAR

STARTCHAR spot
ENCODING 7
SWIDTH 666 0
DWIDTH 12 0
BBX 12 20 0 -4
BITMAP
0000
0000
0000
0000
0000
0000
0600
0F00
1F80
3FC0
3FC0
1F80
0F00
0600
0000
0000
0000
0000
0000
0000
ENDCHAR

STARTCHAR reverse_spot
ENCODING 8
SWIDTH 666 0
DWIDTH 12 0
BBX 12 20 0 -4
BITMAP
FFF0
FFF0
FFF0
FFF0
FFF0
FFF0
F9F0
F0F0
E070
C030
C030
E070
F0F0
F9F0
FFF0
FFF0
FFF0
FFF0
FFF0
FFF0
ENDCHAR

STARTCHAR circle
ENCODING 9
SWIDTH 666 0
DWIDTH 12 0
BBX 12 20 0 -4
BITMAP
0000
0000
0000
0000
0000
0000
0F00
1F80
30C0
30C0
30C0
30C0
1F80
0F00
0000
0000
0000
0000
0000
0000
ENDCHAR

STARTCHAR reverse_circle
ENCODING 10
SWIDTH 666 0
DWIDTH 12 0
BBX 12 20 0 -4
BITMAP
FFF0
FFF0
FFF0
FFF0
FFF0
FFF0
E070
D0B0
CF30
CF30
CF30
CF30
D0B0
E070
FFF0
FFF0
FFF0
FFF0
FFF0
FFF0
ENDCHAR

STARTCHAR male
ENCODING 11
SWIDTH 666 0
DWIDTH 12 0
BBX 12 20 0 -4
BITMAP
0000
0000
0FC0
07C0
03C0
03C0
06C0
0C40
3C00
7E00
C300
C300
C300
C300
7E00
3C00
0000
0000
0000
0000
ENDCHAR

STARTCHAR female
ENCODING 12
SWIDTH 666 0
DWIDTH 12 0
BBX 12 20 0 -4
BITMAP
0000
0000
1E00
3F00
6180
6180
6180
6180
3F00
1E00
0C00
7F80
7F80
0C00
0C00
0C00
0000
0000
0000
0000
ENDCHAR

STARTCHAR note
ENCODING 13
SWIDTH 666 0
DWIDTH 12 0
BBX 12 20 0 -4
BITMAP
0000
0000
1FC0
18C0
18C0
1FC0
1800
1800
1800
1800
1800
1800
3800
7800
F800
F000
6000
0000
0000
0000
ENDCHAR

STARTCHAR note2
ENCODING 14
SWIDTH 666 0
DWIDTH 12 0
BBX 12 20 0 -4
BITMAP
0000
0000
3FC0
30C0
30C0
3FC0
30C0
30C0
30C0
30C0
30C0
30C0
31C0
33C0
73C0
F180
F000
6000
0000
0000
ENDCHAR

STARTCHAR sun
ENCODING 15
SWIDTH 666 0
DWIDTH 12 0
BBX 12 20 0 -4
BITMAP
0000
0000
0C00
0C00
CCC0
EDC0
3F00
3300
F3C0
F3C0
3300
3F00
EDC0
CCC0
0C00
0C00
0000
0000
0000
0000
ENDCHAR

STARTCHAR right_wedge
ENCODING 16
SWIDTH 666 0
DWIDTH 12 0
BBX 12 20 0 -4
BITMAP
0000
0000
6000
7000
7800
7C00
7E00
7F00
7F80
7F80
7F00
7E00
7C00
7800
7000
6000
0000
0000
0000
0000
ENDCHAR

STARTCHAR left_wedge
ENCODING 17
SWIDTH 666 0
DWIDTH 12 0
BBX 12 20 0 -4
BITMAP
0000
0000
0180
0380
0780
0F80
1F80
3F80
7F80
7F80
3F80
1F80
0F80
0780
0380
0180
0000
0000
0000
0000
ENDCHAR

STARTCHAR vdbl_arrow
ENCODING 18
SWIDTH 666 0
DWIDTH 12 0
BBX 12 20 0 -4
BITMAP
0000
0000
0C00
1E00
3F00
7F80
0C00
0C00
0C00
0C00
0C00
0C00
7F80
3F00
1E00
0C00
0000
0000
0000
0000
ENDCHAR

STARTCHAR dbl_exclamation
ENCODING 19
SWIDTH 666 0
DWIDTH 12 0
BBX 12 20 0 -4
BITMAP
0000
0000
30C0
30C0
30C0
30C0
30C0
30C0
30C0
30C0
30C0
30C0
0000
0000
30C0
30C0
0000
0000
0000
0000
ENDCHAR

STARTCHAR paragraph
ENCODING 20
SWIDTH 666 0
DWIDTH 12 0
BBX 12 20 0 -4
BITMAP
0000
0000
7FC0
FFC0
FB00
FB00
FB00
7B00
1B00
1B00
1B00
1B00
1B00
1B00
1B00
1B00
0000
0000
0000
0000
ENDCHAR

STARTCHAR section
ENCODING 21
SWIDTH 666 0
DWIDTH 12 0
BBX 12 20 0 -4
BITMAP
0000
0000
3F00
6180
6000
6000
3F00
6180
6180
6180
6180
3F00
0180
0180
6180
3F00
0000
0000
0000
0000
ENDCHAR

STARTCHAR hblock
ENCODING 22
SWIDTH 666 0
DWIDTH 12 0
BBX 12 20 0 -4
BITMAP
0000
0000
0000
0000
0000
0000
0000
0000
0000
0000
FFC0
FFC0
FFC0
FFC0
FFC0
FFC0
0000
0000
0000
0000
ENDCHAR

STARTCHAR ul_vdbl_arrow
ENCODING 23
SWIDTH 666 0
DWIDTH 12 0
BBX 12 20 0 -4
BITMAP
0000
0000
0C00
1E00
3F00
7F80
0C00
0C00
0C00
0C00
0C00
0C00
7F80
3F00
1E00
0C00
7F80
7F80
0000
0000
ENDCHAR

STARTCHAR up_arrow
ENCODING 24
SWIDTH 666 0
DWIDTH 12 0
BBX 12 20 0 -4
BITMAP
0000
0000
0C00
1E00
3F00
7F80
0C00
0C00
0C00
0C00
0C00
0C00
0C00
0C00
0C00
0C00
0000
0000
0000
0000
ENDCHAR

STARTCHAR down_arrow
ENCODING 25
SWIDTH 666 0
DWIDTH 12 0
BBX 12 20 0 -4
BITMAP
0000
0000
0C00
0C00
0C00
0C00
0C00
0C00
0C00
0C00
0C00
0C00
7F80
3F00
1E00
0C00
0000
0000
0000
0000
ENDCHAR

STARTCHAR right_arrow
ENCODING 26
SWIDTH 666 0
DWIDTH 12 0
BBX 12 20 0 -4
BITMAP
0000
0000
0000
0000
0000
0200
0300
0380
FFC0
FFC0
0380
0300
0200
0000
0000
0000
0000
0000
0000
0000
ENDCHAR

STARTCHAR left_arrow
ENCODING 27
SWIDTH 666 0
DWIDTH 12 0
BBX 12 20 0 -4
BITMAP
0000
0000
0000
0000
0000
1000
3000
7000
FFC0
FFC0
7000
3000
1000
0000
0000
0000
0000
0000
0000
0000
ENDCHAR

STARTCHAR ul_angle
ENCODING 28
SWIDTH 666 0
DWIDTH 12 0
BBX 12 20 0 -4
BITMAP
0000
0000
0000
0000
0000
0000
C000
C000
C000
C000
FFC0
FFC0
0000
0000
0000
0000
0000
0000
0000
0000
ENDCHAR

STARTCHAR hdbl_arrow
ENCODING 29
SWIDTH 666 0
DWIDTH 12 0
BBX 12 20 0 -4
BITMAP
0000
0000
0000
0000
0000
1080
30C0
70E0
FFF0
FFF0
70E0
30C0
1080
0000
0000
0000
0000
0000
0000
0000
ENDCHAR

STARTCHAR up_wedge
ENCODING 30
SWIDTH 666 0
DWIDTH 12 0
BBX 12 20 0 -4
BITMAP
0000
0000
0000
0000
0C00
0C00
1E00
1E00
3F00
3F00
7F80
7F80
FFC0
FFC0
0000
0000
0000
0000
0000
0000
ENDCHAR

STARTCHAR down_wedge
ENCODING 31
SWIDTH 666 0
DWIDTH 12 0
BBX 12 20 0 -4
BITMAP
0000
0000
0000
0000
FFC0
FFC0
7F80
7F80
3F00
3F00
1E00
1E00
0C00
0C00
0000
0000
0000
0000
0000
0000
ENDCHAR

STARTCHAR space
ENCODING 32
SWIDTH 666 0
DWIDTH 12 0
BBX 12 20 0 -4
BITMAP
0000
0000
0000
0000
0000
0000
0000
0000
0000
0000
0000
0000
0000
0000
0000
0000
0000
0000
0000
0000
ENDCHAR

STARTCHAR !
ENCODING 33
SWIDTH 666 0
DWIDTH 12 0
BBX 12 20 0 -4
BITMAP
0000
0000
0C00
0C00
0C00
0C00
0C00
0C00
0C00
0C00
0C00
0C00
0000
0000
0C00
0C00
0000
0000
0000
0000
ENDCHAR

STARTCHAR "
ENCODING 34
SWIDTH 666 0
DWIDTH 12 0
BBX 12 20 0 -4
BITMAP
0000
0000
3300
3300
3300
3300
3300
0000
0000
0000
0000
0000
0000
0000
0000
0000
0000
0000
0000
0000
ENDCHAR

STARTCHAR #
ENCODING 35
SWIDTH 666 0
DWIDTH 12 0
BBX 12 20 0 -4
BITMAP
0000
0000
0000
3300
3300
3300
FFC0
3300
3300
3300
FFC0
3300
3300
3300
0000
0000
0000
0000
0000
0000
ENDCHAR

STARTCHAR $
ENCODING 36
SWIDTH 666 0
DWIDTH 12 0
BBX 12 20 0 -4
BITMAP
0000
0000
0C00
0C00
7F80
CCC0
CC00
CC00
7F80
0CC0
0CC0
0CC0
CCC0
7F80
0C00
0C00
0000
0000
0000
0000
ENDCHAR

STARTCHAR %
ENCODING 37
SWIDTH 666 0
DWIDTH 12 0
BBX 12 20 0 -4
BITMAP
0000
0000
0000
7000
D840
D8C0
D980
7300
0600
0C00
1800
3380
66C0
C6C0
86C0
0380
0000
0000
0000
0000
ENDCHAR

STARTCHAR &
ENCODING 38
SWIDTH 666 0
DWIDTH 12 0
BBX 12 20 0 -4
BITMAP
0000
0000
3800
6C00
6C00
6C00
6C00
7800
3000
7180
DB00
CE00
C600
C700
FD80
78C0
0000
0000
0000
0000
ENDCHAR

STARTCHAR '
ENCODING 39
SWIDTH 666 0
DWIDTH 12 0
BBX 12 20 0 -4
BITMAP
0000
0000
0E00
0E00
0E00
0C00
1800
1000
0000
0000
0000
0000
0000
0000
0000
0000
0000
0000
0000
0000
ENDCHAR

STARTCHAR (
ENCODING 40
SWIDTH 666 0
DWIDTH 12 0
BBX 12 20 0 -4
BITMAP
0000
0000
0300
0600
0C00
0C00
0C00
0C00
0C00
0C00
0C00
0C00
0C00
0C00
0600
0300
0000
0000
0000
0000
ENDCHAR

STARTCHAR )
ENCODING 41
SWIDTH 666 0
DWIDTH 12 0
BBX 12 20 0 -4
BITMAP
0000
0000
3000
1800
0C00
0C00
0C00
0C00
0C00
0C00
0C00
0C00
0C00
0C00
1800
3000
0000
0000
0000
0000
ENDCHAR

STARTCHAR *
ENCODING 42
SWIDTH 666 0
DWIDTH 12 0
BBX 12 20 0 -4
BITMAP
0000
0000
0000
0000
6180
3300
1E00
FFC0
FFC0
1E00
3300
6180
0000
0000
0000
0000
0000
0000
0000
0000
ENDCHAR

STARTCHAR +
ENCODING 43
SWIDTH 666 0
DWIDTH 12 0
BBX 12 20 0 -4
BITMAP
0000
0000
0000
0000
0C00
0C00
0C00
0C00
FFC0
FFC0
0C00
0C00
0C00
0C00
0000
0000
0000
0000
0000
0000
ENDCHAR

STARTCHAR ,
ENCODING 44
SWIDTH 666 0
DWIDTH 12 0
BBX 12 20 0 -4
BITMAP
0000
0000
0000
0000
0000
0000
0000
0000
0000
0000
0000
0000
1C00
1C00
1C00
1800
3000
2000
0000
0000
ENDCHAR

STARTCHAR -
ENCODING 45
SWIDTH 666 0
DWIDTH 12 0
BBX 12 20 0 -4
BITMAP
0000
0000
0000
0000
0000
0000
0000
0000
FFC0
FFC0
0000
0000
0000
0000
0000
0000
0000
0000
0000
0000
ENDCHAR

STARTCHAR .
ENCODING 46
SWIDTH 666 0
DWIDTH 12 0
BBX 12 20 0 -4
BITMAP
0000
0000
0000
0000
0000
0000
0000
0000
0000
0000
0000
0000
0000
1C00
1C00
1C00
0000
0000
0000
0000
ENDCHAR

STARTCHAR /
ENCODING 47
SWIDTH 666 0
DWIDTH 12 0
BBX 12 20 0 -4
BITMAP
0000
0000
0180
0180
0300
0300
0600
0600
0C00
0C00
1800
1800
3000
3000
6000
6000
0000
0000
0000
0000
ENDCHAR

STARTCHAR 0
ENCODING 48
SWIDTH 666 0
DWIDTH 12 0
BBX 12 20 0 -4
BITMAP
0000
0000
3F00
6180
C3C0
C3C0
C6C0
C6C0
CCC0
CCC0
D8C0
D8C0
F0C0
F0C0
6180
3F00
0000
0000
0000
0000
ENDCHAR

STARTCHAR 1
ENCODING 49
SWIDTH 666 0
DWIDTH 12 0
BBX 12 20 0 -4
BITMAP
0000
0000
0C00
1C00
3C00
6C00
CC00
0C00
0C00
0C00
0C00
0C00
0C00
0C00
0C00
FFC0
0000
0000
0000
0000
ENDCHAR

STARTCHAR 2
ENCODING 50
SWIDTH 666 0
DWIDTH 12 0
BBX 12 20 0 -4
BITMAP
0000
0000
3F00
6180
C0C0
00C0
00C0
0180
0700
1C00
3000
6000
C000
C000
C000
FFC0
0000
0000
0000
0000
ENDCHAR

STARTCHAR 3
ENCODING 51
SWIDTH 666 0
DWIDTH 12 0
BBX 12 20 0 -4
BITMAP
0000
0000
FFC0
00C0
0180
0300
0600
0F00
0180
00C0
00C0
00C0
00C0
C0C0
6180
3F00
0000
0000
0000
0000
ENDCHAR

STARTCHAR 4
ENCODING 52
SWIDTH 666 0
DWIDTH 12 0
BBX 12 20 0 -4
BITMAP
0000
0000
0C00
0C00
1800
1800
3180
3180
6180
6180
C180
FFC0
0180
0180
0180
0180
0000
0000
0000
0000
ENDCHAR

STARTCHAR 5
ENCODING 53
SWIDTH 666 0
DWIDTH 12 0
BBX 12 20 0 -4
BITMAP
0000
0000
FFC0
C000
C000
C000
DF00
F180
E0C0
C0C0
00C0
00C0
00C0
C0C0
6180
3F00
0000
0000
0000
0000
ENDCHAR

STARTCHAR 6
ENCODING 54
SWIDTH 666 0
DWIDTH 12 0
BBX 12 20 0 -4
BITMAP
0000
0000
0700
0C00
1800
3000
6000
6000
DF00
E180
C0C0
C0C0
C0C0
C0C0
6180
3F00
0000
0000
0000
0000
ENDCHAR

STARTCHAR 7
ENCODING 55
SWIDTH 666 0
DWIDTH 12 0
BBX 12 20 0 -4
BITMAP
0000
0000
FFC0
00C0
00C0
0180
0300
0600
0C00
1800
1800
1800
1800
1800
1800
1800
0000
0000
0000
0000
ENDCHAR

STARTCHAR 8
ENCODING 56
SWIDTH 666 0
DWIDTH 12 0
BBX 12 20 0 -4
BITMAP
0000
0000
3F00
6180
C0C0
C0C0
C0C0
6180
3F00
6180
C0C0
C0C0
C0C0
C0C0
6180
3F00
0000
0000
0000
0000
ENDCHAR

STARTCHAR 9
ENCODING 57
SWIDTH 666 0
DWIDTH 12 0
BBX 12 20 0 -4
BITMAP
0000
0000
3F00
6180
C0C0
C0C0
C0C0
C0C0
61C0
3EC0
0180
0180
0300
0600
0C00
3800
0000
0000
0000
0000
ENDCHAR

STARTCHAR :
ENCODING 58
SWIDTH 666 0
DWIDTH 12 0
BBX 12 20 0 -4
BITMAP
0000
0000
0000
0000
0000
0000
0000
1C00
1C00
1C00
0000
0000
0000
1C00
1C00
1C00
0000
0000
0000
0000
ENDCHAR

STARTCHAR ;
ENCODING 59
SWIDTH 666 0
DWIDTH 12 0
BBX 12 20 0 -4
BITMAP
0000
0000
0000
0000
0000
0000
0000
1C00
1C00
1C00
0000
0000
0000
1C00
1C00
1C00
1800
3000
2000
0000
ENDCHAR

STARTCHAR <
ENCODING 60
SWIDTH 666 0
DWIDTH 12 0
BBX 12 20 0 -4
BITMAP
0000
0000
0000
0300
0600
0C00
1800
3000
6000
3000
1800
0C00
0600
0300
0000
0000
0000
0000
0000
0000
ENDCHAR

STARTCHAR =
ENCODING 61
SWIDTH 666 0
DWIDTH 12 0
BBX 12 20 0 -4
BITMAP
0000
0000
0000
0000
0000
0000
FFC0
FFC0
0000
0000
FFC0
FFC0
0000
0000
0000
0000
0000
0000
0000
0000
ENDCHAR

STARTCHAR >
ENCODING 62
SWIDTH 666 0
DWIDTH 12 0
BBX 12 20 0 -4
BITMAP
0000
0000
0000
6000
3000
1800
0C00
0600
0300
0600
0C00
1800
3000
6000
0000
0000
0000
0000
0000
0000
ENDCHAR

STARTCHAR ?
ENCODING 63
SWIDTH 666 0
DWIDTH 12 0
BBX 12 20 0 -4
BITMAP
0000
0000
3F00
6180
6180
0180
0180
0300
0600
0C00
0C00
0C00
0000
0000
0C00
0C00
0000
0000
0000
0000
ENDCHAR

STARTCHAR @
ENCODING 64
SWIDTH 666 0
DWIDTH 12 0
BBX 12 20 0 -4
BITMAP
0000
0000
3F00
6180
C0C0
C0C0
C7C0
CCC0
CCC0
CCC0
CCC0
CDC0
C740
C000
6000
3F80
0000
0000
0000
0000
ENDCHAR

STARTCHAR A
ENCODING 65
SWIDTH 666 0
DWIDTH 12 0
BBX 12 20 0 -4
BITMAP
0000
0000
0C00
1E00
3300
6180
C0C0
C0C0
C0C0
C0C0
FFC0
C0C0
C0C0
C0C0
C0C0
C0C0
0000
0000
0000
0000
ENDCHAR

STARTCHAR B
ENCODING 66
SWIDTH 666 0
DWIDTH 12 0
BBX 12 20 0 -4
BITMAP
0000
0000
FF00
6180
60C0
60C0
60C0
6180
7F00
6180
60C0
60C0
60C0
60C0
6180
FF00
0000
0000
0000
0000
ENDCHAR

STARTCHAR C
ENCODING 67
SWIDTH 666 0
DWIDTH 12 0
BBX 12 20 0 -4
BITMAP
0000
0000
3F00
6180
C0C0
C000
C000
C000
C000
C000
C000
C000
C000
C0C0
6180
3F00
0000
0000
0000
0000
ENDCHAR

STARTCHAR D
ENCODING 68
SWIDTH 666 0
DWIDTH 12 0
BBX 12 20 0 -4
BITMAP
0000
0000
FF00
6180
60C0
60C0
60C0
60C0
60C0
60C0
60C0
60C0
60C0
60C0
6180
FF00
0000
0000
0000
0000
ENDCHAR

STARTCHAR E
ENCODING 69
SWIDTH 666 0
DWIDTH 12 0
BBX 12 20 0 -4
BITMAP
0000
0000
FFC0
C000
C000
C000
C000
C000
FF80
C000
C000
C000
C000
C000
C000
FFC0
0000
0000
0000
0000
ENDCHAR

STARTCHAR F
ENCODING 70
SWIDTH 666 0
DWIDTH 12 0
BBX 12 20 0 -4
BITMAP
0000
0000
FFC0
C000
C000
C000
C000
C000
FF80
C000
C000
C000
C000
C000
C000
C000
0000
0000
0000
0000
ENDCHAR

STARTCHAR G
ENCODING 71
SWIDTH 666 0
DWIDTH 12 0
BBX 12 20 0 -4
BITMAP
0000
0000
3F00
6180
C0C0
C000
C000
C000
C000
CFC0
C0C0
C0C0
C0C0
C0C0
60C0
3FC0
0000
0000
0000
0000
ENDCHAR

STARTCHAR H
ENCODING 72
SWIDTH 666 0
DWIDTH 12 0
BBX 12 20 0 -4
BITMAP
0000
0000
C0C0
C0C0
C0C0
C0C0
C0C0
C0C0
FFC0
C0C0
C0C0
C0C0
C0C0
C0C0
C0C0
C0C0
0000
0000
0000
0000
ENDCHAR

STARTCHAR I
ENCODING 73
SWIDTH 666 0
DWIDTH 12 0
BBX 12 20 0 -4
BITMAP
0000
0000
3F00
0C00
0C00
0C00
0C00
0C00
0C00
0C00
0C00
0C00
0C00
0C00
0C00
3F00
0000
0000
0000
0000
ENDCHAR

STARTCHAR J
ENCODING 74
SWIDTH 666 0
DWIDTH 12 0
BBX 12 20 0 -4
BITMAP
0000
0000
0180
0180
0180
0180
0180
0180
0180
0180
0180
0180
C180
C180
C300
7E00
0000
0000
0000
0000
ENDCHAR

STARTCHAR K
ENCODING 75
SWIDTH 666 0
DWIDTH 12 0
BBX 12 20 0 -4
BITMAP
0000
0000
C0C0
C180
C300
C600
CC00
D800
F000
F000
D800
CC00
C600
C300
C180
C0C0
0000
0000
0000
0000
ENDCHAR

STARTCHAR L
ENCODING 76
SWIDTH 666 0
DWIDTH 12 0
BBX 12 20 0 -4
BITMAP
0000
0000
C000
C000
C000
C000
C000
C000
C000
C000
C000
C000
C000
C000
C000
FFC0
0000
0000
0000
0000
ENDCHAR

STARTCHAR M
ENCODING 77
SWIDTH 666 0
DWIDTH 12 0
BBX 12 20 0 -4
BITMAP
0000
0000
C0C0
C0C0
E1C0
E1C0
F3C0
D2C0
DEC0
CCC0
CCC0
C0C0
C0C0
C0C0
C0C0
C0C0
0000
0000
0000
0000
ENDCHAR

STARTCHAR N
ENCODING 78
SWIDTH 666 0
DWIDTH 12 0
BBX 12 20 0 -4
BITMAP
0000
0000
C180
E180
E180
F180
D180
D980
C980
CD80
C580
C780
C380
C380
C180
C180
0000
0000
0000
0000
ENDCHAR

STARTCHAR O
ENCODING 79
SWIDTH 666 0
DWIDTH 12 0
BBX 12 20 0 -4
BITMAP
0000
0000
3F00
6180
C0C0
C0C0
C0C0
C0C0
C0C0
C0C0
C0C0
C0C0
C0C0
C0C0
6180
3F00
0000
0000
0000
0000
ENDCHAR

STARTCHAR P
ENCODING 80
SWIDTH 666 0
DWIDTH 12 0
BBX 12 20 0 -4
BITMAP
0000
0000
FF00
C180
C0C0
C0C0
C0C0
C0C0
C180
FF00
C000
C000
C000
C000
C000
C000
0000
0000
0000
0000
ENDCHAR

STARTCHAR Q
ENCODING 81
SWIDTH 666 0
DWIDTH 12 0
BBX 12 20 0 -4
BITMAP
0000
0000
3F00
6180
C0C0
C0C0
C0C0
C0C0
C0C0
C0C0
C0C0
D8C0
CCC0
C6C0
6380
3F00
0180
00C0
0000
0000
ENDCHAR

STARTCHAR R
ENCODING 82
SWIDTH 666 0
DWIDTH 12 0
BBX 12 20 0 -4
BITMAP
0000
0000
FF00
C180
C0C0
C0C0
C0C0
C0C0
C180
FF00
C600
C300
C180
C180
C0C0
C0C0
0000
0000
0000
0000
ENDCHAR

STARTCHAR S
ENCODING 83
SWIDTH 666 0
DWIDTH 12 0
BBX 12 20 0 -4
BITMAP
0000
0000
3F00
6180
C0C0
C000
C000
6000
3F00
0180
00C0
00C0
00C0
C0C0
6180
3F00
0000
0000
0000
0000
ENDCHAR

STARTCHAR T
ENCODING 84
SWIDTH 666 0
DWIDTH 12 0
BBX 12 20 0 -4
BITMAP
0000
0000
FFC0
0C00
0C00
0C00
0C00
0C00
0C00
0C00
0C00
0C00
0C00
0C00
0C00
0C00
0000
0000
0000
0000
ENDCHAR

STARTCHAR U
ENCODING 85
SWIDTH 666 0
DWIDTH 12 0
BBX 12 20 0 -4
BITMAP
0000
0000
C0C0
C0C0
C0C0
C0C0
C0C0
C0C0
C0C0
C0C0
C0C0
C0C0
C0C0
C0C0
6180
3F00
0000
0000
0000
0000
ENDCHAR

STARTCHAR V
ENCODING 86
SWIDTH 666 0
DWIDTH 12 0
BBX 12 20 0 -4
BITMAP
0000
0000
C0C0
C0C0
C0C0
C0C0
C0C0
C0C0
6180
6180
3300
3300
1E00
1E00
0C00
0C00
0000
0000
0000
0000
ENDCHAR

STARTCHAR W
ENCODING 87
SWIDTH 666 0
DWIDTH 12 0
BBX 12 20 0 -4
BITMAP
0000
0000
C0C0
C0C0
C0C0
C0C0
C0C0
C0C0
CCC0
CCC0
DEC0
DEC0
F3C0
F3C0
E1C0
4080
0000
0000
0000
0000
ENDCHAR

STARTCHAR X
ENCODING 88
SWIDTH 666 0
DWIDTH 12 0
BBX 12 20 0 -4
BITMAP
0000
0000
60C0
60C0
3180
3180
1B00
1B00
0E00
0E00
1B00
1B00
3180
3180
60C0
60C0
0000
0000
0000
0000
ENDCHAR

STARTCHAR Y
ENCODING 89
SWIDTH 666 0
DWIDTH 12 0
BBX 12 20 0 -4
BITMAP
0000
0000
C0C0
6180
6180
3300
3300
1E00
1E00
0C00
0C00
0C00
0C00
0C00
0C00
0C00
0000
0000
0000
0000
ENDCHAR

STARTCHAR Z
ENCODING 90
SWIDTH 666 0
DWIDTH 12 0
BBX 12 20 0 -4
BITMAP
0000
0000
FFC0
00C0
00C0
0180
0300
0600
0C00
1800
3000
6000
C000
C000
C000
FFC0
0000
0000
0000
0000
ENDCHAR

STARTCHAR [
ENCODING 91
SWIDTH 666 0
DWIDTH 12 0
BBX 12 20 0 -4
BITMAP
0000
0000
1F00
1800
1800
1800
1800
1800
1800
1800
1800
1800
1800
1800
1800
1F00
0000
0000
0000
0000
ENDCHAR

STARTCHAR \
ENCODING 92
SWIDTH 666 0
DWIDTH 12 0
BBX 12 20 0 -4
BITMAP
0000
0000
6000
6000
3000
3000
1800
1800
0C00
0C00
0600
0600
0300
0300
0180
0180
0000
0000
0000
0000
ENDCHAR

STARTCHAR ]
ENCODING 93
SWIDTH 666 0
DWIDTH 12 0
BBX 12 20 0 -4
BITMAP
0000
0000
3E00
0600
0600
0600
0600
0600
0600
0600
0600
0600
0600
0600
0600
3E00
0000
0000
0000
0000
ENDCHAR

STARTCHAR ^
ENCODING 94
SWIDTH 666 0
DWIDTH 12 0
BBX 12 20 0 -4
BITMAP
0000
0000
0C00
1E00
3300
6180
C0C0
0000
0000
0000
0000
0000
0000
0000
0000
0000
0000
0000
0000
0000
ENDCHAR

STARTCHAR _
ENCODING 95
SWIDTH 666 0
DWIDTH 12 0
BBX 12 20 0 -4
BITMAP
0000
0000
0000
0000
0000
0000
0000
0000
0000
0000
0000
0000
0000
0000
0000
0000
FFC0
FFC0
0000
0000
ENDCHAR

STARTCHAR `
ENCODING 96
SWIDTH 666 0
DWIDTH 12 0
BBX 12 20 0 -4
BITMAP
0000
0000
1C00
1C00
1C00
0C00
0600
0200
0000
0000
0000
0000
0000
0000
0000
0000
0000
0000
0000
0000
ENDCHAR

STARTCHAR a
ENCODING 97
SWIDTH 666 0
DWIDTH 12 0
BBX 12 20 0 -4
BITMAP
0000
0000
0000
0000
0000
0000
7F00
C180
0180
0180
7F80
C180
C180
C180
C180
7FC0
0000
0000
0000
0000
ENDCHAR

STARTCHAR b
ENCODING 98
SWIDTH 666 0
DWIDTH 12 0
BBX 12 20 0 -4
BITMAP
0000
0000
C000
C000
C000
C000
DF00
E180
C0C0
C0C0
C0C0
C0C0
C0C0
C0C0
E180
DF00
0000
0000
0000
0000
ENDCHAR

STARTCHAR c
ENCODING 99
SWIDTH 666 0
DWIDTH 12 0
BBX 12 20 0 -4
BITMAP
0000
0000
0000
0000
0000
0000
3F00
6180
C0C0
C000
C000
C000
C000
C0C0
6180
3F00
0000
0000
0000
0000
ENDCHAR

STARTCHAR d
ENCODING 100
SWIDTH 666 0
DWIDTH 12 0
BBX 12 20 0 -4
BITMAP
0000
0000
00C0
00C0
00C0
00C0
3EC0
61C0
C0C0
C0C0
C0C0
C0C0
C0C0
C0C0
61C0
3EC0
0000
0000
0000
0000
ENDCHAR

STARTCHAR e
ENCODING 101
SWIDTH 666 0
DWIDTH 12 0
BBX 12 20 0 -4
BITMAP
0000
0000
0000
0000
0000
0000
3F00
6180
C0C0
C0C0
FFC0
C000
C000
C000
60C0
3F80
0000
0000
0000
0000
ENDCHAR

STARTCHAR f
ENCODING 102
SWIDTH 666 0
DWIDTH 12 0
BBX 12 20 0 -4
BITMAP
0000
0000
0F80
18C0
1800
1800
1800
FF00
1800
1800
1800
1800
1800
1800
1800
1800
0000
0000
0000
0000
ENDCHAR

STARTCHAR g
ENCODING 103
SWIDTH 666 0
DWIDTH 12 0
BBX 12 20 0 -4
BITMAP
0000
0000
0000
0000
0000
0000
3EC0
61C0
C0C0
C0C0
C0C0
C0C0
C0C0
61C0
3EC0
00C0
00C0
C180
7F00
0000
ENDCHAR

STARTCHAR h
ENCODING 104
SWIDTH 666 0
DWIDTH 12 0
BBX 12 20 0 -4
BITMAP
0000
0000
C000
C000
C000
C000
DF00
E180
C0C0
C0C0
C0C0
C0C0
C0C0
C0C0
C0C0
C0C0
0000
0000
0000
0000
ENDCHAR

STARTCHAR i
ENCODING 105
SWIDTH 666 0
DWIDTH 12 0
BBX 12 20 0 -4
BITMAP
0000
0000
0C00
0C00
0000
0000
3C00
0C00
0C00
0C00
0C00
0C00
0C00
0C00
0C00
3F00
0000
0000
0000
0000
ENDCHAR

STARTCHAR j
ENCODING 106
SWIDTH 666 0
DWIDTH 12 0
BBX 12 20 0 -4
BITMAP
0000
0000
0300
0300
0000
0000
0F00
0300
0300
0300
0300
0300
0300
0300
0300
0300
6300
6300
3E00
0000
ENDCHAR

STARTCHAR k
ENCODING 107
SWIDTH 666 0
DWIDTH 12 0
BBX 12 20 0 -4
BITMAP
0000
0000
C000
C000
C000
C180
C300
C600
CC00
D800
F800
CC00
C600
C300
C180
C0C0
0000
0000
0000
0000
ENDCHAR

STARTCHAR l
ENCODING 108
SWIDTH 666 0
DWIDTH 12 0
BBX 12 20 0 -4
BITMAP
0000
0000
3C00
0C00
0C00
0C00
0C00
0C00
0C00
0C00
0C00
0C00
0C00
0C00
0C00
3F00
0000
0000
0000
0000
ENDCHAR

STARTCHAR m
ENCODING 109
SWIDTH 666 0
DWIDTH 12 0
BBX 12 20 0 -4
BITMAP
0000
0000
0000
0000
0000
0000
DD80
FFC0
CCC0
CCC0
CCC0
CCC0
CCC0
CCC0
CCC0
CCC0
0000
0000
0000
0000
ENDCHAR

STARTCHAR n
ENCODING 110
SWIDTH 666 0
DWIDTH 12 0
BBX 12 20 0 -4
BITMAP
0000
0000
0000
0000
0000
0000
DF00
E180
C0C0
C0C0
C0C0
C0C0
C0C0
C0C0
C0C0
C0C0
0000
0000
0000
0000
ENDCHAR

STARTCHAR o
ENCODING 111
SWIDTH 666 0
DWIDTH 12 0
BBX 12 20 0 -4
BITMAP
0000
0000
0000
0000
0000
0000
3F00
6180
C0C0
C0C0
C0C0
C0C0
C0C0
C0C0
6180
3F00
0000
0000
0000
0000
ENDCHAR

STARTCHAR p
ENCODING 112
SWIDTH 666 0
DWIDTH 12 0
BBX 12 20 0 -4
BITMAP
0000
0000
0000
0000
0000
0000
DF00
E180
C0C0
C0C0
C0C0
C0C0
C0C0
C0C0
E180
DF00
C000
C000
C000
0000
ENDCHAR

STARTCHAR q
ENCODING 113
SWIDTH 666 0
DWIDTH 12 0
BBX 12 20 0 -4
BITMAP
0000
0000
0000
0000
0000
0000
3EC0
61C0
C0C0
C0C0
C0C0
C0C0
C0C0
C0C0
61C0
3EC0
00C0
00C0
00C0
0000
ENDCHAR

STARTCHAR r
ENCODING 114
SWIDTH 666 0
DWIDTH 12 0
BBX 12 20 0 -4
BITMAP
0000
0000
0000
0000
0000
0000
DF80
E0C0
C040
C000
C000
C000
C000
C000
C000
C000
0000
0000
0000
0000
ENDCHAR

STARTCHAR s
ENCODING 115
SWIDTH 666 0
DWIDTH 12 0
BBX 12 20 0 -4
BITMAP
0000
0000
0000
0000
0000
0000
7F80
C0C0
C000
C000
7F80
00C0
00C0
00C0
C0C0
7F80
0000
0000
0000
0000
ENDCHAR

STARTCHAR t
ENCODING 116
SWIDTH 666 0
DWIDTH 12 0
BBX 12 20 0 -4
BITMAP
0000
0000
0000
1800
1800
1800
FF00
1800
1800
1800
1800
1800
1800
1800
18C0
0F80
0000
0000
0000
0000
ENDCHAR

STARTCHAR u
ENCODING 117
SWIDTH 666 0
DWIDTH 12 0
BBX 12 20 0 -4
BITMAP
0000
0000
0000
0000
0000
0000
C0C0
C0C0
C0C0
C0C0
C0C0
C0C0
C0C0
C0C0
61C0
3EC0
0000
0000
0000
0000
ENDCHAR

STARTCHAR v
ENCODING 118
SWIDTH 666 0
DWIDTH 12 0
BBX 12 20 0 -4
BITMAP
0000
0000
0000
0000
0000
0000
C0C0
C0C0
6180
6180
3300
3300
1E00
1E00
0C00
0C00
0000
0000
0000
0000
ENDCHAR

STARTCHAR w
ENCODING 119
SWIDTH 666 0
DWIDTH 12 0
BBX 12 20 0 -4
BITMAP
0000
0000
0000
0000
0000
0000
C0C0
C0C0
C0C0
C0C0
CCC0
CCC0
DEC0
F3C0
E1C0
4080
0000
0000
0000
0000
ENDCHAR

STARTCHAR x
ENCODING 120
SWIDTH 666 0
DWIDTH 12 0
BBX 12 20 0 -4
BITMAP
0000
0000
0000
0000
0000
0000
C0C0
6180
3300
1E00
0C00
0C00
1E00
3300
6180
C0C0
0000
0000
0000
0000
ENDCHAR

STARTCHAR y
ENCODING 121
SWIDTH 666 0
DWIDTH 12 0
BBX 12 20 0 -4
BITMAP
0000
0000
0000
0000
0000
0000
C0C0
C0C0
6180
6180
3300
3300
1E00
1E00
0C00
0C00
1800
3000
E000
0000
ENDCHAR

STARTCHAR z
ENCODING 122
SWIDTH 666 0
DWIDTH 12 0
BBX 12 20 0 -4
BITMAP
0000
0000
0000
0000
0000
0000
FFC0
0180
0300
0600
0C00
1800
3000
6000
C000
FFC0
0000
0000
0000
0000
ENDCHAR

STARTCHAR {
ENCODING 123
SWIDTH 666 0
DWIDTH 12 0
BBX 12 20 0 -4
BITMAP
0000
0000
0700
0C00
0C00
0C00
0C00
0C00
1800
7000
1800
0C00
0C00
0C00
0C00
0C00
0700
0000
0000
0000
ENDCHAR

STARTCHAR |
ENCODING 124
SWIDTH 666 0
DWIDTH 12 0
BBX 12 20 0 -4
BITMAP
0000
0000
0C00
0C00
0C00
0C00
0C00
0C00
0C00
0000
0000
0C00
0C00
0C00
0C00
0C00
0C00
0C00
0000
0000
ENDCHAR

STARTCHAR }
ENCODING 125
SWIDTH 666 0
DWIDTH 12 0
BBX 12 20 0 -4
BITMAP
0000
0000
3800
0C00
0C00
0C00
0C00
0C00
0600
0380
0600
0C00
0C00
0C00
0C00
0C00
3800
0000
0000
0000
ENDCHAR

STARTCHAR ~
ENCODING 126
SWIDTH 666 0
DWIDTH 12 0
BBX 12 20 0 -4
BITMAP
0000
0000
3800
7C40
47C0
0380
0000
0000
0000
0000
0000
0000
0000
0000
0000
0000
0000
0000
0000
0000
ENDCHAR

STARTCHAR delta
ENCODING 127
SWIDTH 666 0
DWIDTH 12 0
BBX 12 20 0 -4
BITMAP
0000
0000
0000
0000
0C00
1E00
3300
6180
C0C0
C0C0
C0C0
C0C0
FFC0
FFC0
0000
0000
0000
0000
0000
0000
ENDCHAR

STARTCHAR C-cedilla
ENCODING 128
SWIDTH 666 0
DWIDTH 12 0
BBX 12 20 0 -4
BITMAP
0000
0000
3F00
6180
C0C0
C000
C000
C000
C000
C000
C000
C000
C000
C0C0
6180
3F00
0600
0C00
3800
0000
ENDCHAR

STARTCHAR u-umlaut
ENCODING 129
SWIDTH 666 0
DWIDTH 12 0
BBX 12 20 0 -4
BITMAP
0000
0000
6180
6180
0000
0000
C0C0
C0C0
C0C0
C0C0
C0C0
C0C0
C0C0
C0C0
61C0
3EC0
0000
0000
0000
0000
ENDCHAR

STARTCHAR e-acute
ENCODING 130
SWIDTH 666 0
DWIDTH 12 0
BBX 12 20 0 -4
BITMAP
0300
0600
0C00
1800
0000
0000
3F00
6180
C0C0
C0C0
FFC0
C000
C000
C000
60C0
3F80
0000
0000
0000
0000
ENDCHAR

STARTCHAR a-circumflex
ENCODING 131
SWIDTH 666 0
DWIDTH 12 0
BBX 12 20 0 -4
BITMAP
0C00
1E00
3300
6180
0000
0000
7F00
C180
0180
0180
7F80
C180
C180
C180
C180
7FC0
0000
0000
0000
0000
ENDCHAR

STARTCHAR a-umlaut
ENCODING 132
SWIDTH 666 0
DWIDTH 12 0
BBX 12 20 0 -4
BITMAP
0000
0000
6180
6180
0000
0000
7F00
C180
0180
0180
7F80
C180
C180
C180
C180
7FC0
0000
0000
0000
0000
ENDCHAR

STARTCHAR a-grave
ENCODING 133
SWIDTH 666 0
DWIDTH 12 0
BBX 12 20 0 -4
BITMAP
3000
1800
0C00
0600
0000
0000
7F00
C180
0180
0180
7F80
C180
C180
C180
C180
7FC0
0000
0000
0000
0000
ENDCHAR

STARTCHAR a-circle
ENCODING 134
SWIDTH 666 0
DWIDTH 12 0
BBX 12 20 0 -4
BITMAP
1E00
3300
3300
1E00
0000
0000
7F00
C180
0180
0180
7F80
C180
C180
C180
C180
7FC0
0000
0000
0000
0000
ENDCHAR

STARTCHAR c-cedilla
ENCODING 135
SWIDTH 666 0
DWIDTH 12 0
BBX 12 20 0 -4
BITMAP
0000
0000
0000
0000
0000
0000
3F00
6180
C0C0
C000
C000
C000
C000
C0C0
6180
3F00
0600
0C00
3800
0000
ENDCHAR

STARTCHAR e-circumflex
ENCODING 136
SWIDTH 666 0
DWIDTH 12 0
BBX 12 20 0 -4
BITMAP
0C00
1E00
3300
6180
0000
0000
3F00
6180
C0C0
C0C0
FFC0
C000
C000
C000
60C0
3F80
0000
0000
0000
0000
ENDCHAR

STARTCHAR e-umlaut
ENCODING 137
SWIDTH 666 0
DWIDTH 12 0
BBX 12 20 0 -4
BITMAP
0000
0000
6180
6180
0000
0000
3F00
6180
C0C0
C0C0
FFC0
C000
C000
C000
60C0
3F80
0000
0000
0000
0000
ENDCHAR

STARTCHAR e-grave
ENCODING 138
SWIDTH 666 0
DWIDTH 12 0
BBX 12 20 0 -4
BITMAP
3000
1800
0C00
0600
0000
0000
3F00
6180
C0C0
C0C0
FFC0
C000
C000
C000
60C0
3F80
0000
0000
0000
0000
ENDCHAR

STARTCHAR i-umlaut
ENCODING 139
SWIDTH 666 0
DWIDTH 12 0
BBX 12 20 0 -4
BITMAP
0000
0000
6180
6180
0000
0000
3C00
0C00
0C00
0C00
0C00
0C00
0C00
0C00
0C00
3F00
0000
0000
0000
0000
ENDCHAR

STARTCHAR i-circumflex
ENCODING 140
SWIDTH 666 0
DWIDTH 12 0
BBX 12 20 0 -4
BITMAP
0C00
1E00
3300
6180
0000
0000
3C00
0C00
0C00
0C00
0C00
0C00
0C00
0C00
0C00
3F00
0000
0000
0000
0000
ENDCHAR

STARTCHAR i-grave
ENCODING 141
SWIDTH 666 0
DWIDTH 12 0
BBX 12 20 0 -4
BITMAP
6000
3000
1800
0C00
0000
0000
3C00
0C00
0C00
0C00
0C00
0C00
0C00
0C00
0C00
3F00
0000
0000
0000
0000
ENDCHAR

STARTCHAR A-umlaut
ENCODING 142
SWIDTH 666 0
DWIDTH 12 0
BBX 12 20 0 -4
BITMAP
6180
6180
0000
0C00
1E00
3300
6180
C0C0
C0C0
C0C0
FFC0
C0C0
C0C0
C0C0
C0C0
C0C0
0000
0000
0000
0000
ENDCHAR

STARTCHAR A-circle
ENCODING 143
SWIDTH 666 0
DWIDTH 12 0
BBX 12 20 0 -4
BITMAP
1E00
3300
3300
1E00
1E00
3300
6180
C0C0
C0C0
C0C0
FFC0
C0C0
C0C0
C0C0
C0C0
C0C0
0000
0000
0000
0000
ENDCHAR

STARTCHAR E-acute
ENCODING 144
SWIDTH 666 0
DWIDTH 12 0
BBX 12 20 0 -4
BITMAP
0300
0600
0C00
1800
FFC0
C000
C000
C000
C000
FF80
C000
C000
C000
C000
C000
FFC0
0000
0000
0000
0000
ENDCHAR

STARTCHAR ae
ENCODING 145
SWIDTH 666 0
DWIDTH 12 0
BBX 12 20 0 -4
BITMAP
0000
0000
0000
0000
0000
0000
7B80
0CC0
0CC0
0CC0
7FC0
CC00
CC00
CC00
CC00
7BC0
0000
0000
0000
0000
ENDCHAR

STARTCHAR AE
ENCODING 146
SWIDTH 666 0
DWIDTH 12 0
BBX 12 20 0 -4
BITMAP
0000
0000
1FC0
3C00
6C00
CC00
CC00
CC00
CFC0
FC00
CC00
CC00
CC00
CC00
CC00
CFC0
0000
0000
0000
0000
ENDCHAR

STARTCHAR o-circumflex
ENCODING 147
SWIDTH 666 0
DWIDTH 12 0
BBX 12 20 0 -4
BITMAP
0C00
1E00
3300
6180
0000
0000
3F00
6180
C0C0
C0C0
C0C0
C0C0
C0C0
C0C0
6180
3F00
0000
0000
0000
0000
ENDCHAR

STARTCHAR o-umlaut
ENCODING 148
SWIDTH 666 0
DWIDTH 12 0
BBX 12 20 0 -4
BITMAP
0000
0000
6180
6180
0000
0000
3F00
6180
C0C0
C0C0
C0C0
C0C0
C0C0
C0C0
6180
3F00
0000
0000
0000
0000
ENDCHAR

STARTCHAR o-grave
ENCODING 149
SWIDTH 666 0
DWIDTH 12 0
BBX 12 20 0 -4
BITMAP
3000
1800
0C00
0600
0000
0000
3F00
6180
C0C0
C0C0
C0C0
C0C0
C0C0
C0C0
6180
3F00
0000
0000
0000
0000
ENDCHAR

STARTCHAR u-circumflex
ENCODING 150
SWIDTH 666 0
DWIDTH 12 0
BBX 12 20 0 -4
BITMAP
0C00
1E00
3300
6180
0000
0000
C0C0
C0C0
C0C0
C0C0
C0C0
C0C0
C0C0
C0C0
61C0
3EC0
0000
0000
0000
0000
ENDCHAR

STARTCHAR u-grave
ENCODING 151
SWIDTH 666 0
DWIDTH 12 0
BBX 12 20 0 -4
BITMAP
3000
1800
0C00
0600
0000
0000
C0C0
C0C0
C0C0
C0C0
C0C0
C0C0
C0C0
C0C0
61C0
3EC0
0000
0000
0000
0000
ENDCHAR

STARTCHAR y-umlaut
ENCODING 152
SWIDTH 666 0
DWIDTH 12 0
BBX 12 20 0 -4
BITMAP
0000
0000
6180
6180
0000
0000
C0C0
C0C0
6180
6180
3300
3300
1E00
1E00
0C00
0C00
1800
3000
E000
0000
ENDCHAR

STARTCHAR O-umlaut
ENCODING 153
SWIDTH 666 0
DWIDTH 12 0
BBX 12 20 0 -4
BITMAP
6180
6180
0000
3F00
6180
C0C0
C0C0
C0C0
C0C0
C0C0
C0C0
C0C0
C0C0
C0C0
6180
3F00
0000
0000
0000
0000
ENDCHAR

STARTCHAR U-umlaut
ENCODING 154
SWIDTH 666 0
DWIDTH 12 0
BBX 12 20 0 -4
BITMAP
6180
6180
0000
C0C0
C0C0
C0C0
C0C0
C0C0
C0C0
C0C0
C0C0
C0C0
C0C0
C0C0
6180
3F00
0000
0000
0000
0000
ENDCHAR

STARTCHAR cents
ENCODING 155
SWIDTH 666 0
DWIDTH 12 0
BBX 12 20 0 -4
BITMAP
0000
0000
0C00
0C00
0C00
7F80
CCC0
CC00
CC00
CC00
CC00
CCC0
7F80
0C00
0C00
0C00
0000
0000
0000
0000
ENDCHAR

STARTCHAR pounds
ENCODING 156
SWIDTH 666 0
DWIDTH 12 0
BBX 12 20 0 -4
BITMAP
0000
0F00
1980
1880
1800
1800
1800
7F00
1800
1800
1800
1800
7800
FC00
E6C0
C380
0000
0000
0000
0000
ENDCHAR

STARTCHAR y-dbl_hash
ENCODING 157
SWIDTH 666 0
DWIDTH 12 0
BBX 12 20 0 -4
BITMAP
0000
0000
C0C0
6180
6180
3300
3300
1E00
7F80
7F80
0C00
7F80
7F80
0C00
0C00
0C00
0000
0000
0000
0000
ENDCHAR

STARTCHAR Pt
ENCODING 158
SWIDTH 666 0
DWIDTH 12 0
BBX 12 20 0 -4
BITMAP
0000
0000
FF80
C0C0
C0C0
C0C0
C0C0
FF80
C000
C000
C300
C300
CFC0
C300
C300
C300
0300
01C0
0000
0000
ENDCHAR

STARTCHAR fancy_f
ENCODING 159
SWIDTH 666 0
DWIDTH 12 0
BBX 12 20 0 -4
BITMAP
0000
0000
0600
0F00
0D80
0C00
0C00
0C00
7F80
0C00
0C00
0C00
0C00
0C00
0C00
6C00
3C00
1800
0000
0000
ENDCHAR

STARTCHAR a-acute
ENCODING 160
SWIDTH 666 0
DWIDTH 12 0
BBX 12 20 0 -4
BITMAP
0600
0C00
1800
3000
0000
0000
7F00
C180
0180
0180
7F80
C180
C180
C180
C180
7FC0
0000
0000
0000
0000
ENDCHAR

STARTCHAR i-acute
ENCODING 161
SWIDTH 666 0
DWIDTH 12 0
BBX 12 20 0 -4
BITMAP
0300
0600
0C00
1800
0000
0000
3C00
0C00
0C00
0C00
0C00
0C00
0C00
0C00
0C00
3F00
0000
0000
0000
0000
ENDCHAR

STARTCHAR o-acute
ENCODING 162
SWIDTH 666 0
DWIDTH 12 0
BBX 12 20 0 -4
BITMAP
0300
0600
0C00
1800
0000
0000
3F00
6180
C0C0
C0C0
C0C0
C0C0
C0C0
C0C0
6180
3F00
0000
0000
0000
0000
ENDCHAR

STARTCHAR u-acute
ENCODING 163
SWIDTH 666 0
DWIDTH 12 0
BBX 12 20 0 -4
BITMAP
0300
0600
0C00
1800
0000
0000
C0C0
C0C0
C0C0
C0C0
C0C0
C0C0
C0C0
C0C0
61C0
3EC0
0000
0000
0000
0000
ENDCHAR

STARTCHAR n-tilde
ENCODING 164
SWIDTH 666 0
DWIDTH 12 0
BBX 12 20 0 -4
BITMAP
0000
3880
7F80
4700
0000
0000
DF00
E180
C0C0
C0C0
C0C0
C0C0
C0C0
C0C0
C0C0
C0C0
0000
0000
0000
0000
ENDCHAR

STARTCHAR N-tilde
ENCODING 165
SWIDTH 666 0
DWIDTH 12 0
BBX 12 20 0 -4
BITMAP
1C40
3FC0
2380
60C0
70C0
70C0
78C0
68C0
6CC0
64C0
66C0
62C0
63C0
61C0
61C0
60C0
0000
0000
0000
0000
ENDCHAR

STARTCHAR a-super
ENCODING 166
SWIDTH 666 0
DWIDTH 12 0
BBX 12 20 0 -4
BITMAP
0000
0000
7F00
C180
0180
7F80
C180
C180
C180
7FC0
0000
0000
FFC0
FFC0
0000
0000
0000
0000
0000
0000
ENDCHAR

STARTCHAR o-super
ENCODING 167
SWIDTH 666 0
DWIDTH 12 0
BBX 12 20 0 -4
BITMAP
0000
0000
3F00
6180
C0C0
C0C0
C0C0
C0C0
6180
3F00
0000
0000
FFC0
FFC0
0000
0000
0000
0000
0000
0000
ENDCHAR

STARTCHAR inverted-?
ENCODING 168
SWIDTH 666 0
DWIDTH 12 0
BBX 12 20 0 -4
BITMAP
0000
0000
0000
0000
0C00
0C00
0000
0000
0C00
0C00
0C00
1800
3000
6000
6000
6180
6180
3F00
0000
0000
ENDCHAR

STARTCHAR ll_angle
ENCODING 169
SWIDTH 666 0
DWIDTH 12 0
BBX 12 20 0 -4
BITMAP
0000
0000
0000
0000
0000
0000
0000
0000
FFC0
FFC0
C000
C000
C000
C000
0000
0000
0000
0000
0000
0000
ENDCHAR

STARTCHAR lr_angle
ENCODING 170
SWIDTH 666 0
DWIDTH 12 0
BBX 12 20 0 -4
BITMAP
0000
0000
0000
0000
0000
0000
0000
0000
FFC0
FFC0
00C0
00C0
00C0
00C0
0000
0000
0000
0000
0000
0000
ENDCHAR

STARTCHAR 1/2
ENCODING 171
SWIDTH 666 0
DWIDTH 12 0
BBX 12 20 0 -4
BITMAP
0000
0000
3000
7000
F000
30C0
3180
3300
3600
0C00
1B80
36C0
64C0
C0C0
0180
0300
0600
07C0
0000
0000
ENDCHAR

STARTCHAR 1/4
ENCODING 172
SWIDTH 666 0
DWIDTH 12 0
BBX 12 20 0 -4
BITMAP
0000
0000
3000
7000
F000
30C0
3180
3300
3600
0C00
1980
3380
6780
CD80
1980
1FC0
0180
0180
0000
0000
ENDCHAR

STARTCHAR inverted-!
ENCODING 173
SWIDTH 666 0
DWIDTH 12 0
BBX 12 20 0 -4
BITMAP
0000
0000
0000
0000
0C00
0C00
0000
0000
0C00
0C00
0C00
0C00
0C00
0C00
0C00
0C00
0C00
0C00
0000
0000
ENDCHAR

STARTCHAR french_lquote
ENCODING 174
SWIDTH 666 0
DWIDTH 12 0
BBX 12 20 0 -4
BITMAP
0000
0000
0000
0000
0CC0
1980
3300
6600
CC00
6600
3300
1980
0CC0
0000
0000
0000
0000
0000
0000
0000
ENDCHAR

STARTCHAR french_rquote
ENCODING 175
SWIDTH 666 0
DWIDTH 12 0
BBX 12 20 0 -4
BITMAP
0000
0000
0000
0000
CC00
6600
3300
1980
0CC0
1980
3300
6600
CC00
0000
0000
0000
0000
0000
0000
0000
ENDCHAR

STARTCHAR gray1
ENCODING 176
SWIDTH 666 0
DWIDTH 12 0
BBX 12 20 0 -4
BITMAP
0C00
0C00
C0C0
C0C0
0C00
0C00
C0C0
C0C0
0C00
0C00
C0C0
C0C0
0C00
0C00
C0C0
C0C0
0C00
0C00
C0C0
C0C0
ENDCHAR

STARTCHAR gray2
ENCODING 177
SWIDTH 666 0
DWIDTH 12 0
BBX 12 20 0 -4
BITMAP
3330
3330
CCC0
CCC0
3330
3330
CCC0
CCC0
3330
3330
CCC0
CCC0
3330
3330
CCC0
CCC0
3330
3330
CCC0
CCC0
ENDCHAR

STARTCHAR gray3
ENCODING 178
SWIDTH 666 0
DWIDTH 12 0
BBX 12 20 0 -4
BITMAP
F3F0
F3F0
3F30
3F30
F3F0
F3F0
3F30
3F30
F3F0
F3F0
3F30
3F30
F3F0
F3F0
3F30
3F30
F3F0
F3F0
3F30
3F30
ENDCHAR

STARTCHAR v_edge
ENCODING 179
SWIDTH 666 0
DWIDTH 12 0
BBX 12 20 0 -4
BITMAP
0C00
0C00
0C00
0C00
0C00
0C00
0C00
0C00
0C00
0C00
0C00
0C00
0C00
0C00
0C00
0C00
0C00
0C00
0C00
0C00
ENDCHAR

STARTCHAR left_tee
ENCODING 180
SWIDTH 666 0
DWIDTH 12 0
BBX 12 20 0 -4
BITMAP
0C00
0C00
0C00
0C00
0C00
0C00
0C00
0C00
FC00
FC00
0C00
0C00
0C00
0C00
0C00
0C00
0C00
0C00
0C00
0C00
ENDCHAR

STARTCHAR left2_tee
ENCODING 181
SWIDTH 666 0
DWIDTH 12 0
BBX 12 20 0 -4
BITMAP
0C00
0C00
0C00
0C00
0C00
0C00
FC00
FC00
0C00
0C00
FC00
FC00
0C00
0C00
0C00
0C00
0C00
0C00
0C00
0C00
ENDCHAR

STARTCHAR left_tee2
ENCODING 182
SWIDTH 666 0
DWIDTH 12 0
BBX 12 20 0 -4
BITMAP
3300
3300
3300
3300
3300
3300
3300
3300
F300
F300
3300
3300
3300
3300
3300
3300
3300
3300
3300
3300
ENDCHAR

STARTCHAR ur2_corner
ENCODING 183
SWIDTH 666 0
DWIDTH 12 0
BBX 12 20 0 -4
BITMAP
0000
0000
0000
0000
0000
0000
0000
0000
FF00
FF00
3300
3300
3300
3300
3300
3300
3300
3300
3300
3300
ENDCHAR

STARTCHAR u2r_corner
ENCODING 184
SWIDTH 666 0
DWIDTH 12 0
BBX 12 20 0 -4
BITMAP
0000
0000
0000
0000
0000
0000
FC00
FC00
0C00
0C00
FC00
FC00
0C00
0C00
0C00
0C00
0C00
0C00
0C00
0C00
ENDCHAR

STARTCHAR left2_tee2
ENCODING 185
SWIDTH 666 0
DWIDTH 12 0
BBX 12 20 0 -4
BITMAP
3300
3300
3300
3300
3300
3300
F300
F300
0300
0300
F300
F300
3300
3300
3300
3300
3300
3300
3300
3300
ENDCHAR

STARTCHAR v_edge2
ENCODING 186
SWIDTH 666 0
DWIDTH 12 0
BBX 12 20 0 -4
BITMAP
3300
3300
3300
3300
3300
3300
3300
3300
3300
3300
3300
3300
3300
3300
3300
3300
3300
3300
3300
3300
ENDCHAR

STARTCHAR ur_corner2
ENCODING 187
SWIDTH 666 0
DWIDTH 12 0
BBX 12 20 0 -4
BITMAP
0000
0000
0000
0000
0000
0000
FF00
FF00
0300
0300
F300
F300
3300
3300
3300
3300
3300
3300
3300
3300
ENDCHAR

STARTCHAR lr_corner2
ENCODING 188
SWIDTH 666 0
DWIDTH 12 0
BBX 12 20 0 -4
BITMAP
3300
3300
3300
3300
3300
3300
F300
F300
0300
0300
FF00
FF00
0000
0000
0000
0000
0000
0000
0000
0000
ENDCHAR

STARTCHAR lr2_corner
ENCODING 189
SWIDTH 666 0
DWIDTH 12 0
BBX 12 20 0 -4
BITMAP
3300
3300
3300
3300
3300
3300
3300
3300
FF00
FF00
0000
0000
0000
0000
0000
0000
0000
0000
0000
0000
ENDCHAR

STARTCHAR l2r_corner
ENCODING 190
SWIDTH 666 0
DWIDTH 12 0
BBX 12 20 0 -4
BITMAP
0C00
0C00
0C00
0C00
0C00
0C00
FC00
FC00
0C00
0C00
FC00
FC00
0000
0000
0000
0000
0000
0000
0000
0000
ENDCHAR

STARTCHAR ur_corner
ENCODING 191
SWIDTH 666 0
DWIDTH 12 0
BBX 12 20 0 -4
BITMAP
0000
0000
0000
0000
0000
0000
0000
0000
FC00
FC00
0C00
0C00
0C00
0C00
0C00
0C00
0C00
0C00
0C00
0C00
ENDCHAR

STARTCHAR ll_corner
ENCODING 192
SWIDTH 666 0
DWIDTH 12 0
BBX 12 20 0 -4
BITMAP
0C00
0C00
0C00
0C00
0C00
0C00
0C00
0C00
0FF0
0FF0
0000
0000
0000
0000
0000
0000
0000
0000
0000
0000
ENDCHAR

STARTCHAR up_tee
ENCODING 193
SWIDTH 666 0
DWIDTH 12 0
BBX 12 20 0 -4
BITMAP
0C00
0C00
0C00
0C00
0C00
0C00
0C00
0C00
FFF0
FFF0
0000
0000
0000
0000
0000
0000
0000
0000
0000
0000
ENDCHAR

STARTCHAR down_tee
ENCODING 194
SWIDTH 666 0
DWIDTH 12 0
BBX 12 20 0 -4
BITMAP
0000
0000
0000
0000
0000
0000
0000
0000
FFF0
FFF0
0C00
0C00
0C00
0C00
0C00
0C00
0C00
0C00
0C00
0C00
ENDCHAR

STARTCHAR right_tee
ENCODING 195
SWIDTH 666 0
DWIDTH 12 0
BBX 12 20 0 -4
BITMAP
0C00
0C00
0C00
0C00
0C00
0C00
0C00
0C00
0FF0
0FF0
0C00
0C00
0C00
0C00
0C00
0C00
0C00
0C00
0C00
0C00
ENDCHAR

STARTCHAR h_edge
ENCODING 196
SWIDTH 666 0
DWIDTH 12 0
BBX 12 20 0 -4
BITMAP
0000
0000
0000
0000
0000
0000
0000
0000
FFF0
FFF0
0000
0000
0000
0000
0000
0000
0000
0000
0000
0000
ENDCHAR

STARTCHAR intersect
ENCODING 197
SWIDTH 666 0
DWIDTH 12 0
BBX 12 20 0 -4
BITMAP
0C00
0C00
0C00
0C00
0C00
0C00
0C00
0C00
FFF0
FFF0
0C00
0C00
0C00
0C00
0C00
0C00
0C00
0C00
0C00
0C00
ENDCHAR

STARTCHAR right2_tee
ENCODING 198
SWIDTH 666 0
DWIDTH 12 0
BBX 12 20 0 -4
BITMAP
0C00
0C00
0C00
0C00
0C00
0C00
0FF0
0FF0
0C00
0C00
0FF0
0FF0
0C00
0C00
0C00
0C00
0C00
0C00
0C00
0C00
ENDCHAR

STARTCHAR right_tee2
ENCODING 199
SWIDTH 666 0
DWIDTH 12 0
BBX 12 20 0 -4
BITMAP
3300
3300
3300
3300
3300
3300
3300
3300
33F0
33F0
3300
3300
3300
3300
3300
3300
3300
3300
3300
3300
ENDCHAR

STARTCHAR ll_corner2
ENCODING 200
SWIDTH 666 0
DWIDTH 12 0
BBX 12 20 0 -4
BITMAP
3300
3300
3300
3300
3300
3300
33F0
33F0
3000
3000
3FF0
3FF0
0000
0000
0000
0000
0000
0000
0000
0000
ENDCHAR

STARTCHAR ul_corner2
ENCODING 201
SWIDTH 666 0
DWIDTH 12 0
BBX 12 20 0 -4
BITMAP
0000
0000
0000
0000
0000
0000
3FF0
3FF0
3000
3000
33F0
33F0
3300
3300
3300
3300
3300
3300
3300
3300
ENDCHAR

STARTCHAR up_tee2
ENCODING 202
SWIDTH 666 0
DWIDTH 12 0
BBX 12 20 0 -4
BITMAP
3300
3300
3300
3300
3300
3300
F3F0
F3F0
0000
0000
FFF0
FFF0
0000
0000
0000
0000
0000
0000
0000
0000
ENDCHAR

STARTCHAR down_tee2
ENCODING 203
SWIDTH 666 0
DWIDTH 12 0
BBX 12 20 0 -4
BITMAP
0000
0000
0000
0000
0000
0000
FFF0
FFF0
0000
0000
F3F0
F3F0
3300
3300
3300
3300
3300
3300
3300
3300
ENDCHAR

STARTCHAR right_tee2
ENCODING 204
SWIDTH 666 0
DWIDTH 12 0
BBX 12 20 0 -4
BITMAP
3300
3300
3300
3300
3300
3300
33F0
33F0
3000
3000
33F0
33F0
3300
3300
3300
3300
3300
3300
3300
3300
ENDCHAR

STARTCHAR h_edge2
ENCODING 205
SWIDTH 666 0
DWIDTH 12 0
BBX 12 20 0 -4
BITMAP
0000
0000
0000
0000
0000
0000
FFF0
FFF0
0000
0000
FFF0
FFF0
0000
0000
0000
0000
0000
0000
0000
0000
ENDCHAR

STARTCHAR intersect2
ENCODING 206
SWIDTH 666 0
DWIDTH 12 0
BBX 12 20 0 -4
BITMAP
3300
3300
3300
3300
3300
3300
F3F0
F3F0
0000
0000
F3F0
F3F0
3300
3300
3300
3300
3300
3300
3300
3300
ENDCHAR

STARTCHAR up_tee2
ENCODING 207
SWIDTH 666 0
DWIDTH 12 0
BBX 12 20 0 -4
BITMAP
0C00
0C00
0C00
0C00
0C00
0C00
FFF0
FFF0
0000
0000
FFF0
FFF0
0000
0000
0000
0000
0000
0000
0000
0000
ENDCHAR

STARTCHAR up2_tee
ENCODING 208
SWIDTH 666 0
DWIDTH 12 0
BBX 12 20 0 -4
BITMAP
3300
3300
3300
3300
3300
3300
3300
3300
FFF0
FFF0
0000
0000
0000
0000
0000
0000
0000
0000
0000
0000
ENDCHAR

STARTCHAR down_tee2
ENCODING 209
SWIDTH 666 0
DWIDTH 12 0
BBX 12 20 0 -4
BITMAP
0000
0000
0000
0000
0000
0000
FFF0
FFF0
0000
0000
FFF0
FFF0
0C00
0C00
0C00
0C00
0C00
0C00
0C00
0C00
ENDCHAR

STARTCHAR down2_tee
ENCODING 210
SWIDTH 666 0
DWIDTH 12 0
BBX 12 20 0 -4
BITMAP
0000
0000
0000
0000
0000
0000
0000
0000
FFF0
FFF0
3300
3300
3300
3300
3300
3300
3300
3300
3300
3300
ENDCHAR

STARTCHAR ll2_corner
ENCODING 211
SWIDTH 666 0
DWIDTH 12 0
BBX 12 20 0 -4
BITMAP
3300
3300
3300
3300
3300
3300
3300
3300
3FF0
3FF0
0000
0000
0000
0000
0000
0000
0000
0000
0000
0000
ENDCHAR

STARTCHAR l2l_corner
ENCODING 212
SWIDTH 666 0
DWIDTH 12 0
BBX 12 20 0 -4
BITMAP
0C00
0C00
0C00
0C00
0C00
0C00
0FF0
0FF0
0C00
0C00
0FF0
0FF0
0000
0000
0000
0000
0000
0000
0000
0000
ENDCHAR

STARTCHAR u2l_corner
ENCODING 213
SWIDTH 666 0
DWIDTH 12 0
BBX 12 20 0 -4
BITMAP
0000
0000
0000
0000
0000
0000
0FF0
0FF0
0C00
0C00
0FF0
0FF0
0C00
0C00
0C00
0C00
0C00
0C00
0C00
0C00
ENDCHAR

STARTCHAR ul2_corner
ENCODING 214
SWIDTH 666 0
DWIDTH 12 0
BBX 12 20 0 -4
BITMAP
0000
0000
0000
0000
0000
0000
0000
0000
3FF0
3FF0
3300
3300
3300
3300
3300
3300
3300
3300
3300
3300
ENDCHAR

STARTCHAR intersect_v2
ENCODING 215
SWIDTH 666 0
DWIDTH 12 0
BBX 12 20 0 -4
BITMAP
3300
3300
3300
3300
3300
3300
3300
3300
FFF0
FFF0
3300
3300
3300
3300
3300
3300
3300
3300
3300
3300
ENDCHAR

STARTCHAR intersect_h2
ENCODING 216
SWIDTH 666 0
DWIDTH 12 0
BBX 12 20 0 -4
BITMAP
0C00
0C00
0C00
0C00
0C00
0C00
FFF0
FFF0
0C00
0C00
FFF0
FFF0
0C00
0C00
0C00
0C00
0C00
0C00
0C00
0C00
ENDCHAR

STARTCHAR lr_corner
ENCODING 217
SWIDTH 666 0
DWIDTH 12 0
BBX 12 20 0 -4
BITMAP
0C00
0C00
0C00
0C00
0C00
0C00
0C00
0C00
FC00
FC00
0000
0000
0000
0000
0000
0000
0000
0000
0000
0000
ENDCHAR

STARTCHAR ul_corner
ENCODING 218
SWIDTH 666 0
DWIDTH 12 0
BBX 12 20 0 -4
BITMAP
0000
0000
0000
0000
0000
0000
0000
0000
0FF0
0FF0
0C00
0C00
0C00
0C00
0C00
0C00
0C00
0C00
0C00
0C00
ENDCHAR

STARTCHAR block
ENCODING 219
SWIDTH 666 0
DWIDTH 12 0
BBX 12 20 0 -4
BITMAP
FFF0
FFF0
FFF0
FFF0
FFF0
FFF0
FFF0
FFF0
FFF0
FFF0
FFF0
FFF0
FFF0
FFF0
FFF0
FFF0
FFF0
FFF0
FFF0
FFF0
ENDCHAR

STARTCHAR bottom_block
ENCODING 220
SWIDTH 666 0
DWIDTH 12 0
BBX 12 20 0 -4
BITMAP
0000
0000
0000
0000
0000
0000
0000
0000
0000
0000
FFF0
FFF0
FFF0
FFF0
FFF0
FFF0
FFF0
FFF0
FFF0
FFF0
ENDCHAR

STARTCHAR left_block
ENCODING 221
SWIDTH 666 0
DWIDTH 12 0
BBX 12 20 0 -4
BITMAP
FC00
FC00
FC00
FC00
FC00
FC00
FC00
FC00
FC00
FC00
FC00
FC00
FC00
FC00
FC00
FC00
FC00
FC00
FC00
FC00
ENDCHAR

STARTCHAR left_block
ENCODING 222
SWIDTH 666 0
DWIDTH 12 0
BBX 12 20 0 -4
BITMAP
03F0
03F0
03F0
03F0
03F0
03F0
03F0
03F0
03F0
03F0
03F0
03F0
03F0
03F0
03F0
03F0
03F0
03F0
03F0
03F0
ENDCHAR

STARTCHAR top_block
ENCODING 223
SWIDTH 666 0
DWIDTH 12 0
BBX 12 20 0 -4
BITMAP
FFF0
FFF0
FFF0
FFF0
FFF0
FFF0
FFF0
FFF0
FFF0
FFF0
0000
0000
0000
0000
0000
0000
0000
0000
0000
0000
ENDCHAR

STARTCHAR alpha
ENCODING 224
SWIDTH 666 0
DWIDTH 12 0
BBX 12 20 0 -4
BITMAP
0000
0000
0000
0000
0000
0000
39C0
6F00
C600
C600
C600
C600
C600
C600
6F00
39C0
0000
0000
0000
0000
ENDCHAR

STARTCHAR beta
ENCODING 225
SWIDTH 666 0
DWIDTH 12 0
BBX 12 20 0 -4
BITMAP
0000
0000
0000
3E00
6300
C180
C180
C180
C300
C700
C180
C0C0
C0C0
C0C0
D0C0
CF80
C000
C000
0000
0000
ENDCHAR

STARTCHAR GAMMA
ENCODING 226
SWIDTH 666 0
DWIDTH 12 0
BBX 12 20 0 -4
BITMAP
0000
0000
FFC0
C0C0
C0C0
C0C0
C000
C000
C000
C000
C000
C000
C000
C000
C000
C000
0000
0000
0000
0000
ENDCHAR

STARTCHAR pi
ENCODING 227
SWIDTH 666 0
DWIDTH 12 0
BBX 12 20 0 -4
BITMAP
0000
0000
0000
0000
0000
0040
7FC0
FF80
B300
3300
3300
3300
3300
3300
3300
3300
0000
0000
0000
0000
ENDCHAR

STARTCHAR SIGMA
ENCODING 228
SWIDTH 666 0
DWIDTH 12 0
BBX 12 20 0 -4
BITMAP
0000
FFC0
C0C0
C0C0
60C0
3000
1800
0C00
0600
0C00
1800
3000
60C0
C0C0
C0C0
FFC0
0000
0000
0000
0000
ENDCHAR

STARTCHAR sigma
ENCODING 229
SWIDTH 666 0
DWIDTH 12 0
BBX 12 20 0 -4
BITMAP
0000
0000
0000
0000
0000
0000
7FC0
C600
C600
C600
C600
C600
C600
C600
C600
7C00
0000
0000
0000
0000
ENDCHAR

STARTCHAR mu
ENCODING 230
SWIDTH 666 0
DWIDTH 12 0
BBX 12 20 0 -4
BITMAP
0000
0000
0000
0000
0000
0000
6300
6300
6300
6300
6300
6300
6300
6300
7F80
60C0
6000
C000
0000
0000
ENDCHAR

STARTCHAR gamma
ENCODING 231
SWIDTH 666 0
DWIDTH 12 0
BBX 12 20 0 -4
BITMAP
0000
0000
0000
0000
0000
0040
7FC0
FF80
8C00
0C00
0C00
0C00
0C00
0C00
0C00
0C00
0000
0000
0000
0000
ENDCHAR

STARTCHAR PHI
ENCODING 232
SWIDTH 666 0
DWIDTH 12 0
BBX 12 20 0 -4
BITMAP
0000
0000
FFC0
0C00
0C00
0C00
7F80
C0C0
C0C0
C0C0
C0C0
C0C0
C0C0
7F80
0C00
0C00
0C00
FFC0
0000
0000
ENDCHAR

STARTCHAR THETA
ENCODING 233
SWIDTH 666 0
DWIDTH 12 0
BBX 12 20 0 -4
BITMAP
0000
0000
1E00
3300
6180
C0C0
C0C0
C0C0
FFC0
FFC0
C0C0
C0C0
C0C0
6180
3300
1E00
0000
0000
0000
0000
ENDCHAR

STARTCHAR OMEGA
ENCODING 234
SWIDTH 666 0
DWIDTH 12 0
BBX 12 20 0 -4
BITMAP
0000
0000
0C00
1E00
3300
6180
C0C0
C0C0
C0C0
C0C0
6180
3300
3300
3300
B340
F3C0
0000
0000
0000
0000
ENDCHAR

STARTCHAR delta
ENCODING 235
SWIDTH 666 0
DWIDTH 12 0
BBX 12 20 0 -4
BITMAP
0000
0000
0F80
18C0
1840
0C00
0600
0300
3F80
60C0
60C0
60C0
60C0
60C0
60C0
3F80
0000
0000
0000
0000
ENDCHAR

STARTCHAR infinity
ENCODING 236
SWIDTH 666 0
DWIDTH 12 0
BBX 12 20 0 -4
BITMAP
0000
0000
0000
0000
0000
0000
7B80
FFC0
CCC0
CCC0
CCC0
CCC0
FFC0
7B80
0000
0000
0000
0000
0000
0000
ENDCHAR

STARTCHAR phi
ENCODING 237
SWIDTH 666 0
DWIDTH 12 0
BBX 12 20 0 -4
BITMAP
0000
0000
0000
0000
0180
0300
7F80
C6C0
C6C0
CCC0
CCC0
D8C0
D8C0
7F80
3000
6000
0000
0000
0000
0000
ENDCHAR

STARTCHAR element_of
ENCODING 238
SWIDTH 666 0
DWIDTH 12 0
BBX 12 20 0 -4
BITMAP
0000
0000
1FC0
3000
6000
C000
C000
C000
FFC0
FFC0
C000
C000
C000
6000
3000
1FC0
0000
0000
0000
0000
ENDCHAR

STARTCHAR intersect
ENCODING 239
SWIDTH 666 0
DWIDTH 12 0
BBX 12 20 0 -4
BITMAP
0000
0000
1E00
3300
6180
C0C0
C0C0
C0C0
C0C0
C0C0
C0C0
C0C0
C0C0
C0C0
C0C0
C0C0
0000
0000
0000
0000
ENDCHAR

STARTCHAR equivalent_to
ENCODING 240
SWIDTH 666 0
DWIDTH 12 0
BBX 12 20 0 -4
BITMAP
0000
0000
0000
0000
FFC0
FFC0
0000
0000
FFC0
FFC0
0000
0000
FFC0
FFC0
0000
0000
0000
0000
0000
0000
ENDCHAR

STARTCHAR +/-
ENCODING 241
SWIDTH 666 0
DWIDTH 12 0
BBX 12 20 0 -4
BITMAP
0000
0000
0C00
0C00
0C00
0C00
FFC0
FFC0
0C00
0C00
0C00
0C00
0000
0000
FFC0
FFC0
0000
0000
0000
0000
ENDCHAR

STARTCHAR >=
ENCODING 242
SWIDTH 666 0
DWIDTH 12 0
BBX 12 20 0 -4
BITMAP
0000
0000
6000
7800
1E00
0780
01C0
0780
1E00
7800
6000
0000
0000
7FC0
7FC0
0000
0000
0000
0000
0000
ENDCHAR

STARTCHAR <=
ENCODING 243
SWIDTH 666 0
DWIDTH 12 0
BBX 12 20 0 -4
BITMAP
0000
0000
00C0
03C0
0F00
3C00
7000
3C00
0F00
03C0
00C0
0000
0000
7FC0
7FC0
0000
0000
0000
0000
0000
ENDCHAR

STARTCHAR integral-1
ENCODING 244
SWIDTH 666 0
DWIDTH 12 0
BBX 12 20 0 -4
BITMAP
0000
0000
0780
0CC0
0CC0
0C00
0C00
0C00
0C00
0C00
0C00
0C00
0C00
0C00
0C00
0C00
0C00
0C00
0C00
0C00
ENDCHAR

STARTCHAR integral-2
ENCODING 245
SWIDTH 666 0
DWIDTH 12 0
BBX 12 20 0 -4
BITMAP
0C00
0C00
0C00
0C00
0C00
0C00
0C00
0C00
0C00
0C00
0C00
0C00
0C00
CC00
CC00
7800
0000
0000
0000
0000
ENDCHAR

STARTCHAR divide
ENCODING 246
SWIDTH 666 0
DWIDTH 12 0
BBX 12 20 0 -4
BITMAP
0000
0000
0000
0E00
0E00
0E00
0000
0000
7FC0
7FC0
0000
0000
0E00
0E00
0E00
0000
0000
0000
0000
0000
ENDCHAR

STARTCHAR similar_to
ENCODING 247
SWIDTH 666 0
DWIDTH 12 0
BBX 12 20 0 -4
BITMAP
0000
0000
0000
0000
3800
7C40
47C0
0380
0000
3800
7C40
47C0
0380
0000
0000
0000
0000
0000
0000
0000
ENDCHAR

STARTCHAR degrees
ENCODING 248
SWIDTH 666 0
DWIDTH 12 0
BBX 12 20 0 -4
BITMAP
0000
0000
1E00
3300
3300
3300
3300
1E00
0000
0000
0000
0000
0000
0000
0000
0000
0000
0000
0000
0000
ENDCHAR

STARTCHAR bullet
ENCODING 249
SWIDTH 666 0
DWIDTH 12 0
BBX 12 20 0 -4
BITMAP
0000
0000
0000
0000
0000
0000
1C00
3E00
3E00
3E00
1C00
0000
0000
0000
0000
0000
0000
0000
0000
0000
ENDCHAR

STARTCHAR dot
ENCODING 250
SWIDTH 666 0
DWIDTH 12 0
BBX 12 20 0 -4
BITMAP
0000
0000
0000
0000
0000
0000
0000
0C00
1E00
1E00
0C00
0000
0000
0000
0000
0000
0000
0000
0000
0000
ENDCHAR

STARTCHAR square_root
ENCODING 251
SWIDTH 666 0
DWIDTH 12 0
BBX 12 20 0 -4
BITMAP
0000
0000
0FC0
0C00
0C00
0C00
0C00
0C00
0C00
0C00
0C00
CC00
6C00
3C00
1C00
0C00
0000
0000
0000
0000
ENDCHAR

STARTCHAR n-super
ENCODING 252
SWIDTH 666 0
DWIDTH 12 0
BBX 12 20 0 -4
BITMAP
0000
0000
6E00
7300
6300
6300
6300
6300
6300
6300
0000
0000
0000
0000
0000
0000
0000
0000
0000
0000
ENDCHAR

STARTCHAR 2-super
ENCODING 253
SWIDTH 666 0
DWIDTH 12 0
BBX 12 20 0 -4
BITMAP
0000
0000
3C00
6600
4600
0C00
1800
3000
6000
7E00
0000
0000
0000
0000
0000
0000
0000
0000
0000
0000
ENDCHAR

STARTCHAR middle_block
ENCODING 254
SWIDTH 666 0
DWIDTH 12 0
BBX 12 20 0 -4
BITMAP
0000
0000
0000
0000
0000
1F80
1F80
1F80
1F80
1F80
1F80
1F80
1F80
0000
0000
0000
0000
0000
0000
0000
ENDCHAR

STARTCHAR null2
ENCODING 255
SWIDTH 666 0
DWIDTH 12 0
BBX 12 20 0 -4
BITMAP
0000
0000
0000
0000
0000
0000
0000
0000
0000
0000
0000
0000
0000
0000
0000
0000
0000
0000
0000
0000
ENDCHAR

ENDFONT
