STARTFONT 2.1
FONT -HP-Sung-Medium-R-Normal--24-240-75-75-C-240-CNS11643.1992-12
SIZE 24 75 75
FONTBOUNDINGBOX 24 24 0 -2

STARTPROPERTIES 23
FONTNAME_REGISTRY ""
FOUNDRY "HP"
FAMILY_NAME "Sung"
WEIGHT_NAME "Medium"
SLANT "R"
SETWIDTH_NAME "Normal"
ADD_STYLE_NAME ""
PIXEL_SIZE 24
POINT_SIZE 240
RESOLUTION_X 75
RESOLUTION_Y 75
SPACING "C"
AVERAGE_WIDTH 240
CHARSET_REGISTRY "CNS11643.1992"
CHARSET_ENCODING "12"
COPYRIGHT "Copyright (c) 1994 Hewlett-Packard Company."
_HP_ASXVERSION "@(#) ASX 3.00 $Revision: 13.9 $ sung24n12"
WEIGHT 10
X_HEIGHT 22
QUAD_WIDTH 24
DEFAULT_CHAR 32382
FONT_DESCENT 2
FONT_ASCENT 22
ENDPROPERTIES

CHARS 1

STARTCHAR cns12_7E7E
ENCODING 32382
SWIDTH 960 0
DWIDTH 24 0
BBX 24 24 0 -2
BITMAP
000000
000000
200004
000000
000000
000000
000000
000000
000000
000000
000000
000000
000000
000000
000000
000000
000000
000000
000000
000000
000000
200004
000000
000000
ENDCHAR

ENDFONT
