STARTFONT 2.1
FONT -Sun-Screen-Bold-R-Normal--12-120-72-72-M-80-ISO8859-1
SIZE 12 72 72
FONTBOUNDINGBOX 8 14 0 -4

STARTPROPERTIES 21
FONTNAME_REGISTRY ""
FOUNDRY "Sun"
FAMILY_NAME "Screen"
WEIGHT_NAME "Bold"
SLANT "R"
SETWIDTH_NAME "Normal"
ADD_STYLE_NAME ""
PIXEL_SIZE 12
POINT_SIZE 120
RESOLUTION_X 72
RESOLUTION_Y 72
SPACING "M"
AVERAGE_WIDTH 80
CHARSET_REGISTRY "ISO8859"
CHARSET_ENCODING "1"
WEIGHT 10
X_HEIGHT -1
QUAD_WIDTH 8
DEFAULT_CHAR 32
FONT_DESCENT 4
FONT_ASCENT 10
ENDPROPERTIES

CHARS 191

STARTCHAR <unknown>
ENCODING 32
SWIDTH 42 0
DWIDTH 8 0
BBX 8 14 0 -4
BITMAP
00
00
00
00
00
00
00
00
00
00
00
00
00
00
ENDCHAR

STARTCHAR <unknown>
ENCODING 33
SWIDTH 42 0
DWIDTH 8 0
BBX 8 14 0 -4
BITMAP
00
18
18
18
18
18
18
18
00
18
18
00
00
00
ENDCHAR

STARTCHAR <unknown>
ENCODING 34
SWIDTH 42 0
DWIDTH 8 0
BBX 8 14 0 -4
BITMAP
00
6C
6C
6C
6C
00
00
00
00
00
00
00
00
00
ENDCHAR

STARTCHAR <unknown>
ENCODING 35
SWIDTH 42 0
DWIDTH 8 0
BBX 8 14 0 -4
BITMAP
00
1B
1B
1B
7F
36
36
FF
6C
6C
6C
00
00
00
ENDCHAR

STARTCHAR <unknown>
ENCODING 36
SWIDTH 42 0
DWIDTH 8 0
BBX 8 14 0 -4
BITMAP
00
18
3C
5A
5A
58
3C
1A
5A
5A
3C
18
00
00
ENDCHAR

STARTCHAR <unknown>
ENCODING 37
SWIDTH 42 0
DWIDTH 8 0
BBX 8 14 0 -4
BITMAP
00
76
96
9C
EC
18
18
37
39
69
6E
00
00
00
ENDCHAR

STARTCHAR <unknown>
ENCODING 38
SWIDTH 42 0
DWIDTH 8 0
BBX 8 14 0 -4
BITMAP
00
38
6C
6C
38
30
7B
DE
CC
DC
77
00
00
00
ENDCHAR

STARTCHAR <unknown>
ENCODING 39
SWIDTH 42 0
DWIDTH 8 0
BBX 8 14 0 -4
BITMAP
00
0C
0C
18
30
00
00
00
00
00
00
00
00
00
ENDCHAR

STARTCHAR <unknown>
ENCODING 40
SWIDTH 42 0
DWIDTH 8 0
BBX 8 14 0 -4
BITMAP
00
0C
18
18
30
30
30
30
30
18
18
0C
00
00
ENDCHAR

STARTCHAR <unknown>
ENCODING 41
SWIDTH 42 0
DWIDTH 8 0
BBX 8 14 0 -4
BITMAP
00
30
18
18
0C
0C
0C
0C
0C
18
18
30
00
00
ENDCHAR

STARTCHAR <unknown>
ENCODING 42
SWIDTH 42 0
DWIDTH 8 0
BBX 8 14 0 -4
BITMAP
00
00
18
5A
7E
3C
7E
5A
18
00
00
00
00
00
ENDCHAR

STARTCHAR <unknown>
ENCODING 43
SWIDTH 42 0
DWIDTH 8 0
BBX 8 14 0 -4
BITMAP
00
00
00
00
18
18
7E
7E
18
18
00
00
00
00
ENDCHAR

STARTCHAR <unknown>
ENCODING 44
SWIDTH 42 0
DWIDTH 8 0
BBX 8 14 0 -4
BITMAP
00
00
00
00
00
00
00
00
00
18
18
08
30
00
ENDCHAR

STARTCHAR <unknown>
ENCODING 45
SWIDTH 42 0
DWIDTH 8 0
BBX 8 14 0 -4
BITMAP
00
00
00
00
00
00
7E
7E
00
00
00
00
00
00
ENDCHAR

STARTCHAR <unknown>
ENCODING 46
SWIDTH 42 0
DWIDTH 8 0
BBX 8 14 0 -4
BITMAP
00
00
00
00
00
00
00
00
00
18
18
00
00
00
ENDCHAR

STARTCHAR <unknown>
ENCODING 47
SWIDTH 42 0
DWIDTH 8 0
BBX 8 14 0 -4
BITMAP
00
06
06
0C
0C
18
18
30
30
60
60
00
00
00
ENDCHAR

STARTCHAR <unknown>
ENCODING 48
SWIDTH 42 0
DWIDTH 8 0
BBX 8 14 0 -4
BITMAP
00
00
18
24
66
66
66
66
66
24
18
00
00
00
ENDCHAR

STARTCHAR <unknown>
ENCODING 49
SWIDTH 42 0
DWIDTH 8 0
BBX 8 14 0 -4
BITMAP
00
00
18
38
78
18
18
18
18
18
7E
00
00
00
ENDCHAR

STARTCHAR <unknown>
ENCODING 50
SWIDTH 42 0
DWIDTH 8 0
BBX 8 14 0 -4
BITMAP
00
00
3C
66
06
06
0C
18
30
62
7E
00
00
00
ENDCHAR

STARTCHAR <unknown>
ENCODING 51
SWIDTH 42 0
DWIDTH 8 0
BBX 8 14 0 -4
BITMAP
00
00
3C
66
46
06
1C
06
46
66
3C
00
00
00
ENDCHAR

STARTCHAR <unknown>
ENCODING 52
SWIDTH 42 0
DWIDTH 8 0
BBX 8 14 0 -4
BITMAP
00
00
06
0E
1E
36
66
C6
FF
06
06
00
00
00
ENDCHAR

STARTCHAR <unknown>
ENCODING 53
SWIDTH 42 0
DWIDTH 8 0
BBX 8 14 0 -4
BITMAP
00
00
7E
60
60
7C
06
06
66
66
3C
00
00
00
ENDCHAR

STARTCHAR <unknown>
ENCODING 54
SWIDTH 42 0
DWIDTH 8 0
BBX 8 14 0 -4
BITMAP
00
00
3C
66
60
60
7C
66
66
66
3C
00
00
00
ENDCHAR

STARTCHAR <unknown>
ENCODING 55
SWIDTH 42 0
DWIDTH 8 0
BBX 8 14 0 -4
BITMAP
00
00
7E
46
06
04
0C
0C
18
18
18
00
00
00
ENDCHAR

STARTCHAR <unknown>
ENCODING 56
SWIDTH 42 0
DWIDTH 8 0
BBX 8 14 0 -4
BITMAP
00
00
3C
66
66
66
3C
66
66
66
3C
00
00
00
ENDCHAR

STARTCHAR <unknown>
ENCODING 57
SWIDTH 42 0
DWIDTH 8 0
BBX 8 14 0 -4
BITMAP
00
00
3C
66
66
66
3E
06
06
66
3C
00
00
00
ENDCHAR

STARTCHAR <unknown>
ENCODING 58
SWIDTH 42 0
DWIDTH 8 0
BBX 8 14 0 -4
BITMAP
00
00
00
00
18
18
00
00
00
18
18
00
00
00
ENDCHAR

STARTCHAR <unknown>
ENCODING 59
SWIDTH 42 0
DWIDTH 8 0
BBX 8 14 0 -4
BITMAP
00
00
00
00
18
18
00
00
00
18
18
08
30
00
ENDCHAR

STARTCHAR <unknown>
ENCODING 60
SWIDTH 42 0
DWIDTH 8 0
BBX 8 14 0 -4
BITMAP
00
02
06
0C
18
30
60
30
18
0C
06
02
00
00
ENDCHAR

STARTCHAR <unknown>
ENCODING 61
SWIDTH 42 0
DWIDTH 8 0
BBX 8 14 0 -4
BITMAP
00
00
00
00
7E
7E
00
00
7E
7E
00
00
00
00
ENDCHAR

STARTCHAR <unknown>
ENCODING 62
SWIDTH 42 0
DWIDTH 8 0
BBX 8 14 0 -4
BITMAP
00
40
60
30
18
0C
06
0C
18
30
60
40
00
00
ENDCHAR

STARTCHAR <unknown>
ENCODING 63
SWIDTH 42 0
DWIDTH 8 0
BBX 8 14 0 -4
BITMAP
00
3C
66
62
06
0C
18
18
00
18
18
00
00
00
ENDCHAR

STARTCHAR <unknown>
ENCODING 64
SWIDTH 42 0
DWIDTH 8 0
BBX 8 14 0 -4
BITMAP
00
18
3C
66
6E
6A
6A
6E
60
36
1C
00
00
00
ENDCHAR

STARTCHAR <unknown>
ENCODING 65
SWIDTH 42 0
DWIDTH 8 0
BBX 8 14 0 -4
BITMAP
00
00
10
38
38
6C
6C
C6
FE
C6
C6
00
00
00
ENDCHAR

STARTCHAR <unknown>
ENCODING 66
SWIDTH 42 0
DWIDTH 8 0
BBX 8 14 0 -4
BITMAP
00
00
78
6C
6C
6C
7E
66
66
66
7C
00
00
00
ENDCHAR

STARTCHAR <unknown>
ENCODING 67
SWIDTH 42 0
DWIDTH 8 0
BBX 8 14 0 -4
BITMAP
00
00
3C
66
62
60
60
60
62
66
3C
00
00
00
ENDCHAR

STARTCHAR <unknown>
ENCODING 68
SWIDTH 42 0
DWIDTH 8 0
BBX 8 14 0 -4
BITMAP
00
00
78
6C
66
66
66
66
66
6C
78
00
00
00
ENDCHAR

STARTCHAR <unknown>
ENCODING 69
SWIDTH 42 0
DWIDTH 8 0
BBX 8 14 0 -4
BITMAP
00
00
7E
60
60
60
7C
60
60
60
7E
00
00
00
ENDCHAR

STARTCHAR <unknown>
ENCODING 70
SWIDTH 42 0
DWIDTH 8 0
BBX 8 14 0 -4
BITMAP
00
00
7E
60
60
60
7C
60
60
60
60
00
00
00
ENDCHAR

STARTCHAR <unknown>
ENCODING 71
SWIDTH 42 0
DWIDTH 8 0
BBX 8 14 0 -4
BITMAP
00
00
3C
66
62
60
6E
66
66
66
3A
00
00
00
ENDCHAR

STARTCHAR <unknown>
ENCODING 72
SWIDTH 42 0
DWIDTH 8 0
BBX 8 14 0 -4
BITMAP
00
00
66
66
66
66
7E
66
66
66
66
00
00
00
ENDCHAR

STARTCHAR <unknown>
ENCODING 73
SWIDTH 42 0
DWIDTH 8 0
BBX 8 14 0 -4
BITMAP
00
00
7E
18
18
18
18
18
18
18
7E
00
00
00
ENDCHAR

STARTCHAR <unknown>
ENCODING 74
SWIDTH 42 0
DWIDTH 8 0
BBX 8 14 0 -4
BITMAP
00
00
3E
0C
0C
0C
0C
0C
6C
6C
38
00
00
00
ENDCHAR

STARTCHAR <unknown>
ENCODING 75
SWIDTH 42 0
DWIDTH 8 0
BBX 8 14 0 -4
BITMAP
00
00
62
66
6C
78
78
6C
6C
66
66
00
00
00
ENDCHAR

STARTCHAR <unknown>
ENCODING 76
SWIDTH 42 0
DWIDTH 8 0
BBX 8 14 0 -4
BITMAP
00
00
60
60
60
60
60
60
60
60
7E
00
00
00
ENDCHAR

STARTCHAR <unknown>
ENCODING 77
SWIDTH 42 0
DWIDTH 8 0
BBX 8 14 0 -4
BITMAP
00
00
C6
C6
EE
EE
FE
D6
D6
C6
C6
00
00
00
ENDCHAR

STARTCHAR <unknown>
ENCODING 78
SWIDTH 42 0
DWIDTH 8 0
BBX 8 14 0 -4
BITMAP
00
00
66
66
76
76
7E
6E
6E
66
66
00
00
00
ENDCHAR

STARTCHAR <unknown>
ENCODING 79
SWIDTH 42 0
DWIDTH 8 0
BBX 8 14 0 -4
BITMAP
00
00
3C
66
66
66
66
66
66
66
3C
00
00
00
ENDCHAR

STARTCHAR <unknown>
ENCODING 80
SWIDTH 42 0
DWIDTH 8 0
BBX 8 14 0 -4
BITMAP
00
00
7C
66
66
66
7C
60
60
60
60
00
00
00
ENDCHAR

STARTCHAR <unknown>
ENCODING 81
SWIDTH 42 0
DWIDTH 8 0
BBX 8 14 0 -4
BITMAP
00
00
3C
66
66
66
66
66
66
66
3C
18
0E
00
ENDCHAR

STARTCHAR <unknown>
ENCODING 82
SWIDTH 42 0
DWIDTH 8 0
BBX 8 14 0 -4
BITMAP
00
00
7C
66
66
66
7C
6C
66
66
66
00
00
00
ENDCHAR

STARTCHAR <unknown>
ENCODING 83
SWIDTH 42 0
DWIDTH 8 0
BBX 8 14 0 -4
BITMAP
00
00
3C
66
60
30
0C
06
66
66
3C
00
00
00
ENDCHAR

STARTCHAR <unknown>
ENCODING 84
SWIDTH 42 0
DWIDTH 8 0
BBX 8 14 0 -4
BITMAP
00
00
7E
18
18
18
18
18
18
18
18
00
00
00
ENDCHAR

STARTCHAR <unknown>
ENCODING 85
SWIDTH 42 0
DWIDTH 8 0
BBX 8 14 0 -4
BITMAP
00
00
66
66
66
66
66
66
66
66
3C
00
00
00
ENDCHAR

STARTCHAR <unknown>
ENCODING 86
SWIDTH 42 0
DWIDTH 8 0
BBX 8 14 0 -4
BITMAP
00
00
66
66
66
24
3C
3C
18
18
18
00
00
00
ENDCHAR

STARTCHAR <unknown>
ENCODING 87
SWIDTH 42 0
DWIDTH 8 0
BBX 8 14 0 -4
BITMAP
00
00
C3
C3
DB
5A
7E
7E
66
24
24
00
00
00
ENDCHAR

STARTCHAR <unknown>
ENCODING 88
SWIDTH 42 0
DWIDTH 8 0
BBX 8 14 0 -4
BITMAP
00
00
66
66
66
3C
18
3C
66
66
66
00
00
00
ENDCHAR

STARTCHAR <unknown>
ENCODING 89
SWIDTH 42 0
DWIDTH 8 0
BBX 8 14 0 -4
BITMAP
00
00
66
66
66
3C
18
18
18
18
18
00
00
00
ENDCHAR

STARTCHAR <unknown>
ENCODING 90
SWIDTH 42 0
DWIDTH 8 0
BBX 8 14 0 -4
BITMAP
00
00
7E
06
06
0C
18
30
60
60
7E
00
00
00
ENDCHAR

STARTCHAR <unknown>
ENCODING 91
SWIDTH 42 0
DWIDTH 8 0
BBX 8 14 0 -4
BITMAP
00
3E
30
30
30
30
30
30
30
30
30
3E
00
00
ENDCHAR

STARTCHAR <unknown>
ENCODING 92
SWIDTH 42 0
DWIDTH 8 0
BBX 8 14 0 -4
BITMAP
00
60
60
30
30
18
18
0C
0C
06
06
00
00
00
ENDCHAR

STARTCHAR <unknown>
ENCODING 93
SWIDTH 42 0
DWIDTH 8 0
BBX 8 14 0 -4
BITMAP
00
7C
0C
0C
0C
0C
0C
0C
0C
0C
0C
7C
00
00
ENDCHAR

STARTCHAR <unknown>
ENCODING 94
SWIDTH 42 0
DWIDTH 8 0
BBX 8 14 0 -4
BITMAP
00
00
18
3C
66
42
00
00
00
00
00
00
00
00
ENDCHAR

STARTCHAR <unknown>
ENCODING 95
SWIDTH 42 0
DWIDTH 8 0
BBX 8 14 0 -4
BITMAP
00
00
00
00
00
00
00
00
00
00
00
FE
FE
00
ENDCHAR

STARTCHAR <unknown>
ENCODING 96
SWIDTH 42 0
DWIDTH 8 0
BBX 8 14 0 -4
BITMAP
00
30
30
18
0C
00
00
00
00
00
00
00
00
00
ENDCHAR

STARTCHAR <unknown>
ENCODING 97
SWIDTH 42 0
DWIDTH 8 0
BBX 8 14 0 -4
BITMAP
00
00
00
00
3C
66
06
3E
66
66
3E
00
00
00
ENDCHAR

STARTCHAR <unknown>
ENCODING 98
SWIDTH 42 0
DWIDTH 8 0
BBX 8 14 0 -4
BITMAP
00
00
60
60
6C
76
66
66
66
76
6C
00
00
00
ENDCHAR

STARTCHAR <unknown>
ENCODING 99
SWIDTH 42 0
DWIDTH 8 0
BBX 8 14 0 -4
BITMAP
00
00
00
00
3C
66
60
60
60
66
3C
00
00
00
ENDCHAR

STARTCHAR <unknown>
ENCODING 100
SWIDTH 42 0
DWIDTH 8 0
BBX 8 14 0 -4
BITMAP
00
00
06
06
36
6E
66
66
66
6E
36
00
00
00
ENDCHAR

STARTCHAR <unknown>
ENCODING 101
SWIDTH 42 0
DWIDTH 8 0
BBX 8 14 0 -4
BITMAP
00
00
00
00
3C
66
66
7E
60
66
3C
00
00
00
ENDCHAR

STARTCHAR <unknown>
ENCODING 102
SWIDTH 42 0
DWIDTH 8 0
BBX 8 14 0 -4
BITMAP
00
00
0E
18
18
7E
18
18
18
18
18
00
00
00
ENDCHAR

STARTCHAR <unknown>
ENCODING 103
SWIDTH 42 0
DWIDTH 8 0
BBX 8 14 0 -4
BITMAP
00
00
00
00
36
6E
66
66
66
6E
36
06
66
3C
ENDCHAR

STARTCHAR <unknown>
ENCODING 104
SWIDTH 42 0
DWIDTH 8 0
BBX 8 14 0 -4
BITMAP
00
00
60
60
6C
76
66
66
66
66
66
00
00
00
ENDCHAR

STARTCHAR <unknown>
ENCODING 105
SWIDTH 42 0
DWIDTH 8 0
BBX 8 14 0 -4
BITMAP
00
00
18
00
78
18
18
18
18
18
18
00
00
00
ENDCHAR

STARTCHAR <unknown>
ENCODING 106
SWIDTH 42 0
DWIDTH 8 0
BBX 8 14 0 -4
BITMAP
00
00
0C
00
3C
0C
0C
0C
0C
0C
0C
0C
6C
38
ENDCHAR

STARTCHAR <unknown>
ENCODING 107
SWIDTH 42 0
DWIDTH 8 0
BBX 8 14 0 -4
BITMAP
00
00
60
60
66
6C
78
78
6C
66
66
00
00
00
ENDCHAR

STARTCHAR <unknown>
ENCODING 108
SWIDTH 42 0
DWIDTH 8 0
BBX 8 14 0 -4
BITMAP
00
00
3C
0C
0C
0C
0C
0C
0C
0C
0C
00
00
00
ENDCHAR

STARTCHAR <unknown>
ENCODING 109
SWIDTH 42 0
DWIDTH 8 0
BBX 8 14 0 -4
BITMAP
00
00
00
00
EC
FE
D6
D6
D6
D6
D6
00
00
00
ENDCHAR

STARTCHAR <unknown>
ENCODING 110
SWIDTH 42 0
DWIDTH 8 0
BBX 8 14 0 -4
BITMAP
00
00
00
00
5C
76
66
66
66
66
66
00
00
00
ENDCHAR

STARTCHAR <unknown>
ENCODING 111
SWIDTH 42 0
DWIDTH 8 0
BBX 8 14 0 -4
BITMAP
00
00
00
00
3C
66
66
66
66
66
3C
00
00
00
ENDCHAR

STARTCHAR <unknown>
ENCODING 112
SWIDTH 42 0
DWIDTH 8 0
BBX 8 14 0 -4
BITMAP
00
00
00
00
6C
76
66
66
66
76
6C
60
60
60
ENDCHAR

STARTCHAR <unknown>
ENCODING 113
SWIDTH 42 0
DWIDTH 8 0
BBX 8 14 0 -4
BITMAP
00
00
00
00
36
6E
66
66
66
6E
36
06
06
06
ENDCHAR

STARTCHAR <unknown>
ENCODING 114
SWIDTH 42 0
DWIDTH 8 0
BBX 8 14 0 -4
BITMAP
00
00
00
00
6C
76
60
60
60
60
60
00
00
00
ENDCHAR

STARTCHAR <unknown>
ENCODING 115
SWIDTH 42 0
DWIDTH 8 0
BBX 8 14 0 -4
BITMAP
00
00
00
00
3C
66
60
3C
06
66
3C
00
00
00
ENDCHAR

STARTCHAR <unknown>
ENCODING 116
SWIDTH 42 0
DWIDTH 8 0
BBX 8 14 0 -4
BITMAP
00
00
18
18
7E
18
18
18
18
1A
0C
00
00
00
ENDCHAR

STARTCHAR <unknown>
ENCODING 117
SWIDTH 42 0
DWIDTH 8 0
BBX 8 14 0 -4
BITMAP
00
00
00
00
66
66
66
66
66
6E
36
00
00
00
ENDCHAR

STARTCHAR <unknown>
ENCODING 118
SWIDTH 42 0
DWIDTH 8 0
BBX 8 14 0 -4
BITMAP
00
00
00
00
66
66
66
3C
3C
18
18
00
00
00
ENDCHAR

STARTCHAR <unknown>
ENCODING 119
SWIDTH 42 0
DWIDTH 8 0
BBX 8 14 0 -4
BITMAP
00
00
00
00
C6
C6
D6
D6
D6
FE
6C
00
00
00
ENDCHAR

STARTCHAR <unknown>
ENCODING 120
SWIDTH 42 0
DWIDTH 8 0
BBX 8 14 0 -4
BITMAP
00
00
00
00
66
66
3C
18
3C
66
66
00
00
00
ENDCHAR

STARTCHAR <unknown>
ENCODING 121
SWIDTH 42 0
DWIDTH 8 0
BBX 8 14 0 -4
BITMAP
00
00
00
00
66
66
36
36
1C
1C
0C
08
78
30
ENDCHAR

STARTCHAR <unknown>
ENCODING 122
SWIDTH 42 0
DWIDTH 8 0
BBX 8 14 0 -4
BITMAP
00
00
00
00
7E
06
0C
18
30
60
7E
00
00
00
ENDCHAR

STARTCHAR <unknown>
ENCODING 123
SWIDTH 42 0
DWIDTH 8 0
BBX 8 14 0 -4
BITMAP
0E
18
18
18
18
18
70
18
18
18
18
18
0E
00
ENDCHAR

STARTCHAR <unknown>
ENCODING 124
SWIDTH 42 0
DWIDTH 8 0
BBX 8 14 0 -4
BITMAP
18
18
18
18
18
18
00
18
18
18
18
18
18
00
ENDCHAR

STARTCHAR <unknown>
ENCODING 125
SWIDTH 42 0
DWIDTH 8 0
BBX 8 14 0 -4
BITMAP
70
18
18
18
18
18
0E
18
18
18
18
18
70
00
ENDCHAR

STARTCHAR <unknown>
ENCODING 126
SWIDTH 42 0
DWIDTH 8 0
BBX 8 14 0 -4
BITMAP
00
00
32
7E
4C
00
00
00
00
00
00
00
00
00
ENDCHAR

STARTCHAR <unknown>
ENCODING 160
SWIDTH 42 0
DWIDTH 8 0
BBX 8 14 0 -4
BITMAP
00
00
00
00
00
00
00
00
00
00
00
00
00
00
ENDCHAR

STARTCHAR <unknown>
ENCODING 161
SWIDTH 42 0
DWIDTH 8 0
BBX 8 14 0 -4
BITMAP
00
00
18
00
00
18
18
18
18
18
18
00
00
00
ENDCHAR

STARTCHAR <unknown>
ENCODING 162
SWIDTH 42 0
DWIDTH 8 0
BBX 8 14 0 -4
BITMAP
00
00
00
08
3E
6B
68
68
68
6B
3E
08
00
00
ENDCHAR

STARTCHAR <unknown>
ENCODING 163
SWIDTH 42 0
DWIDTH 8 0
BBX 8 14 0 -4
BITMAP
00
00
1C
36
30
30
78
30
30
30
3B
6E
00
00
ENDCHAR

STARTCHAR <unknown>
ENCODING 164
SWIDTH 42 0
DWIDTH 8 0
BBX 8 14 0 -4
BITMAP
00
00
00
42
3C
2C
34
3C
42
00
00
00
00
00
ENDCHAR

STARTCHAR <unknown>
ENCODING 165
SWIDTH 42 0
DWIDTH 8 0
BBX 8 14 0 -4
BITMAP
00
00
C3
66
3C
18
18
3C
18
18
18
00
00
00
ENDCHAR

STARTCHAR <unknown>
ENCODING 166
SWIDTH 42 0
DWIDTH 8 0
BBX 8 14 0 -4
BITMAP
00
18
18
18
18
18
00
00
18
18
18
18
18
00
ENDCHAR

STARTCHAR <unknown>
ENCODING 167
SWIDTH 42 0
DWIDTH 8 0
BBX 8 14 0 -4
BITMAP
00
00
3C
66
60
3C
66
66
3C
06
66
3C
00
00
ENDCHAR

STARTCHAR <unknown>
ENCODING 168
SWIDTH 42 0
DWIDTH 8 0
BBX 8 14 0 -4
BITMAP
00
24
24
00
00
00
00
00
00
00
00
00
00
00
ENDCHAR

STARTCHAR <unknown>
ENCODING 169
SWIDTH 42 0
DWIDTH 8 0
BBX 8 14 0 -4
BITMAP
00
00
3C
42
9D
B5
B1
9D
42
3C
00
00
00
00
ENDCHAR

STARTCHAR <unknown>
ENCODING 170
SWIDTH 42 0
DWIDTH 8 0
BBX 8 14 0 -4
BITMAP
00
00
1C
06
0E
16
1E
00
1E
00
00
00
00
00
ENDCHAR

STARTCHAR <unknown>
ENCODING 171
SWIDTH 42 0
DWIDTH 8 0
BBX 8 14 0 -4
BITMAP
00
00
00
00
00
1B
36
6C
36
1B
00
00
00
00
ENDCHAR

STARTCHAR <unknown>
ENCODING 172
SWIDTH 42 0
DWIDTH 8 0
BBX 8 14 0 -4
BITMAP
00
00
00
7E
7E
06
00
00
00
00
00
00
00
00
ENDCHAR

STARTCHAR <unknown>
ENCODING 173
SWIDTH 42 0
DWIDTH 8 0
BBX 8 14 0 -4
BITMAP
00
00
00
00
00
00
00
3C
00
00
00
00
00
00
ENDCHAR

STARTCHAR <unknown>
ENCODING 174
SWIDTH 42 0
DWIDTH 8 0
BBX 8 14 0 -4
BITMAP
00
00
3C
42
B9
AD
B9
AD
42
3C
00
00
00
00
ENDCHAR

STARTCHAR <unknown>
ENCODING 175
SWIDTH 42 0
DWIDTH 8 0
BBX 8 14 0 -4
BITMAP
00
00
3C
00
00
00
00
00
00
00
00
00
00
00
ENDCHAR

STARTCHAR <unknown>
ENCODING 176
SWIDTH 42 0
DWIDTH 8 0
BBX 8 14 0 -4
BITMAP
00
18
24
18
00
00
00
00
00
00
00
00
00
00
ENDCHAR

STARTCHAR <unknown>
ENCODING 177
SWIDTH 42 0
DWIDTH 8 0
BBX 8 14 0 -4
BITMAP
00
00
00
18
18
7E
7E
18
18
00
7E
7E
00
00
ENDCHAR

STARTCHAR <unknown>
ENCODING 178
SWIDTH 42 0
DWIDTH 8 0
BBX 8 14 0 -4
BITMAP
00
00
1C
06
06
0C
18
1E
00
00
00
00
00
00
ENDCHAR

STARTCHAR <unknown>
ENCODING 179
SWIDTH 42 0
DWIDTH 8 0
BBX 8 14 0 -4
BITMAP
00
00
1C
06
0C
06
26
1C
00
00
00
00
00
00
ENDCHAR

STARTCHAR <unknown>
ENCODING 180
SWIDTH 42 0
DWIDTH 8 0
BBX 8 14 0 -4
BITMAP
00
0C
18
10
00
00
00
00
00
00
00
00
00
00
ENDCHAR

STARTCHAR <unknown>
ENCODING 181
SWIDTH 42 0
DWIDTH 8 0
BBX 8 14 0 -4
BITMAP
00
00
00
00
00
66
66
66
66
66
7B
40
80
00
ENDCHAR

STARTCHAR <unknown>
ENCODING 182
SWIDTH 42 0
DWIDTH 8 0
BBX 8 14 0 -4
BITMAP
00
00
3F
76
76
76
36
16
16
16
37
00
00
00
ENDCHAR

STARTCHAR <unknown>
ENCODING 183
SWIDTH 42 0
DWIDTH 8 0
BBX 8 14 0 -4
BITMAP
00
00
00
00
00
00
00
18
18
00
00
00
00
00
ENDCHAR

STARTCHAR <unknown>
ENCODING 184
SWIDTH 42 0
DWIDTH 8 0
BBX 8 14 0 -4
BITMAP
00
00
00
00
00
00
00
00
00
00
00
18
0C
38
ENDCHAR

STARTCHAR <unknown>
ENCODING 185
SWIDTH 42 0
DWIDTH 8 0
BBX 8 14 0 -4
BITMAP
00
00
0C
1C
0C
0C
0C
1E
00
00
00
00
00
00
ENDCHAR

STARTCHAR <unknown>
ENCODING 186
SWIDTH 42 0
DWIDTH 8 0
BBX 8 14 0 -4
BITMAP
00
00
0C
16
12
1A
0C
00
1E
00
00
00
00
00
ENDCHAR

STARTCHAR <unknown>
ENCODING 187
SWIDTH 42 0
DWIDTH 8 0
BBX 8 14 0 -4
BITMAP
00
00
00
00
00
6C
36
1B
36
6C
00
00
00
00
ENDCHAR

STARTCHAR <unknown>
ENCODING 188
SWIDTH 42 0
DWIDTH 8 0
BBX 8 14 0 -4
BITMAP
00
00
20
61
22
24
7A
16
2A
4F
02
00
00
00
ENDCHAR

STARTCHAR <unknown>
ENCODING 189
SWIDTH 42 0
DWIDTH 8 0
BBX 8 14 0 -4
BITMAP
00
00
20
61
22
24
7A
15
21
42
07
00
00
00
ENDCHAR

STARTCHAR <unknown>
ENCODING 190
SWIDTH 42 0
DWIDTH 8 0
BBX 8 14 0 -4
BITMAP
00
00
60
11
32
14
6A
16
2A
4F
02
00
00
00
ENDCHAR

STARTCHAR <unknown>
ENCODING 191
SWIDTH 42 0
DWIDTH 8 0
BBX 8 14 0 -4
BITMAP
00
00
18
18
00
18
18
30
62
66
3C
00
00
00
ENDCHAR

STARTCHAR <unknown>
ENCODING 192
SWIDTH 42 0
DWIDTH 8 0
BBX 8 14 0 -4
BITMAP
30
18
00
18
18
3C
24
66
7E
66
66
00
00
00
ENDCHAR

STARTCHAR <unknown>
ENCODING 193
SWIDTH 42 0
DWIDTH 8 0
BBX 8 14 0 -4
BITMAP
0C
18
00
18
18
3C
24
66
7E
66
66
00
00
00
ENDCHAR

STARTCHAR <unknown>
ENCODING 194
SWIDTH 42 0
DWIDTH 8 0
BBX 8 14 0 -4
BITMAP
18
2C
46
18
18
3C
24
66
7E
66
66
00
00
00
ENDCHAR

STARTCHAR <unknown>
ENCODING 195
SWIDTH 42 0
DWIDTH 8 0
BBX 8 14 0 -4
BITMAP
3A
5C
00
18
18
3C
24
66
7E
66
66
00
00
00
ENDCHAR

STARTCHAR <unknown>
ENCODING 196
SWIDTH 42 0
DWIDTH 8 0
BBX 8 14 0 -4
BITMAP
24
24
00
18
18
3C
24
66
7E
66
66
00
00
00
ENDCHAR

STARTCHAR <unknown>
ENCODING 197
SWIDTH 42 0
DWIDTH 8 0
BBX 8 14 0 -4
BITMAP
18
24
3C
18
18
3C
24
66
7E
66
66
00
00
00
ENDCHAR

STARTCHAR <unknown>
ENCODING 198
SWIDTH 42 0
DWIDTH 8 0
BBX 8 14 0 -4
BITMAP
00
00
0F
0C
1C
1C
2F
2C
7C
4C
4F
00
00
00
ENDCHAR

STARTCHAR <unknown>
ENCODING 199
SWIDTH 42 0
DWIDTH 8 0
BBX 8 14 0 -4
BITMAP
00
00
3C
66
60
60
60
60
60
66
3C
18
0C
38
ENDCHAR

STARTCHAR <unknown>
ENCODING 200
SWIDTH 42 0
DWIDTH 8 0
BBX 8 14 0 -4
BITMAP
30
18
00
7E
60
60
7C
60
60
60
7E
00
00
00
ENDCHAR

STARTCHAR <unknown>
ENCODING 201
SWIDTH 42 0
DWIDTH 8 0
BBX 8 14 0 -4
BITMAP
0C
18
00
7E
60
60
7C
60
60
60
7E
00
00
00
ENDCHAR

STARTCHAR <unknown>
ENCODING 202
SWIDTH 42 0
DWIDTH 8 0
BBX 8 14 0 -4
BITMAP
18
2C
00
7E
60
60
7C
60
60
60
7E
00
00
00
ENDCHAR

STARTCHAR <unknown>
ENCODING 203
SWIDTH 42 0
DWIDTH 8 0
BBX 8 14 0 -4
BITMAP
24
24
00
7E
60
60
7C
60
60
60
7E
00
00
00
ENDCHAR

STARTCHAR <unknown>
ENCODING 204
SWIDTH 42 0
DWIDTH 8 0
BBX 8 14 0 -4
BITMAP
30
18
00
7E
18
18
18
18
18
18
7E
00
00
00
ENDCHAR

STARTCHAR <unknown>
ENCODING 205
SWIDTH 42 0
DWIDTH 8 0
BBX 8 14 0 -4
BITMAP
0C
18
00
7E
18
18
18
18
18
18
7E
00
00
00
ENDCHAR

STARTCHAR <unknown>
ENCODING 206
SWIDTH 42 0
DWIDTH 8 0
BBX 8 14 0 -4
BITMAP
18
2C
00
7E
18
18
18
18
18
18
7E
00
00
00
ENDCHAR

STARTCHAR <unknown>
ENCODING 207
SWIDTH 42 0
DWIDTH 8 0
BBX 8 14 0 -4
BITMAP
24
24
00
7E
18
18
18
18
18
18
7E
00
00
00
ENDCHAR

STARTCHAR <unknown>
ENCODING 208
SWIDTH 42 0
DWIDTH 8 0
BBX 8 14 0 -4
BITMAP
00
00
7C
66
66
66
F6
66
66
66
7C
00
00
00
ENDCHAR

STARTCHAR <unknown>
ENCODING 209
SWIDTH 42 0
DWIDTH 8 0
BBX 8 14 0 -4
BITMAP
3A
5C
00
66
66
76
76
6E
6E
66
66
00
00
00
ENDCHAR

STARTCHAR <unknown>
ENCODING 210
SWIDTH 42 0
DWIDTH 8 0
BBX 8 14 0 -4
BITMAP
30
18
00
3C
66
66
66
66
66
66
3C
00
00
00
ENDCHAR

STARTCHAR <unknown>
ENCODING 211
SWIDTH 42 0
DWIDTH 8 0
BBX 8 14 0 -4
BITMAP
0C
18
00
3C
66
66
66
66
66
66
3C
00
00
00
ENDCHAR

STARTCHAR <unknown>
ENCODING 212
SWIDTH 42 0
DWIDTH 8 0
BBX 8 14 0 -4
BITMAP
18
2C
00
3C
66
66
66
66
66
66
3C
00
00
00
ENDCHAR

STARTCHAR <unknown>
ENCODING 213
SWIDTH 42 0
DWIDTH 8 0
BBX 8 14 0 -4
BITMAP
3A
5C
00
3C
66
66
66
66
66
66
3C
00
00
00
ENDCHAR

STARTCHAR <unknown>
ENCODING 214
SWIDTH 42 0
DWIDTH 8 0
BBX 8 14 0 -4
BITMAP
24
24
00
3C
66
66
66
66
66
66
3C
00
00
00
ENDCHAR

STARTCHAR <unknown>
ENCODING 215
SWIDTH 42 0
DWIDTH 8 0
BBX 8 14 0 -4
BITMAP
00
00
00
00
00
66
3C
18
3C
66
00
00
00
00
ENDCHAR

STARTCHAR <unknown>
ENCODING 216
SWIDTH 42 0
DWIDTH 8 0
BBX 8 14 0 -4
BITMAP
00
02
3E
66
6E
6E
7E
76
76
66
7C
40
00
00
ENDCHAR

STARTCHAR <unknown>
ENCODING 217
SWIDTH 42 0
DWIDTH 8 0
BBX 8 14 0 -4
BITMAP
30
18
00
66
66
66
66
66
66
66
3C
00
00
00
ENDCHAR

STARTCHAR <unknown>
ENCODING 218
SWIDTH 42 0
DWIDTH 8 0
BBX 8 14 0 -4
BITMAP
0C
18
00
66
66
66
66
66
66
66
3C
00
00
00
ENDCHAR

STARTCHAR <unknown>
ENCODING 219
SWIDTH 42 0
DWIDTH 8 0
BBX 8 14 0 -4
BITMAP
18
2C
00
66
66
66
66
66
66
66
3C
00
00
00
ENDCHAR

STARTCHAR <unknown>
ENCODING 220
SWIDTH 42 0
DWIDTH 8 0
BBX 8 14 0 -4
BITMAP
24
24
00
66
66
66
66
66
66
66
3C
00
00
00
ENDCHAR

STARTCHAR <unknown>
ENCODING 221
SWIDTH 42 0
DWIDTH 8 0
BBX 8 14 0 -4
BITMAP
0C
18
42
66
66
3C
3C
18
18
18
18
00
00
00
ENDCHAR

STARTCHAR <unknown>
ENCODING 222
SWIDTH 42 0
DWIDTH 8 0
BBX 8 14 0 -4
BITMAP
78
30
3E
33
33
33
33
3E
30
30
78
00
00
00
ENDCHAR

STARTCHAR <unknown>
ENCODING 223
SWIDTH 42 0
DWIDTH 8 0
BBX 8 14 0 -4
BITMAP
00
00
1C
36
26
66
6C
66
63
63
6E
00
00
00
ENDCHAR

STARTCHAR <unknown>
ENCODING 224
SWIDTH 42 0
DWIDTH 8 0
BBX 8 14 0 -4
BITMAP
00
30
18
00
3C
06
06
3E
66
66
3E
00
00
00
ENDCHAR

STARTCHAR <unknown>
ENCODING 225
SWIDTH 42 0
DWIDTH 8 0
BBX 8 14 0 -4
BITMAP
00
0C
18
00
3C
06
06
3E
66
66
3E
00
00
00
ENDCHAR

STARTCHAR <unknown>
ENCODING 226
SWIDTH 42 0
DWIDTH 8 0
BBX 8 14 0 -4
BITMAP
00
18
2C
00
3C
06
06
3E
66
66
3E
00
00
00
ENDCHAR

STARTCHAR <unknown>
ENCODING 227
SWIDTH 42 0
DWIDTH 8 0
BBX 8 14 0 -4
BITMAP
00
1A
2C
00
3C
06
06
3E
66
66
3E
00
00
00
ENDCHAR

STARTCHAR <unknown>
ENCODING 228
SWIDTH 42 0
DWIDTH 8 0
BBX 8 14 0 -4
BITMAP
00
24
24
00
3C
06
06
3E
66
66
3E
00
00
00
ENDCHAR

STARTCHAR <unknown>
ENCODING 229
SWIDTH 42 0
DWIDTH 8 0
BBX 8 14 0 -4
BITMAP
18
24
18
00
3C
06
06
3E
66
66
3E
00
00
00
ENDCHAR

STARTCHAR <unknown>
ENCODING 230
SWIDTH 42 0
DWIDTH 8 0
BBX 8 14 0 -4
BITMAP
00
00
00
00
6E
1B
1B
7F
D8
D9
6E
00
00
00
ENDCHAR

STARTCHAR <unknown>
ENCODING 231
SWIDTH 42 0
DWIDTH 8 0
BBX 8 14 0 -4
BITMAP
00
00
00
00
3C
66
60
60
60
66
3C
18
0C
38
ENDCHAR

STARTCHAR <unknown>
ENCODING 232
SWIDTH 42 0
DWIDTH 8 0
BBX 8 14 0 -4
BITMAP
00
30
18
00
3C
66
66
7E
60
66
3C
00
00
00
ENDCHAR

STARTCHAR <unknown>
ENCODING 233
SWIDTH 42 0
DWIDTH 8 0
BBX 8 14 0 -4
BITMAP
00
0C
18
00
3C
66
66
7E
60
66
3C
00
00
00
ENDCHAR

STARTCHAR <unknown>
ENCODING 234
SWIDTH 42 0
DWIDTH 8 0
BBX 8 14 0 -4
BITMAP
00
18
2C
00
3C
66
66
7E
60
66
3C
00
00
00
ENDCHAR

STARTCHAR <unknown>
ENCODING 235
SWIDTH 42 0
DWIDTH 8 0
BBX 8 14 0 -4
BITMAP
00
24
24
00
3C
66
66
7E
60
66
3C
00
00
00
ENDCHAR

STARTCHAR <unknown>
ENCODING 236
SWIDTH 42 0
DWIDTH 8 0
BBX 8 14 0 -4
BITMAP
00
30
18
00
78
18
18
18
18
18
18
00
00
00
ENDCHAR

STARTCHAR <unknown>
ENCODING 237
SWIDTH 42 0
DWIDTH 8 0
BBX 8 14 0 -4
BITMAP
00
0C
18
00
78
18
18
18
18
18
18
00
00
00
ENDCHAR

STARTCHAR <unknown>
ENCODING 238
SWIDTH 42 0
DWIDTH 8 0
BBX 8 14 0 -4
BITMAP
00
18
2C
00
78
18
18
18
18
18
18
00
00
00
ENDCHAR

STARTCHAR <unknown>
ENCODING 239
SWIDTH 42 0
DWIDTH 8 0
BBX 8 14 0 -4
BITMAP
00
24
24
00
78
18
18
18
18
18
18
00
00
00
ENDCHAR

STARTCHAR <unknown>
ENCODING 240
SWIDTH 42 0
DWIDTH 8 0
BBX 8 14 0 -4
BITMAP
00
64
38
18
2C
04
36
6E
66
66
3C
00
00
00
ENDCHAR

STARTCHAR <unknown>
ENCODING 241
SWIDTH 42 0
DWIDTH 8 0
BBX 8 14 0 -4
BITMAP
00
3A
5C
00
5C
76
66
66
66
66
66
00
00
00
ENDCHAR

STARTCHAR <unknown>
ENCODING 242
SWIDTH 42 0
DWIDTH 8 0
BBX 8 14 0 -4
BITMAP
00
30
18
00
3C
66
66
66
66
66
3C
00
00
00
ENDCHAR

STARTCHAR <unknown>
ENCODING 243
SWIDTH 42 0
DWIDTH 8 0
BBX 8 14 0 -4
BITMAP
00
0C
18
00
3C
66
66
66
66
66
3C
00
00
00
ENDCHAR

STARTCHAR <unknown>
ENCODING 244
SWIDTH 42 0
DWIDTH 8 0
BBX 8 14 0 -4
BITMAP
00
18
2C
00
3C
66
66
66
66
66
3C
00
00
00
ENDCHAR

STARTCHAR <unknown>
ENCODING 245
SWIDTH 42 0
DWIDTH 8 0
BBX 8 14 0 -4
BITMAP
00
3A
5C
00
3C
66
66
66
66
66
3C
00
00
00
ENDCHAR

STARTCHAR <unknown>
ENCODING 246
SWIDTH 42 0
DWIDTH 8 0
BBX 8 14 0 -4
BITMAP
00
24
24
00
3C
66
66
66
66
66
3C
00
00
00
ENDCHAR

STARTCHAR <unknown>
ENCODING 247
SWIDTH 42 0
DWIDTH 8 0
BBX 8 14 0 -4
BITMAP
00
00
00
18
18
00
7E
7E
00
18
18
00
00
00
ENDCHAR

STARTCHAR <unknown>
ENCODING 248
SWIDTH 42 0
DWIDTH 8 0
BBX 8 14 0 -4
BITMAP
00
00
00
01
3E
66
6E
7E
76
66
7C
80
00
00
ENDCHAR

STARTCHAR <unknown>
ENCODING 249
SWIDTH 42 0
DWIDTH 8 0
BBX 8 14 0 -4
BITMAP
00
30
18
00
66
66
66
66
66
6E
36
00
00
00
ENDCHAR

STARTCHAR <unknown>
ENCODING 250
SWIDTH 42 0
DWIDTH 8 0
BBX 8 14 0 -4
BITMAP
00
0C
18
00
66
66
66
66
66
6E
36
00
00
00
ENDCHAR

STARTCHAR <unknown>
ENCODING 251
SWIDTH 42 0
DWIDTH 8 0
BBX 8 14 0 -4
BITMAP
00
18
2C
00
66
66
66
66
66
6E
36
00
00
00
ENDCHAR

STARTCHAR <unknown>
ENCODING 252
SWIDTH 42 0
DWIDTH 8 0
BBX 8 14 0 -4
BITMAP
00
24
24
00
66
66
66
66
66
6E
36
00
00
00
ENDCHAR

STARTCHAR <unknown>
ENCODING 253
SWIDTH 42 0
DWIDTH 8 0
BBX 8 14 0 -4
BITMAP
00
0C
18
00
66
66
66
66
66
6E
36
06
66
3C
ENDCHAR

STARTCHAR <unknown>
ENCODING 254
SWIDTH 42 0
DWIDTH 8 0
BBX 8 14 0 -4
BITMAP
00
00
00
70
30
36
3B
33
33
3B
36
30
30
78
ENDCHAR

STARTCHAR <unknown>
ENCODING 255
SWIDTH 42 0
DWIDTH 8 0
BBX 8 14 0 -4
BITMAP
00
24
24
00
66
66
66
66
66
6E
36
06
66
3C
ENDCHAR

ENDFONT
