STARTFONT 2.1
FONT -ibm801k-Ergonomic-Medium-R-Normal-ISO9241-20-150-100-100-C-120-IBM-850
SIZE 15 100 100
FONTBOUNDINGBOX 12 20 0 -4

STARTPROPERTIES 25
FONTNAME_REGISTRY ""
FOUNDRY "ibm801k"
FAMILY_NAME "Ergonomic"
WEIGHT_NAME "Medium"
SLANT "R"
SETWIDTH_NAME "Normal"
ADD_STYLE_NAME "ISO9241"
PIXEL_SIZE 20
POINT_SIZE 150
RESOLUTION_X 100
RESOLUTION_Y 100
SPACING "C"
AVERAGE_WIDTH 120
CHARSET_REGISTRY "IBM"
CHARSET_ENCODING "850"
CAP_HEIGHT 12
UNDERLINE_THICKNESS 1
UNDERLINE_POSITION 1
COPYRIGHT "(C) COPYRIGHT International Business Machines Corp. 1989"
WEIGHT 10
X_HEIGHT -1
QUAD_WIDTH 12
DEFAULT_CHAR 0
FONT_DESCENT 4
FONT_ASCENT 16
ENDPROPERTIES

CHARS 256

STARTCHAR 0x0
ENCODING 0
SWIDTH 800 0
DWIDTH 12 0
BBX 12 20 0 -4
BITMAP
0000
0000
0000
0000
0000
0000
0000
0000
0000
0000
0000
0000
0000
0000
0000
0000
0000
0000
0000
0000
ENDCHAR

STARTCHAR 0x1
ENCODING 1
SWIDTH 800 0
DWIDTH 12 0
BBX 12 20 0 -4
BITMAP
0000
0000
0000
0000
1F80
2040
4020
59A0
59A0
4020
4020
50A0
4F20
4620
2040
1F80
0000
0000
0000
0000
ENDCHAR

STARTCHAR 0x2
ENCODING 2
SWIDTH 800 0
DWIDTH 12 0
BBX 12 20 0 -4
BITMAP
0000
0000
0000
0000
1F80
3FC0
7FE0
6660
6660
7FE0
7FE0
6F60
70E0
79E0
3FC0
1F80
0000
0000
0000
0000
ENDCHAR

STARTCHAR 0x3
ENCODING 3
SWIDTH 800 0
DWIDTH 12 0
BBX 12 20 0 -4
BITMAP
0000
0000
0000
0000
0000
0000
0000
0000
1DC0
3FE0
3FE0
3FE0
1FC0
0F80
0700
0200
0000
0000
0000
0000
ENDCHAR

STARTCHAR 0x4
ENCODING 4
SWIDTH 800 0
DWIDTH 12 0
BBX 12 20 0 -4
BITMAP
0000
0000
0000
0000
0000
0000
0000
0200
0700
0F80
1FC0
3FE0
1FC0
0F80
0700
0200
0000
0000
0000
0000
ENDCHAR

STARTCHAR 0x5
ENCODING 5
SWIDTH 800 0
DWIDTH 12 0
BBX 12 20 0 -4
BITMAP
0000
0000
0000
0000
0000
0000
0000
0300
0780
0780
0B40
1FE0
1FE0
0B40
0300
0780
0000
0000
0000
0000
ENDCHAR

STARTCHAR 0x6
ENCODING 6
SWIDTH 800 0
DWIDTH 12 0
BBX 12 20 0 -4
BITMAP
0000
0000
0000
0000
0000
0000
0000
0300
0780
0FC0
1FE0
1FE0
1FE0
0B40
0300
0780
0000
0000
0000
0000
ENDCHAR

STARTCHAR 0x7
ENCODING 7
SWIDTH 800 0
DWIDTH 12 0
BBX 12 20 0 -4
BITMAP
0000
0000
0000
0000
0000
0000
0000
0F00
1F80
1F80
1F80
1F80
0F00
0000
0000
0000
0000
0000
0000
0000
ENDCHAR

STARTCHAR 0x8
ENCODING 8
SWIDTH 800 0
DWIDTH 12 0
BBX 12 20 0 -4
BITMAP
FFF0
FFF0
FFF0
FFF0
FFF0
FFF0
FFF0
F0F0
E070
E070
E070
E070
F0F0
FFF0
FFF0
FFF0
FFF0
FFF0
FFF0
FFF0
ENDCHAR

STARTCHAR 0x9
ENCODING 9
SWIDTH 800 0
DWIDTH 12 0
BBX 12 20 0 -4
BITMAP
0000
0000
0000
0000
0000
0000
0F00
1980
30C0
30C0
30C0
30C0
1980
0F00
0000
0000
0000
0000
0000
0000
ENDCHAR

STARTCHAR 0xa
ENCODING 10
SWIDTH 800 0
DWIDTH 12 0
BBX 12 20 0 -4
BITMAP
FFF0
FFF0
FFF0
FFF0
FFF0
FFF0
F0F0
E670
CF30
CF30
CF30
CF30
E670
F0F0
FFF0
FFF0
FFF0
FFF0
FFF0
FFF0
ENDCHAR

STARTCHAR 0xb
ENCODING 11
SWIDTH 800 0
DWIDTH 12 0
BBX 12 20 0 -4
BITMAP
0000
0000
0000
0000
0000
07E0
00E0
01A0
0320
1F20
3300
6180
6180
6180
3300
1E00
0000
0000
0000
0000
ENDCHAR

STARTCHAR 0xc
ENCODING 12
SWIDTH 800 0
DWIDTH 12 0
BBX 12 20 0 -4
BITMAP
0000
0000
0000
0000
0F00
1980
30C0
30C0
30C0
1980
0F00
0600
0600
1F80
0600
0600
0000
0000
0000
0000
ENDCHAR

STARTCHAR 0xd
ENCODING 13
SWIDTH 800 0
DWIDTH 12 0
BBX 12 20 0 -4
BITMAP
0000
0000
0000
0000
0200
0300
0380
02C0
0200
0200
0200
0200
0200
0E00
1E00
1C00
0000
0000
0000
0000
ENDCHAR

STARTCHAR 0xe
ENCODING 14
SWIDTH 800 0
DWIDTH 12 0
BBX 12 20 0 -4
BITMAP
0000
0000
0000
0000
07E0
07E0
07E0
0420
0420
0420
0420
0420
0420
1CE0
3DE0
39C0
0000
0000
0000
0000
ENDCHAR

STARTCHAR 0xf
ENCODING 15
SWIDTH 800 0
DWIDTH 12 0
BBX 12 20 0 -4
BITMAP
0000
0000
0000
0000
0000
0200
2220
1740
0880
1040
7070
1040
0880
1740
2220
0200
0000
0000
0000
0000
ENDCHAR

STARTCHAR 0x10
ENCODING 16
SWIDTH 800 0
DWIDTH 12 0
BBX 12 20 0 -4
BITMAP
0000
0000
0000
0000
0000
0000
0800
0C00
0E00
0F00
0F80
0F00
0E00
0C00
0800
0000
0000
0000
0000
0000
ENDCHAR

STARTCHAR 0x11
ENCODING 17
SWIDTH 800 0
DWIDTH 12 0
BBX 12 20 0 -4
BITMAP
0000
0000
0000
0000
0000
0000
0080
0180
0380
0780
0F80
0780
0380
0180
0080
0000
0000
0000
0000
0000
ENDCHAR

STARTCHAR 0x12
ENCODING 18
SWIDTH 800 0
DWIDTH 12 0
BBX 12 20 0 -4
BITMAP
0000
0000
0000
0000
0600
0F00
1F80
0600
0600
0600
0600
0600
0600
1F80
0F00
0600
0000
0000
0000
0000
ENDCHAR

STARTCHAR 0x13
ENCODING 19
SWIDTH 800 0
DWIDTH 12 0
BBX 12 20 0 -4
BITMAP
0000
0000
0000
0000
18C0
18C0
18C0
18C0
18C0
18C0
18C0
18C0
18C0
0000
18C0
18C0
0000
0000
0000
0000
ENDCHAR

STARTCHAR 0x14
ENCODING 20
SWIDTH 800 0
DWIDTH 12 0
BBX 12 20 0 -4
BITMAP
0000
0000
0000
0000
0FC0
1E40
1E40
1E40
1E40
1E40
0E40
0240
0240
0240
0240
0240
0000
0000
0000
0000
ENDCHAR

STARTCHAR 0x15
ENCODING 21
SWIDTH 800 0
DWIDTH 12 0
BBX 12 20 0 -4
BITMAP
0000
0000
0000
0F80
18C0
1800
0C00
0F00
1980
18C0
18C0
0CC0
0780
0180
00C0
18C0
0F80
0000
0000
0000
ENDCHAR

STARTCHAR 0x16
ENCODING 22
SWIDTH 800 0
DWIDTH 12 0
BBX 12 20 0 -4
BITMAP
0000
0000
0000
0000
0000
0000
0000
0000
1FC0
1FC0
1FC0
1FC0
0000
0000
0000
0000
0000
0000
0000
0000
ENDCHAR

STARTCHAR 0x17
ENCODING 23
SWIDTH 800 0
DWIDTH 12 0
BBX 12 20 0 -4
BITMAP
0000
0000
0000
0000
0600
0F00
1F80
0600
0600
0600
0600
0600
0600
1F80
0F00
0600
0000
3FC0
0000
0000
ENDCHAR

STARTCHAR 0x18
ENCODING 24
SWIDTH 800 0
DWIDTH 12 0
BBX 12 20 0 -4
BITMAP
0000
0000
0000
0000
0600
0F00
1F80
0600
0600
0600
0600
0600
0600
0600
0600
0600
0000
0000
0000
0000
ENDCHAR

STARTCHAR 0x19
ENCODING 25
SWIDTH 800 0
DWIDTH 12 0
BBX 12 20 0 -4
BITMAP
0000
0000
0000
0000
0600
0600
0600
0600
0600
0600
0600
0600
0600
1F80
0F00
0600
0000
0000
0000
0000
ENDCHAR

STARTCHAR 0x1a
ENCODING 26
SWIDTH 800 0
DWIDTH 12 0
BBX 12 20 0 -4
BITMAP
0000
0000
0000
0000
0000
0000
0000
0000
0100
0180
3FC0
3FC0
0180
0100
0000
0000
0000
0000
0000
0000
ENDCHAR

STARTCHAR 0x1b
ENCODING 27
SWIDTH 800 0
DWIDTH 12 0
BBX 12 20 0 -4
BITMAP
0000
0000
0000
0000
0000
0000
0000
0000
0800
1800
3FC0
3FC0
1800
0800
0000
0000
0000
0000
0000
0000
ENDCHAR

STARTCHAR 0x1c
ENCODING 28
SWIDTH 800 0
DWIDTH 12 0
BBX 12 20 0 -4
BITMAP
0000
0000
0000
0000
0000
0000
0000
0000
3000
3000
3000
3000
3000
3000
3FC0
3FC0
0000
0000
0000
0000
ENDCHAR

STARTCHAR 0x1d
ENCODING 29
SWIDTH 800 0
DWIDTH 12 0
BBX 12 20 0 -4
BITMAP
0000
0000
0000
0000
0000
0000
0000
0000
1040
3060
7FF0
7FF0
3060
1040
0000
0000
0000
0000
0000
0000
ENDCHAR

STARTCHAR 0x1e
ENCODING 30
SWIDTH 800 0
DWIDTH 12 0
BBX 12 20 0 -4
BITMAP
0000
0000
0000
0000
0000
0000
0000
0200
0700
0F80
1FC0
3FE0
3FE0
0000
0000
0000
0000
0000
0000
0000
ENDCHAR

STARTCHAR 0x1f
ENCODING 31
SWIDTH 800 0
DWIDTH 12 0
BBX 12 20 0 -4
BITMAP
0000
0000
0000
0000
0000
0000
0000
0000
3FE0
3FE0
1FC0
0F80
0700
0200
0000
0000
0000
0000
0000
0000
ENDCHAR

STARTCHAR 0x20
ENCODING 32
SWIDTH 800 0
DWIDTH 12 0
BBX 12 20 0 -4
BITMAP
0000
0000
0000
0000
0000
0000
0000
0000
0000
0000
0000
0000
0000
0000
0000
0000
0000
0000
0000
0000
ENDCHAR

STARTCHAR 0x21
ENCODING 33
SWIDTH 800 0
DWIDTH 12 0
BBX 12 20 0 -4
BITMAP
0000
0000
0000
0000
0300
0300
0300
0300
0300
0300
0300
0300
0300
0000
0300
0300
0000
0000
0000
0000
ENDCHAR

STARTCHAR 0x22
ENCODING 34
SWIDTH 800 0
DWIDTH 12 0
BBX 12 20 0 -4
BITMAP
0000
0000
1980
1980
1980
1980
0000
0000
0000
0000
0000
0000
0000
0000
0000
0000
0000
0000
0000
0000
ENDCHAR

STARTCHAR 0x23
ENCODING 35
SWIDTH 800 0
DWIDTH 12 0
BBX 12 20 0 -4
BITMAP
0000
0000
0000
0000
18C0
18C0
18C0
3FE0
18C0
18C0
18C0
18C0
3FE0
18C0
18C0
18C0
0000
0000
0000
0000
ENDCHAR

STARTCHAR 0x24
ENCODING 36
SWIDTH 800 0
DWIDTH 12 0
BBX 12 20 0 -4
BITMAP
0000
0000
0000
0200
0200
0F80
1AC0
3260
3000
1C00
0700
01C0
0060
3260
1AC0
0F80
0200
0200
0000
0000
ENDCHAR

STARTCHAR 0x25
ENCODING 37
SWIDTH 800 0
DWIDTH 12 0
BBX 12 20 0 -4
BITMAP
0000
0000
0000
1C00
3600
3620
3660
1CC0
0180
0300
0600
0C00
19C0
3360
2360
0360
01C0
0000
0000
0000
ENDCHAR

STARTCHAR 0x26
ENCODING 38
SWIDTH 800 0
DWIDTH 12 0
BBX 12 20 0 -4
BITMAP
0000
0000
0000
0000
0E00
1B00
3180
3180
1B00
0E00
3320
61A0
60C0
60C0
71A0
3F20
0000
0000
0000
0000
ENDCHAR

STARTCHAR 0x27
ENCODING 39
SWIDTH 800 0
DWIDTH 12 0
BBX 12 20 0 -4
BITMAP
0000
0000
0600
0600
0600
0600
0000
0000
0000
0000
0000
0000
0000
0000
0000
0000
0000
0000
0000
0000
ENDCHAR

STARTCHAR 0x28
ENCODING 40
SWIDTH 800 0
DWIDTH 12 0
BBX 12 20 0 -4
BITMAP
0000
0000
00C0
0180
0300
0300
0600
0600
0600
0600
0600
0600
0600
0600
0300
0300
0180
00C0
0000
0000
ENDCHAR

STARTCHAR 0x29
ENCODING 41
SWIDTH 800 0
DWIDTH 12 0
BBX 12 20 0 -4
BITMAP
0000
0000
1800
0C00
0600
0600
0300
0300
0300
0300
0300
0300
0300
0300
0600
0600
0C00
1800
0000
0000
ENDCHAR

STARTCHAR 0x2a
ENCODING 42
SWIDTH 800 0
DWIDTH 12 0
BBX 12 20 0 -4
BITMAP
0000
0000
0000
0000
0000
0000
0000
1980
1980
0600
3FC0
0600
1980
1980
0000
0000
0000
0000
0000
0000
ENDCHAR

STARTCHAR 0x2b
ENCODING 43
SWIDTH 800 0
DWIDTH 12 0
BBX 12 20 0 -4
BITMAP
0000
0000
0000
0000
0000
0000
0000
0600
0600
0600
3FC0
0600
0600
0600
0000
0000
0000
0000
0000
0000
ENDCHAR

STARTCHAR 0x2c
ENCODING 44
SWIDTH 800 0
DWIDTH 12 0
BBX 12 20 0 -4
BITMAP
0000
0000
0000
0000
0000
0000
0000
0000
0000
0000
0000
0000
0000
0000
0600
0600
0200
0400
0000
0000
ENDCHAR

STARTCHAR 0x2d
ENCODING 45
SWIDTH 800 0
DWIDTH 12 0
BBX 12 20 0 -4
BITMAP
0000
0000
0000
0000
0000
0000
0000
0000
0000
0000
3FC0
0000
0000
0000
0000
0000
0000
0000
0000
0000
ENDCHAR

STARTCHAR 0x2e
ENCODING 46
SWIDTH 800 0
DWIDTH 12 0
BBX 12 20 0 -4
BITMAP
0000
0000
0000
0000
0000
0000
0000
0000
0000
0000
0000
0000
0000
0000
0600
0600
0000
0000
0000
0000
ENDCHAR

STARTCHAR 0x2f
ENCODING 47
SWIDTH 800 0
DWIDTH 12 0
BBX 12 20 0 -4
BITMAP
0000
0000
0000
0000
00C0
00C0
0180
0180
0300
0300
0600
0600
0C00
0C00
1800
1800
0000
0000
0000
0000
ENDCHAR

STARTCHAR 0x30
ENCODING 48
SWIDTH 800 0
DWIDTH 12 0
BBX 12 20 0 -4
BITMAP
0000
0000
0000
0000
0F80
18C0
3060
3060
3060
3260
3260
3060
3060
3060
18C0
0F80
0000
0000
0000
0000
ENDCHAR

STARTCHAR 0x31
ENCODING 49
SWIDTH 800 0
DWIDTH 12 0
BBX 12 20 0 -4
BITMAP
0000
0000
0000
0000
0300
0700
0F00
0300
0300
0300
0300
0300
0300
0300
0300
0FC0
0000
0000
0000
0000
ENDCHAR

STARTCHAR 0x32
ENCODING 50
SWIDTH 800 0
DWIDTH 12 0
BBX 12 20 0 -4
BITMAP
0000
0000
0000
0000
0F80
18C0
3060
0060
0060
00C0
0180
0300
0600
0C00
1800
3FE0
0000
0000
0000
0000
ENDCHAR

STARTCHAR 0x33
ENCODING 51
SWIDTH 800 0
DWIDTH 12 0
BBX 12 20 0 -4
BITMAP
0000
0000
0000
0000
0F80
18C0
3060
0060
00C0
0780
00C0
0060
0060
3060
18C0
0F80
0000
0000
0000
0000
ENDCHAR

STARTCHAR 0x34
ENCODING 52
SWIDTH 800 0
DWIDTH 12 0
BBX 12 20 0 -4
BITMAP
0000
0000
0000
0000
0040
00C0
01C0
03C0
06C0
0CC0
18C0
30C0
3FE0
00C0
00C0
00C0
0000
0000
0000
0000
ENDCHAR

STARTCHAR 0x35
ENCODING 53
SWIDTH 800 0
DWIDTH 12 0
BBX 12 20 0 -4
BITMAP
0000
0000
0000
0000
3FC0
3000
3000
3000
3780
38C0
0060
0060
0060
3060
18C0
0F80
0000
0000
0000
0000
ENDCHAR

STARTCHAR 0x36
ENCODING 54
SWIDTH 800 0
DWIDTH 12 0
BBX 12 20 0 -4
BITMAP
0000
0000
0000
0000
0F80
18C0
3000
3000
3780
38C0
3060
3060
3060
3060
18C0
0F80
0000
0000
0000
0000
ENDCHAR

STARTCHAR 0x37
ENCODING 55
SWIDTH 800 0
DWIDTH 12 0
BBX 12 20 0 -4
BITMAP
0000
0000
0000
0000
3FE0
0060
00C0
0180
0180
0300
0300
0300
0600
0600
0600
0600
0000
0000
0000
0000
ENDCHAR

STARTCHAR 0x38
ENCODING 56
SWIDTH 800 0
DWIDTH 12 0
BBX 12 20 0 -4
BITMAP
0000
0000
0000
0000
0F80
18C0
3060
3060
18C0
0F80
18C0
3060
3060
3060
18C0
0F80
0000
0000
0000
0000
ENDCHAR

STARTCHAR 0x39
ENCODING 57
SWIDTH 800 0
DWIDTH 12 0
BBX 12 20 0 -4
BITMAP
0000
0000
0000
0000
0F80
18C0
3060
3060
3060
3060
18E0
0F60
0060
0060
18C0
0F80
0000
0000
0000
0000
ENDCHAR

STARTCHAR 0x3a
ENCODING 58
SWIDTH 800 0
DWIDTH 12 0
BBX 12 20 0 -4
BITMAP
0000
0000
0000
0000
0000
0000
0000
0000
0600
0600
0000
0000
0000
0000
0600
0600
0000
0000
0000
0000
ENDCHAR

STARTCHAR 0x3b
ENCODING 59
SWIDTH 800 0
DWIDTH 12 0
BBX 12 20 0 -4
BITMAP
0000
0000
0000
0000
0000
0000
0000
0000
0600
0600
0000
0000
0000
0000
0600
0600
0200
0400
0000
0000
ENDCHAR

STARTCHAR 0x3c
ENCODING 60
SWIDTH 800 0
DWIDTH 12 0
BBX 12 20 0 -4
BITMAP
0000
0000
0000
0000
00C0
0180
0300
0600
0C00
1800
1800
0C00
0600
0300
0180
00C0
0000
0000
0000
0000
ENDCHAR

STARTCHAR 0x3d
ENCODING 61
SWIDTH 800 0
DWIDTH 12 0
BBX 12 20 0 -4
BITMAP
0000
0000
0000
0000
0000
0000
0000
0000
3FC0
0000
0000
3FC0
0000
0000
0000
0000
0000
0000
0000
0000
ENDCHAR

STARTCHAR 0x3e
ENCODING 62
SWIDTH 800 0
DWIDTH 12 0
BBX 12 20 0 -4
BITMAP
0000
0000
0000
0000
1800
0C00
0600
0300
0180
00C0
00C0
0180
0300
0600
0C00
1800
0000
0000
0000
0000
ENDCHAR

STARTCHAR 0x3f
ENCODING 63
SWIDTH 800 0
DWIDTH 12 0
BBX 12 20 0 -4
BITMAP
0000
0000
0000
0000
0F80
18C0
3060
3060
0060
00C0
0180
0300
0300
0000
0300
0300
0000
0000
0000
0000
ENDCHAR

STARTCHAR 0x40
ENCODING 64
SWIDTH 800 0
DWIDTH 12 0
BBX 12 20 0 -4
BITMAP
0000
0000
0000
0000
0F80
18C0
3060
33E0
3660
3660
3660
3660
33C0
1800
0F80
0000
0000
0000
0000
0000
ENDCHAR

STARTCHAR 0x41
ENCODING 65
SWIDTH 800 0
DWIDTH 12 0
BBX 12 20 0 -4
BITMAP
0000
0000
0000
0000
0700
0D80
18C0
3060
3060
3060
3FE0
3060
3060
3060
3060
3060
0000
0000
0000
0000
ENDCHAR

STARTCHAR 0x42
ENCODING 66
SWIDTH 800 0
DWIDTH 12 0
BBX 12 20 0 -4
BITMAP
0000
0000
0000
0000
3F80
30C0
3060
3060
30C0
3F80
30C0
3060
3060
3060
30C0
3F80
0000
0000
0000
0000
ENDCHAR

STARTCHAR 0x43
ENCODING 67
SWIDTH 800 0
DWIDTH 12 0
BBX 12 20 0 -4
BITMAP
0000
0000
0000
0000
0F80
18C0
3060
3000
3000
3000
3000
3000
3000
3060
18C0
0F80
0000
0000
0000
0000
ENDCHAR

STARTCHAR 0x44
ENCODING 68
SWIDTH 800 0
DWIDTH 12 0
BBX 12 20 0 -4
BITMAP
0000
0000
0000
0000
3F80
30C0
3060
3060
3060
3060
3060
3060
3060
3060
30C0
3F80
0000
0000
0000
0000
ENDCHAR

STARTCHAR 0x45
ENCODING 69
SWIDTH 800 0
DWIDTH 12 0
BBX 12 20 0 -4
BITMAP
0000
0000
0000
0000
3FE0
3000
3000
3000
3000
3FC0
3000
3000
3000
3000
3000
3FE0
0000
0000
0000
0000
ENDCHAR

STARTCHAR 0x46
ENCODING 70
SWIDTH 800 0
DWIDTH 12 0
BBX 12 20 0 -4
BITMAP
0000
0000
0000
0000
3FE0
3000
3000
3000
3000
3FC0
3000
3000
3000
3000
3000
3000
0000
0000
0000
0000
ENDCHAR

STARTCHAR 0x47
ENCODING 71
SWIDTH 800 0
DWIDTH 12 0
BBX 12 20 0 -4
BITMAP
0000
0000
0000
0000
0F80
18C0
3060
3000
3000
3000
31E0
3060
3060
3060
1860
0FE0
0000
0000
0000
0000
ENDCHAR

STARTCHAR 0x48
ENCODING 72
SWIDTH 800 0
DWIDTH 12 0
BBX 12 20 0 -4
BITMAP
0000
0000
0000
0000
3060
3060
3060
3060
3060
3FE0
3060
3060
3060
3060
3060
3060
0000
0000
0000
0000
ENDCHAR

STARTCHAR 0x49
ENCODING 73
SWIDTH 800 0
DWIDTH 12 0
BBX 12 20 0 -4
BITMAP
0000
0000
0000
0000
1F80
0600
0600
0600
0600
0600
0600
0600
0600
0600
0600
1F80
0000
0000
0000
0000
ENDCHAR

STARTCHAR 0x4a
ENCODING 74
SWIDTH 800 0
DWIDTH 12 0
BBX 12 20 0 -4
BITMAP
0000
0000
0000
0000
07E0
00C0
00C0
00C0
00C0
00C0
00C0
00C0
00C0
30C0
1980
0F00
0000
0000
0000
0000
ENDCHAR

STARTCHAR 0x4b
ENCODING 75
SWIDTH 800 0
DWIDTH 12 0
BBX 12 20 0 -4
BITMAP
0000
0000
0000
0000
3060
30C0
3180
3300
3600
3C00
3600
3300
3180
30C0
3060
3060
0000
0000
0000
0000
ENDCHAR

STARTCHAR 0x4c
ENCODING 76
SWIDTH 800 0
DWIDTH 12 0
BBX 12 20 0 -4
BITMAP
0000
0000
0000
0000
1800
1800
1800
1800
1800
1800
1800
1800
1800
1800
1800
1FE0
0000
0000
0000
0000
ENDCHAR

STARTCHAR 0x4d
ENCODING 77
SWIDTH 800 0
DWIDTH 12 0
BBX 12 20 0 -4
BITMAP
0000
0000
0000
0000
4020
6060
70E0
79E0
6F60
6660
6660
6060
6060
6060
6060
6060
0000
0000
0000
0000
ENDCHAR

STARTCHAR 0x4e
ENCODING 78
SWIDTH 800 0
DWIDTH 12 0
BBX 12 20 0 -4
BITMAP
0000
0000
0000
0000
3060
3060
3860
3C60
3460
3660
3360
3160
31E0
30E0
3060
3060
0000
0000
0000
0000
ENDCHAR

STARTCHAR 0x4f
ENCODING 79
SWIDTH 800 0
DWIDTH 12 0
BBX 12 20 0 -4
BITMAP
0000
0000
0000
0000
0F80
18C0
3060
3060
3060
3060
3060
3060
3060
3060
18C0
0F80
0000
0000
0000
0000
ENDCHAR

STARTCHAR 0x50
ENCODING 80
SWIDTH 800 0
DWIDTH 12 0
BBX 12 20 0 -4
BITMAP
0000
0000
0000
0000
3F80
30C0
3060
3060
3060
30C0
3F80
3000
3000
3000
3000
3000
0000
0000
0000
0000
ENDCHAR

STARTCHAR 0x51
ENCODING 81
SWIDTH 800 0
DWIDTH 12 0
BBX 12 20 0 -4
BITMAP
0000
0000
0000
0000
0F80
18C0
3060
3060
3060
3060
3060
3060
3060
3060
18C0
0F80
0300
0180
0000
0000
ENDCHAR

STARTCHAR 0x52
ENCODING 82
SWIDTH 800 0
DWIDTH 12 0
BBX 12 20 0 -4
BITMAP
0000
0000
0000
0000
3F80
30C0
3060
3060
3060
30C0
3F80
3180
30C0
30C0
3060
3060
0000
0000
0000
0000
ENDCHAR

STARTCHAR 0x53
ENCODING 83
SWIDTH 800 0
DWIDTH 12 0
BBX 12 20 0 -4
BITMAP
0000
0000
0000
0000
0F80
18C0
3060
3000
1800
0E00
0380
00C0
0060
3060
18C0
0F80
0000
0000
0000
0000
ENDCHAR

STARTCHAR 0x54
ENCODING 84
SWIDTH 800 0
DWIDTH 12 0
BBX 12 20 0 -4
BITMAP
0000
0000
0000
0000
7FE0
0600
0600
0600
0600
0600
0600
0600
0600
0600
0600
0600
0000
0000
0000
0000
ENDCHAR

STARTCHAR 0x55
ENCODING 85
SWIDTH 800 0
DWIDTH 12 0
BBX 12 20 0 -4
BITMAP
0000
0000
0000
0000
3060
3060
3060
3060
3060
3060
3060
3060
3060
3060
18C0
0F80
0000
0000
0000
0000
ENDCHAR

STARTCHAR 0x56
ENCODING 86
SWIDTH 800 0
DWIDTH 12 0
BBX 12 20 0 -4
BITMAP
0000
0000
0000
0000
3060
3060
3060
3060
3060
18C0
18C0
18C0
0D80
0D80
0700
0700
0000
0000
0000
0000
ENDCHAR

STARTCHAR 0x57
ENCODING 87
SWIDTH 800 0
DWIDTH 12 0
BBX 12 20 0 -4
BITMAP
0000
0000
0000
0000
6060
6060
6060
6060
6060
6660
6660
6F60
6960
39C0
30C0
30C0
0000
0000
0000
0000
ENDCHAR

STARTCHAR 0x58
ENCODING 88
SWIDTH 800 0
DWIDTH 12 0
BBX 12 20 0 -4
BITMAP
0000
0000
0000
0000
3060
3060
18C0
18C0
0D80
0700
0700
0D80
18C0
18C0
3060
3060
0000
0000
0000
0000
ENDCHAR

STARTCHAR 0x59
ENCODING 89
SWIDTH 800 0
DWIDTH 12 0
BBX 12 20 0 -4
BITMAP
0000
0000
0000
0000
6060
6060
30C0
30C0
1980
0F00
0600
0600
0600
0600
0600
0600
0000
0000
0000
0000
ENDCHAR

STARTCHAR 0x5a
ENCODING 90
SWIDTH 800 0
DWIDTH 12 0
BBX 12 20 0 -4
BITMAP
0000
0000
0000
0000
3FE0
0060
0060
00C0
0180
0300
0600
0C00
1800
3000
3000
3FE0
0000
0000
0000
0000
ENDCHAR

STARTCHAR 0x5b
ENCODING 91
SWIDTH 800 0
DWIDTH 12 0
BBX 12 20 0 -4
BITMAP
0000
0000
0000
0780
0600
0600
0600
0600
0600
0600
0600
0600
0600
0600
0600
0600
0600
0780
0000
0000
ENDCHAR

STARTCHAR 0x5c
ENCODING 92
SWIDTH 800 0
DWIDTH 12 0
BBX 12 20 0 -4
BITMAP
0000
0000
0000
0000
1800
1800
0C00
0C00
0600
0600
0300
0300
0180
0180
00C0
00C0
0000
0000
0000
0000
ENDCHAR

STARTCHAR 0x5d
ENCODING 93
SWIDTH 800 0
DWIDTH 12 0
BBX 12 20 0 -4
BITMAP
0000
0000
0000
0F00
0300
0300
0300
0300
0300
0300
0300
0300
0300
0300
0300
0300
0300
0F00
0000
0000
ENDCHAR

STARTCHAR 0x5e
ENCODING 94
SWIDTH 800 0
DWIDTH 12 0
BBX 12 20 0 -4
BITMAP
0000
0200
0700
0D80
18C0
0000
0000
0000
0000
0000
0000
0000
0000
0000
0000
0000
0000
0000
0000
0000
ENDCHAR

STARTCHAR 0x5f
ENCODING 95
SWIDTH 800 0
DWIDTH 12 0
BBX 12 20 0 -4
BITMAP
0000
0000
0000
0000
0000
0000
0000
0000
0000
0000
0000
0000
0000
0000
0000
0000
0000
FFF0
0000
0000
ENDCHAR

STARTCHAR 0x60
ENCODING 96
SWIDTH 800 0
DWIDTH 12 0
BBX 12 20 0 -4
BITMAP
0000
0600
0300
0180
0000
0000
0000
0000
0000
0000
0000
0000
0000
0000
0000
0000
0000
0000
0000
0000
ENDCHAR

STARTCHAR 0x61
ENCODING 97
SWIDTH 800 0
DWIDTH 12 0
BBX 12 20 0 -4
BITMAP
0000
0000
0000
0000
0000
0000
0000
0F80
00C0
0060
0FE0
1860
3060
3060
18E0
0F60
0000
0000
0000
0000
ENDCHAR

STARTCHAR 0x62
ENCODING 98
SWIDTH 800 0
DWIDTH 12 0
BBX 12 20 0 -4
BITMAP
0000
0000
0000
0000
3000
3000
3000
3780
38C0
3060
3060
3060
3060
3060
38C0
3780
0000
0000
0000
0000
ENDCHAR

STARTCHAR 0x63
ENCODING 99
SWIDTH 800 0
DWIDTH 12 0
BBX 12 20 0 -4
BITMAP
0000
0000
0000
0000
0000
0000
0000
0F80
18C0
3060
3000
3000
3000
3060
18C0
0F80
0000
0000
0000
0000
ENDCHAR

STARTCHAR 0x64
ENCODING 100
SWIDTH 800 0
DWIDTH 12 0
BBX 12 20 0 -4
BITMAP
0000
0000
0000
0000
0060
0060
0060
0F60
18E0
3060
3060
3060
3060
3060
18E0
0F60
0000
0000
0000
0000
ENDCHAR

STARTCHAR 0x65
ENCODING 101
SWIDTH 800 0
DWIDTH 12 0
BBX 12 20 0 -4
BITMAP
0000
0000
0000
0000
0000
0000
0000
0F80
18C0
3060
3060
3FE0
3000
3000
1860
0FC0
0000
0000
0000
0000
ENDCHAR

STARTCHAR 0x66
ENCODING 102
SWIDTH 800 0
DWIDTH 12 0
BBX 12 20 0 -4
BITMAP
0000
0000
0000
0000
03E0
0600
0600
1FC0
0600
0600
0600
0600
0600
0600
0600
0600
0000
0000
0000
0000
ENDCHAR

STARTCHAR 0x67
ENCODING 103
SWIDTH 800 0
DWIDTH 12 0
BBX 12 20 0 -4
BITMAP
0000
0000
0000
0000
0000
0000
0000
0F60
18E0
3060
3060
3060
3060
3060
18E0
0F60
0060
00C0
1F80
0000
ENDCHAR

STARTCHAR 0x68
ENCODING 104
SWIDTH 800 0
DWIDTH 12 0
BBX 12 20 0 -4
BITMAP
0000
0000
0000
0000
3000
3000
3000
3780
38C0
3060
3060
3060
3060
3060
3060
3060
0000
0000
0000
0000
ENDCHAR

STARTCHAR 0x69
ENCODING 105
SWIDTH 800 0
DWIDTH 12 0
BBX 12 20 0 -4
BITMAP
0000
0000
0000
0300
0300
0000
0000
0F00
0300
0300
0300
0300
0300
0300
0300
0FC0
0000
0000
0000
0000
ENDCHAR

STARTCHAR 0x6a
ENCODING 106
SWIDTH 800 0
DWIDTH 12 0
BBX 12 20 0 -4
BITMAP
0000
0000
0000
0300
0300
0000
0000
0F00
0300
0300
0300
0300
0300
0300
0300
0300
0300
0600
1C00
0000
ENDCHAR

STARTCHAR 0x6b
ENCODING 107
SWIDTH 800 0
DWIDTH 12 0
BBX 12 20 0 -4
BITMAP
0000
0000
0000
0000
3000
3000
3000
3040
30C0
3180
3300
3E00
3300
3180
30C0
3060
0000
0000
0000
0000
ENDCHAR

STARTCHAR 0x6c
ENCODING 108
SWIDTH 800 0
DWIDTH 12 0
BBX 12 20 0 -4
BITMAP
0000
0000
0000
0000
1E00
0600
0600
0600
0600
0600
0600
0600
0600
0600
0600
03C0
0000
0000
0000
0000
ENDCHAR

STARTCHAR 0x6d
ENCODING 109
SWIDTH 800 0
DWIDTH 12 0
BBX 12 20 0 -4
BITMAP
0000
0000
0000
0000
0000
0000
0000
6EC0
7760
6660
6660
6660
6660
6660
6660
6660
0000
0000
0000
0000
ENDCHAR

STARTCHAR 0x6e
ENCODING 110
SWIDTH 800 0
DWIDTH 12 0
BBX 12 20 0 -4
BITMAP
0000
0000
0000
0000
0000
0000
0000
3780
38C0
3060
3060
3060
3060
3060
3060
3060
0000
0000
0000
0000
ENDCHAR

STARTCHAR 0x6f
ENCODING 111
SWIDTH 800 0
DWIDTH 12 0
BBX 12 20 0 -4
BITMAP
0000
0000
0000
0000
0000
0000
0000
0F80
18C0
3060
3060
3060
3060
3060
18C0
0F80
0000
0000
0000
0000
ENDCHAR

STARTCHAR 0x70
ENCODING 112
SWIDTH 800 0
DWIDTH 12 0
BBX 12 20 0 -4
BITMAP
0000
0000
0000
0000
0000
0000
0000
3780
38C0
3060
3060
3060
3060
3060
38C0
3780
3000
3000
3000
0000
ENDCHAR

STARTCHAR 0x71
ENCODING 113
SWIDTH 800 0
DWIDTH 12 0
BBX 12 20 0 -4
BITMAP
0000
0000
0000
0000
0000
0000
0000
0F60
18E0
3060
3060
3060
3060
3060
18E0
0F60
0060
0060
0060
0000
ENDCHAR

STARTCHAR 0x72
ENCODING 114
SWIDTH 800 0
DWIDTH 12 0
BBX 12 20 0 -4
BITMAP
0000
0000
0000
0000
0000
0000
0000
1BC0
1C60
1800
1800
1800
1800
1800
1800
1800
0000
0000
0000
0000
ENDCHAR

STARTCHAR 0x73
ENCODING 115
SWIDTH 800 0
DWIDTH 12 0
BBX 12 20 0 -4
BITMAP
0000
0000
0000
0000
0000
0000
0000
1FC0
3060
3000
3000
1FC0
0060
0060
3060
1FC0
0000
0000
0000
0000
ENDCHAR

STARTCHAR 0x74
ENCODING 116
SWIDTH 800 0
DWIDTH 12 0
BBX 12 20 0 -4
BITMAP
0000
0000
0000
0000
0600
0600
0600
1FC0
0600
0600
0600
0600
0600
0600
0600
03C0
0000
0000
0000
0000
ENDCHAR

STARTCHAR 0x75
ENCODING 117
SWIDTH 800 0
DWIDTH 12 0
BBX 12 20 0 -4
BITMAP
0000
0000
0000
0000
0000
0000
0000
3060
3060
3060
3060
3060
3060
3060
18E0
0F60
0000
0000
0000
0000
ENDCHAR

STARTCHAR 0x76
ENCODING 118
SWIDTH 800 0
DWIDTH 12 0
BBX 12 20 0 -4
BITMAP
0000
0000
0000
0000
0000
0000
0000
3060
3060
3060
18C0
18C0
0D80
0D80
0700
0700
0000
0000
0000
0000
ENDCHAR

STARTCHAR 0x77
ENCODING 119
SWIDTH 800 0
DWIDTH 12 0
BBX 12 20 0 -4
BITMAP
0000
0000
0000
0000
0000
0000
0000
6060
6060
6060
6060
6660
6660
6F60
39C0
30C0
0000
0000
0000
0000
ENDCHAR

STARTCHAR 0x78
ENCODING 120
SWIDTH 800 0
DWIDTH 12 0
BBX 12 20 0 -4
BITMAP
0000
0000
0000
0000
0000
0000
0000
3060
3060
18C0
0D80
0700
0D80
18C0
3060
3060
0000
0000
0000
0000
ENDCHAR

STARTCHAR 0x79
ENCODING 121
SWIDTH 800 0
DWIDTH 12 0
BBX 12 20 0 -4
BITMAP
0000
0000
0000
0000
0000
0000
0000
3060
3060
3060
3060
3060
3060
3060
18E0
0F60
0060
00C0
1F80
0000
ENDCHAR

STARTCHAR 0x7a
ENCODING 122
SWIDTH 800 0
DWIDTH 12 0
BBX 12 20 0 -4
BITMAP
0000
0000
0000
0000
0000
0000
0000
3FE0
00C0
0180
0300
0600
0C00
1800
3000
3FE0
0000
0000
0000
0000
ENDCHAR

STARTCHAR 0x7b
ENCODING 123
SWIDTH 800 0
DWIDTH 12 0
BBX 12 20 0 -4
BITMAP
0000
0000
0000
01C0
0300
0300
0300
0300
0300
0600
0C00
0600
0300
0300
0300
0300
0300
01C0
0000
0000
ENDCHAR

STARTCHAR 0x7c
ENCODING 124
SWIDTH 800 0
DWIDTH 12 0
BBX 12 20 0 -4
BITMAP
0000
0600
0600
0600
0600
0600
0600
0600
0600
0600
0600
0600
0600
0600
0600
0600
0600
0600
0600
0000
ENDCHAR

STARTCHAR 0x7d
ENCODING 125
SWIDTH 800 0
DWIDTH 12 0
BBX 12 20 0 -4
BITMAP
0000
0000
0000
1C00
0600
0600
0600
0600
0600
0300
0180
0300
0600
0600
0600
0600
0600
1C00
0000
0000
ENDCHAR

STARTCHAR 0x7e
ENCODING 126
SWIDTH 800 0
DWIDTH 12 0
BBX 12 20 0 -4
BITMAP
0000
0E20
1B60
11C0
0000
0000
0000
0000
0000
0000
0000
0000
0000
0000
0000
0000
0000
0000
0000
0000
ENDCHAR

STARTCHAR 0x7f
ENCODING 127
SWIDTH 800 0
DWIDTH 12 0
BBX 12 20 0 -4
BITMAP
0000
0000
0000
0000
0000
0000
0200
0700
0D80
18C0
3060
3060
3060
3060
3060
3FE0
0000
0000
0000
0000
ENDCHAR

STARTCHAR 0x80
ENCODING 128
SWIDTH 800 0
DWIDTH 12 0
BBX 12 20 0 -4
BITMAP
0000
0000
0000
0000
0F80
18C0
3060
3000
3000
3000
3000
3000
3000
3060
18C0
0F80
0300
0180
0700
0000
ENDCHAR

STARTCHAR 0x81
ENCODING 129
SWIDTH 800 0
DWIDTH 12 0
BBX 12 20 0 -4
BITMAP
0000
0000
0000
3060
3060
0000
0000
3060
3060
3060
3060
3060
3060
3060
18E0
0F60
0000
0000
0000
0000
ENDCHAR

STARTCHAR 0x82
ENCODING 130
SWIDTH 800 0
DWIDTH 12 0
BBX 12 20 0 -4
BITMAP
0000
0000
0180
0300
0600
0000
0000
0F80
18C0
3060
3060
3FE0
3000
3000
1860
0FC0
0000
0000
0000
0000
ENDCHAR

STARTCHAR 0x83
ENCODING 131
SWIDTH 800 0
DWIDTH 12 0
BBX 12 20 0 -4
BITMAP
0000
0200
0700
0D80
18C0
0000
0000
0F80
00C0
0060
0FE0
1860
3060
3060
18E0
0F60
0000
0000
0000
0000
ENDCHAR

STARTCHAR 0x84
ENCODING 132
SWIDTH 800 0
DWIDTH 12 0
BBX 12 20 0 -4
BITMAP
0000
0000
0000
18C0
18C0
0000
0000
0F80
00C0
0060
0FE0
1860
3060
3060
18E0
0F60
0000
0000
0000
0000
ENDCHAR

STARTCHAR 0x85
ENCODING 133
SWIDTH 800 0
DWIDTH 12 0
BBX 12 20 0 -4
BITMAP
0000
0000
0600
0300
0180
0000
0000
0F80
00C0
0060
0FE0
1860
3060
3060
18E0
0F60
0000
0000
0000
0000
ENDCHAR

STARTCHAR 0x86
ENCODING 134
SWIDTH 800 0
DWIDTH 12 0
BBX 12 20 0 -4
BITMAP
0000
0780
0CC0
0CC0
0780
0000
0000
0F80
00C0
0060
0FE0
1860
3060
3060
18E0
0F60
0000
0000
0000
0000
ENDCHAR

STARTCHAR 0x87
ENCODING 135
SWIDTH 800 0
DWIDTH 12 0
BBX 12 20 0 -4
BITMAP
0000
0000
0000
0000
0000
0000
0000
0F80
18C0
3060
3000
3000
3000
3060
18C0
0F80
0300
0180
0700
0000
ENDCHAR

STARTCHAR 0x88
ENCODING 136
SWIDTH 800 0
DWIDTH 12 0
BBX 12 20 0 -4
BITMAP
0000
0200
0700
0D80
18C0
0000
0000
0F80
18C0
3060
3060
3FE0
3000
3000
1860
0FC0
0000
0000
0000
0000
ENDCHAR

STARTCHAR 0x89
ENCODING 137
SWIDTH 800 0
DWIDTH 12 0
BBX 12 20 0 -4
BITMAP
0000
0000
0000
18C0
18C0
0000
0000
0F80
18C0
3060
3060
3FE0
3000
3000
1860
0FC0
0000
0000
0000
0000
ENDCHAR

STARTCHAR 0x8a
ENCODING 138
SWIDTH 800 0
DWIDTH 12 0
BBX 12 20 0 -4
BITMAP
0000
0000
0C00
0600
0300
0000
0000
0F80
18C0
3060
3060
3FE0
3000
3000
1860
0FC0
0000
0000
0000
0000
ENDCHAR

STARTCHAR 0x8b
ENCODING 139
SWIDTH 800 0
DWIDTH 12 0
BBX 12 20 0 -4
BITMAP
0000
0000
0000
18C0
18C0
0000
0000
0F00
0300
0300
0300
0300
0300
0300
0300
0FC0
0000
0000
0000
0000
ENDCHAR

STARTCHAR 0x8c
ENCODING 140
SWIDTH 800 0
DWIDTH 12 0
BBX 12 20 0 -4
BITMAP
0000
0200
0700
0D80
18C0
0000
0000
0F00
0300
0300
0300
0300
0300
0300
0300
0FC0
0000
0000
0000
0000
ENDCHAR

STARTCHAR 0x8d
ENCODING 141
SWIDTH 800 0
DWIDTH 12 0
BBX 12 20 0 -4
BITMAP
0000
0000
0C00
0600
0300
0000
0000
0F00
0300
0300
0300
0300
0300
0300
0300
0FC0
0000
0000
0000
0000
ENDCHAR

STARTCHAR 0x8e
ENCODING 142
SWIDTH 800 0
DWIDTH 12 0
BBX 12 20 0 -4
BITMAP
0000
18C0
18C0
0000
0700
0D80
18C0
3060
3060
3060
3FE0
3060
3060
3060
3060
3060
0000
0000
0000
0000
ENDCHAR

STARTCHAR 0x8f
ENCODING 143
SWIDTH 800 0
DWIDTH 12 0
BBX 12 20 0 -4
BITMAP
0000
0F80
18C0
18C0
0F80
0D80
18C0
3060
3060
3060
3FE0
3060
3060
3060
3060
3060
0000
0000
0000
0000
ENDCHAR

STARTCHAR 0x90
ENCODING 144
SWIDTH 800 0
DWIDTH 12 0
BBX 12 20 0 -4
BITMAP
0180
0300
0600
0000
3FE0
3000
3000
3000
3000
3FC0
3000
3000
3000
3000
3000
3FE0
0000
0000
0000
0000
ENDCHAR

STARTCHAR 0x91
ENCODING 145
SWIDTH 800 0
DWIDTH 12 0
BBX 12 20 0 -4
BITMAP
0000
0000
0000
0000
0000
0000
0000
3DC0
6660
0660
0660
3FC0
6600
6600
6660
3BC0
0000
0000
0000
0000
ENDCHAR

STARTCHAR 0x92
ENCODING 146
SWIDTH 800 0
DWIDTH 12 0
BBX 12 20 0 -4
BITMAP
0000
0000
0000
0000
07E0
0D80
1980
3180
3180
31E0
3F80
3180
3180
3180
3180
31E0
0000
0000
0000
0000
ENDCHAR

STARTCHAR 0x93
ENCODING 147
SWIDTH 800 0
DWIDTH 12 0
BBX 12 20 0 -4
BITMAP
0000
0200
0700
0D80
18C0
0000
0000
0F80
18C0
3060
3060
3060
3060
3060
18C0
0F80
0000
0000
0000
0000
ENDCHAR

STARTCHAR 0x94
ENCODING 148
SWIDTH 800 0
DWIDTH 12 0
BBX 12 20 0 -4
BITMAP
0000
0000
0000
18C0
18C0
0000
0000
0F80
18C0
3060
3060
3060
3060
3060
18C0
0F80
0000
0000
0000
0000
ENDCHAR

STARTCHAR 0x95
ENCODING 149
SWIDTH 800 0
DWIDTH 12 0
BBX 12 20 0 -4
BITMAP
0000
0000
0C00
0600
0300
0000
0000
0F80
18C0
3060
3060
3060
3060
3060
18C0
0F80
0000
0000
0000
0000
ENDCHAR

STARTCHAR 0x96
ENCODING 150
SWIDTH 800 0
DWIDTH 12 0
BBX 12 20 0 -4
BITMAP
0000
0200
0700
0D80
18C0
0000
0000
3060
3060
3060
3060
3060
3060
3060
18E0
0F60
0000
0000
0000
0000
ENDCHAR

STARTCHAR 0x97
ENCODING 151
SWIDTH 800 0
DWIDTH 12 0
BBX 12 20 0 -4
BITMAP
0000
0000
0C00
0600
0300
0000
0000
3060
3060
3060
3060
3060
3060
3060
18E0
0F60
0000
0000
0000
0000
ENDCHAR

STARTCHAR 0x98
ENCODING 152
SWIDTH 800 0
DWIDTH 12 0
BBX 12 20 0 -4
BITMAP
0000
0000
0000
18C0
18C0
0000
0000
3060
3060
3060
3060
3060
3060
3060
18E0
0F60
0060
00C0
1F80
0000
ENDCHAR

STARTCHAR 0x99
ENCODING 153
SWIDTH 800 0
DWIDTH 12 0
BBX 12 20 0 -4
BITMAP
0000
18C0
18C0
0000
0F80
18C0
3060
3060
3060
3060
3060
3060
3060
3060
18C0
0F80
0000
0000
0000
0000
ENDCHAR

STARTCHAR 0x9a
ENCODING 154
SWIDTH 800 0
DWIDTH 12 0
BBX 12 20 0 -4
BITMAP
0000
18C0
18C0
0000
3060
3060
3060
3060
3060
3060
3060
3060
3060
3060
18C0
0F80
0000
0000
0000
0000
ENDCHAR

STARTCHAR 0x9b
ENCODING 155
SWIDTH 800 0
DWIDTH 12 0
BBX 12 20 0 -4
BITMAP
0000
0000
0000
0000
0000
0000
0000
0F80
18C0
30E0
3160
3260
3460
3860
18C0
0F80
0000
0000
0000
0000
ENDCHAR

STARTCHAR 0x9c
ENCODING 156
SWIDTH 800 0
DWIDTH 12 0
BBX 12 20 0 -4
BITMAP
0000
0000
0000
0000
0780
0CC0
1840
1800
1800
3F00
1800
1800
1800
1800
3E60
33C0
0000
0000
0000
0000
ENDCHAR

STARTCHAR 0x9d
ENCODING 157
SWIDTH 800 0
DWIDTH 12 0
BBX 12 20 0 -4
BITMAP
0000
0000
0000
0000
0F80
18C0
30E0
3160
3160
3260
3260
3460
3460
3860
18C0
0FC0
0000
0000
0000
0000
ENDCHAR

STARTCHAR 0x9e
ENCODING 158
SWIDTH 800 0
DWIDTH 12 0
BBX 12 20 0 -4
BITMAP
0000
0000
0000
0000
0000
0000
3060
18C0
0D80
0700
0700
0D80
18C0
3060
0000
0000
0000
0000
0000
0000
ENDCHAR

STARTCHAR 0x9f
ENCODING 159
SWIDTH 800 0
DWIDTH 12 0
BBX 12 20 0 -4
BITMAP
0000
0000
0000
0000
0380
06C0
0600
0600
0600
1FC0
0600
0600
0600
0600
0600
0600
3600
1C00
0000
0000
ENDCHAR

STARTCHAR 0xa0
ENCODING 160
SWIDTH 800 0
DWIDTH 12 0
BBX 12 20 0 -4
BITMAP
0000
0000
0180
0300
0600
0000
0000
0F80
00C0
0060
0FE0
1860
3060
3060
18E0
0F60
0000
0000
0000
0000
ENDCHAR

STARTCHAR 0xa1
ENCODING 161
SWIDTH 800 0
DWIDTH 12 0
BBX 12 20 0 -4
BITMAP
0000
0000
0180
0300
0600
0000
0000
0F00
0300
0300
0300
0300
0300
0300
0300
0FC0
0000
0000
0000
0000
ENDCHAR

STARTCHAR 0xa2
ENCODING 162
SWIDTH 800 0
DWIDTH 12 0
BBX 12 20 0 -4
BITMAP
0000
0000
0180
0300
0600
0000
0000
0F80
18C0
3060
3060
3060
3060
3060
18C0
0F80
0000
0000
0000
0000
ENDCHAR

STARTCHAR 0xa3
ENCODING 163
SWIDTH 800 0
DWIDTH 12 0
BBX 12 20 0 -4
BITMAP
0000
0000
0180
0300
0600
0000
0000
3060
3060
3060
3060
3060
3060
3060
18E0
0F60
0000
0000
0000
0000
ENDCHAR

STARTCHAR 0xa4
ENCODING 164
SWIDTH 800 0
DWIDTH 12 0
BBX 12 20 0 -4
BITMAP
0000
0000
1C40
36C0
2380
0000
0000
3780
38C0
3060
3060
3060
3060
3060
3060
3060
0000
0000
0000
0000
ENDCHAR

STARTCHAR 0xa5
ENCODING 165
SWIDTH 800 0
DWIDTH 12 0
BBX 12 20 0 -4
BITMAP
1C40
36C0
2380
0000
3060
3060
3860
3C60
3460
3660
3360
3160
31E0
30E0
3060
3060
0000
0000
0000
0000
ENDCHAR

STARTCHAR 0xa6
ENCODING 166
SWIDTH 800 0
DWIDTH 12 0
BBX 12 20 0 -4
BITMAP
0000
0000
0000
0F80
00C0
0FC0
18C0
0FC0
0000
1FC0
0000
0000
0000
0000
0000
0000
0000
0000
0000
0000
ENDCHAR

STARTCHAR 0xa7
ENCODING 167
SWIDTH 800 0
DWIDTH 12 0
BBX 12 20 0 -4
BITMAP
0000
0000
0000
0F80
18C0
18C0
18C0
0F80
0000
1FC0
0000
0000
0000
0000
0000
0000
0000
0000
0000
0000
ENDCHAR

STARTCHAR 0xa8
ENCODING 168
SWIDTH 800 0
DWIDTH 12 0
BBX 12 20 0 -4
BITMAP
0000
0000
0000
0000
0600
0600
0000
0600
0600
0C00
1800
3000
3060
3060
18C0
0F80
0000
0000
0000
0000
ENDCHAR

STARTCHAR 0xa9
ENCODING 169
SWIDTH 800 0
DWIDTH 12 0
BBX 12 20 0 -4
BITMAP
0000
0000
0000
0F80
1040
2620
2520
2520
2620
2520
2520
1040
0F80
0000
0000
0000
0000
0000
0000
0000
ENDCHAR

STARTCHAR 0xaa
ENCODING 170
SWIDTH 800 0
DWIDTH 12 0
BBX 12 20 0 -4
BITMAP
0000
0000
0000
0000
0000
0000
0000
0000
3FC0
00C0
00C0
00C0
00C0
00C0
0000
0000
0000
0000
0000
0000
ENDCHAR

STARTCHAR 0xab
ENCODING 171
SWIDTH 800 0
DWIDTH 12 0
BBX 12 20 0 -4
BITMAP
0000
0000
1800
3800
1820
1860
18C0
1980
0300
0600
0C00
19C0
3260
2060
00C0
0180
03E0
0000
0000
0000
ENDCHAR

STARTCHAR 0xac
ENCODING 172
SWIDTH 800 0
DWIDTH 12 0
BBX 12 20 0 -4
BITMAP
0000
0000
1800
3800
1820
1860
18C0
1980
0300
0600
0C60
18E0
3160
2260
03E0
0060
0060
0000
0000
0000
ENDCHAR

STARTCHAR 0xad
ENCODING 173
SWIDTH 800 0
DWIDTH 12 0
BBX 12 20 0 -4
BITMAP
0000
0000
0000
0000
0600
0600
0000
0600
0600
0600
0600
0600
0600
0600
0600
0600
0000
0000
0000
0000
ENDCHAR

STARTCHAR 0xae
ENCODING 174
SWIDTH 800 0
DWIDTH 12 0
BBX 12 20 0 -4
BITMAP
0000
0000
0000
0000
0000
0000
0000
0660
0CC0
1980
3300
1980
0CC0
0660
0000
0000
0000
0000
0000
0000
ENDCHAR

STARTCHAR 0xaf
ENCODING 175
SWIDTH 800 0
DWIDTH 12 0
BBX 12 20 0 -4
BITMAP
0000
0000
0000
0000
0000
0000
0000
3300
1980
0CC0
0660
0CC0
1980
3300
0000
0000
0000
0000
0000
0000
ENDCHAR

STARTCHAR 0x87
ENCODING 176
SWIDTH 800 0
DWIDTH 12 0
BBX 12 20 0 -4
BITMAP
0000
0000
0000
0000
0000
0300
0300
0F80
1BC0
3360
3300
3300
3300
3360
1BC0
0F80
0300
03E0
03E0
0000
ENDCHAR

STARTCHAR 0xb1
ENCODING 177
SWIDTH 800 0
DWIDTH 12 0
BBX 12 20 0 -4
BITMAP
0000
0000
0000
0000
0000
0000
0000
00C0
0300
0C00
3000
0C00
0300
00C0
0000
3FC0
0000
0000
0000
0000
ENDCHAR

STARTCHAR 0xb2
ENCODING 178
SWIDTH 800 0
DWIDTH 12 0
BBX 12 20 0 -4
BITMAP
0000
0000
0000
3FE0
0200
0200
0F80
1240
2220
2220
2220
2220
2220
1240
0F80
0200
0200
3FE0
0000
0000
ENDCHAR

STARTCHAR 0xb3
ENCODING 179
SWIDTH 800 0
DWIDTH 12 0
BBX 12 20 0 -4
BITMAP
0000
0000
0000
3F80
0400
0400
0400
0400
0400
0400
0400
0400
3F80
1F00
0E00
0400
0000
0000
0000
0000
ENDCHAR

STARTCHAR 0xb4
ENCODING 180
SWIDTH 800 0
DWIDTH 12 0
BBX 12 20 0 -4
BITMAP
0000
0000
0000
0000
0000
0000
30C0
30C0
30C0
30C0
30C0
30C0
30C0
30C0
30C0
3FC0
0000
0000
0000
0000
ENDCHAR

STARTCHAR 0xb5
ENCODING 181
SWIDTH 800 0
DWIDTH 12 0
BBX 12 20 0 -4
BITMAP
0180
0300
0600
0000
0700
0D80
18C0
3060
3060
3060
3FE0
3060
3060
3060
3060
3060
0000
0000
0000
0000
ENDCHAR

STARTCHAR 0xb6
ENCODING 182
SWIDTH 800 0
DWIDTH 12 0
BBX 12 20 0 -4
BITMAP
0200
0700
0D80
0000
0700
0D80
18C0
3060
3060
3060
3FE0
3060
3060
3060
3060
3060
0000
0000
0000
0000
ENDCHAR

STARTCHAR 0xb7
ENCODING 183
SWIDTH 800 0
DWIDTH 12 0
BBX 12 20 0 -4
BITMAP
0C00
0600
0300
0000
0700
0D80
18C0
3060
3060
3060
3FE0
3060
3060
3060
3060
3060
0000
0000
0000
0000
ENDCHAR

STARTCHAR 0xb8
ENCODING 184
SWIDTH 800 0
DWIDTH 12 0
BBX 12 20 0 -4
BITMAP
0000
0000
0000
0F80
1040
2720
28A0
2820
2820
28A0
2720
1040
0F80
0000
0000
0000
0000
0000
0000
0000
ENDCHAR

STARTCHAR 0xb9
ENCODING 185
SWIDTH 800 0
DWIDTH 12 0
BBX 12 20 0 -4
BITMAP
1980
1980
1980
1980
1980
1980
1980
F980
F980
0180
0180
F980
F980
1980
1980
1980
1980
1980
1980
1980
ENDCHAR

STARTCHAR 0xba
ENCODING 186
SWIDTH 800 0
DWIDTH 12 0
BBX 12 20 0 -4
BITMAP
1980
1980
1980
1980
1980
1980
1980
1980
1980
1980
1980
1980
1980
1980
1980
1980
1980
1980
1980
1980
ENDCHAR

STARTCHAR 0xbb
ENCODING 187
SWIDTH 800 0
DWIDTH 12 0
BBX 12 20 0 -4
BITMAP
0000
0000
0000
0000
0000
0000
0000
FF80
FF80
0180
0180
F980
F980
1980
1980
1980
1980
1980
1980
1980
ENDCHAR

STARTCHAR 0xbc
ENCODING 188
SWIDTH 800 0
DWIDTH 12 0
BBX 12 20 0 -4
BITMAP
1980
1980
1980
1980
1980
1980
1980
F980
F980
0180
0180
FF80
FF80
0000
0000
0000
0000
0000
0000
0000
ENDCHAR

STARTCHAR 0xbd
ENCODING 189
SWIDTH 800 0
DWIDTH 12 0
BBX 12 20 0 -4
BITMAP
0000
0000
0000
0200
0200
0F80
1AC0
3260
3200
3200
3200
3260
1AC0
0F80
0200
0200
0000
0000
0000
0000
ENDCHAR

STARTCHAR 0xbe
ENCODING 190
SWIDTH 800 0
DWIDTH 12 0
BBX 12 20 0 -4
BITMAP
0000
0000
0000
0000
6060
6060
30C0
30C0
1980
0F00
0600
3FC0
0600
3FC0
0600
0600
0000
0000
0000
0000
ENDCHAR

STARTCHAR 0xbf
ENCODING 191
SWIDTH 800 0
DWIDTH 12 0
BBX 12 20 0 -4
BITMAP
0000
0000
0000
0000
0000
0000
0000
0000
0000
FE00
FE00
0600
0600
0600
0600
0600
0600
0600
0600
0600
ENDCHAR

STARTCHAR 0xc0
ENCODING 192
SWIDTH 800 0
DWIDTH 12 0
BBX 12 20 0 -4
BITMAP
0600
0600
0600
0600
0600
0600
0600
0600
0600
07F0
07F0
0000
0000
0000
0000
0000
0000
0000
0000
0000
ENDCHAR

STARTCHAR 0xc1
ENCODING 193
SWIDTH 800 0
DWIDTH 12 0
BBX 12 20 0 -4
BITMAP
0000
0000
0000
0000
0000
0000
0000
3000
0C00
0300
00C0
0300
0C00
3000
0000
3FC0
0000
0000
0000
0000
ENDCHAR

STARTCHAR 0xc2
ENCODING 194
SWIDTH 800 0
DWIDTH 12 0
BBX 12 20 0 -4
BITMAP
0000
0000
0000
0F00
1080
2040
4020
4020
4020
2040
2040
1080
1080
0900
0900
79E0
0000
0000
0000
0000
ENDCHAR

STARTCHAR 0xc3
ENCODING 195
SWIDTH 800 0
DWIDTH 12 0
BBX 12 20 0 -4
BITMAP
0000
0000
0000
0000
0000
C030
6060
30C0
1980
0F00
0600
0000
0000
0000
0000
0000
0000
0000
0000
0000
ENDCHAR

STARTCHAR 0xfe
ENCODING 196
SWIDTH 800 0
DWIDTH 12 0
BBX 12 20 0 -4
BITMAP
0000
0000
0000
0000
0000
0000
1F80
1F80
1F80
1F80
1F80
1F80
0000
0000
0000
0000
0000
0000
0000
0000
ENDCHAR

STARTCHAR 0xc5
ENCODING 197
SWIDTH 800 0
DWIDTH 12 0
BBX 12 20 0 -4
BITMAP
0600
0600
0600
0600
0600
0600
0600
0600
0600
FFF0
FFF0
0600
0600
0600
0600
0600
0600
0600
0600
0600
ENDCHAR

STARTCHAR 0xc6
ENCODING 198
SWIDTH 800 0
DWIDTH 12 0
BBX 12 20 0 -4
BITMAP
0000
0000
0E20
1B60
11C0
0000
0000
0F80
00C0
0060
0FE0
1860
3060
3060
18E0
0F60
0000
0000
0000
0000
ENDCHAR

STARTCHAR 0xc7
ENCODING 199
SWIDTH 800 0
DWIDTH 12 0
BBX 12 20 0 -4
BITMAP
1C40
36C0
2380
0000
0700
0D80
18C0
3060
3060
3060
3FE0
3060
3060
3060
3060
3060
0000
0000
0000
0000
ENDCHAR

STARTCHAR 0xc8
ENCODING 200
SWIDTH 800 0
DWIDTH 12 0
BBX 12 20 0 -4
BITMAP
1980
1980
1980
1980
1980
1980
1980
19F0
19F0
1800
1800
1FF0
1FF0
0000
0000
0000
0000
0000
0000
0000
ENDCHAR

STARTCHAR 0xc9
ENCODING 201
SWIDTH 800 0
DWIDTH 12 0
BBX 12 20 0 -4
BITMAP
0000
0000
0000
0000
0000
0000
0000
1FF0
1FF0
1800
1800
19F0
19F0
1980
1980
1980
1980
1980
1980
1980
ENDCHAR

STARTCHAR 0xca
ENCODING 202
SWIDTH 800 0
DWIDTH 12 0
BBX 12 20 0 -4
BITMAP
1980
1980
1980
1980
1980
1980
1980
F9F0
F9F0
0000
0000
FFF0
FFF0
0000
0000
0000
0000
0000
0000
0000
ENDCHAR

STARTCHAR 0xcb
ENCODING 203
SWIDTH 800 0
DWIDTH 12 0
BBX 12 20 0 -4
BITMAP
0000
0000
0000
0000
0000
0000
0000
FFF0
FFF0
0000
0000
F9F0
F9F0
1980
1980
1980
1980
1980
1980
1980
ENDCHAR

STARTCHAR 0xcc
ENCODING 204
SWIDTH 800 0
DWIDTH 12 0
BBX 12 20 0 -4
BITMAP
1980
1980
1980
1980
1980
1980
1980
19F0
19F0
1800
1800
19F0
19F0
1980
1980
1980
1980
1980
1980
1980
ENDCHAR

STARTCHAR 0xcd
ENCODING 205
SWIDTH 800 0
DWIDTH 12 0
BBX 12 20 0 -4
BITMAP
0000
0000
0000
0000
0000
0000
0000
FFF0
FFF0
0000
0000
FFF0
FFF0
0000
0000
0000
0000
0000
0000
0000
ENDCHAR

STARTCHAR 0xce
ENCODING 206
SWIDTH 800 0
DWIDTH 12 0
BBX 12 20 0 -4
BITMAP
1980
1980
1980
1980
1980
1980
1980
F9F0
F9F0
0000
0000
F9F0
F9F0
1980
1980
1980
1980
1980
1980
1980
ENDCHAR

STARTCHAR 0xcf
ENCODING 207
SWIDTH 800 0
DWIDTH 12 0
BBX 12 20 0 -4
BITMAP
0000
0000
0000
0000
0000
3060
1FC0
0D80
18C0
18C0
18C0
18C0
0D80
1FC0
3060
0000
0000
0000
0000
0000
ENDCHAR

STARTCHAR 0xd0
ENCODING 208
SWIDTH 800 0
DWIDTH 12 0
BBX 12 20 0 -4
BITMAP
0000
0000
0000
0000
1B80
0E00
3B00
0180
0FC0
18C0
3060
3060
3060
3060
18C0
0F80
0000
0000
0000
0000
ENDCHAR

STARTCHAR 0xd1
ENCODING 209
SWIDTH 800 0
DWIDTH 12 0
BBX 12 20 0 -4
BITMAP
0000
0000
0000
0000
1F80
18C0
1860
1860
1860
3E60
1860
1860
1860
1860
18C0
1F80
0000
0000
0000
0000
ENDCHAR

STARTCHAR 0xd2
ENCODING 210
SWIDTH 800 0
DWIDTH 12 0
BBX 12 20 0 -4
BITMAP
0200
0700
0D80
0000
3FE0
3000
3000
3000
3000
3FC0
3000
3000
3000
3000
3000
3FE0
0000
0000
0000
0000
ENDCHAR

STARTCHAR 0xd3
ENCODING 211
SWIDTH 800 0
DWIDTH 12 0
BBX 12 20 0 -4
BITMAP
0000
18C0
18C0
0000
3FE0
3000
3000
3000
3000
3FC0
3000
3000
3000
3000
3000
3FE0
0000
0000
0000
0000
ENDCHAR

STARTCHAR 0xd4
ENCODING 212
SWIDTH 800 0
DWIDTH 12 0
BBX 12 20 0 -4
BITMAP
0C00
0600
0300
0000
3FE0
3000
3000
3000
3000
3FC0
3000
3000
3000
3000
3000
3FE0
0000
0000
0000
0000
ENDCHAR

STARTCHAR 0xd5
ENCODING 213
SWIDTH 800 0
DWIDTH 12 0
BBX 12 20 0 -4
BITMAP
0000
0000
0000
0000
0000
0000
0000
0F00
0300
0300
0300
0300
0300
0300
0300
0FC0
0000
0000
0000
0000
ENDCHAR

STARTCHAR 0xd6
ENCODING 214
SWIDTH 800 0
DWIDTH 12 0
BBX 12 20 0 -4
BITMAP
0180
0300
0600
0000
1F80
0600
0600
0600
0600
0600
0600
0600
0600
0600
0600
1F80
0000
0000
0000
0000
ENDCHAR

STARTCHAR 0xd7
ENCODING 215
SWIDTH 800 0
DWIDTH 12 0
BBX 12 20 0 -4
BITMAP
0600
0F00
1980
0000
1F80
0600
0600
0600
0600
0600
0600
0600
0600
0600
0600
1F80
0000
0000
0000
0000
ENDCHAR

STARTCHAR 0xd8
ENCODING 216
SWIDTH 800 0
DWIDTH 12 0
BBX 12 20 0 -4
BITMAP
0000
30C0
30C0
0000
1F80
0600
0600
0600
0600
0600
0600
0600
0600
0600
0600
1F80
0000
0000
0000
0000
ENDCHAR

STARTCHAR 0xd9
ENCODING 217
SWIDTH 800 0
DWIDTH 12 0
BBX 12 20 0 -4
BITMAP
0600
0600
0600
0600
0600
0600
0600
0600
0600
FE00
FE00
0000
0000
0000
0000
0000
0000
0000
0000
0000
ENDCHAR

STARTCHAR 0xda
ENCODING 218
SWIDTH 800 0
DWIDTH 12 0
BBX 12 20 0 -4
BITMAP
0000
0000
0000
0000
0000
0000
0000
0000
0000
07F0
07F0
0600
0600
0600
0600
0600
0600
0600
0600
0600
ENDCHAR

STARTCHAR 0xdb
ENCODING 219
SWIDTH 800 0
DWIDTH 12 0
BBX 12 20 0 -4
BITMAP
FFF0
FFF0
FFF0
FFF0
FFF0
FFF0
FFF0
FFF0
FFF0
FFF0
FFF0
FFF0
FFF0
FFF0
FFF0
FFF0
FFF0
FFF0
FFF0
FFF0
ENDCHAR

STARTCHAR 0xdc
ENCODING 220
SWIDTH 800 0
DWIDTH 12 0
BBX 12 20 0 -4
BITMAP
0000
0000
0000
0000
0000
0000
0000
0000
0000
0000
FFF0
FFF0
FFF0
FFF0
FFF0
FFF0
FFF0
FFF0
FFF0
FFF0
ENDCHAR

STARTCHAR 0xdd
ENCODING 221
SWIDTH 800 0
DWIDTH 12 0
BBX 12 20 0 -4
BITMAP
0000
0600
0600
0600
0600
0600
0600
0600
0600
0000
0000
0600
0600
0600
0600
0600
0600
0600
0600
0000
ENDCHAR

STARTCHAR 0xde
ENCODING 222
SWIDTH 800 0
DWIDTH 12 0
BBX 12 20 0 -4
BITMAP
0600
0300
0180
0000
1F80
0600
0600
0600
0600
0600
0600
0600
0600
0600
0600
1F80
0000
0000
0000
0000
ENDCHAR

STARTCHAR 0xdf
ENCODING 223
SWIDTH 800 0
DWIDTH 12 0
BBX 12 20 0 -4
BITMAP
FFF0
FFF0
FFF0
FFF0
FFF0
FFF0
FFF0
FFF0
FFF0
FFF0
0000
0000
0000
0000
0000
0000
0000
0000
0000
0000
ENDCHAR

STARTCHAR 0xe0
ENCODING 224
SWIDTH 800 0
DWIDTH 12 0
BBX 12 20 0 -4
BITMAP
0180
0300
0600
0000
0F80
18C0
3060
3060
3060
3060
3060
3060
3060
3060
18C0
0F80
0000
0000
0000
0000
ENDCHAR

STARTCHAR 0xe1
ENCODING 225
SWIDTH 800 0
DWIDTH 12 0
BBX 12 20 0 -4
BITMAP
0000
0000
0000
0000
0F00
1980
30C0
30C0
3180
3380
30C0
3060
3060
3060
30C0
3380
3000
0000
0000
0000
ENDCHAR

STARTCHAR 0xe2
ENCODING 226
SWIDTH 800 0
DWIDTH 12 0
BBX 12 20 0 -4
BITMAP
0200
0700
0D80
0000
0F80
18C0
3060
3060
3060
3060
3060
3060
3060
3060
18C0
0F80
0000
0000
0000
0000
ENDCHAR

STARTCHAR 0xe3
ENCODING 227
SWIDTH 800 0
DWIDTH 12 0
BBX 12 20 0 -4
BITMAP
0C00
0600
0300
0000
0F80
18C0
3060
3060
3060
3060
3060
3060
3060
3060
18C0
0F80
0000
0000
0000
0000
ENDCHAR

STARTCHAR 0xe4
ENCODING 228
SWIDTH 800 0
DWIDTH 12 0
BBX 12 20 0 -4
BITMAP
0000
0000
1C40
36C0
2380
0000
0000
0F80
18C0
3060
3060
3060
3060
3060
18C0
0F80
0000
0000
0000
0000
ENDCHAR

STARTCHAR 0xe5
ENCODING 229
SWIDTH 800 0
DWIDTH 12 0
BBX 12 20 0 -4
BITMAP
1C40
36C0
2380
0000
0F80
18C0
3060
3060
3060
3060
3060
3060
3060
3060
18C0
0F80
0000
0000
0000
0000
ENDCHAR

STARTCHAR 0xe6
ENCODING 230
SWIDTH 800 0
DWIDTH 12 0
BBX 12 20 0 -4
BITMAP
0000
0000
0000
0000
0000
0000
0000
30C0
30C0
30C0
30C0
30C0
30C0
30C0
39C0
3760
3000
3000
3000
0000
ENDCHAR

STARTCHAR 0xe7
ENCODING 231
SWIDTH 800 0
DWIDTH 12 0
BBX 12 20 0 -4
BITMAP
0000
0000
0000
0000
3000
3000
3000
3780
38C0
3060
3060
3060
3060
3060
38C0
3780
3000
3000
3000
0000
ENDCHAR

STARTCHAR 0xe8
ENCODING 232
SWIDTH 800 0
DWIDTH 12 0
BBX 12 20 0 -4
BITMAP
0000
0000
0000
0000
3000
3000
3F80
30C0
3060
3060
3060
3060
30C0
3F80
3000
3000
0000
0000
0000
0000
ENDCHAR

STARTCHAR 0xe9
ENCODING 233
SWIDTH 800 0
DWIDTH 12 0
BBX 12 20 0 -4
BITMAP
0180
0300
0600
0000
3060
3060
3060
3060
3060
3060
3060
3060
3060
3060
18C0
0F80
0000
0000
0000
0000
ENDCHAR

STARTCHAR 0xea
ENCODING 234
SWIDTH 800 0
DWIDTH 12 0
BBX 12 20 0 -4
BITMAP
0200
0700
0D80
0000
3060
3060
3060
3060
3060
3060
3060
3060
3060
3060
18C0
0F80
0000
0000
0000
0000
ENDCHAR

STARTCHAR 0xeb
ENCODING 235
SWIDTH 800 0
DWIDTH 12 0
BBX 12 20 0 -4
BITMAP
0C00
0600
0300
0000
3060
3060
3060
3060
3060
3060
3060
3060
3060
3060
18C0
0F80
0000
0000
0000
0000
ENDCHAR

STARTCHAR 0xec
ENCODING 236
SWIDTH 800 0
DWIDTH 12 0
BBX 12 20 0 -4
BITMAP
0000
0000
0180
0300
0600
0000
0000
3060
3060
3060
3060
3060
3060
3060
18E0
0F60
0060
00C0
1F80
0000
ENDCHAR

STARTCHAR 0xed
ENCODING 237
SWIDTH 800 0
DWIDTH 12 0
BBX 12 20 0 -4
BITMAP
0180
0300
0600
0000
6060
6060
30C0
30C0
1980
0F00
0600
0600
0600
0600
0600
0600
0000
0000
0000
0000
ENDCHAR

STARTCHAR 0xee
ENCODING 238
SWIDTH 800 0
DWIDTH 12 0
BBX 12 20 0 -4
BITMAP
0000
FFF0
0000
0000
0000
0000
0000
0000
0000
0000
0000
0000
0000
0000
0000
0000
0000
0000
0000
0000
ENDCHAR

STARTCHAR 0xef
ENCODING 239
SWIDTH 800 0
DWIDTH 12 0
BBX 12 20 0 -4
BITMAP
0000
0180
0300
0600
0000
0000
0000
0000
0000
0000
0000
0000
0000
0000
0000
0000
0000
0000
0000
0000
ENDCHAR

STARTCHAR 0xf0
ENCODING 240
SWIDTH 800 0
DWIDTH 12 0
BBX 12 20 0 -4
BITMAP
0000
0000
0000
0000
0000
0000
0000
0000
0000
1FC0
0000
0000
0000
0000
0000
0000
0000
0000
0000
0000
ENDCHAR

STARTCHAR 0xf1
ENCODING 241
SWIDTH 800 0
DWIDTH 12 0
BBX 12 20 0 -4
BITMAP
0000
0000
0000
0000
0000
0600
0600
0600
3FC0
0600
0600
0600
0000
0000
3FC0
0000
0000
0000
0000
0000
ENDCHAR

STARTCHAR 0xf2
ENCODING 242
SWIDTH 800 0
DWIDTH 12 0
BBX 12 20 0 -4
BITMAP
0000
0000
0000
0000
0000
0000
0000
0000
0000
0000
0000
0000
0000
0000
0000
0000
FFF0
0000
FFF0
0000
ENDCHAR

STARTCHAR 0xf3
ENCODING 243
SWIDTH 800 0
DWIDTH 12 0
BBX 12 20 0 -4
BITMAP
0000
0000
3C00
0600
1C00
0620
0660
3CC0
0180
0300
0600
0C60
18E0
3160
2260
03E0
0060
0000
0000
0000
ENDCHAR

STARTCHAR 0xf4
ENCODING 244
SWIDTH 800 0
DWIDTH 12 0
BBX 12 20 0 -4
BITMAP
0000
0000
0000
0000
0FC0
1E40
1E40
1E40
1E40
1E40
0E40
0240
0240
0240
0240
0240
0000
0000
0000
0000
ENDCHAR

STARTCHAR 0xf5
ENCODING 245
SWIDTH 800 0
DWIDTH 12 0
BBX 12 20 0 -4
BITMAP
0000
0000
0000
0F80
18C0
1800
0C00
0F00
1980
18C0
18C0
0CC0
0780
0180
00C0
18C0
0F80
0000
0000
0000
ENDCHAR

STARTCHAR 0xf6
ENCODING 246
SWIDTH 800 0
DWIDTH 12 0
BBX 12 20 0 -4
BITMAP
0000
0000
0000
0000
0000
0600
0600
0000
0000
3FC0
0000
0000
0600
0600
0000
0000
0000
0000
0000
0000
ENDCHAR

STARTCHAR 0xf7
ENCODING 247
SWIDTH 800 0
DWIDTH 12 0
BBX 12 20 0 -4
BITMAP
0000
0000
0000
0000
0000
0000
0000
0000
0000
0000
0000
0000
0000
0000
0000
0200
0300
0180
0700
0000
ENDCHAR

STARTCHAR 0xf8
ENCODING 248
SWIDTH 800 0
DWIDTH 12 0
BBX 12 20 0 -4
BITMAP
0000
0000
0000
0000
0F00
1980
1980
1980
0F00
0000
0000
0000
0000
0000
0000
0000
0000
0000
0000
0000
ENDCHAR

STARTCHAR 0xf9
ENCODING 249
SWIDTH 800 0
DWIDTH 12 0
BBX 12 20 0 -4
BITMAP
0000
0000
18C0
18C0
0000
0000
0000
0000
0000
0000
0000
0000
0000
0000
0000
0000
0000
0000
0000
0000
ENDCHAR

STARTCHAR 0xfa
ENCODING 250
SWIDTH 800 0
DWIDTH 12 0
BBX 12 20 0 -4
BITMAP
0000
0000
0000
0000
0000
0000
0000
0000
0000
0600
0600
0000
0000
0000
0000
0000
0000
0000
0000
0000
ENDCHAR

STARTCHAR 0xfb
ENCODING 251
SWIDTH 800 0
DWIDTH 12 0
BBX 12 20 0 -4
BITMAP
0000
0000
0000
0600
0E00
0600
0600
0600
0600
0F00
0000
0000
0000
0000
0000
0000
0000
0000
0000
0000
ENDCHAR

STARTCHAR 0xfc
ENCODING 252
SWIDTH 800 0
DWIDTH 12 0
BBX 12 20 0 -4
BITMAP
0000
0000
0F00
1180
0180
0700
0180
1180
0F00
0000
0000
0000
0000
0000
0000
0000
0000
0000
0000
0000
ENDCHAR

STARTCHAR 0xfd
ENCODING 253
SWIDTH 800 0
DWIDTH 12 0
BBX 12 20 0 -4
BITMAP
0000
0000
0F00
1180
0180
0300
0600
0C00
1F80
0000
0000
0000
0000
0000
0000
0000
0000
0000
0000
0000
ENDCHAR

STARTCHAR 0xfe
ENCODING 254
SWIDTH 800 0
DWIDTH 12 0
BBX 12 20 0 -4
BITMAP
0000
0000
0000
0000
0000
0000
1F80
1F80
1F80
1F80
1F80
1F80
0000
0000
0000
0000
0000
0000
0000
0000
ENDCHAR

STARTCHAR 0xff
ENCODING 255
SWIDTH 800 0
DWIDTH 12 0
BBX 12 20 0 -4
BITMAP
0000
0000
0000
0000
0000
0000
0000
0000
0000
0000
0000
0000
0000
0000
0000
0000
0000
0000
0000
0000
ENDCHAR

ENDFONT
