STARTFONT 2.1
FONT psf
SIZE 12 75 75
FONTBOUNDINGBOX 7 12 0 -3
STARTPROPERTIES 3
FONT_DESCENT 3
FONT_ASCENT 9
DEFAULT_CHAR 255
ENDPROPERTIES
CHARS 256
STARTCHAR C0000
ENCODING 0
SWIDTH 666 0
DWIDTH 7 0
BBX 7 12 0 -3
BITMAP
00
00
00
00
00
00
00
00
00
00
00
00
ENDCHAR
STARTCHAR C0001
ENCODING 1
SWIDTH 666 0
DWIDTH 7 0
BBX 7 12 0 -3
BITMAP
00
00
00
00
00
00
00
00
00
00
00
00
ENDCHAR
STARTCHAR C0002
ENCODING 2
SWIDTH 666 0
DWIDTH 7 0
BBX 7 12 0 -3
BITMAP
00
00
00
00
00
00
00
00
00
00
00
00
ENDCHAR
STARTCHAR C0003
ENCODING 3
SWIDTH 666 0
DWIDTH 7 0
BBX 7 12 0 -3
BITMAP
00
00
00
00
00
00
00
00
00
00
00
00
ENDCHAR
STARTCHAR C0004
ENCODING 4
SWIDTH 666 0
DWIDTH 7 0
BBX 7 12 0 -3
BITMAP
00
00
00
00
00
00
00
00
00
00
00
00
ENDCHAR
STARTCHAR C0005
ENCODING 5
SWIDTH 666 0
DWIDTH 7 0
BBX 7 12 0 -3
BITMAP
00
00
00
00
00
00
00
00
00
00
00
00
ENDCHAR
STARTCHAR C0006
ENCODING 6
SWIDTH 666 0
DWIDTH 7 0
BBX 7 12 0 -3
BITMAP
00
00
00
00
00
00
00
00
00
00
00
00
ENDCHAR
STARTCHAR C0007
ENCODING 7
SWIDTH 666 0
DWIDTH 7 0
BBX 7 12 0 -3
BITMAP
00
00
00
00
00
00
00
00
00
00
00
00
ENDCHAR
STARTCHAR C0008
ENCODING 8
SWIDTH 666 0
DWIDTH 7 0
BBX 7 12 0 -3
BITMAP
00
00
00
00
00
00
00
00
00
00
00
00
ENDCHAR
STARTCHAR C0009
ENCODING 9
SWIDTH 666 0
DWIDTH 7 0
BBX 7 12 0 -3
BITMAP
00
00
00
00
00
00
00
00
00
00
00
00
ENDCHAR
STARTCHAR C000a
ENCODING 10
SWIDTH 666 0
DWIDTH 7 0
BBX 7 12 0 -3
BITMAP
00
00
00
00
00
00
00
00
00
00
00
00
ENDCHAR
STARTCHAR C000b
ENCODING 11
SWIDTH 666 0
DWIDTH 7 0
BBX 7 12 0 -3
BITMAP
00
00
00
00
00
00
00
00
00
00
00
00
ENDCHAR
STARTCHAR C000c
ENCODING 12
SWIDTH 666 0
DWIDTH 7 0
BBX 7 12 0 -3
BITMAP
00
00
00
00
00
00
00
00
00
00
00
00
ENDCHAR
STARTCHAR C000d
ENCODING 13
SWIDTH 666 0
DWIDTH 7 0
BBX 7 12 0 -3
BITMAP
00
00
00
00
00
00
00
00
00
00
00
00
ENDCHAR
STARTCHAR C000e
ENCODING 14
SWIDTH 666 0
DWIDTH 7 0
BBX 7 12 0 -3
BITMAP
00
00
00
00
00
00
00
00
00
00
00
00
ENDCHAR
STARTCHAR C000f
ENCODING 15
SWIDTH 666 0
DWIDTH 7 0
BBX 7 12 0 -3
BITMAP
00
00
00
00
00
00
00
00
00
00
00
00
ENDCHAR
STARTCHAR C0010
ENCODING 16
SWIDTH 666 0
DWIDTH 7 0
BBX 7 12 0 -3
BITMAP
00
00
00
00
00
00
00
00
00
00
00
00
ENDCHAR
STARTCHAR C0011
ENCODING 17
SWIDTH 666 0
DWIDTH 7 0
BBX 7 12 0 -3
BITMAP
00
00
00
00
00
00
00
00
00
00
00
00
ENDCHAR
STARTCHAR C0012
ENCODING 18
SWIDTH 666 0
DWIDTH 7 0
BBX 7 12 0 -3
BITMAP
00
00
00
00
00
00
00
00
00
00
00
00
ENDCHAR
STARTCHAR C0013
ENCODING 19
SWIDTH 666 0
DWIDTH 7 0
BBX 7 12 0 -3
BITMAP
00
00
00
00
00
00
00
00
00
00
00
00
ENDCHAR
STARTCHAR C0014
ENCODING 20
SWIDTH 666 0
DWIDTH 7 0
BBX 7 12 0 -3
BITMAP
00
00
00
00
00
00
00
00
00
00
00
00
ENDCHAR
STARTCHAR C0015
ENCODING 21
SWIDTH 666 0
DWIDTH 7 0
BBX 7 12 0 -3
BITMAP
00
00
00
00
00
00
00
00
00
00
00
00
ENDCHAR
STARTCHAR C0016
ENCODING 22
SWIDTH 666 0
DWIDTH 7 0
BBX 7 12 0 -3
BITMAP
00
00
00
00
00
00
00
00
00
00
00
00
ENDCHAR
STARTCHAR C0017
ENCODING 23
SWIDTH 666 0
DWIDTH 7 0
BBX 7 12 0 -3
BITMAP
00
00
00
00
00
00
00
00
00
00
00
00
ENDCHAR
STARTCHAR C0018
ENCODING 24
SWIDTH 666 0
DWIDTH 7 0
BBX 7 12 0 -3
BITMAP
00
00
00
00
00
00
00
00
00
00
00
00
ENDCHAR
STARTCHAR C0019
ENCODING 25
SWIDTH 666 0
DWIDTH 7 0
BBX 7 12 0 -3
BITMAP
00
00
00
00
00
00
00
00
00
00
00
00
ENDCHAR
STARTCHAR C001a
ENCODING 26
SWIDTH 666 0
DWIDTH 7 0
BBX 7 12 0 -3
BITMAP
00
00
00
00
00
00
00
00
00
00
00
00
ENDCHAR
STARTCHAR C001b
ENCODING 27
SWIDTH 666 0
DWIDTH 7 0
BBX 7 12 0 -3
BITMAP
00
00
00
00
00
00
00
00
00
00
00
00
ENDCHAR
STARTCHAR C001c
ENCODING 28
SWIDTH 666 0
DWIDTH 7 0
BBX 7 12 0 -3
BITMAP
00
00
00
00
00
00
00
00
00
00
00
00
ENDCHAR
STARTCHAR C001d
ENCODING 29
SWIDTH 666 0
DWIDTH 7 0
BBX 7 12 0 -3
BITMAP
00
00
00
00
00
00
00
00
00
00
00
00
ENDCHAR
STARTCHAR C001e
ENCODING 30
SWIDTH 666 0
DWIDTH 7 0
BBX 7 12 0 -3
BITMAP
00
00
00
00
00
00
00
00
00
00
00
00
ENDCHAR
STARTCHAR C001f
ENCODING 31
SWIDTH 666 0
DWIDTH 7 0
BBX 7 12 0 -3
BITMAP
00
00
00
00
00
00
00
00
00
00
00
00
ENDCHAR
STARTCHAR C0020
ENCODING 32
SWIDTH 666 0
DWIDTH 7 0
BBX 7 12 0 -3
BITMAP
00
00
00
00
00
00
00
00
00
00
00
00
ENDCHAR
STARTCHAR C0021
ENCODING 33
SWIDTH 666 0
DWIDTH 7 0
BBX 7 12 0 -3
BITMAP
00
10
10
20
20
20
00
00
40
00
00
00
ENDCHAR
STARTCHAR C0022
ENCODING 34
SWIDTH 666 0
DWIDTH 7 0
BBX 7 12 0 -3
BITMAP
00
48
48
48
00
00
00
00
00
00
00
00
ENDCHAR
STARTCHAR C0023
ENCODING 35
SWIDTH 666 0
DWIDTH 7 0
BBX 7 12 0 -3
BITMAP
00
28
28
f8
50
50
f8
a0
a0
00
00
00
ENDCHAR
STARTCHAR C0024
ENCODING 36
SWIDTH 666 0
DWIDTH 7 0
BBX 7 12 0 -3
BITMAP
00
10
38
a0
70
28
a8
e0
40
00
00
00
ENDCHAR
STARTCHAR C0025
ENCODING 37
SWIDTH 666 0
DWIDTH 7 0
BBX 7 12 0 -3
BITMAP
00
40
a4
90
20
48
94
10
00
00
00
00
ENDCHAR
STARTCHAR C0026
ENCODING 38
SWIDTH 666 0
DWIDTH 7 0
BBX 7 12 0 -3
BITMAP
00
00
00
30
48
30
4a
88
74
00
00
00
ENDCHAR
STARTCHAR C0027
ENCODING 39
SWIDTH 666 0
DWIDTH 7 0
BBX 7 12 0 -3
BITMAP
00
10
10
20
00
00
00
00
00
00
00
00
ENDCHAR
STARTCHAR C0028
ENCODING 40
SWIDTH 666 0
DWIDTH 7 0
BBX 7 12 0 -3
BITMAP
00
08
10
40
40
40
40
40
20
00
00
00
ENDCHAR
STARTCHAR C0029
ENCODING 41
SWIDTH 666 0
DWIDTH 7 0
BBX 7 12 0 -3
BITMAP
00
20
10
10
10
10
10
40
80
00
00
00
ENDCHAR
STARTCHAR C002a
ENCODING 42
SWIDTH 666 0
DWIDTH 7 0
BBX 7 12 0 -3
BITMAP
00
00
00
20
a8
70
a8
40
00
00
00
00
ENDCHAR
STARTCHAR C002b
ENCODING 43
SWIDTH 666 0
DWIDTH 7 0
BBX 7 12 0 -3
BITMAP
00
00
00
20
20
f8
20
40
00
00
00
00
ENDCHAR
STARTCHAR C002c
ENCODING 44
SWIDTH 666 0
DWIDTH 7 0
BBX 7 12 0 -3
BITMAP
00
00
00
00
00
00
00
c0
c0
40
80
00
ENDCHAR
STARTCHAR C002d
ENCODING 45
SWIDTH 666 0
DWIDTH 7 0
BBX 7 12 0 -3
BITMAP
00
00
00
00
00
78
00
00
00
00
00
00
ENDCHAR
STARTCHAR C002e
ENCODING 46
SWIDTH 666 0
DWIDTH 7 0
BBX 7 12 0 -3
BITMAP
00
00
00
00
00
00
00
00
40
00
00
00
ENDCHAR
STARTCHAR C002f
ENCODING 47
SWIDTH 666 0
DWIDTH 7 0
BBX 7 12 0 -3
BITMAP
00
00
04
10
20
40
80
00
00
00
00
00
ENDCHAR
STARTCHAR C0030
ENCODING 48
SWIDTH 666 0
DWIDTH 7 0
BBX 7 12 0 -3
BITMAP
00
1c
22
44
54
44
44
88
70
00
00
00
ENDCHAR
STARTCHAR C0031
ENCODING 49
SWIDTH 666 0
DWIDTH 7 0
BBX 7 12 0 -3
BITMAP
00
08
18
50
90
10
10
20
20
00
00
00
ENDCHAR
STARTCHAR C0032
ENCODING 50
SWIDTH 666 0
DWIDTH 7 0
BBX 7 12 0 -3
BITMAP
00
1c
22
04
08
10
20
80
f8
00
00
00
ENDCHAR
STARTCHAR C0033
ENCODING 51
SWIDTH 666 0
DWIDTH 7 0
BBX 7 12 0 -3
BITMAP
00
1c
22
04
18
04
04
88
70
00
00
00
ENDCHAR
STARTCHAR C0034
ENCODING 52
SWIDTH 666 0
DWIDTH 7 0
BBX 7 12 0 -3
BITMAP
00
08
10
40
80
90
f8
20
20
00
00
00
ENDCHAR
STARTCHAR C0035
ENCODING 53
SWIDTH 666 0
DWIDTH 7 0
BBX 7 12 0 -3
BITMAP
00
3e
20
40
78
04
04
88
70
00
00
00
ENDCHAR
STARTCHAR C0036
ENCODING 54
SWIDTH 666 0
DWIDTH 7 0
BBX 7 12 0 -3
BITMAP
00
1c
20
40
78
44
44
88
70
00
00
00
ENDCHAR
STARTCHAR C0037
ENCODING 55
SWIDTH 666 0
DWIDTH 7 0
BBX 7 12 0 -3
BITMAP
00
7c
04
10
20
40
40
80
80
00
00
00
ENDCHAR
STARTCHAR C0038
ENCODING 56
SWIDTH 666 0
DWIDTH 7 0
BBX 7 12 0 -3
BITMAP
00
1c
22
44
38
44
44
88
70
00
00
00
ENDCHAR
STARTCHAR C0039
ENCODING 57
SWIDTH 666 0
DWIDTH 7 0
BBX 7 12 0 -3
BITMAP
00
1c
22
44
3c
04
04
88
70
00
00
00
ENDCHAR
STARTCHAR C003a
ENCODING 58
SWIDTH 666 0
DWIDTH 7 0
BBX 7 12 0 -3
BITMAP
00
00
00
00
00
20
00
00
40
00
00
00
ENDCHAR
STARTCHAR C003b
ENCODING 59
SWIDTH 666 0
DWIDTH 7 0
BBX 7 12 0 -3
BITMAP
00
00
00
00
00
20
00
00
c0
40
80
00
ENDCHAR
STARTCHAR C003c
ENCODING 60
SWIDTH 666 0
DWIDTH 7 0
BBX 7 12 0 -3
BITMAP
00
00
00
10
20
40
20
20
00
00
00
00
ENDCHAR
STARTCHAR C003d
ENCODING 61
SWIDTH 666 0
DWIDTH 7 0
BBX 7 12 0 -3
BITMAP
00
00
00
00
f8
00
f8
00
00
00
00
00
ENDCHAR
STARTCHAR C003e
ENCODING 62
SWIDTH 666 0
DWIDTH 7 0
BBX 7 12 0 -3
BITMAP
00
00
00
40
20
10
20
80
00
00
00
00
ENDCHAR
STARTCHAR C003f
ENCODING 63
SWIDTH 666 0
DWIDTH 7 0
BBX 7 12 0 -3
BITMAP
00
38
44
08
10
20
20
00
40
00
00
00
ENDCHAR
STARTCHAR C0040
ENCODING 64
SWIDTH 666 0
DWIDTH 7 0
BBX 7 12 0 -3
BITMAP
00
00
00
00
3c
42
5a
a4
bc
80
78
00
ENDCHAR
STARTCHAR C0041
ENCODING 65
SWIDTH 666 0
DWIDTH 7 0
BBX 7 12 0 -3
BITMAP
00
08
14
44
44
44
7c
88
88
00
00
00
ENDCHAR
STARTCHAR C0042
ENCODING 66
SWIDTH 666 0
DWIDTH 7 0
BBX 7 12 0 -3
BITMAP
00
3c
22
44
78
44
44
88
f0
00
00
00
ENDCHAR
STARTCHAR C0043
ENCODING 67
SWIDTH 666 0
DWIDTH 7 0
BBX 7 12 0 -3
BITMAP
00
1c
22
40
40
40
40
88
70
00
00
00
ENDCHAR
STARTCHAR C0044
ENCODING 68
SWIDTH 666 0
DWIDTH 7 0
BBX 7 12 0 -3
BITMAP
00
38
14
24
24
24
24
50
e0
00
00
00
ENDCHAR
STARTCHAR C0045
ENCODING 69
SWIDTH 666 0
DWIDTH 7 0
BBX 7 12 0 -3
BITMAP
00
3e
20
40
7c
40
40
80
f8
00
00
00
ENDCHAR
STARTCHAR C0046
ENCODING 70
SWIDTH 666 0
DWIDTH 7 0
BBX 7 12 0 -3
BITMAP
00
3e
20
40
7c
40
40
80
80
00
00
00
ENDCHAR
STARTCHAR C0047
ENCODING 71
SWIDTH 666 0
DWIDTH 7 0
BBX 7 12 0 -3
BITMAP
00
1c
20
40
5c
44
44
88
70
00
00
00
ENDCHAR
STARTCHAR C0048
ENCODING 72
SWIDTH 666 0
DWIDTH 7 0
BBX 7 12 0 -3
BITMAP
00
22
22
44
7c
44
44
88
88
00
00
00
ENDCHAR
STARTCHAR C0049
ENCODING 73
SWIDTH 666 0
DWIDTH 7 0
BBX 7 12 0 -3
BITMAP
00
38
10
20
20
20
20
40
e0
00
00
00
ENDCHAR
STARTCHAR C004a
ENCODING 74
SWIDTH 666 0
DWIDTH 7 0
BBX 7 12 0 -3
BITMAP
00
02
02
04
04
04
04
88
70
00
00
00
ENDCHAR
STARTCHAR C004b
ENCODING 75
SWIDTH 666 0
DWIDTH 7 0
BBX 7 12 0 -3
BITMAP
00
22
24
50
60
60
50
90
88
00
00
00
ENDCHAR
STARTCHAR C004c
ENCODING 76
SWIDTH 666 0
DWIDTH 7 0
BBX 7 12 0 -3
BITMAP
00
20
20
40
40
40
40
80
f8
00
00
00
ENDCHAR
STARTCHAR C004d
ENCODING 77
SWIDTH 666 0
DWIDTH 7 0
BBX 7 12 0 -3
BITMAP
00
22
36
54
54
44
44
88
88
00
00
00
ENDCHAR
STARTCHAR C004e
ENCODING 78
SWIDTH 666 0
DWIDTH 7 0
BBX 7 12 0 -3
BITMAP
00
22
32
54
4c
44
44
88
88
00
00
00
ENDCHAR
STARTCHAR C004f
ENCODING 79
SWIDTH 666 0
DWIDTH 7 0
BBX 7 12 0 -3
BITMAP
00
1c
22
44
44
44
44
88
70
00
00
00
ENDCHAR
STARTCHAR C0050
ENCODING 80
SWIDTH 666 0
DWIDTH 7 0
BBX 7 12 0 -3
BITMAP
00
3c
22
44
78
40
40
80
80
00
00
00
ENDCHAR
STARTCHAR C0051
ENCODING 81
SWIDTH 666 0
DWIDTH 7 0
BBX 7 12 0 -3
BITMAP
00
1c
22
44
44
44
54
98
78
04
00
00
ENDCHAR
STARTCHAR C0052
ENCODING 82
SWIDTH 666 0
DWIDTH 7 0
BBX 7 12 0 -3
BITMAP
00
3c
22
44
78
50
48
88
88
00
00
00
ENDCHAR
STARTCHAR C0053
ENCODING 83
SWIDTH 666 0
DWIDTH 7 0
BBX 7 12 0 -3
BITMAP
00
1c
22
40
38
04
04
88
70
00
00
00
ENDCHAR
STARTCHAR C0054
ENCODING 84
SWIDTH 666 0
DWIDTH 7 0
BBX 7 12 0 -3
BITMAP
00
7c
10
20
20
20
20
40
40
00
00
00
ENDCHAR
STARTCHAR C0055
ENCODING 85
SWIDTH 666 0
DWIDTH 7 0
BBX 7 12 0 -3
BITMAP
00
22
22
44
44
44
44
88
70
00
00
00
ENDCHAR
STARTCHAR C0056
ENCODING 86
SWIDTH 666 0
DWIDTH 7 0
BBX 7 12 0 -3
BITMAP
00
44
44
88
50
50
50
40
40
00
00
00
ENDCHAR
STARTCHAR C0057
ENCODING 87
SWIDTH 666 0
DWIDTH 7 0
BBX 7 12 0 -3
BITMAP
00
22
22
44
44
44
54
a8
50
00
00
00
ENDCHAR
STARTCHAR C0058
ENCODING 88
SWIDTH 666 0
DWIDTH 7 0
BBX 7 12 0 -3
BITMAP
00
22
22
28
10
28
44
88
88
00
00
00
ENDCHAR
STARTCHAR C0059
ENCODING 89
SWIDTH 666 0
DWIDTH 7 0
BBX 7 12 0 -3
BITMAP
00
44
44
50
20
20
20
40
40
00
00
00
ENDCHAR
STARTCHAR C005a
ENCODING 90
SWIDTH 666 0
DWIDTH 7 0
BBX 7 12 0 -3
BITMAP
00
3e
02
08
10
20
40
80
f8
00
00
00
ENDCHAR
STARTCHAR C005b
ENCODING 91
SWIDTH 666 0
DWIDTH 7 0
BBX 7 12 0 -3
BITMAP
00
38
20
40
40
40
40
80
80
80
e0
00
ENDCHAR
STARTCHAR C005c
ENCODING 92
SWIDTH 666 0
DWIDTH 7 0
BBX 7 12 0 -3
BITMAP
00
00
40
40
20
10
08
00
00
00
00
00
ENDCHAR
STARTCHAR C005d
ENCODING 93
SWIDTH 666 0
DWIDTH 7 0
BBX 7 12 0 -3
BITMAP
00
38
08
10
10
10
10
20
20
20
e0
00
ENDCHAR
STARTCHAR C005e
ENCODING 94
SWIDTH 666 0
DWIDTH 7 0
BBX 7 12 0 -3
BITMAP
00
10
28
88
00
00
00
00
00
00
00
00
ENDCHAR
STARTCHAR C005f
ENCODING 95
SWIDTH 666 0
DWIDTH 7 0
BBX 7 12 0 -3
BITMAP
00
00
00
00
00
00
00
00
f8
00
00
00
ENDCHAR
STARTCHAR C0060
ENCODING 96
SWIDTH 666 0
DWIDTH 7 0
BBX 7 12 0 -3
BITMAP
00
20
10
10
00
00
00
00
00
00
00
00
ENDCHAR
STARTCHAR C0061
ENCODING 97
SWIDTH 666 0
DWIDTH 7 0
BBX 7 12 0 -3
BITMAP
00
00
00
00
3c
44
44
88
74
00
00
00
ENDCHAR
STARTCHAR C0062
ENCODING 98
SWIDTH 666 0
DWIDTH 7 0
BBX 7 12 0 -3
BITMAP
00
20
20
40
58
64
44
c8
b0
00
00
00
ENDCHAR
STARTCHAR C0063
ENCODING 99
SWIDTH 666 0
DWIDTH 7 0
BBX 7 12 0 -3
BITMAP
00
00
00
00
38
44
40
88
70
00
00
00
ENDCHAR
STARTCHAR C0064
ENCODING 100
SWIDTH 666 0
DWIDTH 7 0
BBX 7 12 0 -3
BITMAP
00
02
02
04
3c
44
44
98
68
00
00
00
ENDCHAR
STARTCHAR C0065
ENCODING 101
SWIDTH 666 0
DWIDTH 7 0
BBX 7 12 0 -3
BITMAP
00
00
00
00
38
44
78
80
78
00
00
00
ENDCHAR
STARTCHAR C0066
ENCODING 102
SWIDTH 666 0
DWIDTH 7 0
BBX 7 12 0 -3
BITMAP
00
0c
10
20
f8
20
20
40
40
00
00
00
ENDCHAR
STARTCHAR C0067
ENCODING 103
SWIDTH 666 0
DWIDTH 7 0
BBX 7 12 0 -3
BITMAP
00
00
00
00
3c
44
44
88
78
08
f8
00
ENDCHAR
STARTCHAR C0068
ENCODING 104
SWIDTH 666 0
DWIDTH 7 0
BBX 7 12 0 -3
BITMAP
00
20
20
40
58
64
44
88
88
00
00
00
ENDCHAR
STARTCHAR C0069
ENCODING 105
SWIDTH 666 0
DWIDTH 7 0
BBX 7 12 0 -3
BITMAP
00
00
08
00
70
10
10
20
f8
00
00
00
ENDCHAR
STARTCHAR C006a
ENCODING 106
SWIDTH 666 0
DWIDTH 7 0
BBX 7 12 0 -3
BITMAP
00
00
04
00
38
08
08
10
10
10
f0
00
ENDCHAR
STARTCHAR C006b
ENCODING 107
SWIDTH 666 0
DWIDTH 7 0
BBX 7 12 0 -3
BITMAP
00
20
20
40
48
50
60
a0
90
00
00
00
ENDCHAR
STARTCHAR C006c
ENCODING 108
SWIDTH 666 0
DWIDTH 7 0
BBX 7 12 0 -3
BITMAP
00
20
20
40
40
40
40
80
60
00
00
00
ENDCHAR
STARTCHAR C006d
ENCODING 109
SWIDTH 666 0
DWIDTH 7 0
BBX 7 12 0 -3
BITMAP
00
00
00
00
a8
54
54
a8
a8
00
00
00
ENDCHAR
STARTCHAR C006e
ENCODING 110
SWIDTH 666 0
DWIDTH 7 0
BBX 7 12 0 -3
BITMAP
00
00
00
00
5c
64
44
88
88
00
00
00
ENDCHAR
STARTCHAR C006f
ENCODING 111
SWIDTH 666 0
DWIDTH 7 0
BBX 7 12 0 -3
BITMAP
00
00
00
00
38
44
44
88
70
00
00
00
ENDCHAR
STARTCHAR C0070
ENCODING 112
SWIDTH 666 0
DWIDTH 7 0
BBX 7 12 0 -3
BITMAP
00
00
00
00
78
44
44
88
f0
80
80
00
ENDCHAR
STARTCHAR C0071
ENCODING 113
SWIDTH 666 0
DWIDTH 7 0
BBX 7 12 0 -3
BITMAP
00
00
00
00
3c
44
44
88
78
08
08
00
ENDCHAR
STARTCHAR C0072
ENCODING 114
SWIDTH 666 0
DWIDTH 7 0
BBX 7 12 0 -3
BITMAP
00
00
00
00
58
64
40
80
80
00
00
00
ENDCHAR
STARTCHAR C0073
ENCODING 115
SWIDTH 666 0
DWIDTH 7 0
BBX 7 12 0 -3
BITMAP
00
00
00
00
70
80
70
10
e0
00
00
00
ENDCHAR
STARTCHAR C0074
ENCODING 116
SWIDTH 666 0
DWIDTH 7 0
BBX 7 12 0 -3
BITMAP
00
10
10
f8
20
20
20
40
30
00
00
00
ENDCHAR
STARTCHAR C0075
ENCODING 117
SWIDTH 666 0
DWIDTH 7 0
BBX 7 12 0 -3
BITMAP
00
00
00
00
44
44
44
88
74
00
00
00
ENDCHAR
STARTCHAR C0076
ENCODING 118
SWIDTH 666 0
DWIDTH 7 0
BBX 7 12 0 -3
BITMAP
00
00
00
00
88
88
88
a0
40
00
00
00
ENDCHAR
STARTCHAR C0077
ENCODING 119
SWIDTH 666 0
DWIDTH 7 0
BBX 7 12 0 -3
BITMAP
00
00
00
00
44
44
54
a8
50
00
00
00
ENDCHAR
STARTCHAR C0078
ENCODING 120
SWIDTH 666 0
DWIDTH 7 0
BBX 7 12 0 -3
BITMAP
00
00
00
00
44
28
10
50
88
00
00
00
ENDCHAR
STARTCHAR C0079
ENCODING 121
SWIDTH 666 0
DWIDTH 7 0
BBX 7 12 0 -3
BITMAP
00
00
00
00
44
44
44
50
20
20
c0
00
ENDCHAR
STARTCHAR C007a
ENCODING 122
SWIDTH 666 0
DWIDTH 7 0
BBX 7 12 0 -3
BITMAP
00
00
00
00
7c
08
10
40
f8
00
00
00
ENDCHAR
STARTCHAR C007b
ENCODING 123
SWIDTH 666 0
DWIDTH 7 0
BBX 7 12 0 -3
BITMAP
00
18
20
40
20
c0
20
80
80
60
00
00
ENDCHAR
STARTCHAR C007c
ENCODING 124
SWIDTH 666 0
DWIDTH 7 0
BBX 7 12 0 -3
BITMAP
00
10
10
20
20
20
20
40
40
00
00
00
ENDCHAR
STARTCHAR C007d
ENCODING 125
SWIDTH 666 0
DWIDTH 7 0
BBX 7 12 0 -3
BITMAP
00
30
08
10
20
18
20
20
20
c0
00
00
ENDCHAR
STARTCHAR C007e
ENCODING 126
SWIDTH 666 0
DWIDTH 7 0
BBX 7 12 0 -3
BITMAP
00
34
48
00
00
00
00
00
00
00
00
00
ENDCHAR
STARTCHAR C007f
ENCODING 127
SWIDTH 666 0
DWIDTH 7 0
BBX 7 12 0 -3
BITMAP
00
34
48
00
00
00
00
00
00
00
00
00
ENDCHAR
STARTCHAR C0080
ENCODING 128
SWIDTH 666 0
DWIDTH 7 0
BBX 7 12 0 -3
BITMAP
00
34
48
00
00
00
00
00
00
00
00
00
ENDCHAR
STARTCHAR C0081
ENCODING 129
SWIDTH 666 0
DWIDTH 7 0
BBX 7 12 0 -3
BITMAP
00
34
48
00
00
00
00
00
00
00
00
00
ENDCHAR
STARTCHAR C0082
ENCODING 130
SWIDTH 666 0
DWIDTH 7 0
BBX 7 12 0 -3
BITMAP
00
34
48
00
00
00
00
00
00
00
00
00
ENDCHAR
STARTCHAR C0083
ENCODING 131
SWIDTH 666 0
DWIDTH 7 0
BBX 7 12 0 -3
BITMAP
00
34
48
00
00
00
00
00
00
00
00
00
ENDCHAR
STARTCHAR C0084
ENCODING 132
SWIDTH 666 0
DWIDTH 7 0
BBX 7 12 0 -3
BITMAP
00
34
48
00
00
00
00
00
00
00
00
00
ENDCHAR
STARTCHAR C0085
ENCODING 133
SWIDTH 666 0
DWIDTH 7 0
BBX 7 12 0 -3
BITMAP
00
34
48
00
00
00
00
00
00
00
00
00
ENDCHAR
STARTCHAR C0086
ENCODING 134
SWIDTH 666 0
DWIDTH 7 0
BBX 7 12 0 -3
BITMAP
00
34
48
00
00
00
00
00
00
00
00
00
ENDCHAR
STARTCHAR C0087
ENCODING 135
SWIDTH 666 0
DWIDTH 7 0
BBX 7 12 0 -3
BITMAP
00
34
48
00
00
00
00
00
00
00
00
00
ENDCHAR
STARTCHAR C0088
ENCODING 136
SWIDTH 666 0
DWIDTH 7 0
BBX 7 12 0 -3
BITMAP
00
34
48
00
00
00
00
00
00
00
00
00
ENDCHAR
STARTCHAR C0089
ENCODING 137
SWIDTH 666 0
DWIDTH 7 0
BBX 7 12 0 -3
BITMAP
00
34
48
00
00
00
00
00
00
00
00
00
ENDCHAR
STARTCHAR C008a
ENCODING 138
SWIDTH 666 0
DWIDTH 7 0
BBX 7 12 0 -3
BITMAP
00
34
48
00
00
00
00
00
00
00
00
00
ENDCHAR
STARTCHAR C008b
ENCODING 139
SWIDTH 666 0
DWIDTH 7 0
BBX 7 12 0 -3
BITMAP
00
34
48
00
00
00
00
00
00
00
00
00
ENDCHAR
STARTCHAR C008c
ENCODING 140
SWIDTH 666 0
DWIDTH 7 0
BBX 7 12 0 -3
BITMAP
00
34
48
00
00
00
00
00
00
00
00
00
ENDCHAR
STARTCHAR C008d
ENCODING 141
SWIDTH 666 0
DWIDTH 7 0
BBX 7 12 0 -3
BITMAP
00
34
48
00
00
00
00
00
00
00
00
00
ENDCHAR
STARTCHAR C008e
ENCODING 142
SWIDTH 666 0
DWIDTH 7 0
BBX 7 12 0 -3
BITMAP
00
34
48
00
00
00
00
00
00
00
00
00
ENDCHAR
STARTCHAR C008f
ENCODING 143
SWIDTH 666 0
DWIDTH 7 0
BBX 7 12 0 -3
BITMAP
00
34
48
00
00
00
00
00
00
00
00
00
ENDCHAR
STARTCHAR C0090
ENCODING 144
SWIDTH 666 0
DWIDTH 7 0
BBX 7 12 0 -3
BITMAP
00
34
48
00
00
00
00
00
00
00
00
00
ENDCHAR
STARTCHAR C0091
ENCODING 145
SWIDTH 666 0
DWIDTH 7 0
BBX 7 12 0 -3
BITMAP
00
34
48
00
00
00
00
00
00
00
00
00
ENDCHAR
STARTCHAR C0092
ENCODING 146
SWIDTH 666 0
DWIDTH 7 0
BBX 7 12 0 -3
BITMAP
00
34
48
00
00
00
00
00
00
00
00
00
ENDCHAR
STARTCHAR C0093
ENCODING 147
SWIDTH 666 0
DWIDTH 7 0
BBX 7 12 0 -3
BITMAP
00
34
48
00
00
00
00
00
00
00
00
00
ENDCHAR
STARTCHAR C0094
ENCODING 148
SWIDTH 666 0
DWIDTH 7 0
BBX 7 12 0 -3
BITMAP
00
34
48
00
00
00
00
00
00
00
00
00
ENDCHAR
STARTCHAR C0095
ENCODING 149
SWIDTH 666 0
DWIDTH 7 0
BBX 7 12 0 -3
BITMAP
00
34
48
00
00
00
00
00
00
00
00
00
ENDCHAR
STARTCHAR C0096
ENCODING 150
SWIDTH 666 0
DWIDTH 7 0
BBX 7 12 0 -3
BITMAP
00
34
48
00
00
00
00
00
00
00
00
00
ENDCHAR
STARTCHAR C0097
ENCODING 151
SWIDTH 666 0
DWIDTH 7 0
BBX 7 12 0 -3
BITMAP
00
34
48
00
00
00
00
00
00
00
00
00
ENDCHAR
STARTCHAR C0098
ENCODING 152
SWIDTH 666 0
DWIDTH 7 0
BBX 7 12 0 -3
BITMAP
00
34
48
00
00
00
00
00
00
00
00
00
ENDCHAR
STARTCHAR C0099
ENCODING 153
SWIDTH 666 0
DWIDTH 7 0
BBX 7 12 0 -3
BITMAP
00
34
48
00
00
00
00
00
00
00
00
00
ENDCHAR
STARTCHAR C009a
ENCODING 154
SWIDTH 666 0
DWIDTH 7 0
BBX 7 12 0 -3
BITMAP
00
34
48
00
00
00
00
00
00
00
00
00
ENDCHAR
STARTCHAR C009b
ENCODING 155
SWIDTH 666 0
DWIDTH 7 0
BBX 7 12 0 -3
BITMAP
00
34
48
00
00
00
00
00
00
00
00
00
ENDCHAR
STARTCHAR C009c
ENCODING 156
SWIDTH 666 0
DWIDTH 7 0
BBX 7 12 0 -3
BITMAP
00
34
48
00
00
00
00
00
00
00
00
00
ENDCHAR
STARTCHAR C009d
ENCODING 157
SWIDTH 666 0
DWIDTH 7 0
BBX 7 12 0 -3
BITMAP
00
34
48
00
00
00
00
00
00
00
00
00
ENDCHAR
STARTCHAR C009e
ENCODING 158
SWIDTH 666 0
DWIDTH 7 0
BBX 7 12 0 -3
BITMAP
00
34
48
00
00
00
00
00
00
00
00
00
ENDCHAR
STARTCHAR C009f
ENCODING 159
SWIDTH 666 0
DWIDTH 7 0
BBX 7 12 0 -3
BITMAP
00
34
48
00
00
00
00
00
00
00
00
00
ENDCHAR
STARTCHAR C00a0
ENCODING 160
SWIDTH 666 0
DWIDTH 7 0
BBX 7 12 0 -3
BITMAP
00
34
48
00
00
00
00
00
00
00
00
00
ENDCHAR
STARTCHAR C00a1
ENCODING 161
SWIDTH 666 0
DWIDTH 7 0
BBX 7 12 0 -3
BITMAP
00
10
00
20
20
20
20
40
40
00
00
00
ENDCHAR
STARTCHAR C00a2
ENCODING 162
SWIDTH 666 0
DWIDTH 7 0
BBX 7 12 0 -3
BITMAP
00
00
00
02
1c
2a
30
44
b8
00
00
00
ENDCHAR
STARTCHAR C00a3
ENCODING 163
SWIDTH 666 0
DWIDTH 7 0
BBX 7 12 0 -3
BITMAP
00
0c
10
20
78
20
20
40
f8
00
00
00
ENDCHAR
STARTCHAR C00a4
ENCODING 164
SWIDTH 666 0
DWIDTH 7 0
BBX 7 12 0 -3
BITMAP
00
10
38
a0
70
28
a8
e0
40
00
00
00
ENDCHAR
STARTCHAR C00a5
ENCODING 165
SWIDTH 666 0
DWIDTH 7 0
BBX 7 12 0 -3
BITMAP
00
44
28
20
f8
20
f8
40
40
00
00
00
ENDCHAR
STARTCHAR C00a6
ENCODING 166
SWIDTH 666 0
DWIDTH 7 0
BBX 7 12 0 -3
BITMAP
00
28
28
f8
50
50
f8
a0
a0
00
00
00
ENDCHAR
STARTCHAR C00a7
ENCODING 167
SWIDTH 666 0
DWIDTH 7 0
BBX 7 12 0 -3
BITMAP
00
1c
22
40
38
44
38
08
88
70
00
00
ENDCHAR
STARTCHAR C00a8
ENCODING 168
SWIDTH 666 0
DWIDTH 7 0
BBX 7 12 0 -3
BITMAP
00
40
22
38
44
44
38
88
04
00
00
00
ENDCHAR
STARTCHAR C00a9
ENCODING 169
SWIDTH 666 0
DWIDTH 7 0
BBX 7 12 0 -3
BITMAP
10
20
30
00
00
00
00
00
00
00
00
00
ENDCHAR
STARTCHAR C00aa
ENCODING 170
SWIDTH 666 0
DWIDTH 7 0
BBX 7 12 0 -3
BITMAP
24
48
6c
00
00
00
00
00
00
00
00
00
ENDCHAR
STARTCHAR C00ab
ENCODING 171
SWIDTH 666 0
DWIDTH 7 0
BBX 7 12 0 -3
BITMAP
00
00
00
24
48
90
48
48
00
00
00
00
ENDCHAR
STARTCHAR C00ac
ENCODING 172
SWIDTH 666 0
DWIDTH 7 0
BBX 7 12 0 -3
BITMAP
00
00
00
00
20
60
fc
c0
40
00
00
00
ENDCHAR
STARTCHAR C00ad
ENCODING 173
SWIDTH 666 0
DWIDTH 7 0
BBX 7 12 0 -3
BITMAP
00
00
10
70
f8
20
20
40
40
00
00
00
ENDCHAR
STARTCHAR C00ae
ENCODING 174
SWIDTH 666 0
DWIDTH 7 0
BBX 7 12 0 -3
BITMAP
00
00
00
00
10
18
fc
30
20
00
00
00
ENDCHAR
STARTCHAR C00af
ENCODING 175
SWIDTH 666 0
DWIDTH 7 0
BBX 7 12 0 -3
BITMAP
00
00
10
20
20
20
f8
e0
40
00
00
00
ENDCHAR
STARTCHAR C00b0
ENCODING 176
SWIDTH 666 0
DWIDTH 7 0
BBX 7 12 0 -3
BITMAP
00
18
24
48
30
00
00
00
00
00
00
00
ENDCHAR
STARTCHAR C00b1
ENCODING 177
SWIDTH 666 0
DWIDTH 7 0
BBX 7 12 0 -3
BITMAP
00
00
00
10
10
7c
10
20
00
f8
00
00
ENDCHAR
STARTCHAR C00b2
ENCODING 178
SWIDTH 666 0
DWIDTH 7 0
BBX 7 12 0 -3
BITMAP
00
30
08
20
40
70
00
00
00
00
00
00
ENDCHAR
STARTCHAR C00b3
ENCODING 179
SWIDTH 666 0
DWIDTH 7 0
BBX 7 12 0 -3
BITMAP
00
30
08
20
10
60
00
00
00
00
00
00
ENDCHAR
STARTCHAR C00b4
ENCODING 180
SWIDTH 666 0
DWIDTH 7 0
BBX 7 12 0 -3
BITMAP
00
00
00
44
28
10
28
88
00
00
00
00
ENDCHAR
STARTCHAR C00b5
ENCODING 181
SWIDTH 666 0
DWIDTH 7 0
BBX 7 12 0 -3
BITMAP
00
00
00
00
44
44
44
88
74
80
c0
00
ENDCHAR
STARTCHAR C00b6
ENCODING 182
SWIDTH 666 0
DWIDTH 7 0
BBX 7 12 0 -3
BITMAP
00
3e
74
e8
e8
68
28
50
50
00
00
00
ENDCHAR
STARTCHAR C00b7
ENCODING 183
SWIDTH 666 0
DWIDTH 7 0
BBX 7 12 0 -3
BITMAP
00
00
00
00
00
20
00
00
00
00
00
00
ENDCHAR
STARTCHAR C00b8
ENCODING 184
SWIDTH 666 0
DWIDTH 7 0
BBX 7 12 0 -3
BITMAP
00
00
00
20
00
f8
00
40
00
00
00
00
ENDCHAR
STARTCHAR C00b9
ENCODING 185
SWIDTH 666 0
DWIDTH 7 0
BBX 7 12 0 -3
BITMAP
00
18
08
20
00
00
00
00
00
00
00
00
ENDCHAR
STARTCHAR C00ba
ENCODING 186
SWIDTH 666 0
DWIDTH 7 0
BBX 7 12 0 -3
BITMAP
00
6c
24
90
00
00
00
00
00
00
00
00
ENDCHAR
STARTCHAR C00bb
ENCODING 187
SWIDTH 666 0
DWIDTH 7 0
BBX 7 12 0 -3
BITMAP
00
00
48
48
24
48
90
00
00
00
00
00
ENDCHAR
STARTCHAR C00bc
ENCODING 188
SWIDTH 666 0
DWIDTH 7 0
BBX 7 12 0 -3
BITMAP
00
40
c4
90
a0
48
98
78
10
00
00
00
ENDCHAR
STARTCHAR C00bd
ENCODING 189
SWIDTH 666 0
DWIDTH 7 0
BBX 7 12 0 -3
BITMAP
00
40
c4
90
a0
58
84
10
38
00
00
00
ENDCHAR
STARTCHAR C00be
ENCODING 190
SWIDTH 666 0
DWIDTH 7 0
BBX 7 12 0 -3
BITMAP
00
60
12
48
30
e4
4c
3c
08
00
00
00
ENDCHAR
STARTCHAR C00bf
ENCODING 191
SWIDTH 666 0
DWIDTH 7 0
BBX 7 12 0 -3
BITMAP
00
08
00
10
10
20
40
88
70
00
00
00
ENDCHAR
STARTCHAR C00c0
ENCODING 192
SWIDTH 666 0
DWIDTH 7 0
BBX 7 12 0 -3
BITMAP
00
08
00
10
10
20
40
88
70
00
00
00
ENDCHAR
STARTCHAR C00c1
ENCODING 193
SWIDTH 666 0
DWIDTH 7 0
BBX 7 12 0 -3
BITMAP
00
20
10
10
00
00
00
00
00
00
00
00
ENDCHAR
STARTCHAR C00c2
ENCODING 194
SWIDTH 666 0
DWIDTH 7 0
BBX 7 12 0 -3
BITMAP
00
08
10
40
00
00
00
00
00
00
00
00
ENDCHAR
STARTCHAR C00c3
ENCODING 195
SWIDTH 666 0
DWIDTH 7 0
BBX 7 12 0 -3
BITMAP
00
10
28
88
00
00
00
00
00
00
00
00
ENDCHAR
STARTCHAR C00c4
ENCODING 196
SWIDTH 666 0
DWIDTH 7 0
BBX 7 12 0 -3
BITMAP
00
34
48
00
00
00
00
00
00
00
00
00
ENDCHAR
STARTCHAR C00c5
ENCODING 197
SWIDTH 666 0
DWIDTH 7 0
BBX 7 12 0 -3
BITMAP
00
7c
00
00
00
00
00
00
00
00
00
00
ENDCHAR
STARTCHAR C00c6
ENCODING 198
SWIDTH 666 0
DWIDTH 7 0
BBX 7 12 0 -3
BITMAP
00
44
38
00
00
00
00
00
00
00
00
00
ENDCHAR
STARTCHAR C00c7
ENCODING 199
SWIDTH 666 0
DWIDTH 7 0
BBX 7 12 0 -3
BITMAP
00
10
00
00
00
00
00
00
00
00
00
00
ENDCHAR
STARTCHAR C00c8
ENCODING 200
SWIDTH 666 0
DWIDTH 7 0
BBX 7 12 0 -3
BITMAP
00
48
00
00
00
00
00
00
00
00
00
00
ENDCHAR
STARTCHAR C00c9
ENCODING 201
SWIDTH 666 0
DWIDTH 7 0
BBX 7 12 0 -3
BITMAP
00
48
00
00
00
00
00
00
00
00
00
00
ENDCHAR
STARTCHAR C00ca
ENCODING 202
SWIDTH 666 0
DWIDTH 7 0
BBX 7 12 0 -3
BITMAP
00
18
24
30
00
00
00
00
00
00
00
00
ENDCHAR
STARTCHAR C00cb
ENCODING 203
SWIDTH 666 0
DWIDTH 7 0
BBX 7 12 0 -3
BITMAP
00
00
00
00
00
00
00
00
20
30
10
c0
ENDCHAR
STARTCHAR C00cc
ENCODING 204
SWIDTH 666 0
DWIDTH 7 0
BBX 7 12 0 -3
BITMAP
00
00
00
00
00
00
00
00
00
f8
00
00
ENDCHAR
STARTCHAR C00cd
ENCODING 205
SWIDTH 666 0
DWIDTH 7 0
BBX 7 12 0 -3
BITMAP
00
14
28
a0
00
00
00
00
00
00
00
00
ENDCHAR
STARTCHAR C00ce
ENCODING 206
SWIDTH 666 0
DWIDTH 7 0
BBX 7 12 0 -3
BITMAP
00
00
00
00
00
00
00
00
80
a0
c0
00
ENDCHAR
STARTCHAR C00cf
ENCODING 207
SWIDTH 666 0
DWIDTH 7 0
BBX 7 12 0 -3
BITMAP
00
44
28
20
00
00
00
00
00
00
00
00
ENDCHAR
STARTCHAR C00d0
ENCODING 208
SWIDTH 666 0
DWIDTH 7 0
BBX 7 12 0 -3
BITMAP
00
00
00
00
00
f8
00
00
00
00
00
00
ENDCHAR
STARTCHAR C00d1
ENCODING 209
SWIDTH 666 0
DWIDTH 7 0
BBX 7 12 0 -3
BITMAP
00
10
30
20
20
20
00
00
00
00
00
00
ENDCHAR
STARTCHAR C00d2
ENCODING 210
SWIDTH 666 0
DWIDTH 7 0
BBX 7 12 0 -3
BITMAP
00
1c
22
ba
aa
b2
aa
88
70
00
00
00
ENDCHAR
STARTCHAR C00d3
ENCODING 211
SWIDTH 666 0
DWIDTH 7 0
BBX 7 12 0 -3
BITMAP
00
1c
22
ba
a2
a2
ba
88
70
00
00
00
ENDCHAR
STARTCHAR C00d4
ENCODING 212
SWIDTH 666 0
DWIDTH 7 0
BBX 7 12 0 -3
BITMAP
00
f4
5c
a8
00
00
00
00
00
00
00
00
ENDCHAR
STARTCHAR C00d5
ENCODING 213
SWIDTH 666 0
DWIDTH 7 0
BBX 7 12 0 -3
BITMAP
00
04
06
0e
0a
08
08
10
60
f0
60
00
ENDCHAR
STARTCHAR C00d6
ENCODING 214
SWIDTH 666 0
DWIDTH 7 0
BBX 7 12 0 -3
BITMAP
00
10
10
20
00
00
20
40
40
00
00
00
ENDCHAR
STARTCHAR C00d7
ENCODING 215
SWIDTH 666 0
DWIDTH 7 0
BBX 7 12 0 -3
BITMAP
00
7c
04
08
00
00
00
00
00
00
00
00
ENDCHAR
STARTCHAR C00d8
ENCODING 216
SWIDTH 666 0
DWIDTH 7 0
BBX 7 12 0 -3
BITMAP
00
7c
04
08
00
00
00
00
00
00
00
00
ENDCHAR
STARTCHAR C00d9
ENCODING 217
SWIDTH 666 0
DWIDTH 7 0
BBX 7 12 0 -3
BITMAP
00
7c
04
08
00
00
00
00
00
00
00
00
ENDCHAR
STARTCHAR C00da
ENCODING 218
SWIDTH 666 0
DWIDTH 7 0
BBX 7 12 0 -3
BITMAP
00
7c
04
08
00
00
00
00
00
00
00
00
ENDCHAR
STARTCHAR C00db
ENCODING 219
SWIDTH 666 0
DWIDTH 7 0
BBX 7 12 0 -3
BITMAP
00
7c
04
08
00
00
00
00
00
00
00
00
ENDCHAR
STARTCHAR C00dc
ENCODING 220
SWIDTH 666 0
DWIDTH 7 0
BBX 7 12 0 -3
BITMAP
00
20
64
50
6c
52
8c
24
18
00
00
00
ENDCHAR
STARTCHAR C00dd
ENCODING 221
SWIDTH 666 0
DWIDTH 7 0
BBX 7 12 0 -3
BITMAP
60
12
24
30
ec
52
8c
24
18
00
00
00
ENDCHAR
STARTCHAR C00de
ENCODING 222
SWIDTH 666 0
DWIDTH 7 0
BBX 7 12 0 -3
BITMAP
70
42
74
30
ec
52
8c
24
18
00
00
00
ENDCHAR
STARTCHAR C00df
ENCODING 223
SWIDTH 666 0
DWIDTH 7 0
BBX 7 12 0 -3
BITMAP
70
12
24
50
6c
52
8c
24
18
00
00
00
ENDCHAR
STARTCHAR C00e0
ENCODING 224
SWIDTH 666 0
DWIDTH 7 0
BBX 7 12 0 -3
BITMAP
00
00
00
38
44
44
44
50
d8
00
00
00
ENDCHAR
STARTCHAR C00e1
ENCODING 225
SWIDTH 666 0
DWIDTH 7 0
BBX 7 12 0 -3
BITMAP
00
0e
14
48
4e
48
78
90
9c
00
00
00
ENDCHAR
STARTCHAR C00e2
ENCODING 226
SWIDTH 666 0
DWIDTH 7 0
BBX 7 12 0 -3
BITMAP
00
38
14
24
74
24
24
50
e0
00
00
00
ENDCHAR
STARTCHAR C00e3
ENCODING 227
SWIDTH 666 0
DWIDTH 7 0
BBX 7 12 0 -3
BITMAP
38
48
48
68
00
f8
00
00
00
00
00
00
ENDCHAR
STARTCHAR C00e4
ENCODING 228
SWIDTH 666 0
DWIDTH 7 0
BBX 7 12 0 -3
BITMAP
00
22
7e
44
7c
44
44
88
88
00
00
00
ENDCHAR
STARTCHAR C00e5
ENCODING 229
SWIDTH 666 0
DWIDTH 7 0
BBX 7 12 0 -3
BITMAP
00
22
7e
44
7c
44
44
88
88
00
00
00
ENDCHAR
STARTCHAR C00e6
ENCODING 230
SWIDTH 666 0
DWIDTH 7 0
BBX 7 12 0 -3
BITMAP
00
76
22
44
44
44
44
88
c8
08
18
00
ENDCHAR
STARTCHAR C00e7
ENCODING 231
SWIDTH 666 0
DWIDTH 7 0
BBX 7 12 0 -3
BITMAP
00
20
20
40
50
40
40
80
f8
00
00
00
ENDCHAR
STARTCHAR C00e8
ENCODING 232
SWIDTH 666 0
DWIDTH 7 0
BBX 7 12 0 -3
BITMAP
00
20
24
50
60
40
c0
80
f8
00
00
00
ENDCHAR
STARTCHAR C00e9
ENCODING 233
SWIDTH 666 0
DWIDTH 7 0
BBX 7 12 0 -3
BITMAP
00
1c
22
4c
54
64
44
88
70
00
00
00
ENDCHAR
STARTCHAR C00ea
ENCODING 234
SWIDTH 666 0
DWIDTH 7 0
BBX 7 12 0 -3
BITMAP
00
3e
48
90
9c
90
90
20
f8
00
00
00
ENDCHAR
STARTCHAR C00eb
ENCODING 235
SWIDTH 666 0
DWIDTH 7 0
BBX 7 12 0 -3
BITMAP
00
18
24
30
00
78
00
00
00
00
00
00
ENDCHAR
STARTCHAR C00ec
ENCODING 236
SWIDTH 666 0
DWIDTH 7 0
BBX 7 12 0 -3
BITMAP
00
30
3e
66
66
7c
60
c0
c0
00
00
00
ENDCHAR
STARTCHAR C00ed
ENCODING 237
SWIDTH 666 0
DWIDTH 7 0
BBX 7 12 0 -3
BITMAP
00
7c
54
20
70
20
20
40
40
00
00
00
ENDCHAR
STARTCHAR C00ee
ENCODING 238
SWIDTH 666 0
DWIDTH 7 0
BBX 7 12 0 -3
BITMAP
00
6e
32
44
44
44
44
88
c8
18
18
00
ENDCHAR
STARTCHAR C00ef
ENCODING 239
SWIDTH 666 0
DWIDTH 7 0
BBX 7 12 0 -3
BITMAP
00
40
40
00
58
68
48
90
90
00
00
00
ENDCHAR
STARTCHAR C00f0
ENCODING 240
SWIDTH 666 0
DWIDTH 7 0
BBX 7 12 0 -3
BITMAP
00
00
00
48
50
60
50
90
00
00
00
00
ENDCHAR
STARTCHAR C00f1
ENCODING 241
SWIDTH 666 0
DWIDTH 7 0
BBX 7 12 0 -3
BITMAP
00
00
00
00
6c
92
9c
20
fc
00
00
00
ENDCHAR
STARTCHAR C00f2
ENCODING 242
SWIDTH 666 0
DWIDTH 7 0
BBX 7 12 0 -3
BITMAP
00
02
0e
04
3c
44
44
88
70
00
00
00
ENDCHAR
STARTCHAR C00f3
ENCODING 243
SWIDTH 666 0
DWIDTH 7 0
BBX 7 12 0 -3
BITMAP
28
10
28
08
34
44
44
88
70
00
00
00
ENDCHAR
STARTCHAR C00f4
ENCODING 244
SWIDTH 666 0
DWIDTH 7 0
BBX 7 12 0 -3
BITMAP
00
20
38
40
58
64
44
88
88
00
00
00
ENDCHAR
STARTCHAR C00f5
ENCODING 245
SWIDTH 666 0
DWIDTH 7 0
BBX 7 12 0 -3
BITMAP
00
00
00
70
10
10
10
20
20
20
00
00
ENDCHAR
STARTCHAR C00f6
ENCODING 246
SWIDTH 666 0
DWIDTH 7 0
BBX 7 12 0 -3
BITMAP
00
00
24
00
d8
48
48
90
90
10
20
00
ENDCHAR
STARTCHAR C00f7
ENCODING 247
SWIDTH 666 0
DWIDTH 7 0
BBX 7 12 0 -3
BITMAP
00
10
10
20
28
20
20
40
30
00
00
00
ENDCHAR
STARTCHAR C00f8
ENCODING 248
SWIDTH 666 0
DWIDTH 7 0
BBX 7 12 0 -3
BITMAP
00
10
14
30
20
60
a0
40
30
00
00
00
ENDCHAR
STARTCHAR C00f9
ENCODING 249
SWIDTH 666 0
DWIDTH 7 0
BBX 7 12 0 -3
BITMAP
00
00
00
02
3c
4c
54
c8
f0
00
00
00
ENDCHAR
STARTCHAR C00fa
ENCODING 250
SWIDTH 666 0
DWIDTH 7 0
BBX 7 12 0 -3
BITMAP
00
00
00
00
2c
52
5c
a0
58
00
00
00
ENDCHAR
STARTCHAR C00fb
ENCODING 251
SWIDTH 666 0
DWIDTH 7 0
BBX 7 12 0 -3
BITMAP
00
1c
22
44
58
44
44
88
b0
00
00
00
ENDCHAR
STARTCHAR C00fc
ENCODING 252
SWIDTH 666 0
DWIDTH 7 0
BBX 7 12 0 -3
BITMAP
00
00
20
40
78
44
44
88
f0
80
80
00
ENDCHAR
STARTCHAR C00fd
ENCODING 253
SWIDTH 666 0
DWIDTH 7 0
BBX 7 12 0 -3
BITMAP
00
00
10
f8
20
f8
20
40
30
00
00
00
ENDCHAR
STARTCHAR C00fe
ENCODING 254
SWIDTH 666 0
DWIDTH 7 0
BBX 7 12 0 -3
BITMAP
00
00
00
00
5c
64
44
88
88
18
18
00
ENDCHAR
STARTCHAR C00ff
ENCODING 255
SWIDTH 666 0
DWIDTH 7 0
BBX 7 12 0 -3
BITMAP
00
00
00
00
5c
64
44
88
88
18
18
00
ENDCHAR
ENDFONT
