STARTFONT 2.1
FONT psf
SIZE 18 75 75
FONTBOUNDINGBOX 11 18 0 -4
STARTPROPERTIES 3
FONT_DESCENT 4
FONT_ASCENT 14
DEFAULT_CHAR 255
ENDPROPERTIES
CHARS 256
STARTCHAR C0000
ENCODING 0
SWIDTH 666 0
DWIDTH 11 0
BBX 11 18 0 -4
BITMAP
0000
0000
0000
0000
0000
0000
0000
0000
0000
0000
0000
0000
0000
0000
0000
0000
0000
0000
ENDCHAR
STARTCHAR C0001
ENCODING 1
SWIDTH 666 0
DWIDTH 11 0
BBX 11 18 0 -4
BITMAP
0000
0000
0000
0000
0000
0000
0000
0000
0000
0000
0000
0000
0000
0000
0000
0000
0000
0000
ENDCHAR
STARTCHAR C0002
ENCODING 2
SWIDTH 666 0
DWIDTH 11 0
BBX 11 18 0 -4
BITMAP
0000
0000
0000
0000
0000
0000
0000
0000
0000
0000
0000
0000
0000
0000
0000
0000
0000
0000
ENDCHAR
STARTCHAR C0003
ENCODING 3
SWIDTH 666 0
DWIDTH 11 0
BBX 11 18 0 -4
BITMAP
0000
0000
0000
0000
0000
0000
0000
0000
0000
0000
0000
0000
0000
0000
0000
0000
0000
0000
ENDCHAR
STARTCHAR C0004
ENCODING 4
SWIDTH 666 0
DWIDTH 11 0
BBX 11 18 0 -4
BITMAP
0000
0000
0000
0000
0000
0000
0000
0000
0000
0000
0000
0000
0000
0000
0000
0000
0000
0000
ENDCHAR
STARTCHAR C0005
ENCODING 5
SWIDTH 666 0
DWIDTH 11 0
BBX 11 18 0 -4
BITMAP
0000
0000
0000
0000
0000
0000
0000
0000
0000
0000
0000
0000
0000
0000
0000
0000
0000
0000
ENDCHAR
STARTCHAR C0006
ENCODING 6
SWIDTH 666 0
DWIDTH 11 0
BBX 11 18 0 -4
BITMAP
0000
0000
0000
0000
0000
0000
0000
0000
0000
0000
0000
0000
0000
0000
0000
0000
0000
0000
ENDCHAR
STARTCHAR C0007
ENCODING 7
SWIDTH 666 0
DWIDTH 11 0
BBX 11 18 0 -4
BITMAP
0000
0000
0000
0000
0000
0000
0000
0000
0000
0000
0000
0000
0000
0000
0000
0000
0000
0000
ENDCHAR
STARTCHAR C0008
ENCODING 8
SWIDTH 666 0
DWIDTH 11 0
BBX 11 18 0 -4
BITMAP
0000
0000
0000
0000
0000
0000
0000
0000
0000
0000
0000
0000
0000
0000
0000
0000
0000
0000
ENDCHAR
STARTCHAR C0009
ENCODING 9
SWIDTH 666 0
DWIDTH 11 0
BBX 11 18 0 -4
BITMAP
0000
0000
0000
0000
0000
0000
0000
0000
0000
0000
0000
0000
0000
0000
0000
0000
0000
0000
ENDCHAR
STARTCHAR C000a
ENCODING 10
SWIDTH 666 0
DWIDTH 11 0
BBX 11 18 0 -4
BITMAP
0000
0000
0000
0000
0000
0000
0000
0000
0000
0000
0000
0000
0000
0000
0000
0000
0000
0000
ENDCHAR
STARTCHAR C000b
ENCODING 11
SWIDTH 666 0
DWIDTH 11 0
BBX 11 18 0 -4
BITMAP
0000
0000
0000
0000
0000
0000
0000
0000
0000
0000
0000
0000
0000
0000
0000
0000
0000
0000
ENDCHAR
STARTCHAR C000c
ENCODING 12
SWIDTH 666 0
DWIDTH 11 0
BBX 11 18 0 -4
BITMAP
0000
0000
0000
0000
0000
0000
0000
0000
0000
0000
0000
0000
0000
0000
0000
0000
0000
0000
ENDCHAR
STARTCHAR C000d
ENCODING 13
SWIDTH 666 0
DWIDTH 11 0
BBX 11 18 0 -4
BITMAP
0000
0000
0000
0000
0000
0000
0000
0000
0000
0000
0000
0000
0000
0000
0000
0000
0000
0000
ENDCHAR
STARTCHAR C000e
ENCODING 14
SWIDTH 666 0
DWIDTH 11 0
BBX 11 18 0 -4
BITMAP
0000
0000
0000
0000
0000
0000
0000
0000
0000
0000
0000
0000
0000
0000
0000
0000
0000
0000
ENDCHAR
STARTCHAR C000f
ENCODING 15
SWIDTH 666 0
DWIDTH 11 0
BBX 11 18 0 -4
BITMAP
0000
0000
0000
0000
0000
0000
0000
0000
0000
0000
0000
0000
0000
0000
0000
0000
0000
0000
ENDCHAR
STARTCHAR C0010
ENCODING 16
SWIDTH 666 0
DWIDTH 11 0
BBX 11 18 0 -4
BITMAP
0000
0000
0000
0000
0000
0000
0000
0000
0000
0000
0000
0000
0000
0000
0000
0000
0000
0000
ENDCHAR
STARTCHAR C0011
ENCODING 17
SWIDTH 666 0
DWIDTH 11 0
BBX 11 18 0 -4
BITMAP
0000
0000
0000
0000
0000
0000
0000
0000
0000
0000
0000
0000
0000
0000
0000
0000
0000
0000
ENDCHAR
STARTCHAR C0012
ENCODING 18
SWIDTH 666 0
DWIDTH 11 0
BBX 11 18 0 -4
BITMAP
0000
0000
0000
0000
0000
0000
0000
0000
0000
0000
0000
0000
0000
0000
0000
0000
0000
0000
ENDCHAR
STARTCHAR C0013
ENCODING 19
SWIDTH 666 0
DWIDTH 11 0
BBX 11 18 0 -4
BITMAP
0000
0000
0000
0000
0000
0000
0000
0000
0000
0000
0000
0000
0000
0000
0000
0000
0000
0000
ENDCHAR
STARTCHAR C0014
ENCODING 20
SWIDTH 666 0
DWIDTH 11 0
BBX 11 18 0 -4
BITMAP
0000
0000
0000
0000
0000
0000
0000
0000
0000
0000
0000
0000
0000
0000
0000
0000
0000
0000
ENDCHAR
STARTCHAR C0015
ENCODING 21
SWIDTH 666 0
DWIDTH 11 0
BBX 11 18 0 -4
BITMAP
0000
0000
0000
0000
0000
0000
0000
0000
0000
0000
0000
0000
0000
0000
0000
0000
0000
0000
ENDCHAR
STARTCHAR C0016
ENCODING 22
SWIDTH 666 0
DWIDTH 11 0
BBX 11 18 0 -4
BITMAP
0000
0000
0000
0000
0000
0000
0000
0000
0000
0000
0000
0000
0000
0000
0000
0000
0000
0000
ENDCHAR
STARTCHAR C0017
ENCODING 23
SWIDTH 666 0
DWIDTH 11 0
BBX 11 18 0 -4
BITMAP
0000
0000
0000
0000
0000
0000
0000
0000
0000
0000
0000
0000
0000
0000
0000
0000
0000
0000
ENDCHAR
STARTCHAR C0018
ENCODING 24
SWIDTH 666 0
DWIDTH 11 0
BBX 11 18 0 -4
BITMAP
0000
0000
0000
0000
0000
0000
0000
0000
0000
0000
0000
0000
0000
0000
0000
0000
0000
0000
ENDCHAR
STARTCHAR C0019
ENCODING 25
SWIDTH 666 0
DWIDTH 11 0
BBX 11 18 0 -4
BITMAP
0000
0000
0000
0000
0000
0000
0000
0000
0000
0000
0000
0000
0000
0000
0000
0000
0000
0000
ENDCHAR
STARTCHAR C001a
ENCODING 26
SWIDTH 666 0
DWIDTH 11 0
BBX 11 18 0 -4
BITMAP
0000
0000
0000
0000
0000
0000
0000
0000
0000
0000
0000
0000
0000
0000
0000
0000
0000
0000
ENDCHAR
STARTCHAR C001b
ENCODING 27
SWIDTH 666 0
DWIDTH 11 0
BBX 11 18 0 -4
BITMAP
0000
0000
0000
0000
0000
0000
0000
0000
0000
0000
0000
0000
0000
0000
0000
0000
0000
0000
ENDCHAR
STARTCHAR C001c
ENCODING 28
SWIDTH 666 0
DWIDTH 11 0
BBX 11 18 0 -4
BITMAP
0000
0000
0000
0000
0000
0000
0000
0000
0000
0000
0000
0000
0000
0000
0000
0000
0000
0000
ENDCHAR
STARTCHAR C001d
ENCODING 29
SWIDTH 666 0
DWIDTH 11 0
BBX 11 18 0 -4
BITMAP
0000
0000
0000
0000
0000
0000
0000
0000
0000
0000
0000
0000
0000
0000
0000
0000
0000
0000
ENDCHAR
STARTCHAR C001e
ENCODING 30
SWIDTH 666 0
DWIDTH 11 0
BBX 11 18 0 -4
BITMAP
0000
0000
0000
0000
0000
0000
0000
0000
0000
0000
0000
0000
0000
0000
0000
0000
0000
0000
ENDCHAR
STARTCHAR C001f
ENCODING 31
SWIDTH 666 0
DWIDTH 11 0
BBX 11 18 0 -4
BITMAP
0000
0000
0000
0000
0000
0000
0000
0000
0000
0000
0000
0000
0000
0000
0000
0000
0000
0000
ENDCHAR
STARTCHAR C0020
ENCODING 32
SWIDTH 666 0
DWIDTH 11 0
BBX 11 18 0 -4
BITMAP
0000
0000
0000
0000
0000
0000
0000
0000
0000
0000
0000
0000
0000
0000
0000
0000
0000
0000
ENDCHAR
STARTCHAR C0021
ENCODING 33
SWIDTH 666 0
DWIDTH 11 0
BBX 11 18 0 -4
BITMAP
0000
0000
0000
3c00
2c00
2c00
2c00
2c00
2c00
2c00
3c00
3c00
2c00
3c00
0000
0000
0000
0000
ENDCHAR
STARTCHAR C0022
ENCODING 34
SWIDTH 666 0
DWIDTH 11 0
BBX 11 18 0 -4
BITMAP
0000
0000
0000
7f00
5b00
5b00
5b00
7f00
0000
0000
0000
0000
0000
0000
0000
0000
0000
0000
ENDCHAR
STARTCHAR C0023
ENCODING 35
SWIDTH 666 0
DWIDTH 11 0
BBX 11 18 0 -4
BITMAP
0000
0000
0000
0000
0000
3f00
2b00
ebc0
80c0
ebc0
80c0
ebc0
2b00
3f00
0000
0000
0000
0000
ENDCHAR
STARTCHAR C0024
ENCODING 36
SWIDTH 666 0
DWIDTH 11 0
BBX 11 18 0 -4
BITMAP
0000
0000
0000
3f00
6b80
c1c0
aac0
abc0
c1c0
eac0
aac0
c1c0
6b80
3f00
0000
0000
0000
0000
ENDCHAR
STARTCHAR C0025
ENCODING 37
SWIDTH 666 0
DWIDTH 11 0
BBX 11 18 0 -4
BITMAP
0000
0000
0000
7800
dfc0
aec0
ddc0
7b80
3700
6f80
ddc0
bac0
fdc0
0780
0000
0000
0000
0000
ENDCHAR
STARTCHAR C0026
ENCODING 38
SWIDTH 666 0
DWIDTH 11 0
BBX 11 18 0 -4
BITMAP
0000
0000
0000
7e00
c700
bb00
bb00
c700
ce00
b7c0
bac0
bdc0
c2c0
7fc0
0000
0000
0000
0000
ENDCHAR
STARTCHAR C0027
ENCODING 39
SWIDTH 666 0
DWIDTH 11 0
BBX 11 18 0 -4
BITMAP
0000
0000
0000
1e00
1600
1600
1e00
0000
0000
0000
0000
0000
0000
0000
0000
0000
0000
0000
ENDCHAR
STARTCHAR C0028
ENCODING 40
SWIDTH 666 0
DWIDTH 11 0
BBX 11 18 0 -4
BITMAP
0000
0000
0000
0f00
1b00
3700
2e00
2c00
2c00
2c00
2e00
3700
1b00
0f00
0000
0000
0000
0000
ENDCHAR
STARTCHAR C0029
ENCODING 41
SWIDTH 666 0
DWIDTH 11 0
BBX 11 18 0 -4
BITMAP
0000
0000
0000
3c00
2e00
3700
1b00
0b00
0b00
0b00
1b00
3700
2e00
3c00
0000
0000
0000
0000
ENDCHAR
STARTCHAR C002a
ENCODING 42
SWIDTH 666 0
DWIDTH 11 0
BBX 11 18 0 -4
BITMAP
0000
0000
0000
0000
1e00
f7c0
b6c0
d5c0
6380
d5c0
b6c0
f7c0
1e00
0000
0000
0000
0000
0000
ENDCHAR
STARTCHAR C002b
ENCODING 43
SWIDTH 666 0
DWIDTH 11 0
BBX 11 18 0 -4
BITMAP
0000
0000
0000
0000
1e00
1600
1600
f7c0
80c0
f7c0
1600
1600
1e00
0000
0000
0000
0000
0000
ENDCHAR
STARTCHAR C002c
ENCODING 44
SWIDTH 666 0
DWIDTH 11 0
BBX 11 18 0 -4
BITMAP
0000
0000
0000
0000
0000
0000
0000
0000
0000
0000
1f00
1300
1300
3700
2e00
3c00
0000
0000
ENDCHAR
STARTCHAR C002d
ENCODING 45
SWIDTH 666 0
DWIDTH 11 0
BBX 11 18 0 -4
BITMAP
0000
0000
0000
0000
0000
0000
0000
7f80
4180
7f80
0000
0000
0000
0000
0000
0000
0000
0000
ENDCHAR
STARTCHAR C002e
ENCODING 46
SWIDTH 666 0
DWIDTH 11 0
BBX 11 18 0 -4
BITMAP
0000
0000
0000
0000
0000
0000
0000
0000
0000
0000
1f00
1300
1300
1f00
0000
0000
0000
0000
ENDCHAR
STARTCHAR C002f
ENCODING 47
SWIDTH 666 0
DWIDTH 11 0
BBX 11 18 0 -4
BITMAP
0000
0000
0000
0000
03c0
06c0
0dc0
1b80
3700
6e00
dc00
b800
f000
0000
0000
0000
0000
0000
ENDCHAR
STARTCHAR C0030
ENCODING 48
SWIDTH 666 0
DWIDTH 11 0
BBX 11 18 0 -4
BITMAP
0000
0000
0000
7f80
c1c0
bec0
b2c0
bec0
b6c0
bec0
b2c0
bec0
c1c0
7f80
0000
0000
0000
0000
ENDCHAR
STARTCHAR C0031
ENCODING 49
SWIDTH 666 0
DWIDTH 11 0
BBX 11 18 0 -4
BITMAP
0000
0000
0000
0f00
1b00
3300
6b00
5b00
7b00
0b00
0b00
0b00
0b00
0f00
0000
0000
0000
0000
ENDCHAR
STARTCHAR C0032
ENCODING 50
SWIDTH 666 0
DWIDTH 11 0
BBX 11 18 0 -4
BITMAP
0000
0000
0000
7f80
c1c0
bec0
f2c0
0ec0
39c0
6780
de00
bfc0
80c0
ffc0
0000
0000
0000
0000
ENDCHAR
STARTCHAR C0033
ENCODING 51
SWIDTH 666 0
DWIDTH 11 0
BBX 11 18 0 -4
BITMAP
0000
0000
0000
7f80
c1c0
bec0
f2c0
3ec0
21c0
3ec0
f2c0
bec0
c1c0
7f80
0000
0000
0000
0000
ENDCHAR
STARTCHAR C0034
ENCODING 52
SWIDTH 666 0
DWIDTH 11 0
BBX 11 18 0 -4
BITMAP
0000
0000
0000
0f00
1b00
3700
6e00
df00
bb00
bbc0
80c0
fbc0
0b00
0f00
0000
0000
0000
0000
ENDCHAR
STARTCHAR C0035
ENCODING 53
SWIDTH 666 0
DWIDTH 11 0
BBX 11 18 0 -4
BITMAP
0000
0000
0000
ff80
8180
bf80
bf00
8380
fdc0
06c0
f6c0
bdc0
c380
7f00
0000
0000
0000
0000
ENDCHAR
STARTCHAR C0036
ENCODING 54
SWIDTH 666 0
DWIDTH 11 0
BBX 11 18 0 -4
BITMAP
0000
0000
0000
3f80
6180
df80
b800
bf80
81c0
bec0
b2c0
bec0
c1c0
7f80
0000
0000
0000
0000
ENDCHAR
STARTCHAR C0037
ENCODING 55
SWIDTH 666 0
DWIDTH 11 0
BBX 11 18 0 -4
BITMAP
0000
0000
0000
ffc0
80c0
fec0
0dc0
1b80
3700
2e00
2c00
2c00
2c00
3c00
0000
0000
0000
0000
ENDCHAR
STARTCHAR C0038
ENCODING 56
SWIDTH 666 0
DWIDTH 11 0
BBX 11 18 0 -4
BITMAP
0000
0000
0000
7f80
c1c0
bec0
b2c0
bec0
c1c0
bec0
b2c0
bec0
c1c0
7f80
0000
0000
0000
0000
ENDCHAR
STARTCHAR C0039
ENCODING 57
SWIDTH 666 0
DWIDTH 11 0
BBX 11 18 0 -4
BITMAP
0000
0000
0000
7f80
c1c0
bec0
b2c0
bec0
c0c0
7ec0
06c0
7dc0
4380
7f00
0000
0000
0000
0000
ENDCHAR
STARTCHAR C003a
ENCODING 58
SWIDTH 666 0
DWIDTH 11 0
BBX 11 18 0 -4
BITMAP
0000
0000
0000
0000
0000
0000
1f00
1300
1300
1f00
1f00
1300
1300
1f00
0000
0000
0000
0000
ENDCHAR
STARTCHAR C003b
ENCODING 59
SWIDTH 666 0
DWIDTH 11 0
BBX 11 18 0 -4
BITMAP
0000
0000
0000
0000
0000
0000
1f00
1300
1300
1f00
1f00
1300
1300
3700
2e00
3c00
0000
0000
ENDCHAR
STARTCHAR C003c
ENCODING 60
SWIDTH 666 0
DWIDTH 11 0
BBX 11 18 0 -4
BITMAP
0000
0000
0000
0000
0f00
1b00
3700
6e00
5c00
6e00
3700
1b00
0f00
0000
0000
0000
0000
0000
ENDCHAR
STARTCHAR C003d
ENCODING 61
SWIDTH 666 0
DWIDTH 11 0
BBX 11 18 0 -4
BITMAP
0000
0000
0000
0000
0000
0000
ff80
8180
ff80
ff80
8180
ff80
0000
0000
0000
0000
0000
0000
ENDCHAR
STARTCHAR C003e
ENCODING 62
SWIDTH 666 0
DWIDTH 11 0
BBX 11 18 0 -4
BITMAP
0000
0000
0000
0000
3c00
2e00
3700
1b80
0d80
1b80
3700
2e00
3c00
0000
0000
0000
0000
0000
ENDCHAR
STARTCHAR C003f
ENCODING 63
SWIDTH 666 0
DWIDTH 11 0
BBX 11 18 0 -4
BITMAP
0000
0000
0000
7f80
c1c0
bec0
f6c0
0dc0
1b80
1700
1600
1e00
1600
1e00
0000
0000
0000
0000
ENDCHAR
STARTCHAR C0040
ENCODING 64
SWIDTH 666 0
DWIDTH 11 0
BBX 11 18 0 -4
BITMAP
0000
0000
0000
0000
0000
3f80
61c0
dee0
b560
a960
ad60
ad60
b2e0
dfc0
6180
3f80
0000
0000
ENDCHAR
STARTCHAR C0041
ENCODING 65
SWIDTH 666 0
DWIDTH 11 0
BBX 11 18 0 -4
BITMAP
0000
0000
0000
1e00
3700
6b80
ddc0
bec0
bec0
80c0
bec0
b2c0
b2c0
f3c0
0000
0000
0000
0000
ENDCHAR
STARTCHAR C0042
ENCODING 66
SWIDTH 666 0
DWIDTH 11 0
BBX 11 18 0 -4
BITMAP
0000
0000
0000
ff80
81c0
dec0
5ac0
5ec0
41c0
5ec0
5ac0
dec0
81c0
ff80
0000
0000
0000
0000
ENDCHAR
STARTCHAR C0043
ENCODING 67
SWIDTH 666 0
DWIDTH 11 0
BBX 11 18 0 -4
BITMAP
0000
0000
0000
3f80
61c0
dec0
bbc0
b000
b000
b000
bbc0
dec0
61c0
3f80
0000
0000
0000
0000
ENDCHAR
STARTCHAR C0044
ENCODING 68
SWIDTH 666 0
DWIDTH 11 0
BBX 11 18 0 -4
BITMAP
0000
0000
0000
ff00
8380
ddc0
5ec0
5ac0
5ac0
5ac0
5ec0
ddc0
8380
ff00
0000
0000
0000
0000
ENDCHAR
STARTCHAR C0045
ENCODING 69
SWIDTH 666 0
DWIDTH 11 0
BBX 11 18 0 -4
BITMAP
0000
0000
0000
ffc0
80c0
bfc0
b000
bf80
8180
bf80
b000
bfc0
80c0
ffc0
0000
0000
0000
0000
ENDCHAR
STARTCHAR C0046
ENCODING 70
SWIDTH 666 0
DWIDTH 11 0
BBX 11 18 0 -4
BITMAP
0000
0000
0000
ffc0
80c0
bfc0
b000
bf80
8180
bf80
b000
b000
b000
f000
0000
0000
0000
0000
ENDCHAR
STARTCHAR C0047
ENCODING 71
SWIDTH 666 0
DWIDTH 11 0
BBX 11 18 0 -4
BITMAP
0000
0000
0000
3f80
61c0
dec0
bbc0
bfc0
b0c0
bec0
bac0
dec0
61c0
3f80
0000
0000
0000
0000
ENDCHAR
STARTCHAR C0048
ENCODING 72
SWIDTH 666 0
DWIDTH 11 0
BBX 11 18 0 -4
BITMAP
0000
0000
0000
f3c0
b2c0
b2c0
b2c0
bec0
80c0
bec0
b2c0
b2c0
b2c0
f3c0
0000
0000
0000
0000
ENDCHAR
STARTCHAR C0049
ENCODING 73
SWIDTH 666 0
DWIDTH 11 0
BBX 11 18 0 -4
BITMAP
0000
0000
0000
7f80
4180
7780
1600
1600
1600
1600
1600
7780
4180
7f80
0000
0000
0000
0000
ENDCHAR
STARTCHAR C004a
ENCODING 74
SWIDTH 666 0
DWIDTH 11 0
BBX 11 18 0 -4
BITMAP
0000
0000
0000
0780
0580
0580
0580
0580
0580
f580
b580
bd80
c380
7f00
0000
0000
0000
0000
ENDCHAR
STARTCHAR C004b
ENCODING 75
SWIDTH 666 0
DWIDTH 11 0
BBX 11 18 0 -4
BITMAP
0000
0000
0000
f3c0
b6c0
bdc0
bb80
b700
8e00
b700
bb80
bdc0
b6c0
f3c0
0000
0000
0000
0000
ENDCHAR
STARTCHAR C004c
ENCODING 76
SWIDTH 666 0
DWIDTH 11 0
BBX 11 18 0 -4
BITMAP
0000
0000
0000
f000
b000
b000
b000
b000
b000
b000
b000
bfc0
80c0
ffc0
0000
0000
0000
0000
ENDCHAR
STARTCHAR C004d
ENCODING 77
SWIDTH 666 0
DWIDTH 11 0
BBX 11 18 0 -4
BITMAP
0000
0000
0000
f3c0
bec0
9cc0
aac0
b6c0
b6c0
bec0
b2c0
b2c0
b2c0
f3c0
0000
0000
0000
0000
ENDCHAR
STARTCHAR C004e
ENCODING 78
SWIDTH 666 0
DWIDTH 11 0
BBX 11 18 0 -4
BITMAP
0000
0000
0000
f3c0
b2c0
bac0
9ec0
aec0
b6c0
bac0
bcc0
b6c0
b2c0
f3c0
0000
0000
0000
0000
ENDCHAR
STARTCHAR C004f
ENCODING 79
SWIDTH 666 0
DWIDTH 11 0
BBX 11 18 0 -4
BITMAP
0000
0000
0000
3f00
6380
ddc0
bec0
b2c0
b2c0
b2c0
bec0
ddc0
6380
3f00
0000
0000
0000
0000
ENDCHAR
STARTCHAR C0050
ENCODING 80
SWIDTH 666 0
DWIDTH 11 0
BBX 11 18 0 -4
BITMAP
0000
0000
0000
ff80
81c0
bec0
b2c0
bec0
81c0
bf80
b000
b000
b000
f000
0000
0000
0000
0000
ENDCHAR
STARTCHAR C0051
ENCODING 81
SWIDTH 666 0
DWIDTH 11 0
BBX 11 18 0 -4
BITMAP
0000
0000
0000
3f00
6380
ddc0
bec0
b2c0
bec0
b6c0
bac0
ddc0
62c0
3fc0
0000
0000
0000
0000
ENDCHAR
STARTCHAR C0052
ENCODING 82
SWIDTH 666 0
DWIDTH 11 0
BBX 11 18 0 -4
BITMAP
0000
0000
0000
ff80
81c0
bec0
b2c0
bec0
81c0
b780
bb80
bdc0
b6c0
f3c0
0000
0000
0000
0000
ENDCHAR
STARTCHAR C0053
ENCODING 83
SWIDTH 666 0
DWIDTH 11 0
BBX 11 18 0 -4
BITMAP
0000
0000
0000
7f80
c1c0
bec0
b3c0
bf80
c1c0
7ec0
f2c0
bec0
c1c0
7f80
0000
0000
0000
0000
ENDCHAR
STARTCHAR C0054
ENCODING 84
SWIDTH 666 0
DWIDTH 11 0
BBX 11 18 0 -4
BITMAP
0000
0000
0000
ffc0
80c0
f7c0
1600
1600
1600
1600
1600
1600
1600
1e00
0000
0000
0000
0000
ENDCHAR
STARTCHAR C0055
ENCODING 85
SWIDTH 666 0
DWIDTH 11 0
BBX 11 18 0 -4
BITMAP
0000
0000
0000
f3c0
b2c0
b2c0
b2c0
b2c0
b2c0
b2c0
b2c0
bec0
c1c0
7f80
0000
0000
0000
0000
ENDCHAR
STARTCHAR C0056
ENCODING 86
SWIDTH 666 0
DWIDTH 11 0
BBX 11 18 0 -4
BITMAP
0000
0000
0000
f3c0
b2c0
b2c0
bec0
ddc0
5d80
6b80
2b00
3700
1600
1e00
0000
0000
0000
0000
ENDCHAR
STARTCHAR C0057
ENCODING 87
SWIDTH 666 0
DWIDTH 11 0
BBX 11 18 0 -4
BITMAP
0000
0000
0000
f3c0
b2c0
b2c0
b2c0
b2c0
bec0
b6c0
b6c0
aac0
ddc0
7f80
0000
0000
0000
0000
ENDCHAR
STARTCHAR C0058
ENCODING 88
SWIDTH 666 0
DWIDTH 11 0
BBX 11 18 0 -4
BITMAP
0000
0000
0000
f3c0
b2c0
bec0
ddc0
6b80
3700
6b80
ddc0
bec0
b2c0
f3c0
0000
0000
0000
0000
ENDCHAR
STARTCHAR C0059
ENCODING 89
SWIDTH 666 0
DWIDTH 11 0
BBX 11 18 0 -4
BITMAP
0000
0000
0000
f3c0
b2c0
bec0
ddc0
6b80
3700
1600
1600
1600
1600
1e00
0000
0000
0000
0000
ENDCHAR
STARTCHAR C005a
ENCODING 90
SWIDTH 666 0
DWIDTH 11 0
BBX 11 18 0 -4
BITMAP
0000
0000
0000
ffc0
80c0
fec0
0dc0
1b80
3700
6e00
dc00
bfc0
80c0
ffc0
0000
0000
0000
0000
ENDCHAR
STARTCHAR C005b
ENCODING 91
SWIDTH 666 0
DWIDTH 11 0
BBX 11 18 0 -4
BITMAP
0000
0000
0000
7e00
4600
5e00
5800
5800
5800
5800
5800
5800
5800
5e00
4600
7e00
0000
0000
ENDCHAR
STARTCHAR C005c
ENCODING 92
SWIDTH 666 0
DWIDTH 11 0
BBX 11 18 0 -4
BITMAP
0000
0000
0000
0000
f000
b800
dc00
6e00
3700
1b80
0dc0
06c0
03c0
0000
0000
0000
0000
0000
ENDCHAR
STARTCHAR C005d
ENCODING 93
SWIDTH 666 0
DWIDTH 11 0
BBX 11 18 0 -4
BITMAP
0000
0000
0000
7e00
4600
7600
1600
1600
1600
1600
1600
1600
1600
7600
4600
7e00
0000
0000
ENDCHAR
STARTCHAR C005e
ENCODING 94
SWIDTH 666 0
DWIDTH 11 0
BBX 11 18 0 -4
BITMAP
0000
0000
0000
1e00
3700
2b00
3f00
0000
0000
0000
0000
0000
0000
0000
0000
0000
0000
0000
ENDCHAR
STARTCHAR C005f
ENCODING 95
SWIDTH 666 0
DWIDTH 11 0
BBX 11 18 0 -4
BITMAP
0000
0000
0000
0000
0000
0000
0000
0000
0000
0000
0000
ffc0
80c0
ffc0
0000
0000
0000
0000
ENDCHAR
STARTCHAR C0060
ENCODING 96
SWIDTH 666 0
DWIDTH 11 0
BBX 11 18 0 -4
BITMAP
0000
0000
0000
3e00
2600
2600
3700
1b00
0f00
0000
0000
0000
0000
0000
0000
0000
0000
0000
ENDCHAR
STARTCHAR C0061
ENCODING 97
SWIDTH 666 0
DWIDTH 11 0
BBX 11 18 0 -4
BITMAP
0000
0000
0000
0000
0000
7f80
c1c0
bec0
fec0
c0c0
bec0
bcc0
c2c0
7fc0
0000
0000
0000
0000
ENDCHAR
STARTCHAR C0062
ENCODING 98
SWIDTH 666 0
DWIDTH 11 0
BBX 11 18 0 -4
BITMAP
0000
0000
0000
f000
b000
bf00
a380
9dc0
bec0
b2c0
bec0
9dc0
a380
ff00
0000
0000
0000
0000
ENDCHAR
STARTCHAR C0063
ENCODING 99
SWIDTH 666 0
DWIDTH 11 0
BBX 11 18 0 -4
BITMAP
0000
0000
0000
0000
0000
3f80
61c0
dec0
bbc0
b000
bbc0
dec0
61c0
3f80
0000
0000
0000
0000
ENDCHAR
STARTCHAR C0064
ENCODING 100
SWIDTH 666 0
DWIDTH 11 0
BBX 11 18 0 -4
BITMAP
0000
0000
0000
03c0
02c0
3ec0
62c0
dcc0
bec0
b2c0
bec0
dcc0
62c0
3fc0
0000
0000
0000
0000
ENDCHAR
STARTCHAR C0065
ENCODING 101
SWIDTH 666 0
DWIDTH 11 0
BBX 11 18 0 -4
BITMAP
0000
0000
0000
0000
0000
3f00
6380
ddc0
bec0
80c0
bfc0
dd80
6380
3f00
0000
0000
0000
0000
ENDCHAR
STARTCHAR C0066
ENCODING 102
SWIDTH 666 0
DWIDTH 11 0
BBX 11 18 0 -4
BITMAP
0000
0000
0000
0fc0
18c0
f7c0
80c0
f7c0
1600
1600
1600
1600
1600
1e00
0000
0000
0000
0000
ENDCHAR
STARTCHAR C0067
ENCODING 103
SWIDTH 666 0
DWIDTH 11 0
BBX 11 18 0 -4
BITMAP
0000
0000
0000
0000
0000
3fc0
62c0
dcc0
bec0
b2c0
bec0
dcc0
62c0
7ec0
5ec0
61c0
3f80
0000
ENDCHAR
STARTCHAR C0068
ENCODING 104
SWIDTH 666 0
DWIDTH 11 0
BBX 11 18 0 -4
BITMAP
0000
0000
0000
f000
b000
bf80
a1c0
9ec0
bac0
b2c0
b2c0
b2c0
b2c0
f3c0
0000
0000
0000
0000
ENDCHAR
STARTCHAR C0069
ENCODING 105
SWIDTH 666 0
DWIDTH 11 0
BBX 11 18 0 -4
BITMAP
0000
0000
0000
1e00
1600
7e00
4600
7600
1600
1600
1600
7780
4180
7f80
0000
0000
0000
0000
ENDCHAR
STARTCHAR C006a
ENCODING 106
SWIDTH 666 0
DWIDTH 11 0
BBX 11 18 0 -4
BITMAP
0000
0000
0000
1e00
1600
7e00
4600
7600
1600
1600
1600
1600
1600
1600
f600
8e00
fc00
0000
ENDCHAR
STARTCHAR C006b
ENCODING 107
SWIDTH 666 0
DWIDTH 11 0
BBX 11 18 0 -4
BITMAP
0000
0000
0000
f000
b000
b780
bd80
bb80
b700
8e00
b700
bb80
bd80
f780
0000
0000
0000
0000
ENDCHAR
STARTCHAR C006c
ENCODING 108
SWIDTH 666 0
DWIDTH 11 0
BBX 11 18 0 -4
BITMAP
0000
0000
0000
3c00
2c00
2c00
2c00
2c00
2c00
2c00
2c00
2f80
3180
1f80
0000
0000
0000
0000
ENDCHAR
STARTCHAR C006d
ENCODING 109
SWIDTH 666 0
DWIDTH 11 0
BBX 11 18 0 -4
BITMAP
0000
0000
0000
0000
0000
ff80
89c0
b6c0
b6c0
b6c0
b6c0
b6c0
b6c0
ffc0
0000
0000
0000
0000
ENDCHAR
STARTCHAR C006e
ENCODING 110
SWIDTH 666 0
DWIDTH 11 0
BBX 11 18 0 -4
BITMAP
0000
0000
0000
0000
0000
ff80
a1c0
9ec0
bac0
b2c0
b2c0
b2c0
b2c0
f3c0
0000
0000
0000
0000
ENDCHAR
STARTCHAR C006f
ENCODING 111
SWIDTH 666 0
DWIDTH 11 0
BBX 11 18 0 -4
BITMAP
0000
0000
0000
0000
0000
3f00
6380
ddc0
bec0
b2c0
bec0
ddc0
6380
3f00
0000
0000
0000
0000
ENDCHAR
STARTCHAR C0070
ENCODING 112
SWIDTH 666 0
DWIDTH 11 0
BBX 11 18 0 -4
BITMAP
0000
0000
0000
0000
0000
ff00
a380
9dc0
bec0
b2c0
bec0
9dc0
a380
bf00
b000
b000
f000
0000
ENDCHAR
STARTCHAR C0071
ENCODING 113
SWIDTH 666 0
DWIDTH 11 0
BBX 11 18 0 -4
BITMAP
0000
0000
0000
0000
0000
3fc0
62c0
dcc0
bec0
b2c0
bec0
dcc0
62c0
3ec0
02c0
02c0
03c0
0000
ENDCHAR
STARTCHAR C0072
ENCODING 114
SWIDTH 666 0
DWIDTH 11 0
BBX 11 18 0 -4
BITMAP
0000
0000
0000
0000
0000
7f80
51c0
4ec0
5fc0
5800
5800
5800
5800
7800
0000
0000
0000
0000
ENDCHAR
STARTCHAR C0073
ENCODING 115
SWIDTH 666 0
DWIDTH 11 0
BBX 11 18 0 -4
BITMAP
0000
0000
0000
0000
0000
7f80
c1c0
bec0
bfc0
c1c0
fec0
bec0
c1c0
7f80
0000
0000
0000
0000
ENDCHAR
STARTCHAR C0074
ENCODING 116
SWIDTH 666 0
DWIDTH 11 0
BBX 11 18 0 -4
BITMAP
0000
0000
0000
1e00
1600
f7c0
80c0
f7c0
1600
1600
1600
17c0
18c0
0fc0
0000
0000
0000
0000
ENDCHAR
STARTCHAR C0075
ENCODING 117
SWIDTH 666 0
DWIDTH 11 0
BBX 11 18 0 -4
BITMAP
0000
0000
0000
0000
0000
f780
b580
b580
b580
b580
bd80
b9c0
c6c0
7fc0
0000
0000
0000
0000
ENDCHAR
STARTCHAR C0076
ENCODING 118
SWIDTH 666 0
DWIDTH 11 0
BBX 11 18 0 -4
BITMAP
0000
0000
0000
0000
0000
f3c0
b2c0
b2c0
b2c0
bec0
ddc0
6b80
3700
1e00
0000
0000
0000
0000
ENDCHAR
STARTCHAR C0077
ENCODING 119
SWIDTH 666 0
DWIDTH 11 0
BBX 11 18 0 -4
BITMAP
0000
0000
0000
0000
0000
f3c0
b2c0
b2c0
bec0
b6c0
b6c0
aac0
ddc0
7f80
0000
0000
0000
0000
ENDCHAR
STARTCHAR C0078
ENCODING 120
SWIDTH 666 0
DWIDTH 11 0
BBX 11 18 0 -4
BITMAP
0000
0000
0000
0000
0000
f3c0
bec0
ddc0
6b80
3700
6b80
ddc0
bec0
f3c0
0000
0000
0000
0000
ENDCHAR
STARTCHAR C0079
ENCODING 121
SWIDTH 666 0
DWIDTH 11 0
BBX 11 18 0 -4
BITMAP
0000
0000
0000
0000
0000
f3c0
b2c0
bec0
ddc0
5d80
6b80
2b00
3700
3600
ee00
9c00
f800
0000
ENDCHAR
STARTCHAR C007a
ENCODING 122
SWIDTH 666 0
DWIDTH 11 0
BBX 11 18 0 -4
BITMAP
0000
0000
0000
0000
0000
ffc0
80c0
fdc0
1b80
3700
6e00
dfc0
80c0
ffc0
0000
0000
0000
0000
ENDCHAR
STARTCHAR C007b
ENCODING 123
SWIDTH 666 0
DWIDTH 11 0
BBX 11 18 0 -4
BITMAP
0000
0000
0000
1f00
3300
2f00
2c00
ec00
9c00
ec00
2c00
2f00
3300
1f00
0000
0000
0000
0000
ENDCHAR
STARTCHAR C007c
ENCODING 124
SWIDTH 666 0
DWIDTH 11 0
BBX 11 18 0 -4
BITMAP
0000
0000
0000
1e00
1600
1600
1600
1600
1600
1600
1600
1600
1600
1e00
0000
0000
0000
0000
ENDCHAR
STARTCHAR C007d
ENCODING 125
SWIDTH 666 0
DWIDTH 11 0
BBX 11 18 0 -4
BITMAP
0000
0000
0000
f800
9c00
ec00
2c00
2f00
3300
2f00
2c00
ec00
9c00
f800
0000
0000
0000
0000
ENDCHAR
STARTCHAR C007e
ENCODING 126
SWIDTH 666 0
DWIDTH 11 0
BBX 11 18 0 -4
BITMAP
0000
0000
0000
7f80
cd80
b380
ff00
0000
0000
0000
0000
0000
0000
0000
0000
0000
0000
0000
ENDCHAR
STARTCHAR C007f
ENCODING 127
SWIDTH 666 0
DWIDTH 11 0
BBX 11 18 0 -4
BITMAP
0000
0000
0000
7f80
cd80
b380
ff00
0000
0000
0000
0000
0000
0000
0000
0000
0000
0000
0000
ENDCHAR
STARTCHAR C0080
ENCODING 128
SWIDTH 666 0
DWIDTH 11 0
BBX 11 18 0 -4
BITMAP
0000
0000
0000
7f80
cd80
b380
ff00
0000
0000
0000
0000
0000
0000
0000
0000
0000
0000
0000
ENDCHAR
STARTCHAR C0081
ENCODING 129
SWIDTH 666 0
DWIDTH 11 0
BBX 11 18 0 -4
BITMAP
0000
0000
0000
7f80
cd80
b380
ff00
0000
0000
0000
0000
0000
0000
0000
0000
0000
0000
0000
ENDCHAR
STARTCHAR C0082
ENCODING 130
SWIDTH 666 0
DWIDTH 11 0
BBX 11 18 0 -4
BITMAP
0000
0000
0000
7f80
cd80
b380
ff00
0000
0000
0000
0000
0000
0000
0000
0000
0000
0000
0000
ENDCHAR
STARTCHAR C0083
ENCODING 131
SWIDTH 666 0
DWIDTH 11 0
BBX 11 18 0 -4
BITMAP
0000
0000
0000
7f80
cd80
b380
ff00
0000
0000
0000
0000
0000
0000
0000
0000
0000
0000
0000
ENDCHAR
STARTCHAR C0084
ENCODING 132
SWIDTH 666 0
DWIDTH 11 0
BBX 11 18 0 -4
BITMAP
0000
0000
0000
7f80
cd80
b380
ff00
0000
0000
0000
0000
0000
0000
0000
0000
0000
0000
0000
ENDCHAR
STARTCHAR C0085
ENCODING 133
SWIDTH 666 0
DWIDTH 11 0
BBX 11 18 0 -4
BITMAP
0000
0000
0000
7f80
cd80
b380
ff00
0000
0000
0000
0000
0000
0000
0000
0000
0000
0000
0000
ENDCHAR
STARTCHAR C0086
ENCODING 134
SWIDTH 666 0
DWIDTH 11 0
BBX 11 18 0 -4
BITMAP
0000
0000
0000
7f80
cd80
b380
ff00
0000
0000
0000
0000
0000
0000
0000
0000
0000
0000
0000
ENDCHAR
STARTCHAR C0087
ENCODING 135
SWIDTH 666 0
DWIDTH 11 0
BBX 11 18 0 -4
BITMAP
0000
0000
0000
7f80
cd80
b380
ff00
0000
0000
0000
0000
0000
0000
0000
0000
0000
0000
0000
ENDCHAR
STARTCHAR C0088
ENCODING 136
SWIDTH 666 0
DWIDTH 11 0
BBX 11 18 0 -4
BITMAP
0000
0000
0000
7f80
cd80
b380
ff00
0000
0000
0000
0000
0000
0000
0000
0000
0000
0000
0000
ENDCHAR
STARTCHAR C0089
ENCODING 137
SWIDTH 666 0
DWIDTH 11 0
BBX 11 18 0 -4
BITMAP
0000
0000
0000
7f80
cd80
b380
ff00
0000
0000
0000
0000
0000
0000
0000
0000
0000
0000
0000
ENDCHAR
STARTCHAR C008a
ENCODING 138
SWIDTH 666 0
DWIDTH 11 0
BBX 11 18 0 -4
BITMAP
0000
0000
0000
7f80
cd80
b380
ff00
0000
0000
0000
0000
0000
0000
0000
0000
0000
0000
0000
ENDCHAR
STARTCHAR C008b
ENCODING 139
SWIDTH 666 0
DWIDTH 11 0
BBX 11 18 0 -4
BITMAP
0000
0000
0000
7f80
cd80
b380
ff00
0000
0000
0000
0000
0000
0000
0000
0000
0000
0000
0000
ENDCHAR
STARTCHAR C008c
ENCODING 140
SWIDTH 666 0
DWIDTH 11 0
BBX 11 18 0 -4
BITMAP
0000
0000
0000
7f80
cd80
b380
ff00
0000
0000
0000
0000
0000
0000
0000
0000
0000
0000
0000
ENDCHAR
STARTCHAR C008d
ENCODING 141
SWIDTH 666 0
DWIDTH 11 0
BBX 11 18 0 -4
BITMAP
0000
0000
0000
7f80
cd80
b380
ff00
0000
0000
0000
0000
0000
0000
0000
0000
0000
0000
0000
ENDCHAR
STARTCHAR C008e
ENCODING 142
SWIDTH 666 0
DWIDTH 11 0
BBX 11 18 0 -4
BITMAP
0000
0000
0000
7f80
cd80
b380
ff00
0000
0000
0000
0000
0000
0000
0000
0000
0000
0000
0000
ENDCHAR
STARTCHAR C008f
ENCODING 143
SWIDTH 666 0
DWIDTH 11 0
BBX 11 18 0 -4
BITMAP
0000
0000
0000
7f80
cd80
b380
ff00
0000
0000
0000
0000
0000
0000
0000
0000
0000
0000
0000
ENDCHAR
STARTCHAR C0090
ENCODING 144
SWIDTH 666 0
DWIDTH 11 0
BBX 11 18 0 -4
BITMAP
0000
0000
0000
7f80
cd80
b380
ff00
0000
0000
0000
0000
0000
0000
0000
0000
0000
0000
0000
ENDCHAR
STARTCHAR C0091
ENCODING 145
SWIDTH 666 0
DWIDTH 11 0
BBX 11 18 0 -4
BITMAP
0000
0000
0000
7f80
cd80
b380
ff00
0000
0000
0000
0000
0000
0000
0000
0000
0000
0000
0000
ENDCHAR
STARTCHAR C0092
ENCODING 146
SWIDTH 666 0
DWIDTH 11 0
BBX 11 18 0 -4
BITMAP
0000
0000
0000
7f80
cd80
b380
ff00
0000
0000
0000
0000
0000
0000
0000
0000
0000
0000
0000
ENDCHAR
STARTCHAR C0093
ENCODING 147
SWIDTH 666 0
DWIDTH 11 0
BBX 11 18 0 -4
BITMAP
0000
0000
0000
7f80
cd80
b380
ff00
0000
0000
0000
0000
0000
0000
0000
0000
0000
0000
0000
ENDCHAR
STARTCHAR C0094
ENCODING 148
SWIDTH 666 0
DWIDTH 11 0
BBX 11 18 0 -4
BITMAP
0000
0000
0000
7f80
cd80
b380
ff00
0000
0000
0000
0000
0000
0000
0000
0000
0000
0000
0000
ENDCHAR
STARTCHAR C0095
ENCODING 149
SWIDTH 666 0
DWIDTH 11 0
BBX 11 18 0 -4
BITMAP
0000
0000
0000
7f80
cd80
b380
ff00
0000
0000
0000
0000
0000
0000
0000
0000
0000
0000
0000
ENDCHAR
STARTCHAR C0096
ENCODING 150
SWIDTH 666 0
DWIDTH 11 0
BBX 11 18 0 -4
BITMAP
0000
0000
0000
7f80
cd80
b380
ff00
0000
0000
0000
0000
0000
0000
0000
0000
0000
0000
0000
ENDCHAR
STARTCHAR C0097
ENCODING 151
SWIDTH 666 0
DWIDTH 11 0
BBX 11 18 0 -4
BITMAP
0000
0000
0000
7f80
cd80
b380
ff00
0000
0000
0000
0000
0000
0000
0000
0000
0000
0000
0000
ENDCHAR
STARTCHAR C0098
ENCODING 152
SWIDTH 666 0
DWIDTH 11 0
BBX 11 18 0 -4
BITMAP
0000
0000
0000
7f80
cd80
b380
ff00
0000
0000
0000
0000
0000
0000
0000
0000
0000
0000
0000
ENDCHAR
STARTCHAR C0099
ENCODING 153
SWIDTH 666 0
DWIDTH 11 0
BBX 11 18 0 -4
BITMAP
0000
0000
0000
7f80
cd80
b380
ff00
0000
0000
0000
0000
0000
0000
0000
0000
0000
0000
0000
ENDCHAR
STARTCHAR C009a
ENCODING 154
SWIDTH 666 0
DWIDTH 11 0
BBX 11 18 0 -4
BITMAP
0000
0000
0000
7f80
cd80
b380
ff00
0000
0000
0000
0000
0000
0000
0000
0000
0000
0000
0000
ENDCHAR
STARTCHAR C009b
ENCODING 155
SWIDTH 666 0
DWIDTH 11 0
BBX 11 18 0 -4
BITMAP
0000
0000
0000
7f80
cd80
b380
ff00
0000
0000
0000
0000
0000
0000
0000
0000
0000
0000
0000
ENDCHAR
STARTCHAR C009c
ENCODING 156
SWIDTH 666 0
DWIDTH 11 0
BBX 11 18 0 -4
BITMAP
0000
0000
0000
7f80
cd80
b380
ff00
0000
0000
0000
0000
0000
0000
0000
0000
0000
0000
0000
ENDCHAR
STARTCHAR C009d
ENCODING 157
SWIDTH 666 0
DWIDTH 11 0
BBX 11 18 0 -4
BITMAP
0000
0000
0000
7f80
cd80
b380
ff00
0000
0000
0000
0000
0000
0000
0000
0000
0000
0000
0000
ENDCHAR
STARTCHAR C009e
ENCODING 158
SWIDTH 666 0
DWIDTH 11 0
BBX 11 18 0 -4
BITMAP
0000
0000
0000
7f80
cd80
b380
ff00
0000
0000
0000
0000
0000
0000
0000
0000
0000
0000
0000
ENDCHAR
STARTCHAR C009f
ENCODING 159
SWIDTH 666 0
DWIDTH 11 0
BBX 11 18 0 -4
BITMAP
0000
0000
0000
7f80
cd80
b380
ff00
0000
0000
0000
0000
0000
0000
0000
0000
0000
0000
0000
ENDCHAR
STARTCHAR C00a0
ENCODING 160
SWIDTH 666 0
DWIDTH 11 0
BBX 11 18 0 -4
BITMAP
0000
0000
0000
7f80
cd80
b380
ff00
0000
0000
0000
0000
0000
0000
0000
0000
0000
0000
0000
ENDCHAR
STARTCHAR C00a1
ENCODING 161
SWIDTH 666 0
DWIDTH 11 0
BBX 11 18 0 -4
BITMAP
0000
0000
0000
1e00
1600
1e00
1600
1600
1600
1600
1600
1600
1600
1e00
0000
0000
0000
0000
ENDCHAR
STARTCHAR C00a2
ENCODING 162
SWIDTH 666 0
DWIDTH 11 0
BBX 11 18 0 -4
BITMAP
0000
0000
0000
1e00
3700
6380
d5c0
b6c0
b7c0
b7c0
b6c0
d5c0
6380
3700
1e00
0000
0000
0000
ENDCHAR
STARTCHAR C00a3
ENCODING 163
SWIDTH 666 0
DWIDTH 11 0
BBX 11 18 0 -4
BITMAP
0000
0000
0000
1f80
3180
2f80
6f00
4300
6f00
2c00
2c00
efc0
80c0
ffc0
0000
0000
0000
0000
ENDCHAR
STARTCHAR C00a4
ENCODING 164
SWIDTH 666 0
DWIDTH 11 0
BBX 11 18 0 -4
BITMAP
0000
0000
0000
3f00
6b80
c1c0
aac0
abc0
c1c0
eac0
aac0
c1c0
6b80
3f00
0000
0000
0000
0000
ENDCHAR
STARTCHAR C00a5
ENCODING 165
SWIDTH 666 0
DWIDTH 11 0
BBX 11 18 0 -4
BITMAP
0000
0000
0000
7f80
5d80
6b80
f7c0
80c0
f7c0
80c0
f7c0
1600
1600
1e00
0000
0000
0000
0000
ENDCHAR
STARTCHAR C00a6
ENCODING 166
SWIDTH 666 0
DWIDTH 11 0
BBX 11 18 0 -4
BITMAP
0000
0000
0000
0000
0000
3f00
2b00
ebc0
80c0
ebc0
80c0
ebc0
2b00
3f00
0000
0000
0000
0000
ENDCHAR
STARTCHAR C00a7
ENCODING 167
SWIDTH 666 0
DWIDTH 11 0
BBX 11 18 0 -4
BITMAP
0000
0000
0000
3f00
6380
5d80
5f80
ce00
b700
bb80
dd80
6d80
3380
1b80
7d80
5d80
6380
3f00
ENDCHAR
STARTCHAR C00a8
ENCODING 168
SWIDTH 666 0
DWIDTH 11 0
BBX 11 18 0 -4
BITMAP
0000
0000
0000
f3c0
bec0
ddc0
6380
5d80
5d80
5d80
6380
ddc0
bec0
f3c0
0000
0000
0000
0000
ENDCHAR
STARTCHAR C00a9
ENCODING 169
SWIDTH 666 0
DWIDTH 11 0
BBX 11 18 0 -4
BITMAP
0000
0000
0000
0f00
1b00
1700
1300
1300
1f00
0000
0000
0000
0000
0000
0000
0000
0000
0000
ENDCHAR
STARTCHAR C00aa
ENCODING 170
SWIDTH 666 0
DWIDTH 11 0
BBX 11 18 0 -4
BITMAP
0000
0000
0000
3f80
6d80
5b80
4980
4980
7f80
0000
0000
0000
0000
0000
0000
0000
0000
0000
ENDCHAR
STARTCHAR C00ab
ENCODING 171
SWIDTH 666 0
DWIDTH 11 0
BBX 11 18 0 -4
BITMAP
0000
0000
0000
0000
0000
3f80
6d80
db80
b700
db80
6d80
3f80
0000
0000
0000
0000
0000
0000
ENDCHAR
STARTCHAR C00ac
ENCODING 172
SWIDTH 666 0
DWIDTH 11 0
BBX 11 18 0 -4
BITMAP
0000
0000
0000
0000
0000
0000
0000
3c00
6c00
cfc0
80c0
cfc0
6c00
3c00
0000
0000
0000
0000
ENDCHAR
STARTCHAR C00ad
ENCODING 173
SWIDTH 666 0
DWIDTH 11 0
BBX 11 18 0 -4
BITMAP
0000
0000
0000
0f00
1b80
31c0
20c0
3bc0
0b00
0b00
0b00
0b00
0b00
0f00
0000
0000
0000
0000
ENDCHAR
STARTCHAR C00ae
ENCODING 174
SWIDTH 666 0
DWIDTH 11 0
BBX 11 18 0 -4
BITMAP
0000
0000
0000
0000
0000
0000
0000
0f00
0b80
f9c0
80c0
f9c0
0b80
0f00
0000
0000
0000
0000
ENDCHAR
STARTCHAR C00af
ENCODING 175
SWIDTH 666 0
DWIDTH 11 0
BBX 11 18 0 -4
BITMAP
0000
0000
0000
0f00
0b00
0b00
0b00
0b00
0b00
3bc0
20c0
31c0
1b80
0f00
0000
0000
0000
0000
ENDCHAR
STARTCHAR C00b0
ENCODING 176
SWIDTH 666 0
DWIDTH 11 0
BBX 11 18 0 -4
BITMAP
0000
0000
0000
1f00
3380
2d80
2d80
3380
1f00
0000
0000
0000
0000
0000
0000
0000
0000
0000
ENDCHAR
STARTCHAR C00b1
ENCODING 177
SWIDTH 666 0
DWIDTH 11 0
BBX 11 18 0 -4
BITMAP
0000
0000
0000
0000
1e00
1600
1600
f7c0
80c0
f7c0
1600
1600
ffc0
80c0
ffc0
0000
0000
0000
ENDCHAR
STARTCHAR C00b2
ENCODING 178
SWIDTH 666 0
DWIDTH 11 0
BBX 11 18 0 -4
BITMAP
0000
0000
0000
1f00
3380
2d80
3b80
3780
2180
3f80
0000
0000
0000
0000
0000
0000
0000
0000
ENDCHAR
STARTCHAR C00b3
ENCODING 179
SWIDTH 666 0
DWIDTH 11 0
BBX 11 18 0 -4
BITMAP
0000
0000
0000
1f00
3380
2d80
3b80
2d80
3380
1f00
0000
0000
0000
0000
0000
0000
0000
0000
ENDCHAR
STARTCHAR C00b4
ENCODING 180
SWIDTH 666 0
DWIDTH 11 0
BBX 11 18 0 -4
BITMAP
0000
0000
0000
0000
0000
0000
0000
3f00
2b00
3700
2b00
3f00
0000
0000
0000
0000
0000
0000
ENDCHAR
STARTCHAR C00b5
ENCODING 181
SWIDTH 666 0
DWIDTH 11 0
BBX 11 18 0 -4
BITMAP
0000
0000
0000
0000
0000
f3c0
b2c0
b2c0
b2c0
b2c0
b6c0
bcc0
c2c0
bfc0
b000
b000
f000
0000
ENDCHAR
STARTCHAR C00b6
ENCODING 182
SWIDTH 666 0
DWIDTH 11 0
BBX 11 18 0 -4
BITMAP
0000
0000
0000
0000
7fc0
c0c0
abc0
ab00
cb00
6b00
2b00
2b00
2b00
3f00
0000
0000
0000
0000
ENDCHAR
STARTCHAR C00b7
ENCODING 183
SWIDTH 666 0
DWIDTH 11 0
BBX 11 18 0 -4
BITMAP
0000
0000
0000
0000
0000
0000
0000
1f00
1300
1300
1f00
0000
0000
0000
0000
0000
0000
0000
ENDCHAR
STARTCHAR C00b8
ENCODING 184
SWIDTH 666 0
DWIDTH 11 0
BBX 11 18 0 -4
BITMAP
0000
0000
0000
0000
0000
1e00
1600
7f80
4180
7f80
1600
1e00
0000
0000
0000
0000
0000
0000
ENDCHAR
STARTCHAR C00b9
ENCODING 185
SWIDTH 666 0
DWIDTH 11 0
BBX 11 18 0 -4
BITMAP
0000
0000
0000
1f00
1300
1300
1b00
1700
1e00
0000
0000
0000
0000
0000
0000
0000
0000
0000
ENDCHAR
STARTCHAR C00ba
ENCODING 186
SWIDTH 666 0
DWIDTH 11 0
BBX 11 18 0 -4
BITMAP
0000
0000
0000
7f80
4980
4980
6d80
5b80
7f00
0000
0000
0000
0000
0000
0000
0000
0000
0000
ENDCHAR
STARTCHAR C00bb
ENCODING 187
SWIDTH 666 0
DWIDTH 11 0
BBX 11 18 0 -4
BITMAP
0000
0000
0000
0000
0000
7f00
5b80
6dc0
36c0
6dc0
5b80
7f00
0000
0000
0000
0000
0000
0000
ENDCHAR
STARTCHAR C00bc
ENCODING 188
SWIDTH 666 0
DWIDTH 11 0
BBX 11 18 0 -4
BITMAP
0000
0000
0000
3c00
6c00
4fc0
6ec0
6dc0
4380
7780
6d80
d980
b580
edc0
20c0
3dc0
0780
0000
ENDCHAR
STARTCHAR C00bd
ENCODING 189
SWIDTH 666 0
DWIDTH 11 0
BBX 11 18 0 -4
BITMAP
0000
0000
0000
3c00
6c00
4fc0
6ec0
6dc0
4380
7700
6f80
d9c0
b6c0
fdc0
1bc0
10c0
1fc0
0000
ENDCHAR
STARTCHAR C00be
ENCODING 190
SWIDTH 666 0
DWIDTH 11 0
BBX 11 18 0 -4
BITMAP
0000
0000
0000
7c00
ce00
b7c0
eec0
b5c0
cb80
7780
6d80
d980
b580
edc0
20c0
3dc0
0780
0000
ENDCHAR
STARTCHAR C00bf
ENCODING 191
SWIDTH 666 0
DWIDTH 11 0
BBX 11 18 0 -4
BITMAP
0000
0000
1e00
1600
1e00
1600
3600
6e00
dc00
bbc0
bec0
ddc0
6380
3f00
0000
0000
0000
0000
ENDCHAR
STARTCHAR C00c0
ENCODING 192
SWIDTH 666 0
DWIDTH 11 0
BBX 11 18 0 -4
BITMAP
0000
0000
1e00
1600
1e00
1600
3600
6e00
dc00
bbc0
bec0
ddc0
6380
3f00
0000
0000
0000
0000
ENDCHAR
STARTCHAR C00c1
ENCODING 193
SWIDTH 666 0
DWIDTH 11 0
BBX 11 18 0 -4
BITMAP
0000
0000
1e00
1700
1b00
0f00
0000
0000
0000
0000
0000
0000
0000
0000
0000
0000
0000
0000
ENDCHAR
STARTCHAR C00c2
ENCODING 194
SWIDTH 666 0
DWIDTH 11 0
BBX 11 18 0 -4
BITMAP
0000
0000
0f00
1b00
1700
1e00
0000
0000
0000
0000
0000
0000
0000
0000
0000
0000
0000
0000
ENDCHAR
STARTCHAR C00c3
ENCODING 195
SWIDTH 666 0
DWIDTH 11 0
BBX 11 18 0 -4
BITMAP
0000
0000
1e00
3700
2b00
3f00
0000
0000
0000
0000
0000
0000
0000
0000
0000
0000
0000
0000
ENDCHAR
STARTCHAR C00c4
ENCODING 196
SWIDTH 666 0
DWIDTH 11 0
BBX 11 18 0 -4
BITMAP
0000
0000
7f80
cd80
b380
ff00
0000
0000
0000
0000
0000
0000
0000
0000
0000
0000
0000
0000
ENDCHAR
STARTCHAR C00c5
ENCODING 197
SWIDTH 666 0
DWIDTH 11 0
BBX 11 18 0 -4
BITMAP
0000
0000
ffc0
80c0
ffc0
0000
0000
0000
0000
0000
0000
0000
0000
0000
0000
0000
0000
0000
ENDCHAR
STARTCHAR C00c6
ENCODING 198
SWIDTH 666 0
DWIDTH 11 0
BBX 11 18 0 -4
BITMAP
0000
0000
7f80
5d80
6380
3f00
0000
0000
0000
0000
0000
0000
0000
0000
0000
0000
0000
0000
ENDCHAR
STARTCHAR C00c7
ENCODING 199
SWIDTH 666 0
DWIDTH 11 0
BBX 11 18 0 -4
BITMAP
0000
0000
1e00
1600
1e00
0000
0000
0000
0000
0000
0000
0000
0000
0000
0000
0000
0000
0000
ENDCHAR
STARTCHAR C00c8
ENCODING 200
SWIDTH 666 0
DWIDTH 11 0
BBX 11 18 0 -4
BITMAP
0000
0000
f3c0
b2c0
f3c0
0000
0000
0000
0000
0000
0000
0000
0000
0000
0000
0000
0000
0000
ENDCHAR
STARTCHAR C00c9
ENCODING 201
SWIDTH 666 0
DWIDTH 11 0
BBX 11 18 0 -4
BITMAP
0000
0000
f3c0
b2c0
f3c0
0000
0000
0000
0000
0000
0000
0000
0000
0000
0000
0000
0000
0000
ENDCHAR
STARTCHAR C00ca
ENCODING 202
SWIDTH 666 0
DWIDTH 11 0
BBX 11 18 0 -4
BITMAP
0000
0000
3f00
6380
5d80
6380
3f00
0000
0000
0000
0000
0000
0000
0000
0000
0000
0000
0000
ENDCHAR
STARTCHAR C00cb
ENCODING 203
SWIDTH 666 0
DWIDTH 11 0
BBX 11 18 0 -4
BITMAP
0000
0000
0000
0000
0000
0000
0000
0000
0000
0000
0000
0000
0f00
7b80
5d80
6380
3f00
0000
ENDCHAR
STARTCHAR C00cc
ENCODING 204
SWIDTH 666 0
DWIDTH 11 0
BBX 11 18 0 -4
BITMAP
0000
0000
0000
0000
0000
0000
0000
0000
0000
0000
0000
0000
0000
ffe0
8060
ffe0
0000
0000
ENDCHAR
STARTCHAR C00cd
ENCODING 205
SWIDTH 666 0
DWIDTH 11 0
BBX 11 18 0 -4
BITMAP
0000
0000
3f80
6d80
5b80
7f00
0000
0000
0000
0000
0000
0000
0000
0000
0000
0000
0000
0000
ENDCHAR
STARTCHAR C00ce
ENCODING 206
SWIDTH 666 0
DWIDTH 11 0
BBX 11 18 0 -4
BITMAP
0000
0000
0000
0000
0000
0000
0000
0000
0000
0000
0000
0000
3c00
2f80
2d80
3380
1f00
0000
ENDCHAR
STARTCHAR C00cf
ENCODING 207
SWIDTH 666 0
DWIDTH 11 0
BBX 11 18 0 -4
BITMAP
0000
0000
7f80
5d80
6b80
3700
1e00
0000
0000
0000
0000
0000
0000
0000
0000
0000
0000
0000
ENDCHAR
STARTCHAR C00d0
ENCODING 208
SWIDTH 666 0
DWIDTH 11 0
BBX 11 18 0 -4
BITMAP
0000
0000
0000
0000
0000
0000
7f80
4180
7f80
0000
0000
0000
0000
0000
0000
0000
0000
0000
ENDCHAR
STARTCHAR C00d1
ENCODING 209
SWIDTH 666 0
DWIDTH 11 0
BBX 11 18 0 -4
BITMAP
0000
0000
0000
0f00
1b00
1300
1b00
3bc0
20c0
3fc0
0000
0000
0000
0000
0000
0000
0000
0000
ENDCHAR
STARTCHAR C00d2
ENCODING 210
SWIDTH 666 0
DWIDTH 11 0
BBX 11 18 0 -4
BITMAP
0000
0000
0000
3f00
6380
ddc0
a2c0
aac0
a2c0
a6c0
aac0
ddc0
6380
3f00
0000
0000
0000
0000
ENDCHAR
STARTCHAR C00d3
ENCODING 211
SWIDTH 666 0
DWIDTH 11 0
BBX 11 18 0 -4
BITMAP
0000
0000
0000
3f00
6380
ddc0
b6c0
aac0
aec0
aac0
b6c0
ddc0
6380
3f00
0000
0000
0000
0000
ENDCHAR
STARTCHAR C00d4
ENCODING 212
SWIDTH 666 0
DWIDTH 11 0
BBX 11 18 0 -4
BITMAP
0000
0000
0000
ffe0
8760
d260
5560
5760
7fe0
0000
0000
0000
0000
0000
0000
0000
0000
0000
ENDCHAR
STARTCHAR C00d5
ENCODING 213
SWIDTH 666 0
DWIDTH 11 0
BBX 11 18 0 -4
BITMAP
0000
0000
0000
1f00
1380
15c0
16c0
17c0
1600
7600
4600
4600
4600
7e00
0000
0000
0000
0000
ENDCHAR
STARTCHAR C00d6
ENCODING 214
SWIDTH 666 0
DWIDTH 11 0
BBX 11 18 0 -4
BITMAP
0000
0000
0000
1e00
1600
1600
1600
1600
1e00
1e00
1600
1600
1600
1600
1e00
0000
0000
0000
ENDCHAR
STARTCHAR C00d7
ENCODING 215
SWIDTH 666 0
DWIDTH 11 0
BBX 11 18 0 -4
BITMAP
0000
0000
7fc0
40c0
7ec0
02c0
02c0
03c0
0000
0000
0000
0000
0000
0000
0000
0000
0000
0000
ENDCHAR
STARTCHAR C00d8
ENCODING 216
SWIDTH 666 0
DWIDTH 11 0
BBX 11 18 0 -4
BITMAP
0000
0000
7fc0
40c0
7ec0
02c0
02c0
03c0
0000
0000
0000
0000
0000
0000
0000
0000
0000
0000
ENDCHAR
STARTCHAR C00d9
ENCODING 217
SWIDTH 666 0
DWIDTH 11 0
BBX 11 18 0 -4
BITMAP
0000
0000
7fc0
40c0
7ec0
02c0
02c0
03c0
0000
0000
0000
0000
0000
0000
0000
0000
0000
0000
ENDCHAR
STARTCHAR C00da
ENCODING 218
SWIDTH 666 0
DWIDTH 11 0
BBX 11 18 0 -4
BITMAP
0000
0000
7fc0
40c0
7ec0
02c0
02c0
03c0
0000
0000
0000
0000
0000
0000
0000
0000
0000
0000
ENDCHAR
STARTCHAR C00db
ENCODING 219
SWIDTH 666 0
DWIDTH 11 0
BBX 11 18 0 -4
BITMAP
0000
0000
7fc0
40c0
7ec0
02c0
02c0
03c0
0000
0000
0000
0000
0000
0000
0000
0000
0000
0000
ENDCHAR
STARTCHAR C00dc
ENCODING 220
SWIDTH 666 0
DWIDTH 11 0
BBX 11 18 0 -4
BITMAP
0000
0000
0000
3c00
6c00
4fc0
6ec0
6dc0
4380
7700
6f80
d1c0
aec0
f1c0
2ec0
31c0
1f80
0000
ENDCHAR
STARTCHAR C00dd
ENCODING 221
SWIDTH 666 0
DWIDTH 11 0
BBX 11 18 0 -4
BITMAP
0000
0000
0000
ff00
8300
f7c0
e6c0
b9c0
c380
7700
6f80
d1c0
aec0
f1c0
2ec0
31c0
1f80
0000
ENDCHAR
STARTCHAR C00de
ENCODING 222
SWIDTH 666 0
DWIDTH 11 0
BBX 11 18 0 -4
BITMAP
0000
0000
0000
fc00
8c00
bfc0
8ec0
f5c0
8b80
f700
6f80
d1c0
aec0
f1c0
2ec0
31c0
1f80
0000
ENDCHAR
STARTCHAR C00df
ENCODING 223
SWIDTH 666 0
DWIDTH 11 0
BBX 11 18 0 -4
BITMAP
0000
0000
0000
ff00
8300
fbc0
36c0
2dc0
2b80
3700
6f80
d1c0
aec0
f1c0
2ec0
31c0
1f80
0000
ENDCHAR
STARTCHAR C00e0
ENCODING 224
SWIDTH 666 0
DWIDTH 11 0
BBX 11 18 0 -4
BITMAP
0000
0000
0000
3f00
6380
ddc0
bec0
b2c0
b2c0
bec0
ddc0
ebc0
88c0
ffc0
0000
0000
0000
0000
ENDCHAR
STARTCHAR C00e1
ENCODING 225
SWIDTH 666 0
DWIDTH 11 0
BBX 11 18 0 -4
BITMAP
0000
0000
0000
3fc0
60c0
dbc0
bb00
bbc0
b8c0
83c0
bb00
bbc0
b8c0
ffc0
0000
0000
0000
0000
ENDCHAR
STARTCHAR C00e2
ENCODING 226
SWIDTH 666 0
DWIDTH 11 0
BBX 11 18 0 -4
BITMAP
0000
0000
0000
ff00
8380
ddc0
dec0
86c0
86c0
dec0
5ec0
ddc0
8380
ff00
0000
0000
0000
0000
ENDCHAR
STARTCHAR C00e3
ENCODING 227
SWIDTH 666 0
DWIDTH 11 0
BBX 11 18 0 -4
BITMAP
0000
0000
0000
7f80
c1c0
bec0
c2c0
bcc0
bec0
dcc0
62c0
ffc0
80c0
ffc0
0000
0000
0000
0000
ENDCHAR
STARTCHAR C00e4
ENCODING 228
SWIDTH 666 0
DWIDTH 11 0
BBX 11 18 0 -4
BITMAP
0000
0000
0000
ffc0
88c0
ddc0
80c0
ddc0
4180
5d80
5d80
ddc0
88c0
ffc0
0000
0000
0000
0000
ENDCHAR
STARTCHAR C00e5
ENCODING 229
SWIDTH 666 0
DWIDTH 11 0
BBX 11 18 0 -4
BITMAP
0000
0000
0000
ffc0
88c0
ddc0
80c0
ddc0
4180
5d80
5d80
ddc0
88c0
ffc0
0000
0000
0000
0000
ENDCHAR
STARTCHAR C00e6
ENCODING 230
SWIDTH 666 0
DWIDTH 11 0
BBX 11 18 0 -4
BITMAP
0000
0000
0000
7fc0
44c0
6ec0
2ec0
2ec0
2ec0
2ec0
2ec0
6ec0
46c0
7ec0
1dc0
1380
1f00
0000
ENDCHAR
STARTCHAR C00e7
ENCODING 231
SWIDTH 666 0
DWIDTH 11 0
BBX 11 18 0 -4
BITMAP
0000
0000
0000
fc00
8c00
dc00
5800
5f80
5980
5980
5fc0
dec0
80c0
ffc0
0000
0000
0000
0000
ENDCHAR
STARTCHAR C00e8
ENCODING 232
SWIDTH 666 0
DWIDTH 11 0
BBX 11 18 0 -4
BITMAP
0000
0000
0000
ffc0
8ec0
ddc0
5b80
5700
4e00
dc00
9bc0
dec0
80c0
ffc0
0000
0000
0000
0000
ENDCHAR
STARTCHAR C00e9
ENCODING 233
SWIDTH 666 0
DWIDTH 11 0
BBX 11 18 0 -4
BITMAP
0000
0000
0000
3fc0
62c0
ddc0
bac0
bec0
b6c0
bec0
aec0
ddc0
a380
ff00
0000
0000
0000
0000
ENDCHAR
STARTCHAR C00ea
ENCODING 234
SWIDTH 666 0
DWIDTH 11 0
BBX 11 18 0 -4
BITMAP
0000
0000
0000
3fc0
68c0
d3c0
bb00
bbc0
b8c0
bbc0
bb00
d3c0
68c0
3fc0
0000
0000
0000
0000
ENDCHAR
STARTCHAR C00eb
ENCODING 235
SWIDTH 666 0
DWIDTH 11 0
BBX 11 18 0 -4
BITMAP
0000
0000
0000
0000
7f80
c1c0
bec0
b2c0
b2c0
bec0
c1c0
ffc0
80c0
ffc0
0000
0000
0000
0000
ENDCHAR
STARTCHAR C00ec
ENCODING 236
SWIDTH 666 0
DWIDTH 11 0
BBX 11 18 0 -4
BITMAP
0000
0000
0000
7800
5f80
41c0
5ec0
5ec0
41c0
5f80
5800
dc00
8c00
fc00
0000
0000
0000
0000
ENDCHAR
STARTCHAR C00ed
ENCODING 237
SWIDTH 666 0
DWIDTH 11 0
BBX 11 18 0 -4
BITMAP
0000
0000
0000
ffc0
80c0
b6c0
f7c0
4180
7780
1600
1600
1600
1600
1e00
0000
0000
0000
0000
ENDCHAR
STARTCHAR C00ee
ENCODING 238
SWIDTH 666 0
DWIDTH 11 0
BBX 11 18 0 -4
BITMAP
0000
0000
0000
ff80
91c0
cec0
5ec0
5ac0
5ac0
5ac0
5ac0
dec0
8dc0
fec0
0ec0
09c0
0f80
0000
ENDCHAR
STARTCHAR C00ef
ENCODING 239
SWIDTH 666 0
DWIDTH 11 0
BBX 11 18 0 -4
BITMAP
0000
0000
f000
b800
d800
7f80
51c0
4ec0
5ec0
5ac0
5ac0
5ac0
5ac0
7bc0
0000
0000
0000
0000
ENDCHAR
STARTCHAR C00f0
ENCODING 240
SWIDTH 666 0
DWIDTH 11 0
BBX 11 18 0 -4
BITMAP
0000
0000
0000
ffc0
8cc0
ddc0
5b80
5700
4e00
5700
5b80
ddc0
8cc0
ffc0
0000
0000
0000
0000
ENDCHAR
STARTCHAR C00f1
ENCODING 241
SWIDTH 666 0
DWIDTH 11 0
BBX 11 18 0 -4
BITMAP
0000
0000
0000
0000
0000
7f80
c9c0
b6c0
f6c0
c0c0
b7c0
b6c0
c9c0
7f80
0000
0000
0000
0000
ENDCHAR
STARTCHAR C00f2
ENCODING 242
SWIDTH 666 0
DWIDTH 11 0
BBX 11 18 0 -4
BITMAP
0000
0000
0000
0f00
3bc0
20c0
3bc0
7b00
cb00
b300
bb00
bb80
c580
7f80
0000
0000
0000
0000
ENDCHAR
STARTCHAR C00f3
ENCODING 243
SWIDTH 666 0
DWIDTH 11 0
BBX 11 18 0 -4
BITMAP
0000
0000
0000
7e00
5600
6e00
5700
7b80
65c0
5ec0
5ec0
5dc0
6380
3f00
0000
0000
0000
0000
ENDCHAR
STARTCHAR C00f4
ENCODING 244
SWIDTH 666 0
DWIDTH 11 0
BBX 11 18 0 -4
BITMAP
0000
0000
0000
7800
de00
8600
de00
5f80
51c0
4ec0
5ec0
5ac0
5ac0
7bc0
0000
0000
0000
0000
ENDCHAR
STARTCHAR C00f5
ENCODING 245
SWIDTH 666 0
DWIDTH 11 0
BBX 11 18 0 -4
BITMAP
0000
0000
0000
0000
0000
fe00
8600
f600
1600
1600
1600
1600
1600
1e00
0000
0000
0000
0000
ENDCHAR
STARTCHAR C00f6
ENCODING 246
SWIDTH 666 0
DWIDTH 11 0
BBX 11 18 0 -4
BITMAP
0000
0000
0000
3fc0
2ec0
ffc0
88c0
eec0
2ec0
2ec0
2ec0
2ec0
26c0
3ec0
16c0
19c0
0f80
0000
ENDCHAR
STARTCHAR C00f7
ENCODING 247
SWIDTH 666 0
DWIDTH 11 0
BBX 11 18 0 -4
BITMAP
0000
0000
0000
7c00
4c00
6c00
2f80
2980
2980
2f80
2c00
2e00
2600
3e00
0000
0000
0000
0000
ENDCHAR
STARTCHAR C00f8
ENCODING 248
SWIDTH 666 0
DWIDTH 11 0
BBX 11 18 0 -4
BITMAP
0000
0000
0000
3e00
27c0
36c0
15c0
1380
3700
6600
d600
b700
f300
1f00
0000
0000
0000
0000
ENDCHAR
STARTCHAR C00f9
ENCODING 249
SWIDTH 666 0
DWIDTH 11 0
BBX 11 18 0 -4
BITMAP
0000
0000
0000
0000
0000
3fc0
62c0
ddc0
bac0
b6c0
aec0
ddc0
a380
ff00
0000
0000
0000
0000
ENDCHAR
STARTCHAR C00fa
ENCODING 250
SWIDTH 666 0
DWIDTH 11 0
BBX 11 18 0 -4
BITMAP
0000
0000
0000
0000
0000
7f80
c9c0
b6c0
b6c0
b0c0
b7c0
b6c0
c9c0
7f80
0000
0000
0000
0000
ENDCHAR
STARTCHAR C00fb
ENCODING 251
SWIDTH 666 0
DWIDTH 11 0
BBX 11 18 0 -4
BITMAP
0000
0000
0000
3f00
6380
5d80
5d80
5380
5d80
5d80
5d80
d580
9b80
ff00
0000
0000
0000
0000
ENDCHAR
STARTCHAR C00fc
ENCODING 252
SWIDTH 666 0
DWIDTH 11 0
BBX 11 18 0 -4
BITMAP
0000
0000
0000
0000
f000
b000
b000
bf80
81c0
bec0
b2c0
bec0
81c0
bf80
b000
b000
f000
0000
ENDCHAR
STARTCHAR C00fd
ENCODING 253
SWIDTH 666 0
DWIDTH 11 0
BBX 11 18 0 -4
BITMAP
0000
0000
0000
1e00
7780
4180
f7c0
80c0
f7c0
1600
1600
17c0
18c0
0fc0
0000
0000
0000
0000
ENDCHAR
STARTCHAR C00fe
ENCODING 254
SWIDTH 666 0
DWIDTH 11 0
BBX 11 18 0 -4
BITMAP
0000
0000
0000
0000
0000
0000
ff80
a1c0
9ec0
bac0
b2c0
b6c0
b5c0
f6c0
05c0
0780
0000
0000
ENDCHAR
STARTCHAR C00ff
ENCODING 255
SWIDTH 666 0
DWIDTH 11 0
BBX 11 18 0 -4
BITMAP
0000
0000
0000
0000
0000
0000
ff80
a1c0
9ec0
bac0
b2c0
b6c0
b5c0
f6c0
05c0
0780
0000
0000
ENDCHAR
ENDFONT
