STARTFONT 2.1
FONT psf
SIZE 14 75 75
FONTBOUNDINGBOX 10 14 0 -3
STARTPROPERTIES 3
FONT_DESCENT 3
FONT_ASCENT 11
DEFAULT_CHAR 255
ENDPROPERTIES
CHARS 256
STARTCHAR C0000
ENCODING 0
SWIDTH 666 0
DWIDTH 10 0
BBX 10 14 0 -3
BITMAP
0000
0000
1e00
1b80
3d80
6380
5d80
5d80
4180
5d80
5d80
7f80
0000
0000
ENDCHAR
STARTCHAR C0001
ENCODING 1
SWIDTH 666 0
DWIDTH 10 0
BBX 10 14 0 -3
BITMAP
0000
0000
1e00
6e00
5f00
6380
5d80
5d80
4180
5d80
5d80
7f80
0000
0000
ENDCHAR
STARTCHAR C0002
ENCODING 2
SWIDTH 666 0
DWIDTH 10 0
BBX 10 14 0 -3
BITMAP
0000
0000
1e00
2b00
3f00
6380
5d80
5d80
4180
5d80
5d80
7f80
0000
0000
ENDCHAR
STARTCHAR C0003
ENCODING 3
SWIDTH 666 0
DWIDTH 10 0
BBX 10 14 0 -3
BITMAP
0000
0000
3f80
4980
7f80
6380
5d80
5d80
4180
5d80
5d80
7f80
0000
0000
ENDCHAR
STARTCHAR C0004
ENCODING 4
SWIDTH 666 0
DWIDTH 10 0
BBX 10 14 0 -3
BITMAP
0000
0000
7f80
4180
7f80
6380
5d80
5d80
4180
5d80
5d80
7f80
0000
0000
ENDCHAR
STARTCHAR C0005
ENCODING 5
SWIDTH 666 0
DWIDTH 10 0
BBX 10 14 0 -3
BITMAP
0000
0000
7f80
6380
3f00
6380
5d80
5d80
4180
5d80
5d80
7f80
0000
0000
ENDCHAR
STARTCHAR C0006
ENCODING 6
SWIDTH 666 0
DWIDTH 10 0
BBX 10 14 0 -3
BITMAP
0000
0000
7f80
7780
6b80
5d80
5d80
5d80
4180
5d80
5d80
7f80
0000
0000
ENDCHAR
STARTCHAR C0007
ENCODING 7
SWIDTH 666 0
DWIDTH 10 0
BBX 10 14 0 -3
BITMAP
0000
0000
1e00
2b00
7780
4180
5d80
5d80
4180
5d80
5d80
7f80
0000
0000
ENDCHAR
STARTCHAR C0008
ENCODING 8
SWIDTH 666 0
DWIDTH 10 0
BBX 10 14 0 -3
BITMAP
0000
0000
3e00
6700
5b00
5b00
5b00
5b00
4300
5b00
5bc0
7ac0
09c0
0f80
ENDCHAR
STARTCHAR C0009
ENCODING 9
SWIDTH 666 0
DWIDTH 10 0
BBX 10 14 0 -3
BITMAP
0000
0000
3c00
5f00
6380
5d80
5f80
5800
5f80
5d80
6380
3f00
0000
0000
ENDCHAR
STARTCHAR C000a
ENCODING 10
SWIDTH 666 0
DWIDTH 10 0
BBX 10 14 0 -3
BITMAP
0000
0000
3c00
5700
6380
5d80
5f80
5800
5f80
5d80
6380
3f00
0000
0000
ENDCHAR
STARTCHAR C000b
ENCODING 11
SWIDTH 666 0
DWIDTH 10 0
BBX 10 14 0 -3
BITMAP
0000
0000
1e00
3f00
6380
5d80
5f80
5800
5f80
5d80
6380
3f00
0000
0000
ENDCHAR
STARTCHAR C000c
ENCODING 12
SWIDTH 666 0
DWIDTH 10 0
BBX 10 14 0 -3
BITMAP
0000
0000
3f00
6380
5d80
5f80
5800
5800
5f80
5d80
6380
7700
5b00
6700
ENDCHAR
STARTCHAR C000d
ENCODING 13
SWIDTH 666 0
DWIDTH 10 0
BBX 10 14 0 -3
BITMAP
0000
0000
3f00
3700
6380
5d80
5f80
5800
5f80
5d80
6380
3f00
0000
0000
ENDCHAR
STARTCHAR C000e
ENCODING 14
SWIDTH 666 0
DWIDTH 10 0
BBX 10 14 0 -3
BITMAP
0000
0000
3f00
7700
4700
5b80
5d80
5d80
5d80
5b80
4700
7e00
0000
0000
ENDCHAR
STARTCHAR C000f
ENCODING 15
SWIDTH 666 0
DWIDTH 10 0
BBX 10 14 0 -3
BITMAP
0000
0000
3c00
7700
4300
5f00
5e00
4600
5e00
5f00
4300
7f00
0000
0000
ENDCHAR
STARTCHAR C0010
ENCODING 16
SWIDTH 666 0
DWIDTH 10 0
BBX 10 14 0 -3
BITMAP
0000
0000
1e00
6f00
4300
5f00
5e00
4600
5e00
5f00
4300
7f00
0000
0000
ENDCHAR
STARTCHAR C0011
ENCODING 17
SWIDTH 666 0
DWIDTH 10 0
BBX 10 14 0 -3
BITMAP
0000
0000
3c00
5700
4300
5f00
5e00
4600
5e00
5f00
4300
7f00
0000
0000
ENDCHAR
STARTCHAR C0012
ENCODING 18
SWIDTH 666 0
DWIDTH 10 0
BBX 10 14 0 -3
BITMAP
0000
0000
7f00
7f00
4300
5f00
5e00
4600
5e00
5f00
4300
7f00
0000
0000
ENDCHAR
STARTCHAR C0013
ENCODING 19
SWIDTH 666 0
DWIDTH 10 0
BBX 10 14 0 -3
BITMAP
0000
0000
3c00
7f00
4300
5f00
5e00
4600
5e00
5f00
4300
7f00
0000
0000
ENDCHAR
STARTCHAR C0014
ENCODING 20
SWIDTH 666 0
DWIDTH 10 0
BBX 10 14 0 -3
BITMAP
0000
0000
7f00
7f00
4300
5f00
5e00
4600
5e00
5f00
4300
7f00
0000
0000
ENDCHAR
STARTCHAR C0015
ENCODING 21
SWIDTH 666 0
DWIDTH 10 0
BBX 10 14 0 -3
BITMAP
0000
0000
7f80
4180
5f80
5f00
4300
5f00
5800
5f80
4180
7780
1580
1b80
ENDCHAR
STARTCHAR C0016
ENCODING 22
SWIDTH 666 0
DWIDTH 10 0
BBX 10 14 0 -3
BITMAP
0000
0000
7e00
6f00
4300
5f00
5e00
4600
5e00
5f00
4300
7f00
0000
0000
ENDCHAR
STARTCHAR C0017
ENCODING 23
SWIDTH 666 0
DWIDTH 10 0
BBX 10 14 0 -3
BITMAP
0000
0000
7f00
5b00
5b00
5b00
5b00
5b00
5b00
5b00
5b00
7f00
0000
0000
ENDCHAR
STARTCHAR C0018
ENCODING 24
SWIDTH 666 0
DWIDTH 10 0
BBX 10 14 0 -3
BITMAP
0000
0000
1e00
2b80
6180
5d80
5f80
5380
5d80
5d80
6380
3f00
0000
0000
ENDCHAR
STARTCHAR C0019
ENCODING 25
SWIDTH 666 0
DWIDTH 10 0
BBX 10 14 0 -3
BITMAP
0000
0000
7f80
6380
6180
5d80
5f80
5380
5d80
5d80
6380
3f00
0000
0000
ENDCHAR
STARTCHAR C001a
ENCODING 26
SWIDTH 666 0
DWIDTH 10 0
BBX 10 14 0 -3
BITMAP
0000
0000
1e00
3f00
6380
5d80
5f80
5380
5d80
5d80
6380
3f00
0000
0000
ENDCHAR
STARTCHAR C001b
ENCODING 27
SWIDTH 666 0
DWIDTH 10 0
BBX 10 14 0 -3
BITMAP
0000
0000
3f00
6300
5f00
5f80
5180
5d80
5d80
5d80
6380
7700
5b00
6700
ENDCHAR
STARTCHAR C001c
ENCODING 28
SWIDTH 666 0
DWIDTH 10 0
BBX 10 14 0 -3
BITMAP
0000
0000
1e00
2b00
7f80
5d80
5d80
4180
5d80
5d80
5d80
7f80
0000
0000
ENDCHAR
STARTCHAR C001d
ENCODING 29
SWIDTH 666 0
DWIDTH 10 0
BBX 10 14 0 -3
BITMAP
0000
0000
3c00
3700
2300
3700
1600
1600
1600
3700
2300
3f00
0000
0000
ENDCHAR
STARTCHAR C001e
ENCODING 30
SWIDTH 666 0
DWIDTH 10 0
BBX 10 14 0 -3
BITMAP
0000
0000
0f00
3700
2300
3700
1600
1600
1600
3700
2300
3f00
0000
0000
ENDCHAR
STARTCHAR C001f
ENCODING 31
SWIDTH 666 0
DWIDTH 10 0
BBX 10 14 0 -3
BITMAP
0000
0000
1e00
2b00
3f00
2300
3700
1600
1600
3700
2300
3f00
0000
0000
ENDCHAR
STARTCHAR C0020
ENCODING 32
SWIDTH 666 0
DWIDTH 10 0
BBX 10 14 0 -3
BITMAP
0000
0000
3f80
5b80
7f00
2300
3700
1600
1600
3700
2300
3f00
0000
0000
ENDCHAR
STARTCHAR C0021
ENCODING 33
SWIDTH 666 0
DWIDTH 10 0
BBX 10 14 0 -3
BITMAP
0000
0000
7f80
7f80
2300
3700
1600
1600
1600
3700
2300
3f00
0000
0000
ENDCHAR
STARTCHAR C0022
ENCODING 34
SWIDTH 666 0
DWIDTH 10 0
BBX 10 14 0 -3
BITMAP
0000
0000
1e00
3f00
2300
3700
1600
1600
1600
3700
2300
3f00
0000
0000
ENDCHAR
STARTCHAR C0023
ENCODING 35
SWIDTH 666 0
DWIDTH 10 0
BBX 10 14 0 -3
BITMAP
0000
0000
3f00
3f00
2300
3700
1600
1600
1600
3700
2300
3f00
0000
0000
ENDCHAR
STARTCHAR C0024
ENCODING 36
SWIDTH 666 0
DWIDTH 10 0
BBX 10 14 0 -3
BITMAP
0000
0000
3f00
2300
3700
1600
1600
1600
1600
3700
2300
3780
1580
1b80
ENDCHAR
STARTCHAR C0025
ENCODING 37
SWIDTH 666 0
DWIDTH 10 0
BBX 10 14 0 -3
BITMAP
0000
0000
3c00
5580
7d80
0580
0580
0580
7d80
5d80
6380
3f00
0000
0000
ENDCHAR
STARTCHAR C0026
ENCODING 38
SWIDTH 666 0
DWIDTH 10 0
BBX 10 14 0 -3
BITMAP
0000
0000
7f80
5d80
5b80
5700
4e00
4e00
5700
5b80
5d80
7b80
2d80
3380
ENDCHAR
STARTCHAR C0027
ENCODING 39
SWIDTH 666 0
DWIDTH 10 0
BBX 10 14 0 -3
BITMAP
0000
0000
0f00
5700
5e00
5800
5800
5800
5800
5f80
4180
7f80
0000
0000
ENDCHAR
STARTCHAR C0028
ENCODING 40
SWIDTH 666 0
DWIDTH 10 0
BBX 10 14 0 -3
BITMAP
0000
0000
7800
5800
5800
5800
5800
5800
5800
5f80
4180
7780
5b00
6700
ENDCHAR
STARTCHAR C0029
ENCODING 41
SWIDTH 666 0
DWIDTH 10 0
BBX 10 14 0 -3
BITMAP
0000
0000
3f00
7700
5e00
5800
5800
5800
5800
5f80
4180
7f80
0000
0000
ENDCHAR
STARTCHAR C002a
ENCODING 42
SWIDTH 666 0
DWIDTH 10 0
BBX 10 14 0 -3
BITMAP
0000
0000
0f00
7780
5d80
4d80
5580
5980
5d80
5d80
5d80
7f80
0000
0000
ENDCHAR
STARTCHAR C002b
ENCODING 43
SWIDTH 666 0
DWIDTH 10 0
BBX 10 14 0 -3
BITMAP
0000
0000
7f00
b780
dd80
5d80
4d80
5580
5980
5d80
5d80
7f80
0000
0000
ENDCHAR
STARTCHAR C002c
ENCODING 44
SWIDTH 666 0
DWIDTH 10 0
BBX 10 14 0 -3
BITMAP
0000
0000
7f80
5d80
5d80
4d80
5580
5980
5d80
5d80
5d80
7b80
2d80
3380
ENDCHAR
STARTCHAR C002d
ENCODING 45
SWIDTH 666 0
DWIDTH 10 0
BBX 10 14 0 -3
BITMAP
0000
0000
3f00
7780
5d80
4d80
5580
5980
5d80
5d80
5d80
7f80
0000
0000
ENDCHAR
STARTCHAR C002e
ENCODING 46
SWIDTH 666 0
DWIDTH 10 0
BBX 10 14 0 -3
BITMAP
0000
0000
0f00
3d80
6380
5d80
5d80
5d80
5d80
5d80
6380
3f00
0000
0000
ENDCHAR
STARTCHAR C002f
ENCODING 47
SWIDTH 666 0
DWIDTH 10 0
BBX 10 14 0 -3
BITMAP
0000
0000
3c00
5f00
6380
5d80
5d80
5d80
5d80
5d80
6380
3f00
0000
0000
ENDCHAR
STARTCHAR C0030
ENCODING 48
SWIDTH 666 0
DWIDTH 10 0
BBX 10 14 0 -3
BITMAP
0000
0000
1e00
6b80
4180
5d80
5d80
5d80
5d80
5d80
6380
3f00
0000
0000
ENDCHAR
STARTCHAR C0031
ENCODING 49
SWIDTH 666 0
DWIDTH 10 0
BBX 10 14 0 -3
BITMAP
0000
0000
3f80
5b80
6380
5d80
5d80
5d80
5d80
5d80
6380
3f00
0000
0000
ENDCHAR
STARTCHAR C0032
ENCODING 50
SWIDTH 666 0
DWIDTH 10 0
BBX 10 14 0 -3
BITMAP
0000
0000
7f80
7f80
6380
5d80
5d80
5d80
5d80
5d80
6380
3f00
0000
0000
ENDCHAR
STARTCHAR C0033
ENCODING 51
SWIDTH 666 0
DWIDTH 10 0
BBX 10 14 0 -3
BITMAP
0000
0000
3f00
3f00
6380
5d80
5d80
5d80
5d80
5d80
6380
3f00
0000
0000
ENDCHAR
STARTCHAR C0034
ENCODING 52
SWIDTH 666 0
DWIDTH 10 0
BBX 10 14 0 -3
BITMAP
0000
0000
3f80
5b80
6380
5d80
5d80
5d80
5d80
5d80
6380
3f00
0000
0000
ENDCHAR
STARTCHAR C0035
ENCODING 53
SWIDTH 666 0
DWIDTH 10 0
BBX 10 14 0 -3
BITMAP
0000
0000
0f00
7700
4380
5d80
5d80
4380
5b80
5d80
5d80
7f80
0000
0000
ENDCHAR
STARTCHAR C0036
ENCODING 54
SWIDTH 666 0
DWIDTH 10 0
BBX 10 14 0 -3
BITMAP
0000
0000
7f00
4380
5d80
5d80
5b80
4700
5b80
5d80
5980
7b80
2d80
3380
ENDCHAR
STARTCHAR C0037
ENCODING 55
SWIDTH 666 0
DWIDTH 10 0
BBX 10 14 0 -3
BITMAP
0000
0000
3f00
7700
4380
5d80
5d80
4380
5b80
5d80
5d80
7f80
0000
0000
ENDCHAR
STARTCHAR C0038
ENCODING 56
SWIDTH 666 0
DWIDTH 10 0
BBX 10 14 0 -3
BITMAP
0000
0000
1e00
2f00
6380
5d80
5f80
6380
7d80
5d80
6380
3f00
0000
0000
ENDCHAR
STARTCHAR C0039
ENCODING 57
SWIDTH 666 0
DWIDTH 10 0
BBX 10 14 0 -3
BITMAP
0000
0000
1e00
2b00
6380
5d80
5f80
6380
7d80
5d80
6380
3f00
0000
0000
ENDCHAR
STARTCHAR C003a
ENCODING 58
SWIDTH 666 0
DWIDTH 10 0
BBX 10 14 0 -3
BITMAP
0000
0000
3f00
6380
5d80
5f80
4380
7d80
7d80
5d80
6380
7700
5b00
6700
ENDCHAR
STARTCHAR C003b
ENCODING 59
SWIDTH 666 0
DWIDTH 10 0
BBX 10 14 0 -3
BITMAP
0000
0000
3f00
3700
6380
5d80
5f80
6380
7d80
5d80
6380
3f00
0000
0000
ENDCHAR
STARTCHAR C003c
ENCODING 60
SWIDTH 666 0
DWIDTH 10 0
BBX 10 14 0 -3
BITMAP
0000
0000
7f80
4180
7780
1600
1600
1600
1600
1600
1700
3b80
2d80
3380
ENDCHAR
STARTCHAR C003d
ENCODING 61
SWIDTH 666 0
DWIDTH 10 0
BBX 10 14 0 -3
BITMAP
0000
0000
3f00
3700
7f80
4180
7780
1600
1600
1600
1600
1e00
0000
0000
ENDCHAR
STARTCHAR C003e
ENCODING 62
SWIDTH 666 0
DWIDTH 10 0
BBX 10 14 0 -3
BITMAP
0000
0000
3c00
7780
5d80
5d80
5d80
5d80
5d80
5d80
6380
3f00
0000
0000
ENDCHAR
STARTCHAR C003f
ENCODING 63
SWIDTH 666 0
DWIDTH 10 0
BBX 10 14 0 -3
BITMAP
0000
0000
0f00
7780
5d80
5d80
5d80
5d80
5d80
5d80
6380
3f00
0000
0000
ENDCHAR
STARTCHAR C0040
ENCODING 64
SWIDTH 666 0
DWIDTH 10 0
BBX 10 14 0 -3
BITMAP
0000
0000
1e00
2b00
7f80
5d80
5d80
5d80
5d80
5d80
6380
3f00
0000
0000
ENDCHAR
STARTCHAR C0041
ENCODING 65
SWIDTH 666 0
DWIDTH 10 0
BBX 10 14 0 -3
BITMAP
0000
0000
7f00
b780
dd80
5d80
5d80
5d80
5d80
5d80
6380
3f00
0000
0000
ENDCHAR
STARTCHAR C0042
ENCODING 66
SWIDTH 666 0
DWIDTH 10 0
BBX 10 14 0 -3
BITMAP
0000
0000
7f80
7f80
5d80
5d80
5d80
5d80
5d80
5d80
6380
3f00
0000
0000
ENDCHAR
STARTCHAR C0043
ENCODING 67
SWIDTH 666 0
DWIDTH 10 0
BBX 10 14 0 -3
BITMAP
0000
0000
7f80
6380
7f80
5d80
5d80
5d80
5d80
5d80
6380
3f00
0000
0000
ENDCHAR
STARTCHAR C0044
ENCODING 68
SWIDTH 666 0
DWIDTH 10 0
BBX 10 14 0 -3
BITMAP
0000
0000
7f80
7f80
5d80
5d80
5d80
5d80
5d80
5d80
6380
3f00
0000
0000
ENDCHAR
STARTCHAR C0045
ENCODING 69
SWIDTH 666 0
DWIDTH 10 0
BBX 10 14 0 -3
BITMAP
0000
0000
3e00
5b00
6780
5d80
5d80
5d80
5d80
5d80
6380
3f00
0000
0000
ENDCHAR
STARTCHAR C0046
ENCODING 70
SWIDTH 666 0
DWIDTH 10 0
BBX 10 14 0 -3
BITMAP
0000
0000
1f80
2b80
7f80
5d80
5d80
5d80
5d80
5d80
6380
3f00
0000
0000
ENDCHAR
STARTCHAR C0047
ENCODING 71
SWIDTH 666 0
DWIDTH 10 0
BBX 10 14 0 -3
BITMAP
0000
0000
7f80
5d80
5d80
5d80
5d80
5d80
5d80
5d80
6380
3780
1580
1b80
ENDCHAR
STARTCHAR C0048
ENCODING 72
SWIDTH 666 0
DWIDTH 10 0
BBX 10 14 0 -3
BITMAP
0000
0000
1e00
2b00
7f80
5d80
5d80
5d80
5580
5580
6b80
3f00
0000
0000
ENDCHAR
STARTCHAR C0049
ENCODING 73
SWIDTH 666 0
DWIDTH 10 0
BBX 10 14 0 -3
BITMAP
0000
0000
0f00
7780
5d80
5d80
6b80
3700
1600
1600
1600
1e00
0000
0000
ENDCHAR
STARTCHAR C004a
ENCODING 74
SWIDTH 666 0
DWIDTH 10 0
BBX 10 14 0 -3
BITMAP
0000
0000
1e00
ebc0
bec0
ddc0
6b80
3700
1600
1600
1600
1e00
0000
0000
ENDCHAR
STARTCHAR C004b
ENCODING 75
SWIDTH 666 0
DWIDTH 10 0
BBX 10 14 0 -3
BITMAP
0000
0000
3f00
7f80
5d80
5d80
6b80
3700
1600
1600
1600
1e00
0000
0000
ENDCHAR
STARTCHAR C004c
ENCODING 76
SWIDTH 666 0
DWIDTH 10 0
BBX 10 14 0 -3
BITMAP
0000
0000
0f00
7780
4180
7d80
1b80
3700
6e00
5f80
4180
7f80
0000
0000
ENDCHAR
STARTCHAR C004d
ENCODING 77
SWIDTH 666 0
DWIDTH 10 0
BBX 10 14 0 -3
BITMAP
0000
0000
1e00
7f80
4180
7d80
1b80
3700
6e00
5f80
4180
7f80
0000
0000
ENDCHAR
STARTCHAR C004e
ENCODING 78
SWIDTH 666 0
DWIDTH 10 0
BBX 10 14 0 -3
BITMAP
0000
0000
3f00
7780
4180
7d80
1b80
3700
6e00
5f80
4180
7f80
0000
0000
ENDCHAR
STARTCHAR C004f
ENCODING 79
SWIDTH 666 0
DWIDTH 10 0
BBX 10 14 0 -3
BITMAP
0000
0000
0000
0000
0000
0000
7f80
4180
6380
3700
1e00
0000
0000
0000
ENDCHAR
STARTCHAR C0050
ENCODING 80
SWIDTH 666 0
DWIDTH 10 0
BBX 10 14 0 -3
BITMAP
0000
0000
1e00
1700
1b00
3f80
6180
5d80
5d80
5dc0
62c0
3fc0
0000
0000
ENDCHAR
STARTCHAR C0051
ENCODING 81
SWIDTH 666 0
DWIDTH 10 0
BBX 10 14 0 -3
BITMAP
0000
0000
0f00
1b00
1700
3f80
6180
5d80
5d80
5dc0
62c0
3fc0
0000
0000
ENDCHAR
STARTCHAR C0052
ENCODING 82
SWIDTH 666 0
DWIDTH 10 0
BBX 10 14 0 -3
BITMAP
0000
0000
1e00
3700
2b00
3f80
6180
5d80
5d80
5dc0
62c0
3fc0
0000
0000
ENDCHAR
STARTCHAR C0053
ENCODING 83
SWIDTH 666 0
DWIDTH 10 0
BBX 10 14 0 -3
BITMAP
0000
0000
3f80
6580
5b80
7f80
6180
5d80
5d80
5dc0
62c0
3fc0
0000
0000
ENDCHAR
STARTCHAR C0054
ENCODING 84
SWIDTH 666 0
DWIDTH 10 0
BBX 10 14 0 -3
BITMAP
0000
0000
0000
3f80
2180
3f80
6180
5d80
5d80
5dc0
62c0
3fc0
0000
0000
ENDCHAR
STARTCHAR C0055
ENCODING 85
SWIDTH 666 0
DWIDTH 10 0
BBX 10 14 0 -3
BITMAP
0000
0000
7f80
5d80
6380
3f80
6180
5d80
5d80
5dc0
62c0
3fc0
0000
0000
ENDCHAR
STARTCHAR C0056
ENCODING 86
SWIDTH 666 0
DWIDTH 10 0
BBX 10 14 0 -3
BITMAP
0000
0000
0000
3f00
2b00
3f80
6180
5d80
5d80
5dc0
62c0
3fc0
0000
0000
ENDCHAR
STARTCHAR C0057
ENCODING 87
SWIDTH 666 0
DWIDTH 10 0
BBX 10 14 0 -3
BITMAP
0000
0000
1f00
2d80
3380
3f80
6180
5d80
5d80
5dc0
62c0
3fc0
0000
0000
ENDCHAR
STARTCHAR C0058
ENCODING 88
SWIDTH 666 0
DWIDTH 10 0
BBX 10 14 0 -3
BITMAP
0000
0000
0000
0000
0000
3f80
6180
5d80
5d80
5dc0
62c0
37c0
1580
1b80
ENDCHAR
STARTCHAR C0059
ENCODING 89
SWIDTH 666 0
DWIDTH 10 0
BBX 10 14 0 -3
BITMAP
0000
0000
0f00
1b00
1700
3f00
6380
5d80
5f80
5d80
6380
3f00
0000
0000
ENDCHAR
STARTCHAR C005a
ENCODING 90
SWIDTH 666 0
DWIDTH 10 0
BBX 10 14 0 -3
BITMAP
0000
0000
1e00
3700
2b00
3f00
6380
5d80
5f80
5d80
6380
3f00
0000
0000
ENDCHAR
STARTCHAR C005b
ENCODING 91
SWIDTH 666 0
DWIDTH 10 0
BBX 10 14 0 -3
BITMAP
0000
0000
0000
1e00
1600
3f00
6380
5d80
5f80
5d80
6380
3f00
0000
0000
ENDCHAR
STARTCHAR C005c
ENCODING 92
SWIDTH 666 0
DWIDTH 10 0
BBX 10 14 0 -3
BITMAP
0000
0000
0000
0000
0000
3f00
6380
5d80
5f80
5d80
6380
7700
5b00
6700
ENDCHAR
STARTCHAR C005d
ENCODING 93
SWIDTH 666 0
DWIDTH 10 0
BBX 10 14 0 -3
BITMAP
0000
0000
3f00
2b00
3700
3f00
6380
5d80
5f80
5d80
6380
3f00
0000
0000
ENDCHAR
STARTCHAR C005e
ENCODING 94
SWIDTH 666 0
DWIDTH 10 0
BBX 10 14 0 -3
BITMAP
0000
0000
7f80
5580
6d80
3d80
6180
5d80
5d80
5d80
6180
3f80
0000
0000
ENDCHAR
STARTCHAR C005f
ENCODING 95
SWIDTH 666 0
DWIDTH 10 0
BBX 10 14 0 -3
BITMAP
0000
0000
1e00
1700
1b00
3f00
6380
5d80
4380
5f80
6180
3f80
0000
0000
ENDCHAR
STARTCHAR C0060
ENCODING 96
SWIDTH 666 0
DWIDTH 10 0
BBX 10 14 0 -3
BITMAP
0000
0000
0f00
1b00
1700
3f00
6380
5d80
4380
5f80
6180
3f80
0000
0000
ENDCHAR
STARTCHAR C0061
ENCODING 97
SWIDTH 666 0
DWIDTH 10 0
BBX 10 14 0 -3
BITMAP
0000
0000
1e00
3700
2b00
3f00
6380
5d80
4380
5f80
6180
3f80
0000
0000
ENDCHAR
STARTCHAR C0062
ENCODING 98
SWIDTH 666 0
DWIDTH 10 0
BBX 10 14 0 -3
BITMAP
0000
0000
0000
7f80
4180
7f80
6380
5d80
4380
5f80
6180
3f80
0000
0000
ENDCHAR
STARTCHAR C0063
ENCODING 99
SWIDTH 666 0
DWIDTH 10 0
BBX 10 14 0 -3
BITMAP
0000
0000
0000
1e00
1600
3f00
6380
5d80
4380
5f80
6180
3f80
0000
0000
ENDCHAR
STARTCHAR C0064
ENCODING 100
SWIDTH 666 0
DWIDTH 10 0
BBX 10 14 0 -3
BITMAP
0000
0000
0000
3f00
2b00
3f00
6380
5d80
4380
5f80
6180
3f80
0000
0000
ENDCHAR
STARTCHAR C0065
ENCODING 101
SWIDTH 666 0
DWIDTH 10 0
BBX 10 14 0 -3
BITMAP
0000
0000
0000
0000
0000
3f00
6380
5d80
4380
5f80
6180
3780
1580
1b80
ENDCHAR
STARTCHAR C0066
ENCODING 102
SWIDTH 666 0
DWIDTH 10 0
BBX 10 14 0 -3
BITMAP
0000
0000
3f00
2b00
3700
3f00
6380
5d80
4380
5f80
6180
3f80
0000
0000
ENDCHAR
STARTCHAR C0067
ENCODING 103
SWIDTH 666 0
DWIDTH 10 0
BBX 10 14 0 -3
BITMAP
0000
0000
0f00
1b00
1700
3f80
6180
5d80
5d80
5d80
6180
7d80
4380
7f00
ENDCHAR
STARTCHAR C0068
ENCODING 104
SWIDTH 666 0
DWIDTH 10 0
BBX 10 14 0 -3
BITMAP
0000
0000
1e00
3700
2b00
3f80
6180
5d80
5d80
5d80
6180
7d80
4380
7f00
ENDCHAR
STARTCHAR C0069
ENCODING 105
SWIDTH 666 0
DWIDTH 10 0
BBX 10 14 0 -3
BITMAP
0000
0000
7f80
5d80
6380
3f80
6180
5d80
5d80
5d80
6180
7d80
4380
7f00
ENDCHAR
STARTCHAR C006a
ENCODING 106
SWIDTH 666 0
DWIDTH 10 0
BBX 10 14 0 -3
BITMAP
0000
0000
0000
1e00
1600
3f80
6180
5d80
5d80
5d80
6180
7d80
4380
7f00
ENDCHAR
STARTCHAR C006b
ENCODING 107
SWIDTH 666 0
DWIDTH 10 0
BBX 10 14 0 -3
BITMAP
0000
0000
7f00
4300
5f00
4700
7b00
4700
7e00
0000
0000
0000
0000
0000
ENDCHAR
STARTCHAR C006c
ENCODING 108
SWIDTH 666 0
DWIDTH 10 0
BBX 10 14 0 -3
BITMAP
0000
0000
0f00
5580
5f80
5f00
5380
4d80
5d80
5d80
5d80
7f80
0000
0000
ENDCHAR
STARTCHAR C006d
ENCODING 109
SWIDTH 666 0
DWIDTH 10 0
BBX 10 14 0 -3
BITMAP
0000
0000
3c00
2e00
3700
7b00
4700
7600
1600
7780
4180
7f80
0000
0000
ENDCHAR
STARTCHAR C006e
ENCODING 110
SWIDTH 666 0
DWIDTH 10 0
BBX 10 14 0 -3
BITMAP
0000
0000
1e00
3600
6e00
5e00
6600
3600
1600
7780
4180
7f80
0000
0000
ENDCHAR
STARTCHAR C006f
ENCODING 111
SWIDTH 666 0
DWIDTH 10 0
BBX 10 14 0 -3
BITMAP
0000
0000
1e00
3700
2b00
7f00
4600
7600
1600
7780
4180
7f80
0000
0000
ENDCHAR
STARTCHAR C0070
ENCODING 112
SWIDTH 666 0
DWIDTH 10 0
BBX 10 14 0 -3
BITMAP
0000
0000
3f80
6580
5b80
7f00
4600
7600
1600
7780
4180
7f80
0000
0000
ENDCHAR
STARTCHAR C0071
ENCODING 113
SWIDTH 666 0
DWIDTH 10 0
BBX 10 14 0 -3
BITMAP
0000
0000
0000
7f80
4180
7f80
4600
7600
1600
7780
4180
7f80
0000
0000
ENDCHAR
STARTCHAR C0072
ENCODING 114
SWIDTH 666 0
DWIDTH 10 0
BBX 10 14 0 -3
BITMAP
0000
0000
0000
1e00
3700
6380
4180
7780
4180
6380
3700
1e00
0000
0000
ENDCHAR
STARTCHAR C0073
ENCODING 115
SWIDTH 666 0
DWIDTH 10 0
BBX 10 14 0 -3
BITMAP
0000
0000
0000
3f00
2b00
7f00
4600
7600
1600
7780
4180
7f80
0000
0000
ENDCHAR
STARTCHAR C0074
ENCODING 116
SWIDTH 666 0
DWIDTH 10 0
BBX 10 14 0 -3
BITMAP
0000
0000
0000
1e00
1600
7e00
4600
7600
1600
7780
4180
7780
1580
1b80
ENDCHAR
STARTCHAR C0075
ENCODING 117
SWIDTH 666 0
DWIDTH 10 0
BBX 10 14 0 -3
BITMAP
0000
0000
1e00
3700
2b00
3f00
2300
3b00
0b00
0b00
3b00
2b00
3700
1e00
ENDCHAR
STARTCHAR C0076
ENCODING 118
SWIDTH 666 0
DWIDTH 10 0
BBX 10 14 0 -3
BITMAP
0000
0000
7800
5800
5f00
5b00
5700
4e00
5700
5b80
5d80
7b80
2d80
3380
ENDCHAR
STARTCHAR C0077
ENCODING 119
SWIDTH 666 0
DWIDTH 10 0
BBX 10 14 0 -3
BITMAP
0000
0000
0f00
5700
5e00
5800
5800
5800
5800
5f00
6300
3f00
0000
0000
ENDCHAR
STARTCHAR C0078
ENCODING 120
SWIDTH 666 0
DWIDTH 10 0
BBX 10 14 0 -3
BITMAP
0000
0000
7800
5800
5800
5800
5800
5800
5800
5f00
6300
7700
5b00
6700
ENDCHAR
STARTCHAR C0079
ENCODING 121
SWIDTH 666 0
DWIDTH 10 0
BBX 10 14 0 -3
BITMAP
0000
0000
3f00
5700
5e00
5800
5800
5800
5800
5f00
6300
3f00
0000
0000
ENDCHAR
STARTCHAR C007a
ENCODING 122
SWIDTH 666 0
DWIDTH 10 0
BBX 10 14 0 -3
BITMAP
0000
0000
0f00
1b00
1700
7f80
5180
4d80
5d80
5d80
5d80
7f80
0000
0000
ENDCHAR
STARTCHAR C007b
ENCODING 123
SWIDTH 666 0
DWIDTH 10 0
BBX 10 14 0 -3
BITMAP
0000
0000
3f80
6580
5b80
7f80
5180
4d80
5d80
5d80
5d80
7f80
0000
0000
ENDCHAR
STARTCHAR C007c
ENCODING 124
SWIDTH 666 0
DWIDTH 10 0
BBX 10 14 0 -3
BITMAP
0000
0000
0000
0000
0000
7f80
5180
4d80
5d80
5d80
5d80
7b80
2d80
3380
ENDCHAR
STARTCHAR C007d
ENCODING 125
SWIDTH 666 0
DWIDTH 10 0
BBX 10 14 0 -3
BITMAP
0000
0000
3f00
2b00
3700
7f80
5180
4d80
5d80
5d80
5d80
7f80
0000
0000
ENDCHAR
STARTCHAR C007e
ENCODING 126
SWIDTH 666 0
DWIDTH 10 0
BBX 10 14 0 -3
BITMAP
0000
0000
3c00
2e00
3600
3f00
6380
5d80
5d80
5d80
6380
3f00
0000
0000
ENDCHAR
STARTCHAR C007f
ENCODING 127
SWIDTH 666 0
DWIDTH 10 0
BBX 10 14 0 -3
BITMAP
0000
0000
1e00
3600
2e00
3f00
6380
5d80
5d80
5d80
6380
3f00
0000
0000
ENDCHAR
STARTCHAR C0080
ENCODING 128
SWIDTH 666 0
DWIDTH 10 0
BBX 10 14 0 -3
BITMAP
0000
0000
1e00
3700
2b00
3f00
6380
5d80
5d80
5d80
6380
3f00
0000
0000
ENDCHAR
STARTCHAR C0081
ENCODING 129
SWIDTH 666 0
DWIDTH 10 0
BBX 10 14 0 -3
BITMAP
0000
0000
3f80
6580
5b80
7f00
6380
5d80
5d80
5d80
6380
3f00
0000
0000
ENDCHAR
STARTCHAR C0082
ENCODING 130
SWIDTH 666 0
DWIDTH 10 0
BBX 10 14 0 -3
BITMAP
0000
0000
0000
7f80
4180
7f80
6380
5d80
5d80
5d80
6380
3f00
0000
0000
ENDCHAR
STARTCHAR C0083
ENCODING 131
SWIDTH 666 0
DWIDTH 10 0
BBX 10 14 0 -3
BITMAP
0000
0000
0000
3f00
2b00
3f00
6380
5d80
5d80
5d80
6380
3f00
0000
0000
ENDCHAR
STARTCHAR C0084
ENCODING 132
SWIDTH 666 0
DWIDTH 10 0
BBX 10 14 0 -3
BITMAP
0000
0000
3f80
6d80
5b80
7f00
6380
5d80
5d80
5d80
6380
3f00
0000
0000
ENDCHAR
STARTCHAR C0085
ENCODING 133
SWIDTH 666 0
DWIDTH 10 0
BBX 10 14 0 -3
BITMAP
0000
0000
1e00
3600
2e00
7f00
5380
4d80
5f80
5800
5800
7800
0000
0000
ENDCHAR
STARTCHAR C0086
ENCODING 134
SWIDTH 666 0
DWIDTH 10 0
BBX 10 14 0 -3
BITMAP
0000
0000
0000
0000
0000
7f00
5380
4d80
5f80
5800
5c00
ee00
b600
ce00
ENDCHAR
STARTCHAR C0087
ENCODING 135
SWIDTH 666 0
DWIDTH 10 0
BBX 10 14 0 -3
BITMAP
0000
0000
3f00
2b00
3700
7f00
5380
4d80
5f80
5800
5800
7800
0000
0000
ENDCHAR
STARTCHAR C0088
ENCODING 136
SWIDTH 666 0
DWIDTH 10 0
BBX 10 14 0 -3
BITMAP
0000
0000
0f00
1b00
1700
3f00
6300
5f00
6380
3d80
2380
3f00
0000
0000
ENDCHAR
STARTCHAR C0089
ENCODING 137
SWIDTH 666 0
DWIDTH 10 0
BBX 10 14 0 -3
BITMAP
0000
0000
1e00
3700
2b00
3f00
6300
5f00
6380
3d80
2380
3f00
0000
0000
ENDCHAR
STARTCHAR C008a
ENCODING 138
SWIDTH 666 0
DWIDTH 10 0
BBX 10 14 0 -3
BITMAP
0000
0000
0000
0000
0000
3f00
6300
5f00
6380
3d80
2380
3b80
2d80
3380
ENDCHAR
STARTCHAR C008b
ENCODING 139
SWIDTH 666 0
DWIDTH 10 0
BBX 10 14 0 -3
BITMAP
0000
0000
3f00
2b00
3700
3f00
6300
5f00
6380
3d80
2380
3f00
0000
0000
ENDCHAR
STARTCHAR C008c
ENCODING 140
SWIDTH 666 0
DWIDTH 10 0
BBX 10 14 0 -3
BITMAP
0000
0000
1e00
1600
7780
4180
7780
1600
1600
1780
1180
3b80
2d80
3380
ENDCHAR
STARTCHAR C008d
ENCODING 141
SWIDTH 666 0
DWIDTH 10 0
BBX 10 14 0 -3
BITMAP
0000
0000
1f80
2b80
6f00
4600
6e00
2c00
2c00
2f00
3300
1f00
0000
0000
ENDCHAR
STARTCHAR C008e
ENCODING 142
SWIDTH 666 0
DWIDTH 10 0
BBX 10 14 0 -3
BITMAP
0000
0000
0000
3c00
2e00
7780
5d80
5d80
5d80
5dc0
62c0
3fc0
0000
0000
ENDCHAR
STARTCHAR C008f
ENCODING 143
SWIDTH 666 0
DWIDTH 10 0
BBX 10 14 0 -3
BITMAP
0000
0000
0000
0f00
1b00
7780
5d80
5d80
5d80
5dc0
62c0
3fc0
0000
0000
ENDCHAR
STARTCHAR C0090
ENCODING 144
SWIDTH 666 0
DWIDTH 10 0
BBX 10 14 0 -3
BITMAP
0000
0000
1e00
3700
2b00
7f80
5d80
5d80
5d80
5dc0
62c0
3fc0
0000
0000
ENDCHAR
STARTCHAR C0091
ENCODING 145
SWIDTH 666 0
DWIDTH 10 0
BBX 10 14 0 -3
BITMAP
0000
0000
3f80
6580
5b80
7f80
5d80
5d80
5d80
5dc0
62c0
3fc0
0000
0000
ENDCHAR
STARTCHAR C0092
ENCODING 146
SWIDTH 666 0
DWIDTH 10 0
BBX 10 14 0 -3
BITMAP
0000
0000
0000
7f80
4180
7f80
5d80
5d80
5d80
5dc0
62c0
3fc0
0000
0000
ENDCHAR
STARTCHAR C0093
ENCODING 147
SWIDTH 666 0
DWIDTH 10 0
BBX 10 14 0 -3
BITMAP
0000
0000
7f80
5d80
6380
7f80
5d80
5d80
5d80
5dc0
62c0
3fc0
0000
0000
ENDCHAR
STARTCHAR C0094
ENCODING 148
SWIDTH 666 0
DWIDTH 10 0
BBX 10 14 0 -3
BITMAP
0000
0000
0000
3f00
2b00
7f80
5d80
5d80
5d80
5dc0
62c0
3fc0
0000
0000
ENDCHAR
STARTCHAR C0095
ENCODING 149
SWIDTH 666 0
DWIDTH 10 0
BBX 10 14 0 -3
BITMAP
0000
0000
3e00
6700
5b00
6780
5d80
5d80
5d80
5dc0
62c0
3fc0
0000
0000
ENDCHAR
STARTCHAR C0096
ENCODING 150
SWIDTH 666 0
DWIDTH 10 0
BBX 10 14 0 -3
BITMAP
0000
0000
3f80
6d80
5b80
7f80
5d80
5d80
5d80
5dc0
62c0
3fc0
0000
0000
ENDCHAR
STARTCHAR C0097
ENCODING 151
SWIDTH 666 0
DWIDTH 10 0
BBX 10 14 0 -3
BITMAP
0000
0000
0000
0000
0000
7f80
5d80
5d80
5d80
5dc0
62c0
2fc0
2b00
3700
ENDCHAR
STARTCHAR C0098
ENCODING 152
SWIDTH 666 0
DWIDTH 10 0
BBX 10 14 0 -3
BITMAP
0000
0000
1e00
3700
2b00
7f80
5d80
5d80
5580
5580
6b80
3f00
0000
0000
ENDCHAR
STARTCHAR C0099
ENCODING 153
SWIDTH 666 0
DWIDTH 10 0
BBX 10 14 0 -3
BITMAP
0000
0000
0f00
1b00
1700
7f80
5d80
5d80
5d80
6b80
3700
7600
4e00
7c00
ENDCHAR
STARTCHAR C009a
ENCODING 154
SWIDTH 666 0
DWIDTH 10 0
BBX 10 14 0 -3
BITMAP
0000
0000
1e00
3700
2b00
7f80
5d80
5d80
5d80
6b80
3700
7600
4e00
7c00
ENDCHAR
STARTCHAR C009b
ENCODING 155
SWIDTH 666 0
DWIDTH 10 0
BBX 10 14 0 -3
BITMAP
0000
0000
0000
3f00
2b00
7f80
5d80
5d80
5d80
6b80
3700
7600
4e00
7c00
ENDCHAR
STARTCHAR C009c
ENCODING 156
SWIDTH 666 0
DWIDTH 10 0
BBX 10 14 0 -3
BITMAP
0000
0000
0f00
1b00
1700
7f80
4180
7b80
3700
6f80
4180
7f80
0000
0000
ENDCHAR
STARTCHAR C009d
ENCODING 157
SWIDTH 666 0
DWIDTH 10 0
BBX 10 14 0 -3
BITMAP
0000
0000
0000
1e00
1600
7f80
4180
7b80
3700
6f80
4180
7f80
0000
0000
ENDCHAR
STARTCHAR C009e
ENCODING 158
SWIDTH 666 0
DWIDTH 10 0
BBX 10 14 0 -3
BITMAP
0000
0000
3f00
2b00
3700
7f80
4180
7b80
3700
6f80
4180
7f80
0000
0000
ENDCHAR
STARTCHAR C009f
ENCODING 159
SWIDTH 666 0
DWIDTH 10 0
BBX 10 14 0 -3
BITMAP
0000
0000
0000
0000
0000
0000
0000
7f80
4180
4180
4180
7f80
0000
0000
ENDCHAR
STARTCHAR C00a0
ENCODING 160
SWIDTH 666 0
DWIDTH 10 0
BBX 10 14 0 -3
BITMAP
0000
0000
0000
0000
0000
0000
0000
7f80
4180
4180
4180
7f80
0000
0000
ENDCHAR
STARTCHAR C00a1
ENCODING 161
SWIDTH 666 0
DWIDTH 10 0
BBX 10 14 0 -3
BITMAP
0000
0000
0fc0
08c0
08c0
08c0
08c0
08c0
08c0
08c0
08c0
08c0
08c0
08c0
ENDCHAR
STARTCHAR C00a2
ENCODING 162
SWIDTH 666 0
DWIDTH 10 0
BBX 10 14 0 -3
BITMAP
0000
0000
fe00
8600
8600
8600
8600
8600
8600
8600
8600
8600
8600
8600
ENDCHAR
STARTCHAR C00a3
ENCODING 163
SWIDTH 666 0
DWIDTH 10 0
BBX 10 14 0 -3
BITMAP
0000
0000
0000
0000
0000
0000
0000
ffc0
80c0
80c0
80c0
80c0
80c0
80c0
ENDCHAR
STARTCHAR C00a4
ENCODING 164
SWIDTH 666 0
DWIDTH 10 0
BBX 10 14 0 -3
BITMAP
0000
0000
ffc0
80c0
80c0
80c0
80c0
80c0
ffc0
0000
0000
0000
0000
0000
ENDCHAR
STARTCHAR C00a5
ENCODING 165
SWIDTH 666 0
DWIDTH 10 0
BBX 10 14 0 -3
BITMAP
0000
0000
1fc0
10c0
10c0
10c0
10c0
10c0
10c0
10c0
10c0
10c0
10c0
10c0
ENDCHAR
STARTCHAR C00a6
ENCODING 166
SWIDTH 666 0
DWIDTH 10 0
BBX 10 14 0 -3
BITMAP
0000
0000
ff00
8300
8300
8300
8300
8300
8300
8300
8300
8300
8300
8300
ENDCHAR
STARTCHAR C00a7
ENCODING 167
SWIDTH 666 0
DWIDTH 10 0
BBX 10 14 0 -3
BITMAP
0000
0000
0000
0000
0000
0000
ffc0
80c0
80c0
80c0
80c0
80c0
80c0
80c0
ENDCHAR
STARTCHAR C00a8
ENCODING 168
SWIDTH 666 0
DWIDTH 10 0
BBX 10 14 0 -3
BITMAP
0000
0000
ffc0
80c0
80c0
80c0
80c0
80c0
80c0
ffc0
0000
0000
0000
0000
ENDCHAR
STARTCHAR C00a9
ENCODING 169
SWIDTH 666 0
DWIDTH 10 0
BBX 10 14 0 -3
BITMAP
0000
0000
0fc0
18c0
37c0
6e00
5c00
6e00
37c0
18c0
0fc0
0000
0000
0000
ENDCHAR
STARTCHAR C00aa
ENCODING 170
SWIDTH 666 0
DWIDTH 10 0
BBX 10 14 0 -3
BITMAP
0000
0000
ff80
8180
fd80
5580
6d80
5580
fd80
8180
ff80
0000
0000
0000
ENDCHAR
STARTCHAR C00ab
ENCODING 171
SWIDTH 666 0
DWIDTH 10 0
BBX 10 14 0 -3
BITMAP
0000
0000
ffc0
80c0
9cc0
9cc0
9cc0
9cc0
9cc0
9cc0
9cc0
9cc0
80c0
80c0
ENDCHAR
STARTCHAR C00ac
ENCODING 172
SWIDTH 666 0
DWIDTH 10 0
BBX 10 14 0 -3
BITMAP
0000
0000
0000
0000
0000
1e00
1600
1e00
0000
0000
0000
0000
0000
0000
ENDCHAR
STARTCHAR C00ad
ENCODING 173
SWIDTH 666 0
DWIDTH 10 0
BBX 10 14 0 -3
BITMAP
0000
0000
0000
3c00
2e00
2700
2b00
2700
2e00
3c00
0000
0000
0000
0000
ENDCHAR
STARTCHAR C00ae
ENCODING 174
SWIDTH 666 0
DWIDTH 10 0
BBX 10 14 0 -3
BITMAP
0000
0000
0000
0780
0d80
1980
3580
2d80
3580
1980
0d80
0780
0000
0000
ENDCHAR
STARTCHAR C00af
ENCODING 175
SWIDTH 666 0
DWIDTH 10 0
BBX 10 14 0 -3
BITMAP
0000
0000
0000
0f00
1b00
3700
2e00
3700
1b00
0f00
0000
0000
0000
0000
ENDCHAR
STARTCHAR C00b0
ENCODING 176
SWIDTH 666 0
DWIDTH 10 0
BBX 10 14 0 -3
BITMAP
0000
0000
1f00
1300
1300
f3c0
80c0
80c0
80c0
80c0
ffc0
0000
0000
0000
ENDCHAR
STARTCHAR C00b1
ENCODING 177
SWIDTH 666 0
DWIDTH 10 0
BBX 10 14 0 -3
BITMAP
0000
0000
0000
0000
0000
ffc0
80c0
80c0
80c0
80c0
f3c0
1300
1300
1300
ENDCHAR
STARTCHAR C00b2
ENCODING 178
SWIDTH 666 0
DWIDTH 10 0
BBX 10 14 0 -3
BITMAP
0000
0000
1f00
1300
1300
13c0
10c0
10c0
10c0
10c0
13c0
1300
1300
1300
ENDCHAR
STARTCHAR C00b3
ENCODING 179
SWIDTH 666 0
DWIDTH 10 0
BBX 10 14 0 -3
BITMAP
0000
0000
1f00
1300
1300
f300
8300
8300
8300
8300
f300
1300
1300
1300
ENDCHAR
STARTCHAR C00b4
ENCODING 180
SWIDTH 666 0
DWIDTH 10 0
BBX 10 14 0 -3
BITMAP
0000
0000
1f00
2700
6600
4e00
cc00
9c00
9c00
cc00
4e00
6600
2700
3300
ENDCHAR
STARTCHAR C00b5
ENCODING 181
SWIDTH 666 0
DWIDTH 10 0
BBX 10 14 0 -3
BITMAP
0000
0000
1f00
1380
1980
0980
0dc0
04c0
04c0
0dc0
0980
1980
1380
1300
ENDCHAR
STARTCHAR C00b6
ENCODING 182
SWIDTH 666 0
DWIDTH 10 0
BBX 10 14 0 -3
BITMAP
0000
0000
0000
0000
0000
0000
0000
ffc0
9cc0
9cc0
c9c0
4980
7380
1300
ENDCHAR
STARTCHAR C00b7
ENCODING 183
SWIDTH 666 0
DWIDTH 10 0
BBX 10 14 0 -3
BITMAP
0000
0000
1f00
7380
4980
c9c0
9cc0
9cc0
ffc0
0000
0000
0000
0000
0000
ENDCHAR
STARTCHAR C00b8
ENCODING 184
SWIDTH 666 0
DWIDTH 10 0
BBX 10 14 0 -3
BITMAP
0000
0000
1f00
2700
6600
4e00
cc00
9c00
f800
0000
0000
0000
0000
0000
ENDCHAR
STARTCHAR C00b9
ENCODING 185
SWIDTH 666 0
DWIDTH 10 0
BBX 10 14 0 -3
BITMAP
0000
0000
1f00
1380
1980
0980
0dc0
04c0
07c0
0000
0000
0000
0000
0000
ENDCHAR
STARTCHAR C00ba
ENCODING 186
SWIDTH 666 0
DWIDTH 10 0
BBX 10 14 0 -3
BITMAP
0000
0000
0000
0000
0000
0000
0000
f800
9c00
cc00
4e00
6600
2700
3300
ENDCHAR
STARTCHAR C00bb
ENCODING 187
SWIDTH 666 0
DWIDTH 10 0
BBX 10 14 0 -3
BITMAP
0000
0000
0000
0000
0000
0000
0000
07c0
04c0
0dc0
0980
1980
1380
1300
ENDCHAR
STARTCHAR C00bc
ENCODING 188
SWIDTH 666 0
DWIDTH 10 0
BBX 10 14 0 -3
BITMAP
0000
0000
1f00
1300
1300
f3c0
80c0
80c0
80c0
80c0
f3c0
1300
1300
1300
ENDCHAR
STARTCHAR C00bd
ENCODING 189
SWIDTH 666 0
DWIDTH 10 0
BBX 10 14 0 -3
BITMAP
0000
0000
ffc0
80c0
bec0
c1c0
6380
3700
6b80
ddc0
80c0
80c0
ffc0
0000
ENDCHAR
STARTCHAR C00be
ENCODING 190
SWIDTH 666 0
DWIDTH 10 0
BBX 10 14 0 -3
BITMAP
0000
0000
0000
0000
3f00
6380
4180
4180
6380
3f00
0000
0000
0000
0000
ENDCHAR
STARTCHAR C00bf
ENCODING 191
SWIDTH 666 0
DWIDTH 10 0
BBX 10 14 0 -3
BITMAP
0000
0000
0000
0000
3f00
6380
5d80
5d80
6380
3f00
0000
0000
0000
0000
ENDCHAR
STARTCHAR C00c0
ENCODING 192
SWIDTH 666 0
DWIDTH 10 0
BBX 10 14 0 -3
BITMAP
0000
0000
1e00
1600
1600
1600
1600
1600
1600
1600
1600
1600
1600
1600
ENDCHAR
STARTCHAR C00c1
ENCODING 193
SWIDTH 666 0
DWIDTH 10 0
BBX 10 14 0 -3
BITMAP
0000
0000
0000
0000
0000
0000
0000
ffc0
80c0
ffc0
0000
0000
0000
0000
ENDCHAR
STARTCHAR C00c2
ENCODING 194
SWIDTH 666 0
DWIDTH 10 0
BBX 10 14 0 -3
BITMAP
0000
0000
0000
0000
0000
0000
0000
1fc0
10c0
17c0
1600
1600
1600
1600
ENDCHAR
STARTCHAR C00c3
ENCODING 195
SWIDTH 666 0
DWIDTH 10 0
BBX 10 14 0 -3
BITMAP
0000
0000
0000
0000
0000
0000
0000
fe00
8600
f600
1600
1600
1600
1600
ENDCHAR
STARTCHAR C00c4
ENCODING 196
SWIDTH 666 0
DWIDTH 10 0
BBX 10 14 0 -3
BITMAP
0000
0000
1e00
1600
1600
1600
1600
17c0
10c0
1fc0
0000
0000
0000
0000
ENDCHAR
STARTCHAR C00c5
ENCODING 197
SWIDTH 666 0
DWIDTH 10 0
BBX 10 14 0 -3
BITMAP
0000
0000
1e00
1600
1600
1600
1600
f600
8600
fe00
0000
0000
0000
0000
ENDCHAR
STARTCHAR C00c6
ENCODING 198
SWIDTH 666 0
DWIDTH 10 0
BBX 10 14 0 -3
BITMAP
0000
0000
1e00
1600
1600
1600
1600
17c0
10c0
17c0
1600
1600
1600
1600
ENDCHAR
STARTCHAR C00c7
ENCODING 199
SWIDTH 666 0
DWIDTH 10 0
BBX 10 14 0 -3
BITMAP
0000
0000
1e00
1600
1600
1600
1600
f600
8600
f600
1600
1600
1600
1600
ENDCHAR
STARTCHAR C00c8
ENCODING 200
SWIDTH 666 0
DWIDTH 10 0
BBX 10 14 0 -3
BITMAP
0000
0000
0000
0000
0000
0000
0000
ffc0
80c0
f7c0
1600
1600
1600
1600
ENDCHAR
STARTCHAR C00c9
ENCODING 201
SWIDTH 666 0
DWIDTH 10 0
BBX 10 14 0 -3
BITMAP
0000
0000
1e00
1600
1600
1600
1600
f7c0
80c0
ffc0
0000
0000
0000
0000
ENDCHAR
STARTCHAR C00ca
ENCODING 202
SWIDTH 666 0
DWIDTH 10 0
BBX 10 14 0 -3
BITMAP
0000
0000
1e00
1600
1600
1600
1600
f7c0
80c0
f7c0
1600
1600
1600
1600
ENDCHAR
STARTCHAR C00cb
ENCODING 203
SWIDTH 666 0
DWIDTH 10 0
BBX 10 14 0 -3
BITMAP
0000
0000
0000
0000
0000
0f00
0b80
f9c0
80c0
f9c0
0b80
0f00
0000
0000
ENDCHAR
STARTCHAR C00cc
ENCODING 204
SWIDTH 666 0
DWIDTH 10 0
BBX 10 14 0 -3
BITMAP
0000
0000
0000
0000
0000
3c00
6c00
cfc0
80c0
cfc0
6c00
3c00
0000
0000
ENDCHAR
STARTCHAR C00cd
ENCODING 205
SWIDTH 666 0
DWIDTH 10 0
BBX 10 14 0 -3
BITMAP
0000
0000
1e00
6380
4180
7780
1600
1600
1600
1600
1600
1600
1600
1600
ENDCHAR
STARTCHAR C00ce
ENCODING 206
SWIDTH 666 0
DWIDTH 10 0
BBX 10 14 0 -3
BITMAP
0000
0000
1e00
1600
1600
1600
1600
1600
1600
1600
7780
4180
6380
3700
ENDCHAR
STARTCHAR C00cf
ENCODING 207
SWIDTH 666 0
DWIDTH 10 0
BBX 10 14 0 -3
BITMAP
0000
0000
1e00
1600
1600
1600
1600
1600
1600
1e00
0000
0000
0000
0000
ENDCHAR
STARTCHAR C00d0
ENCODING 208
SWIDTH 666 0
DWIDTH 10 0
BBX 10 14 0 -3
BITMAP
0000
0000
0000
0000
0000
0000
0000
1e00
1600
1600
1600
1600
1600
1600
ENDCHAR
STARTCHAR C00d1
ENCODING 209
SWIDTH 666 0
DWIDTH 10 0
BBX 10 14 0 -3
BITMAP
0000
0000
0000
3f00
6380
d5c0
b6c0
b0c0
bec0
ddc0
6380
3f00
0000
0000
ENDCHAR
STARTCHAR C00d2
ENCODING 210
SWIDTH 666 0
DWIDTH 10 0
BBX 10 14 0 -3
BITMAP
0000
0000
0000
0000
0000
0000
0000
07c0
0cc0
1bc0
1700
1600
1600
1600
ENDCHAR
STARTCHAR C00d3
ENCODING 211
SWIDTH 666 0
DWIDTH 10 0
BBX 10 14 0 -3
BITMAP
0000
0000
0000
0000
0000
0000
0000
f800
9c00
ee00
3600
1600
1600
1600
ENDCHAR
STARTCHAR C00d4
ENCODING 212
SWIDTH 666 0
DWIDTH 10 0
BBX 10 14 0 -3
BITMAP
0000
0000
1e00
1600
1600
1600
1700
1bc0
0cc0
07c0
0000
0000
0000
0000
ENDCHAR
STARTCHAR C00d5
ENCODING 213
SWIDTH 666 0
DWIDTH 10 0
BBX 10 14 0 -3
BITMAP
0000
0000
1e00
1600
1600
1600
3600
ee00
9c00
f800
0000
0000
0000
0000
ENDCHAR
STARTCHAR C00d6
ENCODING 214
SWIDTH 666 0
DWIDTH 10 0
BBX 10 14 0 -3
BITMAP
0000
0000
1e00
1600
1600
1600
1700
1bc0
0cc0
1bc0
1700
1600
1600
1600
ENDCHAR
STARTCHAR C00d7
ENCODING 215
SWIDTH 666 0
DWIDTH 10 0
BBX 10 14 0 -3
BITMAP
0000
0000
1e00
1600
1600
1600
3600
ee00
9c00
ee00
3600
1600
1600
1600
ENDCHAR
STARTCHAR C00d8
ENCODING 216
SWIDTH 666 0
DWIDTH 10 0
BBX 10 14 0 -3
BITMAP
0000
0000
0000
0000
0000
0000
0000
ffc0
88c0
ebc0
3700
1e00
0000
0000
ENDCHAR
STARTCHAR C00d9
ENCODING 217
SWIDTH 666 0
DWIDTH 10 0
BBX 10 14 0 -3
BITMAP
0000
0000
0000
0000
0000
1e00
3700
ebc0
88c0
ffc0
0000
0000
0000
0000
ENDCHAR
STARTCHAR C00da
ENCODING 218
SWIDTH 666 0
DWIDTH 10 0
BBX 10 14 0 -3
BITMAP
0000
0000
1e00
1600
1600
1600
1600
7780
4180
7780
1600
1600
1600
1600
ENDCHAR
STARTCHAR C00db
ENCODING 219
SWIDTH 666 0
DWIDTH 10 0
BBX 10 14 0 -3
BITMAP
0000
0000
0000
0000
0000
0000
1e00
f7c0
80c0
f7c0
1e00
0000
0000
0000
ENDCHAR
STARTCHAR C00dc
ENCODING 220
SWIDTH 666 0
DWIDTH 10 0
BBX 10 14 0 -3
BITMAP
0000
0000
ffc0
80c0
ffc0
80c0
ffc0
80c0
ffc0
80c0
ffc0
80c0
ffc0
80c0
ENDCHAR
STARTCHAR C00dd
ENCODING 221
SWIDTH 666 0
DWIDTH 10 0
BBX 10 14 0 -3
BITMAP
0000
0000
7f80
5580
7f80
5580
7f80
5580
7f80
5580
7f80
5580
7f80
5580
ENDCHAR
STARTCHAR C00de
ENCODING 222
SWIDTH 666 0
DWIDTH 10 0
BBX 10 14 0 -3
BITMAP
0000
0000
7f80
b6c0
c9c0
b6c0
c9c0
b6c0
c9c0
b6c0
c9c0
b6c0
c9c0
b6c0
ENDCHAR
STARTCHAR C00df
ENCODING 223
SWIDTH 666 0
DWIDTH 10 0
BBX 10 14 0 -3
BITMAP
0000
0000
ff00
ab00
ab00
ab00
ab00
ab00
ab00
ab00
ab00
ab00
ab00
ab00
ENDCHAR
STARTCHAR C00e0
ENCODING 224
SWIDTH 666 0
DWIDTH 10 0
BBX 10 14 0 -3
BITMAP
0000
0000
1f00
1300
1300
1300
1300
1300
1300
1300
1300
1300
1300
1300
ENDCHAR
STARTCHAR C00e1
ENCODING 225
SWIDTH 666 0
DWIDTH 10 0
BBX 10 14 0 -3
BITMAP
0000
0000
0000
0000
0000
0000
ffc0
80c0
80c0
ffc0
0000
0000
0000
0000
ENDCHAR
STARTCHAR C00e2
ENCODING 226
SWIDTH 666 0
DWIDTH 10 0
BBX 10 14 0 -3
BITMAP
0000
0000
0000
0000
0000
0000
1fc0
10c0
10c0
13c0
1300
1300
1300
1300
ENDCHAR
STARTCHAR C00e3
ENCODING 227
SWIDTH 666 0
DWIDTH 10 0
BBX 10 14 0 -3
BITMAP
0000
0000
0000
0000
0000
0000
ff00
8300
8300
f300
1300
1300
1300
1300
ENDCHAR
STARTCHAR C00e4
ENCODING 228
SWIDTH 666 0
DWIDTH 10 0
BBX 10 14 0 -3
BITMAP
0000
0000
1f00
1300
1300
1300
13c0
10c0
10c0
1fc0
0000
0000
0000
0000
ENDCHAR
STARTCHAR C00e5
ENCODING 229
SWIDTH 666 0
DWIDTH 10 0
BBX 10 14 0 -3
BITMAP
0000
0000
1f00
1300
1300
1300
f300
8300
8300
ff00
0000
0000
0000
0000
ENDCHAR
STARTCHAR C00e6
ENCODING 230
SWIDTH 666 0
DWIDTH 10 0
BBX 10 14 0 -3
BITMAP
0000
0000
1f00
1300
1300
1300
13c0
10c0
10c0
13c0
1300
1300
1300
1300
ENDCHAR
STARTCHAR C00e7
ENCODING 231
SWIDTH 666 0
DWIDTH 10 0
BBX 10 14 0 -3
BITMAP
0000
0000
1f00
1300
1300
1300
f300
8300
8300
f300
1300
1300
1300
1300
ENDCHAR
STARTCHAR C00e8
ENCODING 232
SWIDTH 666 0
DWIDTH 10 0
BBX 10 14 0 -3
BITMAP
0000
0000
0000
0000
0000
0000
ffc0
80c0
80c0
f3c0
1300
1300
1300
1300
ENDCHAR
STARTCHAR C00e9
ENCODING 233
SWIDTH 666 0
DWIDTH 10 0
BBX 10 14 0 -3
BITMAP
0000
0000
1f00
1300
1300
1300
f3c0
80c0
80c0
ffc0
0000
0000
0000
0000
ENDCHAR
STARTCHAR C00ea
ENCODING 234
SWIDTH 666 0
DWIDTH 10 0
BBX 10 14 0 -3
BITMAP
0000
0000
1f00
1300
1300
1300
f3c0
80c0
80c0
f3c0
1300
1300
1300
1300
ENDCHAR
STARTCHAR C00eb
ENCODING 235
SWIDTH 666 0
DWIDTH 10 0
BBX 10 14 0 -3
BITMAP
0000
0000
0000
0000
0f00
0b80
f9c0
80c0
80c0
f9c0
0b80
0f00
0000
0000
ENDCHAR
STARTCHAR C00ec
ENCODING 236
SWIDTH 666 0
DWIDTH 10 0
BBX 10 14 0 -3
BITMAP
0000
0000
0000
0000
3c00
6c00
cfc0
80c0
80c0
cfc0
6c00
3c00
0000
0000
ENDCHAR
STARTCHAR C00ed
ENCODING 237
SWIDTH 666 0
DWIDTH 10 0
BBX 10 14 0 -3
BITMAP
0000
0000
1f00
61c0
40c0
73c0
1300
1300
1300
1300
1300
1300
1300
1300
ENDCHAR
STARTCHAR C00ee
ENCODING 238
SWIDTH 666 0
DWIDTH 10 0
BBX 10 14 0 -3
BITMAP
0000
0000
1f00
1300
1300
1300
1300
1300
1300
1300
73c0
40c0
61c0
3380
ENDCHAR
STARTCHAR C00ef
ENCODING 239
SWIDTH 666 0
DWIDTH 10 0
BBX 10 14 0 -3
BITMAP
0000
0000
1f00
1300
1300
1300
1300
1300
1300
1f00
0000
0000
0000
0000
ENDCHAR
STARTCHAR C00f0
ENCODING 240
SWIDTH 666 0
DWIDTH 10 0
BBX 10 14 0 -3
BITMAP
0000
0000
0000
0000
0000
0000
1f00
1300
1300
1300
1300
1300
1300
1300
ENDCHAR
STARTCHAR C00f1
ENCODING 241
SWIDTH 666 0
DWIDTH 10 0
BBX 10 14 0 -3
BITMAP
0000
0000
0000
7f80
4180
7f80
4180
7f80
4180
7f80
0000
0000
0000
0000
ENDCHAR
STARTCHAR C00f2
ENCODING 242
SWIDTH 666 0
DWIDTH 10 0
BBX 10 14 0 -3
BITMAP
0000
0000
0000
0000
0000
0000
07c0
0cc0
18c0
11c0
1380
1300
1300
1300
ENDCHAR
STARTCHAR C00f3
ENCODING 243
SWIDTH 666 0
DWIDTH 10 0
BBX 10 14 0 -3
BITMAP
0000
0000
0000
0000
0000
0000
fc00
8e00
8700
e300
3300
1300
1300
1300
ENDCHAR
STARTCHAR C00f4
ENCODING 244
SWIDTH 666 0
DWIDTH 10 0
BBX 10 14 0 -3
BITMAP
0000
0000
1f00
1300
1300
1380
11c0
18c0
0cc0
07c0
0000
0000
0000
0000
ENDCHAR
STARTCHAR C00f5
ENCODING 245
SWIDTH 666 0
DWIDTH 10 0
BBX 10 14 0 -3
BITMAP
0000
0000
1f00
1300
1300
3300
e300
8700
8e00
fc00
0000
0000
0000
0000
ENDCHAR
STARTCHAR C00f6
ENCODING 246
SWIDTH 666 0
DWIDTH 10 0
BBX 10 14 0 -3
BITMAP
0000
0000
1f00
1300
1300
1380
11c0
18c0
0cc0
19c0
1380
1300
1300
1300
ENDCHAR
STARTCHAR C00f7
ENCODING 247
SWIDTH 666 0
DWIDTH 10 0
BBX 10 14 0 -3
BITMAP
0000
0000
1f00
1300
3300
6300
c700
8e00
8e00
c700
6300
3300
1300
1300
ENDCHAR
STARTCHAR C00f8
ENCODING 248
SWIDTH 666 0
DWIDTH 10 0
BBX 10 14 0 -3
BITMAP
0000
0000
0000
0000
0000
0000
ffc0
9cc0
9cc0
c9c0
7780
1600
1e00
0000
ENDCHAR
STARTCHAR C00f9
ENCODING 249
SWIDTH 666 0
DWIDTH 10 0
BBX 10 14 0 -3
BITMAP
0000
0000
0000
1e00
1600
7780
c9c0
9cc0
9cc0
ffc0
0000
0000
0000
0000
ENDCHAR
STARTCHAR C00fa
ENCODING 250
SWIDTH 666 0
DWIDTH 10 0
BBX 10 14 0 -3
BITMAP
0000
0000
1f00
1300
1300
1300
3380
2180
2180
3380
1300
1300
1300
1300
ENDCHAR
STARTCHAR C00fb
ENCODING 251
SWIDTH 666 0
DWIDTH 10 0
BBX 10 14 0 -3
BITMAP
0000
0000
0000
0000
0000
1f00
f3c0
80c0
80c0
f3c0
1f00
0000
0000
0000
ENDCHAR
STARTCHAR C00fc
ENCODING 252
SWIDTH 666 0
DWIDTH 10 0
BBX 10 14 0 -3
BITMAP
0000
0000
0000
7f00
4380
5d80
5f80
5800
5800
5800
7800
0000
0000
0000
ENDCHAR
STARTCHAR C00fd
ENCODING 253
SWIDTH 666 0
DWIDTH 10 0
BBX 10 14 0 -3
BITMAP
0000
0000
0000
3f80
6180
5780
5b00
5b00
5b00
6700
3e00
0000
0000
0000
ENDCHAR
STARTCHAR C00fe
ENCODING 254
SWIDTH 666 0
DWIDTH 10 0
BBX 10 14 0 -3
BITMAP
0000
0000
0000
3f80
6180
5780
7600
1600
1700
1b00
0f00
0000
0000
0000
ENDCHAR
STARTCHAR C00ff
ENCODING 255
SWIDTH 666 0
DWIDTH 10 0
BBX 10 14 0 -3
BITMAP
0000
0000
0000
3f80
6180
5780
7600
1600
1700
1b00
0f00
0000
0000
0000
ENDCHAR
ENDFONT
