STARTFONT 2.1
FONT -Monotype-Arial-Bold-I-Normal--10-100-72-72-P-52-iso8859-1
SIZE 10 72 72
FONTBOUNDINGBOX 12 11 -1 -2

STARTPROPERTIES 22
FOUNDRY "Monotype"
FAMILY_NAME "Arial"
WEIGHT_NAME "Bold"
SLANT "I"
SETWIDTH_NAME "Normal"
ADD_STYLE_NAME ""
PIXEL_SIZE 10
POINT_SIZE 100
RESOLUTION_X 72
RESOLUTION_Y 72
SPACING "P"
AVERAGE_WIDTH 52
CHARSET_REGISTRY "iso8859"
CHARSET_ENCODING "1"
COPYRIGHT "Copyright (c) 1996 Monotype Typography Ltd."
CAP_HEIGHT 7
X_HEIGHT 5
WEIGHT 10
QUAD_WIDTH 6
DEFAULT_CHAR 32
FONT_DESCENT 2
FONT_ASCENT 9
ENDPROPERTIES

CHARS 191

STARTCHAR space
ENCODING 32
SWIDTH 278 0
DWIDTH 3 0
BBX 0 0 0 0
BITMAP
ENDCHAR

STARTCHAR exclam
ENCODING 33
SWIDTH 333 0
DWIDTH 3 0
BBX 2 7 1 0
BITMAP
40
40
40
80
80
00
80
ENDCHAR

STARTCHAR quotedbl
ENCODING 34
SWIDTH 474 0
DWIDTH 4 0
BBX 4 3 1 4
BITMAP
50
A0
A0
ENDCHAR

STARTCHAR numbersign
ENCODING 35
SWIDTH 556 0
DWIDTH 6 0
BBX 7 7 0 0
BITMAP
14
14
7E
28
FC
50
50
ENDCHAR

STARTCHAR dollar
ENCODING 36
SWIDTH 556 0
DWIDTH 6 0
BBX 6 9 0 -1
BITMAP
10
38
54
50
30
28
A8
70
20
ENDCHAR

STARTCHAR percent
ENCODING 37
SWIDTH 889 0
DWIDTH 9 0
BBX 7 8 1 -1
BITMAP
62
A4
A8
D0
16
2A
4A
8C
ENDCHAR

STARTCHAR ampersand
ENCODING 38
SWIDTH 722 0
DWIDTH 7 0
BBX 6 8 1 -1
BITMAP
18
28
28
30
50
9C
88
74
ENDCHAR

STARTCHAR quoteright
ENCODING 39
SWIDTH 278 0
DWIDTH 2 0
BBX 2 2 1 5
BITMAP
40
80
ENDCHAR

STARTCHAR parenleft
ENCODING 40
SWIDTH 333 0
DWIDTH 3 0
BBX 3 9 1 -2
BITMAP
20
40
40
80
80
80
80
80
40
ENDCHAR

STARTCHAR parenright
ENCODING 41
SWIDTH 333 0
DWIDTH 3 0
BBX 3 9 0 -2
BITMAP
40
20
20
20
20
20
40
40
80
ENDCHAR

STARTCHAR asterisk
ENCODING 42
SWIDTH 389 0
DWIDTH 4 0
BBX 3 4 1 4
BITMAP
40
E0
40
A0
ENDCHAR

STARTCHAR plus
ENCODING 43
SWIDTH 584 0
DWIDTH 6 0
BBX 5 5 1 1
BITMAP
20
20
F8
20
20
ENDCHAR

STARTCHAR comma
ENCODING 44
SWIDTH 278 0
DWIDTH 3 0
BBX 2 3 0 -1
BITMAP
40
40
80
ENDCHAR

STARTCHAR minus
ENCODING 45
SWIDTH 584 0
DWIDTH 6 0
BBX 5 1 1 3
BITMAP
F8
ENDCHAR

STARTCHAR period
ENCODING 46
SWIDTH 278 0
DWIDTH 3 0
BBX 1 1 1 0
BITMAP
80
ENDCHAR

STARTCHAR slash
ENCODING 47
SWIDTH 278 0
DWIDTH 3 0
BBX 3 7 0 0
BITMAP
20
20
40
40
40
80
80
ENDCHAR

STARTCHAR zero
ENCODING 48
SWIDTH 556 0
DWIDTH 6 0
BBX 5 7 1 0
BITMAP
30
48
88
88
88
90
60
ENDCHAR

STARTCHAR one
ENCODING 49
SWIDTH 556 0
DWIDTH 6 0
BBX 4 7 1 0
BITMAP
10
E0
20
20
40
40
40
ENDCHAR

STARTCHAR two
ENCODING 50
SWIDTH 556 0
DWIDTH 6 0
BBX 5 7 1 0
BITMAP
30
48
08
10
20
40
F0
ENDCHAR

STARTCHAR three
ENCODING 51
SWIDTH 556 0
DWIDTH 6 0
BBX 5 7 0 0
BITMAP
30
48
08
30
08
88
70
ENDCHAR

STARTCHAR four
ENCODING 52
SWIDTH 556 0
DWIDTH 6 0
BBX 6 7 0 0
BITMAP
08
18
28
50
FC
10
10
ENDCHAR

STARTCHAR five
ENCODING 53
SWIDTH 556 0
DWIDTH 6 0
BBX 5 7 1 0
BITMAP
78
40
70
48
08
90
60
ENDCHAR

STARTCHAR six
ENCODING 54
SWIDTH 556 0
DWIDTH 6 0
BBX 5 7 1 0
BITMAP
18
20
70
88
88
90
60
ENDCHAR

STARTCHAR seven
ENCODING 55
SWIDTH 556 0
DWIDTH 6 0
BBX 5 7 1 0
BITMAP
F8
10
20
40
40
80
80
ENDCHAR

STARTCHAR eight
ENCODING 56
SWIDTH 556 0
DWIDTH 6 0
BBX 5 7 1 0
BITMAP
30
48
48
70
88
88
70
ENDCHAR

STARTCHAR nine
ENCODING 57
SWIDTH 556 0
DWIDTH 6 0
BBX 5 7 1 0
BITMAP
70
88
88
88
70
10
E0
ENDCHAR

STARTCHAR colon
ENCODING 58
SWIDTH 333 0
DWIDTH 3 0
BBX 1 5 1 0
BITMAP
80
00
00
00
80
ENDCHAR

STARTCHAR semicolon
ENCODING 59
SWIDTH 333 0
DWIDTH 3 0
BBX 2 6 0 -1
BITMAP
40
00
00
00
40
80
ENDCHAR

STARTCHAR less
ENCODING 60
SWIDTH 584 0
DWIDTH 6 0
BBX 5 5 1 1
BITMAP
08
30
C0
30
08
ENDCHAR

STARTCHAR equal
ENCODING 61
SWIDTH 584 0
DWIDTH 6 0
BBX 5 3 1 2
BITMAP
F8
00
F8
ENDCHAR

STARTCHAR greater
ENCODING 62
SWIDTH 584 0
DWIDTH 6 0
BBX 5 5 1 1
BITMAP
80
60
18
60
80
ENDCHAR

STARTCHAR question
ENCODING 63
SWIDTH 611 0
DWIDTH 6 0
BBX 4 7 2 0
BITMAP
60
90
10
60
80
00
80
ENDCHAR

STARTCHAR at
ENCODING 64
SWIDTH 975 0
DWIDTH 10 0
BBX 9 9 1 -2
BITMAP
3E00
4100
9A80
A680
A480
A500
9A00
4180
3E00
ENDCHAR

STARTCHAR A
ENCODING 65
SWIDTH 722 0
DWIDTH 7 0
BBX 7 7 0 0
BITMAP
02
06
0A
12
3E
42
82
ENDCHAR

STARTCHAR B
ENCODING 66
SWIDTH 722 0
DWIDTH 7 0
BBX 6 7 1 0
BITMAP
78
44
44
78
88
88
F0
ENDCHAR

STARTCHAR C
ENCODING 67
SWIDTH 722 0
DWIDTH 7 0
BBX 7 7 0 0
BITMAP
1C
22
40
80
80
84
78
ENDCHAR

STARTCHAR D
ENCODING 68
SWIDTH 722 0
DWIDTH 7 0
BBX 7 7 0 0
BITMAP
7C
42
42
82
82
84
F8
ENDCHAR

STARTCHAR E
ENCODING 69
SWIDTH 667 0
DWIDTH 7 0
BBX 6 7 1 0
BITMAP
7C
40
40
F8
80
80
F8
ENDCHAR

STARTCHAR F
ENCODING 70
SWIDTH 611 0
DWIDTH 6 0
BBX 6 7 1 0
BITMAP
7C
40
40
F8
80
80
80
ENDCHAR

STARTCHAR G
ENCODING 71
SWIDTH 778 0
DWIDTH 8 0
BBX 7 7 1 0
BITMAP
3C
42
80
9C
84
84
78
ENDCHAR

STARTCHAR H
ENCODING 72
SWIDTH 722 0
DWIDTH 7 0
BBX 8 7 0 0
BITMAP
21
21
42
7E
42
84
84
ENDCHAR

STARTCHAR I
ENCODING 73
SWIDTH 278 0
DWIDTH 3 0
BBX 3 7 0 0
BITMAP
20
20
40
40
40
80
80
ENDCHAR

STARTCHAR J
ENCODING 74
SWIDTH 556 0
DWIDTH 5 0
BBX 6 8 0 -1
BITMAP
04
04
08
08
08
90
90
60
ENDCHAR

STARTCHAR K
ENCODING 75
SWIDTH 722 0
DWIDTH 7 0
BBX 7 7 0 0
BITMAP
22
24
48
70
48
84
82
ENDCHAR

STARTCHAR L
ENCODING 76
SWIDTH 611 0
DWIDTH 6 0
BBX 5 7 0 0
BITMAP
20
20
40
40
40
80
F8
ENDCHAR

STARTCHAR M
ENCODING 77
SWIDTH 833 0
DWIDTH 8 0
BBX 7 7 0 0
BITMAP
22
22
56
56
5A
9A
92
ENDCHAR

STARTCHAR N
ENCODING 78
SWIDTH 722 0
DWIDTH 7 0
BBX 8 7 0 0
BITMAP
21
21
52
4A
4C
84
84
ENDCHAR

STARTCHAR O
ENCODING 79
SWIDTH 778 0
DWIDTH 8 0
BBX 7 7 1 0
BITMAP
3C
42
82
82
82
84
78
ENDCHAR

STARTCHAR P
ENCODING 80
SWIDTH 667 0
DWIDTH 7 0
BBX 7 7 0 0
BITMAP
3C
22
44
78
40
80
80
ENDCHAR

STARTCHAR Q
ENCODING 81
SWIDTH 778 0
DWIDTH 8 0
BBX 7 8 1 -1
BITMAP
3C
42
82
82
92
9C
74
04
ENDCHAR

STARTCHAR R
ENCODING 82
SWIDTH 722 0
DWIDTH 7 0
BBX 7 7 0 0
BITMAP
3C
22
42
7C
50
88
84
ENDCHAR

STARTCHAR S
ENCODING 83
SWIDTH 667 0
DWIDTH 7 0
BBX 6 7 1 0
BITMAP
38
44
60
30
18
88
70
ENDCHAR

STARTCHAR T
ENCODING 84
SWIDTH 611 0
DWIDTH 6 0
BBX 5 7 1 0
BITMAP
F8
20
20
20
40
40
40
ENDCHAR

STARTCHAR U
ENCODING 85
SWIDTH 722 0
DWIDTH 7 0
BBX 7 7 1 0
BITMAP
42
42
44
84
84
88
70
ENDCHAR

STARTCHAR V
ENCODING 86
SWIDTH 667 0
DWIDTH 7 0
BBX 5 7 2 0
BITMAP
88
90
90
A0
C0
C0
80
ENDCHAR

STARTCHAR W
ENCODING 87
SWIDTH 944 0
DWIDTH 9 0
BBX 9 7 1 0
BITMAP
8880
9900
9900
AA00
CC00
CC00
8800
ENDCHAR

STARTCHAR X
ENCODING 88
SWIDTH 667 0
DWIDTH 7 0
BBX 7 7 0 0
BITMAP
42
24
28
10
28
48
84
ENDCHAR

STARTCHAR Y
ENCODING 89
SWIDTH 667 0
DWIDTH 7 0
BBX 7 7 1 0
BITMAP
82
44
48
30
20
20
20
ENDCHAR

STARTCHAR Z
ENCODING 90
SWIDTH 611 0
DWIDTH 6 0
BBX 7 7 0 0
BITMAP
7E
04
08
10
20
40
FC
ENDCHAR

STARTCHAR bracketleft
ENCODING 91
SWIDTH 333 0
DWIDTH 3 0
BBX 4 9 0 -2
BITMAP
30
20
20
40
40
40
80
80
C0
ENDCHAR

STARTCHAR backslash
ENCODING 92
SWIDTH 278 0
DWIDTH 3 0
BBX 3 7 0 0
BITMAP
80
80
40
40
20
20
20
ENDCHAR

STARTCHAR bracketright
ENCODING 93
SWIDTH 333 0
DWIDTH 3 0
BBX 4 9 -1 -2
BITMAP
30
10
10
20
20
20
40
40
C0
ENDCHAR

STARTCHAR asciicircum
ENCODING 94
SWIDTH 584 0
DWIDTH 5 0
BBX 4 4 1 3
BITMAP
60
60
B0
90
ENDCHAR

STARTCHAR underscore
ENCODING 95
SWIDTH 556 0
DWIDTH 6 0
BBX 6 1 0 -2
BITMAP
FC
ENDCHAR

STARTCHAR quoteleft
ENCODING 96
SWIDTH 278 0
DWIDTH 2 0
BBX 2 2 1 5
BITMAP
40
80
ENDCHAR

STARTCHAR a
ENCODING 97
SWIDTH 556 0
DWIDTH 6 0
BBX 5 5 1 0
BITMAP
30
08
78
90
68
ENDCHAR

STARTCHAR b
ENCODING 98
SWIDTH 611 0
DWIDTH 6 0
BBX 5 7 0 0
BITMAP
40
40
50
68
C8
D0
A0
ENDCHAR

STARTCHAR c
ENCODING 99
SWIDTH 556 0
DWIDTH 5 0
BBX 6 5 0 0
BITMAP
38
44
80
88
70
ENDCHAR

STARTCHAR d
ENCODING 100
SWIDTH 611 0
DWIDTH 6 0
BBX 6 7 0 0
BITMAP
04
04
68
98
88
B0
50
ENDCHAR

STARTCHAR e
ENCODING 101
SWIDTH 556 0
DWIDTH 6 0
BBX 5 5 0 0
BITMAP
30
48
F0
80
70
ENDCHAR

STARTCHAR f
ENCODING 102
SWIDTH 333 0
DWIDTH 3 0
BBX 6 7 -1 0
BITMAP
0C
10
78
20
20
20
C0
ENDCHAR

STARTCHAR g
ENCODING 103
SWIDTH 611 0
DWIDTH 6 0
BBX 5 7 0 -2
BITMAP
28
58
88
98
68
10
E0
ENDCHAR

STARTCHAR h
ENCODING 104
SWIDTH 611 0
DWIDTH 6 0
BBX 5 7 0 0
BITMAP
20
20
50
68
48
90
90
ENDCHAR

STARTCHAR i
ENCODING 105
SWIDTH 278 0
DWIDTH 2 0
BBX 3 7 0 0
BITMAP
20
00
40
40
40
80
80
ENDCHAR

STARTCHAR j
ENCODING 106
SWIDTH 278 0
DWIDTH 2 0
BBX 4 9 -1 -2
BITMAP
10
00
20
20
20
20
40
40
80
ENDCHAR

STARTCHAR k
ENCODING 107
SWIDTH 556 0
DWIDTH 5 0
BBX 6 7 0 0
BITMAP
20
20
4C
50
60
90
88
ENDCHAR

STARTCHAR l
ENCODING 108
SWIDTH 278 0
DWIDTH 2 0
BBX 3 7 0 0
BITMAP
20
20
40
40
40
80
80
ENDCHAR

STARTCHAR m
ENCODING 109
SWIDTH 889 0
DWIDTH 8 0
BBX 8 5 0 0
BITMAP
5B
6D
49
92
92
ENDCHAR

STARTCHAR n
ENCODING 110
SWIDTH 611 0
DWIDTH 6 0
BBX 5 5 0 0
BITMAP
50
68
48
90
90
ENDCHAR

STARTCHAR o
ENCODING 111
SWIDTH 611 0
DWIDTH 6 0
BBX 5 5 1 0
BITMAP
30
48
88
90
60
ENDCHAR

STARTCHAR p
ENCODING 112
SWIDTH 611 0
DWIDTH 6 0
BBX 6 7 -1 -2
BITMAP
28
34
44
64
58
80
80
ENDCHAR

STARTCHAR q
ENCODING 113
SWIDTH 611 0
DWIDTH 6 0
BBX 5 7 0 -2
BITMAP
28
58
88
90
70
10
10
ENDCHAR

STARTCHAR r
ENCODING 114
SWIDTH 389 0
DWIDTH 3 0
BBX 5 5 0 0
BITMAP
D8
60
40
80
80
ENDCHAR

STARTCHAR s
ENCODING 115
SWIDTH 556 0
DWIDTH 5 0
BBX 6 5 0 0
BITMAP
38
44
30
88
70
ENDCHAR

STARTCHAR t
ENCODING 116
SWIDTH 333 0
DWIDTH 3 0
BBX 4 7 0 0
BITMAP
20
20
F0
40
40
40
30
ENDCHAR

STARTCHAR u
ENCODING 117
SWIDTH 611 0
DWIDTH 6 0
BBX 5 5 1 0
BITMAP
48
48
90
B0
50
ENDCHAR

STARTCHAR v
ENCODING 118
SWIDTH 556 0
DWIDTH 5 0
BBX 4 5 1 0
BITMAP
90
A0
A0
C0
80
ENDCHAR

STARTCHAR w
ENCODING 119
SWIDTH 778 0
DWIDTH 7 0
BBX 7 5 1 0
BITMAP
92
B4
B4
D8
90
ENDCHAR

STARTCHAR x
ENCODING 120
SWIDTH 556 0
DWIDTH 5 0
BBX 5 5 0 0
BITMAP
48
30
20
50
88
ENDCHAR

STARTCHAR y
ENCODING 121
SWIDTH 556 0
DWIDTH 5 0
BBX 6 7 0 -2
BITMAP
44
48
50
20
20
40
80
ENDCHAR

STARTCHAR z
ENCODING 122
SWIDTH 500 0
DWIDTH 5 0
BBX 5 5 0 0
BITMAP
78
10
20
40
F0
ENDCHAR

STARTCHAR braceleft
ENCODING 123
SWIDTH 389 0
DWIDTH 3 0
BBX 5 9 0 -2
BITMAP
18
20
20
40
80
40
40
40
20
ENDCHAR

STARTCHAR bar
ENCODING 124
SWIDTH 280 0
DWIDTH 3 0
BBX 1 9 1 -2
BITMAP
80
80
80
80
80
80
80
80
80
ENDCHAR

STARTCHAR braceright
ENCODING 125
SWIDTH 389 0
DWIDTH 3 0
BBX 5 9 -1 -2
BITMAP
20
10
10
10
08
10
10
20
C0
ENDCHAR

STARTCHAR asciitilde
ENCODING 126
SWIDTH 584 0
DWIDTH 6 0
BBX 5 2 1 3
BITMAP
68
B0
ENDCHAR

STARTCHAR space
ENCODING 160
SWIDTH 278 0
DWIDTH 3 0
BBX 0 0 0 0
BITMAP
ENDCHAR

STARTCHAR exclamdown
ENCODING 161
SWIDTH 333 0
DWIDTH 3 0
BBX 2 7 0 -2
BITMAP
40
00
40
40
80
80
80
ENDCHAR

STARTCHAR cent
ENCODING 162
SWIDTH 556 0
DWIDTH 6 0
BBX 5 9 1 -2
BITMAP
10
10
70
A8
A0
D0
60
40
80
ENDCHAR

STARTCHAR sterling
ENCODING 163
SWIDTH 556 0
DWIDTH 6 0
BBX 7 7 0 0
BITMAP
1C
26
20
70
20
60
DC
ENDCHAR

STARTCHAR currency
ENCODING 164
SWIDTH 556 0
DWIDTH 6 0
BBX 6 6 0 1
BITMAP
84
78
48
48
78
84
ENDCHAR

STARTCHAR yen
ENCODING 165
SWIDTH 556 0
DWIDTH 6 0
BBX 7 7 0 0
BITMAP
66
2C
28
7C
30
FC
20
ENDCHAR

STARTCHAR brokenbar
ENCODING 166
SWIDTH 280 0
DWIDTH 3 0
BBX 1 9 1 -2
BITMAP
80
80
80
80
00
80
80
80
80
ENDCHAR

STARTCHAR section
ENCODING 167
SWIDTH 556 0
DWIDTH 6 0
BBX 5 9 1 -2
BITMAP
38
48
60
90
88
48
30
90
E0
ENDCHAR

STARTCHAR dieresis
ENCODING 168
SWIDTH 333 0
DWIDTH 3 0
BBX 3 1 1 6
BITMAP
A0
ENDCHAR

STARTCHAR copyright
ENCODING 169
SWIDTH 737 0
DWIDTH 7 0
BBX 8 7 0 0
BITMAP
3C
5A
A5
A1
A5
5A
3C
ENDCHAR

STARTCHAR ordfeminine
ENCODING 170
SWIDTH 370 0
DWIDTH 4 0
BBX 3 4 1 3
BITMAP
E0
60
A0
E0
ENDCHAR

STARTCHAR guillemotleft
ENCODING 171
SWIDTH 556 0
DWIDTH 6 0
BBX 5 5 1 0
BITMAP
28
50
A0
A0
50
ENDCHAR

STARTCHAR logicalnot
ENCODING 172
SWIDTH 584 0
DWIDTH 6 0
BBX 5 3 1 2
BITMAP
F8
08
08
ENDCHAR

STARTCHAR hyphen
ENCODING 173
SWIDTH 333 0
DWIDTH 3 0
BBX 3 1 0 2
BITMAP
E0
ENDCHAR

STARTCHAR registered
ENCODING 174
SWIDTH 737 0
DWIDTH 7 0
BBX 8 7 0 0
BITMAP
3C
7A
A5
B9
A5
42
3C
ENDCHAR

STARTCHAR macron
ENCODING 175
SWIDTH 333 0
DWIDTH 3 0
BBX 3 1 1 6
BITMAP
E0
ENDCHAR

STARTCHAR degree
ENCODING 176
SWIDTH 400 0
DWIDTH 4 0
BBX 3 3 1 4
BITMAP
60
A0
40
ENDCHAR

STARTCHAR plusminus
ENCODING 177
SWIDTH 584 0
DWIDTH 6 0
BBX 5 5 0 0
BITMAP
50
28
28
50
A0
ENDCHAR

STARTCHAR twosuperior
ENCODING 178
SWIDTH 333 0
DWIDTH 3 0
BBX 3 4 1 3
BITMAP
C0
20
40
E0
ENDCHAR

STARTCHAR threesuperior
ENCODING 179
SWIDTH 333 0
DWIDTH 3 0
BBX 4 4 1 3
BITMAP
70
20
20
C0
ENDCHAR

STARTCHAR acute
ENCODING 180
SWIDTH 333 0
DWIDTH 3 0
BBX 2 2 2 5
BITMAP
40
80
ENDCHAR

STARTCHAR mu
ENCODING 181
SWIDTH 611 0
DWIDTH 6 0
BBX 5 7 0 -2
BITMAP
48
48
48
48
B0
80
80
ENDCHAR

STARTCHAR paragraph
ENCODING 182
SWIDTH 556 0
DWIDTH 5 0
BBX 6 9 1 -2
BITMAP
7C
E8
E8
68
28
28
28
28
28
ENDCHAR

STARTCHAR periodcentered
ENCODING 183
SWIDTH 278 0
DWIDTH 3 0
BBX 2 1 1 3
BITMAP
C0
ENDCHAR

STARTCHAR cedilla
ENCODING 184
SWIDTH 333 0
DWIDTH 3 0
BBX 3 2 0 -2
BITMAP
60
E0
ENDCHAR

STARTCHAR onesuperior
ENCODING 185
SWIDTH 333 0
DWIDTH 3 0
BBX 3 4 1 4
BITMAP
20
E0
40
40
ENDCHAR

STARTCHAR ordmasculine
ENCODING 186
SWIDTH 365 0
DWIDTH 4 0
BBX 3 4 1 3
BITMAP
60
A0
A0
C0
ENDCHAR

STARTCHAR guillemotright
ENCODING 187
SWIDTH 556 0
DWIDTH 6 0
BBX 5 5 0 0
BITMAP
50
28
28
50
A0
ENDCHAR

STARTCHAR onequarter
ENCODING 188
SWIDTH 834 0
DWIDTH 8 0
BBX 9 8 0 -1
BITMAP
2100
E200
4400
4C00
1900
1300
2780
4200
ENDCHAR

STARTCHAR onehalf
ENCODING 189
SWIDTH 834 0
DWIDTH 8 0
BBX 8 8 0 0
BITMAP
21
E2
44
48
16
21
46
8F
ENDCHAR

STARTCHAR threequarters
ENCODING 190
SWIDTH 834 0
DWIDTH 8 0
BBX 8 8 1 -1
BITMAP
72
24
28
D8
12
26
4F
84
ENDCHAR

STARTCHAR questiondown
ENCODING 191
SWIDTH 611 0
DWIDTH 6 0
BBX 4 7 1 -2
BITMAP
10
00
10
60
80
90
60
ENDCHAR

STARTCHAR Agrave
ENCODING 192
SWIDTH 722 0
DWIDTH 7 0
BBX 7 9 0 0
BITMAP
08
04
02
06
0A
12
3E
42
82
ENDCHAR

STARTCHAR Aacute
ENCODING 193
SWIDTH 722 0
DWIDTH 7 0
BBX 8 9 0 0
BITMAP
01
02
02
06
0A
12
3E
42
82
ENDCHAR

STARTCHAR Acircumflex
ENCODING 194
SWIDTH 722 0
DWIDTH 7 0
BBX 8 9 0 0
BITMAP
02
05
02
06
0A
12
3E
42
82
ENDCHAR

STARTCHAR Atilde
ENCODING 195
SWIDTH 722 0
DWIDTH 7 0
BBX 8 9 0 0
BITMAP
05
0A
02
06
0A
12
3E
42
82
ENDCHAR

STARTCHAR Adieresis
ENCODING 196
SWIDTH 722 0
DWIDTH 7 0
BBX 7 9 0 0
BITMAP
0A
00
02
06
0A
12
3E
42
82
ENDCHAR

STARTCHAR Aring
ENCODING 197
SWIDTH 722 0
DWIDTH 7 0
BBX 7 9 0 0
BITMAP
06
06
02
06
0A
12
3E
42
82
ENDCHAR

STARTCHAR AE
ENCODING 198
SWIDTH 1000 0
DWIDTH 10 0
BBX 11 7 0 0
BITMAP
1FE0
1600
3600
27C0
7C00
4400
CFC0
ENDCHAR

STARTCHAR Ccedilla
ENCODING 199
SWIDTH 722 0
DWIDTH 7 0
BBX 7 9 1 -2
BITMAP
3C
66
C0
80
84
CC
78
30
70
ENDCHAR

STARTCHAR Egrave
ENCODING 200
SWIDTH 667 0
DWIDTH 7 0
BBX 6 9 1 0
BITMAP
20
10
7C
40
40
F8
80
80
F8
ENDCHAR

STARTCHAR Eacute
ENCODING 201
SWIDTH 667 0
DWIDTH 7 0
BBX 6 9 1 0
BITMAP
08
10
7C
40
40
F8
80
80
F8
ENDCHAR

STARTCHAR Ecircumflex
ENCODING 202
SWIDTH 667 0
DWIDTH 7 0
BBX 6 9 1 0
BITMAP
10
28
7C
40
40
F8
80
80
F8
ENDCHAR

STARTCHAR Edieresis
ENCODING 203
SWIDTH 667 0
DWIDTH 7 0
BBX 6 9 1 0
BITMAP
28
00
7C
40
40
F8
80
80
F8
ENDCHAR

STARTCHAR Igrave
ENCODING 204
SWIDTH 278 0
DWIDTH 3 0
BBX 3 9 0 0
BITMAP
80
40
20
20
40
40
40
80
80
ENDCHAR

STARTCHAR Iacute
ENCODING 205
SWIDTH 278 0
DWIDTH 3 0
BBX 3 9 0 0
BITMAP
20
40
20
20
40
40
40
80
80
ENDCHAR

STARTCHAR Icircumflex
ENCODING 206
SWIDTH 278 0
DWIDTH 3 0
BBX 4 9 0 0
BITMAP
20
50
20
20
40
40
40
80
80
ENDCHAR

STARTCHAR Idieresis
ENCODING 207
SWIDTH 278 0
DWIDTH 3 0
BBX 4 9 0 0
BITMAP
50
00
20
20
40
40
40
80
80
ENDCHAR

STARTCHAR Eth
ENCODING 208
SWIDTH 722 0
DWIDTH 7 0
BBX 7 7 0 0
BITMAP
7C
42
42
F2
82
84
FC
ENDCHAR

STARTCHAR Ntilde
ENCODING 209
SWIDTH 722 0
DWIDTH 7 0
BBX 8 9 0 0
BITMAP
0A
14
21
21
52
4A
4C
84
84
ENDCHAR

STARTCHAR Ograve
ENCODING 210
SWIDTH 778 0
DWIDTH 8 0
BBX 7 9 1 0
BITMAP
10
08
3C
42
82
82
82
84
78
ENDCHAR

STARTCHAR Oacute
ENCODING 211
SWIDTH 778 0
DWIDTH 8 0
BBX 7 9 1 0
BITMAP
08
10
3C
42
82
82
82
84
78
ENDCHAR

STARTCHAR Ocircumflex
ENCODING 212
SWIDTH 778 0
DWIDTH 8 0
BBX 7 9 1 0
BITMAP
08
14
3C
42
82
82
82
84
78
ENDCHAR

STARTCHAR Otilde
ENCODING 213
SWIDTH 778 0
DWIDTH 8 0
BBX 7 9 1 0
BITMAP
0A
14
3C
42
82
82
82
84
78
ENDCHAR

STARTCHAR Odieresis
ENCODING 214
SWIDTH 778 0
DWIDTH 8 0
BBX 7 9 1 0
BITMAP
14
00
3C
42
82
82
82
84
78
ENDCHAR

STARTCHAR multiply
ENCODING 215
SWIDTH 584 0
DWIDTH 6 0
BBX 5 5 1 1
BITMAP
88
50
20
50
88
ENDCHAR

STARTCHAR Oslash
ENCODING 216
SWIDTH 778 0
DWIDTH 8 0
BBX 7 9 1 -1
BITMAP
02
3E
46
8A
92
A2
C4
F8
80
ENDCHAR

STARTCHAR Ugrave
ENCODING 217
SWIDTH 722 0
DWIDTH 7 0
BBX 7 9 1 0
BITMAP
10
08
42
42
44
84
84
88
70
ENDCHAR

STARTCHAR Uacute
ENCODING 218
SWIDTH 722 0
DWIDTH 7 0
BBX 7 9 1 0
BITMAP
08
10
42
42
44
84
84
88
70
ENDCHAR

STARTCHAR Ucircumflex
ENCODING 219
SWIDTH 722 0
DWIDTH 7 0
BBX 7 9 1 0
BITMAP
08
14
42
42
44
84
84
88
70
ENDCHAR

STARTCHAR Udieresis
ENCODING 220
SWIDTH 722 0
DWIDTH 7 0
BBX 7 9 1 0
BITMAP
14
00
42
42
44
84
84
C8
70
ENDCHAR

STARTCHAR Yacute
ENCODING 221
SWIDTH 667 0
DWIDTH 7 0
BBX 7 9 1 0
BITMAP
08
10
82
44
48
30
20
20
20
ENDCHAR

STARTCHAR Thorn
ENCODING 222
SWIDTH 667 0
DWIDTH 7 0
BBX 6 7 1 0
BITMAP
60
60
78
44
CC
F8
80
ENDCHAR

STARTCHAR germandbls
ENCODING 223
SWIDTH 611 0
DWIDTH 6 0
BBX 5 7 1 0
BITMAP
30
48
50
48
88
A8
B0
ENDCHAR

STARTCHAR agrave
ENCODING 224
SWIDTH 556 0
DWIDTH 6 0
BBX 5 8 1 0
BITMAP
20
10
00
30
08
78
90
68
ENDCHAR

STARTCHAR aacute
ENCODING 225
SWIDTH 556 0
DWIDTH 6 0
BBX 5 8 1 0
BITMAP
10
20
00
30
08
78
90
68
ENDCHAR

STARTCHAR acircumflex
ENCODING 226
SWIDTH 556 0
DWIDTH 6 0
BBX 5 8 1 0
BITMAP
10
28
00
30
08
78
90
68
ENDCHAR

STARTCHAR atilde
ENCODING 227
SWIDTH 556 0
DWIDTH 6 0
BBX 5 8 1 0
BITMAP
28
50
00
30
08
78
90
68
ENDCHAR

STARTCHAR adieresis
ENCODING 228
SWIDTH 556 0
DWIDTH 6 0
BBX 5 7 1 0
BITMAP
28
00
30
08
78
90
68
ENDCHAR

STARTCHAR aring
ENCODING 229
SWIDTH 556 0
DWIDTH 6 0
BBX 5 8 1 0
BITMAP
30
30
00
30
08
78
90
68
ENDCHAR

STARTCHAR ae
ENCODING 230
SWIDTH 889 0
DWIDTH 9 0
BBX 9 5 1 0
BITMAP
7300
0C80
7F80
9C00
6F80
ENDCHAR

STARTCHAR ccedilla
ENCODING 231
SWIDTH 556 0
DWIDTH 6 0
BBX 6 7 1 -2
BITMAP
38
44
80
88
70
60
20
ENDCHAR

STARTCHAR egrave
ENCODING 232
SWIDTH 556 0
DWIDTH 6 0
BBX 5 8 1 0
BITMAP
20
10
00
30
48
F0
80
70
ENDCHAR

STARTCHAR eacute
ENCODING 233
SWIDTH 556 0
DWIDTH 6 0
BBX 5 8 1 0
BITMAP
10
20
00
30
48
F0
80
70
ENDCHAR

STARTCHAR ecircumflex
ENCODING 234
SWIDTH 556 0
DWIDTH 6 0
BBX 5 8 1 0
BITMAP
20
50
00
30
48
F0
80
60
ENDCHAR

STARTCHAR edieresis
ENCODING 235
SWIDTH 556 0
DWIDTH 6 0
BBX 5 7 1 0
BITMAP
50
00
30
48
F0
80
70
ENDCHAR

STARTCHAR igrave
ENCODING 236
SWIDTH 278 0
DWIDTH 3 0
BBX 3 8 0 0
BITMAP
40
20
00
40
40
40
80
80
ENDCHAR

STARTCHAR iacute
ENCODING 237
SWIDTH 278 0
DWIDTH 3 0
BBX 4 8 0 0
BITMAP
10
20
00
40
40
40
80
80
ENDCHAR

STARTCHAR icircumflex
ENCODING 238
SWIDTH 278 0
DWIDTH 3 0
BBX 4 8 0 0
BITMAP
20
50
00
40
40
40
80
80
ENDCHAR

STARTCHAR idieresis
ENCODING 239
SWIDTH 278 0
DWIDTH 3 0
BBX 4 7 0 0
BITMAP
50
00
40
40
40
80
80
ENDCHAR

STARTCHAR eth
ENCODING 240
SWIDTH 611 0
DWIDTH 6 0
BBX 5 7 1 0
BITMAP
18
38
78
C8
88
98
70
ENDCHAR

STARTCHAR ntilde
ENCODING 241
SWIDTH 611 0
DWIDTH 6 0
BBX 5 8 1 0
BITMAP
28
50
00
50
68
48
90
90
ENDCHAR

STARTCHAR ograve
ENCODING 242
SWIDTH 611 0
DWIDTH 6 0
BBX 5 8 1 0
BITMAP
20
10
00
30
48
88
90
60
ENDCHAR

STARTCHAR oacute
ENCODING 243
SWIDTH 611 0
DWIDTH 6 0
BBX 5 8 1 0
BITMAP
10
20
00
30
48
88
90
60
ENDCHAR

STARTCHAR ocircumflex
ENCODING 244
SWIDTH 611 0
DWIDTH 6 0
BBX 5 8 1 0
BITMAP
10
28
00
30
48
88
90
60
ENDCHAR

STARTCHAR otilde
ENCODING 245
SWIDTH 611 0
DWIDTH 6 0
BBX 5 8 1 0
BITMAP
28
50
00
30
48
88
90
60
ENDCHAR

STARTCHAR odieresis
ENCODING 246
SWIDTH 611 0
DWIDTH 6 0
BBX 5 7 1 0
BITMAP
28
00
30
48
88
90
60
ENDCHAR

STARTCHAR divide
ENCODING 247
SWIDTH 584 0
DWIDTH 6 0
BBX 5 5 1 1
BITMAP
20
00
F8
00
20
ENDCHAR

STARTCHAR oslash
ENCODING 248
SWIDTH 611 0
DWIDTH 6 0
BBX 5 5 1 0
BITMAP
78
D8
A8
D8
F0
ENDCHAR

STARTCHAR ugrave
ENCODING 249
SWIDTH 611 0
DWIDTH 6 0
BBX 5 8 1 0
BITMAP
20
10
00
48
48
90
B0
50
ENDCHAR

STARTCHAR uacute
ENCODING 250
SWIDTH 611 0
DWIDTH 6 0
BBX 5 8 1 0
BITMAP
10
20
00
48
48
90
B0
50
ENDCHAR

STARTCHAR ucircumflex
ENCODING 251
SWIDTH 611 0
DWIDTH 6 0
BBX 5 8 1 0
BITMAP
20
50
00
48
48
90
B0
50
ENDCHAR

STARTCHAR udieresis
ENCODING 252
SWIDTH 611 0
DWIDTH 6 0
BBX 5 7 1 0
BITMAP
28
00
48
48
90
B0
50
ENDCHAR

STARTCHAR yacute
ENCODING 253
SWIDTH 556 0
DWIDTH 5 0
BBX 6 9 0 -2
BITMAP
08
10
44
48
50
30
20
40
80
ENDCHAR

STARTCHAR thorn
ENCODING 254
SWIDTH 611 0
DWIDTH 6 0
BBX 6 9 0 -2
BITMAP
20
20
2C
74
64
6C
58
C0
C0
ENDCHAR

STARTCHAR ydieresis
ENCODING 255
SWIDTH 556 0
DWIDTH 5 0
BBX 6 9 0 -2
BITMAP
28
00
44
48
50
30
20
40
80
ENDCHAR

ENDFONT
