STARTFONT 2.1
FONT -Monotype-Bembo-Bold-I-Normal--10-100-72-72-P-52-iso8859-1
SIZE 10 72 72
FONTBOUNDINGBOX 14 12 -2 -3

STARTPROPERTIES 22
FOUNDRY "Monotype"
FAMILY_NAME "Bembo"
WEIGHT_NAME "Bold"
SLANT "I"
SETWIDTH_NAME "Normal"
ADD_STYLE_NAME ""
PIXEL_SIZE 10
POINT_SIZE 100
RESOLUTION_X 72
RESOLUTION_Y 72
SPACING "P"
AVERAGE_WIDTH 52
CHARSET_REGISTRY "iso8859"
CHARSET_ENCODING "1"
COPYRIGHT "Copyright (c) 1996 Monotype Typography Ltd."
CAP_HEIGHT 7
X_HEIGHT 5
WEIGHT 10
QUAD_WIDTH 7
DEFAULT_CHAR 32
FONT_DESCENT 3
FONT_ASCENT 9
ENDPROPERTIES

CHARS 191

STARTCHAR space
ENCODING 32
SWIDTH 278 0
DWIDTH 3 0
BBX 0 0 0 0
BITMAP
ENDCHAR

STARTCHAR exclam
ENCODING 33
SWIDTH 323 0
DWIDTH 3 0
BBX 4 6 0 0
BITMAP
30
30
60
60
00
C0
ENDCHAR

STARTCHAR quotedbl
ENCODING 34
SWIDTH 552 0
DWIDTH 6 0
BBX 3 3 2 3
BITMAP
A0
A0
A0
ENDCHAR

STARTCHAR numbersign
ENCODING 35
SWIDTH 668 0
DWIDTH 7 0
BBX 6 7 1 0
BITMAP
28
28
FC
50
FC
50
50
ENDCHAR

STARTCHAR dollar
ENCODING 36
SWIDTH 469 0
DWIDTH 5 0
BBX 5 8 0 -1
BITMAP
10
38
68
60
30
B0
E0
40
ENDCHAR

STARTCHAR percent
ENCODING 37
SWIDTH 844 0
DWIDTH 8 0
BBX 6 6 1 0
BITMAP
64
A8
D0
2C
54
98
ENDCHAR

STARTCHAR ampersand
ENCODING 38
SWIDTH 729 0
DWIDTH 7 0
BBX 7 6 0 0
BITMAP
38
68
62
DC
C8
70
ENDCHAR

STARTCHAR quoteright
ENCODING 39
SWIDTH 323 0
DWIDTH 3 0
BBX 2 3 1 3
BITMAP
C0
40
80
ENDCHAR

STARTCHAR parenleft
ENCODING 40
SWIDTH 292 0
DWIDTH 3 0
BBX 3 9 1 -3
BITMAP
20
40
80
80
80
80
80
40
40
ENDCHAR

STARTCHAR parenright
ENCODING 41
SWIDTH 292 0
DWIDTH 3 0
BBX 3 9 0 -3
BITMAP
40
20
20
20
20
20
40
40
80
ENDCHAR

STARTCHAR asterisk
ENCODING 42
SWIDTH 521 0
DWIDTH 5 0
BBX 4 4 1 2
BITMAP
20
F0
60
A0
ENDCHAR

STARTCHAR plus
ENCODING 43
SWIDTH 667 0
DWIDTH 7 0
BBX 5 5 1 1
BITMAP
20
20
F8
20
20
ENDCHAR

STARTCHAR comma
ENCODING 44
SWIDTH 323 0
DWIDTH 3 0
BBX 2 3 0 -2
BITMAP
C0
40
80
ENDCHAR

STARTCHAR minus
ENCODING 45
SWIDTH 667 0
DWIDTH 7 0
BBX 5 1 1 3
BITMAP
F8
ENDCHAR

STARTCHAR period
ENCODING 46
SWIDTH 323 0
DWIDTH 3 0
BBX 2 1 0 0
BITMAP
C0
ENDCHAR

STARTCHAR slash
ENCODING 47
SWIDTH 531 0
DWIDTH 5 0
BBX 6 7 -1 -1
BITMAP
0C
18
18
30
60
60
C0
ENDCHAR

STARTCHAR zero
ENCODING 48
SWIDTH 469 0
DWIDTH 5 0
BBX 5 6 0 0
BITMAP
30
58
D8
D8
D0
60
ENDCHAR

STARTCHAR one
ENCODING 49
SWIDTH 469 0
DWIDTH 5 0
BBX 4 6 0 0
BITMAP
10
70
30
60
60
F0
ENDCHAR

STARTCHAR two
ENCODING 50
SWIDTH 469 0
DWIDTH 5 0
BBX 5 6 0 0
BITMAP
30
58
10
20
70
F0
ENDCHAR

STARTCHAR three
ENCODING 51
SWIDTH 469 0
DWIDTH 5 0
BBX 4 6 1 0
BITMAP
60
30
60
30
60
C0
ENDCHAR

STARTCHAR four
ENCODING 52
SWIDTH 469 0
DWIDTH 5 0
BBX 5 6 0 0
BITMAP
10
30
70
F8
20
20
ENDCHAR

STARTCHAR five
ENCODING 53
SWIDTH 469 0
DWIDTH 5 0
BBX 5 6 0 0
BITMAP
78
60
70
30
60
C0
ENDCHAR

STARTCHAR six
ENCODING 54
SWIDTH 469 0
DWIDTH 5 0
BBX 5 6 0 0
BITMAP
38
60
F0
D0
F0
60
ENDCHAR

STARTCHAR seven
ENCODING 55
SWIDTH 469 0
DWIDTH 5 0
BBX 4 6 1 0
BITMAP
F0
F0
20
40
C0
80
ENDCHAR

STARTCHAR eight
ENCODING 56
SWIDTH 469 0
DWIDTH 5 0
BBX 5 6 0 0
BITMAP
30
68
70
70
B0
60
ENDCHAR

STARTCHAR nine
ENCODING 57
SWIDTH 469 0
DWIDTH 5 0
BBX 5 6 0 0
BITMAP
30
78
58
78
30
E0
ENDCHAR

STARTCHAR colon
ENCODING 58
SWIDTH 323 0
DWIDTH 3 0
BBX 3 4 0 0
BITMAP
60
00
00
C0
ENDCHAR

STARTCHAR semicolon
ENCODING 59
SWIDTH 323 0
DWIDTH 3 0
BBX 3 6 0 -2
BITMAP
60
00
00
C0
40
80
ENDCHAR

STARTCHAR less
ENCODING 60
SWIDTH 667 0
DWIDTH 7 0
BBX 5 5 1 1
BITMAP
08
30
C0
30
08
ENDCHAR

STARTCHAR equal
ENCODING 61
SWIDTH 667 0
DWIDTH 7 0
BBX 5 3 1 2
BITMAP
F8
00
F8
ENDCHAR

STARTCHAR greater
ENCODING 62
SWIDTH 667 0
DWIDTH 7 0
BBX 5 5 2 1
BITMAP
80
60
18
60
80
ENDCHAR

STARTCHAR question
ENCODING 63
SWIDTH 427 0
DWIDTH 4 0
BBX 3 6 1 0
BITMAP
C0
A0
60
C0
00
C0
ENDCHAR

STARTCHAR at
ENCODING 64
SWIDTH 833 0
DWIDTH 8 0
BBX 8 9 0 -2
BITMAP
1C
22
4D
95
A5
AD
B6
41
3E
ENDCHAR

STARTCHAR A
ENCODING 65
SWIDTH 719 0
DWIDTH 7 0
BBX 7 6 0 0
BITMAP
0C
1C
2C
3C
4C
DE
ENDCHAR

STARTCHAR B
ENCODING 66
SWIDTH 656 0
DWIDTH 7 0
BBX 7 6 0 0
BITMAP
7C
36
3C
66
66
FC
ENDCHAR

STARTCHAR C
ENCODING 67
SWIDTH 729 0
DWIDTH 7 0
BBX 7 6 1 0
BITMAP
3C
66
C0
C0
CC
78
ENDCHAR

STARTCHAR D
ENCODING 68
SWIDTH 802 0
DWIDTH 8 0
BBX 8 6 0 0
BITMAP
7E
33
33
63
66
FC
ENDCHAR

STARTCHAR E
ENCODING 69
SWIDTH 656 0
DWIDTH 7 0
BBX 7 6 0 0
BITMAP
7E
32
38
60
64
FC
ENDCHAR

STARTCHAR F
ENCODING 70
SWIDTH 604 0
DWIDTH 6 0
BBX 7 6 0 0
BITMAP
7E
32
38
60
60
F0
ENDCHAR

STARTCHAR G
ENCODING 71
SWIDTH 802 0
DWIDTH 8 0
BBX 7 6 1 0
BITMAP
3E
62
C0
DE
CC
78
ENDCHAR

STARTCHAR H
ENCODING 72
SWIDTH 802 0
DWIDTH 8 0
BBX 9 6 0 0
BITMAP
7B80
3300
3F00
6600
6600
F700
ENDCHAR

STARTCHAR I
ENCODING 73
SWIDTH 375 0
DWIDTH 4 0
BBX 5 6 0 0
BITMAP
78
30
30
60
60
F0
ENDCHAR

STARTCHAR J
ENCODING 74
SWIDTH 354 0
DWIDTH 4 0
BBX 7 8 -2 -2
BITMAP
1E
0C
0C
18
18
18
30
E0
ENDCHAR

STARTCHAR K
ENCODING 75
SWIDTH 740 0
DWIDTH 7 0
BBX 8 6 0 0
BITMAP
7B
34
38
6C
6C
E6
ENDCHAR

STARTCHAR L
ENCODING 76
SWIDTH 604 0
DWIDTH 6 0
BBX 6 6 0 0
BITMAP
78
30
30
60
64
FC
ENDCHAR

STARTCHAR M
ENCODING 77
SWIDTH 896 0
DWIDTH 9 0
BBX 10 6 0 0
BITMAP
71C0
3380
3580
5B00
5B00
D780
ENDCHAR

STARTCHAR N
ENCODING 78
SWIDTH 771 0
DWIDTH 8 0
BBX 9 6 0 0
BITMAP
7780
3300
3B00
6E00
6600
F200
ENDCHAR

STARTCHAR O
ENCODING 79
SWIDTH 823 0
DWIDTH 8 0
BBX 7 6 1 0
BITMAP
3C
66
C6
C6
CC
78
ENDCHAR

STARTCHAR P
ENCODING 80
SWIDTH 635 0
DWIDTH 6 0
BBX 7 6 0 0
BITMAP
7C
36
36
6C
60
F0
ENDCHAR

STARTCHAR Q
ENCODING 81
SWIDTH 823 0
DWIDTH 8 0
BBX 7 8 1 -2
BITMAP
3C
66
C6
C6
CC
78
18
0E
ENDCHAR

STARTCHAR R
ENCODING 82
SWIDTH 688 0
DWIDTH 7 0
BBX 7 6 0 0
BITMAP
7C
36
3E
68
6C
E6
ENDCHAR

STARTCHAR S
ENCODING 83
SWIDTH 521 0
DWIDTH 5 0
BBX 5 6 0 0
BITMAP
38
68
60
30
B0
E0
ENDCHAR

STARTCHAR T
ENCODING 84
SWIDTH 698 0
DWIDTH 7 0
BBX 8 6 0 0
BITMAP
FF
99
18
30
30
78
ENDCHAR

STARTCHAR U
ENCODING 85
SWIDTH 750 0
DWIDTH 8 0
BBX 8 6 1 0
BITMAP
F7
62
62
C4
C4
78
ENDCHAR

STARTCHAR V
ENCODING 86
SWIDTH 677 0
DWIDTH 7 0
BBX 7 6 1 0
BITMAP
F6
64
68
70
60
40
ENDCHAR

STARTCHAR W
ENCODING 87
SWIDTH 1063 0
DWIDTH 11 0
BBX 11 6 1 0
BITMAP
EEE0
6640
6E80
7700
6600
4400
ENDCHAR

STARTCHAR X
ENCODING 88
SWIDTH 760 0
DWIDTH 8 0
BBX 8 6 0 0
BITMAP
7B
32
1C
18
2C
EE
ENDCHAR

STARTCHAR Y
ENCODING 89
SWIDTH 667 0
DWIDTH 7 0
BBX 7 6 1 0
BITMAP
F6
64
68
70
60
F0
ENDCHAR

STARTCHAR Z
ENCODING 90
SWIDTH 667 0
DWIDTH 7 0
BBX 7 6 0 0
BITMAP
3E
4C
18
30
64
F8
ENDCHAR

STARTCHAR bracketleft
ENCODING 91
SWIDTH 365 0
DWIDTH 4 0
BBX 5 9 0 -3
BITMAP
38
30
30
60
60
60
C0
C0
E0
ENDCHAR

STARTCHAR backslash
ENCODING 92
SWIDTH 302 0
DWIDTH 3 0
BBX 4 7 0 -1
BITMAP
C0
C0
60
60
60
30
30
ENDCHAR

STARTCHAR bracketright
ENCODING 93
SWIDTH 365 0
DWIDTH 4 0
BBX 5 9 -1 -3
BITMAP
38
18
18
30
30
30
60
60
E0
ENDCHAR

STARTCHAR asciicircum
ENCODING 94
SWIDTH 573 0
DWIDTH 6 0
BBX 5 4 1 3
BITMAP
20
50
50
88
ENDCHAR

STARTCHAR underscore
ENCODING 95
SWIDTH 500 0
DWIDTH 5 0
BBX 5 1 0 -2
BITMAP
F8
ENDCHAR

STARTCHAR quoteleft
ENCODING 96
SWIDTH 323 0
DWIDTH 3 0
BBX 1 3 2 3
BITMAP
80
80
80
ENDCHAR

STARTCHAR a
ENCODING 97
SWIDTH 458 0
DWIDTH 5 0
BBX 5 4 0 0
BITMAP
38
58
B8
D8
ENDCHAR

STARTCHAR b
ENCODING 98
SWIDTH 448 0
DWIDTH 4 0
BBX 4 6 0 0
BITMAP
E0
60
70
D0
E0
C0
ENDCHAR

STARTCHAR c
ENCODING 99
SWIDTH 333 0
DWIDTH 3 0
BBX 3 4 0 0
BITMAP
60
C0
C0
E0
ENDCHAR

STARTCHAR d
ENCODING 100
SWIDTH 448 0
DWIDTH 4 0
BBX 5 6 0 0
BITMAP
38
18
70
B0
B0
F0
ENDCHAR

STARTCHAR e
ENCODING 101
SWIDTH 375 0
DWIDTH 4 0
BBX 4 4 0 0
BITMAP
70
F0
C0
E0
ENDCHAR

STARTCHAR f
ENCODING 102
SWIDTH 271 0
DWIDTH 3 0
BBX 7 9 -2 -3
BITMAP
06
0C
3E
18
18
30
30
20
C0
ENDCHAR

STARTCHAR g
ENCODING 103
SWIDTH 438 0
DWIDTH 4 0
BBX 5 7 -1 -3
BITMAP
30
68
30
60
70
B0
60
ENDCHAR

STARTCHAR h
ENCODING 104
SWIDTH 500 0
DWIDTH 5 0
BBX 5 6 0 0
BITMAP
E0
60
78
D8
D0
D8
ENDCHAR

STARTCHAR i
ENCODING 105
SWIDTH 292 0
DWIDTH 3 0
BBX 4 6 0 0
BITMAP
30
00
E0
60
C0
E0
ENDCHAR

STARTCHAR j
ENCODING 106
SWIDTH 271 0
DWIDTH 3 0
BBX 6 9 -2 -3
BITMAP
0C
00
38
18
18
30
30
20
C0
ENDCHAR

STARTCHAR k
ENCODING 107
SWIDTH 500 0
DWIDTH 5 0
BBX 5 6 0 0
BITMAP
E0
60
78
D8
F0
D8
ENDCHAR

STARTCHAR l
ENCODING 108
SWIDTH 271 0
DWIDTH 3 0
BBX 3 6 0 0
BITMAP
E0
60
60
C0
C0
E0
ENDCHAR

STARTCHAR m
ENCODING 109
SWIDTH 750 0
DWIDTH 8 0
BBX 8 4 0 0
BITMAP
FB
6D
DA
DB
ENDCHAR

STARTCHAR n
ENCODING 110
SWIDTH 510 0
DWIDTH 5 0
BBX 5 4 0 0
BITMAP
F8
68
D0
D8
ENDCHAR

STARTCHAR o
ENCODING 111
SWIDTH 448 0
DWIDTH 4 0
BBX 4 4 0 0
BITMAP
70
D0
B0
E0
ENDCHAR

STARTCHAR p
ENCODING 112
SWIDTH 490 0
DWIDTH 5 0
BBX 6 7 -1 -3
BITMAP
7C
34
34
38
60
60
F0
ENDCHAR

STARTCHAR q
ENCODING 113
SWIDTH 448 0
DWIDTH 4 0
BBX 5 7 -1 -3
BITMAP
38
58
B0
F0
30
60
F0
ENDCHAR

STARTCHAR r
ENCODING 114
SWIDTH 333 0
DWIDTH 3 0
BBX 4 4 0 0
BITMAP
70
60
C0
C0
ENDCHAR

STARTCHAR s
ENCODING 115
SWIDTH 344 0
DWIDTH 3 0
BBX 3 4 0 0
BITMAP
60
C0
60
C0
ENDCHAR

STARTCHAR t
ENCODING 116
SWIDTH 302 0
DWIDTH 3 0
BBX 4 5 0 0
BITMAP
60
F0
60
C0
E0
ENDCHAR

STARTCHAR u
ENCODING 117
SWIDTH 500 0
DWIDTH 5 0
BBX 5 4 0 0
BITMAP
D8
58
B0
F8
ENDCHAR

STARTCHAR v
ENCODING 118
SWIDTH 427 0
DWIDTH 4 0
BBX 5 4 -1 0
BITMAP
E8
68
70
60
ENDCHAR

STARTCHAR w
ENCODING 119
SWIDTH 667 0
DWIDTH 7 0
BBX 8 4 -1 0
BITMAP
ED
6D
7E
6C
ENDCHAR

STARTCHAR x
ENCODING 120
SWIDTH 500 0
DWIDTH 5 0
BBX 5 4 0 0
BITMAP
68
30
70
98
ENDCHAR

STARTCHAR y
ENCODING 121
SWIDTH 458 0
DWIDTH 5 0
BBX 6 7 -1 -3
BITMAP
74
34
38
30
30
60
F0
ENDCHAR

STARTCHAR z
ENCODING 122
SWIDTH 490 0
DWIDTH 5 0
BBX 5 4 0 0
BITMAP
78
30
60
F0
ENDCHAR

STARTCHAR braceleft
ENCODING 123
SWIDTH 344 0
DWIDTH 3 0
BBX 3 9 1 -3
BITMAP
20
40
40
40
80
40
40
40
20
ENDCHAR

STARTCHAR bar
ENCODING 124
SWIDTH 566 0
DWIDTH 6 0
BBX 1 8 3 -2
BITMAP
80
80
80
80
80
80
80
80
ENDCHAR

STARTCHAR braceright
ENCODING 125
SWIDTH 344 0
DWIDTH 3 0
BBX 3 9 0 -3
BITMAP
80
40
40
40
20
40
40
40
80
ENDCHAR

STARTCHAR asciitilde
ENCODING 126
SWIDTH 573 0
DWIDTH 6 0
BBX 5 2 0 2
BITMAP
68
B0
ENDCHAR

STARTCHAR space
ENCODING 160
SWIDTH 278 0
DWIDTH 3 0
BBX 0 0 0 0
BITMAP
ENDCHAR

STARTCHAR exclamdown
ENCODING 161
SWIDTH 323 0
DWIDTH 3 0
BBX 4 6 -1 -3
BITMAP
30
00
60
60
C0
C0
ENDCHAR

STARTCHAR cent
ENCODING 162
SWIDTH 333 0
DWIDTH 3 0
BBX 3 8 0 -2
BITMAP
20
20
60
C0
C0
60
80
80
ENDCHAR

STARTCHAR sterling
ENCODING 163
SWIDTH 760 0
DWIDTH 8 0
BBX 8 9 0 -3
BITMAP
0E
19
10
30
78
20
71
DB
8E
ENDCHAR

STARTCHAR currency
ENCODING 164
SWIDTH 667 0
DWIDTH 7 0
BBX 5 5 1 1
BITMAP
A8
70
D8
70
A8
ENDCHAR

STARTCHAR yen
ENCODING 165
SWIDTH 500 0
DWIDTH 5 0
BBX 6 6 0 0
BITMAP
EC
68
70
F8
60
F0
ENDCHAR

STARTCHAR brokenbar
ENCODING 166
SWIDTH 566 0
DWIDTH 6 0
BBX 1 8 2 -2
BITMAP
80
80
80
00
00
80
80
80
ENDCHAR

STARTCHAR section
ENCODING 167
SWIDTH 448 0
DWIDTH 4 0
BBX 5 9 0 -2
BITMAP
18
20
60
50
50
50
30
20
C0
ENDCHAR

STARTCHAR dieresis
ENCODING 168
SWIDTH 333 0
DWIDTH 3 0
BBX 3 1 0 5
BITMAP
A0
ENDCHAR

STARTCHAR copyright
ENCODING 169
SWIDTH 750 0
DWIDTH 8 0
BBX 7 7 1 0
BITMAP
38
44
9A
A2
9A
44
38
ENDCHAR

STARTCHAR ordfeminine
ENCODING 170
SWIDTH 354 0
DWIDTH 4 0
BBX 3 3 1 3
BITMAP
60
A0
E0
ENDCHAR

STARTCHAR guillemotleft
ENCODING 171
SWIDTH 427 0
DWIDTH 4 0
BBX 4 4 0 0
BITMAP
50
A0
A0
A0
ENDCHAR

STARTCHAR logicalnot
ENCODING 172
SWIDTH 667 0
DWIDTH 7 0
BBX 5 3 1 2
BITMAP
F8
08
08
ENDCHAR

STARTCHAR hyphen
ENCODING 173
SWIDTH 417 0
DWIDTH 4 0
BBX 4 1 0 2
BITMAP
F0
ENDCHAR

STARTCHAR registered
ENCODING 174
SWIDTH 750 0
DWIDTH 8 0
BBX 7 7 1 0
BITMAP
38
44
BA
B2
AA
44
38
ENDCHAR

STARTCHAR macron
ENCODING 175
SWIDTH 333 0
DWIDTH 3 0
BBX 3 1 1 5
BITMAP
E0
ENDCHAR

STARTCHAR degree
ENCODING 176
SWIDTH 396 0
DWIDTH 4 0
BBX 4 4 1 3
BITMAP
60
90
90
60
ENDCHAR

STARTCHAR plusminus
ENCODING 177
SWIDTH 668 0
DWIDTH 7 0
BBX 5 6 1 0
BITMAP
20
20
F8
20
20
F8
ENDCHAR

STARTCHAR twosuperior
ENCODING 178
SWIDTH 292 0
DWIDTH 3 0
BBX 3 4 0 2
BITMAP
60
20
40
C0
ENDCHAR

STARTCHAR threesuperior
ENCODING 179
SWIDTH 292 0
DWIDTH 3 0
BBX 3 4 0 2
BITMAP
60
60
20
C0
ENDCHAR

STARTCHAR acute
ENCODING 180
SWIDTH 333 0
DWIDTH 3 0
BBX 2 3 1 3
BITMAP
40
80
C0
ENDCHAR

STARTCHAR mu
ENCODING 181
SWIDTH 573 0
DWIDTH 6 0
BBX 7 7 -1 -3
BITMAP
36
36
2C
7E
40
C0
C0
ENDCHAR

STARTCHAR paragraph
ENCODING 182
SWIDTH 542 0
DWIDTH 5 0
BBX 5 9 1 -3
BITMAP
78
E8
E8
E8
28
28
28
28
28
ENDCHAR

STARTCHAR periodcentered
ENCODING 183
SWIDTH 323 0
DWIDTH 3 0
BBX 1 1 2 3
BITMAP
80
ENDCHAR

STARTCHAR cedilla
ENCODING 184
SWIDTH 333 0
DWIDTH 3 0
BBX 4 3 -1 -3
BITMAP
20
30
E0
ENDCHAR

STARTCHAR onesuperior
ENCODING 185
SWIDTH 292 0
DWIDTH 3 0
BBX 2 4 1 2
BITMAP
40
40
80
80
ENDCHAR

STARTCHAR ordmasculine
ENCODING 186
SWIDTH 333 0
DWIDTH 3 0
BBX 3 4 1 2
BITMAP
60
A0
A0
C0
ENDCHAR

STARTCHAR guillemotright
ENCODING 187
SWIDTH 427 0
DWIDTH 4 0
BBX 4 4 0 0
BITMAP
50
50
50
A0
ENDCHAR

STARTCHAR onequarter
ENCODING 188
SWIDTH 844 0
DWIDTH 8 0
BBX 7 6 1 0
BITMAP
44
48
92
A4
4E
84
ENDCHAR

STARTCHAR onehalf
ENCODING 189
SWIDTH 844 0
DWIDTH 8 0
BBX 7 6 1 0
BITMAP
44
48
96
A6
42
8C
ENDCHAR

STARTCHAR threequarters
ENCODING 190
SWIDTH 844 0
DWIDTH 8 0
BBX 7 6 1 0
BITMAP
62
64
2A
D4
2E
44
ENDCHAR

STARTCHAR questiondown
ENCODING 191
SWIDTH 427 0
DWIDTH 4 0
BBX 3 6 0 -3
BITMAP
60
00
60
C0
A0
60
ENDCHAR

STARTCHAR Agrave
ENCODING 192
SWIDTH 719 0
DWIDTH 7 0
BBX 7 9 0 0
BITMAP
18
0C
00
0C
1C
2C
3C
4C
DE
ENDCHAR

STARTCHAR Aacute
ENCODING 193
SWIDTH 719 0
DWIDTH 7 0
BBX 7 9 0 0
BITMAP
06
0C
00
0C
1C
2C
3C
4C
DE
ENDCHAR

STARTCHAR Acircumflex
ENCODING 194
SWIDTH 719 0
DWIDTH 7 0
BBX 7 9 0 0
BITMAP
06
0A
00
0C
1C
2C
3C
4C
DE
ENDCHAR

STARTCHAR Atilde
ENCODING 195
SWIDTH 719 0
DWIDTH 7 0
BBX 8 9 0 0
BITMAP
0D
16
00
0C
1C
2C
3C
4C
DE
ENDCHAR

STARTCHAR Adieresis
ENCODING 196
SWIDTH 719 0
DWIDTH 7 0
BBX 7 8 0 0
BITMAP
0A
00
0C
1C
2C
3C
4C
DE
ENDCHAR

STARTCHAR Aring
ENCODING 197
SWIDTH 719 0
DWIDTH 7 0
BBX 7 9 0 0
BITMAP
0C
12
0C
0C
1C
2C
3C
4C
DE
ENDCHAR

STARTCHAR AE
ENCODING 198
SWIDTH 958 0
DWIDTH 10 0
BBX 10 6 0 0
BITMAP
0FC0
1640
1700
3C00
4C80
DF80
ENDCHAR

STARTCHAR Ccedilla
ENCODING 199
SWIDTH 729 0
DWIDTH 7 0
BBX 7 9 1 -3
BITMAP
3C
66
C0
C0
CC
78
20
30
E0
ENDCHAR

STARTCHAR Egrave
ENCODING 200
SWIDTH 656 0
DWIDTH 7 0
BBX 7 9 0 0
BITMAP
18
0C
00
7E
32
38
60
64
FC
ENDCHAR

STARTCHAR Eacute
ENCODING 201
SWIDTH 656 0
DWIDTH 7 0
BBX 7 9 0 0
BITMAP
06
0C
00
7E
32
38
60
64
FC
ENDCHAR

STARTCHAR Ecircumflex
ENCODING 202
SWIDTH 656 0
DWIDTH 7 0
BBX 7 9 0 0
BITMAP
0C
14
00
7E
32
38
60
64
FC
ENDCHAR

STARTCHAR Edieresis
ENCODING 203
SWIDTH 656 0
DWIDTH 7 0
BBX 7 8 0 0
BITMAP
14
00
7E
32
38
60
64
FC
ENDCHAR

STARTCHAR Igrave
ENCODING 204
SWIDTH 375 0
DWIDTH 4 0
BBX 5 9 0 0
BITMAP
30
18
00
78
30
30
60
60
F0
ENDCHAR

STARTCHAR Iacute
ENCODING 205
SWIDTH 375 0
DWIDTH 4 0
BBX 6 9 0 0
BITMAP
0C
18
00
78
30
30
60
60
F0
ENDCHAR

STARTCHAR Icircumflex
ENCODING 206
SWIDTH 375 0
DWIDTH 4 0
BBX 5 9 0 0
BITMAP
18
28
00
78
30
30
60
60
F0
ENDCHAR

STARTCHAR Idieresis
ENCODING 207
SWIDTH 375 0
DWIDTH 4 0
BBX 5 8 0 0
BITMAP
28
00
78
30
30
60
60
F0
ENDCHAR

STARTCHAR Eth
ENCODING 208
SWIDTH 802 0
DWIDTH 8 0
BBX 8 6 0 0
BITMAP
7E
33
33
FB
66
FC
ENDCHAR

STARTCHAR Ntilde
ENCODING 209
SWIDTH 771 0
DWIDTH 8 0
BBX 9 9 0 0
BITMAP
0D00
1600
0000
7780
3300
3B00
6E00
6600
F200
ENDCHAR

STARTCHAR Ograve
ENCODING 210
SWIDTH 823 0
DWIDTH 8 0
BBX 7 9 1 0
BITMAP
30
18
00
3C
66
C6
C6
CC
78
ENDCHAR

STARTCHAR Oacute
ENCODING 211
SWIDTH 823 0
DWIDTH 8 0
BBX 7 9 1 0
BITMAP
0C
18
00
3C
66
C6
C6
CC
78
ENDCHAR

STARTCHAR Ocircumflex
ENCODING 212
SWIDTH 823 0
DWIDTH 8 0
BBX 7 9 1 0
BITMAP
0C
14
00
3C
66
C6
C6
CC
78
ENDCHAR

STARTCHAR Otilde
ENCODING 213
SWIDTH 823 0
DWIDTH 8 0
BBX 7 9 1 0
BITMAP
1A
2C
00
3C
66
C6
C6
CC
78
ENDCHAR

STARTCHAR Odieresis
ENCODING 214
SWIDTH 823 0
DWIDTH 8 0
BBX 7 8 1 0
BITMAP
14
00
3C
66
C6
C6
CC
78
ENDCHAR

STARTCHAR multiply
ENCODING 215
SWIDTH 667 0
DWIDTH 7 0
BBX 5 5 1 1
BITMAP
88
50
20
50
88
ENDCHAR

STARTCHAR Oslash
ENCODING 216
SWIDTH 823 0
DWIDTH 8 0
BBX 7 8 1 -1
BITMAP
02
3C
6E
D6
D6
EC
78
80
ENDCHAR

STARTCHAR Ugrave
ENCODING 217
SWIDTH 750 0
DWIDTH 8 0
BBX 8 9 1 0
BITMAP
30
18
00
F7
62
62
C4
C4
78
ENDCHAR

STARTCHAR Uacute
ENCODING 218
SWIDTH 750 0
DWIDTH 8 0
BBX 8 9 1 0
BITMAP
0C
18
00
F7
62
62
C4
C4
78
ENDCHAR

STARTCHAR Ucircumflex
ENCODING 219
SWIDTH 750 0
DWIDTH 8 0
BBX 8 9 1 0
BITMAP
0C
14
00
F7
62
62
C4
C4
78
ENDCHAR

STARTCHAR Udieresis
ENCODING 220
SWIDTH 750 0
DWIDTH 8 0
BBX 8 8 1 0
BITMAP
12
00
F7
62
62
C4
C4
78
ENDCHAR

STARTCHAR Yacute
ENCODING 221
SWIDTH 667 0
DWIDTH 7 0
BBX 7 9 1 0
BITMAP
0C
18
00
F6
64
68
70
60
F0
ENDCHAR

STARTCHAR Thorn
ENCODING 222
SWIDTH 635 0
DWIDTH 6 0
BBX 6 6 0 0
BITMAP
70
3C
34
6C
78
E0
ENDCHAR

STARTCHAR germandbls
ENCODING 223
SWIDTH 490 0
DWIDTH 5 0
BBX 7 9 -2 -3
BITMAP
0E
1A
1C
1A
32
34
20
60
C0
ENDCHAR

STARTCHAR agrave
ENCODING 224
SWIDTH 458 0
DWIDTH 5 0
BBX 5 7 0 0
BITMAP
30
18
00
38
58
B8
D8
ENDCHAR

STARTCHAR aacute
ENCODING 225
SWIDTH 458 0
DWIDTH 5 0
BBX 6 7 0 0
BITMAP
0C
18
00
38
58
B8
D8
ENDCHAR

STARTCHAR acircumflex
ENCODING 226
SWIDTH 458 0
DWIDTH 5 0
BBX 5 7 0 0
BITMAP
18
28
00
38
58
B8
D8
ENDCHAR

STARTCHAR atilde
ENCODING 227
SWIDTH 458 0
DWIDTH 5 0
BBX 6 7 0 0
BITMAP
34
58
00
38
58
B8
D8
ENDCHAR

STARTCHAR adieresis
ENCODING 228
SWIDTH 458 0
DWIDTH 5 0
BBX 5 6 0 0
BITMAP
28
00
38
58
B8
D8
ENDCHAR

STARTCHAR aring
ENCODING 229
SWIDTH 458 0
DWIDTH 5 0
BBX 5 8 0 0
BITMAP
10
28
10
00
38
58
B8
D8
ENDCHAR

STARTCHAR ae
ENCODING 230
SWIDTH 615 0
DWIDTH 6 0
BBX 6 4 0 0
BITMAP
3C
5C
B0
DC
ENDCHAR

STARTCHAR ccedilla
ENCODING 231
SWIDTH 333 0
DWIDTH 3 0
BBX 3 7 0 -3
BITMAP
60
C0
C0
E0
40
60
C0
ENDCHAR

STARTCHAR egrave
ENCODING 232
SWIDTH 375 0
DWIDTH 4 0
BBX 4 7 0 0
BITMAP
60
30
00
70
F0
C0
E0
ENDCHAR

STARTCHAR eacute
ENCODING 233
SWIDTH 375 0
DWIDTH 4 0
BBX 5 7 0 0
BITMAP
18
30
00
70
F0
C0
E0
ENDCHAR

STARTCHAR ecircumflex
ENCODING 234
SWIDTH 375 0
DWIDTH 4 0
BBX 5 7 0 0
BITMAP
18
28
00
70
F0
C0
E0
ENDCHAR

STARTCHAR edieresis
ENCODING 235
SWIDTH 375 0
DWIDTH 4 0
BBX 4 6 0 0
BITMAP
50
00
70
F0
C0
E0
ENDCHAR

STARTCHAR igrave
ENCODING 236
SWIDTH 292 0
DWIDTH 3 0
BBX 3 7 0 0
BITMAP
C0
60
00
E0
60
C0
E0
ENDCHAR

STARTCHAR iacute
ENCODING 237
SWIDTH 292 0
DWIDTH 3 0
BBX 4 7 0 0
BITMAP
30
60
00
E0
60
C0
E0
ENDCHAR

STARTCHAR icircumflex
ENCODING 238
SWIDTH 292 0
DWIDTH 3 0
BBX 4 7 0 0
BITMAP
30
50
00
E0
60
C0
E0
ENDCHAR

STARTCHAR idieresis
ENCODING 239
SWIDTH 292 0
DWIDTH 3 0
BBX 4 6 0 0
BITMAP
50
00
E0
60
C0
E0
ENDCHAR

STARTCHAR eth
ENCODING 240
SWIDTH 417 0
DWIDTH 4 0
BBX 5 7 0 0
BITMAP
48
38
50
70
D0
B0
E0
ENDCHAR

STARTCHAR ntilde
ENCODING 241
SWIDTH 510 0
DWIDTH 5 0
BBX 6 7 0 0
BITMAP
34
58
00
F8
68
D0
D8
ENDCHAR

STARTCHAR ograve
ENCODING 242
SWIDTH 448 0
DWIDTH 4 0
BBX 4 7 0 0
BITMAP
60
30
00
70
D0
B0
E0
ENDCHAR

STARTCHAR oacute
ENCODING 243
SWIDTH 448 0
DWIDTH 4 0
BBX 5 7 0 0
BITMAP
18
30
00
70
D0
B0
E0
ENDCHAR

STARTCHAR ocircumflex
ENCODING 244
SWIDTH 448 0
DWIDTH 4 0
BBX 4 7 0 0
BITMAP
30
50
00
70
D0
B0
E0
ENDCHAR

STARTCHAR otilde
ENCODING 245
SWIDTH 448 0
DWIDTH 4 0
BBX 5 7 0 0
BITMAP
68
B0
00
70
D0
B0
E0
ENDCHAR

STARTCHAR odieresis
ENCODING 246
SWIDTH 448 0
DWIDTH 4 0
BBX 4 6 0 0
BITMAP
50
00
70
D0
B0
E0
ENDCHAR

STARTCHAR divide
ENCODING 247
SWIDTH 668 0
DWIDTH 7 0
BBX 5 5 1 1
BITMAP
20
00
F8
00
20
ENDCHAR

STARTCHAR oslash
ENCODING 248
SWIDTH 448 0
DWIDTH 4 0
BBX 4 6 0 -1
BITMAP
10
70
D0
B0
E0
80
ENDCHAR

STARTCHAR ugrave
ENCODING 249
SWIDTH 500 0
DWIDTH 5 0
BBX 5 7 0 0
BITMAP
60
30
00
D8
58
B0
F8
ENDCHAR

STARTCHAR uacute
ENCODING 250
SWIDTH 500 0
DWIDTH 5 0
BBX 5 7 0 0
BITMAP
18
30
00
D8
58
B0
F8
ENDCHAR

STARTCHAR ucircumflex
ENCODING 251
SWIDTH 500 0
DWIDTH 5 0
BBX 5 7 0 0
BITMAP
18
28
00
D8
58
B0
F8
ENDCHAR

STARTCHAR udieresis
ENCODING 252
SWIDTH 500 0
DWIDTH 5 0
BBX 5 6 0 0
BITMAP
28
00
D8
58
B0
F8
ENDCHAR

STARTCHAR yacute
ENCODING 253
SWIDTH 458 0
DWIDTH 5 0
BBX 6 10 -1 -3
BITMAP
0C
18
00
74
34
38
30
30
60
F0
ENDCHAR

STARTCHAR thorn
ENCODING 254
SWIDTH 490 0
DWIDTH 5 0
BBX 7 9 -2 -3
BITMAP
38
18
1C
36
36
3C
60
60
F0
ENDCHAR

STARTCHAR ydieresis
ENCODING 255
SWIDTH 458 0
DWIDTH 5 0
BBX 6 9 -1 -3
BITMAP
14
00
74
34
38
30
30
60
F0
ENDCHAR

ENDFONT
