STARTFONT 2.1
FONT -Monotype-Gill Sans-Regular-I-Normal--10-100-72-72-P-46-iso8859-1
SIZE 10 72 72
FONTBOUNDINGBOX 11 12 -2 -3

STARTPROPERTIES 22
FOUNDRY "Monotype"
FAMILY_NAME "Gill Sans"
WEIGHT_NAME "Regular"
SLANT "I"
SETWIDTH_NAME "Normal"
ADD_STYLE_NAME ""
PIXEL_SIZE 10
POINT_SIZE 100
RESOLUTION_X 72
RESOLUTION_Y 72
SPACING "P"
AVERAGE_WIDTH 46
CHARSET_REGISTRY "iso8859"
CHARSET_ENCODING "1"
COPYRIGHT "Copyright (c) 1996 Monotype Typography Ltd."
CAP_HEIGHT 8
X_HEIGHT 5
WEIGHT 10
QUAD_WIDTH 6
DEFAULT_CHAR 32
FONT_DESCENT 3
FONT_ASCENT 9
ENDPROPERTIES

CHARS 191

STARTCHAR space
ENCODING 32
SWIDTH 278 0
DWIDTH 3 0
BBX 0 0 0 0
BITMAP
ENDCHAR

STARTCHAR exclam
ENCODING 33
SWIDTH 250 0
DWIDTH 3 0
BBX 3 7 0 0
BITMAP
20
20
40
40
40
00
80
ENDCHAR

STARTCHAR quotedbl
ENCODING 34
SWIDTH 354 0
DWIDTH 4 0
BBX 3 2 1 5
BITMAP
A0
A0
ENDCHAR

STARTCHAR numbersign
ENCODING 35
SWIDTH 584 0
DWIDTH 6 0
BBX 6 7 0 0
BITMAP
28
28
FC
28
FC
50
50
ENDCHAR

STARTCHAR dollar
ENCODING 36
SWIDTH 500 0
DWIDTH 5 0
BBX 4 8 0 -1
BITMAP
20
60
90
40
20
90
60
40
ENDCHAR

STARTCHAR percent
ENCODING 37
SWIDTH 708 0
DWIDTH 7 0
BBX 6 7 1 0
BITMAP
44
A8
50
10
28
54
88
ENDCHAR

STARTCHAR ampersand
ENCODING 38
SWIDTH 688 0
DWIDTH 7 0
BBX 6 7 1 0
BITMAP
30
50
20
44
A8
90
6C
ENDCHAR

STARTCHAR quoteright
ENCODING 39
SWIDTH 198 0
DWIDTH 2 0
BBX 2 3 0 4
BITMAP
40
40
80
ENDCHAR

STARTCHAR parenleft
ENCODING 40
SWIDTH 292 0
DWIDTH 3 0
BBX 3 9 0 -2
BITMAP
20
40
40
80
80
80
80
40
40
ENDCHAR

STARTCHAR parenright
ENCODING 41
SWIDTH 292 0
DWIDTH 3 0
BBX 3 9 0 -2
BITMAP
40
40
20
20
20
20
40
40
80
ENDCHAR

STARTCHAR asterisk
ENCODING 42
SWIDTH 448 0
DWIDTH 4 0
BBX 3 4 1 3
BITMAP
40
E0
E0
40
ENDCHAR

STARTCHAR plus
ENCODING 43
SWIDTH 584 0
DWIDTH 6 0
BBX 5 5 1 1
BITMAP
20
20
F8
20
20
ENDCHAR

STARTCHAR comma
ENCODING 44
SWIDTH 198 0
DWIDTH 2 0
BBX 1 2 0 -1
BITMAP
80
80
ENDCHAR

STARTCHAR minus
ENCODING 45
SWIDTH 584 0
DWIDTH 6 0
BBX 4 1 1 3
BITMAP
F0
ENDCHAR

STARTCHAR period
ENCODING 46
SWIDTH 198 0
DWIDTH 2 0
BBX 1 1 0 0
BITMAP
80
ENDCHAR

STARTCHAR slash
ENCODING 47
SWIDTH 281 0
DWIDTH 3 0
BBX 3 7 0 0
BITMAP
20
20
40
40
40
80
80
ENDCHAR

STARTCHAR zero
ENCODING 48
SWIDTH 521 0
DWIDTH 5 0
BBX 5 7 0 0
BITMAP
30
48
48
88
90
90
60
ENDCHAR

STARTCHAR one
ENCODING 49
SWIDTH 521 0
DWIDTH 5 0
BBX 3 7 1 0
BITMAP
20
20
40
40
40
80
80
ENDCHAR

STARTCHAR two
ENCODING 50
SWIDTH 521 0
DWIDTH 5 0
BBX 5 7 0 0
BITMAP
30
48
10
20
40
80
E0
ENDCHAR

STARTCHAR three
ENCODING 51
SWIDTH 521 0
DWIDTH 5 0
BBX 5 7 0 0
BITMAP
30
08
08
30
10
10
E0
ENDCHAR

STARTCHAR four
ENCODING 52
SWIDTH 521 0
DWIDTH 5 0
BBX 5 7 0 0
BITMAP
08
10
30
50
F8
20
20
ENDCHAR

STARTCHAR five
ENCODING 53
SWIDTH 521 0
DWIDTH 5 0
BBX 5 7 0 0
BITMAP
38
20
40
70
10
10
E0
ENDCHAR

STARTCHAR six
ENCODING 54
SWIDTH 521 0
DWIDTH 5 0
BBX 4 7 0 0
BITMAP
10
20
40
60
90
90
60
ENDCHAR

STARTCHAR seven
ENCODING 55
SWIDTH 521 0
DWIDTH 5 0
BBX 4 7 1 0
BITMAP
F0
10
20
20
40
40
80
ENDCHAR

STARTCHAR eight
ENCODING 56
SWIDTH 521 0
DWIDTH 5 0
BBX 4 7 0 0
BITMAP
20
50
50
60
90
90
60
ENDCHAR

STARTCHAR nine
ENCODING 57
SWIDTH 521 0
DWIDTH 5 0
BBX 4 7 1 0
BITMAP
60
90
90
60
20
40
80
ENDCHAR

STARTCHAR colon
ENCODING 58
SWIDTH 198 0
DWIDTH 2 0
BBX 2 5 0 0
BITMAP
40
00
00
00
80
ENDCHAR

STARTCHAR semicolon
ENCODING 59
SWIDTH 198 0
DWIDTH 2 0
BBX 2 6 0 -1
BITMAP
40
00
00
00
80
80
ENDCHAR

STARTCHAR less
ENCODING 60
SWIDTH 584 0
DWIDTH 6 0
BBX 4 5 1 1
BITMAP
10
60
80
60
10
ENDCHAR

STARTCHAR equal
ENCODING 61
SWIDTH 584 0
DWIDTH 6 0
BBX 4 3 1 2
BITMAP
F0
00
F0
ENDCHAR

STARTCHAR greater
ENCODING 62
SWIDTH 584 0
DWIDTH 6 0
BBX 4 5 1 1
BITMAP
80
60
10
60
80
ENDCHAR

STARTCHAR question
ENCODING 63
SWIDTH 354 0
DWIDTH 4 0
BBX 3 7 1 0
BITMAP
40
A0
20
40
80
00
80
ENDCHAR

STARTCHAR at
ENCODING 64
SWIDTH 1010 0
DWIDTH 10 0
BBX 9 9 0 -2
BITMAP
1E00
2100
4E80
9280
A480
A500
9E00
4080
3F00
ENDCHAR

STARTCHAR A
ENCODING 65
SWIDTH 521 0
DWIDTH 5 0
BBX 4 7 0 0
BITMAP
10
10
30
50
70
90
90
ENDCHAR

STARTCHAR B
ENCODING 66
SWIDTH 510 0
DWIDTH 5 0
BBX 5 7 -1 0
BITMAP
30
28
48
70
48
88
F0
ENDCHAR

STARTCHAR C
ENCODING 67
SWIDTH 552 0
DWIDTH 6 0
BBX 6 7 0 0
BITMAP
3C
40
40
80
80
88
70
ENDCHAR

STARTCHAR D
ENCODING 68
SWIDTH 656 0
DWIDTH 7 0
BBX 6 7 0 0
BITMAP
38
24
44
44
44
88
F0
ENDCHAR

STARTCHAR E
ENCODING 69
SWIDTH 510 0
DWIDTH 5 0
BBX 6 7 0 0
BITMAP
3C
20
40
70
40
80
F8
ENDCHAR

STARTCHAR F
ENCODING 70
SWIDTH 417 0
DWIDTH 4 0
BBX 5 7 0 0
BITMAP
38
20
40
70
40
80
80
ENDCHAR

STARTCHAR G
ENCODING 71
SWIDTH 604 0
DWIDTH 6 0
BBX 6 7 0 0
BITMAP
3C
40
40
80
98
88
70
ENDCHAR

STARTCHAR H
ENCODING 72
SWIDTH 698 0
DWIDTH 7 0
BBX 7 7 0 0
BITMAP
22
22
44
7C
44
88
88
ENDCHAR

STARTCHAR I
ENCODING 73
SWIDTH 240 0
DWIDTH 2 0
BBX 3 7 -1 0
BITMAP
20
20
40
40
40
80
80
ENDCHAR

STARTCHAR J
ENCODING 74
SWIDTH 240 0
DWIDTH 2 0
BBX 5 9 -2 -2
BITMAP
08
08
10
10
10
20
20
20
C0
ENDCHAR

STARTCHAR K
ENCODING 75
SWIDTH 563 0
DWIDTH 6 0
BBX 6 7 0 0
BITMAP
24
28
50
60
50
88
84
ENDCHAR

STARTCHAR L
ENCODING 76
SWIDTH 417 0
DWIDTH 4 0
BBX 4 7 0 0
BITMAP
20
20
40
40
40
80
F0
ENDCHAR

STARTCHAR M
ENCODING 77
SWIDTH 813 0
DWIDTH 8 0
BBX 7 7 0 0
BITMAP
22
22
26
6A
5A
92
92
ENDCHAR

STARTCHAR N
ENCODING 78
SWIDTH 688 0
DWIDTH 7 0
BBX 7 7 0 0
BITMAP
22
22
54
54
48
88
88
ENDCHAR

STARTCHAR O
ENCODING 79
SWIDTH 656 0
DWIDTH 7 0
BBX 6 7 0 0
BITMAP
38
44
44
84
88
88
70
ENDCHAR

STARTCHAR P
ENCODING 80
SWIDTH 448 0
DWIDTH 4 0
BBX 5 7 0 0
BITMAP
30
28
48
70
40
80
80
ENDCHAR

STARTCHAR Q
ENCODING 81
SWIDTH 656 0
DWIDTH 7 0
BBX 6 9 0 -2
BITMAP
38
44
44
84
88
88
70
24
18
ENDCHAR

STARTCHAR R
ENCODING 82
SWIDTH 531 0
DWIDTH 5 0
BBX 6 7 -1 0
BITMAP
38
24
44
78
50
88
88
ENDCHAR

STARTCHAR S
ENCODING 83
SWIDTH 458 0
DWIDTH 5 0
BBX 5 7 0 0
BITMAP
30
48
40
20
10
90
60
ENDCHAR

STARTCHAR T
ENCODING 84
SWIDTH 510 0
DWIDTH 5 0
BBX 5 7 1 0
BITMAP
F8
20
40
40
40
80
80
ENDCHAR

STARTCHAR U
ENCODING 85
SWIDTH 635 0
DWIDTH 6 0
BBX 7 7 0 0
BITMAP
22
22
44
44
88
88
70
ENDCHAR

STARTCHAR V
ENCODING 86
SWIDTH 510 0
DWIDTH 5 0
BBX 4 7 1 0
BITMAP
90
90
A0
A0
C0
80
80
ENDCHAR

STARTCHAR W
ENCODING 87
SWIDTH 927 0
DWIDTH 9 0
BBX 7 7 2 0
BITMAP
92
92
B4
B4
D8
90
90
ENDCHAR

STARTCHAR X
ENCODING 88
SWIDTH 667 0
DWIDTH 7 0
BBX 7 7 0 0
BITMAP
42
24
28
10
28
48
84
ENDCHAR

STARTCHAR Y
ENCODING 89
SWIDTH 490 0
DWIDTH 5 0
BBX 5 7 1 0
BITMAP
88
90
A0
40
40
80
80
ENDCHAR

STARTCHAR Z
ENCODING 90
SWIDTH 583 0
DWIDTH 6 0
BBX 7 7 0 0
BITMAP
3E
04
08
10
20
40
F8
ENDCHAR

STARTCHAR bracketleft
ENCODING 91
SWIDTH 333 0
DWIDTH 3 0
BBX 4 9 0 -2
BITMAP
30
20
20
40
40
40
80
80
C0
ENDCHAR

STARTCHAR backslash
ENCODING 92
SWIDTH 281 0
DWIDTH 3 0
BBX 3 7 0 0
BITMAP
80
80
40
40
40
20
20
ENDCHAR

STARTCHAR bracketright
ENCODING 93
SWIDTH 333 0
DWIDTH 3 0
BBX 4 9 -1 -2
BITMAP
30
10
10
20
20
20
40
40
C0
ENDCHAR

STARTCHAR asciicircum
ENCODING 94
SWIDTH 469 0
DWIDTH 5 0
BBX 5 4 0 3
BITMAP
20
50
50
88
ENDCHAR

STARTCHAR underscore
ENCODING 95
SWIDTH 500 0
DWIDTH 5 0
BBX 5 1 -1 -2
BITMAP
F8
ENDCHAR

STARTCHAR quoteleft
ENCODING 96
SWIDTH 198 0
DWIDTH 2 0
BBX 2 3 1 5
BITMAP
40
80
80
ENDCHAR

STARTCHAR a
ENCODING 97
SWIDTH 469 0
DWIDTH 5 0
BBX 5 5 0 0
BITMAP
38
48
90
B0
50
ENDCHAR

STARTCHAR b
ENCODING 98
SWIDTH 469 0
DWIDTH 5 0
BBX 5 7 0 0
BITMAP
20
20
50
68
48
90
E0
ENDCHAR

STARTCHAR c
ENCODING 99
SWIDTH 385 0
DWIDTH 4 0
BBX 4 5 0 0
BITMAP
30
40
80
80
60
ENDCHAR

STARTCHAR d
ENCODING 100
SWIDTH 469 0
DWIDTH 5 0
BBX 5 7 0 0
BITMAP
08
08
30
50
90
A0
60
ENDCHAR

STARTCHAR e
ENCODING 101
SWIDTH 438 0
DWIDTH 4 0
BBX 4 5 0 0
BITMAP
20
50
E0
80
60
ENDCHAR

STARTCHAR f
ENCODING 102
SWIDTH 271 0
DWIDTH 3 0
BBX 5 10 -1 -3
BITMAP
18
20
70
20
20
40
40
40
80
80
ENDCHAR

STARTCHAR g
ENCODING 103
SWIDTH 427 0
DWIDTH 4 0
BBX 5 7 0 -2
BITMAP
38
50
60
40
60
90
60
ENDCHAR

STARTCHAR h
ENCODING 104
SWIDTH 469 0
DWIDTH 5 0
BBX 5 7 0 0
BITMAP
20
20
50
68
48
90
90
ENDCHAR

STARTCHAR i
ENCODING 105
SWIDTH 188 0
DWIDTH 2 0
BBX 3 7 0 0
BITMAP
20
00
40
40
40
80
80
ENDCHAR

STARTCHAR j
ENCODING 106
SWIDTH 188 0
DWIDTH 2 0
BBX 5 9 -2 -2
BITMAP
08
00
10
10
10
20
20
20
C0
ENDCHAR

STARTCHAR k
ENCODING 107
SWIDTH 458 0
DWIDTH 5 0
BBX 5 7 0 0
BITMAP
20
20
48
50
60
90
88
ENDCHAR

STARTCHAR l
ENCODING 108
SWIDTH 188 0
DWIDTH 2 0
BBX 3 7 0 0
BITMAP
20
20
40
40
40
80
80
ENDCHAR

STARTCHAR m
ENCODING 109
SWIDTH 740 0
DWIDTH 7 0
BBX 6 5 0 0
BITMAP
78
54
54
A8
A8
ENDCHAR

STARTCHAR n
ENCODING 110
SWIDTH 469 0
DWIDTH 5 0
BBX 5 5 0 0
BITMAP
50
68
48
90
90
ENDCHAR

STARTCHAR o
ENCODING 111
SWIDTH 448 0
DWIDTH 4 0
BBX 4 5 0 0
BITMAP
20
50
90
A0
40
ENDCHAR

STARTCHAR p
ENCODING 112
SWIDTH 490 0
DWIDTH 5 0
BBX 5 8 0 -2
BITMAP
20
30
48
48
50
60
80
80
ENDCHAR

STARTCHAR q
ENCODING 113
SWIDTH 469 0
DWIDTH 5 0
BBX 5 7 0 -2
BITMAP
38
48
90
B0
50
20
20
ENDCHAR

STARTCHAR r
ENCODING 114
SWIDTH 313 0
DWIDTH 3 0
BBX 4 5 0 0
BITMAP
50
60
40
80
80
ENDCHAR

STARTCHAR s
ENCODING 115
SWIDTH 354 0
DWIDTH 4 0
BBX 4 5 0 0
BITMAP
30
40
20
20
C0
ENDCHAR

STARTCHAR t
ENCODING 116
SWIDTH 281 0
DWIDTH 3 0
BBX 4 6 0 0
BITMAP
20
70
40
40
80
C0
ENDCHAR

STARTCHAR u
ENCODING 117
SWIDTH 469 0
DWIDTH 5 0
BBX 5 5 0 0
BITMAP
48
48
90
B0
50
ENDCHAR

STARTCHAR v
ENCODING 118
SWIDTH 375 0
DWIDTH 4 0
BBX 3 5 1 0
BITMAP
A0
A0
A0
C0
80
ENDCHAR

STARTCHAR w
ENCODING 119
SWIDTH 615 0
DWIDTH 6 0
BBX 5 5 1 0
BITMAP
A8
A8
A8
F0
A0
ENDCHAR

STARTCHAR x
ENCODING 120
SWIDTH 427 0
DWIDTH 4 0
BBX 5 5 0 0
BITMAP
48
30
20
60
90
ENDCHAR

STARTCHAR y
ENCODING 121
SWIDTH 375 0
DWIDTH 4 0
BBX 5 7 0 -2
BITMAP
48
50
50
60
40
80
80
ENDCHAR

STARTCHAR z
ENCODING 122
SWIDTH 458 0
DWIDTH 5 0
BBX 5 5 0 0
BITMAP
78
10
20
40
F0
ENDCHAR

STARTCHAR braceleft
ENCODING 123
SWIDTH 333 0
DWIDTH 3 0
BBX 3 9 0 -2
BITMAP
20
40
40
40
80
40
40
40
20
ENDCHAR

STARTCHAR bar
ENCODING 124
SWIDTH 260 0
DWIDTH 3 0
BBX 1 9 1 -2
BITMAP
80
80
80
80
80
80
80
80
80
ENDCHAR

STARTCHAR braceright
ENCODING 125
SWIDTH 333 0
DWIDTH 3 0
BBX 3 9 0 -2
BITMAP
80
40
40
40
20
40
40
40
80
ENDCHAR

STARTCHAR asciitilde
ENCODING 126
SWIDTH 584 0
DWIDTH 6 0
BBX 6 2 0 2
BITMAP
64
98
ENDCHAR

STARTCHAR space
ENCODING 160
SWIDTH 278 0
DWIDTH 3 0
BBX 0 0 0 0
BITMAP
ENDCHAR

STARTCHAR exclamdown
ENCODING 161
SWIDTH 250 0
DWIDTH 3 0
BBX 3 7 0 -2
BITMAP
20
00
40
40
80
80
80
ENDCHAR

STARTCHAR cent
ENCODING 162
SWIDTH 385 0
DWIDTH 4 0
BBX 4 7 0 -1
BITMAP
20
30
60
A0
C0
60
40
ENDCHAR

STARTCHAR sterling
ENCODING 163
SWIDTH 469 0
DWIDTH 5 0
BBX 5 7 0 0
BITMAP
18
20
20
F0
40
40
F8
ENDCHAR

STARTCHAR currency
ENCODING 164
SWIDTH 552 0
DWIDTH 6 0
BBX 4 4 1 1
BITMAP
F0
90
90
F0
ENDCHAR

STARTCHAR yen
ENCODING 165
SWIDTH 552 0
DWIDTH 6 0
BBX 6 7 0 0
BITMAP
44
48
30
F8
20
F8
20
ENDCHAR

STARTCHAR brokenbar
ENCODING 166
SWIDTH 260 0
DWIDTH 3 0
BBX 1 9 1 -2
BITMAP
80
80
80
80
00
80
80
80
80
ENDCHAR

STARTCHAR section
ENCODING 167
SWIDTH 490 0
DWIDTH 5 0
BBX 4 9 0 -2
BITMAP
20
50
40
A0
90
50
20
A0
40
ENDCHAR

STARTCHAR dieresis
ENCODING 168
SWIDTH 333 0
DWIDTH 3 0
BBX 3 1 1 5
BITMAP
A0
ENDCHAR

STARTCHAR copyright
ENCODING 169
SWIDTH 740 0
DWIDTH 7 0
BBX 7 7 0 0
BITMAP
38
44
9A
A2
9A
44
38
ENDCHAR

STARTCHAR ordfeminine
ENCODING 170
SWIDTH 313 0
DWIDTH 3 0
BBX 3 3 0 4
BITMAP
60
A0
E0
ENDCHAR

STARTCHAR guillemotleft
ENCODING 171
SWIDTH 438 0
DWIDTH 4 0
BBX 5 5 0 0
BITMAP
28
50
A0
A0
50
ENDCHAR

STARTCHAR logicalnot
ENCODING 172
SWIDTH 584 0
DWIDTH 6 0
BBX 5 3 0 1
BITMAP
F8
08
08
ENDCHAR

STARTCHAR hyphen
ENCODING 173
SWIDTH 250 0
DWIDTH 3 0
BBX 3 1 0 2
BITMAP
E0
ENDCHAR

STARTCHAR registered
ENCODING 174
SWIDTH 740 0
DWIDTH 7 0
BBX 7 7 0 0
BITMAP
38
44
BA
B2
AA
44
38
ENDCHAR

STARTCHAR macron
ENCODING 175
SWIDTH 333 0
DWIDTH 3 0
BBX 3 1 1 6
BITMAP
E0
ENDCHAR

STARTCHAR degree
ENCODING 176
SWIDTH 396 0
DWIDTH 4 0
BBX 3 3 1 4
BITMAP
40
A0
40
ENDCHAR

STARTCHAR plusminus
ENCODING 177
SWIDTH 584 0
DWIDTH 6 0
BBX 5 6 0 0
BITMAP
20
20
F8
20
20
F8
ENDCHAR

STARTCHAR twosuperior
ENCODING 178
SWIDTH 323 0
DWIDTH 3 0
BBX 3 4 0 3
BITMAP
60
20
40
E0
ENDCHAR

STARTCHAR threesuperior
ENCODING 179
SWIDTH 323 0
DWIDTH 3 0
BBX 3 4 0 3
BITMAP
60
60
20
C0
ENDCHAR

STARTCHAR acute
ENCODING 180
SWIDTH 333 0
DWIDTH 3 0
BBX 2 2 1 5
BITMAP
40
80
ENDCHAR

STARTCHAR mu
ENCODING 181
SWIDTH 552 0
DWIDTH 6 0
BBX 6 7 0 -2
BITMAP
24
24
48
58
68
80
80
ENDCHAR

STARTCHAR paragraph
ENCODING 182
SWIDTH 542 0
DWIDTH 5 0
BBX 6 9 0 -2
BITMAP
7C
E8
E8
68
28
28
28
28
28
ENDCHAR

STARTCHAR periodcentered
ENCODING 183
SWIDTH 260 0
DWIDTH 3 0
BBX 1 1 1 3
BITMAP
80
ENDCHAR

STARTCHAR cedilla
ENCODING 184
SWIDTH 333 0
DWIDTH 3 0
BBX 3 3 -1 -3
BITMAP
40
20
C0
ENDCHAR

STARTCHAR onesuperior
ENCODING 185
SWIDTH 323 0
DWIDTH 3 0
BBX 2 4 1 3
BITMAP
40
40
80
80
ENDCHAR

STARTCHAR ordmasculine
ENCODING 186
SWIDTH 302 0
DWIDTH 3 0
BBX 3 3 1 4
BITMAP
60
A0
C0
ENDCHAR

STARTCHAR guillemotright
ENCODING 187
SWIDTH 438 0
DWIDTH 4 0
BBX 5 6 -1 -1
BITMAP
50
50
28
28
50
A0
ENDCHAR

STARTCHAR onequarter
ENCODING 188
SWIDTH 844 0
DWIDTH 8 0
BBX 6 7 1 0
BITMAP
44
48
90
A4
28
5C
88
ENDCHAR

STARTCHAR onehalf
ENCODING 189
SWIDTH 844 0
DWIDTH 8 0
BBX 7 7 0 0
BITMAP
42
44
48
16
22
44
8E
ENDCHAR

STARTCHAR threequarters
ENCODING 190
SWIDTH 844 0
DWIDTH 8 0
BBX 8 7 0 0
BITMAP
62
62
24
C9
12
27
42
ENDCHAR

STARTCHAR questiondown
ENCODING 191
SWIDTH 354 0
DWIDTH 4 0
BBX 3 7 0 -2
BITMAP
20
00
20
40
80
A0
40
ENDCHAR

STARTCHAR Agrave
ENCODING 192
SWIDTH 521 0
DWIDTH 5 0
BBX 4 9 0 0
BITMAP
20
10
00
10
30
50
70
90
90
ENDCHAR

STARTCHAR Aacute
ENCODING 193
SWIDTH 521 0
DWIDTH 5 0
BBX 5 9 0 0
BITMAP
08
10
00
10
30
50
70
90
90
ENDCHAR

STARTCHAR Acircumflex
ENCODING 194
SWIDTH 521 0
DWIDTH 5 0
BBX 5 9 0 0
BITMAP
18
28
00
10
30
50
70
90
90
ENDCHAR

STARTCHAR Atilde
ENCODING 195
SWIDTH 521 0
DWIDTH 5 0
BBX 6 9 0 0
BITMAP
14
28
00
10
30
50
70
90
90
ENDCHAR

STARTCHAR Adieresis
ENCODING 196
SWIDTH 521 0
DWIDTH 5 0
BBX 5 8 0 0
BITMAP
28
00
10
30
50
70
90
90
ENDCHAR

STARTCHAR Aring
ENCODING 197
SWIDTH 521 0
DWIDTH 5 0
BBX 5 9 0 0
BITMAP
10
28
10
10
30
50
70
90
90
ENDCHAR

STARTCHAR AE
ENCODING 198
SWIDTH 833 0
DWIDTH 8 0
BBX 9 7 0 0
BITMAP
0F80
0A00
1400
3F00
2400
4800
8F00
ENDCHAR

STARTCHAR Ccedilla
ENCODING 199
SWIDTH 552 0
DWIDTH 6 0
BBX 6 10 0 -3
BITMAP
3C
40
80
80
80
88
70
20
10
60
ENDCHAR

STARTCHAR Egrave
ENCODING 200
SWIDTH 510 0
DWIDTH 5 0
BBX 5 9 0 0
BITMAP
10
08
00
38
20
70
40
80
F0
ENDCHAR

STARTCHAR Eacute
ENCODING 201
SWIDTH 510 0
DWIDTH 5 0
BBX 6 9 0 0
BITMAP
04
08
00
38
20
70
40
80
F0
ENDCHAR

STARTCHAR Ecircumflex
ENCODING 202
SWIDTH 510 0
DWIDTH 5 0
BBX 5 9 0 0
BITMAP
10
28
00
38
20
70
40
80
F0
ENDCHAR

STARTCHAR Edieresis
ENCODING 203
SWIDTH 510 0
DWIDTH 5 0
BBX 6 8 0 0
BITMAP
14
00
38
20
70
40
80
F0
ENDCHAR

STARTCHAR Igrave
ENCODING 204
SWIDTH 240 0
DWIDTH 2 0
BBX 4 9 -1 0
BITMAP
20
10
00
20
20
40
40
80
80
ENDCHAR

STARTCHAR Iacute
ENCODING 205
SWIDTH 240 0
DWIDTH 2 0
BBX 4 9 -1 0
BITMAP
10
20
00
20
20
40
40
80
80
ENDCHAR

STARTCHAR Icircumflex
ENCODING 206
SWIDTH 240 0
DWIDTH 2 0
BBX 5 9 -1 0
BITMAP
18
28
00
20
20
40
40
80
80
ENDCHAR

STARTCHAR Idieresis
ENCODING 207
SWIDTH 240 0
DWIDTH 2 0
BBX 5 8 -1 0
BITMAP
28
00
20
20
40
40
80
80
ENDCHAR

STARTCHAR Eth
ENCODING 208
SWIDTH 656 0
DWIDTH 7 0
BBX 6 7 0 0
BITMAP
38
24
44
F4
44
88
F0
ENDCHAR

STARTCHAR Ntilde
ENCODING 209
SWIDTH 688 0
DWIDTH 7 0
BBX 7 9 0 0
BITMAP
0A
14
00
22
22
54
54
88
88
ENDCHAR

STARTCHAR Ograve
ENCODING 210
SWIDTH 656 0
DWIDTH 7 0
BBX 6 9 0 0
BITMAP
10
08
00
38
44
44
88
88
70
ENDCHAR

STARTCHAR Oacute
ENCODING 211
SWIDTH 656 0
DWIDTH 7 0
BBX 6 9 0 0
BITMAP
04
08
00
38
44
44
88
88
70
ENDCHAR

STARTCHAR Ocircumflex
ENCODING 212
SWIDTH 656 0
DWIDTH 7 0
BBX 6 9 0 0
BITMAP
0C
14
00
38
44
44
88
88
70
ENDCHAR

STARTCHAR Otilde
ENCODING 213
SWIDTH 656 0
DWIDTH 7 0
BBX 7 9 0 0
BITMAP
0A
14
00
38
44
44
88
88
70
ENDCHAR

STARTCHAR Odieresis
ENCODING 214
SWIDTH 656 0
DWIDTH 7 0
BBX 6 8 0 0
BITMAP
14
00
38
44
44
88
88
70
ENDCHAR

STARTCHAR multiply
ENCODING 215
SWIDTH 584 0
DWIDTH 6 0
BBX 5 5 1 1
BITMAP
88
50
20
50
88
ENDCHAR

STARTCHAR Oslash
ENCODING 216
SWIDTH 656 0
DWIDTH 7 0
BBX 6 7 0 0
BITMAP
3C
4C
54
94
A8
C8
F0
ENDCHAR

STARTCHAR Ugrave
ENCODING 217
SWIDTH 635 0
DWIDTH 6 0
BBX 7 9 0 0
BITMAP
10
08
00
22
44
44
88
88
70
ENDCHAR

STARTCHAR Uacute
ENCODING 218
SWIDTH 635 0
DWIDTH 6 0
BBX 7 9 0 0
BITMAP
04
08
00
22
44
44
88
88
70
ENDCHAR

STARTCHAR Ucircumflex
ENCODING 219
SWIDTH 635 0
DWIDTH 6 0
BBX 7 9 0 0
BITMAP
0C
14
00
22
22
44
44
88
70
ENDCHAR

STARTCHAR Udieresis
ENCODING 220
SWIDTH 635 0
DWIDTH 6 0
BBX 7 8 0 0
BITMAP
14
00
22
44
44
88
88
70
ENDCHAR

STARTCHAR Yacute
ENCODING 221
SWIDTH 490 0
DWIDTH 5 0
BBX 5 9 1 0
BITMAP
10
20
88
90
A0
40
40
80
80
ENDCHAR

STARTCHAR Thorn
ENCODING 222
SWIDTH 448 0
DWIDTH 4 0
BBX 5 8 -1 -1
BITMAP
20
20
30
48
48
70
80
80
ENDCHAR

STARTCHAR germandbls
ENCODING 223
SWIDTH 500 0
DWIDTH 5 0
BBX 5 7 0 0
BITMAP
10
28
48
50
48
88
B0
ENDCHAR

STARTCHAR agrave
ENCODING 224
SWIDTH 469 0
DWIDTH 5 0
BBX 5 8 0 0
BITMAP
10
08
00
38
48
90
B0
50
ENDCHAR

STARTCHAR aacute
ENCODING 225
SWIDTH 469 0
DWIDTH 5 0
BBX 5 8 0 0
BITMAP
08
10
00
38
48
90
B0
50
ENDCHAR

STARTCHAR acircumflex
ENCODING 226
SWIDTH 469 0
DWIDTH 5 0
BBX 5 8 0 0
BITMAP
18
28
00
38
48
90
B0
50
ENDCHAR

STARTCHAR atilde
ENCODING 227
SWIDTH 469 0
DWIDTH 5 0
BBX 6 8 0 0
BITMAP
14
28
00
38
48
90
B0
50
ENDCHAR

STARTCHAR adieresis
ENCODING 228
SWIDTH 469 0
DWIDTH 5 0
BBX 6 7 0 0
BITMAP
14
00
38
48
90
B0
50
ENDCHAR

STARTCHAR aring
ENCODING 229
SWIDTH 469 0
DWIDTH 5 0
BBX 5 9 0 0
BITMAP
10
28
10
00
38
48
90
B0
50
ENDCHAR

STARTCHAR ae
ENCODING 230
SWIDTH 646 0
DWIDTH 6 0
BBX 7 5 0 0
BITMAP
64
1A
7C
B0
CC
ENDCHAR

STARTCHAR ccedilla
ENCODING 231
SWIDTH 385 0
DWIDTH 4 0
BBX 4 8 0 -3
BITMAP
30
40
80
80
60
40
20
C0
ENDCHAR

STARTCHAR egrave
ENCODING 232
SWIDTH 438 0
DWIDTH 4 0
BBX 4 8 0 0
BITMAP
20
10
00
20
50
E0
80
60
ENDCHAR

STARTCHAR eacute
ENCODING 233
SWIDTH 438 0
DWIDTH 4 0
BBX 4 8 0 0
BITMAP
10
20
00
20
50
E0
80
60
ENDCHAR

STARTCHAR ecircumflex
ENCODING 234
SWIDTH 438 0
DWIDTH 4 0
BBX 4 8 0 0
BITMAP
30
50
00
20
50
E0
80
60
ENDCHAR

STARTCHAR edieresis
ENCODING 235
SWIDTH 438 0
DWIDTH 4 0
BBX 4 7 0 0
BITMAP
50
00
20
50
E0
80
60
ENDCHAR

STARTCHAR igrave
ENCODING 236
SWIDTH 188 0
DWIDTH 2 0
BBX 2 8 0 0
BITMAP
80
40
00
40
40
40
80
80
ENDCHAR

STARTCHAR iacute
ENCODING 237
SWIDTH 188 0
DWIDTH 2 0
BBX 3 8 0 0
BITMAP
20
40
00
40
40
40
80
80
ENDCHAR

STARTCHAR icircumflex
ENCODING 238
SWIDTH 188 0
DWIDTH 2 0
BBX 4 8 0 0
BITMAP
30
50
00
40
40
40
80
80
ENDCHAR

STARTCHAR idieresis
ENCODING 239
SWIDTH 188 0
DWIDTH 2 0
BBX 4 7 0 0
BITMAP
50
00
40
40
40
80
80
ENDCHAR

STARTCHAR eth
ENCODING 240
SWIDTH 448 0
DWIDTH 4 0
BBX 4 7 0 0
BITMAP
50
20
30
50
90
A0
40
ENDCHAR

STARTCHAR ntilde
ENCODING 241
SWIDTH 469 0
DWIDTH 5 0
BBX 6 8 0 0
BITMAP
14
28
00
50
68
48
90
90
ENDCHAR

STARTCHAR ograve
ENCODING 242
SWIDTH 448 0
DWIDTH 4 0
BBX 4 8 0 0
BITMAP
40
20
00
20
50
90
A0
40
ENDCHAR

STARTCHAR oacute
ENCODING 243
SWIDTH 448 0
DWIDTH 4 0
BBX 4 8 0 0
BITMAP
10
20
00
20
50
90
A0
40
ENDCHAR

STARTCHAR ocircumflex
ENCODING 244
SWIDTH 448 0
DWIDTH 4 0
BBX 4 8 0 0
BITMAP
30
50
00
20
50
90
A0
40
ENDCHAR

STARTCHAR otilde
ENCODING 245
SWIDTH 448 0
DWIDTH 4 0
BBX 5 8 0 0
BITMAP
28
50
00
20
50
90
A0
40
ENDCHAR

STARTCHAR odieresis
ENCODING 246
SWIDTH 448 0
DWIDTH 4 0
BBX 5 7 0 0
BITMAP
28
00
20
50
90
A0
40
ENDCHAR

STARTCHAR divide
ENCODING 247
SWIDTH 584 0
DWIDTH 6 0
BBX 5 5 0 1
BITMAP
20
00
F8
00
20
ENDCHAR

STARTCHAR oslash
ENCODING 248
SWIDTH 448 0
DWIDTH 4 0
BBX 4 5 0 0
BITMAP
30
50
F0
A0
C0
ENDCHAR

STARTCHAR ugrave
ENCODING 249
SWIDTH 469 0
DWIDTH 5 0
BBX 5 8 0 0
BITMAP
20
10
00
48
48
90
B0
50
ENDCHAR

STARTCHAR uacute
ENCODING 250
SWIDTH 469 0
DWIDTH 5 0
BBX 5 8 0 0
BITMAP
08
10
00
48
48
90
B0
50
ENDCHAR

STARTCHAR ucircumflex
ENCODING 251
SWIDTH 469 0
DWIDTH 5 0
BBX 5 8 0 0
BITMAP
18
28
00
48
48
90
B0
50
ENDCHAR

STARTCHAR udieresis
ENCODING 252
SWIDTH 469 0
DWIDTH 5 0
BBX 5 7 0 0
BITMAP
28
00
48
48
90
B0
50
ENDCHAR

STARTCHAR yacute
ENCODING 253
SWIDTH 375 0
DWIDTH 4 0
BBX 5 10 -1 -2
BITMAP
08
10
00
48
50
50
60
40
80
80
ENDCHAR

STARTCHAR thorn
ENCODING 254
SWIDTH 490 0
DWIDTH 5 0
BBX 5 9 -1 -2
BITMAP
20
20
30
48
48
48
70
80
80
ENDCHAR

STARTCHAR ydieresis
ENCODING 255
SWIDTH 375 0
DWIDTH 4 0
BBX 5 9 -1 -2
BITMAP
28
00
48
50
50
60
40
80
80
ENDCHAR

ENDFONT
