STARTFONT 2.1
FONT -Monotype-Rockwell-Bold-R-Normal--18-180-72-72-P-94-iso8859-1
SIZE 18 72 72
FONTBOUNDINGBOX 20 22 -1 -4

STARTPROPERTIES 22
FOUNDRY "Monotype"
FAMILY_NAME "Rockwell"
WEIGHT_NAME "Bold"
SLANT "R"
SETWIDTH_NAME "Normal"
ADD_STYLE_NAME ""
PIXEL_SIZE 18
POINT_SIZE 180
RESOLUTION_X 72
RESOLUTION_Y 72
SPACING "P"
AVERAGE_WIDTH 94
CHARSET_REGISTRY "iso8859"
CHARSET_ENCODING "1"
COPYRIGHT "Copyright (c) 1996 Monotype Typography Ltd."
CAP_HEIGHT 14
X_HEIGHT 10
WEIGHT 10
QUAD_WIDTH 12
DEFAULT_CHAR 32
FONT_DESCENT 4
FONT_ASCENT 18
ENDPROPERTIES

CHARS 191

STARTCHAR space
ENCODING 32
SWIDTH 250 0
DWIDTH 6 0
BBX 0 0 0 0
BITMAP
ENDCHAR

STARTCHAR exclam
ENCODING 33
SWIDTH 354 0
DWIDTH 7 0
BBX 3 13 2 0
BITMAP
E0
E0
E0
E0
E0
E0
E0
40
40
00
E0
E0
E0
ENDCHAR

STARTCHAR quotedbl
ENCODING 34
SWIDTH 552 0
DWIDTH 10 0
BBX 6 6 2 7
BITMAP
CC
CC
CC
CC
CC
CC
ENDCHAR

STARTCHAR numbersign
ENCODING 35
SWIDTH 668 0
DWIDTH 13 0
BBX 11 14 1 0
BITMAP
18C0
18C0
18C0
18C0
FFE0
FFE0
3180
3180
3180
FFE0
FFE0
6300
6300
6300
ENDCHAR

STARTCHAR dollar
ENCODING 36
SWIDTH 563 0
DWIDTH 11 0
BBX 9 16 0 -2
BITMAP
0800
3E00
7F00
EB80
EB80
F800
7C00
3F00
0F80
0B80
EB80
EB80
7F00
3E00
0800
0800
ENDCHAR

STARTCHAR percent
ENCODING 37
SWIDTH 927 0
DWIDTH 18 0
BBX 16 13 1 0
BITMAP
780C
FC18
CC30
CC60
CCC0
FD80
799E
033F
0633
0C33
1833
303F
601E
ENDCHAR

STARTCHAR ampersand
ENCODING 38
SWIDTH 802 0
DWIDTH 15 0
BBX 14 13 1 0
BITMAP
1F80
3FC0
39C0
39C0
1F80
1F3C
3F3C
73B8
E1F0
E1E0
F3F0
7F7C
3E3C
ENDCHAR

STARTCHAR quoteright
ENCODING 39
SWIDTH 354 0
DWIDTH 7 0
BBX 3 6 2 7
BITMAP
E0
E0
E0
60
60
C0
ENDCHAR

STARTCHAR parenleft
ENCODING 40
SWIDTH 344 0
DWIDTH 7 0
BBX 5 17 1 -4
BITMAP
08
18
30
70
60
E0
E0
E0
E0
E0
E0
E0
60
70
30
18
08
ENDCHAR

STARTCHAR parenright
ENCODING 41
SWIDTH 344 0
DWIDTH 7 0
BBX 5 17 1 -4
BITMAP
80
C0
60
70
30
38
38
38
38
38
38
38
30
70
60
C0
80
ENDCHAR

STARTCHAR asterisk
ENCODING 42
SWIDTH 573 0
DWIDTH 11 0
BBX 9 9 1 4
BITMAP
1C00
1C00
CD80
FF80
7F00
1C00
3E00
7700
6300
ENDCHAR

STARTCHAR plus
ENCODING 43
SWIDTH 668 0
DWIDTH 13 0
BBX 10 10 1 1
BITMAP
0C00
0C00
0C00
0C00
FFC0
FFC0
0C00
0C00
0C00
0C00
ENDCHAR

STARTCHAR comma
ENCODING 44
SWIDTH 354 0
DWIDTH 7 0
BBX 3 6 2 -3
BITMAP
E0
E0
E0
60
60
C0
ENDCHAR

STARTCHAR minus
ENCODING 45
SWIDTH 668 0
DWIDTH 13 0
BBX 11 2 1 5
BITMAP
FFE0
FFE0
ENDCHAR

STARTCHAR period
ENCODING 46
SWIDTH 354 0
DWIDTH 7 0
BBX 3 3 2 0
BITMAP
E0
E0
E0
ENDCHAR

STARTCHAR slash
ENCODING 47
SWIDTH 508 0
DWIDTH 10 0
BBX 10 13 0 0
BITMAP
01C0
0380
0300
0700
0600
0E00
0C00
1C00
1800
3800
3000
7000
E000
ENDCHAR

STARTCHAR zero
ENCODING 48
SWIDTH 552 0
DWIDTH 10 0
BBX 8 13 1 0
BITMAP
3C
7E
66
E7
E7
E7
E7
E7
E7
E7
66
7E
3C
ENDCHAR

STARTCHAR one
ENCODING 49
SWIDTH 552 0
DWIDTH 10 0
BBX 5 13 2 0
BITMAP
F0
F0
70
70
70
70
70
70
70
70
70
F8
F8
ENDCHAR

STARTCHAR two
ENCODING 50
SWIDTH 552 0
DWIDTH 10 0
BBX 8 13 1 0
BITMAP
3C
7E
E7
C7
C7
0E
1C
38
38
73
E3
FF
FF
ENDCHAR

STARTCHAR three
ENCODING 51
SWIDTH 552 0
DWIDTH 10 0
BBX 9 13 0 0
BITMAP
3F00
7F80
7380
0380
0700
1E00
1F00
0780
0380
E380
E780
7F00
3E00
ENDCHAR

STARTCHAR four
ENCODING 52
SWIDTH 552 0
DWIDTH 10 0
BBX 9 13 0 0
BITMAP
0700
0700
0F00
1F00
3F00
3700
6700
C700
FF80
FF80
0700
0F80
0F80
ENDCHAR

STARTCHAR five
ENCODING 53
SWIDTH 552 0
DWIDTH 10 0
BBX 9 13 0 0
BITMAP
7F80
7F80
7380
7000
7E00
7F00
6780
0380
0380
E380
E780
7F00
3E00
ENDCHAR

STARTCHAR six
ENCODING 54
SWIDTH 552 0
DWIDTH 10 0
BBX 8 13 1 0
BITMAP
3E
7F
73
E0
E0
EE
FF
F7
E7
E7
77
7E
3C
ENDCHAR

STARTCHAR seven
ENCODING 55
SWIDTH 552 0
DWIDTH 10 0
BBX 8 13 1 0
BITMAP
FF
FF
C7
CE
0E
1C
1C
1C
38
38
38
7C
7C
ENDCHAR

STARTCHAR eight
ENCODING 56
SWIDTH 552 0
DWIDTH 10 0
BBX 8 13 1 0
BITMAP
3C
7E
E7
E7
E7
7E
7E
E7
E7
E7
E7
7E
3C
ENDCHAR

STARTCHAR nine
ENCODING 57
SWIDTH 552 0
DWIDTH 10 0
BBX 8 13 1 0
BITMAP
3C
7E
EE
E7
E7
EF
FF
77
07
07
CE
FE
7C
ENDCHAR

STARTCHAR colon
ENCODING 58
SWIDTH 354 0
DWIDTH 7 0
BBX 3 9 2 0
BITMAP
E0
E0
E0
00
00
00
E0
E0
E0
ENDCHAR

STARTCHAR semicolon
ENCODING 59
SWIDTH 354 0
DWIDTH 7 0
BBX 3 12 2 -3
BITMAP
E0
E0
E0
00
00
00
E0
E0
E0
60
60
C0
ENDCHAR

STARTCHAR less
ENCODING 60
SWIDTH 667 0
DWIDTH 13 0
BBX 11 10 1 1
BITMAP
00E0
03C0
0F00
3C00
F000
F000
3C00
0F00
03C0
00E0
ENDCHAR

STARTCHAR equal
ENCODING 61
SWIDTH 667 0
DWIDTH 13 0
BBX 11 6 1 3
BITMAP
FFE0
FFE0
0000
0000
FFE0
FFE0
ENDCHAR

STARTCHAR greater
ENCODING 62
SWIDTH 667 0
DWIDTH 13 0
BBX 11 10 1 1
BITMAP
E000
7800
1E00
0780
01E0
01E0
0780
1E00
7800
E000
ENDCHAR

STARTCHAR question
ENCODING 63
SWIDTH 563 0
DWIDTH 11 0
BBX 9 13 1 0
BITMAP
7E00
FF00
C780
C380
0380
1F80
1F00
1800
1000
0000
3800
3800
3800
ENDCHAR

STARTCHAR at
ENCODING 64
SWIDTH 979 0
DWIDTH 19 0
BBX 18 18 0 -4
BITMAP
03FC00
0E0600
180100
300180
21DC80
63FCC0
471840
CE3840
8C3840
9C3040
9C7080
9C7080
CFF300
47BE00
6000C0
380380
0E0E00
03F800
ENDCHAR

STARTCHAR A
ENCODING 65
SWIDTH 698 0
DWIDTH 13 0
BBX 13 13 0 0
BITMAP
1FC0
1FC0
0F80
0D80
1DC0
18C0
38E0
3FE0
3FE0
7070
7070
F8F8
F8F8
ENDCHAR

STARTCHAR B
ENCODING 66
SWIDTH 698 0
DWIDTH 13 0
BBX 11 13 1 0
BITMAP
FF80
FFC0
70E0
70E0
71C0
7F80
7FC0
71E0
70E0
70E0
71E0
FFC0
FF00
ENDCHAR

STARTCHAR C
ENCODING 67
SWIDTH 781 0
DWIDTH 15 0
BBX 13 13 1 0
BITMAP
0FB8
3FF8
7CF8
7038
F038
E000
E000
E000
F038
7038
7CF8
3FF0
0FC0
ENDCHAR

STARTCHAR D
ENCODING 68
SWIDTH 802 0
DWIDTH 15 0
BBX 13 13 1 0
BITMAP
FF80
FFE0
70F0
7070
7078
7038
7038
7038
7078
7070
70F0
FFE0
FF80
ENDCHAR

STARTCHAR E
ENCODING 69
SWIDTH 667 0
DWIDTH 13 0
BBX 11 13 1 0
BITMAP
FFE0
FFE0
70E0
70E0
7000
7F00
7F00
7000
7000
70E0
70E0
FFE0
FFE0
ENDCHAR

STARTCHAR F
ENCODING 70
SWIDTH 646 0
DWIDTH 12 0
BBX 10 13 1 0
BITMAP
FFC0
FFC0
71C0
71C0
7000
7E00
7E00
7000
7000
7000
7000
F800
F800
ENDCHAR

STARTCHAR G
ENCODING 71
SWIDTH 844 0
DWIDTH 16 0
BBX 14 13 1 0
BITMAP
0FD8
3FF8
7CF8
7038
F038
E000
E000
E0FC
F0FC
7038
7CF8
3FF0
0FC0
ENDCHAR

STARTCHAR H
ENCODING 72
SWIDTH 760 0
DWIDTH 14 0
BBX 12 13 1 0
BITMAP
F9F0
F9F0
70E0
70E0
70E0
7FE0
7FE0
70E0
70E0
70E0
70E0
F9F0
F9F0
ENDCHAR

STARTCHAR I
ENCODING 73
SWIDTH 427 0
DWIDTH 8 0
BBX 5 13 1 0
BITMAP
F8
F8
70
70
70
70
70
70
70
70
70
F8
F8
ENDCHAR

STARTCHAR J
ENCODING 74
SWIDTH 406 0
DWIDTH 8 0
BBX 6 17 0 -4
BITMAP
7C
7C
38
38
38
38
38
38
38
38
38
38
38
38
F8
F0
E0
ENDCHAR

STARTCHAR K
ENCODING 75
SWIDTH 781 0
DWIDTH 15 0
BBX 14 13 1 0
BITMAP
F9F8
F9F8
70E0
71C0
7380
7F00
7F00
7780
73C0
71E0
70F0
F9FC
F9FC
ENDCHAR

STARTCHAR L
ENCODING 76
SWIDTH 646 0
DWIDTH 12 0
BBX 10 13 1 0
BITMAP
F800
F800
7000
7000
7000
7000
7000
71C0
71C0
71C0
71C0
FFC0
FFC0
ENDCHAR

STARTCHAR M
ENCODING 77
SWIDTH 1042 0
DWIDTH 20 0
BBX 17 13 1 0
BITMAP
FC1F80
FC1F80
7E3F00
763700
763700
777700
736700
73E700
73E700
71C700
71C700
F88F80
F88F80
ENDCHAR

STARTCHAR N
ENCODING 78
SWIDTH 792 0
DWIDTH 15 0
BBX 13 13 1 0
BITMAP
F8F8
FCF8
7C70
7E70
7670
7770
7770
73F0
73F0
71F0
70F0
F8F0
F870
ENDCHAR

STARTCHAR O
ENCODING 79
SWIDTH 854 0
DWIDTH 16 0
BBX 14 13 1 0
BITMAP
0FC0
3FF0
7CF8
7038
F03C
E01C
E01C
E01C
F03C
7038
7CF8
3FF0
0FC0
ENDCHAR

STARTCHAR P
ENCODING 80
SWIDTH 667 0
DWIDTH 13 0
BBX 11 13 1 0
BITMAP
FF80
FFC0
71E0
70E0
70E0
71E0
7FC0
7F80
7000
7000
7000
F800
F800
ENDCHAR

STARTCHAR Q
ENCODING 81
SWIDTH 854 0
DWIDTH 16 0
BBX 14 16 1 -3
BITMAP
0FC0
3FF0
7CF8
7038
F03C
E01C
E01C
E01C
F03C
7038
7CF8
3FF0
0FC0
0F00
1FF0
11E0
ENDCHAR

STARTCHAR R
ENCODING 82
SWIDTH 729 0
DWIDTH 14 0
BBX 13 13 1 0
BITMAP
FF80
FFC0
71E0
70E0
71E0
7FC0
7F80
7380
71C0
71C0
70E0
F8F8
F878
ENDCHAR

STARTCHAR S
ENCODING 83
SWIDTH 531 0
DWIDTH 10 0
BBX 8 13 1 0
BITMAP
3B
7F
E7
E3
F0
7C
3E
0F
C7
C7
E7
FE
DC
ENDCHAR

STARTCHAR T
ENCODING 84
SWIDTH 677 0
DWIDTH 13 0
BBX 11 13 1 0
BITMAP
FFE0
FFE0
CE60
CE60
CE60
0E00
0E00
0E00
0E00
0E00
0E00
1F00
1F00
ENDCHAR

STARTCHAR U
ENCODING 85
SWIDTH 677 0
DWIDTH 13 0
BBX 11 13 1 0
BITMAP
FBE0
FBE0
71C0
71C0
71C0
71C0
71C0
71C0
71C0
71C0
7BC0
3F80
1F00
ENDCHAR

STARTCHAR V
ENCODING 86
SWIDTH 698 0
DWIDTH 13 0
BBX 13 13 0 0
BITMAP
FDF8
FDF8
38E0
38E0
38E0
1DC0
1DC0
1DC0
0D80
0F80
0F80
0700
0700
ENDCHAR

STARTCHAR W
ENCODING 87
SWIDTH 990 0
DWIDTH 19 0
BBX 19 13 0 0
BITMAP
FDF7E0
FDF7E0
38E380
38E380
38E380
1DF700
1DF700
1DB700
0DB600
0FBE00
0F1E00
071C00
071C00
ENDCHAR

STARTCHAR X
ENCODING 88
SWIDTH 740 0
DWIDTH 14 0
BBX 14 13 0 0
BITMAP
FCFC
FCFC
3870
1CE0
0FC0
0780
0300
0780
0FC0
1CE0
3870
FDFC
FDFC
ENDCHAR

STARTCHAR Y
ENCODING 89
SWIDTH 698 0
DWIDTH 13 0
BBX 13 13 0 0
BITMAP
F8F8
F8F8
7070
38E0
1DC0
0F80
0700
0700
0700
0700
0700
0F80
0F80
ENDCHAR

STARTCHAR Z
ENCODING 90
SWIDTH 646 0
DWIDTH 12 0
BBX 10 13 1 0
BITMAP
FFC0
FFC0
C1C0
C380
0700
0E00
1C00
1C00
38C0
70C0
E0C0
FFC0
FFC0
ENDCHAR

STARTCHAR bracketleft
ENCODING 91
SWIDTH 417 0
DWIDTH 8 0
BBX 5 17 2 -4
BITMAP
F8
F8
E0
E0
E0
E0
E0
E0
E0
E0
E0
E0
E0
E0
E0
F8
F8
ENDCHAR

STARTCHAR backslash
ENCODING 92
SWIDTH 508 0
DWIDTH 10 0
BBX 9 13 0 0
BITMAP
E000
6000
7000
3000
3800
1800
1C00
0C00
0E00
0600
0700
0300
0380
ENDCHAR

STARTCHAR bracketright
ENCODING 93
SWIDTH 417 0
DWIDTH 8 0
BBX 5 17 1 -4
BITMAP
F8
F8
38
38
38
38
38
38
38
38
38
38
38
38
38
F8
F8
ENDCHAR

STARTCHAR asciicircum
ENCODING 94
SWIDTH 583 0
DWIDTH 11 0
BBX 9 8 1 5
BITMAP
0800
1C00
1C00
3E00
3600
7700
6300
E380
ENDCHAR

STARTCHAR underscore
ENCODING 95
SWIDTH 500 0
DWIDTH 10 0
BBX 10 2 0 -3
BITMAP
FFC0
FFC0
ENDCHAR

STARTCHAR quoteleft
ENCODING 96
SWIDTH 354 0
DWIDTH 7 0
BBX 3 6 2 7
BITMAP
60
C0
C0
E0
E0
E0
ENDCHAR

STARTCHAR a
ENCODING 97
SWIDTH 583 0
DWIDTH 11 0
BBX 9 9 1 0
BITMAP
7C00
FE00
0700
3F00
7F00
E700
E700
FF80
7B80
ENDCHAR

STARTCHAR b
ENCODING 98
SWIDTH 625 0
DWIDTH 12 0
BBX 10 13 1 0
BITMAP
F000
F000
7000
7000
7700
7F80
79C0
71C0
71C0
71C0
79C0
FFC0
EF00
ENDCHAR

STARTCHAR c
ENCODING 99
SWIDTH 563 0
DWIDTH 11 0
BBX 9 9 1 0
BITMAP
3F80
7F80
E380
E380
E000
E000
E380
7F80
3F00
ENDCHAR

STARTCHAR d
ENCODING 100
SWIDTH 625 0
DWIDTH 12 0
BBX 10 13 1 0
BITMAP
0780
0780
0380
0380
3B80
7F80
E780
E380
E380
E380
E780
7FC0
3BC0
ENDCHAR

STARTCHAR e
ENCODING 101
SWIDTH 573 0
DWIDTH 11 0
BBX 9 9 1 0
BITMAP
3E00
7F00
E380
FF80
FF80
E000
E380
7F80
3E00
ENDCHAR

STARTCHAR f
ENCODING 102
SWIDTH 354 0
DWIDTH 7 0
BBX 7 13 1 0
BITMAP
1C
3E
76
70
F8
F8
70
70
70
70
70
F8
F8
ENDCHAR

STARTCHAR g
ENCODING 103
SWIDTH 625 0
DWIDTH 12 0
BBX 10 13 1 -4
BITMAP
3DC0
7FC0
E780
E380
E380
E380
E780
7F80
3B80
0380
6780
7F00
3E00
ENDCHAR

STARTCHAR h
ENCODING 104
SWIDTH 625 0
DWIDTH 12 0
BBX 10 13 1 0
BITMAP
F000
F000
7000
7000
7700
7F80
7B80
7380
7380
7380
7380
FBC0
FBC0
ENDCHAR

STARTCHAR i
ENCODING 105
SWIDTH 354 0
DWIDTH 7 0
BBX 5 13 1 0
BITMAP
70
70
70
00
F0
F0
70
70
70
70
70
F8
F8
ENDCHAR

STARTCHAR j
ENCODING 106
SWIDTH 354 0
DWIDTH 7 0
BBX 5 17 0 -4
BITMAP
38
38
38
00
78
78
38
38
38
38
38
38
38
38
38
F8
F0
ENDCHAR

STARTCHAR k
ENCODING 107
SWIDTH 646 0
DWIDTH 12 0
BBX 11 13 1 0
BITMAP
F000
F000
7000
7000
77E0
77E0
7380
7700
7E00
7700
7380
F9E0
F8E0
ENDCHAR

STARTCHAR l
ENCODING 108
SWIDTH 354 0
DWIDTH 7 0
BBX 5 13 1 0
BITMAP
F0
F0
70
70
70
70
70
70
70
70
70
F8
F8
ENDCHAR

STARTCHAR m
ENCODING 109
SWIDTH 990 0
DWIDTH 19 0
BBX 17 9 1 0
BITMAP
F7BE00
FFFF00
79E700
71C700
71C700
71C700
71C700
F9E780
F9E780
ENDCHAR

STARTCHAR n
ENCODING 110
SWIDTH 625 0
DWIDTH 12 0
BBX 10 9 1 0
BITMAP
F700
FF80
7B80
7380
7380
7380
7380
FBC0
FBC0
ENDCHAR

STARTCHAR o
ENCODING 111
SWIDTH 573 0
DWIDTH 11 0
BBX 9 9 1 0
BITMAP
3E00
7F00
E380
E380
E380
E380
E380
7F00
3E00
ENDCHAR

STARTCHAR p
ENCODING 112
SWIDTH 625 0
DWIDTH 12 0
BBX 10 13 1 -4
BITMAP
F700
FF80
79C0
71C0
71C0
71C0
79C0
7F80
7700
7000
7000
F800
F800
ENDCHAR

STARTCHAR q
ENCODING 113
SWIDTH 625 0
DWIDTH 12 0
BBX 10 13 1 -4
BITMAP
3DC0
7FC0
E780
E380
E380
E380
E780
7F80
3B80
0380
0380
07C0
07C0
ENDCHAR

STARTCHAR r
ENCODING 114
SWIDTH 448 0
DWIDTH 9 0
BBX 8 9 1 0
BITMAP
F7
F7
7C
78
70
70
70
F8
F8
ENDCHAR

STARTCHAR s
ENCODING 115
SWIDTH 510 0
DWIDTH 10 0
BBX 7 9 1 0
BITMAP
7E
FE
E6
F0
7C
1E
CE
FE
FC
ENDCHAR

STARTCHAR t
ENCODING 116
SWIDTH 344 0
DWIDTH 7 0
BBX 6 13 0 0
BITMAP
10
30
70
70
FC
FC
70
70
70
70
70
7C
3C
ENDCHAR

STARTCHAR u
ENCODING 117
SWIDTH 625 0
DWIDTH 12 0
BBX 10 9 1 0
BITMAP
F780
F780
7380
7380
7380
7380
7780
7FC0
3BC0
ENDCHAR

STARTCHAR v
ENCODING 118
SWIDTH 573 0
DWIDTH 11 0
BBX 11 9 0 0
BITMAP
FBE0
FBE0
71C0
3B80
3B80
1B00
1F00
0E00
0E00
ENDCHAR

STARTCHAR w
ENCODING 119
SWIDTH 813 0
DWIDTH 15 0
BBX 17 9 -1 0
BITMAP
FDCF80
FDCF80
71C700
3BEE00
3B6E00
1B6C00
1F7C00
0E3800
0E3800
ENDCHAR

STARTCHAR x
ENCODING 120
SWIDTH 563 0
DWIDTH 11 0
BBX 11 9 0 0
BITMAP
F1E0
F1E0
3B80
1F00
0E00
1F00
3B80
F1E0
F1E0
ENDCHAR

STARTCHAR y
ENCODING 121
SWIDTH 594 0
DWIDTH 11 0
BBX 11 13 0 -4
BITMAP
FBE0
FBE0
71C0
3B80
3B80
1B00
1F00
0E00
0E00
0C00
1C00
7800
7800
ENDCHAR

STARTCHAR z
ENCODING 122
SWIDTH 531 0
DWIDTH 10 0
BBX 8 9 1 0
BITMAP
FF
FF
CE
1C
38
70
E3
FF
FF
ENDCHAR

STARTCHAR braceleft
ENCODING 123
SWIDTH 385 0
DWIDTH 7 0
BBX 6 17 0 -4
BITMAP
1C
3C
30
30
30
30
30
60
C0
60
30
30
30
30
30
3C
1C
ENDCHAR

STARTCHAR bar
ENCODING 124
SWIDTH 611 0
DWIDTH 12 0
BBX 2 17 4 -4
BITMAP
C0
C0
C0
C0
C0
C0
C0
C0
C0
C0
C0
C0
C0
C0
C0
C0
C0
ENDCHAR

STARTCHAR braceright
ENCODING 125
SWIDTH 385 0
DWIDTH 7 0
BBX 6 17 0 -4
BITMAP
E0
F0
30
30
30
30
30
18
0C
18
30
30
30
30
30
F0
E0
ENDCHAR

STARTCHAR asciitilde
ENCODING 126
SWIDTH 583 0
DWIDTH 11 0
BBX 10 3 0 5
BITMAP
7840
FFC0
8780
ENDCHAR

STARTCHAR space
ENCODING 160
SWIDTH 250 0
DWIDTH 5 0
BBX 0 0 0 0
BITMAP
ENDCHAR

STARTCHAR exclamdown
ENCODING 161
SWIDTH 354 0
DWIDTH 7 0
BBX 3 13 2 -4
BITMAP
E0
E0
E0
00
40
40
E0
E0
E0
E0
E0
E0
E0
ENDCHAR

STARTCHAR cent
ENCODING 162
SWIDTH 563 0
DWIDTH 11 0
BBX 9 17 1 -4
BITMAP
0100
0200
0200
0200
3F80
7F80
F780
E580
E400
E800
EB80
7F80
3F00
1000
1000
2000
2000
ENDCHAR

STARTCHAR sterling
ENCODING 163
SWIDTH 573 0
DWIDTH 11 0
BBX 10 13 0 0
BITMAP
1E00
3F00
7300
7000
7000
3800
FE00
FE00
1800
7800
DCC0
FFC0
7780
ENDCHAR

STARTCHAR currency
ENCODING 164
SWIDTH 667 0
DWIDTH 13 0
BBX 9 9 1 2
BITMAP
DD80
FF80
6300
C180
C180
C180
6300
FF80
DD80
ENDCHAR

STARTCHAR yen
ENCODING 165
SWIDTH 698 0
DWIDTH 13 0
BBX 13 13 0 0
BITMAP
F8F8
F8F8
7070
38E0
FFF8
FFF8
0700
FFF8
FFF8
0700
0700
0F80
0F80
ENDCHAR

STARTCHAR brokenbar
ENCODING 166
SWIDTH 611 0
DWIDTH 12 0
BBX 2 17 4 -4
BITMAP
C0
C0
C0
C0
C0
C0
C0
C0
00
00
C0
C0
C0
C0
C0
C0
C0
ENDCHAR

STARTCHAR section
ENCODING 167
SWIDTH 521 0
DWIDTH 10 0
BBX 8 17 1 -4
BITMAP
3E
7F
E7
E0
F0
7C
7E
EF
E7
F7
7E
3E
0F
07
E7
FE
7C
ENDCHAR

STARTCHAR dieresis
ENCODING 168
SWIDTH 333 0
DWIDTH 6 0
BBX 6 2 0 11
BITMAP
CC
CC
ENDCHAR

STARTCHAR copyright
ENCODING 169
SWIDTH 740 0
DWIDTH 14 0
BBX 13 14 0 0
BITMAP
0F80
38E0
6030
4790
CFD8
98C8
9808
9808
98C8
CFD8
4790
6030
38E0
0F80
ENDCHAR

STARTCHAR ordfeminine
ENCODING 170
SWIDTH 396 0
DWIDTH 8 0
BBX 6 6 1 7
BITMAP
F0
18
78
D8
DC
7C
ENDCHAR

STARTCHAR guillemotleft
ENCODING 171
SWIDTH 542 0
DWIDTH 10 0
BBX 10 9 0 0
BITMAP
0CC0
1980
3300
6600
CC00
6600
3300
1980
0CC0
ENDCHAR

STARTCHAR logicalnot
ENCODING 172
SWIDTH 668 0
DWIDTH 13 0
BBX 10 7 1 3
BITMAP
FFC0
FFC0
00C0
00C0
00C0
00C0
00C0
ENDCHAR

STARTCHAR hyphen
ENCODING 173
SWIDTH 344 0
DWIDTH 7 0
BBX 5 2 1 3
BITMAP
F8
F8
ENDCHAR

STARTCHAR registered
ENCODING 174
SWIDTH 740 0
DWIDTH 14 0
BBX 13 14 0 0
BITMAP
0F80
38E0
6030
7F90
DFD8
98C8
98C8
9F88
9F88
D8D8
78D0
6030
38E0
0F80
ENDCHAR

STARTCHAR macron
ENCODING 175
SWIDTH 333 0
DWIDTH 6 0
BBX 6 2 0 10
BITMAP
FC
FC
ENDCHAR

STARTCHAR degree
ENCODING 176
SWIDTH 396 0
DWIDTH 8 0
BBX 6 7 1 6
BITMAP
78
FC
CC
CC
CC
FC
78
ENDCHAR

STARTCHAR plusminus
ENCODING 177
SWIDTH 668 0
DWIDTH 13 0
BBX 10 13 1 0
BITMAP
0C00
0C00
0C00
0C00
FFC0
FFC0
0C00
0C00
0C00
0C00
0000
FFC0
FFC0
ENDCHAR

STARTCHAR twosuperior
ENCODING 178
SWIDTH 333 0
DWIDTH 6 0
BBX 5 7 1 6
BITMAP
70
D8
D8
30
60
D8
F8
ENDCHAR

STARTCHAR threesuperior
ENCODING 179
SWIDTH 333 0
DWIDTH 6 0
BBX 5 7 1 6
BITMAP
70
D8
18
30
18
D8
F0
ENDCHAR

STARTCHAR acute
ENCODING 180
SWIDTH 333 0
DWIDTH 6 0
BBX 5 3 1 10
BITMAP
38
70
C0
ENDCHAR

STARTCHAR mu
ENCODING 181
SWIDTH 615 0
DWIDTH 12 0
BBX 10 13 1 -4
BITMAP
E1C0
E1C0
E1C0
E1C0
E1C0
E1C0
E1C0
FFC0
FDC0
E000
E000
E000
E000
ENDCHAR

STARTCHAR paragraph
ENCODING 182
SWIDTH 552 0
DWIDTH 10 0
BBX 10 17 0 -4
BITMAP
3FC0
7FC0
FB80
FB80
FB80
FB80
FB80
7B80
3B80
3B80
3B80
3B80
3B80
3B80
3B80
3B80
3B80
ENDCHAR

STARTCHAR periodcentered
ENCODING 183
SWIDTH 365 0
DWIDTH 7 0
BBX 3 3 2 6
BITMAP
E0
E0
E0
ENDCHAR

STARTCHAR cedilla
ENCODING 184
SWIDTH 333 0
DWIDTH 6 0
BBX 5 4 0 -4
BITMAP
60
78
38
F0
ENDCHAR

STARTCHAR onesuperior
ENCODING 185
SWIDTH 333 0
DWIDTH 6 0
BBX 4 7 1 6
BITMAP
E0
60
60
60
60
60
F0
ENDCHAR

STARTCHAR ordmasculine
ENCODING 186
SWIDTH 375 0
DWIDTH 7 0
BBX 5 7 1 6
BITMAP
70
F8
D8
D8
D8
F8
70
ENDCHAR

STARTCHAR guillemotright
ENCODING 187
SWIDTH 542 0
DWIDTH 10 0
BBX 10 9 0 0
BITMAP
CC00
6600
3300
1980
0CC0
1980
3300
6600
CC00
ENDCHAR

STARTCHAR onequarter
ENCODING 188
SWIDTH 927 0
DWIDTH 18 0
BBX 15 13 2 0
BITMAP
E018
6030
6060
60C0
6180
6180
F30C
061C
063C
0C6C
187E
300C
601E
ENDCHAR

STARTCHAR onehalf
ENCODING 189
SWIDTH 927 0
DWIDTH 18 0
BBX 14 13 2 0
BITMAP
E030
6060
6060
60C0
6180
6300
F300
0638
0C6C
0C1C
1830
306C
607C
ENDCHAR

STARTCHAR threequarters
ENCODING 190
SWIDTH 927 0
DWIDTH 18 0
BBX 16 13 1 0
BITMAP
700C
D818
1830
3060
1860
D8C0
F186
030E
031E
0636
0C3F
1806
300F
ENDCHAR

STARTCHAR questiondown
ENCODING 191
SWIDTH 563 0
DWIDTH 11 0
BBX 9 13 1 -4
BITMAP
0E00
0E00
0E00
0000
0400
0C00
7C00
FC00
E000
E180
F180
7F80
3F00
ENDCHAR

STARTCHAR Agrave
ENCODING 192
SWIDTH 698 0
DWIDTH 13 0
BBX 13 17 0 0
BITMAP
0E00
0700
0180
0000
1FC0
1FC0
0F80
0D80
1DC0
18C0
38E0
3FE0
3FE0
7070
7070
F8F8
F8F8
ENDCHAR

STARTCHAR Aacute
ENCODING 193
SWIDTH 698 0
DWIDTH 13 0
BBX 13 17 0 0
BITMAP
01C0
0380
0600
0000
1FC0
1FC0
0F80
0D80
1DC0
18C0
38E0
3FE0
3FE0
7070
7070
F8F8
F8F8
ENDCHAR

STARTCHAR Acircumflex
ENCODING 194
SWIDTH 698 0
DWIDTH 13 0
BBX 13 17 0 0
BITMAP
0300
0780
0CC0
0000
1FC0
1FC0
0F80
0D80
1DC0
18C0
38E0
3FE0
3FE0
7070
7070
F8F8
F8F8
ENDCHAR

STARTCHAR Atilde
ENCODING 195
SWIDTH 698 0
DWIDTH 13 0
BBX 13 17 0 0
BITMAP
0640
0FC0
0980
0000
1FC0
1FC0
0F80
0D80
1DC0
18C0
38E0
3FE0
3FE0
7070
7070
F8F8
F8F8
ENDCHAR

STARTCHAR Adieresis
ENCODING 196
SWIDTH 698 0
DWIDTH 13 0
BBX 13 16 0 0
BITMAP
0D80
0D80
0000
1FC0
1FC0
0F80
0D80
1DC0
18C0
38E0
3FE0
3FE0
7070
7070
F8F8
F8F8
ENDCHAR

STARTCHAR Aring
ENCODING 197
SWIDTH 698 0
DWIDTH 13 0
BBX 13 18 0 0
BITMAP
0300
0480
0480
0300
0000
1FC0
1FC0
0F80
0D80
1DC0
18C0
38E0
3FE0
3FE0
7070
7070
F8F8
F8F8
ENDCHAR

STARTCHAR AE
ENCODING 198
SWIDTH 990 0
DWIDTH 19 0
BBX 18 13 0 0
BITMAP
0FFFC0
0FFFC0
0671C0
0E71C0
0C7000
1FFE00
1FFE00
187000
387000
3071C0
7071C0
F8FFC0
F8FFC0
ENDCHAR

STARTCHAR Ccedilla
ENCODING 199
SWIDTH 781 0
DWIDTH 15 0
BBX 13 17 1 -4
BITMAP
0FB8
3FF8
7CF8
7038
F038
E000
E000
E000
F038
7038
7CF8
3FF0
0FC0
0600
0780
0380
0F00
ENDCHAR

STARTCHAR Egrave
ENCODING 200
SWIDTH 667 0
DWIDTH 13 0
BBX 11 17 1 0
BITMAP
3C00
0E00
0300
0000
FFE0
FFE0
70E0
70E0
7000
7F00
7F00
7000
7000
70E0
70E0
FFE0
FFE0
ENDCHAR

STARTCHAR Eacute
ENCODING 201
SWIDTH 667 0
DWIDTH 13 0
BBX 11 17 1 0
BITMAP
0700
0E00
1800
0000
FFE0
FFE0
70E0
70E0
7000
7F00
7F00
7000
7000
70E0
70E0
FFE0
FFE0
ENDCHAR

STARTCHAR Ecircumflex
ENCODING 202
SWIDTH 667 0
DWIDTH 13 0
BBX 11 17 1 0
BITMAP
0600
0F00
1980
0000
FFE0
FFE0
70E0
70E0
7000
7F00
7F00
7000
7000
70E0
70E0
FFE0
FFE0
ENDCHAR

STARTCHAR Edieresis
ENCODING 203
SWIDTH 667 0
DWIDTH 13 0
BBX 11 16 1 0
BITMAP
3300
3300
0000
FFE0
FFE0
70E0
70E0
7000
7F00
7F00
7000
7000
70E0
70E0
FFE0
FFE0
ENDCHAR

STARTCHAR Igrave
ENCODING 204
SWIDTH 427 0
DWIDTH 8 0
BBX 6 17 0 0
BITMAP
E0
70
18
00
7C
7C
38
38
38
38
38
38
38
38
38
7C
7C
ENDCHAR

STARTCHAR Iacute
ENCODING 205
SWIDTH 427 0
DWIDTH 8 0
BBX 5 17 1 0
BITMAP
38
70
C0
00
F8
F8
70
70
70
70
70
70
70
70
70
F8
F8
ENDCHAR

STARTCHAR Icircumflex
ENCODING 206
SWIDTH 427 0
DWIDTH 8 0
BBX 6 17 1 0
BITMAP
30
78
CC
00
F8
F8
70
70
70
70
70
70
70
70
70
F8
F8
ENDCHAR

STARTCHAR Idieresis
ENCODING 207
SWIDTH 427 0
DWIDTH 8 0
BBX 5 16 1 0
BITMAP
D8
D8
00
F8
F8
70
70
70
70
70
70
70
70
70
F8
F8
ENDCHAR

STARTCHAR Eth
ENCODING 208
SWIDTH 802 0
DWIDTH 15 0
BBX 13 13 1 0
BITMAP
FF80
FFE0
70F0
7070
7078
7038
FC38
FC38
7078
7070
70F0
FFE0
FF80
ENDCHAR

STARTCHAR Ntilde
ENCODING 209
SWIDTH 792 0
DWIDTH 15 0
BBX 13 17 1 0
BITMAP
0640
0FC0
0980
0000
F8F8
FCF8
7C70
7E70
7670
7770
7770
73F0
73F0
71F0
70F0
F8F0
F870
ENDCHAR

STARTCHAR Ograve
ENCODING 210
SWIDTH 854 0
DWIDTH 16 0
BBX 14 17 1 0
BITMAP
0E00
0700
0180
0000
0FC0
3FF0
7CF8
7038
F03C
E01C
E01C
E01C
F03C
7038
7CF8
3FF0
0FC0
ENDCHAR

STARTCHAR Oacute
ENCODING 211
SWIDTH 854 0
DWIDTH 16 0
BBX 14 17 1 0
BITMAP
00E0
01C0
0300
0000
0FC0
3FF0
7CF8
7038
F03C
E01C
E01C
E01C
F03C
7038
7CF8
3FF0
0FC0
ENDCHAR

STARTCHAR Ocircumflex
ENCODING 212
SWIDTH 854 0
DWIDTH 16 0
BBX 14 17 1 0
BITMAP
0300
0780
0CC0
0000
0FC0
3FF0
7CF8
7038
F03C
E01C
E01C
E01C
F03C
7038
7CF8
3FF0
0FC0
ENDCHAR

STARTCHAR Otilde
ENCODING 213
SWIDTH 854 0
DWIDTH 16 0
BBX 14 17 1 0
BITMAP
0640
0FC0
0980
0000
0FC0
3FF0
7CF8
7038
F03C
E01C
E01C
E01C
F03C
7038
7CF8
3FF0
0FC0
ENDCHAR

STARTCHAR Odieresis
ENCODING 214
SWIDTH 854 0
DWIDTH 16 0
BBX 14 16 1 0
BITMAP
06C0
06C0
0000
0FC0
3FF0
7CF8
7038
F03C
E01C
E01C
E01C
F03C
7038
7CF8
3FF0
0FC0
ENDCHAR

STARTCHAR multiply
ENCODING 215
SWIDTH 667 0
DWIDTH 13 0
BBX 11 10 1 1
BITMAP
C060
60C0
3180
1B00
0E00
0E00
1B00
3180
60C0
C060
ENDCHAR

STARTCHAR Oslash
ENCODING 216
SWIDTH 854 0
DWIDTH 16 0
BBX 14 13 1 0
BITMAP
0FCC
3FF8
7CF8
7078
F0FC
E19C
E31C
E61C
FC3C
7838
7CF8
7FF0
CFC0
ENDCHAR

STARTCHAR Ugrave
ENCODING 217
SWIDTH 677 0
DWIDTH 13 0
BBX 11 17 1 0
BITMAP
1C00
0E00
0300
0000
FBE0
FBE0
71C0
71C0
71C0
71C0
71C0
71C0
71C0
71C0
7BC0
3F80
1F00
ENDCHAR

STARTCHAR Uacute
ENCODING 218
SWIDTH 677 0
DWIDTH 13 0
BBX 11 17 1 0
BITMAP
0380
0700
0C00
0000
FBE0
FBE0
71C0
71C0
71C0
71C0
71C0
71C0
71C0
71C0
7BC0
3F80
1F00
ENDCHAR

STARTCHAR Ucircumflex
ENCODING 219
SWIDTH 677 0
DWIDTH 13 0
BBX 11 17 1 0
BITMAP
0600
0F00
1980
0000
FBE0
FBE0
71C0
71C0
71C0
71C0
71C0
71C0
71C0
71C0
7BC0
3F80
1F00
ENDCHAR

STARTCHAR Udieresis
ENCODING 220
SWIDTH 677 0
DWIDTH 13 0
BBX 11 16 1 0
BITMAP
1B00
1B00
0000
FBE0
FBE0
71C0
71C0
71C0
71C0
71C0
71C0
71C0
71C0
7BC0
3F80
1F00
ENDCHAR

STARTCHAR Yacute
ENCODING 221
SWIDTH 698 0
DWIDTH 13 0
BBX 13 17 0 0
BITMAP
01C0
0380
0600
0000
F8F8
F8F8
7070
38E0
1DC0
0F80
0700
0700
0700
0700
0700
0F80
0F80
ENDCHAR

STARTCHAR Thorn
ENCODING 222
SWIDTH 667 0
DWIDTH 13 0
BBX 11 13 1 0
BITMAP
F800
F800
7000
7F80
7FC0
71E0
70E0
71E0
7FC0
7F80
7000
F800
F800
ENDCHAR

STARTCHAR germandbls
ENCODING 223
SWIDTH 646 0
DWIDTH 12 0
BBX 11 13 0 0
BITMAP
1F00
3F80
71C0
71C0
71C0
7300
73C0
71C0
70E0
70E0
70E0
FBC0
FB80
ENDCHAR

STARTCHAR agrave
ENCODING 224
SWIDTH 583 0
DWIDTH 11 0
BBX 9 13 1 0
BITMAP
7000
3800
0C00
0000
7C00
FE00
0700
3F00
7F00
E700
E700
FF80
7B80
ENDCHAR

STARTCHAR aacute
ENCODING 225
SWIDTH 583 0
DWIDTH 11 0
BBX 9 13 1 0
BITMAP
0E00
1C00
3000
0000
7C00
FE00
0700
3F00
7F00
E700
E700
FF80
7B80
ENDCHAR

STARTCHAR acircumflex
ENCODING 226
SWIDTH 583 0
DWIDTH 11 0
BBX 9 13 1 0
BITMAP
1800
3C00
6600
0000
7C00
FE00
0700
3F00
7F00
E700
E700
FF80
7B80
ENDCHAR

STARTCHAR atilde
ENCODING 227
SWIDTH 583 0
DWIDTH 11 0
BBX 9 13 1 0
BITMAP
3200
7E00
4C00
0000
7C00
FE00
0700
3F00
7F00
E700
E700
FF80
7B80
ENDCHAR

STARTCHAR adieresis
ENCODING 228
SWIDTH 583 0
DWIDTH 11 0
BBX 9 12 1 0
BITMAP
3600
3600
0000
7C00
FE00
0700
3F00
7F00
E700
E700
FF80
7B80
ENDCHAR

STARTCHAR aring
ENCODING 229
SWIDTH 583 0
DWIDTH 11 0
BBX 9 14 1 0
BITMAP
1800
2400
2400
1800
0000
7C00
FE00
0700
3F00
7F00
E700
E700
FF80
7B80
ENDCHAR

STARTCHAR ae
ENCODING 230
SWIDTH 885 0
DWIDTH 17 0
BBX 15 9 1 0
BITMAP
7CF8
FFFC
078E
3FFE
7FFE
E380
E78E
FDFE
78F8
ENDCHAR

STARTCHAR ccedilla
ENCODING 231
SWIDTH 563 0
DWIDTH 11 0
BBX 9 13 1 -4
BITMAP
3F80
7F80
E380
E380
E000
E000
E380
7F80
3F00
1800
1E00
0E00
3C00
ENDCHAR

STARTCHAR egrave
ENCODING 232
SWIDTH 573 0
DWIDTH 11 0
BBX 9 13 1 0
BITMAP
7000
1C00
0600
0000
3E00
7F00
E380
FF80
FF80
E000
E380
7F80
3E00
ENDCHAR

STARTCHAR eacute
ENCODING 233
SWIDTH 573 0
DWIDTH 11 0
BBX 9 13 1 0
BITMAP
0E00
1C00
3000
0000
3E00
7F00
E380
FF80
FF80
E000
E380
7F80
3E00
ENDCHAR

STARTCHAR ecircumflex
ENCODING 234
SWIDTH 573 0
DWIDTH 11 0
BBX 9 13 1 0
BITMAP
0C00
1E00
3300
0000
3E00
7F00
E380
FF80
FF80
E000
E380
7F80
3E00
ENDCHAR

STARTCHAR edieresis
ENCODING 235
SWIDTH 573 0
DWIDTH 11 0
BBX 9 12 1 0
BITMAP
3600
3600
0000
3E00
7F00
E380
FF80
FF80
E000
E380
7F80
3E00
ENDCHAR

STARTCHAR igrave
ENCODING 236
SWIDTH 354 0
DWIDTH 7 0
BBX 5 13 1 0
BITMAP
E0
70
18
00
F0
F0
70
70
70
70
70
F8
F8
ENDCHAR

STARTCHAR iacute
ENCODING 237
SWIDTH 354 0
DWIDTH 7 0
BBX 5 13 1 0
BITMAP
38
70
C0
00
F0
F0
70
70
70
70
70
F8
F8
ENDCHAR

STARTCHAR icircumflex
ENCODING 238
SWIDTH 354 0
DWIDTH 7 0
BBX 6 13 1 0
BITMAP
30
78
CC
00
F0
F0
70
70
70
70
70
F8
F8
ENDCHAR

STARTCHAR idieresis
ENCODING 239
SWIDTH 354 0
DWIDTH 7 0
BBX 5 12 1 0
BITMAP
D8
D8
00
F0
F0
70
70
70
70
70
F8
F8
ENDCHAR

STARTCHAR eth
ENCODING 240
SWIDTH 573 0
DWIDTH 11 0
BBX 9 14 1 0
BITMAP
6000
3F80
3E00
6600
0300
3F00
7F80
E380
E380
E380
E380
E380
7F00
3E00
ENDCHAR

STARTCHAR ntilde
ENCODING 241
SWIDTH 625 0
DWIDTH 12 0
BBX 10 13 1 0
BITMAP
1900
3F00
2600
0000
F700
FF80
7B80
7380
7380
7380
7380
FBC0
FBC0
ENDCHAR

STARTCHAR ograve
ENCODING 242
SWIDTH 573 0
DWIDTH 11 0
BBX 9 13 1 0
BITMAP
3800
1C00
0600
0000
3E00
7F00
E380
E380
E380
E380
E380
7F00
3E00
ENDCHAR

STARTCHAR oacute
ENCODING 243
SWIDTH 573 0
DWIDTH 11 0
BBX 9 13 1 0
BITMAP
0E00
1C00
3000
0000
3E00
7F00
E380
E380
E380
E380
E380
7F00
3E00
ENDCHAR

STARTCHAR ocircumflex
ENCODING 244
SWIDTH 573 0
DWIDTH 11 0
BBX 9 13 1 0
BITMAP
0C00
1E00
3300
0000
3E00
7F00
E380
E380
E380
E380
E380
7F00
3E00
ENDCHAR

STARTCHAR otilde
ENCODING 245
SWIDTH 573 0
DWIDTH 11 0
BBX 9 13 1 0
BITMAP
3200
7E00
4C00
0000
3E00
7F00
E380
E380
E380
E380
E380
7F00
3E00
ENDCHAR

STARTCHAR odieresis
ENCODING 246
SWIDTH 573 0
DWIDTH 11 0
BBX 9 12 1 0
BITMAP
3600
3600
0000
3E00
7F00
E380
E380
E380
E380
E380
7F00
3E00
ENDCHAR

STARTCHAR divide
ENCODING 247
SWIDTH 668 0
DWIDTH 13 0
BBX 11 10 1 1
BITMAP
0E00
0E00
0000
0000
FFE0
FFE0
0000
0000
0E00
0E00
ENDCHAR

STARTCHAR oslash
ENCODING 248
SWIDTH 573 0
DWIDTH 11 0
BBX 11 11 0 -1
BITMAP
0060
1FC0
3F80
73C0
77C0
75C0
7DC0
79C0
3F80
6F00
C000
ENDCHAR

STARTCHAR ugrave
ENCODING 249
SWIDTH 625 0
DWIDTH 12 0
BBX 10 13 1 0
BITMAP
3800
1C00
0600
0000
F780
F780
7380
7380
7380
7380
7780
7FC0
3BC0
ENDCHAR

STARTCHAR uacute
ENCODING 250
SWIDTH 625 0
DWIDTH 12 0
BBX 10 13 1 0
BITMAP
0700
0E00
1800
0000
F780
F780
7380
7380
7380
7380
7780
7FC0
3BC0
ENDCHAR

STARTCHAR ucircumflex
ENCODING 251
SWIDTH 625 0
DWIDTH 12 0
BBX 10 13 1 0
BITMAP
0C00
1E00
3300
0000
F780
F780
7380
7380
7380
7380
7780
7FC0
3BC0
ENDCHAR

STARTCHAR udieresis
ENCODING 252
SWIDTH 625 0
DWIDTH 12 0
BBX 10 12 1 0
BITMAP
3300
3300
0000
F780
F780
7380
7380
7380
7380
7780
7FC0
3BC0
ENDCHAR

STARTCHAR yacute
ENCODING 253
SWIDTH 594 0
DWIDTH 11 0
BBX 11 17 0 -4
BITMAP
0380
0700
0C00
0000
FBE0
FBE0
71C0
3B80
3B80
1B00
1F00
0E00
0E00
0C00
1C00
7800
7800
ENDCHAR

STARTCHAR thorn
ENCODING 254
SWIDTH 625 0
DWIDTH 12 0
BBX 10 17 1 -4
BITMAP
F000
F000
7000
7000
7700
7F80
79C0
71C0
71C0
71C0
79C0
7F80
7700
7000
7000
F800
F800
ENDCHAR

STARTCHAR ydieresis
ENCODING 255
SWIDTH 594 0
DWIDTH 11 0
BBX 11 16 0 -4
BITMAP
1B00
1B00
0000
FBE0
FBE0
71C0
3B80
3B80
1B00
1F00
0E00
0E00
0C00
1C00
7800
7800
ENDCHAR

ENDFONT
