STARTFONT 2.1
FONT -sun-arioso-medium-r-normal--12-120-75-75-p-62-adobe-fontspecific
SIZE 12 75 75
FONTBOUNDINGBOX 15 14 -2 -2

STARTPROPERTIES 28
FOUNDRY "sun"
FAMILY_NAME "arioso"
WEIGHT_NAME "medium"
SLANT "r"
SETWIDTH_NAME "normal"
ADD_STYLE_NAME ""
PIXEL_SIZE 12
POINT_SIZE 120
RESOLUTION_X 75
RESOLUTION_Y 75
SPACING "p"
AVERAGE_WIDTH 62
CHARSET_REGISTRY "adobe"
CHARSET_ENCODING "fontspecific"
COPYRIGHT "© 1999 Sun Microsystems, Inc."
RAW_PIXELSIZE 1000
RAW_POINTSIZE 964
RAW_ASCENT 897
RAW_DESCENT 198
RAW_AVERAGE_WIDTH 4987
FACE_NAME "AriosoNormal"
_XMBDFED_INFO "Edited with xmbdfed 2.4."
WEIGHT 10
X_HEIGHT -1
QUAD_WIDTH 7
DEFAULT_CHAR 4
FONT_DESCENT 2
FONT_ASCENT 12
ENDPROPERTIES

CHARS 195

STARTCHAR char32
ENCODING 32
SWIDTH 21 0
DWIDTH 3 0
BBX 0 0 0 0
BITMAP
ENDCHAR

STARTCHAR char33
ENCODING 33
SWIDTH 28 0
DWIDTH 4 0
BBX 3 8 1 0
BITMAP
20
20
20
40
40
40
00
80
ENDCHAR

STARTCHAR char34
ENCODING 34
SWIDTH 28 0
DWIDTH 4 0
BBX 4 2 1 7
BITMAP
50
50
ENDCHAR

STARTCHAR char35
ENCODING 35
SWIDTH 50 0
DWIDTH 7 0
BBX 6 9 0 0
BITMAP
24
24
7C
28
28
28
FC
48
48
ENDCHAR

STARTCHAR char36
ENCODING 36
SWIDTH 50 0
DWIDTH 7 0
BBX 7 10 0 -1
BITMAP
18
6E
48
68
30
28
28
28
F0
40
ENDCHAR

STARTCHAR char37
ENCODING 37
SWIDTH 71 0
DWIDTH 10 0
BBX 9 8 0 0
BITMAP
2400
5400
9400
9900
AE80
5480
1500
1600
ENDCHAR

STARTCHAR char38
ENCODING 38
SWIDTH 43 0
DWIDTH 6 0
BBX 6 7 0 0
BITMAP
38
38
20
54
94
98
E8
ENDCHAR

STARTCHAR char39
ENCODING 39
SWIDTH 21 0
DWIDTH 3 0
BBX 2 2 1 7
BITMAP
80
80
ENDCHAR

STARTCHAR char40
ENCODING 40
SWIDTH 28 0
DWIDTH 4 0
BBX 4 11 1 -2
BITMAP
10
20
20
40
40
80
80
80
80
80
80
ENDCHAR

STARTCHAR char41
ENCODING 41
SWIDTH 28 0
DWIDTH 4 0
BBX 5 11 -1 -2
BITMAP
08
08
08
10
10
10
20
20
40
40
80
ENDCHAR

STARTCHAR char42
ENCODING 42
SWIDTH 28 0
DWIDTH 4 0
BBX 4 4 1 5
BITMAP
A0
70
A0
60
ENDCHAR

STARTCHAR char43
ENCODING 43
SWIDTH 57 0
DWIDTH 8 0
BBX 7 7 1 0
BITMAP
10
10
10
FE
10
10
10
ENDCHAR

STARTCHAR char44
ENCODING 44
SWIDTH 21 0
DWIDTH 3 0
BBX 2 3 0 -2
BITMAP
40
80
80
ENDCHAR

STARTCHAR char45
ENCODING 45
SWIDTH 28 0
DWIDTH 4 0
BBX 3 1 0 2
BITMAP
E0
ENDCHAR

STARTCHAR char46
ENCODING 46
SWIDTH 21 0
DWIDTH 3 0
BBX 1 1 1 0
BITMAP
80
ENDCHAR

STARTCHAR char47
ENCODING 47
SWIDTH 43 0
DWIDTH 6 0
BBX 6 9 0 0
BITMAP
04
08
08
10
20
20
40
40
80
ENDCHAR

STARTCHAR char48
ENCODING 48
SWIDTH 43 0
DWIDTH 6 0
BBX 6 8 0 0
BITMAP
10
2C
44
44
88
88
88
F0
ENDCHAR

STARTCHAR char49
ENCODING 49
SWIDTH 43 0
DWIDTH 6 0
BBX 4 8 1 0
BITMAP
10
70
50
20
20
20
40
40
ENDCHAR

STARTCHAR char50
ENCODING 50
SWIDTH 43 0
DWIDTH 6 0
BBX 6 8 0 0
BITMAP
18
64
44
48
10
60
80
F8
ENDCHAR

STARTCHAR char51
ENCODING 51
SWIDTH 43 0
DWIDTH 6 0
BBX 5 8 0 0
BITMAP
10
08
08
30
08
08
10
F0
ENDCHAR

STARTCHAR char52
ENCODING 52
SWIDTH 43 0
DWIDTH 6 0
BBX 6 8 0 0
BITMAP
04
04
18
28
48
90
F0
20
ENDCHAR

STARTCHAR char53
ENCODING 53
SWIDTH 43 0
DWIDTH 6 0
BBX 6 8 0 0
BITMAP
3C
20
20
70
08
08
10
E0
ENDCHAR

STARTCHAR char54
ENCODING 54
SWIDTH 43 0
DWIDTH 6 0
BBX 6 8 0 0
BITMAP
08
10
10
30
48
88
88
F0
ENDCHAR

STARTCHAR char55
ENCODING 55
SWIDTH 43 0
DWIDTH 6 0
BBX 5 7 1 0
BITMAP
F8
08
10
20
40
40
80
ENDCHAR

STARTCHAR char56
ENCODING 56
SWIDTH 43 0
DWIDTH 6 0
BBX 6 8 0 0
BITMAP
18
24
24
28
50
88
88
F8
ENDCHAR

STARTCHAR char57
ENCODING 57
SWIDTH 43 0
DWIDTH 6 0
BBX 6 9 0 -1
BITMAP
10
2C
44
44
68
10
20
40
80
ENDCHAR

STARTCHAR char58
ENCODING 58
SWIDTH 21 0
DWIDTH 3 0
BBX 2 4 1 0
BITMAP
40
00
00
80
ENDCHAR

STARTCHAR char59
ENCODING 59
SWIDTH 21 0
DWIDTH 3 0
BBX 3 6 0 -2
BITMAP
20
00
00
40
40
40
ENDCHAR

STARTCHAR char60
ENCODING 60
SWIDTH 57 0
DWIDTH 8 0
BBX 6 6 1 0
BITMAP
0C
70
80
C0
38
04
ENDCHAR

STARTCHAR char61
ENCODING 61
SWIDTH 57 0
DWIDTH 8 0
BBX 8 3 0 2
BITMAP
FF
00
FF
ENDCHAR

STARTCHAR char62
ENCODING 62
SWIDTH 57 0
DWIDTH 8 0
BBX 6 6 1 0
BITMAP
C0
30
0C
18
60
80
ENDCHAR

STARTCHAR char63
ENCODING 63
SWIDTH 35 0
DWIDTH 5 0
BBX 4 8 1 0
BITMAP
70
50
70
40
80
80
00
80
ENDCHAR

STARTCHAR char64
ENCODING 64
SWIDTH 20 0
DWIDTH 13 0
BBX 9 9 2 0
BITMAP
3E00
4100
DE80
A680
A480
A580
DE00
4100
3E00
ENDCHAR

STARTCHAR char65
ENCODING 65
SWIDTH 6 0
DWIDTH 11 0
BBX 12 9 -1 0
BITMAP
0020
0060
00A0
00A0
3FE0
6140
42C0
8480
C0F0
ENDCHAR

STARTCHAR char66
ENCODING 66
SWIDTH 71 0
DWIDTH 10 0
BBX 10 9 -1 0
BITMAP
0F00
32C0
4240
8280
8500
8480
08C0
1780
1800
ENDCHAR

STARTCHAR char67
ENCODING 67
SWIDTH 50 0
DWIDTH 7 0
BBX 8 9 0 0
BITMAP
0C
33
59
71
A2
C4
B8
80
FE
ENDCHAR

STARTCHAR char68
ENCODING 68
SWIDTH 6 0
DWIDTH 11 0
BBX 12 9 -1 0
BITMAP
1FC0
3120
2110
4210
8230
8420
8440
0880
0F00
ENDCHAR

STARTCHAR char69
ENCODING 69
SWIDTH 50 0
DWIDTH 7 0
BBX 7 9 0 0
BITMAP
0E
0A
12
10
20
40
82
86
F8
ENDCHAR

STARTCHAR char70
ENCODING 70
SWIDTH 6 0
DWIDTH 11 0
BBX 13 11 -1 -2
BITMAP
0FE0
3030
2040
4040
8080
83F0
8180
8300
0300
0500
0600
ENDCHAR

STARTCHAR char71
ENCODING 71
SWIDTH 71 0
DWIDTH 10 0
BBX 10 11 0 -2
BITMAP
03C0
1C40
1080
2100
2680
3880
6100
4300
3DC0
0300
0E00
ENDCHAR

STARTCHAR char72
ENCODING 72
SWIDTH 6 0
DWIDTH 11 0
BBX 11 9 0 0
BITMAP
3840
C4C0
8580
0500
0A20
3A20
4C20
94C0
E700
ENDCHAR

STARTCHAR char73
ENCODING 73
SWIDTH 57 0
DWIDTH 8 0
BBX 9 9 -1 0
BITMAP
1F00
6080
4080
0100
0100
0200
7E00
8580
F800
ENDCHAR

STARTCHAR char74
ENCODING 74
SWIDTH 57 0
DWIDTH 8 0
BBX 10 11 -1 -2
BITMAP
07C0
1900
2100
4100
8200
8200
8300
8C00
3400
2800
7800
ENDCHAR

STARTCHAR char75
ENCODING 75
SWIDTH 6 0
DWIDTH 11 0
BBX 11 9 0 0
BITMAP
3E20
4240
0280
0300
0700
0400
0A00
1A00
E1C0
ENDCHAR

STARTCHAR char76
ENCODING 76
SWIDTH 71 0
DWIDTH 10 0
BBX 9 9 0 0
BITMAP
0180
0680
0480
0880
0900
0A00
1000
7000
EF80
ENDCHAR

STARTCHAR char77
ENCODING 77
SWIDTH 20 0
DWIDTH 13 0
BBX 14 9 -1 0
BITMAP
006C
01B4
0138
0168
0248
02D0
0490
08A0
F118
ENDCHAR

STARTCHAR char78
ENCODING 78
SWIDTH 13 0
DWIDTH 12 0
BBX 12 9 -1 0
BITMAP
0E00
31E0
2120
4640
8640
8680
8A80
1480
18F0
ENDCHAR

STARTCHAR char79
ENCODING 79
SWIDTH 57 0
DWIDTH 8 0
BBX 7 9 0 0
BITMAP
0C
72
62
82
82
82
84
8C
70
ENDCHAR

STARTCHAR char80
ENCODING 80
SWIDTH 6 0
DWIDTH 11 0
BBX 12 11 -1 -2
BITMAP
07C0
1920
2210
4210
8410
8420
8420
08C0
0F00
0800
0800
ENDCHAR

STARTCHAR char81
ENCODING 81
SWIDTH 50 0
DWIDTH 7 0
BBX 8 11 0 -2
BITMAP
1C
62
42
82
82
84
84
88
F0
0D
02
ENDCHAR

STARTCHAR char82
ENCODING 82
SWIDTH 71 0
DWIDTH 10 0
BBX 11 9 -1 0
BITMAP
0780
1A60
2220
4420
8440
8780
8E00
8A00
09E0
ENDCHAR

STARTCHAR char83
ENCODING 83
SWIDTH 50 0
DWIDTH 7 0
BBX 7 9 0 0
BITMAP
0E
16
14
10
08
38
CE
88
F0
ENDCHAR

STARTCHAR char84
ENCODING 84
SWIDTH 64 0
DWIDTH 9 0
BBX 11 10 -1 -1
BITMAP
3FE0
6080
4080
8080
8080
4100
7D00
4200
6600
1800
ENDCHAR

STARTCHAR char85
ENCODING 85
SWIDTH 6 0
DWIDTH 11 0
BBX 12 9 -1 0
BITMAP
0710
3920
6260
4260
84C0
84C0
8980
8A80
0CE0
ENDCHAR

STARTCHAR char86
ENCODING 86
SWIDTH 6 0
DWIDTH 11 0
BBX 12 9 -1 0
BITMAP
0F20
1110
2210
4410
8430
8820
4840
48C0
0700
ENDCHAR

STARTCHAR char87
ENCODING 87
SWIDTH 20 0
DWIDTH 13 0
BBX 12 9 0 0
BITMAP
7810
8910
0B10
0B10
1510
1610
1A20
1260
1380
ENDCHAR

STARTCHAR char88
ENCODING 88
SWIDTH 13 0
DWIDTH 12 0
BBX 13 9 -1 0
BITMAP
0E38
3140
4180
4100
87D0
8210
0610
1A20
63C0
ENDCHAR

STARTCHAR char89
ENCODING 89
SWIDTH 6 0
DWIDTH 11 0
BBX 12 11 -1 -2
BITMAP
0E30
3220
4240
84C0
84C0
8940
8A80
0CE0
1F00
0D00
0E00
ENDCHAR

STARTCHAR char90
ENCODING 90
SWIDTH 6 0
DWIDTH 11 0
BBX 11 9 0 0
BITMAP
0F00
30C0
2440
4580
4700
4A00
7C00
0800
FFC0
ENDCHAR

STARTCHAR char91
ENCODING 91
SWIDTH 28 0
DWIDTH 4 0
BBX 6 11 -1 -2
BITMAP
0C
08
10
10
10
20
20
60
40
40
40
ENDCHAR

STARTCHAR char92
ENCODING 92
SWIDTH 21 0
DWIDTH 3 0
BBX 4 9 0 0
BITMAP
80
80
40
40
40
20
20
20
10
ENDCHAR

STARTCHAR char93
ENCODING 93
SWIDTH 28 0
DWIDTH 4 0
BBX 5 11 -1 -2
BITMAP
08
08
08
10
10
20
20
20
40
40
80
ENDCHAR

STARTCHAR char94
ENCODING 94
SWIDTH 0 0
DWIDTH 0 0
BBX 3 2 1 9
BITMAP
C0
A0
ENDCHAR

STARTCHAR char95
ENCODING 95
SWIDTH 50 0
DWIDTH 7 0
BBX 7 1 0 -2
BITMAP
FE
ENDCHAR

STARTCHAR char96
ENCODING 96
SWIDTH 0 0
DWIDTH 0 0
BBX 2 2 -1 6
BITMAP
80
40
ENDCHAR

STARTCHAR char97
ENCODING 97
SWIDTH 43 0
DWIDTH 6 0
BBX 6 5 0 0
BITMAP
78
48
90
B0
DC
ENDCHAR

STARTCHAR char98
ENCODING 98
SWIDTH 35 0
DWIDTH 5 0
BBX 5 9 0 0
BITMAP
10
20
20
50
70
70
B0
B8
C0
ENDCHAR

STARTCHAR char99
ENCODING 99
SWIDTH 28 0
DWIDTH 4 0
BBX 4 5 0 0
BITMAP
30
50
A0
80
F0
ENDCHAR

STARTCHAR char100
ENCODING 100
SWIDTH 43 0
DWIDTH 6 0
BBX 6 9 0 0
BITMAP
04
04
08
08
78
50
90
B0
DC
ENDCHAR

STARTCHAR char101
ENCODING 101
SWIDTH 28 0
DWIDTH 4 0
BBX 4 5 0 0
BITMAP
60
60
E0
80
F0
ENDCHAR

STARTCHAR char102
ENCODING 102
SWIDTH 28 0
DWIDTH 4 0
BBX 6 11 -1 -2
BITMAP
04
1C
14
18
18
30
E0
A0
78
40
C0
ENDCHAR

STARTCHAR char103
ENCODING 103
SWIDTH 43 0
DWIDTH 6 0
BBX 6 7 0 -2
BITMAP
38
D0
90
90
FC
20
E0
ENDCHAR

STARTCHAR char104
ENCODING 104
SWIDTH 43 0
DWIDTH 6 0
BBX 5 9 0 0
BITMAP
20
20
20
40
70
B0
D0
A0
B8
ENDCHAR

STARTCHAR char105
ENCODING 105
SWIDTH 21 0
DWIDTH 3 0
BBX 3 7 0 0
BITMAP
40
00
40
40
80
80
C0
ENDCHAR

STARTCHAR char106
ENCODING 106
SWIDTH 28 0
DWIDTH 4 0
BBX 5 9 -1 -2
BITMAP
08
00
10
F0
A0
78
A0
C0
C0
ENDCHAR

STARTCHAR char107
ENCODING 107
SWIDTH 43 0
DWIDTH 6 0
BBX 6 9 0 0
BITMAP
20
20
20
40
58
78
F0
C0
BC
ENDCHAR

STARTCHAR char108
ENCODING 108
SWIDTH 21 0
DWIDTH 3 0
BBX 3 9 0 0
BITMAP
20
20
20
40
40
40
80
80
E0
ENDCHAR

STARTCHAR char109
ENCODING 109
SWIDTH 57 0
DWIDTH 8 0
BBX 8 5 0 0
BITMAP
56
7E
DC
DC
97
ENDCHAR

STARTCHAR char110
ENCODING 110
SWIDTH 43 0
DWIDTH 6 0
BBX 6 5 0 0
BITMAP
50
F0
D0
A0
BC
ENDCHAR

STARTCHAR char111
ENCODING 111
SWIDTH 35 0
DWIDTH 5 0
BBX 5 5 0 0
BITMAP
70
70
B0
98
E0
ENDCHAR

STARTCHAR char112
ENCODING 112
SWIDTH 43 0
DWIDTH 6 0
BBX 8 7 -1 -2
BITMAP
1C
64
A4
28
7F
40
C0
ENDCHAR

STARTCHAR char113
ENCODING 113
SWIDTH 43 0
DWIDTH 6 0
BBX 6 7 0 -2
BITMAP
78
48
90
90
EC
30
20
ENDCHAR

STARTCHAR char114
ENCODING 114
SWIDTH 28 0
DWIDTH 4 0
BBX 4 5 0 0
BITMAP
70
60
A0
D0
80
ENDCHAR

STARTCHAR char115
ENCODING 115
SWIDTH 28 0
DWIDTH 4 0
BBX 4 5 0 0
BITMAP
60
40
40
C0
F0
ENDCHAR

STARTCHAR char116
ENCODING 116
SWIDTH 21 0
DWIDTH 3 0
BBX 3 7 0 0
BITMAP
40
40
60
40
80
80
E0
ENDCHAR

STARTCHAR char117
ENCODING 117
SWIDTH 43 0
DWIDTH 6 0
BBX 6 5 0 0
BITMAP
48
50
50
90
F8
ENDCHAR

STARTCHAR char118
ENCODING 118
SWIDTH 43 0
DWIDTH 6 0
BBX 5 5 0 0
BITMAP
70
70
B0
A8
C0
ENDCHAR

STARTCHAR char119
ENCODING 119
SWIDTH 57 0
DWIDTH 8 0
BBX 8 6 -1 0
BITMAP
02
2B
4B
CB
93
EC
ENDCHAR

STARTCHAR char120
ENCODING 120
SWIDTH 43 0
DWIDTH 6 0
BBX 7 5 -1 0
BITMAP
36
1C
30
50
FC
ENDCHAR

STARTCHAR char121
ENCODING 121
SWIDTH 43 0
DWIDTH 6 0
BBX 6 7 0 -2
BITMAP
50
50
90
90
F8
20
C0
ENDCHAR

STARTCHAR char122
ENCODING 122
SWIDTH 35 0
DWIDTH 5 0
BBX 5 5 0 0
BITMAP
70
A0
40
80
F0
ENDCHAR

STARTCHAR char123
ENCODING 123
SWIDTH 28 0
DWIDTH 4 0
BBX 3 11 1 -2
BITMAP
60
40
40
40
C0
80
80
40
40
40
60
ENDCHAR

STARTCHAR char124
ENCODING 124
SWIDTH 21 0
DWIDTH 3 0
BBX 1 9 1 0
BITMAP
80
80
80
80
80
80
80
80
80
ENDCHAR

STARTCHAR char125
ENCODING 125
SWIDTH 28 0
DWIDTH 4 0
BBX 3 11 1 -2
BITMAP
80
40
40
40
40
20
40
40
40
40
C0
ENDCHAR

STARTCHAR char126
ENCODING 126
SWIDTH 0 0
DWIDTH 0 0
BBX 4 1 0 10
BITMAP
70
ENDCHAR

STARTCHAR char128
ENCODING 128
SWIDTH 50 0
DWIDTH 7 0
BBX 10 9 -2 0
BITMAP
0300
0CC0
3800
7400
2E00
2200
2000
2000
3F80
ENDCHAR

STARTCHAR char130
ENCODING 130
SWIDTH 21 0
DWIDTH 3 0
BBX 2 3 0 -2
BITMAP
40
80
80
ENDCHAR

STARTCHAR char131
ENCODING 131
SWIDTH 0 0
DWIDTH 0 0
BBX 3 2 1 9
BITMAP
C0
A0
ENDCHAR

STARTCHAR char132
ENCODING 132
SWIDTH 28 0
DWIDTH 4 0
BBX 3 3 0 -2
BITMAP
A0
A0
A0
ENDCHAR

STARTCHAR char133
ENCODING 133
SWIDTH 13 0
DWIDTH 12 0
BBX 9 1 2 0
BITMAP
8880
ENDCHAR

STARTCHAR char134
ENCODING 134
SWIDTH 35 0
DWIDTH 5 0
BBX 5 11 0 -2
BITMAP
10
10
10
F8
20
40
40
40
80
80
80
ENDCHAR

STARTCHAR char136
ENCODING 136
SWIDTH 0 0
DWIDTH 0 0
BBX 3 2 -1 6
BITMAP
40
60
ENDCHAR

STARTCHAR char139
ENCODING 139
SWIDTH 28 0
DWIDTH 4 0
BBX 2 5 1 1
BITMAP
40
40
80
40
40
ENDCHAR

STARTCHAR char140
ENCODING 140
SWIDTH 20 0
DWIDTH 13 0
BBX 13 9 -1 0
BITMAP
0638
3928
3148
5140
C1C0
8300
8208
8618
79E0
ENDCHAR

STARTCHAR char145
ENCODING 145
SWIDTH 21 0
DWIDTH 3 0
BBX 2 2 1 7
BITMAP
40
80
ENDCHAR

STARTCHAR char146
ENCODING 146
SWIDTH 21 0
DWIDTH 3 0
BBX 1 2 2 7
BITMAP
80
80
ENDCHAR

STARTCHAR char147
ENCODING 147
SWIDTH 28 0
DWIDTH 4 0
BBX 4 2 1 7
BITMAP
50
A0
ENDCHAR

STARTCHAR char148
ENCODING 148
SWIDTH 28 0
DWIDTH 4 0
BBX 3 2 2 7
BITMAP
A0
A0
ENDCHAR

STARTCHAR char149
ENCODING 149
SWIDTH 28 0
DWIDTH 4 0
BBX 3 3 1 3
BITMAP
E0
E0
E0
ENDCHAR

STARTCHAR char150
ENCODING 150
SWIDTH 43 0
DWIDTH 6 0
BBX 5 1 0 2
BITMAP
F8
ENDCHAR

STARTCHAR char151
ENCODING 151
SWIDTH 57 0
DWIDTH 8 0
BBX 8 1 0 3
BITMAP
FF
ENDCHAR

STARTCHAR char152
ENCODING 152
SWIDTH 0 0
DWIDTH 0 0
BBX 3 1 -1 6
BITMAP
E0
ENDCHAR

STARTCHAR char153
ENCODING 153
SWIDTH 6 0
DWIDTH 11 0
BBX 10 5 0 3
BITMAP
FCC0
4780
4780
4680
6EC0
ENDCHAR

STARTCHAR char155
ENCODING 155
SWIDTH 28 0
DWIDTH 4 0
BBX 2 5 1 1
BITMAP
80
80
40
C0
80
ENDCHAR

STARTCHAR char156
ENCODING 156
SWIDTH 50 0
DWIDTH 7 0
BBX 7 5 0 0
BITMAP
7E
56
9C
B0
DE
ENDCHAR

STARTCHAR char159
ENCODING 159
SWIDTH 6 0
DWIDTH 11 0
BBX 12 12 -1 -2
BITMAP
0280
0E30
3220
4240
84C0
84C0
8940
8A80
0CE0
1F00
0D00
0E00
ENDCHAR

STARTCHAR char160
ENCODING 160
SWIDTH 21 0
DWIDTH 3 0
BBX 0 0 0 0
BITMAP
ENDCHAR

STARTCHAR char161
ENCODING 161
SWIDTH 28 0
DWIDTH 4 0
BBX 3 8 0 0
BITMAP
20
00
20
20
40
40
80
80
ENDCHAR

STARTCHAR char162
ENCODING 162
SWIDTH 28 0
DWIDTH 4 0
BBX 4 7 0 -1
BITMAP
10
70
70
A0
A0
F0
40
ENDCHAR

STARTCHAR char163
ENCODING 163
SWIDTH 57 0
DWIDTH 8 0
BBX 8 9 0 0
BITMAP
06
19
11
10
3C
10
10
F0
FE
ENDCHAR

STARTCHAR char164
ENCODING 164
SWIDTH 0 0
DWIDTH 0 0
BBX 3 2 1 9
BITMAP
C0
80
ENDCHAR

STARTCHAR char165
ENCODING 165
SWIDTH 0 0
DWIDTH 0 0
BBX 3 2 1 9
BITMAP
E0
40
ENDCHAR

STARTCHAR char167
ENCODING 167
SWIDTH 43 0
DWIDTH 6 0
BBX 7 11 -1 -2
BITMAP
0E
12
10
28
48
44
2C
28
10
90
60
ENDCHAR

STARTCHAR char168
ENCODING 168
SWIDTH 0 0
DWIDTH 0 0
BBX 3 1 -1 6
BITMAP
A0
ENDCHAR

STARTCHAR char169
ENCODING 169
SWIDTH 64 0
DWIDTH 9 0
BBX 9 8 0 0
BITMAP
1C00
6300
5C80
A080
A080
A680
5B00
3C00
ENDCHAR

STARTCHAR char170
ENCODING 170
SWIDTH 0 0
DWIDTH 0 0
BBX 3 1 0 9
BITMAP
A0
ENDCHAR

STARTCHAR char171
ENCODING 171
SWIDTH 35 0
DWIDTH 5 0
BBX 4 3 0 1
BITMAP
60
A0
60
ENDCHAR

STARTCHAR char172
ENCODING 172
SWIDTH 57 0
DWIDTH 8 0
BBX 8 4 0 0
BITMAP
FF
01
01
01
ENDCHAR

STARTCHAR char174
ENCODING 174
SWIDTH 64 0
DWIDTH 9 0
BBX 9 8 0 0
BITMAP
1C00
7B00
5500
9480
9880
9C80
7700
3C00
ENDCHAR

STARTCHAR char176
ENCODING 176
SWIDTH 21 0
DWIDTH 3 0
BBX 4 4 1 4
BITMAP
60
90
90
60
ENDCHAR

STARTCHAR char177
ENCODING 177
SWIDTH 43 0
DWIDTH 6 0
BBX 6 8 0 0
BITMAP
10
10
10
FC
10
10
10
FC
ENDCHAR

STARTCHAR char180
ENCODING 180
SWIDTH 0 0
DWIDTH 0 0
BBX 2 2 0 6
BITMAP
40
80
ENDCHAR

STARTCHAR char182
ENCODING 182
SWIDTH 57 0
DWIDTH 8 0
BBX 6 11 1 -2
BITMAP
7C
E8
E8
E8
68
28
28
28
28
28
28
ENDCHAR

STARTCHAR char183
ENCODING 183
SWIDTH 14 0
DWIDTH 2 0
BBX 1 1 1 3
BITMAP
80
ENDCHAR

STARTCHAR char184
ENCODING 184
SWIDTH 0 0
DWIDTH 0 0
BBX 2 3 -2 -2
BITMAP
C0
C0
C0
ENDCHAR

STARTCHAR char186
ENCODING 186
SWIDTH 0 0
DWIDTH 0 0
BBX 4 1 0 10
BITMAP
70
ENDCHAR

STARTCHAR char187
ENCODING 187
SWIDTH 35 0
DWIDTH 5 0
BBX 4 3 0 1
BITMAP
60
50
60
ENDCHAR

STARTCHAR char191
ENCODING 191
SWIDTH 35 0
DWIDTH 5 0
BBX 4 8 0 0
BITMAP
10
00
10
10
20
50
A0
E0
ENDCHAR

STARTCHAR char192
ENCODING 192
SWIDTH 6 0
DWIDTH 11 0
BBX 12 11 -1 0
BITMAP
0100
0080
0020
0060
00A0
00A0
3FE0
6140
42C0
8480
C0F0
ENDCHAR

STARTCHAR char193
ENCODING 193
SWIDTH 6 0
DWIDTH 11 0
BBX 12 11 -1 0
BITMAP
0180
0100
0020
0060
00A0
00A0
3FE0
6140
42C0
8480
C0F0
ENDCHAR

STARTCHAR char194
ENCODING 194
SWIDTH 6 0
DWIDTH 11 0
BBX 12 11 -1 0
BITMAP
0180
0140
0020
0060
00A0
00A0
3FE0
6140
42C0
8480
C0F0
ENDCHAR

STARTCHAR char195
ENCODING 195
SWIDTH 6 0
DWIDTH 11 0
BBX 12 11 -1 0
BITMAP
01C0
0000
0020
0060
00A0
00A0
3FE0
6140
42C0
8480
C0F0
ENDCHAR

STARTCHAR char196
ENCODING 196
SWIDTH 6 0
DWIDTH 11 0
BBX 13 10 -1 0
BITMAP
0028
0020
0060
00A0
00A0
3FE0
6140
42C0
8480
C0F0
ENDCHAR

STARTCHAR char197
ENCODING 197
SWIDTH 6 0
DWIDTH 11 0
BBX 13 12 -1 0
BITMAP
0038
0028
0038
0020
0060
00A0
00A0
3FE0
6140
42C0
8480
C0F0
ENDCHAR

STARTCHAR char198
ENCODING 198
SWIDTH 27 0
DWIDTH 14 0
BBX 14 10 -1 0
BITMAP
0048
00D4
00D4
01E8
01A0
03C0
7F80
4504
890C
F1F0
ENDCHAR

STARTCHAR char199
ENCODING 199
SWIDTH 50 0
DWIDTH 7 0
BBX 8 11 0 -2
BITMAP
0C
33
59
71
A2
C4
B8
80
BE
60
60
ENDCHAR

STARTCHAR char200
ENCODING 200
SWIDTH 50 0
DWIDTH 7 0
BBX 7 11 0 0
BITMAP
0C
04
0E
0A
12
10
20
40
82
86
F8
ENDCHAR

STARTCHAR char201
ENCODING 201
SWIDTH 50 0
DWIDTH 7 0
BBX 7 11 0 0
BITMAP
04
08
0E
0A
12
10
20
40
82
86
F8
ENDCHAR

STARTCHAR char202
ENCODING 202
SWIDTH 50 0
DWIDTH 7 0
BBX 7 11 0 0
BITMAP
04
0A
0E
0A
12
10
20
40
82
86
F8
ENDCHAR

STARTCHAR char203
ENCODING 203
SWIDTH 50 0
DWIDTH 7 0
BBX 7 10 0 0
BITMAP
0A
0E
0A
12
10
20
40
82
86
F8
ENDCHAR

STARTCHAR char204
ENCODING 204
SWIDTH 57 0
DWIDTH 8 0
BBX 9 11 -1 0
BITMAP
0600
0200
1F00
6080
4080
0100
0100
0200
7E00
8580
F800
ENDCHAR

STARTCHAR char205
ENCODING 205
SWIDTH 57 0
DWIDTH 8 0
BBX 9 11 -1 0
BITMAP
0300
0200
1F00
6080
4080
0100
0100
0200
7E00
8580
F800
ENDCHAR

STARTCHAR char206
ENCODING 206
SWIDTH 57 0
DWIDTH 8 0
BBX 9 11 -1 0
BITMAP
0200
0500
1F00
6080
4080
0100
0100
0200
7E00
8580
F800
ENDCHAR

STARTCHAR char207
ENCODING 207
SWIDTH 57 0
DWIDTH 8 0
BBX 9 10 -1 0
BITMAP
0500
1F00
6080
4080
0100
0100
0100
7E00
8580
F800
ENDCHAR

STARTCHAR char209
ENCODING 209
SWIDTH 13 0
DWIDTH 12 0
BBX 12 11 -1 0
BITMAP
01E0
0000
0E10
31E0
2120
4640
8640
8680
8A80
1480
18F0
ENDCHAR

STARTCHAR char210
ENCODING 210
SWIDTH 57 0
DWIDTH 8 0
BBX 7 11 0 0
BITMAP
0C
04
0C
72
62
82
82
82
84
8C
70
ENDCHAR

STARTCHAR char211
ENCODING 211
SWIDTH 57 0
DWIDTH 8 0
BBX 7 11 0 0
BITMAP
04
04
0C
72
62
82
82
82
84
8C
70
ENDCHAR

STARTCHAR char212
ENCODING 212
SWIDTH 57 0
DWIDTH 8 0
BBX 7 11 0 0
BITMAP
04
0A
0C
72
62
82
82
82
84
8C
70
ENDCHAR

STARTCHAR char213
ENCODING 213
SWIDTH 57 0
DWIDTH 8 0
BBX 7 11 0 0
BITMAP
0E
00
0C
72
62
82
82
82
84
8C
70
ENDCHAR

STARTCHAR char214
ENCODING 214
SWIDTH 57 0
DWIDTH 8 0
BBX 7 10 0 0
BITMAP
0C
0C
72
62
82
82
84
84
8C
70
ENDCHAR

STARTCHAR char216
ENCODING 216
SWIDTH 57 0
DWIDTH 8 0
BBX 7 9 0 0
BITMAP
0E
36
56
EA
92
A2
C4
CC
F0
ENDCHAR

STARTCHAR char217
ENCODING 217
SWIDTH 6 0
DWIDTH 11 0
BBX 12 11 -1 0
BITMAP
0300
0080
0F10
3120
6260
4260
84C0
84C0
8980
8A80
0CE0
ENDCHAR

STARTCHAR char218
ENCODING 218
SWIDTH 6 0
DWIDTH 11 0
BBX 12 11 -1 0
BITMAP
0180
0100
0F10
3120
6260
4260
84C0
84C0
8980
8A80
0CE0
ENDCHAR

STARTCHAR char219
ENCODING 219
SWIDTH 6 0
DWIDTH 11 0
BBX 12 11 -1 0
BITMAP
0180
0280
0F10
3120
6260
4260
84C0
84C0
8980
8A80
0CE0
ENDCHAR

STARTCHAR char220
ENCODING 220
SWIDTH 6 0
DWIDTH 11 0
BBX 12 10 -1 0
BITMAP
00A0
0F10
3120
6260
4260
84C0
84C0
8980
8A80
0CE0
ENDCHAR

STARTCHAR char223
ENCODING 223
SWIDTH 50 0
DWIDTH 7 0
BBX 8 11 -1 -2
BITMAP
06
1A
14
18
2C
22
22
26
F9
40
80
ENDCHAR

STARTCHAR char224
ENCODING 224
SWIDTH 43 0
DWIDTH 6 0
BBX 6 8 0 0
BITMAP
20
10
00
78
50
90
B0
DC
ENDCHAR

STARTCHAR char225
ENCODING 225
SWIDTH 43 0
DWIDTH 6 0
BBX 6 8 0 0
BITMAP
18
10
00
78
50
90
B0
DC
ENDCHAR

STARTCHAR char226
ENCODING 226
SWIDTH 43 0
DWIDTH 6 0
BBX 6 8 0 0
BITMAP
10
28
00
78
50
90
B0
DC
ENDCHAR

STARTCHAR char227
ENCODING 227
SWIDTH 43 0
DWIDTH 6 0
BBX 6 7 0 0
BITMAP
38
00
78
50
90
B0
DC
ENDCHAR

STARTCHAR char228
ENCODING 228
SWIDTH 43 0
DWIDTH 6 0
BBX 6 7 0 0
BITMAP
28
00
78
48
90
B0
DC
ENDCHAR

STARTCHAR char229
ENCODING 229
SWIDTH 43 0
DWIDTH 6 0
BBX 6 8 0 0
BITMAP
38
28
38
48
50
90
90
FC
ENDCHAR

STARTCHAR char230
ENCODING 230
SWIDTH 50 0
DWIDTH 7 0
BBX 7 5 0 0
BITMAP
3C
D2
9C
B8
DE
ENDCHAR

STARTCHAR char231
ENCODING 231
SWIDTH 28 0
DWIDTH 4 0
BBX 4 7 0 -2
BITMAP
30
50
60
80
F0
C0
C0
ENDCHAR

STARTCHAR char232
ENCODING 232
SWIDTH 28 0
DWIDTH 4 0
BBX 4 8 0 0
BITMAP
40
40
00
60
60
E0
80
F0
ENDCHAR

STARTCHAR char233
ENCODING 233
SWIDTH 28 0
DWIDTH 4 0
BBX 4 8 0 0
BITMAP
30
20
00
60
60
E0
80
F0
ENDCHAR

STARTCHAR char234
ENCODING 234
SWIDTH 28 0
DWIDTH 4 0
BBX 4 8 0 0
BITMAP
20
60
00
60
60
E0
80
F0
ENDCHAR

STARTCHAR char235
ENCODING 235
SWIDTH 28 0
DWIDTH 4 0
BBX 4 7 0 0
BITMAP
60
00
60
60
E0
80
F0
ENDCHAR

STARTCHAR char236
ENCODING 236
SWIDTH 21 0
DWIDTH 3 0
BBX 3 8 0 0
BITMAP
80
40
00
40
40
80
80
C0
ENDCHAR

STARTCHAR char237
ENCODING 237
SWIDTH 21 0
DWIDTH 3 0
BBX 3 8 0 0
BITMAP
20
40
00
40
40
80
80
C0
ENDCHAR

STARTCHAR char238
ENCODING 238
SWIDTH 21 0
DWIDTH 3 0
BBX 3 8 0 0
BITMAP
40
60
00
40
40
80
80
C0
ENDCHAR

STARTCHAR char239
ENCODING 239
SWIDTH 21 0
DWIDTH 3 0
BBX 3 7 0 0
BITMAP
A0
00
40
40
80
80
C0
ENDCHAR

STARTCHAR char241
ENCODING 241
SWIDTH 43 0
DWIDTH 6 0
BBX 6 7 0 0
BITMAP
70
00
70
B0
D0
A0
BC
ENDCHAR

STARTCHAR char242
ENCODING 242
SWIDTH 35 0
DWIDTH 5 0
BBX 5 8 0 0
BITMAP
60
20
00
70
70
B0
B8
C0
ENDCHAR

STARTCHAR char243
ENCODING 243
SWIDTH 35 0
DWIDTH 5 0
BBX 5 8 0 0
BITMAP
10
10
00
70
70
B0
B8
C0
ENDCHAR

STARTCHAR char244
ENCODING 244
SWIDTH 35 0
DWIDTH 5 0
BBX 5 8 0 0
BITMAP
10
30
00
70
70
B0
B8
C0
ENDCHAR

STARTCHAR char245
ENCODING 245
SWIDTH 35 0
DWIDTH 5 0
BBX 5 7 0 0
BITMAP
70
00
70
70
B0
B8
C0
ENDCHAR

STARTCHAR char246
ENCODING 246
SWIDTH 35 0
DWIDTH 5 0
BBX 5 7 0 0
BITMAP
50
00
70
70
B0
B8
C0
ENDCHAR

STARTCHAR char247
ENCODING 247
SWIDTH 43 0
DWIDTH 6 0
BBX 6 4 0 1
BITMAP
20
FC
00
20
ENDCHAR

STARTCHAR char248
ENCODING 248
SWIDTH 35 0
DWIDTH 5 0
BBX 5 6 0 0
BITMAP
28
70
70
D0
E8
E0
ENDCHAR

STARTCHAR char249
ENCODING 249
SWIDTH 43 0
DWIDTH 6 0
BBX 6 8 0 0
BITMAP
20
20
00
48
50
50
90
F8
ENDCHAR

STARTCHAR char250
ENCODING 250
SWIDTH 43 0
DWIDTH 6 0
BBX 6 8 0 0
BITMAP
10
10
00
48
50
50
90
F8
ENDCHAR

STARTCHAR char251
ENCODING 251
SWIDTH 43 0
DWIDTH 6 0
BBX 6 8 0 0
BITMAP
10
30
00
48
50
50
90
F8
ENDCHAR

STARTCHAR char252
ENCODING 252
SWIDTH 43 0
DWIDTH 6 0
BBX 6 7 0 0
BITMAP
30
00
50
50
50
90
F8
ENDCHAR

STARTCHAR char255
ENCODING 255
SWIDTH 43 0
DWIDTH 6 0
BBX 6 9 0 -2
BITMAP
50
00
50
50
90
90
F8
20
C0
ENDCHAR

ENDFONT
