STARTFONT 2.1
FONT -sun-chevaraoutline-medium-r-normal--20-200-75-75-p-167-adobe-fontspecific
SIZE 20 75 75
FONTBOUNDINGBOX 42 28 -6 -6

STARTPROPERTIES 28
FOUNDRY "sun"
FAMILY_NAME "chevaraoutline"
WEIGHT_NAME "medium"
SLANT "r"
SETWIDTH_NAME "normal"
ADD_STYLE_NAME ""
PIXEL_SIZE 21
POINT_SIZE 200
RESOLUTION_X 75
RESOLUTION_Y 75
SPACING "p"
AVERAGE_WIDTH 167
CHARSET_REGISTRY "adobe"
CHARSET_ENCODING "fontspecific"
COPYRIGHT "© 1999 Sun Microsystems, Inc."
RAW_PIXELSIZE 1000
RAW_POINTSIZE 964
RAW_ASCENT 1047
RAW_DESCENT 285
RAW_AVERAGE_WIDTH 8051
FACE_NAME "ChevaraOutlineNormal¿ŸD@5"
_XMBDFED_INFO "Edited with xmbdfed 2.4."
WEIGHT 10
X_HEIGHT -2
QUAD_WIDTH 17
DEFAULT_CHAR 4
FONT_DESCENT 6
FONT_ASCENT 22
ENDPROPERTIES

CHARS 202

STARTCHAR char32
ENCODING 32
SWIDTH 3 0
DWIDTH 11 0
BBX 0 0 0 0
BITMAP
ENDCHAR

STARTCHAR char33
ENCODING 33
SWIDTH 34 0
DWIDTH 8 0
BBX 5 15 3 0
BITMAP
70
98
98
98
98
58
70
30
20
20
00
70
98
98
70
ENDCHAR

STARTCHAR char34
ENCODING 34
SWIDTH 3 0
DWIDTH 11 0
BBX 9 6 2 9
BITMAP
6300
9480
D680
3180
2100
4200
ENDCHAR

STARTCHAR char35
ENCODING 35
SWIDTH 8 0
DWIDTH 12 0
BBX 10 15 1 0
BITMAP
1980
1100
1100
1100
FFC0
3300
3300
3300
2200
FF80
FF80
2200
6600
6600
6600
ENDCHAR

STARTCHAR char36
ENCODING 36
SWIDTH 3 0
DWIDTH 21 0
BBX 18 20 5 -3
BITMAP
012000
012000
1FE100
313B00
612500
A12700
B92100
9FA100
83FE00
C12780
392180
87E0C0
C13EC0
E12240
B12180
AF2180
C1FE00
012000
012000
012000
ENDCHAR

STARTCHAR char37
ENCODING 37
SWIDTH 41 0
DWIDTH 30 0
BBX 28 15 5 0
BITMAP
1F002000
29C02000
51404000
9120C000
91208000
91210F80
91223940
514628A0
29C458B0
1F0858B0
001858B0
001058B0
002028A0
00403960
00400F80
ENDCHAR

STARTCHAR char38
ENCODING 38
SWIDTH 3 0
DWIDTH 21 0
BBX 19 15 5 0
BITMAP
07E000
0B1000
131000
131000
119000
09A000
08CFE0
1C6280
727300
913200
911C00
988C00
9C4C00
CCE600
3F1FE0
ENDCHAR

STARTCHAR char39
ENCODING 39
SWIDTH 25 0
DWIDTH 6 0
BBX 3 6 2 9
BITMAP
40
C0
A0
A0
A0
40
ENDCHAR

STARTCHAR char40
ENCODING 40
SWIDTH 38 0
DWIDTH 9 0
BBX 7 15 3 0
BITMAP
06
1C
38
58
70
B0
B0
B0
B0
B0
B0
58
58
3C
0E
ENDCHAR

STARTCHAR char41
ENCODING 41
SWIDTH 38 0
DWIDTH 9 0
BBX 8 15 1 0
BITMAP
60
38
2C
16
12
13
13
13
13
13
12
16
24
38
70
ENDCHAR

STARTCHAR char42
ENCODING 42
SWIDTH 30 0
DWIDTH 7 0
BBX 7 6 1 9
BITMAP
10
10
D6
38
28
28
ENDCHAR

STARTCHAR char43
ENCODING 43
SWIDTH 16 0
DWIDTH 14 0
BBX 12 12 3 0
BITMAP
0200
0200
0200
0200
0200
FFF0
0200
0200
0200
0200
0200
0200
ENDCHAR

STARTCHAR char44
ENCODING 44
SWIDTH 25 0
DWIDTH 6 0
BBX 4 7 2 -3
BITMAP
60
90
90
D0
20
60
40
ENDCHAR

STARTCHAR char45
ENCODING 45
SWIDTH 43 0
DWIDTH 10 0
BBX 9 1 2 6
BITMAP
FF80
ENDCHAR

STARTCHAR char46
ENCODING 46
SWIDTH 25 0
DWIDTH 6 0
BBX 5 4 2 0
BITMAP
70
98
98
F8
ENDCHAR

STARTCHAR char47
ENCODING 47
SWIDTH 8 0
DWIDTH 12 0
BBX 12 15 2 0
BITMAP
0010
0020
0040
0080
0080
0100
0200
0400
0400
0800
1000
2000
2000
4000
8000
ENDCHAR

STARTCHAR char48
ENCODING 48
SWIDTH 42 0
DWIDTH 20 0
BBX 17 15 4 0
BITMAP
03F000
1E2C00
241600
2C1300
4C1300
8C1180
8C1180
8C1180
8C1180
8C1180
4C1180
4C1300
241600
1E1C00
07F000
ENDCHAR

STARTCHAR char49
ENCODING 49
SWIDTH 16 0
DWIDTH 14 0
BBX 12 15 3 0
BITMAP
0300
1F00
E300
2300
1300
1300
1300
1300
1300
1300
1300
1300
1300
1300
FFF0
ENDCHAR

STARTCHAR char50
ENCODING 50
SWIDTH 33 0
DWIDTH 18 0
BBX 15 15 4 0
BITMAP
1FE0
6098
408C
F88E
CC8E
8C8E
CC9C
3930
07C0
0802
3FFE
4006
8006
8006
FFFE
ENDCHAR

STARTCHAR char51
ENCODING 51
SWIDTH 38 0
DWIDTH 19 0
BBX 15 15 4 0
BITMAP
1FF0
704C
9846
9846
9846
704C
0098
0FF0
004C
7046
9846
9846
9846
604C
3FF0
ENDCHAR

STARTCHAR char52
ENCODING 52
SWIDTH 38 0
DWIDTH 19 0
BBX 17 15 3 0
BITMAP
000800
003800
005800
009800
019800
069800
089800
109800
209800
409800
FF9F80
009800
009800
009800
07FF80
ENDCHAR

STARTCHAR char53
ENCODING 53
SWIDTH 33 0
DWIDTH 18 0
BBX 16 15 3 0
BITMAP
3FFF
4006
401C
4070
7F80
47E0
7858
4024
0026
3023
C823
8823
8826
7024
1FF8
ENDCHAR

STARTCHAR char54
ENCODING 54
SWIDTH 38 0
DWIDTH 19 0
BBX 16 15 4 0
BITMAP
03F8
1E26
2422
4422
4C1C
8CF0
8F2C
8C16
8C13
8C11
4C11
4C11
2413
1E16
07F8
ENDCHAR

STARTCHAR char55
ENCODING 55
SWIDTH 29 0
DWIDTH 17 0
BBX 15 15 4 0
BITMAP
FFFE
800E
800C
8018
FFF0
8050
80A0
0160
0240
02C0
04C0
0980
1180
1180
3F80
ENDCHAR

STARTCHAR char56
ENCODING 56
SWIDTH 38 0
DWIDTH 19 0
BBX 16 15 4 0
BITMAP
0FF0
300C
5002
9802
8F02
87C4
40F8
201C
3C06
C383
C061
C011
4009
200E
1FF8
ENDCHAR

STARTCHAR char57
ENCODING 57
SWIDTH 38 0
DWIDTH 19 0
BBX 16 15 4 0
BITMAP
0FE0
3C58
482C
8826
8826
8823
8823
4823
3C63
0FA3
3822
4426
4424
2438
1FE0
ENDCHAR

STARTCHAR char58
ENCODING 58
SWIDTH 34 0
DWIDTH 8 0
BBX 5 10 3 0
BITMAP
70
58
58
70
00
00
70
98
98
70
ENDCHAR

STARTCHAR char59
ENCODING 59
SWIDTH 34 0
DWIDTH 8 0
BBX 5 13 3 -3
BITMAP
70
88
88
70
00
00
70
98
88
58
30
30
40
ENDCHAR

STARTCHAR char60
ENCODING 60
SWIDTH 16 0
DWIDTH 14 0
BBX 11 11 1 0
BITMAP
0020
00E0
0380
1E00
7000
C000
E000
3C00
0700
01C0
0060
ENDCHAR

STARTCHAR char61
ENCODING 61
SWIDTH 16 0
DWIDTH 14 0
BBX 14 4 2 4
BITMAP
FFFC
0000
0000
FFFC
ENDCHAR

STARTCHAR char62
ENCODING 62
SWIDTH 16 0
DWIDTH 14 0
BBX 11 11 1 0
BITMAP
8000
E000
3800
0E00
0380
00E0
01C0
0700
1C00
7000
C000
ENDCHAR

STARTCHAR char63
ENCODING 63
SWIDTH 12 0
DWIDTH 13 0
BBX 10 15 3 0
BITMAP
3E00
4180
E140
9140
9240
EC40
08C0
0B80
0F00
0800
0000
1C00
2600
2600
1E00
ENDCHAR

STARTCHAR char64
ENCODING 64
SWIDTH 11 0
DWIDTH 23 0
BBX 15 15 3 0
BITMAP
07E0
1838
300C
6394
6672
CC62
D822
D822
D866
D844
4CC8
6770
3004
1818
07E0
ENDCHAR

STARTCHAR char65
ENCODING 65
SWIDTH 7 0
DWIDTH 22 0
BBX 22 15 3 0
BITMAP
003000
003000
005800
005800
008C00
018C00
014600
024600
022300
042180
07F180
0808C0
1808C0
2C0860
FF3FFC
ENDCHAR

STARTCHAR char66
ENCODING 66
SWIDTH 7 0
DWIDTH 22 0
BBX 19 15 4 0
BITMAP
FFFE00
110980
1104C0
110460
110460
110460
1108C0
11F300
1188C0
118460
118460
118460
118460
1184C0
7FFF80
ENDCHAR

STARTCHAR char67
ENCODING 67
SWIDTH 42 0
DWIDTH 20 0
BBX 18 15 4 0
BITMAP
03F980
1F0680
260280
260180
4C0080
8C0080
8C0000
8C0000
8C0000
8C0000
4C0080
460080
260100
1B0600
07F800
ENDCHAR

STARTCHAR char68
ENCODING 68
SWIDTH 16 0
DWIDTH 24 0
BBX 21 15 4 0
BITMAP
FFFE00
118580
118260
118170
118130
118118
118118
118118
118118
118118
118130
118130
118260
1185C0
FFFF00
ENDCHAR

STARTCHAR char69
ENCODING 69
SWIDTH 3 0
DWIDTH 21 0
BBX 18 15 4 0
BITMAP
FFFFC0
1304C0
1302C0
1301C0
1308C0
130800
13F800
133800
130800
130840
130040
1300C0
1303C0
1302C0
FFFFC0
ENDCHAR

STARTCHAR char70
ENCODING 70
SWIDTH 42 0
DWIDTH 20 0
BBX 18 15 4 0
BITMAP
FFFFC0
2306C0
1301C0
1301C0
1308C0
130840
133800
13C800
133800
130800
130000
130000
130000
130000
FFE000
ENDCHAR

STARTCHAR char71
ENCODING 71
SWIDTH 16 0
DWIDTH 24 0
BBX 21 15 5 0
BITMAP
07F980
1B0680
260280
440180
4C0080
8C0080
8C0000
8C0000
8C3FF8
8C04C0
4C04C0
4404C0
2604C0
1F08C0
07F740
ENDCHAR

STARTCHAR char72
ENCODING 72
SWIDTH 24 0
DWIDTH 26 0
BBX 24 15 4 0
BITMAP
FFF7FF
118118
098118
098118
098118
098118
098118
09FF18
098118
098118
098118
098118
098118
098118
FFF7FF
ENDCHAR

STARTCHAR char73
ENCODING 73
SWIDTH 16 0
DWIDTH 14 0
BBX 12 15 3 0
BITMAP
FFF0
1300
1300
1300
1300
1300
1300
1300
1300
1300
1300
1300
1300
1300
FFF0
ENDCHAR

STARTCHAR char74
ENCODING 74
SWIDTH 25 0
DWIDTH 16 0
BBX 15 15 3 0
BITMAP
1FFE
0230
0230
0230
0230
0230
0230
0230
0230
7230
9A30
9A30
9A20
F260
3F80
ENDCHAR

STARTCHAR char75
ENCODING 75
SWIDTH 24 0
DWIDTH 26 0
BBX 25 15 4 0
BITMAP
FFF7FF00
1980B800
0980E000
09808000
09830000
09840000
098E0000
09B30000
09D18000
0990C000
0988E000
09847000
09823000
09811C00
FFF7FF80
ENDCHAR

STARTCHAR char76
ENCODING 76
SWIDTH 3 0
DWIDTH 21 0
BBX 18 15 4 0
BITMAP
FFF000
138000
130000
130000
130000
130000
130000
130000
130000
130040
130040
1300C0
1303C0
1304C0
FFFFC0
ENDCHAR

STARTCHAR char77
ENCODING 77
SWIDTH 37 0
DWIDTH 29 0
BBX 27 15 5 0
BITMAP
FF803FE0
11807300
11C05300
18C0E300
1460A300
1270A300
12312300
11392300
111A2300
108C2300
108C2300
10482300
10282300
38282300
FE11FFE0
ENDCHAR

STARTCHAR char78
ENCODING 78
SWIDTH 11 0
DWIDTH 23 0
BBX 21 15 4 0
BITMAP
FF83F8
21C0E0
10E040
187040
143840
131C40
108E40
104740
1023C0
1011C0
1008C0
100440
100240
380140
FE00C0
ENDCHAR

STARTCHAR char79
ENCODING 79
SWIDTH 16 0
DWIDTH 24 0
BBX 20 15 5 0
BITMAP
0FFE00
130900
2604C0
460460
4C0460
8C0430
8C0430
8C0230
8C0230
8C0230
4C0270
460260
2604C0
1F0980
07FE00
ENDCHAR

STARTCHAR char80
ENCODING 80
SWIDTH 7 0
DWIDTH 22 0
BBX 20 15 4 0
BITMAP
FFFF00
1182E0
118260
118230
118230
118230
118260
1182E0
11FF00
118000
118000
118000
118000
118000
FFF000
ENDCHAR

STARTCHAR char81
ENCODING 81
SWIDTH 16 0
DWIDTH 24 0
BBX 21 17 5 -2
BITMAP
0FFC00
130B00
2604C0
460460
4C0260
8C0230
8C0230
8C0230
8C0230
8C3A30
4C4460
467460
2610C8
1B0988
0788F8
01FE30
0001E0
ENDCHAR

STARTCHAR char82
ENCODING 82
SWIDTH 7 0
DWIDTH 22 0
BBX 20 15 4 0
BITMAP
FFFF00
1189C0
1184E0
118460
118460
118460
11B9C0
11C600
112600
112300
111300
111180
110880
118CC0
FFE7F0
ENDCHAR

STARTCHAR char83
ENCODING 83
SWIDTH 3 0
DWIDTH 21 0
BBX 18 15 5 0
BITMAP
0FC100
303B00
600500
A00300
B80100
9FE100
83FE00
400780
300180
4FC0C0
403C40
600240
700140
6E0180
41FE00
ENDCHAR

STARTCHAR char84
ENCODING 84
SWIDTH 3 0
DWIDTH 21 0
BBX 19 15 4 0
BITMAP
FFFFE0
9A3260
A23160
C230E0
C23060
823060
823020
023000
023000
023000
023000
023000
023000
023000
1FFE00
ENDCHAR

STARTCHAR char85
ENCODING 85
SWIDTH 7 0
DWIDTH 22 0
BBX 20 15 4 0
BITMAP
FFE7F0
230160
2301C0
230080
130080
130080
130080
130080
130080
130080
130080
130080
0B0080
0D8300
03FC00
ENDCHAR

STARTCHAR char86
ENCODING 86
SWIDTH 7 0
DWIDTH 22 0
BBX 22 16 3 -1
BITMAP
FFF3FC
118090
0980A0
08C040
04E040
046080
023080
023100
011900
009E00
008C00
004400
004800
002800
003000
001000
ENDCHAR

STARTCHAR char87
ENCODING 87
SWIDTH 6 0
DWIDTH 32 0
BBX 31 15 5 0
BITMAP
FFEFFDFE
21843058
11823050
08811820
08C31820
04628C40
04624C40
02344640
02342680
01182300
01101300
00901200
00900A00
00500A00
00600C00
ENDCHAR

STARTCHAR char88
ENCODING 88
SWIDTH 11 0
DWIDTH 23 0
BBX 23 15 3 0
BITMAP
7FF3FC
10C160
08E080
046100
023200
021C00
010C00
008600
004700
00A380
011180
0208C0
060860
1A0430
FFCFFE
ENDCHAR

STARTCHAR char89
ENCODING 89
SWIDTH 7 0
DWIDTH 22 0
BBX 22 15 3 0
BITMAP
FFF3FC
11C0B0
08C0C0
08C080
046080
043100
023A00
011A00
010C00
008C00
008C00
008C00
008C00
008C00
07FF80
ENDCHAR

STARTCHAR char90
ENCODING 90
SWIDTH 38 0
DWIDTH 19 0
BBX 17 15 3 0
BITMAP
7FFF80
5C2300
704700
608600
410C00
411800
023800
043000
086000
08C100
11C300
218500
430D00
470900
FFFF00
ENDCHAR

STARTCHAR char91
ENCODING 91
SWIDTH 3 0
DWIDTH 11 0
BBX 7 15 4 0
BITMAP
FE
90
90
90
90
90
90
90
90
90
90
90
90
90
FE
ENDCHAR

STARTCHAR char92
ENCODING 92
SWIDTH 25 0
DWIDTH 6 0
BBX 6 15 0 0
BITMAP
80
C0
40
40
60
20
20
30
10
10
18
08
08
0C
04
ENDCHAR

STARTCHAR char93
ENCODING 93
SWIDTH 3 0
DWIDTH 11 0
BBX 7 15 2 0
BITMAP
FE
12
12
12
12
12
12
12
12
12
12
12
12
12
FE
ENDCHAR

STARTCHAR char94
ENCODING 94
SWIDTH 0 0
DWIDTH 0 0
BBX 7 4 -3 16
BITMAP
38
6C
96
8E
ENDCHAR

STARTCHAR char95
ENCODING 95
SWIDTH 8 0
DWIDTH 12 0
BBX 12 1 0 -3
BITMAP
FFF0
ENDCHAR

STARTCHAR char96
ENCODING 96
SWIDTH 0 0
DWIDTH 0 0
BBX 5 4 -4 13
BITMAP
70
30
18
08
ENDCHAR

STARTCHAR char97
ENCODING 97
SWIDTH 38 0
DWIDTH 19 0
BBX 18 12 3 0
BITMAP
008000
01C000
014000
026000
033000
049000
049800
088800
0FCC00
106600
782600
FEFFC0
ENDCHAR

STARTCHAR char98
ENCODING 98
SWIDTH 38 0
DWIDTH 19 0
BBX 16 12 3 0
BITMAP
3FFC
1212
1213
1213
1237
13CC
1226
1213
1213
1213
1213
7FFE
ENDCHAR

STARTCHAR char99
ENCODING 99
SWIDTH 25 0
DWIDTH 16 0
BBX 15 12 3 0
BITMAP
0FF6
340A
4406
4C02
8C02
8C00
8C00
8C00
4C04
2404
1E18
0FE0
ENDCHAR

STARTCHAR char100
ENCODING 100
SWIDTH 42 0
DWIDTH 20 0
BBX 17 12 4 0
BITMAP
FFFC00
241600
240B00
240980
240980
240980
240980
240980
240900
240B00
241600
FFF800
ENDCHAR

STARTCHAR char101
ENCODING 101
SWIDTH 33 0
DWIDTH 18 0
BBX 15 12 4 0
BITMAP
7FFE
241E
2406
2422
24E0
2720
24E0
2422
2402
241E
2412
FFFE
ENDCHAR

STARTCHAR char102
ENCODING 102
SWIDTH 25 0
DWIDTH 16 0
BBX 15 12 3 0
BITMAP
FFFE
120A
1206
1222
1260
13A0
1260
1220
1200
1200
1200
7F80
ENDCHAR

STARTCHAR char103
ENCODING 103
SWIDTH 38 0
DWIDTH 19 0
BBX 17 12 4 0
BITMAP
1FEC00
641C00
480C00
880400
980000
980000
98FF80
982200
582200
4C2200
3E2200
0FFE00
ENDCHAR

STARTCHAR char104
ENCODING 104
SWIDTH 3 0
DWIDTH 21 0
BBX 19 12 4 0
BITMAP
FFBFE0
220900
220900
220900
220900
23F900
220900
220900
220900
220900
220900
FFBFE0
ENDCHAR

STARTCHAR char105
ENCODING 105
SWIDTH 3 0
DWIDTH 11 0
BBX 10 12 2 0
BITMAP
FFC0
1200
1200
1200
1200
1200
1200
1200
1200
1200
1200
3F80
ENDCHAR

STARTCHAR char106
ENCODING 106
SWIDTH 16 0
DWIDTH 14 0
BBX 13 12 2 0
BITMAP
1FF8
0240
0240
0240
0240
0240
0240
6240
9240
9240
E280
3F80
ENDCHAR

STARTCHAR char107
ENCODING 107
SWIDTH 3 0
DWIDTH 21 0
BBX 20 12 4 0
BITMAP
3E0FE0
220E00
220C00
221000
223000
22D800
238C00
224C00
222600
221300
221180
FFBFF0
ENDCHAR

STARTCHAR char108
ENCODING 108
SWIDTH 29 0
DWIDTH 17 0
BBX 14 12 4 0
BITMAP
7F80
2600
2600
2600
2600
2600
2600
2604
2604
261C
2634
FFFC
ENDCHAR

STARTCHAR char109
ENCODING 109
SWIDTH 16 0
DWIDTH 24 0
BBX 23 12 4 0
BITMAP
3E01F0
1302A0
1982A0
188320
14C520
126520
126920
113120
109120
10A120
30A120
FC47FE
ENDCHAR

STARTCHAR char110
ENCODING 110
SWIDTH 38 0
DWIDTH 19 0
BBX 18 12 3 0
BITMAP
3F07C0
118300
18C100
166100
113100
109D00
104F00
102700
101100
100900
380500
FE0700
ENDCHAR

STARTCHAR char111
ENCODING 111
SWIDTH 38 0
DWIDTH 19 0
BBX 17 12 4 0
BITMAP
1FF800
2C2400
4C1200
981300
981180
981180
981180
981180
581300
4C2200
342400
0FF800
ENDCHAR

STARTCHAR char112
ENCODING 112
SWIDTH 38 0
DWIDTH 19 0
BBX 17 12 3 0
BITMAP
FFFE00
120980
120980
120980
120980
120B00
13FC00
130000
130000
130000
130000
FFC000
ENDCHAR

STARTCHAR char113
ENCODING 113
SWIDTH 38 0
DWIDTH 19 0
BBX 17 14 4 -2
BITMAP
1FF800
2C2600
4C1300
981300
981180
981180
981180
98D180
593300
4DD200
344480
0FE780
001180
000F00
ENDCHAR

STARTCHAR char114
ENCODING 114
SWIDTH 38 0
DWIDTH 19 0
BBX 17 12 3 0
BITMAP
3FFE00
121300
121300
121300
127600
13B800
124800
124C00
122400
122600
123200
FF9F80
ENDCHAR

STARTCHAR char115
ENCODING 115
SWIDTH 33 0
DWIDTH 18 0
BBX 15 12 4 0
BITMAP
7FE8
C018
E018
BC08
9FE0
4078
300C
4FC2
4032
A00A
FC0C
43F8
ENDCHAR

STARTCHAR char116
ENCODING 116
SWIDTH 29 0
DWIDTH 17 0
BBX 15 12 3 0
BITMAP
FFFE
A246
C246
8442
8442
0440
0440
0440
0440
0440
0440
1FF8
ENDCHAR

STARTCHAR char117
ENCODING 117
SWIDTH 38 0
DWIDTH 19 0
BBX 17 12 3 0
BITMAP
FFCF80
120600
120200
120200
120200
120200
120200
120200
120200
120200
0B0C00
07F000
ENDCHAR

STARTCHAR char118
ENCODING 118
SWIDTH 38 0
DWIDTH 19 0
BBX 18 12 3 0
BITMAP
FFDFC0
230500
130200
098400
098400
04C800
044800
027000
012000
012000
00C000
008000
ENDCHAR

STARTCHAR char119
ENCODING 119
SWIDTH 24 0
DWIDTH 26 0
BBX 24 12 5 0
BITMAP
FC7F1F
4C1314
261108
161988
131888
0B2490
09A450
04C260
048220
028140
028140
0301C0
ENDCHAR

STARTCHAR char120
ENCODING 120
SWIDTH 38 0
DWIDTH 19 0
BBX 19 12 3 0
BITMAP
3F0FE0
130400
098800
08D000
046000
023000
011000
029800
044C00
082600
382300
FF3FE0
ENDCHAR

STARTCHAR char121
ENCODING 121
SWIDTH 38 0
DWIDTH 19 0
BBX 16 12 3 0
BITMAP
FF87
2306
1184
0988
08C8
0478
0420
0220
0220
0220
0220
0FFC
ENDCHAR

STARTCHAR char122
ENCODING 122
SWIDTH 25 0
DWIDTH 16 0
BBX 14 12 3 0
BITMAP
FFFC
A118
C110
8220
0460
08C0
1180
2108
4218
4628
8C48
FFF8
ENDCHAR

STARTCHAR char123
ENCODING 123
SWIDTH 34 0
DWIDTH 8 0
BBX 5 19 1 -4
BITMAP
38
70
60
60
20
20
20
60
40
80
60
60
60
60
60
60
60
70
38
ENDCHAR

STARTCHAR char124
ENCODING 124
SWIDTH 25 0
DWIDTH 6 0
BBX 2 15 2 0
BITMAP
C0
C0
C0
C0
C0
C0
C0
C0
C0
C0
C0
C0
C0
C0
C0
ENDCHAR

STARTCHAR char125
ENCODING 125
SWIDTH 34 0
DWIDTH 8 0
BBX 5 19 1 -4
BITMAP
C0
20
20
20
30
30
30
30
10
08
10
30
30
30
30
30
30
70
E0
ENDCHAR

STARTCHAR char126
ENCODING 126
SWIDTH 0 0
DWIDTH 0 0
BBX 12 4 -6 16
BITMAP
1C10
6F10
7FA0
83C0
ENDCHAR

STARTCHAR char128
ENCODING 128
SWIDTH 42 0
DWIDTH 20 0
BBX 20 15 2 0
BITMAP
00FE60
07C1A0
0980A0
098060
130020
7FFE20
230000
230000
FFFC00
230000
130020
118020
098040
06C180
01FE00
ENDCHAR

STARTCHAR char130
ENCODING 130
SWIDTH 25 0
DWIDTH 6 0
BBX 4 7 2 -3
BITMAP
60
90
90
D0
20
60
40
ENDCHAR

STARTCHAR char131
ENCODING 131
SWIDTH 0 0
DWIDTH 0 0
BBX 7 4 -3 16
BITMAP
38
6C
96
8E
ENDCHAR

STARTCHAR char132
ENCODING 132
SWIDTH 3 0
DWIDTH 11 0
BBX 9 6 2 -2
BITMAP
2300
5580
9480
5680
3180
2100
ENDCHAR

STARTCHAR char133
ENCODING 133
SWIDTH 7 0
DWIDTH 22 0
BBX 16 2 2 0
BITMAP
C183
C183
ENDCHAR

STARTCHAR char134
ENCODING 134
SWIDTH 12 0
DWIDTH 13 0
BBX 10 10 3 3
BITMAP
3F00
0A00
8C40
C440
E5C0
9F40
E4C0
8440
0E00
3F00
ENDCHAR

STARTCHAR char136
ENCODING 136
SWIDTH 0 0
DWIDTH 0 0
BBX 7 4 -3 13
BITMAP
38
68
54
9C
ENDCHAR

STARTCHAR char139
ENCODING 139
SWIDTH 30 0
DWIDTH 7 0
BBX 3 7 2 2
BITMAP
20
60
C0
80
E0
60
20
ENDCHAR

STARTCHAR char140
ENCODING 140
SWIDTH 15 0
DWIDTH 34 0
BBX 30 15 6 0
BITMAP
07FC0000
1903FFFC
3302302C
2202301C
4602308C
46023084
86023380
86023C80
86023380
86023080
46023004
4602300C
3302303C
0D02304C
03FFFFFC
ENDCHAR

STARTCHAR char142
ENCODING 142
SWIDTH 3 0
DWIDTH 21 0
BBX 0 0 0 0
BITMAP
ENDCHAR

STARTCHAR char144
ENCODING 144
SWIDTH 3 0
DWIDTH 21 0
BBX 0 0 0 0
BITMAP
ENDCHAR

STARTCHAR char145
ENCODING 145
SWIDTH 25 0
DWIDTH 6 0
BBX 3 6 2 9
BITMAP
40
C0
A0
A0
A0
40
ENDCHAR

STARTCHAR char146
ENCODING 146
SWIDTH 25 0
DWIDTH 6 0
BBX 4 6 1 9
BITMAP
60
90
D0
30
20
40
ENDCHAR

STARTCHAR char147
ENCODING 147
SWIDTH 3 0
DWIDTH 11 0
BBX 9 6 2 9
BITMAP
2100
4200
A500
9480
9480
6300
ENDCHAR

STARTCHAR char148
ENCODING 148
SWIDTH 3 0
DWIDTH 11 0
BBX 9 6 2 9
BITMAP
6300
9480
D680
3180
2100
4200
ENDCHAR

STARTCHAR char149
ENCODING 149
SWIDTH 30 0
DWIDTH 7 0
BBX 5 5 1 5
BITMAP
70
F8
F8
F8
70
ENDCHAR

STARTCHAR char150
ENCODING 150
SWIDTH 42 0
DWIDTH 20 0
BBX 16 1 4 6
BITMAP
FFFF
ENDCHAR

STARTCHAR char151
ENCODING 151
SWIDTH 16 0
DWIDTH 14 0
BBX 14 1 2 6
BITMAP
FFFC
ENDCHAR

STARTCHAR char152
ENCODING 152
SWIDTH 0 0
DWIDTH 0 0
BBX 10 4 -5 13
BITMAP
3840
6EC0
9FC0
8300
ENDCHAR

STARTCHAR char153
ENCODING 153
SWIDTH 37 0
DWIDTH 29 0
BBX 27 13 5 9
BITMAP
FFFE01E0
CCE60380
8C270380
8C270380
0C058580
0C058580
0C04C980
0C04C980
0C04C980
0C047180
0C047180
0C042180
1F1E23E0
ENDCHAR

STARTCHAR char155
ENCODING 155
SWIDTH 30 0
DWIDTH 7 0
BBX 3 7 2 2
BITMAP
80
C0
60
20
E0
80
80
ENDCHAR

STARTCHAR char156
ENCODING 156
SWIDTH 33 0
DWIDTH 28 0
BBX 25 12 5 0
BITMAP
1FF3FF80
24090380
44090180
4C090880
8C093800
8C09C800
8C093800
8C090880
4C090080
24090380
16090C80
0FFFFF80
ENDCHAR

STARTCHAR char159
ENCODING 159
SWIDTH 7 0
DWIDTH 22 0
BBX 22 20 3 0
BITMAP
008400
035A00
02D200
01CC00
000000
FFF3FC
11C0B0
08C0C0
08C080
046080
027100
023A00
011A00
011C00
009C00
009C00
009C00
009C00
008C00
07FF80
ENDCHAR

STARTCHAR char160
ENCODING 160
SWIDTH 33 0
DWIDTH 18 0
BBX 0 0 0 0
BITMAP
ENDCHAR

STARTCHAR char161
ENCODING 161
SWIDTH 34 0
DWIDTH 8 0
BBX 5 15 2 0
BITMAP
F0
98
98
F0
00
20
20
70
70
B0
98
98
98
98
F8
ENDCHAR

STARTCHAR char162
ENCODING 162
SWIDTH 25 0
DWIDTH 16 0
BBX 15 17 3 -3
BITMAP
0080
0080
0FF6
348A
4486
4C82
8C82
8C80
8C80
8C80
4C84
2484
1488
0FF0
0080
0080
0080
ENDCHAR

STARTCHAR char163
ENCODING 163
SWIDTH 42 0
DWIDTH 20 0
BBX 18 15 3 0
BITMAP
01FF00
0681C0
098240
118240
118240
118180
118000
71FE00
118000
118040
118040
1180C0
118340
118440
FFFFC0
ENDCHAR

STARTCHAR char164
ENCODING 164
SWIDTH 0 0
DWIDTH 0 0
BBX 5 4 -1 16
BITMAP
78
B0
C0
80
ENDCHAR

STARTCHAR char165
ENCODING 165
SWIDTH 0 0
DWIDTH 0 0
BBX 8 4 -4 16
BITMAP
71
5A
2A
3C
ENDCHAR

STARTCHAR char166
ENCODING 166
SWIDTH 3 0
DWIDTH 21 0
BBX 0 0 0 0
BITMAP
ENDCHAR

STARTCHAR char167
ENCODING 167
SWIDTH 29 0
DWIDTH 17 0
BBX 14 22 4 -6
BITMAP
0010
3FF0
6030
E010
E010
BE00
8FE0
8038
400C
FFCC
C024
F014
BF98
83F0
4038
3C0C
43C4
4024
4018
7818
67F0
8000
ENDCHAR

STARTCHAR char168
ENCODING 168
SWIDTH 0 0
DWIDTH 0 0
BBX 8 3 -4 13
BITMAP
67
A9
67
ENDCHAR

STARTCHAR char169
ENCODING 169
SWIDTH 24 0
DWIDTH 26 0
BBX 21 21 6 0
BITMAP
03FE00
0E0380
1800C0
300060
607A30
418E10
430218
830208
860208
860008
860008
860008
860008
820008
430218
418410
60F830
300060
1800C0
0E0380
01FE00
ENDCHAR

STARTCHAR char170
ENCODING 170
SWIDTH 0 0
DWIDTH 0 0
BBX 9 4 -5 16
BITMAP
2100
D680
9480
6300
ENDCHAR

STARTCHAR char171
ENCODING 171
SWIDTH 43 0
DWIDTH 10 0
BBX 8 7 2 3
BITMAP
11
22
44
88
44
22
11
ENDCHAR

STARTCHAR char172
ENCODING 172
SWIDTH 16 0
DWIDTH 24 0
BBX 21 9 4 0
BITMAP
FFFFF8
FFFFF8
000018
000018
000018
000018
000018
000018
000018
ENDCHAR

STARTCHAR char174
ENCODING 174
SWIDTH 24 0
DWIDTH 26 0
BBX 21 21 6 0
BITMAP
01FC00
0E0380
1800C0
300060
67F830
418E10
418610
818608
818608
819C08
81F008
81B808
819C08
818C08
C18618
47C790
600030
300060
1800C0
0E0380
03FE00
ENDCHAR

STARTCHAR char176
ENCODING 176
SWIDTH 12 0
DWIDTH 13 0
BBX 9 10 4 12
BITMAP
3C00
6300
C100
8080
8080
8080
8080
C100
6300
3C00
ENDCHAR

STARTCHAR char177
ENCODING 177
SWIDTH 33 0
DWIDTH 18 0
BBX 17 21 3 0
BITMAP
018000
018000
018000
018000
018000
018000
018000
018000
FFFF80
FFFF80
018000
018000
018000
018000
018000
018000
018000
000000
000000
FFFF80
FFFF80
ENDCHAR

STARTCHAR char179
ENCODING 179
SWIDTH 3 0
DWIDTH 21 0
BBX 0 0 0 0
BITMAP
ENDCHAR

STARTCHAR char180
ENCODING 180
SWIDTH 0 0
DWIDTH 0 0
BBX 4 4 -1 13
BITMAP
70
60
40
80
ENDCHAR

STARTCHAR char181
ENCODING 181
SWIDTH 3 0
DWIDTH 21 0
BBX 0 0 0 0
BITMAP
ENDCHAR

STARTCHAR char182
ENCODING 182
SWIDTH 20 0
DWIDTH 15 0
BBX 9 18 2 -3
BITMAP
3F80
7100
F100
F100
F100
F100
F100
7100
1100
1100
1100
1100
1100
1100
1100
1100
1100
1100
ENDCHAR

STARTCHAR char183
ENCODING 183
SWIDTH 25 0
DWIDTH 6 0
BBX 2 2 2 5
BITMAP
C0
C0
ENDCHAR

STARTCHAR char184
ENCODING 184
SWIDTH 0 0
DWIDTH 0 0
BBX 3 4 -1 -4
BITMAP
40
A0
E0
60
ENDCHAR

STARTCHAR char185
ENCODING 185
SWIDTH 3 0
DWIDTH 21 0
BBX 0 0 0 0
BITMAP
ENDCHAR

STARTCHAR char186
ENCODING 186
SWIDTH 0 0
DWIDTH 0 0
BBX 12 4 -6 16
BITMAP
1C10
6F10
7FA0
83C0
ENDCHAR

STARTCHAR char187
ENCODING 187
SWIDTH 43 0
DWIDTH 10 0
BBX 8 7 2 3
BITMAP
44
22
11
11
11
66
CC
ENDCHAR

STARTCHAR char188
ENCODING 188
SWIDTH 3 0
DWIDTH 21 0
BBX 0 0 0 0
BITMAP
ENDCHAR

STARTCHAR char191
ENCODING 191
SWIDTH 12 0
DWIDTH 13 0
BBX 11 15 3 0
BITMAP
0700
0B00
0900
0B00
0600
0200
0E00
7600
4600
9FC0
BA60
A220
A1E0
7040
1F80
ENDCHAR

STARTCHAR char192
ENCODING 192
SWIDTH 7 0
DWIDTH 22 0
BBX 22 20 3 0
BITMAP
01E000
00E000
007000
001000
000000
003000
003000
005800
005800
008C00
018C00
014600
024700
022300
042180
07F180
0808C0
1808C0
2C0860
FF3FFC
ENDCHAR

STARTCHAR char193
ENCODING 193
SWIDTH 7 0
DWIDTH 22 0
BBX 22 20 3 0
BITMAP
001C00
002800
003000
002000
000000
003000
003000
005800
005800
008C00
018C00
014600
024700
022300
042180
07F180
0808C0
1808C0
2C0860
FF3FFC
ENDCHAR

STARTCHAR char194
ENCODING 194
SWIDTH 7 0
DWIDTH 22 0
BBX 22 20 3 0
BITMAP
003800
006C00
009400
009E00
000000
003000
003000
005800
005800
008C00
018C00
014600
024700
022300
042180
07F180
0808C0
1808C0
2C0860
FF3FFC
ENDCHAR

STARTCHAR char195
ENCODING 195
SWIDTH 7 0
DWIDTH 22 0
BBX 22 20 3 0
BITMAP
00E080
037880
03FD00
041E00
000000
003000
003000
005800
005800
008C00
018C00
014600
024700
022300
042180
07F180
0808C0
1808C0
2C0860
FF3FFC
ENDCHAR

STARTCHAR char196
ENCODING 196
SWIDTH 7 0
DWIDTH 22 0
BBX 22 20 3 0
BITMAP
008400
035A00
025200
01CC00
000000
003000
003000
007800
005800
008C00
018C00
014600
024700
022300
042380
07F180
0808C0
1808C0
2C0860
FF3FFC
ENDCHAR

STARTCHAR char197
ENCODING 197
SWIDTH 7 0
DWIDTH 22 0
BBX 22 20 3 0
BITMAP
003000
004800
004800
003800
000000
003000
003000
005800
005800
008C00
018C00
014600
024700
022300
042180
07F180
0808C0
1808C0
2C0860
FF3FFC
ENDCHAR

STARTCHAR char198
ENCODING 198
SWIDTH 6 0
DWIDTH 32 0
BBX 29 15 5 0
BITMAP
003FFFF8
000C6098
00146058
00246038
00246118
00446108
00846700
01047900
02046700
02046100
07FC6008
08046038
38046058
28046098
FF3FFFF8
ENDCHAR

STARTCHAR char199
ENCODING 199
SWIDTH 42 0
DWIDTH 20 0
BBX 18 19 4 -4
BITMAP
03F980
1F0680
260280
260180
4C0080
8C0080
8C0000
8C0000
8C0000
8C0000
4C0080
460080
260100
1B0600
07F800
00C000
012000
01A000
004000
ENDCHAR

STARTCHAR char200
ENCODING 200
SWIDTH 3 0
DWIDTH 21 0
BBX 19 20 4 0
BITMAP
03C000
014000
00C000
004000
000000
FFFFE0
130660
130160
1300E0
130860
130800
13F800
133800
130800
130820
130060
1300E0
130360
130260
FFFFE0
ENDCHAR

STARTCHAR char201
ENCODING 201
SWIDTH 3 0
DWIDTH 21 0
BBX 19 20 4 0
BITMAP
007800
005000
006000
004000
000000
FFFFE0
130660
130160
1300E0
130860
130800
13F800
133800
130800
130820
130060
1300E0
130360
130260
FFFFE0
ENDCHAR

STARTCHAR char202
ENCODING 202
SWIDTH 3 0
DWIDTH 21 0
BBX 19 20 4 0
BITMAP
00F000
015000
014800
023C00
000000
FFFFE0
130660
130160
1300E0
130860
130800
13F800
133800
130800
130820
130060
1300E0
130360
130260
FFFFE0
ENDCHAR

STARTCHAR char203
ENCODING 203
SWIDTH 3 0
DWIDTH 21 0
BBX 18 20 4 0
BITMAP
010800
06BC00
04A400
031800
000000
FFFFC0
118640
118140
1180C0
118440
118C00
11FC00
11BC00
118C00
118440
118040
1180C0
118340
118240
FFFFC0
ENDCHAR

STARTCHAR char204
ENCODING 204
SWIDTH 16 0
DWIDTH 14 0
BBX 12 20 3 0
BITMAP
3C00
1400
0C00
0400
0000
FFF0
1300
1300
1300
1300
1300
1300
1300
1300
1300
1300
1300
1300
1300
FFF0
ENDCHAR

STARTCHAR char205
ENCODING 205
SWIDTH 16 0
DWIDTH 14 0
BBX 12 20 3 0
BITMAP
0780
0500
0600
0400
0000
FFF0
1300
1300
1300
1300
1300
1300
1300
1300
1300
1300
1300
1300
1300
FFF0
ENDCHAR

STARTCHAR char206
ENCODING 206
SWIDTH 16 0
DWIDTH 14 0
BBX 12 20 3 0
BITMAP
0F00
0D00
1480
23C0
0000
FFF0
1300
1300
1300
1300
1300
1300
1300
1300
1300
1300
1300
1300
1300
FFF0
ENDCHAR

STARTCHAR char207
ENCODING 207
SWIDTH 16 0
DWIDTH 14 0
BBX 12 20 3 0
BITMAP
3180
4AC0
4A40
3180
0000
FFF0
1380
1300
1300
1300
1300
1300
1300
1300
1300
1300
1300
1300
1380
FFF0
ENDCHAR

STARTCHAR char209
ENCODING 209
SWIDTH 11 0
DWIDTH 23 0
BBX 21 20 4 0
BITMAP
01C100
027100
07FF00
083C00
000000
FF83F8
21C0E0
10E040
187040
143840
131C40
108E40
104740
1023C0
1011C0
1008C0
100440
100240
3801C0
FE0040
ENDCHAR

STARTCHAR char210
ENCODING 210
SWIDTH 16 0
DWIDTH 24 0
BBX 20 20 5 0
BITMAP
03C000
014000
00E000
002000
000000
0FFE00
130900
2604C0
460460
4C0460
8C0430
8C0430
8C0230
8C0230
8C0230
4C0270
460260
2604C0
1F0980
07FE00
ENDCHAR

STARTCHAR char211
ENCODING 211
SWIDTH 16 0
DWIDTH 24 0
BBX 20 20 5 0
BITMAP
003800
005000
006000
004000
000000
0FFE00
130900
2604C0
460460
4C0460
8C0430
8C0430
8C0230
8C0230
8C0230
4C0270
460260
2604C0
1F0980
07FE00
ENDCHAR

STARTCHAR char212
ENCODING 212
SWIDTH 16 0
DWIDTH 24 0
BBX 20 20 5 0
BITMAP
007000
00D800
012C00
013C00
000000
0FFE00
130900
2604C0
460460
4C0460
8C0430
8C0430
8C0230
8C0230
8C0230
4C0270
460260
2604C0
1F0980
07FE00
ENDCHAR

STARTCHAR char213
ENCODING 213
SWIDTH 16 0
DWIDTH 24 0
BBX 20 20 5 0
BITMAP
03C100
04F100
0FFA00
083C00
000000
0FFE00
130900
2604C0
460460
4C0460
8C0430
8C0430
8C0230
8C0230
8C0230
4C0270
460260
2604C0
1F0980
07FE00
ENDCHAR

STARTCHAR char214
ENCODING 214
SWIDTH 16 0
DWIDTH 24 0
BBX 20 21 5 -1
BITMAP
010800
06B400
04A400
039C00
000000
03FC00
1F0B00
2604C0
460440
440260
8C0230
8C0230
8C0230
8C0230
8C0230
4C0260
460260
2604C0
1B0580
078F00
01F800
ENDCHAR

STARTCHAR char216
ENCODING 216
SWIDTH 16 0
DWIDTH 24 0
BBX 20 16 5 -1
BITMAP
0FFE80
130900
2604C0
460460
4C0A60
8C1230
8C2230
8C4230
8C8230
8D0230
4E0260
460260
2604C0
120980
6FFE00
400000
ENDCHAR

STARTCHAR char217
ENCODING 217
SWIDTH 7 0
DWIDTH 22 0
BBX 20 20 4 0
BITMAP
03C000
01C000
00E000
002000
000000
FFE7F0
230160
2301C0
230080
130080
130080
130080
130080
130080
130080
130080
130080
0B0080
0D8300
03FC00
ENDCHAR

STARTCHAR char218
ENCODING 218
SWIDTH 7 0
DWIDTH 22 0
BBX 20 20 4 0
BITMAP
003800
005000
006000
004000
000000
FFE7F0
230160
2301C0
230080
130080
130080
130080
130080
130080
130080
130080
130080
0B0080
0D8300
03FC00
ENDCHAR

STARTCHAR char219
ENCODING 219
SWIDTH 7 0
DWIDTH 22 0
BBX 20 20 4 0
BITMAP
007000
00D800
012800
033C00
000000
FFE7F0
230160
2301C0
230080
130080
130080
130080
130080
130080
130080
130080
130080
0B0080
0D8300
03FC00
ENDCHAR

STARTCHAR char220
ENCODING 220
SWIDTH 7 0
DWIDTH 22 0
BBX 20 19 4 0
BITMAP
01CE00
014A00
01CE00
000000
FFE7F0
230160
1301C0
130080
130080
130080
130080
130080
130080
130080
130080
130080
110100
0D8300
03FC00
ENDCHAR

STARTCHAR char223
ENCODING 223
SWIDTH 2 0
DWIDTH 31 0
BBX 32 13 2 0
BITMAP
0F840F84
306C307C
601C201C
B0047004
9E045E04
8FF047F8
403C201C
38061C06
47E223F2
601A2009
B00A3006
AC0E6E06
43F821FC
ENDCHAR

STARTCHAR char224
ENCODING 224
SWIDTH 38 0
DWIDTH 19 0
BBX 18 17 3 0
BITMAP
038000
038000
008000
008000
008000
00C000
01C000
016000
026000
053000
051000
089800
088800
1FCC00
106600
702600
FEFFC0
ENDCHAR

STARTCHAR char225
ENCODING 225
SWIDTH 38 0
DWIDTH 19 0
BBX 18 17 3 0
BITMAP
007000
00A000
00C000
008000
008000
00C000
01C000
016000
026000
053000
051000
089800
088800
1FCC00
106600
702600
FEFFC0
ENDCHAR

STARTCHAR char226
ENCODING 226
SWIDTH 38 0
DWIDTH 19 0
BBX 18 17 3 0
BITMAP
00E000
01A000
029000
027000
008000
00C000
01C000
016000
026000
053000
051000
089800
088800
1FCC00
106600
702600
FEFFC0
ENDCHAR

STARTCHAR char227
ENCODING 227
SWIDTH 38 0
DWIDTH 19 0
BBX 18 17 3 0
BITMAP
038400
06F800
09B800
087000
008000
00C000
01C000
016000
026000
033000
049000
049800
088800
0FCC00
106600
782600
FEFFC0
ENDCHAR

STARTCHAR char228
ENCODING 228
SWIDTH 38 0
DWIDTH 19 0
BBX 17 16 3 0
BITMAP
077000
055000
073000
008000
00C000
01C000
016000
026000
053000
051000
089800
088800
1FCC00
104600
702600
FCFF80
ENDCHAR

STARTCHAR char229
ENCODING 229
SWIDTH 38 0
DWIDTH 19 0
BBX 18 17 3 0
BITMAP
008000
016000
012000
01C000
008000
00C000
01C000
016000
026000
053000
051000
089800
088800
1FCC00
106600
702600
FEFFC0
ENDCHAR

STARTCHAR char230
ENCODING 230
SWIDTH 28 0
DWIDTH 27 0
BBX 24 12 4 0
BITMAP
001FFF
003105
005103
009111
011130
0111D0
021130
041111
0FF101
180907
281109
FE7FFF
ENDCHAR

STARTCHAR char231
ENCODING 231
SWIDTH 25 0
DWIDTH 16 0
BBX 15 17 3 -4
BITMAP
07C2
1A3E
240A
4406
4C02
8C02
8C00
8C00
8C00
4C04
2404
1E18
07E0
0180
0240
0340
0080
ENDCHAR

STARTCHAR char232
ENCODING 232
SWIDTH 33 0
DWIDTH 18 0
BBX 15 17 4 0
BITMAP
0E00
0500
0300
0100
0000
7FFE
241E
2406
2422
24E0
2720
24E0
2422
2402
241E
2412
FFFE
ENDCHAR

STARTCHAR char233
ENCODING 233
SWIDTH 33 0
DWIDTH 18 0
BBX 15 17 4 0
BITMAP
01C0
0180
0100
0100
0000
7FFE
241E
2406
2422
24E0
2720
24E0
2422
2402
241E
2412
FFFE
ENDCHAR

STARTCHAR char234
ENCODING 234
SWIDTH 33 0
DWIDTH 18 0
BBX 16 17 3 0
BITMAP
01C0
02E0
02A0
0270
0000
FFFF
120F
1203
1211
1270
1390
1270
1211
1201
120F
1209
7FFF
ENDCHAR

STARTCHAR char235
ENCODING 235
SWIDTH 33 0
DWIDTH 18 0
BBX 16 17 3 0
BITMAP
0200
0E70
0F70
0000
0000
FFFE
120A
1206
1212
1230
13D0
1230
1211
1203
120F
120B
7FFF
ENDCHAR

STARTCHAR char236
ENCODING 236
SWIDTH 3 0
DWIDTH 11 0
BBX 10 17 2 0
BITMAP
3800
1400
0C00
0400
0000
FFC0
1200
1200
1200
1200
1200
1200
1200
1200
1200
1200
3F00
ENDCHAR

STARTCHAR char237
ENCODING 237
SWIDTH 3 0
DWIDTH 11 0
BBX 10 17 2 0
BITMAP
1C00
1400
1800
1000
0000
FFC0
1200
1200
1200
1200
1200
1200
1200
1200
1200
1200
3F00
ENDCHAR

STARTCHAR char238
ENCODING 238
SWIDTH 3 0
DWIDTH 11 0
BBX 10 17 2 0
BITMAP
0E00
1A00
1B00
2700
0000
FFC0
1200
1200
1200
1200
1200
1200
1200
1200
1200
1200
3F00
ENDCHAR

STARTCHAR char239
ENCODING 239
SWIDTH 3 0
DWIDTH 11 0
BBX 10 17 2 0
BITMAP
2000
5700
7700
0000
0000
FFC0
1600
1600
1600
1600
1600
1600
1600
1600
1600
1200
3F00
ENDCHAR

STARTCHAR char241
ENCODING 241
SWIDTH 38 0
DWIDTH 19 0
BBX 18 17 3 0
BITMAP
038400
06EC00
09DC00
083000
000000
3F07C0
118300
18C100
166100
113100
109D00
104F00
102700
101300
100900
380500
FE0700
ENDCHAR

STARTCHAR char242
ENCODING 242
SWIDTH 38 0
DWIDTH 19 0
BBX 17 17 4 0
BITMAP
070000
030000
018000
008000
000000
1FF800
2C2400
4C1200
981300
981180
981180
981180
981180
581300
4C2200
342400
0FF800
ENDCHAR

STARTCHAR char243
ENCODING 243
SWIDTH 38 0
DWIDTH 19 0
BBX 17 17 4 0
BITMAP
00E000
00C000
008000
008000
000000
1FF800
2C2400
4C1200
981300
981180
981180
981180
981180
581300
4C2200
342400
0FF800
ENDCHAR

STARTCHAR char244
ENCODING 244
SWIDTH 38 0
DWIDTH 19 0
BBX 17 17 4 0
BITMAP
01C000
02E000
02A000
047000
000000
1FF800
2C2400
4C1200
981300
981180
981180
981180
981180
581300
4C2200
342400
0FF800
ENDCHAR

STARTCHAR char245
ENCODING 245
SWIDTH 38 0
DWIDTH 19 0
BBX 17 17 4 0
BITMAP
070800
0DD800
13B800
106000
000000
1FF800
2C2400
4C1200
981300
981180
981180
981180
981180
581300
4C2200
342400
0FF800
ENDCHAR

STARTCHAR char246
ENCODING 246
SWIDTH 38 0
DWIDTH 19 0
BBX 16 17 4 0
BITMAP
0620
0950
0F70
0220
0000
1FF8
2424
4C12
4813
8811
9811
8811
8811
4813
4C22
342C
0FF8
ENDCHAR

STARTCHAR char247
ENCODING 247
SWIDTH 33 0
DWIDTH 18 0
BBX 17 13 3 2
BITMAP
018000
03C000
03C000
018000
000000
000000
FFFF80
FFFF80
000000
018000
03C000
03C000
018000
ENDCHAR

STARTCHAR char248
ENCODING 248
SWIDTH 38 0
DWIDTH 19 0
BBX 17 13 4 -1
BITMAP
1FFA00
241400
4C1200
583300
985180
989180
991180
9E1180
481300
4C2300
242C00
DFF800
400000
ENDCHAR

STARTCHAR char249
ENCODING 249
SWIDTH 38 0
DWIDTH 19 0
BBX 17 17 3 0
BITMAP
038000
018000
008000
008000
000000
FFCF80
120600
120200
120200
120200
120200
120200
120200
120200
120200
0B0C00
07F000
ENDCHAR

STARTCHAR char250
ENCODING 250
SWIDTH 38 0
DWIDTH 19 0
BBX 17 17 3 0
BITMAP
007000
00A000
00C000
008000
000000
FFCF80
120600
120200
120200
120200
120200
120200
120200
120200
120200
0B0C00
07F000
ENDCHAR

STARTCHAR char251
ENCODING 251
SWIDTH 38 0
DWIDTH 19 0
BBX 17 17 3 0
BITMAP
00E000
01A000
019000
027000
000000
FFCF80
120600
120200
120200
120200
120200
120200
120200
120200
120200
0B0C00
07F000
ENDCHAR

STARTCHAR char252
ENCODING 252
SWIDTH 38 0
DWIDTH 19 0
BBX 17 17 3 0
BITMAP
011000
02A800
02B800
011000
000000
FFCF80
120600
120200
120200
120200
120200
120200
120200
120200
120200
0A0C00
07F000
ENDCHAR

STARTCHAR char255
ENCODING 255
SWIDTH 38 0
DWIDTH 19 0
BBX 16 17 3 0
BITMAP
0200
0570
0770
0000
0000
FF8F
230A
1304
0988
08C8
04D0
0460
0260
0260
0260
0260
0FFC
ENDCHAR

ENDFONT
