STARTFONT 2.1
FONT -sun-helmet-bold-i-normal--20-200-75-75-p-127-adobe-fontspecific
SIZE 20 75 75
FONTBOUNDINGBOX 26 23 -3 -4

STARTPROPERTIES 28
FOUNDRY "sun"
FAMILY_NAME "helmet"
WEIGHT_NAME "bold"
SLANT "i"
SETWIDTH_NAME "normal"
ADD_STYLE_NAME ""
PIXEL_SIZE 21
POINT_SIZE 200
RESOLUTION_X 75
RESOLUTION_Y 75
SPACING "p"
AVERAGE_WIDTH 127
CHARSET_REGISTRY "adobe"
CHARSET_ENCODING "fontspecific"
COPYRIGHT "© 1999 Sun Microsystems, Inc."
RAW_PIXELSIZE 1000
RAW_POINTSIZE 964
RAW_ASCENT 929
RAW_DESCENT 205
RAW_AVERAGE_WIDTH 6124
FACE_NAME "HelmetBoldItalic5"
_XMBDFED_INFO "Edited with xmbdfed 2.4."
WEIGHT 10
X_HEIGHT -2
QUAD_WIDTH 11
DEFAULT_CHAR 4
FONT_DESCENT 4
FONT_ASCENT 19
ENDPROPERTIES

CHARS 202

STARTCHAR char32
ENCODING 32
SWIDTH 30 0
DWIDTH 7 0
BBX 0 0 0 0
BITMAP
ENDCHAR

STARTCHAR char33
ENCODING 33
SWIDTH 30 0
DWIDTH 7 0
BBX 7 15 1 0
BITMAP
1E
1E
3E
3C
3C
3C
3C
38
38
00
00
78
F8
F0
F0
ENDCHAR

STARTCHAR char34
ENCODING 34
SWIDTH 43 0
DWIDTH 10 0
BBX 11 9 1 6
BITMAP
3DE0
39C0
79C0
7BC0
18C0
39C0
7380
F780
E300
ENDCHAR

STARTCHAR char35
ENCODING 35
SWIDTH 8 0
DWIDTH 12 0
BBX 11 15 0 0
BITMAP
0880
0880
0880
1980
7FE0
1980
1100
1100
1100
FFC0
7FC0
3300
3300
2200
2200
ENDCHAR

STARTCHAR char36
ENCODING 36
SWIDTH 20 0
DWIDTH 15 0
BBX 13 19 1 -2
BITMAP
01C0
01C0
1FF0
3FF8
3FF8
7C78
7838
7E00
7FE0
3FF0
0FF8
01F8
F078
F0F8
FFF0
7FE0
3FC0
0C00
1C00
ENDCHAR

STARTCHAR char37
ENCODING 37
SWIDTH 3 0
DWIDTH 21 0
BBX 19 15 1 0
BITMAP
1C0600
3E0E00
7F0C00
F71800
E73800
E733C0
EF67C0
FEEFE0
7ECEE0
799CE0
039CE0
031CE0
061FC0
0E0FC0
040700
ENDCHAR

STARTCHAR char38
ENCODING 38
SWIDTH 25 0
DWIDTH 16 0
BBX 15 15 0 0
BITMAP
03F0
07F8
0FFC
0F3C
0F7C
0FF8
0FF0
3FC0
7FDE
7DFE
F9FC
F9FC
7FFC
7FFC
1F3C
ENDCHAR

STARTCHAR char39
ENCODING 39
SWIDTH 21 0
DWIDTH 5 0
BBX 5 8 2 7
BITMAP
38
78
78
60
F0
F0
F0
F0
ENDCHAR

STARTCHAR char40
ENCODING 40
SWIDTH 34 0
DWIDTH 8 0
BBX 9 19 1 -4
BITMAP
0780
0F00
1E00
1E00
3C00
3C00
7C00
7800
7800
F800
F800
F000
F000
F000
F000
F000
F000
F000
7800
ENDCHAR

STARTCHAR char41
ENCODING 41
SWIDTH 34 0
DWIDTH 8 0
BBX 9 19 -2 -4
BITMAP
0F00
0780
0780
0780
0780
0780
0780
0780
0780
0F80
0F80
0F00
0F00
1F00
1E00
3E00
3C00
7800
F000
ENDCHAR

STARTCHAR char42
ENCODING 42
SWIDTH 43 0
DWIDTH 10 0
BBX 8 9 2 6
BITMAP
0C
0C
7C
FF
3F
3C
7E
66
24
ENDCHAR

STARTCHAR char43
ENCODING 43
SWIDTH 20 0
DWIDTH 15 0
BBX 12 12 2 0
BITMAP
0E00
0E00
0E00
0E00
FFF0
FFF0
FFF0
0E00
0E00
0E00
0E00
0E00
ENDCHAR

STARTCHAR char44
ENCODING 44
SWIDTH 25 0
DWIDTH 6 0
BBX 6 8 -1 -4
BITMAP
7C
7C
78
78
38
78
F0
C0
ENDCHAR

STARTCHAR char45
ENCODING 45
SWIDTH 34 0
DWIDTH 8 0
BBX 8 4 0 3
BITMAP
7F
7F
7E
C0
ENDCHAR

STARTCHAR char46
ENCODING 46
SWIDTH 25 0
DWIDTH 6 0
BBX 5 4 0 0
BITMAP
78
F8
F0
F0
ENDCHAR

STARTCHAR char47
ENCODING 47
SWIDTH 3 0
DWIDTH 11 0
BBX 13 15 -1 0
BITMAP
0078
00F8
00F0
01E0
03E0
03C0
07C0
0780
0F00
1F00
1E00
3C00
7C00
7800
F800
ENDCHAR

STARTCHAR char48
ENCODING 48
SWIDTH 20 0
DWIDTH 15 0
BBX 13 14 1 0
BITMAP
07C0
1FF0
3FF0
3CF8
7878
F878
F078
F0F8
F0F0
F1F0
FBE0
7FE0
3FC0
1F00
ENDCHAR

STARTCHAR char49
ENCODING 49
SWIDTH 20 0
DWIDTH 15 0
BBX 9 14 3 0
BITMAP
0780
0F80
1F80
FF00
FF00
FF00
1F00
1E00
1E00
1E00
3E00
3E00
3C00
3C00
ENDCHAR

STARTCHAR char50
ENCODING 50
SWIDTH 20 0
DWIDTH 15 0
BBX 13 14 0 0
BITMAP
07E0
0FF0
1FF8
3E78
3C78
3CF8
01F0
07E0
1FC0
3F00
7E00
FFF0
FFE0
FFE0
ENDCHAR

STARTCHAR char51
ENCODING 51
SWIDTH 20 0
DWIDTH 15 0
BBX 13 14 1 0
BITMAP
07C0
1FF0
3FF8
3C78
0078
03F0
07F0
07E0
F1F0
F1F0
F1F0
FFE0
7FC0
3F00
ENDCHAR

STARTCHAR char52
ENCODING 52
SWIDTH 20 0
DWIDTH 15 0
BBX 14 14 0 0
BITMAP
007C
01F8
03F8
07F8
0FF8
1EF8
3CF0
78F0
7FFC
7FFC
FFF8
01E0
01E0
03E0
ENDCHAR

STARTCHAR char53
ENCODING 53
SWIDTH 20 0
DWIDTH 15 0
BBX 13 14 1 0
BITMAP
1FF8
3FF8
3FF0
3C00
3BC0
7FE0
7FF0
78F0
00F0
F0F0
F1E0
FFE0
7FC0
3F00
ENDCHAR

STARTCHAR char54
ENCODING 54
SWIDTH 20 0
DWIDTH 15 0
BBX 13 14 1 0
BITMAP
07E0
1FF8
3FF8
3C38
7FE0
FFF0
FFF8
F8F8
F078
F078
F9F0
7FF0
3FE0
1F80
ENDCHAR

STARTCHAR char55
ENCODING 55
SWIDTH 20 0
DWIDTH 15 0
BBX 12 14 2 0
BITMAP
7FF0
7FF0
FFF0
03E0
07C0
0F80
0F00
1F00
1E00
3E00
3C00
7C00
7800
7800
ENDCHAR

STARTCHAR char56
ENCODING 56
SWIDTH 20 0
DWIDTH 15 0
BBX 13 15 1 0
BITMAP
07C0
1FF0
3FF0
3C78
3878
38F0
3FE0
3FE0
7FF0
F0F0
F0F0
F1F0
FFE0
7FC0
1F00
ENDCHAR

STARTCHAR char57
ENCODING 57
SWIDTH 20 0
DWIDTH 15 0
BBX 14 14 0 0
BITMAP
07E0
1FF8
3FF8
7C7C
783C
787C
7FFC
3FFC
1FF8
0278
F0F0
7FF0
7FE0
1F80
ENDCHAR

STARTCHAR char58
ENCODING 58
SWIDTH 30 0
DWIDTH 7 0
BBX 6 11 1 0
BITMAP
3C
3C
7C
78
00
00
00
F8
F8
F0
F0
ENDCHAR

STARTCHAR char59
ENCODING 59
SWIDTH 30 0
DWIDTH 7 0
BBX 7 15 0 -4
BITMAP
1E
1E
3E
3C
00
00
00
7C
7C
78
78
38
70
F0
C0
ENDCHAR

STARTCHAR char60
ENCODING 60
SWIDTH 12 0
DWIDTH 13 0
BBX 10 11 1 0
BITMAP
0040
00C0
0780
1C00
7000
C000
E000
3800
0E00
01C0
0040
ENDCHAR

STARTCHAR char61
ENCODING 61
SWIDTH 20 0
DWIDTH 15 0
BBX 14 8 1 2
BITMAP
FFFC
FFFC
FFFC
0000
0000
FFFC
FFFC
FFFC
ENDCHAR

STARTCHAR char62
ENCODING 62
SWIDTH 12 0
DWIDTH 13 0
BBX 10 11 1 0
BITMAP
8000
C000
7800
0E00
0380
00C0
01C0
0700
1C00
E000
8000
ENDCHAR

STARTCHAR char63
ENCODING 63
SWIDTH 16 0
DWIDTH 14 0
BBX 12 15 2 0
BITMAP
1FC0
3FE0
7FF0
78F0
F8F0
03E0
0FC0
0F80
1E00
0000
0000
3E00
3E00
3C00
3C00
ENDCHAR

STARTCHAR char64
ENCODING 64
SWIDTH 11 0
DWIDTH 23 0
BBX 15 15 3 0
BITMAP
07E0
1838
300C
6394
6676
CC66
D826
D826
D866
D844
4CC8
6770
3004
1818
07E0
ENDCHAR

STARTCHAR char65
ENCODING 65
SWIDTH 29 0
DWIDTH 17 0
BBX 16 15 -1 0
BITMAP
00F8
00F8
01F8
01FC
03FC
07FC
07BC
0FBC
1F3E
1F3E
3FFE
3FFE
7FFE
FC1F
781F
ENDCHAR

STARTCHAR char66
ENCODING 66
SWIDTH 25 0
DWIDTH 16 0
BBX 15 15 0 0
BITMAP
1FF8
1FFC
3FFE
3E3E
3E1E
3C3E
3FFC
7FF8
7FFC
7C3C
783C
787C
7FFC
FFF8
FFE0
ENDCHAR

STARTCHAR char67
ENCODING 67
SWIDTH 29 0
DWIDTH 17 0
BBX 15 15 1 0
BITMAP
03F0
0FF8
1FFC
3E7E
7C3E
781E
F800
F000
F000
F03C
F07C
F8FC
7FF8
3FF0
0FC0
ENDCHAR

STARTCHAR char68
ENCODING 68
SWIDTH 29 0
DWIDTH 17 0
BBX 16 15 0 0
BITMAP
1FF8
1FFC
3FFE
3FFF
3E1F
3C0F
3C0F
7C0F
7C1F
7C1F
783E
7FFE
FFFC
FFF8
FFE0
ENDCHAR

STARTCHAR char69
ENCODING 69
SWIDTH 20 0
DWIDTH 15 0
BBX 15 15 0 0
BITMAP
1FFE
1FFE
1FFE
3E00
3C00
3C00
3FF8
7FF8
7FF8
7800
7800
7FF8
FFF8
FFF8
FFF8
ENDCHAR

STARTCHAR char70
ENCODING 70
SWIDTH 16 0
DWIDTH 14 0
BBX 15 15 0 0
BITMAP
1FFC
1FFC
1FFC
3E00
3E00
3E00
3C10
7FF0
7FF0
7FF0
7800
7800
F800
F800
7800
ENDCHAR

STARTCHAR char71
ENCODING 71
SWIDTH 33 0
DWIDTH 18 0
BBX 15 15 1 0
BITMAP
03F0
0FFC
1FFC
3E3E
7C3E
7C00
F800
F8FE
F0FE
F0FE
F03C
F8FC
7FFC
3FFC
1F38
ENDCHAR

STARTCHAR char72
ENCODING 72
SWIDTH 29 0
DWIDTH 17 0
BBX 16 15 0 0
BITMAP
1F0F
1E0F
1E0F
3E1F
3E1F
3FFF
3FFE
7FFE
7FFE
7C3E
783E
783C
F87C
F87C
783C
ENDCHAR

STARTCHAR char73
ENCODING 73
SWIDTH 30 0
DWIDTH 7 0
BBX 8 15 0 0
BITMAP
1F
1E
1E
3E
3E
3E
3C
3C
7C
7C
7C
78
F8
F8
78
ENDCHAR

STARTCHAR char74
ENCODING 74
SWIDTH 12 0
DWIDTH 13 0
BBX 13 15 0 0
BITMAP
0078
0078
00F8
00F8
00F0
00F0
01F0
01F0
01F0
F1E0
F1E0
FBE0
FFC0
7FC0
3F00
ENDCHAR

STARTCHAR char75
ENCODING 75
SWIDTH 25 0
DWIDTH 16 0
BBX 18 15 0 0
BITMAP
1E1F80
1E3F80
1E7E00
3EFC00
3FF800
3FF000
3FE000
7FE000
7FF000
7FF000
7CF800
78F800
F87C00
F87C00
707E00
ENDCHAR

STARTCHAR char76
ENCODING 76
SWIDTH 12 0
DWIDTH 13 0
BBX 12 15 0 0
BITMAP
1F00
1E00
1E00
3E00
3E00
3C00
3C00
7C00
7C00
7C00
7800
7FF0
FFF0
FFE0
FFE0
ENDCHAR

STARTCHAR char77
ENCODING 77
SWIDTH 42 0
DWIDTH 20 0
BBX 19 15 0 0
BITMAP
1F87C0
1F8FE0
3F8FE0
3F9FE0
3F9FC0
3FBFC0
3FBBC0
7BBBC0
7BFF80
7BF780
7BF780
FBE780
F3EF80
F3CF00
F3C700
ENDCHAR

STARTCHAR char78
ENCODING 78
SWIDTH 25 0
DWIDTH 16 0
BBX 16 15 0 0
BITMAP
1F0F
1F0F
3F0F
3F9F
3F9E
3F9E
3FDE
7BDE
79DE
79FC
79FC
F8FC
F8FC
F0F8
F0F8
ENDCHAR

STARTCHAR char79
ENCODING 79
SWIDTH 33 0
DWIDTH 18 0
BBX 15 15 1 0
BITMAP
03E0
0FF8
1FFC
3E3C
7C1E
781E
F81E
F01E
F03E
F03C
F87C
7EF8
7FF0
3FE0
0FC0
ENDCHAR

STARTCHAR char80
ENCODING 80
SWIDTH 20 0
DWIDTH 15 0
BBX 15 15 0 0
BITMAP
1FF8
1FFC
3FFE
3F3E
3E1E
3C1E
3C3E
7FFC
7FF8
7FF0
7800
7800
F800
F800
7800
ENDCHAR

STARTCHAR char81
ENCODING 81
SWIDTH 33 0
DWIDTH 18 0
BBX 15 16 1 -1
BITMAP
03E0
0FF8
3FFC
3E3E
7C3E
781E
F81E
F01E
F07E
F0FE
F9FC
FCFC
7FF8
3FF8
0FD8
0018
ENDCHAR

STARTCHAR char82
ENCODING 82
SWIDTH 25 0
DWIDTH 16 0
BBX 15 15 0 0
BITMAP
1FF8
1FFC
3FFE
3E3E
3E1E
3C1E
3C7C
7FF8
7FF0
7FF8
787C
F878
F878
F878
F878
ENDCHAR

STARTCHAR char83
ENCODING 83
SWIDTH 20 0
DWIDTH 15 0
BBX 13 15 1 0
BITMAP
07E0
1FF0
3FF8
3CF8
3C00
3F00
3FE0
1FF0
0FF0
01F0
F0F0
F9F0
FFE0
7FC0
3F00
ENDCHAR

STARTCHAR char84
ENCODING 84
SWIDTH 12 0
DWIDTH 13 0
BBX 14 15 1 0
BITMAP
7FFC
FFF8
FFF8
FFF8
0F80
0F80
0F00
1F00
1F00
1F00
1E00
1E00
3E00
3E00
1E00
ENDCHAR

STARTCHAR char85
ENCODING 85
SWIDTH 25 0
DWIDTH 16 0
BBX 16 15 1 0
BITMAP
3C1E
3C1E
3C3E
7C3E
7C3E
783C
783C
787C
F87C
F07C
F0F8
F9F8
FFF0
7FE0
1FC0
ENDCHAR

STARTCHAR char86
ENCODING 86
SWIDTH 20 0
DWIDTH 15 0
BBX 14 15 2 0
BITMAP
F078
F87C
F8F8
F8F8
F9F0
79F0
79E0
7BE0
7BC0
7BC0
7F80
7F80
7F00
7F00
3E00
ENDCHAR

STARTCHAR char87
ENCODING 87
SWIDTH 3 0
DWIDTH 21 0
BBX 20 15 2 0
BITMAP
F8F9F0
F8F9F0
F9F9E0
F9FBE0
F9FBE0
7BF3C0
7BF7C0
7BB780
7FFF80
7FFF00
7F7F00
7F7E00
7E7E00
7E7E00
3C7C00
ENDCHAR

STARTCHAR char88
ENCODING 88
SWIDTH 29 0
DWIDTH 17 0
BBX 20 15 -2 0
BITMAP
0F83E0
07C7E0
07CFC0
03FF80
03FF00
01FE00
01FC00
00F800
01FC00
03FC00
07FE00
1FFF00
3F9F00
7F1F80
7E0F80
ENDCHAR

STARTCHAR char89
ENCODING 89
SWIDTH 25 0
DWIDTH 16 0
BBX 16 15 2 0
BITMAP
F83E
F87E
7C7C
7CF8
3DF0
3DF0
3FE0
1FC0
1F80
0F00
1F00
1F00
1F00
1E00
1E00
ENDCHAR

STARTCHAR char90
ENCODING 90
SWIDTH 20 0
DWIDTH 15 0
BBX 16 16 -1 0
BITMAP
000F
0FFF
0FFF
1FFF
187E
00FE
01FC
03F0
07E0
0FC0
1F80
3F00
7FFC
7FFC
7FFC
FFFC
ENDCHAR

STARTCHAR char91
ENCODING 91
SWIDTH 43 0
DWIDTH 10 0
BBX 11 19 0 -4
BITMAP
0FE0
0FE0
1FC0
1E00
1E00
1E00
1E00
3E00
3C00
3C00
3C00
3C00
7C00
7C00
7800
7800
7F00
FE00
FE00
ENDCHAR

STARTCHAR char92
ENCODING 92
SWIDTH 25 0
DWIDTH 6 0
BBX 6 15 0 0
BITMAP
80
C0
40
40
60
20
20
30
10
10
18
18
08
0C
0C
ENDCHAR

STARTCHAR char93
ENCODING 93
SWIDTH 43 0
DWIDTH 10 0
BBX 11 19 -2 -4
BITMAP
0FE0
0FE0
0FE0
03E0
03C0
03C0
03C0
07C0
0780
0780
0780
0780
0780
0F00
0F00
0F00
7F00
7F00
7E00
ENDCHAR

STARTCHAR char94
ENCODING 94
SWIDTH 0 0
DWIDTH 0 0
BBX 8 3 -1 16
BITMAP
3E
7E
E7
ENDCHAR

STARTCHAR char95
ENCODING 95
SWIDTH 8 0
DWIDTH 12 0
BBX 12 1 0 -3
BITMAP
FFF0
ENDCHAR

STARTCHAR char96
ENCODING 96
SWIDTH 0 0
DWIDTH 0 0
BBX 5 3 -2 12
BITMAP
F8
78
38
ENDCHAR

STARTCHAR char97
ENCODING 97
SWIDTH 20 0
DWIDTH 15 0
BBX 13 11 0 0
BITMAP
0FE0
3FF8
3C78
4078
0FF8
7FF8
FCF0
F0F0
FFF0
FFF0
3CF0
ENDCHAR

STARTCHAR char98
ENCODING 98
SWIDTH 20 0
DWIDTH 15 0
BBX 13 15 0 0
BITMAP
1E00
3E00
3C00
3C00
3DE0
3FF0
7FF8
7C78
7878
7878
78F8
F8F0
FFF0
FFE0
F3C0
ENDCHAR

STARTCHAR char99
ENCODING 99
SWIDTH 12 0
DWIDTH 13 0
BBX 11 11 1 0
BITMAP
0F80
3FC0
7FE0
79E0
F000
F000
F000
F3C0
FFC0
7F80
1F00
ENDCHAR

STARTCHAR char100
ENCODING 100
SWIDTH 20 0
DWIDTH 15 0
BBX 15 15 0 0
BITMAP
003E
003C
003C
003C
0F7C
3FF8
7FF8
7CF8
F878
F0F8
F0F0
F1F0
FFF0
7FF0
3DF0
ENDCHAR

STARTCHAR char101
ENCODING 101
SWIDTH 16 0
DWIDTH 14 0
BBX 13 11 0 0
BITMAP
0FC0
3FF0
7FF0
7878
FF78
FFF8
FFF8
F000
F9F0
7FE0
1F80
ENDCHAR

STARTCHAR char102
ENCODING 102
SWIDTH 30 0
DWIDTH 7 0
BBX 9 15 0 0
BITMAP
0F80
1F80
1F80
1E00
7F00
7F00
7F00
3C00
3C00
7C00
7800
7800
7800
F800
7800
ENDCHAR

STARTCHAR char103
ENCODING 103
SWIDTH 16 0
DWIDTH 14 0
BBX 13 14 0 -3
BITMAP
1F20
3FF8
7FF8
F8F8
F8F0
F0F0
F0F0
F9F0
7FF0
3FE0
01E0
F1E0
FFC0
7F00
ENDCHAR

STARTCHAR char104
ENCODING 104
SWIDTH 20 0
DWIDTH 15 0
BBX 13 15 0 0
BITMAP
1E00
1E00
3E00
3C00
3CE0
3FF0
3FF8
7CF8
7C78
78F8
78F0
F8F0
F8F0
F1F0
F0E0
ENDCHAR

STARTCHAR char105
ENCODING 105
SWIDTH 30 0
DWIDTH 7 0
BBX 7 15 0 0
BITMAP
1E
1E
1E
00
3C
3C
3C
3C
7C
78
78
78
F8
F8
70
ENDCHAR

STARTCHAR char106
ENCODING 106
SWIDTH 30 0
DWIDTH 7 0
BBX 10 18 -3 -3
BITMAP
03C0
03C0
07C0
0000
0780
0780
0780
0F00
0F00
0F00
0F00
1F00
1E00
1E00
1E00
7E00
7C00
F800
ENDCHAR

STARTCHAR char107
ENCODING 107
SWIDTH 12 0
DWIDTH 13 0
BBX 14 15 0 0
BITMAP
1E00
1E00
1E00
3C00
3CFC
3DF0
3FE0
7FC0
7F80
7F80
7FC0
7FC0
FBE0
F1E0
F1F0
ENDCHAR

STARTCHAR char108
ENCODING 108
SWIDTH 30 0
DWIDTH 7 0
BBX 7 15 0 0
BITMAP
1E
1E
1E
3E
3C
3C
3C
3C
7C
78
78
78
F8
F8
70
ENDCHAR

STARTCHAR char109
ENCODING 109
SWIDTH 7 0
DWIDTH 22 0
BBX 20 11 0 0
BITMAP
21E3C0
3FF7E0
7FFFF0
7CF9F0
78F9F0
78F1E0
F8F1E0
F9F1E0
F1E3E0
F1E3C0
70E1C0
ENDCHAR

STARTCHAR char110
ENCODING 110
SWIDTH 16 0
DWIDTH 14 0
BBX 13 11 0 0
BITMAP
21E0
3FF0
3FF8
7CF8
7CF0
78F0
78F0
78F0
F9F0
F1E0
F0E0
ENDCHAR

STARTCHAR char111
ENCODING 111
SWIDTH 16 0
DWIDTH 14 0
BBX 12 11 1 0
BITMAP
0F80
3FE0
7FF0
78F0
F0F0
F0F0
F1F0
F1E0
FFE0
7FC0
1F00
ENDCHAR

STARTCHAR char112
ENCODING 112
SWIDTH 20 0
DWIDTH 15 0
BBX 14 14 -1 -3
BITMAP
1EF0
1FF8
3FFC
3E3C
3C3C
3C3C
7C7C
7C78
7FF8
7FF0
7BC0
F800
F000
F000
ENDCHAR

STARTCHAR char113
ENCODING 113
SWIDTH 20 0
DWIDTH 15 0
BBX 13 14 1 -3
BITMAP
0EF8
3FF0
7FF0
79F0
F1F0
F1F0
F1E0
F3E0
FFE0
7FE0
3BC0
03C0
03C0
03C0
ENDCHAR

STARTCHAR char114
ENCODING 114
SWIDTH 38 0
DWIDTH 9 0
BBX 10 11 0 0
BITMAP
3DC0
3F80
3F80
7F80
7C00
7800
7800
7800
F800
F000
7000
ENDCHAR

STARTCHAR char115
ENCODING 115
SWIDTH 12 0
DWIDTH 13 0
BBX 12 11 0 0
BITMAP
0FC0
3FE0
7CF0
7C00
7F80
3FC0
1FE0
F1E0
FFE0
FFC0
3F00
ENDCHAR

STARTCHAR char116
ENCODING 116
SWIDTH 34 0
DWIDTH 8 0
BBX 7 14 1 0
BITMAP
3C
3C
3C
FE
FE
FE
78
78
F0
F0
F8
FC
FC
78
ENDCHAR

STARTCHAR char117
ENCODING 117
SWIDTH 16 0
DWIDTH 14 0
BBX 12 11 1 0
BITMAP
70F0
78F0
78F0
71F0
71E0
F1E0
F1E0
F3E0
FFE0
FFC0
7840
ENDCHAR

STARTCHAR char118
ENCODING 118
SWIDTH 8 0
DWIDTH 12 0
BBX 12 11 1 0
BITMAP
F1E0
F1E0
F3E0
73C0
73C0
7780
7700
7F00
7E00
7E00
7C00
ENDCHAR

STARTCHAR char119
ENCODING 119
SWIDTH 38 0
DWIDTH 19 0
BBX 18 11 1 0
BITMAP
F1E380
F3E780
F3E780
F3EF00
F7EF00
FFFE00
FEFE00
FEFC00
FCFC00
FCF800
F8F800
ENDCHAR

STARTCHAR char120
ENCODING 120
SWIDTH 12 0
DWIDTH 13 0
BBX 13 11 -1 0
BITMAP
3E78
1EF8
1EF0
0FE0
0FC0
0F80
1FC0
3FC0
3DE0
7DE0
79F0
ENDCHAR

STARTCHAR char121
ENCODING 121
SWIDTH 8 0
DWIDTH 12 0
BBX 12 14 0 -3
BITMAP
78F0
79F0
79E0
79E0
7BC0
3BC0
3B80
3F80
3F00
3F00
3E00
FE00
FC00
F800
ENDCHAR

STARTCHAR char122
ENCODING 122
SWIDTH 8 0
DWIDTH 12 0
BBX 13 11 -1 0
BITMAP
1FF8
1FF8
3FF0
03E0
07C0
0F80
1F00
3E00
7FE0
7FE0
FFE0
ENDCHAR

STARTCHAR char123
ENCODING 123
SWIDTH 30 0
DWIDTH 7 0
BBX 5 19 1 -4
BITMAP
38
70
60
60
20
20
20
60
40
80
60
60
60
60
60
60
60
70
38
ENDCHAR

STARTCHAR char124
ENCODING 124
SWIDTH 25 0
DWIDTH 6 0
BBX 2 15 2 0
BITMAP
C0
C0
C0
C0
C0
C0
C0
C0
C0
C0
C0
C0
C0
C0
C0
ENDCHAR

STARTCHAR char125
ENCODING 125
SWIDTH 30 0
DWIDTH 7 0
BBX 5 19 1 -4
BITMAP
C0
20
20
20
30
30
30
30
10
08
10
30
30
30
30
30
30
70
E0
ENDCHAR

STARTCHAR char126
ENCODING 126
SWIDTH 0 0
DWIDTH 0 0
BBX 8 3 -1 16
BITMAP
77
FE
DC
ENDCHAR

STARTCHAR char128
ENCODING 128
SWIDTH 29 0
DWIDTH 17 0
BBX 17 15 -1 0
BITMAP
00FC00
03FE00
07FF00
0F9F80
1F0F80
1E0780
7FF000
3E0000
FFF000
3E0F00
3E1F00
3E3F00
1FFE00
0FFC00
03F000
ENDCHAR

STARTCHAR char130
ENCODING 130
SWIDTH 21 0
DWIDTH 5 0
BBX 6 8 -1 -4
BITMAP
3C
3C
7C
78
18
78
F0
E0
ENDCHAR

STARTCHAR char131
ENCODING 131
SWIDTH 0 0
DWIDTH 0 0
BBX 8 3 -1 16
BITMAP
3E
7E
E7
ENDCHAR

STARTCHAR char132
ENCODING 132
SWIDTH 3 0
DWIDTH 11 0
BBX 10 8 -1 -4
BITMAP
7BC0
7BC0
7BC0
7380
3180
F780
E700
C600
ENDCHAR

STARTCHAR char133
ENCODING 133
SWIDTH 7 0
DWIDTH 22 0
BBX 16 3 2 0
BITMAP
C183
C183
C183
ENDCHAR

STARTCHAR char134
ENCODING 134
SWIDTH 12 0
DWIDTH 13 0
BBX 12 18 1 -3
BITMAP
0780
0780
0F80
0F90
FFF0
FFE0
FFE0
9FE0
1F00
1E00
3E00
3E00
3E00
3C00
3C00
7C00
7C00
3800
ENDCHAR

STARTCHAR char136
ENCODING 136
SWIDTH 0 0
DWIDTH 0 0
BBX 8 3 -2 12
BITMAP
3E
7E
E7
ENDCHAR

STARTCHAR char138
ENCODING 138
SWIDTH 3 0
DWIDTH 21 0
BBX 0 0 0 0
BITMAP
ENDCHAR

STARTCHAR char139
ENCODING 139
SWIDTH 30 0
DWIDTH 7 0
BBX 3 7 2 2
BITMAP
20
60
C0
80
E0
60
20
ENDCHAR

STARTCHAR char140
ENCODING 140
SWIDTH 11 0
DWIDTH 23 0
BBX 22 15 1 0
BITMAP
07EFFC
0FFFFC
1FFFF8
3E7FF8
7C3E00
781E00
F81FF0
F03FF0
F03FE0
F03C00
F07C00
F8FFF0
7FFFF0
3FFFE0
1F7FE0
ENDCHAR

STARTCHAR char141
ENCODING 141
SWIDTH 3 0
DWIDTH 21 0
BBX 0 0 0 0
BITMAP
ENDCHAR

STARTCHAR char145
ENCODING 145
SWIDTH 25 0
DWIDTH 6 0
BBX 5 8 2 7
BITMAP
38
78
78
60
F0
F0
F0
F0
ENDCHAR

STARTCHAR char146
ENCODING 146
SWIDTH 25 0
DWIDTH 6 0
BBX 5 8 2 7
BITMAP
78
78
78
F8
30
B0
F0
C0
ENDCHAR

STARTCHAR char147
ENCODING 147
SWIDTH 3 0
DWIDTH 11 0
BBX 11 8 1 7
BITMAP
1CE0
39E0
79E0
6300
7BC0
73C0
7380
F780
ENDCHAR

STARTCHAR char148
ENCODING 148
SWIDTH 3 0
DWIDTH 11 0
BBX 11 9 1 6
BITMAP
3DE0
39C0
7BC0
7BC0
18C0
31C0
F380
F780
E300
ENDCHAR

STARTCHAR char149
ENCODING 149
SWIDTH 30 0
DWIDTH 7 0
BBX 5 5 1 5
BITMAP
70
F8
F8
F8
70
ENDCHAR

STARTCHAR char150
ENCODING 150
SWIDTH 20 0
DWIDTH 15 0
BBX 13 4 0 3
BITMAP
7FF8
7FF8
FFF8
C000
ENDCHAR

STARTCHAR char151
ENCODING 151
SWIDTH 20 0
DWIDTH 15 0
BBX 14 3 1 5
BITMAP
FFFC
FFFC
FFFC
ENDCHAR

STARTCHAR char152
ENCODING 152
SWIDTH 0 0
DWIDTH 0 0
BBX 8 3 -2 12
BITMAP
77
FE
DC
ENDCHAR

STARTCHAR char153
ENCODING 153
SWIDTH 38 0
DWIDTH 19 0
BBX 17 8 0 6
BITMAP
FFC380
F6C300
96E700
10E500
10A700
10BB00
109B00
39D380
ENDCHAR

STARTCHAR char155
ENCODING 155
SWIDTH 30 0
DWIDTH 7 0
BBX 3 7 2 2
BITMAP
80
C0
60
20
E0
80
80
ENDCHAR

STARTCHAR char156
ENCODING 156
SWIDTH 3 0
DWIDTH 21 0
BBX 20 11 0 0
BITMAP
0FCF80
3FFFE0
7FFFF0
78F0F0
F8FFF0
F0FFF0
F0FFF0
F1F000
FFF3E0
7FFFC0
3F3F00
ENDCHAR

STARTCHAR char157
ENCODING 157
SWIDTH 3 0
DWIDTH 21 0
BBX 0 0 0 0
BITMAP
ENDCHAR

STARTCHAR char159
ENCODING 159
SWIDTH 25 0
DWIDTH 16 0
BBX 16 19 2 0
BITMAP
0E70
1EF0
1EF0
0000
F83F
F87E
787C
7CF8
3DF0
3DE0
3FE0
1FC0
1F80
0F00
1F00
1F00
1F00
1E00
1E00
ENDCHAR

STARTCHAR char160
ENCODING 160
SWIDTH 30 0
DWIDTH 7 0
BBX 0 0 0 0
BITMAP
ENDCHAR

STARTCHAR char161
ENCODING 161
SWIDTH 30 0
DWIDTH 7 0
BBX 7 15 0 0
BITMAP
1E
3E
3C
3C
00
00
38
38
78
78
78
F8
F0
F0
F0
ENDCHAR

STARTCHAR char162
ENCODING 162
SWIDTH 12 0
DWIDTH 13 0
BBX 11 15 1 -2
BITMAP
0300
0200
1F80
3FC0
7FE0
79E0
F000
F000
F000
F3C0
FFC0
7F80
1F00
1800
1800
ENDCHAR

STARTCHAR char163
ENCODING 163
SWIDTH 20 0
DWIDTH 15 0
BBX 14 15 1 0
BITMAP
07E0
0FF8
1FFC
3E7C
3C3C
3C3C
3C00
7F80
7F80
3C00
7C10
FFE0
FFF0
7FF0
41E0
ENDCHAR

STARTCHAR char164
ENCODING 164
SWIDTH 0 0
DWIDTH 0 0
BBX 6 3 1 16
BITMAP
7C
F8
F0
ENDCHAR

STARTCHAR char165
ENCODING 165
SWIDTH 0 0
DWIDTH 0 0
BBX 8 3 -1 16
BITMAP
EF
FE
7C
ENDCHAR

STARTCHAR char166
ENCODING 166
SWIDTH 3 0
DWIDTH 21 0
BBX 0 0 0 0
BITMAP
ENDCHAR

STARTCHAR char167
ENCODING 167
SWIDTH 20 0
DWIDTH 15 0
BBX 13 19 1 -4
BITMAP
07E0
1FF0
3FF8
3CF8
3E78
3F80
7FE0
FFF0
E1F8
F078
FE78
FFF0
3FC0
0FE0
F3E0
F3E0
FFC0
FF80
7E00
ENDCHAR

STARTCHAR char168
ENCODING 168
SWIDTH 0 0
DWIDTH 0 0
BBX 10 3 -3 12
BITMAP
7380
7780
F780
ENDCHAR

STARTCHAR char169
ENCODING 169
SWIDTH 29 0
DWIDTH 17 0
BBX 15 14 0 0
BITMAP
07C0
0820
1018
23E8
4C64
DC26
D806
D806
D806
4C04
4E44
2388
1810
07E0
ENDCHAR

STARTCHAR char170
ENCODING 170
SWIDTH 0 0
DWIDTH 0 0
BBX 9 3 -2 16
BITMAP
7380
F780
F780
ENDCHAR

STARTCHAR char171
ENCODING 171
SWIDTH 38 0
DWIDTH 9 0
BBX 9 9 0 1
BITMAP
0880
3B80
7700
7700
EE00
FF00
7700
2200
2200
ENDCHAR

STARTCHAR char172
ENCODING 172
SWIDTH 20 0
DWIDTH 15 0
BBX 14 6 0 0
BITMAP
FFFC
000C
000C
000C
000C
000C
ENDCHAR

STARTCHAR char174
ENCODING 174
SWIDTH 29 0
DWIDTH 17 0
BBX 15 14 0 0
BITMAP
07C0
0820
1010
2FC8
4664
C666
C6C6
C786
C786
46C6
4E74
2008
1010
0FE0
ENDCHAR

STARTCHAR char176
ENCODING 176
SWIDTH 30 0
DWIDTH 7 0
BBX 7 6 1 8
BITMAP
38
44
C6
C6
44
38
ENDCHAR

STARTCHAR char177
ENCODING 177
SWIDTH 8 0
DWIDTH 12 0
BBX 11 13 0 0
BITMAP
0C00
0C00
0C00
0C00
0C00
FFE0
0C00
0C00
0C00
0C00
0C00
0000
FFE0
ENDCHAR

STARTCHAR char179
ENCODING 179
SWIDTH 3 0
DWIDTH 21 0
BBX 0 0 0 0
BITMAP
ENDCHAR

STARTCHAR char180
ENCODING 180
SWIDTH 0 0
DWIDTH 0 0
BBX 5 3 0 12
BITMAP
78
70
E0
ENDCHAR

STARTCHAR char182
ENCODING 182
SWIDTH 20 0
DWIDTH 15 0
BBX 9 18 2 -3
BITMAP
3F80
7180
F180
F180
F180
F180
7180
7180
1180
1180
1180
1180
1180
1180
1180
1180
1180
1180
ENDCHAR

STARTCHAR char183
ENCODING 183
SWIDTH 17 0
DWIDTH 4 0
BBX 4 4 1 4
BITMAP
60
F0
F0
60
ENDCHAR

STARTCHAR char184
ENCODING 184
SWIDTH 0 0
DWIDTH 0 0
BBX 5 5 -3 -4
BITMAP
78
F0
F0
70
E0
ENDCHAR

STARTCHAR char186
ENCODING 186
SWIDTH 0 0
DWIDTH 0 0
BBX 8 3 -1 16
BITMAP
77
FE
DC
ENDCHAR

STARTCHAR char187
ENCODING 187
SWIDTH 38 0
DWIDTH 9 0
BBX 8 9 0 1
BITMAP
44
66
77
77
33
FF
EE
CC
88
ENDCHAR

STARTCHAR char189
ENCODING 189
SWIDTH 3 0
DWIDTH 21 0
BBX 0 0 0 0
BITMAP
ENDCHAR

STARTCHAR char191
ENCODING 191
SWIDTH 16 0
DWIDTH 14 0
BBX 12 15 0 0
BITMAP
03C0
03C0
07C0
0780
0000
0000
0780
1F00
3F00
7E00
F9F0
F1E0
FFE0
7FC0
3F80
ENDCHAR

STARTCHAR char192
ENCODING 192
SWIDTH 29 0
DWIDTH 17 0
BBX 16 19 -1 0
BITMAP
01E0
00F0
0078
0000
00F8
00F8
01F8
01FC
03FC
07FC
07BC
0FBC
0F3E
1F3E
3FFE
3FFE
7FFE
FC1F
781F
ENDCHAR

STARTCHAR char193
ENCODING 193
SWIDTH 29 0
DWIDTH 17 0
BBX 16 19 -1 0
BITMAP
003E
007C
0078
0000
00F8
00F8
01F8
01FC
03FC
07FC
07BC
0FBC
0F3E
1F3E
3FFE
3FFE
7FFE
FC1F
781F
ENDCHAR

STARTCHAR char194
ENCODING 194
SWIDTH 29 0
DWIDTH 17 0
BBX 16 19 -1 0
BITMAP
007C
00FC
01EE
0000
00F8
00F8
01F8
01FC
03FC
07FC
07BC
0FBC
0F3E
1F3E
3FFE
3FFE
7FFE
FC1F
781F
ENDCHAR

STARTCHAR char195
ENCODING 195
SWIDTH 29 0
DWIDTH 17 0
BBX 16 19 -1 0
BITMAP
00EE
01FC
01BC
0000
00F8
00F8
01F8
01FC
03FC
07FC
07BC
0FBC
0F3E
1F3E
3FFE
3FFE
7FFE
FC1F
781F
ENDCHAR

STARTCHAR char196
ENCODING 196
SWIDTH 29 0
DWIDTH 17 0
BBX 16 19 -1 0
BITMAP
01EF
01EF
01CE
0000
00F8
00F8
01F8
01FC
03FC
07FC
07BC
0FBC
0F3E
1F3E
3FFE
3FFE
7FFE
FC1F
781F
ENDCHAR

STARTCHAR char197
ENCODING 197
SWIDTH 29 0
DWIDTH 17 0
BBX 16 19 -1 0
BITMAP
0038
006C
002C
0038
00FC
00FC
01FC
01FC
03FC
07DC
07DE
0F9E
0FBE
1F3E
3FFE
3FFE
7FFE
FC1F
781F
ENDCHAR

STARTCHAR char198
ENCODING 198
SWIDTH 7 0
DWIDTH 22 0
BBX 22 15 -1 0
BITMAP
01FFFC
01FFFC
03FFFC
03DF00
079E00
079E00
0F9FF0
0F3FF0
1F3FF0
1E3C00
3FFC00
3FFC70
7FFFF0
787FF0
F87FF0
ENDCHAR

STARTCHAR char199
ENCODING 199
SWIDTH 29 0
DWIDTH 17 0
BBX 15 19 1 -4
BITMAP
03F0
0FF8
1FFC
3E7E
7C3E
781E
F800
F000
F000
F03C
F07C
FCFC
7FF8
3FF0
1FE0
0E00
1E00
0E00
1C00
ENDCHAR

STARTCHAR char200
ENCODING 200
SWIDTH 20 0
DWIDTH 15 0
BBX 15 19 0 0
BITMAP
07C0
03C0
01E0
0000
1FFE
1FFE
1FFE
3E00
3C00
3C00
3FF8
7FF8
7FF8
7800
7800
7FF8
FFF8
FFF8
FFF8
ENDCHAR

STARTCHAR char201
ENCODING 201
SWIDTH 20 0
DWIDTH 15 0
BBX 15 19 0 0
BITMAP
00F8
00F0
01E0
0000
1FFE
1FFE
1FFE
3E00
3C00
3C00
3FF8
7FF8
7FF8
7800
7800
7FF8
FFF8
FFF8
FFF8
ENDCHAR

STARTCHAR char202
ENCODING 202
SWIDTH 20 0
DWIDTH 15 0
BBX 15 19 0 0
BITMAP
01F0
03F0
07B8
0000
1FFE
1FFE
1FFE
3E00
3C00
3C00
3FF8
7FF8
7FF8
7800
7800
7FF8
FFF8
FFF8
FFF8
ENDCHAR

STARTCHAR char203
ENCODING 203
SWIDTH 20 0
DWIDTH 15 0
BBX 15 19 0 0
BITMAP
07BC
0738
0F78
0000
1FFE
1FFE
1FFE
3E00
3C00
3C00
3FF8
7FF8
7FF8
7800
7800
7FF8
FFF8
FFF8
FFF8
ENDCHAR

STARTCHAR char204
ENCODING 204
SWIDTH 30 0
DWIDTH 7 0
BBX 8 19 0 0
BITMAP
3C
1E
0E
00
1F
1E
1E
3E
3E
3E
3C
3C
7C
7C
7C
78
78
F8
78
ENDCHAR

STARTCHAR char205
ENCODING 205
SWIDTH 30 0
DWIDTH 7 0
BBX 10 19 0 0
BITMAP
0780
0F00
1E00
0000
1F00
1E00
1E00
3E00
3E00
3E00
3C00
3C00
7C00
7C00
7C00
7800
7800
F800
7800
ENDCHAR

STARTCHAR char206
ENCODING 206
SWIDTH 30 0
DWIDTH 7 0
BBX 10 19 0 0
BITMAP
1F00
3F80
7B80
0000
1F00
1E00
1E00
3E00
3E00
3E00
3C00
3C00
7C00
7C00
7C00
7800
7800
F800
7800
ENDCHAR

STARTCHAR char207
ENCODING 207
SWIDTH 30 0
DWIDTH 7 0
BBX 10 19 0 0
BITMAP
7BC0
7BC0
7BC0
0000
1F00
1E00
1E00
3E00
3E00
3E00
3C00
3C00
7C00
7C00
7C00
7800
7800
F800
7800
ENDCHAR

STARTCHAR char209
ENCODING 209
SWIDTH 25 0
DWIDTH 16 0
BBX 16 19 0 0
BITMAP
01DC
03F8
0770
0000
1F0F
1F0F
1F0F
3F9F
3F9E
3F9E
3F9E
7BDE
79DC
79FC
79FC
F8FC
F8FC
F0F8
F0F8
ENDCHAR

STARTCHAR char210
ENCODING 210
SWIDTH 33 0
DWIDTH 18 0
BBX 15 19 1 0
BITMAP
07C0
03E0
01E0
0000
03E0
0FF8
1FFC
3E3C
7C1E
781E
F81E
F01E
F03E
F03C
F87C
7EF8
7FF0
3FE0
0FC0
ENDCHAR

STARTCHAR char211
ENCODING 211
SWIDTH 33 0
DWIDTH 18 0
BBX 15 19 1 0
BITMAP
0078
00F0
01E0
0000
03E0
0FF8
1FFC
3E3C
7C1E
781E
F81E
F01E
F03E
F03C
F87C
7EF8
7FF0
3FE0
0FC0
ENDCHAR

STARTCHAR char212
ENCODING 212
SWIDTH 33 0
DWIDTH 18 0
BBX 15 19 1 0
BITMAP
01F0
03F0
07B8
0000
03E0
0FF8
1FFC
3E3C
7C1E
781E
F81E
F01E
F03E
F03C
F87C
7EF8
7FF0
3FE0
0FC0
ENDCHAR

STARTCHAR char213
ENCODING 213
SWIDTH 33 0
DWIDTH 18 0
BBX 15 19 1 0
BITMAP
03B8
07F0
0770
0000
03E0
0FF8
1FFC
3E3C
7C1E
781E
F81E
F01E
F03E
F03C
F87C
7EF8
7FF0
3FE0
0FC0
ENDCHAR

STARTCHAR char214
ENCODING 214
SWIDTH 33 0
DWIDTH 18 0
BBX 15 19 1 0
BITMAP
039C
07B8
07B8
0000
03E0
0FF8
1FFC
3E3C
7C1E
781E
F81E
F01E
F03E
F03C
F87C
7EF8
7FF0
3FE0
0FC0
ENDCHAR

STARTCHAR char216
ENCODING 216
SWIDTH 33 0
DWIDTH 18 0
BBX 16 15 1 0
BITMAP
03F1
0FFF
3FFE
3E3E
7C3E
F87E
F8FF
FB9E
F73E
FE3E
FC7C
FCFC
7FF8
FFF0
8FC0
ENDCHAR

STARTCHAR char217
ENCODING 217
SWIDTH 25 0
DWIDTH 16 0
BBX 16 19 1 0
BITMAP
0F80
03C0
01E0
0000
3C1E
3C1E
3C3E
7C3E
7C3E
783C
783C
787C
F87C
F07C
F0F8
F9F8
FFF0
7FE0
1FC0
ENDCHAR

STARTCHAR char218
ENCODING 218
SWIDTH 25 0
DWIDTH 16 0
BBX 16 19 1 0
BITMAP
00F8
01F0
01C0
0000
3C1E
3C1E
3C3E
7C3E
7C3E
783C
783C
787C
F87C
F07C
F0F8
F9F8
FFF0
7FE0
1FC0
ENDCHAR

STARTCHAR char219
ENCODING 219
SWIDTH 25 0
DWIDTH 16 0
BBX 16 19 1 0
BITMAP
01F0
03F0
0738
0000
3C1E
3C1E
3C3E
7C3E
7C3E
783C
783C
787C
F87C
F07C
F0F8
F9F8
FFF0
7FE0
1FC0
ENDCHAR

STARTCHAR char220
ENCODING 220
SWIDTH 25 0
DWIDTH 16 0
BBX 15 19 1 0
BITMAP
07BC
07BC
0738
0000
3C1E
3C1E
7C3E
7C3E
7C3E
783C
F83C
F87C
F87C
F078
F8F8
F8F8
FFF0
7FE0
1FC0
ENDCHAR

STARTCHAR char222
ENCODING 222
SWIDTH 3 0
DWIDTH 21 0
BBX 0 0 0 0
BITMAP
ENDCHAR

STARTCHAR char223
ENCODING 223
SWIDTH 16 0
DWIDTH 14 0
BBX 13 15 0 0
BITMAP
07E0
1FF0
1FF8
3E78
3C78
3DF0
3FE0
7BF0
78F0
7878
7878
78F0
F7F0
F7E0
F780
ENDCHAR

STARTCHAR char224
ENCODING 224
SWIDTH 20 0
DWIDTH 15 0
BBX 13 15 0 0
BITMAP
0F80
0780
0380
0000
0FE0
3FF8
7C78
00F8
0FF8
7FF8
FCF0
F0F0
FFF0
FFF0
3CF0
ENDCHAR

STARTCHAR char225
ENCODING 225
SWIDTH 20 0
DWIDTH 15 0
BBX 13 15 0 0
BITMAP
01E0
01C0
0380
0000
0FE0
3FF8
7C78
00F8
0FF8
7FF8
FCF0
F0F0
FFF0
FFF0
3CF0
ENDCHAR

STARTCHAR char226
ENCODING 226
SWIDTH 20 0
DWIDTH 15 0
BBX 13 15 0 0
BITMAP
03E0
07E0
0F70
0000
0FE0
3FF8
7C78
00F8
0FF8
7FF8
FCF0
F0F0
FFF0
FFF0
3CF0
ENDCHAR

STARTCHAR char227
ENCODING 227
SWIDTH 20 0
DWIDTH 15 0
BBX 13 15 0 0
BITMAP
0770
0FE0
1FE0
0000
0FE0
3FF8
7C78
00F8
0FF8
7FF8
FCF0
F0F0
FFF0
FFF0
3CF0
ENDCHAR

STARTCHAR char228
ENCODING 228
SWIDTH 20 0
DWIDTH 15 0
BBX 13 15 0 0
BITMAP
0F78
0F78
1F70
0000
0FF0
3FF8
7C78
40F8
0FF8
7FF8
FCF0
F0F0
FFF0
FFF0
3DF0
ENDCHAR

STARTCHAR char229
ENCODING 229
SWIDTH 20 0
DWIDTH 15 0
BBX 13 16 0 0
BITMAP
01C0
0340
0340
01C0
0000
0FE0
3FF8
7FF8
0078
0FF8
7FF8
F8F0
F0F0
FFF0
FFF0
7DF0
ENDCHAR

STARTCHAR char230
ENCODING 230
SWIDTH 3 0
DWIDTH 21 0
BBX 20 11 0 0
BITMAP
0FCF80
3FFFE0
3FFFF0
00F0F0
1FFFF0
7FFFF0
FEFFF0
F1F000
FFFFE0
FF7FC0
3C3F00
ENDCHAR

STARTCHAR char231
ENCODING 231
SWIDTH 12 0
DWIDTH 13 0
BBX 11 15 1 -4
BITMAP
0F80
3FC0
7FE0
79E0
F000
F000
F000
F3C0
FFC0
7F80
3F00
3C00
3C00
1800
3000
ENDCHAR

STARTCHAR char232
ENCODING 232
SWIDTH 16 0
DWIDTH 14 0
BBX 13 15 0 0
BITMAP
0F00
0780
0380
0000
0FC0
3FF0
7FF0
7878
FF78
FFF8
FFF8
F000
FFF0
7FE0
1F80
ENDCHAR

STARTCHAR char233
ENCODING 233
SWIDTH 16 0
DWIDTH 14 0
BBX 13 15 0 0
BITMAP
01E0
03C0
0380
0000
0FC0
3FF0
7FF0
7878
FF78
FFF8
FFF8
F000
FFF0
7FE0
1F80
ENDCHAR

STARTCHAR char234
ENCODING 234
SWIDTH 16 0
DWIDTH 14 0
BBX 13 15 0 0
BITMAP
07E0
0FE0
1EF0
0000
0FC0
3FF0
7FF0
7878
FF78
FFF8
FFF8
F000
FFF0
7FE0
1F80
ENDCHAR

STARTCHAR char235
ENCODING 235
SWIDTH 16 0
DWIDTH 14 0
BBX 13 15 0 0
BITMAP
1EF0
1EF0
1EF0
0000
0FC0
3FF0
7FF0
7878
FF78
FFF8
FFF8
F000
FFF0
7FE0
1F80
ENDCHAR

STARTCHAR char236
ENCODING 236
SWIDTH 30 0
DWIDTH 7 0
BBX 7 15 0 0
BITMAP
78
38
3C
00
3C
3C
3C
3C
7C
78
78
78
F8
F8
70
ENDCHAR

STARTCHAR char237
ENCODING 237
SWIDTH 30 0
DWIDTH 7 0
BBX 8 15 0 0
BITMAP
0E
1E
1C
00
3C
3C
3C
3C
7C
78
78
78
F8
F8
70
ENDCHAR

STARTCHAR char238
ENCODING 238
SWIDTH 30 0
DWIDTH 7 0
BBX 8 15 0 0
BITMAP
3E
7F
F7
00
3C
3C
3C
3C
7C
78
78
78
78
F8
70
ENDCHAR

STARTCHAR char239
ENCODING 239
SWIDTH 30 0
DWIDTH 7 0
BBX 9 15 0 0
BITMAP
7780
F780
F780
0000
1E00
3C00
3C00
3C00
3C00
7C00
7800
7800
7800
F800
7800
ENDCHAR

STARTCHAR char241
ENCODING 241
SWIDTH 16 0
DWIDTH 14 0
BBX 13 15 0 0
BITMAP
0770
0FE0
1DC0
0000
3DE0
3FF0
3FF8
7CF8
7CF0
78F0
78F0
78F0
F9F0
F1E0
F0E0
ENDCHAR

STARTCHAR char242
ENCODING 242
SWIDTH 16 0
DWIDTH 14 0
BBX 12 15 1 0
BITMAP
1E00
0F00
0700
0000
0F80
3FE0
7FF0
78F0
F0F0
F0F0
F1F0
F1E0
FFE0
7FC0
1F00
ENDCHAR

STARTCHAR char243
ENCODING 243
SWIDTH 16 0
DWIDTH 14 0
BBX 12 15 1 0
BITMAP
03C0
0780
0780
0000
0F80
3FE0
7FF0
78F0
F0F0
F0F0
F1F0
F1E0
FFE0
7FC0
1F00
ENDCHAR

STARTCHAR char244
ENCODING 244
SWIDTH 16 0
DWIDTH 14 0
BBX 12 15 1 0
BITMAP
07C0
0FC0
1CE0
0000
0F80
3FE0
7FF0
78F0
F0F0
F0F0
F1F0
F1E0
FFE0
7FC0
1F00
ENDCHAR

STARTCHAR char245
ENCODING 245
SWIDTH 16 0
DWIDTH 14 0
BBX 12 15 1 0
BITMAP
0EE0
1FE0
1BC0
0000
0F80
3FE0
7FF0
78F0
F0F0
F0F0
F1F0
F1E0
FFE0
7FC0
1F00
ENDCHAR

STARTCHAR char246
ENCODING 246
SWIDTH 16 0
DWIDTH 14 0
BBX 12 15 1 0
BITMAP
0EF0
1EF0
1EF0
0000
0F80
3FE0
7FF0
78F0
F0F0
F0F0
F1F0
F1E0
FFE0
7FC0
3F00
ENDCHAR

STARTCHAR char247
ENCODING 247
SWIDTH 8 0
DWIDTH 12 0
BBX 11 9 0 1
BITMAP
0C00
0C00
0C00
0000
FFE0
0000
0C00
0C00
0C00
ENDCHAR

STARTCHAR char248
ENCODING 248
SWIDTH 16 0
DWIDTH 14 0
BBX 13 11 0 0
BITMAP
0FC8
1FF8
3FF0
7CF8
79F8
FBF8
FEF0
F8F0
7FE0
FFC0
9F80
ENDCHAR

STARTCHAR char249
ENCODING 249
SWIDTH 16 0
DWIDTH 14 0
BBX 12 15 1 0
BITMAP
1E00
0F00
0700
0000
78F0
78F0
78F0
79F0
71E0
F1E0
F1E0
F3E0
FFE0
FFC0
7840
ENDCHAR

STARTCHAR char250
ENCODING 250
SWIDTH 16 0
DWIDTH 14 0
BBX 12 15 1 0
BITMAP
03C0
0780
0700
0000
78F0
78F0
78F0
79F0
71E0
F1E0
F1E0
F3E0
FFE0
FFC0
7840
ENDCHAR

STARTCHAR char251
ENCODING 251
SWIDTH 16 0
DWIDTH 14 0
BBX 12 15 1 0
BITMAP
07C0
0FC0
1CE0
0000
78F0
78F0
78F0
79F0
71E0
F1E0
F1E0
F3E0
FFE0
FFC0
7840
ENDCHAR

STARTCHAR char252
ENCODING 252
SWIDTH 16 0
DWIDTH 14 0
BBX 12 15 1 0
BITMAP
1EF0
1EE0
1CE0
0000
78F0
78F0
78F0
F1F0
F1E0
F1E0
F1E0
F3E0
FFE0
FFC0
7840
ENDCHAR

STARTCHAR char255
ENCODING 255
SWIDTH 8 0
DWIDTH 12 0
BBX 12 18 0 -3
BITMAP
1CE0
1DE0
3DE0
0000
78F0
79F0
79E0
79E0
7BC0
3BC0
3B80
3F80
3F00
3F00
3E00
FE00
FC00
F800
ENDCHAR

ENDFONT
