STARTFONT 2.1
FONT -sun-helmetcondensed-medium-i-semicondensed--12-120-75-75-p-55-adobe-fontspecific
SIZE 12 75 75
FONTBOUNDINGBOX 13 15 -2 -3

STARTPROPERTIES 28
FOUNDRY "sun"
FAMILY_NAME "helmetcondensed"
WEIGHT_NAME "medium"
SLANT "i"
SETWIDTH_NAME "semicondensed"
ADD_STYLE_NAME ""
PIXEL_SIZE 12
POINT_SIZE 120
RESOLUTION_X 75
RESOLUTION_Y 75
SPACING "p"
AVERAGE_WIDTH 55
CHARSET_REGISTRY "adobe"
CHARSET_ENCODING "fontspecific"
COPYRIGHT "© 1999 Sun Microsystems, Inc."
RAW_PIXELSIZE 1000
RAW_POINTSIZE 964
RAW_ASCENT 911
RAW_DESCENT 217
RAW_AVERAGE_WIDTH 4390
FACE_NAME "HelmetCondensedItalicedB5"
_XMBDFED_INFO "Edited with xmbdfed 2.4."
WEIGHT 10
X_HEIGHT -1
QUAD_WIDTH 7
DEFAULT_CHAR 4
FONT_DESCENT 3
FONT_ASCENT 12
ENDPROPERTIES

CHARS 210

STARTCHAR char32
ENCODING 32
SWIDTH 28 0
DWIDTH 4 0
BBX 0 0 0 0
BITMAP
ENDCHAR

STARTCHAR char33
ENCODING 33
SWIDTH 14 0
DWIDTH 2 0
BBX 3 9 0 0
BITMAP
20
20
20
40
40
40
40
00
80
ENDCHAR

STARTCHAR char34
ENCODING 34
SWIDTH 28 0
DWIDTH 4 0
BBX 3 3 1 6
BITMAP
A0
A0
A0
ENDCHAR

STARTCHAR char35
ENCODING 35
SWIDTH 50 0
DWIDTH 7 0
BBX 6 9 0 0
BITMAP
24
24
28
3C
28
38
C8
48
48
ENDCHAR

STARTCHAR char36
ENCODING 36
SWIDTH 43 0
DWIDTH 6 0
BBX 5 10 0 -1
BITMAP
30
58
58
50
30
28
A8
A8
70
40
ENDCHAR

STARTCHAR char37
ENCODING 37
SWIDTH 71 0
DWIDTH 10 0
BBX 8 9 0 0
BITMAP
64
94
94
9B
BD
F9
19
29
2F
ENDCHAR

STARTCHAR char38
ENCODING 38
SWIDTH 43 0
DWIDTH 6 0
BBX 6 9 0 0
BITMAP
78
48
48
70
60
94
94
88
74
ENDCHAR

STARTCHAR char39
ENCODING 39
SWIDTH 14 0
DWIDTH 2 0
BBX 2 3 1 6
BITMAP
80
80
80
ENDCHAR

STARTCHAR char40
ENCODING 40
SWIDTH 28 0
DWIDTH 4 0
BBX 4 12 1 -2
BITMAP
10
20
20
40
40
80
80
80
80
80
40
40
ENDCHAR

STARTCHAR char41
ENCODING 41
SWIDTH 28 0
DWIDTH 4 0
BBX 4 12 -1 -2
BITMAP
20
20
10
10
10
10
10
10
20
20
40
80
ENDCHAR

STARTCHAR char42
ENCODING 42
SWIDTH 35 0
DWIDTH 5 0
BBX 4 4 1 5
BITMAP
20
70
60
20
ENDCHAR

STARTCHAR char43
ENCODING 43
SWIDTH 43 0
DWIDTH 6 0
BBX 6 5 0 1
BITMAP
10
10
FC
10
10
ENDCHAR

STARTCHAR char44
ENCODING 44
SWIDTH 14 0
DWIDTH 2 0
BBX 2 3 -1 -2
BITMAP
40
40
80
ENDCHAR

STARTCHAR char45
ENCODING 45
SWIDTH 35 0
DWIDTH 5 0
BBX 4 1 0 3
BITMAP
F0
ENDCHAR

STARTCHAR char46
ENCODING 46
SWIDTH 14 0
DWIDTH 2 0
BBX 1 1 0 0
BITMAP
80
ENDCHAR

STARTCHAR char47
ENCODING 47
SWIDTH 21 0
DWIDTH 3 0
BBX 5 9 -1 0
BITMAP
08
08
10
10
20
20
20
40
40
ENDCHAR

STARTCHAR char48
ENCODING 48
SWIDTH 43 0
DWIDTH 6 0
BBX 5 9 0 0
BITMAP
30
48
48
48
88
88
88
90
60
ENDCHAR

STARTCHAR char49
ENCODING 49
SWIDTH 43 0
DWIDTH 6 0
BBX 3 9 1 0
BITMAP
20
E0
20
20
20
40
40
40
40
ENDCHAR

STARTCHAR char50
ENCODING 50
SWIDTH 43 0
DWIDTH 6 0
BBX 5 9 0 0
BITMAP
30
48
48
08
10
20
40
80
F0
ENDCHAR

STARTCHAR char51
ENCODING 51
SWIDTH 43 0
DWIDTH 6 0
BBX 5 9 0 0
BITMAP
30
48
08
18
30
10
10
90
70
ENDCHAR

STARTCHAR char52
ENCODING 52
SWIDTH 43 0
DWIDTH 6 0
BBX 5 9 0 0
BITMAP
08
18
28
28
50
90
F8
10
10
ENDCHAR

STARTCHAR char53
ENCODING 53
SWIDTH 43 0
DWIDTH 6 0
BBX 5 9 0 0
BITMAP
38
20
40
70
48
08
08
88
70
ENDCHAR

STARTCHAR char54
ENCODING 54
SWIDTH 43 0
DWIDTH 6 0
BBX 5 9 0 0
BITMAP
38
48
40
B0
C8
88
88
88
70
ENDCHAR

STARTCHAR char55
ENCODING 55
SWIDTH 43 0
DWIDTH 6 0
BBX 5 9 1 0
BITMAP
F8
10
10
20
40
40
40
80
80
ENDCHAR

STARTCHAR char56
ENCODING 56
SWIDTH 43 0
DWIDTH 6 0
BBX 5 9 0 0
BITMAP
38
48
48
48
30
C8
88
88
70
ENDCHAR

STARTCHAR char57
ENCODING 57
SWIDTH 43 0
DWIDTH 6 0
BBX 5 9 0 0
BITMAP
30
48
48
48
48
38
08
D0
60
ENDCHAR

STARTCHAR char58
ENCODING 58
SWIDTH 14 0
DWIDTH 2 0
BBX 2 6 0 0
BITMAP
40
00
00
00
00
80
ENDCHAR

STARTCHAR char59
ENCODING 59
SWIDTH 14 0
DWIDTH 2 0
BBX 2 8 0 -2
BITMAP
40
00
00
00
00
80
80
80
ENDCHAR

STARTCHAR char60
ENCODING 60
SWIDTH 57 0
DWIDTH 8 0
BBX 7 6 0 0
BITMAP
0E
30
C0
60
18
06
ENDCHAR

STARTCHAR char61
ENCODING 61
SWIDTH 43 0
DWIDTH 6 0
BBX 6 3 0 2
BITMAP
FC
00
FC
ENDCHAR

STARTCHAR char62
ENCODING 62
SWIDTH 57 0
DWIDTH 8 0
BBX 7 6 0 0
BITMAP
60
18
06
0C
30
C0
ENDCHAR

STARTCHAR char63
ENCODING 63
SWIDTH 35 0
DWIDTH 5 0
BBX 4 9 1 0
BITMAP
60
90
90
30
20
40
80
00
80
ENDCHAR

STARTCHAR char64
ENCODING 64
SWIDTH 27 0
DWIDTH 14 0
BBX 9 9 2 0
BITMAP
3E00
4100
DE80
A680
A480
A580
DE00
4100
3E00
ENDCHAR

STARTCHAR char65
ENCODING 65
SWIDTH 35 0
DWIDTH 5 0
BBX 6 9 -1 0
BITMAP
08
18
18
1C
24
24
7C
C4
84
ENDCHAR

STARTCHAR char66
ENCODING 66
SWIDTH 43 0
DWIDTH 6 0
BBX 6 9 0 0
BITMAP
38
44
44
48
70
88
88
88
F0
ENDCHAR

STARTCHAR char67
ENCODING 67
SWIDTH 43 0
DWIDTH 6 0
BBX 6 9 0 0
BITMAP
38
44
44
40
80
80
88
88
70
ENDCHAR

STARTCHAR char68
ENCODING 68
SWIDTH 50 0
DWIDTH 7 0
BBX 6 9 0 0
BITMAP
38
44
44
44
44
84
84
88
F0
ENDCHAR

STARTCHAR char69
ENCODING 69
SWIDTH 35 0
DWIDTH 5 0
BBX 6 9 0 0
BITMAP
3C
40
40
40
78
40
80
80
F0
ENDCHAR

STARTCHAR char70
ENCODING 70
SWIDTH 35 0
DWIDTH 5 0
BBX 6 9 0 0
BITMAP
3C
40
40
40
78
80
80
80
80
ENDCHAR

STARTCHAR char71
ENCODING 71
SWIDTH 50 0
DWIDTH 7 0
BBX 6 9 0 0
BITMAP
38
44
44
40
9C
88
88
88
78
ENDCHAR

STARTCHAR char72
ENCODING 72
SWIDTH 50 0
DWIDTH 7 0
BBX 7 9 0 0
BITMAP
42
42
44
44
7C
84
84
88
88
ENDCHAR

STARTCHAR char73
ENCODING 73
SWIDTH 14 0
DWIDTH 2 0
BBX 3 9 0 0
BITMAP
40
40
40
40
40
40
80
80
80
ENDCHAR

STARTCHAR char74
ENCODING 74
SWIDTH 35 0
DWIDTH 5 0
BBX 5 9 0 0
BITMAP
08
08
08
10
10
10
90
90
E0
ENDCHAR

STARTCHAR char75
ENCODING 75
SWIDTH 43 0
DWIDTH 6 0
BBX 6 9 0 0
BITMAP
44
48
50
60
50
90
90
90
90
ENDCHAR

STARTCHAR char76
ENCODING 76
SWIDTH 35 0
DWIDTH 5 0
BBX 4 9 0 0
BITMAP
40
40
40
40
40
40
80
80
F0
ENDCHAR

STARTCHAR char77
ENCODING 77
SWIDTH 64 0
DWIDTH 9 0
BBX 8 9 0 0
BITMAP
21
63
63
63
65
A5
9A
9A
92
ENDCHAR

STARTCHAR char78
ENCODING 78
SWIDTH 50 0
DWIDTH 7 0
BBX 7 9 0 0
BITMAP
22
62
64
54
54
94
94
98
88
ENDCHAR

STARTCHAR char79
ENCODING 79
SWIDTH 50 0
DWIDTH 7 0
BBX 6 9 0 0
BITMAP
38
44
44
44
84
84
88
88
70
ENDCHAR

STARTCHAR char80
ENCODING 80
SWIDTH 43 0
DWIDTH 6 0
BBX 6 9 0 0
BITMAP
38
44
44
44
78
80
80
80
80
ENDCHAR

STARTCHAR char81
ENCODING 81
SWIDTH 50 0
DWIDTH 7 0
BBX 6 9 0 0
BITMAP
38
44
44
44
84
84
88
98
78
ENDCHAR

STARTCHAR char82
ENCODING 82
SWIDTH 43 0
DWIDTH 6 0
BBX 6 9 0 0
BITMAP
38
44
44
4C
70
88
88
88
88
ENDCHAR

STARTCHAR char83
ENCODING 83
SWIDTH 43 0
DWIDTH 6 0
BBX 6 9 0 0
BITMAP
38
44
40
40
30
08
88
88
70
ENDCHAR

STARTCHAR char84
ENCODING 84
SWIDTH 35 0
DWIDTH 5 0
BBX 5 9 1 0
BITMAP
F0
40
40
40
40
40
80
80
80
ENDCHAR

STARTCHAR char85
ENCODING 85
SWIDTH 50 0
DWIDTH 7 0
BBX 7 9 0 0
BITMAP
42
42
44
44
84
84
88
88
70
ENDCHAR

STARTCHAR char86
ENCODING 86
SWIDTH 35 0
DWIDTH 5 0
BBX 5 9 1 0
BITMAP
88
88
90
90
A0
A0
C0
C0
80
ENDCHAR

STARTCHAR char87
ENCODING 87
SWIDTH 57 0
DWIDTH 8 0
BBX 8 9 1 0
BITMAP
91
92
B2
B2
B4
B4
D8
D8
98
ENDCHAR

STARTCHAR char88
ENCODING 88
SWIDTH 35 0
DWIDTH 5 0
BBX 7 9 -1 0
BITMAP
22
26
14
18
10
28
28
48
88
ENDCHAR

STARTCHAR char89
ENCODING 89
SWIDTH 35 0
DWIDTH 5 0
BBX 5 9 1 0
BITMAP
88
98
90
A0
40
40
40
80
80
ENDCHAR

STARTCHAR char90
ENCODING 90
SWIDTH 35 0
DWIDTH 5 0
BBX 6 9 -1 0
BITMAP
3C
04
08
08
10
20
40
40
F8
ENDCHAR

STARTCHAR char91
ENCODING 91
SWIDTH 21 0
DWIDTH 3 0
BBX 4 12 0 -2
BITMAP
30
20
40
40
40
40
40
80
80
80
80
80
ENDCHAR

STARTCHAR char92
ENCODING 92
SWIDTH 28 0
DWIDTH 4 0
BBX 4 9 0 0
BITMAP
80
80
40
40
40
20
20
20
20
ENDCHAR

STARTCHAR char93
ENCODING 93
SWIDTH 21 0
DWIDTH 3 0
BBX 4 12 -1 -2
BITMAP
30
10
10
10
20
20
20
20
20
40
40
C0
ENDCHAR

STARTCHAR char94
ENCODING 94
SWIDTH 0 0
DWIDTH 0 0
BBX 3 2 0 9
BITMAP
C0
A0
ENDCHAR

STARTCHAR char95
ENCODING 95
SWIDTH 50 0
DWIDTH 7 0
BBX 7 1 0 -2
BITMAP
FE
ENDCHAR

STARTCHAR char96
ENCODING 96
SWIDTH 0 0
DWIDTH 0 0
BBX 2 2 -1 7
BITMAP
40
40
ENDCHAR

STARTCHAR char97
ENCODING 97
SWIDTH 35 0
DWIDTH 5 0
BBX 4 6 0 0
BITMAP
70
10
30
D0
90
F0
ENDCHAR

STARTCHAR char98
ENCODING 98
SWIDTH 35 0
DWIDTH 5 0
BBX 5 9 0 0
BITMAP
40
40
40
78
88
88
88
90
E0
ENDCHAR

STARTCHAR char99
ENCODING 99
SWIDTH 35 0
DWIDTH 5 0
BBX 4 6 0 0
BITMAP
70
80
80
80
90
E0
ENDCHAR

STARTCHAR char100
ENCODING 100
SWIDTH 35 0
DWIDTH 5 0
BBX 5 9 0 0
BITMAP
08
08
08
78
88
88
90
90
F0
ENDCHAR

STARTCHAR char101
ENCODING 101
SWIDTH 35 0
DWIDTH 5 0
BBX 4 6 0 0
BITMAP
70
90
F0
80
90
E0
ENDCHAR

STARTCHAR char102
ENCODING 102
SWIDTH 14 0
DWIDTH 2 0
BBX 3 9 0 0
BITMAP
20
20
60
40
40
40
80
80
80
ENDCHAR

STARTCHAR char103
ENCODING 103
SWIDTH 35 0
DWIDTH 5 0
BBX 5 8 0 -2
BITMAP
78
88
90
90
90
F0
20
E0
ENDCHAR

STARTCHAR char104
ENCODING 104
SWIDTH 35 0
DWIDTH 5 0
BBX 5 9 0 0
BITMAP
40
40
40
78
48
88
90
90
90
ENDCHAR

STARTCHAR char105
ENCODING 105
SWIDTH 14 0
DWIDTH 2 0
BBX 3 9 0 0
BITMAP
20
00
00
40
40
40
80
80
80
ENDCHAR

STARTCHAR char106
ENCODING 106
SWIDTH 14 0
DWIDTH 2 0
BBX 4 11 -1 -2
BITMAP
10
00
00
20
20
20
40
40
40
40
80
ENDCHAR

STARTCHAR char107
ENCODING 107
SWIDTH 28 0
DWIDTH 4 0
BBX 5 9 0 0
BITMAP
40
40
40
50
60
C0
A0
A0
A0
ENDCHAR

STARTCHAR char108
ENCODING 108
SWIDTH 14 0
DWIDTH 2 0
BBX 2 9 0 0
BITMAP
40
40
40
40
40
40
80
80
80
ENDCHAR

STARTCHAR char109
ENCODING 109
SWIDTH 57 0
DWIDTH 8 0
BBX 8 6 0 0
BITMAP
7F
49
53
92
92
92
ENDCHAR

STARTCHAR char110
ENCODING 110
SWIDTH 35 0
DWIDTH 5 0
BBX 5 6 0 0
BITMAP
78
48
48
90
90
90
ENDCHAR

STARTCHAR char111
ENCODING 111
SWIDTH 35 0
DWIDTH 5 0
BBX 5 6 0 0
BITMAP
78
88
88
88
90
E0
ENDCHAR

STARTCHAR char112
ENCODING 112
SWIDTH 35 0
DWIDTH 5 0
BBX 6 8 -1 -2
BITMAP
3C
24
24
44
48
70
40
40
ENDCHAR

STARTCHAR char113
ENCODING 113
SWIDTH 35 0
DWIDTH 5 0
BBX 5 8 0 -2
BITMAP
78
88
88
90
90
F0
10
10
ENDCHAR

STARTCHAR char114
ENCODING 114
SWIDTH 21 0
DWIDTH 3 0
BBX 4 7 0 0
BITMAP
20
70
40
40
80
80
80
ENDCHAR

STARTCHAR char115
ENCODING 115
SWIDTH 28 0
DWIDTH 4 0
BBX 4 6 0 0
BITMAP
F0
80
40
30
90
E0
ENDCHAR

STARTCHAR char116
ENCODING 116
SWIDTH 21 0
DWIDTH 3 0
BBX 3 8 0 0
BITMAP
40
40
60
40
40
80
80
C0
ENDCHAR

STARTCHAR char117
ENCODING 117
SWIDTH 35 0
DWIDTH 5 0
BBX 5 6 0 0
BITMAP
48
48
48
90
90
F0
ENDCHAR

STARTCHAR char118
ENCODING 118
SWIDTH 28 0
DWIDTH 4 0
BBX 5 6 0 0
BITMAP
D0
50
50
60
60
40
ENDCHAR

STARTCHAR char119
ENCODING 119
SWIDTH 50 0
DWIDTH 7 0
BBX 7 6 0 0
BITMAP
94
B4
B4
B8
D8
90
ENDCHAR

STARTCHAR char120
ENCODING 120
SWIDTH 28 0
DWIDTH 4 0
BBX 5 6 -1 0
BITMAP
28
38
30
30
50
90
ENDCHAR

STARTCHAR char121
ENCODING 121
SWIDTH 28 0
DWIDTH 4 0
BBX 6 8 -1 -2
BITMAP
48
48
50
70
60
60
40
80
ENDCHAR

STARTCHAR char122
ENCODING 122
SWIDTH 28 0
DWIDTH 4 0
BBX 5 6 -1 0
BITMAP
38
08
10
20
40
F0
ENDCHAR

STARTCHAR char123
ENCODING 123
SWIDTH 28 0
DWIDTH 4 0
BBX 3 12 1 -3
BITMAP
60
40
40
40
C0
80
80
40
40
40
40
60
ENDCHAR

STARTCHAR char124
ENCODING 124
SWIDTH 21 0
DWIDTH 3 0
BBX 1 9 1 0
BITMAP
80
80
80
80
80
80
80
80
80
ENDCHAR

STARTCHAR char125
ENCODING 125
SWIDTH 28 0
DWIDTH 4 0
BBX 3 12 1 -3
BITMAP
80
40
40
40
40
20
40
40
40
40
40
C0
ENDCHAR

STARTCHAR char126
ENCODING 126
SWIDTH 0 0
DWIDTH 0 0
BBX 3 1 0 10
BITMAP
E0
ENDCHAR

STARTCHAR char128
ENCODING 128
SWIDTH 43 0
DWIDTH 6 0
BBX 6 9 0 0
BITMAP
38
44
44
F0
F0
80
88
88
70
ENDCHAR

STARTCHAR char130
ENCODING 130
SWIDTH 14 0
DWIDTH 2 0
BBX 2 3 -1 -2
BITMAP
40
40
80
ENDCHAR

STARTCHAR char131
ENCODING 131
SWIDTH 0 0
DWIDTH 0 0
BBX 3 2 0 9
BITMAP
C0
A0
ENDCHAR

STARTCHAR char132
ENCODING 132
SWIDTH 28 0
DWIDTH 4 0
BBX 3 3 -1 -2
BITMAP
60
A0
A0
ENDCHAR

STARTCHAR char133
ENCODING 133
SWIDTH 20 0
DWIDTH 13 0
BBX 9 1 2 0
BITMAP
8880
ENDCHAR

STARTCHAR char134
ENCODING 134
SWIDTH 35 0
DWIDTH 5 0
BBX 5 11 0 -2
BITMAP
10
10
10
F8
20
20
20
20
40
40
40
ENDCHAR

STARTCHAR char135
ENCODING 135
SWIDTH 13 0
DWIDTH 12 0
BBX 0 0 0 0
BITMAP
ENDCHAR

STARTCHAR char136
ENCODING 136
SWIDTH 0 0
DWIDTH 0 0
BBX 3 2 -1 7
BITMAP
60
A0
ENDCHAR

STARTCHAR char137
ENCODING 137
SWIDTH 13 0
DWIDTH 12 0
BBX 0 0 0 0
BITMAP
ENDCHAR

STARTCHAR char139
ENCODING 139
SWIDTH 28 0
DWIDTH 4 0
BBX 2 5 1 1
BITMAP
40
40
80
40
40
ENDCHAR

STARTCHAR char140
ENCODING 140
SWIDTH 64 0
DWIDTH 9 0
BBX 9 9 0 0
BITMAP
3B80
4400
4400
4400
8700
8800
8800
8800
7F00
ENDCHAR

STARTCHAR char142
ENCODING 142
SWIDTH 13 0
DWIDTH 12 0
BBX 0 0 0 0
BITMAP
ENDCHAR

STARTCHAR char144
ENCODING 144
SWIDTH 13 0
DWIDTH 12 0
BBX 0 0 0 0
BITMAP
ENDCHAR

STARTCHAR char145
ENCODING 145
SWIDTH 14 0
DWIDTH 2 0
BBX 2 3 1 6
BITMAP
80
80
80
ENDCHAR

STARTCHAR char146
ENCODING 146
SWIDTH 14 0
DWIDTH 2 0
BBX 1 3 1 6
BITMAP
80
80
80
ENDCHAR

STARTCHAR char147
ENCODING 147
SWIDTH 28 0
DWIDTH 4 0
BBX 3 3 1 6
BITMAP
A0
A0
A0
ENDCHAR

STARTCHAR char148
ENCODING 148
SWIDTH 28 0
DWIDTH 4 0
BBX 3 3 1 6
BITMAP
A0
A0
A0
ENDCHAR

STARTCHAR char149
ENCODING 149
SWIDTH 28 0
DWIDTH 4 0
BBX 3 3 1 3
BITMAP
E0
E0
E0
ENDCHAR

STARTCHAR char150
ENCODING 150
SWIDTH 43 0
DWIDTH 6 0
BBX 5 1 0 3
BITMAP
F8
ENDCHAR

STARTCHAR char151
ENCODING 151
SWIDTH 43 0
DWIDTH 6 0
BBX 6 1 0 3
BITMAP
FC
ENDCHAR

STARTCHAR char152
ENCODING 152
SWIDTH 0 0
DWIDTH 0 0
BBX 4 1 -1 8
BITMAP
F0
ENDCHAR

STARTCHAR char153
ENCODING 153
SWIDTH 6 0
DWIDTH 11 0
BBX 10 5 0 3
BITMAP
F2C0
46C0
46C0
4740
65C0
ENDCHAR

STARTCHAR char154
ENCODING 154
SWIDTH 13 0
DWIDTH 12 0
BBX 0 0 0 0
BITMAP
ENDCHAR

STARTCHAR char155
ENCODING 155
SWIDTH 28 0
DWIDTH 4 0
BBX 2 5 1 1
BITMAP
80
80
40
C0
80
ENDCHAR

STARTCHAR char156
ENCODING 156
SWIDTH 57 0
DWIDTH 8 0
BBX 8 6 0 0
BITMAP
7F
89
8F
90
92
EE
ENDCHAR

STARTCHAR char159
ENCODING 159
SWIDTH 35 0
DWIDTH 5 0
BBX 5 11 1 0
BITMAP
30
00
88
90
90
A0
40
40
40
80
80
ENDCHAR

STARTCHAR char160
ENCODING 160
SWIDTH 35 0
DWIDTH 5 0
BBX 0 0 0 0
BITMAP
ENDCHAR

STARTCHAR char161
ENCODING 161
SWIDTH 14 0
DWIDTH 2 0
BBX 3 9 0 0
BITMAP
20
00
40
40
40
40
40
80
80
ENDCHAR

STARTCHAR char162
ENCODING 162
SWIDTH 35 0
DWIDTH 5 0
BBX 5 8 0 -1
BITMAP
20
78
A0
A0
A0
D0
E0
40
ENDCHAR

STARTCHAR char163
ENCODING 163
SWIDTH 43 0
DWIDTH 6 0
BBX 6 9 0 0
BITMAP
38
44
44
40
F0
40
40
40
F0
ENDCHAR

STARTCHAR char164
ENCODING 164
SWIDTH 0 0
DWIDTH 0 0
BBX 2 2 1 9
BITMAP
40
80
ENDCHAR

STARTCHAR char165
ENCODING 165
SWIDTH 0 0
DWIDTH 0 0
BBX 3 2 0 9
BITMAP
A0
40
ENDCHAR

STARTCHAR char166
ENCODING 166
SWIDTH 13 0
DWIDTH 12 0
BBX 0 0 0 0
BITMAP
ENDCHAR

STARTCHAR char167
ENCODING 167
SWIDTH 43 0
DWIDTH 6 0
BBX 5 11 0 -2
BITMAP
78
48
40
60
90
88
48
30
10
90
E0
ENDCHAR

STARTCHAR char168
ENCODING 168
SWIDTH 0 0
DWIDTH 0 0
BBX 3 1 -1 8
BITMAP
A0
ENDCHAR

STARTCHAR char169
ENCODING 169
SWIDTH 71 0
DWIDTH 10 0
BBX 9 8 0 0
BITMAP
3E00
4D00
9280
A080
A080
B280
5D00
3E00
ENDCHAR

STARTCHAR char170
ENCODING 170
SWIDTH 0 0
DWIDTH 0 0
BBX 3 1 0 10
BITMAP
A0
ENDCHAR

STARTCHAR char171
ENCODING 171
SWIDTH 35 0
DWIDTH 5 0
BBX 5 4 0 2
BITMAP
28
50
90
50
ENDCHAR

STARTCHAR char172
ENCODING 172
SWIDTH 64 0
DWIDTH 9 0
BBX 8 4 0 0
BITMAP
FF
01
01
01
ENDCHAR

STARTCHAR char173
ENCODING 173
SWIDTH 13 0
DWIDTH 12 0
BBX 0 0 0 0
BITMAP
ENDCHAR

STARTCHAR char174
ENCODING 174
SWIDTH 71 0
DWIDTH 10 0
BBX 9 8 0 0
BITMAP
1E00
7D00
9480
9E80
9C80
9480
5700
3E00
ENDCHAR

STARTCHAR char175
ENCODING 175
SWIDTH 13 0
DWIDTH 12 0
BBX 0 0 0 0
BITMAP
ENDCHAR

STARTCHAR char176
ENCODING 176
SWIDTH 35 0
DWIDTH 5 0
BBX 4 5 0 4
BITMAP
20
D0
90
D0
20
ENDCHAR

STARTCHAR char177
ENCODING 177
SWIDTH 50 0
DWIDTH 7 0
BBX 6 8 0 0
BITMAP
10
10
10
FC
10
10
10
FC
ENDCHAR

STARTCHAR char178
ENCODING 178
SWIDTH 13 0
DWIDTH 12 0
BBX 0 0 0 0
BITMAP
ENDCHAR

STARTCHAR char179
ENCODING 179
SWIDTH 13 0
DWIDTH 12 0
BBX 0 0 0 0
BITMAP
ENDCHAR

STARTCHAR char180
ENCODING 180
SWIDTH 0 0
DWIDTH 0 0
BBX 3 2 0 7
BITMAP
40
80
ENDCHAR

STARTCHAR char181
ENCODING 181
SWIDTH 13 0
DWIDTH 12 0
BBX 0 0 0 0
BITMAP
ENDCHAR

STARTCHAR char182
ENCODING 182
SWIDTH 64 0
DWIDTH 9 0
BBX 6 11 1 -2
BITMAP
7C
E8
E8
E8
68
28
28
28
28
28
28
ENDCHAR

STARTCHAR char183
ENCODING 183
SWIDTH 14 0
DWIDTH 2 0
BBX 1 1 1 3
BITMAP
80
ENDCHAR

STARTCHAR char184
ENCODING 184
SWIDTH 0 0
DWIDTH 0 0
BBX 2 2 -2 -3
BITMAP
80
80
ENDCHAR

STARTCHAR char186
ENCODING 186
SWIDTH 0 0
DWIDTH 0 0
BBX 3 1 0 10
BITMAP
E0
ENDCHAR

STARTCHAR char187
ENCODING 187
SWIDTH 35 0
DWIDTH 5 0
BBX 4 3 0 2
BITMAP
50
50
A0
ENDCHAR

STARTCHAR char188
ENCODING 188
SWIDTH 13 0
DWIDTH 12 0
BBX 0 0 0 0
BITMAP
ENDCHAR

STARTCHAR char191
ENCODING 191
SWIDTH 35 0
DWIDTH 5 0
BBX 4 9 0 0
BITMAP
10
00
20
20
40
40
80
90
60
ENDCHAR

STARTCHAR char192
ENCODING 192
SWIDTH 35 0
DWIDTH 5 0
BBX 6 11 -1 0
BITMAP
08
08
08
18
18
1C
24
24
7C
C4
84
ENDCHAR

STARTCHAR char193
ENCODING 193
SWIDTH 35 0
DWIDTH 5 0
BBX 7 11 -1 0
BITMAP
04
08
08
18
18
1C
24
24
7C
C4
84
ENDCHAR

STARTCHAR char194
ENCODING 194
SWIDTH 35 0
DWIDTH 5 0
BBX 6 11 -1 0
BITMAP
0C
14
08
18
18
1C
24
24
7C
C4
84
ENDCHAR

STARTCHAR char195
ENCODING 195
SWIDTH 35 0
DWIDTH 5 0
BBX 6 11 -1 0
BITMAP
1C
00
08
18
18
1C
24
24
7C
C4
84
ENDCHAR

STARTCHAR char196
ENCODING 196
SWIDTH 35 0
DWIDTH 5 0
BBX 7 11 -1 0
BITMAP
0A
00
08
18
18
1C
24
24
7C
C4
84
ENDCHAR

STARTCHAR char197
ENCODING 197
SWIDTH 35 0
DWIDTH 5 0
BBX 7 12 -1 0
BITMAP
1C
12
1C
08
18
18
1C
24
24
7C
C4
84
ENDCHAR

STARTCHAR char198
ENCODING 198
SWIDTH 64 0
DWIDTH 9 0
BBX 9 9 0 0
BITMAP
0F80
0C00
1400
1400
2700
3800
4800
8800
8F00
ENDCHAR

STARTCHAR char199
ENCODING 199
SWIDTH 43 0
DWIDTH 6 0
BBX 6 12 0 -3
BITMAP
38
44
44
40
80
80
88
88
70
00
40
40
ENDCHAR

STARTCHAR char200
ENCODING 200
SWIDTH 35 0
DWIDTH 5 0
BBX 6 11 0 0
BITMAP
20
10
3C
40
40
40
78
40
80
80
F0
ENDCHAR

STARTCHAR char201
ENCODING 201
SWIDTH 35 0
DWIDTH 5 0
BBX 6 11 0 0
BITMAP
08
10
3C
40
40
40
78
40
80
80
F0
ENDCHAR

STARTCHAR char202
ENCODING 202
SWIDTH 35 0
DWIDTH 5 0
BBX 6 11 0 0
BITMAP
18
28
3C
40
40
40
78
40
80
80
F0
ENDCHAR

STARTCHAR char203
ENCODING 203
SWIDTH 35 0
DWIDTH 5 0
BBX 6 11 0 0
BITMAP
18
00
3C
40
40
40
78
40
80
80
F0
ENDCHAR

STARTCHAR char204
ENCODING 204
SWIDTH 14 0
DWIDTH 2 0
BBX 3 11 0 0
BITMAP
40
40
20
20
40
40
40
40
80
80
80
ENDCHAR

STARTCHAR char205
ENCODING 205
SWIDTH 14 0
DWIDTH 2 0
BBX 4 11 0 0
BITMAP
10
20
20
20
40
40
40
40
80
80
80
ENDCHAR

STARTCHAR char206
ENCODING 206
SWIDTH 14 0
DWIDTH 2 0
BBX 4 11 0 0
BITMAP
70
50
20
20
40
40
40
40
80
80
80
ENDCHAR

STARTCHAR char207
ENCODING 207
SWIDTH 14 0
DWIDTH 2 0
BBX 4 11 0 0
BITMAP
50
00
20
20
40
40
40
40
80
80
80
ENDCHAR

STARTCHAR char208
ENCODING 208
SWIDTH 13 0
DWIDTH 12 0
BBX 0 0 0 0
BITMAP
ENDCHAR

STARTCHAR char209
ENCODING 209
SWIDTH 50 0
DWIDTH 7 0
BBX 7 11 0 0
BITMAP
1C
00
22
62
64
54
54
94
94
98
88
ENDCHAR

STARTCHAR char210
ENCODING 210
SWIDTH 50 0
DWIDTH 7 0
BBX 6 11 0 0
BITMAP
10
10
38
44
44
44
84
84
88
88
70
ENDCHAR

STARTCHAR char211
ENCODING 211
SWIDTH 50 0
DWIDTH 7 0
BBX 6 11 0 0
BITMAP
0C
08
38
44
44
44
84
84
88
88
70
ENDCHAR

STARTCHAR char212
ENCODING 212
SWIDTH 50 0
DWIDTH 7 0
BBX 6 11 0 0
BITMAP
18
14
38
44
44
44
84
84
88
88
70
ENDCHAR

STARTCHAR char213
ENCODING 213
SWIDTH 50 0
DWIDTH 7 0
BBX 6 11 0 0
BITMAP
1C
00
38
44
44
44
84
84
88
88
70
ENDCHAR

STARTCHAR char214
ENCODING 214
SWIDTH 50 0
DWIDTH 7 0
BBX 6 11 0 0
BITMAP
14
00
38
44
44
44
84
84
88
88
70
ENDCHAR

STARTCHAR char215
ENCODING 215
SWIDTH 13 0
DWIDTH 12 0
BBX 0 0 0 0
BITMAP
ENDCHAR

STARTCHAR char216
ENCODING 216
SWIDTH 50 0
DWIDTH 7 0
BBX 6 9 0 0
BITMAP
3C
44
4C
54
94
A4
A8
C8
F0
ENDCHAR

STARTCHAR char217
ENCODING 217
SWIDTH 50 0
DWIDTH 7 0
BBX 7 11 0 0
BITMAP
10
10
42
42
44
44
84
84
88
88
70
ENDCHAR

STARTCHAR char218
ENCODING 218
SWIDTH 50 0
DWIDTH 7 0
BBX 7 11 0 0
BITMAP
0C
08
42
42
44
44
84
84
88
88
70
ENDCHAR

STARTCHAR char219
ENCODING 219
SWIDTH 50 0
DWIDTH 7 0
BBX 7 11 0 0
BITMAP
18
14
42
42
44
44
84
84
88
88
70
ENDCHAR

STARTCHAR char220
ENCODING 220
SWIDTH 50 0
DWIDTH 7 0
BBX 7 11 0 0
BITMAP
14
00
42
42
44
44
84
84
88
88
70
ENDCHAR

STARTCHAR char221
ENCODING 221
SWIDTH 13 0
DWIDTH 12 0
BBX 0 0 0 0
BITMAP
ENDCHAR

STARTCHAR char223
ENCODING 223
SWIDTH 35 0
DWIDTH 5 0
BBX 5 9 0 0
BITMAP
38
48
48
58
50
90
90
90
A0
ENDCHAR

STARTCHAR char224
ENCODING 224
SWIDTH 35 0
DWIDTH 5 0
BBX 4 9 0 0
BITMAP
20
20
00
70
10
30
D0
90
F0
ENDCHAR

STARTCHAR char225
ENCODING 225
SWIDTH 35 0
DWIDTH 5 0
BBX 5 9 0 0
BITMAP
10
10
00
70
10
30
D0
90
F0
ENDCHAR

STARTCHAR char226
ENCODING 226
SWIDTH 35 0
DWIDTH 5 0
BBX 5 9 0 0
BITMAP
20
30
00
70
10
30
D0
90
F0
ENDCHAR

STARTCHAR char227
ENCODING 227
SWIDTH 35 0
DWIDTH 5 0
BBX 5 9 0 0
BITMAP
78
00
00
70
10
30
D0
90
F0
ENDCHAR

STARTCHAR char228
ENCODING 228
SWIDTH 35 0
DWIDTH 5 0
BBX 5 9 0 0
BITMAP
30
00
00
70
10
30
D0
90
F0
ENDCHAR

STARTCHAR char229
ENCODING 229
SWIDTH 35 0
DWIDTH 5 0
BBX 4 10 0 0
BITMAP
30
30
30
00
70
10
30
D0
90
F0
ENDCHAR

STARTCHAR char230
ENCODING 230
SWIDTH 57 0
DWIDTH 8 0
BBX 7 6 0 0
BITMAP
7E
12
7E
90
94
FC
ENDCHAR

STARTCHAR char231
ENCODING 231
SWIDTH 35 0
DWIDTH 5 0
BBX 4 9 0 -3
BITMAP
70
80
80
80
90
E0
00
40
80
ENDCHAR

STARTCHAR char232
ENCODING 232
SWIDTH 35 0
DWIDTH 5 0
BBX 4 9 0 0
BITMAP
20
20
00
70
90
F0
80
90
E0
ENDCHAR

STARTCHAR char233
ENCODING 233
SWIDTH 35 0
DWIDTH 5 0
BBX 5 9 0 0
BITMAP
10
10
00
70
90
F0
80
90
E0
ENDCHAR

STARTCHAR char234
ENCODING 234
SWIDTH 35 0
DWIDTH 5 0
BBX 5 9 0 0
BITMAP
20
30
00
70
90
F0
80
90
E0
ENDCHAR

STARTCHAR char235
ENCODING 235
SWIDTH 35 0
DWIDTH 5 0
BBX 5 9 0 0
BITMAP
30
00
00
70
90
F0
80
90
E0
ENDCHAR

STARTCHAR char236
ENCODING 236
SWIDTH 14 0
DWIDTH 2 0
BBX 2 9 0 0
BITMAP
80
40
00
40
40
40
80
80
80
ENDCHAR

STARTCHAR char237
ENCODING 237
SWIDTH 14 0
DWIDTH 2 0
BBX 4 9 0 0
BITMAP
20
40
00
40
40
40
80
80
80
ENDCHAR

STARTCHAR char238
ENCODING 238
SWIDTH 14 0
DWIDTH 2 0
BBX 3 9 0 0
BITMAP
60
A0
00
40
40
40
80
80
80
ENDCHAR

STARTCHAR char239
ENCODING 239
SWIDTH 14 0
DWIDTH 2 0
BBX 3 9 0 0
BITMAP
A0
00
00
40
40
40
80
80
80
ENDCHAR

STARTCHAR char241
ENCODING 241
SWIDTH 35 0
DWIDTH 5 0
BBX 5 9 0 0
BITMAP
38
00
00
78
48
48
90
90
90
ENDCHAR

STARTCHAR char242
ENCODING 242
SWIDTH 35 0
DWIDTH 5 0
BBX 5 9 0 0
BITMAP
20
20
00
78
88
88
88
90
E0
ENDCHAR

STARTCHAR char243
ENCODING 243
SWIDTH 35 0
DWIDTH 5 0
BBX 5 9 0 0
BITMAP
10
10
00
78
88
88
88
90
E0
ENDCHAR

STARTCHAR char244
ENCODING 244
SWIDTH 35 0
DWIDTH 5 0
BBX 5 9 0 0
BITMAP
10
28
00
78
88
88
88
90
E0
ENDCHAR

STARTCHAR char245
ENCODING 245
SWIDTH 35 0
DWIDTH 5 0
BBX 5 9 0 0
BITMAP
38
00
00
78
88
88
88
90
E0
ENDCHAR

STARTCHAR char246
ENCODING 246
SWIDTH 35 0
DWIDTH 5 0
BBX 5 9 0 0
BITMAP
28
00
00
78
88
88
88
90
E0
ENDCHAR

STARTCHAR char247
ENCODING 247
SWIDTH 50 0
DWIDTH 7 0
BBX 6 4 0 1
BITMAP
10
FC
00
10
ENDCHAR

STARTCHAR char248
ENCODING 248
SWIDTH 35 0
DWIDTH 5 0
BBX 5 7 0 0
BITMAP
08
78
A8
A8
C8
D0
E0
ENDCHAR

STARTCHAR char249
ENCODING 249
SWIDTH 35 0
DWIDTH 5 0
BBX 5 9 0 0
BITMAP
20
20
00
48
48
88
90
90
F0
ENDCHAR

STARTCHAR char250
ENCODING 250
SWIDTH 35 0
DWIDTH 5 0
BBX 5 9 0 0
BITMAP
08
10
00
48
48
88
90
90
F0
ENDCHAR

STARTCHAR char251
ENCODING 251
SWIDTH 35 0
DWIDTH 5 0
BBX 5 9 0 0
BITMAP
10
28
00
48
48
88
90
90
F0
ENDCHAR

STARTCHAR char252
ENCODING 252
SWIDTH 35 0
DWIDTH 5 0
BBX 5 9 0 0
BITMAP
28
00
00
48
48
88
90
90
F0
ENDCHAR

STARTCHAR char255
ENCODING 255
SWIDTH 28 0
DWIDTH 4 0
BBX 6 11 -1 -2
BITMAP
28
00
00
48
48
50
60
60
40
40
80
ENDCHAR

ENDFONT
