STARTFONT 2.1
FONT -sun-helmetcondensed-bold-i-semicondensed--20-200-75-75-p-92-adobe-fontspecific
SIZE 20 75 75
FONTBOUNDINGBOX 21 23 -3 -4

STARTPROPERTIES 28
FOUNDRY "sun"
FAMILY_NAME "helmetcondensed"
WEIGHT_NAME "bold"
SLANT "i"
SETWIDTH_NAME "semicondensed"
ADD_STYLE_NAME ""
PIXEL_SIZE 21
POINT_SIZE 200
RESOLUTION_X 75
RESOLUTION_Y 75
SPACING "p"
AVERAGE_WIDTH 92
CHARSET_REGISTRY "adobe"
CHARSET_ENCODING "fontspecific"
COPYRIGHT "© 1999 Sun Microsystems, Inc."
RAW_PIXELSIZE 1000
RAW_POINTSIZE 964
RAW_ASCENT 935
RAW_DESCENT 208
RAW_AVERAGE_WIDTH 4444
FACE_NAME "HelmetCondensedBoldItalic"
_XMBDFED_INFO "Edited with xmbdfed 2.4."
WEIGHT 10
X_HEIGHT -2
QUAD_WIDTH 11
DEFAULT_CHAR 4
FONT_DESCENT 4
FONT_ASCENT 19
ENDPROPERTIES

CHARS 209

STARTCHAR char32
ENCODING 32
SWIDTH 21 0
DWIDTH 5 0
BBX 0 0 0 0
BITMAP
ENDCHAR

STARTCHAR char33
ENCODING 33
SWIDTH 17 0
DWIDTH 4 0
BBX 5 16 0 -1
BITMAP
18
18
18
18
10
30
30
20
20
20
20
00
00
00
C0
80
ENDCHAR

STARTCHAR char34
ENCODING 34
SWIDTH 30 0
DWIDTH 7 0
BBX 6 6 2 10
BITMAP
24
4C
CC
4C
C8
90
ENDCHAR

STARTCHAR char35
ENCODING 35
SWIDTH 3 0
DWIDTH 11 0
BBX 10 15 0 0
BITMAP
0880
1980
1980
1980
7FC0
1100
1100
1100
3300
FFC0
7FC0
3300
2200
2200
2200
ENDCHAR

STARTCHAR char36
ENCODING 36
SWIDTH 43 0
DWIDTH 10 0
BBX 9 18 0 -2
BITMAP
0200
0E00
1F80
3580
2580
2580
2400
3400
1C00
0E00
0B00
CB00
D300
D300
7600
3C00
1000
2000
ENDCHAR

STARTCHAR char37
ENCODING 37
SWIDTH 25 0
DWIDTH 16 0
BBX 14 15 0 0
BITMAP
3840
6C40
4CC0
CC80
CC80
CD00
CD38
CB6C
DA4C
72CC
04CC
04CC
08C8
08D8
0870
ENDCHAR

STARTCHAR char38
ENCODING 38
SWIDTH 3 0
DWIDTH 11 0
BBX 10 15 0 0
BITMAP
1F00
3B80
3180
3180
3380
3F00
1C00
3C00
6C00
C640
C6C0
C3C0
C380
6780
3C80
ENDCHAR

STARTCHAR char39
ENCODING 39
SWIDTH 12 0
DWIDTH 3 0
BBX 3 6 2 9
BITMAP
20
40
C0
A0
C0
80
ENDCHAR

STARTCHAR char40
ENCODING 40
SWIDTH 30 0
DWIDTH 7 0
BBX 6 18 2 -3
BITMAP
08
10
30
20
60
60
40
C0
C0
C0
C0
C0
C0
C0
C0
40
40
20
ENDCHAR

STARTCHAR char41
ENCODING 41
SWIDTH 30 0
DWIDTH 7 0
BBX 6 18 -3 -3
BITMAP
08
08
08
0C
0C
0C
0C
0C
0C
0C
0C
08
08
18
10
30
20
40
ENDCHAR

STARTCHAR char42
ENCODING 42
SWIDTH 34 0
DWIDTH 8 0
BBX 6 6 2 9
BITMAP
10
90
DC
30
50
48
ENDCHAR

STARTCHAR char43
ENCODING 43
SWIDTH 3 0
DWIDTH 11 0
BBX 9 9 0 2
BITMAP
0C00
0C00
0C00
0C00
FF80
0C00
0C00
0C00
0C00
ENDCHAR

STARTCHAR char44
ENCODING 44
SWIDTH 17 0
DWIDTH 4 0
BBX 2 5 -1 -3
BITMAP
40
C0
C0
80
80
ENDCHAR

STARTCHAR char45
ENCODING 45
SWIDTH 34 0
DWIDTH 8 0
BBX 5 2 1 4
BITMAP
F8
80
ENDCHAR

STARTCHAR char46
ENCODING 46
SWIDTH 17 0
DWIDTH 4 0
BBX 3 2 -1 -1
BITMAP
40
80
ENDCHAR

STARTCHAR char47
ENCODING 47
SWIDTH 21 0
DWIDTH 5 0
BBX 9 15 -1 0
BITMAP
0080
0180
0100
0200
0200
0400
0C00
0800
1800
1000
3000
2000
6000
4000
C000
ENDCHAR

STARTCHAR char48
ENCODING 48
SWIDTH 43 0
DWIDTH 10 0
BBX 9 15 0 0
BITMAP
0F00
1900
3180
6180
6180
6180
6180
C180
C100
C100
C300
C300
C200
6600
3C00
ENDCHAR

STARTCHAR char49
ENCODING 49
SWIDTH 43 0
DWIDTH 10 0
BBX 5 15 2 0
BITMAP
08
18
38
F8
10
30
30
30
20
20
60
60
60
40
40
ENDCHAR

STARTCHAR char50
ENCODING 50
SWIDTH 43 0
DWIDTH 10 0
BBX 11 15 -1 0
BITMAP
0780
08C0
18E0
1060
3060
00E0
00C0
01C0
0700
0C00
3800
3000
6000
4000
7F00
ENDCHAR

STARTCHAR char51
ENCODING 51
SWIDTH 43 0
DWIDTH 10 0
BBX 9 15 0 0
BITMAP
0F00
1900
3180
2180
0180
0180
0300
0E00
0600
0300
0300
C300
C300
6600
3C00
ENDCHAR

STARTCHAR char52
ENCODING 52
SWIDTH 43 0
DWIDTH 10 0
BBX 9 15 0 0
BITMAP
0180
0380
0380
0580
0D00
1900
1300
2300
6300
C200
FF00
0600
0600
0400
0400
ENDCHAR

STARTCHAR char53
ENCODING 53
SWIDTH 43 0
DWIDTH 10 0
BBX 9 14 0 0
BITMAP
1F80
1000
3000
3000
2000
7E00
6300
0180
0180
0180
C380
C300
6700
3C00
ENDCHAR

STARTCHAR char54
ENCODING 54
SWIDTH 43 0
DWIDTH 10 0
BBX 9 15 0 0
BITMAP
0F00
1980
3180
2180
6000
6000
7C00
E200
C300
C300
C300
C300
C200
6600
3C00
ENDCHAR

STARTCHAR char55
ENCODING 55
SWIDTH 43 0
DWIDTH 10 0
BBX 8 15 2 0
BITMAP
01
FF
02
04
08
18
10
30
20
60
40
C0
C0
C0
80
ENDCHAR

STARTCHAR char56
ENCODING 56
SWIDTH 43 0
DWIDTH 10 0
BBX 9 15 0 0
BITMAP
0E00
1900
3180
3180
3180
3180
1300
3E00
6300
E300
C300
C300
C300
6600
3C00
ENDCHAR

STARTCHAR char57
ENCODING 57
SWIDTH 43 0
DWIDTH 10 0
BBX 9 15 0 0
BITMAP
0E00
1B00
3180
6180
6180
6180
6180
6180
3380
1D00
0300
0300
C200
C400
7800
ENDCHAR

STARTCHAR char58
ENCODING 58
SWIDTH 17 0
DWIDTH 4 0
BBX 4 11 0 -1
BITMAP
30
20
00
00
00
00
00
00
00
C0
80
ENDCHAR

STARTCHAR char59
ENCODING 59
SWIDTH 17 0
DWIDTH 4 0
BBX 5 13 -1 -3
BITMAP
18
10
00
00
00
00
00
00
20
60
60
40
40
ENDCHAR

STARTCHAR char60
ENCODING 60
SWIDTH 8 0
DWIDTH 12 0
BBX 11 11 0 0
BITMAP
0020
00E0
0380
0E00
3800
E000
7000
1C00
0700
01C0
0060
ENDCHAR

STARTCHAR char61
ENCODING 61
SWIDTH 3 0
DWIDTH 11 0
BBX 10 4 0 4
BITMAP
FFC0
0000
0000
FFC0
ENDCHAR

STARTCHAR char62
ENCODING 62
SWIDTH 8 0
DWIDTH 12 0
BBX 10 11 1 0
BITMAP
8000
C000
7000
1E00
0380
00C0
01C0
0F00
3800
E000
8000
ENDCHAR

STARTCHAR char63
ENCODING 63
SWIDTH 34 0
DWIDTH 8 0
BBX 8 16 1 -1
BITMAP
3C
66
C3
C3
03
06
0C
18
30
60
60
00
00
00
40
80
ENDCHAR

STARTCHAR char64
ENCODING 64
SWIDTH 11 0
DWIDTH 23 0
BBX 15 15 3 0
BITMAP
07E0
1838
300C
6394
6676
CC66
D826
D826
D866
D844
4CC8
6770
3004
1818
07E0
ENDCHAR

STARTCHAR char65
ENCODING 65
SWIDTH 38 0
DWIDTH 9 0
BBX 10 15 -2 0
BITMAP
0180
0380
0380
0680
0680
0C80
0C80
1880
1880
38C0
3FC0
70C0
60C0
E0C0
C0C0
ENDCHAR

STARTCHAR char66
ENCODING 66
SWIDTH 43 0
DWIDTH 10 0
BBX 11 15 -1 0
BITMAP
0F80
19C0
1860
1860
1060
3060
31C0
3F00
3180
20C0
60C0
60C0
6180
6380
7E00
ENDCHAR

STARTCHAR char67
ENCODING 67
SWIDTH 3 0
DWIDTH 11 0
BBX 10 15 0 0
BITMAP
0F80
18C0
30C0
7040
6040
6000
E000
C000
C000
C000
C080
C180
C100
6300
3E00
ENDCHAR

STARTCHAR char68
ENCODING 68
SWIDTH 8 0
DWIDTH 12 0
BBX 12 15 -1 0
BITMAP
1FC0
18E0
1870
1030
1030
3030
3030
3030
2030
2070
6060
60E0
60C0
4380
7E00
ENDCHAR

STARTCHAR char69
ENCODING 69
SWIDTH 38 0
DWIDTH 9 0
BBX 10 15 0 0
BITMAP
1FC0
3000
3000
3000
2000
2000
6000
7F00
6000
4000
4000
C000
C000
C000
FE00
ENDCHAR

STARTCHAR char70
ENCODING 70
SWIDTH 38 0
DWIDTH 9 0
BBX 9 15 0 0
BITMAP
1F80
3000
3000
3000
2000
6000
6000
7F00
6000
4000
C000
C000
C000
C000
8000
ENDCHAR

STARTCHAR char71
ENCODING 71
SWIDTH 3 0
DWIDTH 11 0
BBX 11 15 0 0
BITMAP
0F80
18C0
3040
7040
6060
6000
E000
C000
C7C0
C0C0
C0C0
C0C0
C180
6380
3C80
ENDCHAR

STARTCHAR char72
ENCODING 72
SWIDTH 8 0
DWIDTH 12 0
BBX 12 15 -1 0
BITMAP
1830
1830
1830
1830
1020
3060
3060
3FE0
3060
6040
60C0
60C0
60C0
4080
4080
ENDCHAR

STARTCHAR char73
ENCODING 73
SWIDTH 17 0
DWIDTH 4 0
BBX 5 15 0 0
BITMAP
18
10
30
30
30
30
60
60
60
60
40
C0
C0
C0
C0
ENDCHAR

STARTCHAR char74
ENCODING 74
SWIDTH 34 0
DWIDTH 8 0
BBX 10 15 -1 0
BITMAP
0080
0080
0180
0180
0180
0180
0100
0300
0300
0300
0300
C200
C600
C600
7800
ENDCHAR

STARTCHAR char75
ENCODING 75
SWIDTH 43 0
DWIDTH 10 0
BBX 12 15 0 0
BITMAP
3060
30E0
31C0
3380
2700
6C00
7C00
7C00
6600
4600
C200
C300
C300
C100
8180
ENDCHAR

STARTCHAR char76
ENCODING 76
SWIDTH 34 0
DWIDTH 8 0
BBX 7 15 0 0
BITMAP
10
30
30
30
20
20
60
60
60
40
40
C0
C0
C0
FE
ENDCHAR

STARTCHAR char77
ENCODING 77
SWIDTH 20 0
DWIDTH 15 0
BBX 16 15 -1 0
BITMAP
1C06
1C0E
1C0E
141E
3416
3434
3424
246C
244C
64CC
6488
6598
4518
C718
4618
ENDCHAR

STARTCHAR char78
ENCODING 78
SWIDTH 8 0
DWIDTH 12 0
BBX 13 15 -1 0
BITMAP
1C10
1C10
1C10
1630
1630
3630
3220
3220
2260
6360
6340
6340
6140
41C0
41C0
ENDCHAR

STARTCHAR char79
ENCODING 79
SWIDTH 3 0
DWIDTH 11 0
BBX 11 15 0 0
BITMAP
0F80
18C0
3060
3060
6060
6060
6060
C060
C0E0
C0C0
C0C0
C1C0
C180
6300
3E00
ENDCHAR

STARTCHAR char80
ENCODING 80
SWIDTH 43 0
DWIDTH 10 0
BBX 10 15 0 0
BITMAP
1F00
3180
30C0
30C0
20C0
60C0
6080
7380
7F00
4000
C000
C000
C000
C000
8000
ENDCHAR

STARTCHAR char81
ENCODING 81
SWIDTH 3 0
DWIDTH 11 0
BBX 11 16 0 -1
BITMAP
0F80
18C0
3060
3060
6060
6060
E060
C060
C0C0
C0C0
C0C0
C580
C780
6300
3F80
0080
ENDCHAR

STARTCHAR char82
ENCODING 82
SWIDTH 3 0
DWIDTH 11 0
BBX 12 15 -1 0
BITMAP
1FC0
18E0
1830
1830
1030
3030
30E0
3FC0
31C0
20C0
6040
60C0
60C0
40C0
40C0
ENDCHAR

STARTCHAR char83
ENCODING 83
SWIDTH 43 0
DWIDTH 10 0
BBX 10 15 0 0
BITMAP
1F00
3980
70C0
60C0
6000
6000
3800
1E00
0700
0180
C180
C180
C180
4300
3C00
ENDCHAR

STARTCHAR char84
ENCODING 84
SWIDTH 34 0
DWIDTH 8 0
BBX 9 15 1 0
BITMAP
FF80
8800
1800
1800
1800
1000
1000
3000
3000
3000
2000
6000
6000
6000
6000
ENDCHAR

STARTCHAR char85
ENCODING 85
SWIDTH 3 0
DWIDTH 11 0
BBX 11 15 0 0
BITMAP
3060
3060
3060
2060
6040
60C0
60C0
60C0
40C0
C080
C180
C180
C180
E300
7E00
ENDCHAR

STARTCHAR char86
ENCODING 86
SWIDTH 38 0
DWIDTH 9 0
BBX 10 15 1 0
BITMAP
C0C0
C0C0
E1C0
E180
E180
6300
6300
6600
6600
6C00
6C00
7800
7800
7000
7000
ENDCHAR

STARTCHAR char87
ENCODING 87
SWIDTH 16 0
DWIDTH 14 0
BBX 15 15 1 0
BITMAP
C386
C386
C386
C78C
C58C
C588
CD98
C998
D990
D9B0
D1A0
B1A0
B1E0
E1C0
E1C0
ENDCHAR

STARTCHAR char88
ENCODING 88
SWIDTH 38 0
DWIDTH 9 0
BBX 12 15 -2 0
BITMAP
3030
1860
18C0
08C0
0D80
0F00
0700
0600
0E00
0F00
1B00
3180
3180
6080
C0C0
ENDCHAR

STARTCHAR char89
ENCODING 89
SWIDTH 38 0
DWIDTH 9 0
BBX 9 15 1 0
BITMAP
C180
4180
4300
6300
6600
6400
2C00
3800
3000
3000
3000
2000
6000
6000
6000
ENDCHAR

STARTCHAR char90
ENCODING 90
SWIDTH 34 0
DWIDTH 8 0
BBX 10 15 -1 0
BITMAP
3FC0
01C0
0180
0300
0300
0600
0C00
0C00
1800
1800
3000
6000
6000
C000
FF00
ENDCHAR

STARTCHAR char91
ENCODING 91
SWIDTH 21 0
DWIDTH 5 0
BBX 8 18 -1 -3
BITMAP
0F
08
08
18
18
10
10
30
30
30
20
20
60
60
40
40
C0
F0
ENDCHAR

STARTCHAR char92
ENCODING 92
SWIDTH 25 0
DWIDTH 6 0
BBX 6 15 0 0
BITMAP
80
C0
40
40
60
20
20
30
10
10
18
18
08
0C
0C
ENDCHAR

STARTCHAR char93
ENCODING 93
SWIDTH 21 0
DWIDTH 5 0
BBX 7 18 -2 -3
BITMAP
0E
02
06
06
04
04
04
0C
0C
08
08
18
18
10
10
10
30
F0
ENDCHAR

STARTCHAR char94
ENCODING 94
SWIDTH 0 0
DWIDTH 0 0
BBX 5 3 0 16
BITMAP
30
50
98
ENDCHAR

STARTCHAR char95
ENCODING 95
SWIDTH 8 0
DWIDTH 12 0
BBX 12 1 0 -3
BITMAP
FFF0
ENDCHAR

STARTCHAR char96
ENCODING 96
SWIDTH 0 0
DWIDTH 0 0
BBX 3 3 -1 12
BITMAP
C0
40
20
ENDCHAR

STARTCHAR char97
ENCODING 97
SWIDTH 34 0
DWIDTH 8 0
BBX 9 11 -1 0
BITMAP
0F00
3180
3180
0180
0780
3F00
6300
C300
C300
C700
7B80
ENDCHAR

STARTCHAR char98
ENCODING 98
SWIDTH 38 0
DWIDTH 9 0
BBX 9 15 -1 0
BITMAP
1800
1000
1000
3000
3700
3980
3180
2180
6180
6180
6180
4100
6300
E600
DC00
ENDCHAR

STARTCHAR char99
ENCODING 99
SWIDTH 34 0
DWIDTH 8 0
BBX 8 11 0 0
BITMAP
1E
33
63
40
C0
C0
C0
C6
C6
CC
78
ENDCHAR

STARTCHAR char100
ENCODING 100
SWIDTH 38 0
DWIDTH 9 0
BBX 9 15 0 0
BITMAP
0080
0180
0180
0180
1D00
3700
6300
4300
C300
C200
C200
C600
C600
CE00
7400
ENDCHAR

STARTCHAR char101
ENCODING 101
SWIDTH 34 0
DWIDTH 8 0
BBX 8 11 0 0
BITMAP
1E
22
63
43
C3
FF
C0
C3
C6
C4
78
ENDCHAR

STARTCHAR char102
ENCODING 102
SWIDTH 17 0
DWIDTH 4 0
BBX 7 15 0 0
BITMAP
0C
1A
10
30
78
20
20
60
60
60
40
40
C0
C0
C0
ENDCHAR

STARTCHAR char103
ENCODING 103
SWIDTH 38 0
DWIDTH 9 0
BBX 9 15 -1 -4
BITMAP
0E80
1380
3180
2180
6100
6100
6100
6300
6300
6600
3A00
0600
C600
6C00
7800
ENDCHAR

STARTCHAR char104
ENCODING 104
SWIDTH 38 0
DWIDTH 9 0
BBX 9 15 0 0
BITMAP
1000
3000
3000
2000
2F00
7180
6180
6180
4300
4300
C300
C300
C200
8600
8600
ENDCHAR

STARTCHAR char105
ENCODING 105
SWIDTH 17 0
DWIDTH 4 0
BBX 4 15 0 0
BITMAP
10
10
00
00
20
20
60
60
60
40
40
C0
C0
C0
80
ENDCHAR

STARTCHAR char106
ENCODING 106
SWIDTH 17 0
DWIDTH 4 0
BBX 7 19 -3 -4
BITMAP
02
02
00
00
06
04
04
0C
0C
08
08
18
18
18
10
10
30
70
60
ENDCHAR

STARTCHAR char107
ENCODING 107
SWIDTH 34 0
DWIDTH 8 0
BBX 9 15 0 0
BITMAP
1000
3000
3000
2000
2180
6300
6600
6C00
7800
7800
C800
CC00
CC00
8400
8600
ENDCHAR

STARTCHAR char108
ENCODING 108
SWIDTH 17 0
DWIDTH 4 0
BBX 4 15 0 0
BITMAP
10
30
30
30
20
20
60
60
60
40
40
C0
C0
C0
80
ENDCHAR

STARTCHAR char109
ENCODING 109
SWIDTH 16 0
DWIDTH 14 0
BBX 15 11 -1 0
BITMAP
17BC
39C6
3186
2186
2186
610C
610C
630C
4308
4318
4218
ENDCHAR

STARTCHAR char110
ENCODING 110
SWIDTH 38 0
DWIDTH 9 0
BBX 9 11 0 0
BITMAP
2F00
3180
6180
6180
4300
4300
C300
C300
C200
8600
8600
ENDCHAR

STARTCHAR char111
ENCODING 111
SWIDTH 38 0
DWIDTH 9 0
BBX 8 11 0 0
BITMAP
1E
23
63
43
C3
C3
C3
C2
C6
4C
38
ENDCHAR

STARTCHAR char112
ENCODING 112
SWIDTH 38 0
DWIDTH 9 0
BBX 10 15 -1 -4
BITMAP
1700
3980
30C0
30C0
20C0
20C0
61C0
6180
6180
6300
DE00
C000
C000
8000
8000
ENDCHAR

STARTCHAR char113
ENCODING 113
SWIDTH 38 0
DWIDTH 9 0
BBX 9 15 0 -4
BITMAP
1D80
3300
6300
4300
C300
C300
C200
C200
C600
CE00
7600
0400
0400
0C00
0C00
ENDCHAR

STARTCHAR char114
ENCODING 114
SWIDTH 25 0
DWIDTH 6 0
BBX 7 12 0 0
BITMAP
02
2E
38
70
60
60
40
40
C0
C0
80
80
ENDCHAR

STARTCHAR char115
ENCODING 115
SWIDTH 34 0
DWIDTH 8 0
BBX 8 11 -1 0
BITMAP
3E
73
63
60
70
1C
06
02
C2
46
3C
ENDCHAR

STARTCHAR char116
ENCODING 116
SWIDTH 21 0
DWIDTH 5 0
BBX 5 14 0 0
BITMAP
10
10
30
F8
20
20
60
60
60
40
C0
C0
C0
E0
ENDCHAR

STARTCHAR char117
ENCODING 117
SWIDTH 38 0
DWIDTH 9 0
BBX 9 11 0 0
BITMAP
2180
6180
6100
4100
4300
4300
C300
C200
C600
CE00
7600
ENDCHAR

STARTCHAR char118
ENCODING 118
SWIDTH 34 0
DWIDTH 8 0
BBX 7 11 1 0
BITMAP
C6
C6
CC
CC
C8
D8
D0
F0
A0
E0
C0
ENDCHAR

STARTCHAR char119
ENCODING 119
SWIDTH 3 0
DWIDTH 11 0
BBX 12 11 0 0
BITMAP
C610
C630
CE30
CE60
DEE0
DAC0
F3C0
F380
E380
E300
C300
ENDCHAR

STARTCHAR char120
ENCODING 120
SWIDTH 30 0
DWIDTH 7 0
BBX 10 11 -2 0
BITMAP
10C0
18C0
0980
0F00
0E00
0C00
0E00
1A00
3300
6300
6100
ENDCHAR

STARTCHAR char121
ENCODING 121
SWIDTH 34 0
DWIDTH 8 0
BBX 10 15 -3 -4
BITMAP
18C0
18C0
1980
1980
1900
1B00
1A00
1E00
1400
1C00
1800
1800
1800
7000
6000
ENDCHAR

STARTCHAR char122
ENCODING 122
SWIDTH 30 0
DWIDTH 7 0
BBX 9 11 -1 0
BITMAP
3F80
0300
0200
0600
0C00
1800
1000
3000
6000
4000
FE00
ENDCHAR

STARTCHAR char123
ENCODING 123
SWIDTH 30 0
DWIDTH 7 0
BBX 5 19 1 -4
BITMAP
38
70
60
60
20
20
20
60
40
80
60
60
60
60
60
60
60
70
38
ENDCHAR

STARTCHAR char124
ENCODING 124
SWIDTH 25 0
DWIDTH 6 0
BBX 2 15 2 0
BITMAP
C0
C0
C0
C0
C0
C0
C0
C0
C0
C0
C0
C0
C0
C0
C0
ENDCHAR

STARTCHAR char125
ENCODING 125
SWIDTH 30 0
DWIDTH 7 0
BBX 5 19 1 -4
BITMAP
C0
20
20
20
30
30
30
30
10
08
10
30
30
30
30
30
30
70
E0
ENDCHAR

STARTCHAR char126
ENCODING 126
SWIDTH 0 0
DWIDTH 0 0
BBX 5 2 0 16
BITMAP
F8
80
ENDCHAR

STARTCHAR char128
ENCODING 128
SWIDTH 3 0
DWIDTH 11 0
BBX 12 15 -1 0
BITMAP
03C0
0660
0C30
1830
1830
7F80
3000
FF80
3000
3000
3060
3040
30C0
1980
0F00
ENDCHAR

STARTCHAR char130
ENCODING 130
SWIDTH 12 0
DWIDTH 3 0
BBX 3 5 -1 -3
BITMAP
20
60
60
40
80
ENDCHAR

STARTCHAR char131
ENCODING 131
SWIDTH 0 0
DWIDTH 0 0
BBX 5 3 0 16
BITMAP
30
50
98
ENDCHAR

STARTCHAR char132
ENCODING 132
SWIDTH 25 0
DWIDTH 6 0
BBX 6 5 -1 -3
BITMAP
44
4C
C8
88
90
ENDCHAR

STARTCHAR char133
ENCODING 133
SWIDTH 7 0
DWIDTH 22 0
BBX 16 1 2 0
BITMAP
C183
ENDCHAR

STARTCHAR char134
ENCODING 134
SWIDTH 38 0
DWIDTH 9 0
BBX 8 18 1 -3
BITMAP
0C
08
08
18
18
FF
10
10
30
30
20
20
60
60
60
40
40
C0
ENDCHAR

STARTCHAR char135
ENCODING 135
SWIDTH 3 0
DWIDTH 21 0
BBX 0 0 0 0
BITMAP
ENDCHAR

STARTCHAR char136
ENCODING 136
SWIDTH 0 0
DWIDTH 0 0
BBX 5 3 -1 12
BITMAP
30
58
C8
ENDCHAR

STARTCHAR char137
ENCODING 137
SWIDTH 3 0
DWIDTH 21 0
BBX 0 0 0 0
BITMAP
ENDCHAR

STARTCHAR char139
ENCODING 139
SWIDTH 30 0
DWIDTH 7 0
BBX 3 7 2 2
BITMAP
20
60
C0
80
E0
60
20
ENDCHAR

STARTCHAR char140
ENCODING 140
SWIDTH 25 0
DWIDTH 16 0
BBX 16 15 0 0
BITMAP
0F7F
19FF
30E0
20C0
60C0
60C0
60C0
C0FE
C080
C180
C180
C180
C380
6700
3FFC
ENDCHAR

STARTCHAR char142
ENCODING 142
SWIDTH 3 0
DWIDTH 21 0
BBX 0 0 0 0
BITMAP
ENDCHAR

STARTCHAR char143
ENCODING 143
SWIDTH 3 0
DWIDTH 21 0
BBX 0 0 0 0
BITMAP
ENDCHAR

STARTCHAR char144
ENCODING 144
SWIDTH 3 0
DWIDTH 21 0
BBX 0 0 0 0
BITMAP
ENDCHAR

STARTCHAR char145
ENCODING 145
SWIDTH 17 0
DWIDTH 4 0
BBX 3 5 2 9
BITMAP
40
80
C0
C0
80
ENDCHAR

STARTCHAR char146
ENCODING 146
SWIDTH 17 0
DWIDTH 4 0
BBX 3 6 1 10
BITMAP
20
60
60
20
40
40
ENDCHAR

STARTCHAR char147
ENCODING 147
SWIDTH 25 0
DWIDTH 6 0
BBX 7 5 1 10
BITMAP
04
44
6A
4C
C8
ENDCHAR

STARTCHAR char148
ENCODING 148
SWIDTH 25 0
DWIDTH 6 0
BBX 6 6 1 10
BITMAP
24
6C
6C
44
4C
88
ENDCHAR

STARTCHAR char149
ENCODING 149
SWIDTH 30 0
DWIDTH 7 0
BBX 5 5 1 5
BITMAP
70
F8
F8
F8
70
ENDCHAR

STARTCHAR char150
ENCODING 150
SWIDTH 43 0
DWIDTH 10 0
BBX 9 2 0 4
BITMAP
7F80
8000
ENDCHAR

STARTCHAR char151
ENCODING 151
SWIDTH 3 0
DWIDTH 11 0
BBX 10 1 0 6
BITMAP
FFC0
ENDCHAR

STARTCHAR char152
ENCODING 152
SWIDTH 0 0
DWIDTH 0 0
BBX 6 2 -1 13
BITMAP
04
F8
ENDCHAR

STARTCHAR char153
ENCODING 153
SWIDTH 33 0
DWIDTH 18 0
BBX 16 8 0 6
BITMAP
C101
BF83
B185
3145
316B
312B
3133
7397
ENDCHAR

STARTCHAR char155
ENCODING 155
SWIDTH 30 0
DWIDTH 7 0
BBX 3 7 2 2
BITMAP
80
C0
60
20
E0
80
80
ENDCHAR

STARTCHAR char156
ENCODING 156
SWIDTH 16 0
DWIDTH 14 0
BBX 15 11 -1 0
BITMAP
1F7C
3146
6186
6186
E1FE
C180
C100
C10C
C38C
6798
3CF0
ENDCHAR

STARTCHAR char157
ENCODING 157
SWIDTH 3 0
DWIDTH 21 0
BBX 0 0 0 0
BITMAP
ENDCHAR

STARTCHAR char159
ENCODING 159
SWIDTH 38 0
DWIDTH 9 0
BBX 9 18 1 0
BITMAP
1B00
0200
0000
C080
4180
4300
6300
6600
6400
2C00
3800
3000
3000
3000
2000
6000
6000
6000
ENDCHAR

STARTCHAR char160
ENCODING 160
SWIDTH 21 0
DWIDTH 5 0
BBX 0 0 0 0
BITMAP
ENDCHAR

STARTCHAR char161
ENCODING 161
SWIDTH 17 0
DWIDTH 4 0
BBX 5 15 0 0
BITMAP
18
10
00
00
10
10
30
20
20
60
60
60
60
C0
C0
ENDCHAR

STARTCHAR char162
ENCODING 162
SWIDTH 34 0
DWIDTH 8 0
BBX 8 15 0 -2
BITMAP
04
04
1E
3B
6B
48
C8
D0
D0
D6
D6
EC
78
20
20
ENDCHAR

STARTCHAR char163
ENCODING 163
SWIDTH 43 0
DWIDTH 10 0
BBX 11 15 -1 0
BITMAP
0780
0CC0
1860
1860
1860
1800
1800
7F00
1800
1800
1800
3000
3000
7C40
4FC0
ENDCHAR

STARTCHAR char164
ENCODING 164
SWIDTH 0 0
DWIDTH 0 0
BBX 3 3 2 16
BITMAP
60
C0
80
ENDCHAR

STARTCHAR char165
ENCODING 165
SWIDTH 0 0
DWIDTH 0 0
BBX 6 3 0 16
BITMAP
C8
50
60
ENDCHAR

STARTCHAR char166
ENCODING 166
SWIDTH 3 0
DWIDTH 21 0
BBX 0 0 0 0
BITMAP
ENDCHAR

STARTCHAR char167
ENCODING 167
SWIDTH 43 0
DWIDTH 10 0
BBX 9 19 0 -4
BITMAP
0F00
3980
3180
3080
3800
1C00
6600
4700
4380
6180
2180
3300
1E00
0C00
0600
C600
C600
EC00
7800
ENDCHAR

STARTCHAR char168
ENCODING 168
SWIDTH 0 0
DWIDTH 0 0
BBX 5 2 -1 12
BITMAP
C8
10
ENDCHAR

STARTCHAR char169
ENCODING 169
SWIDTH 25 0
DWIDTH 16 0
BBX 15 14 0 0
BITMAP
0780
1860
2010
63C8
4C44
C846
D806
D806
D806
C804
4C4C
2388
1030
0FC0
ENDCHAR

STARTCHAR char170
ENCODING 170
SWIDTH 0 0
DWIDTH 0 0
BBX 5 2 0 16
BITMAP
D8
10
ENDCHAR

STARTCHAR char171
ENCODING 171
SWIDTH 38 0
DWIDTH 9 0
BBX 8 7 0 2
BITMAP
11
32
6C
C8
44
26
22
ENDCHAR

STARTCHAR char172
ENCODING 172
SWIDTH 16 0
DWIDTH 14 0
BBX 13 6 0 0
BITMAP
FFF8
0018
0018
0018
0018
0018
ENDCHAR

STARTCHAR char173
ENCODING 173
SWIDTH 3 0
DWIDTH 21 0
BBX 0 0 0 0
BITMAP
ENDCHAR

STARTCHAR char174
ENCODING 174
SWIDTH 25 0
DWIDTH 16 0
BBX 15 14 0 0
BITMAP
0780
1860
3010
6FC8
466C
C664
C6C6
C706
C786
C6C4
4E6C
2008
3030
0FC0
ENDCHAR

STARTCHAR char175
ENCODING 175
SWIDTH 3 0
DWIDTH 21 0
BBX 0 0 0 0
BITMAP
ENDCHAR

STARTCHAR char176
ENCODING 176
SWIDTH 21 0
DWIDTH 5 0
BBX 7 6 1 8
BITMAP
38
44
C6
C6
44
38
ENDCHAR

STARTCHAR char177
ENCODING 177
SWIDTH 3 0
DWIDTH 11 0
BBX 10 13 0 0
BITMAP
0C00
0C00
0C00
0C00
0C00
FFC0
0C00
0C00
0C00
0C00
0C00
0000
FFC0
ENDCHAR

STARTCHAR char179
ENCODING 179
SWIDTH 3 0
DWIDTH 21 0
BBX 0 0 0 0
BITMAP
ENDCHAR

STARTCHAR char180
ENCODING 180
SWIDTH 0 0
DWIDTH 0 0
BBX 3 3 1 12
BITMAP
60
40
80
ENDCHAR

STARTCHAR char182
ENCODING 182
SWIDTH 20 0
DWIDTH 15 0
BBX 9 18 2 -3
BITMAP
3F80
7980
F980
F980
F980
F980
F980
7980
1980
1980
1980
1980
1980
1980
1980
1980
1980
1980
ENDCHAR

STARTCHAR char183
ENCODING 183
SWIDTH 12 0
DWIDTH 3 0
BBX 2 1 2 6
BITMAP
C0
ENDCHAR

STARTCHAR char184
ENCODING 184
SWIDTH 0 0
DWIDTH 0 0
BBX 2 4 -2 -4
BITMAP
40
40
C0
C0
ENDCHAR

STARTCHAR char186
ENCODING 186
SWIDTH 0 0
DWIDTH 0 0
BBX 5 2 0 16
BITMAP
F8
80
ENDCHAR

STARTCHAR char187
ENCODING 187
SWIDTH 38 0
DWIDTH 9 0
BBX 8 7 0 2
BITMAP
44
66
32
12
66
C8
88
ENDCHAR

STARTCHAR char189
ENCODING 189
SWIDTH 3 0
DWIDTH 21 0
BBX 0 0 0 0
BITMAP
ENDCHAR

STARTCHAR char190
ENCODING 190
SWIDTH 3 0
DWIDTH 21 0
BBX 0 0 0 0
BITMAP
ENDCHAR

STARTCHAR char191
ENCODING 191
SWIDTH 34 0
DWIDTH 8 0
BBX 8 15 -1 0
BITMAP
03
02
00
00
06
06
04
1C
38
60
C0
C3
C3
66
3C
ENDCHAR

STARTCHAR char192
ENCODING 192
SWIDTH 38 0
DWIDTH 9 0
BBX 10 18 -2 0
BITMAP
0300
0100
0000
0180
0180
0380
0280
0680
0480
0C80
0880
1880
38C0
3FC0
70C0
60C0
E0C0
C0C0
ENDCHAR

STARTCHAR char193
ENCODING 193
SWIDTH 38 0
DWIDTH 9 0
BBX 11 19 -2 0
BITMAP
00E0
00C0
0080
0000
0180
0380
0280
0680
0680
0C80
0C80
1880
1880
30C0
3FC0
60C0
60C0
C0C0
C0C0
ENDCHAR

STARTCHAR char194
ENCODING 194
SWIDTH 38 0
DWIDTH 9 0
BBX 11 19 -2 0
BITMAP
00C0
0140
0260
0000
0180
0380
0280
0680
0680
0C80
0C80
1880
1880
38C0
3FC0
60C0
60C0
C0C0
C0C0
ENDCHAR

STARTCHAR char195
ENCODING 195
SWIDTH 38 0
DWIDTH 9 0
BBX 11 18 -2 0
BITMAP
03E0
0200
0000
0180
0380
0280
0680
0680
0C80
0C80
1880
1880
38C0
3FC0
60C0
60C0
C0C0
C0C0
ENDCHAR

STARTCHAR char196
ENCODING 196
SWIDTH 38 0
DWIDTH 9 0
BBX 11 18 -2 0
BITMAP
0360
0240
0000
0180
0180
0380
0280
0680
0480
0C80
0880
1880
18C0
3FC0
70C0
60C0
E0C0
C0C0
ENDCHAR

STARTCHAR char197
ENCODING 197
SWIDTH 38 0
DWIDTH 9 0
BBX 10 19 -2 0
BITMAP
01C0
0340
0340
01C0
0080
0180
0380
0280
0680
0480
0C80
0880
1880
18C0
3FC0
20C0
60C0
E0C0
C0C0
ENDCHAR

STARTCHAR char198
ENCODING 198
SWIDTH 25 0
DWIDTH 16 0
BBX 18 15 -1 0
BITMAP
007F80
00F000
00B000
01B000
032000
036000
066000
047F00
0C4000
1FC000
10C000
30C000
20C000
60C000
C0FE00
ENDCHAR

STARTCHAR char199
ENCODING 199
SWIDTH 3 0
DWIDTH 11 0
BBX 10 19 0 -4
BITMAP
0F80
18C0
30C0
7040
6040
6000
E000
C000
C000
C000
C080
C180
C100
6300
3E00
0800
1800
1000
1000
ENDCHAR

STARTCHAR char200
ENCODING 200
SWIDTH 38 0
DWIDTH 9 0
BBX 10 18 0 0
BITMAP
0C00
0400
0000
1FC0
3000
3000
3000
2000
2000
6000
7F00
6000
4000
4000
C000
C000
C000
FE00
ENDCHAR

STARTCHAR char201
ENCODING 201
SWIDTH 38 0
DWIDTH 9 0
BBX 10 19 0 0
BITMAP
0180
0300
0200
0000
1FC0
3000
3000
3000
2000
2000
6000
7F00
6000
4000
4000
C000
C000
C000
FE00
ENDCHAR

STARTCHAR char202
ENCODING 202
SWIDTH 38 0
DWIDTH 9 0
BBX 10 19 0 0
BITMAP
0600
0D00
0900
0000
1FC0
3000
3000
3000
2000
2000
6000
7F00
6000
4000
4000
C000
C000
C000
FE00
ENDCHAR

STARTCHAR char203
ENCODING 203
SWIDTH 38 0
DWIDTH 9 0
BBX 10 18 0 0
BITMAP
0D80
0100
0000
1FC0
3000
3000
3000
2000
2000
6000
7F00
6000
4000
4000
C000
C000
C000
FE00
ENDCHAR

STARTCHAR char204
ENCODING 204
SWIDTH 17 0
DWIDTH 4 0
BBX 5 18 0 0
BITMAP
30
10
00
18
10
30
30
30
30
20
60
60
60
40
C0
C0
C0
C0
ENDCHAR

STARTCHAR char205
ENCODING 205
SWIDTH 17 0
DWIDTH 4 0
BBX 7 19 0 0
BITMAP
04
0C
18
00
18
10
30
30
30
30
20
60
60
60
40
C0
C0
C0
C0
ENDCHAR

STARTCHAR char206
ENCODING 206
SWIDTH 17 0
DWIDTH 4 0
BBX 7 19 0 0
BITMAP
18
3C
64
00
18
10
30
30
30
30
20
60
60
60
40
C0
C0
C0
C0
ENDCHAR

STARTCHAR char207
ENCODING 207
SWIDTH 17 0
DWIDTH 4 0
BBX 7 18 0 0
BITMAP
26
04
00
18
10
30
30
30
30
20
60
60
60
40
C0
C0
C0
C0
ENDCHAR

STARTCHAR char209
ENCODING 209
SWIDTH 8 0
DWIDTH 12 0
BBX 13 18 -1 0
BITMAP
03E0
0240
0000
0C18
1C10
1C10
1630
1630
3630
3220
3220
2260
2360
6340
6340
6140
41C0
41C0
ENDCHAR

STARTCHAR char210
ENCODING 210
SWIDTH 3 0
DWIDTH 11 0
BBX 11 18 0 0
BITMAP
0600
0200
0000
0F80
18C0
3060
3060
6060
6060
6060
C060
C0E0
C0C0
C0C0
C1C0
C180
6300
3E00
ENDCHAR

STARTCHAR char211
ENCODING 211
SWIDTH 3 0
DWIDTH 11 0
BBX 11 19 0 0
BITMAP
00C0
0180
0100
0000
0F80
18C0
3060
3060
6060
6060
6060
C060
C060
C0C0
C0C0
C0C0
C180
6300
3E00
ENDCHAR

STARTCHAR char212
ENCODING 212
SWIDTH 3 0
DWIDTH 11 0
BBX 11 19 0 0
BITMAP
0180
0280
04C0
0000
0F80
18C0
3060
3060
6060
6060
6060
C060
C0E0
C0C0
C0C0
C1C0
C180
6300
3E00
ENDCHAR

STARTCHAR char213
ENCODING 213
SWIDTH 3 0
DWIDTH 11 0
BBX 11 18 0 0
BITMAP
07C0
0880
0000
0F80
18C0
3060
3060
6060
6060
6060
C060
C060
C0C0
C0C0
C1C0
C180
6300
3E00
ENDCHAR

STARTCHAR char214
ENCODING 214
SWIDTH 3 0
DWIDTH 11 0
BBX 11 18 0 0
BITMAP
06C0
0480
0000
0F80
18C0
3060
3060
6060
6060
6060
C060
C0E0
C0C0
C0C0
C1C0
C180
6300
3E00
ENDCHAR

STARTCHAR char216
ENCODING 216
SWIDTH 3 0
DWIDTH 11 0
BBX 12 15 0 0
BITMAP
0790
0CE0
1860
1060
30A0
2120
2260
6260
6460
6840
70C0
60C0
6180
6300
9E00
ENDCHAR

STARTCHAR char217
ENCODING 217
SWIDTH 3 0
DWIDTH 11 0
BBX 11 18 0 0
BITMAP
0600
0200
0000
3060
3060
3060
2060
6040
60C0
60C0
60C0
40C0
C080
C180
C180
C180
E300
7E00
ENDCHAR

STARTCHAR char218
ENCODING 218
SWIDTH 3 0
DWIDTH 11 0
BBX 11 19 0 0
BITMAP
0080
0180
0300
0000
3060
3060
3060
2060
6040
60C0
60C0
60C0
40C0
C080
C180
C180
C180
E300
7E00
ENDCHAR

STARTCHAR char219
ENCODING 219
SWIDTH 3 0
DWIDTH 11 0
BBX 11 18 0 0
BITMAP
0380
0480
0000
3060
3060
3060
2060
6040
60C0
60C0
60C0
40C0
C080
C180
C180
C180
E300
7E00
ENDCHAR

STARTCHAR char220
ENCODING 220
SWIDTH 3 0
DWIDTH 11 0
BBX 11 18 0 0
BITMAP
06C0
0480
0000
3060
3060
3060
2060
6040
60C0
60C0
60C0
4080
C080
C180
C180
C100
E300
3E00
ENDCHAR

STARTCHAR char221
ENCODING 221
SWIDTH 3 0
DWIDTH 21 0
BBX 0 0 0 0
BITMAP
ENDCHAR

STARTCHAR char222
ENCODING 222
SWIDTH 3 0
DWIDTH 21 0
BBX 0 0 0 0
BITMAP
ENDCHAR

STARTCHAR char223
ENCODING 223
SWIDTH 38 0
DWIDTH 9 0
BBX 10 15 -1 0
BITMAP
0700
0C80
18C0
18C0
10C0
3180
3700
3100
2180
2180
6180
6180
4180
4B00
5E00
ENDCHAR

STARTCHAR char224
ENCODING 224
SWIDTH 34 0
DWIDTH 8 0
BBX 9 15 -1 0
BITMAP
0800
0C00
0400
0000
0F00
3180
3180
0180
0780
3F00
6300
C300
C300
C700
7B80
ENDCHAR

STARTCHAR char225
ENCODING 225
SWIDTH 34 0
DWIDTH 8 0
BBX 9 15 -1 0
BITMAP
0300
0200
0600
0000
1F00
3180
3180
0180
0780
3F00
6300
C300
C700
C700
7B80
ENDCHAR

STARTCHAR char226
ENCODING 226
SWIDTH 34 0
DWIDTH 8 0
BBX 9 15 -1 0
BITMAP
0700
0D00
0900
0000
0F00
3180
3180
0180
0780
3F00
6300
C300
C300
C700
7B80
ENDCHAR

STARTCHAR char227
ENCODING 227
SWIDTH 34 0
DWIDTH 8 0
BBX 9 15 -1 0
BITMAP
0080
0F80
0000
0000
0F00
3180
3180
0180
0780
3F00
6300
C300
C300
C700
7B80
ENDCHAR

STARTCHAR char228
ENCODING 228
SWIDTH 34 0
DWIDTH 8 0
BBX 9 14 -1 0
BITMAP
1980
0100
0000
0F00
3180
3180
0180
0780
3F00
6300
C300
C300
C700
7B80
ENDCHAR

STARTCHAR char229
ENCODING 229
SWIDTH 34 0
DWIDTH 8 0
BBX 9 16 -1 0
BITMAP
0F00
1900
1980
0F00
0000
0F00
3180
3180
0180
0780
3F00
6300
C300
C300
C700
7B80
ENDCHAR

STARTCHAR char230
ENCODING 230
SWIDTH 12 0
DWIDTH 13 0
BBX 14 11 -1 0
BITMAP
1E78
338C
618C
010C
030C
0FFC
7300
C318
C718
C730
79E0
ENDCHAR

STARTCHAR char231
ENCODING 231
SWIDTH 34 0
DWIDTH 8 0
BBX 8 15 0 -4
BITMAP
1E
33
63
40
C0
C0
C0
C6
C6
CC
78
10
30
20
20
ENDCHAR

STARTCHAR char232
ENCODING 232
SWIDTH 34 0
DWIDTH 8 0
BBX 8 15 0 0
BITMAP
18
18
08
00
1E
22
63
43
C3
FF
C0
C3
C6
C4
78
ENDCHAR

STARTCHAR char233
ENCODING 233
SWIDTH 34 0
DWIDTH 8 0
BBX 8 15 0 0
BITMAP
02
06
04
00
1E
23
63
43
C3
FF
C0
C3
C6
C4
78
ENDCHAR

STARTCHAR char234
ENCODING 234
SWIDTH 34 0
DWIDTH 8 0
BBX 8 15 0 0
BITMAP
0C
1A
12
00
1E
23
63
43
C3
FF
C0
C3
C6
C4
78
ENDCHAR

STARTCHAR char235
ENCODING 235
SWIDTH 34 0
DWIDTH 8 0
BBX 8 14 0 0
BITMAP
13
02
00
1E
23
63
43
C3
FF
C0
C3
C6
C4
78
ENDCHAR

STARTCHAR char236
ENCODING 236
SWIDTH 17 0
DWIDTH 4 0
BBX 4 15 0 0
BITMAP
40
60
20
00
30
20
60
60
60
40
40
C0
C0
C0
80
ENDCHAR

STARTCHAR char237
ENCODING 237
SWIDTH 17 0
DWIDTH 4 0
BBX 6 15 0 0
BITMAP
18
10
30
00
30
20
60
60
60
40
40
C0
C0
C0
80
ENDCHAR

STARTCHAR char238
ENCODING 238
SWIDTH 17 0
DWIDTH 4 0
BBX 6 15 0 0
BITMAP
38
68
48
00
30
20
60
60
60
40
40
C0
C0
C0
80
ENDCHAR

STARTCHAR char239
ENCODING 239
SWIDTH 17 0
DWIDTH 4 0
BBX 6 14 0 0
BITMAP
4C
08
00
30
20
60
60
60
40
40
C0
C0
C0
80
ENDCHAR

STARTCHAR char241
ENCODING 241
SWIDTH 38 0
DWIDTH 9 0
BBX 9 15 0 0
BITMAP
0080
1F00
0000
0000
2F00
3180
6180
6180
4300
4300
C300
C300
C200
8600
8600
ENDCHAR

STARTCHAR char242
ENCODING 242
SWIDTH 38 0
DWIDTH 9 0
BBX 8 15 0 0
BITMAP
18
08
0C
00
1E
23
63
43
C3
C3
C3
C2
C6
4C
38
ENDCHAR

STARTCHAR char243
ENCODING 243
SWIDTH 38 0
DWIDTH 9 0
BBX 8 15 0 0
BITMAP
03
06
04
00
1E
23
63
43
C3
C3
C3
C2
C6
6C
38
ENDCHAR

STARTCHAR char244
ENCODING 244
SWIDTH 38 0
DWIDTH 9 0
BBX 8 15 0 0
BITMAP
0E
0A
13
00
1E
23
63
43
C3
C3
C3
C2
C6
4C
38
ENDCHAR

STARTCHAR char245
ENCODING 245
SWIDTH 38 0
DWIDTH 9 0
BBX 8 15 0 0
BITMAP
01
1F
00
00
1E
23
63
43
C3
C3
C3
C2
C6
6C
38
ENDCHAR

STARTCHAR char246
ENCODING 246
SWIDTH 38 0
DWIDTH 9 0
BBX 8 14 0 0
BITMAP
1B
02
00
3E
33
63
43
C3
C3
C3
C2
C6
4C
38
ENDCHAR

STARTCHAR char247
ENCODING 247
SWIDTH 3 0
DWIDTH 11 0
BBX 10 7 0 2
BITMAP
0C00
0000
0000
FFC0
0000
0000
0C00
ENDCHAR

STARTCHAR char248
ENCODING 248
SWIDTH 38 0
DWIDTH 9 0
BBX 10 12 -1 0
BITMAP
0040
0F40
1980
3180
2280
6480
6480
6980
7180
6100
6300
9E00
ENDCHAR

STARTCHAR char249
ENCODING 249
SWIDTH 38 0
DWIDTH 9 0
BBX 9 15 0 0
BITMAP
1800
0800
0C00
0000
2180
6180
6100
6100
4300
4300
C300
C200
C600
CE00
7600
ENDCHAR

STARTCHAR char250
ENCODING 250
SWIDTH 38 0
DWIDTH 9 0
BBX 9 15 0 0
BITMAP
0300
0600
0400
0000
2180
6180
6100
6100
4300
4300
C300
C200
C600
CE00
7600
ENDCHAR

STARTCHAR char251
ENCODING 251
SWIDTH 38 0
DWIDTH 9 0
BBX 9 15 0 0
BITMAP
0600
0A00
1100
0000
2180
6180
6100
6100
4300
4300
C300
C200
C600
CE00
7600
ENDCHAR

STARTCHAR char252
ENCODING 252
SWIDTH 38 0
DWIDTH 9 0
BBX 9 14 0 0
BITMAP
1900
0200
0000
2180
6180
6100
4100
4300
4300
C200
C200
C600
C600
7E00
ENDCHAR

STARTCHAR char255
ENCODING 255
SWIDTH 34 0
DWIDTH 8 0
BBX 10 18 -3 -4
BITMAP
0C80
0080
0000
18C0
18C0
1980
1980
1900
1B00
1A00
1E00
1400
1C00
1800
1800
1800
7000
6000
ENDCHAR

ENDFONT
