STARTFONT 2.1
FONT -sun-helmet-medium-i-normal--14-140-75-75-p-76-adobe-fontspecific
SIZE 14 75 75
FONTBOUNDINGBOX 17 17 -2 -3

STARTPROPERTIES 28
FOUNDRY "sun"
FAMILY_NAME "helmet"
WEIGHT_NAME "medium"
SLANT "i"
SETWIDTH_NAME "normal"
ADD_STYLE_NAME ""
PIXEL_SIZE 15
POINT_SIZE 140
RESOLUTION_X 75
RESOLUTION_Y 75
SPACING "p"
AVERAGE_WIDTH 76
CHARSET_REGISTRY "adobe"
CHARSET_ENCODING "fontspecific"
COPYRIGHT "© 1999 Sun Microsystems, Inc."
RAW_PIXELSIZE 1000
RAW_POINTSIZE 964
RAW_ASCENT 915
RAW_DESCENT 196
RAW_AVERAGE_WIDTH 5251
FACE_NAME "HelmetItalicalic5"
_XMBDFED_INFO "Edited with xmbdfed 2.4."
WEIGHT 10
X_HEIGHT -1
QUAD_WIDTH 8
DEFAULT_CHAR 4
FONT_DESCENT 3
FONT_ASCENT 14
ENDPROPERTIES

CHARS 202

STARTCHAR char32
ENCODING 32
SWIDTH 24 0
DWIDTH 4 0
BBX 0 0 0 0
BITMAP
ENDCHAR

STARTCHAR char33
ENCODING 33
SWIDTH 24 0
DWIDTH 4 0
BBX 4 11 1 -1
BITMAP
20
20
60
60
40
40
40
00
00
80
80
ENDCHAR

STARTCHAR char34
ENCODING 34
SWIDTH 36 0
DWIDTH 6 0
BBX 5 4 1 7
BITMAP
28
68
58
50
ENDCHAR

STARTCHAR char35
ENCODING 35
SWIDTH 49 0
DWIDTH 8 0
BBX 7 11 0 0
BITMAP
14
24
24
FE
24
24
24
FE
48
48
48
ENDCHAR

STARTCHAR char36
ENCODING 36
SWIDTH 49 0
DWIDTH 8 0
BBX 8 13 0 -1
BITMAP
04
0C
3E
69
68
68
38
1C
12
92
D6
7C
20
ENDCHAR

STARTCHAR char37
ENCODING 37
SWIDTH 17 0
DWIDTH 13 0
BBX 10 10 1 0
BITMAP
6100
9200
9200
9480
A540
6A40
0A40
1240
1240
2380
ENDCHAR

STARTCHAR char38
ENCODING 38
SWIDTH 55 0
DWIDTH 9 0
BBX 8 10 0 0
BITMAP
1C
22
36
1C
38
4D
85
87
C6
79
ENDCHAR

STARTCHAR char39
ENCODING 39
SWIDTH 18 0
DWIDTH 3 0
BBX 3 5 1 6
BITMAP
20
60
60
40
40
ENDCHAR

STARTCHAR char40
ENCODING 40
SWIDTH 30 0
DWIDTH 5 0
BBX 5 12 1 -2
BITMAP
10
30
20
40
40
C0
80
80
80
80
80
40
ENDCHAR

STARTCHAR char41
ENCODING 41
SWIDTH 30 0
DWIDTH 5 0
BBX 4 12 -1 -2
BITMAP
10
10
10
10
10
10
10
30
20
60
40
80
ENDCHAR

STARTCHAR char42
ENCODING 42
SWIDTH 36 0
DWIDTH 6 0
BBX 5 4 1 6
BITMAP
50
78
70
50
ENDCHAR

STARTCHAR char43
ENCODING 43
SWIDTH 61 0
DWIDTH 10 0
BBX 9 9 1 0
BITMAP
0800
0800
0800
0800
FF80
0800
0800
0800
0800
ENDCHAR

STARTCHAR char44
ENCODING 44
SWIDTH 18 0
DWIDTH 3 0
BBX 2 4 0 -2
BITMAP
40
C0
80
80
ENDCHAR

STARTCHAR char45
ENCODING 45
SWIDTH 36 0
DWIDTH 6 0
BBX 5 1 0 4
BITMAP
78
ENDCHAR

STARTCHAR char46
ENCODING 46
SWIDTH 18 0
DWIDTH 3 0
BBX 2 2 0 -1
BITMAP
C0
80
ENDCHAR

STARTCHAR char47
ENCODING 47
SWIDTH 30 0
DWIDTH 5 0
BBX 5 10 0 0
BITMAP
08
18
10
10
20
20
40
40
C0
80
ENDCHAR

STARTCHAR char48
ENCODING 48
SWIDTH 49 0
DWIDTH 8 0
BBX 7 10 1 0
BITMAP
3C
66
42
C2
82
86
84
8C
C8
70
ENDCHAR

STARTCHAR char49
ENCODING 49
SWIDTH 49 0
DWIDTH 8 0
BBX 5 10 2 0
BITMAP
10
F0
90
30
30
20
20
20
60
60
ENDCHAR

STARTCHAR char50
ENCODING 50
SWIDTH 49 0
DWIDTH 8 0
BBX 7 10 0 0
BITMAP
1C
22
62
02
04
08
30
60
40
FC
ENDCHAR

STARTCHAR char51
ENCODING 51
SWIDTH 49 0
DWIDTH 8 0
BBX 7 10 1 0
BITMAP
3C
46
42
06
18
0C
04
84
8C
70
ENDCHAR

STARTCHAR char52
ENCODING 52
SWIDTH 49 0
DWIDTH 8 0
BBX 8 10 0 0
BITMAP
02
06
0A
1A
36
64
46
FE
0C
0C
ENDCHAR

STARTCHAR char53
ENCODING 53
SWIDTH 49 0
DWIDTH 8 0
BBX 7 10 1 0
BITMAP
3E
40
40
78
44
04
04
84
88
70
ENDCHAR

STARTCHAR char54
ENCODING 54
SWIDTH 49 0
DWIDTH 8 0
BBX 7 10 1 0
BITMAP
3C
66
40
78
CC
84
84
84
C8
70
ENDCHAR

STARTCHAR char55
ENCODING 55
SWIDTH 49 0
DWIDTH 8 0
BBX 7 10 1 0
BITMAP
7E
06
04
08
10
30
20
60
40
40
ENDCHAR

STARTCHAR char56
ENCODING 56
SWIDTH 49 0
DWIDTH 8 0
BBX 7 10 1 0
BITMAP
3C
42
42
46
7C
CC
84
84
8C
70
ENDCHAR

STARTCHAR char57
ENCODING 57
SWIDTH 49 0
DWIDTH 8 0
BBX 7 10 1 0
BITMAP
38
46
C2
82
46
4E
34
8C
98
70
ENDCHAR

STARTCHAR char58
ENCODING 58
SWIDTH 24 0
DWIDTH 4 0
BBX 3 8 1 -1
BITMAP
60
40
00
00
00
00
80
80
ENDCHAR

STARTCHAR char59
ENCODING 59
SWIDTH 24 0
DWIDTH 4 0
BBX 4 9 0 -2
BITMAP
30
20
00
00
00
60
40
40
80
ENDCHAR

STARTCHAR char60
ENCODING 60
SWIDTH 55 0
DWIDTH 9 0
BBX 8 7 0 0
BITMAP
07
18
60
C0
30
0C
03
ENDCHAR

STARTCHAR char61
ENCODING 61
SWIDTH 61 0
DWIDTH 10 0
BBX 10 4 0 2
BITMAP
FFC0
0000
0000
FFC0
ENDCHAR

STARTCHAR char62
ENCODING 62
SWIDTH 55 0
DWIDTH 9 0
BBX 8 7 0 0
BITMAP
E0
18
06
03
0C
30
C0
ENDCHAR

STARTCHAR char63
ENCODING 63
SWIDTH 49 0
DWIDTH 8 0
BBX 7 11 1 -1
BITMAP
3C
46
C2
06
0C
10
20
00
00
60
40
ENDCHAR

STARTCHAR char64
ENCODING 64
SWIDTH 36 0
DWIDTH 16 0
BBX 11 11 2 0
BITMAP
0F00
3180
4040
4FA0
9120
A120
A340
B240
5F80
20C0
1F00
ENDCHAR

STARTCHAR char65
ENCODING 65
SWIDTH 61 0
DWIDTH 10 0
BBX 8 10 0 0
BITMAP
06
0A
1A
12
32
23
7F
C1
C1
81
ENDCHAR

STARTCHAR char66
ENCODING 66
SWIDTH 61 0
DWIDTH 10 0
BBX 9 10 0 0
BITMAP
3F00
2180
6080
6180
7E00
4300
4180
C180
C300
FC00
ENDCHAR

STARTCHAR char67
ENCODING 67
SWIDTH 61 0
DWIDTH 10 0
BBX 9 10 1 0
BITMAP
3E00
6100
4180
8000
8000
8000
8000
8100
4200
3C00
ENDCHAR

STARTCHAR char68
ENCODING 68
SWIDTH 61 0
DWIDTH 10 0
BBX 9 10 0 0
BITMAP
3F00
2180
6080
6080
4080
4080
4100
C300
8600
FC00
ENDCHAR

STARTCHAR char69
ENCODING 69
SWIDTH 49 0
DWIDTH 8 0
BBX 8 10 0 0
BITMAP
3F
20
20
60
7E
40
40
C0
C0
FE
ENDCHAR

STARTCHAR char70
ENCODING 70
SWIDTH 49 0
DWIDTH 8 0
BBX 8 10 0 0
BITMAP
3F
20
60
60
7E
40
40
C0
C0
C0
ENDCHAR

STARTCHAR char71
ENCODING 71
SWIDTH 5 0
DWIDTH 11 0
BBX 9 10 1 0
BITMAP
3F00
6180
C180
8000
8000
8F80
8180
8100
C300
3D00
ENDCHAR

STARTCHAR char72
ENCODING 72
SWIDTH 61 0
DWIDTH 10 0
BBX 10 10 0 0
BITMAP
2080
20C0
6080
6080
7F80
4180
C180
C100
C300
8100
ENDCHAR

STARTCHAR char73
ENCODING 73
SWIDTH 18 0
DWIDTH 3 0
BBX 4 10 0 0
BITMAP
30
30
20
20
60
60
40
40
C0
40
ENDCHAR

STARTCHAR char74
ENCODING 74
SWIDTH 49 0
DWIDTH 8 0
BBX 8 10 0 0
BITMAP
02
02
06
06
06
04
C4
8C
8C
78
ENDCHAR

STARTCHAR char75
ENCODING 75
SWIDTH 55 0
DWIDTH 9 0
BBX 10 10 0 0
BITMAP
2180
2300
6400
6800
7800
6C00
C400
C600
C200
8300
ENDCHAR

STARTCHAR char76
ENCODING 76
SWIDTH 49 0
DWIDTH 8 0
BBX 7 10 0 0
BITMAP
20
20
20
60
60
40
40
C0
C0
FE
ENDCHAR

STARTCHAR char77
ENCODING 77
SWIDTH 11 0
DWIDTH 12 0
BBX 12 10 0 0
BITMAP
3060
3060
70A0
50E0
5160
5960
DA40
CEC0
8CC0
8CC0
ENDCHAR

STARTCHAR char78
ENCODING 78
SWIDTH 61 0
DWIDTH 10 0
BBX 10 10 0 0
BITMAP
3080
30C0
7880
6880
4980
4D80
C500
C700
8300
8300
ENDCHAR

STARTCHAR char79
ENCODING 79
SWIDTH 5 0
DWIDTH 11 0
BBX 9 10 1 0
BITMAP
3E00
6100
C080
8080
8080
8080
8180
8100
4200
3C00
ENDCHAR

STARTCHAR char80
ENCODING 80
SWIDTH 55 0
DWIDTH 9 0
BBX 8 10 0 0
BITMAP
3E
21
61
61
62
7E
40
C0
C0
80
ENDCHAR

STARTCHAR char81
ENCODING 81
SWIDTH 5 0
DWIDTH 11 0
BBX 9 11 1 -1
BITMAP
3E00
6100
4080
8080
8080
8080
8180
8900
4E00
3E00
0300
ENDCHAR

STARTCHAR char82
ENCODING 82
SWIDTH 61 0
DWIDTH 10 0
BBX 9 10 0 0
BITMAP
3F00
2180
6080
6180
7F00
4300
C300
C300
C300
8300
ENDCHAR

STARTCHAR char83
ENCODING 83
SWIDTH 55 0
DWIDTH 9 0
BBX 8 10 0 0
BITMAP
3F
61
60
70
3C
0E
03
81
C2
3C
ENDCHAR

STARTCHAR char84
ENCODING 84
SWIDTH 49 0
DWIDTH 8 0
BBX 8 10 1 0
BITMAP
FF
18
10
10
30
30
20
20
60
20
ENDCHAR

STARTCHAR char85
ENCODING 85
SWIDTH 61 0
DWIDTH 10 0
BBX 8 10 1 0
BITMAP
41
41
41
43
83
82
82
86
C4
78
ENDCHAR

STARTCHAR char86
ENCODING 86
SWIDTH 55 0
DWIDTH 9 0
BBX 8 10 1 0
BITMAP
C1
C3
43
46
46
6C
6C
28
30
30
ENDCHAR

STARTCHAR char87
ENCODING 87
SWIDTH 17 0
DWIDTH 13 0
BBX 12 10 1 0
BITMAP
C410
C630
CA20
CA60
DA40
52C0
52C0
6280
6380
6300
ENDCHAR

STARTCHAR char88
ENCODING 88
SWIDTH 55 0
DWIDTH 9 0
BBX 8 10 0 0
BITMAP
61
23
36
1C
18
18
3C
64
C6
82
ENDCHAR

STARTCHAR char89
ENCODING 89
SWIDTH 55 0
DWIDTH 9 0
BBX 8 10 1 0
BITMAP
C1
43
66
2C
28
38
30
30
20
20
ENDCHAR

STARTCHAR char90
ENCODING 90
SWIDTH 55 0
DWIDTH 9 0
BBX 9 10 0 0
BITMAP
7F80
0300
0600
0C00
1800
1800
3000
6000
C000
FE00
ENDCHAR

STARTCHAR char91
ENCODING 91
SWIDTH 36 0
DWIDTH 6 0
BBX 8 12 0 -2
BITMAP
0E
18
18
10
10
30
30
20
20
60
40
70
ENDCHAR

STARTCHAR char92
ENCODING 92
SWIDTH 24 0
DWIDTH 4 0
BBX 4 11 0 0
BITMAP
80
80
80
40
40
40
20
20
20
10
10
ENDCHAR

STARTCHAR char93
ENCODING 93
SWIDTH 36 0
DWIDTH 6 0
BBX 8 12 -2 -2
BITMAP
0E
02
06
06
04
0C
0C
08
08
18
18
70
ENDCHAR

STARTCHAR char94
ENCODING 94
SWIDTH 0 0
DWIDTH 0 0
BBX 5 2 -1 11
BITMAP
70
40
ENDCHAR

STARTCHAR char95
ENCODING 95
SWIDTH 55 0
DWIDTH 9 0
BBX 8 1 0 -2
BITMAP
FF
ENDCHAR

STARTCHAR char96
ENCODING 96
SWIDTH 0 0
DWIDTH 0 0
BBX 3 2 -1 8
BITMAP
40
20
ENDCHAR

STARTCHAR char97
ENCODING 97
SWIDTH 49 0
DWIDTH 8 0
BBX 7 8 0 0
BITMAP
3C
66
02
3E
E4
84
CC
76
ENDCHAR

STARTCHAR char98
ENCODING 98
SWIDTH 49 0
DWIDTH 8 0
BBX 7 10 0 0
BITMAP
20
20
3C
66
62
42
42
C2
C4
B8
ENDCHAR

STARTCHAR char99
ENCODING 99
SWIDTH 49 0
DWIDTH 8 0
BBX 6 8 1 0
BITMAP
38
4C
44
80
80
80
88
70
ENDCHAR

STARTCHAR char100
ENCODING 100
SWIDTH 49 0
DWIDTH 8 0
BBX 8 10 0 0
BITMAP
01
01
39
67
42
C2
82
86
CC
74
ENDCHAR

STARTCHAR char101
ENCODING 101
SWIDTH 49 0
DWIDTH 8 0
BBX 7 8 0 0
BITMAP
3C
66
42
C2
FE
80
C4
78
ENDCHAR

STARTCHAR char102
ENCODING 102
SWIDTH 24 0
DWIDTH 4 0
BBX 4 10 1 0
BITMAP
30
60
F0
40
40
C0
C0
80
80
80
ENDCHAR

STARTCHAR char103
ENCODING 103
SWIDTH 49 0
DWIDTH 8 0
BBX 8 10 0 -2
BITMAP
3F
67
C2
82
82
86
C4
7C
84
78
ENDCHAR

STARTCHAR char104
ENCODING 104
SWIDTH 49 0
DWIDTH 8 0
BBX 7 10 0 0
BITMAP
20
20
2E
76
62
46
46
C4
C4
84
ENDCHAR

STARTCHAR char105
ENCODING 105
SWIDTH 18 0
DWIDTH 3 0
BBX 4 10 0 0
BITMAP
30
00
20
60
60
60
40
40
C0
40
ENDCHAR

STARTCHAR char106
ENCODING 106
SWIDTH 18 0
DWIDTH 3 0
BBX 6 12 -2 -2
BITMAP
08
00
18
18
10
10
10
30
30
20
20
E0
ENDCHAR

STARTCHAR char107
ENCODING 107
SWIDTH 43 0
DWIDTH 7 0
BBX 8 10 0 0
BITMAP
20
20
63
6C
58
78
78
C8
8C
8C
ENDCHAR

STARTCHAR char108
ENCODING 108
SWIDTH 18 0
DWIDTH 3 0
BBX 4 10 0 0
BITMAP
30
20
20
60
60
60
40
40
C0
40
ENDCHAR

STARTCHAR char109
ENCODING 109
SWIDTH 17 0
DWIDTH 13 0
BBX 11 8 0 0
BITMAP
7CC0
6720
6620
4660
C460
C460
8C40
8440
ENDCHAR

STARTCHAR char110
ENCODING 110
SWIDTH 49 0
DWIDTH 8 0
BBX 7 8 0 0
BITMAP
6C
72
62
42
46
C4
C4
84
ENDCHAR

STARTCHAR char111
ENCODING 111
SWIDTH 49 0
DWIDTH 8 0
BBX 7 8 0 0
BITMAP
1C
64
42
C2
82
82
C4
38
ENDCHAR

STARTCHAR char112
ENCODING 112
SWIDTH 49 0
DWIDTH 8 0
BBX 8 10 -1 -2
BITMAP
3E
33
31
21
61
63
62
5C
C0
40
ENDCHAR

STARTCHAR char113
ENCODING 113
SWIDTH 49 0
DWIDTH 8 0
BBX 8 10 0 -2
BITMAP
3D
67
42
C2
82
86
CC
74
04
04
ENDCHAR

STARTCHAR char114
ENCODING 114
SWIDTH 30 0
DWIDTH 5 0
BBX 6 8 0 0
BITMAP
38
74
60
40
40
C0
C0
C0
ENDCHAR

STARTCHAR char115
ENCODING 115
SWIDTH 43 0
DWIDTH 7 0
BBX 7 8 0 0
BITMAP
38
64
42
70
18
84
84
78
ENDCHAR

STARTCHAR char116
ENCODING 116
SWIDTH 24 0
DWIDTH 4 0
BBX 3 10 1 0
BITMAP
60
40
E0
40
C0
C0
80
80
80
C0
ENDCHAR

STARTCHAR char117
ENCODING 117
SWIDTH 49 0
DWIDTH 8 0
BBX 7 8 1 0
BITMAP
44
44
44
84
8C
88
98
68
ENDCHAR

STARTCHAR char118
ENCODING 118
SWIDTH 43 0
DWIDTH 7 0
BBX 7 8 0 0
BITMAP
46
46
4C
4C
48
50
50
60
ENDCHAR

STARTCHAR char119
ENCODING 119
SWIDTH 5 0
DWIDTH 11 0
BBX 11 8 0 0
BITMAP
C440
4C40
4CC0
5480
5580
7500
6500
6600
ENDCHAR

STARTCHAR char120
ENCODING 120
SWIDTH 43 0
DWIDTH 7 0
BBX 8 8 -1 0
BITMAP
23
36
16
1C
18
3C
64
46
ENDCHAR

STARTCHAR char121
ENCODING 121
SWIDTH 43 0
DWIDTH 7 0
BBX 7 10 0 -2
BITMAP
42
46
44
6C
68
38
30
30
20
C0
ENDCHAR

STARTCHAR char122
ENCODING 122
SWIDTH 43 0
DWIDTH 7 0
BBX 7 8 0 0
BITMAP
7E
0C
18
10
30
60
C0
FC
ENDCHAR

STARTCHAR char123
ENCODING 123
SWIDTH 30 0
DWIDTH 5 0
BBX 3 13 1 -3
BITMAP
60
40
40
40
40
80
80
40
40
40
40
40
20
ENDCHAR

STARTCHAR char124
ENCODING 124
SWIDTH 24 0
DWIDTH 4 0
BBX 1 11 1 0
BITMAP
80
80
80
80
80
80
80
80
80
80
80
ENDCHAR

STARTCHAR char125
ENCODING 125
SWIDTH 30 0
DWIDTH 5 0
BBX 3 13 1 -3
BITMAP
C0
40
40
40
40
20
20
40
40
40
40
40
80
ENDCHAR

STARTCHAR char126
ENCODING 126
SWIDTH 0 0
DWIDTH 0 0
BBX 5 2 -1 11
BITMAP
78
90
ENDCHAR

STARTCHAR char128
ENCODING 128
SWIDTH 49 0
DWIDTH 8 0
BBX 8 10 1 0
BITMAP
1F
20
40
FE
40
FC
40
40
22
1C
ENDCHAR

STARTCHAR char130
ENCODING 130
SWIDTH 18 0
DWIDTH 3 0
BBX 2 4 0 -2
BITMAP
40
C0
C0
80
ENDCHAR

STARTCHAR char131
ENCODING 131
SWIDTH 0 0
DWIDTH 0 0
BBX 5 2 -1 11
BITMAP
70
40
ENDCHAR

STARTCHAR char132
ENCODING 132
SWIDTH 36 0
DWIDTH 6 0
BBX 5 4 -1 -2
BITMAP
68
68
58
50
ENDCHAR

STARTCHAR char133
ENCODING 133
SWIDTH 36 0
DWIDTH 16 0
BBX 10 1 2 0
BITMAP
8840
ENDCHAR

STARTCHAR char134
ENCODING 134
SWIDTH 49 0
DWIDTH 8 0
BBX 6 11 1 -1
BITMAP
18
10
10
FC
30
20
20
20
60
60
40
ENDCHAR

STARTCHAR char136
ENCODING 136
SWIDTH 0 0
DWIDTH 0 0
BBX 4 2 -1 8
BITMAP
F0
80
ENDCHAR

STARTCHAR char138
ENCODING 138
SWIDTH 29 0
DWIDTH 15 0
BBX 0 0 0 0
BITMAP
ENDCHAR

STARTCHAR char139
ENCODING 139
SWIDTH 30 0
DWIDTH 5 0
BBX 3 4 1 2
BITMAP
60
C0
C0
60
ENDCHAR

STARTCHAR char140
ENCODING 140
SWIDTH 29 0
DWIDTH 15 0
BBX 15 10 0 0
BITMAP
1F7E
70C0
6080
C080
80FC
8180
8180
C100
6300
3DF8
ENDCHAR

STARTCHAR char141
ENCODING 141
SWIDTH 29 0
DWIDTH 15 0
BBX 0 0 0 0
BITMAP
ENDCHAR

STARTCHAR char145
ENCODING 145
SWIDTH 18 0
DWIDTH 3 0
BBX 3 4 2 6
BITMAP
E0
C0
80
80
ENDCHAR

STARTCHAR char146
ENCODING 146
SWIDTH 18 0
DWIDTH 3 0
BBX 2 4 2 7
BITMAP
40
C0
80
80
ENDCHAR

STARTCHAR char147
ENCODING 147
SWIDTH 36 0
DWIDTH 6 0
BBX 6 4 1 6
BITMAP
28
74
58
80
ENDCHAR

STARTCHAR char148
ENCODING 148
SWIDTH 36 0
DWIDTH 6 0
BBX 5 4 1 7
BITMAP
28
68
58
50
ENDCHAR

STARTCHAR char149
ENCODING 149
SWIDTH 30 0
DWIDTH 5 0
BBX 4 4 0 3
BITMAP
60
F0
F0
60
ENDCHAR

STARTCHAR char150
ENCODING 150
SWIDTH 49 0
DWIDTH 8 0
BBX 8 1 0 4
BITMAP
7E
ENDCHAR

STARTCHAR char151
ENCODING 151
SWIDTH 61 0
DWIDTH 10 0
BBX 10 1 0 4
BITMAP
FFC0
ENDCHAR

STARTCHAR char152
ENCODING 152
SWIDTH 0 0
DWIDTH 0 0
BBX 5 2 -1 8
BITMAP
E8
10
ENDCHAR

STARTCHAR char153
ENCODING 153
SWIDTH 17 0
DWIDTH 13 0
BBX 12 5 0 4
BITMAP
F920
2360
2360
22E0
62B0
ENDCHAR

STARTCHAR char155
ENCODING 155
SWIDTH 30 0
DWIDTH 5 0
BBX 3 4 1 2
BITMAP
C0
60
60
80
ENDCHAR

STARTCHAR char156
ENCODING 156
SWIDTH 17 0
DWIDTH 13 0
BBX 12 8 0 0
BITMAP
3CE0
6530
4210
8210
83F0
8600
CE60
7BC0
ENDCHAR

STARTCHAR char157
ENCODING 157
SWIDTH 29 0
DWIDTH 15 0
BBX 0 0 0 0
BITMAP
ENDCHAR

STARTCHAR char159
ENCODING 159
SWIDTH 55 0
DWIDTH 9 0
BBX 8 13 1 0
BITMAP
34
24
00
C3
42
66
2C
28
30
30
30
20
20
ENDCHAR

STARTCHAR char160
ENCODING 160
SWIDTH 24 0
DWIDTH 4 0
BBX 0 0 0 0
BITMAP
ENDCHAR

STARTCHAR char161
ENCODING 161
SWIDTH 24 0
DWIDTH 4 0
BBX 4 10 0 0
BITMAP
30
20
20
20
60
40
40
40
C0
40
ENDCHAR

STARTCHAR char162
ENCODING 162
SWIDTH 49 0
DWIDTH 8 0
BBX 6 11 1 -2
BITMAP
10
38
7C
54
A0
A0
A0
A8
70
40
40
ENDCHAR

STARTCHAR char163
ENCODING 163
SWIDTH 49 0
DWIDTH 8 0
BBX 8 10 0 0
BITMAP
0E
11
21
20
7C
20
20
60
FE
DE
ENDCHAR

STARTCHAR char164
ENCODING 164
SWIDTH 0 0
DWIDTH 0 0
BBX 3 2 1 11
BITMAP
C0
80
ENDCHAR

STARTCHAR char165
ENCODING 165
SWIDTH 0 0
DWIDTH 0 0
BBX 4 1 0 12
BITMAP
E0
ENDCHAR

STARTCHAR char166
ENCODING 166
SWIDTH 29 0
DWIDTH 15 0
BBX 0 0 0 0
BITMAP
ENDCHAR

STARTCHAR char167
ENCODING 167
SWIDTH 49 0
DWIDTH 8 0
BBX 7 12 0 -2
BITMAP
1E
22
20
30
5C
4E
26
32
1C
08
48
30
ENDCHAR

STARTCHAR char168
ENCODING 168
SWIDTH 0 0
DWIDTH 0 0
BBX 4 2 -1 8
BITMAP
D0
10
ENDCHAR

STARTCHAR char169
ENCODING 169
SWIDTH 11 0
DWIDTH 12 0
BBX 11 10 0 0
BITMAP
0E00
3180
4740
5920
9020
9020
9020
4E40
2080
1F00
ENDCHAR

STARTCHAR char170
ENCODING 170
SWIDTH 0 0
DWIDTH 0 0
BBX 5 2 -1 11
BITMAP
D8
90
ENDCHAR

STARTCHAR char171
ENCODING 171
SWIDTH 43 0
DWIDTH 7 0
BBX 6 5 0 1
BITMAP
24
48
D8
6C
24
ENDCHAR

STARTCHAR char172
ENCODING 172
SWIDTH 5 0
DWIDTH 11 0
BBX 10 4 0 0
BITMAP
FFC0
0040
0040
0040
ENDCHAR

STARTCHAR char174
ENCODING 174
SWIDTH 11 0
DWIDTH 12 0
BBX 11 10 0 0
BITMAP
0E00
3180
5E80
4940
8B20
8C20
8A20
5940
6080
1F00
ENDCHAR

STARTCHAR char176
ENCODING 176
SWIDTH 24 0
DWIDTH 4 0
BBX 5 5 1 5
BITMAP
60
98
88
90
60
ENDCHAR

STARTCHAR char177
ENCODING 177
SWIDTH 49 0
DWIDTH 8 0
BBX 8 9 0 0
BITMAP
10
10
10
FF
10
10
10
00
FF
ENDCHAR

STARTCHAR char179
ENCODING 179
SWIDTH 29 0
DWIDTH 15 0
BBX 0 0 0 0
BITMAP
ENDCHAR

STARTCHAR char180
ENCODING 180
SWIDTH 0 0
DWIDTH 0 0
BBX 4 2 0 8
BITMAP
60
C0
ENDCHAR

STARTCHAR char182
ENCODING 182
SWIDTH 61 0
DWIDTH 10 0
BBX 7 12 1 -2
BITMAP
3E
64
E4
E4
64
24
24
24
24
24
24
24
ENDCHAR

STARTCHAR char183
ENCODING 183
SWIDTH 18 0
DWIDTH 3 0
BBX 1 1 2 4
BITMAP
80
ENDCHAR

STARTCHAR char184
ENCODING 184
SWIDTH 0 0
DWIDTH 0 0
BBX 1 2 -1 -3
BITMAP
80
80
ENDCHAR

STARTCHAR char186
ENCODING 186
SWIDTH 0 0
DWIDTH 0 0
BBX 5 2 -1 11
BITMAP
78
90
ENDCHAR

STARTCHAR char187
ENCODING 187
SWIDTH 43 0
DWIDTH 7 0
BBX 6 5 0 2
BITMAP
48
48
24
6C
90
ENDCHAR

STARTCHAR char189
ENCODING 189
SWIDTH 29 0
DWIDTH 15 0
BBX 0 0 0 0
BITMAP
ENDCHAR

STARTCHAR char191
ENCODING 191
SWIDTH 49 0
DWIDTH 8 0
BBX 6 10 0 0
BITMAP
0C
08
08
18
30
40
80
84
CC
78
ENDCHAR

STARTCHAR char192
ENCODING 192
SWIDTH 61 0
DWIDTH 10 0
BBX 8 13 0 0
BITMAP
0C
06
00
0E
0A
1A
12
32
23
7F
C1
C1
81
ENDCHAR

STARTCHAR char193
ENCODING 193
SWIDTH 61 0
DWIDTH 10 0
BBX 8 13 0 0
BITMAP
02
04
00
0E
0A
1A
12
32
23
7F
C1
C1
81
ENDCHAR

STARTCHAR char194
ENCODING 194
SWIDTH 61 0
DWIDTH 10 0
BBX 8 13 0 0
BITMAP
0E
08
00
0E
0A
1A
12
32
23
7F
C1
C1
81
ENDCHAR

STARTCHAR char195
ENCODING 195
SWIDTH 61 0
DWIDTH 10 0
BBX 8 13 0 0
BITMAP
0F
12
00
0E
0A
1A
12
32
23
7F
C1
C1
81
ENDCHAR

STARTCHAR char196
ENCODING 196
SWIDTH 61 0
DWIDTH 10 0
BBX 8 13 0 0
BITMAP
0D
09
00
0E
0A
1A
12
32
23
7F
C1
C1
81
ENDCHAR

STARTCHAR char197
ENCODING 197
SWIDTH 61 0
DWIDTH 10 0
BBX 8 14 0 0
BITMAP
07
05
05
07
06
0A
1A
12
32
23
7F
C1
C1
81
ENDCHAR

STARTCHAR char198
ENCODING 198
SWIDTH 23 0
DWIDTH 14 0
BBX 15 10 -1 0
BITMAP
03FC
0680
0480
0880
19F8
1100
3F00
2100
4300
43F8
ENDCHAR

STARTCHAR char199
ENCODING 199
SWIDTH 61 0
DWIDTH 10 0
BBX 9 13 1 -3
BITMAP
3E00
6100
4180
8000
8000
8000
8000
8100
4200
3C00
0000
1000
2000
ENDCHAR

STARTCHAR char200
ENCODING 200
SWIDTH 49 0
DWIDTH 8 0
BBX 8 13 0 0
BITMAP
08
04
00
3F
20
20
60
7E
40
40
C0
C0
FE
ENDCHAR

STARTCHAR char201
ENCODING 201
SWIDTH 49 0
DWIDTH 8 0
BBX 8 13 0 0
BITMAP
06
0C
00
3F
20
20
60
7E
40
40
C0
C0
FE
ENDCHAR

STARTCHAR char202
ENCODING 202
SWIDTH 49 0
DWIDTH 8 0
BBX 8 13 0 0
BITMAP
0E
10
00
3F
20
20
60
7E
40
40
C0
C0
FE
ENDCHAR

STARTCHAR char203
ENCODING 203
SWIDTH 49 0
DWIDTH 8 0
BBX 8 13 0 0
BITMAP
1A
12
00
3F
20
20
60
7E
40
40
C0
C0
FE
ENDCHAR

STARTCHAR char204
ENCODING 204
SWIDTH 18 0
DWIDTH 3 0
BBX 4 13 0 0
BITMAP
60
10
00
30
20
20
20
60
60
40
40
C0
40
ENDCHAR

STARTCHAR char205
ENCODING 205
SWIDTH 18 0
DWIDTH 3 0
BBX 5 13 0 0
BITMAP
18
30
00
30
20
20
20
60
60
40
40
C0
40
ENDCHAR

STARTCHAR char206
ENCODING 206
SWIDTH 18 0
DWIDTH 3 0
BBX 5 13 0 0
BITMAP
78
40
00
30
20
20
20
60
60
40
40
C0
40
ENDCHAR

STARTCHAR char207
ENCODING 207
SWIDTH 18 0
DWIDTH 3 0
BBX 5 13 0 0
BITMAP
48
48
00
30
20
20
20
60
60
40
40
C0
40
ENDCHAR

STARTCHAR char209
ENCODING 209
SWIDTH 61 0
DWIDTH 10 0
BBX 10 13 0 0
BITMAP
0D00
0F00
0000
30C0
3080
7880
6880
4980
4D80
C500
C700
8300
8300
ENDCHAR

STARTCHAR char210
ENCODING 210
SWIDTH 5 0
DWIDTH 11 0
BBX 9 13 1 0
BITMAP
0C00
0400
0000
3E00
6100
C080
8080
8080
8080
8180
8100
4200
3C00
ENDCHAR

STARTCHAR char211
ENCODING 211
SWIDTH 5 0
DWIDTH 11 0
BBX 9 13 1 0
BITMAP
0600
0400
0000
3E00
6100
C080
8080
8080
8080
8180
8100
4200
3C00
ENDCHAR

STARTCHAR char212
ENCODING 212
SWIDTH 5 0
DWIDTH 11 0
BBX 9 13 1 0
BITMAP
0E00
1000
0000
3E00
6100
C080
8080
8080
8080
8180
8100
4200
3C00
ENDCHAR

STARTCHAR char213
ENCODING 213
SWIDTH 5 0
DWIDTH 11 0
BBX 9 13 1 0
BITMAP
1D00
1600
0000
3E00
6100
C080
8080
8080
8080
8180
8100
4200
3C00
ENDCHAR

STARTCHAR char214
ENCODING 214
SWIDTH 5 0
DWIDTH 11 0
BBX 9 13 1 0
BITMAP
0B00
0A00
0000
3E00
6100
C080
8080
8080
8080
8180
8100
4200
3C00
ENDCHAR

STARTCHAR char216
ENCODING 216
SWIDTH 5 0
DWIDTH 11 0
BBX 10 11 0 0
BITMAP
0040
1F40
3080
6140
4240
4440
4840
50C0
6080
2300
5E00
ENDCHAR

STARTCHAR char217
ENCODING 217
SWIDTH 61 0
DWIDTH 10 0
BBX 9 13 1 0
BITMAP
1800
0C00
0000
4180
4100
4100
4300
8300
8200
8200
8600
C400
7800
ENDCHAR

STARTCHAR char218
ENCODING 218
SWIDTH 61 0
DWIDTH 10 0
BBX 9 13 1 0
BITMAP
0400
0800
0000
4180
4100
4100
4300
8300
8200
8200
8600
C400
7800
ENDCHAR

STARTCHAR char219
ENCODING 219
SWIDTH 61 0
DWIDTH 10 0
BBX 9 13 1 0
BITMAP
1C00
1000
0000
4180
4100
4100
4300
8300
8200
8200
8600
C400
7800
ENDCHAR

STARTCHAR char220
ENCODING 220
SWIDTH 61 0
DWIDTH 10 0
BBX 9 13 1 0
BITMAP
1A00
1200
0000
4180
4100
4100
4300
8300
8200
8200
8600
C400
7800
ENDCHAR

STARTCHAR char222
ENCODING 222
SWIDTH 29 0
DWIDTH 15 0
BBX 0 0 0 0
BITMAP
ENDCHAR

STARTCHAR char223
ENCODING 223
SWIDTH 49 0
DWIDTH 8 0
BBX 7 10 0 0
BITMAP
1C
22
62
66
5C
44
44
C4
CC
B8
ENDCHAR

STARTCHAR char224
ENCODING 224
SWIDTH 49 0
DWIDTH 8 0
BBX 7 10 0 0
BITMAP
18
0C
3C
66
02
3E
E4
84
CC
76
ENDCHAR

STARTCHAR char225
ENCODING 225
SWIDTH 49 0
DWIDTH 8 0
BBX 7 10 0 0
BITMAP
04
08
3C
66
02
3E
E4
84
CC
76
ENDCHAR

STARTCHAR char226
ENCODING 226
SWIDTH 49 0
DWIDTH 8 0
BBX 7 10 0 0
BITMAP
1C
10
3C
66
02
3E
E4
84
CC
76
ENDCHAR

STARTCHAR char227
ENCODING 227
SWIDTH 49 0
DWIDTH 8 0
BBX 8 10 0 0
BITMAP
1F
02
3C
66
02
3E
E4
84
CC
76
ENDCHAR

STARTCHAR char228
ENCODING 228
SWIDTH 49 0
DWIDTH 8 0
BBX 7 10 0 0
BITMAP
36
24
3C
62
02
3E
E4
84
CC
76
ENDCHAR

STARTCHAR char229
ENCODING 229
SWIDTH 49 0
DWIDTH 8 0
BBX 7 11 0 0
BITMAP
1C
14
1C
3C
66
02
7E
E4
84
CC
76
ENDCHAR

STARTCHAR char230
ENCODING 230
SWIDTH 17 0
DWIDTH 13 0
BBX 11 8 0 0
BITMAP
3DC0
4720
0620
3E20
7FE0
8400
8E40
73C0
ENDCHAR

STARTCHAR char231
ENCODING 231
SWIDTH 49 0
DWIDTH 8 0
BBX 6 11 1 -3
BITMAP
38
4C
44
80
80
80
88
70
00
60
40
ENDCHAR

STARTCHAR char232
ENCODING 232
SWIDTH 49 0
DWIDTH 8 0
BBX 7 10 0 0
BITMAP
18
0C
3C
66
42
C2
FE
80
C4
78
ENDCHAR

STARTCHAR char233
ENCODING 233
SWIDTH 49 0
DWIDTH 8 0
BBX 7 10 0 0
BITMAP
0C
08
3C
66
42
C2
FE
80
C4
78
ENDCHAR

STARTCHAR char234
ENCODING 234
SWIDTH 49 0
DWIDTH 8 0
BBX 7 10 0 0
BITMAP
1C
10
3C
66
42
C2
FE
80
C4
78
ENDCHAR

STARTCHAR char235
ENCODING 235
SWIDTH 49 0
DWIDTH 8 0
BBX 7 10 0 0
BITMAP
16
04
3C
66
42
C2
FE
80
C4
78
ENDCHAR

STARTCHAR char236
ENCODING 236
SWIDTH 18 0
DWIDTH 3 0
BBX 4 10 0 0
BITMAP
60
30
20
20
60
40
40
40
C0
40
ENDCHAR

STARTCHAR char237
ENCODING 237
SWIDTH 18 0
DWIDTH 3 0
BBX 5 10 0 0
BITMAP
10
20
20
20
60
40
40
40
C0
40
ENDCHAR

STARTCHAR char238
ENCODING 238
SWIDTH 18 0
DWIDTH 3 0
BBX 5 10 0 0
BITMAP
70
40
20
20
60
40
40
40
C0
40
ENDCHAR

STARTCHAR char239
ENCODING 239
SWIDTH 18 0
DWIDTH 3 0
BBX 5 10 0 0
BITMAP
58
10
20
20
60
40
40
40
C0
40
ENDCHAR

STARTCHAR char241
ENCODING 241
SWIDTH 49 0
DWIDTH 8 0
BBX 8 10 0 0
BITMAP
1E
02
6C
72
62
42
46
C4
C4
84
ENDCHAR

STARTCHAR char242
ENCODING 242
SWIDTH 49 0
DWIDTH 8 0
BBX 7 10 0 0
BITMAP
08
04
1C
64
42
C2
82
82
C4
38
ENDCHAR

STARTCHAR char243
ENCODING 243
SWIDTH 49 0
DWIDTH 8 0
BBX 7 10 0 0
BITMAP
04
08
1C
64
42
C2
82
82
C4
38
ENDCHAR

STARTCHAR char244
ENCODING 244
SWIDTH 49 0
DWIDTH 8 0
BBX 7 10 0 0
BITMAP
1C
10
1C
64
42
C2
82
82
C4
38
ENDCHAR

STARTCHAR char245
ENCODING 245
SWIDTH 49 0
DWIDTH 8 0
BBX 8 10 0 0
BITMAP
1E
00
1C
64
42
C2
82
82
C4
78
ENDCHAR

STARTCHAR char246
ENCODING 246
SWIDTH 49 0
DWIDTH 8 0
BBX 6 10 1 0
BITMAP
24
24
38
48
44
84
84
84
88
70
ENDCHAR

STARTCHAR char247
ENCODING 247
SWIDTH 49 0
DWIDTH 8 0
BBX 7 5 0 1
BITMAP
10
00
FE
00
10
ENDCHAR

STARTCHAR char248
ENCODING 248
SWIDTH 49 0
DWIDTH 8 0
BBX 8 8 0 0
BITMAP
1E
64
46
CA
92
A2
C4
F8
ENDCHAR

STARTCHAR char249
ENCODING 249
SWIDTH 49 0
DWIDTH 8 0
BBX 7 10 1 0
BITMAP
30
18
46
44
44
84
8C
88
98
68
ENDCHAR

STARTCHAR char250
ENCODING 250
SWIDTH 49 0
DWIDTH 8 0
BBX 7 10 1 0
BITMAP
08
10
46
44
44
84
8C
88
98
68
ENDCHAR

STARTCHAR char251
ENCODING 251
SWIDTH 49 0
DWIDTH 8 0
BBX 7 10 1 0
BITMAP
38
20
46
44
44
84
8C
88
98
68
ENDCHAR

STARTCHAR char252
ENCODING 252
SWIDTH 49 0
DWIDTH 8 0
BBX 7 10 1 0
BITMAP
24
28
46
44
84
84
8C
8C
98
68
ENDCHAR

STARTCHAR char255
ENCODING 255
SWIDTH 43 0
DWIDTH 7 0
BBX 7 12 0 -2
BITMAP
24
04
42
46
44
4C
68
38
30
30
20
C0
ENDCHAR

ENDFONT
