STARTFONT 2.1
FONT -sun-timmons-bold-i-normal--12-120-75-75-p-67-adobe-fontspecific
SIZE 12 75 75
FONTBOUNDINGBOX 17 15 -3 -3

STARTPROPERTIES 28
FOUNDRY "sun"
FAMILY_NAME "timmons"
WEIGHT_NAME "bold"
SLANT "i"
SETWIDTH_NAME "normal"
ADD_STYLE_NAME ""
PIXEL_SIZE 12
POINT_SIZE 120
RESOLUTION_X 75
RESOLUTION_Y 75
SPACING "p"
AVERAGE_WIDTH 67
CHARSET_REGISTRY "adobe"
CHARSET_ENCODING "fontspecific"
COPYRIGHT "© 1999 Sun Microsystems, Inc."
RAW_PIXELSIZE 1000
RAW_POINTSIZE 964
RAW_ASCENT 932
RAW_DESCENT 200
RAW_AVERAGE_WIDTH 5346
FACE_NAME "TimmonsBoldItalicdensedN5"
_XMBDFED_INFO "Edited with xmbdfed 2.4."
WEIGHT 10
X_HEIGHT -1
QUAD_WIDTH 7
DEFAULT_CHAR 4
FONT_DESCENT 3
FONT_ASCENT 12
ENDPROPERTIES

CHARS 206

STARTCHAR char32
ENCODING 32
SWIDTH 28 0
DWIDTH 4 0
BBX 0 0 0 0
BITMAP
ENDCHAR

STARTCHAR char33
ENCODING 33
SWIDTH 28 0
DWIDTH 4 0
BBX 4 9 1 0
BITMAP
10
30
30
20
20
40
40
C0
C0
ENDCHAR

STARTCHAR char34
ENCODING 34
SWIDTH 43 0
DWIDTH 6 0
BBX 5 4 2 5
BITMAP
D8
D8
90
90
ENDCHAR

STARTCHAR char35
ENCODING 35
SWIDTH 50 0
DWIDTH 7 0
BBX 6 9 0 0
BITMAP
28
28
3C
28
28
38
C8
48
50
ENDCHAR

STARTCHAR char36
ENCODING 36
SWIDTH 50 0
DWIDTH 7 0
BBX 7 11 0 -1
BITMAP
08
3C
6A
6A
78
38
1C
9C
AC
F8
20
ENDCHAR

STARTCHAR char37
ENCODING 37
SWIDTH 71 0
DWIDTH 10 0
BBX 9 9 1 0
BITMAP
3200
5A00
DC00
FF00
FF80
7D80
1D80
2D00
2E00
ENDCHAR

STARTCHAR char38
ENCODING 38
SWIDTH 71 0
DWIDTH 10 0
BBX 9 9 1 0
BITMAP
1E00
3600
3400
3800
7F00
FA00
DC00
DC80
7700
ENDCHAR

STARTCHAR char39
ENCODING 39
SWIDTH 21 0
DWIDTH 3 0
BBX 3 4 2 5
BITMAP
60
80
C0
C0
ENDCHAR

STARTCHAR char40
ENCODING 40
SWIDTH 35 0
DWIDTH 5 0
BBX 6 11 1 -2
BITMAP
08
10
20
60
E0
C0
C0
C0
C0
40
20
ENDCHAR

STARTCHAR char41
ENCODING 41
SWIDTH 35 0
DWIDTH 5 0
BBX 5 11 -1 -2
BITMAP
10
18
18
18
18
18
18
10
20
40
80
ENDCHAR

STARTCHAR char42
ENCODING 42
SWIDTH 43 0
DWIDTH 6 0
BBX 5 5 2 4
BITMAP
30
E0
38
70
10
ENDCHAR

STARTCHAR char43
ENCODING 43
SWIDTH 64 0
DWIDTH 9 0
BBX 7 7 1 0
BITMAP
18
18
18
FE
18
18
18
ENDCHAR

STARTCHAR char44
ENCODING 44
SWIDTH 21 0
DWIDTH 3 0
BBX 3 4 0 -2
BITMAP
60
60
40
80
ENDCHAR

STARTCHAR char45
ENCODING 45
SWIDTH 35 0
DWIDTH 5 0
BBX 4 1 1 3
BITMAP
F0
ENDCHAR

STARTCHAR char46
ENCODING 46
SWIDTH 21 0
DWIDTH 3 0
BBX 2 2 1 0
BITMAP
C0
C0
ENDCHAR

STARTCHAR char47
ENCODING 47
SWIDTH 35 0
DWIDTH 5 0
BBX 5 9 1 0
BITMAP
08
10
10
30
20
20
40
40
80
ENDCHAR

STARTCHAR char48
ENCODING 48
SWIDTH 43 0
DWIDTH 6 0
BBX 6 9 1 0
BITMAP
18
2C
6C
CC
CC
C8
98
90
60
ENDCHAR

STARTCHAR char49
ENCODING 49
SWIDTH 43 0
DWIDTH 6 0
BBX 5 9 1 0
BITMAP
18
10
10
30
30
20
60
60
E0
ENDCHAR

STARTCHAR char50
ENCODING 50
SWIDTH 43 0
DWIDTH 6 0
BBX 6 9 0 0
BITMAP
18
2C
0C
0C
08
10
20
28
70
ENDCHAR

STARTCHAR char51
ENCODING 51
SWIDTH 43 0
DWIDTH 6 0
BBX 5 9 1 0
BITMAP
38
58
18
10
38
18
18
10
F0
ENDCHAR

STARTCHAR char52
ENCODING 52
SWIDTH 43 0
DWIDTH 6 0
BBX 6 9 1 0
BITMAP
0C
18
38
38
50
90
F8
30
20
ENDCHAR

STARTCHAR char53
ENCODING 53
SWIDTH 43 0
DWIDTH 6 0
BBX 6 9 1 0
BITMAP
38
38
40
70
18
18
18
10
E0
ENDCHAR

STARTCHAR char54
ENCODING 54
SWIDTH 43 0
DWIDTH 6 0
BBX 6 9 1 0
BITMAP
18
30
60
70
D8
D8
98
90
70
ENDCHAR

STARTCHAR char55
ENCODING 55
SWIDTH 43 0
DWIDTH 6 0
BBX 5 9 2 0
BITMAP
F8
F8
90
10
20
20
40
80
80
ENDCHAR

STARTCHAR char56
ENCODING 56
SWIDTH 43 0
DWIDTH 6 0
BBX 7 9 0 0
BITMAP
1C
36
76
34
38
6C
CC
CC
78
ENDCHAR

STARTCHAR char57
ENCODING 57
SWIDTH 43 0
DWIDTH 6 0
BBX 6 9 1 0
BITMAP
38
6C
CC
CC
CC
78
18
30
C0
ENDCHAR

STARTCHAR char58
ENCODING 58
SWIDTH 28 0
DWIDTH 4 0
BBX 3 6 1 0
BITMAP
60
60
00
00
C0
C0
ENDCHAR

STARTCHAR char59
ENCODING 59
SWIDTH 28 0
DWIDTH 4 0
BBX 4 8 0 -2
BITMAP
30
30
00
00
60
60
60
80
ENDCHAR

STARTCHAR char60
ENCODING 60
SWIDTH 50 0
DWIDTH 7 0
BBX 7 6 0 0
BITMAP
0C
30
C0
60
18
06
ENDCHAR

STARTCHAR char61
ENCODING 61
SWIDTH 64 0
DWIDTH 9 0
BBX 9 3 0 2
BITMAP
FF80
0000
FF80
ENDCHAR

STARTCHAR char62
ENCODING 62
SWIDTH 50 0
DWIDTH 7 0
BBX 7 6 0 0
BITMAP
E0
18
06
0C
30
C0
ENDCHAR

STARTCHAR char63
ENCODING 63
SWIDTH 43 0
DWIDTH 6 0
BBX 5 9 2 0
BITMAP
70
58
58
30
20
40
40
C0
C0
ENDCHAR

STARTCHAR char64
ENCODING 64
SWIDTH 27 0
DWIDTH 14 0
BBX 10 9 1 0
BITMAP
1F00
2080
7FC0
F3C0
F2C0
F2C0
7F00
2080
1F00
ENDCHAR

STARTCHAR char65
ENCODING 65
SWIDTH 64 0
DWIDTH 9 0
BBX 8 9 0 0
BITMAP
02
02
06
0E
0E
1E
26
46
CF
ENDCHAR

STARTCHAR char66
ENCODING 66
SWIDTH 57 0
DWIDTH 8 0
BBX 8 9 0 0
BITMAP
3E
1B
33
36
3C
26
66
66
FC
ENDCHAR

STARTCHAR char67
ENCODING 67
SWIDTH 64 0
DWIDTH 9 0
BBX 9 9 1 0
BITMAP
0F80
3080
6080
E000
C000
C000
C000
6200
3C00
ENDCHAR

STARTCHAR char68
ENCODING 68
SWIDTH 64 0
DWIDTH 9 0
BBX 9 9 0 0
BITMAP
3E00
1B00
3180
3180
3180
2180
6300
6600
FC00
ENDCHAR

STARTCHAR char69
ENCODING 69
SWIDTH 57 0
DWIDTH 8 0
BBX 9 9 0 0
BITMAP
3F80
1900
3000
3200
3C00
3200
6000
6200
FE00
ENDCHAR

STARTCHAR char70
ENCODING 70
SWIDTH 50 0
DWIDTH 7 0
BBX 8 9 0 0
BITMAP
1F
19
10
34
3C
34
60
60
E0
ENDCHAR

STARTCHAR char71
ENCODING 71
SWIDTH 71 0
DWIDTH 10 0
BBX 9 9 1 0
BITMAP
0F80
3080
6080
E000
C780
C300
C200
6600
3E00
ENDCHAR

STARTCHAR char72
ENCODING 72
SWIDTH 71 0
DWIDTH 10 0
BBX 11 9 0 0
BITMAP
39C0
18C0
3180
3180
3F80
6100
6300
6300
F700
ENDCHAR

STARTCHAR char73
ENCODING 73
SWIDTH 35 0
DWIDTH 5 0
BBX 6 9 0 0
BITMAP
3C
18
18
30
30
30
60
60
A0
ENDCHAR

STARTCHAR char74
ENCODING 74
SWIDTH 43 0
DWIDTH 6 0
BBX 7 9 0 0
BITMAP
1E
0C
0C
18
18
18
10
F0
E0
ENDCHAR

STARTCHAR char75
ENCODING 75
SWIDTH 57 0
DWIDTH 8 0
BBX 10 9 0 0
BITMAP
3BC0
1B00
3400
3800
3C00
2C00
6C00
6600
EF00
ENDCHAR

STARTCHAR char76
ENCODING 76
SWIDTH 57 0
DWIDTH 8 0
BBX 7 9 0 0
BITMAP
3C
18
30
30
30
30
62
62
FE
ENDCHAR

STARTCHAR char77
ENCODING 77
SWIDTH 13 0
DWIDTH 12 0
BBX 14 9 -1 0
BITMAP
1C18
0C30
1C70
1CB0
1CB0
2560
2660
2460
E5E0
ENDCHAR

STARTCHAR char78
ENCODING 78
SWIDTH 64 0
DWIDTH 9 0
BBX 11 9 0 0
BITMAP
38C0
1880
2C80
2C80
2680
2700
4700
4200
C200
ENDCHAR

STARTCHAR char79
ENCODING 79
SWIDTH 71 0
DWIDTH 10 0
BBX 9 9 1 0
BITMAP
0F00
3180
6180
6180
C180
C300
C300
C600
7C00
ENDCHAR

STARTCHAR char80
ENCODING 80
SWIDTH 57 0
DWIDTH 8 0
BBX 8 9 0 0
BITMAP
3E
1B
33
33
3E
30
60
60
E0
ENDCHAR

STARTCHAR char81
ENCODING 81
SWIDTH 71 0
DWIDTH 10 0
BBX 9 11 1 -2
BITMAP
0F00
3180
6180
6180
C180
C300
C300
C600
7800
3180
7E00
ENDCHAR

STARTCHAR char82
ENCODING 82
SWIDTH 57 0
DWIDTH 8 0
BBX 8 9 0 0
BITMAP
3E
1B
33
32
3C
2C
6C
64
E6
ENDCHAR

STARTCHAR char83
ENCODING 83
SWIDTH 50 0
DWIDTH 7 0
BBX 8 9 0 0
BITMAP
1F
31
31
38
1C
0E
46
C6
FC
ENDCHAR

STARTCHAR char84
ENCODING 84
SWIDTH 50 0
DWIDTH 7 0
BBX 8 9 1 0
BITMAP
7E
5A
10
30
30
30
60
60
60
ENDCHAR

STARTCHAR char85
ENCODING 85
SWIDTH 64 0
DWIDTH 9 0
BBX 10 9 1 0
BITMAP
7D80
7100
6100
6100
6100
E200
C200
C400
7800
ENDCHAR

STARTCHAR char86
ENCODING 86
SWIDTH 57 0
DWIDTH 8 0
BBX 8 9 2 0
BITMAP
E6
E2
C4
C8
D0
E0
E0
C0
80
ENDCHAR

STARTCHAR char87
ENCODING 87
SWIDTH 13 0
DWIDTH 12 0
BBX 12 9 2 0
BITMAP
EE60
4640
4C40
DC80
DD00
EE00
CC00
CC00
8800
ENDCHAR

STARTCHAR char88
ENCODING 88
SWIDTH 64 0
DWIDTH 9 0
BBX 10 9 0 0
BITMAP
39C0
1900
1A00
0C00
0C00
1C00
2400
4600
CE00
ENDCHAR

STARTCHAR char89
ENCODING 89
SWIDTH 57 0
DWIDTH 8 0
BBX 8 9 2 0
BITMAP
F3
62
64
28
30
30
20
60
E0
ENDCHAR

STARTCHAR char90
ENCODING 90
SWIDTH 57 0
DWIDTH 8 0
BBX 9 9 0 0
BITMAP
3F80
2300
0600
0E00
1C00
3800
7100
E200
FE00
ENDCHAR

STARTCHAR char91
ENCODING 91
SWIDTH 28 0
DWIDTH 4 0
BBX 6 12 0 -2
BITMAP
1C
10
30
30
20
60
60
60
40
C0
C0
60
ENDCHAR

STARTCHAR char92
ENCODING 92
SWIDTH 28 0
DWIDTH 4 0
BBX 4 9 0 0
BITMAP
80
80
40
40
40
20
20
20
20
ENDCHAR

STARTCHAR char93
ENCODING 93
SWIDTH 28 0
DWIDTH 4 0
BBX 6 11 -1 -2
BITMAP
0C
0C
08
18
18
10
30
30
30
60
60
ENDCHAR

STARTCHAR char94
ENCODING 94
SWIDTH 0 0
DWIDTH 0 0
BBX 4 2 0 9
BITMAP
70
D0
ENDCHAR

STARTCHAR char95
ENCODING 95
SWIDTH 50 0
DWIDTH 7 0
BBX 7 1 0 -2
BITMAP
FE
ENDCHAR

STARTCHAR char96
ENCODING 96
SWIDTH 0 0
DWIDTH 0 0
BBX 2 2 0 7
BITMAP
C0
40
ENDCHAR

STARTCHAR char97
ENCODING 97
SWIDTH 50 0
DWIDTH 7 0
BBX 7 6 0 0
BITMAP
3C
6C
EC
CC
DA
EC
ENDCHAR

STARTCHAR char98
ENCODING 98
SWIDTH 43 0
DWIDTH 6 0
BBX 6 9 0 0
BITMAP
30
30
30
38
2C
6C
6C
48
70
ENDCHAR

STARTCHAR char99
ENCODING 99
SWIDTH 35 0
DWIDTH 5 0
BBX 6 6 0 0
BITMAP
3C
6C
C0
C0
CC
F0
ENDCHAR

STARTCHAR char100
ENCODING 100
SWIDTH 50 0
DWIDTH 7 0
BBX 8 9 0 0
BITMAP
06
06
06
3E
6C
EC
CC
DA
EC
ENDCHAR

STARTCHAR char101
ENCODING 101
SWIDTH 43 0
DWIDTH 6 0
BBX 6 6 0 0
BITMAP
3C
6C
F8
C0
CC
70
ENDCHAR

STARTCHAR char102
ENCODING 102
SWIDTH 28 0
DWIDTH 4 0
BBX 9 11 -2 -2
BITMAP
0380
0400
0C00
1E00
0800
1800
1800
1000
1000
3000
E000
ENDCHAR

STARTCHAR char103
ENCODING 103
SWIDTH 43 0
DWIDTH 6 0
BBX 8 8 -1 -2
BITMAP
1C
3E
34
38
70
3C
CC
78
ENDCHAR

STARTCHAR char104
ENCODING 104
SWIDTH 50 0
DWIDTH 7 0
BBX 7 9 0 0
BITMAP
30
30
30
3C
74
64
6C
CE
4C
ENDCHAR

STARTCHAR char105
ENCODING 105
SWIDTH 28 0
DWIDTH 4 0
BBX 3 9 1 0
BITMAP
60
60
00
C0
40
C0
C0
A0
C0
ENDCHAR

STARTCHAR char106
ENCODING 106
SWIDTH 28 0
DWIDTH 4 0
BBX 6 11 -2 -2
BITMAP
04
04
00
1C
1C
18
18
18
30
30
E0
ENDCHAR

STARTCHAR char107
ENCODING 107
SWIDTH 50 0
DWIDTH 7 0
BBX 7 9 0 0
BITMAP
30
30
30
26
68
78
78
CA
4C
ENDCHAR

STARTCHAR char108
ENCODING 108
SWIDTH 28 0
DWIDTH 4 0
BBX 4 9 1 0
BITMAP
60
20
60
60
40
40
C0
A0
C0
ENDCHAR

STARTCHAR char109
ENCODING 109
SWIDTH 71 0
DWIDTH 10 0
BBX 10 6 0 0
BITMAP
6DC0
35C0
6E80
6D80
4DC0
4980
ENDCHAR

STARTCHAR char110
ENCODING 110
SWIDTH 50 0
DWIDTH 7 0
BBX 7 6 0 0
BITMAP
46
3E
64
6C
4E
4C
ENDCHAR

STARTCHAR char111
ENCODING 111
SWIDTH 43 0
DWIDTH 6 0
BBX 7 6 0 0
BITMAP
3C
66
E6
CE
CC
78
ENDCHAR

STARTCHAR char112
ENCODING 112
SWIDTH 43 0
DWIDTH 6 0
BBX 7 8 -1 -2
BITMAP
2E
36
36
36
24
78
60
E0
ENDCHAR

STARTCHAR char113
ENCODING 113
SWIDTH 43 0
DWIDTH 6 0
BBX 7 8 0 -2
BITMAP
3E
64
6C
CC
D8
F8
18
78
ENDCHAR

STARTCHAR char114
ENCODING 114
SWIDTH 35 0
DWIDTH 5 0
BBX 6 6 0 0
BITMAP
4C
3C
70
60
60
40
ENDCHAR

STARTCHAR char115
ENCODING 115
SWIDTH 35 0
DWIDTH 5 0
BBX 5 6 0 0
BITMAP
38
68
30
38
98
F0
ENDCHAR

STARTCHAR char116
ENCODING 116
SWIDTH 28 0
DWIDTH 4 0
BBX 4 8 1 0
BITMAP
20
20
F0
60
40
C0
E0
C0
ENDCHAR

STARTCHAR char117
ENCODING 117
SWIDTH 50 0
DWIDTH 7 0
BBX 7 6 0 0
BITMAP
46
66
6C
EC
DE
EC
ENDCHAR

STARTCHAR char118
ENCODING 118
SWIDTH 35 0
DWIDTH 5 0
BBX 6 6 0 0
BITMAP
EC
6C
2C
28
30
20
ENDCHAR

STARTCHAR char119
ENCODING 119
SWIDTH 57 0
DWIDTH 8 0
BBX 8 6 0 0
BITMAP
E7
6F
7D
6E
4C
48
ENDCHAR

STARTCHAR char120
ENCODING 120
SWIDTH 43 0
DWIDTH 6 0
BBX 7 6 0 0
BITMAP
76
38
30
10
3E
C8
ENDCHAR

STARTCHAR char121
ENCODING 121
SWIDTH 43 0
DWIDTH 6 0
BBX 7 8 -1 -2
BITMAP
76
32
32
34
38
30
E0
C0
ENDCHAR

STARTCHAR char122
ENCODING 122
SWIDTH 35 0
DWIDTH 5 0
BBX 6 7 0 -1
BITMAP
78
50
10
20
40
F8
30
ENDCHAR

STARTCHAR char123
ENCODING 123
SWIDTH 28 0
DWIDTH 4 0
BBX 3 12 1 -3
BITMAP
60
C0
C0
C0
C0
80
80
C0
C0
C0
C0
E0
ENDCHAR

STARTCHAR char124
ENCODING 124
SWIDTH 21 0
DWIDTH 3 0
BBX 2 9 1 0
BITMAP
C0
C0
C0
C0
C0
C0
C0
C0
C0
ENDCHAR

STARTCHAR char125
ENCODING 125
SWIDTH 28 0
DWIDTH 4 0
BBX 3 12 1 -3
BITMAP
80
C0
C0
C0
C0
60
C0
C0
C0
C0
C0
C0
ENDCHAR

STARTCHAR char126
ENCODING 126
SWIDTH 0 0
DWIDTH 0 0
BBX 5 1 0 10
BITMAP
78
ENDCHAR

STARTCHAR char128
ENCODING 128
SWIDTH 43 0
DWIDTH 6 0
BBX 8 9 0 0
BITMAP
0E
19
31
20
7C
F8
60
6C
70
ENDCHAR

STARTCHAR char130
ENCODING 130
SWIDTH 21 0
DWIDTH 3 0
BBX 3 4 0 -2
BITMAP
60
60
40
80
ENDCHAR

STARTCHAR char131
ENCODING 131
SWIDTH 0 0
DWIDTH 0 0
BBX 4 2 0 9
BITMAP
70
D0
ENDCHAR

STARTCHAR char132
ENCODING 132
SWIDTH 43 0
DWIDTH 6 0
BBX 5 4 0 -2
BITMAP
D8
D8
48
90
ENDCHAR

STARTCHAR char133
ENCODING 133
SWIDTH 20 0
DWIDTH 13 0
BBX 11 1 1 0
BITMAP
CC60
ENDCHAR

STARTCHAR char134
ENCODING 134
SWIDTH 43 0
DWIDTH 6 0
BBX 6 11 1 -2
BITMAP
18
18
10
7C
30
20
20
20
40
40
40
ENDCHAR

STARTCHAR char136
ENCODING 136
SWIDTH 0 0
DWIDTH 0 0
BBX 4 2 -1 7
BITMAP
30
50
ENDCHAR

STARTCHAR char137
ENCODING 137
SWIDTH 13 0
DWIDTH 12 0
BBX 0 0 0 0
BITMAP
ENDCHAR

STARTCHAR char138
ENCODING 138
SWIDTH 13 0
DWIDTH 12 0
BBX 0 0 0 0
BITMAP
ENDCHAR

STARTCHAR char139
ENCODING 139
SWIDTH 28 0
DWIDTH 4 0
BBX 2 5 1 1
BITMAP
40
40
80
40
40
ENDCHAR

STARTCHAR char140
ENCODING 140
SWIDTH 20 0
DWIDTH 13 0
BBX 12 9 1 0
BITMAP
0FF0
3310
6300
6320
C3C0
C640
C600
C620
7FC0
ENDCHAR

STARTCHAR char141
ENCODING 141
SWIDTH 13 0
DWIDTH 12 0
BBX 0 0 0 0
BITMAP
ENDCHAR

STARTCHAR char143
ENCODING 143
SWIDTH 13 0
DWIDTH 12 0
BBX 0 0 0 0
BITMAP
ENDCHAR

STARTCHAR char145
ENCODING 145
SWIDTH 21 0
DWIDTH 3 0
BBX 3 4 2 5
BITMAP
60
80
C0
C0
ENDCHAR

STARTCHAR char146
ENCODING 146
SWIDTH 21 0
DWIDTH 3 0
BBX 3 4 2 5
BITMAP
60
60
40
80
ENDCHAR

STARTCHAR char147
ENCODING 147
SWIDTH 43 0
DWIDTH 6 0
BBX 5 4 2 5
BITMAP
48
90
D8
48
ENDCHAR

STARTCHAR char148
ENCODING 148
SWIDTH 43 0
DWIDTH 6 0
BBX 5 4 2 5
BITMAP
D8
D8
90
90
ENDCHAR

STARTCHAR char149
ENCODING 149
SWIDTH 28 0
DWIDTH 4 0
BBX 3 3 1 3
BITMAP
E0
E0
E0
ENDCHAR

STARTCHAR char150
ENCODING 150
SWIDTH 43 0
DWIDTH 6 0
BBX 5 1 1 3
BITMAP
F8
ENDCHAR

STARTCHAR char151
ENCODING 151
SWIDTH 64 0
DWIDTH 9 0
BBX 9 1 0 3
BITMAP
FF80
ENDCHAR

STARTCHAR char152
ENCODING 152
SWIDTH 0 0
DWIDTH 0 0
BBX 5 2 -1 7
BITMAP
48
F0
ENDCHAR

STARTCHAR char153
ENCODING 153
SWIDTH 6 0
DWIDTH 11 0
BBX 11 5 0 3
BITMAP
FC60
46C0
46C0
47C0
6DC0
ENDCHAR

STARTCHAR char155
ENCODING 155
SWIDTH 28 0
DWIDTH 4 0
BBX 2 5 1 1
BITMAP
80
80
40
C0
80
ENDCHAR

STARTCHAR char156
ENCODING 156
SWIDTH 64 0
DWIDTH 9 0
BBX 9 6 0 0
BITMAP
3B80
6580
EF00
CC00
CD80
7E00
ENDCHAR

STARTCHAR char157
ENCODING 157
SWIDTH 13 0
DWIDTH 12 0
BBX 0 0 0 0
BITMAP
ENDCHAR

STARTCHAR char159
ENCODING 159
SWIDTH 57 0
DWIDTH 8 0
BBX 8 11 2 0
BITMAP
36
36
F3
62
74
38
30
30
30
70
F0
ENDCHAR

STARTCHAR char160
ENCODING 160
SWIDTH 28 0
DWIDTH 4 0
BBX 0 0 0 0
BITMAP
ENDCHAR

STARTCHAR char161
ENCODING 161
SWIDTH 28 0
DWIDTH 4 0
BBX 4 9 0 0
BITMAP
30
30
00
20
20
20
40
40
40
ENDCHAR

STARTCHAR char162
ENCODING 162
SWIDTH 35 0
DWIDTH 5 0
BBX 6 8 0 -1
BITMAP
08
3C
7C
D0
D0
EC
70
40
ENDCHAR

STARTCHAR char163
ENCODING 163
SWIDTH 57 0
DWIDTH 8 0
BBX 8 9 0 0
BITMAP
07
0F
08
18
3C
18
10
F9
FE
ENDCHAR

STARTCHAR char164
ENCODING 164
SWIDTH 0 0
DWIDTH 0 0
BBX 4 2 1 9
BITMAP
60
C0
ENDCHAR

STARTCHAR char165
ENCODING 165
SWIDTH 0 0
DWIDTH 0 0
BBX 4 2 1 9
BITMAP
B0
60
ENDCHAR

STARTCHAR char166
ENCODING 166
SWIDTH 13 0
DWIDTH 12 0
BBX 0 0 0 0
BITMAP
ENDCHAR

STARTCHAR char167
ENCODING 167
SWIDTH 43 0
DWIDTH 6 0
BBX 7 12 0 -2
BITMAP
0C
1E
18
18
38
6C
2C
3C
38
18
D8
F0
ENDCHAR

STARTCHAR char168
ENCODING 168
SWIDTH 0 0
DWIDTH 0 0
BBX 5 2 -1 7
BITMAP
D8
D8
ENDCHAR

STARTCHAR char169
ENCODING 169
SWIDTH 71 0
DWIDTH 10 0
BBX 10 8 0 0
BITMAP
1E00
6D00
D280
F0C0
F0C0
F280
7D00
1E00
ENDCHAR

STARTCHAR char170
ENCODING 170
SWIDTH 0 0
DWIDTH 0 0
BBX 5 2 0 9
BITMAP
D8
D8
ENDCHAR

STARTCHAR char171
ENCODING 171
SWIDTH 50 0
DWIDTH 7 0
BBX 6 5 1 1
BITMAP
28
48
90
90
50
ENDCHAR

STARTCHAR char172
ENCODING 172
SWIDTH 64 0
DWIDTH 9 0
BBX 9 4 0 0
BITMAP
FF80
0180
0180
0180
ENDCHAR

STARTCHAR char174
ENCODING 174
SWIDTH 71 0
DWIDTH 10 0
BBX 10 8 0 0
BITMAP
1E00
7D00
DE80
DEC0
DCC0
DC80
5900
3E00
ENDCHAR

STARTCHAR char175
ENCODING 175
SWIDTH 13 0
DWIDTH 12 0
BBX 0 0 0 0
BITMAP
ENDCHAR

STARTCHAR char176
ENCODING 176
SWIDTH 28 0
DWIDTH 4 0
BBX 5 5 1 4
BITMAP
20
58
D8
58
20
ENDCHAR

STARTCHAR char177
ENCODING 177
SWIDTH 50 0
DWIDTH 7 0
BBX 6 8 0 0
BITMAP
30
30
30
FC
30
30
30
FC
ENDCHAR

STARTCHAR char179
ENCODING 179
SWIDTH 13 0
DWIDTH 12 0
BBX 0 0 0 0
BITMAP
ENDCHAR

STARTCHAR char180
ENCODING 180
SWIDTH 0 0
DWIDTH 0 0
BBX 3 2 1 7
BITMAP
C0
80
ENDCHAR

STARTCHAR char182
ENCODING 182
SWIDTH 64 0
DWIDTH 9 0
BBX 6 11 1 -2
BITMAP
7C
EC
EC
EC
6C
6C
6C
6C
6C
6C
6C
ENDCHAR

STARTCHAR char183
ENCODING 183
SWIDTH 14 0
DWIDTH 2 0
BBX 2 2 1 3
BITMAP
C0
C0
ENDCHAR

STARTCHAR char184
ENCODING 184
SWIDTH 0 0
DWIDTH 0 0
BBX 3 3 -2 -3
BITMAP
40
60
E0
ENDCHAR

STARTCHAR char186
ENCODING 186
SWIDTH 0 0
DWIDTH 0 0
BBX 5 1 0 10
BITMAP
78
ENDCHAR

STARTCHAR char187
ENCODING 187
SWIDTH 50 0
DWIDTH 7 0
BBX 6 5 0 1
BITMAP
28
24
24
68
48
ENDCHAR

STARTCHAR char189
ENCODING 189
SWIDTH 13 0
DWIDTH 12 0
BBX 0 0 0 0
BITMAP
ENDCHAR

STARTCHAR char191
ENCODING 191
SWIDTH 43 0
DWIDTH 6 0
BBX 5 9 0 0
BITMAP
18
18
00
10
30
60
C0
D0
70
ENDCHAR

STARTCHAR char192
ENCODING 192
SWIDTH 64 0
DWIDTH 9 0
BBX 8 11 0 0
BITMAP
04
06
01
02
06
0E
0E
1E
26
46
CF
ENDCHAR

STARTCHAR char193
ENCODING 193
SWIDTH 64 0
DWIDTH 9 0
BBX 8 11 0 0
BITMAP
03
06
01
02
06
0E
0E
1E
26
46
CF
ENDCHAR

STARTCHAR char194
ENCODING 194
SWIDTH 64 0
DWIDTH 9 0
BBX 8 11 0 0
BITMAP
06
19
01
02
06
0E
0E
1E
26
46
CF
ENDCHAR

STARTCHAR char195
ENCODING 195
SWIDTH 64 0
DWIDTH 9 0
BBX 8 11 0 0
BITMAP
0F
00
02
02
06
0E
0E
1E
26
46
CF
ENDCHAR

STARTCHAR char196
ENCODING 196
SWIDTH 64 0
DWIDTH 9 0
BBX 10 11 0 0
BITMAP
06C0
06C0
0200
0200
0600
0E00
1600
1E00
2600
4600
CE00
ENDCHAR

STARTCHAR char197
ENCODING 197
SWIDTH 64 0
DWIDTH 9 0
BBX 9 12 0 0
BITMAP
0380
0380
0380
0100
0200
0600
0A00
0E00
1E00
2600
4600
CE00
ENDCHAR

STARTCHAR char198
ENCODING 198
SWIDTH 13 0
DWIDTH 12 0
BBX 13 9 -1 0
BITMAP
03F8
02C8
0380
0590
09E0
0F30
1300
2310
67F0
ENDCHAR

STARTCHAR char199
ENCODING 199
SWIDTH 64 0
DWIDTH 9 0
BBX 9 11 1 -2
BITMAP
0F80
3080
6080
E000
C000
C000
C000
6200
3C00
2000
3000
ENDCHAR

STARTCHAR char200
ENCODING 200
SWIDTH 57 0
DWIDTH 8 0
BBX 9 11 0 0
BITMAP
0C00
0400
3F80
1900
3000
3200
3C00
3200
6000
6200
FE00
ENDCHAR

STARTCHAR char201
ENCODING 201
SWIDTH 57 0
DWIDTH 8 0
BBX 9 11 0 0
BITMAP
0600
0400
3F80
1900
3000
3200
3C00
3200
6000
6200
FE00
ENDCHAR

STARTCHAR char202
ENCODING 202
SWIDTH 57 0
DWIDTH 8 0
BBX 9 11 0 0
BITMAP
0E00
1900
3F80
1900
3000
3200
3C00
3200
6000
6200
FE00
ENDCHAR

STARTCHAR char203
ENCODING 203
SWIDTH 57 0
DWIDTH 8 0
BBX 9 11 0 0
BITMAP
1B00
1B00
3F80
1900
3000
3200
3C00
2400
6000
6200
FE00
ENDCHAR

STARTCHAR char204
ENCODING 204
SWIDTH 35 0
DWIDTH 5 0
BBX 6 11 0 0
BITMAP
18
08
3C
18
18
30
30
30
60
60
A0
ENDCHAR

STARTCHAR char205
ENCODING 205
SWIDTH 35 0
DWIDTH 5 0
BBX 6 11 0 0
BITMAP
0C
18
3C
18
18
30
30
30
60
60
A0
ENDCHAR

STARTCHAR char206
ENCODING 206
SWIDTH 35 0
DWIDTH 5 0
BBX 6 11 0 0
BITMAP
1C
34
3C
18
18
30
30
30
60
60
A0
ENDCHAR

STARTCHAR char207
ENCODING 207
SWIDTH 35 0
DWIDTH 5 0
BBX 7 11 0 0
BITMAP
36
36
3C
18
18
30
30
30
70
60
B0
ENDCHAR

STARTCHAR char209
ENCODING 209
SWIDTH 64 0
DWIDTH 9 0
BBX 11 11 0 0
BITMAP
0700
0000
38C0
1880
2C80
2C80
2680
2700
4700
4200
C200
ENDCHAR

STARTCHAR char210
ENCODING 210
SWIDTH 71 0
DWIDTH 10 0
BBX 9 11 1 0
BITMAP
0C00
0400
0F00
3180
6180
6180
C180
C300
C300
C600
7C00
ENDCHAR

STARTCHAR char211
ENCODING 211
SWIDTH 71 0
DWIDTH 10 0
BBX 9 11 1 0
BITMAP
0600
0400
0F00
3180
6180
6180
C180
C300
C300
C600
7C00
ENDCHAR

STARTCHAR char212
ENCODING 212
SWIDTH 71 0
DWIDTH 10 0
BBX 9 11 1 0
BITMAP
0E00
1900
0F00
3180
6180
6180
C180
C300
C300
C600
7C00
ENDCHAR

STARTCHAR char213
ENCODING 213
SWIDTH 71 0
DWIDTH 10 0
BBX 9 11 1 0
BITMAP
0F00
0000
0F00
3180
6180
6180
C180
C300
C300
C600
7C00
ENDCHAR

STARTCHAR char214
ENCODING 214
SWIDTH 71 0
DWIDTH 10 0
BBX 9 11 1 0
BITMAP
0D80
0D80
0F00
3180
6180
6180
C180
C300
C300
C600
7C00
ENDCHAR

STARTCHAR char216
ENCODING 216
SWIDTH 71 0
DWIDTH 10 0
BBX 9 10 1 -1
BITMAP
0F80
3100
6380
6580
EB80
D300
E300
C600
F800
8000
ENDCHAR

STARTCHAR char217
ENCODING 217
SWIDTH 64 0
DWIDTH 9 0
BBX 10 11 1 0
BITMAP
0C00
0400
7980
7100
6100
6100
6100
E200
C200
C400
7800
ENDCHAR

STARTCHAR char218
ENCODING 218
SWIDTH 64 0
DWIDTH 9 0
BBX 10 11 1 0
BITMAP
0600
0C00
7980
7100
6100
6100
6100
E200
C200
C400
7800
ENDCHAR

STARTCHAR char219
ENCODING 219
SWIDTH 64 0
DWIDTH 9 0
BBX 10 11 1 0
BITMAP
0E00
1A00
7980
7100
6100
6100
6100
E200
C200
C400
7800
ENDCHAR

STARTCHAR char220
ENCODING 220
SWIDTH 64 0
DWIDTH 9 0
BBX 10 11 1 0
BITMAP
1980
1980
7980
7080
6080
6100
6100
E300
C200
C400
7800
ENDCHAR

STARTCHAR char221
ENCODING 221
SWIDTH 13 0
DWIDTH 12 0
BBX 0 0 0 0
BITMAP
ENDCHAR

STARTCHAR char222
ENCODING 222
SWIDTH 13 0
DWIDTH 12 0
BBX 0 0 0 0
BITMAP
ENDCHAR

STARTCHAR char223
ENCODING 223
SWIDTH 50 0
DWIDTH 7 0
BBX 10 12 -3 -2
BITMAP
01C0
03C0
0640
06C0
0580
0CC0
0CC0
08C0
1980
1F00
1000
E000
ENDCHAR

STARTCHAR char224
ENCODING 224
SWIDTH 50 0
DWIDTH 7 0
BBX 7 9 0 0
BITMAP
18
08
00
3C
6C
EC
CC
DA
EC
ENDCHAR

STARTCHAR char225
ENCODING 225
SWIDTH 50 0
DWIDTH 7 0
BBX 7 9 0 0
BITMAP
0C
08
00
3C
6C
EC
CC
DA
EC
ENDCHAR

STARTCHAR char226
ENCODING 226
SWIDTH 50 0
DWIDTH 7 0
BBX 7 9 0 0
BITMAP
18
34
00
3C
6C
EC
CC
DA
EC
ENDCHAR

STARTCHAR char227
ENCODING 227
SWIDTH 50 0
DWIDTH 7 0
BBX 7 9 0 0
BITMAP
12
3C
00
3E
64
EC
CC
DA
EC
ENDCHAR

STARTCHAR char228
ENCODING 228
SWIDTH 50 0
DWIDTH 7 0
BBX 7 9 0 0
BITMAP
1E
1E
00
3C
64
EC
CC
DA
EC
ENDCHAR

STARTCHAR char229
ENCODING 229
SWIDTH 50 0
DWIDTH 7 0
BBX 8 9 0 0
BITMAP
1E
1E
00
3E
6C
FC
DC
DB
EC
ENDCHAR

STARTCHAR char230
ENCODING 230
SWIDTH 57 0
DWIDTH 8 0
BBX 9 6 0 0
BITMAP
3B80
6D80
3F00
5800
D980
EE00
ENDCHAR

STARTCHAR char231
ENCODING 231
SWIDTH 35 0
DWIDTH 5 0
BBX 5 8 1 -2
BITMAP
38
58
C0
C0
D8
60
40
40
ENDCHAR

STARTCHAR char232
ENCODING 232
SWIDTH 43 0
DWIDTH 6 0
BBX 6 9 0 0
BITMAP
30
10
00
3C
6C
F8
C0
CC
70
ENDCHAR

STARTCHAR char233
ENCODING 233
SWIDTH 43 0
DWIDTH 6 0
BBX 6 9 0 0
BITMAP
08
10
00
3C
6C
F8
C0
CC
70
ENDCHAR

STARTCHAR char234
ENCODING 234
SWIDTH 43 0
DWIDTH 6 0
BBX 6 9 0 0
BITMAP
18
28
00
3C
6C
F8
C0
CC
70
ENDCHAR

STARTCHAR char235
ENCODING 235
SWIDTH 43 0
DWIDTH 6 0
BBX 5 9 1 0
BITMAP
78
78
00
38
58
F0
C0
D8
E0
ENDCHAR

STARTCHAR char236
ENCODING 236
SWIDTH 28 0
DWIDTH 4 0
BBX 3 9 1 0
BITMAP
40
20
00
E0
40
40
C0
E0
C0
ENDCHAR

STARTCHAR char237
ENCODING 237
SWIDTH 28 0
DWIDTH 4 0
BBX 4 9 1 0
BITMAP
30
20
00
E0
40
40
C0
E0
C0
ENDCHAR

STARTCHAR char238
ENCODING 238
SWIDTH 28 0
DWIDTH 4 0
BBX 4 9 1 0
BITMAP
60
90
00
E0
60
40
C0
E0
C0
ENDCHAR

STARTCHAR char239
ENCODING 239
SWIDTH 28 0
DWIDTH 4 0
BBX 4 9 1 0
BITMAP
F0
F0
00
E0
40
C0
C0
E0
C0
ENDCHAR

STARTCHAR char241
ENCODING 241
SWIDTH 50 0
DWIDTH 7 0
BBX 7 9 0 0
BITMAP
1E
24
00
76
3E
64
6C
4E
4C
ENDCHAR

STARTCHAR char242
ENCODING 242
SWIDTH 43 0
DWIDTH 6 0
BBX 7 9 0 0
BITMAP
18
08
00
3C
66
E6
CE
CC
78
ENDCHAR

STARTCHAR char243
ENCODING 243
SWIDTH 43 0
DWIDTH 6 0
BBX 7 9 0 0
BITMAP
0C
08
00
3C
66
E6
CE
CC
78
ENDCHAR

STARTCHAR char244
ENCODING 244
SWIDTH 43 0
DWIDTH 6 0
BBX 7 9 0 0
BITMAP
1C
24
00
3C
66
E6
CE
CC
78
ENDCHAR

STARTCHAR char245
ENCODING 245
SWIDTH 43 0
DWIDTH 6 0
BBX 7 9 0 0
BITMAP
3E
6C
00
3C
66
E6
CE
CC
78
ENDCHAR

STARTCHAR char246
ENCODING 246
SWIDTH 43 0
DWIDTH 6 0
BBX 7 9 0 0
BITMAP
1E
1E
00
3C
64
E4
C4
CC
78
ENDCHAR

STARTCHAR char247
ENCODING 247
SWIDTH 50 0
DWIDTH 7 0
BBX 6 4 0 1
BITMAP
30
FC
00
30
ENDCHAR

STARTCHAR char248
ENCODING 248
SWIDTH 43 0
DWIDTH 6 0
BBX 7 8 0 -1
BITMAP
04
3C
6C
74
7C
48
70
80
ENDCHAR

STARTCHAR char249
ENCODING 249
SWIDTH 50 0
DWIDTH 7 0
BBX 7 9 0 0
BITMAP
18
08
00
76
66
6C
EC
DE
EC
ENDCHAR

STARTCHAR char250
ENCODING 250
SWIDTH 50 0
DWIDTH 7 0
BBX 7 9 0 0
BITMAP
0C
08
00
76
66
6C
EC
DE
EC
ENDCHAR

STARTCHAR char251
ENCODING 251
SWIDTH 50 0
DWIDTH 7 0
BBX 7 9 0 0
BITMAP
0C
34
00
76
66
6C
EC
DE
EC
ENDCHAR

STARTCHAR char252
ENCODING 252
SWIDTH 50 0
DWIDTH 7 0
BBX 7 9 0 0
BITMAP
1E
1A
00
76
76
6C
EC
DE
EC
ENDCHAR

STARTCHAR char255
ENCODING 255
SWIDTH 43 0
DWIDTH 6 0
BBX 7 11 -1 -2
BITMAP
1E
1E
00
76
32
32
34
38
30
E0
C0
ENDCHAR

ENDFONT
