STARTFONT 2.1
FONT -sun-timmons-medium-i-normal--14-140-75-75-p-73-adobe-fontspecific
SIZE 14 75 75
FONTBOUNDINGBOX 18 17 -3 -3

STARTPROPERTIES 28
FOUNDRY "sun"
FAMILY_NAME "timmons"
WEIGHT_NAME "medium"
SLANT "i"
SETWIDTH_NAME "normal"
ADD_STYLE_NAME ""
PIXEL_SIZE 15
POINT_SIZE 140
RESOLUTION_X 75
RESOLUTION_Y 75
SPACING "p"
AVERAGE_WIDTH 73
CHARSET_REGISTRY "adobe"
CHARSET_ENCODING "fontspecific"
COPYRIGHT "© 1999 Sun Microsystems, Inc."
RAW_PIXELSIZE 1000
RAW_POINTSIZE 964
RAW_ASCENT 924
RAW_DESCENT 196
RAW_AVERAGE_WIDTH 5015
FACE_NAME "TimmonsItalicnsB5"
_XMBDFED_INFO "Edited with xmbdfed 2.4."
WEIGHT 10
X_HEIGHT -1
QUAD_WIDTH 8
DEFAULT_CHAR 4
FONT_DESCENT 3
FONT_ASCENT 14
ENDPROPERTIES

CHARS 214

STARTCHAR char32
ENCODING 32
SWIDTH 24 0
DWIDTH 4 0
BBX 0 0 0 0
BITMAP
ENDCHAR

STARTCHAR char33
ENCODING 33
SWIDTH 24 0
DWIDTH 4 0
BBX 4 10 1 0
BITMAP
30
30
20
20
20
40
40
40
80
80
ENDCHAR

STARTCHAR char34
ENCODING 34
SWIDTH 30 0
DWIDTH 5 0
BBX 4 3 2 7
BITMAP
50
50
A0
ENDCHAR

STARTCHAR char35
ENCODING 35
SWIDTH 43 0
DWIDTH 7 0
BBX 7 11 0 0
BITMAP
24
24
24
FE
28
28
48
FC
48
48
48
ENDCHAR

STARTCHAR char36
ENCODING 36
SWIDTH 43 0
DWIDTH 7 0
BBX 8 14 0 -2
BITMAP
04
04
1E
26
2A
38
18
08
14
94
94
78
20
20
ENDCHAR

STARTCHAR char37
ENCODING 37
SWIDTH 61 0
DWIDTH 10 0
BBX 9 10 1 0
BITMAP
7200
9200
9200
9500
AA80
EA80
1480
1480
2480
2700
ENDCHAR

STARTCHAR char38
ENCODING 38
SWIDTH 55 0
DWIDTH 9 0
BBX 8 10 0 0
BITMAP
06
0A
0A
0C
3B
4B
8A
86
CC
73
ENDCHAR

STARTCHAR char39
ENCODING 39
SWIDTH 18 0
DWIDTH 3 0
BBX 2 3 3 7
BITMAP
80
80
80
ENDCHAR

STARTCHAR char40
ENCODING 40
SWIDTH 30 0
DWIDTH 5 0
BBX 6 13 1 -2
BITMAP
04
18
30
20
40
40
C0
80
80
80
80
40
40
ENDCHAR

STARTCHAR char41
ENCODING 41
SWIDTH 30 0
DWIDTH 5 0
BBX 5 13 -1 -2
BITMAP
10
08
08
08
08
08
08
08
18
10
20
40
80
ENDCHAR

STARTCHAR char42
ENCODING 42
SWIDTH 36 0
DWIDTH 6 0
BBX 5 5 2 5
BITMAP
20
F8
20
F8
20
ENDCHAR

STARTCHAR char43
ENCODING 43
SWIDTH 55 0
DWIDTH 9 0
BBX 8 9 1 0
BITMAP
10
10
10
10
FF
10
10
10
10
ENDCHAR

STARTCHAR char44
ENCODING 44
SWIDTH 18 0
DWIDTH 3 0
BBX 2 4 0 -2
BITMAP
40
40
40
80
ENDCHAR

STARTCHAR char45
ENCODING 45
SWIDTH 24 0
DWIDTH 4 0
BBX 4 1 0 3
BITMAP
70
ENDCHAR

STARTCHAR char46
ENCODING 46
SWIDTH 18 0
DWIDTH 3 0
BBX 1 2 1 0
BITMAP
80
80
ENDCHAR

STARTCHAR char47
ENCODING 47
SWIDTH 30 0
DWIDTH 5 0
BBX 5 10 0 0
BITMAP
08
08
10
10
20
20
20
40
40
80
ENDCHAR

STARTCHAR char48
ENCODING 48
SWIDTH 36 0
DWIDTH 6 0
BBX 6 10 1 0
BITMAP
38
44
44
84
84
8C
88
88
90
60
ENDCHAR

STARTCHAR char49
ENCODING 49
SWIDTH 36 0
DWIDTH 6 0
BBX 6 10 0 0
BITMAP
1C
08
08
08
10
10
10
30
20
F0
ENDCHAR

STARTCHAR char50
ENCODING 50
SWIDTH 36 0
DWIDTH 6 0
BBX 7 10 -1 0
BITMAP
0C
12
02
02
04
04
08
10
24
78
ENDCHAR

STARTCHAR char51
ENCODING 51
SWIDTH 36 0
DWIDTH 6 0
BBX 7 10 0 0
BITMAP
1C
06
04
08
18
08
08
08
10
E0
ENDCHAR

STARTCHAR char52
ENCODING 52
SWIDTH 36 0
DWIDTH 6 0
BBX 7 10 0 0
BITMAP
06
06
1C
14
2C
48
FC
08
18
10
ENDCHAR

STARTCHAR char53
ENCODING 53
SWIDTH 36 0
DWIDTH 6 0
BBX 7 10 0 0
BITMAP
1E
10
30
38
0C
04
04
04
18
E0
ENDCHAR

STARTCHAR char54
ENCODING 54
SWIDTH 36 0
DWIDTH 6 0
BBX 6 10 1 0
BITMAP
08
30
60
70
C8
88
88
88
90
60
ENDCHAR

STARTCHAR char55
ENCODING 55
SWIDTH 36 0
DWIDTH 6 0
BBX 7 10 1 0
BITMAP
7C
44
08
08
10
10
20
20
40
40
ENDCHAR

STARTCHAR char56
ENCODING 56
SWIDTH 36 0
DWIDTH 6 0
BBX 7 10 0 0
BITMAP
1E
22
22
34
18
6C
84
84
84
78
ENDCHAR

STARTCHAR char57
ENCODING 57
SWIDTH 36 0
DWIDTH 6 0
BBX 7 10 0 0
BITMAP
1C
22
42
42
46
64
3C
08
30
40
ENDCHAR

STARTCHAR char58
ENCODING 58
SWIDTH 24 0
DWIDTH 4 0
BBX 3 7 1 0
BITMAP
20
20
00
00
00
C0
C0
ENDCHAR

STARTCHAR char59
ENCODING 59
SWIDTH 24 0
DWIDTH 4 0
BBX 3 9 1 -2
BITMAP
20
20
00
00
00
80
80
80
80
ENDCHAR

STARTCHAR char60
ENCODING 60
SWIDTH 49 0
DWIDTH 8 0
BBX 7 7 0 0
BITMAP
06
18
60
C0
30
0C
02
ENDCHAR

STARTCHAR char61
ENCODING 61
SWIDTH 55 0
DWIDTH 9 0
BBX 10 4 0 2
BITMAP
FFC0
0000
0000
FFC0
ENDCHAR

STARTCHAR char62
ENCODING 62
SWIDTH 49 0
DWIDTH 8 0
BBX 7 7 0 0
BITMAP
C0
30
0E
02
0C
70
80
ENDCHAR

STARTCHAR char63
ENCODING 63
SWIDTH 36 0
DWIDTH 6 0
BBX 5 10 2 0
BITMAP
78
48
18
10
20
40
40
40
C0
C0
ENDCHAR

STARTCHAR char64
ENCODING 64
SWIDTH 36 0
DWIDTH 16 0
BBX 11 11 2 0
BITMAP
0F00
3180
4040
4FA0
9120
A120
A340
B240
5F80
20C0
1F00
ENDCHAR

STARTCHAR char65
ENCODING 65
SWIDTH 55 0
DWIDTH 9 0
BBX 8 10 0 0
BITMAP
01
03
06
0A
12
12
3E
42
46
8E
ENDCHAR

STARTCHAR char66
ENCODING 66
SWIDTH 49 0
DWIDTH 8 0
BBX 9 10 -1 0
BITMAP
1F00
0880
1880
1900
1E00
3300
3100
2100
2300
FE00
ENDCHAR

STARTCHAR char67
ENCODING 67
SWIDTH 55 0
DWIDTH 9 0
BBX 9 10 1 0
BITMAP
1F80
3080
6080
C000
8000
8000
8000
8100
4300
3C00
ENDCHAR

STARTCHAR char68
ENCODING 68
SWIDTH 61 0
DWIDTH 10 0
BBX 10 10 -1 0
BITMAP
0F00
0880
1840
1040
1040
3040
30C0
2080
2300
7C00
ENDCHAR

STARTCHAR char69
ENCODING 69
SWIDTH 49 0
DWIDTH 8 0
BBX 8 10 1 0
BITMAP
7F
21
60
64
78
48
C8
82
84
FC
ENDCHAR

STARTCHAR char70
ENCODING 70
SWIDTH 43 0
DWIDTH 7 0
BBX 10 10 -1 0
BITMAP
1CC0
0840
0800
1900
1E00
1100
3100
3000
2000
7000
ENDCHAR

STARTCHAR char71
ENCODING 71
SWIDTH 61 0
DWIDTH 10 0
BBX 9 10 1 0
BITMAP
1F80
2080
4080
C000
8700
8300
8300
8200
4600
3C00
ENDCHAR

STARTCHAR char72
ENCODING 72
SWIDTH 61 0
DWIDTH 10 0
BBX 12 10 -1 0
BITMAP
0E70
0860
1840
10C0
1FC0
3080
3080
2180
2180
E780
ENDCHAR

STARTCHAR char73
ENCODING 73
SWIDTH 30 0
DWIDTH 5 0
BBX 6 10 0 0
BITMAP
1C
18
10
10
30
20
20
60
60
E0
ENDCHAR

STARTCHAR char74
ENCODING 74
SWIDTH 36 0
DWIDTH 6 0
BBX 7 10 0 0
BITMAP
0E
0C
08
08
18
18
10
30
B0
E0
ENDCHAR

STARTCHAR char75
ENCODING 75
SWIDTH 55 0
DWIDTH 9 0
BBX 12 10 -1 0
BITMAP
0C60
0880
1B00
1C00
1C00
3400
3600
2200
2300
E380
ENDCHAR

STARTCHAR char76
ENCODING 76
SWIDTH 49 0
DWIDTH 8 0
BBX 9 10 -1 0
BITMAP
0C00
0800
1800
1800
1000
1000
3000
2080
2080
FF00
ENDCHAR

STARTCHAR char77
ENCODING 77
SWIDTH 11 0
DWIDTH 12 0
BBX 14 10 -1 0
BITMAP
0C1C
1C30
1C70
1C70
1CA0
2520
2560
2660
4440
E4C0
ENDCHAR

STARTCHAR char78
ENCODING 78
SWIDTH 61 0
DWIDTH 10 0
BBX 13 10 -1 0
BITMAP
1838
0C20
1440
1640
1640
2240
2380
2180
4100
C100
ENDCHAR

STARTCHAR char79
ENCODING 79
SWIDTH 61 0
DWIDTH 10 0
BBX 8 10 1 0
BITMAP
1E
21
41
C1
C1
81
83
82
44
78
ENDCHAR

STARTCHAR char80
ENCODING 80
SWIDTH 49 0
DWIDTH 8 0
BBX 9 10 -1 0
BITMAP
0F00
0880
0880
1880
1F00
1000
3000
3000
2000
F000
ENDCHAR

STARTCHAR char81
ENCODING 81
SWIDTH 61 0
DWIDTH 10 0
BBX 8 12 1 -2
BITMAP
1E
21
41
C1
81
81
82
82
44
78
21
7E
ENDCHAR

STARTCHAR char82
ENCODING 82
SWIDTH 55 0
DWIDTH 9 0
BBX 10 10 -1 0
BITMAP
0F00
0880
1880
1900
1E00
3600
3200
2200
2300
F180
ENDCHAR

STARTCHAR char83
ENCODING 83
SWIDTH 43 0
DWIDTH 7 0
BBX 8 10 0 0
BITMAP
1F
21
21
30
10
08
84
84
84
F8
ENDCHAR

STARTCHAR char84
ENCODING 84
SWIDTH 49 0
DWIDTH 8 0
BBX 8 10 1 0
BITMAP
FB
99
18
10
10
30
20
20
60
60
ENDCHAR

STARTCHAR char85
ENCODING 85
SWIDTH 61 0
DWIDTH 10 0
BBX 10 10 1 0
BITMAP
78C0
2080
6080
6100
4100
C100
C200
8200
C400
7800
ENDCHAR

STARTCHAR char86
ENCODING 86
SWIDTH 55 0
DWIDTH 9 0
BBX 9 10 2 0
BITMAP
6180
4200
4400
4400
4800
5000
7000
4000
8000
8000
ENDCHAR

STARTCHAR char87
ENCODING 87
SWIDTH 17 0
DWIDTH 13 0
BBX 14 9 1 1
BITMAP
3F88
2310
2210
2E20
2A40
7280
7380
4200
4200
ENDCHAR

STARTCHAR char88
ENCODING 88
SWIDTH 49 0
DWIDTH 8 0
BBX 11 10 -1 0
BITMAP
1EE0
0880
0D00
0E00
0400
0C00
1600
2600
4200
C700
ENDCHAR

STARTCHAR char89
ENCODING 89
SWIDTH 49 0
DWIDTH 8 0
BBX 8 10 2 0
BITMAP
D3
62
24
28
30
30
20
20
60
F0
ENDCHAR

STARTCHAR char90
ENCODING 90
SWIDTH 55 0
DWIDTH 9 0
BBX 11 10 -1 0
BITMAP
1FE0
20C0
0180
0300
0600
0C00
1800
3080
6080
7F80
ENDCHAR

STARTCHAR char91
ENCODING 91
SWIDTH 30 0
DWIDTH 5 0
BBX 6 12 0 -2
BITMAP
1C
10
10
30
20
20
60
40
40
C0
80
E0
ENDCHAR

STARTCHAR char92
ENCODING 92
SWIDTH 24 0
DWIDTH 4 0
BBX 4 11 0 0
BITMAP
80
80
80
40
40
40
20
20
20
10
10
ENDCHAR

STARTCHAR char93
ENCODING 93
SWIDTH 30 0
DWIDTH 5 0
BBX 6 12 -1 -2
BITMAP
1C
04
08
08
08
18
10
10
30
20
20
E0
ENDCHAR

STARTCHAR char94
ENCODING 94
SWIDTH 0 0
DWIDTH 0 0
BBX 4 2 0 11
BITMAP
60
90
ENDCHAR

STARTCHAR char95
ENCODING 95
SWIDTH 55 0
DWIDTH 9 0
BBX 8 1 0 -2
BITMAP
FF
ENDCHAR

STARTCHAR char96
ENCODING 96
SWIDTH 0 0
DWIDTH 0 0
BBX 3 2 0 8
BITMAP
40
20
ENDCHAR

STARTCHAR char97
ENCODING 97
SWIDTH 43 0
DWIDTH 7 0
BBX 7 7 0 0
BITMAP
1A
26
44
C4
8C
9A
EC
ENDCHAR

STARTCHAR char98
ENCODING 98
SWIDTH 43 0
DWIDTH 7 0
BBX 6 10 0 0
BITMAP
30
10
20
38
24
64
44
44
48
70
ENDCHAR

STARTCHAR char99
ENCODING 99
SWIDTH 30 0
DWIDTH 5 0
BBX 5 7 1 0
BITMAP
38
48
40
80
80
98
60
ENDCHAR

STARTCHAR char100
ENCODING 100
SWIDTH 43 0
DWIDTH 7 0
BBX 8 10 0 0
BITMAP
03
02
02
1A
24
44
C4
8C
98
6C
ENDCHAR

STARTCHAR char101
ENCODING 101
SWIDTH 36 0
DWIDTH 6 0
BBX 5 7 1 0
BITMAP
38
48
58
E0
80
98
60
ENDCHAR

STARTCHAR char102
ENCODING 102
SWIDTH 24 0
DWIDTH 4 0
BBX 9 12 -2 -2
BITMAP
0380
0400
0400
1E00
0800
0800
0800
1800
1000
1000
2000
E000
ENDCHAR

STARTCHAR char103
ENCODING 103
SWIDTH 36 0
DWIDTH 6 0
BBX 8 9 -1 -2
BITMAP
18
24
24
3C
10
20
3C
C4
7C
ENDCHAR

STARTCHAR char104
ENCODING 104
SWIDTH 43 0
DWIDTH 7 0
BBX 7 10 0 0
BITMAP
30
30
20
26
3A
76
44
44
CC
4C
ENDCHAR

STARTCHAR char105
ENCODING 105
SWIDTH 24 0
DWIDTH 4 0
BBX 3 9 1 0
BITMAP
20
00
C0
40
40
40
80
80
C0
ENDCHAR

STARTCHAR char106
ENCODING 106
SWIDTH 18 0
DWIDTH 3 0
BBX 6 11 -3 -2
BITMAP
04
00
0C
08
08
08
08
08
18
10
F0
ENDCHAR

STARTCHAR char107
ENCODING 107
SWIDTH 43 0
DWIDTH 7 0
BBX 8 10 0 0
BITMAP
20
10
30
26
2C
68
70
48
CB
44
ENDCHAR

STARTCHAR char108
ENCODING 108
SWIDTH 24 0
DWIDTH 4 0
BBX 4 10 1 0
BITMAP
20
20
20
40
40
40
40
80
80
80
ENDCHAR

STARTCHAR char109
ENCODING 109
SWIDTH 61 0
DWIDTH 10 0
BBX 10 7 0 0
BITMAP
0CC0
5540
6E40
4C40
8880
9880
8880
ENDCHAR

STARTCHAR char110
ENCODING 110
SWIDTH 43 0
DWIDTH 7 0
BBX 7 7 0 0
BITMAP
04
3E
34
64
44
C8
4C
ENDCHAR

STARTCHAR char111
ENCODING 111
SWIDTH 43 0
DWIDTH 7 0
BBX 5 7 1 0
BITMAP
30
48
48
88
88
90
60
ENDCHAR

STARTCHAR char112
ENCODING 112
SWIDTH 43 0
DWIDTH 7 0
BBX 8 9 -2 -2
BITMAP
1E
09
11
11
12
32
3C
20
60
ENDCHAR

STARTCHAR char113
ENCODING 113
SWIDTH 43 0
DWIDTH 7 0
BBX 7 9 0 -2
BITMAP
1E
66
44
C4
8C
98
68
08
3C
ENDCHAR

STARTCHAR char114
ENCODING 114
SWIDTH 30 0
DWIDTH 5 0
BBX 6 7 0 0
BITMAP
74
3C
30
60
60
40
40
ENDCHAR

STARTCHAR char115
ENCODING 115
SWIDTH 30 0
DWIDTH 5 0
BBX 6 7 0 0
BITMAP
38
24
24
10
10
90
E0
ENDCHAR

STARTCHAR char116
ENCODING 116
SWIDTH 24 0
DWIDTH 4 0
BBX 4 8 1 0
BITMAP
20
F0
40
40
40
80
A0
C0
ENDCHAR

STARTCHAR char117
ENCODING 117
SWIDTH 43 0
DWIDTH 7 0
BBX 7 7 0 0
BITMAP
22
62
26
24
4C
5C
6C
ENDCHAR

STARTCHAR char118
ENCODING 118
SWIDTH 36 0
DWIDTH 6 0
BBX 6 7 0 0
BITMAP
C4
64
24
24
28
30
20
ENDCHAR

STARTCHAR char119
ENCODING 119
SWIDTH 49 0
DWIDTH 8 0
BBX 9 7 0 0
BITMAP
C980
4880
5C80
5500
6700
4400
4400
ENDCHAR

STARTCHAR char120
ENCODING 120
SWIDTH 43 0
DWIDTH 7 0
BBX 8 7 -1 0
BITMAP
73
16
0C
08
1C
25
46
ENDCHAR

STARTCHAR char121
ENCODING 121
SWIDTH 36 0
DWIDTH 6 0
BBX 8 9 -2 -2
BITMAP
31
11
11
1A
1A
0C
08
10
E0
ENDCHAR

STARTCHAR char122
ENCODING 122
SWIDTH 30 0
DWIDTH 5 0
BBX 6 7 0 0
BITMAP
7C
48
10
20
40
48
F0
ENDCHAR

STARTCHAR char123
ENCODING 123
SWIDTH 30 0
DWIDTH 5 0
BBX 3 13 1 -3
BITMAP
60
40
40
40
40
80
80
40
40
40
40
40
20
ENDCHAR

STARTCHAR char124
ENCODING 124
SWIDTH 24 0
DWIDTH 4 0
BBX 1 11 1 0
BITMAP
80
80
80
80
80
80
80
80
80
80
80
ENDCHAR

STARTCHAR char125
ENCODING 125
SWIDTH 30 0
DWIDTH 5 0
BBX 3 13 1 -3
BITMAP
C0
40
40
40
40
20
20
40
40
40
40
40
80
ENDCHAR

STARTCHAR char126
ENCODING 126
SWIDTH 0 0
DWIDTH 0 0
BBX 6 1 -1 12
BITMAP
7C
ENDCHAR

STARTCHAR char128
ENCODING 128
SWIDTH 43 0
DWIDTH 7 0
BBX 9 10 0 0
BITMAP
0700
1880
3080
2000
FC00
FC00
4000
4000
4600
3800
ENDCHAR

STARTCHAR char130
ENCODING 130
SWIDTH 18 0
DWIDTH 3 0
BBX 2 4 0 -2
BITMAP
40
40
C0
80
ENDCHAR

STARTCHAR char131
ENCODING 131
SWIDTH 0 0
DWIDTH 0 0
BBX 4 2 0 11
BITMAP
60
90
ENDCHAR

STARTCHAR char132
ENCODING 132
SWIDTH 30 0
DWIDTH 5 0
BBX 4 4 0 -2
BITMAP
50
50
90
A0
ENDCHAR

STARTCHAR char133
ENCODING 133
SWIDTH 36 0
DWIDTH 16 0
BBX 10 2 2 0
BITMAP
8840
8840
ENDCHAR

STARTCHAR char134
ENCODING 134
SWIDTH 36 0
DWIDTH 6 0
BBX 6 12 1 -2
BITMAP
18
10
10
FC
30
20
20
20
40
40
40
40
ENDCHAR

STARTCHAR char135
ENCODING 135
SWIDTH 29 0
DWIDTH 15 0
BBX 0 0 0 0
BITMAP
ENDCHAR

STARTCHAR char136
ENCODING 136
SWIDTH 0 0
DWIDTH 0 0
BBX 4 2 0 8
BITMAP
70
90
ENDCHAR

STARTCHAR char137
ENCODING 137
SWIDTH 29 0
DWIDTH 15 0
BBX 0 0 0 0
BITMAP
ENDCHAR

STARTCHAR char138
ENCODING 138
SWIDTH 29 0
DWIDTH 15 0
BBX 0 0 0 0
BITMAP
ENDCHAR

STARTCHAR char139
ENCODING 139
SWIDTH 30 0
DWIDTH 5 0
BBX 3 4 1 2
BITMAP
60
C0
C0
60
ENDCHAR

STARTCHAR char140
ENCODING 140
SWIDTH 23 0
DWIDTH 14 0
BBX 14 10 0 0
BITMAP
0FFC
10C4
2080
6190
C1F0
8110
8110
8308
4208
3FF0
ENDCHAR

STARTCHAR char141
ENCODING 141
SWIDTH 29 0
DWIDTH 15 0
BBX 0 0 0 0
BITMAP
ENDCHAR

STARTCHAR char143
ENCODING 143
SWIDTH 29 0
DWIDTH 15 0
BBX 0 0 0 0
BITMAP
ENDCHAR

STARTCHAR char145
ENCODING 145
SWIDTH 18 0
DWIDTH 3 0
BBX 3 3 2 7
BITMAP
40
C0
C0
ENDCHAR

STARTCHAR char146
ENCODING 146
SWIDTH 18 0
DWIDTH 3 0
BBX 2 3 2 7
BITMAP
40
40
80
ENDCHAR

STARTCHAR char147
ENCODING 147
SWIDTH 30 0
DWIDTH 5 0
BBX 5 3 2 7
BITMAP
90
90
90
ENDCHAR

STARTCHAR char148
ENCODING 148
SWIDTH 30 0
DWIDTH 5 0
BBX 4 3 2 7
BITMAP
50
50
90
ENDCHAR

STARTCHAR char149
ENCODING 149
SWIDTH 30 0
DWIDTH 5 0
BBX 4 4 0 3
BITMAP
60
F0
F0
60
ENDCHAR

STARTCHAR char150
ENCODING 150
SWIDTH 36 0
DWIDTH 6 0
BBX 6 1 0 3
BITMAP
FC
ENDCHAR

STARTCHAR char151
ENCODING 151
SWIDTH 55 0
DWIDTH 9 0
BBX 10 1 0 4
BITMAP
FFC0
ENDCHAR

STARTCHAR char152
ENCODING 152
SWIDTH 0 0
DWIDTH 0 0
BBX 6 2 -1 8
BITMAP
78
80
ENDCHAR

STARTCHAR char153
ENCODING 153
SWIDTH 11 0
DWIDTH 12 0
BBX 12 6 -1 4
BITMAP
FA30
A730
2330
2350
22D0
32B0
ENDCHAR

STARTCHAR char154
ENCODING 154
SWIDTH 29 0
DWIDTH 15 0
BBX 0 0 0 0
BITMAP
ENDCHAR

STARTCHAR char155
ENCODING 155
SWIDTH 30 0
DWIDTH 5 0
BBX 3 4 1 2
BITMAP
C0
60
60
80
ENDCHAR

STARTCHAR char156
ENCODING 156
SWIDTH 61 0
DWIDTH 10 0
BBX 10 7 0 0
BITMAP
19C0
6640
44C0
8700
8C00
8CC0
7700
ENDCHAR

STARTCHAR char157
ENCODING 157
SWIDTH 29 0
DWIDTH 15 0
BBX 0 0 0 0
BITMAP
ENDCHAR

STARTCHAR char159
ENCODING 159
SWIDTH 49 0
DWIDTH 8 0
BBX 9 13 2 0
BITMAP
2200
2200
0000
E180
4300
2600
2C00
3000
3000
2000
2000
4000
F000
ENDCHAR

STARTCHAR char160
ENCODING 160
SWIDTH 24 0
DWIDTH 4 0
BBX 0 0 0 0
BITMAP
ENDCHAR

STARTCHAR char161
ENCODING 161
SWIDTH 24 0
DWIDTH 4 0
BBX 4 10 0 0
BITMAP
10
10
20
20
20
20
40
40
40
40
ENDCHAR

STARTCHAR char162
ENCODING 162
SWIDTH 30 0
DWIDTH 5 0
BBX 5 11 1 -2
BITMAP
10
10
38
58
60
A0
A0
D8
E0
40
40
ENDCHAR

STARTCHAR char163
ENCODING 163
SWIDTH 43 0
DWIDTH 7 0
BBX 9 10 -1 0
BITMAP
0780
0C80
0C00
0800
3E00
0800
1800
1100
F100
FE00
ENDCHAR

STARTCHAR char164
ENCODING 164
SWIDTH 0 0
DWIDTH 0 0
BBX 4 2 1 11
BITMAP
60
80
ENDCHAR

STARTCHAR char165
ENCODING 165
SWIDTH 0 0
DWIDTH 0 0
BBX 5 2 0 11
BITMAP
50
60
ENDCHAR

STARTCHAR char166
ENCODING 166
SWIDTH 29 0
DWIDTH 15 0
BBX 0 0 0 0
BITMAP
ENDCHAR

STARTCHAR char167
ENCODING 167
SWIDTH 36 0
DWIDTH 6 0
BBX 7 13 0 -2
BITMAP
0E
12
10
10
38
48
4C
5C
28
30
10
90
E0
ENDCHAR

STARTCHAR char168
ENCODING 168
SWIDTH 0 0
DWIDTH 0 0
BBX 4 2 0 8
BITMAP
90
90
ENDCHAR

STARTCHAR char169
ENCODING 169
SWIDTH 5 0
DWIDTH 11 0
BBX 10 10 0 0
BITMAP
1E00
2100
4E80
9240
A240
A040
A040
9C40
4180
3E00
ENDCHAR

STARTCHAR char170
ENCODING 170
SWIDTH 0 0
DWIDTH 0 0
BBX 4 2 0 11
BITMAP
90
90
ENDCHAR

STARTCHAR char171
ENCODING 171
SWIDTH 36 0
DWIDTH 6 0
BBX 7 7 0 0
BITMAP
14
24
48
D8
48
48
48
ENDCHAR

STARTCHAR char172
ENCODING 172
SWIDTH 61 0
DWIDTH 10 0
BBX 9 4 0 0
BITMAP
FF80
0080
0080
0080
ENDCHAR

STARTCHAR char173
ENCODING 173
SWIDTH 29 0
DWIDTH 15 0
BBX 0 0 0 0
BITMAP
ENDCHAR

STARTCHAR char174
ENCODING 174
SWIDTH 5 0
DWIDTH 11 0
BBX 10 10 0 0
BITMAP
1C00
2300
5C80
9240
9240
9C40
9440
BB40
4180
3E00
ENDCHAR

STARTCHAR char175
ENCODING 175
SWIDTH 29 0
DWIDTH 15 0
BBX 0 0 0 0
BITMAP
ENDCHAR

STARTCHAR char176
ENCODING 176
SWIDTH 24 0
DWIDTH 4 0
BBX 4 5 2 5
BITMAP
60
90
90
90
60
ENDCHAR

STARTCHAR char177
ENCODING 177
SWIDTH 43 0
DWIDTH 7 0
BBX 7 9 0 0
BITMAP
10
10
10
FE
10
10
10
00
FE
ENDCHAR

STARTCHAR char178
ENCODING 178
SWIDTH 29 0
DWIDTH 15 0
BBX 0 0 0 0
BITMAP
ENDCHAR

STARTCHAR char179
ENCODING 179
SWIDTH 29 0
DWIDTH 15 0
BBX 0 0 0 0
BITMAP
ENDCHAR

STARTCHAR char180
ENCODING 180
SWIDTH 0 0
DWIDTH 0 0
BBX 3 2 1 8
BITMAP
40
40
ENDCHAR

STARTCHAR char181
ENCODING 181
SWIDTH 29 0
DWIDTH 15 0
BBX 0 0 0 0
BITMAP
ENDCHAR

STARTCHAR char182
ENCODING 182
SWIDTH 61 0
DWIDTH 10 0
BBX 7 12 1 -2
BITMAP
3E
64
E4
E4
64
24
24
24
24
24
24
24
ENDCHAR

STARTCHAR char183
ENCODING 183
SWIDTH 12 0
DWIDTH 2 0
BBX 1 2 1 3
BITMAP
80
80
ENDCHAR

STARTCHAR char184
ENCODING 184
SWIDTH 0 0
DWIDTH 0 0
BBX 2 3 -2 -3
BITMAP
40
40
C0
ENDCHAR

STARTCHAR char186
ENCODING 186
SWIDTH 0 0
DWIDTH 0 0
BBX 6 1 -1 12
BITMAP
7C
ENDCHAR

STARTCHAR char187
ENCODING 187
SWIDTH 36 0
DWIDTH 6 0
BBX 6 7 0 0
BITMAP
48
24
24
24
48
90
90
ENDCHAR

STARTCHAR char188
ENCODING 188
SWIDTH 29 0
DWIDTH 15 0
BBX 0 0 0 0
BITMAP
ENDCHAR

STARTCHAR char189
ENCODING 189
SWIDTH 29 0
DWIDTH 15 0
BBX 0 0 0 0
BITMAP
ENDCHAR

STARTCHAR char191
ENCODING 191
SWIDTH 36 0
DWIDTH 6 0
BBX 5 10 0 0
BITMAP
08
08
10
10
10
20
40
C0
90
70
ENDCHAR

STARTCHAR char192
ENCODING 192
SWIDTH 55 0
DWIDTH 9 0
BBX 8 13 0 0
BITMAP
06
02
00
01
02
06
0A
12
12
3E
42
46
8E
ENDCHAR

STARTCHAR char193
ENCODING 193
SWIDTH 55 0
DWIDTH 9 0
BBX 8 13 0 0
BITMAP
03
04
00
02
02
06
0A
12
12
3E
42
46
8E
ENDCHAR

STARTCHAR char194
ENCODING 194
SWIDTH 55 0
DWIDTH 9 0
BBX 8 13 0 0
BITMAP
06
09
00
02
02
06
0A
12
12
3E
42
46
8E
ENDCHAR

STARTCHAR char195
ENCODING 195
SWIDTH 55 0
DWIDTH 9 0
BBX 8 13 0 0
BITMAP
0F
00
00
02
02
06
0A
12
12
3E
42
46
8E
ENDCHAR

STARTCHAR char196
ENCODING 196
SWIDTH 55 0
DWIDTH 9 0
BBX 11 13 -1 0
BITMAP
0320
0320
0000
0080
0100
0300
0500
0900
0900
1F00
2100
2300
4700
ENDCHAR

STARTCHAR char197
ENCODING 197
SWIDTH 55 0
DWIDTH 9 0
BBX 10 14 -1 0
BITMAP
00C0
00C0
00C0
0000
0080
0100
0300
0500
0900
0900
1F00
2100
2300
4700
ENDCHAR

STARTCHAR char198
ENCODING 198
SWIDTH 11 0
DWIDTH 12 0
BBX 15 10 -2 0
BITMAP
00FE
0142
01C0
02C8
04F0
0890
0F90
1104
2108
E7F8
ENDCHAR

STARTCHAR char199
ENCODING 199
SWIDTH 55 0
DWIDTH 9 0
BBX 9 13 1 -3
BITMAP
1F80
3080
6080
C000
C000
8000
8000
8100
4300
3C00
2000
1000
6000
ENDCHAR

STARTCHAR char200
ENCODING 200
SWIDTH 49 0
DWIDTH 8 0
BBX 8 13 1 0
BITMAP
18
04
00
7F
21
60
64
78
48
C8
82
84
FC
ENDCHAR

STARTCHAR char201
ENCODING 201
SWIDTH 49 0
DWIDTH 8 0
BBX 8 13 1 0
BITMAP
04
08
00
7F
21
60
64
78
48
C8
82
84
FC
ENDCHAR

STARTCHAR char202
ENCODING 202
SWIDTH 49 0
DWIDTH 8 0
BBX 8 13 1 0
BITMAP
0C
32
00
7F
21
60
64
78
48
C8
82
84
FC
ENDCHAR

STARTCHAR char203
ENCODING 203
SWIDTH 49 0
DWIDTH 8 0
BBX 10 13 -1 0
BITMAP
0480
0480
0000
1FC0
0C40
1800
1900
1E00
1200
3200
2080
2100
FF00
ENDCHAR

STARTCHAR char204
ENCODING 204
SWIDTH 30 0
DWIDTH 5 0
BBX 6 13 0 0
BITMAP
18
08
00
1C
18
10
10
30
20
20
60
60
E0
ENDCHAR

STARTCHAR char205
ENCODING 205
SWIDTH 30 0
DWIDTH 5 0
BBX 7 13 0 0
BITMAP
0C
10
00
1C
18
10
10
30
20
20
60
60
E0
ENDCHAR

STARTCHAR char206
ENCODING 206
SWIDTH 30 0
DWIDTH 5 0
BBX 6 13 0 0
BITMAP
18
24
00
1C
18
10
10
30
20
20
60
60
E0
ENDCHAR

STARTCHAR char207
ENCODING 207
SWIDTH 30 0
DWIDTH 5 0
BBX 6 13 0 0
BITMAP
24
24
00
1C
18
10
10
30
20
20
40
40
C0
ENDCHAR

STARTCHAR char208
ENCODING 208
SWIDTH 29 0
DWIDTH 15 0
BBX 0 0 0 0
BITMAP
ENDCHAR

STARTCHAR char209
ENCODING 209
SWIDTH 61 0
DWIDTH 10 0
BBX 13 13 -1 0
BITMAP
07C0
0000
0000
1838
0C20
1440
1640
1640
2240
2380
2180
4100
C100
ENDCHAR

STARTCHAR char210
ENCODING 210
SWIDTH 61 0
DWIDTH 10 0
BBX 8 13 1 0
BITMAP
0C
02
00
1E
21
41
C1
C1
81
83
82
44
78
ENDCHAR

STARTCHAR char211
ENCODING 211
SWIDTH 61 0
DWIDTH 10 0
BBX 8 13 1 0
BITMAP
06
04
00
1E
21
41
C1
C1
81
83
82
44
78
ENDCHAR

STARTCHAR char212
ENCODING 212
SWIDTH 61 0
DWIDTH 10 0
BBX 8 13 1 0
BITMAP
0C
12
00
1E
21
41
C1
C1
81
83
82
44
78
ENDCHAR

STARTCHAR char213
ENCODING 213
SWIDTH 61 0
DWIDTH 10 0
BBX 8 13 1 0
BITMAP
0F
00
00
1E
21
41
C1
C1
81
83
82
46
78
ENDCHAR

STARTCHAR char214
ENCODING 214
SWIDTH 61 0
DWIDTH 10 0
BBX 9 13 1 0
BITMAP
0900
0900
0000
1E00
2100
4180
C180
C100
8100
8200
8200
4400
7800
ENDCHAR

STARTCHAR char215
ENCODING 215
SWIDTH 29 0
DWIDTH 15 0
BBX 0 0 0 0
BITMAP
ENDCHAR

STARTCHAR char216
ENCODING 216
SWIDTH 61 0
DWIDTH 10 0
BBX 8 12 1 -1
BITMAP
01
1F
23
45
C5
89
91
93
A2
44
78
80
ENDCHAR

STARTCHAR char217
ENCODING 217
SWIDTH 61 0
DWIDTH 10 0
BBX 10 13 1 0
BITMAP
0C00
0200
0000
78C0
2080
6080
6100
4100
C100
C200
8200
C400
7800
ENDCHAR

STARTCHAR char218
ENCODING 218
SWIDTH 61 0
DWIDTH 10 0
BBX 10 13 1 0
BITMAP
0600
0400
0000
78C0
2080
6080
6100
4100
C100
C200
8200
C400
7800
ENDCHAR

STARTCHAR char219
ENCODING 219
SWIDTH 61 0
DWIDTH 10 0
BBX 10 13 1 0
BITMAP
0C00
1200
0000
78C0
2080
6080
6100
4100
C100
C200
8200
C400
7800
ENDCHAR

STARTCHAR char220
ENCODING 220
SWIDTH 61 0
DWIDTH 10 0
BBX 10 13 1 0
BITMAP
0900
0900
0000
78C0
2080
6080
6100
4100
C100
C200
8200
C400
7800
ENDCHAR

STARTCHAR char221
ENCODING 221
SWIDTH 29 0
DWIDTH 15 0
BBX 0 0 0 0
BITMAP
ENDCHAR

STARTCHAR char222
ENCODING 222
SWIDTH 29 0
DWIDTH 15 0
BBX 0 0 0 0
BITMAP
ENDCHAR

STARTCHAR char223
ENCODING 223
SWIDTH 43 0
DWIDTH 7 0
BBX 10 12 -3 -2
BITMAP
03C0
0440
0440
0480
0900
0880
0880
1080
1580
1700
2000
C000
ENDCHAR

STARTCHAR char224
ENCODING 224
SWIDTH 43 0
DWIDTH 7 0
BBX 7 10 0 0
BITMAP
0C
04
00
1A
26
44
C4
8C
9A
EC
ENDCHAR

STARTCHAR char225
ENCODING 225
SWIDTH 43 0
DWIDTH 7 0
BBX 7 10 0 0
BITMAP
04
04
00
1A
26
44
C4
8C
9A
EC
ENDCHAR

STARTCHAR char226
ENCODING 226
SWIDTH 43 0
DWIDTH 7 0
BBX 7 10 0 0
BITMAP
0E
12
00
1A
26
44
C4
8C
9A
EC
ENDCHAR

STARTCHAR char227
ENCODING 227
SWIDTH 43 0
DWIDTH 7 0
BBX 8 10 0 0
BITMAP
1E
20
00
1A
26
44
C4
8C
9A
EC
ENDCHAR

STARTCHAR char228
ENCODING 228
SWIDTH 43 0
DWIDTH 7 0
BBX 7 10 0 0
BITMAP
12
12
00
1A
24
44
44
88
9A
EC
ENDCHAR

STARTCHAR char229
ENCODING 229
SWIDTH 43 0
DWIDTH 7 0
BBX 7 10 0 0
BITMAP
0E
0E
00
1A
24
44
C4
8C
9A
EC
ENDCHAR

STARTCHAR char230
ENCODING 230
SWIDTH 61 0
DWIDTH 10 0
BBX 10 7 0 0
BITMAP
1BC0
2640
44C0
C700
8C00
9CC0
E700
ENDCHAR

STARTCHAR char231
ENCODING 231
SWIDTH 30 0
DWIDTH 5 0
BBX 6 10 0 -3
BITMAP
1C
24
20
40
40
4C
30
20
20
C0
ENDCHAR

STARTCHAR char232
ENCODING 232
SWIDTH 36 0
DWIDTH 6 0
BBX 5 10 1 0
BITMAP
10
10
00
38
48
58
E0
80
98
60
ENDCHAR

STARTCHAR char233
ENCODING 233
SWIDTH 36 0
DWIDTH 6 0
BBX 5 10 1 0
BITMAP
10
10
00
38
48
58
E0
80
98
60
ENDCHAR

STARTCHAR char234
ENCODING 234
SWIDTH 36 0
DWIDTH 6 0
BBX 5 10 1 0
BITMAP
38
28
00
38
48
58
E0
80
98
60
ENDCHAR

STARTCHAR char235
ENCODING 235
SWIDTH 36 0
DWIDTH 6 0
BBX 5 10 1 0
BITMAP
28
28
00
30
48
50
E0
80
90
60
ENDCHAR

STARTCHAR char236
ENCODING 236
SWIDTH 24 0
DWIDTH 4 0
BBX 3 10 1 0
BITMAP
20
20
00
C0
40
40
40
80
80
80
ENDCHAR

STARTCHAR char237
ENCODING 237
SWIDTH 24 0
DWIDTH 4 0
BBX 4 10 1 0
BITMAP
10
20
00
E0
40
40
40
80
80
80
ENDCHAR

STARTCHAR char238
ENCODING 238
SWIDTH 24 0
DWIDTH 4 0
BBX 4 10 1 0
BITMAP
30
50
00
E0
40
40
40
80
80
80
ENDCHAR

STARTCHAR char239
ENCODING 239
SWIDTH 24 0
DWIDTH 4 0
BBX 4 10 1 0
BITMAP
50
50
00
E0
40
40
40
80
80
80
ENDCHAR

STARTCHAR char241
ENCODING 241
SWIDTH 43 0
DWIDTH 7 0
BBX 8 10 0 0
BITMAP
1E
20
00
64
3E
34
64
44
C8
4C
ENDCHAR

STARTCHAR char242
ENCODING 242
SWIDTH 43 0
DWIDTH 7 0
BBX 5 10 1 0
BITMAP
10
10
00
30
48
48
88
88
90
60
ENDCHAR

STARTCHAR char243
ENCODING 243
SWIDTH 43 0
DWIDTH 7 0
BBX 6 10 1 0
BITMAP
08
08
00
30
48
48
88
88
90
60
ENDCHAR

STARTCHAR char244
ENCODING 244
SWIDTH 43 0
DWIDTH 7 0
BBX 6 10 1 0
BITMAP
18
24
00
30
48
48
88
88
90
60
ENDCHAR

STARTCHAR char245
ENCODING 245
SWIDTH 43 0
DWIDTH 7 0
BBX 7 10 1 0
BITMAP
3C
40
00
30
48
48
88
88
90
60
ENDCHAR

STARTCHAR char246
ENCODING 246
SWIDTH 43 0
DWIDTH 7 0
BBX 6 10 1 0
BITMAP
2C
2C
00
30
48
48
88
88
90
E0
ENDCHAR

STARTCHAR char247
ENCODING 247
SWIDTH 43 0
DWIDTH 7 0
BBX 7 6 0 1
BITMAP
10
10
00
FE
10
10
ENDCHAR

STARTCHAR char248
ENCODING 248
SWIDTH 43 0
DWIDTH 7 0
BBX 6 9 1 -1
BITMAP
04
38
54
54
AC
AC
D8
70
80
ENDCHAR

STARTCHAR char249
ENCODING 249
SWIDTH 43 0
DWIDTH 7 0
BBX 7 10 0 0
BITMAP
0C
04
00
22
62
24
24
4C
5C
6C
ENDCHAR

STARTCHAR char250
ENCODING 250
SWIDTH 43 0
DWIDTH 7 0
BBX 7 10 0 0
BITMAP
06
04
00
22
62
24
24
4C
5C
6C
ENDCHAR

STARTCHAR char251
ENCODING 251
SWIDTH 43 0
DWIDTH 7 0
BBX 7 10 0 0
BITMAP
0E
0A
00
22
62
24
24
4C
5C
6C
ENDCHAR

STARTCHAR char252
ENCODING 252
SWIDTH 43 0
DWIDTH 7 0
BBX 7 10 0 0
BITMAP
12
12
00
22
62
24
24
4C
5C
6C
ENDCHAR

STARTCHAR char255
ENCODING 255
SWIDTH 36 0
DWIDTH 6 0
BBX 8 12 -2 -2
BITMAP
05
05
00
31
11
19
1A
0A
0C
08
10
E0
ENDCHAR

ENDFONT
