STARTFONT 2.1
FONT -sni-sfac16_ext-medium-r-normal--17-160-75-75-c-80--
SIZE 16 75 75
FONTBOUNDINGBOX 8 16 0 -3

STARTPROPERTIES 10
X_HEIGHT 7
COPYRIGHT "Copyright (C) Siemens Nixdorf Informationssysteme AG 1992, All Rights Reserved"
POINT_SIZE 160
WEIGHT 10
RESOLUTION_X 75
RESOLUTION_Y 75
QUAD_WIDTH 8
DEFAULT_CHAR 0
FONT_DESCENT 3
FONT_ASCENT 13
ENDPROPERTIES

CHARS 254

STARTCHAR C256
ENCODING 0
SWIDTH 714 0
DWIDTH 8 0
BBX 8 16 0 -3
BITMAP
00
0E
11
11
11
0E
00
00
00
00
00
00
00
00
00
00
ENDCHAR

STARTCHAR C257
ENCODING 1
SWIDTH 714 0
DWIDTH 8 0
BBX 8 16 0 -3
BITMAP
00
04
0C
04
04
1F
00
00
00
00
00
00
00
00
00
00
ENDCHAR

STARTCHAR C258
ENCODING 2
SWIDTH 714 0
DWIDTH 8 0
BBX 8 16 0 -3
BITMAP
00
0E
11
02
04
1F
00
00
00
00
00
00
00
00
00
00
ENDCHAR

STARTCHAR C259
ENCODING 3
SWIDTH 714 0
DWIDTH 8 0
BBX 8 16 0 -3
BITMAP
00
1F
02
06
11
0E
00
00
00
00
00
00
00
00
00
00
ENDCHAR

STARTCHAR C260
ENCODING 4
SWIDTH 714 0
DWIDTH 8 0
BBX 8 16 0 -3
BITMAP
00
02
06
0A
1E
02
00
00
00
00
00
00
00
00
00
00
ENDCHAR

STARTCHAR C261
ENCODING 5
SWIDTH 714 0
DWIDTH 8 0
BBX 8 16 0 -3
BITMAP
00
1E
10
1E
01
1E
00
00
00
00
00
00
00
00
00
00
ENDCHAR

STARTCHAR C262
ENCODING 6
SWIDTH 714 0
DWIDTH 8 0
BBX 8 16 0 -3
BITMAP
00
0E
10
1E
11
0E
00
00
00
00
00
00
00
00
00
00
ENDCHAR

STARTCHAR C263
ENCODING 7
SWIDTH 714 0
DWIDTH 8 0
BBX 8 16 0 -3
BITMAP
00
1F
01
02
04
04
00
00
00
00
00
00
00
00
00
00
ENDCHAR

STARTCHAR C266
ENCODING 8
SWIDTH 714 0
DWIDTH 8 0
BBX 8 16 0 -3
BITMAP
00
00
00
1F
00
00
00
00
00
00
00
00
00
00
00
00
ENDCHAR

STARTCHAR C267
ENCODING 11
SWIDTH 714 0
DWIDTH 8 0
BBX 8 16 0 -3
BITMAP
00
04
04
1F
04
04
00
00
00
00
00
00
00
00
00
00
ENDCHAR

STARTCHAR C268
ENCODING 12
SWIDTH 714 0
DWIDTH 8 0
BBX 8 16 0 -3
BITMAP
00
00
00
30
49
06
30
49
06
00
00
00
00
00
00
00
ENDCHAR

STARTCHAR C269
ENCODING 13
SWIDTH 714 0
DWIDTH 8 0
BBX 8 16 0 -3
BITMAP
00
7F
21
10
08
04
08
10
21
7F
00
00
00
00
00
00
ENDCHAR

STARTCHAR C270
ENCODING 14
SWIDTH 714 0
DWIDTH 8 0
BBX 8 16 0 -3
BITMAP
00
06
09
08
08
08
08
08
08
08
08
08
08
08
08
08
ENDCHAR

STARTCHAR C271
ENCODING 15
SWIDTH 714 0
DWIDTH 8 0
BBX 8 16 0 -3
BITMAP
08
08
08
08
08
08
08
08
48
30
00
00
00
00
00
00
ENDCHAR

STARTCHAR C272
ENCODING 16
SWIDTH 714 0
DWIDTH 8 0
BBX 8 16 0 -3
BITMAP
00
00
00
00
00
00
00
00
00
0E
11
11
11
0E
00
00
ENDCHAR

STARTCHAR C273
ENCODING 17
SWIDTH 714 0
DWIDTH 8 0
BBX 8 16 0 -3
BITMAP
00
00
00
00
00
00
00
00
00
04
0C
04
04
1F
00
00
ENDCHAR

STARTCHAR C274
ENCODING 18
SWIDTH 714 0
DWIDTH 8 0
BBX 8 16 0 -3
BITMAP
00
00
00
00
00
00
00
00
00
0E
11
02
04
1F
00
00
ENDCHAR

STARTCHAR C275
ENCODING 19
SWIDTH 714 0
DWIDTH 8 0
BBX 8 16 0 -3
BITMAP
00
00
00
00
00
00
00
00
00
1F
02
06
11
0E
00
00
ENDCHAR

STARTCHAR C276
ENCODING 20
SWIDTH 714 0
DWIDTH 8 0
BBX 8 16 0 -3
BITMAP
00
00
00
00
00
00
00
00
00
02
06
0A
1F
02
00
00
ENDCHAR

STARTCHAR C277
ENCODING 21
SWIDTH 714 0
DWIDTH 8 0
BBX 8 16 0 -3
BITMAP
00
00
00
00
00
00
00
00
00
1E
10
1E
01
1E
00
00
ENDCHAR

STARTCHAR C278
ENCODING 22
SWIDTH 714 0
DWIDTH 8 0
BBX 8 16 0 -3
BITMAP
00
00
00
00
00
00
00
00
00
0E
10
1E
11
0E
00
00
ENDCHAR

STARTCHAR C279
ENCODING 23
SWIDTH 714 0
DWIDTH 8 0
BBX 8 16 0 -3
BITMAP
00
00
00
00
00
00
00
00
00
1F
01
02
04
04
00
00
ENDCHAR

STARTCHAR C280
ENCODING 24
SWIDTH 714 0
DWIDTH 8 0
BBX 8 16 0 -3
BITMAP
00
00
00
00
00
00
00
00
00
0E
11
0E
11
0E
00
00
ENDCHAR

STARTCHAR C281
ENCODING 25
SWIDTH 714 0
DWIDTH 8 0
BBX 8 16 0 -3
BITMAP
00
00
00
00
00
00
00
00
00
0E
11
0F
01
0E
00
00
ENDCHAR

STARTCHAR C282
ENCODING 26
SWIDTH 714 0
DWIDTH 8 0
BBX 8 16 0 -3
BITMAP
00
00
00
00
00
00
00
00
00
00
00
1F
00
00
00
00
ENDCHAR

STARTCHAR C283
ENCODING 27
SWIDTH 714 0
DWIDTH 8 0
BBX 8 16 0 -3
BITMAP
00
00
00
00
00
00
00
00
00
04
04
1F
04
04
00
00
ENDCHAR

STARTCHAR C284
ENCODING 28
SWIDTH 714 0
DWIDTH 8 0
BBX 8 16 0 -3
BITMAP
00
00
00
36
49
49
49
36
00
00
00
00
00
00
00
00
ENDCHAR

STARTCHAR C285
ENCODING 29
SWIDTH 714 0
DWIDTH 8 0
BBX 8 16 0 -3
BITMAP
00
00
00
31
4A
4C
4C
4C
4A
31
00
00
00
00
00
00
ENDCHAR

STARTCHAR C286
ENCODING 30
SWIDTH 714 0
DWIDTH 8 0
BBX 8 16 0 -3
BITMAP
00
7F
08
1C
22
22
22
1C
08
7F
00
00
00
00
00
00
ENDCHAR

STARTCHAR C287
ENCODING 31
SWIDTH 714 0
DWIDTH 8 0
BBX 8 16 0 -3
BITMAP
00
3E
41
41
41
41
41
41
41
41
00
00
00
00
00
00
ENDCHAR

STARTCHAR C288
ENCODING 32
SWIDTH 714 0
DWIDTH 8 0
BBX 8 16 0 -3
BITMAP
00
00
00
00
00
00
00
00
00
00
00
00
00
00
00
00
ENDCHAR

STARTCHAR C289
ENCODING 33
SWIDTH 714 0
DWIDTH 8 0
BBX 8 16 0 -3
BITMAP
00
00
00
00
00
00
00
00
00
00
00
00
00
00
FF
FF
ENDCHAR

STARTCHAR C290
ENCODING 34
SWIDTH 714 0
DWIDTH 8 0
BBX 8 16 0 -3
BITMAP
00
00
00
00
00
00
00
00
00
00
00
00
FF
FF
FF
FF
ENDCHAR

STARTCHAR C291
ENCODING 35
SWIDTH 714 0
DWIDTH 8 0
BBX 8 16 0 -3
BITMAP
00
00
00
00
00
00
00
00
00
00
FF
FF
FF
FF
FF
FF
ENDCHAR

STARTCHAR C292
ENCODING 36
SWIDTH 714 0
DWIDTH 8 0
BBX 8 16 0 -3
BITMAP
00
00
00
00
00
00
00
00
FF
FF
FF
FF
FF
FF
FF
FF
ENDCHAR

STARTCHAR C293
ENCODING 37
SWIDTH 714 0
DWIDTH 8 0
BBX 8 16 0 -3
BITMAP
00
00
00
00
00
00
FF
FF
FF
FF
FF
FF
FF
FF
FF
FF
ENDCHAR

STARTCHAR C294
ENCODING 38
SWIDTH 714 0
DWIDTH 8 0
BBX 8 16 0 -3
BITMAP
00
00
00
00
FF
FF
FF
FF
FF
FF
FF
FF
FF
FF
FF
FF
ENDCHAR

STARTCHAR C295
ENCODING 39
SWIDTH 714 0
DWIDTH 8 0
BBX 8 16 0 -3
BITMAP
00
00
FF
FF
FF
FF
FF
FF
FF
FF
FF
FF
FF
FF
FF
FF
ENDCHAR

STARTCHAR C296
ENCODING 40
SWIDTH 714 0
DWIDTH 8 0
BBX 8 16 0 -3
BITMAP
00
00
00
00
00
00
00
00
00
00
FF
FF
00
00
FF
FF
ENDCHAR

STARTCHAR C297
ENCODING 41
SWIDTH 714 0
DWIDTH 8 0
BBX 8 16 0 -3
BITMAP
00
00
00
00
00
00
00
00
FF
FF
FF
FF
00
00
FF
FF
ENDCHAR

STARTCHAR C298
ENCODING 42
SWIDTH 714 0
DWIDTH 8 0
BBX 8 16 0 -3
BITMAP
00
00
00
00
00
00
FF
FF
FF
FF
FF
FF
00
00
FF
FF
ENDCHAR

STARTCHAR C299
ENCODING 43
SWIDTH 714 0
DWIDTH 8 0
BBX 8 16 0 -3
BITMAP
00
00
00
00
FF
FF
FF
FF
FF
FF
FF
FF
00
00
FF
FF
ENDCHAR

STARTCHAR C300
ENCODING 44
SWIDTH 714 0
DWIDTH 8 0
BBX 8 16 0 -3
BITMAP
00
00
FF
FF
FF
FF
FF
FF
FF
FF
FF
FF
00
00
FF
FF
ENDCHAR

STARTCHAR C301
ENCODING 45
SWIDTH 714 0
DWIDTH 8 0
BBX 8 16 0 -3
BITMAP
FF
FF
FF
FF
FF
FF
FF
FF
FF
FF
FF
FF
00
00
FF
FF
ENDCHAR

STARTCHAR C302
ENCODING 46
SWIDTH 714 0
DWIDTH 8 0
BBX 8 16 0 -3
BITMAP
00
00
00
00
00
00
00
00
FF
FF
00
00
00
00
FF
FF
ENDCHAR

STARTCHAR C303
ENCODING 47
SWIDTH 714 0
DWIDTH 8 0
BBX 8 16 0 -3
BITMAP
00
00
00
00
00
00
FF
FF
00
00
00
00
00
00
FF
FF
ENDCHAR

STARTCHAR C304
ENCODING 48
SWIDTH 714 0
DWIDTH 8 0
BBX 8 16 0 -3
BITMAP
00
00
00
00
FF
FF
00
00
00
00
00
00
00
00
FF
FF
ENDCHAR

STARTCHAR C305
ENCODING 49
SWIDTH 714 0
DWIDTH 8 0
BBX 8 16 0 -3
BITMAP
00
00
FF
FF
00
00
00
00
00
00
00
00
00
00
FF
FF
ENDCHAR

STARTCHAR C306
ENCODING 50
SWIDTH 714 0
DWIDTH 8 0
BBX 8 16 0 -3
BITMAP
FF
FF
00
00
00
00
00
00
00
00
00
00
00
00
FF
FF
ENDCHAR

STARTCHAR C307
ENCODING 51
SWIDTH 714 0
DWIDTH 8 0
BBX 8 16 0 -3
BITMAP
00
00
00
00
00
00
00
00
FF
FF
00
00
FF
FF
FF
FF
ENDCHAR

STARTCHAR C308
ENCODING 52
SWIDTH 714 0
DWIDTH 8 0
BBX 8 16 0 -3
BITMAP
00
00
00
00
00
00
FF
FF
FF
FF
00
00
FF
FF
FF
FF
ENDCHAR

STARTCHAR C309
ENCODING 53
SWIDTH 714 0
DWIDTH 8 0
BBX 8 16 0 -3
BITMAP
00
00
00
00
FF
FF
FF
FF
FF
FF
00
00
FF
FF
FF
FF
ENDCHAR

STARTCHAR C310
ENCODING 54
SWIDTH 714 0
DWIDTH 8 0
BBX 8 16 0 -3
BITMAP
00
00
FF
FF
FF
FF
FF
FF
FF
FF
00
00
FF
FF
FF
FF
ENDCHAR

STARTCHAR C311
ENCODING 55
SWIDTH 714 0
DWIDTH 8 0
BBX 8 16 0 -3
BITMAP
FF
FF
FF
FF
FF
FF
FF
FF
FF
FF
00
00
FF
FF
FF
FF
ENDCHAR

STARTCHAR C312
ENCODING 56
SWIDTH 714 0
DWIDTH 8 0
BBX 8 16 0 -3
BITMAP
00
00
00
00
00
00
FF
FF
00
00
00
00
FF
FF
FF
FF
ENDCHAR

STARTCHAR C313
ENCODING 57
SWIDTH 714 0
DWIDTH 8 0
BBX 8 16 0 -3
BITMAP
00
00
00
00
FF
FF
00
00
00
00
00
00
FF
FF
FF
FF
ENDCHAR

STARTCHAR C314
ENCODING 58
SWIDTH 714 0
DWIDTH 8 0
BBX 8 16 0 -3
BITMAP
00
00
FF
FF
00
00
00
00
00
00
00
00
FF
FF
FF
FF
ENDCHAR

STARTCHAR C315
ENCODING 59
SWIDTH 714 0
DWIDTH 8 0
BBX 8 16 0 -3
BITMAP
FF
FF
00
00
00
00
00
00
00
00
00
00
FF
FF
FF
FF
ENDCHAR

STARTCHAR C316
ENCODING 60
SWIDTH 714 0
DWIDTH 8 0
BBX 8 16 0 -3
BITMAP
00
00
00
00
00
00
FF
FF
00
00
FF
FF
FF
FF
FF
FF
ENDCHAR

STARTCHAR C317
ENCODING 61
SWIDTH 714 0
DWIDTH 8 0
BBX 8 16 0 -3
BITMAP
00
00
00
00
FF
FF
FF
FF
00
00
FF
FF
FF
FF
FF
FF
ENDCHAR

STARTCHAR C318
ENCODING 62
SWIDTH 714 0
DWIDTH 8 0
BBX 8 16 0 -3
BITMAP
00
00
FF
FF
FF
FF
FF
FF
00
00
FF
FF
FF
FF
FF
FF
ENDCHAR

STARTCHAR C319
ENCODING 63
SWIDTH 714 0
DWIDTH 8 0
BBX 8 16 0 -3
BITMAP
FF
FF
FF
FF
FF
FF
FF
FF
00
00
FF
FF
FF
FF
FF
FF
ENDCHAR

STARTCHAR C320
ENCODING 64
SWIDTH 714 0
DWIDTH 8 0
BBX 8 16 0 -3
BITMAP
10
10
10
10
10
10
10
10
10
10
10
10
10
10
10
10
ENDCHAR

STARTCHAR C321
ENCODING 65
SWIDTH 714 0
DWIDTH 8 0
BBX 8 16 0 -3
BITMAP
00
00
00
00
00
00
00
FF
00
00
00
00
00
00
00
00
ENDCHAR

STARTCHAR C322
ENCODING 66
SWIDTH 714 0
DWIDTH 8 0
BBX 8 16 0 -3
BITMAP
00
00
00
00
00
00
00
1F
10
10
10
10
10
10
10
10
ENDCHAR

STARTCHAR C323
ENCODING 67
SWIDTH 714 0
DWIDTH 8 0
BBX 8 16 0 -3
BITMAP
00
00
00
00
00
00
00
F0
10
10
10
10
10
10
10
10
ENDCHAR

STARTCHAR C324
ENCODING 68
SWIDTH 714 0
DWIDTH 8 0
BBX 8 16 0 -3
BITMAP
10
10
10
10
10
10
10
1F
00
00
00
00
00
00
00
00
ENDCHAR

STARTCHAR C325
ENCODING 69
SWIDTH 714 0
DWIDTH 8 0
BBX 8 16 0 -3
BITMAP
10
10
10
10
10
10
10
F0
00
00
00
00
00
00
00
00
ENDCHAR

STARTCHAR C326
ENCODING 70
SWIDTH 714 0
DWIDTH 8 0
BBX 8 16 0 -3
BITMAP
10
10
10
10
10
10
10
1F
10
10
10
10
10
10
10
10
ENDCHAR

STARTCHAR C327
ENCODING 71
SWIDTH 714 0
DWIDTH 8 0
BBX 8 16 0 -3
BITMAP
10
10
10
10
10
10
10
F0
10
10
10
10
10
10
10
10
ENDCHAR

STARTCHAR C328
ENCODING 72
SWIDTH 714 0
DWIDTH 8 0
BBX 8 16 0 -3
BITMAP
00
00
00
00
00
00
00
FF
10
10
10
10
10
10
10
10
ENDCHAR

STARTCHAR C329
ENCODING 73
SWIDTH 714 0
DWIDTH 8 0
BBX 8 16 0 -3
BITMAP
10
10
10
10
10
10
10
FF
00
00
00
00
00
00
00
00
ENDCHAR

STARTCHAR C330
ENCODING 74
SWIDTH 714 0
DWIDTH 8 0
BBX 8 16 0 -3
BITMAP
10
10
10
10
10
10
10
FF
10
10
10
10
10
10
10
10
ENDCHAR

STARTCHAR C331
ENCODING 75
SWIDTH 714 0
DWIDTH 8 0
BBX 8 16 0 -3
BITMAP
80
80
80
80
80
80
80
80
80
80
80
80
80
80
80
80
ENDCHAR

STARTCHAR C332
ENCODING 76
SWIDTH 714 0
DWIDTH 8 0
BBX 8 16 0 -3
BITMAP
01
01
01
01
01
01
01
01
01
01
01
01
01
01
01
01
ENDCHAR

STARTCHAR C333
ENCODING 77
SWIDTH 714 0
DWIDTH 8 0
BBX 8 16 0 -3
BITMAP
81
81
81
81
81
81
81
81
81
81
81
81
81
81
81
81
ENDCHAR

STARTCHAR C334
ENCODING 78
SWIDTH 714 0
DWIDTH 8 0
BBX 8 16 0 -3
BITMAP
3E
3E
7F
22
22
1C
08
7F
49
08
08
3E
22
22
63
00
ENDCHAR

STARTCHAR C335
ENCODING 79
SWIDTH 714 0
DWIDTH 8 0
BBX 8 16 0 -3
BITMAP
00
00
00
00
FF
FF
00
00
00
00
FF
FF
FF
FF
FF
FF
ENDCHAR

STARTCHAR C336
ENCODING 80
SWIDTH 714 0
DWIDTH 8 0
BBX 8 16 0 -3
BITMAP
00
00
FF
FF
00
00
00
00
00
00
FF
FF
FF
FF
FF
FF
ENDCHAR

STARTCHAR C337
ENCODING 81
SWIDTH 714 0
DWIDTH 8 0
BBX 8 16 0 -3
BITMAP
FF
FF
00
00
00
00
00
00
00
00
FF
FF
FF
FF
FF
FF
ENDCHAR

STARTCHAR C338
ENCODING 82
SWIDTH 714 0
DWIDTH 8 0
BBX 8 16 0 -3
BITMAP
00
00
00
00
FF
FF
00
00
FF
FF
FF
FF
FF
FF
FF
FF
ENDCHAR

STARTCHAR C339
ENCODING 83
SWIDTH 714 0
DWIDTH 8 0
BBX 8 16 0 -3
BITMAP
00
00
FF
FF
FF
FF
00
00
FF
FF
FF
FF
FF
FF
FF
FF
ENDCHAR

STARTCHAR C340
ENCODING 84
SWIDTH 714 0
DWIDTH 8 0
BBX 8 16 0 -3
BITMAP
FF
FF
FF
FF
FF
FF
00
00
FF
FF
FF
FF
FF
FF
FF
FF
ENDCHAR

STARTCHAR C341
ENCODING 85
SWIDTH 714 0
DWIDTH 8 0
BBX 8 16 0 -3
BITMAP
00
00
FF
FF
00
00
00
00
FF
FF
FF
FF
FF
FF
FF
FF
ENDCHAR

STARTCHAR C342
ENCODING 86
SWIDTH 714 0
DWIDTH 8 0
BBX 8 16 0 -3
BITMAP
FF
FF
00
00
00
00
00
00
FF
FF
FF
FF
FF
FF
FF
FF
ENDCHAR

STARTCHAR C343
ENCODING 87
SWIDTH 714 0
DWIDTH 8 0
BBX 8 16 0 -3
BITMAP
00
00
FF
FF
00
00
FF
FF
FF
FF
FF
FF
FF
FF
FF
FF
ENDCHAR

STARTCHAR C344
ENCODING 88
SWIDTH 714 0
DWIDTH 8 0
BBX 8 16 0 -3
BITMAP
FF
FF
FF
FF
00
00
FF
FF
FF
FF
FF
FF
FF
FF
FF
FF
ENDCHAR

STARTCHAR C345
ENCODING 89
SWIDTH 714 0
DWIDTH 8 0
BBX 8 16 0 -3
BITMAP
FF
FF
00
00
00
00
FF
FF
FF
FF
FF
FF
FF
FF
FF
FF
ENDCHAR

STARTCHAR C346
ENCODING 90
SWIDTH 714 0
DWIDTH 8 0
BBX 8 16 0 -3
BITMAP
FF
FF
00
00
FF
FF
FF
FF
FF
FF
FF
FF
FF
FF
FF
FF
ENDCHAR

STARTCHAR C347
ENCODING 91
SWIDTH 714 0
DWIDTH 8 0
BBX 8 16 0 -3
BITMAP
00
00
00
00
00
00
00
00
00
00
00
00
FF
FF
00
00
ENDCHAR

STARTCHAR C348
ENCODING 92
SWIDTH 714 0
DWIDTH 8 0
BBX 8 16 0 -3
BITMAP
00
00
00
00
00
00
00
00
00
00
FF
FF
FF
FF
00
00
ENDCHAR

STARTCHAR C349
ENCODING 93
SWIDTH 714 0
DWIDTH 8 0
BBX 8 16 0 -3
BITMAP
FF
00
FF
00
FF
00
FF
00
FF
00
FF
00
FF
00
FF
00
ENDCHAR

STARTCHAR C350
ENCODING 94
SWIDTH 714 0
DWIDTH 8 0
BBX 8 16 0 -3
BITMAP
00
FF
00
FF
00
FF
00
FF
00
FF
00
FF
00
FF
00
FF
ENDCHAR

STARTCHAR C351
ENCODING 95
SWIDTH 714 0
DWIDTH 8 0
BBX 8 16 0 -3
BITMAP
FF
FF
FF
FF
FF
FF
FF
FF
FF
FF
FF
FF
FF
FF
FF
FF
ENDCHAR

STARTCHAR C352
ENCODING 96
SWIDTH 714 0
DWIDTH 8 0
BBX 8 16 0 -3
BITMAP
18
18
18
18
18
18
18
18
18
18
18
18
18
18
18
18
ENDCHAR

STARTCHAR C353
ENCODING 97
SWIDTH 714 0
DWIDTH 8 0
BBX 8 16 0 -3
BITMAP
00
00
00
00
00
00
00
FF
FF
00
00
00
00
00
00
00
ENDCHAR

STARTCHAR C354
ENCODING 98
SWIDTH 714 0
DWIDTH 8 0
BBX 8 16 0 -3
BITMAP
00
00
00
00
00
00
00
1F
1F
18
18
18
18
18
18
18
ENDCHAR

STARTCHAR C355
ENCODING 99
SWIDTH 714 0
DWIDTH 8 0
BBX 8 16 0 -3
BITMAP
00
00
00
00
00
00
00
F8
F8
18
18
18
18
18
18
18
ENDCHAR

STARTCHAR C356
ENCODING 100
SWIDTH 714 0
DWIDTH 8 0
BBX 8 16 0 -3
BITMAP
18
18
18
18
18
18
18
1F
1F
00
00
00
00
00
00
00
ENDCHAR

STARTCHAR C357
ENCODING 101
SWIDTH 714 0
DWIDTH 8 0
BBX 8 16 0 -3
BITMAP
18
18
18
18
18
18
18
F8
F8
00
00
00
00
00
00
00
ENDCHAR

STARTCHAR C358
ENCODING 102
SWIDTH 714 0
DWIDTH 8 0
BBX 8 16 0 -3
BITMAP
18
18
18
18
18
18
18
1F
1F
18
18
18
18
18
18
18
ENDCHAR

STARTCHAR C359
ENCODING 103
SWIDTH 714 0
DWIDTH 8 0
BBX 8 16 0 -3
BITMAP
18
18
18
18
18
18
18
F8
F8
18
18
18
18
18
18
18
ENDCHAR

STARTCHAR C360
ENCODING 104
SWIDTH 714 0
DWIDTH 8 0
BBX 8 16 0 -3
BITMAP
00
00
00
00
00
00
00
FF
FF
18
18
18
18
18
18
18
ENDCHAR

STARTCHAR C361
ENCODING 105
SWIDTH 714 0
DWIDTH 8 0
BBX 8 16 0 -3
BITMAP
18
18
18
18
18
18
18
FF
FF
00
00
00
00
00
00
00
ENDCHAR

STARTCHAR C362
ENCODING 106
SWIDTH 714 0
DWIDTH 8 0
BBX 8 16 0 -3
BITMAP
18
18
18
18
18
18
18
FF
FF
18
18
18
18
18
18
18
ENDCHAR

STARTCHAR C363
ENCODING 107
SWIDTH 714 0
DWIDTH 8 0
BBX 8 16 0 -3
BITMAP
80
80
80
80
80
80
80
FF
00
00
00
00
00
00
00
00
ENDCHAR

STARTCHAR C364
ENCODING 108
SWIDTH 714 0
DWIDTH 8 0
BBX 8 16 0 -3
BITMAP
01
01
01
01
01
01
01
FF
00
00
00
00
00
00
00
00
ENDCHAR

STARTCHAR C365
ENCODING 109
SWIDTH 714 0
DWIDTH 8 0
BBX 8 16 0 -3
BITMAP
00
AA
00
AA
00
AA
00
AA
00
AA
00
AA
00
AA
00
AA
ENDCHAR

STARTCHAR C366
ENCODING 110
SWIDTH 714 0
DWIDTH 8 0
BBX 8 16 0 -3
BITMAP
55
AA
55
AA
55
AA
55
AA
55
AA
55
AA
55
AA
55
AA
ENDCHAR

STARTCHAR C367
ENCODING 111
SWIDTH 714 0
DWIDTH 8 0
BBX 8 16 0 -3
BITMAP
00
00
00
00
00
00
00
00
FF
FF
FF
FF
FF
FF
00
00
ENDCHAR

STARTCHAR C368
ENCODING 112
SWIDTH 714 0
DWIDTH 8 0
BBX 8 16 0 -3
BITMAP
00
00
00
00
00
00
FF
FF
FF
FF
FF
FF
FF
FF
00
00
ENDCHAR

STARTCHAR C369
ENCODING 113
SWIDTH 714 0
DWIDTH 8 0
BBX 8 16 0 -3
BITMAP
00
00
00
00
FF
FF
FF
FF
FF
FF
FF
FF
FF
FF
00
00
ENDCHAR

STARTCHAR C370
ENCODING 114
SWIDTH 714 0
DWIDTH 8 0
BBX 8 16 0 -3
BITMAP
00
00
FF
FF
FF
FF
FF
FF
FF
FF
FF
FF
FF
FF
00
00
ENDCHAR

STARTCHAR C371
ENCODING 115
SWIDTH 714 0
DWIDTH 8 0
BBX 8 16 0 -3
BITMAP
FF
FF
FF
FF
FF
FF
FF
FF
FF
FF
FF
FF
FF
FF
00
00
ENDCHAR

STARTCHAR C372
ENCODING 116
SWIDTH 714 0
DWIDTH 8 0
BBX 8 16 0 -3
BITMAP
00
00
00
00
00
00
00
00
00
00
FF
FF
00
00
00
00
ENDCHAR

STARTCHAR C373
ENCODING 117
SWIDTH 714 0
DWIDTH 8 0
BBX 8 16 0 -3
BITMAP
FF
FF
FF
FF
FF
FF
FF
FF
FF
FF
FF
FF
00
00
00
00
ENDCHAR

STARTCHAR C374
ENCODING 118
SWIDTH 714 0
DWIDTH 8 0
BBX 8 16 0 -3
BITMAP
00
00
00
00
00
00
00
00
FF
FF
00
00
00
00
00
00
ENDCHAR

STARTCHAR C375
ENCODING 119
SWIDTH 714 0
DWIDTH 8 0
BBX 8 16 0 -3
BITMAP
FF
FF
FF
FF
FF
FF
FF
FF
FF
FF
00
00
00
00
00
00
ENDCHAR

STARTCHAR C376
ENCODING 120
SWIDTH 714 0
DWIDTH 8 0
BBX 8 16 0 -3
BITMAP
00
00
00
00
00
00
FF
FF
00
00
00
00
00
00
00
00
ENDCHAR

STARTCHAR C377
ENCODING 121
SWIDTH 714 0
DWIDTH 8 0
BBX 8 16 0 -3
BITMAP
FF
FF
FF
FF
FF
FF
FF
FF
00
00
00
00
00
00
00
00
ENDCHAR

STARTCHAR C378
ENCODING 122
SWIDTH 714 0
DWIDTH 8 0
BBX 8 16 0 -3
BITMAP
00
00
00
00
FF
FF
00
00
00
00
00
00
00
00
00
00
ENDCHAR

STARTCHAR C379
ENCODING 123
SWIDTH 714 0
DWIDTH 8 0
BBX 8 16 0 -3
BITMAP
FF
FF
FF
FF
FF
FF
00
00
00
00
00
00
00
00
00
00
ENDCHAR

STARTCHAR C380
ENCODING 124
SWIDTH 714 0
DWIDTH 8 0
BBX 8 16 0 -3
BITMAP
00
00
FF
FF
00
00
00
00
00
00
00
00
00
00
00
00
ENDCHAR

STARTCHAR C381
ENCODING 125
SWIDTH 714 0
DWIDTH 8 0
BBX 8 16 0 -3
BITMAP
FF
FF
FF
FF
00
00
00
00
00
00
00
00
00
00
00
00
ENDCHAR

STARTCHAR C382
ENCODING 126
SWIDTH 714 0
DWIDTH 8 0
BBX 8 16 0 -3
BITMAP
FF
FF
00
00
00
00
00
00
00
00
00
00
00
00
00
00
ENDCHAR

STARTCHAR C383
ENCODING 127
SWIDTH 714 0
DWIDTH 8 0
BBX 8 16 0 -3
BITMAP
04
08
00
08
28
08
08
08
08
3E
00
00
00
00
00
00
ENDCHAR

STARTCHAR C384
ENCODING 128
SWIDTH 714 0
DWIDTH 8 0
BBX 8 16 0 -3
BITMAP
18
18
18
18
18
FF
FF
FF
FF
FF
FF
00
00
00
00
00
ENDCHAR

STARTCHAR C385
ENCODING 129
SWIDTH 714 0
DWIDTH 8 0
BBX 8 16 0 -3
BITMAP
00
00
00
00
00
FF
FF
FF
FF
FF
FF
18
18
18
18
18
ENDCHAR

STARTCHAR C386
ENCODING 130
SWIDTH 714 0
DWIDTH 8 0
BBX 8 16 0 -3
BITMAP
18
18
18
18
18
1F
1F
1F
1F
1F
1F
18
18
18
18
18
ENDCHAR

STARTCHAR C387
ENCODING 131
SWIDTH 714 0
DWIDTH 8 0
BBX 8 16 0 -3
BITMAP
18
18
18
18
18
F8
F8
F8
F8
F8
F8
18
18
18
18
18
ENDCHAR

STARTCHAR C388
ENCODING 132
SWIDTH 714 0
DWIDTH 8 0
BBX 8 16 0 -3
BITMAP
18
18
30
30
60
60
C0
C0
C0
C0
60
60
30
30
18
18
ENDCHAR

STARTCHAR C389
ENCODING 133
SWIDTH 714 0
DWIDTH 8 0
BBX 8 16 0 -3
BITMAP
18
18
0C
0C
06
06
03
03
03
03
06
06
0C
0C
18
18
ENDCHAR

STARTCHAR C390
ENCODING 134
SWIDTH 714 0
DWIDTH 8 0
BBX 8 16 0 -3
BITMAP
00
00
00
00
00
00
00
00
C3
C3
66
66
3C
3C
18
18
ENDCHAR

STARTCHAR C391
ENCODING 135
SWIDTH 714 0
DWIDTH 8 0
BBX 8 16 0 -3
BITMAP
18
18
3C
3C
66
66
C3
C3
00
00
00
00
00
00
00
00
ENDCHAR

STARTCHAR C392
ENCODING 136
SWIDTH 714 0
DWIDTH 8 0
BBX 8 16 0 -3
BITMAP
18
18
30
30
60
60
C0
C0
00
00
00
00
00
00
00
00
ENDCHAR

STARTCHAR C393
ENCODING 137
SWIDTH 714 0
DWIDTH 8 0
BBX 8 16 0 -3
BITMAP
18
18
0C
0C
06
06
03
03
00
00
00
00
00
00
00
00
ENDCHAR

STARTCHAR C394
ENCODING 138
SWIDTH 714 0
DWIDTH 8 0
BBX 8 16 0 -3
BITMAP
00
00
00
00
00
00
00
00
C0
C0
60
60
30
30
18
18
ENDCHAR

STARTCHAR C395
ENCODING 139
SWIDTH 714 0
DWIDTH 8 0
BBX 8 16 0 -3
BITMAP
00
00
00
00
00
00
00
00
03
03
06
06
0C
0C
18
18
ENDCHAR

STARTCHAR C396
ENCODING 140
SWIDTH 714 0
DWIDTH 8 0
BBX 8 16 0 -3
BITMAP
18
18
18
18
18
FF
FF
FF
FF
FF
FF
18
18
18
18
18
ENDCHAR

STARTCHAR C397
ENCODING 141
SWIDTH 714 0
DWIDTH 8 0
BBX 8 16 0 -3
BITMAP
00
FE
82
82
7C
38
10
28
44
82
FE
FE
00
00
00
00
ENDCHAR

STARTCHAR C398
ENCODING 142
SWIDTH 714 0
DWIDTH 8 0
BBX 8 16 0 -3
BITMAP
00
00
00
00
38
7C
FE
FE
7C
38
00
00
00
00
00
00
ENDCHAR

STARTCHAR C399
ENCODING 143
SWIDTH 714 0
DWIDTH 8 0
BBX 8 16 0 -3
BITMAP
00
00
00
00
38
7C
C6
C6
7C
38
00
00
00
00
00
00
ENDCHAR

STARTCHAR C400
ENCODING 144
SWIDTH 714 0
DWIDTH 8 0
BBX 8 16 0 -3
BITMAP
08
08
08
08
08
08
08
08
08
08
08
08
08
08
08
08
ENDCHAR

STARTCHAR C401
ENCODING 145
SWIDTH 714 0
DWIDTH 8 0
BBX 8 16 0 -3
BITMAP
00
00
00
00
00
00
00
FF
00
00
00
00
00
00
00
00
ENDCHAR

STARTCHAR C402
ENCODING 146
SWIDTH 714 0
DWIDTH 8 0
BBX 8 16 0 -3
BITMAP
00
00
00
00
00
00
00
0F
08
08
08
08
08
08
08
08
ENDCHAR

STARTCHAR C403
ENCODING 147
SWIDTH 714 0
DWIDTH 8 0
BBX 8 16 0 -3
BITMAP
00
00
00
00
00
00
00
F8
08
08
08
08
08
08
08
08
ENDCHAR

STARTCHAR C404
ENCODING 148
SWIDTH 714 0
DWIDTH 8 0
BBX 8 16 0 -3
BITMAP
08
08
08
08
08
08
08
0F
00
00
00
00
00
00
00
00
ENDCHAR

STARTCHAR C405
ENCODING 149
SWIDTH 714 0
DWIDTH 8 0
BBX 8 16 0 -3
BITMAP
08
08
08
08
08
08
08
F8
00
00
00
00
00
00
00
00
ENDCHAR

STARTCHAR C406
ENCODING 150
SWIDTH 714 0
DWIDTH 8 0
BBX 8 16 0 -3
BITMAP
08
08
08
08
08
08
08
0F
08
08
08
08
08
08
08
08
ENDCHAR

STARTCHAR C407
ENCODING 151
SWIDTH 714 0
DWIDTH 8 0
BBX 8 16 0 -3
BITMAP
08
08
08
08
08
08
08
F8
08
08
08
08
08
08
08
08
ENDCHAR

STARTCHAR C408
ENCODING 152
SWIDTH 714 0
DWIDTH 8 0
BBX 8 16 0 -3
BITMAP
00
00
00
00
00
00
00
FF
08
08
08
08
08
08
08
08
ENDCHAR

STARTCHAR C409
ENCODING 153
SWIDTH 714 0
DWIDTH 8 0
BBX 8 16 0 -3
BITMAP
08
08
08
08
08
08
08
FF
00
00
00
00
00
00
00
00
ENDCHAR

STARTCHAR C410
ENCODING 154
SWIDTH 714 0
DWIDTH 8 0
BBX 8 16 0 -3
BITMAP
08
08
08
08
08
08
08
FF
08
08
08
08
08
08
08
08
ENDCHAR

STARTCHAR C411
ENCODING 155
SWIDTH 714 0
DWIDTH 8 0
BBX 8 16 0 -3
BITMAP
00
00
00
00
00
04
06
FF
06
04
00
00
00
00
00
00
ENDCHAR

STARTCHAR C412
ENCODING 156
SWIDTH 714 0
DWIDTH 8 0
BBX 8 16 0 -3
BITMAP
00
00
00
00
00
20
60
FF
60
20
00
00
00
00
00
00
ENDCHAR

STARTCHAR C413
ENCODING 157
SWIDTH 714 0
DWIDTH 8 0
BBX 8 16 0 -3
BITMAP
08
1C
3E
08
08
08
08
08
08
08
08
08
08
08
08
08
ENDCHAR

STARTCHAR C414
ENCODING 158
SWIDTH 714 0
DWIDTH 8 0
BBX 8 16 0 -3
BITMAP
08
08
08
08
08
08
08
08
08
08
08
08
08
3E
1C
08
ENDCHAR

STARTCHAR C415
ENCODING 159
SWIDTH 714 0
DWIDTH 8 0
BBX 8 16 0 -3
BITMAP
08
08
08
08
08
08
08
08
00
00
00
00
00
00
00
00
ENDCHAR

STARTCHAR C416
ENCODING 160
SWIDTH 714 0
DWIDTH 8 0
BBX 8 16 0 -3
BITMAP
00
00
00
00
00
00
00
08
08
08
08
08
08
08
08
08
ENDCHAR

STARTCHAR C417
ENCODING 161
SWIDTH 714 0
DWIDTH 8 0
BBX 8 16 0 -3
BITMAP
00
00
00
38
54
92
9E
82
44
38
00
00
00
00
00
00
ENDCHAR

STARTCHAR C418
ENCODING 162
SWIDTH 714 0
DWIDTH 8 0
BBX 8 16 0 -3
BITMAP
00
00
00
00
00
00
00
03
04
08
08
08
08
08
08
08
ENDCHAR

STARTCHAR C419
ENCODING 163
SWIDTH 714 0
DWIDTH 8 0
BBX 8 16 0 -3
BITMAP
00
00
00
00
00
00
00
E0
10
08
08
08
08
08
08
08
ENDCHAR

STARTCHAR C420
ENCODING 164
SWIDTH 714 0
DWIDTH 8 0
BBX 8 16 0 -3
BITMAP
08
08
08
08
08
08
04
03
00
00
00
00
00
00
00
00
ENDCHAR

STARTCHAR C421
ENCODING 165
SWIDTH 714 0
DWIDTH 8 0
BBX 8 16 0 -3
BITMAP
08
08
08
08
08
08
10
E0
00
00
00
00
00
00
00
00
ENDCHAR

STARTCHAR C422
ENCODING 166
SWIDTH 714 0
DWIDTH 8 0
BBX 8 16 0 -3
BITMAP
08
08
08
08
08
04
02
01
02
04
08
08
08
08
08
08
ENDCHAR

STARTCHAR C423
ENCODING 167
SWIDTH 714 0
DWIDTH 8 0
BBX 8 16 0 -3
BITMAP
08
08
08
08
08
10
20
C0
20
10
08
08
08
08
08
08
ENDCHAR

STARTCHAR C424
ENCODING 168
SWIDTH 714 0
DWIDTH 8 0
BBX 8 16 0 -3
BITMAP
00
00
00
00
00
00
00
E3
14
08
08
00
00
00
00
00
ENDCHAR

STARTCHAR C425
ENCODING 169
SWIDTH 714 0
DWIDTH 8 0
BBX 8 16 0 -3
BITMAP
00
00
00
00
08
08
14
E3
00
00
00
00
00
00
00
00
ENDCHAR

STARTCHAR C426
ENCODING 170
SWIDTH 714 0
DWIDTH 8 0
BBX 8 16 0 -3
BITMAP
08
08
08
08
08
08
08
3E
08
08
08
08
08
08
08
08
ENDCHAR

STARTCHAR C427
ENCODING 171
SWIDTH 714 0
DWIDTH 8 0
BBX 8 16 0 -3
BITMAP
00
00
00
00
00
08
08
FF
08
08
00
00
00
00
00
00
ENDCHAR

STARTCHAR C428
ENCODING 172
SWIDTH 714 0
DWIDTH 8 0
BBX 8 16 0 -3
BITMAP
00
FF
00
FF
00
FF
00
FF
00
FF
00
FF
00
FF
00
FF
ENDCHAR

STARTCHAR C429
ENCODING 173
SWIDTH 714 0
DWIDTH 8 0
BBX 8 16 0 -3
BITMAP
00
6D
00
6D
00
6D
00
6D
00
6D
00
6D
00
6D
00
6D
ENDCHAR

STARTCHAR C430
ENCODING 174
SWIDTH 714 0
DWIDTH 8 0
BBX 8 16 0 -3
BITMAP
6D
92
6D
92
6D
92
6D
92
6D
92
6D
92
6D
92
6D
92
ENDCHAR

STARTCHAR C431
ENCODING 175
SWIDTH 714 0
DWIDTH 8 0
BBX 8 16 0 -3
BITMAP
6D
6D
6D
6D
6D
6D
6D
6D
6D
6D
6D
6D
6D
6D
6D
6D
ENDCHAR

STARTCHAR C432
ENCODING 176
SWIDTH 714 0
DWIDTH 8 0
BBX 8 16 0 -3
BITMAP
18
18
18
18
18
18
18
18
18
18
18
18
18
18
18
18
ENDCHAR

STARTCHAR C433
ENCODING 177
SWIDTH 714 0
DWIDTH 8 0
BBX 8 16 0 -3
BITMAP
00
00
00
00
00
00
00
FF
FF
00
00
00
00
00
00
00
ENDCHAR

STARTCHAR C434
ENCODING 178
SWIDTH 714 0
DWIDTH 8 0
BBX 8 16 0 -3
BITMAP
00
00
00
00
00
00
00
1F
1F
18
18
18
18
18
18
18
ENDCHAR

STARTCHAR C435
ENCODING 179
SWIDTH 714 0
DWIDTH 8 0
BBX 8 16 0 -3
BITMAP
00
00
00
00
00
00
00
F8
F8
18
18
18
18
18
18
18
ENDCHAR

STARTCHAR C436
ENCODING 180
SWIDTH 714 0
DWIDTH 8 0
BBX 8 16 0 -3
BITMAP
18
18
18
18
18
18
18
1F
1F
00
00
00
00
00
00
00
ENDCHAR

STARTCHAR C437
ENCODING 181
SWIDTH 714 0
DWIDTH 8 0
BBX 8 16 0 -3
BITMAP
18
18
18
18
18
18
18
F8
F8
00
00
00
00
00
00
00
ENDCHAR

STARTCHAR C438
ENCODING 182
SWIDTH 714 0
DWIDTH 8 0
BBX 8 16 0 -3
BITMAP
18
18
18
18
18
18
18
1F
1F
18
18
18
18
18
18
18
ENDCHAR

STARTCHAR C439
ENCODING 183
SWIDTH 714 0
DWIDTH 8 0
BBX 8 16 0 -3
BITMAP
18
18
18
18
18
18
18
F8
F8
18
18
18
18
18
18
18
ENDCHAR

STARTCHAR C440
ENCODING 184
SWIDTH 714 0
DWIDTH 8 0
BBX 8 16 0 -3
BITMAP
00
00
00
00
00
00
00
FF
FF
18
18
18
18
18
18
18
ENDCHAR

STARTCHAR C441
ENCODING 185
SWIDTH 714 0
DWIDTH 8 0
BBX 8 16 0 -3
BITMAP
18
18
18
18
18
18
18
FF
FF
00
00
00
00
00
00
00
ENDCHAR

STARTCHAR C442
ENCODING 186
SWIDTH 714 0
DWIDTH 8 0
BBX 8 16 0 -3
BITMAP
18
18
18
18
18
18
18
FF
FF
18
18
18
18
18
18
18
ENDCHAR

STARTCHAR C443
ENCODING 187
SWIDTH 714 0
DWIDTH 8 0
BBX 8 16 0 -3
BITMAP
00
00
00
00
00
04
06
FF
FF
06
04
00
00
00
00
00
ENDCHAR

STARTCHAR C444
ENCODING 188
SWIDTH 714 0
DWIDTH 8 0
BBX 8 16 0 -3
BITMAP
00
00
00
00
00
20
60
FF
FF
60
20
00
00
00
00
00
ENDCHAR

STARTCHAR C445
ENCODING 189
SWIDTH 714 0
DWIDTH 8 0
BBX 8 16 0 -3
BITMAP
18
3C
7E
18
18
18
18
18
18
18
18
18
18
18
18
18
ENDCHAR

STARTCHAR C446
ENCODING 190
SWIDTH 714 0
DWIDTH 8 0
BBX 8 16 0 -3
BITMAP
18
18
18
18
18
18
18
18
18
18
18
18
18
7E
3C
18
ENDCHAR

STARTCHAR C447
ENCODING 191
SWIDTH 714 0
DWIDTH 8 0
BBX 8 16 0 -3
BITMAP
18
18
18
18
18
18
18
18
18
00
00
00
00
00
00
00
ENDCHAR

STARTCHAR C448
ENCODING 192
SWIDTH 714 0
DWIDTH 8 0
BBX 8 16 0 -3
BITMAP
00
00
00
00
00
00
00
18
18
18
18
18
18
18
18
18
ENDCHAR

STARTCHAR C449
ENCODING 193
SWIDTH 714 0
DWIDTH 8 0
BBX 8 16 0 -3
BITMAP
00
00
00
7C
00
7C
00
7C
00
00
00
00
00
00
00
00
ENDCHAR

STARTCHAR C450
ENCODING 194
SWIDTH 714 0
DWIDTH 8 0
BBX 8 16 0 -3
BITMAP
00
00
00
00
00
00
00
07
0F
1C
18
18
18
18
18
18
ENDCHAR

STARTCHAR C451
ENCODING 195
SWIDTH 714 0
DWIDTH 8 0
BBX 8 16 0 -3
BITMAP
00
00
00
00
00
00
00
E0
F0
38
18
18
18
18
18
18
ENDCHAR

STARTCHAR C452
ENCODING 196
SWIDTH 714 0
DWIDTH 8 0
BBX 8 16 0 -3
BITMAP
18
18
18
18
18
18
1C
0F
07
00
00
00
00
00
00
00
ENDCHAR

STARTCHAR C453
ENCODING 197
SWIDTH 714 0
DWIDTH 8 0
BBX 8 16 0 -3
BITMAP
18
18
18
18
18
18
38
F0
E0
00
00
00
00
00
00
00
ENDCHAR

STARTCHAR C454
ENCODING 198
SWIDTH 714 0
DWIDTH 8 0
BBX 8 16 0 -3
BITMAP
18
18
18
18
18
0C
06
03
03
06
0C
18
18
18
18
18
ENDCHAR

STARTCHAR C455
ENCODING 199
SWIDTH 714 0
DWIDTH 8 0
BBX 8 16 0 -3
BITMAP
18
18
18
18
18
30
60
C0
C0
60
30
18
18
18
18
18
ENDCHAR

STARTCHAR C456
ENCODING 200
SWIDTH 714 0
DWIDTH 8 0
BBX 8 16 0 -3
BITMAP
00
00
00
00
00
00
00
C3
E7
7E
18
18
00
00
00
00
ENDCHAR

STARTCHAR C457
ENCODING 201
SWIDTH 714 0
DWIDTH 8 0
BBX 8 16 0 -3
BITMAP
00
00
00
18
18
7E
E7
C3
00
00
00
00
00
00
00
00
ENDCHAR

STARTCHAR C458
ENCODING 202
SWIDTH 714 0
DWIDTH 8 0
BBX 8 16 0 -3
BITMAP
18
18
18
18
18
18
18
7E
7E
18
18
18
18
18
18
18
ENDCHAR

STARTCHAR C459
ENCODING 203
SWIDTH 714 0
DWIDTH 8 0
BBX 8 16 0 -3
BITMAP
00
00
00
00
00
18
18
FF
FF
18
18
00
00
00
00
00
ENDCHAR

STARTCHAR C460
ENCODING 204
SWIDTH 714 0
DWIDTH 8 0
BBX 8 16 0 -3
BITMAP
00
00
00
7C
42
40
40
40
40
40
00
00
00
00
00
00
ENDCHAR

STARTCHAR C461
ENCODING 205
SWIDTH 714 0
DWIDTH 8 0
BBX 8 16 0 -3
BITMAP
00
00
00
3E
50
48
48
48
48
30
00
00
00
00
00
00
ENDCHAR

STARTCHAR C462
ENCODING 206
SWIDTH 714 0
DWIDTH 8 0
BBX 8 16 0 -3
BITMAP
00
00
00
3E
48
08
08
08
08
04
00
00
00
00
00
00
ENDCHAR

STARTCHAR C463
ENCODING 207
SWIDTH 714 0
DWIDTH 8 0
BBX 8 16 0 -3
BITMAP
00
38
44
22
10
34
42
42
42
3C
00
00
00
00
00
00
ENDCHAR

STARTCHAR C464
ENCODING 208
SWIDTH 714 0
DWIDTH 8 0
BBX 8 16 0 -3
BITMAP
0F
0F
0F
0F
0F
0F
0F
0F
0F
0F
0F
0F
0F
0F
0F
0F
ENDCHAR

STARTCHAR C465
ENCODING 209
SWIDTH 714 0
DWIDTH 8 0
BBX 8 16 0 -3
BITMAP
F0
F0
F0
F0
F0
F0
F0
F0
F0
F0
F0
F0
F0
F0
F0
F0
ENDCHAR

STARTCHAR C466
ENCODING 210
SWIDTH 714 0
DWIDTH 8 0
BBX 8 16 0 -3
BITMAP
00
00
00
00
00
00
00
00
FF
FF
FF
FF
FF
FF
FF
FF
ENDCHAR

STARTCHAR C467
ENCODING 211
SWIDTH 714 0
DWIDTH 8 0
BBX 8 16 0 -3
BITMAP
FF
FF
FF
FF
FF
FF
FF
FF
00
00
00
00
00
00
00
00
ENDCHAR

STARTCHAR C468
ENCODING 212
SWIDTH 714 0
DWIDTH 8 0
BBX 8 16 0 -3
BITMAP
1F
1F
1F
1F
1F
1F
1F
1F
1F
1F
1F
1F
1F
1F
1F
1F
ENDCHAR

STARTCHAR C469
ENCODING 213
SWIDTH 714 0
DWIDTH 8 0
BBX 8 16 0 -3
BITMAP
F8
F8
F8
F8
F8
F8
F8
F8
F8
F8
F8
F8
F8
F8
F8
F8
ENDCHAR

STARTCHAR C470
ENCODING 214
SWIDTH 714 0
DWIDTH 8 0
BBX 8 16 0 -3
BITMAP
00
00
00
00
00
00
00
FF
FF
FF
FF
FF
FF
FF
FF
FF
ENDCHAR

STARTCHAR C471
ENCODING 215
SWIDTH 714 0
DWIDTH 8 0
BBX 8 16 0 -3
BITMAP
FF
FF
FF
FF
FF
FF
FF
FF
FF
00
00
00
00
00
00
00
ENDCHAR

STARTCHAR C472
ENCODING 216
SWIDTH 714 0
DWIDTH 8 0
BBX 8 16 0 -3
BITMAP
00
07
08
10
20
40
20
10
08
07
00
00
00
00
00
00
ENDCHAR

STARTCHAR C473
ENCODING 217
SWIDTH 714 0
DWIDTH 8 0
BBX 8 16 0 -3
BITMAP
00
FE
02
8A
52
22
52
8A
02
FE
00
00
00
00
00
00
ENDCHAR

STARTCHAR C474
ENCODING 218
SWIDTH 714 0
DWIDTH 8 0
BBX 8 16 0 -3
BITMAP
FF
FF
C1
C1
C1
C1
C1
C1
C1
C1
C1
C1
C1
C1
FF
FF
ENDCHAR

STARTCHAR C475
ENCODING 219
SWIDTH 714 0
DWIDTH 8 0
BBX 8 16 0 -3
BITMAP
00
1E
20
40
40
7E
40
40
20
1E
00
00
00
00
00
00
ENDCHAR

STARTCHAR C476
ENCODING 220
SWIDTH 714 0
DWIDTH 8 0
BBX 8 16 0 -3
BITMAP
00
10
08
04
02
04
08
10
00
1E
00
00
00
00
00
00
ENDCHAR

STARTCHAR C477
ENCODING 221
SWIDTH 714 0
DWIDTH 8 0
BBX 8 16 0 -3
BITMAP
00
02
04
08
10
08
04
02
00
1E
00
00
00
00
00
00
ENDCHAR

STARTCHAR C478
ENCODING 222
SWIDTH 714 0
DWIDTH 8 0
BBX 8 16 0 -3
BITMAP
00
3C
42
42
42
7E
42
42
42
3C
00
00
00
00
00
00
ENDCHAR

STARTCHAR C479
ENCODING 223
SWIDTH 714 0
DWIDTH 8 0
BBX 8 16 0 -3
BITMAP
00
07
04
04
04
04
64
14
0C
04
00
00
00
00
00
00
ENDCHAR

STARTCHAR C480
ENCODING 224
SWIDTH 714 0
DWIDTH 8 0
BBX 8 16 0 -3
BITMAP
00
10
00
00
10
10
10
10
10
10
00
00
00
00
00
00
ENDCHAR

STARTCHAR C481
ENCODING 225
SWIDTH 714 0
DWIDTH 8 0
BBX 8 16 0 -3
BITMAP
00
00
08
1E
29
48
48
48
29
1E
08
00
00
00
00
00
ENDCHAR

STARTCHAR C482
ENCODING 226
SWIDTH 714 0
DWIDTH 8 0
BBX 8 16 0 -3
BITMAP
00
41
41
22
14
08
08
3E
08
08
00
00
00
00
00
00
ENDCHAR

STARTCHAR C483
ENCODING 227
SWIDTH 714 0
DWIDTH 8 0
BBX 8 16 0 -3
BITMAP
00
00
00
00
12
24
48
24
12
00
00
00
00
00
00
00
ENDCHAR

STARTCHAR C484
ENCODING 228
SWIDTH 714 0
DWIDTH 8 0
BBX 8 16 0 -3
BITMAP
00
00
00
00
24
12
09
12
24
00
00
00
00
00
00
00
ENDCHAR

STARTCHAR C485
ENCODING 229
SWIDTH 714 0
DWIDTH 8 0
BBX 8 16 0 -3
BITMAP
00
00
00
08
08
7F
08
08
00
7F
00
00
00
00
00
00
ENDCHAR

STARTCHAR C486
ENCODING 230
SWIDTH 714 0
DWIDTH 8 0
BBX 8 16 0 -3
BITMAP
00
00
00
00
41
22
08
22
41
00
00
00
00
00
00
00
ENDCHAR

STARTCHAR C487
ENCODING 231
SWIDTH 714 0
DWIDTH 8 0
BBX 8 16 0 -3
BITMAP
00
00
00
00
08
00
3E
00
08
00
00
00
00
00
00
00
ENDCHAR

STARTCHAR C488
ENCODING 232
SWIDTH 714 0
DWIDTH 8 0
BBX 8 16 0 -3
BITMAP
00
10
30
10
10
7D
02
08
20
42
06
0A
1F
02
00
00
ENDCHAR

STARTCHAR C489
ENCODING 233
SWIDTH 714 0
DWIDTH 8 0
BBX 8 16 0 -3
BITMAP
00
10
30
10
10
7D
02
08
20
4E
11
02
04
1F
00
00
ENDCHAR

STARTCHAR C490
ENCODING 234
SWIDTH 714 0
DWIDTH 8 0
BBX 8 16 0 -3
BITMAP
00
7C
08
18
44
39
02
08
20
42
06
0A
1F
02
00
00
ENDCHAR

STARTCHAR C491
ENCODING 235
SWIDTH 714 0
DWIDTH 8 0
BBX 8 16 0 -3
BITMAP
00
08
00
08
08
10
20
40
42
3C
00
00
00
00
00
00
ENDCHAR

STARTCHAR C492
ENCODING 236
SWIDTH 714 0
DWIDTH 8 0
BBX 8 16 0 -3
BITMAP
00
08
00
00
00
00
00
00
00
00
00
00
00
00
00
00
ENDCHAR

STARTCHAR C493
ENCODING 237
SWIDTH 714 0
DWIDTH 8 0
BBX 8 16 0 -3
BITMAP
00
00
00
00
00
00
00
00
00
08
10
22
1C
00
00
00
ENDCHAR

STARTCHAR C494
ENCODING 238
SWIDTH 714 0
DWIDTH 8 0
BBX 8 16 0 -3
BITMAP
00
00
00
00
3F
3F
00
00
00
00
00
00
00
00
00
00
ENDCHAR

STARTCHAR C495
ENCODING 239
SWIDTH 714 0
DWIDTH 8 0
BBX 8 16 0 -3
BITMAP
00
00
00
75
27
25
25
25
00
00
00
00
00
00
00
00
ENDCHAR

STARTCHAR C496
ENCODING 240
SWIDTH 714 0
DWIDTH 8 0
BBX 8 16 0 -3
BITMAP
00
10
30
10
10
7D
02
08
20
4E
11
0E
11
0E
00
00
ENDCHAR

STARTCHAR C497
ENCODING 241
SWIDTH 714 0
DWIDTH 8 0
BBX 8 16 0 -3
BITMAP
00
7C
08
18
44
39
02
08
20
4E
11
0E
11
0E
00
00
ENDCHAR

STARTCHAR C498
ENCODING 242
SWIDTH 714 0
DWIDTH 8 0
BBX 8 16 0 -3
BITMAP
00
78
40
78
04
79
02
08
20
4E
11
0E
11
0E
00
00
ENDCHAR

STARTCHAR C499
ENCODING 243
SWIDTH 714 0
DWIDTH 8 0
BBX 8 16 0 -3
BITMAP
00
7C
04
08
10
11
02
08
20
4E
11
0E
11
0E
00
00
ENDCHAR

STARTCHAR C500
ENCODING 244
SWIDTH 714 0
DWIDTH 8 0
BBX 8 16 0 -3
BITMAP
00
00
00
3E
41
01
3F
41
43
3D
00
00
7F
00
00
00
ENDCHAR

STARTCHAR C501
ENCODING 245
SWIDTH 714 0
DWIDTH 8 0
BBX 8 16 0 -3
BITMAP
00
22
22
7F
22
3E
22
22
22
22
00
00
00
00
00
00
ENDCHAR

STARTCHAR C502
ENCODING 246
SWIDTH 714 0
DWIDTH 8 0
BBX 8 16 0 -3
BITMAP
00
20
70
20
2C
32
22
22
22
22
00
00
00
00
00
00
ENDCHAR

STARTCHAR C503
ENCODING 247
SWIDTH 714 0
DWIDTH 8 0
BBX 8 16 0 -3
BITMAP
00
40
40
40
48
40
40
40
40
7F
00
00
00
00
00
00
ENDCHAR

STARTCHAR C504
ENCODING 248
SWIDTH 714 0
DWIDTH 8 0
BBX 8 16 0 -3
BITMAP
00
10
10
10
12
10
10
10
10
0E
00
00
00
00
00
00
ENDCHAR

STARTCHAR C505
ENCODING 249
SWIDTH 714 0
DWIDTH 8 0
BBX 8 16 0 -3
BITMAP
00
00
00
1C
22
41
41
41
22
1C
00
00
7F
00
00
00
ENDCHAR

STARTCHAR C506
ENCODING 250
SWIDTH 714 0
DWIDTH 8 0
BBX 8 16 0 -3
BITMAP
00
7F
08
3E
08
08
08
08
08
08
00
00
00
00
00
00
ENDCHAR

STARTCHAR C507
ENCODING 251
SWIDTH 714 0
DWIDTH 8 0
BBX 8 16 0 -3
BITMAP
00
08
08
7F
08
3E
08
08
08
07
00
00
00
00
00
00
ENDCHAR

STARTCHAR C508
ENCODING 252
SWIDTH 714 0
DWIDTH 8 0
BBX 8 16 0 -3
BITMAP
00
5E
61
41
41
41
41
41
41
41
02
0C
00
00
00
00
ENDCHAR

STARTCHAR C509
ENCODING 253
SWIDTH 714 0
DWIDTH 8 0
BBX 8 16 0 -3
BITMAP
00
00
00
5E
61
41
41
41
41
41
02
0C
00
00
00
00
ENDCHAR

STARTCHAR C510
ENCODING 254
SWIDTH 714 0
DWIDTH 8 0
BBX 8 16 0 -3
BITMAP
20
20
00
5E
61
41
41
41
41
41
00
00
00
00
00
00
ENDCHAR

STARTCHAR C511
ENCODING 255
SWIDTH 714 0
DWIDTH 8 0
BBX 8 16 0 -3
BITMAP
00
12
12
12
12
12
12
12
12
12
00
00
00
00
00
00
ENDCHAR

ENDFONT
