STARTFONT 2.1
FONT -sni-97480i7-Medium-OT-Normal--13-130-75-75-C-60-iso8859-7
SIZE 13 75 75
FONTBOUNDINGBOX 6 13 0 -3

STARTPROPERTIES 23
FONTNAME_REGISTRY ""
FAMILY_NAME "97480i7"
FOUNDRY "sni"
WEIGHT_NAME "Medium"
SLANT "OT"
SETWIDTH_NAME "Normal"
ADD_STYLE_NAME ""
PIXEL_SIZE 13
POINT_SIZE 130
RESOLUTION_X 75
RESOLUTION_Y 75
SPACING "C"
AVERAGE_WIDTH 60
CHARSET_REGISTRY "iso8859"
CHARSET_ENCODING "7"
FACE_NAME "97801-480 ISO 8859-7"
X_HEIGHT 5
COPYRIGHT "Copyright (C) Siemens Nixdorf Informationssysteme AG 1992, All Rights Reserved"
WEIGHT 10
QUAD_WIDTH 6
DEFAULT_CHAR 0
FONT_DESCENT 3
FONT_ASCENT 10
ENDPROPERTIES

CHARS 256

STARTCHAR C546=0x222
ENCODING 0
SWIDTH 461 0
DWIDTH 6 0
BBX 6 13 0 -3
BITMAP
00
00
70
88
A8
70
00
70
88
A8
70
00
00
ENDCHAR

STARTCHAR C001=0x001
ENCODING 1
SWIDTH 461 0
DWIDTH 6 0
BBX 6 13 0 -3
BITMAP
00
00
00
00
F8
80
40
00
70
88
88
70
00
ENDCHAR

STARTCHAR C002=0x002
ENCODING 2
SWIDTH 461 0
DWIDTH 6 0
BBX 6 13 0 -3
BITMAP
00
00
00
68
98
98
48
00
70
88
88
70
00
ENDCHAR

STARTCHAR C003=0x003
ENCODING 3
SWIDTH 461 0
DWIDTH 6 0
BBX 6 13 0 -3
BITMAP
00
00
00
70
A8
A8
88
00
70
88
88
70
00
ENDCHAR

STARTCHAR C004=0x004
ENCODING 4
SWIDTH 461 0
DWIDTH 6 0
BBX 6 13 0 -3
BITMAP
00
00
00
10
B8
50
30
00
70
88
88
70
00
ENDCHAR

STARTCHAR C005=0x005
ENCODING 5
SWIDTH 461 0
DWIDTH 6 0
BBX 6 13 0 -3
BITMAP
00
00
00
90
A8
A8
E8
00
70
88
88
70
00
ENDCHAR

STARTCHAR C006=0x006
ENCODING 6
SWIDTH 461 0
DWIDTH 6 0
BBX 6 13 0 -3
BITMAP
00
00
00
90
A8
A8
70
00
70
88
88
70
00
ENDCHAR

STARTCHAR C007=0x007
ENCODING 7
SWIDTH 461 0
DWIDTH 6 0
BBX 6 13 0 -3
BITMAP
00
00
00
C0
A0
90
88
00
70
88
88
70
00
ENDCHAR

STARTCHAR C008=0x008
ENCODING 8
SWIDTH 461 0
DWIDTH 6 0
BBX 6 13 0 -3
BITMAP
00
00
00
70
A8
A8
70
00
70
88
88
70
00
ENDCHAR

STARTCHAR C009=0x009
ENCODING 9
SWIDTH 461 0
DWIDTH 6 0
BBX 6 13 0 -3
BITMAP
00
00
00
70
A8
A8
68
00
70
88
88
70
00
ENDCHAR

STARTCHAR C010=0x00a
ENCODING 10
SWIDTH 461 0
DWIDTH 6 0
BBX 6 13 0 -3
BITMAP
00
00
00
78
A0
A0
78
00
70
88
88
70
00
ENDCHAR

STARTCHAR C011=0x00b
ENCODING 11
SWIDTH 461 0
DWIDTH 6 0
BBX 6 13 0 -3
BITMAP
00
00
00
50
A8
A8
F8
00
70
88
88
70
00
ENDCHAR

STARTCHAR C012=0x00c
ENCODING 12
SWIDTH 461 0
DWIDTH 6 0
BBX 6 13 0 -3
BITMAP
00
00
00
88
88
88
70
00
70
88
88
70
00
ENDCHAR

STARTCHAR C013=0x00d
ENCODING 13
SWIDTH 461 0
DWIDTH 6 0
BBX 6 13 0 -3
BITMAP
00
00
00
70
88
88
F8
00
70
88
88
70
00
ENDCHAR

STARTCHAR C014=0x00e
ENCODING 14
SWIDTH 461 0
DWIDTH 6 0
BBX 6 13 0 -3
BITMAP
00
00
00
88
A8
A8
F8
00
70
88
88
70
00
ENDCHAR

STARTCHAR C015=0x00f
ENCODING 15
SWIDTH 461 0
DWIDTH 6 0
BBX 6 13 0 -3
BITMAP
00
00
00
80
A0
A0
F8
00
70
88
88
70
00
ENDCHAR

STARTCHAR C016=0x010
ENCODING 16
SWIDTH 461 0
DWIDTH 6 0
BBX 6 13 0 -3
BITMAP
00
00
00
70
88
88
70
00
F8
80
40
00
00
ENDCHAR

STARTCHAR C017=0x011
ENCODING 17
SWIDTH 461 0
DWIDTH 6 0
BBX 6 13 0 -3
BITMAP
00
00
00
00
F8
80
40
00
F8
80
40
00
00
ENDCHAR

STARTCHAR C018=0x012
ENCODING 18
SWIDTH 461 0
DWIDTH 6 0
BBX 6 13 0 -3
BITMAP
00
00
00
68
98
98
48
00
F8
80
40
00
00
ENDCHAR

STARTCHAR C019=0x013
ENCODING 19
SWIDTH 461 0
DWIDTH 6 0
BBX 6 13 0 -3
BITMAP
00
00
00
70
A8
A8
88
00
F8
80
40
00
00
ENDCHAR

STARTCHAR C020=0x014
ENCODING 20
SWIDTH 461 0
DWIDTH 6 0
BBX 6 13 0 -3
BITMAP
00
00
00
10
B8
50
30
00
F8
80
40
00
00
ENDCHAR

STARTCHAR C021=0x015
ENCODING 21
SWIDTH 461 0
DWIDTH 6 0
BBX 6 13 0 -3
BITMAP
00
00
00
90
A8
A8
E8
00
F8
80
40
00
00
ENDCHAR

STARTCHAR C022=0x016
ENCODING 22
SWIDTH 461 0
DWIDTH 6 0
BBX 6 13 0 -3
BITMAP
00
00
00
90
A8
A8
70
00
F8
80
40
00
00
ENDCHAR

STARTCHAR C023=0x017
ENCODING 23
SWIDTH 461 0
DWIDTH 6 0
BBX 6 13 0 -3
BITMAP
00
00
00
C0
A0
90
88
00
F8
80
40
00
00
ENDCHAR

STARTCHAR C024=0x018
ENCODING 24
SWIDTH 461 0
DWIDTH 6 0
BBX 6 13 0 -3
BITMAP
00
00
00
70
A8
A8
70
00
F8
80
40
00
00
ENDCHAR

STARTCHAR C025=0x019
ENCODING 25
SWIDTH 461 0
DWIDTH 6 0
BBX 6 13 0 -3
BITMAP
00
00
00
70
A8
A8
68
00
F8
80
40
00
00
ENDCHAR

STARTCHAR C026=0x01a
ENCODING 26
SWIDTH 461 0
DWIDTH 6 0
BBX 6 13 0 -3
BITMAP
00
00
00
78
A0
A0
78
00
F8
80
40
00
00
ENDCHAR

STARTCHAR C027=0x01b
ENCODING 27
SWIDTH 461 0
DWIDTH 6 0
BBX 6 13 0 -3
BITMAP
00
00
00
50
A8
A8
F8
00
F8
80
40
00
00
ENDCHAR

STARTCHAR C028=0x01c
ENCODING 28
SWIDTH 461 0
DWIDTH 6 0
BBX 6 13 0 -3
BITMAP
00
00
00
88
88
88
70
00
F8
80
40
00
00
ENDCHAR

STARTCHAR C029=0x01d
ENCODING 29
SWIDTH 461 0
DWIDTH 6 0
BBX 6 13 0 -3
BITMAP
00
00
00
70
88
88
F8
00
F8
80
40
00
00
ENDCHAR

STARTCHAR C030=0x01e
ENCODING 30
SWIDTH 461 0
DWIDTH 6 0
BBX 6 13 0 -3
BITMAP
00
00
00
88
A8
A8
F8
00
F8
80
40
00
00
ENDCHAR

STARTCHAR C031=0x01f
ENCODING 31
SWIDTH 461 0
DWIDTH 6 0
BBX 6 13 0 -3
BITMAP
00
00
00
80
A0
A0
F8
00
F8
80
40
00
00
ENDCHAR

STARTCHAR C032=0x020
ENCODING 32
SWIDTH 461 0
DWIDTH 6 0
BBX 6 13 0 -3
BITMAP
00
00
00
00
00
00
00
00
00
00
00
00
00
ENDCHAR

STARTCHAR C033=0x021
ENCODING 33
SWIDTH 461 0
DWIDTH 6 0
BBX 6 13 0 -3
BITMAP
00
00
20
20
20
20
20
20
20
00
20
00
00
ENDCHAR

STARTCHAR C034=0x022
ENCODING 34
SWIDTH 461 0
DWIDTH 6 0
BBX 6 13 0 -3
BITMAP
00
00
50
50
50
00
00
00
00
00
00
00
00
ENDCHAR

STARTCHAR C035=0x023
ENCODING 35
SWIDTH 461 0
DWIDTH 6 0
BBX 6 13 0 -3
BITMAP
00
00
00
50
50
F8
50
F8
50
50
00
00
00
ENDCHAR

STARTCHAR C237=0x0ed
ENCODING 36
SWIDTH 461 0
DWIDTH 6 0
BBX 6 13 0 -3
BITMAP
00
00
20
70
A8
A0
70
28
A8
70
20
00
00
ENDCHAR

STARTCHAR C037=0x025
ENCODING 37
SWIDTH 461 0
DWIDTH 6 0
BBX 6 13 0 -3
BITMAP
00
00
48
A8
50
10
20
40
50
A8
90
00
00
ENDCHAR

STARTCHAR C038=0x026
ENCODING 38
SWIDTH 461 0
DWIDTH 6 0
BBX 6 13 0 -3
BITMAP
00
00
40
A0
A0
40
A0
98
90
68
00
00
00
ENDCHAR

STARTCHAR C039=0x027
ENCODING 39
SWIDTH 461 0
DWIDTH 6 0
BBX 6 13 0 -3
BITMAP
00
30
30
30
00
00
00
00
00
00
00
00
00
ENDCHAR

STARTCHAR C040=0x028
ENCODING 40
SWIDTH 461 0
DWIDTH 6 0
BBX 6 13 0 -3
BITMAP
00
00
10
20
20
40
40
40
20
20
10
00
00
ENDCHAR

STARTCHAR C041=0x029
ENCODING 41
SWIDTH 461 0
DWIDTH 6 0
BBX 6 13 0 -3
BITMAP
00
00
40
20
20
10
10
10
20
20
40
00
00
ENDCHAR

STARTCHAR C042=0x02a
ENCODING 42
SWIDTH 461 0
DWIDTH 6 0
BBX 6 13 0 -3
BITMAP
00
00
00
20
A8
F8
70
F8
A8
20
00
00
00
ENDCHAR

STARTCHAR C043=0x02b
ENCODING 43
SWIDTH 461 0
DWIDTH 6 0
BBX 6 13 0 -3
BITMAP
00
00
00
00
20
20
F8
20
20
00
00
00
00
ENDCHAR

STARTCHAR C044=0x02c
ENCODING 44
SWIDTH 461 0
DWIDTH 6 0
BBX 6 13 0 -3
BITMAP
00
00
00
00
00
00
00
00
00
30
20
40
00
ENDCHAR

STARTCHAR C045=0x02d
ENCODING 45
SWIDTH 461 0
DWIDTH 6 0
BBX 6 13 0 -3
BITMAP
00
00
00
00
00
00
F8
00
00
00
00
00
00
ENDCHAR

STARTCHAR C046=0x02e
ENCODING 46
SWIDTH 461 0
DWIDTH 6 0
BBX 6 13 0 -3
BITMAP
00
00
00
00
00
00
00
00
00
20
70
20
00
ENDCHAR

STARTCHAR C047=0x02f
ENCODING 47
SWIDTH 461 0
DWIDTH 6 0
BBX 6 13 0 -3
BITMAP
00
00
08
08
10
10
20
40
40
80
80
00
00
ENDCHAR

STARTCHAR C048=0x030
ENCODING 48
SWIDTH 461 0
DWIDTH 6 0
BBX 6 13 0 -3
BITMAP
00
00
20
50
88
88
88
88
88
50
20
00
00
ENDCHAR

STARTCHAR C049=0x031
ENCODING 49
SWIDTH 461 0
DWIDTH 6 0
BBX 6 13 0 -3
BITMAP
00
00
20
60
A0
20
20
20
20
20
F8
00
00
ENDCHAR

STARTCHAR C050=0x032
ENCODING 50
SWIDTH 461 0
DWIDTH 6 0
BBX 6 13 0 -3
BITMAP
00
00
70
88
88
08
10
20
40
80
F8
00
00
ENDCHAR

STARTCHAR C051=0x033
ENCODING 51
SWIDTH 461 0
DWIDTH 6 0
BBX 6 13 0 -3
BITMAP
00
00
F8
08
10
20
70
08
08
88
70
00
00
ENDCHAR

STARTCHAR C052=0x034
ENCODING 52
SWIDTH 461 0
DWIDTH 6 0
BBX 6 13 0 -3
BITMAP
00
00
10
10
30
50
50
90
F8
10
10
00
00
ENDCHAR

STARTCHAR C053=0x035
ENCODING 53
SWIDTH 461 0
DWIDTH 6 0
BBX 6 13 0 -3
BITMAP
00
00
F8
80
80
B0
C8
08
08
88
70
00
00
ENDCHAR

STARTCHAR C054=0x036
ENCODING 54
SWIDTH 461 0
DWIDTH 6 0
BBX 6 13 0 -3
BITMAP
00
00
70
88
80
80
F0
88
88
88
70
00
00
ENDCHAR

STARTCHAR C055=0x037
ENCODING 55
SWIDTH 461 0
DWIDTH 6 0
BBX 6 13 0 -3
BITMAP
00
00
F8
08
10
10
20
20
40
40
40
00
00
ENDCHAR

STARTCHAR C056=0x038
ENCODING 56
SWIDTH 461 0
DWIDTH 6 0
BBX 6 13 0 -3
BITMAP
00
00
70
88
88
88
70
88
88
88
70
00
00
ENDCHAR

STARTCHAR C057=0x039
ENCODING 57
SWIDTH 461 0
DWIDTH 6 0
BBX 6 13 0 -3
BITMAP
00
00
70
88
88
88
78
08
08
88
70
00
00
ENDCHAR

STARTCHAR C058=0x03a
ENCODING 58
SWIDTH 461 0
DWIDTH 6 0
BBX 6 13 0 -3
BITMAP
00
00
00
00
20
70
20
00
00
20
70
20
00
ENDCHAR

STARTCHAR C059=0x03b
ENCODING 59
SWIDTH 461 0
DWIDTH 6 0
BBX 6 13 0 -3
BITMAP
00
00
00
00
20
70
20
00
00
30
20
40
00
ENDCHAR

STARTCHAR C060=0x03c
ENCODING 60
SWIDTH 461 0
DWIDTH 6 0
BBX 6 13 0 -3
BITMAP
00
00
08
10
20
40
80
40
20
10
08
00
00
ENDCHAR

STARTCHAR C061=0x03d
ENCODING 61
SWIDTH 461 0
DWIDTH 6 0
BBX 6 13 0 -3
BITMAP
00
00
00
00
00
F8
00
00
F8
00
00
00
00
ENDCHAR

STARTCHAR C062=0x03e
ENCODING 62
SWIDTH 461 0
DWIDTH 6 0
BBX 6 13 0 -3
BITMAP
00
00
80
40
20
10
08
10
20
40
80
00
00
ENDCHAR

STARTCHAR C063=0x03f
ENCODING 63
SWIDTH 461 0
DWIDTH 6 0
BBX 6 13 0 -3
BITMAP
00
00
70
88
88
08
10
20
20
00
20
00
00
ENDCHAR

STARTCHAR C064=0x040
ENCODING 64
SWIDTH 461 0
DWIDTH 6 0
BBX 6 13 0 -3
BITMAP
00
00
70
88
88
98
A8
A8
B0
80
78
00
00
ENDCHAR

STARTCHAR C065=0x041
ENCODING 65
SWIDTH 461 0
DWIDTH 6 0
BBX 6 13 0 -3
BITMAP
00
00
20
50
88
88
88
F8
88
88
88
00
00
ENDCHAR

STARTCHAR C066=0x042
ENCODING 66
SWIDTH 461 0
DWIDTH 6 0
BBX 6 13 0 -3
BITMAP
00
00
F0
48
48
48
70
48
48
48
F0
00
00
ENDCHAR

STARTCHAR C067=0x043
ENCODING 67
SWIDTH 461 0
DWIDTH 6 0
BBX 6 13 0 -3
BITMAP
00
00
70
88
80
80
80
80
80
88
70
00
00
ENDCHAR

STARTCHAR C068=0x044
ENCODING 68
SWIDTH 461 0
DWIDTH 6 0
BBX 6 13 0 -3
BITMAP
00
00
F0
48
48
48
48
48
48
48
F0
00
00
ENDCHAR

STARTCHAR C069=0x045
ENCODING 69
SWIDTH 461 0
DWIDTH 6 0
BBX 6 13 0 -3
BITMAP
00
00
F8
80
80
80
F0
80
80
80
F8
00
00
ENDCHAR

STARTCHAR C070=0x046
ENCODING 70
SWIDTH 461 0
DWIDTH 6 0
BBX 6 13 0 -3
BITMAP
00
00
F8
80
80
80
F0
80
80
80
80
00
00
ENDCHAR

STARTCHAR C071=0x047
ENCODING 71
SWIDTH 461 0
DWIDTH 6 0
BBX 6 13 0 -3
BITMAP
00
00
70
88
80
80
80
98
88
88
70
00
00
ENDCHAR

STARTCHAR C072=0x048
ENCODING 72
SWIDTH 461 0
DWIDTH 6 0
BBX 6 13 0 -3
BITMAP
00
00
88
88
88
88
F8
88
88
88
88
00
00
ENDCHAR

STARTCHAR C073=0x049
ENCODING 73
SWIDTH 461 0
DWIDTH 6 0
BBX 6 13 0 -3
BITMAP
00
00
70
20
20
20
20
20
20
20
70
00
00
ENDCHAR

STARTCHAR C074=0x04a
ENCODING 74
SWIDTH 461 0
DWIDTH 6 0
BBX 6 13 0 -3
BITMAP
00
00
38
10
10
10
10
10
10
90
60
00
00
ENDCHAR

STARTCHAR C075=0x04b
ENCODING 75
SWIDTH 461 0
DWIDTH 6 0
BBX 6 13 0 -3
BITMAP
00
00
88
88
90
A0
C0
A0
90
88
88
00
00
ENDCHAR

STARTCHAR C076=0x04c
ENCODING 76
SWIDTH 461 0
DWIDTH 6 0
BBX 6 13 0 -3
BITMAP
00
00
80
80
80
80
80
80
80
80
F8
00
00
ENDCHAR

STARTCHAR C077=0x04d
ENCODING 77
SWIDTH 461 0
DWIDTH 6 0
BBX 6 13 0 -3
BITMAP
00
00
88
88
D8
A8
A8
88
88
88
88
00
00
ENDCHAR

STARTCHAR C078=0x04e
ENCODING 78
SWIDTH 461 0
DWIDTH 6 0
BBX 6 13 0 -3
BITMAP
00
00
88
C8
C8
A8
A8
98
98
88
88
00
00
ENDCHAR

STARTCHAR C079=0x04f
ENCODING 79
SWIDTH 461 0
DWIDTH 6 0
BBX 6 13 0 -3
BITMAP
00
00
70
88
88
88
88
88
88
88
70
00
00
ENDCHAR

STARTCHAR C080=0x050
ENCODING 80
SWIDTH 461 0
DWIDTH 6 0
BBX 6 13 0 -3
BITMAP
00
00
F0
88
88
88
F0
80
80
80
80
00
00
ENDCHAR

STARTCHAR C081=0x051
ENCODING 81
SWIDTH 461 0
DWIDTH 6 0
BBX 6 13 0 -3
BITMAP
00
00
70
88
88
88
88
88
88
A8
70
08
00
ENDCHAR

STARTCHAR C082=0x052
ENCODING 82
SWIDTH 461 0
DWIDTH 6 0
BBX 6 13 0 -3
BITMAP
00
00
F0
88
88
88
F0
A0
90
88
88
00
00
ENDCHAR

STARTCHAR C083=0x053
ENCODING 83
SWIDTH 461 0
DWIDTH 6 0
BBX 6 13 0 -3
BITMAP
00
00
70
88
80
80
70
08
08
88
70
00
00
ENDCHAR

STARTCHAR C084=0x054
ENCODING 84
SWIDTH 461 0
DWIDTH 6 0
BBX 6 13 0 -3
BITMAP
00
00
F8
20
20
20
20
20
20
20
20
00
00
ENDCHAR

STARTCHAR C085=0x055
ENCODING 85
SWIDTH 461 0
DWIDTH 6 0
BBX 6 13 0 -3
BITMAP
00
00
88
88
88
88
88
88
88
88
70
00
00
ENDCHAR

STARTCHAR C086=0x056
ENCODING 86
SWIDTH 461 0
DWIDTH 6 0
BBX 6 13 0 -3
BITMAP
00
00
88
88
88
88
50
50
50
20
20
00
00
ENDCHAR

STARTCHAR C087=0x057
ENCODING 87
SWIDTH 461 0
DWIDTH 6 0
BBX 6 13 0 -3
BITMAP
00
00
88
88
88
88
A8
A8
A8
D8
88
00
00
ENDCHAR

STARTCHAR C088=0x058
ENCODING 88
SWIDTH 461 0
DWIDTH 6 0
BBX 6 13 0 -3
BITMAP
00
00
88
88
50
50
20
50
50
88
88
00
00
ENDCHAR

STARTCHAR C089=0x059
ENCODING 89
SWIDTH 461 0
DWIDTH 6 0
BBX 6 13 0 -3
BITMAP
00
00
88
88
50
50
20
20
20
20
20
00
00
ENDCHAR

STARTCHAR C090=0x05a
ENCODING 90
SWIDTH 461 0
DWIDTH 6 0
BBX 6 13 0 -3
BITMAP
00
00
F8
08
10
10
20
40
40
80
F8
00
00
ENDCHAR

STARTCHAR C091=0x05b
ENCODING 91
SWIDTH 461 0
DWIDTH 6 0
BBX 6 13 0 -3
BITMAP
00
00
70
40
40
40
40
40
40
40
70
00
00
ENDCHAR

STARTCHAR C092=0x05c
ENCODING 92
SWIDTH 461 0
DWIDTH 6 0
BBX 6 13 0 -3
BITMAP
00
00
80
80
40
40
20
10
10
08
08
00
00
ENDCHAR

STARTCHAR C093=0x05d
ENCODING 93
SWIDTH 461 0
DWIDTH 6 0
BBX 6 13 0 -3
BITMAP
00
00
70
10
10
10
10
10
10
10
70
00
00
ENDCHAR

STARTCHAR C094=0x05e
ENCODING 94
SWIDTH 461 0
DWIDTH 6 0
BBX 6 13 0 -3
BITMAP
00
20
50
88
00
00
00
00
00
00
00
00
00
ENDCHAR

STARTCHAR C095=0x05f
ENCODING 95
SWIDTH 461 0
DWIDTH 6 0
BBX 6 13 0 -3
BITMAP
00
00
00
00
00
00
00
00
00
00
00
F8
00
ENDCHAR

STARTCHAR C096=0x060
ENCODING 96
SWIDTH 461 0
DWIDTH 6 0
BBX 6 13 0 -3
BITMAP
00
40
20
10
00
00
00
00
00
00
00
00
00
ENDCHAR

STARTCHAR C097=0x061
ENCODING 97
SWIDTH 461 0
DWIDTH 6 0
BBX 6 13 0 -3
BITMAP
00
00
00
00
00
70
08
78
88
88
78
00
00
ENDCHAR

STARTCHAR C098=0x062
ENCODING 98
SWIDTH 461 0
DWIDTH 6 0
BBX 6 13 0 -3
BITMAP
00
00
80
80
80
F0
88
88
88
88
F0
00
00
ENDCHAR

STARTCHAR C099=0x063
ENCODING 99
SWIDTH 461 0
DWIDTH 6 0
BBX 6 13 0 -3
BITMAP
00
00
00
00
00
70
88
80
80
88
70
00
00
ENDCHAR

STARTCHAR C100=0x064
ENCODING 100
SWIDTH 461 0
DWIDTH 6 0
BBX 6 13 0 -3
BITMAP
00
00
08
08
08
78
88
88
88
88
78
00
00
ENDCHAR

STARTCHAR C101=0x065
ENCODING 101
SWIDTH 461 0
DWIDTH 6 0
BBX 6 13 0 -3
BITMAP
00
00
00
00
00
70
88
F8
80
88
70
00
00
ENDCHAR

STARTCHAR C102=0x066
ENCODING 102
SWIDTH 461 0
DWIDTH 6 0
BBX 6 13 0 -3
BITMAP
00
00
30
48
40
40
F0
40
40
40
40
00
00
ENDCHAR

STARTCHAR C103=0x067
ENCODING 103
SWIDTH 461 0
DWIDTH 6 0
BBX 6 13 0 -3
BITMAP
00
00
00
00
00
70
88
88
88
78
08
88
70
ENDCHAR

STARTCHAR C104=0x068
ENCODING 104
SWIDTH 461 0
DWIDTH 6 0
BBX 6 13 0 -3
BITMAP
00
00
80
80
80
B0
C8
88
88
88
88
00
00
ENDCHAR

STARTCHAR C105=0x069
ENCODING 105
SWIDTH 461 0
DWIDTH 6 0
BBX 6 13 0 -3
BITMAP
00
00
00
20
00
60
20
20
20
20
70
00
00
ENDCHAR

STARTCHAR C106=0x06a
ENCODING 106
SWIDTH 461 0
DWIDTH 6 0
BBX 6 13 0 -3
BITMAP
00
00
00
10
00
30
10
10
10
10
90
90
60
ENDCHAR

STARTCHAR C107=0x06b
ENCODING 107
SWIDTH 461 0
DWIDTH 6 0
BBX 6 13 0 -3
BITMAP
00
00
80
80
80
90
A0
C0
A0
90
88
00
00
ENDCHAR

STARTCHAR C108=0x06c
ENCODING 108
SWIDTH 461 0
DWIDTH 6 0
BBX 6 13 0 -3
BITMAP
00
00
60
20
20
20
20
20
20
20
70
00
00
ENDCHAR

STARTCHAR C109=0x06d
ENCODING 109
SWIDTH 461 0
DWIDTH 6 0
BBX 6 13 0 -3
BITMAP
00
00
00
00
00
D0
A8
A8
A8
A8
88
00
00
ENDCHAR

STARTCHAR C110=0x06e
ENCODING 110
SWIDTH 461 0
DWIDTH 6 0
BBX 6 13 0 -3
BITMAP
00
00
00
00
00
B0
C8
88
88
88
88
00
00
ENDCHAR

STARTCHAR C111=0x06f
ENCODING 111
SWIDTH 461 0
DWIDTH 6 0
BBX 6 13 0 -3
BITMAP
00
00
00
00
00
70
88
88
88
88
70
00
00
ENDCHAR

STARTCHAR C112=0x070
ENCODING 112
SWIDTH 461 0
DWIDTH 6 0
BBX 6 13 0 -3
BITMAP
00
00
00
00
00
F0
88
88
88
F0
80
80
80
ENDCHAR

STARTCHAR C113=0x071
ENCODING 113
SWIDTH 461 0
DWIDTH 6 0
BBX 6 13 0 -3
BITMAP
00
00
00
00
00
78
88
88
88
78
08
08
08
ENDCHAR

STARTCHAR C114=0x072
ENCODING 114
SWIDTH 461 0
DWIDTH 6 0
BBX 6 13 0 -3
BITMAP
00
00
00
00
00
B0
C8
80
80
80
80
00
00
ENDCHAR

STARTCHAR C115=0x073
ENCODING 115
SWIDTH 461 0
DWIDTH 6 0
BBX 6 13 0 -3
BITMAP
00
00
00
00
00
70
88
60
10
88
70
00
00
ENDCHAR

STARTCHAR C116=0x074
ENCODING 116
SWIDTH 461 0
DWIDTH 6 0
BBX 6 13 0 -3
BITMAP
00
00
00
40
40
F0
40
40
40
48
30
00
00
ENDCHAR

STARTCHAR C117=0x075
ENCODING 117
SWIDTH 461 0
DWIDTH 6 0
BBX 6 13 0 -3
BITMAP
00
00
00
00
00
88
88
88
88
98
68
00
00
ENDCHAR

STARTCHAR C118=0x076
ENCODING 118
SWIDTH 461 0
DWIDTH 6 0
BBX 6 13 0 -3
BITMAP
00
00
00
00
00
88
88
88
50
50
20
00
00
ENDCHAR

STARTCHAR C119=0x077
ENCODING 119
SWIDTH 461 0
DWIDTH 6 0
BBX 6 13 0 -3
BITMAP
00
00
00
00
00
88
88
A8
A8
A8
50
00
00
ENDCHAR

STARTCHAR C120=0x078
ENCODING 120
SWIDTH 461 0
DWIDTH 6 0
BBX 6 13 0 -3
BITMAP
00
00
00
00
00
88
50
20
20
50
88
00
00
ENDCHAR

STARTCHAR C121=0x079
ENCODING 121
SWIDTH 461 0
DWIDTH 6 0
BBX 6 13 0 -3
BITMAP
00
00
00
00
00
88
88
88
98
68
08
88
70
ENDCHAR

STARTCHAR C122=0x07a
ENCODING 122
SWIDTH 461 0
DWIDTH 6 0
BBX 6 13 0 -3
BITMAP
00
00
00
00
00
F8
10
20
40
80
F8
00
00
ENDCHAR

STARTCHAR C123=0x07b
ENCODING 123
SWIDTH 461 0
DWIDTH 6 0
BBX 6 13 0 -3
BITMAP
00
00
18
20
20
20
C0
20
20
20
18
00
00
ENDCHAR

STARTCHAR C124=0x07c
ENCODING 124
SWIDTH 461 0
DWIDTH 6 0
BBX 6 13 0 -3
BITMAP
00
00
20
20
20
20
20
20
20
20
20
00
00
ENDCHAR

STARTCHAR C125=0x07d
ENCODING 125
SWIDTH 461 0
DWIDTH 6 0
BBX 6 13 0 -3
BITMAP
00
00
C0
20
20
20
18
20
20
20
C0
00
00
ENDCHAR

STARTCHAR C253=0x0fd
ENCODING 126
SWIDTH 461 0
DWIDTH 6 0
BBX 6 13 0 -3
BITMAP
00
48
B0
00
00
00
00
00
00
00
00
00
00
ENDCHAR

STARTCHAR C127=0x07f
ENCODING 127
SWIDTH 461 0
DWIDTH 6 0
BBX 6 13 0 -3
BITMAP
00
00
00
00
A8
50
A8
50
A8
00
00
00
00
ENDCHAR

STARTCHAR C768=0x300
ENCODING 128
SWIDTH 461 0
DWIDTH 6 0
BBX 6 13 0 -3
BITMAP
20
20
20
20
20
20
20
20
20
20
20
20
20
ENDCHAR

STARTCHAR C769=0x301
ENCODING 129
SWIDTH 461 0
DWIDTH 6 0
BBX 6 13 0 -3
BITMAP
00
00
00
00
00
00
FC
00
00
00
00
00
00
ENDCHAR

STARTCHAR C770=0x302
ENCODING 130
SWIDTH 461 0
DWIDTH 6 0
BBX 6 13 0 -3
BITMAP
00
00
00
00
00
00
3C
20
20
20
20
20
20
ENDCHAR

STARTCHAR C771=0x303
ENCODING 131
SWIDTH 461 0
DWIDTH 6 0
BBX 6 13 0 -3
BITMAP
00
00
00
00
00
00
E0
20
20
20
20
20
20
ENDCHAR

STARTCHAR C772=0x304
ENCODING 132
SWIDTH 461 0
DWIDTH 6 0
BBX 6 13 0 -3
BITMAP
20
20
20
20
20
20
3C
00
00
00
00
00
00
ENDCHAR

STARTCHAR C773=0x305
ENCODING 133
SWIDTH 461 0
DWIDTH 6 0
BBX 6 13 0 -3
BITMAP
20
20
20
20
20
20
E0
00
00
00
00
00
00
ENDCHAR

STARTCHAR C774=0x306
ENCODING 134
SWIDTH 461 0
DWIDTH 6 0
BBX 6 13 0 -3
BITMAP
20
20
20
20
20
20
3C
20
20
20
20
20
20
ENDCHAR

STARTCHAR C775=0x307
ENCODING 135
SWIDTH 461 0
DWIDTH 6 0
BBX 6 13 0 -3
BITMAP
20
20
20
20
20
20
E0
20
20
20
20
20
20
ENDCHAR

STARTCHAR C776=0x308
ENCODING 136
SWIDTH 461 0
DWIDTH 6 0
BBX 6 13 0 -3
BITMAP
00
00
00
00
00
00
FC
20
20
20
20
20
20
ENDCHAR

STARTCHAR C777=0x309
ENCODING 137
SWIDTH 461 0
DWIDTH 6 0
BBX 6 13 0 -3
BITMAP
20
20
20
20
20
20
FC
00
00
00
00
00
00
ENDCHAR

STARTCHAR C778=0x30a
ENCODING 138
SWIDTH 461 0
DWIDTH 6 0
BBX 6 13 0 -3
BITMAP
20
20
20
20
20
20
FC
20
20
20
20
20
20
ENDCHAR

STARTCHAR C779=0x30b
ENCODING 139
SWIDTH 461 0
DWIDTH 6 0
BBX 6 13 0 -3
BITMAP
00
00
00
00
00
00
00
00
00
00
00
FC
00
ENDCHAR

STARTCHAR C780=0x30c
ENCODING 140
SWIDTH 461 0
DWIDTH 6 0
BBX 6 13 0 -3
BITMAP
00
00
00
88
88
88
70
00
50
A8
A8
50
00
ENDCHAR

STARTCHAR C781=0x30d
ENCODING 141
SWIDTH 461 0
DWIDTH 6 0
BBX 6 13 0 -3
BITMAP
00
00
00
70
88
88
F8
00
50
A8
A8
50
00
ENDCHAR

STARTCHAR C782=0x30e
ENCODING 142
SWIDTH 461 0
DWIDTH 6 0
BBX 6 13 0 -3
BITMAP
00
00
00
88
A8
A8
F8
00
50
A8
A8
50
00
ENDCHAR

STARTCHAR C783=0x30f
ENCODING 143
SWIDTH 461 0
DWIDTH 6 0
BBX 6 13 0 -3
BITMAP
00
00
00
80
A0
A0
F8
00
50
A8
A8
50
00
ENDCHAR

STARTCHAR C784=0x310
ENCODING 144
SWIDTH 461 0
DWIDTH 6 0
BBX 6 13 0 -3
BITMAP
00
00
00
70
88
A8
70
00
70
A8
A8
68
00
ENDCHAR

STARTCHAR C785=0x311
ENCODING 145
SWIDTH 461 0
DWIDTH 6 0
BBX 6 13 0 -3
BITMAP
00
00
00
00
F8
80
40
00
70
A8
A8
68
00
ENDCHAR

STARTCHAR C786=0x312
ENCODING 146
SWIDTH 461 0
DWIDTH 6 0
BBX 6 13 0 -3
BITMAP
00
00
00
68
98
98
48
00
70
A8
A8
68
00
ENDCHAR

STARTCHAR C787=0x313
ENCODING 147
SWIDTH 461 0
DWIDTH 6 0
BBX 6 13 0 -3
BITMAP
00
00
00
70
A8
A8
88
00
78
A8
A8
68
00
ENDCHAR

STARTCHAR C788=0x314
ENCODING 148
SWIDTH 461 0
DWIDTH 6 0
BBX 6 13 0 -3
BITMAP
00
00
00
10
B8
50
30
00
70
A8
A8
68
00
ENDCHAR

STARTCHAR C789=0x315
ENCODING 149
SWIDTH 461 0
DWIDTH 6 0
BBX 6 13 0 -3
BITMAP
00
00
00
90
A8
A8
E8
00
70
A8
A8
68
00
ENDCHAR

STARTCHAR C790=0x316
ENCODING 150
SWIDTH 461 0
DWIDTH 6 0
BBX 6 13 0 -3
BITMAP
00
00
00
90
A8
A8
70
00
70
A8
A8
68
00
ENDCHAR

STARTCHAR C791=0x317
ENCODING 151
SWIDTH 461 0
DWIDTH 6 0
BBX 6 13 0 -3
BITMAP
00
00
00
C0
A0
90
88
00
70
A8
A8
68
00
ENDCHAR

STARTCHAR C792=0x318
ENCODING 152
SWIDTH 461 0
DWIDTH 6 0
BBX 6 13 0 -3
BITMAP
00
00
00
50
A8
A8
50
00
70
A8
A8
68
00
ENDCHAR

STARTCHAR C793=0x319
ENCODING 153
SWIDTH 461 0
DWIDTH 6 0
BBX 6 13 0 -3
BITMAP
00
00
00
70
A8
A8
68
00
70
A8
A8
68
00
ENDCHAR

STARTCHAR C794=0x31a
ENCODING 154
SWIDTH 461 0
DWIDTH 6 0
BBX 6 13 0 -3
BITMAP
00
00
00
78
A0
A0
78
00
78
A8
A8
68
00
ENDCHAR

STARTCHAR C795=0x31b
ENCODING 155
SWIDTH 461 0
DWIDTH 6 0
BBX 6 13 0 -3
BITMAP
00
00
00
50
A8
A8
F8
00
70
A8
A8
68
00
ENDCHAR

STARTCHAR C796=0x31c
ENCODING 156
SWIDTH 461 0
DWIDTH 6 0
BBX 6 13 0 -3
BITMAP
00
00
00
88
88
88
70
00
70
A8
A8
68
00
ENDCHAR

STARTCHAR C797=0x31d
ENCODING 157
SWIDTH 461 0
DWIDTH 6 0
BBX 6 13 0 -3
BITMAP
00
00
00
70
88
88
F8
00
70
A8
A8
68
00
ENDCHAR

STARTCHAR C798=0x31e
ENCODING 158
SWIDTH 461 0
DWIDTH 6 0
BBX 6 13 0 -3
BITMAP
00
00
00
88
A8
A8
F8
00
70
A8
A8
48
00
ENDCHAR

STARTCHAR C799=0x31f
ENCODING 159
SWIDTH 461 0
DWIDTH 6 0
BBX 6 13 0 -3
BITMAP
00
00
00
80
A0
A0
F8
00
70
A8
A8
48
00
ENDCHAR

STARTCHAR C032=0x020
ENCODING 160
SWIDTH 461 0
DWIDTH 6 0
BBX 6 13 0 -3
BITMAP
00
00
00
00
00
00
00
00
00
00
00
00
00
ENDCHAR

STARTCHAR C698=0x2ba
ENCODING 161
SWIDTH 461 0
DWIDTH 6 0
BBX 6 13 0 -3
BITMAP
40
40
20
00
00
00
00
00
00
00
00
00
00
ENDCHAR

STARTCHAR C699=0x2bb
ENCODING 162
SWIDTH 461 0
DWIDTH 6 0
BBX 6 13 0 -3
BITMAP
20
20
40
00
00
00
00
00
00
00
00
00
00
ENDCHAR

STARTCHAR C238=0x0ee
ENCODING 163
SWIDTH 461 0
DWIDTH 6 0
BBX 6 13 0 -3
BITMAP
00
00
18
20
70
20
20
20
E0
B0
E8
00
00
ENDCHAR

STARTCHAR C032=0x020
ENCODING 164
SWIDTH 461 0
DWIDTH 6 0
BBX 6 13 0 -3
BITMAP
00
00
00
00
00
00
00
00
00
00
00
00
00
ENDCHAR

STARTCHAR C032=0x020
ENCODING 165
SWIDTH 461 0
DWIDTH 6 0
BBX 6 13 0 -3
BITMAP
00
00
00
00
00
00
00
00
00
00
00
00
00
ENDCHAR

STARTCHAR C672=0x2a0
ENCODING 166
SWIDTH 461 0
DWIDTH 6 0
BBX 6 13 0 -3
BITMAP
00
00
20
20
20
20
00
20
20
20
20
00
00
ENDCHAR

STARTCHAR C236=0x0ec
ENCODING 167
SWIDTH 461 0
DWIDTH 6 0
BBX 6 13 0 -3
BITMAP
00
00
70
88
80
70
88
70
08
88
70
00
00
ENDCHAR

STARTCHAR C249=0x0f9
ENCODING 168
SWIDTH 461 0
DWIDTH 6 0
BBX 6 13 0 -3
BITMAP
00
88
00
00
00
00
00
00
00
00
00
00
00
ENDCHAR

STARTCHAR C240=0x0f0
ENCODING 169
SWIDTH 461 0
DWIDTH 6 0
BBX 6 13 0 -3
BITMAP
00
00
78
84
F4
C4
C4
C4
F4
84
78
00
00
ENDCHAR

STARTCHAR C032=0x020
ENCODING 170
SWIDTH 461 0
DWIDTH 6 0
BBX 6 13 0 -3
BITMAP
00
00
00
00
00
00
00
00
00
00
00
00
00
ENDCHAR

STARTCHAR C483=0x1e3
ENCODING 171
SWIDTH 461 0
DWIDTH 6 0
BBX 6 13 0 -3
BITMAP
00
00
00
00
00
28
50
A0
50
28
00
00
00
ENDCHAR

STARTCHAR C545=0x221
ENCODING 172
SWIDTH 461 0
DWIDTH 6 0
BBX 6 13 0 -3
BITMAP
00
00
F8
08
00
00
00
00
00
00
00
00
00
ENDCHAR

STARTCHAR C045=0x02d
ENCODING 173
SWIDTH 461 0
DWIDTH 6 0
BBX 6 13 0 -3
BITMAP
00
00
00
00
00
00
F8
00
00
00
00
00
00
ENDCHAR

STARTCHAR C032=0x020
ENCODING 174
SWIDTH 461 0
DWIDTH 6 0
BBX 6 13 0 -3
BITMAP
00
00
00
00
00
00
00
00
00
00
00
00
00
ENDCHAR

STARTCHAR C401=0x191
ENCODING 175
SWIDTH 461 0
DWIDTH 6 0
BBX 6 13 0 -3
BITMAP
00
00
00
00
00
00
FC
FC
00
00
00
00
00
ENDCHAR

STARTCHAR C243=0x0f3
ENCODING 176
SWIDTH 461 0
DWIDTH 6 0
BBX 6 13 0 -3
BITMAP
00
30
48
30
00
00
00
00
00
00
00
00
00
ENDCHAR

STARTCHAR C485=0x1e5
ENCODING 177
SWIDTH 461 0
DWIDTH 6 0
BBX 6 13 0 -3
BITMAP
00
00
00
00
20
20
F8
20
20
00
F8
00
00
ENDCHAR

STARTCHAR C258=0x102
ENCODING 178
SWIDTH 461 0
DWIDTH 6 0
BBX 6 13 0 -3
BITMAP
00
38
08
38
20
38
00
00
00
00
00
00
00
ENDCHAR

STARTCHAR C259=0x103
ENCODING 179
SWIDTH 461 0
DWIDTH 6 0
BBX 6 13 0 -3
BITMAP
00
38
08
38
08
38
00
00
00
00
00
00
00
ENDCHAR

STARTCHAR C248=0x0f8
ENCODING 180
SWIDTH 461 0
DWIDTH 6 0
BBX 6 13 0 -3
BITMAP
00
10
20
40
00
00
00
00
00
00
00
00
00
ENDCHAR

STARTCHAR C673=0x2a1
ENCODING 181
SWIDTH 461 0
DWIDTH 6 0
BBX 6 13 0 -3
BITMAP
00
A8
40
00
00
00
00
00
00
00
00
00
00
ENDCHAR

STARTCHAR C649=0x289
ENCODING 182
SWIDTH 461 0
DWIDTH 6 0
BBX 6 13 0 -3
BITMAP
00
40
A0
50
88
88
88
F8
88
88
88
00
00
ENDCHAR

STARTCHAR C550=0x226
ENCODING 183
SWIDTH 461 0
DWIDTH 6 0
BBX 6 13 0 -3
BITMAP
00
00
00
00
00
30
30
00
00
00
00
00
00
ENDCHAR

STARTCHAR C651=0x28b
ENCODING 184
SWIDTH 461 0
DWIDTH 6 0
BBX 6 13 0 -3
BITMAP
00
40
B8
20
20
20
38
20
20
20
38
00
00
ENDCHAR

STARTCHAR C653=0x28d
ENCODING 185
SWIDTH 461 0
DWIDTH 6 0
BBX 6 13 0 -3
BITMAP
00
40
80
48
48
48
78
48
48
48
48
00
00
ENDCHAR

STARTCHAR C654=0x28e
ENCODING 186
SWIDTH 461 0
DWIDTH 6 0
BBX 6 13 0 -3
BITMAP
00
40
B8
10
10
10
10
10
10
10
38
00
00
ENDCHAR

STARTCHAR C484=0x1e4
ENCODING 187
SWIDTH 461 0
DWIDTH 6 0
BBX 6 13 0 -3
BITMAP
00
00
00
00
00
A0
50
28
50
A0
00
00
00
ENDCHAR

STARTCHAR C655=0x28f
ENCODING 188
SWIDTH 461 0
DWIDTH 6 0
BBX 6 13 0 -3
BITMAP
00
40
B0
48
48
48
48
48
48
48
30
00
00
ENDCHAR

STARTCHAR C489=0x1e9
ENCODING 189
SWIDTH 461 0
DWIDTH 6 0
BBX 6 13 0 -3
BITMAP
00
80
80
88
98
B0
60
C0
B8
08
38
20
38
ENDCHAR

STARTCHAR C657=0x291
ENCODING 190
SWIDTH 461 0
DWIDTH 6 0
BBX 6 13 0 -3
BITMAP
00
40
80
44
44
28
28
10
10
10
10
00
00
ENDCHAR

STARTCHAR C658=0x292
ENCODING 191
SWIDTH 461 0
DWIDTH 6 0
BBX 6 13 0 -3
BITMAP
00
40
80
70
88
88
88
88
50
50
D8
00
00
ENDCHAR

STARTCHAR C703=0x2bf
ENCODING 192
SWIDTH 461 0
DWIDTH 6 0
BBX 6 13 0 -3
BITMAP
00
00
A8
40
00
40
40
40
40
40
30
00
00
ENDCHAR

STARTCHAR C065=0x041
ENCODING 193
SWIDTH 461 0
DWIDTH 6 0
BBX 6 13 0 -3
BITMAP
00
00
20
50
88
88
88
F8
88
88
88
00
00
ENDCHAR

STARTCHAR C066=0x042
ENCODING 194
SWIDTH 461 0
DWIDTH 6 0
BBX 6 13 0 -3
BITMAP
00
00
F0
48
48
48
70
48
48
48
F0
00
00
ENDCHAR

STARTCHAR C662=0x296
ENCODING 195
SWIDTH 461 0
DWIDTH 6 0
BBX 6 13 0 -3
BITMAP
00
00
F8
80
80
80
80
80
80
80
80
00
00
ENDCHAR

STARTCHAR C663=0x297
ENCODING 196
SWIDTH 461 0
DWIDTH 6 0
BBX 6 13 0 -3
BITMAP
00
00
20
50
88
88
88
88
88
88
F8
00
00
ENDCHAR

STARTCHAR C069=0x045
ENCODING 197
SWIDTH 461 0
DWIDTH 6 0
BBX 6 13 0 -3
BITMAP
00
00
F8
80
80
80
F0
80
80
80
F8
00
00
ENDCHAR

STARTCHAR C090=0x05a
ENCODING 198
SWIDTH 461 0
DWIDTH 6 0
BBX 6 13 0 -3
BITMAP
00
00
F8
08
10
10
20
40
40
80
F8
00
00
ENDCHAR

STARTCHAR C072=0x048
ENCODING 199
SWIDTH 461 0
DWIDTH 6 0
BBX 6 13 0 -3
BITMAP
00
00
88
88
88
88
F8
88
88
88
88
00
00
ENDCHAR

STARTCHAR C664=0x298
ENCODING 200
SWIDTH 461 0
DWIDTH 6 0
BBX 6 13 0 -3
BITMAP
00
00
70
88
88
88
F8
88
88
88
70
00
00
ENDCHAR

STARTCHAR C073=0x049
ENCODING 201
SWIDTH 461 0
DWIDTH 6 0
BBX 6 13 0 -3
BITMAP
00
00
70
20
20
20
20
20
20
20
70
00
00
ENDCHAR

STARTCHAR C075=0x04b
ENCODING 202
SWIDTH 461 0
DWIDTH 6 0
BBX 6 13 0 -3
BITMAP
00
00
88
88
90
A0
C0
A0
90
88
88
00
00
ENDCHAR

STARTCHAR C665=0x299
ENCODING 203
SWIDTH 461 0
DWIDTH 6 0
BBX 6 13 0 -3
BITMAP
00
00
20
50
88
88
88
88
88
88
88
00
00
ENDCHAR

STARTCHAR C077=0x04d
ENCODING 204
SWIDTH 461 0
DWIDTH 6 0
BBX 6 13 0 -3
BITMAP
00
00
88
88
D8
A8
A8
88
88
88
88
00
00
ENDCHAR

STARTCHAR C078=0x04e
ENCODING 205
SWIDTH 461 0
DWIDTH 6 0
BBX 6 13 0 -3
BITMAP
00
00
88
C8
C8
A8
A8
98
98
88
88
00
00
ENDCHAR

STARTCHAR C666=0x29a
ENCODING 206
SWIDTH 461 0
DWIDTH 6 0
BBX 6 13 0 -3
BITMAP
00
00
F8
00
00
00
70
00
00
00
F8
00
00
ENDCHAR

STARTCHAR C079=0x04f
ENCODING 207
SWIDTH 461 0
DWIDTH 6 0
BBX 6 13 0 -3
BITMAP
00
00
70
88
88
88
88
88
88
88
70
00
00
ENDCHAR

STARTCHAR C667=0x29b
ENCODING 208
SWIDTH 461 0
DWIDTH 6 0
BBX 6 13 0 -3
BITMAP
00
00
F8
88
88
88
88
88
88
88
88
00
00
ENDCHAR

STARTCHAR C080=0x050
ENCODING 209
SWIDTH 461 0
DWIDTH 6 0
BBX 6 13 0 -3
BITMAP
00
00
F0
88
88
88
F0
80
80
80
80
00
00
ENDCHAR

STARTCHAR C032=0x020
ENCODING 210
SWIDTH 461 0
DWIDTH 6 0
BBX 6 13 0 -3
BITMAP
00
00
00
00
00
00
00
00
00
00
00
00
00
ENDCHAR

STARTCHAR C669=0x29d
ENCODING 211
SWIDTH 461 0
DWIDTH 6 0
BBX 6 13 0 -3
BITMAP
00
00
F8
80
40
20
10
20
40
80
F8
00
00
ENDCHAR

STARTCHAR C084=0x054
ENCODING 212
SWIDTH 461 0
DWIDTH 6 0
BBX 6 13 0 -3
BITMAP
00
00
F8
20
20
20
20
20
20
20
20
00
00
ENDCHAR

STARTCHAR C089=0x059
ENCODING 213
SWIDTH 461 0
DWIDTH 6 0
BBX 6 13 0 -3
BITMAP
00
00
88
88
50
50
20
20
20
20
20
00
00
ENDCHAR

STARTCHAR C670=0x29e
ENCODING 214
SWIDTH 461 0
DWIDTH 6 0
BBX 6 13 0 -3
BITMAP
00
00
20
70
A8
A8
A8
A8
A8
70
20
00
00
ENDCHAR

STARTCHAR C088=0x058
ENCODING 215
SWIDTH 461 0
DWIDTH 6 0
BBX 6 13 0 -3
BITMAP
00
00
88
88
50
50
20
50
50
88
88
00
00
ENDCHAR

STARTCHAR C671=0x29f
ENCODING 216
SWIDTH 461 0
DWIDTH 6 0
BBX 6 13 0 -3
BITMAP
00
00
A8
A8
A8
A8
A8
70
20
20
20
00
00
ENDCHAR

STARTCHAR C241=0x0f1
ENCODING 217
SWIDTH 461 0
DWIDTH 6 0
BBX 6 13 0 -3
BITMAP
00
00
70
88
88
88
88
88
50
50
D8
00
00
ENDCHAR

STARTCHAR C563=0x233
ENCODING 218
SWIDTH 461 0
DWIDTH 6 0
BBX 6 13 0 -3
BITMAP
50
00
70
20
20
20
20
20
20
20
70
00
00
ENDCHAR

STARTCHAR C646=0x286
ENCODING 219
SWIDTH 461 0
DWIDTH 6 0
BBX 6 13 0 -3
BITMAP
88
00
88
88
50
20
20
20
20
20
20
00
00
ENDCHAR

STARTCHAR C648=0x288
ENCODING 220
SWIDTH 461 0
DWIDTH 6 0
BBX 6 13 0 -3
BITMAP
00
00
10
20
00
60
90
90
90
90
68
00
00
ENDCHAR

STARTCHAR C650=0x28a
ENCODING 221
SWIDTH 461 0
DWIDTH 6 0
BBX 6 13 0 -3
BITMAP
00
10
20
00
70
88
80
60
80
88
70
00
00
ENDCHAR

STARTCHAR C652=0x28c
ENCODING 222
SWIDTH 461 0
DWIDTH 6 0
BBX 6 13 0 -3
BITMAP
00
00
10
20
00
B0
48
48
48
48
48
08
08
ENDCHAR

STARTCHAR C702=0x2be
ENCODING 223
SWIDTH 461 0
DWIDTH 6 0
BBX 6 13 0 -3
BITMAP
00
00
20
40
00
40
40
40
40
40
30
00
00
ENDCHAR

STARTCHAR C661=0x295
ENCODING 224
SWIDTH 461 0
DWIDTH 6 0
BBX 6 13 0 -3
BITMAP
00
00
00
A8
40
88
88
88
88
88
70
00
00
ENDCHAR

STARTCHAR C674=0x2a2
ENCODING 225
SWIDTH 461 0
DWIDTH 6 0
BBX 6 13 0 -3
BITMAP
00
00
00
00
00
60
90
90
90
90
68
00
00
ENDCHAR

STARTCHAR C675=0x2a3
ENCODING 226
SWIDTH 461 0
DWIDTH 6 0
BBX 6 13 0 -3
BITMAP
00
00
00
60
90
A0
F0
88
88
88
F0
80
80
ENDCHAR

STARTCHAR C676=0x2a4
ENCODING 227
SWIDTH 461 0
DWIDTH 6 0
BBX 6 13 0 -3
BITMAP
00
00
00
00
00
88
88
50
20
50
88
88
70
ENDCHAR

STARTCHAR C677=0x2a5
ENCODING 228
SWIDTH 461 0
DWIDTH 6 0
BBX 6 13 0 -3
BITMAP
00
00
78
80
40
70
88
88
88
88
70
00
00
ENDCHAR

STARTCHAR C678=0x2a6
ENCODING 229
SWIDTH 461 0
DWIDTH 6 0
BBX 6 13 0 -3
BITMAP
00
00
00
00
70
88
80
60
80
88
70
00
00
ENDCHAR

STARTCHAR C679=0x2a7
ENCODING 230
SWIDTH 461 0
DWIDTH 6 0
BBX 6 13 0 -3
BITMAP
00
00
F8
18
20
40
80
80
80
80
78
08
30
ENDCHAR

STARTCHAR C680=0x2a8
ENCODING 231
SWIDTH 461 0
DWIDTH 6 0
BBX 6 13 0 -3
BITMAP
00
00
00
00
00
B0
48
48
48
48
48
08
08
ENDCHAR

STARTCHAR C681=0x2a9
ENCODING 232
SWIDTH 461 0
DWIDTH 6 0
BBX 6 13 0 -3
BITMAP
00
00
00
00
70
88
88
F8
88
88
70
00
00
ENDCHAR

STARTCHAR C700=0x2bc
ENCODING 233
SWIDTH 461 0
DWIDTH 6 0
BBX 6 13 0 -3
BITMAP
00
00
00
00
00
40
40
40
40
40
30
00
00
ENDCHAR

STARTCHAR C682=0x2aa
ENCODING 234
SWIDTH 461 0
DWIDTH 6 0
BBX 6 13 0 -3
BITMAP
00
00
00
00
00
88
90
A0
E0
90
88
00
00
ENDCHAR

STARTCHAR C683=0x2ab
ENCODING 235
SWIDTH 461 0
DWIDTH 6 0
BBX 6 13 0 -3
BITMAP
00
00
00
00
00
40
20
10
30
48
88
00
00
ENDCHAR

STARTCHAR C684=0x2ac
ENCODING 236
SWIDTH 461 0
DWIDTH 6 0
BBX 6 13 0 -3
BITMAP
00
00
00
00
00
90
90
90
90
D0
A8
80
80
ENDCHAR

STARTCHAR C685=0x2ad
ENCODING 237
SWIDTH 461 0
DWIDTH 6 0
BBX 6 13 0 -3
BITMAP
00
00
00
00
00
88
88
50
50
20
20
00
00
ENDCHAR

STARTCHAR C686=0x2ae
ENCODING 238
SWIDTH 461 0
DWIDTH 6 0
BBX 6 13 0 -3
BITMAP
00
00
38
20
40
30
40
80
80
80
78
08
30
ENDCHAR

STARTCHAR C111=0x06f
ENCODING 239
SWIDTH 461 0
DWIDTH 6 0
BBX 6 13 0 -3
BITMAP
00
00
00
00
00
70
88
88
88
88
70
00
00
ENDCHAR

STARTCHAR C687=0x2af
ENCODING 240
SWIDTH 461 0
DWIDTH 6 0
BBX 6 13 0 -3
BITMAP
00
00
00
00
00
F8
50
50
50
50
50
00
00
ENDCHAR

STARTCHAR C688=0x2b0
ENCODING 241
SWIDTH 461 0
DWIDTH 6 0
BBX 6 13 0 -3
BITMAP
00
00
00
00
00
70
88
88
88
88
F0
80
80
ENDCHAR

STARTCHAR C689=0x2b1
ENCODING 242
SWIDTH 461 0
DWIDTH 6 0
BBX 6 13 0 -3
BITMAP
00
00
00
00
00
70
88
80
80
80
78
08
30
ENDCHAR

STARTCHAR C690=0x2b2
ENCODING 243
SWIDTH 461 0
DWIDTH 6 0
BBX 6 13 0 -3
BITMAP
00
00
00
00
00
7C
88
88
88
88
70
00
00
ENDCHAR

STARTCHAR C691=0x2b3
ENCODING 244
SWIDTH 461 0
DWIDTH 6 0
BBX 6 13 0 -3
BITMAP
00
00
00
00
00
F8
40
40
40
40
30
00
00
ENDCHAR

STARTCHAR C692=0x2b4
ENCODING 245
SWIDTH 461 0
DWIDTH 6 0
BBX 6 13 0 -3
BITMAP
00
00
00
00
00
88
88
88
88
88
70
00
00
ENDCHAR

STARTCHAR C693=0x2b5
ENCODING 246
SWIDTH 461 0
DWIDTH 6 0
BBX 6 13 0 -3
BITMAP
00
00
00
00
00
10
A8
A8
70
20
20
20
20
ENDCHAR

STARTCHAR C694=0x2b6
ENCODING 247
SWIDTH 461 0
DWIDTH 6 0
BBX 6 13 0 -3
BITMAP
00
00
00
00
00
C8
30
20
20
50
8C
00
00
ENDCHAR

STARTCHAR C695=0x2b7
ENCODING 248
SWIDTH 461 0
DWIDTH 6 0
BBX 6 13 0 -3
BITMAP
00
00
00
00
00
A8
A8
A8
A8
A8
70
20
20
ENDCHAR

STARTCHAR C696=0x2b8
ENCODING 249
SWIDTH 461 0
DWIDTH 6 0
BBX 6 13 0 -3
BITMAP
00
00
00
00
00
50
88
88
A8
A8
50
00
00
ENDCHAR

STARTCHAR C701=0x2bd
ENCODING 250
SWIDTH 461 0
DWIDTH 6 0
BBX 6 13 0 -3
BITMAP
00
00
00
90
00
40
40
40
40
40
30
00
00
ENDCHAR

STARTCHAR C660=0x294
ENCODING 251
SWIDTH 461 0
DWIDTH 6 0
BBX 6 13 0 -3
BITMAP
00
00
00
88
00
88
88
88
88
88
70
00
00
ENDCHAR

STARTCHAR C196=0x0c4
ENCODING 252
SWIDTH 461 0
DWIDTH 6 0
BBX 6 13 0 -3
BITMAP
00
00
10
20
00
70
88
88
88
88
70
00
00
ENDCHAR

STARTCHAR C656=0x290
ENCODING 253
SWIDTH 461 0
DWIDTH 6 0
BBX 6 13 0 -3
BITMAP
00
00
10
20
00
88
88
88
88
88
70
00
00
ENDCHAR

STARTCHAR C659=0x293
ENCODING 254
SWIDTH 461 0
DWIDTH 6 0
BBX 6 13 0 -3
BITMAP
00
00
10
20
00
50
88
88
88
A8
50
00
00
ENDCHAR

STARTCHAR C032=0x020
ENCODING 255
SWIDTH 461 0
DWIDTH 6 0
BBX 6 13 0 -3
BITMAP
00
00
00
00
00
00
00
00
00
00
00
00
00
ENDCHAR

ENDFONT
