STARTFONT 2.1
FONT -sni-97480m2-Medium-OT-Normal--13-130-75-75-C-60--
SIZE 13 75 75
FONTBOUNDINGBOX 6 13 0 -3

STARTPROPERTIES 23
FONTNAME_REGISTRY ""
FAMILY_NAME "97480m2"
FOUNDRY "sni"
WEIGHT_NAME "Medium"
SLANT "OT"
SETWIDTH_NAME "Normal"
ADD_STYLE_NAME ""
PIXEL_SIZE 13
POINT_SIZE 130
RESOLUTION_X 75
RESOLUTION_Y 75
SPACING "C"
AVERAGE_WIDTH 60
CHARSET_REGISTRY ""
CHARSET_ENCODING ""
FACE_NAME "97801-480 M2"
COPYRIGHT "Copyright (C) Siemens Nixdorf Informationssysteme AG 1992, All Rights Reserved"
X_HEIGHT 4
WEIGHT 10
QUAD_WIDTH 6
DEFAULT_CHAR 0
FONT_DESCENT 3
FONT_ASCENT 10
ENDPROPERTIES

CHARS 59

STARTCHAR C186=0x0ba
ENCODING 0
SWIDTH 461 0
DWIDTH 6 0
BBX 6 13 0 -3
BITMAP
00
00
28
10
00
10
D0
10
10
10
38
00
00
ENDCHAR

STARTCHAR C188=0x0bc
ENCODING 1
SWIDTH 461 0
DWIDTH 6 0
BBX 6 13 0 -3
BITMAP
00
00
00
48
00
48
48
48
48
E8
08
08
30
ENDCHAR

STARTCHAR C202=0x0ca
ENCODING 2
SWIDTH 461 0
DWIDTH 6 0
BBX 6 13 0 -3
BITMAP
00
00
00
00
00
50
A8
B8
A0
A8
50
00
00
ENDCHAR

STARTCHAR C228=0x0e4
ENCODING 3
SWIDTH 461 0
DWIDTH 6 0
BBX 6 13 0 -3
BITMAP
00
00
48
48
C8
48
48
48
48
48
50
00
00
ENDCHAR

STARTCHAR C231=0x0e7
ENCODING 4
SWIDTH 461 0
DWIDTH 6 0
BBX 6 13 0 -3
BITMAP
00
00
58
A0
A0
A0
B8
A0
A0
A0
58
00
00
ENDCHAR

STARTCHAR C245=0x0f5
ENCODING 5
SWIDTH 461 0
DWIDTH 6 0
BBX 6 13 0 -3
BITMAP
00
00
C0
A0
A0
A0
D0
B8
90
90
88
00
00
ENDCHAR

STARTCHAR C246=0x0f6
ENCODING 6
SWIDTH 461 0
DWIDTH 6 0
BBX 6 13 0 -3
BITMAP
00
00
08
70
D0
50
50
50
50
50
50
00
00
ENDCHAR

STARTCHAR C251=0x0fb
ENCODING 7
SWIDTH 461 0
DWIDTH 6 0
BBX 6 13 0 -3
BITMAP
00
00
00
00
00
00
00
00
80
80
E0
00
00
ENDCHAR

STARTCHAR C252=0x0fc
ENCODING 8
SWIDTH 461 0
DWIDTH 6 0
BBX 6 13 0 -3
BITMAP
00
00
00
00
00
00
00
00
10
10
70
00
00
ENDCHAR

STARTCHAR C255=0x0ff
ENCODING 9
SWIDTH 461 0
DWIDTH 6 0
BBX 6 13 0 -3
BITMAP
00
00
10
28
20
20
70
20
20
20
40
00
00
ENDCHAR

STARTCHAR C463=0x1cf
ENCODING 10
SWIDTH 461 0
DWIDTH 6 0
BBX 6 13 0 -3
BITMAP
00
00
70
88
40
20
70
88
88
70
20
00
00
ENDCHAR

STARTCHAR C475=0x1db
ENCODING 11
SWIDTH 461 0
DWIDTH 6 0
BBX 6 13 0 -3
BITMAP
00
00
38
40
80
80
F8
80
80
40
38
00
00
ENDCHAR

STARTCHAR C476=0x1dc
ENCODING 12
SWIDTH 461 0
DWIDTH 6 0
BBX 6 13 0 -3
BITMAP
00
00
80
40
20
18
20
40
80
00
F8
00
00
ENDCHAR

STARTCHAR C477=0x1dd
ENCODING 13
SWIDTH 461 0
DWIDTH 6 0
BBX 6 13 0 -3
BITMAP
00
00
08
10
20
C0
20
10
08
00
F8
00
00
ENDCHAR

STARTCHAR C478=0x1de
ENCODING 14
SWIDTH 461 0
DWIDTH 6 0
BBX 6 13 0 -3
BITMAP
00
00
70
88
88
88
F8
88
88
88
70
00
00
ENDCHAR

STARTCHAR C479=0x1df
ENCODING 15
SWIDTH 461 0
DWIDTH 6 0
BBX 6 13 0 -3
BITMAP
00
00
18
10
10
10
10
D0
50
30
10
00
00
ENDCHAR

STARTCHAR C495=0x1ef
ENCODING 16
SWIDTH 461 0
DWIDTH 6 0
BBX 6 13 0 -3
BITMAP
00
00
00
00
F4
54
54
5C
54
54
54
00
00
ENDCHAR

STARTCHAR C496=0x1f0
ENCODING 17
SWIDTH 461 0
DWIDTH 6 0
BBX 6 13 0 -3
BITMAP
00
80
80
80
98
B0
60
C0
B8
28
38
28
38
ENDCHAR

STARTCHAR C497=0x1f1
ENCODING 18
SWIDTH 461 0
DWIDTH 6 0
BBX 6 13 0 -3
BITMAP
00
E0
20
E0
28
F8
30
60
F8
28
38
28
38
ENDCHAR

STARTCHAR C498=0x1f2
ENCODING 19
SWIDTH 461 0
DWIDTH 6 0
BBX 6 13 0 -3
BITMAP
00
E0
80
E0
28
F8
30
60
F8
28
38
28
38
ENDCHAR

STARTCHAR C499=0x1f3
ENCODING 20
SWIDTH 461 0
DWIDTH 6 0
BBX 6 13 0 -3
BITMAP
00
E0
20
20
28
38
30
60
F8
28
38
28
38
ENDCHAR

STARTCHAR C503=0x1f7
ENCODING 21
SWIDTH 461 0
DWIDTH 6 0
BBX 6 13 0 -3
BITMAP
00
00
80
80
80
B0
80
80
80
80
F8
00
00
ENDCHAR

STARTCHAR C504=0x1f8
ENCODING 22
SWIDTH 461 0
DWIDTH 6 0
BBX 6 13 0 -3
BITMAP
00
00
40
40
40
58
40
40
40
40
30
00
00
ENDCHAR

STARTCHAR C510=0x1fe
ENCODING 23
SWIDTH 461 0
DWIDTH 6 0
BBX 6 13 0 -3
BITMAP
00
00
40
40
00
B0
C8
88
88
88
88
10
60
ENDCHAR

STARTCHAR C511=0x1ff
ENCODING 24
SWIDTH 461 0
DWIDTH 6 0
BBX 6 13 0 -3
BITMAP
00
00
28
28
28
28
28
28
28
28
28
00
00
ENDCHAR

STARTCHAR C517=0x205
ENCODING 25
SWIDTH 461 0
DWIDTH 6 0
BBX 6 13 0 -3
BITMAP
00
00
00
00
00
00
00
00
00
00
00
00
00
ENDCHAR

STARTCHAR C526=0x20e
ENCODING 26
SWIDTH 461 0
DWIDTH 6 0
BBX 6 13 0 -3
BITMAP
00
00
00
00
00
00
00
00
00
00
00
00
00
ENDCHAR

STARTCHAR C529=0x211
ENCODING 27
SWIDTH 461 0
DWIDTH 6 0
BBX 6 13 0 -3
BITMAP
00
00
00
70
88
88
F0
88
88
88
F0
80
80
ENDCHAR

STARTCHAR C530=0x212
ENCODING 28
SWIDTH 461 0
DWIDTH 6 0
BBX 6 13 0 -3
BITMAP
00
00
78
48
40
40
40
40
40
40
E0
00
00
ENDCHAR

STARTCHAR C531=0x213
ENCODING 29
SWIDTH 461 0
DWIDTH 6 0
BBX 6 13 0 -3
BITMAP
00
00
00
00
00
00
00
00
00
00
00
00
00
ENDCHAR

STARTCHAR C532=0x214
ENCODING 30
SWIDTH 461 0
DWIDTH 6 0
BBX 6 13 0 -3
BITMAP
00
00
00
00
00
00
00
00
00
00
00
00
00
ENDCHAR

STARTCHAR C533=0x215
ENCODING 31
SWIDTH 461 0
DWIDTH 6 0
BBX 6 13 0 -3
BITMAP
00
00
00
00
00
F8
00
F8
00
F8
00
00
00
ENDCHAR

STARTCHAR C534=0x216
ENCODING 32
SWIDTH 461 0
DWIDTH 6 0
BBX 6 13 0 -3
BITMAP
00
00
70
88
88
70
00
00
00
00
00
00
00
ENDCHAR

STARTCHAR C535=0x217
ENCODING 33
SWIDTH 461 0
DWIDTH 6 0
BBX 6 13 0 -3
BITMAP
00
00
70
F8
F8
70
00
00
00
00
00
00
00
ENDCHAR

STARTCHAR C536=0x218
ENCODING 34
SWIDTH 461 0
DWIDTH 6 0
BBX 6 13 0 -3
BITMAP
00
00
00
00
00
60
F0
60
00
00
00
00
00
ENDCHAR

STARTCHAR C537=0x219
ENCODING 35
SWIDTH 461 0
DWIDTH 6 0
BBX 6 13 0 -3
BITMAP
00
00
00
00
00
00
00
58
68
48
48
00
00
ENDCHAR

STARTCHAR C538=0x21a
ENCODING 36
SWIDTH 461 0
DWIDTH 6 0
BBX 6 13 0 -3
BITMAP
00
00
00
78
78
78
78
00
00
00
00
00
00
ENDCHAR

STARTCHAR C539=0x21b
ENCODING 37
SWIDTH 461 0
DWIDTH 6 0
BBX 6 13 0 -3
BITMAP
00
00
38
28
28
20
20
20
A0
A0
E0
00
00
ENDCHAR

STARTCHAR C540=0x21c
ENCODING 38
SWIDTH 461 0
DWIDTH 6 0
BBX 6 13 0 -3
BITMAP
00
00
88
88
88
88
F8
20
20
20
20
00
00
ENDCHAR

STARTCHAR C541=0x21d
ENCODING 39
SWIDTH 461 0
DWIDTH 6 0
BBX 6 13 0 -3
BITMAP
00
00
08
08
08
08
F8
88
88
88
88
00
00
ENDCHAR

STARTCHAR C542=0x21e
ENCODING 40
SWIDTH 461 0
DWIDTH 6 0
BBX 6 13 0 -3
BITMAP
10
20
60
00
00
00
00
00
00
00
00
00
00
ENDCHAR

STARTCHAR C543=0x21f
ENCODING 41
SWIDTH 461 0
DWIDTH 6 0
BBX 6 13 0 -3
BITMAP
30
20
40
00
00
00
00
00
00
00
00
00
00
ENDCHAR

STARTCHAR C573=0x23d
ENCODING 42
SWIDTH 461 0
DWIDTH 6 0
BBX 6 13 0 -3
BITMAP
00
00
00
00
00
00
00
00
00
00
00
00
00
ENDCHAR

STARTCHAR C586=0x24a
ENCODING 43
SWIDTH 461 0
DWIDTH 6 0
BBX 6 13 0 -3
BITMAP
00
00
00
00
00
00
00
00
00
00
00
00
00
ENDCHAR

STARTCHAR C601=0x259
ENCODING 44
SWIDTH 461 0
DWIDTH 6 0
BBX 6 13 0 -3
BITMAP
00
00
00
00
00
00
00
00
00
00
00
00
00
ENDCHAR

STARTCHAR C621=0x26d
ENCODING 45
SWIDTH 461 0
DWIDTH 6 0
BBX 6 13 0 -3
BITMAP
00
00
00
00
00
00
00
00
00
00
00
00
00
ENDCHAR

STARTCHAR C622=0x26e
ENCODING 46
SWIDTH 461 0
DWIDTH 6 0
BBX 6 13 0 -3
BITMAP
00
00
00
00
00
00
00
00
00
00
00
00
00
ENDCHAR

STARTCHAR C627=0x273
ENCODING 47
SWIDTH 461 0
DWIDTH 6 0
BBX 6 13 0 -3
BITMAP
00
00
00
00
00
00
00
00
00
00
00
00
00
ENDCHAR

STARTCHAR C628=0x274
ENCODING 48
SWIDTH 461 0
DWIDTH 6 0
BBX 6 13 0 -3
BITMAP
00
00
98
68
08
78
88
88
88
88
78
00
00
ENDCHAR

STARTCHAR C629=0x275
ENCODING 49
SWIDTH 461 0
DWIDTH 6 0
BBX 6 13 0 -3
BITMAP
00
00
90
60
00
B0
C8
88
88
88
88
00
00
ENDCHAR

STARTCHAR C632=0x278
ENCODING 50
SWIDTH 461 0
DWIDTH 6 0
BBX 6 13 0 -3
BITMAP
00
00
48
90
00
70
88
88
88
88
70
00
00
ENDCHAR

STARTCHAR C635=0x27b
ENCODING 51
SWIDTH 461 0
DWIDTH 6 0
BBX 6 13 0 -3
BITMAP
00
00
00
00
00
00
00
00
00
00
00
00
00
ENDCHAR

STARTCHAR C638=0x27e
ENCODING 52
SWIDTH 461 0
DWIDTH 6 0
BBX 6 13 0 -3
BITMAP
F8
F8
00
00
00
00
00
00
00
00
00
00
00
ENDCHAR

STARTCHAR C639=0x27f
ENCODING 53
SWIDTH 461 0
DWIDTH 6 0
BBX 6 13 0 -3
BITMAP
00
48
90
90
00
00
00
00
00
00
00
00
00
ENDCHAR

STARTCHAR C642=0x282
ENCODING 54
SWIDTH 461 0
DWIDTH 6 0
BBX 6 13 0 -3
BITMAP
20
50
00
88
88
88
88
A8
A8
A8
50
00
00
ENDCHAR

STARTCHAR C643=0x283
ENCODING 55
SWIDTH 461 0
DWIDTH 6 0
BBX 6 13 0 -3
BITMAP
00
00
20
50
00
88
88
A8
A8
A8
50
00
00
ENDCHAR

STARTCHAR C644=0x284
ENCODING 56
SWIDTH 461 0
DWIDTH 6 0
BBX 6 13 0 -3
BITMAP
20
50
00
88
88
50
50
20
20
20
20
00
00
ENDCHAR

STARTCHAR C645=0x285
ENCODING 57
SWIDTH 461 0
DWIDTH 6 0
BBX 6 13 0 -3
BITMAP
00
00
20
50
00
88
88
50
50
20
20
C0
00
ENDCHAR

STARTCHAR C647=0x287
ENCODING 58
SWIDTH 461 0
DWIDTH 6 0
BBX 6 13 0 -3
BITMAP
00
00
48
48
90
00
00
00
00
00
00
00
00
ENDCHAR

ENDFONT
