STARTFONT 2.1
FONT -Bitstream-Swiss 742-Bold-R-Normal--16-120-72-72-P-94-ISO8859-1
SIZE 12 72 72
FONTBOUNDINGBOX 15 16 0 -4

STARTPROPERTIES 27
FONTNAME_REGISTRY ""
FAMILY_NAME "Swiss 742"
FOUNDRY "Bitstream"
WEIGHT_NAME "Bold"
SETWIDTH_NAME "Normal"
SLANT "R"
ADD_STYLE_NAME "Sans Serif"
PIXEL_SIZE 16
POINT_SIZE 120
RESOLUTION_X 72
RESOLUTION_Y 72
SPACING "P"
AVERAGE_WIDTH 94
CHARSET_REGISTRY "ISO8859"
CHARSET_ENCODING "1"
CAP_HEIGHT 9
X_HEIGHT 6
CHARSET_COLLECTIONS "ISO8859-1"
FULL_NAME "Swiss742-Bold"
COPYRIGHT "Copyright 1989 by Bitstream, Inc. All rights reserved."
NOTICE "Swiss 742 is a registered trademark of Bitstream, Inc."
NOTICE "This Font is licensed for use on Hewlett-Packard Equipment only."
WEIGHT 10
QUAD_WIDTH 9
DEFAULT_CHAR 0
FONT_DESCENT 4
FONT_ASCENT 12
ENDPROPERTIES

CHARS 191

STARTCHAR PrintableSpace
ENCODING 32
SWIDTH 277 0
DWIDTH 3 0
BBX 1 1 0 0
BITMAP
00
ENDCHAR

STARTCHAR Exclamation
ENCODING 33
SWIDTH 382 0
DWIDTH 5 0
BBX 2 11 2 -1
BITMAP
C0
C0
C0
C0
C0
C0
C0
C0
00
C0
C0
ENDCHAR

STARTCHAR NeutrlDblQuote
ENCODING 34
SWIDTH 331 0
DWIDTH 6 0
BBX 3 4 2 6
BITMAP
A0
A0
A0
A0
ENDCHAR

STARTCHAR NumberSign
ENCODING 35
SWIDTH 769 0
DWIDTH 10 0
BBX 9 11 1 -1
BITMAP
1B00
1B00
1B00
7F80
3600
3600
3600
FF00
6C00
6C00
6C00
ENDCHAR

STARTCHAR DollarSign
ENCODING 36
SWIDTH 553 0
DWIDTH 7 0
BBX 6 13 1 -2
BITMAP
10
10
78
DC
D4
F0
78
3C
AC
EC
78
20
20
ENDCHAR

STARTCHAR PerCentSign
ENCODING 37
SWIDTH 984 0
DWIDTH 12 0
BBX 11 11 1 -1
BITMAP
7180
D900
DB00
DA00
7600
0400
0DC0
0B60
1B60
1360
31C0
ENDCHAR

STARTCHAR Ampersand
ENCODING 38
SWIDTH 648 0
DWIDTH 8 0
BBX 7 11 1 -1
BITMAP
78
C0
C0
C0
CC
7E
CC
CC
CC
CC
7C
ENDCHAR

STARTCHAR SingleCloseQut
ENCODING 39
SWIDTH 269 0
DWIDTH 4 0
BBX 3 4 1 6
BITMAP
60
60
C0
80
ENDCHAR

STARTCHAR OpenParen
ENCODING 40
SWIDTH 331 0
DWIDTH 5 0
BBX 4 13 1 -2
BITMAP
30
60
60
C0
C0
C0
C0
C0
C0
C0
60
60
30
ENDCHAR

STARTCHAR CloseParen
ENCODING 41
SWIDTH 331 0
DWIDTH 5 0
BBX 4 13 1 -2
BITMAP
C0
60
60
30
30
30
30
30
30
30
60
60
C0
ENDCHAR

STARTCHAR Asterisk
ENCODING 42
SWIDTH 537 0
DWIDTH 9 0
BBX 8 8 1 0
BITMAP
18
DB
DB
3C
3C
DB
DB
18
ENDCHAR

STARTCHAR PlusSign
ENCODING 43
SWIDTH 833 0
DWIDTH 9 0
BBX 8 8 1 0
BITMAP
18
18
18
FF
FF
18
18
18
ENDCHAR

STARTCHAR Comma
ENCODING 44
SWIDTH 277 0
DWIDTH 4 0
BBX 3 4 0 -2
BITMAP
60
60
C0
80
ENDCHAR

STARTCHAR Hyphen
ENCODING 45
SWIDTH 348 0
DWIDTH 9 0
BBX 8 2 1 3
BITMAP
FF
FF
ENDCHAR

STARTCHAR Period
ENCODING 46
SWIDTH 277 0
DWIDTH 4 0
BBX 2 2 1 0
BITMAP
C0
C0
ENDCHAR

STARTCHAR Slash
ENCODING 47
SWIDTH 382 0
DWIDTH 7 0
BBX 6 13 1 -2
BITMAP
0C
0C
18
18
18
30
30
30
60
60
60
C0
C0
ENDCHAR

STARTCHAR Zero
ENCODING 48
SWIDTH 553 0
DWIDTH 7 0
BBX 6 9 1 0
BITMAP
78
CC
CC
CC
CC
CC
CC
CC
78
ENDCHAR

STARTCHAR One
ENCODING 49
SWIDTH 553 0
DWIDTH 6 0
BBX 4 9 1 0
BITMAP
70
F0
B0
30
30
30
30
30
30
ENDCHAR

STARTCHAR Two
ENCODING 50
SWIDTH 553 0
DWIDTH 7 0
BBX 6 9 1 0
BITMAP
78
CC
CC
0C
1C
38
70
E0
FC
ENDCHAR

STARTCHAR Three
ENCODING 51
SWIDTH 553 0
DWIDTH 7 0
BBX 6 9 1 0
BITMAP
78
CC
CC
0C
38
0C
CC
CC
78
ENDCHAR

STARTCHAR Four
ENCODING 52
SWIDTH 553 0
DWIDTH 7 0
BBX 6 9 1 0
BITMAP
18
38
78
58
D8
98
FC
18
18
ENDCHAR

STARTCHAR Five
ENCODING 53
SWIDTH 553 0
DWIDTH 7 0
BBX 6 9 1 0
BITMAP
FC
C0
C0
F8
CC
0C
0C
CC
78
ENDCHAR

STARTCHAR Six
ENCODING 54
SWIDTH 553 0
DWIDTH 7 0
BBX 6 9 1 0
BITMAP
78
CC
C0
F8
CC
CC
CC
CC
78
ENDCHAR

STARTCHAR Seven
ENCODING 55
SWIDTH 553 0
DWIDTH 7 0
BBX 6 9 1 0
BITMAP
FC
0C
0C
18
18
30
30
60
60
ENDCHAR

STARTCHAR Eight
ENCODING 56
SWIDTH 553 0
DWIDTH 7 0
BBX 6 9 1 0
BITMAP
78
CC
CC
CC
78
CC
CC
CC
78
ENDCHAR

STARTCHAR Nine
ENCODING 57
SWIDTH 553 0
DWIDTH 7 0
BBX 6 9 1 0
BITMAP
78
CC
CC
CC
CC
7C
0C
CC
78
ENDCHAR

STARTCHAR Colon
ENCODING 58
SWIDTH 382 0
DWIDTH 4 0
BBX 2 6 1 0
BITMAP
C0
C0
00
00
C0
C0
ENDCHAR

STARTCHAR Simicolon
ENCODING 59
SWIDTH 382 0
DWIDTH 4 0
BBX 3 8 0 -2
BITMAP
60
60
00
00
60
60
C0
80
ENDCHAR

STARTCHAR LessThanSign
ENCODING 60
SWIDTH 833 0
DWIDTH 9 0
BBX 8 8 1 0
BITMAP
03
0F
3C
E0
E0
3C
0F
03
ENDCHAR

STARTCHAR EqualsSign
ENCODING 61
SWIDTH 833 0
DWIDTH 9 0
BBX 8 6 1 1
BITMAP
FF
FF
00
00
FF
FF
ENDCHAR

STARTCHAR GreatrThanSign
ENCODING 62
SWIDTH 833 0
DWIDTH 9 0
BBX 8 8 1 0
BITMAP
C0
F0
3C
07
07
3C
F0
C0
ENDCHAR

STARTCHAR QuestionMark
ENCODING 63
SWIDTH 495 0
DWIDTH 7 0
BBX 6 11 1 -1
BITMAP
78
CC
CC
0C
18
30
30
30
00
30
30
ENDCHAR

STARTCHAR CommerclAtSign
ENCODING 64
SWIDTH 1000 0
DWIDTH 13 0
BBX 10 11 2 -1
BITMAP
1E00
7300
6180
CF80
D980
D980
D980
CEC0
6000
7000
1F00
ENDCHAR

STARTCHAR A
ENCODING 65
SWIDTH 701 0
DWIDTH 9 0
BBX 8 9 1 0
BITMAP
18
18
3C
24
66
66
FF
C3
C3
ENDCHAR

STARTCHAR B
ENCODING 66
SWIDTH 661 0
DWIDTH 8 0
BBX 7 9 1 0
BITMAP
FC
C6
C6
C6
FC
C6
C6
C6
FC
ENDCHAR

STARTCHAR C
ENCODING 67
SWIDTH 697 0
DWIDTH 9 0
BBX 8 9 1 0
BITMAP
3C
66
C3
C0
C0
C0
C3
66
3C
ENDCHAR

STARTCHAR D
ENCODING 68
SWIDTH 721 0
DWIDTH 8 0
BBX 7 9 1 0
BITMAP
F8
CC
C6
C6
C6
C6
C6
CC
F8
ENDCHAR

STARTCHAR E
ENCODING 69
SWIDTH 600 0
DWIDTH 7 0
BBX 6 9 1 0
BITMAP
FC
C0
C0
C0
FC
C0
C0
C0
FC
ENDCHAR

STARTCHAR F
ENCODING 70
SWIDTH 550 0
DWIDTH 7 0
BBX 6 9 1 0
BITMAP
FC
C0
C0
C0
FC
C0
C0
C0
C0
ENDCHAR

STARTCHAR G
ENCODING 71
SWIDTH 770 0
DWIDTH 9 0
BBX 8 9 1 0
BITMAP
3C
66
C3
C0
C0
CF
C3
63
3E
ENDCHAR

STARTCHAR H
ENCODING 72
SWIDTH 715 0
DWIDTH 8 0
BBX 7 9 1 0
BITMAP
C6
C6
C6
C6
FE
C6
C6
C6
C6
ENDCHAR

STARTCHAR I
ENCODING 73
SWIDTH 292 0
DWIDTH 3 0
BBX 2 9 1 0
BITMAP
C0
C0
C0
C0
C0
C0
C0
C0
C0
ENDCHAR

STARTCHAR J
ENCODING 74
SWIDTH 550 0
DWIDTH 7 0
BBX 6 9 1 0
BITMAP
0C
0C
0C
0C
0C
0C
CC
CC
78
ENDCHAR

STARTCHAR K
ENCODING 75
SWIDTH 657 0
DWIDTH 8 0
BBX 7 9 1 0
BITMAP
C6
CC
D8
F0
F0
D8
CC
C6
C2
ENDCHAR

STARTCHAR L
ENCODING 76
SWIDTH 569 0
DWIDTH 7 0
BBX 6 9 1 0
BITMAP
C0
C0
C0
C0
C0
C0
C0
C0
FC
ENDCHAR

STARTCHAR M
ENCODING 77
SWIDTH 932 0
DWIDTH 11 0
BBX 10 9 1 0
BITMAP
C0C0
E1C0
E1C0
F3C0
D2C0
DEC0
CCC0
CCC0
CCC0
ENDCHAR

STARTCHAR N
ENCODING 78
SWIDTH 769 0
DWIDTH 9 0
BBX 8 9 1 0
BITMAP
E3
E3
F3
D3
DB
CB
CF
C7
C7
ENDCHAR

STARTCHAR O
ENCODING 79
SWIDTH 780 0
DWIDTH 9 0
BBX 8 9 1 0
BITMAP
3C
66
C3
C3
C3
C3
C3
66
3C
ENDCHAR

STARTCHAR P
ENCODING 80
SWIDTH 603 0
DWIDTH 7 0
BBX 6 9 1 0
BITMAP
F8
CC
CC
CC
F8
C0
C0
C0
C0
ENDCHAR

STARTCHAR Q
ENCODING 81
SWIDTH 780 0
DWIDTH 9 0
BBX 8 10 1 -1
BITMAP
3C
66
C3
C3
C3
C3
DB
6E
3E
03
ENDCHAR

STARTCHAR R
ENCODING 82
SWIDTH 659 0
DWIDTH 8 0
BBX 7 9 1 0
BITMAP
FC
C6
C6
C6
FC
C6
C6
C6
C6
ENDCHAR

STARTCHAR S
ENCODING 83
SWIDTH 658 0
DWIDTH 8 0
BBX 7 9 1 0
BITMAP
7C
C6
C2
70
3C
0E
86
C6
7C
ENDCHAR

STARTCHAR T
ENCODING 84
SWIDTH 603 0
DWIDTH 7 0
BBX 6 9 1 0
BITMAP
FC
30
30
30
30
30
30
30
30
ENDCHAR

STARTCHAR U
ENCODING 85
SWIDTH 754 0
DWIDTH 8 0
BBX 7 9 1 0
BITMAP
C6
C6
C6
C6
C6
C6
C6
EE
7C
ENDCHAR

STARTCHAR V
ENCODING 86
SWIDTH 714 0
DWIDTH 9 0
BBX 8 9 1 0
BITMAP
C3
C3
66
66
66
3C
3C
18
18
ENDCHAR

STARTCHAR W
ENCODING 87
SWIDTH 991 0
DWIDTH 15 0
BBX 14 9 1 0
BITMAP
C30C
C30C
6798
6798
6CD8
2CD0
3CF0
1860
1860
ENDCHAR

STARTCHAR X
ENCODING 88
SWIDTH 714 0
DWIDTH 11 0
BBX 10 9 1 0
BITMAP
C0C0
6180
3300
1E00
0C00
1E00
3300
6180
C0C0
ENDCHAR

STARTCHAR Y
ENCODING 89
SWIDTH 660 0
DWIDTH 9 0
BBX 8 9 1 0
BITMAP
C3
C3
66
66
3C
18
18
18
18
ENDCHAR

STARTCHAR Z
ENCODING 90
SWIDTH 604 0
DWIDTH 8 0
BBX 7 9 1 0
BITMAP
FE
06
0C
18
38
30
60
C0
FE
ENDCHAR

STARTCHAR OpenBracket
ENCODING 91
SWIDTH 331 0
DWIDTH 6 0
BBX 4 13 2 -2
BITMAP
F0
C0
C0
C0
C0
C0
C0
C0
C0
C0
C0
C0
F0
ENDCHAR

STARTCHAR BackSlash
ENCODING 92
SWIDTH 382 0
DWIDTH 7 0
BBX 6 13 1 -2
BITMAP
C0
C0
60
60
60
30
30
30
18
18
18
0C
0C
ENDCHAR

STARTCHAR CloseBracket
ENCODING 93
SWIDTH 331 0
DWIDTH 6 0
BBX 4 13 1 -2
BITMAP
F0
30
30
30
30
30
30
30
30
30
30
30
F0
ENDCHAR

STARTCHAR Circumflex
ENCODING 94
SWIDTH 1000 0
DWIDTH 12 0
BBX 7 3 3 6
BITMAP
38
6C
C6
ENDCHAR

STARTCHAR Underscore
ENCODING 95
SWIDTH 500 0
DWIDTH 6 0
BBX 6 1 0 -1
BITMAP
FC
ENDCHAR

STARTCHAR SingleOpenQuot
ENCODING 96
SWIDTH 269 0
DWIDTH 4 0
BBX 3 4 1 6
BITMAP
20
60
C0
C0
ENDCHAR

STARTCHAR a
ENCODING 97
SWIDTH 551 0
DWIDTH 7 0
BBX 6 6 1 0
BITMAP
78
0C
7C
CC
CC
7C
ENDCHAR

STARTCHAR b
ENCODING 98
SWIDTH 608 0
DWIDTH 7 0
BBX 6 9 1 0
BITMAP
C0
C0
C0
F8
CC
CC
CC
CC
F8
ENDCHAR

STARTCHAR c
ENCODING 99
SWIDTH 498 0
DWIDTH 7 0
BBX 6 6 1 0
BITMAP
78
CC
C0
C0
CC
78
ENDCHAR

STARTCHAR d
ENCODING 100
SWIDTH 608 0
DWIDTH 7 0
BBX 6 9 1 0
BITMAP
0C
0C
0C
7C
CC
CC
CC
CC
7C
ENDCHAR

STARTCHAR e
ENCODING 101
SWIDTH 547 0
DWIDTH 7 0
BBX 6 6 1 0
BITMAP
78
CC
FC
C0
CC
78
ENDCHAR

STARTCHAR f
ENCODING 102
SWIDTH 327 0
DWIDTH 5 0
BBX 4 9 1 0
BITMAP
30
60
60
F0
60
60
60
60
60
ENDCHAR

STARTCHAR g
ENCODING 103
SWIDTH 597 0
DWIDTH 7 0
BBX 6 9 1 -3
BITMAP
7C
CC
CC
CC
CC
7C
0C
CC
78
ENDCHAR

STARTCHAR h
ENCODING 104
SWIDTH 596 0
DWIDTH 7 0
BBX 6 9 1 0
BITMAP
C0
C0
C0
D8
EC
CC
CC
CC
CC
ENDCHAR

STARTCHAR i
ENCODING 105
SWIDTH 277 0
DWIDTH 3 0
BBX 2 9 1 0
BITMAP
C0
C0
00
C0
C0
C0
C0
C0
C0
ENDCHAR

STARTCHAR j
ENCODING 106
SWIDTH 277 0
DWIDTH 5 0
BBX 3 12 1 -3
BITMAP
60
60
00
60
60
60
60
60
60
60
60
C0
ENDCHAR

STARTCHAR k
ENCODING 107
SWIDTH 547 0
DWIDTH 7 0
BBX 6 9 1 0
BITMAP
C0
C0
C0
CC
D8
F0
F0
D8
CC
ENDCHAR

STARTCHAR l
ENCODING 108
SWIDTH 277 0
DWIDTH 3 0
BBX 2 9 1 0
BITMAP
C0
C0
C0
C0
C0
C0
C0
C0
C0
ENDCHAR

STARTCHAR m
ENCODING 109
SWIDTH 913 0
DWIDTH 11 0
BBX 10 6 1 0
BITMAP
D980
EEC0
CCC0
CCC0
CCC0
CCC0
ENDCHAR

STARTCHAR n
ENCODING 110
SWIDTH 596 0
DWIDTH 7 0
BBX 6 6 1 0
BITMAP
D8
EC
CC
CC
CC
CC
ENDCHAR

STARTCHAR o
ENCODING 111
SWIDTH 603 0
DWIDTH 7 0
BBX 6 6 1 0
BITMAP
78
CC
CC
CC
CC
78
ENDCHAR

STARTCHAR p
ENCODING 112
SWIDTH 608 0
DWIDTH 7 0
BBX 6 9 1 -3
BITMAP
F8
CC
CC
CC
CC
F8
C0
C0
C0
ENDCHAR

STARTCHAR q
ENCODING 113
SWIDTH 608 0
DWIDTH 7 0
BBX 6 9 1 -3
BITMAP
7C
CC
CC
CC
CC
7C
0C
0C
0C
ENDCHAR

STARTCHAR r
ENCODING 114
SWIDTH 385 0
DWIDTH 5 0
BBX 4 6 1 0
BITMAP
D0
E0
C0
C0
C0
C0
ENDCHAR

STARTCHAR s
ENCODING 115
SWIDTH 494 0
DWIDTH 7 0
BBX 6 6 1 0
BITMAP
78
C4
F0
3C
8C
78
ENDCHAR

STARTCHAR t
ENCODING 116
SWIDTH 385 0
DWIDTH 6 0
BBX 5 8 1 0
BITMAP
20
60
F8
60
60
60
60
38
ENDCHAR

STARTCHAR u
ENCODING 117
SWIDTH 596 0
DWIDTH 7 0
BBX 6 6 1 0
BITMAP
CC
CC
CC
CC
DC
6C
ENDCHAR

STARTCHAR v
ENCODING 118
SWIDTH 552 0
DWIDTH 7 0
BBX 6 6 1 0
BITMAP
CC
CC
48
78
30
30
ENDCHAR

STARTCHAR w
ENCODING 119
SWIDTH 877 0
DWIDTH 11 0
BBX 10 6 1 0
BITMAP
CCC0
CCC0
6D80
7F80
3300
3300
ENDCHAR

STARTCHAR x
ENCODING 120
SWIDTH 548 0
DWIDTH 8 0
BBX 7 6 1 0
BITMAP
C6
6C
38
38
6C
C6
ENDCHAR

STARTCHAR y
ENCODING 121
SWIDTH 550 0
DWIDTH 7 0
BBX 6 9 1 -3
BITMAP
CC
CC
48
78
30
30
30
60
60
ENDCHAR

STARTCHAR z
ENCODING 122
SWIDTH 493 0
DWIDTH 6 0
BBX 5 6 1 0
BITMAP
F8
18
30
60
C0
F8
ENDCHAR

STARTCHAR OpenBrace
ENCODING 123
SWIDTH 500 0
DWIDTH 6 0
BBX 5 13 1 -2
BITMAP
38
60
60
60
60
60
C0
60
60
60
60
60
38
ENDCHAR

STARTCHAR LongVertMark
ENCODING 124
SWIDTH 500 0
DWIDTH 5 0
BBX 2 11 2 -1
BITMAP
C0
C0
C0
C0
C0
C0
C0
C0
C0
C0
C0
ENDCHAR

STARTCHAR CloseBrace
ENCODING 125
SWIDTH 500 0
DWIDTH 6 0
BBX 5 13 1 -2
BITMAP
E0
30
30
30
30
30
18
30
30
30
30
30
E0
ENDCHAR

STARTCHAR OneWavyLine
ENCODING 126
SWIDTH 833 0
DWIDTH 9 0
BBX 8 3 1 2
BITMAP
73
FF
CE
ENDCHAR

STARTCHAR MediumShading
ENCODING 127
SWIDTH 1000 0
DWIDTH 12 0
BBX 12 16 0 -4
BITMAP
CCC0
CCC0
3330
3330
CCC0
CCC0
3330
3330
CCC0
CCC0
3330
3330
CCC0
CCC0
3330
3330
ENDCHAR

STARTCHAR InvExclamation
ENCODING 161
SWIDTH 382 0
DWIDTH 5 0
BBX 2 11 2 -1
BITMAP
C0
C0
00
C0
C0
C0
C0
C0
C0
C0
C0
ENDCHAR

STARTCHAR CentSign
ENCODING 162
SWIDTH 553 0
DWIDTH 7 0
BBX 6 10 1 -2
BITMAP
08
08
78
DC
D0
E0
EC
78
40
40
ENDCHAR

STARTCHAR SterlingSign
ENCODING 163
SWIDTH 382 0
DWIDTH 7 0
BBX 6 9 1 0
BITMAP
38
6C
60
60
F8
60
F8
60
FC
ENDCHAR

STARTCHAR CurrencySymbol
ENCODING 164
SWIDTH 606 0
DWIDTH 9 0
BBX 8 8 1 1
BITMAP
C3
FF
66
42
42
66
FF
C3
ENDCHAR

STARTCHAR Yensign
ENCODING 165
SWIDTH 662 0
DWIDTH 9 0
BBX 8 9 1 0
BITMAP
C3
C3
66
FF
3C
FF
18
18
18
ENDCHAR

STARTCHAR BrokenBar
ENCODING 166
SWIDTH 500 0
DWIDTH 5 0
BBX 2 16 2 -4
BITMAP
00
00
C0
C0
C0
C0
C0
00
C0
C0
C0
C0
C0
00
00
00
ENDCHAR

STARTCHAR SectionMark
ENCODING 167
SWIDTH 537 0
DWIDTH 6 0
BBX 5 10 1 -1
BITMAP
70
98
C0
70
98
C8
70
18
C8
70
ENDCHAR

STARTCHAR diaeresisAccnt
ENCODING 168
SWIDTH 500 0
DWIDTH 6 0
BBX 4 2 1 7
BITMAP
90
90
ENDCHAR

STARTCHAR CopyrightSign
ENCODING 169
SWIDTH 498 0
DWIDTH 7 0
BBX 6 16 1 -4
BITMAP
00
00
00
00
00
00
78
CC
C0
C0
CC
78
00
00
00
00
ENDCHAR

STARTCHAR FemaleOrdinal
ENCODING 170
SWIDTH 382 0
DWIDTH 8 0
BBX 6 8 1 1
BITMAP
78
0C
7C
CC
CC
7C
00
FC
ENDCHAR

STARTCHAR DblOpenAnglQut
ENCODING 171
SWIDTH 606 0
DWIDTH 8 0
BBX 7 6 1 1
BITMAP
22
66
CC
CC
66
22
ENDCHAR

STARTCHAR NotSign
ENCODING 172
SWIDTH 348 0
DWIDTH 9 0
BBX 8 16 1 -4
BITMAP
00
00
00
00
00
00
00
FF
FF
03
03
03
00
00
00
00
ENDCHAR

STARTCHAR SoftHyphen
ENCODING 173
SWIDTH 348 0
DWIDTH 9 0
BBX 8 16 1 -4
BITMAP
00
00
00
00
00
00
00
7C
7C
00
00
00
00
00
00
00
ENDCHAR

STARTCHAR RegTradeMark
ENCODING 174
SWIDTH 498 0
DWIDTH 9 0
BBX 8 16 1 -4
BITMAP
00
00
00
3C
42
B9
A5
B9
A5
42
3C
00
00
00
00
00
ENDCHAR

STARTCHAR Macron
ENCODING 175
SWIDTH 348 0
DWIDTH 9 0
BBX 8 16 1 -4
BITMAP
00
00
00
7E
00
00
00
00
00
00
00
00
00
00
00
00
ENDCHAR

STARTCHAR DegreeSign
ENCODING 176
SWIDTH 329 0
DWIDTH 5 0
BBX 4 4 1 5
BITMAP
60
90
90
60
ENDCHAR

STARTCHAR PlusOverMinus
ENCODING 177
SWIDTH 833 0
DWIDTH 9 0
BBX 8 9 1 0
BITMAP
18
18
FF
FF
18
18
00
FF
FF
ENDCHAR

STARTCHAR SuperscriptTwo
ENCODING 178
SWIDTH 864 0
DWIDTH 5 0
BBX 4 16 1 -4
BITMAP
00
00
00
60
90
10
20
40
80
F0
00
00
00
00
00
00
ENDCHAR

STARTCHAR Superscript3
ENCODING 179
SWIDTH 864 0
DWIDTH 5 0
BBX 4 16 1 -4
BITMAP
00
00
00
E0
10
10
60
10
10
E0
00
00
00
00
00
00
ENDCHAR

STARTCHAR acuteAccent
ENCODING 180
SWIDTH 500 0
DWIDTH 6 0
BBX 3 2 2 7
BITMAP
60
C0
ENDCHAR

STARTCHAR muGreek
ENCODING 181
SWIDTH 610 0
DWIDTH 9 0
BBX 8 9 1 -3
BITMAP
33
33
33
66
66
7E
C0
C0
C0
ENDCHAR

STARTCHAR ParagraphSign
ENCODING 182
SWIDTH 500 0
DWIDTH 7 0
BBX 6 9 1 0
BITMAP
7C
E8
E8
68
28
28
28
28
28
ENDCHAR

STARTCHAR middleDot
ENCODING 183
SWIDTH 382 0
DWIDTH 6 0
BBX 1 2 3 4
BITMAP
80
80
ENDCHAR

STARTCHAR Cedilla
ENCODING 184
SWIDTH 697 0
DWIDTH 9 0
BBX 8 16 1 -4
BITMAP
00
00
00
00
00
00
00
00
00
00
00
00
08
38
00
00
ENDCHAR

STARTCHAR SuperscriptOne
ENCODING 185
SWIDTH 864 0
DWIDTH 4 0
BBX 3 16 1 -4
BITMAP
00
00
00
60
A0
20
20
20
20
00
00
00
00
00
00
00
ENDCHAR

STARTCHAR MaleOrdinal
ENCODING 186
SWIDTH 382 0
DWIDTH 8 0
BBX 6 8 1 1
BITMAP
78
CC
CC
CC
CC
78
00
FC
ENDCHAR

STARTCHAR DblClosAnglQut
ENCODING 187
SWIDTH 606 0
DWIDTH 8 0
BBX 7 6 1 1
BITMAP
88
CC
66
66
CC
88
ENDCHAR

STARTCHAR FracOneFourth
ENCODING 188
SWIDTH 864 0
DWIDTH 11 0
BBX 9 9 1 0
BITMAP
4600
C400
4C00
4800
5900
1300
3500
2780
6100
ENDCHAR

STARTCHAR FracOneHalf
ENCODING 189
SWIDTH 864 0
DWIDTH 11 0
BBX 9 9 1 0
BITMAP
4600
C400
4C00
4800
5B00
1480
3100
2200
6780
ENDCHAR

STARTCHAR FracThreeFour
ENCODING 190
SWIDTH 864 0
DWIDTH 11 0
BBX 9 9 1 0
BITMAP
C600
2400
CC00
2800
D900
1300
3500
2780
6100
ENDCHAR

STARTCHAR InvertQuestion
ENCODING 191
SWIDTH 495 0
DWIDTH 7 0
BBX 6 11 1 -1
BITMAP
30
30
00
30
30
30
60
C0
CC
CC
78
ENDCHAR

STARTCHAR Agrave
ENCODING 192
SWIDTH 701 0
DWIDTH 9 0
BBX 8 12 1 0
BITMAP
30
18
00
18
18
3C
24
66
66
FF
C3
C3
ENDCHAR

STARTCHAR Aacute
ENCODING 193
SWIDTH 701 0
DWIDTH 9 0
BBX 8 12 1 0
BITMAP
0C
18
00
18
18
3C
24
66
66
FF
C3
C3
ENDCHAR

STARTCHAR Acircumflex
ENCODING 194
SWIDTH 701 0
DWIDTH 9 0
BBX 8 12 1 0
BITMAP
18
24
00
18
18
3C
24
66
66
FF
C3
C3
ENDCHAR

STARTCHAR Atilde
ENCODING 195
SWIDTH 701 0
DWIDTH 9 0
BBX 8 12 1 0
BITMAP
3A
5C
00
18
18
3C
24
66
66
FF
C3
C3
ENDCHAR

STARTCHAR Adiaeresis
ENCODING 196
SWIDTH 701 0
DWIDTH 9 0
BBX 8 12 1 0
BITMAP
24
24
00
18
18
3C
24
66
66
FF
C3
C3
ENDCHAR

STARTCHAR Abolle
ENCODING 197
SWIDTH 701 0
DWIDTH 9 0
BBX 8 12 1 0
BITMAP
18
24
24
18
18
3C
24
66
66
FF
C3
C3
ENDCHAR

STARTCHAR AEdiphthong
ENCODING 198
SWIDTH 963 0
DWIDTH 13 0
BBX 12 9 1 0
BITMAP
0FF0
1B00
1B00
3300
33F0
6300
7F00
C300
C3F0
ENDCHAR

STARTCHAR Ccedilla
ENCODING 199
SWIDTH 697 0
DWIDTH 9 0
BBX 8 11 1 -2
BITMAP
3C
66
C3
C0
C0
C0
C3
66
3C
08
38
ENDCHAR

STARTCHAR Egrave
ENCODING 200
SWIDTH 600 0
DWIDTH 7 0
BBX 6 12 1 0
BITMAP
30
18
00
FC
C0
C0
C0
FC
C0
C0
C0
FC
ENDCHAR

STARTCHAR Eacute
ENCODING 201
SWIDTH 600 0
DWIDTH 7 0
BBX 6 12 1 0
BITMAP
18
30
00
FC
C0
C0
C0
FC
C0
C0
C0
FC
ENDCHAR

STARTCHAR Ecircumflex
ENCODING 202
SWIDTH 600 0
DWIDTH 7 0
BBX 6 12 1 0
BITMAP
30
48
00
FC
C0
C0
C0
FC
C0
C0
C0
FC
ENDCHAR

STARTCHAR Ediaeresis
ENCODING 203
SWIDTH 600 0
DWIDTH 7 0
BBX 6 12 1 0
BITMAP
48
48
00
FC
C0
C0
C0
FC
C0
C0
C0
FC
ENDCHAR

STARTCHAR Igrave
ENCODING 204
SWIDTH 292 0
DWIDTH 3 0
BBX 3 12 0 0
BITMAP
C0
60
00
60
60
60
60
60
60
60
60
60
ENDCHAR

STARTCHAR Iacute
ENCODING 205
SWIDTH 292 0
DWIDTH 3 0
BBX 3 12 0 0
BITMAP
60
C0
00
60
60
60
60
60
60
60
60
60
ENDCHAR

STARTCHAR Icircumflex
ENCODING 206
SWIDTH 292 0
DWIDTH 3 0
BBX 3 12 0 0
BITMAP
40
A0
00
60
60
60
60
60
60
60
60
60
ENDCHAR

STARTCHAR Idiaeresis
ENCODING 207
SWIDTH 292 0
DWIDTH 3 0
BBX 3 12 0 0
BITMAP
A0
A0
00
60
60
60
60
60
60
60
60
60
ENDCHAR

STARTCHAR Eth
ENCODING 208
SWIDTH 733 0
DWIDTH 9 0
BBX 8 9 1 0
BITMAP
7C
66
63
63
FB
63
63
66
7C
ENDCHAR

STARTCHAR Ntilde
ENCODING 209
SWIDTH 769 0
DWIDTH 9 0
BBX 8 12 1 0
BITMAP
3A
5C
00
E3
E3
F3
D3
DB
CB
CF
C7
C7
ENDCHAR

STARTCHAR Ograve
ENCODING 210
SWIDTH 780 0
DWIDTH 9 0
BBX 8 12 1 0
BITMAP
30
18
00
3C
66
C3
C3
C3
C3
C3
66
3C
ENDCHAR

STARTCHAR Oacute
ENCODING 211
SWIDTH 780 0
DWIDTH 9 0
BBX 8 12 1 0
BITMAP
0C
18
00
3C
66
C3
C3
C3
C3
C3
66
3C
ENDCHAR

STARTCHAR Ocircumflex
ENCODING 212
SWIDTH 780 0
DWIDTH 9 0
BBX 8 12 1 0
BITMAP
18
24
00
3C
66
C3
C3
C3
C3
C3
66
3C
ENDCHAR

STARTCHAR Otilde
ENCODING 213
SWIDTH 780 0
DWIDTH 9 0
BBX 8 12 1 0
BITMAP
3A
5C
00
3C
66
C3
C3
C3
C3
C3
66
3C
ENDCHAR

STARTCHAR Odiaeresis
ENCODING 214
SWIDTH 780 0
DWIDTH 9 0
BBX 8 12 1 0
BITMAP
24
24
00
3C
66
C3
C3
C3
C3
C3
66
3C
ENDCHAR

STARTCHAR Multiplication
ENCODING 215
SWIDTH 833 0
DWIDTH 9 0
BBX 8 16 1 -4
BITMAP
00
00
00
00
C6
EE
7C
38
7C
EE
C6
00
00
00
00
00
ENDCHAR

STARTCHAR Ooblique
ENCODING 216
SWIDTH 780 0
DWIDTH 9 0
BBX 8 9 1 0
BITMAP
3D
66
C7
CB
DB
D3
E3
66
BC
ENDCHAR

STARTCHAR Ugrave
ENCODING 217
SWIDTH 754 0
DWIDTH 8 0
BBX 7 12 1 0
BITMAP
30
18
00
C6
C6
C6
C6
C6
C6
C6
EE
7C
ENDCHAR

STARTCHAR Uacute
ENCODING 218
SWIDTH 754 0
DWIDTH 8 0
BBX 7 12 1 0
BITMAP
18
30
00
C6
C6
C6
C6
C6
C6
C6
EE
7C
ENDCHAR

STARTCHAR Ucircumflex
ENCODING 219
SWIDTH 754 0
DWIDTH 8 0
BBX 7 12 1 0
BITMAP
38
6C
00
C6
C6
C6
C6
C6
C6
C6
EE
7C
ENDCHAR

STARTCHAR Udiaeresis
ENCODING 220
SWIDTH 754 0
DWIDTH 8 0
BBX 7 12 1 0
BITMAP
44
44
00
C6
C6
C6
C6
C6
C6
C6
EE
7C
ENDCHAR

STARTCHAR Yacute
ENCODING 221
SWIDTH 660 0
DWIDTH 9 0
BBX 8 12 1 0
BITMAP
0C
18
00
C3
C3
66
66
3C
18
18
18
18
ENDCHAR

STARTCHAR Thorn
ENCODING 222
SWIDTH 603 0
DWIDTH 7 0
BBX 6 9 1 0
BITMAP
C0
C0
F8
CC
CC
CC
F8
C0
C0
ENDCHAR

STARTCHAR EsZetLigature
ENCODING 223
SWIDTH 658 0
DWIDTH 8 0
BBX 7 9 1 0
BITMAP
78
CC
CC
D8
D8
CC
C6
D6
DC
ENDCHAR

STARTCHAR agrave
ENCODING 224
SWIDTH 551 0
DWIDTH 7 0
BBX 6 9 1 0
BITMAP
60
30
00
78
0C
7C
CC
CC
7C
ENDCHAR

STARTCHAR aacute
ENCODING 225
SWIDTH 551 0
DWIDTH 7 0
BBX 6 9 1 0
BITMAP
18
30
00
78
0C
7C
CC
CC
7C
ENDCHAR

STARTCHAR acircumflex
ENCODING 226
SWIDTH 551 0
DWIDTH 7 0
BBX 6 9 1 0
BITMAP
30
48
00
78
0C
7C
CC
CC
7C
ENDCHAR

STARTCHAR atilde
ENCODING 227
SWIDTH 551 0
DWIDTH 7 0
BBX 6 9 1 0
BITMAP
74
B8
00
78
0C
7C
CC
CC
7C
ENDCHAR

STARTCHAR adiaeresis
ENCODING 228
SWIDTH 551 0
DWIDTH 7 0
BBX 6 9 1 0
BITMAP
48
48
00
78
0C
7C
CC
CC
7C
ENDCHAR

STARTCHAR abolle
ENCODING 229
SWIDTH 551 0
DWIDTH 7 0
BBX 6 11 1 0
BITMAP
30
48
48
30
00
78
0C
7C
CC
CC
7C
ENDCHAR

STARTCHAR aedihthong
ENCODING 230
SWIDTH 839 0
DWIDTH 11 0
BBX 10 6 1 0
BITMAP
7B80
0CC0
7FC0
CC00
CCC0
7780
ENDCHAR

STARTCHAR ccedilla
ENCODING 231
SWIDTH 498 0
DWIDTH 7 0
BBX 6 8 1 -2
BITMAP
78
CC
C0
C0
CC
78
10
70
ENDCHAR

STARTCHAR egrave
ENCODING 232
SWIDTH 547 0
DWIDTH 7 0
BBX 6 9 1 0
BITMAP
60
30
00
78
CC
FC
C0
CC
78
ENDCHAR

STARTCHAR eacute
ENCODING 233
SWIDTH 547 0
DWIDTH 7 0
BBX 6 9 1 0
BITMAP
18
30
00
78
CC
FC
C0
CC
78
ENDCHAR

STARTCHAR ecircumflex
ENCODING 234
SWIDTH 547 0
DWIDTH 7 0
BBX 6 9 1 0
BITMAP
30
48
00
78
CC
FC
C0
CC
78
ENDCHAR

STARTCHAR ediaeresis
ENCODING 235
SWIDTH 547 0
DWIDTH 7 0
BBX 6 9 1 0
BITMAP
48
48
00
78
CC
FC
C0
CC
78
ENDCHAR

STARTCHAR igrave
ENCODING 236
SWIDTH 277 0
DWIDTH 3 0
BBX 3 9 0 0
BITMAP
C0
60
00
60
60
60
60
60
60
ENDCHAR

STARTCHAR iacute
ENCODING 237
SWIDTH 277 0
DWIDTH 3 0
BBX 3 9 0 0
BITMAP
60
C0
00
60
60
60
60
60
60
ENDCHAR

STARTCHAR icircumflex
ENCODING 238
SWIDTH 277 0
DWIDTH 3 0
BBX 3 9 0 0
BITMAP
40
A0
00
60
60
60
60
60
60
ENDCHAR

STARTCHAR idiaeresis
ENCODING 239
SWIDTH 277 0
DWIDTH 3 0
BBX 3 9 0 0
BITMAP
A0
A0
00
60
60
60
60
60
60
ENDCHAR

STARTCHAR ethIcelandic
ENCODING 240
SWIDTH 603 0
DWIDTH 7 0
BBX 6 9 1 0
BITMAP
D8
70
D8
08
7C
CC
CC
CC
78
ENDCHAR

STARTCHAR ntilde
ENCODING 241
SWIDTH 596 0
DWIDTH 7 0
BBX 6 9 1 0
BITMAP
74
B8
00
D8
EC
CC
CC
CC
CC
ENDCHAR

STARTCHAR ograve
ENCODING 242
SWIDTH 603 0
DWIDTH 7 0
BBX 6 9 1 0
BITMAP
60
30
00
78
CC
CC
CC
CC
78
ENDCHAR

STARTCHAR oacute
ENCODING 243
SWIDTH 603 0
DWIDTH 7 0
BBX 6 9 1 0
BITMAP
18
30
00
78
CC
CC
CC
CC
78
ENDCHAR

STARTCHAR ocircumflex
ENCODING 244
SWIDTH 603 0
DWIDTH 7 0
BBX 6 9 1 0
BITMAP
30
48
00
78
CC
CC
CC
CC
78
ENDCHAR

STARTCHAR otilde
ENCODING 245
SWIDTH 603 0
DWIDTH 7 0
BBX 6 9 1 0
BITMAP
74
B8
00
78
CC
CC
CC
CC
78
ENDCHAR

STARTCHAR odiaeresis
ENCODING 246
SWIDTH 603 0
DWIDTH 7 0
BBX 6 9 1 0
BITMAP
48
48
00
78
CC
CC
CC
CC
78
ENDCHAR

STARTCHAR DivideSign
ENCODING 247
SWIDTH 348 0
DWIDTH 9 0
BBX 8 16 1 -4
BITMAP
00
00
00
00
18
18
00
FF
FF
00
18
18
00
00
00
00
ENDCHAR

STARTCHAR ooblique
ENCODING 248
SWIDTH 603 0
DWIDTH 7 0
BBX 6 8 1 -1
BITMAP
04
78
CC
DC
EC
CC
78
80
ENDCHAR

STARTCHAR ugrave
ENCODING 249
SWIDTH 596 0
DWIDTH 7 0
BBX 6 9 1 0
BITMAP
30
18
00
CC
CC
CC
CC
DC
6C
ENDCHAR

STARTCHAR uacute
ENCODING 250
SWIDTH 596 0
DWIDTH 7 0
BBX 6 9 1 0
BITMAP
18
30
00
CC
CC
CC
CC
DC
6C
ENDCHAR

STARTCHAR ucircumflex
ENCODING 251
SWIDTH 596 0
DWIDTH 7 0
BBX 6 9 1 0
BITMAP
30
48
00
CC
CC
CC
CC
DC
6C
ENDCHAR

STARTCHAR udiaeresis
ENCODING 252
SWIDTH 596 0
DWIDTH 7 0
BBX 6 9 1 0
BITMAP
48
48
00
CC
CC
CC
CC
DC
6C
ENDCHAR

STARTCHAR yacute
ENCODING 253
SWIDTH 550 0
DWIDTH 7 0
BBX 6 12 1 -3
BITMAP
18
30
00
CC
CC
48
78
30
30
30
60
60
ENDCHAR

STARTCHAR thorn
ENCODING 254
SWIDTH 608 0
DWIDTH 7 0
BBX 6 12 1 -3
BITMAP
C0
C0
C0
F8
CC
CC
CC
CC
F8
C0
C0
C0
ENDCHAR

STARTCHAR ydiaeresis
ENCODING 255
SWIDTH 550 0
DWIDTH 7 0
BBX 6 12 1 -3
BITMAP
48
48
00
CC
CC
48
78
30
30
30
60
60
ENDCHAR

ENDFONT
