STARTFONT 2.1
FONT -Bitstream-Prestige-Medium-R-Normal--16-100-72-72-M-60-ISO8859-1
SIZE 10 72 72
FONTBOUNDINGBOX 6 16 0 -4

STARTPROPERTIES 27
FONTNAME_REGISTRY ""
FAMILY_NAME "Prestige"
FOUNDRY "Bitstream"
WEIGHT_NAME "Medium"
SETWIDTH_NAME "Normal"
SLANT "R"
ADD_STYLE_NAME "Serif"
PIXEL_SIZE 16
POINT_SIZE 100
RESOLUTION_X 72
RESOLUTION_Y 72
SPACING "M"
AVERAGE_WIDTH 60
CHARSET_REGISTRY "ISO8859"
CHARSET_ENCODING "1"
CAP_HEIGHT 9
X_HEIGHT 6
CHARSET_COLLECTIONS "ISO8859-1"
FULL_NAME "Prestige-12Pitch"
COPYRIGHT "Copyright 1989 by Bitstream, Inc. All rights reserved."
NOTICE "Prestige is a registered trademark of Bitstream, Inc."
NOTICE "This Font is licensed for use on Hewlett-Packard Equipment only."
WEIGHT 10
QUAD_WIDTH 6
DEFAULT_CHAR 0
FONT_DESCENT 4
FONT_ASCENT 12
ENDPROPERTIES

CHARS 223

STARTCHAR Null
ENCODING 0
SWIDTH 602 0
DWIDTH 6 0
BBX 6 16 0 -4
BITMAP
00
00
00
48
68
58
58
48
00
24
24
24
24
18
00
00
ENDCHAR

STARTCHAR StartOfHeading
ENCODING 1
SWIDTH 602 0
DWIDTH 6 0
BBX 6 16 0 -4
BITMAP
00
00
00
38
40
30
08
70
00
24
24
3C
24
24
00
00
ENDCHAR

STARTCHAR StartOfText
ENCODING 2
SWIDTH 602 0
DWIDTH 6 0
BBX 6 16 0 -4
BITMAP
00
00
00
38
40
30
08
70
00
24
24
18
24
24
00
00
ENDCHAR

STARTCHAR EndOfText
ENCODING 3
SWIDTH 602 0
DWIDTH 6 0
BBX 6 16 0 -4
BITMAP
00
00
00
78
40
70
40
78
00
24
24
18
24
24
00
00
ENDCHAR

STARTCHAR EndOfTransmit
ENCODING 4
SWIDTH 602 0
DWIDTH 6 0
BBX 6 16 0 -4
BITMAP
00
00
00
78
40
70
40
78
00
7C
10
10
10
10
00
00
ENDCHAR

STARTCHAR Enquiry
ENCODING 5
SWIDTH 602 0
DWIDTH 6 0
BBX 6 16 0 -4
BITMAP
00
00
00
78
40
70
40
78
00
18
24
24
24
18
08
00
ENDCHAR

STARTCHAR Acknowledge
ENCODING 6
SWIDTH 602 0
DWIDTH 6 0
BBX 6 16 0 -4
BITMAP
00
00
00
30
48
78
48
48
00
24
28
30
28
24
00
00
ENDCHAR

STARTCHAR Bell
ENCODING 7
SWIDTH 602 0
DWIDTH 6 0
BBX 6 16 0 -4
BITMAP
00
00
00
30
48
48
48
48
48
84
FC
08
0C
00
00
00
ENDCHAR

STARTCHAR BackSpace
ENCODING 8
SWIDTH 602 0
DWIDTH 6 0
BBX 6 16 0 -4
BITMAP
00
00
00
70
48
70
48
70
00
1C
20
18
04
38
00
00
ENDCHAR

STARTCHAR HorizontalTab
ENCODING 9
SWIDTH 602 0
DWIDTH 6 0
BBX 6 16 0 -4
BITMAP
00
00
00
48
48
78
48
48
00
7C
10
10
10
10
00
00
ENDCHAR

STARTCHAR LineFeed
ENCODING 10
SWIDTH 602 0
DWIDTH 6 0
BBX 6 16 0 -4
BITMAP
00
00
00
40
40
40
40
78
00
3C
20
38
20
20
00
00
ENDCHAR

STARTCHAR VerticalTab
ENCODING 11
SWIDTH 602 0
DWIDTH 6 0
BBX 6 16 0 -4
BITMAP
00
00
00
48
48
48
30
30
00
7C
10
10
10
10
00
00
ENDCHAR

STARTCHAR FormFeed
ENCODING 12
SWIDTH 602 0
DWIDTH 6 0
BBX 6 16 0 -4
BITMAP
00
00
00
78
40
70
40
40
00
3C
20
38
20
20
00
00
ENDCHAR

STARTCHAR CarriageReturn
ENCODING 13
SWIDTH 602 0
DWIDTH 6 0
BBX 6 16 0 -4
BITMAP
00
00
00
30
48
40
48
30
00
38
24
38
28
24
00
00
ENDCHAR

STARTCHAR ShiftOut
ENCODING 14
SWIDTH 602 0
DWIDTH 6 0
BBX 6 16 0 -4
BITMAP
00
00
00
38
40
30
08
70
00
18
24
24
24
18
00
00
ENDCHAR

STARTCHAR ShiftIn
ENCODING 15
SWIDTH 602 0
DWIDTH 6 0
BBX 6 16 0 -4
BITMAP
00
00
00
38
40
30
08
70
00
1C
08
08
08
1C
00
00
ENDCHAR

STARTCHAR DataLinkEscape
ENCODING 16
SWIDTH 602 0
DWIDTH 6 0
BBX 6 16 0 -4
BITMAP
00
00
00
70
48
48
48
70
00
20
20
20
20
3C
00
00
ENDCHAR

STARTCHAR DevCtrl1orXon
ENCODING 17
SWIDTH 602 0
DWIDTH 6 0
BBX 6 16 0 -4
BITMAP
00
00
00
70
48
48
48
70
00
08
18
08
08
1C
00
00
ENDCHAR

STARTCHAR DeviceControl2
ENCODING 18
SWIDTH 602 0
DWIDTH 6 0
BBX 6 16 0 -4
BITMAP
00
00
00
70
48
48
48
70
00
18
24
08
10
3C
00
00
ENDCHAR

STARTCHAR DevCtrl3orXoff
ENCODING 19
SWIDTH 602 0
DWIDTH 6 0
BBX 6 16 0 -4
BITMAP
00
00
00
70
48
48
48
70
00
38
04
18
04
38
00
00
ENDCHAR

STARTCHAR DeviceControl4
ENCODING 20
SWIDTH 602 0
DWIDTH 6 0
BBX 6 16 0 -4
BITMAP
00
00
00
70
48
48
48
70
00
08
18
28
3C
08
00
00
ENDCHAR

STARTCHAR NegAcknowledge
ENCODING 21
SWIDTH 602 0
DWIDTH 6 0
BBX 6 16 0 -4
BITMAP
00
00
00
48
68
58
58
48
00
24
28
30
28
24
00
00
ENDCHAR

STARTCHAR SynchronusIdle
ENCODING 22
SWIDTH 602 0
DWIDTH 6 0
BBX 6 16 0 -4
BITMAP
00
00
00
38
40
30
08
70
00
44
28
10
10
10
00
00
ENDCHAR

STARTCHAR EndTransmit
ENCODING 23
SWIDTH 602 0
DWIDTH 6 0
BBX 6 16 0 -4
BITMAP
00
00
00
78
40
70
40
78
00
38
24
38
24
38
00
00
ENDCHAR

STARTCHAR Cancel
ENCODING 24
SWIDTH 602 0
DWIDTH 6 0
BBX 6 16 0 -4
BITMAP
00
00
00
30
48
40
48
30
00
24
34
2C
24
24
00
00
ENDCHAR

STARTCHAR EndOfMedium
ENCODING 25
SWIDTH 602 0
DWIDTH 6 0
BBX 6 16 0 -4
BITMAP
00
00
00
78
40
70
40
78
00
44
6C
54
44
44
00
00
ENDCHAR

STARTCHAR Substitute
ENCODING 26
SWIDTH 602 0
DWIDTH 6 0
BBX 6 16 0 -4
BITMAP
00
00
00
38
40
30
08
70
00
38
24
38
24
38
00
00
ENDCHAR

STARTCHAR Escape
ENCODING 27
SWIDTH 602 0
DWIDTH 6 0
BBX 6 16 0 -4
BITMAP
00
00
00
78
40
70
40
78
00
18
24
20
24
18
00
00
ENDCHAR

STARTCHAR FileSeparator
ENCODING 28
SWIDTH 602 0
DWIDTH 6 0
BBX 6 16 0 -4
BITMAP
00
00
00
78
40
70
40
40
00
1C
20
18
04
38
00
00
ENDCHAR

STARTCHAR GroupSeparator
ENCODING 29
SWIDTH 602 0
DWIDTH 6 0
BBX 6 16 0 -4
BITMAP
00
00
00
30
40
58
48
30
00
1C
20
18
04
38
00
00
ENDCHAR

STARTCHAR RecordSeparatr
ENCODING 30
SWIDTH 602 0
DWIDTH 6 0
BBX 6 16 0 -4
BITMAP
00
00
00
70
48
70
50
48
00
1C
20
18
04
38
00
00
ENDCHAR

STARTCHAR UnitSeparator
ENCODING 31
SWIDTH 602 0
DWIDTH 6 0
BBX 6 16 0 -4
BITMAP
00
00
00
48
48
48
48
30
00
1C
20
18
04
38
00
00
ENDCHAR

STARTCHAR PrintableSpace
ENCODING 32
SWIDTH 602 0
DWIDTH 6 0
BBX 6 16 0 -4
BITMAP
00
00
00
00
00
00
00
00
00
00
00
00
00
00
00
00
ENDCHAR

STARTCHAR Exclamation
ENCODING 33
SWIDTH 602 0
DWIDTH 6 0
BBX 6 16 0 -4
BITMAP
00
00
30
30
30
30
30
30
30
00
00
30
30
00
00
00
ENDCHAR

STARTCHAR NeutrlDblQuote
ENCODING 34
SWIDTH 602 0
DWIDTH 6 0
BBX 6 16 0 -4
BITMAP
00
00
28
28
28
28
00
00
00
00
00
00
00
00
00
00
ENDCHAR

STARTCHAR NumberSign
ENCODING 35
SWIDTH 602 0
DWIDTH 6 0
BBX 6 16 0 -4
BITMAP
00
00
28
28
28
7C
28
28
28
7C
28
28
28
00
00
00
ENDCHAR

STARTCHAR DollarSign
ENCODING 36
SWIDTH 602 0
DWIDTH 6 0
BBX 6 16 0 -4
BITMAP
00
10
10
3C
44
40
40
38
04
04
44
78
10
10
00
00
ENDCHAR

STARTCHAR PerCentSign
ENCODING 37
SWIDTH 602 0
DWIDTH 6 0
BBX 6 16 0 -4
BITMAP
00
00
44
A4
A8
48
10
10
20
48
54
94
88
00
00
00
ENDCHAR

STARTCHAR Ampersand
ENCODING 38
SWIDTH 602 0
DWIDTH 6 0
BBX 6 16 0 -4
BITMAP
00
00
30
48
48
48
48
30
54
48
48
48
34
00
00
00
ENDCHAR

STARTCHAR SingleCloseQut
ENCODING 39
SWIDTH 602 0
DWIDTH 6 0
BBX 6 16 0 -4
BITMAP
00
00
30
30
10
20
40
00
00
00
00
00
00
00
00
00
ENDCHAR

STARTCHAR OpenParen
ENCODING 40
SWIDTH 602 0
DWIDTH 6 0
BBX 6 16 0 -4
BITMAP
00
08
10
30
20
60
60
60
60
60
20
30
10
08
00
00
ENDCHAR

STARTCHAR CloseParen
ENCODING 41
SWIDTH 602 0
DWIDTH 6 0
BBX 6 16 0 -4
BITMAP
00
40
20
30
10
18
18
18
18
18
10
30
20
40
00
00
ENDCHAR

STARTCHAR Asterisk
ENCODING 42
SWIDTH 602 0
DWIDTH 6 0
BBX 6 16 0 -4
BITMAP
00
00
00
00
00
10
54
38
54
10
00
00
00
00
00
00
ENDCHAR

STARTCHAR PlusSign
ENCODING 43
SWIDTH 602 0
DWIDTH 6 0
BBX 6 16 0 -4
BITMAP
00
00
00
00
00
10
10
7C
10
10
00
00
00
00
00
00
ENDCHAR

STARTCHAR Comma
ENCODING 44
SWIDTH 602 0
DWIDTH 6 0
BBX 6 16 0 -4
BITMAP
00
00
00
00
00
00
00
00
00
00
30
30
10
20
40
00
ENDCHAR

STARTCHAR Hyphen
ENCODING 45
SWIDTH 602 0
DWIDTH 6 0
BBX 6 16 0 -4
BITMAP
00
00
00
00
00
00
00
7C
00
00
00
00
00
00
00
00
ENDCHAR

STARTCHAR Period
ENCODING 46
SWIDTH 602 0
DWIDTH 6 0
BBX 6 16 0 -4
BITMAP
00
00
00
00
00
00
00
00
00
00
30
30
00
00
00
00
ENDCHAR

STARTCHAR Slash
ENCODING 47
SWIDTH 602 0
DWIDTH 6 0
BBX 6 16 0 -4
BITMAP
00
04
04
08
08
08
10
10
10
20
20
20
40
40
00
00
ENDCHAR

STARTCHAR Zero
ENCODING 48
SWIDTH 602 0
DWIDTH 6 0
BBX 6 16 0 -4
BITMAP
00
00
00
38
44
44
44
54
44
44
44
38
00
00
00
00
ENDCHAR

STARTCHAR One
ENCODING 49
SWIDTH 602 0
DWIDTH 6 0
BBX 6 16 0 -4
BITMAP
00
00
00
10
70
10
10
10
10
10
10
10
00
00
00
00
ENDCHAR

STARTCHAR Two
ENCODING 50
SWIDTH 602 0
DWIDTH 6 0
BBX 6 16 0 -4
BITMAP
00
00
00
38
44
04
04
08
10
20
40
7C
00
00
00
00
ENDCHAR

STARTCHAR Three
ENCODING 51
SWIDTH 602 0
DWIDTH 6 0
BBX 6 16 0 -4
BITMAP
00
00
00
38
44
04
04
18
04
04
44
38
00
00
00
00
ENDCHAR

STARTCHAR Four
ENCODING 52
SWIDTH 602 0
DWIDTH 6 0
BBX 6 16 0 -4
BITMAP
00
00
00
10
10
20
28
48
48
7C
08
08
00
00
00
00
ENDCHAR

STARTCHAR Five
ENCODING 53
SWIDTH 602 0
DWIDTH 6 0
BBX 6 16 0 -4
BITMAP
00
00
00
3C
20
20
38
04
04
04
44
38
00
00
00
00
ENDCHAR

STARTCHAR Six
ENCODING 54
SWIDTH 602 0
DWIDTH 6 0
BBX 6 16 0 -4
BITMAP
00
00
00
18
20
40
40
78
44
44
44
38
00
00
00
00
ENDCHAR

STARTCHAR Seven
ENCODING 55
SWIDTH 602 0
DWIDTH 6 0
BBX 6 16 0 -4
BITMAP
00
00
00
7C
04
08
08
10
10
20
20
20
00
00
00
00
ENDCHAR

STARTCHAR Eight
ENCODING 56
SWIDTH 602 0
DWIDTH 6 0
BBX 6 16 0 -4
BITMAP
00
00
00
38
44
44
44
38
44
44
44
38
00
00
00
00
ENDCHAR

STARTCHAR Nine
ENCODING 57
SWIDTH 602 0
DWIDTH 6 0
BBX 6 16 0 -4
BITMAP
00
00
00
38
44
44
44
3C
04
04
08
30
00
00
00
00
ENDCHAR

STARTCHAR Colon
ENCODING 58
SWIDTH 602 0
DWIDTH 6 0
BBX 6 16 0 -4
BITMAP
00
00
00
00
00
00
30
30
00
00
30
30
00
00
00
00
ENDCHAR

STARTCHAR Simicolon
ENCODING 59
SWIDTH 602 0
DWIDTH 6 0
BBX 6 16 0 -4
BITMAP
00
00
00
00
00
00
30
30
00
00
30
30
10
20
40
00
ENDCHAR

STARTCHAR LessThanSign
ENCODING 60
SWIDTH 602 0
DWIDTH 6 0
BBX 6 16 0 -4
BITMAP
00
00
00
04
08
10
20
40
20
10
08
04
00
00
00
00
ENDCHAR

STARTCHAR EqualsSign
ENCODING 61
SWIDTH 602 0
DWIDTH 6 0
BBX 6 16 0 -4
BITMAP
00
00
00
00
00
00
7C
00
7C
00
00
00
00
00
00
00
ENDCHAR

STARTCHAR GreatrThanSign
ENCODING 62
SWIDTH 602 0
DWIDTH 6 0
BBX 6 16 0 -4
BITMAP
00
00
00
40
20
10
08
04
08
10
20
40
00
00
00
00
ENDCHAR

STARTCHAR QuestionMark
ENCODING 63
SWIDTH 602 0
DWIDTH 6 0
BBX 6 16 0 -4
BITMAP
00
00
38
6C
0C
0C
18
30
30
00
00
30
30
00
00
00
ENDCHAR

STARTCHAR CommerclAtSign
ENCODING 64
SWIDTH 602 0
DWIDTH 6 0
BBX 6 16 0 -4
BITMAP
00
00
18
24
44
4C
54
54
54
4C
40
24
18
00
00
00
ENDCHAR

STARTCHAR A
ENCODING 65
SWIDTH 602 0
DWIDTH 6 0
BBX 6 16 0 -4
BITMAP
00
00
00
10
10
28
28
28
7C
44
44
44
00
00
00
00
ENDCHAR

STARTCHAR B
ENCODING 66
SWIDTH 602 0
DWIDTH 6 0
BBX 6 16 0 -4
BITMAP
00
00
00
78
24
24
24
38
24
24
24
78
00
00
00
00
ENDCHAR

STARTCHAR C
ENCODING 67
SWIDTH 602 0
DWIDTH 6 0
BBX 6 16 0 -4
BITMAP
00
00
00
3C
44
40
40
40
40
40
44
38
00
00
00
00
ENDCHAR

STARTCHAR D
ENCODING 68
SWIDTH 602 0
DWIDTH 6 0
BBX 6 16 0 -4
BITMAP
00
00
00
78
24
24
24
24
24
24
24
78
00
00
00
00
ENDCHAR

STARTCHAR E
ENCODING 69
SWIDTH 602 0
DWIDTH 6 0
BBX 6 16 0 -4
BITMAP
00
00
00
7C
40
40
40
78
40
40
40
7C
00
00
00
00
ENDCHAR

STARTCHAR F
ENCODING 70
SWIDTH 602 0
DWIDTH 6 0
BBX 6 16 0 -4
BITMAP
00
00
00
7C
40
40
40
78
40
40
40
40
00
00
00
00
ENDCHAR

STARTCHAR G
ENCODING 71
SWIDTH 602 0
DWIDTH 6 0
BBX 6 16 0 -4
BITMAP
00
00
00
3C
44
40
40
40
4C
44
44
38
00
00
00
00
ENDCHAR

STARTCHAR H
ENCODING 72
SWIDTH 602 0
DWIDTH 6 0
BBX 6 16 0 -4
BITMAP
00
00
00
44
44
44
44
7C
44
44
44
44
00
00
00
00
ENDCHAR

STARTCHAR I
ENCODING 73
SWIDTH 602 0
DWIDTH 6 0
BBX 6 16 0 -4
BITMAP
00
00
00
7C
10
10
10
10
10
10
10
7C
00
00
00
00
ENDCHAR

STARTCHAR J
ENCODING 74
SWIDTH 602 0
DWIDTH 6 0
BBX 6 16 0 -4
BITMAP
00
00
00
3C
08
08
08
08
08
08
48
30
00
00
00
00
ENDCHAR

STARTCHAR K
ENCODING 75
SWIDTH 602 0
DWIDTH 6 0
BBX 6 16 0 -4
BITMAP
00
00
00
44
48
48
50
60
50
48
48
44
00
00
00
00
ENDCHAR

STARTCHAR L
ENCODING 76
SWIDTH 602 0
DWIDTH 6 0
BBX 6 16 0 -4
BITMAP
00
00
00
40
40
40
40
40
40
40
40
7C
00
00
00
00
ENDCHAR

STARTCHAR M
ENCODING 77
SWIDTH 602 0
DWIDTH 6 0
BBX 6 16 0 -4
BITMAP
00
00
00
44
6C
6C
54
54
44
44
44
44
00
00
00
00
ENDCHAR

STARTCHAR N
ENCODING 78
SWIDTH 602 0
DWIDTH 6 0
BBX 6 16 0 -4
BITMAP
00
00
00
44
64
64
54
54
54
4C
4C
44
00
00
00
00
ENDCHAR

STARTCHAR O
ENCODING 79
SWIDTH 602 0
DWIDTH 6 0
BBX 6 16 0 -4
BITMAP
00
00
00
38
44
44
44
44
44
44
44
38
00
00
00
00
ENDCHAR

STARTCHAR P
ENCODING 80
SWIDTH 602 0
DWIDTH 6 0
BBX 6 16 0 -4
BITMAP
00
00
00
78
44
44
44
78
40
40
40
40
00
00
00
00
ENDCHAR

STARTCHAR Q
ENCODING 81
SWIDTH 602 0
DWIDTH 6 0
BBX 6 16 0 -4
BITMAP
00
00
00
38
44
44
44
44
44
44
44
38
08
04
04
00
ENDCHAR

STARTCHAR R
ENCODING 82
SWIDTH 602 0
DWIDTH 6 0
BBX 6 16 0 -4
BITMAP
00
00
00
78
44
44
44
78
48
44
44
44
00
00
00
00
ENDCHAR

STARTCHAR S
ENCODING 83
SWIDTH 602 0
DWIDTH 6 0
BBX 6 16 0 -4
BITMAP
00
00
00
3C
44
40
40
38
04
04
44
38
00
00
00
00
ENDCHAR

STARTCHAR T
ENCODING 84
SWIDTH 602 0
DWIDTH 6 0
BBX 6 16 0 -4
BITMAP
00
00
00
7C
10
10
10
10
10
10
10
10
00
00
00
00
ENDCHAR

STARTCHAR U
ENCODING 85
SWIDTH 602 0
DWIDTH 6 0
BBX 6 16 0 -4
BITMAP
00
00
00
44
44
44
44
44
44
44
44
38
00
00
00
00
ENDCHAR

STARTCHAR V
ENCODING 86
SWIDTH 602 0
DWIDTH 6 0
BBX 6 16 0 -4
BITMAP
00
00
00
44
44
44
28
28
28
10
10
10
00
00
00
00
ENDCHAR

STARTCHAR W
ENCODING 87
SWIDTH 602 0
DWIDTH 6 0
BBX 6 16 0 -4
BITMAP
00
00
00
44
44
44
44
54
54
28
28
28
00
00
00
00
ENDCHAR

STARTCHAR X
ENCODING 88
SWIDTH 602 0
DWIDTH 6 0
BBX 6 16 0 -4
BITMAP
00
00
00
44
44
28
28
10
28
28
44
44
00
00
00
00
ENDCHAR

STARTCHAR Y
ENCODING 89
SWIDTH 602 0
DWIDTH 6 0
BBX 6 16 0 -4
BITMAP
00
00
00
44
44
44
28
28
10
10
10
10
00
00
00
00
ENDCHAR

STARTCHAR Z
ENCODING 90
SWIDTH 602 0
DWIDTH 6 0
BBX 6 16 0 -4
BITMAP
00
00
00
7C
04
08
08
10
20
20
40
7C
00
00
00
00
ENDCHAR

STARTCHAR OpenBracket
ENCODING 91
SWIDTH 602 0
DWIDTH 6 0
BBX 6 16 0 -4
BITMAP
00
3C
30
30
30
30
30
30
30
30
30
30
30
3C
00
00
ENDCHAR

STARTCHAR BackSlash
ENCODING 92
SWIDTH 602 0
DWIDTH 6 0
BBX 6 16 0 -4
BITMAP
00
40
40
20
20
20
10
10
10
08
08
08
04
04
00
00
ENDCHAR

STARTCHAR CloseBracket
ENCODING 93
SWIDTH 602 0
DWIDTH 6 0
BBX 6 16 0 -4
BITMAP
00
78
18
18
18
18
18
18
18
18
18
18
18
78
00
00
ENDCHAR

STARTCHAR Circumflex
ENCODING 94
SWIDTH 602 0
DWIDTH 6 0
BBX 6 16 0 -4
BITMAP
00
00
00
10
28
44
00
00
00
00
00
00
00
00
00
00
ENDCHAR

STARTCHAR Underscore
ENCODING 95
SWIDTH 602 0
DWIDTH 6 0
BBX 6 16 0 -4
BITMAP
00
00
00
00
00
00
00
00
00
00
00
00
FC
00
00
00
ENDCHAR

STARTCHAR SingleOpenQuot
ENCODING 96
SWIDTH 602 0
DWIDTH 6 0
BBX 6 16 0 -4
BITMAP
00
00
08
10
20
30
30
00
00
00
00
00
00
00
00
00
ENDCHAR

STARTCHAR a
ENCODING 97
SWIDTH 602 0
DWIDTH 6 0
BBX 6 16 0 -4
BITMAP
00
00
00
00
00
00
38
04
3C
44
4C
34
00
00
00
00
ENDCHAR

STARTCHAR b
ENCODING 98
SWIDTH 602 0
DWIDTH 6 0
BBX 6 16 0 -4
BITMAP
00
00
00
40
40
40
58
64
44
44
64
58
00
00
00
00
ENDCHAR

STARTCHAR c
ENCODING 99
SWIDTH 602 0
DWIDTH 6 0
BBX 6 16 0 -4
BITMAP
00
00
00
00
00
00
3C
44
40
40
44
38
00
00
00
00
ENDCHAR

STARTCHAR d
ENCODING 100
SWIDTH 602 0
DWIDTH 6 0
BBX 6 16 0 -4
BITMAP
00
00
00
04
04
04
34
4C
44
44
4C
34
00
00
00
00
ENDCHAR

STARTCHAR e
ENCODING 101
SWIDTH 602 0
DWIDTH 6 0
BBX 6 16 0 -4
BITMAP
00
00
00
00
00
00
38
44
7C
40
44
38
00
00
00
00
ENDCHAR

STARTCHAR f
ENCODING 102
SWIDTH 602 0
DWIDTH 6 0
BBX 6 16 0 -4
BITMAP
00
00
00
0C
10
10
7C
10
10
10
10
7C
00
00
00
00
ENDCHAR

STARTCHAR g
ENCODING 103
SWIDTH 602 0
DWIDTH 6 0
BBX 6 16 0 -4
BITMAP
00
00
00
00
00
00
30
4C
48
30
40
38
44
44
38
00
ENDCHAR

STARTCHAR h
ENCODING 104
SWIDTH 602 0
DWIDTH 6 0
BBX 6 16 0 -4
BITMAP
00
00
00
40
40
40
58
64
44
44
44
44
00
00
00
00
ENDCHAR

STARTCHAR i
ENCODING 105
SWIDTH 602 0
DWIDTH 6 0
BBX 6 16 0 -4
BITMAP
00
00
00
10
10
00
70
10
10
10
10
7C
00
00
00
00
ENDCHAR

STARTCHAR j
ENCODING 106
SWIDTH 602 0
DWIDTH 6 0
BBX 6 16 0 -4
BITMAP
00
00
00
08
08
00
38
08
08
08
08
08
08
48
30
00
ENDCHAR

STARTCHAR k
ENCODING 107
SWIDTH 602 0
DWIDTH 6 0
BBX 6 16 0 -4
BITMAP
00
00
00
40
40
40
44
48
50
70
48
44
00
00
00
00
ENDCHAR

STARTCHAR l
ENCODING 108
SWIDTH 602 0
DWIDTH 6 0
BBX 6 16 0 -4
BITMAP
00
00
00
70
10
10
10
10
10
10
10
7C
00
00
00
00
ENDCHAR

STARTCHAR m
ENCODING 109
SWIDTH 602 0
DWIDTH 6 0
BBX 6 16 0 -4
BITMAP
00
00
00
00
00
00
68
54
54
54
54
54
00
00
00
00
ENDCHAR

STARTCHAR n
ENCODING 110
SWIDTH 602 0
DWIDTH 6 0
BBX 6 16 0 -4
BITMAP
00
00
00
00
00
00
58
64
44
44
44
44
00
00
00
00
ENDCHAR

STARTCHAR o
ENCODING 111
SWIDTH 602 0
DWIDTH 6 0
BBX 6 16 0 -4
BITMAP
00
00
00
00
00
00
38
44
44
44
44
38
00
00
00
00
ENDCHAR

STARTCHAR p
ENCODING 112
SWIDTH 602 0
DWIDTH 6 0
BBX 6 16 0 -4
BITMAP
00
00
00
00
00
00
58
64
44
44
64
58
40
40
40
00
ENDCHAR

STARTCHAR q
ENCODING 113
SWIDTH 602 0
DWIDTH 6 0
BBX 6 16 0 -4
BITMAP
00
00
00
00
00
00
34
4C
44
44
4C
34
04
04
04
00
ENDCHAR

STARTCHAR r
ENCODING 114
SWIDTH 602 0
DWIDTH 6 0
BBX 6 16 0 -4
BITMAP
00
00
00
00
00
00
2C
34
20
20
20
20
00
00
00
00
ENDCHAR

STARTCHAR s
ENCODING 115
SWIDTH 602 0
DWIDTH 6 0
BBX 6 16 0 -4
BITMAP
00
00
00
00
00
00
3C
40
38
04
44
78
00
00
00
00
ENDCHAR

STARTCHAR t
ENCODING 116
SWIDTH 602 0
DWIDTH 6 0
BBX 6 16 0 -4
BITMAP
00
00
00
00
20
20
78
20
20
20
20
18
00
00
00
00
ENDCHAR

STARTCHAR u
ENCODING 117
SWIDTH 602 0
DWIDTH 6 0
BBX 6 16 0 -4
BITMAP
00
00
00
00
00
00
44
44
44
44
4C
34
00
00
00
00
ENDCHAR

STARTCHAR v
ENCODING 118
SWIDTH 602 0
DWIDTH 6 0
BBX 6 16 0 -4
BITMAP
00
00
00
00
00
00
44
44
28
28
10
10
00
00
00
00
ENDCHAR

STARTCHAR w
ENCODING 119
SWIDTH 602 0
DWIDTH 6 0
BBX 6 16 0 -4
BITMAP
00
00
00
00
00
00
44
54
54
54
28
28
00
00
00
00
ENDCHAR

STARTCHAR x
ENCODING 120
SWIDTH 602 0
DWIDTH 6 0
BBX 6 16 0 -4
BITMAP
00
00
00
00
00
00
44
28
10
10
28
44
00
00
00
00
ENDCHAR

STARTCHAR y
ENCODING 121
SWIDTH 602 0
DWIDTH 6 0
BBX 6 16 0 -4
BITMAP
00
00
00
00
00
00
44
44
28
28
28
10
10
10
60
00
ENDCHAR

STARTCHAR z
ENCODING 122
SWIDTH 602 0
DWIDTH 6 0
BBX 6 16 0 -4
BITMAP
00
00
00
00
00
00
7C
04
08
10
20
7C
00
00
00
00
ENDCHAR

STARTCHAR OpenBrace
ENCODING 123
SWIDTH 602 0
DWIDTH 6 0
BBX 6 16 0 -4
BITMAP
00
0C
18
18
18
18
10
60
10
18
18
18
18
0C
00
00
ENDCHAR

STARTCHAR LongVertMark
ENCODING 124
SWIDTH 602 0
DWIDTH 6 0
BBX 6 16 0 -4
BITMAP
00
00
10
10
10
10
10
10
10
10
10
10
10
00
00
00
ENDCHAR

STARTCHAR CloseBrace
ENCODING 125
SWIDTH 602 0
DWIDTH 6 0
BBX 6 16 0 -4
BITMAP
00
60
30
30
30
30
10
0C
10
30
30
30
30
60
00
00
ENDCHAR

STARTCHAR OneWavyLine
ENCODING 126
SWIDTH 602 0
DWIDTH 6 0
BBX 6 16 0 -4
BITMAP
00
00
00
00
00
00
24
78
90
00
00
00
00
00
00
00
ENDCHAR

STARTCHAR MediumShading
ENCODING 127
SWIDTH 602 0
DWIDTH 6 0
BBX 6 16 0 -4
BITMAP
D8
D8
24
24
D8
D8
24
24
D8
D8
24
24
D8
D8
24
24
ENDCHAR

STARTCHAR InvExclamation
ENCODING 161
SWIDTH 602 0
DWIDTH 6 0
BBX 6 16 0 -4
BITMAP
00
00
30
30
00
00
30
30
30
30
30
30
30
00
00
00
ENDCHAR

STARTCHAR CentSign
ENCODING 162
SWIDTH 602 0
DWIDTH 6 0
BBX 6 16 0 -4
BITMAP
00
00
00
10
10
3C
44
40
40
44
38
10
10
00
00
00
ENDCHAR

STARTCHAR SterlingSign
ENCODING 163
SWIDTH 602 0
DWIDTH 6 0
BBX 6 16 0 -4
BITMAP
00
00
00
18
24
20
78
20
78
20
20
5C
00
00
00
00
ENDCHAR

STARTCHAR CurrencySymbol
ENCODING 164
SWIDTH 602 0
DWIDTH 6 0
BBX 6 16 0 -4
BITMAP
00
00
00
84
78
48
48
78
84
00
00
00
00
00
00
00
ENDCHAR

STARTCHAR Yensign
ENCODING 165
SWIDTH 602 0
DWIDTH 6 0
BBX 6 16 0 -4
BITMAP
00
00
00
44
44
44
28
7C
10
7C
10
10
00
00
00
00
ENDCHAR

STARTCHAR BrokenBar
ENCODING 166
SWIDTH 667 0
DWIDTH 6 0
BBX 6 16 0 -4
BITMAP
00
00
10
10
10
10
10
00
10
10
10
10
10
00
00
00
ENDCHAR

STARTCHAR SectionMark
ENCODING 167
SWIDTH 602 0
DWIDTH 6 0
BBX 6 16 0 -4
BITMAP
00
00
00
30
48
40
30
48
48
30
08
48
30
00
00
00
ENDCHAR

STARTCHAR diaeresisAccnt
ENCODING 168
SWIDTH 602 0
DWIDTH 6 0
BBX 6 16 0 -4
BITMAP
00
00
00
48
48
00
00
00
00
00
00
00
00
00
00
00
ENDCHAR

STARTCHAR CopyrightSign
ENCODING 169
SWIDTH 667 0
DWIDTH 6 0
BBX 6 16 0 -4
BITMAP
00
00
00
30
48
B4
A4
A4
B4
48
30
00
00
00
00
00
ENDCHAR

STARTCHAR FemaleOrdinal
ENCODING 170
SWIDTH 602 0
DWIDTH 6 0
BBX 6 16 0 -4
BITMAP
00
00
00
38
48
48
38
00
78
00
00
00
00
00
00
00
ENDCHAR

STARTCHAR DblOpenAnglQut
ENCODING 171
SWIDTH 602 0
DWIDTH 6 0
BBX 6 16 0 -4
BITMAP
00
00
00
00
00
00
00
24
48
90
48
24
00
00
00
00
ENDCHAR

STARTCHAR NotSign
ENCODING 172
SWIDTH 667 0
DWIDTH 6 0
BBX 6 16 0 -4
BITMAP
00
00
00
00
00
00
00
7C
04
04
00
00
00
00
00
00
ENDCHAR

STARTCHAR SoftHyphen
ENCODING 173
SWIDTH 667 0
DWIDTH 6 0
BBX 6 16 0 -4
BITMAP
00
00
00
00
00
00
00
38
00
00
00
00
00
00
00
00
ENDCHAR

STARTCHAR RegTradeMark
ENCODING 174
SWIDTH 667 0
DWIDTH 6 0
BBX 6 16 0 -4
BITMAP
00
00
00
78
24
24
38
24
74
00
00
00
00
00
00
00
ENDCHAR

STARTCHAR Macron
ENCODING 175
SWIDTH 667 0
DWIDTH 6 0
BBX 6 16 0 -4
BITMAP
00
00
00
F8
00
00
00
00
00
00
00
00
00
00
00
00
ENDCHAR

STARTCHAR DegreeSign
ENCODING 176
SWIDTH 602 0
DWIDTH 6 0
BBX 6 16 0 -4
BITMAP
00
00
00
30
48
48
30
00
00
00
00
00
00
00
00
00
ENDCHAR

STARTCHAR PlusOverMinus
ENCODING 177
SWIDTH 602 0
DWIDTH 6 0
BBX 6 16 0 -4
BITMAP
00
00
00
00
10
10
7C
10
10
00
7C
00
00
00
00
00
ENDCHAR

STARTCHAR SuperscriptTwo
ENCODING 178
SWIDTH 667 0
DWIDTH 6 0
BBX 6 16 0 -4
BITMAP
00
00
00
30
48
10
20
40
78
00
00
00
00
00
00
00
ENDCHAR

STARTCHAR Superscript3
ENCODING 179
SWIDTH 667 0
DWIDTH 6 0
BBX 6 16 0 -4
BITMAP
00
00
00
30
48
10
08
48
30
00
00
00
00
00
00
00
ENDCHAR

STARTCHAR acuteAccent
ENCODING 180
SWIDTH 602 0
DWIDTH 6 0
BBX 6 16 0 -4
BITMAP
00
00
00
18
20
00
00
00
00
00
00
00
00
00
00
00
ENDCHAR

STARTCHAR muGreek
ENCODING 181
SWIDTH 602 0
DWIDTH 6 0
BBX 6 16 0 -4
BITMAP
00
00
00
00
00
00
00
24
24
48
48
7C
80
80
00
00
ENDCHAR

STARTCHAR ParagraphSign
ENCODING 182
SWIDTH 602 0
DWIDTH 6 0
BBX 6 16 0 -4
BITMAP
00
00
00
6C
E8
E8
68
28
28
28
28
28
28
00
00
00
ENDCHAR

STARTCHAR middleDot
ENCODING 183
SWIDTH 602 0
DWIDTH 6 0
BBX 6 16 0 -4
BITMAP
00
00
00
10
10
00
00
00
00
00
00
00
00
00
00
00
ENDCHAR

STARTCHAR Cedilla
ENCODING 184
SWIDTH 667 0
DWIDTH 6 0
BBX 6 16 0 -4
BITMAP
00
00
00
00
00
00
00
00
00
00
00
00
10
08
70
00
ENDCHAR

STARTCHAR SuperscriptOne
ENCODING 185
SWIDTH 667 0
DWIDTH 6 0
BBX 6 16 0 -4
BITMAP
00
00
00
10
30
10
10
10
10
00
00
00
00
00
00
00
ENDCHAR

STARTCHAR MaleOrdinal
ENCODING 186
SWIDTH 602 0
DWIDTH 6 0
BBX 6 16 0 -4
BITMAP
00
00
00
30
48
48
30
00
78
00
00
00
00
00
00
00
ENDCHAR

STARTCHAR DblClosAnglQut
ENCODING 187
SWIDTH 602 0
DWIDTH 6 0
BBX 6 16 0 -4
BITMAP
00
00
00
00
00
00
00
90
48
24
48
90
00
00
00
00
ENDCHAR

STARTCHAR FracOneFourth
ENCODING 188
SWIDTH 602 0
DWIDTH 6 0
BBX 6 16 0 -4
BITMAP
00
00
40
C0
40
40
44
18
60
88
18
28
3C
08
00
00
ENDCHAR

STARTCHAR FracOneHalf
ENCODING 189
SWIDTH 602 0
DWIDTH 6 0
BBX 6 16 0 -4
BITMAP
00
00
40
C0
40
40
44
18
60
98
24
08
10
3C
00
00
ENDCHAR

STARTCHAR FracThreeFour
ENCODING 190
SWIDTH 602 0
DWIDTH 6 0
BBX 6 16 0 -4
BITMAP
00
00
60
10
60
10
64
18
60
88
18
28
3C
08
00
00
ENDCHAR

STARTCHAR InvertQuestion
ENCODING 191
SWIDTH 602 0
DWIDTH 6 0
BBX 6 16 0 -4
BITMAP
00
00
18
18
00
00
18
18
30
60
60
6C
38
00
00
00
ENDCHAR

STARTCHAR Agrave
ENCODING 192
SWIDTH 602 0
DWIDTH 6 0
BBX 6 16 0 -4
BITMAP
30
08
00
10
10
28
28
28
7C
44
44
44
00
00
00
00
ENDCHAR

STARTCHAR Aacute
ENCODING 193
SWIDTH 602 0
DWIDTH 6 0
BBX 6 16 0 -4
BITMAP
18
20
00
10
10
28
28
28
7C
44
44
44
00
00
00
00
ENDCHAR

STARTCHAR Acircumflex
ENCODING 194
SWIDTH 602 0
DWIDTH 6 0
BBX 6 16 0 -4
BITMAP
38
44
00
10
10
28
28
28
7C
44
44
44
00
00
00
00
ENDCHAR

STARTCHAR Atilde
ENCODING 195
SWIDTH 602 0
DWIDTH 6 0
BBX 6 16 0 -4
BITMAP
34
48
00
10
10
28
28
28
7C
44
44
44
00
00
00
00
ENDCHAR

STARTCHAR Adiaeresis
ENCODING 196
SWIDTH 602 0
DWIDTH 6 0
BBX 6 16 0 -4
BITMAP
44
44
00
10
10
28
28
28
7C
44
44
44
00
00
00
00
ENDCHAR

STARTCHAR Abolle
ENCODING 197
SWIDTH 602 0
DWIDTH 6 0
BBX 6 16 0 -4
BITMAP
10
28
28
10
10
28
28
28
7C
44
44
44
00
00
00
00
ENDCHAR

STARTCHAR AEdiphthong
ENCODING 198
SWIDTH 602 0
DWIDTH 6 0
BBX 6 16 0 -4
BITMAP
00
00
00
3C
30
50
50
5C
70
90
90
9C
00
00
00
00
ENDCHAR

STARTCHAR Ccedilla
ENCODING 199
SWIDTH 602 0
DWIDTH 6 0
BBX 6 16 0 -4
BITMAP
00
00
00
3C
44
40
40
40
40
40
44
38
10
08
30
00
ENDCHAR

STARTCHAR Egrave
ENCODING 200
SWIDTH 602 0
DWIDTH 6 0
BBX 6 16 0 -4
BITMAP
30
08
00
7C
40
40
40
78
40
40
40
7C
00
00
00
00
ENDCHAR

STARTCHAR Eacute
ENCODING 201
SWIDTH 602 0
DWIDTH 6 0
BBX 6 16 0 -4
BITMAP
18
20
00
7C
40
40
40
78
40
40
40
7C
00
00
00
00
ENDCHAR

STARTCHAR Ecircumflex
ENCODING 202
SWIDTH 602 0
DWIDTH 6 0
BBX 6 16 0 -4
BITMAP
38
44
00
7C
40
40
40
78
40
40
40
7C
00
00
00
00
ENDCHAR

STARTCHAR Ediaeresis
ENCODING 203
SWIDTH 602 0
DWIDTH 6 0
BBX 6 16 0 -4
BITMAP
44
44
00
7C
40
40
40
78
40
40
40
7C
00
00
00
00
ENDCHAR

STARTCHAR Igrave
ENCODING 204
SWIDTH 602 0
DWIDTH 6 0
BBX 6 16 0 -4
BITMAP
30
08
00
7C
10
10
10
10
10
10
10
7C
00
00
00
00
ENDCHAR

STARTCHAR Iacute
ENCODING 205
SWIDTH 602 0
DWIDTH 6 0
BBX 6 16 0 -4
BITMAP
18
20
00
7C
10
10
10
10
10
10
10
7C
00
00
00
00
ENDCHAR

STARTCHAR Icircumflex
ENCODING 206
SWIDTH 602 0
DWIDTH 6 0
BBX 6 16 0 -4
BITMAP
38
44
00
7C
10
10
10
10
10
10
10
7C
00
00
00
00
ENDCHAR

STARTCHAR Idiaeresis
ENCODING 207
SWIDTH 602 0
DWIDTH 6 0
BBX 6 16 0 -4
BITMAP
44
44
00
7C
10
10
10
10
10
10
10
7C
00
00
00
00
ENDCHAR

STARTCHAR Eth
ENCODING 208
SWIDTH 602 0
DWIDTH 6 0
BBX 6 16 0 -4
BITMAP
00
00
00
78
24
24
24
74
24
24
24
78
00
00
00
00
ENDCHAR

STARTCHAR Ntilde
ENCODING 209
SWIDTH 602 0
DWIDTH 6 0
BBX 6 16 0 -4
BITMAP
34
48
00
44
64
64
54
54
54
4C
4C
44
00
00
00
00
ENDCHAR

STARTCHAR Ograve
ENCODING 210
SWIDTH 602 0
DWIDTH 6 0
BBX 6 16 0 -4
BITMAP
30
08
00
38
44
44
44
44
44
44
44
38
00
00
00
00
ENDCHAR

STARTCHAR Oacute
ENCODING 211
SWIDTH 602 0
DWIDTH 6 0
BBX 6 16 0 -4
BITMAP
18
20
00
38
44
44
44
44
44
44
44
38
00
00
00
00
ENDCHAR

STARTCHAR Ocircumflex
ENCODING 212
SWIDTH 602 0
DWIDTH 6 0
BBX 6 16 0 -4
BITMAP
38
44
00
38
44
44
44
44
44
44
44
38
00
00
00
00
ENDCHAR

STARTCHAR Otilde
ENCODING 213
SWIDTH 602 0
DWIDTH 6 0
BBX 6 16 0 -4
BITMAP
34
48
00
38
44
44
44
44
44
44
44
38
00
00
00
00
ENDCHAR

STARTCHAR Odiaeresis
ENCODING 214
SWIDTH 602 0
DWIDTH 6 0
BBX 6 16 0 -4
BITMAP
44
44
00
38
44
44
44
44
44
44
44
38
00
00
00
00
ENDCHAR

STARTCHAR Multiplication
ENCODING 215
SWIDTH 667 0
DWIDTH 6 0
BBX 6 16 0 -4
BITMAP
00
00
00
00
00
44
28
10
28
44
00
00
00
00
00
00
ENDCHAR

STARTCHAR Ooblique
ENCODING 216
SWIDTH 602 0
DWIDTH 6 0
BBX 6 16 0 -4
BITMAP
00
00
08
38
4C
54
54
54
54
54
64
38
20
00
00
00
ENDCHAR

STARTCHAR Ugrave
ENCODING 217
SWIDTH 602 0
DWIDTH 6 0
BBX 6 16 0 -4
BITMAP
30
08
00
44
44
44
44
44
44
44
44
38
00
00
00
00
ENDCHAR

STARTCHAR Uacute
ENCODING 218
SWIDTH 602 0
DWIDTH 6 0
BBX 6 16 0 -4
BITMAP
18
20
00
44
44
44
44
44
44
44
44
38
00
00
00
00
ENDCHAR

STARTCHAR Ucircumflex
ENCODING 219
SWIDTH 602 0
DWIDTH 6 0
BBX 6 16 0 -4
BITMAP
38
44
00
44
44
44
44
44
44
44
44
38
00
00
00
00
ENDCHAR

STARTCHAR Udiaeresis
ENCODING 220
SWIDTH 602 0
DWIDTH 6 0
BBX 6 16 0 -4
BITMAP
44
44
00
44
44
44
44
44
44
44
44
38
00
00
00
00
ENDCHAR

STARTCHAR Yacute
ENCODING 221
SWIDTH 602 0
DWIDTH 6 0
BBX 6 16 0 -4
BITMAP
18
20
00
44
44
28
28
10
10
10
10
10
00
00
00
00
ENDCHAR

STARTCHAR Thorn
ENCODING 222
SWIDTH 602 0
DWIDTH 6 0
BBX 6 16 0 -4
BITMAP
00
00
00
40
40
78
44
44
44
78
40
40
00
00
00
00
ENDCHAR

STARTCHAR EsZetLigature
ENCODING 223
SWIDTH 602 0
DWIDTH 6 0
BBX 6 16 0 -4
BITMAP
00
00
00
30
48
48
48
58
44
44
44
58
00
00
00
00
ENDCHAR

STARTCHAR agrave
ENCODING 224
SWIDTH 602 0
DWIDTH 6 0
BBX 6 16 0 -4
BITMAP
00
00
00
30
08
00
38
04
3C
44
4C
34
00
00
00
00
ENDCHAR

STARTCHAR aacute
ENCODING 225
SWIDTH 602 0
DWIDTH 6 0
BBX 6 16 0 -4
BITMAP
00
00
00
18
20
00
38
04
3C
44
4C
34
00
00
00
00
ENDCHAR

STARTCHAR acircumflex
ENCODING 226
SWIDTH 602 0
DWIDTH 6 0
BBX 6 16 0 -4
BITMAP
00
00
00
38
44
00
38
04
3C
44
4C
34
00
00
00
00
ENDCHAR

STARTCHAR atilde
ENCODING 227
SWIDTH 602 0
DWIDTH 6 0
BBX 6 16 0 -4
BITMAP
00
00
00
34
48
00
38
04
3C
44
4C
34
00
00
00
00
ENDCHAR

STARTCHAR adiaeresis
ENCODING 228
SWIDTH 602 0
DWIDTH 6 0
BBX 6 16 0 -4
BITMAP
00
00
00
44
44
00
38
04
3C
44
4C
34
00
00
00
00
ENDCHAR

STARTCHAR abolle
ENCODING 229
SWIDTH 602 0
DWIDTH 6 0
BBX 6 16 0 -4
BITMAP
00
10
28
28
10
00
38
04
3C
44
4C
34
00
00
00
00
ENDCHAR

STARTCHAR aedihthong
ENCODING 230
SWIDTH 602 0
DWIDTH 6 0
BBX 6 16 0 -4
BITMAP
00
00
00
00
00
00
68
14
7C
90
90
6C
00
00
00
00
ENDCHAR

STARTCHAR ccedilla
ENCODING 231
SWIDTH 602 0
DWIDTH 6 0
BBX 6 16 0 -4
BITMAP
00
00
00
00
00
00
3C
44
40
40
44
38
10
08
30
00
ENDCHAR

STARTCHAR egrave
ENCODING 232
SWIDTH 602 0
DWIDTH 6 0
BBX 6 16 0 -4
BITMAP
00
00
00
30
08
00
38
44
7C
40
44
38
00
00
00
00
ENDCHAR

STARTCHAR eacute
ENCODING 233
SWIDTH 602 0
DWIDTH 6 0
BBX 6 16 0 -4
BITMAP
00
00
00
18
20
00
38
44
7C
40
44
38
00
00
00
00
ENDCHAR

STARTCHAR ecircumflex
ENCODING 234
SWIDTH 602 0
DWIDTH 6 0
BBX 6 16 0 -4
BITMAP
00
00
00
38
44
00
38
44
7C
40
44
38
00
00
00
00
ENDCHAR

STARTCHAR ediaeresis
ENCODING 235
SWIDTH 602 0
DWIDTH 6 0
BBX 6 16 0 -4
BITMAP
00
00
00
44
44
00
38
44
7C
40
44
38
00
00
00
00
ENDCHAR

STARTCHAR igrave
ENCODING 236
SWIDTH 602 0
DWIDTH 6 0
BBX 6 16 0 -4
BITMAP
00
00
00
60
10
00
70
10
10
10
10
7C
00
00
00
00
ENDCHAR

STARTCHAR iacute
ENCODING 237
SWIDTH 602 0
DWIDTH 6 0
BBX 6 16 0 -4
BITMAP
00
00
00
18
20
00
70
10
10
10
10
7C
00
00
00
00
ENDCHAR

STARTCHAR icircumflex
ENCODING 238
SWIDTH 602 0
DWIDTH 6 0
BBX 6 16 0 -4
BITMAP
00
00
00
30
48
00
70
10
10
10
10
7C
00
00
00
00
ENDCHAR

STARTCHAR idiaeresis
ENCODING 239
SWIDTH 602 0
DWIDTH 6 0
BBX 6 16 0 -4
BITMAP
00
00
00
48
48
00
70
10
10
10
10
7C
00
00
00
00
ENDCHAR

STARTCHAR ethIcelandic
ENCODING 240
SWIDTH 602 0
DWIDTH 6 0
BBX 6 16 0 -4
BITMAP
00
00
00
6C
10
68
08
3C
44
44
44
38
00
00
00
00
ENDCHAR

STARTCHAR ntilde
ENCODING 241
SWIDTH 602 0
DWIDTH 6 0
BBX 6 16 0 -4
BITMAP
00
00
00
34
48
00
58
64
44
44
44
44
00
00
00
00
ENDCHAR

STARTCHAR ograve
ENCODING 242
SWIDTH 602 0
DWIDTH 6 0
BBX 6 16 0 -4
BITMAP
00
00
00
30
08
00
38
44
44
44
44
38
00
00
00
00
ENDCHAR

STARTCHAR oacute
ENCODING 243
SWIDTH 602 0
DWIDTH 6 0
BBX 6 16 0 -4
BITMAP
00
00
00
18
20
00
38
44
44
44
44
38
00
00
00
00
ENDCHAR

STARTCHAR ocircumflex
ENCODING 244
SWIDTH 602 0
DWIDTH 6 0
BBX 6 16 0 -4
BITMAP
00
00
00
38
44
00
38
44
44
44
44
38
00
00
00
00
ENDCHAR

STARTCHAR otilde
ENCODING 245
SWIDTH 602 0
DWIDTH 6 0
BBX 6 16 0 -4
BITMAP
00
00
00
34
48
00
38
44
44
44
44
38
00
00
00
00
ENDCHAR

STARTCHAR odiaeresis
ENCODING 246
SWIDTH 602 0
DWIDTH 6 0
BBX 6 16 0 -4
BITMAP
00
00
00
44
44
00
38
44
44
44
44
38
00
00
00
00
ENDCHAR

STARTCHAR DivideSign
ENCODING 247
SWIDTH 667 0
DWIDTH 6 0
BBX 6 16 0 -4
BITMAP
00
00
00
00
10
10
00
7C
00
10
10
00
00
00
00
00
ENDCHAR

STARTCHAR ooblique
ENCODING 248
SWIDTH 602 0
DWIDTH 6 0
BBX 6 16 0 -4
BITMAP
00
00
00
00
00
04
38
4C
54
54
64
38
40
00
00
00
ENDCHAR

STARTCHAR ugrave
ENCODING 249
SWIDTH 602 0
DWIDTH 6 0
BBX 6 16 0 -4
BITMAP
00
00
00
30
08
00
44
44
44
44
4C
34
00
00
00
00
ENDCHAR

STARTCHAR uacute
ENCODING 250
SWIDTH 602 0
DWIDTH 6 0
BBX 6 16 0 -4
BITMAP
00
00
00
18
20
00
44
44
44
44
4C
34
00
00
00
00
ENDCHAR

STARTCHAR ucircumflex
ENCODING 251
SWIDTH 602 0
DWIDTH 6 0
BBX 6 16 0 -4
BITMAP
00
00
00
38
44
00
44
44
44
44
4C
34
00
00
00
00
ENDCHAR

STARTCHAR udiaeresis
ENCODING 252
SWIDTH 602 0
DWIDTH 6 0
BBX 6 16 0 -4
BITMAP
00
00
00
44
44
00
44
44
44
44
4C
34
00
00
00
00
ENDCHAR

STARTCHAR yacute
ENCODING 253
SWIDTH 602 0
DWIDTH 6 0
BBX 6 16 0 -4
BITMAP
00
00
00
18
20
00
44
44
28
28
28
10
10
10
60
00
ENDCHAR

STARTCHAR thorn
ENCODING 254
SWIDTH 602 0
DWIDTH 6 0
BBX 6 16 0 -4
BITMAP
00
00
00
40
40
40
58
64
44
44
64
58
40
40
40
00
ENDCHAR

STARTCHAR ydiaeresis
ENCODING 255
SWIDTH 602 0
DWIDTH 6 0
BBX 6 16 0 -4
BITMAP
00
00
00
44
44
00
44
44
28
28
28
10
10
10
60
00
ENDCHAR

ENDFONT
