STARTFONT 2.1
FONT -Monotype-Arial-Regular-R-Normal--25-180-100-100-P-111-iso8859-9
SIZE 18 100 100
FONTBOUNDINGBOX 31 30 -6 -6

STARTPROPERTIES 24
FOUNDRY "Monotype"
FAMILY_NAME "Arial"
WEIGHT_NAME "Regular"
SLANT "R"
SETWIDTH_NAME "Normal"
ADD_STYLE_NAME ""
PIXEL_SIZE 25
POINT_SIZE 180
RESOLUTION_X 100
RESOLUTION_Y 100
SPACING "P"
AVERAGE_WIDTH 111
CHARSET_REGISTRY "iso8859"
CHARSET_ENCODING "9"
FACE_NAME "Arial ISO Latin5"
_DEC_DEVICE_FONTNAMES "PS=arial-lat5"
COPYRIGHT "Copyright (c) 1993 Monotype Typography Ltd."
CAP_HEIGHT 21
X_HEIGHT 15
WEIGHT 10
QUAD_WIDTH 15
DEFAULT_CHAR 160
FONT_DESCENT 6
FONT_ASCENT 24
ENDPROPERTIES

CHARS 191

STARTCHAR space
ENCODING 32
SWIDTH 333 0
DWIDTH 8 0
BBX 0 0 0 0
BITMAP
ENDCHAR

STARTCHAR exclam
ENCODING 33
SWIDTH 278 0
DWIDTH 7 0
BBX 3 18 2 0
BITMAP
E0
E0
E0
E0
E0
E0
E0
E0
E0
60
40
40
40
00
00
E0
E0
E0
ENDCHAR

STARTCHAR quotedbl
ENCODING 34
SWIDTH 355 0
DWIDTH 9 0
BBX 7 7 1 11
BITMAP
EE
EE
EE
EE
EE
44
44
ENDCHAR

STARTCHAR numbersign
ENCODING 35
SWIDTH 556 0
DWIDTH 14 0
BBX 14 18 0 0
BITMAP
0618
0630
0430
0C30
0C30
FFFC
FFFC
1860
1860
1860
1840
FFFC
FFFC
30C0
30C0
3180
2180
6180
ENDCHAR

STARTCHAR dollar
ENCODING 36
SWIDTH 556 0
DWIDTH 14 0
BBX 11 23 2 -3
BITMAP
0400
0400
3F80
75C0
E4C0
C4E0
C400
C400
E400
7C00
3F80
07C0
04E0
0460
0460
C460
C460
E4E0
7FC0
3F80
0400
0400
0400
ENDCHAR

STARTCHAR percent
ENCODING 37
SWIDTH 889 0
DWIDTH 22 0
BBX 20 19 1 -1
BITMAP
380300
7E0600
E70400
C30C00
C30800
C31800
C31000
663000
7E2000
186380
0047E0
00CE70
018C30
018C30
030C30
030C30
060660
0607E0
0C0180
ENDCHAR

STARTCHAR ampersand
ENCODING 38
SWIDTH 667 0
DWIDTH 17 0
BBX 14 19 2 0
BITMAP
0F00
1F80
39C0
30C0
30C0
39C0
1B80
0F00
1E00
3F00
7318
E3B8
C1D8
C0F0
C070
E0F0
71F8
7F9C
1E08
ENDCHAR

STARTCHAR quoteright
ENCODING 39
SWIDTH 222 0
DWIDTH 6 0
BBX 2 6 2 12
BITMAP
C0
C0
C0
40
C0
80
ENDCHAR

STARTCHAR parenleft
ENCODING 40
SWIDTH 333 0
DWIDTH 8 0
BBX 6 23 2 -5
BITMAP
0C
18
30
30
60
60
60
E0
C0
C0
C0
C0
C0
C0
C0
E0
60
60
60
30
30
18
0C
ENDCHAR

STARTCHAR parenright
ENCODING 41
SWIDTH 333 0
DWIDTH 8 0
BBX 6 23 1 -5
BITMAP
C0
60
30
30
18
18
18
0C
0C
0C
0C
0C
0C
0C
0C
1C
18
18
18
30
30
60
C0
ENDCHAR

STARTCHAR asterisk
ENCODING 42
SWIDTH 389 0
DWIDTH 10 0
BBX 8 7 1 11
BITMAP
18
18
FB
FF
38
74
66
ENDCHAR

STARTCHAR plus
ENCODING 43
SWIDTH 584 0
DWIDTH 15 0
BBX 12 12 1 3
BITMAP
0600
0600
0600
0600
0600
FFF0
FFF0
0600
0600
0600
0600
0600
ENDCHAR

STARTCHAR comma
ENCODING 44
SWIDTH 278 0
DWIDTH 7 0
BBX 3 6 2 -3
BITMAP
E0
E0
A0
60
40
C0
ENDCHAR

STARTCHAR minus
ENCODING 45
SWIDTH 584 0
DWIDTH 15 0
BBX 12 2 1 8
BITMAP
FFF0
FFF0
ENDCHAR

STARTCHAR period
ENCODING 46
SWIDTH 278 0
DWIDTH 7 0
BBX 3 3 2 0
BITMAP
E0
E0
E0
ENDCHAR

STARTCHAR slash
ENCODING 47
SWIDTH 278 0
DWIDTH 7 0
BBX 7 18 0 0
BITMAP
06
04
0C
0C
0C
08
18
18
18
30
30
30
20
60
60
60
C0
C0
ENDCHAR

STARTCHAR zero
ENCODING 48
SWIDTH 556 0
DWIDTH 14 0
BBX 11 18 1 0
BITMAP
1F00
3F80
71C0
60C0
E0E0
C060
C060
C060
C060
C060
C060
C060
C060
E0E0
60C0
71C0
3F80
0F00
ENDCHAR

STARTCHAR one
ENCODING 49
SWIDTH 556 0
DWIDTH 14 0
BBX 6 18 3 0
BITMAP
0C
1C
3C
7C
EC
8C
0C
0C
0C
0C
0C
0C
0C
0C
0C
0C
0C
0C
ENDCHAR

STARTCHAR two
ENCODING 50
SWIDTH 556 0
DWIDTH 14 0
BBX 12 18 0 0
BITMAP
0F80
3FE0
3060
6030
6030
0030
0030
0070
00E0
01C0
0380
0700
0E00
1C00
3800
6000
7FF0
FFF0
ENDCHAR

STARTCHAR three
ENCODING 51
SWIDTH 556 0
DWIDTH 14 0
BBX 12 18 1 0
BITMAP
0F00
3FC0
70E0
6060
6060
0060
00E0
0780
07C0
00E0
0070
0030
0030
E030
6070
70E0
3FC0
0F80
ENDCHAR

STARTCHAR four
ENCODING 52
SWIDTH 556 0
DWIDTH 14 0
BBX 13 19 0 0
BITMAP
00C0
01C0
01C0
03C0
06C0
06C0
0CC0
18C0
18C0
30C0
60C0
C0C0
FFF8
FFF8
00C0
00C0
00C0
00C0
00C0
ENDCHAR

STARTCHAR five
ENCODING 53
SWIDTH 556 0
DWIDTH 14 0
BBX 12 18 1 0
BITMAP
3FE0
3FE0
3000
3000
3000
7000
6F80
7FE0
70E0
2070
0030
0030
0030
E030
6070
70E0
3FC0
0F00
ENDCHAR

STARTCHAR six
ENCODING 54
SWIDTH 556 0
DWIDTH 14 0
BBX 12 18 1 0
BITMAP
0F80
1FE0
3860
7070
6000
6000
E780
CFC0
F0E0
E070
E030
E030
E030
6030
7070
38E0
1FC0
0F80
ENDCHAR

STARTCHAR seven
ENCODING 55
SWIDTH 556 0
DWIDTH 14 0
BBX 12 18 1 0
BITMAP
FFF0
FFF0
0060
00C0
01C0
0180
0300
0700
0600
0600
0E00
0C00
0C00
1C00
1C00
1800
1800
1800
ENDCHAR

STARTCHAR eight
ENCODING 56
SWIDTH 556 0
DWIDTH 14 0
BBX 12 18 1 0
BITMAP
0F00
3FC0
70E0
6060
6060
6060
70E0
3F80
3FC0
70E0
E070
C030
C030
C030
E070
70E0
3FC0
0F00
ENDCHAR

STARTCHAR nine
ENCODING 57
SWIDTH 556 0
DWIDTH 14 0
BBX 11 18 1 0
BITMAP
1E00
3F80
71C0
E0C0
C060
C060
C060
C060
E0E0
71E0
3F60
1E60
0060
2060
E0C0
61C0
3F80
1E00
ENDCHAR

STARTCHAR colon
ENCODING 58
SWIDTH 278 0
DWIDTH 7 0
BBX 3 13 2 0
BITMAP
E0
E0
E0
00
00
00
00
00
00
00
E0
E0
E0
ENDCHAR

STARTCHAR semicolon
ENCODING 59
SWIDTH 278 0
DWIDTH 7 0
BBX 3 16 2 -3
BITMAP
E0
E0
E0
00
00
00
00
00
00
00
E0
E0
A0
60
40
C0
ENDCHAR

STARTCHAR less
ENCODING 60
SWIDTH 584 0
DWIDTH 15 0
BBX 12 12 1 3
BITMAP
0010
0070
03F0
0F80
3E00
E000
F000
7C00
1F80
03E0
00F0
0010
ENDCHAR

STARTCHAR equal
ENCODING 61
SWIDTH 584 0
DWIDTH 15 0
BBX 12 7 1 5
BITMAP
FFF0
FFF0
0000
0000
0000
FFF0
FFF0
ENDCHAR

STARTCHAR greater
ENCODING 62
SWIDTH 584 0
DWIDTH 15 0
BBX 12 12 1 3
BITMAP
8000
F000
7C00
1F00
03E0
00F0
0070
03F0
0F80
3E00
F000
C000
ENDCHAR

STARTCHAR question
ENCODING 63
SWIDTH 556 0
DWIDTH 14 0
BBX 11 19 2 0
BITMAP
1F00
7FC0
70C0
E0E0
C060
4060
0060
00C0
01C0
0380
0700
0600
0E00
0E00
0000
0000
0E00
0E00
0E00
ENDCHAR

STARTCHAR at
ENCODING 64
SWIDTH 1015 0
DWIDTH 25 0
BBX 24 23 1 -5
BITMAP
007F00
03FFC0
0780F0
0E0038
180018
3079CC
30FD8C
61C786
638386
C70386
C70306
C60306
C6030C
C6070C
C70718
630F38
63FBE0
70E3C0
38000F
1C001C
0F0078
03FFE0
007F00
ENDCHAR

STARTCHAR A
ENCODING 65
SWIDTH 667 0
DWIDTH 17 0
BBX 17 18 0 0
BITMAP
03C000
03C000
03C000
066000
066000
0E3000
0C3000
0C3800
1C1800
181800
1FFC00
3FFC00
300E00
700E00
700600
600700
E00300
E00380
ENDCHAR

STARTCHAR B
ENCODING 66
SWIDTH 667 0
DWIDTH 17 0
BBX 13 18 2 0
BITMAP
FFC0
FFE0
C0F0
C030
C030
C030
C030
C0E0
FFC0
FFE0
C070
C038
C018
C018
C038
C078
FFF0
FFC0
ENDCHAR

STARTCHAR C
ENCODING 67
SWIDTH 722 0
DWIDTH 18 0
BBX 16 18 1 0
BITMAP
07E0
1FF8
3C1C
700E
600E
E004
E000
C000
C000
C000
C000
E000
E007
6006
700E
3C3C
1FF8
07E0
ENDCHAR

STARTCHAR D
ENCODING 68
SWIDTH 722 0
DWIDTH 18 0
BBX 14 18 2 0
BITMAP
FFC0
FFE0
C070
C038
C01C
C01C
C00C
C00C
C00C
C00C
C00C
C00C
C01C
C018
C038
C070
FFE0
FFC0
ENDCHAR

STARTCHAR E
ENCODING 69
SWIDTH 667 0
DWIDTH 17 0
BBX 13 18 2 0
BITMAP
FFF8
FFF8
C000
C000
C000
C000
C000
C000
FFF0
FFF0
C000
C000
C000
C000
C000
C000
FFF8
FFF8
ENDCHAR

STARTCHAR F
ENCODING 70
SWIDTH 611 0
DWIDTH 15 0
BBX 12 18 2 0
BITMAP
FFF0
FFF0
C000
C000
C000
C000
C000
C000
FFE0
FFE0
C000
C000
C000
C000
C000
C000
C000
C000
ENDCHAR

STARTCHAR G
ENCODING 71
SWIDTH 778 0
DWIDTH 19 0
BBX 16 18 2 0
BITMAP
07F0
1FFC
3C1E
7006
6007
E002
E000
C000
C000
C07F
C07F
E003
E003
6003
7007
3C1F
1FFC
07F0
ENDCHAR

STARTCHAR H
ENCODING 72
SWIDTH 722 0
DWIDTH 18 0
BBX 14 18 2 0
BITMAP
C00C
C00C
C00C
C00C
C00C
C00C
C00C
FFFC
FFFC
C00C
C00C
C00C
C00C
C00C
C00C
C00C
C00C
C00C
ENDCHAR

STARTCHAR I
ENCODING 73
SWIDTH 278 0
DWIDTH 7 0
BBX 2 17 2 0
BITMAP
C0
C0
C0
C0
C0
C0
C0
C0
C0
C0
C0
C0
C0
C0
C0
C0
C0
ENDCHAR

STARTCHAR J
ENCODING 74
SWIDTH 500 0
DWIDTH 13 0
BBX 10 17 0 0
BITMAP
00C0
00C0
00C0
00C0
00C0
00C0
00C0
00C0
00C0
00C0
00C0
20C0
E0C0
E0C0
71C0
7F80
1F00
ENDCHAR

STARTCHAR K
ENCODING 75
SWIDTH 667 0
DWIDTH 17 0
BBX 15 17 2 0
BITMAP
C038
C070
C0E0
C1C0
C380
C700
CE00
DF00
F300
E380
C1C0
C0E0
C0E0
C070
C038
C01C
C01E
ENDCHAR

STARTCHAR L
ENCODING 76
SWIDTH 556 0
DWIDTH 14 0
BBX 11 17 2 0
BITMAP
C000
C000
C000
C000
C000
C000
C000
C000
C000
C000
C000
C000
C000
C000
C000
FFE0
FFE0
ENDCHAR

STARTCHAR M
ENCODING 77
SWIDTH 833 0
DWIDTH 21 0
BBX 17 17 2 0
BITMAP
C00380
E00380
E00780
F00780
F00780
D80D80
D80D80
CC1980
CE1980
C63180
C63180
C32180
C36180
C36180
C1C180
C1C180
C1C180
ENDCHAR

STARTCHAR N
ENCODING 78
SWIDTH 722 0
DWIDTH 18 0
BBX 14 17 2 0
BITMAP
E00C
F00C
F00C
F80C
DC0C
CE0C
C60C
C70C
C38C
C18C
C1CC
C0EC
C074
C07C
C03C
C01C
C00C
ENDCHAR

STARTCHAR O
ENCODING 79
SWIDTH 778 0
DWIDTH 19 0
BBX 17 17 1 0
BITMAP
07F000
1FFC00
3C1E00
700700
600300
E00380
E00380
C00180
C00180
C00180
E00380
E00380
700700
780700
3C1E00
1FFC00
03F000
ENDCHAR

STARTCHAR P
ENCODING 80
SWIDTH 667 0
DWIDTH 17 0
BBX 13 17 2 0
BITMAP
FFE0
FFF0
C078
C038
C018
C018
C038
C078
FFF0
FFC0
C000
C000
C000
C000
C000
C000
C000
ENDCHAR

STARTCHAR Q
ENCODING 81
SWIDTH 778 0
DWIDTH 19 0
BBX 18 18 1 -1
BITMAP
07F000
1FFC00
3C1E00
700700
600300
E00380
E00380
C00180
C00180
C00180
E00380
E00380
706300
307B00
3C1E00
0FFF00
03F3C0
000080
ENDCHAR

STARTCHAR R
ENCODING 82
SWIDTH 722 0
DWIDTH 18 0
BBX 16 17 2 0
BITMAP
FFE0
FFF8
C03C
C01C
C00C
C01C
C03C
FFF8
FFE0
C1C0
C0E0
C070
C038
C01C
C01C
C00E
C007
ENDCHAR

STARTCHAR S
ENCODING 83
SWIDTH 667 0
DWIDTH 17 0
BBX 14 17 1 0
BITMAP
0FC0
3FF0
3838
6018
601C
6000
7000
3F00
1FE0
03F8
003C
E01C
E00C
701C
7838
3FF0
0FE0
ENDCHAR

STARTCHAR T
ENCODING 84
SWIDTH 611 0
DWIDTH 15 0
BBX 14 17 1 0
BITMAP
FFFC
FFFC
0300
0300
0300
0300
0300
0300
0300
0300
0300
0300
0300
0300
0300
0300
0300
ENDCHAR

STARTCHAR U
ENCODING 85
SWIDTH 722 0
DWIDTH 18 0
BBX 14 17 2 0
BITMAP
C00C
C00C
C00C
C00C
C00C
C00C
C00C
C00C
C00C
C00C
C00C
C00C
E01C
E01C
7878
3FF0
0FC0
ENDCHAR

STARTCHAR V
ENCODING 86
SWIDTH 667 0
DWIDTH 17 0
BBX 17 17 0 0
BITMAP
E00380
600300
700700
700600
300E00
380C00
181C00
1C1800
0C1800
0C3000
063000
067000
076000
036000
03C000
01C000
01C000
ENDCHAR

STARTCHAR W
ENCODING 87
SWIDTH 944 0
DWIDTH 24 0
BBX 23 17 0 0
BITMAP
E03806
603C06
60340E
706E0C
30660C
30661C
30C618
18C718
18C318
198330
1983B0
0D81B0
0D81B0
0F01E0
0F01E0
0700E0
0700C0
ENDCHAR

STARTCHAR X
ENCODING 88
SWIDTH 667 0
DWIDTH 17 0
BBX 17 17 0 0
BITMAP
700700
380E00
180C00
1C1C00
0E3800
077000
076000
03E000
01C000
03E000
077000
0E3800
1C1800
181C00
380E00
700700
E00780
ENDCHAR

STARTCHAR Y
ENCODING 89
SWIDTH 667 0
DWIDTH 17 0
BBX 16 17 0 0
BITMAP
E007
700E
381C
1C18
0C38
0E70
0760
03C0
03C0
0180
0180
0180
0180
0180
0180
0180
0180
ENDCHAR

STARTCHAR Z
ENCODING 90
SWIDTH 611 0
DWIDTH 15 0
BBX 14 17 0 0
BITMAP
7FFC
7FFC
001C
0038
0070
00E0
01C0
0380
0700
0700
0E00
1C00
3800
7000
6000
FFFC
FFFC
ENDCHAR

STARTCHAR bracketleft
ENCODING 91
SWIDTH 278 0
DWIDTH 7 0
BBX 5 23 2 -5
BITMAP
F8
F8
C0
C0
C0
C0
C0
C0
C0
C0
C0
C0
C0
C0
C0
C0
C0
C0
C0
C0
C0
F8
F8
ENDCHAR

STARTCHAR backslash
ENCODING 92
SWIDTH 278 0
DWIDTH 7 0
BBX 7 18 0 0
BITMAP
C0
C0
60
60
60
20
30
30
30
18
18
18
08
0C
0C
0C
04
06
ENDCHAR

STARTCHAR bracketright
ENCODING 93
SWIDTH 278 0
DWIDTH 7 0
BBX 5 23 0 -5
BITMAP
F8
F8
18
18
18
18
18
18
18
18
18
18
18
18
18
18
18
18
18
18
18
F8
F8
ENDCHAR

STARTCHAR asciicircum
ENCODING 94
SWIDTH 469 0
DWIDTH 12 0
BBX 10 10 1 8
BITMAP
0C00
1E00
1A00
3600
3300
7300
6180
6180
C1C0
C0C0
ENDCHAR

STARTCHAR underscore
ENCODING 95
SWIDTH 556 0
DWIDTH 14 0
BBX 14 1 0 -3
BITMAP
FFFC
ENDCHAR

STARTCHAR quoteleft
ENCODING 96
SWIDTH 222 0
DWIDTH 6 0
BBX 2 6 2 12
BITMAP
40
C0
80
C0
C0
C0
ENDCHAR

STARTCHAR a
ENCODING 97
SWIDTH 556 0
DWIDTH 14 0
BBX 12 14 1 0
BITMAP
1F80
3FC0
70E0
E060
0060
00E0
0FE0
7E60
E060
C060
C0E0
E1E0
7F60
3C70
ENDCHAR

STARTCHAR b
ENCODING 98
SWIDTH 556 0
DWIDTH 14 0
BBX 11 19 2 0
BITMAP
C000
C000
C000
C000
C000
CF00
DF80
F1C0
E0E0
C060
C060
C060
C060
C060
C0E0
E0C0
F1C0
DF80
CF00
ENDCHAR

STARTCHAR c
ENCODING 99
SWIDTH 500 0
DWIDTH 13 0
BBX 11 14 1 0
BITMAP
1F00
3FC0
70C0
E0E0
C040
C000
C000
C000
C000
E060
60E0
70C0
3FC0
0F00
ENDCHAR

STARTCHAR d
ENCODING 100
SWIDTH 556 0
DWIDTH 14 0
BBX 11 19 1 0
BITMAP
0060
0060
0060
0060
0060
1E60
3FA0
71E0
E0E0
C060
C060
C060
C060
C060
E060
60E0
71E0
3FA0
0E60
ENDCHAR

STARTCHAR e
ENCODING 101
SWIDTH 556 0
DWIDTH 14 0
BBX 12 14 1 0
BITMAP
0F00
3FC0
70E0
6060
E070
C030
FFF0
FFF0
C000
E000
6070
70E0
3FC0
0F80
ENDCHAR

STARTCHAR f
ENCODING 102
SWIDTH 278 0
DWIDTH 7 0
BBX 8 18 0 0
BITMAP
1F
3E
38
30
30
FE
FE
30
30
30
30
30
30
30
30
30
30
30
ENDCHAR

STARTCHAR g
ENCODING 103
SWIDTH 556 0
DWIDTH 14 0
BBX 11 18 1 -5
BITMAP
1E60
3FE0
70E0
E0E0
C060
C060
C060
C060
C060
E0E0
71E0
3FA0
0E60
0060
E0E0
60C0
7F80
1F00
ENDCHAR

STARTCHAR h
ENCODING 104
SWIDTH 556 0
DWIDTH 14 0
BBX 10 18 2 0
BITMAP
C000
C000
C000
C000
C000
DF00
DF80
E1C0
E0C0
C0C0
C0C0
C0C0
C0C0
C0C0
C0C0
C0C0
C0C0
C0C0
ENDCHAR

STARTCHAR i
ENCODING 105
SWIDTH 222 0
DWIDTH 6 0
BBX 2 18 2 0
BITMAP
C0
C0
C0
00
00
C0
C0
C0
C0
C0
C0
C0
C0
C0
C0
C0
C0
C0
ENDCHAR

STARTCHAR j
ENCODING 106
SWIDTH 222 0
DWIDTH 6 0
BBX 5 23 -1 -5
BITMAP
18
18
18
00
00
18
18
18
18
18
18
18
18
18
18
18
18
18
18
18
18
F8
F0
ENDCHAR

STARTCHAR k
ENCODING 107
SWIDTH 500 0
DWIDTH 13 0
BBX 11 18 2 0
BITMAP
C000
C000
C000
C000
C000
C1C0
C380
C700
CE00
D800
FC00
F400
CE00
C700
C300
C380
C1C0
C0E0
ENDCHAR

STARTCHAR l
ENCODING 108
SWIDTH 222 0
DWIDTH 6 0
BBX 2 18 2 0
BITMAP
C0
C0
C0
C0
C0
C0
C0
C0
C0
C0
C0
C0
C0
C0
C0
C0
C0
C0
ENDCHAR

STARTCHAR m
ENCODING 109
SWIDTH 833 0
DWIDTH 21 0
BBX 17 14 2 0
BITMAP
CF1E00
DFBF00
F1E380
E1C180
C1C180
C1C180
C1C180
C1C180
C1C180
C1C180
C1C180
C1C180
C1C180
C1C180
ENDCHAR

STARTCHAR n
ENCODING 110
SWIDTH 556 0
DWIDTH 14 0
BBX 10 14 2 0
BITMAP
CF00
DF80
F1C0
E0C0
C0C0
C0C0
C0C0
C0C0
C0C0
C0C0
C0C0
C0C0
C0C0
C0C0
ENDCHAR

STARTCHAR o
ENCODING 111
SWIDTH 556 0
DWIDTH 14 0
BBX 12 14 1 0
BITMAP
0F00
3FC0
70E0
6070
E030
C030
C030
C030
C030
E070
6060
70E0
3FC0
0F00
ENDCHAR

STARTCHAR p
ENCODING 112
SWIDTH 556 0
DWIDTH 14 0
BBX 11 19 2 -5
BITMAP
CF00
FF80
F1C0
E0E0
C060
C060
C060
C060
C060
C0E0
E0C0
F1C0
DF80
CE00
C000
C000
C000
C000
C000
ENDCHAR

STARTCHAR q
ENCODING 113
SWIDTH 556 0
DWIDTH 14 0
BBX 11 19 1 -5
BITMAP
1E60
3FE0
71E0
E0E0
C060
C060
C060
C060
C060
E060
60E0
71E0
3FA0
0E60
0060
0060
0060
0060
0060
ENDCHAR

STARTCHAR r
ENCODING 114
SWIDTH 333 0
DWIDTH 8 0
BBX 7 13 2 0
BITMAP
DE
DE
E2
E0
C0
C0
C0
C0
C0
C0
C0
C0
C0
ENDCHAR

STARTCHAR s
ENCODING 115
SWIDTH 500 0
DWIDTH 13 0
BBX 10 14 1 0
BITMAP
3E00
7F80
E180
C1C0
C000
F800
7F00
1F80
01C0
C0C0
C0C0
E1C0
7F80
1E00
ENDCHAR

STARTCHAR t
ENCODING 116
SWIDTH 278 0
DWIDTH 7 0
BBX 7 17 0 0
BITMAP
10
30
30
30
FC
FC
30
30
30
30
30
30
30
30
30
3C
1E
ENDCHAR

STARTCHAR u
ENCODING 117
SWIDTH 556 0
DWIDTH 14 0
BBX 10 14 2 0
BITMAP
C0C0
C0C0
C0C0
C0C0
C0C0
C0C0
C0C0
C0C0
C0C0
C0C0
C1C0
E3C0
7FC0
3CC0
ENDCHAR

STARTCHAR v
ENCODING 118
SWIDTH 500 0
DWIDTH 13 0
BBX 12 13 0 0
BITMAP
E030
6070
7060
3060
30E0
38C0
18C0
1980
0D80
0D80
0F00
0700
0600
ENDCHAR

STARTCHAR w
ENCODING 119
SWIDTH 722 0
DWIDTH 18 0
BBX 18 13 0 0
BITMAP
C0C0C0
60E1C0
61E180
61A180
71A380
333300
333300
3B3300
1B3600
1E1E00
1E1E00
0E1C00
0C0C00
ENDCHAR

STARTCHAR x
ENCODING 120
SWIDTH 500 0
DWIDTH 13 0
BBX 12 13 0 0
BITMAP
6070
70E0
38C0
1DC0
0D80
0F00
0700
0F80
1D80
39C0
30E0
7060
E070
ENDCHAR

STARTCHAR y
ENCODING 121
SWIDTH 500 0
DWIDTH 13 0
BBX 12 18 0 -5
BITMAP
E030
6030
7060
3060
30E0
38C0
18C0
1DC0
0D80
0D80
0F00
0700
0700
0600
0600
0C00
7C00
3800
ENDCHAR

STARTCHAR z
ENCODING 122
SWIDTH 500 0
DWIDTH 13 0
BBX 11 13 1 0
BITMAP
FFE0
FFE0
01C0
0380
0700
0E00
0C00
1800
3800
7000
C000
FFE0
FFE0
ENDCHAR

STARTCHAR braceleft
ENCODING 123
SWIDTH 334 0
DWIDTH 8 0
BBX 8 24 0 -6
BITMAP
07
0F
18
18
18
18
18
18
18
18
30
C0
E0
30
18
18
18
18
18
18
18
18
0F
07
ENDCHAR

STARTCHAR bar
ENCODING 124
SWIDTH 260 0
DWIDTH 7 0
BBX 2 23 2 -5
BITMAP
C0
C0
C0
C0
C0
C0
C0
C0
C0
C0
C0
C0
C0
C0
C0
C0
C0
C0
C0
C0
C0
C0
C0
ENDCHAR

STARTCHAR braceright
ENCODING 125
SWIDTH 334 0
DWIDTH 8 0
BBX 7 24 1 -6
BITMAP
C0
E0
30
30
30
30
30
30
30
30
18
0E
0E
18
30
30
30
30
30
30
30
30
E0
E0
ENDCHAR

STARTCHAR asciitilde
ENCODING 126
SWIDTH 584 0
DWIDTH 15 0
BBX 13 4 1 7
BITMAP
7C08
FF18
CFF8
81F0
ENDCHAR

STARTCHAR space
ENCODING 160
SWIDTH 333 0
DWIDTH 10 0
BBX 0 0 0 0
BITMAP
ENDCHAR

STARTCHAR exclamdown
ENCODING 161
SWIDTH 333 0
DWIDTH 8 0
BBX 3 18 3 -5
BITMAP
E0
E0
E0
00
00
40
40
40
E0
E0
E0
E0
E0
E0
E0
E0
E0
E0
ENDCHAR

STARTCHAR cent
ENCODING 162
SWIDTH 556 0
DWIDTH 14 0
BBX 11 24 1 -5
BITMAP
00C0
0080
0080
0180
0180
1F00
3FC0
73C0
62E0
E240
C600
C600
C400
CC00
EC60
68E0
79C0
3F80
1F00
1000
3000
3000
2000
2000
ENDCHAR

STARTCHAR sterling
ENCODING 163
SWIDTH 556 0
DWIDTH 14 0
BBX 13 18 0 0
BITMAP
07C0
1FE0
3870
3838
3018
3000
3000
3800
7F00
7F00
1800
1800
1800
3800
2000
7E08
FFF8
41F8
ENDCHAR

STARTCHAR currency
ENCODING 164
SWIDTH 556 0
DWIDTH 14 0
BBX 12 12 1 3
BITMAP
4020
EF70
7FE0
30C0
6060
6060
6060
6060
30C0
7FE0
EF70
4020
ENDCHAR

STARTCHAR yen
ENCODING 165
SWIDTH 556 0
DWIDTH 14 0
BBX 14 18 0 0
BITMAP
E01C
6018
7038
3030
3870
1860
0CC0
0FC0
0680
7FF8
7FF8
0300
7FF8
7FF8
0300
0300
0300
0300
ENDCHAR

STARTCHAR brokenbar
ENCODING 166
SWIDTH 260 0
DWIDTH 7 0
BBX 2 23 2 -5
BITMAP
C0
C0
C0
C0
C0
C0
C0
C0
C0
00
00
00
00
00
C0
C0
C0
C0
C0
C0
C0
C0
C0
ENDCHAR

STARTCHAR section
ENCODING 167
SWIDTH 556 0
DWIDTH 14 0
BBX 12 24 1 -6
BITMAP
1F00
3FC0
70C0
60E0
6040
3000
1800
3E00
6780
C3C0
C0E0
C070
6030
7830
1C70
0F60
0380
01C0
00E0
6060
7060
70E0
3FC0
0F00
ENDCHAR

STARTCHAR dieresis
ENCODING 168
SWIDTH 333 0
DWIDTH 8 0
BBX 7 3 1 15
BITMAP
C6
C6
C6
ENDCHAR

STARTCHAR copyright
ENCODING 169
SWIDTH 737 0
DWIDTH 18 0
BBX 19 19 0 0
BITMAP
01E000
07FC00
1C0E00
180300
300180
63F0C0
4718C0
460C40
CC0060
CC0060
CC0060
CC0860
460C40
6738C0
21F180
300380
1C0700
07FC00
01E000
ENDCHAR

STARTCHAR ordfeminine
ENCODING 170
SWIDTH 370 0
DWIDTH 9 0
BBX 8 9 0 9
BITMAP
3E
E7
43
1F
7F
C3
C7
7D
30
ENDCHAR

STARTCHAR guillemotleft
ENCODING 171
SWIDTH 556 0
DWIDTH 14 0
BBX 10 11 2 1
BITMAP
18C0
1980
3180
6300
E700
C600
E700
6300
3180
3180
18C0
ENDCHAR

STARTCHAR logicalnot
ENCODING 172
SWIDTH 584 0
DWIDTH 15 0
BBX 12 7 1 6
BITMAP
FFF0
FFF0
0030
0030
0030
0030
0030
ENDCHAR

STARTCHAR hyphen
ENCODING 173
SWIDTH 333 0
DWIDTH 8 0
BBX 7 2 1 5
BITMAP
FE
FE
ENDCHAR

STARTCHAR registered
ENCODING 174
SWIDTH 737 0
DWIDTH 18 0
BBX 19 19 0 0
BITMAP
01E000
07FC00
1C0E00
380380
300180
67F0C0
461840
C61860
C61860
C7F060
C66060
463040
4630C0
6618C0
360D80
380300
0C0E00
07FC00
01E000
ENDCHAR

STARTCHAR macron
ENCODING 175
SWIDTH 333 0
DWIDTH 8 0
BBX 8 2 0 15
BITMAP
FF
FF
ENDCHAR

STARTCHAR degree
ENCODING 176
SWIDTH 400 0
DWIDTH 10 0
BBX 6 6 2 12
BITMAP
78
CC
84
84
CC
78
ENDCHAR

STARTCHAR plusminus
ENCODING 177
SWIDTH 584 0
DWIDTH 15 0
BBX 12 15 1 0
BITMAP
0600
0600
0600
0600
0600
FFF0
FFF0
0600
0600
0600
0600
0600
0000
FFF0
FFF0
ENDCHAR

STARTCHAR twosuperior
ENCODING 178
SWIDTH 333 0
DWIDTH 8 0
BBX 8 9 0 9
BITMAP
3E
67
63
03
06
1C
38
60
FF
ENDCHAR

STARTCHAR threesuperior
ENCODING 179
SWIDTH 333 0
DWIDTH 8 0
BBX 8 9 0 9
BITMAP
3E
63
03
0C
0E
03
C3
67
3E
ENDCHAR

STARTCHAR acute
ENCODING 180
SWIDTH 333 0
DWIDTH 8 0
BBX 4 3 3 15
BITMAP
70
60
C0
ENDCHAR

STARTCHAR mu
ENCODING 181
SWIDTH 556 0
DWIDTH 14 0
BBX 10 18 2 -5
BITMAP
C0C0
C0C0
C0C0
C0C0
C0C0
C0C0
C0C0
C0C0
C0C0
C1C0
E1C0
DFC0
DEC0
C000
C000
C000
C000
C000
ENDCHAR

STARTCHAR paragraph
ENCODING 182
SWIDTH 537 0
DWIDTH 13 0
BBX 14 23 0 -5
BITMAP
1FFC
7FFC
7E30
FE30
FE30
FE30
FE30
7E30
7E30
1E30
0630
0630
0630
0630
0630
0630
0630
0630
0630
0630
0630
0630
0630
ENDCHAR

STARTCHAR periodcentered
ENCODING 183
SWIDTH 278 0
DWIDTH 7 0
BBX 3 3 2 7
BITMAP
E0
E0
E0
ENDCHAR

STARTCHAR cedilla
ENCODING 184
SWIDTH 333 0
DWIDTH 8 0
BBX 5 6 2 -5
BITMAP
20
60
78
18
F8
E0
ENDCHAR

STARTCHAR onesuperior
ENCODING 185
SWIDTH 333 0
DWIDTH 8 0
BBX 5 9 1 9
BITMAP
18
38
F8
98
18
18
18
18
18
ENDCHAR

STARTCHAR ordmasculine
ENCODING 186
SWIDTH 365 0
DWIDTH 9 0
BBX 8 10 1 9
BITMAP
3C
7E
67
C3
C3
C3
C3
66
7E
18
ENDCHAR

STARTCHAR guillemotright
ENCODING 187
SWIDTH 556 0
DWIDTH 14 0
BBX 10 11 2 1
BITMAP
C600
6600
6300
3180
3980
18C0
39C0
3180
6300
6600
C600
ENDCHAR

STARTCHAR onequarter
ENCODING 188
SWIDTH 834 0
DWIDTH 21 0
BBX 19 19 1 0
BITMAP
000180
180300
780300
D80600
180C00
180C00
181800
183000
183000
186000
00C0C0
0081C0
0183C0
0306C0
0606C0
0608C0
0C0FE0
1800C0
3800C0
ENDCHAR

STARTCHAR onehalf
ENCODING 189
SWIDTH 834 0
DWIDTH 21 0
BBX 19 20 1 -1
BITMAP
180180
380300
780600
D80600
180C00
181800
181800
183000
186000
186000
00C7C0
018CE0
018C60
030060
0600C0
060380
0C0700
180C00
100FE0
300000
ENDCHAR

STARTCHAR threequarters
ENCODING 190
SWIDTH 834 0
DWIDTH 21 0
BBX 21 18 0 0
BITMAP
3E0060
6300C0
030180
0C0300
0E0300
030600
C30C00
671800
3E1800
003030
006070
00C0F0
00C1B0
018330
030730
0607F8
0C0030
1C0030
ENDCHAR

STARTCHAR questiondown
ENCODING 191
SWIDTH 611 0
DWIDTH 15 0
BBX 11 19 2 -6
BITMAP
0E00
0E00
0E00
0000
0000
0600
0E00
0C00
1C00
3800
7000
E000
C000
C040
C060
E0E0
71C0
3F80
1F00
ENDCHAR

STARTCHAR Agrave
ENCODING 192
SWIDTH 667 0
DWIDTH 17 0
BBX 17 23 0 0
BITMAP
078000
018000
00C000
000000
01C000
03C000
034000
036000
066000
066000
0E3000
0C3000
0C3800
1C1800
181800
1FFC00
3FFC00
300E00
700E00
700600
600700
E00300
E00380
ENDCHAR

STARTCHAR Aacute
ENCODING 193
SWIDTH 667 0
DWIDTH 17 0
BBX 17 23 0 0
BITMAP
00E000
00C000
018000
000000
01C000
03C000
034000
036000
066000
066000
0E3000
0C3000
0C3800
1C1800
181800
1FFC00
3FFC00
300E00
700E00
700600
600700
E00300
E00380
ENDCHAR

STARTCHAR Acircumflex
ENCODING 194
SWIDTH 667 0
DWIDTH 17 0
BBX 17 23 0 0
BITMAP
03C000
036000
0E7000
000000
01C000
03C000
034000
036000
066000
066000
0E3000
0C3000
0C3800
1C1800
181800
1FFC00
3FFC00
300E00
700E00
700600
600700
E00300
E00380
ENDCHAR

STARTCHAR Atilde
ENCODING 195
SWIDTH 667 0
DWIDTH 17 0
BBX 17 23 0 0
BITMAP
031000
07F000
0C6000
000000
01C000
03C000
034000
036000
066000
066000
0E3000
0C3000
0C3800
1C1800
181800
1FFC00
3FFC00
300E00
700E00
700600
600700
E00300
E00380
ENDCHAR

STARTCHAR Adieresis
ENCODING 196
SWIDTH 667 0
DWIDTH 17 0
BBX 17 23 0 0
BITMAP
063000
063000
063000
000000
000000
01C000
03C000
036000
036000
066000
063000
0E3000
0C3800
0C1800
180C00
1FFC00
3FFC00
300600
300600
700700
600300
E00380
E00380
ENDCHAR

STARTCHAR Aring
ENCODING 197
SWIDTH 667 0
DWIDTH 17 0
BBX 16 24 0 0
BITMAP
0180
0240
0240
0240
0180
0180
0380
03C0
07C0
06E0
0660
0E60
0C70
0C30
1C38
1818
3FF8
3FFC
300C
700E
600E
6006
E007
C007
ENDCHAR

STARTCHAR AE
ENCODING 198
SWIDTH 1000 0
DWIDTH 25 0
BBX 24 18 0 0
BITMAP
00FFFE
00FFFE
01CC00
018C00
038C00
030C00
070C00
070C00
0E0FFE
0E0FFE
1C0C00
1FFC00
3FFC00
380C00
300C00
700C00
600FFF
E00FFF
ENDCHAR

STARTCHAR Ccedilla
ENCODING 199
SWIDTH 722 0
DWIDTH 18 0
BBX 15 24 2 -5
BITMAP
07E0
1FF8
3C3C
701C
600E
E006
E000
C000
C000
C000
C000
C000
E004
E006
600E
701C
3C3C
1FF8
07E0
0300
03C0
00C0
07C0
0700
ENDCHAR

STARTCHAR Egrave
ENCODING 200
SWIDTH 667 0
DWIDTH 17 0
BBX 13 23 2 0
BITMAP
1E00
0E00
0600
0300
0000
FFF8
FFF8
C000
C000
C000
C000
C000
C000
FFF0
FFF0
C000
C000
C000
C000
C000
C000
FFF8
FFF8
ENDCHAR

STARTCHAR Eacute
ENCODING 201
SWIDTH 667 0
DWIDTH 17 0
BBX 13 23 2 0
BITMAP
01C0
0380
0300
0600
0000
FFF8
FFF8
C000
C000
C000
C000
C000
C000
FFF0
FFF0
C000
C000
C000
C000
C000
C000
FFF8
FFF8
ENDCHAR

STARTCHAR Ecircumflex
ENCODING 202
SWIDTH 667 0
DWIDTH 17 0
BBX 13 23 2 0
BITMAP
0700
0F80
1D80
18C0
0000
FFF8
FFF8
C000
C000
C000
C000
C000
C000
FFF0
FFF0
C000
C000
C000
C000
C000
C000
FFF8
FFF8
ENDCHAR

STARTCHAR Edieresis
ENCODING 203
SWIDTH 667 0
DWIDTH 17 0
BBX 13 23 2 0
BITMAP
18C0
18C0
18C0
0000
0000
FFF8
FFF8
C000
C000
C000
C000
C000
C000
FFF0
FFF0
C000
C000
C000
C000
C000
C000
FFF8
FFF8
ENDCHAR

STARTCHAR Igrave
ENCODING 204
SWIDTH 278 0
DWIDTH 7 0
BBX 5 22 0 0
BITMAP
E0
30
38
00
30
30
30
30
30
30
30
30
30
30
30
30
30
30
30
30
30
30
ENDCHAR

STARTCHAR Iacute
ENCODING 205
SWIDTH 278 0
DWIDTH 7 0
BBX 4 22 2 0
BITMAP
70
E0
C0
00
C0
C0
C0
C0
C0
C0
C0
C0
C0
C0
C0
C0
C0
C0
C0
C0
C0
C0
ENDCHAR

STARTCHAR Icircumflex
ENCODING 206
SWIDTH 278 0
DWIDTH 7 0
BBX 8 22 -1 0
BITMAP
3C
76
E7
00
18
18
18
18
18
18
18
18
18
18
18
18
18
18
18
18
18
18
ENDCHAR

STARTCHAR Idieresis
ENCODING 207
SWIDTH 278 0
DWIDTH 7 0
BBX 6 23 0 0
BITMAP
CC
CC
CC
00
00
30
30
30
30
30
30
30
30
30
30
30
30
30
30
30
30
30
30
ENDCHAR

STARTCHAR Gbreve
ENCODING 208
SWIDTH 778 0
DWIDTH 19 0
BBX 16 22 2 0
BITMAP
0C30
07E0
0380
0000
07F0
1FFC
3C1E
7006
6007
E002
E000
C000
C000
C07F
C07F
E003
E003
6003
7007
3C1F
1FFC
07F0
ENDCHAR

STARTCHAR Ntilde
ENCODING 209
SWIDTH 722 0
DWIDTH 18 0
BBX 14 23 2 0
BITMAP
0E60
1FE0
19C0
0000
E00C
E00C
F00C
F80C
D80C
DC0C
CC0C
CE0C
C70C
C30C
C38C
C1CC
C0CC
C0EC
C074
C03C
C03C
C01C
C00C
ENDCHAR

STARTCHAR Ograve
ENCODING 210
SWIDTH 778 0
DWIDTH 19 0
BBX 17 22 1 0
BITMAP
078000
018000
00C000
000000
07F000
1FFC00
3C1E00
700700
600300
E00380
E00380
C00180
C00180
C00180
C00180
E00380
E00380
700700
780700
3C1E00
1FFC00
03F000
ENDCHAR

STARTCHAR Oacute
ENCODING 211
SWIDTH 778 0
DWIDTH 19 0
BBX 17 22 1 0
BITMAP
00F000
00C000
018000
000000
07F000
1FFC00
3C1E00
700700
600300
E00380
E00380
C00180
C00180
C00180
C00180
E00380
E00380
700700
780700
3C1E00
1FFC00
03F000
ENDCHAR

STARTCHAR Ocircumflex
ENCODING 212
SWIDTH 778 0
DWIDTH 19 0
BBX 17 22 1 0
BITMAP
01C000
036000
073000
000000
07F000
1FFC00
3C1E00
700700
600300
E00380
E00380
C00180
C00180
C00180
C00180
E00380
E00380
700700
780700
3C1E00
1FFC00
03F000
ENDCHAR

STARTCHAR Otilde
ENCODING 213
SWIDTH 778 0
DWIDTH 19 0
BBX 17 23 1 0
BITMAP
031800
07F000
0C6000
000000
07F000
1FFC00
3C1E00
780700
700700
E00380
E00380
C00180
C00180
C00180
C00180
C00180
E00380
E00380
700700
380E00
3C1E00
0FFC00
03E000
ENDCHAR

STARTCHAR Odieresis
ENCODING 214
SWIDTH 778 0
DWIDTH 19 0
BBX 17 23 1 0
BITMAP
063000
063000
063000
000000
000000
07F000
1FFC00
3C1E00
700700
600300
E00380
E00180
C00180
C00180
C00180
C00180
E00380
E00380
700300
700700
3C1E00
1FFC00
03F000
ENDCHAR

STARTCHAR multiply
ENCODING 215
SWIDTH 584 0
DWIDTH 15 0
BBX 11 10 2 4
BITMAP
40E0
E1C0
7380
3F00
0E00
1E00
3F00
7380
E1E0
C0C0
ENDCHAR

STARTCHAR Oslash
ENCODING 216
SWIDTH 778 0
DWIDTH 19 0
BBX 17 18 1 0
BITMAP
07F180
1FFD80
3C1E00
700700
700F00
E01B80
E03380
C06180
C0C180
C18180
C30180
E60380
EC0380
780700
300700
7C1E00
EFFC00
C7E000
ENDCHAR

STARTCHAR Ugrave
ENCODING 217
SWIDTH 722 0
DWIDTH 18 0
BBX 14 22 2 0
BITMAP
0E00
0300
0380
0000
C00C
C00C
C00C
C00C
C00C
C00C
C00C
C00C
C00C
C00C
C00C
C00C
C00C
E01C
E01C
7878
3FF0
0FC0
ENDCHAR

STARTCHAR Uacute
ENCODING 218
SWIDTH 722 0
DWIDTH 18 0
BBX 14 22 2 0
BITMAP
01C0
0380
0300
0000
C00C
C00C
C00C
C00C
C00C
C00C
C00C
C00C
C00C
C00C
C00C
C00C
C00C
E01C
E01C
7878
3FF0
0FC0
ENDCHAR

STARTCHAR Ucircumflex
ENCODING 219
SWIDTH 722 0
DWIDTH 18 0
BBX 14 22 2 0
BITMAP
0780
0EC0
1CE0
0000
C00C
C00C
C00C
C00C
C00C
C00C
C00C
C00C
C00C
C00C
C00C
C00C
C00C
E01C
E01C
7878
3FF0
0FC0
ENDCHAR

STARTCHAR Udieresis
ENCODING 220
SWIDTH 722 0
DWIDTH 18 0
BBX 14 23 2 0
BITMAP
0CC0
0CC0
0CC0
0000
0000
C00C
C00C
C00C
C00C
C00C
C00C
C00C
C00C
C00C
C00C
C00C
C00C
E00C
E01C
E01C
7878
3FF0
0FC0
ENDCHAR

STARTCHAR Idotaccent
ENCODING 221
SWIDTH 278 0
DWIDTH 7 0
BBX 3 22 2 0
BITMAP
E0
E0
E0
00
C0
C0
C0
C0
C0
C0
C0
C0
C0
C0
C0
C0
C0
C0
C0
C0
C0
C0
ENDCHAR

STARTCHAR Scedilla
ENCODING 222
SWIDTH 667 0
DWIDTH 17 0
BBX 14 24 1 -5
BITMAP
0FC0
3FF0
3878
6038
601C
601C
7000
3C00
3FC0
0FF0
00F8
003C
001C
E00C
E00C
701C
7838
3FF0
0FC0
0300
03C0
00C0
07C0
0700
ENDCHAR

STARTCHAR germandbls
ENCODING 223
SWIDTH 611 0
DWIDTH 15 0
BBX 13 19 2 0
BITMAP
1F00
7F80
61C0
E0C0
C0C0
C1C0
C180
C380
C300
C380
C3C0
C1E0
C070
C038
C018
C418
CE38
C7F0
C1E0
ENDCHAR

STARTCHAR agrave
ENCODING 224
SWIDTH 556 0
DWIDTH 14 0
BBX 12 19 1 0
BITMAP
1C00
0C00
0600
0600
0000
1F80
3FC0
70E0
E060
0060
00E0
0FE0
7E60
E060
C060
C0E0
E1E0
7F60
3C70
ENDCHAR

STARTCHAR aacute
ENCODING 225
SWIDTH 556 0
DWIDTH 14 0
BBX 12 19 1 0
BITMAP
0380
0700
0600
0C00
0000
1F80
3FC0
70E0
E060
0060
00E0
0FE0
7E60
E060
C060
C0E0
E1E0
7F60
3C70
ENDCHAR

STARTCHAR acircumflex
ENCODING 226
SWIDTH 556 0
DWIDTH 14 0
BBX 12 19 1 0
BITMAP
0E00
0F00
1B80
39C0
0000
1F80
3FC0
70E0
E060
0060
00E0
0FE0
7E60
E060
C060
C0E0
E1E0
7F60
3C70
ENDCHAR

STARTCHAR atilde
ENCODING 227
SWIDTH 556 0
DWIDTH 14 0
BBX 12 18 1 0
BITMAP
1CC0
3FC0
2380
0000
1F80
3FC0
70E0
E060
0060
00E0
0FE0
7E60
E060
C060
C0E0
E1E0
7F60
3C70
ENDCHAR

STARTCHAR adieresis
ENCODING 228
SWIDTH 556 0
DWIDTH 14 0
BBX 12 19 1 0
BITMAP
1980
1980
1980
0000
0000
1F80
3FC0
70E0
E060
0060
00E0
0FE0
7E60
E060
E060
E0E0
E1A0
7FE0
3E30
ENDCHAR

STARTCHAR aring
ENCODING 229
SWIDTH 556 0
DWIDTH 14 0
BBX 12 19 1 0
BITMAP
0600
0900
0900
0600
0000
1F80
3FC0
70E0
E060
0060
00E0
0FE0
7E60
E060
C060
C0E0
E1E0
7F60
3C70
ENDCHAR

STARTCHAR ae
ENCODING 230
SWIDTH 889 0
DWIDTH 22 0
BBX 20 14 1 0
BITMAP
1F8F80
3FDFC0
70F8E0
E07070
406030
006030
0FFFF0
7F7FF0
E06000
C06020
C0F070
E1F8E0
7F1FC0
3E0F80
ENDCHAR

STARTCHAR ccedilla
ENCODING 231
SWIDTH 500 0
DWIDTH 13 0
BBX 11 18 1 -4
BITMAP
1F00
3FC0
70C0
6060
E040
C000
C000
C000
C000
E060
6060
70C0
3FC0
0700
0C00
0700
0300
1F00
ENDCHAR

STARTCHAR egrave
ENCODING 232
SWIDTH 556 0
DWIDTH 14 0
BBX 12 19 1 0
BITMAP
1C00
0C00
0600
0600
0000
0F00
3FC0
70E0
6060
E070
C030
FFF0
FFF0
C000
E000
6070
70E0
3FC0
0F80
ENDCHAR

STARTCHAR eacute
ENCODING 233
SWIDTH 556 0
DWIDTH 14 0
BBX 12 19 1 0
BITMAP
0380
0300
0600
0600
0000
0F00
3FC0
70E0
6060
E070
C030
FFF0
FFF0
C000
E000
6070
70E0
3FC0
0F80
ENDCHAR

STARTCHAR ecircumflex
ENCODING 234
SWIDTH 556 0
DWIDTH 14 0
BBX 12 19 1 0
BITMAP
0600
0F00
1B80
39C0
0000
0F00
3FC0
70E0
6060
E070
C030
FFF0
FFF0
C000
E000
6070
70E0
3FC0
0F80
ENDCHAR

STARTCHAR edieresis
ENCODING 235
SWIDTH 556 0
DWIDTH 14 0
BBX 13 19 0 0
BITMAP
18C0
18C0
18C0
0000
0000
0F80
3FE0
3860
7030
6030
E038
FFF8
FFF8
E000
6000
6038
3070
3FE0
0F80
ENDCHAR

STARTCHAR igrave
ENCODING 236
SWIDTH 278 0
DWIDTH 7 0
BBX 5 18 0 0
BITMAP
E0
70
30
18
00
30
30
30
30
30
30
30
30
30
30
30
30
30
ENDCHAR

STARTCHAR iacute
ENCODING 237
SWIDTH 278 0
DWIDTH 7 0
BBX 4 18 2 0
BITMAP
70
60
C0
80
00
C0
C0
C0
C0
C0
C0
C0
C0
C0
C0
C0
C0
C0
ENDCHAR

STARTCHAR icircumflex
ENCODING 238
SWIDTH 278 0
DWIDTH 7 0
BBX 8 18 -1 0
BITMAP
38
3C
66
E7
00
18
18
18
18
18
18
18
18
18
18
18
18
18
ENDCHAR

STARTCHAR idieresis
ENCODING 239
SWIDTH 278 0
DWIDTH 7 0
BBX 6 18 0 0
BITMAP
CC
CC
CC
00
00
30
30
30
30
30
30
30
30
30
30
30
30
30
ENDCHAR

STARTCHAR gbreve
ENCODING 240
SWIDTH 556 0
DWIDTH 14 0
BBX 11 23 1 -5
BITMAP
3180
1F00
0E00
0000
1E60
3FE0
71E0
60E0
C060
C060
C060
C060
C060
C060
60E0
71E0
3FA0
0E60
0060
E0E0
60C0
7F80
1F00
ENDCHAR

STARTCHAR ntilde
ENCODING 241
SWIDTH 556 0
DWIDTH 14 0
BBX 10 18 2 0
BITMAP
3980
7F80
6700
0000
0000
CF00
DF80
E1C0
C0C0
C0C0
C0C0
C0C0
C0C0
C0C0
C0C0
C0C0
C0C0
C0C0
ENDCHAR

STARTCHAR ograve
ENCODING 242
SWIDTH 556 0
DWIDTH 14 0
BBX 12 19 1 0
BITMAP
1C00
0C00
0600
0300
0000
0F00
3FC0
70E0
6070
E030
C030
C030
C030
C030
E070
6060
70E0
3FC0
0F00
ENDCHAR

STARTCHAR oacute
ENCODING 243
SWIDTH 556 0
DWIDTH 14 0
BBX 12 19 1 0
BITMAP
0380
0300
0600
0600
0000
0F00
3FC0
70E0
6070
E030
C030
C030
C030
C030
E070
6060
70E0
3FC0
0F00
ENDCHAR

STARTCHAR ocircumflex
ENCODING 244
SWIDTH 556 0
DWIDTH 14 0
BBX 12 19 1 0
BITMAP
0600
0F00
1980
39C0
0000
0F00
3FC0
70E0
6070
E030
C030
C030
C030
C030
E070
6060
70E0
3FC0
0F00
ENDCHAR

STARTCHAR otilde
ENCODING 245
SWIDTH 556 0
DWIDTH 14 0
BBX 12 18 1 0
BITMAP
1CC0
3FC0
3180
0000
0F00
3FC0
70E0
6070
E030
C030
C030
C030
C030
E070
6060
70E0
3FC0
0F00
ENDCHAR

STARTCHAR odieresis
ENCODING 246
SWIDTH 556 0
DWIDTH 14 0
BBX 12 19 1 0
BITMAP
1980
1980
1980
0000
0000
0F00
3FC0
70E0
6070
E070
C030
C030
C030
C030
E070
6060
70E0
3FC0
0F00
ENDCHAR

STARTCHAR divide
ENCODING 247
SWIDTH 584 0
DWIDTH 15 0
BBX 11 10 2 4
BITMAP
0E00
0E00
0E00
0000
FFE0
FFE0
0000
0E00
0E00
0E00
ENDCHAR

STARTCHAR oslash
ENCODING 248
SWIDTH 611 0
DWIDTH 15 0
BBX 12 15 2 -1
BITMAP
0F30
3FE0
70E0
60F0
E1B0
C330
C230
C630
CC30
F870
7070
70E0
7FC0
CF00
4000
ENDCHAR

STARTCHAR ugrave
ENCODING 249
SWIDTH 556 0
DWIDTH 14 0
BBX 10 19 2 0
BITMAP
3800
1C00
0C00
0400
0000
C0C0
C0C0
C0C0
C0C0
C0C0
C0C0
C0C0
C0C0
C0C0
C0C0
C1C0
E3C0
7FC0
3CC0
ENDCHAR

STARTCHAR uacute
ENCODING 250
SWIDTH 556 0
DWIDTH 14 0
BBX 10 19 2 0
BITMAP
0700
0600
0C00
0800
0000
C0C0
C0C0
C0C0
C0C0
C0C0
C0C0
C0C0
C0C0
C0C0
C0C0
C1C0
E3C0
7FC0
3CC0
ENDCHAR

STARTCHAR ucircumflex
ENCODING 251
SWIDTH 556 0
DWIDTH 14 0
BBX 10 19 2 0
BITMAP
0C00
1E00
3300
7380
0000
C0C0
C0C0
C0C0
C0C0
C0C0
C0C0
C0C0
C0C0
C0C0
C0C0
C1C0
E3C0
7FC0
3CC0
ENDCHAR

STARTCHAR udieresis
ENCODING 252
SWIDTH 556 0
DWIDTH 14 0
BBX 10 19 2 0
BITMAP
3300
3300
3300
0000
0000
C0C0
C0C0
C0C0
C0C0
C0C0
C0C0
C0C0
C0C0
C0C0
C0C0
C1C0
E3C0
7FC0
3CC0
ENDCHAR

STARTCHAR dotlessi
ENCODING 253
SWIDTH 278 0
DWIDTH 7 0
BBX 2 13 2 0
BITMAP
C0
C0
C0
C0
C0
C0
C0
C0
C0
C0
C0
C0
C0
ENDCHAR

STARTCHAR scedilla
ENCODING 254
SWIDTH 500 0
DWIDTH 13 0
BBX 10 18 1 -4
BITMAP
3E00
7F80
E180
C0C0
E000
F800
7F00
1F80
01C0
C0C0
C0C0
E1C0
7F80
3F00
0C00
0700
0300
1E00
ENDCHAR

STARTCHAR ydieresis
ENCODING 255
SWIDTH 500 0
DWIDTH 13 0
BBX 13 23 0 -5
BITMAP
18C0
18C0
18C0
0000
0000
E038
6030
7030
3060
3060
38E0
18C0
1CC0
0D80
0D80
0F80
0700
0700
0600
0600
0E00
7C00
7800
ENDCHAR

ENDFONT
