STARTFONT 2.1
FONT -Monotype-Arial Narrow-Regular-I-Normal--33-240-100-100-P-133-iso8859-2
SIZE 24 100 100
FONTBOUNDINGBOX 36 38 -7 -7

STARTPROPERTIES 24
FOUNDRY "Monotype"
FAMILY_NAME "Arial Narrow"
WEIGHT_NAME "Regular"
SLANT "I"
SETWIDTH_NAME "Normal"
ADD_STYLE_NAME ""
PIXEL_SIZE 33
POINT_SIZE 240
RESOLUTION_X 100
RESOLUTION_Y 100
SPACING "P"
AVERAGE_WIDTH 133
CHARSET_REGISTRY "iso8859"
CHARSET_ENCODING "2"
FACE_NAME "Arial Narrow Italic ISO Latin2"
_DEC_DEVICE_FONTNAMES "PS=arialnarrow-it-lat2"
COPYRIGHT "Copyright (c) 1993 Monotype Typography Ltd."
CAP_HEIGHT 27
X_HEIGHT 19
WEIGHT 10
QUAD_WIDTH 16
DEFAULT_CHAR 160
FONT_DESCENT 7
FONT_ASCENT 31
ENDPROPERTIES

CHARS 191

STARTCHAR space
ENCODING 32
SWIDTH 228 0
DWIDTH 8 0
BBX 0 0 0 0
BITMAP
ENDCHAR

STARTCHAR exclam
ENCODING 33
SWIDTH 228 0
DWIDTH 8 0
BBX 7 24 1 0
BITMAP
0E
0E
0E
0E
0C
1C
1C
1C
1C
18
18
18
18
30
30
30
30
30
00
00
00
70
60
E0
ENDCHAR

STARTCHAR quotedbl
ENCODING 34
SWIDTH 291 0
DWIDTH 10 0
BBX 7 9 4 15
BITMAP
E6
E6
EE
CE
CE
CC
CC
8C
88
ENDCHAR

STARTCHAR numbersign
ENCODING 35
SWIDTH 456 0
DWIDTH 15 0
BBX 15 24 1 0
BITMAP
070C
0618
0618
0618
0618
0618
0C18
FFFE
FFFE
0C30
0C30
0C30
1830
1860
1860
FFFE
FFFE
1860
3040
30C0
30C0
30C0
30C0
70C0
ENDCHAR

STARTCHAR dollar
ENCODING 36
SWIDTH 456 0
DWIDTH 15 0
BBX 13 29 2 -3
BITMAP
00C0
0080
07E0
0FF0
1CB8
38B8
3198
3118
3100
3100
3900
1D00
1F00
0F80
03C0
02E0
0270
0230
0630
C430
C430
E470
E460
75E0
3FC0
1F80
0800
0800
0800
ENDCHAR

STARTCHAR percent
ENCODING 37
SWIDTH 729 0
DWIDTH 24 0
BBX 21 25 3 -1
BITMAP
1E0060
3F00C0
730180
638180
E18300
C38700
C30600
C30C00
C31C00
C71800
7E3000
387000
0061E0
00C3F0
00C730
018638
030E18
030C38
060C30
0E0C30
0C0C70
180C60
3807E0
3003C0
600000
ENDCHAR

STARTCHAR ampersand
ENCODING 38
SWIDTH 547 0
DWIDTH 18 0
BBX 16 25 2 -1
BITMAP
01E0
03F0
0738
0E18
0E18
0E18
0E38
0E70
06F0
07E0
0F00
1F80
3D80
79C0
F1C4
E0E7
C0EE
C07E
C07C
E038
E07C
70FC
7FEE
3FCE
0F04
ENDCHAR

STARTCHAR quoteright
ENCODING 39
SWIDTH 182 0
DWIDTH 6 0
BBX 5 8 3 16
BITMAP
38
30
70
10
30
20
60
80
ENDCHAR

STARTCHAR parenleft
ENCODING 40
SWIDTH 273 0
DWIDTH 9 0
BBX 9 31 2 -7
BITMAP
0180
0300
0600
0600
0C00
1C00
1800
3800
3000
3000
7000
6000
6000
E000
E000
E000
C000
C000
C000
C000
C000
C000
C000
C000
E000
E000
6000
6000
6000
6000
3000
ENDCHAR

STARTCHAR parenright
ENCODING 41
SWIDTH 273 0
DWIDTH 9 0
BBX 9 31 -2 -7
BITMAP
0600
0300
0300
0300
0300
0380
0180
0180
0180
0180
0180
0180
0180
0180
0180
0380
0380
0380
0300
0300
0700
0600
0600
0E00
0C00
1C00
1800
3000
3000
6000
C000
ENDCHAR

STARTCHAR asterisk
ENCODING 42
SWIDTH 319 0
DWIDTH 11 0
BBX 9 10 3 14
BITMAP
0C00
0800
0800
6B80
FF80
3E00
1C00
3600
7700
2200
ENDCHAR

STARTCHAR plus
ENCODING 43
SWIDTH 479 0
DWIDTH 16 0
BBX 12 15 3 4
BITMAP
0600
0600
0600
0600
0600
0600
FFF0
FFF0
FFF0
0600
0600
0600
0600
0600
0600
ENDCHAR

STARTCHAR comma
ENCODING 44
SWIDTH 228 0
DWIDTH 8 0
BBX 4 8 1 -5
BITMAP
70
60
E0
20
20
40
C0
80
ENDCHAR

STARTCHAR minus
ENCODING 45
SWIDTH 479 0
DWIDTH 16 0
BBX 12 3 3 10
BITMAP
FFF0
FFF0
FFF0
ENDCHAR

STARTCHAR period
ENCODING 46
SWIDTH 228 0
DWIDTH 8 0
BBX 3 3 2 0
BITMAP
E0
C0
C0
ENDCHAR

STARTCHAR slash
ENCODING 47
SWIDTH 228 0
DWIDTH 8 0
BBX 12 25 -1 -1
BITMAP
0030
0070
0060
0060
00C0
00C0
0180
0180
0180
0300
0300
0600
0600
0C00
0C00
0C00
1800
1800
3000
3000
7000
6000
6000
C000
C000
ENDCHAR

STARTCHAR zero
ENCODING 48
SWIDTH 456 0
DWIDTH 15 0
BBX 13 24 2 0
BITMAP
03C0
0FE0
1E70
1C38
3818
3018
3018
7018
6018
6018
E018
E018
E038
C038
C030
C030
C070
C060
C060
E0E0
61C0
73C0
3F80
1E00
ENDCHAR

STARTCHAR one
ENCODING 49
SWIDTH 456 0
DWIDTH 15 0
BBX 9 24 4 0
BITMAP
0180
0180
0380
0700
0F00
3F00
FB00
F700
C700
0600
0600
0600
0E00
0E00
0E00
0C00
0C00
0C00
1C00
1C00
1C00
1800
1800
1800
ENDCHAR

STARTCHAR two
ENCODING 50
SWIDTH 456 0
DWIDTH 15 0
BBX 13 24 2 0
BITMAP
07C0
1FF0
1C70
3838
3018
3018
7018
0018
0038
0030
0070
00E0
01E0
03C0
0780
0F00
1E00
3C00
3800
7000
E000
FFF0
FFE0
FFE0
ENDCHAR

STARTCHAR three
ENCODING 51
SWIDTH 456 0
DWIDTH 15 0
BBX 13 24 2 0
BITMAP
07E0
0FF0
1C70
3838
3818
3018
0018
0018
0038
00F0
03C0
03E0
00E0
0070
0070
0030
0030
C030
C070
E070
E0E0
71C0
3F80
1F00
ENDCHAR

STARTCHAR four
ENCODING 52
SWIDTH 456 0
DWIDTH 15 0
BBX 14 24 1 0
BITMAP
001C
0018
0038
0078
00F8
00D8
01B0
03B0
0730
0630
0E70
1C70
1860
3060
6060
7FFC
7FFC
FFF8
00C0
00C0
00C0
00C0
01C0
01C0
ENDCHAR

STARTCHAR five
ENCODING 53
SWIDTH 456 0
DWIDTH 15 0
BBX 13 23 2 0
BITMAP
0FF8
1FF8
1FF8
1800
1800
1800
3000
3380
37C0
3FE0
7070
6070
0030
0030
0030
0030
C030
C070
E060
E0E0
71C0
7F80
1F00
ENDCHAR

STARTCHAR six
ENCODING 54
SWIDTH 456 0
DWIDTH 15 0
BBX 13 24 2 0
BITMAP
07E0
0FF0
1E70
1C38
3818
3018
7000
7000
6780
7FE0
F8E0
F070
E070
E030
E030
C030
C030
C030
C070
E060
60E0
71C0
3F80
1F00
ENDCHAR

STARTCHAR seven
ENCODING 55
SWIDTH 456 0
DWIDTH 15 0
BBX 13 23 3 0
BITMAP
7FF8
7FF8
FFB8
0070
0060
00E0
01C0
0180
0380
0300
0700
0600
0E00
0C00
1C00
1800
1800
3800
3000
3000
7000
7000
7000
ENDCHAR

STARTCHAR eight
ENCODING 56
SWIDTH 456 0
DWIDTH 15 0
BBX 13 24 2 0
BITMAP
07C0
0FF0
1E70
3838
3818
3018
3018
3038
3838
1C70
0FE0
3FC0
78E0
7070
E030
E030
C030
C030
C070
E070
E0E0
71C0
3FC0
1F00
ENDCHAR

STARTCHAR nine
ENCODING 57
SWIDTH 456 0
DWIDTH 15 0
BBX 13 24 2 0
BITMAP
07C0
0FE0
1C70
3830
3038
7018
7018
6018
6018
6018
6038
7038
7078
38F8
1FD8
0F30
0070
0070
C060
E0E0
E1C0
73C0
7F80
3E00
ENDCHAR

STARTCHAR colon
ENCODING 58
SWIDTH 228 0
DWIDTH 8 0
BBX 5 17 2 0
BITMAP
38
38
38
00
00
00
00
00
00
00
00
00
00
00
E0
C0
C0
ENDCHAR

STARTCHAR semicolon
ENCODING 59
SWIDTH 228 0
DWIDTH 8 0
BBX 6 22 1 -5
BITMAP
1C
1C
1C
00
00
00
00
00
00
00
00
00
00
00
70
60
E0
20
20
40
C0
80
ENDCHAR

STARTCHAR less
ENCODING 60
SWIDTH 479 0
DWIDTH 16 0
BBX 12 16 3 4
BITMAP
0010
0030
00F0
03F0
0FC0
3F00
FC00
D000
E000
F800
7E00
1F80
07E0
01F0
0070
0010
ENDCHAR

STARTCHAR equal
ENCODING 61
SWIDTH 479 0
DWIDTH 16 0
BBX 12 10 3 7
BITMAP
FFF0
FFF0
FFF0
0000
0000
0000
0000
FFF0
FFF0
FFF0
ENDCHAR

STARTCHAR greater
ENCODING 62
SWIDTH 479 0
DWIDTH 16 0
BBX 12 16 3 4
BITMAP
8000
C000
F000
FC00
3F00
0FC0
03F0
00B0
0070
01F0
07E0
1F80
7E00
F800
E000
8000
ENDCHAR

STARTCHAR question
ENCODING 63
SWIDTH 456 0
DWIDTH 15 0
BBX 11 24 4 0
BITMAP
1F00
3FC0
71C0
E0E0
E060
C060
C060
00E0
00C0
01C0
0380
0700
0E00
1C00
1800
3800
3000
3000
0000
0000
0000
7000
7000
6000
ENDCHAR

STARTCHAR at
ENCODING 64
SWIDTH 832 0
DWIDTH 27 0
BBX 25 31 2 -7
BITMAP
007F8000
01FFE000
07C1F000
0F007800
0E001C00
1C000C00
38000E00
307CC600
30FEC700
61E6C300
6183C300
6383C300
C3018300
C7018300
C7018300
C6018300
C6038700
C6038600
C6030E00
C7070C00
C70F1C00
639FB800
61FBF000
70F3E000
30000380
38000700
1C000E00
0E003C00
07C1F800
03FFF000
007FC000
ENDCHAR

STARTCHAR A
ENCODING 65
SWIDTH 547 0
DWIDTH 18 0
BBX 17 24 0 0
BITMAP
003C00
003C00
007C00
006C00
00EC00
00EC00
01CC00
01CE00
018E00
038E00
030E00
070600
070600
0E0600
0E0600
1FFF00
1FFF00
380700
380700
700300
700300
600300
E00380
C00380
ENDCHAR

STARTCHAR B
ENCODING 66
SWIDTH 547 0
DWIDTH 18 0
BBX 17 24 1 0
BITMAP
0FF800
0FFE00
1FFF00
1C0700
1C0380
180380
180380
380300
380700
380E00
3FFC00
3FF800
3FFE00
700F00
700700
700700
700700
600700
600700
E00F00
E01E00
FFFC00
FFF800
FFE000
ENDCHAR

STARTCHAR C
ENCODING 67
SWIDTH 592 0
DWIDTH 20 0
BBX 18 24 2 0
BITMAP
00F800
03FE00
07FF00
0F0700
1C0380
380180
3801C0
700100
700000
600000
600000
E00000
E00000
E00000
E00000
E00200
E00380
600700
700700
700E00
3C1C00
1FF800
0FF000
03C000
ENDCHAR

STARTCHAR D
ENCODING 68
SWIDTH 592 0
DWIDTH 20 0
BBX 18 24 2 0
BITMAP
0FF800
0FFE00
1FFF00
1C0700
1C0380
180380
1801C0
1801C0
3801C0
3801C0
3801C0
3001C0
3001C0
3001C0
700380
700380
700380
600700
600F00
E00E00
E03C00
FFF800
FFF000
FFC000
ENDCHAR

STARTCHAR E
ENCODING 69
SWIDTH 547 0
DWIDTH 18 0
BBX 18 24 1 0
BITMAP
0FFFC0
0FFFC0
0FFFC0
0C0000
0C0000
1C0000
1C0000
1C0000
180000
180000
3FFF00
3FFF00
3FFF00
380000
300000
300000
700000
700000
700000
700000
600000
7FFE00
FFFE00
FFFE00
ENDCHAR

STARTCHAR F
ENCODING 70
SWIDTH 501 0
DWIDTH 17 0
BBX 17 24 1 0
BITMAP
0FFF80
0FFF80
0FFF00
0C0000
1C0000
1C0000
1C0000
1C0000
180000
180000
3FFE00
3FFE00
3FFE00
300000
300000
300000
700000
700000
700000
600000
600000
600000
E00000
E00000
ENDCHAR

STARTCHAR G
ENCODING 71
SWIDTH 638 0
DWIDTH 21 0
BBX 18 24 2 0
BITMAP
00F800
03FE00
07FF00
0F0780
1E03C0
3C01C0
3801C0
3000C0
700000
700000
600000
E00000
E07FC0
E07F80
E07D80
E00380
E00380
600380
700300
700700
380F00
1FFE00
0FFC00
03E000
ENDCHAR

STARTCHAR H
ENCODING 72
SWIDTH 592 0
DWIDTH 20 0
BBX 19 24 1 0
BITMAP
0E0060
0E0060
0C00E0
0C00E0
0C00E0
1C00E0
1C00C0
1C00C0
1801C0
1801C0
3FFFC0
3FFFC0
3FFF80
380180
300380
300380
700380
700300
700300
700300
600700
600700
E00700
E00600
ENDCHAR

STARTCHAR I
ENCODING 73
SWIDTH 228 0
DWIDTH 8 0
BBX 6 24 2 0
BITMAP
0C
1C
1C
1C
18
18
38
38
38
38
30
30
70
70
70
70
60
60
E0
E0
E0
C0
C0
C0
ENDCHAR

STARTCHAR J
ENCODING 74
SWIDTH 410 0
DWIDTH 14 0
BBX 13 24 1 0
BITMAP
0018
0018
0038
0038
0038
0030
0030
0030
0070
0070
0070
0060
0060
00E0
00E0
00E0
40E0
C0C0
C0C0
C1C0
E1C0
FF80
7F00
1C00
ENDCHAR

STARTCHAR K
ENCODING 75
SWIDTH 547 0
DWIDTH 18 0
BBX 19 24 1 0
BITMAP
0E01E0
0E03C0
0C0780
0C0F00
0C1E00
1C3C00
1C3800
1C7000
18E000
19C000
3BC000
3BE000
3F6000
3E7000
3C7000
383800
703800
701C00
701C00
700E00
600E00
600700
E00700
E00380
ENDCHAR

STARTCHAR L
ENCODING 76
SWIDTH 456 0
DWIDTH 15 0
BBX 13 24 1 0
BITMAP
0E00
0E00
0C00
0C00
1C00
1C00
1C00
1C00
1800
1800
3800
3800
3800
3800
3000
3000
7000
7000
7000
7000
6000
7FF8
FFF8
FFF8
ENDCHAR

STARTCHAR M
ENCODING 77
SWIDTH 683 0
DWIDTH 23 0
BBX 23 24 1 0
BITMAP
0F001E
0F001C
0F003C
0F003C
0F0064
1D007C
1D00EC
1D00D8
1B81D8
1B8198
3981B8
3983B8
398338
398730
318630
318E70
71CC70
71DC70
70D860
60D860
60D060
60F0E0
E0E0E0
E0E0E0
ENDCHAR

STARTCHAR N
ENCODING 78
SWIDTH 592 0
DWIDTH 20 0
BBX 20 24 1 0
BITMAP
0E0070
0E0060
0F0060
0F00E0
0D80E0
0D80E0
1D80C0
1DC0C0
1CC0C0
18C1C0
18E1C0
3861C0
387180
387180
383180
303B80
303B80
701B80
701B00
701D00
600F00
600F00
600F00
E00700
ENDCHAR

STARTCHAR O
ENCODING 79
SWIDTH 638 0
DWIDTH 21 0
BBX 19 24 2 0
BITMAP
00F800
03FE00
07FF00
0F0780
1C03C0
3801C0
3800C0
7000E0
7000E0
6000E0
6000E0
E000E0
E000E0
E000E0
E000C0
E001C0
6001C0
700380
700380
380700
3C1E00
1FFC00
0FF800
03E000
ENDCHAR

STARTCHAR P
ENCODING 80
SWIDTH 547 0
DWIDTH 18 0
BBX 18 24 1 0
BITMAP
0FFE00
0FFF00
0FFF80
0C0380
1C01C0
1C01C0
1C01C0
1801C0
180180
180380
380780
3FFF00
3FFE00
3FF000
300000
700000
700000
700000
700000
600000
600000
E00000
E00000
E00000
ENDCHAR

STARTCHAR Q
ENCODING 81
SWIDTH 638 0
DWIDTH 21 0
BBX 19 26 2 -2
BITMAP
00F800
03FE00
07FF00
0F0780
1C03C0
3801C0
3800C0
7000E0
7000E0
6000E0
6000E0
E000E0
E000E0
E000C0
E000C0
E001C0
6001C0
706380
70F380
383B00
3C1E00
1FFC00
0FFE00
03E700
000380
000100
ENDCHAR

STARTCHAR R
ENCODING 82
SWIDTH 592 0
DWIDTH 20 0
BBX 19 24 1 0
BITMAP
0FFE00
0FFF80
0FFFC0
0C01C0
0C00E0
1C00E0
1C00E0
1C00E0
1800C0
1801C0
3803C0
3FFF80
3FFE00
3FF000
303800
301C00
700C00
700E00
700600
700700
600700
600300
E00380
E00380
ENDCHAR

STARTCHAR S
ENCODING 83
SWIDTH 547 0
DWIDTH 18 0
BBX 16 24 2 0
BITMAP
03F0
07FC
1FFE
1C0E
3807
3807
3807
3800
1C00
1E00
0F80
07E0
01F8
007C
001C
000E
C00E
C00E
E00E
E01C
703C
7FF8
1FF0
07C0
ENDCHAR

STARTCHAR T
ENCODING 84
SWIDTH 501 0
DWIDTH 17 0
BBX 16 24 3 0
BITMAP
7FFF
7FFF
FFFF
0180
0380
0380
0380
0300
0300
0300
0700
0700
0700
0600
0600
0E00
0E00
0E00
0E00
0C00
0C00
1C00
1C00
1C00
ENDCHAR

STARTCHAR U
ENCODING 85
SWIDTH 592 0
DWIDTH 20 0
BBX 18 24 2 0
BITMAP
1C01C0
1801C0
1801C0
380180
380180
380380
300380
300380
300380
700300
700300
700700
600700
600700
600700
E00600
E00E00
E00E00
E00C00
701C00
783800
3FF800
1FE000
078000
ENDCHAR

STARTCHAR V
ENCODING 86
SWIDTH 547 0
DWIDTH 18 0
BBX 18 24 3 0
BITMAP
E001C0
600380
600300
600700
700700
700E00
700E00
300C00
301C00
301800
383800
383000
387000
387000
18E000
18E000
18C000
1DC000
1D8000
1D8000
0F0000
0F0000
0E0000
0E0000
ENDCHAR

STARTCHAR W
ENCODING 87
SWIDTH 774 0
DWIDTH 26 0
BBX 26 24 3 0
BITMAP
E00C01C0
E01E0380
E01E0380
E03E0300
603E0700
60760600
60760E00
606E0E00
60EE0C00
60CE1C00
61CE1800
61CE3800
63863000
63867000
73067000
77066000
7606E000
7606C000
7606C000
7C06C000
7C078000
78078000
78070000
70070000
ENDCHAR

STARTCHAR X
ENCODING 88
SWIDTH 547 0
DWIDTH 18 0
BBX 22 24 -1 0
BITMAP
0E003C
060078
070070
0700E0
0381E0
0383C0
01C780
01C700
00EE00
00EE00
007C00
007000
007800
00F800
01E800
01DC00
038C00
070E00
0F0600
1E0700
1C0700
380380
780380
F001C0
ENDCHAR

STARTCHAR Y
ENCODING 89
SWIDTH 547 0
DWIDTH 18 0
BBX 18 24 3 0
BITMAP
E001C0
700380
700780
300700
380E00
381E00
1C1C00
1C3800
0C7800
0E7000
0EE000
076000
07C000
03C000
038000
038000
030000
030000
070000
070000
070000
070000
060000
060000
ENDCHAR

STARTCHAR Z
ENCODING 90
SWIDTH 501 0
DWIDTH 17 0
BBX 16 24 1 0
BITMAP
1FFF
1FFF
3FF7
000E
001E
001C
0038
0078
0070
00E0
01E0
01C0
0380
0700
0700
0E00
1C00
3C00
3800
7000
E000
FFFC
FFFC
FFFC
ENDCHAR

STARTCHAR bracketleft
ENCODING 91
SWIDTH 228 0
DWIDTH 8 0
BBX 11 30 0 -6
BITMAP
07E0
07C0
0600
0600
0E00
0E00
0E00
0C00
0C00
0C00
1C00
1C00
1800
1800
1800
1800
3800
3800
3000
3000
3000
3000
7000
7000
6000
6000
6000
6000
FC00
F800
ENDCHAR

STARTCHAR backslash
ENCODING 92
SWIDTH 228 0
DWIDTH 8 0
BBX 5 25 2 -1
BITMAP
C0
C0
60
60
60
60
60
60
60
20
30
30
30
30
30
30
30
10
18
18
18
18
18
18
08
ENDCHAR

STARTCHAR bracketright
ENCODING 93
SWIDTH 228 0
DWIDTH 8 0
BBX 11 30 -2 -6
BITMAP
07E0
07E0
00C0
00C0
00C0
01C0
01C0
01C0
0180
0180
0180
0380
0380
0380
0300
0300
0300
0700
0700
0600
0600
0600
0600
0E00
0E00
0C00
0C00
0C00
7C00
FC00
ENDCHAR

STARTCHAR asciicircum
ENCODING 94
SWIDTH 385 0
DWIDTH 13 0
BBX 11 13 2 11
BITMAP
0C00
0E00
0E00
1B00
1B00
3B00
3380
3180
7180
61C0
60C0
E0C0
C0E0
ENDCHAR

STARTCHAR underscore
ENCODING 95
SWIDTH 456 0
DWIDTH 15 0
BBX 17 2 -1 -4
BITMAP
FFFF80
FFFF80
ENDCHAR

STARTCHAR quoteleft
ENCODING 96
SWIDTH 182 0
DWIDTH 6 0
BBX 4 8 4 16
BITMAP
30
60
40
C0
80
E0
E0
C0
ENDCHAR

STARTCHAR a
ENCODING 97
SWIDTH 456 0
DWIDTH 15 0
BBX 13 17 1 0
BITMAP
07E0
1FF0
3C38
3818
7018
0018
0038
1FF8
3FD8
7030
E030
C070
C070
E0F0
F1F0
7F70
3E70
ENDCHAR

STARTCHAR b
ENCODING 98
SWIDTH 456 0
DWIDTH 15 0
BBX 13 24 1 0
BITMAP
0C00
1C00
1C00
1800
1800
1800
1800
3BE0
3BF0
3E70
3838
3818
7018
7018
7018
6018
6038
6038
E030
E070
F070
D9E0
DFC0
CF80
ENDCHAR

STARTCHAR c
ENCODING 99
SWIDTH 410 0
DWIDTH 14 0
BBX 12 17 2 0
BITMAP
0FC0
1FE0
3CF0
7070
7030
6000
E000
E000
C000
C000
C000
C060
C0E0
E1C0
73C0
7F80
1F00
ENDCHAR

STARTCHAR d
ENCODING 100
SWIDTH 456 0
DWIDTH 15 0
BBX 15 24 2 0
BITMAP
000E
000C
000C
000C
001C
001C
0018
0F98
1FD8
38D8
3078
7038
6030
E030
E030
C030
C030
C070
C060
E0E0
E0E0
73A0
7F60
3EE0
ENDCHAR

STARTCHAR e
ENCODING 101
SWIDTH 456 0
DWIDTH 15 0
BBX 13 17 2 0
BITMAP
07C0
1FF0
3C70
3038
7018
6018
E018
FFF8
FFF8
C000
C000
C030
E070
E0E0
71E0
3FC0
1F00
ENDCHAR

STARTCHAR f
ENCODING 102
SWIDTH 228 0
DWIDTH 8 0
BBX 10 24 1 0
BITMAP
0780
0FC0
0FC0
0C00
0C00
1C00
1C00
7F00
7F00
1800
1800
3800
3800
3000
3000
3000
7000
7000
7000
6000
6000
6000
E000
E000
ENDCHAR

STARTCHAR g
ENCODING 103
SWIDTH 456 0
DWIDTH 15 0
BBX 15 24 1 -7
BITMAP
07CE
0FEE
1E74
383C
381C
301C
701C
7018
6018
6018
6018
6038
7038
7070
39F0
3FB0
0F70
0070
0070
E060
E0E0
F1C0
7FC0
3F00
ENDCHAR

STARTCHAR h
ENCODING 104
SWIDTH 456 0
DWIDTH 15 0
BBX 13 24 1 0
BITMAP
0C00
0C00
1C00
1C00
1C00
1800
1800
19F0
3BF8
3A38
3C18
3818
3818
3038
7038
7038
7030
6030
6030
6070
E070
E060
C060
C060
ENDCHAR

STARTCHAR i
ENCODING 105
SWIDTH 182 0
DWIDTH 6 0
BBX 6 24 1 0
BITMAP
0C
0C
1C
00
00
00
00
18
18
38
38
30
30
30
30
70
70
60
60
60
E0
E0
C0
C0
ENDCHAR

STARTCHAR j
ENCODING 106
SWIDTH 182 0
DWIDTH 6 0
BBX 10 31 -3 -7
BITMAP
00C0
00C0
01C0
0000
0000
0000
0000
0180
0180
0380
0380
0300
0300
0300
0300
0700
0700
0600
0600
0600
0E00
0E00
0E00
0C00
0C00
0C00
1C00
1C00
F800
F800
E000
ENDCHAR

STARTCHAR k
ENCODING 107
SWIDTH 410 0
DWIDTH 14 0
BBX 14 24 1 0
BITMAP
0C00
0C00
0C00
1C00
1C00
1800
1800
183C
1838
3870
38E0
31C0
3380
3700
3700
7D80
7980
7180
61C0
60C0
E0E0
E0E0
E060
C070
ENDCHAR

STARTCHAR l
ENCODING 108
SWIDTH 182 0
DWIDTH 6 0
BBX 6 24 1 0
BITMAP
0C
0C
1C
1C
18
18
18
18
38
38
30
30
30
30
70
70
60
60
60
60
E0
E0
C0
C0
ENDCHAR

STARTCHAR m
ENCODING 109
SWIDTH 683 0
DWIDTH 23 0
BBX 21 17 1 0
BITMAP
19F1F0
1BFBF8
1A3B38
3C1C18
383818
383818
303838
303038
303030
703030
707030
607030
606070
606070
E06060
E06060
E0E060
ENDCHAR

STARTCHAR n
ENCODING 110
SWIDTH 456 0
DWIDTH 15 0
BBX 13 17 1 0
BITMAP
19F0
1BF8
3A38
3C18
3818
3818
3018
7038
7038
7030
6030
6030
6070
E070
E060
C060
C060
ENDCHAR

STARTCHAR o
ENCODING 111
SWIDTH 456 0
DWIDTH 15 0
BBX 13 17 2 0
BITMAP
07C0
1FF0
3C70
3038
7038
6018
E018
C018
C018
C038
C038
C030
E070
E0F0
71E0
3FC0
1F00
ENDCHAR

STARTCHAR p
ENCODING 112
SWIDTH 456 0
DWIDTH 15 0
BBX 15 23 -1 -6
BITMAP
0EF8
0DFC
0D1C
0E0E
0E06
0C06
1C06
1806
1806
180E
180E
180C
381C
3C18
3678
37F0
33E0
7000
7000
7000
6000
6000
E000
ENDCHAR

STARTCHAR q
ENCODING 113
SWIDTH 456 0
DWIDTH 15 0
BBX 13 23 2 -6
BITMAP
0F98
1FD8
38D8
7078
7038
6030
E030
E030
C030
C030
C070
C060
E0E0
E0E0
73E0
7F60
3EE0
00C0
00C0
00C0
01C0
01C0
0180
ENDCHAR

STARTCHAR r
ENCODING 114
SWIDTH 273 0
DWIDTH 9 0
BBX 10 17 1 0
BITMAP
19C0
1BC0
3BC0
3400
3800
3800
3000
3000
7000
7000
6000
6000
6000
E000
E000
C000
C000
ENDCHAR

STARTCHAR s
ENCODING 115
SWIDTH 410 0
DWIDTH 14 0
BBX 12 17 1 0
BITMAP
0FC0
1FE0
38F0
3070
3030
3800
3C00
1F00
0FC0
03C0
00E0
C060
E060
E060
71E0
7FC0
1F00
ENDCHAR

STARTCHAR t
ENCODING 116
SWIDTH 228 0
DWIDTH 8 0
BBX 7 23 1 0
BITMAP
04
0C
1C
1C
18
18
7E
FE
38
30
30
30
30
70
70
60
60
60
60
E0
E0
F8
78
ENDCHAR

STARTCHAR u
ENCODING 117
SWIDTH 456 0
DWIDTH 15 0
BBX 13 17 2 0
BITMAP
3018
3018
3038
7038
7030
6030
6030
6070
E070
E070
E060
C0E0
C0E0
C160
E360
FEC0
7CC0
ENDCHAR

STARTCHAR v
ENCODING 118
SWIDTH 410 0
DWIDTH 14 0
BBX 13 17 2 0
BITMAP
E038
E038
E030
6070
6060
60E0
60C0
61C0
7180
7380
3300
3700
3600
3E00
3C00
3C00
3800
ENDCHAR

STARTCHAR w
ENCODING 119
SWIDTH 592 0
DWIDTH 20 0
BBX 19 17 2 0
BITMAP
E0E060
E0E0E0
E1E0C0
E1E1C0
61A180
636180
636300
636300
666700
666600
6E6600
6C7400
6C3400
683C00
783800
383800
303000
ENDCHAR

STARTCHAR x
ENCODING 120
SWIDTH 410 0
DWIDTH 14 0
BBX 15 17 0 0
BITMAP
181E
1C1C
0C38
0E70
0E70
06E0
07C0
0380
0380
0780
0FC0
0EC0
1CC0
38E0
3860
7070
E070
ENDCHAR

STARTCHAR y
ENCODING 121
SWIDTH 410 0
DWIDTH 14 0
BBX 15 24 0 -7
BITMAP
1806
180E
180C
181C
1818
1C38
1C30
0C70
0C60
0CE0
0CC0
0DC0
0D80
0F80
0F80
0700
0700
0600
0E00
0C00
1C00
F800
F000
E000
ENDCHAR

STARTCHAR z
ENCODING 122
SWIDTH 410 0
DWIDTH 14 0
BBX 13 17 1 0
BITMAP
3FF8
3FF8
0070
00E0
01E0
01C0
0380
0700
0F00
0E00
1C00
3C00
3800
7000
E000
FFE0
FFE0
ENDCHAR

STARTCHAR braceleft
ENCODING 123
SWIDTH 274 0
DWIDTH 9 0
BBX 10 31 2 -7
BITMAP
00C0
03C0
03C0
0700
0600
0600
0E00
0C00
0C00
0C00
0C00
1C00
1800
3800
F000
C000
E000
7000
3000
3000
3000
3000
3000
7000
6000
6000
6000
6000
7800
7800
1800
ENDCHAR

STARTCHAR bar
ENCODING 124
SWIDTH 213 0
DWIDTH 7 0
BBX 2 31 4 -7
BITMAP
C0
C0
C0
C0
C0
C0
C0
C0
C0
C0
C0
C0
C0
C0
C0
C0
C0
C0
C0
C0
C0
C0
C0
C0
C0
C0
C0
C0
C0
C0
C0
ENDCHAR

STARTCHAR braceright
ENCODING 125
SWIDTH 274 0
DWIDTH 9 0
BBX 10 31 -2 -7
BITMAP
0700
0780
0780
0180
0180
0180
0180
0380
0300
0300
0300
0300
0300
0380
01C0
00C0
03C0
0700
0600
0600
0C00
0C00
0C00
0C00
1C00
1800
1800
3800
F000
F000
C000
ENDCHAR

STARTCHAR asciitilde
ENCODING 126
SWIDTH 479 0
DWIDTH 16 0
BBX 14 5 2 9
BITMAP
3C04
FF0C
FFFC
C3F8
80F0
ENDCHAR

STARTCHAR space
ENCODING 160
SWIDTH 228 0
DWIDTH 9 0
BBX 0 0 0 0
BITMAP
ENDCHAR

STARTCHAR Aogonek
ENCODING 161
SWIDTH 547 0
DWIDTH 18 0
BBX 20 31 -1 -7
BITMAP
001C00
001C00
003E00
003E00
007600
006600
00E600
00E600
01C600
01C700
038700
038700
030700
070300
060300
0FFF00
0FFF80
1C0380
1C0380
380380
380380
700180
700180
E001C0
000100
000100
000300
000300
000390
0003E0
0001E0
ENDCHAR

STARTCHAR breve
ENCODING 162
SWIDTH 273 0
DWIDTH 9 0
BBX 8 4 3 19
BITMAP
C3
C6
7C
38
ENDCHAR

STARTCHAR Lslash
ENCODING 163
SWIDTH 456 0
DWIDTH 15 0
BBX 14 24 0 0
BITMAP
0700
0700
0600
0600
0E00
0E00
0E00
0E40
0D80
0F80
1F00
1E00
3C00
7C00
5800
9800
3800
3800
3800
3800
3000
3FFC
7FFC
7FFC
ENDCHAR

STARTCHAR currency
ENCODING 164
SWIDTH 456 0
DWIDTH 15 0
BBX 13 16 2 4
BITMAP
4010
E738
FFF8
7FF0
38E0
7070
6030
6030
6030
6030
7070
38E0
7FF0
FFF8
E738
4010
ENDCHAR

STARTCHAR Lcaron
ENCODING 165
SWIDTH 456 0
DWIDTH 15 0
BBX 14 24 1 0
BITMAP
0E1C
0E1C
0C1C
0C0C
1C08
1C08
1C10
1C20
1800
1800
3800
3800
3800
3800
3000
3000
7000
7000
7000
7000
6000
7FF8
FFF8
FFF8
ENDCHAR

STARTCHAR Sacute
ENCODING 166
SWIDTH 547 0
DWIDTH 18 0
BBX 16 30 2 0
BITMAP
003C
0038
0070
0060
00C0
0000
01E0
07FC
0FFE
1C0E
1807
3807
3803
3800
1C00
1E00
0F80
07E0
01F8
007C
001C
000E
C00E
C00E
E00E
E01C
703C
7FF8
1FF0
07C0
ENDCHAR

STARTCHAR section
ENCODING 167
SWIDTH 456 0
DWIDTH 15 0
BBX 14 31 1 -7
BITMAP
03F0
07F8
0F38
0E1C
0C1C
0C18
0E00
0E00
0700
1F80
3BC0
31E0
60F0
6070
6038
7018
7018
3C18
1E18
0F30
07B0
03E0
01C0
00E0
0060
C060
C060
E0E0
71C0
3FC0
1F00
ENDCHAR

STARTCHAR dieresis
ENCODING 168
SWIDTH 273 0
DWIDTH 9 0
BBX 8 3 3 20
BITMAP
67
E7
E7
ENDCHAR

STARTCHAR Scaron
ENCODING 169
SWIDTH 547 0
DWIDTH 18 0
BBX 16 30 2 0
BITMAP
018E
019C
00D8
00F0
00F0
0000
01E0
07FC
0FFE
1C0E
1807
3807
3803
3800
1C00
1E00
0F80
07E0
01F8
007C
001C
000E
C00E
C00E
E00E
E01C
703C
7FF8
1FF0
07C0
ENDCHAR

STARTCHAR Scommaaccent
ENCODING 170
SWIDTH 547 0
DWIDTH 18 0
BBX 16 32 2 -7
BITMAP
01E0
07F8
0FFC
1E1E
1807
3807
3803
3803
1C00
1E00
0F00
07C0
03F0
00F8
003C
001C
400E
C00E
E00E
E00E
E01C
783C
3FF8
1FF0
07C0
0000
0300
0700
0600
0200
0400
0800
ENDCHAR

STARTCHAR Tcaron
ENCODING 171
SWIDTH 501 0
DWIDTH 17 0
BBX 16 30 3 0
BITMAP
031C
01B8
01B0
01E0
0000
0000
7FFF
7FFF
FFFF
0180
0380
0380
0380
0300
0300
0300
0700
0700
0700
0600
0600
0E00
0E00
0E00
0E00
0C00
0C00
1C00
1C00
1C00
ENDCHAR

STARTCHAR Zacute
ENCODING 172
SWIDTH 501 0
DWIDTH 17 0
BBX 16 30 1 0
BITMAP
0038
0030
0060
00E0
0000
0000
1FFF
1FFF
3FF7
000E
001E
001C
0038
0078
0070
00E0
01E0
01C0
0380
0700
0700
0E00
1C00
3C00
3800
7000
E000
FFFC
FFFC
FFFC
ENDCHAR

STARTCHAR hyphen
ENCODING 173
SWIDTH 273 0
DWIDTH 9 0
BBX 8 3 1 7
BITMAP
7F
FF
FF
ENDCHAR

STARTCHAR Zcaron
ENCODING 174
SWIDTH 501 0
DWIDTH 17 0
BBX 16 30 1 0
BITMAP
018E
01D8
00D8
00F0
0000
0000
1FFF
1FFF
3FF7
000E
001E
001C
0038
0078
0070
00E0
01E0
01C0
0380
0700
0700
0E00
1C00
3C00
3800
7000
E000
FFFC
FFFC
FFFC
ENDCHAR

STARTCHAR Zdotaccent
ENCODING 175
SWIDTH 501 0
DWIDTH 17 0
BBX 16 30 1 0
BITMAP
0070
0070
0070
0070
0000
0000
1FFF
1FFF
3FF7
000E
001E
001C
0038
0078
0070
00E0
01E0
01C0
0380
0700
0700
0E00
1C00
3C00
3800
7000
E000
FFFC
FFFC
FFFC
ENDCHAR

STARTCHAR degree
ENCODING 176
SWIDTH 328 0
DWIDTH 11 0
BBX 7 9 4 15
BITMAP
38
7C
C6
82
82
82
C6
7C
38
ENDCHAR

STARTCHAR aogonek
ENCODING 177
SWIDTH 456 0
DWIDTH 15 0
BBX 14 25 1 -7
BITMAP
03C0
0FF0
1FF8
3838
3018
7018
0018
00F8
3FF8
7FB8
F030
E030
C030
C070
E0F0
F1F0
7FB0
3E30
0020
0060
0060
0060
0064
007C
0038
ENDCHAR

STARTCHAR ogonek
ENCODING 178
SWIDTH 273 0
DWIDTH 9 0
BBX 6 8 1 -7
BITMAP
60
40
C0
C0
C0
E4
F8
78
ENDCHAR

STARTCHAR lslash
ENCODING 179
SWIDTH 182 0
DWIDTH 6 0
BBX 7 24 1 0
BITMAP
0C
0C
1C
1C
1C
18
18
18
3A
3E
3C
38
F0
B0
F0
70
70
60
60
60
E0
E0
C0
C0
ENDCHAR

STARTCHAR acute
ENCODING 180
SWIDTH 273 0
DWIDTH 9 0
BBX 5 5 5 19
BITMAP
38
70
60
C0
C0
ENDCHAR

STARTCHAR lcaron
ENCODING 181
SWIDTH 231 0
DWIDTH 8 0
BBX 10 24 1 0
BITMAP
0DC0
0DC0
1D80
1C80
1880
1980
1B00
1800
3800
3800
3000
3000
3000
3000
7000
7000
6000
6000
6000
E000
E000
E000
C000
C000
ENDCHAR

STARTCHAR sacute
ENCODING 182
SWIDTH 410 0
DWIDTH 14 0
BBX 12 24 1 0
BITMAP
00F0
00E0
01C0
0180
0300
0000
0000
0FC0
1FE0
3870
3070
3030
3800
3C00
1F00
0FC0
03E0
00E0
C060
C060
E060
71E0
7FC0
1F00
ENDCHAR

STARTCHAR caron
ENCODING 183
SWIDTH 273 0
DWIDTH 9 0
BBX 7 5 4 19
BITMAP
CE
CC
D8
78
70
ENDCHAR

STARTCHAR commaaccent
ENCODING 184
SWIDTH 333 0
DWIDTH 11 0
BBX 4 5 3 -7
BITMAP
30
70
20
20
C0
ENDCHAR

STARTCHAR scaron
ENCODING 185
SWIDTH 410 0
DWIDTH 14 0
BBX 13 24 1 0
BITMAP
0638
0770
0360
03C0
03C0
0000
0000
0FC0
1FE0
3870
3070
3030
3800
3C00
1F00
0FC0
03E0
00E0
C060
C060
E060
71E0
7FC0
1F00
ENDCHAR

STARTCHAR scommaaccent
ENCODING 186
SWIDTH 410 0
DWIDTH 14 0
BBX 12 24 1 -7
BITMAP
0FC0
1FE0
3870
3070
3030
3800
3C00
1F00
0FC0
03E0
00E0
C060
C060
E060
71E0
7FC0
1F00
0000
0000
0C00
0400
0C00
0800
1000
ENDCHAR

STARTCHAR tcaron
ENCODING 187
SWIDTH 290 0
DWIDTH 10 0
BBX 12 24 1 0
BITMAP
0070
0460
1C60
1C20
1820
1840
18C0
7E80
FE00
3800
3000
3000
3000
3000
7000
7000
6000
6000
6000
6000
E000
E000
F800
7800
ENDCHAR

STARTCHAR zacute
ENCODING 188
SWIDTH 410 0
DWIDTH 14 0
BBX 13 24 1 0
BITMAP
0070
00E0
01C0
0180
0300
0000
0000
3FF8
3FF8
0070
00E0
01C0
03C0
0380
0700
0E00
0E00
1C00
3800
7800
6000
FFE0
FFE0
FFE0
ENDCHAR

STARTCHAR hungarumlaut
ENCODING 189
SWIDTH 273 0
DWIDTH 9 0
BBX 10 4 2 20
BITMAP
3DC0
3B80
7300
E600
ENDCHAR

STARTCHAR zcaron
ENCODING 190
SWIDTH 410 0
DWIDTH 14 0
BBX 13 24 1 0
BITMAP
0638
0370
0360
03C0
01C0
0000
0000
3FF8
3FF8
0070
00E0
01C0
03C0
0380
0700
0E00
0E00
1C00
3800
7800
6000
FFE0
FFE0
FFE0
ENDCHAR

STARTCHAR zdotaccent
ENCODING 191
SWIDTH 410 0
DWIDTH 14 0
BBX 13 23 1 0
BITMAP
01E0
01C0
01C0
01C0
0000
0000
3FF8
3FF8
0070
00E0
01C0
03C0
0380
0700
0E00
0E00
1C00
3800
7800
6000
FFE0
FFE0
FFE0
ENDCHAR

STARTCHAR Racute
ENCODING 192
SWIDTH 592 0
DWIDTH 20 0
BBX 18 30 2 0
BITMAP
001E00
001800
003800
007000
000000
000000
0FFE00
0FFF80
1FFF80
1C01C0
1C00C0
1C00C0
1800C0
1800C0
3801C0
3801C0
380780
3FFF00
3FFE00
3FF000
703800
701800
701C00
600C00
600E00
E00E00
E00700
E00700
E00700
C00380
ENDCHAR

STARTCHAR Aacute
ENCODING 193
SWIDTH 547 0
DWIDTH 18 0
BBX 17 30 0 0
BITMAP
000E00
001C00
001800
003000
000000
000000
003C00
003C00
007C00
006C00
00EC00
00EC00
01CC00
01CE00
018E00
038E00
030E00
070600
070600
0E0600
0E0600
1FFF00
1FFF00
380700
380700
700300
700300
600300
E00380
C00380
ENDCHAR

STARTCHAR Acircumflex
ENCODING 194
SWIDTH 547 0
DWIDTH 18 0
BBX 17 30 0 0
BITMAP
001C00
003A00
007600
00E700
000000
000000
003C00
003C00
007C00
006C00
00EC00
00EC00
01CC00
01CE00
018E00
038E00
030E00
070600
070600
0E0600
0E0600
1FFF00
1FFF00
380700
380700
700300
700300
600300
E00380
C00380
ENDCHAR

STARTCHAR Abreve
ENCODING 195
SWIDTH 547 0
DWIDTH 18 0
BBX 17 29 0 0
BITMAP
00C300
00C600
007E00
003800
000000
003C00
003C00
007C00
006C00
00EC00
00EC00
01CC00
01CE00
018E00
038E00
030E00
070600
070600
0E0600
0E0600
1FFF00
1FFF00
380700
380700
700300
700300
600300
E00380
C00380
ENDCHAR

STARTCHAR Adieresis
ENCODING 196
SWIDTH 547 0
DWIDTH 18 0
BBX 17 29 0 0
BITMAP
006300
006700
00E700
000000
000000
003C00
003C00
007C00
006C00
00EC00
00EC00
01CC00
01CE00
018E00
038E00
030E00
070600
070600
0E0600
0E0600
1FFF00
1FFF00
380700
380700
700300
700300
600300
E00380
C00380
ENDCHAR

STARTCHAR Lacute
ENCODING 197
SWIDTH 456 0
DWIDTH 15 0
BBX 13 30 1 0
BITMAP
0070
00E0
00C0
0180
0000
0000
0E00
0E00
0C00
0C00
1C00
1C00
1C00
1C00
1800
1800
3800
3800
3800
3800
3000
3000
7000
7000
7000
7000
6000
7FF8
FFF8
FFF8
ENDCHAR

STARTCHAR Cacute
ENCODING 198
SWIDTH 592 0
DWIDTH 20 0
BBX 18 31 2 -1
BITMAP
001C00
001C00
003800
003000
006000
000000
00F800
03FE00
07FF00
0F0700
1C0380
380380
380180
7001C0
700000
600000
600000
E00000
E00000
E00000
E00000
E00000
E00380
600300
600700
700E00
781E00
3C3C00
1FF800
0FF000
018000
ENDCHAR

STARTCHAR Ccedilla
ENCODING 199
SWIDTH 592 0
DWIDTH 20 0
BBX 18 30 2 -6
BITMAP
00F800
03FE00
07FF00
0F0780
1C0380
380180
3801C0
700100
700000
600000
600000
E00000
E00000
E00000
E00000
E00200
E00380
600700
700700
700E00
3C1C00
1FFC00
0FF000
01C000
030000
03C000
01C000
00C000
1FC000
1F0000
ENDCHAR

STARTCHAR Ccaron
ENCODING 200
SWIDTH 592 0
DWIDTH 20 0
BBX 18 31 2 -1
BITMAP
00C700
00CE00
007C00
007800
007000
000000
00F800
03FE00
07FF00
0F0700
1C0380
380380
380180
7001C0
700000
600000
600000
E00000
E00000
E00000
E00000
E00000
E00380
600300
600700
700E00
781E00
3C3C00
1FF800
0FF000
018000
ENDCHAR

STARTCHAR Eacute
ENCODING 201
SWIDTH 547 0
DWIDTH 18 0
BBX 18 30 1 0
BITMAP
001E00
001C00
003800
007000
000000
000000
0FFFC0
0FFFC0
0FFFC0
0C0000
0C0000
1C0000
1C0000
1C0000
180000
180000
3FFF00
3FFF00
3FFF00
380000
300000
300000
700000
700000
700000
700000
600000
7FFE00
FFFE00
FFFE00
ENDCHAR

STARTCHAR Eogonek
ENCODING 202
SWIDTH 547 0
DWIDTH 18 0
BBX 18 31 1 -7
BITMAP
0FFFC0
0FFFC0
0FFFC0
0C0000
1C0000
1C0000
1C0000
180000
180000
180000
3FFF00
3FFF00
3FFF00
300000
300000
700000
700000
700000
700000
600000
600000
FFFE00
FFFE00
FFFE00
002000
002000
006000
006000
006200
007C00
003C00
ENDCHAR

STARTCHAR Edieresis
ENCODING 203
SWIDTH 547 0
DWIDTH 18 0
BBX 18 29 1 0
BITMAP
00E700
00E700
00C600
000000
000000
0FFFC0
0FFFC0
0FFFC0
0C0000
0C0000
1C0000
1C0000
1C0000
180000
180000
1FFF00
3FFF00
3FFF00
380000
300000
300000
700000
700000
700000
700000
600000
7FFE00
FFFE00
FFFE00
ENDCHAR

STARTCHAR Ecaron
ENCODING 204
SWIDTH 547 0
DWIDTH 18 0
BBX 18 30 1 0
BITMAP
00E700
006E00
006C00
003800
000000
000000
0FFFC0
0FFFC0
0FFFC0
0C0000
0C0000
1C0000
1C0000
1C0000
180000
180000
3FFF00
3FFF00
3FFF00
380000
300000
300000
700000
700000
700000
700000
600000
7FFE00
FFFE00
FFFE00
ENDCHAR

STARTCHAR Iacute
ENCODING 205
SWIDTH 228 0
DWIDTH 8 0
BBX 8 30 2 0
BITMAP
07
0E
0C
1C
00
00
0C
1C
1C
1C
18
18
38
38
38
38
30
30
70
70
70
70
60
60
E0
E0
E0
C0
C0
C0
ENDCHAR

STARTCHAR Icircumflex
ENCODING 206
SWIDTH 228 0
DWIDTH 8 0
BBX 9 30 2 0
BITMAP
0E00
1F00
3B00
7380
0000
0000
0C00
1C00
1C00
1C00
1800
1800
3800
3800
3800
3800
3000
3000
7000
7000
7000
7000
6000
6000
E000
E000
E000
C000
C000
C000
ENDCHAR

STARTCHAR Dcaron
ENCODING 207
SWIDTH 592 0
DWIDTH 20 0
BBX 18 30 2 0
BITMAP
00C700
00CC00
006800
007800
000000
000000
0FF800
0FFE00
1FFF00
1C0700
1C0380
180380
1801C0
1801C0
3801C0
3801C0
3801C0
3001C0
3001C0
3001C0
700180
700380
700380
600700
600700
E00E00
E03C00
FFF800
FFF000
FFC000
ENDCHAR

STARTCHAR Dcroat
ENCODING 208
SWIDTH 592 0
DWIDTH 20 0
BBX 18 24 1 0
BITMAP
0FF800
0FFE00
0FFF00
0C0780
0C0380
1C01C0
1C01C0
1C00C0
1C00C0
1800C0
1800C0
FFC0C0
FFC1C0
3801C0
3801C0
300180
300380
700380
700700
700F00
601E00
7FFC00
7FF800
FFC000
ENDCHAR

STARTCHAR Nacute
ENCODING 209
SWIDTH 592 0
DWIDTH 20 0
BBX 20 30 1 0
BITMAP
000F00
000C00
001C00
003800
000000
000000
0E0070
0E0060
0F0060
0F00E0
0D80E0
0D80E0
1D80C0
1DC0C0
1CC0C0
18C1C0
18E1C0
3861C0
387180
387180
383180
303B80
303B80
701B80
701B00
701D00
600F00
600F00
600F00
E00700
ENDCHAR

STARTCHAR Ncaron
ENCODING 210
SWIDTH 592 0
DWIDTH 20 0
BBX 20 30 1 0
BITMAP
006380
003700
003600
003C00
000000
000000
0E0070
0E0060
0F0060
0F00E0
0D80E0
0D80E0
1D80C0
1DC0C0
1CC0C0
18C1C0
18E1C0
3861C0
387180
387180
383180
303B80
303B80
701B80
701B00
701D00
600F00
600F00
600F00
E00700
ENDCHAR

STARTCHAR Oacute
ENCODING 211
SWIDTH 638 0
DWIDTH 21 0
BBX 19 31 2 -1
BITMAP
000E00
001C00
001800
003800
003000
000000
00F800
03FE00
07FF00
0F0780
1C0380
3C01C0
3800C0
7000E0
7000E0
6000E0
6000E0
E000E0
E000E0
E000E0
E000C0
E000C0
E001C0
600180
700380
700700
380F00
3C1E00
1FFC00
07F800
01C000
ENDCHAR

STARTCHAR Ocircumflex
ENCODING 212
SWIDTH 638 0
DWIDTH 21 0
BBX 19 31 2 -1
BITMAP
001C00
003C00
003600
006600
00C700
000000
00F800
03FE00
07FF00
0F0780
1C0380
3C01C0
3800C0
7000E0
7000E0
6000E0
6000E0
E000E0
E000E0
E000E0
E000C0
E000C0
E001C0
600180
700380
700700
380F00
3C1E00
1FFC00
07F800
01C000
ENDCHAR

STARTCHAR Ohungarumlaut
ENCODING 213
SWIDTH 638 0
DWIDTH 21 0
BBX 19 30 2 -1
BITMAP
007B80
006700
00E600
01CC00
000000
007000
03FE00
07FF00
0F0780
1C0380
3C01C0
3800C0
7000C0
7000E0
6000E0
6000E0
E000E0
E000E0
E000E0
E000C0
E000C0
E001C0
600180
700380
700700
380F00
3C1E00
1FFC00
07F800
01C000
ENDCHAR

STARTCHAR Odieresis
ENCODING 214
SWIDTH 638 0
DWIDTH 21 0
BBX 19 30 2 -1
BITMAP
006300
00E700
00E700
000000
000000
00F800
03FE00
07FF00
0F0780
1C0380
3C01C0
3800C0
7000E0
7000E0
6000E0
6000E0
E000E0
E000E0
E000E0
E000C0
E000C0
E001C0
600180
700380
700700
380F00
3C1E00
1FFC00
07F800
01C000
ENDCHAR

STARTCHAR multiply
ENCODING 215
SWIDTH 479 0
DWIDTH 16 0
BBX 12 14 3 5
BITMAP
2020
6070
F0E0
71E0
39C0
1F80
0F00
0F00
1F80
3D80
39C0
70E0
E070
4060
ENDCHAR

STARTCHAR Rcaron
ENCODING 216
SWIDTH 592 0
DWIDTH 20 0
BBX 18 30 2 0
BITMAP
00C700
006E00
006C00
007800
000000
000000
0FFE00
0FFF80
1FFF80
1C01C0
1C00C0
1C00C0
1800C0
1800C0
3801C0
3801C0
380780
3FFF00
3FFE00
3FF000
703800
701800
701C00
600C00
600E00
E00E00
E00700
E00700
E00700
C00380
ENDCHAR

STARTCHAR Uring
ENCODING 217
SWIDTH 592 0
DWIDTH 20 0
BBX 18 31 2 0
BITMAP
003800
006C00
004400
004400
006C00
003800
000000
1C00C0
1801C0
1801C0
3801C0
3801C0
380180
380180
300380
300380
700380
700380
700300
700300
600700
600700
E00700
E00600
E00E00
E00E00
601C00
703C00
3CF800
3FF000
0FE000
ENDCHAR

STARTCHAR Uacute
ENCODING 218
SWIDTH 592 0
DWIDTH 20 0
BBX 18 30 2 0
BITMAP
001E00
001800
003800
007000
000000
000000
1C01C0
1801C0
1801C0
380180
380180
380180
380380
300380
300380
700300
700300
700700
700700
600700
600700
E00600
E00E00
E00E00
E00E00
601C00
703C00
3CF800
3FF000
0FE000
ENDCHAR

STARTCHAR Uhungarumlaut
ENCODING 219
SWIDTH 592 0
DWIDTH 20 0
BBX 18 30 2 0
BITMAP
007F80
00E700
00CE00
01DC00
000000
000000
1C01C0
1801C0
1801C0
380180
380180
380180
380380
300380
300380
700300
700300
700700
700700
600700
600700
E00600
E00E00
E00E00
E00E00
601C00
703C00
3CF800
3FF000
0FE000
ENDCHAR

STARTCHAR Udieresis
ENCODING 220
SWIDTH 592 0
DWIDTH 20 0
BBX 18 29 2 0
BITMAP
00E700
00E600
00C600
000000
000000
1C01C0
1801C0
1801C0
380180
380180
380180
380380
300380
300380
700300
700300
700700
700700
600700
600700
E00600
E00E00
E00E00
E00E00
601C00
703C00
3CF800
3FF000
0FE000
ENDCHAR

STARTCHAR Yacute
ENCODING 221
SWIDTH 547 0
DWIDTH 18 0
BBX 18 30 3 0
BITMAP
003C00
003000
007000
00E000
000000
000000
E001C0
700380
700780
300700
380E00
381E00
1C1C00
1C3800
0C7800
0E7000
0EE000
076000
07C000
03C000
038000
038000
030000
030000
070000
070000
070000
070000
060000
060000
ENDCHAR

STARTCHAR Tcommaaccent
ENCODING 222
SWIDTH 501 0
DWIDTH 17 0
BBX 16 31 3 -7
BITMAP
7FFF
7FFF
FFFF
0180
0380
0380
0380
0300
0300
0300
0700
0700
0700
0600
0600
0E00
0E00
0E00
0E00
0C00
0C00
1C00
1C00
1C00
0000
0000
1800
0800
1800
1000
2000
ENDCHAR

STARTCHAR germandbls
ENCODING 223
SWIDTH 501 0
DWIDTH 17 0
BBX 14 24 1 0
BITMAP
03F0
07F8
0F38
1C18
1C18
1818
1838
3870
3870
30E0
30C0
30C0
30E0
70E0
7070
6038
6018
601C
600C
E41C
EE18
C738
C7F0
C1E0
ENDCHAR

STARTCHAR racute
ENCODING 224
SWIDTH 273 0
DWIDTH 9 0
BBX 11 24 1 0
BITMAP
01E0
01C0
0380
0300
0700
0000
0000
19C0
1BC0
3BC0
3400
3800
3800
3000
3000
7000
6000
6000
6000
6000
E000
E000
C000
C000
ENDCHAR

STARTCHAR aacute
ENCODING 225
SWIDTH 456 0
DWIDTH 15 0
BBX 13 24 1 0
BITMAP
0070
00E0
00C0
01C0
0180
0000
0000
0FE0
1FF0
3C78
3838
7018
0018
0038
1FF8
3FD8
7030
E030
C070
C070
E0F0
E1F0
7F70
3E70
ENDCHAR

STARTCHAR acircumflex
ENCODING 226
SWIDTH 456 0
DWIDTH 15 0
BBX 13 24 1 0
BITMAP
00E0
01E0
03B0
0330
0738
0000
0000
0FE0
1FF0
3C78
3838
7018
0018
0038
1FF8
3FD8
7030
E030
C070
C070
E0F0
E1F0
7F70
3E70
ENDCHAR

STARTCHAR abreve
ENCODING 227
SWIDTH 456 0
DWIDTH 15 0
BBX 13 23 1 0
BITMAP
0618
0630
03F0
01E0
0000
0000
0FE0
1FF0
3C78
3838
7018
0018
0038
1FF8
3FD8
7030
E030
C070
C070
E0F0
E1F0
7F70
3E70
ENDCHAR

STARTCHAR adieresis
ENCODING 228
SWIDTH 456 0
DWIDTH 15 0
BBX 13 23 1 0
BITMAP
0318
0738
0738
0000
0000
0000
0FE0
1FF0
3C78
3838
7018
0018
0038
1FF8
3FD8
7030
E030
C070
C070
E0F0
E1F0
7F70
3E70
ENDCHAR

STARTCHAR lacute
ENCODING 229
SWIDTH 182 0
DWIDTH 6 0
BBX 9 30 1 0
BITMAP
0380
0700
0E00
0C00
1800
0000
0C00
0C00
1C00
1C00
1C00
1800
1800
1800
3800
3800
3000
3000
3000
3000
7000
7000
6000
6000
6000
6000
E000
E000
C000
C000
ENDCHAR

STARTCHAR cacute
ENCODING 230
SWIDTH 410 0
DWIDTH 14 0
BBX 12 24 2 0
BITMAP
00F0
00E0
01C0
0180
0300
0000
0000
0FC0
1FE0
3CF0
7070
7030
6000
E000
E000
C000
C000
C000
C060
C0E0
E0C0
73C0
7F80
1E00
ENDCHAR

STARTCHAR ccedilla
ENCODING 231
SWIDTH 410 0
DWIDTH 14 0
BBX 12 24 2 -7
BITMAP
0FC0
1FE0
38E0
7070
6070
6000
E000
E000
C000
C000
C000
C0E0
C0E0
E1C0
7380
7F80
1E00
0800
1C00
0600
0600
0E00
3C00
7800
ENDCHAR

STARTCHAR ccaron
ENCODING 232
SWIDTH 410 0
DWIDTH 14 0
BBX 13 24 2 0
BITMAP
0638
0670
0360
03C0
03C0
0000
0000
0FC0
1FE0
3CF0
7070
7030
6000
E000
E000
C000
C000
C000
C060
C0E0
E0C0
73C0
7F80
1E00
ENDCHAR

STARTCHAR eacute
ENCODING 233
SWIDTH 456 0
DWIDTH 15 0
BBX 13 24 2 0
BITMAP
0070
00E0
00C0
01C0
0180
0000
0000
07C0
1FF0
3C70
3038
7018
6018
E018
FFF8
FFF8
C000
C000
C030
E070
E0E0
71E0
3FC0
1F00
ENDCHAR

STARTCHAR eogonek
ENCODING 234
SWIDTH 456 0
DWIDTH 15 0
BBX 13 24 1 -7
BITMAP
07C0
1FF0
3C70
3838
7018
6018
E018
FFF8
FFF8
C000
C000
C030
E070
E070
71E0
7FC0
3F80
0400
0400
0C00
0C00
0C40
0F80
0780
ENDCHAR

STARTCHAR edieresis
ENCODING 235
SWIDTH 456 0
DWIDTH 15 0
BBX 13 23 2 0
BITMAP
0318
0738
0738
0000
0000
0000
07C0
1FF0
3C70
3038
7018
6018
E018
FFF8
FFF8
C000
C000
C030
E070
E0E0
71E0
3FC0
1F00
ENDCHAR

STARTCHAR ecaron
ENCODING 236
SWIDTH 456 0
DWIDTH 15 0
BBX 13 24 2 0
BITMAP
0718
0330
0370
01E0
01C0
0000
0000
07C0
1FF0
3C70
3038
7018
6018
E018
FFF8
FFF8
C000
C000
C030
E070
E0E0
71E0
3FC0
1F00
ENDCHAR

STARTCHAR iacute
ENCODING 237
SWIDTH 228 0
DWIDTH 8 0
BBX 8 24 2 0
BITMAP
07
0E
0C
18
38
00
00
38
38
30
30
30
30
70
70
60
60
60
E0
E0
E0
C0
C0
C0
ENDCHAR

STARTCHAR icircumflex
ENCODING 238
SWIDTH 228 0
DWIDTH 8 0
BBX 8 24 2 0
BITMAP
0E
1E
3A
73
E3
00
00
38
38
30
30
30
30
70
70
60
60
60
E0
E0
E0
C0
C0
C0
ENDCHAR

STARTCHAR dcaron
ENCODING 239
SWIDTH 512 0
DWIDTH 17 0
BBX 18 24 2 0
BITMAP
000EC0
000CC0
000CC0
000C40
001C40
001C80
001D80
0F9900
1FD800
3CE800
707800
703800
603800
E03000
C03000
C03000
C03000
C07000
C06000
E0E000
E0E000
73A000
7F6000
3EE000
ENDCHAR

STARTCHAR dcroat
ENCODING 240
SWIDTH 456 0
DWIDTH 15 0
BBX 16 24 2 0
BITMAP
000E
000C
01FF
01FF
001C
001C
001C
0F98
1FD8
3CD8
7078
7038
6030
E030
C030
C030
C030
C070
C060
E0E0
E0E0
73A0
7F60
3EE0
ENDCHAR

STARTCHAR nacute
ENCODING 241
SWIDTH 456 0
DWIDTH 15 0
BBX 13 24 1 0
BITMAP
0070
00E0
00C0
01C0
0180
0000
0000
19F0
3BF8
3A38
3C18
3818
3818
3018
7038
7038
7030
6030
6030
6070
E070
E060
C060
C060
ENDCHAR

STARTCHAR ncaron
ENCODING 242
SWIDTH 456 0
DWIDTH 15 0
BBX 13 24 1 0
BITMAP
0338
0330
0370
01E0
01C0
0000
0000
19F0
3BF8
3A38
3C18
3818
3818
3018
7038
7038
7030
6030
6030
6070
E070
E060
C060
C060
ENDCHAR

STARTCHAR oacute
ENCODING 243
SWIDTH 456 0
DWIDTH 15 0
BBX 13 24 2 0
BITMAP
0070
00E0
00C0
01C0
0180
0000
0000
07C0
1FF0
3C70
3838
7038
6018
E018
E018
C018
C018
C038
C030
E070
E0F0
71E0
3FC0
1F00
ENDCHAR

STARTCHAR ocircumflex
ENCODING 244
SWIDTH 456 0
DWIDTH 15 0
BBX 13 24 2 0
BITMAP
00E0
01E0
03B0
0330
0638
0000
0000
07C0
1FF0
3C70
3838
7038
6018
E018
E018
C018
C018
C038
C030
E070
E0F0
71E0
3FC0
1F00
ENDCHAR

STARTCHAR ohungarumlaut
ENCODING 245
SWIDTH 456 0
DWIDTH 15 0
BBX 14 24 2 0
BITMAP
03DC
03B8
0730
0670
0C60
0000
0000
0FC0
1FF0
3C70
3838
7038
6018
E018
E018
C018
C018
C038
C030
E070
E0F0
71E0
3FC0
1F00
ENDCHAR

STARTCHAR odieresis
ENCODING 246
SWIDTH 456 0
DWIDTH 15 0
BBX 13 23 2 0
BITMAP
0338
0738
0738
0000
0000
0000
0FC0
1FF0
3C70
3838
7038
6018
E018
E018
C018
C018
C038
C030
E070
E0F0
71E0
3FC0
1F00
ENDCHAR

STARTCHAR divide
ENCODING 247
SWIDTH 479 0
DWIDTH 16 0
BBX 13 13 2 5
BITMAP
0700
0700
0700
0000
0000
FFF8
FFF8
FFF8
0000
0000
0700
0700
0700
ENDCHAR

STARTCHAR rcaron
ENCODING 248
SWIDTH 273 0
DWIDTH 9 0
BBX 12 24 1 0
BITMAP
0C70
06E0
06C0
0780
0380
0000
0000
19C0
1BC0
3BC0
3400
3800
3800
3000
3000
7000
6000
6000
6000
6000
E000
E000
C000
C000
ENDCHAR

STARTCHAR uring
ENCODING 249
SWIDTH 456 0
DWIDTH 15 0
BBX 13 24 2 0
BITMAP
01C0
0360
0220
0220
0360
01C0
0000
3018
3038
7038
7030
6030
6030
6070
6070
E070
E060
C060
C0E0
C0E0
C1E0
E740
FEC0
7CC0
ENDCHAR

STARTCHAR uacute
ENCODING 250
SWIDTH 456 0
DWIDTH 15 0
BBX 13 24 2 0
BITMAP
0070
00E0
00C0
01C0
0180
0000
0000
3018
3018
3038
7038
7030
6030
6030
6070
E070
E070
E060
C0E0
C0E0
C160
E360
FEC0
7CC0
ENDCHAR

STARTCHAR uhungarumlaut
ENCODING 251
SWIDTH 456 0
DWIDTH 15 0
BBX 14 24 2 0
BITMAP
03DC
03B8
0730
0660
0C60
0000
0000
3018
3018
3038
7038
7030
6030
6030
6070
E070
E070
E060
C0E0
C0E0
C160
E360
FEC0
7CC0
ENDCHAR

STARTCHAR udieresis
ENCODING 252
SWIDTH 456 0
DWIDTH 15 0
BBX 13 23 2 0
BITMAP
0338
0738
0738
0000
0000
0000
3018
3018
3038
7038
7030
6030
6030
6070
E070
E070
E060
C0E0
C0E0
C160
E360
FEC0
7CC0
ENDCHAR

STARTCHAR yacute
ENCODING 253
SWIDTH 410 0
DWIDTH 14 0
BBX 15 31 0 -7
BITMAP
0038
0070
0060
00E0
00C0
0000
0000
180E
180E
180C
181C
1818
1C38
1C30
0C70
0C60
0CE0
0CC0
0DC0
0D80
0F80
0F80
0700
0700
0600
0E00
0C00
1C00
F800
F000
E000
ENDCHAR

STARTCHAR tcommaaccent
ENCODING 254
SWIDTH 228 0
DWIDTH 8 0
BBX 8 30 1 -7
BITMAP
04
0C
1C
1C
18
18
7F
5E
38
38
30
30
30
30
70
70
60
60
60
60
E0
78
78
00
00
60
20
E0
40
80
ENDCHAR

STARTCHAR dotaccent
ENCODING 255
SWIDTH 273 0
DWIDTH 9 0
BBX 4 4 5 19
BITMAP
70
70
E0
E0
ENDCHAR

ENDFONT
