STARTFONT 2.1
FONT -Monotype-Arial Narrow-Bold-R-Normal--33-240-100-100-P-132-iso8859-4
SIZE 24 100 100
FONTBOUNDINGBOX 31 39 -4 -7

STARTPROPERTIES 24
FOUNDRY "Monotype"
FAMILY_NAME "Arial Narrow"
WEIGHT_NAME "Bold"
SLANT "R"
SETWIDTH_NAME "Normal"
ADD_STYLE_NAME ""
PIXEL_SIZE 33
POINT_SIZE 240
RESOLUTION_X 100
RESOLUTION_Y 100
SPACING "P"
AVERAGE_WIDTH 132
CHARSET_REGISTRY "iso8859"
CHARSET_ENCODING "4"
FACE_NAME "Arial Narrow Bold ISO Latin4"
_DEC_DEVICE_FONTNAMES "PS=arialnarrow-b-lat4"
COPYRIGHT "Copyright (c) 1993 Monotype Typography Ltd."
CAP_HEIGHT 27
X_HEIGHT 20
WEIGHT 10
QUAD_WIDTH 17
DEFAULT_CHAR 160
FONT_DESCENT 7
FONT_ASCENT 32
ENDPROPERTIES

CHARS 191

STARTCHAR space
ENCODING 32
SWIDTH 228 0
DWIDTH 8 0
BBX 0 0 0 0
BITMAP
ENDCHAR

STARTCHAR exclam
ENCODING 33
SWIDTH 273 0
DWIDTH 9 0
BBX 4 24 2 0
BITMAP
F0
F0
F0
F0
F0
F0
F0
F0
F0
F0
F0
F0
60
60
60
60
60
60
00
F0
F0
F0
F0
F0
ENDCHAR

STARTCHAR quotedbl
ENCODING 34
SWIDTH 389 0
DWIDTH 13 0
BBX 10 9 1 15
BITMAP
F3C0
F3C0
F3C0
F3C0
F3C0
F3C0
F3C0
71C0
6180
ENDCHAR

STARTCHAR numbersign
ENCODING 35
SWIDTH 456 0
DWIDTH 15 0
BBX 15 24 0 0
BITMAP
071C
071C
071C
0638
0E38
0E38
FFFE
FFFE
FFFE
FFFE
1C70
1C70
1C70
1C70
FFFE
FFFE
FFFE
FFFE
38E0
38E0
38E0
71C0
71C0
71C0
ENDCHAR

STARTCHAR dollar
ENCODING 36
SWIDTH 456 0
DWIDTH 15 0
BBX 12 29 1 -3
BITMAP
0600
0600
1F80
3FC0
7FE0
7BE0
F6F0
E6E0
E600
F600
FE00
7E00
7FC0
3FE0
0FF0
07F0
06F0
0670
E670
E670
F670
FEF0
7FE0
7FE0
3FC0
0F00
0600
0600
0600
ENDCHAR

STARTCHAR percent
ENCODING 37
SWIDTH 729 0
DWIDTH 24 0
BBX 22 26 1 -2
BITMAP
1C01C0
7F0380
7F0380
F78700
E38700
E38600
E38E00
E38E00
E39C00
F79C00
7F1800
7F3800
1C3800
0070F0
0073F8
0073F8
00E79C
00E71C
01C71C
01C71C
01C71C
03871C
0383BC
0703F8
0701F8
0700E0
ENDCHAR

STARTCHAR ampersand
ENCODING 38
SWIDTH 592 0
DWIDTH 20 0
BBX 18 24 1 0
BITMAP
07C000
1FF000
1FF800
3C7800
3C3800
3C3800
1E7800
1EF800
0FF000
0FE000
0FC000
3FC000
3FE400
7DE700
79FF00
F0FF00
F07F00
F07E00
F03E00
787F00
7FFFC0
3FF780
1FE380
078100
ENDCHAR

STARTCHAR quoteright
ENCODING 39
SWIDTH 228 0
DWIDTH 8 0
BBX 4 10 2 14
BITMAP
F0
F0
F0
F0
F0
30
30
60
E0
80
ENDCHAR

STARTCHAR parenleft
ENCODING 40
SWIDTH 273 0
DWIDTH 9 0
BBX 7 31 1 -7
BITMAP
0E
0E
1C
1C
3C
38
38
78
70
70
70
70
F0
F0
F0
F0
F0
F0
F0
70
70
70
70
78
38
38
38
1C
1C
0C
0E
ENDCHAR

STARTCHAR parenright
ENCODING 41
SWIDTH 273 0
DWIDTH 9 0
BBX 7 31 1 -7
BITMAP
E0
60
70
70
38
38
38
3C
1C
1C
1C
1E
1E
1E
1E
1E
1E
1E
1E
1E
1C
1C
1C
3C
38
38
38
70
70
60
E0
ENDCHAR

STARTCHAR asterisk
ENCODING 42
SWIDTH 319 0
DWIDTH 11 0
BBX 10 11 0 13
BITMAP
0C00
0C00
0C00
6CC0
FFC0
7FC0
0E00
1E00
3B00
7380
3100
ENDCHAR

STARTCHAR plus
ENCODING 43
SWIDTH 479 0
DWIDTH 16 0
BBX 13 16 1 4
BITMAP
0700
0700
0700
0700
0700
0700
FFF8
FFF8
FFF8
FFF8
0700
0700
0700
0700
0700
0700
ENDCHAR

STARTCHAR comma
ENCODING 44
SWIDTH 228 0
DWIDTH 8 0
BBX 4 10 2 -5
BITMAP
F0
F0
F0
F0
F0
30
30
60
E0
80
ENDCHAR

STARTCHAR minus
ENCODING 45
SWIDTH 479 0
DWIDTH 16 0
BBX 14 4 1 10
BITMAP
FFFC
FFFC
FFFC
FFFC
ENDCHAR

STARTCHAR period
ENCODING 46
SWIDTH 228 0
DWIDTH 8 0
BBX 4 5 2 0
BITMAP
F0
F0
F0
F0
F0
ENDCHAR

STARTCHAR slash
ENCODING 47
SWIDTH 228 0
DWIDTH 8 0
BBX 8 25 0 -1
BITMAP
07
0E
0E
0E
0E
0C
0C
1C
1C
1C
1C
18
38
38
38
38
30
70
70
70
70
60
E0
E0
E0
ENDCHAR

STARTCHAR zero
ENCODING 48
SWIDTH 456 0
DWIDTH 15 0
BBX 13 24 1 0
BITMAP
0F80
1FC0
3FE0
7FF0
78F0
78F0
F078
F078
F078
F078
F078
F078
F078
F078
F078
F078
F078
7078
78F0
78F0
7FF0
3FE0
1FC0
0780
ENDCHAR

STARTCHAR one
ENCODING 49
SWIDTH 456 0
DWIDTH 15 0
BBX 9 24 2 0
BITMAP
0380
0780
0780
0F80
1F80
7F80
FF80
F780
E780
C780
0780
0780
0780
0780
0780
0780
0780
0780
0780
0780
0780
0780
0780
0780
ENDCHAR

STARTCHAR two
ENCODING 50
SWIDTH 456 0
DWIDTH 15 0
BBX 13 24 1 0
BITMAP
0F80
1FE0
3FF0
7FF0
78F8
7078
F078
7078
0078
0070
00F0
01F0
03E0
03E0
07C0
0F80
1F00
3E00
3C00
7C00
7FF8
FFF8
FFF8
FFF8
ENDCHAR

STARTCHAR three
ENCODING 51
SWIDTH 456 0
DWIDTH 15 0
BBX 13 24 1 0
BITMAP
0F00
3FC0
3FE0
7FE0
79F0
F0F0
F0F0
30F0
00F0
01E0
07C0
0780
07E0
00F0
0070
0078
0078
7078
F078
F8F0
7FF0
3FE0
1FC0
0F80
ENDCHAR

STARTCHAR four
ENCODING 52
SWIDTH 456 0
DWIDTH 15 0
BBX 14 24 0 0
BITMAP
00F0
00F0
01F0
01F0
03F0
03F0
07F0
0F70
0EF0
1EF0
1CF0
3CF0
38F0
78F0
70F0
FFFC
FFFC
FFFC
FFFC
00F0
00F0
00F0
00F0
00F0
ENDCHAR

STARTCHAR five
ENCODING 53
SWIDTH 456 0
DWIDTH 15 0
BBX 13 23 1 0
BITMAP
3FF0
3FF0
3FF0
3FF0
7800
7800
7800
7780
7FC0
7FE0
7FF0
F0F0
0078
0078
0078
0078
F078
F078
F8F0
7FF0
7FE0
3FC0
0F00
ENDCHAR

STARTCHAR six
ENCODING 54
SWIDTH 456 0
DWIDTH 15 0
BBX 13 24 1 0
BITMAP
0780
1FE0
3FE0
3FF0
78F0
7870
7060
F000
F000
F7C0
F7E0
FFF0
F8F0
F870
F078
F078
F078
F078
7878
78F0
7FF0
3FE0
1FC0
0780
ENDCHAR

STARTCHAR seven
ENCODING 55
SWIDTH 456 0
DWIDTH 15 0
BBX 13 23 1 0
BITMAP
FFF8
FFF8
FFF8
FF78
00F0
00E0
01E0
01C0
03C0
0380
0780
0700
0700
0F00
0F00
0E00
0E00
1E00
1E00
1E00
1E00
1C00
1C00
ENDCHAR

STARTCHAR eight
ENCODING 56
SWIDTH 456 0
DWIDTH 15 0
BBX 13 24 1 0
BITMAP
0F00
3FC0
7FE0
7FF0
F8F0
F070
F070
7070
78F0
3FE0
1FC0
3FE0
3FF0
78F0
7078
F078
F078
F078
F078
78F0
7FF0
3FE0
1FC0
0F80
ENDCHAR

STARTCHAR nine
ENCODING 57
SWIDTH 456 0
DWIDTH 15 0
BBX 13 24 1 0
BITMAP
0F80
1FC0
3FE0
7FF0
78F0
F0F8
F078
F078
F078
F078
70F8
78F8
3FF8
3FB8
0F78
0078
0078
7070
70F0
78F0
7FE0
3FE0
1FC0
0F00
ENDCHAR

STARTCHAR colon
ENCODING 58
SWIDTH 273 0
DWIDTH 9 0
BBX 4 17 3 0
BITMAP
F0
F0
F0
F0
F0
00
00
00
00
00
00
00
F0
F0
F0
F0
F0
ENDCHAR

STARTCHAR semicolon
ENCODING 59
SWIDTH 273 0
DWIDTH 9 0
BBX 4 22 2 -5
BITMAP
F0
F0
F0
F0
F0
00
00
00
00
00
00
00
F0
F0
F0
F0
F0
30
30
60
E0
80
ENDCHAR

STARTCHAR less
ENCODING 60
SWIDTH 479 0
DWIDTH 16 0
BBX 14 18 1 3
BITMAP
0004
001C
007C
01FC
03FC
0FF0
3FC0
FF00
F400
F800
FE00
7F80
1FE0
07F8
03FC
00FC
003C
000C
ENDCHAR

STARTCHAR equal
ENCODING 61
SWIDTH 479 0
DWIDTH 16 0
BBX 14 11 1 6
BITMAP
FFFC
FFFC
FFFC
FFFC
0000
0000
0000
FFFC
FFFC
FFFC
FFFC
ENDCHAR

STARTCHAR greater
ENCODING 62
SWIDTH 479 0
DWIDTH 16 0
BBX 14 18 1 3
BITMAP
8000
C000
F000
FC00
FF00
3FC0
0FF0
03FC
00BC
007C
01FC
07F8
1FE0
7F80
FE00
FC00
F000
C000
ENDCHAR

STARTCHAR question
ENCODING 63
SWIDTH 501 0
DWIDTH 17 0
BBX 14 24 1 0
BITMAP
0FC0
3FF0
7FF8
7CF8
F83C
F03C
F03C
003C
003C
0078
00F8
01F0
03E0
03C0
0780
0780
0780
0780
0000
0780
0780
0780
0780
0780
ENDCHAR

STARTCHAR at
ENCODING 64
SWIDTH 800 0
DWIDTH 26 0
BBX 25 31 1 -7
BITMAP
003F0000
01FFE000
03FFF000
07C0F800
0F003C00
1E001C00
3C000E00
387DE600
70FEE700
71FFE700
61E3C300
E3C3C300
E381C300
E783C300
C703C300
C703C700
C7038700
C7038600
C7078E00
E7879C00
E78FBC00
E3FFF800
71FBF000
70F3C000
38000380
3C000700
1E001E00
0F807E00
07FFF800
01FFF000
003F8000
ENDCHAR

STARTCHAR A
ENCODING 65
SWIDTH 592 0
DWIDTH 20 0
BBX 20 24 0 0
BITMAP
01F000
01F000
01F800
03F800
03F800
03FC00
03BC00
07BC00
079E00
071E00
0F1E00
0F0F00
0E0F00
1E0F00
1FFF00
1FFF80
3FFF80
3FFF80
3C03C0
7803C0
7803C0
7801E0
F801E0
F001F0
ENDCHAR

STARTCHAR B
ENCODING 66
SWIDTH 592 0
DWIDTH 20 0
BBX 16 24 2 0
BITMAP
FFF0
FFF8
FFFC
FFFC
F03E
F01E
F01E
F01E
F01E
F03C
FFFC
FFF0
FFFC
FFFE
F01E
F00F
F00F
F00F
F00F
F01F
FFFE
FFFE
FFFC
FFF0
ENDCHAR

STARTCHAR C
ENCODING 67
SWIDTH 592 0
DWIDTH 20 0
BBX 17 24 1 0
BITMAP
03F000
0FFC00
1FFE00
3FFF00
3E1F00
7C0F80
780F80
780400
F00000
F00000
F00000
F00000
F00000
F00000
F00000
F00400
780780
780F80
7C0F00
3E3F00
3FFE00
1FFE00
0FFC00
03F000
ENDCHAR

STARTCHAR D
ENCODING 68
SWIDTH 592 0
DWIDTH 20 0
BBX 16 24 2 0
BITMAP
FFE0
FFF8
FFFC
FFFC
F07E
F01E
F01E
F00F
F00F
F00F
F00F
F00F
F00F
F00F
F00F
F00F
F00F
F01E
F01E
F07E
FFFC
FFF8
FFF0
FFE0
ENDCHAR

STARTCHAR E
ENCODING 69
SWIDTH 547 0
DWIDTH 18 0
BBX 15 24 2 0
BITMAP
FFFC
FFFC
FFFC
FFFC
F000
F000
F000
F000
F000
FFFC
FFFC
FFFC
FFFC
F000
F000
F000
F000
F000
F000
F000
FFFE
FFFE
FFFE
FFFE
ENDCHAR

STARTCHAR F
ENCODING 70
SWIDTH 501 0
DWIDTH 17 0
BBX 13 24 2 0
BITMAP
FFF8
FFF8
FFF8
FFF8
F000
F000
F000
F000
F000
F000
FFF0
FFF0
FFF0
FFF0
F000
F000
F000
F000
F000
F000
F000
F000
F000
F000
ENDCHAR

STARTCHAR G
ENCODING 71
SWIDTH 638 0
DWIDTH 21 0
BBX 18 24 1 0
BITMAP
03F800
0FFE00
1FFF00
3FFF80
3E0F80
7C0780
7803C0
780200
F00000
F00000
F00000
F03FC0
F03FC0
F03FC0
F03FC0
F803C0
7803C0
7803C0
7C07C0
3E0FC0
1FFFC0
1FFF80
07FE00
01F800
ENDCHAR

STARTCHAR H
ENCODING 72
SWIDTH 592 0
DWIDTH 20 0
BBX 16 24 2 0
BITMAP
F00F
F00F
F00F
F00F
F00F
F00F
F00F
F00F
F00F
FFFF
FFFF
FFFF
FFFF
F00F
F00F
F00F
F00F
F00F
F00F
F00F
F00F
F00F
F00F
F00F
ENDCHAR

STARTCHAR I
ENCODING 73
SWIDTH 228 0
DWIDTH 8 0
BBX 4 24 2 0
BITMAP
F0
F0
F0
F0
F0
F0
F0
F0
F0
F0
F0
F0
F0
F0
F0
F0
F0
F0
F0
F0
F0
F0
F0
F0
ENDCHAR

STARTCHAR J
ENCODING 74
SWIDTH 456 0
DWIDTH 15 0
BBX 12 24 1 0
BITMAP
00F0
00F0
00F0
00F0
00F0
00F0
00F0
00F0
00F0
00F0
00F0
00F0
00F0
00F0
00F0
00F0
60F0
E0F0
F0F0
F1F0
FFE0
7FE0
7FC0
1F00
ENDCHAR

STARTCHAR K
ENCODING 75
SWIDTH 592 0
DWIDTH 20 0
BBX 18 24 2 0
BITMAP
F00F80
F01F00
F03E00
F07E00
F07C00
F0F800
F1F000
F3E000
F3E000
F7C000
F7C000
FFE000
FFF000
FEF000
FCF800
F8F800
F07C00
F07C00
F03E00
F03E00
F01F00
F01F00
F00F80
F00FC0
ENDCHAR

STARTCHAR L
ENCODING 76
SWIDTH 501 0
DWIDTH 17 0
BBX 14 24 2 0
BITMAP
F000
F000
F000
F000
F000
F000
F000
F000
F000
F000
F000
F000
F000
F000
F000
F000
F000
F000
F000
F000
FFFC
FFFC
FFFC
FFFC
ENDCHAR

STARTCHAR M
ENCODING 77
SWIDTH 683 0
DWIDTH 23 0
BBX 19 24 2 0
BITMAP
FC07E0
FC07E0
FE0FE0
FE0FE0
FE0FE0
F60EE0
F60EE0
F71EE0
F71EE0
F71DE0
F71DE0
F79DE0
F7BDE0
F3BDE0
F3B9E0
F3B9E0
F3F9E0
F3F9E0
F1F1E0
F1F1E0
F1F1E0
F1F1E0
F1F1E0
F0E1E0
ENDCHAR

STARTCHAR N
ENCODING 78
SWIDTH 592 0
DWIDTH 20 0
BBX 16 24 2 0
BITMAP
F00F
F80F
F80F
FC0F
FC0F
FE0F
FE0F
FF0F
F70F
F78F
F78F
F7CF
F3CF
F1EF
F1EF
F0F7
F0FF
F07F
F07F
F03F
F03F
F01F
F01F
F00F
ENDCHAR

STARTCHAR O
ENCODING 79
SWIDTH 638 0
DWIDTH 21 0
BBX 19 24 1 0
BITMAP
03F800
0FFE00
1FFF00
3FFF80
3E0F80
7C07C0
7803C0
7803E0
F001E0
F001E0
F001E0
F001E0
F001E0
F001E0
F001E0
F801E0
7803E0
7803C0
7C07C0
3E0F80
3FFF80
1FFF00
07FE00
01F800
ENDCHAR

STARTCHAR P
ENCODING 80
SWIDTH 547 0
DWIDTH 18 0
BBX 15 24 2 0
BITMAP
FFF0
FFF8
FFFC
FFFC
F07E
F03E
F01E
F01E
F01E
F03E
F07E
FFFC
FFFC
FFF8
FFE0
F000
F000
F000
F000
F000
F000
F000
F000
F000
ENDCHAR

STARTCHAR Q
ENCODING 81
SWIDTH 638 0
DWIDTH 21 0
BBX 20 26 1 -2
BITMAP
03F800
0FFE00
1FFF00
3FFF80
3E0F80
7C07C0
7803C0
7803E0
F001E0
F001E0
F001E0
F001E0
F001E0
F001E0
F001E0
F801E0
7863E0
787BC0
7C7FC0
3E1F80
3FFF80
1FFFC0
07FFF0
01F9E0
0000E0
000060
ENDCHAR

STARTCHAR R
ENCODING 82
SWIDTH 592 0
DWIDTH 20 0
BBX 18 24 2 0
BITMAP
FFF800
FFFC00
FFFE00
FFFE00
F01F00
F00F00
F00F00
F00F00
F00F00
F01F00
FFFE00
FFFC00
FFF800
FFE000
F1F000
F0F800
F07C00
F07C00
F03E00
F01E00
F01F00
F00F00
F00F80
F007C0
ENDCHAR

STARTCHAR S
ENCODING 83
SWIDTH 547 0
DWIDTH 18 0
BBX 16 24 1 0
BITMAP
07E0
1FF8
3FFC
3FFE
7C3E
781E
781E
780E
7C00
3F00
3FE0
1FF8
0FFC
03FE
007F
001F
F00F
780F
780F
7C1F
3FFE
3FFE
1FF8
07F0
ENDCHAR

STARTCHAR T
ENCODING 84
SWIDTH 501 0
DWIDTH 17 0
BBX 16 24 0 0
BITMAP
FFFF
FFFF
FFFF
FFFF
03C0
03C0
03C0
03C0
03C0
03C0
03C0
03C0
03C0
03C0
03C0
03C0
03C0
03C0
03C0
03C0
03C0
03C0
03C0
03C0
ENDCHAR

STARTCHAR U
ENCODING 85
SWIDTH 592 0
DWIDTH 20 0
BBX 16 24 2 0
BITMAP
F00F
F00F
F00F
F00F
F00F
F00F
F00F
F00F
F00F
F00F
F00F
F00F
F00F
F00F
F00F
F00F
F00F
F00F
F81F
7C3E
7FFE
3FFC
1FF8
07F0
ENDCHAR

STARTCHAR V
ENCODING 86
SWIDTH 547 0
DWIDTH 18 0
BBX 18 24 0 0
BITMAP
F003C0
F803C0
780780
780780
780780
3C0F80
3C0F00
3C0F00
3E0F00
1E1E00
1E1E00
1E1E00
0F1C00
0F3C00
0F3C00
07BC00
07B800
07B800
07F800
03F000
03F000
03F000
01E000
01E000
ENDCHAR

STARTCHAR W
ENCODING 87
SWIDTH 774 0
DWIDTH 26 0
BBX 25 24 0 0
BITMAP
F03E0780
F03E0780
703F0780
783F0780
783F0780
787F0700
787B0F00
78778F00
3C778F00
3CF78F00
3CF38E00
3CF3DE00
3CE3DE00
1CE3DE00
1EE1DE00
1EE1DC00
1FE1EC00
1FC1FC00
0FC1FC00
0FC0FC00
0FC0F800
0F80F800
0F80F800
07807800
ENDCHAR

STARTCHAR X
ENCODING 88
SWIDTH 547 0
DWIDTH 18 0
BBX 18 24 0 0
BITMAP
780780
7C0F80
3C0F00
3E1F00
1E1E00
1F3E00
0F3C00
07BC00
07F800
03F800
03F000
01E000
03F000
03F000
07F800
0FFC00
0FBC00
1F3E00
1F1E00
3E1F00
3C0F00
7C0F80
780780
F807C0
ENDCHAR

STARTCHAR Y
ENCODING 89
SWIDTH 547 0
DWIDTH 18 0
BBX 18 24 0 0
BITMAP
F807C0
780780
7C0F80
3C0F00
3E1F00
1E1E00
1F1E00
0F3C00
0FBC00
07F800
07F800
03F000
03F000
01E000
01E000
01E000
01E000
01E000
01E000
01E000
01E000
01E000
01E000
01E000
ENDCHAR

STARTCHAR Z
ENCODING 90
SWIDTH 501 0
DWIDTH 17 0
BBX 16 24 0 0
BITMAP
7FFF
7FFF
7FFF
7FFF
003E
007C
007C
00F8
00F0
01F0
03E0
03C0
07C0
0F80
0F80
1F00
3E00
3E00
7C00
F800
FFFF
FFFF
FFFF
FFFF
ENDCHAR

STARTCHAR bracketleft
ENCODING 91
SWIDTH 273 0
DWIDTH 9 0
BBX 7 31 2 -7
BITMAP
FE
FE
FE
FE
F0
F0
F0
F0
F0
F0
F0
F0
F0
F0
F0
F0
F0
F0
F0
F0
F0
F0
F0
F0
F0
F0
F0
FE
FE
FE
FE
ENDCHAR

STARTCHAR backslash
ENCODING 92
SWIDTH 228 0
DWIDTH 8 0
BBX 8 25 0 -1
BITMAP
E0
E0
E0
60
70
70
70
70
30
38
38
38
38
18
1C
1C
1C
1C
0C
0E
0E
0E
0E
06
07
ENDCHAR

STARTCHAR bracketright
ENCODING 93
SWIDTH 273 0
DWIDTH 9 0
BBX 7 31 0 -7
BITMAP
FE
FE
FE
FE
1E
1E
1E
1E
1E
1E
1E
1E
1E
1E
1E
1E
1E
1E
1E
1E
1E
1E
1E
1E
1E
1E
1E
FE
FE
FE
FE
ENDCHAR

STARTCHAR asciicircum
ENCODING 94
SWIDTH 479 0
DWIDTH 16 0
BBX 12 13 2 11
BITMAP
0F00
0F00
0F00
1F80
1F80
3D80
3BC0
39C0
79E0
71E0
F0E0
F0F0
F0F0
ENDCHAR

STARTCHAR underscore
ENCODING 95
SWIDTH 456 0
DWIDTH 15 0
BBX 17 2 -1 -4
BITMAP
FFFF80
FFFF80
ENDCHAR

STARTCHAR quoteleft
ENCODING 96
SWIDTH 228 0
DWIDTH 8 0
BBX 4 10 2 14
BITMAP
10
30
60
C0
C0
F0
F0
F0
F0
F0
ENDCHAR

STARTCHAR a
ENCODING 97
SWIDTH 456 0
DWIDTH 15 0
BBX 14 17 1 0
BITMAP
1FE0
3FF0
7FF0
78F8
7078
0078
01F8
1FF8
3FF8
7C78
F078
F078
F078
F8F8
7FF8
7FB8
1E3C
ENDCHAR

STARTCHAR b
ENCODING 98
SWIDTH 501 0
DWIDTH 17 0
BBX 14 24 2 0
BITMAP
F000
F000
F000
F000
F000
F000
F000
F7E0
F7F0
FFF8
FCF8
F87C
F03C
F03C
F03C
F03C
F03C
F03C
F87C
F878
FFF8
F7F0
F7E0
F1C0
ENDCHAR

STARTCHAR c
ENCODING 99
SWIDTH 456 0
DWIDTH 15 0
BBX 13 17 1 0
BITMAP
0FC0
3FF0
3FF0
7CF8
7878
F060
F000
F000
F000
F000
F020
F878
7878
7FF0
3FF0
1FE0
0780
ENDCHAR

STARTCHAR d
ENCODING 100
SWIDTH 501 0
DWIDTH 17 0
BBX 14 24 1 0
BITMAP
003C
003C
003C
003C
003C
003C
003C
1FBC
3FDC
7FFC
7CFC
787C
F03C
F03C
F03C
F03C
F03C
F03C
F87C
787C
7FFC
3FDC
1FBC
0F3C
ENDCHAR

STARTCHAR e
ENCODING 101
SWIDTH 456 0
DWIDTH 15 0
BBX 13 17 1 0
BITMAP
1F80
3FE0
3FE0
78F0
7070
F070
F078
FFF8
FFF8
FFF8
F000
F000
7878
78F0
3FF0
3FE0
0FC0
ENDCHAR

STARTCHAR f
ENCODING 102
SWIDTH 273 0
DWIDTH 9 0
BBX 10 24 0 0
BITMAP
0FC0
1F80
1F80
3E80
3C00
3C00
3C00
FF80
FF80
FF80
FF80
3C00
3C00
3C00
3C00
3C00
3C00
3C00
3C00
3C00
3C00
3C00
3C00
3C00
ENDCHAR

STARTCHAR g
ENCODING 103
SWIDTH 501 0
DWIDTH 17 0
BBX 14 24 1 -7
BITMAP
1F3C
3FDC
7FDC
7CFC
787C
F03C
F03C
F03C
F03C
F03C
F03C
787C
787C
7FFC
3FDC
1FBC
0F3C
003C
603C
7838
7CF8
7FF8
3FF0
1FE0
ENDCHAR

STARTCHAR h
ENCODING 104
SWIDTH 501 0
DWIDTH 17 0
BBX 13 24 2 0
BITMAP
F000
F000
F000
F000
F000
F000
F000
F3E0
FFF0
FFF0
FCF8
F878
F078
F078
F078
F078
F078
F078
F078
F078
F078
F078
F078
F078
ENDCHAR

STARTCHAR i
ENCODING 105
SWIDTH 228 0
DWIDTH 8 0
BBX 4 24 2 0
BITMAP
F0
F0
F0
F0
00
00
00
F0
F0
F0
F0
F0
F0
F0
F0
F0
F0
F0
F0
F0
F0
F0
F0
F0
ENDCHAR

STARTCHAR j
ENCODING 106
SWIDTH 228 0
DWIDTH 8 0
BBX 7 31 -1 -7
BITMAP
1E
1E
1E
1E
00
00
00
1E
1E
1E
1E
1E
1E
1E
1E
1E
1E
1E
1E
1E
1E
1E
1E
1E
1E
1E
1E
7E
FC
FC
F8
ENDCHAR

STARTCHAR k
ENCODING 107
SWIDTH 456 0
DWIDTH 15 0
BBX 13 24 2 0
BITMAP
F000
F000
F000
F000
F000
F000
F000
F0F8
F1F0
F3E0
F3C0
F780
F780
FF00
FF80
FF80
FBC0
FBC0
F1E0
F1E0
F0F0
F0F0
F078
F078
ENDCHAR

STARTCHAR l
ENCODING 108
SWIDTH 228 0
DWIDTH 8 0
BBX 4 24 2 0
BITMAP
F0
F0
F0
F0
F0
F0
F0
F0
F0
F0
F0
F0
F0
F0
F0
F0
F0
F0
F0
F0
F0
F0
F0
F0
ENDCHAR

STARTCHAR m
ENCODING 109
SWIDTH 729 0
DWIDTH 24 0
BBX 21 17 1 0
BITMAP
F3E3E0
F7F7F0
FFFFF0
FCFCF8
F87878
F07878
F07878
F07878
F07878
F07878
F07878
F07878
F07878
F07878
F07878
F07878
F07878
ENDCHAR

STARTCHAR n
ENCODING 110
SWIDTH 501 0
DWIDTH 17 0
BBX 13 17 2 0
BITMAP
F3E0
FFF0
F7F0
FCF8
F878
F078
F078
F078
F078
F078
F078
F078
F078
F078
F078
F078
F078
ENDCHAR

STARTCHAR o
ENCODING 111
SWIDTH 501 0
DWIDTH 17 0
BBX 15 17 1 0
BITMAP
07C0
1FF0
3FF8
7FFC
783C
F83E
F01E
F01E
F01E
F01E
F01E
783C
783C
7FFC
3FF8
1FF0
07C0
ENDCHAR

STARTCHAR p
ENCODING 112
SWIDTH 501 0
DWIDTH 17 0
BBX 14 23 2 -6
BITMAP
F3C0
F7E0
F7F0
FFF8
F878
F03C
F03C
F03C
F03C
F03C
F03C
F03C
F878
FFF8
F7F0
F7E0
F1C0
F000
F000
F000
F000
F000
F000
ENDCHAR

STARTCHAR q
ENCODING 113
SWIDTH 501 0
DWIDTH 17 0
BBX 14 23 1 -6
BITMAP
1FBC
3FDC
7FDC
7C7C
787C
F03C
F03C
F03C
F03C
F03C
F03C
783C
787C
7FFC
3FDC
1FBC
0E3C
003C
003C
003C
003C
003C
003C
ENDCHAR

STARTCHAR r
ENCODING 114
SWIDTH 319 0
DWIDTH 11 0
BBX 9 17 2 0
BITMAP
F780
F780
F780
FF00
F900
F000
F000
F000
F000
F000
F000
F000
F000
F000
F000
F000
F000
ENDCHAR

STARTCHAR s
ENCODING 115
SWIDTH 456 0
DWIDTH 15 0
BBX 13 17 1 0
BITMAP
1FC0
3FE0
7FF0
70F0
7040
7C00
7F80
3FE0
1FF0
0FF8
00F8
3078
F078
78F0
7FF0
3FE0
0FC0
ENDCHAR

STARTCHAR t
ENCODING 116
SWIDTH 273 0
DWIDTH 9 0
BBX 9 23 0 0
BITMAP
0400
0C00
1C00
3C00
3C00
3C00
FF00
FF00
FF00
FF00
3C00
3C00
3C00
3C00
3C00
3C00
3C00
3C00
3C00
3F00
3F80
1F80
0F00
ENDCHAR

STARTCHAR u
ENCODING 117
SWIDTH 501 0
DWIDTH 17 0
BBX 13 17 2 0
BITMAP
F078
F078
F078
F078
F078
F078
F078
F078
F078
F078
F078
F078
F0F8
F9F8
7FB8
7FB8
3E78
ENDCHAR

STARTCHAR v
ENCODING 118
SWIDTH 456 0
DWIDTH 15 0
BBX 15 17 0 0
BITMAP
F01E
781C
783C
783C
3838
3C78
3C78
1C70
1EF0
1EF0
0EE0
0FE0
0FE0
07C0
07C0
07C0
0380
ENDCHAR

STARTCHAR w
ENCODING 119
SWIDTH 638 0
DWIDTH 21 0
BBX 21 17 0 0
BITMAP
F07078
F0F878
70F870
78F8F0
78F8F0
78F8F0
39DCE0
39DDE0
3DDDE0
1DDDC0
1DDEC0
1F8FC0
1F8FC0
0F8F80
0F8F80
0F0780
0F0780
ENDCHAR

STARTCHAR x
ENCODING 120
SWIDTH 456 0
DWIDTH 15 0
BBX 15 17 0 0
BITMAP
F83C
7C7C
3C78
3EF0
1EF0
0FE0
0FE0
07C0
07C0
0FE0
0FE0
1FF0
1EF0
3CF8
3C7C
783C
F83E
ENDCHAR

STARTCHAR y
ENCODING 121
SWIDTH 456 0
DWIDTH 15 0
BBX 15 24 0 -7
BITMAP
F01E
783C
783C
783C
3838
3C78
3C78
1C70
1E70
1EF0
0EF0
0EE0
0FE0
07E0
07C0
07C0
03C0
0780
0780
0F80
7F00
7F00
7E00
7800
ENDCHAR

STARTCHAR z
ENCODING 122
SWIDTH 410 0
DWIDTH 14 0
BBX 13 17 0 0
BITMAP
7FF8
7FF8
7FF8
7EF0
01F0
03E0
03C0
07C0
0F80
1F00
1E00
3E00
7800
FFF8
FFF8
FFF8
FFF8
ENDCHAR

STARTCHAR braceleft
ENCODING 123
SWIDTH 319 0
DWIDTH 11 0
BBX 9 31 1 -7
BITMAP
0780
0F80
1F80
1F80
1E00
1C00
1C00
1C00
1C00
1C00
1C00
3C00
3C00
F800
F800
F000
F800
F800
3C00
3C00
1C00
1C00
1C00
1C00
1C00
1C00
1E00
1F80
1F80
0F80
0780
ENDCHAR

STARTCHAR bar
ENCODING 124
SWIDTH 230 0
DWIDTH 8 0
BBX 3 31 2 -7
BITMAP
E0
E0
E0
E0
E0
E0
E0
E0
E0
E0
E0
E0
E0
E0
E0
E0
E0
E0
E0
E0
E0
E0
E0
E0
E0
E0
E0
E0
E0
E0
E0
ENDCHAR

STARTCHAR braceright
ENCODING 125
SWIDTH 319 0
DWIDTH 11 0
BBX 9 31 1 -7
BITMAP
F000
F800
FC00
FC00
3C00
1C00
1C00
1C00
1C00
1C00
1C00
1E00
1E00
0F80
0F80
0780
0F80
0F80
1E00
1E00
1C00
1C00
1C00
1C00
1C00
1C00
3C00
FC00
FC00
F800
F000
ENDCHAR

STARTCHAR asciitilde
ENCODING 126
SWIDTH 479 0
DWIDTH 16 0
BBX 14 6 1 9
BITMAP
3C04
FF8C
FFFC
FFFC
C3F8
80F0
ENDCHAR

STARTCHAR space
ENCODING 160
SWIDTH 228 0
DWIDTH 9 0
BBX 0 0 0 0
BITMAP
ENDCHAR

STARTCHAR Aogonek
ENCODING 161
SWIDTH 592 0
DWIDTH 20 0
BBX 21 31 0 -7
BITMAP
00F000
01F000
01F800
01F800
03F800
03FC00
03DC00
07BC00
07BE00
079E00
0F1E00
0F1E00
0F0F00
1E0F00
1E0F00
1FFF80
3FFF80
3FFF80
3FFFC0
7C03C0
7803C0
7803E0
7801E0
F001F0
000180
000180
000180
000180
0001C8
0001F8
0000F8
ENDCHAR

STARTCHAR afii240
ENCODING 162
SWIDTH 556 0
DWIDTH 18 0
BBX 16 17 2 0
BITMAP
F83F
F87C
F8F8
F9F0
FBF0
FBE0
FFC0
FFE0
FFE0
FEF0
FCF0
F8F8
F87C
F87C
F83E
F83E
F81F
ENDCHAR

STARTCHAR Rcommaaccent
ENCODING 163
SWIDTH 592 0
DWIDTH 20 0
BBX 18 31 2 -7
BITMAP
FFF800
FFFC00
FFFE00
FFFE00
F01F00
F00F00
F00F00
F00F00
F00F00
F01F00
FFFE00
FFFC00
FFF800
FFE000
F1F000
F0F800
F07C00
F07C00
F03E00
F03E00
F01F00
F00F00
F00F80
F007C0
000000
000000
038000
038000
018000
038000
030000
ENDCHAR

STARTCHAR currency
ENCODING 164
SWIDTH 456 0
DWIDTH 15 0
BBX 14 16 1 4
BITMAP
2010
77B8
FFFC
7FF8
7FF0
7878
7838
7038
7038
7878
7878
3FF8
7FF8
FFFC
77B8
2010
ENDCHAR

STARTCHAR Itilde
ENCODING 165
SWIDTH 228 0
DWIDTH 8 0
BBX 10 30 -1 0
BITMAP
30C0
7F80
7F80
C300
0000
0000
1E00
1E00
1E00
1E00
1E00
1E00
1E00
1E00
1E00
1E00
1E00
1E00
1E00
1E00
1E00
1E00
1E00
1E00
1E00
1E00
1E00
1E00
1E00
1E00
ENDCHAR

STARTCHAR Lcommaaccent
ENCODING 166
SWIDTH 501 0
DWIDTH 17 0
BBX 14 30 2 -7
BITMAP
F000
F000
F000
F000
F000
F000
F000
F000
F000
F000
F000
F000
F000
F000
F000
F000
F000
F000
F000
FFFC
FFFC
FFFC
FFFC
0000
0000
0700
0700
0300
0700
0600
ENDCHAR

STARTCHAR section
ENCODING 167
SWIDTH 456 0
DWIDTH 15 0
BBX 13 30 1 -6
BITMAP
1F80
3FE0
3FE0
78F0
78F0
7880
7C00
3E00
3F00
7F80
F7E0
F3F0
E1F0
E0F8
F078
F838
7C38
7E38
3F78
1FF0
07E0
03E0
01F0
0070
7878
7878
7CF8
3FF0
3FE0
0FC0
ENDCHAR

STARTCHAR hungarumlaut
ENCODING 168
SWIDTH 273 0
DWIDTH 9 0
BBX 11 5 1 19
BITMAP
3DE0
39C0
7380
7380
E700
ENDCHAR

STARTCHAR Scaron
ENCODING 169
SWIDTH 547 0
DWIDTH 18 0
BBX 16 30 1 0
BITMAP
0E78
0770
07E0
03C0
03C0
0000
07E0
1FF8
3FFC
3FFE
7C3E
781E
781E
7800
7E00
3FC0
3FF8
1FFC
07FE
01FE
003F
000F
F00F
780F
780F
7C3F
3FFE
3FFC
1FF8
07F0
ENDCHAR

STARTCHAR Emacron
ENCODING 170
SWIDTH 547 0
DWIDTH 18 0
BBX 15 30 2 0
BITMAP
1FF0
1FF0
1FF0
0000
0000
0000
FFFC
FFFC
FFFC
FFFC
F000
F000
F000
F000
F000
FFFC
FFFC
FFFC
FFFC
F000
F000
F000
F000
F000
F000
F000
FFFE
FFFE
FFFE
FFFE
ENDCHAR

STARTCHAR Gcommaaccent
ENCODING 171
SWIDTH 638 0
DWIDTH 21 0
BBX 18 31 1 -7
BITMAP
03F800
0FFE00
1FFF00
3FFF80
3E0F80
7C0780
7803C0
780200
F00000
F00000
F00000
F03FC0
F03FC0
F03FC0
F03FC0
F803C0
7803C0
7803C0
7C07C0
3E0FC0
3FFFC0
1FFF80
0FFE00
03F800
000000
000000
00E000
00E000
006000
00E000
00C000
ENDCHAR

STARTCHAR afii237
ENCODING 172
SWIDTH 611 0
DWIDTH 20 0
BBX 19 24 1 0
BITMAP
FFFFE0
FFFFE0
FFFFE0
FFFFE0
01F000
01F000
01F000
01F000
01F000
01F000
01F000
01F000
3FFF80
3FFF80
3FFF80
01F000
01F000
01F000
01F000
01F000
01F000
01F000
01F000
01F000
ENDCHAR

STARTCHAR hyphen
ENCODING 173
SWIDTH 273 0
DWIDTH 9 0
BBX 7 5 1 6
BITMAP
FE
FE
FE
FE
FE
ENDCHAR

STARTCHAR Zcaron
ENCODING 174
SWIDTH 501 0
DWIDTH 17 0
BBX 16 31 0 0
BITMAP
0E38
0E70
0760
07E0
03C0
0000
0000
7FFF
7FFF
7FFF
7FFF
003E
007C
007C
00F8
00F0
01F0
03E0
03C0
07C0
0F80
0F80
1F00
3E00
3E00
7C00
F800
FFFF
FFFF
FFFF
FFFF
ENDCHAR

STARTCHAR macron
ENCODING 175
SWIDTH 273 0
DWIDTH 9 0
BBX 9 3 0 20
BITMAP
FF80
FF80
FF80
ENDCHAR

STARTCHAR degree
ENCODING 176
SWIDTH 328 0
DWIDTH 11 0
BBX 8 11 1 13
BITMAP
38
7E
7E
E7
C3
C3
C3
E7
7E
7E
18
ENDCHAR

STARTCHAR aogonek
ENCODING 177
SWIDTH 456 0
DWIDTH 15 0
BBX 16 23 1 -6
BITMAP
1FE0
3FF0
7FF0
78F8
7078
0078
01F8
1FF8
3FF8
7C78
F078
F078
F0F8
F8F8
7FF8
7FB8
1E3C
0030
0030
0030
0039
003F
001F
ENDCHAR

STARTCHAR ogonek
ENCODING 178
SWIDTH 273 0
DWIDTH 9 0
BBX 6 8 2 -7
BITMAP
C0
C0
C0
C0
E0
FC
7C
38
ENDCHAR

STARTCHAR rcommaaccent
ENCODING 179
SWIDTH 319 0
DWIDTH 11 0
BBX 9 24 2 -7
BITMAP
F780
F780
F780
FF00
F900
F000
F000
F000
F000
F000
F000
F000
F000
F000
F000
F000
F000
0000
0000
3800
3800
1800
3800
3000
ENDCHAR

STARTCHAR acute
ENCODING 180
SWIDTH 273 0
DWIDTH 9 0
BBX 5 5 3 19
BITMAP
78
70
F0
E0
C0
ENDCHAR

STARTCHAR itilde
ENCODING 181
SWIDTH 228 0
DWIDTH 8 0
BBX 9 23 0 0
BITMAP
6180
FF80
FF00
8600
0000
0000
3C00
3C00
3C00
3C00
3C00
3C00
3C00
3C00
3C00
3C00
3C00
3C00
3C00
3C00
3C00
3C00
3C00
ENDCHAR

STARTCHAR lcommaaccent
ENCODING 182
SWIDTH 228 0
DWIDTH 8 0
BBX 4 31 2 -7
BITMAP
F0
F0
F0
F0
F0
F0
F0
F0
F0
F0
F0
F0
F0
F0
F0
F0
F0
F0
F0
F0
F0
F0
F0
F0
00
00
E0
E0
60
60
C0
ENDCHAR

STARTCHAR caron
ENCODING 183
SWIDTH 273 0
DWIDTH 9 0
BBX 9 5 0 19
BITMAP
E380
7700
3F00
3E00
1C00
ENDCHAR

STARTCHAR commaaccent
ENCODING 184
SWIDTH 333 0
DWIDTH 11 0
BBX 3 5 4 -7
BITMAP
E0
E0
60
E0
C0
ENDCHAR

STARTCHAR scaron
ENCODING 185
SWIDTH 456 0
DWIDTH 15 0
BBX 13 24 1 0
BITMAP
38E0
1DC0
0DC0
0F80
0780
0000
0000
1FC0
3FE0
7FF0
70F0
7040
7C00
7F80
3FE0
1FF0
0FF8
00F8
3078
F078
78F0
7FF0
3FE0
0FC0
ENDCHAR

STARTCHAR emacron
ENCODING 186
SWIDTH 456 0
DWIDTH 15 0
BBX 13 23 1 0
BITMAP
3FE0
3FE0
3FE0
0000
0000
0000
1F80
3FE0
3FE0
78F0
7070
F070
F078
FFF8
FFF8
FFF8
F000
F000
7878
78F0
3FF0
3FE0
0FC0
ENDCHAR

STARTCHAR gcommaaccent
ENCODING 187
SWIDTH 501 0
DWIDTH 17 0
BBX 14 32 1 -7
BITMAP
0100
0300
0600
0600
0700
0700
0000
0000
1F3C
3FBC
7FFC
78FC
787C
F03C
F03C
F03C
F03C
F03C
F03C
F07C
78FC
7FFC
3FDC
3FBC
0E3C
003C
603C
787C
7CF8
7FF8
3FF0
1FE0
ENDCHAR

STARTCHAR afii253
ENCODING 188
SWIDTH 333 0
DWIDTH 11 0
BBX 10 23 0 0
BITMAP
0200
0E00
1E00
3E00
3E00
3E00
FFC0
FFC0
FFC0
FFC0
3E00
3E00
3E00
FFC0
FFC0
FFC0
3E00
3E00
3E00
3FC0
1FC0
1FC0
0780
ENDCHAR

STARTCHAR afii238
ENCODING 189
SWIDTH 723 0
DWIDTH 24 0
BBX 20 24 2 0
BITMAP
F87E00
F9FF80
FBFFC0
FBFFC0
FF0FE0
FE03E0
FC03E0
F801F0
F801F0
F801F0
F801F0
F801F0
F801F0
F801F0
F801F0
F801F0
F801F0
F801F0
F803E0
F823E0
F87FE0
F87FC0
F8FF80
F83E00
ENDCHAR

STARTCHAR zcaron
ENCODING 190
SWIDTH 410 0
DWIDTH 14 0
BBX 13 24 0 0
BITMAP
38E0
1DC0
0EC0
0F80
0780
0000
0000
7FF8
7FF8
7FF8
7EF0
01F0
03E0
03C0
07C0
0F80
1F00
1E00
3E00
7800
FFF8
FFF8
FFF8
FFF8
ENDCHAR

STARTCHAR afii254
ENCODING 191
SWIDTH 611 0
DWIDTH 20 0
BBX 16 24 2 -7
BITMAP
F1F8
F7FC
F7FE
FE3F
FC1F
F81F
F81F
F81F
F81F
F81F
F81F
F81F
F81F
F81F
F81F
F81F
F81F
001F
001F
00BF
00FF
00FE
00FE
00F8
ENDCHAR

STARTCHAR Amacron
ENCODING 192
SWIDTH 592 0
DWIDTH 20 0
BBX 20 29 0 0
BITMAP
03FC00
03FC00
03FC00
000000
000000
01F000
01F000
01F800
03F800
03F800
03FC00
03BC00
07BC00
079E00
071E00
0F1E00
0F0F00
0E0F00
1E0F00
1FFF00
1FFF80
3FFF80
3FFF80
3C03C0
7803C0
7803C0
7801E0
F801E0
F001F0
ENDCHAR

STARTCHAR Aacute
ENCODING 193
SWIDTH 592 0
DWIDTH 20 0
BBX 20 30 0 0
BITMAP
007C00
007000
00F000
00E000
000000
000000
01F000
01F000
01F800
03F800
03F800
03FC00
03BC00
07BC00
079E00
071E00
0F1E00
0F0F00
0E0F00
1E0F00
1FFF00
1FFF80
3FFF80
3FFF80
3C03C0
7803C0
7803C0
7801E0
F801E0
F001F0
ENDCHAR

STARTCHAR Acircumflex
ENCODING 194
SWIDTH 592 0
DWIDTH 20 0
BBX 20 30 0 0
BITMAP
01F000
01F800
03B800
079C00
000000
000000
01F000
01F000
01F800
03F800
03F800
03FC00
03BC00
07BC00
079E00
071E00
0F1E00
0F0F00
0E0F00
1E0F00
1FFF00
1FFF80
3FFF80
3FFF80
3C03C0
7803C0
7803C0
7801E0
F801E0
F001F0
ENDCHAR

STARTCHAR Atilde
ENCODING 195
SWIDTH 592 0
DWIDTH 20 0
BBX 20 30 0 0
BITMAP
038C00
03FC00
07FC00
063800
000000
000000
01F000
01F000
01F800
03F800
03F800
03FC00
03BC00
07BC00
079E00
071E00
0F1E00
0F0F00
0E0F00
1E0F00
1FFF00
1FFF80
3FFF80
3FFF80
3C03C0
7803C0
7803C0
7801E0
F801E0
F001F0
ENDCHAR

STARTCHAR Adieresis
ENCODING 196
SWIDTH 592 0
DWIDTH 20 0
BBX 19 31 0 0
BITMAP
071C00
071C00
071C00
071C00
000000
000000
000000
01F000
01F000
03F000
03F800
03F800
07F800
07BC00
07BC00
0F3C00
0F1E00
0F1E00
0E1E00
1E0F00
1E0F00
1FFF00
3FFF80
3FFF80
3FFF80
7803C0
7803C0
7803C0
F003E0
F001E0
F001E0
ENDCHAR

STARTCHAR Aring
ENCODING 197
SWIDTH 592 0
DWIDTH 20 0
BBX 19 32 0 0
BITMAP
00E000
01F000
01B000
011000
01B000
01F000
00E000
000000
01F000
01F000
03F000
03F800
03F800
07F800
07BC00
07BC00
073C00
0F1E00
0F1E00
0E1E00
1E0F00
1E0F00
1FFF00
3FFF80
3FFF80
3FFF80
7803C0
7803C0
7803C0
F003E0
F001E0
F001E0
ENDCHAR

STARTCHAR AE
ENCODING 198
SWIDTH 820 0
DWIDTH 27 0
BBX 27 24 -1 0
BITMAP
007FFFE0
00FFFFE0
00FFFFE0
00FFFFE0
01E78000
01E78000
01C78000
03C78000
03C78000
0787FFC0
0787FFC0
0787FFC0
0F07FFC0
0F078000
0FFF8000
1FFF8000
1FFF8000
3FFF8000
3C078000
3C078000
7C07FFE0
7807FFE0
7807FFE0
F807FFE0
ENDCHAR

STARTCHAR Iogonek
ENCODING 199
SWIDTH 228 0
DWIDTH 8 0
BBX 6 31 2 -7
BITMAP
F0
F0
F0
F0
F0
F0
F0
F0
F0
F0
F0
F0
F0
F0
F0
F0
F0
F0
F0
F0
F0
F0
F0
F0
C0
C0
C0
C0
E4
FC
7C
ENDCHAR

STARTCHAR Ccaron
ENCODING 200
SWIDTH 592 0
DWIDTH 20 0
BBX 17 30 1 0
BITMAP
0E7800
077000
03E000
03E000
000000
000000
03F000
0FFC00
1FFE00
3FFF00
3E1F00
7C0F80
780F80
780400
F00000
F00000
F00000
F00000
F00000
F00000
F00000
F00400
780780
780F80
7C0F00
3E3F00
3FFE00
1FFE00
0FFC00
03F000
ENDCHAR

STARTCHAR Eacute
ENCODING 201
SWIDTH 547 0
DWIDTH 18 0
BBX 15 31 2 0
BITMAP
01E0
01E0
03C0
0380
0700
0000
0000
FFFC
FFFC
FFFC
FFFC
F000
F000
F000
F000
F000
FFFC
FFFC
FFFC
FFFC
F000
F000
F000
F000
F000
F000
F000
FFFE
FFFE
FFFE
FFFE
ENDCHAR

STARTCHAR Eogonek
ENCODING 202
SWIDTH 547 0
DWIDTH 18 0
BBX 15 31 2 -7
BITMAP
FFFC
FFFC
FFFC
FFFC
F000
F000
F000
F000
F000
FFFC
FFFC
FFFC
FFFC
F000
F000
F000
F000
F000
F000
F000
FFFE
FFFE
FFFE
FFFE
0060
0060
0060
0060
0072
007E
003E
ENDCHAR

STARTCHAR Edieresis
ENCODING 203
SWIDTH 547 0
DWIDTH 18 0
BBX 15 31 2 0
BITMAP
1C70
1C70
1C70
1C70
0000
0000
0000
FFFE
FFFE
FFFE
FFFE
F000
F000
F000
F000
F000
FFFC
FFFC
FFFC
FFFC
F000
F000
F000
F000
F000
F000
F000
FFFE
FFFE
FFFE
FFFE
ENDCHAR

STARTCHAR Edotaccent
ENCODING 204
SWIDTH 547 0
DWIDTH 18 0
BBX 14 30 2 0
BITMAP
0780
0780
0780
0780
0000
0000
FFFC
FFFC
FFFC
FFFC
F000
F000
F000
F000
F000
FFF8
FFF8
FFF8
FFF8
F000
F000
F000
F000
F000
F000
F000
FFFC
FFFC
FFFC
FFFC
ENDCHAR

STARTCHAR Iacute
ENCODING 205
SWIDTH 228 0
DWIDTH 8 0
BBX 6 30 2 0
BITMAP
7C
70
70
E0
00
00
F0
F0
F0
F0
F0
F0
F0
F0
F0
F0
F0
F0
F0
F0
F0
F0
F0
F0
F0
F0
F0
F0
F0
F0
ENDCHAR

STARTCHAR Icircumflex
ENCODING 206
SWIDTH 228 0
DWIDTH 8 0
BBX 8 30 0 0
BITMAP
3C
7E
76
E7
00
00
3C
3C
3C
3C
3C
3C
3C
3C
3C
3C
3C
3C
3C
3C
3C
3C
3C
3C
3C
3C
3C
3C
3C
3C
ENDCHAR

STARTCHAR Imacron
ENCODING 207
SWIDTH 228 0
DWIDTH 8 0
BBX 8 29 0 0
BITMAP
FF
FF
FF
00
00
3C
3C
3C
3C
3C
3C
3C
3C
3C
3C
3C
3C
3C
3C
3C
3C
3C
3C
3C
3C
3C
3C
3C
3C
ENDCHAR

STARTCHAR Eth
ENCODING 208
SWIDTH 592 0
DWIDTH 20 0
BBX 18 24 0 0
BITMAP
3FF800
3FFE00
3FFE00
3FFF00
3C1F80
3C0780
3C0780
3C03C0
3C03C0
3C03C0
3C03C0
FFC3C0
FFC3C0
FFC3C0
3C03C0
3C03C0
3C03C0
3C0780
3C0780
3C0F80
3FFF00
3FFF00
3FFC00
3FF800
ENDCHAR

STARTCHAR Ncommaaccent
ENCODING 209
SWIDTH 592 0
DWIDTH 20 0
BBX 16 31 2 -7
BITMAP
F00F
F80F
F80F
FC0F
FC0F
FE0F
FE0F
FF0F
F70F
F78F
F78F
F7CF
F3CF
F3EF
F1EF
F1F7
F0FF
F0FF
F07F
F07F
F03F
F03F
F01F
F00F
0000
0000
0380
0380
0180
0180
0300
ENDCHAR

STARTCHAR Omacron
ENCODING 210
SWIDTH 638 0
DWIDTH 21 0
BBX 19 29 1 0
BITMAP
07FC00
07FC00
07FC00
000000
000000
03F800
0FFE00
1FFF00
3FFF80
3E0F80
7C07C0
7803C0
7803E0
F001E0
F001E0
F001E0
F001E0
F001E0
F001E0
F001E0
F801E0
F803E0
7803C0
7C07C0
3E0F80
3FFF80
1FFF00
0FFE00
03F800
ENDCHAR

STARTCHAR Kcommaaccent
ENCODING 211
SWIDTH 592 0
DWIDTH 20 0
BBX 17 31 2 -7
BITMAP
F01F80
F01F00
F03E00
F07C00
F0FC00
F0F800
F1F000
F3E000
F7C000
F7C000
F7C000
FFE000
FFE000
FDF000
FCF000
F8F800
F07800
F07C00
F03E00
F03E00
F01F00
F01F00
F00F80
F00F80
000000
000000
038000
038000
018000
018000
030000
ENDCHAR

STARTCHAR Ocircumflex
ENCODING 212
SWIDTH 638 0
DWIDTH 21 0
BBX 19 30 1 0
BITMAP
01F000
01F000
03B800
07BC00
000000
000000
03F800
0FFE00
1FFF00
3FFF80
3E0F80
7C07C0
7803C0
7803E0
F001E0
F001E0
F001E0
F001E0
F001E0
F001E0
F001E0
F801E0
F803E0
7803C0
7C07C0
3E0F80
3FFF80
1FFF00
0FFE00
03F800
ENDCHAR

STARTCHAR Otilde
ENCODING 213
SWIDTH 638 0
DWIDTH 21 0
BBX 19 30 1 0
BITMAP
038C00
07FC00
07FC00
063800
000000
000000
03F800
0FFE00
1FFF00
3FFF80
3E0F80
7C07C0
7803C0
7803E0
F001E0
F001E0
F001E0
F001E0
F001E0
F001E0
F001E0
F801E0
F803E0
7803C0
7C07C0
3E0F80
3FFF80
1FFF00
0FFE00
03F800
ENDCHAR

STARTCHAR Odieresis
ENCODING 214
SWIDTH 638 0
DWIDTH 21 0
BBX 19 30 1 0
BITMAP
071C00
071C00
071C00
071C00
000000
000000
03F000
0FFE00
1FFF00
3FFF80
3E0F80
7C07C0
7803C0
7803E0
F001E0
F001E0
F001E0
F001E0
F001E0
F001E0
F001E0
F001E0
F803E0
7803C0
7C07C0
3E0F80
3FFF80
1FFF00
0FFE00
03F800
ENDCHAR

STARTCHAR multiply
ENCODING 215
SWIDTH 479 0
DWIDTH 16 0
BBX 12 16 2 4
BITMAP
2020
6060
F0F0
F1F0
F9F0
7FE0
3FC0
1F00
1F80
1F80
3FC0
7DE0
F9F0
F0F0
6060
4060
ENDCHAR

STARTCHAR Oslash
ENCODING 216
SWIDTH 638 0
DWIDTH 21 0
BBX 19 26 1 -1
BITMAP
000040
03F860
0FFEE0
1FFFC0
3FFFC0
3E0F80
7C07C0
780FC0
F81FE0
F03DE0
F039E0
F071E0
F0F1E0
F1E1E0
F1C1E0
F381E0
FB81E0
7F03E0
7E03C0
7C07C0
3E0F80
7FFF80
7FFF00
E7FC00
E3F000
400000
ENDCHAR

STARTCHAR Uogonek
ENCODING 217
SWIDTH 592 0
DWIDTH 20 0
BBX 16 30 2 -6
BITMAP
F00F
F00F
F00F
F00F
F00F
F00F
F00F
F00F
F00F
F00F
F00F
F00F
F00F
F00F
F00F
F00F
F00F
F00F
781F
7C3E
7FFE
3FFC
1FF8
07E0
0300
0300
0300
0390
03F0
01F0
ENDCHAR

STARTCHAR Uacute
ENCODING 218
SWIDTH 592 0
DWIDTH 20 0
BBX 16 30 2 0
BITMAP
01F0
01E0
01C0
0380
0000
0000
F00F
F00F
F00F
F00F
F00F
F00F
F00F
F00F
F00F
F00F
F00F
F00F
F00F
F00F
F00F
F00F
F00F
F00F
F81F
7C3E
7FFE
3FFC
1FF8
07E0
ENDCHAR

STARTCHAR Ucircumflex
ENCODING 219
SWIDTH 592 0
DWIDTH 20 0
BBX 16 30 2 0
BITMAP
03C0
07E0
0F70
1E78
0000
0000
F00F
F00F
F00F
F00F
F00F
F00F
F00F
F00F
F00F
F00F
F00F
F00F
F00F
F00F
F00F
F00F
F00F
F00F
F81F
7C3E
7FFE
3FFC
1FF8
07E0
ENDCHAR

STARTCHAR Udieresis
ENCODING 220
SWIDTH 592 0
DWIDTH 20 0
BBX 15 31 2 0
BITMAP
1C70
1C70
1C70
1C70
0000
0000
0000
F01E
F01E
F01E
F01E
F01E
F01E
F01E
F01E
F01E
F01E
F01E
F01E
F01E
F01E
F01E
F01E
F01E
F01E
F83E
7C7C
7FFC
3FF8
1FF0
0FE0
ENDCHAR

STARTCHAR Utilde
ENCODING 221
SWIDTH 592 0
DWIDTH 20 0
BBX 16 30 2 0
BITMAP
0618
0FF8
1FF0
1870
0000
0000
F00F
F00F
F00F
F00F
F00F
F00F
F00F
F00F
F00F
F00F
F00F
F00F
F00F
F00F
F00F
F00F
F00F
F00F
F81F
7C3E
7FFE
3FFC
1FF8
07F0
ENDCHAR

STARTCHAR Umacron
ENCODING 222
SWIDTH 592 0
DWIDTH 20 0
BBX 16 29 2 0
BITMAP
0FF0
0FF0
0FF0
0000
0000
F00F
F00F
F00F
F00F
F00F
F00F
F00F
F00F
F00F
F00F
F00F
F00F
F00F
F00F
F00F
F00F
F00F
F00F
F81F
7C3E
7FFE
3FFC
1FF8
07E0
ENDCHAR

STARTCHAR germandbls
ENCODING 223
SWIDTH 501 0
DWIDTH 17 0
BBX 14 24 1 0
BITMAP
1FC0
3FE0
7FF0
79F0
F0F0
F0F0
F1F0
F1E0
F1E0
F3C0
F3C0
F3C0
F3E0
F1F0
F0F8
F078
F07C
F03C
F03C
F13C
F7FC
F3F8
F3F0
F0E0
ENDCHAR

STARTCHAR amacron
ENCODING 224
SWIDTH 456 0
DWIDTH 15 0
BBX 14 23 1 0
BITMAP
1FE0
1FE0
1FE0
0000
0000
0000
1FE0
3FF0
7FF0
78F8
7078
0078
01F8
1FF8
3FF8
7C78
F078
F078
F0F8
F8F8
7FF8
7FB8
1E3C
ENDCHAR

STARTCHAR aacute
ENCODING 225
SWIDTH 456 0
DWIDTH 15 0
BBX 14 24 1 0
BITMAP
01E0
03C0
0380
0700
0700
0000
0000
1FE0
3FF0
7FF0
78F8
7078
0078
01F8
1FF8
3FF8
7C78
F078
F078
F0F8
F8F8
7FF8
7FB8
1E3C
ENDCHAR

STARTCHAR acircumflex
ENCODING 226
SWIDTH 456 0
DWIDTH 15 0
BBX 14 24 1 0
BITMAP
0780
0F80
0FC0
1DE0
3CF0
0000
0000
1FE0
3FF0
7FF0
78F8
7078
0078
01F8
1FF8
3FF8
7C78
F078
F078
F0F8
F8F8
7FF8
7FB8
1E3C
ENDCHAR

STARTCHAR atilde
ENCODING 227
SWIDTH 456 0
DWIDTH 15 0
BBX 14 23 1 0
BITMAP
1C30
1FE0
3FE0
30C0
0000
0000
1FE0
3FF0
7FF0
78F8
7078
0078
01F8
1FF8
3FF8
7C78
F078
F078
F0F8
F8F8
7FF8
7FB8
1E3C
ENDCHAR

STARTCHAR adieresis
ENCODING 228
SWIDTH 456 0
DWIDTH 15 0
BBX 14 24 1 0
BITMAP
38E0
38E0
38E0
38E0
0000
0000
0000
1FE0
3FF0
3FF0
78F8
7878
0078
01F8
1FF8
3FF8
7C78
F078
F078
F0F8
F8F8
7FF8
7FB8
1E3C
ENDCHAR

STARTCHAR aring
ENCODING 229
SWIDTH 456 0
DWIDTH 15 0
BBX 14 25 1 0
BITMAP
0700
0F80
0C80
0880
0D80
0F80
0700
0000
1FE0
3FF0
7FF0
78F8
7078
0078
01F8
1FF8
3FF8
7E78
F078
F078
F0F8
F8F8
7FF8
7FB8
1E3C
ENDCHAR

STARTCHAR ae
ENCODING 230
SWIDTH 729 0
DWIDTH 24 0
BBX 22 17 1 0
BITMAP
1FE7C0
3FFFF0
7FFFF0
78FC78
707838
007838
01F83C
0FFFFC
3FFFFC
7E7FFC
F87800
F07800
F07C3C
F8FE78
7FFFF8
7FDFF0
3F07E0
ENDCHAR

STARTCHAR iogonek
ENCODING 231
SWIDTH 228 0
DWIDTH 8 0
BBX 6 31 2 -7
BITMAP
F0
F0
F0
F0
00
00
00
F0
F0
F0
F0
F0
F0
F0
F0
F0
F0
F0
F0
F0
F0
F0
F0
F0
C0
C0
C0
C0
E4
FC
7C
ENDCHAR

STARTCHAR ccaron
ENCODING 232
SWIDTH 456 0
DWIDTH 15 0
BBX 13 24 1 0
BITMAP
38E0
1DC0
0EC0
0F80
0780
0000
0000
0FC0
3FF0
3FF0
7CF8
7878
F060
F000
F000
F000
F000
F020
F878
7878
7FF0
3FF0
1FE0
0780
ENDCHAR

STARTCHAR eacute
ENCODING 233
SWIDTH 456 0
DWIDTH 15 0
BBX 13 24 1 0
BITMAP
03C0
0380
0780
0700
0600
0000
0000
1F80
3FE0
3FE0
78F0
7070
F070
F078
FFF8
FFF8
FFF8
F000
F000
7878
78F0
3FF0
3FE0
0FC0
ENDCHAR

STARTCHAR eogonek
ENCODING 234
SWIDTH 456 0
DWIDTH 15 0
BBX 13 24 1 -7
BITMAP
1F80
3FC0
3FE0
78F0
7070
F070
F078
FFF8
FFF8
FFF8
F000
F000
7078
78F0
3FF0
3FE0
0FC0
0600
0600
0600
0600
0720
07E0
03E0
ENDCHAR

STARTCHAR edieresis
ENCODING 235
SWIDTH 456 0
DWIDTH 15 0
BBX 13 24 1 0
BITMAP
38E0
38E0
38E0
38E0
0000
0000
0000
0FC0
3FE0
3FF0
7CF0
7870
F038
F038
FFF8
FFF8
FFF8
F000
F000
7878
7CF0
3FF0
3FE0
0FC0
ENDCHAR

STARTCHAR edotaccent
ENCODING 236
SWIDTH 456 0
DWIDTH 15 0
BBX 14 24 1 0
BITMAP
0780
0780
0780
0780
0000
0000
0000
0FC0
3FE0
3FF0
7CF8
7878
F038
F03C
FFFC
FFFC
FFFC
F000
F000
787C
7CF8
3FF8
3FF0
0FC0
ENDCHAR

STARTCHAR iacute
ENCODING 237
SWIDTH 228 0
DWIDTH 8 0
BBX 6 24 2 0
BITMAP
3C
78
70
60
E0
00
00
F0
F0
F0
F0
F0
F0
F0
F0
F0
F0
F0
F0
F0
F0
F0
F0
F0
ENDCHAR

STARTCHAR icircumflex
ENCODING 238
SWIDTH 228 0
DWIDTH 8 0
BBX 9 24 0 0
BITMAP
3C00
3E00
7E00
E700
E780
0000
0000
3C00
3C00
3C00
3C00
3C00
3C00
3C00
3C00
3C00
3C00
3C00
3C00
3C00
3C00
3C00
3C00
3C00
ENDCHAR

STARTCHAR imacron
ENCODING 239
SWIDTH 228 0
DWIDTH 8 0
BBX 8 23 0 0
BITMAP
FF
FF
FF
00
00
00
3C
3C
3C
3C
3C
3C
3C
3C
3C
3C
3C
3C
3C
3C
3C
3C
3C
ENDCHAR

STARTCHAR dcroat
ENCODING 240
SWIDTH 501 0
DWIDTH 17 0
BBX 15 24 1 0
BITMAP
003C
003C
03FE
03FE
003C
003C
063C
1FBC
3FDC
7FFC
7CFC
F87C
F03C
F03C
F03C
F03C
F03C
F03C
783C
787C
7FFC
3FDC
1FBC
0F3C
ENDCHAR

STARTCHAR ncommaaccent
ENCODING 241
SWIDTH 501 0
DWIDTH 17 0
BBX 13 24 2 -7
BITMAP
F3E0
FFF0
F7F0
FCF8
F878
F078
F078
F078
F078
F078
F078
F078
F078
F078
F078
F078
F078
0000
0000
0700
0700
0300
0700
0600
ENDCHAR

STARTCHAR omacron
ENCODING 242
SWIDTH 501 0
DWIDTH 17 0
BBX 15 23 1 0
BITMAP
1FF0
1FF0
1FF0
0000
0000
0000
07C0
1FF0
3FF8
7FFC
783C
F83E
F01E
F01E
F01E
F01E
F01E
783C
783C
7FFC
3FF8
1FF0
07C0
ENDCHAR

STARTCHAR kcommaaccent
ENCODING 243
SWIDTH 456 0
DWIDTH 15 0
BBX 13 31 2 -7
BITMAP
F000
F000
F000
F000
F000
F000
F000
F0F8
F1E0
F3E0
F3C0
F780
F700
FF00
FF00
FF80
FB80
FBC0
F3C0
F1E0
F1E0
F0F0
F0F0
F078
0000
0000
0E00
0E00
0600
0600
0C00
ENDCHAR

STARTCHAR ocircumflex
ENCODING 244
SWIDTH 501 0
DWIDTH 17 0
BBX 15 23 1 0
BITMAP
07C0
07C0
0EE0
1EF0
0000
0000
07C0
1FF0
3FF8
7FFC
783C
F83E
F01E
F01E
F01E
F01E
F01E
783C
783C
7FFC
3FF8
1FF0
07C0
ENDCHAR

STARTCHAR otilde
ENCODING 245
SWIDTH 501 0
DWIDTH 17 0
BBX 15 23 1 0
BITMAP
0E30
1FF0
1FF0
18E0
0000
0000
07C0
1FF0
3FF8
7FFC
783C
F83E
F01E
F01E
F01E
F01E
F01E
783C
783C
7FFC
3FF8
1FF0
07C0
ENDCHAR

STARTCHAR odieresis
ENCODING 246
SWIDTH 501 0
DWIDTH 17 0
BBX 15 24 1 0
BITMAP
1C70
1C70
1C70
1C70
0000
0000
0000
07C0
1FF0
3FF8
7FFC
783C
F83E
F01E
F01E
F01E
F01E
F01E
783C
783C
7FFC
3FF8
1FF0
07C0
ENDCHAR

STARTCHAR divide
ENCODING 247
SWIDTH 479 0
DWIDTH 16 0
BBX 14 18 1 3
BITMAP
0780
0780
0780
0780
0780
0000
0000
FFFC
FFFC
FFFC
FFFC
0000
0000
0780
0780
0780
0780
0780
ENDCHAR

STARTCHAR oslash
ENCODING 248
SWIDTH 501 0
DWIDTH 17 0
BBX 15 19 1 -1
BITMAP
0004
0FEE
1FFC
3FF8
7C3C
787C
70FC
F0DE
F1DE
F39E
F71E
F61E
7E1C
783C
7C7C
3FF8
7FF0
EFE0
4000
ENDCHAR

STARTCHAR uogonek
ENCODING 249
SWIDTH 501 0
DWIDTH 17 0
BBX 15 24 2 -7
BITMAP
F078
F078
F078
F078
F078
F078
F078
F078
F078
F078
F078
F078
F0F8
F9F8
7FB8
7FB8
3E78
0060
0060
0060
0060
0072
007E
003E
ENDCHAR

STARTCHAR uacute
ENCODING 250
SWIDTH 501 0
DWIDTH 17 0
BBX 13 24 2 0
BITMAP
03C0
03C0
0780
0700
0600
0000
0000
F078
F078
F078
F078
F078
F078
F078
F078
F078
F078
F078
F078
F0F8
F9F8
7FB8
7FB8
3E78
ENDCHAR

STARTCHAR ucircumflex
ENCODING 251
SWIDTH 501 0
DWIDTH 17 0
BBX 13 24 2 0
BITMAP
0700
0F80
1FC0
1DC0
38E0
0000
0000
F078
F078
F078
F078
F078
F078
F078
F078
F078
F078
F078
F078
F0F8
F9F8
7FB8
7FB8
3E78
ENDCHAR

STARTCHAR udieresis
ENCODING 252
SWIDTH 501 0
DWIDTH 17 0
BBX 13 24 2 0
BITMAP
38E0
38E0
38E0
38E0
0000
0000
0000
F078
F078
F078
F078
F078
F078
F078
F078
F078
F078
F078
F078
F0F8
F9F8
7FB8
7FB8
3E78
ENDCHAR

STARTCHAR utilde
ENCODING 253
SWIDTH 501 0
DWIDTH 17 0
BBX 13 23 2 0
BITMAP
1C60
3FE0
3FE0
30C0
0000
0000
F078
F078
F078
F078
F078
F078
F078
F078
F078
F078
F078
F078
F0F8
F9F8
7FB8
7FB8
3E78
ENDCHAR

STARTCHAR umacron
ENCODING 254
SWIDTH 501 0
DWIDTH 17 0
BBX 13 23 2 0
BITMAP
3FE0
3FE0
3FE0
0000
0000
0000
F078
F078
F078
F078
F078
F078
F078
F078
F078
F078
F078
F078
F0F8
F9F8
7FB8
7FB8
3E78
ENDCHAR

STARTCHAR dotaccent
ENCODING 255
SWIDTH 273 0
DWIDTH 9 0
BBX 4 4 3 20
BITMAP
F0
F0
F0
F0
ENDCHAR

ENDFONT
