STARTFONT 2.1
FONT -Monotype-Bookman Old Style-Bold-R-Normal--19-140-100-100-P-100-iso8859-4
SIZE 14 100 100
FONTBOUNDINGBOX 26 22 -4 -5

STARTPROPERTIES 24
FOUNDRY "Monotype"
FAMILY_NAME "Bookman Old Style"
WEIGHT_NAME "Bold"
SLANT "R"
SETWIDTH_NAME "Normal"
ADD_STYLE_NAME ""
PIXEL_SIZE 19
POINT_SIZE 140
RESOLUTION_X 100
RESOLUTION_Y 100
SPACING "P"
AVERAGE_WIDTH 100
CHARSET_REGISTRY "iso8859"
CHARSET_ENCODING "4"
FACE_NAME "Bookman Old Style Bold ISO Latin4"
_DEC_DEVICE_FONTNAMES "PS=bookmanoldstyle-b-lat4"
COPYRIGHT "Copyright (c) 1994 Monotype Typography Ltd."
CAP_HEIGHT 15
X_HEIGHT 11
WEIGHT 10
QUAD_WIDTH 14
DEFAULT_CHAR 160
FONT_DESCENT 5
FONT_ASCENT 18
ENDPROPERTIES

CHARS 191

STARTCHAR space
ENCODING 32
SWIDTH 340 0
DWIDTH 6 0
BBX 0 0 0 0
BITMAP
ENDCHAR

STARTCHAR exclam
ENCODING 33
SWIDTH 360 0
DWIDTH 7 0
BBX 4 14 2 0
BITMAP
60
F0
F0
F0
60
60
60
60
60
60
00
E0
E0
E0
ENDCHAR

STARTCHAR quotedbl
ENCODING 34
SWIDTH 420 0
DWIDTH 8 0
BBX 5 6 1 7
BITMAP
48
D8
D8
D8
D8
48
ENDCHAR

STARTCHAR numbersign
ENCODING 35
SWIDTH 600 0
DWIDTH 11 0
BBX 9 13 1 0
BITMAP
1B00
1B00
1B00
1B00
7F80
7F80
3600
FF80
FF80
3600
3600
3600
3600
ENDCHAR

STARTCHAR dollar
ENCODING 36
SWIDTH 660 0
DWIDTH 13 0
BBX 10 17 2 -2
BITMAP
0C00
0C00
3D00
7F80
FF80
ED80
EC00
7E00
3F80
1FC0
0FC0
CDC0
EDC0
FF80
5F00
0C00
0C00
ENDCHAR

STARTCHAR percent
ENCODING 37
SWIDTH 940 0
DWIDTH 18 0
BBX 16 13 1 0
BITMAP
7C18
EE10
C630
C660
C640
EEC0
7DBE
0177
0363
0663
0463
0C77
183E
ENDCHAR

STARTCHAR ampersand
ENCODING 38
SWIDTH 800 0
DWIDTH 15 0
BBX 14 13 1 0
BITMAP
1E00
3F00
3300
3300
1E78
7F78
7330
E360
E3F8
E3DC
F18C
7FF8
3E70
ENDCHAR

STARTCHAR quoteright
ENCODING 39
SWIDTH 320 0
DWIDTH 6 0
BBX 4 6 1 8
BITMAP
60
F0
70
30
60
C0
ENDCHAR

STARTCHAR parenleft
ENCODING 40
SWIDTH 320 0
DWIDTH 6 0
BBX 4 18 1 -4
BITMAP
10
30
70
60
60
E0
E0
E0
E0
E0
E0
E0
E0
60
60
70
30
10
ENDCHAR

STARTCHAR parenright
ENCODING 41
SWIDTH 320 0
DWIDTH 6 0
BBX 4 18 1 -4
BITMAP
80
C0
E0
60
60
70
70
70
70
70
70
70
70
60
60
E0
C0
80
ENDCHAR

STARTCHAR asterisk
ENCODING 42
SWIDTH 460 0
DWIDTH 9 0
BBX 8 7 0 6
BITMAP
18
18
DB
FF
18
76
66
ENDCHAR

STARTCHAR plus
ENCODING 43
SWIDTH 600 0
DWIDTH 11 0
BBX 10 10 1 1
BITMAP
0C00
0C00
0C00
0C00
FFC0
FFC0
0C00
0C00
0C00
0C00
ENDCHAR

STARTCHAR comma
ENCODING 44
SWIDTH 340 0
DWIDTH 6 0
BBX 4 6 1 -3
BITMAP
60
F0
70
30
60
C0
ENDCHAR

STARTCHAR minus
ENCODING 45
SWIDTH 600 0
DWIDTH 11 0
BBX 9 2 1 5
BITMAP
FF80
FF80
ENDCHAR

STARTCHAR period
ENCODING 46
SWIDTH 340 0
DWIDTH 6 0
BBX 3 3 2 0
BITMAP
E0
E0
E0
ENDCHAR

STARTCHAR slash
ENCODING 47
SWIDTH 600 0
DWIDTH 11 0
BBX 7 18 2 -4
BITMAP
06
06
0E
0C
0C
1C
18
18
38
30
30
70
60
60
E0
C0
C0
C0
ENDCHAR

STARTCHAR zero
ENCODING 48
SWIDTH 660 0
DWIDTH 13 0
BBX 11 13 1 0
BITMAP
1F00
3F80
71C0
71C0
E0E0
E0E0
E0E0
E0E0
E0E0
71C0
71C0
3F80
1F00
ENDCHAR

STARTCHAR one
ENCODING 49
SWIDTH 660 0
DWIDTH 13 0
BBX 7 13 4 0
BITMAP
18
F8
F8
38
38
38
38
38
38
38
38
FE
FE
ENDCHAR

STARTCHAR two
ENCODING 50
SWIDTH 660 0
DWIDTH 13 0
BBX 10 14 2 -1
BITMAP
3E00
7F80
E3C0
C1C0
C1C0
01C0
0380
0700
1E00
38C0
7FC0
FFC0
FFC0
00C0
ENDCHAR

STARTCHAR three
ENCODING 51
SWIDTH 660 0
DWIDTH 13 0
BBX 11 13 1 0
BITMAP
1F80
3FC0
71E0
60E0
01C0
0780
07C0
01E0
40E0
E0E0
F1E0
7FC0
1F00
ENDCHAR

STARTCHAR four
ENCODING 52
SWIDTH 660 0
DWIDTH 13 0
BBX 11 13 1 0
BITMAP
0380
0780
0F80
1F80
3B80
7380
E380
FFE0
FFE0
0380
0380
0380
0380
ENDCHAR

STARTCHAR five
ENCODING 53
SWIDTH 660 0
DWIDTH 13 0
BBX 11 14 1 0
BITMAP
00C0
7FC0
7FC0
7FC0
6000
7F80
7FC0
41E0
00E0
40E0
E0E0
F1E0
7FC0
1F00
ENDCHAR

STARTCHAR six
ENCODING 54
SWIDTH 660 0
DWIDTH 13 0
BBX 11 13 1 0
BITMAP
07C0
1FC0
3C00
7000
EF80
FFC0
F1E0
E0E0
E0E0
E0E0
71E0
7FC0
1F00
ENDCHAR

STARTCHAR seven
ENCODING 55
SWIDTH 660 0
DWIDTH 13 0
BBX 11 14 1 0
BITMAP
6000
7FE0
FFE0
C1C0
C1C0
0380
0700
0700
0E00
0E00
1E00
1C00
1C00
1C00
ENDCHAR

STARTCHAR eight
ENCODING 56
SWIDTH 660 0
DWIDTH 13 0
BBX 11 13 1 0
BITMAP
1F00
3F80
7BC0
71C0
71C0
3B80
3F80
7FC0
F1E0
E0E0
F1E0
7FC0
1F00
ENDCHAR

STARTCHAR nine
ENCODING 57
SWIDTH 660 0
DWIDTH 13 0
BBX 11 13 1 0
BITMAP
1F00
7FC0
F1C0
E0E0
E0E0
E0E0
F1E0
7FE0
3EE0
01C0
0780
7F00
7800
ENDCHAR

STARTCHAR colon
ENCODING 58
SWIDTH 340 0
DWIDTH 6 0
BBX 3 9 2 0
BITMAP
E0
E0
E0
00
00
00
E0
E0
E0
ENDCHAR

STARTCHAR semicolon
ENCODING 59
SWIDTH 340 0
DWIDTH 6 0
BBX 4 12 1 -3
BITMAP
70
70
70
00
00
00
60
F0
70
30
60
C0
ENDCHAR

STARTCHAR less
ENCODING 60
SWIDTH 600 0
DWIDTH 11 0
BBX 9 11 1 1
BITMAP
0080
0180
0780
1E00
7800
C000
7800
1E00
0780
0180
0080
ENDCHAR

STARTCHAR equal
ENCODING 61
SWIDTH 600 0
DWIDTH 11 0
BBX 9 6 1 3
BITMAP
FF80
FF80
0000
0000
FF80
FF80
ENDCHAR

STARTCHAR greater
ENCODING 62
SWIDTH 600 0
DWIDTH 11 0
BBX 9 11 1 1
BITMAP
8000
C000
F000
3C00
0F00
0180
0F00
3C00
F000
C000
8000
ENDCHAR

STARTCHAR question
ENCODING 63
SWIDTH 660 0
DWIDTH 13 0
BBX 10 14 1 0
BITMAP
3E00
7F80
F3C0
61C0
01C0
01C0
03C0
3F80
3E00
3000
0000
3800
3800
3800
ENDCHAR

STARTCHAR at
ENCODING 64
SWIDTH 820 0
DWIDTH 16 0
BBX 17 17 0 -4
BITMAP
03F000
0C0C00
100200
200200
41B100
435100
867100
866100
8C6100
8CE200
8D4400
8ECC80
4C7100
200200
300400
0C1800
03E000
ENDCHAR

STARTCHAR A
ENCODING 65
SWIDTH 720 0
DWIDTH 14 0
BBX 14 13 0 0
BITMAP
0300
0780
0780
0FC0
0DC0
1DC0
18E0
3FE0
3FF0
3070
7078
F8FC
F8FC
ENDCHAR

STARTCHAR B
ENCODING 66
SWIDTH 720 0
DWIDTH 14 0
BBX 12 13 1 0
BITMAP
FFC0
FFE0
38F0
3870
38E0
3FC0
3FE0
38F0
3870
3870
38F0
FFE0
FF80
ENDCHAR

STARTCHAR C
ENCODING 67
SWIDTH 740 0
DWIDTH 14 0
BBX 13 13 1 0
BITMAP
0F60
3FE0
7CF0
7870
F030
F000
F000
F000
F008
7818
7C70
3FE0
0F80
ENDCHAR

STARTCHAR D
ENCODING 68
SWIDTH 780 0
DWIDTH 15 0
BBX 14 13 1 0
BITMAP
FFC0
FFF0
3878
3838
383C
383C
383C
383C
383C
3838
3878
FFF0
FFC0
ENDCHAR

STARTCHAR E
ENCODING 69
SWIDTH 720 0
DWIDTH 14 0
BBX 13 13 1 0
BITMAP
FFE0
FFF0
3878
39B8
3980
3F80
3F80
3980
3980
3838
3878
FFF0
FFE0
ENDCHAR

STARTCHAR F
ENCODING 70
SWIDTH 680 0
DWIDTH 13 0
BBX 13 13 0 0
BITMAP
FFE0
FFF0
3878
39B8
3980
3F80
3F80
3980
3980
3800
3800
FE00
FE00
ENDCHAR

STARTCHAR G
ENCODING 71
SWIDTH 780 0
DWIDTH 15 0
BBX 15 13 1 0
BITMAP
0FB0
3FF0
7C78
7838
F018
F000
F0FE
F0FE
F038
7838
7C78
3FF8
0F98
ENDCHAR

STARTCHAR H
ENCODING 72
SWIDTH 820 0
DWIDTH 16 0
BBX 15 13 1 0
BITMAP
FEFE
FEFE
3838
3838
3838
3FF8
3FF8
3838
3838
3838
3838
FEFE
FEFE
ENDCHAR

STARTCHAR I
ENCODING 73
SWIDTH 400 0
DWIDTH 8 0
BBX 7 13 1 0
BITMAP
FE
FE
38
38
38
38
38
38
38
38
38
FE
FE
ENDCHAR

STARTCHAR J
ENCODING 74
SWIDTH 640 0
DWIDTH 12 0
BBX 12 13 0 0
BITMAP
07F0
07F0
01C0
01C0
01C0
01C0
01C0
61C0
E1C0
E1C0
F3C0
7F80
3F00
ENDCHAR

STARTCHAR K
ENCODING 75
SWIDTH 800 0
DWIDTH 15 0
BBX 15 13 0 0
BITMAP
FEFC
FEFC
3878
38E0
3980
3BC0
3FC0
3EE0
3CF0
3878
3838
FEFE
FEFE
ENDCHAR

STARTCHAR L
ENCODING 76
SWIDTH 640 0
DWIDTH 12 0
BBX 11 13 1 0
BITMAP
FE00
FE00
3800
3800
3800
3800
3800
3800
3800
3860
38E0
FFC0
FF80
ENDCHAR

STARTCHAR M
ENCODING 77
SWIDTH 940 0
DWIDTH 18 0
BBX 17 13 1 0
BITMAP
FC1F80
FE3F80
363E00
363E00
366E00
376E00
376E00
33CE00
33CE00
33CE00
33CE00
FDBF80
FDBF80
ENDCHAR

STARTCHAR N
ENCODING 78
SWIDTH 740 0
DWIDTH 14 0
BBX 13 13 1 0
BITMAP
FCF8
FCF8
3E60
3E60
3760
3760
3360
33E0
33E0
31E0
31E0
FCE0
FCE0
ENDCHAR

STARTCHAR O
ENCODING 79
SWIDTH 800 0
DWIDTH 15 0
BBX 14 13 1 0
BITMAP
0FC0
3FF0
7878
7038
F03C
F03C
F03C
F03C
F03C
7038
7878
3FF0
0FC0
ENDCHAR

STARTCHAR P
ENCODING 80
SWIDTH 660 0
DWIDTH 13 0
BBX 12 13 1 0
BITMAP
FFC0
FFE0
38F0
3870
3870
38F0
3FE0
3FC0
3800
3800
3800
FE00
FE00
ENDCHAR

STARTCHAR Q
ENCODING 81
SWIDTH 800 0
DWIDTH 15 0
BBX 14 17 1 -4
BITMAP
0FC0
3FF0
7878
7038
F03C
F03C
F03C
F03C
F03C
7038
7878
3FF0
0FC0
0780
0398
03F8
01F0
ENDCHAR

STARTCHAR R
ENCODING 82
SWIDTH 780 0
DWIDTH 15 0
BBX 15 13 0 0
BITMAP
FFE0
FFF0
3878
3838
3878
3FF0
3FE0
39C0
39E0
38F0
3878
FE7E
FE3E
ENDCHAR

STARTCHAR S
ENCODING 83
SWIDTH 660 0
DWIDTH 13 0
BBX 11 13 1 0
BITMAP
3EC0
7FC0
E0E0
E060
F800
7F00
3FC0
0FE0
01E0
C0E0
E0E0
7FC0
6F00
ENDCHAR

STARTCHAR T
ENCODING 84
SWIDTH 700 0
DWIDTH 13 0
BBX 13 14 0 0
BITMAP
6030
7FF0
7FF0
E738
C718
4710
0700
0700
0700
0700
0700
0700
1FC0
1FC0
ENDCHAR

STARTCHAR U
ENCODING 85
SWIDTH 740 0
DWIDTH 14 0
BBX 14 13 0 0
BITMAP
FEFC
FEFC
3830
3830
3830
3830
3830
3830
3830
3830
3C70
1FE0
0FC0
ENDCHAR

STARTCHAR V
ENCODING 86
SWIDTH 720 0
DWIDTH 14 0
BBX 14 13 0 0
BITMAP
FC7C
FC7C
7830
3830
3C60
3C60
1C60
1EC0
0EC0
0FC0
0780
0780
0300
ENDCHAR

STARTCHAR W
ENCODING 87
SWIDTH 940 0
DWIDTH 18 0
BBX 18 13 0 0
BITMAP
FDF7C0
FDF7C0
79E300
38E300
3CE300
3CE600
1CF600
1DF600
0FBC00
0F3C00
0F3C00
073800
061800
ENDCHAR

STARTCHAR X
ENCODING 88
SWIDTH 780 0
DWIDTH 15 0
BBX 15 13 0 0
BITMAP
7E7C
7E7C
3C38
1E70
0FE0
07C0
0380
07C0
0EE0
1CF0
3878
FCFE
FCFE
ENDCHAR

STARTCHAR Y
ENCODING 89
SWIDTH 700 0
DWIDTH 13 0
BBX 13 13 0 0
BITMAP
FCF8
FCF8
7870
3C60
1CC0
1EC0
0F80
0700
0700
0700
0700
1FC0
1FC0
ENDCHAR

STARTCHAR Z
ENCODING 90
SWIDTH 640 0
DWIDTH 12 0
BBX 12 13 0 0
BITMAP
1FE0
3FE0
79E0
F3C0
0780
0F00
0E00
1E00
3C00
78F0
F1E0
FFC0
FF80
ENDCHAR

STARTCHAR bracketleft
ENCODING 91
SWIDTH 300 0
DWIDTH 6 0
BBX 5 18 1 -4
BITMAP
F8
F8
E0
E0
E0
E0
E0
E0
E0
E0
E0
E0
E0
E0
E0
E0
F8
F8
ENDCHAR

STARTCHAR backslash
ENCODING 92
SWIDTH 600 0
DWIDTH 11 0
BBX 7 18 2 -4
BITMAP
C0
C0
C0
E0
60
60
70
30
30
38
18
18
1C
0C
0C
0E
06
06
ENDCHAR

STARTCHAR bracketright
ENCODING 93
SWIDTH 300 0
DWIDTH 6 0
BBX 5 18 0 -4
BITMAP
F8
F8
38
38
38
38
38
38
38
38
38
38
38
38
38
38
F8
F8
ENDCHAR

STARTCHAR asciicircum
ENCODING 94
SWIDTH 600 0
DWIDTH 11 0
BBX 9 8 1 5
BITMAP
0C00
1C00
1E00
3600
3300
6300
6180
C180
ENDCHAR

STARTCHAR underscore
ENCODING 95
SWIDTH 500 0
DWIDTH 10 0
BBX 10 1 0 -2
BITMAP
FFC0
ENDCHAR

STARTCHAR quoteleft
ENCODING 96
SWIDTH 320 0
DWIDTH 6 0
BBX 4 6 1 8
BITMAP
30
60
C0
E0
F0
60
ENDCHAR

STARTCHAR a
ENCODING 97
SWIDTH 580 0
DWIDTH 11 0
BBX 10 9 1 0
BITMAP
3F00
7F80
E380
0380
7F80
F380
E380
FFC0
7DC0
ENDCHAR

STARTCHAR b
ENCODING 98
SWIDTH 600 0
DWIDTH 11 0
BBX 10 14 0 0
BITMAP
3000
F000
F000
7000
7000
7700
7F80
73C0
71C0
71C0
71C0
73C0
7F80
6F00
ENDCHAR

STARTCHAR c
ENCODING 99
SWIDTH 580 0
DWIDTH 11 0
BBX 10 9 1 0
BITMAP
1F00
7F80
F3C0
E180
E000
E000
F1C0
7F80
1E00
ENDCHAR

STARTCHAR d
ENCODING 100
SWIDTH 640 0
DWIDTH 12 0
BBX 10 14 1 0
BITMAP
0180
0780
0780
0380
0380
3B80
7F80
F380
E380
E380
E380
F380
7FC0
3DC0
ENDCHAR

STARTCHAR e
ENCODING 101
SWIDTH 580 0
DWIDTH 11 0
BBX 9 9 1 0
BITMAP
3E00
7F00
E380
FF80
FF80
E000
F180
7F00
3E00
ENDCHAR

STARTCHAR f
ENCODING 102
SWIDTH 380 0
DWIDTH 7 0
BBX 8 14 1 0
BITMAP
1E
3F
73
70
70
FC
FC
70
70
70
70
70
F8
F8
ENDCHAR

STARTCHAR g
ENCODING 103
SWIDTH 580 0
DWIDTH 11 0
BBX 11 13 0 -4
BITMAP
1EE0
3FC0
7380
7380
7F00
3E00
6000
7F00
3FC0
63E0
E0E0
FFC0
7F00
ENDCHAR

STARTCHAR h
ENCODING 104
SWIDTH 680 0
DWIDTH 13 0
BBX 11 14 1 0
BITMAP
3000
F000
F000
7000
7000
7780
7FC0
79C0
71C0
71C0
71C0
71C0
FBE0
FBE0
ENDCHAR

STARTCHAR i
ENCODING 105
SWIDTH 360 0
DWIDTH 7 0
BBX 5 14 1 0
BITMAP
70
70
70
00
00
30
F0
F0
70
70
70
70
F8
F8
ENDCHAR

STARTCHAR j
ENCODING 106
SWIDTH 340 0
DWIDTH 6 0
BBX 7 18 -2 -4
BITMAP
0E
0E
0E
00
00
06
1E
1E
0E
0E
0E
0E
0E
0E
0E
CE
FE
7C
ENDCHAR

STARTCHAR k
ENCODING 107
SWIDTH 660 0
DWIDTH 13 0
BBX 11 14 1 0
BITMAP
3000
F000
F000
7000
7000
77E0
77E0
7380
7E00
7F00
7B80
71C0
FBE0
FBE0
ENDCHAR

STARTCHAR l
ENCODING 108
SWIDTH 340 0
DWIDTH 7 0
BBX 5 14 1 0
BITMAP
30
F0
F0
70
70
70
70
70
70
70
70
70
F8
F8
ENDCHAR

STARTCHAR m
ENCODING 109
SWIDTH 1000 0
DWIDTH 19 0
BBX 17 9 1 0
BITMAP
779E00
FFFF00
F9E700
71C700
71C700
71C700
71C700
FBEF80
FBEF80
ENDCHAR

STARTCHAR n
ENCODING 110
SWIDTH 680 0
DWIDTH 13 0
BBX 11 9 1 0
BITMAP
7780
FFC0
F9C0
71C0
71C0
71C0
71C0
FBE0
FBE0
ENDCHAR

STARTCHAR o
ENCODING 111
SWIDTH 620 0
DWIDTH 12 0
BBX 10 9 1 0
BITMAP
1E00
7F80
F3C0
E1C0
E1C0
E1C0
F3C0
7F80
1E00
ENDCHAR

STARTCHAR p
ENCODING 112
SWIDTH 640 0
DWIDTH 12 0
BBX 10 13 1 -4
BITMAP
7700
FF80
F3C0
71C0
71C0
71C0
73C0
7F80
7700
7000
7000
F800
F800
ENDCHAR

STARTCHAR q
ENCODING 113
SWIDTH 620 0
DWIDTH 11 0
BBX 10 13 1 -4
BITMAP
3D80
7F80
F380
E380
E380
E380
F380
7F80
3B80
0380
0380
07C0
07C0
ENDCHAR

STARTCHAR r
ENCODING 114
SWIDTH 460 0
DWIDTH 9 0
BBX 8 9 1 0
BITMAP
76
FF
FE
70
70
70
70
F8
F8
ENDCHAR

STARTCHAR s
ENCODING 115
SWIDTH 520 0
DWIDTH 10 0
BBX 8 9 1 0
BITMAP
7D
FF
E3
F8
7E
0F
C7
FF
BE
ENDCHAR

STARTCHAR t
ENCODING 116
SWIDTH 460 0
DWIDTH 9 0
BBX 7 12 1 0
BITMAP
30
30
70
FE
FE
70
70
70
70
76
7E
3C
ENDCHAR

STARTCHAR u
ENCODING 117
SWIDTH 660 0
DWIDTH 13 0
BBX 11 9 1 0
BITMAP
F3C0
F3C0
71C0
71C0
71C0
71C0
73C0
7FE0
3DE0
ENDCHAR

STARTCHAR v
ENCODING 118
SWIDTH 600 0
DWIDTH 11 0
BBX 11 9 0 0
BITMAP
F9E0
F9E0
70C0
39C0
3980
1D80
1F00
0E00
0E00
ENDCHAR

STARTCHAR w
ENCODING 119
SWIDTH 800 0
DWIDTH 15 0
BBX 15 9 0 0
BITMAP
FBDE
FBDE
718C
399C
3BD8
1BD8
1EF0
0E60
0C60
ENDCHAR

STARTCHAR x
ENCODING 120
SWIDTH 600 0
DWIDTH 11 0
BBX 11 9 0 0
BITMAP
FDE0
FDE0
39C0
1F80
1F00
3B80
71C0
FBE0
FBE0
ENDCHAR

STARTCHAR y
ENCODING 121
SWIDTH 620 0
DWIDTH 12 0
BBX 12 13 0 -4
BITMAP
FDF0
FDF0
78E0
38C0
38C0
1D80
1D80
0F00
0F00
0600
6E00
7C00
3800
ENDCHAR

STARTCHAR z
ENCODING 122
SWIDTH 560 0
DWIDTH 11 0
BBX 9 9 1 0
BITMAP
7F80
FF80
C700
0E00
3C00
7000
E180
FF80
FF00
ENDCHAR

STARTCHAR braceleft
ENCODING 123
SWIDTH 320 0
DWIDTH 6 0
BBX 6 18 0 -4
BITMAP
0C
10
30
30
30
30
30
20
C0
C0
20
30
30
30
30
30
10
0C
ENDCHAR

STARTCHAR bar
ENCODING 124
SWIDTH 600 0
DWIDTH 11 0
BBX 2 18 5 -4
BITMAP
C0
C0
C0
C0
C0
C0
C0
C0
C0
C0
C0
C0
C0
C0
C0
C0
C0
C0
ENDCHAR

STARTCHAR braceright
ENCODING 125
SWIDTH 320 0
DWIDTH 6 0
BBX 6 18 0 -4
BITMAP
C0
20
30
30
30
30
30
10
0C
0C
10
30
30
30
30
30
20
C0
ENDCHAR

STARTCHAR asciitilde
ENCODING 126
SWIDTH 600 0
DWIDTH 11 0
BBX 9 3 1 5
BITMAP
7980
FF80
CF00
ENDCHAR

STARTCHAR space
ENCODING 160
SWIDTH 340 0
DWIDTH 8 0
BBX 0 0 0 0
BITMAP
ENDCHAR

STARTCHAR Aogonek
ENCODING 161
SWIDTH 720 0
DWIDTH 14 0
BBX 14 16 0 -3
BITMAP
0300
0780
0780
0FC0
0DC0
1DC0
18E0
3FE0
3FF0
3070
7078
F8FC
F8FC
0030
0030
001C
ENDCHAR

STARTCHAR afii240
ENCODING 162
SWIDTH 556 0
DWIDTH 11 0
BBX 11 9 1 0
BITMAP
73E0
F1C0
F380
7700
7E00
7F00
7380
F9C0
F8E0
ENDCHAR

STARTCHAR Rcommaaccent
ENCODING 163
SWIDTH 780 0
DWIDTH 15 0
BBX 15 18 0 -5
BITMAP
FFE0
FFF0
3878
3838
3878
3FF0
3FE0
39C0
38E0
38F0
3878
FE7E
FE3E
0000
01C0
01C0
00C0
0180
ENDCHAR

STARTCHAR currency
ENCODING 164
SWIDTH 600 0
DWIDTH 11 0
BBX 9 9 1 2
BITMAP
DD80
FF80
6300
C180
C180
C180
6300
FF80
DD80
ENDCHAR

STARTCHAR Itilde
ENCODING 165
SWIDTH 400 0
DWIDTH 8 0
BBX 7 17 1 0
BITMAP
72
FE
9C
00
FE
FE
38
38
38
38
38
38
38
38
38
FE
FE
ENDCHAR

STARTCHAR Lcommaaccent
ENCODING 166
SWIDTH 640 0
DWIDTH 12 0
BBX 11 18 1 -5
BITMAP
FE00
FE00
3800
3800
3800
3800
3800
3800
3800
3860
38E0
FFC0
FF80
0000
0E00
0E00
0600
0C00
ENDCHAR

STARTCHAR section
ENCODING 167
SWIDTH 600 0
DWIDTH 11 0
BBX 10 16 1 -3
BITMAP
3E00
7F80
E380
E180
7C00
3F80
6F80
E1C0
F9C0
7F80
1F80
07C0
E1C0
E1C0
FF80
3E00
ENDCHAR

STARTCHAR hungarumlaut
ENCODING 168
SWIDTH 440 0
DWIDTH 8 0
BBX 9 3 0 11
BITMAP
3B80
7700
CC00
ENDCHAR

STARTCHAR Scaron
ENCODING 169
SWIDTH 660 0
DWIDTH 13 0
BBX 11 17 1 0
BITMAP
3180
1B00
0E00
0000
3EC0
7FC0
E0E0
E060
F800
7F00
3FC0
0FE0
01E0
C0E0
E0E0
7FC0
6F00
ENDCHAR

STARTCHAR Emacron
ENCODING 170
SWIDTH 720 0
DWIDTH 14 0
BBX 13 16 1 0
BITMAP
1FC0
1FC0
0000
FFE0
FFF0
3878
39B8
3980
3F80
3F80
3980
3980
3838
3878
FFF0
FFE0
ENDCHAR

STARTCHAR Gcommaaccent
ENCODING 171
SWIDTH 780 0
DWIDTH 15 0
BBX 15 18 1 -5
BITMAP
0FB0
3FF0
7C78
7838
F018
F000
F0FE
F0FE
F038
7838
7C78
3FF8
0F98
0000
0380
0380
0180
0300
ENDCHAR

STARTCHAR afii237
ENCODING 172
SWIDTH 667 0
DWIDTH 13 0
BBX 13 14 0 0
BITMAP
6030
7FF0
7FF0
E738
C718
4710
0700
1FC0
1FC0
0700
0700
0700
1FC0
1FC0
ENDCHAR

STARTCHAR hyphen
ENCODING 173
SWIDTH 360 0
DWIDTH 7 0
BBX 5 2 1 4
BITMAP
F8
F8
ENDCHAR

STARTCHAR Zcaron
ENCODING 174
SWIDTH 640 0
DWIDTH 12 0
BBX 12 17 0 0
BITMAP
0CC0
0780
0300
0000
1FE0
3FE0
79E0
F3C0
0780
0F00
0E00
1E00
3C00
78F0
F1E0
FFC0
FF80
ENDCHAR

STARTCHAR macron
ENCODING 175
SWIDTH 460 0
DWIDTH 9 0
BBX 6 2 1 11
BITMAP
FC
FC
ENDCHAR

STARTCHAR degree
ENCODING 176
SWIDTH 400 0
DWIDTH 8 0
BBX 5 5 1 8
BITMAP
70
D8
88
D8
70
ENDCHAR

STARTCHAR aogonek
ENCODING 177
SWIDTH 580 0
DWIDTH 11 0
BBX 11 12 1 -3
BITMAP
3F00
7F80
E380
0380
7F80
F380
E380
FFC0
7DC0
0180
0180
00E0
ENDCHAR

STARTCHAR ogonek
ENCODING 178
SWIDTH 320 0
DWIDTH 6 0
BBX 4 3 1 -3
BITMAP
C0
C0
70
ENDCHAR

STARTCHAR rcommaaccent
ENCODING 179
SWIDTH 460 0
DWIDTH 9 0
BBX 8 14 1 -5
BITMAP
76
FF
FE
70
70
70
70
F8
F8
00
70
70
30
60
ENDCHAR

STARTCHAR acute
ENCODING 180
SWIDTH 400 0
DWIDTH 8 0
BBX 5 3 2 11
BITMAP
38
70
C0
ENDCHAR

STARTCHAR itilde
ENCODING 181
SWIDTH 360 0
DWIDTH 7 0
BBX 6 13 0 0
BITMAP
74
FC
B8
00
18
78
78
38
38
38
38
7C
7C
ENDCHAR

STARTCHAR lcommaaccent
ENCODING 182
SWIDTH 340 0
DWIDTH 7 0
BBX 5 19 1 -5
BITMAP
30
F0
F0
70
70
70
70
70
70
70
70
70
F8
F8
00
70
70
30
60
ENDCHAR

STARTCHAR caron
ENCODING 183
SWIDTH 500 0
DWIDTH 10 0
BBX 6 3 2 11
BITMAP
CC
78
30
ENDCHAR

STARTCHAR commaaccent
ENCODING 184
SWIDTH 333 0
DWIDTH 6 0
BBX 3 4 2 -5
BITMAP
E0
E0
60
C0
ENDCHAR

STARTCHAR scaron
ENCODING 185
SWIDTH 520 0
DWIDTH 10 0
BBX 8 13 1 0
BITMAP
66
3C
18
00
7D
FF
E3
F8
7E
0F
C7
FF
BE
ENDCHAR

STARTCHAR emacron
ENCODING 186
SWIDTH 580 0
DWIDTH 11 0
BBX 9 13 1 0
BITMAP
3F00
3F00
0000
0000
3E00
7F00
E380
FF80
FF80
E000
F180
7F00
3E00
ENDCHAR

STARTCHAR gcommaaccent
ENCODING 187
SWIDTH 580 0
DWIDTH 11 0
BBX 11 18 0 -4
BITMAP
0600
0C00
0E00
0E00
0000
1EE0
3FC0
7380
7380
7F00
3E00
6000
7F00
3FC0
63E0
E0E0
FFC0
7F00
ENDCHAR

STARTCHAR afii253
ENCODING 188
SWIDTH 333 0
DWIDTH 9 0
BBX 7 12 1 0
BITMAP
30
30
70
FE
FE
70
FC
FC
70
76
7E
3C
ENDCHAR

STARTCHAR afii238
ENCODING 189
SWIDTH 757 0
DWIDTH 15 0
BBX 13 13 1 0
BITMAP
F9C0
FBE0
3E70
3C38
3838
3838
3838
3838
3838
3838
39B0
FFB0
FEE0
ENDCHAR

STARTCHAR zcaron
ENCODING 190
SWIDTH 560 0
DWIDTH 11 0
BBX 9 13 1 0
BITMAP
3300
1E00
0C00
0000
7F80
FF80
CF00
1E00
3C00
7800
E180
FF80
FF00
ENDCHAR

STARTCHAR afii254
ENCODING 191
SWIDTH 556 0
DWIDTH 13 0
BBX 10 13 1 -4
BITMAP
7780
FFC0
F9C0
71C0
71C0
71C0
71C0
F9C0
F9C0
01C0
0DC0
0FC0
0780
ENDCHAR

STARTCHAR Amacron
ENCODING 192
SWIDTH 720 0
DWIDTH 14 0
BBX 14 16 0 0
BITMAP
0FE0
0FE0
0000
0300
0780
0780
0FC0
0DC0
1DC0
18E0
3FE0
3FF0
3070
7078
F8FC
F8FC
ENDCHAR

STARTCHAR Aacute
ENCODING 193
SWIDTH 720 0
DWIDTH 14 0
BBX 14 17 0 0
BITMAP
01C0
0380
0600
0000
0300
0780
0780
0FC0
0DC0
1DC0
18E0
3FE0
3FF0
3070
7078
F8FC
F8FC
ENDCHAR

STARTCHAR Acircumflex
ENCODING 194
SWIDTH 720 0
DWIDTH 14 0
BBX 14 17 0 0
BITMAP
0300
0780
0CC0
0000
0300
0780
0780
0FC0
0DC0
1DC0
18E0
3FE0
3FF0
3070
7078
F8FC
F8FC
ENDCHAR

STARTCHAR Atilde
ENCODING 195
SWIDTH 720 0
DWIDTH 14 0
BBX 14 17 0 0
BITMAP
0720
0FE0
09C0
0000
0300
0780
0780
0FC0
0DC0
1DC0
18E0
3FE0
3FF0
3070
7078
F8FC
F8FC
ENDCHAR

STARTCHAR Adieresis
ENCODING 196
SWIDTH 720 0
DWIDTH 14 0
BBX 14 17 0 0
BITMAP
1CE0
1CE0
1CE0
0000
0300
0780
0780
0FC0
0DC0
1DC0
18E0
3FE0
3FF0
3070
7078
F8FC
F8FC
ENDCHAR

STARTCHAR Aring
ENCODING 197
SWIDTH 720 0
DWIDTH 14 0
BBX 14 17 0 0
BITMAP
0700
0D80
0880
0D80
0700
0780
0780
0FC0
0DC0
1DC0
18E0
3FE0
3FF0
3070
7078
F8FC
F8FC
ENDCHAR

STARTCHAR AE
ENCODING 198
SWIDTH 1140 0
DWIDTH 22 0
BBX 21 13 1 0
BITMAP
0FFFE0
0FFFF0
063878
0639B8
0E3980
0C3F80
1FFF80
1FF980
383980
303838
703878
F8FFF0
F8FFE0
ENDCHAR

STARTCHAR Iogonek
ENCODING 199
SWIDTH 400 0
DWIDTH 8 0
BBX 7 16 1 -3
BITMAP
FE
FE
38
38
38
38
38
38
38
38
38
FE
FE
18
18
0E
ENDCHAR

STARTCHAR Ccaron
ENCODING 200
SWIDTH 740 0
DWIDTH 14 0
BBX 13 17 1 0
BITMAP
18C0
0F80
0700
0000
0F60
3FE0
7CF0
7870
F030
F000
F000
F000
F008
7818
7C70
3FE0
0F80
ENDCHAR

STARTCHAR Eacute
ENCODING 201
SWIDTH 720 0
DWIDTH 14 0
BBX 13 17 1 0
BITMAP
01C0
0380
0600
0000
FFE0
FFF0
3878
39B8
3980
3F80
3F80
3980
3980
3838
3878
FFF0
FFE0
ENDCHAR

STARTCHAR Eogonek
ENCODING 202
SWIDTH 720 0
DWIDTH 14 0
BBX 13 16 1 -3
BITMAP
FFE0
FFF0
3878
39B8
3980
3F80
3F80
3980
3980
3838
3878
FFF0
FFE0
00C0
00C0
0070
ENDCHAR

STARTCHAR Edieresis
ENCODING 203
SWIDTH 720 0
DWIDTH 14 0
BBX 13 17 1 0
BITMAP
1CE0
1CE0
1CE0
0000
FFE0
FFF0
3878
39B8
3980
3F80
3F80
3980
3980
3838
3878
FFF0
FFE0
ENDCHAR

STARTCHAR Edotaccent
ENCODING 204
SWIDTH 720 0
DWIDTH 14 0
BBX 13 17 1 0
BITMAP
0700
0700
0700
0000
FFE0
FFF0
3878
39B8
3980
3F80
3F80
3980
3980
3838
3878
FFF0
FFE0
ENDCHAR

STARTCHAR Iacute
ENCODING 205
SWIDTH 400 0
DWIDTH 8 0
BBX 7 17 1 0
BITMAP
1C
38
60
00
FE
FE
38
38
38
38
38
38
38
38
38
FE
FE
ENDCHAR

STARTCHAR Icircumflex
ENCODING 206
SWIDTH 400 0
DWIDTH 8 0
BBX 7 17 1 0
BITMAP
38
7C
C6
00
FE
FE
38
38
38
38
38
38
38
38
38
FE
FE
ENDCHAR

STARTCHAR Imacron
ENCODING 207
SWIDTH 400 0
DWIDTH 8 0
BBX 7 16 1 0
BITMAP
FE
FE
00
FE
FE
38
38
38
38
38
38
38
38
38
FE
FE
ENDCHAR

STARTCHAR Eth
ENCODING 208
SWIDTH 780 0
DWIDTH 15 0
BBX 14 13 1 0
BITMAP
FFC0
FFF0
3878
3838
383C
7F3C
7F3C
383C
383C
3838
3878
FFF0
FFC0
ENDCHAR

STARTCHAR Ncommaaccent
ENCODING 209
SWIDTH 740 0
DWIDTH 14 0
BBX 13 18 1 -5
BITMAP
FCF8
FCF8
3E60
3E60
3760
3760
3360
33E0
33E0
31E0
31E0
FCE0
FCE0
0000
0700
0700
0300
0600
ENDCHAR

STARTCHAR Omacron
ENCODING 210
SWIDTH 800 0
DWIDTH 15 0
BBX 14 16 1 0
BITMAP
0FC0
0FC0
0000
0FC0
3FF0
7878
7038
F03C
F03C
F03C
F03C
F03C
7038
7878
3FF0
0FC0
ENDCHAR

STARTCHAR Kcommaaccent
ENCODING 211
SWIDTH 800 0
DWIDTH 15 0
BBX 15 18 0 -5
BITMAP
FEFC
FEFC
3878
38E0
3980
3BC0
3FC0
3EE0
3CF0
3878
3838
FEFE
FEFE
0000
01C0
01C0
00C0
0180
ENDCHAR

STARTCHAR Ocircumflex
ENCODING 212
SWIDTH 800 0
DWIDTH 15 0
BBX 14 17 1 0
BITMAP
0300
0780
0CC0
0000
0FC0
3FF0
7878
7038
F03C
F03C
F03C
F03C
F03C
7038
7878
3FF0
0FC0
ENDCHAR

STARTCHAR Otilde
ENCODING 213
SWIDTH 800 0
DWIDTH 15 0
BBX 14 17 1 0
BITMAP
0E20
1FE0
11C0
0000
0FC0
3FF0
7878
7038
F03C
F03C
F03C
F03C
F03C
7038
7878
3FF0
0FC0
ENDCHAR

STARTCHAR Odieresis
ENCODING 214
SWIDTH 800 0
DWIDTH 15 0
BBX 14 17 1 0
BITMAP
1CE0
1CE0
1CE0
0000
0FC0
3FF0
7878
7038
F03C
F03C
F03C
F03C
F03C
7038
7878
3FF0
0FC0
ENDCHAR

STARTCHAR multiply
ENCODING 215
SWIDTH 600 0
DWIDTH 11 0
BBX 9 9 1 2
BITMAP
4100
E380
7700
3E00
1C00
3E00
7700
E380
4100
ENDCHAR

STARTCHAR Oslash
ENCODING 216
SWIDTH 800 0
DWIDTH 15 0
BBX 14 13 1 0
BITMAP
0FCC
3FF8
7878
7078
F0FC
F1BC
F33C
F63C
7C3C
7838
3878
FFF0
4FC0
ENDCHAR

STARTCHAR Uogonek
ENCODING 217
SWIDTH 740 0
DWIDTH 14 0
BBX 14 16 0 -3
BITMAP
FEFC
FEFC
3830
3830
3830
3830
3830
3830
3830
3830
3C70
1FE0
0FC0
0300
0300
01C0
ENDCHAR

STARTCHAR Uacute
ENCODING 218
SWIDTH 740 0
DWIDTH 14 0
BBX 14 17 0 0
BITMAP
01C0
0380
0600
0000
FEFC
FEFC
3830
3830
3830
3830
3830
3830
3830
3830
3C70
1FE0
0FC0
ENDCHAR

STARTCHAR Ucircumflex
ENCODING 219
SWIDTH 740 0
DWIDTH 14 0
BBX 14 17 0 0
BITMAP
0300
0780
0CC0
0000
FEFC
FEFC
3830
3830
3830
3830
3830
3830
3830
3830
3C70
1FE0
0FC0
ENDCHAR

STARTCHAR Udieresis
ENCODING 220
SWIDTH 740 0
DWIDTH 14 0
BBX 14 17 0 0
BITMAP
1CE0
1CE0
1CE0
0000
FEFC
FEFC
3830
3830
3830
3830
3830
3830
3830
3830
3C70
1FE0
0FC0
ENDCHAR

STARTCHAR Utilde
ENCODING 221
SWIDTH 740 0
DWIDTH 14 0
BBX 14 17 0 0
BITMAP
0E20
1FE0
11C0
0000
FEFC
FEFC
3830
3830
3830
3830
3830
3830
3830
3830
3C70
1FE0
0FC0
ENDCHAR

STARTCHAR Umacron
ENCODING 222
SWIDTH 740 0
DWIDTH 14 0
BBX 14 16 0 0
BITMAP
0FC0
0FC0
0000
FEFC
FEFC
3830
3830
3830
3830
3830
3830
3830
3830
3C70
1FE0
0FC0
ENDCHAR

STARTCHAR germandbls
ENCODING 223
SWIDTH 660 0
DWIDTH 13 0
BBX 11 14 1 0
BITMAP
1F00
3F80
7380
71C0
7780
FE00
F600
7780
77C0
73E0
70E0
76E0
F7C0
F780
ENDCHAR

STARTCHAR amacron
ENCODING 224
SWIDTH 580 0
DWIDTH 11 0
BBX 10 13 1 0
BITMAP
3F00
3F00
0000
0000
3F00
7F80
E380
0380
7F80
F380
E380
FFC0
7DC0
ENDCHAR

STARTCHAR aacute
ENCODING 225
SWIDTH 580 0
DWIDTH 11 0
BBX 10 13 1 0
BITMAP
0700
0E00
1800
0000
3F00
7F80
E380
0380
7F80
F380
E380
FFC0
7DC0
ENDCHAR

STARTCHAR acircumflex
ENCODING 226
SWIDTH 580 0
DWIDTH 11 0
BBX 10 13 1 0
BITMAP
0C00
1E00
3300
0000
3F00
7F80
E380
0380
7F80
F380
E380
FFC0
7DC0
ENDCHAR

STARTCHAR atilde
ENCODING 227
SWIDTH 580 0
DWIDTH 11 0
BBX 10 13 1 0
BITMAP
3900
7F00
4E00
0000
3F00
7F80
E380
0380
7F80
F380
E380
FFC0
7DC0
ENDCHAR

STARTCHAR adieresis
ENCODING 228
SWIDTH 580 0
DWIDTH 11 0
BBX 10 13 1 0
BITMAP
7380
7380
7380
0000
3F00
7F80
E380
0380
7F80
F380
E380
FFC0
7DC0
ENDCHAR

STARTCHAR aring
ENCODING 229
SWIDTH 580 0
DWIDTH 11 0
BBX 10 14 1 0
BITMAP
1C00
3600
3600
1C00
0000
3F00
7F80
E380
0380
7F80
F380
E380
FFC0
7DC0
ENDCHAR

STARTCHAR ae
ENCODING 230
SWIDTH 880 0
DWIDTH 17 0
BBX 15 9 1 0
BITMAP
3EF8
7FFC
E38E
03FE
7FFE
F380
E3C6
FEFC
7CF8
ENDCHAR

STARTCHAR iogonek
ENCODING 231
SWIDTH 360 0
DWIDTH 7 0
BBX 6 17 1 -3
BITMAP
70
70
70
00
30
F0
F0
70
70
70
70
70
F8
F8
30
30
1C
ENDCHAR

STARTCHAR ccaron
ENCODING 232
SWIDTH 580 0
DWIDTH 11 0
BBX 10 13 1 0
BITMAP
3300
1E00
0C00
0000
1F00
7F80
F3C0
E180
E000
E000
F1C0
7F80
1E00
ENDCHAR

STARTCHAR eacute
ENCODING 233
SWIDTH 580 0
DWIDTH 11 0
BBX 9 13 1 0
BITMAP
0700
0E00
1800
0000
1E00
7F00
E380
FF80
FF80
E000
F180
7F00
3E00
ENDCHAR

STARTCHAR eogonek
ENCODING 234
SWIDTH 580 0
DWIDTH 11 0
BBX 10 12 1 -3
BITMAP
1E00
7F80
61C0
FFC0
FFC0
E000
F0C0
7F80
3F00
0C00
0C00
0700
ENDCHAR

STARTCHAR edieresis
ENCODING 235
SWIDTH 580 0
DWIDTH 11 0
BBX 9 13 1 0
BITMAP
7700
7700
7700
0000
1E00
7F00
E380
FF80
FF80
E000
F180
7F00
3E00
ENDCHAR

STARTCHAR edotaccent
ENCODING 236
SWIDTH 580 0
DWIDTH 11 0
BBX 9 13 1 0
BITMAP
1C00
1C00
1C00
0000
1E00
7F00
E380
FF80
FF80
E000
F180
7F00
3E00
ENDCHAR

STARTCHAR iacute
ENCODING 237
SWIDTH 360 0
DWIDTH 7 0
BBX 5 13 1 0
BITMAP
38
70
C0
00
30
F0
F0
70
70
70
70
F8
F8
ENDCHAR

STARTCHAR icircumflex
ENCODING 238
SWIDTH 360 0
DWIDTH 7 0
BBX 7 13 0 0
BITMAP
38
6C
C6
00
18
78
78
38
38
38
38
7C
7C
ENDCHAR

STARTCHAR imacron
ENCODING 239
SWIDTH 360 0
DWIDTH 7 0
BBX 5 13 1 0
BITMAP
F8
F8
00
00
30
F0
F0
70
70
70
70
F8
F8
ENDCHAR

STARTCHAR dcroat
ENCODING 240
SWIDTH 640 0
DWIDTH 12 0
BBX 10 14 1 0
BITMAP
0180
0780
1FC0
1FC0
0380
3B80
7F80
F380
E380
E380
E380
F380
7FC0
3DC0
ENDCHAR

STARTCHAR ncommaaccent
ENCODING 241
SWIDTH 680 0
DWIDTH 13 0
BBX 11 14 1 -5
BITMAP
7780
FFC0
F9C0
71C0
71C0
71C0
71C0
FBE0
FBE0
0000
0E00
0E00
0600
0C00
ENDCHAR

STARTCHAR omacron
ENCODING 242
SWIDTH 620 0
DWIDTH 12 0
BBX 10 13 1 0
BITMAP
3F00
3F00
0000
0000
1E00
7F80
F3C0
E1C0
E1C0
E1C0
F3C0
7F80
1E00
ENDCHAR

STARTCHAR kcommaaccent
ENCODING 243
SWIDTH 660 0
DWIDTH 13 0
BBX 11 18 1 -5
BITMAP
3000
F000
7000
F000
77E0
77E0
7380
7E00
7F00
7B80
71C0
FBE0
FBE0
0000
0E00
0E00
0600
0C00
ENDCHAR

STARTCHAR ocircumflex
ENCODING 244
SWIDTH 620 0
DWIDTH 12 0
BBX 10 13 1 0
BITMAP
0C00
1E00
3300
0000
1E00
7F80
F3C0
E1C0
E1C0
E1C0
F3C0
7F80
1E00
ENDCHAR

STARTCHAR otilde
ENCODING 245
SWIDTH 620 0
DWIDTH 12 0
BBX 10 13 1 0
BITMAP
1C80
3F80
2700
0000
1E00
7F80
F3C0
E1C0
E1C0
E1C0
F3C0
7F80
1E00
ENDCHAR

STARTCHAR odieresis
ENCODING 246
SWIDTH 620 0
DWIDTH 12 0
BBX 10 13 1 0
BITMAP
7380
7380
7380
0000
1E00
7F80
F3C0
E1C0
E1C0
E1C0
F3C0
7F80
1E00
ENDCHAR

STARTCHAR divide
ENCODING 247
SWIDTH 600 0
DWIDTH 11 0
BBX 10 8 1 2
BITMAP
0C00
0C00
0000
FFC0
FFC0
0000
0C00
0C00
ENDCHAR

STARTCHAR oslash
ENCODING 248
SWIDTH 620 0
DWIDTH 12 0
BBX 10 9 1 0
BITMAP
1E40
7F80
F3C0
E7C0
EDC0
F9C0
73C0
FF80
9E00
ENDCHAR

STARTCHAR uogonek
ENCODING 249
SWIDTH 660 0
DWIDTH 13 0
BBX 12 12 1 -3
BITMAP
F3C0
F3C0
71C0
71C0
71C0
71C0
73C0
7FE0
3DE0
00C0
00C0
0070
ENDCHAR

STARTCHAR uacute
ENCODING 250
SWIDTH 660 0
DWIDTH 13 0
BBX 11 13 1 0
BITMAP
0700
0E00
1800
0000
F3C0
F3C0
71C0
71C0
71C0
71C0
73C0
7FE0
3DE0
ENDCHAR

STARTCHAR ucircumflex
ENCODING 251
SWIDTH 660 0
DWIDTH 13 0
BBX 11 13 1 0
BITMAP
0E00
1F00
3180
0000
F3C0
F3C0
71C0
71C0
71C0
71C0
73C0
7FE0
3DE0
ENDCHAR

STARTCHAR udieresis
ENCODING 252
SWIDTH 660 0
DWIDTH 13 0
BBX 11 13 1 0
BITMAP
7380
7380
7380
0000
F3C0
F3C0
71C0
71C0
71C0
71C0
73C0
7FE0
3DE0
ENDCHAR

STARTCHAR utilde
ENCODING 253
SWIDTH 660 0
DWIDTH 13 0
BBX 11 14 1 0
BITMAP
1C80
3F80
2700
0000
0000
F3C0
F3C0
71C0
71C0
71C0
71C0
73C0
7FE0
3DE0
ENDCHAR

STARTCHAR umacron
ENCODING 254
SWIDTH 660 0
DWIDTH 13 0
BBX 11 13 1 0
BITMAP
1F80
1F80
0000
0000
F3C0
F3C0
71C0
71C0
71C0
71C0
73C0
7FE0
3DE0
ENDCHAR

STARTCHAR dotaccent
ENCODING 255
SWIDTH 320 0
DWIDTH 6 0
BBX 3 3 2 10
BITMAP
E0
E0
E0
ENDCHAR

ENDFONT
