STARTFONT 2.1
FONT -Monotype-Bookman Old Style-Regular-I-Normal--17-120-100-100-P-88-iso8859-2
SIZE 12 100 100
FONTBOUNDINGBOX 24 20 -4 -4

STARTPROPERTIES 24
FOUNDRY "Monotype"
FAMILY_NAME "Bookman Old Style"
WEIGHT_NAME "Regular"
SLANT "I"
SETWIDTH_NAME "Normal"
ADD_STYLE_NAME ""
PIXEL_SIZE 17
POINT_SIZE 120
RESOLUTION_X 100
RESOLUTION_Y 100
SPACING "P"
AVERAGE_WIDTH 88
CHARSET_REGISTRY "iso8859"
CHARSET_ENCODING "2"
FACE_NAME "Bookman Old Style Italic ISO Latin2"
_DEC_DEVICE_FONTNAMES "PS=bookmanoldstyle-it-lat2"
COPYRIGHT "Copyright (c) 1994 Monotype Typography Ltd."
CAP_HEIGHT 13
X_HEIGHT 9
WEIGHT 10
QUAD_WIDTH 10
DEFAULT_CHAR 160
FONT_DESCENT 4
FONT_ASCENT 16
ENDPROPERTIES

CHARS 191

STARTCHAR space
ENCODING 32
SWIDTH 300 0
DWIDTH 5 0
BBX 0 0 0 0
BITMAP
ENDCHAR

STARTCHAR exclam
ENCODING 33
SWIDTH 320 0
DWIDTH 5 0
BBX 4 12 2 0
BITMAP
30
30
30
30
60
60
60
40
40
00
C0
C0
ENDCHAR

STARTCHAR quotedbl
ENCODING 34
SWIDTH 360 0
DWIDTH 6 0
BBX 5 4 3 8
BITMAP
48
D8
90
90
ENDCHAR

STARTCHAR numbersign
ENCODING 35
SWIDTH 600 0
DWIDTH 10 0
BBX 10 11 0 0
BITMAP
1B00
1B00
1B00
7FC0
1B00
3600
3600
FF80
3600
3600
3600
ENDCHAR

STARTCHAR dollar
ENCODING 36
SWIDTH 620 0
DWIDTH 11 0
BBX 11 15 1 -2
BITMAP
0200
1F40
3AE0
3260
3220
1A00
0E00
0700
0580
84C0
C4C0
E580
5F00
0400
0400
ENDCHAR

STARTCHAR percent
ENCODING 37
SWIDTH 800 0
DWIDTH 14 0
BBX 13 12 1 0
BITMAP
3810
4C20
CC40
CC40
CC80
C970
7298
0598
0998
0998
1190
20E0
ENDCHAR

STARTCHAR ampersand
ENCODING 38
SWIDTH 820 0
DWIDTH 14 0
BBX 13 12 1 0
BITMAP
0F00
1980
1980
0900
1E70
3320
6120
C140
C0D8
C1C8
6358
3E30
ENDCHAR

STARTCHAR quoteright
ENCODING 39
SWIDTH 280 0
DWIDTH 5 0
BBX 4 5 1 8
BITMAP
30
30
20
40
80
ENDCHAR

STARTCHAR parenleft
ENCODING 40
SWIDTH 280 0
DWIDTH 5 0
BBX 5 17 1 -4
BITMAP
08
10
30
20
60
60
60
60
60
C0
C0
C0
C0
C0
40
60
20
ENDCHAR

STARTCHAR parenright
ENCODING 41
SWIDTH 280 0
DWIDTH 5 0
BBX 5 17 1 -4
BITMAP
20
30
10
18
18
18
18
18
30
30
30
30
30
20
60
40
80
ENDCHAR

STARTCHAR asterisk
ENCODING 42
SWIDTH 440 0
DWIDTH 7 0
BBX 6 6 3 6
BITMAP
28
B0
FC
30
D0
88
ENDCHAR

STARTCHAR plus
ENCODING 43
SWIDTH 600 0
DWIDTH 10 0
BBX 9 9 2 1
BITMAP
0800
0800
0800
0800
FF80
0800
0800
0800
0800
ENDCHAR

STARTCHAR comma
ENCODING 44
SWIDTH 300 0
DWIDTH 5 0
BBX 4 5 0 -3
BITMAP
30
30
20
40
80
ENDCHAR

STARTCHAR minus
ENCODING 45
SWIDTH 600 0
DWIDTH 10 0
BBX 8 1 2 5
BITMAP
FF
ENDCHAR

STARTCHAR period
ENCODING 46
SWIDTH 300 0
DWIDTH 5 0
BBX 2 2 2 0
BITMAP
C0
C0
ENDCHAR

STARTCHAR slash
ENCODING 47
SWIDTH 600 0
DWIDTH 10 0
BBX 10 17 0 -4
BITMAP
00C0
0080
0180
0100
0300
0200
0600
0400
0C00
0800
1800
1000
3000
2000
6000
4000
C000
ENDCHAR

STARTCHAR zero
ENCODING 48
SWIDTH 620 0
DWIDTH 11 0
BBX 9 12 2 0
BITMAP
0E00
3100
6180
6180
C180
C180
C180
C180
C300
C300
4600
3800
ENDCHAR

STARTCHAR one
ENCODING 49
SWIDTH 620 0
DWIDTH 11 0
BBX 5 12 3 0
BITMAP
08
38
18
18
30
30
30
30
60
60
60
F0
ENDCHAR

STARTCHAR two
ENCODING 50
SWIDTH 620 0
DWIDTH 11 0
BBX 11 12 0 0
BITMAP
0F80
18C0
2060
2060
0060
00C0
0180
0300
0600
1840
20C0
FF80
ENDCHAR

STARTCHAR three
ENCODING 51
SWIDTH 620 0
DWIDTH 11 0
BBX 10 12 1 0
BITMAP
0F80
11C0
20C0
00C0
0180
0E00
0300
0180
0180
8180
C300
7E00
ENDCHAR

STARTCHAR four
ENCODING 52
SWIDTH 620 0
DWIDTH 11 0
BBX 9 12 2 0
BITMAP
0300
0700
0B00
1300
2300
4600
8600
FF80
0600
0C00
0C00
0C00
ENDCHAR

STARTCHAR five
ENCODING 53
SWIDTH 620 0
DWIDTH 11 0
BBX 10 12 1 0
BITMAP
1FC0
1000
1000
2000
3C00
2700
0380
0180
0180
8180
C300
7E00
ENDCHAR

STARTCHAR six
ENCODING 54
SWIDTH 620 0
DWIDTH 11 0
BBX 9 12 2 0
BITMAP
0780
1C00
3000
3000
6E00
7300
C180
C180
C180
C300
E600
7800
ENDCHAR

STARTCHAR seven
ENCODING 55
SWIDTH 620 0
DWIDTH 11 0
BBX 9 12 3 0
BITMAP
7F80
C100
8200
0600
0C00
0800
1800
3000
3000
6000
6000
6000
ENDCHAR

STARTCHAR eight
ENCODING 56
SWIDTH 620 0
DWIDTH 11 0
BBX 9 12 2 0
BITMAP
0F00
1180
3180
3180
3900
1E00
2600
6300
C300
C300
C600
7C00
ENDCHAR

STARTCHAR nine
ENCODING 57
SWIDTH 620 0
DWIDTH 11 0
BBX 9 12 2 0
BITMAP
0F00
3380
6180
C180
C180
C180
6700
3B00
0600
0600
1C00
F000
ENDCHAR

STARTCHAR colon
ENCODING 58
SWIDTH 300 0
DWIDTH 5 0
BBX 3 8 2 0
BITMAP
60
60
00
00
00
00
C0
C0
ENDCHAR

STARTCHAR semicolon
ENCODING 59
SWIDTH 300 0
DWIDTH 5 0
BBX 5 11 0 -3
BITMAP
18
18
00
00
00
00
30
30
20
40
80
ENDCHAR

STARTCHAR less
ENCODING 60
SWIDTH 600 0
DWIDTH 10 0
BBX 8 7 2 2
BITMAP
01
0E
38
E0
70
1C
03
ENDCHAR

STARTCHAR equal
ENCODING 61
SWIDTH 600 0
DWIDTH 10 0
BBX 8 4 2 4
BITMAP
FF
00
00
FF
ENDCHAR

STARTCHAR greater
ENCODING 62
SWIDTH 600 0
DWIDTH 10 0
BBX 8 7 2 2
BITMAP
C0
38
0E
07
1C
70
80
ENDCHAR

STARTCHAR question
ENCODING 63
SWIDTH 540 0
DWIDTH 9 0
BBX 8 13 2 0
BITMAP
3C
66
43
03
03
03
06
7C
40
40
00
C0
C0
ENDCHAR

STARTCHAR at
ENCODING 64
SWIDTH 780 0
DWIDTH 13 0
BBX 14 16 1 -4
BITMAP
07E0
1810
2008
2004
43A4
4444
8C44
8844
98C4
9188
9B90
5CE4
4004
2018
1860
0780
ENDCHAR

STARTCHAR A
ENCODING 65
SWIDTH 700 0
DWIDTH 12 0
BBX 11 12 1 0
BITMAP
0300
0300
0700
0500
0980
0980
1180
3F80
20C0
60C0
40C0
E1E0
ENDCHAR

STARTCHAR B
ENCODING 66
SWIDTH 720 0
DWIDTH 12 0
BBX 12 12 1 0
BITMAP
3FE0
1830
1830
1830
3060
3F80
30C0
3060
6060
6060
60C0
FF00
ENDCHAR

STARTCHAR C
ENCODING 67
SWIDTH 720 0
DWIDTH 12 0
BBX 11 12 2 0
BITMAP
07A0
18E0
3060
6020
6000
C000
C000
C000
C000
6040
7180
1F00
ENDCHAR

STARTCHAR D
ENCODING 68
SWIDTH 740 0
DWIDTH 13 0
BBX 12 12 2 0
BITMAP
3F80
1860
1860
1830
3030
3030
3030
3070
6060
60C0
6180
FE00
ENDCHAR

STARTCHAR E
ENCODING 69
SWIDTH 680 0
DWIDTH 12 0
BBX 12 12 1 0
BITMAP
3FE0
1870
1830
1880
3180
3F80
3100
3100
6020
6060
60E0
FFC0
ENDCHAR

STARTCHAR F
ENCODING 70
SWIDTH 620 0
DWIDTH 11 0
BBX 12 12 1 0
BITMAP
3FE0
1870
1830
1880
3180
3F80
3100
3100
6000
6000
6000
F000
ENDCHAR

STARTCHAR G
ENCODING 71
SWIDTH 760 0
DWIDTH 13 0
BBX 12 12 2 0
BITMAP
07A0
18E0
3060
6020
6000
C000
C0F0
C060
C060
60C0
70C0
1F40
ENDCHAR

STARTCHAR H
ENCODING 72
SWIDTH 800 0
DWIDTH 14 0
BBX 14 12 1 0
BITMAP
3C3C
1818
1818
1818
3030
3FF0
3030
3030
6060
6060
6060
F0F0
ENDCHAR

STARTCHAR I
ENCODING 73
SWIDTH 320 0
DWIDTH 5 0
BBX 6 12 1 0
BITMAP
3C
18
18
18
30
30
30
30
60
60
60
F0
ENDCHAR

STARTCHAR J
ENCODING 74
SWIDTH 560 0
DWIDTH 10 0
BBX 11 12 1 0
BITMAP
01E0
00C0
00C0
00C0
0180
0180
0180
0180
8300
C300
C600
7800
ENDCHAR

STARTCHAR K
ENCODING 75
SWIDTH 720 0
DWIDTH 12 0
BBX 12 12 1 0
BITMAP
3CF0
1860
18C0
1980
3300
3600
3B00
3100
6180
6080
60C0
F1E0
ENDCHAR

STARTCHAR L
ENCODING 76
SWIDTH 580 0
DWIDTH 10 0
BBX 10 12 1 0
BITMAP
3C00
1800
1800
1800
3000
3000
3000
3000
6040
60C0
61C0
FF80
ENDCHAR

STARTCHAR M
ENCODING 77
SWIDTH 860 0
DWIDTH 15 0
BBX 15 12 1 0
BITMAP
380E
181C
181C
1C2C
3C78
2C58
2698
2698
6730
4330
4230
E278
ENDCHAR

STARTCHAR N
ENCODING 78
SWIDTH 720 0
DWIDTH 12 0
BBX 13 12 1 0
BITMAP
3838
1C10
1C10
1610
3630
2320
2320
21A0
61E0
40C0
40C0
E040
ENDCHAR

STARTCHAR O
ENCODING 79
SWIDTH 760 0
DWIDTH 13 0
BBX 12 12 2 0
BITMAP
07C0
1860
3030
6030
6030
C030
C030
C060
C060
C0C0
6180
3E00
ENDCHAR

STARTCHAR P
ENCODING 80
SWIDTH 600 0
DWIDTH 10 0
BBX 11 12 1 0
BITMAP
3F80
18C0
1860
1860
3060
30C0
3F80
3000
6000
6000
6000
F000
ENDCHAR

STARTCHAR Q
ENCODING 81
SWIDTH 780 0
DWIDTH 13 0
BBX 12 15 2 -3
BITMAP
07C0
1860
3030
6030
6030
C030
C030
C060
C060
C0C0
6180
3E00
1800
1C80
0F00
ENDCHAR

STARTCHAR R
ENCODING 82
SWIDTH 700 0
DWIDTH 12 0
BBX 12 12 1 0
BITMAP
3FC0
1860
1830
1830
3060
3FC0
3200
3300
6100
6180
60C0
F0E0
ENDCHAR

STARTCHAR S
ENCODING 83
SWIDTH 640 0
DWIDTH 11 0
BBX 11 12 1 0
BITMAP
1FA0
38E0
3060
3020
1800
0E00
0700
0180
80C0
C0C0
E180
BF00
ENDCHAR

STARTCHAR T
ENCODING 84
SWIDTH 600 0
DWIDTH 10 0
BBX 10 12 2 0
BITMAP
7F80
CCC0
8C40
0C00
1800
1800
1800
1800
3000
3000
3000
7800
ENDCHAR

STARTCHAR U
ENCODING 85
SWIDTH 720 0
DWIDTH 12 0
BBX 12 12 2 0
BITMAP
7870
3020
3020
6020
6060
6040
6040
C040
C080
C080
6100
3E00
ENDCHAR

STARTCHAR V
ENCODING 86
SWIDTH 680 0
DWIDTH 12 0
BBX 12 12 2 0
BITMAP
F0F0
6060
6040
3080
3080
3100
3100
1A00
1E00
0C00
0800
0800
ENDCHAR

STARTCHAR W
ENCODING 87
SWIDTH 960 0
DWIDTH 16 0
BBX 16 12 2 0
BITMAP
F3CF
6186
6184
6188
3188
3390
3390
35A0
1CE0
18C0
18C0
18C0
ENDCHAR

STARTCHAR X
ENCODING 88
SWIDTH 700 0
DWIDTH 12 0
BBX 12 12 1 0
BITMAP
3C70
1820
0C40
0C80
0700
0600
0700
0B00
1180
2180
40C0
E1E0
ENDCHAR

STARTCHAR Y
ENCODING 89
SWIDTH 660 0
DWIDTH 11 0
BBX 11 12 2 0
BITMAP
F1E0
60C0
6080
3100
3200
3400
1800
1800
1800
3000
3000
7800
ENDCHAR

STARTCHAR Z
ENCODING 90
SWIDTH 580 0
DWIDTH 10 0
BBX 12 12 0 0
BITMAP
1FF0
3860
30C0
2180
0300
0600
0600
0C00
1820
3060
60E0
FFC0
ENDCHAR

STARTCHAR bracketleft
ENCODING 91
SWIDTH 260 0
DWIDTH 4 0
BBX 5 17 0 -4
BITMAP
38
30
30
30
30
60
60
60
60
60
60
60
C0
C0
C0
C0
E0
ENDCHAR

STARTCHAR backslash
ENCODING 92
SWIDTH 600 0
DWIDTH 10 0
BBX 10 17 0 -4
BITMAP
C000
4000
6000
2000
3000
1000
1800
0800
0C00
0400
0600
0200
0300
0100
0180
0080
00C0
ENDCHAR

STARTCHAR bracketright
ENCODING 93
SWIDTH 260 0
DWIDTH 4 0
BBX 5 17 0 -4
BITMAP
38
18
18
18
18
30
30
30
30
30
30
30
60
60
60
60
E0
ENDCHAR

STARTCHAR asciicircum
ENCODING 94
SWIDTH 600 0
DWIDTH 10 0
BBX 7 7 2 5
BITMAP
10
38
28
6C
44
C6
82
ENDCHAR

STARTCHAR underscore
ENCODING 95
SWIDTH 500 0
DWIDTH 9 0
BBX 9 1 0 -2
BITMAP
FF80
ENDCHAR

STARTCHAR quoteleft
ENCODING 96
SWIDTH 280 0
DWIDTH 5 0
BBX 4 5 3 8
BITMAP
10
20
40
C0
C0
ENDCHAR

STARTCHAR a
ENCODING 97
SWIDTH 620 0
DWIDTH 11 0
BBX 9 8 2 0
BITMAP
1E80
3180
6180
6300
C300
C600
CE80
7B00
ENDCHAR

STARTCHAR b
ENCODING 98
SWIDTH 600 0
DWIDTH 10 0
BBX 9 13 1 0
BITMAP
1000
7000
3000
3000
3000
6F00
7380
6180
6180
6180
C300
E700
DC00
ENDCHAR

STARTCHAR c
ENCODING 99
SWIDTH 480 0
DWIDTH 8 0
BBX 8 8 1 0
BITMAP
1E
33
61
60
C0
C2
C4
78
ENDCHAR

STARTCHAR d
ENCODING 100
SWIDTH 640 0
DWIDTH 11 0
BBX 9 13 2 0
BITMAP
0080
0380
0180
0180
0180
1F00
3300
6300
6300
C300
C600
CE80
7700
ENDCHAR

STARTCHAR e
ENCODING 101
SWIDTH 540 0
DWIDTH 9 0
BBX 8 8 1 0
BITMAP
1E
33
63
7E
C0
C2
C4
78
ENDCHAR

STARTCHAR f
ENCODING 102
SWIDTH 340 0
DWIDTH 6 0
BBX 12 17 -2 -4
BITMAP
00E0
01B0
0300
0300
0F80
0300
0600
0600
0600
0600
0C00
0C00
0C00
0800
1800
D000
6000
ENDCHAR

STARTCHAR g
ENCODING 103
SWIDTH 560 0
DWIDTH 10 0
BBX 9 12 1 -4
BITMAP
1E80
3180
6180
6180
C300
C300
CF00
7B00
0600
8600
CC00
7800
ENDCHAR

STARTCHAR h
ENCODING 104
SWIDTH 620 0
DWIDTH 11 0
BBX 9 13 2 0
BITMAP
1000
7000
3000
3000
3000
6E00
7700
6300
6300
6300
C600
C680
C300
ENDCHAR

STARTCHAR i
ENCODING 105
SWIDTH 280 0
DWIDTH 5 0
BBX 4 13 1 0
BITMAP
30
30
00
00
00
20
E0
60
60
C0
C0
D0
60
ENDCHAR

STARTCHAR j
ENCODING 106
SWIDTH 280 0
DWIDTH 5 0
BBX 9 17 -3 -4
BITMAP
0180
0180
0000
0000
0000
0100
0700
0300
0300
0600
0600
0600
0600
0C00
8C00
D800
7000
ENDCHAR

STARTCHAR k
ENCODING 107
SWIDTH 600 0
DWIDTH 10 0
BBX 9 13 2 0
BITMAP
1000
7000
3000
3000
3000
6700
6C80
7800
7800
CC00
C400
C680
C300
ENDCHAR

STARTCHAR l
ENCODING 108
SWIDTH 280 0
DWIDTH 5 0
BBX 4 13 1 0
BITMAP
10
70
30
30
30
60
60
60
60
C0
C0
D0
60
ENDCHAR

STARTCHAR m
ENCODING 109
SWIDTH 880 0
DWIDTH 15 0
BBX 14 8 1 0
BITMAP
4F70
F398
6318
6318
6318
C630
C634
C618
ENDCHAR

STARTCHAR n
ENCODING 110
SWIDTH 620 0
DWIDTH 11 0
BBX 9 8 2 0
BITMAP
2E00
F300
6300
6300
6300
C600
C680
C300
ENDCHAR

STARTCHAR o
ENCODING 111
SWIDTH 540 0
DWIDTH 9 0
BBX 8 8 1 0
BITMAP
1E
33
63
C3
C3
C6
CC
78
ENDCHAR

STARTCHAR p
ENCODING 112
SWIDTH 600 0
DWIDTH 10 0
BBX 11 12 0 -4
BITMAP
0BC0
3CE0
1860
1860
30C0
30C0
3980
3600
6000
6000
6000
F000
ENDCHAR

STARTCHAR q
ENCODING 113
SWIDTH 560 0
DWIDTH 10 0
BBX 9 12 1 -4
BITMAP
1E80
3180
6180
6180
C300
C300
E700
7B00
0600
0600
0600
0F00
ENDCHAR

STARTCHAR r
ENCODING 114
SWIDTH 400 0
DWIDTH 7 0
BBX 6 8 2 0
BITMAP
2C
F0
60
60
60
C0
C0
C0
ENDCHAR

STARTCHAR s
ENCODING 115
SWIDTH 540 0
DWIDTH 9 0
BBX 8 8 1 0
BITMAP
3E
63
71
38
0C
86
C6
7C
ENDCHAR

STARTCHAR t
ENCODING 116
SWIDTH 340 0
DWIDTH 6 0
BBX 5 11 2 0
BITMAP
20
20
60
F8
60
60
60
C0
C0
D0
60
ENDCHAR

STARTCHAR u
ENCODING 117
SWIDTH 620 0
DWIDTH 11 0
BBX 8 8 2 0
BITMAP
23
E3
63
C6
C6
C6
CD
76
ENDCHAR

STARTCHAR v
ENCODING 118
SWIDTH 540 0
DWIDTH 9 0
BBX 8 8 1 0
BITMAP
22
E3
61
61
C3
C2
CC
78
ENDCHAR

STARTCHAR w
ENCODING 119
SWIDTH 880 0
DWIDTH 15 0
BBX 13 8 2 0
BITMAP
2310
E318
6308
6608
C618
C610
DA60
73C0
ENDCHAR

STARTCHAR x
ENCODING 120
SWIDTH 540 0
DWIDTH 9 0
BBX 10 8 0 0
BITMAP
08C0
3980
0E00
0C00
0600
0E00
D340
6180
ENDCHAR

STARTCHAR y
ENCODING 121
SWIDTH 600 0
DWIDTH 10 0
BBX 9 12 1 -4
BITMAP
1180
7180
3180
3180
6300
6300
6700
3B00
0200
8600
CC00
7800
ENDCHAR

STARTCHAR z
ENCODING 122
SWIDTH 520 0
DWIDTH 9 0
BBX 9 8 1 0
BITMAP
3F80
6300
4600
0C00
1800
3100
6300
FE00
ENDCHAR

STARTCHAR braceleft
ENCODING 123
SWIDTH 360 0
DWIDTH 6 0
BBX 6 17 0 -4
BITMAP
04
08
18
18
18
18
30
60
80
60
30
30
30
30
30
10
08
ENDCHAR

STARTCHAR bar
ENCODING 124
SWIDTH 600 0
DWIDTH 10 0
BBX 2 17 5 -4
BITMAP
C0
C0
C0
C0
C0
C0
C0
C0
C0
C0
C0
C0
C0
C0
C0
C0
C0
ENDCHAR

STARTCHAR braceright
ENCODING 125
SWIDTH 380 0
DWIDTH 6 0
BBX 6 17 0 -4
BITMAP
40
20
30
30
30
30
30
18
04
18
30
60
60
60
60
40
80
ENDCHAR

STARTCHAR asciitilde
ENCODING 126
SWIDTH 600 0
DWIDTH 10 0
BBX 7 2 2 5
BITMAP
76
DC
ENDCHAR

STARTCHAR space
ENCODING 160
SWIDTH 300 0
DWIDTH 6 0
BBX 0 0 0 0
BITMAP
ENDCHAR

STARTCHAR Aogonek
ENCODING 161
SWIDTH 700 0
DWIDTH 12 0
BBX 11 14 1 -2
BITMAP
0300
0300
0700
0500
0980
0980
1180
3F80
20C0
60C0
40C0
E1E0
0080
00E0
ENDCHAR

STARTCHAR breve
ENCODING 162
SWIDTH 440 0
DWIDTH 7 0
BBX 6 2 3 9
BITMAP
CC
78
ENDCHAR

STARTCHAR Lslash
ENCODING 163
SWIDTH 580 0
DWIDTH 10 0
BBX 10 12 1 0
BITMAP
3C00
1800
1A00
1C00
3800
3000
7000
B000
6040
60C0
61C0
FF80
ENDCHAR

STARTCHAR currency
ENCODING 164
SWIDTH 600 0
DWIDTH 10 0
BBX 7 7 2 2
BITMAP
BA
44
C6
82
C6
44
BA
ENDCHAR

STARTCHAR Lcaron
ENCODING 165
SWIDTH 580 0
DWIDTH 10 0
BBX 10 12 1 0
BITMAP
3D80
1980
1900
1A00
3000
3000
3000
3000
6040
60C0
61C0
FF80
ENDCHAR

STARTCHAR Sacute
ENCODING 166
SWIDTH 640 0
DWIDTH 11 0
BBX 11 15 1 0
BITMAP
0180
0300
0000
1FA0
38E0
3060
3020
1800
0E00
0700
0180
80C0
C0C0
E180
BF00
ENDCHAR

STARTCHAR section
ENCODING 167
SWIDTH 620 0
DWIDTH 11 0
BBX 9 16 2 -3
BITMAP
0F00
1980
3080
3000
1C00
3600
6300
6300
6300
6300
6300
3600
1C00
8C00
CC00
7800
ENDCHAR

STARTCHAR dieresis
ENCODING 168
SWIDTH 420 0
DWIDTH 7 0
BBX 5 2 3 9
BITMAP
D8
D8
ENDCHAR

STARTCHAR Scaron
ENCODING 169
SWIDTH 640 0
DWIDTH 11 0
BBX 11 15 1 0
BITMAP
0D80
0700
0000
1FA0
38E0
3060
3020
1800
0E00
0700
0180
80C0
C0C0
E180
BF00
ENDCHAR

STARTCHAR Scommaaccent
ENCODING 170
SWIDTH 640 0
DWIDTH 11 0
BBX 11 16 1 -4
BITMAP
1FA0
38E0
3060
3020
1800
0E00
0700
0180
80C0
C0C0
E180
BF00
0000
0C00
0400
0800
ENDCHAR

STARTCHAR Tcaron
ENCODING 171
SWIDTH 600 0
DWIDTH 10 0
BBX 10 15 2 0
BITMAP
1B00
0E00
0000
7F80
CCC0
8C40
0C00
1800
1800
1800
1800
3000
3000
3000
7800
ENDCHAR

STARTCHAR Zacute
ENCODING 172
SWIDTH 580 0
DWIDTH 10 0
BBX 12 15 0 0
BITMAP
0180
0300
0000
1FF0
3860
30C0
2180
0300
0600
0600
0C00
1820
3060
60E0
FFC0
ENDCHAR

STARTCHAR hyphen
ENCODING 173
SWIDTH 320 0
DWIDTH 5 0
BBX 5 1 1 4
BITMAP
F8
ENDCHAR

STARTCHAR Zcaron
ENCODING 174
SWIDTH 580 0
DWIDTH 10 0
BBX 12 15 0 0
BITMAP
0360
01C0
0000
1FF0
3860
30C0
2180
0300
0600
0600
0C00
1820
3060
60E0
FFC0
ENDCHAR

STARTCHAR Zdotaccent
ENCODING 175
SWIDTH 580 0
DWIDTH 10 0
BBX 12 15 0 0
BITMAP
0180
0180
0000
1FF0
3860
30C0
2180
0300
0600
0600
0C00
1820
3060
60E0
FFC0
ENDCHAR

STARTCHAR degree
ENCODING 176
SWIDTH 400 0
DWIDTH 7 0
BBX 5 5 3 7
BITMAP
70
88
88
88
70
ENDCHAR

STARTCHAR aogonek
ENCODING 177
SWIDTH 620 0
DWIDTH 11 0
BBX 9 10 2 -2
BITMAP
1E80
3180
6180
6300
C300
C600
CE80
7B00
0200
0380
ENDCHAR

STARTCHAR ogonek
ENCODING 178
SWIDTH 260 0
DWIDTH 4 0
BBX 3 2 1 -2
BITMAP
80
E0
ENDCHAR

STARTCHAR lslash
ENCODING 179
SWIDTH 340 0
DWIDTH 5 0
BBX 5 13 1 0
BITMAP
10
70
30
38
30
60
60
E0
60
C0
C0
D0
60
ENDCHAR

STARTCHAR acute
ENCODING 180
SWIDTH 320 0
DWIDTH 5 0
BBX 3 2 3 9
BITMAP
60
C0
ENDCHAR

STARTCHAR lcaron
ENCODING 181
SWIDTH 374 0
DWIDTH 5 0
BBX 7 13 1 0
BITMAP
16
76
32
34
30
60
60
60
60
C0
C0
D0
60
ENDCHAR

STARTCHAR sacute
ENCODING 182
SWIDTH 540 0
DWIDTH 9 0
BBX 8 11 1 0
BITMAP
0C
18
00
3E
63
71
38
0C
86
C6
7C
ENDCHAR

STARTCHAR caron
ENCODING 183
SWIDTH 440 0
DWIDTH 7 0
BBX 5 2 4 9
BITMAP
D8
70
ENDCHAR

STARTCHAR commaaccent
ENCODING 184
SWIDTH 333 0
DWIDTH 6 0
BBX 2 3 2 -4
BITMAP
C0
40
80
ENDCHAR

STARTCHAR scaron
ENCODING 185
SWIDTH 540 0
DWIDTH 9 0
BBX 8 11 1 0
BITMAP
1B
0E
00
3E
63
71
38
0C
86
C6
7C
ENDCHAR

STARTCHAR scommaaccent
ENCODING 186
SWIDTH 540 0
DWIDTH 9 0
BBX 8 12 1 -4
BITMAP
3E
63
71
38
0C
86
C6
7C
00
30
10
20
ENDCHAR

STARTCHAR tcaron
ENCODING 187
SWIDTH 358 0
DWIDTH 6 0
BBX 6 13 2 0
BITMAP
0C
0C
24
28
60
F8
60
60
60
C0
C0
D0
60
ENDCHAR

STARTCHAR zacute
ENCODING 188
SWIDTH 520 0
DWIDTH 9 0
BBX 9 11 1 0
BITMAP
0600
0C00
0000
3F80
6300
4600
0C00
1800
3100
6300
FE00
ENDCHAR

STARTCHAR hungarumlaut
ENCODING 189
SWIDTH 340 0
DWIDTH 6 0
BBX 7 2 1 9
BITMAP
66
CC
ENDCHAR

STARTCHAR zcaron
ENCODING 190
SWIDTH 520 0
DWIDTH 9 0
BBX 9 11 1 0
BITMAP
1B00
0E00
0000
3F80
6300
4600
0C00
1800
3100
6300
FE00
ENDCHAR

STARTCHAR zdotaccent
ENCODING 191
SWIDTH 520 0
DWIDTH 9 0
BBX 9 11 1 0
BITMAP
0600
0600
0000
3F80
6300
4600
0C00
1800
3100
6300
FE00
ENDCHAR

STARTCHAR Racute
ENCODING 192
SWIDTH 700 0
DWIDTH 12 0
BBX 12 15 1 0
BITMAP
0180
0300
0000
3FC0
1860
1830
1830
3060
3FC0
3200
3300
6100
6180
60C0
F0E0
ENDCHAR

STARTCHAR Aacute
ENCODING 193
SWIDTH 700 0
DWIDTH 12 0
BBX 11 15 1 0
BITMAP
0180
0300
0000
0300
0300
0700
0500
0980
0980
1180
3F80
20C0
60C0
40C0
E1E0
ENDCHAR

STARTCHAR Acircumflex
ENCODING 194
SWIDTH 700 0
DWIDTH 12 0
BBX 11 15 1 0
BITMAP
0380
06C0
0000
0300
0300
0700
0500
0980
0980
1180
3F80
20C0
60C0
40C0
E1E0
ENDCHAR

STARTCHAR Abreve
ENCODING 195
SWIDTH 700 0
DWIDTH 12 0
BBX 11 15 1 0
BITMAP
0CC0
0780
0000
0300
0300
0700
0500
0980
0980
1180
3F80
20C0
60C0
40C0
E1E0
ENDCHAR

STARTCHAR Adieresis
ENCODING 196
SWIDTH 700 0
DWIDTH 12 0
BBX 11 15 1 0
BITMAP
06C0
06C0
0000
0300
0300
0700
0500
0980
0980
1180
3F80
20C0
60C0
40C0
E1E0
ENDCHAR

STARTCHAR Lacute
ENCODING 197
SWIDTH 580 0
DWIDTH 10 0
BBX 10 15 1 0
BITMAP
0600
0C00
0000
3C00
1800
1800
1800
3000
3000
3000
3000
6040
60C0
61C0
FF80
ENDCHAR

STARTCHAR Cacute
ENCODING 198
SWIDTH 720 0
DWIDTH 12 0
BBX 11 15 2 0
BITMAP
00C0
0180
0000
07A0
18E0
3060
6020
6000
C000
C000
C000
C000
6040
7180
1F00
ENDCHAR

STARTCHAR Ccedilla
ENCODING 199
SWIDTH 720 0
DWIDTH 12 0
BBX 11 16 2 -4
BITMAP
07A0
18E0
3060
6020
6000
C000
C000
C000
C000
6040
7180
1F00
0400
0600
0200
1C00
ENDCHAR

STARTCHAR Ccaron
ENCODING 200
SWIDTH 720 0
DWIDTH 12 0
BBX 11 15 2 0
BITMAP
06C0
0380
0000
07A0
18E0
3060
6020
6000
C000
C000
C000
C000
6040
7180
1F00
ENDCHAR

STARTCHAR Eacute
ENCODING 201
SWIDTH 680 0
DWIDTH 12 0
BBX 12 15 1 0
BITMAP
0180
0300
0000
3FE0
1870
1830
1880
3180
3F80
3100
3100
6020
6060
60E0
FFC0
ENDCHAR

STARTCHAR Eogonek
ENCODING 202
SWIDTH 680 0
DWIDTH 12 0
BBX 12 14 1 -2
BITMAP
3FE0
1870
1830
1880
3180
3F80
3100
3100
6020
6060
60E0
FFC0
0080
00E0
ENDCHAR

STARTCHAR Edieresis
ENCODING 203
SWIDTH 680 0
DWIDTH 12 0
BBX 12 15 1 0
BITMAP
06C0
06C0
0000
3FE0
1870
1830
1880
3180
3F80
3100
3100
6020
6060
60E0
FFC0
ENDCHAR

STARTCHAR Ecaron
ENCODING 204
SWIDTH 680 0
DWIDTH 12 0
BBX 12 15 1 0
BITMAP
06C0
0380
0000
3FE0
1870
1830
1880
3180
3F80
3100
3100
6020
6060
60E0
FFC0
ENDCHAR

STARTCHAR Iacute
ENCODING 205
SWIDTH 320 0
DWIDTH 5 0
BBX 6 15 1 0
BITMAP
0C
18
00
3C
18
18
18
30
30
30
30
60
60
60
F0
ENDCHAR

STARTCHAR Icircumflex
ENCODING 206
SWIDTH 320 0
DWIDTH 5 0
BBX 7 15 1 0
BITMAP
1C
36
00
3C
18
18
18
30
30
30
30
60
60
60
F0
ENDCHAR

STARTCHAR Dcaron
ENCODING 207
SWIDTH 740 0
DWIDTH 13 0
BBX 12 15 2 0
BITMAP
06C0
0380
0000
3F80
1860
1860
1830
3030
3030
3030
3070
6060
60C0
6180
FE00
ENDCHAR

STARTCHAR Dcroat
ENCODING 208
SWIDTH 740 0
DWIDTH 13 0
BBX 12 12 2 0
BITMAP
3F80
1860
1860
1830
3030
7E30
3030
3070
6060
60C0
6180
FE00
ENDCHAR

STARTCHAR Nacute
ENCODING 209
SWIDTH 720 0
DWIDTH 12 0
BBX 13 15 1 0
BITMAP
00C0
0180
0000
3838
1C10
1C10
1610
3630
2320
2320
21A0
61E0
40C0
40C0
E040
ENDCHAR

STARTCHAR Ncaron
ENCODING 210
SWIDTH 720 0
DWIDTH 12 0
BBX 13 15 1 0
BITMAP
0360
01C0
0000
3838
1C10
1C10
1610
3630
2320
2320
21A0
61E0
40C0
40C0
E040
ENDCHAR

STARTCHAR Oacute
ENCODING 211
SWIDTH 760 0
DWIDTH 13 0
BBX 12 15 2 0
BITMAP
0180
0300
0000
07C0
1860
3030
6030
6030
C030
C030
C060
C060
C0C0
6180
3E00
ENDCHAR

STARTCHAR Ocircumflex
ENCODING 212
SWIDTH 760 0
DWIDTH 13 0
BBX 12 15 2 0
BITMAP
0380
06C0
0000
07C0
1860
3030
6030
6030
C030
C030
C060
C060
C0C0
6180
3E00
ENDCHAR

STARTCHAR Ohungarumlaut
ENCODING 213
SWIDTH 760 0
DWIDTH 13 0
BBX 12 15 2 0
BITMAP
0330
0660
0000
07C0
1860
3030
6030
6030
C030
C030
C060
C060
C0C0
6180
3E00
ENDCHAR

STARTCHAR Odieresis
ENCODING 214
SWIDTH 760 0
DWIDTH 13 0
BBX 12 15 2 0
BITMAP
06C0
06C0
0000
07C0
1860
3030
6030
6030
C030
C030
C060
C060
C0C0
6180
3E00
ENDCHAR

STARTCHAR multiply
ENCODING 215
SWIDTH 600 0
DWIDTH 10 0
BBX 7 7 2 2
BITMAP
82
44
28
10
28
44
82
ENDCHAR

STARTCHAR Rcaron
ENCODING 216
SWIDTH 700 0
DWIDTH 12 0
BBX 12 15 1 0
BITMAP
06C0
0380
0000
3FC0
1860
1830
1830
3060
3FC0
3200
3300
6100
6180
60C0
F0E0
ENDCHAR

STARTCHAR Uring
ENCODING 217
SWIDTH 720 0
DWIDTH 12 0
BBX 12 16 2 0
BITMAP
0100
0280
0100
0000
7870
3020
3020
6020
6060
6040
6040
C040
C080
C080
6100
3E00
ENDCHAR

STARTCHAR Uacute
ENCODING 218
SWIDTH 720 0
DWIDTH 12 0
BBX 12 15 2 0
BITMAP
0180
0300
0000
7870
3020
3020
6020
6060
6040
6040
C040
C080
C080
6100
3E00
ENDCHAR

STARTCHAR Uhungarumlaut
ENCODING 219
SWIDTH 720 0
DWIDTH 12 0
BBX 12 15 2 0
BITMAP
0660
0CC0
0000
7870
3020
3020
6020
6060
6040
6040
C040
C080
C080
6100
3E00
ENDCHAR

STARTCHAR Udieresis
ENCODING 220
SWIDTH 720 0
DWIDTH 12 0
BBX 12 15 2 0
BITMAP
06C0
06C0
0000
7870
3020
3020
6020
6060
6040
6040
C040
C080
C080
6100
3E00
ENDCHAR

STARTCHAR Yacute
ENCODING 221
SWIDTH 660 0
DWIDTH 11 0
BBX 11 15 2 0
BITMAP
0300
0600
0000
F1E0
60C0
6080
3100
3200
3400
1800
1800
1800
3000
3000
7800
ENDCHAR

STARTCHAR Tcommaaccent
ENCODING 222
SWIDTH 600 0
DWIDTH 10 0
BBX 10 16 2 -4
BITMAP
7F80
CCC0
8C40
0C00
1800
1800
1800
1800
3000
3000
3000
7800
0000
6000
2000
4000
ENDCHAR

STARTCHAR germandbls
ENCODING 223
SWIDTH 620 0
DWIDTH 11 0
BBX 12 17 -2 -4
BITMAP
00E0
01B0
0330
0360
0E80
06C0
0660
0660
0630
0C30
0C30
0D70
0CE0
1800
1800
D000
6000
ENDCHAR

STARTCHAR racute
ENCODING 224
SWIDTH 400 0
DWIDTH 7 0
BBX 6 11 2 0
BITMAP
18
30
00
2C
F0
60
60
60
C0
C0
C0
ENDCHAR

STARTCHAR aacute
ENCODING 225
SWIDTH 620 0
DWIDTH 11 0
BBX 9 11 2 0
BITMAP
0300
0600
0000
1E80
3180
6180
6300
C300
C600
CE80
7B00
ENDCHAR

STARTCHAR acircumflex
ENCODING 226
SWIDTH 620 0
DWIDTH 11 0
BBX 9 11 2 0
BITMAP
0700
0D80
0000
1E80
3180
6180
6300
C300
C600
CE80
7B00
ENDCHAR

STARTCHAR abreve
ENCODING 227
SWIDTH 620 0
DWIDTH 11 0
BBX 9 11 2 0
BITMAP
1980
0F00
0000
1E80
3180
6180
6300
C300
C600
CE80
7B00
ENDCHAR

STARTCHAR adieresis
ENCODING 228
SWIDTH 620 0
DWIDTH 11 0
BBX 9 11 2 0
BITMAP
1B00
1B00
0000
1E80
3180
6180
6300
C300
C600
CE80
7B00
ENDCHAR

STARTCHAR lacute
ENCODING 229
SWIDTH 280 0
DWIDTH 5 0
BBX 5 16 1 0
BITMAP
18
30
00
10
70
30
30
30
60
60
60
60
C0
C0
D0
60
ENDCHAR

STARTCHAR cacute
ENCODING 230
SWIDTH 480 0
DWIDTH 8 0
BBX 8 11 1 0
BITMAP
06
0C
00
1E
33
61
60
C0
C2
C4
78
ENDCHAR

STARTCHAR ccedilla
ENCODING 231
SWIDTH 480 0
DWIDTH 8 0
BBX 8 11 1 -3
BITMAP
1E
33
61
60
C0
C2
C4
78
20
10
60
ENDCHAR

STARTCHAR ccaron
ENCODING 232
SWIDTH 480 0
DWIDTH 8 0
BBX 8 11 1 0
BITMAP
1B
0E
00
1E
33
61
60
C0
C2
C4
78
ENDCHAR

STARTCHAR eacute
ENCODING 233
SWIDTH 540 0
DWIDTH 9 0
BBX 8 11 1 0
BITMAP
06
0C
00
1E
33
63
7E
C0
C2
C4
78
ENDCHAR

STARTCHAR eogonek
ENCODING 234
SWIDTH 540 0
DWIDTH 9 0
BBX 8 10 1 -2
BITMAP
1E
33
63
7E
C0
C2
C4
78
20
38
ENDCHAR

STARTCHAR edieresis
ENCODING 235
SWIDTH 540 0
DWIDTH 9 0
BBX 8 11 1 0
BITMAP
1B
1B
00
1E
33
63
7E
C0
C2
C4
78
ENDCHAR

STARTCHAR ecaron
ENCODING 236
SWIDTH 540 0
DWIDTH 9 0
BBX 8 11 1 0
BITMAP
1B
0E
00
1E
33
63
7E
C0
C2
C4
78
ENDCHAR

STARTCHAR iacute
ENCODING 237
SWIDTH 280 0
DWIDTH 5 0
BBX 5 11 1 0
BITMAP
18
30
00
20
E0
60
60
C0
C0
D0
60
ENDCHAR

STARTCHAR icircumflex
ENCODING 238
SWIDTH 280 0
DWIDTH 5 0
BBX 5 11 1 0
BITMAP
70
D8
00
20
E0
60
60
C0
C0
D0
60
ENDCHAR

STARTCHAR dcaron
ENCODING 239
SWIDTH 711 0
DWIDTH 11 0
BBX 12 13 2 0
BITMAP
00B0
03B0
0190
01A0
0180
1F00
3300
6300
6300
C300
C600
CE80
7700
ENDCHAR

STARTCHAR dcroat
ENCODING 240
SWIDTH 640 0
DWIDTH 11 0
BBX 10 13 2 0
BITMAP
0080
0380
0180
07C0
0180
1F00
3300
6300
6300
C300
C600
CE80
7700
ENDCHAR

STARTCHAR nacute
ENCODING 241
SWIDTH 620 0
DWIDTH 11 0
BBX 9 11 2 0
BITMAP
0600
0C00
0000
2E00
F300
6300
6300
6300
C600
C680
C300
ENDCHAR

STARTCHAR ncaron
ENCODING 242
SWIDTH 620 0
DWIDTH 11 0
BBX 9 11 2 0
BITMAP
1B00
0E00
0000
2E00
F300
6300
6300
6300
C600
C680
C300
ENDCHAR

STARTCHAR oacute
ENCODING 243
SWIDTH 540 0
DWIDTH 9 0
BBX 8 11 1 0
BITMAP
06
0C
00
1E
33
63
C3
C3
C6
CC
78
ENDCHAR

STARTCHAR ocircumflex
ENCODING 244
SWIDTH 540 0
DWIDTH 9 0
BBX 8 11 1 0
BITMAP
0E
1B
00
1E
33
63
C3
C3
C6
CC
78
ENDCHAR

STARTCHAR ohungarumlaut
ENCODING 245
SWIDTH 540 0
DWIDTH 9 0
BBX 9 11 1 0
BITMAP
1980
3300
0000
1E00
3300
6300
C300
C300
C600
CC00
7800
ENDCHAR

STARTCHAR odieresis
ENCODING 246
SWIDTH 540 0
DWIDTH 9 0
BBX 8 11 1 0
BITMAP
1B
1B
00
1E
33
63
C3
C3
C6
CC
78
ENDCHAR

STARTCHAR divide
ENCODING 247
SWIDTH 600 0
DWIDTH 10 0
BBX 8 7 2 2
BITMAP
18
18
00
FF
00
18
18
ENDCHAR

STARTCHAR rcaron
ENCODING 248
SWIDTH 400 0
DWIDTH 7 0
BBX 6 11 2 0
BITMAP
6C
38
00
2C
F0
60
60
60
C0
C0
C0
ENDCHAR

STARTCHAR uring
ENCODING 249
SWIDTH 620 0
DWIDTH 11 0
BBX 8 12 2 0
BITMAP
08
14
08
00
23
E3
63
C6
C6
C6
CD
76
ENDCHAR

STARTCHAR uacute
ENCODING 250
SWIDTH 620 0
DWIDTH 11 0
BBX 8 11 2 0
BITMAP
06
0C
00
23
E3
63
C6
C6
C6
CD
76
ENDCHAR

STARTCHAR uhungarumlaut
ENCODING 251
SWIDTH 620 0
DWIDTH 11 0
BBX 9 11 2 0
BITMAP
1980
3300
0000
2300
E300
6300
C600
C600
C600
CD00
7600
ENDCHAR

STARTCHAR udieresis
ENCODING 252
SWIDTH 620 0
DWIDTH 11 0
BBX 8 11 2 0
BITMAP
36
36
00
23
E3
63
C6
C6
C6
CD
76
ENDCHAR

STARTCHAR yacute
ENCODING 253
SWIDTH 600 0
DWIDTH 10 0
BBX 9 15 1 -4
BITMAP
0300
0600
0000
1180
7180
3180
3180
6300
6300
6700
3B00
0200
8600
CC00
7800
ENDCHAR

STARTCHAR tcommaaccent
ENCODING 254
SWIDTH 340 0
DWIDTH 6 0
BBX 5 15 2 -4
BITMAP
20
20
60
F8
60
60
60
C0
C0
D0
60
00
C0
40
80
ENDCHAR

STARTCHAR dotaccent
ENCODING 255
SWIDTH 260 0
DWIDTH 4 0
BBX 2 2 2 9
BITMAP
C0
C0
ENDCHAR

ENDFONT
