STARTFONT 2.1
FONT -Monotype-Century Schoolbook-Bold-R-Normal--19-140-100-100-P-100-iso8859-9
SIZE 14 100 100
FONTBOUNDINGBOX 22 22 -3 -4

STARTPROPERTIES 24
FOUNDRY "Monotype"
FAMILY_NAME "Century Schoolbook"
WEIGHT_NAME "Bold"
SLANT "R"
SETWIDTH_NAME "Normal"
ADD_STYLE_NAME ""
PIXEL_SIZE 19
POINT_SIZE 140
RESOLUTION_X 100
RESOLUTION_Y 100
SPACING "P"
AVERAGE_WIDTH 100
CHARSET_REGISTRY "iso8859"
CHARSET_ENCODING "9"
FACE_NAME "Century Schoolbook Bold ISO Latin5"
_DEC_DEVICE_FONTNAMES "PS=centuryschoolbook-b-lat5"
COPYRIGHT "Copyright (c) 1994 Monotype Typography Ltd."
CAP_HEIGHT 16
X_HEIGHT 10
WEIGHT 10
QUAD_WIDTH 12
DEFAULT_CHAR 160
FONT_DESCENT 4
FONT_ASCENT 19
ENDPROPERTIES

CHARS 191

STARTCHAR space
ENCODING 32
SWIDTH 287 0
DWIDTH 5 0
BBX 0 0 0 0
BITMAP
ENDCHAR

STARTCHAR exclam
ENCODING 33
SWIDTH 296 0
DWIDTH 6 0
BBX 3 14 1 0
BITMAP
40
E0
E0
E0
E0
E0
40
40
40
40
00
E0
E0
E0
ENDCHAR

STARTCHAR quotedbl
ENCODING 34
SWIDTH 333 0
DWIDTH 6 0
BBX 7 6 0 8
BITMAP
EE
EE
EE
EE
44
44
ENDCHAR

STARTCHAR numbersign
ENCODING 35
SWIDTH 574 0
DWIDTH 11 0
BBX 12 14 -1 0
BITMAP
0CC0
0CC0
0CC0
0CC0
7FF0
7FF0
1980
1980
1980
FFE0
FFE0
3300
3300
3300
ENDCHAR

STARTCHAR dollar
ENCODING 36
SWIDTH 574 0
DWIDTH 11 0
BBX 9 17 1 -2
BITMAP
0800
3F00
6980
EB80
EB80
F900
7800
7E00
3F00
0F80
4F80
EB80
EB80
CB00
7E00
0800
0800
ENDCHAR

STARTCHAR percent
ENCODING 37
SWIDTH 833 0
DWIDTH 16 0
BBX 14 14 1 0
BITMAP
3010
4820
CC20
CC40
CC80
4880
3100
0230
0248
04CC
08CC
08CC
1048
2030
ENDCHAR

STARTCHAR ampersand
ENCODING 38
SWIDTH 852 0
DWIDTH 16 0
BBX 15 14 1 0
BITMAP
0700
0D80
18C0
18C0
1D80
0F00
3E7E
7718
E710
E3A0
E1E0
F0E2
79F2
3F3C
ENDCHAR

STARTCHAR quoteright
ENCODING 39
SWIDTH 241 0
DWIDTH 5 0
BBX 4 6 0 8
BITMAP
60
F0
70
10
20
40
ENDCHAR

STARTCHAR parenleft
ENCODING 40
SWIDTH 389 0
DWIDTH 7 0
BBX 6 18 1 -4
BITMAP
04
08
10
30
30
60
60
E0
E0
E0
E0
60
60
30
30
10
08
04
ENDCHAR

STARTCHAR parenright
ENCODING 41
SWIDTH 389 0
DWIDTH 7 0
BBX 6 18 0 -4
BITMAP
80
40
20
30
30
18
18
1C
1C
1C
1C
18
18
30
30
20
40
80
ENDCHAR

STARTCHAR asterisk
ENCODING 42
SWIDTH 500 0
DWIDTH 10 0
BBX 8 8 1 6
BITMAP
08
6B
1C
FF
18
3C
66
42
ENDCHAR

STARTCHAR plus
ENCODING 43
SWIDTH 606 0
DWIDTH 12 0
BBX 10 10 1 1
BITMAP
0C00
0C00
0C00
0C00
FFC0
FFC0
0C00
0C00
0C00
0C00
ENDCHAR

STARTCHAR comma
ENCODING 44
SWIDTH 278 0
DWIDTH 5 0
BBX 4 6 1 -3
BITMAP
60
F0
70
10
20
40
ENDCHAR

STARTCHAR minus
ENCODING 45
SWIDTH 606 0
DWIDTH 12 0
BBX 10 2 1 5
BITMAP
FFC0
FFC0
ENDCHAR

STARTCHAR period
ENCODING 46
SWIDTH 278 0
DWIDTH 5 0
BBX 3 3 1 0
BITMAP
E0
E0
E0
ENDCHAR

STARTCHAR slash
ENCODING 47
SWIDTH 278 0
DWIDTH 5 0
BBX 5 14 0 0
BITMAP
08
08
18
18
10
30
30
20
60
60
40
C0
C0
80
ENDCHAR

STARTCHAR zero
ENCODING 48
SWIDTH 574 0
DWIDTH 11 0
BBX 9 14 1 0
BITMAP
1C00
3600
6300
6300
E380
E380
E380
E380
E380
E380
6300
6300
3600
1C00
ENDCHAR

STARTCHAR one
ENCODING 49
SWIDTH 574 0
DWIDTH 11 0
BBX 7 14 2 0
BITMAP
08
F8
38
38
38
38
38
38
38
38
38
38
38
FE
ENDCHAR

STARTCHAR two
ENCODING 50
SWIDTH 574 0
DWIDTH 11 0
BBX 9 14 1 0
BITMAP
3E00
4700
C380
E380
E380
4380
0300
0600
0C00
0800
1080
2180
7F80
FF80
ENDCHAR

STARTCHAR three
ENCODING 51
SWIDTH 574 0
DWIDTH 11 0
BBX 9 14 1 0
BITMAP
3E00
4300
E380
E380
4380
0300
1E00
0300
0380
4380
E380
E380
4700
3E00
ENDCHAR

STARTCHAR four
ENCODING 52
SWIDTH 574 0
DWIDTH 11 0
BBX 10 14 1 0
BITMAP
0300
0700
0700
0F00
1700
1700
2700
4700
4700
8700
FFC0
0700
0700
1FC0
ENDCHAR

STARTCHAR five
ENCODING 53
SWIDTH 574 0
DWIDTH 11 0
BBX 9 14 1 0
BITMAP
3F80
3E00
2000
6000
4000
7E00
4700
4380
0380
4380
E380
E380
4700
3C00
ENDCHAR

STARTCHAR six
ENCODING 54
SWIDTH 574 0
DWIDTH 11 0
BBX 9 14 1 0
BITMAP
1F00
7380
6180
E000
E000
EC00
F700
E380
E380
E380
E380
E380
7700
1C00
ENDCHAR

STARTCHAR seven
ENCODING 55
SWIDTH 574 0
DWIDTH 11 0
BBX 9 14 1 0
BITMAP
7F80
FF80
8180
8100
0300
0300
0600
0600
0E00
0C00
0C00
1C00
1C00
1C00
ENDCHAR

STARTCHAR eight
ENCODING 56
SWIDTH 574 0
DWIDTH 11 0
BBX 9 14 1 0
BITMAP
3E00
7700
E380
E380
E380
7300
3E00
6700
E380
E380
E380
E380
7700
3E00
ENDCHAR

STARTCHAR nine
ENCODING 57
SWIDTH 574 0
DWIDTH 11 0
BBX 9 14 1 0
BITMAP
1C00
7700
E380
E380
E380
E380
E380
7780
1B80
0380
0380
C300
E700
7C00
ENDCHAR

STARTCHAR colon
ENCODING 58
SWIDTH 278 0
DWIDTH 5 0
BBX 3 9 1 0
BITMAP
E0
E0
E0
00
00
00
E0
E0
E0
ENDCHAR

STARTCHAR semicolon
ENCODING 59
SWIDTH 278 0
DWIDTH 5 0
BBX 4 12 0 -3
BITMAP
70
70
70
00
00
00
60
F0
70
30
20
40
ENDCHAR

STARTCHAR less
ENCODING 60
SWIDTH 606 0
DWIDTH 12 0
BBX 10 9 1 2
BITMAP
00C0
07C0
1F00
F800
E000
F800
1F00
07C0
00C0
ENDCHAR

STARTCHAR equal
ENCODING 61
SWIDTH 606 0
DWIDTH 12 0
BBX 10 6 1 3
BITMAP
FFC0
FFC0
0000
0000
FFC0
FFC0
ENDCHAR

STARTCHAR greater
ENCODING 62
SWIDTH 606 0
DWIDTH 12 0
BBX 10 9 2 2
BITMAP
C000
F800
3E00
07C0
01C0
07C0
3E00
F800
C000
ENDCHAR

STARTCHAR question
ENCODING 63
SWIDTH 500 0
DWIDTH 10 0
BBX 8 14 1 0
BITMAP
3C
4E
E7
E7
47
0E
0C
18
10
10
00
38
38
38
ENDCHAR

STARTCHAR at
ENCODING 64
SWIDTH 747 0
DWIDTH 14 0
BBX 14 15 0 -1
BITMAP
07C0
1830
2008
4368
46E4
8CC4
8CC4
99C4
9B88
9DB4
48C4
4008
2008
1830
07C0
ENDCHAR

STARTCHAR A
ENCODING 65
SWIDTH 759 0
DWIDTH 14 0
BBX 14 14 0 0
BITMAP
0300
0300
0780
0780
05C0
0DC0
08C0
18E0
1060
1FF0
3070
2038
6038
F8FC
ENDCHAR

STARTCHAR B
ENCODING 66
SWIDTH 778 0
DWIDTH 15 0
BBX 13 14 1 0
BITMAP
FFE0
38F0
3870
3870
3870
38E0
3FC0
3870
3838
3838
3838
3838
3870
FFE0
ENDCHAR

STARTCHAR C
ENCODING 67
SWIDTH 778 0
DWIDTH 15 0
BBX 13 14 1 0
BITMAP
0FC8
3878
7018
7008
E008
E000
E000
E000
E000
E000
7008
7010
3820
0FC0
ENDCHAR

STARTCHAR D
ENCODING 68
SWIDTH 833 0
DWIDTH 16 0
BBX 14 14 1 0
BITMAP
FFC0
3870
3838
3838
381C
381C
381C
381C
381C
381C
3838
3838
3870
FFC0
ENDCHAR

STARTCHAR E
ENCODING 69
SWIDTH 759 0
DWIDTH 14 0
BBX 12 14 1 0
BITMAP
FFF0
3830
3810
3890
3890
3980
3F80
3980
3880
3890
3810
3810
3830
FFF0
ENDCHAR

STARTCHAR F
ENCODING 70
SWIDTH 722 0
DWIDTH 14 0
BBX 12 14 1 0
BITMAP
FFF0
3830
3810
3890
3890
3980
3F80
3980
3880
3880
3800
3800
3800
FE00
ENDCHAR

STARTCHAR G
ENCODING 71
SWIDTH 833 0
DWIDTH 16 0
BBX 15 14 1 0
BITMAP
0F90
3870
7030
7010
E010
E000
E000
E0FE
E038
E038
7038
7038
3858
0F88
ENDCHAR

STARTCHAR H
ENCODING 72
SWIDTH 870 0
DWIDTH 17 0
BBX 15 14 1 0
BITMAP
FEFE
3838
3838
3838
3838
3838
3FF8
3838
3838
3838
3838
3838
3838
FEFE
ENDCHAR

STARTCHAR I
ENCODING 73
SWIDTH 444 0
DWIDTH 9 0
BBX 7 14 1 0
BITMAP
FE
38
38
38
38
38
38
38
38
38
38
38
38
FE
ENDCHAR

STARTCHAR J
ENCODING 74
SWIDTH 648 0
DWIDTH 12 0
BBX 11 14 0 0
BITMAP
0FE0
0380
0380
0380
0380
0380
0380
0380
6380
F380
E380
8380
4700
3C00
ENDCHAR

STARTCHAR K
ENCODING 75
SWIDTH 815 0
DWIDTH 15 0
BBX 14 14 1 0
BITMAP
FEFC
3830
3860
3840
3880
3980
3B80
3DC0
38C0
38E0
3860
3870
3838
FEFC
ENDCHAR

STARTCHAR L
ENCODING 76
SWIDTH 722 0
DWIDTH 14 0
BBX 12 14 1 0
BITMAP
FE00
3800
3800
3800
3800
3800
3800
3800
3800
3810
3810
3810
3830
FFF0
ENDCHAR

STARTCHAR M
ENCODING 77
SWIDTH 981 0
DWIDTH 19 0
BBX 17 14 1 0
BITMAP
FC1F80
3C1E00
3C1E00
2E2E00
2E2E00
2E2E00
274E00
274E00
274E00
238E00
238E00
238E00
210E00
F93F80
ENDCHAR

STARTCHAR N
ENCODING 78
SWIDTH 833 0
DWIDTH 16 0
BBX 15 14 1 0
BITMAP
F03E
3808
3C08
3E08
2F08
2708
2388
21C8
21E8
20F8
2078
2038
2018
F808
ENDCHAR

STARTCHAR O
ENCODING 79
SWIDTH 833 0
DWIDTH 16 0
BBX 14 14 1 0
BITMAP
0FC0
3870
7038
7038
E01C
E01C
E01C
E01C
E01C
E01C
7038
7038
3870
0FC0
ENDCHAR

STARTCHAR P
ENCODING 80
SWIDTH 759 0
DWIDTH 15 0
BBX 13 14 1 0
BITMAP
FFC0
3870
3838
3838
3838
3838
3870
3FC0
3800
3800
3800
3800
3800
FE00
ENDCHAR

STARTCHAR Q
ENCODING 81
SWIDTH 833 0
DWIDTH 16 0
BBX 14 18 1 -4
BITMAP
0FC0
3870
7038
7038
E01C
E01C
E01C
E01C
E01C
E79C
78D8
70F8
38F0
0FE0
0060
0060
0068
0030
ENDCHAR

STARTCHAR R
ENCODING 82
SWIDTH 815 0
DWIDTH 14 0
BBX 13 14 1 0
BITMAP
FFC0
38E0
3870
3870
3870
38E0
3F80
39C0
38C0
38E0
38E0
38E0
3868
FE30
ENDCHAR

STARTCHAR S
ENCODING 83
SWIDTH 667 0
DWIDTH 13 0
BBX 11 14 1 0
BITMAP
1E40
71C0
E0C0
E040
F040
FC00
7F00
1FC0
07E0
81E0
80E0
C0E0
E1C0
9F00
ENDCHAR

STARTCHAR T
ENCODING 84
SWIDTH 722 0
DWIDTH 13 0
BBX 13 14 0 0
BITMAP
7FF0
C718
C718
8708
8708
0700
0700
0700
0700
0700
0700
0700
0700
0F80
ENDCHAR

STARTCHAR U
ENCODING 85
SWIDTH 833 0
DWIDTH 16 0
BBX 15 14 1 0
BITMAP
FE3E
3808
3808
3808
3808
3808
3808
3808
3808
3808
3808
1C10
1E30
07C0
ENDCHAR

STARTCHAR V
ENCODING 86
SWIDTH 759 0
DWIDTH 14 0
BBX 14 14 0 0
BITMAP
FE3C
3808
3808
1C10
1C10
1C20
0E20
0E20
0740
0740
03C0
0380
0180
0180
ENDCHAR

STARTCHAR W
ENCODING 87
SWIDTH 981 0
DWIDTH 19 0
BBX 19 14 0 0
BITMAP
FDF1E0
70E040
70E040
70F080
38F080
38B100
393900
1D3900
1D1A00
1E1A00
1E1E00
0E0C00
0C0C00
0C0C00
ENDCHAR

STARTCHAR X
ENCODING 88
SWIDTH 722 0
DWIDTH 14 0
BBX 14 14 0 0
BITMAP
FCFC
7030
3820
1C40
1E80
0F00
0700
0780
0DC0
09C0
10E0
20F0
6078
F9FC
ENDCHAR

STARTCHAR Y
ENCODING 89
SWIDTH 722 0
DWIDTH 14 0
BBX 14 14 0 0
BITMAP
FE7C
3810
1C20
1C20
0E40
0740
0780
0380
0380
0380
0380
0380
0380
07C0
ENDCHAR

STARTCHAR Z
ENCODING 90
SWIDTH 667 0
DWIDTH 13 0
BBX 11 14 1 0
BITMAP
FFE0
C1E0
81C0
8380
8700
0700
0E00
1C00
1C00
3820
7020
7020
E060
FFE0
ENDCHAR

STARTCHAR bracketleft
ENCODING 91
SWIDTH 389 0
DWIDTH 7 0
BBX 5 18 2 -4
BITMAP
F8
E0
E0
E0
E0
E0
E0
E0
E0
E0
E0
E0
E0
E0
E0
E0
E0
F8
ENDCHAR

STARTCHAR backslash
ENCODING 92
SWIDTH 606 0
DWIDTH 12 0
BBX 11 14 0 0
BITMAP
C000
6000
2000
3000
1800
0800
0C00
0600
0200
0300
0180
0080
00C0
0060
ENDCHAR

STARTCHAR bracketright
ENCODING 93
SWIDTH 389 0
DWIDTH 7 0
BBX 5 18 1 -4
BITMAP
F8
38
38
38
38
38
38
38
38
38
38
38
38
38
38
38
38
F8
ENDCHAR

STARTCHAR asciicircum
ENCODING 94
SWIDTH 606 0
DWIDTH 12 0
BBX 8 7 2 7
BITMAP
10
18
38
3C
66
66
C3
ENDCHAR

STARTCHAR underscore
ENCODING 95
SWIDTH 500 0
DWIDTH 10 0
BBX 10 1 0 -2
BITMAP
FFC0
ENDCHAR

STARTCHAR quoteleft
ENCODING 96
SWIDTH 241 0
DWIDTH 5 0
BBX 4 6 0 8
BITMAP
20
40
80
E0
F0
60
ENDCHAR

STARTCHAR a
ENCODING 97
SWIDTH 611 0
DWIDTH 12 0
BBX 10 9 1 0
BITMAP
3F00
7380
7380
2380
1F80
7380
E380
E780
79C0
ENDCHAR

STARTCHAR b
ENCODING 98
SWIDTH 648 0
DWIDTH 12 0
BBX 11 14 0 0
BITMAP
F800
3800
3800
3800
3800
3F00
39C0
38E0
38E0
38E0
38E0
38E0
39C0
6700
ENDCHAR

STARTCHAR c
ENCODING 99
SWIDTH 556 0
DWIDTH 11 0
BBX 9 9 1 0
BITMAP
3F00
7380
E380
E100
E000
E000
E080
7100
3E00
ENDCHAR

STARTCHAR d
ENCODING 100
SWIDTH 667 0
DWIDTH 13 0
BBX 12 14 1 0
BITMAP
07C0
01C0
01C0
01C0
01C0
3DC0
73C0
E1C0
E1C0
E1C0
E1C0
E1C0
73C0
3DF0
ENDCHAR

STARTCHAR e
ENCODING 101
SWIDTH 574 0
DWIDTH 11 0
BBX 9 9 1 0
BITMAP
3E00
6300
E380
E380
FF80
E000
E080
7100
3E00
ENDCHAR

STARTCHAR f
ENCODING 102
SWIDTH 389 0
DWIDTH 7 0
BBX 8 14 1 0
BITMAP
1E
33
77
72
70
F8
70
70
70
70
70
70
70
F8
ENDCHAR

STARTCHAR g
ENCODING 103
SWIDTH 611 0
DWIDTH 12 0
BBX 11 14 2 -4
BITMAP
0060
3FC0
6300
E380
E380
E300
7E00
8000
8000
FE00
7F00
C380
8380
7F00
ENDCHAR

STARTCHAR h
ENCODING 104
SWIDTH 685 0
DWIDTH 13 0
BBX 13 14 0 0
BITMAP
F800
3800
3800
3800
3800
3BC0
3CE0
38E0
38E0
38E0
38E0
38E0
38E0
FDF8
ENDCHAR

STARTCHAR i
ENCODING 105
SWIDTH 370 0
DWIDTH 7 0
BBX 7 14 0 0
BITMAP
38
38
38
00
00
F8
38
38
38
38
38
38
38
FE
ENDCHAR

STARTCHAR j
ENCODING 106
SWIDTH 352 0
DWIDTH 7 0
BBX 5 18 0 -4
BITMAP
38
38
38
00
00
F8
38
38
38
38
38
38
38
38
38
B8
B0
60
ENDCHAR

STARTCHAR k
ENCODING 107
SWIDTH 667 0
DWIDTH 13 0
BBX 13 14 0 0
BITMAP
F800
3800
3800
3800
3800
3BE0
3980
3B00
3E00
3F00
3B80
39C0
38E0
FDF8
ENDCHAR

STARTCHAR l
ENCODING 108
SWIDTH 352 0
DWIDTH 7 0
BBX 7 14 0 0
BITMAP
F8
38
38
38
38
38
38
38
38
38
38
38
38
FE
ENDCHAR

STARTCHAR m
ENCODING 109
SWIDTH 963 0
DWIDTH 19 0
BBX 19 9 0 0
BITMAP
FBEF00
3CF380
38E380
38E380
38E380
38E380
38E380
38E380
FDF7E0
ENDCHAR

STARTCHAR n
ENCODING 110
SWIDTH 685 0
DWIDTH 13 0
BBX 11 9 1 0
BITMAP
F780
79C0
71C0
71C0
71C0
71C0
71C0
71C0
FBE0
ENDCHAR

STARTCHAR o
ENCODING 111
SWIDTH 611 0
DWIDTH 12 0
BBX 10 9 1 0
BITMAP
1E00
7380
E1C0
E1C0
E1C0
E1C0
E1C0
7380
1E00
ENDCHAR

STARTCHAR p
ENCODING 112
SWIDTH 667 0
DWIDTH 13 0
BBX 12 13 0 -4
BITMAP
FBC0
3CE0
3870
3870
3870
3870
3870
3CE0
3BC0
3800
3800
3800
FE00
ENDCHAR

STARTCHAR q
ENCODING 113
SWIDTH 648 0
DWIDTH 12 0
BBX 11 13 1 -4
BITMAP
1DC0
73C0
E1C0
E1C0
E1C0
E1C0
E1C0
73C0
1DC0
01C0
01C0
01C0
07E0
ENDCHAR

STARTCHAR r
ENCODING 114
SWIDTH 519 0
DWIDTH 10 0
BBX 10 9 0 0
BITMAP
FB80
3CC0
38C0
3800
3800
3800
3800
3800
FE00
ENDCHAR

STARTCHAR s
ENCODING 115
SWIDTH 500 0
DWIDTH 9 0
BBX 7 9 1 0
BITMAP
7A
E6
E2
F0
7C
1E
8E
CE
BC
ENDCHAR

STARTCHAR t
ENCODING 116
SWIDTH 426 0
DWIDTH 8 0
BBX 7 13 0 0
BITMAP
10
30
30
70
FC
70
70
70
70
70
72
32
1C
ENDCHAR

STARTCHAR u
ENCODING 117
SWIDTH 685 0
DWIDTH 13 0
BBX 13 9 0 0
BITMAP
FBE0
38E0
38E0
38E0
38E0
38E0
38E0
39E0
1EF8
ENDCHAR

STARTCHAR v
ENCODING 118
SWIDTH 611 0
DWIDTH 12 0
BBX 12 9 0 0
BITMAP
FCF0
7020
3840
3840
1C80
1C80
0F00
0F00
0600
ENDCHAR

STARTCHAR w
ENCODING 119
SWIDTH 889 0
DWIDTH 17 0
BBX 17 9 0 0
BITMAP
F9F380
70E100
70E200
39F200
397400
1F7800
1E7800
0E3000
0C3000
ENDCHAR

STARTCHAR x
ENCODING 120
SWIDTH 611 0
DWIDTH 12 0
BBX 10 9 1 0
BITMAP
FBC0
7100
3A00
1C00
0C00
0E00
1700
2380
F7C0
ENDCHAR

STARTCHAR y
ENCODING 121
SWIDTH 611 0
DWIDTH 11 0
BBX 11 13 0 -4
BITMAP
F9E0
70C0
3880
3880
1D00
1D00
0E00
0E00
0400
4400
E800
C800
7000
ENDCHAR

STARTCHAR z
ENCODING 122
SWIDTH 537 0
DWIDTH 10 0
BBX 8 9 1 0
BITMAP
FF
C7
8E
9C
38
39
71
E3
FF
ENDCHAR

STARTCHAR braceleft
ENCODING 123
SWIDTH 389 0
DWIDTH 7 0
BBX 5 18 1 -4
BITMAP
38
60
60
60
70
30
30
60
80
60
30
30
70
60
60
60
60
38
ENDCHAR

STARTCHAR bar
ENCODING 124
SWIDTH 606 0
DWIDTH 12 0
BBX 2 18 5 -4
BITMAP
C0
C0
C0
C0
C0
C0
C0
C0
C0
C0
C0
C0
C0
C0
C0
C0
C0
C0
ENDCHAR

STARTCHAR braceright
ENCODING 125
SWIDTH 389 0
DWIDTH 7 0
BBX 5 18 1 -4
BITMAP
E0
30
30
30
30
70
60
60
30
08
30
60
60
70
30
30
30
E0
ENDCHAR

STARTCHAR asciitilde
ENCODING 126
SWIDTH 606 0
DWIDTH 12 0
BBX 10 4 1 4
BITMAP
7040
FCC0
9F80
8700
ENDCHAR

STARTCHAR space
ENCODING 160
SWIDTH 287 0
DWIDTH 7 0
BBX 0 0 0 0
BITMAP
ENDCHAR

STARTCHAR exclamdown
ENCODING 161
SWIDTH 296 0
DWIDTH 6 0
BBX 3 14 1 -4
BITMAP
E0
E0
E0
00
40
40
40
40
E0
E0
E0
E0
E0
40
ENDCHAR

STARTCHAR cent
ENCODING 162
SWIDTH 574 0
DWIDTH 11 0
BBX 9 14 1 -3
BITMAP
0200
0200
1F00
7380
6580
E500
E400
E800
E880
7100
3E00
2000
2000
4000
ENDCHAR

STARTCHAR sterling
ENCODING 163
SWIDTH 574 0
DWIDTH 11 0
BBX 11 14 0 0
BITMAP
0780
0CC0
19C0
1880
1800
1800
7F80
0C00
0C00
0C00
7C00
CC20
CE40
7380
ENDCHAR

STARTCHAR currency
ENCODING 164
SWIDTH 606 0
DWIDTH 12 0
BBX 9 9 1 2
BITMAP
DD80
F780
6300
C180
8080
C180
6300
F780
DD80
ENDCHAR

STARTCHAR yen
ENCODING 165
SWIDTH 722 0
DWIDTH 14 0
BBX 14 14 0 0
BITMAP
FE7C
3810
1C20
1C20
0E40
0740
0780
3FF8
0380
0380
3FF8
0380
0380
0FE0
ENDCHAR

STARTCHAR brokenbar
ENCODING 166
SWIDTH 606 0
DWIDTH 12 0
BBX 2 18 5 -4
BITMAP
C0
C0
C0
C0
C0
C0
C0
C0
00
00
C0
C0
C0
C0
C0
C0
C0
C0
ENDCHAR

STARTCHAR section
ENCODING 167
SWIDTH 500 0
DWIDTH 10 0
BBX 8 17 1 -3
BITMAP
1E
37
67
72
70
78
DC
CE
E7
73
3B
1E
0E
46
E6
EC
78
ENDCHAR

STARTCHAR dieresis
ENCODING 168
SWIDTH 333 0
DWIDTH 6 0
BBX 6 2 0 10
BITMAP
CC
CC
ENDCHAR

STARTCHAR copyright
ENCODING 169
SWIDTH 747 0
DWIDTH 14 0
BBX 14 14 0 0
BITMAP
0780
1860
2010
47C8
4C48
9844
9804
9804
9804
4C48
4788
2010
1860
0780
ENDCHAR

STARTCHAR ordfeminine
ENCODING 170
SWIDTH 367 0
DWIDTH 7 0
BBX 7 6 0 8
BITMAP
78
CC
1C
6C
CC
F6
ENDCHAR

STARTCHAR guillemotleft
ENCODING 171
SWIDTH 500 0
DWIDTH 10 0
BBX 8 8 1 1
BITMAP
11
33
66
EE
EE
66
33
11
ENDCHAR

STARTCHAR logicalnot
ENCODING 172
SWIDTH 606 0
DWIDTH 12 0
BBX 10 6 1 4
BITMAP
FFC0
FFC0
00C0
00C0
00C0
00C0
ENDCHAR

STARTCHAR hyphen
ENCODING 173
SWIDTH 333 0
DWIDTH 6 0
BBX 6 2 0 3
BITMAP
FC
FC
ENDCHAR

STARTCHAR registered
ENCODING 174
SWIDTH 747 0
DWIDTH 14 0
BBX 14 14 0 0
BITMAP
0780
1860
2010
5F88
4CC8
8CC4
8CC4
8F04
8D84
4CC8
5EE8
2010
1860
0780
ENDCHAR

STARTCHAR macron
ENCODING 175
SWIDTH 333 0
DWIDTH 6 0
BBX 6 1 0 10
BITMAP
FC
ENDCHAR

STARTCHAR degree
ENCODING 176
SWIDTH 400 0
DWIDTH 8 0
BBX 6 6 1 8
BITMAP
78
CC
84
84
CC
78
ENDCHAR

STARTCHAR plusminus
ENCODING 177
SWIDTH 606 0
DWIDTH 12 0
BBX 10 14 1 -1
BITMAP
0C00
0C00
0C00
0C00
FFC0
FFC0
0C00
0C00
0C00
0C00
0000
0000
FFC0
FFC0
ENDCHAR

STARTCHAR twosuperior
ENCODING 178
SWIDTH 344 0
DWIDTH 7 0
BBX 5 7 1 7
BITMAP
70
98
98
30
60
C8
F8
ENDCHAR

STARTCHAR threesuperior
ENCODING 179
SWIDTH 344 0
DWIDTH 7 0
BBX 5 7 1 7
BITMAP
70
D8
18
70
18
D8
70
ENDCHAR

STARTCHAR acute
ENCODING 180
SWIDTH 333 0
DWIDTH 6 0
BBX 5 2 0 10
BITMAP
38
E0
ENDCHAR

STARTCHAR mu
ENCODING 181
SWIDTH 685 0
DWIDTH 13 0
BBX 10 13 2 -4
BITMAP
E700
E700
E700
E700
E700
E700
E740
EF40
7380
C000
C000
C000
C000
ENDCHAR

STARTCHAR paragraph
ENCODING 182
SWIDTH 747 0
DWIDTH 14 0
BBX 11 18 2 -4
BITMAP
3FE0
7C80
FC80
FC80
FC80
FC80
FC80
7C80
3C80
0480
0480
0480
0480
0480
0480
0480
0480
0480
ENDCHAR

STARTCHAR periodcentered
ENCODING 183
SWIDTH 278 0
DWIDTH 5 0
BBX 3 3 1 6
BITMAP
E0
E0
E0
ENDCHAR

STARTCHAR cedilla
ENCODING 184
SWIDTH 333 0
DWIDTH 6 0
BBX 4 3 1 -3
BITMAP
60
30
E0
ENDCHAR

STARTCHAR onesuperior
ENCODING 185
SWIDTH 344 0
DWIDTH 7 0
BBX 4 7 1 7
BITMAP
60
E0
60
60
60
60
F0
ENDCHAR

STARTCHAR ordmasculine
ENCODING 186
SWIDTH 367 0
DWIDTH 7 0
BBX 6 7 1 7
BITMAP
78
CC
CC
CC
CC
CC
78
ENDCHAR

STARTCHAR guillemotright
ENCODING 187
SWIDTH 500 0
DWIDTH 10 0
BBX 8 8 1 1
BITMAP
88
CC
66
77
77
66
CC
88
ENDCHAR

STARTCHAR onequarter
ENCODING 188
SWIDTH 861 0
DWIDTH 16 0
BBX 13 14 1 0
BITMAP
6010
E020
6020
6040
6080
6080
F100
0230
0270
04B0
0930
09F8
1030
2078
ENDCHAR

STARTCHAR onehalf
ENCODING 189
SWIDTH 861 0
DWIDTH 16 0
BBX 13 14 1 0
BITMAP
6020
E040
6040
6080
6100
6100
F200
0470
0498
0898
1030
1060
20C8
40F8
ENDCHAR

STARTCHAR threequarters
ENCODING 190
SWIDTH 861 0
DWIDTH 16 0
BBX 13 14 1 0
BITMAP
7010
D820
1820
7040
1880
D880
7100
0230
0270
04B0
0930
09F8
1030
2078
ENDCHAR

STARTCHAR questiondown
ENCODING 191
SWIDTH 500 0
DWIDTH 10 0
BBX 8 14 1 -4
BITMAP
1C
1C
1C
00
08
08
18
30
70
E2
E7
E7
72
3C
ENDCHAR

STARTCHAR Agrave
ENCODING 192
SWIDTH 759 0
DWIDTH 14 0
BBX 14 17 0 0
BITMAP
0E00
0380
0000
0300
0300
0780
0780
05C0
0DC0
08C0
18E0
1060
1FF0
3070
2038
6038
F8FC
ENDCHAR

STARTCHAR Aacute
ENCODING 193
SWIDTH 759 0
DWIDTH 14 0
BBX 14 17 0 0
BITMAP
01C0
0700
0000
0300
0300
0780
0780
05C0
0DC0
08C0
18E0
1060
1FF0
3070
2038
6038
F8FC
ENDCHAR

STARTCHAR Acircumflex
ENCODING 194
SWIDTH 759 0
DWIDTH 14 0
BBX 14 18 0 0
BITMAP
0300
0780
0840
0000
0300
0300
0780
0780
05C0
0DC0
08C0
18E0
1060
1FF0
3070
2038
6038
F8FC
ENDCHAR

STARTCHAR Atilde
ENCODING 195
SWIDTH 759 0
DWIDTH 14 0
BBX 14 17 0 0
BITMAP
0740
0B80
0000
0300
0300
0780
0780
05C0
0DC0
08C0
18E0
1060
1FF0
3070
2038
6038
F8FC
ENDCHAR

STARTCHAR Adieresis
ENCODING 196
SWIDTH 759 0
DWIDTH 14 0
BBX 14 17 0 0
BITMAP
0CC0
0CC0
0000
0300
0300
0780
0780
05C0
0DC0
08C0
18E0
1060
1FF0
3070
2038
6038
F8FC
ENDCHAR

STARTCHAR Aring
ENCODING 197
SWIDTH 759 0
DWIDTH 14 0
BBX 14 18 0 0
BITMAP
0300
0480
0300
0000
0300
0300
0780
0780
05C0
0DC0
08C0
18E0
1060
1FF0
3070
2038
6038
F8FC
ENDCHAR

STARTCHAR AE
ENCODING 198
SWIDTH 981 0
DWIDTH 19 0
BBX 19 14 0 0
BITMAP
03FFE0
01F060
037020
027120
067120
047300
0C7F00
087300
187100
1FF120
307020
207020
607060
F9FFE0
ENDCHAR

STARTCHAR Ccedilla
ENCODING 199
SWIDTH 778 0
DWIDTH 15 0
BBX 13 17 1 -3
BITMAP
0FC8
3878
7018
7008
E008
E000
E000
E000
E000
E000
7008
7010
3820
0FC0
0300
0180
0700
ENDCHAR

STARTCHAR Egrave
ENCODING 200
SWIDTH 759 0
DWIDTH 14 0
BBX 12 17 1 0
BITMAP
0E00
0380
0000
FFF0
3830
3810
3890
3890
3980
3F80
3980
3880
3890
3810
3810
3830
FFF0
ENDCHAR

STARTCHAR Eacute
ENCODING 201
SWIDTH 759 0
DWIDTH 14 0
BBX 12 17 1 0
BITMAP
0380
0E00
0000
FFF0
3830
3810
3890
3890
3980
3F80
3980
3880
3890
3810
3810
3830
FFF0
ENDCHAR

STARTCHAR Ecircumflex
ENCODING 202
SWIDTH 759 0
DWIDTH 14 0
BBX 12 18 1 0
BITMAP
0300
0780
0840
0000
FFF0
3830
3810
3890
3890
3980
3F80
3980
3880
3890
3810
3810
3830
FFF0
ENDCHAR

STARTCHAR Edieresis
ENCODING 203
SWIDTH 759 0
DWIDTH 14 0
BBX 12 17 1 0
BITMAP
0CC0
0CC0
0000
FFF0
3830
3810
3890
3890
3980
3F80
3980
3880
3890
3810
3810
3830
FFF0
ENDCHAR

STARTCHAR Igrave
ENCODING 204
SWIDTH 444 0
DWIDTH 9 0
BBX 7 17 1 0
BITMAP
70
1C
00
FE
38
38
38
38
38
38
38
38
38
38
38
38
FE
ENDCHAR

STARTCHAR Iacute
ENCODING 205
SWIDTH 444 0
DWIDTH 9 0
BBX 7 17 1 0
BITMAP
1C
70
00
FE
38
38
38
38
38
38
38
38
38
38
38
38
FE
ENDCHAR

STARTCHAR Icircumflex
ENCODING 206
SWIDTH 444 0
DWIDTH 9 0
BBX 7 18 1 0
BITMAP
18
3C
42
00
FE
38
38
38
38
38
38
38
38
38
38
38
38
FE
ENDCHAR

STARTCHAR Idieresis
ENCODING 207
SWIDTH 444 0
DWIDTH 9 0
BBX 7 17 1 0
BITMAP
66
66
00
FE
38
38
38
38
38
38
38
38
38
38
38
38
FE
ENDCHAR

STARTCHAR Gbreve
ENCODING 208
SWIDTH 833 0
DWIDTH 16 0
BBX 15 18 1 0
BITMAP
0840
0FC0
0780
0000
0F90
3870
7030
7010
E010
E000
E000
E0FE
E038
E038
7038
7038
3858
0F88
ENDCHAR

STARTCHAR Ntilde
ENCODING 209
SWIDTH 833 0
DWIDTH 16 0
BBX 15 17 1 0
BITMAP
03A0
05C0
0000
F03E
3808
3C08
3E08
2F08
2708
2388
21C8
21E8
20F8
2078
2038
2018
F808
ENDCHAR

STARTCHAR Ograve
ENCODING 210
SWIDTH 833 0
DWIDTH 16 0
BBX 14 17 1 0
BITMAP
0E00
0380
0000
0FC0
3870
7038
7038
E01C
E01C
E01C
E01C
E01C
E01C
7038
7038
3870
0FC0
ENDCHAR

STARTCHAR Oacute
ENCODING 211
SWIDTH 833 0
DWIDTH 16 0
BBX 14 17 1 0
BITMAP
01C0
0700
0000
0FC0
3870
7038
7038
E01C
E01C
E01C
E01C
E01C
E01C
7038
7038
3870
0FC0
ENDCHAR

STARTCHAR Ocircumflex
ENCODING 212
SWIDTH 833 0
DWIDTH 16 0
BBX 14 18 1 0
BITMAP
0300
0780
0840
0000
0FC0
3870
7038
7038
E01C
E01C
E01C
E01C
E01C
E01C
7038
7038
3870
0FC0
ENDCHAR

STARTCHAR Otilde
ENCODING 213
SWIDTH 833 0
DWIDTH 16 0
BBX 14 17 1 0
BITMAP
0740
0B80
0000
0FC0
3870
7038
7038
E01C
E01C
E01C
E01C
E01C
E01C
7038
7038
3870
0FC0
ENDCHAR

STARTCHAR Odieresis
ENCODING 214
SWIDTH 833 0
DWIDTH 16 0
BBX 14 17 1 0
BITMAP
0CC0
0CC0
0000
0FC0
3870
7038
7038
E01C
E01C
E01C
E01C
E01C
E01C
7038
7038
3870
0FC0
ENDCHAR

STARTCHAR multiply
ENCODING 215
SWIDTH 650 0
DWIDTH 12 0
BBX 10 9 1 2
BITMAP
E1C0
7380
3F00
1E00
0C00
1E00
3F00
7380
E1C0
ENDCHAR

STARTCHAR Oslash
ENCODING 216
SWIDTH 833 0
DWIDTH 16 0
BBX 14 14 1 0
BITMAP
0FC4
3878
7038
6038
E05C
E09C
E11C
E21C
E41C
E81C
7018
7038
7870
8FC0
ENDCHAR

STARTCHAR Ugrave
ENCODING 217
SWIDTH 833 0
DWIDTH 16 0
BBX 15 17 1 0
BITMAP
0700
01C0
0000
FE3E
3808
3808
3808
3808
3808
3808
3808
3808
3808
3808
1C10
1E30
07C0
ENDCHAR

STARTCHAR Uacute
ENCODING 218
SWIDTH 833 0
DWIDTH 16 0
BBX 15 17 1 0
BITMAP
00E0
0380
0000
FE3E
3808
3808
3808
3808
3808
3808
3808
3808
3808
3808
1C10
1E30
07C0
ENDCHAR

STARTCHAR Ucircumflex
ENCODING 219
SWIDTH 833 0
DWIDTH 16 0
BBX 15 18 1 0
BITMAP
0180
03C0
0420
0000
FE3E
3808
3808
3808
3808
3808
3808
3808
3808
3808
3808
1C10
1E30
07C0
ENDCHAR

STARTCHAR Udieresis
ENCODING 220
SWIDTH 833 0
DWIDTH 16 0
BBX 15 17 1 0
BITMAP
0660
0660
0000
FE3E
3808
3808
3808
3808
3808
3808
3808
3808
3808
3808
1C10
1E30
07C0
ENDCHAR

STARTCHAR Idotaccent
ENCODING 221
SWIDTH 444 0
DWIDTH 9 0
BBX 7 17 1 0
BITMAP
18
18
00
FE
38
38
38
38
38
38
38
38
38
38
38
38
FE
ENDCHAR

STARTCHAR Scedilla
ENCODING 222
SWIDTH 667 0
DWIDTH 13 0
BBX 11 17 1 -3
BITMAP
1E40
71C0
E0C0
E040
F040
FC00
7F00
1FC0
07E0
81E0
80E0
C0E0
E1C0
9F00
0C00
0600
1C00
ENDCHAR

STARTCHAR germandbls
ENCODING 223
SWIDTH 611 0
DWIDTH 12 0
BBX 10 14 1 0
BITMAP
1E00
3300
6380
6380
6380
6700
6300
6180
61C0
61C0
61C0
6DC0
6D80
F700
ENDCHAR

STARTCHAR agrave
ENCODING 224
SWIDTH 611 0
DWIDTH 12 0
BBX 10 12 1 0
BITMAP
1C00
0700
0000
3F00
7380
7380
2380
1F80
7380
E380
E780
79C0
ENDCHAR

STARTCHAR aacute
ENCODING 225
SWIDTH 611 0
DWIDTH 12 0
BBX 10 12 1 0
BITMAP
0700
1C00
0000
3F00
7380
7380
2380
1F80
7380
E380
E780
79C0
ENDCHAR

STARTCHAR acircumflex
ENCODING 226
SWIDTH 611 0
DWIDTH 12 0
BBX 10 13 1 0
BITMAP
0C00
1E00
2100
0000
3F00
7380
7380
2380
1F80
7380
E380
E780
79C0
ENDCHAR

STARTCHAR atilde
ENCODING 227
SWIDTH 611 0
DWIDTH 12 0
BBX 10 12 1 0
BITMAP
1D00
2E00
0000
3F00
7380
7380
2380
1F80
7380
E380
E780
79C0
ENDCHAR

STARTCHAR adieresis
ENCODING 228
SWIDTH 611 0
DWIDTH 12 0
BBX 10 12 1 0
BITMAP
3300
3300
0000
3F00
7380
7380
2380
1F80
7380
E380
E780
79C0
ENDCHAR

STARTCHAR aring
ENCODING 229
SWIDTH 611 0
DWIDTH 12 0
BBX 10 13 1 0
BITMAP
0C00
1200
0C00
0000
3F00
7380
7380
2380
1F80
7380
E380
E780
79C0
ENDCHAR

STARTCHAR ae
ENCODING 230
SWIDTH 870 0
DWIDTH 17 0
BBX 15 9 1 0
BITMAP
3EF8
738C
718E
238E
1FFE
7380
E382
E7C4
79F8
ENDCHAR

STARTCHAR ccedilla
ENCODING 231
SWIDTH 556 0
DWIDTH 11 0
BBX 9 12 1 -3
BITMAP
3F00
7380
E380
E100
E000
E000
E080
7100
3E00
1800
0C00
3800
ENDCHAR

STARTCHAR egrave
ENCODING 232
SWIDTH 574 0
DWIDTH 11 0
BBX 9 12 1 0
BITMAP
3800
0E00
0000
3E00
6300
E380
E380
FF80
E000
E080
7100
3E00
ENDCHAR

STARTCHAR eacute
ENCODING 233
SWIDTH 574 0
DWIDTH 11 0
BBX 9 12 1 0
BITMAP
0E00
3800
0000
3E00
6300
E380
E380
FF80
E000
E080
7100
3E00
ENDCHAR

STARTCHAR ecircumflex
ENCODING 234
SWIDTH 574 0
DWIDTH 11 0
BBX 9 13 1 0
BITMAP
0C00
1E00
2100
0000
3E00
6300
E380
E380
FF80
E000
E080
7100
3E00
ENDCHAR

STARTCHAR edieresis
ENCODING 235
SWIDTH 574 0
DWIDTH 11 0
BBX 9 12 1 0
BITMAP
3300
3300
0000
3E00
6300
E380
E380
FF80
E000
E080
7100
3E00
ENDCHAR

STARTCHAR igrave
ENCODING 236
SWIDTH 370 0
DWIDTH 7 0
BBX 7 12 0 0
BITMAP
70
1C
00
F8
38
38
38
38
38
38
38
FE
ENDCHAR

STARTCHAR iacute
ENCODING 237
SWIDTH 370 0
DWIDTH 7 0
BBX 7 12 0 0
BITMAP
1C
70
00
F8
38
38
38
38
38
38
38
FE
ENDCHAR

STARTCHAR icircumflex
ENCODING 238
SWIDTH 370 0
DWIDTH 7 0
BBX 7 13 0 0
BITMAP
30
78
84
00
F8
38
38
38
38
38
38
38
FE
ENDCHAR

STARTCHAR idieresis
ENCODING 239
SWIDTH 370 0
DWIDTH 7 0
BBX 7 12 0 0
BITMAP
CC
CC
00
F8
38
38
38
38
38
38
38
FE
ENDCHAR

STARTCHAR gbreve
ENCODING 240
SWIDTH 611 0
DWIDTH 12 0
BBX 11 17 2 -4
BITMAP
2100
3F00
1E00
0060
3FC0
6300
E380
E380
E300
7E00
8000
8000
FE00
7F00
C380
8380
7F00
ENDCHAR

STARTCHAR ntilde
ENCODING 241
SWIDTH 685 0
DWIDTH 13 0
BBX 11 12 1 0
BITMAP
0E80
1700
0000
F780
79C0
71C0
71C0
71C0
71C0
71C0
71C0
FBE0
ENDCHAR

STARTCHAR ograve
ENCODING 242
SWIDTH 611 0
DWIDTH 12 0
BBX 10 12 1 0
BITMAP
1C00
0700
0000
1E00
7380
E1C0
E1C0
E1C0
E1C0
E1C0
7380
1E00
ENDCHAR

STARTCHAR oacute
ENCODING 243
SWIDTH 611 0
DWIDTH 12 0
BBX 10 12 1 0
BITMAP
0700
1C00
0000
1E00
7380
E1C0
E1C0
E1C0
E1C0
E1C0
7380
1E00
ENDCHAR

STARTCHAR ocircumflex
ENCODING 244
SWIDTH 611 0
DWIDTH 12 0
BBX 10 13 1 0
BITMAP
0C00
1E00
2100
0000
1E00
7380
E1C0
E1C0
E1C0
E1C0
E1C0
7380
1E00
ENDCHAR

STARTCHAR otilde
ENCODING 245
SWIDTH 611 0
DWIDTH 12 0
BBX 10 12 1 0
BITMAP
1D00
2E00
0000
1E00
7380
E1C0
E1C0
E1C0
E1C0
E1C0
7380
1E00
ENDCHAR

STARTCHAR odieresis
ENCODING 246
SWIDTH 611 0
DWIDTH 12 0
BBX 10 12 1 0
BITMAP
3300
3300
0000
1E00
7380
E1C0
E1C0
E1C0
E1C0
E1C0
7380
1E00
ENDCHAR

STARTCHAR divide
ENCODING 247
SWIDTH 606 0
DWIDTH 12 0
BBX 10 10 1 1
BITMAP
0C00
0C00
0000
0000
FFC0
FFC0
0000
0000
0C00
0C00
ENDCHAR

STARTCHAR oslash
ENCODING 248
SWIDTH 611 0
DWIDTH 12 0
BBX 10 9 1 0
BITMAP
1E40
7380
E3C0
E5C0
E9C0
E9C0
F1C0
7380
9E00
ENDCHAR

STARTCHAR ugrave
ENCODING 249
SWIDTH 685 0
DWIDTH 13 0
BBX 13 12 0 0
BITMAP
0E00
0380
0000
FBE0
38E0
38E0
38E0
38E0
38E0
38E0
39E0
1EF8
ENDCHAR

STARTCHAR uacute
ENCODING 250
SWIDTH 685 0
DWIDTH 13 0
BBX 13 12 0 0
BITMAP
0380
0E00
0000
FBE0
38E0
38E0
38E0
38E0
38E0
38E0
39E0
1EF8
ENDCHAR

STARTCHAR ucircumflex
ENCODING 251
SWIDTH 685 0
DWIDTH 13 0
BBX 13 13 0 0
BITMAP
0300
0780
0840
0000
FBE0
38E0
38E0
38E0
38E0
38E0
38E0
39E0
1EF8
ENDCHAR

STARTCHAR udieresis
ENCODING 252
SWIDTH 685 0
DWIDTH 13 0
BBX 13 12 0 0
BITMAP
1980
1980
0000
FBE0
38E0
38E0
38E0
38E0
38E0
38E0
39E0
1EF8
ENDCHAR

STARTCHAR dotlessi
ENCODING 253
SWIDTH 370 0
DWIDTH 7 0
BBX 7 9 0 0
BITMAP
F8
38
38
38
38
38
38
38
FE
ENDCHAR

STARTCHAR scedilla
ENCODING 254
SWIDTH 500 0
DWIDTH 9 0
BBX 7 12 1 -3
BITMAP
7A
E6
E2
F0
7C
1E
8E
CE
BC
18
0C
38
ENDCHAR

STARTCHAR ydieresis
ENCODING 255
SWIDTH 611 0
DWIDTH 11 0
BBX 11 16 0 -4
BITMAP
1980
1980
0000
F9E0
70C0
3880
3880
1D00
1D00
0E00
0E00
0400
4400
E800
C800
7000
ENDCHAR

ENDFONT
