STARTFONT 2.1
FONT -Monotype-Century Gothic-Bold-R-Normal--33-240-100-100-P-155-iso8859-4
SIZE 24 100 100
FONTBOUNDINGBOX 45 40 -4 -7

STARTPROPERTIES 24
FOUNDRY "Monotype"
FAMILY_NAME "Century Gothic"
WEIGHT_NAME "Bold"
SLANT "R"
SETWIDTH_NAME "Normal"
ADD_STYLE_NAME ""
PIXEL_SIZE 33
POINT_SIZE 240
RESOLUTION_X 100
RESOLUTION_Y 100
SPACING "P"
AVERAGE_WIDTH 155
CHARSET_REGISTRY "iso8859"
CHARSET_ENCODING "4"
FACE_NAME "Century Gothic Bold ISO Latin4"
_DEC_DEVICE_FONTNAMES "PS=centurygothic-b-lat4"
COPYRIGHT "Copyright (c) 1993 Monotype Typography Ltd."
CAP_HEIGHT 28
X_HEIGHT 21
WEIGHT 10
QUAD_WIDTH 22
DEFAULT_CHAR 160
FONT_DESCENT 7
FONT_ASCENT 33
ENDPROPERTIES

CHARS 191

STARTCHAR space
ENCODING 32
SWIDTH 280 0
DWIDTH 9 0
BBX 0 0 0 0
BITMAP
ENDCHAR

STARTCHAR exclam
ENCODING 33
SWIDTH 280 0
DWIDTH 9 0
BBX 6 24 2 0
BITMAP
78
78
78
78
78
78
78
78
78
78
78
78
78
78
78
78
78
00
10
78
FC
FC
78
30
ENDCHAR

STARTCHAR quotedbl
ENCODING 34
SWIDTH 360 0
DWIDTH 12 0
BBX 10 8 1 16
BITMAP
F3C0
F3C0
F3C0
E3C0
E1C0
E1C0
E1C0
E1C0
ENDCHAR

STARTCHAR numbersign
ENCODING 35
SWIDTH 600 0
DWIDTH 20 0
BBX 18 24 1 0
BITMAP
038F00
038E00
038E00
038E00
078E00
070E00
071E00
7FFFC0
7FFFC0
7FFFC0
071C00
0F1C00
0E3C00
FFFF80
FFFF80
FFFF80
0E3800
1E3800
1C3800
1C7800
1C7800
1C7000
1C7000
1C7000
ENDCHAR

STARTCHAR dollar
ENCODING 36
SWIDTH 560 0
DWIDTH 18 0
BBX 16 30 1 -4
BITMAP
01C0
01C0
0FF0
1FF8
3FFE
7FFE
7C3C
7808
7800
7C00
3F00
3FC0
1FF0
07FC
01FE
007E
001F
001F
000F
200F
701F
FC3F
FFFE
7FFE
1FFC
07F0
01C0
01C0
01C0
01C0
ENDCHAR

STARTCHAR percent
ENCODING 37
SWIDTH 860 0
DWIDTH 28 0
BBX 27 25 1 -1
BITMAP
1F801F00
3FFFFE00
7FFFDC00
F1FFB800
E0E03800
E0E07000
E0E0E000
F1E1C000
7FC1C000
3F838000
1F070000
000F0000
000E0000
001C1F00
00383F80
00787FC0
0070F1E0
00E0E0E0
01C0E0E0
03C0E0E0
0380F1E0
07007FC0
0E003F80
1E001F00
3C000000
ENDCHAR

STARTCHAR ampersand
ENCODING 38
SWIDTH 680 0
DWIDTH 22 0
BBX 20 23 2 0
BITMAP
07C000
1FF000
1FF000
3FF800
3E7800
3C7800
3C7800
3EF800
1FF000
1FE000
0FC000
1FC000
3FC000
7FE100
7DF380
F8FB80
F07FC0
F03F80
F8FF00
FFFF80
7FFFC0
3FE7E0
1F83F0
ENDCHAR

STARTCHAR quoteright
ENCODING 39
SWIDTH 280 0
DWIDTH 9 0
BBX 4 9 3 15
BITMAP
F0
F0
F0
F0
B0
70
60
E0
40
ENDCHAR

STARTCHAR parenleft
ENCODING 40
SWIDTH 380 0
DWIDTH 13 0
BBX 10 32 1 -6
BITMAP
07C0
0F80
1F80
1F00
3E00
3E00
3C00
7C00
7C00
7800
7800
7800
F800
F800
F800
F800
F800
F800
F800
F800
7800
7800
7C00
7C00
7C00
3E00
3E00
1F00
1F00
0F80
0FC0
07C0
ENDCHAR

STARTCHAR parenright
ENCODING 41
SWIDTH 380 0
DWIDTH 13 0
BBX 10 32 1 -6
BITMAP
FC00
7E00
3E00
1F00
1F00
0F00
0F80
0F80
0780
07C0
07C0
03C0
03C0
03C0
03C0
03C0
03C0
03C0
03C0
03C0
07C0
07C0
07C0
0780
0F80
0F80
0F00
1F00
3F00
3E00
7C00
FC00
ENDCHAR

STARTCHAR asterisk
ENCODING 42
SWIDTH 440 0
DWIDTH 15 0
BBX 13 13 1 11
BITMAP
0F00
2700
6720
7770
FAF8
37E0
0F00
7BF8
FEF0
7670
2720
0700
0F00
ENDCHAR

STARTCHAR plus
ENCODING 43
SWIDTH 600 0
DWIDTH 20 0
BBX 16 16 2 4
BITMAP
03C0
03C0
03C0
03C0
03C0
03C0
FFFF
FFFF
FFFF
FFFF
03C0
03C0
03C0
03C0
03C0
03C0
ENDCHAR

STARTCHAR comma
ENCODING 44
SWIDTH 280 0
DWIDTH 9 0
BBX 6 8 1 -4
BITMAP
18
3C
3C
38
78
70
E0
20
ENDCHAR

STARTCHAR minus
ENCODING 45
SWIDTH 600 0
DWIDTH 20 0
BBX 16 4 2 10
BITMAP
FFFF
FFFF
FFFF
FFFF
ENDCHAR

STARTCHAR period
ENCODING 46
SWIDTH 280 0
DWIDTH 9 0
BBX 5 5 2 0
BITMAP
70
F8
F8
F8
70
ENDCHAR

STARTCHAR slash
ENCODING 47
SWIDTH 460 0
DWIDTH 15 0
BBX 13 29 1 -4
BITMAP
0038
0038
0078
0070
0070
00E0
00E0
00E0
01C0
01C0
01C0
0380
0380
0780
0700
0700
0E00
0E00
0E00
1C00
1C00
3C00
3800
3800
7000
7000
7000
E000
E000
ENDCHAR

STARTCHAR zero
ENCODING 48
SWIDTH 560 0
DWIDTH 18 0
BBX 16 24 1 0
BITMAP
07E0
1FF8
3FFC
7FFE
7C3E
781E
F81F
F81F
F01F
F00F
F00F
F00F
F00F
F00F
F00F
F81F
F81F
F81F
7C1E
7C3E
7FFE
3FFC
1FF8
07E0
ENDCHAR

STARTCHAR one
ENCODING 49
SWIDTH 560 0
DWIDTH 18 0
BBX 10 24 2 0
BITMAP
1FC0
3FC0
7FC0
FFC0
07C0
07C0
07C0
07C0
07C0
07C0
07C0
07C0
07C0
07C0
07C0
07C0
07C0
07C0
07C0
07C0
07C0
07C0
07C0
07C0
ENDCHAR

STARTCHAR two
ENCODING 50
SWIDTH 560 0
DWIDTH 18 0
BBX 16 24 1 0
BITMAP
03F0
0FFC
1FFE
3FFE
7E3F
7C1F
780F
780F
000F
001F
001F
003E
007C
00FC
01F8
03F0
07E0
0FC0
1F80
3F00
7FFF
FFFF
FFFF
FFFF
ENDCHAR

STARTCHAR three
ENCODING 51
SWIDTH 560 0
DWIDTH 18 0
BBX 16 24 1 0
BITMAP
07E0
1FF8
3FFC
7FFC
7C7E
783E
003E
003E
007C
03F8
03F0
03F8
03FE
003E
001F
000F
F00F
F80F
F81F
7C3F
7FFE
3FFC
1FF8
07E0
ENDCHAR

STARTCHAR four
ENCODING 52
SWIDTH 560 0
DWIDTH 18 0
BBX 17 24 0 0
BITMAP
003E00
003E00
007E00
00FE00
00FE00
01FE00
03FE00
03EE00
07DE00
0F9E00
1F9E00
1F1E00
3E1E00
7C1E00
781E00
FFFF80
FFFF80
FFFF80
FFFF80
001E00
001E00
001E00
001E00
001E00
ENDCHAR

STARTCHAR five
ENCODING 53
SWIDTH 560 0
DWIDTH 18 0
BBX 16 24 1 0
BITMAP
07FF
0FFF
0FFF
0FFF
0F00
1F00
1F00
1E00
1FF0
1FF8
3FFC
3FFE
3E3F
041F
000F
000F
000F
000F
F81F
7E3E
7FFE
3FFC
1FF8
07E0
ENDCHAR

STARTCHAR six
ENCODING 54
SWIDTH 560 0
DWIDTH 18 0
BBX 14 24 2 0
BITMAP
0100
01C0
03E0
03C0
07C0
0780
0F80
0F00
1F00
1E00
3FC0
3FF0
7FF8
7FF8
F87C
F03C
F03C
F03C
F87C
F8FC
7FF8
3FF8
1FF0
0FC0
ENDCHAR

STARTCHAR seven
ENCODING 55
SWIDTH 560 0
DWIDTH 18 0
BBX 16 24 2 0
BITMAP
FFFF
FFFF
FFFE
FFFE
003C
007C
0078
00F8
00F0
01F0
01E0
03E0
03C0
07C0
0780
0F80
0F00
1F00
1E00
3E00
3C00
7C00
3800
0800
ENDCHAR

STARTCHAR eight
ENCODING 56
SWIDTH 560 0
DWIDTH 18 0
BBX 16 24 1 0
BITMAP
0FF0
1FF8
3FFC
7FFE
7C3E
781E
781E
783E
7C3E
3FFC
1FF8
3FFC
7FFE
7C3F
F81F
F00F
F00F
F00F
F81F
FC3F
7FFE
7FFE
3FFC
0FF0
ENDCHAR

STARTCHAR nine
ENCODING 57
SWIDTH 560 0
DWIDTH 18 0
BBX 14 24 2 0
BITMAP
0FC0
1FF0
7FF8
7FF8
FC7C
F87C
F03C
F03C
F03C
F87C
7FF8
7FF8
3FF0
0FF0
01E0
03E0
03C0
07C0
0780
0F80
0F00
1F00
0E00
0200
ENDCHAR

STARTCHAR colon
ENCODING 58
SWIDTH 280 0
DWIDTH 9 0
BBX 5 18 2 0
BITMAP
70
F8
F8
F8
70
00
00
00
00
00
00
00
00
70
F8
F8
F8
70
ENDCHAR

STARTCHAR semicolon
ENCODING 59
SWIDTH 280 0
DWIDTH 9 0
BBX 6 22 1 -4
BITMAP
38
7C
7C
7C
38
00
00
00
00
00
00
00
00
10
18
3C
38
38
70
70
E0
20
ENDCHAR

STARTCHAR less
ENCODING 60
SWIDTH 600 0
DWIDTH 20 0
BBX 16 20 2 2
BITMAP
0001
0007
001F
007F
01FE
07F8
1FE0
7FC0
FF00
F400
F800
FE00
7F80
1FE0
07F8
01FE
007F
001F
0007
0001
ENDCHAR

STARTCHAR equal
ENCODING 61
SWIDTH 600 0
DWIDTH 20 0
BBX 16 11 2 6
BITMAP
FFFF
FFFF
FFFF
FFFF
0000
0000
0000
FFFF
FFFF
FFFF
FFFF
ENDCHAR

STARTCHAR greater
ENCODING 62
SWIDTH 600 0
DWIDTH 20 0
BBX 16 20 2 2
BITMAP
8000
C000
F000
FC00
FF00
3FC0
0FF0
03FC
00FF
001F
003F
007F
01FE
07F8
1FE0
7F80
FE00
F800
E000
8000
ENDCHAR

STARTCHAR question
ENCODING 63
SWIDTH 560 0
DWIDTH 18 0
BBX 15 25 2 0
BITMAP
0FE0
3FF8
7FFC
7FFC
F83E
F01E
F01E
003E
003E
00FC
01FC
03F8
03E0
07C0
07C0
07C0
0780
0000
0000
0300
0780
0FC0
0FC0
0780
0300
ENDCHAR

STARTCHAR at
ENCODING 64
SWIDTH 740 0
DWIDTH 24 0
BBX 24 25 0 0
BITMAP
00FF80
03FFE0
07C1F0
1E0038
1C001C
38000E
703C06
60FEE7
E1FFE3
E3FFE3
C3C3E3
C781C3
C781C3
C781C7
E783C6
E7C7CE
63FFDC
73FFF8
70FBE0
380000
1C003E
0F0078
07E3F0
03FFE0
007F80
ENDCHAR

STARTCHAR A
ENCODING 65
SWIDTH 740 0
DWIDTH 24 0
BBX 23 24 1 0
BITMAP
007C00
00FC00
00FC00
00FE00
01FE00
01FF00
03EF00
03EF00
03EF80
07CF80
07C7C0
0787C0
0F83C0
0F83E0
1F03E0
1FFFE0
1FFFF0
3FFFF0
3FFFF8
7C00F8
7C0078
78007C
F8007C
F8003E
ENDCHAR

STARTCHAR B
ENCODING 66
SWIDTH 580 0
DWIDTH 19 0
BBX 15 24 2 0
BITMAP
FF80
FFE0
FFF0
FFF8
F8F8
F878
F878
F878
F8F8
FFF0
FFE0
FFF8
FFFC
F8FC
F83E
F81E
F81E
F81E
F83E
F8FE
FFFC
FFFC
FFF8
FFE0
ENDCHAR

STARTCHAR C
ENCODING 67
SWIDTH 780 0
DWIDTH 26 0
BBX 23 24 2 0
BITMAP
00FF80
03FFE0
0FFFF8
1FFFFC
3FC1FE
3F007C
7C0018
7C0000
F80000
F80000
F00000
F00000
F00000
F00000
F80000
F80000
7C0000
7C0038
3F007C
3FC1FE
1FFFFC
0FFFF8
03FFE0
00FF80
ENDCHAR

STARTCHAR D
ENCODING 68
SWIDTH 700 0
DWIDTH 23 0
BBX 19 24 3 0
BITMAP
FFF000
FFFC00
FFFE00
FFFF00
F87F80
F81F80
F80FC0
F807C0
F803C0
F803E0
F803E0
F803E0
F803E0
F803E0
F803E0
F803E0
F807C0
F807C0
F80F80
F87F80
FFFF00
FFFE00
FFFC00
FFF000
ENDCHAR

STARTCHAR E
ENCODING 69
SWIDTH 520 0
DWIDTH 17 0
BBX 13 24 2 0
BITMAP
FFF8
FFF8
FFF8
FFF8
F800
F800
F800
F800
F800
FFF8
FFF8
FFF8
FFF8
F800
F800
F800
F800
F800
F800
F800
FFF8
FFF8
FFF8
FFF8
ENDCHAR

STARTCHAR F
ENCODING 70
SWIDTH 480 0
DWIDTH 16 0
BBX 12 24 2 0
BITMAP
FFF0
FFF0
FFF0
FFF0
F800
F800
F800
F800
F800
FFF0
FFF0
FFF0
FFF0
F800
F800
F800
F800
F800
F800
F800
F800
F800
F800
F800
ENDCHAR

STARTCHAR G
ENCODING 71
SWIDTH 840 0
DWIDTH 28 0
BBX 25 24 1 0
BITMAP
00FFC000
03FFF000
07FFFC00
0FFFFE00
1FC0FE00
3F003C00
3E001800
7C000000
7C000000
F8000000
F8000000
F8000000
F807FF80
F807FF80
7807FF80
7C07FF80
7C000F00
3E001F00
3F803E00
1FE0FE00
0FFFFC00
07FFF800
03FFF000
007FC000
ENDCHAR

STARTCHAR H
ENCODING 72
SWIDTH 680 0
DWIDTH 22 0
BBX 18 24 2 0
BITMAP
F807C0
F807C0
F807C0
F807C0
F807C0
F807C0
F807C0
F807C0
F807C0
FFFFC0
FFFFC0
FFFFC0
FFFFC0
F807C0
F807C0
F807C0
F807C0
F807C0
F807C0
F807C0
F807C0
F807C0
F807C0
F807C0
ENDCHAR

STARTCHAR I
ENCODING 73
SWIDTH 280 0
DWIDTH 9 0
BBX 5 24 2 0
BITMAP
F8
F8
F8
F8
F8
F8
F8
F8
F8
F8
F8
F8
F8
F8
F8
F8
F8
F8
F8
F8
F8
F8
F8
F8
ENDCHAR

STARTCHAR J
ENCODING 74
SWIDTH 480 0
DWIDTH 16 0
BBX 13 24 0 0
BITMAP
00F8
00F8
00F8
00F8
00F8
00F8
00F8
00F8
00F8
00F8
00F8
00F8
00F8
00F8
00F8
00F8
00F8
00F8
10F8
3CF8
FFF0
7FF0
3FE0
0FC0
ENDCHAR

STARTCHAR K
ENCODING 75
SWIDTH 620 0
DWIDTH 20 0
BBX 17 24 3 0
BITMAP
F81F80
F83F00
F87E00
F87C00
F8F800
F9F000
FBF000
FBE000
FFC000
FF8000
FF0000
FF8000
FFC000
FBC000
FBE000
FBF000
F9F000
F8F800
F8FC00
F87C00
F83E00
F83F00
F81F80
F80F80
ENDCHAR

STARTCHAR L
ENCODING 76
SWIDTH 440 0
DWIDTH 15 0
BBX 11 24 2 0
BITMAP
F800
F800
F800
F800
F800
F800
F800
F800
F800
F800
F800
F800
F800
F800
F800
F800
F800
F800
F800
F800
FFE0
FFE0
FFE0
FFE0
ENDCHAR

STARTCHAR M
ENCODING 77
SWIDTH 900 0
DWIDTH 30 0
BBX 28 24 1 0
BITMAP
0F801F00
0F801F00
0F801F00
1FC03F00
1FC03F80
1FC03F80
1FE07F80
1FE07F80
1FE07F80
3EF0FB80
3EF0F7C0
3CF0F7C0
3CF9F3C0
3CF9E3C0
7C79E3C0
7C7DE3C0
7C7DC3E0
783FC3E0
783FC1E0
783F81E0
F81F81E0
F81F81E0
F01F01F0
F00F01F0
ENDCHAR

STARTCHAR N
ENCODING 78
SWIDTH 740 0
DWIDTH 24 0
BBX 19 24 3 0
BITMAP
F803E0
F803E0
FC03E0
FE03E0
FE03E0
FF03E0
FF83E0
FF83E0
FBC3E0
FBC3E0
FBE3E0
F9F3E0
F9F3E0
F8FBE0
F87DE0
F87DE0
F83FE0
F81FE0
F81FE0
F80FE0
F80FE0
F807E0
F803E0
F803E0
ENDCHAR

STARTCHAR O
ENCODING 79
SWIDTH 840 0
DWIDTH 28 0
BBX 25 24 1 0
BITMAP
00FF8000
03FFE000
07FFF800
0FFFFC00
1FC1FE00
3F007E00
7E003F00
7C001F00
7C000F80
F8000F80
F8000780
F8000780
F8000780
F8000780
F8000F80
7C000F80
7C001F00
3E003F00
3F007E00
1FC1FE00
0FFFFC00
07FFF800
03FFE000
007F8000
ENDCHAR

STARTCHAR P
ENCODING 80
SWIDTH 560 0
DWIDTH 18 0
BBX 14 24 3 0
BITMAP
FFE0
FFF0
FFF8
FFFC
F87C
F83C
F83C
F83C
F87C
FFFC
FFF8
FFF0
FFE0
F800
F800
F800
F800
F800
F800
F800
F800
F800
F800
F800
ENDCHAR

STARTCHAR Q
ENCODING 81
SWIDTH 840 0
DWIDTH 28 0
BBX 26 25 1 -1
BITMAP
00FF8000
03FFE000
07FFF800
0FFFFC00
1FC1FE00
3F007E00
3E003F00
7C001F00
7C000F80
F8000F80
F8000780
F8000780
F8000780
F8000780
F80FCF80
7C07CF80
7C03EF00
3E03FF00
3F00FE00
1FC1FE00
0FFFFC00
07FFFE00
03FFFF00
007F9F80
00000FC0
ENDCHAR

STARTCHAR R
ENCODING 82
SWIDTH 580 0
DWIDTH 19 0
BBX 15 24 3 0
BITMAP
FFE0
FFF0
FFF8
FFFC
F87C
F83C
F83C
F83C
F87C
FFFC
FFF8
FFF0
FFC0
FBC0
FBE0
FBE0
F9F0
F9F0
F8F8
F8F8
F87C
F87C
F83E
F83E
ENDCHAR

STARTCHAR S
ENCODING 83
SWIDTH 520 0
DWIDTH 17 0
BBX 14 24 1 0
BITMAP
0FC0
1FF0
3FF8
7FFC
7C78
7830
7800
7C00
3E00
3F80
1FC0
0FE0
07F0
03F8
00F8
007C
003C
303C
783C
FC7C
7FFC
7FF8
3FF0
0FC0
ENDCHAR

STARTCHAR T
ENCODING 84
SWIDTH 420 0
DWIDTH 14 0
BBX 13 24 0 0
BITMAP
FFF8
FFF8
FFF8
FFF8
0F80
0F80
0F80
0F80
0F80
0F80
0F80
0F80
0F80
0F80
0F80
0F80
0F80
0F80
0F80
0F80
0F80
0F80
0F80
0F80
ENDCHAR

STARTCHAR U
ENCODING 85
SWIDTH 640 0
DWIDTH 21 0
BBX 17 24 2 0
BITMAP
F80F80
F80F80
F80F80
F80F80
F80F80
F80F80
F80F80
F80F80
F80F80
F80F80
F80F80
F80F80
F80F80
F80F80
F80F80
F80F80
F80F80
F80F80
7C1F80
7E3F00
7FFF00
3FFE00
1FFC00
07F000
ENDCHAR

STARTCHAR V
ENCODING 86
SWIDTH 700 0
DWIDTH 23 0
BBX 21 24 1 0
BITMAP
F800F8
F800F8
7800F0
7C01F0
7C01F0
3C01E0
3E03E0
1E03E0
1F03C0
1F07C0
0F0780
0F8F80
0F8F80
078F00
07DF00
07DF00
03DE00
03FE00
03FE00
01FC00
01FC00
00F800
00F800
00F800
ENDCHAR

STARTCHAR W
ENCODING 87
SWIDTH 900 0
DWIDTH 30 0
BBX 28 24 1 0
BITMAP
F00F01F0
F80F01F0
F81F01E0
781F81E0
781F83E0
7C3F83E0
7C3FC3C0
3C3FC3C0
3C3FC3C0
3E7DC7C0
3E7BE7C0
3E79E780
1E79E780
1EF1FF80
1F70F780
1FF0FF00
0FF0FF00
0FE0FF00
0FE07F00
0FE07E00
07E07E00
07C03E00
07C03E00
07C03E00
ENDCHAR

STARTCHAR X
ENCODING 88
SWIDTH 680 0
DWIDTH 22 0
BBX 21 24 1 0
BITMAP
FC01F0
7C03E0
3E03E0
3E07C0
1F0F80
0F8F80
0F9F00
07DE00
03FE00
03FC00
01FC00
00F800
01F800
03FC00
03FE00
07DE00
0FDF00
0F8F80
1F0F80
3F07C0
3E03E0
7C03E0
7C01F0
F801F8
ENDCHAR

STARTCHAR Y
ENCODING 89
SWIDTH 620 0
DWIDTH 20 0
BBX 19 24 1 0
BITMAP
F803E0
7C07C0
7C07C0
3E0F80
1E0F00
1F1F00
0F1E00
0FBE00
07BC00
07FC00
03F800
03F800
01F000
01F000
01F000
01F000
01F000
01F000
01F000
01F000
01F000
01F000
01F000
01F000
ENDCHAR

STARTCHAR Z
ENCODING 90
SWIDTH 500 0
DWIDTH 17 0
BBX 15 24 1 0
BITMAP
FFFE
FFFC
FFFC
FFF8
00F8
00F0
01F0
01F0
03E0
03E0
03C0
07C0
0780
0F80
0F80
1F00
1F00
1E00
3E00
3C00
7FFC
7FFC
FFFC
FFFC
ENDCHAR

STARTCHAR bracketleft
ENCODING 91
SWIDTH 320 0
DWIDTH 11 0
BBX 7 30 2 -6
BITMAP
FE
FE
FE
FE
F8
F8
F8
F8
F8
F8
F8
F8
F8
F8
F8
F8
F8
F8
F8
F8
F8
F8
F8
F8
F8
F8
FE
FE
FE
FE
ENDCHAR

STARTCHAR backslash
ENCODING 92
SWIDTH 640 0
DWIDTH 21 0
BBX 13 29 4 -4
BITMAP
E000
E000
7000
7000
7000
3800
3800
3C00
1C00
1C00
0E00
0E00
0E00
0700
0700
0780
0380
0380
01C0
01C0
01C0
00E0
00E0
00F0
0070
0070
0078
0038
0038
ENDCHAR

STARTCHAR bracketright
ENCODING 93
SWIDTH 320 0
DWIDTH 11 0
BBX 7 30 1 -6
BITMAP
FE
FE
FE
FE
3E
3E
3E
3E
3E
3E
3E
3E
3E
3E
3E
3E
3E
3E
3E
3E
3E
3E
3E
3E
3E
3E
FE
FE
FE
FE
ENDCHAR

STARTCHAR asciicircum
ENCODING 94
SWIDTH 600 0
DWIDTH 20 0
BBX 16 18 2 6
BITMAP
03C0
03C0
07E0
07E0
0FE0
0FF0
0F70
1EF0
1E78
1E78
3C38
3C3C
3C3C
781C
781E
781E
F00F
F00F
ENDCHAR

STARTCHAR underscore
ENCODING 95
SWIDTH 500 0
DWIDTH 17 0
BBX 17 2 0 -4
BITMAP
FFFF80
FFFF80
ENDCHAR

STARTCHAR quoteleft
ENCODING 96
SWIDTH 280 0
DWIDTH 9 0
BBX 4 9 3 15
BITMAP
20
70
60
C0
F0
F0
F0
F0
F0
ENDCHAR

STARTCHAR a
ENCODING 97
SWIDTH 660 0
DWIDTH 22 0
BBX 18 18 2 0
BITMAP
07E3C0
1FFBC0
3FFFC0
7FFFC0
7E1FC0
F807C0
F807C0
F003C0
F003C0
F003C0
F003C0
F807C0
FC07C0
7E1FC0
3FFFC0
3FFFC0
0FFBC0
03E3C0
ENDCHAR

STARTCHAR b
ENCODING 98
SWIDTH 660 0
DWIDTH 22 0
BBX 18 24 2 0
BITMAP
F00000
F00000
F00000
F00000
F00000
F00000
F1F800
F7FE00
FFFF00
FFFF80
FE1F80
F807C0
F807C0
F003C0
F003C0
F003C0
F003C0
F807C0
F80FC0
FE1F80
FFFF00
FFFF00
F7FC00
F1F000
ENDCHAR

STARTCHAR c
ENCODING 99
SWIDTH 640 0
DWIDTH 21 0
BBX 18 18 2 0
BITMAP
03F800
0FFE00
1FFF80
3FFFC0
7E0F80
7C0200
F80000
F00000
F00000
F00000
F00000
F80000
7C0200
7E0F00
3FFFC0
1FFF80
0FFE00
03F800
ENDCHAR

STARTCHAR d
ENCODING 100
SWIDTH 660 0
DWIDTH 22 0
BBX 18 24 2 0
BITMAP
0003C0
0003C0
0003C0
0003C0
0003C0
0003C0
07E3C0
1FFBC0
3FFFC0
7FFFC0
7E1FC0
FC07C0
F807C0
F803C0
F003C0
F003C0
F803C0
F807C0
FC07C0
7E1FC0
3FFFC0
3FFFC0
0FFBC0
03E3C0
ENDCHAR

STARTCHAR e
ENCODING 101
SWIDTH 640 0
DWIDTH 21 0
BBX 18 18 2 0
BITMAP
03F000
0FFC00
1FFE00
3FFF00
7C0F80
7807C0
F803C0
FFFFC0
FFFFC0
FFFFC0
F00000
F80000
780400
7E0F00
3FFF80
1FFF00
0FFE00
03F000
ENDCHAR

STARTCHAR f
ENCODING 102
SWIDTH 280 0
DWIDTH 9 0
BBX 9 25 0 0
BITMAP
0F00
1F80
3F80
3F80
3C00
3C00
3C00
FF80
FF80
FF80
FF80
3C00
3C00
3C00
3C00
3C00
3C00
3C00
3C00
3C00
3C00
3C00
3C00
3C00
3C00
ENDCHAR

STARTCHAR g
ENCODING 103
SWIDTH 660 0
DWIDTH 22 0
BBX 18 24 2 -6
BITMAP
07E3C0
1FFBC0
3FFFC0
7FFFC0
7E1FC0
F807C0
F807C0
F003C0
F003C0
F003C0
F003C0
F807C0
FC07C0
7E1FC0
3FFFC0
1FFFC0
0FFBC0
03C3C0
0007C0
F80F80
7FFF80
3FFF00
1FFE00
07F800
ENDCHAR

STARTCHAR h
ENCODING 104
SWIDTH 600 0
DWIDTH 20 0
BBX 15 24 3 0
BITMAP
F000
F000
F000
F000
F000
F000
F1F0
F7F8
FFFC
FFFE
FC3E
F83E
F81E
F01E
F01E
F01E
F01E
F01E
F01E
F01E
F01E
F01E
F01E
F01E
ENDCHAR

STARTCHAR i
ENCODING 105
SWIDTH 240 0
DWIDTH 8 0
BBX 6 25 1 0
BITMAP
30
78
FC
FC
78
30
00
78
78
78
78
78
78
78
78
78
78
78
78
78
78
78
78
78
78
ENDCHAR

STARTCHAR j
ENCODING 106
SWIDTH 260 0
DWIDTH 9 0
BBX 9 31 -2 -6
BITMAP
0E00
0F00
1F80
1F80
0F00
0600
0000
0F00
0F00
0F00
0F00
0F00
0F00
0F00
0F00
0F00
0F00
0F00
0F00
0F00
0F00
0F00
0F00
0F00
0F00
0F00
0F00
FF00
FF00
FE00
7800
ENDCHAR

STARTCHAR k
ENCODING 107
SWIDTH 580 0
DWIDTH 19 0
BBX 17 24 2 0
BITMAP
F00000
F00000
F00000
F00000
F00000
F00000
F03F00
F07E00
F07C00
F0F800
F1F000
F3E000
F7E000
FFC000
FF8000
FF8000
F7C000
F3E000
F1F000
F0F800
F07C00
F03E00
F03F00
F01F80
ENDCHAR

STARTCHAR l
ENCODING 108
SWIDTH 240 0
DWIDTH 8 0
BBX 4 24 2 0
BITMAP
F0
F0
F0
F0
F0
F0
F0
F0
F0
F0
F0
F0
F0
F0
F0
F0
F0
F0
F0
F0
F0
F0
F0
F0
ENDCHAR

STARTCHAR m
ENCODING 109
SWIDTH 940 0
DWIDTH 31 0
BBX 26 18 3 0
BITMAP
F1F03E00
F7F8FF00
FFFDFF80
FFFFFFC0
FC7F87C0
F83F07C0
F81F03C0
F01E03C0
F01E03C0
F01E03C0
F01E03C0
F01E03C0
F01E03C0
F01E03C0
F01E03C0
F01E03C0
F01E03C0
F01E03C0
ENDCHAR

STARTCHAR n
ENCODING 110
SWIDTH 600 0
DWIDTH 20 0
BBX 15 18 2 0
BITMAP
F1F0
F7F8
FFFC
FFFE
FC3E
F83E
F81E
F01E
F01E
F01E
F01E
F01E
F01E
F01E
F01E
F01E
F01E
F01E
ENDCHAR

STARTCHAR o
ENCODING 111
SWIDTH 640 0
DWIDTH 21 0
BBX 18 18 2 0
BITMAP
03F000
0FFC00
1FFE00
3FFF00
7E1F80
FC07C0
F807C0
F003C0
F003C0
F003C0
F003C0
F807C0
F80FC0
7E1F80
3FFF00
1FFE00
0FFC00
03F000
ENDCHAR

STARTCHAR p
ENCODING 112
SWIDTH 660 0
DWIDTH 22 0
BBX 18 24 2 -6
BITMAP
F1F800
F7FE00
FFFF00
FFFF80
FE1F80
F807C0
F807C0
F003C0
F003C0
F003C0
F003C0
F807C0
F80FC0
FE1F80
FFFF00
FFFF00
F7FC00
F1F000
F00000
F00000
F00000
F00000
F00000
F00000
ENDCHAR

STARTCHAR q
ENCODING 113
SWIDTH 660 0
DWIDTH 22 0
BBX 18 24 2 -6
BITMAP
07E3C0
1FFBC0
3FFFC0
7FFFC0
7E1FC0
FC07C0
F807C0
F803C0
F003C0
F003C0
F803C0
F807C0
FC07C0
7E1FC0
3FFFC0
3FFFC0
0FFBC0
03E3C0
0003C0
0003C0
0003C0
0003C0
0003C0
0003C0
ENDCHAR

STARTCHAR r
ENCODING 114
SWIDTH 320 0
DWIDTH 11 0
BBX 9 18 1 0
BITMAP
F380
F780
F780
FF00
F800
F800
F000
F000
F000
F000
F000
F000
F000
F000
F000
F000
F000
F000
ENDCHAR

STARTCHAR s
ENCODING 115
SWIDTH 440 0
DWIDTH 15 0
BBX 13 18 0 0
BITMAP
0FC0
3FE0
3FF8
7FF0
7860
7C20
7E00
3F80
1FE0
0FF0
03F8
00F8
1078
38F8
FFF8
7FF0
3FE0
0F80
ENDCHAR

STARTCHAR t
ENCODING 116
SWIDTH 300 0
DWIDTH 10 0
BBX 9 24 1 0
BITMAP
3C00
3C00
3C00
3C00
3C00
3C00
FF80
FF80
FF80
FF80
3C00
3C00
3C00
3C00
3C00
3C00
3C00
3C00
3C00
3C00
3C00
3C00
3C00
3C00
ENDCHAR

STARTCHAR u
ENCODING 117
SWIDTH 600 0
DWIDTH 20 0
BBX 15 18 2 0
BITMAP
F81E
F81E
F81E
F81E
F81E
F81E
F81E
F81E
F81E
F81E
F81E
F81E
783E
7C7E
7FFC
3FF8
1FF0
07E0
ENDCHAR

STARTCHAR v
ENCODING 118
SWIDTH 560 0
DWIDTH 18 0
BBX 18 18 0 0
BITMAP
F803C0
7807C0
7C0780
3C0F80
3E0F00
1E1F00
1F1E00
1F1E00
0F3E00
0FBC00
07BC00
07F800
03F800
03F800
03F000
01F000
01E000
00E000
ENDCHAR

STARTCHAR w
ENCODING 119
SWIDTH 800 0
DWIDTH 26 0
BBX 26 18 0 0
BITMAP
F80E03C0
781E07C0
781E0780
7C1F0780
3C3F0F80
3C3F8F00
1E7F9F00
1E7F9E00
1F7BDE00
0F7BDE00
0FF3FC00
0FF1FC00
07E1FC00
07E1F800
07E0F800
03C0F800
03C0F000
01807000
ENDCHAR

STARTCHAR x
ENCODING 120
SWIDTH 560 0
DWIDTH 18 0
BBX 19 18 0 0
BITMAP
7C0FC0
3E0F80
3E1F00
1F3E00
0FBE00
07FC00
07F800
03F000
01F000
03F800
07F800
07FC00
0FBE00
1F3E00
3E1F00
3E0F80
7C0FC0
F807E0
ENDCHAR

STARTCHAR y
ENCODING 121
SWIDTH 580 0
DWIDTH 19 0
BBX 19 24 0 -6
BITMAP
F803E0
7803C0
7C07C0
3C0780
3E0F80
1E0F00
1E1F00
1F1F00
0F3E00
0FBE00
07BC00
07FC00
07F800
03F800
03F000
01F000
01E000
03E000
03C000
07C000
078000
0F8000
0F8000
1F0000
ENDCHAR

STARTCHAR z
ENCODING 122
SWIDTH 460 0
DWIDTH 15 0
BBX 15 18 0 0
BITMAP
3FFE
3FFC
3FFC
3FF8
00F0
01F0
01E0
03E0
03C0
07C0
0F80
0F80
1F00
1E00
3FFE
3FFE
7FFE
FFFE
ENDCHAR

STARTCHAR braceleft
ENCODING 123
SWIDTH 340 0
DWIDTH 11 0
BBX 11 31 0 -7
BITMAP
01E0
07E0
0FE0
0FE0
0F00
0F00
0F00
0F00
0F00
0F00
0F00
1F00
1E00
FE00
FC00
F800
FC00
7E00
1E00
1F00
0F00
0F00
0F00
0F00
0F00
0F00
0F80
0FE0
0FE0
07E0
01E0
ENDCHAR

STARTCHAR bar
ENCODING 124
SWIDTH 600 0
DWIDTH 20 0
BBX 3 30 8 -6
BITMAP
E0
E0
E0
E0
E0
E0
E0
E0
E0
E0
E0
E0
E0
E0
E0
E0
E0
E0
E0
E0
E0
E0
E0
E0
E0
E0
E0
E0
E0
E0
ENDCHAR

STARTCHAR braceright
ENCODING 125
SWIDTH 340 0
DWIDTH 11 0
BBX 11 31 0 -7
BITMAP
F800
FC00
FE00
FE00
1E00
1F00
1F00
1F00
1F00
1F00
0F00
0F00
0F80
0FE0
07E0
03E0
07E0
0FC0
0F00
0F00
0F00
1F00
1F00
1F00
1F00
1F00
1E00
FE00
FE00
FC00
F800
ENDCHAR

STARTCHAR asciitilde
ENCODING 126
SWIDTH 600 0
DWIDTH 20 0
BBX 16 8 2 8
BITMAP
3C00
FF01
FFC3
FFFF
FFFF
83FF
80FF
003C
ENDCHAR

STARTCHAR space
ENCODING 160
SWIDTH 280 0
DWIDTH 11 0
BBX 0 0 0 0
BITMAP
ENDCHAR

STARTCHAR Aogonek
ENCODING 161
SWIDTH 740 0
DWIDTH 24 0
BBX 24 30 0 -6
BITMAP
007C00
007E00
007E00
00FE00
00FF00
01FF00
01F780
01EF80
03E780
03E7C0
07C7C0
07C3C0
07C3E0
0F83E0
0F81F0
0FFFF0
1FFFF0
1FFFF8
3FFFF8
3E007C
3C007C
7C003C
7C003E
F80036
00000C
000018
000038
00003D
00003F
00001F
ENDCHAR

STARTCHAR afii240
ENCODING 162
SWIDTH 556 0
DWIDTH 18 0
BBX 16 17 2 0
BITMAP
F83F
F87C
F8F8
F9F0
FBF0
FBE0
FFC0
FFE0
FFE0
FEF0
FCF0
F8F8
F87C
F87C
F83E
F83E
F81F
ENDCHAR

STARTCHAR Rcommaaccent
ENCODING 163
SWIDTH 580 0
DWIDTH 19 0
BBX 15 31 3 -7
BITMAP
FFC0
FFF0
FFF8
FFFC
F8FC
F87C
F83C
F83C
F87C
FFFC
FFF8
FFF0
FFE0
FFC0
FBC0
FBE0
F9E0
F9F0
F8F0
F8F8
F87C
F87C
F83E
F83E
0000
0000
0700
0700
0700
0300
0200
ENDCHAR

STARTCHAR currency
ENCODING 164
SWIDTH 600 0
DWIDTH 20 0
BBX 16 16 2 4
BITMAP
47E2
EFFF
FFFE
7C3E
780E
F00F
E007
E007
E007
E007
F00F
701E
7C3E
FFFF
EFFB
47E2
ENDCHAR

STARTCHAR Itilde
ENCODING 165
SWIDTH 280 0
DWIDTH 9 0
BBX 13 30 -2 0
BITMAP
7E30
FFF0
FFF8
63F0
0000
0000
0F80
0F80
0F80
0F80
0F80
0F80
0F80
0F80
0F80
0F80
0F80
0F80
0F80
0F80
0F80
0F80
0F80
0F80
0F80
0F80
0F80
0F80
0F80
0F80
ENDCHAR

STARTCHAR Lcommaaccent
ENCODING 166
SWIDTH 440 0
DWIDTH 15 0
BBX 11 31 3 -7
BITMAP
F800
F800
F800
F800
F800
F800
F800
F800
F800
F800
F800
F800
F800
F800
F800
F800
F800
F800
F800
F800
FFE0
FFE0
FFE0
FFE0
0000
0000
0E00
0E00
0E00
0600
0400
ENDCHAR

STARTCHAR section
ENCODING 167
SWIDTH 560 0
DWIDTH 18 0
BBX 15 32 2 -6
BITMAP
0FC0
1FF0
3FF8
7FF8
7C7C
783C
7C00
7E00
3F00
1FC0
3FE0
7FF8
7BFC
F0FC
F07E
F03E
F81E
7C1E
7F3C
3FFC
1FE8
0FF0
03F8
01F8
007C
003C
7C3C
7C7C
3FFC
3FF8
1FF0
07E0
ENDCHAR

STARTCHAR hungarumlaut
ENCODING 168
SWIDTH 700 0
DWIDTH 23 0
BBX 17 6 5 21
BITMAP
0F9F80
1F3E00
1E3C00
3C7800
78F000
F0E000
ENDCHAR

STARTCHAR Scaron
ENCODING 169
SWIDTH 520 0
DWIDTH 17 0
BBX 14 30 1 0
BITMAP
7CF8
3FF0
1FE0
0FC0
0780
0000
0FC0
1FF0
3FF8
7FFC
7CF8
7830
7800
7C00
3E00
3F80
1FC0
0FE0
07F0
03F8
00F8
007C
003C
303C
783C
FC7C
7FFC
7FF8
3FF0
0FC0
ENDCHAR

STARTCHAR Emacron
ENCODING 170
SWIDTH 520 0
DWIDTH 17 0
BBX 13 30 2 0
BITMAP
3FE0
3FE0
3FE0
3FE0
0000
0000
FFF8
FFF8
FFF8
FFF8
F800
F800
F800
F800
F800
FFF8
FFF8
FFF8
FFF8
F800
F800
F800
F800
F800
F800
F800
FFF8
FFF8
FFF8
FFF8
ENDCHAR

STARTCHAR Gcommaaccent
ENCODING 171
SWIDTH 840 0
DWIDTH 28 0
BBX 24 30 2 -6
BITMAP
00FF80
03FFE0
0FFFF8
1FFFFE
3FC1FC
3F0078
7E0010
7C0000
F80000
F80000
F00000
F00000
F00FFF
F00FFF
F80FFF
F80FFF
7C001F
7E003E
3F007E
3FC1FC
1FFFF8
0FFFF0
03FFE0
007F00
000000
001C00
001C00
001C00
000C00
000800
ENDCHAR

STARTCHAR afii237
ENCODING 172
SWIDTH 611 0
DWIDTH 20 0
BBX 19 24 1 0
BITMAP
FFFFE0
FFFFE0
FFFFE0
FFFFE0
01F000
01F000
01F000
01F000
01F000
01F000
01F000
01F000
3FFF80
3FFF80
3FFF80
01F000
01F000
01F000
01F000
01F000
01F000
01F000
01F000
01F000
ENDCHAR

STARTCHAR hyphen
ENCODING 173
SWIDTH 420 0
DWIDTH 14 0
BBX 8 4 3 7
BITMAP
FF
FF
FF
FF
ENDCHAR

STARTCHAR Zcaron
ENCODING 174
SWIDTH 500 0
DWIDTH 17 0
BBX 15 31 1 0
BITMAP
7C7C
3EF8
1FF0
0FE0
0780
0000
0000
FFFE
FFFC
FFFC
FFF8
00F8
00F0
01F0
01F0
03E0
03E0
03C0
07C0
0780
0F80
0F80
1F00
1F00
1E00
3E00
3C00
7FFC
7FFC
FFFC
FFFC
ENDCHAR

STARTCHAR macron
ENCODING 175
SWIDTH 420 0
DWIDTH 14 0
BBX 10 3 2 21
BITMAP
FFC0
FFC0
FFC0
ENDCHAR

STARTCHAR degree
ENCODING 176
SWIDTH 400 0
DWIDTH 13 0
BBX 11 11 1 13
BITMAP
1F00
3F80
60C0
E060
C060
C060
C060
E0E0
71C0
3F80
1F00
ENDCHAR

STARTCHAR aogonek
ENCODING 177
SWIDTH 660 0
DWIDTH 22 0
BBX 19 24 1 -6
BITMAP
07E3C0
1FFBC0
3FFFC0
7FFFC0
7E1FC0
F807C0
F807C0
F003C0
F003C0
F003C0
F003C0
F807C0
FC07C0
7E1FC0
3FFFC0
3FFFC0
0FFBC0
07E2C0
000180
000300
000700
0007A0
0007E0
0003E0
ENDCHAR

STARTCHAR ogonek
ENCODING 178
SWIDTH 340 0
DWIDTH 11 0
BBX 6 6 3 -6
BITMAP
78
60
E0
F4
FC
7C
ENDCHAR

STARTCHAR rcommaaccent
ENCODING 179
SWIDTH 320 0
DWIDTH 11 0
BBX 9 25 2 -7
BITMAP
F380
F780
F780
FF00
F800
F800
F000
F000
F000
F000
F000
F000
F000
F000
F000
F000
F000
F000
0000
0000
3800
3800
3800
1800
1000
ENDCHAR

STARTCHAR acute
ENCODING 180
SWIDTH 420 0
DWIDTH 14 0
BBX 9 6 4 21
BITMAP
1F80
1E00
3E00
3C00
7800
F000
ENDCHAR

STARTCHAR itilde
ENCODING 181
SWIDTH 240 0
DWIDTH 8 0
BBX 14 25 -3 0
BITMAP
3F18
FFF8
7FFC
21F0
0000
0000
0000
0780
0780
0780
0780
0780
0780
0780
0780
0780
0780
0780
0780
0780
0780
0780
0780
0780
0780
ENDCHAR

STARTCHAR lcommaaccent
ENCODING 182
SWIDTH 240 0
DWIDTH 8 0
BBX 4 31 2 -7
BITMAP
F0
F0
F0
F0
F0
F0
F0
F0
F0
F0
F0
F0
F0
F0
F0
F0
F0
F0
F0
F0
F0
F0
F0
F0
00
00
E0
E0
E0
60
40
ENDCHAR

STARTCHAR caron
ENCODING 183
SWIDTH 540 0
DWIDTH 18 0
BBX 14 4 2 21
BITMAP
FCFC
3EF0
1FE0
0FC0
ENDCHAR

STARTCHAR commaaccent
ENCODING 184
SWIDTH 333 0
DWIDTH 11 0
BBX 3 5 4 -7
BITMAP
E0
E0
E0
60
40
ENDCHAR

STARTCHAR scaron
ENCODING 185
SWIDTH 440 0
DWIDTH 15 0
BBX 13 25 0 0
BITMAP
FCF8
3DE0
1FC0
0F80
0000
0000
0000
0FC0
3FE0
3FF8
7FF0
7C60
7C20
7E00
3F80
1FE0
0FF0
03F8
00F8
1078
38F8
FFF8
7FF0
3FE0
0F80
ENDCHAR

STARTCHAR emacron
ENCODING 186
SWIDTH 640 0
DWIDTH 21 0
BBX 18 24 2 0
BITMAP
07FC00
07FC00
07FC00
000000
000000
000000
03F000
0FFC00
1FFE00
3FFF00
7C0F80
7807C0
F003C0
FFFFC0
FFFFC0
FFFFC0
F00000
F80000
780400
7E0F00
3FFF80
1FFF00
0FFE00
03F000
ENDCHAR

STARTCHAR gcommaaccent
ENCODING 187
SWIDTH 660 0
DWIDTH 22 0
BBX 18 32 2 -6
BITMAP
006000
00C000
00E000
00E000
00E000
000000
000000
000000
07E3C0
1FFBC0
3FFFC0
7FFFC0
7E1FC0
FC07C0
F807C0
F803C0
F003C0
F003C0
F803C0
F807C0
FC07C0
7E1FC0
3FFFC0
1FFFC0
0FFBC0
03E3C0
0007C0
F80F80
7FFF80
3FFF00
1FFE00
07F800
ENDCHAR

STARTCHAR afii253
ENCODING 188
SWIDTH 333 0
DWIDTH 11 0
BBX 10 24 0 0
BITMAP
0200
0E00
1E00
3E00
3E00
3E00
FFC0
FFC0
FFC0
FFC0
3E00
3E00
3E00
3E00
FFC0
FFC0
FFC0
3E00
3E00
3E00
3FC0
1FC0
1FC0
0780
ENDCHAR

STARTCHAR afii238
ENCODING 189
SWIDTH 723 0
DWIDTH 24 0
BBX 20 24 2 0
BITMAP
F87E00
F9FF80
FBFFC0
FBFFC0
FF0FE0
FE03E0
FC03E0
F801F0
F801F0
F801F0
F801F0
F801F0
F801F0
F801F0
F801F0
F801F0
F801F0
F801F0
F803E0
F823E0
F87FE0
F87FC0
F8FF80
F83E00
ENDCHAR

STARTCHAR zcaron
ENCODING 190
SWIDTH 460 0
DWIDTH 15 0
BBX 15 26 0 0
BITMAP
7C7C
3EF8
1FF0
0FE0
07C0
0000
0000
0000
3FFE
3FFC
3FFC
3FF8
00F0
01F0
01E0
03E0
03C0
07C0
0F80
0F80
1F00
1E00
3FFE
3FFE
7FFE
FFFE
ENDCHAR

STARTCHAR afii254
ENCODING 191
SWIDTH 611 0
DWIDTH 20 0
BBX 16 25 2 -7
BITMAP
F1F8
F7FC
F7FE
FE3F
FC1F
F81F
F81F
F81F
F81F
F81F
F81F
F81F
F81F
F81F
F81F
F81F
F81F
F81F
001F
001F
00BF
00FF
00FE
00FE
00F8
ENDCHAR

STARTCHAR Amacron
ENCODING 192
SWIDTH 740 0
DWIDTH 24 0
BBX 23 29 1 0
BITMAP
01FF00
01FF00
01FF00
01FF00
000000
007C00
00FC00
00FC00
00FE00
01FE00
01FF00
03EF00
03EF00
03EF80
07CF80
07C7C0
0787C0
0F83C0
0F83E0
1F03E0
1FFFE0
1FFFF0
3FFFF0
3FFFF8
7C00F8
7C0078
78007C
F8007C
F8003E
ENDCHAR

STARTCHAR Aacute
ENCODING 193
SWIDTH 740 0
DWIDTH 24 0
BBX 23 32 1 0
BITMAP
000F80
001F00
003E00
003C00
007800
00F000
000000
000000
007C00
00FC00
00FC00
00FE00
01FE00
01FF00
03EF00
03EF00
03EF80
07CF80
07C7C0
0787C0
0F83C0
0F83E0
1F03E0
1FFFE0
1FFFF0
3FFFF0
3FFFF8
7C00F8
7C0078
78007C
F8007C
F8003E
ENDCHAR

STARTCHAR Acircumflex
ENCODING 194
SWIDTH 740 0
DWIDTH 24 0
BBX 23 30 1 0
BITMAP
007C00
01FE00
03EF00
07CFC0
000000
000000
007C00
00FC00
00FC00
00FE00
01FE00
01FF00
03EF00
03EF00
03EF80
07CF80
07C7C0
0787C0
0F83C0
0F83E0
1F03E0
1FFFE0
1FFFF0
3FFFF0
3FFFF8
7C00F8
7C0078
78007C
F8007C
F8003E
ENDCHAR

STARTCHAR Atilde
ENCODING 195
SWIDTH 740 0
DWIDTH 24 0
BBX 23 30 1 0
BITMAP
03F180
07FF80
07FFC0
021F00
000000
000000
007C00
00FC00
00FC00
00FE00
01FE00
01FF00
03EF00
03EF00
03EF80
07CF80
07C7C0
0787C0
0F83C0
0F83E0
1F03E0
1FFFE0
1FFFF0
3FFFF0
3FFFF8
7C00F8
7C0078
78007C
F8007C
F8003E
ENDCHAR

STARTCHAR Adieresis
ENCODING 196
SWIDTH 740 0
DWIDTH 24 0
BBX 22 30 1 0
BITMAP
038700
07CF80
07CF80
038700
010200
000000
007800
00FC00
00FC00
01FE00
01FE00
01FE00
03FF00
03EF00
03CF80
07CF80
07C780
0F87C0
0F87C0
0F03C0
1F03E0
1FFFE0
3FFFF0
3FFFF0
3FFFF0
7C00F8
7C00F8
78007C
F8007C
F0003C
ENDCHAR

STARTCHAR Aring
ENCODING 197
SWIDTH 740 0
DWIDTH 24 0
BBX 23 33 1 0
BITMAP
007C00
00FE00
00E600
00C600
00EE00
007E00
003C00
000000
000000
007C00
007C00
00FE00
00FE00
01FF00
01FF00
01FF00
03EF80
03EF80
07C7C0
07C7C0
07C3C0
0F83E0
0F83E0
0F01E0
1FFFF0
1FFFF0
3FFFF8
3FFFF8
3C0078
7C007C
7C007C
F8003E
F8003E
ENDCHAR

STARTCHAR AE
ENCODING 198
SWIDTH 900 0
DWIDTH 30 0
BBX 27 24 1 0
BITMAP
001FFFE0
001FFFE0
003FFFE0
003FFFE0
007DE000
007BE000
00FBE000
00FBE000
01F3E000
01F3FFE0
03E3FFE0
03E3FFE0
03C3FFE0
07C3E000
0783E000
0FFFE000
0FFFE000
1FFFE000
1FFFE000
3E03E000
3C03FFE0
7C03FFE0
7803FFE0
F803FFE0
ENDCHAR

STARTCHAR Iogonek
ENCODING 199
SWIDTH 280 0
DWIDTH 9 0
BBX 6 30 2 -6
BITMAP
F8
F8
F8
F8
F8
F8
F8
F8
F8
F8
F8
F8
F8
F8
F8
F8
F8
F8
F8
F8
F8
F8
F8
D8
30
60
E0
F4
FC
7C
ENDCHAR

STARTCHAR Ccaron
ENCODING 200
SWIDTH 780 0
DWIDTH 26 0
BBX 23 30 2 0
BITMAP
03E3E0
00F780
007F00
003E00
000000
000000
00FF80
03FFE0
0FFFF8
1FFFFC
3FC1FE
3F007C
7C0018
7C0000
F80000
F80000
F00000
F00000
F00000
F00000
F80000
F80000
7C0000
7C0038
3F007C
3FC1FE
1FFFFC
0FFFF8
03FFE0
00FF80
ENDCHAR

STARTCHAR Eacute
ENCODING 201
SWIDTH 520 0
DWIDTH 17 0
BBX 13 32 2 0
BITMAP
01F8
03E0
03C0
0780
0F00
0E00
0000
0000
FFF8
FFF8
FFF8
FFF8
F800
F800
F800
F800
F800
FFF8
FFF8
FFF8
FFF8
F800
F800
F800
F800
F800
F800
F800
FFF8
FFF8
FFF8
FFF8
ENDCHAR

STARTCHAR Eogonek
ENCODING 202
SWIDTH 520 0
DWIDTH 17 0
BBX 13 30 3 -6
BITMAP
FFF8
FFF8
FFF8
FFF8
F800
F800
F800
F800
F800
FFF8
FFF8
FFF8
FFF8
F800
F800
F800
F800
F800
F800
F800
FFF8
FFF8
FFF8
FFF8
0060
00C0
01C0
01C8
01F8
00F8
ENDCHAR

STARTCHAR Edieresis
ENCODING 203
SWIDTH 520 0
DWIDTH 17 0
BBX 13 31 2 0
BITMAP
3870
7CF8
7CF8
7CF8
3870
0000
0000
FFF8
FFF8
FFF8
FFF8
F800
F800
F800
F800
F800
FFF8
FFF8
FFF8
FFF8
F800
F800
F800
F800
F800
F800
F800
FFF8
FFF8
FFF8
FFF8
ENDCHAR

STARTCHAR Edotaccent
ENCODING 204
SWIDTH 520 0
DWIDTH 17 0
BBX 13 31 3 0
BITMAP
0700
0F80
0F80
0F80
0700
0000
0000
FFF8
FFF8
FFF8
FFF8
F800
F800
F800
F800
F800
FFF8
FFF8
FFF8
FFF8
F800
F800
F800
F800
F800
F800
F800
FFF8
FFF8
FFF8
FFF8
ENDCHAR

STARTCHAR Iacute
ENCODING 205
SWIDTH 280 0
DWIDTH 9 0
BBX 9 32 1 0
BITMAP
0F80
1F00
1E00
3C00
7800
F000
0000
0000
7C00
7C00
7C00
7C00
7C00
7C00
7C00
7C00
7C00
7C00
7C00
7C00
7C00
7C00
7C00
7C00
7C00
7C00
7C00
7C00
7C00
7C00
7C00
7C00
ENDCHAR

STARTCHAR Icircumflex
ENCODING 206
SWIDTH 280 0
DWIDTH 9 0
BBX 13 30 -2 0
BITMAP
0F80
1FC0
3DE0
F8F8
0000
0000
0F80
0F80
0F80
0F80
0F80
0F80
0F80
0F80
0F80
0F80
0F80
0F80
0F80
0F80
0F80
0F80
0F80
0F80
0F80
0F80
0F80
0F80
0F80
0F80
ENDCHAR

STARTCHAR Imacron
ENCODING 207
SWIDTH 280 0
DWIDTH 9 0
BBX 9 30 0 0
BITMAP
FF80
FF80
FF80
FF80
0000
0000
3E00
3E00
3E00
3E00
3E00
3E00
3E00
3E00
3E00
3E00
3E00
3E00
3E00
3E00
3E00
3E00
3E00
3E00
3E00
3E00
3E00
3E00
3E00
3E00
ENDCHAR

STARTCHAR Eth
ENCODING 208
SWIDTH 742 0
DWIDTH 24 0
BBX 22 24 1 0
BITMAP
3FFE00
3FFF80
3FFFC0
3FFFE0
3E0FF0
3E03F0
3E00F8
3E00F8
3E0078
3E007C
FFF07C
FFF07C
FFF07C
3E007C
3E007C
3E0078
3E00F8
3E01F8
3E03F0
3E1FF0
3FFFE0
3FFFC0
3FFF80
3FFE00
ENDCHAR

STARTCHAR Ncommaaccent
ENCODING 209
SWIDTH 740 0
DWIDTH 24 0
BBX 19 31 3 -7
BITMAP
F803E0
F803E0
FC03E0
FE03E0
FE03E0
FF03E0
FF83E0
FF83E0
FBC3E0
FBC3E0
FBE3E0
F9F3E0
F9F3E0
F8FBE0
F87DE0
F87DE0
F83FE0
F83FE0
F81FE0
F80FE0
F80FE0
F807E0
F803E0
F803E0
000000
000000
00E000
00E000
00E000
006000
004000
ENDCHAR

STARTCHAR Omacron
ENCODING 210
SWIDTH 840 0
DWIDTH 28 0
BBX 25 29 1 0
BITMAP
00FF8000
00FF8000
00FF8000
00FF8000
00000000
007F8000
01FFE000
07FFF800
0FFFFC00
1FC1FE00
3F007E00
3E001F00
7C001F00
7C000F80
F8000F80
F8000780
F8000780
F8000780
F8000780
F8000F80
7C000F80
7C001F00
3E003F00
3F007E00
1FC1FE00
0FFFFC00
07FFF800
03FFE000
007F8000
ENDCHAR

STARTCHAR Kcommaaccent
ENCODING 211
SWIDTH 620 0
DWIDTH 20 0
BBX 17 31 3 -7
BITMAP
F81F00
F83E00
F87E00
F8FC00
F8F800
F9F000
FBE000
FBE000
FFC000
FF8000
FF0000
FF8000
FF8000
FBC000
FBE000
FBF000
F9F000
F8F800
F8FC00
F87C00
F83E00
F83F00
F81F00
F80F80
000000
000000
038000
038000
038000
018000
010000
ENDCHAR

STARTCHAR Ocircumflex
ENCODING 212
SWIDTH 840 0
DWIDTH 28 0
BBX 25 30 1 0
BITMAP
003E0000
007F0000
00FB8000
03F3E000
00000000
00000000
00FF8000
03FFE000
07FFF800
0FFFFC00
1FC1FE00
3F007E00
3E001F00
7C001F00
7C000F80
F8000F80
F8000780
F8000780
F8000780
F8000780
F8000F80
7C000F80
7C001F00
3E003F00
3F007E00
1FC1FE00
0FFFFC00
07FFF800
03FFE000
007F8000
ENDCHAR

STARTCHAR Otilde
ENCODING 213
SWIDTH 840 0
DWIDTH 28 0
BBX 25 30 1 0
BITMAP
01F84000
03FFE000
01FFF000
018FC000
00000000
00000000
00FF8000
03FFE000
07FFF800
0FFFFC00
1FC1FE00
3F007E00
3E001F00
7C001F00
7C000F80
F8000F80
F8000780
F8000780
F8000780
F8000780
F8000F80
7C000F80
7C001F00
3E003F00
3F007E00
1FC1FE00
0FFFFC00
07FFF800
03FFE000
007F8000
ENDCHAR

STARTCHAR Odieresis
ENCODING 214
SWIDTH 840 0
DWIDTH 28 0
BBX 25 30 1 0
BITMAP
00E1C000
01F3E000
01F3E000
01E1E000
00408000
00000000
007F8000
03FFE000
07FFF800
0FFFFC00
1FE1FE00
3F007E00
3E001F00
7C001F00
7C000F80
F8000F80
F8000780
F8000780
F8000780
F8000780
F8000F80
7C000F80
7C001F00
3E001F00
3F807E00
1FE1FE00
0FFFFC00
07FFF800
01FFE000
007F8000
ENDCHAR

STARTCHAR multiply
ENCODING 215
SWIDTH 600 0
DWIDTH 20 0
BBX 15 15 2 4
BITMAP
300C
F81E
7C3E
3E7C
1F78
0FF0
07C0
07E0
0FF0
1FF8
3E7C
FC3E
781E
300C
1004
ENDCHAR

STARTCHAR Oslash
ENCODING 216
SWIDTH 840 0
DWIDTH 28 0
BBX 25 26 1 -1
BITMAP
00000200
00FF8780
03FFE700
07FFFE00
0FFFFC00
1FC1FE00
3F007E00
3E00FF00
7C01EF00
7C03CF80
F8078F80
F8070780
F80E0780
F81C0780
F83C0780
F8780F80
7CF00F80
7DE01F00
3FC03F00
3F807E00
1FC1FE00
0FFFFC00
1FFFF800
3DFFE000
787F8000
30000000
ENDCHAR

STARTCHAR Uogonek
ENCODING 217
SWIDTH 640 0
DWIDTH 21 0
BBX 17 30 2 -6
BITMAP
F80F80
F80F80
F80F80
F80F80
F80F80
F80F80
F80F80
F80F80
F80F80
F80F80
F80F80
F80F80
F80F80
F80F80
F80F80
F80F80
F80F80
F80F80
7C0F00
7E3F00
7FFF00
3FFE00
1FFC00
07F000
01C000
038000
038000
03D000
03F000
01F000
ENDCHAR

STARTCHAR Uacute
ENCODING 218
SWIDTH 640 0
DWIDTH 21 0
BBX 17 32 2 0
BITMAP
007E00
00F800
00F000
01E000
03C000
078000
000000
000000
F80F80
F80F80
F80F80
F80F80
F80F80
F80F80
F80F80
F80F80
F80F80
F80F80
F80F80
F80F80
F80F80
F80F80
F80F80
F80F80
F80F80
F80F80
7C1F00
7E3F00
7FFF00
3FFE00
1FFC00
07F000
ENDCHAR

STARTCHAR Ucircumflex
ENCODING 219
SWIDTH 640 0
DWIDTH 21 0
BBX 17 30 2 0
BITMAP
03E000
07F000
0F7800
3E3E00
000000
000000
F80F80
F80F80
F80F80
F80F80
F80F80
F80F80
F80F80
F80F80
F80F80
F80F80
F80F80
F80F80
F80F80
F80F80
F80F80
F80F80
F80F80
F80F80
7C1F00
7E3F00
7FFF00
3FFE00
1FFC00
07F000
ENDCHAR

STARTCHAR Udieresis
ENCODING 220
SWIDTH 640 0
DWIDTH 21 0
BBX 16 31 3 0
BITMAP
1C38
3E7C
3E7C
3E7C
1C38
0000
0000
F81F
F81F
F81F
F81F
F81F
F81F
F81F
F81F
F81F
F81F
F81F
F81F
F81F
F81F
F81F
F81F
F81F
F81F
781E
7C7E
7FFE
3FFC
1FF8
07E0
ENDCHAR

STARTCHAR Utilde
ENCODING 221
SWIDTH 640 0
DWIDTH 21 0
BBX 17 30 2 0
BITMAP
1F8C00
3FFE00
3FFF00
18FC00
000000
000000
F80F80
F80F80
F80F80
F80F80
F80F80
F80F80
F80F80
F80F80
F80F80
F80F80
F80F80
F80F80
F80F80
F80F80
F80F80
F80F80
F80F80
F80F80
7C1F80
7E3F00
7FFF00
3FFE00
1FFC00
07F000
ENDCHAR

STARTCHAR Umacron
ENCODING 222
SWIDTH 640 0
DWIDTH 21 0
BBX 17 30 2 0
BITMAP
0FF800
0FF800
0FF800
0FF800
000000
000000
F80F80
F80F80
F80F80
F80F80
F80F80
F80F80
F80F80
F80F80
F80F80
F80F80
F80F80
F80F80
F80F80
F80F80
F80F80
F80F80
F80F80
F80F80
7C1F00
7E3F00
7FFF00
3FFE00
1FFC00
07F000
ENDCHAR

STARTCHAR germandbls
ENCODING 223
SWIDTH 600 0
DWIDTH 20 0
BBX 16 25 2 0
BITMAP
07E0
1FF8
3FFC
7FFE
7C3E
F81E
F81E
F01E
F03E
F1FC
F1D8
F1E0
F1F8
F07E
F01E
F01F
F00F
F00F
F00F
F01F
F23F
F3FE
F3FE
F3FC
F3F0
ENDCHAR

STARTCHAR amacron
ENCODING 224
SWIDTH 660 0
DWIDTH 22 0
BBX 18 24 2 0
BITMAP
0FFC00
0FFC00
0FFC00
000000
000000
000000
07E3C0
1FFBC0
3FFFC0
7FFFC0
7E1FC0
F807C0
F807C0
F003C0
F003C0
F003C0
F003C0
F807C0
FC07C0
7E1FC0
3FFFC0
3FFFC0
0FFBC0
03E3C0
ENDCHAR

STARTCHAR aacute
ENCODING 225
SWIDTH 660 0
DWIDTH 22 0
BBX 18 27 2 0
BITMAP
007E00
007C00
00F800
01F000
01E000
03C000
000000
000000
000000
07E3C0
1FFBC0
3FFFC0
7FFFC0
7E1FC0
F807C0
F807C0
F003C0
F003C0
F003C0
F003C0
F807C0
FC07C0
7E1FC0
3FFFC0
3FFFC0
0FFBC0
03E3C0
ENDCHAR

STARTCHAR acircumflex
ENCODING 226
SWIDTH 660 0
DWIDTH 22 0
BBX 18 25 2 0
BITMAP
03F000
07F800
0FBC00
3F3F00
000000
000000
000000
07E3C0
1FFBC0
3FFFC0
7FFFC0
7E1FC0
F807C0
F807C0
F003C0
F003C0
F003C0
F003C0
F807C0
FC07C0
7E1FC0
3FFFC0
3FFFC0
0FFBC0
03E3C0
ENDCHAR

STARTCHAR atilde
ENCODING 227
SWIDTH 660 0
DWIDTH 22 0
BBX 18 25 2 0
BITMAP
0FC400
3FFE00
1FFF00
08FC00
000000
000000
000000
07E3C0
1FFBC0
3FFFC0
7FFFC0
7E1FC0
F807C0
F807C0
F003C0
F003C0
F003C0
F003C0
F807C0
FC07C0
7E1FC0
3FFFC0
3FFFC0
0FFBC0
03E3C0
ENDCHAR

STARTCHAR adieresis
ENCODING 228
SWIDTH 660 0
DWIDTH 22 0
BBX 18 26 2 0
BITMAP
0E1C00
1F3E00
1F3E00
1F3E00
0E1C00
000000
000000
000000
07E3C0
1FFBC0
3FFFC0
7FFFC0
7E1FC0
F807C0
F807C0
F003C0
F003C0
F003C0
F003C0
F807C0
FC07C0
7E1FC0
3FFFC0
3FFFC0
0FFBC0
03E3C0
ENDCHAR

STARTCHAR aring
ENCODING 229
SWIDTH 660 0
DWIDTH 22 0
BBX 18 28 2 0
BITMAP
03E000
03F000
073000
063000
077000
03F000
01E000
000000
000000
000000
07E3C0
1FF3C0
3FFFC0
7FFFC0
7C1FC0
F80FC0
F807C0
F003C0
F003C0
F003C0
F003C0
F807C0
F80FC0
7C1FC0
3FFFC0
3FFFC0
1FF3C0
07E3C0
ENDCHAR

STARTCHAR ae
ENCODING 230
SWIDTH 1080 0
DWIDTH 36 0
BBX 32 18 2 0
BITMAP
07E3CFC0
0FFBDFF0
3FFDFFF8
3FFFFFFC
7E1FF03E
F807E01F
F807E00F
F003FFFF
F003FFFF
F003FFFF
F003C000
F807E000
7C07E010
7E1FF83C
3FFFFFFE
3FFDFFFC
0FFBDFF0
03E3CFC0
ENDCHAR

STARTCHAR iogonek
ENCODING 231
SWIDTH 240 0
DWIDTH 8 0
BBX 6 31 1 -6
BITMAP
70
78
FC
FC
78
30
00
78
78
78
78
78
78
78
78
78
78
78
78
78
78
78
78
78
58
30
60
E0
F4
FC
7C
ENDCHAR

STARTCHAR ccaron
ENCODING 232
SWIDTH 640 0
DWIDTH 21 0
BBX 18 25 2 0
BITMAP
3F3E00
0FB800
07F000
03E000
000000
000000
000000
03F800
0FFE00
1FFF80
3FFFC0
7E0F80
7C0200
F80000
F00000
F00000
F00000
F00000
F80000
7C0200
7E0F00
3FFFC0
1FFF80
0FFE00
03F800
ENDCHAR

STARTCHAR eacute
ENCODING 233
SWIDTH 640 0
DWIDTH 21 0
BBX 18 27 2 0
BITMAP
003E00
007C00
00F800
00F000
01E000
03C000
000000
000000
000000
03F000
0FFC00
1FFE00
3FFF00
7C0F80
7807C0
F003C0
FFFFC0
FFFFC0
FFFFC0
F00000
F80000
780400
7E0F00
3FFF80
1FFF00
0FFE00
03F000
ENDCHAR

STARTCHAR eogonek
ENCODING 234
SWIDTH 640 0
DWIDTH 21 0
BBX 18 24 1 -6
BITMAP
03F000
0FFC00
1FFF00
3FFF00
7E0F80
7807C0
F803C0
FFFFC0
FFFFC0
FFFFC0
F00000
F80000
780400
7E0F00
3FFF80
1FFF00
0FFE00
03F800
00E000
01C000
01C000
01E800
01F800
00F800
ENDCHAR

STARTCHAR edieresis
ENCODING 235
SWIDTH 640 0
DWIDTH 21 0
BBX 18 26 2 0
BITMAP
0E1C00
1F3E00
1F3E00
1F3E00
0E1C00
000000
000000
000000
03F000
0FFC00
1FFE00
3FFF00
7C0F80
7807C0
F003C0
FFFFC0
FFFFC0
FFFFC0
F00000
F80000
780400
7E0F00
3FFF80
1FFF00
0FFE00
03F000
ENDCHAR

STARTCHAR edotaccent
ENCODING 236
SWIDTH 640 0
DWIDTH 21 0
BBX 18 26 1 0
BITMAP
00E000
01E000
01F000
01E000
00E000
000000
000000
000000
03F000
0FFE00
1FFF00
3FFF80
7E0F80
7807C0
F003C0
FFFFC0
FFFFC0
FFFFC0
F00000
F80000
780400
7E0F00
3FFF80
1FFF00
0FFE00
03F800
ENDCHAR

STARTCHAR iacute
ENCODING 237
SWIDTH 240 0
DWIDTH 8 0
BBX 9 27 1 0
BITMAP
1F80
1E00
3C00
7800
7000
E000
0000
0000
0000
7800
7800
7800
7800
7800
7800
7800
7800
7800
7800
7800
7800
7800
7800
7800
7800
7800
7800
ENDCHAR

STARTCHAR icircumflex
ENCODING 238
SWIDTH 240 0
DWIDTH 8 0
BBX 14 26 -3 0
BITMAP
0780
0FC0
1FE0
3EF0
FCFC
0000
0000
0000
0780
0780
0780
0780
0780
0780
0780
0780
0780
0780
0780
0780
0780
0780
0780
0780
0780
0780
ENDCHAR

STARTCHAR imacron
ENCODING 239
SWIDTH 240 0
DWIDTH 8 0
BBX 10 24 -1 0
BITMAP
FFC0
FFC0
FFC0
0000
0000
0000
1E00
1E00
1E00
1E00
1E00
1E00
1E00
1E00
1E00
1E00
1E00
1E00
1E00
1E00
1E00
1E00
1E00
1E00
ENDCHAR

STARTCHAR dcroat
ENCODING 240
SWIDTH 660 0
DWIDTH 22 0
BBX 20 25 1 0
BITMAP
0003C0
0003C0
01FFF0
01FFF0
01FFF0
0003C0
0003C0
07E3C0
1FFBC0
3FFFC0
7FFFC0
7E1FC0
FC07C0
F807C0
F003C0
F003C0
F003C0
F803C0
F807C0
FC07C0
7E1FC0
3FFFC0
3FFFC0
0FFBC0
03E3C0
ENDCHAR

STARTCHAR ncommaaccent
ENCODING 241
SWIDTH 600 0
DWIDTH 20 0
BBX 15 25 2 -7
BITMAP
F1F0
F7F8
FFFC
FFFE
FC3E
F83E
F81E
F01E
F01E
F01E
F01E
F01E
F01E
F01E
F01E
F01E
F01E
F01E
0000
0000
0380
0380
0380
0180
0100
ENDCHAR

STARTCHAR omacron
ENCODING 242
SWIDTH 640 0
DWIDTH 21 0
BBX 18 24 2 0
BITMAP
0FFC00
0FFC00
0FFC00
000000
000000
000000
03F000
0FFC00
1FFE00
3FFF00
7E1F80
7C07C0
F807C0
F003C0
F003C0
F003C0
F003C0
F807C0
7C0F80
7E1F80
3FFF00
1FFE00
0FFC00
03F000
ENDCHAR

STARTCHAR kcommaaccent
ENCODING 243
SWIDTH 580 0
DWIDTH 19 0
BBX 17 32 2 -7
BITMAP
F00000
F00000
F00000
F00000
F00000
F00000
F00000
F01F80
F03E00
F07E00
F0FC00
F1F800
F3F000
F7E000
FFC000
FF8000
FFC000
F7E000
F3F000
F1F800
F0F800
F07C00
F03E00
F01F00
F00F80
000000
000000
038000
038000
038000
038000
010000
ENDCHAR

STARTCHAR ocircumflex
ENCODING 244
SWIDTH 640 0
DWIDTH 21 0
BBX 18 25 2 0
BITMAP
03F000
07F800
0FBC00
3F3F00
000000
000000
000000
03F000
0FFC00
1FFE00
3FFF00
7E1F80
7C07C0
F807C0
F003C0
F003C0
F003C0
F003C0
F807C0
7C0F80
7E1F80
3FFF00
1FFE00
0FFC00
03F000
ENDCHAR

STARTCHAR otilde
ENCODING 245
SWIDTH 640 0
DWIDTH 21 0
BBX 18 25 2 0
BITMAP
0FC400
3FFE00
1FFF00
087C00
000000
000000
000000
03F000
0FFC00
1FFE00
3FFF00
7E1F80
7C07C0
F807C0
F003C0
F003C0
F003C0
F003C0
F807C0
7C0F80
7E1F80
3FFF00
1FFE00
0FFC00
03F000
ENDCHAR

STARTCHAR odieresis
ENCODING 246
SWIDTH 640 0
DWIDTH 21 0
BBX 18 26 2 0
BITMAP
0E1C00
1F3E00
1F3E00
1F3E00
0E1C00
000000
000000
000000
03F000
0FFC00
1FFE00
3FFF00
7E1F80
7C07C0
F807C0
F003C0
F003C0
F003C0
F003C0
F807C0
7C0F80
7E1F80
3FFF00
1FFE00
0FFC00
03F000
ENDCHAR

STARTCHAR divide
ENCODING 247
SWIDTH 600 0
DWIDTH 20 0
BBX 17 19 1 3
BITMAP
03E000
03E000
03E000
03E000
03E000
000000
000000
000000
FFFF80
FFFF80
FFFF80
FFFF80
000000
000000
03E000
03E000
03E000
03E000
03E000
ENDCHAR

STARTCHAR oslash
ENCODING 248
SWIDTH 660 0
DWIDTH 22 0
BBX 18 20 2 -1
BITMAP
000080
03F1C0
0FFDC0
1FFF80
3FFF00
7E1F80
FC1FC0
F83FC0
F073C0
F0F3C0
F1E3C0
F3C3C0
FB87C0
7F0FC0
7E1F80
3FFF00
3FFE00
7FFC00
E3F000
400000
ENDCHAR

STARTCHAR uogonek
ENCODING 249
SWIDTH 600 0
DWIDTH 20 0
BBX 15 24 2 -6
BITMAP
F01E
F01E
F01E
F01E
F01E
F01E
F01E
F01E
F01E
F01E
F01E
F81E
F83E
FC7E
7FFC
3FF8
1FF0
0FE0
0380
0300
0700
07A0
07E0
03E0
ENDCHAR

STARTCHAR uacute
ENCODING 250
SWIDTH 600 0
DWIDTH 20 0
BBX 15 27 2 0
BITMAP
00FC
01F0
01E0
03C0
0380
0700
0000
0000
0000
F81E
F81E
F81E
F81E
F81E
F81E
F81E
F81E
F81E
F81E
F81E
F81E
783E
7C7E
7FFC
3FF8
1FF0
07E0
ENDCHAR

STARTCHAR ucircumflex
ENCODING 251
SWIDTH 600 0
DWIDTH 20 0
BBX 15 26 2 0
BITMAP
03C0
07E0
0FF0
1EF8
7C7C
0000
0000
0000
F81E
F81E
F81E
F81E
F81E
F81E
F81E
F81E
F81E
F81E
F81E
F81E
783E
7C7E
7FFC
3FF8
1FF0
07E0
ENDCHAR

STARTCHAR udieresis
ENCODING 252
SWIDTH 600 0
DWIDTH 20 0
BBX 15 26 2 0
BITMAP
1C38
3E7C
3E7C
3E7C
1C38
0000
0000
0000
F81E
F81E
F81E
F81E
F81E
F81E
F81E
F81E
F81E
F81E
F81E
F81E
783E
7C7E
7FFC
3FF8
1FF0
07E0
ENDCHAR

STARTCHAR utilde
ENCODING 253
SWIDTH 600 0
DWIDTH 20 0
BBX 15 25 2 0
BITMAP
3F18
7FFC
3FFC
11F8
0000
0000
0000
F81E
F81E
F81E
F81E
F81E
F81E
F81E
F81E
F81E
F81E
F81E
F81E
783E
7C7E
7FFC
3FF8
1FF0
07E0
ENDCHAR

STARTCHAR umacron
ENCODING 254
SWIDTH 600 0
DWIDTH 20 0
BBX 15 24 2 0
BITMAP
1FF0
1FF0
1FF0
0000
0000
0000
F81E
F81E
F81E
F81E
F81E
F81E
F81E
F81E
F81E
F81E
F81E
F81E
783E
7C7E
7FFC
3FF8
1FF0
07E0
ENDCHAR

STARTCHAR dotaccent
ENCODING 255
SWIDTH 280 0
DWIDTH 9 0
BBX 5 5 2 21
BITMAP
70
F8
F8
F8
70
ENDCHAR

ENDFONT
