STARTFONT 2.1
FONT -Monotype-Century Schoolbook-Regular-I-Normal--19-140-100-100-P-101-iso8859-2
SIZE 14 100 100
FONTBOUNDINGBOX 29 22 -9 -4

STARTPROPERTIES 24
FOUNDRY "Monotype"
FAMILY_NAME "Century Schoolbook"
WEIGHT_NAME "Regular"
SLANT "I"
SETWIDTH_NAME "Normal"
ADD_STYLE_NAME ""
PIXEL_SIZE 19
POINT_SIZE 140
RESOLUTION_X 100
RESOLUTION_Y 100
SPACING "P"
AVERAGE_WIDTH 101
CHARSET_REGISTRY "iso8859"
CHARSET_ENCODING "2"
FACE_NAME "Century Schoolbook it ISO Latin2"
_DEC_DEVICE_FONTNAMES "PS=centuryschoolbook-italic-lat2"
COPYRIGHT "Copyright (c) 1994 Monotype Typography Ltd."
CAP_HEIGHT 16
X_HEIGHT 10
WEIGHT 10
QUAD_WIDTH 11
DEFAULT_CHAR 160
FONT_DESCENT 4
FONT_ASCENT 19
ENDPROPERTIES

CHARS 191

STARTCHAR space
ENCODING 32
SWIDTH 278 0
DWIDTH 5 0
BBX 0 0 0 0
BITMAP
ENDCHAR

STARTCHAR exclam
ENCODING 33
SWIDTH 333 0
DWIDTH 6 0
BBX 5 14 1 0
BITMAP
18
18
18
30
30
30
60
60
60
40
00
00
C0
C0
ENDCHAR

STARTCHAR quotedbl
ENCODING 34
SWIDTH 400 0
DWIDTH 8 0
BBX 5 5 3 9
BITMAP
48
D8
D8
90
90
ENDCHAR

STARTCHAR numbersign
ENCODING 35
SWIDTH 606 0
DWIDTH 12 0
BBX 11 14 1 0
BITMAP
0880
0880
0880
0880
7FE0
1100
1100
1100
1100
FFC0
2200
2200
2200
2200
ENDCHAR

STARTCHAR dollar
ENCODING 36
SWIDTH 556 0
DWIDTH 11 0
BBX 9 17 2 -2
BITMAP
0200
0F00
1480
3580
3500
3400
3400
3C00
1C00
0E00
1600
5600
D600
9400
7800
2000
2000
ENDCHAR

STARTCHAR percent
ENCODING 37
SWIDTH 833 0
DWIDTH 16 0
BBX 13 14 2 0
BITMAP
3020
5840
C840
8880
8900
9900
D230
6458
04C8
0888
1088
1098
20D0
4060
ENDCHAR

STARTCHAR ampersand
ENCODING 38
SWIDTH 852 0
DWIDTH 16 0
BBX 14 14 1 0
BITMAP
03C0
0660
0C60
0C60
0CC0
0F00
3E3C
6618
C610
C320
C340
C184
63C8
3CF0
ENDCHAR

STARTCHAR quoteright
ENCODING 39
SWIDTH 204 0
DWIDTH 4 0
BBX 3 5 1 9
BITMAP
60
60
20
40
80
ENDCHAR

STARTCHAR parenleft
ENCODING 40
SWIDTH 333 0
DWIDTH 6 0
BBX 8 18 0 -4
BITMAP
03
06
0C
18
30
30
60
60
C0
C0
C0
C0
C0
C0
60
60
20
10
ENDCHAR

STARTCHAR parenright
ENCODING 41
SWIDTH 333 0
DWIDTH 6 0
BBX 8 18 -2 -4
BITMAP
08
04
06
06
03
03
03
03
03
03
06
06
0C
0C
18
30
60
C0
ENDCHAR

STARTCHAR asterisk
ENCODING 42
SWIDTH 500 0
DWIDTH 10 0
BBX 8 7 3 7
BITMAP
18
18
CB
FF
18
7E
E7
ENDCHAR

STARTCHAR plus
ENCODING 43
SWIDTH 606 0
DWIDTH 12 0
BBX 11 11 1 1
BITMAP
0400
0400
0400
0400
0400
FFE0
0400
0400
0400
0400
0400
ENDCHAR

STARTCHAR comma
ENCODING 44
SWIDTH 278 0
DWIDTH 5 0
BBX 3 5 0 -3
BITMAP
60
60
20
40
80
ENDCHAR

STARTCHAR minus
ENCODING 45
SWIDTH 606 0
DWIDTH 12 0
BBX 10 1 2 6
BITMAP
FFC0
ENDCHAR

STARTCHAR period
ENCODING 46
SWIDTH 278 0
DWIDTH 5 0
BBX 2 2 1 0
BITMAP
C0
C0
ENDCHAR

STARTCHAR slash
ENCODING 47
SWIDTH 606 0
DWIDTH 12 0
BBX 10 14 2 0
BITMAP
0040
0080
0180
0100
0200
0600
0400
0800
1800
1000
2000
6000
4000
8000
ENDCHAR

STARTCHAR zero
ENCODING 48
SWIDTH 556 0
DWIDTH 11 0
BBX 9 14 2 0
BITMAP
0E00
1100
3180
6180
6180
C180
C180
C180
C180
C300
C300
C600
4400
3800
ENDCHAR

STARTCHAR one
ENCODING 49
SWIDTH 556 0
DWIDTH 11 0
BBX 7 14 2 0
BITMAP
06
1E
06
0C
0C
0C
18
18
18
18
30
30
30
FC
ENDCHAR

STARTCHAR two
ENCODING 50
SWIDTH 556 0
DWIDTH 11 0
BBX 10 14 1 0
BITMAP
0F00
1180
30C0
20C0
00C0
00C0
0180
0300
0600
0C00
1000
2080
7F80
FF00
ENDCHAR

STARTCHAR three
ENCODING 51
SWIDTH 556 0
DWIDTH 11 0
BBX 9 14 2 0
BITMAP
0E00
1100
3180
2180
0180
0300
3E00
0600
0300
4300
C300
8300
4600
3800
ENDCHAR

STARTCHAR four
ENCODING 52
SWIDTH 556 0
DWIDTH 11 0
BBX 10 14 1 0
BITMAP
0040
00C0
01C0
0380
0580
0980
1300
2300
4300
FF80
0600
0600
0600
1F80
ENDCHAR

STARTCHAR five
ENCODING 53
SWIDTH 556 0
DWIDTH 11 0
BBX 9 14 2 0
BITMAP
0F80
1F00
1000
3000
2000
7C00
4200
0300
0300
4300
C300
8200
8400
7800
ENDCHAR

STARTCHAR six
ENCODING 54
SWIDTH 556 0
DWIDTH 11 0
BBX 9 14 2 0
BITMAP
0700
0880
1180
3100
2000
6000
6E00
D300
E300
C300
C300
C300
4600
3C00
ENDCHAR

STARTCHAR seven
ENCODING 55
SWIDTH 556 0
DWIDTH 11 0
BBX 9 14 3 0
BITMAP
7F80
FF00
8200
0600
0400
0C00
1800
1800
3000
3000
6000
6000
6000
6000
ENDCHAR

STARTCHAR eight
ENCODING 56
SWIDTH 556 0
DWIDTH 11 0
BBX 9 14 2 0
BITMAP
0E00
1100
3180
3180
3180
3900
1E00
3600
4300
C300
C300
C300
4600
3800
ENDCHAR

STARTCHAR nine
ENCODING 57
SWIDTH 556 0
DWIDTH 11 0
BBX 9 14 1 0
BITMAP
1E00
3100
6180
6180
6180
6380
6580
3B00
0300
0200
4600
C400
8800
7000
ENDCHAR

STARTCHAR colon
ENCODING 58
SWIDTH 278 0
DWIDTH 5 0
BBX 4 9 1 0
BITMAP
30
30
00
00
00
00
00
C0
C0
ENDCHAR

STARTCHAR semicolon
ENCODING 59
SWIDTH 278 0
DWIDTH 5 0
BBX 5 12 0 -3
BITMAP
18
18
00
00
00
00
00
60
60
20
40
80
ENDCHAR

STARTCHAR less
ENCODING 60
SWIDTH 606 0
DWIDTH 12 0
BBX 10 9 2 2
BITMAP
00C0
0380
0E00
3800
E000
3800
0E00
0380
00C0
ENDCHAR

STARTCHAR equal
ENCODING 61
SWIDTH 606 0
DWIDTH 12 0
BBX 10 5 2 4
BITMAP
FFC0
0000
0000
0000
FFC0
ENDCHAR

STARTCHAR greater
ENCODING 62
SWIDTH 606 0
DWIDTH 12 0
BBX 10 9 2 2
BITMAP
C000
7000
1C00
0700
01C0
0700
1C00
7000
C000
ENDCHAR

STARTCHAR question
ENCODING 63
SWIDTH 444 0
DWIDTH 8 0
BBX 6 14 2 0
BITMAP
38
4C
8C
8C
18
38
70
C0
90
90
60
00
C0
C0
ENDCHAR

STARTCHAR at
ENCODING 64
SWIDTH 747 0
DWIDTH 14 0
BBX 13 15 0 -1
BITMAP
07C0
1820
2010
4348
44C8
8888
9988
9988
9910
9B20
4DC8
4008
2010
1860
0780
ENDCHAR

STARTCHAR A
ENCODING 65
SWIDTH 704 0
DWIDTH 13 0
BBX 14 14 -1 0
BITMAP
0010
0030
0070
0070
00B0
0130
0130
0230
0430
0FF0
0830
1030
2030
F8FC
ENDCHAR

STARTCHAR B
ENCODING 66
SWIDTH 722 0
DWIDTH 14 0
BBX 14 14 0 0
BITMAP
1FF8
060C
060C
060C
0C0C
0C18
0FF0
1830
1818
1818
3018
3018
3030
FFE0
ENDCHAR

STARTCHAR C
ENCODING 67
SWIDTH 722 0
DWIDTH 14 0
BBX 13 14 2 0
BITMAP
03C8
0C38
1818
3010
6010
6000
C000
C000
C000
C000
C000
4020
20C0
1F00
ENDCHAR

STARTCHAR D
ENCODING 68
SWIDTH 778 0
DWIDTH 15 0
BBX 15 14 0 0
BITMAP
1FF8
060C
0606
0606
0C06
0C06
0C06
1806
180C
180C
3018
3030
3060
FF80
ENDCHAR

STARTCHAR E
ENCODING 69
SWIDTH 722 0
DWIDTH 14 0
BBX 15 14 0 0
BITMAP
1FFE
0606
0604
0604
0C24
0C60
0FC0
18C0
1880
1888
3008
3010
3030
FFF0
ENDCHAR

STARTCHAR F
ENCODING 70
SWIDTH 667 0
DWIDTH 13 0
BBX 14 14 0 0
BITMAP
1FFC
060C
0608
0608
0C28
0C60
0FC0
18C0
1880
1880
1800
3000
3000
FC00
ENDCHAR

STARTCHAR G
ENCODING 71
SWIDTH 778 0
DWIDTH 15 0
BBX 13 14 2 0
BITMAP
03C8
0C38
1818
3010
6010
6000
C000
C1F8
C060
C060
C060
40C0
21C0
1E40
ENDCHAR

STARTCHAR H
ENCODING 72
SWIDTH 833 0
DWIDTH 16 0
BBX 17 14 0 0
BITMAP
1F9F80
060600
060600
060600
0C0C00
0C0C00
0FFC00
181800
181800
181800
303000
303000
303000
FCFC00
ENDCHAR

STARTCHAR I
ENCODING 73
SWIDTH 407 0
DWIDTH 8 0
BBX 9 14 0 0
BITMAP
1F80
0600
0600
0600
0C00
0C00
0C00
1800
1800
1800
3000
3000
3000
FC00
ENDCHAR

STARTCHAR J
ENCODING 74
SWIDTH 611 0
DWIDTH 12 0
BBX 12 14 1 0
BITMAP
03F0
00C0
00C0
00C0
0180
0180
0180
0300
0300
4300
C600
8600
8C00
7800
ENDCHAR

STARTCHAR K
ENCODING 75
SWIDTH 741 0
DWIDTH 14 0
BBX 15 14 0 0
BITMAP
1FBE
0608
0610
0620
0C40
0C80
0F80
1980
18C0
18C0
3060
3060
3030
FCFC
ENDCHAR

STARTCHAR L
ENCODING 76
SWIDTH 667 0
DWIDTH 13 0
BBX 12 14 0 0
BITMAP
1F80
0600
0600
0600
0C00
0C00
0C00
1800
1800
1810
3010
3020
3060
FFE0
ENDCHAR

STARTCHAR M
ENCODING 77
SWIDTH 944 0
DWIDTH 18 0
BBX 19 14 0 0
BITMAP
1F03E0
070380
070580
070580
0B0B00
0B0B00
0B1300
132600
132600
134600
134600
238C00
238C00
FB3F00
ENDCHAR

STARTCHAR N
ENCODING 78
SWIDTH 815 0
DWIDTH 15 0
BBX 17 14 0 0
BITMAP
1E0F80
060200
070200
070200
0B8400
098400
09C400
10C800
10E800
106800
107000
203000
203000
F81000
ENDCHAR

STARTCHAR O
ENCODING 79
SWIDTH 778 0
DWIDTH 15 0
BBX 13 14 2 0
BITMAP
03C0
0C20
1810
3018
6018
6018
C018
C018
C030
C030
C060
40C0
2180
1E00
ENDCHAR

STARTCHAR P
ENCODING 80
SWIDTH 667 0
DWIDTH 13 0
BBX 14 14 0 0
BITMAP
1FF0
0618
060C
060C
0C0C
0C18
0C30
1FC0
1800
1800
1800
3000
3000
FC00
ENDCHAR

STARTCHAR Q
ENCODING 81
SWIDTH 778 0
DWIDTH 15 0
BBX 13 18 2 -4
BITMAP
03C0
0C20
1810
3018
6018
6018
C018
C018
C018
CE30
D330
6360
23C0
1F80
0300
0320
0320
01C0
ENDCHAR

STARTCHAR R
ENCODING 82
SWIDTH 741 0
DWIDTH 14 0
BBX 14 14 0 0
BITMAP
1FF0
0618
060C
060C
0C0C
0C18
0FE0
18C0
1860
1860
3060
3060
3068
FC30
ENDCHAR

STARTCHAR S
ENCODING 83
SWIDTH 667 0
DWIDTH 13 0
BBX 12 14 1 0
BITMAP
0790
0850
1030
3030
3020
3820
3E00
1F80
07C0
41E0
40E0
C0C0
E080
9F00
ENDCHAR

STARTCHAR T
ENCODING 84
SWIDTH 685 0
DWIDTH 13 0
BBX 13 14 2 0
BITMAP
7FF8
6318
C310
8310
8610
0600
0600
0C00
0C00
0C00
1800
1800
1800
7E00
ENDCHAR

STARTCHAR U
ENCODING 85
SWIDTH 815 0
DWIDTH 15 0
BBX 15 14 2 0
BITMAP
FC3E
3008
3008
3008
6010
6010
6010
6020
C020
C020
C040
C040
6080
3F00
ENDCHAR

STARTCHAR V
ENCODING 86
SWIDTH 704 0
DWIDTH 13 0
BBX 14 14 2 0
BITMAP
FC7C
3010
3020
3020
3040
3080
3080
3100
3200
3200
3400
3800
3800
3000
ENDCHAR

STARTCHAR W
ENCODING 87
SWIDTH 926 0
DWIDTH 18 0
BBX 19 14 1 0
BITMAP
FDFBE0
306080
306080
30E100
30E100
316200
316200
326400
326400
346800
346800
387000
387000
306000
ENDCHAR

STARTCHAR X
ENCODING 88
SWIDTH 704 0
DWIDTH 13 0
BBX 15 14 0 0
BITMAP
3F7E
0C18
0C10
0620
0340
0380
0180
0180
02C0
04C0
0860
1030
3030
FCFC
ENDCHAR

STARTCHAR Y
ENCODING 89
SWIDTH 685 0
DWIDTH 13 0
BBX 13 14 2 0
BITMAP
FCF8
3020
3040
3080
1880
1900
1A00
0E00
0C00
0C00
1800
1800
1800
7E00
ENDCHAR

STARTCHAR Z
ENCODING 90
SWIDTH 667 0
DWIDTH 13 0
BBX 14 14 0 0
BITMAP
0FFC
0C18
1830
1060
10C0
0180
0180
0300
0600
0C10
1810
3030
6060
FFE0
ENDCHAR

STARTCHAR bracketleft
ENCODING 91
SWIDTH 333 0
DWIDTH 6 0
BBX 8 18 0 -4
BITMAP
0F
0C
0C
18
18
18
18
30
30
30
30
60
60
60
60
C0
C0
F0
ENDCHAR

STARTCHAR backslash
ENCODING 92
SWIDTH 606 0
DWIDTH 12 0
BBX 5 14 4 0
BITMAP
C0
C0
C0
60
60
60
60
30
30
30
30
18
18
18
ENDCHAR

STARTCHAR bracketright
ENCODING 93
SWIDTH 333 0
DWIDTH 6 0
BBX 8 18 -2 -4
BITMAP
0F
03
03
06
06
06
06
0C
0C
0C
0C
18
18
18
18
30
30
F0
ENDCHAR

STARTCHAR asciicircum
ENCODING 94
SWIDTH 606 0
DWIDTH 12 0
BBX 7 7 3 7
BITMAP
10
10
38
28
6C
44
82
ENDCHAR

STARTCHAR underscore
ENCODING 95
SWIDTH 500 0
DWIDTH 10 0
BBX 10 1 0 -2
BITMAP
FFC0
ENDCHAR

STARTCHAR quoteleft
ENCODING 96
SWIDTH 204 0
DWIDTH 4 0
BBX 3 5 3 9
BITMAP
20
40
80
C0
C0
ENDCHAR

STARTCHAR a
ENCODING 97
SWIDTH 574 0
DWIDTH 11 0
BBX 10 9 1 0
BITMAP
1CC0
3380
6180
6180
C300
C300
C640
CE80
7300
ENDCHAR

STARTCHAR b
ENCODING 98
SWIDTH 556 0
DWIDTH 10 0
BBX 9 14 1 0
BITMAP
7800
1800
1800
3000
3000
3700
6980
7180
6180
C180
C300
C300
4600
3800
ENDCHAR

STARTCHAR c
ENCODING 99
SWIDTH 444 0
DWIDTH 8 0
BBX 8 9 1 0
BITMAP
1E
33
62
60
C0
C0
C0
62
3C
ENDCHAR

STARTCHAR d
ENCODING 100
SWIDTH 611 0
DWIDTH 11 0
BBX 11 14 1 0
BITMAP
01E0
0060
0060
00C0
00C0
1EC0
3380
6180
6180
C300
C300
C340
4680
3B00
ENDCHAR

STARTCHAR e
ENCODING 101
SWIDTH 444 0
DWIDTH 9 0
BBX 8 9 1 0
BITMAP
1E
33
63
66
F8
C0
C2
44
38
ENDCHAR

STARTCHAR f
ENCODING 102
SWIDTH 333 0
DWIDTH 6 0
BBX 8 17 0 -3
BITMAP
03
05
0C
0C
18
7E
18
18
30
30
30
60
60
60
C0
C0
80
ENDCHAR

STARTCHAR g
ENCODING 103
SWIDTH 537 0
DWIDTH 10 0
BBX 11 14 0 -4
BITMAP
0060
0FA0
18C0
30C0
30C0
1180
3F00
4000
7F00
3F80
6180
C180
C300
7E00
ENDCHAR

STARTCHAR h
ENCODING 104
SWIDTH 611 0
DWIDTH 12 0
BBX 11 14 1 0
BITMAP
7800
1800
1800
3000
3000
3700
3980
7180
6180
6180
6300
C320
C340
C180
ENDCHAR

STARTCHAR i
ENCODING 105
SWIDTH 333 0
DWIDTH 6 0
BBX 5 14 1 0
BITMAP
18
18
00
00
00
F0
30
30
60
60
C0
C8
D0
60
ENDCHAR

STARTCHAR j
ENCODING 106
SWIDTH 315 0
DWIDTH 6 0
BBX 9 18 -3 -4
BITMAP
0180
0180
0000
0000
0000
0F00
0300
0300
0600
0600
0600
0600
0C00
0C00
0800
5800
D000
6000
ENDCHAR

STARTCHAR k
ENCODING 107
SWIDTH 556 0
DWIDTH 11 0
BBX 10 14 1 0
BITMAP
7800
1800
1800
1800
3000
3700
2980
7180
6300
6E00
6400
C640
C680
C300
ENDCHAR

STARTCHAR l
ENCODING 108
SWIDTH 333 0
DWIDTH 6 0
BBX 15 14 -9 0
BITMAP
001E
0006
0006
0006
000C
800C
000C
0018
0018
0018
0030
0032
0034
0018
ENDCHAR

STARTCHAR m
ENCODING 109
SWIDTH 889 0
DWIDTH 17 0
BBX 16 9 1 0
BITMAP
F738
38CC
318C
618C
618C
6318
C319
C31A
C30C
ENDCHAR

STARTCHAR n
ENCODING 110
SWIDTH 611 0
DWIDTH 12 0
BBX 11 9 1 0
BITMAP
F700
3980
3180
6180
6180
6300
C320
C340
C180
ENDCHAR

STARTCHAR o
ENCODING 111
SWIDTH 500 0
DWIDTH 10 0
BBX 9 9 1 0
BITMAP
0E00
3100
6180
6180
C180
C300
C300
4600
3800
ENDCHAR

STARTCHAR p
ENCODING 112
SWIDTH 574 0
DWIDTH 10 0
BBX 12 13 -2 -4
BITMAP
1EE0
0730
0630
0C30
0C30
0C60
1860
1CC0
1B80
1800
3000
3000
FC00
ENDCHAR

STARTCHAR q
ENCODING 113
SWIDTH 556 0
DWIDTH 10 0
BBX 9 13 1 -4
BITMAP
1E80
7180
6180
C300
C300
C300
C600
6600
3E00
0600
0C00
0C00
3F00
ENDCHAR

STARTCHAR r
ENCODING 114
SWIDTH 444 0
DWIDTH 8 0
BBX 8 9 1 0
BITMAP
EE
3B
31
60
60
60
C0
C0
C0
ENDCHAR

STARTCHAR s
ENCODING 115
SWIDTH 444 0
DWIDTH 8 0
BBX 8 9 0 0
BITMAP
1E
33
32
38
1C
0E
46
C6
7C
ENDCHAR

STARTCHAR t
ENCODING 116
SWIDTH 352 0
DWIDTH 7 0
BBX 6 13 2 0
BITMAP
10
30
30
30
FC
60
60
60
C0
C0
C8
D0
60
ENDCHAR

STARTCHAR u
ENCODING 117
SWIDTH 611 0
DWIDTH 12 0
BBX 11 9 1 0
BITMAP
F0C0
30C0
30C0
3180
6180
6180
6320
6740
3B80
ENDCHAR

STARTCHAR v
ENCODING 118
SWIDTH 519 0
DWIDTH 11 0
BBX 9 9 1 0
BITMAP
F100
3180
3080
3080
6080
6100
6100
6200
3C00
ENDCHAR

STARTCHAR w
ENCODING 119
SWIDTH 778 0
DWIDTH 16 0
BBX 14 9 1 0
BITMAP
F188
318C
3184
3184
6304
6308
6308
6590
38E0
ENDCHAR

STARTCHAR x
ENCODING 120
SWIDTH 500 0
DWIDTH 10 0
BBX 11 9 0 0
BITMAP
18C0
2D60
0D00
0600
0C00
0C00
1600
D680
6300
ENDCHAR

STARTCHAR y
ENCODING 121
SWIDTH 500 0
DWIDTH 10 0
BBX 10 13 -1 -4
BITMAP
1880
2CC0
0C40
0C40
0680
0680
0700
0600
0600
4400
C800
9000
6000
ENDCHAR

STARTCHAR z
ENCODING 122
SWIDTH 463 0
DWIDTH 9 0
BBX 9 9 0 0
BITMAP
1C80
3F80
4300
0600
1C00
3000
6100
FE00
9C00
ENDCHAR

STARTCHAR braceleft
ENCODING 123
SWIDTH 333 0
DWIDTH 6 0
BBX 8 18 0 -4
BITMAP
03
04
08
18
18
18
18
30
C0
20
20
60
60
C0
C0
C0
40
30
ENDCHAR

STARTCHAR bar
ENCODING 124
SWIDTH 606 0
DWIDTH 12 0
BBX 2 18 5 -4
BITMAP
C0
C0
C0
C0
C0
C0
C0
C0
C0
C0
C0
C0
C0
C0
C0
C0
C0
C0
ENDCHAR

STARTCHAR braceright
ENCODING 125
SWIDTH 333 0
DWIDTH 6 0
BBX 8 18 -2 -4
BITMAP
0C
02
03
03
03
06
06
04
04
03
0C
18
18
18
18
10
20
C0
ENDCHAR

STARTCHAR asciitilde
ENCODING 126
SWIDTH 606 0
DWIDTH 12 0
BBX 10 3 1 5
BITMAP
7840
9E40
8780
ENDCHAR

STARTCHAR space
ENCODING 160
SWIDTH 278 0
DWIDTH 6 0
BBX 0 0 0 0
BITMAP
ENDCHAR

STARTCHAR Aogonek
ENCODING 161
SWIDTH 704 0
DWIDTH 13 0
BBX 14 16 -1 -2
BITMAP
0010
0030
0070
0070
00B0
0130
0130
0230
0430
0FF0
0830
1030
2030
F8FC
0030
001C
ENDCHAR

STARTCHAR breve
ENCODING 162
SWIDTH 333 0
DWIDTH 6 0
BBX 6 3 1 10
BITMAP
84
78
30
ENDCHAR

STARTCHAR Lslash
ENCODING 163
SWIDTH 667 0
DWIDTH 13 0
BBX 12 14 0 0
BITMAP
1F80
0600
0640
0680
0D00
0E00
0C00
1800
3800
5810
B010
3020
3060
FFE0
ENDCHAR

STARTCHAR currency
ENCODING 164
SWIDTH 606 0
DWIDTH 12 0
BBX 8 8 2 2
BITMAP
BD
66
C3
81
81
C3
66
BD
ENDCHAR

STARTCHAR Lcaron
ENCODING 165
SWIDTH 667 0
DWIDTH 13 0
BBX 13 14 0 0
BITMAP
1F98
0618
0608
0610
0C20
0C00
0C00
1800
1800
1810
3010
3020
3060
FFE0
ENDCHAR

STARTCHAR Sacute
ENCODING 166
SWIDTH 667 0
DWIDTH 13 0
BBX 12 17 1 0
BITMAP
00C0
0300
0000
0790
0850
1030
3030
3020
3820
3E00
1F80
07C0
41E0
40E0
C0C0
E080
9F00
ENDCHAR

STARTCHAR section
ENCODING 167
SWIDTH 500 0
DWIDTH 10 0
BBX 10 18 0 -4
BITMAP
0380
04C0
0CC0
0C00
0C00
1E00
1700
2300
2100
2100
3100
3A00
1E00
0C00
0C00
CC00
C800
7000
ENDCHAR

STARTCHAR dieresis
ENCODING 168
SWIDTH 333 0
DWIDTH 6 0
BBX 6 2 1 10
BITMAP
CC
CC
ENDCHAR

STARTCHAR Scaron
ENCODING 169
SWIDTH 667 0
DWIDTH 13 0
BBX 12 18 1 0
BITMAP
0440
0380
0100
0000
0790
0850
1030
3030
3020
3820
3E00
1F80
07C0
41E0
40E0
C0C0
E080
9F00
ENDCHAR

STARTCHAR Scommaaccent
ENCODING 170
SWIDTH 667 0
DWIDTH 13 0
BBX 12 18 1 -4
BITMAP
0790
0850
1030
3030
3020
3820
3E00
1F80
07C0
41E0
40E0
C0C0
E080
9F00
0000
0C00
0C00
1800
ENDCHAR

STARTCHAR Tcaron
ENCODING 171
SWIDTH 685 0
DWIDTH 13 0
BBX 13 18 2 0
BITMAP
0440
0380
0100
0000
7FF8
6318
C310
8310
8610
0600
0600
0C00
0C00
0C00
1800
1800
1800
7E00
ENDCHAR

STARTCHAR Zacute
ENCODING 172
SWIDTH 667 0
DWIDTH 13 0
BBX 14 17 0 0
BITMAP
0030
00C0
0000
0FFC
0C18
1830
1060
10C0
0180
0180
0300
0600
0C10
1810
3030
6060
FFE0
ENDCHAR

STARTCHAR hyphen
ENCODING 173
SWIDTH 333 0
DWIDTH 6 0
BBX 4 1 1 4
BITMAP
F0
ENDCHAR

STARTCHAR Zcaron
ENCODING 174
SWIDTH 667 0
DWIDTH 13 0
BBX 14 18 0 0
BITMAP
0110
00E0
0040
0000
0FFC
0C18
1830
1060
10C0
0180
0180
0300
0600
0C10
1810
3030
6060
FFE0
ENDCHAR

STARTCHAR Zdotaccent
ENCODING 175
SWIDTH 667 0
DWIDTH 13 0
BBX 14 17 0 0
BITMAP
00C0
00C0
0000
0FFC
0C18
1830
1060
10C0
0180
0180
0300
0600
0C10
1810
3030
6060
FFE0
ENDCHAR

STARTCHAR degree
ENCODING 176
SWIDTH 400 0
DWIDTH 8 0
BBX 6 6 2 8
BITMAP
78
CC
84
84
CC
78
ENDCHAR

STARTCHAR aogonek
ENCODING 177
SWIDTH 574 0
DWIDTH 11 0
BBX 10 11 1 -2
BITMAP
1CC0
3380
6180
6180
C300
C300
C640
CE80
7300
0300
01C0
ENDCHAR

STARTCHAR ogonek
ENCODING 178
SWIDTH 333 0
DWIDTH 6 0
BBX 4 2 1 -2
BITMAP
C0
70
ENDCHAR

STARTCHAR lslash
ENCODING 179
SWIDTH 333 0
DWIDTH 6 0
BBX 7 14 0 0
BITMAP
3C
0C
0C
0C
18
1A
1C
30
70
B0
60
64
68
30
ENDCHAR

STARTCHAR acute
ENCODING 180
SWIDTH 333 0
DWIDTH 6 0
BBX 4 2 3 10
BITMAP
30
C0
ENDCHAR

STARTCHAR lcaron
ENCODING 181
SWIDTH 380 0
DWIDTH 6 0
BBX 8 14 1 0
BITMAP
7B
1B
19
1A
34
30
30
60
60
60
C0
C8
D0
60
ENDCHAR

STARTCHAR sacute
ENCODING 182
SWIDTH 444 0
DWIDTH 8 0
BBX 8 12 0 0
BITMAP
03
0C
00
1E
33
32
38
1C
0E
46
C6
7C
ENDCHAR

STARTCHAR caron
ENCODING 183
SWIDTH 333 0
DWIDTH 6 0
BBX 5 3 2 10
BITMAP
88
70
20
ENDCHAR

STARTCHAR commaaccent
ENCODING 184
SWIDTH 333 0
DWIDTH 6 0
BBX 3 3 1 -4
BITMAP
60
60
C0
ENDCHAR

STARTCHAR scaron
ENCODING 185
SWIDTH 444 0
DWIDTH 8 0
BBX 8 13 0 0
BITMAP
11
0E
04
00
1E
33
32
38
1C
0E
46
C6
7C
ENDCHAR

STARTCHAR scommaaccent
ENCODING 186
SWIDTH 444 0
DWIDTH 8 0
BBX 8 13 0 -4
BITMAP
1E
33
32
38
1C
0E
46
C6
7C
00
30
30
60
ENDCHAR

STARTCHAR tcaron
ENCODING 187
SWIDTH 427 0
DWIDTH 7 0
BBX 7 14 2 0
BITMAP
06
16
32
34
38
FC
60
60
60
C0
C0
C8
D0
60
ENDCHAR

STARTCHAR zacute
ENCODING 188
SWIDTH 463 0
DWIDTH 9 0
BBX 9 12 0 0
BITMAP
0180
0600
0000
1C80
3F80
4300
0600
1C00
3000
6100
FE00
9C00
ENDCHAR

STARTCHAR hungarumlaut
ENCODING 189
SWIDTH 333 0
DWIDTH 6 0
BBX 9 2 0 10
BITMAP
3180
C600
ENDCHAR

STARTCHAR zcaron
ENCODING 190
SWIDTH 463 0
DWIDTH 9 0
BBX 9 13 0 0
BITMAP
1100
0E00
0400
0000
1C80
3F80
4300
0600
1C00
3000
6100
FE00
9C00
ENDCHAR

STARTCHAR zdotaccent
ENCODING 191
SWIDTH 463 0
DWIDTH 9 0
BBX 9 12 0 0
BITMAP
0600
0600
0000
1C80
3F80
4300
0600
1C00
3000
6100
FE00
9C00
ENDCHAR

STARTCHAR Racute
ENCODING 192
SWIDTH 741 0
DWIDTH 14 0
BBX 14 17 0 0
BITMAP
0030
00C0
0000
1FF0
0618
060C
060C
0C0C
0C18
0FE0
18C0
1860
1860
3060
3060
3068
FC30
ENDCHAR

STARTCHAR Aacute
ENCODING 193
SWIDTH 704 0
DWIDTH 13 0
BBX 14 17 -1 0
BITMAP
000C
0030
0000
0010
0030
0070
0070
00B0
0130
0130
0230
0430
0FF0
0830
1030
2030
F8FC
ENDCHAR

STARTCHAR Acircumflex
ENCODING 194
SWIDTH 704 0
DWIDTH 13 0
BBX 15 18 -1 0
BITMAP
0008
001C
0022
0000
0010
0030
0070
0070
00B0
0130
0130
0230
0430
0FF0
0830
1030
2030
F8FC
ENDCHAR

STARTCHAR Abreve
ENCODING 195
SWIDTH 704 0
DWIDTH 13 0
BBX 15 18 -1 0
BITMAP
0042
003C
0018
0000
0010
0030
0070
0070
00B0
0130
0130
0230
0430
0FF0
0830
1030
2030
F8FC
ENDCHAR

STARTCHAR Adieresis
ENCODING 196
SWIDTH 704 0
DWIDTH 13 0
BBX 15 17 -1 0
BITMAP
0066
0066
0000
0010
0030
0070
0070
00B0
0130
0130
0230
0430
0FF0
0830
1030
2030
F8FC
ENDCHAR

STARTCHAR Lacute
ENCODING 197
SWIDTH 667 0
DWIDTH 13 0
BBX 12 17 0 0
BITMAP
00C0
0300
0000
1F80
0600
0600
0600
0C00
0C00
0C00
1800
1800
1810
3010
3020
3060
FFE0
ENDCHAR

STARTCHAR Cacute
ENCODING 198
SWIDTH 722 0
DWIDTH 14 0
BBX 13 17 2 0
BITMAP
0060
0180
0000
03C8
0C38
1818
3010
6010
6000
C000
C000
C000
C000
C000
4020
20C0
1F00
ENDCHAR

STARTCHAR Ccedilla
ENCODING 199
SWIDTH 722 0
DWIDTH 14 0
BBX 13 17 2 -3
BITMAP
03C8
0C38
1818
3010
6010
6000
C000
C000
C000
C000
C000
4020
20C0
1F00
0400
0200
0C00
ENDCHAR

STARTCHAR Ccaron
ENCODING 200
SWIDTH 722 0
DWIDTH 14 0
BBX 13 18 2 0
BITMAP
0220
01C0
0080
0000
03C8
0C38
1818
3010
6010
6000
C000
C000
C000
C000
C000
4020
20C0
1F00
ENDCHAR

STARTCHAR Eacute
ENCODING 201
SWIDTH 722 0
DWIDTH 14 0
BBX 15 17 0 0
BITMAP
0030
00C0
0000
1FFE
0606
0604
0604
0C24
0C60
0FC0
18C0
1880
1888
3008
3010
3030
FFF0
ENDCHAR

STARTCHAR Eogonek
ENCODING 202
SWIDTH 722 0
DWIDTH 14 0
BBX 15 16 0 -2
BITMAP
1FFE
0606
0604
0604
0C24
0C60
0FC0
18C0
1880
1888
3008
3010
3030
FFF0
0060
0038
ENDCHAR

STARTCHAR Edieresis
ENCODING 203
SWIDTH 722 0
DWIDTH 14 0
BBX 15 17 0 0
BITMAP
0198
0198
0000
1FFE
0606
0604
0604
0C24
0C60
0FC0
18C0
1880
1888
3008
3010
3030
FFF0
ENDCHAR

STARTCHAR Ecaron
ENCODING 204
SWIDTH 722 0
DWIDTH 14 0
BBX 15 18 0 0
BITMAP
0110
00E0
0040
0000
1FFE
0606
0604
0604
0C24
0C60
0FC0
18C0
1880
1888
3008
3010
3030
FFF0
ENDCHAR

STARTCHAR Iacute
ENCODING 205
SWIDTH 407 0
DWIDTH 8 0
BBX 9 17 0 0
BITMAP
0180
0600
0000
1F80
0600
0600
0600
0C00
0C00
0C00
1800
1800
1800
3000
3000
3000
FC00
ENDCHAR

STARTCHAR Icircumflex
ENCODING 206
SWIDTH 407 0
DWIDTH 8 0
BBX 10 18 0 0
BITMAP
0100
0380
0440
0000
1F80
0600
0600
0600
0C00
0C00
0C00
1800
1800
1800
3000
3000
3000
FC00
ENDCHAR

STARTCHAR Dcaron
ENCODING 207
SWIDTH 778 0
DWIDTH 15 0
BBX 15 18 0 0
BITMAP
0110
00E0
0040
0000
1FF8
060C
0606
0606
0C06
0C06
0C06
1806
180C
180C
3018
3030
3060
FF80
ENDCHAR

STARTCHAR Dcroat
ENCODING 208
SWIDTH 778 0
DWIDTH 15 0
BBX 15 14 0 0
BITMAP
1FF8
060C
0606
0606
0C06
0C06
7F86
1806
180C
180C
3018
3030
3060
FF80
ENDCHAR

STARTCHAR Nacute
ENCODING 209
SWIDTH 815 0
DWIDTH 15 0
BBX 17 17 0 0
BITMAP
001800
006000
000000
1E0F80
060200
070200
070200
0B8400
098400
09C400
10C800
10E800
106800
107000
203000
203000
F81000
ENDCHAR

STARTCHAR Ncaron
ENCODING 210
SWIDTH 815 0
DWIDTH 15 0
BBX 17 18 0 0
BITMAP
008800
007000
002000
000000
1E0F80
060200
070200
070200
0B8400
098400
09C400
10C800
10E800
106800
107000
203000
203000
F81000
ENDCHAR

STARTCHAR Oacute
ENCODING 211
SWIDTH 778 0
DWIDTH 15 0
BBX 13 17 2 0
BITMAP
0060
0180
0000
03C0
0C20
1810
3018
6018
6018
C018
C018
C030
C030
C060
40C0
2180
1E00
ENDCHAR

STARTCHAR Ocircumflex
ENCODING 212
SWIDTH 778 0
DWIDTH 15 0
BBX 13 18 2 0
BITMAP
0080
01C0
0220
0000
03C0
0C20
1810
3018
6018
6018
C018
C018
C030
C030
C060
40C0
2180
1E00
ENDCHAR

STARTCHAR Ohungarumlaut
ENCODING 213
SWIDTH 778 0
DWIDTH 15 0
BBX 13 17 2 0
BITMAP
0318
0C60
0000
03C0
0C20
1810
3018
6018
6018
C018
C018
C030
C030
C060
40C0
2180
1E00
ENDCHAR

STARTCHAR Odieresis
ENCODING 214
SWIDTH 778 0
DWIDTH 15 0
BBX 13 17 2 0
BITMAP
0330
0330
0000
03C0
0C20
1810
3018
6018
6018
C018
C018
C030
C030
C060
40C0
2180
1E00
ENDCHAR

STARTCHAR multiply
ENCODING 215
SWIDTH 606 0
DWIDTH 12 0
BBX 8 9 2 2
BITMAP
81
C3
66
3C
18
3C
66
C3
81
ENDCHAR

STARTCHAR Rcaron
ENCODING 216
SWIDTH 741 0
DWIDTH 14 0
BBX 14 18 0 0
BITMAP
0220
01C0
0080
0000
1FF0
0618
060C
060C
0C0C
0C18
0FE0
18C0
1860
1860
3060
3060
3068
FC30
ENDCHAR

STARTCHAR Uring
ENCODING 217
SWIDTH 815 0
DWIDTH 15 0
BBX 15 18 2 0
BITMAP
0180
0240
0180
0000
FC3E
3008
3008
3008
6010
6010
6010
6020
C020
C020
C040
C040
6080
3F00
ENDCHAR

STARTCHAR Uacute
ENCODING 218
SWIDTH 815 0
DWIDTH 15 0
BBX 15 17 2 0
BITMAP
00C0
0300
0000
FC3E
3008
3008
3008
6010
6010
6010
6020
C020
C020
C040
C040
6080
3F00
ENDCHAR

STARTCHAR Uhungarumlaut
ENCODING 219
SWIDTH 815 0
DWIDTH 15 0
BBX 15 17 2 0
BITMAP
0318
0C60
0000
FC3E
3008
3008
3008
6010
6010
6010
6020
C020
C020
C040
C040
6080
3F00
ENDCHAR

STARTCHAR Udieresis
ENCODING 220
SWIDTH 815 0
DWIDTH 15 0
BBX 15 17 2 0
BITMAP
0660
0660
0000
FC3E
3008
3008
3008
6010
6010
6010
6020
C020
C020
C040
C040
6080
3F00
ENDCHAR

STARTCHAR Yacute
ENCODING 221
SWIDTH 685 0
DWIDTH 13 0
BBX 13 17 2 0
BITMAP
00C0
0300
0000
FCF8
3020
3040
3080
1880
1900
1A00
0E00
0C00
0C00
1800
1800
1800
7E00
ENDCHAR

STARTCHAR Tcommaaccent
ENCODING 222
SWIDTH 685 0
DWIDTH 13 0
BBX 13 18 2 -4
BITMAP
7FF8
6318
C310
8310
8610
0600
0600
0C00
0C00
0C00
1800
1800
1800
7E00
0000
3000
3000
6000
ENDCHAR

STARTCHAR germandbls
ENCODING 223
SWIDTH 556 0
DWIDTH 11 0
BBX 12 17 -1 -3
BITMAP
01C0
0220
0630
0C30
0C60
18C0
1980
1840
3060
3060
3060
30C0
6980
6700
6000
C000
C000
ENDCHAR

STARTCHAR racute
ENCODING 224
SWIDTH 444 0
DWIDTH 8 0
BBX 8 12 1 0
BITMAP
0C
30
00
EE
3B
31
60
60
60
C0
C0
C0
ENDCHAR

STARTCHAR aacute
ENCODING 225
SWIDTH 574 0
DWIDTH 11 0
BBX 10 12 1 0
BITMAP
0180
0600
0000
1CC0
3380
6180
6180
C300
C300
C640
CE80
7300
ENDCHAR

STARTCHAR acircumflex
ENCODING 226
SWIDTH 574 0
DWIDTH 11 0
BBX 10 13 1 0
BITMAP
0200
0700
0880
0000
1CC0
3380
6180
6180
C300
C300
C640
CE80
7300
ENDCHAR

STARTCHAR abreve
ENCODING 227
SWIDTH 574 0
DWIDTH 11 0
BBX 10 13 1 0
BITMAP
1080
0F00
0600
0000
1CC0
3380
6180
6180
C300
C300
C640
CE80
7300
ENDCHAR

STARTCHAR adieresis
ENCODING 228
SWIDTH 574 0
DWIDTH 11 0
BBX 10 12 1 0
BITMAP
1980
1980
0000
1CC0
3380
6180
6180
C300
C300
C640
CE80
7300
ENDCHAR

STARTCHAR lacute
ENCODING 229
SWIDTH 333 0
DWIDTH 6 0
BBX 7 17 1 0
BITMAP
06
18
00
78
18
18
18
30
30
30
60
60
60
C0
C8
D0
60
ENDCHAR

STARTCHAR cacute
ENCODING 230
SWIDTH 444 0
DWIDTH 8 0
BBX 8 12 1 0
BITMAP
03
0C
00
1E
33
62
60
C0
C0
C0
62
3C
ENDCHAR

STARTCHAR ccedilla
ENCODING 231
SWIDTH 444 0
DWIDTH 8 0
BBX 8 12 1 -3
BITMAP
1E
33
62
60
C0
C0
C0
62
3C
10
08
30
ENDCHAR

STARTCHAR ccaron
ENCODING 232
SWIDTH 444 0
DWIDTH 8 0
BBX 8 13 1 0
BITMAP
11
0E
04
00
1E
33
62
60
C0
C0
C0
62
3C
ENDCHAR

STARTCHAR eacute
ENCODING 233
SWIDTH 444 0
DWIDTH 9 0
BBX 8 12 1 0
BITMAP
03
0C
00
1E
33
63
66
F8
C0
C2
44
38
ENDCHAR

STARTCHAR eogonek
ENCODING 234
SWIDTH 444 0
DWIDTH 9 0
BBX 8 11 1 -2
BITMAP
1E
33
63
66
F8
C0
C2
44
38
18
0E
ENDCHAR

STARTCHAR edieresis
ENCODING 235
SWIDTH 444 0
DWIDTH 9 0
BBX 8 12 1 0
BITMAP
33
33
00
1E
33
63
66
F8
C0
C2
44
38
ENDCHAR

STARTCHAR ecaron
ENCODING 236
SWIDTH 444 0
DWIDTH 9 0
BBX 8 13 1 0
BITMAP
11
0E
04
00
1E
33
63
66
F8
C0
C2
44
38
ENDCHAR

STARTCHAR iacute
ENCODING 237
SWIDTH 333 0
DWIDTH 6 0
BBX 6 12 1 0
BITMAP
0C
30
00
F0
30
30
60
60
C0
C8
D0
60
ENDCHAR

STARTCHAR icircumflex
ENCODING 238
SWIDTH 333 0
DWIDTH 6 0
BBX 6 13 1 0
BITMAP
10
38
44
00
F0
30
30
60
60
C0
C8
D0
60
ENDCHAR

STARTCHAR dcaron
ENCODING 239
SWIDTH 655 0
DWIDTH 11 0
BBX 14 14 1 0
BITMAP
01EC
006C
0064
00C8
00D0
1EC0
3380
6180
6180
C300
C300
C340
4680
3B00
ENDCHAR

STARTCHAR dcroat
ENCODING 240
SWIDTH 611 0
DWIDTH 11 0
BBX 12 14 1 0
BITMAP
01E0
0060
03F0
00C0
00C0
1EC0
3380
6180
6180
C300
C300
C340
4680
3B00
ENDCHAR

STARTCHAR nacute
ENCODING 241
SWIDTH 611 0
DWIDTH 12 0
BBX 11 12 1 0
BITMAP
0300
0C00
0000
F700
3980
3180
6180
6180
6300
C320
C340
C180
ENDCHAR

STARTCHAR ncaron
ENCODING 242
SWIDTH 611 0
DWIDTH 12 0
BBX 11 13 1 0
BITMAP
1100
0E00
0400
0000
F700
3980
3180
6180
6180
6300
C320
C340
C180
ENDCHAR

STARTCHAR oacute
ENCODING 243
SWIDTH 500 0
DWIDTH 10 0
BBX 9 12 1 0
BITMAP
0300
0C00
0000
0E00
3100
6180
6180
C180
C300
C300
4600
3800
ENDCHAR

STARTCHAR ocircumflex
ENCODING 244
SWIDTH 500 0
DWIDTH 10 0
BBX 9 13 1 0
BITMAP
0400
0E00
1100
0000
0E00
3100
6180
6180
C180
C300
C300
4600
3800
ENDCHAR

STARTCHAR ohungarumlaut
ENCODING 245
SWIDTH 500 0
DWIDTH 10 0
BBX 11 12 1 0
BITMAP
0C60
3180
0000
0E00
3100
6180
6180
C180
C300
C300
4600
3800
ENDCHAR

STARTCHAR odieresis
ENCODING 246
SWIDTH 500 0
DWIDTH 10 0
BBX 9 12 1 0
BITMAP
1980
1980
0000
0E00
3100
6180
6180
C180
C300
C300
4600
3800
ENDCHAR

STARTCHAR divide
ENCODING 247
SWIDTH 606 0
DWIDTH 12 0
BBX 10 9 2 2
BITMAP
0C00
0C00
0000
0000
FFC0
0000
0000
0C00
0C00
ENDCHAR

STARTCHAR rcaron
ENCODING 248
SWIDTH 444 0
DWIDTH 8 0
BBX 8 13 1 0
BITMAP
22
1C
08
00
EE
3B
31
60
60
60
C0
C0
C0
ENDCHAR

STARTCHAR uring
ENCODING 249
SWIDTH 611 0
DWIDTH 12 0
BBX 11 13 1 0
BITMAP
0600
0900
0600
0000
F0C0
30C0
30C0
3180
6180
6180
6320
6740
3B80
ENDCHAR

STARTCHAR uacute
ENCODING 250
SWIDTH 611 0
DWIDTH 12 0
BBX 11 12 1 0
BITMAP
0300
0C00
0000
F0C0
30C0
30C0
3180
6180
6180
6320
6740
3B80
ENDCHAR

STARTCHAR uhungarumlaut
ENCODING 251
SWIDTH 611 0
DWIDTH 12 0
BBX 11 12 1 0
BITMAP
0C60
3180
0000
F0C0
30C0
30C0
3180
6180
6180
6320
6740
3B80
ENDCHAR

STARTCHAR udieresis
ENCODING 252
SWIDTH 611 0
DWIDTH 12 0
BBX 11 12 1 0
BITMAP
1980
1980
0000
F0C0
30C0
30C0
3180
6180
6180
6320
6740
3B80
ENDCHAR

STARTCHAR yacute
ENCODING 253
SWIDTH 500 0
DWIDTH 10 0
BBX 10 16 -1 -4
BITMAP
0180
0600
0000
1880
2CC0
0C40
0C40
0680
0680
0700
0600
0600
4400
C800
9000
6000
ENDCHAR

STARTCHAR tcommaaccent
ENCODING 254
SWIDTH 352 0
DWIDTH 7 0
BBX 7 17 1 -4
BITMAP
08
18
18
18
7E
30
30
30
60
60
64
68
30
00
60
60
C0
ENDCHAR

STARTCHAR dotaccent
ENCODING 255
SWIDTH 333 0
DWIDTH 6 0
BBX 2 2 2 10
BITMAP
C0
C0
ENDCHAR

ENDFONT
