STARTFONT 2.1
FONT -Monotype-Nimrod-Bold-R-Normal--19-140-100-100-P-114-iso8859-5
SIZE 14 100 100
FONTBOUNDINGBOX 23 22 -1 -4

STARTPROPERTIES 24
FOUNDRY "Monotype"
FAMILY_NAME "Nimrod"
WEIGHT_NAME "Bold"
SLANT "R"
SETWIDTH_NAME "Normal"
ADD_STYLE_NAME ""
PIXEL_SIZE 19
POINT_SIZE 140
RESOLUTION_X 100
RESOLUTION_Y 100
SPACING "P"
AVERAGE_WIDTH 114
CHARSET_REGISTRY "iso8859"
CHARSET_ENCODING "5"
FACE_NAME "Nimrod Bold ISO Latin Cyrillic"
_DEC_DEVICE_FONTNAMES "PS=nimrod-b-latcyrillic"
COPYRIGHT "Copyright (c) 1994 Monotype Typography Ltd."
CAP_HEIGHT 16
X_HEIGHT 12
WEIGHT 10
QUAD_WIDTH 14
DEFAULT_CHAR 160
FONT_DESCENT 5
FONT_ASCENT 18
ENDPROPERTIES

CHARS 191

STARTCHAR space
ENCODING 32
SWIDTH 250 0
DWIDTH 5 0
BBX 0 0 0 0
BITMAP
ENDCHAR

STARTCHAR exclam
ENCODING 33
SWIDTH 323 0
DWIDTH 6 0
BBX 3 14 2 0
BITMAP
40
E0
E0
E0
E0
E0
E0
40
40
40
00
E0
E0
E0
ENDCHAR

STARTCHAR quotedbl
ENCODING 34
SWIDTH 552 0
DWIDTH 10 0
BBX 7 6 2 8
BITMAP
44
EE
EE
44
44
44
ENDCHAR

STARTCHAR numbersign
ENCODING 35
SWIDTH 667 0
DWIDTH 13 0
BBX 13 14 0 0
BITMAP
0C60
0C60
0C60
0C60
7FF8
18C0
18C0
18C0
18C0
FFF0
3180
3180
3180
3180
ENDCHAR

STARTCHAR dollar
ENCODING 36
SWIDTH 542 0
DWIDTH 10 0
BBX 9 16 1 -2
BITMAP
0800
3F00
6980
EB80
EB00
F800
FC00
7F00
1F80
0F80
6B80
EB80
CB00
7E00
0800
0800
ENDCHAR

STARTCHAR percent
ENCODING 37
SWIDTH 1000 0
DWIDTH 19 0
BBX 15 14 2 0
BITMAP
7830
CC20
CC60
CC40
CCC0
CC80
7980
013C
0366
0266
0666
0466
0C66
083C
ENDCHAR

STARTCHAR ampersand
ENCODING 38
SWIDTH 865 0
DWIDTH 16 0
BBX 15 14 1 0
BITMAP
07C0
0EE0
0C60
0C60
0EC0
0780
1F1E
738C
E188
E1D0
E0F0
E072
70FA
1F9C
ENDCHAR

STARTCHAR quoteright
ENCODING 39
SWIDTH 323 0
DWIDTH 6 0
BBX 3 6 2 8
BITMAP
C0
E0
60
20
40
80
ENDCHAR

STARTCHAR parenleft
ENCODING 40
SWIDTH 385 0
DWIDTH 7 0
BBX 6 18 1 -4
BITMAP
0C
18
38
30
70
60
E0
E0
E0
E0
E0
E0
60
70
30
38
18
0C
ENDCHAR

STARTCHAR parenright
ENCODING 41
SWIDTH 385 0
DWIDTH 7 0
BBX 6 18 1 -4
BITMAP
C0
60
70
30
38
18
1C
1C
1C
1C
1C
1C
18
38
30
70
60
C0
ENDCHAR

STARTCHAR asterisk
ENCODING 42
SWIDTH 552 0
DWIDTH 10 0
BBX 9 7 1 7
BITMAP
1C00
DD80
EB80
7F00
1C00
7700
7700
ENDCHAR

STARTCHAR plus
ENCODING 43
SWIDTH 667 0
DWIDTH 13 0
BBX 10 10 2 1
BITMAP
0C00
0C00
0C00
0C00
FFC0
FFC0
0C00
0C00
0C00
0C00
ENDCHAR

STARTCHAR comma
ENCODING 44
SWIDTH 323 0
DWIDTH 6 0
BBX 3 6 2 -3
BITMAP
C0
E0
60
20
40
80
ENDCHAR

STARTCHAR minus
ENCODING 45
SWIDTH 667 0
DWIDTH 13 0
BBX 10 2 2 5
BITMAP
FFC0
FFC0
ENDCHAR

STARTCHAR period
ENCODING 46
SWIDTH 323 0
DWIDTH 6 0
BBX 3 3 2 0
BITMAP
E0
E0
E0
ENDCHAR

STARTCHAR slash
ENCODING 47
SWIDTH 552 0
DWIDTH 10 0
BBX 8 14 1 0
BITMAP
03
03
06
06
0C
0C
18
18
30
30
60
60
C0
C0
ENDCHAR

STARTCHAR zero
ENCODING 48
SWIDTH 594 0
DWIDTH 11 0
BBX 10 14 1 0
BITMAP
1E00
7380
6180
E1C0
E1C0
E1C0
E1C0
E1C0
E1C0
E1C0
E1C0
6180
7380
1E00
ENDCHAR

STARTCHAR one
ENCODING 49
SWIDTH 594 0
DWIDTH 11 0
BBX 7 14 2 0
BITMAP
08
F8
38
38
38
38
38
38
38
38
38
38
38
FE
ENDCHAR

STARTCHAR two
ENCODING 50
SWIDTH 594 0
DWIDTH 11 0
BBX 9 14 1 0
BITMAP
3E00
4700
C380
E380
6380
0380
0700
0600
0C00
1000
2080
6080
FF80
FF80
ENDCHAR

STARTCHAR three
ENCODING 51
SWIDTH 594 0
DWIDTH 11 0
BBX 8 14 2 0
BITMAP
7C
8E
C7
E7
47
0E
7C
0E
07
47
E7
C7
8E
7C
ENDCHAR

STARTCHAR four
ENCODING 52
SWIDTH 594 0
DWIDTH 11 0
BBX 10 14 1 0
BITMAP
0300
0700
0700
0F00
1700
1700
2700
4700
4700
8700
FFC0
0700
0700
1FC0
ENDCHAR

STARTCHAR five
ENCODING 53
SWIDTH 594 0
DWIDTH 11 0
BBX 10 14 1 0
BITMAP
3FC0
3F80
2000
2000
4000
5E00
6380
01C0
01C0
41C0
E1C0
C1C0
8380
7E00
ENDCHAR

STARTCHAR six
ENCODING 54
SWIDTH 594 0
DWIDTH 11 0
BBX 10 14 1 0
BITMAP
0F80
38C0
71C0
6080
E000
E000
EF00
FB80
F1C0
E1C0
E1C0
E1C0
7380
3F00
ENDCHAR

STARTCHAR seven
ENCODING 55
SWIDTH 594 0
DWIDTH 11 0
BBX 10 14 1 0
BITMAP
7FC0
FFC0
81C0
0180
0380
0300
0700
0600
0E00
0E00
0E00
1C00
1C00
1C00
ENDCHAR

STARTCHAR eight
ENCODING 56
SWIDTH 594 0
DWIDTH 11 0
BBX 9 14 1 0
BITMAP
3E00
7700
E380
E380
E380
7700
3E00
7700
E380
E380
E380
E380
7700
3E00
ENDCHAR

STARTCHAR nine
ENCODING 57
SWIDTH 594 0
DWIDTH 11 0
BBX 10 14 1 0
BITMAP
3F00
7380
E1C0
E1C0
E1C0
E3C0
77C0
3DC0
01C0
01C0
4180
E380
C700
7C00
ENDCHAR

STARTCHAR colon
ENCODING 58
SWIDTH 323 0
DWIDTH 6 0
BBX 3 10 2 0
BITMAP
E0
E0
E0
00
00
00
00
E0
E0
E0
ENDCHAR

STARTCHAR semicolon
ENCODING 59
SWIDTH 323 0
DWIDTH 6 0
BBX 3 13 2 -3
BITMAP
E0
E0
E0
00
00
00
00
C0
E0
60
20
40
80
ENDCHAR

STARTCHAR less
ENCODING 60
SWIDTH 667 0
DWIDTH 13 0
BBX 10 10 2 1
BITMAP
0040
01C0
0F00
3800
E000
E000
3800
0F00
01C0
0040
ENDCHAR

STARTCHAR equal
ENCODING 61
SWIDTH 667 0
DWIDTH 13 0
BBX 10 6 2 3
BITMAP
FFC0
FFC0
0000
0000
FFC0
FFC0
ENDCHAR

STARTCHAR greater
ENCODING 62
SWIDTH 667 0
DWIDTH 13 0
BBX 10 10 2 1
BITMAP
8000
E000
3C00
0700
01C0
01C0
0700
3C00
E000
8000
ENDCHAR

STARTCHAR question
ENCODING 63
SWIDTH 500 0
DWIDTH 10 0
BBX 8 14 1 0
BITMAP
7C
8E
C7
E7
47
0E
0C
18
18
10
00
38
38
38
ENDCHAR

STARTCHAR at
ENCODING 64
SWIDTH 927 0
DWIDTH 18 0
BBX 16 18 1 -4
BITMAP
03E0
0C18
1004
2002
43B2
4671
8C31
8C31
8C31
9861
9862
98E2
9D6C
4E30
4001
2006
1818
07E0
ENDCHAR

STARTCHAR A
ENCODING 65
SWIDTH 854 0
DWIDTH 16 0
BBX 16 14 0 0
BITMAP
0180
01C0
03C0
03C0
04E0
04E0
0870
0870
1038
1FF8
2038
201C
701C
F87F
ENDCHAR

STARTCHAR B
ENCODING 66
SWIDTH 792 0
DWIDTH 15 0
BBX 14 14 1 0
BITMAP
FFC0
3870
3838
3838
3838
3870
3FF0
3838
381C
381C
381C
381C
3838
FFE0
ENDCHAR

STARTCHAR C
ENCODING 67
SWIDTH 750 0
DWIDTH 14 0
BBX 12 14 1 0
BITMAP
0FE0
3870
7030
7010
E010
E000
E000
E000
E000
E000
7010
7010
3820
0FC0
ENDCHAR

STARTCHAR D
ENCODING 68
SWIDTH 823 0
DWIDTH 16 0
BBX 14 14 1 0
BITMAP
FFC0
3870
3838
3838
381C
381C
381C
381C
381C
381C
3838
3838
3870
FFC0
ENDCHAR

STARTCHAR E
ENCODING 69
SWIDTH 750 0
DWIDTH 14 0
BBX 12 14 1 0
BITMAP
FFF0
3870
3830
3810
3890
3980
3F80
3980
3880
3810
3810
3830
3870
FFF0
ENDCHAR

STARTCHAR F
ENCODING 70
SWIDTH 698 0
DWIDTH 13 0
BBX 12 14 1 0
BITMAP
FFF0
3870
3830
3810
3890
3980
3F80
3980
3880
3800
3800
3800
3800
FE00
ENDCHAR

STARTCHAR G
ENCODING 71
SWIDTH 854 0
DWIDTH 16 0
BBX 15 14 1 0
BITMAP
0FF0
3838
7018
7008
E008
E000
E000
E0FE
E038
E038
7038
7030
3870
0FE0
ENDCHAR

STARTCHAR H
ENCODING 72
SWIDTH 865 0
DWIDTH 16 0
BBX 15 14 1 0
BITMAP
FEFE
3838
3838
3838
3838
3838
3FF8
3838
3838
3838
3838
3838
3838
FEFE
ENDCHAR

STARTCHAR I
ENCODING 73
SWIDTH 448 0
DWIDTH 9 0
BBX 7 14 1 0
BITMAP
FE
38
38
38
38
38
38
38
38
38
38
38
38
FE
ENDCHAR

STARTCHAR J
ENCODING 74
SWIDTH 635 0
DWIDTH 12 0
BBX 11 14 1 0
BITMAP
0FE0
0380
0380
0380
0380
0380
0380
0380
4380
E380
E380
C300
6700
3E00
ENDCHAR

STARTCHAR K
ENCODING 75
SWIDTH 854 0
DWIDTH 16 0
BBX 15 14 1 0
BITMAP
FE7E
3818
3830
3860
38C0
3980
3BC0
3FC0
3CE0
38E0
3870
3870
3838
FE7E
ENDCHAR

STARTCHAR L
ENCODING 76
SWIDTH 708 0
DWIDTH 13 0
BBX 12 14 1 0
BITMAP
FE00
3800
3800
3800
3800
3800
3800
3800
3800
3810
3810
3830
3870
FFF0
ENDCHAR

STARTCHAR M
ENCODING 77
SWIDTH 1052 0
DWIDTH 20 0
BBX 19 14 1 0
BITMAP
FC07E0
3C0780
2E0F80
2E0B80
271B80
271380
271380
23B380
23A380
21E380
21E380
20C380
70C380
F8CFE0
ENDCHAR

STARTCHAR N
ENCODING 78
SWIDTH 833 0
DWIDTH 16 0
BBX 15 14 1 0
BITMAP
F83E
3C1C
3C08
2E08
2E08
2708
2388
2388
21C8
20E8
20E8
2078
7078
F838
ENDCHAR

STARTCHAR O
ENCODING 79
SWIDTH 823 0
DWIDTH 16 0
BBX 14 14 1 0
BITMAP
0FC0
3870
7038
7038
E01C
E01C
E01C
E01C
E01C
E01C
6038
7038
3870
0FC0
ENDCHAR

STARTCHAR P
ENCODING 80
SWIDTH 729 0
DWIDTH 14 0
BBX 12 14 1 0
BITMAP
FF80
38E0
3870
3870
3870
3870
38E0
3F80
3800
3800
3800
3800
3800
FE00
ENDCHAR

STARTCHAR Q
ENCODING 81
SWIDTH 823 0
DWIDTH 16 0
BBX 15 16 1 -2
BITMAP
0FC0
3870
7038
7038
E01C
E01C
E01C
E01C
E71C
E99C
70B8
70B8
38F0
0FC0
0070
001E
ENDCHAR

STARTCHAR R
ENCODING 82
SWIDTH 802 0
DWIDTH 14 0
BBX 13 14 1 0
BITMAP
FF80
38E0
3870
3870
3870
3870
38E0
3F80
39C0
39C0
38E0
38E0
3870
FE78
ENDCHAR

STARTCHAR S
ENCODING 83
SWIDTH 646 0
DWIDTH 12 0
BBX 10 14 1 0
BITMAP
1F80
71C0
E0C0
E040
F040
FC00
7E00
1F80
0F80
83C0
81C0
C1C0
E380
7E00
ENDCHAR

STARTCHAR T
ENCODING 84
SWIDTH 729 0
DWIDTH 14 0
BBX 13 14 1 0
BITMAP
7FF0
E738
C718
8708
8708
0700
0700
0700
0700
0700
0700
0700
0700
1FC0
ENDCHAR

STARTCHAR U
ENCODING 85
SWIDTH 802 0
DWIDTH 15 0
BBX 14 14 1 0
BITMAP
FE7C
3838
3810
3810
3810
3810
3810
3810
3810
3810
3810
3810
1C20
0FC0
ENDCHAR

STARTCHAR V
ENCODING 86
SWIDTH 823 0
DWIDTH 15 0
BBX 15 14 0 0
BITMAP
FE3E
381C
3808
1C08
1C10
1C10
0E10
0E20
0E20
0720
0740
03C0
0380
0180
ENDCHAR

STARTCHAR W
ENCODING 87
SWIDTH 1104 0
DWIDTH 21 0
BBX 20 14 1 0
BITMAP
F8F9F0
7070E0
707040
707040
38B880
38B880
38B880
1D1C80
1D1D00
1D1D00
0D0D00
0F0F00
060600
060600
ENDCHAR

STARTCHAR X
ENCODING 88
SWIDTH 802 0
DWIDTH 15 0
BBX 15 14 0 0
BITMAP
FF7E
3C18
1C30
0E20
0E40
07C0
0780
0380
07C0
05C0
08E0
1870
3078
FDFE
ENDCHAR

STARTCHAR Y
ENCODING 89
SWIDTH 792 0
DWIDTH 15 0
BBX 14 14 0 0
BITMAP
FE3C
3818
1C10
1C20
0E20
0740
07C0
0380
0380
0380
0380
0380
0380
0FE0
ENDCHAR

STARTCHAR Z
ENCODING 90
SWIDTH 667 0
DWIDTH 13 0
BBX 11 14 1 0
BITMAP
7FE0
E0E0
C1C0
8380
8380
0700
0E00
0E00
1C00
3820
3820
7060
E0E0
FFC0
ENDCHAR

STARTCHAR bracketleft
ENCODING 91
SWIDTH 396 0
DWIDTH 8 0
BBX 5 18 2 -4
BITMAP
F8
E0
E0
E0
E0
E0
E0
E0
E0
E0
E0
E0
E0
E0
E0
E0
E0
F8
ENDCHAR

STARTCHAR backslash
ENCODING 92
SWIDTH 552 0
DWIDTH 10 0
BBX 8 14 1 0
BITMAP
C0
C0
60
60
30
30
10
18
18
0C
0C
06
06
03
ENDCHAR

STARTCHAR bracketright
ENCODING 93
SWIDTH 396 0
DWIDTH 8 0
BBX 5 18 1 -4
BITMAP
F8
38
38
38
38
38
38
38
38
38
38
38
38
38
38
38
38
F8
ENDCHAR

STARTCHAR asciicircum
ENCODING 94
SWIDTH 583 0
DWIDTH 11 0
BBX 9 7 1 7
BITMAP
0800
1C00
3600
3600
6300
6300
C180
ENDCHAR

STARTCHAR underscore
ENCODING 95
SWIDTH 500 0
DWIDTH 10 0
BBX 10 1 0 -4
BITMAP
FFC0
ENDCHAR

STARTCHAR quoteleft
ENCODING 96
SWIDTH 323 0
DWIDTH 6 0
BBX 3 6 2 8
BITMAP
20
40
80
C0
E0
60
ENDCHAR

STARTCHAR a
ENCODING 97
SWIDTH 615 0
DWIDTH 11 0
BBX 10 10 1 0
BITMAP
3F00
6380
4380
0380
0F80
7B80
E380
E380
E780
79C0
ENDCHAR

STARTCHAR b
ENCODING 98
SWIDTH 646 0
DWIDTH 12 0
BBX 12 14 0 0
BITMAP
F800
3800
3800
3800
3B80
3DE0
38E0
3870
3870
3870
3870
38E0
3DE0
3780
ENDCHAR

STARTCHAR c
ENCODING 99
SWIDTH 542 0
DWIDTH 10 0
BBX 9 10 1 0
BITMAP
1F00
7980
7080
E000
E000
E000
E000
7080
7980
1F00
ENDCHAR

STARTCHAR d
ENCODING 100
SWIDTH 646 0
DWIDTH 12 0
BBX 12 14 1 0
BITMAP
07C0
01C0
01C0
01C0
1DC0
7BC0
71C0
E1C0
E1C0
E1C0
E1C0
71C0
7BC0
1DF0
ENDCHAR

STARTCHAR e
ENCODING 101
SWIDTH 562 0
DWIDTH 11 0
BBX 10 10 1 0
BITMAP
1F00
7B80
71C0
E1C0
FFC0
E000
E000
7040
78C0
1F80
ENDCHAR

STARTCHAR f
ENCODING 102
SWIDTH 406 0
DWIDTH 8 0
BBX 9 14 0 0
BITMAP
0F00
1980
3880
3800
FE00
3800
3800
3800
3800
3800
3800
3800
3800
FE00
ENDCHAR

STARTCHAR g
ENCODING 103
SWIDTH 604 0
DWIDTH 12 0
BBX 10 13 2 -3
BITMAP
3EC0
7700
E380
E380
E380
7700
7E00
C000
FF80
7FC0
C0C0
E380
7F00
ENDCHAR

STARTCHAR h
ENCODING 104
SWIDTH 698 0
DWIDTH 13 0
BBX 13 14 0 0
BITMAP
F800
3800
3800
3800
3BC0
3DE0
38E0
38E0
38E0
38E0
38E0
38E0
38E0
FDF8
ENDCHAR

STARTCHAR i
ENCODING 105
SWIDTH 385 0
DWIDTH 7 0
BBX 7 14 0 0
BITMAP
38
38
38
00
F8
38
38
38
38
38
38
38
38
FE
ENDCHAR

STARTCHAR j
ENCODING 106
SWIDTH 375 0
DWIDTH 7 0
BBX 7 17 -1 -3
BITMAP
0E
0E
0E
00
3E
0E
0E
0E
0E
0E
0E
0E
0E
0E
8E
DC
78
ENDCHAR

STARTCHAR k
ENCODING 107
SWIDTH 698 0
DWIDTH 13 0
BBX 12 14 1 0
BITMAP
F800
3800
3800
3800
39F0
38C0
3980
3B00
3F80
3B80
39C0
39C0
38E0
FDF0
ENDCHAR

STARTCHAR l
ENCODING 108
SWIDTH 385 0
DWIDTH 7 0
BBX 7 14 0 0
BITMAP
F8
38
38
38
38
38
38
38
38
38
38
38
38
FE
ENDCHAR

STARTCHAR m
ENCODING 109
SWIDTH 1000 0
DWIDTH 19 0
BBX 19 10 0 0
BITMAP
FBCF00
3CF380
38E380
38E380
38E380
38E380
38E380
38E380
38E380
FDF7E0
ENDCHAR

STARTCHAR n
ENCODING 110
SWIDTH 698 0
DWIDTH 13 0
BBX 13 10 0 0
BITMAP
FBC0
3CE0
38E0
38E0
38E0
38E0
38E0
38E0
38E0
FDF8
ENDCHAR

STARTCHAR o
ENCODING 111
SWIDTH 615 0
DWIDTH 12 0
BBX 11 10 1 0
BITMAP
1F00
71C0
60C0
E0E0
E0E0
E0E0
E0E0
60C0
71C0
1F00
ENDCHAR

STARTCHAR p
ENCODING 112
SWIDTH 646 0
DWIDTH 12 0
BBX 12 13 0 -3
BITMAP
FB80
3CE0
3860
3870
3870
3870
3870
3860
3CE0
3B80
3800
3800
FE00
ENDCHAR

STARTCHAR q
ENCODING 113
SWIDTH 646 0
DWIDTH 12 0
BBX 12 13 1 -3
BITMAP
1CC0
73C0
61C0
E1C0
E1C0
E1C0
E1C0
61C0
73C0
1DC0
01C0
01C0
07F0
ENDCHAR

STARTCHAR r
ENCODING 114
SWIDTH 542 0
DWIDTH 10 0
BBX 10 10 0 0
BITMAP
FB80
3CC0
3840
3800
3800
3800
3800
3800
3800
FE00
ENDCHAR

STARTCHAR s
ENCODING 115
SWIDTH 510 0
DWIDTH 10 0
BBX 8 10 1 0
BITMAP
7E
F3
E1
F0
7C
3E
0F
87
CF
7E
ENDCHAR

STARTCHAR t
ENCODING 116
SWIDTH 427 0
DWIDTH 8 0
BBX 7 14 0 0
BITMAP
08
08
18
38
FE
38
38
38
38
38
38
38
3A
1C
ENDCHAR

STARTCHAR u
ENCODING 117
SWIDTH 698 0
DWIDTH 13 0
BBX 13 10 0 0
BITMAP
FBE0
38E0
38E0
38E0
38E0
38E0
38E0
38E0
39E0
1EF8
ENDCHAR

STARTCHAR v
ENCODING 118
SWIDTH 635 0
DWIDTH 12 0
BBX 11 10 1 0
BITMAP
F8E0
7040
70C0
3880
3880
1D80
1D00
0F00
0E00
0600
ENDCHAR

STARTCHAR w
ENCODING 119
SWIDTH 906 0
DWIDTH 17 0
BBX 16 10 1 0
BITMAP
FBEF
71C6
71C4
39C4
3AE8
3AE8
1E78
1C70
1C70
0C30
ENDCHAR

STARTCHAR x
ENCODING 120
SWIDTH 646 0
DWIDTH 12 0
BBX 10 10 1 0
BITMAP
FBC0
7180
3900
3A00
1E00
1E00
1700
2700
6380
F7C0
ENDCHAR

STARTCHAR y
ENCODING 121
SWIDTH 635 0
DWIDTH 12 0
BBX 11 13 1 -3
BITMAP
F9E0
70C0
7080
3880
3980
1D00
1D00
0F00
0E00
0600
4600
6400
3800
ENDCHAR

STARTCHAR z
ENCODING 122
SWIDTH 521 0
DWIDTH 10 0
BBX 8 10 1 0
BITMAP
7F
C7
8E
8E
1C
38
39
71
E3
FE
ENDCHAR

STARTCHAR braceleft
ENCODING 123
SWIDTH 396 0
DWIDTH 8 0
BBX 5 18 2 -4
BITMAP
18
30
30
70
70
70
30
20
C0
C0
20
30
70
70
70
30
30
18
ENDCHAR

STARTCHAR bar
ENCODING 124
SWIDTH 542 0
DWIDTH 10 0
BBX 2 14 4 0
BITMAP
C0
C0
C0
C0
C0
C0
C0
C0
C0
C0
C0
C0
C0
C0
ENDCHAR

STARTCHAR braceright
ENCODING 125
SWIDTH 396 0
DWIDTH 8 0
BBX 5 18 2 -4
BITMAP
C0
60
60
70
70
70
60
20
18
18
20
60
70
70
70
60
60
C0
ENDCHAR

STARTCHAR asciitilde
ENCODING 126
SWIDTH 667 0
DWIDTH 13 0
BBX 9 3 2 5
BITMAP
7880
BE80
8F00
ENDCHAR

STARTCHAR space
ENCODING 160
SWIDTH 250 0
DWIDTH 6 0
BBX 0 0 0 0
BITMAP
ENDCHAR

STARTCHAR afii10023
ENCODING 161
SWIDTH 719 0
DWIDTH 14 0
BBX 12 18 1 0
BITMAP
38E0
38E0
38E0
0000
FFF0
3870
3830
3810
3890
3980
3F80
3980
3880
3810
3810
3830
3870
FFF0
ENDCHAR

STARTCHAR afii10051
ENCODING 162
SWIDTH 927 0
DWIDTH 18 0
BBX 16 14 1 0
BITMAP
7FF0
E738
C718
8708
0700
0778
07CE
0786
0707
0707
0707
0707
070E
1FDC
ENDCHAR

STARTCHAR afii10052
ENCODING 163
SWIDTH 687 0
DWIDTH 13 0
BBX 11 18 1 0
BITMAP
0180
0380
0600
0000
FFC0
38E0
3860
3820
3820
3800
3800
3800
3800
3800
3800
3800
3800
FE00
ENDCHAR

STARTCHAR afii10053
ENCODING 164
SWIDTH 750 0
DWIDTH 14 0
BBX 12 14 1 0
BITMAP
0FE0
3870
7030
7010
E010
E000
FF00
E000
E000
E000
7010
7010
3820
0FC0
ENDCHAR

STARTCHAR afii10054
ENCODING 165
SWIDTH 646 0
DWIDTH 12 0
BBX 10 14 1 0
BITMAP
1F80
71C0
E0C0
E040
F040
FC00
7E00
1F80
0F80
83C0
81C0
C1C0
E380
7E00
ENDCHAR

STARTCHAR afii10055
ENCODING 166
SWIDTH 448 0
DWIDTH 9 0
BBX 7 14 1 0
BITMAP
FE
38
38
38
38
38
38
38
38
38
38
38
38
FE
ENDCHAR

STARTCHAR afii10056
ENCODING 167
SWIDTH 448 0
DWIDTH 9 0
BBX 7 18 1 0
BITMAP
EE
EE
EE
00
FE
38
38
38
38
38
38
38
38
38
38
38
38
FE
ENDCHAR

STARTCHAR afii10057
ENCODING 168
SWIDTH 635 0
DWIDTH 12 0
BBX 11 14 1 0
BITMAP
0FE0
0380
0380
0380
0380
0380
0380
0380
4380
E380
E380
C300
6700
3E00
ENDCHAR

STARTCHAR afii10058
ENCODING 169
SWIDTH 1164 0
DWIDTH 22 0
BBX 21 14 1 0
BITMAP
1FFE00
063800
043800
043800
043800
043800
043FC0
043870
083838
083838
C83838
C83838
903870
60FFC0
ENDCHAR

STARTCHAR afii10059
ENCODING 170
SWIDTH 1171 0
DWIDTH 22 0
BBX 21 14 1 0
BITMAP
FEFE00
383800
383800
383800
383800
383800
3FFFC0
383870
383838
383838
383838
383838
383870
FEFFC0
ENDCHAR

STARTCHAR afii10060
ENCODING 171
SWIDTH 946 0
DWIDTH 18 0
BBX 17 14 1 0
BITMAP
7FF000
E73800
C71800
870800
070000
077800
07DC00
078E00
070E00
070E00
070E00
070E00
070E00
1FDF80
ENDCHAR

STARTCHAR afii10061
ENCODING 172
SWIDTH 831 0
DWIDTH 16 0
BBX 14 18 1 0
BITMAP
00C0
01C0
0300
0000
FE38
387C
3858
3880
3880
3980
3BC0
3FC0
38E0
38E0
3870
3870
3838
FE3C
ENDCHAR

STARTCHAR hyphen
ENCODING 173
SWIDTH 323 0
DWIDTH 6 0
BBX 4 2 1 4
BITMAP
F0
F0
ENDCHAR

STARTCHAR afii10062
ENCODING 174
SWIDTH 748 0
DWIDTH 14 0
BBX 15 18 -1 0
BITMAP
0630
0630
03E0
0000
FE3E
380C
1C08
1C18
0E10
0E10
0720
0720
03C0
19C0
3980
3180
1300
0E00
ENDCHAR

STARTCHAR afii10145
ENCODING 175
SWIDTH 865 0
DWIDTH 16 0
BBX 15 17 1 -3
BITMAP
FEFE
3838
3838
3838
3838
3838
3838
3838
3838
3838
3838
3838
3838
FFFE
0380
0100
0100
ENDCHAR

STARTCHAR afii10017
ENCODING 176
SWIDTH 854 0
DWIDTH 16 0
BBX 16 14 0 0
BITMAP
0180
0180
03C0
03C0
04E0
04E0
0870
0870
1030
1FF8
2038
201C
701C
FC7F
ENDCHAR

STARTCHAR afii10018
ENCODING 177
SWIDTH 792 0
DWIDTH 15 0
BBX 13 14 1 0
BITMAP
FFE0
3870
3830
3810
3810
3800
3FC0
3870
3838
3838
3838
3838
3870
FFC0
ENDCHAR

STARTCHAR afii10019
ENCODING 178
SWIDTH 792 0
DWIDTH 15 0
BBX 14 14 1 0
BITMAP
FFC0
3870
3838
3838
3838
3870
3FF0
3838
381C
381C
381C
381C
3838
FFE0
ENDCHAR

STARTCHAR afii10020
ENCODING 179
SWIDTH 687 0
DWIDTH 13 0
BBX 12 14 1 0
BITMAP
FFE0
3870
3830
3810
3810
3800
3800
3800
3800
3800
3800
3800
3800
FE00
ENDCHAR

STARTCHAR afii10021
ENCODING 180
SWIDTH 813 0
DWIDTH 15 0
BBX 15 17 0 -3
BITMAP
1FFE
0638
0438
0438
0438
0438
0438
0838
0838
0838
1038
1038
3038
FFFE
C006
8002
8002
ENDCHAR

STARTCHAR afii10022
ENCODING 181
SWIDTH 719 0
DWIDTH 14 0
BBX 12 14 1 0
BITMAP
FFF0
3870
3830
3810
3890
3980
3F80
3980
3880
3810
3810
3830
3870
FFF0
ENDCHAR

STARTCHAR afii10024
ENCODING 182
SWIDTH 1189 0
DWIDTH 23 0
BBX 21 14 1 0
BITMAP
71FC70
F870F8
6870B0
047100
047100
067300
0F7780
0FFF80
1C71C0
1C71C0
3870E0
3870E0
707070
F1FC78
ENDCHAR

STARTCHAR afii10025
ENCODING 183
SWIDTH 689 0
DWIDTH 13 0
BBX 10 14 2 0
BITMAP
7E00
E780
C3C0
81C0
01C0
0380
3F00
0380
01C0
01C0
81C0
83C0
4780
3E00
ENDCHAR

STARTCHAR afii10026
ENCODING 184
SWIDTH 880 0
DWIDTH 17 0
BBX 16 14 1 0
BITMAP
FE7F
381C
383C
383C
385C
38DC
389C
391C
3B1C
3A1C
3C1C
3C1C
381C
FE7F
ENDCHAR

STARTCHAR afii10027
ENCODING 185
SWIDTH 880 0
DWIDTH 17 0
BBX 16 18 1 0
BITMAP
0630
0630
03E0
0000
FE7F
381C
383C
383C
385C
38DC
389C
391C
3B1C
3A1C
3C1C
3C1C
381C
FE7F
ENDCHAR

STARTCHAR afii10028
ENCODING 186
SWIDTH 831 0
DWIDTH 16 0
BBX 14 14 1 0
BITMAP
FE38
387C
3858
3880
3880
3980
3BC0
3FC0
38E0
38E0
3870
3870
3838
FE3C
ENDCHAR

STARTCHAR afii10029
ENCODING 187
SWIDTH 844 0
DWIDTH 16 0
BBX 15 14 1 0
BITMAP
1FFE
0638
0438
0438
0438
0438
0438
0438
0838
0838
C838
C838
9038
60FE
ENDCHAR

STARTCHAR afii10030
ENCODING 188
SWIDTH 1052 0
DWIDTH 20 0
BBX 19 14 1 0
BITMAP
FC07E0
3C0780
2E0F80
2E0B80
271B80
271380
271380
23B380
23A380
21E380
21E380
20C380
70C380
F8CFE0
ENDCHAR

STARTCHAR afii10031
ENCODING 189
SWIDTH 865 0
DWIDTH 16 0
BBX 15 14 1 0
BITMAP
FEFE
3838
3838
3838
3838
3838
3FF8
3838
3838
3838
3838
3838
3838
FEFE
ENDCHAR

STARTCHAR afii10032
ENCODING 190
SWIDTH 823 0
DWIDTH 16 0
BBX 14 14 1 0
BITMAP
0FC0
3870
7038
7038
E01C
E01C
E01C
E01C
E01C
E01C
6038
7038
3870
0FC0
ENDCHAR

STARTCHAR afii10033
ENCODING 191
SWIDTH 865 0
DWIDTH 16 0
BBX 15 14 1 0
BITMAP
FFFE
3838
3838
3838
3838
3838
3838
3838
3838
3838
3838
3838
3838
FEFE
ENDCHAR

STARTCHAR afii10034
ENCODING 192
SWIDTH 729 0
DWIDTH 14 0
BBX 13 14 1 0
BITMAP
FFC0
3870
3838
3838
3838
3838
3870
3FC0
3800
3800
3800
3800
3800
FF00
ENDCHAR

STARTCHAR afii10035
ENCODING 193
SWIDTH 750 0
DWIDTH 14 0
BBX 12 14 1 0
BITMAP
0FE0
3870
7030
7010
E010
E000
E000
E000
E000
E000
7010
7010
3820
0FC0
ENDCHAR

STARTCHAR afii10036
ENCODING 194
SWIDTH 729 0
DWIDTH 14 0
BBX 13 14 1 0
BITMAP
7FF0
E738
C718
8708
8708
0700
0700
0700
0700
0700
0700
0700
0700
1FC0
ENDCHAR

STARTCHAR afii10037
ENCODING 195
SWIDTH 748 0
DWIDTH 14 0
BBX 15 14 0 0
BITMAP
FE3E
380C
1C08
1C18
0E10
0E10
0720
0720
03C0
19C0
3980
3180
1300
0E00
ENDCHAR

STARTCHAR afii10038
ENCODING 196
SWIDTH 934 0
DWIDTH 18 0
BBX 15 14 2 0
BITMAP
0FE0
0380
1FF0
739C
638C
E38E
E38E
E38E
E38E
638C
739C
1FF0
0380
0FE0
ENDCHAR

STARTCHAR afii10039
ENCODING 197
SWIDTH 802 0
DWIDTH 15 0
BBX 15 14 0 0
BITMAP
FF7E
3C18
1C30
0E20
0E40
07C0
0780
0380
07C0
05C0
08E0
1870
3078
FDFE
ENDCHAR

STARTCHAR afii10040
ENCODING 198
SWIDTH 882 0
DWIDTH 17 0
BBX 15 17 1 -3
BITMAP
FEFE
3838
3838
3838
3838
3838
3838
3838
3838
3838
3838
3838
3838
FFFE
0006
0002
0002
ENDCHAR

STARTCHAR afii10041
ENCODING 199
SWIDTH 817 0
DWIDTH 16 0
BBX 15 14 1 0
BITMAP
FEFE
3838
3838
3838
3838
3838
3878
1CF8
0FB8
0038
0038
0038
0038
00FE
ENDCHAR

STARTCHAR afii10042
ENCODING 200
SWIDTH 1133 0
DWIDTH 22 0
BBX 21 14 1 0
BITMAP
FCF9F8
3870E0
3870E0
3870E0
3870E0
3870E0
3870E0
3870E0
3870E0
3870E0
3870E0
3870E0
3870E0
FFFFF8
ENDCHAR

STARTCHAR afii10043
ENCODING 201
SWIDTH 1153 0
DWIDTH 22 0
BBX 21 17 1 -3
BITMAP
FCF9F8
3870E0
3870E0
3870E0
3870E0
3870E0
3870E0
3870E0
3870E0
3870E0
3870E0
3870E0
3870E0
FFFFF8
000018
000008
000008
ENDCHAR

STARTCHAR afii10044
ENCODING 202
SWIDTH 937 0
DWIDTH 18 0
BBX 16 14 1 0
BITMAP
FFC0
E700
C700
8700
8700
0700
07F8
070E
0707
0707
0707
0707
070E
1FF8
ENDCHAR

STARTCHAR afii10045
ENCODING 203
SWIDTH 1177 0
DWIDTH 22 0
BBX 21 14 1 0
BITMAP
FE03F8
3800E0
3800E0
3800E0
3800E0
3800E0
3FC0E0
3870E0
3838E0
3838E0
3838E0
3838E0
3870E0
FFC3F8
ENDCHAR

STARTCHAR afii10046
ENCODING 204
SWIDTH 781 0
DWIDTH 15 0
BBX 13 14 1 0
BITMAP
FE00
3800
3800
3800
3800
3800
3FC0
3870
3838
3838
3838
3838
3870
FFC0
ENDCHAR

STARTCHAR afii10047
ENCODING 205
SWIDTH 750 0
DWIDTH 14 0
BBX 12 14 1 0
BITMAP
7F00
E1C0
C0E0
80E0
8070
0070
07F0
0070
0070
0070
80E0
80E0
41C0
3F00
ENDCHAR

STARTCHAR afii10048
ENCODING 206
SWIDTH 1219 0
DWIDTH 23 0
BBX 21 14 1 0
BITMAP
FE0F80
3838E0
387070
387070
38E038
38E038
3FE038
38E038
38E038
38E038
387070
387070
3838E0
FE0F80
ENDCHAR

STARTCHAR afii10049
ENCODING 207
SWIDTH 802 0
DWIDTH 15 0
BBX 14 14 1 0
BITMAP
0FFC
3870
7070
7070
7070
7070
3870
0FF0
1C70
1C70
3870
3870
7070
F1FC
ENDCHAR

STARTCHAR afii10065
ENCODING 208
SWIDTH 615 0
DWIDTH 11 0
BBX 10 10 1 0
BITMAP
3F00
6380
4380
0380
0F80
7B80
E380
E380
E780
79C0
ENDCHAR

STARTCHAR afii10066
ENCODING 209
SWIDTH 615 0
DWIDTH 12 0
BBX 11 15 1 0
BITMAP
0040
0FC0
3F80
6000
4000
DF00
B1C0
E0C0
E0E0
E0E0
E0E0
E0E0
60C0
71C0
1F00
ENDCHAR

STARTCHAR afii10067
ENCODING 210
SWIDTH 646 0
DWIDTH 12 0
BBX 11 10 0 0
BITMAP
FFC0
38E0
38E0
38C0
3F80
38C0
38E0
38E0
38E0
FFC0
ENDCHAR

STARTCHAR afii10068
ENCODING 211
SWIDTH 577 0
DWIDTH 11 0
BBX 10 10 1 0
BITMAP
FFC0
38C0
3840
3800
3800
3800
3800
3800
3800
FE00
ENDCHAR

STARTCHAR afii10069
ENCODING 212
SWIDTH 662 0
DWIDTH 13 0
BBX 12 12 1 -2
BITMAP
7FF0
19C0
11C0
11C0
11C0
11C0
21C0
21C0
41C0
FFE0
C060
8020
ENDCHAR

STARTCHAR afii10070
ENCODING 213
SWIDTH 562 0
DWIDTH 11 0
BBX 10 10 1 0
BITMAP
1F00
7B80
71C0
E1C0
FFC0
E000
E000
7040
78C0
1F80
ENDCHAR

STARTCHAR afii10072
ENCODING 214
SWIDTH 936 0
DWIDTH 18 0
BBX 17 10 1 0
BITMAP
67F300
F1C780
D1C580
09C800
1FFC00
39CE00
31C600
71C700
61C300
E7F380
ENDCHAR

STARTCHAR afii10073
ENCODING 215
SWIDTH 531 0
DWIDTH 10 0
BBX 8 10 1 0
BITMAP
7E
CF
87
0E
3C
0E
C7
C7
8E
7C
ENDCHAR

STARTCHAR afii10074
ENCODING 216
SWIDTH 708 0
DWIDTH 13 0
BBX 13 10 0 0
BITMAP
FDF8
38E0
38E0
39E0
3AE0
3AE0
3CE0
38E0
38E0
FDF8
ENDCHAR

STARTCHAR afii10075
ENCODING 217
SWIDTH 708 0
DWIDTH 13 0
BBX 13 14 0 0
BITMAP
0CC0
0CC0
0780
0000
FDF8
38E0
38E0
39E0
3AE0
3AE0
3CE0
38E0
38E0
FDF8
ENDCHAR

STARTCHAR afii10076
ENCODING 218
SWIDTH 677 0
DWIDTH 13 0
BBX 12 10 0 0
BITMAP
FE60
38F0
38B0
3900
3F80
39C0
38C0
38E0
3860
FE70
ENDCHAR

STARTCHAR afii10077
ENCODING 219
SWIDTH 698 0
DWIDTH 13 0
BBX 13 10 0 0
BITMAP
3FF8
0CE0
08E0
08E0
08E0
08E0
10E0
D0E0
D0E0
63F8
ENDCHAR

STARTCHAR afii10078
ENCODING 220
SWIDTH 854 0
DWIDTH 16 0
BBX 16 10 0 0
BITMAP
F83F
3C3C
3C5C
2E5C
2E5C
2E9C
279C
279C
231C
FB3F
ENDCHAR

STARTCHAR afii10079
ENCODING 221
SWIDTH 713 0
DWIDTH 14 0
BBX 14 10 0 0
BITMAP
FCFC
3870
3870
3870
3FF0
3870
3870
3870
3870
FCFC
ENDCHAR

STARTCHAR afii10080
ENCODING 222
SWIDTH 614 0
DWIDTH 12 0
BBX 11 10 1 0
BITMAP
1F00
71C0
60C0
E0E0
E0E0
E0E0
E0E0
60C0
71C0
1F00
ENDCHAR

STARTCHAR afii10081
ENCODING 223
SWIDTH 708 0
DWIDTH 13 0
BBX 13 10 0 0
BITMAP
FFF8
38E0
38E0
38E0
38E0
38E0
38E0
38E0
38E0
FDF8
ENDCHAR

STARTCHAR afii10082
ENCODING 224
SWIDTH 656 0
DWIDTH 12 0
BBX 12 13 0 -3
BITMAP
FB80
3CE0
3860
3870
3870
3870
3870
3860
3CE0
3B80
3800
3800
FE00
ENDCHAR

STARTCHAR afii10083
ENCODING 225
SWIDTH 542 0
DWIDTH 10 0
BBX 9 10 1 0
BITMAP
1F00
7980
7080
E000
E000
E000
E000
7080
7980
1F00
ENDCHAR

STARTCHAR afii10084
ENCODING 226
SWIDTH 598 0
DWIDTH 11 0
BBX 11 10 0 0
BITMAP
FFE0
CE60
8E20
0E00
0E00
0E00
0E00
0E00
0E00
3F80
ENDCHAR

STARTCHAR afii10085
ENCODING 227
SWIDTH 594 0
DWIDTH 12 0
BBX 11 13 1 -3
BITMAP
F9E0
70C0
7080
3880
3980
1D00
1D00
0F00
0E00
0600
6600
6400
3800
ENDCHAR

STARTCHAR afii10086
ENCODING 228
SWIDTH 823 0
DWIDTH 16 0
BBX 15 17 1 -3
BITMAP
0F80
0380
0380
0380
3BB8
77DC
638C
E38E
E38E
E38E
E38E
638C
77DC
3BB8
0380
0380
0FE0
ENDCHAR

STARTCHAR afii10087
ENCODING 229
SWIDTH 646 0
DWIDTH 12 0
BBX 10 10 1 0
BITMAP
FBC0
7180
3900
3A00
1E00
1E00
1700
2700
6380
F7C0
ENDCHAR

STARTCHAR afii10088
ENCODING 230
SWIDTH 711 0
DWIDTH 14 0
BBX 13 13 1 -3
BITMAP
FDF8
38E0
38E0
38E0
38E0
38E0
38E0
38E0
38E0
FFF8
0018
0008
0008
ENDCHAR

STARTCHAR afii10089
ENCODING 231
SWIDTH 698 0
DWIDTH 13 0
BBX 13 10 0 0
BITMAP
FDF8
38E0
38E0
38E0
38E0
39E0
1EE0
00E0
00E0
01F8
ENDCHAR

STARTCHAR afii10090
ENCODING 232
SWIDTH 1047 0
DWIDTH 20 0
BBX 19 10 1 0
BITMAP
FDF7E0
38E380
38E380
38E380
38E380
38E380
38E380
38E380
38E380
FFFFE0
ENDCHAR

STARTCHAR afii10091
ENCODING 233
SWIDTH 1055 0
DWIDTH 20 0
BBX 19 13 1 -3
BITMAP
FDF7E0
38E380
38E380
38E380
38E380
38E380
38E380
38E380
38E380
FFFFE0
000060
000020
000020
ENDCHAR

STARTCHAR afii10092
ENCODING 234
SWIDTH 740 0
DWIDTH 14 0
BBX 13 10 1 0
BITMAP
7F80
CE00
8E00
0E00
0FE0
0E70
0E38
0E38
0E70
3FE0
ENDCHAR

STARTCHAR afii10093
ENCODING 235
SWIDTH 948 0
DWIDTH 18 0
BBX 18 10 0 0
BITMAP
FE1FC0
380700
380700
380700
3F8700
39C700
38E700
38E700
39C700
FF9FC0
ENDCHAR

STARTCHAR afii10094
ENCODING 236
SWIDTH 635 0
DWIDTH 12 0
BBX 11 10 0 0
BITMAP
FE00
3800
3800
3800
3F80
39C0
38E0
38E0
39C0
FF80
ENDCHAR

STARTCHAR afii10095
ENCODING 237
SWIDTH 567 0
DWIDTH 11 0
BBX 9 10 1 0
BITMAP
7C00
CF00
8700
0380
1F80
0380
0380
C700
CF00
7C00
ENDCHAR

STARTCHAR afii10096
ENCODING 238
SWIDTH 935 0
DWIDTH 18 0
BBX 18 10 0 0
BITMAP
FE3E00
38E380
38C180
39C1C0
3FC1C0
39C1C0
39C1C0
38C180
38E380
FE3E00
ENDCHAR

STARTCHAR afii10097
ENCODING 239
SWIDTH 669 0
DWIDTH 13 0
BBX 12 10 1 0
BITMAP
3FF0
79C0
71C0
71C0
39C0
1FC0
39C0
39C0
71C0
F3F0
ENDCHAR

STARTCHAR afii61352
ENCODING 240
SWIDTH 1115 0
DWIDTH 21 0
BBX 20 14 1 0
BITMAP
7C0E00
1C1F00
1E1600
1E1000
1711C0
171360
139630
139630
11D630
11D360
10F1C0
D0F000
F07000
6073E0
ENDCHAR

STARTCHAR afii10071
ENCODING 241
SWIDTH 562 0
DWIDTH 11 0
BBX 10 14 1 0
BITMAP
7380
7380
7380
0000
1F00
7B80
71C0
E1C0
FFC0
E000
E000
7040
78C0
1F80
ENDCHAR

STARTCHAR afii10099
ENCODING 242
SWIDTH 646 0
DWIDTH 12 0
BBX 11 17 0 -3
BITMAP
F800
3800
FF80
3800
3BC0
3DE0
38E0
38E0
38E0
38E0
38E0
38E0
38E0
FCC0
01C0
0180
0700
ENDCHAR

STARTCHAR afii10100
ENCODING 243
SWIDTH 581 0
DWIDTH 11 0
BBX 10 14 1 0
BITMAP
0300
0700
0C00
0000
FFC0
38C0
3840
3800
3800
3800
3800
3800
3800
FE00
ENDCHAR

STARTCHAR afii10101
ENCODING 244
SWIDTH 552 0
DWIDTH 10 0
BBX 9 10 1 0
BITMAP
1F00
7980
7080
E000
FC00
E000
E000
7080
7980
1F00
ENDCHAR

STARTCHAR afii10102
ENCODING 245
SWIDTH 500 0
DWIDTH 10 0
BBX 8 10 1 0
BITMAP
7E
F3
E1
F0
7C
3E
0F
87
CF
7E
ENDCHAR

STARTCHAR afii10103
ENCODING 246
SWIDTH 396 0
DWIDTH 7 0
BBX 7 14 0 0
BITMAP
38
38
38
00
F8
38
38
38
38
38
38
38
38
FE
ENDCHAR

STARTCHAR afii10104
ENCODING 247
SWIDTH 396 0
DWIDTH 8 0
BBX 8 14 0 0
BITMAP
E7
E7
E7
00
7C
1C
1C
1C
1C
1C
1C
1C
1C
7F
ENDCHAR

STARTCHAR afii10105
ENCODING 248
SWIDTH 375 0
DWIDTH 7 0
BBX 7 17 -1 -3
BITMAP
0E
0E
0E
00
3E
0E
0E
0E
0E
0E
0E
0E
0E
0E
8E
DC
78
ENDCHAR

STARTCHAR afii10106
ENCODING 249
SWIDTH 967 0
DWIDTH 18 0
BBX 17 10 1 0
BITMAP
3FF000
0CE000
08E000
08E000
08FE00
08E700
10E380
D0E380
D0E700
61FE00
ENDCHAR

STARTCHAR afii10107
ENCODING 250
SWIDTH 969 0
DWIDTH 18 0
BBX 18 10 0 0
BITMAP
FCFC00
387000
387000
387000
3FFF00
387380
3871C0
3871C0
387380
FCFF00
ENDCHAR

STARTCHAR afii10108
ENCODING 251
SWIDTH 708 0
DWIDTH 13 0
BBX 13 14 0 0
BITMAP
F800
3800
FF80
3800
3BC0
3DE0
38E0
38E0
38E0
38E0
38E0
38E0
38E0
FDF8
ENDCHAR

STARTCHAR afii10109
ENCODING 252
SWIDTH 677 0
DWIDTH 13 0
BBX 12 14 0 0
BITMAP
0180
0380
0600
0000
FE60
38F0
38B0
3900
3F80
39C0
38C0
38E0
3860
FE70
ENDCHAR

STARTCHAR section
ENCODING 253
SWIDTH 531 0
DWIDTH 10 0
BBX 9 17 1 -3
BITMAP
3E00
7700
6700
7200
7800
3E00
5F00
C780
E380
F180
7D00
3E00
0F00
2700
7300
7700
3E00
ENDCHAR

STARTCHAR afii10110
ENCODING 254
SWIDTH 594 0
DWIDTH 11 0
BBX 11 17 0 -3
BITMAP
1980
1980
0F00
0000
F9E0
70C0
7080
3880
3980
1D00
1D00
0F00
0E00
0600
6600
6400
3800
ENDCHAR

STARTCHAR afii10193
ENCODING 255
SWIDTH 708 0
DWIDTH 13 0
BBX 13 13 0 -3
BITMAP
FDF8
38E0
38E0
38E0
38E0
38E0
38E0
38E0
38E0
FFF8
0700
0200
0200
ENDCHAR

ENDFONT
