STARTFONT 2.1
FONT -Monotype-Nimrod-Bold-I-Normal--14-100-100-100-P-89-iso8859-5
SIZE 10 100 100
FONTBOUNDINGBOX 19 17 -2 -3

STARTPROPERTIES 24
FOUNDRY "Monotype"
FAMILY_NAME "Nimrod"
WEIGHT_NAME "Bold"
SLANT "I"
SETWIDTH_NAME "Normal"
ADD_STYLE_NAME ""
PIXEL_SIZE 14
POINT_SIZE 100
RESOLUTION_X 100
RESOLUTION_Y 100
SPACING "P"
AVERAGE_WIDTH 89
CHARSET_REGISTRY "iso8859"
CHARSET_ENCODING "5"
FACE_NAME "Nimrod Bold Inclined ISO Latin Cyrillic"
_DEC_DEVICE_FONTNAMES "PS=nimrod-bin-latcyrillic"
COPYRIGHT "Copyright (c) 1994 Monotype Typography Ltd."
CAP_HEIGHT 12
X_HEIGHT 9
WEIGHT 10
QUAD_WIDTH 10
DEFAULT_CHAR 160
FONT_DESCENT 3
FONT_ASCENT 14
ENDPROPERTIES

CHARS 191

STARTCHAR space
ENCODING 32
SWIDTH 250 0
DWIDTH 4 0
BBX 0 0 0 0
BITMAP
ENDCHAR

STARTCHAR exclam
ENCODING 33
SWIDTH 375 0
DWIDTH 5 0
BBX 4 11 1 0
BITMAP
10
30
30
30
60
60
60
40
00
C0
C0
ENDCHAR

STARTCHAR quotedbl
ENCODING 34
SWIDTH 552 0
DWIDTH 8 0
BBX 5 5 2 6
BITMAP
48
D8
D8
D8
48
ENDCHAR

STARTCHAR numbersign
ENCODING 35
SWIDTH 667 0
DWIDTH 9 0
BBX 9 11 0 0
BITMAP
1100
1100
1100
7F80
2200
2200
2200
FF00
4400
4400
4400
ENDCHAR

STARTCHAR dollar
ENCODING 36
SWIDTH 510 0
DWIDTH 8 0
BBX 8 13 0 -2
BITMAP
08
3E
6B
69
68
38
1C
16
96
D6
7C
10
10
ENDCHAR

STARTCHAR percent
ENCODING 37
SWIDTH 1000 0
DWIDTH 14 0
BBX 13 11 1 0
BITMAP
3840
6CC0
CC80
CD00
DB00
7270
04D8
0D98
0998
11B0
30E0
ENDCHAR

STARTCHAR ampersand
ENCODING 38
SWIDTH 927 0
DWIDTH 13 0
BBX 12 11 1 0
BITMAP
0700
0980
1980
1900
1E00
6CF0
CC40
C680
C700
E320
7DC0
ENDCHAR

STARTCHAR quoteright
ENCODING 39
SWIDTH 323 0
DWIDTH 5 0
BBX 3 4 1 7
BITMAP
60
60
20
C0
ENDCHAR

STARTCHAR parenleft
ENCODING 40
SWIDTH 385 0
DWIDTH 5 0
BBX 6 13 0 -2
BITMAP
0C
18
30
60
60
C0
C0
C0
C0
C0
60
60
30
ENDCHAR

STARTCHAR parenright
ENCODING 41
SWIDTH 385 0
DWIDTH 5 0
BBX 6 13 -1 -2
BITMAP
30
18
18
0C
0C
0C
0C
0C
18
18
30
60
C0
ENDCHAR

STARTCHAR asterisk
ENCODING 42
SWIDTH 552 0
DWIDTH 8 0
BBX 7 6 1 5
BITMAP
18
D8
FE
36
D8
D8
ENDCHAR

STARTCHAR plus
ENCODING 43
SWIDTH 667 0
DWIDTH 9 0
BBX 7 7 1 1
BITMAP
10
10
10
FE
10
10
10
ENDCHAR

STARTCHAR comma
ENCODING 44
SWIDTH 323 0
DWIDTH 5 0
BBX 3 4 1 -2
BITMAP
60
60
20
C0
ENDCHAR

STARTCHAR minus
ENCODING 45
SWIDTH 667 0
DWIDTH 9 0
BBX 7 1 1 4
BITMAP
FE
ENDCHAR

STARTCHAR period
ENCODING 46
SWIDTH 323 0
DWIDTH 5 0
BBX 2 2 2 0
BITMAP
C0
C0
ENDCHAR

STARTCHAR slash
ENCODING 47
SWIDTH 552 0
DWIDTH 8 0
BBX 7 11 1 0
BITMAP
06
04
0C
08
18
10
30
20
60
40
C0
ENDCHAR

STARTCHAR zero
ENCODING 48
SWIDTH 562 0
DWIDTH 8 0
BBX 8 11 0 0
BITMAP
1E
33
63
63
63
C3
C6
C6
C6
CC
78
ENDCHAR

STARTCHAR one
ENCODING 49
SWIDTH 562 0
DWIDTH 8 0
BBX 6 11 1 0
BITMAP
0C
3C
18
18
30
30
30
60
60
60
F0
ENDCHAR

STARTCHAR two
ENCODING 50
SWIDTH 562 0
DWIDTH 8 0
BBX 7 11 1 0
BITMAP
3C
4E
66
26
04
08
10
20
44
FC
F8
ENDCHAR

STARTCHAR three
ENCODING 51
SWIDTH 562 0
DWIDTH 8 0
BBX 8 11 0 0
BITMAP
1E
23
33
13
06
1C
06
46
C6
8C
78
ENDCHAR

STARTCHAR four
ENCODING 52
SWIDTH 562 0
DWIDTH 8 0
BBX 7 11 1 0
BITMAP
06
0E
16
26
2C
4C
8C
FE
18
18
3C
ENDCHAR

STARTCHAR five
ENCODING 53
SWIDTH 562 0
DWIDTH 8 0
BBX 8 11 0 0
BITMAP
1F
1E
20
20
3C
6E
06
46
C6
8C
78
ENDCHAR

STARTCHAR six
ENCODING 54
SWIDTH 562 0
DWIDTH 8 0
BBX 8 11 0 0
BITMAP
1E
33
61
60
DC
E6
C6
C6
C6
4C
38
ENDCHAR

STARTCHAR seven
ENCODING 55
SWIDTH 562 0
DWIDTH 8 0
BBX 7 11 1 0
BITMAP
7E
FE
84
0C
08
10
30
60
60
C0
C0
ENDCHAR

STARTCHAR eight
ENCODING 56
SWIDTH 562 0
DWIDTH 8 0
BBX 8 11 0 0
BITMAP
1E
33
33
33
16
3C
66
C6
C6
CC
78
ENDCHAR

STARTCHAR nine
ENCODING 57
SWIDTH 562 0
DWIDTH 8 0
BBX 8 11 0 0
BITMAP
1C
32
63
63
63
67
3B
06
86
CC
78
ENDCHAR

STARTCHAR colon
ENCODING 58
SWIDTH 323 0
DWIDTH 5 0
BBX 4 8 1 0
BITMAP
30
30
00
00
00
00
C0
C0
ENDCHAR

STARTCHAR semicolon
ENCODING 59
SWIDTH 323 0
DWIDTH 5 0
BBX 5 10 0 -2
BITMAP
18
18
00
00
00
00
60
60
20
C0
ENDCHAR

STARTCHAR less
ENCODING 60
SWIDTH 667 0
DWIDTH 9 0
BBX 7 7 1 1
BITMAP
02
0C
30
C0
30
0C
02
ENDCHAR

STARTCHAR equal
ENCODING 61
SWIDTH 667 0
DWIDTH 9 0
BBX 7 3 1 3
BITMAP
FE
00
FE
ENDCHAR

STARTCHAR greater
ENCODING 62
SWIDTH 667 0
DWIDTH 9 0
BBX 7 7 1 1
BITMAP
80
60
18
06
18
60
80
ENDCHAR

STARTCHAR question
ENCODING 63
SWIDTH 458 0
DWIDTH 6 0
BBX 6 11 1 0
BITMAP
78
CC
8C
1C
38
20
40
40
00
C0
C0
ENDCHAR

STARTCHAR at
ENCODING 64
SWIDTH 833 0
DWIDTH 13 0
BBX 12 13 1 -2
BITMAP
0F00
30C0
4020
46A0
8D90
8D90
9990
9B20
9B60
4D80
4020
30C0
0F00
ENDCHAR

STARTCHAR A
ENCODING 65
SWIDTH 802 0
DWIDTH 11 0
BBX 11 11 0 0
BITMAP
00C0
01C0
02C0
04C0
04C0
08C0
10C0
1FC0
20C0
60C0
F1E0
ENDCHAR

STARTCHAR B
ENCODING 66
SWIDTH 802 0
DWIDTH 11 0
BBX 10 11 0 0
BITMAP
3F80
19C0
18C0
18C0
3180
3F00
3300
6180
6180
6380
FF00
ENDCHAR

STARTCHAR C
ENCODING 67
SWIDTH 740 0
DWIDTH 10 0
BBX 10 11 1 0
BITMAP
0F80
38C0
6040
6000
C000
C000
C000
C000
C080
6100
3E00
ENDCHAR

STARTCHAR D
ENCODING 68
SWIDTH 854 0
DWIDTH 12 0
BBX 11 11 0 0
BITMAP
3F00
18C0
1860
1860
3060
3060
3060
60C0
60C0
6180
FE00
ENDCHAR

STARTCHAR E
ENCODING 69
SWIDTH 740 0
DWIDTH 11 0
BBX 11 11 0 0
BITMAP
3FE0
1860
1840
1940
3100
3F00
3200
6240
6040
60C0
FF80
ENDCHAR

STARTCHAR F
ENCODING 70
SWIDTH 729 0
DWIDTH 10 0
BBX 11 11 0 0
BITMAP
3FE0
1860
1840
1940
3100
3F00
3200
6200
6000
6000
F000
ENDCHAR

STARTCHAR G
ENCODING 71
SWIDTH 854 0
DWIDTH 12 0
BBX 10 11 1 0
BITMAP
0F80
38C0
6040
6000
C000
C000
C3C0
C180
C180
6300
3E00
ENDCHAR

STARTCHAR H
ENCODING 72
SWIDTH 865 0
DWIDTH 12 0
BBX 12 11 0 0
BITMAP
3CF0
1860
1860
1860
30C0
3FC0
30C0
6180
6180
6180
F3C0
ENDCHAR

STARTCHAR I
ENCODING 73
SWIDTH 479 0
DWIDTH 7 0
BBX 6 11 1 0
BITMAP
3C
18
18
18
30
30
30
60
60
60
F0
ENDCHAR

STARTCHAR J
ENCODING 74
SWIDTH 656 0
DWIDTH 9 0
BBX 10 11 0 0
BITMAP
03C0
0180
0180
0180
0300
0300
0300
6600
C600
8C00
7800
ENDCHAR

STARTCHAR K
ENCODING 75
SWIDTH 823 0
DWIDTH 12 0
BBX 12 11 0 0
BITMAP
3CF0
1860
1880
1900
3200
3600
3B00
6300
6180
6180
F3C0
ENDCHAR

STARTCHAR L
ENCODING 76
SWIDTH 698 0
DWIDTH 10 0
BBX 9 11 0 0
BITMAP
3C00
1800
1800
1800
3000
3000
3000
6080
6080
6180
FF80
ENDCHAR

STARTCHAR M
ENCODING 77
SWIDTH 1031 0
DWIDTH 14 0
BBX 15 11 -1 0
BITMAP
1E1E
0E1C
0E2C
0E2C
1658
1698
1698
2730
2630
6630
F478
ENDCHAR

STARTCHAR N
ENCODING 78
SWIDTH 833 0
DWIDTH 12 0
BBX 14 11 -1 0
BITMAP
383C
1818
0C10
0C20
1620
1620
1340
2340
21C0
6180
F080
ENDCHAR

STARTCHAR O
ENCODING 79
SWIDTH 823 0
DWIDTH 12 0
BBX 11 11 1 0
BITMAP
0F80
38C0
6060
6060
C060
C060
C060
C0C0
C0C0
6380
3E00
ENDCHAR

STARTCHAR P
ENCODING 80
SWIDTH 771 0
DWIDTH 11 0
BBX 11 11 0 0
BITMAP
3FC0
18E0
1860
1860
30C0
3F80
3000
6000
6000
6000
F000
ENDCHAR

STARTCHAR Q
ENCODING 81
SWIDTH 823 0
DWIDTH 12 0
BBX 11 13 1 -2
BITMAP
0F80
38C0
6060
6060
C060
C060
DC60
E2C0
C2C0
6380
3E00
0300
01C0
ENDCHAR

STARTCHAR R
ENCODING 82
SWIDTH 823 0
DWIDTH 12 0
BBX 11 11 0 0
BITMAP
3FC0
18E0
1860
1860
31C0
3F80
3300
6300
6180
6180
F1C0
ENDCHAR

STARTCHAR S
ENCODING 83
SWIDTH 667 0
DWIDTH 9 0
BBX 9 11 0 0
BITMAP
3F80
6180
6100
7100
3800
1C00
0E00
4700
C300
C300
7E00
ENDCHAR

STARTCHAR T
ENCODING 84
SWIDTH 750 0
DWIDTH 11 0
BBX 10 11 1 0
BITMAP
7FC0
CCC0
8C80
8C80
1800
1800
1800
3000
3000
3000
7800
ENDCHAR

STARTCHAR U
ENCODING 85
SWIDTH 792 0
DWIDTH 11 0
BBX 11 11 1 0
BITMAP
78E0
3040
3040
3040
6080
6080
6080
C100
C100
C200
7C00
ENDCHAR

STARTCHAR V
ENCODING 86
SWIDTH 771 0
DWIDTH 11 0
BBX 11 11 1 0
BITMAP
F1E0
60C0
6080
6100
6100
3200
3400
3400
3800
1800
1000
ENDCHAR

STARTCHAR W
ENCODING 87
SWIDTH 1104 0
DWIDTH 15 0
BBX 15 11 1 0
BITMAP
F79E
630C
6308
6310
6310
35A0
35A0
39C0
3180
3180
2100
ENDCHAR

STARTCHAR X
ENCODING 88
SWIDTH 823 0
DWIDTH 12 0
BBX 11 11 1 0
BITMAP
79E0
30C0
1880
1900
0E00
0C00
0E00
1300
2300
6180
F3C0
ENDCHAR

STARTCHAR Y
ENCODING 89
SWIDTH 771 0
DWIDTH 10 0
BBX 10 11 1 0
BITMAP
F3C0
6180
6100
3200
3400
1C00
1800
1800
3000
3000
7800
ENDCHAR

STARTCHAR Z
ENCODING 90
SWIDTH 719 0
DWIDTH 10 0
BBX 10 11 0 0
BITMAP
3FC0
60C0
4180
4300
0600
0C00
1800
3080
6080
C180
FF00
ENDCHAR

STARTCHAR bracketleft
ENCODING 91
SWIDTH 396 0
DWIDTH 6 0
BBX 7 13 0 -2
BITMAP
1E
18
18
30
30
30
70
60
60
60
C0
C0
F0
ENDCHAR

STARTCHAR backslash
ENCODING 92
SWIDTH 552 0
DWIDTH 8 0
BBX 8 11 0 0
BITMAP
C0
60
20
30
10
18
08
0C
04
06
03
ENDCHAR

STARTCHAR bracketright
ENCODING 93
SWIDTH 396 0
DWIDTH 6 0
BBX 7 13 -1 -2
BITMAP
1E
06
06
0C
0C
0C
1C
18
18
18
30
30
F0
ENDCHAR

STARTCHAR asciicircum
ENCODING 94
SWIDTH 573 0
DWIDTH 8 0
BBX 6 5 1 6
BITMAP
30
30
48
CC
84
ENDCHAR

STARTCHAR underscore
ENCODING 95
SWIDTH 500 0
DWIDTH 7 0
BBX 7 1 0 -3
BITMAP
FE
ENDCHAR

STARTCHAR quoteleft
ENCODING 96
SWIDTH 323 0
DWIDTH 5 0
BBX 3 4 1 7
BITMAP
60
80
C0
C0
ENDCHAR

STARTCHAR a
ENCODING 97
SWIDTH 667 0
DWIDTH 9 0
BBX 9 8 0 0
BITMAP
3B00
7700
6300
E300
C600
C600
CE80
7700
ENDCHAR

STARTCHAR b
ENCODING 98
SWIDTH 635 0
DWIDTH 9 0
BBX 8 11 1 0
BITMAP
70
30
30
6E
77
63
63
C3
C6
EE
D8
ENDCHAR

STARTCHAR c
ENCODING 99
SWIDTH 510 0
DWIDTH 7 0
BBX 7 8 0 0
BITMAP
1C
76
62
C0
C0
C0
E4
78
ENDCHAR

STARTCHAR d
ENCODING 100
SWIDTH 667 0
DWIDTH 9 0
BBX 9 11 0 0
BITMAP
0380
0180
0180
1D80
7700
6300
C300
C300
C600
EE80
7700
ENDCHAR

STARTCHAR e
ENCODING 101
SWIDTH 500 0
DWIDTH 7 0
BBX 7 8 0 0
BITMAP
1C
76
66
CC
F0
C0
E4
78
ENDCHAR

STARTCHAR f
ENCODING 102
SWIDTH 406 0
DWIDTH 6 0
BBX 10 13 -2 -2
BITMAP
0380
06C0
0600
1F00
0C00
0C00
0C00
1800
1800
1800
1800
D000
6000
ENDCHAR

STARTCHAR g
ENCODING 103
SWIDTH 625 0
DWIDTH 9 0
BBX 9 10 0 -2
BITMAP
1E80
3300
3300
3300
1E00
3000
7E00
FF00
C300
7E00
ENDCHAR

STARTCHAR h
ENCODING 104
SWIDTH 677 0
DWIDTH 9 0
BBX 9 11 0 0
BITMAP
7000
3000
3000
3600
6B00
7300
6300
6600
C600
C680
C300
ENDCHAR

STARTCHAR i
ENCODING 105
SWIDTH 396 0
DWIDTH 6 0
BBX 4 11 1 0
BITMAP
30
30
00
E0
60
60
60
C0
C0
D0
60
ENDCHAR

STARTCHAR j
ENCODING 106
SWIDTH 396 0
DWIDTH 6 0
BBX 7 13 -1 -2
BITMAP
06
06
00
1C
0C
0C
0C
18
18
18
18
D0
60
ENDCHAR

STARTCHAR k
ENCODING 107
SWIDTH 646 0
DWIDTH 9 0
BBX 9 11 1 0
BITMAP
7000
3000
3000
3300
6580
6800
7800
6C00
CC00
CD00
C600
ENDCHAR

STARTCHAR l
ENCODING 108
SWIDTH 396 0
DWIDTH 6 0
BBX 4 11 1 0
BITMAP
70
30
30
30
60
60
60
C0
C0
D0
60
ENDCHAR

STARTCHAR m
ENCODING 109
SWIDTH 948 0
DWIDTH 13 0
BBX 12 8 1 0
BITMAP
ECC0
7760
6660
6660
CCC0
CCC0
CCD0
CC60
ENDCHAR

STARTCHAR n
ENCODING 110
SWIDTH 677 0
DWIDTH 9 0
BBX 8 8 1 0
BITMAP
EC
76
66
66
CC
CC
CD
C6
ENDCHAR

STARTCHAR o
ENCODING 111
SWIDTH 594 0
DWIDTH 8 0
BBX 8 8 0 0
BITMAP
1E
77
63
C3
C3
C6
EE
78
ENDCHAR

STARTCHAR p
ENCODING 112
SWIDTH 646 0
DWIDTH 9 0
BBX 10 10 -1 -2
BITMAP
3B80
1DC0
18C0
18C0
30C0
3180
3B80
6E00
6000
F000
ENDCHAR

STARTCHAR q
ENCODING 113
SWIDTH 625 0
DWIDTH 9 0
BBX 8 10 1 -2
BITMAP
1B
77
63
C3
C6
C6
EE
7C
0C
1E
ENDCHAR

STARTCHAR r
ENCODING 114
SWIDTH 552 0
DWIDTH 8 0
BBX 7 8 2 0
BITMAP
EC
76
60
60
C0
C0
C0
C0
ENDCHAR

STARTCHAR s
ENCODING 115
SWIDTH 500 0
DWIDTH 7 0
BBX 7 8 0 0
BITMAP
3C
66
62
30
18
8C
CC
78
ENDCHAR

STARTCHAR t
ENCODING 116
SWIDTH 406 0
DWIDTH 6 0
BBX 5 11 1 0
BITMAP
10
10
30
F8
60
60
60
C0
C0
D0
60
ENDCHAR

STARTCHAR u
ENCODING 117
SWIDTH 677 0
DWIDTH 9 0
BBX 8 8 1 0
BITMAP
E6
66
66
66
CC
CC
DD
6E
ENDCHAR

STARTCHAR v
ENCODING 118
SWIDTH 562 0
DWIDTH 8 0
BBX 7 8 1 0
BITMAP
EC
66
62
62
C6
C4
CC
78
ENDCHAR

STARTCHAR w
ENCODING 119
SWIDTH 865 0
DWIDTH 12 0
BBX 11 8 1 0
BITMAP
E6C0
6660
6620
6620
CC60
CC40
CCC0
7780
ENDCHAR

STARTCHAR x
ENCODING 120
SWIDTH 625 0
DWIDTH 9 0
BBX 10 8 0 0
BITMAP
18C0
2C80
0D00
0E00
1C00
2C00
4D00
C600
ENDCHAR

STARTCHAR y
ENCODING 121
SWIDTH 552 0
DWIDTH 8 0
BBX 9 10 -1 -2
BITMAP
3100
5980
1880
1900
1900
1A00
0C00
8800
D000
6000
ENDCHAR

STARTCHAR z
ENCODING 122
SWIDTH 542 0
DWIDTH 8 0
BBX 8 8 0 0
BITMAP
3B
5E
44
08
10
22
7A
DC
ENDCHAR

STARTCHAR braceleft
ENCODING 123
SWIDTH 396 0
DWIDTH 6 0
BBX 5 13 1 -2
BITMAP
18
30
30
30
60
C0
C0
60
60
60
C0
C0
60
ENDCHAR

STARTCHAR bar
ENCODING 124
SWIDTH 542 0
DWIDTH 8 0
BBX 2 11 3 0
BITMAP
C0
C0
C0
C0
C0
C0
C0
C0
C0
C0
C0
ENDCHAR

STARTCHAR braceright
ENCODING 125
SWIDTH 396 0
DWIDTH 6 0
BBX 5 13 0 -2
BITMAP
30
18
18
30
30
30
18
18
30
60
60
60
C0
ENDCHAR

STARTCHAR asciitilde
ENCODING 126
SWIDTH 667 0
DWIDTH 9 0
BBX 7 2 1 4
BITMAP
7A
BC
ENDCHAR

STARTCHAR space
ENCODING 160
SWIDTH 250 0
DWIDTH 4 0
BBX 0 0 0 0
BITMAP
ENDCHAR

STARTCHAR afii10023
ENCODING 161
SWIDTH 740 0
DWIDTH 11 0
BBX 11 14 0 0
BITMAP
0CC0
0CC0
0000
3FE0
1860
1840
1940
3100
3F00
3200
6240
6040
60C0
FF80
ENDCHAR

STARTCHAR afii10051
ENCODING 162
SWIDTH 896 0
DWIDTH 11 0
BBX 11 11 0 0
BITMAP
7FC0
CCC0
8C80
0C00
1BC0
1CE0
1860
3060
3060
30C0
7B80
ENDCHAR

STARTCHAR afii10052
ENCODING 163
SWIDTH 719 0
DWIDTH 10 0
BBX 10 14 0 0
BITMAP
0180
0300
0000
3FC0
18C0
1880
1880
3000
3000
3000
6000
6000
6000
F000
ENDCHAR

STARTCHAR afii10053
ENCODING 164
SWIDTH 740 0
DWIDTH 11 0
BBX 10 11 1 0
BITMAP
0F80
38C0
6040
6000
C000
FC00
C000
C000
C080
6100
3E00
ENDCHAR

STARTCHAR afii10054
ENCODING 165
SWIDTH 667 0
DWIDTH 9 0
BBX 9 11 0 0
BITMAP
3F80
6180
6100
7100
3800
1C00
0E00
4700
C300
C300
7E00
ENDCHAR

STARTCHAR afii10055
ENCODING 166
SWIDTH 479 0
DWIDTH 7 0
BBX 6 11 1 0
BITMAP
3C
18
18
18
30
30
30
60
60
60
F0
ENDCHAR

STARTCHAR afii10056
ENCODING 167
SWIDTH 479 0
DWIDTH 7 0
BBX 8 14 1 0
BITMAP
33
33
00
3C
18
18
18
30
30
30
60
60
60
F0
ENDCHAR

STARTCHAR afii10057
ENCODING 168
SWIDTH 656 0
DWIDTH 9 0
BBX 10 11 0 0
BITMAP
03C0
0180
0180
0180
0300
0300
0300
6600
C600
8C00
7800
ENDCHAR

STARTCHAR afii10058
ENCODING 169
SWIDTH 1219 0
DWIDTH 17 0
BBX 17 11 0 0
BITMAP
0FF800
043000
043000
043000
086000
087F00
086380
10C180
D0C180
90C300
61FE00
ENDCHAR

STARTCHAR afii10059
ENCODING 170
SWIDTH 1198 0
DWIDTH 16 0
BBX 16 11 0 0
BITMAP
3CF0
1860
1860
1860
30C0
3FFE
30C7
6183
6183
6186
F3FC
ENDCHAR

STARTCHAR afii10060
ENCODING 171
SWIDTH 917 0
DWIDTH 11 0
BBX 11 11 0 0
BITMAP
7FC0
CCC0
8C80
0C00
1BC0
1CE0
1860
3060
30C0
30C0
79E0
ENDCHAR

STARTCHAR afii10061
ENCODING 172
SWIDTH 833 0
DWIDTH 12 0
BBX 12 14 0 0
BITMAP
0180
0300
0000
3CE0
19B0
1920
1900
3200
3E00
3300
6300
6180
6180
F1C0
ENDCHAR

STARTCHAR hyphen
ENCODING 173
SWIDTH 323 0
DWIDTH 6 0
BBX 4 1 1 3
BITMAP
F0
ENDCHAR

STARTCHAR afii10062
ENCODING 174
SWIDTH 781 0
DWIDTH 11 0
BBX 11 14 1 0
BITMAP
0CC0
0780
0000
78E0
3040
3080
3080
1900
1A00
1C00
0C00
8800
D000
6000
ENDCHAR

STARTCHAR afii10145
ENCODING 175
SWIDTH 865 0
DWIDTH 12 0
BBX 12 13 0 -2
BITMAP
3CF0
1860
1860
1860
30C0
30C0
30C0
6180
6180
6180
FFC0
0C00
0C00
ENDCHAR

STARTCHAR afii10017
ENCODING 176
SWIDTH 802 0
DWIDTH 11 0
BBX 11 11 0 0
BITMAP
00C0
01C0
02C0
04C0
04C0
08C0
10C0
1FC0
20C0
60C0
F1E0
ENDCHAR

STARTCHAR afii10018
ENCODING 177
SWIDTH 802 0
DWIDTH 11 0
BBX 11 11 0 0
BITMAP
3FE0
1860
1840
1840
3000
3F80
31C0
60C0
60C0
6180
FF00
ENDCHAR

STARTCHAR afii10019
ENCODING 178
SWIDTH 802 0
DWIDTH 11 0
BBX 10 11 0 0
BITMAP
3F80
19C0
18C0
18C0
3180
3F00
3300
6180
6180
6380
FF00
ENDCHAR

STARTCHAR afii10020
ENCODING 179
SWIDTH 719 0
DWIDTH 10 0
BBX 10 11 0 0
BITMAP
3FC0
18C0
1880
1880
3000
3000
3000
6000
6000
6000
F000
ENDCHAR

STARTCHAR afii10021
ENCODING 180
SWIDTH 813 0
DWIDTH 12 0
BBX 12 13 0 -2
BITMAP
1FF0
0860
0860
0860
10C0
10C0
10C0
2180
2180
4180
FFC0
C0C0
8080
ENDCHAR

STARTCHAR afii10022
ENCODING 181
SWIDTH 740 0
DWIDTH 11 0
BBX 11 11 0 0
BITMAP
3FE0
1860
1840
1940
3100
3F00
3200
6240
6040
60C0
FF80
ENDCHAR

STARTCHAR afii10024
ENCODING 182
SWIDTH 1177 0
DWIDTH 17 0
BBX 17 11 0 0
BITMAP
39E700
6CCD80
24C900
04C800
039000
0FF000
199800
331800
330C00
630C00
E78E00
ENDCHAR

STARTCHAR afii10025
ENCODING 183
SWIDTH 656 0
DWIDTH 9 0
BBX 9 11 0 0
BITMAP
3F00
3380
2180
2180
0300
1E00
0700
0300
8300
C600
7C00
ENDCHAR

STARTCHAR afii10026
ENCODING 184
SWIDTH 865 0
DWIDTH 12 0
BBX 12 11 0 0
BITMAP
3CF0
1860
18E0
1960
32C0
34C0
38C0
7180
6180
6180
F3C0
ENDCHAR

STARTCHAR afii10027
ENCODING 185
SWIDTH 865 0
DWIDTH 12 0
BBX 12 14 0 0
BITMAP
0CC0
0780
0000
3CF0
1860
18E0
1960
32C0
34C0
38C0
7180
6180
6180
F3C0
ENDCHAR

STARTCHAR afii10028
ENCODING 186
SWIDTH 844 0
DWIDTH 12 0
BBX 12 11 0 0
BITMAP
3CE0
19B0
1920
1900
3200
3E00
3300
6300
6180
6180
F1C0
ENDCHAR

STARTCHAR afii10029
ENCODING 187
SWIDTH 865 0
DWIDTH 12 0
BBX 13 11 -1 0
BITMAP
0FF8
0430
0430
0430
0860
0860
0860
10C0
D0C0
90C0
61E0
ENDCHAR

STARTCHAR afii10030
ENCODING 188
SWIDTH 1031 0
DWIDTH 14 0
BBX 15 11 -1 0
BITMAP
1E1E
0E1C
0E2C
0E2C
1658
1698
1698
2730
2630
6630
F478
ENDCHAR

STARTCHAR afii10031
ENCODING 189
SWIDTH 865 0
DWIDTH 12 0
BBX 12 11 0 0
BITMAP
3CF0
1860
1860
1860
30C0
3FC0
30C0
6180
6180
6180
F3C0
ENDCHAR

STARTCHAR afii10032
ENCODING 190
SWIDTH 823 0
DWIDTH 12 0
BBX 11 11 1 0
BITMAP
0F80
38C0
6060
6060
C060
C060
C060
C0C0
C0C0
6380
3E00
ENDCHAR

STARTCHAR afii10033
ENCODING 191
SWIDTH 865 0
DWIDTH 12 0
BBX 12 11 0 0
BITMAP
3FF0
1860
1860
1860
30C0
30C0
30C0
6180
6180
6180
F3C0
ENDCHAR

STARTCHAR afii10034
ENCODING 192
SWIDTH 771 0
DWIDTH 11 0
BBX 11 11 0 0
BITMAP
3FC0
18E0
1860
1860
30C0
3F80
3000
6000
6000
6000
F000
ENDCHAR

STARTCHAR afii10035
ENCODING 193
SWIDTH 740 0
DWIDTH 10 0
BBX 10 11 1 0
BITMAP
0F80
38C0
6040
6000
C000
C000
C000
C000
C080
6100
3E00
ENDCHAR

STARTCHAR afii10036
ENCODING 194
SWIDTH 750 0
DWIDTH 11 0
BBX 10 11 1 0
BITMAP
7FC0
CCC0
8C80
8C80
1800
1800
1800
3000
3000
3000
7800
ENDCHAR

STARTCHAR afii10037
ENCODING 195
SWIDTH 781 0
DWIDTH 11 0
BBX 11 11 1 0
BITMAP
78E0
3040
3080
3080
1900
1A00
1C00
0C00
8800
D000
6000
ENDCHAR

STARTCHAR afii10038
ENCODING 196
SWIDTH 990 0
DWIDTH 13 0
BBX 12 11 1 0
BITMAP
0780
0300
1FE0
7330
6630
C630
C660
CCE0
7F80
0C00
1E00
ENDCHAR

STARTCHAR afii10039
ENCODING 197
SWIDTH 823 0
DWIDTH 12 0
BBX 11 11 1 0
BITMAP
79E0
30C0
1880
1900
0E00
0C00
0E00
1300
2300
6180
F3C0
ENDCHAR

STARTCHAR afii10040
ENCODING 198
SWIDTH 865 0
DWIDTH 12 0
BBX 12 13 0 -2
BITMAP
3CF0
1860
1860
1860
30C0
30C0
30C0
6180
6180
6180
FFC0
00C0
0080
ENDCHAR

STARTCHAR afii10041
ENCODING 199
SWIDTH 823 0
DWIDTH 11 0
BBX 10 11 1 0
BITMAP
F3C0
6180
6180
C180
C300
C700
7B00
0600
0600
0600
0F00
ENDCHAR

STARTCHAR afii10042
ENCODING 200
SWIDTH 1240 0
DWIDTH 16 0
BBX 16 11 0 0
BITMAP
3DEF
18C6
18C6
18C6
318C
318C
318C
6318
6318
6318
FFFC
ENDCHAR

STARTCHAR afii10043
ENCODING 201
SWIDTH 1240 0
DWIDTH 16 0
BBX 16 13 0 -2
BITMAP
3DEF
18C6
18C6
18C6
318C
318C
318C
6318
6318
6318
FFFC
000C
0008
ENDCHAR

STARTCHAR afii10044
ENCODING 202
SWIDTH 938 0
DWIDTH 11 0
BBX 11 11 0 0
BITMAP
7E00
CC00
8C00
0C00
1800
1FC0
18E0
3060
3060
30C0
7F80
ENDCHAR

STARTCHAR afii10045
ENCODING 203
SWIDTH 1240 0
DWIDTH 16 0
BBX 16 11 0 0
BITMAP
3C0F
1806
1806
1806
300C
3F8C
31CC
60D8
60D8
6198
FF3C
ENDCHAR

STARTCHAR afii10046
ENCODING 204
SWIDTH 802 0
DWIDTH 10 0
BBX 10 11 0 0
BITMAP
3C00
1800
1800
1800
3000
3F80
31C0
60C0
60C0
6180
FF00
ENDCHAR

STARTCHAR afii10047
ENCODING 205
SWIDTH 740 0
DWIDTH 10 0
BBX 10 11 0 0
BITMAP
1F00
3180
21C0
00C0
00C0
0FC0
00C0
0180
8180
4F00
3C00
ENDCHAR

STARTCHAR afii10048
ENCODING 206
SWIDTH 1135 0
DWIDTH 17 0
BBX 17 11 0 0
BITMAP
3C3E00
18E300
198180
198180
330180
3F0180
330180
630300
630300
618E00
F0F800
ENDCHAR

STARTCHAR afii10049
ENCODING 207
SWIDTH 844 0
DWIDTH 12 0
BBX 12 11 0 0
BITMAP
0FF0
1C60
1860
1860
1CC0
0FC0
18C0
3180
3180
6180
E3C0
ENDCHAR

STARTCHAR afii10065
ENCODING 208
SWIDTH 667 0
DWIDTH 9 0
BBX 9 8 0 0
BITMAP
3B00
7700
6300
E300
C600
C600
CE80
7700
ENDCHAR

STARTCHAR afii10066
ENCODING 209
SWIDTH 594 0
DWIDTH 8 0
BBX 9 11 0 0
BITMAP
0F80
3800
6000
5E00
E700
C300
C300
C300
C600
EE00
7800
ENDCHAR

STARTCHAR afii10067
ENCODING 210
SWIDTH 563 0
DWIDTH 7 0
BBX 7 8 0 0
BITMAP
1C
76
66
CC
F8
CC
E4
78
ENDCHAR

STARTCHAR afii10068
ENCODING 211
SWIDTH 500 0
DWIDTH 7 0
BBX 7 8 0 0
BITMAP
3C
46
06
1C
70
C0
C4
78
ENDCHAR

STARTCHAR afii10069
ENCODING 212
SWIDTH 594 0
DWIDTH 8 0
BBX 8 11 0 0
BITMAP
1C
06
03
1B
77
63
C3
C3
C6
EE
78
ENDCHAR

STARTCHAR afii10070
ENCODING 213
SWIDTH 500 0
DWIDTH 7 0
BBX 7 8 0 0
BITMAP
1C
76
66
CC
F0
C0
E4
78
ENDCHAR

STARTCHAR afii10072
ENCODING 214
SWIDTH 1146 0
DWIDTH 16 0
BBX 16 8 0 0
BITMAP
38CE
4CDB
0D92
0FF0
0DB0
49B0
DB32
731C
ENDCHAR

STARTCHAR afii10073
ENCODING 215
SWIDTH 542 0
DWIDTH 7 0
BBX 7 8 0 0
BITMAP
7C
66
46
1C
0C
8C
CC
78
ENDCHAR

STARTCHAR afii10074
ENCODING 216
SWIDTH 677 0
DWIDTH 9 0
BBX 8 8 1 0
BITMAP
E6
66
66
66
CC
CC
DD
6E
ENDCHAR

STARTCHAR afii10075
ENCODING 217
SWIDTH 677 0
DWIDTH 9 0
BBX 8 11 1 0
BITMAP
66
3C
00
E6
66
66
66
CC
CC
DD
6E
ENDCHAR

STARTCHAR afii10076
ENCODING 218
SWIDTH 646 0
DWIDTH 9 0
BBX 8 8 1 0
BITMAP
E3
65
64
78
D8
CC
CC
CE
ENDCHAR

STARTCHAR afii10077
ENCODING 219
SWIDTH 708 0
DWIDTH 10 0
BBX 11 8 -1 0
BITMAP
03E0
04C0
08C0
08C0
1180
1180
D1A0
60C0
ENDCHAR

STARTCHAR afii10078
ENCODING 220
SWIDTH 948 0
DWIDTH 13 0
BBX 13 8 0 0
BITMAP
1E18
0E30
0E70
16B0
1730
1760
A668
C470
ENDCHAR

STARTCHAR afii10079
ENCODING 221
SWIDTH 688 0
DWIDTH 9 0
BBX 8 8 1 0
BITMAP
E6
66
66
7E
CC
CC
CD
CE
ENDCHAR

STARTCHAR afii10080
ENCODING 222
SWIDTH 594 0
DWIDTH 8 0
BBX 8 8 0 0
BITMAP
1E
77
63
C3
C3
C6
EE
78
ENDCHAR

STARTCHAR afii10081
ENCODING 223
SWIDTH 677 0
DWIDTH 9 0
BBX 8 8 1 0
BITMAP
EC
76
66
66
CC
CC
CD
C6
ENDCHAR

STARTCHAR afii10082
ENCODING 224
SWIDTH 646 0
DWIDTH 9 0
BBX 10 10 -1 -2
BITMAP
3B80
1DC0
18C0
18C0
30C0
3180
3B80
6E00
6000
F000
ENDCHAR

STARTCHAR afii10083
ENCODING 225
SWIDTH 510 0
DWIDTH 7 0
BBX 7 8 0 0
BITMAP
1C
76
62
C0
C0
C0
E4
78
ENDCHAR

STARTCHAR afii10084
ENCODING 226
SWIDTH 958 0
DWIDTH 13 0
BBX 12 8 1 0
BITMAP
ECC0
7760
6660
6660
CCC0
CCC0
CCD0
CC60
ENDCHAR

STARTCHAR afii10085
ENCODING 227
SWIDTH 531 0
DWIDTH 8 0
BBX 9 10 -1 -2
BITMAP
3100
5980
1880
1900
1900
1A00
0C00
8800
D000
6000
ENDCHAR

STARTCHAR afii10086
ENCODING 228
SWIDTH 833 0
DWIDTH 11 0
BBX 11 13 0 -2
BITMAP
01C0
0300
0300
36C0
6F60
6660
C660
CC60
CCC0
DEC0
6D80
1800
7000
ENDCHAR

STARTCHAR afii10087
ENCODING 229
SWIDTH 615 0
DWIDTH 9 0
BBX 10 8 0 0
BITMAP
18C0
2C80
0D00
0E00
1C00
2C00
4D00
C600
ENDCHAR

STARTCHAR afii10088
ENCODING 230
SWIDTH 677 0
DWIDTH 9 0
BBX 8 10 1 -2
BITMAP
E6
66
66
66
CC
CC
DD
6E
0C
18
ENDCHAR

STARTCHAR afii10089
ENCODING 231
SWIDTH 646 0
DWIDTH 9 0
BBX 8 8 1 0
BITMAP
E3
63
C6
CE
76
0C
0D
06
ENDCHAR

STARTCHAR afii10090
ENCODING 232
SWIDTH 948 0
DWIDTH 13 0
BBX 13 8 0 0
BITMAP
6330
B330
3330
3330
6660
6660
6EE8
3770
ENDCHAR

STARTCHAR afii10091
ENCODING 233
SWIDTH 948 0
DWIDTH 13 0
BBX 13 10 0 -2
BITMAP
6330
B330
3330
3330
6660
6660
6EE8
3770
0060
00C0
ENDCHAR

STARTCHAR afii10092
ENCODING 234
SWIDTH 646 0
DWIDTH 8 0
BBX 8 8 0 0
BITMAP
78
98
18
1E
33
63
66
3C
ENDCHAR

STARTCHAR afii10093
ENCODING 235
SWIDTH 917 0
DWIDTH 12 0
BBX 12 8 0 0
BITMAP
70E0
3060
3060
3C60
66C0
C6C0
CCD0
7860
ENDCHAR

STARTCHAR afii10094
ENCODING 236
SWIDTH 604 0
DWIDTH 7 0
BBX 7 8 0 0
BITMAP
70
30
30
3C
66
C6
CC
78
ENDCHAR

STARTCHAR afii10095
ENCODING 237
SWIDTH 521 0
DWIDTH 7 0
BBX 7 8 0 0
BITMAP
3C
4E
06
3E
06
8C
DC
70
ENDCHAR

STARTCHAR afii10096
ENCODING 238
SWIDTH 885 0
DWIDTH 13 0
BBX 12 8 1 0
BITMAP
E1E0
6770
6630
7C30
CC30
CC60
CEE0
C780
ENDCHAR

STARTCHAR afii10097
ENCODING 239
SWIDTH 667 0
DWIDTH 9 0
BBX 10 8 -1 0
BITMAP
1FC0
3980
3180
3980
1F00
3300
6340
E180
ENDCHAR

STARTCHAR afii61352
ENCODING 240
SWIDTH 1115 0
DWIDTH 17 0
BBX 17 11 0 0
BITMAP
1C1C00
0E2800
0E2000
0A2700
0B2D80
0B3980
135980
115B00
11CE00
D1C000
60CE00
ENDCHAR

STARTCHAR afii10071
ENCODING 241
SWIDTH 500 0
DWIDTH 7 0
BBX 8 11 0 0
BITMAP
33
33
00
1C
76
66
CC
F0
C0
E4
78
ENDCHAR

STARTCHAR afii10099
ENCODING 242
SWIDTH 635 0
DWIDTH 9 0
BBX 8 13 0 -2
BITMAP
30
7E
30
36
6B
73
63
66
C6
C6
C6
06
0C
ENDCHAR

STARTCHAR afii10100
ENCODING 243
SWIDTH 563 0
DWIDTH 8 0
BBX 8 11 0 0
BITMAP
06
0C
00
7F
33
32
30
60
60
60
F0
ENDCHAR

STARTCHAR afii10101
ENCODING 244
SWIDTH 510 0
DWIDTH 7 0
BBX 7 8 0 0
BITMAP
3C
72
60
F8
C0
C4
EC
78
ENDCHAR

STARTCHAR afii10102
ENCODING 245
SWIDTH 500 0
DWIDTH 7 0
BBX 7 8 0 0
BITMAP
3C
66
62
30
18
8C
CC
78
ENDCHAR

STARTCHAR afii10103
ENCODING 246
SWIDTH 396 0
DWIDTH 6 0
BBX 4 11 1 0
BITMAP
30
30
00
E0
60
60
60
C0
C0
D0
60
ENDCHAR

STARTCHAR afii10104
ENCODING 247
SWIDTH 396 0
DWIDTH 6 0
BBX 6 11 1 0
BITMAP
CC
CC
00
E0
60
60
60
C0
C0
D0
60
ENDCHAR

STARTCHAR afii10105
ENCODING 248
SWIDTH 396 0
DWIDTH 6 0
BBX 7 13 -1 -2
BITMAP
06
06
00
1C
0C
0C
0C
18
18
18
18
D0
60
ENDCHAR

STARTCHAR afii10106
ENCODING 249
SWIDTH 969 0
DWIDTH 13 0
BBX 13 8 0 0
BITMAP
03C0
04C0
08C0
08F0
1198
1318
D330
61E0
ENDCHAR

STARTCHAR afii10107
ENCODING 250
SWIDTH 917 0
DWIDTH 12 0
BBX 11 8 1 0
BITMAP
EE00
6600
6600
7FC0
C660
CC60
CCC0
C780
ENDCHAR

STARTCHAR afii10108
ENCODING 251
SWIDTH 677 0
DWIDTH 9 0
BBX 9 11 0 0
BITMAP
3000
7E00
3000
3600
6B00
7300
6300
6600
C600
C680
C300
ENDCHAR

STARTCHAR afii10109
ENCODING 252
SWIDTH 646 0
DWIDTH 9 0
BBX 8 11 1 0
BITMAP
0C
18
00
E3
65
64
78
D8
CC
CC
CE
ENDCHAR

STARTCHAR section
ENCODING 253
SWIDTH 552 0
DWIDTH 8 0
BBX 8 13 0 -2
BITMAP
0E
1B
12
38
6C
44
66
22
36
1C
48
D8
70
ENDCHAR

STARTCHAR afii10110
ENCODING 254
SWIDTH 531 0
DWIDTH 8 0
BBX 9 13 -1 -2
BITMAP
1980
0F00
0000
3100
5980
1880
1900
1900
1A00
0C00
8800
D000
6000
ENDCHAR

STARTCHAR afii10193
ENCODING 255
SWIDTH 677 0
DWIDTH 9 0
BBX 9 10 0 -2
BITMAP
7300
3300
3300
3300
6600
6600
6E80
3700
6000
C000
ENDCHAR

ENDFONT
