STARTFONT 2.1
FONT -DEC-Terminal-Bold-R-Narrow--25-180-100-100-C-70-ISO8859-8
SIZE 18 100 100
FONTBOUNDINGBOX 9 24 0 -4

STARTPROPERTIES 25
CHARSET_REGISTRY "ISO8859"
CHARSET_ENCODING "8"
CAP_HEIGHT 15
X_HEIGHT 12
AVERAGE_WIDTH 70
FONTNAME_REGISTRY ""
FAMILY_NAME "Terminal"
FOUNDRY "DEC"
WEIGHT_NAME "Bold"
SETWIDTH_NAME "Narrow"
SLANT "R"
ADD_STYLE_NAME ""
PIXEL_SIZE 25
RESOLUTION_X 100
RESOLUTION_Y 100
SPACING "C"
CHARSET_COLLECTIONS "ASCII ISO8859-8"
FULL_NAME "Terminal Bold Narrow"
COPYRIGHT "Copyright (c) 1988 Bitstream, Inc., Copyright 1991 Digital Equipment Corp."
QUAD_WIDTH 9
POINT_SIZE 180
WEIGHT 10
DEFAULT_CHAR 0
FONT_DESCENT 4
FONT_ASCENT 24
ENDPROPERTIES

CHARS 194

STARTCHAR space
ENCODING 32
SWIDTH 360 0
DWIDTH 9 0
BBX 3 15 3 0
BITMAP
00
00
00
00
00
00
00
00
00
00
00
00
00
00
00
ENDCHAR

STARTCHAR exclam
ENCODING 33
SWIDTH 360 0
DWIDTH 9 0
BBX 3 15 3 0
BITMAP
C0
C0
C0
C0
C0
C0
C0
C0
C0
C0
00
40
E0
E0
40
ENDCHAR

STARTCHAR quotedbl
ENCODING 34
SWIDTH 360 0
DWIDTH 9 0
BBX 6 6 1 11
BITMAP
CC
CC
CC
CC
CC
CC
ENDCHAR

STARTCHAR numbersign
ENCODING 35
SWIDTH 360 0
DWIDTH 9 0
BBX 6 16 2 -1
BITMAP
48
48
48
48
FC
FC
48
48
48
48
FC
FC
48
48
48
48
ENDCHAR

STARTCHAR dollar
ENCODING 36
SWIDTH 320 0
DWIDTH 8 0
BBX 7 20 1 -3
BITMAP
18
18
18
7C
FE
C6
C0
C0
C0
FC
7E
06
06
C6
C6
FE
7C
18
18
18
ENDCHAR

STARTCHAR percent
ENCODING 37
SWIDTH 320 0
DWIDTH 8 0
BBX 8 15 0 0
BITMAP
78
CC
CC
CC
79
07
0C
18
70
C0
9E
33
33
33
1E
ENDCHAR

STARTCHAR ampersand
ENCODING 38
SWIDTH 320 0
DWIDTH 8 0
BBX 7 15 0 0
BITMAP
1C
7C
60
60
60
60
30
30
7A
CE
CC
CC
CC
FE
76
ENDCHAR

STARTCHAR quoteright
ENCODING 39
SWIDTH 320 0
DWIDTH 8 0
BBX 5 5 2 11
BITMAP
38
30
60
60
C0
ENDCHAR

STARTCHAR parenleft
ENCODING 40
SWIDTH 320 0
DWIDTH 8 0
BBX 5 18 2 -2
BITMAP
18
30
60
60
C0
C0
C0
C0
C0
C0
C0
C0
C0
60
60
30
30
18
ENDCHAR

STARTCHAR parenright
ENCODING 41
SWIDTH 320 0
DWIDTH 8 0
BBX 5 18 1 -2
BITMAP
C0
60
30
30
18
18
18
18
18
18
18
18
18
30
30
60
60
C0
ENDCHAR

STARTCHAR asterisk
ENCODING 42
SWIDTH 320 0
DWIDTH 8 0
BBX 7 8 0 4
BITMAP
10
D6
D6
7C
38
38
6C
6C
ENDCHAR

STARTCHAR plus
ENCODING 43
SWIDTH 320 0
DWIDTH 8 0
BBX 6 8 1 3
BITMAP
30
30
30
FC
FC
30
30
30
ENDCHAR

STARTCHAR comma
ENCODING 44
SWIDTH 320 0
DWIDTH 8 0
BBX 5 6 2 -2
BITMAP
38
30
60
60
C0
C0
ENDCHAR

STARTCHAR minus
ENCODING 45
SWIDTH 320 0
DWIDTH 8 0
BBX 6 2 1 6
BITMAP
FC
FC
ENDCHAR

STARTCHAR period
ENCODING 46
SWIDTH 320 0
DWIDTH 8 0
BBX 3 4 2 0
BITMAP
40
E0
E0
40
ENDCHAR

STARTCHAR slash
ENCODING 47
SWIDTH 320 0
DWIDTH 8 0
BBX 6 19 1 -2
BITMAP
0C
0C
0C
0C
18
18
18
30
30
30
30
60
60
60
60
C0
C0
C0
C0
ENDCHAR

STARTCHAR zero
ENCODING 48
SWIDTH 360 0
DWIDTH 9 0
BBX 7 15 1 0
BITMAP
38
7C
6C
C6
C6
C6
C6
C6
C6
C6
C6
C6
6C
7C
38
ENDCHAR

STARTCHAR one
ENCODING 49
SWIDTH 360 0
DWIDTH 9 0
BBX 5 15 1 0
BITMAP
30
70
F0
B0
30
30
30
30
30
30
30
30
30
78
78
ENDCHAR

STARTCHAR two
ENCODING 50
SWIDTH 360 0
DWIDTH 9 0
BBX 7 15 1 0
BITMAP
7C
FE
C6
06
06
06
0C
0C
18
30
30
60
60
FE
FE
ENDCHAR

STARTCHAR three
ENCODING 51
SWIDTH 360 0
DWIDTH 9 0
BBX 7 15 1 0
BITMAP
7C
FE
C6
06
06
06
3C
3C
06
06
06
06
C6
FE
7C
ENDCHAR

STARTCHAR four
ENCODING 52
SWIDTH 360 0
DWIDTH 9 0
BBX 7 15 1 0
BITMAP
0C
1C
3C
2C
6C
4C
4C
CC
FE
FE
0C
0C
0C
0C
0C
ENDCHAR

STARTCHAR five
ENCODING 53
SWIDTH 360 0
DWIDTH 9 0
BBX 7 15 1 0
BITMAP
FE
FE
C0
C0
C0
C0
FC
FE
06
06
06
C6
C6
FE
7C
ENDCHAR

STARTCHAR six
ENCODING 54
SWIDTH 360 0
DWIDTH 9 0
BBX 7 15 1 0
BITMAP
0E
3E
70
60
60
FC
FE
C6
C6
C6
C6
C6
C6
FE
7C
ENDCHAR

STARTCHAR seven
ENCODING 55
SWIDTH 360 0
DWIDTH 9 0
BBX 7 15 1 0
BITMAP
FE
FE
86
06
06
0C
0C
18
18
18
30
30
30
30
30
ENDCHAR

STARTCHAR eight
ENCODING 56
SWIDTH 360 0
DWIDTH 9 0
BBX 7 15 1 0
BITMAP
7C
FE
C6
C6
C6
C6
7C
FE
C6
C6
C6
C6
C6
FE
7C
ENDCHAR

STARTCHAR nine
ENCODING 57
SWIDTH 360 0
DWIDTH 9 0
BBX 7 15 1 0
BITMAP
7C
FE
C6
C6
C6
C6
C6
FE
7E
0C
0C
0C
18
F8
F0
ENDCHAR

STARTCHAR colon
ENCODING 58
SWIDTH 360 0
DWIDTH 9 0
BBX 3 11 3 0
BITMAP
40
E0
E0
40
00
00
00
40
E0
E0
40
ENDCHAR

STARTCHAR semicolon
ENCODING 59
SWIDTH 360 0
DWIDTH 9 0
BBX 5 13 2 -2
BITMAP
10
38
38
10
00
00
00
38
30
60
60
C0
C0
ENDCHAR

STARTCHAR less
ENCODING 60
SWIDTH 360 0
DWIDTH 9 0
BBX 7 11 1 1
BITMAP
06
0E
1C
38
70
E0
70
38
1C
0E
06
ENDCHAR

STARTCHAR equal
ENCODING 61
SWIDTH 360 0
DWIDTH 9 0
BBX 7 6 1 4
BITMAP
FE
FE
00
00
FE
FE
ENDCHAR

STARTCHAR greater
ENCODING 62
SWIDTH 360 0
DWIDTH 9 0
BBX 7 11 1 1
BITMAP
C0
E0
70
38
1C
0E
1C
38
70
E0
C0
ENDCHAR

STARTCHAR question
ENCODING 63
SWIDTH 360 0
DWIDTH 9 0
BBX 7 15 1 0
BITMAP
7C
FE
C6
06
0E
1C
18
30
30
00
00
10
38
38
10
ENDCHAR

STARTCHAR at
ENCODING 64
SWIDTH 360 0
DWIDTH 9 0
BBX 7 18 1 -2
BITMAP
38
7C
E6
C2
C2
CE
DE
DA
D2
D2
D2
DA
DE
CE
C0
E0
7E
3C
ENDCHAR

STARTCHAR A
ENCODING 65
SWIDTH 360 0
DWIDTH 9 0
BBX 7 15 1 0
BITMAP
38
7C
7C
C6
C6
C6
C6
C6
FE
FE
C6
C6
C6
C6
C6
ENDCHAR

STARTCHAR B
ENCODING 66
SWIDTH 360 0
DWIDTH 9 0
BBX 7 15 1 0
BITMAP
FC
FE
C6
C6
C6
C6
FC
FC
C6
C6
C6
C6
C6
FE
FC
ENDCHAR

STARTCHAR C
ENCODING 67
SWIDTH 360 0
DWIDTH 9 0
BBX 7 15 1 0
BITMAP
76
FE
C6
C6
C0
C0
C0
C0
C0
C0
C0
C6
C6
FE
7C
ENDCHAR

STARTCHAR D
ENCODING 68
SWIDTH 360 0
DWIDTH 9 0
BBX 7 15 1 0
BITMAP
FC
FE
C6
C6
C6
C6
C6
C6
C6
C6
C6
C6
C6
FE
FC
ENDCHAR

STARTCHAR E
ENCODING 69
SWIDTH 360 0
DWIDTH 9 0
BBX 6 15 2 0
BITMAP
FC
FC
C0
C0
C0
C0
FC
FC
C0
C0
C0
C0
C0
FC
FC
ENDCHAR

STARTCHAR F
ENCODING 70
SWIDTH 360 0
DWIDTH 9 0
BBX 7 15 2 0
BITMAP
FE
FE
C0
C0
C0
C0
FC
FC
C0
C0
C0
C0
C0
C0
C0
ENDCHAR

STARTCHAR G
ENCODING 71
SWIDTH 360 0
DWIDTH 9 0
BBX 7 15 1 0
BITMAP
7A
FE
C6
C6
C0
C0
C0
C0
CE
CE
C6
C6
C6
FE
7E
ENDCHAR

STARTCHAR H
ENCODING 72
SWIDTH 360 0
DWIDTH 9 0
BBX 7 15 1 0
BITMAP
C6
C6
C6
C6
C6
C6
FE
FE
C6
C6
C6
C6
C6
C6
C6
ENDCHAR

STARTCHAR I
ENCODING 73
SWIDTH 360 0
DWIDTH 9 0
BBX 6 15 1 0
BITMAP
FC
FC
30
30
30
30
30
30
30
30
30
30
30
FC
FC
ENDCHAR

STARTCHAR J
ENCODING 74
SWIDTH 360 0
DWIDTH 9 0
BBX 7 15 1 0
BITMAP
3E
3E
0C
0C
0C
0C
0C
0C
0C
0C
CC
CC
CC
FC
78
ENDCHAR

STARTCHAR K
ENCODING 75
SWIDTH 360 0
DWIDTH 9 0
BBX 7 15 1 0
BITMAP
C6
C6
CC
CC
CC
D8
D8
F0
F8
D8
CC
CC
C6
C6
C6
ENDCHAR

STARTCHAR L
ENCODING 76
SWIDTH 360 0
DWIDTH 9 0
BBX 7 15 1 0
BITMAP
F0
F0
60
60
60
60
60
60
60
60
60
60
62
FE
FE
ENDCHAR

STARTCHAR M
ENCODING 77
SWIDTH 360 0
DWIDTH 9 0
BBX 7 15 1 0
BITMAP
82
C6
C6
C6
EE
EE
FE
D6
D6
C6
C6
C6
C6
C6
C6
ENDCHAR

STARTCHAR N
ENCODING 78
SWIDTH 360 0
DWIDTH 9 0
BBX 7 15 1 0
BITMAP
C6
C6
C6
E6
E6
E6
F6
D6
D6
DE
CE
CE
C6
C6
C6
ENDCHAR

STARTCHAR O
ENCODING 79
SWIDTH 360 0
DWIDTH 9 0
BBX 7 15 1 0
BITMAP
7C
FE
C6
C6
C6
C6
C6
C6
C6
C6
C6
C6
C6
FE
7C
ENDCHAR

STARTCHAR P
ENCODING 80
SWIDTH 360 0
DWIDTH 9 0
BBX 7 15 1 0
BITMAP
FC
FE
C6
C6
C6
C6
C6
FE
FC
C0
C0
C0
C0
E0
E0
ENDCHAR

STARTCHAR Q
ENCODING 81
SWIDTH 360 0
DWIDTH 9 0
BBX 7 18 1 -3
BITMAP
7C
FE
C6
C6
C6
C6
C6
C6
C6
C6
C6
C6
C6
FE
7C
60
FE
CE
ENDCHAR

STARTCHAR R
ENCODING 82
SWIDTH 360 0
DWIDTH 9 0
BBX 7 15 1 0
BITMAP
FC
FE
C6
C6
C6
C6
C6
FC
FC
D8
CC
CC
C6
C6
C6
ENDCHAR

STARTCHAR S
ENCODING 83
SWIDTH 360 0
DWIDTH 9 0
BBX 7 15 1 0
BITMAP
7E
FE
C6
C0
E0
60
70
38
1C
0C
0E
06
C6
FE
FC
ENDCHAR

STARTCHAR T
ENCODING 84
SWIDTH 360 0
DWIDTH 9 0
BBX 8 15 0 0
BITMAP
FF
FF
99
18
18
18
18
18
18
18
18
18
18
3C
3C
ENDCHAR

STARTCHAR U
ENCODING 85
SWIDTH 360 0
DWIDTH 9 0
BBX 7 15 1 0
BITMAP
C6
C6
C6
C6
C6
C6
C6
C6
C6
C6
C6
C6
C6
FE
7C
ENDCHAR

STARTCHAR V
ENCODING 86
SWIDTH 360 0
DWIDTH 9 0
BBX 7 15 1 0
BITMAP
C6
C6
C6
C6
C6
C6
C6
C6
C6
C6
C6
6C
7C
38
38
ENDCHAR

STARTCHAR W
ENCODING 87
SWIDTH 360 0
DWIDTH 9 0
BBX 7 15 1 0
BITMAP
C6
C6
C6
C6
C6
C6
C6
D6
D6
FE
EE
EE
C6
C6
C6
ENDCHAR

STARTCHAR X
ENCODING 88
SWIDTH 360 0
DWIDTH 9 0
BBX 7 15 1 0
BITMAP
C6
C6
C6
C6
C6
6C
7C
38
7C
6C
C6
C6
C6
C6
C6
ENDCHAR

STARTCHAR Y
ENCODING 89
SWIDTH 360 0
DWIDTH 9 0
BBX 8 15 0 0
BITMAP
C3
C3
C3
C3
C3
C3
66
7E
3C
18
18
18
18
3C
3C
ENDCHAR

STARTCHAR Z
ENCODING 90
SWIDTH 360 0
DWIDTH 9 0
BBX 7 15 1 0
BITMAP
FE
FE
86
0C
0C
0C
18
18
38
30
30
70
62
FE
FE
ENDCHAR

STARTCHAR bracketleft
ENCODING 91
SWIDTH 360 0
DWIDTH 9 0
BBX 4 18 3 -2
BITMAP
F0
F0
C0
C0
C0
C0
C0
C0
C0
C0
C0
C0
C0
C0
C0
C0
F0
F0
ENDCHAR

STARTCHAR backslash
ENCODING 92
SWIDTH 360 0
DWIDTH 9 0
BBX 5 19 2 -2
BITMAP
C0
C0
C0
C0
C0
60
60
60
60
60
30
30
30
30
30
18
18
18
18
ENDCHAR

STARTCHAR bracketright
ENCODING 93
SWIDTH 360 0
DWIDTH 9 0
BBX 4 18 2 -2
BITMAP
F0
F0
30
30
30
30
30
30
30
30
30
30
30
30
30
30
F0
F0
ENDCHAR

STARTCHAR asciicircum
ENCODING 94
SWIDTH 360 0
DWIDTH 9 0
BBX 7 5 1 5
BITMAP
38
7C
6C
C6
82
ENDCHAR

STARTCHAR underscore
ENCODING 95
SWIDTH 360 0
DWIDTH 9 0
BBX 9 2 0 0
BITMAP
FF80
FF80
ENDCHAR

STARTCHAR quoteleft
ENCODING 96
SWIDTH 360 0
DWIDTH 9 0
BBX 5 5 2 11
BITMAP
E0
60
30
30
18
ENDCHAR

STARTCHAR a
ENCODING 97
SWIDTH 360 0
DWIDTH 9 0
BBX 7 12 1 0
BITMAP
7C
FE
06
06
7E
FE
C6
C6
C6
C6
FE
76
ENDCHAR

STARTCHAR b
ENCODING 98
SWIDTH 360 0
DWIDTH 9 0
BBX 7 16 1 0
BITMAP
C0
C0
C0
C0
DC
FE
C6
C6
C6
C6
C6
C6
C6
C6
FE
FC
ENDCHAR

STARTCHAR c
ENCODING 99
SWIDTH 360 0
DWIDTH 9 0
BBX 7 12 1 0
BITMAP
7A
FE
C6
C6
C0
C0
C0
C0
C6
C6
FE
7C
ENDCHAR

STARTCHAR d
ENCODING 100
SWIDTH 360 0
DWIDTH 9 0
BBX 7 16 1 0
BITMAP
0E
0E
06
06
76
FE
C6
C6
C6
C6
C6
C6
C6
C6
FE
7E
ENDCHAR

STARTCHAR e
ENCODING 101
SWIDTH 360 0
DWIDTH 9 0
BBX 7 12 1 0
BITMAP
7C
FE
C6
C6
C6
FE
FE
C0
C6
C6
FE
7C
ENDCHAR

STARTCHAR f
ENCODING 102
SWIDTH 360 0
DWIDTH 9 0
BBX 7 16 1 0
BITMAP
1E
3E
30
30
FE
FE
30
30
30
30
30
30
30
30
FC
FC
ENDCHAR

STARTCHAR g
ENCODING 103
SWIDTH 360 0
DWIDTH 9 0
BBX 7 16 1 -4
BITMAP
76
FE
C6
C6
C6
C6
C6
C6
C6
C6
FE
7E
06
06
7E
7C
ENDCHAR

STARTCHAR h
ENCODING 104
SWIDTH 360 0
DWIDTH 9 0
BBX 7 15 1 0
BITMAP
C0
C0
C0
DC
FE
C6
C6
C6
C6
C6
C6
C6
C6
C6
C6
ENDCHAR

STARTCHAR i
ENCODING 105
SWIDTH 360 0
DWIDTH 9 0
BBX 6 17 1 0
BITMAP
30
30
30
00
00
F0
F0
30
30
30
30
30
30
30
30
FC
FC
ENDCHAR

STARTCHAR j
ENCODING 106
SWIDTH 360 0
DWIDTH 9 0
BBX 5 21 1 -4
BITMAP
18
18
18
00
00
F8
F8
18
18
18
18
18
18
18
18
18
18
18
18
F8
F0
ENDCHAR

STARTCHAR k
ENCODING 107
SWIDTH 360 0
DWIDTH 9 0
BBX 7 16 1 0
BITMAP
C0
C0
C0
C0
C6
CE
CC
DC
D8
F0
F8
D8
CC
CC
CE
C6
ENDCHAR

STARTCHAR l
ENCODING 108
SWIDTH 360 0
DWIDTH 9 0
BBX 6 16 1 0
BITMAP
F0
F0
30
30
30
30
30
30
30
30
30
30
30
30
FC
FC
ENDCHAR

STARTCHAR m
ENCODING 109
SWIDTH 360 0
DWIDTH 9 0
BBX 8 12 0 0
BITMAP
B6
FF
DB
DB
DB
DB
DB
DB
DB
DB
DB
DB
ENDCHAR

STARTCHAR n
ENCODING 110
SWIDTH 360 0
DWIDTH 9 0
BBX 7 12 1 0
BITMAP
DC
FE
C6
C6
C6
C6
C6
C6
C6
C6
C6
C6
ENDCHAR

STARTCHAR o
ENCODING 111
SWIDTH 360 0
DWIDTH 9 0
BBX 7 12 1 0
BITMAP
7C
FE
C6
C6
C6
C6
C6
C6
C6
C6
FE
7C
ENDCHAR

STARTCHAR p
ENCODING 112
SWIDTH 360 0
DWIDTH 9 0
BBX 7 16 1 -4
BITMAP
DC
FE
C6
C6
C6
C6
C6
C6
C6
C6
FE
FC
C0
C0
C0
C0
ENDCHAR

STARTCHAR q
ENCODING 113
SWIDTH 360 0
DWIDTH 9 0
BBX 7 16 1 -4
BITMAP
76
FE
C6
C6
C6
C6
C6
C6
C6
C6
FE
7E
06
06
06
06
ENDCHAR

STARTCHAR r
ENCODING 114
SWIDTH 360 0
DWIDTH 9 0
BBX 7 12 1 0
BITMAP
DE
FE
60
60
60
60
60
60
60
60
F8
F8
ENDCHAR

STARTCHAR s
ENCODING 115
SWIDTH 360 0
DWIDTH 9 0
BBX 6 12 1 0
BITMAP
7C
FC
C4
C0
E0
70
38
1C
0C
8C
FC
F8
ENDCHAR

STARTCHAR t
ENCODING 116
SWIDTH 360 0
DWIDTH 9 0
BBX 7 15 1 0
BITMAP
30
30
30
FE
FE
30
30
30
30
30
30
30
32
3E
1C
ENDCHAR

STARTCHAR u
ENCODING 117
SWIDTH 360 0
DWIDTH 9 0
BBX 7 12 1 0
BITMAP
C6
C6
C6
C6
C6
C6
C6
C6
C6
C6
FE
76
ENDCHAR

STARTCHAR v
ENCODING 118
SWIDTH 360 0
DWIDTH 9 0
BBX 6 12 1 0
BITMAP
CC
CC
CC
CC
CC
CC
CC
CC
78
78
30
30
ENDCHAR

STARTCHAR w
ENCODING 119
SWIDTH 360 0
DWIDTH 9 0
BBX 8 12 0 0
BITMAP
C3
C3
DB
DB
DB
DB
DB
DB
7E
7E
66
66
ENDCHAR

STARTCHAR x
ENCODING 120
SWIDTH 360 0
DWIDTH 9 0
BBX 7 12 1 0
BITMAP
C6
C6
C6
6C
7C
38
7C
6C
C6
C6
C6
C6
ENDCHAR

STARTCHAR y
ENCODING 121
SWIDTH 360 0
DWIDTH 9 0
BBX 7 16 1 -4
BITMAP
C6
C6
C6
C6
C6
C6
6C
6C
38
38
30
30
70
60
E0
E0
ENDCHAR

STARTCHAR z
ENCODING 122
SWIDTH 360 0
DWIDTH 9 0
BBX 7 12 1 0
BITMAP
FE
FE
0C
0C
18
18
30
30
60
60
FE
FE
ENDCHAR

STARTCHAR braceleft
ENCODING 123
SWIDTH 360 0
DWIDTH 9 0
BBX 6 18 1 -2
BITMAP
0C
0C
18
18
18
18
18
18
F0
18
18
18
18
18
18
18
0C
0C
ENDCHAR

STARTCHAR bar
ENCODING 124
SWIDTH 360 0
DWIDTH 9 0
BBX 2 21 4 -4
BITMAP
C0
C0
C0
C0
C0
C0
C0
C0
C0
C0
C0
C0
C0
C0
C0
C0
C0
C0
C0
C0
C0
ENDCHAR

STARTCHAR braceright
ENCODING 125
SWIDTH 360 0
DWIDTH 9 0
BBX 5 18 3 -2
BITMAP
C0
C0
60
60
60
60
60
60
38
60
60
60
60
60
60
60
C0
C0
ENDCHAR

STARTCHAR asciitilde
ENCODING 126
SWIDTH 360 0
DWIDTH 9 0
BBX 7 3 1 6
BITMAP
72
FE
9C
ENDCHAR

STARTCHAR unknown_0x80
ENCODING 128
SWIDTH 360 0
DWIDTH 9 0
BBX 8 15 0 0
BITMAP
7F
FF
CC
CC
CC
CC
CF
CF
CC
CC
CC
CC
CC
FF
7F
ENDCHAR

STARTCHAR unknown_0x81
ENCODING 129
SWIDTH 360 0
DWIDTH 9 0
BBX 8 15 0 0
BITMAP
C3
C3
C3
C3
C3
C3
66
7E
3C
18
18
18
18
3C
3C
ENDCHAR

STARTCHAR unknown_0x82
ENCODING 130
SWIDTH 360 0
DWIDTH 9 0
BBX 8 18 0 0
BITMAP
66
66
00
C3
C3
C3
C3
C3
E6
7E
3C
18
18
18
18
18
3C
3C
ENDCHAR

STARTCHAR unknown_0x9f
ENCODING 159
SWIDTH 360 0
DWIDTH 9 0
BBX 8 19 0 -2
BITMAP
7E
FF
E7
E7
E7
E0
F0
70
78
3C
1C
1C
1C
00
00
3C
7E
7E
3C
ENDCHAR

STARTCHAR unknown_0xa1
ENCODING 161
SWIDTH 360 0
DWIDTH 9 0
BBX 3 15 3 -2
BITMAP
40
E0
E0
40
00
C0
C0
C0
C0
C0
C0
C0
C0
C0
C0
ENDCHAR

STARTCHAR cent
ENCODING 162
SWIDTH 360 0
DWIDTH 9 0
BBX 6 15 1 -1
BITMAP
30
30
78
FC
CC
CC
C0
C0
C0
CC
CC
FC
78
30
30
ENDCHAR

STARTCHAR sterling
ENCODING 163
SWIDTH 360 0
DWIDTH 9 0
BBX 7 15 1 0
BITMAP
1C
7E
66
60
60
30
30
FE
FE
30
30
30
70
FE
CE
ENDCHAR

STARTCHAR currency
ENCODING 164
SWIDTH 360 0
DWIDTH 9 0
BBX 8 11 0 1
BITMAP
C3
DB
7E
66
66
66
66
66
7E
DB
C3
ENDCHAR

STARTCHAR yen
ENCODING 165
SWIDTH 360 0
DWIDTH 9 0
BBX 6 15 1 0
BITMAP
CC
CC
CC
CC
CC
48
78
FC
30
30
FC
30
30
78
78
ENDCHAR

STARTCHAR brokenbar
ENCODING 166
SWIDTH 360 0
DWIDTH 9 0
BBX 2 21 3 -4
BITMAP
C0
C0
C0
C0
C0
C0
C0
C0
00
00
00
00
00
C0
C0
C0
C0
C0
C0
C0
C0
ENDCHAR

STARTCHAR section
ENCODING 167
SWIDTH 360 0
DWIDTH 9 0
BBX 7 17 1 -2
BITMAP
1E
7E
62
60
70
F8
D8
CC
6C
66
36
36
1C
0C
8C
FC
F8
ENDCHAR

STARTCHAR dieresis
ENCODING 168
SWIDTH 360 0
DWIDTH 9 0
BBX 6 2 1 14
BITMAP
CC
CC
ENDCHAR

STARTCHAR copyright
ENCODING 169
SWIDTH 360 0
DWIDTH 9 0
BBX 8 13 0 1
BITMAP
3C
7E
C3
9D
BD
B1
B1
B1
BD
9D
C3
7E
3C
ENDCHAR

STARTCHAR multiply
ENCODING 170
SWIDTH 360 0
DWIDTH 9 0
BBX 7 13 1 4
BITMAP
7C
7E
06
06
3E
7E
66
66
7E
3E
00
FE
FE
ENDCHAR

STARTCHAR guillemotleft
ENCODING 171
SWIDTH 360 0
DWIDTH 9 0
BBX 7 11 1 0
BITMAP
66
66
66
CC
CC
CC
CC
CC
66
66
66
ENDCHAR

STARTCHAR logicalnot
ENCODING 172
SWIDTH 360 0
DWIDTH 9 0
BBX 8 5 0 3
BITMAP
FF
FF
03
03
03
ENDCHAR

STARTCHAR hyphen
ENCODING 173
SWIDTH 360 0
DWIDTH 9 0
BBX 5 2 2 5
BITMAP
F8
F8
ENDCHAR

STARTCHAR registered
ENCODING 174
SWIDTH 360 0
DWIDTH 9 0
BBX 8 15 0 -1
BITMAP
3C
7E
C3
BD
B5
B5
BD
B9
B5
B5
B5
C3
C3
7E
3C
ENDCHAR

STARTCHAR macron
ENCODING 175
SWIDTH 360 0
DWIDTH 9 0
BBX 5 2 2 14
BITMAP
F8
F8
ENDCHAR

STARTCHAR degree
ENCODING 176
SWIDTH 360 0
DWIDTH 9 0
BBX 6 8 1 9
BITMAP
78
FC
CC
CC
CC
CC
FC
78
ENDCHAR

STARTCHAR plusminus
ENCODING 177
SWIDTH 360 0
DWIDTH 9 0
BBX 6 11 1 0
BITMAP
30
30
30
FC
FC
30
30
30
00
FC
FC
ENDCHAR

STARTCHAR twosuperior
ENCODING 178
SWIDTH 360 0
DWIDTH 9 0
BBX 5 10 2 7
BITMAP
F0
F8
18
18
30
60
60
C0
F8
F8
ENDCHAR

STARTCHAR threesuperior
ENCODING 179
SWIDTH 360 0
DWIDTH 9 0
BBX 5 10 2 7
BITMAP
F0
F8
18
18
70
70
18
18
F8
F0
ENDCHAR

STARTCHAR acute
ENCODING 180
SWIDTH 360 0
DWIDTH 9 0
BBX 4 4 3 14
BITMAP
70
60
C0
C0
ENDCHAR

STARTCHAR mu
ENCODING 181
SWIDTH 360 0
DWIDTH 9 0
BBX 8 16 0 -4
BITMAP
33
33
33
33
33
33
63
66
66
66
7F
7B
C0
C0
C0
C0
ENDCHAR

STARTCHAR paragraph
ENCODING 182
SWIDTH 360 0
DWIDTH 9 0
BBX 8 17 0 -2
BITMAP
3F
7F
F3
F3
F3
F3
73
33
33
33
33
33
33
33
33
33
33
ENDCHAR

STARTCHAR periodcentered
ENCODING 183
SWIDTH 360 0
DWIDTH 9 0
BBX 4 3 2 5
BITMAP
60
F0
60
ENDCHAR

STARTCHAR cedilla
ENCODING 184
SWIDTH 360 0
DWIDTH 9 0
BBX 4 5 2 -4
BITMAP
60
60
30
F0
E0
ENDCHAR

STARTCHAR onesuperior
ENCODING 185
SWIDTH 360 0
DWIDTH 9 0
BBX 4 10 2 7
BITMAP
60
E0
E0
60
60
60
60
60
F0
F0
ENDCHAR

STARTCHAR divide
ENCODING 186
SWIDTH 360 0
DWIDTH 9 0
BBX 7 13 1 4
BITMAP
7C
FE
C6
C6
C6
C6
C6
C6
FE
7C
00
FE
FE
ENDCHAR

STARTCHAR guillemotright
ENCODING 187
SWIDTH 360 0
DWIDTH 9 0
BBX 7 11 1 0
BITMAP
CC
CC
CC
66
66
66
66
66
CC
CC
CC
ENDCHAR

STARTCHAR onequarter
ENCODING 188
SWIDTH 360 0
DWIDTH 9 0
BBX 9 21 0 -4
BITMAP
3000
7000
7000
3000
3000
3000
3000
7800
7980
0780
0E00
3800
F300
C700
0700
0B00
1B00
1F00
1F80
0300
0300
ENDCHAR

STARTCHAR onehalf
ENCODING 189
SWIDTH 360 0
DWIDTH 9 0
BBX 9 21 0 -4
BITMAP
3000
7000
7000
3000
3000
3000
3000
7980
7B80
0700
1C00
3800
EE00
CF00
0300
0300
0600
0600
0C00
0F00
0F00
ENDCHAR

STARTCHAR threequarters
ENCODING 190
SWIDTH 360 0
DWIDTH 9 0
BBX 9 21 0 -4
BITMAP
7800
7C00
0C00
3800
3800
0C00
0C00
7D80
7B80
0700
0C00
1800
7300
E700
C700
0B00
1B00
1F00
1F80
0300
0300
ENDCHAR

STARTCHAR unknown_0xbf
ENCODING 191
SWIDTH 360 0
DWIDTH 9 0
BBX 7 15 1 -2
BITMAP
00
00
00
00
00
00
00
00
00
00
00
00
00
00
00
ENDCHAR

STARTCHAR unknown_0xc0
ENCODING 192
SWIDTH 360 0
DWIDTH 9 0
BBX 7 20 1 0
BITMAP
00
00
00
00
00
00
00
00
00
00
00
00
00
00
00
00
00
00
00
00
ENDCHAR

STARTCHAR unknown_0xc1
ENCODING 193
SWIDTH 360 0
DWIDTH 9 0
BBX 7 20 1 0
BITMAP
00
00
00
00
00
00
00
00
00
00
00
00
00
00
00
00
00
00
00
00
ENDCHAR

STARTCHAR unknown_0xc2
ENCODING 194
SWIDTH 360 0
DWIDTH 9 0
BBX 7 20 1 0
BITMAP
00
00
00
00
00
00
00
00
00
00
00
00
00
00
00
00
00
00
00
00
ENDCHAR

STARTCHAR unknown_0xc3
ENCODING 195
SWIDTH 360 0
DWIDTH 9 0
BBX 7 19 1 0
BITMAP
00
00
00
00
00
00
00
00
00
00
00
00
00
00
00
00
00
00
00
ENDCHAR

STARTCHAR unknown_0xc4
ENCODING 196
SWIDTH 360 0
DWIDTH 9 0
BBX 7 19 1 0
BITMAP
00
00
00
00
00
00
00
00
00
00
00
00
00
00
00
00
00
00
00
ENDCHAR

STARTCHAR unknown_0xc5
ENCODING 197
SWIDTH 360 0
DWIDTH 9 0
BBX 7 20 1 0
BITMAP
00
00
00
00
00
00
00
00
00
00
00
00
00
00
00
00
00
00
00
00
ENDCHAR

STARTCHAR unknown_0xc6
ENCODING 198
SWIDTH 360 0
DWIDTH 9 0
BBX 9 15 0 0
BITMAP
0000
0000
0000
0000
0000
0000
0000
0000
0000
0000
0000
0000
0000
0000
0000
ENDCHAR

STARTCHAR unknown_0xc7
ENCODING 199
SWIDTH 360 0
DWIDTH 9 0
BBX 7 19 1 -4
BITMAP
00
00
00
00
00
00
00
00
00
00
00
00
00
00
00
00
00
00
00
ENDCHAR

STARTCHAR unknown_0xc8
ENCODING 200
SWIDTH 360 0
DWIDTH 9 0
BBX 6 20 2 0
BITMAP
00
00
00
00
00
00
00
00
00
00
00
00
00
00
00
00
00
00
00
00
ENDCHAR

STARTCHAR unknown_0xc9
ENCODING 201
SWIDTH 360 0
DWIDTH 9 0
BBX 6 20 2 0
BITMAP
00
00
00
00
00
00
00
00
00
00
00
00
00
00
00
00
00
00
00
00
ENDCHAR

STARTCHAR unknown_0xca
ENCODING 202
SWIDTH 360 0
DWIDTH 9 0
BBX 6 20 2 0
BITMAP
00
00
00
00
00
00
00
00
00
00
00
00
00
00
00
00
00
00
00
00
ENDCHAR

STARTCHAR unknown_0xcb
ENCODING 203
SWIDTH 360 0
DWIDTH 9 0
BBX 6 19 2 0
BITMAP
00
00
00
00
00
00
00
00
00
00
00
00
00
00
00
00
00
00
00
ENDCHAR

STARTCHAR unknown_0xcc
ENCODING 204
SWIDTH 360 0
DWIDTH 9 0
BBX 6 20 1 0
BITMAP
00
00
00
00
00
00
00
00
00
00
00
00
00
00
00
00
00
00
00
00
ENDCHAR

STARTCHAR unknown_0xcd
ENCODING 205
SWIDTH 360 0
DWIDTH 9 0
BBX 6 20 1 0
BITMAP
00
00
00
00
00
00
00
00
00
00
00
00
00
00
00
00
00
00
00
00
ENDCHAR

STARTCHAR unknown_0xce
ENCODING 206
SWIDTH 360 0
DWIDTH 9 0
BBX 6 20 1 0
BITMAP
00
00
00
00
00
00
00
00
00
00
00
00
00
00
00
00
00
00
00
00
ENDCHAR

STARTCHAR unknown_0xcf
ENCODING 207
SWIDTH 360 0
DWIDTH 9 0
BBX 6 19 1 0
BITMAP
00
00
00
00
00
00
00
00
00
00
00
00
00
00
00
00
00
00
00
ENDCHAR

STARTCHAR unknown_0xd0
ENCODING 208
SWIDTH 360 0
DWIDTH 9 0
BBX 8 15 0 0
BITMAP
00
00
00
00
00
00
00
00
00
00
00
00
00
00
00
ENDCHAR

STARTCHAR unknown_0xd1
ENCODING 209
SWIDTH 360 0
DWIDTH 9 0
BBX 7 19 1 0
BITMAP
00
00
00
00
00
00
00
00
00
00
00
00
00
00
00
00
00
00
00
ENDCHAR

STARTCHAR unknown_0xd2
ENCODING 210
SWIDTH 360 0
DWIDTH 9 0
BBX 7 20 1 0
BITMAP
00
00
00
00
00
00
00
00
00
00
00
00
00
00
00
00
00
00
00
00
ENDCHAR

STARTCHAR unknown_0xd3
ENCODING 211
SWIDTH 360 0
DWIDTH 9 0
BBX 7 20 1 0
BITMAP
00
00
00
00
00
00
00
00
00
00
00
00
00
00
00
00
00
00
00
00
ENDCHAR

STARTCHAR unknown_0xd4
ENCODING 212
SWIDTH 360 0
DWIDTH 9 0
BBX 7 20 1 0
BITMAP
00
00
00
00
00
00
00
00
00
00
00
00
00
00
00
00
00
00
00
00
ENDCHAR

STARTCHAR unknown_0xd5
ENCODING 213
SWIDTH 360 0
DWIDTH 9 0
BBX 7 19 1 0
BITMAP
00
00
00
00
00
00
00
00
00
00
00
00
00
00
00
00
00
00
00
ENDCHAR

STARTCHAR unknown_0xd6
ENCODING 214
SWIDTH 360 0
DWIDTH 9 0
BBX 7 19 1 0
BITMAP
00
00
00
00
00
00
00
00
00
00
00
00
00
00
00
00
00
00
00
ENDCHAR

STARTCHAR unknown_0xd7
ENCODING 215
SWIDTH 360 0
DWIDTH 9 0
BBX 6 11 1 1
BITMAP
00
00
00
00
00
00
00
00
00
00
00
ENDCHAR

STARTCHAR unknown_0xd8
ENCODING 216
SWIDTH 360 0
DWIDTH 9 0
BBX 7 19 1 -2
BITMAP
00
00
00
00
00
00
00
00
00
00
00
00
00
00
00
00
00
00
00
ENDCHAR

STARTCHAR unknown_0xd9
ENCODING 217
SWIDTH 360 0
DWIDTH 9 0
BBX 7 20 1 0
BITMAP
00
00
00
00
00
00
00
00
00
00
00
00
00
00
00
00
00
00
00
00
ENDCHAR

STARTCHAR unknown_0xda
ENCODING 218
SWIDTH 360 0
DWIDTH 9 0
BBX 7 20 1 0
BITMAP
00
00
00
00
00
00
00
00
00
00
00
00
00
00
00
00
00
00
00
00
ENDCHAR

STARTCHAR unknown_0xdb
ENCODING 219
SWIDTH 360 0
DWIDTH 9 0
BBX 7 20 1 0
BITMAP
00
00
00
00
00
00
00
00
00
00
00
00
00
00
00
00
00
00
00
00
ENDCHAR

STARTCHAR unknown_0xdc
ENCODING 220
SWIDTH 360 0
DWIDTH 9 0
BBX 7 19 1 0
BITMAP
00
00
00
00
00
00
00
00
00
00
00
00
00
00
00
00
00
00
00
ENDCHAR

STARTCHAR unknown_0xdd
ENCODING 221
SWIDTH 360 0
DWIDTH 9 0
BBX 8 20 0 0
BITMAP
00
00
00
00
00
00
00
00
00
00
00
00
00
00
00
00
00
00
00
00
ENDCHAR

STARTCHAR unknown_0xde
ENCODING 222
SWIDTH 360 0
DWIDTH 9 0
BBX 7 15 1 0
BITMAP
00
00
00
00
00
00
00
00
00
00
00
00
00
00
00
ENDCHAR

STARTCHAR dblunderscore
ENCODING 223
SWIDTH 360 0
DWIDTH 9 0
BBX 9 11 0 -4
BITMAP
0000
0000
0000
0000
0000
FF80
FF80
0000
0000
FF80
FF80
ENDCHAR

STARTCHAR aleph
ENCODING 224
SWIDTH 360 0
DWIDTH 9 0
BBX 7 14 1 0
BITMAP
C6
C6
66
66
66
36
FE
FC
D8
D8
CC
CC
C6
C6
ENDCHAR

STARTCHAR beth
ENCODING 225
SWIDTH 360 0
DWIDTH 9 0
BBX 7 14 1 0
BITMAP
F8
FC
0C
0C
0C
0C
0C
0C
0C
0C
0C
0C
FE
FE
ENDCHAR

STARTCHAR gimmel
ENCODING 226
SWIDTH 360 0
DWIDTH 9 0
BBX 8 14 0 0
BITMAP
0F
0F
03
03
03
03
03
03
07
07
0F
3B
F3
E3
ENDCHAR

STARTCHAR daleth
ENCODING 227
SWIDTH 360 0
DWIDTH 9 0
BBX 7 14 1 0
BITMAP
FE
FE
0C
0C
0C
0C
0C
0C
0C
0C
0C
0C
0C
0C
ENDCHAR

STARTCHAR he
ENCODING 228
SWIDTH 360 0
DWIDTH 9 0
BBX 7 14 1 0
BITMAP
FE
FE
06
06
06
06
C6
C6
C6
C6
C6
C6
C6
C6
ENDCHAR

STARTCHAR waw
ENCODING 229
SWIDTH 360 0
DWIDTH 9 0
BBX 7 14 1 0
BITMAP
78
78
18
18
18
18
18
18
18
18
18
18
18
18
ENDCHAR

STARTCHAR zayin
ENCODING 230
SWIDTH 360 0
DWIDTH 9 0
BBX 7 14 1 0
BITMAP
FE
FE
30
30
30
30
18
18
18
18
30
30
30
30
ENDCHAR

STARTCHAR het
ENCODING 231
SWIDTH 360 0
DWIDTH 9 0
BBX 7 14 1 0
BITMAP
FC
FE
C6
C6
C6
C6
C6
C6
C6
C6
C6
C6
C6
C6
ENDCHAR

STARTCHAR teth
ENCODING 232
SWIDTH 360 0
DWIDTH 9 0
BBX 7 14 1 0
BITMAP
DC
DE
D6
D6
D6
C6
C6
C6
C6
C6
C6
C6
FE
7C
ENDCHAR

STARTCHAR yod
ENCODING 233
SWIDTH 360 0
DWIDTH 9 0
BBX 7 14 1 0
BITMAP
78
78
18
18
18
18
18
00
00
00
00
00
00
00
ENDCHAR

STARTCHAR kaphfinal
ENCODING 234
SWIDTH 360 0
DWIDTH 9 0
BBX 8 18 0 -4
BITMAP
FF
FF
06
06
06
06
06
06
06
06
06
06
06
06
06
06
06
06
ENDCHAR

STARTCHAR kaph
ENCODING 235
SWIDTH 360 0
DWIDTH 9 0
BBX 7 14 1 0
BITMAP
FC
FE
06
06
06
06
06
06
06
06
06
06
FE
FC
ENDCHAR

STARTCHAR lamed
ENCODING 236
SWIDTH 360 0
DWIDTH 9 0
BBX 7 19 1 0
BITMAP
C0
C0
C0
C0
C0
FE
FE
06
06
06
0C
0C
0C
18
18
18
30
30
30
ENDCHAR

STARTCHAR memfinal
ENCODING 237
SWIDTH 360 0
DWIDTH 9 0
BBX 7 14 1 0
BITMAP
FC
FE
C6
C6
C6
C6
C6
C6
C6
C6
C6
C6
FE
FE
ENDCHAR

STARTCHAR mem
ENCODING 238
SWIDTH 360 0
DWIDTH 9 0
BBX 7 14 1 0
BITMAP
CC
DE
D6
F6
76
66
66
66
66
C6
C6
C6
DE
DE
ENDCHAR

STARTCHAR nunfinal
ENCODING 239
SWIDTH 360 0
DWIDTH 9 0
BBX 8 18 1 -4
BITMAP
1E
1E
06
06
06
06
06
06
06
06
06
06
06
06
06
06
06
00
ENDCHAR

STARTCHAR nun
ENCODING 240
SWIDTH 360 0
DWIDTH 9 0
BBX 8 14 1 0
BITMAP
3C
3C
0C
0C
0C
0C
0C
0C
0C
0C
0C
0C
FC
FC
ENDCHAR

STARTCHAR samekh
ENCODING 241
SWIDTH 360 0
DWIDTH 9 0
BBX 7 14 1 0
BITMAP
FE
FE
C6
C6
C6
C6
C6
C6
C6
C6
C6
C6
FE
7C
ENDCHAR

STARTCHAR ayin
ENCODING 242
SWIDTH 360 0
DWIDTH 9 0
BBX 7 14 1 0
BITMAP
66
66
66
66
66
66
66
66
66
66
66
66
FE
FC
ENDCHAR

STARTCHAR pefinal
ENCODING 243
SWIDTH 360 0
DWIDTH 9 0
BBX 7 18 1 -4
BITMAP
FC
FE
C6
C6
C6
C6
C6
F6
76
06
06
06
06
06
06
06
06
00
ENDCHAR

STARTCHAR pe
ENCODING 244
SWIDTH 360 0
DWIDTH 9 0
BBX 7 14 1 0
BITMAP
FC
FE
C6
C6
C6
C6
C6
F6
76
06
06
06
FE
FC
ENDCHAR

STARTCHAR zadikfinal
ENCODING 245
SWIDTH 360 0
DWIDTH 9 0
BBX 7 18 1 -4
BITMAP
46
C6
E6
66
76
36
3E
1C
18
18
18
18
18
18
18
18
18
00
ENDCHAR

STARTCHAR zadik
ENCODING 246
SWIDTH 360 0
DWIDTH 9 0
BBX 7 14 1 0
BITMAP
C6
C6
66
66
36
36
36
1C
18
0C
0C
06
FE
FE
ENDCHAR

STARTCHAR kof
ENCODING 247
SWIDTH 360 0
DWIDTH 9 0
BBX 7 18 1 -4
BITMAP
FE
FE
06
06
06
CC
CC
CC
CC
D8
D8
D8
D8
D8
C0
C0
C0
00
ENDCHAR

STARTCHAR resh
ENCODING 248
SWIDTH 360 0
DWIDTH 9 0
BBX 9 14 0 0
BITMAP
7F00
7F00
0300
0300
0300
0300
0300
0300
0300
0300
0300
0300
0300
0300
ENDCHAR

STARTCHAR shin
ENCODING 249
SWIDTH 360 0
DWIDTH 9 0
BBX 7 14 1 0
BITMAP
D6
D6
D6
D6
D6
D6
D6
D6
D6
D6
D6
D6
FE
7C
ENDCHAR

STARTCHAR taf
ENCODING 250
SWIDTH 360 0
DWIDTH 9 0
BBX 7 14 1 0
BITMAP
FC
FE
66
66
66
66
66
66
66
66
66
66
E6
E6
ENDCHAR

STARTCHAR unknown_0xfb
ENCODING 251
SWIDTH 360 0
DWIDTH 9 0
BBX 7 18 1 0
BITMAP
10
38
38
6C
00
00
C6
C6
C6
C6
C6
C6
C6
C6
C6
C6
FE
76
ENDCHAR

STARTCHAR unknown_0xfc
ENCODING 252
SWIDTH 360 0
DWIDTH 9 0
BBX 7 15 1 0
BITMAP
66
66
00
C6
C6
C6
C6
C6
C6
C6
C6
C6
C6
FE
76
ENDCHAR

STARTCHAR unknown_0xfd
ENCODING 253
SWIDTH 360 0
DWIDTH 9 0
BBX 7 22 1 -4
BITMAP
1C
18
30
30
00
00
C6
C6
C6
C6
C6
C6
6C
6C
38
38
30
30
70
60
E0
E0
ENDCHAR

STARTCHAR unknown_0xfe
ENCODING 254
SWIDTH 360 0
DWIDTH 9 0
BBX 7 20 1 -4
BITMAP
C0
C0
C0
C0
DC
FE
C6
C6
C6
C6
C6
C6
C6
C6
FE
FC
C0
C0
C0
C0
ENDCHAR

STARTCHAR unknown_0xff
ENCODING 255
SWIDTH 360 0
DWIDTH 9 0
BBX 7 20 1 -4
BITMAP
CC
CC
00
00
C6
C6
C6
C6
C6
C6
6C
6C
38
38
30
30
70
60
E0
E0
ENDCHAR

ENDFONT
