STARTFONT 2.1
FONT -Monotype-Times New Roman-Bold-I-Normal--25-180-100-100-P-128-iso8859-2
SIZE 18 100 100
FONTBOUNDINGBOX 30 28 -4 -6

STARTPROPERTIES 24
FOUNDRY "Monotype"
FAMILY_NAME "Times New Roman"
WEIGHT_NAME "Bold"
SLANT "I"
SETWIDTH_NAME "Normal"
ADD_STYLE_NAME ""
PIXEL_SIZE 25
POINT_SIZE 180
RESOLUTION_X 100
RESOLUTION_Y 100
SPACING "P"
AVERAGE_WIDTH 128
CHARSET_REGISTRY "iso8859"
CHARSET_ENCODING "2"
FACE_NAME "Times New Roman Bold Italic ISO Latin2"
_DEC_DEVICE_FONTNAMES "PS=timesnewroman-bit-lat2"
COPYRIGHT "Copyright (c) 1993 Monotype Typography Ltd."
CAP_HEIGHT 18
X_HEIGHT 12
WEIGHT 10
QUAD_WIDTH 13
DEFAULT_CHAR 160
FONT_DESCENT 6
FONT_ASCENT 22
ENDPROPERTIES

CHARS 191

STARTCHAR space
ENCODING 32
SWIDTH 250 0
DWIDTH 6 0
BBX 0 0 0 0
BITMAP
ENDCHAR

STARTCHAR exclam
ENCODING 33
SWIDTH 389 0
DWIDTH 10 0
BBX 7 17 1 0
BITMAP
06
0E
0E
0E
0E
0C
1C
18
18
10
10
10
00
60
F0
F0
60
ENDCHAR

STARTCHAR quotedbl
ENCODING 34
SWIDTH 555 0
DWIDTH 14 0
BBX 10 8 4 9
BITMAP
6180
F3C0
F3C0
F380
E380
C300
C300
8200
ENDCHAR

STARTCHAR numbersign
ENCODING 35
SWIDTH 500 0
DWIDTH 13 0
BBX 12 17 1 0
BITMAP
0C60
0C60
0840
1840
18C0
FFF0
FFF0
1080
3080
3180
FFF0
FFF0
2100
6100
6300
6300
4300
ENDCHAR

STARTCHAR dollar
ENCODING 36
SWIDTH 500 0
DWIDTH 13 0
BBX 11 20 1 -2
BITMAP
0080
07C0
1D60
1960
3920
3A20
3E00
1E00
1F00
0F80
0780
05C0
09C0
49C0
49C0
C980
F380
3E00
1000
2000
ENDCHAR

STARTCHAR percent
ENCODING 37
SWIDTH 833 0
DWIDTH 21 0
BBX 17 17 3 0
BITMAP
1C0180
330300
630600
E70C00
E71800
C63000
C66000
CC4000
388E00
011980
023180
063380
0C7380
186380
306300
602600
C01C00
ENDCHAR

STARTCHAR ampersand
ENCODING 38
SWIDTH 778 0
DWIDTH 19 0
BBX 16 17 1 0
BITMAP
0078
009C
019C
039C
0398
03B8
03E0
03C0
07CF
19C6
31EC
71E8
F0F0
F0F0
F878
7FBF
3E1E
ENDCHAR

STARTCHAR quoteright
ENCODING 39
SWIDTH 333 0
DWIDTH 8 0
BBX 5 8 3 9
BITMAP
30
78
78
38
18
10
60
80
ENDCHAR

STARTCHAR parenleft
ENCODING 40
SWIDTH 333 0
DWIDTH 8 0
BBX 10 22 1 -5
BITMAP
0040
0180
0300
0600
0C00
1C00
3800
3800
7000
7000
7000
F000
E000
E000
E000
E000
6000
6000
2000
2000
1000
1000
ENDCHAR

STARTCHAR parenright
ENCODING 41
SWIDTH 333 0
DWIDTH 8 0
BBX 10 22 -3 -5
BITMAP
0200
0100
0100
0180
0180
0180
01C0
01C0
01C0
01C0
01C0
0380
0380
0380
0700
0700
0E00
0C00
1800
3000
6000
8000
ENDCHAR

STARTCHAR asterisk
ENCODING 42
SWIDTH 500 0
DWIDTH 13 0
BBX 9 9 3 7
BITMAP
1C00
1C00
C980
EB80
FF80
1400
3600
7700
6300
ENDCHAR

STARTCHAR plus
ENCODING 43
SWIDTH 570 0
DWIDTH 14 0
BBX 14 14 1 1
BITMAP
0300
0300
0300
0300
0300
0300
FFFC
FFFC
0300
0300
0300
0300
0300
0300
ENDCHAR

STARTCHAR comma
ENCODING 44
SWIDTH 250 0
DWIDTH 6 0
BBX 5 8 -1 -4
BITMAP
30
78
78
38
18
10
20
C0
ENDCHAR

STARTCHAR minus
ENCODING 45
SWIDTH 606 0
DWIDTH 15 0
BBX 13 2 2 7
BITMAP
FFF8
FFF8
ENDCHAR

STARTCHAR period
ENCODING 46
SWIDTH 250 0
DWIDTH 6 0
BBX 4 4 0 0
BITMAP
60
F0
F0
60
ENDCHAR

STARTCHAR slash
ENCODING 47
SWIDTH 278 0
DWIDTH 7 0
BBX 12 17 -2 0
BITMAP
0030
0020
0060
00C0
00C0
0180
0100
0300
0600
0600
0C00
0800
1800
3000
2000
6000
C000
ENDCHAR

STARTCHAR zero
ENCODING 48
SWIDTH 500 0
DWIDTH 13 0
BBX 11 17 1 0
BITMAP
0380
0C40
1C60
1860
38E0
78E0
70E0
70E0
F1E0
E1C0
E1C0
E3C0
E380
C380
C700
6600
3800
ENDCHAR

STARTCHAR one
ENCODING 49
SWIDTH 500 0
DWIDTH 13 0
BBX 10 17 1 0
BITMAP
00C0
1FC0
0380
0380
0380
0780
0700
0700
0700
0E00
0E00
0E00
1C00
1C00
1C00
3C00
FF00
ENDCHAR

STARTCHAR two
ENCODING 50
SWIDTH 500 0
DWIDTH 13 0
BBX 12 17 0 0
BITMAP
07C0
0FF0
08F0
1070
0070
0070
0060
00E0
00C0
0180
0300
0600
0C20
1040
3FC0
7FC0
FF80
ENDCHAR

STARTCHAR three
ENCODING 51
SWIDTH 500 0
DWIDTH 13 0
BBX 11 17 1 0
BITMAP
0380
0FC0
10E0
00E0
00E0
01C0
0380
1F00
0780
03C0
01C0
01C0
01C0
0180
4180
F300
FC00
ENDCHAR

STARTCHAR four
ENCODING 52
SWIDTH 500 0
DWIDTH 13 0
BBX 13 18 0 -1
BITMAP
0018
0030
0070
00F0
01E0
0360
02E0
04E0
09C0
11C0
21C0
6180
7FE0
FFE0
0300
0700
0700
0700
ENDCHAR

STARTCHAR five
ENCODING 53
SWIDTH 500 0
DWIDTH 13 0
BBX 12 17 1 0
BITMAP
07F0
07E0
0FE0
0000
1800
1E00
3F80
0F80
03C0
01C0
01C0
01C0
0180
0180
C100
F200
7C00
ENDCHAR

STARTCHAR six
ENCODING 54
SWIDTH 500 0
DWIDTH 13 0
BBX 11 17 1 0
BITMAP
0060
0380
0700
0E00
1C00
3800
3F80
73C0
71C0
F1C0
F1C0
E1C0
E1C0
E380
6380
6700
1C00
ENDCHAR

STARTCHAR seven
ENCODING 55
SWIDTH 500 0
DWIDTH 13 0
BBX 11 17 3 0
BITMAP
3FE0
7FC0
7FC0
8080
0180
0100
0200
0600
0400
0C00
0800
1000
3000
2000
6000
4000
8000
ENDCHAR

STARTCHAR eight
ENCODING 56
SWIDTH 500 0
DWIDTH 13 0
BBX 12 17 1 0
BITMAP
07C0
0E60
1C70
1C70
1C70
1E60
1EC0
0F00
1F80
33C0
73C0
E1C0
E1C0
E1C0
E380
6300
1E00
ENDCHAR

STARTCHAR nine
ENCODING 57
SWIDTH 500 0
DWIDTH 13 0
BBX 11 17 1 0
BITMAP
0700
1CC0
38C0
38E0
70E0
70E0
70E0
71E0
71C0
39C0
3FC0
0380
0700
0F00
0E00
1800
F000
ENDCHAR

STARTCHAR colon
ENCODING 58
SWIDTH 333 0
DWIDTH 8 0
BBX 6 11 1 0
BITMAP
18
3C
3C
18
00
00
00
60
F0
F0
60
ENDCHAR

STARTCHAR semicolon
ENCODING 59
SWIDTH 333 0
DWIDTH 8 0
BBX 7 15 0 -4
BITMAP
0C
1E
1E
0C
00
00
00
00
78
78
38
38
10
20
C0
ENDCHAR

STARTCHAR less
ENCODING 60
SWIDTH 570 0
DWIDTH 14 0
BBX 14 12 1 2
BITMAP
000C
007C
01E0
0F80
3C00
F000
7800
1E00
03C0
00F0
003C
0004
ENDCHAR

STARTCHAR equal
ENCODING 61
SWIDTH 570 0
DWIDTH 14 0
BBX 14 6 1 5
BITMAP
FFFC
FFFC
0000
0000
FFFC
FFFC
ENDCHAR

STARTCHAR greater
ENCODING 62
SWIDTH 570 0
DWIDTH 14 0
BBX 14 12 1 2
BITMAP
C000
F000
1E00
0780
01F0
003C
0078
03C0
0F00
7C00
E000
8000
ENDCHAR

STARTCHAR question
ENCODING 63
SWIDTH 500 0
DWIDTH 13 0
BBX 10 17 2 0
BITMAP
1E00
3180
71C0
79C0
31C0
0380
0780
0E00
1C00
1000
2000
2000
0000
6000
F000
F000
6000
ENDCHAR

STARTCHAR at
ENCODING 64
SWIDTH 832 0
DWIDTH 21 0
BBX 21 21 0 -5
BITMAP
00FE00
070180
0C0040
100020
200020
607710
41D610
C38E10
831E10
871C10
871C10
8E3C20
8E5820
8ED840
CFB988
461E10
600010
200060
180080
060700
01F800
ENDCHAR

STARTCHAR A
ENCODING 65
SWIDTH 667 0
DWIDTH 17 0
BBX 16 17 -1 0
BITMAP
0002
0006
0006
000E
001E
003E
006E
00DE
009E
011E
021E
07FE
0C1E
181E
301E
601E
F87F
ENDCHAR

STARTCHAR B
ENCODING 66
SWIDTH 667 0
DWIDTH 17 0
BBX 17 17 -1 0
BITMAP
0FFE00
03C700
03C780
03C780
038780
078F00
070E00
07F000
073800
0F0E00
0F0E00
0F0F00
1E0F00
1E0F00
1E1E00
3E3C00
FFF000
ENDCHAR

STARTCHAR C
ENCODING 67
SWIDTH 667 0
DWIDTH 17 0
BBX 16 17 2 0
BITMAP
00FD
0387
0F03
1E03
3C01
3C00
7800
7800
F000
F000
F000
F000
F000
700C
7818
3C30
0FC0
ENDCHAR

STARTCHAR D
ENCODING 68
SWIDTH 722 0
DWIDTH 18 0
BBX 18 17 0 0
BITMAP
0FF800
03DE00
03C700
038780
0783C0
0783C0
0703C0
0F03C0
0F03C0
0F03C0
0E0780
1E0780
1E0F00
1C0F00
3C1C00
3C7800
FFC000
ENDCHAR

STARTCHAR E
ENCODING 69
SWIDTH 667 0
DWIDTH 17 0
BBX 18 17 -1 0
BITMAP
07FFC0
01C1C0
03C080
03C080
03C000
038200
078400
078C00
07FC00
0F0800
0F0800
0F0800
0E0000
1E0100
1E0600
1E1E00
FFFC00
ENDCHAR

STARTCHAR F
ENCODING 70
SWIDTH 667 0
DWIDTH 17 0
BBX 18 17 -1 0
BITMAP
07FFC0
03C0C0
03C040
03C040
038400
078400
078C00
07FC00
070800
0F0800
0F0800
0E0000
1E0000
1E0000
1E0000
3E0000
FF8000
ENDCHAR

STARTCHAR G
ENCODING 71
SWIDTH 722 0
DWIDTH 18 0
BBX 17 17 2 0
BITMAP
00FE80
078380
0F0100
1E0100
3C0100
780000
780000
F80000
F07F00
F01E00
F01C00
F03C00
703C00
703800
387800
1C7800
07E000
ENDCHAR

STARTCHAR H
ENCODING 72
SWIDTH 778 0
DWIDTH 19 0
BBX 23 17 -1 0
BITMAP
07FBFE
01E0F0
03C0F0
03C0F0
03C0E0
0381E0
0781E0
0781C0
07FFC0
0F03C0
0F03C0
0F0380
0E0780
1E0780
1E0700
3E0F00
FFBFC0
ENDCHAR

STARTCHAR I
ENCODING 73
SWIDTH 389 0
DWIDTH 10 0
BBX 13 17 -1 0
BITMAP
07F8
01E0
03C0
03C0
0380
0380
0780
0780
0700
0F00
0F00
0E00
0E00
1E00
1E00
3E00
FF80
ENDCHAR

STARTCHAR J
ENCODING 74
SWIDTH 500 0
DWIDTH 13 0
BBX 15 17 0 0
BITMAP
01FE
0078
00F0
00F0
00F0
00E0
01E0
01E0
01C0
03C0
03C0
03C0
4380
E780
E700
CE00
7800
ENDCHAR

STARTCHAR K
ENCODING 75
SWIDTH 667 0
DWIDTH 17 0
BBX 20 17 -1 0
BITMAP
07FBF0
01E380
03C300
03C600
038800
039000
07B000
07B000
077800
0F7800
0F7800
0E3800
0E3C00
1E3C00
1E1E00
3E1E00
FF7F80
ENDCHAR

STARTCHAR L
ENCODING 76
SWIDTH 611 0
DWIDTH 15 0
BBX 15 17 -1 0
BITMAP
07F8
01E0
03C0
03C0
0380
0380
0780
0780
0700
0F00
0F00
0E00
0E02
1E02
1E04
1E3C
FFFC
ENDCHAR

STARTCHAR M
ENCODING 77
SWIDTH 889 0
DWIDTH 22 0
BBX 25 17 -1 0
BITMAP
07E01F80
01E01E00
03E03E00
02E05C00
02E05C00
02E0BC00
04E13800
04E17800
04E27800
08F47800
08FC7000
08F8F000
08F0F000
10F0E000
1061E000
3041E000
FC47F800
ENDCHAR

STARTCHAR N
ENCODING 78
SWIDTH 722 0
DWIDTH 18 0
BBX 21 17 -1 0
BITMAP
0FC0F8
01E020
03E020
02F040
02F040
027040
047840
047880
043C80
083C80
081F00
081F00
100F00
100E00
100600
300600
FC0200
ENDCHAR

STARTCHAR O
ENCODING 79
SWIDTH 722 0
DWIDTH 18 0
BBX 17 17 1 0
BITMAP
00FC00
038E00
070700
1E0780
1C0780
3C0780
780780
780780
F80F00
F80F00
F00F00
F01E00
F01C00
F03C00
707800
38E000
1F8000
ENDCHAR

STARTCHAR P
ENCODING 80
SWIDTH 611 0
DWIDTH 15 0
BBX 17 17 -1 0
BITMAP
0FFE00
03CF00
03C780
038780
038780
078780
078F00
071E00
0FF800
0F0000
0E0000
0E0000
1E0000
1E0000
1C0000
3C0000
FF0000
ENDCHAR

STARTCHAR Q
ENCODING 81
SWIDTH 722 0
DWIDTH 18 0
BBX 17 22 1 -5
BITMAP
00FC00
038E00
070700
0E0780
1C0780
3C0780
780780
780780
F80F00
F80F00
F00F00
F01E00
F01C00
F03C00
707000
38E000
1F8000
040000
180100
3FC300
FFFC00
07F000
ENDCHAR

STARTCHAR R
ENCODING 82
SWIDTH 667 0
DWIDTH 17 0
BBX 17 17 -1 0
BITMAP
07FE00
03CF00
03C780
03C780
038780
078700
078F00
071C00
07F000
0F7800
0F7800
0E3800
1E3C00
1E3C00
1C1C00
3C1E00
FF1F80
ENDCHAR

STARTCHAR S
ENCODING 83
SWIDTH 556 0
DWIDTH 14 0
BBX 15 17 -1 0
BITMAP
03F2
079E
0F0E
0E04
0F04
0F00
0F80
07C0
03E0
01F0
00F0
4078
4078
6078
6070
F0E0
9FC0
ENDCHAR

STARTCHAR T
ENCODING 84
SWIDTH 611 0
DWIDTH 15 0
BBX 15 17 2 0
BITMAP
3FFE
39CE
63C6
43C2
4382
0780
0780
0780
0700
0F00
0F00
0E00
1E00
1E00
1E00
3E00
FF00
ENDCHAR

STARTCHAR U
ENCODING 85
SWIDTH 722 0
DWIDTH 18 0
BBX 18 17 2 0
BITMAP
7F8FC0
1E0300
1E0200
1C0200
3C0200
3C0200
380400
780400
780400
780800
700800
F00800
F01000
F01000
702000
784000
1F8000
ENDCHAR

STARTCHAR V
ENCODING 86
SWIDTH 667 0
DWIDTH 17 0
BBX 17 17 3 0
BITMAP
FE0F80
780600
780400
780800
781000
782000
786000
78C000
788000
790000
7A0000
7C0000
780000
700000
600000
600000
400000
ENDCHAR

STARTCHAR W
ENCODING 87
SWIDTH 889 0
DWIDTH 22 0
BBX 22 17 3 0
BITMAP
FEFE3C
783818
787830
787820
787840
78F880
78B880
797900
7A7A00
747400
747400
787800
707000
607000
E0E000
C0C000
808000
ENDCHAR

STARTCHAR X
ENCODING 88
SWIDTH 667 0
DWIDTH 17 0
BBX 20 17 -1 0
BITMAP
1FE1F0
07C0C0
03C180
03C100
01C200
01EC00
01F800
00F000
00F000
00F800
017800
023800
043C00
083C00
101E00
701E00
F87F80
ENDCHAR

STARTCHAR Y
ENCODING 89
SWIDTH 611 0
DWIDTH 15 0
BBX 16 17 2 0
BITMAP
7F9F
3E0C
1E08
1E08
1E10
0E20
0F60
0F40
0F80
0700
0F00
0F00
0E00
1E00
1E00
1E00
FF80
ENDCHAR

STARTCHAR Z
ENCODING 90
SWIDTH 611 0
DWIDTH 15 0
BBX 18 17 -1 0
BITMAP
07FFC0
060F80
040F00
081F00
003E00
007C00
00F800
00F000
01E000
03E000
07C000
0F8000
1F0200
1E0400
3E0C00
783C00
FFF800
ENDCHAR

STARTCHAR bracketleft
ENCODING 91
SWIDTH 333 0
DWIDTH 8 0
BBX 11 21 0 -4
BITMAP
03E0
0380
0700
0700
0700
0E00
0E00
0E00
0C00
1C00
1C00
1C00
3800
3800
3800
3000
7000
7000
7000
E000
F800
ENDCHAR

STARTCHAR backslash
ENCODING 92
SWIDTH 278 0
DWIDTH 7 0
BBX 3 17 2 0
BITMAP
80
C0
C0
C0
C0
C0
40
40
40
40
40
60
60
60
60
60
20
ENDCHAR

STARTCHAR bracketright
ENCODING 93
SWIDTH 333 0
DWIDTH 8 0
BBX 12 21 -3 -4
BITMAP
03F0
00E0
00E0
00E0
00C0
01C0
01C0
01C0
0380
0380
0380
0700
0700
0700
0700
0E00
0E00
0E00
1C00
1C00
FC00
ENDCHAR

STARTCHAR asciicircum
ENCODING 94
SWIDTH 570 0
DWIDTH 14 0
BBX 11 9 2 8
BITMAP
0600
0600
0F00
1B00
1980
3080
30C0
6060
C060
ENDCHAR

STARTCHAR underscore
ENCODING 95
SWIDTH 500 0
DWIDTH 13 0
BBX 13 1 0 -3
BITMAP
FFF8
ENDCHAR

STARTCHAR quoteleft
ENCODING 96
SWIDTH 333 0
DWIDTH 8 0
BBX 5 8 4 9
BITMAP
08
30
60
C0
E0
F0
F0
60
ENDCHAR

STARTCHAR a
ENCODING 97
SWIDTH 500 0
DWIDTH 13 0
BBX 11 11 1 0
BITMAP
06E0
1960
39E0
31C0
71C0
E1C0
E380
E580
FBA0
FBC0
6300
ENDCHAR

STARTCHAR b
ENCODING 98
SWIDTH 500 0
DWIDTH 13 0
BBX 11 17 1 0
BITMAP
0600
3E00
0E00
1C00
1C00
1C00
39C0
3BE0
38E0
78E0
70E0
70E0
71C0
E1C0
E380
E700
7C00
ENDCHAR

STARTCHAR c
ENCODING 99
SWIDTH 444 0
DWIDTH 11 0
BBX 10 11 1 0
BITMAP
0780
18C0
39C0
7180
7000
E000
E000
E000
F180
7E00
3800
ENDCHAR

STARTCHAR d
ENCODING 100
SWIDTH 500 0
DWIDTH 13 0
BBX 13 17 0 0
BITMAP
0018
00F8
0038
0070
0070
0070
0760
1CE0
38E0
30E0
71C0
71C0
E1C0
E380
E5A0
FBC0
7380
ENDCHAR

STARTCHAR e
ENCODING 101
SWIDTH 444 0
DWIDTH 11 0
BBX 10 11 1 0
BITMAP
0780
09C0
39C0
7180
7300
FC00
E000
E000
E180
FE00
3800
ENDCHAR

STARTCHAR f
ENCODING 102
SWIDTH 333 0
DWIDTH 8 0
BBX 17 22 -4 -5
BITMAP
000700
001D80
003980
007000
007000
00E000
03F800
00E000
01E000
01C000
01C000
01C000
03C000
038000
038000
078000
070000
070000
060000
6E0000
CC0000
700000
ENDCHAR

STARTCHAR g
ENCODING 103
SWIDTH 500 0
DWIDTH 13 0
BBX 14 16 -1 -5
BITMAP
07C0
1E7C
3C70
3C70
38F0
38F0
11E0
0F80
3000
3E00
1FC0
3FE0
C1E0
C0E0
E0C0
3F00
ENDCHAR

STARTCHAR h
ENCODING 104
SWIDTH 556 0
DWIDTH 14 0
BBX 12 17 0 0
BITMAP
0300
1F00
0E00
0E00
0E00
0E00
1C70
1CF0
1D70
3A70
3CE0
38E0
78E0
71C0
71D0
F1E0
E1C0
ENDCHAR

STARTCHAR i
ENCODING 105
SWIDTH 278 0
DWIDTH 7 0
BBX 7 17 1 0
BITMAP
0C
1E
1E
0C
00
00
1C
78
38
38
70
70
70
E0
EC
F0
60
ENDCHAR

STARTCHAR j
ENCODING 106
SWIDTH 278 0
DWIDTH 7 0
BBX 12 22 -4 -5
BITMAP
0060
00F0
00F0
0060
0000
0000
0060
03E0
01C0
01C0
01C0
0380
0380
0380
0780
0700
0700
0700
0E00
4E00
CC00
7000
ENDCHAR

STARTCHAR k
ENCODING 107
SWIDTH 500 0
DWIDTH 13 0
BBX 13 17 0 0
BITMAP
0300
1F00
0700
0E00
0E00
0E00
1CF8
1C60
1CC0
1D80
3B80
3F80
3B80
73C0
71D0
71E0
E1C0
ENDCHAR

STARTCHAR l
ENCODING 108
SWIDTH 278 0
DWIDTH 7 0
BBX 7 17 0 0
BITMAP
06
1E
0E
1C
1C
1C
3C
38
38
38
70
70
70
E4
E8
F0
60
ENDCHAR

STARTCHAR m
ENCODING 109
SWIDTH 778 0
DWIDTH 19 0
BBX 18 11 0 0
BITMAP
0E7180
3CF3C0
1D75C0
1E79C0
3AEB80
3CF380
38E380
79E780
71C740
71C780
F3C700
ENDCHAR

STARTCHAR n
ENCODING 110
SWIDTH 556 0
DWIDTH 14 0
BBX 13 11 0 0
BITMAP
0E30
3CF0
1D70
1E70
3A70
3CE0
38E0
70E0
71F8
71E0
E0C0
ENDCHAR

STARTCHAR o
ENCODING 111
SWIDTH 500 0
DWIDTH 13 0
BBX 11 11 1 0
BITMAP
0780
1CC0
38E0
70E0
70E0
F1E0
E1C0
E1C0
E380
6600
3800
ENDCHAR

STARTCHAR p
ENCODING 112
SWIDTH 500 0
DWIDTH 13 0
BBX 15 16 -3 -5
BITMAP
01DC
07FE
038E
078E
070E
070E
071C
0E1C
0E38
0E70
1DC0
1C00
1C00
3800
3C00
FE00
ENDCHAR

STARTCHAR q
ENCODING 113
SWIDTH 500 0
DWIDTH 13 0
BBX 12 16 1 -5
BITMAP
0770
1D60
38E0
30E0
71C0
F1C0
E3C0
E380
E580
FB80
7700
0700
0700
0F00
0F00
3F80
ENDCHAR

STARTCHAR r
ENCODING 114
SWIDTH 389 0
DWIDTH 10 0
BBX 9 11 1 0
BITMAP
1980
FB80
3780
7500
7800
6800
7000
E000
E000
E000
E000
ENDCHAR

STARTCHAR s
ENCODING 115
SWIDTH 389 0
DWIDTH 10 0
BBX 10 11 -1 0
BITMAP
0F40
18C0
3840
3C40
1E00
1F00
0780
4380
4380
6300
9C00
ENDCHAR

STARTCHAR t
ENCODING 116
SWIDTH 278 0
DWIDTH 7 0
BBX 7 15 1 0
BITMAP
02
04
0C
3C
7E
38
38
78
70
70
70
E0
EC
F0
60
ENDCHAR

STARTCHAR u
ENCODING 117
SWIDTH 556 0
DWIDTH 14 0
BBX 12 11 1 0
BITMAP
1C70
78E0
38E0
38E0
71C0
71C0
72C0
E580
EBA0
F3C0
6180
ENDCHAR

STARTCHAR v
ENCODING 118
SWIDTH 444 0
DWIDTH 11 0
BBX 10 11 1 0
BITMAP
3180
F1C0
71C0
38C0
3880
3900
3A00
3C00
3800
3000
2000
ENDCHAR

STARTCHAR w
ENCODING 119
SWIDTH 667 0
DWIDTH 17 0
BBX 16 11 1 0
BITMAP
1046
F847
38C7
39E3
3AE2
3AE4
3CE4
38E8
30F0
20C0
2080
ENDCHAR

STARTCHAR x
ENCODING 120
SWIDTH 500 0
DWIDTH 13 0
BBX 14 11 -1 0
BITMAP
3E18
0E3C
0F68
0780
0700
0780
0380
0580
F9C8
F1F0
C0C0
ENDCHAR

STARTCHAR y
ENCODING 121
SWIDTH 444 0
DWIDTH 11 0
BBX 14 17 -3 -6
BITMAP
0218
1F1C
071C
070C
0708
0708
0390
03A0
03A0
03C0
0380
0380
0300
0200
6400
F800
7000
ENDCHAR

STARTCHAR z
ENCODING 122
SWIDTH 389 0
DWIDTH 10 0
BBX 10 13 0 -2
BITMAP
3FC0
3F80
3D00
4200
0400
0800
1000
2000
3000
7380
FB80
1B00
0E00
ENDCHAR

STARTCHAR braceleft
ENCODING 123
SWIDTH 348 0
DWIDTH 9 0
BBX 10 22 1 -5
BITMAP
00C0
0300
0700
0600
0E00
0E00
0E00
0E00
1C00
1800
7000
C000
3000
3000
3000
7000
7000
E000
E000
C000
C000
7000
ENDCHAR

STARTCHAR bar
ENCODING 124
SWIDTH 220 0
DWIDTH 5 0
BBX 2 22 2 -5
BITMAP
C0
C0
C0
C0
C0
C0
C0
C0
C0
C0
C0
C0
C0
C0
C0
C0
C0
C0
C0
C0
C0
C0
ENDCHAR

STARTCHAR braceright
ENCODING 125
SWIDTH 348 0
DWIDTH 9 0
BBX 10 22 -2 -5
BITMAP
0300
01C0
00C0
00C0
01C0
01C0
0380
0380
0300
0300
0080
01C0
0300
0E00
0C00
1C00
1C00
1C00
1C00
1800
3000
E000
ENDCHAR

STARTCHAR asciitilde
ENCODING 126
SWIDTH 570 0
DWIDTH 14 0
BBX 12 5 2 6
BITMAP
3810
7E10
FFE0
8FE0
01C0
ENDCHAR

STARTCHAR space
ENCODING 160
SWIDTH 250 0
DWIDTH 7 0
BBX 0 0 0 0
BITMAP
ENDCHAR

STARTCHAR Aogonek
ENCODING 161
SWIDTH 667 0
DWIDTH 17 0
BBX 16 22 -1 -5
BITMAP
0001
0002
0006
000E
001E
0036
002E
004E
008E
018E
030E
07FE
041E
081E
101E
301E
F86F
0018
0018
001C
000F
0006
ENDCHAR

STARTCHAR breve
ENCODING 162
SWIDTH 333 0
DWIDTH 8 0
BBX 7 4 4 13
BITMAP
86
8C
F8
70
ENDCHAR

STARTCHAR Lslash
ENCODING 163
SWIDTH 611 0
DWIDTH 15 0
BBX 15 17 -1 0
BITMAP
07F8
01E0
03C0
03C0
03D0
03B0
07C0
0780
0700
0F00
1F00
6E00
4E02
1E02
1E04
1E3C
FFFC
ENDCHAR

STARTCHAR currency
ENCODING 164
SWIDTH 500 0
DWIDTH 13 0
BBX 11 11 1 3
BITMAP
CE60
FFE0
60C0
4040
C060
C060
C060
4040
60C0
FFE0
CE60
ENDCHAR

STARTCHAR Lcaron
ENCODING 165
SWIDTH 611 0
DWIDTH 15 0
BBX 17 17 0 0
BITMAP
0FF700
03C780
03C780
038380
078100
078300
070400
0F0800
0F0000
0F0000
0E0000
1E0000
1E0200
1C0400
3C0C00
3C3C00
FFF800
ENDCHAR

STARTCHAR Sacute
ENCODING 166
SWIDTH 556 0
DWIDTH 14 0
BBX 15 22 -1 0
BITMAP
003C
0038
0030
0060
0000
03F2
071E
0F0E
0E04
0F04
0F00
0F80
07C0
03E0
01F0
00F0
4078
4078
6078
6070
F0E0
9FC0
ENDCHAR

STARTCHAR section
ENCODING 167
SWIDTH 500 0
DWIDTH 13 0
BBX 14 22 0 -5
BITMAP
01E0
0618
0C1C
0C1C
0E18
0F00
0780
0BC0
11E0
30F0
3070
3830
3830
1C20
1F40
0F80
0380
6380
E180
E180
6300
1C00
ENDCHAR

STARTCHAR dieresis
ENCODING 168
SWIDTH 333 0
DWIDTH 8 0
BBX 8 3 3 13
BITMAP
E7
E7
E7
ENDCHAR

STARTCHAR Scaron
ENCODING 169
SWIDTH 556 0
DWIDTH 14 0
BBX 15 22 -1 0
BITMAP
0082
00CC
00EC
0078
0000
03F2
071E
0F0E
0E04
0F04
0F00
0F80
07C0
03E0
01F0
00F0
4078
4078
6078
6070
F0E0
9FC0
ENDCHAR

STARTCHAR Scommaaccent
ENCODING 170
SWIDTH 556 0
DWIDTH 14 0
BBX 15 23 -1 -6
BITMAP
03F2
071E
0F0E
0E04
0F04
0F00
0F80
07C0
03E0
01F0
00F0
4078
4078
6078
6070
F0E0
9FC0
0000
0E00
0E00
0600
0C00
1000
ENDCHAR

STARTCHAR Tcaron
ENCODING 171
SWIDTH 611 0
DWIDTH 15 0
BBX 15 22 2 0
BITMAP
030C
0198
01F0
01E0
0000
3FFE
39CE
63C6
43C2
4382
0780
0780
0780
0700
0F00
0F00
0E00
1E00
1E00
1E00
3C00
FF00
ENDCHAR

STARTCHAR Zacute
ENCODING 172
SWIDTH 611 0
DWIDTH 15 0
BBX 18 22 -1 0
BITMAP
001E00
001C00
001800
003000
000000
07FFC0
070F80
040F00
081F00
003E00
007C00
00F800
00F000
01E000
03E000
07C000
0F8000
1F0200
1E0400
3E0C00
783C00
FFF800
ENDCHAR

STARTCHAR hyphen
ENCODING 173
SWIDTH 333 0
DWIDTH 8 0
BBX 8 3 0 4
BITMAP
7F
FF
FE
ENDCHAR

STARTCHAR Zcaron
ENCODING 174
SWIDTH 611 0
DWIDTH 15 0
BBX 18 22 -1 0
BITMAP
006300
006600
003E00
003C00
000000
07FFC0
070F80
040F00
081F00
003E00
007C00
00F800
00F000
01E000
03E000
07C000
0F8000
1F0200
1E0400
3E0C00
783C00
FFF800
ENDCHAR

STARTCHAR Zdotaccent
ENCODING 175
SWIDTH 611 0
DWIDTH 15 0
BBX 17 22 0 0
BITMAP
003000
007800
007800
003000
000000
07FF80
0E0F00
081F00
103E00
007C00
007800
00F000
01F000
03E000
07C000
0F8000
0F0000
1F0400
3E0C00
7C1800
F87800
FFF800
ENDCHAR

STARTCHAR degree
ENCODING 176
SWIDTH 400 0
DWIDTH 10 0
BBX 9 9 2 8
BITMAP
1C00
7F00
6300
C180
C180
C180
6300
7F00
1C00
ENDCHAR

STARTCHAR aogonek
ENCODING 177
SWIDTH 500 0
DWIDTH 13 0
BBX 12 15 1 -4
BITMAP
0770
1CE0
38E0
70E0
71C0
F1C0
E1C0
E580
FDA0
FBC0
6380
0600
0600
0700
03C0
ENDCHAR

STARTCHAR ogonek
ENCODING 178
SWIDTH 333 0
DWIDTH 8 0
BBX 5 5 0 -5
BITMAP
60
C0
E0
F0
78
ENDCHAR

STARTCHAR lslash
ENCODING 179
SWIDTH 278 0
DWIDTH 7 0
BBX 7 17 0 0
BITMAP
06
1E
0E
1C
1C
1C
1E
3C
38
78
B0
70
70
E4
E8
F0
60
ENDCHAR

STARTCHAR acute
ENCODING 180
SWIDTH 333 0
DWIDTH 8 0
BBX 5 4 5 13
BITMAP
38
70
60
C0
ENDCHAR

STARTCHAR lcaron
ENCODING 181
SWIDTH 387 0
DWIDTH 10 0
BBX 11 17 1 0
BITMAP
0640
3EE0
0EE0
1C60
1C40
1D80
3800
3800
3800
7000
7000
7000
F000
E800
E800
F000
E000
ENDCHAR

STARTCHAR sacute
ENCODING 182
SWIDTH 389 0
DWIDTH 10 0
BBX 12 16 -1 0
BITMAP
00F0
01C0
0180
0300
0000
0F40
18C0
3840
3C40
1E00
0F00
0780
4380
4380
6300
9C00
ENDCHAR

STARTCHAR caron
ENCODING 183
SWIDTH 333 0
DWIDTH 8 0
BBX 7 4 4 13
BITMAP
86
CC
D8
70
ENDCHAR

STARTCHAR commaaccent
ENCODING 184
SWIDTH 333 0
DWIDTH 8 0
BBX 4 5 2 -6
BITMAP
20
70
30
20
C0
ENDCHAR

STARTCHAR scaron
ENCODING 185
SWIDTH 389 0
DWIDTH 10 0
BBX 12 16 -1 0
BITMAP
0E30
06E0
07C0
0380
0000
0F40
18C0
3840
3C40
1E00
0F00
0780
4380
4380
6300
9C00
ENDCHAR

STARTCHAR scommaaccent
ENCODING 186
SWIDTH 389 0
DWIDTH 10 0
BBX 10 18 -1 -6
BITMAP
0F40
18C0
3840
3C40
3E00
1F00
0F00
0780
4380
4300
6300
9C00
0000
3800
3800
1800
3000
4000
ENDCHAR

STARTCHAR tcaron
ENCODING 187
SWIDTH 278 0
DWIDTH 7 0
BBX 10 17 1 0
BITMAP
01C0
01C0
02C0
0480
0D00
3C00
FE00
3800
3800
7800
7000
7000
F000
E000
EC00
F000
6000
ENDCHAR

STARTCHAR zacute
ENCODING 188
SWIDTH 389 0
DWIDTH 10 0
BBX 11 19 0 -2
BITMAP
01E0
01C0
0380
0300
0200
0000
3FC0
3F80
3D00
4200
0400
0800
1000
2000
3000
7B80
FB80
1B00
0E00
ENDCHAR

STARTCHAR hungarumlaut
ENCODING 189
SWIDTH 333 0
DWIDTH 8 0
BBX 8 4 4 13
BITMAP
77
66
CC
CC
ENDCHAR

STARTCHAR zcaron
ENCODING 190
SWIDTH 389 0
DWIDTH 10 0
BBX 12 19 0 -2
BITMAP
0C30
0C60
06C0
0780
0000
0000
3FC0
3F80
3D00
4200
0400
0800
1000
2000
3000
7B80
FB80
1B00
0E00
ENDCHAR

STARTCHAR zdotaccent
ENCODING 191
SWIDTH 389 0
DWIDTH 10 0
BBX 10 19 0 -2
BITMAP
0300
0780
0780
0300
0000
0000
3FC0
3F80
3D00
4200
0400
0800
1000
2000
3000
7B80
FB80
1B00
0E00
ENDCHAR

STARTCHAR Racute
ENCODING 192
SWIDTH 667 0
DWIDTH 17 0
BBX 17 22 -1 0
BITMAP
001E00
001C00
003800
003000
000000
07FE00
03CF00
03C780
03C780
038780
078700
078F00
071E00
07F800
0F7800
0F7800
0E3800
1E3C00
1E3C00
1C1C00
3C1E00
FF1F00
ENDCHAR

STARTCHAR Aacute
ENCODING 193
SWIDTH 667 0
DWIDTH 17 0
BBX 18 22 -1 0
BITMAP
0001C0
0003C0
000380
000300
000400
000200
000600
000600
000E00
001E00
003E00
006E00
00DE00
009E00
011E00
021E00
07FE00
0C1E00
181E00
301E00
601E00
F87F00
ENDCHAR

STARTCHAR Acircumflex
ENCODING 194
SWIDTH 667 0
DWIDTH 17 0
BBX 18 22 -1 0
BITMAP
000380
000780
000E80
0018C0
003040
000200
000600
000600
000E00
001E00
003E00
006E00
00DE00
009E00
011E00
021E00
07FE00
0C1E00
181E00
301E00
601E00
F87F00
ENDCHAR

STARTCHAR Abreve
ENCODING 195
SWIDTH 667 0
DWIDTH 17 0
BBX 19 21 -1 0
BITMAP
000820
000CC0
000F80
000500
000200
000200
000600
000E00
001E00
002E00
006E00
00DE00
009E00
011E00
021E00
07FE00
0C1E00
181E00
301E00
601E00
F87F00
ENDCHAR

STARTCHAR Adieresis
ENCODING 196
SWIDTH 667 0
DWIDTH 17 0
BBX 19 21 -1 0
BITMAP
001CE0
001CE0
001CE0
000000
000200
000200
000600
000E00
001E00
003E00
006E00
00DE00
009E00
011E00
021E00
07FE00
081E00
181E00
301E00
601E00
F87F00
ENDCHAR

STARTCHAR Lacute
ENCODING 197
SWIDTH 611 0
DWIDTH 15 0
BBX 15 22 -1 0
BITMAP
001C
0038
0030
0060
0000
07F8
03E0
03C0
03C0
03C0
0380
0780
0780
0700
0F00
0F00
0F00
0E02
1E02
1E0C
3E1C
FFFC
ENDCHAR

STARTCHAR Cacute
ENCODING 198
SWIDTH 667 0
DWIDTH 17 0
BBX 16 22 2 0
BITMAP
001E
001C
0018
0030
0020
00FD
0387
0F03
1E03
3C01
7C00
7800
7800
F000
F000
F000
F000
F000
700C
7818
3C30
0FC0
ENDCHAR

STARTCHAR Ccedilla
ENCODING 199
SWIDTH 667 0
DWIDTH 17 0
BBX 16 22 2 -5
BITMAP
00FD
0387
0F03
1E02
3C02
7C00
7800
7800
F000
F000
F000
F000
F000
7008
7810
3C60
1FC0
0600
1F80
0380
0780
7E00
ENDCHAR

STARTCHAR Ccaron
ENCODING 200
SWIDTH 667 0
DWIDTH 17 0
BBX 16 22 2 0
BITMAP
00C3
0066
006C
0078
0000
00FD
0387
0F03
1E03
3C01
7C00
7800
7800
F000
F000
F000
F000
F000
700C
7818
3C30
0FC0
ENDCHAR

STARTCHAR Eacute
ENCODING 201
SWIDTH 667 0
DWIDTH 17 0
BBX 18 22 -1 0
BITMAP
000F00
001C00
001800
001000
000000
07FFC0
03C1C0
03C080
03C080
03C000
038200
078400
078C00
07FC00
0F0800
0F0800
0F0800
0E0000
1E0100
1E0600
3E1E00
FFFC00
ENDCHAR

STARTCHAR Eogonek
ENCODING 202
SWIDTH 667 0
DWIDTH 17 0
BBX 18 22 -1 -5
BITMAP
07FFC0
01E1C0
01C0C0
03C040
03C000
03C200
038200
078C00
07FC00
070C00
0F0400
0F0400
0F0000
0E0100
1E0300
1E0E00
FFFE00
002000
006000
007000
007800
001C00
ENDCHAR

STARTCHAR Edieresis
ENCODING 203
SWIDTH 667 0
DWIDTH 17 0
BBX 18 21 -1 0
BITMAP
00E700
00E700
00E700
000000
0FFFC0
03C1C0
038080
038080
078000
078400
070400
0F0C00
0FF800
0F1800
0E0800
1E0800
1E0000
1C0300
3C0600
3C1E00
FFFC00
ENDCHAR

STARTCHAR Ecaron
ENCODING 204
SWIDTH 667 0
DWIDTH 17 0
BBX 18 22 -1 0
BITMAP
006380
003700
003E00
003C00
000000
07FFC0
03C1C0
03C080
03C080
03C000
038200
078400
078C00
07FC00
0F0800
0F0800
0F0800
0E0000
1E0100
1E0600
3E1E00
FFFC00
ENDCHAR

STARTCHAR Iacute
ENCODING 205
SWIDTH 389 0
DWIDTH 10 0
BBX 13 22 -1 0
BITMAP
0078
0070
0060
00C0
0000
07F8
03E0
03C0
03C0
03C0
0380
0780
0780
0700
0F00
0F00
0E00
1E00
1E00
1E00
3E00
FF80
ENDCHAR

STARTCHAR Icircumflex
ENCODING 206
SWIDTH 389 0
DWIDTH 10 0
BBX 13 22 -1 0
BITMAP
0070
00F0
0198
0718
0000
07F8
03E0
03C0
03C0
03C0
0380
0780
0780
0700
0F00
0F00
0E00
1E00
1E00
1E00
3E00
FF80
ENDCHAR

STARTCHAR Dcaron
ENCODING 207
SWIDTH 722 0
DWIDTH 18 0
BBX 18 22 0 0
BITMAP
00C300
006600
006C00
007C00
000000
0FF800
03DE00
03C700
038780
0783C0
0783C0
0703C0
0F03C0
0F03C0
0F03C0
0E0780
1E0780
1E0F00
1C0E00
3C1E00
3C7800
FFE000
ENDCHAR

STARTCHAR Dcroat
ENCODING 208
SWIDTH 722 0
DWIDTH 18 0
BBX 18 17 0 0
BITMAP
0FF800
03DE00
03C700
038780
0783C0
0783C0
0703C0
0F03C0
3FF3C0
0F03C0
0E0780
1E0780
1E0700
1C0F00
3C1E00
3C3800
FFC000
ENDCHAR

STARTCHAR Nacute
ENCODING 209
SWIDTH 722 0
DWIDTH 18 0
BBX 21 22 -1 0
BITMAP
000780
000700
000E00
000C00
000000
0FC0F8
01E020
03E020
02F040
02F040
027040
047880
047880
043C80
083C80
081F00
081F00
100F00
100E00
100600
300600
FC0200
ENDCHAR

STARTCHAR Ncaron
ENCODING 210
SWIDTH 722 0
DWIDTH 18 0
BBX 21 22 -1 0
BITMAP
0030C0
003180
001B00
001E00
000000
0FC0F8
01E020
03E020
02F040
02F040
027040
047880
047880
043C80
083C80
081F00
081F00
100F00
100E00
100600
300600
FC0200
ENDCHAR

STARTCHAR Oacute
ENCODING 211
SWIDTH 722 0
DWIDTH 18 0
BBX 17 22 1 0
BITMAP
000F00
001C00
001800
001800
003000
00FC00
038E00
070700
0E0780
1C0780
3C0780
780780
780780
780F00
F80F00
F00F00
F01E00
F01C00
703C00
707800
38E000
1F8000
ENDCHAR

STARTCHAR Ocircumflex
ENCODING 212
SWIDTH 722 0
DWIDTH 18 0
BBX 17 22 1 0
BITMAP
001C00
003C00
007600
01C600
000000
00FC00
038E00
070700
0E0780
1C0780
3C0780
780780
780780
780F00
F80F00
F00F00
F01E00
F01C00
703C00
707800
38E000
1F8000
ENDCHAR

STARTCHAR Ohungarumlaut
ENCODING 213
SWIDTH 722 0
DWIDTH 18 0
BBX 17 22 1 0
BITMAP
003B80
007700
006600
004400
000000
00FC00
038E00
070700
0E0780
1C0780
3C0780
780780
780780
780F00
F80F00
F00F00
F01E00
F01C00
703C00
707800
38E000
1F8000
ENDCHAR

STARTCHAR Odieresis
ENCODING 214
SWIDTH 722 0
DWIDTH 18 0
BBX 17 21 1 0
BITMAP
00E700
00E700
00E700
000000
00FC00
038E00
070700
1E0780
1C0780
3C0780
780780
780780
780F00
F80F00
F00F00
F01E00
F01C00
703C00
707800
38E000
1F8000
ENDCHAR

STARTCHAR multiply
ENCODING 215
SWIDTH 570 0
DWIDTH 14 0
BBX 11 11 2 3
BITMAP
4020
E060
70C0
3980
1D00
0600
0F00
1B80
31C0
E0E0
4060
ENDCHAR

STARTCHAR Rcaron
ENCODING 216
SWIDTH 667 0
DWIDTH 17 0
BBX 17 22 -1 0
BITMAP
004300
006600
007C00
003C00
000000
07FE00
03CF00
03C780
03C780
038780
078700
078F00
071E00
07F800
0F7800
0F7800
0E3800
1E3C00
1E3C00
1C1C00
3C1E00
FF1F00
ENDCHAR

STARTCHAR Uring
ENCODING 217
SWIDTH 722 0
DWIDTH 18 0
BBX 18 22 3 0
BITMAP
007000
008800
008800
008800
007000
7F8FC0
1E0300
1C0200
1C0200
3C0400
3C0400
380400
780800
780800
700800
700800
F01000
F01000
F02000
F02000
78C000
1F8000
ENDCHAR

STARTCHAR Uacute
ENCODING 218
SWIDTH 722 0
DWIDTH 18 0
BBX 18 22 2 0
BITMAP
001E00
001C00
003800
003000
000000
7FCFC0
1E0300
1E0300
1C0200
3C0200
3C0200
380400
380400
780400
780800
700800
F00800
F01000
F01000
F02000
784000
1F8000
ENDCHAR

STARTCHAR Uhungarumlaut
ENCODING 219
SWIDTH 722 0
DWIDTH 18 0
BBX 18 22 2 0
BITMAP
007700
006600
006600
004400
000000
7FCFC0
1E0300
1E0300
1C0200
3C0200
3C0200
380400
380400
780400
780800
700800
F00800
F01000
F01000
F02000
784000
1F8000
ENDCHAR

STARTCHAR Udieresis
ENCODING 220
SWIDTH 722 0
DWIDTH 18 0
BBX 18 21 2 0
BITMAP
01CE00
01CE00
01CE00
000000
7F8FC0
1E0300
1C0200
1C0200
3C0200
380400
380400
780400
780C00
700800
700800
F00800
F01000
F01000
F02000
78C000
1F8000
ENDCHAR

STARTCHAR Yacute
ENCODING 221
SWIDTH 611 0
DWIDTH 15 0
BBX 16 22 2 0
BITMAP
003C
0038
0030
0060
0000
7F9F
1E0C
1E08
1E08
1E10
0E20
0F60
0F40
0F80
0700
0F00
0F00
0E00
1E00
1E00
1E00
FF80
ENDCHAR

STARTCHAR Tcommaaccent
ENCODING 222
SWIDTH 611 0
DWIDTH 15 0
BBX 15 23 2 -6
BITMAP
3FFE
39CE
63C6
43C2
4382
0780
0780
0780
0700
0F00
0F00
0E00
1E00
1E00
1E00
3E00
FF00
0000
3800
3800
1800
1000
6000
ENDCHAR

STARTCHAR germandbls
ENCODING 223
SWIDTH 500 0
DWIDTH 13 0
BBX 17 22 -4 -5
BITMAP
001E00
003300
007380
00E380
00E780
00E700
01C600
01D800
01CE00
03CE00
038E00
038E00
038E00
078C00
075C00
075800
0F3000
0E0000
0E0000
4C0000
D80000
E00000
ENDCHAR

STARTCHAR racute
ENCODING 224
SWIDTH 389 0
DWIDTH 10 0
BBX 11 16 1 0
BITMAP
03E0
0380
0300
0600
0000
1980
FB80
3780
7500
7800
6800
7000
E000
E000
E000
E000
ENDCHAR

STARTCHAR aacute
ENCODING 225
SWIDTH 500 0
DWIDTH 13 0
BBX 12 17 1 0
BITMAP
00F0
00E0
01C0
0180
0100
0000
07E0
1960
38E0
71C0
71C0
E1C0
E380
E580
FBA0
F3C0
6300
ENDCHAR

STARTCHAR acircumflex
ENCODING 226
SWIDTH 500 0
DWIDTH 13 0
BBX 12 17 1 0
BITMAP
01C0
01E0
0360
0620
0830
0000
07E0
1960
38E0
71C0
71C0
E1C0
E380
E580
FBA0
F3C0
6300
ENDCHAR

STARTCHAR abreve
ENCODING 227
SWIDTH 500 0
DWIDTH 13 0
BBX 12 17 1 0
BITMAP
0410
0620
07E0
03C0
0000
0000
07E0
1960
38E0
71C0
71C0
E1C0
E380
E580
FBA0
F3C0
6300
ENDCHAR

STARTCHAR adieresis
ENCODING 228
SWIDTH 500 0
DWIDTH 13 0
BBX 12 16 1 0
BITMAP
0E70
0E70
0E70
0000
0000
0EE0
1960
31E0
71C0
71C0
E3C0
E380
E580
EBA0
F7C0
6300
ENDCHAR

STARTCHAR lacute
ENCODING 229
SWIDTH 278 0
DWIDTH 7 0
BBX 10 22 0 0
BITMAP
03C0
0380
0700
0600
0000
0700
1F00
0E00
0E00
0E00
1C00
1C00
1C00
3800
3800
3800
7000
7000
7400
7400
F800
6000
ENDCHAR

STARTCHAR cacute
ENCODING 230
SWIDTH 444 0
DWIDTH 11 0
BBX 11 16 1 0
BITMAP
01E0
0180
0300
0200
0000
0780
18C0
31C0
7180
6000
E000
E000
E000
F180
7E00
3800
ENDCHAR

STARTCHAR ccedilla
ENCODING 231
SWIDTH 444 0
DWIDTH 11 0
BBX 11 16 0 -5
BITMAP
03C0
0C60
1CE0
38C0
3800
7000
7000
7000
78C0
3F00
0E00
1800
3E00
0E00
0E00
F800
ENDCHAR

STARTCHAR ccaron
ENCODING 232
SWIDTH 444 0
DWIDTH 11 0
BBX 12 16 1 0
BITMAP
0C70
06C0
07C0
0780
0000
0780
18C0
31C0
7180
6000
E000
E000
E000
F180
7E00
3800
ENDCHAR

STARTCHAR eacute
ENCODING 233
SWIDTH 444 0
DWIDTH 11 0
BBX 11 17 1 0
BITMAP
01E0
01C0
0180
0300
0200
0000
0780
09C0
39C0
7180
7300
FE00
E000
E000
E180
FE00
3800
ENDCHAR

STARTCHAR eogonek
ENCODING 234
SWIDTH 444 0
DWIDTH 11 0
BBX 11 15 0 -4
BITMAP
03C0
0CE0
18E0
31C0
7380
FE00
E000
E000
F0C0
7F00
1C00
3000
3000
3800
1F00
ENDCHAR

STARTCHAR edieresis
ENCODING 235
SWIDTH 444 0
DWIDTH 11 0
BBX 11 16 1 0
BITMAP
0EE0
0EE0
0EE0
0000
0000
0380
0DC0
39C0
3180
7300
FE00
E000
E000
F180
FE00
3800
ENDCHAR

STARTCHAR ecaron
ENCODING 236
SWIDTH 444 0
DWIDTH 11 0
BBX 12 17 1 0
BITMAP
0C30
0C60
06C0
0780
0780
0000
0780
09C0
39C0
7180
7300
FE00
E000
E000
E180
FE00
3800
ENDCHAR

STARTCHAR iacute
ENCODING 237
SWIDTH 278 0
DWIDTH 7 0
BBX 9 17 1 -1
BITMAP
0780
0600
0C00
0800
0000
1C00
7800
3800
3800
7800
7000
7000
7000
E400
E800
F000
6000
ENDCHAR

STARTCHAR icircumflex
ENCODING 238
SWIDTH 278 0
DWIDTH 7 0
BBX 9 17 1 -1
BITMAP
0F00
1D00
3100
6180
0000
1C00
7800
3800
3800
7800
7000
7000
7000
E400
E800
F000
6000
ENDCHAR

STARTCHAR dcaron
ENCODING 239
SWIDTH 559 0
DWIDTH 14 0
BBX 17 17 0 0
BITMAP
001900
00FB80
003B80
007180
007100
007300
07E400
1CE000
38E000
30E000
71C000
71C000
E1C000
E58000
E5A000
FBC000
738000
ENDCHAR

STARTCHAR dcroat
ENCODING 240
SWIDTH 500 0
DWIDTH 13 0
BBX 14 18 1 -1
BITMAP
0038
00F8
0070
07FC
0070
0070
0760
1CE0
38E0
30C0
71C0
71C0
E3C0
E380
E580
FBA0
F3C0
6380
ENDCHAR

STARTCHAR nacute
ENCODING 241
SWIDTH 556 0
DWIDTH 14 0
BBX 12 16 0 0
BITMAP
00F0
00E0
00C0
0180
0000
0C60
7CF0
1D70
3A70
3CE0
38E0
78E0
71C0
71D0
F1E0
E1C0
ENDCHAR

STARTCHAR ncaron
ENCODING 242
SWIDTH 556 0
DWIDTH 14 0
BBX 13 16 0 0
BITMAP
0738
0370
03E0
01C0
0000
0C60
7CF0
1D70
3A70
3CE0
38E0
78E0
71C0
71D0
F1E0
E1C0
ENDCHAR

STARTCHAR oacute
ENCODING 243
SWIDTH 500 0
DWIDTH 13 0
BBX 12 16 1 0
BITMAP
00F0
01C0
0180
0100
0000
0780
1CC0
38E0
70E0
70E0
F1E0
E1C0
E1C0
E380
6600
3800
ENDCHAR

STARTCHAR ocircumflex
ENCODING 244
SWIDTH 500 0
DWIDTH 13 0
BBX 11 16 1 0
BITMAP
03C0
0360
0660
0820
0000
0780
1CC0
38E0
70E0
70E0
F1E0
E1C0
E1C0
E380
6600
3800
ENDCHAR

STARTCHAR ohungarumlaut
ENCODING 245
SWIDTH 500 0
DWIDTH 13 0
BBX 13 16 1 0
BITMAP
03B8
0330
0220
0640
0000
0780
1CC0
38E0
70E0
70E0
F1E0
E1C0
E1C0
E380
6600
3800
ENDCHAR

STARTCHAR odieresis
ENCODING 246
SWIDTH 500 0
DWIDTH 13 0
BBX 12 16 1 0
BITMAP
0E70
0E70
0E70
0000
0000
0780
1CC0
38E0
70E0
70E0
E1E0
E1C0
E380
E380
6600
3800
ENDCHAR

STARTCHAR divide
ENCODING 247
SWIDTH 570 0
DWIDTH 14 0
BBX 14 11 1 3
BITMAP
0200
0700
0200
0000
0000
FFFC
FFFC
0000
0200
0700
0200
ENDCHAR

STARTCHAR rcaron
ENCODING 248
SWIDTH 389 0
DWIDTH 10 0
BBX 11 16 1 0
BITMAP
0C60
0DC0
0F80
0700
0000
1980
FB80
3780
7500
7800
6800
7000
E000
E000
E000
E000
ENDCHAR

STARTCHAR uring
ENCODING 249
SWIDTH 556 0
DWIDTH 14 0
BBX 12 17 1 0
BITMAP
01C0
0220
0220
0220
01C0
0000
1C00
7870
38E0
38E0
71E0
71C0
72C0
E5C0
EBA0
F3C0
6180
ENDCHAR

STARTCHAR uacute
ENCODING 250
SWIDTH 556 0
DWIDTH 14 0
BBX 12 16 1 0
BITMAP
00F0
00C0
0180
0100
0000
1C00
7870
38E0
78E0
71E0
71C0
F2C0
E5C0
EBB0
F3C0
6180
ENDCHAR

STARTCHAR uhungarumlaut
ENCODING 251
SWIDTH 556 0
DWIDTH 14 0
BBX 14 17 1 0
BITMAP
03FC
03B8
0330
0220
0000
0000
1C00
7870
38E0
78E0
71E0
71C0
F2C0
E5C0
EBB0
F3C0
6180
ENDCHAR

STARTCHAR udieresis
ENCODING 252
SWIDTH 556 0
DWIDTH 14 0
BBX 12 16 1 0
BITMAP
0E70
0E70
0E70
0000
0000
1C00
7870
38E0
78E0
71E0
71C0
F2C0
E5C0
EBB0
F3C0
6180
ENDCHAR

STARTCHAR yacute
ENCODING 253
SWIDTH 444 0
DWIDTH 11 0
BBX 14 22 -3 -5
BITMAP
0078
0070
0060
00C0
0000
0108
1F1C
071C
070C
0708
0388
0390
0390
03A0
03C0
03C0
0380
0300
0200
6400
F800
7000
ENDCHAR

STARTCHAR tcommaaccent
ENCODING 254
SWIDTH 278 0
DWIDTH 7 0
BBX 9 21 -1 -6
BITMAP
0100
0300
0600
0E00
3F80
0E00
1C00
1C00
1C00
3800
3800
3800
3A00
7C00
3800
0000
7000
7000
3000
2000
C000
ENDCHAR

STARTCHAR dotaccent
ENCODING 255
SWIDTH 333 0
DWIDTH 8 0
BBX 4 4 5 13
BITMAP
60
F0
F0
60
ENDCHAR

ENDFONT
