STARTFONT 2.1
FONT -Monotype-Times New Roman-Regular-I-Normal--17-120-100-100-P-83-iso8859-7
SIZE 12 100 100
FONTBOUNDINGBOX 20 18 -2 -4

STARTPROPERTIES 24
FOUNDRY "Monotype"
FAMILY_NAME "Times New Roman"
WEIGHT_NAME "Regular"
SLANT "I"
SETWIDTH_NAME "Normal"
ADD_STYLE_NAME ""
PIXEL_SIZE 17
POINT_SIZE 120
RESOLUTION_X 100
RESOLUTION_Y 100
SPACING "P"
AVERAGE_WIDTH 83
CHARSET_REGISTRY "iso8859"
CHARSET_ENCODING "7"
FACE_NAME "Times New Roman Inclined ISO Latin Greek"
_DEC_DEVICE_FONTNAMES "PS=timesnewroman-in-latgreek"
COPYRIGHT "Copyright (c) 1994 Monotype Typography Ltd."
CAP_HEIGHT 13
X_HEIGHT 9
WEIGHT 10
QUAD_WIDTH 10
DEFAULT_CHAR 160
FONT_DESCENT 4
FONT_ASCENT 16
ENDPROPERTIES

CHARS 185

STARTCHAR space
ENCODING 32
SWIDTH 250 0
DWIDTH 4 0
BBX 0 0 0 0
BITMAP
ENDCHAR

STARTCHAR exclam
ENCODING 33
SWIDTH 271 0
DWIDTH 5 0
BBX 4 12 0 0
BITMAP
30
30
30
20
60
60
60
40
40
00
C0
C0
ENDCHAR

STARTCHAR quotedbl
ENCODING 34
SWIDTH 406 0
DWIDTH 7 0
BBX 5 5 1 7
BITMAP
D8
D8
D8
48
48
ENDCHAR

STARTCHAR numbersign
ENCODING 35
SWIDTH 667 0
DWIDTH 11 0
BBX 10 11 1 -1
BITMAP
1080
1080
1080
FFC0
2100
2100
2100
FFC0
4200
4200
4200
ENDCHAR

STARTCHAR dollar
ENCODING 36
SWIDTH 500 0
DWIDTH 9 0
BBX 8 14 0 -1
BITMAP
02
0E
35
35
34
34
18
1C
0E
16
96
94
78
20
ENDCHAR

STARTCHAR percent
ENCODING 37
SWIDTH 823 0
DWIDTH 14 0
BBX 13 12 0 0
BITMAP
3008
5810
9820
9840
9880
9130
6658
0898
1098
2098
4090
8060
ENDCHAR

STARTCHAR ampersand
ENCODING 38
SWIDTH 719 0
DWIDTH 12 0
BBX 11 12 0 0
BITMAP
0300
0580
0D80
0D00
0E00
1C00
6CE0
6640
C680
C300
E3A0
3CC0
ENDCHAR

STARTCHAR quoteright
ENCODING 39
SWIDTH 271 0
DWIDTH 5 0
BBX 2 4 2 8
BITMAP
40
C0
40
80
ENDCHAR

STARTCHAR parenleft
ENCODING 40
SWIDTH 500 0
DWIDTH 9 0
BBX 6 15 2 -3
BITMAP
04
08
10
20
60
60
C0
C0
C0
C0
C0
C0
C0
40
20
ENDCHAR

STARTCHAR parenright
ENCODING 41
SWIDTH 500 0
DWIDTH 9 0
BBX 6 15 0 -3
BITMAP
10
08
0C
0C
0C
0C
0C
0C
0C
18
18
10
20
40
80
ENDCHAR

STARTCHAR asterisk
ENCODING 42
SWIDTH 500 0
DWIDTH 9 0
BBX 7 6 2 6
BITMAP
10
D6
38
38
D6
10
ENDCHAR

STARTCHAR plus
ENCODING 43
SWIDTH 667 0
DWIDTH 11 0
BBX 9 9 1 0
BITMAP
0800
0800
0800
0800
FF80
0800
0800
0800
0800
ENDCHAR

STARTCHAR comma
ENCODING 44
SWIDTH 271 0
DWIDTH 5 0
BBX 2 4 1 -2
BITMAP
40
C0
40
80
ENDCHAR

STARTCHAR minus
ENCODING 45
SWIDTH 667 0
DWIDTH 11 0
BBX 9 1 1 4
BITMAP
FF80
ENDCHAR

STARTCHAR period
ENCODING 46
SWIDTH 271 0
DWIDTH 5 0
BBX 2 2 0 0
BITMAP
C0
C0
ENDCHAR

STARTCHAR slash
ENCODING 47
SWIDTH 281 0
DWIDTH 5 0
BBX 7 13 -1 -1
BITMAP
02
02
04
04
08
08
10
10
20
20
40
40
80
ENDCHAR

STARTCHAR zero
ENCODING 48
SWIDTH 500 0
DWIDTH 9 0
BBX 7 12 1 0
BITMAP
1C
26
66
66
C6
C6
C6
C6
CC
CC
C8
70
ENDCHAR

STARTCHAR one
ENCODING 49
SWIDTH 500 0
DWIDTH 9 0
BBX 5 12 1 0
BITMAP
08
38
18
18
30
30
30
30
60
60
60
F0
ENDCHAR

STARTCHAR two
ENCODING 50
SWIDTH 500 0
DWIDTH 9 0
BBX 8 12 0 0
BITMAP
0E
1F
23
03
03
02
04
08
10
22
7E
FC
ENDCHAR

STARTCHAR three
ENCODING 51
SWIDTH 500 0
DWIDTH 9 0
BBX 7 12 1 0
BITMAP
1C
26
06
06
04
38
1C
0C
0C
0C
88
F0
ENDCHAR

STARTCHAR four
ENCODING 52
SWIDTH 500 0
DWIDTH 9 0
BBX 8 12 0 0
BITMAP
01
03
07
0B
16
26
46
FF
FF
0C
0C
0C
ENDCHAR

STARTCHAR five
ENCODING 53
SWIDTH 500 0
DWIDTH 9 0
BBX 8 12 0 0
BITMAP
0F
08
10
3C
3E
06
06
06
02
04
C8
F0
ENDCHAR

STARTCHAR six
ENCODING 54
SWIDTH 500 0
DWIDTH 9 0
BBX 8 12 1 0
BITMAP
03
04
18
30
7C
66
C6
C6
C6
C4
C8
70
ENDCHAR

STARTCHAR seven
ENCODING 55
SWIDTH 500 0
DWIDTH 9 0
BBX 8 12 1 0
BITMAP
7F
7E
84
04
08
08
10
10
20
20
40
40
ENDCHAR

STARTCHAR eight
ENCODING 56
SWIDTH 500 0
DWIDTH 9 0
BBX 7 12 1 0
BITMAP
1C
36
66
66
34
38
58
CC
CC
CC
D8
70
ENDCHAR

STARTCHAR nine
ENCODING 57
SWIDTH 500 0
DWIDTH 9 0
BBX 8 12 0 0
BITMAP
0E
13
23
63
63
63
66
3E
0C
18
20
C0
ENDCHAR

STARTCHAR colon
ENCODING 58
SWIDTH 333 0
DWIDTH 6 0
BBX 3 8 1 0
BITMAP
60
60
00
00
00
00
C0
C0
ENDCHAR

STARTCHAR semicolon
ENCODING 59
SWIDTH 333 0
DWIDTH 6 0
BBX 3 10 1 -2
BITMAP
60
60
00
00
00
00
40
C0
40
80
ENDCHAR

STARTCHAR less
ENCODING 60
SWIDTH 668 0
DWIDTH 11 0
BBX 9 9 1 0
BITMAP
0080
0300
0C00
3000
C000
3000
0C00
0300
0080
ENDCHAR

STARTCHAR equal
ENCODING 61
SWIDTH 667 0
DWIDTH 11 0
BBX 9 5 1 2
BITMAP
FF80
0000
0000
0000
FF80
ENDCHAR

STARTCHAR greater
ENCODING 62
SWIDTH 667 0
DWIDTH 11 0
BBX 9 9 1 0
BITMAP
8000
6000
1800
0600
0180
0600
1800
6000
8000
ENDCHAR

STARTCHAR question
ENCODING 63
SWIDTH 385 0
DWIDTH 7 0
BBX 6 12 1 0
BITMAP
38
6C
6C
0C
08
10
20
40
40
00
C0
C0
ENDCHAR

STARTCHAR at
ENCODING 64
SWIDTH 917 0
DWIDTH 16 0
BBX 14 16 1 -4
BITMAP
07E0
1810
2008
2004
43A4
46C4
8CC4
8CC4
98C4
9988
9B90
4DE4
4004
2008
1870
0780
ENDCHAR

STARTCHAR A
ENCODING 65
SWIDTH 719 0
DWIDTH 12 0
BBX 12 12 -1 0
BITMAP
0020
0060
00E0
0160
0260
0260
0460
0FE0
1060
2060
4060
E0F0
ENDCHAR

STARTCHAR B
ENCODING 66
SWIDTH 667 0
DWIDTH 11 0
BBX 10 12 0 0
BITMAP
3F80
18C0
18C0
18C0
3180
3E00
3300
3180
6180
6180
6300
FE00
ENDCHAR

STARTCHAR C
ENCODING 67
SWIDTH 719 0
DWIDTH 12 0
BBX 11 12 1 0
BITMAP
07A0
1840
3040
6000
6000
C000
C000
C000
C000
C080
6100
3E00
ENDCHAR

STARTCHAR D
ENCODING 68
SWIDTH 771 0
DWIDTH 13 0
BBX 12 12 0 0
BITMAP
3FC0
1860
1830
1830
3030
3030
3030
3060
6060
60C0
6180
FE00
ENDCHAR

STARTCHAR E
ENCODING 69
SWIDTH 667 0
DWIDTH 11 0
BBX 11 12 0 0
BITMAP
3FE0
1820
1820
1800
3100
3F00
3100
3000
6000
6040
6080
FF80
ENDCHAR

STARTCHAR F
ENCODING 70
SWIDTH 604 0
DWIDTH 10 0
BBX 10 12 0 0
BITMAP
3FC0
1840
1840
1800
3100
3F00
3100
3000
6000
6000
6000
F000
ENDCHAR

STARTCHAR G
ENCODING 71
SWIDTH 719 0
DWIDTH 12 0
BBX 11 12 1 0
BITMAP
07A0
1840
3040
6000
6000
C000
C3C0
C180
C180
C180
6300
3E00
ENDCHAR

STARTCHAR H
ENCODING 72
SWIDTH 823 0
DWIDTH 14 0
BBX 14 12 0 0
BITMAP
3C3C
1818
1818
1818
3030
3FF0
3030
3030
6060
6060
6060
F0F0
ENDCHAR

STARTCHAR I
ENCODING 73
SWIDTH 385 0
DWIDTH 7 0
BBX 6 12 0 0
BITMAP
3C
18
18
18
30
30
30
30
60
60
60
F0
ENDCHAR

STARTCHAR J
ENCODING 74
SWIDTH 500 0
DWIDTH 9 0
BBX 9 12 0 0
BITMAP
0780
0300
0300
0300
0600
0600
0600
0600
0C00
CC00
C800
7000
ENDCHAR

STARTCHAR K
ENCODING 75
SWIDTH 719 0
DWIDTH 12 0
BBX 12 12 0 0
BITMAP
3CF0
1840
1880
1900
3200
3C00
3600
3300
6300
6180
60C0
F9F0
ENDCHAR

STARTCHAR L
ENCODING 76
SWIDTH 667 0
DWIDTH 11 0
BBX 10 12 0 0
BITMAP
3C00
1800
1800
1800
3000
3000
3000
3000
6000
6040
6080
FF80
ENDCHAR

STARTCHAR M
ENCODING 77
SWIDTH 990 0
DWIDTH 17 0
BBX 17 12 0 0
BITMAP
380380
180700
1C0B00
1C1300
2C1600
262600
264600
264600
468C00
438C00
430C00
E11E00
ENDCHAR

STARTCHAR N
ENCODING 78
SWIDTH 771 0
DWIDTH 13 0
BBX 13 12 0 0
BITMAP
3838
1C10
1C10
1610
2620
2320
21A0
21A0
40C0
40C0
4040
E040
ENDCHAR

STARTCHAR O
ENCODING 79
SWIDTH 771 0
DWIDTH 13 0
BBX 11 12 1 0
BITMAP
0780
18C0
3060
6060
6060
C060
C060
C0C0
C0C0
C180
6300
3C00
ENDCHAR

STARTCHAR P
ENCODING 80
SWIDTH 667 0
DWIDTH 11 0
BBX 10 12 0 0
BITMAP
3F80
18C0
18C0
18C0
3180
3F00
3000
3000
6000
6000
6000
F000
ENDCHAR

STARTCHAR Q
ENCODING 81
SWIDTH 771 0
DWIDTH 13 0
BBX 11 15 1 -3
BITMAP
0780
18C0
3060
6060
6060
C060
C060
C0C0
C0C0
C180
6300
3C00
2000
7E40
8F80
ENDCHAR

STARTCHAR R
ENCODING 82
SWIDTH 719 0
DWIDTH 12 0
BBX 11 12 0 0
BITMAP
3F80
18C0
18C0
18C0
3180
3E00
3300
3300
6180
6180
60C0
F1E0
ENDCHAR

STARTCHAR S
ENCODING 83
SWIDTH 604 0
DWIDTH 10 0
BBX 10 12 0 0
BITMAP
0F40
1080
3080
3080
3800
1C00
0E00
0700
4300
4300
4200
BC00
ENDCHAR

STARTCHAR T
ENCODING 84
SWIDTH 667 0
DWIDTH 11 0
BBX 10 12 1 0
BITMAP
7FC0
8C40
8C40
0C00
1800
1800
1800
1800
3000
3000
3000
7800
ENDCHAR

STARTCHAR U
ENCODING 85
SWIDTH 771 0
DWIDTH 13 0
BBX 12 12 1 0
BITMAP
7870
3020
3020
3020
6040
6040
6040
C040
C080
C080
6100
3E00
ENDCHAR

STARTCHAR V
ENCODING 86
SWIDTH 719 0
DWIDTH 12 0
BBX 11 12 2 0
BITMAP
F0E0
6040
6080
6100
6200
6200
6400
6800
7000
6000
4000
4000
ENDCHAR

STARTCHAR W
ENCODING 87
SWIDTH 990 0
DWIDTH 17 0
BBX 16 12 2 0
BITMAP
F3C7
6182
6184
6188
6388
6590
69A0
69A0
71C0
6180
4100
4100
ENDCHAR

STARTCHAR X
ENCODING 88
SWIDTH 719 0
DWIDTH 12 0
BBX 12 12 0 0
BITMAP
3C70
1820
1840
0C80
0D00
0600
0600
0B00
1300
2180
4180
E3C0
ENDCHAR

STARTCHAR Y
ENCODING 89
SWIDTH 719 0
DWIDTH 12 0
BBX 10 12 2 0
BITMAP
F1C0
6080
6100
6200
3400
3800
3000
3000
6000
6000
6000
F000
ENDCHAR

STARTCHAR Z
ENCODING 90
SWIDTH 719 0
DWIDTH 12 0
BBX 13 12 -1 0
BITMAP
0FF8
0830
1060
00C0
0180
0300
0600
0C00
1800
3020
6040
FFC0
ENDCHAR

STARTCHAR bracketleft
ENCODING 91
SWIDTH 500 0
DWIDTH 9 0
BBX 7 16 1 -4
BITMAP
1E
18
18
18
30
30
30
30
60
60
60
60
C0
C0
C0
F0
ENDCHAR

STARTCHAR backslash
ENCODING 92
SWIDTH 281 0
DWIDTH 5 0
BBX 7 13 -1 -1
BITMAP
80
40
40
20
20
10
10
08
08
04
04
02
02
ENDCHAR

STARTCHAR bracketright
ENCODING 93
SWIDTH 500 0
DWIDTH 9 0
BBX 7 16 0 -4
BITMAP
1E
06
06
06
0C
0C
0C
0C
18
18
18
18
30
30
30
F0
ENDCHAR

STARTCHAR asciicircum
ENCODING 94
SWIDTH 427 0
DWIDTH 7 0
BBX 7 6 0 6
BITMAP
10
10
28
44
44
82
ENDCHAR

STARTCHAR underscore
ENCODING 95
SWIDTH 500 0
DWIDTH 9 0
BBX 9 1 0 -2
BITMAP
FF80
ENDCHAR

STARTCHAR quoteleft
ENCODING 96
SWIDTH 271 0
DWIDTH 5 0
BBX 2 4 2 8
BITMAP
40
80
C0
80
ENDCHAR

STARTCHAR a
ENCODING 97
SWIDTH 500 0
DWIDTH 9 0
BBX 7 8 1 0
BITMAP
0E
36
66
66
CC
CC
DC
6E
ENDCHAR

STARTCHAR b
ENCODING 98
SWIDTH 500 0
DWIDTH 9 0
BBX 7 12 1 0
BITMAP
70
30
30
30
6C
76
66
66
C6
C4
C8
70
ENDCHAR

STARTCHAR c
ENCODING 99
SWIDTH 438 0
DWIDTH 7 0
BBX 6 8 1 0
BITMAP
18
2C
4C
C0
C0
C0
C8
70
ENDCHAR

STARTCHAR d
ENCODING 100
SWIDTH 500 0
DWIDTH 9 0
BBX 8 12 1 0
BITMAP
07
03
03
03
16
2E
66
C6
CC
CC
DC
6E
ENDCHAR

STARTCHAR e
ENCODING 101
SWIDTH 438 0
DWIDTH 7 0
BBX 6 8 1 0
BITMAP
18
2C
4C
F8
C0
C0
C8
70
ENDCHAR

STARTCHAR f
ENCODING 102
SWIDTH 333 0
DWIDTH 6 0
BBX 10 16 -2 -4
BITMAP
01C0
0340
0600
0600
1F00
0C00
0C00
0C00
1800
1800
1800
1800
3000
3000
A000
C000
ENDCHAR

STARTCHAR g
ENCODING 103
SWIDTH 500 0
DWIDTH 9 0
BBX 9 11 0 -3
BITMAP
1C00
2780
6600
6600
6400
3800
2000
7C00
C600
C600
7C00
ENDCHAR

STARTCHAR h
ENCODING 104
SWIDTH 500 0
DWIDTH 9 0
BBX 8 12 0 0
BITMAP
70
30
30
30
66
6B
73
63
C6
C6
C6
C7
ENDCHAR

STARTCHAR i
ENCODING 105
SWIDTH 271 0
DWIDTH 5 0
BBX 4 11 1 0
BITMAP
30
30
00
E0
60
60
60
C0
C0
C0
E0
ENDCHAR

STARTCHAR j
ENCODING 106
SWIDTH 271 0
DWIDTH 5 0
BBX 7 15 -2 -4
BITMAP
06
06
00
1C
0C
0C
0C
18
18
18
18
30
30
A0
C0
ENDCHAR

STARTCHAR k
ENCODING 107
SWIDTH 531 0
DWIDTH 9 0
BBX 8 12 0 0
BITMAP
70
30
30
30
67
64
68
70
D8
CC
CD
C6
ENDCHAR

STARTCHAR l
ENCODING 108
SWIDTH 271 0
DWIDTH 5 0
BBX 4 12 1 0
BITMAP
70
30
30
30
60
60
60
60
C0
C0
C0
E0
ENDCHAR

STARTCHAR m
ENCODING 109
SWIDTH 771 0
DWIDTH 13 0
BBX 13 8 0 0
BITMAP
E630
6B58
7398
6318
C630
C630
C630
C638
ENDCHAR

STARTCHAR n
ENCODING 110
SWIDTH 500 0
DWIDTH 8 0
BBX 8 8 0 0
BITMAP
E6
6B
73
63
C6
C6
C6
C7
ENDCHAR

STARTCHAR o
ENCODING 111
SWIDTH 500 0
DWIDTH 9 0
BBX 7 8 1 0
BITMAP
1C
26
46
C6
C6
C4
C8
70
ENDCHAR

STARTCHAR p
ENCODING 112
SWIDTH 500 0
DWIDTH 9 0
BBX 9 11 -1 -3
BITMAP
3B00
1D80
1980
1980
3180
3100
3200
3C00
6000
6000
F000
ENDCHAR

STARTCHAR q
ENCODING 113
SWIDTH 500 0
DWIDTH 9 0
BBX 7 11 1 -3
BITMAP
1E
26
46
C6
CC
CC
DC
6C
18
18
3C
ENDCHAR

STARTCHAR r
ENCODING 114
SWIDTH 385 0
DWIDTH 7 0
BBX 6 8 1 0
BITMAP
EC
74
60
60
C0
C0
C0
C0
ENDCHAR

STARTCHAR s
ENCODING 115
SWIDTH 385 0
DWIDTH 7 0
BBX 7 8 0 0
BITMAP
3A
64
64
30
18
4C
4C
B8
ENDCHAR

STARTCHAR t
ENCODING 116
SWIDTH 333 0
DWIDTH 6 0
BBX 4 10 1 0
BITMAP
10
20
F0
60
60
60
C0
C0
D0
60
ENDCHAR

STARTCHAR u
ENCODING 117
SWIDTH 500 0
DWIDTH 8 0
BBX 8 8 0 0
BITMAP
E3
63
63
63
C6
CE
D6
67
ENDCHAR

STARTCHAR v
ENCODING 118
SWIDTH 438 0
DWIDTH 7 0
BBX 7 8 0 0
BITMAP
26
E6
62
64
68
70
60
40
ENDCHAR

STARTCHAR w
ENCODING 119
SWIDTH 667 0
DWIDTH 11 0
BBX 11 8 0 0
BITMAP
2660
E660
6620
6640
6E80
7700
6600
4400
ENDCHAR

STARTCHAR x
ENCODING 120
SWIDTH 552 0
DWIDTH 9 0
BBX 10 8 -1 0
BITMAP
08C0
3940
1A00
0C00
0C00
1600
A680
C300
ENDCHAR

STARTCHAR y
ENCODING 121
SWIDTH 500 0
DWIDTH 9 0
BBX 9 12 -1 -4
BITMAP
0980
3980
1880
1880
1900
1A00
1A00
1C00
1800
1000
A000
C000
ENDCHAR

STARTCHAR z
ENCODING 122
SWIDTH 438 0
DWIDTH 7 0
BBX 8 8 -1 0
BITMAP
1F
3E
24
08
10
22
7E
FC
ENDCHAR

STARTCHAR braceleft
ENCODING 123
SWIDTH 479 0
DWIDTH 8 0
BBX 5 15 2 -3
BITMAP
18
20
60
60
60
60
40
80
40
60
60
60
60
20
18
ENDCHAR

STARTCHAR bar
ENCODING 124
SWIDTH 271 0
DWIDTH 5 0
BBX 1 14 2 -2
BITMAP
80
80
80
80
80
80
80
80
80
80
80
80
80
80
ENDCHAR

STARTCHAR braceright
ENCODING 125
SWIDTH 479 0
DWIDTH 8 0
BBX 5 15 1 -3
BITMAP
C0
20
30
30
30
30
10
08
10
30
30
30
30
20
C0
ENDCHAR

STARTCHAR asciitilde
ENCODING 126
SWIDTH 542 0
DWIDTH 9 0
BBX 9 3 0 3
BITMAP
3080
7F00
8600
ENDCHAR

STARTCHAR space
ENCODING 160
SWIDTH 250 0
DWIDTH 5 0
BBX 0 0 0 0
BITMAP
ENDCHAR

STARTCHAR quoteleft
ENCODING 161
SWIDTH 271 0
DWIDTH 5 0
BBX 2 4 2 8
BITMAP
40
80
C0
80
ENDCHAR

STARTCHAR quoteright
ENCODING 162
SWIDTH 271 0
DWIDTH 5 0
BBX 2 4 2 8
BITMAP
40
C0
40
80
ENDCHAR

STARTCHAR sterling
ENCODING 163
SWIDTH 500 0
DWIDTH 9 0
BBX 9 12 0 0
BITMAP
0300
0580
0800
1800
1800
7E00
1800
1800
1800
7000
BD00
4E00
ENDCHAR

STARTCHAR brokenbar
ENCODING 166
SWIDTH 200 0
DWIDTH 3 0
BBX 1 16 1 -4
BITMAP
80
80
80
80
80
80
00
00
00
00
80
80
80
80
80
80
ENDCHAR

STARTCHAR section
ENCODING 167
SWIDTH 604 0
DWIDTH 10 0
BBX 8 16 1 -4
BITMAP
06
0B
1B
18
08
38
64
66
66
26
1C
10
18
D8
D0
60
ENDCHAR

STARTCHAR dieresis
ENCODING 168
SWIDTH 333 0
DWIDTH 6 0
BBX 4 1 2 9
BITMAP
90
ENDCHAR

STARTCHAR copyright
ENCODING 169
SWIDTH 760 0
DWIDTH 13 0
BBX 13 13 0 0
BITMAP
1FC0
2020
4750
8CC8
9848
9808
9808
9808
9808
8C48
4790
2020
1FC0
ENDCHAR

STARTCHAR guillemotleft
ENCODING 171
SWIDTH 500 0
DWIDTH 9 0
BBX 9 8 0 0
BITMAP
0880
1100
2200
6600
CC00
6600
2200
1100
ENDCHAR

STARTCHAR logicalnot
ENCODING 172
SWIDTH 667 0
DWIDTH 11 0
BBX 9 5 1 2
BITMAP
FF80
0080
0080
0080
0080
ENDCHAR

STARTCHAR hyphen
ENCODING 173
SWIDTH 333 0
DWIDTH 6 0
BBX 4 1 1 4
BITMAP
F0
ENDCHAR

STARTCHAR endash
ENCODING 175
SWIDTH 500 0
DWIDTH 9 0
BBX 8 1 0 4
BITMAP
FF
ENDCHAR

STARTCHAR degree
ENCODING 176
SWIDTH 396 0
DWIDTH 7 0
BBX 5 5 3 7
BITMAP
70
88
88
88
70
ENDCHAR

STARTCHAR plusminus
ENCODING 177
SWIDTH 667 0
DWIDTH 11 0
BBX 9 12 1 0
BITMAP
0800
0800
0800
0800
FF80
0800
0800
0800
0800
0000
0000
FF80
ENDCHAR

STARTCHAR twosuperior
ENCODING 178
SWIDTH 292 0
DWIDTH 5 0
BBX 5 6 1 6
BITMAP
30
58
18
30
60
F0
ENDCHAR

STARTCHAR threesuperior
ENCODING 179
SWIDTH 292 0
DWIDTH 5 0
BBX 5 7 1 5
BITMAP
30
18
10
70
30
20
C0
ENDCHAR

STARTCHAR acute
ENCODING 180
SWIDTH 333 0
DWIDTH 6 0
BBX 2 2 4 10
BITMAP
40
80
ENDCHAR

STARTCHAR dieresisacute
ENCODING 181
SWIDTH 333 0
DWIDTH 6 0
BBX 5 2 1 10
BITMAP
10
A8
ENDCHAR

STARTCHAR afii9936
ENCODING 182
SWIDTH 719 0
DWIDTH 12 0
BBX 12 12 -1 0
BITMAP
1020
2060
00E0
0160
0260
0260
0460
0FE0
1060
2060
4060
E0F0
ENDCHAR

STARTCHAR periodcentered
ENCODING 183
SWIDTH 271 0
DWIDTH 5 0
BBX 1 1 2 5
BITMAP
80
ENDCHAR

STARTCHAR afii9937
ENCODING 184
SWIDTH 734 0
DWIDTH 12 0
BBX 12 12 0 0
BITMAP
5FF0
8C10
0C10
0C00
1880
1F80
1880
1800
3000
3020
3040
7FC0
ENDCHAR

STARTCHAR afii9938
ENCODING 185
SWIDTH 890 0
DWIDTH 15 0
BBX 15 12 0 0
BITMAP
5E1E
8C0C
0C0C
0C0C
1818
1FF8
1818
1818
3030
3030
3030
7878
ENDCHAR

STARTCHAR afii9939
ENCODING 186
SWIDTH 483 0
DWIDTH 8 0
BBX 7 12 0 0
BITMAP
5E
8C
0C
0C
18
18
18
18
30
30
30
78
ENDCHAR

STARTCHAR guillemotright
ENCODING 187
SWIDTH 500 0
DWIDTH 9 0
BBX 9 8 0 0
BITMAP
4400
2200
3300
1980
3300
2200
4400
8800
ENDCHAR

STARTCHAR afii9940
ENCODING 188
SWIDTH 785 0
DWIDTH 13 0
BBX 12 12 0 0
BITMAP
43C0
8C60
1830
3030
3030
6030
6030
6060
6060
60C0
3180
1E00
ENDCHAR

STARTCHAR onehalf
ENCODING 189
SWIDTH 823 0
DWIDTH 14 0
BBX 12 12 1 0
BITMAP
1010
7020
3040
6080
6100
F200
0460
08B0
1030
2060
40C0
81E0
ENDCHAR

STARTCHAR afii9941
ENCODING 190
SWIDTH 831 0
DWIDTH 14 0
BBX 14 12 0 0
BITMAP
4F1C
8608
0610
0620
0340
0380
0300
0300
0600
0600
0600
0F00
ENDCHAR

STARTCHAR afii9942
ENCODING 191
SWIDTH 771 0
DWIDTH 13 0
BBX 12 12 0 0
BITMAP
43C0
8C60
1830
1830
3030
3030
3030
3060
1040
4890
79F0
79E0
ENDCHAR

STARTCHAR afii9977
ENCODING 192
SWIDTH 271 0
DWIDTH 5 0
BBX 5 12 1 0
BITMAP
10
A8
00
00
E0
60
60
60
C0
C0
C0
E0
ENDCHAR

STARTCHAR afii9793
ENCODING 193
SWIDTH 719 0
DWIDTH 12 0
BBX 12 12 -1 0
BITMAP
0020
0060
00E0
0160
0260
0260
0460
0FE0
1060
2060
4060
E0F0
ENDCHAR

STARTCHAR afii9794
ENCODING 194
SWIDTH 667 0
DWIDTH 11 0
BBX 10 12 0 0
BITMAP
3F80
18C0
18C0
18C0
3180
3E00
3300
3180
6180
6180
6300
FE00
ENDCHAR

STARTCHAR afii9796
ENCODING 195
SWIDTH 667 0
DWIDTH 11 0
BBX 11 12 0 0
BITMAP
3FE0
1820
1820
1800
3000
3000
3000
3000
6000
6000
6000
F000
ENDCHAR

STARTCHAR afii9797
ENCODING 196
SWIDTH 667 0
DWIDTH 11 0
BBX 10 12 0 0
BITMAP
0040
0040
00C0
01C0
02C0
04C0
0980
0980
1180
2180
4180
FF80
ENDCHAR

STARTCHAR afii9798
ENCODING 197
SWIDTH 667 0
DWIDTH 11 0
BBX 11 12 0 0
BITMAP
3FE0
1820
1820
1800
3100
3F00
3100
3000
6000
6040
6080
FF80
ENDCHAR

STARTCHAR afii9801
ENCODING 198
SWIDTH 719 0
DWIDTH 12 0
BBX 13 12 -1 0
BITMAP
0FF8
0830
1060
00C0
0180
0300
0600
0C00
1800
3020
6040
FFC0
ENDCHAR

STARTCHAR afii9802
ENCODING 199
SWIDTH 823 0
DWIDTH 14 0
BBX 14 12 0 0
BITMAP
3C3C
1818
1818
1818
3030
3FF0
3030
3030
6060
6060
6060
F0F0
ENDCHAR

STARTCHAR afii9803
ENCODING 200
SWIDTH 771 0
DWIDTH 13 0
BBX 11 12 1 0
BITMAP
0780
18C0
3060
6060
6960
CE60
D260
C0C0
C0C0
C180
6300
3C00
ENDCHAR

STARTCHAR afii9804
ENCODING 201
SWIDTH 385 0
DWIDTH 7 0
BBX 6 12 0 0
BITMAP
3C
18
18
18
30
30
30
30
60
60
60
F0
ENDCHAR

STARTCHAR afii9805
ENCODING 202
SWIDTH 719 0
DWIDTH 12 0
BBX 12 12 0 0
BITMAP
3CF0
1840
1880
1900
3200
3C00
3600
3300
6300
6180
60C0
F9F0
ENDCHAR

STARTCHAR afii9806
ENCODING 203
SWIDTH 719 0
DWIDTH 12 0
BBX 11 12 0 0
BITMAP
0020
0060
00E0
0160
0260
0460
0860
10C0
10C0
20C0
40C0
E3E0
ENDCHAR

STARTCHAR afii9807
ENCODING 204
SWIDTH 990 0
DWIDTH 17 0
BBX 17 12 0 0
BITMAP
380380
180700
1C0B00
1C1300
2C1600
262600
264600
264600
468C00
438C00
430C00
E11E00
ENDCHAR

STARTCHAR afii9808
ENCODING 205
SWIDTH 771 0
DWIDTH 13 0
BBX 13 12 0 0
BITMAP
3838
1C10
1C10
1610
2620
2320
21A0
21A0
40C0
40C0
4040
E040
ENDCHAR

STARTCHAR afii9809
ENCODING 206
SWIDTH 667 0
DWIDTH 11 0
BBX 11 12 0 0
BITMAP
1FE0
1FE0
2040
0000
0880
1F00
1F00
1100
4040
4040
FF80
FF80
ENDCHAR

STARTCHAR afii9810
ENCODING 207
SWIDTH 771 0
DWIDTH 13 0
BBX 11 12 1 0
BITMAP
0780
18C0
3060
6060
6060
C060
C060
C0C0
C0C0
C180
6300
3C00
ENDCHAR

STARTCHAR afii9811
ENCODING 208
SWIDTH 823 0
DWIDTH 14 0
BBX 14 12 0 0
BITMAP
3FFC
1818
1818
1818
3030
3030
3030
3030
6060
6060
6060
F0F0
ENDCHAR

STARTCHAR afii9813
ENCODING 209
SWIDTH 667 0
DWIDTH 11 0
BBX 10 12 0 0
BITMAP
3F80
18C0
18C0
18C0
3180
3F00
3000
3000
6000
6000
6000
F000
ENDCHAR

STARTCHAR afii9814
ENCODING 211
SWIDTH 719 0
DWIDTH 12 0
BBX 11 12 1 0
BITMAP
3FE0
1FE0
0C20
0600
0600
0300
0400
0800
1000
2040
7F80
FF80
ENDCHAR

STARTCHAR afii9816
ENCODING 212
SWIDTH 667 0
DWIDTH 11 0
BBX 10 12 1 0
BITMAP
7FC0
8C40
8C40
0C00
1800
1800
1800
1800
3000
3000
3000
7800
ENDCHAR

STARTCHAR afii9817
ENCODING 213
SWIDTH 719 0
DWIDTH 12 0
BBX 10 12 2 0
BITMAP
F1C0
6080
6100
6200
3400
3800
3000
3000
6000
6000
6000
F000
ENDCHAR

STARTCHAR afii9818
ENCODING 214
SWIDTH 771 0
DWIDTH 13 0
BBX 12 12 0 0
BITMAP
0780
0300
0FC0
3320
6630
C630
C630
C660
4CC0
3F00
0C00
1E00
ENDCHAR

STARTCHAR afii9819
ENCODING 215
SWIDTH 719 0
DWIDTH 12 0
BBX 12 12 0 0
BITMAP
3C70
1820
1840
0C80
0D00
0600
0600
0B00
1300
2180
4180
E3C0
ENDCHAR

STARTCHAR afii9820
ENCODING 216
SWIDTH 823 0
DWIDTH 14 0
BBX 13 12 1 0
BITMAP
CF18
6630
6660
C660
CC60
CCC0
7F80
0C00
1800
1800
1800
3C00
ENDCHAR

STARTCHAR afii9821
ENCODING 217
SWIDTH 771 0
DWIDTH 13 0
BBX 11 12 1 0
BITMAP
0780
18C0
3060
3060
6060
6060
6060
60C0
2080
9120
F3E0
F3C0
ENDCHAR

STARTCHAR afii9943
ENCODING 218
SWIDTH 385 0
DWIDTH 7 0
BBX 7 14 0 0
BITMAP
12
00
3C
18
18
18
30
30
30
30
60
60
60
F0
ENDCHAR

STARTCHAR afii9944
ENCODING 219
SWIDTH 719 0
DWIDTH 12 0
BBX 10 14 2 0
BITMAP
0900
0000
F1C0
6080
6100
6200
3400
3800
3000
3000
6000
6000
6000
F000
ENDCHAR

STARTCHAR afii9968
ENCODING 220
SWIDTH 500 0
DWIDTH 9 0
BBX 8 11 1 0
BITMAP
04
08
00
0B
36
66
66
CC
CC
DD
66
ENDCHAR

STARTCHAR afii9969
ENCODING 221
SWIDTH 385 0
DWIDTH 7 0
BBX 6 11 0 0
BITMAP
04
08
00
38
64
60
38
C0
C0
C8
70
ENDCHAR

STARTCHAR afii9970
ENCODING 222
SWIDTH 500 0
DWIDTH 9 0
BBX 9 14 -1 -3
BITMAP
0100
0200
0000
6300
B580
3980
3180
6300
6300
6300
6300
0600
0600
0600
ENDCHAR

STARTCHAR afii9971
ENCODING 223
SWIDTH 271 0
DWIDTH 5 0
BBX 4 11 1 0
BITMAP
10
20
00
E0
60
60
60
C0
C0
C0
E0
ENDCHAR

STARTCHAR afii9978
ENCODING 224
SWIDTH 438 0
DWIDTH 7 0
BBX 6 12 0 0
BITMAP
08
54
00
00
C8
64
64
64
C4
C8
C8
70
ENDCHAR

STARTCHAR afii9825
ENCODING 225
SWIDTH 500 0
DWIDTH 9 0
BBX 8 8 1 0
BITMAP
0B
36
66
66
CC
CC
DD
66
ENDCHAR

STARTCHAR afii9826
ENCODING 226
SWIDTH 500 0
DWIDTH 9 0
BBX 9 15 -1 -3
BITMAP
0300
0D80
1980
1980
3100
3200
3100
3180
6180
6180
7300
6E00
C000
C000
C000
ENDCHAR

STARTCHAR afii9828
ENCODING 227
SWIDTH 438 0
DWIDTH 7 0
BBX 7 11 -1 -3
BITMAP
26
76
92
12
14
18
10
30
20
60
40
ENDCHAR

STARTCHAR afii9829
ENCODING 228
SWIDTH 438 0
DWIDTH 9 0
BBX 7 12 1 0
BITMAP
1C
26
20
18
1C
26
46
C6
C6
C4
C8
70
ENDCHAR

STARTCHAR afii9830
ENCODING 229
SWIDTH 385 0
DWIDTH 7 0
BBX 6 8 0 0
BITMAP
38
64
60
38
C0
C0
C8
70
ENDCHAR

STARTCHAR afii9833
ENCODING 230
SWIDTH 438 0
DWIDTH 7 0
BBX 7 15 0 -3
BITMAP
12
24
18
10
20
40
40
40
80
80
80
78
3C
04
38
ENDCHAR

STARTCHAR afii9834
ENCODING 231
SWIDTH 500 0
DWIDTH 9 0
BBX 9 11 -1 -3
BITMAP
6300
B580
3980
3180
6300
6300
6300
6300
0600
0600
0600
ENDCHAR

STARTCHAR afii9835
ENCODING 232
SWIDTH 500 0
DWIDTH 9 0
BBX 7 12 1 0
BITMAP
1C
26
46
46
C6
FE
C6
C6
C4
C4
C8
70
ENDCHAR

STARTCHAR afii9836
ENCODING 233
SWIDTH 271 0
DWIDTH 5 0
BBX 3 8 1 0
BITMAP
E0
60
60
60
C0
C0
C0
E0
ENDCHAR

STARTCHAR afii9837
ENCODING 234
SWIDTH 552 0
DWIDTH 9 0
BBX 8 8 0 0
BITMAP
E3
65
68
70
D8
CC
CD
C6
ENDCHAR

STARTCHAR afii9838
ENCODING 235
SWIDTH 500 0
DWIDTH 9 0
BBX 10 12 -1 0
BITMAP
1800
1C00
2400
0400
0400
0400
0C00
1A00
3200
3240
6180
C180
ENDCHAR

STARTCHAR afii9839
ENCODING 236
SWIDTH 552 0
DWIDTH 9 0
BBX 10 11 -1 -3
BITMAP
3180
3180
3180
3180
6300
6700
6B40
5180
C000
C000
8000
ENDCHAR

STARTCHAR afii9840
ENCODING 237
SWIDTH 438 0
DWIDTH 7 0
BBX 7 8 0 0
BITMAP
26
E6
62
64
68
70
60
40
ENDCHAR

STARTCHAR afii9841
ENCODING 238
SWIDTH 500 0
DWIDTH 9 0
BBX 8 15 0 -3
BITMAP
19
06
08
10
1E
20
40
40
80
80
C0
7C
3E
02
1C
ENDCHAR

STARTCHAR afii9842
ENCODING 239
SWIDTH 500 0
DWIDTH 9 0
BBX 7 8 1 0
BITMAP
1C
26
46
C6
C6
C4
C8
70
ENDCHAR

STARTCHAR afii9843
ENCODING 240
SWIDTH 552 0
DWIDTH 9 0
BBX 9 8 0 0
BITMAP
3F80
7F80
9200
1200
1200
2400
2500
4200
ENDCHAR

STARTCHAR afii9845
ENCODING 241
SWIDTH 500 0
DWIDTH 9 0
BBX 8 11 0 -3
BITMAP
0E
13
33
33
63
62
64
78
C0
C0
C0
ENDCHAR

STARTCHAR afii9847
ENCODING 242
SWIDTH 438 0
DWIDTH 7 0
BBX 7 11 0 -3
BITMAP
1C
26
42
40
80
80
80
78
3C
04
38
ENDCHAR

STARTCHAR afii9846
ENCODING 243
SWIDTH 552 0
DWIDTH 9 0
BBX 8 8 1 0
BITMAP
1F
3F
44
C6
C6
C4
C8
70
ENDCHAR

STARTCHAR afii9848
ENCODING 244
SWIDTH 438 0
DWIDTH 7 0
BBX 7 8 0 0
BITMAP
3E
7E
90
10
10
20
28
10
ENDCHAR

STARTCHAR afii9849
ENCODING 245
SWIDTH 438 0
DWIDTH 7 0
BBX 6 8 0 0
BITMAP
C8
64
64
64
C4
C8
C8
70
ENDCHAR

STARTCHAR afii9850
ENCODING 246
SWIDTH 552 0
DWIDTH 9 0
BBX 8 11 0 -3
BITMAP
26
4B
CB
CB
D3
D2
D4
78
20
20
20
ENDCHAR

STARTCHAR afii9851
ENCODING 247
SWIDTH 500 0
DWIDTH 9 0
BBX 9 11 -1 -3
BITMAP
2180
5300
1300
1600
0C00
0C00
1800
3400
6400
6500
C200
ENDCHAR

STARTCHAR afii9852
ENCODING 248
SWIDTH 719 0
DWIDTH 12 0
BBX 11 11 0 -3
BITMAP
C460
64C0
64C0
6580
6980
6900
6B00
3E00
1000
1000
1000
ENDCHAR

STARTCHAR afii9853
ENCODING 249
SWIDTH 719 0
DWIDTH 12 0
BBX 11 8 0 0
BITMAP
30C0
4260
C660
C660
C460
C460
CCC0
7380
ENDCHAR

STARTCHAR afii9975
ENCODING 250
SWIDTH 271 0
DWIDTH 5 0
BBX 4 10 1 0
BITMAP
90
00
E0
60
60
60
C0
C0
C0
E0
ENDCHAR

STARTCHAR afii9976
ENCODING 251
SWIDTH 438 0
DWIDTH 7 0
BBX 6 10 0 0
BITMAP
24
00
C8
64
64
64
C4
C8
C8
70
ENDCHAR

STARTCHAR afii9972
ENCODING 252
SWIDTH 500 0
DWIDTH 9 0
BBX 7 11 1 0
BITMAP
04
08
00
1C
26
46
C6
C6
C4
C8
70
ENDCHAR

STARTCHAR afii9973
ENCODING 253
SWIDTH 438 0
DWIDTH 7 0
BBX 6 11 0 0
BITMAP
04
08
00
C8
64
64
64
C4
C8
C8
70
ENDCHAR

STARTCHAR afii9974
ENCODING 254
SWIDTH 719 0
DWIDTH 12 0
BBX 11 11 0 0
BITMAP
0100
0200
0000
30C0
4260
C660
C660
C460
C460
CCC0
7380
ENDCHAR

ENDFONT
