STARTFONT 2.1
FONT -WRI-Mathematica7Mono-Bold-R-Normal--10-100-75-75-M-40-Adobe-FontSpecific
SIZE 10 75 75
FONTBOUNDINGBOX 8 9 0 -2
STARTPROPERTIES 16
FOUNDRY "WRI"
FAMILY_NAME "Mathematica7Mono"
WEIGHT_NAME "Bold"
SLANT "R"
SETWIDTH_NAME "Normal"
PIXEL_SIZE 10
POINT_SIZE 100
RESOLUTION_X 75
RESOLUTION_Y 75
SPACING "M"
AVERAGE_WIDTH 40
CHARSET_REGISTRY "Adobe"
CHARSET_ENCODING "FontSpecific"
FONT_DESCENT 2
FONT_ASCENT 7
DEFAULT_CHAR 32
ENDPROPERTIES
CHARS 224
STARTCHAR space
ENCODING 32
SWIDTH 263 0
DWIDTH 3 0
BBX 0 0 0 0
BITMAP
ENDCHAR
STARTCHAR exclam
ENCODING 33
SWIDTH 263 0
DWIDTH 3 0
BBX 0 0 0 0
BITMAP
ENDCHAR
STARTCHAR quotedbl
ENCODING 34
SWIDTH 263 0
DWIDTH 3 0
BBX 0 0 0 0
BITMAP
ENDCHAR
STARTCHAR numbersign
ENCODING 35
SWIDTH 263 0
DWIDTH 3 0
BBX 0 0 0 0
BITMAP
ENDCHAR
STARTCHAR dollar
ENCODING 36
SWIDTH 263 0
DWIDTH 3 0
BBX 0 0 0 0
BITMAP
ENDCHAR
STARTCHAR percent
ENCODING 37
SWIDTH 263 0
DWIDTH 3 0
BBX 0 0 0 0
BITMAP
ENDCHAR
STARTCHAR ampersand
ENCODING 38
SWIDTH 263 0
DWIDTH 3 0
BBX 0 0 0 0
BITMAP
ENDCHAR
STARTCHAR quotesingle
ENCODING 39
SWIDTH 263 0
DWIDTH 3 0
BBX 0 0 0 0
BITMAP
ENDCHAR
STARTCHAR parenleft
ENCODING 40
SWIDTH 263 0
DWIDTH 3 0
BBX 0 0 0 0
BITMAP
ENDCHAR
STARTCHAR parenright
ENCODING 41
SWIDTH 263 0
DWIDTH 3 0
BBX 0 0 0 0
BITMAP
ENDCHAR
STARTCHAR asterisk
ENCODING 42
SWIDTH 263 0
DWIDTH 3 0
BBX 0 0 0 0
BITMAP
ENDCHAR
STARTCHAR plus
ENCODING 43
SWIDTH 263 0
DWIDTH 3 0
BBX 0 0 0 0
BITMAP
ENDCHAR
STARTCHAR comma
ENCODING 44
SWIDTH 263 0
DWIDTH 3 0
BBX 0 0 0 0
BITMAP
ENDCHAR
STARTCHAR hyphen
ENCODING 45
SWIDTH 263 0
DWIDTH 3 0
BBX 0 0 0 0
BITMAP
ENDCHAR
STARTCHAR period
ENCODING 46
SWIDTH 263 0
DWIDTH 3 0
BBX 0 0 0 0
BITMAP
ENDCHAR
STARTCHAR slash
ENCODING 47
SWIDTH 263 0
DWIDTH 3 0
BBX 0 0 0 0
BITMAP
ENDCHAR
STARTCHAR DoubleZero
ENCODING 48
SWIDTH 620 0
DWIDTH 6 0
BBX 6 6 0 0
BITMAP
78
4c
d4
d4
6c
38
ENDCHAR
STARTCHAR DoubleOne
ENCODING 49
SWIDTH 373 0
DWIDTH 4 0
BBX 3 6 0 0
BITMAP
60
60
60
60
60
e0
ENDCHAR
STARTCHAR DoubleTwo
ENCODING 50
SWIDTH 491 0
DWIDTH 5 0
BBX 5 6 0 0
BITMAP
30
d8
18
30
48
f8
ENDCHAR
STARTCHAR DoubleThree
ENCODING 51
SWIDTH 485 0
DWIDTH 5 0
BBX 5 6 0 0
BITMAP
78
98
30
18
b8
70
ENDCHAR
STARTCHAR DoubleFour
ENCODING 52
SWIDTH 533 0
DWIDTH 5 0
BBX 5 6 0 0
BITMAP
30
70
70
f8
30
78
ENDCHAR
STARTCHAR DoubleFive
ENCODING 53
SWIDTH 499 0
DWIDTH 5 0
BBX 5 6 0 0
BITMAP
78
60
70
10
90
70
ENDCHAR
STARTCHAR DoubleSix
ENCODING 54
SWIDTH 527 0
DWIDTH 5 0
BBX 6 6 0 0
BITMAP
30
60
f0
cc
68
30
ENDCHAR
STARTCHAR DoubleSeven
ENCODING 55
SWIDTH 482 0
DWIDTH 5 0
BBX 4 5 0 0
BITMAP
f0
30
60
60
c0
ENDCHAR
STARTCHAR DoubleEight
ENCODING 56
SWIDTH 550 0
DWIDTH 6 0
BBX 6 6 0 0
BITMAP
78
54
28
d4
7c
38
ENDCHAR
STARTCHAR DoubleNine
ENCODING 57
SWIDTH 544 0
DWIDTH 5 0
BBX 5 6 0 0
BITMAP
70
d8
d8
78
10
60
ENDCHAR
STARTCHAR colon
ENCODING 58
SWIDTH 263 0
DWIDTH 3 0
BBX 0 0 0 0
BITMAP
ENDCHAR
STARTCHAR semicolon
ENCODING 59
SWIDTH 263 0
DWIDTH 3 0
BBX 0 0 0 0
BITMAP
ENDCHAR
STARTCHAR less
ENCODING 60
SWIDTH 263 0
DWIDTH 3 0
BBX 0 0 0 0
BITMAP
ENDCHAR
STARTCHAR equal
ENCODING 61
SWIDTH 263 0
DWIDTH 3 0
BBX 0 0 0 0
BITMAP
ENDCHAR
STARTCHAR greater
ENCODING 62
SWIDTH 263 0
DWIDTH 3 0
BBX 0 0 0 0
BITMAP
ENDCHAR
STARTCHAR question
ENCODING 63
SWIDTH 263 0
DWIDTH 3 0
BBX 0 0 0 0
BITMAP
ENDCHAR
STARTCHAR at
ENCODING 64
SWIDTH 263 0
DWIDTH 3 0
BBX 0 0 0 0
BITMAP
ENDCHAR
STARTCHAR DoubleCapA
ENCODING 65
SWIDTH 856 0
DWIDTH 9 0
BBX 8 6 0 0
BITMAP
78
28
34
5c
52
f3
ENDCHAR
STARTCHAR DoubleCapB
ENCODING 66
SWIDTH 746 0
DWIDTH 7 0
BBX 6 6 0 0
BITMAP
f8
54
58
54
54
f8
ENDCHAR
STARTCHAR DoubleCapC
ENCODING 67
SWIDTH 622 0
DWIDTH 6 0
BBX 5 6 0 0
BITMAP
70
a8
a0
a0
a0
78
ENDCHAR
STARTCHAR DoubleCapD
ENCODING 68
SWIDTH 783 0
DWIDTH 8 0
BBX 7 6 0 0
BITMAP
fc
52
52
52
52
fc
ENDCHAR
STARTCHAR DoubleCapE
ENCODING 69
SWIDTH 758 0
DWIDTH 8 0
BBX 6 6 1 0
BITMAP
fc
54
58
58
54
fc
ENDCHAR
STARTCHAR DoubleCapF
ENCODING 70
SWIDTH 731 0
DWIDTH 7 0
BBX 6 6 0 0
BITMAP
fc
54
58
58
50
f0
ENDCHAR
STARTCHAR DoubleCapG
ENCODING 71
SWIDTH 640 0
DWIDTH 6 0
BBX 5 6 0 0
BITMAP
70
a8
a0
b8
a8
78
ENDCHAR
STARTCHAR DoubleCapH
ENCODING 72
SWIDTH 815 0
DWIDTH 8 0
BBX 7 6 0 0
BITMAP
f6
54
54
5c
54
f6
ENDCHAR
STARTCHAR DoubleCapI
ENCODING 73
SWIDTH 560 0
DWIDTH 6 0
BBX 5 6 0 0
BITMAP
f8
50
50
50
50
f8
ENDCHAR
STARTCHAR DoubleCapJ
ENCODING 74
SWIDTH 668 0
DWIDTH 7 0
BBX 6 6 0 0
BITMAP
7c
28
28
a8
a8
70
ENDCHAR
STARTCHAR DoubleCapK
ENCODING 75
SWIDTH 798 0
DWIDTH 8 0
BBX 7 6 0 0
BITMAP
f2
54
58
58
54
f2
ENDCHAR
STARTCHAR DoubleCapL
ENCODING 76
SWIDTH 707 0
DWIDTH 7 0
BBX 6 6 0 0
BITMAP
f0
50
50
50
54
fc
ENDCHAR
STARTCHAR DoubleCapM
ENCODING 77
SWIDTH 782 0
DWIDTH 8 0
BBX 7 6 0 0
BITMAP
f6
54
6c
7c
54
c6
ENDCHAR
STARTCHAR DoubleCapN
ENCODING 78
SWIDTH 735 0
DWIDTH 7 0
BBX 7 6 0 0
BITMAP
ee
64
54
6c
54
cc
ENDCHAR
STARTCHAR DoubleCapO
ENCODING 79
SWIDTH 675 0
DWIDTH 7 0
BBX 5 6 0 0
BITMAP
70
a8
a8
a8
a8
70
ENDCHAR
STARTCHAR DoubleCapP
ENCODING 80
SWIDTH 709 0
DWIDTH 7 0
BBX 7 6 0 0
BITMAP
fc
52
52
5c
50
f0
ENDCHAR
STARTCHAR DoubleCapQ
ENCODING 81
SWIDTH 674 0
DWIDTH 7 0
BBX 6 7 0 -1
BITMAP
78
a4
a4
a4
a8
70
58
ENDCHAR
STARTCHAR DoubleCapR
ENCODING 82
SWIDTH 774 0
DWIDTH 8 0
BBX 7 6 0 0
BITMAP
f8
54
54
58
54
f6
ENDCHAR
STARTCHAR DoubleCapS
ENCODING 83
SWIDTH 625 0
DWIDTH 6 0
BBX 5 6 0 0
BITMAP
70
c8
b0
68
98
70
ENDCHAR
STARTCHAR DoubleCapT
ENCODING 84
SWIDTH 675 0
DWIDTH 7 0
BBX 7 6 0 0
BITMAP
fe
aa
28
28
28
7c
ENDCHAR
STARTCHAR DoubleCapU
ENCODING 85
SWIDTH 678 0
DWIDTH 7 0
BBX 6 6 0 0
BITMAP
dc
54
54
54
54
38
ENDCHAR
STARTCHAR DoubleCapV
ENCODING 86
SWIDTH 747 0
DWIDTH 7 0
BBX 6 6 0 0
BITMAP
fc
54
58
28
30
10
ENDCHAR
STARTCHAR DoubleCapW
ENCODING 87
SWIDTH 931 0
DWIDTH 9 0
BBX 8 6 0 0
BITMAP
f3
52
5a
56
36
24
ENDCHAR
STARTCHAR DoubleCapX
ENCODING 88
SWIDTH 883 0
DWIDTH 9 0
BBX 8 6 0 0
BITMAP
ff
2a
2c
14
2a
df
ENDCHAR
STARTCHAR DoubleCapY
ENCODING 89
SWIDTH 756 0
DWIDTH 8 0
BBX 7 6 0 0
BITMAP
fe
54
28
30
10
38
ENDCHAR
STARTCHAR DoubleCapZ
ENCODING 90
SWIDTH 652 0
DWIDTH 7 0
BBX 6 6 0 0
BITMAP
fc
94
28
50
a4
fc
ENDCHAR
STARTCHAR bracketleft
ENCODING 91
SWIDTH 263 0
DWIDTH 3 0
BBX 0 0 0 0
BITMAP
ENDCHAR
STARTCHAR backslash
ENCODING 92
SWIDTH 263 0
DWIDTH 3 0
BBX 0 0 0 0
BITMAP
ENDCHAR
STARTCHAR bracketright
ENCODING 93
SWIDTH 263 0
DWIDTH 3 0
BBX 0 0 0 0
BITMAP
ENDCHAR
STARTCHAR asciicircum
ENCODING 94
SWIDTH 263 0
DWIDTH 3 0
BBX 0 0 0 0
BITMAP
ENDCHAR
STARTCHAR underscore
ENCODING 95
SWIDTH 263 0
DWIDTH 3 0
BBX 0 0 0 0
BITMAP
ENDCHAR
STARTCHAR grave
ENCODING 96
SWIDTH 263 0
DWIDTH 3 0
BBX 0 0 0 0
BITMAP
ENDCHAR
STARTCHAR DoubleA
ENCODING 97
SWIDTH 750 0
DWIDTH 8 0
BBX 6 4 1 0
BITMAP
f8
74
94
fc
ENDCHAR
STARTCHAR DoubleB
ENCODING 98
SWIDTH 777 0
DWIDTH 8 0
BBX 7 6 0 0
BITMAP
f0
50
5c
52
52
fc
ENDCHAR
STARTCHAR DoubleC
ENCODING 99
SWIDTH 606 0
DWIDTH 6 0
BBX 5 4 0 0
BITMAP
70
a8
a0
78
ENDCHAR
STARTCHAR DoubleD
ENCODING 100
SWIDTH 819 0
DWIDTH 8 0
BBX 7 6 0 0
BITMAP
3e
0a
7a
8a
8a
7e
ENDCHAR
STARTCHAR DoubleE
ENCODING 101
SWIDTH 632 0
DWIDTH 6 0
BBX 5 4 0 0
BITMAP
70
b8
a0
78
ENDCHAR
STARTCHAR DoubleF
ENCODING 102
SWIDTH 558 0
DWIDTH 6 0
BBX 5 6 0 0
BITMAP
78
50
d8
50
50
f8
ENDCHAR
STARTCHAR DoubleG
ENCODING 103
SWIDTH 593 0
DWIDTH 6 0
BBX 6 6 0 -2
BITMAP
7c
a8
a8
78
88
f0
ENDCHAR
STARTCHAR DoubleH
ENCODING 104
SWIDTH 807 0
DWIDTH 8 0
BBX 7 6 0 0
BITMAP
f0
50
5c
54
54
f6
ENDCHAR
STARTCHAR DoubleI
ENCODING 105
SWIDTH 566 0
DWIDTH 6 0
BBX 5 7 0 0
BITMAP
20
20
00
f0
50
50
f8
ENDCHAR
STARTCHAR DoubleJ
ENCODING 106
SWIDTH 549 0
DWIDTH 5 0
BBX 5 9 0 -2
BITMAP
10
10
00
f8
28
28
28
28
f0
ENDCHAR
STARTCHAR DoubleK
ENCODING 107
SWIDTH 811 0
DWIDTH 8 0
BBX 7 6 0 0
BITMAP
f0
50
56
58
58
f6
ENDCHAR
STARTCHAR DoubleL
ENCODING 108
SWIDTH 570 0
DWIDTH 6 0
BBX 5 6 0 0
BITMAP
f0
50
50
50
50
f8
ENDCHAR
STARTCHAR DoubleM
ENCODING 109
SWIDTH 888 0
DWIDTH 9 0
BBX 8 4 0 0
BITMAP
fa
55
55
f5
ENDCHAR
STARTCHAR DoubleN
ENCODING 110
SWIDTH 789 0
DWIDTH 8 0
BBX 7 4 0 0
BITMAP
f8
54
54
f6
ENDCHAR
STARTCHAR DoubleO
ENCODING 111
SWIDTH 600 0
DWIDTH 6 0
BBX 5 4 0 0
BITMAP
70
a8
a8
70
ENDCHAR
STARTCHAR DoubleP
ENCODING 112
SWIDTH 793 0
DWIDTH 8 0
BBX 7 6 0 -2
BITMAP
fc
52
52
5c
50
f0
ENDCHAR
STARTCHAR DoubleQ
ENCODING 113
SWIDTH 754 0
DWIDTH 8 0
BBX 7 6 0 -2
BITMAP
7e
8a
8a
7a
0a
1e
ENDCHAR
STARTCHAR DoubleR
ENCODING 114
SWIDTH 679 0
DWIDTH 7 0
BBX 6 4 0 0
BITMAP
fc
50
50
f0
ENDCHAR
STARTCHAR DoubleS
ENCODING 115
SWIDTH 550 0
DWIDTH 5 0
BBX 4 4 1 0
BITMAP
70
a0
50
e0
ENDCHAR
STARTCHAR DoubleT
ENCODING 116
SWIDTH 608 0
DWIDTH 6 0
BBX 5 6 0 0
BITMAP
70
50
d8
50
50
78
ENDCHAR
STARTCHAR DoubleU
ENCODING 117
SWIDTH 795 0
DWIDTH 8 0
BBX 7 4 0 0
BITMAP
de
4a
4a
7e
ENDCHAR
STARTCHAR DoubleV
ENCODING 118
SWIDTH 757 0
DWIDTH 8 0
BBX 7 4 0 0
BITMAP
f6
54
28
10
ENDCHAR
STARTCHAR DoubleW
ENCODING 119
SWIDTH 918 0
DWIDTH 9 0
BBX 8 4 0 0
BITMAP
f3
5a
2c
34
ENDCHAR
STARTCHAR DoubleX
ENCODING 120
SWIDTH 844 0
DWIDTH 8 0
BBX 7 4 0 0
BITMAP
fe
2c
34
fe
ENDCHAR
STARTCHAR DoubleY
ENCODING 121
SWIDTH 784 0
DWIDTH 8 0
BBX 7 6 0 -2
BITMAP
fe
58
28
30
10
70
ENDCHAR
STARTCHAR DoubleZ
ENCODING 122
SWIDTH 569 0
DWIDTH 6 0
BBX 4 4 1 0
BITMAP
f0
50
a0
f0
ENDCHAR
STARTCHAR braceleft
ENCODING 123
SWIDTH 263 0
DWIDTH 3 0
BBX 0 0 0 0
BITMAP
ENDCHAR
STARTCHAR bar
ENCODING 124
SWIDTH 263 0
DWIDTH 3 0
BBX 0 0 0 0
BITMAP
ENDCHAR
STARTCHAR braceright
ENCODING 125
SWIDTH 263 0
DWIDTH 3 0
BBX 0 0 0 0
BITMAP
ENDCHAR
STARTCHAR asciitilde
ENCODING 126
SWIDTH 263 0
DWIDTH 3 0
BBX 0 0 0 0
BITMAP
ENDCHAR
STARTCHAR DEL
ENCODING 127
SWIDTH 263 0
DWIDTH 3 0
BBX 0 0 0 0
BITMAP
ENDCHAR
STARTCHAR Adieresis
ENCODING 128
SWIDTH 263 0
DWIDTH 3 0
BBX 0 0 0 0
BITMAP
ENDCHAR
STARTCHAR Aring
ENCODING 129
SWIDTH 263 0
DWIDTH 3 0
BBX 0 0 0 0
BITMAP
ENDCHAR
STARTCHAR Ccedilla
ENCODING 130
SWIDTH 263 0
DWIDTH 3 0
BBX 0 0 0 0
BITMAP
ENDCHAR
STARTCHAR Eacute
ENCODING 131
SWIDTH 263 0
DWIDTH 3 0
BBX 0 0 0 0
BITMAP
ENDCHAR
STARTCHAR Ntilde
ENCODING 132
SWIDTH 263 0
DWIDTH 3 0
BBX 0 0 0 0
BITMAP
ENDCHAR
STARTCHAR Odieresis
ENCODING 133
SWIDTH 263 0
DWIDTH 3 0
BBX 0 0 0 0
BITMAP
ENDCHAR
STARTCHAR Udieresis
ENCODING 134
SWIDTH 263 0
DWIDTH 3 0
BBX 0 0 0 0
BITMAP
ENDCHAR
STARTCHAR aacute
ENCODING 135
SWIDTH 263 0
DWIDTH 3 0
BBX 0 0 0 0
BITMAP
ENDCHAR
STARTCHAR agrave
ENCODING 136
SWIDTH 263 0
DWIDTH 3 0
BBX 0 0 0 0
BITMAP
ENDCHAR
STARTCHAR acircumflex
ENCODING 137
SWIDTH 263 0
DWIDTH 3 0
BBX 0 0 0 0
BITMAP
ENDCHAR
STARTCHAR adieresis
ENCODING 138
SWIDTH 263 0
DWIDTH 3 0
BBX 0 0 0 0
BITMAP
ENDCHAR
STARTCHAR atilde
ENCODING 139
SWIDTH 263 0
DWIDTH 3 0
BBX 0 0 0 0
BITMAP
ENDCHAR
STARTCHAR aring
ENCODING 140
SWIDTH 263 0
DWIDTH 3 0
BBX 0 0 0 0
BITMAP
ENDCHAR
STARTCHAR ccedilla
ENCODING 141
SWIDTH 263 0
DWIDTH 3 0
BBX 0 0 0 0
BITMAP
ENDCHAR
STARTCHAR eacute
ENCODING 142
SWIDTH 263 0
DWIDTH 3 0
BBX 0 0 0 0
BITMAP
ENDCHAR
STARTCHAR egrave
ENCODING 143
SWIDTH 263 0
DWIDTH 3 0
BBX 0 0 0 0
BITMAP
ENDCHAR
STARTCHAR ecircumflex
ENCODING 144
SWIDTH 263 0
DWIDTH 3 0
BBX 0 0 0 0
BITMAP
ENDCHAR
STARTCHAR edieresis
ENCODING 145
SWIDTH 263 0
DWIDTH 3 0
BBX 0 0 0 0
BITMAP
ENDCHAR
STARTCHAR iacute
ENCODING 146
SWIDTH 263 0
DWIDTH 3 0
BBX 0 0 0 0
BITMAP
ENDCHAR
STARTCHAR igrave
ENCODING 147
SWIDTH 263 0
DWIDTH 3 0
BBX 0 0 0 0
BITMAP
ENDCHAR
STARTCHAR icircumflex
ENCODING 148
SWIDTH 263 0
DWIDTH 3 0
BBX 0 0 0 0
BITMAP
ENDCHAR
STARTCHAR idieresis
ENCODING 149
SWIDTH 263 0
DWIDTH 3 0
BBX 0 0 0 0
BITMAP
ENDCHAR
STARTCHAR ntilde
ENCODING 150
SWIDTH 263 0
DWIDTH 3 0
BBX 0 0 0 0
BITMAP
ENDCHAR
STARTCHAR oacute
ENCODING 151
SWIDTH 263 0
DWIDTH 3 0
BBX 0 0 0 0
BITMAP
ENDCHAR
STARTCHAR ograve
ENCODING 152
SWIDTH 263 0
DWIDTH 3 0
BBX 0 0 0 0
BITMAP
ENDCHAR
STARTCHAR ocircumflex
ENCODING 153
SWIDTH 263 0
DWIDTH 3 0
BBX 0 0 0 0
BITMAP
ENDCHAR
STARTCHAR odieresis
ENCODING 154
SWIDTH 263 0
DWIDTH 3 0
BBX 0 0 0 0
BITMAP
ENDCHAR
STARTCHAR otilde
ENCODING 155
SWIDTH 263 0
DWIDTH 3 0
BBX 0 0 0 0
BITMAP
ENDCHAR
STARTCHAR uacute
ENCODING 156
SWIDTH 263 0
DWIDTH 3 0
BBX 0 0 0 0
BITMAP
ENDCHAR
STARTCHAR ugrave
ENCODING 157
SWIDTH 263 0
DWIDTH 3 0
BBX 0 0 0 0
BITMAP
ENDCHAR
STARTCHAR ucircumflex
ENCODING 158
SWIDTH 263 0
DWIDTH 3 0
BBX 0 0 0 0
BITMAP
ENDCHAR
STARTCHAR udieresis
ENCODING 159
SWIDTH 263 0
DWIDTH 3 0
BBX 0 0 0 0
BITMAP
ENDCHAR
STARTCHAR dagger
ENCODING 160
SWIDTH 263 0
DWIDTH 3 0
BBX 0 0 0 0
BITMAP
ENDCHAR
STARTCHAR degree
ENCODING 161
SWIDTH 263 0
DWIDTH 3 0
BBX 0 0 0 0
BITMAP
ENDCHAR
STARTCHAR cent
ENCODING 162
SWIDTH 263 0
DWIDTH 3 0
BBX 0 0 0 0
BITMAP
ENDCHAR
STARTCHAR sterling
ENCODING 163
SWIDTH 263 0
DWIDTH 3 0
BBX 0 0 0 0
BITMAP
ENDCHAR
STARTCHAR section
ENCODING 164
SWIDTH 263 0
DWIDTH 3 0
BBX 0 0 0 0
BITMAP
ENDCHAR
STARTCHAR bullet
ENCODING 165
SWIDTH 263 0
DWIDTH 3 0
BBX 0 0 0 0
BITMAP
ENDCHAR
STARTCHAR paragraph
ENCODING 166
SWIDTH 263 0
DWIDTH 3 0
BBX 0 0 0 0
BITMAP
ENDCHAR
STARTCHAR germandbls
ENCODING 167
SWIDTH 263 0
DWIDTH 3 0
BBX 0 0 0 0
BITMAP
ENDCHAR
STARTCHAR registered
ENCODING 168
SWIDTH 263 0
DWIDTH 3 0
BBX 0 0 0 0
BITMAP
ENDCHAR
STARTCHAR copyright
ENCODING 169
SWIDTH 263 0
DWIDTH 3 0
BBX 0 0 0 0
BITMAP
ENDCHAR
STARTCHAR trademark
ENCODING 170
SWIDTH 263 0
DWIDTH 3 0
BBX 0 0 0 0
BITMAP
ENDCHAR
STARTCHAR acute
ENCODING 171
SWIDTH 263 0
DWIDTH 3 0
BBX 0 0 0 0
BITMAP
ENDCHAR
STARTCHAR dieresis
ENCODING 172
SWIDTH 263 0
DWIDTH 3 0
BBX 0 0 0 0
BITMAP
ENDCHAR
STARTCHAR notequal
ENCODING 173
SWIDTH 263 0
DWIDTH 3 0
BBX 0 0 0 0
BITMAP
ENDCHAR
STARTCHAR AE
ENCODING 174
SWIDTH 263 0
DWIDTH 3 0
BBX 0 0 0 0
BITMAP
ENDCHAR
STARTCHAR Oslash
ENCODING 175
SWIDTH 263 0
DWIDTH 3 0
BBX 0 0 0 0
BITMAP
ENDCHAR
STARTCHAR infinity
ENCODING 176
SWIDTH 263 0
DWIDTH 3 0
BBX 0 0 0 0
BITMAP
ENDCHAR
STARTCHAR plusminus
ENCODING 177
SWIDTH 263 0
DWIDTH 3 0
BBX 0 0 0 0
BITMAP
ENDCHAR
STARTCHAR lessequal
ENCODING 178
SWIDTH 263 0
DWIDTH 3 0
BBX 0 0 0 0
BITMAP
ENDCHAR
STARTCHAR greaterequal
ENCODING 179
SWIDTH 263 0
DWIDTH 3 0
BBX 0 0 0 0
BITMAP
ENDCHAR
STARTCHAR yen
ENCODING 180
SWIDTH 263 0
DWIDTH 3 0
BBX 0 0 0 0
BITMAP
ENDCHAR
STARTCHAR mu
ENCODING 181
SWIDTH 263 0
DWIDTH 3 0
BBX 0 0 0 0
BITMAP
ENDCHAR
STARTCHAR partialdiff
ENCODING 182
SWIDTH 263 0
DWIDTH 3 0
BBX 0 0 0 0
BITMAP
ENDCHAR
STARTCHAR summation
ENCODING 183
SWIDTH 263 0
DWIDTH 3 0
BBX 0 0 0 0
BITMAP
ENDCHAR
STARTCHAR product
ENCODING 184
SWIDTH 263 0
DWIDTH 3 0
BBX 0 0 0 0
BITMAP
ENDCHAR
STARTCHAR pi
ENCODING 185
SWIDTH 263 0
DWIDTH 3 0
BBX 0 0 0 0
BITMAP
ENDCHAR
STARTCHAR integral
ENCODING 186
SWIDTH 263 0
DWIDTH 3 0
BBX 0 0 0 0
BITMAP
ENDCHAR
STARTCHAR ordfeminine
ENCODING 187
SWIDTH 263 0
DWIDTH 3 0
BBX 0 0 0 0
BITMAP
ENDCHAR
STARTCHAR ordmasculine
ENCODING 188
SWIDTH 263 0
DWIDTH 3 0
BBX 0 0 0 0
BITMAP
ENDCHAR
STARTCHAR Omega
ENCODING 189
SWIDTH 263 0
DWIDTH 3 0
BBX 0 0 0 0
BITMAP
ENDCHAR
STARTCHAR ae
ENCODING 190
SWIDTH 263 0
DWIDTH 3 0
BBX 0 0 0 0
BITMAP
ENDCHAR
STARTCHAR oslash
ENCODING 191
SWIDTH 263 0
DWIDTH 3 0
BBX 0 0 0 0
BITMAP
ENDCHAR
STARTCHAR questiondown
ENCODING 192
SWIDTH 263 0
DWIDTH 3 0
BBX 0 0 0 0
BITMAP
ENDCHAR
STARTCHAR exclamdown
ENCODING 193
SWIDTH 263 0
DWIDTH 3 0
BBX 0 0 0 0
BITMAP
ENDCHAR
STARTCHAR logicalnot
ENCODING 194
SWIDTH 263 0
DWIDTH 3 0
BBX 0 0 0 0
BITMAP
ENDCHAR
STARTCHAR radical
ENCODING 195
SWIDTH 263 0
DWIDTH 3 0
BBX 0 0 0 0
BITMAP
ENDCHAR
STARTCHAR florin
ENCODING 196
SWIDTH 263 0
DWIDTH 3 0
BBX 0 0 0 0
BITMAP
ENDCHAR
STARTCHAR approxequal
ENCODING 197
SWIDTH 263 0
DWIDTH 3 0
BBX 0 0 0 0
BITMAP
ENDCHAR
STARTCHAR Delta
ENCODING 198
SWIDTH 263 0
DWIDTH 3 0
BBX 0 0 0 0
BITMAP
ENDCHAR
STARTCHAR guillemotleft
ENCODING 199
SWIDTH 263 0
DWIDTH 3 0
BBX 0 0 0 0
BITMAP
ENDCHAR
STARTCHAR guillemotright
ENCODING 200
SWIDTH 263 0
DWIDTH 3 0
BBX 0 0 0 0
BITMAP
ENDCHAR
STARTCHAR ellipsis
ENCODING 201
SWIDTH 263 0
DWIDTH 3 0
BBX 0 0 0 0
BITMAP
ENDCHAR
STARTCHAR nbspace
ENCODING 202
SWIDTH 263 0
DWIDTH 3 0
BBX 0 0 0 0
BITMAP
ENDCHAR
STARTCHAR Agrave
ENCODING 203
SWIDTH 263 0
DWIDTH 3 0
BBX 0 0 0 0
BITMAP
ENDCHAR
STARTCHAR Atilde
ENCODING 204
SWIDTH 263 0
DWIDTH 3 0
BBX 0 0 0 0
BITMAP
ENDCHAR
STARTCHAR Otilde
ENCODING 205
SWIDTH 263 0
DWIDTH 3 0
BBX 0 0 0 0
BITMAP
ENDCHAR
STARTCHAR OE
ENCODING 206
SWIDTH 263 0
DWIDTH 3 0
BBX 0 0 0 0
BITMAP
ENDCHAR
STARTCHAR oe
ENCODING 207
SWIDTH 263 0
DWIDTH 3 0
BBX 0 0 0 0
BITMAP
ENDCHAR
STARTCHAR endash
ENCODING 208
SWIDTH 263 0
DWIDTH 3 0
BBX 0 0 0 0
BITMAP
ENDCHAR
STARTCHAR emdash
ENCODING 209
SWIDTH 263 0
DWIDTH 3 0
BBX 0 0 0 0
BITMAP
ENDCHAR
STARTCHAR quotedblleft
ENCODING 210
SWIDTH 263 0
DWIDTH 3 0
BBX 0 0 0 0
BITMAP
ENDCHAR
STARTCHAR quotedblright
ENCODING 211
SWIDTH 263 0
DWIDTH 3 0
BBX 0 0 0 0
BITMAP
ENDCHAR
STARTCHAR quoteleft
ENCODING 212
SWIDTH 263 0
DWIDTH 3 0
BBX 0 0 0 0
BITMAP
ENDCHAR
STARTCHAR quoteright
ENCODING 213
SWIDTH 263 0
DWIDTH 3 0
BBX 0 0 0 0
BITMAP
ENDCHAR
STARTCHAR divide
ENCODING 214
SWIDTH 263 0
DWIDTH 3 0
BBX 0 0 0 0
BITMAP
ENDCHAR
STARTCHAR lozenge
ENCODING 215
SWIDTH 263 0
DWIDTH 3 0
BBX 0 0 0 0
BITMAP
ENDCHAR
STARTCHAR ydieresis
ENCODING 216
SWIDTH 263 0
DWIDTH 3 0
BBX 0 0 0 0
BITMAP
ENDCHAR
STARTCHAR Ydieresis
ENCODING 217
SWIDTH 263 0
DWIDTH 3 0
BBX 0 0 0 0
BITMAP
ENDCHAR
STARTCHAR fraction
ENCODING 218
SWIDTH 263 0
DWIDTH 3 0
BBX 0 0 0 0
BITMAP
ENDCHAR
STARTCHAR currency
ENCODING 219
SWIDTH 263 0
DWIDTH 3 0
BBX 0 0 0 0
BITMAP
ENDCHAR
STARTCHAR guilsinglleft
ENCODING 220
SWIDTH 263 0
DWIDTH 3 0
BBX 0 0 0 0
BITMAP
ENDCHAR
STARTCHAR guilsinglright
ENCODING 221
SWIDTH 263 0
DWIDTH 3 0
BBX 0 0 0 0
BITMAP
ENDCHAR
STARTCHAR fi
ENCODING 222
SWIDTH 263 0
DWIDTH 3 0
BBX 0 0 0 0
BITMAP
ENDCHAR
STARTCHAR fl
ENCODING 223
SWIDTH 263 0
DWIDTH 3 0
BBX 0 0 0 0
BITMAP
ENDCHAR
STARTCHAR daggerdbl
ENCODING 224
SWIDTH 263 0
DWIDTH 3 0
BBX 0 0 0 0
BITMAP
ENDCHAR
STARTCHAR periodcentered
ENCODING 225
SWIDTH 263 0
DWIDTH 3 0
BBX 0 0 0 0
BITMAP
ENDCHAR
STARTCHAR quotesinglbase
ENCODING 226
SWIDTH 263 0
DWIDTH 3 0
BBX 0 0 0 0
BITMAP
ENDCHAR
STARTCHAR quotedblbase
ENCODING 227
SWIDTH 263 0
DWIDTH 3 0
BBX 0 0 0 0
BITMAP
ENDCHAR
STARTCHAR perthousand
ENCODING 228
SWIDTH 263 0
DWIDTH 3 0
BBX 0 0 0 0
BITMAP
ENDCHAR
STARTCHAR Acircumflex
ENCODING 229
SWIDTH 263 0
DWIDTH 3 0
BBX 0 0 0 0
BITMAP
ENDCHAR
STARTCHAR Ecircumflex
ENCODING 230
SWIDTH 263 0
DWIDTH 3 0
BBX 0 0 0 0
BITMAP
ENDCHAR
STARTCHAR Aacute
ENCODING 231
SWIDTH 263 0
DWIDTH 3 0
BBX 0 0 0 0
BITMAP
ENDCHAR
STARTCHAR Edieresis
ENCODING 232
SWIDTH 263 0
DWIDTH 3 0
BBX 0 0 0 0
BITMAP
ENDCHAR
STARTCHAR Egrave
ENCODING 233
SWIDTH 263 0
DWIDTH 3 0
BBX 0 0 0 0
BITMAP
ENDCHAR
STARTCHAR Iacute
ENCODING 234
SWIDTH 263 0
DWIDTH 3 0
BBX 0 0 0 0
BITMAP
ENDCHAR
STARTCHAR Icircumflex
ENCODING 235
SWIDTH 263 0
DWIDTH 3 0
BBX 0 0 0 0
BITMAP
ENDCHAR
STARTCHAR Idieresis
ENCODING 236
SWIDTH 263 0
DWIDTH 3 0
BBX 0 0 0 0
BITMAP
ENDCHAR
STARTCHAR Igrave
ENCODING 237
SWIDTH 263 0
DWIDTH 3 0
BBX 0 0 0 0
BITMAP
ENDCHAR
STARTCHAR Oacute
ENCODING 238
SWIDTH 263 0
DWIDTH 3 0
BBX 0 0 0 0
BITMAP
ENDCHAR
STARTCHAR Ocircumflex
ENCODING 239
SWIDTH 263 0
DWIDTH 3 0
BBX 0 0 0 0
BITMAP
ENDCHAR
STARTCHAR apple
ENCODING 240
SWIDTH 263 0
DWIDTH 3 0
BBX 0 0 0 0
BITMAP
ENDCHAR
STARTCHAR Ograve
ENCODING 241
SWIDTH 263 0
DWIDTH 3 0
BBX 0 0 0 0
BITMAP
ENDCHAR
STARTCHAR Uacute
ENCODING 242
SWIDTH 263 0
DWIDTH 3 0
BBX 0 0 0 0
BITMAP
ENDCHAR
STARTCHAR Ucircumflex
ENCODING 243
SWIDTH 263 0
DWIDTH 3 0
BBX 0 0 0 0
BITMAP
ENDCHAR
STARTCHAR Ugrave
ENCODING 244
SWIDTH 263 0
DWIDTH 3 0
BBX 0 0 0 0
BITMAP
ENDCHAR
STARTCHAR dotlessi
ENCODING 245
SWIDTH 263 0
DWIDTH 3 0
BBX 0 0 0 0
BITMAP
ENDCHAR
STARTCHAR circumflex
ENCODING 246
SWIDTH 263 0
DWIDTH 3 0
BBX 0 0 0 0
BITMAP
ENDCHAR
STARTCHAR tilde
ENCODING 247
SWIDTH 263 0
DWIDTH 3 0
BBX 0 0 0 0
BITMAP
ENDCHAR
STARTCHAR macron
ENCODING 248
SWIDTH 263 0
DWIDTH 3 0
BBX 0 0 0 0
BITMAP
ENDCHAR
STARTCHAR breve
ENCODING 249
SWIDTH 263 0
DWIDTH 3 0
BBX 0 0 0 0
BITMAP
ENDCHAR
STARTCHAR dotaccent
ENCODING 250
SWIDTH 263 0
DWIDTH 3 0
BBX 0 0 0 0
BITMAP
ENDCHAR
STARTCHAR ring
ENCODING 251
SWIDTH 263 0
DWIDTH 3 0
BBX 0 0 0 0
BITMAP
ENDCHAR
STARTCHAR cedilla
ENCODING 252
SWIDTH 263 0
DWIDTH 3 0
BBX 0 0 0 0
BITMAP
ENDCHAR
STARTCHAR hungarumlaut
ENCODING 253
SWIDTH 263 0
DWIDTH 3 0
BBX 0 0 0 0
BITMAP
ENDCHAR
STARTCHAR ogonek
ENCODING 254
SWIDTH 263 0
DWIDTH 3 0
BBX 0 0 0 0
BITMAP
ENDCHAR
STARTCHAR caron
ENCODING 255
SWIDTH 263 0
DWIDTH 3 0
BBX 0 0 0 0
BITMAP
ENDCHAR
ENDFONT
