STARTFONT 2.1
FONT -WRI-Mathematica1Mono-Medium-R-Normal--22-220-75-75-M-130-Adobe-FontSpecific
SIZE 22 75 75
FONTBOUNDINGBOX 30 23 -1 -4
STARTPROPERTIES 16
FOUNDRY "WRI"
FAMILY_NAME "Mathematica1Mono"
WEIGHT_NAME "Medium"
SLANT "R"
SETWIDTH_NAME "Normal"
PIXEL_SIZE 22
POINT_SIZE 220
RESOLUTION_X 75
RESOLUTION_Y 75
SPACING "M"
AVERAGE_WIDTH 130
CHARSET_REGISTRY "Adobe"
CHARSET_ENCODING "FontSpecific"
FONT_DESCENT 4
FONT_ASCENT 19
DEFAULT_CHAR 32
ENDPROPERTIES
CHARS 224
STARTCHAR space
ENCODING 32
SWIDTH 263 0
DWIDTH 6 0
BBX 0 0 0 0
BITMAP
ENDCHAR
STARTCHAR Exclamation
ENCODING 33
SWIDTH 600 0
DWIDTH 13 0
BBX 3 13 5 0
BITMAP
60
60
60
60
60
60
60
60
60
00
00
e0
e0
ENDCHAR
STARTCHAR ForAll
ENCODING 34
SWIDTH 600 0
DWIDTH 13 0
BBX 11 13 1 0
BITMAP
c060
60c0
60c0
61c0
3f80
3180
3b00
1b00
1b00
0e00
0e00
0e00
0400
ENDCHAR
STARTCHAR NumberSign
ENCODING 35
SWIDTH 600 0
DWIDTH 13 0
BBX 10 15 2 -1
BITMAP
1100
1100
1100
1100
1100
ffc0
2200
2200
2200
ffc0
2200
2200
2200
2200
2200
ENDCHAR
STARTCHAR Exists
ENCODING 36
SWIDTH 600 0
DWIDTH 13 0
BBX 10 13 1 0
BITMAP
ffc0
00c0
00c0
00c0
00c0
00c0
0fc0
00c0
00c0
00c0
00c0
00c0
ffc0
ENDCHAR
STARTCHAR Percent
ENCODING 37
SWIDTH 600 0
DWIDTH 13 0
BBX 11 14 1 0
BITMAP
1800
2400
4200
4200
2400
1860
0780
3800
c300
0480
0840
0840
0480
0300
ENDCHAR
STARTCHAR Ampersand
ENCODING 38
SWIDTH 600 0
DWIDTH 13 0
BBX 10 12 2 0
BITMAP
3c00
6200
6000
6000
3000
3000
58c0
c900
c500
c200
e600
79c0
ENDCHAR
STARTCHAR SmallMember
ENCODING 39
SWIDTH 600 0
DWIDTH 13 0
BBX 10 10 1 0
BITMAP
3f00
c180
00c0
00c0
7fc0
00c0
00c0
0180
8300
7e00
ENDCHAR
STARTCHAR LParen
ENCODING 40
SWIDTH 600 0
DWIDTH 13 0
BBX 4 18 6 -4
BITMAP
10
20
20
40
40
40
80
80
80
80
80
80
40
40
40
20
20
10
ENDCHAR
STARTCHAR RParen
ENCODING 41
SWIDTH 600 0
DWIDTH 13 0
BBX 4 18 3 -4
BITMAP
80
40
40
20
20
20
10
10
10
10
10
10
20
20
20
40
40
80
ENDCHAR
STARTCHAR Star
ENCODING 42
SWIDTH 600 0
DWIDTH 13 0
BBX 10 8 2 1
BITMAP
0c00
0c00
ccc0
7f80
0e00
1a00
1100
3180
ENDCHAR
STARTCHAR Plus
ENCODING 43
SWIDTH 600 0
DWIDTH 13 0
BBX 9 9 2 0
BITMAP
0800
0800
0800
0800
ff80
0800
0800
0800
0800
ENDCHAR
STARTCHAR Comma
ENCODING 44
SWIDTH 600 0
DWIDTH 13 0
BBX 4 5 4 -2
BITMAP
30
60
60
40
c0
ENDCHAR
STARTCHAR Minus
ENCODING 45
SWIDTH 600 0
DWIDTH 13 0
BBX 9 1 2 4
BITMAP
ff80
ENDCHAR
STARTCHAR Period
ENCODING 46
SWIDTH 600 0
DWIDTH 13 0
BBX 3 3 5 0
BITMAP
e0
e0
e0
ENDCHAR
STARTCHAR Slash
ENCODING 47
SWIDTH 600 0
DWIDTH 13 0
BBX 8 16 3 -2
BITMAP
01
02
02
06
04
04
08
08
10
10
20
20
40
40
40
80
ENDCHAR
STARTCHAR Zero
ENCODING 48
SWIDTH 600 0
DWIDTH 13 0
BBX 8 14 2 0
BITMAP
3c
66
66
c3
c3
c3
c3
c3
c3
c3
c3
66
66
3c
ENDCHAR
STARTCHAR One
ENCODING 49
SWIDTH 600 0
DWIDTH 13 0
BBX 10 14 2 0
BITMAP
0c00
7c00
8c00
0c00
0c00
0c00
0c00
0c00
0c00
0c00
0c00
0c00
0c00
ffc0
ENDCHAR
STARTCHAR Two
ENCODING 50
SWIDTH 600 0
DWIDTH 13 0
BBX 8 14 2 0
BITMAP
3c
e6
c3
03
03
03
06
0e
1c
18
30
63
e3
ff
ENDCHAR
STARTCHAR Three
ENCODING 51
SWIDTH 600 0
DWIDTH 13 0
BBX 8 14 2 0
BITMAP
78
8c
06
06
06
0c
1c
06
03
03
03
03
86
7c
ENDCHAR
STARTCHAR Four
ENCODING 52
SWIDTH 600 0
DWIDTH 13 0
BBX 9 14 2 0
BITMAP
0600
0600
0e00
1e00
1e00
3600
7600
6600
c600
ff80
0600
0600
0600
3f80
ENDCHAR
STARTCHAR Five
ENCODING 53
SWIDTH 600 0
DWIDTH 13 0
BBX 9 13 2 0
BITMAP
7f00
6000
6000
6000
6000
7e00
6300
0180
0180
0180
0180
8300
7e00
ENDCHAR
STARTCHAR Six
ENCODING 54
SWIDTH 600 0
DWIDTH 13 0
BBX 8 14 3 0
BITMAP
0f
38
70
60
60
c0
dc
e6
c3
c3
c3
63
66
3c
ENDCHAR
STARTCHAR Seven
ENCODING 55
SWIDTH 600 0
DWIDTH 13 0
BBX 8 13 2 0
BITMAP
ff
c3
c3
06
06
06
06
0c
0c
0c
0c
18
18
ENDCHAR
STARTCHAR Eight
ENCODING 56
SWIDTH 600 0
DWIDTH 13 0
BBX 9 14 2 0
BITMAP
3e00
6300
c180
c180
c180
6300
1c00
6300
c180
c180
c180
c180
6300
3e00
ENDCHAR
STARTCHAR Nine
ENCODING 57
SWIDTH 600 0
DWIDTH 13 0
BBX 8 14 2 0
BITMAP
3c
66
c6
c3
c3
c3
67
3b
03
06
06
0e
1c
f0
ENDCHAR
STARTCHAR Colon
ENCODING 58
SWIDTH 600 0
DWIDTH 13 0
BBX 3 8 5 0
BITMAP
e0
e0
e0
00
00
e0
e0
e0
ENDCHAR
STARTCHAR SemiColon
ENCODING 59
SWIDTH 600 0
DWIDTH 13 0
BBX 5 10 3 -2
BITMAP
38
38
38
00
00
30
60
60
40
c0
ENDCHAR
STARTCHAR Less
ENCODING 60
SWIDTH 600 0
DWIDTH 13 0
BBX 10 11 2 -1
BITMAP
0040
0180
0600
0c00
3000
c000
3000
0c00
0600
0180
0040
ENDCHAR
STARTCHAR Equal
ENCODING 61
SWIDTH 600 0
DWIDTH 13 0
BBX 9 5 2 2
BITMAP
ff80
0000
0000
0000
ff80
ENDCHAR
STARTCHAR Greater
ENCODING 62
SWIDTH 600 0
DWIDTH 13 0
BBX 10 11 2 -1
BITMAP
8000
6000
1800
0c00
0300
00c0
0300
0c00
1800
6000
8000
ENDCHAR
STARTCHAR Question
ENCODING 63
SWIDTH 600 0
DWIDTH 13 0
BBX 8 13 3 0
BITMAP
7c
c6
c3
03
03
03
0e
1c
18
00
00
38
38
ENDCHAR
STARTCHAR TildeFullEqual
ENCODING 64
SWIDTH 600 0
DWIDTH 13 0
BBX 9 8 2 3
BITMAP
6080
d900
8600
0000
ff80
0000
0000
ff80
ENDCHAR
STARTCHAR CapAlpha
ENCODING 65
SWIDTH 600 0
DWIDTH 13 0
BBX 13 13 0 0
BITMAP
0200
0700
0700
0700
0d80
0d80
18c0
18c0
3fe0
3060
3060
6030
f078
ENDCHAR
STARTCHAR CapBeta
ENCODING 66
SWIDTH 600 0
DWIDTH 13 0
BBX 11 13 1 0
BITMAP
ff00
3180
30c0
30c0
30c0
3180
3f00
30c0
3060
3060
3060
30c0
ff80
ENDCHAR
STARTCHAR CapChi
ENCODING 67
SWIDTH 600 0
DWIDTH 13 0
BBX 11 13 1 0
BITMAP
fbe0
3180
3380
1b00
1e00
0e00
0e00
1e00
1b00
3380
3180
61c0
fbe0
ENDCHAR
STARTCHAR CapDelta
ENCODING 68
SWIDTH 600 0
DWIDTH 13 0
BBX 13 13 0 0
BITMAP
0200
0700
0700
0d80
0d80
18c0
18c0
38e0
3060
3060
6030
6030
fff8
ENDCHAR
STARTCHAR CapEpsilon
ENCODING 69
SWIDTH 600 0
DWIDTH 13 0
BBX 11 13 1 0
BITMAP
ffe0
3060
3060
3060
3300
3300
3f00
3300
3300
3060
3060
3060
ffe0
ENDCHAR
STARTCHAR CapPhi
ENCODING 70
SWIDTH 600 0
DWIDTH 13 0
BBX 12 13 1 0
BITMAP
7fe0
0600
0600
3fc0
6660
c630
c630
c630
6660
3fc0
0600
0600
7fe0
ENDCHAR
STARTCHAR CapGamma
ENCODING 71
SWIDTH 600 0
DWIDTH 13 0
BBX 11 13 1 0
BITMAP
ffe0
1860
1860
1860
1800
1800
1800
1800
1800
1800
1800
1800
ff00
ENDCHAR
STARTCHAR CapEta
ENCODING 72
SWIDTH 600 0
DWIDTH 13 0
BBX 12 13 1 0
BITMAP
f9f0
30c0
30c0
30c0
30c0
30c0
3fc0
30c0
30c0
30c0
30c0
30c0
f9f0
ENDCHAR
STARTCHAR CapIota
ENCODING 73
SWIDTH 600 0
DWIDTH 13 0
BBX 10 13 2 0
BITMAP
ffc0
0c00
0c00
0c00
0c00
0c00
0c00
0c00
0c00
0c00
0c00
0c00
ffc0
ENDCHAR
STARTCHAR CurlyTheta
ENCODING 74
SWIDTH 600 0
DWIDTH 13 0
BBX 12 13 1 0
BITMAP
03c0
0640
0660
3660
6660
4360
c1e0
c070
c0c0
c0c0
c180
6300
3e00
ENDCHAR
STARTCHAR CapKappa
ENCODING 75
SWIDTH 600 0
DWIDTH 13 0
BBX 12 13 1 0
BITMAP
fcf0
30c0
3180
3300
3600
3c00
3c00
3f00
3380
3180
31c0
30c0
fcf0
ENDCHAR
STARTCHAR CapLambda
ENCODING 76
SWIDTH 600 0
DWIDTH 13 0
BBX 13 13 0 0
BITMAP
0200
0700
0700
0700
0d80
0d80
18c0
18c0
38e0
3060
3060
6030
f8f8
ENDCHAR
STARTCHAR CapMu
ENCODING 77
SWIDTH 600 0
DWIDTH 13 0
BBX 13 13 0 0
BITMAP
f8f8
38e0
38e0
3560
3560
3560
3560
3560
3260
3260
3060
3060
f8f8
ENDCHAR
STARTCHAR CapNu
ENCODING 78
SWIDTH 600 0
DWIDTH 13 0
BBX 13 13 0 0
BITMAP
f1f8
3060
3860
3860
3460
3460
3260
3160
3160
30e0
30e0
3060
fc20
ENDCHAR
STARTCHAR CapOmicron
ENCODING 79
SWIDTH 600 0
DWIDTH 13 0
BBX 11 13 1 0
BITMAP
1f00
3180
60c0
4040
c060
c060
c060
c060
c060
40c0
60c0
3180
1f00
ENDCHAR
STARTCHAR CapPi
ENCODING 80
SWIDTH 600 0
DWIDTH 13 0
BBX 12 13 1 0
BITMAP
fff0
30c0
30c0
30c0
30c0
30c0
30c0
30c0
30c0
30c0
30c0
30c0
f9f0
ENDCHAR
STARTCHAR CapTheta
ENCODING 81
SWIDTH 600 0
DWIDTH 13 0
BBX 11 13 1 0
BITMAP
1f00
3180
60c0
4040
c060
d160
df60
d160
c060
40c0
60c0
3180
1f00
ENDCHAR
STARTCHAR CapRho
ENCODING 82
SWIDTH 600 0
DWIDTH 13 0
BBX 10 13 2 0
BITMAP
ff00
3180
30c0
30c0
30c0
30c0
3180
3f00
3000
3000
3000
3000
fe00
ENDCHAR
STARTCHAR CapSigma
ENCODING 83
SWIDTH 600 0
DWIDTH 13 0
BBX 11 13 1 0
BITMAP
7fc0
30c0
38c0
1c00
0c00
0600
0600
0c00
1c00
3860
7060
6060
ffe0
ENDCHAR
STARTCHAR CapTau
ENCODING 84
SWIDTH 600 0
DWIDTH 13 0
BBX 12 13 1 0
BITMAP
fff0
c630
c630
0600
0600
0600
0600
0600
0600
0600
0600
0600
3fc0
ENDCHAR
STARTCHAR CapUpsilon
ENCODING 85
SWIDTH 600 0
DWIDTH 13 0
BBX 14 13 0 0
BITMAP
f03c
1860
0cc0
0480
0780
0300
0300
0300
0300
0300
0300
0300
1fe0
ENDCHAR
STARTCHAR FinalSigma
ENCODING 86
SWIDTH 600 0
DWIDTH 13 0
BBX 9 13 2 -3
BITMAP
1f00
3080
6080
c000
c000
c000
c000
c000
6000
3e00
0100
0100
0600
ENDCHAR
STARTCHAR CapOmega
ENCODING 87
SWIDTH 600 0
DWIDTH 13 0
BBX 11 13 1 0
BITMAP
1f00
3180
60c0
c060
c060
c060
c060
c060
60c0
71c0
3180
3180
f1e0
ENDCHAR
STARTCHAR CapXi
ENCODING 88
SWIDTH 600 0
DWIDTH 13 0
BBX 11 13 1 0
BITMAP
ffe0
c060
c060
c060
0000
1b00
1f00
1b00
0000
c060
c060
c060
ffe0
ENDCHAR
STARTCHAR CapPsi
ENCODING 89
SWIDTH 600 0
DWIDTH 13 0
BBX 10 13 2 0
BITMAP
ffc0
0c00
0c00
8c40
8c40
8c40
8c40
8c40
4c80
3f00
0c00
0c00
ffc0
ENDCHAR
STARTCHAR CapZeta
ENCODING 90
SWIDTH 600 0
DWIDTH 13 0
BBX 9 13 2 0
BITMAP
ff00
c300
c600
c600
0c00
0c00
1800
3000
3000
6180
6180
c180
ff80
ENDCHAR
STARTCHAR LBracket
ENCODING 91
SWIDTH 600 0
DWIDTH 13 0
BBX 4 18 6 -4
BITMAP
f0
80
80
80
80
80
80
80
80
80
80
80
80
80
80
80
80
f0
ENDCHAR
STARTCHAR Therefore
ENCODING 92
SWIDTH 600 0
DWIDTH 13 0
BBX 11 10 1 0
BITMAP
0e00
0e00
0e00
0000
0000
0000
0000
e0e0
e0e0
e0e0
ENDCHAR
STARTCHAR RBracket
ENCODING 93
SWIDTH 600 0
DWIDTH 13 0
BBX 4 18 3 -4
BITMAP
f0
10
10
10
10
10
10
10
10
10
10
10
10
10
10
10
10
f0
ENDCHAR
STARTCHAR Perpendicular
ENCODING 94
SWIDTH 600 0
DWIDTH 13 0
BBX 11 11 1 0
BITMAP
0400
0400
0400
0400
0400
0400
0400
0400
0400
0400
ffe0
ENDCHAR
STARTCHAR Underbar
ENCODING 95
SWIDTH 600 0
DWIDTH 13 0
BBX 11 1 1 -2
BITMAP
ffe0
ENDCHAR
STARTCHAR Hat
ENCODING 96
SWIDTH 600 0
DWIDTH 13 0
BBX 7 4 3 0
BITMAP
38
28
44
82
ENDCHAR
STARTCHAR Alpha
ENCODING 97
SWIDTH 600 0
DWIDTH 13 0
BBX 11 10 1 0
BITMAP
1e20
3140
6140
c080
c080
c080
c180
c280
6480
3860
ENDCHAR
STARTCHAR Beta
ENCODING 98
SWIDTH 600 0
DWIDTH 13 0
BBX 11 17 1 -3
BITMAP
07c0
0c60
1860
1860
1860
38c0
3700
30c0
3060
3060
6060
6060
70c0
6f80
6000
c000
c000
ENDCHAR
STARTCHAR Chi
ENCODING 99
SWIDTH 600 0
DWIDTH 13 0
BBX 13 13 0 -3
BITMAP
1c38
2670
06e0
03c0
0380
0380
0700
0f00
0f00
1980
3980
7190
e0e0
ENDCHAR
STARTCHAR Delta
ENCODING 100
SWIDTH 600 0
DWIDTH 13 0
BBX 10 14 1 0
BITMAP
0780
0c40
0c00
0600
0700
1980
20c0
60c0
c0c0
c0c0
c0c0
c180
6300
3e00
ENDCHAR
STARTCHAR Epsilon
ENCODING 101
SWIDTH 600 0
DWIDTH 13 0
BBX 10 10 1 0
BITMAP
1f80
3040
6000
c000
ff80
c000
c000
e000
70c0
3f00
ENDCHAR
STARTCHAR Phi
ENCODING 102
SWIDTH 600 0
DWIDTH 13 0
BBX 11 17 1 -3
BITMAP
0300
0300
0300
0600
1f80
36c0
6660
c660
ce60
cc60
cc60
ccc0
6d80
3f00
1800
1800
1800
ENDCHAR
STARTCHAR Gamma
ENCODING 103
SWIDTH 600 0
DWIDTH 13 0
BBX 14 13 0 -3
BITMAP
c004
3808
0c10
0620
0240
0380
0380
0580
0580
0d80
0d80
0d00
0600
ENDCHAR
STARTCHAR Eta
ENCODING 104
SWIDTH 600 0
DWIDTH 13 0
BBX 11 14 1 -4
BITMAP
f9c0
1a60
1c60
1860
1860
3060
30c0
30c0
60c0
60c0
00c0
0180
0180
0180
ENDCHAR
STARTCHAR Iota
ENCODING 105
SWIDTH 600 0
DWIDTH 13 0
BBX 7 10 4 0
BITMAP
60
60
60
c0
c0
c0
c0
c0
c2
7c
ENDCHAR
STARTCHAR CurlyPhi
ENCODING 106
SWIDTH 600 0
DWIDTH 13 0
BBX 11 13 1 -3
BITMAP
11c0
2360
6360
4660
c660
c660
c640
c6c0
6d80
3f00
0c00
0c00
1800
ENDCHAR
STARTCHAR Kappa
ENCODING 107
SWIDTH 600 0
DWIDTH 13 0
BBX 13 10 0 0
BITMAP
3c78
0cc0
1980
1b00
1e00
1f00
3300
3180
31c0
f0f0
ENDCHAR
STARTCHAR Lambda
ENCODING 108
SWIDTH 600 0
DWIDTH 13 0
BBX 13 14 -1 0
BITMAP
0e00
0300
0180
00c0
00c0
00c0
01c0
03c0
03c0
06c0
06c0
0ce0
1c60
f038
ENDCHAR
STARTCHAR Mu
ENCODING 109
SWIDTH 600 0
DWIDTH 13 0
BBX 13 14 1 -4
BITMAP
1830
1830
3060
3060
3060
3060
30c0
61c0
72c0
7cf8
6000
6000
c000
c000
ENDCHAR
STARTCHAR Nu
ENCODING 110
SWIDTH 600 0
DWIDTH 13 0
BBX 11 10 1 0
BITMAP
c060
70c0
38c0
1d80
1d80
0f00
0f00
0e00
0e00
0c00
ENDCHAR
STARTCHAR Omicron
ENCODING 111
SWIDTH 600 0
DWIDTH 13 0
BBX 11 10 1 0
BITMAP
0f80
30c0
6060
c060
c060
c060
c060
c0c0
6180
3e00
ENDCHAR
STARTCHAR Pi
ENCODING 112
SWIDTH 600 0
DWIDTH 13 0
BBX 14 10 0 0
BITMAP
3ffc
0630
0630
0c60
0c60
0860
1860
3060
6030
c030
ENDCHAR
STARTCHAR Theta
ENCODING 113
SWIDTH 600 0
DWIDTH 13 0
BBX 11 13 1 0
BITMAP
0f80
18c0
3060
6060
6060
c060
ffe0
c060
c0c0
c0c0
c180
6300
3e00
ENDCHAR
STARTCHAR Rho
ENCODING 114
SWIDTH 600 0
DWIDTH 13 0
BBX 11 13 1 -3
BITMAP
0780
18c0
1860
3060
3060
3060
3060
70c0
69c0
6700
6000
c000
c000
ENDCHAR
STARTCHAR Sigma
ENCODING 115
SWIDTH 600 0
DWIDTH 13 0
BBX 11 10 2 0
BITMAP
1fe0
6300
6180
c180
c180
c180
c180
c300
6300
3c00
ENDCHAR
STARTCHAR Tau
ENCODING 116
SWIDTH 600 0
DWIDTH 13 0
BBX 9 10 3 0
BITMAP
ff80
1800
1800
1800
3000
3000
3000
3000
3080
1f00
ENDCHAR
STARTCHAR Upsilon
ENCODING 117
SWIDTH 600 0
DWIDTH 13 0
BBX 11 10 2 0
BITMAP
c060
60c0
60c0
60c0
60c0
c180
c180
c180
e300
3e00
ENDCHAR
STARTCHAR CurlyPi
ENCODING 118
SWIDTH 600 0
DWIDTH 13 0
BBX 14 10 1 0
BITMAP
fffc
3030
6030
6330
c330
c230
c630
c620
c760
7b80
ENDCHAR
STARTCHAR Omega
ENCODING 119
SWIDTH 600 0
DWIDTH 13 0
BBX 12 10 1 0
BITMAP
1860
3030
6030
6330
c330
c230
c630
c620
c760
7b80
ENDCHAR
STARTCHAR Xi
ENCODING 120
SWIDTH 600 0
DWIDTH 13 0
BBX 11 17 2 -3
BITMAP
07c0
0c20
1800
1800
1c00
0700
3800
6000
c000
c000
c000
e000
7f00
0380
0180
0380
3e00
ENDCHAR
STARTCHAR Psi
ENCODING 121
SWIDTH 600 0
DWIDTH 13 0
BBX 11 17 2 -3
BITMAP
0300
0300
0300
0600
c660
6660
66c0
66c0
6cc0
ccc0
ccc0
cd80
f980
7f00
1800
1800
1800
ENDCHAR
STARTCHAR Zeta
ENCODING 122
SWIDTH 600 0
DWIDTH 13 0
BBX 11 17 1 -3
BITMAP
01c0
2660
1860
1fc0
1000
3000
3000
6000
6000
6000
6000
3000
1f00
0380
8180
4380
3f00
ENDCHAR
STARTCHAR LBrace
ENCODING 123
SWIDTH 600 0
DWIDTH 13 0
BBX 6 18 4 -4
BITMAP
0c
10
20
20
20
20
20
20
c0
20
20
20
20
20
20
20
10
0c
ENDCHAR
STARTCHAR VertBar
ENCODING 124
SWIDTH 600 0
DWIDTH 13 0
BBX 1 16 6 -2
BITMAP
80
80
80
80
80
80
80
80
80
80
80
80
80
80
80
80
ENDCHAR
STARTCHAR RBrace
ENCODING 125
SWIDTH 600 0
DWIDTH 13 0
BBX 6 18 3 -4
BITMAP
c0
20
10
10
10
10
10
10
0c
10
10
10
10
10
10
10
20
c0
ENDCHAR
STARTCHAR Tilde
ENCODING 126
SWIDTH 600 0
DWIDTH 13 0
BBX 9 3 2 3
BITMAP
6080
9900
8600
ENDCHAR
STARTCHAR DEL
ENCODING 127
SWIDTH 263 0
DWIDTH 6 0
BBX 0 0 0 0
BITMAP
ENDCHAR
STARTCHAR FractionBarExt
ENCODING 128
SWIDTH 240 0
DWIDTH 5 0
BBX 5 1 0 4
BITMAP
f8
ENDCHAR
STARTCHAR EscapeChar
ENCODING 129
SWIDTH 291 0
DWIDTH 6 0
BBX 4 11 1 -1
BITMAP
f0
00
00
00
00
f0
00
00
00
00
f0
ENDCHAR
STARTCHAR SelectPlaceholder
ENCODING 130
SWIDTH 600 0
DWIDTH 13 0
BBX 10 10 1 0
BITMAP
ffc0
ffc0
ffc0
ffc0
ffc0
ffc0
ffc0
ffc0
ffc0
ffc0
ENDCHAR
STARTCHAR Placeholder
ENCODING 131
SWIDTH 600 0
DWIDTH 13 0
BBX 10 10 1 0
BITMAP
ffc0
8040
8040
8040
8040
8040
8040
8040
8040
ffc0
ENDCHAR
STARTCHAR Continuation
ENCODING 132
SWIDTH 600 0
DWIDTH 13 0
BBX 6 10 4 0
BITMAP
c0
c0
00
00
30
30
00
00
0c
0c
ENDCHAR
STARTCHAR Skeleton
ENCODING 133
SWIDTH 600 0
DWIDTH 13 0
BBX 7 3 3 3
BITMAP
fe
fe
fe
ENDCHAR
STARTCHAR LSkeleton
ENCODING 134
SWIDTH 1200 0
DWIDTH 26 0
BBX 21 9 4 0
BITMAP
006018
01c070
060180
380e00
c03000
380e00
060180
01c070
006018
ENDCHAR
STARTCHAR RSkeleton
ENCODING 135
SWIDTH 1200 0
DWIDTH 26 0
BBX 21 9 1 0
BITMAP
c03000
701c00
0c0300
0380e0
006018
0380e0
0c0300
701c00
c03000
ENDCHAR
STARTCHAR Spacer
ENCODING 136
SWIDTH 600 0
DWIDTH 13 0
BBX 12 3 0 -3
BITMAP
c030
c030
fff0
ENDCHAR
STARTCHAR Cross
ENCODING 137
SWIDTH 600 0
DWIDTH 13 0
BBX 7 7 3 1
BITMAP
82
44
28
10
28
44
82
ENDCHAR
STARTCHAR DblEqual
ENCODING 138
SWIDTH 798 0
DWIDTH 18 0
BBX 13 5 2 2
BITMAP
fdf8
0000
0000
0000
fdf8
ENDCHAR
STARTCHAR Grave
ENCODING 139
SWIDTH 600 0
DWIDTH 13 0
BBX 4 3 5 1
BITMAP
c0
60
30
ENDCHAR
STARTCHAR Acute
ENCODING 140
SWIDTH 600 0
DWIDTH 13 0
BBX 4 3 4 1
BITMAP
30
60
c0
ENDCHAR
STARTCHAR DoubleAcute
ENCODING 141
SWIDTH 600 0
DWIDTH 13 0
BBX 8 3 2 1
BITMAP
33
66
cc
ENDCHAR
STARTCHAR OverTilde
ENCODING 142
SWIDTH 600 0
DWIDTH 13 0
BBX 8 3 3 1
BITMAP
61
d3
8e
ENDCHAR
STARTCHAR OverBar
ENCODING 143
SWIDTH 600 0
DWIDTH 13 0
BBX 7 1 3 1
BITMAP
fe
ENDCHAR
STARTCHAR DblUpDownArrow
ENCODING 144
SWIDTH 600 0
DWIDTH 13 0
BBX 9 16 2 0
BITMAP
0800
1400
2200
6300
a280
2200
2200
2200
2200
2200
2200
a280
6300
2200
1400
0800
ENDCHAR
STARTCHAR DblUpExtens1
ENCODING 145
SWIDTH 600 0
DWIDTH 13 0
BBX 5 4 4 0
BITMAP
88
88
88
88
ENDCHAR
STARTCHAR DblLongLArrow
ENCODING 146
SWIDTH 1200 0
DWIDTH 26 0
BBX 24 9 1 0
BITMAP
080000
100000
3fffff
400000
800000
400000
3fffff
100000
080000
ENDCHAR
STARTCHAR DblExtens
ENCODING 147
SWIDTH 200 0
DWIDTH 4 0
BBX 4 5 0 2
BITMAP
f0
00
00
00
f0
ENDCHAR
STARTCHAR DblLongRArrow
ENCODING 148
SWIDTH 1200 0
DWIDTH 26 0
BBX 24 9 1 0
BITMAP
000010
000008
fffffc
000002
000001
000002
fffffc
000008
000010
ENDCHAR
STARTCHAR DblLRArrow2
ENCODING 149
SWIDTH 790 0
DWIDTH 17 0
BBX 15 9 1 0
BITMAP
0820
1010
3ff8
4004
8002
4004
3ff8
1010
0820
ENDCHAR
STARTCHAR DblLongLRArrow
ENCODING 150
SWIDTH 1200 0
DWIDTH 26 0
BBX 24 9 1 0
BITMAP
080010
100008
3ffffc
400002
800001
400002
3ffffc
100008
080010
ENDCHAR
STARTCHAR UpDownArrow
ENCODING 151
SWIDTH 600 0
DWIDTH 13 0
BBX 9 16 2 0
BITMAP
0800
1c00
2a00
4900
8880
0800
0800
0800
0800
0800
0800
8880
4900
2a00
1c00
0800
ENDCHAR
STARTCHAR LongLArrow
ENCODING 152
SWIDTH 1200 0
DWIDTH 26 0
BBX 24 9 1 0
BITMAP
080000
100000
200000
400000
ffffff
400000
200000
100000
080000
ENDCHAR
STARTCHAR LongRArrow
ENCODING 153
SWIDTH 1200 0
DWIDTH 26 0
BBX 24 9 1 0
BITMAP
000010
000008
000004
000002
ffffff
000002
000004
000008
000010
ENDCHAR
STARTCHAR LongLRArrow
ENCODING 154
SWIDTH 1200 0
DWIDTH 26 0
BBX 24 9 1 0
BITMAP
080010
100008
200004
400002
ffffff
400002
200004
100008
080010
ENDCHAR
STARTCHAR ColonEqual
ENCODING 155
SWIDTH 696 0
DWIDTH 15 0
BBX 14 9 1 0
BITMAP
e000
e000
e7fc
0000
0000
0000
e7fc
e000
e000
ENDCHAR
STARTCHAR Diamond2
ENCODING 156
SWIDTH 600 0
DWIDTH 13 0
BBX 9 9 2 2
BITMAP
0800
1c00
3600
6300
c180
6300
3600
1c00
0800
ENDCHAR
STARTCHAR NotSquareSprsetEqual
ENCODING 157
SWIDTH 600 0
DWIDTH 13 0
BBX 9 12 2 -1
BITMAP
fc00
0300
0100
0080
0080
0080
0100
0300
fc00
0000
0000
ff80
ENDCHAR
STARTCHAR AtSign
ENCODING 158
SWIDTH 600 0
DWIDTH 13 0
BBX 12 13 0 0
BITMAP
0f80
30c0
6060
62b0
c5b0
c8b0
c930
c930
c960
c7c0
6000
3000
1f80
ENDCHAR
STARTCHAR Solidmedsqr
ENCODING 159
SWIDTH 600 0
DWIDTH 13 0
BBX 9 9 2 1
BITMAP
ff80
ff80
ff80
ff80
ff80
ff80
ff80
ff80
ff80
ENDCHAR
STARTCHAR OverDot
ENCODING 160
SWIDTH 600 0
DWIDTH 13 0
BBX 3 3 5 1
BITMAP
e0
e0
e0
ENDCHAR
STARTCHAR CurlyCapUpsilon
ENCODING 161
SWIDTH 600 0
DWIDTH 13 0
BBX 14 13 0 0
BITMAP
f038
1844
0c84
0680
0780
0300
0300
0300
0300
0300
0300
0300
1fe0
ENDCHAR
STARTCHAR Prime
ENCODING 162
SWIDTH 371 0
DWIDTH 8 0
BBX 6 7 1 1
BITMAP
1c
18
30
30
60
40
c0
ENDCHAR
STARTCHAR LessEqual
ENCODING 163
SWIDTH 600 0
DWIDTH 13 0
BBX 9 10 2 0
BITMAP
0080
0700
1800
e000
1800
0700
0080
0000
0000
ff80
ENDCHAR
STARTCHAR Fraction
ENCODING 164
SWIDTH 600 0
DWIDTH 13 0
BBX 11 15 1 0
BITMAP
0020
0040
00c0
0080
0100
0300
0200
0400
0c00
0800
1000
3000
2000
4000
c000
ENDCHAR
STARTCHAR Infinity
ENCODING 165
SWIDTH 695 0
DWIDTH 15 0
BBX 14 7 1 2
BITMAP
3cf0
6798
c30c
c30c
c30c
6798
3cf0
ENDCHAR
STARTCHAR RuleDelayed
ENCODING 166
SWIDTH 750 0
DWIDTH 17 0
BBX 15 9 1 0
BITMAP
e020
e010
e008
0004
1ffe
0004
e008
e010
e020
ENDCHAR
STARTCHAR ClubSuit
ENCODING 167
SWIDTH 600 0
DWIDTH 13 0
BBX 11 12 1 0
BITMAP
0e00
1f00
1f00
1f00
0e00
7ec0
ffe0
ffe0
ffe0
ffe0
75c0
0400
ENDCHAR
STARTCHAR DiamondSuit
ENCODING 168
SWIDTH 600 0
DWIDTH 13 0
BBX 9 13 2 0
BITMAP
0800
1400
1400
2200
4100
4100
8080
4100
4100
2200
1400
1400
0800
ENDCHAR
STARTCHAR HeartSuit
ENCODING 169
SWIDTH 600 0
DWIDTH 13 0
BBX 11 13 1 0
BITMAP
3180
4a40
8420
8020
8020
8020
4040
4080
2080
1100
0a00
0400
0400
ENDCHAR
STARTCHAR SpadeSuit
ENCODING 170
SWIDTH 600 0
DWIDTH 13 0
BBX 11 13 1 0
BITMAP
0400
0400
0e00
1f00
3f80
7fc0
ffe0
ffe0
ffe0
ffe0
75c0
0400
0e00
ENDCHAR
STARTCHAR LRArrow
ENCODING 171
SWIDTH 790 0
DWIDTH 17 0
BBX 15 9 1 0
BITMAP
0820
1010
2008
4004
fffe
4004
2008
1010
0820
ENDCHAR
STARTCHAR LArrow
ENCODING 172
SWIDTH 720 0
DWIDTH 16 0
BBX 14 9 1 0
BITMAP
0800
1000
2000
4000
fffc
4000
2000
1000
0800
ENDCHAR
STARTCHAR UpArrow
ENCODING 173
SWIDTH 600 0
DWIDTH 13 0
BBX 9 14 2 0
BITMAP
0800
1c00
2a00
4900
8880
0800
0800
0800
0800
0800
0800
0800
0800
0800
ENDCHAR
STARTCHAR RArrow
ENCODING 174
SWIDTH 720 0
DWIDTH 16 0
BBX 14 9 1 0
BITMAP
0040
0020
0010
0008
fffc
0008
0010
0020
0040
ENDCHAR
STARTCHAR DownArrow
ENCODING 175
SWIDTH 600 0
DWIDTH 13 0
BBX 9 14 2 0
BITMAP
0800
0800
0800
0800
0800
0800
0800
0800
0800
8880
4900
2a00
1c00
0800
ENDCHAR
STARTCHAR Degree
ENCODING 176
SWIDTH 600 0
DWIDTH 13 0
BBX 7 7 3 8
BITMAP
38
6c
c6
c6
c6
6c
38
ENDCHAR
STARTCHAR PlusMinus
ENCODING 177
SWIDTH 600 0
DWIDTH 13 0
BBX 9 11 2 0
BITMAP
0800
0800
0800
0800
ff80
0800
0800
0800
0800
0000
ff80
ENDCHAR
STARTCHAR DoublePrime
ENCODING 178
SWIDTH 569 0
DWIDTH 13 0
BBX 10 7 1 1
BITMAP
1dc0
1980
3300
3300
6600
4400
cc00
ENDCHAR
STARTCHAR GreaterEqual
ENCODING 179
SWIDTH 600 0
DWIDTH 13 0
BBX 9 10 2 0
BITMAP
8000
7000
0c00
0380
0c00
7000
8000
0000
0000
ff80
ENDCHAR
STARTCHAR Multiply
ENCODING 180
SWIDTH 600 0
DWIDTH 13 0
BBX 9 9 2 0
BITMAP
8080
4100
2200
1400
0800
1400
2200
4100
8080
ENDCHAR
STARTCHAR Proportional
ENCODING 181
SWIDTH 600 0
DWIDTH 13 0
BBX 11 7 1 2
BITMAP
3ce0
6780
c300
c300
c300
6780
3ce0
ENDCHAR
STARTCHAR PartialDiff
ENCODING 182
SWIDTH 600 0
DWIDTH 13 0
BBX 11 14 1 0
BITMAP
0f80
10c0
0060
0060
1e60
3160
60e0
c060
c060
c0c0
c0c0
c180
6300
3e00
ENDCHAR
STARTCHAR Bullet
ENCODING 183
SWIDTH 600 0
DWIDTH 13 0
BBX 6 6 4 3
BITMAP
78
fc
fc
fc
fc
78
ENDCHAR
STARTCHAR Divide
ENCODING 184
SWIDTH 600 0
DWIDTH 13 0
BBX 10 9 2 0
BITMAP
0c00
0c00
0000
0000
ffc0
0000
0000
0c00
0c00
ENDCHAR
STARTCHAR NotEqual
ENCODING 185
SWIDTH 600 0
DWIDTH 13 0
BBX 9 14 2 -2
BITMAP
0200
0200
0400
0400
0400
ff80
0800
0800
0800
ff80
1000
1000
2000
2000
ENDCHAR
STARTCHAR Equivalence
ENCODING 186
SWIDTH 600 0
DWIDTH 13 0
BBX 9 7 2 1
BITMAP
ff80
0000
0000
ff80
0000
0000
ff80
ENDCHAR
STARTCHAR Approxequal
ENCODING 187
SWIDTH 600 0
DWIDTH 13 0
BBX 9 7 2 1
BITMAP
2080
5900
8600
0000
2080
5900
8600
ENDCHAR
STARTCHAR Ellipsis
ENCODING 188
SWIDTH 988 0
DWIDTH 22 0
BBX 16 2 2 0
BITMAP
c183
c183
ENDCHAR
STARTCHAR ArrowVertEx
ENCODING 189
SWIDTH 600 0
DWIDTH 13 0
BBX 1 6 6 -1
BITMAP
80
80
80
80
80
80
ENDCHAR
STARTCHAR ArrowHorizEx
ENCODING 190
SWIDTH 200 0
DWIDTH 4 0
BBX 6 1 -1 4
BITMAP
fc
ENDCHAR
STARTCHAR CarriageReturn
ENCODING 191
SWIDTH 628 0
DWIDTH 14 0
BBX 12 14 1 0
BITMAP
0010
0010
0010
0010
0010
0810
1010
2010
4010
fff0
4000
2000
1000
0800
ENDCHAR
STARTCHAR Aleph
ENCODING 192
SWIDTH 600 0
DWIDTH 13 0
BBX 10 13 1 0
BITMAP
e080
6080
3080
3080
1880
3d00
4e00
4600
4600
4300
4380
4180
41c0
ENDCHAR
STARTCHAR IFraktur
ENCODING 193
SWIDTH 270 0
DWIDTH 6 0
BBX 6 14 0 -1
BITMAP
78
cc
18
18
18
18
18
18
18
18
18
10
30
0c
ENDCHAR
STARTCHAR RFraktur
ENCODING 194
SWIDTH 587 0
DWIDTH 13 0
BBX 13 14 0 -1
BITMAP
1f80
60c0
9860
1860
18c0
1980
1fc0
18c0
1860
1860
1830
3030
1c18
0200
ENDCHAR
STARTCHAR Weierstrass
ENCODING 195
SWIDTH 600 0
DWIDTH 13 0
BBX 11 13 1 -3
BITMAP
0380
0cc0
1860
d060
f060
e060
6060
7c40
dcc0
df00
d800
d800
7000
ENDCHAR
STARTCHAR CircleMultiply
ENCODING 196
SWIDTH 600 0
DWIDTH 13 0
BBX 12 12 1 0
BITMAP
0f00
30c0
6060
50a0
8910
8610
8610
8910
50a0
6060
30c0
0f00
ENDCHAR
STARTCHAR CirclePlus
ENCODING 197
SWIDTH 600 0
DWIDTH 13 0
BBX 12 12 1 0
BITMAP
0f00
32c0
6220
4220
8210
8210
fff0
8210
8220
4220
3240
0f80
ENDCHAR
STARTCHAR EmptySet
ENCODING 198
SWIDTH 600 0
DWIDTH 13 0
BBX 11 18 1 -3
BITMAP
0080
0100
1f00
3180
62c0
6240
c260
c460
c460
c460
c860
48c0
68c0
3180
1f00
1000
2000
2000
ENDCHAR
STARTCHAR Union
ENCODING 199
SWIDTH 580 0
DWIDTH 13 0
BBX 11 16 1 0
BITMAP
8020
8020
8020
8020
8020
8020
8020
8020
8020
8020
8020
8020
8020
4040
2080
1f00
ENDCHAR
STARTCHAR Intersection
ENCODING 200
SWIDTH 580 0
DWIDTH 13 0
BBX 11 15 1 0
BITMAP
1f00
2080
4040
8020
8020
8020
8020
8020
8020
8020
8020
8020
8020
8020
8020
ENDCHAR
STARTCHAR ProperSuperset
ENCODING 201
SWIDTH 600 0
DWIDTH 13 0
BBX 9 10 2 0
BITMAP
fc00
0300
0100
0080
0080
0080
0080
0100
0300
fc00
ENDCHAR
STARTCHAR nbspace
ENCODING 202
SWIDTH 263 0
DWIDTH 6 0
BBX 0 0 0 0
BITMAP
ENDCHAR
STARTCHAR NotSubset
ENCODING 203
SWIDTH 600 0
DWIDTH 13 0
BBX 9 14 2 -2
BITMAP
0200
0200
1f80
6400
4400
8400
8400
8800
8800
4800
6800
1f80
1000
1000
ENDCHAR
STARTCHAR ProperSubset
ENCODING 204
SWIDTH 600 0
DWIDTH 13 0
BBX 9 10 2 0
BITMAP
1f80
6000
4000
8000
8000
8000
8000
4000
6000
1f80
ENDCHAR
STARTCHAR ReflexSubset
ENCODING 205
SWIDTH 600 0
DWIDTH 13 0
BBX 9 12 2 -1
BITMAP
1f80
6000
4000
8000
8000
8000
4000
6000
1f80
0000
0000
ff80
ENDCHAR
STARTCHAR Element
ENCODING 206
SWIDTH 600 0
DWIDTH 13 0
BBX 9 10 2 0
BITMAP
1f80
6000
4000
8000
ff80
8000
8000
4000
6000
1f80
ENDCHAR
STARTCHAR NotElement
ENCODING 207
SWIDTH 600 0
DWIDTH 13 0
BBX 9 14 2 -2
BITMAP
0200
0200
1f80
6400
4400
8400
8400
ff80
8800
4800
6800
1f80
1000
1000
ENDCHAR
STARTCHAR Angle
ENCODING 208
SWIDTH 600 0
DWIDTH 13 0
BBX 9 10 2 0
BITMAP
1000
1000
2000
2000
2000
4000
4000
4000
8000
ff80
ENDCHAR
STARTCHAR Gradient
ENCODING 209
SWIDTH 600 0
DWIDTH 13 0
BBX 11 12 1 0
BITMAP
ffe0
60c0
60c0
3180
3180
1b00
1b00
1b00
0e00
0e00
0400
0400
ENDCHAR
STARTCHAR RegTM
ENCODING 210
SWIDTH 600 0
DWIDTH 13 0
BBX 13 13 0 0
BITMAP
0f80
38e0
6030
7f30
c898
c898
cf18
c918
c898
7cf0
6030
38e0
0f80
ENDCHAR
STARTCHAR Copyright
ENCODING 211
SWIDTH 600 0
DWIDTH 13 0
BBX 13 13 0 0
BITMAP
0f80
38e0
6030
66b0
cd98
c898
c818
c818
cc98
6730
6030
38e0
0f80
ENDCHAR
STARTCHAR TM
ENCODING 212
SWIDTH 600 0
DWIDTH 13 0
BBX 13 7 0 6
BITMAP
fb38
a9b0
21d0
21d0
2150
2110
73b8
ENDCHAR
STARTCHAR Product
ENCODING 213
SWIDTH 631 0
DWIDTH 14 0
BBX 13 16 1 0
BITMAP
fff8
2020
2020
2020
2020
2020
2020
2020
2020
2020
2020
2020
2020
2020
2020
f078
ENDCHAR
STARTCHAR Radical
ENCODING 214
SWIDTH 600 0
DWIDTH 13 0
BBX 13 21 0 -3
BITMAP
0018
0018
0030
0030
0030
0070
0060
0060
0060
20e0
70c0
f0c0
98c0
1980
0d80
0d80
0f80
0700
0700
0300
0300
ENDCHAR
STARTCHAR DotMath
ENCODING 215
SWIDTH 600 0
DWIDTH 13 0
BBX 3 3 5 3
BITMAP
e0
e0
e0
ENDCHAR
STARTCHAR LogicalNot
ENCODING 216
SWIDTH 600 0
DWIDTH 13 0
BBX 9 5 2 2
BITMAP
ff80
0080
0080
0080
0080
ENDCHAR
STARTCHAR Wedge
ENCODING 217
SWIDTH 600 0
DWIDTH 13 0
BBX 11 13 1 0
BITMAP
0400
0a00
0a00
0a00
1100
1100
3180
2080
2080
4040
4040
4040
8020
ENDCHAR
STARTCHAR Vee
ENCODING 218
SWIDTH 600 0
DWIDTH 13 0
BBX 11 13 1 0
BITMAP
8020
4040
4040
4040
2080
2080
3180
1100
1100
0a00
0a00
0a00
0400
ENDCHAR
STARTCHAR DblLRArrow
ENCODING 219
SWIDTH 790 0
DWIDTH 17 0
BBX 15 9 1 0
BITMAP
0820
1010
3ff8
4004
8002
4004
3ff8
1010
0820
ENDCHAR
STARTCHAR DblLArrow
ENCODING 220
SWIDTH 720 0
DWIDTH 16 0
BBX 14 9 1 0
BITMAP
0800
1000
3ffc
4000
8000
4000
3ffc
1000
0800
ENDCHAR
STARTCHAR DblUpArrow
ENCODING 221
SWIDTH 600 0
DWIDTH 13 0
BBX 9 14 2 0
BITMAP
0800
1400
2200
6300
a280
2200
2200
2200
2200
2200
2200
2200
2200
2200
ENDCHAR
STARTCHAR DblRArrow
ENCODING 222
SWIDTH 720 0
DWIDTH 16 0
BBX 14 9 1 0
BITMAP
0040
0020
fff0
0008
0004
0008
fff0
0020
0040
ENDCHAR
STARTCHAR DblDownArrow
ENCODING 223
SWIDTH 600 0
DWIDTH 13 0
BBX 9 14 2 0
BITMAP
2200
2200
2200
2200
2200
2200
2200
2200
2200
a280
6300
2200
1400
0800
ENDCHAR
STARTCHAR Lozenge
ENCODING 224
SWIDTH 600 0
DWIDTH 13 0
BBX 9 13 2 0
BITMAP
0800
1400
1400
2200
4100
4100
8080
4100
4100
2200
1400
1400
0800
ENDCHAR
STARTCHAR LAngle
ENCODING 225
SWIDTH 600 0
DWIDTH 13 0
BBX 6 16 4 -2
BITMAP
04
08
18
10
20
20
40
80
80
40
20
20
10
18
08
04
ENDCHAR
STARTCHAR Diffd
ENCODING 226
SWIDTH 598 0
DWIDTH 13 0
BBX 13 14 1 0
BITMAP
07f0
01b0
01b0
01b0
3db0
63b0
c1b0
c1b0
c1b0
c1b0
c1b0
c1b0
63b0
3df8
ENDCHAR
STARTCHAR Expe
ENCODING 227
SWIDTH 600 0
DWIDTH 13 0
BBX 10 10 2 0
BITMAP
1e00
7d80
68c0
d8c0
dfc0
d800
d800
6800
7cc0
1f00
ENDCHAR
STARTCHAR Imagi
ENCODING 228
SWIDTH 600 0
DWIDTH 13 0
BBX 11 14 2 0
BITMAP
0c00
0c00
0000
0000
7f00
1b00
1b00
1b00
1b00
1b00
1b00
1b00
1b00
ffe0
ENDCHAR
STARTCHAR Sum
ENCODING 229
SWIDTH 602 0
DWIDTH 13 0
BBX 11 16 1 0
BITMAP
7fc0
70c0
38c0
1800
1c00
0c00
0600
0700
0700
0e00
0c00
1800
3860
7060
6060
ffe0
ENDCHAR
STARTCHAR LParenTop
ENCODING 230
SWIDTH 600 0
DWIDTH 13 0
BBX 5 19 6 -2
BITMAP
08
10
10
30
20
20
60
60
40
40
c0
c0
c0
c0
c0
c0
c0
c0
c0
ENDCHAR
STARTCHAR LParenEx
ENCODING 231
SWIDTH 600 0
DWIDTH 13 0
BBX 2 8 6 -1
BITMAP
c0
c0
c0
c0
c0
c0
c0
c0
ENDCHAR
STARTCHAR LParenBot
ENCODING 232
SWIDTH 600 0
DWIDTH 13 0
BBX 5 19 6 0
BITMAP
c0
c0
c0
c0
c0
c0
c0
c0
c0
40
40
60
60
20
20
30
10
10
08
ENDCHAR
STARTCHAR LBracketTop
ENCODING 233
SWIDTH 600 0
DWIDTH 13 0
BBX 5 4 6 -1
BITMAP
f8
f8
c0
c0
ENDCHAR
STARTCHAR LBracketEx
ENCODING 234
SWIDTH 600 0
DWIDTH 13 0
BBX 2 8 6 -1
BITMAP
c0
c0
c0
c0
c0
c0
c0
c0
ENDCHAR
STARTCHAR LBracketBot
ENCODING 235
SWIDTH 600 0
DWIDTH 13 0
BBX 5 4 6 0
BITMAP
c0
c0
f8
f8
ENDCHAR
STARTCHAR LBraceTop
ENCODING 236
SWIDTH 600 0
DWIDTH 13 0
BBX 6 15 6 -1
BITMAP
1c
7c
70
e0
c0
c0
c0
c0
c0
c0
c0
c0
c0
c0
c0
ENDCHAR
STARTCHAR LBraceMid
ENCODING 237
SWIDTH 600 0
DWIDTH 13 0
BBX 7 17 1 -4
BITMAP
06
06
06
06
06
0c
18
30
c0
70
18
0c
06
06
06
06
06
ENDCHAR
STARTCHAR LBraceBot
ENCODING 238
SWIDTH 600 0
DWIDTH 13 0
BBX 6 15 6 0
BITMAP
c0
c0
c0
c0
c0
c0
c0
c0
c0
c0
c0
e0
70
7c
1c
ENDCHAR
STARTCHAR BraceEx
ENCODING 239
SWIDTH 600 0
DWIDTH 13 0
BBX 2 8 6 -1
BITMAP
c0
c0
c0
c0
c0
c0
c0
c0
ENDCHAR
STARTCHAR Slot
ENCODING 240
SWIDTH 600 0
DWIDTH 13 0
BBX 12 13 1 0
BITMAP
30c0
30c0
fff0
30c0
30c0
30c0
30c0
30c0
30c0
30c0
fff0
30c0
30c0
ENDCHAR
STARTCHAR RAngle
ENCODING 241
SWIDTH 600 0
DWIDTH 13 0
BBX 6 16 3 -2
BITMAP
80
40
40
20
10
10
08
0c
0c
08
10
10
20
40
40
80
ENDCHAR
STARTCHAR Intergral
ENCODING 242
SWIDTH 590 0
DWIDTH 13 0
BBX 12 23 1 -4
BITMAP
01e0
0310
0700
0600
0600
0600
0600
0600
0600
0600
0600
0600
0600
0600
0600
0600
0600
0600
0600
0600
0c00
8c00
7800
ENDCHAR
STARTCHAR IntegralTop
ENCODING 243
SWIDTH 796 0
DWIDTH 18 0
BBX 14 23 2 -4
BITMAP
000c
000c
000c
000c
000c
000c
000c
000c
000c
000c
000c
000c
000c
000c
0018
0018
0018
0010
0030
0060
8060
61c0
1f00
ENDCHAR
STARTCHAR IntegralEx
ENCODING 244
SWIDTH 796 0
DWIDTH 18 0
BBX 2 17 14 0
BITMAP
c0
c0
c0
c0
c0
c0
c0
c0
c0
c0
c0
c0
c0
c0
c0
c0
c0
ENDCHAR
STARTCHAR IntegralBot
ENCODING 245
SWIDTH 796 0
DWIDTH 18 0
BBX 15 22 14 -3
BITMAP
03f0
0e0c
1802
3800
3000
6000
6000
6000
c000
c000
c000
c000
c000
c000
c000
c000
c000
c000
c000
c000
c000
c000
ENDCHAR
STARTCHAR RParenTop
ENCODING 246
SWIDTH 600 0
DWIDTH 13 0
BBX 5 19 2 -2
BITMAP
80
40
40
60
20
20
30
30
10
10
18
18
18
18
18
18
18
18
18
ENDCHAR
STARTCHAR RParenEx
ENCODING 247
SWIDTH 600 0
DWIDTH 13 0
BBX 2 8 5 -1
BITMAP
c0
c0
c0
c0
c0
c0
c0
c0
ENDCHAR
STARTCHAR RParenBot
ENCODING 248
SWIDTH 600 0
DWIDTH 13 0
BBX 4 19 3 0
BITMAP
30
30
30
30
30
30
30
30
30
30
20
20
60
60
40
40
40
80
80
ENDCHAR
STARTCHAR RBracketTop
ENCODING 249
SWIDTH 600 0
DWIDTH 13 0
BBX 5 4 2 -1
BITMAP
f8
f8
18
18
ENDCHAR
STARTCHAR RBracketEx
ENCODING 250
SWIDTH 600 0
DWIDTH 13 0
BBX 2 8 5 -1
BITMAP
c0
c0
c0
c0
c0
c0
c0
c0
ENDCHAR
STARTCHAR RBracketBot
ENCODING 251
SWIDTH 600 0
DWIDTH 13 0
BBX 5 4 2 0
BITMAP
18
18
f8
f8
ENDCHAR
STARTCHAR RBraceTop
ENCODING 252
SWIDTH 600 0
DWIDTH 13 0
BBX 6 15 2 -1
BITMAP
e0
f0
38
1c
0c
0c
0c
0c
0c
0c
0c
0c
0c
0c
0c
ENDCHAR
STARTCHAR RBraceMid
ENCODING 253
SWIDTH 600 0
DWIDTH 13 0
BBX 7 17 6 -4
BITMAP
c0
c0
c0
c0
c0
60
30
18
06
1c
30
60
c0
c0
c0
c0
c0
ENDCHAR
STARTCHAR RBraceBot
ENCODING 254
SWIDTH 600 0
DWIDTH 13 0
BBX 6 15 2 0
BITMAP
0c
0c
0c
0c
0c
0c
0c
0c
0c
0c
0c
1c
38
f0
e0
ENDCHAR
STARTCHAR Wolf
ENCODING 255
SWIDTH 835 0
DWIDTH 18 0
BBX 17 17 0 -4
BITMAP
011000
033000
02d000
049000
049000
046000
042000
081000
08e800
100400
100200
27c100
20bf80
208000
410000
410000
810000
ENDCHAR
ENDFONT
