STARTFONT 2.1
FONT -WRI-Mathematica4-Bold-R-Normal--28-280-75-75-p-210-Adobe-FontSpecific
SIZE 28 75 75
FONTBOUNDINGBOX 74 35 -2 -8
STARTPROPERTIES 16
FOUNDRY "WRI"
FAMILY_NAME "Mathematica4"
WEIGHT_NAME "Bold"
SLANT "R"
SETWIDTH_NAME "Normal"
PIXEL_SIZE 28
POINT_SIZE 280
RESOLUTION_X 75
RESOLUTION_Y 75
SPACING "p"
AVERAGE_WIDTH 210
CHARSET_REGISTRY "Adobe"
CHARSET_ENCODING "FontSpecific"
FONT_DESCENT 8
FONT_ASCENT 27
DEFAULT_CHAR 32
ENDPROPERTIES
CHARS 224
STARTCHAR Space
ENCODING 32
SWIDTH 189 0
DWIDTH 5 0
BBX 0 0 0 0
BITMAP
ENDCHAR
STARTCHAR RArrowBar
ENCODING 33
SWIDTH 962 0
DWIDTH 27 0
BBX 23 14 2 0
BITMAP
00040e
000e0e
00070e
00038e
0001ce
ffffee
fffffe
ffffee
0001ce
0003ce
00078e
000f0e
00060e
000200
ENDCHAR
STARTCHAR LTackArrow
ENCODING 34
SWIDTH 922 0
DWIDTH 26 0
BBX 22 14 2 0
BITMAP
04001c
0e001c
1e001c
1c001c
38001c
7ffffc
fffffc
7ffffc
78001c
3c001c
1e001c
0e001c
06001c
040000
ENDCHAR
STARTCHAR RTackArrow
ENCODING 35
SWIDTH 922 0
DWIDTH 26 0
BBX 22 14 2 0
BITMAP
e00080
e001c0
e001e0
e000e0
e00070
fffff8
fffffc
fffff8
e00078
e000f0
e001e0
e001c0
e00180
000080
ENDCHAR
STARTCHAR UpArrowBar
ENCODING 36
SWIDTH 590 0
DWIDTH 17 0
BBX 11 23 3 0
BITMAP
ffe0
ffe0
ffe0
0400
0e00
1f00
3f80
7fc0
eee0
ce60
4e20
0e00
0e00
0e00
0e00
0e00
0e00
0e00
0e00
0e00
0e00
0e00
0e00
ENDCHAR
STARTCHAR DownArrowBar
ENCODING 37
SWIDTH 590 0
DWIDTH 17 0
BBX 11 23 3 0
BITMAP
0e00
0e00
0e00
0e00
0e00
0e00
0e00
0e00
0e00
0e00
0e00
0e00
4e20
ce60
eee0
7fc0
3f80
1f00
0e00
0400
ffe0
ffe0
ffe0
ENDCHAR
STARTCHAR UpTackArrow
ENCODING 38
SWIDTH 591 0
DWIDTH 17 0
BBX 11 22 3 0
BITMAP
0400
0e00
1f00
3f80
7fc0
eee0
ce60
4e20
0e00
0e00
0e00
0e00
0e00
0e00
0e00
0e00
0e00
0e00
0e00
ffe0
ffe0
ffe0
ENDCHAR
STARTCHAR DownTackArrow
ENCODING 39
SWIDTH 591 0
DWIDTH 17 0
BBX 11 21 3 0
BITMAP
ffe0
ffe0
ffe0
0e00
0e00
0e00
0e00
0e00
0e00
0e00
0e00
0e00
0e00
0e00
4e40
eee0
7fc0
3f80
1f00
0e00
0400
ENDCHAR
STARTCHAR LVectorBar
ENCODING 40
SWIDTH 982 0
DWIDTH 27 0
BBX 24 13 2 1
BITMAP
e02000
e07000
e0e000
e1c000
e3c000
e7ffff
efffff
ffffff
e00000
e00000
e00000
e00000
e00000
ENDCHAR
STARTCHAR RVectorBar
ENCODING 41
SWIDTH 982 0
DWIDTH 27 0
BBX 24 13 2 1
BITMAP
000407
000e07
000707
000387
0003c7
ffffe7
fffff7
ffffff
000007
000007
000007
000007
000007
ENDCHAR
STARTCHAR DownLVectorBar
ENCODING 42
SWIDTH 982 0
DWIDTH 27 0
BBX 24 13 2 0
BITMAP
e00000
e00000
e00000
e00000
e00000
ffffff
efffff
e7ffff
e3c000
e1c000
e0e000
e07000
e02000
ENDCHAR
STARTCHAR DownRVectorBar
ENCODING 43
SWIDTH 982 0
DWIDTH 27 0
BBX 24 13 2 0
BITMAP
000007
000007
000007
000007
000007
ffffff
fffff7
ffffe7
0003c7
000387
000707
000e07
000407
ENDCHAR
STARTCHAR LTackVector
ENCODING 44
SWIDTH 941 0
DWIDTH 26 0
BBX 23 13 2 1
BITMAP
01000e
03800e
07000e
0e000e
1c000e
3ffffe
7ffffe
fffffe
00000e
00000e
00000e
00000e
00000e
ENDCHAR
STARTCHAR RTackVector
ENCODING 45
SWIDTH 941 0
DWIDTH 26 0
BBX 22 13 2 1
BITMAP
e00100
e00380
e00380
e001c0
e000e0
fffff0
fffff8
fffffc
e00000
e00000
e00000
e00000
e00000
ENDCHAR
STARTCHAR DownLTackVector
ENCODING 46
SWIDTH 941 0
DWIDTH 26 0
BBX 23 13 2 0
BITMAP
00000e
00000e
00000e
00000e
00000e
fffffe
7ffffe
3ffffe
1c000e
0e000e
07000e
03800e
01000e
ENDCHAR
STARTCHAR DownRTackVector
ENCODING 47
SWIDTH 941 0
DWIDTH 26 0
BBX 22 13 2 0
BITMAP
e00000
e00000
e00000
e00000
e00000
fffffc
fffff8
fffff0
e000e0
e001c0
e00380
e00380
e00100
ENDCHAR
STARTCHAR LVector
ENCODING 48
SWIDTH 887 0
DWIDTH 25 0
BBX 21 8 2 6
BITMAP
010000
038000
070000
0e0000
1c0000
3ffff8
7ffff8
fffff8
ENDCHAR
STARTCHAR RVector
ENCODING 49
SWIDTH 887 0
DWIDTH 25 0
BBX 21 8 2 6
BITMAP
000400
000e00
000700
000380
0001c0
ffffe0
fffff0
fffff8
ENDCHAR
STARTCHAR LRVector
ENCODING 50
SWIDTH 1068 0
DWIDTH 30 0
BBX 26 8 2 6
BITMAP
01002000
03807000
07003800
0e001c00
1c000e00
3fffff00
7fffff80
ffffffc0
ENDCHAR
STARTCHAR DownLVector
ENCODING 51
SWIDTH 887 0
DWIDTH 25 0
BBX 21 8 2 0
BITMAP
fffff8
7ffff8
3ffff8
1c0000
0e0000
070000
038000
010000
ENDCHAR
STARTCHAR DownRVector
ENCODING 52
SWIDTH 887 0
DWIDTH 25 0
BBX 21 8 2 0
BITMAP
fffff8
fffff0
ffffe0
0001c0
000380
000700
000e00
000400
ENDCHAR
STARTCHAR DownLRVector
ENCODING 53
SWIDTH 1068 0
DWIDTH 30 0
BBX 26 9 2 0
BITMAP
ffffffc0
7fffff80
3fffff00
1c000e00
0e001c00
0f003c00
07007800
03807000
01002000
ENDCHAR
STARTCHAR LUpDownVector
ENCODING 54
SWIDTH 422 0
DWIDTH 12 0
BBX 8 27 2 0
BITMAP
01
03
07
0f
1f
3f
7f
f7
47
07
07
07
07
07
07
07
07
07
47
f7
7f
3f
1f
0f
07
03
01
ENDCHAR
STARTCHAR RUpDownVector
ENCODING 55
SWIDTH 422 0
DWIDTH 12 0
BBX 7 27 2 0
BITMAP
80
80
c0
e0
f0
f8
fc
ee
e6
e0
e0
e0
e0
e0
e0
e0
e0
e0
e6
ee
fc
f8
f0
e0
c0
80
80
ENDCHAR
STARTCHAR LUpVectorBar
ENCODING 56
SWIDTH 590 0
DWIDTH 17 0
BBX 11 24 3 0
BITMAP
ffe0
ffe0
ffe0
0100
0200
0600
0e00
1e00
3e00
7e00
ee00
4e00
0e00
0e00
0e00
0e00
0e00
0e00
0e00
0e00
0e00
0e00
0e00
0e00
ENDCHAR
STARTCHAR LDownVectorBar
ENCODING 57
SWIDTH 590 0
DWIDTH 17 0
BBX 11 24 3 0
BITMAP
0e00
0e00
0e00
0e00
0e00
0e00
0e00
0e00
0e00
0e00
0e00
0e00
4e00
ee00
7e00
3e00
1e00
0e00
0600
0200
0100
ffe0
ffe0
ffe0
ENDCHAR
STARTCHAR RUpVectorBar
ENCODING 58
SWIDTH 590 0
DWIDTH 17 0
BBX 11 24 3 0
BITMAP
ffe0
ffe0
ffe0
0800
0800
0c00
0e00
0f00
0f80
0fc0
0ee0
0e40
0e00
0e00
0e00
0e00
0e00
0e00
0e00
0e00
0e00
0e00
0e00
0e00
ENDCHAR
STARTCHAR RDownVectorBar
ENCODING 59
SWIDTH 590 0
DWIDTH 17 0
BBX 11 24 3 0
BITMAP
0e00
0e00
0e00
0e00
0e00
0e00
0e00
0e00
0e00
0e00
0e00
0e00
0e40
0ee0
0fc0
0f80
0f00
0e00
0c00
0800
0800
ffe0
ffe0
ffe0
ENDCHAR
STARTCHAR LUpTackVector
ENCODING 60
SWIDTH 590 0
DWIDTH 17 0
BBX 11 23 3 0
BITMAP
0100
0200
0600
0e00
1e00
3e00
7e00
ee00
4e00
0e00
0e00
0e00
0e00
0e00
0e00
0e00
0e00
0e00
0e00
0e00
ffe0
ffe0
ffe0
ENDCHAR
STARTCHAR LDownTackVector
ENCODING 61
SWIDTH 590 0
DWIDTH 17 0
BBX 11 23 3 0
BITMAP
ffe0
ffe0
ffe0
0e00
0e00
0e00
0e00
0e00
0e00
0e00
0e00
0e00
0e00
0e00
4e00
ee00
7e00
3e00
1e00
0e00
0600
0200
0100
ENDCHAR
STARTCHAR RUpTackVector
ENCODING 62
SWIDTH 590 0
DWIDTH 17 0
BBX 11 23 3 0
BITMAP
0800
0800
0c00
0e00
0f00
0f80
0fc0
0ee0
0e40
0e00
0e00
0e00
0e00
0e00
0e00
0e00
0e00
0e00
0e00
0e00
ffe0
ffe0
ffe0
ENDCHAR
STARTCHAR RDownTackVector
ENCODING 63
SWIDTH 590 0
DWIDTH 17 0
BBX 11 23 3 0
BITMAP
ffe0
ffe0
ffe0
0e00
0e00
0e00
0e00
0e00
0e00
0e00
0e00
0e00
0e00
0e00
0e40
0ee0
0fc0
0f80
0f00
0e00
0c00
0800
0800
ENDCHAR
STARTCHAR LUpVector
ENCODING 64
SWIDTH 421 0
DWIDTH 12 0
BBX 8 21 2 0
BITMAP
01
03
07
0f
1f
3f
77
e7
47
07
07
07
07
07
07
07
07
07
07
07
07
ENDCHAR
STARTCHAR ExtensUp1
ENCODING 65
SWIDTH 590 0
DWIDTH 17 0
BBX 3 10 7 0
BITMAP
e0
e0
e0
e0
e0
e0
e0
e0
e0
e0
ENDCHAR
STARTCHAR LDownVector
ENCODING 66
SWIDTH 421 0
DWIDTH 12 0
BBX 8 21 2 0
BITMAP
07
07
07
07
07
07
07
07
07
07
07
07
47
e7
77
3f
1f
0f
07
03
01
ENDCHAR
STARTCHAR RUpVector
ENCODING 67
SWIDTH 422 0
DWIDTH 12 0
BBX 7 21 2 0
BITMAP
80
c0
e0
f0
f8
fc
fe
e6
e2
e0
e0
e0
e0
e0
e0
e0
e0
e0
e0
e0
e0
ENDCHAR
STARTCHAR ExtensUp2
ENCODING 68
SWIDTH 422 0
DWIDTH 12 0
BBX 3 10 2 0
BITMAP
e0
e0
e0
e0
e0
e0
e0
e0
e0
e0
ENDCHAR
STARTCHAR RDownVector
ENCODING 69
SWIDTH 422 0
DWIDTH 12 0
BBX 7 21 2 0
BITMAP
e0
e0
e0
e0
e0
e0
e0
e0
e0
e0
e0
e0
e2
e6
fe
fc
f8
f0
e0
c0
80
ENDCHAR
STARTCHAR Equilibrium
ENCODING 70
SWIDTH 903 0
DWIDTH 25 0
BBX 21 20 2 -3
BITMAP
000400
000e00
000700
000380
0001c0
ffffe0
fffff0
fffff8
000000
000000
000000
000000
fffff8
7ffff8
3ffff8
1c0000
0e0000
070000
038000
010000
ENDCHAR
STARTCHAR RvrsEquilibrium
ENCODING 71
SWIDTH 903 0
DWIDTH 25 0
BBX 21 20 2 -3
BITMAP
010000
038000
070000
0e0000
1c0000
3ffff8
7ffff8
fffff8
000000
000000
000000
000000
fffff8
fffff0
ffffe0
0001c0
000380
000700
000e00
000400
ENDCHAR
STARTCHAR EquilbrmHeadL
ENCODING 72
SWIDTH 388 0
DWIDTH 11 0
BBX 9 15 2 -3
BITMAP
ff80
ff80
ff80
0000
0000
0000
0000
ff80
7f80
3f80
1c00
0e00
0700
0380
0100
ENDCHAR
STARTCHAR EquilbrmheadR
ENCODING 73
SWIDTH 388 0
DWIDTH 11 0
BBX 9 15 0 2
BITMAP
4000
e000
7000
3800
1c00
fe00
ff00
ff80
0000
0000
0000
0000
ff80
ff80
ff80
ENDCHAR
STARTCHAR RvrsEquilbrmHeadL
ENCODING 74
SWIDTH 388 0
DWIDTH 11 0
BBX 9 15 2 2
BITMAP
0100
0380
0700
0e00
1c00
3f80
7f80
ff80
0000
0000
0000
0000
ff80
ff80
ff80
ENDCHAR
STARTCHAR RvrsEquilbrmHeadR
ENCODING 75
SWIDTH 388 0
DWIDTH 11 0
BBX 9 15 0 -3
BITMAP
ff80
ff80
ff80
0000
0000
0000
0000
ff80
ff00
fe00
1c00
3800
7000
e000
4000
ENDCHAR
STARTCHAR UpEquilibrium
ENCODING 76
SWIDTH 833 0
DWIDTH 23 0
BBX 19 21 2 0
BITMAP
010000
031c00
071c00
0f1c00
1f1c00
3f1c00
771c00
e71c00
471c00
071c00
071c00
071c00
071c40
071ce0
071dc0
071f80
071f00
071e00
071c00
071800
001000
ENDCHAR
STARTCHAR RvrsUpEquilibrium
ENCODING 77
SWIDTH 834 0
DWIDTH 23 0
BBX 19 21 2 0
BITMAP
001000
071800
071c00
071e00
071f00
071f80
071dc0
071ce0
071c40
071c00
071c00
071c00
471c00
e71c00
771c00
3f1c00
1f1c00
0f1c00
071c00
031c00
010000
ENDCHAR
STARTCHAR LArrowHookUp
ENCODING 78
SWIDTH 870 0
DWIDTH 24 0
BBX 21 14 2 0
BITMAP
0001c0
0601f0
0f01f8
1e0078
380078
7ffff8
fffff0
7fffc0
780000
3c0000
1e0000
0e0000
070000
020000
ENDCHAR
STARTCHAR RArrowHookUp
ENCODING 79
SWIDTH 870 0
DWIDTH 24 0
BBX 20 14 2 0
BITMAP
3c0000
7c0600
f00700
e00380
f001c0
ffffe0
7ffff0
1ffff0
0001e0
0001c0
000380
000700
000700
000200
ENDCHAR
STARTCHAR LArrow
ENCODING 80
SWIDTH 870 0
DWIDTH 24 0
BBX 20 14 2 0
BITMAP
040000
0e0000
0e0000
1c0000
380000
7ffff0
fffff0
7ffff0
780000
3c0000
1c0000
0e0000
060000
040000
ENDCHAR
STARTCHAR Extens
ENCODING 81
SWIDTH 364 0
DWIDTH 10 0
BBX 10 3 0 6
BITMAP
ffc0
ffc0
ffc0
ENDCHAR
STARTCHAR LeftTackBase
ENCODING 82
SWIDTH 246 0
DWIDTH 7 0
BBX 5 13 0 0
BITMAP
38
38
38
38
38
f8
f8
f8
38
38
38
38
38
ENDCHAR
STARTCHAR RightTackBase
ENCODING 83
SWIDTH 246 0
DWIDTH 7 0
BBX 5 13 2 0
BITMAP
e0
e0
e0
e0
e0
f8
f8
f8
e0
e0
e0
e0
e0
ENDCHAR
STARTCHAR RArrow
ENCODING 84
SWIDTH 870 0
DWIDTH 24 0
BBX 20 14 2 0
BITMAP
000200
000700
000700
000380
0001c0
ffffe0
fffff0
ffffe0
0001e0
0003c0
000380
000700
000600
000200
ENDCHAR
STARTCHAR RUpVector2
ENCODING 85
SWIDTH 590 0
DWIDTH 17 0
BBX 7 21 7 0
BITMAP
80
c0
e0
f0
f8
fc
fe
e6
e2
e0
e0
e0
e0
e0
e0
e0
e0
e0
e0
e0
e0
ENDCHAR
STARTCHAR RArrowLArrow
ENCODING 86
SWIDTH 861 0
DWIDTH 24 0
BBX 20 17 2 -1
BITMAP
000100
000380
0003c0
0001c0
ffffe0
fffff0
ffffe0
0401c0
0c0380
1c0300
380100
7ffff0
fffff0
7ffff0
380000
1c0000
080000
ENDCHAR
STARTCHAR LArrowRArrow
ENCODING 87
SWIDTH 861 0
DWIDTH 24 0
BBX 20 17 2 -1
BITMAP
080000
1c0000
3c0000
380000
7ffff0
fffff0
7ffff0
380100
1c0300
0c0380
0401c0
ffffe0
fffff0
ffffe0
0001c0
000380
000100
ENDCHAR
STARTCHAR RArrowLArrowHeadL
ENCODING 88
SWIDTH 297 0
DWIDTH 8 0
BBX 6 13 2 -1
BITMAP
fc
fc
fc
08
18
3c
78
7c
fc
7c
38
1c
08
ENDCHAR
STARTCHAR RArrowLArrowHeadR
ENCODING 89
SWIDTH 297 0
DWIDTH 8 0
BBX 6 14 0 2
BITMAP
40
e0
70
78
fc
fc
f8
78
f0
60
20
fc
fc
fc
ENDCHAR
STARTCHAR LArrowRArrowHeadL
ENCODING 90
SWIDTH 297 0
DWIDTH 8 0
BBX 6 14 2 2
BITMAP
08
1c
38
78
fc
fc
7c
78
3c
18
08
fc
fc
fc
ENDCHAR
STARTCHAR LArrowRArrowHeadR
ENCODING 91
SWIDTH 297 0
DWIDTH 8 0
BBX 6 13 0 -1
BITMAP
fc
fc
fc
20
60
f0
78
f8
fc
f8
70
e0
40
ENDCHAR
STARTCHAR UpArrowDownArrow
ENCODING 92
SWIDTH 720 0
DWIDTH 20 0
BBX 17 21 2 0
BITMAP
083800
1c3800
3e3800
7f3800
ffb800
ddb800
5cb800
1c3800
1c3800
1c3800
1c3800
1c3800
1c3800
1c3800
1cb900
1dbb00
1dff80
1cfe00
1c7c00
1c3800
1c1000
ENDCHAR
STARTCHAR DownArrowUpArrow
ENCODING 93
SWIDTH 720 0
DWIDTH 20 0
BBX 17 21 2 0
BITMAP
1c1000
1c3800
1c7c00
1cfe00
1dff80
1dbb00
1cb900
1c3800
1c3800
1c3800
1c3800
1c3800
1c3800
1c3800
5cb800
ddb800
ffb800
7f3800
3e3800
1c3800
083800
ENDCHAR
STARTCHAR VertExt1
ENCODING 94
SWIDTH 87 0
DWIDTH 2 0
BBX 3 6 0 0
BITMAP
e0
e0
e0
e0
e0
e0
ENDCHAR
STARTCHAR HorizExt1
ENCODING 95
SWIDTH 200 0
DWIDTH 6 0
BBX 5 3 0 0
BITMAP
f8
f8
f8
ENDCHAR
STARTCHAR UpArrow
ENCODING 96
SWIDTH 590 0
DWIDTH 17 0
BBX 13 21 2 0
BITMAP
0200
0700
0f80
1fc0
3fe0
7770
e738
4710
0700
0700
0700
0700
0700
0700
0700
0700
0700
0700
0700
0700
0700
ENDCHAR
STARTCHAR UpTackBase
ENCODING 97
SWIDTH 590 0
DWIDTH 17 0
BBX 11 5 3 0
BITMAP
0e00
0e00
ffe0
ffe0
ffe0
ENDCHAR
STARTCHAR DownTackBase
ENCODING 98
SWIDTH 590 0
DWIDTH 17 0
BBX 11 5 3 0
BITMAP
ffe0
ffe0
ffe0
0e00
0e00
ENDCHAR
STARTCHAR DownArrow
ENCODING 99
SWIDTH 590 0
DWIDTH 17 0
BBX 13 21 2 0
BITMAP
0700
0700
0700
0700
0700
0700
0700
0700
0700
0700
0700
0700
0700
4710
e738
7770
3fe0
1fc0
0f80
0700
0200
ENDCHAR
STARTCHAR RDownVector2
ENCODING 100
SWIDTH 590 0
DWIDTH 17 0
BBX 7 21 7 0
BITMAP
e0
e0
e0
e0
e0
e0
e0
e0
e0
e0
e0
e0
e2
e6
fe
fc
f8
f0
e0
c0
80
ENDCHAR
STARTCHAR UpEquilbrmHeadBttm
ENCODING 101
SWIDTH 713 0
DWIDTH 20 0
BBX 14 9 4 -1
BITMAP
e388
e39c
e3b8
e3f0
e3e0
e380
e300
e200
e000
ENDCHAR
STARTCHAR DblUpExtens2
ENCODING 102
SWIDTH 713 0
DWIDTH 20 0
BBX 9 10 4 0
BITMAP
e380
e380
e380
e380
e380
e380
e380
e380
e380
e380
ENDCHAR
STARTCHAR RvrsUpEquilHdTop
ENCODING 103
SWIDTH 713 0
DWIDTH 20 0
BBX 14 9 4 0
BITMAP
0200
e300
e380
e3c0
e3e0
e3f0
e3f8
e39c
e388
ENDCHAR
STARTCHAR UpEquilbrmHeadTop
ENCODING 104
SWIDTH 726 0
DWIDTH 20 0
BBX 15 9 0 0
BITMAP
0100
030e
070e
0f0e
1f0e
3f0e
7f0e
e70e
470e
ENDCHAR
STARTCHAR DblUpExtens1
ENCODING 105
SWIDTH 726 0
DWIDTH 20 0
BBX 10 10 5 0
BITMAP
e1c0
e1c0
e1c0
e1c0
e1c0
e1c0
e1c0
e1c0
e1c0
e1c0
ENDCHAR
STARTCHAR RvrsUpEquilibrmHdBttm
ENCODING 106
SWIDTH 727 0
DWIDTH 20 0
BBX 15 9 0 -1
BITMAP
470e
e70e
770e
3f0e
1f0e
070e
030e
010e
000e
ENDCHAR
STARTCHAR UpArrwDwnArrwBttm
ENCODING 107
SWIDTH 726 0
DWIDTH 20 0
BBX 14 6 5 0
BITMAP
e5c8
fffc
eff8
e3f0
e1c0
e080
ENDCHAR
STARTCHAR DwnArrwUpArrwTop
ENCODING 108
SWIDTH 726 0
DWIDTH 20 0
BBX 14 7 5 0
BITMAP
0080
e1c0
e3e0
e7f0
eff8
effc
e5c8
ENDCHAR
STARTCHAR UpArrwDwnArrwTop
ENCODING 109
SWIDTH 726 0
DWIDTH 20 0
BBX 13 7 2 0
BITMAP
0800
1c38
3e38
7f38
ffb8
ffb8
5d38
ENDCHAR
STARTCHAR DwnArrwUpArrwBttm
ENCODING 110
SWIDTH 726 0
DWIDTH 20 0
BBX 13 6 2 0
BITMAP
5d38
fff8
7fb8
3e38
1c38
0838
ENDCHAR
STARTCHAR DblExtens
ENCODING 111
SWIDTH 364 0
DWIDTH 10 0
BBX 10 10 0 2
BITMAP
ffc0
ffc0
ffc0
0000
0000
0000
0000
ffc0
ffc0
ffc0
ENDCHAR
STARTCHAR OverBracket1
ENCODING 112
SWIDTH 800 0
DWIDTH 22 0
BBX 22 5 0 0
BITMAP
fffffc
fffffc
fffffc
800004
800004
ENDCHAR
STARTCHAR OverBracket2
ENCODING 113
SWIDTH 1050 0
DWIDTH 29 0
BBX 29 5 0 0
BITMAP
fffffff8
fffffff8
fffffff8
80000008
80000008
ENDCHAR
STARTCHAR OverBracket3
ENCODING 114
SWIDTH 1400 0
DWIDTH 39 0
BBX 39 5 0 0
BITMAP
fffffffffe
fffffffffe
fffffffffe
8000000002
8000000002
ENDCHAR
STARTCHAR OverBracket4
ENCODING 115
SWIDTH 1750 0
DWIDTH 49 0
BBX 49 5 0 0
BITMAP
ffffffffffff80
ffffffffffff80
ffffffffffff80
80000000000080
80000000000080
ENDCHAR
STARTCHAR OverBracketExt1
ENCODING 116
SWIDTH 200 0
DWIDTH 6 0
BBX 5 5 0 0
BITMAP
f8
f8
f8
80
80
ENDCHAR
STARTCHAR OverBracketExt2
ENCODING 117
SWIDTH 200 0
DWIDTH 6 0
BBX 5 3 0 2
BITMAP
f8
f8
f8
ENDCHAR
STARTCHAR OverBracketExt3
ENCODING 118
SWIDTH 200 0
DWIDTH 6 0
BBX 6 5 0 0
BITMAP
fc
fc
fc
04
04
ENDCHAR
STARTCHAR ShortUpArrow
ENCODING 119
SWIDTH 591 0
DWIDTH 17 0
BBX 13 15 2 0
BITMAP
0200
0700
0f80
1fc0
3fe0
7770
e738
4710
0700
0700
0700
0700
0700
0700
0700
ENDCHAR
STARTCHAR ShortDownArrow
ENCODING 120
SWIDTH 591 0
DWIDTH 17 0
BBX 13 15 2 0
BITMAP
0700
0700
0700
0700
0700
0700
0700
4710
e738
7770
3fe0
1fc0
0f80
0700
0200
ENDCHAR
STARTCHAR ShortLArrow
ENCODING 121
SWIDTH 652 0
DWIDTH 18 0
BBX 14 14 2 0
BITMAP
0400
0e00
0e00
1c00
3800
7ffc
fffc
7ffc
7800
3c00
1c00
0e00
0600
0400
ENDCHAR
STARTCHAR ShortRArrow
ENCODING 122
SWIDTH 652 0
DWIDTH 18 0
BBX 14 14 2 0
BITMAP
0080
01c0
01c0
00e0
0070
fff8
fffc
fff8
0078
00f0
00e0
01c0
0180
0080
ENDCHAR
STARTCHAR LArrowBar
ENCODING 123
SWIDTH 962 0
DWIDTH 27 0
BBX 23 14 2 0
BITMAP
e04000
e0e000
e1c000
e38000
e70000
effffe
fffffe
effffe
e70000
e78000
e3c000
e1e000
e0c000
004000
ENDCHAR
STARTCHAR Dash
ENCODING 124
SWIDTH 390 0
DWIDTH 11 0
BBX 9 3 1 6
BITMAP
ff80
ff80
ff80
ENDCHAR
STARTCHAR LongDash
ENCODING 125
SWIDTH 545 0
DWIDTH 15 0
BBX 13 3 1 6
BITMAP
fff8
fff8
fff8
ENDCHAR
STARTCHAR DivisionBarExtens
ENCODING 126
SWIDTH 1010 0
DWIDTH 28 0
BBX 26 3 1 6
BITMAP
ffffffc0
ffffffc0
ffffffc0
ENDCHAR
STARTCHAR DEL
ENCODING 127
SWIDTH 189 0
DWIDTH 5 0
BBX 0 0 0 0
BITMAP
ENDCHAR
STARTCHAR UnderBracket1
ENCODING 128
SWIDTH 800 0
DWIDTH 22 0
BBX 22 5 0 0
BITMAP
800004
800004
fffffc
fffffc
fffffc
ENDCHAR
STARTCHAR UnderBracket2
ENCODING 129
SWIDTH 1050 0
DWIDTH 29 0
BBX 29 5 0 0
BITMAP
80000008
80000008
fffffff8
fffffff8
fffffff8
ENDCHAR
STARTCHAR UnderBracket3
ENCODING 130
SWIDTH 1400 0
DWIDTH 39 0
BBX 39 5 0 0
BITMAP
8000000002
8000000002
fffffffffe
fffffffffe
fffffffffe
ENDCHAR
STARTCHAR UnderBracket4
ENCODING 131
SWIDTH 1750 0
DWIDTH 49 0
BBX 49 5 0 0
BITMAP
80000000000080
80000000000080
ffffffffffff80
ffffffffffff80
ffffffffffff80
ENDCHAR
STARTCHAR UnderBracketExt1
ENCODING 132
SWIDTH 200 0
DWIDTH 6 0
BBX 5 5 0 0
BITMAP
80
80
f8
f8
f8
ENDCHAR
STARTCHAR UnderBracketExt2
ENCODING 133
SWIDTH 200 0
DWIDTH 6 0
BBX 5 3 0 0
BITMAP
f8
f8
f8
ENDCHAR
STARTCHAR UnderBracketExt3
ENCODING 134
SWIDTH 200 0
DWIDTH 6 0
BBX 6 5 0 0
BITMAP
04
04
fc
fc
fc
ENDCHAR
STARTCHAR LowerLeftArrow
ENCODING 135
SWIDTH 755 0
DWIDTH 21 0
BBX 17 18 2 0
BITMAP
000100
000380
000780
000f00
001e00
001c00
003800
007000
00e000
e1c000
e38000
e70000
ee0000
fe0000
fc0000
f80000
ff8000
ff8000
ENDCHAR
STARTCHAR UpperLeftArrow
ENCODING 136
SWIDTH 755 0
DWIDTH 21 0
BBX 17 18 2 0
BITMAP
ff8000
ff8000
f80000
fc0000
ee0000
ef0000
e78000
e38000
e1c000
00e000
007000
003800
001c00
000e00
000f00
000780
000380
000100
ENDCHAR
STARTCHAR UpperRightArrow
ENCODING 137
SWIDTH 755 0
DWIDTH 21 0
BBX 17 18 2 0
BITMAP
00ff80
00ff80
00ff80
000f80
001f80
003b80
007380
00e380
01c380
038000
070000
0e0000
1c0000
3c0000
780000
f00000
e00000
400000
ENDCHAR
STARTCHAR LowerRightArrow
ENCODING 138
SWIDTH 755 0
DWIDTH 21 0
BBX 17 18 2 0
BITMAP
400000
e00000
f00000
780000
3c0000
1e0000
0f0000
070000
038000
01c380
00e380
007380
003b80
001f80
000f80
00ff80
00ff80
00ff80
ENDCHAR
STARTCHAR LongLowerLeftArrow
ENCODING 139
SWIDTH 1208 0
DWIDTH 34 0
BBX 30 31 2 -6
BITMAP
00000008
0000001c
0000003c
00000078
000000f0
000001e0
000003c0
00000780
00000f00
00001e00
00003c00
00003800
00007000
0000e000
0001c000
00038000
00070000
000e0000
001c0000
00380000
00700000
00e00000
e1c00000
e3c00000
e7800000
ef000000
fe000000
fc000000
f8000000
ff800000
ff800000
ENDCHAR
STARTCHAR LongUpperLeftArrow
ENCODING 140
SWIDTH 1208 0
DWIDTH 34 0
BBX 30 31 2 -6
BITMAP
ff800000
ff800000
f8000000
fc000000
ee000000
e7000000
e7800000
e3c00000
e1e00000
00f00000
00780000
00380000
001c0000
000e0000
00070000
00038000
0001c000
0000e000
00007000
00003800
00001c00
00000e00
00000f00
00000780
000003c0
000001e0
000000f0
00000078
0000003c
0000001c
00000008
ENDCHAR
STARTCHAR LongUpperRightArrow
ENCODING 141
SWIDTH 1208 0
DWIDTH 34 0
BBX 30 31 2 -6
BITMAP
000007fc
000007fc
000007fc
0000007c
000000fc
000001dc
0000039c
0000071c
00000e1c
00001c00
00003800
00007000
0000e000
0001c000
00038000
00070000
000e0000
001c0000
00380000
00780000
00f00000
01e00000
03c00000
07800000
0f000000
1e000000
3c000000
78000000
f0000000
e0000000
40000000
ENDCHAR
STARTCHAR LongLowerRightArrow
ENCODING 142
SWIDTH 1208 0
DWIDTH 34 0
BBX 30 31 2 -6
BITMAP
40000000
e0000000
f0000000
78000000
3c000000
1e000000
0f000000
07800000
03c00000
01e00000
00f00000
00780000
003c0000
001e0000
000f0000
00078000
00038000
0001c000
0000e000
00007000
00003800
00001c00
00000e1c
0000071c
0000039c
000001dc
000000fc
0000007c
000007fc
000007fc
000007fc
ENDCHAR
STARTCHAR Arrowhead
ENCODING 143
SWIDTH 450 0
DWIDTH 13 0
BBX 9 9 2 0
BITMAP
e000
e000
e000
e000
e000
f000
f800
ff80
ff80
ENDCHAR
STARTCHAR OverParen1
ENCODING 144
SWIDTH 700 0
DWIDTH 20 0
BBX 19 5 0 0
BITMAP
03f800
1fff00
3fff80
6000c0
800020
ENDCHAR
STARTCHAR OverParen2
ENCODING 145
SWIDTH 1050 0
DWIDTH 29 0
BBX 29 5 0 0
BITMAP
03fffe00
1fffffc0
3fffffe0
60000030
80000008
ENDCHAR
STARTCHAR OverParen3
ENCODING 146
SWIDTH 1400 0
DWIDTH 39 0
BBX 39 5 0 0
BITMAP
03ffffff80
1ffffffff0
3ffffffff8
600000000c
8000000002
ENDCHAR
STARTCHAR OverParen4
ENCODING 147
SWIDTH 1750 0
DWIDTH 49 0
BBX 49 5 0 0
BITMAP
03ffffffffe000
1ffffffffffc00
3ffffffffffe00
60000000000300
80000000000080
ENDCHAR
STARTCHAR OverParenExt1
ENCODING 148
SWIDTH 330 0
DWIDTH 9 0
BBX 9 5 0 0
BITMAP
0780
1f80
7f80
6000
8000
ENDCHAR
STARTCHAR OverParenExt2
ENCODING 149
SWIDTH 200 0
DWIDTH 6 0
BBX 5 3 0 2
BITMAP
f8
f8
f8
ENDCHAR
STARTCHAR OverParenExt3
ENCODING 150
SWIDTH 330 0
DWIDTH 9 0
BBX 9 5 0 0
BITMAP
f000
fc00
ff00
0300
0080
ENDCHAR
STARTCHAR OverBrace1
ENCODING 151
SWIDTH 700 0
DWIDTH 20 0
BBX 19 6 0 0
BITMAP
004000
00e000
3fff80
7fbfc0
ffbfe0
800020
ENDCHAR
STARTCHAR OverBrace2
ENCODING 152
SWIDTH 1150 0
DWIDTH 32 0
BBX 32 6 0 0
BITMAP
00008000
00018000
3ffffffc
7ffffffe
fffe7fff
80000001
ENDCHAR
STARTCHAR OverBrace3
ENCODING 153
SWIDTH 1500 0
DWIDTH 42 0
BBX 42 6 0 0
BITMAP
000008000000
00001c000000
3ffffffffe00
7ffff7ffff80
ffffe3ffffc0
8000000000c0
ENDCHAR
STARTCHAR OverBrace4
ENCODING 154
SWIDTH 1850 0
DWIDTH 52 0
BBX 52 6 0 0
BITMAP
00000020000000
00000060000000
1fffffffffff80
7fffffffffffe0
ffffff9ffffff0
80000000000010
ENDCHAR
STARTCHAR OverBraceExt1
ENCODING 155
SWIDTH 200 0
DWIDTH 6 0
BBX 6 4 0 0
BITMAP
1c
7c
fc
80
ENDCHAR
STARTCHAR OverBraceExt2
ENCODING 156
SWIDTH 200 0
DWIDTH 6 0
BBX 5 3 0 1
BITMAP
f8
f8
f8
ENDCHAR
STARTCHAR OverBraceExt3
ENCODING 157
SWIDTH 347 0
DWIDTH 10 0
BBX 9 5 0 1
BITMAP
0800
1c00
ff80
f780
e380
ENDCHAR
STARTCHAR OverBraceExt4
ENCODING 158
SWIDTH 200 0
DWIDTH 6 0
BBX 6 4 0 0
BITMAP
e0
f8
fc
04
ENDCHAR
STARTCHAR AngleArrowExt45
ENCODING 159
SWIDTH 308 0
DWIDTH 9 0
BBX 8 9 0 0
BITMAP
02
07
0f
1e
3c
78
f0
e0
40
ENDCHAR
STARTCHAR UnderParen1
ENCODING 160
SWIDTH 700 0
DWIDTH 20 0
BBX 19 5 0 0
BITMAP
800020
6000c0
3fff80
1fff00
03f800
ENDCHAR
STARTCHAR UnderParen2
ENCODING 161
SWIDTH 1050 0
DWIDTH 29 0
BBX 29 5 0 0
BITMAP
80000008
60000030
3fffffe0
1fffffc0
03fffe00
ENDCHAR
STARTCHAR UnderParen3
ENCODING 162
SWIDTH 1400 0
DWIDTH 39 0
BBX 39 5 0 0
BITMAP
8000000002
600000000c
3ffffffff8
1ffffffff0
03ffffff80
ENDCHAR
STARTCHAR UnderParen4
ENCODING 163
SWIDTH 1750 0
DWIDTH 49 0
BBX 49 5 0 0
BITMAP
80000000000080
60000000000300
3ffffffffffe00
1ffffffffffc00
03ffffffffe000
ENDCHAR
STARTCHAR UnderParenExt1
ENCODING 164
SWIDTH 330 0
DWIDTH 9 0
BBX 9 5 0 0
BITMAP
8000
6000
7f80
1f80
0780
ENDCHAR
STARTCHAR UnderParenExt2
ENCODING 165
SWIDTH 200 0
DWIDTH 6 0
BBX 5 3 0 0
BITMAP
f8
f8
f8
ENDCHAR
STARTCHAR UnderParenExt3
ENCODING 166
SWIDTH 330 0
DWIDTH 9 0
BBX 9 5 0 0
BITMAP
0080
0300
ff00
fc00
f000
ENDCHAR
STARTCHAR UnderBrace1
ENCODING 167
SWIDTH 700 0
DWIDTH 20 0
BBX 19 6 0 -2
BITMAP
800020
ffbfe0
7fbfc0
3fff80
00e000
004000
ENDCHAR
STARTCHAR UnderBrace2
ENCODING 168
SWIDTH 1150 0
DWIDTH 32 0
BBX 32 6 0 -2
BITMAP
80000001
fffe7fff
7ffffffe
3ffffffc
00018000
00008000
ENDCHAR
STARTCHAR UnderBrace3
ENCODING 169
SWIDTH 1500 0
DWIDTH 42 0
BBX 42 6 0 -2
BITMAP
c00000000040
fffff1ffffc0
7ffffbffff80
1fffffffff00
00000e000000
000004000000
ENDCHAR
STARTCHAR UnderBrace4
ENCODING 170
SWIDTH 1850 0
DWIDTH 52 0
BBX 52 6 0 -2
BITMAP
80000000000010
ffffff9ffffff0
7fffffffffffe0
1fffffffffff80
00000060000000
00000020000000
ENDCHAR
STARTCHAR UnderBraceExt1
ENCODING 171
SWIDTH 200 0
DWIDTH 6 0
BBX 6 4 0 0
BITMAP
80
fc
7c
1c
ENDCHAR
STARTCHAR UnderBraceExt2
ENCODING 172
SWIDTH 200 0
DWIDTH 6 0
BBX 5 3 0 0
BITMAP
f8
f8
f8
ENDCHAR
STARTCHAR UnderBraceExt3
ENCODING 173
SWIDTH 347 0
DWIDTH 10 0
BBX 9 5 0 -2
BITMAP
e380
f780
ff80
1c00
0800
ENDCHAR
STARTCHAR UnderBraceExt4
ENCODING 174
SWIDTH 200 0
DWIDTH 6 0
BBX 6 4 0 0
BITMAP
04
fc
f8
e0
ENDCHAR
STARTCHAR AngleArrowExt135
ENCODING 175
SWIDTH 308 0
DWIDTH 9 0
BBX 8 9 0 0
BITMAP
40
e0
f0
78
3c
1e
0f
07
02
ENDCHAR
STARTCHAR OverWedge1
ENCODING 176
SWIDTH 700 0
DWIDTH 20 0
BBX 19 5 0 0
BITMAP
00e000
0ffc00
7fffc0
fc07e0
c00060
ENDCHAR
STARTCHAR OverWedge2
ENCODING 177
SWIDTH 1050 0
DWIDTH 29 0
BBX 29 5 0 0
BITMAP
000f8000
01fffc00
3ffdffe0
ff800ff8
e0000038
ENDCHAR
STARTCHAR OverWedge3
ENCODING 178
SWIDTH 1400 0
DWIDTH 39 0
BBX 39 5 0 0
BITMAP
0000fe0000
001ffff000
07ffffffc0
fffc007ffe
f80000003e
ENDCHAR
STARTCHAR OverWedge4
ENCODING 179
SWIDTH 1750 0
DWIDTH 49 0
BBX 49 5 0 0
BITMAP
00000ff8000000
0001ffffc00000
01ffffffffc000
ffffc001ffff80
fc000000001f80
ENDCHAR
STARTCHAR Ellipsis
ENCODING 180
SWIDTH 1000 0
DWIDTH 28 0
BBX 24 4 2 -1
BITMAP
601806
f03c0f
f03c0f
601806
ENDCHAR
STARTCHAR CenterEllipsis
ENCODING 181
SWIDTH 1000 0
DWIDTH 28 0
BBX 24 4 2 5
BITMAP
601806
f03c0f
f03c0f
601806
ENDCHAR
STARTCHAR VertEllipsis
ENCODING 182
SWIDTH 279 0
DWIDTH 8 0
BBX 4 22 2 -1
BITMAP
60
f0
f0
60
00
00
00
00
00
60
f0
f0
60
00
00
00
00
00
60
f0
f0
60
ENDCHAR
STARTCHAR DiagEllipsis
ENCODING 183
SWIDTH 713 0
DWIDTH 20 0
BBX 18 17 1 1
BITMAP
000180
0003c0
0003c0
000180
000000
000000
000000
00c000
01e000
01e000
00c000
000000
000000
600000
f00000
f00000
600000
ENDCHAR
STARTCHAR BackDiagEllipsis
ENCODING 184
SWIDTH 713 0
DWIDTH 20 0
BBX 18 17 1 1
BITMAP
600000
f00000
f00000
600000
000000
000000
000000
00c000
01e000
01e000
00c000
000000
000000
000180
0003c0
0003c0
000180
ENDCHAR
STARTCHAR Ellipsis2
ENCODING 185
SWIDTH 1000 0
DWIDTH 28 0
BBX 24 4 2 -1
BITMAP
601806
f03c0f
f03c0f
601806
ENDCHAR
STARTCHAR CenterEllipsis2
ENCODING 186
SWIDTH 1000 0
DWIDTH 28 0
BBX 24 4 2 5
BITMAP
601806
f03c0f
f03c0f
601806
ENDCHAR
STARTCHAR VertEllipsis2
ENCODING 187
SWIDTH 279 0
DWIDTH 8 0
BBX 4 22 2 -1
BITMAP
60
f0
f0
60
00
00
00
00
00
60
f0
f0
60
00
00
00
00
00
60
f0
f0
60
ENDCHAR
STARTCHAR Dot
ENCODING 188
SWIDTH 335 0
DWIDTH 9 0
BBX 4 4 2 -1
BITMAP
60
f0
f0
60
ENDCHAR
STARTCHAR CenterDot
ENCODING 189
SWIDTH 335 0
DWIDTH 9 0
BBX 4 4 2 5
BITMAP
60
f0
f0
60
ENDCHAR
STARTCHAR BackPrime
ENCODING 190
SWIDTH 373 0
DWIDTH 10 0
BBX 7 12 2 1
BITMAP
60
f0
f0
f8
78
38
3c
1c
1c
0e
06
06
ENDCHAR
STARTCHAR DblBackPrime
ENCODING 191
SWIDTH 651 0
DWIDTH 18 0
BBX 15 12 2 1
BITMAP
60e0
f0f0
f8f0
f8f8
7c78
3c78
1c3c
1e1c
0e1c
070e
0306
0306
ENDCHAR
STARTCHAR UnderVee1
ENCODING 192
SWIDTH 700 0
DWIDTH 20 0
BBX 19 5 0 0
BITMAP
c00060
fc07e0
7fffc0
0ffc00
00e000
ENDCHAR
STARTCHAR UnderVee2
ENCODING 193
SWIDTH 1050 0
DWIDTH 29 0
BBX 29 5 0 0
BITMAP
e0000038
ff800ff8
3ffdffe0
01fffc00
000f8000
ENDCHAR
STARTCHAR UnderVee3
ENCODING 194
SWIDTH 1400 0
DWIDTH 39 0
BBX 39 5 0 0
BITMAP
f80000003e
fffc007ffe
07ffffffc0
001ffff000
0000fe0000
ENDCHAR
STARTCHAR UnderVee4
ENCODING 195
SWIDTH 1750 0
DWIDTH 49 0
BBX 49 5 0 0
BITMAP
fc000000001f80
ffffc001ffff80
01ffffffffc000
0001ffffc00000
00000ff8000000
ENDCHAR
STARTCHAR UpPointer
ENCODING 196
SWIDTH 520 0
DWIDTH 15 0
BBX 11 6 2 4
BITMAP
0400
0e00
1f00
3f80
7fc0
ffe0
ENDCHAR
STARTCHAR RightPointer
ENCODING 197
SWIDTH 310 0
DWIDTH 9 0
BBX 5 12 2 1
BITMAP
80
80
c0
e0
f0
f8
f8
f0
e0
c0
80
80
ENDCHAR
STARTCHAR DownPointer
ENCODING 198
SWIDTH 520 0
DWIDTH 15 0
BBX 11 6 2 4
BITMAP
ffe0
7fc0
3f80
1f00
0e00
0400
ENDCHAR
STARTCHAR LeftPointer
ENCODING 199
SWIDTH 310 0
DWIDTH 9 0
BBX 6 12 2 1
BITMAP
04
08
18
38
78
f8
f8
78
38
18
08
04
ENDCHAR
STARTCHAR UpLHookExt
ENCODING 200
SWIDTH 275 0
DWIDTH 8 0
BBX 7 8 0 6
BITMAP
f8
fc
fe
0e
0e
fe
fc
f8
ENDCHAR
STARTCHAR UpRHookExt
ENCODING 201
SWIDTH 275 0
DWIDTH 8 0
BBX 7 8 1 6
BITMAP
3e
7e
fe
e0
e0
fe
7e
3e
ENDCHAR
STARTCHAR Nbspace
ENCODING 202
SWIDTH 189 0
DWIDTH 5 0
BBX 0 0 0 0
BITMAP
ENDCHAR
STARTCHAR XBox
ENCODING 203
SWIDTH 600 0
DWIDTH 17 0
BBX 13 13 2 0
BITMAP
fff8
c018
a028
9048
8888
8508
8208
8508
8888
9048
a028
c018
fff8
ENDCHAR
STARTCHAR SmileyFace
ENCODING 204
SWIDTH 577 0
DWIDTH 16 0
BBX 14 18 1 0
BITMAP
1fe0
7ff8
7038
e01c
e01c
fcfc
fcfc
fcfc
e01c
e01c
f87c
f87c
efdc
e79c
e01c
6018
7ff8
1fe0
ENDCHAR
STARTCHAR StraightFace
ENCODING 205
SWIDTH 577 0
DWIDTH 16 0
BBX 14 18 1 0
BITMAP
1fe0
7ff8
7038
e01c
e01c
ecfc
fcfc
ecfc
e01c
e01c
e01c
effc
effc
e01c
e01c
7018
7ff8
1fe0
ENDCHAR
STARTCHAR FrownFace
ENCODING 206
SWIDTH 577 0
DWIDTH 16 0
BBX 14 18 1 0
BITMAP
1fe0
7ff8
7038
e01c
e01c
fcfc
fcfc
fcfc
e01c
e01c
e79c
efdc
f87c
f87c
e01c
6018
7ff8
1fe0
ENDCHAR
STARTCHAR ShockFace
ENCODING 207
SWIDTH 581 0
DWIDTH 16 0
BBX 16 26 0 0
BITMAP
0420
4422
4426
6424
2644
3248
1248
ca53
6ff6
3ffc
381c
700e
700e
766e
7e7e
766e
71ce
73ce
766e
742e
766e
73ce
31ce
381c
3ffc
0ff0
ENDCHAR
STARTCHAR Strike1
ENCODING 208
SWIDTH 180 0
DWIDTH 5 0
BBX 5 9 0 3
BITMAP
38
38
30
70
70
70
60
e0
e0
ENDCHAR
STARTCHAR Strike2
ENCODING 209
SWIDTH 233 0
DWIDTH 7 0
BBX 6 15 0 0
BITMAP
0c
1c
1c
18
18
38
38
30
70
70
60
60
e0
e0
c0
ENDCHAR
STARTCHAR Strike3
ENCODING 210
SWIDTH 280 0
DWIDTH 8 0
BBX 7 20 0 -3
BITMAP
06
0e
0e
0c
0c
1c
1c
18
18
38
38
30
30
70
70
60
60
e0
e0
c0
ENDCHAR
STARTCHAR Strike4
ENCODING 211
SWIDTH 311 0
DWIDTH 9 0
BBX 8 23 0 -4
BITMAP
03
07
07
06
06
0e
0e
0c
0c
1c
18
18
18
38
30
30
70
70
60
60
e0
e0
c0
ENDCHAR
STARTCHAR Strike5
ENCODING 212
SWIDTH 340 0
DWIDTH 10 0
BBX 9 25 0 -4
BITMAP
0180
0380
0380
0300
0700
0700
0600
0600
0e00
0e00
0c00
0c00
1c00
1800
1800
3800
3800
3000
3000
7000
7000
6000
e000
e000
c000
ENDCHAR
STARTCHAR Strike6
ENCODING 213
SWIDTH 349 0
DWIDTH 10 0
BBX 9 29 0 -6
BITMAP
0180
0380
0380
0300
0300
0700
0700
0600
0600
0e00
0e00
0c00
0c00
0c00
1c00
1800
1800
1800
3800
3800
3000
3000
7000
7000
6000
6000
e000
e000
c000
ENDCHAR
STARTCHAR KeyBar
ENCODING 214
SWIDTH 88 0
DWIDTH 2 0
BBX 7 4 -2 5
BITMAP
fe
fe
fe
fe
ENDCHAR
STARTCHAR DownLHookExt
ENCODING 215
SWIDTH 275 0
DWIDTH 8 0
BBX 7 8 0 0
BITMAP
f8
fc
fe
0e
0e
fe
fc
f8
ENDCHAR
STARTCHAR DownRHookExt
ENCODING 216
SWIDTH 275 0
DWIDTH 8 0
BBX 7 8 1 0
BITMAP
3e
7e
fe
e0
e0
fe
7e
3e
ENDCHAR
STARTCHAR Icos
ENCODING 217
SWIDTH 956 0
DWIDTH 27 0
BBX 25 24 1 -3
BITMAP
00100800
00187000
0e29b000
09c63000
0c423000
04425000
06415000
05809000
05bffc00
07fcc380
79916080
82522100
442a1300
282c0c80
301cfb00
3dfffc00
06081000
041c1800
02161800
02252800
034ca400
0357bc00
03e2c000
00800000
ENDCHAR
STARTCHAR KernalIcon
ENCODING 218
SWIDTH 909 0
DWIDTH 25 0
BBX 24 24 1 -3
BITMAP
007e00
038180
040060
081010
103388
27ed84
422986
434582
43c282
83bfc9
9dd709
b17491
9a38e9
8e1ff9
8dffc1
4718c2
411cc2
412cc6
21bb24
11efc8
094110
040060
038180
007e00
ENDCHAR
STARTCHAR LightBulb
ENCODING 219
SWIDTH 688 0
DWIDTH 19 0
BBX 17 25 1 -4
BITMAP
008000
108400
188c00
03e000
8c1880
580d00
100400
200200
200200
200200
200200
300400
100400
080800
041000
041000
022000
022000
022000
000000
03e000
000000
03e000
01c000
01c000
ENDCHAR
STARTCHAR WarningSign
ENCODING 220
SWIDTH 675 0
DWIDTH 19 0
BBX 16 18 1 0
BITMAP
01c0
0340
0360
0220
0630
0410
0dd0
09d8
19c8
11cc
1084
2084
2082
4002
41c3
c1c1
8001
ffff
ENDCHAR
STARTCHAR WatchIcon
ENCODING 221
SWIDTH 597 0
DWIDTH 17 0
BBX 14 20 1 -2
BITMAP
1fe0
1fe0
1fe0
1fe0
1fe0
7010
8118
8118
811c
811c
8f1c
8018
8018
7010
7010
1fe0
1fe0
1fe0
1fe0
1fe0
ENDCHAR
STARTCHAR Cedilla
ENCODING 222
SWIDTH 254 0
DWIDTH 7 0
BBX 7 6 0 -6
BITMAP
30
3c
7e
0e
fc
78
ENDCHAR
STARTCHAR Ogonek
ENCODING 223
SWIDTH 211 0
DWIDTH 6 0
BBX 6 4 0 -4
BITMAP
70
e4
fc
78
ENDCHAR
STARTCHAR AltKey
ENCODING 224
SWIDTH 1174 0
DWIDTH 33 0
BBX 29 22 2 -4
BITMAP
fffffff8
80000008
80000008
80000008
80000008
80823f88
81420408
81420408
81420408
82220408
82220408
82220408
82220408
87f20408
84120408
84120408
880be408
80000008
80000008
80000008
80000008
fffffff8
ENDCHAR
STARTCHAR CmdKey
ENCODING 225
SWIDTH 1318 0
DWIDTH 37 0
BBX 33 22 2 -4
BITMAP
ffffffff80
8000000080
8000000080
8000000080
8000000080
879819f080
8c98191080
885c190880
8814290880
8814290880
8814290880
8812490880
8812490880
8812490880
8853c90880
8c91891080
879189e080
8000000080
8000000080
8000000080
8000000080
ffffffff80
ENDCHAR
STARTCHAR CtrlKey
ENCODING 226
SWIDTH 1379 0
DWIDTH 39 0
BBX 35 22 2 -4
BITMAP
ffffffffe0
8000000020
8000000020
8000000020
8000000020
87bfbe2020
8884232020
8844212020
8804212020
8804222020
88043c2020
8804222020
8804212020
8804212020
8844212020
8484212020
8784213e20
8000000020
8000000020
8000000020
8000000020
ffffffffe0
ENDCHAR
STARTCHAR DelKey
ENCODING 227
SWIDTH 1143 0
DWIDTH 32 0
BBX 28 22 2 -4
BITMAP
fffffff0
80000010
80000010
80000010
80000010
8f87c810
88440810
88240810
88240810
88240810
8827c810
88240810
88240810
88240810
88240810
88440810
8f87cf90
80000010
80000010
80000010
80000010
fffffff0
ENDCHAR
STARTCHAR EntKey
ENCODING 228
SWIDTH 1146 0
DWIDTH 32 0
BBX 28 22 2 -4
BITMAP
fffffff0
80000010
80000010
80000010
80000010
8fd8bf90
88188410
88188410
88148410
88148410
8f948410
88128410
88128410
88128410
88118410
88118410
8fd18410
80000010
80000010
80000010
80000010
fffffff0
ENDCHAR
STARTCHAR EscKey
ENCODING 229
SWIDTH 1146 0
DWIDTH 32 0
BBX 28 22 2 -4
BITMAP
fffffff0
80000010
80000010
80000010
80000010
8fcf1e10
88111110
8810a110
88102010
88082010
8f862010
88032010
8801a010
8800a010
8810a110
8811b110
8fcf1e10
80000010
80000010
80000010
80000010
fffffff0
ENDCHAR
STARTCHAR OptKey
ENCODING 230
SWIDTH 1187 0
DWIDTH 33 0
BBX 29 22 2 -4
BITMAP
fffffff8
80000008
80000008
80000008
80000008
8f8f9fc8
88c8c208
90484208
90484208
9048c208
904f8208
90480208
90480208
90480208
90480208
88880208
87080208
80000008
80000008
80000008
80000008
fffffff8
ENDCHAR
STARTCHAR RetKey
ENCODING 231
SWIDTH 1174 0
DWIDTH 33 0
BBX 29 22 2 -4
BITMAP
fffffff8
80000008
80000008
80000008
80000008
878fdf88
84480408
84680408
84480408
84c80408
870f8408
84c80408
84480408
84480408
84480408
84680408
846fc408
80000008
80000008
80000008
80000008
fffffff8
ENDCHAR
STARTCHAR ShftKey
ENCODING 232
SWIDTH 1448 0
DWIDTH 41 0
BBX 37 22 2 -4
BITMAP
fffffffff8
8000000008
8000000008
8000000008
8000000008
87905f7f08
8450500808
8850500808
8810500808
8410500808
831fde0808
8190500808
8050500808
8050500808
8850500808
8450500808
8790500808
8000000008
8000000008
8000000008
8000000008
fffffffff8
ENDCHAR
STARTCHAR SpcKey
ENCODING 233
SWIDTH 1187 0
DWIDTH 33 0
BBX 29 22 2 -4
BITMAP
fffffff8
80000008
80000008
80000008
80000008
878f8f08
8488c908
88485088
88085008
84085008
830f9008
81881008
80c81008
80481008
88481088
84c81888
87880f08
80000008
80000008
80000008
80000008
fffffff8
ENDCHAR
STARTCHAR TabKey
ENCODING 234
SWIDTH 1177 0
DWIDTH 33 0
BBX 29 22 2 -4
BITMAP
fffffff8
80000008
80000008
80000008
80000008
9fc41f08
820c1188
820a1088
820a1088
82121188
82111f08
82111088
82211048
823f9048
82209048
82409088
82405f08
80000008
80000008
80000008
80000008
fffffff8
ENDCHAR
STARTCHAR LKeyBracket
ENCODING 235
SWIDTH 245 0
DWIDTH 7 0
BBX 8 29 -2 -8
BITMAP
1f
10
10
10
10
10
10
10
10
10
10
10
f0
f0
f0
f0
10
10
10
10
10
10
10
10
10
10
10
10
1f
ENDCHAR
STARTCHAR RKeyBracket
ENCODING 236
SWIDTH 245 0
DWIDTH 7 0
BBX 4 29 1 -8
BITMAP
f0
10
10
10
10
10
10
10
10
10
10
10
10
10
10
10
10
10
10
10
10
10
10
10
10
10
10
10
f0
ENDCHAR
STARTCHAR CloverLeaf
ENCODING 237
SWIDTH 750 0
DWIDTH 21 0
BBX 19 18 1 0
BITMAP
3c0380
460c40
820820
820820
820820
c20860
7fffc0
020800
020800
020800
020800
020800
7fffc0
c20860
820820
820820
460c40
380780
ENDCHAR
STARTCHAR DottedSquare
ENCODING 238
SWIDTH 764 0
DWIDTH 21 0
BBX 19 19 1 0
BITMAP
f0e3e0
800020
800020
800020
800020
000000
000000
000000
800020
800020
800020
000000
000000
000000
800020
800020
800020
800020
f0e3e0
ENDCHAR
STARTCHAR RoundSpaceIndicator
ENCODING 239
SWIDTH 250 0
DWIDTH 7 0
BBX 5 3 1 -3
BITMAP
88
f8
70
ENDCHAR
STARTCHAR CommandKey
ENCODING 240
SWIDTH 2643 0
DWIDTH 74 0
BBX 70 22 2 -4
BITMAP
fffffffffffffffffc
800000000000000004
800000000000000004
800000000000000004
800000000000000004
87878c0d81820c4f84
84484c0d81850c4884
88484c1541850a4844
88082a1542850a4844
88082a1542888a4844
88082a2522888a4844
880829252488894844
880829252490894844
88082925249fc94844
88484945149048c844
8c4c48c518a048c884
878788c518a028cf04
800000000000000004
800000000000000004
800000000000000004
800000000000000004
fffffffffffffffffc
ENDCHAR
STARTCHAR ControlKey
ENCODING 241
SWIDTH 2327 0
DWIDTH 65 0
BBX 61 22 2 -4
BITMAP
fffffffffffffff8
8000000000000008
8000000000000008
8000000000000008
8000000000000008
87878c5fcf87c808
88484c42084c6808
88484c4208482808
88084c4208482808
88084a4208c82808
88084a420f082808
88084a4208c82808
8808494208482808
8808494208482808
8848494208482808
8c48c8c2084c6808
878788c20847cfc8
8000000000000008
8000000000000008
8000000000000008
8000000000000008
fffffffffffffff8
ENDCHAR
STARTCHAR DeleteKey
ENCODING 242
SWIDTH 1890 0
DWIDTH 53 0
BBX 49 22 2 -4
BITMAP
ffffffffffff80
80000000000080
80000000000080
80000000000080
80000000000080
8f8fd03efef880
88481020108080
88681020108080
88281020108080
88281020108080
882f903e10f880
88281020108080
88281020108080
88281020108080
88481020108080
88481020108080
8f8fdf3e10f880
80000000000080
80000000000080
80000000000080
80000000000080
ffffffffffff80
ENDCHAR
STARTCHAR EnterKey
ENCODING 243
SWIDTH 1668 0
DWIDTH 47 0
BBX 43 22 2 -4
BITMAP
ffffffffffe0
800000000020
800000000020
800000000020
800000000020
8f90bf9f7c20
881884104220
881884104220
881884104220
881484104620
8f94841f7820
881484104620
881284104220
881284104220
881284104220
881184104220
8f91841f4320
800000000020
800000000020
800000000020
800000000020
ffffffffffe0
ENDCHAR
STARTCHAR EscapeKey
ENCODING 244
SWIDTH 2000 0
DWIDTH 56 0
BBX 52 21 2 -3
BITMAP
fffffffffffff0
80000000000010
80000000000010
80000000000010
80000000000010
8f8f1e060f9f10
8811310608d010
8810a106085010
88102009085010
8818200908d010
8f8620088f9f10
88032010881010
8800a01f881010
8820a120481010
8810a120481010
88111120481010
8f8f1e40481f10
80000000000010
80000000000010
80000000000010
fffffffffffff0
ENDCHAR
STARTCHAR OptionKey
ENCODING 245
SWIDTH 1869 0
DWIDTH 52 0
BBX 49 22 2 -4
BITMAP
ffffffffffff80
80000000000080
80000000000080
80000000000080
80000000000080
878f9fd1f18880
8c484213198880
8828421209c880
88284212094880
88284212094880
882f8212094880
88280212092880
88280212092880
88280212092880
88480212091880
84480211111880
83880210e11880
80000000000080
80000000000080
80000000000080
80000000000080
ffffffffffff80
ENDCHAR
STARTCHAR ReturnKey
ENCODING 246
SWIDTH 2015 0
DWIDTH 56 0
BBX 53 21 2 -3
BITMAP
fffffffffffff8
80000000000008
80000000000008
80000000000008
80000000000008
8f8f9fd05f1888
88480410509888
88480410509c88
88480410509488
88c80410511488
8f0f84105e1488
88c80410511288
88480410509288
88480410509288
88480410d09188
88480408909188
886f8407109188
80000000000008
80000000000008
80000000000008
fffffffffffff8
ENDCHAR
STARTCHAR ShiftKey
ENCODING 247
SWIDTH 1563 0
DWIDTH 44 0
BBX 40 22 2 -4
BITMAP
ffffffffff
8000000001
8000000001
8000000001
8000000001
879053ffe1
84d0520101
8c50520101
8410520101
8410520101
831f93e101
8190520101
80d0520101
8050520101
8850520101
8450520101
8790520101
8000000001
8000000001
8000000001
8000000001
ffffffffff
ENDCHAR
STARTCHAR SpaceKey
ENCODING 248
SWIDTH 1699 0
DWIDTH 48 0
BBX 44 22 2 -4
BITMAP
fffffffffff0
800000000010
800000000010
800000000010
800000000010
879f040f9f10
845086189010
88504a10d010
88104a101010
841089101010
831f11101f10
819011101010
805010901010
80503f901010
885020905010
885020509010
8490404d9f10
830000020010
800000000010
800000000010
800000000010
fffffffffff0
ENDCHAR
STARTCHAR Mod1Key
ENCODING 249
SWIDTH 1543 0
DWIDTH 43 0
BBX 39 22 2 -4
BITMAP
fffffffffe
8000000002
8000000002
8000000002
8000000002
9818f8f812
98198c8472
9c19048252
9429048212
9429048212
9429048212
9249048212
9249048212
9249048212
93c9048212
91898c8412
9188f8f812
8000000002
8000000002
8000000002
8000000002
fffffffffe
ENDCHAR
STARTCHAR Mod2Key
ENCODING 250
SWIDTH 1655 0
DWIDTH 46 0
BBX 43 22 2 -4
BITMAP
ffffffffffe0
800000000020
800000000020
800000000020
800000000020
9818f8f83c20
98198c846220
9c1904824220
942904820220
942904820420
942904820420
924904820820
924904821820
924904821020
93c904822020
91898c846020
9188f8f87e20
800000000020
800000000020
800000000020
800000000020
ffffffffffe0
ENDCHAR
STARTCHAR RKeyBracket2
ENCODING 251
SWIDTH 245 0
DWIDTH 7 0
BBX 4 29 1 -8
BITMAP
f0
80
80
80
80
80
80
80
80
80
80
80
80
80
80
80
80
80
80
80
80
80
80
80
80
80
80
80
f0
ENDCHAR
STARTCHAR LUpHookExt
ENCODING 252
SWIDTH 591 0
DWIDTH 17 0
BBX 9 7 1 0
BITMAP
e380
e380
e380
e380
7f80
7f00
3e00
ENDCHAR
STARTCHAR RUpHookExt
ENCODING 253
SWIDTH 250 0
DWIDTH 7 0
BBX 9 7 1 0
BITMAP
e380
e380
e380
e380
ff00
7f00
3e00
ENDCHAR
STARTCHAR LDownHookExt
ENCODING 254
SWIDTH 250 0
DWIDTH 7 0
BBX 8 7 0 0
BITMAP
3c
7e
ff
e7
e7
e7
e7
ENDCHAR
STARTCHAR RDownHookExt
ENCODING 255
SWIDTH 0 0
DWIDTH 0 0
BBX 8 7 0 0
BITMAP
3c
7e
ff
e7
e7
e7
e7
ENDCHAR
ENDFONT
