STARTFONT 2.1
FONT -WRI-Mathematica6Mono-Bold-R-Normal--30-300-75-75-M-100-Adobe-FontSpecific
SIZE 30 75 75
FONTBOUNDINGBOX 24 26 -1 -7
STARTPROPERTIES 16
FOUNDRY "WRI"
FAMILY_NAME "Mathematica6Mono"
WEIGHT_NAME "Bold"
SLANT "R"
SETWIDTH_NAME "Normal"
PIXEL_SIZE 30
POINT_SIZE 300
RESOLUTION_X 75
RESOLUTION_Y 75
SPACING "M"
AVERAGE_WIDTH 100
CHARSET_REGISTRY "Adobe"
CHARSET_ENCODING "FontSpecific"
FONT_DESCENT 7
FONT_ASCENT 19
DEFAULT_CHAR 32
ENDPROPERTIES
CHARS 224
STARTCHAR space
ENCODING 32
SWIDTH 263 0
DWIDTH 8 0
BBX 0 0 0 0
BITMAP
ENDCHAR
STARTCHAR exclam
ENCODING 33
SWIDTH 263 0
DWIDTH 8 0
BBX 0 0 0 0
BITMAP
ENDCHAR
STARTCHAR quotedbl
ENCODING 34
SWIDTH 263 0
DWIDTH 8 0
BBX 0 0 0 0
BITMAP
ENDCHAR
STARTCHAR numbersign
ENCODING 35
SWIDTH 263 0
DWIDTH 8 0
BBX 0 0 0 0
BITMAP
ENDCHAR
STARTCHAR dollar
ENCODING 36
SWIDTH 263 0
DWIDTH 8 0
BBX 0 0 0 0
BITMAP
ENDCHAR
STARTCHAR percent
ENCODING 37
SWIDTH 263 0
DWIDTH 8 0
BBX 0 0 0 0
BITMAP
ENDCHAR
STARTCHAR ampersand
ENCODING 38
SWIDTH 263 0
DWIDTH 8 0
BBX 0 0 0 0
BITMAP
ENDCHAR
STARTCHAR quotesingle
ENCODING 39
SWIDTH 263 0
DWIDTH 8 0
BBX 0 0 0 0
BITMAP
ENDCHAR
STARTCHAR parenleft
ENCODING 40
SWIDTH 263 0
DWIDTH 8 0
BBX 0 0 0 0
BITMAP
ENDCHAR
STARTCHAR parenright
ENCODING 41
SWIDTH 263 0
DWIDTH 8 0
BBX 0 0 0 0
BITMAP
ENDCHAR
STARTCHAR asterisk
ENCODING 42
SWIDTH 263 0
DWIDTH 8 0
BBX 0 0 0 0
BITMAP
ENDCHAR
STARTCHAR plus
ENCODING 43
SWIDTH 263 0
DWIDTH 8 0
BBX 0 0 0 0
BITMAP
ENDCHAR
STARTCHAR comma
ENCODING 44
SWIDTH 263 0
DWIDTH 8 0
BBX 0 0 0 0
BITMAP
ENDCHAR
STARTCHAR hyphen
ENCODING 45
SWIDTH 263 0
DWIDTH 8 0
BBX 0 0 0 0
BITMAP
ENDCHAR
STARTCHAR period
ENCODING 46
SWIDTH 263 0
DWIDTH 8 0
BBX 0 0 0 0
BITMAP
ENDCHAR
STARTCHAR slash
ENCODING 47
SWIDTH 263 0
DWIDTH 8 0
BBX 0 0 0 0
BITMAP
ENDCHAR
STARTCHAR GothicZero
ENCODING 48
SWIDTH 564 0
DWIDTH 17 0
BBX 12 18 3 0
BITMAP
0f00
3fc0
30c0
6060
6060
e030
c030
c030
c030
c030
c030
c030
e060
6060
7060
38c0
3f80
0f00
ENDCHAR
STARTCHAR GothicOne
ENCODING 49
SWIDTH 564 0
DWIDTH 17 0
BBX 8 18 5 0
BITMAP
18
f8
78
58
18
18
18
18
18
18
18
18
18
18
18
18
ff
ff
ENDCHAR
STARTCHAR GothicTwo
ENCODING 50
SWIDTH 564 0
DWIDTH 17 0
BBX 12 18 2 0
BITMAP
0f80
3fe0
38e0
3070
0030
0030
0070
0060
00e0
01c0
0380
0700
0e00
1c00
3800
7030
7ff0
fff0
ENDCHAR
STARTCHAR GothicThree
ENCODING 51
SWIDTH 564 0
DWIDTH 17 0
BBX 12 18 3 0
BITMAP
1f00
7fc0
f0e0
4060
0060
0060
00e0
0fc0
0fc0
03e0
0060
0030
0030
0030
0070
e0e0
ffc0
3f00
ENDCHAR
STARTCHAR GothicFour
ENCODING 52
SWIDTH 564 0
DWIDTH 17 0
BBX 12 17 2 0
BITMAP
01c0
03c0
07c0
06c0
0ec0
1cc0
1cc0
38c0
30c0
70c0
7ff0
fff0
00c0
00c0
00c0
07f0
07f0
ENDCHAR
STARTCHAR GothicFive
ENCODING 53
SWIDTH 564 0
DWIDTH 17 0
BBX 13 17 2 0
BITMAP
3ff0
3ff0
3800
3000
3000
7fc0
7fe0
3870
3038
0018
0018
0018
0018
4038
f070
7fe0
1fc0
ENDCHAR
STARTCHAR GothicSix
ENCODING 54
SWIDTH 564 0
DWIDTH 17 0
BBX 11 18 4 0
BITMAP
0300
0780
0f00
1e00
3c00
3800
7000
7f00
ffc0
f1c0
e0e0
c060
c060
c0e0
e0e0
71c0
7f80
1f00
ENDCHAR
STARTCHAR GothicSeven
ENCODING 55
SWIDTH 564 0
DWIDTH 17 0
BBX 12 17 3 0
BITMAP
fff0
fff0
c030
0070
0060
00e0
00e0
00c0
01c0
0180
0380
0380
0300
0700
0600
0e00
0e00
ENDCHAR
STARTCHAR GothicEight
ENCODING 56
SWIDTH 564 0
DWIDTH 17 0
BBX 12 18 3 0
BITMAP
0f80
3fc0
30e0
6060
6060
6060
70e0
3fc0
3fc0
70e0
e070
c030
c030
c030
e070
70e0
3fc0
1f80
ENDCHAR
STARTCHAR GothicNine
ENCODING 57
SWIDTH 564 0
DWIDTH 17 0
BBX 10 18 4 0
BITMAP
1e00
7f80
7380
e1c0
c0c0
c0c0
c0c0
e1c0
f3c0
7f80
1f80
0380
0300
0700
0e00
0e00
1c00
1c00
ENDCHAR
STARTCHAR colon
ENCODING 58
SWIDTH 263 0
DWIDTH 8 0
BBX 0 0 0 0
BITMAP
ENDCHAR
STARTCHAR semicolon
ENCODING 59
SWIDTH 263 0
DWIDTH 8 0
BBX 0 0 0 0
BITMAP
ENDCHAR
STARTCHAR less
ENCODING 60
SWIDTH 263 0
DWIDTH 8 0
BBX 0 0 0 0
BITMAP
ENDCHAR
STARTCHAR equal
ENCODING 61
SWIDTH 263 0
DWIDTH 8 0
BBX 0 0 0 0
BITMAP
ENDCHAR
STARTCHAR greater
ENCODING 62
SWIDTH 263 0
DWIDTH 8 0
BBX 0 0 0 0
BITMAP
ENDCHAR
STARTCHAR question
ENCODING 63
SWIDTH 263 0
DWIDTH 8 0
BBX 0 0 0 0
BITMAP
ENDCHAR
STARTCHAR at
ENCODING 64
SWIDTH 263 0
DWIDTH 8 0
BBX 0 0 0 0
BITMAP
ENDCHAR
STARTCHAR GothicCapA
ENCODING 65
SWIDTH 619 0
DWIDTH 19 0
BBX 16 18 1 0
BITMAP
1f80
fff0
fffc
8c1c
1c1c
181c
181c
181c
7fdc
7fdc
181c
181c
181c
181c
381c
3e1f
0e07
0603
ENDCHAR
STARTCHAR GothicCapB
ENCODING 66
SWIDTH 586 0
DWIDTH 18 0
BBX 17 18 0 -1
BITMAP
3fc000
7ff800
3c3c00
0c0c00
0c0c00
0c1c00
0ff800
0ffe00
0c0f00
0c0300
0c0380
0c0300
2c0300
7c0700
fc0e00
1f1e00
07f800
01f000
ENDCHAR
STARTCHAR GothicCapC
ENCODING 67
SWIDTH 558 0
DWIDTH 17 0
BBX 16 17 0 0
BITMAP
0180
0ff0
3f7f
781f
7000
6000
6000
e000
6000
6000
6000
7000
3001
3c06
1f3e
0ffc
03e0
ENDCHAR
STARTCHAR GothicCapD
ENCODING 68
SWIDTH 642 0
DWIDTH 19 0
BBX 18 17 1 0
BITMAP
1fe000
fff800
ef3e00
0c0f00
0c0300
0c0380
0c0180
0c0180
0c01c0
0c0180
0c0180
0c0380
1c0f00
f81e00
fe7800
1ff000
03c000
ENDCHAR
STARTCHAR GothicCapE
ENCODING 69
SWIDTH 541 0
DWIDTH 16 0
BBX 16 17 0 0
BITMAP
01c0
0ff0
3f7f
781e
7000
6000
6002
effe
7ffe
7800
7000
7000
3000
380e
1f3e
0ffc
03e0
ENDCHAR
STARTCHAR GothicCapF
ENCODING 70
SWIDTH 556 0
DWIDTH 17 0
BBX 15 20 1 -3
BITMAP
7c00
ffc0
c7fe
0e7e
0c00
1c00
1c00
1c00
3ff0
7ff8
1c00
1c00
1c00
1c00
1c00
1c00
1c00
1c00
1c00
1c00
ENDCHAR
STARTCHAR GothicCapG
ENCODING 71
SWIDTH 559 0
DWIDTH 17 0
BBX 16 17 0 0
BITMAP
0380
0ff0
3f7f
781f
7000
6000
6000
e000
61ff
61ff
6007
7007
300f
3c3f
1f78
0fe0
03c0
ENDCHAR
STARTCHAR GothicCapH
ENCODING 72
SWIDTH 593 0
DWIDTH 18 0
BBX 16 18 1 0
BITMAP
c020
e078
f83e
380e
381c
381c
381c
381c
3ffc
381c
381c
381c
381c
381c
701c
7c1f
1e07
0403
ENDCHAR
STARTCHAR GothicCapI
ENCODING 73
SWIDTH 335 0
DWIDTH 10 0
BBX 8 18 1 0
BITMAP
7c
ff
cf
0e
0c
0c
0c
0c
0c
0c
0c
0c
0c
1c
1c
3e
0f
02
ENDCHAR
STARTCHAR GothicCapJ
ENCODING 74
SWIDTH 550 0
DWIDTH 17 0
BBX 15 17 0 0
BITMAP
3e02
3ffe
01fe
0038
0030
0030
0030
2030
7030
e030
6030
7070
70f0
3bc0
1f80
0e00
0400
ENDCHAR
STARTCHAR GothicCapK
ENCODING 75
SWIDTH 628 0
DWIDTH 19 0
BBX 16 18 1 0
BITMAP
3803
ff07
ee1e
1c1c
1c38
1c70
1ce0
1ff0
1ff0
1c38
1c38
1c18
1c18
1c18
381c
3e0c
0f0e
0204
ENDCHAR
STARTCHAR GothicCapL
ENCODING 76
SWIDTH 619 0
DWIDTH 19 0
BBX 17 17 1 0
BITMAP
00e000
01f800
07b800
0e1c00
0e1c00
061800
060000
060000
070000
070000
070000
060000
0e0000
7c0200
ffc780
43fe00
007c00
ENDCHAR
STARTCHAR GothicCapM
ENCODING 77
SWIDTH 720 0
DWIDTH 22 0
BBX 20 17 2 0
BITMAP
620200
678780
7fdfc0
78f8e0
606070
606070
606070
606070
606070
606070
606070
606070
606070
e06070
f06070
3c6070
080000
ENDCHAR
STARTCHAR GothicCapN
ENCODING 78
SWIDTH 456 0
DWIDTH 14 0
BBX 12 17 2 0
BITMAP
6100
6780
7fc0
78e0
6070
6070
6070
6070
6070
6070
6070
6070
6070
e070
f070
3c70
0800
ENDCHAR
STARTCHAR GothicCapO
ENCODING 79
SWIDTH 614 0
DWIDTH 18 0
BBX 18 17 0 0
BITMAP
08f000
19fc00
3c9e00
380700
700380
600180
600180
600180
e001c0
600180
600180
700380
700780
381f00
1f3c00
0ff000
03e000
ENDCHAR
STARTCHAR GothicCapP
ENCODING 80
SWIDTH 554 0
DWIDTH 17 0
BBX 15 18 1 0
BITMAP
07e0
3ff8
7c3c
fc0c
dc0c
1c0e
1c0c
1c1c
1c78
1ff0
1fc0
1c00
1c00
1c00
3800
3e00
0f00
0200
ENDCHAR
STARTCHAR GothicCapQ
ENCODING 81
SWIDTH 653 0
DWIDTH 20 0
BBX 18 17 0 0
BITMAP
08f000
19fc00
3c9e00
380700
700300
600380
600180
e00180
e00180
600180
600180
73e380
33fb00
3d3f00
1fffc0
07ffc0
00e380
ENDCHAR
STARTCHAR GothicCapR
ENCODING 82
SWIDTH 646 0
DWIDTH 19 0
BBX 17 18 1 0
BITMAP
07e000
3ff800
7c1c00
fc0e00
dc0e00
1c0e00
1c1c00
1c7800
1ff800
1ff800
1c1c00
1c1c00
1c0e00
1c0e00
380700
3e0380
0f0180
020080
ENDCHAR
STARTCHAR GothicCapS
ENCODING 83
SWIDTH 562 0
DWIDTH 17 0
BBX 15 17 1 0
BITMAP
03c0
1ff0
3e7e
701e
7000
6000
707c
7ffe
3f86
8006
e006
f006
380e
1c3e
0ef8
07e0
0380
ENDCHAR
STARTCHAR GothicCapT
ENCODING 84
SWIDTH 667 0
DWIDTH 20 0
BBX 20 17 1 0
BITMAP
1f8020
7ffcf0
f0fff0
c0e780
c0c000
e0c000
e0c000
20c000
00c000
00c000
00c000
00c000
00c000
01c000
01e000
007000
003000
ENDCHAR
STARTCHAR GothicCapU
ENCODING 85
SWIDTH 600 0
DWIDTH 18 0
BBX 16 18 1 0
BITMAP
c010
e03c
f81f
3807
3806
3806
3806
3806
3806
3806
3806
3806
3806
380e
383e
3efe
0fe6
0386
ENDCHAR
STARTCHAR GothicCapV
ENCODING 86
SWIDTH 489 0
DWIDTH 15 0
BBX 14 18 -1 0
BITMAP
c040
e070
787c
381c
3818
3818
3818
3818
3818
3818
3818
3818
3838
3878
3ce0
0fc0
0780
0300
ENDCHAR
STARTCHAR GothicCapW
ENCODING 87
SWIDTH 790 0
DWIDTH 24 0
BBX 22 18 1 0
BITMAP
c00040
e030f0
78307c
38301c
383038
383038
383038
383038
383038
383038
383038
383038
383038
387078
3dfce0
1fdfc0
070780
020300
ENDCHAR
STARTCHAR GothicCapX
ENCODING 88
SWIDTH 574 0
DWIDTH 17 0
BBX 15 19 1 -1
BITMAP
2070
787e
783c
1c38
0e38
0e70
07e0
1ffc
7ffe
fffc
4fc0
1ce0
3870
7870
f038
f01c
780e
3c06
0800
ENDCHAR
STARTCHAR GothicCapY
ENCODING 89
SWIDTH 526 0
DWIDTH 16 0
BBX 14 19 1 -1
BITMAP
c040
e0f0
f87c
381c
3838
3838
3838
3838
3838
3838
3c78
1ff8
07f8
01b8
1038
3878
3ff0
0fc0
0180
ENDCHAR
STARTCHAR GothicCapZ
ENCODING 90
SWIDTH 700 0
DWIDTH 21 0
BBX 19 17 1 0
BITMAP
0fc000
1ffc00
087fe0
0007e0
000f00
001e00
003c00
0fff00
07ff80
01c780
038000
070000
0e0000
3c0000
ffe080
ffffc0
407f80
ENDCHAR
STARTCHAR bracketleft
ENCODING 91
SWIDTH 263 0
DWIDTH 8 0
BBX 0 0 0 0
BITMAP
ENDCHAR
STARTCHAR backslash
ENCODING 92
SWIDTH 263 0
DWIDTH 8 0
BBX 0 0 0 0
BITMAP
ENDCHAR
STARTCHAR bracketright
ENCODING 93
SWIDTH 263 0
DWIDTH 8 0
BBX 0 0 0 0
BITMAP
ENDCHAR
STARTCHAR asciicircum
ENCODING 94
SWIDTH 263 0
DWIDTH 8 0
BBX 0 0 0 0
BITMAP
ENDCHAR
STARTCHAR underscore
ENCODING 95
SWIDTH 263 0
DWIDTH 8 0
BBX 0 0 0 0
BITMAP
ENDCHAR
STARTCHAR grave
ENCODING 96
SWIDTH 263 0
DWIDTH 8 0
BBX 0 0 0 0
BITMAP
ENDCHAR
STARTCHAR GothicA
ENCODING 97
SWIDTH 408 0
DWIDTH 12 0
BBX 9 13 1 0
BITMAP
1800
7f00
ff80
c380
c180
c180
c180
c180
c180
e780
ff80
7d80
1180
ENDCHAR
STARTCHAR GothicB
ENCODING 98
SWIDTH 462 0
DWIDTH 14 0
BBX 11 19 2 0
BITMAP
e000
e000
e000
e000
e000
e400
ff00
ffc0
f9e0
e0e0
e0e0
e0e0
e0e0
e0e0
f0e0
f9e0
ffc0
cf00
c400
ENDCHAR
STARTCHAR GothicC
ENCODING 99
SWIDTH 375 0
DWIDTH 11 0
BBX 9 14 0 0
BITMAP
0c00
1e00
7f80
f380
e100
e000
e000
e000
e000
e000
f300
7f80
1f00
0600
ENDCHAR
STARTCHAR GothicD
ENCODING 100
SWIDTH 419 0
DWIDTH 13 0
BBX 11 19 0 0
BITMAP
00e0
00e0
00e0
00e0
00e0
00e0
1ee0
7fe0
f3e0
e0e0
e0e0
e0e0
e0e0
e0e0
e1e0
f3e0
7fe0
1e60
0460
ENDCHAR
STARTCHAR GothicE
ENCODING 101
SWIDTH 379 0
DWIDTH 11 0
BBX 9 13 0 0
BITMAP
0c00
3e00
7f00
e380
e780
ff00
fc00
f000
e000
e100
fb80
3f00
0c00
ENDCHAR
STARTCHAR GothicF
ENCODING 102
SWIDTH 354 0
DWIDTH 11 0
BBX 10 22 0 -3
BITMAP
0600
0f80
3fc0
39c0
3840
3800
ff80
ff80
3800
3800
3800
3800
3800
3800
3800
3800
3800
3800
3800
3800
3800
3800
ENDCHAR
STARTCHAR GothicG
ENCODING 103
SWIDTH 438 0
DWIDTH 13 0
BBX 10 20 1 -6
BITMAP
0800
3e00
7f80
f3c0
e1c0
e1c0
e1c0
e1c0
e1c0
e1c0
e3c0
7fc0
3fc0
19c0
41c0
c1c0
f780
7f00
3c00
0800
ENDCHAR
STARTCHAR GothicH
ENCODING 104
SWIDTH 428 0
DWIDTH 13 0
BBX 11 19 0 0
BITMAP
e000
e000
e000
e000
e000
e000
e600
ff80
fbc0
f0e0
e0e0
e0e0
e0e0
e0e0
e0e0
e0e0
e0e0
e0e0
e0e0
ENDCHAR
STARTCHAR GothicI
ENCODING 105
SWIDTH 211 0
DWIDTH 6 0
BBX 4 18 0 0
BITMAP
e0
e0
00
00
e0
e0
e0
e0
e0
e0
e0
e0
e0
e0
e0
f0
70
20
ENDCHAR
STARTCHAR GothicJ
ENCODING 106
SWIDTH 234 0
DWIDTH 7 0
BBX 5 23 0 -6
BITMAP
18
18
18
00
18
18
18
18
18
18
18
18
18
18
18
18
18
38
38
70
e0
e0
40
ENDCHAR
STARTCHAR GothicK
ENCODING 107
SWIDTH 414 0
DWIDTH 12 0
BBX 10 19 0 0
BITMAP
e000
e000
e000
e000
e000
e100
ef00
ff80
fb80
e1c0
e7c0
ff00
ff80
fb80
e180
e180
e180
e180
e180
ENDCHAR
STARTCHAR GothicL
ENCODING 108
SWIDTH 236 0
DWIDTH 7 0
BBX 5 19 1 0
BITMAP
60
60
60
60
60
60
60
60
60
60
60
60
60
60
e0
e0
f0
78
20
ENDCHAR
STARTCHAR GothicM
ENCODING 109
SWIDTH 636 0
DWIDTH 19 0
BBX 17 14 1 0
BITMAP
e40800
ee3c00
ffff00
f3e780
e1c380
e1c380
e1c380
e1c380
e1c380
e1c380
e1c380
e1c380
e1c380
e1c380
ENDCHAR
STARTCHAR GothicN
ENCODING 110
SWIDTH 410 0
DWIDTH 12 0
BBX 10 14 1 0
BITMAP
e400
ee00
ff80
f3c0
e1c0
e1c0
e1c0
e1c0
e1c0
e1c0
e1c0
e1c0
e1c0
e1c0
ENDCHAR
STARTCHAR GothicO
ENCODING 111
SWIDTH 406 0
DWIDTH 12 0
BBX 9 14 1 0
BITMAP
0800
3e00
7f80
e380
c180
c180
c180
c180
c180
c380
e780
ff00
3e00
0c00
ENDCHAR
STARTCHAR GothicP
ENCODING 112
SWIDTH 427 0
DWIDTH 13 0
BBX 11 19 1 -5
BITMAP
e400
ef00
ffc0
f9e0
e0e0
e0e0
e0e0
e0e0
e0e0
e0e0
f1e0
ffc0
ff80
e700
e000
e000
e000
e000
e000
ENDCHAR
STARTCHAR GothicQ
ENCODING 113
SWIDTH 410 0
DWIDTH 12 0
BBX 9 20 1 -6
BITMAP
1800
3e00
ff80
e780
c180
c180
c180
c180
c180
c180
c780
ff80
7f80
3d80
0980
0180
0180
0180
0180
0180
ENDCHAR
STARTCHAR GothicR
ENCODING 114
SWIDTH 373 0
DWIDTH 11 0
BBX 10 14 1 0
BITMAP
6000
6c00
7f80
fbc0
f0c0
e000
e000
e000
e000
e000
e000
e000
e000
e000
ENDCHAR
STARTCHAR GothicS
ENCODING 115
SWIDTH 507 0
DWIDTH 15 0
BBX 12 14 1 0
BITMAP
0f00
1ff0
3bf0
7000
71c0
7fe0
3fe0
1c70
6070
f070
f8f0
1de0
1f80
0e00
ENDCHAR
STARTCHAR GothicT
ENCODING 116
SWIDTH 366 0
DWIDTH 11 0
BBX 8 16 1 0
BITMAP
38
38
38
ff
ff
38
38
38
38
38
38
38
38
3c
0e
04
ENDCHAR
STARTCHAR GothicU
ENCODING 117
SWIDTH 473 0
DWIDTH 14 0
BBX 11 13 2 0
BITMAP
e0e0
e0e0
e0e0
e0e0
e0e0
e0e0
e0e0
e0e0
e0e0
e1e0
7be0
3fe0
0ce0
ENDCHAR
STARTCHAR GothicV
ENCODING 118
SWIDTH 454 0
DWIDTH 14 0
BBX 10 13 2 0
BITMAP
e1c0
e1c0
e1c0
e1c0
e1c0
e1c0
e1c0
e1c0
e1c0
f3c0
7f00
1e00
0c00
ENDCHAR
STARTCHAR GothicW
ENCODING 119
SWIDTH 673 0
DWIDTH 20 0
BBX 17 13 2 0
BITMAP
e1c380
61c380
61c380
61c380
61c380
61c380
e1c380
e1c380
e1c380
f3c780
7ffe00
1e7c00
0c1000
ENDCHAR
STARTCHAR GothicX
ENCODING 120
SWIDTH 520 0
DWIDTH 16 0
BBX 13 14 1 0
BITMAP
e180
f9e0
78f0
1de0
0fc0
7ff0
fff0
ffc0
1f80
39c0
70e0
f0f0
7870
1008
ENDCHAR
STARTCHAR GothicY
ENCODING 121
SWIDTH 491 0
DWIDTH 15 0
BBX 11 20 2 -7
BITMAP
70e0
70e0
70e0
70e0
70e0
70e0
70e0
70e0
70e0
70e0
71e0
7fe0
1fe0
04e0
80e0
c0e0
f3c0
7f80
1e00
0400
ENDCHAR
STARTCHAR GothicZ
ENCODING 122
SWIDTH 534 0
DWIDTH 16 0
BBX 13 13 1 0
BITMAP
1f90
1ff8
11f8
0070
00e0
1ff0
1ff0
0700
0e00
7c00
fe10
dff8
01f0
ENDCHAR
STARTCHAR braceleft
ENCODING 123
SWIDTH 263 0
DWIDTH 8 0
BBX 0 0 0 0
BITMAP
ENDCHAR
STARTCHAR bar
ENCODING 124
SWIDTH 263 0
DWIDTH 8 0
BBX 0 0 0 0
BITMAP
ENDCHAR
STARTCHAR braceright
ENCODING 125
SWIDTH 263 0
DWIDTH 8 0
BBX 0 0 0 0
BITMAP
ENDCHAR
STARTCHAR asciitilde
ENCODING 126
SWIDTH 263 0
DWIDTH 8 0
BBX 0 0 0 0
BITMAP
ENDCHAR
STARTCHAR DEL
ENCODING 127
SWIDTH 263 0
DWIDTH 8 0
BBX 0 0 0 0
BITMAP
ENDCHAR
STARTCHAR Adieresis
ENCODING 128
SWIDTH 263 0
DWIDTH 8 0
BBX 0 0 0 0
BITMAP
ENDCHAR
STARTCHAR Aring
ENCODING 129
SWIDTH 263 0
DWIDTH 8 0
BBX 0 0 0 0
BITMAP
ENDCHAR
STARTCHAR Ccedilla
ENCODING 130
SWIDTH 263 0
DWIDTH 8 0
BBX 0 0 0 0
BITMAP
ENDCHAR
STARTCHAR Eacute
ENCODING 131
SWIDTH 263 0
DWIDTH 8 0
BBX 0 0 0 0
BITMAP
ENDCHAR
STARTCHAR Ntilde
ENCODING 132
SWIDTH 263 0
DWIDTH 8 0
BBX 0 0 0 0
BITMAP
ENDCHAR
STARTCHAR Odieresis
ENCODING 133
SWIDTH 263 0
DWIDTH 8 0
BBX 0 0 0 0
BITMAP
ENDCHAR
STARTCHAR Udieresis
ENCODING 134
SWIDTH 263 0
DWIDTH 8 0
BBX 0 0 0 0
BITMAP
ENDCHAR
STARTCHAR aacute
ENCODING 135
SWIDTH 263 0
DWIDTH 8 0
BBX 0 0 0 0
BITMAP
ENDCHAR
STARTCHAR agrave
ENCODING 136
SWIDTH 263 0
DWIDTH 8 0
BBX 0 0 0 0
BITMAP
ENDCHAR
STARTCHAR acircumflex
ENCODING 137
SWIDTH 263 0
DWIDTH 8 0
BBX 0 0 0 0
BITMAP
ENDCHAR
STARTCHAR adieresis
ENCODING 138
SWIDTH 263 0
DWIDTH 8 0
BBX 0 0 0 0
BITMAP
ENDCHAR
STARTCHAR atilde
ENCODING 139
SWIDTH 263 0
DWIDTH 8 0
BBX 0 0 0 0
BITMAP
ENDCHAR
STARTCHAR aring
ENCODING 140
SWIDTH 263 0
DWIDTH 8 0
BBX 0 0 0 0
BITMAP
ENDCHAR
STARTCHAR ccedilla
ENCODING 141
SWIDTH 263 0
DWIDTH 8 0
BBX 0 0 0 0
BITMAP
ENDCHAR
STARTCHAR eacute
ENCODING 142
SWIDTH 263 0
DWIDTH 8 0
BBX 0 0 0 0
BITMAP
ENDCHAR
STARTCHAR egrave
ENCODING 143
SWIDTH 263 0
DWIDTH 8 0
BBX 0 0 0 0
BITMAP
ENDCHAR
STARTCHAR ecircumflex
ENCODING 144
SWIDTH 263 0
DWIDTH 8 0
BBX 0 0 0 0
BITMAP
ENDCHAR
STARTCHAR edieresis
ENCODING 145
SWIDTH 263 0
DWIDTH 8 0
BBX 0 0 0 0
BITMAP
ENDCHAR
STARTCHAR iacute
ENCODING 146
SWIDTH 263 0
DWIDTH 8 0
BBX 0 0 0 0
BITMAP
ENDCHAR
STARTCHAR igrave
ENCODING 147
SWIDTH 263 0
DWIDTH 8 0
BBX 0 0 0 0
BITMAP
ENDCHAR
STARTCHAR icircumflex
ENCODING 148
SWIDTH 263 0
DWIDTH 8 0
BBX 0 0 0 0
BITMAP
ENDCHAR
STARTCHAR idieresis
ENCODING 149
SWIDTH 263 0
DWIDTH 8 0
BBX 0 0 0 0
BITMAP
ENDCHAR
STARTCHAR ntilde
ENCODING 150
SWIDTH 263 0
DWIDTH 8 0
BBX 0 0 0 0
BITMAP
ENDCHAR
STARTCHAR oacute
ENCODING 151
SWIDTH 263 0
DWIDTH 8 0
BBX 0 0 0 0
BITMAP
ENDCHAR
STARTCHAR ograve
ENCODING 152
SWIDTH 263 0
DWIDTH 8 0
BBX 0 0 0 0
BITMAP
ENDCHAR
STARTCHAR ocircumflex
ENCODING 153
SWIDTH 263 0
DWIDTH 8 0
BBX 0 0 0 0
BITMAP
ENDCHAR
STARTCHAR odieresis
ENCODING 154
SWIDTH 263 0
DWIDTH 8 0
BBX 0 0 0 0
BITMAP
ENDCHAR
STARTCHAR otilde
ENCODING 155
SWIDTH 263 0
DWIDTH 8 0
BBX 0 0 0 0
BITMAP
ENDCHAR
STARTCHAR uacute
ENCODING 156
SWIDTH 263 0
DWIDTH 8 0
BBX 0 0 0 0
BITMAP
ENDCHAR
STARTCHAR ugrave
ENCODING 157
SWIDTH 263 0
DWIDTH 8 0
BBX 0 0 0 0
BITMAP
ENDCHAR
STARTCHAR ucircumflex
ENCODING 158
SWIDTH 263 0
DWIDTH 8 0
BBX 0 0 0 0
BITMAP
ENDCHAR
STARTCHAR udieresis
ENCODING 159
SWIDTH 263 0
DWIDTH 8 0
BBX 0 0 0 0
BITMAP
ENDCHAR
STARTCHAR dagger
ENCODING 160
SWIDTH 263 0
DWIDTH 8 0
BBX 0 0 0 0
BITMAP
ENDCHAR
STARTCHAR degree
ENCODING 161
SWIDTH 263 0
DWIDTH 8 0
BBX 0 0 0 0
BITMAP
ENDCHAR
STARTCHAR cent
ENCODING 162
SWIDTH 263 0
DWIDTH 8 0
BBX 0 0 0 0
BITMAP
ENDCHAR
STARTCHAR sterling
ENCODING 163
SWIDTH 263 0
DWIDTH 8 0
BBX 0 0 0 0
BITMAP
ENDCHAR
STARTCHAR section
ENCODING 164
SWIDTH 263 0
DWIDTH 8 0
BBX 0 0 0 0
BITMAP
ENDCHAR
STARTCHAR bullet
ENCODING 165
SWIDTH 263 0
DWIDTH 8 0
BBX 0 0 0 0
BITMAP
ENDCHAR
STARTCHAR paragraph
ENCODING 166
SWIDTH 263 0
DWIDTH 8 0
BBX 0 0 0 0
BITMAP
ENDCHAR
STARTCHAR germandbls
ENCODING 167
SWIDTH 263 0
DWIDTH 8 0
BBX 0 0 0 0
BITMAP
ENDCHAR
STARTCHAR registered
ENCODING 168
SWIDTH 263 0
DWIDTH 8 0
BBX 0 0 0 0
BITMAP
ENDCHAR
STARTCHAR copyright
ENCODING 169
SWIDTH 263 0
DWIDTH 8 0
BBX 0 0 0 0
BITMAP
ENDCHAR
STARTCHAR trademark
ENCODING 170
SWIDTH 263 0
DWIDTH 8 0
BBX 0 0 0 0
BITMAP
ENDCHAR
STARTCHAR acute
ENCODING 171
SWIDTH 263 0
DWIDTH 8 0
BBX 0 0 0 0
BITMAP
ENDCHAR
STARTCHAR dieresis
ENCODING 172
SWIDTH 263 0
DWIDTH 8 0
BBX 0 0 0 0
BITMAP
ENDCHAR
STARTCHAR notequal
ENCODING 173
SWIDTH 263 0
DWIDTH 8 0
BBX 0 0 0 0
BITMAP
ENDCHAR
STARTCHAR AE
ENCODING 174
SWIDTH 263 0
DWIDTH 8 0
BBX 0 0 0 0
BITMAP
ENDCHAR
STARTCHAR Oslash
ENCODING 175
SWIDTH 263 0
DWIDTH 8 0
BBX 0 0 0 0
BITMAP
ENDCHAR
STARTCHAR infinity
ENCODING 176
SWIDTH 263 0
DWIDTH 8 0
BBX 0 0 0 0
BITMAP
ENDCHAR
STARTCHAR plusminus
ENCODING 177
SWIDTH 263 0
DWIDTH 8 0
BBX 0 0 0 0
BITMAP
ENDCHAR
STARTCHAR lessequal
ENCODING 178
SWIDTH 263 0
DWIDTH 8 0
BBX 0 0 0 0
BITMAP
ENDCHAR
STARTCHAR greaterequal
ENCODING 179
SWIDTH 263 0
DWIDTH 8 0
BBX 0 0 0 0
BITMAP
ENDCHAR
STARTCHAR yen
ENCODING 180
SWIDTH 263 0
DWIDTH 8 0
BBX 0 0 0 0
BITMAP
ENDCHAR
STARTCHAR mu
ENCODING 181
SWIDTH 263 0
DWIDTH 8 0
BBX 0 0 0 0
BITMAP
ENDCHAR
STARTCHAR partialdiff
ENCODING 182
SWIDTH 263 0
DWIDTH 8 0
BBX 0 0 0 0
BITMAP
ENDCHAR
STARTCHAR summation
ENCODING 183
SWIDTH 263 0
DWIDTH 8 0
BBX 0 0 0 0
BITMAP
ENDCHAR
STARTCHAR product
ENCODING 184
SWIDTH 263 0
DWIDTH 8 0
BBX 0 0 0 0
BITMAP
ENDCHAR
STARTCHAR pi
ENCODING 185
SWIDTH 263 0
DWIDTH 8 0
BBX 0 0 0 0
BITMAP
ENDCHAR
STARTCHAR integral
ENCODING 186
SWIDTH 263 0
DWIDTH 8 0
BBX 0 0 0 0
BITMAP
ENDCHAR
STARTCHAR ordfeminine
ENCODING 187
SWIDTH 263 0
DWIDTH 8 0
BBX 0 0 0 0
BITMAP
ENDCHAR
STARTCHAR ordmasculine
ENCODING 188
SWIDTH 263 0
DWIDTH 8 0
BBX 0 0 0 0
BITMAP
ENDCHAR
STARTCHAR Omega
ENCODING 189
SWIDTH 263 0
DWIDTH 8 0
BBX 0 0 0 0
BITMAP
ENDCHAR
STARTCHAR ae
ENCODING 190
SWIDTH 263 0
DWIDTH 8 0
BBX 0 0 0 0
BITMAP
ENDCHAR
STARTCHAR oslash
ENCODING 191
SWIDTH 263 0
DWIDTH 8 0
BBX 0 0 0 0
BITMAP
ENDCHAR
STARTCHAR questiondown
ENCODING 192
SWIDTH 263 0
DWIDTH 8 0
BBX 0 0 0 0
BITMAP
ENDCHAR
STARTCHAR exclamdown
ENCODING 193
SWIDTH 263 0
DWIDTH 8 0
BBX 0 0 0 0
BITMAP
ENDCHAR
STARTCHAR logicalnot
ENCODING 194
SWIDTH 263 0
DWIDTH 8 0
BBX 0 0 0 0
BITMAP
ENDCHAR
STARTCHAR radical
ENCODING 195
SWIDTH 263 0
DWIDTH 8 0
BBX 0 0 0 0
BITMAP
ENDCHAR
STARTCHAR florin
ENCODING 196
SWIDTH 263 0
DWIDTH 8 0
BBX 0 0 0 0
BITMAP
ENDCHAR
STARTCHAR approxequal
ENCODING 197
SWIDTH 263 0
DWIDTH 8 0
BBX 0 0 0 0
BITMAP
ENDCHAR
STARTCHAR Delta
ENCODING 198
SWIDTH 263 0
DWIDTH 8 0
BBX 0 0 0 0
BITMAP
ENDCHAR
STARTCHAR guillemotleft
ENCODING 199
SWIDTH 263 0
DWIDTH 8 0
BBX 0 0 0 0
BITMAP
ENDCHAR
STARTCHAR guillemotright
ENCODING 200
SWIDTH 263 0
DWIDTH 8 0
BBX 0 0 0 0
BITMAP
ENDCHAR
STARTCHAR ellipsis
ENCODING 201
SWIDTH 263 0
DWIDTH 8 0
BBX 0 0 0 0
BITMAP
ENDCHAR
STARTCHAR nbspace
ENCODING 202
SWIDTH 263 0
DWIDTH 8 0
BBX 0 0 0 0
BITMAP
ENDCHAR
STARTCHAR Agrave
ENCODING 203
SWIDTH 263 0
DWIDTH 8 0
BBX 0 0 0 0
BITMAP
ENDCHAR
STARTCHAR Atilde
ENCODING 204
SWIDTH 263 0
DWIDTH 8 0
BBX 0 0 0 0
BITMAP
ENDCHAR
STARTCHAR Otilde
ENCODING 205
SWIDTH 263 0
DWIDTH 8 0
BBX 0 0 0 0
BITMAP
ENDCHAR
STARTCHAR OE
ENCODING 206
SWIDTH 263 0
DWIDTH 8 0
BBX 0 0 0 0
BITMAP
ENDCHAR
STARTCHAR oe
ENCODING 207
SWIDTH 263 0
DWIDTH 8 0
BBX 0 0 0 0
BITMAP
ENDCHAR
STARTCHAR endash
ENCODING 208
SWIDTH 263 0
DWIDTH 8 0
BBX 0 0 0 0
BITMAP
ENDCHAR
STARTCHAR emdash
ENCODING 209
SWIDTH 263 0
DWIDTH 8 0
BBX 0 0 0 0
BITMAP
ENDCHAR
STARTCHAR quotedblleft
ENCODING 210
SWIDTH 263 0
DWIDTH 8 0
BBX 0 0 0 0
BITMAP
ENDCHAR
STARTCHAR quotedblright
ENCODING 211
SWIDTH 263 0
DWIDTH 8 0
BBX 0 0 0 0
BITMAP
ENDCHAR
STARTCHAR quoteleft
ENCODING 212
SWIDTH 263 0
DWIDTH 8 0
BBX 0 0 0 0
BITMAP
ENDCHAR
STARTCHAR quoteright
ENCODING 213
SWIDTH 263 0
DWIDTH 8 0
BBX 0 0 0 0
BITMAP
ENDCHAR
STARTCHAR divide
ENCODING 214
SWIDTH 263 0
DWIDTH 8 0
BBX 0 0 0 0
BITMAP
ENDCHAR
STARTCHAR lozenge
ENCODING 215
SWIDTH 263 0
DWIDTH 8 0
BBX 0 0 0 0
BITMAP
ENDCHAR
STARTCHAR ydieresis
ENCODING 216
SWIDTH 263 0
DWIDTH 8 0
BBX 0 0 0 0
BITMAP
ENDCHAR
STARTCHAR Ydieresis
ENCODING 217
SWIDTH 263 0
DWIDTH 8 0
BBX 0 0 0 0
BITMAP
ENDCHAR
STARTCHAR fraction
ENCODING 218
SWIDTH 263 0
DWIDTH 8 0
BBX 0 0 0 0
BITMAP
ENDCHAR
STARTCHAR currency
ENCODING 219
SWIDTH 263 0
DWIDTH 8 0
BBX 0 0 0 0
BITMAP
ENDCHAR
STARTCHAR guilsinglleft
ENCODING 220
SWIDTH 263 0
DWIDTH 8 0
BBX 0 0 0 0
BITMAP
ENDCHAR
STARTCHAR guilsinglright
ENCODING 221
SWIDTH 263 0
DWIDTH 8 0
BBX 0 0 0 0
BITMAP
ENDCHAR
STARTCHAR fi
ENCODING 222
SWIDTH 263 0
DWIDTH 8 0
BBX 0 0 0 0
BITMAP
ENDCHAR
STARTCHAR fl
ENCODING 223
SWIDTH 263 0
DWIDTH 8 0
BBX 0 0 0 0
BITMAP
ENDCHAR
STARTCHAR daggerdbl
ENCODING 224
SWIDTH 263 0
DWIDTH 8 0
BBX 0 0 0 0
BITMAP
ENDCHAR
STARTCHAR periodcentered
ENCODING 225
SWIDTH 263 0
DWIDTH 8 0
BBX 0 0 0 0
BITMAP
ENDCHAR
STARTCHAR quotesinglbase
ENCODING 226
SWIDTH 263 0
DWIDTH 8 0
BBX 0 0 0 0
BITMAP
ENDCHAR
STARTCHAR quotedblbase
ENCODING 227
SWIDTH 263 0
DWIDTH 8 0
BBX 0 0 0 0
BITMAP
ENDCHAR
STARTCHAR perthousand
ENCODING 228
SWIDTH 263 0
DWIDTH 8 0
BBX 0 0 0 0
BITMAP
ENDCHAR
STARTCHAR Acircumflex
ENCODING 229
SWIDTH 263 0
DWIDTH 8 0
BBX 0 0 0 0
BITMAP
ENDCHAR
STARTCHAR Ecircumflex
ENCODING 230
SWIDTH 263 0
DWIDTH 8 0
BBX 0 0 0 0
BITMAP
ENDCHAR
STARTCHAR Aacute
ENCODING 231
SWIDTH 263 0
DWIDTH 8 0
BBX 0 0 0 0
BITMAP
ENDCHAR
STARTCHAR Edieresis
ENCODING 232
SWIDTH 263 0
DWIDTH 8 0
BBX 0 0 0 0
BITMAP
ENDCHAR
STARTCHAR Egrave
ENCODING 233
SWIDTH 263 0
DWIDTH 8 0
BBX 0 0 0 0
BITMAP
ENDCHAR
STARTCHAR Iacute
ENCODING 234
SWIDTH 263 0
DWIDTH 8 0
BBX 0 0 0 0
BITMAP
ENDCHAR
STARTCHAR Icircumflex
ENCODING 235
SWIDTH 263 0
DWIDTH 8 0
BBX 0 0 0 0
BITMAP
ENDCHAR
STARTCHAR Idieresis
ENCODING 236
SWIDTH 263 0
DWIDTH 8 0
BBX 0 0 0 0
BITMAP
ENDCHAR
STARTCHAR Igrave
ENCODING 237
SWIDTH 263 0
DWIDTH 8 0
BBX 0 0 0 0
BITMAP
ENDCHAR
STARTCHAR Oacute
ENCODING 238
SWIDTH 263 0
DWIDTH 8 0
BBX 0 0 0 0
BITMAP
ENDCHAR
STARTCHAR Ocircumflex
ENCODING 239
SWIDTH 263 0
DWIDTH 8 0
BBX 0 0 0 0
BITMAP
ENDCHAR
STARTCHAR apple
ENCODING 240
SWIDTH 263 0
DWIDTH 8 0
BBX 0 0 0 0
BITMAP
ENDCHAR
STARTCHAR Ograve
ENCODING 241
SWIDTH 263 0
DWIDTH 8 0
BBX 0 0 0 0
BITMAP
ENDCHAR
STARTCHAR Uacute
ENCODING 242
SWIDTH 263 0
DWIDTH 8 0
BBX 0 0 0 0
BITMAP
ENDCHAR
STARTCHAR Ucircumflex
ENCODING 243
SWIDTH 263 0
DWIDTH 8 0
BBX 0 0 0 0
BITMAP
ENDCHAR
STARTCHAR Ugrave
ENCODING 244
SWIDTH 263 0
DWIDTH 8 0
BBX 0 0 0 0
BITMAP
ENDCHAR
STARTCHAR dotlessi
ENCODING 245
SWIDTH 263 0
DWIDTH 8 0
BBX 0 0 0 0
BITMAP
ENDCHAR
STARTCHAR circumflex
ENCODING 246
SWIDTH 263 0
DWIDTH 8 0
BBX 0 0 0 0
BITMAP
ENDCHAR
STARTCHAR tilde
ENCODING 247
SWIDTH 263 0
DWIDTH 8 0
BBX 0 0 0 0
BITMAP
ENDCHAR
STARTCHAR macron
ENCODING 248
SWIDTH 263 0
DWIDTH 8 0
BBX 0 0 0 0
BITMAP
ENDCHAR
STARTCHAR breve
ENCODING 249
SWIDTH 263 0
DWIDTH 8 0
BBX 0 0 0 0
BITMAP
ENDCHAR
STARTCHAR dotaccent
ENCODING 250
SWIDTH 263 0
DWIDTH 8 0
BBX 0 0 0 0
BITMAP
ENDCHAR
STARTCHAR ring
ENCODING 251
SWIDTH 263 0
DWIDTH 8 0
BBX 0 0 0 0
BITMAP
ENDCHAR
STARTCHAR cedilla
ENCODING 252
SWIDTH 263 0
DWIDTH 8 0
BBX 0 0 0 0
BITMAP
ENDCHAR
STARTCHAR hungarumlaut
ENCODING 253
SWIDTH 263 0
DWIDTH 8 0
BBX 0 0 0 0
BITMAP
ENDCHAR
STARTCHAR ogonek
ENCODING 254
SWIDTH 263 0
DWIDTH 8 0
BBX 0 0 0 0
BITMAP
ENDCHAR
STARTCHAR caron
ENCODING 255
SWIDTH 263 0
DWIDTH 8 0
BBX 0 0 0 0
BITMAP
ENDCHAR
ENDFONT
