STARTFONT 2.1
FONT -WRI-Mathematica5Mono-Bold-R-Normal--18-180-75-75-M-100-Adobe-FontSpecific
SIZE 18 75 75
FONTBOUNDINGBOX 45 38 -2 -15
STARTPROPERTIES 16
FOUNDRY "WRI"
FAMILY_NAME "Mathematica5Mono"
WEIGHT_NAME "Bold"
SLANT "R"
SETWIDTH_NAME "Normal"
PIXEL_SIZE 18
POINT_SIZE 180
RESOLUTION_X 75
RESOLUTION_Y 75
SPACING "M"
AVERAGE_WIDTH 100
CHARSET_REGISTRY "Adobe"
CHARSET_ENCODING "FontSpecific"
FONT_DESCENT 15
FONT_ASCENT 23
DEFAULT_CHAR 32
ENDPROPERTIES
CHARS 228
STARTCHAR Villa
ENCODING 1
SWIDTH 627 0
DWIDTH 11 0
BBX 11 15 0 -3
BITMAP
0480
0a80
1180
2e80
4040
bfa0
2080
2e80
2a80
2a80
2a80
3f80
0a00
1200
2100
ENDCHAR
STARTCHAR Kooz
ENCODING 2
SWIDTH 746 0
DWIDTH 13 0
BBX 14 16 -1 -3
BITMAP
05c0
17e0
0c70
32a0
0810
8a20
4ba0
3858
5784
4804
3154
28d4
2864
11a4
1014
0008
ENDCHAR
STARTCHAR Andy
ENCODING 3
SWIDTH 1000 0
DWIDTH 18 0
BBX 12 12 3 0
BITMAP
0400
0400
04e0
ff00
e500
1e00
0300
0300
0600
1800
1070
0f80
ENDCHAR
STARTCHAR Spooky
ENCODING 4
SWIDTH 535 0
DWIDTH 10 0
BBX 10 11 0 0
BITMAP
4100
6300
5d00
4100
f740
5580
c940
4980
5d00
8080
4100
ENDCHAR
STARTCHAR space
ENCODING 32
SWIDTH 263 0
DWIDTH 5 0
BBX 0 0 0 0
BITMAP
ENDCHAR
STARTCHAR BckspcKey
ENCODING 33
SWIDTH 1981 0
DWIDTH 36 0
BBX 33 14 1 -2
BITMAP
ffffffff80
8000000080
8000000080
8000000080
bce93bce80
a31a463180
a30c223080
bd0c13d080
a30a0a1080
a30a461080
a319461180
bce8ba0e80
8000000080
ffffffff80
ENDCHAR
STARTCHAR HomeKey
ENCODING 34
SWIDTH 1603 0
DWIDTH 29 0
BBX 27 14 1 -2
BITMAP
ffffffe0
80000020
80000020
80000020
a4e417a0
a5163420
a5163420
bd155720
a5155420
a5149420
a5149420
a4e417a0
80000020
ffffffe0
ENDCHAR
STARTCHAR PgupKey
ENCODING 35
SWIDTH 1444 0
DWIDTH 26 0
BBX 24 14 1 -2
BITMAP
ffffff
800001
800001
800001
b8c8b9
a528a5
a508a5
b968b9
a128a1
a128a1
a128a1
a0e721
800001
ffffff
ENDCHAR
STARTCHAR PgdwnKey
ENCODING 36
SWIDTH 1999 0
DWIDTH 36 0
BBX 34 14 1 -2
BITMAP
ffffffffc0
8000000040
8000000040
8000000040
b8cf445140
a528a65940
a508aa9940
b968aa9540
a128aa9540
a128a99340
a128911340
a0e7111140
8000000040
ffffffffc0
ENDCHAR
STARTCHAR EndKey
ENCODING 37
SWIDTH 1187 0
DWIDTH 21 0
BBX 19 14 1 -2
BITMAP
ffffe0
800020
800020
800020
bd1f20
a198a0
a198a0
b958a0
a158a0
a138a0
a138a0
bd1f20
800020
ffffe0
ENDCHAR
STARTCHAR FilledHeart
ENCODING 38
SWIDTH 605 0
DWIDTH 11 0
BBX 9 10 1 0
BITMAP
7700
ff80
ff80
ff80
ff80
7f00
3e00
1c00
0800
0800
ENDCHAR
STARTCHAR Euro
ENCODING 39
SWIDTH 600 0
DWIDTH 11 0
BBX 10 10 0 0
BITMAP
1e40
3bc0
31c0
60c0
ff00
6000
fe00
3080
3fc0
1f80
ENDCHAR
STARTCHAR CapitalOE
ENCODING 40
SWIDTH 600 0
DWIDTH 11 0
BBX 10 10 0 0
BITMAP
1fc0
7fc0
6640
c740
c700
c700
c740
e640
7fc0
3fc0
ENDCHAR
STARTCHAR OE
ENCODING 41
SWIDTH 600 0
DWIDTH 11 0
BBX 11 9 0 0
BITMAP
3bc0
7fe0
ee60
c7e0
c7e0
c600
ee00
7fe0
3be0
ENDCHAR
STARTCHAR ABar
ENCODING 42
SWIDTH 600 0
DWIDTH 11 0
BBX 9 11 1 0
BITMAP
7f80
7f80
0000
7e00
6300
0300
3f00
e300
c300
cf00
7b80
ENDCHAR
STARTCHAR ACup
ENCODING 43
SWIDTH 600 0
DWIDTH 11 0
BBX 9 11 1 0
BITMAP
6180
3f00
1e00
7e00
6300
0300
3f00
e300
c300
cf00
7b80
ENDCHAR
STARTCHAR CapitalABar
ENCODING 44
SWIDTH 600 0
DWIDTH 11 0
BBX 10 13 0 0
BITMAP
7f80
7f80
0000
3c00
0c00
1e00
1e00
1200
3300
3f00
6100
6180
f3c0
ENDCHAR
STARTCHAR CapitalACup
ENCODING 45
SWIDTH 600 0
DWIDTH 11 0
BBX 10 14 0 0
BITMAP
6180
3f00
1e00
0000
3c00
0c00
1e00
1e00
1200
3300
3f00
6100
6180
f3c0
ENDCHAR
STARTCHAR CAcute
ENCODING 46
SWIDTH 600 0
DWIDTH 11 0
BBX 9 12 1 0
BITMAP
0600
0c00
1800
0000
3d00
6700
c300
c000
c000
c180
6300
3e00
ENDCHAR
STARTCHAR CHacek
ENCODING 47
SWIDTH 600 0
DWIDTH 11 0
BBX 9 12 1 0
BITMAP
6300
3600
1c00
0000
3d00
6700
c300
c000
c000
c180
6300
3e00
ENDCHAR
STARTCHAR ScriptZero
ENCODING 48
SWIDTH 588 0
DWIDTH 11 0
BBX 9 10 1 0
BITMAP
1f00
3180
6080
4080
8080
8080
8180
8300
c600
7c00
ENDCHAR
STARTCHAR ScriptOne
ENCODING 49
SWIDTH 600 0
DWIDTH 11 0
BBX 6 10 3 0
BITMAP
0c
78
08
08
18
10
10
10
30
fc
ENDCHAR
STARTCHAR ScriptTwo
ENCODING 50
SWIDTH 588 0
DWIDTH 11 0
BBX 9 10 1 0
BITMAP
1f00
3180
1080
0080
0300
0600
0c00
3800
6080
ff00
ENDCHAR
STARTCHAR ScriptThree
ENCODING 51
SWIDTH 600 0
DWIDTH 11 0
BBX 8 10 1 0
BITMAP
0e
31
01
01
0e
02
01
01
c2
7c
ENDCHAR
STARTCHAR ScriptFour
ENCODING 52
SWIDTH 600 0
DWIDTH 11 0
BBX 8 10 2 0
BITMAP
03
07
0b
12
22
46
fe
04
04
1e
ENDCHAR
STARTCHAR ScriptFive
ENCODING 53
SWIDTH 600 0
DWIDTH 11 0
BBX 9 10 1 0
BITMAP
1f80
1000
3000
3f00
3180
0080
0080
0180
c300
7e00
ENDCHAR
STARTCHAR ScriptSix
ENCODING 54
SWIDTH 548 0
DWIDTH 10 0
BBX 8 10 2 0
BITMAP
1f
30
60
40
b8
c4
84
84
88
70
ENDCHAR
STARTCHAR ScriptSeven
ENCODING 55
SWIDTH 559 0
DWIDTH 10 0
BBX 7 10 2 0
BITMAP
fe
86
04
0c
08
18
30
20
60
40
ENDCHAR
STARTCHAR ScriptEight
ENCODING 56
SWIDTH 548 0
DWIDTH 10 0
BBX 8 10 1 0
BITMAP
0f
31
21
21
3e
63
c1
c1
c6
7c
ENDCHAR
STARTCHAR ScriptNine
ENCODING 57
SWIDTH 548 0
DWIDTH 10 0
BBX 7 10 2 0
BITMAP
1c
22
42
42
46
3a
04
0c
18
f0
ENDCHAR
STARTCHAR ODoubleAcute
ENCODING 58
SWIDTH 600 0
DWIDTH 11 0
BBX 9 12 1 0
BITMAP
1980
3300
6600
0000
3e00
6300
c180
c180
c180
c180
6300
3e00
ENDCHAR
STARTCHAR CapitalODoubleAcute
ENCODING 59
SWIDTH 600 0
DWIDTH 11 0
BBX 9 14 1 0
BITMAP
1980
3300
6600
0000
1c00
7f00
6300
c180
c180
c180
c180
6300
7f00
1c00
ENDCHAR
STARTCHAR SHacek
ENCODING 60
SWIDTH 600 0
DWIDTH 11 0
BBX 8 12 2 0
BITMAP
c6
6c
38
00
7d
e7
e1
7e
1f
83
e7
bc
ENDCHAR
STARTCHAR CapitalSHacek
ENCODING 61
SWIDTH 600 0
DWIDTH 11 0
BBX 9 14 1 0
BITMAP
6300
3600
1c00
0000
3e80
7380
6180
7080
3e00
1f00
8380
c180
e300
be00
ENDCHAR
STARTCHAR UDoubleAcute
ENCODING 62
SWIDTH 600 0
DWIDTH 11 0
BBX 10 12 0 0
BITMAP
0cc0
1980
3300
0000
f380
f380
3180
3180
3180
3180
3f80
1dc0
ENDCHAR
STARTCHAR CapitalUDoubleAcute
ENCODING 63
SWIDTH 600 0
DWIDTH 11 0
BBX 11 14 0 0
BITMAP
0cc0
1980
3300
0000
fbe0
fbe0
30c0
30c0
30c0
30c0
30c0
39c0
1f80
0f00
ENDCHAR
STARTCHAR HSlash
ENCODING 64
SWIDTH 600 0
DWIDTH 11 0
BBX 9 11 0 0
BITMAP
3800
3800
7e00
1b00
1d80
3980
3180
3180
6300
6300
f780
ENDCHAR
STARTCHAR ScriptCapA
ENCODING 65
SWIDTH 695 0
DWIDTH 13 0
BBX 12 11 0 -1
BITMAP
07f0
1cf0
31a0
3360
17e0
0f60
0660
0460
cc60
f830
7000
ENDCHAR
STARTCHAR ScriptCapB
ENCODING 66
SWIDTH 669 0
DWIDTH 12 0
BBX 12 10 0 0
BITMAP
0fe0
1b30
3630
36e0
17c0
0c60
0c60
1860
70c0
ff80
ENDCHAR
STARTCHAR ScriptCapC
ENCODING 67
SWIDTH 569 0
DWIDTH 10 0
BBX 10 11 0 -1
BITMAP
0f80
18c0
30c0
6040
c000
c000
c000
c180
e180
7f00
1c00
ENDCHAR
STARTCHAR ScriptCapD
ENCODING 68
SWIDTH 673 0
DWIDTH 12 0
BBX 12 10 0 0
BITMAP
1fc0
3660
6630
6c30
6c30
0c30
1830
1860
70c0
ff80
ENDCHAR
STARTCHAR ScriptCapE
ENCODING 69
SWIDTH 579 0
DWIDTH 10 0
BBX 9 10 1 0
BITMAP
1f00
3180
3000
3e00
3e00
6080
c180
c180
c300
7e00
ENDCHAR
STARTCHAR ScriptCapF
ENCODING 70
SWIDTH 707 0
DWIDTH 13 0
BBX 14 12 0 -1
BITMAP
0008
1ffc
33f0
6600
67c0
6fc0
0c00
0c00
0800
1800
3000
e000
ENDCHAR
STARTCHAR ScriptCapG
ENCODING 71
SWIDTH 616 0
DWIDTH 11 0
BBX 11 13 0 -3
BITMAP
07c0
0c60
1860
3020
2000
67e0
66c0
6180
7780
3d80
c300
7e00
3c00
ENDCHAR
STARTCHAR ScriptCapH
ENCODING 72
SWIDTH 827 0
DWIDTH 15 0
BBX 15 12 0 -1
BITMAP
0006
1e0c
760c
c618
c638
47f8
0e10
0c30
0830
1830
3018
2000
ENDCHAR
STARTCHAR ScriptCapI
ENCODING 73
SWIDTH 645 0
DWIDTH 12 0
BBX 11 11 0 0
BITMAP
0020
0fe0
1380
0600
0600
0400
0c00
0c00
1800
3900
fe00
ENDCHAR
STARTCHAR ScriptCapJ
ENCODING 74
SWIDTH 711 0
DWIDTH 13 0
BBX 15 13 -2 -2
BITMAP
0004
03fe
0630
0c60
0c40
04c0
00c0
00c0
0080
0080
c180
e300
3e00
ENDCHAR
STARTCHAR ScriptCapK
ENCODING 75
SWIDTH 829 0
DWIDTH 15 0
BBX 14 11 0 0
BITMAP
0600
3e1c
6664
c6c0
cd80
4f00
0d80
1980
18c0
3060
6020
ENDCHAR
STARTCHAR ScriptCapL
ENCODING 76
SWIDTH 728 0
DWIDTH 13 0
BBX 12 12 0 -1
BITMAP
0060
00f0
0190
0300
0300
0200
0600
0600
0c00
3810
ff30
83e0
ENDCHAR
STARTCHAR ScriptCapM
ENCODING 77
SWIDTH 931 0
DWIDTH 17 0
BBX 17 12 0 -1
BITMAP
020180
060300
060300
060700
0f0f00
0d1b00
193300
19e300
31c300
30c300
608180
c00000
ENDCHAR
STARTCHAR ScriptCapN
ENCODING 78
SWIDTH 811 0
DWIDTH 15 0
BBX 14 12 0 -1
BITMAP
0004
0c0c
0c18
0c18
1e10
1a30
1330
31a0
30e0
3060
6060
c000
ENDCHAR
STARTCHAR ScriptCapO
ENCODING 79
SWIDTH 608 0
DWIDTH 11 0
BBX 11 11 0 0
BITMAP
0780
1fc0
3060
6060
c060
c060
c0c0
c0c0
c180
7700
3e00
ENDCHAR
STARTCHAR ScriptCapP
ENCODING 80
SWIDTH 636 0
DWIDTH 11 0
BBX 11 11 0 -1
BITMAP
1fc0
3c60
4c20
c860
d8c0
3f80
1800
3000
3000
6000
4000
ENDCHAR
STARTCHAR ScriptCapQ
ENCODING 81
SWIDTH 630 0
DWIDTH 11 0
BBX 11 12 0 -1
BITMAP
0f00
1f80
30c0
6060
c060
c060
c060
ccc0
ff80
6700
3f40
01e0
ENDCHAR
STARTCHAR ScriptCapR
ENCODING 82
SWIDTH 600 0
DWIDTH 11 0
BBX 11 11 0 0
BITMAP
0f80
1fc0
6c60
d860
d8c0
5f80
1e00
3300
3180
60c0
4060
ENDCHAR
STARTCHAR ScriptCapS
ENCODING 83
SWIDTH 608 0
DWIDTH 11 0
BBX 11 12 0 -1
BITMAP
0380
0fc0
1c60
1860
0c00
0700
0180
80c0
c0c0
61c0
3f80
1e00
ENDCHAR
STARTCHAR ScriptCapT
ENCODING 84
SWIDTH 695 0
DWIDTH 13 0
BBX 14 12 0 -1
BITMAP
0008
3ffc
63f0
c600
c600
4c00
0c00
0c00
1800
1800
3000
6000
ENDCHAR
STARTCHAR ScriptCapU
ENCODING 85
SWIDTH 814 0
DWIDTH 15 0
BBX 14 10 0 0
BITMAP
0f0c
3a0c
6618
c418
cc10
4c30
1870
18e0
1bb0
1e18
ENDCHAR
STARTCHAR ScriptCapV
ENCODING 86
SWIDTH 799 0
DWIDTH 14 0
BBX 14 10 0 0
BITMAP
0f18
330c
430c
c318
c330
4360
03c0
0380
0300
0300
ENDCHAR
STARTCHAR ScriptCapW
ENCODING 87
SWIDTH 1063 0
DWIDTH 19 0
BBX 19 11 0 0
BITMAP
000020
0e1060
361060
463040
c230c0
c27180
435b00
03de00
039c00
031c00
031800
ENDCHAR
STARTCHAR ScriptCapX
ENCODING 88
SWIDTH 622 0
DWIDTH 11 0
BBX 11 12 0 -1
BITMAP
1840
1c60
0c60
05c0
0780
0e00
1e00
3600
6200
c300
e180
4080
ENDCHAR
STARTCHAR ScriptCapY
ENCODING 89
SWIDTH 703 0
DWIDTH 13 0
BBX 12 12 0 -1
BITMAP
0010
0830
0c20
0460
04e0
05c0
07c0
06c0
0180
c180
e300
3c00
ENDCHAR
STARTCHAR ScriptCapZ
ENCODING 90
SWIDTH 802 0
DWIDTH 14 0
BBX 14 12 0 -1
BITMAP
0004
1ffc
31f8
00e0
00c0
0180
0300
0600
0c00
7800
fe18
03f0
ENDCHAR
STARTCHAR RightTriangleLeft
ENCODING 91
SWIDTH 600 0
DWIDTH 11 0
BBX 8 11 2 0
BITMAP
01
02
06
06
0e
1a
1a
32
22
62
fe
ENDCHAR
STARTCHAR RightTriangleRight
ENCODING 92
SWIDTH 600 0
DWIDTH 11 0
BBX 6 11 2 0
BITMAP
80
80
80
c0
e0
a0
b0
90
98
88
fc
ENDCHAR
STARTCHAR DoubleRightTriangle
ENCODING 93
SWIDTH 600 0
DWIDTH 11 0
BBX 10 11 0 0
BITMAP
0600
0a00
0a00
1a00
1b00
3b00
2a80
2a80
4a80
4a40
fbc0
ENDCHAR
STARTCHAR Female
ENCODING 94
SWIDTH 600 0
DWIDTH 11 0
BBX 7 10 2 0
BITMAP
78
c6
82
82
c4
7c
30
30
78
30
ENDCHAR
STARTCHAR Male
ENCODING 95
SWIDTH 600 0
DWIDTH 11 0
BBX 11 10 1 0
BITMAP
0040
00c0
3ea0
6300
c180
8080
8080
c180
6300
3e00
ENDCHAR
STARTCHAR NearlyEquals
ENCODING 96
SWIDTH 600 0
DWIDTH 11 0
BBX 7 12 2 -2
BITMAP
60
60
00
00
fe
fe
fe
fe
00
00
0c
0c
ENDCHAR
STARTCHAR ScriptA
ENCODING 97
SWIDTH 506 0
DWIDTH 9 0
BBX 8 8 0 0
BITMAP
1f
3e
66
c4
cc
cd
ff
6c
ENDCHAR
STARTCHAR ScriptB
ENCODING 98
SWIDTH 504 0
DWIDTH 9 0
BBX 9 12 0 0
BITMAP
1800
1800
1800
1800
1b00
3f80
3980
3300
6300
6600
fc00
f800
ENDCHAR
STARTCHAR ScriptC
ENCODING 99
SWIDTH 448 0
DWIDTH 8 0
BBX 7 8 0 0
BITMAP
1c
3e
60
c0
c0
cc
fc
70
ENDCHAR
STARTCHAR ScriptD
ENCODING 100
SWIDTH 553 0
DWIDTH 10 0
BBX 9 12 0 0
BITMAP
0080
0180
0180
0300
1f00
3f00
6200
4600
ce00
de00
f600
e700
ENDCHAR
STARTCHAR ScriptE
ENCODING 101
SWIDTH 422 0
DWIDTH 8 0
BBX 7 8 0 0
BITMAP
1e
36
66
fc
f0
c4
fc
78
ENDCHAR
STARTCHAR ScriptF
ENCODING 102
SWIDTH 580 0
DWIDTH 10 0
BBX 10 14 0 -2
BITMAP
03c0
07c0
0c00
0c00
3e00
3e00
1800
1000
3000
3000
3000
6000
e000
c000
ENDCHAR
STARTCHAR ScriptG
ENCODING 103
SWIDTH 569 0
DWIDTH 10 0
BBX 10 12 0 -4
BITMAP
0780
0fc0
1880
3180
3380
3700
3f00
3b00
0600
0600
7c00
f000
ENDCHAR
STARTCHAR ScriptH
ENCODING 104
SWIDTH 486 0
DWIDTH 9 0
BBX 8 12 0 0
BITMAP
08
18
18
18
37
3f
3b
63
66
66
c6
c3
ENDCHAR
STARTCHAR ScriptI
ENCODING 105
SWIDTH 269 0
DWIDTH 5 0
BBX 5 11 0 0
BITMAP
18
30
00
20
60
60
60
c0
c0
c0
60
ENDCHAR
STARTCHAR ScriptJ
ENCODING 106
SWIDTH 508 0
DWIDTH 9 0
BBX 9 15 0 -4
BITMAP
0180
0300
0000
0100
0300
0300
0300
0200
0600
0600
0400
0c00
4800
f800
3000
ENDCHAR
STARTCHAR ScriptK
ENCODING 107
SWIDTH 462 0
DWIDTH 8 0
BBX 8 12 0 0
BITMAP
10
38
18
18
33
33
3e
3c
78
6c
6c
c6
ENDCHAR
STARTCHAR ScriptL
ENCODING 108
SWIDTH 274 0
DWIDTH 5 0
BBX 4 13 0 -1
BITMAP
10
30
10
30
30
20
20
60
60
40
c0
c0
40
ENDCHAR
STARTCHAR ScriptM
ENCODING 109
SWIDTH 729 0
DWIDTH 13 0
BBX 13 8 0 0
BITMAP
3000
3778
3bd8
7398
6330
6630
c630
c638
ENDCHAR
STARTCHAR ScriptN
ENCODING 110
SWIDTH 483 0
DWIDTH 9 0
BBX 8 8 0 0
BITMAP
32
37
3b
73
63
66
c6
c7
ENDCHAR
STARTCHAR ScriptO
ENCODING 111
SWIDTH 455 0
DWIDTH 8 0
BBX 8 8 0 0
BITMAP
1e
33
63
c3
c3
c6
cc
78
ENDCHAR
STARTCHAR ScriptP
ENCODING 112
SWIDTH 531 0
DWIDTH 10 0
BBX 9 13 0 -4
BITMAP
3000
1b00
1f80
1d80
3980
3100
2300
6600
fc00
6000
6000
c000
c000
ENDCHAR
STARTCHAR ScriptQ
ENCODING 113
SWIDTH 508 0
DWIDTH 9 0
BBX 9 11 0 -3
BITMAP
0e00
1f80
3300
6600
ce00
de00
f600
6600
0400
0c00
0c00
ENDCHAR
STARTCHAR ScriptR
ENCODING 114
SWIDTH 439 0
DWIDTH 8 0
BBX 7 8 0 0
BITMAP
60
2e
38
70
60
60
c0
c0
ENDCHAR
STARTCHAR ScriptS
ENCODING 115
SWIDTH 506 0
DWIDTH 9 0
BBX 8 8 0 0
BITMAP
1e
3b
30
18
0c
06
4e
fc
ENDCHAR
STARTCHAR ScriptT
ENCODING 116
SWIDTH 324 0
DWIDTH 6 0
BBX 5 10 0 0
BITMAP
30
30
f8
60
60
c0
c0
d0
f8
60
ENDCHAR
STARTCHAR ScriptU
ENCODING 117
SWIDTH 483 0
DWIDTH 9 0
BBX 8 8 0 0
BITMAP
63
63
63
66
ce
de
f6
e3
ENDCHAR
STARTCHAR ScriptV
ENCODING 118
SWIDTH 432 0
DWIDTH 8 0
BBX 7 8 0 0
BITMAP
46
c2
66
64
6c
78
70
60
ENDCHAR
STARTCHAR ScriptW
ENCODING 119
SWIDTH 653 0
DWIDTH 12 0
BBX 11 8 0 0
BITMAP
4220
e660
6e60
6ec0
7ec0
7780
6700
4600
ENDCHAR
STARTCHAR ScriptX
ENCODING 120
SWIDTH 552 0
DWIDTH 10 0
BBX 9 8 0 0
BITMAP
1080
1980
0f00
0e00
1c00
3600
6600
c300
ENDCHAR
STARTCHAR ScriptY
ENCODING 121
SWIDTH 562 0
DWIDTH 10 0
BBX 10 12 0 -4
BITMAP
10c0
18c0
1980
1b80
3380
3700
3d00
1b00
0300
0600
fc00
7800
ENDCHAR
STARTCHAR ScriptZ
ENCODING 122
SWIDTH 547 0
DWIDTH 10 0
BBX 9 8 0 0
BITMAP
1c80
7f80
2600
0c00
1800
3000
f900
df80
ENDCHAR
STARTCHAR ScriptAltL
ENCODING 123
SWIDTH 448 0
DWIDTH 8 0
BBX 8 11 0 0
BITMAP
07
0d
1b
16
1c
38
78
f0
30
30
18
ENDCHAR
STARTCHAR LogicalNand
ENCODING 124
SWIDTH 692 0
DWIDTH 12 0
BBX 11 10 1 0
BITMAP
7fc0
7fc0
0000
1f00
1f00
3180
3180
60c0
60c0
c060
ENDCHAR
STARTCHAR Nand2
ENCODING 125
SWIDTH 861 0
DWIDTH 15 0
BBX 13 16 1 -4
BITMAP
7ff8
7ff8
0000
0f80
0f80
18c0
18c0
18c0
3060
3060
3060
6030
6030
6030
c018
c018
ENDCHAR
STARTCHAR Nand3
ENCODING 126
SWIDTH 1333 0
DWIDTH 24 0
BBX 41 28 1 -9
BITMAP
7ffff8000000
7ffff8000000
000000000000
000000000000
000000000000
000000000000
03fe00000000
03fe00000000
030600000100
060300000080
060300000000
060300000000
060300000000
0c0180000000
0c0180000000
0c0180000000
1800c0000000
1800c0000000
1800c0000000
300060000000
300060000000
300060000000
600030000000
600030000000
600030000000
c00018000000
c00018000000
c00018000000
ENDCHAR
STARTCHAR DEL
ENCODING 127
SWIDTH 263 0
DWIDTH 5 0
BBX 0 0 0 0
BITMAP
ENDCHAR
STARTCHAR LogicalNor
ENCODING 128
SWIDTH 692 0
DWIDTH 12 0
BBX 11 10 1 0
BITMAP
7fc0
7fc0
0000
c060
c060
60c0
3180
3180
1f00
1f00
ENDCHAR
STARTCHAR Nor2
ENCODING 129
SWIDTH 861 0
DWIDTH 15 0
BBX 14 16 1 -4
BITMAP
7ff8
7ff8
0000
c00c
c00c
6018
6018
6018
3030
3030
3030
1860
1860
1860
0fc0
0fc0
ENDCHAR
STARTCHAR Nor3
ENCODING 130
SWIDTH 1333 0
DWIDTH 24 0
BBX 41 28 1 -9
BITMAP
7ffff8000000
7ffff8000000
000000000000
000000000000
000000000000
000000000000
c0000c000000
c0000c000000
c0000c000100
600018000080
600018000000
600018000000
300030000000
300030000000
300030000000
180060000000
180060000000
180060000000
0c00c0000000
0c00c0000000
0c00c0000000
060180000000
060180000000
060180000000
030300000000
030300000000
03ff00000000
01fe00000000
ENDCHAR
STARTCHAR LogicalXor
ENCODING 131
SWIDTH 692 0
DWIDTH 12 0
BBX 11 10 1 0
BITMAP
c060
60c0
60c0
3180
3180
1f00
1f00
0000
7fc0
7fc0
ENDCHAR
STARTCHAR Xor2
ENCODING 132
SWIDTH 861 0
DWIDTH 15 0
BBX 13 16 2 -4
BITMAP
c018
c018
6030
6030
6030
3060
3060
3060
18c0
18c0
18c0
0f80
0f80
0000
fff8
fff8
ENDCHAR
STARTCHAR Xor3
ENCODING 133
SWIDTH 1333 0
DWIDTH 24 0
BBX 40 28 2 -9
BITMAP
c000180000
c000180000
c000180000
c000180000
6000300000
6000300000
6000300000
3000600000
3000600002
3000600001
1800c00000
1800c00000
1800c00000
0c01800000
0c01800000
0c01800000
0603000000
0603000000
0603000000
0603000000
03fe000000
03fe000000
0000000000
0000000000
0000000000
0000000000
fffff00000
fffff00000
ENDCHAR
STARTCHAR ConstantC
ENCODING 134
SWIDTH 600 0
DWIDTH 11 0
BBX 9 8 1 0
BITMAP
3e00
7f00
e980
d800
d800
e800
7f80
3f00
ENDCHAR
STARTCHAR LongEqual
ENCODING 135
SWIDTH 798 0
DWIDTH 14 0
BBX 11 5 2 1
BITMAP
ffe0
ffe0
0000
ffe0
ffe0
ENDCHAR
STARTCHAR Diffd2
ENCODING 136
SWIDTH 600 0
DWIDTH 11 0
BBX 10 11 1 0
BITMAP
07c0
07c0
00c0
1ec0
7f80
6380
c180
c180
c300
ffc0
7f80
ENDCHAR
STARTCHAR Expe2
ENCODING 137
SWIDTH 600 0
DWIDTH 11 0
BBX 9 8 2 0
BITMAP
1e00
7f80
6180
ff80
ff80
c100
ff80
3c00
ENDCHAR
STARTCHAR Imagi2
ENCODING 138
SWIDTH 600 0
DWIDTH 11 0
BBX 8 12 2 0
BITMAP
0e
0e
1c
00
7c
7c
18
18
18
18
ff
ff
ENDCHAR
STARTCHAR Imagj2
ENCODING 139
SWIDTH 600 0
DWIDTH 11 0
BBX 9 15 1 -3
BITMAP
0180
0180
0380
0000
3f80
3f00
0300
0300
0300
0300
0600
0600
0600
fc00
7800
ENDCHAR
STARTCHAR CapitalCAcute
ENCODING 140
SWIDTH 600 0
DWIDTH 11 0
BBX 9 14 1 0
BITMAP
0300
0c00
0000
1e80
3f80
7180
e180
c080
c000
c000
e000
6180
3f80
1e00
ENDCHAR
STARTCHAR CapitalCHacek
ENCODING 141
SWIDTH 600 0
DWIDTH 11 0
BBX 9 14 1 0
BITMAP
2100
1e00
0000
1e80
3f80
7180
e180
c080
c000
c000
e000
6180
3f80
1e00
ENDCHAR
STARTCHAR EBar
ENCODING 142
SWIDTH 600 0
DWIDTH 11 0
BBX 9 11 1 0
BITMAP
7f00
0000
1c00
7f00
6300
c180
ff80
ff80
e080
7f80
1e00
ENDCHAR
STARTCHAR ECup
ENCODING 143
SWIDTH 600 0
DWIDTH 11 0
BBX 9 11 1 0
BITMAP
6300
1e00
1c00
7f00
6300
c180
ff80
ff80
e080
7f80
1e00
ENDCHAR
STARTCHAR CapitalEBar
ENCODING 144
SWIDTH 600 0
DWIDTH 11 0
BBX 8 13 1 0
BITMAP
ff
00
ff
ff
41
41
45
7c
7c
45
41
ff
ff
ENDCHAR
STARTCHAR CapitalECup
ENCODING 145
SWIDTH 600 0
DWIDTH 11 0
BBX 8 14 1 0
BITMAP
c3
7e
00
ff
ff
41
41
45
7c
7c
45
41
ff
ff
ENDCHAR
STARTCHAR ICup
ENCODING 146
SWIDTH 600 0
DWIDTH 11 0
BBX 7 11 2 0
BITMAP
c6
7c
10
f0
f0
10
10
10
10
fe
fe
ENDCHAR
STARTCHAR CapitalICup
ENCODING 147
SWIDTH 600 0
DWIDTH 11 0
BBX 7 14 2 0
BITMAP
c6
7c
00
fe
fe
10
10
10
10
10
10
10
fe
fe
ENDCHAR
STARTCHAR LSlash
ENCODING 148
SWIDTH 600 0
DWIDTH 11 0
BBX 7 12 2 0
BITMAP
f0
f0
10
10
12
1e
38
70
10
10
fe
fe
ENDCHAR
STARTCHAR CapitalLSlash
ENCODING 149
SWIDTH 600 0
DWIDTH 11 0
BBX 9 10 1 0
BITMAP
f800
2000
2000
2400
3c00
7000
a080
2080
ff80
ff80
ENDCHAR
STARTCHAR Mercury
ENCODING 150
SWIDTH 600 0
DWIDTH 11 0
BBX 5 10 3 0
BITMAP
88
d8
70
88
88
88
70
20
f8
20
ENDCHAR
STARTCHAR Venus
ENCODING 151
SWIDTH 600 0
DWIDTH 11 0
BBX 7 10 2 0
BITMAP
38
c4
82
82
82
44
38
10
7c
10
ENDCHAR
STARTCHAR Earth
ENCODING 152
SWIDTH 600 0
DWIDTH 11 0
BBX 7 10 2 0
BITMAP
10
7c
10
38
44
82
82
82
46
38
ENDCHAR
STARTCHAR Mars
ENCODING 153
SWIDTH 600 0
DWIDTH 11 0
BBX 9 9 1 0
BITMAP
0780
0180
7f80
c680
8200
8200
8200
4600
3800
ENDCHAR
STARTCHAR Jupiter
ENCODING 154
SWIDTH 600 0
DWIDTH 11 0
BBX 9 12 1 -2
BITMAP
0080
3c80
6680
c280
c380
8380
0280
0680
0c80
ff80
0080
0080
ENDCHAR
STARTCHAR Saturn
ENCODING 155
SWIDTH 600 0
DWIDTH 11 0
BBX 7 10 2 0
BITMAP
c0
f0
c0
dc
e2
c2
c2
c2
c4
c4
ENDCHAR
STARTCHAR Uranus
ENCODING 156
SWIDTH 600 0
DWIDTH 11 0
BBX 8 10 1 0
BITMAP
db
5a
5a
7e
5a
5a
db
1c
24
18
ENDCHAR
STARTCHAR Neptune
ENCODING 157
SWIDTH 600 0
DWIDTH 11 0
BBX 11 12 0 -2
BITMAP
0e00
1f00
64c0
d560
4440
4440
2480
3f00
0400
1f00
0400
0400
ENDCHAR
STARTCHAR Pluto
ENCODING 158
SWIDTH 600 0
DWIDTH 11 0
BBX 8 12 2 -2
BITMAP
fc
c7
c1
c1
c1
c3
fe
f0
c0
c0
c0
ff
ENDCHAR
STARTCHAR udieresis
ENCODING 159
SWIDTH 600 0
DWIDTH 11 0
BBX 11 10 0 0
BITMAP
1f00
6180
4040
8020
8c20
8c20
8020
4040
6180
1f00
ENDCHAR
STARTCHAR dagger
ENCODING 160
SWIDTH 600 0
DWIDTH 11 0
BBX 6 8 3 0
BITMAP
84
88
98
b8
f8
98
88
84
ENDCHAR
STARTCHAR LastPage
ENCODING 161
SWIDTH 600 0
DWIDTH 11 0
BBX 5 8 3 0
BITMAP
88
88
c8
e8
f8
c8
88
88
ENDCHAR
STARTCHAR SolidLeftTriangle
ENCODING 162
SWIDTH 600 0
DWIDTH 11 0
BBX 9 10 1 0
BITMAP
0080
0380
0780
1f80
ff80
7f80
1f80
0780
0380
0080
ENDCHAR
STARTCHAR SolidRightTriangle
ENCODING 163
SWIDTH 600 0
DWIDTH 11 0
BBX 9 10 1 0
BITMAP
8000
e000
f800
fc00
ff80
ff00
fc00
f800
e000
8000
ENDCHAR
STARTCHAR QuarterNote
ENCODING 164
SWIDTH 600 0
DWIDTH 11 0
BBX 5 10 3 0
BITMAP
08
08
08
08
08
08
08
68
f8
70
ENDCHAR
STARTCHAR EigthNote
ENCODING 165
SWIDTH 600 0
DWIDTH 11 0
BBX 9 10 1 0
BITMAP
0800
0e00
0900
0880
0800
0800
0800
6800
f800
7000
ENDCHAR
STARTCHAR BeamedEighthNote
ENCODING 166
SWIDTH 700 0
DWIDTH 13 0
BBX 11 10 1 0
BITMAP
0fe0
0820
0820
0820
0820
0820
0820
79a0
fbe0
71c0
ENDCHAR
STARTCHAR BeamedSixteenthNote
ENCODING 167
SWIDTH 700 0
DWIDTH 13 0
BBX 11 10 1 0
BITMAP
0fe0
0820
0fe0
0820
0820
0820
0820
79a0
fbe0
71c0
ENDCHAR
STARTCHAR EntityStart
ENCODING 168
SWIDTH 700 0
DWIDTH 13 0
BBX 12 14 0 -2
BITMAP
fff0
8040
8040
8040
8c40
9040
8840
9940
a640
a240
b740
9840
8040
fff0
ENDCHAR
STARTCHAR EntityEnd
ENCODING 169
SWIDTH 700 0
DWIDTH 13 0
BBX 11 14 1 -2
BITMAP
ffe0
2020
2020
2020
2020
2020
2220
2220
2020
2020
2220
2220
2020
ffe0
ENDCHAR
STARTCHAR trademark
ENCODING 170
SWIDTH 600 0
DWIDTH 11 0
BBX 9 10 3 2
BITMAP
0080
0100
0300
0600
0400
cc00
c800
7800
7000
2000
ENDCHAR
STARTCHAR acute
ENCODING 171
SWIDTH 600 0
DWIDTH 11 0
BBX 12 12 0 0
BITMAP
0010
0060
ffc0
80c0
81c0
b140
b340
9a40
9e40
8c40
8040
ffc0
ENDCHAR
STARTCHAR dieresis
ENCODING 172
SWIDTH 364 0
DWIDTH 7 0
BBX 5 7 1 6
BITMAP
f8
20
20
20
20
20
20
ENDCHAR
STARTCHAR notequal
ENCODING 173
SWIDTH 364 0
DWIDTH 7 0
BBX 7 7 0 6
BITMAP
10
92
7c
30
7c
92
10
ENDCHAR
STARTCHAR AE
ENCODING 174
SWIDTH 364 0
DWIDTH 7 0
BBX 5 7 1 6
BITMAP
88
88
88
f8
88
88
88
ENDCHAR
STARTCHAR Oslash
ENCODING 175
SWIDTH 600 0
DWIDTH 11 0
BBX 6 11 5 0
BITMAP
fc
fc
c0
c0
c0
c0
c0
c0
c0
c0
c0
ENDCHAR
STARTCHAR infinity
ENCODING 176
SWIDTH 600 0
DWIDTH 11 0
BBX 4 13 2 -3
BITMAP
30
30
30
f0
f0
c0
c0
f0
f0
30
30
30
30
ENDCHAR
STARTCHAR plusminus
ENCODING 177
SWIDTH 600 0
DWIDTH 11 0
BBX 6 12 5 0
BITMAP
c0
c0
c0
c0
c0
c0
c0
c0
c0
c0
fc
fc
ENDCHAR
STARTCHAR lessequal
ENCODING 178
SWIDTH 600 0
DWIDTH 11 0
BBX 2 5 5 0
BITMAP
c0
c0
c0
c0
c0
ENDCHAR
STARTCHAR greaterequal
ENCODING 179
SWIDTH 600 0
DWIDTH 11 0
BBX 6 14 2 -3
BITMAP
3c
3c
30
30
f0
f0
c0
c0
f0
f0
30
30
3c
3c
ENDCHAR
STARTCHAR yen
ENCODING 180
SWIDTH 600 0
DWIDTH 11 0
BBX 7 22 2 -7
BITMAP
1c
1c
18
18
18
18
18
18
f8
f8
c0
c0
f8
f8
18
18
18
18
18
18
1e
1e
ENDCHAR
STARTCHAR mu
ENCODING 181
SWIDTH 600 0
DWIDTH 11 0
BBX 7 30 2 -11
BITMAP
1e
1e
18
18
18
18
18
18
18
18
18
18
f8
f8
c0
c0
f8
f8
18
18
18
18
18
18
18
18
18
18
1e
1e
ENDCHAR
STARTCHAR partialdiff
ENCODING 182
SWIDTH 600 0
DWIDTH 11 0
BBX 8 38 2 -15
BITMAP
1f
1f
18
18
18
18
18
18
18
18
18
18
18
18
18
18
f8
f8
c0
c0
f8
f8
18
18
18
18
18
18
18
18
18
18
18
18
18
18
1f
1f
ENDCHAR
STARTCHAR summation
ENCODING 183
SWIDTH 720 0
DWIDTH 13 0
BBX 11 8 1 0
BITMAP
0800
1800
3000
fda0
fda0
3000
1800
0800
ENDCHAR
STARTCHAR product
ENCODING 184
SWIDTH 600 0
DWIDTH 11 0
BBX 7 12 2 0
BITMAP
08
38
7c
fe
da
18
00
18
18
00
00
18
ENDCHAR
STARTCHAR pi
ENCODING 185
SWIDTH 720 0
DWIDTH 13 0
BBX 11 8 1 0
BITMAP
0200
0300
0180
b7e0
b7e0
0180
0300
0200
ENDCHAR
STARTCHAR integral
ENCODING 186
SWIDTH 600 0
DWIDTH 11 0
BBX 7 12 2 0
BITMAP
18
00
00
18
18
00
18
da
fe
7c
38
10
ENDCHAR
STARTCHAR ordfeminine
ENCODING 187
SWIDTH 900 0
DWIDTH 16 0
BBX 14 7 1 1
BITMAP
fffc
8004
b334
b334
8004
8004
fffc
ENDCHAR
STARTCHAR ordmasculine
ENCODING 188
SWIDTH 900 0
DWIDTH 16 0
BBX 6 14 5 -2
BITMAP
fc
84
b4
b4
84
84
b4
b4
84
84
b4
b4
84
fc
ENDCHAR
STARTCHAR Omega
ENCODING 189
SWIDTH 900 0
DWIDTH 16 0
BBX 14 14 1 -2
BITMAP
f000
8800
8400
da00
4900
2080
1340
0920
0410
0228
0334
0180
00c0
0060
ENDCHAR
STARTCHAR ae
ENCODING 190
SWIDTH 364 0
DWIDTH 7 0
BBX 3 7 2 6
BITMAP
40
40
e0
40
40
40
40
ENDCHAR
STARTCHAR oslash
ENCODING 191
SWIDTH 263 0
DWIDTH 5 0
BBX 0 0 0 0
BITMAP
ENDCHAR
STARTCHAR questiondown
ENCODING 192
SWIDTH 263 0
DWIDTH 5 0
BBX 0 0 0 0
BITMAP
ENDCHAR
STARTCHAR exclamdown
ENCODING 193
SWIDTH 263 0
DWIDTH 5 0
BBX 0 0 0 0
BITMAP
ENDCHAR
STARTCHAR logicalnot
ENCODING 194
SWIDTH 263 0
DWIDTH 5 0
BBX 0 0 0 0
BITMAP
ENDCHAR
STARTCHAR radical
ENCODING 195
SWIDTH 263 0
DWIDTH 5 0
BBX 0 0 0 0
BITMAP
ENDCHAR
STARTCHAR florin
ENCODING 196
SWIDTH 263 0
DWIDTH 5 0
BBX 0 0 0 0
BITMAP
ENDCHAR
STARTCHAR approxequal
ENCODING 197
SWIDTH 263 0
DWIDTH 5 0
BBX 0 0 0 0
BITMAP
ENDCHAR
STARTCHAR Delta
ENCODING 198
SWIDTH 263 0
DWIDTH 5 0
BBX 0 0 0 0
BITMAP
ENDCHAR
STARTCHAR guillemotleft
ENCODING 199
SWIDTH 263 0
DWIDTH 5 0
BBX 0 0 0 0
BITMAP
ENDCHAR
STARTCHAR guillemotright
ENCODING 200
SWIDTH 263 0
DWIDTH 5 0
BBX 0 0 0 0
BITMAP
ENDCHAR
STARTCHAR ellipsis
ENCODING 201
SWIDTH 263 0
DWIDTH 5 0
BBX 0 0 0 0
BITMAP
ENDCHAR
STARTCHAR nbspace
ENCODING 202
SWIDTH 263 0
DWIDTH 5 0
BBX 0 0 0 0
BITMAP
ENDCHAR
STARTCHAR Agrave
ENCODING 203
SWIDTH 263 0
DWIDTH 5 0
BBX 0 0 0 0
BITMAP
ENDCHAR
STARTCHAR Atilde
ENCODING 204
SWIDTH 263 0
DWIDTH 5 0
BBX 0 0 0 0
BITMAP
ENDCHAR
STARTCHAR Otilde
ENCODING 205
SWIDTH 263 0
DWIDTH 5 0
BBX 0 0 0 0
BITMAP
ENDCHAR
STARTCHAR parenright
ENCODING 206
SWIDTH 263 0
DWIDTH 5 0
BBX 0 0 0 0
BITMAP
ENDCHAR
STARTCHAR oe
ENCODING 207
SWIDTH 263 0
DWIDTH 5 0
BBX 0 0 0 0
BITMAP
ENDCHAR
STARTCHAR endash
ENCODING 208
SWIDTH 263 0
DWIDTH 5 0
BBX 0 0 0 0
BITMAP
ENDCHAR
STARTCHAR emdash
ENCODING 209
SWIDTH 263 0
DWIDTH 5 0
BBX 0 0 0 0
BITMAP
ENDCHAR
STARTCHAR quotedblleft
ENCODING 210
SWIDTH 263 0
DWIDTH 5 0
BBX 0 0 0 0
BITMAP
ENDCHAR
STARTCHAR quotedblright
ENCODING 211
SWIDTH 263 0
DWIDTH 5 0
BBX 0 0 0 0
BITMAP
ENDCHAR
STARTCHAR quoteleft
ENCODING 212
SWIDTH 263 0
DWIDTH 5 0
BBX 0 0 0 0
BITMAP
ENDCHAR
STARTCHAR quoteright
ENCODING 213
SWIDTH 263 0
DWIDTH 5 0
BBX 0 0 0 0
BITMAP
ENDCHAR
STARTCHAR divide
ENCODING 214
SWIDTH 263 0
DWIDTH 5 0
BBX 0 0 0 0
BITMAP
ENDCHAR
STARTCHAR lozenge
ENCODING 215
SWIDTH 263 0
DWIDTH 5 0
BBX 0 0 0 0
BITMAP
ENDCHAR
STARTCHAR ydieresis
ENCODING 216
SWIDTH 263 0
DWIDTH 5 0
BBX 0 0 0 0
BITMAP
ENDCHAR
STARTCHAR Ydieresis
ENCODING 217
SWIDTH 263 0
DWIDTH 5 0
BBX 0 0 0 0
BITMAP
ENDCHAR
STARTCHAR fraction
ENCODING 218
SWIDTH 263 0
DWIDTH 5 0
BBX 0 0 0 0
BITMAP
ENDCHAR
STARTCHAR currency
ENCODING 219
SWIDTH 263 0
DWIDTH 5 0
BBX 0 0 0 0
BITMAP
ENDCHAR
STARTCHAR guilsinglleft
ENCODING 220
SWIDTH 263 0
DWIDTH 5 0
BBX 0 0 0 0
BITMAP
ENDCHAR
STARTCHAR guilsinglright
ENCODING 221
SWIDTH 263 0
DWIDTH 5 0
BBX 0 0 0 0
BITMAP
ENDCHAR
STARTCHAR fi
ENCODING 222
SWIDTH 263 0
DWIDTH 5 0
BBX 0 0 0 0
BITMAP
ENDCHAR
STARTCHAR fl
ENCODING 223
SWIDTH 263 0
DWIDTH 5 0
BBX 0 0 0 0
BITMAP
ENDCHAR
STARTCHAR daggerdbl
ENCODING 224
SWIDTH 263 0
DWIDTH 5 0
BBX 0 0 0 0
BITMAP
ENDCHAR
STARTCHAR periodcentered
ENCODING 225
SWIDTH 263 0
DWIDTH 5 0
BBX 0 0 0 0
BITMAP
ENDCHAR
STARTCHAR quotesinglbase
ENCODING 226
SWIDTH 263 0
DWIDTH 5 0
BBX 0 0 0 0
BITMAP
ENDCHAR
STARTCHAR quotedblbase
ENCODING 227
SWIDTH 263 0
DWIDTH 5 0
BBX 0 0 0 0
BITMAP
ENDCHAR
STARTCHAR perthousand
ENCODING 228
SWIDTH 263 0
DWIDTH 5 0
BBX 0 0 0 0
BITMAP
ENDCHAR
STARTCHAR Acircumflex
ENCODING 229
SWIDTH 263 0
DWIDTH 5 0
BBX 0 0 0 0
BITMAP
ENDCHAR
STARTCHAR Ecircumflex
ENCODING 230
SWIDTH 263 0
DWIDTH 5 0
BBX 0 0 0 0
BITMAP
ENDCHAR
STARTCHAR Aacute
ENCODING 231
SWIDTH 263 0
DWIDTH 5 0
BBX 0 0 0 0
BITMAP
ENDCHAR
STARTCHAR Edieresis
ENCODING 232
SWIDTH 263 0
DWIDTH 5 0
BBX 0 0 0 0
BITMAP
ENDCHAR
STARTCHAR Egrave
ENCODING 233
SWIDTH 263 0
DWIDTH 5 0
BBX 0 0 0 0
BITMAP
ENDCHAR
STARTCHAR Iacute
ENCODING 234
SWIDTH 263 0
DWIDTH 5 0
BBX 0 0 0 0
BITMAP
ENDCHAR
STARTCHAR Icircumflex
ENCODING 235
SWIDTH 263 0
DWIDTH 5 0
BBX 0 0 0 0
BITMAP
ENDCHAR
STARTCHAR Idieresis
ENCODING 236
SWIDTH 263 0
DWIDTH 5 0
BBX 0 0 0 0
BITMAP
ENDCHAR
STARTCHAR Igrave
ENCODING 237
SWIDTH 263 0
DWIDTH 5 0
BBX 0 0 0 0
BITMAP
ENDCHAR
STARTCHAR Oacute
ENCODING 238
SWIDTH 263 0
DWIDTH 5 0
BBX 0 0 0 0
BITMAP
ENDCHAR
STARTCHAR Ocircumflex
ENCODING 239
SWIDTH 263 0
DWIDTH 5 0
BBX 0 0 0 0
BITMAP
ENDCHAR
STARTCHAR apple
ENCODING 240
SWIDTH 263 0
DWIDTH 5 0
BBX 0 0 0 0
BITMAP
ENDCHAR
STARTCHAR Ograve
ENCODING 241
SWIDTH 263 0
DWIDTH 5 0
BBX 0 0 0 0
BITMAP
ENDCHAR
STARTCHAR Uacute
ENCODING 242
SWIDTH 263 0
DWIDTH 5 0
BBX 0 0 0 0
BITMAP
ENDCHAR
STARTCHAR Ucircumflex
ENCODING 243
SWIDTH 263 0
DWIDTH 5 0
BBX 0 0 0 0
BITMAP
ENDCHAR
STARTCHAR Ugrave
ENCODING 244
SWIDTH 263 0
DWIDTH 5 0
BBX 0 0 0 0
BITMAP
ENDCHAR
STARTCHAR dotlessi
ENCODING 245
SWIDTH 263 0
DWIDTH 5 0
BBX 0 0 0 0
BITMAP
ENDCHAR
STARTCHAR circumflex
ENCODING 246
SWIDTH 263 0
DWIDTH 5 0
BBX 0 0 0 0
BITMAP
ENDCHAR
STARTCHAR CurlyQuote
ENCODING 247
SWIDTH 600 0
DWIDTH 11 0
BBX 3 5 4 5
BITMAP
e0
e0
60
c0
c0
ENDCHAR
STARTCHAR CurlyDblQuote
ENCODING 248
SWIDTH 600 0
DWIDTH 11 0
BBX 7 5 2 5
BITMAP
ee
ee
66
cc
cc
ENDCHAR
STARTCHAR CurlyBackQuote
ENCODING 249
SWIDTH 600 0
DWIDTH 11 0
BBX 3 5 4 5
BITMAP
60
60
c0
e0
e0
ENDCHAR
STARTCHAR CurlyDblBackQuote
ENCODING 250
SWIDTH 600 0
DWIDTH 11 0
BBX 7 5 2 5
BITMAP
66
66
cc
ee
ee
ENDCHAR
STARTCHAR StrikeCircle
ENCODING 251
SWIDTH 600 0
DWIDTH 9 0
BBX 9 9 0 0
BITMAP
3e00
6300
c180
8080
8080
8080
c180
6300
3e00
ENDCHAR
STARTCHAR StrikeSquare
ENCODING 252
SWIDTH 600 0
DWIDTH 9 0
BBX 9 8 0 0
BITMAP
ff80
8080
8080
8080
8080
8080
8080
ff80
ENDCHAR
STARTCHAR StrikeTriangle
ENCODING 253
SWIDTH 600 0
DWIDTH 9 0
BBX 9 8 0 0
BITMAP
0800
0800
1400
1400
2200
2200
4100
ff80
ENDCHAR
STARTCHAR MathLogo1
ENCODING 254
SWIDTH 2776 0
DWIDTH 43 0
BBX 43 10 0 0
BITMAP
381c00000000
081047fef7e0
1c3044a42220
1c70c18c6200
1450e1084240
2491210fc780
2791e1084440
271221084400
423431084420
e27e7fbdefc0
ENDCHAR
STARTCHAR MathLogo2
ENCODING 255
SWIDTH 2981 0
DWIDTH 46 0
BBX 43 9 0 0
BITMAP
38311ffe6080
186122489880
18c302090980
18c382090180
194484120280
2747841203c0
264884120440
44c8c4131440
e5f9fe79ece0
ENDCHAR
ENDFONT
