STARTFONT 2.1
FONT -WRI-Mathematica6-Bold-R-Normal--17-170-75-75-p-50-Adobe-FontSpecific
SIZE 17 75 75
FONTBOUNDINGBOX 18 17 0 -5
STARTPROPERTIES 16
FOUNDRY "WRI"
FAMILY_NAME "Mathematica6"
WEIGHT_NAME "Bold"
SLANT "R"
SETWIDTH_NAME "Normal"
PIXEL_SIZE 17
POINT_SIZE 170
RESOLUTION_X 75
RESOLUTION_Y 75
SPACING "p"
AVERAGE_WIDTH 50
CHARSET_REGISTRY "Adobe"
CHARSET_ENCODING "FontSpecific"
FONT_DESCENT 5
FONT_ASCENT 12
DEFAULT_CHAR 32
ENDPROPERTIES
CHARS 224
STARTCHAR space
ENCODING 32
SWIDTH 263 0
DWIDTH 4 0
BBX 0 0 0 0
BITMAP
ENDCHAR
STARTCHAR exclam
ENCODING 33
SWIDTH 263 0
DWIDTH 4 0
BBX 0 0 0 0
BITMAP
ENDCHAR
STARTCHAR quotedbl
ENCODING 34
SWIDTH 263 0
DWIDTH 4 0
BBX 0 0 0 0
BITMAP
ENDCHAR
STARTCHAR numbersign
ENCODING 35
SWIDTH 263 0
DWIDTH 4 0
BBX 0 0 0 0
BITMAP
ENDCHAR
STARTCHAR dollar
ENCODING 36
SWIDTH 263 0
DWIDTH 4 0
BBX 0 0 0 0
BITMAP
ENDCHAR
STARTCHAR percent
ENCODING 37
SWIDTH 263 0
DWIDTH 4 0
BBX 0 0 0 0
BITMAP
ENDCHAR
STARTCHAR ampersand
ENCODING 38
SWIDTH 263 0
DWIDTH 4 0
BBX 0 0 0 0
BITMAP
ENDCHAR
STARTCHAR quotesingle
ENCODING 39
SWIDTH 263 0
DWIDTH 4 0
BBX 0 0 0 0
BITMAP
ENDCHAR
STARTCHAR parenleft
ENCODING 40
SWIDTH 263 0
DWIDTH 4 0
BBX 0 0 0 0
BITMAP
ENDCHAR
STARTCHAR parenright
ENCODING 41
SWIDTH 263 0
DWIDTH 4 0
BBX 0 0 0 0
BITMAP
ENDCHAR
STARTCHAR asterisk
ENCODING 42
SWIDTH 263 0
DWIDTH 4 0
BBX 0 0 0 0
BITMAP
ENDCHAR
STARTCHAR plus
ENCODING 43
SWIDTH 263 0
DWIDTH 4 0
BBX 0 0 0 0
BITMAP
ENDCHAR
STARTCHAR comma
ENCODING 44
SWIDTH 263 0
DWIDTH 4 0
BBX 0 0 0 0
BITMAP
ENDCHAR
STARTCHAR hyphen
ENCODING 45
SWIDTH 263 0
DWIDTH 4 0
BBX 0 0 0 0
BITMAP
ENDCHAR
STARTCHAR period
ENCODING 46
SWIDTH 263 0
DWIDTH 4 0
BBX 0 0 0 0
BITMAP
ENDCHAR
STARTCHAR slash
ENCODING 47
SWIDTH 463 0
DWIDTH 4 0
BBX 0 0 0 0
BITMAP
ENDCHAR
STARTCHAR GothicZero
ENCODING 48
SWIDTH 463 0
DWIDTH 8 0
BBX 8 10 0 0
BITMAP
1e
37
63
43
c3
c3
c2
c6
ec
70
ENDCHAR
STARTCHAR GothicOne
ENCODING 49
SWIDTH 463 0
DWIDTH 8 0
BBX 4 10 2 0
BITMAP
30
60
20
20
20
60
60
60
60
f0
ENDCHAR
STARTCHAR GothicTwo
ENCODING 50
SWIDTH 463 0
DWIDTH 8 0
BBX 6 10 0 0
BITMAP
78
4c
0c
0c
08
10
30
20
7c
fc
ENDCHAR
STARTCHAR GothicThree
ENCODING 51
SWIDTH 463 0
DWIDTH 8 0
BBX 7 10 0 0
BITMAP
3c
46
06
04
38
0e
06
06
cc
78
ENDCHAR
STARTCHAR GothicFour
ENCODING 52
SWIDTH 463 0
DWIDTH 8 0
BBX 7 10 0 0
BITMAP
02
06
0e
1a
22
fe
fe
02
02
06
ENDCHAR
STARTCHAR GothicFive
ENCODING 53
SWIDTH 463 0
DWIDTH 8 0
BBX 7 10 0 0
BITMAP
1e
1e
20
20
3c
06
06
06
cc
70
ENDCHAR
STARTCHAR GothicSix
ENCODING 54
SWIDTH 463 0
DWIDTH 8 0
BBX 8 11 0 0
BITMAP
06
0c
18
30
60
4e
d3
d3
c3
e6
38
ENDCHAR
STARTCHAR GothicSeven
ENCODING 55
SWIDTH 463 0
DWIDTH 8 0
BBX 7 10 1 0
BITMAP
7e
fe
04
08
18
10
30
20
60
c0
ENDCHAR
STARTCHAR GothicEight
ENCODING 56
SWIDTH 463 0
DWIDTH 8 0
BBX 7 10 0 0
BITMAP
1c
26
66
64
38
2e
c6
c6
e4
78
ENDCHAR
STARTCHAR GothicNine
ENCODING 57
SWIDTH 463 0
DWIDTH 8 0
BBX 7 10 1 0
BITMAP
3c
66
c6
ce
76
0c
08
18
30
60
ENDCHAR
STARTCHAR colon
ENCODING 58
SWIDTH 263 0
DWIDTH 4 0
BBX 0 0 0 0
BITMAP
ENDCHAR
STARTCHAR semicolon
ENCODING 59
SWIDTH 263 0
DWIDTH 4 0
BBX 0 0 0 0
BITMAP
ENDCHAR
STARTCHAR less
ENCODING 60
SWIDTH 263 0
DWIDTH 4 0
BBX 0 0 0 0
BITMAP
ENDCHAR
STARTCHAR equal
ENCODING 61
SWIDTH 263 0
DWIDTH 4 0
BBX 0 0 0 0
BITMAP
ENDCHAR
STARTCHAR greater
ENCODING 62
SWIDTH 263 0
DWIDTH 4 0
BBX 0 0 0 0
BITMAP
ENDCHAR
STARTCHAR question
ENCODING 63
SWIDTH 263 0
DWIDTH 4 0
BBX 0 0 0 0
BITMAP
ENDCHAR
STARTCHAR at
ENCODING 64
SWIDTH 263 0
DWIDTH 4 0
BBX 0 0 0 0
BITMAP
ENDCHAR
STARTCHAR GothicCapA
ENCODING 65
SWIDTH 787 0
DWIDTH 13 0
BBX 12 13 1 -1
BITMAP
3c00
ffc0
31c0
30c0
30c0
30c0
7ec0
30c0
30c0
60c0
c0e0
f8f0
7040
ENDCHAR
STARTCHAR GothicCapB
ENCODING 66
SWIDTH 787 0
DWIDTH 13 0
BBX 12 13 1 -1
BITMAP
7e00
9380
31c0
31c0
3380
3fc0
30e0
3030
3030
3030
e060
3180
0e00
ENDCHAR
STARTCHAR GothicCapC
ENCODING 67
SWIDTH 732 0
DWIDTH 12 0
BBX 12 12 1 0
BITMAP
0e00
13b0
70c0
6000
e000
e000
e000
e000
7000
7840
3f80
0e00
ENDCHAR
STARTCHAR GothicCapD
ENCODING 68
SWIDTH 853 0
DWIDTH 15 0
BBX 13 13 1 -1
BITMAP
7f00
91e0
30f0
3078
3038
3038
3038
3038
3030
3060
e080
bb00
0e00
ENDCHAR
STARTCHAR GothicCapE
ENCODING 69
SWIDTH 720 0
DWIDTH 12 0
BBX 11 12 1 0
BITMAP
0f00
71e0
6000
e000
e020
ffc0
e000
e000
7000
7840
3f80
0e00
ENDCHAR
STARTCHAR GothicCapF
ENCODING 70
SWIDTH 641 0
DWIDTH 11 0
BBX 11 14 1 -2
BITMAP
7c00
8be0
3800
3800
3800
3840
7f80
3800
3800
3800
3800
3800
3000
4000
ENDCHAR
STARTCHAR GothicCapG
ENCODING 71
SWIDTH 775 0
DWIDTH 13 0
BBX 12 12 1 0
BITMAP
0700
0890
7060
7000
e000
e000
e7f0
e460
7060
78c0
3f80
0e00
ENDCHAR
STARTCHAR GothicCapH
ENCODING 72
SWIDTH 803 0
DWIDTH 14 0
BBX 12 12 1 0
BITMAP
00c0
e1f0
e060
60e0
60e0
60e0
6fe0
70e0
60e0
60e0
c0e0
f030
ENDCHAR
STARTCHAR GothicCapI
ENCODING 73
SWIDTH 385 0
DWIDTH 7 0
BBX 5 12 1 0
BITMAP
e8
30
70
70
70
70
70
70
70
60
f8
30
ENDCHAR
STARTCHAR GothicCapJ
ENCODING 74
SWIDTH 673 0
DWIDTH 11 0
BBX 10 12 1 0
BITMAP
3800
4fc0
0180
0380
0380
2380
4380
c380
e300
6400
7800
3000
ENDCHAR
STARTCHAR GothicCapK
ENCODING 75
SWIDTH 751 0
DWIDTH 13 0
BBX 11 12 1 0
BITMAP
6060
f8c0
7180
7100
7200
7f80
7180
7180
7180
7180
74e0
f8c0
ENDCHAR
STARTCHAR GothicCapL
ENCODING 76
SWIDTH 658 0
DWIDTH 11 0
BBX 10 12 1 0
BITMAP
0300
0f80
3980
3900
3800
3800
3800
3800
3000
2000
f040
8f80
ENDCHAR
STARTCHAR GothicCapM
ENCODING 77
SWIDTH 1057 0
DWIDTH 18 0
BBX 17 12 1 0
BITMAP
ef3800
73ce00
718c00
718c00
718c00
718c00
718c00
718c00
718c00
718e00
fd8780
310200
ENDCHAR
STARTCHAR GothicCapN
ENCODING 78
SWIDTH 785 0
DWIDTH 13 0
BBX 12 12 1 0
BITMAP
4600
f9e0
70c0
70c0
70c0
70c0
70c0
70c0
70c0
70e0
fc70
3020
ENDCHAR
STARTCHAR GothicCapO
ENCODING 79
SWIDTH 783 0
DWIDTH 13 0
BBX 12 12 1 0
BITMAP
0380
74e0
6c60
cc70
c830
c830
c030
e030
6060
70c0
3f80
0e00
ENDCHAR
STARTCHAR GothicCapP
ENCODING 80
SWIDTH 716 0
DWIDTH 12 0
BBX 11 12 1 0
BITMAP
7f00
99c0
38e0
38e0
38e0
38e0
3980
7e00
3800
3800
3000
7c00
ENDCHAR
STARTCHAR GothicCapQ
ENCODING 81
SWIDTH 843 0
DWIDTH 14 0
BBX 13 12 1 0
BITMAP
1780
69c0
7860
d870
c830
d030
c030
c030
df30
63c0
3ff8
0c70
ENDCHAR
STARTCHAR GothicCapR
ENCODING 82
SWIDTH 779 0
DWIDTH 13 0
BBX 12 12 1 0
BITMAP
3f00
d180
b0c0
30c0
30c0
3180
3f80
3180
30c0
30c0
6060
3870
ENDCHAR
STARTCHAR GothicCapS
ENCODING 83
SWIDTH 756 0
DWIDTH 13 0
BBX 11 12 1 0
BITMAP
0c00
1320
21c0
6000
6000
7fe0
38e0
20e0
e0e0
39c0
1e00
0800
ENDCHAR
STARTCHAR GothicCapT
ENCODING 84
SWIDTH 697 0
DWIDTH 12 0
BBX 13 12 1 0
BITMAP
1c00
7f88
61f0
c700
c700
2700
0700
0700
0700
0700
0e00
0780
ENDCHAR
STARTCHAR GothicCapU
ENCODING 85
SWIDTH 816 0
DWIDTH 14 0
BBX 13 13 1 -1
BITMAP
e1f0
7860
70e0
70e0
70e0
70e0
70e0
70e0
70e0
70e0
60e0
f9f8
0e60
ENDCHAR
STARTCHAR GothicCapV
ENCODING 86
SWIDTH 688 0
DWIDTH 12 0
BBX 10 12 1 0
BITMAP
4000
cf00
e3c0
e380
e380
e380
e380
e380
c300
f600
3c00
1800
ENDCHAR
STARTCHAR GothicCapW
ENCODING 87
SWIDTH 1016 0
DWIDTH 17 0
BBX 16 12 1 0
BITMAP
605c
f987
7186
7186
7186
7186
7186
7186
7186
f3c8
7df0
0860
ENDCHAR
STARTCHAR GothicCapX
ENCODING 88
SWIDTH 723 0
DWIDTH 12 0
BBX 11 12 1 0
BITMAP
73e0
b080
1980
1d00
0e20
7fc0
4e00
1300
2380
e1c0
78e0
3040
ENDCHAR
STARTCHAR GothicCapY
ENCODING 89
SWIDTH 736 0
DWIDTH 13 0
BBX 11 13 1 -1
BITMAP
6380
f4e0
71c0
71c0
71c0
71c0
71c0
79c0
3fc0
0fc0
03c0
ff80
1e00
ENDCHAR
STARTCHAR GothicCapZ
ENCODING 90
SWIDTH 805 0
DWIDTH 14 0
BBX 13 13 1 -1
BITMAP
1c00
3f08
23f0
00e0
0180
1f20
14c0
0c00
0800
1800
7c20
ffe0
87c0
ENDCHAR
STARTCHAR bracketleft
ENCODING 91
SWIDTH 263 0
DWIDTH 4 0
BBX 0 0 0 0
BITMAP
ENDCHAR
STARTCHAR backslash
ENCODING 92
SWIDTH 263 0
DWIDTH 4 0
BBX 0 0 0 0
BITMAP
ENDCHAR
STARTCHAR bracketright
ENCODING 93
SWIDTH 263 0
DWIDTH 4 0
BBX 0 0 0 0
BITMAP
ENDCHAR
STARTCHAR asciicircum
ENCODING 94
SWIDTH 263 0
DWIDTH 4 0
BBX 0 0 0 0
BITMAP
ENDCHAR
STARTCHAR underscore
ENCODING 95
SWIDTH 263 0
DWIDTH 4 0
BBX 0 0 0 0
BITMAP
ENDCHAR
STARTCHAR grave
ENCODING 96
SWIDTH 263 0
DWIDTH 4 0
BBX 0 0 0 0
BITMAP
ENDCHAR
STARTCHAR GothicA
ENCODING 97
SWIDTH 514 0
DWIDTH 9 0
BBX 8 8 1 0
BITMAP
30
ce
cc
cc
cc
cc
ff
2c
ENDCHAR
STARTCHAR GothicB
ENCODING 98
SWIDTH 523 0
DWIDTH 9 0
BBX 8 13 0 -1
BITMAP
10
60
60
60
6c
77
63
63
63
63
f2
3c
18
ENDCHAR
STARTCHAR GothicC
ENCODING 99
SWIDTH 412 0
DWIDTH 7 0
BBX 6 8 1 0
BITMAP
18
6c
c8
c0
c0
c0
e4
38
ENDCHAR
STARTCHAR GothicD
ENCODING 100
SWIDTH 528 0
DWIDTH 9 0
BBX 8 12 1 0
BITMAP
02
06
06
06
3e
cc
c4
c4
c4
c4
ff
24
ENDCHAR
STARTCHAR GothicE
ENCODING 101
SWIDTH 427 0
DWIDTH 7 0
BBX 6 8 1 0
BITMAP
38
5c
c8
f0
c0
c0
e4
78
ENDCHAR
STARTCHAR GothicF
ENCODING 102
SWIDTH 432 0
DWIDTH 7 0
BBX 7 14 1 -2
BITMAP
18
6e
60
60
fc
60
60
60
60
60
60
60
60
c0
ENDCHAR
STARTCHAR GothicG
ENCODING 103
SWIDTH 555 0
DWIDTH 9 0
BBX 9 12 0 -4
BITMAP
0c00
3780
3300
3300
3300
3300
3700
1f00
0700
6700
b600
0c00
ENDCHAR
STARTCHAR GothicH
ENCODING 104
SWIDTH 551 0
DWIDTH 9 0
BBX 9 12 1 0
BITMAP
2000
c000
c000
c000
d800
ee00
c600
c600
c600
c600
c780
8200
ENDCHAR
STARTCHAR GothicI
ENCODING 105
SWIDTH 298 0
DWIDTH 5 0
BBX 5 11 1 0
BITMAP
60
e0
00
40
e0
e0
e0
e0
e0
f8
60
ENDCHAR
STARTCHAR GothicJ
ENCODING 106
SWIDTH 318 0
DWIDTH 5 0
BBX 4 15 1 -4
BITMAP
60
70
00
20
e0
60
60
60
60
60
60
60
60
40
80
ENDCHAR
STARTCHAR GothicK
ENCODING 107
SWIDTH 498 0
DWIDTH 8 0
BBX 7 12 1 0
BITMAP
20
c0
c0
c0
d8
ec
c8
fc
cc
cc
ce
84
ENDCHAR
STARTCHAR GothicL
ENCODING 108
SWIDTH 262 0
DWIDTH 4 0
BBX 4 12 1 0
BITMAP
a0
c0
c0
c0
c0
c0
c0
c0
c0
c0
f0
c0
ENDCHAR
STARTCHAR GothicM
ENCODING 109
SWIDTH 742 0
DWIDTH 13 0
BBX 12 9 0 0
BITMAP
4880
ddc0
6660
6660
6660
6660
6660
6670
4420
ENDCHAR
STARTCHAR GothicN
ENCODING 110
SWIDTH 529 0
DWIDTH 9 0
BBX 8 9 0 0
BITMAP
48
dc
66
66
66
66
66
67
42
ENDCHAR
STARTCHAR GothicO
ENCODING 111
SWIDTH 444 0
DWIDTH 8 0
BBX 6 8 1 0
BITMAP
38
cc
cc
cc
cc
cc
f8
30
ENDCHAR
STARTCHAR GothicP
ENCODING 112
SWIDTH 495 0
DWIDTH 8 0
BBX 8 13 0 -4
BITMAP
44
fe
63
63
63
63
63
f6
7c
60
60
60
d0
ENDCHAR
STARTCHAR GothicQ
ENCODING 113
SWIDTH 485 0
DWIDTH 8 0
BBX 7 13 1 -5
BITMAP
30
7e
cc
cc
cc
cc
cc
fc
2c
0c
0c
0c
02
ENDCHAR
STARTCHAR GothicR
ENCODING 114
SWIDTH 454 0
DWIDTH 8 0
BBX 7 9 1 0
BITMAP
80
fe
cc
c0
c0
c0
c0
c0
80
ENDCHAR
STARTCHAR GothicS
ENCODING 115
SWIDTH 533 0
DWIDTH 9 0
BBX 8 8 1 0
BITMAP
3c
c6
c0
ff
83
e3
7c
30
ENDCHAR
STARTCHAR GothicT
ENCODING 116
SWIDTH 410 0
DWIDTH 7 0
BBX 6 10 0 0
BITMAP
10
30
fc
30
30
30
30
30
38
10
ENDCHAR
STARTCHAR GothicU
ENCODING 117
SWIDTH 575 0
DWIDTH 10 0
BBX 9 8 0 0
BITMAP
e780
3100
6300
6300
6300
6300
6700
3980
ENDCHAR
STARTCHAR GothicV
ENCODING 118
SWIDTH 510 0
DWIDTH 9 0
BBX 7 8 1 0
BITMAP
8c
d6
c6
c6
c6
c6
dc
30
ENDCHAR
STARTCHAR GothicW
ENCODING 119
SWIDTH 762 0
DWIDTH 13 0
BBX 13 8 0 0
BITMAP
f178
6330
6330
6330
6330
6330
7fe0
1180
ENDCHAR
STARTCHAR GothicX
ENCODING 120
SWIDTH 520 0
DWIDTH 9 0
BBX 8 8 1 0
BITMAP
6f
b6
1c
7e
7e
3c
46
e7
ENDCHAR
STARTCHAR GothicY
ENCODING 121
SWIDTH 575 0
DWIDTH 10 0
BBX 9 12 0 -4
BITMAP
4f00
6380
6300
6300
6300
6300
6300
7300
3f00
0b00
e300
3c00
ENDCHAR
STARTCHAR GothicZ
ENCODING 122
SWIDTH 569 0
DWIDTH 10 0
BBX 9 9 1 -1
BITMAP
3800
7f80
4700
3d00
3600
1000
7880
ff00
8f00
ENDCHAR
STARTCHAR braceleft
ENCODING 123
SWIDTH 263 0
DWIDTH 4 0
BBX 0 0 0 0
BITMAP
ENDCHAR
STARTCHAR bar
ENCODING 124
SWIDTH 263 0
DWIDTH 4 0
BBX 0 0 0 0
BITMAP
ENDCHAR
STARTCHAR braceright
ENCODING 125
SWIDTH 263 0
DWIDTH 4 0
BBX 0 0 0 0
BITMAP
ENDCHAR
STARTCHAR asciitilde
ENCODING 126
SWIDTH 263 0
DWIDTH 4 0
BBX 0 0 0 0
BITMAP
ENDCHAR
STARTCHAR DEL
ENCODING 127
SWIDTH 263 0
DWIDTH 4 0
BBX 0 0 0 0
BITMAP
ENDCHAR
STARTCHAR Adieresis
ENCODING 128
SWIDTH 263 0
DWIDTH 4 0
BBX 0 0 0 0
BITMAP
ENDCHAR
STARTCHAR Aring
ENCODING 129
SWIDTH 263 0
DWIDTH 4 0
BBX 0 0 0 0
BITMAP
ENDCHAR
STARTCHAR Ccedilla
ENCODING 130
SWIDTH 263 0
DWIDTH 4 0
BBX 0 0 0 0
BITMAP
ENDCHAR
STARTCHAR Eacute
ENCODING 131
SWIDTH 263 0
DWIDTH 4 0
BBX 0 0 0 0
BITMAP
ENDCHAR
STARTCHAR Ntilde
ENCODING 132
SWIDTH 263 0
DWIDTH 4 0
BBX 0 0 0 0
BITMAP
ENDCHAR
STARTCHAR Odieresis
ENCODING 133
SWIDTH 263 0
DWIDTH 4 0
BBX 0 0 0 0
BITMAP
ENDCHAR
STARTCHAR Udieresis
ENCODING 134
SWIDTH 263 0
DWIDTH 4 0
BBX 0 0 0 0
BITMAP
ENDCHAR
STARTCHAR aacute
ENCODING 135
SWIDTH 263 0
DWIDTH 4 0
BBX 0 0 0 0
BITMAP
ENDCHAR
STARTCHAR agrave
ENCODING 136
SWIDTH 263 0
DWIDTH 4 0
BBX 0 0 0 0
BITMAP
ENDCHAR
STARTCHAR acircumflex
ENCODING 137
SWIDTH 263 0
DWIDTH 4 0
BBX 0 0 0 0
BITMAP
ENDCHAR
STARTCHAR adieresis
ENCODING 138
SWIDTH 263 0
DWIDTH 4 0
BBX 0 0 0 0
BITMAP
ENDCHAR
STARTCHAR atilde
ENCODING 139
SWIDTH 263 0
DWIDTH 4 0
BBX 0 0 0 0
BITMAP
ENDCHAR
STARTCHAR aring
ENCODING 140
SWIDTH 263 0
DWIDTH 4 0
BBX 0 0 0 0
BITMAP
ENDCHAR
STARTCHAR ccedilla
ENCODING 141
SWIDTH 263 0
DWIDTH 4 0
BBX 0 0 0 0
BITMAP
ENDCHAR
STARTCHAR eacute
ENCODING 142
SWIDTH 263 0
DWIDTH 4 0
BBX 0 0 0 0
BITMAP
ENDCHAR
STARTCHAR egrave
ENCODING 143
SWIDTH 263 0
DWIDTH 4 0
BBX 0 0 0 0
BITMAP
ENDCHAR
STARTCHAR ecircumflex
ENCODING 144
SWIDTH 263 0
DWIDTH 4 0
BBX 0 0 0 0
BITMAP
ENDCHAR
STARTCHAR edieresis
ENCODING 145
SWIDTH 263 0
DWIDTH 4 0
BBX 0 0 0 0
BITMAP
ENDCHAR
STARTCHAR iacute
ENCODING 146
SWIDTH 263 0
DWIDTH 4 0
BBX 0 0 0 0
BITMAP
ENDCHAR
STARTCHAR igrave
ENCODING 147
SWIDTH 263 0
DWIDTH 4 0
BBX 0 0 0 0
BITMAP
ENDCHAR
STARTCHAR icircumflex
ENCODING 148
SWIDTH 263 0
DWIDTH 4 0
BBX 0 0 0 0
BITMAP
ENDCHAR
STARTCHAR idieresis
ENCODING 149
SWIDTH 263 0
DWIDTH 4 0
BBX 0 0 0 0
BITMAP
ENDCHAR
STARTCHAR ntilde
ENCODING 150
SWIDTH 263 0
DWIDTH 4 0
BBX 0 0 0 0
BITMAP
ENDCHAR
STARTCHAR oacute
ENCODING 151
SWIDTH 263 0
DWIDTH 4 0
BBX 0 0 0 0
BITMAP
ENDCHAR
STARTCHAR ograve
ENCODING 152
SWIDTH 263 0
DWIDTH 4 0
BBX 0 0 0 0
BITMAP
ENDCHAR
STARTCHAR ocircumflex
ENCODING 153
SWIDTH 263 0
DWIDTH 4 0
BBX 0 0 0 0
BITMAP
ENDCHAR
STARTCHAR odieresis
ENCODING 154
SWIDTH 263 0
DWIDTH 4 0
BBX 0 0 0 0
BITMAP
ENDCHAR
STARTCHAR otilde
ENCODING 155
SWIDTH 263 0
DWIDTH 4 0
BBX 0 0 0 0
BITMAP
ENDCHAR
STARTCHAR uacute
ENCODING 156
SWIDTH 263 0
DWIDTH 4 0
BBX 0 0 0 0
BITMAP
ENDCHAR
STARTCHAR ugrave
ENCODING 157
SWIDTH 263 0
DWIDTH 4 0
BBX 0 0 0 0
BITMAP
ENDCHAR
STARTCHAR ucircumflex
ENCODING 158
SWIDTH 263 0
DWIDTH 4 0
BBX 0 0 0 0
BITMAP
ENDCHAR
STARTCHAR udieresis
ENCODING 159
SWIDTH 263 0
DWIDTH 4 0
BBX 0 0 0 0
BITMAP
ENDCHAR
STARTCHAR dagger
ENCODING 160
SWIDTH 263 0
DWIDTH 4 0
BBX 0 0 0 0
BITMAP
ENDCHAR
STARTCHAR degree
ENCODING 161
SWIDTH 263 0
DWIDTH 4 0
BBX 0 0 0 0
BITMAP
ENDCHAR
STARTCHAR cent
ENCODING 162
SWIDTH 263 0
DWIDTH 4 0
BBX 0 0 0 0
BITMAP
ENDCHAR
STARTCHAR sterling
ENCODING 163
SWIDTH 263 0
DWIDTH 4 0
BBX 0 0 0 0
BITMAP
ENDCHAR
STARTCHAR section
ENCODING 164
SWIDTH 263 0
DWIDTH 4 0
BBX 0 0 0 0
BITMAP
ENDCHAR
STARTCHAR bullet
ENCODING 165
SWIDTH 263 0
DWIDTH 4 0
BBX 0 0 0 0
BITMAP
ENDCHAR
STARTCHAR paragraph
ENCODING 166
SWIDTH 263 0
DWIDTH 4 0
BBX 0 0 0 0
BITMAP
ENDCHAR
STARTCHAR germandbls
ENCODING 167
SWIDTH 263 0
DWIDTH 4 0
BBX 0 0 0 0
BITMAP
ENDCHAR
STARTCHAR registered
ENCODING 168
SWIDTH 263 0
DWIDTH 4 0
BBX 0 0 0 0
BITMAP
ENDCHAR
STARTCHAR copyright
ENCODING 169
SWIDTH 263 0
DWIDTH 4 0
BBX 0 0 0 0
BITMAP
ENDCHAR
STARTCHAR trademark
ENCODING 170
SWIDTH 263 0
DWIDTH 4 0
BBX 0 0 0 0
BITMAP
ENDCHAR
STARTCHAR acute
ENCODING 171
SWIDTH 263 0
DWIDTH 4 0
BBX 0 0 0 0
BITMAP
ENDCHAR
STARTCHAR dieresis
ENCODING 172
SWIDTH 263 0
DWIDTH 4 0
BBX 0 0 0 0
BITMAP
ENDCHAR
STARTCHAR notequal
ENCODING 173
SWIDTH 263 0
DWIDTH 4 0
BBX 0 0 0 0
BITMAP
ENDCHAR
STARTCHAR AE
ENCODING 174
SWIDTH 263 0
DWIDTH 4 0
BBX 0 0 0 0
BITMAP
ENDCHAR
STARTCHAR Oslash
ENCODING 175
SWIDTH 263 0
DWIDTH 4 0
BBX 0 0 0 0
BITMAP
ENDCHAR
STARTCHAR infinity
ENCODING 176
SWIDTH 263 0
DWIDTH 4 0
BBX 0 0 0 0
BITMAP
ENDCHAR
STARTCHAR plusminus
ENCODING 177
SWIDTH 263 0
DWIDTH 4 0
BBX 0 0 0 0
BITMAP
ENDCHAR
STARTCHAR lessequal
ENCODING 178
SWIDTH 263 0
DWIDTH 4 0
BBX 0 0 0 0
BITMAP
ENDCHAR
STARTCHAR greaterequal
ENCODING 179
SWIDTH 263 0
DWIDTH 4 0
BBX 0 0 0 0
BITMAP
ENDCHAR
STARTCHAR yen
ENCODING 180
SWIDTH 263 0
DWIDTH 4 0
BBX 0 0 0 0
BITMAP
ENDCHAR
STARTCHAR mu
ENCODING 181
SWIDTH 263 0
DWIDTH 4 0
BBX 0 0 0 0
BITMAP
ENDCHAR
STARTCHAR partialdiff
ENCODING 182
SWIDTH 263 0
DWIDTH 4 0
BBX 0 0 0 0
BITMAP
ENDCHAR
STARTCHAR summation
ENCODING 183
SWIDTH 263 0
DWIDTH 4 0
BBX 0 0 0 0
BITMAP
ENDCHAR
STARTCHAR product
ENCODING 184
SWIDTH 263 0
DWIDTH 4 0
BBX 0 0 0 0
BITMAP
ENDCHAR
STARTCHAR pi
ENCODING 185
SWIDTH 263 0
DWIDTH 4 0
BBX 0 0 0 0
BITMAP
ENDCHAR
STARTCHAR integral
ENCODING 186
SWIDTH 263 0
DWIDTH 4 0
BBX 0 0 0 0
BITMAP
ENDCHAR
STARTCHAR ordfeminine
ENCODING 187
SWIDTH 263 0
DWIDTH 4 0
BBX 0 0 0 0
BITMAP
ENDCHAR
STARTCHAR ordmasculine
ENCODING 188
SWIDTH 263 0
DWIDTH 4 0
BBX 0 0 0 0
BITMAP
ENDCHAR
STARTCHAR Omega
ENCODING 189
SWIDTH 263 0
DWIDTH 4 0
BBX 0 0 0 0
BITMAP
ENDCHAR
STARTCHAR ae
ENCODING 190
SWIDTH 263 0
DWIDTH 4 0
BBX 0 0 0 0
BITMAP
ENDCHAR
STARTCHAR oslash
ENCODING 191
SWIDTH 263 0
DWIDTH 4 0
BBX 0 0 0 0
BITMAP
ENDCHAR
STARTCHAR questiondown
ENCODING 192
SWIDTH 263 0
DWIDTH 4 0
BBX 0 0 0 0
BITMAP
ENDCHAR
STARTCHAR exclamdown
ENCODING 193
SWIDTH 263 0
DWIDTH 4 0
BBX 0 0 0 0
BITMAP
ENDCHAR
STARTCHAR logicalnot
ENCODING 194
SWIDTH 263 0
DWIDTH 4 0
BBX 0 0 0 0
BITMAP
ENDCHAR
STARTCHAR radical
ENCODING 195
SWIDTH 263 0
DWIDTH 4 0
BBX 0 0 0 0
BITMAP
ENDCHAR
STARTCHAR florin
ENCODING 196
SWIDTH 263 0
DWIDTH 4 0
BBX 0 0 0 0
BITMAP
ENDCHAR
STARTCHAR approxequal
ENCODING 197
SWIDTH 263 0
DWIDTH 4 0
BBX 0 0 0 0
BITMAP
ENDCHAR
STARTCHAR Delta
ENCODING 198
SWIDTH 263 0
DWIDTH 4 0
BBX 0 0 0 0
BITMAP
ENDCHAR
STARTCHAR guillemotleft
ENCODING 199
SWIDTH 263 0
DWIDTH 4 0
BBX 0 0 0 0
BITMAP
ENDCHAR
STARTCHAR guillemotright
ENCODING 200
SWIDTH 263 0
DWIDTH 4 0
BBX 0 0 0 0
BITMAP
ENDCHAR
STARTCHAR ellipsis
ENCODING 201
SWIDTH 263 0
DWIDTH 4 0
BBX 0 0 0 0
BITMAP
ENDCHAR
STARTCHAR nbspace
ENCODING 202
SWIDTH 263 0
DWIDTH 4 0
BBX 0 0 0 0
BITMAP
ENDCHAR
STARTCHAR Agrave
ENCODING 203
SWIDTH 263 0
DWIDTH 4 0
BBX 0 0 0 0
BITMAP
ENDCHAR
STARTCHAR Atilde
ENCODING 204
SWIDTH 263 0
DWIDTH 4 0
BBX 0 0 0 0
BITMAP
ENDCHAR
STARTCHAR Otilde
ENCODING 205
SWIDTH 263 0
DWIDTH 4 0
BBX 0 0 0 0
BITMAP
ENDCHAR
STARTCHAR OE
ENCODING 206
SWIDTH 263 0
DWIDTH 4 0
BBX 0 0 0 0
BITMAP
ENDCHAR
STARTCHAR oe
ENCODING 207
SWIDTH 263 0
DWIDTH 4 0
BBX 0 0 0 0
BITMAP
ENDCHAR
STARTCHAR endash
ENCODING 208
SWIDTH 263 0
DWIDTH 4 0
BBX 0 0 0 0
BITMAP
ENDCHAR
STARTCHAR emdash
ENCODING 209
SWIDTH 263 0
DWIDTH 4 0
BBX 0 0 0 0
BITMAP
ENDCHAR
STARTCHAR quotedblleft
ENCODING 210
SWIDTH 263 0
DWIDTH 4 0
BBX 0 0 0 0
BITMAP
ENDCHAR
STARTCHAR quotedblright
ENCODING 211
SWIDTH 263 0
DWIDTH 4 0
BBX 0 0 0 0
BITMAP
ENDCHAR
STARTCHAR quoteleft
ENCODING 212
SWIDTH 263 0
DWIDTH 4 0
BBX 0 0 0 0
BITMAP
ENDCHAR
STARTCHAR quoteright
ENCODING 213
SWIDTH 263 0
DWIDTH 4 0
BBX 0 0 0 0
BITMAP
ENDCHAR
STARTCHAR divide
ENCODING 214
SWIDTH 263 0
DWIDTH 4 0
BBX 0 0 0 0
BITMAP
ENDCHAR
STARTCHAR lozenge
ENCODING 215
SWIDTH 263 0
DWIDTH 4 0
BBX 0 0 0 0
BITMAP
ENDCHAR
STARTCHAR ydieresis
ENCODING 216
SWIDTH 263 0
DWIDTH 4 0
BBX 0 0 0 0
BITMAP
ENDCHAR
STARTCHAR Ydieresis
ENCODING 217
SWIDTH 263 0
DWIDTH 4 0
BBX 0 0 0 0
BITMAP
ENDCHAR
STARTCHAR fraction
ENCODING 218
SWIDTH 263 0
DWIDTH 4 0
BBX 0 0 0 0
BITMAP
ENDCHAR
STARTCHAR currency
ENCODING 219
SWIDTH 263 0
DWIDTH 4 0
BBX 0 0 0 0
BITMAP
ENDCHAR
STARTCHAR guilsinglleft
ENCODING 220
SWIDTH 263 0
DWIDTH 4 0
BBX 0 0 0 0
BITMAP
ENDCHAR
STARTCHAR guilsinglright
ENCODING 221
SWIDTH 263 0
DWIDTH 4 0
BBX 0 0 0 0
BITMAP
ENDCHAR
STARTCHAR fi
ENCODING 222
SWIDTH 263 0
DWIDTH 4 0
BBX 0 0 0 0
BITMAP
ENDCHAR
STARTCHAR fl
ENCODING 223
SWIDTH 263 0
DWIDTH 4 0
BBX 0 0 0 0
BITMAP
ENDCHAR
STARTCHAR daggerdbl
ENCODING 224
SWIDTH 263 0
DWIDTH 4 0
BBX 0 0 0 0
BITMAP
ENDCHAR
STARTCHAR periodcentered
ENCODING 225
SWIDTH 263 0
DWIDTH 4 0
BBX 0 0 0 0
BITMAP
ENDCHAR
STARTCHAR quotesinglbase
ENCODING 226
SWIDTH 263 0
DWIDTH 4 0
BBX 0 0 0 0
BITMAP
ENDCHAR
STARTCHAR quotedblbase
ENCODING 227
SWIDTH 263 0
DWIDTH 4 0
BBX 0 0 0 0
BITMAP
ENDCHAR
STARTCHAR perthousand
ENCODING 228
SWIDTH 263 0
DWIDTH 4 0
BBX 0 0 0 0
BITMAP
ENDCHAR
STARTCHAR Acircumflex
ENCODING 229
SWIDTH 263 0
DWIDTH 4 0
BBX 0 0 0 0
BITMAP
ENDCHAR
STARTCHAR Ecircumflex
ENCODING 230
SWIDTH 263 0
DWIDTH 4 0
BBX 0 0 0 0
BITMAP
ENDCHAR
STARTCHAR Aacute
ENCODING 231
SWIDTH 263 0
DWIDTH 4 0
BBX 0 0 0 0
BITMAP
ENDCHAR
STARTCHAR Edieresis
ENCODING 232
SWIDTH 263 0
DWIDTH 4 0
BBX 0 0 0 0
BITMAP
ENDCHAR
STARTCHAR Egrave
ENCODING 233
SWIDTH 263 0
DWIDTH 4 0
BBX 0 0 0 0
BITMAP
ENDCHAR
STARTCHAR Iacute
ENCODING 234
SWIDTH 263 0
DWIDTH 4 0
BBX 0 0 0 0
BITMAP
ENDCHAR
STARTCHAR Icircumflex
ENCODING 235
SWIDTH 263 0
DWIDTH 4 0
BBX 0 0 0 0
BITMAP
ENDCHAR
STARTCHAR Idieresis
ENCODING 236
SWIDTH 263 0
DWIDTH 4 0
BBX 0 0 0 0
BITMAP
ENDCHAR
STARTCHAR Igrave
ENCODING 237
SWIDTH 263 0
DWIDTH 4 0
BBX 0 0 0 0
BITMAP
ENDCHAR
STARTCHAR Oacute
ENCODING 238
SWIDTH 263 0
DWIDTH 4 0
BBX 0 0 0 0
BITMAP
ENDCHAR
STARTCHAR Ocircumflex
ENCODING 239
SWIDTH 263 0
DWIDTH 4 0
BBX 0 0 0 0
BITMAP
ENDCHAR
STARTCHAR apple
ENCODING 240
SWIDTH 263 0
DWIDTH 4 0
BBX 0 0 0 0
BITMAP
ENDCHAR
STARTCHAR Ograve
ENCODING 241
SWIDTH 263 0
DWIDTH 4 0
BBX 0 0 0 0
BITMAP
ENDCHAR
STARTCHAR Uacute
ENCODING 242
SWIDTH 263 0
DWIDTH 4 0
BBX 0 0 0 0
BITMAP
ENDCHAR
STARTCHAR Ucircumflex
ENCODING 243
SWIDTH 263 0
DWIDTH 4 0
BBX 0 0 0 0
BITMAP
ENDCHAR
STARTCHAR Ugrave
ENCODING 244
SWIDTH 263 0
DWIDTH 4 0
BBX 0 0 0 0
BITMAP
ENDCHAR
STARTCHAR dotlessi
ENCODING 245
SWIDTH 263 0
DWIDTH 4 0
BBX 0 0 0 0
BITMAP
ENDCHAR
STARTCHAR circumflex
ENCODING 246
SWIDTH 263 0
DWIDTH 4 0
BBX 0 0 0 0
BITMAP
ENDCHAR
STARTCHAR tilde
ENCODING 247
SWIDTH 263 0
DWIDTH 4 0
BBX 0 0 0 0
BITMAP
ENDCHAR
STARTCHAR macron
ENCODING 248
SWIDTH 263 0
DWIDTH 4 0
BBX 0 0 0 0
BITMAP
ENDCHAR
STARTCHAR breve
ENCODING 249
SWIDTH 263 0
DWIDTH 4 0
BBX 0 0 0 0
BITMAP
ENDCHAR
STARTCHAR dotaccent
ENCODING 250
SWIDTH 263 0
DWIDTH 4 0
BBX 0 0 0 0
BITMAP
ENDCHAR
STARTCHAR ring
ENCODING 251
SWIDTH 263 0
DWIDTH 4 0
BBX 0 0 0 0
BITMAP
ENDCHAR
STARTCHAR cedilla
ENCODING 252
SWIDTH 263 0
DWIDTH 4 0
BBX 0 0 0 0
BITMAP
ENDCHAR
STARTCHAR hungarumlaut
ENCODING 253
SWIDTH 263 0
DWIDTH 4 0
BBX 0 0 0 0
BITMAP
ENDCHAR
STARTCHAR ogonek
ENCODING 254
SWIDTH 263 0
DWIDTH 4 0
BBX 0 0 0 0
BITMAP
ENDCHAR
STARTCHAR caron
ENCODING 255
SWIDTH 263 0
DWIDTH 4 0
BBX 0 0 0 0
BITMAP
ENDCHAR
ENDFONT
