STARTFONT 2.1
FONT -WRI-Mathematica5-Medium-R-Normal--13-130-75-75-p-60-Adobe-FontSpecific
SIZE 13 75 75
FONTBOUNDINGBOX 41 27 -2 -10
STARTPROPERTIES 16
FOUNDRY "WRI"
FAMILY_NAME "Mathematica5"
WEIGHT_NAME "Medium"
SLANT "R"
SETWIDTH_NAME "Normal"
PIXEL_SIZE 13
POINT_SIZE 130
RESOLUTION_X 75
RESOLUTION_Y 75
SPACING "p"
AVERAGE_WIDTH 60
CHARSET_REGISTRY "Adobe"
CHARSET_ENCODING "FontSpecific"
FONT_DESCENT 10
FONT_ASCENT 17
DEFAULT_CHAR 32
ENDPROPERTIES
CHARS 228
STARTCHAR Villa
ENCODING 1
SWIDTH 627 0
DWIDTH 8 0
BBX 7 11 1 -2
BITMAP
0c
36
56
fa
4a
5e
56
3c
38
34
74
ENDCHAR
STARTCHAR Kooz
ENCODING 2
SWIDTH 746 0
DWIDTH 10 0
BBX 9 11 1 -2
BITMAP
7800
d800
5400
7c00
de00
f100
cf00
cb00
c080
4480
0380
ENDCHAR
STARTCHAR Andy
ENCODING 3
SWIDTH 1000 0
DWIDTH 13 0
BBX 10 10 1 0
BITMAP
c000
8400
c400
ff80
cd00
de00
c200
0c00
5040
0f80
ENDCHAR
STARTCHAR Spooky
ENCODING 4
SWIDTH 535 0
DWIDTH 7 0
BBX 8 8 0 0
BITMAP
46
6e
36
7d
fe
7e
74
04
ENDCHAR
STARTCHAR space
ENCODING 32
SWIDTH 189 0
DWIDTH 2 0
BBX 0 0 0 0
BITMAP
ENDCHAR
STARTCHAR BckspcKey
ENCODING 33
SWIDTH 1981 0
DWIDTH 26 0
BBX 24 10 1 -2
BITMAP
ffffff
800001
a256cd
b56ab3
b444f1
ac6291
ad6a93
b2568d
800001
ffffff
ENDCHAR
STARTCHAR HomeKey
ENCODING 34
SWIDTH 1603 0
DWIDTH 21 0
BBX 19 10 1 -2
BITMAP
ffffe0
800020
ab45e0
ad6d20
b4ede0
aced20
acf520
ab55e0
800020
ffffe0
ENDCHAR
STARTCHAR PgupKey
ENCODING 35
SWIDTH 1444 0
DWIDTH 19 0
BBX 17 10 1 -2
BITMAP
ffff80
800080
b69e80
b59980
b69e80
a59880
a59880
a66880
800080
ffff80
ENDCHAR
STARTCHAR PgdwnKey
ENCODING 36
SWIDTH 1999 0
DWIDTH 26 0
BBX 24 10 1 -2
BITMAP
ffffff
800001
b66933
b5553b
b74edb
a54ed7
a556d7
a76493
800001
ffffff
ENDCHAR
STARTCHAR EndKey
ENCODING 37
SWIDTH 1187 0
DWIDTH 15 0
BBX 14 10 1 -2
BITMAP
fffc
8004
b574
a74c
b74c
a74c
a554
b564
8004
fffc
ENDCHAR
STARTCHAR FilledHeart
ENCODING 38
SWIDTH 605 0
DWIDTH 8 0
BBX 6 7 1 0
BITMAP
dc
fc
fc
fc
78
30
10
ENDCHAR
STARTCHAR Euro
ENCODING 39
SWIDTH 500 0
DWIDTH 7 0
BBX 6 9 0 0
BITMAP
38
4c
84
80
c8
80
80
4c
70
ENDCHAR
STARTCHAR CapitalOE
ENCODING 40
SWIDTH 889 0
DWIDTH 12 0
BBX 11 9 0 0
BITMAP
3fe0
6220
c200
8240
83c0
8240
8200
4220
3fe0
ENDCHAR
STARTCHAR OE
ENCODING 41
SWIDTH 722 0
DWIDTH 9 0
BBX 10 6 0 0
BITMAP
7700
9980
8f80
8800
8cc0
7700
ENDCHAR
STARTCHAR ABar
ENCODING 42
SWIDTH 444 0
DWIDTH 6 0
BBX 6 8 0 0
BITMAP
78
00
30
48
38
48
88
7c
ENDCHAR
STARTCHAR ACup
ENCODING 43
SWIDTH 444 0
DWIDTH 6 0
BBX 6 9 0 0
BITMAP
44
48
30
30
48
08
68
98
6c
ENDCHAR
STARTCHAR CapitalABar
ENCODING 44
SWIDTH 722 0
DWIDTH 9 0
BBX 9 10 0 0
BITMAP
3c00
0000
0800
0c00
1400
2200
3e00
4200
4300
e380
ENDCHAR
STARTCHAR CapitalACup
ENCODING 45
SWIDTH 722 0
DWIDTH 9 0
BBX 9 11 0 0
BITMAP
1200
0c00
0000
0800
0c00
1400
1200
3e00
2300
4100
e380
ENDCHAR
STARTCHAR CAcute
ENCODING 46
SWIDTH 444 0
DWIDTH 6 0
BBX 5 9 0 0
BITMAP
08
30
00
30
48
80
80
c8
70
ENDCHAR
STARTCHAR CHacek
ENCODING 47
SWIDTH 444 0
DWIDTH 6 0
BBX 5 9 0 0
BITMAP
48
30
00
30
48
80
80
c8
70
ENDCHAR
STARTCHAR ScriptZero
ENCODING 48
SWIDTH 440 0
DWIDTH 6 0
BBX 6 9 0 0
BITMAP
18
24
44
44
84
88
88
90
60
ENDCHAR
STARTCHAR ScriptOne
ENCODING 49
SWIDTH 440 0
DWIDTH 6 0
BBX 5 9 0 0
BITMAP
08
38
18
10
10
10
30
20
f8
ENDCHAR
STARTCHAR ScriptTwo
ENCODING 50
SWIDTH 440 0
DWIDTH 6 0
BBX 6 9 0 0
BITMAP
38
64
04
08
08
30
40
c4
f8
ENDCHAR
STARTCHAR ScriptThree
ENCODING 51
SWIDTH 519 0
DWIDTH 7 0
BBX 6 9 0 0
BITMAP
1c
14
04
08
3c
04
04
48
f0
ENDCHAR
STARTCHAR ScriptFour
ENCODING 52
SWIDTH 519 0
DWIDTH 7 0
BBX 5 9 1 0
BITMAP
08
18
18
28
50
90
f8
30
20
ENDCHAR
STARTCHAR ScriptFive
ENCODING 53
SWIDTH 519 0
DWIDTH 7 0
BBX 7 9 0 0
BITMAP
1e
10
20
38
04
04
04
98
e0
ENDCHAR
STARTCHAR ScriptSix
ENCODING 54
SWIDTH 519 0
DWIDTH 7 0
BBX 7 9 0 0
BITMAP
0e
10
60
78
c4
84
84
88
70
ENDCHAR
STARTCHAR ScriptSeven
ENCODING 55
SWIDTH 519 0
DWIDTH 7 0
BBX 6 9 1 0
BITMAP
0c
fc
08
10
20
40
40
80
80
ENDCHAR
STARTCHAR ScriptEight
ENCODING 56
SWIDTH 519 0
DWIDTH 7 0
BBX 7 9 0 0
BITMAP
0c
12
22
3c
28
44
84
88
70
ENDCHAR
STARTCHAR ScriptNine
ENCODING 57
SWIDTH 519 0
DWIDTH 7 0
BBX 6 9 0 0
BITMAP
18
24
44
44
4c
34
08
18
e0
ENDCHAR
STARTCHAR ODoubleAcute
ENCODING 58
SWIDTH 500 0
DWIDTH 7 0
BBX 6 9 0 0
BITMAP
3c
50
00
78
8c
84
84
c4
78
ENDCHAR
STARTCHAR CapitalODoubleAcute
ENCODING 59
SWIDTH 722 0
DWIDTH 9 0
BBX 9 12 0 0
BITMAP
0d00
1600
0000
3e00
6300
c080
8080
8080
8080
c080
6300
3e00
ENDCHAR
STARTCHAR SHacek
ENCODING 60
SWIDTH 389 0
DWIDTH 5 0
BBX 4 9 1 0
BITMAP
90
60
00
70
90
c0
30
90
e0
ENDCHAR
STARTCHAR CapitalSHacek
ENCODING 61
SWIDTH 556 0
DWIDTH 7 0
BBX 5 12 1 0
BITMAP
48
30
00
78
88
88
c0
30
18
88
88
f0
ENDCHAR
STARTCHAR UDoubleAcute
ENCODING 62
SWIDTH 500 0
DWIDTH 7 0
BBX 6 9 0 0
BITMAP
28
70
00
d8
48
48
48
58
2c
ENDCHAR
STARTCHAR CapitalUDoubleAcute
ENCODING 63
SWIDTH 722 0
DWIDTH 9 0
BBX 9 12 0 0
BITMAP
0a00
1400
0000
f380
4100
4100
4100
4100
4100
4100
6200
1c00
ENDCHAR
STARTCHAR HSlash
ENCODING 64
SWIDTH 516 0
DWIDTH 7 0
BBX 6 9 1 0
BITMAP
60
20
f0
58
68
68
90
94
98
ENDCHAR
STARTCHAR ScriptCapA
ENCODING 65
SWIDTH 870 0
DWIDTH 11 0
BBX 10 9 0 0
BITMAP
0fc0
12c0
2280
2480
0f80
0880
0880
90c0
e0c0
ENDCHAR
STARTCHAR ScriptCapB
ENCODING 66
SWIDTH 718 0
DWIDTH 9 0
BBX 9 9 0 0
BITMAP
0f00
3480
6880
4880
5f00
1980
1080
2180
fe00
ENDCHAR
STARTCHAR ScriptCapC
ENCODING 67
SWIDTH 648 0
DWIDTH 8 0
BBX 8 10 0 -1
BITMAP
1e
21
41
80
80
80
82
82
46
78
ENDCHAR
STARTCHAR ScriptCapD
ENCODING 68
SWIDTH 860 0
DWIDTH 11 0
BBX 11 9 0 0
BITMAP
0f80
3440
6820
4820
1820
1020
1040
e080
3f00
ENDCHAR
STARTCHAR ScriptCapE
ENCODING 69
SWIDTH 622 0
DWIDTH 8 0
BBX 8 9 0 0
BITMAP
3e
22
60
3c
60
81
81
c2
7c
ENDCHAR
STARTCHAR ScriptCapF
ENCODING 70
SWIDTH 669 0
DWIDTH 9 0
BBX 11 9 0 0
BITMAP
3fe0
4800
8800
bf00
1000
1000
3000
2000
c000
ENDCHAR
STARTCHAR ScriptCapG
ENCODING 71
SWIDTH 704 0
DWIDTH 9 0
BBX 9 11 0 -2
BITMAP
0f00
1080
6080
4000
c000
8f80
8300
8e00
7200
8c00
f000
ENDCHAR
STARTCHAR ScriptCapH
ENCODING 72
SWIDTH 876 0
DWIDTH 11 0
BBX 12 9 0 0
BITMAP
1c10
6420
8860
8bc0
0c40
18c0
10c0
30c0
6040
ENDCHAR
STARTCHAR ScriptCapI
ENCODING 73
SWIDTH 650 0
DWIDTH 8 0
BBX 8 9 0 0
BITMAP
1f
24
08
08
18
10
10
20
f8
ENDCHAR
STARTCHAR ScriptCapJ
ENCODING 74
SWIDTH 775 0
DWIDTH 10 0
BBX 12 11 0 -2
BITMAP
0390
0ce0
0880
1100
0900
0100
0300
0200
8200
c400
7800
ENDCHAR
STARTCHAR ScriptCapK
ENCODING 75
SWIDTH 796 0
DWIDTH 10 0
BBX 12 9 0 0
BITMAP
3c60
4c90
8900
8e00
1a00
1200
1300
3180
6080
ENDCHAR
STARTCHAR ScriptCapL
ENCODING 76
SWIDTH 749 0
DWIDTH 10 0
BBX 9 10 1 -1
BITMAP
0700
0900
0900
1800
1800
1000
1000
2000
e080
1f00
ENDCHAR
STARTCHAR ScriptCapM
ENCODING 77
SWIDTH 1080 0
DWIDTH 14 0
BBX 14 9 0 0
BITMAP
0c04
0c08
0c18
0e38
1268
1348
2388
2308
c208
ENDCHAR
STARTCHAR ScriptCapN
ENCODING 78
SWIDTH 822 0
DWIDTH 11 0
BBX 11 9 0 0
BITMAP
0820
1840
1c40
1c40
2640
2280
2380
4180
8100
ENDCHAR
STARTCHAR ScriptCapO
ENCODING 79
SWIDTH 703 0
DWIDTH 9 0
BBX 9 9 0 0
BITMAP
0f00
1d80
2080
4080
8080
8100
8300
c600
7c00
ENDCHAR
STARTCHAR ScriptCapP
ENCODING 80
SWIDTH 709 0
DWIDTH 9 0
BBX 9 9 0 0
BITMAP
1e00
2980
5880
9080
b300
3c00
2000
2000
c000
ENDCHAR
STARTCHAR ScriptCapQ
ENCODING 81
SWIDTH 703 0
DWIDTH 9 0
BBX 9 9 0 0
BITMAP
0f00
3180
4080
4080
8180
8100
bb00
c600
7b80
ENDCHAR
STARTCHAR ScriptCapR
ENCODING 82
SWIDTH 680 0
DWIDTH 9 0
BBX 8 9 0 0
BITMAP
3f
59
91
92
3c
24
26
63
c1
ENDCHAR
STARTCHAR ScriptCapS
ENCODING 83
SWIDTH 679 0
DWIDTH 9 0
BBX 9 9 0 0
BITMAP
0f00
1180
1080
1800
0600
0300
8100
c200
7c00
ENDCHAR
STARTCHAR ScriptCapT
ENCODING 84
SWIDTH 678 0
DWIDTH 9 0
BBX 11 9 0 0
BITMAP
3e20
45c0
8800
8800
0800
1800
1000
1000
2000
ENDCHAR
STARTCHAR ScriptCapU
ENCODING 85
SWIDTH 897 0
DWIDTH 12 0
BBX 11 9 0 0
BITMAP
0e20
3420
c420
8c40
4c40
08c0
19c0
1ac0
0cc0
ENDCHAR
STARTCHAR ScriptCapV
ENCODING 86
SWIDTH 892 0
DWIDTH 12 0
BBX 12 9 0 0
BITMAP
1c70
6430
8420
8440
0480
0500
0600
0600
0400
ENDCHAR
STARTCHAR ScriptCapW
ENCODING 87
SWIDTH 1202 0
DWIDTH 16 0
BBX 16 9 0 0
BITMAP
1843
28c3
c8c2
88c4
4948
0d50
0e60
0c60
0840
ENDCHAR
STARTCHAR ScriptCapX
ENCODING 88
SWIDTH 738 0
DWIDTH 10 0
BBX 10 9 0 0
BITMAP
39c0
1880
0900
0e00
1c00
2400
4600
8200
8300
ENDCHAR
STARTCHAR ScriptCapY
ENCODING 89
SWIDTH 797 0
DWIDTH 10 0
BBX 10 10 0 -1
BITMAP
0040
1880
0980
0980
0b00
0d00
0b00
8200
c400
7800
ENDCHAR
STARTCHAR ScriptCapZ
ENCODING 90
SWIDTH 865 0
DWIDTH 11 0
BBX 10 10 0 -1
BITMAP
3fc0
4100
0200
0200
0400
0800
1000
3000
f040
0f80
ENDCHAR
STARTCHAR RightTriangleLeft
ENCODING 91
SWIDTH 600 0
DWIDTH 8 0
BBX 6 9 2 0
BITMAP
04
08
08
18
28
28
48
48
f8
ENDCHAR
STARTCHAR RightTriangleRight
ENCODING 92
SWIDTH 600 0
DWIDTH 8 0
BBX 6 9 1 0
BITMAP
80
80
c0
c0
a0
90
88
88
fc
ENDCHAR
STARTCHAR DoubleRightTriangle
ENCODING 93
SWIDTH 624 0
DWIDTH 8 0
BBX 7 8 0 0
BITMAP
08
18
18
3c
3c
5a
5a
fe
ENDCHAR
STARTCHAR Female
ENCODING 94
SWIDTH 675 0
DWIDTH 9 0
BBX 5 9 2 0
BITMAP
70
88
88
d8
20
20
70
20
20
ENDCHAR
STARTCHAR Male
ENCODING 95
SWIDTH 810 0
DWIDTH 11 0
BBX 8 9 1 0
BITMAP
03
03
02
34
48
84
84
48
30
ENDCHAR
STARTCHAR NearlyEquals
ENCODING 96
SWIDTH 644 0
DWIDTH 8 0
BBX 6 9 1 -1
BITMAP
40
00
00
fc
00
fc
00
00
08
ENDCHAR
STARTCHAR ScriptA
ENCODING 97
SWIDTH 442 0
DWIDTH 6 0
BBX 6 6 0 0
BITMAP
38
48
88
90
bc
d0
ENDCHAR
STARTCHAR ScriptB
ENCODING 98
SWIDTH 487 0
DWIDTH 6 0
BBX 6 9 0 0
BITMAP
60
20
20
6c
54
64
48
d8
e0
ENDCHAR
STARTCHAR ScriptC
ENCODING 99
SWIDTH 408 0
DWIDTH 5 0
BBX 5 6 0 0
BITMAP
38
48
80
80
98
60
ENDCHAR
STARTCHAR ScriptD
ENCODING 100
SWIDTH 547 0
DWIDTH 7 0
BBX 7 9 0 0
BITMAP
02
02
04
1c
64
44
88
b8
cc
ENDCHAR
STARTCHAR ScriptE
ENCODING 101
SWIDTH 409 0
DWIDTH 5 0
BBX 5 6 0 0
BITMAP
38
48
90
e0
98
60
ENDCHAR
STARTCHAR ScriptF
ENCODING 102
SWIDTH 405 0
DWIDTH 5 0
BBX 7 10 0 -1
BITMAP
0a
10
10
38
20
20
60
40
c0
80
ENDCHAR
STARTCHAR ScriptG
ENCODING 103
SWIDTH 523 0
DWIDTH 7 0
BBX 6 9 0 -3
BITMAP
1c
24
24
48
58
68
08
90
e0
ENDCHAR
STARTCHAR ScriptH
ENCODING 104
SWIDTH 486 0
DWIDTH 6 0
BBX 6 9 0 0
BITMAP
60
20
20
5c
6c
48
58
dc
90
ENDCHAR
STARTCHAR ScriptI
ENCODING 105
SWIDTH 261 0
DWIDTH 3 0
BBX 3 8 0 0
BITMAP
20
20
c0
40
40
80
a0
c0
ENDCHAR
STARTCHAR ScriptJ
ENCODING 106
SWIDTH 290 0
DWIDTH 4 0
BBX 6 11 -2 -3
BITMAP
04
04
18
08
08
08
18
10
10
a0
c0
ENDCHAR
STARTCHAR ScriptK
ENCODING 107
SWIDTH 464 0
DWIDTH 6 0
BBX 7 9 0 0
BITMAP
60
20
20
4e
58
60
70
98
98
ENDCHAR
STARTCHAR ScriptL
ENCODING 108
SWIDTH 273 0
DWIDTH 4 0
BBX 3 9 0 0
BITMAP
20
60
20
40
40
40
80
e0
80
ENDCHAR
STARTCHAR ScriptM
ENCODING 109
SWIDTH 732 0
DWIDTH 10 0
BBX 9 6 0 0
BITMAP
ed80
7e80
4c80
4900
8900
9900
ENDCHAR
STARTCHAR ScriptN
ENCODING 110
SWIDTH 476 0
DWIDTH 6 0
BBX 6 6 0 0
BITMAP
ec
54
68
48
c8
88
ENDCHAR
STARTCHAR ScriptO
ENCODING 111
SWIDTH 438 0
DWIDTH 6 0
BBX 5 6 0 0
BITMAP
30
48
88
88
90
60
ENDCHAR
STARTCHAR ScriptP
ENCODING 112
SWIDTH 483 0
DWIDTH 6 0
BBX 6 9 0 -3
BITMAP
6c
74
64
44
48
f0
80
80
80
ENDCHAR
STARTCHAR ScriptQ
ENCODING 113
SWIDTH 477 0
DWIDTH 6 0
BBX 5 9 0 -3
BITMAP
38
48
48
90
b0
d0
10
10
30
ENDCHAR
STARTCHAR ScriptR
ENCODING 114
SWIDTH 389 0
DWIDTH 5 0
BBX 4 6 0 0
BITMAP
d0
60
40
80
80
80
ENDCHAR
STARTCHAR ScriptS
ENCODING 115
SWIDTH 421 0
DWIDTH 5 0
BBX 6 6 0 0
BITMAP
38
44
60
18
48
f0
ENDCHAR
STARTCHAR ScriptT
ENCODING 116
SWIDTH 316 0
DWIDTH 4 0
BBX 4 8 0 0
BITMAP
20
40
e0
40
40
80
b0
c0
ENDCHAR
STARTCHAR ScriptU
ENCODING 117
SWIDTH 480 0
DWIDTH 6 0
BBX 5 6 0 0
BITMAP
c8
48
48
90
b0
d8
ENDCHAR
STARTCHAR ScriptV
ENCODING 118
SWIDTH 465 0
DWIDTH 6 0
BBX 5 6 0 0
BITMAP
c8
48
48
50
60
40
ENDCHAR
STARTCHAR ScriptW
ENCODING 119
SWIDTH 645 0
DWIDTH 8 0
BBX 8 6 0 0
BITMAP
c9
49
5a
5a
6c
48
ENDCHAR
STARTCHAR ScriptX
ENCODING 120
SWIDTH 549 0
DWIDTH 7 0
BBX 7 6 0 0
BITMAP
26
34
18
30
48
cc
ENDCHAR
STARTCHAR ScriptY
ENCODING 121
SWIDTH 494 0
DWIDTH 6 0
BBX 6 9 0 -3
BITMAP
64
24
4c
4c
58
68
08
90
e0
ENDCHAR
STARTCHAR ScriptZ
ENCODING 122
SWIDTH 500 0
DWIDTH 7 0
BBX 7 6 0 0
BITMAP
7c
48
10
20
c2
3c
ENDCHAR
STARTCHAR ScriptAltL
ENCODING 123
SWIDTH 378 0
DWIDTH 5 0
BBX 5 8 0 0
BITMAP
18
18
28
30
60
c0
40
60
ENDCHAR
STARTCHAR LogicalNand
ENCODING 124
SWIDTH 611 0
DWIDTH 8 0
BBX 7 9 1 0
BITMAP
fc
00
30
48
48
44
84
84
82
ENDCHAR
STARTCHAR Nand2
ENCODING 125
SWIDTH 782 0
DWIDTH 10 0
BBX 8 12 1 -2
BITMAP
ff
00
00
3c
24
24
42
42
42
81
81
81
ENDCHAR
STARTCHAR Nand3
ENCODING 126
SWIDTH 1200 0
DWIDTH 16 0
BBX 14 20 1 -6
BITMAP
7ff8
0000
0000
0000
0780
0840
0840
0840
1020
1020
1020
2010
2010
2010
4018
4008
4008
c00c
8004
8004
ENDCHAR
STARTCHAR DEL
ENCODING 127
SWIDTH 189 0
DWIDTH 2 0
BBX 0 0 0 0
BITMAP
ENDCHAR
STARTCHAR LogicalNor
ENCODING 128
SWIDTH 611 0
DWIDTH 8 0
BBX 7 9 1 0
BITMAP
fc
00
82
84
84
44
48
48
30
ENDCHAR
STARTCHAR Nor2
ENCODING 129
SWIDTH 782 0
DWIDTH 10 0
BBX 8 12 1 -2
BITMAP
ff
00
00
81
81
81
42
42
42
22
24
3c
ENDCHAR
STARTCHAR Nor3
ENCODING 130
SWIDTH 1200 0
DWIDTH 16 0
BBX 14 20 1 -6
BITMAP
7ff8
0000
0000
0000
8004
8004
8004
4008
4008
4008
2010
2010
2010
1020
1020
1020
0840
0840
0840
0780
ENDCHAR
STARTCHAR LogicalXor
ENCODING 131
SWIDTH 611 0
DWIDTH 8 0
BBX 7 9 1 0
BITMAP
82
84
84
44
48
48
30
00
fc
ENDCHAR
STARTCHAR Xor2
ENCODING 132
SWIDTH 782 0
DWIDTH 10 0
BBX 8 12 1 -2
BITMAP
81
81
81
41
42
42
22
24
24
3c
00
ff
ENDCHAR
STARTCHAR Xor3
ENCODING 133
SWIDTH 1200 0
DWIDTH 16 0
BBX 14 20 1 -6
BITMAP
8004
8004
4008
4008
4008
2010
2010
2010
1020
1020
1020
0840
0840
0840
0780
0000
0000
0000
0000
7ff8
ENDCHAR
STARTCHAR ConstantC
ENCODING 134
SWIDTH 520 0
DWIDTH 7 0
BBX 6 6 0 0
BITMAP
38
54
a0
c0
cc
70
ENDCHAR
STARTCHAR LongEqual
ENCODING 135
SWIDTH 784 0
DWIDTH 10 0
BBX 8 3 1 2
BITMAP
ff
00
ff
ENDCHAR
STARTCHAR Diffd2
ENCODING 136
SWIDTH 500 0
DWIDTH 7 0
BBX 7 9 0 0
BITMAP
06
02
02
1c
64
44
88
9a
ec
ENDCHAR
STARTCHAR Expe2
ENCODING 137
SWIDTH 444 0
DWIDTH 6 0
BBX 5 6 0 0
BITMAP
38
48
d0
a0
98
60
ENDCHAR
STARTCHAR Imagi2
ENCODING 138
SWIDTH 278 0
DWIDTH 4 0
BBX 2 9 1 0
BITMAP
40
00
c0
40
40
40
80
c0
80
ENDCHAR
STARTCHAR Imagj2
ENCODING 139
SWIDTH 278 0
DWIDTH 4 0
BBX 5 12 -1 -3
BITMAP
08
00
00
18
10
10
10
10
10
20
20
c0
ENDCHAR
STARTCHAR CapitalCAcute
ENCODING 140
SWIDTH 667 0
DWIDTH 9 0
BBX 9 12 0 0
BITMAP
1200
0c00
0000
1f00
6100
6080
c000
c000
c000
6000
7100
1e00
ENDCHAR
STARTCHAR CapitalCHacek
ENCODING 141
SWIDTH 667 0
DWIDTH 9 0
BBX 9 12 0 0
BITMAP
1200
0c00
0000
1f00
6100
6080
c000
c000
c000
6000
7100
1e00
ENDCHAR
STARTCHAR EBar
ENCODING 142
SWIDTH 444 0
DWIDTH 6 0
BBX 6 8 0 0
BITMAP
78
00
70
f8
80
80
cc
70
ENDCHAR
STARTCHAR ECup
ENCODING 143
SWIDTH 444 0
DWIDTH 6 0
BBX 5 9 0 0
BITMAP
48
48
30
70
f8
80
80
c8
70
ENDCHAR
STARTCHAR CapitalEBar
ENCODING 144
SWIDTH 611 0
DWIDTH 8 0
BBX 8 10 0 0
BITMAP
3c
fe
42
40
44
7c
44
40
43
fe
ENDCHAR
STARTCHAR CapitalECup
ENCODING 145
SWIDTH 611 0
DWIDTH 8 0
BBX 8 11 0 0
BITMAP
24
38
fe
41
40
42
7e
42
40
41
ff
ENDCHAR
STARTCHAR ICup
ENCODING 146
SWIDTH 278 0
DWIDTH 4 0
BBX 4 9 0 0
BITMAP
90
a0
e0
20
40
40
40
40
e0
ENDCHAR
STARTCHAR CapitalICup
ENCODING 147
SWIDTH 333 0
DWIDTH 4 0
BBX 5 11 -1 0
BITMAP
88
70
f8
20
20
20
20
20
20
20
f8
ENDCHAR
STARTCHAR LSlash
ENCODING 148
SWIDTH 278 0
DWIDTH 4 0
BBX 4 9 0 0
BITMAP
c0
40
50
60
c0
40
40
40
e0
ENDCHAR
STARTCHAR CapitalLSlash
ENCODING 149
SWIDTH 611 0
DWIDTH 8 0
BBX 8 9 0 0
BITMAP
70
60
60
78
60
e0
61
62
7e
ENDCHAR
STARTCHAR Mercury
ENCODING 150
SWIDTH 402 0
DWIDTH 5 0
BBX 5 9 1 0
BITMAP
90
90
f0
88
90
f0
20
f0
20
ENDCHAR
STARTCHAR Venus
ENCODING 151
SWIDTH 521 0
DWIDTH 7 0
BBX 6 9 1 0
BITMAP
70
88
84
84
88
50
20
70
20
ENDCHAR
STARTCHAR Earth
ENCODING 152
SWIDTH 535 0
DWIDTH 7 0
BBX 6 9 1 0
BITMAP
20
70
20
50
88
84
84
88
70
ENDCHAR
STARTCHAR Mars
ENCODING 153
SWIDTH 636 0
DWIDTH 8 0
BBX 8 7 1 0
BITMAP
0e
75
89
84
84
84
78
ENDCHAR
STARTCHAR Jupiter
ENCODING 154
SWIDTH 666 0
DWIDTH 9 0
BBX 8 11 1 -2
BITMAP
01
79
85
85
85
05
05
09
71
9f
01
ENDCHAR
STARTCHAR Saturn
ENCODING 155
SWIDTH 572 0
DWIDTH 7 0
BBX 7 9 1 0
BITMAP
80
e0
80
bc
c4
82
84
84
88
ENDCHAR
STARTCHAR Uranus
ENCODING 156
SWIDTH 622 0
DWIDTH 8 0
BBX 7 9 1 0
BITMAP
d2
52
7c
52
52
d2
10
28
38
ENDCHAR
STARTCHAR Neptune
ENCODING 157
SWIDTH 776 0
DWIDTH 10 0
BBX 9 11 1 -2
BITMAP
1800
2c00
cb00
eb80
4900
4a00
6e00
1800
0800
3c00
0800
ENDCHAR
STARTCHAR Pluto
ENCODING 158
SWIDTH 577 0
DWIDTH 8 0
BBX 7 11 1 -2
BITMAP
f8
84
84
82
84
84
f8
80
80
80
fc
ENDCHAR
STARTCHAR udieresis
ENCODING 159
SWIDTH 756 0
DWIDTH 10 0
BBX 9 9 0 0
BITMAP
1e00
6100
4100
8080
8c80
8080
4100
6100
1e00
ENDCHAR
STARTCHAR dagger
ENCODING 160
SWIDTH 380 0
DWIDTH 5 0
BBX 5 6 1 0
BITMAP
88
90
f0
b0
90
88
ENDCHAR
STARTCHAR LastPage
ENCODING 161
SWIDTH 380 0
DWIDTH 5 0
BBX 3 6 1 0
BITMAP
a0
a0
e0
e0
a0
a0
ENDCHAR
STARTCHAR SolidLeftTriangle
ENCODING 162
SWIDTH 634 0
DWIDTH 8 0
BBX 6 7 1 0
BITMAP
04
1c
3c
fc
3c
1c
04
ENDCHAR
STARTCHAR SolidRightTriangle
ENCODING 163
SWIDTH 634 0
DWIDTH 8 0
BBX 6 7 1 0
BITMAP
80
e0
f0
fc
f0
e0
80
ENDCHAR
STARTCHAR QuarterNote
ENCODING 164
SWIDTH 400 0
DWIDTH 5 0
BBX 4 9 1 0
BITMAP
10
10
10
10
10
10
10
f0
e0
ENDCHAR
STARTCHAR EigthNote
ENCODING 165
SWIDTH 619 0
DWIDTH 8 0
BBX 7 9 1 0
BITMAP
10
1c
12
10
10
10
10
f0
e0
ENDCHAR
STARTCHAR BeamedEighthNote
ENCODING 166
SWIDTH 905 0
DWIDTH 12 0
BBX 10 9 1 0
BITMAP
1fc0
1040
1040
1040
1040
1040
1040
f3c0
e380
ENDCHAR
STARTCHAR BeamedSixteenthNote
ENCODING 167
SWIDTH 905 0
DWIDTH 12 0
BBX 10 9 1 0
BITMAP
1fc0
1fc0
1040
1040
1040
1040
1040
f3c0
e380
ENDCHAR
STARTCHAR EntityStart
ENCODING 168
SWIDTH 778 0
DWIDTH 10 0
BBX 8 10 1 -2
BITMAP
ff
82
92
aa
ae
da
ca
fa
82
ff
ENDCHAR
STARTCHAR EntityEnd
ENCODING 169
SWIDTH 778 0
DWIDTH 10 0
BBX 8 10 1 -2
BITMAP
ff
41
41
41
49
41
41
49
49
ff
ENDCHAR
STARTCHAR trademark
ENCODING 170
SWIDTH 674 0
DWIDTH 9 0
BBX 8 8 2 1
BITMAP
01
02
04
08
48
d0
50
20
ENDCHAR
STARTCHAR acute
ENCODING 171
SWIDTH 674 0
DWIDTH 9 0
BBX 8 9 1 0
BITMAP
01
03
fe
86
8a
aa
b2
82
fe
ENDCHAR
STARTCHAR dieresis
ENCODING 172
SWIDTH 364 0
DWIDTH 5 0
BBX 3 4 1 5
BITMAP
e0
40
40
40
ENDCHAR
STARTCHAR notequal
ENCODING 173
SWIDTH 364 0
DWIDTH 5 0
BBX 3 4 1 5
BITMAP
40
e0
e0
40
ENDCHAR
STARTCHAR AE
ENCODING 174
SWIDTH 429 0
DWIDTH 6 0
BBX 4 4 1 5
BITMAP
b0
a0
e0
b0
ENDCHAR
STARTCHAR Oslash
ENCODING 175
SWIDTH 552 0
DWIDTH 7 0
BBX 3 8 3 0
BITMAP
20
40
40
80
80
80
80
80
ENDCHAR
STARTCHAR infinity
ENCODING 176
SWIDTH 552 0
DWIDTH 7 0
BBX 3 9 1 -1
BITMAP
20
20
20
40
80
40
20
20
20
ENDCHAR
STARTCHAR plusminus
ENCODING 177
SWIDTH 552 0
DWIDTH 7 0
BBX 3 9 3 0
BITMAP
80
80
80
80
80
80
40
40
20
ENDCHAR
STARTCHAR lessequal
ENCODING 178
SWIDTH 552 0
DWIDTH 7 0
BBX 1 4 3 0
BITMAP
80
80
80
80
ENDCHAR
STARTCHAR greaterequal
ENCODING 179
SWIDTH 328 0
DWIDTH 4 0
BBX 3 11 1 -2
BITMAP
20
40
40
40
40
80
40
40
40
40
20
ENDCHAR
STARTCHAR yen
ENCODING 180
SWIDTH 344 0
DWIDTH 4 0
BBX 3 17 1 -5
BITMAP
20
40
40
40
40
40
40
40
80
40
40
40
40
40
40
40
20
ENDCHAR
STARTCHAR mu
ENCODING 181
SWIDTH 446 0
DWIDTH 6 0
BBX 4 22 1 -8
BITMAP
10
20
40
40
40
40
40
40
40
40
80
80
40
40
40
40
40
40
40
40
20
10
ENDCHAR
STARTCHAR partialdiff
ENCODING 182
SWIDTH 562 0
DWIDTH 7 0
BBX 5 27 1 -10
BITMAP
08
10
10
20
20
20
20
20
20
20
20
20
40
80
40
20
20
20
20
20
20
20
20
20
10
10
08
ENDCHAR
STARTCHAR summation
ENCODING 183
SWIDTH 822 0
DWIDTH 11 0
BBX 9 6 1 0
BITMAP
2000
4000
f680
8000
4000
2000
ENDCHAR
STARTCHAR product
ENCODING 184
SWIDTH 533 0
DWIDTH 7 0
BBX 5 9 1 0
BITMAP
20
70
a8
20
00
20
20
00
20
ENDCHAR
STARTCHAR pi
ENCODING 185
SWIDTH 822 0
DWIDTH 11 0
BBX 8 6 1 0
BITMAP
02
01
b7
01
02
02
ENDCHAR
STARTCHAR integral
ENCODING 186
SWIDTH 533 0
DWIDTH 7 0
BBX 5 9 1 0
BITMAP
20
00
20
20
00
20
a8
70
20
ENDCHAR
STARTCHAR ordfeminine
ENCODING 187
SWIDTH 900 0
DWIDTH 12 0
BBX 10 5 1 1
BITMAP
ffc0
8040
c940
8040
ffc0
ENDCHAR
STARTCHAR ordmasculine
ENCODING 188
SWIDTH 900 0
DWIDTH 12 0
BBX 4 10 4 -2
BITMAP
f0
b0
90
90
b0
90
90
b0
90
f0
ENDCHAR
STARTCHAR Omega
ENCODING 189
SWIDTH 900 0
DWIDTH 12 0
BBX 10 10 1 -2
BITMAP
e000
9000
f800
6400
3600
1d00
0c80
07c0
0340
01c0
ENDCHAR
STARTCHAR ae
ENCODING 190
SWIDTH 364 0
DWIDTH 5 0
BBX 3 5 1 4
BITMAP
40
e0
40
40
40
ENDCHAR
STARTCHAR oslash
ENCODING 191
SWIDTH 189 0
DWIDTH 2 0
BBX 0 0 0 0
BITMAP
ENDCHAR
STARTCHAR questiondown
ENCODING 192
SWIDTH 189 0
DWIDTH 2 0
BBX 0 0 0 0
BITMAP
ENDCHAR
STARTCHAR exclamdown
ENCODING 193
SWIDTH 189 0
DWIDTH 2 0
BBX 0 0 0 0
BITMAP
ENDCHAR
STARTCHAR logicalnot
ENCODING 194
SWIDTH 189 0
DWIDTH 2 0
BBX 0 0 0 0
BITMAP
ENDCHAR
STARTCHAR radical
ENCODING 195
SWIDTH 189 0
DWIDTH 2 0
BBX 0 0 0 0
BITMAP
ENDCHAR
STARTCHAR florin
ENCODING 196
SWIDTH 189 0
DWIDTH 2 0
BBX 0 0 0 0
BITMAP
ENDCHAR
STARTCHAR approxequal
ENCODING 197
SWIDTH 189 0
DWIDTH 2 0
BBX 0 0 0 0
BITMAP
ENDCHAR
STARTCHAR Delta
ENCODING 198
SWIDTH 189 0
DWIDTH 2 0
BBX 0 0 0 0
BITMAP
ENDCHAR
STARTCHAR guillemotleft
ENCODING 199
SWIDTH 189 0
DWIDTH 2 0
BBX 0 0 0 0
BITMAP
ENDCHAR
STARTCHAR guillemotright
ENCODING 200
SWIDTH 189 0
DWIDTH 2 0
BBX 0 0 0 0
BITMAP
ENDCHAR
STARTCHAR ellipsis
ENCODING 201
SWIDTH 189 0
DWIDTH 2 0
BBX 0 0 0 0
BITMAP
ENDCHAR
STARTCHAR nbspace
ENCODING 202
SWIDTH 189 0
DWIDTH 2 0
BBX 0 0 0 0
BITMAP
ENDCHAR
STARTCHAR Agrave
ENCODING 203
SWIDTH 189 0
DWIDTH 2 0
BBX 0 0 0 0
BITMAP
ENDCHAR
STARTCHAR Atilde
ENCODING 204
SWIDTH 189 0
DWIDTH 2 0
BBX 0 0 0 0
BITMAP
ENDCHAR
STARTCHAR Otilde
ENCODING 205
SWIDTH 189 0
DWIDTH 2 0
BBX 0 0 0 0
BITMAP
ENDCHAR
STARTCHAR parenright
ENCODING 206
SWIDTH 189 0
DWIDTH 2 0
BBX 0 0 0 0
BITMAP
ENDCHAR
STARTCHAR oe
ENCODING 207
SWIDTH 189 0
DWIDTH 2 0
BBX 0 0 0 0
BITMAP
ENDCHAR
STARTCHAR endash
ENCODING 208
SWIDTH 189 0
DWIDTH 2 0
BBX 0 0 0 0
BITMAP
ENDCHAR
STARTCHAR emdash
ENCODING 209
SWIDTH 189 0
DWIDTH 2 0
BBX 0 0 0 0
BITMAP
ENDCHAR
STARTCHAR quotedblleft
ENCODING 210
SWIDTH 189 0
DWIDTH 2 0
BBX 0 0 0 0
BITMAP
ENDCHAR
STARTCHAR quotedblright
ENCODING 211
SWIDTH 189 0
DWIDTH 2 0
BBX 0 0 0 0
BITMAP
ENDCHAR
STARTCHAR quoteleft
ENCODING 212
SWIDTH 189 0
DWIDTH 2 0
BBX 0 0 0 0
BITMAP
ENDCHAR
STARTCHAR quoteright
ENCODING 213
SWIDTH 189 0
DWIDTH 2 0
BBX 0 0 0 0
BITMAP
ENDCHAR
STARTCHAR divide
ENCODING 214
SWIDTH 189 0
DWIDTH 2 0
BBX 0 0 0 0
BITMAP
ENDCHAR
STARTCHAR lozenge
ENCODING 215
SWIDTH 189 0
DWIDTH 2 0
BBX 0 0 0 0
BITMAP
ENDCHAR
STARTCHAR ydieresis
ENCODING 216
SWIDTH 189 0
DWIDTH 2 0
BBX 0 0 0 0
BITMAP
ENDCHAR
STARTCHAR Ydieresis
ENCODING 217
SWIDTH 189 0
DWIDTH 2 0
BBX 0 0 0 0
BITMAP
ENDCHAR
STARTCHAR fraction
ENCODING 218
SWIDTH 189 0
DWIDTH 2 0
BBX 0 0 0 0
BITMAP
ENDCHAR
STARTCHAR currency
ENCODING 219
SWIDTH 189 0
DWIDTH 2 0
BBX 0 0 0 0
BITMAP
ENDCHAR
STARTCHAR guilsinglleft
ENCODING 220
SWIDTH 189 0
DWIDTH 2 0
BBX 0 0 0 0
BITMAP
ENDCHAR
STARTCHAR guilsinglright
ENCODING 221
SWIDTH 189 0
DWIDTH 2 0
BBX 0 0 0 0
BITMAP
ENDCHAR
STARTCHAR fi
ENCODING 222
SWIDTH 189 0
DWIDTH 2 0
BBX 0 0 0 0
BITMAP
ENDCHAR
STARTCHAR fl
ENCODING 223
SWIDTH 189 0
DWIDTH 2 0
BBX 0 0 0 0
BITMAP
ENDCHAR
STARTCHAR daggerdbl
ENCODING 224
SWIDTH 189 0
DWIDTH 2 0
BBX 0 0 0 0
BITMAP
ENDCHAR
STARTCHAR periodcentered
ENCODING 225
SWIDTH 189 0
DWIDTH 2 0
BBX 0 0 0 0
BITMAP
ENDCHAR
STARTCHAR quotesinglbase
ENCODING 226
SWIDTH 189 0
DWIDTH 2 0
BBX 0 0 0 0
BITMAP
ENDCHAR
STARTCHAR quotedblbase
ENCODING 227
SWIDTH 189 0
DWIDTH 2 0
BBX 0 0 0 0
BITMAP
ENDCHAR
STARTCHAR perthousand
ENCODING 228
SWIDTH 189 0
DWIDTH 2 0
BBX 0 0 0 0
BITMAP
ENDCHAR
STARTCHAR Acircumflex
ENCODING 229
SWIDTH 189 0
DWIDTH 2 0
BBX 0 0 0 0
BITMAP
ENDCHAR
STARTCHAR Ecircumflex
ENCODING 230
SWIDTH 189 0
DWIDTH 2 0
BBX 0 0 0 0
BITMAP
ENDCHAR
STARTCHAR Aacute
ENCODING 231
SWIDTH 189 0
DWIDTH 2 0
BBX 0 0 0 0
BITMAP
ENDCHAR
STARTCHAR Edieresis
ENCODING 232
SWIDTH 189 0
DWIDTH 2 0
BBX 0 0 0 0
BITMAP
ENDCHAR
STARTCHAR Egrave
ENCODING 233
SWIDTH 189 0
DWIDTH 2 0
BBX 0 0 0 0
BITMAP
ENDCHAR
STARTCHAR Iacute
ENCODING 234
SWIDTH 189 0
DWIDTH 2 0
BBX 0 0 0 0
BITMAP
ENDCHAR
STARTCHAR Icircumflex
ENCODING 235
SWIDTH 189 0
DWIDTH 2 0
BBX 0 0 0 0
BITMAP
ENDCHAR
STARTCHAR Idieresis
ENCODING 236
SWIDTH 189 0
DWIDTH 2 0
BBX 0 0 0 0
BITMAP
ENDCHAR
STARTCHAR Igrave
ENCODING 237
SWIDTH 189 0
DWIDTH 2 0
BBX 0 0 0 0
BITMAP
ENDCHAR
STARTCHAR Oacute
ENCODING 238
SWIDTH 189 0
DWIDTH 2 0
BBX 0 0 0 0
BITMAP
ENDCHAR
STARTCHAR Ocircumflex
ENCODING 239
SWIDTH 189 0
DWIDTH 2 0
BBX 0 0 0 0
BITMAP
ENDCHAR
STARTCHAR apple
ENCODING 240
SWIDTH 189 0
DWIDTH 2 0
BBX 0 0 0 0
BITMAP
ENDCHAR
STARTCHAR Ograve
ENCODING 241
SWIDTH 189 0
DWIDTH 2 0
BBX 0 0 0 0
BITMAP
ENDCHAR
STARTCHAR Uacute
ENCODING 242
SWIDTH 189 0
DWIDTH 2 0
BBX 0 0 0 0
BITMAP
ENDCHAR
STARTCHAR Ucircumflex
ENCODING 243
SWIDTH 189 0
DWIDTH 2 0
BBX 0 0 0 0
BITMAP
ENDCHAR
STARTCHAR Ugrave
ENCODING 244
SWIDTH 189 0
DWIDTH 2 0
BBX 0 0 0 0
BITMAP
ENDCHAR
STARTCHAR dotlessi
ENCODING 245
SWIDTH 189 0
DWIDTH 2 0
BBX 0 0 0 0
BITMAP
ENDCHAR
STARTCHAR circumflex
ENCODING 246
SWIDTH 189 0
DWIDTH 2 0
BBX 0 0 0 0
BITMAP
ENDCHAR
STARTCHAR CurlyQuote
ENCODING 247
SWIDTH 336 0
DWIDTH 4 0
BBX 3 3 1 6
BITMAP
e0
e0
40
ENDCHAR
STARTCHAR CurlyDblQuote
ENCODING 248
SWIDTH 444 0
DWIDTH 6 0
BBX 5 3 1 6
BITMAP
d8
d8
90
ENDCHAR
STARTCHAR CurlyBackQuote
ENCODING 249
SWIDTH 336 0
DWIDTH 4 0
BBX 2 4 1 6
BITMAP
40
40
c0
c0
ENDCHAR
STARTCHAR CurlyDblBackQuote
ENCODING 250
SWIDTH 444 0
DWIDTH 6 0
BBX 5 4 0 6
BITMAP
48
48
d8
d8
ENDCHAR
STARTCHAR StrikeCircle
ENCODING 251
SWIDTH 600 0
DWIDTH 8 0
BBX 8 7 0 0
BITMAP
3c
42
81
81
81
42
3c
ENDCHAR
STARTCHAR StrikeSquare
ENCODING 252
SWIDTH 600 0
DWIDTH 8 0
BBX 7 7 0 0
BITMAP
fe
82
82
82
82
82
fe
ENDCHAR
STARTCHAR StrikeTriangle
ENCODING 253
SWIDTH 600 0
DWIDTH 8 0
BBX 6 7 1 0
BITMAP
10
30
28
48
44
84
fc
ENDCHAR
STARTCHAR MathLogo1
ENCODING 254
SWIDTH 2776 0
DWIDTH 36 0
BBX 37 9 1 0
BITMAP
30e0000000
10c27dddf0
1146928888
2986108920
2a8a11f1e0
6a8e210920
4c92211100
4891211110
c9f3f3bbe0
ENDCHAR
STARTCHAR MathLogo2
ENCODING 255
SWIDTH 2981 0
DWIDTH 39 0
BBX 39 8 0 0
BITMAP
60c4fddc4a
318912b256
328c10a1ec
331410c0a0
551c2140e0
5524214120
4922216530
cbe6e3bb78
ENDCHAR
ENDFONT
