STARTFONT 2.1
FONT -WRI-Mathematica1Mono-Medium-R-Normal--28-280-75-75-M-170-Adobe-FontSpecific
SIZE 28 75 75
FONTBOUNDINGBOX 36 30 0 -6
STARTPROPERTIES 16
FOUNDRY "WRI"
FAMILY_NAME "Mathematica1Mono"
WEIGHT_NAME "Medium"
SLANT "R"
SETWIDTH_NAME "Normal"
PIXEL_SIZE 28
POINT_SIZE 280
RESOLUTION_X 75
RESOLUTION_Y 75
SPACING "M"
AVERAGE_WIDTH 170
CHARSET_REGISTRY "Adobe"
CHARSET_ENCODING "FontSpecific"
FONT_DESCENT 6
FONT_ASCENT 24
DEFAULT_CHAR 32
ENDPROPERTIES
CHARS 224
STARTCHAR space
ENCODING 32
SWIDTH 263 0
DWIDTH 7 0
BBX 0 0 0 0
BITMAP
ENDCHAR
STARTCHAR Exclamation
ENCODING 33
SWIDTH 600 0
DWIDTH 17 0
BBX 3 16 7 0
BITMAP
40
40
40
40
40
40
40
40
40
40
00
00
00
e0
e0
e0
ENDCHAR
STARTCHAR ForAll
ENCODING 34
SWIDTH 600 0
DWIDTH 17 0
BBX 14 16 2 0
BITMAP
8004
8004
4008
4008
2008
2010
3fe0
1020
1020
0840
0840
0440
0480
0480
0300
0300
ENDCHAR
STARTCHAR NumberSign
ENCODING 35
SWIDTH 600 0
DWIDTH 17 0
BBX 11 19 3 -1
BITMAP
0880
0880
0880
0880
1080
1100
ffe0
1100
1100
1100
1100
ffe0
1100
1100
2200
2200
2200
2200
2200
ENDCHAR
STARTCHAR Exists
ENCODING 36
SWIDTH 600 0
DWIDTH 17 0
BBX 12 16 2 0
BITMAP
fff0
0010
0010
0010
0010
0010
0010
0010
0ff0
0010
0010
0010
0010
0010
0010
fff0
ENDCHAR
STARTCHAR Percent
ENCODING 37
SWIDTH 600 0
DWIDTH 17 0
BBX 13 17 2 0
BITMAP
1c00
2200
4100
4100
4100
2208
1c30
00c0
0700
1800
63c0
8420
0810
0810
0810
0420
03c0
ENDCHAR
STARTCHAR Ampersand
ENCODING 38
SWIDTH 600 0
DWIDTH 17 0
BBX 13 15 2 0
BITMAP
0f00
3080
2000
2000
3000
1000
1800
2c38
4440
8240
8340
8180
8180
43c0
3c78
ENDCHAR
STARTCHAR SmallMember
ENCODING 39
SWIDTH 600 0
DWIDTH 17 0
BBX 12 13 2 0
BITMAP
1f80
e0c0
8020
0030
0010
0010
0010
7ff0
0010
0020
0060
8180
7f00
ENDCHAR
STARTCHAR LParen
ENCODING 40
SWIDTH 600 0
DWIDTH 17 0
BBX 5 22 8 -5
BITMAP
08
10
30
20
60
40
40
c0
80
80
80
80
80
80
c0
40
40
60
20
20
10
08
ENDCHAR
STARTCHAR RParen
ENCODING 41
SWIDTH 600 0
DWIDTH 17 0
BBX 5 22 4 -5
BITMAP
80
40
60
20
30
10
10
18
08
08
08
08
08
08
18
10
10
30
20
20
40
80
ENDCHAR
STARTCHAR Star
ENCODING 42
SWIDTH 600 0
DWIDTH 17 0
BBX 10 10 3 1
BITMAP
0400
0400
0400
c4c0
ffc0
0e00
0a00
1b00
3180
2100
ENDCHAR
STARTCHAR Plus
ENCODING 43
SWIDTH 600 0
DWIDTH 17 0
BBX 11 11 3 1
BITMAP
0400
0400
0400
0400
0400
ffe0
0400
0400
0400
0400
0400
ENDCHAR
STARTCHAR Comma
ENCODING 44
SWIDTH 600 0
DWIDTH 17 0
BBX 4 6 5 -3
BITMAP
30
70
60
60
c0
c0
ENDCHAR
STARTCHAR Minus
ENCODING 45
SWIDTH 600 0
DWIDTH 17 0
BBX 11 1 3 6
BITMAP
ffe0
ENDCHAR
STARTCHAR Period
ENCODING 46
SWIDTH 600 0
DWIDTH 17 0
BBX 4 3 6 0
BITMAP
60
f0
60
ENDCHAR
STARTCHAR Slash
ENCODING 47
SWIDTH 600 0
DWIDTH 17 0
BBX 9 20 4 -2
BITMAP
0080
0080
0100
0100
0200
0200
0200
0400
0400
0800
0800
1000
1000
2000
2000
2000
4000
4000
8000
8000
ENDCHAR
STARTCHAR Zero
ENCODING 48
SWIDTH 600 0
DWIDTH 17 0
BBX 11 17 3 0
BITMAP
1f00
3180
4040
4040
c060
8020
8020
8020
8020
8020
8020
8020
8060
4040
4040
3180
1f00
ENDCHAR
STARTCHAR One
ENCODING 49
SWIDTH 600 0
DWIDTH 17 0
BBX 11 17 3 0
BITMAP
0c00
3400
c400
0400
0400
0400
0400
0400
0400
0400
0400
0400
0400
0400
0400
0400
ffe0
ENDCHAR
STARTCHAR Two
ENCODING 50
SWIDTH 600 0
DWIDTH 17 0
BBX 11 17 2 0
BITMAP
1f00
70c0
4040
4020
0020
0020
0020
0040
00c0
0100
0200
0400
0800
3020
6020
c020
ffe0
ENDCHAR
STARTCHAR Three
ENCODING 51
SWIDTH 600 0
DWIDTH 17 0
BBX 11 17 2 0
BITMAP
1f00
e180
00c0
0040
0040
0040
0080
0f00
0380
0040
0020
0020
0020
0020
0040
c080
3f00
ENDCHAR
STARTCHAR Four
ENCODING 52
SWIDTH 600 0
DWIDTH 17 0
BBX 12 17 2 0
BITMAP
0180
0280
0280
0480
0c80
0880
1080
1080
2080
4080
4080
8080
fff0
0080
0080
0080
0ff0
ENDCHAR
STARTCHAR Five
ENCODING 53
SWIDTH 600 0
DWIDTH 17 0
BBX 11 17 3 0
BITMAP
7fc0
4000
4000
4000
4000
4000
5f00
6080
0040
0020
0020
0020
0020
0020
0040
c080
3f00
ENDCHAR
STARTCHAR Six
ENCODING 54
SWIDTH 600 0
DWIDTH 17 0
BBX 11 17 3 0
BITMAP
03e0
0c00
3000
2000
4000
4000
8000
8f00
b0c0
c040
8020
8020
8020
4020
4040
30c0
0f00
ENDCHAR
STARTCHAR Seven
ENCODING 55
SWIDTH 600 0
DWIDTH 17 0
BBX 11 17 2 0
BITMAP
ffe0
8020
8020
0040
0040
0040
0080
0080
0180
0100
0100
0200
0200
0200
0400
0400
0c00
ENDCHAR
STARTCHAR Eight
ENCODING 56
SWIDTH 600 0
DWIDTH 17 0
BBX 11 17 3 0
BITMAP
1e00
6180
c0c0
8040
8040
8040
4080
6180
1e00
6180
4040
8020
8020
8020
4040
6180
1f00
ENDCHAR
STARTCHAR Nine
ENCODING 57
SWIDTH 600 0
DWIDTH 17 0
BBX 10 17 3 0
BITMAP
3e00
6100
4080
8080
8040
8040
8040
40c0
6140
1e40
0040
0080
0080
0100
0300
0600
f800
ENDCHAR
STARTCHAR Colon
ENCODING 58
SWIDTH 600 0
DWIDTH 17 0
BBX 4 11 6 0
BITMAP
60
f0
60
00
00
00
00
00
60
f0
60
ENDCHAR
STARTCHAR SemiColon
ENCODING 59
SWIDTH 600 0
DWIDTH 17 0
BBX 5 14 5 -3
BITMAP
30
78
30
00
00
00
00
30
70
60
60
c0
c0
80
ENDCHAR
STARTCHAR Less
ENCODING 60
SWIDTH 600 0
DWIDTH 17 0
BBX 12 13 2 0
BITMAP
0010
0070
01c0
0300
0c00
3000
c000
3000
0c00
0300
01c0
0070
0010
ENDCHAR
STARTCHAR Equal
ENCODING 61
SWIDTH 600 0
DWIDTH 17 0
BBX 11 6 3 3
BITMAP
ffe0
0000
0000
0000
0000
ffe0
ENDCHAR
STARTCHAR Greater
ENCODING 62
SWIDTH 600 0
DWIDTH 17 0
BBX 12 13 3 0
BITMAP
8000
e000
3800
0c00
0300
00c0
0030
00c0
0300
0c00
3800
e000
8000
ENDCHAR
STARTCHAR Question
ENCODING 63
SWIDTH 600 0
DWIDTH 17 0
BBX 10 16 4 0
BITMAP
7e00
8180
8080
0040
0040
0040
0080
0300
1c00
1000
1000
0000
0000
3800
3800
3800
ENDCHAR
STARTCHAR TildeFullEqual
ENCODING 64
SWIDTH 600 0
DWIDTH 17 0
BBX 12 9 3 2
BITMAP
7810
ce20
43c0
0000
fff0
0000
0000
0000
fff0
ENDCHAR
STARTCHAR CapAlpha
ENCODING 65
SWIDTH 600 0
DWIDTH 17 0
BBX 17 16 0 0
BITMAP
008000
014000
014000
036000
022000
022000
041000
041000
0c1800
080800
0ffc00
100400
100400
200200
200200
fc1f80
ENDCHAR
STARTCHAR CapBeta
ENCODING 66
SWIDTH 600 0
DWIDTH 17 0
BBX 13 16 2 0
BITMAP
ffc0
2060
2010
2010
2010
2010
2060
3fc0
2030
2010
2008
2008
2008
2018
2030
ffc0
ENDCHAR
STARTCHAR CapChi
ENCODING 67
SWIDTH 600 0
DWIDTH 17 0
BBX 15 16 1 0
BITMAP
f87c
2010
3020
1020
0840
0480
0780
0300
0300
0480
0840
1860
1020
2010
4008
f87e
ENDCHAR
STARTCHAR CapDelta
ENCODING 68
SWIDTH 600 0
DWIDTH 17 0
BBX 15 16 1 0
BITMAP
0100
0280
0280
0440
0440
0860
0820
0820
1010
1010
2008
2008
4004
4004
c006
fffe
ENDCHAR
STARTCHAR CapEpsilon
ENCODING 69
SWIDTH 600 0
DWIDTH 17 0
BBX 14 16 1 0
BITMAP
fffc
1004
1004
1004
1004
1040
1040
1fc0
1040
1040
1000
1004
1004
1004
1004
fffc
ENDCHAR
STARTCHAR CapPhi
ENCODING 70
SWIDTH 600 0
DWIDTH 17 0
BBX 14 16 1 0
BITMAP
3ff8
0100
0100
0fe0
3110
4108
8104
8104
8104
8104
4108
3110
0fe0
0100
0100
3ff8
ENDCHAR
STARTCHAR CapGamma
ENCODING 71
SWIDTH 600 0
DWIDTH 17 0
BBX 14 16 1 0
BITMAP
fffc
0804
0804
0804
0804
0800
0800
0800
0800
0800
0800
0800
0800
0800
0800
ff00
ENDCHAR
STARTCHAR CapEta
ENCODING 72
SWIDTH 600 0
DWIDTH 17 0
BBX 14 16 1 0
BITMAP
f87c
2010
2010
2010
2010
2010
2010
3ff0
2010
2010
2010
2010
2010
2010
2010
f87c
ENDCHAR
STARTCHAR CapIota
ENCODING 73
SWIDTH 600 0
DWIDTH 17 0
BBX 11 16 3 0
BITMAP
ffe0
0400
0400
0400
0400
0400
0400
0400
0400
0400
0400
0400
0400
0400
0400
ffe0
ENDCHAR
STARTCHAR CurlyTheta
ENCODING 74
SWIDTH 600 0
DWIDTH 17 0
BBX 15 17 1 -1
BITMAP
00f0
0118
020c
2204
2204
4204
4104
8084
8064
803c
800e
8008
8010
c030
4020
20c0
1f00
ENDCHAR
STARTCHAR CapKappa
ENCODING 75
SWIDTH 600 0
DWIDTH 17 0
BBX 15 16 1 0
BITMAP
fe7e
1018
1030
1060
10c0
1180
1300
1700
1c80
1840
1060
1020
1030
1010
1018
fe0e
ENDCHAR
STARTCHAR CapLambda
ENCODING 76
SWIDTH 600 0
DWIDTH 17 0
BBX 17 16 0 0
BITMAP
008000
014000
014000
022000
022000
022000
041000
041000
080800
080800
080c00
100400
100400
200200
200200
fc1f80
ENDCHAR
STARTCHAR CapMu
ENCODING 77
SWIDTH 600 0
DWIDTH 17 0
BBX 17 16 0 0
BITMAP
f00f80
380c00
281400
2c1400
241400
242400
222400
222400
214400
214400
20c400
208400
200400
200400
200400
fc1f80
ENDCHAR
STARTCHAR CapNu
ENCODING 78
SWIDTH 600 0
DWIDTH 17 0
BBX 16 16 0 0
BITMAP
f83f
1804
1404
1404
1204
1104
1104
1084
1084
1044
1044
1024
1014
1014
100c
fc0c
ENDCHAR
STARTCHAR CapOmicron
ENCODING 79
SWIDTH 600 0
DWIDTH 17 0
BBX 15 17 1 -1
BITMAP
07c0
1830
2008
400c
4004
8006
8002
8002
8002
8002
8002
8006
4004
400c
2008
1830
07c0
ENDCHAR
STARTCHAR CapPi
ENCODING 80
SWIDTH 600 0
DWIDTH 17 0
BBX 14 16 1 0
BITMAP
fffc
2010
2010
2010
2010
2010
2010
2010
2010
2010
2010
2010
2010
2010
2010
f87c
ENDCHAR
STARTCHAR CapTheta
ENCODING 81
SWIDTH 600 0
DWIDTH 17 0
BBX 15 17 1 -1
BITMAP
07c0
1830
2008
4004
4004
8822
8822
8fe2
8822
8822
8002
4004
4004
6008
3018
1830
07c0
ENDCHAR
STARTCHAR CapRho
ENCODING 82
SWIDTH 600 0
DWIDTH 17 0
BBX 13 16 2 0
BITMAP
ffc0
1030
1010
1008
1008
1008
1008
1010
1030
1fc0
1000
1000
1000
1000
1000
ff00
ENDCHAR
STARTCHAR CapSigma
ENCODING 83
SWIDTH 600 0
DWIDTH 17 0
BBX 13 16 2 0
BITMAP
7ff0
6010
2010
1010
0800
0400
0600
0200
0600
0c00
0800
1008
2008
4008
c008
fff8
ENDCHAR
STARTCHAR CapTau
ENCODING 84
SWIDTH 600 0
DWIDTH 17 0
BBX 15 16 1 0
BITMAP
fffe
c106
8102
8102
0100
0100
0100
0100
0100
0100
0100
0100
0100
0100
0100
0fe0
ENDCHAR
STARTCHAR CapUpsilon
ENCODING 85
SWIDTH 600 0
DWIDTH 17 0
BBX 15 16 1 0
BITMAP
f01e
0820
0440
0240
0280
0280
0180
0100
0100
0100
0100
0100
0100
0100
0100
0fe0
ENDCHAR
STARTCHAR FinalSigma
ENCODING 86
SWIDTH 600 0
DWIDTH 17 0
BBX 11 17 3 -4
BITMAP
0780
1860
2020
4020
4000
8000
8000
8000
8000
8000
4000
3000
1f00
00c0
0040
00c0
0380
ENDCHAR
STARTCHAR CapOmega
ENCODING 87
SWIDTH 600 0
DWIDTH 17 0
BBX 15 16 1 0
BITMAP
0fc0
1830
2008
4004
8002
8002
8002
8002
8002
4004
600c
1830
0440
0440
0440
fc7e
ENDCHAR
STARTCHAR CapXi
ENCODING 88
SWIDTH 600 0
DWIDTH 17 0
BBX 15 16 1 0
BITMAP
fffc
8004
8006
8002
0000
0820
0820
0fe0
0820
0820
0000
0000
8002
8006
8004
fffc
ENDCHAR
STARTCHAR CapPsi
ENCODING 89
SWIDTH 600 0
DWIDTH 17 0
BBX 13 16 2 0
BITMAP
7ff0
0200
0200
8208
8208
8208
8208
8208
8208
4210
6230
1fc0
0200
0200
0200
7ff0
ENDCHAR
STARTCHAR CapZeta
ENCODING 90
SWIDTH 600 0
DWIDTH 17 0
BBX 11 16 3 0
BITMAP
ffc0
8040
8080
8180
8100
0200
0600
0400
0800
1800
1020
2020
6020
4020
8020
ffe0
ENDCHAR
STARTCHAR LBracket
ENCODING 91
SWIDTH 600 0
DWIDTH 17 0
BBX 5 22 8 -5
BITMAP
f8
80
80
80
80
80
80
80
80
80
80
80
80
80
80
80
80
80
80
80
80
f8
ENDCHAR
STARTCHAR Therefore
ENCODING 92
SWIDTH 600 0
DWIDTH 17 0
BBX 15 13 1 0
BITMAP
0300
0780
0300
0000
0000
0000
0000
0000
0000
0000
600c
f01e
600c
ENDCHAR
STARTCHAR RBracket
ENCODING 93
SWIDTH 600 0
DWIDTH 17 0
BBX 5 22 4 -5
BITMAP
f8
08
08
08
08
08
08
08
08
08
08
08
08
08
08
08
08
08
08
08
08
f8
ENDCHAR
STARTCHAR Perpendicular
ENCODING 94
SWIDTH 600 0
DWIDTH 17 0
BBX 14 14 2 0
BITMAP
0200
0200
0200
0200
0200
0200
0200
0200
0200
0200
0200
0200
0200
fffc
ENDCHAR
STARTCHAR Underbar
ENCODING 95
SWIDTH 600 0
DWIDTH 17 0
BBX 14 1 2 -3
BITMAP
fffc
ENDCHAR
STARTCHAR Hat
ENCODING 96
SWIDTH 600 0
DWIDTH 17 0
BBX 9 6 4 0
BITMAP
1c00
1400
3600
6300
c180
8080
ENDCHAR
STARTCHAR Alpha
ENCODING 97
SWIDTH 600 0
DWIDTH 17 0
BBX 14 13 1 0
BITMAP
0f84
1044
2024
4028
4028
8030
8010
8030
8070
8050
8090
4318
3e0c
ENDCHAR
STARTCHAR Beta
ENCODING 98
SWIDTH 600 0
DWIDTH 17 0
BBX 14 22 1 -4
BITMAP
01f0
0208
0404
0c04
0804
0804
1808
1010
11e0
1018
1008
2004
2004
2004
2004
6008
4c18
43e0
4000
c000
8000
8000
ENDCHAR
STARTCHAR Chi
ENCODING 99
SWIDTH 600 0
DWIDTH 17 0
BBX 16 16 0 -4
BITMAP
1c01
3202
0204
0108
0110
0120
00c0
0080
0180
0240
0440
0840
1020
2020
4032
801c
ENDCHAR
STARTCHAR Delta
ENCODING 100
SWIDTH 600 0
DWIDTH 17 0
BBX 13 18 2 0
BITMAP
01f8
0608
0400
0400
0300
01c0
0630
1810
2008
4008
4008
8008
8008
8010
8010
4020
60c0
1f00
ENDCHAR
STARTCHAR Epsilon
ENCODING 101
SWIDTH 600 0
DWIDTH 17 0
BBX 13 13 2 0
BITMAP
07e0
1810
2000
4000
4000
8000
ffe0
8000
8000
8000
4008
3070
1f80
ENDCHAR
STARTCHAR Phi
ENCODING 102
SWIDTH 600 0
DWIDTH 17 0
BBX 13 22 2 -4
BITMAP
0080
0080
0080
0080
0100
07c0
1930
2110
4108
4208
8208
8208
8208
8210
8410
4420
6440
3f80
0400
0800
0800
0800
ENDCHAR
STARTCHAR Gamma
ENCODING 103
SWIDTH 600 0
DWIDTH 17 0
BBX 16 17 1 -4
BITMAP
8003
7006
180c
0410
0220
0240
01c0
0180
0100
0280
0280
0280
0480
0480
0480
0500
0300
ENDCHAR
STARTCHAR Eta
ENCODING 104
SWIDTH 600 0
DWIDTH 17 0
BBX 12 18 2 -5
BITMAP
e1e0
1230
1410
1810
1010
2010
2020
2020
2020
6020
4020
4040
4040
0040
0040
0040
0080
0080
ENDCHAR
STARTCHAR Iota
ENCODING 105
SWIDTH 600 0
DWIDTH 17 0
BBX 9 12 5 0
BITMAP
2000
2000
4000
4000
4000
4000
8000
8000
8000
8000
8380
7c00
ENDCHAR
STARTCHAR CurlyPhi
ENCODING 106
SWIDTH 600 0
DWIDTH 17 0
BBX 13 17 2 -4
BITMAP
1060
2090
4108
4108
c208
8208
8208
8208
8210
8410
4420
6440
3f80
0400
0800
0800
0800
ENDCHAR
STARTCHAR Kappa
ENCODING 107
SWIDTH 600 0
DWIDTH 17 0
BBX 15 12 1 0
BITMAP
380e
0810
0860
0880
0b00
1700
1900
1080
1040
2020
2030
e01c
ENDCHAR
STARTCHAR Lambda
ENCODING 108
SWIDTH 600 0
DWIDTH 17 0
BBX 15 18 1 0
BITMAP
0e00
0180
00c0
0040
0040
0020
0020
0060
00e0
00a0
0120
0120
0220
0610
0c10
0810
1008
e006
ENDCHAR
STARTCHAR Mu
ENCODING 109
SWIDTH 600 0
DWIDTH 17 0
BBX 14 17 1 -5
BITMAP
1008
1008
1008
1018
2010
2010
2010
2020
2020
60e0
6130
5e0c
4000
8000
8000
8000
8000
ENDCHAR
STARTCHAR Nu
ENCODING 110
SWIDTH 600 0
DWIDTH 17 0
BBX 14 13 2 0
BITMAP
8004
6008
3008
1010
0830
0820
0c40
0440
0480
0580
0500
0600
0600
ENDCHAR
STARTCHAR Omicron
ENCODING 111
SWIDTH 600 0
DWIDTH 17 0
BBX 13 13 2 0
BITMAP
07c0
1830
2010
4008
c008
8008
8008
8008
8010
8010
4020
30c0
1f00
ENDCHAR
STARTCHAR Pi
ENCODING 112
SWIDTH 600 0
DWIDTH 17 0
BBX 16 12 1 0
BITMAP
7fff
0410
0410
0420
0c20
0820
0820
1020
1020
2030
4010
8008
ENDCHAR
STARTCHAR Theta
ENCODING 113
SWIDTH 600 0
DWIDTH 17 0
BBX 15 17 1 -1
BITMAP
03f0
0c18
1804
2006
6002
4002
4002
fffe
8002
8004
8004
800c
8008
4010
4030
30c0
1f80
ENDCHAR
STARTCHAR Rho
ENCODING 114
SWIDTH 600 0
DWIDTH 17 0
BBX 14 17 1 -4
BITMAP
03e0
0c18
0808
1004
1004
2004
2004
2004
2008
6008
5010
5820
47c0
4000
8000
8000
8000
ENDCHAR
STARTCHAR Sigma
ENCODING 115
SWIDTH 600 0
DWIDTH 17 0
BBX 15 12 2 0
BITMAP
0ffe
3020
6010
4008
8008
8008
8008
8008
8010
4030
6060
1f80
ENDCHAR
STARTCHAR Tau
ENCODING 116
SWIDTH 600 0
DWIDTH 17 0
BBX 11 12 3 0
BITMAP
ffe0
0400
0800
0800
0800
0800
1000
1000
1000
1000
10e0
0f00
ENDCHAR
STARTCHAR Upsilon
ENCODING 117
SWIDTH 600 0
DWIDTH 17 0
BBX 14 13 2 0
BITMAP
4000
400c
2010
2020
2020
2020
4020
4020
8040
8040
80c0
6180
3e00
ENDCHAR
STARTCHAR CurlyPi
ENCODING 118
SWIDTH 600 0
DWIDTH 17 0
BBX 16 12 1 0
BITMAP
ffff
2004
6004
4104
4104
8104
8204
820c
8208
8608
4710
79e0
ENDCHAR
STARTCHAR Omega
ENCODING 119
SWIDTH 600 0
DWIDTH 17 0
BBX 14 13 1 0
BITMAP
1008
1008
2004
4004
4104
4104
8104
8204
820c
8208
8608
c710
79e0
ENDCHAR
STARTCHAR Xi
ENCODING 120
SWIDTH 600 0
DWIDTH 17 0
BBX 15 22 2 -4
BITMAP
01f8
0606
0400
0800
0800
0800
0400
03e0
0c00
3000
4000
8000
8000
8000
8000
4000
3f00
01c0
0020
0020
1040
1f80
ENDCHAR
STARTCHAR Psi
ENCODING 121
SWIDTH 600 0
DWIDTH 17 0
BBX 14 22 2 -4
BITMAP
0080
0080
0080
0080
0100
4104
6108
2110
2210
2210
6210
4220
8220
8420
8420
c440
6480
1f00
0800
0800
0800
0800
ENDCHAR
STARTCHAR Zeta
ENCODING 122
SWIDTH 600 0
DWIDTH 17 0
BBX 14 22 2 -4
BITMAP
00f8
118c
1204
0c04
0e18
0be0
1000
1000
2000
2000
4000
4000
4000
4000
4000
2000
1f00
00c0
0020
8020
e060
1f80
ENDCHAR
STARTCHAR LBrace
ENCODING 123
SWIDTH 600 0
DWIDTH 17 0
BBX 7 22 5 -5
BITMAP
06
08
10
10
10
10
10
10
10
60
80
60
10
10
10
10
10
10
10
10
08
06
ENDCHAR
STARTCHAR VertBar
ENCODING 124
SWIDTH 600 0
DWIDTH 17 0
BBX 1 22 8 -5
BITMAP
80
80
80
80
80
80
80
80
80
80
80
80
80
80
80
80
80
80
80
80
80
80
ENDCHAR
STARTCHAR RBrace
ENCODING 125
SWIDTH 600 0
DWIDTH 17 0
BBX 7 22 5 -5
BITMAP
c0
20
10
10
10
10
10
10
10
0c
02
0c
10
10
10
10
10
10
10
10
20
c0
ENDCHAR
STARTCHAR Tilde
ENCODING 126
SWIDTH 600 0
DWIDTH 17 0
BBX 12 3 3 5
BITMAP
7810
ce20
43c0
ENDCHAR
STARTCHAR DEL
ENCODING 127
SWIDTH 263 0
DWIDTH 7 0
BBX 0 0 0 0
BITMAP
ENDCHAR
STARTCHAR FractionBarExt
ENCODING 128
SWIDTH 240 0
DWIDTH 7 0
BBX 7 1 0 6
BITMAP
fe
ENDCHAR
STARTCHAR EscapeChar
ENCODING 129
SWIDTH 291 0
DWIDTH 8 0
BBX 5 15 2 -2
BITMAP
f8
f8
00
00
00
00
00
f8
f8
00
00
00
00
f8
f8
ENDCHAR
STARTCHAR SelectPlaceholder
ENCODING 130
SWIDTH 600 0
DWIDTH 17 0
BBX 13 13 2 0
BITMAP
fff8
fff8
fff8
fff8
fff8
fff8
fff8
fff8
fff8
fff8
fff8
fff8
fff8
ENDCHAR
STARTCHAR Placeholder
ENCODING 131
SWIDTH 600 0
DWIDTH 17 0
BBX 13 13 2 0
BITMAP
fff8
8008
8008
8008
8008
8008
8008
8008
8008
8008
8008
8008
fff8
ENDCHAR
STARTCHAR Continuation
ENCODING 132
SWIDTH 600 0
DWIDTH 17 0
BBX 7 12 5 0
BITMAP
c0
40
00
00
00
30
10
00
00
00
06
06
ENDCHAR
STARTCHAR Skeleton
ENCODING 133
SWIDTH 600 0
DWIDTH 17 0
BBX 8 4 4 4
BITMAP
ff
ff
ff
ff
ENDCHAR
STARTCHAR LSkeleton
ENCODING 134
SWIDTH 1200 0
DWIDTH 34 0
BBX 25 12 5 0
BITMAP
00080080
00700300
01c01c00
06007000
18018000
60060000
e00e0000
18018000
06007000
01c01c00
00700300
00080080
ENDCHAR
STARTCHAR RSkeleton
ENCODING 135
SWIDTH 1200 0
DWIDTH 34 0
BBX 25 12 3 0
BITMAP
c00c0000
70078000
1e01e000
07803800
00e00e00
00380380
00380380
00e00e00
07803800
1e01e000
70078000
c00c0000
ENDCHAR
STARTCHAR Spacer
ENCODING 136
SWIDTH 600 0
DWIDTH 17 0
BBX 15 4 1 -4
BITMAP
8002
8002
8002
fffe
ENDCHAR
STARTCHAR Cross
ENCODING 137
SWIDTH 600 0
DWIDTH 17 0
BBX 8 8 4 2
BITMAP
81
42
24
18
18
24
42
81
ENDCHAR
STARTCHAR DblEqual
ENCODING 138
SWIDTH 798 0
DWIDTH 22 0
BBX 17 6 3 3
BITMAP
ff7f80
000000
000000
000000
000000
ff7f80
ENDCHAR
STARTCHAR Grave
ENCODING 139
SWIDTH 600 0
DWIDTH 17 0
BBX 6 5 5 0
BITMAP
e0
70
30
18
04
ENDCHAR
STARTCHAR Acute
ENCODING 140
SWIDTH 600 0
DWIDTH 17 0
BBX 6 5 5 0
BITMAP
1c
38
30
60
80
ENDCHAR
STARTCHAR DoubleAcute
ENCODING 141
SWIDTH 600 0
DWIDTH 17 0
BBX 10 4 3 1
BITMAP
39c0
3180
6200
8400
ENDCHAR
STARTCHAR OverTilde
ENCODING 142
SWIDTH 600 0
DWIDTH 17 0
BBX 10 3 3 2
BITMAP
7040
8c40
8380
ENDCHAR
STARTCHAR OverBar
ENCODING 143
SWIDTH 600 0
DWIDTH 17 0
BBX 9 1 4 2
BITMAP
ff80
ENDCHAR
STARTCHAR DblUpDownArrow
ENCODING 144
SWIDTH 600 0
DWIDTH 17 0
BBX 12 20 3 0
BITMAP
0400
0a00
1100
2080
60c0
a0a0
a090
2080
2080
2080
2080
2080
2080
a090
a0a0
60c0
2080
1100
0a00
0400
ENDCHAR
STARTCHAR DblUpExtens1
ENCODING 145
SWIDTH 600 0
DWIDTH 17 0
BBX 7 6 5 0
BITMAP
82
82
82
82
82
82
ENDCHAR
STARTCHAR DblLongLArrow
ENCODING 146
SWIDTH 1200 0
DWIDTH 34 0
BBX 31 12 1 0
BITMAP
04000000
0c000000
18000000
3ffffffe
60000000
c0000000
c0000000
60000000
3ffffffe
18000000
0c000000
04000000
ENDCHAR
STARTCHAR DblExtens
ENCODING 147
SWIDTH 200 0
DWIDTH 6 0
BBX 6 6 0 3
BITMAP
fc
00
00
00
00
fc
ENDCHAR
STARTCHAR DblLongRArrow
ENCODING 148
SWIDTH 1200 0
DWIDTH 34 0
BBX 31 12 1 0
BITMAP
00000040
00000060
00000030
fffffff8
0000000c
00000006
00000006
0000000c
fffffff8
00000030
00000060
00000040
ENDCHAR
STARTCHAR DblLRArrow2
ENCODING 149
SWIDTH 790 0
DWIDTH 22 0
BBX 19 12 1 0
BITMAP
040400
0c0600
180300
3fff80
6000c0
c00060
c00060
6000c0
3fff80
180300
0c0600
040400
ENDCHAR
STARTCHAR DblLongLRArrow
ENCODING 150
SWIDTH 1200 0
DWIDTH 34 0
BBX 31 12 1 0
BITMAP
04000040
0c000060
18000030
3ffffff8
6000000c
c0000006
c0000006
6000000c
3ffffff8
18000030
0c000060
04000040
ENDCHAR
STARTCHAR UpDownArrow
ENCODING 151
SWIDTH 600 0
DWIDTH 17 0
BBX 11 20 3 0
BITMAP
0400
0e00
1500
3580
64c0
c460
8420
0400
0400
0400
0400
0400
0400
8420
c460
64c0
3580
1500
0e00
0400
ENDCHAR
STARTCHAR LongLArrow
ENCODING 152
SWIDTH 1200 0
DWIDTH 34 0
BBX 31 12 1 0
BITMAP
04000000
0c000000
10000000
20000000
40000000
fffffffe
40000000
20000000
10000000
18000000
0c000000
04000000
ENDCHAR
STARTCHAR LongRArrow
ENCODING 153
SWIDTH 1200 0
DWIDTH 34 0
BBX 31 12 1 0
BITMAP
00000040
00000060
00000010
00000008
00000004
fffffffe
00000004
00000008
00000010
00000030
00000060
00000040
ENDCHAR
STARTCHAR LongLRArrow
ENCODING 154
SWIDTH 1200 0
DWIDTH 34 0
BBX 31 12 1 0
BITMAP
04000040
0c000060
10000010
20000008
40000004
fffffffe
40000004
20000008
10000010
18000030
0c000060
04000040
ENDCHAR
STARTCHAR ColonEqual
ENCODING 155
SWIDTH 696 0
DWIDTH 19 0
BBX 17 11 1 1
BITMAP
400000
e00000
e00000
000000
000000
000000
000000
000000
e3ff80
e00000
e00000
ENDCHAR
STARTCHAR Diamond2
ENCODING 156
SWIDTH 600 0
DWIDTH 17 0
BBX 11 12 3 2
BITMAP
0400
0a00
1b00
3180
60c0
c060
c060
60c0
3180
1b00
0a00
0400
ENDCHAR
STARTCHAR NotSquareSprsetEqual
ENCODING 157
SWIDTH 600 0
DWIDTH 17 0
BBX 12 16 3 -2
BITMAP
ff00
00c0
0020
0020
0010
0010
0010
0010
0020
0020
00c0
ff00
0000
0000
0000
ffe0
ENDCHAR
STARTCHAR AtSign
ENCODING 158
SWIDTH 600 0
DWIDTH 17 0
BBX 15 17 1 -1
BITMAP
07e0
1830
2008
4004
43a2
8c62
8822
9022
9022
9042
9044
99c4
4e38
4000
2000
1808
0ff0
ENDCHAR
STARTCHAR Solidmedsqr
ENCODING 159
SWIDTH 600 0
DWIDTH 17 0
BBX 11 11 3 2
BITMAP
ffe0
ffe0
ffe0
ffe0
ffe0
ffe0
ffe0
ffe0
ffe0
ffe0
ffe0
ENDCHAR
STARTCHAR OverDot
ENCODING 160
SWIDTH 600 0
DWIDTH 17 0
BBX 3 3 7 1
BITMAP
e0
e0
e0
ENDCHAR
STARTCHAR CurlyCapUpsilon
ENCODING 161
SWIDTH 600 0
DWIDTH 17 0
BBX 15 16 1 0
BITMAP
f01c
0866
0442
0482
0280
0280
0180
0100
0100
0100
0100
0100
0100
0100
0100
0fe0
ENDCHAR
STARTCHAR Prime
ENCODING 162
SWIDTH 371 0
DWIDTH 10 0
BBX 7 8 2 2
BITMAP
0e
1c
18
38
30
60
40
c0
ENDCHAR
STARTCHAR LessEqual
ENCODING 163
SWIDTH 600 0
DWIDTH 17 0
BBX 11 13 3 0
BITMAP
0020
00c0
0700
1c00
e000
7000
1c00
0300
00e0
0020
0000
0000
ffe0
ENDCHAR
STARTCHAR Fraction
ENCODING 164
SWIDTH 600 0
DWIDTH 17 0
BBX 14 19 1 0
BITMAP
0004
0008
0010
0010
0020
0040
00c0
0080
0100
0300
0200
0400
0c00
0800
1000
2000
2000
4000
8000
ENDCHAR
STARTCHAR Infinity
ENCODING 165
SWIDTH 695 0
DWIDTH 19 0
BBX 18 10 1 1
BITMAP
1c1e00
632100
414080
808040
808040
808040
808040
414080
632100
1c1e00
ENDCHAR
STARTCHAR RuleDelayed
ENCODING 166
SWIDTH 750 0
DWIDTH 21 0
BBX 19 11 1 1
BITMAP
e00400
e00200
e00100
000080
000040
0fffe0
000040
000080
e00100
e00200
e00400
ENDCHAR
STARTCHAR ClubSuit
ENCODING 167
SWIDTH 600 0
DWIDTH 17 0
BBX 14 16 1 0
BITMAP
0380
07c0
0fe0
0fe0
0fe0
0fe0
07c0
3ff8
7ffc
fffc
fffc
fffc
7d78
3938
0100
0380
ENDCHAR
STARTCHAR DiamondSuit
ENCODING 168
SWIDTH 600 0
DWIDTH 17 0
BBX 13 16 2 0
BITMAP
0200
0200
0500
0880
18c0
3060
6030
c018
c010
6030
3060
18c0
0880
0500
0200
0200
ENDCHAR
STARTCHAR HeartSuit
ENCODING 169
SWIDTH 600 0
DWIDTH 17 0
BBX 15 16 1 0
BITMAP
3838
4444
4284
8102
8002
8002
8002
4004
4004
2008
1010
0820
0440
0280
0100
0100
ENDCHAR
STARTCHAR SpadeSuit
ENCODING 170
SWIDTH 600 0
DWIDTH 17 0
BBX 13 16 2 0
BITMAP
0200
0200
0700
0f80
1fc0
3fe0
3fe0
7ff0
fff8
fff8
fff8
fff8
faf0
7af0
0200
0700
ENDCHAR
STARTCHAR LRArrow
ENCODING 171
SWIDTH 790 0
DWIDTH 22 0
BBX 19 12 1 0
BITMAP
040400
080200
100100
200080
400040
ffffe0
400040
200080
300180
180300
0c0600
040400
ENDCHAR
STARTCHAR LArrow
ENCODING 172
SWIDTH 720 0
DWIDTH 20 0
BBX 18 12 1 0
BITMAP
040000
0c0000
180000
300000
400000
ffffc0
400000
200000
100000
080000
0c0000
060000
ENDCHAR
STARTCHAR UpArrow
ENCODING 173
SWIDTH 600 0
DWIDTH 17 0
BBX 11 18 3 0
BITMAP
0400
0e00
1500
3580
64c0
c460
8420
0400
0400
0400
0400
0400
0400
0400
0400
0400
0400
0400
ENDCHAR
STARTCHAR RArrow
ENCODING 174
SWIDTH 720 0
DWIDTH 20 0
BBX 18 12 1 0
BITMAP
000800
000c00
000600
000300
000080
ffffc0
000080
000100
000200
000400
000c00
001800
ENDCHAR
STARTCHAR DownArrow
ENCODING 175
SWIDTH 600 0
DWIDTH 17 0
BBX 11 18 3 0
BITMAP
0400
0400
0400
0400
0400
0400
0400
0400
0400
0400
0400
8420
c460
64c0
3580
1500
0e00
0400
ENDCHAR
STARTCHAR Degree
ENCODING 176
SWIDTH 600 0
DWIDTH 17 0
BBX 9 8 4 11
BITMAP
3e00
6300
c180
8080
8080
c080
6300
3e00
ENDCHAR
STARTCHAR PlusMinus
ENCODING 177
SWIDTH 600 0
DWIDTH 17 0
BBX 11 14 3 0
BITMAP
0400
0400
0400
0400
0400
ffe0
0400
0400
0400
0400
0400
0000
0000
ffe0
ENDCHAR
STARTCHAR DoublePrime
ENCODING 178
SWIDTH 569 0
DWIDTH 16 0
BBX 12 9 2 2
BITMAP
0e70
1c60
18e0
38c0
3180
6180
6300
c300
8600
ENDCHAR
STARTCHAR GreaterEqual
ENCODING 179
SWIDTH 600 0
DWIDTH 17 0
BBX 12 13 3 0
BITMAP
c000
7000
1e00
0780
00e0
01e0
0780
1c00
f000
c000
0000
0000
fff0
ENDCHAR
STARTCHAR Multiply
ENCODING 180
SWIDTH 600 0
DWIDTH 17 0
BBX 12 12 2 0
BITMAP
8010
4020
2040
1080
0900
0600
0600
0900
1080
2040
4020
8010
ENDCHAR
STARTCHAR Proportional
ENCODING 181
SWIDTH 600 0
DWIDTH 17 0
BBX 14 10 2 1
BITMAP
3c78
66c4
4280
8100
8100
8100
8100
4280
66c4
3c78
ENDCHAR
STARTCHAR PartialDiff
ENCODING 182
SWIDTH 600 0
DWIDTH 17 0
BBX 14 18 2 0
BITMAP
07e0
0c30
0008
0008
0004
07c4
1864
2014
401c
400c
800c
8008
8018
8010
8030
4060
60c0
1f00
ENDCHAR
STARTCHAR Bullet
ENCODING 183
SWIDTH 600 0
DWIDTH 17 0
BBX 7 7 5 5
BITMAP
38
7c
fe
fe
fe
7c
38
ENDCHAR
STARTCHAR Divide
ENCODING 184
SWIDTH 600 0
DWIDTH 17 0
BBX 12 11 2 0
BITMAP
0600
0600
0000
0000
fff0
0000
0000
0000
0000
0600
0600
ENDCHAR
STARTCHAR NotEqual
ENCODING 185
SWIDTH 600 0
DWIDTH 17 0
BBX 11 18 3 -3
BITMAP
0100
0100
0100
0200
0200
0200
ffe0
0400
0400
0400
0400
ffe0
0800
0800
0800
1000
1000
1000
ENDCHAR
STARTCHAR Equivalence
ENCODING 186
SWIDTH 600 0
DWIDTH 17 0
BBX 11 10 3 1
BITMAP
ffe0
0000
0000
0000
ffe0
0000
0000
0000
0000
ffe0
ENDCHAR
STARTCHAR Approxequal
ENCODING 187
SWIDTH 600 0
DWIDTH 17 0
BBX 12 8 3 2
BITMAP
7810
ce20
43c0
0000
0000
7810
ce20
43c0
ENDCHAR
STARTCHAR Ellipsis
ENCODING 188
SWIDTH 988 0
DWIDTH 28 0
BBX 22 3 3 0
BITMAP
e0701c
e0701c
e0701c
ENDCHAR
STARTCHAR ArrowVertEx
ENCODING 189
SWIDTH 600 0
DWIDTH 17 0
BBX 1 6 8 0
BITMAP
80
80
80
80
80
80
ENDCHAR
STARTCHAR ArrowHorizEx
ENCODING 190
SWIDTH 200 0
DWIDTH 6 0
BBX 6 1 0 6
BITMAP
fc
ENDCHAR
STARTCHAR CarriageReturn
ENCODING 191
SWIDTH 628 0
DWIDTH 18 0
BBX 15 18 1 0
BITMAP
0002
0002
0002
0002
0002
0002
0202
0402
1802
3002
6002
fffe
6000
3000
1800
0c00
0600
0200
ENDCHAR
STARTCHAR Aleph
ENCODING 192
SWIDTH 600 0
DWIDTH 17 0
BBX 13 16 2 0
BITMAP
c010
4010
2010
1010
1810
0820
3c60
46c0
4300
4100
4080
40c0
4040
4020
4030
4018
ENDCHAR
STARTCHAR IFraktur
ENCODING 193
SWIDTH 270 0
DWIDTH 8 0
BBX 6 16 1 0
BITMAP
70
8c
18
10
10
10
10
10
10
10
10
10
10
20
38
0c
ENDCHAR
STARTCHAR RFraktur
ENCODING 194
SWIDTH 587 0
DWIDTH 16 0
BBX 15 17 1 0
BITMAP
0fc0
3030
c018
9008
1008
1018
1030
10c0
17e0
1020
1010
1010
1018
1008
2004
3806
0c02
ENDCHAR
STARTCHAR Weierstrass
ENCODING 195
SWIDTH 600 0
DWIDTH 17 0
BBX 13 17 2 -4
BITMAP
03c0
0630
0810
9008
9008
a008
a008
4008
4008
6810
a410
9420
93c0
9000
9000
f000
6000
ENDCHAR
STARTCHAR CircleMultiply
ENCODING 196
SWIDTH 600 0
DWIDTH 17 0
BBX 15 15 1 0
BITMAP
07c0
1830
2008
5014
4824
8442
8282
8102
8282
8442
4824
5014
2008
1830
07c0
ENDCHAR
STARTCHAR CirclePlus
ENCODING 197
SWIDTH 600 0
DWIDTH 17 0
BBX 15 15 1 0
BITMAP
07c0
1930
2108
4104
4104
8102
8102
fffe
8102
8102
4104
4104
2108
1930
07c0
ENDCHAR
STARTCHAR EmptySet
ENCODING 198
SWIDTH 600 0
DWIDTH 17 0
BBX 15 23 1 -4
BITMAP
0018
0010
0010
07e0
1830
2048
4044
4044
8082
8082
8102
8102
8102
8202
8206
4604
440c
2408
1830
0fc0
1800
1000
3000
ENDCHAR
STARTCHAR Union
ENCODING 199
SWIDTH 580 0
DWIDTH 16 0
BBX 14 20 1 0
BITMAP
8004
8004
8004
8004
8004
8004
8004
8004
8004
8004
8004
8004
8004
8004
8004
8004
4008
6018
1030
0fc0
ENDCHAR
STARTCHAR Intersection
ENCODING 200
SWIDTH 580 0
DWIDTH 16 0
BBX 14 20 1 0
BITMAP
0fc0
1020
2018
4008
8004
8004
8004
8004
8004
8004
8004
8004
8004
8004
8004
8004
8004
8004
8004
8004
ENDCHAR
STARTCHAR ProperSuperset
ENCODING 201
SWIDTH 600 0
DWIDTH 17 0
BBX 12 12 3 0
BITMAP
ff00
00c0
0020
0020
0010
0010
0010
0010
0020
0020
00c0
ff00
ENDCHAR
STARTCHAR nbspace
ENCODING 202
SWIDTH 263 0
DWIDTH 7 0
BBX 0 0 0 0
BITMAP
ENDCHAR
STARTCHAR NotSubset
ENCODING 203
SWIDTH 600 0
DWIDTH 17 0
BBX 11 18 2 -3
BITMAP
0080
0100
0100
1fe0
3100
4200
4200
8200
8200
8400
8400
4400
4400
3800
1fe0
0800
0800
1000
ENDCHAR
STARTCHAR ProperSubset
ENCODING 204
SWIDTH 600 0
DWIDTH 17 0
BBX 12 12 2 0
BITMAP
1ff0
3800
6000
6000
c000
c000
c000
c000
e000
6000
3800
1ff0
ENDCHAR
STARTCHAR ReflexSubset
ENCODING 205
SWIDTH 600 0
DWIDTH 17 0
BBX 11 16 2 -2
BITMAP
1fe0
3000
4000
4000
8000
8000
8000
8000
4000
4000
3000
1fe0
0000
0000
0000
7fe0
ENDCHAR
STARTCHAR Element
ENCODING 206
SWIDTH 600 0
DWIDTH 17 0
BBX 11 12 2 0
BITMAP
1fe0
2000
4000
8000
8000
ffe0
8000
8000
4000
4000
3000
1fe0
ENDCHAR
STARTCHAR NotElement
ENCODING 207
SWIDTH 600 0
DWIDTH 17 0
BBX 11 18 2 -3
BITMAP
0080
0100
0100
1fe0
2100
4200
8200
8200
ffe0
8400
8400
4400
4800
3800
1fe0
0800
0800
1000
ENDCHAR
STARTCHAR Angle
ENCODING 208
SWIDTH 600 0
DWIDTH 17 0
BBX 11 13 3 0
BITMAP
0800
0800
1000
1000
1000
2000
2000
2000
4000
4000
4000
8000
ffe0
ENDCHAR
STARTCHAR Gradient
ENCODING 209
SWIDTH 600 0
DWIDTH 17 0
BBX 14 15 1 0
BITMAP
fffc
400c
4008
6018
2010
2010
1020
1020
0840
0840
0480
0480
0300
0300
0100
ENDCHAR
STARTCHAR RegTM
ENCODING 210
SWIDTH 600 0
DWIDTH 17 0
BBX 17 17 0 -1
BITMAP
03f000
0c1c00
300600
27c300
422100
422100
822080
826080
83c080
824080
822080
473900
600100
200200
100400
0c1800
03e000
ENDCHAR
STARTCHAR Copyright
ENCODING 211
SWIDTH 600 0
DWIDTH 17 0
BBX 17 17 0 -1
BITMAP
03e000
0c1800
300400
23c200
463100
441100
881080
880080
880080
880080
8c0080
461100
43e100
200200
100400
0c1800
03e000
ENDCHAR
STARTCHAR TM
ENCODING 212
SWIDTH 600 0
DWIDTH 17 0
BBX 17 9 0 7
BITMAP
fee380
926300
925300
105500
105500
104d00
104900
104100
7ce380
ENDCHAR
STARTCHAR Product
ENCODING 213
SWIDTH 631 0
DWIDTH 18 0
BBX 16 20 1 0
BITMAP
ffff
2004
2004
2004
2004
2004
2004
2004
2004
2004
2004
2004
2004
2004
2004
2004
2004
2004
2004
f81f
ENDCHAR
STARTCHAR Radical
ENCODING 214
SWIDTH 600 0
DWIDTH 17 0
BBX 16 29 1 -6
BITMAP
0001
0001
0001
0002
0002
0002
0002
0004
0004
0004
0004
0808
3008
f808
8808
0810
0410
0410
0410
0210
0220
0320
0120
0120
00c0
00c0
00c0
0040
0040
ENDCHAR
STARTCHAR DotMath
ENCODING 215
SWIDTH 600 0
DWIDTH 17 0
BBX 4 3 6 4
BITMAP
60
f0
60
ENDCHAR
STARTCHAR LogicalNot
ENCODING 216
SWIDTH 600 0
DWIDTH 17 0
BBX 11 6 3 3
BITMAP
ffe0
0020
0020
0020
0020
0020
ENDCHAR
STARTCHAR Wedge
ENCODING 217
SWIDTH 600 0
DWIDTH 17 0
BBX 14 16 1 0
BITMAP
0100
0300
0300
0480
0480
0840
0840
0840
1020
1020
2010
2010
4008
4008
c00c
8004
ENDCHAR
STARTCHAR Vee
ENCODING 218
SWIDTH 600 0
DWIDTH 17 0
BBX 14 16 1 0
BITMAP
8004
c00c
4008
4008
2010
2010
1020
1020
0840
0840
0840
0480
0480
0300
0300
0100
ENDCHAR
STARTCHAR DblLRArrow
ENCODING 219
SWIDTH 790 0
DWIDTH 22 0
BBX 19 12 1 0
BITMAP
040400
0c0600
180300
3fff80
6000c0
c00060
c00060
6000c0
3fff80
180300
0c0600
040400
ENDCHAR
STARTCHAR DblLArrow
ENCODING 220
SWIDTH 720 0
DWIDTH 20 0
BBX 18 12 1 0
BITMAP
060000
0c0000
180000
3fffc0
600000
c00000
c00000
600000
3fffc0
180000
0c0000
060000
ENDCHAR
STARTCHAR DblUpArrow
ENCODING 221
SWIDTH 600 0
DWIDTH 17 0
BBX 12 18 3 0
BITMAP
0400
0a00
1100
2080
60c0
a0a0
a090
2080
2080
2080
2080
2080
2080
2080
2080
2080
2080
2080
ENDCHAR
STARTCHAR DblRArrow
ENCODING 222
SWIDTH 720 0
DWIDTH 20 0
BBX 19 12 1 0
BITMAP
001c00
000e00
000700
ffff80
0001c0
0000e0
0000e0
0001c0
ffff80
000700
000e00
001c00
ENDCHAR
STARTCHAR DblDownArrow
ENCODING 223
SWIDTH 600 0
DWIDTH 17 0
BBX 12 18 3 0
BITMAP
30c0
30c0
30c0
30c0
30c0
30c0
30c0
30c0
30c0
30c0
30c0
b0d0
f0f0
70e0
30c0
1980
0f00
0600
ENDCHAR
STARTCHAR Lozenge
ENCODING 224
SWIDTH 600 0
DWIDTH 17 0
BBX 10 16 3 0
BITMAP
0400
0c00
1e00
1200
2100
6180
4080
8040
8040
4080
6180
2100
1200
1e00
0c00
0400
ENDCHAR
STARTCHAR LAngle
ENCODING 225
SWIDTH 600 0
DWIDTH 17 0
BBX 7 20 5 -3
BITMAP
02
04
04
08
10
10
20
40
40
80
80
40
40
20
10
10
08
04
04
02
ENDCHAR
STARTCHAR Diffd
ENCODING 226
SWIDTH 598 0
DWIDTH 17 0
BBX 15 18 1 0
BITMAP
01fc
0024
0024
0024
0024
0024
1f24
20a4
4064
c064
8024
8024
8024
8024
8064
4064
20a4
1f3e
ENDCHAR
STARTCHAR Expe
ENCODING 227
SWIDTH 600 0
DWIDTH 17 0
BBX 13 12 2 0
BITMAP
0f80
3460
4810
5008
9008
9ff8
9000
9000
5800
6808
3638
0fc0
ENDCHAR
STARTCHAR Imagi
ENCODING 228
SWIDTH 600 0
DWIDTH 17 0
BBX 10 18 3 0
BITMAP
0c00
0c00
0c00
0000
0000
0000
fe00
1200
1200
1200
1200
1200
1200
1200
1200
1200
1200
ffc0
ENDCHAR
STARTCHAR Sum
ENCODING 229
SWIDTH 602 0
DWIDTH 17 0
BBX 15 20 1 0
BITMAP
7ffc
2004
1004
1804
0800
0400
0600
0200
0100
0180
0100
0200
0400
0c00
0800
1002
2002
4002
c002
fffe
ENDCHAR
STARTCHAR LParenTop
ENCODING 230
SWIDTH 600 0
DWIDTH 17 0
BBX 6 23 8 -1
BITMAP
04
08
08
10
10
20
20
20
40
40
40
40
80
80
80
80
80
80
80
80
80
80
80
ENDCHAR
STARTCHAR LParenEx
ENCODING 231
SWIDTH 600 0
DWIDTH 17 0
BBX 1 9 8 0
BITMAP
80
80
80
80
80
80
80
80
80
ENDCHAR
STARTCHAR LParenBot
ENCODING 232
SWIDTH 600 0
DWIDTH 17 0
BBX 6 23 8 0
BITMAP
80
80
80
80
80
80
80
80
80
80
80
40
40
40
40
20
20
20
10
10
08
08
04
ENDCHAR
STARTCHAR LBracketTop
ENCODING 233
SWIDTH 600 0
DWIDTH 17 0
BBX 6 4 8 0
BITMAP
fc
80
80
80
ENDCHAR
STARTCHAR LBracketEx
ENCODING 234
SWIDTH 600 0
DWIDTH 17 0
BBX 1 9 8 0
BITMAP
80
80
80
80
80
80
80
80
80
ENDCHAR
STARTCHAR LBracketBot
ENCODING 235
SWIDTH 600 0
DWIDTH 17 0
BBX 6 4 8 0
BITMAP
80
80
80
fc
ENDCHAR
STARTCHAR LBraceTop
ENCODING 236
SWIDTH 600 0
DWIDTH 17 0
BBX 7 19 8 -1
BITMAP
0e
30
60
40
80
80
80
80
80
80
80
80
80
80
80
80
80
80
80
ENDCHAR
STARTCHAR LBraceMid
ENCODING 237
SWIDTH 600 0
DWIDTH 17 0
BBX 7 20 2 -4
BITMAP
02
02
02
02
02
06
04
08
10
e0
e0
10
08
04
06
02
02
02
02
02
ENDCHAR
STARTCHAR LBraceBot
ENCODING 238
SWIDTH 600 0
DWIDTH 17 0
BBX 7 19 8 0
BITMAP
80
80
80
80
80
80
80
80
80
80
80
80
80
80
80
40
60
30
0e
ENDCHAR
STARTCHAR BraceEx
ENCODING 239
SWIDTH 600 0
DWIDTH 17 0
BBX 1 9 8 0
BITMAP
80
80
80
80
80
80
80
80
80
ENDCHAR
STARTCHAR Slot
ENCODING 240
SWIDTH 600 0
DWIDTH 17 0
BBX 16 16 0 0
BITMAP
1008
1008
1008
ffff
1008
1008
1008
1008
1008
1008
1008
1008
ffff
1008
1008
1008
ENDCHAR
STARTCHAR RAngle
ENCODING 241
SWIDTH 600 0
DWIDTH 17 0
BBX 7 20 5 -3
BITMAP
80
40
40
20
10
10
08
04
04
02
02
04
04
08
10
10
20
40
40
80
ENDCHAR
STARTCHAR Intergral
ENCODING 242
SWIDTH 590 0
DWIDTH 17 0
BBX 14 29 1 -5
BITMAP
0078
00c4
0080
0100
0100
0100
0100
0100
0100
0100
0100
0100
0100
0100
0100
0100
0100
0100
0100
0100
0100
0100
0100
0100
0100
0300
0200
c400
7800
ENDCHAR
STARTCHAR IntegralTop
ENCODING 243
SWIDTH 796 0
DWIDTH 22 0
BBX 18 29 1 -5
BITMAP
000040
000040
000040
000040
000040
000040
000040
000040
000040
000040
000040
000040
000040
000040
000040
000040
000040
000080
000080
000080
000080
000100
000100
000200
000200
800400
400800
303000
0fc000
ENDCHAR
STARTCHAR IntegralEx
ENCODING 244
SWIDTH 796 0
DWIDTH 22 0
BBX 1 21 18 0
BITMAP
80
80
80
80
80
80
80
80
80
80
80
80
80
80
80
80
80
80
80
80
80
ENDCHAR
STARTCHAR IntegralBot
ENCODING 245
SWIDTH 796 0
DWIDTH 22 0
BBX 18 29 18 -5
BITMAP
00fc00
030300
040080
080040
100000
300000
200000
200000
400000
400000
400000
400000
800000
800000
800000
800000
800000
800000
800000
800000
800000
800000
800000
800000
800000
800000
800000
800000
800000
ENDCHAR
STARTCHAR RParenTop
ENCODING 246
SWIDTH 600 0
DWIDTH 17 0
BBX 6 23 3 -1
BITMAP
80
40
40
20
20
10
10
08
08
08
08
08
04
04
04
04
04
04
04
04
04
04
04
ENDCHAR
STARTCHAR RParenEx
ENCODING 247
SWIDTH 600 0
DWIDTH 17 0
BBX 1 9 8 0
BITMAP
80
80
80
80
80
80
80
80
80
ENDCHAR
STARTCHAR RParenBot
ENCODING 248
SWIDTH 600 0
DWIDTH 17 0
BBX 6 23 3 0
BITMAP
04
04
04
04
04
04
04
04
04
04
04
08
08
08
08
08
10
10
20
20
40
40
80
ENDCHAR
STARTCHAR RBracketTop
ENCODING 249
SWIDTH 600 0
DWIDTH 17 0
BBX 6 4 3 0
BITMAP
fc
04
04
04
ENDCHAR
STARTCHAR RBracketEx
ENCODING 250
SWIDTH 600 0
DWIDTH 17 0
BBX 1 9 8 0
BITMAP
80
80
80
80
80
80
80
80
80
ENDCHAR
STARTCHAR RBracketBot
ENCODING 251
SWIDTH 600 0
DWIDTH 17 0
BBX 6 4 3 0
BITMAP
04
04
04
fc
ENDCHAR
STARTCHAR RBraceTop
ENCODING 252
SWIDTH 600 0
DWIDTH 17 0
BBX 7 19 2 -1
BITMAP
e0
18
0c
04
02
02
02
02
02
02
02
02
02
02
02
02
02
02
02
ENDCHAR
STARTCHAR RBraceMid
ENCODING 253
SWIDTH 600 0
DWIDTH 17 0
BBX 7 20 8 -4
BITMAP
80
80
80
80
80
c0
40
20
10
0e
0e
10
20
40
c0
80
80
80
80
80
ENDCHAR
STARTCHAR RBraceBot
ENCODING 254
SWIDTH 600 0
DWIDTH 17 0
BBX 7 19 2 0
BITMAP
02
02
02
02
02
02
02
02
02
02
02
02
02
02
02
04
0c
18
e0
ENDCHAR
STARTCHAR Wolf
ENCODING 255
SWIDTH 835 0
DWIDTH 23 0
BBX 22 22 1 -5
BITMAP
004100
008200
00c600
00ca00
015c00
013400
012400
023400
021400
020c00
040600
042300
083980
0800c0
100060
13fc30
2043f8
204004
408000
408000
808000
808000
ENDCHAR
ENDFONT
