STARTFONT 2.1
FONT -WRI-Mathematica6Mono-Bold-R-Normal--22-220-75-75-M-70-Adobe-FontSpecific
SIZE 22 75 75
FONTBOUNDINGBOX 18 19 -1 -5
STARTPROPERTIES 16
FOUNDRY "WRI"
FAMILY_NAME "Mathematica6Mono"
WEIGHT_NAME "Bold"
SLANT "R"
SETWIDTH_NAME "Normal"
PIXEL_SIZE 22
POINT_SIZE 220
RESOLUTION_X 75
RESOLUTION_Y 75
SPACING "M"
AVERAGE_WIDTH 70
CHARSET_REGISTRY "Adobe"
CHARSET_ENCODING "FontSpecific"
FONT_DESCENT 5
FONT_ASCENT 14
DEFAULT_CHAR 32
ENDPROPERTIES
CHARS 224
STARTCHAR space
ENCODING 32
SWIDTH 263 0
DWIDTH 6 0
BBX 0 0 0 0
BITMAP
ENDCHAR
STARTCHAR exclam
ENCODING 33
SWIDTH 263 0
DWIDTH 6 0
BBX 0 0 0 0
BITMAP
ENDCHAR
STARTCHAR quotedbl
ENCODING 34
SWIDTH 263 0
DWIDTH 6 0
BBX 0 0 0 0
BITMAP
ENDCHAR
STARTCHAR numbersign
ENCODING 35
SWIDTH 263 0
DWIDTH 6 0
BBX 0 0 0 0
BITMAP
ENDCHAR
STARTCHAR dollar
ENCODING 36
SWIDTH 263 0
DWIDTH 6 0
BBX 0 0 0 0
BITMAP
ENDCHAR
STARTCHAR percent
ENCODING 37
SWIDTH 263 0
DWIDTH 6 0
BBX 0 0 0 0
BITMAP
ENDCHAR
STARTCHAR ampersand
ENCODING 38
SWIDTH 263 0
DWIDTH 6 0
BBX 0 0 0 0
BITMAP
ENDCHAR
STARTCHAR quotesingle
ENCODING 39
SWIDTH 263 0
DWIDTH 6 0
BBX 0 0 0 0
BITMAP
ENDCHAR
STARTCHAR parenleft
ENCODING 40
SWIDTH 263 0
DWIDTH 6 0
BBX 0 0 0 0
BITMAP
ENDCHAR
STARTCHAR parenright
ENCODING 41
SWIDTH 263 0
DWIDTH 6 0
BBX 0 0 0 0
BITMAP
ENDCHAR
STARTCHAR asterisk
ENCODING 42
SWIDTH 263 0
DWIDTH 6 0
BBX 0 0 0 0
BITMAP
ENDCHAR
STARTCHAR plus
ENCODING 43
SWIDTH 263 0
DWIDTH 6 0
BBX 0 0 0 0
BITMAP
ENDCHAR
STARTCHAR comma
ENCODING 44
SWIDTH 263 0
DWIDTH 6 0
BBX 0 0 0 0
BITMAP
ENDCHAR
STARTCHAR hyphen
ENCODING 45
SWIDTH 263 0
DWIDTH 6 0
BBX 0 0 0 0
BITMAP
ENDCHAR
STARTCHAR period
ENCODING 46
SWIDTH 263 0
DWIDTH 6 0
BBX 0 0 0 0
BITMAP
ENDCHAR
STARTCHAR slash
ENCODING 47
SWIDTH 263 0
DWIDTH 6 0
BBX 0 0 0 0
BITMAP
ENDCHAR
STARTCHAR GothicZero
ENCODING 48
SWIDTH 564 0
DWIDTH 12 0
BBX 9 13 2 0
BITMAP
1c00
3e00
6300
6300
c180
c180
c180
c180
c180
6300
6300
3e00
1c00
ENDCHAR
STARTCHAR GothicOne
ENCODING 49
SWIDTH 564 0
DWIDTH 12 0
BBX 6 13 4 0
BITMAP
30
f0
70
30
30
30
30
30
30
30
30
fc
fc
ENDCHAR
STARTCHAR GothicTwo
ENCODING 50
SWIDTH 564 0
DWIDTH 12 0
BBX 10 13 1 0
BITMAP
1e00
3f80
61c0
00c0
00c0
01c0
0380
0700
0c00
1800
7000
ffc0
ffc0
ENDCHAR
STARTCHAR GothicThree
ENCODING 51
SWIDTH 564 0
DWIDTH 12 0
BBX 9 13 2 0
BITMAP
3c00
7e00
4700
0300
0300
1e00
1e00
0300
0180
0180
c700
fe00
3c00
ENDCHAR
STARTCHAR GothicFour
ENCODING 52
SWIDTH 564 0
DWIDTH 12 0
BBX 8 13 2 0
BITMAP
0e
0e
1e
36
36
66
66
c6
ff
ff
06
1f
1f
ENDCHAR
STARTCHAR GothicFive
ENCODING 53
SWIDTH 564 0
DWIDTH 12 0
BBX 10 12 1 0
BITMAP
3f80
3f80
3000
7e00
7f80
2180
00c0
00c0
00c0
e180
7f00
3e00
ENDCHAR
STARTCHAR GothicSix
ENCODING 54
SWIDTH 564 0
DWIDTH 12 0
BBX 8 14 3 0
BITMAP
08
0c
18
30
30
60
7c
fe
e7
c3
c3
e2
7e
3c
ENDCHAR
STARTCHAR GothicSeven
ENCODING 55
SWIDTH 564 0
DWIDTH 12 0
BBX 9 13 1 0
BITMAP
ff80
ff80
0180
0100
0300
0300
0600
0600
0400
0c00
0c00
0800
1800
ENDCHAR
STARTCHAR GothicEight
ENCODING 56
SWIDTH 564 0
DWIDTH 12 0
BBX 9 13 2 0
BITMAP
1c00
3f00
7380
6180
7380
3f00
3f00
6380
c180
c180
e380
7f00
1e00
ENDCHAR
STARTCHAR GothicNine
ENCODING 57
SWIDTH 564 0
DWIDTH 12 0
BBX 7 13 3 0
BITMAP
38
7c
c6
c6
c6
ce
7e
3c
0c
18
18
30
30
ENDCHAR
STARTCHAR colon
ENCODING 58
SWIDTH 263 0
DWIDTH 6 0
BBX 0 0 0 0
BITMAP
ENDCHAR
STARTCHAR semicolon
ENCODING 59
SWIDTH 263 0
DWIDTH 6 0
BBX 0 0 0 0
BITMAP
ENDCHAR
STARTCHAR less
ENCODING 60
SWIDTH 263 0
DWIDTH 6 0
BBX 0 0 0 0
BITMAP
ENDCHAR
STARTCHAR equal
ENCODING 61
SWIDTH 263 0
DWIDTH 6 0
BBX 0 0 0 0
BITMAP
ENDCHAR
STARTCHAR greater
ENCODING 62
SWIDTH 263 0
DWIDTH 6 0
BBX 0 0 0 0
BITMAP
ENDCHAR
STARTCHAR question
ENCODING 63
SWIDTH 263 0
DWIDTH 6 0
BBX 0 0 0 0
BITMAP
ENDCHAR
STARTCHAR at
ENCODING 64
SWIDTH 263 0
DWIDTH 6 0
BBX 0 0 0 0
BITMAP
ENDCHAR
STARTCHAR GothicCapA
ENCODING 65
SWIDTH 619 0
DWIDTH 14 0
BBX 13 13 1 0
BITMAP
3f00
ffe0
5860
1860
1860
1860
7f60
1860
1860
1860
3060
1c78
0c10
ENDCHAR
STARTCHAR GothicCapB
ENCODING 66
SWIDTH 586 0
DWIDTH 13 0
BBX 12 13 1 0
BITMAP
7f00
7fc0
10c0
10c0
1fc0
1fe0
1070
1030
1030
5070
f060
3fc0
0780
ENDCHAR
STARTCHAR GothicCapC
ENCODING 67
SWIDTH 558 0
DWIDTH 12 0
BBX 11 12 1 0
BITMAP
0e00
3fe0
60e0
c000
c000
c000
c000
c000
6000
7060
3fc0
0f00
ENDCHAR
STARTCHAR GothicCapD
ENCODING 68
SWIDTH 642 0
DWIDTH 14 0
BBX 13 13 0 0
BITMAP
3f00
ffc0
5870
1830
1818
1818
1818
1818
1818
1870
f0e0
3f80
0700
ENDCHAR
STARTCHAR GothicCapE
ENCODING 69
SWIDTH 541 0
DWIDTH 12 0
BBX 11 12 0 0
BITMAP
0e00
3fe0
60e0
c000
c020
ffe0
f000
e000
6000
7040
3fe0
0f00
ENDCHAR
STARTCHAR GothicCapF
ENCODING 70
SWIDTH 556 0
DWIDTH 12 0
BBX 12 15 0 -2
BITMAP
7c00
fff0
1ff0
1800
1800
1800
3fc0
3f00
1800
1800
1800
1800
1800
1800
1800
ENDCHAR
STARTCHAR GothicCapG
ENCODING 71
SWIDTH 559 0
DWIDTH 12 0
BBX 11 12 1 0
BITMAP
0e00
3fe0
60e0
c000
c000
c000
c7e0
c060
6060
71e0
3f80
0e00
ENDCHAR
STARTCHAR GothicCapH
ENCODING 72
SWIDTH 593 0
DWIDTH 13 0
BBX 13 13 0 0
BITMAP
4080
f0e0
3070
3060
3060
3060
3fe0
3060
3060
3060
7060
3878
0810
ENDCHAR
STARTCHAR GothicCapI
ENCODING 73
SWIDTH 335 0
DWIDTH 7 0
BBX 7 13 0 0
BITMAP
78
fe
18
18
18
18
18
18
18
18
38
1e
04
ENDCHAR
STARTCHAR GothicCapJ
ENCODING 74
SWIDTH 550 0
DWIDTH 12 0
BBX 11 13 0 0
BITMAP
7840
7fe0
01c0
0180
0180
0180
c180
c180
c180
6300
7e00
3800
1000
ENDCHAR
STARTCHAR GothicCapK
ENCODING 75
SWIDTH 628 0
DWIDTH 14 0
BBX 13 13 0 0
BITMAP
7818
fc78
18e0
18c0
1980
1fc0
1fc0
18c0
18c0
1840
3060
1c70
0420
ENDCHAR
STARTCHAR GothicCapL
ENCODING 76
SWIDTH 619 0
DWIDTH 14 0
BBX 13 13 0 0
BITMAP
0180
07c0
0c60
0ce0
0c40
0c00
0c00
0c00
0c00
1c00
7c10
fff8
01e0
ENDCHAR
STARTCHAR GothicCapM
ENCODING 77
SWIDTH 720 0
DWIDTH 16 0
BBX 15 13 1 0
BITMAP
6410
7e78
73cc
6186
6186
6186
6186
6186
6186
6186
e186
7986
1000
ENDCHAR
STARTCHAR GothicCapN
ENCODING 78
SWIDTH 456 0
DWIDTH 10 0
BBX 9 13 1 0
BITMAP
6400
7e00
7300
6180
6180
6180
6180
6180
6180
6180
e180
7980
1000
ENDCHAR
STARTCHAR GothicCapO
ENCODING 79
SWIDTH 614 0
DWIDTH 14 0
BBX 13 13 0 0
BITMAP
1780
33e0
6070
6030
c018
c018
c018
c018
c018
6070
70e0
3f80
0f00
ENDCHAR
STARTCHAR GothicCapP
ENCODING 80
SWIDTH 554 0
DWIDTH 12 0
BBX 11 13 0 0
BITMAP
1f80
7fc0
f860
5860
1860
18e0
1fc0
1f00
1800
1800
3000
1c00
0c00
ENDCHAR
STARTCHAR GothicCapQ
ENCODING 81
SWIDTH 653 0
DWIDTH 14 0
BBX 14 13 0 0
BITMAP
1380
37e0
6070
6030
c018
c018
c018
c018
c718
6fb0
38e0
1ffc
0738
ENDCHAR
STARTCHAR GothicCapR
ENCODING 82
SWIDTH 646 0
DWIDTH 14 0
BBX 13 13 0 0
BITMAP
1f80
7fc0
f060
5060
1060
11c0
1fc0
10c0
1060
1060
3030
1c38
0c08
ENDCHAR
STARTCHAR GothicCapS
ENCODING 83
SWIDTH 562 0
DWIDTH 12 0
BBX 12 13 0 0
BITMAP
0f00
3fc0
30f0
6000
6000
7fe0
3e30
c030
e030
3070
19e0
0f80
0600
ENDCHAR
STARTCHAR GothicCapT
ENCODING 84
SWIDTH 667 0
DWIDTH 15 0
BBX 15 13 0 0
BITMAP
3e04
7ffe
c378
c300
e300
6300
0300
0300
0300
0300
0700
0380
0080
ENDCHAR
STARTCHAR GothicCapU
ENCODING 85
SWIDTH 600 0
DWIDTH 13 0
BBX 13 13 0 0
BITMAP
4040
f0f0
3038
3030
3030
3030
3030
3030
3030
3030
38f0
1fb0
0630
ENDCHAR
STARTCHAR GothicCapV
ENCODING 86
SWIDTH 489 0
DWIDTH 11 0
BBX 11 13 -1 0
BITMAP
4100
f1c0
30e0
30c0
30c0
30c0
30c0
30c0
30c0
31c0
3b80
0e00
0400
ENDCHAR
STARTCHAR GothicCapW
ENCODING 87
SWIDTH 790 0
DWIDTH 17 0
BBX 17 13 0 0
BITMAP
404400
f08f00
308380
308300
308300
308300
308300
308300
308300
318700
3bee00
1e7800
041000
ENDCHAR
STARTCHAR GothicCapX
ENCODING 88
SWIDTH 574 0
DWIDTH 13 0
BBX 12 13 0 0
BITMAP
21c0
71f0
18c0
0d80
0f00
3fe0
ffc0
5f00
3980
70c0
e0e0
3870
1010
ENDCHAR
STARTCHAR GothicCapY
ENCODING 89
SWIDTH 526 0
DWIDTH 12 0
BBX 11 13 0 0
BITMAP
4100
f3c0
30e0
30c0
30c0
30c0
30c0
3bc0
0fc0
02c0
31c0
3f00
0600
ENDCHAR
STARTCHAR GothicCapZ
ENCODING 90
SWIDTH 700 0
DWIDTH 15 0
BBX 15 12 0 0
BITMAP
1f80
1ffc
003e
0070
00e0
0ff8
0b78
0600
0c00
1800
fff8
43fc
ENDCHAR
STARTCHAR bracketleft
ENCODING 91
SWIDTH 263 0
DWIDTH 6 0
BBX 0 0 0 0
BITMAP
ENDCHAR
STARTCHAR backslash
ENCODING 92
SWIDTH 263 0
DWIDTH 6 0
BBX 0 0 0 0
BITMAP
ENDCHAR
STARTCHAR bracketright
ENCODING 93
SWIDTH 263 0
DWIDTH 6 0
BBX 0 0 0 0
BITMAP
ENDCHAR
STARTCHAR asciicircum
ENCODING 94
SWIDTH 263 0
DWIDTH 6 0
BBX 0 0 0 0
BITMAP
ENDCHAR
STARTCHAR underscore
ENCODING 95
SWIDTH 263 0
DWIDTH 6 0
BBX 0 0 0 0
BITMAP
ENDCHAR
STARTCHAR grave
ENCODING 96
SWIDTH 263 0
DWIDTH 6 0
BBX 0 0 0 0
BITMAP
ENDCHAR
STARTCHAR GothicA
ENCODING 97
SWIDTH 408 0
DWIDTH 9 0
BBX 7 10 0 0
BITMAP
30
7c
ce
c6
c6
c6
c6
ce
7e
36
ENDCHAR
STARTCHAR GothicB
ENCODING 98
SWIDTH 462 0
DWIDTH 10 0
BBX 7 14 2 0
BITMAP
c0
c0
c0
c0
d8
fc
c6
c6
c6
c6
c6
ee
bc
90
ENDCHAR
STARTCHAR GothicC
ENCODING 99
SWIDTH 375 0
DWIDTH 8 0
BBX 7 10 0 0
BITMAP
10
7c
ee
c0
c0
c0
c0
ec
7c
18
ENDCHAR
STARTCHAR GothicD
ENCODING 100
SWIDTH 419 0
DWIDTH 9 0
BBX 7 14 0 0
BITMAP
06
06
06
06
16
7e
ce
c6
c6
c6
c6
ee
7a
12
ENDCHAR
STARTCHAR GothicE
ENCODING 101
SWIDTH 379 0
DWIDTH 8 0
BBX 7 10 0 0
BITMAP
10
78
ec
de
f8
e0
c0
c4
fc
10
ENDCHAR
STARTCHAR GothicF
ENCODING 102
SWIDTH 354 0
DWIDTH 8 0
BBX 8 16 0 -2
BITMAP
08
3e
37
20
fe
fe
20
20
20
20
20
20
20
20
20
20
ENDCHAR
STARTCHAR GothicG
ENCODING 103
SWIDTH 438 0
DWIDTH 10 0
BBX 8 15 0 -5
BITMAP
18
3e
77
63
63
63
63
67
7f
3f
0b
c3
6e
3c
18
ENDCHAR
STARTCHAR GothicH
ENCODING 104
SWIDTH 428 0
DWIDTH 9 0
BBX 8 14 0 0
BITMAP
c0
c0
c0
c0
c8
fe
f7
c3
c3
c3
c3
c3
c3
c3
ENDCHAR
STARTCHAR GothicI
ENCODING 105
SWIDTH 211 0
DWIDTH 5 0
BBX 3 13 1 0
BITMAP
c0
c0
00
c0
c0
c0
c0
c0
c0
c0
c0
e0
40
ENDCHAR
STARTCHAR GothicJ
ENCODING 106
SWIDTH 234 0
DWIDTH 5 0
BBX 4 17 0 -4
BITMAP
30
30
00
30
30
30
30
30
30
30
30
30
30
30
60
c0
40
ENDCHAR
STARTCHAR GothicK
ENCODING 107
SWIDTH 414 0
DWIDTH 9 0
BBX 8 14 0 0
BITMAP
c0
c0
c0
c0
c8
fc
e6
cf
fc
fe
e6
c6
c6
c6
ENDCHAR
STARTCHAR GothicL
ENCODING 108
SWIDTH 236 0
DWIDTH 5 0
BBX 4 14 0 0
BITMAP
60
60
60
60
60
60
60
60
60
60
60
e0
70
20
ENDCHAR
STARTCHAR GothicM
ENCODING 109
SWIDTH 636 0
DWIDTH 14 0
BBX 12 10 1 0
BITMAP
d080
fde0
ef70
c630
c630
c630
c630
c630
c630
c630
ENDCHAR
STARTCHAR GothicN
ENCODING 110
SWIDTH 410 0
DWIDTH 9 0
BBX 7 10 1 0
BITMAP
d0
fc
ee
c6
c6
c6
c6
c6
c6
c6
ENDCHAR
STARTCHAR GothicO
ENCODING 111
SWIDTH 406 0
DWIDTH 9 0
BBX 7 10 0 0
BITMAP
10
7c
ee
c6
c6
c6
c6
ee
7c
10
ENDCHAR
STARTCHAR GothicP
ENCODING 112
SWIDTH 427 0
DWIDTH 9 0
BBX 7 14 1 -4
BITMAP
d0
fc
e6
c6
c6
c6
c6
c6
fc
f8
c0
c0
c0
c0
ENDCHAR
STARTCHAR GothicQ
ENCODING 113
SWIDTH 410 0
DWIDTH 9 0
BBX 7 14 0 -4
BITMAP
30
7c
ce
c6
c6
c6
c6
ce
fe
36
06
06
06
06
ENDCHAR
STARTCHAR GothicR
ENCODING 114
SWIDTH 373 0
DWIDTH 8 0
BBX 7 10 1 0
BITMAP
c0
f8
fe
c0
c0
c0
c0
c0
c0
c0
ENDCHAR
STARTCHAR GothicS
ENCODING 115
SWIDTH 507 0
DWIDTH 11 0
BBX 10 10 0 0
BITMAP
1e40
3fc0
7000
7700
3f80
1180
e080
7180
1f00
0c00
ENDCHAR
STARTCHAR GothicT
ENCODING 116
SWIDTH 366 0
DWIDTH 8 0
BBX 7 12 0 0
BITMAP
30
30
fe
fe
30
30
30
30
30
30
1c
08
ENDCHAR
STARTCHAR GothicU
ENCODING 117
SWIDTH 473 0
DWIDTH 10 0
BBX 7 10 2 0
BITMAP
c6
c6
c6
c6
c6
c6
c6
ce
7e
36
ENDCHAR
STARTCHAR GothicV
ENCODING 118
SWIDTH 454 0
DWIDTH 10 0
BBX 7 10 2 0
BITMAP
c6
c6
c6
c6
c6
c6
c6
ee
78
10
ENDCHAR
STARTCHAR GothicW
ENCODING 119
SWIDTH 673 0
DWIDTH 15 0
BBX 12 10 2 0
BITMAP
c630
c630
c630
c630
c630
c630
c630
ef70
7bc0
1080
ENDCHAR
STARTCHAR GothicX
ENCODING 120
SWIDTH 520 0
DWIDTH 11 0
BBX 10 10 0 0
BITMAP
6200
77c0
1b80
1f40
ffc0
5e00
3700
6300
f1c0
2080
ENDCHAR
STARTCHAR GothicY
ENCODING 121
SWIDTH 491 0
DWIDTH 11 0
BBX 8 15 1 -5
BITMAP
63
63
63
63
63
63
63
63
77
1f
03
c3
f7
3c
18
ENDCHAR
STARTCHAR GothicZ
ENCODING 122
SWIDTH 534 0
DWIDTH 12 0
BBX 11 10 0 0
BITMAP
3f40
1fe0
01c0
0180
1fc0
0600
0c00
f800
7fc0
07c0
ENDCHAR
STARTCHAR braceleft
ENCODING 123
SWIDTH 263 0
DWIDTH 6 0
BBX 0 0 0 0
BITMAP
ENDCHAR
STARTCHAR bar
ENCODING 124
SWIDTH 263 0
DWIDTH 6 0
BBX 0 0 0 0
BITMAP
ENDCHAR
STARTCHAR braceright
ENCODING 125
SWIDTH 263 0
DWIDTH 6 0
BBX 0 0 0 0
BITMAP
ENDCHAR
STARTCHAR asciitilde
ENCODING 126
SWIDTH 263 0
DWIDTH 6 0
BBX 0 0 0 0
BITMAP
ENDCHAR
STARTCHAR DEL
ENCODING 127
SWIDTH 263 0
DWIDTH 6 0
BBX 0 0 0 0
BITMAP
ENDCHAR
STARTCHAR Adieresis
ENCODING 128
SWIDTH 263 0
DWIDTH 6 0
BBX 0 0 0 0
BITMAP
ENDCHAR
STARTCHAR Aring
ENCODING 129
SWIDTH 263 0
DWIDTH 6 0
BBX 0 0 0 0
BITMAP
ENDCHAR
STARTCHAR Ccedilla
ENCODING 130
SWIDTH 263 0
DWIDTH 6 0
BBX 0 0 0 0
BITMAP
ENDCHAR
STARTCHAR Eacute
ENCODING 131
SWIDTH 263 0
DWIDTH 6 0
BBX 0 0 0 0
BITMAP
ENDCHAR
STARTCHAR Ntilde
ENCODING 132
SWIDTH 263 0
DWIDTH 6 0
BBX 0 0 0 0
BITMAP
ENDCHAR
STARTCHAR Odieresis
ENCODING 133
SWIDTH 263 0
DWIDTH 6 0
BBX 0 0 0 0
BITMAP
ENDCHAR
STARTCHAR Udieresis
ENCODING 134
SWIDTH 263 0
DWIDTH 6 0
BBX 0 0 0 0
BITMAP
ENDCHAR
STARTCHAR aacute
ENCODING 135
SWIDTH 263 0
DWIDTH 6 0
BBX 0 0 0 0
BITMAP
ENDCHAR
STARTCHAR agrave
ENCODING 136
SWIDTH 263 0
DWIDTH 6 0
BBX 0 0 0 0
BITMAP
ENDCHAR
STARTCHAR acircumflex
ENCODING 137
SWIDTH 263 0
DWIDTH 6 0
BBX 0 0 0 0
BITMAP
ENDCHAR
STARTCHAR adieresis
ENCODING 138
SWIDTH 263 0
DWIDTH 6 0
BBX 0 0 0 0
BITMAP
ENDCHAR
STARTCHAR atilde
ENCODING 139
SWIDTH 263 0
DWIDTH 6 0
BBX 0 0 0 0
BITMAP
ENDCHAR
STARTCHAR aring
ENCODING 140
SWIDTH 263 0
DWIDTH 6 0
BBX 0 0 0 0
BITMAP
ENDCHAR
STARTCHAR ccedilla
ENCODING 141
SWIDTH 263 0
DWIDTH 6 0
BBX 0 0 0 0
BITMAP
ENDCHAR
STARTCHAR eacute
ENCODING 142
SWIDTH 263 0
DWIDTH 6 0
BBX 0 0 0 0
BITMAP
ENDCHAR
STARTCHAR egrave
ENCODING 143
SWIDTH 263 0
DWIDTH 6 0
BBX 0 0 0 0
BITMAP
ENDCHAR
STARTCHAR ecircumflex
ENCODING 144
SWIDTH 263 0
DWIDTH 6 0
BBX 0 0 0 0
BITMAP
ENDCHAR
STARTCHAR edieresis
ENCODING 145
SWIDTH 263 0
DWIDTH 6 0
BBX 0 0 0 0
BITMAP
ENDCHAR
STARTCHAR iacute
ENCODING 146
SWIDTH 263 0
DWIDTH 6 0
BBX 0 0 0 0
BITMAP
ENDCHAR
STARTCHAR igrave
ENCODING 147
SWIDTH 263 0
DWIDTH 6 0
BBX 0 0 0 0
BITMAP
ENDCHAR
STARTCHAR icircumflex
ENCODING 148
SWIDTH 263 0
DWIDTH 6 0
BBX 0 0 0 0
BITMAP
ENDCHAR
STARTCHAR idieresis
ENCODING 149
SWIDTH 263 0
DWIDTH 6 0
BBX 0 0 0 0
BITMAP
ENDCHAR
STARTCHAR ntilde
ENCODING 150
SWIDTH 263 0
DWIDTH 6 0
BBX 0 0 0 0
BITMAP
ENDCHAR
STARTCHAR oacute
ENCODING 151
SWIDTH 263 0
DWIDTH 6 0
BBX 0 0 0 0
BITMAP
ENDCHAR
STARTCHAR ograve
ENCODING 152
SWIDTH 263 0
DWIDTH 6 0
BBX 0 0 0 0
BITMAP
ENDCHAR
STARTCHAR ocircumflex
ENCODING 153
SWIDTH 263 0
DWIDTH 6 0
BBX 0 0 0 0
BITMAP
ENDCHAR
STARTCHAR odieresis
ENCODING 154
SWIDTH 263 0
DWIDTH 6 0
BBX 0 0 0 0
BITMAP
ENDCHAR
STARTCHAR otilde
ENCODING 155
SWIDTH 263 0
DWIDTH 6 0
BBX 0 0 0 0
BITMAP
ENDCHAR
STARTCHAR uacute
ENCODING 156
SWIDTH 263 0
DWIDTH 6 0
BBX 0 0 0 0
BITMAP
ENDCHAR
STARTCHAR ugrave
ENCODING 157
SWIDTH 263 0
DWIDTH 6 0
BBX 0 0 0 0
BITMAP
ENDCHAR
STARTCHAR ucircumflex
ENCODING 158
SWIDTH 263 0
DWIDTH 6 0
BBX 0 0 0 0
BITMAP
ENDCHAR
STARTCHAR udieresis
ENCODING 159
SWIDTH 263 0
DWIDTH 6 0
BBX 0 0 0 0
BITMAP
ENDCHAR
STARTCHAR dagger
ENCODING 160
SWIDTH 263 0
DWIDTH 6 0
BBX 0 0 0 0
BITMAP
ENDCHAR
STARTCHAR degree
ENCODING 161
SWIDTH 263 0
DWIDTH 6 0
BBX 0 0 0 0
BITMAP
ENDCHAR
STARTCHAR cent
ENCODING 162
SWIDTH 263 0
DWIDTH 6 0
BBX 0 0 0 0
BITMAP
ENDCHAR
STARTCHAR sterling
ENCODING 163
SWIDTH 263 0
DWIDTH 6 0
BBX 0 0 0 0
BITMAP
ENDCHAR
STARTCHAR section
ENCODING 164
SWIDTH 263 0
DWIDTH 6 0
BBX 0 0 0 0
BITMAP
ENDCHAR
STARTCHAR bullet
ENCODING 165
SWIDTH 263 0
DWIDTH 6 0
BBX 0 0 0 0
BITMAP
ENDCHAR
STARTCHAR paragraph
ENCODING 166
SWIDTH 263 0
DWIDTH 6 0
BBX 0 0 0 0
BITMAP
ENDCHAR
STARTCHAR germandbls
ENCODING 167
SWIDTH 263 0
DWIDTH 6 0
BBX 0 0 0 0
BITMAP
ENDCHAR
STARTCHAR registered
ENCODING 168
SWIDTH 263 0
DWIDTH 6 0
BBX 0 0 0 0
BITMAP
ENDCHAR
STARTCHAR copyright
ENCODING 169
SWIDTH 263 0
DWIDTH 6 0
BBX 0 0 0 0
BITMAP
ENDCHAR
STARTCHAR trademark
ENCODING 170
SWIDTH 263 0
DWIDTH 6 0
BBX 0 0 0 0
BITMAP
ENDCHAR
STARTCHAR acute
ENCODING 171
SWIDTH 263 0
DWIDTH 6 0
BBX 0 0 0 0
BITMAP
ENDCHAR
STARTCHAR dieresis
ENCODING 172
SWIDTH 263 0
DWIDTH 6 0
BBX 0 0 0 0
BITMAP
ENDCHAR
STARTCHAR notequal
ENCODING 173
SWIDTH 263 0
DWIDTH 6 0
BBX 0 0 0 0
BITMAP
ENDCHAR
STARTCHAR AE
ENCODING 174
SWIDTH 263 0
DWIDTH 6 0
BBX 0 0 0 0
BITMAP
ENDCHAR
STARTCHAR Oslash
ENCODING 175
SWIDTH 263 0
DWIDTH 6 0
BBX 0 0 0 0
BITMAP
ENDCHAR
STARTCHAR infinity
ENCODING 176
SWIDTH 263 0
DWIDTH 6 0
BBX 0 0 0 0
BITMAP
ENDCHAR
STARTCHAR plusminus
ENCODING 177
SWIDTH 263 0
DWIDTH 6 0
BBX 0 0 0 0
BITMAP
ENDCHAR
STARTCHAR lessequal
ENCODING 178
SWIDTH 263 0
DWIDTH 6 0
BBX 0 0 0 0
BITMAP
ENDCHAR
STARTCHAR greaterequal
ENCODING 179
SWIDTH 263 0
DWIDTH 6 0
BBX 0 0 0 0
BITMAP
ENDCHAR
STARTCHAR yen
ENCODING 180
SWIDTH 263 0
DWIDTH 6 0
BBX 0 0 0 0
BITMAP
ENDCHAR
STARTCHAR mu
ENCODING 181
SWIDTH 263 0
DWIDTH 6 0
BBX 0 0 0 0
BITMAP
ENDCHAR
STARTCHAR partialdiff
ENCODING 182
SWIDTH 263 0
DWIDTH 6 0
BBX 0 0 0 0
BITMAP
ENDCHAR
STARTCHAR summation
ENCODING 183
SWIDTH 263 0
DWIDTH 6 0
BBX 0 0 0 0
BITMAP
ENDCHAR
STARTCHAR product
ENCODING 184
SWIDTH 263 0
DWIDTH 6 0
BBX 0 0 0 0
BITMAP
ENDCHAR
STARTCHAR pi
ENCODING 185
SWIDTH 263 0
DWIDTH 6 0
BBX 0 0 0 0
BITMAP
ENDCHAR
STARTCHAR integral
ENCODING 186
SWIDTH 263 0
DWIDTH 6 0
BBX 0 0 0 0
BITMAP
ENDCHAR
STARTCHAR ordfeminine
ENCODING 187
SWIDTH 263 0
DWIDTH 6 0
BBX 0 0 0 0
BITMAP
ENDCHAR
STARTCHAR ordmasculine
ENCODING 188
SWIDTH 263 0
DWIDTH 6 0
BBX 0 0 0 0
BITMAP
ENDCHAR
STARTCHAR Omega
ENCODING 189
SWIDTH 263 0
DWIDTH 6 0
BBX 0 0 0 0
BITMAP
ENDCHAR
STARTCHAR ae
ENCODING 190
SWIDTH 263 0
DWIDTH 6 0
BBX 0 0 0 0
BITMAP
ENDCHAR
STARTCHAR oslash
ENCODING 191
SWIDTH 263 0
DWIDTH 6 0
BBX 0 0 0 0
BITMAP
ENDCHAR
STARTCHAR questiondown
ENCODING 192
SWIDTH 263 0
DWIDTH 6 0
BBX 0 0 0 0
BITMAP
ENDCHAR
STARTCHAR exclamdown
ENCODING 193
SWIDTH 263 0
DWIDTH 6 0
BBX 0 0 0 0
BITMAP
ENDCHAR
STARTCHAR logicalnot
ENCODING 194
SWIDTH 263 0
DWIDTH 6 0
BBX 0 0 0 0
BITMAP
ENDCHAR
STARTCHAR radical
ENCODING 195
SWIDTH 263 0
DWIDTH 6 0
BBX 0 0 0 0
BITMAP
ENDCHAR
STARTCHAR florin
ENCODING 196
SWIDTH 263 0
DWIDTH 6 0
BBX 0 0 0 0
BITMAP
ENDCHAR
STARTCHAR approxequal
ENCODING 197
SWIDTH 263 0
DWIDTH 6 0
BBX 0 0 0 0
BITMAP
ENDCHAR
STARTCHAR Delta
ENCODING 198
SWIDTH 263 0
DWIDTH 6 0
BBX 0 0 0 0
BITMAP
ENDCHAR
STARTCHAR guillemotleft
ENCODING 199
SWIDTH 263 0
DWIDTH 6 0
BBX 0 0 0 0
BITMAP
ENDCHAR
STARTCHAR guillemotright
ENCODING 200
SWIDTH 263 0
DWIDTH 6 0
BBX 0 0 0 0
BITMAP
ENDCHAR
STARTCHAR ellipsis
ENCODING 201
SWIDTH 263 0
DWIDTH 6 0
BBX 0 0 0 0
BITMAP
ENDCHAR
STARTCHAR nbspace
ENCODING 202
SWIDTH 263 0
DWIDTH 6 0
BBX 0 0 0 0
BITMAP
ENDCHAR
STARTCHAR Agrave
ENCODING 203
SWIDTH 263 0
DWIDTH 6 0
BBX 0 0 0 0
BITMAP
ENDCHAR
STARTCHAR Atilde
ENCODING 204
SWIDTH 263 0
DWIDTH 6 0
BBX 0 0 0 0
BITMAP
ENDCHAR
STARTCHAR Otilde
ENCODING 205
SWIDTH 263 0
DWIDTH 6 0
BBX 0 0 0 0
BITMAP
ENDCHAR
STARTCHAR OE
ENCODING 206
SWIDTH 263 0
DWIDTH 6 0
BBX 0 0 0 0
BITMAP
ENDCHAR
STARTCHAR oe
ENCODING 207
SWIDTH 263 0
DWIDTH 6 0
BBX 0 0 0 0
BITMAP
ENDCHAR
STARTCHAR endash
ENCODING 208
SWIDTH 263 0
DWIDTH 6 0
BBX 0 0 0 0
BITMAP
ENDCHAR
STARTCHAR emdash
ENCODING 209
SWIDTH 263 0
DWIDTH 6 0
BBX 0 0 0 0
BITMAP
ENDCHAR
STARTCHAR quotedblleft
ENCODING 210
SWIDTH 263 0
DWIDTH 6 0
BBX 0 0 0 0
BITMAP
ENDCHAR
STARTCHAR quotedblright
ENCODING 211
SWIDTH 263 0
DWIDTH 6 0
BBX 0 0 0 0
BITMAP
ENDCHAR
STARTCHAR quoteleft
ENCODING 212
SWIDTH 263 0
DWIDTH 6 0
BBX 0 0 0 0
BITMAP
ENDCHAR
STARTCHAR quoteright
ENCODING 213
SWIDTH 263 0
DWIDTH 6 0
BBX 0 0 0 0
BITMAP
ENDCHAR
STARTCHAR divide
ENCODING 214
SWIDTH 263 0
DWIDTH 6 0
BBX 0 0 0 0
BITMAP
ENDCHAR
STARTCHAR lozenge
ENCODING 215
SWIDTH 263 0
DWIDTH 6 0
BBX 0 0 0 0
BITMAP
ENDCHAR
STARTCHAR ydieresis
ENCODING 216
SWIDTH 263 0
DWIDTH 6 0
BBX 0 0 0 0
BITMAP
ENDCHAR
STARTCHAR Ydieresis
ENCODING 217
SWIDTH 263 0
DWIDTH 6 0
BBX 0 0 0 0
BITMAP
ENDCHAR
STARTCHAR fraction
ENCODING 218
SWIDTH 263 0
DWIDTH 6 0
BBX 0 0 0 0
BITMAP
ENDCHAR
STARTCHAR currency
ENCODING 219
SWIDTH 263 0
DWIDTH 6 0
BBX 0 0 0 0
BITMAP
ENDCHAR
STARTCHAR guilsinglleft
ENCODING 220
SWIDTH 263 0
DWIDTH 6 0
BBX 0 0 0 0
BITMAP
ENDCHAR
STARTCHAR guilsinglright
ENCODING 221
SWIDTH 263 0
DWIDTH 6 0
BBX 0 0 0 0
BITMAP
ENDCHAR
STARTCHAR fi
ENCODING 222
SWIDTH 263 0
DWIDTH 6 0
BBX 0 0 0 0
BITMAP
ENDCHAR
STARTCHAR fl
ENCODING 223
SWIDTH 263 0
DWIDTH 6 0
BBX 0 0 0 0
BITMAP
ENDCHAR
STARTCHAR daggerdbl
ENCODING 224
SWIDTH 263 0
DWIDTH 6 0
BBX 0 0 0 0
BITMAP
ENDCHAR
STARTCHAR periodcentered
ENCODING 225
SWIDTH 263 0
DWIDTH 6 0
BBX 0 0 0 0
BITMAP
ENDCHAR
STARTCHAR quotesinglbase
ENCODING 226
SWIDTH 263 0
DWIDTH 6 0
BBX 0 0 0 0
BITMAP
ENDCHAR
STARTCHAR quotedblbase
ENCODING 227
SWIDTH 263 0
DWIDTH 6 0
BBX 0 0 0 0
BITMAP
ENDCHAR
STARTCHAR perthousand
ENCODING 228
SWIDTH 263 0
DWIDTH 6 0
BBX 0 0 0 0
BITMAP
ENDCHAR
STARTCHAR Acircumflex
ENCODING 229
SWIDTH 263 0
DWIDTH 6 0
BBX 0 0 0 0
BITMAP
ENDCHAR
STARTCHAR Ecircumflex
ENCODING 230
SWIDTH 263 0
DWIDTH 6 0
BBX 0 0 0 0
BITMAP
ENDCHAR
STARTCHAR Aacute
ENCODING 231
SWIDTH 263 0
DWIDTH 6 0
BBX 0 0 0 0
BITMAP
ENDCHAR
STARTCHAR Edieresis
ENCODING 232
SWIDTH 263 0
DWIDTH 6 0
BBX 0 0 0 0
BITMAP
ENDCHAR
STARTCHAR Egrave
ENCODING 233
SWIDTH 263 0
DWIDTH 6 0
BBX 0 0 0 0
BITMAP
ENDCHAR
STARTCHAR Iacute
ENCODING 234
SWIDTH 263 0
DWIDTH 6 0
BBX 0 0 0 0
BITMAP
ENDCHAR
STARTCHAR Icircumflex
ENCODING 235
SWIDTH 263 0
DWIDTH 6 0
BBX 0 0 0 0
BITMAP
ENDCHAR
STARTCHAR Idieresis
ENCODING 236
SWIDTH 263 0
DWIDTH 6 0
BBX 0 0 0 0
BITMAP
ENDCHAR
STARTCHAR Igrave
ENCODING 237
SWIDTH 263 0
DWIDTH 6 0
BBX 0 0 0 0
BITMAP
ENDCHAR
STARTCHAR Oacute
ENCODING 238
SWIDTH 263 0
DWIDTH 6 0
BBX 0 0 0 0
BITMAP
ENDCHAR
STARTCHAR Ocircumflex
ENCODING 239
SWIDTH 263 0
DWIDTH 6 0
BBX 0 0 0 0
BITMAP
ENDCHAR
STARTCHAR apple
ENCODING 240
SWIDTH 263 0
DWIDTH 6 0
BBX 0 0 0 0
BITMAP
ENDCHAR
STARTCHAR Ograve
ENCODING 241
SWIDTH 263 0
DWIDTH 6 0
BBX 0 0 0 0
BITMAP
ENDCHAR
STARTCHAR Uacute
ENCODING 242
SWIDTH 263 0
DWIDTH 6 0
BBX 0 0 0 0
BITMAP
ENDCHAR
STARTCHAR Ucircumflex
ENCODING 243
SWIDTH 263 0
DWIDTH 6 0
BBX 0 0 0 0
BITMAP
ENDCHAR
STARTCHAR Ugrave
ENCODING 244
SWIDTH 263 0
DWIDTH 6 0
BBX 0 0 0 0
BITMAP
ENDCHAR
STARTCHAR dotlessi
ENCODING 245
SWIDTH 263 0
DWIDTH 6 0
BBX 0 0 0 0
BITMAP
ENDCHAR
STARTCHAR circumflex
ENCODING 246
SWIDTH 263 0
DWIDTH 6 0
BBX 0 0 0 0
BITMAP
ENDCHAR
STARTCHAR tilde
ENCODING 247
SWIDTH 263 0
DWIDTH 6 0
BBX 0 0 0 0
BITMAP
ENDCHAR
STARTCHAR macron
ENCODING 248
SWIDTH 263 0
DWIDTH 6 0
BBX 0 0 0 0
BITMAP
ENDCHAR
STARTCHAR breve
ENCODING 249
SWIDTH 263 0
DWIDTH 6 0
BBX 0 0 0 0
BITMAP
ENDCHAR
STARTCHAR dotaccent
ENCODING 250
SWIDTH 263 0
DWIDTH 6 0
BBX 0 0 0 0
BITMAP
ENDCHAR
STARTCHAR ring
ENCODING 251
SWIDTH 263 0
DWIDTH 6 0
BBX 0 0 0 0
BITMAP
ENDCHAR
STARTCHAR cedilla
ENCODING 252
SWIDTH 263 0
DWIDTH 6 0
BBX 0 0 0 0
BITMAP
ENDCHAR
STARTCHAR hungarumlaut
ENCODING 253
SWIDTH 263 0
DWIDTH 6 0
BBX 0 0 0 0
BITMAP
ENDCHAR
STARTCHAR ogonek
ENCODING 254
SWIDTH 263 0
DWIDTH 6 0
BBX 0 0 0 0
BITMAP
ENDCHAR
STARTCHAR caron
ENCODING 255
SWIDTH 263 0
DWIDTH 6 0
BBX 0 0 0 0
BITMAP
ENDCHAR
ENDFONT
