STARTFONT 2.1
FONT -WRI-Mathematica4-Medium-R-Normal--17-170-75-75-p-120-Adobe-FontSpecific
SIZE 17 75 75
FONTBOUNDINGBOX 45 20 -1 -5
STARTPROPERTIES 16
FOUNDRY "WRI"
FAMILY_NAME "Mathematica4"
WEIGHT_NAME "Medium"
SLANT "R"
SETWIDTH_NAME "Normal"
PIXEL_SIZE 17
POINT_SIZE 170
RESOLUTION_X 75
RESOLUTION_Y 75
SPACING "p"
AVERAGE_WIDTH 120
CHARSET_REGISTRY "Adobe"
CHARSET_ENCODING "FontSpecific"
FONT_DESCENT 5
FONT_ASCENT 15
DEFAULT_CHAR 32
ENDPROPERTIES
CHARS 224
STARTCHAR Space
ENCODING 32
SWIDTH 189 0
DWIDTH 3 0
BBX 0 0 0 0
BITMAP
ENDCHAR
STARTCHAR RArrowBar
ENCODING 33
SWIDTH 875 0
DWIDTH 15 0
BBX 13 7 1 1
BITMAP
0088
0048
0028
fff8
0028
0048
0088
ENDCHAR
STARTCHAR LTackArrow
ENCODING 34
SWIDTH 874 0
DWIDTH 15 0
BBX 13 7 1 1
BITMAP
1008
2008
4008
fff8
4008
2008
1008
ENDCHAR
STARTCHAR RTackArrow
ENCODING 35
SWIDTH 874 0
DWIDTH 15 0
BBX 13 7 1 1
BITMAP
8040
8020
8010
fff8
8010
8020
8040
ENDCHAR
STARTCHAR UpArrowBar
ENCODING 36
SWIDTH 533 0
DWIDTH 9 0
BBX 7 13 1 0
BITMAP
fe
10
38
54
92
10
10
10
10
10
10
10
10
ENDCHAR
STARTCHAR DownArrowBar
ENCODING 37
SWIDTH 533 0
DWIDTH 9 0
BBX 7 13 1 0
BITMAP
10
10
10
10
10
10
10
10
92
54
38
10
fe
ENDCHAR
STARTCHAR UpTackArrow
ENCODING 38
SWIDTH 533 0
DWIDTH 9 0
BBX 7 13 1 0
BITMAP
10
38
54
92
10
10
10
10
10
10
10
10
fe
ENDCHAR
STARTCHAR DownTackArrow
ENCODING 39
SWIDTH 533 0
DWIDTH 9 0
BBX 7 13 1 0
BITMAP
fe
10
10
10
10
10
10
10
10
92
54
38
10
ENDCHAR
STARTCHAR LVectorBar
ENCODING 40
SWIDTH 875 0
DWIDTH 15 0
BBX 13 7 1 1
BITMAP
8800
9000
a000
fff8
8000
8000
8000
ENDCHAR
STARTCHAR RVectorBar
ENCODING 41
SWIDTH 875 0
DWIDTH 15 0
BBX 13 7 1 1
BITMAP
0088
0048
0028
fff8
0008
0008
0008
ENDCHAR
STARTCHAR DownLVectorBar
ENCODING 42
SWIDTH 875 0
DWIDTH 15 0
BBX 13 7 1 1
BITMAP
8000
8000
8000
fff8
a000
9000
8800
ENDCHAR
STARTCHAR DownRVectorBar
ENCODING 43
SWIDTH 875 0
DWIDTH 15 0
BBX 13 7 1 1
BITMAP
0008
0008
0008
fff8
0028
0048
0088
ENDCHAR
STARTCHAR LTackVector
ENCODING 44
SWIDTH 875 0
DWIDTH 15 0
BBX 13 7 1 1
BITMAP
1008
2008
4008
fff8
0008
0008
0008
ENDCHAR
STARTCHAR RTackVector
ENCODING 45
SWIDTH 875 0
DWIDTH 15 0
BBX 13 7 1 1
BITMAP
8040
8020
8010
fff8
8000
8000
8000
ENDCHAR
STARTCHAR DownLTackVector
ENCODING 46
SWIDTH 875 0
DWIDTH 15 0
BBX 13 7 1 1
BITMAP
0008
0008
0008
fff8
4008
2008
1008
ENDCHAR
STARTCHAR DownRTackVector
ENCODING 47
SWIDTH 875 0
DWIDTH 15 0
BBX 13 7 1 1
BITMAP
8000
8000
8000
fff8
8010
8020
8040
ENDCHAR
STARTCHAR LVector
ENCODING 48
SWIDTH 820 0
DWIDTH 14 0
BBX 12 4 1 4
BITMAP
1000
2000
4000
fff0
ENDCHAR
STARTCHAR RVector
ENCODING 49
SWIDTH 820 0
DWIDTH 14 0
BBX 12 4 1 4
BITMAP
0080
0040
0020
fff0
ENDCHAR
STARTCHAR LRVector
ENCODING 50
SWIDTH 974 0
DWIDTH 17 0
BBX 15 4 1 4
BITMAP
1010
2008
4004
fffe
ENDCHAR
STARTCHAR DownLVector
ENCODING 51
SWIDTH 820 0
DWIDTH 14 0
BBX 12 4 1 1
BITMAP
fff0
4000
2000
1000
ENDCHAR
STARTCHAR DownRVector
ENCODING 52
SWIDTH 820 0
DWIDTH 14 0
BBX 12 4 1 1
BITMAP
fff0
0020
0040
0080
ENDCHAR
STARTCHAR DownLRVector
ENCODING 53
SWIDTH 974 0
DWIDTH 17 0
BBX 15 4 1 1
BITMAP
fffe
4004
2008
1010
ENDCHAR
STARTCHAR LUpDownVector
ENCODING 54
SWIDTH 373 0
DWIDTH 6 0
BBX 4 15 1 0
BITMAP
10
30
50
90
10
10
10
10
10
10
10
90
50
30
10
ENDCHAR
STARTCHAR RUpDownVector
ENCODING 55
SWIDTH 373 0
DWIDTH 6 0
BBX 4 15 1 0
BITMAP
80
c0
a0
90
80
80
80
80
80
80
80
90
a0
c0
80
ENDCHAR
STARTCHAR LUpVectorBar
ENCODING 56
SWIDTH 533 0
DWIDTH 9 0
BBX 7 13 1 0
BITMAP
fe
10
30
50
90
10
10
10
10
10
10
10
10
ENDCHAR
STARTCHAR LDownVectorBar
ENCODING 57
SWIDTH 533 0
DWIDTH 9 0
BBX 7 13 1 0
BITMAP
10
10
10
10
10
10
10
10
90
50
30
10
fe
ENDCHAR
STARTCHAR RUpVectorBar
ENCODING 58
SWIDTH 533 0
DWIDTH 9 0
BBX 7 13 1 0
BITMAP
fe
10
18
14
12
10
10
10
10
10
10
10
10
ENDCHAR
STARTCHAR RDownVectorBar
ENCODING 59
SWIDTH 533 0
DWIDTH 9 0
BBX 7 13 1 0
BITMAP
10
10
10
10
10
10
10
10
12
14
18
10
fe
ENDCHAR
STARTCHAR LUpTackVector
ENCODING 60
SWIDTH 533 0
DWIDTH 9 0
BBX 7 13 1 0
BITMAP
10
30
50
90
10
10
10
10
10
10
10
10
fe
ENDCHAR
STARTCHAR LDownTackVector
ENCODING 61
SWIDTH 533 0
DWIDTH 9 0
BBX 7 13 1 0
BITMAP
fe
10
10
10
10
10
10
10
10
90
50
30
10
ENDCHAR
STARTCHAR RUpTackVector
ENCODING 62
SWIDTH 533 0
DWIDTH 9 0
BBX 7 13 1 0
BITMAP
10
18
14
12
10
10
10
10
10
10
10
10
fe
ENDCHAR
STARTCHAR RDownTackVector
ENCODING 63
SWIDTH 533 0
DWIDTH 9 0
BBX 7 13 1 0
BITMAP
fe
10
10
10
10
10
10
10
10
12
14
18
10
ENDCHAR
STARTCHAR LUpVector
ENCODING 64
SWIDTH 373 0
DWIDTH 6 0
BBX 4 12 1 0
BITMAP
10
30
50
90
10
10
10
10
10
10
10
10
ENDCHAR
STARTCHAR ExtensUp1
ENCODING 65
SWIDTH 533 0
DWIDTH 9 0
BBX 1 6 4 0
BITMAP
80
80
80
80
80
80
ENDCHAR
STARTCHAR LDownVector
ENCODING 66
SWIDTH 373 0
DWIDTH 6 0
BBX 4 12 1 0
BITMAP
10
10
10
10
10
10
10
10
90
50
30
10
ENDCHAR
STARTCHAR RUpVector
ENCODING 67
SWIDTH 373 0
DWIDTH 6 0
BBX 4 12 1 0
BITMAP
80
c0
a0
90
80
80
80
80
80
80
80
80
ENDCHAR
STARTCHAR ExtensUp2
ENCODING 68
SWIDTH 373 0
DWIDTH 6 0
BBX 1 6 1 0
BITMAP
80
80
80
80
80
80
ENDCHAR
STARTCHAR RDownVector
ENCODING 69
SWIDTH 373 0
DWIDTH 6 0
BBX 4 12 1 0
BITMAP
80
80
80
80
80
80
80
80
90
a0
c0
80
ENDCHAR
STARTCHAR Equilibrium
ENCODING 70
SWIDTH 822 0
DWIDTH 14 0
BBX 12 10 1 -1
BITMAP
0080
0040
0020
fff0
0000
0000
fff0
4000
2000
1000
ENDCHAR
STARTCHAR RvrsEquilibrium
ENCODING 71
SWIDTH 822 0
DWIDTH 14 0
BBX 12 10 1 -1
BITMAP
1000
2000
4000
fff0
0000
0000
fff0
0020
0040
0080
ENDCHAR
STARTCHAR EquilbrmHeadL
ENCODING 72
SWIDTH 314 0
DWIDTH 5 0
BBX 4 7 1 -1
BITMAP
f0
00
00
f0
40
20
10
ENDCHAR
STARTCHAR EquilbrmheadR
ENCODING 73
SWIDTH 318 0
DWIDTH 5 0
BBX 4 7 0 2
BITMAP
80
40
20
f0
00
00
f0
ENDCHAR
STARTCHAR RvrsEquilbrmHeadL
ENCODING 74
SWIDTH 314 0
DWIDTH 5 0
BBX 4 7 1 2
BITMAP
10
20
40
f0
00
00
f0
ENDCHAR
STARTCHAR RvrsEquilbrmHeadR
ENCODING 75
SWIDTH 314 0
DWIDTH 5 0
BBX 4 7 0 -1
BITMAP
f0
00
00
f0
20
40
80
ENDCHAR
STARTCHAR UpEquilibrium
ENCODING 76
SWIDTH 736 0
DWIDTH 13 0
BBX 10 12 1 0
BITMAP
1200
3200
5200
9200
1200
1200
1200
1200
1240
1280
1300
1200
ENDCHAR
STARTCHAR RvrsUpEquilibrium
ENCODING 77
SWIDTH 736 0
DWIDTH 13 0
BBX 10 12 1 0
BITMAP
1200
1300
1280
1240
1200
1200
1200
1200
9200
5200
3200
1200
ENDCHAR
STARTCHAR LArrowHookUp
ENCODING 78
SWIDTH 822 0
DWIDTH 14 0
BBX 12 7 1 1
BITMAP
1060
2010
4010
ffe0
4000
2000
1000
ENDCHAR
STARTCHAR RArrowHookUp
ENCODING 79
SWIDTH 822 0
DWIDTH 14 0
BBX 12 7 1 1
BITMAP
6080
8040
8020
7ff0
0020
0040
0080
ENDCHAR
STARTCHAR LArrow
ENCODING 80
SWIDTH 822 0
DWIDTH 14 0
BBX 12 7 1 1
BITMAP
1000
2000
4000
fff0
4000
2000
1000
ENDCHAR
STARTCHAR Extens
ENCODING 81
SWIDTH 324 0
DWIDTH 6 0
BBX 6 1 0 4
BITMAP
fc
ENDCHAR
STARTCHAR LeftTackBase
ENCODING 82
SWIDTH 166 0
DWIDTH 3 0
BBX 2 7 0 1
BITMAP
40
40
40
c0
40
40
40
ENDCHAR
STARTCHAR RightTackBase
ENCODING 83
SWIDTH 166 0
DWIDTH 3 0
BBX 2 7 1 1
BITMAP
80
80
80
c0
80
80
80
ENDCHAR
STARTCHAR RArrow
ENCODING 84
SWIDTH 822 0
DWIDTH 14 0
BBX 12 7 1 1
BITMAP
0080
0040
0020
fff0
0020
0040
0080
ENDCHAR
STARTCHAR RUpVector2
ENCODING 85
SWIDTH 533 0
DWIDTH 9 0
BBX 4 12 4 0
BITMAP
80
c0
a0
90
80
80
80
80
80
80
80
80
ENDCHAR
STARTCHAR RArrowLArrow
ENCODING 86
SWIDTH 822 0
DWIDTH 14 0
BBX 12 8 1 0
BITMAP
0040
0020
fff0
2020
4040
fff0
4000
2000
ENDCHAR
STARTCHAR LArrowRArrow
ENCODING 87
SWIDTH 822 0
DWIDTH 14 0
BBX 12 8 1 0
BITMAP
2000
4000
fff0
4040
2020
fff0
0020
0040
ENDCHAR
STARTCHAR RArrowLArrowHeadL
ENCODING 88
SWIDTH 239 0
DWIDTH 4 0
BBX 3 6 1 0
BITMAP
e0
20
40
e0
40
20
ENDCHAR
STARTCHAR RArrowLArrowHeadR
ENCODING 89
SWIDTH 239 0
DWIDTH 4 0
BBX 3 6 0 2
BITMAP
80
40
e0
40
80
e0
ENDCHAR
STARTCHAR LArrowRArrowHeadL
ENCODING 90
SWIDTH 239 0
DWIDTH 4 0
BBX 3 6 0 0
BITMAP
e0
80
40
e0
40
80
ENDCHAR
STARTCHAR LArrowRArrowHeadR
ENCODING 91
SWIDTH 239 0
DWIDTH 4 0
BBX 3 6 1 2
BITMAP
20
40
e0
40
20
e0
ENDCHAR
STARTCHAR UpArrowDownArrow
ENCODING 92
SWIDTH 629 0
DWIDTH 11 0
BBX 8 11 1 0
BITMAP
24
74
ac
24
24
24
24
24
35
2e
24
ENDCHAR
STARTCHAR DownArrowUpArrow
ENCODING 93
SWIDTH 629 0
DWIDTH 11 0
BBX 8 11 2 0
BITMAP
24
2e
35
24
24
24
24
24
ac
74
24
ENDCHAR
STARTCHAR VertExt1
ENCODING 94
SWIDTH 46 0
DWIDTH 1 0
BBX 1 3 0 0
BITMAP
80
80
80
ENDCHAR
STARTCHAR HorizExt1
ENCODING 95
SWIDTH 200 0
DWIDTH 3 0
BBX 4 1 0 0
BITMAP
f0
ENDCHAR
STARTCHAR UpArrow
ENCODING 96
SWIDTH 533 0
DWIDTH 9 0
BBX 7 12 1 0
BITMAP
10
38
54
92
10
10
10
10
10
10
10
10
ENDCHAR
STARTCHAR UpTackBase
ENCODING 97
SWIDTH 533 0
DWIDTH 9 0
BBX 7 2 1 0
BITMAP
10
fe
ENDCHAR
STARTCHAR DownTackBase
ENCODING 98
SWIDTH 533 0
DWIDTH 9 0
BBX 7 2 1 0
BITMAP
fe
10
ENDCHAR
STARTCHAR DownArrow
ENCODING 99
SWIDTH 533 0
DWIDTH 9 0
BBX 7 12 1 0
BITMAP
10
10
10
10
10
10
10
10
92
54
38
10
ENDCHAR
STARTCHAR RDownVector2
ENCODING 100
SWIDTH 533 0
DWIDTH 9 0
BBX 4 12 4 0
BITMAP
80
80
80
80
80
80
80
80
90
a0
c0
80
ENDCHAR
STARTCHAR UpEquilbrmHeadBttm
ENCODING 101
SWIDTH 615 0
DWIDTH 10 0
BBX 7 4 2 0
BITMAP
92
94
98
90
ENDCHAR
STARTCHAR DblUpExtens2
ENCODING 102
SWIDTH 615 0
DWIDTH 10 0
BBX 4 6 2 0
BITMAP
90
90
90
90
90
90
ENDCHAR
STARTCHAR RvrsUpEquilHdTop
ENCODING 103
SWIDTH 615 0
DWIDTH 10 0
BBX 7 4 2 0
BITMAP
90
98
94
92
ENDCHAR
STARTCHAR UpEquilbrmHeadTop
ENCODING 104
SWIDTH 629 0
DWIDTH 11 0
BBX 7 4 1 0
BITMAP
12
32
52
92
ENDCHAR
STARTCHAR DblUpExtens1
ENCODING 105
SWIDTH 629 0
DWIDTH 11 0
BBX 4 6 4 0
BITMAP
90
90
90
90
90
90
ENDCHAR
STARTCHAR RvrsUpEquilibrmHdBttm
ENCODING 106
SWIDTH 629 0
DWIDTH 11 0
BBX 7 4 1 0
BITMAP
92
52
32
12
ENDCHAR
STARTCHAR UpArrwDwnArrwBttm
ENCODING 107
SWIDTH 629 0
DWIDTH 11 0
BBX 6 3 4 0
BITMAP
d4
b8
90
ENDCHAR
STARTCHAR DwnArrwUpArrwTop
ENCODING 108
SWIDTH 629 0
DWIDTH 11 0
BBX 6 3 4 0
BITMAP
90
b8
d4
ENDCHAR
STARTCHAR UpArrwDwnArrwTop
ENCODING 109
SWIDTH 629 0
DWIDTH 11 0
BBX 6 3 1 0
BITMAP
24
74
ac
ENDCHAR
STARTCHAR DwnArrwUpArrwBttm
ENCODING 110
SWIDTH 629 0
DWIDTH 11 0
BBX 6 3 1 0
BITMAP
ac
74
24
ENDCHAR
STARTCHAR DblExtens
ENCODING 111
SWIDTH 324 0
DWIDTH 6 0
BBX 6 4 0 2
BITMAP
fc
00
00
fc
ENDCHAR
STARTCHAR OverBracket1
ENCODING 112
SWIDTH 800 0
DWIDTH 14 0
BBX 14 2 0 0
BITMAP
fffc
8004
ENDCHAR
STARTCHAR OverBracket2
ENCODING 113
SWIDTH 1050 0
DWIDTH 18 0
BBX 18 2 0 0
BITMAP
ffffc0
800040
ENDCHAR
STARTCHAR OverBracket3
ENCODING 114
SWIDTH 1400 0
DWIDTH 24 0
BBX 24 2 0 0
BITMAP
ffffff
800001
ENDCHAR
STARTCHAR OverBracket4
ENCODING 115
SWIDTH 1750 0
DWIDTH 30 0
BBX 30 2 0 0
BITMAP
fffffffc
80000004
ENDCHAR
STARTCHAR OverBracketExt1
ENCODING 116
SWIDTH 200 0
DWIDTH 3 0
BBX 3 2 0 0
BITMAP
e0
80
ENDCHAR
STARTCHAR OverBracketExt2
ENCODING 117
SWIDTH 200 0
DWIDTH 3 0
BBX 4 1 0 1
BITMAP
f0
ENDCHAR
STARTCHAR OverBracketExt3
ENCODING 118
SWIDTH 200 0
DWIDTH 3 0
BBX 3 2 0 0
BITMAP
e0
20
ENDCHAR
STARTCHAR ShortUpArrow
ENCODING 119
SWIDTH 533 0
DWIDTH 9 0
BBX 7 8 1 0
BITMAP
10
38
54
92
10
10
10
10
ENDCHAR
STARTCHAR ShortDownArrow
ENCODING 120
SWIDTH 533 0
DWIDTH 9 0
BBX 7 8 1 0
BITMAP
10
10
10
10
92
54
38
10
ENDCHAR
STARTCHAR ShortLArrow
ENCODING 121
SWIDTH 602 0
DWIDTH 10 0
BBX 8 7 1 1
BITMAP
10
20
40
ff
40
20
10
ENDCHAR
STARTCHAR ShortRArrow
ENCODING 122
SWIDTH 602 0
DWIDTH 10 0
BBX 8 7 1 1
BITMAP
08
04
02
ff
02
04
08
ENDCHAR
STARTCHAR LArrowBar
ENCODING 123
SWIDTH 875 0
DWIDTH 15 0
BBX 13 7 1 1
BITMAP
8800
9000
a000
fff8
a000
9000
8800
ENDCHAR
STARTCHAR Dash
ENCODING 124
SWIDTH 380 0
DWIDTH 6 0
BBX 4 1 1 4
BITMAP
f0
ENDCHAR
STARTCHAR LongDash
ENCODING 125
SWIDTH 530 0
DWIDTH 9 0
BBX 7 1 1 4
BITMAP
fe
ENDCHAR
STARTCHAR DivisionBarExtens
ENCODING 126
SWIDTH 980 0
DWIDTH 17 0
BBX 15 1 1 4
BITMAP
fffe
ENDCHAR
STARTCHAR DEL
ENCODING 127
SWIDTH 189 0
DWIDTH 3 0
BBX 0 0 0 0
BITMAP
ENDCHAR
STARTCHAR UnderBracket1
ENCODING 128
SWIDTH 800 0
DWIDTH 14 0
BBX 14 2 0 0
BITMAP
8004
fffc
ENDCHAR
STARTCHAR UnderBracket2
ENCODING 129
SWIDTH 1050 0
DWIDTH 18 0
BBX 18 2 0 0
BITMAP
800040
ffffc0
ENDCHAR
STARTCHAR UnderBracket3
ENCODING 130
SWIDTH 1400 0
DWIDTH 24 0
BBX 24 2 0 0
BITMAP
800001
ffffff
ENDCHAR
STARTCHAR UnderBracket4
ENCODING 131
SWIDTH 1750 0
DWIDTH 30 0
BBX 30 2 0 0
BITMAP
80000004
fffffffc
ENDCHAR
STARTCHAR UnderBracketExt1
ENCODING 132
SWIDTH 200 0
DWIDTH 3 0
BBX 3 2 0 0
BITMAP
80
e0
ENDCHAR
STARTCHAR UnderBracketExt2
ENCODING 133
SWIDTH 200 0
DWIDTH 3 0
BBX 4 1 0 0
BITMAP
f0
ENDCHAR
STARTCHAR UnderBracketExt3
ENCODING 134
SWIDTH 200 0
DWIDTH 3 0
BBX 3 2 0 0
BITMAP
20
e0
ENDCHAR
STARTCHAR LowerLeftArrow
ENCODING 135
SWIDTH 707 0
DWIDTH 12 0
BBX 10 10 1 0
BITMAP
0040
0080
0100
0200
0400
8800
9000
a000
c000
f800
ENDCHAR
STARTCHAR UpperLeftArrow
ENCODING 136
SWIDTH 707 0
DWIDTH 12 0
BBX 10 10 1 0
BITMAP
f800
c000
a000
9000
8800
0400
0200
0100
0080
0040
ENDCHAR
STARTCHAR UpperRightArrow
ENCODING 137
SWIDTH 707 0
DWIDTH 12 0
BBX 10 10 1 0
BITMAP
07c0
00c0
0140
0240
0440
0800
1000
2000
4000
8000
ENDCHAR
STARTCHAR LowerRightArrow
ENCODING 138
SWIDTH 707 0
DWIDTH 12 0
BBX 10 10 1 0
BITMAP
8000
4000
2000
1000
0800
0440
0240
0140
00c0
07c0
ENDCHAR
STARTCHAR LongLowerLeftArrow
ENCODING 139
SWIDTH 1193 0
DWIDTH 20 0
BBX 18 18 1 -3
BITMAP
000040
000080
000100
000200
000400
000800
001000
002000
004000
008000
010000
020000
040000
880000
900000
a00000
c00000
f80000
ENDCHAR
STARTCHAR LongUpperLeftArrow
ENCODING 140
SWIDTH 1193 0
DWIDTH 20 0
BBX 18 18 1 -3
BITMAP
f80000
c00000
a00000
900000
880000
040000
020000
010000
008000
004000
002000
001000
000800
000400
000200
000100
000080
000040
ENDCHAR
STARTCHAR LongUpperRightArrow
ENCODING 141
SWIDTH 1193 0
DWIDTH 20 0
BBX 18 18 1 -3
BITMAP
0007c0
0000c0
000140
000240
000440
000800
001000
002000
004000
008000
010000
020000
040000
080000
100000
200000
400000
800000
ENDCHAR
STARTCHAR LongLowerRightArrow
ENCODING 142
SWIDTH 1193 0
DWIDTH 20 0
BBX 18 18 1 -3
BITMAP
800000
400000
200000
100000
080000
040000
020000
010000
008000
004000
002000
001000
000800
000440
000240
000140
0000c0
0007c0
ENDCHAR
STARTCHAR Arrowhead
ENCODING 143
SWIDTH 410 0
DWIDTH 7 0
BBX 5 5 1 0
BITMAP
80
80
80
80
f8
ENDCHAR
STARTCHAR OverParen1
ENCODING 144
SWIDTH 700 0
DWIDTH 12 0
BBX 12 2 0 0
BITMAP
3fc0
c030
ENDCHAR
STARTCHAR OverParen2
ENCODING 145
SWIDTH 1050 0
DWIDTH 18 0
BBX 18 2 0 0
BITMAP
3fff00
c000c0
ENDCHAR
STARTCHAR OverParen3
ENCODING 146
SWIDTH 1400 0
DWIDTH 24 0
BBX 24 2 0 0
BITMAP
3ffffc
c00003
ENDCHAR
STARTCHAR OverParen4
ENCODING 147
SWIDTH 1750 0
DWIDTH 30 0
BBX 30 2 0 0
BITMAP
3ffffff0
c000000c
ENDCHAR
STARTCHAR OverParenExt1
ENCODING 148
SWIDTH 330 0
DWIDTH 6 0
BBX 6 2 0 0
BITMAP
3c
c0
ENDCHAR
STARTCHAR OverParenExt2
ENCODING 149
SWIDTH 200 0
DWIDTH 3 0
BBX 4 1 0 1
BITMAP
f0
ENDCHAR
STARTCHAR OverParenExt3
ENCODING 150
SWIDTH 330 0
DWIDTH 6 0
BBX 6 2 0 0
BITMAP
f0
0c
ENDCHAR
STARTCHAR OverBrace1
ENCODING 151
SWIDTH 700 0
DWIDTH 12 0
BBX 12 3 0 0
BITMAP
0400
7be0
8010
ENDCHAR
STARTCHAR OverBrace2
ENCODING 152
SWIDTH 1150 0
DWIDTH 20 0
BBX 20 3 0 0
BITMAP
004000
7fbfe0
800010
ENDCHAR
STARTCHAR OverBrace3
ENCODING 153
SWIDTH 1500 0
DWIDTH 26 0
BBX 26 3 0 0
BITMAP
00040000
7ffbff80
80000040
ENDCHAR
STARTCHAR OverBrace4
ENCODING 154
SWIDTH 1850 0
DWIDTH 31 0
BBX 31 3 0 0
BITMAP
00010000
7ffefffc
80000002
ENDCHAR
STARTCHAR OverBraceExt1
ENCODING 155
SWIDTH 200 0
DWIDTH 3 0
BBX 3 2 0 0
BITMAP
60
80
ENDCHAR
STARTCHAR OverBraceExt2
ENCODING 156
SWIDTH 200 0
DWIDTH 3 0
BBX 4 1 0 1
BITMAP
f0
ENDCHAR
STARTCHAR OverBraceExt3
ENCODING 157
SWIDTH 347 0
DWIDTH 6 0
BBX 6 2 0 1
BITMAP
20
dc
ENDCHAR
STARTCHAR OverBraceExt4
ENCODING 158
SWIDTH 200 0
DWIDTH 3 0
BBX 3 2 0 0
BITMAP
c0
20
ENDCHAR
STARTCHAR AngleArrowExt45
ENCODING 159
SWIDTH 280 0
DWIDTH 5 0
BBX 5 5 0 0
BITMAP
08
10
20
40
80
ENDCHAR
STARTCHAR UnderParen1
ENCODING 160
SWIDTH 700 0
DWIDTH 12 0
BBX 12 2 0 0
BITMAP
c030
3fc0
ENDCHAR
STARTCHAR UnderParen2
ENCODING 161
SWIDTH 1050 0
DWIDTH 18 0
BBX 18 2 0 0
BITMAP
c000c0
3fff00
ENDCHAR
STARTCHAR UnderParen3
ENCODING 162
SWIDTH 1400 0
DWIDTH 24 0
BBX 24 2 0 0
BITMAP
c00003
3ffffc
ENDCHAR
STARTCHAR UnderParen4
ENCODING 163
SWIDTH 1750 0
DWIDTH 30 0
BBX 30 2 0 0
BITMAP
c000000c
3ffffff0
ENDCHAR
STARTCHAR UnderParenExt1
ENCODING 164
SWIDTH 330 0
DWIDTH 6 0
BBX 6 2 0 0
BITMAP
c0
3c
ENDCHAR
STARTCHAR UnderParenExt2
ENCODING 165
SWIDTH 200 0
DWIDTH 3 0
BBX 4 1 0 0
BITMAP
f0
ENDCHAR
STARTCHAR UnderParenExt3
ENCODING 166
SWIDTH 330 0
DWIDTH 6 0
BBX 6 2 0 0
BITMAP
0c
f0
ENDCHAR
STARTCHAR UnderBrace1
ENCODING 167
SWIDTH 700 0
DWIDTH 12 0
BBX 12 3 0 -1
BITMAP
8010
7be0
0400
ENDCHAR
STARTCHAR UnderBrace2
ENCODING 168
SWIDTH 1150 0
DWIDTH 20 0
BBX 20 3 0 -1
BITMAP
800010
7fbfe0
004000
ENDCHAR
STARTCHAR UnderBrace3
ENCODING 169
SWIDTH 1500 0
DWIDTH 26 0
BBX 26 3 0 -1
BITMAP
80000040
7ffbff80
00040000
ENDCHAR
STARTCHAR UnderBrace4
ENCODING 170
SWIDTH 1850 0
DWIDTH 31 0
BBX 31 3 0 -1
BITMAP
80000002
7ffefffc
00010000
ENDCHAR
STARTCHAR UnderBraceExt1
ENCODING 171
SWIDTH 200 0
DWIDTH 3 0
BBX 3 2 0 0
BITMAP
80
60
ENDCHAR
STARTCHAR UnderBraceExt2
ENCODING 172
SWIDTH 200 0
DWIDTH 3 0
BBX 4 1 0 0
BITMAP
f0
ENDCHAR
STARTCHAR UnderBraceExt3
ENCODING 173
SWIDTH 347 0
DWIDTH 6 0
BBX 6 2 0 -1
BITMAP
dc
20
ENDCHAR
STARTCHAR UnderBraceExt4
ENCODING 174
SWIDTH 200 0
DWIDTH 3 0
BBX 3 2 0 0
BITMAP
20
c0
ENDCHAR
STARTCHAR AngleArrowExt135
ENCODING 175
SWIDTH 280 0
DWIDTH 5 0
BBX 5 5 0 0
BITMAP
80
40
20
10
08
ENDCHAR
STARTCHAR OverWedge1
ENCODING 176
SWIDTH 700 0
DWIDTH 12 0
BBX 11 3 0 0
BITMAP
0e00
71c0
8020
ENDCHAR
STARTCHAR OverWedge2
ENCODING 177
SWIDTH 1050 0
DWIDTH 18 0
BBX 17 3 0 0
BITMAP
03e000
3c1e00
c00180
ENDCHAR
STARTCHAR OverWedge3
ENCODING 178
SWIDTH 1400 0
DWIDTH 24 0
BBX 23 3 0 0
BITMAP
007c00
1f83f0
e0000e
ENDCHAR
STARTCHAR OverWedge4
ENCODING 179
SWIDTH 1750 0
DWIDTH 30 0
BBX 29 3 0 0
BITMAP
001fc000
0fe03f80
f0000078
ENDCHAR
STARTCHAR Ellipsis
ENCODING 180
SWIDTH 1000 0
DWIDTH 17 0
BBX 14 2 2 0
BITMAP
c30c
c30c
ENDCHAR
STARTCHAR CenterEllipsis
ENCODING 181
SWIDTH 1000 0
DWIDTH 17 0
BBX 14 2 2 3
BITMAP
c30c
c30c
ENDCHAR
STARTCHAR VertEllipsis
ENCODING 182
SWIDTH 239 0
DWIDTH 4 0
BBX 2 14 1 0
BITMAP
c0
c0
00
00
00
00
c0
c0
00
00
00
00
c0
c0
ENDCHAR
STARTCHAR DiagEllipsis
ENCODING 183
SWIDTH 709 0
DWIDTH 12 0
BBX 10 10 1 1
BITMAP
00c0
00c0
0000
0000
0c00
0c00
0000
0000
c000
c000
ENDCHAR
STARTCHAR BackDiagEllipsis
ENCODING 184
SWIDTH 709 0
DWIDTH 12 0
BBX 10 10 1 1
BITMAP
c000
c000
0000
0000
0c00
0c00
0000
0000
00c0
00c0
ENDCHAR
STARTCHAR Ellipsis2
ENCODING 185
SWIDTH 1000 0
DWIDTH 17 0
BBX 14 2 2 0
BITMAP
c30c
c30c
ENDCHAR
STARTCHAR CenterEllipsis2
ENCODING 186
SWIDTH 1000 0
DWIDTH 17 0
BBX 14 2 2 3
BITMAP
c30c
c30c
ENDCHAR
STARTCHAR VertEllipsis2
ENCODING 187
SWIDTH 239 0
DWIDTH 4 0
BBX 2 14 1 0
BITMAP
c0
c0
00
00
00
00
c0
c0
00
00
00
00
c0
c0
ENDCHAR
STARTCHAR Dot
ENCODING 188
SWIDTH 335 0
DWIDTH 6 0
BBX 2 2 2 0
BITMAP
c0
c0
ENDCHAR
STARTCHAR CenterDot
ENCODING 189
SWIDTH 335 0
DWIDTH 6 0
BBX 2 2 2 3
BITMAP
c0
c0
ENDCHAR
STARTCHAR BackPrime
ENCODING 190
SWIDTH 347 0
DWIDTH 6 0
BBX 4 7 1 1
BITMAP
c0
c0
60
60
20
10
10
ENDCHAR
STARTCHAR DblBackPrime
ENCODING 191
SWIDTH 589 0
DWIDTH 10 0
BBX 8 7 1 1
BITMAP
cc
ec
66
36
32
19
09
ENDCHAR
STARTCHAR UnderVee1
ENCODING 192
SWIDTH 700 0
DWIDTH 12 0
BBX 11 3 0 0
BITMAP
8020
71c0
0e00
ENDCHAR
STARTCHAR UnderVee2
ENCODING 193
SWIDTH 1050 0
DWIDTH 18 0
BBX 17 3 0 0
BITMAP
c00180
3c1e00
03e000
ENDCHAR
STARTCHAR UnderVee3
ENCODING 194
SWIDTH 1400 0
DWIDTH 24 0
BBX 23 3 0 0
BITMAP
e0000e
1f83f0
007c00
ENDCHAR
STARTCHAR UnderVee4
ENCODING 195
SWIDTH 1750 0
DWIDTH 30 0
BBX 29 3 0 0
BITMAP
f0000078
0fe03f80
001fc000
ENDCHAR
STARTCHAR UpPointer
ENCODING 196
SWIDTH 520 0
DWIDTH 9 0
BBX 7 4 1 2
BITMAP
10
38
7c
fe
ENDCHAR
STARTCHAR RightPointer
ENCODING 197
SWIDTH 310 0
DWIDTH 5 0
BBX 4 7 0 1
BITMAP
80
c0
e0
f0
e0
c0
80
ENDCHAR
STARTCHAR DownPointer
ENCODING 198
SWIDTH 520 0
DWIDTH 9 0
BBX 7 4 1 2
BITMAP
fe
7c
38
10
ENDCHAR
STARTCHAR LeftPointer
ENCODING 199
SWIDTH 310 0
DWIDTH 5 0
BBX 4 7 0 1
BITMAP
10
30
70
f0
70
30
10
ENDCHAR
STARTCHAR UpLHookExt
ENCODING 200
SWIDTH 235 0
DWIDTH 4 0
BBX 3 4 0 4
BITMAP
c0
20
20
c0
ENDCHAR
STARTCHAR UpRHookExt
ENCODING 201
SWIDTH 235 0
DWIDTH 4 0
BBX 3 4 1 4
BITMAP
60
80
80
60
ENDCHAR
STARTCHAR Nbspace
ENCODING 202
SWIDTH 189 0
DWIDTH 3 0
BBX 0 0 0 0
BITMAP
ENDCHAR
STARTCHAR XBox
ENCODING 203
SWIDTH 600 0
DWIDTH 10 0
BBX 8 8 1 0
BITMAP
ff
c3
a5
99
99
a5
c3
ff
ENDCHAR
STARTCHAR SmileyFace
ENCODING 204
SWIDTH 537 0
DWIDTH 9 0
BBX 7 11 1 0
BITMAP
7c
82
82
aa
82
82
aa
92
82
82
7c
ENDCHAR
STARTCHAR StraightFace
ENCODING 205
SWIDTH 537 0
DWIDTH 9 0
BBX 7 11 1 0
BITMAP
7c
82
82
aa
82
82
82
ba
82
82
7c
ENDCHAR
STARTCHAR FrownFace
ENCODING 206
SWIDTH 537 0
DWIDTH 9 0
BBX 7 11 1 0
BITMAP
7c
82
82
aa
82
82
92
aa
82
82
7c
ENDCHAR
STARTCHAR ShockFace
ENCODING 207
SWIDTH 570 0
DWIDTH 10 0
BBX 9 15 0 0
BITMAP
a480
a500
5500
5500
be80
4100
4100
5500
4100
4100
4900
5500
4900
4100
3e00
ENDCHAR
STARTCHAR Strike1
ENCODING 208
SWIDTH 128 0
DWIDTH 2 0
BBX 2 5 0 2
BITMAP
40
40
c0
80
80
ENDCHAR
STARTCHAR Strike2
ENCODING 209
SWIDTH 181 0
DWIDTH 3 0
BBX 3 9 0 0
BITMAP
20
20
40
40
40
40
40
80
80
ENDCHAR
STARTCHAR Strike3
ENCODING 210
SWIDTH 228 0
DWIDTH 4 0
BBX 4 12 0 -2
BITMAP
10
10
20
20
20
20
40
40
40
40
80
80
ENDCHAR
STARTCHAR Strike4
ENCODING 211
SWIDTH 259 0
DWIDTH 4 0
BBX 4 13 0 -2
BITMAP
10
10
20
20
20
20
40
40
40
40
40
80
80
ENDCHAR
STARTCHAR Strike5
ENCODING 212
SWIDTH 288 0
DWIDTH 5 0
BBX 5 15 0 -2
BITMAP
08
08
10
10
10
10
20
20
20
40
40
40
40
80
80
ENDCHAR
STARTCHAR Strike6
ENCODING 213
SWIDTH 298 0
DWIDTH 5 0
BBX 5 17 0 -3
BITMAP
08
08
10
10
10
10
20
20
20
20
20
40
40
40
40
80
80
ENDCHAR
STARTCHAR KeyBar
ENCODING 214
SWIDTH 88 0
DWIDTH 2 0
BBX 4 2 -1 4
BITMAP
f0
f0
ENDCHAR
STARTCHAR DownLHookExt
ENCODING 215
SWIDTH 235 0
DWIDTH 4 0
BBX 3 4 0 1
BITMAP
c0
20
20
c0
ENDCHAR
STARTCHAR DownRHookExt
ENCODING 216
SWIDTH 235 0
DWIDTH 4 0
BBX 3 4 1 1
BITMAP
60
80
80
60
ENDCHAR
STARTCHAR Icos
ENCODING 217
SWIDTH 956 0
DWIDTH 16 0
BBX 15 14 1 -2
BITMAP
0630
3dd0
2970
18d0
2f6e
daa4
a728
671c
baf8
5570
17b0
15b0
1e70
0800
ENDCHAR
STARTCHAR KernalIcon
ENCODING 218
SWIDTH 909 0
DWIDTH 15 0
BBX 15 15 0 -2
BITMAP
07c0
1830
2028
5fe4
4ce4
9462
9fde
feaa
b136
bfea
4ea4
4bb4
2a58
1c30
07c0
ENDCHAR
STARTCHAR LightBulb
ENCODING 219
SWIDTH 688 0
DWIDTH 12 0
BBX 10 17 1 -3
BITMAP
0800
2900
0000
9e40
2100
4080
4080
4080
4080
2100
2100
1200
1200
1200
0000
1e00
0800
ENDCHAR
STARTCHAR WarningSign
ENCODING 220
SWIDTH 675 0
DWIDTH 11 0
BBX 10 11 1 0
BITMAP
0c00
0c00
1200
1200
2500
2500
4500
4480
4080
8440
ffc0
ENDCHAR
STARTCHAR WatchIcon
ENCODING 221
SWIDTH 597 0
DWIDTH 10 0
BBX 10 12 0 -1
BITMAP
3e00
3e00
3e00
4100
8880
88c0
98c0
8080
4100
3e00
3e00
3e00
ENDCHAR
STARTCHAR Cedilla
ENCODING 222
SWIDTH 209 0
DWIDTH 4 0
BBX 4 4 0 -4
BITMAP
20
70
10
e0
ENDCHAR
STARTCHAR Ogonek
ENCODING 223
SWIDTH 179 0
DWIDTH 3 0
BBX 3 3 0 -3
BITMAP
80
80
e0
ENDCHAR
STARTCHAR AltKey
ENCODING 224
SWIDTH 1174 0
DWIDTH 20 0
BBX 18 13 1 -2
BITMAP
ffffc0
800040
800040
889f40
888440
948440
948440
9c8440
a28440
a2e440
800040
800040
ffffc0
ENDCHAR
STARTCHAR CmdKey
ENCODING 225
SWIDTH 1318 0
DWIDTH 22 0
BBX 20 13 1 -2
BITMAP
fffff0
800010
800010
9f1b90
a71a50
a2aa50
a2aa50
a2aa50
a64a50
9e4b90
800010
800010
fffff0
ENDCHAR
STARTCHAR CtrlKey
ENCODING 226
SWIDTH 1379 0
DWIDTH 23 0
BBX 21 13 1 -2
BITMAP
fffff8
800008
800008
9ffe88
a49288
a09288
a09c88
a09288
a49288
9c92e8
800008
800008
fffff8
ENDCHAR
STARTCHAR DelKey
ENCODING 227
SWIDTH 1143 0
DWIDTH 19 0
BBX 17 13 1 -2
BITMAP
ffff80
800080
800080
9ce880
928880
928880
92e880
928880
928880
9cee80
800080
800080
ffff80
ENDCHAR
STARTCHAR EntKey
ENCODING 228
SWIDTH 1146 0
DWIDTH 19 0
BBX 17 13 1 -2
BITMAP
ffff80
800080
800080
9dbf80
91a480
91a480
9da480
916480
916480
9d6480
800080
800080
ffff80
ENDCHAR
STARTCHAR EscKey
ENCODING 229
SWIDTH 1146 0
DWIDTH 19 0
BBX 17 13 1 -2
BITMAP
ffff80
800080
800080
b98c80
a25280
a21080
b99080
a05080
a25280
b98c80
800080
800080
ffff80
ENDCHAR
STARTCHAR OptKey
ENCODING 230
SWIDTH 1187 0
DWIDTH 20 0
BBX 18 13 1 -2
BITMAP
ffffc0
800040
800040
99df40
a52440
a52440
a5c440
a50440
a50440
990440
800040
800040
ffffc0
ENDCHAR
STARTCHAR RetKey
ENCODING 231
SWIDTH 1174 0
DWIDTH 20 0
BBX 18 13 1 -2
BITMAP
ffffc0
800040
800040
9eff40
928440
928440
9ce440
928440
928440
92e440
800040
800040
ffffc0
ENDCHAR
STARTCHAR ShftKey
ENCODING 232
SWIDTH 1448 0
DWIDTH 25 0
BBX 23 13 1 -2
BITMAP
fffffe
800002
800002
992efa
a52822
a12822
99ec22
852822
a52822
992822
800002
800002
fffffe
ENDCHAR
STARTCHAR SpcKey
ENCODING 233
SWIDTH 1187 0
DWIDTH 20 0
BBX 18 13 1 -2
BITMAP
ffffc0
800040
800040
99c640
a52940
a12840
99c840
850840
a50940
990640
800040
800040
ffffc0
ENDCHAR
STARTCHAR TabKey
ENCODING 234
SWIDTH 1177 0
DWIDTH 20 0
BBX 18 13 1 -2
BITMAP
ffffc0
800040
800040
be8e40
888940
894940
894e40
89c940
8a2940
8a2e40
800040
800040
ffffc0
ENDCHAR
STARTCHAR LKeyBracket
ENCODING 235
SWIDTH 245 0
DWIDTH 4 0
BBX 4 18 -1 -5
BITMAP
30
20
20
20
20
20
20
20
e0
e0
20
20
20
20
20
20
20
30
ENDCHAR
STARTCHAR RKeyBracket
ENCODING 236
SWIDTH 245 0
DWIDTH 4 0
BBX 2 18 1 -5
BITMAP
c0
40
40
40
40
40
40
40
40
40
40
40
40
40
40
40
40
c0
ENDCHAR
STARTCHAR CloverLeaf
ENCODING 237
SWIDTH 750 0
DWIDTH 13 0
BBX 11 11 1 0
BITMAP
60c0
9120
9120
7fc0
1100
1100
1100
7fc0
9120
9120
60c0
ENDCHAR
STARTCHAR DottedSquare
ENCODING 238
SWIDTH 764 0
DWIDTH 13 0
BBX 11 11 1 0
BITMAP
e4e0
8020
8020
0000
0000
8020
0000
0000
8020
8020
e4e0
ENDCHAR
STARTCHAR RoundSpaceIndicator
ENCODING 239
SWIDTH 250 0
DWIDTH 4 0
BBX 4 2 0 -2
BITMAP
90
60
ENDCHAR
STARTCHAR CommandKey
ENCODING 240
SWIDTH 2643 0
DWIDTH 45 0
BBX 43 13 1 -2
BITMAP
ffffffffffe0
800000000020
800000000020
98cc6c64d720
a52c6c64d4a0
a12aaaaad4a0
a12aaaaad4a0
a12aaaaeb4a0
a5292931b4a0
98c92931b720
800000000020
800000000020
ffffffffffe0
ENDCHAR
STARTCHAR ControlKey
ENCODING 241
SWIDTH 2327 0
DWIDTH 40 0
BBX 38 13 1 -2
BITMAP
fffffffffc
8000000004
8000000004
8c66ffcc84
9296925284
9096925284
9096939284
9095925284
9295925284
8c65924ce4
8000000004
8000000004
fffffffffc
ENDCHAR
STARTCHAR DeleteKey
ENCODING 242
SWIDTH 1890 0
DWIDTH 32 0
BBX 30 13 1 -2
BITMAP
fffffffc
80000004
80000004
9ce8ffe4
92888484
92888484
92e8e4e4
92888484
92888484
9ceee4e4
80000004
80000004
fffffffc
ENDCHAR
STARTCHAR EnterKey
ENCODING 243
SWIDTH 1668 0
DWIDTH 28 0
BBX 26 13 1 -2
BITMAP
ffffffc0
80000040
80000040
9dbfef40
91a48940
91a48940
9da4ee40
91648940
91648940
9d64e940
80000040
80000040
ffffffc0
ENDCHAR
STARTCHAR EscapeKey
ENCODING 244
SWIDTH 2000 0
DWIDTH 34 0
BBX 32 13 1 -2
BITMAP
ffffffff
80000001
80000001
9ccc4739
913244a1
9110a4a1
9cd0a739
9030e421
91331421
9ccd1439
80000001
80000001
ffffffff
ENDCHAR
STARTCHAR OptionKey
ENCODING 245
SWIDTH 1869 0
DWIDTH 32 0
BBX 30 13 1 -2
BITMAP
fffffffc
80000004
80000004
99df4cd4
a52452d4
a52452d4
a5c452d4
a50452b4
a50452b4
99044cb4
80000004
80000004
fffffffc
ENDCHAR
STARTCHAR ReturnKey
ENCODING 246
SWIDTH 2015 0
DWIDTH 34 0
BBX 32 13 1 -2
BITMAP
ffffffff
80000001
80000001
9eff97b5
928494b5
928494b5
9ce49735
928494ad
928494ad
92e464ad
80000001
80000001
ffffffff
ENDCHAR
STARTCHAR ShiftKey
ENCODING 247
SWIDTH 1563 0
DWIDTH 27 0
BBX 25 13 1 -2
BITMAP
ffffff80
80000080
80000080
8e95fe80
92950880
90950880
8cf58880
82950880
92950880
8c950880
80000080
80000080
ffffff80
ENDCHAR
STARTCHAR SpaceKey
ENCODING 248
SWIDTH 1699 0
DWIDTH 29 0
BBX 27 13 1 -2
BITMAP
ffffffe0
80000020
80000020
8ee46720
92949420
909a8420
8cea8720
828e8420
92919420
8c916720
80000020
80000020
ffffffe0
ENDCHAR
STARTCHAR Mod1Key
ENCODING 249
SWIDTH 1543 0
DWIDTH 26 0
BBX 24 13 1 -2
BITMAP
ffffff
800001
800001
b199c5
b1a52d
aaa525
aaa525
aaa525
a4a525
a499c5
800001
800001
ffffff
ENDCHAR
STARTCHAR Mod2Key
ENCODING 250
SWIDTH 1655 0
DWIDTH 28 0
BBX 26 13 1 -2
BITMAP
ffffffc0
80000040
80000040
b199c740
b1a52940
aaa52140
aaa52240
aaa52440
a4a52840
a499cf40
80000040
80000040
ffffffc0
ENDCHAR
STARTCHAR RKeyBracket2
ENCODING 251
SWIDTH 245 0
DWIDTH 4 0
BBX 2 18 1 -5
BITMAP
c0
80
80
80
80
80
80
80
80
80
80
80
80
80
80
80
80
c0
ENDCHAR
STARTCHAR LUpHookExt
ENCODING 252
SWIDTH 533 0
DWIDTH 9 0
BBX 4 3 1 0
BITMAP
90
90
60
ENDCHAR
STARTCHAR RUpHookExt
ENCODING 253
SWIDTH 240 0
DWIDTH 9 0
BBX 4 3 4 0
BITMAP
90
90
60
ENDCHAR
STARTCHAR LDownHookExt
ENCODING 254
SWIDTH 240 0
DWIDTH 9 0
BBX 4 3 1 0
BITMAP
60
90
90
ENDCHAR
STARTCHAR RDownHookExt
ENCODING 255
SWIDTH 0 0
DWIDTH 9 0
BBX 4 3 4 0
BITMAP
60
90
90
ENDCHAR
ENDFONT
