STARTFONT 2.1
FONT -WRI-Mathematica4-Bold-R-Normal--34-340-75-75-p-250-Adobe-FontSpecific
SIZE 34 75 75
FONTBOUNDINGBOX 90 41 -2 -9
STARTPROPERTIES 16
FOUNDRY "WRI"
FAMILY_NAME "Mathematica4"
WEIGHT_NAME "Bold"
SLANT "R"
SETWIDTH_NAME "Normal"
PIXEL_SIZE 34
POINT_SIZE 340
RESOLUTION_X 75
RESOLUTION_Y 75
SPACING "p"
AVERAGE_WIDTH 250
CHARSET_REGISTRY "Adobe"
CHARSET_ENCODING "FontSpecific"
FONT_DESCENT 9
FONT_ASCENT 32
DEFAULT_CHAR 32
ENDPROPERTIES
CHARS 224
STARTCHAR Space
ENCODING 32
SWIDTH 189 0
DWIDTH 6 0
BBX 0 0 0 0
BITMAP
ENDCHAR
STARTCHAR RArrowBar
ENCODING 33
SWIDTH 962 0
DWIDTH 33 0
BBX 29 17 2 0
BITMAP
00002000
00007038
0000f838
00007838
00003c38
00001e38
00000f38
ffffffb8
fffffff8
ffffffb8
00000f38
00001e38
00003c38
00007838
0000f838
00007038
00002000
ENDCHAR
STARTCHAR LTackArrow
ENCODING 34
SWIDTH 922 0
DWIDTH 31 0
BBX 27 17 2 0
BITMAP
01000000
018000e0
03c000e0
078000e0
0f0000e0
1e0000e0
3e0000e0
7fffffe0
ffffffe0
7fffffe0
3e0000e0
1e0000e0
0f0000e0
078000e0
03c000e0
018000e0
01000000
ENDCHAR
STARTCHAR RTackArrow
ENCODING 35
SWIDTH 922 0
DWIDTH 31 0
BBX 28 17 2 0
BITMAP
00001000
e0001800
e0003c00
e0003e00
e0001f00
e0000f80
e00007c0
ffffffe0
fffffff0
ffffffe0
e00007c0
e0000f80
e0001f00
e0003e00
e0003c00
e0001800
00001000
ENDCHAR
STARTCHAR UpArrowBar
ENCODING 36
SWIDTH 590 0
DWIDTH 20 0
BBX 15 28 2 0
BITMAP
fffe
fffe
fffe
0100
0380
07c0
0fe0
1ff0
3ff8
7bbc
f39e
638c
0380
0380
0380
0380
0380
0380
0380
0380
0380
0380
0380
0380
0380
0380
0380
0380
ENDCHAR
STARTCHAR DownArrowBar
ENCODING 37
SWIDTH 590 0
DWIDTH 20 0
BBX 15 28 2 0
BITMAP
0380
0380
0380
0380
0380
0380
0380
0380
0380
0380
0380
0380
0380
0380
0380
0380
638c
f39e
7bbc
3ff8
1ff0
0fe0
07c0
0380
0100
fffe
fffe
fffe
ENDCHAR
STARTCHAR UpTackArrow
ENCODING 38
SWIDTH 591 0
DWIDTH 20 0
BBX 15 27 2 0
BITMAP
0100
0380
07c0
0fe0
1ff0
3ff8
7bbc
f39e
638c
2384
0380
0380
0380
0380
0380
0380
0380
0380
0380
0380
0380
0380
0380
0380
fffe
fffe
fffe
ENDCHAR
STARTCHAR DownTackArrow
ENCODING 39
SWIDTH 591 0
DWIDTH 20 0
BBX 15 27 2 0
BITMAP
fffe
fffe
fffe
0380
0380
0380
0380
0380
0380
0380
0380
0380
0380
0380
0380
0380
0380
2384
638c
f39e
7bbc
3ff8
1ff0
0fe0
07c0
0380
0100
ENDCHAR
STARTCHAR LVectorBar
ENCODING 40
SWIDTH 982 0
DWIDTH 33 0
BBX 30 16 2 1
BITMAP
00080000
e0180000
e03c0000
e07c0000
e0f80000
e1f00000
e3e00000
e7fffffc
effffffc
fffffffc
e0000000
e0000000
e0000000
e0000000
e0000000
e0000000
ENDCHAR
STARTCHAR RVectorBar
ENCODING 41
SWIDTH 982 0
DWIDTH 33 0
BBX 29 16 2 1
BITMAP
00004000
0000c038
0001e038
0000f038
00007838
00007c38
00003e38
ffffff38
ffffffb8
fffffff8
00000038
00000038
00000038
00000038
00000038
00000038
ENDCHAR
STARTCHAR DownLVectorBar
ENCODING 42
SWIDTH 982 0
DWIDTH 33 0
BBX 30 16 2 0
BITMAP
e0000000
e0000000
e0000000
e0000000
e0000000
e0000000
fffffffc
effffffc
e7fffffc
e3e00000
e1f00000
e0f80000
e07c0000
e03c0000
e0180000
00080000
ENDCHAR
STARTCHAR DownRVectorBar
ENCODING 43
SWIDTH 982 0
DWIDTH 33 0
BBX 29 16 2 0
BITMAP
00000038
00000038
00000038
00000038
00000038
00000038
fffffff8
ffffffb8
ffffff38
00003e38
00007c38
00007838
0000f038
0001e038
0000c038
00004000
ENDCHAR
STARTCHAR LTackVector
ENCODING 44
SWIDTH 941 0
DWIDTH 32 0
BBX 27 16 3 1
BITMAP
00800000
01c000e0
03c000e0
07c000e0
0f8000e0
1f0000e0
1e0000e0
3fffffe0
7fffffe0
ffffffe0
000000e0
000000e0
000000e0
000000e0
000000e0
000000e0
ENDCHAR
STARTCHAR RTackVector
ENCODING 45
SWIDTH 941 0
DWIDTH 32 0
BBX 28 16 2 1
BITMAP
00001000
e0003000
e0007800
e0003c00
e0001e00
e0001f00
e0000f80
ffffffc0
ffffffe0
fffffff0
e0000000
e0000000
e0000000
e0000000
e0000000
e0000000
ENDCHAR
STARTCHAR DownLTackVector
ENCODING 46
SWIDTH 941 0
DWIDTH 32 0
BBX 27 16 3 0
BITMAP
000000e0
000000e0
000000e0
000000e0
000000e0
000000e0
ffffffe0
7fffffe0
3fffffe0
1e0000e0
1f0000e0
0f8000e0
07c000e0
03c000e0
01c000e0
00800000
ENDCHAR
STARTCHAR DownRTackVector
ENCODING 47
SWIDTH 941 0
DWIDTH 32 0
BBX 28 16 2 0
BITMAP
e0000000
e0000000
e0000000
e0000000
e0000000
e0000000
fffffff0
ffffffe0
ffffffc0
e0000f80
e0001f00
e0001e00
e0003c00
e0007800
e0003000
00001000
ENDCHAR
STARTCHAR LVector
ENCODING 48
SWIDTH 887 0
DWIDTH 30 0
BBX 26 10 3 7
BITMAP
00800000
01c00000
03c00000
07c00000
0f800000
0f000000
1e000000
3fffffc0
7fffffc0
ffffffc0
ENDCHAR
STARTCHAR RVector
ENCODING 49
SWIDTH 887 0
DWIDTH 30 0
BBX 26 10 2 7
BITMAP
00004000
0000e000
0000f000
0000f800
00007c00
00003c00
00001e00
ffffff00
ffffff80
ffffffc0
ENDCHAR
STARTCHAR LRVector
ENCODING 50
SWIDTH 1068 0
DWIDTH 36 0
BBX 31 10 3 7
BITMAP
00800200
01c00700
03c00780
07c007c0
0f8003e0
0f0001e0
1e0000f0
3ffffff8
7ffffffc
fffffffe
ENDCHAR
STARTCHAR DownLVector
ENCODING 51
SWIDTH 887 0
DWIDTH 30 0
BBX 26 10 3 0
BITMAP
ffffffc0
7fffffc0
3fffffc0
1e000000
0f000000
0f800000
07c00000
03c00000
01c00000
00800000
ENDCHAR
STARTCHAR DownRVector
ENCODING 52
SWIDTH 887 0
DWIDTH 30 0
BBX 26 10 2 0
BITMAP
ffffffc0
ffffff80
ffffff00
00001e00
00003c00
00007c00
0000f800
0000f000
0000e000
00004000
ENDCHAR
STARTCHAR DownLRVector
ENCODING 53
SWIDTH 1068 0
DWIDTH 36 0
BBX 31 10 3 0
BITMAP
fffffffe
7ffffffc
3ffffff8
1e0000f0
0f0001e0
0f8003e0
07c007c0
03c00780
01c00700
00800200
ENDCHAR
STARTCHAR LUpDownVector
ENCODING 54
SWIDTH 422 0
DWIDTH 14 0
BBX 9 32 3 0
BITMAP
0080
0180
0380
0780
0f80
1f80
3f80
7f80
fb80
e380
4380
0380
0380
0380
0380
0380
0380
0380
0380
0380
0380
4380
e380
fb80
7f80
3f80
1f80
0f80
0780
0380
0180
0080
ENDCHAR
STARTCHAR RUpDownVector
ENCODING 55
SWIDTH 422 0
DWIDTH 14 0
BBX 9 32 3 0
BITMAP
8000
8000
c000
e000
f000
f800
fc00
fe00
ef00
e780
e200
e000
e000
e000
e000
e000
e000
e000
e000
e000
e000
e200
e780
ef00
fe00
fc00
f800
f000
e000
c000
8000
8000
ENDCHAR
STARTCHAR LUpVectorBar
ENCODING 56
SWIDTH 590 0
DWIDTH 20 0
BBX 15 29 2 0
BITMAP
fffe
fffe
fffe
0040
0080
0180
0380
0780
0f80
1f80
3f80
7b80
f380
6380
0380
0380
0380
0380
0380
0380
0380
0380
0380
0380
0380
0380
0380
0380
0380
ENDCHAR
STARTCHAR LDownVectorBar
ENCODING 57
SWIDTH 590 0
DWIDTH 20 0
BBX 15 29 2 0
BITMAP
0380
0380
0380
0380
0380
0380
0380
0380
0380
0380
0380
0380
0380
0380
0380
6380
f380
7b80
3f80
1f80
0f80
0780
0380
0180
0080
0040
fffe
fffe
fffe
ENDCHAR
STARTCHAR RUpVectorBar
ENCODING 58
SWIDTH 590 0
DWIDTH 20 0
BBX 15 29 2 0
BITMAP
fffe
fffe
fffe
0200
0200
0300
0380
03c0
03e0
03f0
03f8
03bc
039e
038c
0380
0380
0380
0380
0380
0380
0380
0380
0380
0380
0380
0380
0380
0380
0380
ENDCHAR
STARTCHAR RDownVectorBar
ENCODING 59
SWIDTH 590 0
DWIDTH 20 0
BBX 15 29 2 0
BITMAP
0380
0380
0380
0380
0380
0380
0380
0380
0380
0380
0380
0380
0380
0380
0380
038c
039e
03bc
03f8
03f0
03e0
03c0
0380
0300
0200
0200
fffe
fffe
fffe
ENDCHAR
STARTCHAR LUpTackVector
ENCODING 60
SWIDTH 590 0
DWIDTH 20 0
BBX 15 28 2 0
BITMAP
0040
0080
0180
0380
0780
0f80
1f80
3f80
7b80
f380
6380
0380
0380
0380
0380
0380
0380
0380
0380
0380
0380
0380
0380
0380
0380
fffe
fffe
fffe
ENDCHAR
STARTCHAR LDownTackVector
ENCODING 61
SWIDTH 590 0
DWIDTH 20 0
BBX 15 28 2 0
BITMAP
fffe
fffe
fffe
0380
0380
0380
0380
0380
0380
0380
0380
0380
0380
0380
0380
0380
0380
6380
f380
7b80
3f80
1f80
0f80
0780
0380
0180
0080
0040
ENDCHAR
STARTCHAR RUpTackVector
ENCODING 62
SWIDTH 590 0
DWIDTH 20 0
BBX 15 28 2 0
BITMAP
0200
0200
0300
0380
03c0
03e0
03f0
03f8
03bc
039e
038c
0380
0380
0380
0380
0380
0380
0380
0380
0380
0380
0380
0380
0380
0380
fffe
fffe
fffe
ENDCHAR
STARTCHAR RDownTackVector
ENCODING 63
SWIDTH 590 0
DWIDTH 20 0
BBX 15 28 2 0
BITMAP
fffe
fffe
fffe
0380
0380
0380
0380
0380
0380
0380
0380
0380
0380
0380
0380
0380
0380
038c
039e
03bc
03f8
03f0
03e0
03c0
0380
0300
0200
0200
ENDCHAR
STARTCHAR LUpVector
ENCODING 64
SWIDTH 421 0
DWIDTH 14 0
BBX 9 26 3 0
BITMAP
0080
0180
0380
0780
0f80
1f80
3f80
7f80
fb80
f380
4380
0380
0380
0380
0380
0380
0380
0380
0380
0380
0380
0380
0380
0380
0380
0380
ENDCHAR
STARTCHAR ExtensUp1
ENCODING 65
SWIDTH 590 0
DWIDTH 20 0
BBX 3 12 8 0
BITMAP
e0
e0
e0
e0
e0
e0
e0
e0
e0
e0
e0
e0
ENDCHAR
STARTCHAR LDownVector
ENCODING 66
SWIDTH 421 0
DWIDTH 14 0
BBX 9 26 3 0
BITMAP
0380
0380
0380
0380
0380
0380
0380
0380
0380
0380
0380
0380
0380
0380
0380
4380
f380
fb80
7f80
3f80
1f80
0f80
0780
0380
0180
0080
ENDCHAR
STARTCHAR RUpVector
ENCODING 67
SWIDTH 422 0
DWIDTH 14 0
BBX 9 26 3 0
BITMAP
8000
8000
c000
e000
f000
f800
fc00
fe00
ef00
e780
e300
e000
e000
e000
e000
e000
e000
e000
e000
e000
e000
e000
e000
e000
e000
e000
ENDCHAR
STARTCHAR ExtensUp2
ENCODING 68
SWIDTH 422 0
DWIDTH 14 0
BBX 3 12 3 0
BITMAP
e0
e0
e0
e0
e0
e0
e0
e0
e0
e0
e0
e0
ENDCHAR
STARTCHAR RDownVector
ENCODING 69
SWIDTH 422 0
DWIDTH 14 0
BBX 9 26 3 0
BITMAP
e000
e000
e000
e000
e000
e000
e000
e000
e000
e000
e000
e000
e000
e000
e000
e300
e780
ef00
fe00
fc00
f800
f000
e000
c000
8000
8000
ENDCHAR
STARTCHAR Equilibrium
ENCODING 70
SWIDTH 903 0
DWIDTH 31 0
BBX 25 25 3 -4
BITMAP
00008000
0001c000
0001e000
0000f000
0000f800
00007c00
00003c00
fffffe00
ffffff00
ffffff80
00000000
00000000
00000000
00000000
00000000
ffffff80
7fffff80
3fffff80
1e000000
1f000000
0f800000
07800000
03c00000
01c00000
00800000
ENDCHAR
STARTCHAR RvrsEquilibrium
ENCODING 71
SWIDTH 903 0
DWIDTH 31 0
BBX 25 25 3 -4
BITMAP
00800000
01c00000
03c00000
07800000
0f800000
1f000000
1e000000
3fffff80
7fffff80
ffffff80
00000000
00000000
00000000
00000000
00000000
ffffff80
ffffff00
fffffe00
00003c00
00007c00
0000f800
0000f000
0001e000
0001c000
00008000
ENDCHAR
STARTCHAR EquilbrmHeadL
ENCODING 72
SWIDTH 388 0
DWIDTH 13 0
BBX 11 18 2 -4
BITMAP
7fe0
7fe0
7fe0
0000
0000
0000
0000
0000
ffe0
3fe0
3fe0
1f00
0f80
0780
03c0
01e0
00c0
0040
ENDCHAR
STARTCHAR EquilbrmheadR
ENCODING 73
SWIDTH 388 0
DWIDTH 13 0
BBX 11 18 0 3
BITMAP
4000
6000
f000
7800
3c00
3e00
1f00
ff80
ffc0
ffe0
0000
0000
0000
0000
0000
ffc0
ffc0
ffc0
ENDCHAR
STARTCHAR RvrsEquilbrmHeadL
ENCODING 74
SWIDTH 388 0
DWIDTH 13 0
BBX 11 18 2 3
BITMAP
0040
00c0
01e0
03c0
0780
0f80
1f00
3fe0
3fe0
ffe0
0000
0000
0000
0000
0000
7fe0
7fe0
7fe0
ENDCHAR
STARTCHAR RvrsEquilbrmHeadR
ENCODING 75
SWIDTH 388 0
DWIDTH 13 0
BBX 11 18 0 -4
BITMAP
ffc0
ffc0
ffc0
0000
0000
0000
0000
0000
ffe0
ffc0
ff80
1f00
3e00
3c00
7800
f000
6000
4000
ENDCHAR
STARTCHAR UpEquilibrium
ENCODING 76
SWIDTH 833 0
DWIDTH 28 0
BBX 24 26 2 0
BITMAP
004000
0081c0
0181c0
0381c0
0781c0
0f81c0
1f81c0
3f81c0
fb81c0
7381c0
2381c0
0381c0
0381c0
0381c0
0381c0
0381c2
0381c7
0381df
0381fe
0381fc
0381f8
0381f0
0381e0
0381c0
038180
000100
ENDCHAR
STARTCHAR RvrsUpEquilibrium
ENCODING 77
SWIDTH 834 0
DWIDTH 28 0
BBX 24 26 2 0
BITMAP
000100
038180
0381c0
0381e0
0381f0
0381f8
0381fc
0381fe
0381df
0381c7
0381c2
0381c0
0381c0
0381c0
0381c0
2381c0
7381c0
fb81c0
3f81c0
1f81c0
0f81c0
0781c0
0381c0
0181c0
0081c0
004000
ENDCHAR
STARTCHAR LArrowHookUp
ENCODING 78
SWIDTH 870 0
DWIDTH 30 0
BBX 25 18 2 0
BITMAP
00003c00
01003e00
03803f00
07800780
07000380
0f000380
1e000380
3c000780
7fffff00
ffffff00
7ffffc00
3c000000
1e000000
0f000000
07800000
07800000
03800000
01000000
ENDCHAR
STARTCHAR RArrowHookUp
ENCODING 79
SWIDTH 870 0
DWIDTH 30 0
BBX 26 18 2 0
BITMAP
1e000000
3e004000
7e006000
f800f000
e0007800
e0003c00
e0003e00
f0001f00
7fffff80
7fffffc0
1fffff80
00001f00
00003e00
00003c00
00007800
0000f000
00006000
00004000
ENDCHAR
STARTCHAR LArrow
ENCODING 80
SWIDTH 870 0
DWIDTH 30 0
BBX 26 17 2 0
BITMAP
00800000
01800000
03c00000
07800000
0f000000
1e000000
3e000000
7fffffc0
ffffffc0
7fffffc0
3e000000
1e000000
0f000000
07800000
03c00000
01800000
00800000
ENDCHAR
STARTCHAR Extens
ENCODING 81
SWIDTH 364 0
DWIDTH 12 0
BBX 13 3 0 7
BITMAP
fff8
fff8
fff8
ENDCHAR
STARTCHAR LeftTackBase
ENCODING 82
SWIDTH 246 0
DWIDTH 8 0
BBX 6 15 0 1
BITMAP
1c
1c
1c
1c
1c
1c
fc
fc
fc
1c
1c
1c
1c
1c
1c
ENDCHAR
STARTCHAR RightTackBase
ENCODING 83
SWIDTH 246 0
DWIDTH 8 0
BBX 6 15 2 1
BITMAP
e0
e0
e0
e0
e0
e0
fc
fc
fc
e0
e0
e0
e0
e0
e0
ENDCHAR
STARTCHAR RArrow
ENCODING 84
SWIDTH 870 0
DWIDTH 30 0
BBX 26 17 2 0
BITMAP
00002000
00006000
0000f000
00007800
00003c00
00001e00
00001f00
ffffff80
ffffffc0
ffffff80
00001f00
00001e00
00003c00
00007800
0000f000
00006000
00002000
ENDCHAR
STARTCHAR RUpVector2
ENCODING 85
SWIDTH 590 0
DWIDTH 20 0
BBX 9 26 8 0
BITMAP
8000
c000
e000
f000
f800
fc00
fe00
ff00
ef80
e780
e100
e000
e000
e000
e000
e000
e000
e000
e000
e000
e000
e000
e000
e000
e000
e000
ENDCHAR
STARTCHAR RArrowLArrow
ENCODING 86
SWIDTH 861 0
DWIDTH 29 0
BBX 26 21 2 -2
BITMAP
00001000
00003800
00003c00
00001e00
00001f00
7fffff80
7fffffc0
7fffff80
00001f00
06003e00
0f003c00
1f001800
3e000000
7fffff80
ffffff80
7fffff80
3e000000
1e000000
0f000000
07000000
02000000
ENDCHAR
STARTCHAR LArrowRArrow
ENCODING 87
SWIDTH 861 0
DWIDTH 29 0
BBX 26 21 2 -2
BITMAP
02000000
07000000
0f000000
1e000000
3e000000
7fffff80
ffffff80
7fffff80
3e000000
1f001800
0f003c00
06003e00
00001f00
7fffff80
7fffffc0
7fffff80
00001f00
00001e00
00003c00
00003800
00001000
ENDCHAR
STARTCHAR RArrowLArrowHeadL
ENCODING 88
SWIDTH 297 0
DWIDTH 10 0
BBX 8 16 2 -2
BITMAP
7f
7f
7f
00
06
0f
1e
3c
7f
ff
7f
3c
1e
0f
06
02
ENDCHAR
STARTCHAR RArrowLArrowHeadR
ENCODING 89
SWIDTH 297 0
DWIDTH 10 0
BBX 8 16 0 3
BITMAP
20
60
f0
78
3c
fe
ff
fe
3c
78
f0
60
00
fe
fe
fe
ENDCHAR
STARTCHAR LArrowRArrowHeadL
ENCODING 90
SWIDTH 297 0
DWIDTH 10 0
BBX 8 16 2 3
BITMAP
02
06
0f
1e
3c
7f
ff
7f
3c
1e
0f
06
00
7f
7f
7f
ENDCHAR
STARTCHAR LArrowRArrowHeadR
ENCODING 91
SWIDTH 297 0
DWIDTH 10 0
BBX 8 16 0 -2
BITMAP
fe
fe
fe
00
60
f0
78
3c
fe
ff
fe
3c
78
f0
60
20
ENDCHAR
STARTCHAR UpArrowDownArrow
ENCODING 92
SWIDTH 720 0
DWIDTH 24 0
BBX 19 25 3 0
BITMAP
040000
0e0e00
1f0e00
3f8e00
7fce00
ffee00
eeee00
4e4e00
0e0e00
0e0e00
0e0e00
0e0e00
0e0e00
0e0e00
0e0e00
0e0e00
0e0e00
0e4e40
0eeee0
0effe0
0e7fc0
0e3f80
0e1f00
0e0e00
000400
ENDCHAR
STARTCHAR DownArrowUpArrow
ENCODING 93
SWIDTH 720 0
DWIDTH 24 0
BBX 19 25 3 0
BITMAP
000400
0e0e00
0e1f00
0e3f80
0e7fc0
0effe0
0eeee0
0e4e40
0e0e00
0e0e00
0e0e00
0e0e00
0e0e00
0e0e00
0e0e00
0e0e00
0e0e00
4e4e00
eeee00
ffee00
7fce00
3f8e00
1f0e00
0e0e00
040000
ENDCHAR
STARTCHAR VertExt1
ENCODING 94
SWIDTH 87 0
DWIDTH 3 0
BBX 3 7 0 0
BITMAP
e0
e0
e0
e0
e0
e0
e0
ENDCHAR
STARTCHAR HorizExt1
ENCODING 95
SWIDTH 200 0
DWIDTH 7 0
BBX 7 3 0 0
BITMAP
fe
fe
fe
ENDCHAR
STARTCHAR UpArrow
ENCODING 96
SWIDTH 590 0
DWIDTH 20 0
BBX 16 25 2 0
BITMAP
0100
0380
07c0
0ff0
1ff8
3ffc
7bbe
f39f
6386
0380
0380
0380
0380
0380
0380
0380
0380
0380
0380
0380
0380
0380
0380
0380
0380
ENDCHAR
STARTCHAR UpTackBase
ENCODING 97
SWIDTH 590 0
DWIDTH 20 0
BBX 15 6 2 0
BITMAP
0380
0380
0380
fffe
fffe
fffe
ENDCHAR
STARTCHAR DownTackBase
ENCODING 98
SWIDTH 590 0
DWIDTH 20 0
BBX 15 6 2 0
BITMAP
fffe
fffe
fffe
0380
0380
0380
ENDCHAR
STARTCHAR DownArrow
ENCODING 99
SWIDTH 590 0
DWIDTH 20 0
BBX 16 25 2 0
BITMAP
0380
0380
0380
0380
0380
0380
0380
0380
0380
0380
0380
0380
0380
0380
0380
0380
6386
f39f
7bbe
3ffc
1ff8
0ff0
07c0
0380
0100
ENDCHAR
STARTCHAR RDownVector2
ENCODING 100
SWIDTH 590 0
DWIDTH 20 0
BBX 9 26 8 0
BITMAP
e000
e000
e000
e000
e000
e000
e000
e000
e000
e000
e000
e000
e000
e000
e000
e100
e780
ef80
ff00
fe00
fc00
f800
f000
e000
c000
8000
ENDCHAR
STARTCHAR UpEquilbrmHeadBttm
ENCODING 101
SWIDTH 713 0
DWIDTH 24 0
BBX 18 10 4 0
BITMAP
e07080
e073c0
e077c0
e07f80
e07e00
e07c00
e07800
e07000
e06000
004000
ENDCHAR
STARTCHAR DblUpExtens2
ENCODING 102
SWIDTH 713 0
DWIDTH 24 0
BBX 12 12 4 0
BITMAP
e070
e070
e070
e070
e070
e070
e070
e070
e070
e070
e070
e070
ENDCHAR
STARTCHAR RvrsUpEquilHdTop
ENCODING 103
SWIDTH 713 0
DWIDTH 24 0
BBX 18 11 4 0
BITMAP
004000
e06000
e07000
e07800
e07c00
e07e00
e07f00
e07f80
e077c0
e071c0
e07080
ENDCHAR
STARTCHAR UpEquilbrmHeadTop
ENCODING 104
SWIDTH 726 0
DWIDTH 25 0
BBX 17 11 1 0
BITMAP
008000
018380
038380
078380
0f8380
1f8380
3f8380
7f8380
fb8380
e38380
438380
ENDCHAR
STARTCHAR DblUpExtens1
ENCODING 105
SWIDTH 726 0
DWIDTH 25 0
BBX 11 12 7 0
BITMAP
e0e0
e0e0
e0e0
e0e0
e0e0
e0e0
e0e0
e0e0
e0e0
e0e0
e0e0
e0e0
ENDCHAR
STARTCHAR RvrsUpEquilibrmHdBttm
ENCODING 106
SWIDTH 727 0
DWIDTH 25 0
BBX 17 10 1 0
BITMAP
438380
f38380
fb8380
7f8380
1f8380
0f8380
078380
038380
018380
008000
ENDCHAR
STARTCHAR UpArrwDwnArrwBttm
ENCODING 107
SWIDTH 726 0
DWIDTH 25 0
BBX 15 7 7 0
BITMAP
e4e4
eeee
effe
e7fc
e1f0
e0e0
0040
ENDCHAR
STARTCHAR DwnArrwUpArrwTop
ENCODING 108
SWIDTH 726 0
DWIDTH 25 0
BBX 15 8 7 0
BITMAP
0040
e0e0
e1f0
e3f8
e7fc
effe
eeee
e4e4
ENDCHAR
STARTCHAR UpArrwDwnArrwTop
ENCODING 109
SWIDTH 726 0
DWIDTH 25 0
BBX 15 8 3 0
BITMAP
0400
0e0e
1f0e
3f8e
7fce
ffee
eeee
4e4e
ENDCHAR
STARTCHAR DwnArrwUpArrwBttm
ENCODING 110
SWIDTH 726 0
DWIDTH 25 0
BBX 15 7 3 0
BITMAP
4e4e
eeee
ffee
7fce
1f0e
0e0e
0400
ENDCHAR
STARTCHAR DblExtens
ENCODING 111
SWIDTH 364 0
DWIDTH 12 0
BBX 13 11 0 3
BITMAP
fff8
fff8
fff8
0000
0000
0000
0000
0000
fff8
fff8
fff8
ENDCHAR
STARTCHAR OverBracket1
ENCODING 112
SWIDTH 800 0
DWIDTH 27 0
BBX 27 6 0 0
BITMAP
ffffffe0
ffffffe0
ffffffe0
c0000060
80000020
80000020
ENDCHAR
STARTCHAR OverBracket2
ENCODING 113
SWIDTH 1050 0
DWIDTH 36 0
BBX 36 6 0 0
BITMAP
fffffffff0
fffffffff0
fffffffff0
c000000030
8000000010
8000000010
ENDCHAR
STARTCHAR OverBracket3
ENCODING 114
SWIDTH 1400 0
DWIDTH 48 0
BBX 48 6 0 0
BITMAP
ffffffffffff
ffffffffffff
ffffffffffff
c00000000003
800000000001
800000000001
ENDCHAR
STARTCHAR OverBracket4
ENCODING 115
SWIDTH 1750 0
DWIDTH 60 0
BBX 60 6 0 0
BITMAP
fffffffffffffff0
fffffffffffffff0
fffffffffffffff0
c000000000000030
8000000000000010
8000000000000010
ENDCHAR
STARTCHAR OverBracketExt1
ENCODING 116
SWIDTH 200 0
DWIDTH 7 0
BBX 7 6 0 0
BITMAP
fe
fe
fe
c0
80
80
ENDCHAR
STARTCHAR OverBracketExt2
ENCODING 117
SWIDTH 200 0
DWIDTH 7 0
BBX 7 3 0 2
BITMAP
fe
fe
fe
ENDCHAR
STARTCHAR OverBracketExt3
ENCODING 118
SWIDTH 200 0
DWIDTH 7 0
BBX 7 6 0 0
BITMAP
fe
fe
fe
06
02
02
ENDCHAR
STARTCHAR ShortUpArrow
ENCODING 119
SWIDTH 591 0
DWIDTH 20 0
BBX 15 18 3 0
BITMAP
0100
0380
07c0
0fe0
1ff0
3ff8
7bbc
f39e
e38e
2384
0380
0380
0380
0380
0380
0380
0380
0380
ENDCHAR
STARTCHAR ShortDownArrow
ENCODING 120
SWIDTH 591 0
DWIDTH 20 0
BBX 15 18 3 0
BITMAP
0380
0380
0380
0380
0380
0380
0380
0380
2384
e38e
f39e
7bbc
3ff8
1ff0
0fe0
07c0
0380
0100
ENDCHAR
STARTCHAR ShortLArrow
ENCODING 121
SWIDTH 652 0
DWIDTH 22 0
BBX 19 17 2 0
BITMAP
008000
018000
03c000
078000
0f0000
1f0000
3e0000
7fffe0
ffffe0
7fffe0
3e0000
1f0000
0f0000
078000
03c000
018000
008000
ENDCHAR
STARTCHAR ShortRArrow
ENCODING 122
SWIDTH 652 0
DWIDTH 22 0
BBX 19 17 2 0
BITMAP
002000
003000
007800
003c00
001e00
001f00
000f80
ffffc0
ffffe0
ffffc0
000f80
001f00
001e00
003c00
007800
003000
002000
ENDCHAR
STARTCHAR LArrowBar
ENCODING 123
SWIDTH 962 0
DWIDTH 33 0
BBX 29 17 2 0
BITMAP
00200000
e0700000
e0f80000
e0f00000
e1e00000
e3c00000
e7800000
effffff8
fffffff8
effffff8
e7800000
e3c00000
e1e00000
e0f00000
e0f80000
e0700000
00200000
ENDCHAR
STARTCHAR Dash
ENCODING 124
SWIDTH 390 0
DWIDTH 13 0
BBX 10 3 1 7
BITMAP
ffc0
ffc0
ffc0
ENDCHAR
STARTCHAR LongDash
ENCODING 125
SWIDTH 545 0
DWIDTH 19 0
BBX 17 3 1 7
BITMAP
ffff80
ffff80
ffff80
ENDCHAR
STARTCHAR DivisionBarExtens
ENCODING 126
SWIDTH 1010 0
DWIDTH 34 0
BBX 32 3 1 7
BITMAP
ffffffff
ffffffff
ffffffff
ENDCHAR
STARTCHAR DEL
ENCODING 127
SWIDTH 189 0
DWIDTH 6 0
BBX 0 0 0 0
BITMAP
ENDCHAR
STARTCHAR UnderBracket1
ENCODING 128
SWIDTH 800 0
DWIDTH 27 0
BBX 27 6 0 0
BITMAP
80000020
80000020
c0000060
ffffffe0
ffffffe0
ffffffe0
ENDCHAR
STARTCHAR UnderBracket2
ENCODING 129
SWIDTH 1050 0
DWIDTH 36 0
BBX 36 6 0 0
BITMAP
8000000010
8000000010
c000000030
fffffffff0
fffffffff0
fffffffff0
ENDCHAR
STARTCHAR UnderBracket3
ENCODING 130
SWIDTH 1400 0
DWIDTH 48 0
BBX 48 6 0 0
BITMAP
800000000001
800000000001
c00000000003
ffffffffffff
ffffffffffff
ffffffffffff
ENDCHAR
STARTCHAR UnderBracket4
ENCODING 131
SWIDTH 1750 0
DWIDTH 60 0
BBX 60 6 0 0
BITMAP
8000000000000010
8000000000000010
c000000000000030
fffffffffffffff0
fffffffffffffff0
fffffffffffffff0
ENDCHAR
STARTCHAR UnderBracketExt1
ENCODING 132
SWIDTH 200 0
DWIDTH 7 0
BBX 7 6 0 0
BITMAP
80
80
c0
fe
fe
fe
ENDCHAR
STARTCHAR UnderBracketExt2
ENCODING 133
SWIDTH 200 0
DWIDTH 7 0
BBX 7 3 0 0
BITMAP
fe
fe
fe
ENDCHAR
STARTCHAR UnderBracketExt3
ENCODING 134
SWIDTH 200 0
DWIDTH 7 0
BBX 7 6 0 0
BITMAP
02
02
06
fe
fe
fe
ENDCHAR
STARTCHAR LowerLeftArrow
ENCODING 135
SWIDTH 755 0
DWIDTH 26 0
BBX 21 21 2 0
BITMAP
000010
000038
000078
0000f0
0001e0
0003c0
000f80
001f00
003e00
007c00
e0f800
e1f000
e3e000
e78000
ef0000
fe0000
fc0000
f80000
ffe000
ffe000
ffe000
ENDCHAR
STARTCHAR UpperLeftArrow
ENCODING 136
SWIDTH 755 0
DWIDTH 26 0
BBX 21 21 2 0
BITMAP
ffe000
ffe000
ffe000
fc0000
fe0000
ff0000
ef8000
e7c000
e1e000
e0f000
e07800
003c00
001e00
000f00
000780
0003c0
0001e0
0000f0
000078
000038
000010
ENDCHAR
STARTCHAR UpperRightArrow
ENCODING 137
SWIDTH 755 0
DWIDTH 26 0
BBX 21 21 3 0
BITMAP
003ff8
003ff8
003ff8
0001f8
0003f8
0007b8
000f38
001e38
003c38
007838
00f038
01e000
03c000
078000
0f0000
1e0000
3c0000
780000
f00000
e00000
400000
ENDCHAR
STARTCHAR LowerRightArrow
ENCODING 138
SWIDTH 755 0
DWIDTH 26 0
BBX 21 21 3 0
BITMAP
400000
e00000
f00000
780000
3c0000
1e0000
0f0000
078000
03c000
01e000
00f838
007c38
003e38
001f38
000fb8
0007f8
0003f8
0001f8
003ff8
003ff8
003ff8
ENDCHAR
STARTCHAR LongLowerLeftArrow
ENCODING 139
SWIDTH 1208 0
DWIDTH 41 0
BBX 37 37 2 -7
BITMAP
0000000010
0000000038
0000000078
00000000f0
00000001e0
00000003c0
0000000780
0000000f00
0000001e00
0000003c00
0000007800
000001f000
000003e000
000007c000
00000f8000
00001f0000
00003e0000
00007c0000
0000f80000
0001f00000
0003e00000
0007c00000
000f800000
001f000000
003e000000
0078000000
e0f0000000
e1e0000000
e3c0000000
e780000000
ef00000000
fe00000000
fc00000000
f800000000
ffe0000000
ffe0000000
ffe0000000
ENDCHAR
STARTCHAR LongUpperLeftArrow
ENCODING 140
SWIDTH 1208 0
DWIDTH 41 0
BBX 37 37 2 -7
BITMAP
ffe0000000
ffe0000000
ffe0000000
fc00000000
fe00000000
ff00000000
ef80000000
e7c0000000
e3e0000000
e1f0000000
e0f8000000
007c000000
001e000000
000f000000
0007800000
0003c00000
0001e00000
0000f00000
0000780000
00003c0000
00001e0000
00000f0000
0000078000
000003c000
000001e000
000000f000
0000007800
0000003c00
0000001e00
0000000f00
0000000780
00000003c0
00000001e0
00000000f0
0000000078
0000000038
0000000010
ENDCHAR
STARTCHAR LongUpperRightArrow
ENCODING 141
SWIDTH 1208 0
DWIDTH 41 0
BBX 36 37 3 -7
BITMAP
0000007ff0
0000007ff0
0000007ff0
00000003f0
00000007f0
0000000f70
0000001e70
0000003c70
0000007870
000000f070
000001e070
000003c000
0000078000
00000f0000
00001e0000
00003c0000
00007c0000
0000f80000
0001f00000
0003e00000
0007c00000
000f800000
001f000000
003e000000
007c000000
00f8000000
00f0000000
01e0000000
03c0000000
0780000000
0f00000000
1e00000000
3c00000000
7800000000
f000000000
e000000000
4000000000
ENDCHAR
STARTCHAR LongLowerRightArrow
ENCODING 142
SWIDTH 1208 0
DWIDTH 41 0
BBX 36 37 3 -7
BITMAP
4000000000
e000000000
f000000000
7800000000
3c00000000
1e00000000
0f00000000
0780000000
03c0000000
01e0000000
00f0000000
0078000000
003c000000
001e000000
000f000000
0007800000
0003c00000
0001e00000
0000f00000
0000f80000
00007c0000
00003e0000
00001f0000
00000f8000
000007c000
000003e000
000001f070
000000f870
0000007c70
0000003e70
0000001f70
0000000ff0
00000007f0
00000003f0
0000007ff0
0000007ff0
0000007ff0
ENDCHAR
STARTCHAR Arrowhead
ENCODING 143
SWIDTH 450 0
DWIDTH 15 0
BBX 11 11 2 0
BITMAP
e000
e000
e000
e000
e000
e000
f000
f800
ffe0
ffe0
ffe0
ENDCHAR
STARTCHAR OverParen1
ENCODING 144
SWIDTH 700 0
DWIDTH 24 0
BBX 24 6 1 0
BITMAP
01ff00
0fffe0
3ffff8
70003c
c00006
800001
ENDCHAR
STARTCHAR OverParen2
ENCODING 145
SWIDTH 1050 0
DWIDTH 36 0
BBX 37 6 0 0
BITMAP
00fffff800
07ffffff00
1fffffffc0
3c000001e0
6000000030
8000000008
ENDCHAR
STARTCHAR OverParen3
ENCODING 146
SWIDTH 1400 0
DWIDTH 48 0
BBX 48 6 0 0
BITMAP
00ffffffff00
07ffffffffe0
1ffffffffff8
3c000000003c
600000000006
800000000001
ENDCHAR
STARTCHAR OverParen4
ENCODING 147
SWIDTH 1750 0
DWIDTH 60 0
BBX 60 6 0 0
BITMAP
00fffffffffff000
07fffffffffffe00
1fffffffffffff80
3c000000000003c0
6000000000000060
8000000000000010
ENDCHAR
STARTCHAR OverParenExt1
ENCODING 148
SWIDTH 330 0
DWIDTH 11 0
BBX 12 6 0 0
BITMAP
03f0
0ff0
1ff0
3800
4000
8000
ENDCHAR
STARTCHAR OverParenExt2
ENCODING 149
SWIDTH 200 0
DWIDTH 7 0
BBX 7 3 0 2
BITMAP
fe
fe
fe
ENDCHAR
STARTCHAR OverParenExt3
ENCODING 150
SWIDTH 330 0
DWIDTH 11 0
BBX 12 6 0 0
BITMAP
fc00
ff00
ff80
01c0
0020
0010
ENDCHAR
STARTCHAR OverBrace1
ENCODING 151
SWIDTH 700 0
DWIDTH 24 0
BBX 25 7 0 0
BITMAP
00080000
001c0000
1ffffc00
7ff7ff00
7fe3ff00
40000100
80000080
ENDCHAR
STARTCHAR OverBrace2
ENCODING 152
SWIDTH 1150 0
DWIDTH 39 0
BBX 40 7 0 0
BITMAP
0000080000
00003c0000
1ffffffff8
3ffffffffc
7fffc3fffe
4000000002
8000000001
ENDCHAR
STARTCHAR OverBrace3
ENCODING 153
SWIDTH 1500 0
DWIDTH 51 0
BBX 51 7 0 0
BITMAP
00000040000000
000000e0000000
1fffffffffff00
3fffffbfffff80
7fffff1fffffc0
40000000000060
80000000000020
ENDCHAR
STARTCHAR OverBrace4
ENCODING 154
SWIDTH 1850 0
DWIDTH 63 0
BBX 63 7 0 0
BITMAP
0000000100000000
0000000380000000
1ffffffffffffff0
3ffffffefffffff8
7ffffffc7ffffffc
c000000000000006
8000000000000002
ENDCHAR
STARTCHAR OverBraceExt1
ENCODING 155
SWIDTH 200 0
DWIDTH 7 0
BBX 7 5 0 0
BITMAP
0e
3e
7e
c0
80
ENDCHAR
STARTCHAR OverBraceExt2
ENCODING 156
SWIDTH 200 0
DWIDTH 7 0
BBX 7 3 0 2
BITMAP
fe
fe
fe
ENDCHAR
STARTCHAR OverBraceExt3
ENCODING 157
SWIDTH 347 0
DWIDTH 12 0
BBX 13 5 0 2
BITMAP
0200
0700
fff8
fdf8
f078
ENDCHAR
STARTCHAR OverBraceExt4
ENCODING 158
SWIDTH 200 0
DWIDTH 7 0
BBX 7 5 0 0
BITMAP
e0
f8
fc
06
02
ENDCHAR
STARTCHAR AngleArrowExt45
ENCODING 159
SWIDTH 308 0
DWIDTH 10 0
BBX 11 10 0 0
BITMAP
0080
01c0
03e0
0780
0f00
1e00
3c00
f800
7000
2000
ENDCHAR
STARTCHAR UnderParen1
ENCODING 160
SWIDTH 700 0
DWIDTH 24 0
BBX 24 6 1 0
BITMAP
800001
c00006
70003c
3ffff8
0fffe0
01ff00
ENDCHAR
STARTCHAR UnderParen2
ENCODING 161
SWIDTH 1050 0
DWIDTH 36 0
BBX 37 6 0 0
BITMAP
8000000008
6000000030
3c000001e0
1fffffffc0
07ffffff00
00fffff800
ENDCHAR
STARTCHAR UnderParen3
ENCODING 162
SWIDTH 1400 0
DWIDTH 48 0
BBX 48 6 0 0
BITMAP
800000000001
600000000006
3c000000003c
1ffffffffff8
07ffffffffe0
00ffffffff00
ENDCHAR
STARTCHAR UnderParen4
ENCODING 163
SWIDTH 1750 0
DWIDTH 60 0
BBX 60 6 0 0
BITMAP
8000000000000010
6000000000000060
3c000000000003c0
1fffffffffffff80
07fffffffffffe00
00fffffffffff000
ENDCHAR
STARTCHAR UnderParenExt1
ENCODING 164
SWIDTH 330 0
DWIDTH 11 0
BBX 12 6 0 0
BITMAP
8000
4000
3800
1ff0
0ff0
03f0
ENDCHAR
STARTCHAR UnderParenExt2
ENCODING 165
SWIDTH 200 0
DWIDTH 7 0
BBX 7 3 0 0
BITMAP
fe
fe
fe
ENDCHAR
STARTCHAR UnderParenExt3
ENCODING 166
SWIDTH 330 0
DWIDTH 11 0
BBX 12 6 0 0
BITMAP
0010
0020
01c0
ff80
ff00
fc00
ENDCHAR
STARTCHAR UnderBrace1
ENCODING 167
SWIDTH 700 0
DWIDTH 24 0
BBX 25 7 0 -2
BITMAP
80000080
40000100
7fe3ff00
7ff7ff00
1ffffc00
001c0000
00080000
ENDCHAR
STARTCHAR UnderBrace2
ENCODING 168
SWIDTH 1150 0
DWIDTH 39 0
BBX 40 7 0 -2
BITMAP
8000000001
4000000002
7fffc3fffe
3ffffffffc
1ffffffff8
00003c0000
0000080000
ENDCHAR
STARTCHAR UnderBrace3
ENCODING 169
SWIDTH 1500 0
DWIDTH 51 0
BBX 52 7 0 -2
BITMAP
80000000000010
c0000000000020
7fffff0fffffe0
3fffffffffffc0
1fffffffffff80
000000f0000000
00000020000000
ENDCHAR
STARTCHAR UnderBrace4
ENCODING 170
SWIDTH 1850 0
DWIDTH 63 0
BBX 63 7 0 -2
BITMAP
8000000000000002
c000000000000006
7ffffffc7ffffffc
3ffffffefffffff8
1ffffffffffffff0
0000000380000000
0000000100000000
ENDCHAR
STARTCHAR UnderBraceExt1
ENCODING 171
SWIDTH 200 0
DWIDTH 7 0
BBX 7 5 0 0
BITMAP
80
c0
7e
3e
0e
ENDCHAR
STARTCHAR UnderBraceExt2
ENCODING 172
SWIDTH 200 0
DWIDTH 7 0
BBX 7 3 0 0
BITMAP
fe
fe
fe
ENDCHAR
STARTCHAR UnderBraceExt3
ENCODING 173
SWIDTH 347 0
DWIDTH 12 0
BBX 13 5 0 -2
BITMAP
f878
fdf8
fff8
0700
0200
ENDCHAR
STARTCHAR UnderBraceExt4
ENCODING 174
SWIDTH 200 0
DWIDTH 7 0
BBX 7 5 0 0
BITMAP
02
06
fc
f8
e0
ENDCHAR
STARTCHAR AngleArrowExt135
ENCODING 175
SWIDTH 308 0
DWIDTH 10 0
BBX 11 10 0 0
BITMAP
2000
7000
f800
3c00
1e00
0f00
0780
03e0
01c0
0080
ENDCHAR
STARTCHAR OverWedge1
ENCODING 176
SWIDTH 700 0
DWIDTH 24 0
BBX 25 6 0 0
BITMAP
001c0000
01ffc000
0ffff800
ffe3ff80
fe003f80
c0000180
ENDCHAR
STARTCHAR OverWedge2
ENCODING 177
SWIDTH 1050 0
DWIDTH 36 0
BBX 37 6 0 0
BITMAP
0000f80000
001fffc000
03fffffe00
7ffe03fff0
ff80000ff8
e000000038
ENDCHAR
STARTCHAR OverWedge3
ENCODING 178
SWIDTH 1400 0
DWIDTH 48 0
BBX 48 6 0 0
BITMAP
00000ff00000
0003ffffc000
00ffffffff00
3fffe007fffc
fff000000fff
f0000000000f
ENDCHAR
STARTCHAR OverWedge4
ENCODING 179
SWIDTH 1750 0
DWIDTH 60 0
BBX 60 6 0 0
BITMAP
0000007fe0000000
00001fffff800000
001fffffffff8000
1fffff000fffff80
fffe00000007fff0
f8000000000001f0
ENDCHAR
STARTCHAR Ellipsis
ENCODING 180
SWIDTH 1000 0
DWIDTH 34 0
BBX 28 5 3 -1
BITMAP
700e00e0
f81f01f0
f81f01f0
f81f01f0
700e00e0
ENDCHAR
STARTCHAR CenterEllipsis
ENCODING 181
SWIDTH 1000 0
DWIDTH 34 0
BBX 28 5 3 6
BITMAP
700e00e0
f81f01f0
f81f01f0
f81f01f0
700e00e0
ENDCHAR
STARTCHAR VertEllipsis
ENCODING 182
SWIDTH 279 0
DWIDTH 9 0
BBX 5 28 2 -1
BITMAP
70
f8
f8
f8
70
00
00
00
00
00
00
00
70
f8
f8
f8
70
00
00
00
00
00
00
70
f8
f8
f8
70
ENDCHAR
STARTCHAR DiagEllipsis
ENCODING 183
SWIDTH 713 0
DWIDTH 24 0
BBX 22 20 1 1
BITMAP
000038
00007c
00007c
00007c
000038
000000
000000
007000
00f800
00f800
00f800
007000
000000
000000
000000
700000
f80000
f80000
f80000
700000
ENDCHAR
STARTCHAR BackDiagEllipsis
ENCODING 184
SWIDTH 713 0
DWIDTH 24 0
BBX 22 20 1 1
BITMAP
700000
f80000
f80000
f80000
700000
000000
000000
007000
00f800
00f800
00f800
007000
000000
000000
000000
000038
00007c
00007c
00007c
000038
ENDCHAR
STARTCHAR Ellipsis2
ENCODING 185
SWIDTH 1000 0
DWIDTH 34 0
BBX 28 5 3 -1
BITMAP
700e00e0
f81f01f0
f81f01f0
f81f01f0
700e00e0
ENDCHAR
STARTCHAR CenterEllipsis2
ENCODING 186
SWIDTH 1000 0
DWIDTH 34 0
BBX 28 5 3 6
BITMAP
700e00e0
f81f01f0
f81f01f0
f81f01f0
700e00e0
ENDCHAR
STARTCHAR VertEllipsis2
ENCODING 187
SWIDTH 279 0
DWIDTH 9 0
BBX 5 28 2 -1
BITMAP
70
f8
f8
f8
70
00
00
00
00
00
00
00
70
f8
f8
f8
70
00
00
00
00
00
00
70
f8
f8
f8
70
ENDCHAR
STARTCHAR Dot
ENCODING 188
SWIDTH 335 0
DWIDTH 11 0
BBX 5 5 3 -1
BITMAP
70
f8
f8
f8
70
ENDCHAR
STARTCHAR CenterDot
ENCODING 189
SWIDTH 335 0
DWIDTH 11 0
BBX 5 5 3 6
BITMAP
70
f8
f8
f8
70
ENDCHAR
STARTCHAR BackPrime
ENCODING 190
SWIDTH 373 0
DWIDTH 13 0
BBX 10 15 1 1
BITMAP
3800
7800
fc00
7c00
7e00
3e00
3e00
1f00
0f00
0f00
0780
0780
0380
01c0
0080
ENDCHAR
STARTCHAR DblBackPrime
ENCODING 191
SWIDTH 651 0
DWIDTH 22 0
BBX 20 15 1 1
BITMAP
381c00
7c3e00
fc3f00
7e3f00
7e1f00
3f1f80
1f0f80
1f0780
0f87c0
0783c0
03c1c0
03c1e0
01e0e0
00e070
006020
ENDCHAR
STARTCHAR UnderVee1
ENCODING 192
SWIDTH 700 0
DWIDTH 24 0
BBX 25 6 0 0
BITMAP
c0000180
fe003f80
ffe3ff80
0ffff800
01ffc000
001c0000
ENDCHAR
STARTCHAR UnderVee2
ENCODING 193
SWIDTH 1050 0
DWIDTH 36 0
BBX 37 6 0 0
BITMAP
e000000038
ff80000ff8
7ffe03fff0
03fffffe00
001fffc000
0000f80000
ENDCHAR
STARTCHAR UnderVee3
ENCODING 194
SWIDTH 1400 0
DWIDTH 48 0
BBX 48 6 0 0
BITMAP
f0000000000f
fff000000fff
3fffe007fffc
00ffffffff00
0003ffffc000
00000ff00000
ENDCHAR
STARTCHAR UnderVee4
ENCODING 195
SWIDTH 1750 0
DWIDTH 60 0
BBX 60 6 0 0
BITMAP
f8000000000001f0
fffe00000007fff0
1fffff000fffff80
001fffffffff8000
00001fffff800000
0000007fe0000000
ENDCHAR
STARTCHAR UpPointer
ENCODING 196
SWIDTH 520 0
DWIDTH 18 0
BBX 13 7 2 5
BITMAP
0200
0700
0f80
1fc0
3fe0
7ff0
fff8
ENDCHAR
STARTCHAR RightPointer
ENCODING 197
SWIDTH 310 0
DWIDTH 11 0
BBX 8 15 1 1
BITMAP
80
c0
e0
f0
f8
fc
fe
ff
fe
fc
f8
f0
e0
c0
80
ENDCHAR
STARTCHAR DownPointer
ENCODING 198
SWIDTH 520 0
DWIDTH 18 0
BBX 13 7 2 5
BITMAP
fff8
7ff0
3fe0
1fc0
0f80
0700
0200
ENDCHAR
STARTCHAR LeftPointer
ENCODING 199
SWIDTH 310 0
DWIDTH 11 0
BBX 8 15 1 1
BITMAP
01
03
07
0f
1f
3f
7f
ff
7f
3f
1f
0f
07
03
01
ENDCHAR
STARTCHAR UpLHookExt
ENCODING 200
SWIDTH 275 0
DWIDTH 9 0
BBX 8 10 0 7
BITMAP
f8
fe
ff
0f
07
07
0f
ff
fe
f8
ENDCHAR
STARTCHAR UpRHookExt
ENCODING 201
SWIDTH 275 0
DWIDTH 9 0
BBX 8 10 1 7
BITMAP
1f
7f
ff
f0
e0
e0
f0
ff
7f
1f
ENDCHAR
STARTCHAR Nbspace
ENCODING 202
SWIDTH 189 0
DWIDTH 6 0
BBX 0 0 0 0
BITMAP
ENDCHAR
STARTCHAR XBox
ENCODING 203
SWIDTH 600 0
DWIDTH 20 0
BBX 16 16 2 0
BITMAP
ffff
c003
a005
9009
8811
8421
8241
8181
8181
8241
8421
8811
9009
a005
c003
ffff
ENDCHAR
STARTCHAR SmileyFace
ENCODING 204
SWIDTH 577 0
DWIDTH 20 0
BBX 18 21 1 0
BITMAP
1ffc00
3fff00
7fff80
700780
e003c0
e631c0
ef79c0
ef79c0
e631c0
e001c0
e001c0
ec19c0
ee19c0
ee39c0
e7f1c0
e3e3c0
f003c0
700780
7fff80
3fff00
1ffc00
ENDCHAR
STARTCHAR StraightFace
ENCODING 205
SWIDTH 577 0
DWIDTH 20 0
BBX 18 21 1 0
BITMAP
1ffc00
3fff00
7fff80
700780
e003c0
e631c0
ef79c0
ef79c0
e631c0
e001c0
e001c0
e001c0
e7f9c0
e7f9c0
e7f9c0
e003c0
f003c0
780780
7fff80
3fff00
0ffc00
ENDCHAR
STARTCHAR FrownFace
ENCODING 206
SWIDTH 577 0
DWIDTH 20 0
BBX 18 21 1 0
BITMAP
1ffc00
3fff00
7fff80
700780
e003c0
e631c0
ef79c0
ef79c0
e631c0
e001c0
e001c0
e3e1c0
e7f1c0
ee39c0
ee19c0
ec1bc0
f003c0
700780
7fff80
3fff00
1ffc00
ENDCHAR
STARTCHAR ShockFace
ENCODING 207
SWIDTH 581 0
DWIDTH 20 0
BBX 20 32 0 0
BITMAP
020400
020400
420c20
420c60
630c40
230c40
2108c0
310880
110980
990930
cc9330
6fff60
3fffc0
3fffc0
3801c0
7000e0
730ce0
779ee0
779ee0
730ce0
70f0e0
71f8e0
738ce0
730ce0
730ce0
738ce0
71f8e0
38f1e0
3c01c0
3fffc0
1fff80
0fff00
ENDCHAR
STARTCHAR Strike1
ENCODING 208
SWIDTH 180 0
DWIDTH 6 0
BBX 7 11 0 3
BITMAP
1e
1c
1c
1c
38
38
38
70
70
70
f0
ENDCHAR
STARTCHAR Strike2
ENCODING 209
SWIDTH 233 0
DWIDTH 8 0
BBX 7 18 1 0
BITMAP
0e
0e
0e
1e
1c
1c
1c
38
38
38
38
70
70
70
f0
e0
e0
e0
ENDCHAR
STARTCHAR Strike3
ENCODING 210
SWIDTH 280 0
DWIDTH 10 0
BBX 10 25 0 -4
BITMAP
01c0
0380
0380
0380
0380
0700
0700
0700
0700
0e00
0e00
0e00
1c00
1c00
1c00
1c00
3800
3800
3800
3800
7000
7000
7000
7000
e000
ENDCHAR
STARTCHAR Strike4
ENCODING 211
SWIDTH 311 0
DWIDTH 11 0
BBX 11 28 0 -4
BITMAP
00e0
01c0
01c0
01c0
0380
0380
0380
0380
0700
0700
0700
0700
0e00
0e00
0e00
0e00
1c00
1c00
1c00
1c00
3800
3800
3800
3800
7000
7000
7000
e000
ENDCHAR
STARTCHAR Strike5
ENCODING 212
SWIDTH 340 0
DWIDTH 12 0
BBX 12 32 0 -5
BITMAP
0070
00e0
00e0
00e0
01c0
01c0
01c0
01c0
0380
0380
0380
0380
0700
0700
0700
0700
0e00
0e00
0e00
0e00
1c00
1c00
1c00
1c00
3800
3800
3800
3800
7000
7000
7000
e000
ENDCHAR
STARTCHAR Strike6
ENCODING 213
SWIDTH 349 0
DWIDTH 12 0
BBX 11 35 1 -7
BITMAP
00e0
00e0
00e0
00e0
01c0
01c0
01c0
01c0
0380
0380
0380
0780
0700
0700
0700
0f00
0e00
0e00
0e00
1e00
1c00
1c00
1c00
3c00
3800
3800
3800
7000
7000
7000
7000
e000
e000
e000
e000
ENDCHAR
STARTCHAR KeyBar
ENCODING 214
SWIDTH 88 0
DWIDTH 3 0
BBX 8 5 -2 6
BITMAP
ff
ff
ff
ff
ff
ENDCHAR
STARTCHAR DownLHookExt
ENCODING 215
SWIDTH 275 0
DWIDTH 9 0
BBX 8 10 0 0
BITMAP
f8
fe
ff
0f
07
07
0f
ff
fe
f8
ENDCHAR
STARTCHAR DownRHookExt
ENCODING 216
SWIDTH 275 0
DWIDTH 9 0
BBX 8 10 1 0
BITMAP
1f
7f
ff
f0
e0
e0
f0
ff
7f
1f
ENDCHAR
STARTCHAR Icos
ENCODING 217
SWIDTH 956 0
DWIDTH 33 0
BBX 30 28 1 -3
BITMAP
00020080
00060700
06051b00
03f8e300
02088500
03084500
03102500
01902900
01601900
0167ffc0
03ff983c
1e621404
e0922208
41122210
210a4110
120640a8
0c0581c4
1c029eb8
3fffffc0
01830180
01038180
0184c180
0184a240
00c89240
00c95240
00d6bfc0
00f80c00
00200000
ENDCHAR
STARTCHAR KernalIcon
ENCODING 218
SWIDTH 909 0
DWIDTH 31 0
BBX 29 29 1 -4
BITMAP
003fc000
00c03800
03000600
04000300
08041880
138af840
22731820
21111820
4190a810
41a06810
816ffe10
81ff61c8
9e649048
b0949088
991d0988
8e0d0648
8706ff88
8efffc08
43e60810
40870c10
408a8c10
208a9220
20d35240
10defcc0
08f02180
04200300
03000400
00e03800
001fc000
ENDCHAR
STARTCHAR LightBulb
ENCODING 219
SWIDTH 688 0
DWIDTH 23 0
BBX 21 32 1 -5
BITMAP
002000
002000
082080
0c0180
040100
000000
01fc00
870708
cc0198
1800c0
1800c0
300060
300060
300060
300060
380040
1800c0
0c0180
060180
030300
010600
018600
008c00
008c00
008c00
000000
01fc00
000000
00f800
000000
007000
007000
ENDCHAR
STARTCHAR WarningSign
ENCODING 220
SWIDTH 675 0
DWIDTH 23 0
BBX 21 22 1 0
BITMAP
007000
00f000
00d800
009800
018c00
010c00
030600
030600
067200
067300
0c7100
0c7180
082080
1820c0
1020c0
302060
300060
607020
607030
c00010
c00018
7ffff0
ENDCHAR
STARTCHAR WatchIcon
ENCODING 221
SWIDTH 597 0
DWIDTH 20 0
BBX 17 24 2 -3
BITMAP
1ff000
1ff000
1ff000
1ff000
1ff000
1ff000
300e00
c18200
c18200
c18200
c18380
c18380
cf8380
c00200
c00200
c00200
300e00
300e00
1ff000
1ff000
1ff000
1ff000
1ff000
1ff000
ENDCHAR
STARTCHAR Cedilla
ENCODING 222
SWIDTH 254 0
DWIDTH 9 0
BBX 9 8 0 -8
BITMAP
1800
1800
3f00
3f80
0780
0780
ff00
3c00
ENDCHAR
STARTCHAR Ogonek
ENCODING 223
SWIDTH 211 0
DWIDTH 7 0
BBX 7 5 0 -5
BITMAP
70
e0
e2
fe
78
ENDCHAR
STARTCHAR AltKey
ENCODING 224
SWIDTH 1174 0
DWIDTH 40 0
BBX 36 25 2 -4
BITMAP
fffffffff0
8000000010
8000000010
8000000010
8000000010
806043fe10
8060402010
8050402010
8090402010
8090402010
8088402010
8188402010
8108402010
810c402010
8104402010
83fc402010
8206402010
8202402010
8402402010
84037e2010
8000000010
8000000010
8000000010
8000000010
fffffffff0
ENDCHAR
STARTCHAR CmdKey
ENCODING 225
SWIDTH 1318 0
DWIDTH 45 0
BBX 41 25 2 -4
BITMAP
ffffffffff80
800000000080
800000000080
800000000080
800000000080
81e300cfc080
823300c86080
841381c82080
841281481080
840281481080
8402c3481080
840242481080
840242481080
840242481080
840266481080
840224481080
841224481080
84123c482080
823218486080
81e2184f8080
800000000080
800000000080
800000000080
800000000080
ffffffffff80
ENDCHAR
STARTCHAR CtrlKey
ENCODING 226
SWIDTH 1379 0
DWIDTH 47 0
BBX 43 25 2 -4
BITMAP
ffffffffffe0
800000000020
800000000020
800000000020
800000000020
83cff9f88020
862081088020
842081048020
841081048020
840081048020
840081048020
840081188020
840081f08020
840081088020
8400810c8020
840081048020
841081048020
842081048020
862081048020
83c08104fc20
800000000020
800000000020
800000000020
800000000020
ffffffffffe0
ENDCHAR
STARTCHAR DelKey
ENCODING 227
SWIDTH 1143 0
DWIDTH 39 0
BBX 35 25 2 -4
BITMAP
ffffffffe0
8000000020
8000000020
8000000020
8000000020
83f0fc4020
8218804020
8208804020
820c804020
8204804020
8204804020
8204804020
8204fc4020
8204804020
8204804020
8204804020
820c804020
8208804020
8218804020
83e0fc7e20
8000000020
8000000020
8000000020
8000000020
ffffffffe0
ENDCHAR
STARTCHAR EntKey
ENCODING 228
SWIDTH 1146 0
DWIDTH 39 0
BBX 35 25 2 -4
BITMAP
ffffffffe0
8000000020
8000000020
8000000020
8000000020
83fb0bfe20
8203082020
8203882020
8202882020
8202882020
8202c82020
8202482020
83f2482020
8202482020
8202282020
8202282020
8202282020
8202382020
8202182020
83fa182020
8000000020
8000000020
8000000020
8000000020
ffffffffe0
ENDCHAR
STARTCHAR EscKey
ENCODING 229
SWIDTH 1146 0
DWIDTH 39 0
BBX 35 25 2 -4
BITMAP
ffffffffe0
8000000020
8000000020
8000000020
8000000020
83f8e07020
83f9108820
8203198420
8202090420
8202090420
8202010020
8201810020
83f0c10020
8200310020
8200110020
8200090020
8202090420
8202090420
8203108c20
83f9e07820
8000000020
8000000020
8000000020
8000000020
ffffffffe0
ENDCHAR
STARTCHAR OptKey
ENCODING 230
SWIDTH 1187 0
DWIDTH 40 0
BBX 36 25 2 -4
BITMAP
fffffffff0
8000000010
8000000010
8000000010
8000000010
83c1f1ff10
8421081010
8831041010
8811041010
8811041010
8811041010
8811081010
8811f01010
8811001010
8811001010
8811001010
8811001010
8831001010
8421001010
83c1001010
8000000010
8000000010
8000000010
8000000010
fffffffff0
ENDCHAR
STARTCHAR RetKey
ENCODING 231
SWIDTH 1174 0
DWIDTH 40 0
BBX 36 25 2 -4
BITMAP
fffffffff0
8000000010
8000000010
8000000010
8000000010
83f1fdfe10
8219002010
8209002010
8209002010
8209002010
8209002010
8211002010
83e1f82010
8211002010
8209002010
8209002010
8209002010
8209002010
8209002010
8209fc2010
8000000010
8000000010
8000000010
8000000010
fffffffff0
ENDCHAR
STARTCHAR ShftKey
ENCODING 232
SWIDTH 1448 0
DWIDTH 49 0
BBX 45 25 2 -4
BITMAP
fffffffffff8
800000000008
800000000008
800000000008
800000000008
81f104fdff08
83f104801008
861904801008
860904801008
860104801008
830104801008
838104801008
80c1fcf81008
803104801008
801904801008
800904801008
840904801008
840904801008
831904801008
81e104801008
800000000008
800000000008
800000000008
800000000008
fffffffffff8
ENDCHAR
STARTCHAR SpcKey
ENCODING 233
SWIDTH 1187 0
DWIDTH 40 0
BBX 36 25 2 -4
BITMAP
fffffffff0
8000000010
8000000010
8000000010
8000000010
81e1f83810
83110c4c10
8609048410
8609068410
8601068010
8301048010
8381048010
80c1f88010
8031008010
8011008010
8009008010
8409008410
8409008410
8311004c10
81e1003810
8000000010
8000000010
8000000010
8000000010
fffffffff0
ENDCHAR
STARTCHAR TabKey
ENCODING 234
SWIDTH 1177 0
DWIDTH 40 0
BBX 36 25 2 -4
BITMAP
fffffffff0
8000000010
8000000010
8000000010
8000000010
8ff8c0f810
8080c08410
8081a08210
8081208210
8081208210
8081308210
8082108410
808210fc10
8082188210
8084088110
8087f88110
80840c8110
8088048110
8088048210
809806fc10
8000000010
8000000010
8000000010
8000000010
fffffffff0
ENDCHAR
STARTCHAR LKeyBracket
ENCODING 235
SWIDTH 245 0
DWIDTH 8 0
BBX 9 36 -2 -9
BITMAP
0f80
0800
0800
0800
0800
0800
0800
0800
0800
0800
0800
0800
0800
0800
0800
0800
f800
f800
f800
f800
f800
0800
0800
0800
0800
0800
0800
0800
0800
0800
0800
0800
0800
0800
0800
0f80
ENDCHAR
STARTCHAR RKeyBracket
ENCODING 236
SWIDTH 245 0
DWIDTH 8 0
BBX 5 36 1 -9
BITMAP
f8
08
08
08
08
08
08
08
08
08
08
08
08
08
08
08
08
08
08
08
08
08
08
08
08
08
08
08
08
08
08
08
08
08
08
f8
ENDCHAR
STARTCHAR CloverLeaf
ENCODING 237
SWIDTH 750 0
DWIDTH 26 0
BBX 22 21 2 0
BITMAP
3c00f0
430308
810204
810204
810204
c1020c
7ffff8
010200
010200
010200
010200
010200
010200
7ffff8
410208
810204
810204
810204
810204
430108
3e00f0
ENDCHAR
STARTCHAR DottedSquare
ENCODING 238
SWIDTH 764 0
DWIDTH 26 0
BBX 22 23 2 0
BITMAP
f878fc
800004
800004
800004
800004
800004
000000
000000
000000
000000
800004
800004
800004
800004
000000
000000
000000
800004
800004
800004
800004
800004
f878fc
ENDCHAR
STARTCHAR RoundSpaceIndicator
ENCODING 239
SWIDTH 250 0
DWIDTH 9 0
BBX 6 4 1 -4
BITMAP
84
84
fc
78
ENDCHAR
STARTCHAR CommandKey
ENCODING 240
SWIDTH 2643 0
DWIDTH 90 0
BBX 86 25 2 -4
BITMAP
fffffffffffffffffffffc
8000000000000000000004
8000000000000000000004
8000000000000000000004
8000000000000000000004
81e0f8603180c0c0c27e04
82318c603180c0c0c27f04
861104603180c0e0e24104
8411047071c1c120a24184
8413065051414120a24084
8403065051414130b24084
8403065051414210924084
84030658d1634210924084
8403064891224218924084
84030648912244089a4084
8403064c912647f88a4084
84130645111444088a4084
8411044511144c048e4104
86118c4511144804864304
81e0f847111c4804867e04
8000000000000000000004
8000000000000000000004
8000000000000000000004
8000000000000000000004
fffffffffffffffffffffc
ENDCHAR
STARTCHAR ControlKey
ENCODING 241
SWIDTH 2327 0
DWIDTH 79 0
BBX 75 25 2 -4
BITMAP
ffffffffffffffffffe0
80000000000000000020
80000000000000000020
80000000000000000020
80000000000000000020
83e0f8c37fcfc1f88020
86310ca3040821088020
841304a30408320c8020
841204a3040812048020
840204b3040832048020
84020493040822048020
84020493040862048020
84020493040f82048020
8402048b040862048020
8402048b040822048020
8402048b040822048020
8412048f040832048020
841304870408320c8020
86318c87040831088020
83e0f087040830f0fc20
80000000000000000020
80000000000000000020
80000000000000000020
80000000000000000020
ffffffffffffffffffe0
ENDCHAR
STARTCHAR DeleteKey
ENCODING 242
SWIDTH 1890 0
DWIDTH 64 0
BBX 60 25 2 -4
BITMAP
fffffffffffffff0
8000000000000010
8000000000000010
8000000000000010
8000000000000010
83f0fc80feff7e10
82188080c0104010
82088080c0104010
82048080c0104010
82048080c0104010
82048080c0104010
82048080c0104010
8204fc80fe107e10
82048080c0104010
82048080c0104010
82048080c0104010
82048080c0104010
820c8080c0104010
82188080c0104010
83f0fcfefe107e10
8000000000000010
8000000000000010
8000000000000010
8000000000000010
fffffffffffffff0
ENDCHAR
STARTCHAR EnterKey
ENCODING 243
SWIDTH 1668 0
DWIDTH 57 0
BBX 53 25 2 -4
BITMAP
fffffffffffff8
80000000000008
80000000000008
80000000000008
80000000000008
83f30bfe7e7e08
82030820404108
82030820404188
82028820404188
82028820404188
82028820404108
8202c820404308
83f248207e7c08
82024820404308
82024820404108
82022820404108
82022820404188
82022820404188
82023820404188
83f218207e4188
80000000000008
80000000000008
80000000000008
80000000000008
fffffffffffff8
ENDCHAR
STARTCHAR EscapeKey
ENCODING 244
SWIDTH 2000 0
DWIDTH 68 0
BBX 64 25 2 -4
BITMAP
ffffffffffffffff
8000000000000001
8000000000000001
8000000000000001
8000000000000001
83f1f0f80c0f87e1
8202118c0c084401
8202090414082401
8202090416082401
8202010012082401
8203010022082401
8201810023084401
83f0c100210f87e1
8200310041080401
8200190041880401
820009007f880401
8206090480880401
8202090480880401
8203198c80480401
83f1f0f9804807e1
8000000000000001
8000000000000001
8000000000000001
8000000000000001
ffffffffffffffff
ENDCHAR
STARTCHAR OptionKey
ENCODING 245
SWIDTH 1869 0
DWIDTH 64 0
BBX 59 25 2 -4
BITMAP
ffffffffffffffe0
8000000000000020
8000000000000020
8000000000000020
8000000000000020
81e1f9ff21e0c220
821104102210c220
841906102418e220
840902102408a220
840902102408a220
840906102408b220
8409041024089220
8409f81024089220
8409001024089220
8409001024088a20
8409001024088a20
8409001024088a20
8419001024188e20
8211001022108620
81e1001021e08620
8000000000000020
8000000000000020
8000000000000020
8000000000000020
ffffffffffffffe0
ENDCHAR
STARTCHAR ReturnKey
ENCODING 246
SWIDTH 2015 0
DWIDTH 69 0
BBX 64 25 2 -4
BITMAP
ffffffffffffffff
8000000000000001
8000000000000001
8000000000000001
8000000000000001
83f1fdff409f8c11
8219003040904e11
8209003040906a11
8209003040902a11
8209003040902b11
8209003040906911
821100304090c911
83e1f830409f8991
821900304090c891
8209003040904891
82090030409068d1
8209003040906851
8209003040906851
8209003021902871
820dfc301e102831
8000000000000001
8000000000000001
8000000000000001
8000000000000001
ffffffffffffffff
ENDCHAR
STARTCHAR ShiftKey
ENCODING 247
SWIDTH 1563 0
DWIDTH 53 0
BBX 49 25 2 -4
BITMAP
ffffffffffff80
80000000000080
80000000000080
80000000000080
80000000000080
81f1044fdff080
83f10448010080
82190448010080
86090448010080
86010448010080
83010448010080
81810448010080
80c1fc4f810080
80310448010080
80190448010080
80090448010080
84090448010080
84090448010080
83190448010080
81f10448010080
80000000000080
80000000000080
80000000000080
80000000000080
ffffffffffff80
ENDCHAR
STARTCHAR SpaceKey
ENCODING 248
SWIDTH 1699 0
DWIDTH 58 0
BBX 54 25 2 -4
BITMAP
fffffffffffffc
80000000000004
80000000000004
80000000000004
80000000000004
81f1f8301f1f84
83190c38109004
86090428209004
86090628209004
8601044c201004
83010444201004
81810c44201004
80e1f884201f84
80310082201004
80190082201004
800901fe201004
84090101209004
84090101209004
86190201109004
83f102019f1f84
80000000000004
80000000000004
80000000000004
80000000000004
fffffffffffffc
ENDCHAR
STARTCHAR Mod1Key
ENCODING 249
SWIDTH 1543 0
DWIDTH 52 0
BBX 48 25 2 -4
BITMAP
ffffffffffff
800000000001
800000000001
800000000001
800000000001
8c030783f011
8c0308420871
8e0710220cd1
8a0510220491
8a0510220411
8b0d10220411
890910220411
890910220411
890910220411
899910220411
889110220411
889110220411
88f110620c11
886108421811
88610783f011
800000000001
800000000001
800000000001
800000000001
ffffffffffff
ENDCHAR
STARTCHAR Mod2Key
ENCODING 250
SWIDTH 1655 0
DWIDTH 56 0
BBX 52 25 2 -4
BITMAP
fffffffffffff0
80000000000010
80000000000010
80000000000010
80000000000010
8c030783f01e10
8c030842082310
8e0710620c4110
8a051022044110
8a051022040110
8b0d1022040210
89091022040210
89091022040410
89091022040410
89991022040810
88911022041810
88911022043010
88f110220c2010
88610842186010
88610783f07f10
80000000000010
80000000000010
80000000000010
80000000000010
fffffffffffff0
ENDCHAR
STARTCHAR RKeyBracket2
ENCODING 251
SWIDTH 245 0
DWIDTH 8 0
BBX 5 36 1 -9
BITMAP
f8
80
80
80
80
80
80
80
80
80
80
80
80
80
80
80
80
80
80
80
80
80
80
80
80
80
80
80
80
80
80
80
80
80
80
f8
ENDCHAR
STARTCHAR LUpHookExt
ENCODING 252
SWIDTH 591 0
DWIDTH 20 0
BBX 10 8 2 0
BITMAP
e1c0
e1c0
e1c0
e1c0
f3c0
7f80
7f80
3f00
ENDCHAR
STARTCHAR RUpHookExt
ENCODING 253
SWIDTH 250 0
DWIDTH 9 0
BBX 10 8 2 0
BITMAP
e1c0
e1c0
e1c0
e1c0
f3c0
7f80
7f80
3f00
ENDCHAR
STARTCHAR LDownHookExt
ENCODING 254
SWIDTH 250 0
DWIDTH 9 0
BBX 10 8 0 0
BITMAP
3f00
7f80
7f80
f3c0
e1c0
e1c0
e1c0
e1c0
ENDCHAR
STARTCHAR RDownHookExt
ENCODING 255
SWIDTH 0 0
DWIDTH 0 0
BBX 10 8 0 0
BITMAP
3f00
7f80
7f80
f3c0
e1c0
e1c0
e1c0
e1c0
ENDCHAR
ENDFONT
