STARTFONT 2.1
FONT -WRI-Mathematica7-Medium-R-Normal--13-130-75-75-p-40-Adobe-FontSpecific
SIZE 13 75 75
FONTBOUNDINGBOX 12 12 0 -3
STARTPROPERTIES 16
FOUNDRY "WRI"
FAMILY_NAME "Mathematica7"
WEIGHT_NAME "Medium"
SLANT "R"
SETWIDTH_NAME "Normal"
PIXEL_SIZE 13
POINT_SIZE 130
RESOLUTION_X 75
RESOLUTION_Y 75
SPACING "p"
AVERAGE_WIDTH 40
CHARSET_REGISTRY "Adobe"
CHARSET_ENCODING "FontSpecific"
FONT_DESCENT 3
FONT_ASCENT 9
DEFAULT_CHAR 32
ENDPROPERTIES
CHARS 224
STARTCHAR space
ENCODING 32
SWIDTH 263 0
DWIDTH 3 0
BBX 0 0 0 0
BITMAP
ENDCHAR
STARTCHAR exclam
ENCODING 33
SWIDTH 263 0
DWIDTH 3 0
BBX 0 0 0 0
BITMAP
ENDCHAR
STARTCHAR quotedbl
ENCODING 34
SWIDTH 263 0
DWIDTH 3 0
BBX 0 0 0 0
BITMAP
ENDCHAR
STARTCHAR numbersign
ENCODING 35
SWIDTH 263 0
DWIDTH 3 0
BBX 0 0 0 0
BITMAP
ENDCHAR
STARTCHAR dollar
ENCODING 36
SWIDTH 263 0
DWIDTH 3 0
BBX 0 0 0 0
BITMAP
ENDCHAR
STARTCHAR percent
ENCODING 37
SWIDTH 263 0
DWIDTH 3 0
BBX 0 0 0 0
BITMAP
ENDCHAR
STARTCHAR ampersand
ENCODING 38
SWIDTH 263 0
DWIDTH 3 0
BBX 0 0 0 0
BITMAP
ENDCHAR
STARTCHAR quotesingle
ENCODING 39
SWIDTH 263 0
DWIDTH 3 0
BBX 0 0 0 0
BITMAP
ENDCHAR
STARTCHAR parenleft
ENCODING 40
SWIDTH 263 0
DWIDTH 3 0
BBX 0 0 0 0
BITMAP
ENDCHAR
STARTCHAR parenright
ENCODING 41
SWIDTH 263 0
DWIDTH 3 0
BBX 0 0 0 0
BITMAP
ENDCHAR
STARTCHAR asterisk
ENCODING 42
SWIDTH 263 0
DWIDTH 3 0
BBX 0 0 0 0
BITMAP
ENDCHAR
STARTCHAR plus
ENCODING 43
SWIDTH 263 0
DWIDTH 3 0
BBX 0 0 0 0
BITMAP
ENDCHAR
STARTCHAR comma
ENCODING 44
SWIDTH 263 0
DWIDTH 3 0
BBX 0 0 0 0
BITMAP
ENDCHAR
STARTCHAR hyphen
ENCODING 45
SWIDTH 263 0
DWIDTH 3 0
BBX 0 0 0 0
BITMAP
ENDCHAR
STARTCHAR period
ENCODING 46
SWIDTH 263 0
DWIDTH 3 0
BBX 0 0 0 0
BITMAP
ENDCHAR
STARTCHAR slash
ENCODING 47
SWIDTH 263 0
DWIDTH 3 0
BBX 0 0 0 0
BITMAP
ENDCHAR
STARTCHAR DoubleZero
ENCODING 48
SWIDTH 676 0
DWIDTH 9 0
BBX 8 9 1 0
BITMAP
78
ce
ca
9b
93
b3
e2
e4
78
ENDCHAR
STARTCHAR DoubleOne
ENCODING 49
SWIDTH 362 0
DWIDTH 5 0
BBX 4 9 1 0
BITMAP
60
a0
a0
a0
a0
a0
a0
a0
f0
ENDCHAR
STARTCHAR DoubleTwo
ENCODING 50
SWIDTH 499 0
DWIDTH 6 0
BBX 7 9 0 0
BITMAP
38
4c
4a
0a
0c
18
30
42
fe
ENDCHAR
STARTCHAR DoubleThree
ENCODING 51
SWIDTH 499 0
DWIDTH 6 0
BBX 7 9 0 0
BITMAP
7c
4a
4a
0c
1c
0a
0a
8c
78
ENDCHAR
STARTCHAR DoubleFour
ENCODING 52
SWIDTH 539 0
DWIDTH 7 0
BBX 6 9 1 0
BITMAP
38
28
68
68
a8
ec
ec
28
7c
ENDCHAR
STARTCHAR DoubleFive
ENCODING 53
SWIDTH 478 0
DWIDTH 6 0
BBX 6 9 0 0
BITMAP
3c
50
70
78
0c
04
04
8c
78
ENDCHAR
STARTCHAR DoubleSix
ENCODING 54
SWIDTH 539 0
DWIDTH 7 0
BBX 7 9 0 0
BITMAP
18
60
60
a0
be
a2
a2
74
3c
ENDCHAR
STARTCHAR DoubleSeven
ENCODING 55
SWIDTH 480 0
DWIDTH 6 0
BBX 5 8 0 0
BITMAP
f8
18
18
30
30
70
60
60
ENDCHAR
STARTCHAR DoubleEight
ENCODING 56
SWIDTH 588 0
DWIDTH 8 0
BBX 7 9 1 0
BITMAP
78
e4
e4
b8
ec
94
8a
8c
78
ENDCHAR
STARTCHAR DoubleNine
ENCODING 57
SWIDTH 539 0
DWIDTH 7 0
BBX 7 9 0 0
BITMAP
3c
4c
86
86
86
7a
0c
08
70
ENDCHAR
STARTCHAR colon
ENCODING 58
SWIDTH 263 0
DWIDTH 3 0
BBX 0 0 0 0
BITMAP
ENDCHAR
STARTCHAR semicolon
ENCODING 59
SWIDTH 263 0
DWIDTH 3 0
BBX 0 0 0 0
BITMAP
ENDCHAR
STARTCHAR less
ENCODING 60
SWIDTH 263 0
DWIDTH 3 0
BBX 0 0 0 0
BITMAP
ENDCHAR
STARTCHAR equal
ENCODING 61
SWIDTH 263 0
DWIDTH 3 0
BBX 0 0 0 0
BITMAP
ENDCHAR
STARTCHAR greater
ENCODING 62
SWIDTH 263 0
DWIDTH 3 0
BBX 0 0 0 0
BITMAP
ENDCHAR
STARTCHAR question
ENCODING 63
SWIDTH 263 0
DWIDTH 3 0
BBX 0 0 0 0
BITMAP
ENDCHAR
STARTCHAR at
ENCODING 64
SWIDTH 263 0
DWIDTH 3 0
BBX 0 0 0 0
BITMAP
ENDCHAR
STARTCHAR DoubleCapA
ENCODING 65
SWIDTH 784 0
DWIDTH 10 0
BBX 9 9 0 0
BITMAP
0c00
1400
1e00
2a00
3200
5f00
6100
6180
c080
ENDCHAR
STARTCHAR DoubleCapB
ENCODING 66
SWIDTH 689 0
DWIDTH 9 0
BBX 7 9 0 0
BITMAP
fc
a6
a2
a2
bc
a2
a2
a2
fc
ENDCHAR
STARTCHAR DoubleCapC
ENCODING 67
SWIDTH 645 0
DWIDTH 8 0
BBX 7 9 1 0
BITMAP
38
46
c2
c0
c0
c0
c0
42
3c
ENDCHAR
STARTCHAR DoubleCapD
ENCODING 68
SWIDTH 776 0
DWIDTH 10 0
BBX 9 9 0 0
BITMAP
fc00
a300
a180
a080
a080
a080
a180
a300
fe00
ENDCHAR
STARTCHAR DoubleCapE
ENCODING 69
SWIDTH 619 0
DWIDTH 8 0
BBX 8 9 0 0
BITMAP
fe
a0
a0
a0
bc
a0
a0
a0
ff
ENDCHAR
STARTCHAR DoubleCapF
ENCODING 70
SWIDTH 602 0
DWIDTH 8 0
BBX 8 9 0 0
BITMAP
ff
a0
a0
a0
bc
a0
a0
a0
e0
ENDCHAR
STARTCHAR DoubleCapG
ENCODING 71
SWIDTH 694 0
DWIDTH 9 0
BBX 7 9 1 0
BITMAP
3c
62
a2
a0
a2
a2
a2
62
3c
ENDCHAR
STARTCHAR DoubleCapH
ENCODING 72
SWIDTH 721 0
DWIDTH 9 0
BBX 8 9 0 0
BITMAP
e1
a1
a1
a1
bf
a1
a1
a1
e1
ENDCHAR
STARTCHAR DoubleCapI
ENCODING 73
SWIDTH 312 0
DWIDTH 4 0
BBX 3 9 0 0
BITMAP
e0
a0
a0
a0
a0
a0
a0
a0
e0
ENDCHAR
STARTCHAR DoubleCapJ
ENCODING 74
SWIDTH 475 0
DWIDTH 6 0
BBX 4 9 1 0
BITMAP
70
50
50
50
50
50
50
e0
c0
ENDCHAR
STARTCHAR DoubleCapK
ENCODING 75
SWIDTH 679 0
DWIDTH 9 0
BBX 9 9 0 0
BITMAP
e100
a200
a400
a800
b800
ac00
a600
a300
e180
ENDCHAR
STARTCHAR DoubleCapL
ENCODING 76
SWIDTH 611 0
DWIDTH 8 0
BBX 8 9 0 0
BITMAP
e0
a0
a0
a0
a0
a0
a0
a0
ff
ENDCHAR
STARTCHAR DoubleCapM
ENCODING 77
SWIDTH 769 0
DWIDTH 10 0
BBX 8 9 1 0
BITMAP
e1
a3
b3
d5
dd
a9
a9
99
91
ENDCHAR
STARTCHAR DoubleCapN
ENCODING 78
SWIDTH 628 0
DWIDTH 8 0
BBX 8 9 0 0
BITMAP
f1
b9
d9
ad
96
8a
85
87
82
ENDCHAR
STARTCHAR DoubleCapO
ENCODING 79
SWIDTH 744 0
DWIDTH 10 0
BBX 8 9 1 0
BITMAP
3c
62
a2
a1
a1
a1
a2
62
3c
ENDCHAR
STARTCHAR DoubleCapP
ENCODING 80
SWIDTH 625 0
DWIDTH 8 0
BBX 7 9 0 0
BITMAP
fc
a6
a2
a6
bc
a0
a0
a0
e0
ENDCHAR
STARTCHAR DoubleCapQ
ENCODING 81
SWIDTH 745 0
DWIDTH 10 0
BBX 8 11 1 -2
BITMAP
3c
46
c3
c1
c1
c1
c3
c6
3c
1c
07
ENDCHAR
STARTCHAR DoubleCapR
ENCODING 82
SWIDTH 727 0
DWIDTH 9 0
BBX 9 9 0 0
BITMAP
fc00
a200
a300
a200
bc00
ac00
a600
a300
e180
ENDCHAR
STARTCHAR DoubleCapS
ENCODING 83
SWIDTH 607 0
DWIDTH 8 0
BBX 7 9 0 0
BITMAP
38
64
a2
70
2c
16
4e
4c
38
ENDCHAR
STARTCHAR DoubleCapT
ENCODING 84
SWIDTH 547 0
DWIDTH 7 0
BBX 8 9 0 0
BITMAP
ff
28
28
28
28
28
28
28
38
ENDCHAR
STARTCHAR DoubleCapU
ENCODING 85
SWIDTH 668 0
DWIDTH 9 0
BBX 8 9 0 0
BITMAP
e1
a1
a1
a1
a1
a1
a1
52
3c
ENDCHAR
STARTCHAR DoubleCapV
ENCODING 86
SWIDTH 723 0
DWIDTH 9 0
BBX 8 9 0 0
BITMAP
e1
a1
71
52
3a
2c
2c
18
18
ENDCHAR
STARTCHAR DoubleCapW
ENCODING 87
SWIDTH 989 0
DWIDTH 13 0
BBX 11 9 1 0
BITMAP
cc20
a420
a620
6640
5740
5940
3980
3180
3080
ENDCHAR
STARTCHAR DoubleCapX
ENCODING 88
SWIDTH 807 0
DWIDTH 10 0
BBX 10 9 0 0
BITMAP
f040
5880
2900
1e00
1600
1b00
1500
2480
c3c0
ENDCHAR
STARTCHAR DoubleCapY
ENCODING 89
SWIDTH 651 0
DWIDTH 8 0
BBX 7 9 1 0
BITMAP
e2
a4
58
38
30
10
10
10
10
ENDCHAR
STARTCHAR DoubleCapZ
ENCODING 90
SWIDTH 750 0
DWIDTH 10 0
BBX 9 9 0 0
BITMAP
7f80
0500
0a00
1a00
3400
2800
5000
d000
ff80
ENDCHAR
STARTCHAR bracketleft
ENCODING 91
SWIDTH 263 0
DWIDTH 3 0
BBX 0 0 0 0
BITMAP
ENDCHAR
STARTCHAR backslash
ENCODING 92
SWIDTH 263 0
DWIDTH 3 0
BBX 0 0 0 0
BITMAP
ENDCHAR
STARTCHAR bracketright
ENCODING 93
SWIDTH 263 0
DWIDTH 3 0
BBX 0 0 0 0
BITMAP
ENDCHAR
STARTCHAR asciicircum
ENCODING 94
SWIDTH 263 0
DWIDTH 3 0
BBX 0 0 0 0
BITMAP
ENDCHAR
STARTCHAR underscore
ENCODING 95
SWIDTH 263 0
DWIDTH 3 0
BBX 0 0 0 0
BITMAP
ENDCHAR
STARTCHAR grave
ENCODING 96
SWIDTH 263 0
DWIDTH 3 0
BBX 0 0 0 0
BITMAP
ENDCHAR
STARTCHAR DoubleA
ENCODING 97
SWIDTH 589 0
DWIDTH 8 0
BBX 7 6 0 0
BITMAP
78
94
74
94
b6
dc
ENDCHAR
STARTCHAR DoubleB
ENCODING 98
SWIDTH 605 0
DWIDTH 8 0
BBX 7 9 0 0
BITMAP
60
a0
a0
bc
a6
a2
a2
e4
38
ENDCHAR
STARTCHAR DoubleC
ENCODING 99
SWIDTH 460 0
DWIDTH 6 0
BBX 5 7 0 0
BITMAP
30
68
a8
a0
a0
e8
70
ENDCHAR
STARTCHAR DoubleD
ENCODING 100
SWIDTH 591 0
DWIDTH 8 0
BBX 7 9 0 0
BITMAP
1e
0a
6a
5a
8a
8a
8a
ca
7c
ENDCHAR
STARTCHAR DoubleE
ENCODING 101
SWIDTH 477 0
DWIDTH 6 0
BBX 5 7 0 0
BITMAP
30
68
b8
a0
a0
e8
70
ENDCHAR
STARTCHAR DoubleF
ENCODING 102
SWIDTH 528 0
DWIDTH 7 0
BBX 5 9 0 0
BITMAP
38
60
60
f8
60
60
60
60
60
ENDCHAR
STARTCHAR DoubleG
ENCODING 103
SWIDTH 515 0
DWIDTH 7 0
BBX 6 9 0 -3
BITMAP
7c
a8
a8
68
50
f8
a4
ec
70
ENDCHAR
STARTCHAR DoubleH
ENCODING 104
SWIDTH 609 0
DWIDTH 8 0
BBX 7 9 0 0
BITMAP
60
a0
a0
ac
b2
a2
a2
a2
e2
ENDCHAR
STARTCHAR DoubleI
ENCODING 105
SWIDTH 345 0
DWIDTH 4 0
BBX 3 9 1 0
BITMAP
40
00
00
60
a0
a0
a0
a0
e0
ENDCHAR
STARTCHAR DoubleJ
ENCODING 106
SWIDTH 457 0
DWIDTH 6 0
BBX 5 12 0 -3
BITMAP
10
00
00
18
28
28
28
28
28
28
38
e0
ENDCHAR
STARTCHAR DoubleK
ENCODING 107
SWIDTH 608 0
DWIDTH 8 0
BBX 6 9 0 0
BITMAP
f0
50
50
54
54
58
54
54
74
ENDCHAR
STARTCHAR DoubleL
ENCODING 108
SWIDTH 357 0
DWIDTH 5 0
BBX 4 9 0 0
BITMAP
f0
50
50
50
50
50
50
50
70
ENDCHAR
STARTCHAR DoubleM
ENCODING 109
SWIDTH 839 0
DWIDTH 11 0
BBX 10 6 0 0
BITMAP
3580
da40
5240
5240
5240
7240
ENDCHAR
STARTCHAR DoubleN
ENCODING 110
SWIDTH 581 0
DWIDTH 8 0
BBX 6 6 0 0
BITMAP
38
d4
54
54
54
74
ENDCHAR
STARTCHAR DoubleO
ENCODING 111
SWIDTH 526 0
DWIDTH 7 0
BBX 6 7 0 0
BITMAP
38
68
a4
a4
a4
68
38
ENDCHAR
STARTCHAR DoubleP
ENCODING 112
SWIDTH 648 0
DWIDTH 8 0
BBX 7 9 0 -3
BITMAP
fc
a6
a2
a2
a4
bc
a0
a0
e0
ENDCHAR
STARTCHAR DoubleQ
ENCODING 113
SWIDTH 593 0
DWIDTH 8 0
BBX 7 10 0 -3
BITMAP
72
4e
8a
8a
8a
8a
7a
0a
0a
0e
ENDCHAR
STARTCHAR DoubleR
ENCODING 114
SWIDTH 495 0
DWIDTH 6 0
BBX 6 6 0 0
BITMAP
bc
50
50
50
50
70
ENDCHAR
STARTCHAR DoubleS
ENCODING 115
SWIDTH 452 0
DWIDTH 6 0
BBX 5 7 0 0
BITMAP
70
c8
e8
50
a8
68
70
ENDCHAR
STARTCHAR DoubleT
ENCODING 116
SWIDTH 416 0
DWIDTH 5 0
BBX 6 8 0 0
BITMAP
20
60
b8
a0
a0
a0
bc
70
ENDCHAR
STARTCHAR DoubleU
ENCODING 117
SWIDTH 545 0
DWIDTH 7 0
BBX 7 7 0 0
BITMAP
8e
8a
8a
8a
8a
9a
6c
ENDCHAR
STARTCHAR DoubleV
ENCODING 118
SWIDTH 502 0
DWIDTH 7 0
BBX 6 6 0 0
BITMAP
c4
a8
68
50
50
20
ENDCHAR
STARTCHAR DoubleW
ENCODING 119
SWIDTH 742 0
DWIDTH 10 0
BBX 8 6 0 0
BITMAP
c9
e9
75
66
66
22
ENDCHAR
STARTCHAR DoubleX
ENCODING 120
SWIDTH 571 0
DWIDTH 7 0
BBX 6 6 0 0
BITMAP
e4
e8
50
28
58
9c
ENDCHAR
STARTCHAR DoubleY
ENCODING 121
SWIDTH 506 0
DWIDTH 7 0
BBX 6 9 0 -3
BITMAP
c4
e8
68
78
30
30
20
20
c0
ENDCHAR
STARTCHAR DoubleZ
ENCODING 122
SWIDTH 574 0
DWIDTH 7 0
BBX 7 6 0 0
BITMAP
7e
0e
14
28
68
fc
ENDCHAR
STARTCHAR braceleft
ENCODING 123
SWIDTH 263 0
DWIDTH 3 0
BBX 0 0 0 0
BITMAP
ENDCHAR
STARTCHAR bar
ENCODING 124
SWIDTH 263 0
DWIDTH 3 0
BBX 0 0 0 0
BITMAP
ENDCHAR
STARTCHAR braceright
ENCODING 125
SWIDTH 263 0
DWIDTH 3 0
BBX 0 0 0 0
BITMAP
ENDCHAR
STARTCHAR asciitilde
ENCODING 126
SWIDTH 263 0
DWIDTH 3 0
BBX 0 0 0 0
BITMAP
ENDCHAR
STARTCHAR DEL
ENCODING 127
SWIDTH 263 0
DWIDTH 3 0
BBX 0 0 0 0
BITMAP
ENDCHAR
STARTCHAR Adieresis
ENCODING 128
SWIDTH 263 0
DWIDTH 3 0
BBX 0 0 0 0
BITMAP
ENDCHAR
STARTCHAR Aring
ENCODING 129
SWIDTH 263 0
DWIDTH 3 0
BBX 0 0 0 0
BITMAP
ENDCHAR
STARTCHAR Ccedilla
ENCODING 130
SWIDTH 263 0
DWIDTH 3 0
BBX 0 0 0 0
BITMAP
ENDCHAR
STARTCHAR Eacute
ENCODING 131
SWIDTH 263 0
DWIDTH 3 0
BBX 0 0 0 0
BITMAP
ENDCHAR
STARTCHAR Ntilde
ENCODING 132
SWIDTH 263 0
DWIDTH 3 0
BBX 0 0 0 0
BITMAP
ENDCHAR
STARTCHAR Odieresis
ENCODING 133
SWIDTH 263 0
DWIDTH 3 0
BBX 0 0 0 0
BITMAP
ENDCHAR
STARTCHAR Udieresis
ENCODING 134
SWIDTH 263 0
DWIDTH 3 0
BBX 0 0 0 0
BITMAP
ENDCHAR
STARTCHAR aacute
ENCODING 135
SWIDTH 263 0
DWIDTH 3 0
BBX 0 0 0 0
BITMAP
ENDCHAR
STARTCHAR agrave
ENCODING 136
SWIDTH 263 0
DWIDTH 3 0
BBX 0 0 0 0
BITMAP
ENDCHAR
STARTCHAR acircumflex
ENCODING 137
SWIDTH 263 0
DWIDTH 3 0
BBX 0 0 0 0
BITMAP
ENDCHAR
STARTCHAR adieresis
ENCODING 138
SWIDTH 263 0
DWIDTH 3 0
BBX 0 0 0 0
BITMAP
ENDCHAR
STARTCHAR atilde
ENCODING 139
SWIDTH 263 0
DWIDTH 3 0
BBX 0 0 0 0
BITMAP
ENDCHAR
STARTCHAR aring
ENCODING 140
SWIDTH 263 0
DWIDTH 3 0
BBX 0 0 0 0
BITMAP
ENDCHAR
STARTCHAR ccedilla
ENCODING 141
SWIDTH 263 0
DWIDTH 3 0
BBX 0 0 0 0
BITMAP
ENDCHAR
STARTCHAR eacute
ENCODING 142
SWIDTH 263 0
DWIDTH 3 0
BBX 0 0 0 0
BITMAP
ENDCHAR
STARTCHAR egrave
ENCODING 143
SWIDTH 263 0
DWIDTH 3 0
BBX 0 0 0 0
BITMAP
ENDCHAR
STARTCHAR ecircumflex
ENCODING 144
SWIDTH 263 0
DWIDTH 3 0
BBX 0 0 0 0
BITMAP
ENDCHAR
STARTCHAR edieresis
ENCODING 145
SWIDTH 263 0
DWIDTH 3 0
BBX 0 0 0 0
BITMAP
ENDCHAR
STARTCHAR iacute
ENCODING 146
SWIDTH 263 0
DWIDTH 3 0
BBX 0 0 0 0
BITMAP
ENDCHAR
STARTCHAR igrave
ENCODING 147
SWIDTH 263 0
DWIDTH 3 0
BBX 0 0 0 0
BITMAP
ENDCHAR
STARTCHAR icircumflex
ENCODING 148
SWIDTH 263 0
DWIDTH 3 0
BBX 0 0 0 0
BITMAP
ENDCHAR
STARTCHAR idieresis
ENCODING 149
SWIDTH 263 0
DWIDTH 3 0
BBX 0 0 0 0
BITMAP
ENDCHAR
STARTCHAR ntilde
ENCODING 150
SWIDTH 263 0
DWIDTH 3 0
BBX 0 0 0 0
BITMAP
ENDCHAR
STARTCHAR oacute
ENCODING 151
SWIDTH 263 0
DWIDTH 3 0
BBX 0 0 0 0
BITMAP
ENDCHAR
STARTCHAR ograve
ENCODING 152
SWIDTH 263 0
DWIDTH 3 0
BBX 0 0 0 0
BITMAP
ENDCHAR
STARTCHAR ocircumflex
ENCODING 153
SWIDTH 263 0
DWIDTH 3 0
BBX 0 0 0 0
BITMAP
ENDCHAR
STARTCHAR odieresis
ENCODING 154
SWIDTH 263 0
DWIDTH 3 0
BBX 0 0 0 0
BITMAP
ENDCHAR
STARTCHAR otilde
ENCODING 155
SWIDTH 263 0
DWIDTH 3 0
BBX 0 0 0 0
BITMAP
ENDCHAR
STARTCHAR uacute
ENCODING 156
SWIDTH 263 0
DWIDTH 3 0
BBX 0 0 0 0
BITMAP
ENDCHAR
STARTCHAR ugrave
ENCODING 157
SWIDTH 263 0
DWIDTH 3 0
BBX 0 0 0 0
BITMAP
ENDCHAR
STARTCHAR ucircumflex
ENCODING 158
SWIDTH 263 0
DWIDTH 3 0
BBX 0 0 0 0
BITMAP
ENDCHAR
STARTCHAR udieresis
ENCODING 159
SWIDTH 263 0
DWIDTH 3 0
BBX 0 0 0 0
BITMAP
ENDCHAR
STARTCHAR dagger
ENCODING 160
SWIDTH 263 0
DWIDTH 3 0
BBX 0 0 0 0
BITMAP
ENDCHAR
STARTCHAR degree
ENCODING 161
SWIDTH 263 0
DWIDTH 3 0
BBX 0 0 0 0
BITMAP
ENDCHAR
STARTCHAR cent
ENCODING 162
SWIDTH 263 0
DWIDTH 3 0
BBX 0 0 0 0
BITMAP
ENDCHAR
STARTCHAR sterling
ENCODING 163
SWIDTH 263 0
DWIDTH 3 0
BBX 0 0 0 0
BITMAP
ENDCHAR
STARTCHAR section
ENCODING 164
SWIDTH 263 0
DWIDTH 3 0
BBX 0 0 0 0
BITMAP
ENDCHAR
STARTCHAR bullet
ENCODING 165
SWIDTH 263 0
DWIDTH 3 0
BBX 0 0 0 0
BITMAP
ENDCHAR
STARTCHAR paragraph
ENCODING 166
SWIDTH 263 0
DWIDTH 3 0
BBX 0 0 0 0
BITMAP
ENDCHAR
STARTCHAR germandbls
ENCODING 167
SWIDTH 263 0
DWIDTH 3 0
BBX 0 0 0 0
BITMAP
ENDCHAR
STARTCHAR registered
ENCODING 168
SWIDTH 263 0
DWIDTH 3 0
BBX 0 0 0 0
BITMAP
ENDCHAR
STARTCHAR copyright
ENCODING 169
SWIDTH 263 0
DWIDTH 3 0
BBX 0 0 0 0
BITMAP
ENDCHAR
STARTCHAR trademark
ENCODING 170
SWIDTH 263 0
DWIDTH 3 0
BBX 0 0 0 0
BITMAP
ENDCHAR
STARTCHAR acute
ENCODING 171
SWIDTH 263 0
DWIDTH 3 0
BBX 0 0 0 0
BITMAP
ENDCHAR
STARTCHAR dieresis
ENCODING 172
SWIDTH 263 0
DWIDTH 3 0
BBX 0 0 0 0
BITMAP
ENDCHAR
STARTCHAR notequal
ENCODING 173
SWIDTH 263 0
DWIDTH 3 0
BBX 0 0 0 0
BITMAP
ENDCHAR
STARTCHAR AE
ENCODING 174
SWIDTH 263 0
DWIDTH 3 0
BBX 0 0 0 0
BITMAP
ENDCHAR
STARTCHAR Oslash
ENCODING 175
SWIDTH 263 0
DWIDTH 3 0
BBX 0 0 0 0
BITMAP
ENDCHAR
STARTCHAR infinity
ENCODING 176
SWIDTH 263 0
DWIDTH 3 0
BBX 0 0 0 0
BITMAP
ENDCHAR
STARTCHAR plusminus
ENCODING 177
SWIDTH 263 0
DWIDTH 3 0
BBX 0 0 0 0
BITMAP
ENDCHAR
STARTCHAR lessequal
ENCODING 178
SWIDTH 263 0
DWIDTH 3 0
BBX 0 0 0 0
BITMAP
ENDCHAR
STARTCHAR greaterequal
ENCODING 179
SWIDTH 263 0
DWIDTH 3 0
BBX 0 0 0 0
BITMAP
ENDCHAR
STARTCHAR yen
ENCODING 180
SWIDTH 263 0
DWIDTH 3 0
BBX 0 0 0 0
BITMAP
ENDCHAR
STARTCHAR mu
ENCODING 181
SWIDTH 263 0
DWIDTH 3 0
BBX 0 0 0 0
BITMAP
ENDCHAR
STARTCHAR partialdiff
ENCODING 182
SWIDTH 263 0
DWIDTH 3 0
BBX 0 0 0 0
BITMAP
ENDCHAR
STARTCHAR summation
ENCODING 183
SWIDTH 263 0
DWIDTH 3 0
BBX 0 0 0 0
BITMAP
ENDCHAR
STARTCHAR product
ENCODING 184
SWIDTH 263 0
DWIDTH 3 0
BBX 0 0 0 0
BITMAP
ENDCHAR
STARTCHAR pi
ENCODING 185
SWIDTH 263 0
DWIDTH 3 0
BBX 0 0 0 0
BITMAP
ENDCHAR
STARTCHAR integral
ENCODING 186
SWIDTH 263 0
DWIDTH 3 0
BBX 0 0 0 0
BITMAP
ENDCHAR
STARTCHAR ordfeminine
ENCODING 187
SWIDTH 263 0
DWIDTH 3 0
BBX 0 0 0 0
BITMAP
ENDCHAR
STARTCHAR ordmasculine
ENCODING 188
SWIDTH 263 0
DWIDTH 3 0
BBX 0 0 0 0
BITMAP
ENDCHAR
STARTCHAR Omega
ENCODING 189
SWIDTH 263 0
DWIDTH 3 0
BBX 0 0 0 0
BITMAP
ENDCHAR
STARTCHAR ae
ENCODING 190
SWIDTH 263 0
DWIDTH 3 0
BBX 0 0 0 0
BITMAP
ENDCHAR
STARTCHAR oslash
ENCODING 191
SWIDTH 263 0
DWIDTH 3 0
BBX 0 0 0 0
BITMAP
ENDCHAR
STARTCHAR questiondown
ENCODING 192
SWIDTH 263 0
DWIDTH 3 0
BBX 0 0 0 0
BITMAP
ENDCHAR
STARTCHAR exclamdown
ENCODING 193
SWIDTH 263 0
DWIDTH 3 0
BBX 0 0 0 0
BITMAP
ENDCHAR
STARTCHAR logicalnot
ENCODING 194
SWIDTH 263 0
DWIDTH 3 0
BBX 0 0 0 0
BITMAP
ENDCHAR
STARTCHAR radical
ENCODING 195
SWIDTH 263 0
DWIDTH 3 0
BBX 0 0 0 0
BITMAP
ENDCHAR
STARTCHAR florin
ENCODING 196
SWIDTH 263 0
DWIDTH 3 0
BBX 0 0 0 0
BITMAP
ENDCHAR
STARTCHAR approxequal
ENCODING 197
SWIDTH 263 0
DWIDTH 3 0
BBX 0 0 0 0
BITMAP
ENDCHAR
STARTCHAR Delta
ENCODING 198
SWIDTH 263 0
DWIDTH 3 0
BBX 0 0 0 0
BITMAP
ENDCHAR
STARTCHAR guillemotleft
ENCODING 199
SWIDTH 263 0
DWIDTH 3 0
BBX 0 0 0 0
BITMAP
ENDCHAR
STARTCHAR guillemotright
ENCODING 200
SWIDTH 263 0
DWIDTH 3 0
BBX 0 0 0 0
BITMAP
ENDCHAR
STARTCHAR ellipsis
ENCODING 201
SWIDTH 263 0
DWIDTH 3 0
BBX 0 0 0 0
BITMAP
ENDCHAR
STARTCHAR nbspace
ENCODING 202
SWIDTH 263 0
DWIDTH 3 0
BBX 0 0 0 0
BITMAP
ENDCHAR
STARTCHAR Agrave
ENCODING 203
SWIDTH 263 0
DWIDTH 3 0
BBX 0 0 0 0
BITMAP
ENDCHAR
STARTCHAR Atilde
ENCODING 204
SWIDTH 263 0
DWIDTH 3 0
BBX 0 0 0 0
BITMAP
ENDCHAR
STARTCHAR Otilde
ENCODING 205
SWIDTH 263 0
DWIDTH 3 0
BBX 0 0 0 0
BITMAP
ENDCHAR
STARTCHAR OE
ENCODING 206
SWIDTH 263 0
DWIDTH 3 0
BBX 0 0 0 0
BITMAP
ENDCHAR
STARTCHAR oe
ENCODING 207
SWIDTH 263 0
DWIDTH 3 0
BBX 0 0 0 0
BITMAP
ENDCHAR
STARTCHAR endash
ENCODING 208
SWIDTH 263 0
DWIDTH 3 0
BBX 0 0 0 0
BITMAP
ENDCHAR
STARTCHAR emdash
ENCODING 209
SWIDTH 263 0
DWIDTH 3 0
BBX 0 0 0 0
BITMAP
ENDCHAR
STARTCHAR quotedblleft
ENCODING 210
SWIDTH 263 0
DWIDTH 3 0
BBX 0 0 0 0
BITMAP
ENDCHAR
STARTCHAR quotedblright
ENCODING 211
SWIDTH 263 0
DWIDTH 3 0
BBX 0 0 0 0
BITMAP
ENDCHAR
STARTCHAR quoteleft
ENCODING 212
SWIDTH 263 0
DWIDTH 3 0
BBX 0 0 0 0
BITMAP
ENDCHAR
STARTCHAR quoteright
ENCODING 213
SWIDTH 263 0
DWIDTH 3 0
BBX 0 0 0 0
BITMAP
ENDCHAR
STARTCHAR divide
ENCODING 214
SWIDTH 263 0
DWIDTH 3 0
BBX 0 0 0 0
BITMAP
ENDCHAR
STARTCHAR lozenge
ENCODING 215
SWIDTH 263 0
DWIDTH 3 0
BBX 0 0 0 0
BITMAP
ENDCHAR
STARTCHAR ydieresis
ENCODING 216
SWIDTH 263 0
DWIDTH 3 0
BBX 0 0 0 0
BITMAP
ENDCHAR
STARTCHAR Ydieresis
ENCODING 217
SWIDTH 263 0
DWIDTH 3 0
BBX 0 0 0 0
BITMAP
ENDCHAR
STARTCHAR fraction
ENCODING 218
SWIDTH 263 0
DWIDTH 3 0
BBX 0 0 0 0
BITMAP
ENDCHAR
STARTCHAR currency
ENCODING 219
SWIDTH 263 0
DWIDTH 3 0
BBX 0 0 0 0
BITMAP
ENDCHAR
STARTCHAR guilsinglleft
ENCODING 220
SWIDTH 263 0
DWIDTH 3 0
BBX 0 0 0 0
BITMAP
ENDCHAR
STARTCHAR guilsinglright
ENCODING 221
SWIDTH 263 0
DWIDTH 3 0
BBX 0 0 0 0
BITMAP
ENDCHAR
STARTCHAR fi
ENCODING 222
SWIDTH 263 0
DWIDTH 3 0
BBX 0 0 0 0
BITMAP
ENDCHAR
STARTCHAR fl
ENCODING 223
SWIDTH 263 0
DWIDTH 3 0
BBX 0 0 0 0
BITMAP
ENDCHAR
STARTCHAR daggerdbl
ENCODING 224
SWIDTH 263 0
DWIDTH 3 0
BBX 0 0 0 0
BITMAP
ENDCHAR
STARTCHAR periodcentered
ENCODING 225
SWIDTH 263 0
DWIDTH 3 0
BBX 0 0 0 0
BITMAP
ENDCHAR
STARTCHAR quotesinglbase
ENCODING 226
SWIDTH 263 0
DWIDTH 3 0
BBX 0 0 0 0
BITMAP
ENDCHAR
STARTCHAR quotedblbase
ENCODING 227
SWIDTH 263 0
DWIDTH 3 0
BBX 0 0 0 0
BITMAP
ENDCHAR
STARTCHAR perthousand
ENCODING 228
SWIDTH 263 0
DWIDTH 3 0
BBX 0 0 0 0
BITMAP
ENDCHAR
STARTCHAR Acircumflex
ENCODING 229
SWIDTH 263 0
DWIDTH 3 0
BBX 0 0 0 0
BITMAP
ENDCHAR
STARTCHAR Ecircumflex
ENCODING 230
SWIDTH 263 0
DWIDTH 3 0
BBX 0 0 0 0
BITMAP
ENDCHAR
STARTCHAR Aacute
ENCODING 231
SWIDTH 263 0
DWIDTH 3 0
BBX 0 0 0 0
BITMAP
ENDCHAR
STARTCHAR Edieresis
ENCODING 232
SWIDTH 263 0
DWIDTH 3 0
BBX 0 0 0 0
BITMAP
ENDCHAR
STARTCHAR Egrave
ENCODING 233
SWIDTH 263 0
DWIDTH 3 0
BBX 0 0 0 0
BITMAP
ENDCHAR
STARTCHAR Iacute
ENCODING 234
SWIDTH 263 0
DWIDTH 3 0
BBX 0 0 0 0
BITMAP
ENDCHAR
STARTCHAR Icircumflex
ENCODING 235
SWIDTH 263 0
DWIDTH 3 0
BBX 0 0 0 0
BITMAP
ENDCHAR
STARTCHAR Idieresis
ENCODING 236
SWIDTH 263 0
DWIDTH 3 0
BBX 0 0 0 0
BITMAP
ENDCHAR
STARTCHAR Igrave
ENCODING 237
SWIDTH 263 0
DWIDTH 3 0
BBX 0 0 0 0
BITMAP
ENDCHAR
STARTCHAR Oacute
ENCODING 238
SWIDTH 263 0
DWIDTH 3 0
BBX 0 0 0 0
BITMAP
ENDCHAR
STARTCHAR Ocircumflex
ENCODING 239
SWIDTH 263 0
DWIDTH 3 0
BBX 0 0 0 0
BITMAP
ENDCHAR
STARTCHAR apple
ENCODING 240
SWIDTH 263 0
DWIDTH 3 0
BBX 0 0 0 0
BITMAP
ENDCHAR
STARTCHAR Ograve
ENCODING 241
SWIDTH 263 0
DWIDTH 3 0
BBX 0 0 0 0
BITMAP
ENDCHAR
STARTCHAR Uacute
ENCODING 242
SWIDTH 263 0
DWIDTH 3 0
BBX 0 0 0 0
BITMAP
ENDCHAR
STARTCHAR Ucircumflex
ENCODING 243
SWIDTH 263 0
DWIDTH 3 0
BBX 0 0 0 0
BITMAP
ENDCHAR
STARTCHAR Ugrave
ENCODING 244
SWIDTH 263 0
DWIDTH 3 0
BBX 0 0 0 0
BITMAP
ENDCHAR
STARTCHAR dotlessi
ENCODING 245
SWIDTH 263 0
DWIDTH 3 0
BBX 0 0 0 0
BITMAP
ENDCHAR
STARTCHAR circumflex
ENCODING 246
SWIDTH 263 0
DWIDTH 3 0
BBX 0 0 0 0
BITMAP
ENDCHAR
STARTCHAR tilde
ENCODING 247
SWIDTH 263 0
DWIDTH 3 0
BBX 0 0 0 0
BITMAP
ENDCHAR
STARTCHAR macron
ENCODING 248
SWIDTH 263 0
DWIDTH 3 0
BBX 0 0 0 0
BITMAP
ENDCHAR
STARTCHAR breve
ENCODING 249
SWIDTH 263 0
DWIDTH 3 0
BBX 0 0 0 0
BITMAP
ENDCHAR
STARTCHAR dotaccent
ENCODING 250
SWIDTH 263 0
DWIDTH 3 0
BBX 0 0 0 0
BITMAP
ENDCHAR
STARTCHAR ring
ENCODING 251
SWIDTH 263 0
DWIDTH 3 0
BBX 0 0 0 0
BITMAP
ENDCHAR
STARTCHAR cedilla
ENCODING 252
SWIDTH 263 0
DWIDTH 3 0
BBX 0 0 0 0
BITMAP
ENDCHAR
STARTCHAR hungarumlaut
ENCODING 253
SWIDTH 263 0
DWIDTH 3 0
BBX 0 0 0 0
BITMAP
ENDCHAR
STARTCHAR ogonek
ENCODING 254
SWIDTH 263 0
DWIDTH 3 0
BBX 0 0 0 0
BITMAP
ENDCHAR
STARTCHAR caron
ENCODING 255
SWIDTH 263 0
DWIDTH 3 0
BBX 0 0 0 0
BITMAP
ENDCHAR
ENDFONT
