STARTFONT 2.1
FONT -WRI-Mathematica3-Medium-R-Normal--10-100-75-75-p-50-Adobe-FontSpecific
SIZE 10 75 75
FONTBOUNDINGBOX 10 10 -1 -2
STARTPROPERTIES 16
FOUNDRY "WRI"
FAMILY_NAME "Mathematica3"
WEIGHT_NAME "Medium"
SLANT "R"
SETWIDTH_NAME "Normal"
PIXEL_SIZE 10
POINT_SIZE 100
RESOLUTION_X 75
RESOLUTION_Y 75
SPACING "p"
AVERAGE_WIDTH 50
CHARSET_REGISTRY "Adobe"
CHARSET_ENCODING "FontSpecific"
FONT_DESCENT 2
FONT_ASCENT 8
DEFAULT_CHAR 32
ENDPROPERTIES
CHARS 224
STARTCHAR Space
ENCODING 32
SWIDTH 189 0
DWIDTH 2 0
BBX 0 0 0 0
BITMAP
ENDCHAR
STARTCHAR Integral
ENCODING 33
SWIDTH 305 0
DWIDTH 3 0
BBX 5 9 0 -1
BITMAP
18
10
20
20
20
20
20
20
c0
ENDCHAR
STARTCHAR ContourIntegral
ENCODING 34
SWIDTH 305 0
DWIDTH 3 0
BBX 5 9 0 -1
BITMAP
18
10
20
30
68
30
20
20
c0
ENDCHAR
STARTCHAR DblContInteg
ENCODING 35
SWIDTH 552 0
DWIDTH 6 0
BBX 7 9 0 -1
BITMAP
1e
18
28
7e
72
7e
30
30
f0
ENDCHAR
STARTCHAR CntrClckwContInteg
ENCODING 36
SWIDTH 307 0
DWIDTH 3 0
BBX 6 9 0 -1
BITMAP
18
10
20
38
7c
38
20
20
c0
ENDCHAR
STARTCHAR ClckwContInteg
ENCODING 37
SWIDTH 307 0
DWIDTH 3 0
BBX 5 9 0 -1
BITMAP
18
10
20
70
e8
70
20
20
c0
ENDCHAR
STARTCHAR SquareContInteg
ENCODING 38
SWIDTH 305 0
DWIDTH 3 0
BBX 5 9 0 -1
BITMAP
18
10
20
70
70
70
20
20
c0
ENDCHAR
STARTCHAR Intersection
ENCODING 39
SWIDTH 654 0
DWIDTH 7 0
BBX 5 6 1 0
BITMAP
70
88
88
88
88
88
ENDCHAR
STARTCHAR Union
ENCODING 40
SWIDTH 654 0
DWIDTH 7 0
BBX 5 6 1 0
BITMAP
88
88
88
88
88
70
ENDCHAR
STARTCHAR UnionPlus
ENCODING 41
SWIDTH 654 0
DWIDTH 7 0
BBX 5 6 1 0
BITMAP
88
88
a8
f8
a8
70
ENDCHAR
STARTCHAR SquareIntersection
ENCODING 42
SWIDTH 654 0
DWIDTH 7 0
BBX 5 5 1 0
BITMAP
f8
88
88
88
88
ENDCHAR
STARTCHAR SquareUnion
ENCODING 43
SWIDTH 654 0
DWIDTH 7 0
BBX 5 5 1 0
BITMAP
88
88
88
88
f8
ENDCHAR
STARTCHAR Wedge
ENCODING 44
SWIDTH 660 0
DWIDTH 7 0
BBX 5 6 1 0
BITMAP
20
50
50
50
88
88
ENDCHAR
STARTCHAR SmallWedge
ENCODING 45
SWIDTH 660 0
DWIDTH 7 0
BBX 5 4 1 1
BITMAP
20
50
50
88
ENDCHAR
STARTCHAR Vee
ENCODING 46
SWIDTH 660 0
DWIDTH 7 0
BBX 5 5 1 0
BITMAP
88
50
50
50
20
ENDCHAR
STARTCHAR SmallVee
ENCODING 47
SWIDTH 660 0
DWIDTH 7 0
BBX 5 4 1 1
BITMAP
88
50
50
20
ENDCHAR
STARTCHAR LTriangle
ENCODING 48
SWIDTH 642 0
DWIDTH 6 0
BBX 5 5 1 0
BITMAP
08
38
c8
68
18
ENDCHAR
STARTCHAR LTriangleEqual
ENCODING 49
SWIDTH 637 0
DWIDTH 6 0
BBX 5 5 1 0
BITMAP
18
e8
78
00
f8
ENDCHAR
STARTCHAR LTriangleBar
ENCODING 50
SWIDTH 759 0
DWIDTH 8 0
BBX 7 5 1 0
BITMAP
0a
3a
ca
6a
1a
ENDCHAR
STARTCHAR NotLTriangle
ENCODING 51
SWIDTH 642 0
DWIDTH 6 0
BBX 5 7 1 -1
BITMAP
10
18
38
f8
68
38
20
ENDCHAR
STARTCHAR NotLTriangleEqual
ENCODING 52
SWIDTH 637 0
DWIDTH 6 0
BBX 5 7 1 -1
BITMAP
20
38
e8
78
40
f8
40
ENDCHAR
STARTCHAR NotLTriangleBar
ENCODING 53
SWIDTH 759 0
DWIDTH 8 0
BBX 7 7 1 -1
BITMAP
10
1a
3a
fa
6a
3a
20
ENDCHAR
STARTCHAR Bar
ENCODING 54
SWIDTH 200 0
DWIDTH 2 0
BBX 1 7 1 0
BITMAP
80
80
80
80
80
80
80
ENDCHAR
STARTCHAR Parallel
ENCODING 55
SWIDTH 400 0
DWIDTH 4 0
BBX 3 7 1 0
BITMAP
a0
a0
a0
a0
a0
a0
a0
ENDCHAR
STARTCHAR TrplBar
ENCODING 56
SWIDTH 600 0
DWIDTH 6 0
BBX 5 7 1 0
BITMAP
a8
a8
a8
a8
a8
a8
a8
ENDCHAR
STARTCHAR ShortBar
ENCODING 57
SWIDTH 200 0
DWIDTH 2 0
BBX 1 5 1 0
BITMAP
80
80
80
80
80
ENDCHAR
STARTCHAR ShortParallelBar
ENCODING 58
SWIDTH 400 0
DWIDTH 4 0
BBX 3 5 1 0
BITMAP
a0
a0
a0
a0
a0
ENDCHAR
STARTCHAR BarExt
ENCODING 59
SWIDTH 200 0
DWIDTH 2 0
BBX 1 2 1 0
BITMAP
80
80
ENDCHAR
STARTCHAR Tangental
ENCODING 60
SWIDTH 492 0
DWIDTH 5 0
BBX 4 7 0 0
BITMAP
50
50
50
f0
a0
a0
a0
ENDCHAR
STARTCHAR NotTildeFullEqual
ENCODING 61
SWIDTH 644 0
DWIDTH 6 0
BBX 4 7 1 -1
BITMAP
70
a0
20
f0
40
f0
40
ENDCHAR
STARTCHAR TildeEqual
ENCODING 62
SWIDTH 644 0
DWIDTH 6 0
BBX 5 3 1 1
BITMAP
48
b0
f8
ENDCHAR
STARTCHAR EqualTilde
ENCODING 63
SWIDTH 644 0
DWIDTH 6 0
BBX 5 3 1 0
BITMAP
f8
48
b0
ENDCHAR
STARTCHAR RTriangle
ENCODING 64
SWIDTH 642 0
DWIDTH 6 0
BBX 5 5 1 0
BITMAP
80
e0
98
b0
c0
ENDCHAR
STARTCHAR RTriangleEqual
ENCODING 65
SWIDTH 637 0
DWIDTH 6 0
BBX 5 5 1 0
BITMAP
c0
b8
f0
00
f8
ENDCHAR
STARTCHAR RTriangleBar
ENCODING 66
SWIDTH 759 0
DWIDTH 8 0
BBX 7 5 0 0
BITMAP
a0
b8
a6
ac
b0
ENDCHAR
STARTCHAR NotRTriangle
ENCODING 67
SWIDTH 642 0
DWIDTH 6 0
BBX 5 7 1 -1
BITMAP
20
a0
e0
b8
f0
c0
40
ENDCHAR
STARTCHAR NotRTriangleEqual
ENCODING 68
SWIDTH 637 0
DWIDTH 6 0
BBX 5 7 1 -1
BITMAP
20
e0
b8
f0
40
f8
40
ENDCHAR
STARTCHAR NotRTriangleBar
ENCODING 69
SWIDTH 759 0
DWIDTH 8 0
BBX 7 7 0 -1
BITMAP
10
b0
b8
b6
ac
b0
20
ENDCHAR
STARTCHAR NotBar
ENCODING 70
SWIDTH 416 0
DWIDTH 4 0
BBX 4 7 0 0
BITMAP
20
20
30
60
e0
20
20
ENDCHAR
STARTCHAR NotParallelBar
ENCODING 71
SWIDTH 658 0
DWIDTH 7 0
BBX 6 7 0 0
BITMAP
28
2c
38
38
68
e8
28
ENDCHAR
STARTCHAR NotTrplBar
ENCODING 72
SWIDTH 752 0
DWIDTH 8 0
BBX 7 7 0 0
BITMAP
56
5c
5c
54
74
74
d4
ENDCHAR
STARTCHAR ShortNotBar
ENCODING 73
SWIDTH 374 0
DWIDTH 4 0
BBX 4 5 0 0
BITMAP
20
30
60
e0
20
ENDCHAR
STARTCHAR ShortNotParallelBar
ENCODING 74
SWIDTH 527 0
DWIDTH 5 0
BBX 5 5 0 0
BITMAP
58
50
70
50
d0
ENDCHAR
STARTCHAR ParallelExt
ENCODING 75
SWIDTH 400 0
DWIDTH 4 0
BBX 3 2 1 0
BITMAP
a0
a0
ENDCHAR
STARTCHAR NotTilde
ENCODING 76
SWIDTH 644 0
DWIDTH 6 0
BBX 5 5 1 0
BITMAP
10
10
78
b0
20
ENDCHAR
STARTCHAR NotTildeTilde
ENCODING 77
SWIDTH 644 0
DWIDTH 6 0
BBX 5 6 1 -1
BITMAP
10
58
b0
68
b0
20
ENDCHAR
STARTCHAR NotTildeEqual
ENCODING 78
SWIDTH 644 0
DWIDTH 6 0
BBX 5 5 1 0
BITMAP
10
58
b0
f8
20
ENDCHAR
STARTCHAR NotEqualTilde
ENCODING 79
SWIDTH 644 0
DWIDTH 6 0
BBX 5 5 1 0
BITMAP
10
f8
78
b0
20
ENDCHAR
STARTCHAR HumpEqual
ENCODING 80
SWIDTH 644 0
DWIDTH 6 0
BBX 5 4 1 1
BITMAP
70
d8
00
f8
ENDCHAR
STARTCHAR HumpDownHump
ENCODING 81
SWIDTH 644 0
DWIDTH 6 0
BBX 5 5 1 0
BITMAP
70
d8
00
d8
70
ENDCHAR
STARTCHAR NotHumpEqual
ENCODING 82
SWIDTH 644 0
DWIDTH 6 0
BBX 5 7 1 -1
BITMAP
20
70
f8
60
f8
40
40
ENDCHAR
STARTCHAR NotHumpDownHump
ENCODING 83
SWIDTH 644 0
DWIDTH 6 0
BBX 6 7 1 -1
BITMAP
20
38
ec
60
ec
78
40
ENDCHAR
STARTCHAR NotCongruent
ENCODING 84
SWIDTH 644 0
DWIDTH 6 0
BBX 4 7 1 -1
BITMAP
20
f0
20
f0
40
f0
40
ENDCHAR
STARTCHAR DotEqual
ENCODING 85
SWIDTH 644 0
DWIDTH 6 0
BBX 5 5 1 1
BITMAP
20
00
f8
00
f8
ENDCHAR
STARTCHAR RoundImplies
ENCODING 86
SWIDTH 657 0
DWIDTH 7 0
BBX 5 3 1 1
BITMAP
f8
08
f8
ENDCHAR
STARTCHAR Equal
ENCODING 87
SWIDTH 422 0
DWIDTH 4 0
BBX 4 3 0 1
BITMAP
f0
00
f0
ENDCHAR
STARTCHAR TrplEqual
ENCODING 88
SWIDTH 1006 0
DWIDTH 10 0
BBX 9 3 0 1
BITMAP
ff80
0000
ff80
ENDCHAR
STARTCHAR FrownEqual
ENCODING 89
SWIDTH 658 0
DWIDTH 7 0
BBX 5 4 1 0
BITMAP
70
88
00
f8
ENDCHAR
STARTCHAR SmileEqual
ENCODING 90
SWIDTH 658 0
DWIDTH 7 0
BBX 5 4 1 0
BITMAP
f8
00
88
70
ENDCHAR
STARTCHAR Frown
ENCODING 91
SWIDTH 658 0
DWIDTH 7 0
BBX 5 2 1 2
BITMAP
70
88
ENDCHAR
STARTCHAR Smile
ENCODING 92
SWIDTH 658 0
DWIDTH 7 0
BBX 5 2 1 1
BITMAP
88
70
ENDCHAR
STARTCHAR FrownSmile
ENCODING 93
SWIDTH 658 0
DWIDTH 7 0
BBX 5 5 1 -1
BITMAP
70
88
00
88
70
ENDCHAR
STARTCHAR SmileFrown
ENCODING 94
SWIDTH 658 0
DWIDTH 7 0
BBX 5 5 1 -1
BITMAP
88
70
00
70
88
ENDCHAR
STARTCHAR NotSmileFrown
ENCODING 95
SWIDTH 658 0
DWIDTH 7 0
BBX 5 7 1 -1
BITMAP
20
20
a8
70
40
70
c8
ENDCHAR
STARTCHAR LessLess
ENCODING 96
SWIDTH 938 0
DWIDTH 9 0
BBX 8 5 1 0
BITMAP
09
36
d8
6c
1b
ENDCHAR
STARTCHAR DblLess
ENCODING 97
SWIDTH 768 0
DWIDTH 8 0
BBX 6 5 1 0
BITMAP
0c
34
d8
7c
0c
ENDCHAR
STARTCHAR LessSlantEqual
ENCODING 98
SWIDTH 644 0
DWIDTH 6 0
BBX 5 5 1 0
BITMAP
18
e0
f8
70
08
ENDCHAR
STARTCHAR LessFullEqual
ENCODING 99
SWIDTH 644 0
DWIDTH 6 0
BBX 5 7 1 -2
BITMAP
18
e0
78
00
f8
00
f8
ENDCHAR
STARTCHAR LessTilde
ENCODING 100
SWIDTH 644 0
DWIDTH 6 0
BBX 5 5 1 0
BITMAP
18
e0
78
c8
b8
ENDCHAR
STARTCHAR NotLess
ENCODING 101
SWIDTH 644 0
DWIDTH 6 0
BBX 5 7 1 -1
BITMAP
10
18
30
f0
60
38
20
ENDCHAR
STARTCHAR NotLessLess
ENCODING 102
SWIDTH 938 0
DWIDTH 9 0
BBX 8 7 1 -1
BITMAP
08
09
3e
d8
74
1b
10
ENDCHAR
STARTCHAR NotDblLess
ENCODING 103
SWIDTH 768 0
DWIDTH 8 0
BBX 6 7 1 -1
BITMAP
10
14
3c
f8
7c
2c
20
ENDCHAR
STARTCHAR NotLessEqual
ENCODING 104
SWIDTH 644 0
DWIDTH 6 0
BBX 5 7 1 -1
BITMAP
10
18
f0
78
20
f8
20
ENDCHAR
STARTCHAR NotLessSlantEqual
ENCODING 105
SWIDTH 644 0
DWIDTH 6 0
BBX 5 7 1 -1
BITMAP
10
18
f0
f8
70
28
20
ENDCHAR
STARTCHAR NotLessFullEqual
ENCODING 106
SWIDTH 644 0
DWIDTH 6 0
BBX 5 8 1 -2
BITMAP
10
18
e0
78
20
f8
40
f8
ENDCHAR
STARTCHAR NotLessTilde
ENCODING 107
SWIDTH 644 0
DWIDTH 6 0
BBX 5 7 1 -1
BITMAP
10
18
f0
78
e8
b8
20
ENDCHAR
STARTCHAR SquareSubset
ENCODING 108
SWIDTH 633 0
DWIDTH 6 0
BBX 5 5 1 0
BITMAP
f8
80
80
80
f8
ENDCHAR
STARTCHAR SquareSubsetEqual
ENCODING 109
SWIDTH 633 0
DWIDTH 6 0
BBX 5 7 1 -1
BITMAP
f8
80
80
80
f8
00
f8
ENDCHAR
STARTCHAR NotSquareSubset
ENCODING 110
SWIDTH 633 0
DWIDTH 6 0
BBX 5 7 1 -1
BITMAP
20
f8
a0
e0
c0
f8
40
ENDCHAR
STARTCHAR NotSqrSubsetEqual
ENCODING 111
SWIDTH 633 0
DWIDTH 6 0
BBX 5 8 1 -2
BITMAP
f8
90
a0
a0
f8
20
f8
40
ENDCHAR
STARTCHAR GrtrGrtr
ENCODING 112
SWIDTH 938 0
DWIDTH 9 0
BBX 8 5 1 0
BITMAP
90
6c
1b
36
d8
ENDCHAR
STARTCHAR DblGrtr
ENCODING 113
SWIDTH 768 0
DWIDTH 8 0
BBX 6 5 1 0
BITMAP
c0
b0
6c
f8
c0
ENDCHAR
STARTCHAR GrtrSlantEqual
ENCODING 114
SWIDTH 644 0
DWIDTH 6 0
BBX 5 5 1 0
BITMAP
c0
38
f8
70
80
ENDCHAR
STARTCHAR GrtrFullEqual
ENCODING 115
SWIDTH 644 0
DWIDTH 6 0
BBX 5 7 1 -2
BITMAP
c0
38
f0
00
f8
00
f8
ENDCHAR
STARTCHAR GrtrTilde
ENCODING 116
SWIDTH 644 0
DWIDTH 6 0
BBX 5 5 1 0
BITMAP
c0
38
f0
c8
b8
ENDCHAR
STARTCHAR NotGrtr
ENCODING 117
SWIDTH 644 0
DWIDTH 6 0
BBX 5 7 1 -1
BITMAP
10
90
70
18
20
e0
20
ENDCHAR
STARTCHAR NotGrtrGrtr
ENCODING 118
SWIDTH 938 0
DWIDTH 9 0
BBX 8 7 1 -1
BITMAP
08
98
6c
1b
36
d8
10
ENDCHAR
STARTCHAR NotDblGrtr
ENCODING 119
SWIDTH 768 0
DWIDTH 8 0
BBX 6 7 1 -1
BITMAP
10
d0
b0
7c
f8
e0
20
ENDCHAR
STARTCHAR NotGrtrEqual
ENCODING 120
SWIDTH 644 0
DWIDTH 6 0
BBX 5 7 1 -1
BITMAP
20
e0
38
f0
40
f8
40
ENDCHAR
STARTCHAR NotGrtrSlantEqual
ENCODING 121
SWIDTH 644 0
DWIDTH 6 0
BBX 5 6 1 -1
BITMAP
e0
38
d0
38
c0
40
ENDCHAR
STARTCHAR NotGrtrFullEqual
ENCODING 122
SWIDTH 644 0
DWIDTH 6 0
BBX 5 8 1 -2
BITMAP
10
d0
28
f0
20
f8
40
f8
ENDCHAR
STARTCHAR NotGrtrTilde
ENCODING 123
SWIDTH 644 0
DWIDTH 6 0
BBX 5 7 1 -1
BITMAP
20
e0
38
f0
c8
f8
40
ENDCHAR
STARTCHAR SquareSprset
ENCODING 124
SWIDTH 633 0
DWIDTH 6 0
BBX 5 5 1 0
BITMAP
f8
08
08
08
f8
ENDCHAR
STARTCHAR SquareSprsetEqual
ENCODING 125
SWIDTH 633 0
DWIDTH 6 0
BBX 5 7 1 -1
BITMAP
f8
08
08
08
f8
00
f8
ENDCHAR
STARTCHAR NotSquareSprset
ENCODING 126
SWIDTH 633 0
DWIDTH 6 0
BBX 5 7 1 -1
BITMAP
10
f8
18
18
28
f8
20
ENDCHAR
STARTCHAR DEL
ENCODING 127
SWIDTH 189 0
DWIDTH 2 0
BBX 0 0 0 0
BITMAP
ENDCHAR
STARTCHAR Prcds
ENCODING 128
SWIDTH 644 0
DWIDTH 6 0
BBX 5 5 1 1
BITMAP
08
30
c0
30
08
ENDCHAR
STARTCHAR PrcdsEqual
ENCODING 129
SWIDTH 644 0
DWIDTH 6 0
BBX 5 6 1 0
BITMAP
08
10
e0
30
08
f8
ENDCHAR
STARTCHAR PrcdsSlantEqual
ENCODING 130
SWIDTH 644 0
DWIDTH 6 0
BBX 5 6 1 0
BITMAP
08
10
e0
30
e8
18
ENDCHAR
STARTCHAR PrcdsTilde
ENCODING 131
SWIDTH 644 0
DWIDTH 6 0
BBX 5 6 1 0
BITMAP
08
10
e0
30
c8
b8
ENDCHAR
STARTCHAR NotPrcds
ENCODING 132
SWIDTH 644 0
DWIDTH 6 0
BBX 5 7 1 -1
BITMAP
18
30
d0
30
28
20
20
ENDCHAR
STARTCHAR NotPrcdsEqual
ENCODING 133
SWIDTH 644 0
DWIDTH 6 0
BBX 5 7 1 -1
BITMAP
18
10
f0
30
28
f8
20
ENDCHAR
STARTCHAR NotPrcdsSlantEqual
ENCODING 134
SWIDTH 644 0
DWIDTH 6 0
BBX 5 7 1 -1
BITMAP
18
10
f0
30
e8
38
20
ENDCHAR
STARTCHAR NotPrcdsTilde
ENCODING 135
SWIDTH 644 0
DWIDTH 6 0
BBX 5 7 1 -1
BITMAP
18
10
f0
30
e8
b8
20
ENDCHAR
STARTCHAR LessGrtr
ENCODING 136
SWIDTH 644 0
DWIDTH 6 0
BBX 5 6 1 0
BITMAP
18
e0
78
c0
38
f0
ENDCHAR
STARTCHAR NotLessGrtr
ENCODING 137
SWIDTH 644 0
DWIDTH 6 0
BBX 5 8 1 -1
BITMAP
10
18
e0
78
e0
38
d0
40
ENDCHAR
STARTCHAR LessEqualGrtr
ENCODING 138
SWIDTH 644 0
DWIDTH 6 0
BBX 5 9 1 -2
BITMAP
18
e0
78
00
f8
00
c0
38
f0
ENDCHAR
STARTCHAR Because
ENCODING 139
SWIDTH 629 0
DWIDTH 6 0
BBX 5 5 1 0
BITMAP
88
00
00
00
20
ENDCHAR
STARTCHAR NotSqrSprsetEqual
ENCODING 140
SWIDTH 633 0
DWIDTH 6 0
BBX 5 8 1 -2
BITMAP
f8
18
28
28
f8
20
f8
40
ENDCHAR
STARTCHAR NotSubsetEqual
ENCODING 141
SWIDTH 657 0
DWIDTH 7 0
BBX 5 8 1 -2
BITMAP
10
78
a0
a0
a0
78
40
f8
ENDCHAR
STARTCHAR NotSprset
ENCODING 142
SWIDTH 657 0
DWIDTH 7 0
BBX 5 7 1 -1
BITMAP
20
f0
28
68
48
f0
40
ENDCHAR
STARTCHAR NotSprsetEqual
ENCODING 143
SWIDTH 657 0
DWIDTH 7 0
BBX 5 8 1 -2
BITMAP
10
f0
28
28
28
f0
40
f8
ENDCHAR
STARTCHAR Succds
ENCODING 144
SWIDTH 644 0
DWIDTH 6 0
BBX 5 5 0 1
BITMAP
80
60
18
60
80
ENDCHAR
STARTCHAR SuccdsEqual
ENCODING 145
SWIDTH 644 0
DWIDTH 6 0
BBX 5 6 0 0
BITMAP
80
40
38
60
80
f8
ENDCHAR
STARTCHAR SuccdsSlantEqual
ENCODING 146
SWIDTH 644 0
DWIDTH 6 0
BBX 5 7 0 -1
BITMAP
80
40
38
60
b8
c0
80
ENDCHAR
STARTCHAR SuccdsTilde
ENCODING 147
SWIDTH 644 0
DWIDTH 6 0
BBX 5 6 1 0
BITMAP
80
40
38
60
c8
b8
ENDCHAR
STARTCHAR NotSuccds
ENCODING 148
SWIDTH 644 0
DWIDTH 6 0
BBX 5 7 1 -1
BITMAP
a0
60
38
60
c0
40
40
ENDCHAR
STARTCHAR NotSuccdsEqual
ENCODING 149
SWIDTH 644 0
DWIDTH 6 0
BBX 5 7 1 -1
BITMAP
a0
60
38
60
c0
f8
40
ENDCHAR
STARTCHAR NotSuccdsSlantEqual
ENCODING 150
SWIDTH 644 0
DWIDTH 6 0
BBX 5 7 1 -1
BITMAP
a0
60
38
60
f8
c0
c0
ENDCHAR
STARTCHAR NotSuccdsTilde
ENCODING 151
SWIDTH 644 0
DWIDTH 6 0
BBX 5 7 1 -1
BITMAP
a0
60
38
60
c8
f8
40
ENDCHAR
STARTCHAR GrtrLess
ENCODING 152
SWIDTH 644 0
DWIDTH 6 0
BBX 5 6 1 0
BITMAP
c0
38
f0
18
e0
78
ENDCHAR
STARTCHAR NotGrtrLess
ENCODING 153
SWIDTH 644 0
DWIDTH 6 0
BBX 5 8 1 -1
BITMAP
10
d0
28
f0
38
e0
58
40
ENDCHAR
STARTCHAR GrtrEqualLess
ENCODING 154
SWIDTH 644 0
DWIDTH 6 0
BBX 5 9 1 -2
BITMAP
c0
38
f0
00
f8
00
18
e0
78
ENDCHAR
STARTCHAR Proportion
ENCODING 155
SWIDTH 629 0
DWIDTH 6 0
BBX 5 5 1 0
BITMAP
88
00
00
00
88
ENDCHAR
STARTCHAR Member
ENCODING 156
SWIDTH 657 0
DWIDTH 7 0
BBX 5 5 1 0
BITMAP
f0
08
f8
08
f0
ENDCHAR
STARTCHAR NotMember
ENCODING 157
SWIDTH 657 0
DWIDTH 7 0
BBX 5 7 1 -1
BITMAP
20
f0
28
f8
48
f0
40
ENDCHAR
STARTCHAR CircleMinus
ENCODING 158
SWIDTH 797 0
DWIDTH 8 0
BBX 7 7 1 -1
BITMAP
38
44
82
fe
82
44
38
ENDCHAR
STARTCHAR CircleDot
ENCODING 159
SWIDTH 797 0
DWIDTH 8 0
BBX 7 7 1 -1
BITMAP
38
44
82
92
82
44
38
ENDCHAR
STARTCHAR EqualParallel
ENCODING 160
SWIDTH 725 0
DWIDTH 7 0
BBX 7 6 0 -1
BITMAP
28
28
fe
28
fe
28
ENDCHAR
STARTCHAR MinusPlus
ENCODING 161
SWIDTH 644 0
DWIDTH 6 0
BBX 5 7 1 0
BITMAP
f8
00
20
20
f8
20
20
ENDCHAR
STARTCHAR RTack
ENCODING 162
SWIDTH 466 0
DWIDTH 5 0
BBX 3 6 1 0
BITMAP
80
80
80
e0
80
80
ENDCHAR
STARTCHAR DblRTack
ENCODING 163
SWIDTH 466 0
DWIDTH 5 0
BBX 3 6 1 0
BITMAP
80
80
e0
80
e0
80
ENDCHAR
STARTCHAR LTack
ENCODING 164
SWIDTH 466 0
DWIDTH 5 0
BBX 3 6 1 0
BITMAP
20
20
20
e0
20
20
ENDCHAR
STARTCHAR DblLTack
ENCODING 165
SWIDTH 466 0
DWIDTH 5 0
BBX 3 6 1 0
BITMAP
20
20
e0
20
e0
20
ENDCHAR
STARTCHAR UpTee
ENCODING 166
SWIDTH 680 0
DWIDTH 7 0
BBX 6 3 0 1
BITMAP
10
10
fc
ENDCHAR
STARTCHAR DownTee
ENCODING 167
SWIDTH 680 0
DWIDTH 7 0
BBX 6 3 0 1
BITMAP
fc
10
10
ENDCHAR
STARTCHAR DownTeeLong
ENCODING 168
SWIDTH 712 0
DWIDTH 7 0
BBX 7 6 0 0
BITMAP
fe
10
10
10
10
10
ENDCHAR
STARTCHAR Between
ENCODING 169
SWIDTH 410 0
DWIDTH 4 0
BBX 3 9 1 -2
BITMAP
a0
c0
a0
a0
a0
a0
a0
c0
a0
ENDCHAR
STARTCHAR VertTilde
ENCODING 170
SWIDTH 264 0
DWIDTH 3 0
BBX 2 6 1 0
BITMAP
80
40
40
80
80
c0
ENDCHAR
STARTCHAR HorizHourglass
ENCODING 171
SWIDTH 600 0
DWIDTH 6 0
BBX 5 3 1 1
BITMAP
88
f8
d8
ENDCHAR
STARTCHAR RightAngle
ENCODING 172
SWIDTH 486 0
DWIDTH 5 0
BBX 4 5 1 0
BITMAP
80
80
e0
a0
f0
ENDCHAR
STARTCHAR MeasuredAngle
ENCODING 173
SWIDTH 486 0
DWIDTH 5 0
BBX 3 5 1 0
BITMAP
40
40
c0
a0
e0
ENDCHAR
STARTCHAR SphericalAngle
ENCODING 174
SWIDTH 509 0
DWIDTH 5 0
BBX 4 5 1 0
BITMAP
10
30
e0
30
10
ENDCHAR
STARTCHAR Diameter
ENCODING 175
SWIDTH 697 0
DWIDTH 7 0
BBX 7 6 1 0
BITMAP
7e
cc
9c
b4
ec
f8
ENDCHAR
STARTCHAR Mho
ENCODING 176
SWIDTH 768 0
DWIDTH 8 0
BBX 8 7 0 0
BITMAP
e7
c5
42
42
42
66
3c
ENDCHAR
STARTCHAR NotExists
ENCODING 177
SWIDTH 587 0
DWIDTH 6 0
BBX 5 9 0 -1
BITMAP
10
f8
28
28
78
28
28
f8
40
ENDCHAR
STARTCHAR CapDigamma
ENCODING 178
SWIDTH 589 0
DWIDTH 6 0
BBX 5 7 0 0
BITMAP
f8
48
40
70
40
40
e0
ENDCHAR
STARTCHAR CapStigma
ENCODING 179
SWIDTH 625 0
DWIDTH 6 0
BBX 6 9 0 -2
BITMAP
3c
40
80
80
80
c0
20
10
70
ENDCHAR
STARTCHAR CapKoppa
ENCODING 180
SWIDTH 608 0
DWIDTH 6 0
BBX 5 7 0 0
BITMAP
70
88
88
88
70
20
20
ENDCHAR
STARTCHAR CapSampi
ENCODING 181
SWIDTH 661 0
DWIDTH 7 0
BBX 7 7 0 0
BITMAP
38
44
06
0e
3a
54
98
ENDCHAR
STARTCHAR CurlyEpsilon
ENCODING 182
SWIDTH 481 0
DWIDTH 5 0
BBX 5 5 0 0
BITMAP
38
40
30
c8
f0
ENDCHAR
STARTCHAR FinalSigma
ENCODING 183
SWIDTH 499 0
DWIDTH 5 0
BBX 5 7 0 -2
BITMAP
38
48
48
d0
f0
80
f0
ENDCHAR
STARTCHAR Digamma
ENCODING 184
SWIDTH 458 0
DWIDTH 5 0
BBX 5 7 0 -2
BITMAP
38
40
70
40
40
80
80
ENDCHAR
STARTCHAR Stigma
ENCODING 185
SWIDTH 523 0
DWIDTH 5 0
BBX 5 7 0 -2
BITMAP
78
80
80
c0
20
10
70
ENDCHAR
STARTCHAR Koppa
ENCODING 186
SWIDTH 455 0
DWIDTH 5 0
BBX 4 5 0 0
BITMAP
70
90
90
e0
40
ENDCHAR
STARTCHAR Sampi
ENCODING 187
SWIDTH 404 0
DWIDTH 4 0
BBX 4 5 0 0
BITMAP
e0
10
70
e0
c0
ENDCHAR
STARTCHAR Bet
ENCODING 188
SWIDTH 642 0
DWIDTH 6 0
BBX 5 7 0 0
BITMAP
f8
08
08
08
08
f8
f8
ENDCHAR
STARTCHAR Gimel
ENCODING 189
SWIDTH 315 0
DWIDTH 3 0
BBX 3 7 0 0
BITMAP
e0
60
20
20
20
e0
c0
ENDCHAR
STARTCHAR Dalet
ENCODING 190
SWIDTH 532 0
DWIDTH 5 0
BBX 5 7 0 0
BITMAP
f8
08
08
08
08
08
08
ENDCHAR
STARTCHAR Aleph
ENCODING 191
SWIDTH 465 0
DWIDTH 5 0
BBX 4 5 0 0
BITMAP
60
30
30
50
90
ENDCHAR
STARTCHAR CapYAcute
ENCODING 192
SWIDTH 722 0
DWIDTH 7 0
BBX 5 8 1 0
BITMAP
08
30
c8
48
70
20
20
20
ENDCHAR
STARTCHAR YAcute
ENCODING 193
SWIDTH 499 0
DWIDTH 5 0
BBX 5 9 0 -2
BITMAP
10
20
d8
50
30
20
20
20
c0
ENDCHAR
STARTCHAR CapEth
ENCODING 194
SWIDTH 722 0
DWIDTH 7 0
BBX 6 7 0 0
BITMAP
f0
4c
44
e4
44
48
f8
ENDCHAR
STARTCHAR Eth
ENCODING 195
SWIDTH 500 0
DWIDTH 5 0
BBX 4 7 0 0
BITMAP
70
a0
60
90
90
90
60
ENDCHAR
STARTCHAR CapThorn
ENCODING 196
SWIDTH 556 0
DWIDTH 6 0
BBX 5 7 0 0
BITMAP
e0
40
70
48
70
40
e0
ENDCHAR
STARTCHAR Thorn
ENCODING 197
SWIDTH 502 0
DWIDTH 5 0
BBX 5 10 0 -2
BITMAP
c0
40
40
70
48
48
48
70
40
e0
ENDCHAR
STARTCHAR CapLSlash
ENCODING 198
SWIDTH 659 0
DWIDTH 7 0
BBX 6 7 0 0
BITMAP
e0
50
60
60
40
c4
fc
ENDCHAR
STARTCHAR LSlash
ENCODING 199
SWIDTH 349 0
DWIDTH 3 0
BBX 3 8 0 0
BITMAP
c0
40
60
40
40
c0
40
e0
ENDCHAR
STARTCHAR DownQuestion
ENCODING 200
SWIDTH 444 0
DWIDTH 4 0
BBX 4 7 0 -2
BITMAP
40
00
40
40
80
90
70
ENDCHAR
STARTCHAR Cent
ENCODING 201
SWIDTH 444 0
DWIDTH 4 0
BBX 4 7 0 -1
BITMAP
20
70
90
80
90
60
20
ENDCHAR
STARTCHAR Nbspace
ENCODING 202
SWIDTH 189 0
DWIDTH 2 0
BBX 0 0 0 0
BITMAP
ENDCHAR
STARTCHAR Sterling
ENCODING 203
SWIDTH 610 0
DWIDTH 6 0
BBX 6 7 0 0
BITMAP
1c
20
20
f8
e4
a4
d8
ENDCHAR
STARTCHAR DownExclamation
ENCODING 204
SWIDTH 333 0
DWIDTH 3 0
BBX 1 7 1 -2
BITMAP
80
00
80
80
80
80
80
ENDCHAR
STARTCHAR Section
ENCODING 205
SWIDTH 496 0
DWIDTH 5 0
BBX 4 8 1 -1
BITMAP
f0
90
40
e0
90
70
90
f0
ENDCHAR
STARTCHAR Paragraph
ENCODING 206
SWIDTH 544 0
DWIDTH 5 0
BBX 5 9 0 -2
BITMAP
78
a8
a8
68
28
28
28
28
28
ENDCHAR
STARTCHAR Yen
ENCODING 207
SWIDTH 590 0
DWIDTH 6 0
BBX 5 7 1 0
BITMAP
d8
50
70
f8
20
20
70
ENDCHAR
STARTCHAR Micro
ENCODING 208
SWIDTH 528 0
DWIDTH 5 0
BBX 5 7 0 -2
BITMAP
48
48
d0
90
f8
80
80
ENDCHAR
STARTCHAR HBar
ENCODING 209
SWIDTH 516 0
DWIDTH 5 0
BBX 5 7 0 0
BITMAP
70
e0
38
68
48
50
98
ENDCHAR
STARTCHAR DotlessI
ENCODING 210
SWIDTH 278 0
DWIDTH 3 0
BBX 3 5 0 0
BITMAP
40
c0
40
40
e0
ENDCHAR
STARTCHAR ItalDotlessI
ENCODING 211
SWIDTH 243 0
DWIDTH 2 0
BBX 3 5 0 0
BITMAP
40
40
40
e0
c0
ENDCHAR
STARTCHAR DotlessJ
ENCODING 212
SWIDTH 278 0
DWIDTH 3 0
BBX 3 7 -1 -2
BITMAP
20
60
20
20
20
20
c0
ENDCHAR
STARTCHAR ItalDotlessJ
ENCODING 213
SWIDTH 334 0
DWIDTH 3 0
BBX 4 7 0 -2
BITMAP
30
10
10
30
20
20
c0
ENDCHAR
STARTCHAR Dagger
ENCODING 214
SWIDTH 534 0
DWIDTH 5 0
BBX 5 8 0 -1
BITMAP
20
20
f8
20
20
20
20
20
ENDCHAR
STARTCHAR DoubleDagger
ENCODING 215
SWIDTH 479 0
DWIDTH 5 0
BBX 5 8 0 -1
BITMAP
20
20
f8
20
20
f8
20
20
ENDCHAR
STARTCHAR Degree
ENCODING 216
SWIDTH 364 0
DWIDTH 4 0
BBX 3 3 0 4
BITMAP
e0
a0
e0
ENDCHAR
STARTCHAR Flat
ENCODING 217
SWIDTH 415 0
DWIDTH 4 0
BBX 3 7 1 0
BITMAP
80
80
e0
a0
a0
c0
80
ENDCHAR
STARTCHAR Natural
ENCODING 218
SWIDTH 377 0
DWIDTH 4 0
BBX 3 9 1 -2
BITMAP
80
80
a0
e0
a0
a0
e0
a0
20
ENDCHAR
STARTCHAR Sharp
ENCODING 219
SWIDTH 402 0
DWIDTH 4 0
BBX 5 9 0 -2
BITMAP
10
50
78
f0
50
50
78
f0
40
ENDCHAR
STARTCHAR QuestionBox
ENCODING 220
SWIDTH 913 0
DWIDTH 9 0
BBX 7 7 1 0
BITMAP
fe
ba
aa
92
82
92
fe
ENDCHAR
STARTCHAR ErrorIndicator
ENCODING 221
SWIDTH 868 0
DWIDTH 9 0
BBX 7 5 1 0
BITMAP
fe
92
aa
c6
fe
ENDCHAR
STARTCHAR Angstrom
ENCODING 222
SWIDTH 565 0
DWIDTH 6 0
BBX 5 7 0 0
BITMAP
60
60
20
60
50
70
88
ENDCHAR
STARTCHAR LamdaSlash
ENCODING 223
SWIDTH 514 0
DWIDTH 5 0
BBX 5 7 0 0
BITMAP
40
28
70
20
60
a0
98
ENDCHAR
STARTCHAR SolidSquare
ENCODING 224
SWIDTH 674 0
DWIDTH 7 0
BBX 6 5 1 0
BITMAP
fc
fc
fc
fc
fc
ENDCHAR
STARTCHAR Square
ENCODING 225
SWIDTH 674 0
DWIDTH 7 0
BBX 6 5 1 0
BITMAP
fc
84
84
84
fc
ENDCHAR
STARTCHAR MedSolidSquare
ENCODING 226
SWIDTH 519 0
DWIDTH 5 0
BBX 4 4 1 1
BITMAP
f0
f0
f0
f0
ENDCHAR
STARTCHAR MedEmptySquare
ENCODING 227
SWIDTH 519 0
DWIDTH 5 0
BBX 4 4 1 1
BITMAP
f0
90
90
f0
ENDCHAR
STARTCHAR SmallSolidSquare
ENCODING 228
SWIDTH 374 0
DWIDTH 4 0
BBX 3 3 1 1
BITMAP
e0
e0
e0
ENDCHAR
STARTCHAR SmallEmptySquare
ENCODING 229
SWIDTH 374 0
DWIDTH 4 0
BBX 3 3 1 1
BITMAP
e0
a0
e0
ENDCHAR
STARTCHAR SolidCircle
ENCODING 230
SWIDTH 719 0
DWIDTH 7 0
BBX 6 6 0 0
BITMAP
78
fc
fc
fc
fc
78
ENDCHAR
STARTCHAR Circle
ENCODING 231
SWIDTH 719 0
DWIDTH 7 0
BBX 6 6 0 1
BITMAP
78
cc
84
84
cc
78
ENDCHAR
STARTCHAR Bullet
ENCODING 232
SWIDTH 480 0
DWIDTH 5 0
BBX 4 4 0 1
BITMAP
60
f0
f0
60
ENDCHAR
STARTCHAR SmallCircle
ENCODING 233
SWIDTH 480 0
DWIDTH 5 0
BBX 4 4 0 1
BITMAP
60
90
90
60
ENDCHAR
STARTCHAR Dot
ENCODING 234
SWIDTH 314 0
DWIDTH 3 0
BBX 3 3 0 1
BITMAP
e0
e0
e0
ENDCHAR
STARTCHAR OpenDot
ENCODING 235
SWIDTH 384 0
DWIDTH 4 0
BBX 3 3 0 2
BITMAP
e0
a0
e0
ENDCHAR
STARTCHAR MedSolidDiamond
ENCODING 236
SWIDTH 744 0
DWIDTH 7 0
BBX 7 5 0 0
BITMAP
38
7c
fe
7c
38
ENDCHAR
STARTCHAR MedEmptyDiamond
ENCODING 237
SWIDTH 624 0
DWIDTH 6 0
BBX 5 5 1 0
BITMAP
20
50
88
50
20
ENDCHAR
STARTCHAR SmallSolidDiamond
ENCODING 238
SWIDTH 512 0
DWIDTH 5 0
BBX 5 5 0 0
BITMAP
20
70
f8
70
20
ENDCHAR
STARTCHAR SmallEmptyDiamond
ENCODING 239
SWIDTH 512 0
DWIDTH 5 0
BBX 5 5 0 0
BITMAP
20
50
88
50
20
ENDCHAR
STARTCHAR SolidRectangle
ENCODING 240
SWIDTH 488 0
DWIDTH 5 0
BBX 4 5 1 0
BITMAP
f0
f0
f0
f0
f0
ENDCHAR
STARTCHAR Rectangle
ENCODING 241
SWIDTH 488 0
DWIDTH 5 0
BBX 4 5 1 0
BITMAP
f0
90
90
90
f0
ENDCHAR
STARTCHAR SolidUpTriangle
ENCODING 242
SWIDTH 634 0
DWIDTH 6 0
BBX 5 5 1 0
BITMAP
20
20
70
70
f8
ENDCHAR
STARTCHAR UpTriangle
ENCODING 243
SWIDTH 634 0
DWIDTH 6 0
BBX 5 5 1 0
BITMAP
20
20
50
50
f8
ENDCHAR
STARTCHAR SolidDownTriangle
ENCODING 244
SWIDTH 634 0
DWIDTH 6 0
BBX 5 5 1 0
BITMAP
f8
70
70
20
20
ENDCHAR
STARTCHAR DownTriangle
ENCODING 245
SWIDTH 634 0
DWIDTH 6 0
BBX 5 5 0 0
BITMAP
f8
50
50
20
20
ENDCHAR
STARTCHAR SolidDiamond
ENCODING 246
SWIDTH 453 0
DWIDTH 5 0
BBX 3 5 1 0
BITMAP
40
e0
e0
e0
40
ENDCHAR
STARTCHAR Star6
ENCODING 247
SWIDTH 600 0
DWIDTH 6 0
BBX 5 5 1 0
BITMAP
20
f8
70
f8
20
ENDCHAR
STARTCHAR Star
ENCODING 248
SWIDTH 672 0
DWIDTH 7 0
BBX 3 5 2 0
BITMAP
40
40
e0
40
a0
ENDCHAR
STARTCHAR Bullet3
ENCODING 249
SWIDTH 676 0
DWIDTH 7 0
BBX 6 6 0 0
BITMAP
fc
fc
fc
fc
f4
fc
ENDCHAR
STARTCHAR Bullet4
ENCODING 250
SWIDTH 676 0
DWIDTH 7 0
BBX 6 6 0 0
BITMAP
fc
fc
fc
e4
e4
fc
ENDCHAR
STARTCHAR Euler
ENCODING 251
SWIDTH 496 0
DWIDTH 5 0
BBX 4 7 0 0
BITMAP
e0
90
80
60
c0
90
70
ENDCHAR
STARTCHAR ImagJ
ENCODING 252
SWIDTH 342 0
DWIDTH 3 0
BBX 5 9 -1 -2
BITMAP
08
00
18
38
18
30
30
b0
e0
ENDCHAR
STARTCHAR DoubleGamma
ENCODING 253
SWIDTH 528 0
DWIDTH 5 0
BBX 7 7 0 -2
BITMAP
72
ac
2c
28
28
70
60
ENDCHAR
STARTCHAR DoublePi
ENCODING 254
SWIDTH 579 0
DWIDTH 6 0
BBX 5 5 0 0
BITMAP
78
b8
70
70
d8
ENDCHAR
STARTCHAR DoubleScriptCapD
ENCODING 255
SWIDTH 764 0
DWIDTH 8 0
BBX 8 7 -1 0
BITMAP
3e
09
29
31
51
52
fc
ENDCHAR
ENDFONT
