STARTFONT 2.1
FONT -WRI-Mathematica4-Bold-R-Normal--30-300-75-75-p-220-Adobe-FontSpecific
SIZE 30 75 75
FONTBOUNDINGBOX 79 37 -2 -8
STARTPROPERTIES 16
FOUNDRY "WRI"
FAMILY_NAME "Mathematica4"
WEIGHT_NAME "Bold"
SLANT "R"
SETWIDTH_NAME "Normal"
PIXEL_SIZE 30
POINT_SIZE 300
RESOLUTION_X 75
RESOLUTION_Y 75
SPACING "p"
AVERAGE_WIDTH 220
CHARSET_REGISTRY "Adobe"
CHARSET_ENCODING "FontSpecific"
FONT_DESCENT 8
FONT_ASCENT 29
DEFAULT_CHAR 32
ENDPROPERTIES
CHARS 224
STARTCHAR Space
ENCODING 32
SWIDTH 189 0
DWIDTH 6 0
BBX 0 0 0 0
BITMAP
ENDCHAR
STARTCHAR RArrowBar
ENCODING 33
SWIDTH 962 0
DWIDTH 29 0
BBX 25 15 2 0
BITMAP
00010000
00038380
0003c380
0001c380
0001e380
0000f380
fffffb80
ffffff80
fffffb80
0000f380
0001e380
0001c380
0003c380
00038380
00010000
ENDCHAR
STARTCHAR LTackArrow
ENCODING 34
SWIDTH 922 0
DWIDTH 28 0
BBX 24 15 2 0
BITMAP
020000
070007
0f0007
0e0007
1e0007
3c0007
7fffff
ffffff
7fffff
3c0007
1e0007
0e0007
0f0007
070007
020000
ENDCHAR
STARTCHAR RTackArrow
ENCODING 35
SWIDTH 922 0
DWIDTH 28 0
BBX 24 15 2 0
BITMAP
000040
e000e0
e000f0
e00070
e00078
e0003c
fffffe
ffffff
fffffe
e0003c
e00078
e00070
e000f0
e000e0
000040
ENDCHAR
STARTCHAR UpArrowBar
ENCODING 36
SWIDTH 590 0
DWIDTH 18 0
BBX 13 25 2 0
BITMAP
fff8
fff8
fff8
0200
0700
0f80
1fc0
3fe0
7ff0
f778
4730
0700
0700
0700
0700
0700
0700
0700
0700
0700
0700
0700
0700
0700
0700
ENDCHAR
STARTCHAR DownArrowBar
ENCODING 37
SWIDTH 590 0
DWIDTH 18 0
BBX 13 25 2 0
BITMAP
0700
0700
0700
0700
0700
0700
0700
0700
0700
0700
0700
0700
0700
0700
4730
f778
7ff0
3fe0
1fc0
0f80
0700
0200
fff8
fff8
fff8
ENDCHAR
STARTCHAR UpTackArrow
ENCODING 38
SWIDTH 591 0
DWIDTH 18 0
BBX 13 24 2 0
BITMAP
0200
0700
0f80
1fc0
3fe0
7ff0
f778
6730
0700
0700
0700
0700
0700
0700
0700
0700
0700
0700
0700
0700
0700
fff8
fff8
fff8
ENDCHAR
STARTCHAR DownTackArrow
ENCODING 39
SWIDTH 591 0
DWIDTH 18 0
BBX 13 24 2 0
BITMAP
fff8
fff8
fff8
0700
0700
0700
0700
0700
0700
0700
0700
0700
0700
0700
0700
0700
6730
f778
7ff0
3fe0
1fc0
0f80
0700
0200
ENDCHAR
STARTCHAR LVectorBar
ENCODING 40
SWIDTH 982 0
DWIDTH 29 0
BBX 26 14 2 1
BITMAP
00100000
e0300000
e0780000
e0f00000
e1e00000
e3c00000
e7ffffc0
efffffc0
ffffffc0
e0000000
e0000000
e0000000
e0000000
e0000000
ENDCHAR
STARTCHAR RVectorBar
ENCODING 41
SWIDTH 982 0
DWIDTH 29 0
BBX 26 14 2 1
BITMAP
00010000
000301c0
000781c0
0003c1c0
0001e1c0
0000f1c0
fffff9c0
fffffdc0
ffffffc0
000001c0
000001c0
000001c0
000001c0
000001c0
ENDCHAR
STARTCHAR DownLVectorBar
ENCODING 42
SWIDTH 982 0
DWIDTH 29 0
BBX 26 14 2 0
BITMAP
e0000000
e0000000
e0000000
e0000000
e0000000
ffffffc0
efffffc0
e7ffffc0
e3c00000
e1e00000
e0f00000
e0780000
e0300000
00100000
ENDCHAR
STARTCHAR DownRVectorBar
ENCODING 43
SWIDTH 982 0
DWIDTH 29 0
BBX 26 14 2 0
BITMAP
000001c0
000001c0
000001c0
000001c0
000001c0
ffffffc0
fffffdc0
fffff9c0
0000f1c0
0001e1c0
0003c1c0
000781c0
000301c0
00010000
ENDCHAR
STARTCHAR LTackVector
ENCODING 44
SWIDTH 941 0
DWIDTH 28 0
BBX 24 14 2 1
BITMAP
010000
038007
038007
070007
0f0007
1e0007
3fffff
7fffff
ffffff
000007
000007
000007
000007
000007
ENDCHAR
STARTCHAR RTackVector
ENCODING 45
SWIDTH 941 0
DWIDTH 28 0
BBX 25 14 2 1
BITMAP
00008000
e000c000
e001e000
e000f000
e0007800
e0003c00
fffffe00
ffffff00
ffffff80
e0000000
e0000000
e0000000
e0000000
e0000000
ENDCHAR
STARTCHAR DownLTackVector
ENCODING 46
SWIDTH 941 0
DWIDTH 28 0
BBX 24 14 2 0
BITMAP
000007
000007
000007
000007
000007
ffffff
7fffff
3fffff
1e0007
0f0007
070007
038007
038007
010000
ENDCHAR
STARTCHAR DownRTackVector
ENCODING 47
SWIDTH 941 0
DWIDTH 28 0
BBX 25 14 2 0
BITMAP
e0000000
e0000000
e0000000
e0000000
e0000000
ffffff80
ffffff00
fffffe00
e0003c00
e0007800
e000f000
e001e000
e000c000
00008000
ENDCHAR
STARTCHAR LVector
ENCODING 48
SWIDTH 887 0
DWIDTH 27 0
BBX 23 9 2 6
BITMAP
008000
01c000
038000
078000
0f0000
1e0000
3ffffe
7ffffe
fffffe
ENDCHAR
STARTCHAR RVector
ENCODING 49
SWIDTH 887 0
DWIDTH 27 0
BBX 23 9 2 6
BITMAP
000200
000700
000380
0003c0
0001e0
0000f0
fffff8
fffffc
fffffe
ENDCHAR
STARTCHAR LRVector
ENCODING 50
SWIDTH 1068 0
DWIDTH 32 0
BBX 28 9 2 6
BITMAP
01000800
01c03800
03801c00
07000e00
0f000f00
1e000780
3fffffc0
7fffffe0
fffffff0
ENDCHAR
STARTCHAR DownLVector
ENCODING 51
SWIDTH 887 0
DWIDTH 27 0
BBX 23 9 2 0
BITMAP
fffffe
7ffffe
3ffffe
1e0000
0f0000
078000
038000
01c000
008000
ENDCHAR
STARTCHAR DownRVector
ENCODING 52
SWIDTH 887 0
DWIDTH 27 0
BBX 23 9 2 0
BITMAP
fffffe
fffffc
fffff8
0000f0
0001e0
0003c0
000380
000700
000200
ENDCHAR
STARTCHAR DownLRVector
ENCODING 53
SWIDTH 1068 0
DWIDTH 32 0
BBX 28 9 2 0
BITMAP
fffffff0
7fffffe0
3fffffc0
1e000780
0f000f00
07000e00
03801c00
01c03800
01000800
ENDCHAR
STARTCHAR LUpDownVector
ENCODING 54
SWIDTH 422 0
DWIDTH 13 0
BBX 8 29 2 0
BITMAP
01
03
07
0f
1f
3f
7f
f7
e7
47
07
07
07
07
07
07
07
07
07
47
e7
f7
7f
3f
1f
0f
07
03
01
ENDCHAR
STARTCHAR RUpDownVector
ENCODING 55
SWIDTH 422 0
DWIDTH 13 0
BBX 8 29 2 0
BITMAP
80
c0
e0
f0
f8
fc
fe
ef
e7
e2
e0
e0
e0
e0
e0
e0
e0
e0
e0
e2
e7
ef
fe
fc
f8
f0
e0
c0
80
ENDCHAR
STARTCHAR LUpVectorBar
ENCODING 56
SWIDTH 590 0
DWIDTH 18 0
BBX 13 26 2 0
BITMAP
fff8
fff8
fff8
0080
0100
0300
0700
0f00
1f00
3f00
7700
e700
4700
0700
0700
0700
0700
0700
0700
0700
0700
0700
0700
0700
0700
0700
ENDCHAR
STARTCHAR LDownVectorBar
ENCODING 57
SWIDTH 590 0
DWIDTH 18 0
BBX 13 26 2 0
BITMAP
0700
0700
0700
0700
0700
0700
0700
0700
0700
0700
0700
0700
0700
4700
e700
7700
3f00
1f00
0f00
0700
0300
0100
0080
fff8
fff8
fff8
ENDCHAR
STARTCHAR RUpVectorBar
ENCODING 58
SWIDTH 590 0
DWIDTH 18 0
BBX 13 26 2 0
BITMAP
fff8
fff8
fff8
0400
0400
0600
0700
0780
07c0
07e0
0770
0738
0710
0700
0700
0700
0700
0700
0700
0700
0700
0700
0700
0700
0700
0700
ENDCHAR
STARTCHAR RDownVectorBar
ENCODING 59
SWIDTH 590 0
DWIDTH 18 0
BBX 13 26 2 0
BITMAP
0700
0700
0700
0700
0700
0700
0700
0700
0700
0700
0700
0700
0700
0710
0738
0770
07e0
07c0
0780
0700
0600
0400
0400
fff8
fff8
fff8
ENDCHAR
STARTCHAR LUpTackVector
ENCODING 60
SWIDTH 590 0
DWIDTH 18 0
BBX 13 25 2 0
BITMAP
0080
0100
0300
0700
0f00
1f00
3f00
7700
e700
4700
0700
0700
0700
0700
0700
0700
0700
0700
0700
0700
0700
0700
fff8
fff8
fff8
ENDCHAR
STARTCHAR LDownTackVector
ENCODING 61
SWIDTH 590 0
DWIDTH 18 0
BBX 13 25 2 0
BITMAP
fff8
fff8
fff8
0700
0700
0700
0700
0700
0700
0700
0700
0700
0700
0700
0700
4700
e700
7700
3f00
1f00
0f00
0700
0300
0100
0080
ENDCHAR
STARTCHAR RUpTackVector
ENCODING 62
SWIDTH 590 0
DWIDTH 18 0
BBX 13 25 2 0
BITMAP
0400
0400
0600
0700
0780
07c0
07e0
0770
0738
0710
0700
0700
0700
0700
0700
0700
0700
0700
0700
0700
0700
0700
fff8
fff8
fff8
ENDCHAR
STARTCHAR RDownTackVector
ENCODING 63
SWIDTH 590 0
DWIDTH 18 0
BBX 13 25 2 0
BITMAP
fff8
fff8
fff8
0700
0700
0700
0700
0700
0700
0700
0700
0700
0700
0700
0700
0710
0738
0770
07e0
07c0
0780
0700
0600
0400
0400
ENDCHAR
STARTCHAR LUpVector
ENCODING 64
SWIDTH 421 0
DWIDTH 13 0
BBX 8 23 2 0
BITMAP
01
03
07
0f
1f
3f
7f
f7
e7
47
07
07
07
07
07
07
07
07
07
07
07
07
07
ENDCHAR
STARTCHAR ExtensUp1
ENCODING 65
SWIDTH 590 0
DWIDTH 18 0
BBX 3 11 7 0
BITMAP
e0
e0
e0
e0
e0
e0
e0
e0
e0
e0
e0
ENDCHAR
STARTCHAR LDownVector
ENCODING 66
SWIDTH 421 0
DWIDTH 13 0
BBX 8 23 2 0
BITMAP
07
07
07
07
07
07
07
07
07
07
07
07
07
47
e7
f7
7f
3f
1f
0f
07
03
01
ENDCHAR
STARTCHAR RUpVector
ENCODING 67
SWIDTH 422 0
DWIDTH 13 0
BBX 8 23 2 0
BITMAP
80
c0
e0
f0
f8
fc
fe
ef
e7
e2
e0
e0
e0
e0
e0
e0
e0
e0
e0
e0
e0
e0
e0
ENDCHAR
STARTCHAR ExtensUp2
ENCODING 68
SWIDTH 422 0
DWIDTH 13 0
BBX 3 11 2 0
BITMAP
e0
e0
e0
e0
e0
e0
e0
e0
e0
e0
e0
ENDCHAR
STARTCHAR RDownVector
ENCODING 69
SWIDTH 422 0
DWIDTH 13 0
BBX 8 23 2 0
BITMAP
e0
e0
e0
e0
e0
e0
e0
e0
e0
e0
e0
e0
e0
e2
e7
ef
fe
fc
f8
f0
e0
c0
80
ENDCHAR
STARTCHAR Equilibrium
ENCODING 70
SWIDTH 903 0
DWIDTH 27 0
BBX 23 21 2 -3
BITMAP
000100
000380
0003c0
0001e0
0000f0
7ffff8
7ffffc
7ffffe
000000
000000
000000
000000
fffffc
7ffffc
3ffffc
1e0000
0f0000
070000
038000
01c000
010000
ENDCHAR
STARTCHAR RvrsEquilibrium
ENCODING 71
SWIDTH 903 0
DWIDTH 27 0
BBX 23 21 2 -3
BITMAP
010000
038000
078000
0f0000
1e0000
3ffffc
7ffffc
fffffc
000000
000000
000000
000000
7ffffe
7ffffc
7ffff8
0000f0
0001e0
0001c0
000380
000700
000100
ENDCHAR
STARTCHAR EquilbrmHeadL
ENCODING 72
SWIDTH 388 0
DWIDTH 12 0
BBX 9 16 3 -3
BITMAP
ff80
ff80
ff80
0000
0000
0000
0000
0000
ff80
7f80
3f80
1c00
0e00
0700
0380
0100
ENDCHAR
STARTCHAR EquilbrmheadR
ENCODING 73
SWIDTH 388 0
DWIDTH 12 0
BBX 9 16 0 2
BITMAP
4000
e000
7000
3800
1c00
fe00
ff00
ff80
0000
0000
0000
0000
0000
ff80
ff80
ff80
ENDCHAR
STARTCHAR RvrsEquilbrmHeadL
ENCODING 74
SWIDTH 388 0
DWIDTH 12 0
BBX 9 16 3 2
BITMAP
0100
0380
0700
0e00
1c00
3f80
7f80
ff80
0000
0000
0000
0000
0000
ff80
ff80
ff80
ENDCHAR
STARTCHAR RvrsEquilbrmHeadR
ENCODING 75
SWIDTH 388 0
DWIDTH 12 0
BBX 9 16 0 -3
BITMAP
ff80
ff80
ff80
0000
0000
0000
0000
0000
ff80
ff00
fe00
1c00
3800
7000
e000
4000
ENDCHAR
STARTCHAR UpEquilibrium
ENCODING 76
SWIDTH 833 0
DWIDTH 25 0
BBX 21 23 2 0
BITMAP
010000
030e00
070e00
0f0e00
1f0e00
3f0e00
7f0e00
f70e00
e70e00
470e00
070e00
070e00
070e00
070e10
070e30
070ef8
070fe0
070fc0
070f80
070f00
070e00
070c00
000800
ENDCHAR
STARTCHAR RvrsUpEquilibrium
ENCODING 77
SWIDTH 834 0
DWIDTH 25 0
BBX 21 23 2 0
BITMAP
000800
070c00
070e00
070f00
070f80
070fc0
070fe0
070ef8
070e30
070e10
070e00
070e00
070e00
470e00
e70e00
f70e00
7f0e00
3f0e00
1f0e00
0f0e00
070e00
030e00
010000
ENDCHAR
STARTCHAR LArrowHookUp
ENCODING 78
SWIDTH 870 0
DWIDTH 26 0
BBX 22 16 2 0
BITMAP
0000e0
0200f8
0700f8
0f003c
1e001c
1c001c
3c003c
7ffff8
fffff8
7fffe0
3c0000
1c0000
0e0000
0f0000
070000
020000
ENDCHAR
STARTCHAR RArrowHookUp
ENCODING 79
SWIDTH 870 0
DWIDTH 26 0
BBX 22 16 2 0
BITMAP
1c0000
7c0100
7c0380
f003c0
e001e0
e000e0
f000f0
7ffff8
7ffffc
1ffff8
0000f0
0000e0
0001c0
0003c0
000380
000100
ENDCHAR
STARTCHAR LArrow
ENCODING 80
SWIDTH 870 0
DWIDTH 26 0
BBX 22 15 2 0
BITMAP
020000
070000
0f0000
0e0000
1c0000
3c0000
7ffffc
fffffc
7ffffc
3c0000
1c0000
1e0000
0f0000
070000
020000
ENDCHAR
STARTCHAR Extens
ENCODING 81
SWIDTH 364 0
DWIDTH 11 0
BBX 11 3 0 6
BITMAP
ffe0
ffe0
ffe0
ENDCHAR
STARTCHAR LeftTackBase
ENCODING 82
SWIDTH 246 0
DWIDTH 7 0
BBX 6 13 0 1
BITMAP
1c
1c
1c
1c
1c
fc
fc
fc
1c
1c
1c
1c
1c
ENDCHAR
STARTCHAR RightTackBase
ENCODING 83
SWIDTH 246 0
DWIDTH 7 0
BBX 5 13 2 1
BITMAP
e0
e0
e0
e0
e0
f8
f8
f8
e0
e0
e0
e0
e0
ENDCHAR
STARTCHAR RArrow
ENCODING 84
SWIDTH 870 0
DWIDTH 26 0
BBX 22 15 2 0
BITMAP
000100
000380
0003c0
0001c0
0000e0
0000f0
fffff8
fffffc
fffff8
0000f0
0000e0
0001e0
0003c0
000380
000100
ENDCHAR
STARTCHAR RUpVector2
ENCODING 85
SWIDTH 590 0
DWIDTH 18 0
BBX 8 23 7 0
BITMAP
80
c0
e0
f0
f8
fc
fe
ef
e7
e2
e0
e0
e0
e0
e0
e0
e0
e0
e0
e0
e0
e0
e0
ENDCHAR
STARTCHAR RArrowLArrow
ENCODING 86
SWIDTH 861 0
DWIDTH 26 0
BBX 22 19 2 -2
BITMAP
000080
0001c0
0000e0
000070
fffff8
fffffc
fffff8
000070
0c00e0
1e01e0
1c00c0
380000
7ffffc
fffffc
7ffffc
3c0000
1c0000
0e0000
040000
ENDCHAR
STARTCHAR LArrowRArrow
ENCODING 87
SWIDTH 861 0
DWIDTH 26 0
BBX 22 19 2 -2
BITMAP
040000
0e0000
1c0000
380000
7ffffc
fffffc
7ffffc
380000
1c00c0
1e01e0
0c00e0
000070
fffff8
fffffc
fffff8
0000f0
0000e0
0001c0
000080
ENDCHAR
STARTCHAR RArrowLArrowHeadL
ENCODING 88
SWIDTH 297 0
DWIDTH 9 0
BBX 7 15 2 -2
BITMAP
7e
7e
7e
00
04
0e
1c
3c
7e
fe
7e
3c
1c
0e
04
ENDCHAR
STARTCHAR RArrowLArrowHeadR
ENCODING 89
SWIDTH 297 0
DWIDTH 9 0
BBX 7 15 0 2
BITMAP
40
e0
70
78
fc
fe
fc
78
70
e0
40
00
fc
fc
fc
ENDCHAR
STARTCHAR LArrowRArrowHeadL
ENCODING 90
SWIDTH 297 0
DWIDTH 9 0
BBX 7 15 2 2
BITMAP
04
0e
1c
3c
7e
fe
7e
3c
1c
0e
04
00
7e
7e
7e
ENDCHAR
STARTCHAR LArrowRArrowHeadR
ENCODING 91
SWIDTH 297 0
DWIDTH 9 0
BBX 7 15 0 -2
BITMAP
fc
fc
fc
00
40
e0
70
78
fc
fe
fc
78
70
e0
40
ENDCHAR
STARTCHAR UpArrowDownArrow
ENCODING 92
SWIDTH 720 0
DWIDTH 22 0
BBX 18 21 2 0
BITMAP
041c00
0e1c00
1f1c00
3f9c00
ffdc00
6edc00
2e5c00
0e1c00
0e1c00
0e1c00
0e1c00
0e1c00
0e1c00
0e1c00
0e5c80
0edd80
0effc0
0e7f00
0e3e00
0e1c00
0e0800
ENDCHAR
STARTCHAR DownArrowUpArrow
ENCODING 93
SWIDTH 720 0
DWIDTH 22 0
BBX 18 21 2 0
BITMAP
0e0800
0e1c00
0e3e00
0e7f00
0effc0
0edd80
0e5c80
0e1c00
0e1c00
0e1c00
0e1c00
0e1c00
0e1c00
0e1c00
2e5c00
6edc00
ffdc00
3f9c00
1f1c00
0e1c00
041c00
ENDCHAR
STARTCHAR VertExt1
ENCODING 94
SWIDTH 87 0
DWIDTH 3 0
BBX 3 6 0 0
BITMAP
e0
e0
e0
e0
e0
e0
ENDCHAR
STARTCHAR HorizExt1
ENCODING 95
SWIDTH 200 0
DWIDTH 6 0
BBX 6 3 0 0
BITMAP
fc
fc
fc
ENDCHAR
STARTCHAR UpArrow
ENCODING 96
SWIDTH 590 0
DWIDTH 18 0
BBX 14 22 2 0
BITMAP
0200
0700
0f80
1fc0
3ff0
7ff8
f73c
4718
0700
0700
0700
0700
0700
0700
0700
0700
0700
0700
0700
0700
0700
0700
ENDCHAR
STARTCHAR UpTackBase
ENCODING 97
SWIDTH 590 0
DWIDTH 18 0
BBX 13 5 2 0
BITMAP
0700
0700
fff8
fff8
fff8
ENDCHAR
STARTCHAR DownTackBase
ENCODING 98
SWIDTH 590 0
DWIDTH 18 0
BBX 13 6 2 0
BITMAP
fff8
fff8
fff8
0700
0700
0700
ENDCHAR
STARTCHAR DownArrow
ENCODING 99
SWIDTH 590 0
DWIDTH 18 0
BBX 14 22 2 0
BITMAP
0700
0700
0700
0700
0700
0700
0700
0700
0700
0700
0700
0700
0700
0700
4718
f73c
7ff8
3ff0
1fc0
0f80
0700
0200
ENDCHAR
STARTCHAR RDownVector2
ENCODING 100
SWIDTH 590 0
DWIDTH 18 0
BBX 8 23 7 0
BITMAP
e0
e0
e0
e0
e0
e0
e0
e0
e0
e0
e0
e0
e0
e2
e7
ef
fe
fc
f8
f0
e0
c0
80
ENDCHAR
STARTCHAR UpEquilbrmHeadBttm
ENCODING 101
SWIDTH 713 0
DWIDTH 21 0
BBX 16 9 4 0
BITMAP
e1c6
e1cf
e1de
e1fc
e1f0
e1e0
e1c0
e180
0100
ENDCHAR
STARTCHAR DblUpExtens2
ENCODING 102
SWIDTH 713 0
DWIDTH 21 0
BBX 10 11 4 0
BITMAP
e1c0
e1c0
e1c0
e1c0
e1c0
e1c0
e1c0
e1c0
e1c0
e1c0
e1c0
ENDCHAR
STARTCHAR RvrsUpEquilHdTop
ENCODING 103
SWIDTH 713 0
DWIDTH 21 0
BBX 16 10 4 0
BITMAP
0100
e180
e1c0
e1e0
e1f0
e1f8
e1fc
e1de
e1cf
e1c6
ENDCHAR
STARTCHAR UpEquilbrmHeadTop
ENCODING 104
SWIDTH 726 0
DWIDTH 22 0
BBX 16 10 0 0
BITMAP
0080
0187
0387
0787
0f87
1f87
3f87
7b87
f387
6387
ENDCHAR
STARTCHAR DblUpExtens1
ENCODING 105
SWIDTH 726 0
DWIDTH 22 0
BBX 10 11 6 0
BITMAP
e1c0
e1c0
e1c0
e1c0
e1c0
e1c0
e1c0
e1c0
e1c0
e1c0
e1c0
ENDCHAR
STARTCHAR RvrsUpEquilibrmHdBttm
ENCODING 106
SWIDTH 727 0
DWIDTH 22 0
BBX 16 9 0 0
BITMAP
6387
f387
7b87
3f87
0f87
0787
0387
0187
0080
ENDCHAR
STARTCHAR UpArrwDwnArrwBttm
ENCODING 107
SWIDTH 726 0
DWIDTH 22 0
BBX 14 7 6 0
BITMAP
e5c8
effc
eff8
e7f0
e3e0
e1c0
0080
ENDCHAR
STARTCHAR DwnArrwUpArrwTop
ENCODING 108
SWIDTH 726 0
DWIDTH 22 0
BBX 14 7 6 0
BITMAP
0080
e1c0
e3e0
e7f0
eff8
effc
e5c8
ENDCHAR
STARTCHAR UpArrwDwnArrwTop
ENCODING 109
SWIDTH 726 0
DWIDTH 22 0
BBX 14 7 2 0
BITMAP
0400
0e1c
1f1c
3f9c
7fdc
ffdc
4e5c
ENDCHAR
STARTCHAR DwnArrwUpArrwBttm
ENCODING 110
SWIDTH 726 0
DWIDTH 22 0
BBX 14 7 2 0
BITMAP
4e5c
ffdc
7fdc
3f9c
1f1c
0e1c
0400
ENDCHAR
STARTCHAR DblExtens
ENCODING 111
SWIDTH 364 0
DWIDTH 11 0
BBX 11 11 0 2
BITMAP
ffe0
ffe0
ffe0
0000
0000
0000
0000
0000
ffe0
ffe0
ffe0
ENDCHAR
STARTCHAR OverBracket1
ENCODING 112
SWIDTH 800 0
DWIDTH 24 0
BBX 24 5 0 0
BITMAP
ffffff
ffffff
ffffff
800001
800001
ENDCHAR
STARTCHAR OverBracket2
ENCODING 113
SWIDTH 1050 0
DWIDTH 31 0
BBX 32 5 0 0
BITMAP
ffffffff
ffffffff
ffffffff
80000001
80000001
ENDCHAR
STARTCHAR OverBracket3
ENCODING 114
SWIDTH 1400 0
DWIDTH 42 0
BBX 42 5 0 0
BITMAP
ffffffffffc0
ffffffffffc0
ffffffffffc0
800000000040
800000000040
ENDCHAR
STARTCHAR OverBracket4
ENCODING 115
SWIDTH 1750 0
DWIDTH 53 0
BBX 53 5 0 0
BITMAP
fffffffffffff8
fffffffffffff8
fffffffffffff8
80000000000008
80000000000008
ENDCHAR
STARTCHAR OverBracketExt1
ENCODING 116
SWIDTH 200 0
DWIDTH 6 0
BBX 6 5 0 0
BITMAP
fc
fc
fc
80
80
ENDCHAR
STARTCHAR OverBracketExt2
ENCODING 117
SWIDTH 200 0
DWIDTH 6 0
BBX 6 3 0 2
BITMAP
fc
fc
fc
ENDCHAR
STARTCHAR OverBracketExt3
ENCODING 118
SWIDTH 200 0
DWIDTH 6 0
BBX 6 5 0 0
BITMAP
fc
fc
fc
04
04
ENDCHAR
STARTCHAR ShortUpArrow
ENCODING 119
SWIDTH 591 0
DWIDTH 18 0
BBX 14 16 2 0
BITMAP
0100
0380
07c0
0fe0
1ff0
3ff8
fbbc
639c
2384
0380
0380
0380
0380
0380
0380
0380
ENDCHAR
STARTCHAR ShortDownArrow
ENCODING 120
SWIDTH 591 0
DWIDTH 18 0
BBX 14 16 2 0
BITMAP
0380
0380
0380
0380
0380
0380
0380
2384
639c
fbbc
3ff8
1ff0
0fe0
07c0
0380
0100
ENDCHAR
STARTCHAR ShortLArrow
ENCODING 121
SWIDTH 652 0
DWIDTH 20 0
BBX 16 15 2 0
BITMAP
0200
0700
0700
0e00
1e00
3c00
7fff
ffff
7fff
3c00
1e00
0e00
0700
0700
0200
ENDCHAR
STARTCHAR ShortRArrow
ENCODING 122
SWIDTH 652 0
DWIDTH 20 0
BBX 16 15 2 0
BITMAP
0040
00e0
00e0
0070
0078
003c
fffe
ffff
fffe
003c
0078
0070
00e0
00e0
0040
ENDCHAR
STARTCHAR LArrowBar
ENCODING 123
SWIDTH 962 0
DWIDTH 29 0
BBX 25 15 2 0
BITMAP
00400000
e0e00000
e1e00000
e1c00000
e3c00000
e7800000
efffff80
ffffff80
efffff80
e7800000
e3c00000
e1c00000
e1e00000
e0e00000
00400000
ENDCHAR
STARTCHAR Dash
ENCODING 124
SWIDTH 390 0
DWIDTH 12 0
BBX 9 3 1 6
BITMAP
ff80
ff80
ff80
ENDCHAR
STARTCHAR LongDash
ENCODING 125
SWIDTH 545 0
DWIDTH 16 0
BBX 14 3 1 6
BITMAP
fffc
fffc
fffc
ENDCHAR
STARTCHAR DivisionBarExtens
ENCODING 126
SWIDTH 1010 0
DWIDTH 30 0
BBX 28 3 1 6
BITMAP
fffffff0
fffffff0
fffffff0
ENDCHAR
STARTCHAR DEL
ENCODING 127
SWIDTH 189 0
DWIDTH 6 0
BBX 0 0 0 0
BITMAP
ENDCHAR
STARTCHAR UnderBracket1
ENCODING 128
SWIDTH 800 0
DWIDTH 24 0
BBX 24 5 0 0
BITMAP
800001
800001
ffffff
ffffff
ffffff
ENDCHAR
STARTCHAR UnderBracket2
ENCODING 129
SWIDTH 1050 0
DWIDTH 31 0
BBX 32 5 0 0
BITMAP
80000001
80000001
ffffffff
ffffffff
ffffffff
ENDCHAR
STARTCHAR UnderBracket3
ENCODING 130
SWIDTH 1400 0
DWIDTH 42 0
BBX 42 5 0 0
BITMAP
800000000040
800000000040
ffffffffffc0
ffffffffffc0
ffffffffffc0
ENDCHAR
STARTCHAR UnderBracket4
ENCODING 131
SWIDTH 1750 0
DWIDTH 53 0
BBX 53 5 0 0
BITMAP
80000000000008
80000000000008
fffffffffffff8
fffffffffffff8
fffffffffffff8
ENDCHAR
STARTCHAR UnderBracketExt1
ENCODING 132
SWIDTH 200 0
DWIDTH 6 0
BBX 6 5 0 0
BITMAP
80
80
fc
fc
fc
ENDCHAR
STARTCHAR UnderBracketExt2
ENCODING 133
SWIDTH 200 0
DWIDTH 6 0
BBX 6 3 0 0
BITMAP
fc
fc
fc
ENDCHAR
STARTCHAR UnderBracketExt3
ENCODING 134
SWIDTH 200 0
DWIDTH 6 0
BBX 6 5 0 0
BITMAP
04
04
fc
fc
fc
ENDCHAR
STARTCHAR LowerLeftArrow
ENCODING 135
SWIDTH 755 0
DWIDTH 23 0
BBX 19 19 2 0
BITMAP
000040
0000e0
0001c0
000380
000700
000f00
001e00
003c00
007800
e0f000
e1e000
e3c000
e78000
ef0000
fe0000
fc0000
f80000
ffc000
ffc000
ENDCHAR
STARTCHAR UpperLeftArrow
ENCODING 136
SWIDTH 755 0
DWIDTH 23 0
BBX 19 19 2 0
BITMAP
ffc000
ffc000
f80000
fc0000
fe0000
ef0000
e78000
e3c000
e1e000
e0f000
007800
003c00
001e00
000f00
000780
000380
0001c0
0000e0
000040
ENDCHAR
STARTCHAR UpperRightArrow
ENCODING 137
SWIDTH 755 0
DWIDTH 23 0
BBX 19 19 2 0
BITMAP
007fe0
007fe0
007fe0
0007e0
000fe0
001ee0
003ce0
0078e0
00f0e0
01e0e0
03c000
078000
0f0000
0e0000
1c0000
380000
700000
e00000
400000
ENDCHAR
STARTCHAR LowerRightArrow
ENCODING 138
SWIDTH 755 0
DWIDTH 23 0
BBX 19 19 2 0
BITMAP
400000
e00000
700000
380000
1c0000
0e0000
070000
038000
01c000
00e0e0
0070e0
0038e0
001ce0
000ee0
0007e0
0003e0
007fe0
007fe0
007fe0
ENDCHAR
STARTCHAR LongLowerLeftArrow
ENCODING 139
SWIDTH 1208 0
DWIDTH 36 0
BBX 33 33 2 -6
BITMAP
0000000100
0000000380
0000000700
0000000e00
0000001c00
0000003800
0000007000
000000e000
000001e000
000003c000
0000078000
00000f0000
00001e0000
00003c0000
0000780000
0000f00000
0001e00000
0003c00000
0007800000
000f000000
001e000000
003c000000
0078000000
e0f0000000
e1e0000000
e3c0000000
e780000000
ef00000000
fe00000000
fc00000000
f800000000
ffc0000000
ffc0000000
ENDCHAR
STARTCHAR LongUpperLeftArrow
ENCODING 140
SWIDTH 1208 0
DWIDTH 36 0
BBX 33 33 2 -6
BITMAP
ffc0000000
ffc0000000
f800000000
fc00000000
fe00000000
ef00000000
e780000000
e3c0000000
e1e0000000
e0f0000000
0078000000
003c000000
001e000000
000f000000
0007800000
0003c00000
0001e00000
0000f00000
0000780000
00003c0000
00001e0000
00000f0000
0000078000
000003c000
000001e000
000000f000
0000007800
0000003800
0000001c00
0000000e00
0000000700
0000000380
0000000100
ENDCHAR
STARTCHAR LongUpperRightArrow
ENCODING 141
SWIDTH 1208 0
DWIDTH 36 0
BBX 32 33 2 -6
BITMAP
000003ff
000003ff
000003ff
0000003f
0000007f
000000f7
000001e7
000003c7
00000387
00000707
00000e00
00001c00
00003800
00007000
0000e000
0001c000
0003c000
00078000
000f0000
001e0000
003c0000
00780000
00f00000
01e00000
03c00000
07800000
0f000000
1e000000
3c000000
78000000
f0000000
e0000000
40000000
ENDCHAR
STARTCHAR LongLowerRightArrow
ENCODING 142
SWIDTH 1208 0
DWIDTH 36 0
BBX 32 33 2 -6
BITMAP
40000000
e0000000
f0000000
78000000
3c000000
1e000000
0f000000
07800000
03c00000
01e00000
00f00000
00780000
003c0000
001e0000
000f0000
00078000
0003c000
0001e000
0000f000
00007800
00003c00
00001e00
00000f00
00000787
000003c7
000001e7
000000e7
00000077
0000003f
0000001f
000003ff
000003ff
000003ff
ENDCHAR
STARTCHAR Arrowhead
ENCODING 143
SWIDTH 450 0
DWIDTH 14 0
BBX 10 10 2 0
BITMAP
e000
e000
e000
e000
e000
e000
f000
f800
ffc0
ffc0
ENDCHAR
STARTCHAR OverParen1
ENCODING 144
SWIDTH 700 0
DWIDTH 21 0
BBX 21 5 0 0
BITMAP
03fc00
0fff80
3fffe0
600030
800008
ENDCHAR
STARTCHAR OverParen2
ENCODING 145
SWIDTH 1050 0
DWIDTH 31 0
BBX 32 5 0 0
BITMAP
03ffffc0
0ffffff0
3ffffffc
7000000e
80000001
ENDCHAR
STARTCHAR OverParen3
ENCODING 146
SWIDTH 1400 0
DWIDTH 42 0
BBX 42 5 0 0
BITMAP
03fffffff000
0ffffffffc00
3fffffffff00
700000000380
800000000040
ENDCHAR
STARTCHAR OverParen4
ENCODING 147
SWIDTH 1750 0
DWIDTH 53 0
BBX 53 5 0 0
BITMAP
03fffffffffe00
0fffffffffff80
3fffffffffffe0
70000000000070
80000000000008
ENDCHAR
STARTCHAR OverParenExt1
ENCODING 148
SWIDTH 330 0
DWIDTH 10 0
BBX 10 5 0 0
BITMAP
07c0
1fc0
3fc0
6000
8000
ENDCHAR
STARTCHAR OverParenExt2
ENCODING 149
SWIDTH 200 0
DWIDTH 6 0
BBX 6 3 0 2
BITMAP
fc
fc
fc
ENDCHAR
STARTCHAR OverParenExt3
ENCODING 150
SWIDTH 330 0
DWIDTH 10 0
BBX 10 5 0 0
BITMAP
f800
fe00
ff00
0180
0040
ENDCHAR
STARTCHAR OverBrace1
ENCODING 151
SWIDTH 700 0
DWIDTH 21 0
BBX 21 7 0 0
BITMAP
002000
007000
3fffe0
7fdff0
ffdff8
c00018
800008
ENDCHAR
STARTCHAR OverBrace2
ENCODING 152
SWIDTH 1150 0
DWIDTH 34 0
BBX 35 7 0 0
BITMAP
0000400000
0000e00000
1fffffff80
7fffbfffc0
ffff1fffe0
c000000060
8000000020
ENDCHAR
STARTCHAR OverBrace3
ENCODING 153
SWIDTH 1500 0
DWIDTH 45 0
BBX 45 7 0 0
BITMAP
000002000000
000007000000
3fffffffffc0
7ffffffffff0
7ffff8fffff0
800000000018
800000000008
ENDCHAR
STARTCHAR OverBrace4
ENCODING 154
SWIDTH 1850 0
DWIDTH 56 0
BBX 56 7 0 0
BITMAP
00000008000000
0000003c000000
1ffffffffffff8
7ffffffffffffe
7fffffe7fffffe
c0000000000003
80000000000001
ENDCHAR
STARTCHAR OverBraceExt1
ENCODING 155
SWIDTH 200 0
DWIDTH 6 0
BBX 6 5 0 0
BITMAP
1c
3c
7c
c0
80
ENDCHAR
STARTCHAR OverBraceExt2
ENCODING 156
SWIDTH 200 0
DWIDTH 6 0
BBX 6 3 0 2
BITMAP
fc
fc
fc
ENDCHAR
STARTCHAR OverBraceExt3
ENCODING 157
SWIDTH 347 0
DWIDTH 10 0
BBX 10 5 0 2
BITMAP
0400
0c00
ffc0
fbc0
e1c0
ENDCHAR
STARTCHAR OverBraceExt4
ENCODING 158
SWIDTH 200 0
DWIDTH 6 0
BBX 6 5 0 0
BITMAP
e0
f0
f8
0c
04
ENDCHAR
STARTCHAR AngleArrowExt45
ENCODING 159
SWIDTH 308 0
DWIDTH 9 0
BBX 9 9 0 0
BITMAP
0100
0380
0700
0e00
1c00
3800
7000
e000
4000
ENDCHAR
STARTCHAR UnderParen1
ENCODING 160
SWIDTH 700 0
DWIDTH 21 0
BBX 21 5 0 0
BITMAP
800008
600030
3fffe0
0fff80
03fc00
ENDCHAR
STARTCHAR UnderParen2
ENCODING 161
SWIDTH 1050 0
DWIDTH 31 0
BBX 32 5 0 0
BITMAP
80000001
7000000e
3ffffffc
0ffffff0
03ffffc0
ENDCHAR
STARTCHAR UnderParen3
ENCODING 162
SWIDTH 1400 0
DWIDTH 42 0
BBX 42 5 0 0
BITMAP
800000000040
700000000380
3fffffffff00
0ffffffffc00
03fffffff000
ENDCHAR
STARTCHAR UnderParen4
ENCODING 163
SWIDTH 1750 0
DWIDTH 53 0
BBX 53 5 0 0
BITMAP
80000000000008
70000000000070
3fffffffffffe0
0fffffffffff80
03fffffffffe00
ENDCHAR
STARTCHAR UnderParenExt1
ENCODING 164
SWIDTH 330 0
DWIDTH 10 0
BBX 10 5 0 0
BITMAP
8000
6000
3fc0
1fc0
07c0
ENDCHAR
STARTCHAR UnderParenExt2
ENCODING 165
SWIDTH 200 0
DWIDTH 6 0
BBX 6 3 0 0
BITMAP
fc
fc
fc
ENDCHAR
STARTCHAR UnderParenExt3
ENCODING 166
SWIDTH 330 0
DWIDTH 10 0
BBX 10 5 0 0
BITMAP
0040
0180
ff00
fe00
f800
ENDCHAR
STARTCHAR UnderBrace1
ENCODING 167
SWIDTH 700 0
DWIDTH 21 0
BBX 21 7 0 -2
BITMAP
800008
c00018
ffcff8
7fdff0
3fffe0
007000
002000
ENDCHAR
STARTCHAR UnderBrace2
ENCODING 168
SWIDTH 1150 0
DWIDTH 34 0
BBX 35 7 0 -2
BITMAP
8000000020
c000000060
ffff1fffe0
7fffbfffc0
1fffffff80
0000e00000
0000400000
ENDCHAR
STARTCHAR UnderBrace3
ENCODING 169
SWIDTH 1500 0
DWIDTH 45 0
BBX 45 7 0 -2
BITMAP
800000000008
c00000000008
7ffff8fffff8
7ffffffffff0
1fffffffffe0
000007000000
000002000000
ENDCHAR
STARTCHAR UnderBrace4
ENCODING 170
SWIDTH 1850 0
DWIDTH 56 0
BBX 56 7 0 -2
BITMAP
80000000000001
c0000000000003
7fffffe7fffffe
7ffffffffffffe
1ffffffffffff8
0000003c000000
00000008000000
ENDCHAR
STARTCHAR UnderBraceExt1
ENCODING 171
SWIDTH 200 0
DWIDTH 6 0
BBX 6 5 0 0
BITMAP
80
c0
7c
3c
1c
ENDCHAR
STARTCHAR UnderBraceExt2
ENCODING 172
SWIDTH 200 0
DWIDTH 6 0
BBX 6 3 0 0
BITMAP
fc
fc
fc
ENDCHAR
STARTCHAR UnderBraceExt3
ENCODING 173
SWIDTH 347 0
DWIDTH 10 0
BBX 10 5 0 -2
BITMAP
e1c0
f7c0
ffc0
0c00
0400
ENDCHAR
STARTCHAR UnderBraceExt4
ENCODING 174
SWIDTH 200 0
DWIDTH 6 0
BBX 6 5 0 0
BITMAP
04
0c
f8
f0
e0
ENDCHAR
STARTCHAR AngleArrowExt135
ENCODING 175
SWIDTH 308 0
DWIDTH 9 0
BBX 9 9 0 0
BITMAP
4000
e000
7000
3800
1c00
0e00
0700
0380
0100
ENDCHAR
STARTCHAR OverWedge1
ENCODING 176
SWIDTH 700 0
DWIDTH 21 0
BBX 21 5 0 0
BITMAP
007000
07ff00
3fffe0
fc01f8
c00018
ENDCHAR
STARTCHAR OverWedge2
ENCODING 177
SWIDTH 1050 0
DWIDTH 31 0
BBX 32 5 0 0
BITMAP
0007e000
00ffff00
1ffffff8
ffc003ff
e0000007
ENDCHAR
STARTCHAR OverWedge3
ENCODING 178
SWIDTH 1400 0
DWIDTH 42 0
BBX 42 6 0 0
BITMAP
00007f800000
000ffffc0000
01ffffffe000
7fff807fff80
ffe00001ffc0
f000000003c0
ENDCHAR
STARTCHAR OverWedge4
ENCODING 179
SWIDTH 1750 0
DWIDTH 53 0
BBX 53 6 0 0
BITMAP
000003fe000000
0000fffff80000
007ffffffff000
3ffff800ffffe0
fff8000000fff8
f0000000000078
ENDCHAR
STARTCHAR Ellipsis
ENCODING 180
SWIDTH 1000 0
DWIDTH 30 0
BBX 24 5 3 -1
BITMAP
701c0e
f83e1f
f83e1f
f83e1f
701c0e
ENDCHAR
STARTCHAR CenterEllipsis
ENCODING 181
SWIDTH 1000 0
DWIDTH 30 0
BBX 24 5 3 5
BITMAP
701c0e
f83e1f
f83e1f
f83e1f
701c0e
ENDCHAR
STARTCHAR VertEllipsis
ENCODING 182
SWIDTH 279 0
DWIDTH 8 0
BBX 5 25 2 -1
BITMAP
70
f8
f8
f8
70
00
00
00
00
00
70
f8
f8
f8
70
00
00
00
00
00
70
f8
f8
f8
70
ENDCHAR
STARTCHAR DiagEllipsis
ENCODING 183
SWIDTH 713 0
DWIDTH 21 0
BBX 19 18 1 1
BITMAP
0001c0
0003e0
0003e0
0003e0
0001c0
000000
00e000
01f000
01f000
01f000
00e000
000000
000000
700000
f80000
f80000
f80000
700000
ENDCHAR
STARTCHAR BackDiagEllipsis
ENCODING 184
SWIDTH 713 0
DWIDTH 21 0
BBX 19 18 1 1
BITMAP
700000
f80000
f80000
f80000
700000
000000
00e000
01f000
01f000
01f000
00e000
000000
000000
0001c0
0003e0
0003e0
0003e0
0001c0
ENDCHAR
STARTCHAR Ellipsis2
ENCODING 185
SWIDTH 1000 0
DWIDTH 30 0
BBX 24 5 3 -1
BITMAP
701c0e
f83e1f
f83e1f
f83e1f
701c0e
ENDCHAR
STARTCHAR CenterEllipsis2
ENCODING 186
SWIDTH 1000 0
DWIDTH 30 0
BBX 24 5 3 5
BITMAP
701c0e
f83e1f
f83e1f
f83e1f
701c0e
ENDCHAR
STARTCHAR VertEllipsis2
ENCODING 187
SWIDTH 279 0
DWIDTH 8 0
BBX 5 25 2 -1
BITMAP
70
f8
f8
f8
70
00
00
00
00
00
70
f8
f8
f8
70
00
00
00
00
00
70
f8
f8
f8
70
ENDCHAR
STARTCHAR Dot
ENCODING 188
SWIDTH 335 0
DWIDTH 10 0
BBX 5 5 3 -1
BITMAP
70
f8
f8
f8
70
ENDCHAR
STARTCHAR CenterDot
ENCODING 189
SWIDTH 335 0
DWIDTH 10 0
BBX 5 5 3 5
BITMAP
70
f8
f8
f8
70
ENDCHAR
STARTCHAR BackPrime
ENCODING 190
SWIDTH 373 0
DWIDTH 11 0
BBX 8 13 1 1
BITMAP
70
f8
f8
f8
7c
3c
3c
1e
1e
0e
07
07
03
ENDCHAR
STARTCHAR DblBackPrime
ENCODING 191
SWIDTH 651 0
DWIDTH 20 0
BBX 17 13 1 1
BITMAP
703000
f87800
f87c00
fc7c00
7c3c00
3e3e00
1e1e00
1f0e00
0f0f00
070700
038300
018380
018100
ENDCHAR
STARTCHAR UnderVee1
ENCODING 192
SWIDTH 700 0
DWIDTH 21 0
BBX 21 5 0 0
BITMAP
c00018
fc01f8
3fffe0
07ff00
007000
ENDCHAR
STARTCHAR UnderVee2
ENCODING 193
SWIDTH 1050 0
DWIDTH 31 0
BBX 32 5 0 0
BITMAP
e0000007
ffc003ff
1ffffff8
00ffff00
0007e000
ENDCHAR
STARTCHAR UnderVee3
ENCODING 194
SWIDTH 1400 0
DWIDTH 42 0
BBX 42 6 0 0
BITMAP
f000000003c0
ffe00001ffc0
7fff807fff80
01ffffffe000
000ffffc0000
00007f800000
ENDCHAR
STARTCHAR UnderVee4
ENCODING 195
SWIDTH 1750 0
DWIDTH 53 0
BBX 53 6 0 0
BITMAP
f0000000000078
fff8000000fff8
3ffff800ffffe0
007ffffffff000
0000fffff80000
000003fe000000
ENDCHAR
STARTCHAR UpPointer
ENCODING 196
SWIDTH 520 0
DWIDTH 16 0
BBX 13 6 1 5
BITMAP
0200
0700
0f80
1fc0
3fe0
fff8
ENDCHAR
STARTCHAR RightPointer
ENCODING 197
SWIDTH 310 0
DWIDTH 9 0
BBX 6 13 1 1
BITMAP
80
80
c0
e0
f0
f8
fc
f8
f0
e0
c0
80
80
ENDCHAR
STARTCHAR DownPointer
ENCODING 198
SWIDTH 520 0
DWIDTH 16 0
BBX 13 6 1 5
BITMAP
fff8
3fe0
1fc0
0f80
0700
0200
ENDCHAR
STARTCHAR LeftPointer
ENCODING 199
SWIDTH 310 0
DWIDTH 9 0
BBX 7 13 1 1
BITMAP
02
04
0c
1c
3c
7c
fc
7c
3c
1c
0c
04
02
ENDCHAR
STARTCHAR UpLHookExt
ENCODING 200
SWIDTH 275 0
DWIDTH 8 0
BBX 7 9 0 6
BITMAP
f8
fc
fe
0e
0e
0e
fe
fc
f8
ENDCHAR
STARTCHAR UpRHookExt
ENCODING 201
SWIDTH 275 0
DWIDTH 8 0
BBX 7 9 1 6
BITMAP
3e
7e
fe
e0
e0
e0
fe
7e
1e
ENDCHAR
STARTCHAR Nbspace
ENCODING 202
SWIDTH 189 0
DWIDTH 6 0
BBX 0 0 0 0
BITMAP
ENDCHAR
STARTCHAR XBox
ENCODING 203
SWIDTH 600 0
DWIDTH 18 0
BBX 14 14 2 0
BITMAP
fffc
c00c
a014
9024
8844
8484
8304
8304
8484
8844
9024
a014
c00c
fffc
ENDCHAR
STARTCHAR SmileyFace
ENCODING 204
SWIDTH 577 0
DWIDTH 17 0
BBX 15 20 1 0
BITMAP
1ff0
3ffc
781c
700c
e00e
e00e
e66e
effe
e66e
e00e
e00e
ec3e
ee7e
e7ee
e3ce
e00e
700e
781c
7ffc
1ff0
ENDCHAR
STARTCHAR StraightFace
ENCODING 205
SWIDTH 577 0
DWIDTH 17 0
BBX 15 20 1 0
BITMAP
1ff0
3ffc
701c
700c
e00e
e00e
eeee
effe
eeee
e00e
e00e
e00e
e00e
efee
efee
e00e
f00e
781c
7ffc
1ff0
ENDCHAR
STARTCHAR FrownFace
ENCODING 206
SWIDTH 577 0
DWIDTH 17 0
BBX 15 20 1 0
BITMAP
1ff0
3ffc
781c
700c
e00e
e00e
e66e
effe
e66e
e00e
e00e
e3ce
e7ee
ee7e
ec3e
e00e
700e
781c
7ffc
1ff0
ENDCHAR
STARTCHAR ShockFace
ENCODING 207
SWIDTH 581 0
DWIDTH 17 0
BBX 18 28 0 0
BITMAP
021000
421080
421180
621100
222300
322200
1a2600
cb6cc0
6ffd80
1fff00
3c0f00
380700
700380
700380
773380
77fb80
773380
700380
70c380
71e380
733380
721380
723380
71e380
38c780
3c0700
3fff00
0ffc00
ENDCHAR
STARTCHAR Strike1
ENCODING 208
SWIDTH 180 0
DWIDTH 5 0
BBX 5 10 0 3
BITMAP
38
38
30
30
70
70
60
60
e0
e0
ENDCHAR
STARTCHAR Strike2
ENCODING 209
SWIDTH 233 0
DWIDTH 7 0
BBX 7 16 0 0
BITMAP
0e
0e
0c
1c
1c
1c
18
38
38
30
70
70
70
60
e0
e0
ENDCHAR
STARTCHAR Strike3
ENCODING 210
SWIDTH 280 0
DWIDTH 8 0
BBX 8 21 0 -3
BITMAP
07
07
06
06
0e
0e
0c
1c
1c
1c
18
38
38
38
30
70
70
60
60
e0
e0
ENDCHAR
STARTCHAR Strike4
ENCODING 211
SWIDTH 311 0
DWIDTH 9 0
BBX 9 25 0 -4
BITMAP
0380
0380
0300
0300
0700
0700
0600
0e00
0e00
0e00
0c00
1c00
1c00
1c00
1800
3800
3800
3800
3000
7000
7000
6000
6000
e000
e000
ENDCHAR
STARTCHAR Strike5
ENCODING 212
SWIDTH 340 0
DWIDTH 10 0
BBX 10 28 0 -4
BITMAP
01c0
01c0
0180
0380
0380
0380
0300
0700
0700
0700
0600
0e00
0e00
0c00
0c00
1c00
1c00
1800
3800
3800
3800
3000
7000
7000
7000
6000
e000
e000
ENDCHAR
STARTCHAR Strike6
ENCODING 213
SWIDTH 349 0
DWIDTH 10 0
BBX 10 32 0 -7
BITMAP
01c0
01c0
0180
0180
0380
0380
0380
0300
0700
0700
0700
0600
0600
0e00
0e00
0c00
0c00
1c00
1c00
1800
1800
3800
3800
3800
3000
7000
7000
7000
6000
6000
e000
e000
ENDCHAR
STARTCHAR KeyBar
ENCODING 214
SWIDTH 88 0
DWIDTH 3 0
BBX 7 4 -2 5
BITMAP
fe
fe
fe
fe
ENDCHAR
STARTCHAR DownLHookExt
ENCODING 215
SWIDTH 275 0
DWIDTH 8 0
BBX 7 9 0 0
BITMAP
f0
fc
fe
0e
0e
0e
fe
fc
f8
ENDCHAR
STARTCHAR DownRHookExt
ENCODING 216
SWIDTH 275 0
DWIDTH 8 0
BBX 7 9 1 0
BITMAP
1e
7e
fe
e0
e0
e0
fe
7e
3e
ENDCHAR
STARTCHAR Icos
ENCODING 217
SWIDTH 956 0
DWIDTH 29 0
BBX 27 24 1 -3
BITMAP
00080400
000c3800
07d7d800
04321800
06212800
0320a800
0340c800
02dffe00
07fe61e0
78c8b040
81291080
62150980
14160640
180e7de0
37f7fe00
1cff0c00
03040c00
020e0c00
010b1400
01129200
01a65200
01abde00
01f16000
00400000
ENDCHAR
STARTCHAR KernalIcon
ENCODING 218
SWIDTH 909 0
DWIDTH 27 0
BBX 26 24 1 -3
BITMAP
007f8000
03806000
04001800
18106400
1799e200
22666100
4322a080
4341a080
82dff880
83fd8640
9dcb4240
b12a2440
9a1c3a40
8c1dfe40
8cfff040
430c3080
41163080
41163100
21af4900
11f5f200
09c04400
06001800
01806000
007f8000
ENDCHAR
STARTCHAR LightBulb
ENCODING 219
SWIDTH 688 0
DWIDTH 21 0
BBX 19 28 1 -4
BITMAP
004000
004000
004000
180600
0bf200
860c20
c80260
100100
300100
200080
200080
200080
200080
100100
180300
080600
040400
020800
031800
011000
011000
011000
000000
01f000
000000
01f000
00e000
00e000
ENDCHAR
STARTCHAR WarningSign
ENCODING 220
SWIDTH 675 0
DWIDTH 20 0
BBX 18 20 1 0
BITMAP
00e000
01a000
01b000
011000
031800
021800
060800
04ec00
0ce400
08e600
18e200
104200
304300
204100
200180
40e080
40e080
800040
800040
ffffc0
ENDCHAR
STARTCHAR WatchIcon
ENCODING 221
SWIDTH 597 0
DWIDTH 18 0
BBX 14 22 2 -3
BITMAP
3fc0
3fc0
3fc0
3fc0
3fc0
6030
8118
8118
8118
811c
811c
8f1c
8018
8018
8018
6030
6030
3fc0
3fc0
3fc0
3fc0
3fc0
ENDCHAR
STARTCHAR Cedilla
ENCODING 222
SWIDTH 254 0
DWIDTH 8 0
BBX 8 7 0 -7
BITMAP
18
38
3e
07
07
fe
3c
ENDCHAR
STARTCHAR Ogonek
ENCODING 223
SWIDTH 211 0
DWIDTH 6 0
BBX 6 4 0 -5
BITMAP
70
e4
fc
78
ENDCHAR
STARTCHAR AltKey
ENCODING 224
SWIDTH 1174 0
DWIDTH 35 0
BBX 31 23 2 -4
BITMAP
fffffffe
80000002
80000002
80000002
80000002
80c10fe2
80c10102
80e10102
81210102
81210102
81210102
82110102
82110102
82110102
87f90102
84090102
84090102
8c05f102
80000002
80000002
80000002
80000002
fffffffe
ENDCHAR
STARTCHAR CmdKey
ENCODING 225
SWIDTH 1318 0
DWIDTH 40 0
BBX 36 23 2 -4
BITMAP
fffffffff0
8000000010
8000000010
8000000010
8000000010
878c06fc10
844c068210
884e0e8310
880a0a8110
880a0a8110
880b1a8110
8809128110
8809128110
8809128110
8808a28110
8848a28310
8448a28610
8788e2fc10
8000000010
8000000010
8000000010
8000000010
fffffffff0
ENDCHAR
STARTCHAR CtrlKey
ENCODING 226
SWIDTH 1379 0
DWIDTH 41 0
BBX 37 23 2 -4
BITMAP
fffffffff8
8000000008
8000000008
8000000008
8000000008
87dfcf8808
844208c808
8842084808
8822084808
8802084808
8802088808
88020f0808
8802088808
8802084808
8802084808
8862084808
8442084808
8782084f88
8000000008
8000000008
8000000008
8000000008
fffffffff8
ENDCHAR
STARTCHAR DelKey
ENCODING 227
SWIDTH 1143 0
DWIDTH 34 0
BBX 30 23 2 -4
BITMAP
fffffffc
80000004
80000004
80000004
80000004
87c3f204
84220204
84120204
84120204
84120204
84120204
8413e204
84120204
84120204
84120204
84120204
84220204
87c3f3e4
80000004
80000004
80000004
80000004
fffffffc
ENDCHAR
STARTCHAR EntKey
ENCODING 228
SWIDTH 1146 0
DWIDTH 34 0
BBX 30 23 2 -4
BITMAP
fffffffc
80000004
80000004
80000004
80000004
87ec4fe4
840c4104
840c4104
840a4104
840a4104
840a4104
87c94104
84094104
84094104
84094104
8408c104
8408c104
87e8c104
80000004
80000004
80000004
80000004
fffffffc
ENDCHAR
STARTCHAR EscKey
ENCODING 229
SWIDTH 1146 0
DWIDTH 34 0
BBX 30 23 2 -4
BITMAP
fffffffc
80000004
80000004
80000004
80000004
87e78384
84048484
84084844
84084844
84080804
84040804
87c30804
84018804
8400c804
84004804
84084844
8408cc44
87e78784
80000004
80000004
80000004
80000004
fffffffc
ENDCHAR
STARTCHAR OptKey
ENCODING 230
SWIDTH 1187 0
DWIDTH 36 0
BBX 32 23 2 -4
BITMAP
ffffffff
80000001
80000001
80000001
80000001
8787efe1
84442101
88241101
88241101
88241101
88242101
8827c101
88240101
88240101
88240101
88240101
84440101
83840101
80000001
80000001
80000001
80000001
ffffffff
ENDCHAR
STARTCHAR RetKey
ENCODING 231
SWIDTH 1174 0
DWIDTH 35 0
BBX 31 23 2 -4
BITMAP
fffffffe
80000002
80000002
80000002
80000002
87c7efe2
84240102
84240102
84340102
84240102
84640102
8787e102
84640102
84240102
84240102
84240102
84340102
8437e102
80000002
80000002
80000002
80000002
fffffffe
ENDCHAR
STARTCHAR ShftKey
ENCODING 232
SWIDTH 1448 0
DWIDTH 43 0
BBX 39 23 2 -4
BITMAP
fffffffffe
8000000002
8000000002
8000000002
8000000002
83c437cfe2
8624340102
8c24340102
8c04340102
8604340102
8704340102
8187f78102
80c4340102
8024340102
8024340102
8824340102
8424340102
83c4340102
8000000002
8000000002
8000000002
8000000002
fffffffffe
ENDCHAR
STARTCHAR SpcKey
ENCODING 233
SWIDTH 1187 0
DWIDTH 36 0
BBX 32 23 2 -4
BITMAP
ffffffff
80000001
80000001
80000001
80000001
83c7c3c1
84446461
8c242821
8c042801
86042801
87044801
8187c801
80c40801
80640801
80240801
88240821
84640421
83c403c1
80000001
80000001
80000001
80000001
ffffffff
ENDCHAR
STARTCHAR TabKey
ENCODING 234
SWIDTH 1177 0
DWIDTH 35 0
BBX 31 23 2 -4
BITMAP
fffffffe
80000002
80000002
80000002
80000002
8fe20f82
81060842
81050822
81050822
81090822
81088842
81088fc2
81108822
8110c812
811fc812
81104812
81206822
81202fc2
80000002
80000002
80000002
80000002
fffffffe
ENDCHAR
STARTCHAR LKeyBracket
ENCODING 235
SWIDTH 245 0
DWIDTH 7 0
BBX 8 31 -2 -8
BITMAP
0f
08
08
08
08
08
08
08
08
08
08
08
08
f8
f8
f8
f8
08
08
08
08
08
08
08
08
08
08
08
08
08
0f
ENDCHAR
STARTCHAR RKeyBracket
ENCODING 236
SWIDTH 245 0
DWIDTH 7 0
BBX 4 31 1 -8
BITMAP
f0
10
10
10
10
10
10
10
10
10
10
10
10
10
10
10
10
10
10
10
10
10
10
10
10
10
10
10
10
10
f0
ENDCHAR
STARTCHAR CloverLeaf
ENCODING 237
SWIDTH 750 0
DWIDTH 23 0
BBX 20 19 1 0
BITMAP
3c01c0
430620
810410
810410
810410
c10430
3fffe0
010400
010400
010400
010400
010400
3fffe0
c10430
810410
810410
810410
430620
3e03c0
ENDCHAR
STARTCHAR DottedSquare
ENCODING 238
SWIDTH 764 0
DWIDTH 23 0
BBX 20 20 1 0
BITMAP
f871f0
800010
800010
800010
800010
000000
000000
000000
800010
800010
800010
000000
000000
000000
000000
800010
800010
800010
800010
f871f0
ENDCHAR
STARTCHAR RoundSpaceIndicator
ENCODING 239
SWIDTH 250 0
DWIDTH 8 0
BBX 6 4 1 -4
BITMAP
84
cc
78
30
ENDCHAR
STARTCHAR CommandKey
ENCODING 240
SWIDTH 2643 0
DWIDTH 79 0
BBX 75 23 2 -4
BITMAP
ffffffffffffffffffe0
80000000000000000020
80000000000000000020
80000000000000000020
80000000000000000020
8783c603303060c4f820
84442703303060c48c20
884425053030a0c48420
882c1505305090a48220
88081505285090a48220
8808148d285090a48220
8808148928d108948220
880814892c9108948220
880814c9249108948220
880814512493fc948220
886c14512512048c8220
844424512312048c8420
8783c4312314068cf820
80000000000000000020
80000000000000000020
80000000000000000020
80000000000000000020
ffffffffffffffffffe0
ENDCHAR
STARTCHAR ControlKey
ENCODING 241
SWIDTH 2327 0
DWIDTH 70 0
BBX 66 23 2 -4
BITMAP
ffffffffffffffffc0
800000000000000040
800000000000000040
800000000000000040
800000000000000040
83c3c313f9f0f88040
846423104108848040
842413104109028040
880413904109028040
880412904109028040
880412904111028040
8804129041e1028040
880412504119028040
880412504109028040
880412504109028040
8c2412304109028040
842622304109848040
83c3c230410878fc40
800000000000000040
800000000000000040
800000000000000040
800000000000000040
ffffffffffffffffc0
ENDCHAR
STARTCHAR DeleteKey
ENCODING 242
SWIDTH 1890 0
DWIDTH 57 0
BBX 53 23 2 -4
BITMAP
fffffffffffff8
80000000000008
80000000000008
80000000000008
80000000000008
87c3f40fdfdf88
84220408041008
84120408041008
84120408041008
84120408041008
84120408041008
8413e40fc41f08
84120408041008
84120408041008
84120408041008
84120408041008
84220408041008
87c3f7efc41f88
80000000000008
80000000000008
80000000000008
80000000000008
fffffffffffff8
ENDCHAR
STARTCHAR EnterKey
ENCODING 243
SWIDTH 1668 0
DWIDTH 50 0
BBX 46 23 2 -4
BITMAP
fffffffffffc
800000000004
800000000004
800000000004
800000000004
87ec4fe7ef84
840c41040844
840e41040844
840a41040844
840a41040844
840a410408c4
87c94107cf04
8409410408c4
840941040844
8408c1040844
8408c1040844
8408c1040844
87e84107e864
800000000004
800000000004
800000000004
800000000004
fffffffffffc
ENDCHAR
STARTCHAR EscapeKey
ENCODING 244
SWIDTH 2000 0
DWIDTH 60 0
BBX 56 23 2 -4
BITMAP
ffffffffffffff
80000000000001
80000000000001
80000000000001
80000000000001
87e7878183f3f1
84084841821201
84084842820a01
84081002c20a01
84081002420a01
84041004421201
87c3100443e3f1
84019004220201
8400d008220201
8400500fe20201
84084848120201
84084850120201
87e484901203f1
80000000000001
80000000000001
80000000000001
80000000000001
ffffffffffffff
ENDCHAR
STARTCHAR OptionKey
ENCODING 245
SWIDTH 1869 0
DWIDTH 56 0
BBX 52 23 2 -4
BITMAP
fffffffffffff0
80000000000010
80000000000010
80000000000010
80000000000010
83c7e7fa3c3110
84643082223110
88241082413110
88241082412910
88241082412910
88243082412910
8827e082412510
88240082412510
88240082412510
88240082412510
88240082412310
84640082222310
83c400821c2310
80000000000010
80000000000010
80000000000010
80000000000010
fffffffffffff0
ENDCHAR
STARTCHAR ReturnKey
ENCODING 246
SWIDTH 2015 0
DWIDTH 60 0
BBX 57 23 2 -4
BITMAP
ffffffffffffff80
8000000000000080
8000000000000080
8000000000000080
8000000000000080
87c7eff413e31080
8424010412331080
8414010412131080
8414010412129080
8424010412129080
8464010412229080
87c7e10413c25080
8424010412225080
8424010412125080
8424010412125080
8434010412123080
8434010232123080
8417e101e2123080
8000000000000080
8000000000000080
8000000000000080
8000000000000080
ffffffffffffff80
ENDCHAR
STARTCHAR ShiftKey
ENCODING 247
SWIDTH 1563 0
DWIDTH 47 0
BBX 43 23 2 -4
BITMAP
ffffffffffe0
800000000020
800000000020
800000000020
800000000020
83c424fdfc20
862424802020
842424802020
8c0424802020
860424802020
830424802020
8187e4f82020
80c424802020
802424802020
802424802020
882424802020
842424802020
83c424802020
800000000020
800000000020
800000000020
800000000020
ffffffffffe0
ENDCHAR
STARTCHAR SpaceKey
ENCODING 248
SWIDTH 1699 0
DWIDTH 51 0
BBX 47 23 2 -4
BITMAP
fffffffffffe
800000000002
800000000002
800000000002
800000000002
83c7c103e7e2
842423062402
8c2422842402
8c0422841402
860424840402
870424440402
8187c44407e2
80c408440402
802408640402
80240fe40402
882410241402
8c2410342402
8644101367e2
818000008002
800000000002
800000000002
800000000002
fffffffffffe
ENDCHAR
STARTCHAR Mod1Key
ENCODING 249
SWIDTH 1543 0
DWIDTH 46 0
BBX 42 23 2 -4
BITMAP
ffffffffffc0
800000000040
800000000040
800000000040
800000000040
8c0c3e3e0440
8c0c63210c40
8c0c41209440
8a1441208440
8a1441208440
8a1441208440
8b3441208440
892441208440
892441208440
892441208440
88c441208440
88c463210440
88c41c3e0440
800000000040
800000000040
800000000040
800000000040
ffffffffffc0
ENDCHAR
STARTCHAR Mod2Key
ENCODING 250
SWIDTH 1655 0
DWIDTH 50 0
BBX 46 23 2 -4
BITMAP
fffffffffffc
800000000004
800000000004
800000000004
800000000004
8c0c3e3f0784
8c0c63218844
8c0c41208844
8a1441208044
8a1441208084
8a1441208084
8b3441208104
892441208104
892441208204
892441208604
88c441208404
88c422210804
88c41c3e0fc4
800000000004
800000000004
800000000004
800000000004
fffffffffffc
ENDCHAR
STARTCHAR RKeyBracket2
ENCODING 251
SWIDTH 245 0
DWIDTH 7 0
BBX 4 31 1 -8
BITMAP
f0
80
80
80
80
80
80
80
80
80
80
80
80
80
80
80
80
80
80
80
80
80
80
80
80
80
80
80
80
80
f0
ENDCHAR
STARTCHAR LUpHookExt
ENCODING 252
SWIDTH 591 0
DWIDTH 18 0
BBX 9 7 1 0
BITMAP
e380
e380
e380
e380
7f80
7f00
3e00
ENDCHAR
STARTCHAR RUpHookExt
ENCODING 253
SWIDTH 250 0
DWIDTH 8 0
BBX 9 7 1 0
BITMAP
e380
e380
e380
e380
ff00
7f00
3e00
ENDCHAR
STARTCHAR LDownHookExt
ENCODING 254
SWIDTH 250 0
DWIDTH 8 0
BBX 9 7 0 0
BITMAP
3e00
7f00
ff80
e380
e380
e380
e380
ENDCHAR
STARTCHAR RDownHookExt
ENCODING 255
SWIDTH 0 0
DWIDTH 0 0
BBX 9 7 0 0
BITMAP
3e00
7f00
ff80
e380
e380
e380
e380
ENDCHAR
ENDFONT
