STARTFONT 2.1
FONT -WRI-Mathematica5Mono-Medium-R-Normal--22-220-75-75-M-120-Adobe-FontSpecific
SIZE 22 75 75
FONTBOUNDINGBOX 67 46 -2 -18
STARTPROPERTIES 16
FOUNDRY "WRI"
FAMILY_NAME "Mathematica5Mono"
WEIGHT_NAME "Medium"
SLANT "R"
SETWIDTH_NAME "Normal"
PIXEL_SIZE 22
POINT_SIZE 220
RESOLUTION_X 75
RESOLUTION_Y 75
SPACING "M"
AVERAGE_WIDTH 120
CHARSET_REGISTRY "Adobe"
CHARSET_ENCODING "FontSpecific"
FONT_DESCENT 18
FONT_ASCENT 28
DEFAULT_CHAR 32
ENDPROPERTIES
CHARS 228
STARTCHAR Villa
ENCODING 1
SWIDTH 627 0
DWIDTH 14 0
BBX 13 18 0 -3
BITMAP
0160
02e0
04e0
0bd0
13a0
7fd0
9028
13a0
17a0
16a0
16a0
14a0
14a0
1fe0
0780
0f80
0f80
1680
ENDCHAR
STARTCHAR Kooz
ENCODING 2
SWIDTH 746 0
DWIDTH 16 0
BBX 16 18 0 -3
BITMAP
0800
77e0
1de0
08b0
0cd8
17f0
6a10
3b2c
68c6
6f01
b07b
b01a
7089
3001
3001
2811
1008
0006
ENDCHAR
STARTCHAR Andy
ENCODING 3
SWIDTH 1000 0
DWIDTH 22 0
BBX 19 16 1 0
BITMAP
400000
806000
006000
a04000
a04e00
1ff000
594800
c25000
a3e000
c03000
a01000
c06000
01c000
830060
c30380
01fc00
ENDCHAR
STARTCHAR Spooky
ENCODING 4
SWIDTH 535 0
DWIDTH 12 0
BBX 13 14 0 0
BITMAP
0020
2040
30c0
39c0
1ec0
1840
7fd8
b740
62f8
1240
7bf0
36c0
10a0
0080
ENDCHAR
STARTCHAR space
ENCODING 32
SWIDTH 263 0
DWIDTH 6 0
BBX 0 0 0 0
BITMAP
ENDCHAR
STARTCHAR BckspcKey
ENCODING 33
SWIDTH 1981 0
DWIDTH 44 0
BBX 41 17 1 -3
BITMAP
ffffffffff80
800000000080
800000000080
800000000080
9c3913ce3880
924524496480
91454428c480
914142094080
9e41818e4080
914140484080
914524284480
914524486480
9e3913c83880
800000000080
800000000080
800000000080
ffffffffff80
ENDCHAR
STARTCHAR HomeKey
ENCODING 34
SWIDTH 1603 0
DWIDTH 35 0
BBX 33 17 1 -3
BITMAP
ffffffff80
8000000080
8000000080
8000000080
909cc1bc80
90a2a1a080
90a2a1a080
90a1a2a080
9f2192bc80
90a192a080
90a294a080
90a28ca080
909c88bc80
8000000080
8000000080
8000000080
ffffffff80
ENDCHAR
STARTCHAR PgupKey
ENCODING 35
SWIDTH 1444 0
DWIDTH 32 0
BBX 29 17 1 -3
BITMAP
fffffff8
80000008
80000008
80000008
9c790bc8
92450a48
91810a28
92810a48
9c9d0bc8
90850a08
90850a08
90459a08
9078f208
80000008
80000008
80000008
fffffff8
ENDCHAR
STARTCHAR PgdwnKey
ENCODING 36
SWIDTH 1999 0
DWIDTH 44 0
BBX 42 17 1 -3
BITMAP
ffffffffffc0
800000000040
800000000040
800000000040
9c38f2316240
92448a316240
914086315240
928085295240
9e9c854a4a40
9084854a4a40
904484ca4640
904488c44640
903cf0844640
800000000040
800000000040
800000000040
ffffffffffc0
ENDCHAR
STARTCHAR EndKey
ENCODING 37
SWIDTH 1187 0
DWIDTH 26 0
BBX 24 17 1 -3
BITMAP
ffffff
800001
800001
800001
9f62f1
906289
905285
905285
9e4a85
904a85
904a85
904689
9f46f1
800001
800001
800001
ffffff
ENDCHAR
STARTCHAR FilledHeart
ENCODING 38
SWIDTH 605 0
DWIDTH 13 0
BBX 12 12 1 0
BITMAP
39c0
7fe0
fff0
fff0
fff0
7fe0
3fc0
3fc0
1f80
0f00
0600
0200
ENDCHAR
STARTCHAR Euro
ENCODING 39
SWIDTH 600 0
DWIDTH 13 0
BBX 11 13 1 0
BITMAP
0f20
10e0
2060
2020
4000
ff80
4000
ff00
4000
2000
2000
1060
0f80
ENDCHAR
STARTCHAR CapitalOE
ENCODING 40
SWIDTH 600 0
DWIDTH 13 0
BBX 13 13 0 0
BITMAP
0ff8
3108
4108
4108
8100
8140
81c0
8140
8100
4108
4108
3108
0ff8
ENDCHAR
STARTCHAR OE
ENCODING 41
SWIDTH 600 0
DWIDTH 13 0
BBX 11 10 1 0
BITMAP
3180
4a40
8420
8420
87e0
8400
8400
8600
4a00
31e0
ENDCHAR
STARTCHAR ABar
ENCODING 42
SWIDTH 600 0
DWIDTH 13 0
BBX 11 12 1 0
BITMAP
7f80
0000
1e00
6100
0080
0080
3f80
4080
8080
8180
c280
3ce0
ENDCHAR
STARTCHAR ACup
ENCODING 43
SWIDTH 600 0
DWIDTH 13 0
BBX 11 13 1 0
BITMAP
2180
1f00
0000
1e00
6100
0080
0080
3f80
4080
8080
8180
c280
3ce0
ENDCHAR
STARTCHAR CapitalABar
ENCODING 44
SWIDTH 600 0
DWIDTH 13 0
BBX 13 15 0 0
BITMAP
3fe0
0000
3e00
0300
0500
0480
0880
0880
1040
1040
1fc0
2020
2020
4010
f078
ENDCHAR
STARTCHAR CapitalACup
ENCODING 45
SWIDTH 600 0
DWIDTH 13 0
BBX 13 16 0 0
BITMAP
1040
0f80
0000
3e00
0300
0500
0480
0880
0880
1040
1040
1fc0
2020
2020
4010
f078
ENDCHAR
STARTCHAR CAcute
ENCODING 46
SWIDTH 600 0
DWIDTH 13 0
BBX 10 15 2 0
BITMAP
0300
0600
0c00
0800
0000
1e80
6180
4080
8080
8000
8000
8000
4040
6180
1e00
ENDCHAR
STARTCHAR CHacek
ENCODING 47
SWIDTH 600 0
DWIDTH 13 0
BBX 10 15 2 0
BITMAP
4100
2200
1400
0c00
0000
1e80
6180
4080
8080
8000
8000
8000
4040
6180
1e00
ENDCHAR
STARTCHAR ScriptZero
ENCODING 48
SWIDTH 588 0
DWIDTH 13 0
BBX 9 13 2 0
BITMAP
0e00
1100
2080
4080
4080
4080
8080
8080
8100
8100
8200
4400
3800
ENDCHAR
STARTCHAR ScriptOne
ENCODING 49
SWIDTH 600 0
DWIDTH 13 0
BBX 7 12 3 0
BITMAP
0c
34
04
04
08
08
08
08
10
10
10
fe
ENDCHAR
STARTCHAR ScriptTwo
ENCODING 50
SWIDTH 588 0
DWIDTH 13 0
BBX 9 13 2 0
BITMAP
0e00
3100
2080
0080
0080
0100
0200
0400
0800
1000
6000
c100
ff00
ENDCHAR
STARTCHAR ScriptThree
ENCODING 51
SWIDTH 600 0
DWIDTH 13 0
BBX 9 13 2 0
BITMAP
0e00
1180
0080
0080
0100
0e00
0600
0100
0100
0100
0300
c600
7c00
ENDCHAR
STARTCHAR ScriptFour
ENCODING 52
SWIDTH 600 0
DWIDTH 13 0
BBX 10 13 2 0
BITMAP
01c0
0140
0280
0480
0880
1880
3100
2100
4100
ff80
0100
0200
0f00
ENDCHAR
STARTCHAR ScriptFive
ENCODING 53
SWIDTH 600 0
DWIDTH 13 0
BBX 9 13 2 0
BITMAP
1f80
1000
1000
2000
2000
3e00
2100
0080
0080
0080
0100
c200
3c00
ENDCHAR
STARTCHAR ScriptSix
ENCODING 54
SWIDTH 548 0
DWIDTH 12 0
BBX 9 13 2 0
BITMAP
0780
0800
1000
2000
4000
5c00
a200
c100
8100
8100
8200
4400
3800
ENDCHAR
STARTCHAR ScriptSeven
ENCODING 55
SWIDTH 559 0
DWIDTH 12 0
BBX 9 12 3 0
BITMAP
ff80
0100
0100
0200
0200
0400
0800
0800
1000
1000
2000
6000
ENDCHAR
STARTCHAR ScriptEight
ENCODING 56
SWIDTH 548 0
DWIDTH 12 0
BBX 9 13 2 0
BITMAP
0f00
1900
3080
2080
2180
3300
1c00
6200
4100
8100
8200
4600
3800
ENDCHAR
STARTCHAR ScriptNine
ENCODING 57
SWIDTH 548 0
DWIDTH 12 0
BBX 8 13 3 0
BITMAP
1c
32
21
41
41
43
65
39
02
02
04
18
e0
ENDCHAR
STARTCHAR ODoubleAcute
ENCODING 58
SWIDTH 600 0
DWIDTH 13 0
BBX 11 15 1 0
BITMAP
0ee0
0880
1100
2200
0000
1f00
2080
4040
8020
8020
8020
8020
4040
2080
1f00
ENDCHAR
STARTCHAR CapitalODoubleAcute
ENCODING 59
SWIDTH 600 0
DWIDTH 13 0
BBX 11 18 1 0
BITMAP
0cc0
0980
1100
2200
0000
1f00
3180
4040
4040
8020
8020
8020
8020
8020
4040
4040
3180
1f00
ENDCHAR
STARTCHAR SHacek
ENCODING 60
SWIDTH 600 0
DWIDTH 13 0
BBX 9 15 2 0
BITMAP
4100
2200
1400
1c00
0000
3f00
4100
8100
4000
7800
0700
0080
8080
c100
be00
ENDCHAR
STARTCHAR CapitalSHacek
ENCODING 61
SWIDTH 600 0
DWIDTH 13 0
BBX 10 18 2 0
BITMAP
2080
1180
0b00
0600
0000
1f40
2080
4080
4040
4000
2000
1f00
0080
0040
8040
8040
e080
9f00
ENDCHAR
STARTCHAR UDoubleAcute
ENCODING 62
SWIDTH 600 0
DWIDTH 13 0
BBX 12 15 0 0
BITMAP
0730
0c40
0880
1100
0000
e0e0
2020
2020
2020
2020
2020
2020
2020
10e0
0f30
ENDCHAR
STARTCHAR CapitalUDoubleAcute
ENCODING 63
SWIDTH 600 0
DWIDTH 13 0
BBX 13 18 0 0
BITMAP
0670
04c0
0880
1100
0000
f8f8
2020
2020
2020
2020
2020
2020
2020
2020
2020
3060
18c0
0f80
ENDCHAR
STARTCHAR HSlash
ENCODING 64
SWIDTH 600 0
DWIDTH 13 0
BBX 11 14 0 0
BITMAP
3800
0800
0800
7f00
0bc0
1420
1820
1020
1020
2040
2040
2040
2040
f1e0
ENDCHAR
STARTCHAR ScriptCapA
ENCODING 65
SWIDTH 600 0
DWIDTH 13 0
BBX 13 12 0 0
BITMAP
07f8
0850
1090
2190
1110
07f0
0e10
0210
0410
8410
8810
7000
ENDCHAR
STARTCHAR ScriptCapB
ENCODING 66
SWIDTH 600 0
DWIDTH 13 0
BBX 13 13 0 0
BITMAP
03e0
0d18
1108
2208
2210
23e0
0460
0410
0410
0810
1020
6040
df80
ENDCHAR
STARTCHAR ScriptCapC
ENCODING 67
SWIDTH 600 0
DWIDTH 13 0
BBX 11 14 1 -1
BITMAP
07c0
0c60
3020
2020
4000
4000
8000
8000
8000
8040
8040
4040
6180
1e00
ENDCHAR
STARTCHAR ScriptCapD
ENCODING 68
SWIDTH 600 0
DWIDTH 13 0
BBX 13 14 0 -1
BITMAP
0fc0
3230
4410
8408
8408
8408
4808
0808
0808
0810
1010
3020
e040
9f80
ENDCHAR
STARTCHAR ScriptCapE
ENCODING 69
SWIDTH 600 0
DWIDTH 13 0
BBX 10 13 2 0
BITMAP
1f00
2080
4040
4000
2000
1e00
6000
8040
8040
8040
8040
8080
7f00
ENDCHAR
STARTCHAR ScriptCapF
ENCODING 70
SWIDTH 590 0
DWIDTH 13 0
BBX 16 14 -2 -1
BITMAP
0303
1cfc
2100
4100
4200
4fe0
2200
0400
0400
0400
0800
0800
1000
e000
ENDCHAR
STARTCHAR ScriptCapG
ENCODING 71
SWIDTH 600 0
DWIDTH 13 0
BBX 12 16 1 -3
BITMAP
03c0
0630
0810
1010
2020
2000
4000
43e0
4240
40c0
6340
3c80
0080
8100
c200
7c00
ENDCHAR
STARTCHAR ScriptCapH
ENCODING 72
SWIDTH 700 0
DWIDTH 15 0
BBX 17 13 -1 0
BITMAP
038080
1c8100
218100
410100
810200
437e00
038200
020200
040400
040400
040400
080400
100000
ENDCHAR
STARTCHAR ScriptCapI
ENCODING 73
SWIDTH 600 0
DWIDTH 13 0
BBX 13 13 0 0
BITMAP
0708
08f0
0180
0100
0100
0200
0200
0200
0200
0400
0400
0800
ff00
ENDCHAR
STARTCHAR ScriptCapJ
ENCODING 74
SWIDTH 600 0
DWIDTH 13 0
BBX 17 16 -2 -3
BITMAP
00f880
018700
020800
041000
041000
061000
001000
002000
002000
002000
002000
002000
004000
c04000
618000
1e0000
ENDCHAR
STARTCHAR ScriptCapK
ENCODING 75
SWIDTH 678 0
DWIDTH 15 0
BBX 17 13 -1 0
BITMAP
0f0300
310c80
411000
822000
824000
438000
064000
044000
042000
082000
081000
101000
200800
ENDCHAR
STARTCHAR ScriptCapL
ENCODING 76
SWIDTH 638 0
DWIDTH 14 0
BBX 14 14 0 -1
BITMAP
0070
0088
0100
0100
0100
0100
0200
0200
0200
0400
0400
1800
fc0c
03f0
ENDCHAR
STARTCHAR ScriptCapM
ENCODING 77
SWIDTH 840 0
DWIDTH 18 0
BBX 19 14 0 -1
BITMAP
020020
030060
0300c0
0300c0
048140
048240
048440
084c40
085840
105040
106040
206040
204020
c00000
ENDCHAR
STARTCHAR ScriptCapN
ENCODING 78
SWIDTH 662 0
DWIDTH 15 0
BBX 16 13 -1 0
BITMAP
0401
0402
0c04
0a04
0a04
1108
1188
1088
1048
2030
2030
4010
8010
ENDCHAR
STARTCHAR ScriptCapO
ENCODING 79
SWIDTH 600 0
DWIDTH 13 0
BBX 11 13 1 0
BITMAP
0780
1840
3020
2020
4020
4020
8020
8040
8040
8080
8180
4300
3c00
ENDCHAR
STARTCHAR ScriptCapP
ENCODING 80
SWIDTH 600 0
DWIDTH 13 0
BBX 13 13 0 0
BITMAP
07c0
1a30
6408
4408
8408
8810
5860
0f80
0800
1000
1000
2000
4000
ENDCHAR
STARTCHAR ScriptCapQ
ENCODING 81
SWIDTH 600 0
DWIDTH 13 0
BBX 11 14 1 -1
BITMAP
0780
1840
3020
2020
4020
4020
8020
8040
8040
9880
8680
4300
3da0
00e0
ENDCHAR
STARTCHAR ScriptCapR
ENCODING 82
SWIDTH 600 0
DWIDTH 13 0
BBX 12 13 1 0
BITMAP
0fc0
3630
6410
4810
8820
8860
4f80
0900
1100
1080
1080
2040
4020
ENDCHAR
STARTCHAR ScriptCapS
ENCODING 83
SWIDTH 600 0
DWIDTH 13 0
BBX 11 14 1 -1
BITMAP
0380
0460
0820
0820
0800
0400
0300
0180
00c0
0040
8040
c080
6180
1e00
ENDCHAR
STARTCHAR ScriptCapT
ENCODING 84
SWIDTH 626 0
DWIDTH 14 0
BBX 16 13 -1 0
BITMAP
0001
3ffe
4100
8200
8200
4200
0400
0400
0400
0800
0800
1000
2000
ENDCHAR
STARTCHAR ScriptCapU
ENCODING 85
SWIDTH 728 0
DWIDTH 16 0
BBX 16 13 0 0
BITMAP
0301
1d01
6102
c202
8202
8404
4404
040c
0418
0828
0848
0988
0608
ENDCHAR
STARTCHAR ScriptCapV
ENCODING 86
SWIDTH 714 0
DWIDTH 16 0
BBX 16 13 0 0
BITMAP
0703
1901
6101
c102
8102
8104
4108
0090
0090
00a0
00c0
0080
0080
ENDCHAR
STARTCHAR ScriptCapW
ENCODING 87
SWIDTH 983 0
DWIDTH 22 0
BBX 22 13 0 0
BITMAP
030004
0d0404
310404
410408
810c18
810c10
411220
009240
00a280
00c280
00c300
008200
008200
ENDCHAR
STARTCHAR ScriptCapX
ENCODING 88
SWIDTH 600 0
DWIDTH 13 0
BBX 12 13 1 0
BITMAP
0810
0410
0420
0440
0280
0300
0e00
1a00
2100
4100
8100
8080
8040
ENDCHAR
STARTCHAR ScriptCapY
ENCODING 89
SWIDTH 600 0
DWIDTH 13 0
BBX 14 14 -1 -1
BITMAP
0004
0404
0208
0218
0230
0270
0250
02a0
0320
0220
0040
8080
4100
3e00
ENDCHAR
STARTCHAR ScriptCapZ
ENCODING 90
SWIDTH 658 0
DWIDTH 14 0
BBX 16 15 -1 -2
BITMAP
0003
1ffc
0010
0020
0040
0080
0180
0100
0200
0400
0800
f000
5c02
0706
00f8
ENDCHAR
STARTCHAR RightTriangleLeft
ENCODING 91
SWIDTH 600 0
DWIDTH 13 0
BBX 8 12 3 0
BITMAP
01
02
02
06
0a
0a
12
12
22
22
42
fe
ENDCHAR
STARTCHAR RightTriangleRight
ENCODING 92
SWIDTH 600 0
DWIDTH 13 0
BBX 8 12 3 0
BITMAP
80
80
c0
c0
a0
90
90
88
84
84
82
ff
ENDCHAR
STARTCHAR DoubleRightTriangle
ENCODING 93
SWIDTH 600 0
DWIDTH 13 0
BBX 13 12 0 0
BITMAP
0100
0300
0300
0780
0b40
0b40
1320
1320
2310
2310
4308
fff8
ENDCHAR
STARTCHAR Female
ENCODING 94
SWIDTH 600 0
DWIDTH 13 0
BBX 7 12 3 0
BITMAP
38
44
82
82
82
42
6c
10
10
3c
10
10
ENDCHAR
STARTCHAR Male
ENCODING 95
SWIDTH 600 0
DWIDTH 13 0
BBX 11 12 2 0
BITMAP
0060
0060
1c80
6300
4100
8080
8080
8080
8080
4100
6300
1c00
ENDCHAR
STARTCHAR NearlyEquals
ENCODING 96
SWIDTH 600 0
DWIDTH 13 0
BBX 9 13 2 -2
BITMAP
3000
3000
0000
0000
ff80
0000
0000
0000
ff80
0000
0000
0600
0600
ENDCHAR
STARTCHAR ScriptA
ENCODING 97
SWIDTH 432 0
DWIDTH 10 0
BBX 10 9 0 0
BITMAP
0f80
3100
6100
4200
4200
4600
cec0
7300
6200
ENDCHAR
STARTCHAR ScriptB
ENCODING 98
SWIDTH 444 0
DWIDTH 10 0
BBX 9 14 0 0
BITMAP
1000
1000
1000
1000
1000
1300
1480
2880
3080
2100
2100
4200
4600
f800
ENDCHAR
STARTCHAR ScriptC
ENCODING 99
SWIDTH 384 0
DWIDTH 8 0
BBX 8 9 0 0
BITMAP
0e
31
40
40
80
80
82
8c
70
ENDCHAR
STARTCHAR ScriptD
ENCODING 100
SWIDTH 507 0
DWIDTH 11 0
BBX 11 15 0 0
BITMAP
0020
0040
0040
0040
0080
0080
0f80
3080
2100
4100
4300
8500
8a00
9200
6300
ENDCHAR
STARTCHAR ScriptE
ENCODING 101
SWIDTH 365 0
DWIDTH 8 0
BBX 8 10 0 0
BITMAP
0e
31
21
46
b8
80
80
82
c4
78
ENDCHAR
STARTCHAR ScriptF
ENCODING 102
SWIDTH 476 0
DWIDTH 10 0
BBX 12 17 0 -2
BITMAP
00e0
0110
0200
0400
0400
0400
1f00
0800
0800
1000
1000
1000
1000
2000
2000
4000
8000
ENDCHAR
STARTCHAR ScriptG
ENCODING 103
SWIDTH 489 0
DWIDTH 11 0
BBX 11 15 -1 -5
BITMAP
0180
03c0
0460
0840
1040
10c0
2140
2280
2480
3880
0100
0300
0600
dc00
7800
ENDCHAR
STARTCHAR ScriptH
ENCODING 104
SWIDTH 421 0
DWIDTH 9 0
BBX 10 14 0 0
BITMAP
1000
0800
1000
1000
1040
1780
2c80
3080
2080
4100
4100
4100
8100
8100
ENDCHAR
STARTCHAR ScriptI
ENCODING 105
SWIDTH 222 0
DWIDTH 5 0
BBX 5 13 0 0
BITMAP
08
10
00
00
20
20
40
40
40
80
80
80
80
ENDCHAR
STARTCHAR ScriptJ
ENCODING 106
SWIDTH 440 0
DWIDTH 10 0
BBX 9 17 0 -4
BITMAP
0080
0080
0000
0000
0100
0100
0200
0200
0200
0200
0200
0400
0400
0400
0800
d800
7000
ENDCHAR
STARTCHAR ScriptK
ENCODING 107
SWIDTH 396 0
DWIDTH 9 0
BBX 7 14 1 0
BITMAP
10
10
10
10
20
22
26
2c
50
50
50
88
88
84
ENDCHAR
STARTCHAR ScriptL
ENCODING 108
SWIDTH 221 0
DWIDTH 5 0
BBX 5 14 0 0
BITMAP
08
08
10
10
10
20
20
20
40
40
40
40
80
40
ENDCHAR
STARTCHAR ScriptM
ENCODING 109
SWIDTH 665 0
DWIDTH 15 0
BBX 14 10 0 0
BITMAP
2000
239c
2ca4
38c4
2088
4108
4110
4110
8210
8210
ENDCHAR
STARTCHAR ScriptN
ENCODING 110
SWIDTH 419 0
DWIDTH 9 0
BBX 8 9 1 0
BITMAP
27
29
33
62
42
46
84
84
84
ENDCHAR
STARTCHAR ScriptO
ENCODING 111
SWIDTH 398 0
DWIDTH 9 0
BBX 8 10 0 0
BITMAP
0e
33
61
41
81
81
82
84
4c
70
ENDCHAR
STARTCHAR ScriptP
ENCODING 112
SWIDTH 467 0
DWIDTH 10 0
BBX 10 14 0 -4
BITMAP
1000
11c0
1640
1840
1040
2080
2080
2100
c200
7c00
4000
4000
8000
8000
ENDCHAR
STARTCHAR ScriptQ
ENCODING 113
SWIDTH 442 0
DWIDTH 10 0
BBX 9 14 0 -4
BITMAP
0f00
1180
2100
4100
4300
8500
8e00
9a00
b200
4200
0200
0400
0400
0400
ENDCHAR
STARTCHAR ScriptR
ENCODING 114
SWIDTH 368 0
DWIDTH 8 0
BBX 8 9 0 0
BITMAP
27
28
30
20
40
40
40
40
80
ENDCHAR
STARTCHAR ScriptS
ENCODING 115
SWIDTH 428 0
DWIDTH 9 0
BBX 9 10 0 0
BITMAP
0f00
3080
2000
1000
0800
0600
0300
0100
8200
7c00
ENDCHAR
STARTCHAR ScriptT
ENCODING 116
SWIDTH 267 0
DWIDTH 6 0
BBX 6 13 0 0
BITMAP
10
10
20
7c
20
40
40
40
80
80
88
98
60
ENDCHAR
STARTCHAR ScriptU
ENCODING 117
SWIDTH 423 0
DWIDTH 9 0
BBX 9 9 0 0
BITMAP
2080
2080
2100
4100
4300
8600
8a00
b200
4200
ENDCHAR
STARTCHAR ScriptV
ENCODING 118
SWIDTH 366 0
DWIDTH 8 0
BBX 8 10 0 0
BITMAP
c1
41
42
42
44
24
28
28
30
20
ENDCHAR
STARTCHAR ScriptW
ENCODING 119
SWIDTH 582 0
DWIDTH 13 0
BBX 11 9 1 0
BITMAP
8420
8420
8c40
8c40
9480
a480
a500
c500
8200
ENDCHAR
STARTCHAR ScriptX
ENCODING 120
SWIDTH 494 0
DWIDTH 11 0
BBX 11 10 0 0
BITMAP
0820
0840
04c0
0500
0600
0a00
3200
6100
4100
8080
ENDCHAR
STARTCHAR ScriptY
ENCODING 121
SWIDTH 455 0
DWIDTH 10 0
BBX 11 14 -1 -4
BITMAP
0820
1040
1040
10c0
11c0
2380
2280
2c80
3880
0100
0100
0200
8c00
f000
ENDCHAR
STARTCHAR ScriptZ
ENCODING 122
SWIDTH 471 0
DWIDTH 10 0
BBX 9 9 0 0
BITMAP
3f80
0100
0200
0400
0c00
1800
3000
7000
8f80
ENDCHAR
STARTCHAR ScriptAltL
ENCODING 123
SWIDTH 385 0
DWIDTH 8 0
BBX 8 14 0 0
BITMAP
03
05
09
0a
0a
14
18
10
30
e0
20
20
20
20
ENDCHAR
STARTCHAR LogicalNand
ENCODING 124
SWIDTH 600 0
DWIDTH 13 0
BBX 12 12 1 0
BITMAP
7fe0
0000
0f00
1080
1080
2080
2040
2040
4020
4020
4020
8010
ENDCHAR
STARTCHAR Nand2
ENCODING 125
SWIDTH 741 0
DWIDTH 16 0
BBX 16 19 0 -4
BITMAP
7ffe
0000
0000
0000
07e0
0820
0810
0810
0810
1008
1008
1008
2004
2004
2004
4002
4002
4002
8001
ENDCHAR
STARTCHAR Nand3
ENCODING 126
SWIDTH 1215 0
DWIDTH 27 0
BBX 26 34 0 -11
BITMAP
7fffff00
00000000
00000000
00000000
00000000
00000000
00000000
00ffc000
00804000
01004000
01002000
01002000
02002000
02001000
02001000
02001000
04000800
04000800
04000800
08000800
08000400
08000400
08000400
10000200
10000200
10000200
20000100
20000100
20000100
40000080
40000080
40000080
40000080
80000040
ENDCHAR
STARTCHAR DEL
ENCODING 127
SWIDTH 263 0
DWIDTH 6 0
BBX 0 0 0 0
BITMAP
ENDCHAR
STARTCHAR LogicalNor
ENCODING 128
SWIDTH 600 0
DWIDTH 13 0
BBX 12 12 1 0
BITMAP
7fe0
0000
0000
c010
4020
4020
2020
2040
1040
1080
1080
0f00
ENDCHAR
STARTCHAR Nor2
ENCODING 129
SWIDTH 741 0
DWIDTH 16 0
BBX 16 20 0 -5
BITMAP
7ffe
0000
0000
0000
8001
4001
4002
4002
2002
2004
2004
1004
1008
1008
0808
0810
0810
0810
0410
07e0
ENDCHAR
STARTCHAR Nor3
ENCODING 130
SWIDTH 1215 0
DWIDTH 27 0
BBX 26 34 0 -11
BITMAP
3fffff80
00000000
00000000
00000000
00000000
00000000
00000000
80000040
40000040
40000080
40000080
40000080
20000100
20000100
20000100
10000100
10000200
10000200
08000200
08000400
08000400
04000400
04000800
04000800
02000800
02000800
02001000
02001000
01001000
01002000
01002000
00802000
00802000
00ffc000
ENDCHAR
STARTCHAR LogicalXor
ENCODING 131
SWIDTH 600 0
DWIDTH 13 0
BBX 12 12 1 0
BITMAP
8010
4020
4020
2020
2040
1040
1080
1080
0f00
0000
0000
7fe0
ENDCHAR
STARTCHAR Xor2
ENCODING 132
SWIDTH 741 0
DWIDTH 16 0
BBX 16 20 0 -5
BITMAP
8001
4002
4002
4002
2002
2004
2004
1004
1008
1008
0808
0810
0810
0410
0410
07e0
0000
0000
0000
7ffe
ENDCHAR
STARTCHAR Xor3
ENCODING 133
SWIDTH 1215 0
DWIDTH 27 0
BBX 26 34 0 -11
BITMAP
80000040
40000080
40000080
40000080
20000080
20000100
20000100
10000100
10000200
10000200
10000200
08000200
08000400
08000400
04000400
04000800
04000800
02000800
02000800
02001000
01001000
01001000
01002000
01002000
00802000
00802000
00ffc000
00000000
00000000
00000000
00000000
00000000
00000000
3fffff80
ENDCHAR
STARTCHAR ConstantC
ENCODING 134
SWIDTH 600 0
DWIDTH 13 0
BBX 10 10 2 0
BITMAP
1e00
7980
5080
a000
a000
a000
a000
5000
78c0
1f00
ENDCHAR
STARTCHAR LongEqual
ENCODING 135
SWIDTH 798 0
DWIDTH 18 0
BBX 14 5 2 2
BITMAP
fffc
0000
0000
0000
fffc
ENDCHAR
STARTCHAR Diffd2
ENCODING 136
SWIDTH 600 0
DWIDTH 13 0
BBX 12 14 2 0
BITMAP
01f0
0010
0030
0030
0f20
30a0
4060
c060
8040
8040
80c0
80c0
c380
3ce0
ENDCHAR
STARTCHAR Expe2
ENCODING 137
SWIDTH 600 0
DWIDTH 13 0
BBX 11 10 2 0
BITMAP
0f80
3040
6020
4020
8020
ffe0
8000
8000
60c0
3f00
ENDCHAR
STARTCHAR Imagi2
ENCODING 138
SWIDTH 600 0
DWIDTH 13 0
BBX 10 15 2 0
BITMAP
0300
0300
0300
0000
0000
0000
1e00
0200
0600
0400
0400
0400
0400
0800
ffc0
ENDCHAR
STARTCHAR Imagj2
ENCODING 139
SWIDTH 600 0
DWIDTH 13 0
BBX 11 18 1 -3
BITMAP
0060
0060
0040
0000
0000
0000
1fc0
0040
0080
0080
0080
0080
0100
0100
0100
0100
0600
fc00
ENDCHAR
STARTCHAR CapitalCAcute
ENCODING 140
SWIDTH 600 0
DWIDTH 13 0
BBX 11 17 1 0
BITMAP
0180
0300
0400
0800
0f20
30e0
4060
4020
8020
8000
8000
8000
8000
4000
6000
30e0
0f00
ENDCHAR
STARTCHAR CapitalCHacek
ENCODING 141
SWIDTH 600 0
DWIDTH 13 0
BBX 11 18 1 0
BITMAP
2040
1880
0d00
0600
0000
0f20
30e0
4060
4020
8020
8000
8000
8000
8000
4000
6000
30e0
0f00
ENDCHAR
STARTCHAR EBar
ENCODING 142
SWIDTH 600 0
DWIDTH 13 0
BBX 10 12 2 0
BITMAP
7f80
0000
1e00
6180
40c0
8040
ffc0
8000
8000
4000
20c0
1f00
ENDCHAR
STARTCHAR ECup
ENCODING 143
SWIDTH 600 0
DWIDTH 13 0
BBX 10 13 2 0
BITMAP
2100
1e00
0000
1e00
6180
40c0
8040
ffc0
8000
8000
4000
20c0
1f00
ENDCHAR
STARTCHAR CapitalEBar
ENCODING 144
SWIDTH 600 0
DWIDTH 13 0
BBX 11 15 1 0
BITMAP
7fc0
0000
ffe0
2020
2020
2020
2100
2100
3f00
2100
2100
2020
2020
2020
ffe0
ENDCHAR
STARTCHAR CapitalECup
ENCODING 145
SWIDTH 600 0
DWIDTH 13 0
BBX 11 16 1 0
BITMAP
3080
1f00
0000
ffe0
2020
2020
2020
2100
2100
3f00
2100
2100
2020
2020
2020
ffe0
ENDCHAR
STARTCHAR ICup
ENCODING 146
SWIDTH 600 0
DWIDTH 13 0
BBX 9 13 2 0
BITMAP
4100
3e00
0000
7800
0800
0800
0800
0800
0800
0800
0800
0800
ff80
ENDCHAR
STARTCHAR CapitalICup
ENCODING 147
SWIDTH 600 0
DWIDTH 13 0
BBX 9 16 2 0
BITMAP
4100
3e00
0000
ff80
0800
0800
0800
0800
0800
0800
0800
0800
0800
0800
0800
ff80
ENDCHAR
STARTCHAR LSlash
ENCODING 148
SWIDTH 600 0
DWIDTH 13 0
BBX 9 14 2 0
BITMAP
f800
0800
0800
0800
0800
0900
0e00
1800
2800
4800
0800
0800
0800
ff80
ENDCHAR
STARTCHAR CapitalLSlash
ENCODING 149
SWIDTH 600 0
DWIDTH 13 0
BBX 11 13 1 0
BITMAP
fc00
2000
2000
2000
2200
2c00
3000
6020
a020
2020
2020
2020
ffe0
ENDCHAR
STARTCHAR Mercury
ENCODING 150
SWIDTH 600 0
DWIDTH 13 0
BBX 7 12 3 0
BITMAP
82
44
38
44
82
82
44
78
10
10
7c
10
ENDCHAR
STARTCHAR Venus
ENCODING 151
SWIDTH 600 0
DWIDTH 13 0
BBX 9 12 2 0
BITMAP
3e00
4100
4100
8080
8080
4080
4100
3e00
0800
0800
3e00
0800
ENDCHAR
STARTCHAR Earth
ENCODING 152
SWIDTH 600 0
DWIDTH 13 0
BBX 9 12 2 0
BITMAP
0800
3e00
0800
0800
3e00
4100
4100
8080
8080
4100
4100
3e00
ENDCHAR
STARTCHAR Mars
ENCODING 153
SWIDTH 600 0
DWIDTH 13 0
BBX 11 10 1 0
BITMAP
01e0
00e0
3da0
4320
4100
8080
8080
4100
6300
1c00
ENDCHAR
STARTCHAR Jupiter
ENCODING 154
SWIDTH 600 0
DWIDTH 13 0
BBX 11 14 1 -2
BITMAP
0020
1c20
2320
41a0
40a0
40a0
00a0
00a0
0120
0320
0c20
ffe0
0020
0020
ENDCHAR
STARTCHAR Saturn
ENCODING 155
SWIDTH 600 0
DWIDTH 13 0
BBX 9 12 2 0
BITMAP
4000
4000
f800
4000
4f00
5080
6080
4080
4100
4100
4200
4200
ENDCHAR
STARTCHAR Uranus
ENCODING 156
SWIDTH 600 0
DWIDTH 13 0
BBX 11 12 1 0
BITMAP
e4e0
24c0
24c0
3fc0
24c0
24c0
24c0
e4e0
0600
0900
0900
0e00
ENDCHAR
STARTCHAR Neptune
ENCODING 157
SWIDTH 600 0
DWIDTH 13 0
BBX 14 14 0 -2
BITMAP
0700
0f80
2220
f278
aa64
2220
2220
2220
1ac0
0700
0200
1fc0
0200
0200
ENDCHAR
STARTCHAR Pluto
ENCODING 158
SWIDTH 600 0
DWIDTH 13 0
BBX 10 14 2 -2
BITMAP
ff00
c080
c080
c040
c040
c0c0
c080
c300
fc00
c000
c000
c000
c000
ff80
ENDCHAR
STARTCHAR udieresis
ENCODING 159
SWIDTH 600 0
DWIDTH 13 0
BBX 13 12 0 0
BITMAP
0f80
3060
6010
4010
8008
8308
8108
8008
4010
6010
3060
0f80
ENDCHAR
STARTCHAR FirstPage
ENCODING 160
SWIDTH 600 0
DWIDTH 13 0
BBX 7 10 3 0
BITMAP
82
84
8c
9c
bc
bc
9c
8c
84
82
ENDCHAR
STARTCHAR LastPage
ENCODING 161
SWIDTH 600 0
DWIDTH 13 0
BBX 6 10 3 0
BITMAP
84
84
c4
e4
f4
f4
e4
c4
84
84
ENDCHAR
STARTCHAR SolidLeftTriangle
ENCODING 162
SWIDTH 600 0
DWIDTH 13 0
BBX 12 12 0 0
BITMAP
0010
0070
01f0
07f0
1ff0
7ff0
fff0
1ff0
07f0
01f0
0070
0010
ENDCHAR
STARTCHAR SolidRightTriangle
ENCODING 163
SWIDTH 600 0
DWIDTH 13 0
BBX 12 12 0 0
BITMAP
8000
e000
f800
fe00
ff80
ffe0
fff0
ff80
fe00
f800
e000
8000
ENDCHAR
STARTCHAR QuarterNote
ENCODING 164
SWIDTH 600 0
DWIDTH 13 0
BBX 7 13 3 0
BITMAP
02
02
02
02
02
02
02
02
02
02
7a
fe
7c
ENDCHAR
STARTCHAR EighthNote
ENCODING 165
SWIDTH 600 0
DWIDTH 13 0
BBX 11 13 1 0
BITMAP
0200
0380
02c0
0220
0220
0200
0200
0200
0200
0200
7a00
fe00
7c00
ENDCHAR
STARTCHAR BeamedEighthNote
ENCODING 166
SWIDTH 700 0
DWIDTH 15 0
BBX 15 13 0 0
BITMAP
03fe
0202
0202
0202
0202
0202
0202
0202
0202
0202
7a3a
fe7e
7c3c
ENDCHAR
STARTCHAR BeamedSixteenthNote
ENCODING 167
SWIDTH 700 0
DWIDTH 15 0
BBX 15 13 0 0
BITMAP
03fe
0202
03fe
0202
0202
0202
0202
0202
0202
0202
7a3a
fe7e
7c3c
ENDCHAR
STARTCHAR EntityStart
ENCODING 168
SWIDTH 700 0
DWIDTH 15 0
BBX 14 17 1 -3
BITMAP
fffc
8020
8020
8020
9c20
a220
a020
9020
a9a0
ca20
c620
c620
bba0
8020
8020
8020
fffc
ENDCHAR
STARTCHAR EntityEnd
ENCODING 169
SWIDTH 700 0
DWIDTH 15 0
BBX 15 17 0 -3
BITMAP
fffe
1002
1002
1002
1002
1002
1002
10c2
10c2
1002
1002
1002
1082
1082
1182
1002
fffe
ENDCHAR
STARTCHAR trademark
ENCODING 170
SWIDTH 600 0
DWIDTH 13 0
BBX 11 12 3 2
BITMAP
0020
0040
0080
0180
0300
0200
0400
cc00
6800
7800
3000
1000
ENDCHAR
STARTCHAR acute
ENCODING 171
SWIDTH 600 0
DWIDTH 13 0
BBX 13 14 1 0
BITMAP
0008
0010
ffe0
8030
8050
8090
8190
9910
9b10
8e10
8610
8410
8010
fff0
ENDCHAR
STARTCHAR dieresis
ENCODING 172
SWIDTH 364 0
DWIDTH 8 0
BBX 7 8 1 8
BITMAP
fe
10
10
10
10
10
10
10
ENDCHAR
STARTCHAR notequal
ENCODING 173
SWIDTH 364 0
DWIDTH 8 0
BBX 6 7 1 8
BITMAP
10
94
fc
38
fc
94
10
ENDCHAR
STARTCHAR AE
ENCODING 174
SWIDTH 364 0
DWIDTH 8 0
BBX 6 7 1 8
BITMAP
84
84
84
fc
84
84
84
ENDCHAR
STARTCHAR Oslash
ENCODING 175
SWIDTH 600 0
DWIDTH 13 0
BBX 5 15 6 -1
BITMAP
f8
80
80
80
80
80
80
80
80
80
80
80
80
80
80
ENDCHAR
STARTCHAR infinity
ENCODING 176
SWIDTH 600 0
DWIDTH 13 0
BBX 3 16 4 -3
BITMAP
20
20
20
20
20
20
e0
80
80
80
e0
20
20
20
20
20
ENDCHAR
STARTCHAR plusminus
ENCODING 177
SWIDTH 600 0
DWIDTH 13 0
BBX 5 15 6 0
BITMAP
80
80
80
80
80
80
80
80
80
80
80
80
80
80
f8
ENDCHAR
STARTCHAR lessequal
ENCODING 178
SWIDTH 600 0
DWIDTH 13 0
BBX 1 7 6 0
BITMAP
80
80
80
80
80
80
80
ENDCHAR
STARTCHAR greaterequal
ENCODING 179
SWIDTH 600 0
DWIDTH 13 0
BBX 5 18 4 -4
BITMAP
38
20
20
20
20
20
20
e0
80
80
80
e0
20
20
20
20
20
38
ENDCHAR
STARTCHAR yen
ENCODING 180
SWIDTH 600 0
DWIDTH 13 0
BBX 6 28 4 -9
BITMAP
3c
20
20
20
20
20
20
20
20
20
20
20
e0
80
80
80
e0
20
20
20
20
20
20
20
20
20
20
3c
ENDCHAR
STARTCHAR mu
ENCODING 181
SWIDTH 600 0
DWIDTH 13 0
BBX 7 37 4 -14
BITMAP
3e
20
20
20
20
20
20
20
20
20
20
20
20
20
20
20
e0
80
80
80
e0
20
20
20
20
20
20
20
20
20
20
20
20
20
20
20
3e
ENDCHAR
STARTCHAR partialdiff
ENCODING 182
SWIDTH 600 0
DWIDTH 13 0
BBX 8 46 4 -18
BITMAP
3f
20
20
20
20
20
20
20
20
20
20
20
20
20
20
20
20
20
20
20
20
e0
80
80
80
e0
20
20
20
20
20
20
20
20
20
20
20
20
20
20
20
20
20
20
20
3f
ENDCHAR
STARTCHAR summation
ENCODING 183
SWIDTH 720 0
DWIDTH 16 0
BBX 14 10 1 0
BITMAP
0800
0800
1000
2000
4000
fcec
4000
2000
1000
0800
ENDCHAR
STARTCHAR product
ENCODING 184
SWIDTH 600 0
DWIDTH 13 0
BBX 9 14 2 0
BITMAP
0800
1c00
2a00
4900
8880
0800
0000
0000
0800
0800
0800
0000
0800
0800
ENDCHAR
STARTCHAR pi
ENCODING 185
SWIDTH 720 0
DWIDTH 16 0
BBX 14 10 1 0
BITMAP
0040
0040
0020
0010
0008
dcfc
0008
0010
0020
0040
ENDCHAR
STARTCHAR integral
ENCODING 186
SWIDTH 600 0
DWIDTH 13 0
BBX 9 14 2 0
BITMAP
0800
0800
0000
0800
0800
0800
0000
0000
0800
8880
4900
2a00
1c00
0800
ENDCHAR
STARTCHAR ordfeminine
ENCODING 187
SWIDTH 900 0
DWIDTH 20 0
BBX 17 8 1 2
BITMAP
ffff80
800080
800080
98c680
98c680
800080
800080
ffff80
ENDCHAR
STARTCHAR ordmasculine
ENCODING 188
SWIDTH 900 0
DWIDTH 20 0
BBX 8 17 6 -3
BITMAP
ff
81
99
99
81
81
81
99
99
81
81
81
99
99
81
81
ff
ENDCHAR
STARTCHAR Omega
ENCODING 189
SWIDTH 900 0
DWIDTH 20 0
BBX 17 17 1 -3
BITMAP
f80000
840000
820000
810000
cc8000
644000
302000
181000
0cc800
060400
030200
018900
00dc80
006000
003000
001800
000f80
ENDCHAR
STARTCHAR ae
ENCODING 190
SWIDTH 364 0
DWIDTH 8 0
BBX 5 9 2 7
BITMAP
20
20
20
f8
20
20
20
20
20
ENDCHAR
STARTCHAR oslash
ENCODING 191
SWIDTH 263 0
DWIDTH 6 0
BBX 0 0 0 0
BITMAP
ENDCHAR
STARTCHAR questiondown
ENCODING 192
SWIDTH 263 0
DWIDTH 6 0
BBX 0 0 0 0
BITMAP
ENDCHAR
STARTCHAR exclamdown
ENCODING 193
SWIDTH 263 0
DWIDTH 6 0
BBX 0 0 0 0
BITMAP
ENDCHAR
STARTCHAR logicalnot
ENCODING 194
SWIDTH 263 0
DWIDTH 6 0
BBX 0 0 0 0
BITMAP
ENDCHAR
STARTCHAR radical
ENCODING 195
SWIDTH 263 0
DWIDTH 6 0
BBX 0 0 0 0
BITMAP
ENDCHAR
STARTCHAR florin
ENCODING 196
SWIDTH 263 0
DWIDTH 6 0
BBX 0 0 0 0
BITMAP
ENDCHAR
STARTCHAR approxequal
ENCODING 197
SWIDTH 263 0
DWIDTH 6 0
BBX 0 0 0 0
BITMAP
ENDCHAR
STARTCHAR Delta
ENCODING 198
SWIDTH 263 0
DWIDTH 6 0
BBX 0 0 0 0
BITMAP
ENDCHAR
STARTCHAR guillemotleft
ENCODING 199
SWIDTH 263 0
DWIDTH 6 0
BBX 0 0 0 0
BITMAP
ENDCHAR
STARTCHAR guillemotright
ENCODING 200
SWIDTH 263 0
DWIDTH 6 0
BBX 0 0 0 0
BITMAP
ENDCHAR
STARTCHAR ellipsis
ENCODING 201
SWIDTH 263 0
DWIDTH 6 0
BBX 0 0 0 0
BITMAP
ENDCHAR
STARTCHAR nbspace
ENCODING 202
SWIDTH 263 0
DWIDTH 6 0
BBX 0 0 0 0
BITMAP
ENDCHAR
STARTCHAR Agrave
ENCODING 203
SWIDTH 263 0
DWIDTH 6 0
BBX 0 0 0 0
BITMAP
ENDCHAR
STARTCHAR Atilde
ENCODING 204
SWIDTH 263 0
DWIDTH 6 0
BBX 0 0 0 0
BITMAP
ENDCHAR
STARTCHAR Otilde
ENCODING 205
SWIDTH 263 0
DWIDTH 6 0
BBX 0 0 0 0
BITMAP
ENDCHAR
STARTCHAR parenright
ENCODING 206
SWIDTH 263 0
DWIDTH 6 0
BBX 0 0 0 0
BITMAP
ENDCHAR
STARTCHAR oe
ENCODING 207
SWIDTH 263 0
DWIDTH 6 0
BBX 0 0 0 0
BITMAP
ENDCHAR
STARTCHAR endash
ENCODING 208
SWIDTH 263 0
DWIDTH 6 0
BBX 0 0 0 0
BITMAP
ENDCHAR
STARTCHAR emdash
ENCODING 209
SWIDTH 263 0
DWIDTH 6 0
BBX 0 0 0 0
BITMAP
ENDCHAR
STARTCHAR quotedblleft
ENCODING 210
SWIDTH 263 0
DWIDTH 6 0
BBX 0 0 0 0
BITMAP
ENDCHAR
STARTCHAR quotedblright
ENCODING 211
SWIDTH 263 0
DWIDTH 6 0
BBX 0 0 0 0
BITMAP
ENDCHAR
STARTCHAR quoteleft
ENCODING 212
SWIDTH 263 0
DWIDTH 6 0
BBX 0 0 0 0
BITMAP
ENDCHAR
STARTCHAR quoteright
ENCODING 213
SWIDTH 263 0
DWIDTH 6 0
BBX 0 0 0 0
BITMAP
ENDCHAR
STARTCHAR divide
ENCODING 214
SWIDTH 263 0
DWIDTH 6 0
BBX 0 0 0 0
BITMAP
ENDCHAR
STARTCHAR lozenge
ENCODING 215
SWIDTH 263 0
DWIDTH 6 0
BBX 0 0 0 0
BITMAP
ENDCHAR
STARTCHAR ydieresis
ENCODING 216
SWIDTH 263 0
DWIDTH 6 0
BBX 0 0 0 0
BITMAP
ENDCHAR
STARTCHAR Ydieresis
ENCODING 217
SWIDTH 263 0
DWIDTH 6 0
BBX 0 0 0 0
BITMAP
ENDCHAR
STARTCHAR fraction
ENCODING 218
SWIDTH 263 0
DWIDTH 6 0
BBX 0 0 0 0
BITMAP
ENDCHAR
STARTCHAR currency
ENCODING 219
SWIDTH 263 0
DWIDTH 6 0
BBX 0 0 0 0
BITMAP
ENDCHAR
STARTCHAR guilsinglleft
ENCODING 220
SWIDTH 263 0
DWIDTH 6 0
BBX 0 0 0 0
BITMAP
ENDCHAR
STARTCHAR guilsinglright
ENCODING 221
SWIDTH 263 0
DWIDTH 6 0
BBX 0 0 0 0
BITMAP
ENDCHAR
STARTCHAR fi
ENCODING 222
SWIDTH 263 0
DWIDTH 6 0
BBX 0 0 0 0
BITMAP
ENDCHAR
STARTCHAR fl
ENCODING 223
SWIDTH 263 0
DWIDTH 6 0
BBX 0 0 0 0
BITMAP
ENDCHAR
STARTCHAR daggerdbl
ENCODING 224
SWIDTH 263 0
DWIDTH 6 0
BBX 0 0 0 0
BITMAP
ENDCHAR
STARTCHAR periodcentered
ENCODING 225
SWIDTH 263 0
DWIDTH 6 0
BBX 0 0 0 0
BITMAP
ENDCHAR
STARTCHAR quotesinglbase
ENCODING 226
SWIDTH 263 0
DWIDTH 6 0
BBX 0 0 0 0
BITMAP
ENDCHAR
STARTCHAR quotedblbase
ENCODING 227
SWIDTH 263 0
DWIDTH 6 0
BBX 0 0 0 0
BITMAP
ENDCHAR
STARTCHAR perthousand
ENCODING 228
SWIDTH 263 0
DWIDTH 6 0
BBX 0 0 0 0
BITMAP
ENDCHAR
STARTCHAR Acircumflex
ENCODING 229
SWIDTH 263 0
DWIDTH 6 0
BBX 0 0 0 0
BITMAP
ENDCHAR
STARTCHAR Ecircumflex
ENCODING 230
SWIDTH 263 0
DWIDTH 6 0
BBX 0 0 0 0
BITMAP
ENDCHAR
STARTCHAR Aacute
ENCODING 231
SWIDTH 263 0
DWIDTH 6 0
BBX 0 0 0 0
BITMAP
ENDCHAR
STARTCHAR Edieresis
ENCODING 232
SWIDTH 263 0
DWIDTH 6 0
BBX 0 0 0 0
BITMAP
ENDCHAR
STARTCHAR Egrave
ENCODING 233
SWIDTH 263 0
DWIDTH 6 0
BBX 0 0 0 0
BITMAP
ENDCHAR
STARTCHAR Iacute
ENCODING 234
SWIDTH 263 0
DWIDTH 6 0
BBX 0 0 0 0
BITMAP
ENDCHAR
STARTCHAR Icircumflex
ENCODING 235
SWIDTH 263 0
DWIDTH 6 0
BBX 0 0 0 0
BITMAP
ENDCHAR
STARTCHAR Idieresis
ENCODING 236
SWIDTH 263 0
DWIDTH 6 0
BBX 0 0 0 0
BITMAP
ENDCHAR
STARTCHAR Igrave
ENCODING 237
SWIDTH 263 0
DWIDTH 6 0
BBX 0 0 0 0
BITMAP
ENDCHAR
STARTCHAR Oacute
ENCODING 238
SWIDTH 263 0
DWIDTH 6 0
BBX 0 0 0 0
BITMAP
ENDCHAR
STARTCHAR Ocircumflex
ENCODING 239
SWIDTH 263 0
DWIDTH 6 0
BBX 0 0 0 0
BITMAP
ENDCHAR
STARTCHAR apple
ENCODING 240
SWIDTH 263 0
DWIDTH 6 0
BBX 0 0 0 0
BITMAP
ENDCHAR
STARTCHAR Ograve
ENCODING 241
SWIDTH 263 0
DWIDTH 6 0
BBX 0 0 0 0
BITMAP
ENDCHAR
STARTCHAR Uacute
ENCODING 242
SWIDTH 263 0
DWIDTH 6 0
BBX 0 0 0 0
BITMAP
ENDCHAR
STARTCHAR Ucircumflex
ENCODING 243
SWIDTH 263 0
DWIDTH 6 0
BBX 0 0 0 0
BITMAP
ENDCHAR
STARTCHAR Ugrave
ENCODING 244
SWIDTH 263 0
DWIDTH 6 0
BBX 0 0 0 0
BITMAP
ENDCHAR
STARTCHAR dotlessi
ENCODING 245
SWIDTH 263 0
DWIDTH 6 0
BBX 0 0 0 0
BITMAP
ENDCHAR
STARTCHAR circumflex
ENCODING 246
SWIDTH 263 0
DWIDTH 6 0
BBX 0 0 0 0
BITMAP
ENDCHAR
STARTCHAR CurlyQuote
ENCODING 247
SWIDTH 600 0
DWIDTH 13 0
BBX 2 5 4 7
BITMAP
c0
c0
40
80
80
ENDCHAR
STARTCHAR CurlyDblQuote
ENCODING 248
SWIDTH 600 0
DWIDTH 13 0
BBX 6 5 3 7
BITMAP
cc
cc
44
88
88
ENDCHAR
STARTCHAR CurlyBackQuote
ENCODING 249
SWIDTH 600 0
DWIDTH 13 0
BBX 2 5 6 7
BITMAP
40
40
80
c0
c0
ENDCHAR
STARTCHAR CurlyDblBackQuote
ENCODING 250
SWIDTH 600 0
DWIDTH 13 0
BBX 6 5 4 7
BITMAP
44
44
88
cc
cc
ENDCHAR
STARTCHAR StrikeCircle
ENCODING 251
SWIDTH 600 0
DWIDTH 13 0
BBX 13 12 0 0
BITMAP
0f80
3060
6030
4010
8008
8008
8008
8008
4010
6030
3060
0f80
ENDCHAR
STARTCHAR StrikeSquare
ENCODING 252
SWIDTH 600 0
DWIDTH 13 0
BBX 12 12 1 0
BITMAP
fff0
8010
8010
8010
8010
8010
8010
8010
8010
8010
8010
fff0
ENDCHAR
STARTCHAR StrikeTriangle
ENCODING 253
SWIDTH 600 0
DWIDTH 13 0
BBX 12 12 0 0
BITMAP
0200
0600
0600
0900
0900
1080
1080
2040
2040
4020
4020
fff0
ENDCHAR
STARTCHAR MathLogo1
ENCODING 254
SWIDTH 2776 0
DWIDTH 61 0
BBX 62 15 0 0
BITMAP
0f01f00000000000
0701c00000000000
03028083fef9f7fc
070380846220430c
070581cc61204304
050581c060204300
098982c06060c310
098982c04060c220
09918440c07fc3e0
09910440c0408220
10a10fe0c0408220
10e10860c0408600
20c31020c0c18604
20831030c0c18608
f88ff8fbe3e7dff0
ENDCHAR
STARTCHAR MathLogo2
ENCODING 255
SWIDTH 2981 0
DWIDTH 66 0
BBX 65 13 0 0
BITMAP
1e03820ffbe1e04500
0607031888c7184b80
0606071084cc08eb80
060a0700808c08e700
0a1609018198016000
0b1609010198012000
0b26118101b0012000
13261f8101b003f000
114411810130023000
114420810130143000
218420830318241000
210c40c30318681800
f11fe3ef87cfde7c00
ENDCHAR
ENDFONT
