STARTFONT 2.1
FONT -WRI-Mathematica4Mono-Bold-R-Normal--14-140-75-75-M-110-Adobe-FontSpecific
SIZE 14 75 75
FONTBOUNDINGBOX 38 15 -1 -4
STARTPROPERTIES 16
FOUNDRY "WRI"
FAMILY_NAME "Mathematica4Mono"
WEIGHT_NAME "Bold"
SLANT "R"
SETWIDTH_NAME "Normal"
PIXEL_SIZE 14
POINT_SIZE 140
RESOLUTION_X 75
RESOLUTION_Y 75
SPACING "M"
AVERAGE_WIDTH 110
CHARSET_REGISTRY "Adobe"
CHARSET_ENCODING "FontSpecific"
FONT_DESCENT 4
FONT_ASCENT 11
DEFAULT_CHAR 32
ENDPROPERTIES
CHARS 224
STARTCHAR space
ENCODING 32
SWIDTH 263 0
DWIDTH 4 0
BBX 0 0 0 0
BITMAP
ENDCHAR
STARTCHAR RArrowBar
ENCODING 33
SWIDTH 807 0
DWIDTH 11 0
BBX 10 5 1 1
BITMAP
0240
0140
ffc0
0140
0240
ENDCHAR
STARTCHAR LTackArrow
ENCODING 34
SWIDTH 807 0
DWIDTH 11 0
BBX 10 5 1 1
BITMAP
2040
4040
ffc0
4040
2040
ENDCHAR
STARTCHAR RTackArrow
ENCODING 35
SWIDTH 807 0
DWIDTH 11 0
BBX 10 5 1 1
BITMAP
8100
8080
ffc0
8080
8100
ENDCHAR
STARTCHAR UpArrowBar
ENCODING 36
SWIDTH 600 0
DWIDTH 8 0
BBX 5 10 2 0
BITMAP
f8
20
70
a8
20
20
20
20
20
20
ENDCHAR
STARTCHAR DownArrowBar
ENCODING 37
SWIDTH 600 0
DWIDTH 8 0
BBX 5 10 2 0
BITMAP
20
20
20
20
20
20
a8
70
20
f8
ENDCHAR
STARTCHAR UpTackArrow
ENCODING 38
SWIDTH 600 0
DWIDTH 8 0
BBX 5 10 2 0
BITMAP
20
70
a8
20
20
20
20
20
20
f8
ENDCHAR
STARTCHAR DownTackArrow
ENCODING 39
SWIDTH 600 0
DWIDTH 8 0
BBX 5 10 2 0
BITMAP
f8
20
20
20
20
20
20
a8
70
20
ENDCHAR
STARTCHAR LVectorBar
ENCODING 40
SWIDTH 807 0
DWIDTH 11 0
BBX 10 5 1 1
BITMAP
9000
a000
ffc0
8000
8000
ENDCHAR
STARTCHAR RVectorBar
ENCODING 41
SWIDTH 807 0
DWIDTH 11 0
BBX 10 5 1 1
BITMAP
0240
0140
ffc0
0040
0040
ENDCHAR
STARTCHAR DownLVectorBar
ENCODING 42
SWIDTH 807 0
DWIDTH 11 0
BBX 10 5 1 1
BITMAP
8000
8000
ffc0
a000
9000
ENDCHAR
STARTCHAR DownRVectorBar
ENCODING 43
SWIDTH 807 0
DWIDTH 11 0
BBX 10 5 1 1
BITMAP
0040
0040
ffc0
0140
0240
ENDCHAR
STARTCHAR LTackVector
ENCODING 44
SWIDTH 807 0
DWIDTH 11 0
BBX 10 5 1 1
BITMAP
2040
4040
ffc0
0040
0040
ENDCHAR
STARTCHAR RTackVector
ENCODING 45
SWIDTH 807 0
DWIDTH 11 0
BBX 10 5 1 1
BITMAP
8100
8080
ffc0
8000
8000
ENDCHAR
STARTCHAR DownLTackVector
ENCODING 46
SWIDTH 807 0
DWIDTH 11 0
BBX 10 5 1 1
BITMAP
0040
0040
ffc0
4040
2040
ENDCHAR
STARTCHAR DownRTackVector
ENCODING 47
SWIDTH 807 0
DWIDTH 11 0
BBX 10 5 1 1
BITMAP
8000
8000
ffc0
8080
8100
ENDCHAR
STARTCHAR LVector
ENCODING 48
SWIDTH 720 0
DWIDTH 10 0
BBX 9 3 1 3
BITMAP
2000
4000
ff80
ENDCHAR
STARTCHAR RVector
ENCODING 49
SWIDTH 720 0
DWIDTH 10 0
BBX 9 3 1 3
BITMAP
0200
0100
ff80
ENDCHAR
STARTCHAR LRVector
ENCODING 50
SWIDTH 790 0
DWIDTH 11 0
BBX 10 3 1 3
BITMAP
2100
4080
ffc0
ENDCHAR
STARTCHAR DownLVector
ENCODING 51
SWIDTH 720 0
DWIDTH 10 0
BBX 9 3 1 1
BITMAP
ff80
4000
2000
ENDCHAR
STARTCHAR DownRVector
ENCODING 52
SWIDTH 720 0
DWIDTH 10 0
BBX 9 3 1 1
BITMAP
ff80
0100
0200
ENDCHAR
STARTCHAR DownLRVector
ENCODING 53
SWIDTH 790 0
DWIDTH 11 0
BBX 10 3 1 1
BITMAP
ffc0
4080
2100
ENDCHAR
STARTCHAR LUpDownVector
ENCODING 54
SWIDTH 600 0
DWIDTH 8 0
BBX 3 10 2 0
BITMAP
20
60
a0
20
20
20
20
a0
60
20
ENDCHAR
STARTCHAR RUpDownVector
ENCODING 55
SWIDTH 600 0
DWIDTH 8 0
BBX 3 10 4 0
BITMAP
80
c0
a0
80
80
80
80
a0
c0
80
ENDCHAR
STARTCHAR LUpVectorBar
ENCODING 56
SWIDTH 600 0
DWIDTH 8 0
BBX 5 10 2 0
BITMAP
f8
20
60
a0
20
20
20
20
20
20
ENDCHAR
STARTCHAR LDownVectorBar
ENCODING 57
SWIDTH 600 0
DWIDTH 8 0
BBX 5 10 2 0
BITMAP
20
20
20
20
20
20
a0
60
20
f8
ENDCHAR
STARTCHAR RUpVectorBar
ENCODING 58
SWIDTH 600 0
DWIDTH 8 0
BBX 5 10 2 0
BITMAP
f8
20
30
28
20
20
20
20
20
20
ENDCHAR
STARTCHAR RDownVectorBar
ENCODING 59
SWIDTH 600 0
DWIDTH 8 0
BBX 5 10 2 0
BITMAP
20
20
20
20
20
20
28
30
20
f8
ENDCHAR
STARTCHAR LUpTackVector
ENCODING 60
SWIDTH 600 0
DWIDTH 8 0
BBX 5 10 2 0
BITMAP
20
60
a0
20
20
20
20
20
20
f8
ENDCHAR
STARTCHAR LDownTackVector
ENCODING 61
SWIDTH 600 0
DWIDTH 8 0
BBX 5 10 2 0
BITMAP
f8
20
20
20
20
20
20
a0
60
20
ENDCHAR
STARTCHAR RUpTackVector
ENCODING 62
SWIDTH 600 0
DWIDTH 8 0
BBX 5 10 2 0
BITMAP
20
30
28
20
20
20
20
20
20
f8
ENDCHAR
STARTCHAR RDownTackVector
ENCODING 63
SWIDTH 600 0
DWIDTH 8 0
BBX 5 10 2 0
BITMAP
f8
20
20
20
20
20
20
28
30
20
ENDCHAR
STARTCHAR LUpVector
ENCODING 64
SWIDTH 600 0
DWIDTH 8 0
BBX 3 9 2 0
BITMAP
20
60
a0
20
20
20
20
20
20
ENDCHAR
STARTCHAR ExtensUp1
ENCODING 65
SWIDTH 600 0
DWIDTH 8 0
BBX 1 3 4 0
BITMAP
80
80
80
ENDCHAR
STARTCHAR LDownVector
ENCODING 66
SWIDTH 600 0
DWIDTH 8 0
BBX 3 9 2 0
BITMAP
20
20
20
20
20
20
a0
60
20
ENDCHAR
STARTCHAR RUpVector
ENCODING 67
SWIDTH 600 0
DWIDTH 8 0
BBX 3 9 4 0
BITMAP
80
c0
a0
80
80
80
80
80
80
ENDCHAR
STARTCHAR ExtensUp2
ENCODING 68
SWIDTH 600 0
DWIDTH 8 0
BBX 1 3 4 0
BITMAP
80
80
80
ENDCHAR
STARTCHAR RDownVector
ENCODING 69
SWIDTH 600 0
DWIDTH 8 0
BBX 3 9 4 0
BITMAP
80
80
80
80
80
80
a0
c0
80
ENDCHAR
STARTCHAR Equilibrium
ENCODING 70
SWIDTH 720 0
DWIDTH 10 0
BBX 8 8 1 -1
BITMAP
04
02
ff
00
00
ff
40
20
ENDCHAR
STARTCHAR RvrsEquilibrium
ENCODING 71
SWIDTH 720 0
DWIDTH 10 0
BBX 8 8 1 -1
BITMAP
20
40
ff
00
00
ff
02
04
ENDCHAR
STARTCHAR EquilbrmHeadL
ENCODING 72
SWIDTH 323 0
DWIDTH 5 0
BBX 4 6 1 -1
BITMAP
f0
00
00
f0
40
20
ENDCHAR
STARTCHAR EquilbrmheadR
ENCODING 73
SWIDTH 323 0
DWIDTH 5 0
BBX 4 6 0 1
BITMAP
40
20
f0
00
00
f0
ENDCHAR
STARTCHAR RvrsEquilbrmHeadL
ENCODING 74
SWIDTH 323 0
DWIDTH 5 0
BBX 4 6 1 1
BITMAP
20
40
f0
00
00
f0
ENDCHAR
STARTCHAR RvrsEquilbrmHeadR
ENCODING 75
SWIDTH 323 0
DWIDTH 5 0
BBX 4 6 0 -1
BITMAP
f0
00
00
f0
20
40
ENDCHAR
STARTCHAR UpEquilibrium
ENCODING 76
SWIDTH 600 0
DWIDTH 8 0
BBX 8 9 0 0
BITMAP
24
64
a4
24
24
24
25
26
24
ENDCHAR
STARTCHAR RvrsUpEquilibrium
ENCODING 77
SWIDTH 600 0
DWIDTH 8 0
BBX 8 9 0 0
BITMAP
24
26
25
24
24
24
a4
64
24
ENDCHAR
STARTCHAR LArrowHookUp
ENCODING 78
SWIDTH 720 0
DWIDTH 10 0
BBX 9 6 1 1
BITMAP
0300
2080
4080
ff00
4000
2000
ENDCHAR
STARTCHAR RArrowHookUp
ENCODING 79
SWIDTH 720 0
DWIDTH 10 0
BBX 9 6 1 1
BITMAP
6000
8200
8100
7f80
0100
0200
ENDCHAR
STARTCHAR LArrow
ENCODING 80
SWIDTH 720 0
DWIDTH 10 0
BBX 8 5 1 1
BITMAP
20
40
ff
40
20
ENDCHAR
STARTCHAR Extens
ENCODING 81
SWIDTH 200 0
DWIDTH 3 0
BBX 3 1 0 3
BITMAP
e0
ENDCHAR
STARTCHAR LeftTackBase
ENCODING 82
SWIDTH 236 0
DWIDTH 3 0
BBX 2 5 0 1
BITMAP
40
40
c0
40
40
ENDCHAR
STARTCHAR RightTackBase
ENCODING 83
SWIDTH 236 0
DWIDTH 3 0
BBX 2 5 0 1
BITMAP
80
80
c0
80
80
ENDCHAR
STARTCHAR RArrow
ENCODING 84
SWIDTH 720 0
DWIDTH 10 0
BBX 10 5 0 1
BITMAP
0100
0080
ffc0
0080
0100
ENDCHAR
STARTCHAR RUpVector2
ENCODING 85
SWIDTH 600 0
DWIDTH 8 0
BBX 3 9 4 0
BITMAP
80
c0
a0
80
80
80
80
80
80
ENDCHAR
STARTCHAR RArrowLArrow
ENCODING 86
SWIDTH 720 0
DWIDTH 10 0
BBX 9 8 1 -1
BITMAP
0200
0100
ff80
2100
4200
ff80
4000
2000
ENDCHAR
STARTCHAR LArrowRArrow
ENCODING 87
SWIDTH 720 0
DWIDTH 10 0
BBX 9 8 1 -1
BITMAP
2000
4000
ff80
4200
2100
ff80
0100
0200
ENDCHAR
STARTCHAR RArrowLArrowHeadL
ENCODING 88
SWIDTH 285 0
DWIDTH 4 0
BBX 3 6 1 -1
BITMAP
e0
20
40
e0
40
20
ENDCHAR
STARTCHAR RArrowLArrowHeadR
ENCODING 89
SWIDTH 285 0
DWIDTH 4 0
BBX 3 6 0 1
BITMAP
80
40
e0
40
80
e0
ENDCHAR
STARTCHAR LArrowRArrowHeadL
ENCODING 90
SWIDTH 285 0
DWIDTH 4 0
BBX 3 6 1 1
BITMAP
20
40
e0
40
20
e0
ENDCHAR
STARTCHAR LArrowRArrowHeadR
ENCODING 91
SWIDTH 285 0
DWIDTH 4 0
BBX 3 6 0 -1
BITMAP
e0
80
40
e0
40
80
ENDCHAR
STARTCHAR UpArrowDownArrow
ENCODING 92
SWIDTH 600 0
DWIDTH 8 0
BBX 8 9 0 0
BITMAP
24
74
ac
24
24
24
35
2e
24
ENDCHAR
STARTCHAR DownArrowUpArrow
ENCODING 93
SWIDTH 600 0
DWIDTH 8 0
BBX 8 9 0 0
BITMAP
24
2e
35
24
24
24
ac
74
24
ENDCHAR
STARTCHAR VertExt1
ENCODING 94
SWIDTH 600 0
DWIDTH 8 0
BBX 1 3 4 0
BITMAP
80
80
80
ENDCHAR
STARTCHAR HorizExt1
ENCODING 95
SWIDTH 200 0
DWIDTH 3 0
BBX 3 1 0 0
BITMAP
e0
ENDCHAR
STARTCHAR UpArrow
ENCODING 96
SWIDTH 600 0
DWIDTH 8 0
BBX 5 9 2 0
BITMAP
20
70
a8
20
20
20
20
20
20
ENDCHAR
STARTCHAR UpTackBase
ENCODING 97
SWIDTH 600 0
DWIDTH 8 0
BBX 5 2 2 0
BITMAP
20
f8
ENDCHAR
STARTCHAR DownTackBase
ENCODING 98
SWIDTH 600 0
DWIDTH 8 0
BBX 5 2 2 0
BITMAP
f8
20
ENDCHAR
STARTCHAR DownArrow
ENCODING 99
SWIDTH 600 0
DWIDTH 8 0
BBX 5 9 2 0
BITMAP
20
20
20
20
20
20
a8
70
20
ENDCHAR
STARTCHAR RDownVector2
ENCODING 100
SWIDTH 600 0
DWIDTH 8 0
BBX 3 9 4 0
BITMAP
80
80
80
80
80
80
a0
c0
80
ENDCHAR
STARTCHAR UpEquilbrmHeadBttm
ENCODING 101
SWIDTH 600 0
DWIDTH 8 0
BBX 6 4 2 0
BITMAP
90
94
98
90
ENDCHAR
STARTCHAR DblUpExtens2
ENCODING 102
SWIDTH 600 0
DWIDTH 8 0
BBX 4 3 2 0
BITMAP
90
90
90
ENDCHAR
STARTCHAR RvrsUpEquilbrmHeadTop
ENCODING 103
SWIDTH 600 0
DWIDTH 8 0
BBX 6 4 2 0
BITMAP
90
98
94
90
ENDCHAR
STARTCHAR UpEquilbrmHeadTop
ENCODING 104
SWIDTH 600 0
DWIDTH 8 0
BBX 6 4 0 0
BITMAP
24
64
a4
24
ENDCHAR
STARTCHAR DblUpExtens1
ENCODING 105
SWIDTH 600 0
DWIDTH 8 0
BBX 4 3 2 0
BITMAP
90
90
90
ENDCHAR
STARTCHAR RvrsUpEquilibrmHdBttm
ENCODING 106
SWIDTH 600 0
DWIDTH 8 0
BBX 6 4 0 0
BITMAP
24
a4
64
24
ENDCHAR
STARTCHAR UpArrwDwnArrwBttm
ENCODING 107
SWIDTH 600 0
DWIDTH 8 0
BBX 6 4 2 0
BITMAP
90
d4
b8
90
ENDCHAR
STARTCHAR DwnArrwUpArrwTop
ENCODING 108
SWIDTH 600 0
DWIDTH 8 0
BBX 6 4 2 0
BITMAP
90
b8
d4
90
ENDCHAR
STARTCHAR UpArrwDwnArrwTop
ENCODING 109
SWIDTH 600 0
DWIDTH 8 0
BBX 6 4 0 0
BITMAP
24
74
ac
24
ENDCHAR
STARTCHAR DwnArrwUpArrwBttm
ENCODING 110
SWIDTH 600 0
DWIDTH 8 0
BBX 6 4 0 0
BITMAP
24
ac
74
24
ENDCHAR
STARTCHAR DblExtens
ENCODING 111
SWIDTH 200 0
DWIDTH 3 0
BBX 3 4 0 1
BITMAP
e0
00
00
e0
ENDCHAR
STARTCHAR OverBracket1
ENCODING 112
SWIDTH 838 0
DWIDTH 12 0
BBX 12 2 0 0
BITMAP
fff0
8010
ENDCHAR
STARTCHAR OverBracket2
ENCODING 113
SWIDTH 1438 0
DWIDTH 20 0
BBX 20 2 0 0
BITMAP
fffff0
800010
ENDCHAR
STARTCHAR OverBracket3
ENCODING 114
SWIDTH 2038 0
DWIDTH 29 0
BBX 29 2 0 0
BITMAP
fffffff8
80000008
ENDCHAR
STARTCHAR OverBracket4
ENCODING 115
SWIDTH 2638 0
DWIDTH 37 0
BBX 37 2 0 0
BITMAP
fffffffff8
8000000008
ENDCHAR
STARTCHAR OverBracketExt1
ENCODING 116
SWIDTH 300 0
DWIDTH 4 0
BBX 4 2 0 0
BITMAP
f0
80
ENDCHAR
STARTCHAR OverBracketExt2
ENCODING 117
SWIDTH 300 0
DWIDTH 4 0
BBX 5 1 0 1
BITMAP
f8
ENDCHAR
STARTCHAR OverBracketExt3
ENCODING 118
SWIDTH 300 0
DWIDTH 4 0
BBX 4 2 0 0
BITMAP
f0
10
ENDCHAR
STARTCHAR ShortUpArrow
ENCODING 119
SWIDTH 600 0
DWIDTH 8 0
BBX 5 7 2 0
BITMAP
20
70
a8
20
20
20
20
ENDCHAR
STARTCHAR ShortDownArrow
ENCODING 120
SWIDTH 600 0
DWIDTH 8 0
BBX 5 7 2 0
BITMAP
20
20
20
20
a8
70
20
ENDCHAR
STARTCHAR ShortLArrow
ENCODING 121
SWIDTH 600 0
DWIDTH 8 0
BBX 6 5 1 -1
BITMAP
20
40
fc
40
20
ENDCHAR
STARTCHAR ShortRArrow
ENCODING 122
SWIDTH 600 0
DWIDTH 8 0
BBX 8 5 0 -1
BITMAP
04
02
ff
02
04
ENDCHAR
STARTCHAR LArrowBar
ENCODING 123
SWIDTH 807 0
DWIDTH 11 0
BBX 10 5 1 -1
BITMAP
9000
a000
ffc0
a000
9000
ENDCHAR
STARTCHAR Dash
ENCODING 124
SWIDTH 600 0
DWIDTH 8 0
BBX 4 1 2 3
BITMAP
f0
ENDCHAR
STARTCHAR LongDash
ENCODING 125
SWIDTH 600 0
DWIDTH 8 0
BBX 6 1 1 3
BITMAP
fc
ENDCHAR
STARTCHAR DivisionBarExtens
ENCODING 126
SWIDTH 600 0
DWIDTH 8 0
BBX 8 1 0 3
BITMAP
ff
ENDCHAR
STARTCHAR DEL
ENCODING 127
SWIDTH 263 0
DWIDTH 4 0
BBX 0 0 0 0
BITMAP
ENDCHAR
STARTCHAR UnderBracket1
ENCODING 128
SWIDTH 838 0
DWIDTH 12 0
BBX 12 2 0 0
BITMAP
8010
fff0
ENDCHAR
STARTCHAR UnderBracket2
ENCODING 129
SWIDTH 1438 0
DWIDTH 20 0
BBX 20 2 0 0
BITMAP
800010
fffff0
ENDCHAR
STARTCHAR UnderBracket3
ENCODING 130
SWIDTH 2038 0
DWIDTH 29 0
BBX 29 2 0 0
BITMAP
80000008
fffffff8
ENDCHAR
STARTCHAR UnderBracket4
ENCODING 131
SWIDTH 2638 0
DWIDTH 37 0
BBX 37 2 0 0
BITMAP
8000000008
fffffffff8
ENDCHAR
STARTCHAR UnderBracketExt1
ENCODING 132
SWIDTH 300 0
DWIDTH 4 0
BBX 4 2 0 0
BITMAP
80
f0
ENDCHAR
STARTCHAR UnderBracketExt2
ENCODING 133
SWIDTH 300 0
DWIDTH 4 0
BBX 5 1 0 0
BITMAP
f8
ENDCHAR
STARTCHAR UnderBracketExt3
ENCODING 134
SWIDTH 300 0
DWIDTH 4 0
BBX 4 2 0 0
BITMAP
10
f0
ENDCHAR
STARTCHAR LowerLeftArrow
ENCODING 135
SWIDTH 600 0
DWIDTH 8 0
BBX 7 7 1 0
BITMAP
02
04
08
90
a0
c0
f0
ENDCHAR
STARTCHAR UpperLeftArrow
ENCODING 136
SWIDTH 600 0
DWIDTH 8 0
BBX 7 7 1 0
BITMAP
f0
c0
a0
90
08
04
02
ENDCHAR
STARTCHAR UpperRightArrow
ENCODING 137
SWIDTH 600 0
DWIDTH 8 0
BBX 7 7 1 0
BITMAP
1e
06
0a
12
20
40
80
ENDCHAR
STARTCHAR LowerRightArrow
ENCODING 138
SWIDTH 600 0
DWIDTH 8 0
BBX 7 7 1 0
BITMAP
80
40
20
12
0a
06
1e
ENDCHAR
STARTCHAR LongLowerLeftArrow
ENCODING 139
SWIDTH 1056 0
DWIDTH 15 0
BBX 13 13 1 -2
BITMAP
0008
0010
0020
0040
0080
0100
0200
0400
0800
9000
a000
c000
f000
ENDCHAR
STARTCHAR LongUpperLeftArrow
ENCODING 140
SWIDTH 1056 0
DWIDTH 15 0
BBX 13 13 1 -2
BITMAP
f000
c000
a000
9000
0800
0400
0200
0100
0080
0040
0020
0010
0008
ENDCHAR
STARTCHAR LongUpperRightArrow
ENCODING 141
SWIDTH 1056 0
DWIDTH 15 0
BBX 13 13 1 -2
BITMAP
0078
0018
0028
0048
0080
0100
0200
0400
0800
1000
2000
4000
8000
ENDCHAR
STARTCHAR LongLowerRightArrow
ENCODING 142
SWIDTH 1056 0
DWIDTH 15 0
BBX 13 13 1 -2
BITMAP
8000
4000
2000
1000
0800
0400
0200
0100
0080
0048
0028
0018
0078
ENDCHAR
STARTCHAR Arrowhead
ENCODING 143
SWIDTH 600 0
DWIDTH 8 0
BBX 4 4 2 0
BITMAP
80
80
80
f0
ENDCHAR
STARTCHAR OverParen1
ENCODING 144
SWIDTH 838 0
DWIDTH 12 0
BBX 12 2 0 0
BITMAP
3fc0
c030
ENDCHAR
STARTCHAR OverParen2
ENCODING 145
SWIDTH 1438 0
DWIDTH 20 0
BBX 20 2 0 0
BITMAP
3fffc0
c00030
ENDCHAR
STARTCHAR OverParen3
ENCODING 146
SWIDTH 2038 0
DWIDTH 29 0
BBX 29 2 0 0
BITMAP
3fffffe0
c0000018
ENDCHAR
STARTCHAR OverParen4
ENCODING 147
SWIDTH 2638 0
DWIDTH 37 0
BBX 37 2 0 0
BITMAP
3fffffffe0
c000000018
ENDCHAR
STARTCHAR OverParenExt1
ENCODING 148
SWIDTH 600 0
DWIDTH 8 0
BBX 8 2 0 0
BITMAP
3f
c0
ENDCHAR
STARTCHAR OverParenExt2
ENCODING 149
SWIDTH 300 0
DWIDTH 4 0
BBX 5 1 0 1
BITMAP
f8
ENDCHAR
STARTCHAR OverParenExt3
ENCODING 150
SWIDTH 600 0
DWIDTH 8 0
BBX 8 2 0 0
BITMAP
fc
03
ENDCHAR
STARTCHAR OverBrace1
ENCODING 151
SWIDTH 838 0
DWIDTH 12 0
BBX 12 3 0 0
BITMAP
0400
7be0
8010
ENDCHAR
STARTCHAR OverBrace2
ENCODING 152
SWIDTH 1438 0
DWIDTH 20 0
BBX 20 3 0 0
BITMAP
004000
7fbfe0
800010
ENDCHAR
STARTCHAR OverBrace3
ENCODING 153
SWIDTH 2038 0
DWIDTH 29 0
BBX 29 3 0 0
BITMAP
00020000
7ffdfff0
80000008
ENDCHAR
STARTCHAR OverBrace4
ENCODING 154
SWIDTH 2638 0
DWIDTH 37 0
BBX 37 3 0 0
BITMAP
0000200000
7fffdffff0
8000000008
ENDCHAR
STARTCHAR OverBraceExt1
ENCODING 155
SWIDTH 300 0
DWIDTH 4 0
BBX 4 2 0 0
BITMAP
70
80
ENDCHAR
STARTCHAR OverBraceExt2
ENCODING 156
SWIDTH 300 0
DWIDTH 4 0
BBX 5 1 0 1
BITMAP
f8
ENDCHAR
STARTCHAR OverBraceExt3
ENCODING 157
SWIDTH 300 0
DWIDTH 4 0
BBX 4 2 0 1
BITMAP
40
b0
ENDCHAR
STARTCHAR OverBraceExt4
ENCODING 158
SWIDTH 300 0
DWIDTH 4 0
BBX 4 2 0 0
BITMAP
e0
10
ENDCHAR
STARTCHAR AngleArrowExtension45
ENCODING 159
SWIDTH 852 0
DWIDTH 12 0
BBX 5 5 4 0
BITMAP
08
10
20
40
80
ENDCHAR
STARTCHAR UnderParen1
ENCODING 160
SWIDTH 838 0
DWIDTH 12 0
BBX 12 2 0 0
BITMAP
c030
3fc0
ENDCHAR
STARTCHAR UnderParen2
ENCODING 161
SWIDTH 1438 0
DWIDTH 20 0
BBX 20 2 0 0
BITMAP
c00030
3fffc0
ENDCHAR
STARTCHAR UnderParen3
ENCODING 162
SWIDTH 2038 0
DWIDTH 29 0
BBX 29 2 0 0
BITMAP
c0000018
3fffffe0
ENDCHAR
STARTCHAR UnderParen4
ENCODING 163
SWIDTH 2638 0
DWIDTH 37 0
BBX 37 2 0 0
BITMAP
c000000018
3fffffffe0
ENDCHAR
STARTCHAR UnderParenExt1
ENCODING 164
SWIDTH 600 0
DWIDTH 8 0
BBX 8 2 0 0
BITMAP
c0
3f
ENDCHAR
STARTCHAR UnderParenExt2
ENCODING 165
SWIDTH 300 0
DWIDTH 4 0
BBX 5 1 0 0
BITMAP
f8
ENDCHAR
STARTCHAR UnderParenExt3
ENCODING 166
SWIDTH 600 0
DWIDTH 8 0
BBX 8 2 0 0
BITMAP
03
fc
ENDCHAR
STARTCHAR UnderBrace1
ENCODING 167
SWIDTH 838 0
DWIDTH 12 0
BBX 12 3 0 -1
BITMAP
8010
7be0
0400
ENDCHAR
STARTCHAR UnderBrace2
ENCODING 168
SWIDTH 1438 0
DWIDTH 20 0
BBX 20 3 0 -1
BITMAP
800010
7fbfe0
004000
ENDCHAR
STARTCHAR UnderBrace3
ENCODING 169
SWIDTH 2038 0
DWIDTH 29 0
BBX 29 3 0 -1
BITMAP
80000008
7ffdfff0
00020000
ENDCHAR
STARTCHAR UnderBrace4
ENCODING 170
SWIDTH 2638 0
DWIDTH 37 0
BBX 37 3 0 -1
BITMAP
8000000008
7fffdffff0
0000200000
ENDCHAR
STARTCHAR UnderBraceExt1
ENCODING 171
SWIDTH 300 0
DWIDTH 4 0
BBX 4 2 0 0
BITMAP
80
70
ENDCHAR
STARTCHAR UnderBraceExt2
ENCODING 172
SWIDTH 300 0
DWIDTH 4 0
BBX 5 1 0 0
BITMAP
f8
ENDCHAR
STARTCHAR UnderBraceExt3
ENCODING 173
SWIDTH 300 0
DWIDTH 4 0
BBX 4 2 0 -1
BITMAP
b0
40
ENDCHAR
STARTCHAR UnderBraceExt4
ENCODING 174
SWIDTH 300 0
DWIDTH 4 0
BBX 4 2 0 0
BITMAP
10
e0
ENDCHAR
STARTCHAR AngleArrowExtension135
ENCODING 175
SWIDTH 852 0
DWIDTH 12 0
BBX 5 5 4 0
BITMAP
80
40
20
10
08
ENDCHAR
STARTCHAR OverWedge1
ENCODING 176
SWIDTH 838 0
DWIDTH 12 0
BBX 11 3 0 0
BITMAP
0e00
71c0
8020
ENDCHAR
STARTCHAR OverWedge2
ENCODING 177
SWIDTH 1438 0
DWIDTH 20 0
BBX 21 3 0 0
BITMAP
00f800
1f07c0
e00038
ENDCHAR
STARTCHAR OverWedge3
ENCODING 178
SWIDTH 2038 0
DWIDTH 29 0
BBX 29 3 0 0
BITMAP
001fc000
0fe03f80
f0000078
ENDCHAR
STARTCHAR OverWedge4
ENCODING 179
SWIDTH 2638 0
DWIDTH 37 0
BBX 37 3 0 0
BITMAP
0003fe0000
07fc01ff00
f8000000f8
ENDCHAR
STARTCHAR Ellipsis
ENCODING 180
SWIDTH 600 0
DWIDTH 8 0
BBX 8 2 0 0
BITMAP
db
db
ENDCHAR
STARTCHAR CenterEllipsis
ENCODING 181
SWIDTH 600 0
DWIDTH 8 0
BBX 8 2 0 2
BITMAP
db
db
ENDCHAR
STARTCHAR VertEllipsis
ENCODING 182
SWIDTH 600 0
DWIDTH 8 0
BBX 2 8 3 -1
BITMAP
c0
c0
00
c0
c0
00
c0
c0
ENDCHAR
STARTCHAR DiagEllipsis
ENCODING 183
SWIDTH 600 0
DWIDTH 8 0
BBX 8 8 0 -1
BITMAP
03
03
00
18
18
00
c0
c0
ENDCHAR
STARTCHAR BackDiagEllipsis
ENCODING 184
SWIDTH 600 0
DWIDTH 8 0
BBX 8 8 0 -1
BITMAP
c0
c0
00
18
18
00
03
03
ENDCHAR
STARTCHAR Ellipsis2
ENCODING 185
SWIDTH 995 0
DWIDTH 14 0
BBX 12 2 1 0
BITMAP
c630
c630
ENDCHAR
STARTCHAR CenterEllipsis2
ENCODING 186
SWIDTH 995 0
DWIDTH 14 0
BBX 12 2 1 2
BITMAP
c630
c630
ENDCHAR
STARTCHAR VertEllipsis2
ENCODING 187
SWIDTH 600 0
DWIDTH 8 0
BBX 2 10 3 0
BITMAP
c0
c0
00
00
c0
c0
00
00
c0
c0
ENDCHAR
STARTCHAR Dot
ENCODING 188
SWIDTH 332 0
DWIDTH 5 0
BBX 2 2 1 0
BITMAP
c0
c0
ENDCHAR
STARTCHAR CenterDot
ENCODING 189
SWIDTH 332 0
DWIDTH 5 0
BBX 2 2 1 2
BITMAP
c0
c0
ENDCHAR
STARTCHAR BackPrime
ENCODING 190
SWIDTH 411 0
DWIDTH 6 0
BBX 4 4 1 1
BITMAP
c0
60
20
10
ENDCHAR
STARTCHAR DblBackPrime
ENCODING 191
SWIDTH 649 0
DWIDTH 9 0
BBX 7 4 1 1
BITMAP
d8
6c
24
12
ENDCHAR
STARTCHAR UnderVee1
ENCODING 192
SWIDTH 838 0
DWIDTH 12 0
BBX 11 3 0 0
BITMAP
8020
71c0
0e00
ENDCHAR
STARTCHAR UnderVee2
ENCODING 193
SWIDTH 1438 0
DWIDTH 20 0
BBX 21 3 0 0
BITMAP
e00038
1f07c0
00f800
ENDCHAR
STARTCHAR UnderVee3
ENCODING 194
SWIDTH 2038 0
DWIDTH 29 0
BBX 29 3 0 0
BITMAP
f0000078
0fe03f80
001fc000
ENDCHAR
STARTCHAR UnderVee4
ENCODING 195
SWIDTH 2638 0
DWIDTH 37 0
BBX 37 3 0 0
BITMAP
f8000000f8
07fc01ff00
0003fe0000
ENDCHAR
STARTCHAR UpPointer
ENCODING 196
SWIDTH 600 0
DWIDTH 8 0
BBX 5 3 2 2
BITMAP
20
70
f8
ENDCHAR
STARTCHAR RightPointer
ENCODING 197
SWIDTH 600 0
DWIDTH 8 0
BBX 3 5 3 1
BITMAP
80
c0
e0
c0
80
ENDCHAR
STARTCHAR DownPointer
ENCODING 198
SWIDTH 600 0
DWIDTH 8 0
BBX 5 3 2 2
BITMAP
f8
70
20
ENDCHAR
STARTCHAR LeftPointer
ENCODING 199
SWIDTH 600 0
DWIDTH 8 0
BBX 3 5 3 1
BITMAP
20
60
e0
60
20
ENDCHAR
STARTCHAR UpLHookExt
ENCODING 200
SWIDTH 247 0
DWIDTH 3 0
BBX 3 4 0 2
BITMAP
c0
20
20
c0
ENDCHAR
STARTCHAR UpRHookExt
ENCODING 201
SWIDTH 247 0
DWIDTH 3 0
BBX 3 4 0 2
BITMAP
60
80
80
60
ENDCHAR
STARTCHAR nbspace
ENCODING 202
SWIDTH 263 0
DWIDTH 4 0
BBX 0 0 0 0
BITMAP
ENDCHAR
STARTCHAR XBox
ENCODING 203
SWIDTH 600 0
DWIDTH 8 0
BBX 6 6 1 0
BITMAP
fc
cc
b4
b4
cc
fc
ENDCHAR
STARTCHAR SmileyFace
ENCODING 204
SWIDTH 600 0
DWIDTH 8 0
BBX 8 8 0 0
BITMAP
3c
42
a5
81
a5
99
42
3c
ENDCHAR
STARTCHAR StraightFace
ENCODING 205
SWIDTH 600 0
DWIDTH 8 0
BBX 8 8 0 0
BITMAP
3c
42
a5
81
81
bd
42
3c
ENDCHAR
STARTCHAR FrownFace
ENCODING 206
SWIDTH 600 0
DWIDTH 8 0
BBX 8 8 0 0
BITMAP
3c
42
a5
81
99
a5
42
3c
ENDCHAR
STARTCHAR ShockFace
ENCODING 207
SWIDTH 600 0
DWIDTH 8 0
BBX 8 10 0 0
BITMAP
08
24
bd
42
a5
99
a5
99
42
3c
ENDCHAR
STARTCHAR Strike1
ENCODING 208
SWIDTH 600 0
DWIDTH 8 0
BBX 3 4 3 2
BITMAP
20
40
40
80
ENDCHAR
STARTCHAR Strike2
ENCODING 209
SWIDTH 601 0
DWIDTH 8 0
BBX 3 7 2 0
BITMAP
20
20
40
40
40
80
80
ENDCHAR
STARTCHAR Strike3
ENCODING 210
SWIDTH 600 0
DWIDTH 8 0
BBX 4 9 2 -1
BITMAP
10
30
20
20
60
40
40
c0
80
ENDCHAR
STARTCHAR Strike4
ENCODING 211
SWIDTH 600 0
DWIDTH 8 0
BBX 5 11 2 -2
BITMAP
08
10
10
10
20
20
20
40
40
40
80
ENDCHAR
STARTCHAR Strike5
ENCODING 212
SWIDTH 600 0
DWIDTH 8 0
BBX 5 13 2 -2
BITMAP
08
08
10
10
10
20
20
20
40
40
40
c0
80
ENDCHAR
STARTCHAR Strike6
ENCODING 213
SWIDTH 600 0
DWIDTH 8 0
BBX 5 14 2 -3
BITMAP
08
08
10
10
10
20
20
20
20
40
40
40
80
80
ENDCHAR
STARTCHAR KeyBar
ENCODING 214
SWIDTH 88 0
DWIDTH 1 0
BBX 3 2 -1 3
BITMAP
e0
e0
ENDCHAR
STARTCHAR DownLHookExt
ENCODING 215
SWIDTH 247 0
DWIDTH 3 0
BBX 3 4 0 0
BITMAP
c0
20
20
c0
ENDCHAR
STARTCHAR DownRHookExt
ENCODING 216
SWIDTH 247 0
DWIDTH 3 0
BBX 3 4 0 0
BITMAP
60
80
80
60
ENDCHAR
STARTCHAR Icos
ENCODING 217
SWIDTH 901 0
DWIDTH 13 0
BBX 11 10 1 -1
BITMAP
0980
7680
7380
3e60
fb40
cca0
bfc0
6580
3f80
1900
ENDCHAR
STARTCHAR KernalIcon
ENCODING 218
SWIDTH 837 0
DWIDTH 12 0
BBX 11 11 0 -1
BITMAP
1f00
2080
6d40
bb20
b320
dfe0
e4e0
9fe0
5f40
3d80
1f00
ENDCHAR
STARTCHAR LightBulb
ENCODING 219
SWIDTH 612 0
DWIDTH 9 0
BBX 9 12 0 -2
BITMAP
0800
2200
bc80
6300
4100
4100
2200
1400
1400
0000
1c00
0800
ENDCHAR
STARTCHAR WarningSign
ENCODING 220
SWIDTH 660 0
DWIDTH 9 0
BBX 8 9 1 0
BITMAP
08
18
24
2c
4a
4a
42
89
ff
ENDCHAR
STARTCHAR WatchIcon
ENCODING 221
SWIDTH 597 0
DWIDTH 8 0
BBX 7 10 1 -1
BITMAP
78
78
78
84
94
b2
84
78
78
78
ENDCHAR
STARTCHAR Cedilla
ENCODING 222
SWIDTH 600 0
DWIDTH 8 0
BBX 3 3 2 -3
BITMAP
60
20
c0
ENDCHAR
STARTCHAR Ogonek
ENCODING 223
SWIDTH 600 0
DWIDTH 8 0
BBX 3 3 2 -3
BITMAP
40
80
e0
ENDCHAR
STARTCHAR AltKey
ENCODING 224
SWIDTH 1174 0
DWIDTH 16 0
BBX 14 11 1 -2
BITMAP
fffc
8004
8004
92fc
9224
aa24
aa24
ba24
c7a4
8004
fffc
ENDCHAR
STARTCHAR CmdKey
ENCODING 225
SWIDTH 1318 0
DWIDTH 18 0
BBX 16 11 1 -2
BITMAP
ffff
8001
8001
936d
ab6b
a36b
a2ab
aaab
92ad
8001
ffff
ENDCHAR
STARTCHAR CtrlKey
ENCODING 226
SWIDTH 1379 0
DWIDTH 19 0
BBX 17 11 1 -2
BITMAP
ffff80
800080
800080
9fe880
aaa880
a2c880
a2a880
aaa880
92ae80
800080
ffff80
ENDCHAR
STARTCHAR DelKey
ENCODING 227
SWIDTH 1143 0
DWIDTH 16 0
BBX 14 11 1 -2
BITMAP
fffc
8004
8004
b3a4
aa24
aba4
aa24
aa24
b3bc
8004
fffc
ENDCHAR
STARTCHAR EntKey
ENCODING 228
SWIDTH 1146 0
DWIDTH 16 0
BBX 14 11 1 -2
BITMAP
fffc
8004
8004
befc
a6a4
bea4
a5a4
a5a4
bda4
8004
fffc
ENDCHAR
STARTCHAR EscKey
ENCODING 229
SWIDTH 1146 0
DWIDTH 16 0
BBX 14 11 1 -2
BITMAP
fffc
8004
8004
ba24
a554
bc44
a344
a554
ba24
8004
fffc
ENDCHAR
STARTCHAR OptKey
ENCODING 230
SWIDTH 1187 0
DWIDTH 17 0
BBX 15 11 1 -2
BITMAP
fffe
8002
8002
93fe
aa92
ab92
aa12
aa12
9212
8002
fffe
ENDCHAR
STARTCHAR RetKey
ENCODING 231
SWIDTH 1174 0
DWIDTH 16 0
BBX 14 11 1 -2
BITMAP
fffc
8004
8004
bbbc
aa14
b394
aa14
aa14
ab94
8004
fffc
ENDCHAR
STARTCHAR ShftKey
ENCODING 232
SWIDTH 1448 0
DWIDTH 20 0
BBX 18 11 1 -2
BITMAP
ffffc0
800040
800040
92bfc0
aaa240
a3b240
9aa240
aaa240
92a240
800040
ffffc0
ENDCHAR
STARTCHAR SpcKey
ENCODING 233
SWIDTH 1187 0
DWIDTH 17 0
BBX 15 11 1 -2
BITMAP
fffe
8002
8002
9392
aaaa
a3a2
9a22
aa2a
9212
8002
fffe
ENDCHAR
STARTCHAR TabKey
ENCODING 234
SWIDTH 1177 0
DWIDTH 16 0
BBX 14 11 1 -2
BITMAP
fffc
8004
8004
fe74
9254
9564
9554
9754
98f4
8004
fffc
ENDCHAR
STARTCHAR LKeyBracket
ENCODING 235
SWIDTH 245 0
DWIDTH 3 0
BBX 4 15 -1 -4
BITMAP
30
20
20
20
20
20
e0
e0
20
20
20
20
20
20
30
ENDCHAR
STARTCHAR RKeyBracket
ENCODING 236
SWIDTH 245 0
DWIDTH 3 0
BBX 2 15 0 -4
BITMAP
c0
40
40
40
40
40
40
40
40
40
40
40
40
40
c0
ENDCHAR
STARTCHAR CloverLeaf
ENCODING 237
SWIDTH 600 0
DWIDTH 8 0
BBX 8 8 0 0
BITMAP
e7
a5
ff
24
24
ff
a5
e7
ENDCHAR
STARTCHAR DottedSquare
ENCODING 238
SWIDTH 764 0
DWIDTH 11 0
BBX 9 9 1 0
BITMAP
eb80
8080
8080
0000
8080
0000
8080
8080
eb80
ENDCHAR
STARTCHAR RoundSpaceIndicator
ENCODING 239
SWIDTH 250 0
DWIDTH 4 0
BBX 4 2 0 -2
BITMAP
90
60
ENDCHAR
STARTCHAR CommandKey
ENCODING 240
SWIDTH 2643 0
DWIDTH 37 0
BBX 35 11 1 -2
BITMAP
ffffffffe0
8000000020
8000000020
9136d935a0
aab6d93560
a2b6fab560
a2aaaaad60
aaaaabad60
912aac6da0
8000000020
ffffffffe0
ENDCHAR
STARTCHAR ControlKey
ENCODING 241
SWIDTH 2327 0
DWIDTH 33 0
BBX 31 11 1 -2
BITMAP
fffffffe
80000002
80000002
9137fc92
aab49552
a2b49952
a2ac9552
aaac9552
912c949e
80000002
fffffffe
ENDCHAR
STARTCHAR DeleteKey
ENCODING 242
SWIDTH 1890 0
DWIDTH 26 0
BBX 24 11 1 -2
BITMAP
ffffff
800001
800001
b3cffd
aa4891
abce9d
aa4891
aa4891
b3fe9d
800001
ffffff
ENDCHAR
STARTCHAR EnterKey
ENCODING 243
SWIDTH 1668 0
DWIDTH 23 0
BBX 21 11 1 -2
BITMAP
fffff8
800008
800008
beffe8
a6a4a8
bea7c8
a5a4a8
a5a4a8
bda7a8
800008
fffff8
ENDCHAR
STARTCHAR EscapeKey
ENCODING 244
SWIDTH 2000 0
DWIDTH 28 0
BBX 26 11 1 -2
BITMAP
ffffffc0
80000040
80000040
ba227740
a5525440
be457740
a1454440
a5574440
ba28c740
80000040
ffffffc0
ENDCHAR
STARTCHAR OptionKey
ENCODING 245
SWIDTH 1869 0
DWIDTH 26 0
BBX 24 11 1 -2
BITMAP
ffffff
800001
800001
93f935
aaaab5
abaab5
aa2aad
aa2aad
92292d
800001
ffffff
ENDCHAR
STARTCHAR ReturnKey
ENCODING 246
SWIDTH 2015 0
DWIDTH 28 0
BBX 26 11 1 -2
BITMAP
ffffffc0
80000040
80000040
bbfaed40
aa2aad40
b3aacd40
aa2aab40
aa2aab40
aba4ab40
80000040
ffffffc0
ENDCHAR
STARTCHAR ShiftKey
ENCODING 247
SWIDTH 1563 0
DWIDTH 22 0
BBX 20 11 1 -2
BITMAP
fffff0
800010
800010
92aff0
aaa890
b3ac90
8aa890
aaa890
92a890
800010
fffff0
ENDCHAR
STARTCHAR SpaceKey
ENCODING 248
SWIDTH 1699 0
DWIDTH 24 0
BBX 22 11 1 -2
BITMAP
fffffc
800004
800004
93a274
aaa544
93d474
8a5444
aa7544
928a74
800004
fffffc
ENDCHAR
STARTCHAR Mod1Key
ENCODING 249
SWIDTH 1543 0
DWIDTH 22 0
BBX 20 11 1 -2
BITMAP
fffff0
800010
800010
b64cd0
b6aa50
b6aa50
aaaa50
aaaa50
aa4c50
800010
fffff0
ENDCHAR
STARTCHAR Mod2Key
ENCODING 250
SWIDTH 1655 0
DWIDTH 23 0
BBX 21 11 1 -2
BITMAP
fffff8
800008
800008
b64ce8
b6aaa8
b6aa28
aaaa48
aaaa88
aa4ce8
800008
fffff8
ENDCHAR
STARTCHAR RKeyBracket2
ENCODING 251
SWIDTH 245 0
DWIDTH 3 0
BBX 2 15 1 -4
BITMAP
c0
80
80
80
80
80
80
80
80
80
80
80
80
80
c0
ENDCHAR
STARTCHAR LUpHookExt
ENCODING 252
SWIDTH 600 0
DWIDTH 8 0
BBX 4 3 1 0
BITMAP
90
90
60
ENDCHAR
STARTCHAR RUpHookExt
ENCODING 253
SWIDTH 257 0
DWIDTH 8 0
BBX 4 3 3 0
BITMAP
90
90
60
ENDCHAR
STARTCHAR LDownHookExt
ENCODING 254
SWIDTH 257 0
DWIDTH 8 0
BBX 4 3 1 0
BITMAP
60
90
90
ENDCHAR
STARTCHAR RDownHookExt
ENCODING 255
SWIDTH 0 0
DWIDTH 8 0
BBX 4 3 3 0
BITMAP
60
90
90
ENDCHAR
ENDFONT
