STARTFONT 2.1
FONT -WRI-Mathematica7-Medium-R-Normal--32-320-75-75-p-110-Adobe-FontSpecific
SIZE 32 75 75
FONTBOUNDINGBOX 29 29 0 -7
STARTPROPERTIES 16
FOUNDRY "WRI"
FAMILY_NAME "Mathematica7"
WEIGHT_NAME "Medium"
SLANT "R"
SETWIDTH_NAME "Normal"
PIXEL_SIZE 32
POINT_SIZE 320
RESOLUTION_X 75
RESOLUTION_Y 75
SPACING "p"
AVERAGE_WIDTH 110
CHARSET_REGISTRY "Adobe"
CHARSET_ENCODING "FontSpecific"
FONT_DESCENT 7
FONT_ASCENT 22
DEFAULT_CHAR 32
ENDPROPERTIES
CHARS 224
STARTCHAR space
ENCODING 32
SWIDTH 263 0
DWIDTH 8 0
BBX 0 0 0 0
BITMAP
ENDCHAR
STARTCHAR exclam
ENCODING 33
SWIDTH 263 0
DWIDTH 8 0
BBX 0 0 0 0
BITMAP
ENDCHAR
STARTCHAR quotedbl
ENCODING 34
SWIDTH 263 0
DWIDTH 8 0
BBX 0 0 0 0
BITMAP
ENDCHAR
STARTCHAR numbersign
ENCODING 35
SWIDTH 263 0
DWIDTH 8 0
BBX 0 0 0 0
BITMAP
ENDCHAR
STARTCHAR dollar
ENCODING 36
SWIDTH 263 0
DWIDTH 8 0
BBX 0 0 0 0
BITMAP
ENDCHAR
STARTCHAR percent
ENCODING 37
SWIDTH 263 0
DWIDTH 8 0
BBX 0 0 0 0
BITMAP
ENDCHAR
STARTCHAR ampersand
ENCODING 38
SWIDTH 263 0
DWIDTH 8 0
BBX 0 0 0 0
BITMAP
ENDCHAR
STARTCHAR quotesingle
ENCODING 39
SWIDTH 263 0
DWIDTH 8 0
BBX 0 0 0 0
BITMAP
ENDCHAR
STARTCHAR parenleft
ENCODING 40
SWIDTH 263 0
DWIDTH 8 0
BBX 0 0 0 0
BITMAP
ENDCHAR
STARTCHAR parenright
ENCODING 41
SWIDTH 263 0
DWIDTH 8 0
BBX 0 0 0 0
BITMAP
ENDCHAR
STARTCHAR asterisk
ENCODING 42
SWIDTH 263 0
DWIDTH 8 0
BBX 0 0 0 0
BITMAP
ENDCHAR
STARTCHAR plus
ENCODING 43
SWIDTH 263 0
DWIDTH 8 0
BBX 0 0 0 0
BITMAP
ENDCHAR
STARTCHAR comma
ENCODING 44
SWIDTH 263 0
DWIDTH 8 0
BBX 0 0 0 0
BITMAP
ENDCHAR
STARTCHAR hyphen
ENCODING 45
SWIDTH 263 0
DWIDTH 8 0
BBX 0 0 0 0
BITMAP
ENDCHAR
STARTCHAR period
ENCODING 46
SWIDTH 263 0
DWIDTH 8 0
BBX 0 0 0 0
BITMAP
ENDCHAR
STARTCHAR slash
ENCODING 47
SWIDTH 263 0
DWIDTH 8 0
BBX 0 0 0 0
BITMAP
ENDCHAR
STARTCHAR DoubleZero
ENCODING 48
SWIDTH 676 0
DWIDTH 22 0
BBX 21 22 1 0
BITMAP
01f800
078f00
1e0780
3c07c0
7c0ce0
780ce0
f80870
f01870
f01870
f03078
f03078
f02078
f06078
f06070
f0c070
f8c070
7880f0
7d80e0
3d81c0
1f0380
0f8f00
01fc00
ENDCHAR
STARTCHAR DoubleOne
ENCODING 49
SWIDTH 362 0
DWIDTH 12 0
BBX 11 22 1 0
BITMAP
0f00
3700
6700
2700
2700
2700
2700
2700
2700
2700
2700
2700
2700
2700
2700
2700
2700
2700
2700
2700
2700
ffe0
ENDCHAR
STARTCHAR DoubleTwo
ENCODING 50
SWIDTH 499 0
DWIDTH 16 0
BBX 15 22 1 0
BITMAP
07e0
1df0
3058
602c
4026
c026
8026
0026
0026
002e
005c
0078
00f8
00f0
01c0
0380
0700
0e02
1806
3006
e07c
fffc
ENDCHAR
STARTCHAR DoubleThree
ENCODING 51
SWIDTH 499 0
DWIDTH 16 0
BBX 15 22 1 0
BITMAP
07c0
1ff0
30b8
605c
c02e
c02e
802e
002e
005c
00f8
01c0
01f8
005c
004c
004e
002e
004e
805e
80fc
e1f8
7ff0
0fc0
ENDCHAR
STARTCHAR DoubleFour
ENCODING 52
SWIDTH 539 0
DWIDTH 17 0
BBX 16 22 1 0
BITMAP
0078
0098
0198
0198
0298
0498
0c98
0898
1098
2098
6098
c098
ff9f
ff9f
ff9f
0098
0098
0098
0098
0098
0098
07fe
ENDCHAR
STARTCHAR DoubleFive
ENCODING 53
SWIDTH 478 0
DWIDTH 15 0
BBX 15 22 1 0
BITMAP
0ff8
0b80
0f80
1700
1700
1700
2e00
2e00
3fc0
1ff0
0038
000c
000c
0004
0006
0004
0004
800c
8018
e038
7fe0
1f80
ENDCHAR
STARTCHAR DoubleSix
ENCODING 54
SWIDTH 539 0
DWIDTH 17 0
BBX 17 21 1 0
BITMAP
00fe00
07c000
0f0000
160000
2e0000
5c0000
5c0000
9c0000
b9fc00
bf0e00
bc0700
b80300
b80100
b80100
b80180
b80100
9c0300
5c0300
2e0e00
17fc00
0ff000
ENDCHAR
STARTCHAR DoubleSeven
ENCODING 55
SWIDTH 480 0
DWIDTH 15 0
BBX 15 20 1 0
BITMAP
fffe
805c
00bc
00b8
0178
0178
01f0
02f0
02f0
05e0
05e0
07e0
0bc0
0bc0
1780
1780
1f80
2f00
2f00
7f00
ENDCHAR
STARTCHAR DoubleEight
ENCODING 56
SWIDTH 588 0
DWIDTH 19 0
BBX 17 22 1 0
BITMAP
07f000
1ffc00
270600
6e0300
4e0100
4e0100
4f0300
678600
23dc00
11f000
087c00
3e1e00
630f00
c0c780
c06380
c02380
c01380
c01380
c01380
602700
3c7e00
0ff000
ENDCHAR
STARTCHAR DoubleNine
ENCODING 57
SWIDTH 539 0
DWIDTH 17 0
BBX 17 22 0 0
BITMAP
07f000
1ff800
38fe00
602e00
401700
c01700
801300
800b80
800b80
c00b80
401380
601380
307380
1fd300
001700
001600
002e00
003c00
007800
00f000
43c000
3f0000
ENDCHAR
STARTCHAR colon
ENCODING 58
SWIDTH 263 0
DWIDTH 8 0
BBX 0 0 0 0
BITMAP
ENDCHAR
STARTCHAR semicolon
ENCODING 59
SWIDTH 263 0
DWIDTH 8 0
BBX 0 0 0 0
BITMAP
ENDCHAR
STARTCHAR less
ENCODING 60
SWIDTH 263 0
DWIDTH 8 0
BBX 0 0 0 0
BITMAP
ENDCHAR
STARTCHAR equal
ENCODING 61
SWIDTH 263 0
DWIDTH 8 0
BBX 0 0 0 0
BITMAP
ENDCHAR
STARTCHAR greater
ENCODING 62
SWIDTH 263 0
DWIDTH 8 0
BBX 0 0 0 0
BITMAP
ENDCHAR
STARTCHAR question
ENCODING 63
SWIDTH 263 0
DWIDTH 8 0
BBX 0 0 0 0
BITMAP
ENDCHAR
STARTCHAR at
ENCODING 64
SWIDTH 263 0
DWIDTH 8 0
BBX 0 0 0 0
BITMAP
ENDCHAR
STARTCHAR DoubleCapA
ENCODING 65
SWIDTH 784 0
DWIDTH 25 0
BBX 22 21 1 0
BITMAP
00f800
009800
011c00
013c00
032e00
022e00
026f00
044700
04c700
088380
098380
1901c0
1101c0
13ffe0
2200e0
2600f0
440070
4c0078
c80038
f80038
f8003c
ENDCHAR
STARTCHAR DoubleCapB
ENCODING 66
SWIDTH 689 0
DWIDTH 22 0
BBX 18 21 1 0
BITMAP
fff800
9c1e00
9c0780
9c0380
9c0380
9c0380
9c0380
9c0380
9c0780
9c0f00
9ffc00
9c0f00
9c0780
9c03c0
9c03c0
9c01c0
9c03c0
9c03c0
9c0380
9e0f00
fffc00
ENDCHAR
STARTCHAR DoubleCapC
ENCODING 67
SWIDTH 645 0
DWIDTH 21 0
BBX 19 22 0 0
BITMAP
00fe00
038380
0f00c0
1d0060
3d0060
390020
790020
710000
710000
f10000
f10000
f10000
f10000
710000
710000
790000
790000
3d0000
1f0020
0f0040
078180
00fe00
ENDCHAR
STARTCHAR DoubleCapD
ENCODING 68
SWIDTH 776 0
DWIDTH 25 0
BBX 22 21 1 0
BITMAP
fffc00
9c0f80
9c01c0
9c00f0
9c0070
9c0038
9c0038
9c001c
9c001c
9c001c
9c001c
9c001c
9c001c
9c001c
9c0038
9c0038
9c0070
9c00f0
9c01c0
9c0f80
fffc00
ENDCHAR
STARTCHAR DoubleCapE
ENCODING 69
SWIDTH 619 0
DWIDTH 20 0
BBX 18 21 1 0
BITMAP
ffff80
9c0000
9c0000
9c0000
9c0000
9c0000
9c0000
9c0000
9c0000
9c0000
9ffe00
9c0000
9c0000
9c0000
9c0000
9c0000
9c0000
9c0000
9c0000
9c0000
ffffc0
ENDCHAR
STARTCHAR DoubleCapF
ENCODING 70
SWIDTH 602 0
DWIDTH 19 0
BBX 18 21 1 0
BITMAP
ffffc0
9c0000
9c0000
9c0000
9c0000
9c0000
9c0000
9c0000
9c0000
9c0000
9ffe00
9c0000
9c0000
9c0000
9c0000
9c0000
9c0000
9c0000
9c0000
fc0000
fc0000
ENDCHAR
STARTCHAR DoubleCapG
ENCODING 71
SWIDTH 694 0
DWIDTH 22 0
BBX 19 21 1 0
BITMAP
01fc00
078300
1f01c0
3b00c0
730040
730040
f30000
e30000
e30000
e300e0
e300e0
e300e0
e300e0
e300e0
f300e0
7300e0
3b00e0
3f00e0
0f00e0
0783c0
00fe00
ENDCHAR
STARTCHAR DoubleCapH
ENCODING 72
SWIDTH 721 0
DWIDTH 23 0
BBX 19 21 1 0
BITMAP
fc00e0
9c00e0
9c00e0
9c00e0
9c00e0
9c00e0
9c00e0
9c00e0
9c00e0
9c00e0
9fffe0
9c00e0
9c00e0
9c00e0
9c00e0
9c00e0
9c00e0
9c00e0
9c00e0
fc00e0
fc00e0
ENDCHAR
STARTCHAR DoubleCapI
ENCODING 73
SWIDTH 312 0
DWIDTH 10 0
BBX 6 21 1 0
BITMAP
fc
9c
9c
9c
9c
9c
9c
9c
9c
9c
9c
9c
9c
9c
9c
9c
9c
9c
9c
fc
fc
ENDCHAR
STARTCHAR DoubleCapJ
ENCODING 74
SWIDTH 475 0
DWIDTH 15 0
BBX 11 21 1 0
BITMAP
07e0
04e0
04e0
04e0
04e0
04e0
04e0
04e0
04e0
04e0
04e0
04e0
04e0
04e0
04e0
04e0
04e0
45c0
e5c0
e780
7e00
ENDCHAR
STARTCHAR DoubleCapK
ENCODING 75
SWIDTH 679 0
DWIDTH 22 0
BBX 21 21 1 0
BITMAP
fc0060
9c01c0
9c0380
9c0600
9c0c00
9c1800
9c3000
9ce000
9dc000
9fc000
9fe000
9df000
9cf800
9c7c00
9c1e00
9c0f00
9c0780
9c03c0
9c01e0
fc00f0
fc00f8
ENDCHAR
STARTCHAR DoubleCapL
ENCODING 76
SWIDTH 611 0
DWIDTH 20 0
BBX 18 21 1 0
BITMAP
fc0000
9c0000
9c0000
9c0000
9c0000
9c0000
9c0000
9c0000
9c0000
9c0000
9c0000
9c0000
9c0000
9c0000
9c0000
9c0000
9c0000
9c0000
9c0000
9c0000
ffffc0
ENDCHAR
STARTCHAR DoubleCapM
ENCODING 77
SWIDTH 769 0
DWIDTH 25 0
BBX 21 21 1 0
BITMAP
fe0078
ce0078
cf00f8
c700b8
e781b8
a381b8
b38338
91c338
99c238
88e638
8ce438
8cfc38
867838
867838
833038
833038
812038
81e038
80e038
80c038
80c038
ENDCHAR
STARTCHAR DoubleCapN
ENCODING 78
SWIDTH 628 0
DWIDTH 20 0
BBX 16 21 1 0
BITMAP
ff01
8f81
c781
e3c1
b3e1
91f1
98f9
8c79
863d
831f
831f
818f
80c7
8063
8031
8031
8019
800d
8007
8007
8003
ENDCHAR
STARTCHAR DoubleCapO
ENCODING 79
SWIDTH 744 0
DWIDTH 24 0
BBX 21 22 0 0
BITMAP
00fc00
038700
0f01c0
1d00e0
3900e0
390070
790070
710078
710078
710078
f10078
f10078
710078
710078
710078
790078
390070
3d00e0
1d01e0
0f01c0
038700
00fc00
ENDCHAR
STARTCHAR DoubleCapP
ENCODING 80
SWIDTH 625 0
DWIDTH 20 0
BBX 17 21 1 0
BITMAP
fff800
9c1e00
9c0700
9c0780
9c0380
9c0380
9c0380
9c0380
9c0700
9c0700
9c1e00
9ff800
9c0000
9c0000
9c0000
9c0000
9c0000
9c0000
9c0000
9c0000
fc0000
ENDCHAR
STARTCHAR DoubleCapQ
ENCODING 81
SWIDTH 745 0
DWIDTH 24 0
BBX 21 28 0 -6
BITMAP
01fc00
078300
0f01c0
1d00e0
390060
390070
710070
710038
710038
f10038
f10038
f10038
f10038
710038
710030
710070
390070
390060
1d00e0
0f01c0
078780
00fe00
007c00
003c00
001e00
000f00
0007c0
0000f8
ENDCHAR
STARTCHAR DoubleCapR
ENCODING 82
SWIDTH 727 0
DWIDTH 23 0
BBX 20 21 1 0
BITMAP
fff800
9c1e00
9c0700
9c0380
9c0380
9c0380
9c0380
9c0780
9c0f00
9c3e00
9ff800
9cf000
9c7800
9c3c00
9c1e00
9c0f00
9c0f00
9c0780
9c03c0
9c03e0
fc01f0
ENDCHAR
STARTCHAR DoubleCapS
ENCODING 83
SWIDTH 607 0
DWIDTH 19 0
BBX 17 22 0 0
BITMAP
07f000
1f0800
6f0600
4e0300
ce0300
cf0100
4f0100
47c000
23e000
31f800
0c7c00
063e00
030f00
00cf00
004780
402780
402780
603780
603700
302600
1c7c00
07e000
ENDCHAR
STARTCHAR DoubleCapT
ENCODING 84
SWIDTH 547 0
DWIDTH 17 0
BBX 17 21 1 0
BITMAP
ffff80
027000
027000
027000
027000
027000
027000
027000
027000
027000
027000
027000
027000
027000
027000
027000
027000
027000
027000
027000
03f000
ENDCHAR
STARTCHAR DoubleCapU
ENCODING 85
SWIDTH 668 0
DWIDTH 21 0
BBX 18 21 1 0
BITMAP
fc0040
9c0040
9c0040
9c0040
9c0040
9c0040
9c0040
9c0040
9c0040
9c0040
9c0040
9c0040
9c0040
9c0040
9c0040
9c0040
5c00c0
4c0080
2e0180
1f0300
03fc00
ENDCHAR
STARTCHAR DoubleCapV
ENCODING 86
SWIDTH 723 0
DWIDTH 23 0
BBX 20 21 1 0
BITMAP
ff0030
4f0020
670060
678040
2380c0
33c0c0
11c080
19e180
08e180
0ce300
04f300
067200
027e00
023e00
033c00
011c00
019800
009800
00d800
005000
007000
ENDCHAR
STARTCHAR DoubleCapW
ENCODING 87
SWIDTH 989 0
DWIDTH 32 0
BBX 28 21 1 0
BITMAP
fe0f0010
cf070030
47078020
47038020
67838060
2381c040
3381c0c0
33c3e0c0
11c2e080
19e6e180
08e67180
0ce47100
0cfc7b00
04783b00
06783a00
06783e00
03301e00
03301c00
01300c00
01a00800
01e00800
ENDCHAR
STARTCHAR DoubleCapX
ENCODING 88
SWIDTH 807 0
DWIDTH 26 0
BBX 23 21 1 0
BITMAP
ff000e
c7801c
638030
33c060
31e0c0
18f180
0c7300
047e00
063c00
031c00
011e00
018f00
00c780
01e780
0363c0
0631e0
0c19f0
1808f0
300c78
60063c
c003fe
ENDCHAR
STARTCHAR DoubleCapY
ENCODING 89
SWIDTH 651 0
DWIDTH 21 0
BBX 18 21 1 0
BITMAP
ff80c0
638180
33c300
31c300
19e600
08fc00
047c00
067800
023000
013000
00e000
006000
006000
006000
006000
006000
006000
006000
006000
006000
006000
ENDCHAR
STARTCHAR DoubleCapZ
ENCODING 90
SWIDTH 750 0
DWIDTH 24 0
BBX 22 21 0 0
BITMAP
3ffffc
000788
000f18
000f30
001e20
003c60
003cc0
007980
00f100
00f300
01e600
03c400
038c00
079800
0f1000
1e2000
1e6000
3c4000
788000
798000
fffffc
ENDCHAR
STARTCHAR bracketleft
ENCODING 91
SWIDTH 263 0
DWIDTH 8 0
BBX 0 0 0 0
BITMAP
ENDCHAR
STARTCHAR backslash
ENCODING 92
SWIDTH 263 0
DWIDTH 8 0
BBX 0 0 0 0
BITMAP
ENDCHAR
STARTCHAR bracketright
ENCODING 93
SWIDTH 263 0
DWIDTH 8 0
BBX 0 0 0 0
BITMAP
ENDCHAR
STARTCHAR asciicircum
ENCODING 94
SWIDTH 263 0
DWIDTH 8 0
BBX 0 0 0 0
BITMAP
ENDCHAR
STARTCHAR underscore
ENCODING 95
SWIDTH 263 0
DWIDTH 8 0
BBX 0 0 0 0
BITMAP
ENDCHAR
STARTCHAR grave
ENCODING 96
SWIDTH 263 0
DWIDTH 8 0
BBX 0 0 0 0
BITMAP
ENDCHAR
STARTCHAR DoubleA
ENCODING 97
SWIDTH 589 0
DWIDTH 19 0
BBX 18 15 0 0
BITMAP
0fc000
31f000
70d800
70ec00
60e400
00e400
07e400
18e400
30e400
60e400
e0e400
e0e440
f1e580
7eff00
383c00
ENDCHAR
STARTCHAR DoubleB
ENCODING 98
SWIDTH 605 0
DWIDTH 19 0
BBX 17 22 0 0
BITMAP
030000
ff0000
270000
270000
270000
270000
270000
273c00
277e00
278f00
270700
270780
270380
270380
270380
270380
270380
270300
270700
270600
1f8c00
03f000
ENDCHAR
STARTCHAR DoubleC
ENCODING 99
SWIDTH 460 0
DWIDTH 15 0
BBX 12 15 1 0
BITMAP
0f00
39c0
28e0
68e0
4840
c800
c800
c800
c800
c800
e810
7820
78c0
3f80
1e00
ENDCHAR
STARTCHAR DoubleD
ENCODING 100
SWIDTH 591 0
DWIDTH 19 0
BBX 18 22 0 0
BITMAP
000300
00fd00
003900
003900
003900
003900
003900
07b900
187900
307900
703900
603900
e03900
e03900
e03900
e03900
e03900
f03900
703900
3c7fc0
3fbe00
0f3000
ENDCHAR
STARTCHAR DoubleE
ENCODING 101
SWIDTH 477 0
DWIDTH 15 0
BBX 13 15 0 0
BITMAP
0f80
39c0
28e0
4870
4870
cff0
c800
c800
c800
e800
e808
7810
7860
3fc0
1f00
ENDCHAR
STARTCHAR DoubleF
ENCODING 102
SWIDTH 528 0
DWIDTH 17 0
BBX 15 22 0 0
BITMAP
00fc
03ce
0786
0b80
0b80
1380
1380
1380
f3f8
1380
1380
1380
1380
1380
1380
1380
1380
1380
1380
1380
1380
1f80
ENDCHAR
STARTCHAR DoubleG
ENCODING 103
SWIDTH 515 0
DWIDTH 16 0
BBX 14 21 0 -7
BITMAP
0f80
14fc
2470
6430
6430
6430
3430
1c60
0f80
0800
1000
3800
3ff0
1ff8
340c
4404
c404
c408
f430
7fe0
1f80
ENDCHAR
STARTCHAR DoubleH
ENCODING 104
SWIDTH 609 0
DWIDTH 19 0
BBX 17 22 0 0
BITMAP
030000
3f0000
e70000
270000
270000
270000
270000
271e00
277f00
27c700
270380
270380
270380
270380
270380
270380
270380
270380
270380
270380
270380
3f0380
ENDCHAR
STARTCHAR DoubleI
ENCODING 105
SWIDTH 345 0
DWIDTH 11 0
BBX 8 22 0 0
BITMAP
06
07
06
00
00
00
00
01
0f
f9
39
39
39
39
39
39
39
39
39
39
39
3f
ENDCHAR
STARTCHAR DoubleJ
ENCODING 106
SWIDTH 457 0
DWIDTH 15 0
BBX 11 29 1 -7
BITMAP
01c0
01c0
01c0
0000
0000
0000
0000
0020
01e0
1f20
0720
0720
0720
0720
0720
0720
0720
0720
0720
0720
0720
0720
0720
0720
0720
0740
c7c0
ef80
7e00
ENDCHAR
STARTCHAR DoubleK
ENCODING 107
SWIDTH 608 0
DWIDTH 19 0
BBX 18 22 0 0
BITMAP
018000
3f8000
f38000
138000
138000
138000
138000
138080
138100
138200
138400
139800
13b000
13f000
13f000
13b800
139c00
138e00
138f00
138700
138380
1f81c0
ENDCHAR
STARTCHAR DoubleL
ENCODING 108
SWIDTH 357 0
DWIDTH 11 0
BBX 8 22 0 0
BITMAP
03
3f
f9
39
39
39
39
39
39
39
39
39
39
39
39
39
39
39
39
39
39
3f
ENDCHAR
STARTCHAR DoubleM
ENCODING 109
SWIDTH 839 0
DWIDTH 27 0
BBX 24 15 0 0
BITMAP
033c3c
1f7e7e
f98e8e
390707
390707
390707
390707
390707
390707
390707
390707
390707
390707
390707
3f0707
ENDCHAR
STARTCHAR DoubleN
ENCODING 110
SWIDTH 581 0
DWIDTH 19 0
BBX 16 15 0 0
BITMAP
033c
3f7e
f98f
3907
3907
3907
3907
3907
3907
3907
3907
3907
3907
3907
3f07
ENDCHAR
STARTCHAR DoubleO
ENCODING 111
SWIDTH 526 0
DWIDTH 17 0
BBX 14 15 0 0
BITMAP
0f80
1ce0
3470
6438
6438
e41c
e41c
e41c
e41c
e41c
7418
7438
3c30
1c60
0f80
ENDCHAR
STARTCHAR DoubleP
ENCODING 112
SWIDTH 648 0
DWIDTH 21 0
BBX 17 22 1 -7
BITMAP
0e7c00
fefe00
2f8f00
2e0700
2e0780
2e0380
2e0380
2e0380
2e0380
2e0380
2e0380
2e0300
2e0600
2f0c00
2ef800
2e0000
2e0000
2e0000
2e0000
2e0000
3e0000
3e0000
ENDCHAR
STARTCHAR DoubleQ
ENCODING 113
SWIDTH 593 0
DWIDTH 19 0
BBX 16 22 0 -7
BITMAP
0781
1c7f
3839
3039
7039
7039
6039
e039
7039
7039
7039
7839
3c79
3fb9
0f39
0039
0039
0039
0039
0039
003f
003f
ENDCHAR
STARTCHAR DoubleR
ENCODING 114
SWIDTH 495 0
DWIDTH 16 0
BBX 13 15 1 0
BITMAP
0338
1f78
f798
2700
2700
2700
2700
2700
2700
2700
2700
2700
2700
2700
3f00
ENDCHAR
STARTCHAR DoubleS
ENCODING 115
SWIDTH 452 0
DWIDTH 14 0
BBX 12 15 0 0
BITMAP
1f80
6c40
cc20
8c30
8e10
4700
6380
31e0
0c60
0670
8330
c130
6130
7160
1f80
ENDCHAR
STARTCHAR DoubleT
ENCODING 116
SWIDTH 416 0
DWIDTH 13 0
BBX 12 19 0 0
BITMAP
0100
0300
0700
0f00
1700
27e0
e700
2700
2700
2700
2700
2700
2700
2700
2700
2700
2710
13e0
1f80
ENDCHAR
STARTCHAR DoubleU
ENCODING 117
SWIDTH 545 0
DWIDTH 17 0
BBX 17 15 0 0
BITMAP
e07e00
e07200
e07200
e07200
e07200
e07200
e07200
e07200
e07200
e07200
e07200
e07200
f1f380
7f7e00
3c6000
ENDCHAR
STARTCHAR DoubleV
ENCODING 118
SWIDTH 502 0
DWIDTH 16 0
BBX 13 14 1 0
BITMAP
fc08
ce18
4e10
6730
2720
2360
33c0
1180
1980
0900
0d00
0600
0600
0200
ENDCHAR
STARTCHAR DoubleW
ENCODING 119
SWIDTH 742 0
DWIDTH 24 0
BBX 20 14 1 0
BITMAP
fc3030
8c3030
4e7030
4e5860
67d860
279c40
338cc0
138cc0
110f80
190780
0b0700
0e0700
060200
040200
ENDCHAR
STARTCHAR DoubleX
ENCODING 120
SWIDTH 571 0
DWIDTH 18 0
BBX 17 14 1 0
BITMAP
fe0300
470600
678c00
339800
11f000
08e000
0cf000
067000
063800
0d1c00
199e00
30ce00
604700
c03f80
ENDCHAR
STARTCHAR DoubleY
ENCODING 121
SWIDTH 506 0
DWIDTH 16 0
BBX 13 21 1 -7
BITMAP
fc08
ce08
4e10
6710
2730
3320
13a0
13e0
09c0
09c0
0480
0480
0680
0300
0300
0300
0200
0600
fc00
f800
7000
ENDCHAR
STARTCHAR DoubleZ
ENCODING 122
SWIDTH 574 0
DWIDTH 18 0
BBX 16 14 1 0
BITMAP
ffff
00e6
01c4
01c8
0398
0710
0f20
0e60
1c40
3c80
3980
7100
f200
fffe
ENDCHAR
STARTCHAR braceleft
ENCODING 123
SWIDTH 263 0
DWIDTH 8 0
BBX 0 0 0 0
BITMAP
ENDCHAR
STARTCHAR bar
ENCODING 124
SWIDTH 263 0
DWIDTH 8 0
BBX 0 0 0 0
BITMAP
ENDCHAR
STARTCHAR braceright
ENCODING 125
SWIDTH 263 0
DWIDTH 8 0
BBX 0 0 0 0
BITMAP
ENDCHAR
STARTCHAR asciitilde
ENCODING 126
SWIDTH 263 0
DWIDTH 8 0
BBX 0 0 0 0
BITMAP
ENDCHAR
STARTCHAR DEL
ENCODING 127
SWIDTH 263 0
DWIDTH 8 0
BBX 0 0 0 0
BITMAP
ENDCHAR
STARTCHAR Adieresis
ENCODING 128
SWIDTH 263 0
DWIDTH 8 0
BBX 0 0 0 0
BITMAP
ENDCHAR
STARTCHAR Aring
ENCODING 129
SWIDTH 263 0
DWIDTH 8 0
BBX 0 0 0 0
BITMAP
ENDCHAR
STARTCHAR Ccedilla
ENCODING 130
SWIDTH 263 0
DWIDTH 8 0
BBX 0 0 0 0
BITMAP
ENDCHAR
STARTCHAR Eacute
ENCODING 131
SWIDTH 263 0
DWIDTH 8 0
BBX 0 0 0 0
BITMAP
ENDCHAR
STARTCHAR Ntilde
ENCODING 132
SWIDTH 263 0
DWIDTH 8 0
BBX 0 0 0 0
BITMAP
ENDCHAR
STARTCHAR Odieresis
ENCODING 133
SWIDTH 263 0
DWIDTH 8 0
BBX 0 0 0 0
BITMAP
ENDCHAR
STARTCHAR Udieresis
ENCODING 134
SWIDTH 263 0
DWIDTH 8 0
BBX 0 0 0 0
BITMAP
ENDCHAR
STARTCHAR aacute
ENCODING 135
SWIDTH 263 0
DWIDTH 8 0
BBX 0 0 0 0
BITMAP
ENDCHAR
STARTCHAR agrave
ENCODING 136
SWIDTH 263 0
DWIDTH 8 0
BBX 0 0 0 0
BITMAP
ENDCHAR
STARTCHAR acircumflex
ENCODING 137
SWIDTH 263 0
DWIDTH 8 0
BBX 0 0 0 0
BITMAP
ENDCHAR
STARTCHAR adieresis
ENCODING 138
SWIDTH 263 0
DWIDTH 8 0
BBX 0 0 0 0
BITMAP
ENDCHAR
STARTCHAR atilde
ENCODING 139
SWIDTH 263 0
DWIDTH 8 0
BBX 0 0 0 0
BITMAP
ENDCHAR
STARTCHAR aring
ENCODING 140
SWIDTH 263 0
DWIDTH 8 0
BBX 0 0 0 0
BITMAP
ENDCHAR
STARTCHAR ccedilla
ENCODING 141
SWIDTH 263 0
DWIDTH 8 0
BBX 0 0 0 0
BITMAP
ENDCHAR
STARTCHAR eacute
ENCODING 142
SWIDTH 263 0
DWIDTH 8 0
BBX 0 0 0 0
BITMAP
ENDCHAR
STARTCHAR egrave
ENCODING 143
SWIDTH 263 0
DWIDTH 8 0
BBX 0 0 0 0
BITMAP
ENDCHAR
STARTCHAR ecircumflex
ENCODING 144
SWIDTH 263 0
DWIDTH 8 0
BBX 0 0 0 0
BITMAP
ENDCHAR
STARTCHAR edieresis
ENCODING 145
SWIDTH 263 0
DWIDTH 8 0
BBX 0 0 0 0
BITMAP
ENDCHAR
STARTCHAR iacute
ENCODING 146
SWIDTH 263 0
DWIDTH 8 0
BBX 0 0 0 0
BITMAP
ENDCHAR
STARTCHAR igrave
ENCODING 147
SWIDTH 263 0
DWIDTH 8 0
BBX 0 0 0 0
BITMAP
ENDCHAR
STARTCHAR icircumflex
ENCODING 148
SWIDTH 263 0
DWIDTH 8 0
BBX 0 0 0 0
BITMAP
ENDCHAR
STARTCHAR idieresis
ENCODING 149
SWIDTH 263 0
DWIDTH 8 0
BBX 0 0 0 0
BITMAP
ENDCHAR
STARTCHAR ntilde
ENCODING 150
SWIDTH 263 0
DWIDTH 8 0
BBX 0 0 0 0
BITMAP
ENDCHAR
STARTCHAR oacute
ENCODING 151
SWIDTH 263 0
DWIDTH 8 0
BBX 0 0 0 0
BITMAP
ENDCHAR
STARTCHAR ograve
ENCODING 152
SWIDTH 263 0
DWIDTH 8 0
BBX 0 0 0 0
BITMAP
ENDCHAR
STARTCHAR ocircumflex
ENCODING 153
SWIDTH 263 0
DWIDTH 8 0
BBX 0 0 0 0
BITMAP
ENDCHAR
STARTCHAR odieresis
ENCODING 154
SWIDTH 263 0
DWIDTH 8 0
BBX 0 0 0 0
BITMAP
ENDCHAR
STARTCHAR otilde
ENCODING 155
SWIDTH 263 0
DWIDTH 8 0
BBX 0 0 0 0
BITMAP
ENDCHAR
STARTCHAR uacute
ENCODING 156
SWIDTH 263 0
DWIDTH 8 0
BBX 0 0 0 0
BITMAP
ENDCHAR
STARTCHAR ugrave
ENCODING 157
SWIDTH 263 0
DWIDTH 8 0
BBX 0 0 0 0
BITMAP
ENDCHAR
STARTCHAR ucircumflex
ENCODING 158
SWIDTH 263 0
DWIDTH 8 0
BBX 0 0 0 0
BITMAP
ENDCHAR
STARTCHAR udieresis
ENCODING 159
SWIDTH 263 0
DWIDTH 8 0
BBX 0 0 0 0
BITMAP
ENDCHAR
STARTCHAR dagger
ENCODING 160
SWIDTH 263 0
DWIDTH 8 0
BBX 0 0 0 0
BITMAP
ENDCHAR
STARTCHAR degree
ENCODING 161
SWIDTH 263 0
DWIDTH 8 0
BBX 0 0 0 0
BITMAP
ENDCHAR
STARTCHAR cent
ENCODING 162
SWIDTH 263 0
DWIDTH 8 0
BBX 0 0 0 0
BITMAP
ENDCHAR
STARTCHAR sterling
ENCODING 163
SWIDTH 263 0
DWIDTH 8 0
BBX 0 0 0 0
BITMAP
ENDCHAR
STARTCHAR section
ENCODING 164
SWIDTH 263 0
DWIDTH 8 0
BBX 0 0 0 0
BITMAP
ENDCHAR
STARTCHAR bullet
ENCODING 165
SWIDTH 263 0
DWIDTH 8 0
BBX 0 0 0 0
BITMAP
ENDCHAR
STARTCHAR paragraph
ENCODING 166
SWIDTH 263 0
DWIDTH 8 0
BBX 0 0 0 0
BITMAP
ENDCHAR
STARTCHAR germandbls
ENCODING 167
SWIDTH 263 0
DWIDTH 8 0
BBX 0 0 0 0
BITMAP
ENDCHAR
STARTCHAR registered
ENCODING 168
SWIDTH 263 0
DWIDTH 8 0
BBX 0 0 0 0
BITMAP
ENDCHAR
STARTCHAR copyright
ENCODING 169
SWIDTH 263 0
DWIDTH 8 0
BBX 0 0 0 0
BITMAP
ENDCHAR
STARTCHAR trademark
ENCODING 170
SWIDTH 263 0
DWIDTH 8 0
BBX 0 0 0 0
BITMAP
ENDCHAR
STARTCHAR acute
ENCODING 171
SWIDTH 263 0
DWIDTH 8 0
BBX 0 0 0 0
BITMAP
ENDCHAR
STARTCHAR dieresis
ENCODING 172
SWIDTH 263 0
DWIDTH 8 0
BBX 0 0 0 0
BITMAP
ENDCHAR
STARTCHAR notequal
ENCODING 173
SWIDTH 263 0
DWIDTH 8 0
BBX 0 0 0 0
BITMAP
ENDCHAR
STARTCHAR AE
ENCODING 174
SWIDTH 263 0
DWIDTH 8 0
BBX 0 0 0 0
BITMAP
ENDCHAR
STARTCHAR Oslash
ENCODING 175
SWIDTH 263 0
DWIDTH 8 0
BBX 0 0 0 0
BITMAP
ENDCHAR
STARTCHAR infinity
ENCODING 176
SWIDTH 263 0
DWIDTH 8 0
BBX 0 0 0 0
BITMAP
ENDCHAR
STARTCHAR plusminus
ENCODING 177
SWIDTH 263 0
DWIDTH 8 0
BBX 0 0 0 0
BITMAP
ENDCHAR
STARTCHAR lessequal
ENCODING 178
SWIDTH 263 0
DWIDTH 8 0
BBX 0 0 0 0
BITMAP
ENDCHAR
STARTCHAR greaterequal
ENCODING 179
SWIDTH 263 0
DWIDTH 8 0
BBX 0 0 0 0
BITMAP
ENDCHAR
STARTCHAR yen
ENCODING 180
SWIDTH 263 0
DWIDTH 8 0
BBX 0 0 0 0
BITMAP
ENDCHAR
STARTCHAR mu
ENCODING 181
SWIDTH 263 0
DWIDTH 8 0
BBX 0 0 0 0
BITMAP
ENDCHAR
STARTCHAR partialdiff
ENCODING 182
SWIDTH 263 0
DWIDTH 8 0
BBX 0 0 0 0
BITMAP
ENDCHAR
STARTCHAR summation
ENCODING 183
SWIDTH 263 0
DWIDTH 8 0
BBX 0 0 0 0
BITMAP
ENDCHAR
STARTCHAR product
ENCODING 184
SWIDTH 263 0
DWIDTH 8 0
BBX 0 0 0 0
BITMAP
ENDCHAR
STARTCHAR pi
ENCODING 185
SWIDTH 263 0
DWIDTH 8 0
BBX 0 0 0 0
BITMAP
ENDCHAR
STARTCHAR integral
ENCODING 186
SWIDTH 263 0
DWIDTH 8 0
BBX 0 0 0 0
BITMAP
ENDCHAR
STARTCHAR ordfeminine
ENCODING 187
SWIDTH 263 0
DWIDTH 8 0
BBX 0 0 0 0
BITMAP
ENDCHAR
STARTCHAR ordmasculine
ENCODING 188
SWIDTH 263 0
DWIDTH 8 0
BBX 0 0 0 0
BITMAP
ENDCHAR
STARTCHAR Omega
ENCODING 189
SWIDTH 263 0
DWIDTH 8 0
BBX 0 0 0 0
BITMAP
ENDCHAR
STARTCHAR ae
ENCODING 190
SWIDTH 263 0
DWIDTH 8 0
BBX 0 0 0 0
BITMAP
ENDCHAR
STARTCHAR oslash
ENCODING 191
SWIDTH 263 0
DWIDTH 8 0
BBX 0 0 0 0
BITMAP
ENDCHAR
STARTCHAR questiondown
ENCODING 192
SWIDTH 263 0
DWIDTH 8 0
BBX 0 0 0 0
BITMAP
ENDCHAR
STARTCHAR exclamdown
ENCODING 193
SWIDTH 263 0
DWIDTH 8 0
BBX 0 0 0 0
BITMAP
ENDCHAR
STARTCHAR logicalnot
ENCODING 194
SWIDTH 263 0
DWIDTH 8 0
BBX 0 0 0 0
BITMAP
ENDCHAR
STARTCHAR radical
ENCODING 195
SWIDTH 263 0
DWIDTH 8 0
BBX 0 0 0 0
BITMAP
ENDCHAR
STARTCHAR florin
ENCODING 196
SWIDTH 263 0
DWIDTH 8 0
BBX 0 0 0 0
BITMAP
ENDCHAR
STARTCHAR approxequal
ENCODING 197
SWIDTH 263 0
DWIDTH 8 0
BBX 0 0 0 0
BITMAP
ENDCHAR
STARTCHAR Delta
ENCODING 198
SWIDTH 263 0
DWIDTH 8 0
BBX 0 0 0 0
BITMAP
ENDCHAR
STARTCHAR guillemotleft
ENCODING 199
SWIDTH 263 0
DWIDTH 8 0
BBX 0 0 0 0
BITMAP
ENDCHAR
STARTCHAR guillemotright
ENCODING 200
SWIDTH 263 0
DWIDTH 8 0
BBX 0 0 0 0
BITMAP
ENDCHAR
STARTCHAR ellipsis
ENCODING 201
SWIDTH 263 0
DWIDTH 8 0
BBX 0 0 0 0
BITMAP
ENDCHAR
STARTCHAR nbspace
ENCODING 202
SWIDTH 263 0
DWIDTH 8 0
BBX 0 0 0 0
BITMAP
ENDCHAR
STARTCHAR Agrave
ENCODING 203
SWIDTH 263 0
DWIDTH 8 0
BBX 0 0 0 0
BITMAP
ENDCHAR
STARTCHAR Atilde
ENCODING 204
SWIDTH 263 0
DWIDTH 8 0
BBX 0 0 0 0
BITMAP
ENDCHAR
STARTCHAR Otilde
ENCODING 205
SWIDTH 263 0
DWIDTH 8 0
BBX 0 0 0 0
BITMAP
ENDCHAR
STARTCHAR OE
ENCODING 206
SWIDTH 263 0
DWIDTH 8 0
BBX 0 0 0 0
BITMAP
ENDCHAR
STARTCHAR oe
ENCODING 207
SWIDTH 263 0
DWIDTH 8 0
BBX 0 0 0 0
BITMAP
ENDCHAR
STARTCHAR endash
ENCODING 208
SWIDTH 263 0
DWIDTH 8 0
BBX 0 0 0 0
BITMAP
ENDCHAR
STARTCHAR emdash
ENCODING 209
SWIDTH 263 0
DWIDTH 8 0
BBX 0 0 0 0
BITMAP
ENDCHAR
STARTCHAR quotedblleft
ENCODING 210
SWIDTH 263 0
DWIDTH 8 0
BBX 0 0 0 0
BITMAP
ENDCHAR
STARTCHAR quotedblright
ENCODING 211
SWIDTH 263 0
DWIDTH 8 0
BBX 0 0 0 0
BITMAP
ENDCHAR
STARTCHAR quoteleft
ENCODING 212
SWIDTH 263 0
DWIDTH 8 0
BBX 0 0 0 0
BITMAP
ENDCHAR
STARTCHAR quoteright
ENCODING 213
SWIDTH 263 0
DWIDTH 8 0
BBX 0 0 0 0
BITMAP
ENDCHAR
STARTCHAR divide
ENCODING 214
SWIDTH 263 0
DWIDTH 8 0
BBX 0 0 0 0
BITMAP
ENDCHAR
STARTCHAR lozenge
ENCODING 215
SWIDTH 263 0
DWIDTH 8 0
BBX 0 0 0 0
BITMAP
ENDCHAR
STARTCHAR ydieresis
ENCODING 216
SWIDTH 263 0
DWIDTH 8 0
BBX 0 0 0 0
BITMAP
ENDCHAR
STARTCHAR Ydieresis
ENCODING 217
SWIDTH 263 0
DWIDTH 8 0
BBX 0 0 0 0
BITMAP
ENDCHAR
STARTCHAR fraction
ENCODING 218
SWIDTH 263 0
DWIDTH 8 0
BBX 0 0 0 0
BITMAP
ENDCHAR
STARTCHAR currency
ENCODING 219
SWIDTH 263 0
DWIDTH 8 0
BBX 0 0 0 0
BITMAP
ENDCHAR
STARTCHAR guilsinglleft
ENCODING 220
SWIDTH 263 0
DWIDTH 8 0
BBX 0 0 0 0
BITMAP
ENDCHAR
STARTCHAR guilsinglright
ENCODING 221
SWIDTH 263 0
DWIDTH 8 0
BBX 0 0 0 0
BITMAP
ENDCHAR
STARTCHAR fi
ENCODING 222
SWIDTH 263 0
DWIDTH 8 0
BBX 0 0 0 0
BITMAP
ENDCHAR
STARTCHAR fl
ENCODING 223
SWIDTH 263 0
DWIDTH 8 0
BBX 0 0 0 0
BITMAP
ENDCHAR
STARTCHAR daggerdbl
ENCODING 224
SWIDTH 263 0
DWIDTH 8 0
BBX 0 0 0 0
BITMAP
ENDCHAR
STARTCHAR periodcentered
ENCODING 225
SWIDTH 263 0
DWIDTH 8 0
BBX 0 0 0 0
BITMAP
ENDCHAR
STARTCHAR quotesinglbase
ENCODING 226
SWIDTH 263 0
DWIDTH 8 0
BBX 0 0 0 0
BITMAP
ENDCHAR
STARTCHAR quotedblbase
ENCODING 227
SWIDTH 263 0
DWIDTH 8 0
BBX 0 0 0 0
BITMAP
ENDCHAR
STARTCHAR perthousand
ENCODING 228
SWIDTH 263 0
DWIDTH 8 0
BBX 0 0 0 0
BITMAP
ENDCHAR
STARTCHAR Acircumflex
ENCODING 229
SWIDTH 263 0
DWIDTH 8 0
BBX 0 0 0 0
BITMAP
ENDCHAR
STARTCHAR Ecircumflex
ENCODING 230
SWIDTH 263 0
DWIDTH 8 0
BBX 0 0 0 0
BITMAP
ENDCHAR
STARTCHAR Aacute
ENCODING 231
SWIDTH 263 0
DWIDTH 8 0
BBX 0 0 0 0
BITMAP
ENDCHAR
STARTCHAR Edieresis
ENCODING 232
SWIDTH 263 0
DWIDTH 8 0
BBX 0 0 0 0
BITMAP
ENDCHAR
STARTCHAR Egrave
ENCODING 233
SWIDTH 263 0
DWIDTH 8 0
BBX 0 0 0 0
BITMAP
ENDCHAR
STARTCHAR Iacute
ENCODING 234
SWIDTH 263 0
DWIDTH 8 0
BBX 0 0 0 0
BITMAP
ENDCHAR
STARTCHAR Icircumflex
ENCODING 235
SWIDTH 263 0
DWIDTH 8 0
BBX 0 0 0 0
BITMAP
ENDCHAR
STARTCHAR Idieresis
ENCODING 236
SWIDTH 263 0
DWIDTH 8 0
BBX 0 0 0 0
BITMAP
ENDCHAR
STARTCHAR Igrave
ENCODING 237
SWIDTH 263 0
DWIDTH 8 0
BBX 0 0 0 0
BITMAP
ENDCHAR
STARTCHAR Oacute
ENCODING 238
SWIDTH 263 0
DWIDTH 8 0
BBX 0 0 0 0
BITMAP
ENDCHAR
STARTCHAR Ocircumflex
ENCODING 239
SWIDTH 263 0
DWIDTH 8 0
BBX 0 0 0 0
BITMAP
ENDCHAR
STARTCHAR apple
ENCODING 240
SWIDTH 263 0
DWIDTH 8 0
BBX 0 0 0 0
BITMAP
ENDCHAR
STARTCHAR Ograve
ENCODING 241
SWIDTH 263 0
DWIDTH 8 0
BBX 0 0 0 0
BITMAP
ENDCHAR
STARTCHAR Uacute
ENCODING 242
SWIDTH 263 0
DWIDTH 8 0
BBX 0 0 0 0
BITMAP
ENDCHAR
STARTCHAR Ucircumflex
ENCODING 243
SWIDTH 263 0
DWIDTH 8 0
BBX 0 0 0 0
BITMAP
ENDCHAR
STARTCHAR Ugrave
ENCODING 244
SWIDTH 263 0
DWIDTH 8 0
BBX 0 0 0 0
BITMAP
ENDCHAR
STARTCHAR dotlessi
ENCODING 245
SWIDTH 263 0
DWIDTH 8 0
BBX 0 0 0 0
BITMAP
ENDCHAR
STARTCHAR circumflex
ENCODING 246
SWIDTH 263 0
DWIDTH 8 0
BBX 0 0 0 0
BITMAP
ENDCHAR
STARTCHAR tilde
ENCODING 247
SWIDTH 263 0
DWIDTH 8 0
BBX 0 0 0 0
BITMAP
ENDCHAR
STARTCHAR macron
ENCODING 248
SWIDTH 263 0
DWIDTH 8 0
BBX 0 0 0 0
BITMAP
ENDCHAR
STARTCHAR breve
ENCODING 249
SWIDTH 263 0
DWIDTH 8 0
BBX 0 0 0 0
BITMAP
ENDCHAR
STARTCHAR dotaccent
ENCODING 250
SWIDTH 263 0
DWIDTH 8 0
BBX 0 0 0 0
BITMAP
ENDCHAR
STARTCHAR ring
ENCODING 251
SWIDTH 263 0
DWIDTH 8 0
BBX 0 0 0 0
BITMAP
ENDCHAR
STARTCHAR cedilla
ENCODING 252
SWIDTH 263 0
DWIDTH 8 0
BBX 0 0 0 0
BITMAP
ENDCHAR
STARTCHAR hungarumlaut
ENCODING 253
SWIDTH 263 0
DWIDTH 8 0
BBX 0 0 0 0
BITMAP
ENDCHAR
STARTCHAR ogonek
ENCODING 254
SWIDTH 263 0
DWIDTH 8 0
BBX 0 0 0 0
BITMAP
ENDCHAR
STARTCHAR caron
ENCODING 255
SWIDTH 263 0
DWIDTH 8 0
BBX 0 0 0 0
BITMAP
ENDCHAR
ENDFONT
