STARTFONT 2.1
FONT -WRI-Mathematica5Mono-Medium-R-Normal--24-240-75-75-M-120-Adobe-FontSpecific
SIZE 24 75 75
FONTBOUNDINGBOX 61 50 -2 -20
STARTPROPERTIES 16
FOUNDRY "WRI"
FAMILY_NAME "Mathematica5Mono"
WEIGHT_NAME "Medium"
SLANT "R"
SETWIDTH_NAME "Normal"
PIXEL_SIZE 24
POINT_SIZE 240
RESOLUTION_X 75
RESOLUTION_Y 75
SPACING "M"
AVERAGE_WIDTH 120
CHARSET_REGISTRY "Adobe"
CHARSET_ENCODING "FontSpecific"
FONT_DESCENT 20
FONT_ASCENT 30
DEFAULT_CHAR 32
ENDPROPERTIES
CHARS 228
STARTCHAR Villa
ENCODING 1
SWIDTH 627 0
DWIDTH 15 0
BBX 15 20 0 -3
BITMAP
0138
02a8
0468
0ba8
1298
2388
4004
bffa
2008
2388
2548
27c8
2448
2648
2448
3ff8
0420
0be0
1020
2f90
ENDCHAR
STARTCHAR Kooz
ENCODING 2
SWIDTH 746 0
DWIDTH 18 0
BBX 18 21 0 -3
BITMAP
010000
09e000
063000
7bd000
04be00
180800
036c00
080800
4a1000
29d700
5c2080
27c040
640040
9828c0
88aa00
e85480
290040
28c040
280840
080400
100380
ENDCHAR
STARTCHAR Andy
ENCODING 3
SWIDTH 1000 0
DWIDTH 24 0
BBX 16 17 4 0
BITMAP
0180
0180
0100
0100
010c
c1f0
ff20
0920
07c0
00c0
0040
00c0
0300
0600
0c01
0c0e
07f0
ENDCHAR
STARTCHAR Spooky
ENCODING 4
SWIDTH 535 0
DWIDTH 13 0
BBX 14 15 0 0
BITMAP
0020
2020
3060
18a0
1720
9020
5fe4
3b78
f7a0
213c
6220
28b8
1740
2020
1040
ENDCHAR
STARTCHAR space
ENCODING 32
SWIDTH 263 0
DWIDTH 6 0
BBX 0 0 0 0
BITMAP
ENDCHAR
STARTCHAR BckspcKey
ENCODING 33
SWIDTH 1981 0
DWIDTH 48 0
BBX 44 18 2 -3
BITMAP
fffffffffff0
800000000010
800000000010
800000000010
be3c84e7c710
a14289142890
a14291042890
a140a0842810
be40c0442810
a140c027c810
a140a0140810
a14292140890
a1428a140890
be3c85e40710
800000000010
800000000010
800000000010
fffffffffff0
ENDCHAR
STARTCHAR HomeKey
ENCODING 34
SWIDTH 1603 0
DWIDTH 38 0
BBX 35 18 1 -3
BITMAP
ffffffffe0
8000000020
8000000020
8000000020
909f202fa0
90a0b06820
90a0b06820
90a0a8a820
9fa0a8afa0
90a0a8a820
90a0a52820
90a0a72820
90a0a22820
909f222fa0
8000000020
8000000020
8000000020
ffffffffe0
ENDCHAR
STARTCHAR PgupKey
ENCODING 35
SWIDTH 1444 0
DWIDTH 35 0
BBX 32 18 1 -3
BITMAP
ffffffff
80000001
80000001
80000001
9e3c82f1
91428289
91428289
91408289
91408289
9e4e82f1
90428281
90428281
90428281
903e7c81
80000001
80000001
80000001
ffffffff
ENDCHAR
STARTCHAR PgdwnKey
ENCODING 36
SWIDTH 1999 0
DWIDTH 48 0
BBX 44 18 2 -3
BITMAP
fffffffffff0
800000000010
800000000010
800000000010
bc78f9085850
a28485085850
a28085145450
a28085149450
a28084b69250
bc9c84a29250
a08484a29150
a08484411150
a084844110d0
a07cf84110d0
800000000010
800000000010
800000000010
fffffffffff0
ENDCHAR
STARTCHAR EndKey
ENCODING 37
SWIDTH 1187 0
DWIDTH 28 0
BBX 25 18 1 -3
BITMAP
ffffff80
80000080
80000080
80000080
9e427c80
90624280
90524280
90524280
9e524280
904a4280
904a4280
90464280
90464280
9e427c80
80000080
80000080
80000080
ffffff80
ENDCHAR
STARTCHAR FilledHeart
ENCODING 38
SWIDTH 605 0
DWIDTH 15 0
BBX 13 13 1 0
BITMAP
38e0
7df0
fff8
fff8
fff8
7ff0
7ff0
3fe0
1fc0
0f80
0700
0200
0200
ENDCHAR
STARTCHAR Euro
ENCODING 39
SWIDTH 600 0
DWIDTH 14 0
BBX 12 14 1 0
BITMAP
0790
1850
3030
2010
4010
4000
ffc0
4000
ff80
4000
6000
2000
3030
0fc0
ENDCHAR
STARTCHAR CapitalOE
ENCODING 40
SWIDTH 600 0
DWIDTH 14 0
BBX 14 14 0 0
BITMAP
0ffc
3104
6104
4104
8100
8120
81e0
8120
8100
8100
4104
6104
3104
0ffc
ENDCHAR
STARTCHAR OE
ENCODING 41
SWIDTH 600 0
DWIDTH 14 0
BBX 12 11 1 0
BITMAP
30c0
4920
8610
8410
8410
87f0
8400
8400
8600
4a00
31f0
ENDCHAR
STARTCHAR ABar
ENCODING 42
SWIDTH 600 0
DWIDTH 14 0
BBX 12 14 1 0
BITMAP
7fc0
0000
0000
1f00
6080
0040
0040
1fc0
6040
c040
8040
80c0
4340
3c70
ENDCHAR
STARTCHAR ACup
ENCODING 43
SWIDTH 600 0
DWIDTH 14 0
BBX 12 15 1 0
BITMAP
30c0
1980
0600
0000
1f00
6080
0040
0040
1fc0
6040
c040
8040
80c0
4340
3c70
ENDCHAR
STARTCHAR CapitalABar
ENCODING 44
SWIDTH 600 0
DWIDTH 14 0
BBX 14 17 0 0
BITMAP
1fe0
0000
0000
1f00
0300
0280
0480
0480
0840
0840
1860
1020
1fe0
2010
2010
4008
f87c
ENDCHAR
STARTCHAR CapitalACup
ENCODING 45
SWIDTH 600 0
DWIDTH 14 0
BBX 14 18 0 0
BITMAP
1860
0cc0
0300
0000
1f00
0300
0280
0480
0480
0840
0840
1860
1020
1fe0
2010
2010
4008
f87c
ENDCHAR
STARTCHAR CAcute
ENCODING 46
SWIDTH 600 0
DWIDTH 14 0
BBX 11 16 2 0
BITMAP
0180
0300
0600
0c00
0000
1f20
30c0
4040
8020
8000
8000
8000
8000
4020
20c0
1f00
ENDCHAR
STARTCHAR CHacek
ENCODING 47
SWIDTH 600 0
DWIDTH 14 0
BBX 11 16 2 0
BITMAP
4080
2100
1200
0c00
0000
1f20
30c0
4040
8020
8000
8000
8000
8000
4020
20c0
1f00
ENDCHAR
STARTCHAR ScriptZero
ENCODING 48
SWIDTH 588 0
DWIDTH 14 0
BBX 10 14 2 0
BITMAP
0700
1880
3040
2040
4040
4040
8040
8040
8080
8080
8180
c100
4600
3c00
ENDCHAR
STARTCHAR ScriptOne
ENCODING 49
SWIDTH 600 0
DWIDTH 14 0
BBX 8 14 3 0
BITMAP
06
3a
02
04
04
04
04
04
08
08
08
08
10
ff
ENDCHAR
STARTCHAR ScriptTwo
ENCODING 50
SWIDTH 588 0
DWIDTH 14 0
BBX 10 14 2 0
BITMAP
0f00
1080
2040
1040
0040
0080
0180
0300
0600
0800
1000
2000
4080
ff80
ENDCHAR
STARTCHAR ScriptThree
ENCODING 51
SWIDTH 600 0
DWIDTH 14 0
BBX 11 14 1 0
BITMAP
0780
1860
0020
0020
0040
00c0
0700
0080
0040
0040
0040
0080
c180
3e00
ENDCHAR
STARTCHAR ScriptFour
ENCODING 52
SWIDTH 600 0
DWIDTH 14 0
BBX 11 14 2 0
BITMAP
00e0
0140
0340
0640
0440
0880
1080
2080
4080
ff80
0100
0100
0100
0f80
ENDCHAR
STARTCHAR ScriptFive
ENCODING 53
SWIDTH 600 0
DWIDTH 14 0
BBX 10 14 2 0
BITMAP
1fc0
1000
1000
1000
1000
1f00
3080
0040
0040
0040
00c0
0080
c300
3c00
ENDCHAR
STARTCHAR ScriptSix
ENCODING 54
SWIDTH 548 0
DWIDTH 13 0
BBX 9 14 3 0
BITMAP
0780
0c00
1000
2000
6000
4000
5c00
a200
c100
8100
8100
8200
4400
3800
ENDCHAR
STARTCHAR ScriptSeven
ENCODING 55
SWIDTH 559 0
DWIDTH 13 0
BBX 10 14 3 0
BITMAP
ffc0
0080
0180
0100
0300
0200
0400
0400
0800
0800
1000
1000
2000
2000
ENDCHAR
STARTCHAR ScriptEight
ENCODING 56
SWIDTH 548 0
DWIDTH 13 0
BBX 10 14 2 0
BITMAP
0700
1880
1040
2040
2040
2080
1180
1e00
6100
4080
8080
8100
4300
3c00
ENDCHAR
STARTCHAR ScriptNine
ENCODING 57
SWIDTH 548 0
DWIDTH 13 0
BBX 9 14 3 0
BITMAP
0e00
1100
2080
4080
4080
4080
4180
2280
1d00
0100
0200
0400
0800
f000
ENDCHAR
STARTCHAR ODoubleAcute
ENCODING 58
SWIDTH 600 0
DWIDTH 14 0
BBX 12 16 1 0
BITMAP
0660
0cc0
1980
3300
0000
0f00
30c0
4020
c030
8010
8010
8010
8010
4020
30c0
0f00
ENDCHAR
STARTCHAR CapitalODoubleAcute
ENCODING 59
SWIDTH 600 0
DWIDTH 14 0
BBX 12 19 1 0
BITMAP
0660
0cc0
1980
3300
0000
0f00
30c0
6060
4020
8010
8010
8010
8010
8010
8010
4020
6060
30c0
0f00
ENDCHAR
STARTCHAR SHacek
ENCODING 60
SWIDTH 600 0
DWIDTH 14 0
BBX 10 16 2 0
BITMAP
4080
2100
1200
0c00
0000
1c80
6380
4080
8080
4000
3f00
0080
8040
8040
c080
bf00
ENDCHAR
STARTCHAR CapitalSHacek
ENCODING 61
SWIDTH 600 0
DWIDTH 14 0
BBX 11 19 2 0
BITMAP
2040
1080
0900
0600
0000
0f20
30e0
6040
4020
4020
4000
3000
0f80
0040
0020
8020
c060
e0c0
9f00
ENDCHAR
STARTCHAR UDoubleAcute
ENCODING 62
SWIDTH 600 0
DWIDTH 14 0
BBX 13 16 1 0
BITMAP
0660
0cc0
1980
3300
0000
0000
e1c0
2040
2040
2040
2040
2040
2040
2040
11c0
0e78
ENDCHAR
STARTCHAR CapitalUDoubleAcute
ENCODING 63
SWIDTH 600 0
DWIDTH 14 0
BBX 14 19 0 0
BITMAP
0330
0660
0cc0
1980
0000
f87c
2010
2010
2010
2010
2010
2010
2010
2010
2010
2010
1020
1860
0780
ENDCHAR
STARTCHAR HSlash
ENCODING 64
SWIDTH 600 0
DWIDTH 14 0
BBX 13 15 0 0
BITMAP
1e00
0400
3fc0
0400
04e0
0510
0a10
0c10
0810
0810
0810
1020
1020
1020
f8f8
ENDCHAR
STARTCHAR ScriptCapA
ENCODING 65
SWIDTH 600 0
DWIDTH 14 0
BBX 14 14 0 -1
BITMAP
07fc
0824
1048
1088
1088
0118
07e8
0908
0208
0208
8208
8408
8408
7804
ENDCHAR
STARTCHAR ScriptCapB
ENCODING 66
SWIDTH 600 0
DWIDTH 14 0
BBX 14 14 0 0
BITMAP
03f0
0c8c
1904
1104
2208
2210
23e0
0410
0408
0408
0808
1010
6060
9f80
ENDCHAR
STARTCHAR ScriptCapC
ENCODING 67
SWIDTH 600 0
DWIDTH 14 0
BBX 12 15 1 -1
BITMAP
03c0
0c20
1010
2010
4010
4000
8000
8000
8000
8000
8040
8040
4040
2180
1e00
ENDCHAR
STARTCHAR ScriptCapD
ENCODING 68
SWIDTH 600 0
DWIDTH 14 0
BBX 14 14 0 0
BITMAP
07e0
1918
2208
4204
8404
8404
c404
0404
0404
0804
0808
1010
2020
ffc0
ENDCHAR
STARTCHAR ScriptCapE
ENCODING 69
SWIDTH 600 0
DWIDTH 14 0
BBX 12 14 1 0
BITMAP
0780
0860
1020
1000
1000
0d80
1e00
2000
4020
8010
8010
8010
4020
3fc0
ENDCHAR
STARTCHAR ScriptCapF
ENCODING 70
SWIDTH 590 0
DWIDTH 14 0
BBX 17 16 -1 -2
BITMAP
03c080
1cff00
208000
410000
810000
820000
4ff000
020000
020000
040000
040000
040000
080000
180000
300000
e00000
ENDCHAR
STARTCHAR ScriptCapG
ENCODING 71
SWIDTH 600 0
DWIDTH 14 0
BBX 14 17 0 -3
BITMAP
00f0
030c
0404
0804
1008
1000
2000
21f8
2310
2030
2060
20a0
1f20
0040
0080
c100
3e00
ENDCHAR
STARTCHAR ScriptCapH
ENCODING 72
SWIDTH 700 0
DWIDTH 17 0
BBX 17 14 0 0
BITMAP
070080
190080
610100
410100
820100
820200
42fe00
030200
040200
040400
040400
080400
080400
300200
ENDCHAR
STARTCHAR ScriptCapI
ENCODING 73
SWIDTH 600 0
DWIDTH 14 0
BBX 14 14 0 0
BITMAP
07fc
0840
0080
0100
0100
0100
0100
0200
0200
0200
0200
0400
1880
ff00
ENDCHAR
STARTCHAR ScriptCapJ
ENCODING 74
SWIDTH 600 0
DWIDTH 14 0
BBX 18 17 -2 -3
BITMAP
007840
0187c0
020400
040800
040800
040800
021000
001000
001000
001000
001000
002000
002000
002000
804000
608000
1f0000
ENDCHAR
STARTCHAR ScriptCapK
ENCODING 75
SWIDTH 678 0
DWIDTH 16 0
BBX 18 15 -1 -1
BITMAP
0781c0
188640
610800
811000
812000
824000
43c000
024000
042000
042000
041000
081000
080800
100400
200000
ENDCHAR
STARTCHAR ScriptCapL
ENCODING 76
SWIDTH 638 0
DWIDTH 15 0
BBX 15 15 0 -1
BITMAP
003c
0044
0082
0080
0080
0100
0100
0100
0100
0200
0200
0400
0800
fe02
01fc
ENDCHAR
STARTCHAR ScriptCapM
ENCODING 77
SWIDTH 840 0
DWIDTH 20 0
BBX 20 15 0 -1
BITMAP
010010
030030
030020
028060
028060
0480a0
044120
044220
084420
082820
103020
103020
202030
402010
800000
ENDCHAR
STARTCHAR ScriptCapN
ENCODING 78
SWIDTH 662 0
DWIDTH 16 0
BBX 17 15 0 -1
BITMAP
000080
040100
060100
060200
0a0200
090200
090400
108400
104400
102400
102800
201800
201800
400800
800000
ENDCHAR
STARTCHAR ScriptCapO
ENCODING 79
SWIDTH 600 0
DWIDTH 14 0
BBX 13 15 1 0
BITMAP
03c0
0420
0810
1010
2008
4008
4008
8010
8010
8010
8020
8040
8080
4100
3e00
ENDCHAR
STARTCHAR ScriptCapP
ENCODING 80
SWIDTH 600 0
DWIDTH 14 0
BBX 13 15 0 -1
BITMAP
07c0
1a30
2208
4408
8408
8408
8810
5860
0f80
1000
1000
1000
2000
2000
4000
ENDCHAR
STARTCHAR ScriptCapQ
ENCODING 81
SWIDTH 600 0
DWIDTH 14 0
BBX 13 16 1 -1
BITMAP
07c0
0860
1020
2010
4010
4010
8010
8010
8020
8020
8020
b840
8680
4180
3f88
0070
ENDCHAR
STARTCHAR ScriptCapR
ENCODING 82
SWIDTH 600 0
DWIDTH 14 0
BBX 12 14 1 0
BITMAP
0fe0
3210
4410
8410
8810
8820
4fc0
0900
0900
1080
1080
2040
2020
4010
ENDCHAR
STARTCHAR ScriptCapS
ENCODING 83
SWIDTH 600 0
DWIDTH 14 0
BBX 13 14 1 0
BITMAP
03e0
0410
0808
0808
0800
0600
0180
0040
0020
0020
8020
8020
6040
1f80
ENDCHAR
STARTCHAR ScriptCapT
ENCODING 84
SWIDTH 626 0
DWIDTH 15 0
BBX 17 15 -1 -1
BITMAP
0fc180
30fe00
408000
810000
810000
820000
420000
020000
040000
040000
040000
080000
080000
100000
200000
ENDCHAR
STARTCHAR ScriptCapU
ENCODING 85
SWIDTH 728 0
DWIDTH 17 0
BBX 17 14 0 0
BITMAP
038080
0d0080
310080
410100
820100
820100
820200
440200
040600
040c00
081400
086400
098400
0e0600
ENDCHAR
STARTCHAR ScriptCapV
ENCODING 86
SWIDTH 714 0
DWIDTH 17 0
BBX 17 14 0 0
BITMAP
038080
1c8180
308080
408100
808100
808200
c08400
00c400
00c800
005000
006000
006000
00c000
008000
ENDCHAR
STARTCHAR ScriptCapW
ENCODING 87
SWIDTH 983 0
DWIDTH 24 0
BBX 24 14 0 0
BITMAP
018003
0f0201
310201
410202
810602
810604
410a08
008910
009120
00a140
00a1c0
00c180
008100
008100
ENDCHAR
STARTCHAR ScriptCapX
ENCODING 88
SWIDTH 600 0
DWIDTH 14 0
BBX 13 14 1 0
BITMAP
1818
0808
0410
0420
04c0
0300
0600
0a00
1200
2100
4100
8100
8080
8040
ENDCHAR
STARTCHAR ScriptCapY
ENCODING 89
SWIDTH 600 0
DWIDTH 14 0
BBX 15 15 0 -1
BITMAP
0402
0602
0204
020c
0208
0218
0228
0250
0390
0310
0020
0020
8040
4180
3e00
ENDCHAR
STARTCHAR ScriptCapZ
ENCODING 90
SWIDTH 658 0
DWIDTH 16 0
BBX 17 16 0 -2
BITMAP
000080
1fff00
200400
000800
001000
002000
004000
008000
010000
020000
040000
080000
f80000
9c0100
03c200
007c00
ENDCHAR
STARTCHAR RightTriangleLeft
ENCODING 91
SWIDTH 600 0
DWIDTH 14 0
BBX 9 13 3 0
BITMAP
0080
0100
0300
0300
0500
0500
0900
1100
1100
2100
2100
4100
ff00
ENDCHAR
STARTCHAR RightTriangleRight
ENCODING 92
SWIDTH 600 0
DWIDTH 14 0
BBX 8 13 3 0
BITMAP
80
80
c0
c0
a0
a0
90
88
88
84
84
82
ff
ENDCHAR
STARTCHAR DoubleRightTriangle
ENCODING 93
SWIDTH 600 0
DWIDTH 14 0
BBX 14 13 0 0
BITMAP
0100
0300
0300
0780
0740
0b40
0b20
1320
1310
2310
4308
4308
fffc
ENDCHAR
STARTCHAR Female
ENCODING 94
SWIDTH 600 0
DWIDTH 14 0
BBX 8 14 3 0
BITMAP
3c
46
c2
81
81
81
42
66
3c
18
18
3c
18
18
ENDCHAR
STARTCHAR Male
ENCODING 95
SWIDTH 600 0
DWIDTH 14 0
BBX 13 14 2 0
BITMAP
0018
0030
0030
1e40
2180
4080
8040
8040
8040
8040
8040
4080
2100
1e00
ENDCHAR
STARTCHAR NearlyEquals
ENCODING 96
SWIDTH 600 0
DWIDTH 14 0
BBX 10 14 2 -2
BITMAP
1800
1800
0000
0000
ffc0
0000
0000
0000
ffc0
0000
0000
0000
0300
0300
ENDCHAR
STARTCHAR ScriptA
ENCODING 97
SWIDTH 432 0
DWIDTH 10 0
BBX 10 10 0 0
BITMAP
0f80
1100
2100
4200
4200
8200
8600
8ac0
9300
e600
ENDCHAR
STARTCHAR ScriptB
ENCODING 98
SWIDTH 444 0
DWIDTH 11 0
BBX 10 16 0 0
BITMAP
0800
0800
0800
0800
1000
1000
1180
1240
2440
2840
3040
2080
2080
4100
4200
fc00
ENDCHAR
STARTCHAR ScriptC
ENCODING 99
SWIDTH 384 0
DWIDTH 9 0
BBX 9 10 0 0
BITMAP
0f00
1080
2000
4000
8000
8000
8000
8000
8600
7800
ENDCHAR
STARTCHAR ScriptD
ENCODING 100
SWIDTH 507 0
DWIDTH 12 0
BBX 12 16 0 0
BITMAP
0020
0030
0020
0040
0040
0040
0f80
1080
2080
4180
4100
8300
8500
8900
9100
e180
ENDCHAR
STARTCHAR ScriptE
ENCODING 101
SWIDTH 365 0
DWIDTH 9 0
BBX 8 11 0 0
BITMAP
0e
11
21
42
44
f8
80
80
82
84
78
ENDCHAR
STARTCHAR ScriptF
ENCODING 102
SWIDTH 476 0
DWIDTH 11 0
BBX 12 18 0 -2
BITMAP
00f0
0110
0200
0400
0400
0400
1f80
0800
0800
0800
1000
1000
1000
1000
2000
2000
4000
8000
ENDCHAR
STARTCHAR ScriptG
ENCODING 103
SWIDTH 489 0
DWIDTH 12 0
BBX 12 15 0 -5
BITMAP
03e0
0430
0820
1020
1060
20c0
2140
2240
2480
3880
0080
0100
0200
0400
f800
ENDCHAR
STARTCHAR ScriptH
ENCODING 104
SWIDTH 421 0
DWIDTH 10 0
BBX 9 16 0 0
BITMAP
0800
0800
0800
0800
0800
1000
1180
1680
2880
3080
2080
2100
4100
4100
c100
8100
ENDCHAR
STARTCHAR ScriptI
ENCODING 105
SWIDTH 222 0
DWIDTH 5 0
BBX 5 14 0 0
BITMAP
08
10
00
00
20
20
20
40
40
40
80
80
80
c0
ENDCHAR
STARTCHAR ScriptJ
ENCODING 106
SWIDTH 440 0
DWIDTH 11 0
BBX 10 19 0 -5
BITMAP
0040
0080
0000
0000
0080
0080
0100
0100
0100
0100
0200
0200
0200
0200
0400
0400
0400
8800
7000
ENDCHAR
STARTCHAR ScriptK
ENCODING 107
SWIDTH 396 0
DWIDTH 9 0
BBX 9 16 0 0
BITMAP
1000
1000
1000
1000
1000
2000
2080
2100
2200
3c00
5000
4800
4800
4400
8200
8300
ENDCHAR
STARTCHAR ScriptL
ENCODING 108
SWIDTH 221 0
DWIDTH 5 0
BBX 5 16 0 0
BITMAP
08
08
08
10
10
10
20
20
20
40
40
40
40
80
80
c0
ENDCHAR
STARTCHAR ScriptM
ENCODING 109
SWIDTH 665 0
DWIDTH 16 0
BBX 15 10 0 0
BITMAP
238e
2492
28a2
30c4
6084
4104
4108
4108
8208
820c
ENDCHAR
STARTCHAR ScriptN
ENCODING 110
SWIDTH 419 0
DWIDTH 10 0
BBX 10 10 0 0
BITMAP
11c0
1240
1c40
3080
2080
2080
4100
4100
4100
8180
ENDCHAR
STARTCHAR ScriptO
ENCODING 111
SWIDTH 398 0
DWIDTH 10 0
BBX 9 11 0 0
BITMAP
0f00
1080
2080
4080
4080
8080
8100
8100
8200
4400
7800
ENDCHAR
STARTCHAR ScriptP
ENCODING 112
SWIDTH 467 0
DWIDTH 11 0
BBX 11 16 0 -5
BITMAP
1000
10e0
1320
1c20
1820
3040
2040
2040
2080
c300
7c00
4000
4000
4000
8000
8000
ENDCHAR
STARTCHAR ScriptQ
ENCODING 113
SWIDTH 442 0
DWIDTH 11 0
BBX 10 14 0 -4
BITMAP
0f80
10c0
2080
4180
4100
8300
8500
8900
9100
6200
0200
0200
0200
0200
ENDCHAR
STARTCHAR ScriptR
ENCODING 114
SWIDTH 368 0
DWIDTH 9 0
BBX 8 10 0 0
BITMAP
23
2c
30
20
20
40
40
40
80
80
ENDCHAR
STARTCHAR ScriptS
ENCODING 115
SWIDTH 428 0
DWIDTH 10 0
BBX 10 11 0 0
BITMAP
0f00
10c0
1000
1000
0800
0400
0200
0100
0100
8100
7e00
ENDCHAR
STARTCHAR ScriptT
ENCODING 116
SWIDTH 267 0
DWIDTH 6 0
BBX 6 14 0 0
BITMAP
10
10
10
20
7c
20
40
40
40
80
80
88
90
60
ENDCHAR
STARTCHAR ScriptU
ENCODING 117
SWIDTH 423 0
DWIDTH 10 0
BBX 9 10 0 0
BITMAP
2080
2080
2080
4180
4100
4300
8500
8900
b100
e180
ENDCHAR
STARTCHAR ScriptV
ENCODING 118
SWIDTH 366 0
DWIDTH 9 0
BBX 8 10 0 0
BITMAP
81
81
42
42
44
44
48
50
50
60
ENDCHAR
STARTCHAR ScriptW
ENCODING 119
SWIDTH 582 0
DWIDTH 14 0
BBX 13 10 0 0
BITMAP
8208
4208
4608
4610
4a10
4a20
5220
6240
6380
4300
ENDCHAR
STARTCHAR ScriptX
ENCODING 120
SWIDTH 494 0
DWIDTH 12 0
BBX 10 11 1 0
BITMAP
1040
1040
0880
0900
0e00
0c00
1400
2400
4200
8200
c100
ENDCHAR
STARTCHAR ScriptY
ENCODING 121
SWIDTH 455 0
DWIDTH 11 0
BBX 12 16 -1 -5
BITMAP
0410
0410
0820
0820
0860
10a0
1140
1240
1440
1840
0080
0080
0100
0300
4600
f800
ENDCHAR
STARTCHAR ScriptZ
ENCODING 122
SWIDTH 471 0
DWIDTH 11 0
BBX 11 10 0 0
BITMAP
3e40
01c0
0080
0100
0200
0400
0800
1000
7000
8fe0
ENDCHAR
STARTCHAR ScriptAltL
ENCODING 123
SWIDTH 385 0
DWIDTH 9 0
BBX 9 15 0 0
BITMAP
0180
0280
0480
0900
0900
1200
1400
1800
1000
7000
a000
2000
2000
2000
3000
ENDCHAR
STARTCHAR LogicalNand
ENCODING 124
SWIDTH 600 0
DWIDTH 14 0
BBX 12 13 1 0
BITMAP
7ff0
0000
0f00
1080
1080
1080
2040
2040
2040
4020
4020
4020
8010
ENDCHAR
STARTCHAR Nand2
ENCODING 125
SWIDTH 741 0
DWIDTH 18 0
BBX 17 22 0 -5
BITMAP
7fff00
000000
000000
000000
000000
07f000
041000
041000
080800
080800
080800
100400
100400
100400
200200
200200
200200
400100
400100
400100
800080
800080
ENDCHAR
STARTCHAR Nand3
ENCODING 126
SWIDTH 1215 0
DWIDTH 29 0
BBX 44 37 0 -12
BITMAP
7fffffe00000
000000000000
000000000000
000000000000
000000000000
000000000000
000000000000
000000000000
007fe0000000
004020000000
004020000000
008010000000
008010000020
008010000010
010008000000
010008000000
010008000000
020004000000
020004000000
020004000000
040002000000
040002000000
040002000000
080001000000
080001000000
080001000000
100000800000
100000800000
100000800000
200000400000
200000400000
200000400000
400000200000
400000200000
400000200000
800000100000
800000100000
ENDCHAR
STARTCHAR DEL
ENCODING 127
SWIDTH 263 0
DWIDTH 6 0
BBX 0 0 0 0
BITMAP
ENDCHAR
STARTCHAR LogicalNor
ENCODING 128
SWIDTH 600 0
DWIDTH 14 0
BBX 12 13 1 0
BITMAP
7fe0
0000
8010
4020
4020
4020
2040
2040
2040
1080
1080
1080
0f00
ENDCHAR
STARTCHAR Nor2
ENCODING 129
SWIDTH 741 0
DWIDTH 18 0
BBX 17 21 0 -5
BITMAP
7fff00
000000
000000
000000
800080
800080
400100
400100
400100
200200
200200
200200
100400
100400
100400
080800
080800
080800
041000
041000
07f000
ENDCHAR
STARTCHAR Nor3
ENCODING 130
SWIDTH 1215 0
DWIDTH 29 0
BBX 45 37 0 -12
BITMAP
3fffffe00000
000000000000
000000000000
000000000000
000000000000
000000000000
000000000000
800000080000
800000080000
800000080000
400000100000
400000100000
400000100010
200000200008
200000200000
200000200000
100000400000
100000400000
100000400000
080000800000
080000800000
080000800000
040001000000
040001000000
040001000000
020002000000
020002000000
020002000000
010004000000
010004000000
010004000000
008008000000
008008000000
008008000000
004010000000
004010000000
007ff0000000
ENDCHAR
STARTCHAR LogicalXor
ENCODING 131
SWIDTH 600 0
DWIDTH 14 0
BBX 13 13 1 0
BITMAP
8008
4010
4010
2020
2020
1040
1040
0880
0880
0700
0000
0000
7ff0
ENDCHAR
STARTCHAR Xor2
ENCODING 132
SWIDTH 741 0
DWIDTH 18 0
BBX 17 21 0 -5
BITMAP
800080
400100
400100
400100
200100
200200
200200
100200
100400
100400
080400
080800
080800
080800
041800
041000
07f000
000000
000000
000000
7fff00
ENDCHAR
STARTCHAR Xor3
ENCODING 133
SWIDTH 1215 0
DWIDTH 29 0
BBX 45 37 0 -12
BITMAP
800000100000
400000200000
400000200000
400000200000
200000200000
200000400000
200000400000
200000400000
100000800000
100000800000
100000800000
080000800000
080001000010
080001000008
040001000000
040002000000
040002000000
020002000000
020004000000
020004000000
010004000000
010004000000
010008000000
010008000000
008008000000
008010000000
008010000000
004010000000
007ff0000000
000000000000
000000000000
000000000000
000000000000
000000000000
000000000000
000000000000
3fffffe00000
ENDCHAR
STARTCHAR ConstantC
ENCODING 134
SWIDTH 600 0
DWIDTH 14 0
BBX 11 11 2 0
BITMAP
1f00
3cc0
6cc0
d860
d860
d800
d800
d800
6800
3c60
1f80
ENDCHAR
STARTCHAR LongEqual
ENCODING 135
SWIDTH 798 0
DWIDTH 19 0
BBX 14 6 2 2
BITMAP
fffc
fffc
0000
0000
fffc
fffc
ENDCHAR
STARTCHAR Diffd2
ENCODING 136
SWIDTH 600 0
DWIDTH 14 0
BBX 13 15 2 0
BITMAP
00f8
0008
0008
0018
0010
0f90
3050
6030
c030
8020
8020
8060
c060
61c0
3e70
ENDCHAR
STARTCHAR Expe2
ENCODING 137
SWIDTH 600 0
DWIDTH 14 0
BBX 11 10 3 0
BITMAP
0f80
3060
4020
8020
ffe0
8000
8000
c000
60c0
3f00
ENDCHAR
STARTCHAR Imagi2
ENCODING 138
SWIDTH 600 0
DWIDTH 14 0
BBX 10 16 3 0
BITMAP
0300
0300
0300
0000
0000
0000
3e00
0200
0600
0400
0400
0400
0400
0c00
0800
ffc0
ENDCHAR
STARTCHAR Imagj2
ENCODING 139
SWIDTH 600 0
DWIDTH 14 0
BBX 11 20 2 -4
BITMAP
0060
0060
0060
0000
0000
0000
1fc0
0040
00c0
00c0
0080
0080
0080
0080
0100
0100
0100
0300
0600
fc00
ENDCHAR
STARTCHAR CapitalCAcute
ENCODING 140
SWIDTH 600 0
DWIDTH 14 0
BBX 12 19 1 0
BITMAP
00c0
0180
0300
0600
0000
0f90
3070
6030
4010
8010
8000
8000
8000
8000
c000
4000
6010
3060
0f80
ENDCHAR
STARTCHAR CapitalCHacek
ENCODING 141
SWIDTH 600 0
DWIDTH 14 0
BBX 12 19 1 0
BITMAP
1020
0840
0480
0300
0000
0f90
3070
6030
4010
8010
8000
8000
8000
8000
c000
4000
6010
3060
0f80
ENDCHAR
STARTCHAR EBar
ENCODING 142
SWIDTH 600 0
DWIDTH 14 0
BBX 11 14 2 0
BITMAP
7fc0
0000
0000
1f00
2080
4040
8020
8020
ffe0
8000
8000
4000
2060
1f80
ENDCHAR
STARTCHAR ECup
ENCODING 143
SWIDTH 600 0
DWIDTH 14 0
BBX 11 15 2 0
BITMAP
2080
3300
0c00
0000
1f00
2080
4040
8020
8020
ffe0
8000
8000
4000
2060
1f80
ENDCHAR
STARTCHAR CapitalEBar
ENCODING 144
SWIDTH 600 0
DWIDTH 14 0
BBX 11 17 2 0
BITMAP
7fc0
0000
0000
ffe0
2020
2020
2020
2100
2100
3f00
2100
2100
2000
2020
2020
2020
ffe0
ENDCHAR
STARTCHAR CapitalECup
ENCODING 145
SWIDTH 600 0
DWIDTH 14 0
BBX 11 17 2 0
BITMAP
3080
1f00
0000
ffe0
2020
2020
2020
2100
2100
3f00
2100
2100
2000
2020
2020
2020
ffe0
ENDCHAR
STARTCHAR ICup
ENCODING 146
SWIDTH 600 0
DWIDTH 14 0
BBX 10 15 2 0
BITMAP
2080
2180
1f00
0000
0000
7c00
0400
0400
0400
0400
0400
0400
0400
0400
ffc0
ENDCHAR
STARTCHAR CapitalICup
ENCODING 147
SWIDTH 600 0
DWIDTH 14 0
BBX 9 17 3 0
BITMAP
4100
3e00
0000
ff80
0800
0800
0800
0800
0800
0800
0800
0800
0800
0800
0800
0800
ff80
ENDCHAR
STARTCHAR LSlash
ENCODING 148
SWIDTH 600 0
DWIDTH 14 0
BBX 10 15 2 0
BITMAP
7c00
0400
0400
0400
0400
0480
0500
0600
1c00
2400
4400
0400
0400
0400
ffc0
ENDCHAR
STARTCHAR CapitalLSlash
ENCODING 149
SWIDTH 600 0
DWIDTH 14 0
BBX 12 14 1 0
BITMAP
fe00
1000
1000
1000
1100
1200
1c00
3000
5010
9010
1010
1010
1010
fff0
ENDCHAR
STARTCHAR Mercury
ENCODING 150
SWIDTH 600 0
DWIDTH 14 0
BBX 7 13 4 0
BITMAP
84
84
78
c8
84
82
84
84
78
30
fc
30
30
ENDCHAR
STARTCHAR Venus
ENCODING 151
SWIDTH 600 0
DWIDTH 14 0
BBX 10 13 2 0
BITMAP
1e00
2100
4080
4040
8040
4080
4080
2100
1e00
0c00
3f00
0c00
0c00
ENDCHAR
STARTCHAR Earth
ENCODING 152
SWIDTH 600 0
DWIDTH 14 0
BBX 10 13 2 0
BITMAP
0c00
0c00
3f00
0c00
1e00
2100
4080
4080
8040
4080
4080
2100
1e00
ENDCHAR
STARTCHAR Mars
ENCODING 153
SWIDTH 600 0
DWIDTH 14 0
BBX 12 11 1 0
BITMAP
01e0
0070
1cd0
2390
4080
4080
8080
4080
4080
2100
1e00
ENDCHAR
STARTCHAR Jupiter
ENCODING 154
SWIDTH 600 0
DWIDTH 14 0
BBX 12 15 1 -2
BITMAP
0010
0e10
3310
6090
4090
4050
4050
0050
0090
0190
0310
0e10
fff0
0010
0010
ENDCHAR
STARTCHAR Saturn
ENCODING 155
SWIDTH 600 0
DWIDTH 14 0
BBX 10 13 2 0
BITMAP
6000
6000
f800
6000
6700
7880
7040
6040
6080
6080
6100
6100
6100
ENDCHAR
STARTCHAR Uranus
ENCODING 156
SWIDTH 600 0
DWIDTH 14 0
BBX 12 13 1 0
BITMAP
e670
2640
2640
3fc0
2640
2640
2640
2640
e670
0600
0900
0900
0600
ENDCHAR
STARTCHAR Neptune
ENCODING 157
SWIDTH 600 0
DWIDTH 14 0
BBX 15 15 0 -2
BITMAP
0380
07c0
0100
791c
a92a
2108
2108
3110
1110
0fe0
0100
0100
0fe0
0100
0100
ENDCHAR
STARTCHAR Pluto
ENCODING 158
SWIDTH 600 0
DWIDTH 14 0
BBX 11 15 2 -2
BITMAP
ff00
c0c0
c040
c040
c060
c040
c040
c0c0
ff80
c000
c000
c000
c000
c000
ffc0
ENDCHAR
STARTCHAR udieresis
ENCODING 159
SWIDTH 600 0
DWIDTH 14 0
BBX 14 13 0 0
BITMAP
0fc0
3030
6018
4008
8004
8104
8304
8004
c00c
4008
2010
1860
0fc0
ENDCHAR
STARTCHAR FirstPage
ENCODING 160
SWIDTH 600 0
DWIDTH 14 0
BBX 8 11 4 0
BITMAP
81
86
8e
9e
be
fe
be
9e
8e
86
82
ENDCHAR
STARTCHAR LastPage
ENCODING 161
SWIDTH 600 0
DWIDTH 14 0
BBX 7 11 4 0
BITMAP
82
c2
e2
f2
fa
fe
fa
f2
e2
c2
82
ENDCHAR
STARTCHAR SolidLeftTriangle
ENCODING 162
SWIDTH 600 0
DWIDTH 14 0
BBX 14 13 0 0
BITMAP
0004
001c
007c
01fc
0ffc
3ffc
fffc
3ffc
0ffc
03fc
007c
001c
0004
ENDCHAR
STARTCHAR SolidRightTriangle
ENCODING 163
SWIDTH 600 0
DWIDTH 14 0
BBX 14 13 0 0
BITMAP
8000
e000
f800
fe00
ffc0
fff0
fffc
fff0
ffc0
ff00
f800
e000
8000
ENDCHAR
STARTCHAR QuarterNote
ENCODING 164
SWIDTH 600 0
DWIDTH 14 0
BBX 7 14 4 0
BITMAP
02
02
02
02
02
02
02
02
02
02
7a
fe
fe
7c
ENDCHAR
STARTCHAR EighthNote
ENCODING 165
SWIDTH 600 0
DWIDTH 14 0
BBX 12 14 1 0
BITMAP
0200
0380
0240
0220
0210
0200
0200
0200
0200
0200
7a00
fe00
fe00
7c00
ENDCHAR
STARTCHAR BeamedEighthNote
ENCODING 166
SWIDTH 700 0
DWIDTH 17 0
BBX 17 14 0 0
BITMAP
03ff80
020080
020080
020080
020080
020080
020080
020080
020080
020080
7a1e80
fe3f80
fe3f80
7c1f00
ENDCHAR
STARTCHAR BeamedSixteenthNote
ENCODING 167
SWIDTH 700 0
DWIDTH 17 0
BBX 17 14 0 0
BITMAP
03ff80
020080
020080
03ff80
020080
020080
020080
020080
020080
020080
7a1e80
fe3f80
fe3f80
7c1f00
ENDCHAR
STARTCHAR EntityStart
ENCODING 168
SWIDTH 700 0
DWIDTH 17 0
BBX 15 18 1 -3
BITMAP
fffe
8010
8010
8010
8e10
9110
9010
9010
8810
94d0
a510
a310
a310
9dd0
8010
8010
8010
fffe
ENDCHAR
STARTCHAR EntityEnd
ENCODING 169
SWIDTH 700 0
DWIDTH 17 0
BBX 15 18 1 -3
BITMAP
fffe
1002
1002
1002
1002
1002
1002
1002
10c2
10c2
1002
1002
1002
1082
1082
1182
1002
fffe
ENDCHAR
STARTCHAR trademark
ENCODING 170
SWIDTH 600 0
DWIDTH 14 0
BBX 12 12 3 3
BITMAP
0030
0020
0040
0080
0100
0300
0200
c400
6c00
6800
3800
1000
ENDCHAR
STARTCHAR acute
ENCODING 171
SWIDTH 600 0
DWIDTH 14 0
BBX 14 15 1 0
BITMAP
0004
0008
fff0
8018
8028
8048
80c8
8888
9988
8d08
8708
8608
8008
8008
fff8
ENDCHAR
STARTCHAR dieresis
ENCODING 172
SWIDTH 364 0
DWIDTH 9 0
BBX 7 9 1 8
BITMAP
fe
10
10
10
10
10
10
10
10
ENDCHAR
STARTCHAR notequal
ENCODING 173
SWIDTH 364 0
DWIDTH 9 0
BBX 7 8 1 9
BITMAP
10
92
fe
78
78
fe
92
10
ENDCHAR
STARTCHAR AE
ENCODING 174
SWIDTH 364 0
DWIDTH 9 0
BBX 6 8 1 9
BITMAP
84
84
84
fc
84
84
84
84
ENDCHAR
STARTCHAR Oslash
ENCODING 175
SWIDTH 600 0
DWIDTH 14 0
BBX 6 16 7 -1
BITMAP
fc
80
80
80
80
80
80
80
80
80
80
80
80
80
80
80
ENDCHAR
STARTCHAR infinity
ENCODING 176
SWIDTH 600 0
DWIDTH 14 0
BBX 3 17 5 -3
BITMAP
20
20
20
20
20
20
e0
80
80
80
e0
20
20
20
20
20
20
ENDCHAR
STARTCHAR plusminus
ENCODING 177
SWIDTH 600 0
DWIDTH 14 0
BBX 6 16 7 0
BITMAP
80
80
80
80
80
80
80
80
80
80
80
80
80
80
80
fc
ENDCHAR
STARTCHAR lessequal
ENCODING 178
SWIDTH 600 0
DWIDTH 14 0
BBX 1 7 7 0
BITMAP
80
80
80
80
80
80
80
ENDCHAR
STARTCHAR greaterequal
ENCODING 179
SWIDTH 600 0
DWIDTH 14 0
BBX 5 19 5 -4
BITMAP
38
20
20
20
20
20
20
e0
80
80
80
e0
20
20
20
20
20
20
38
ENDCHAR
STARTCHAR yen
ENCODING 180
SWIDTH 600 0
DWIDTH 14 0
BBX 6 31 5 -10
BITMAP
3c
20
20
20
20
20
20
20
20
20
20
20
20
e0
80
80
80
e0
20
20
20
20
20
20
20
20
20
20
20
20
3c
ENDCHAR
STARTCHAR mu
ENCODING 181
SWIDTH 600 0
DWIDTH 14 0
BBX 7 41 5 -15
BITMAP
3e
20
20
20
20
20
20
20
20
20
20
20
20
20
20
20
20
20
e0
80
80
80
e0
20
20
20
20
20
20
20
20
20
20
20
20
20
20
20
20
20
3e
ENDCHAR
STARTCHAR partialdiff
ENCODING 182
SWIDTH 600 0
DWIDTH 14 0
BBX 8 50 5 -20
BITMAP
3f
20
20
20
20
20
20
20
20
20
20
20
20
20
20
20
20
20
20
20
20
20
e0
80
80
80
e0
20
20
20
20
20
20
20
20
20
20
20
20
20
20
20
20
20
20
20
20
20
20
3f
ENDCHAR
STARTCHAR summation
ENCODING 183
SWIDTH 720 0
DWIDTH 17 0
BBX 15 10 1 0
BITMAP
0400
0800
1000
2000
fe76
6000
2000
1000
0800
0400
ENDCHAR
STARTCHAR product
ENCODING 184
SWIDTH 600 0
DWIDTH 14 0
BBX 10 15 3 0
BITMAP
0800
1c00
2a00
4900
8880
8840
0800
0000
0000
0800
0800
0800
0000
0800
0800
ENDCHAR
STARTCHAR pi
ENCODING 185
SWIDTH 720 0
DWIDTH 17 0
BBX 15 10 1 0
BITMAP
0040
0030
0008
0004
dcfe
0004
0008
0010
0020
0040
ENDCHAR
STARTCHAR integral
ENCODING 186
SWIDTH 600 0
DWIDTH 14 0
BBX 10 15 3 0
BITMAP
0800
0800
0000
0800
0800
0800
0000
0000
0800
8840
8880
4900
2a00
1c00
0800
ENDCHAR
STARTCHAR ordfeminine
ENCODING 187
SWIDTH 900 0
DWIDTH 22 0
BBX 18 9 2 2
BITMAP
ffffc0
800040
800040
800040
b0c640
b0c640
800040
800040
ffffc0
ENDCHAR
STARTCHAR ordmasculine
ENCODING 188
SWIDTH 900 0
DWIDTH 22 0
BBX 8 18 7 -3
BITMAP
ff
81
99
99
81
81
81
81
99
99
81
81
81
99
99
81
81
ff
ENDCHAR
STARTCHAR Omega
ENCODING 189
SWIDTH 900 0
DWIDTH 22 0
BBX 18 18 2 -3
BITMAP
f80000
840000
820000
818000
ce4000
642000
301000
180800
0ce400
060200
030100
018480
00ce40
006000
003000
001800
000c00
0007c0
ENDCHAR
STARTCHAR ae
ENCODING 190
SWIDTH 364 0
DWIDTH 9 0
BBX 7 9 1 8
BITMAP
10
10
fe
10
10
10
10
10
10
ENDCHAR
STARTCHAR oslash
ENCODING 191
SWIDTH 263 0
DWIDTH 6 0
BBX 0 0 0 0
BITMAP
ENDCHAR
STARTCHAR questiondown
ENCODING 192
SWIDTH 263 0
DWIDTH 6 0
BBX 0 0 0 0
BITMAP
ENDCHAR
STARTCHAR exclamdown
ENCODING 193
SWIDTH 263 0
DWIDTH 6 0
BBX 0 0 0 0
BITMAP
ENDCHAR
STARTCHAR logicalnot
ENCODING 194
SWIDTH 263 0
DWIDTH 6 0
BBX 0 0 0 0
BITMAP
ENDCHAR
STARTCHAR radical
ENCODING 195
SWIDTH 263 0
DWIDTH 6 0
BBX 0 0 0 0
BITMAP
ENDCHAR
STARTCHAR florin
ENCODING 196
SWIDTH 263 0
DWIDTH 6 0
BBX 0 0 0 0
BITMAP
ENDCHAR
STARTCHAR approxequal
ENCODING 197
SWIDTH 263 0
DWIDTH 6 0
BBX 0 0 0 0
BITMAP
ENDCHAR
STARTCHAR Delta
ENCODING 198
SWIDTH 263 0
DWIDTH 6 0
BBX 0 0 0 0
BITMAP
ENDCHAR
STARTCHAR guillemotleft
ENCODING 199
SWIDTH 263 0
DWIDTH 6 0
BBX 0 0 0 0
BITMAP
ENDCHAR
STARTCHAR guillemotright
ENCODING 200
SWIDTH 263 0
DWIDTH 6 0
BBX 0 0 0 0
BITMAP
ENDCHAR
STARTCHAR ellipsis
ENCODING 201
SWIDTH 263 0
DWIDTH 6 0
BBX 0 0 0 0
BITMAP
ENDCHAR
STARTCHAR nbspace
ENCODING 202
SWIDTH 263 0
DWIDTH 6 0
BBX 0 0 0 0
BITMAP
ENDCHAR
STARTCHAR Agrave
ENCODING 203
SWIDTH 263 0
DWIDTH 6 0
BBX 0 0 0 0
BITMAP
ENDCHAR
STARTCHAR Atilde
ENCODING 204
SWIDTH 263 0
DWIDTH 6 0
BBX 0 0 0 0
BITMAP
ENDCHAR
STARTCHAR Otilde
ENCODING 205
SWIDTH 263 0
DWIDTH 6 0
BBX 0 0 0 0
BITMAP
ENDCHAR
STARTCHAR parenright
ENCODING 206
SWIDTH 263 0
DWIDTH 6 0
BBX 0 0 0 0
BITMAP
ENDCHAR
STARTCHAR oe
ENCODING 207
SWIDTH 263 0
DWIDTH 6 0
BBX 0 0 0 0
BITMAP
ENDCHAR
STARTCHAR endash
ENCODING 208
SWIDTH 263 0
DWIDTH 6 0
BBX 0 0 0 0
BITMAP
ENDCHAR
STARTCHAR emdash
ENCODING 209
SWIDTH 263 0
DWIDTH 6 0
BBX 0 0 0 0
BITMAP
ENDCHAR
STARTCHAR quotedblleft
ENCODING 210
SWIDTH 263 0
DWIDTH 6 0
BBX 0 0 0 0
BITMAP
ENDCHAR
STARTCHAR quotedblright
ENCODING 211
SWIDTH 263 0
DWIDTH 6 0
BBX 0 0 0 0
BITMAP
ENDCHAR
STARTCHAR quoteleft
ENCODING 212
SWIDTH 263 0
DWIDTH 6 0
BBX 0 0 0 0
BITMAP
ENDCHAR
STARTCHAR quoteright
ENCODING 213
SWIDTH 263 0
DWIDTH 6 0
BBX 0 0 0 0
BITMAP
ENDCHAR
STARTCHAR divide
ENCODING 214
SWIDTH 263 0
DWIDTH 6 0
BBX 0 0 0 0
BITMAP
ENDCHAR
STARTCHAR lozenge
ENCODING 215
SWIDTH 263 0
DWIDTH 6 0
BBX 0 0 0 0
BITMAP
ENDCHAR
STARTCHAR ydieresis
ENCODING 216
SWIDTH 263 0
DWIDTH 6 0
BBX 0 0 0 0
BITMAP
ENDCHAR
STARTCHAR Ydieresis
ENCODING 217
SWIDTH 263 0
DWIDTH 6 0
BBX 0 0 0 0
BITMAP
ENDCHAR
STARTCHAR fraction
ENCODING 218
SWIDTH 263 0
DWIDTH 6 0
BBX 0 0 0 0
BITMAP
ENDCHAR
STARTCHAR currency
ENCODING 219
SWIDTH 263 0
DWIDTH 6 0
BBX 0 0 0 0
BITMAP
ENDCHAR
STARTCHAR guilsinglleft
ENCODING 220
SWIDTH 263 0
DWIDTH 6 0
BBX 0 0 0 0
BITMAP
ENDCHAR
STARTCHAR guilsinglright
ENCODING 221
SWIDTH 263 0
DWIDTH 6 0
BBX 0 0 0 0
BITMAP
ENDCHAR
STARTCHAR fi
ENCODING 222
SWIDTH 263 0
DWIDTH 6 0
BBX 0 0 0 0
BITMAP
ENDCHAR
STARTCHAR fl
ENCODING 223
SWIDTH 263 0
DWIDTH 6 0
BBX 0 0 0 0
BITMAP
ENDCHAR
STARTCHAR daggerdbl
ENCODING 224
SWIDTH 263 0
DWIDTH 6 0
BBX 0 0 0 0
BITMAP
ENDCHAR
STARTCHAR periodcentered
ENCODING 225
SWIDTH 263 0
DWIDTH 6 0
BBX 0 0 0 0
BITMAP
ENDCHAR
STARTCHAR quotesinglbase
ENCODING 226
SWIDTH 263 0
DWIDTH 6 0
BBX 0 0 0 0
BITMAP
ENDCHAR
STARTCHAR quotedblbase
ENCODING 227
SWIDTH 263 0
DWIDTH 6 0
BBX 0 0 0 0
BITMAP
ENDCHAR
STARTCHAR perthousand
ENCODING 228
SWIDTH 263 0
DWIDTH 6 0
BBX 0 0 0 0
BITMAP
ENDCHAR
STARTCHAR Acircumflex
ENCODING 229
SWIDTH 263 0
DWIDTH 6 0
BBX 0 0 0 0
BITMAP
ENDCHAR
STARTCHAR Ecircumflex
ENCODING 230
SWIDTH 263 0
DWIDTH 6 0
BBX 0 0 0 0
BITMAP
ENDCHAR
STARTCHAR Aacute
ENCODING 231
SWIDTH 263 0
DWIDTH 6 0
BBX 0 0 0 0
BITMAP
ENDCHAR
STARTCHAR Edieresis
ENCODING 232
SWIDTH 263 0
DWIDTH 6 0
BBX 0 0 0 0
BITMAP
ENDCHAR
STARTCHAR Egrave
ENCODING 233
SWIDTH 263 0
DWIDTH 6 0
BBX 0 0 0 0
BITMAP
ENDCHAR
STARTCHAR Iacute
ENCODING 234
SWIDTH 263 0
DWIDTH 6 0
BBX 0 0 0 0
BITMAP
ENDCHAR
STARTCHAR Icircumflex
ENCODING 235
SWIDTH 263 0
DWIDTH 6 0
BBX 0 0 0 0
BITMAP
ENDCHAR
STARTCHAR Idieresis
ENCODING 236
SWIDTH 263 0
DWIDTH 6 0
BBX 0 0 0 0
BITMAP
ENDCHAR
STARTCHAR Igrave
ENCODING 237
SWIDTH 263 0
DWIDTH 6 0
BBX 0 0 0 0
BITMAP
ENDCHAR
STARTCHAR Oacute
ENCODING 238
SWIDTH 263 0
DWIDTH 6 0
BBX 0 0 0 0
BITMAP
ENDCHAR
STARTCHAR Ocircumflex
ENCODING 239
SWIDTH 263 0
DWIDTH 6 0
BBX 0 0 0 0
BITMAP
ENDCHAR
STARTCHAR apple
ENCODING 240
SWIDTH 263 0
DWIDTH 6 0
BBX 0 0 0 0
BITMAP
ENDCHAR
STARTCHAR Ograve
ENCODING 241
SWIDTH 263 0
DWIDTH 6 0
BBX 0 0 0 0
BITMAP
ENDCHAR
STARTCHAR Uacute
ENCODING 242
SWIDTH 263 0
DWIDTH 6 0
BBX 0 0 0 0
BITMAP
ENDCHAR
STARTCHAR Ucircumflex
ENCODING 243
SWIDTH 263 0
DWIDTH 6 0
BBX 0 0 0 0
BITMAP
ENDCHAR
STARTCHAR Ugrave
ENCODING 244
SWIDTH 263 0
DWIDTH 6 0
BBX 0 0 0 0
BITMAP
ENDCHAR
STARTCHAR dotlessi
ENCODING 245
SWIDTH 263 0
DWIDTH 6 0
BBX 0 0 0 0
BITMAP
ENDCHAR
STARTCHAR circumflex
ENCODING 246
SWIDTH 263 0
DWIDTH 6 0
BBX 0 0 0 0
BITMAP
ENDCHAR
STARTCHAR CurlyQuote
ENCODING 247
SWIDTH 600 0
DWIDTH 14 0
BBX 3 5 5 8
BITMAP
e0
e0
60
40
80
ENDCHAR
STARTCHAR CurlyDblQuote
ENCODING 248
SWIDTH 600 0
DWIDTH 14 0
BBX 7 5 3 8
BITMAP
ee
ee
66
44
88
ENDCHAR
STARTCHAR CurlyBackQuote
ENCODING 249
SWIDTH 600 0
DWIDTH 14 0
BBX 3 5 7 8
BITMAP
20
40
c0
e0
e0
ENDCHAR
STARTCHAR CurlyDblBackQuote
ENCODING 250
SWIDTH 600 0
DWIDTH 14 0
BBX 7 5 4 8
BITMAP
22
44
cc
ee
ee
ENDCHAR
STARTCHAR StrikeCircle
ENCODING 251
SWIDTH 600 0
DWIDTH 12 0
BBX 12 11 0 0
BITMAP
1f80
2040
4020
8010
8010
8010
8010
8010
4020
2040
1f80
ENDCHAR
STARTCHAR StrikeSquare
ENCODING 252
SWIDTH 600 0
DWIDTH 12 0
BBX 11 11 0 0
BITMAP
ffe0
8020
8020
8020
8020
8020
8020
8020
8020
8020
ffe0
ENDCHAR
STARTCHAR StrikeTriangle
ENCODING 253
SWIDTH 600 0
DWIDTH 12 0
BBX 11 11 0 0
BITMAP
0400
0400
0a00
0a00
1100
1100
2080
2080
4040
4040
ffe0
ENDCHAR
STARTCHAR MathLogo1
ENCODING 254
SWIDTH 2776 0
DWIDTH 57 0
BBX 57 14 0 0
BITMAP
1e03c00000000000
0607000000000000
0605021fff9f7f80
0a09021113041080
0a09062112041080
0a110b0102042000
11110b0102042200
1122110204082200
1122110207f83c00
21421f0204082400
21c2218204082000
2182218604186080
2186408604184100
f11ff3ff1f7dff00
ENDCHAR
STARTCHAR MathLogo2
ENCODING 255
SWIDTH 2981 0
DWIDTH 61 0
BBX 58 12 1 0
BITMAP
1c0f087fdf0e8400
0c0c0c4444118600
0c140c8444208600
16243c0404400e00
1624240404401200
164444040c801200
2248460c08802200
22887e0808803f00
2288860808804300
2308860818814100
4309020818428100
f23fcfbe7c3fe7c0
ENDCHAR
ENDFONT
