STARTFONT 2.1
FONT -WRI-Mathematica4Mono-Medium-R-Normal--17-170-75-75-M-130-Adobe-FontSpecific
SIZE 17 75 75
FONTBOUNDINGBOX 46 19 -1 -5
STARTPROPERTIES 16
FOUNDRY "WRI"
FAMILY_NAME "Mathematica4Mono"
WEIGHT_NAME "Medium"
SLANT "R"
SETWIDTH_NAME "Normal"
PIXEL_SIZE 17
POINT_SIZE 170
RESOLUTION_X 75
RESOLUTION_Y 75
SPACING "M"
AVERAGE_WIDTH 130
CHARSET_REGISTRY "Adobe"
CHARSET_ENCODING "FontSpecific"
FONT_DESCENT 5
FONT_ASCENT 14
DEFAULT_CHAR 32
ENDPROPERTIES
CHARS 224
STARTCHAR space
ENCODING 32
SWIDTH 263 0
DWIDTH 4 0
BBX 0 0 0 0
BITMAP
ENDCHAR
STARTCHAR RArrowBar
ENCODING 33
SWIDTH 757 0
DWIDTH 13 0
BBX 11 7 1 0
BITMAP
0220
0120
00a0
ffe0
00a0
0120
0220
ENDCHAR
STARTCHAR LTackArrow
ENCODING 34
SWIDTH 757 0
DWIDTH 13 0
BBX 11 7 1 0
BITMAP
1020
2020
4020
ffe0
4020
2020
1020
ENDCHAR
STARTCHAR RTackArrow
ENCODING 35
SWIDTH 757 0
DWIDTH 13 0
BBX 11 7 1 0
BITMAP
8100
8080
8040
ffe0
8040
8080
8100
ENDCHAR
STARTCHAR UpArrowBar
ENCODING 36
SWIDTH 600 0
DWIDTH 10 0
BBX 7 12 2 0
BITMAP
fe
10
38
54
92
10
10
10
10
10
10
10
ENDCHAR
STARTCHAR DownArrowBar
ENCODING 37
SWIDTH 600 0
DWIDTH 10 0
BBX 7 12 2 0
BITMAP
10
10
10
10
10
10
10
92
54
38
10
fe
ENDCHAR
STARTCHAR UpTackArrow
ENCODING 38
SWIDTH 600 0
DWIDTH 10 0
BBX 7 12 2 0
BITMAP
10
38
54
92
10
10
10
10
10
10
10
fe
ENDCHAR
STARTCHAR DownTackArrow
ENCODING 39
SWIDTH 600 0
DWIDTH 10 0
BBX 7 12 2 0
BITMAP
fe
10
10
10
10
10
10
10
92
54
38
10
ENDCHAR
STARTCHAR LVectorBar
ENCODING 40
SWIDTH 757 0
DWIDTH 13 0
BBX 11 7 1 0
BITMAP
8800
9000
a000
ffe0
8000
8000
8000
ENDCHAR
STARTCHAR RVectorBar
ENCODING 41
SWIDTH 757 0
DWIDTH 13 0
BBX 11 7 1 0
BITMAP
0220
0120
00a0
ffe0
0020
0020
0020
ENDCHAR
STARTCHAR DownLVectorBar
ENCODING 42
SWIDTH 757 0
DWIDTH 13 0
BBX 11 7 1 0
BITMAP
8000
8000
8000
ffe0
a000
9000
8800
ENDCHAR
STARTCHAR DownRVectorBar
ENCODING 43
SWIDTH 757 0
DWIDTH 13 0
BBX 11 7 1 0
BITMAP
0020
0020
0020
ffe0
00a0
0120
0220
ENDCHAR
STARTCHAR LTackVector
ENCODING 44
SWIDTH 757 0
DWIDTH 13 0
BBX 11 7 1 0
BITMAP
1020
2020
4020
ffe0
0020
0020
0020
ENDCHAR
STARTCHAR RTackVector
ENCODING 45
SWIDTH 757 0
DWIDTH 13 0
BBX 11 7 1 0
BITMAP
8100
8080
8040
ffe0
8000
8000
8000
ENDCHAR
STARTCHAR DownLTackVector
ENCODING 46
SWIDTH 757 0
DWIDTH 13 0
BBX 11 7 1 0
BITMAP
0020
0020
0020
ffe0
4020
2020
1020
ENDCHAR
STARTCHAR DownRTackVector
ENCODING 47
SWIDTH 757 0
DWIDTH 13 0
BBX 11 7 1 0
BITMAP
8000
8000
8000
ffe0
8040
8080
8100
ENDCHAR
STARTCHAR LVector
ENCODING 48
SWIDTH 720 0
DWIDTH 12 0
BBX 11 4 1 3
BITMAP
1000
2000
4000
ffe0
ENDCHAR
STARTCHAR RVector
ENCODING 49
SWIDTH 720 0
DWIDTH 12 0
BBX 11 4 1 3
BITMAP
0100
0080
0040
ffe0
ENDCHAR
STARTCHAR LRVector
ENCODING 50
SWIDTH 790 0
DWIDTH 13 0
BBX 12 4 1 3
BITMAP
1080
2040
4020
fff0
ENDCHAR
STARTCHAR DownLVector
ENCODING 51
SWIDTH 720 0
DWIDTH 12 0
BBX 11 4 1 0
BITMAP
ffe0
4000
2000
1000
ENDCHAR
STARTCHAR DownRVector
ENCODING 52
SWIDTH 720 0
DWIDTH 12 0
BBX 11 4 1 0
BITMAP
ffe0
0040
0080
0100
ENDCHAR
STARTCHAR DownLRVector
ENCODING 53
SWIDTH 790 0
DWIDTH 13 0
BBX 12 4 1 0
BITMAP
fff0
4020
2040
1080
ENDCHAR
STARTCHAR LUpDownVector
ENCODING 54
SWIDTH 600 0
DWIDTH 10 0
BBX 4 12 2 0
BITMAP
10
30
50
90
10
10
10
10
90
50
30
10
ENDCHAR
STARTCHAR RUpDownVector
ENCODING 55
SWIDTH 600 0
DWIDTH 10 0
BBX 4 12 5 0
BITMAP
80
c0
a0
90
80
80
80
80
90
a0
c0
80
ENDCHAR
STARTCHAR LUpVectorBar
ENCODING 56
SWIDTH 600 0
DWIDTH 10 0
BBX 7 12 2 0
BITMAP
fe
10
30
50
90
10
10
10
10
10
10
10
ENDCHAR
STARTCHAR LDownVectorBar
ENCODING 57
SWIDTH 600 0
DWIDTH 10 0
BBX 7 12 2 0
BITMAP
10
10
10
10
10
10
10
90
50
30
10
fe
ENDCHAR
STARTCHAR RUpVectorBar
ENCODING 58
SWIDTH 600 0
DWIDTH 10 0
BBX 7 12 2 0
BITMAP
fe
10
18
14
12
10
10
10
10
10
10
10
ENDCHAR
STARTCHAR RDownVectorBar
ENCODING 59
SWIDTH 600 0
DWIDTH 10 0
BBX 7 12 2 0
BITMAP
10
10
10
10
10
10
10
12
14
18
10
fe
ENDCHAR
STARTCHAR LUpTackVector
ENCODING 60
SWIDTH 600 0
DWIDTH 10 0
BBX 7 12 2 0
BITMAP
10
30
50
90
10
10
10
10
10
10
10
fe
ENDCHAR
STARTCHAR LDownTackVector
ENCODING 61
SWIDTH 600 0
DWIDTH 10 0
BBX 7 12 2 0
BITMAP
fe
10
10
10
10
10
10
10
90
50
30
10
ENDCHAR
STARTCHAR RUpTackVector
ENCODING 62
SWIDTH 600 0
DWIDTH 10 0
BBX 7 12 2 0
BITMAP
10
18
14
12
10
10
10
10
10
10
10
fe
ENDCHAR
STARTCHAR RDownTackVector
ENCODING 63
SWIDTH 600 0
DWIDTH 10 0
BBX 7 12 2 0
BITMAP
fe
10
10
10
10
10
10
10
12
14
18
10
ENDCHAR
STARTCHAR LUpVector
ENCODING 64
SWIDTH 600 0
DWIDTH 10 0
BBX 4 11 2 0
BITMAP
10
30
50
90
10
10
10
10
10
10
10
ENDCHAR
STARTCHAR ExtensUp1
ENCODING 65
SWIDTH 600 0
DWIDTH 10 0
BBX 1 3 5 0
BITMAP
80
80
80
ENDCHAR
STARTCHAR LDownVector
ENCODING 66
SWIDTH 600 0
DWIDTH 10 0
BBX 4 11 2 0
BITMAP
10
10
10
10
10
10
10
90
50
30
10
ENDCHAR
STARTCHAR RUpVector
ENCODING 67
SWIDTH 600 0
DWIDTH 10 0
BBX 4 11 5 0
BITMAP
80
c0
a0
90
80
80
80
80
80
80
80
ENDCHAR
STARTCHAR ExtensUp2
ENCODING 68
SWIDTH 600 0
DWIDTH 10 0
BBX 1 3 5 0
BITMAP
80
80
80
ENDCHAR
STARTCHAR RDownVector
ENCODING 69
SWIDTH 600 0
DWIDTH 10 0
BBX 4 11 5 0
BITMAP
80
80
80
80
80
80
80
90
a0
c0
80
ENDCHAR
STARTCHAR Equilibrium
ENCODING 70
SWIDTH 720 0
DWIDTH 12 0
BBX 11 10 1 -1
BITMAP
0100
0080
0040
ffe0
0000
0000
ffe0
4000
2000
1000
ENDCHAR
STARTCHAR RvrsEquilibrium
ENCODING 71
SWIDTH 720 0
DWIDTH 12 0
BBX 11 10 1 -1
BITMAP
1000
2000
4000
ffe0
0000
0000
ffe0
0040
0080
0100
ENDCHAR
STARTCHAR EquilbrmHeadL
ENCODING 72
SWIDTH 262 0
DWIDTH 4 0
BBX 4 7 1 -1
BITMAP
e0
00
00
e0
40
20
10
ENDCHAR
STARTCHAR EquilbrmheadR
ENCODING 73
SWIDTH 262 0
DWIDTH 4 0
BBX 4 7 0 2
BITMAP
80
40
20
f0
00
00
f0
ENDCHAR
STARTCHAR RvrsEquilbrmHeadL
ENCODING 74
SWIDTH 262 0
DWIDTH 4 0
BBX 4 7 1 2
BITMAP
10
20
40
e0
00
00
e0
ENDCHAR
STARTCHAR RvrsEquilbrmHeadR
ENCODING 75
SWIDTH 262 0
DWIDTH 4 0
BBX 4 7 0 -1
BITMAP
f0
00
00
f0
20
40
80
ENDCHAR
STARTCHAR UpEquilibrium
ENCODING 76
SWIDTH 600 0
DWIDTH 10 0
BBX 10 11 0 0
BITMAP
1200
3200
5200
9200
1200
1200
1200
1240
1280
1300
1200
ENDCHAR
STARTCHAR RvrsUpEquilibrium
ENCODING 77
SWIDTH 600 0
DWIDTH 10 0
BBX 10 11 0 0
BITMAP
1200
1300
1280
1240
1200
1200
1200
9200
5200
3200
1200
ENDCHAR
STARTCHAR LArrowHookUp
ENCODING 78
SWIDTH 720 0
DWIDTH 12 0
BBX 11 7 1 0
BITMAP
10c0
2020
4020
ffc0
4000
2000
1000
ENDCHAR
STARTCHAR RArrowHookUp
ENCODING 79
SWIDTH 720 0
DWIDTH 12 0
BBX 11 7 1 0
BITMAP
6100
8080
8040
7fe0
0040
0080
0100
ENDCHAR
STARTCHAR LArrow
ENCODING 80
SWIDTH 720 0
DWIDTH 12 0
BBX 11 7 1 0
BITMAP
1000
2000
4000
ffe0
4000
2000
1000
ENDCHAR
STARTCHAR Extens
ENCODING 81
SWIDTH 200 0
DWIDTH 3 0
BBX 4 1 0 3
BITMAP
f0
ENDCHAR
STARTCHAR LeftTackBase
ENCODING 82
SWIDTH 114 0
DWIDTH 2 0
BBX 2 7 0 0
BITMAP
40
40
40
c0
40
40
40
ENDCHAR
STARTCHAR RightTackBase
ENCODING 83
SWIDTH 114 0
DWIDTH 2 0
BBX 2 7 0 0
BITMAP
80
80
80
c0
80
80
80
ENDCHAR
STARTCHAR RArrow
ENCODING 84
SWIDTH 720 0
DWIDTH 12 0
BBX 11 7 1 0
BITMAP
0100
0080
0040
ffe0
0040
0080
0100
ENDCHAR
STARTCHAR RUpVector2
ENCODING 85
SWIDTH 600 0
DWIDTH 10 0
BBX 4 11 5 0
BITMAP
80
c0
a0
90
80
80
80
80
80
80
80
ENDCHAR
STARTCHAR RArrowLArrow
ENCODING 86
SWIDTH 720 0
DWIDTH 12 0
BBX 11 8 1 0
BITMAP
0080
0040
ffe0
2040
4080
ffe0
4000
2000
ENDCHAR
STARTCHAR LArrowRArrow
ENCODING 87
SWIDTH 720 0
DWIDTH 12 0
BBX 11 8 1 0
BITMAP
2000
4000
ffe0
4080
2040
ffe0
0040
0080
ENDCHAR
STARTCHAR RArrowLArrowHeadL
ENCODING 88
SWIDTH 213 0
DWIDTH 4 0
BBX 3 6 1 0
BITMAP
e0
20
40
e0
40
20
ENDCHAR
STARTCHAR RArrowLArrowHeadR
ENCODING 89
SWIDTH 213 0
DWIDTH 4 0
BBX 3 6 0 2
BITMAP
80
40
e0
40
80
e0
ENDCHAR
STARTCHAR LArrowRArrowHeadL
ENCODING 90
SWIDTH 213 0
DWIDTH 4 0
BBX 3 6 1 2
BITMAP
20
40
e0
40
20
e0
ENDCHAR
STARTCHAR LArrowRArrowHeadR
ENCODING 91
SWIDTH 213 0
DWIDTH 4 0
BBX 3 6 0 0
BITMAP
e0
80
40
e0
40
80
ENDCHAR
STARTCHAR UpArrowDownArrow
ENCODING 92
SWIDTH 600 0
DWIDTH 10 0
BBX 8 11 1 0
BITMAP
24
74
ac
24
24
24
24
24
35
2e
24
ENDCHAR
STARTCHAR DownArrowUpArrow
ENCODING 93
SWIDTH 600 0
DWIDTH 10 0
BBX 8 11 1 0
BITMAP
24
2e
35
24
24
24
24
24
ac
74
24
ENDCHAR
STARTCHAR VertExt1
ENCODING 94
SWIDTH 600 0
DWIDTH 10 0
BBX 1 3 5 0
BITMAP
80
80
80
ENDCHAR
STARTCHAR HorizExt1
ENCODING 95
SWIDTH 200 0
DWIDTH 3 0
BBX 4 1 0 0
BITMAP
f0
ENDCHAR
STARTCHAR UpArrow
ENCODING 96
SWIDTH 600 0
DWIDTH 10 0
BBX 7 11 2 0
BITMAP
10
38
54
92
10
10
10
10
10
10
10
ENDCHAR
STARTCHAR UpTackBase
ENCODING 97
SWIDTH 600 0
DWIDTH 10 0
BBX 7 2 2 0
BITMAP
10
fe
ENDCHAR
STARTCHAR DownTackBase
ENCODING 98
SWIDTH 600 0
DWIDTH 10 0
BBX 7 2 2 0
BITMAP
fe
10
ENDCHAR
STARTCHAR DownArrow
ENCODING 99
SWIDTH 600 0
DWIDTH 10 0
BBX 7 11 2 0
BITMAP
10
10
10
10
10
10
10
92
54
38
10
ENDCHAR
STARTCHAR RDownVector2
ENCODING 100
SWIDTH 600 0
DWIDTH 10 0
BBX 4 11 5 0
BITMAP
80
80
80
80
80
80
80
90
a0
c0
80
ENDCHAR
STARTCHAR UpEquilbrmHeadBttm
ENCODING 101
SWIDTH 600 0
DWIDTH 10 0
BBX 7 4 3 0
BITMAP
92
94
98
90
ENDCHAR
STARTCHAR DblUpExtens2
ENCODING 102
SWIDTH 600 0
DWIDTH 10 0
BBX 4 3 3 0
BITMAP
90
90
90
ENDCHAR
STARTCHAR RvrsUpEquilbrmHeadTop
ENCODING 103
SWIDTH 600 0
DWIDTH 10 0
BBX 7 4 3 0
BITMAP
90
98
94
92
ENDCHAR
STARTCHAR UpEquilbrmHeadTop
ENCODING 104
SWIDTH 600 0
DWIDTH 10 0
BBX 7 4 0 0
BITMAP
12
32
52
92
ENDCHAR
STARTCHAR DblUpExtens1
ENCODING 105
SWIDTH 600 0
DWIDTH 10 0
BBX 4 3 3 0
BITMAP
90
90
90
ENDCHAR
STARTCHAR RvrsUpEquilbrmHeadBttm
ENCODING 106
SWIDTH 600 0
DWIDTH 10 0
BBX 7 4 0 0
BITMAP
92
52
32
12
ENDCHAR
STARTCHAR UpArrwDwnArrwBttm
ENCODING 107
SWIDTH 600 0
DWIDTH 10 0
BBX 6 3 3 0
BITMAP
d4
b8
90
ENDCHAR
STARTCHAR DwnArrwUpArrwTop
ENCODING 108
SWIDTH 600 0
DWIDTH 10 0
BBX 6 3 3 0
BITMAP
90
b8
d4
ENDCHAR
STARTCHAR UpArrwDwnArrwTop
ENCODING 109
SWIDTH 600 0
DWIDTH 10 0
BBX 6 3 1 0
BITMAP
24
74
ac
ENDCHAR
STARTCHAR DwnArrwUpArrwBttm
ENCODING 110
SWIDTH 600 0
DWIDTH 10 0
BBX 6 3 1 0
BITMAP
ac
74
24
ENDCHAR
STARTCHAR DblExtens
ENCODING 111
SWIDTH 200 0
DWIDTH 3 0
BBX 4 4 0 2
BITMAP
f0
00
00
f0
ENDCHAR
STARTCHAR OverBracket1
ENCODING 112
SWIDTH 838 0
DWIDTH 14 0
BBX 14 3 0 0
BITMAP
fffc
8004
8004
ENDCHAR
STARTCHAR OverBracket2
ENCODING 113
SWIDTH 1438 0
DWIDTH 24 0
BBX 24 3 0 0
BITMAP
ffffff
800001
800001
ENDCHAR
STARTCHAR OverBracket3
ENCODING 114
SWIDTH 2038 0
DWIDTH 35 0
BBX 35 3 0 0
BITMAP
ffffffffe0
8000000020
8000000020
ENDCHAR
STARTCHAR OverBracket4
ENCODING 115
SWIDTH 2638 0
DWIDTH 45 0
BBX 45 3 0 0
BITMAP
fffffffffff8
800000000008
800000000008
ENDCHAR
STARTCHAR OverBracketExt1
ENCODING 116
SWIDTH 300 0
DWIDTH 5 0
BBX 5 3 0 0
BITMAP
f8
80
80
ENDCHAR
STARTCHAR OverBracketExt2
ENCODING 117
SWIDTH 300 0
DWIDTH 5 0
BBX 5 1 0 2
BITMAP
f8
ENDCHAR
STARTCHAR OverBracketExt3
ENCODING 118
SWIDTH 300 0
DWIDTH 5 0
BBX 5 3 0 0
BITMAP
f8
08
08
ENDCHAR
STARTCHAR ShortUpArrow
ENCODING 119
SWIDTH 600 0
DWIDTH 10 0
BBX 7 9 2 0
BITMAP
10
38
54
92
10
10
10
10
10
ENDCHAR
STARTCHAR ShortDownArrow
ENCODING 120
SWIDTH 600 0
DWIDTH 10 0
BBX 7 9 2 0
BITMAP
10
10
10
10
10
92
54
38
10
ENDCHAR
STARTCHAR ShortLArrow
ENCODING 121
SWIDTH 600 0
DWIDTH 10 0
BBX 9 7 1 0
BITMAP
1000
2000
4000
ff80
4000
2000
1000
ENDCHAR
STARTCHAR ShortRArrow
ENCODING 122
SWIDTH 600 0
DWIDTH 10 0
BBX 9 7 1 0
BITMAP
0400
0200
0100
ff80
0100
0200
0400
ENDCHAR
STARTCHAR LArrowBar
ENCODING 123
SWIDTH 757 0
DWIDTH 13 0
BBX 11 7 1 0
BITMAP
8800
9000
a000
ffe0
a000
9000
8800
ENDCHAR
STARTCHAR Dash
ENCODING 124
SWIDTH 600 0
DWIDTH 10 0
BBX 4 1 3 3
BITMAP
f0
ENDCHAR
STARTCHAR LongDash
ENCODING 125
SWIDTH 600 0
DWIDTH 10 0
BBX 8 1 1 3
BITMAP
ff
ENDCHAR
STARTCHAR DivisionBarExtens
ENCODING 126
SWIDTH 600 0
DWIDTH 10 0
BBX 10 1 0 3
BITMAP
ffc0
ENDCHAR
STARTCHAR DEL
ENCODING 127
SWIDTH 263 0
DWIDTH 4 0
BBX 0 0 0 0
BITMAP
ENDCHAR
STARTCHAR UnderBracket1
ENCODING 128
SWIDTH 838 0
DWIDTH 14 0
BBX 14 3 0 0
BITMAP
8004
8004
fffc
ENDCHAR
STARTCHAR UnderBracket2
ENCODING 129
SWIDTH 1438 0
DWIDTH 24 0
BBX 24 3 0 0
BITMAP
800001
800001
ffffff
ENDCHAR
STARTCHAR UnderBracket3
ENCODING 130
SWIDTH 2038 0
DWIDTH 35 0
BBX 35 3 0 0
BITMAP
8000000020
8000000020
ffffffffe0
ENDCHAR
STARTCHAR UnderBracket4
ENCODING 131
SWIDTH 2638 0
DWIDTH 45 0
BBX 45 3 0 0
BITMAP
800000000008
800000000008
fffffffffff8
ENDCHAR
STARTCHAR UnderBracketExt1
ENCODING 132
SWIDTH 300 0
DWIDTH 5 0
BBX 5 3 0 0
BITMAP
80
80
f8
ENDCHAR
STARTCHAR UnderBracketExt2
ENCODING 133
SWIDTH 300 0
DWIDTH 5 0
BBX 5 1 0 0
BITMAP
f8
ENDCHAR
STARTCHAR UnderBracketExt3
ENCODING 134
SWIDTH 300 0
DWIDTH 5 0
BBX 5 3 0 0
BITMAP
08
08
f8
ENDCHAR
STARTCHAR LowerLeftArrow
ENCODING 135
SWIDTH 600 0
DWIDTH 10 0
BBX 8 8 1 0
BITMAP
01
02
04
88
90
a0
c0
f8
ENDCHAR
STARTCHAR UpperLeftArrow
ENCODING 136
SWIDTH 600 0
DWIDTH 10 0
BBX 8 8 1 0
BITMAP
f8
c0
a0
90
88
04
02
01
ENDCHAR
STARTCHAR UpperRightArrow
ENCODING 137
SWIDTH 600 0
DWIDTH 10 0
BBX 8 8 1 0
BITMAP
1f
03
05
09
11
20
40
80
ENDCHAR
STARTCHAR LowerRightArrow
ENCODING 138
SWIDTH 600 0
DWIDTH 10 0
BBX 8 8 1 0
BITMAP
80
40
20
11
09
05
03
1f
ENDCHAR
STARTCHAR LongLowerLeftArrow
ENCODING 139
SWIDTH 1054 0
DWIDTH 18 0
BBX 16 16 1 -3
BITMAP
0001
0002
0004
0008
0010
0020
0040
0080
0100
0200
0400
8800
9000
a000
c000
f800
ENDCHAR
STARTCHAR LongUpperLeftArrow
ENCODING 140
SWIDTH 1054 0
DWIDTH 18 0
BBX 16 16 1 -3
BITMAP
f800
c000
a000
9000
8800
0400
0200
0100
0080
0040
0020
0010
0008
0004
0002
0001
ENDCHAR
STARTCHAR LongUpperRightArrow
ENCODING 141
SWIDTH 1054 0
DWIDTH 18 0
BBX 16 16 1 -3
BITMAP
001f
0003
0005
0009
0011
0020
0040
0080
0100
0200
0400
0800
1000
2000
4000
8000
ENDCHAR
STARTCHAR LongLowerRightArrow
ENCODING 142
SWIDTH 1054 0
DWIDTH 18 0
BBX 16 16 1 -3
BITMAP
8000
4000
2000
1000
0800
0400
0200
0100
0080
0040
0020
0011
0009
0005
0003
001f
ENDCHAR
STARTCHAR Arrowhead
ENCODING 143
SWIDTH 600 0
DWIDTH 10 0
BBX 5 5 3 0
BITMAP
80
80
80
80
f8
ENDCHAR
STARTCHAR OverParen1
ENCODING 144
SWIDTH 838 0
DWIDTH 14 0
BBX 14 3 0 0
BITMAP
0fc0
7038
8004
ENDCHAR
STARTCHAR OverParen2
ENCODING 145
SWIDTH 1438 0
DWIDTH 24 0
BBX 24 3 0 0
BITMAP
0ffff0
70000e
800001
ENDCHAR
STARTCHAR OverParen3
ENCODING 146
SWIDTH 2038 0
DWIDTH 35 0
BBX 35 3 0 0
BITMAP
0ffffffe00
70000001c0
8000000020
ENDCHAR
STARTCHAR OverParen4
ENCODING 147
SWIDTH 2638 0
DWIDTH 45 0
BBX 45 3 0 0
BITMAP
0fffffffff80
700000000070
800000000008
ENDCHAR
STARTCHAR OverParenExt1
ENCODING 148
SWIDTH 600 0
DWIDTH 10 0
BBX 10 3 0 0
BITMAP
0fc0
7000
8000
ENDCHAR
STARTCHAR OverParenExt2
ENCODING 149
SWIDTH 300 0
DWIDTH 5 0
BBX 5 1 0 2
BITMAP
f8
ENDCHAR
STARTCHAR OverParenExt3
ENCODING 150
SWIDTH 600 0
DWIDTH 10 0
BBX 10 3 0 0
BITMAP
fc00
0380
0040
ENDCHAR
STARTCHAR OverBrace1
ENCODING 151
SWIDTH 838 0
DWIDTH 14 0
BBX 14 3 0 0
BITMAP
0100
7ef8
8004
ENDCHAR
STARTCHAR OverBrace2
ENCODING 152
SWIDTH 1438 0
DWIDTH 24 0
BBX 24 3 0 0
BITMAP
000800
7ff7fe
800001
ENDCHAR
STARTCHAR OverBrace3
ENCODING 153
SWIDTH 2038 0
DWIDTH 35 0
BBX 35 3 0 0
BITMAP
0000400000
7fffbfffc0
8000000020
ENDCHAR
STARTCHAR OverBrace4
ENCODING 154
SWIDTH 2638 0
DWIDTH 45 0
BBX 45 3 0 0
BITMAP
000002000000
7ffffdfffff0
800000000008
ENDCHAR
STARTCHAR OverBraceExt1
ENCODING 155
SWIDTH 300 0
DWIDTH 5 0
BBX 5 2 0 0
BITMAP
78
80
ENDCHAR
STARTCHAR OverBraceExt2
ENCODING 156
SWIDTH 300 0
DWIDTH 5 0
BBX 5 1 0 1
BITMAP
f8
ENDCHAR
STARTCHAR OverBraceExt3
ENCODING 157
SWIDTH 300 0
DWIDTH 5 0
BBX 5 2 0 1
BITMAP
20
d8
ENDCHAR
STARTCHAR OverBraceExt4
ENCODING 158
SWIDTH 300 0
DWIDTH 5 0
BBX 5 2 0 0
BITMAP
f0
08
ENDCHAR
STARTCHAR AngleArrowExtension45
ENCODING 159
SWIDTH 883 0
DWIDTH 15 0
BBX 4 4 5 0
BITMAP
10
20
40
80
ENDCHAR
STARTCHAR UnderParen1
ENCODING 160
SWIDTH 838 0
DWIDTH 14 0
BBX 14 3 0 0
BITMAP
8004
7038
0fc0
ENDCHAR
STARTCHAR UnderParen2
ENCODING 161
SWIDTH 1438 0
DWIDTH 24 0
BBX 24 3 0 0
BITMAP
800001
70000e
0ffff0
ENDCHAR
STARTCHAR UnderParen3
ENCODING 162
SWIDTH 2038 0
DWIDTH 35 0
BBX 35 3 0 0
BITMAP
8000000020
70000001c0
0ffffffe00
ENDCHAR
STARTCHAR UnderParen4
ENCODING 163
SWIDTH 2638 0
DWIDTH 45 0
BBX 45 3 0 0
BITMAP
800000000008
700000000070
0fffffffff80
ENDCHAR
STARTCHAR UnderParenExt1
ENCODING 164
SWIDTH 600 0
DWIDTH 10 0
BBX 10 3 0 0
BITMAP
8000
7000
0fc0
ENDCHAR
STARTCHAR UnderParenExt2
ENCODING 165
SWIDTH 300 0
DWIDTH 5 0
BBX 5 1 0 0
BITMAP
f8
ENDCHAR
STARTCHAR UnderParenExt3
ENCODING 166
SWIDTH 600 0
DWIDTH 10 0
BBX 10 3 0 0
BITMAP
0040
0380
fc00
ENDCHAR
STARTCHAR UnderBrace1
ENCODING 167
SWIDTH 838 0
DWIDTH 14 0
BBX 14 3 0 -1
BITMAP
8004
7ef8
0100
ENDCHAR
STARTCHAR UnderBrace2
ENCODING 168
SWIDTH 1438 0
DWIDTH 24 0
BBX 24 3 0 -1
BITMAP
800001
7ff7fe
000800
ENDCHAR
STARTCHAR UnderBrace3
ENCODING 169
SWIDTH 2038 0
DWIDTH 35 0
BBX 35 3 0 -1
BITMAP
8000000020
7fffbfffc0
0000400000
ENDCHAR
STARTCHAR UnderBrace4
ENCODING 170
SWIDTH 2638 0
DWIDTH 45 0
BBX 45 3 0 -1
BITMAP
800000000008
7ffffdfffff0
000002000000
ENDCHAR
STARTCHAR UnderBraceExt1
ENCODING 171
SWIDTH 300 0
DWIDTH 5 0
BBX 5 2 0 0
BITMAP
80
78
ENDCHAR
STARTCHAR UnderBraceExt2
ENCODING 172
SWIDTH 300 0
DWIDTH 5 0
BBX 5 1 0 0
BITMAP
f8
ENDCHAR
STARTCHAR UnderBraceExt3
ENCODING 173
SWIDTH 300 0
DWIDTH 5 0
BBX 5 2 0 -1
BITMAP
d8
20
ENDCHAR
STARTCHAR UnderBraceExt4
ENCODING 174
SWIDTH 300 0
DWIDTH 5 0
BBX 5 2 0 0
BITMAP
08
f0
ENDCHAR
STARTCHAR AngleArrowExtension135
ENCODING 175
SWIDTH 883 0
DWIDTH 15 0
BBX 4 4 5 0
BITMAP
80
40
20
10
ENDCHAR
STARTCHAR OverWedge1
ENCODING 176
SWIDTH 838 0
DWIDTH 14 0
BBX 15 4 0 0
BITMAP
0380
0c60
701c
8002
ENDCHAR
STARTCHAR OverWedge2
ENCODING 177
SWIDTH 1438 0
DWIDTH 24 0
BBX 25 3 0 0
BITMAP
007f0000
1f80fc00
e0000380
ENDCHAR
STARTCHAR OverWedge3
ENCODING 178
SWIDTH 2038 0
DWIDTH 35 0
BBX 35 3 0 0
BITMAP
0007fc0000
0ff803fe00
f0000001e0
ENDCHAR
STARTCHAR OverWedge4
ENCODING 179
SWIDTH 2638 0
DWIDTH 45 0
BBX 45 3 0 0
BITMAP
00007ff00000
03ff800ffe00
fc00000001f8
ENDCHAR
STARTCHAR Ellipsis
ENCODING 180
SWIDTH 600 0
DWIDTH 10 0
BBX 8 2 1 0
BITMAP
db
db
ENDCHAR
STARTCHAR CenterEllipsis
ENCODING 181
SWIDTH 600 0
DWIDTH 10 0
BBX 8 2 1 3
BITMAP
db
db
ENDCHAR
STARTCHAR VertEllipsis
ENCODING 182
SWIDTH 600 0
DWIDTH 10 0
BBX 2 8 4 0
BITMAP
c0
c0
00
c0
c0
00
c0
c0
ENDCHAR
STARTCHAR DiagEllipsis
ENCODING 183
SWIDTH 600 0
DWIDTH 10 0
BBX 8 8 1 0
BITMAP
03
03
00
18
18
00
c0
c0
ENDCHAR
STARTCHAR BackDiagEllipsis
ENCODING 184
SWIDTH 600 0
DWIDTH 10 0
BBX 8 8 1 0
BITMAP
c0
c0
00
18
18
00
03
03
ENDCHAR
STARTCHAR Ellipsis2
ENCODING 185
SWIDTH 988 0
DWIDTH 17 0
BBX 14 2 2 0
BITMAP
c30c
c30c
ENDCHAR
STARTCHAR CenterEllipsis2
ENCODING 186
SWIDTH 988 0
DWIDTH 17 0
BBX 14 2 2 3
BITMAP
c30c
c30c
ENDCHAR
STARTCHAR VertEllipsis2
ENCODING 187
SWIDTH 600 0
DWIDTH 10 0
BBX 2 14 4 0
BITMAP
c0
c0
00
00
00
00
c0
c0
00
00
00
00
c0
c0
ENDCHAR
STARTCHAR Dot
ENCODING 188
SWIDTH 327 0
DWIDTH 6 0
BBX 2 2 2 0
BITMAP
c0
c0
ENDCHAR
STARTCHAR CenterDot
ENCODING 189
SWIDTH 328 0
DWIDTH 6 0
BBX 2 2 2 3
BITMAP
c0
c0
ENDCHAR
STARTCHAR BackPrime
ENCODING 190
SWIDTH 371 0
DWIDTH 6 0
BBX 4 5 1 1
BITMAP
c0
40
20
20
10
ENDCHAR
STARTCHAR DblBackPrime
ENCODING 191
SWIDTH 569 0
DWIDTH 10 0
BBX 7 5 1 1
BITMAP
d8
48
24
24
12
ENDCHAR
STARTCHAR UnderVee1
ENCODING 192
SWIDTH 838 0
DWIDTH 14 0
BBX 15 4 0 0
BITMAP
8002
701c
0c60
0380
ENDCHAR
STARTCHAR UnderVee2
ENCODING 193
SWIDTH 1438 0
DWIDTH 24 0
BBX 25 3 0 0
BITMAP
e0000380
1f80fc00
007f0000
ENDCHAR
STARTCHAR UnderVee3
ENCODING 194
SWIDTH 2038 0
DWIDTH 35 0
BBX 35 3 0 0
BITMAP
f0000001e0
0ff803fe00
0007fc0000
ENDCHAR
STARTCHAR UnderVee4
ENCODING 195
SWIDTH 2638 0
DWIDTH 45 0
BBX 45 3 0 0
BITMAP
fc00000001f8
03ff800ffe00
00007ff00000
ENDCHAR
STARTCHAR UpPointer
ENCODING 196
SWIDTH 600 0
DWIDTH 10 0
BBX 7 4 2 2
BITMAP
10
38
7c
fe
ENDCHAR
STARTCHAR RightPointer
ENCODING 197
SWIDTH 600 0
DWIDTH 10 0
BBX 4 7 3 1
BITMAP
80
c0
e0
f0
e0
c0
80
ENDCHAR
STARTCHAR DownPointer
ENCODING 198
SWIDTH 600 0
DWIDTH 10 0
BBX 7 4 2 2
BITMAP
fe
7c
38
10
ENDCHAR
STARTCHAR LeftPointer
ENCODING 199
SWIDTH 600 0
DWIDTH 10 0
BBX 4 7 3 1
BITMAP
10
30
70
f0
70
30
10
ENDCHAR
STARTCHAR UpLHookExt
ENCODING 200
SWIDTH 199 0
DWIDTH 3 0
BBX 3 4 0 3
BITMAP
c0
20
20
c0
ENDCHAR
STARTCHAR UpRHookExt
ENCODING 201
SWIDTH 199 0
DWIDTH 3 0
BBX 3 4 0 3
BITMAP
60
80
80
60
ENDCHAR
STARTCHAR nbspace
ENCODING 202
SWIDTH 263 0
DWIDTH 4 0
BBX 0 0 0 0
BITMAP
ENDCHAR
STARTCHAR XBox
ENCODING 203
SWIDTH 600 0
DWIDTH 10 0
BBX 8 8 1 0
BITMAP
ff
c3
a5
99
99
a5
c3
ff
ENDCHAR
STARTCHAR SmileyFace
ENCODING 204
SWIDTH 600 0
DWIDTH 10 0
BBX 9 10 1 0
BITMAP
1c00
6300
4100
9480
8080
8080
9480
5d00
6300
1c00
ENDCHAR
STARTCHAR StraightFace
ENCODING 205
SWIDTH 600 0
DWIDTH 10 0
BBX 9 10 1 0
BITMAP
1c00
6300
4100
9480
8080
8080
9c80
4100
6300
1c00
ENDCHAR
STARTCHAR FrownFace
ENCODING 206
SWIDTH 600 0
DWIDTH 10 0
BBX 9 10 1 0
BITMAP
1c00
6300
4100
9480
8080
9c80
9480
4100
6300
1c00
ENDCHAR
STARTCHAR ShockFace
ENCODING 207
SWIDTH 600 0
DWIDTH 10 0
BBX 9 13 1 0
BITMAP
0800
4a00
0000
9c80
6300
4100
9480
8080
9c80
9480
5d00
6300
1c00
ENDCHAR
STARTCHAR Strike1
ENCODING 208
SWIDTH 600 0
DWIDTH 10 0
BBX 2 5 4 2
BITMAP
40
40
40
80
80
ENDCHAR
STARTCHAR Strike2
ENCODING 209
SWIDTH 600 0
DWIDTH 10 0
BBX 3 9 4 0
BITMAP
20
20
40
40
40
40
40
80
80
ENDCHAR
STARTCHAR Strike3
ENCODING 210
SWIDTH 600 0
DWIDTH 10 0
BBX 4 12 3 -2
BITMAP
10
10
20
20
20
20
40
40
40
40
80
80
ENDCHAR
STARTCHAR Strike4
ENCODING 211
SWIDTH 600 0
DWIDTH 10 0
BBX 4 13 3 -2
BITMAP
10
10
20
20
20
20
20
40
40
40
40
80
80
ENDCHAR
STARTCHAR Strike5
ENCODING 212
SWIDTH 600 0
DWIDTH 10 0
BBX 5 15 3 -2
BITMAP
08
08
10
10
10
10
20
20
20
40
40
40
40
80
80
ENDCHAR
STARTCHAR Strike6
ENCODING 213
SWIDTH 600 0
DWIDTH 10 0
BBX 5 17 3 -3
BITMAP
08
08
10
10
10
10
20
20
20
20
20
40
40
40
40
80
80
ENDCHAR
STARTCHAR KeyBar
ENCODING 214
SWIDTH 88 0
DWIDTH 2 0
BBX 4 2 -1 4
BITMAP
f0
f0
ENDCHAR
STARTCHAR DownLHookExt
ENCODING 215
SWIDTH 199 0
DWIDTH 3 0
BBX 3 4 0 0
BITMAP
c0
20
20
c0
ENDCHAR
STARTCHAR DownRHookExt
ENCODING 216
SWIDTH 199 0
DWIDTH 3 0
BBX 3 4 0 0
BITMAP
60
80
80
60
ENDCHAR
STARTCHAR Icos
ENCODING 217
SWIDTH 901 0
DWIDTH 15 0
BBX 13 12 1 -1
BITMAP
0020
3fe0
2960
18a0
37d8
ed48
a728
4278
3fb0
1760
3ae0
1dc0
ENDCHAR
STARTCHAR KernalIcon
ENCODING 218
SWIDTH 837 0
DWIDTH 14 0
BBX 13 13 0 -1
BITMAP
0f80
3060
6630
5dd0
99c8
97b8
ff48
b578
bab8
5750
6f30
3de0
0f80
ENDCHAR
STARTCHAR LightBulb
ENCODING 219
SWIDTH 612 0
DWIDTH 10 0
BBX 9 15 0 -2
BITMAP
0800
2a00
0000
9c80
2200
4100
4100
4100
2200
2200
1400
1400
0000
1c00
0800
ENDCHAR
STARTCHAR WarningSign
ENCODING 220
SWIDTH 660 0
DWIDTH 11 0
BBX 9 11 1 0
BITMAP
0800
1400
1400
1400
2a00
2a00
4900
4900
4100
8880
ff80
ENDCHAR
STARTCHAR WatchIcon
ENCODING 221
SWIDTH 597 0
DWIDTH 10 0
BBX 10 12 0 -1
BITMAP
3e00
3e00
3e00
4100
8880
88c0
98c0
8080
4100
3e00
3e00
3e00
ENDCHAR
STARTCHAR Cedilla
ENCODING 222
SWIDTH 600 0
DWIDTH 10 0
BBX 3 3 4 -3
BITMAP
60
20
e0
ENDCHAR
STARTCHAR Ogonek
ENCODING 223
SWIDTH 600 0
DWIDTH 10 0
BBX 2 3 4 -3
BITMAP
80
80
c0
ENDCHAR
STARTCHAR AltKey
ENCODING 224
SWIDTH 1174 0
DWIDTH 20 0
BBX 18 13 1 -2
BITMAP
ffffc0
800040
800040
889f40
888440
948440
948440
9c8440
a28440
a2e440
800040
800040
ffffc0
ENDCHAR
STARTCHAR CmdKey
ENCODING 225
SWIDTH 1318 0
DWIDTH 22 0
BBX 20 13 1 -2
BITMAP
fffff0
800010
800010
9f1b90
a71a50
a2aa50
a2aa50
a2aa50
a64a50
9e4b90
800010
800010
fffff0
ENDCHAR
STARTCHAR CtrlKey
ENCODING 226
SWIDTH 1379 0
DWIDTH 23 0
BBX 21 13 1 -2
BITMAP
fffff8
800008
800008
9ffe88
a49288
a09288
a09c88
a09288
a49288
9c92e8
800008
800008
fffff8
ENDCHAR
STARTCHAR DelKey
ENCODING 227
SWIDTH 1143 0
DWIDTH 19 0
BBX 17 13 1 -2
BITMAP
ffff80
800080
800080
9ce880
928880
928880
92e880
928880
928880
9cee80
800080
800080
ffff80
ENDCHAR
STARTCHAR EntKey
ENCODING 228
SWIDTH 1146 0
DWIDTH 19 0
BBX 17 13 1 -2
BITMAP
ffff80
800080
800080
9dbf80
91a480
91a480
9da480
916480
916480
9d6480
800080
800080
ffff80
ENDCHAR
STARTCHAR EscKey
ENCODING 229
SWIDTH 1146 0
DWIDTH 19 0
BBX 17 13 1 -2
BITMAP
ffff80
800080
800080
b98c80
a25280
a21080
b99080
a05080
a25280
b98c80
800080
800080
ffff80
ENDCHAR
STARTCHAR OptKey
ENCODING 230
SWIDTH 1187 0
DWIDTH 20 0
BBX 18 13 1 -2
BITMAP
ffffc0
800040
800040
99df40
a52440
a52440
a5c440
a50440
a50440
990440
800040
800040
ffffc0
ENDCHAR
STARTCHAR RetKey
ENCODING 231
SWIDTH 1174 0
DWIDTH 20 0
BBX 18 13 1 -2
BITMAP
ffffc0
800040
800040
9eff40
928440
928440
9ce440
928440
928440
92e440
800040
800040
ffffc0
ENDCHAR
STARTCHAR ShftKey
ENCODING 232
SWIDTH 1448 0
DWIDTH 25 0
BBX 23 13 1 -2
BITMAP
fffffe
800002
800002
992efa
a52822
a12822
99ec22
852822
a52822
992822
800002
800002
fffffe
ENDCHAR
STARTCHAR SpcKey
ENCODING 233
SWIDTH 1187 0
DWIDTH 20 0
BBX 18 13 1 -2
BITMAP
ffffc0
800040
800040
99c640
a52940
a12840
99c840
850840
a50940
990640
800040
800040
ffffc0
ENDCHAR
STARTCHAR TabKey
ENCODING 234
SWIDTH 1177 0
DWIDTH 20 0
BBX 18 13 1 -2
BITMAP
ffffc0
800040
800040
be8e40
888940
894940
894e40
89c940
8a2940
8a2e40
800040
800040
ffffc0
ENDCHAR
STARTCHAR LKeyBracket
ENCODING 235
SWIDTH 245 0
DWIDTH 4 0
BBX 4 18 -1 -5
BITMAP
30
20
20
20
20
20
20
20
e0
e0
20
20
20
20
20
20
20
30
ENDCHAR
STARTCHAR RKeyBracket
ENCODING 236
SWIDTH 245 0
DWIDTH 4 0
BBX 2 18 1 -5
BITMAP
c0
40
40
40
40
40
40
40
40
40
40
40
40
40
40
40
40
c0
ENDCHAR
STARTCHAR CloverLeaf
ENCODING 237
SWIDTH 600 0
DWIDTH 10 0
BBX 10 10 0 0
BITMAP
6180
9240
9240
7f80
1200
1200
7f80
9240
9240
6180
ENDCHAR
STARTCHAR DottedSquare
ENCODING 238
SWIDTH 764 0
DWIDTH 13 0
BBX 11 11 1 0
BITMAP
e4e0
8020
8020
0000
0000
8020
0000
0000
8020
8020
e4e0
ENDCHAR
STARTCHAR RoundSpaceIndicator
ENCODING 239
SWIDTH 250 0
DWIDTH 4 0
BBX 4 2 0 -2
BITMAP
90
60
ENDCHAR
STARTCHAR CommandKey
ENCODING 240
SWIDTH 2643 0
DWIDTH 45 0
BBX 43 13 1 -2
BITMAP
ffffffffffe0
800000000020
800000000020
98cc6c64d720
a52c6c64d4a0
a12aaaaad4a0
a12aaaaad4a0
a12aaaaeb4a0
a5292931b4a0
98c92931b720
800000000020
800000000020
ffffffffffe0
ENDCHAR
STARTCHAR ControlKey
ENCODING 241
SWIDTH 2327 0
DWIDTH 40 0
BBX 38 13 1 -2
BITMAP
fffffffffc
8000000004
8000000004
8c66ffcc84
9296925284
9096925284
9096939284
9095925284
9295925284
8c65924ce4
8000000004
8000000004
fffffffffc
ENDCHAR
STARTCHAR DeleteKey
ENCODING 242
SWIDTH 1890 0
DWIDTH 32 0
BBX 30 13 1 -2
BITMAP
fffffffc
80000004
80000004
9ce8ffe4
92888484
92888484
92e8e4e4
92888484
92888484
9ceee4e4
80000004
80000004
fffffffc
ENDCHAR
STARTCHAR EnterKey
ENCODING 243
SWIDTH 1668 0
DWIDTH 28 0
BBX 26 13 1 -2
BITMAP
ffffffc0
80000040
80000040
9dbfef40
91a48940
91a48940
9da4ee40
91648940
91648940
9d64e940
80000040
80000040
ffffffc0
ENDCHAR
STARTCHAR EscapeKey
ENCODING 244
SWIDTH 2000 0
DWIDTH 34 0
BBX 32 13 1 -2
BITMAP
ffffffff
80000001
80000001
9ccc4739
913244a1
9110a4a1
9cd0a739
9030e421
91331421
9ccd1439
80000001
80000001
ffffffff
ENDCHAR
STARTCHAR OptionKey
ENCODING 245
SWIDTH 1869 0
DWIDTH 32 0
BBX 30 13 1 -2
BITMAP
fffffffc
80000004
80000004
99df4cd4
a52452d4
a52452d4
a5c452d4
a50452b4
a50452b4
99044cb4
80000004
80000004
fffffffc
ENDCHAR
STARTCHAR ReturnKey
ENCODING 246
SWIDTH 2015 0
DWIDTH 34 0
BBX 32 13 1 -2
BITMAP
ffffffff
80000001
80000001
9eff97b5
928494b5
928494b5
9ce49735
928494ad
928494ad
92e464ad
80000001
80000001
ffffffff
ENDCHAR
STARTCHAR ShiftKey
ENCODING 247
SWIDTH 1563 0
DWIDTH 27 0
BBX 25 13 1 -2
BITMAP
ffffff80
80000080
80000080
8e95fe80
92950880
90950880
8cf58880
82950880
92950880
8c950880
80000080
80000080
ffffff80
ENDCHAR
STARTCHAR SpaceKey
ENCODING 248
SWIDTH 1699 0
DWIDTH 29 0
BBX 27 13 1 -2
BITMAP
ffffffe0
80000020
80000020
8ee46720
92949420
909a8420
8cea8720
828e8420
92919420
8c916720
80000020
80000020
ffffffe0
ENDCHAR
STARTCHAR Mod1Key
ENCODING 249
SWIDTH 1543 0
DWIDTH 26 0
BBX 24 13 1 -2
BITMAP
ffffff
800001
800001
b199c5
b1a52d
aaa525
aaa525
aaa525
a4a525
a499c5
800001
800001
ffffff
ENDCHAR
STARTCHAR Mod2Key
ENCODING 250
SWIDTH 1655 0
DWIDTH 28 0
BBX 26 13 1 -2
BITMAP
ffffffc0
80000040
80000040
b199c740
b1a52940
aaa52140
aaa52240
aaa52440
a4a52840
a499cf40
80000040
80000040
ffffffc0
ENDCHAR
STARTCHAR RKeyBracket2
ENCODING 251
SWIDTH 245 0
DWIDTH 4 0
BBX 2 18 1 -5
BITMAP
c0
80
80
80
80
80
80
80
80
80
80
80
80
80
80
80
80
c0
ENDCHAR
STARTCHAR LUpHookExt
ENCODING 252
SWIDTH 600 0
DWIDTH 10 0
BBX 4 3 2 0
BITMAP
90
90
60
ENDCHAR
STARTCHAR RUpHookExt
ENCODING 253
SWIDTH 282 0
DWIDTH 10 0
BBX 4 3 4 0
BITMAP
90
90
60
ENDCHAR
STARTCHAR LDownHookExt
ENCODING 254
SWIDTH 282 0
DWIDTH 10 0
BBX 4 3 2 0
BITMAP
60
90
90
ENDCHAR
STARTCHAR RDownHookExt
ENCODING 255
SWIDTH 0 0
DWIDTH 10 0
BBX 4 3 4 0
BITMAP
60
90
90
ENDCHAR
ENDFONT
