STARTFONT 2.1
FONT -WRI-Mathematica2-Bold-R-Normal--7-70-75-75-p-40-Adobe-FontSpecific
SIZE 7 75 75
FONTBOUNDINGBOX 19 42 -2 -27
STARTPROPERTIES 16
FOUNDRY "WRI"
FAMILY_NAME "Mathematica2"
WEIGHT_NAME "Bold"
SLANT "R"
SETWIDTH_NAME "Normal"
PIXEL_SIZE 7
POINT_SIZE 70
RESOLUTION_X 75
RESOLUTION_Y 75
SPACING "p"
AVERAGE_WIDTH 40
CHARSET_REGISTRY "Adobe"
CHARSET_ENCODING "FontSpecific"
FONT_DESCENT 27
FONT_ASCENT 15
DEFAULT_CHAR 32
ENDPROPERTIES
CHARS 223
STARTCHAR Space
ENCODING 32
SWIDTH 189 0
DWIDTH 1 0
BBX 0 0 0 0
BITMAP
ENDCHAR
STARTCHAR Radical1Extens
ENCODING 33
SWIDTH 230 0
DWIDTH 2 0
BBX 3 1 -1 1
BITMAP
e0
ENDCHAR
STARTCHAR Radical2
ENCODING 34
SWIDTH 975 0
DWIDTH 7 0
BBX 8 12 0 -7
BITMAP
07
04
04
08
08
08
48
e8
30
30
10
10
ENDCHAR
STARTCHAR Radical2Extens
ENCODING 35
SWIDTH 230 0
DWIDTH 2 0
BBX 3 1 -1 4
BITMAP
e0
ENDCHAR
STARTCHAR Radical3
ENCODING 36
SWIDTH 1115 0
DWIDTH 8 0
BBX 9 20 0 -9
BITMAP
0380
0200
0200
0600
0400
0400
0400
0400
0400
0c00
0800
0800
4800
c800
2800
3000
3000
1000
1000
1000
ENDCHAR
STARTCHAR Radical3Extens
ENCODING 37
SWIDTH 230 0
DWIDTH 2 0
BBX 3 1 -1 10
BITMAP
e0
ENDCHAR
STARTCHAR Radical4
ENCODING 38
SWIDTH 1127 0
DWIDTH 8 0
BBX 8 26 0 -11
BITMAP
07
04
04
04
04
04
04
04
08
08
08
08
08
08
08
08
48
c8
68
28
28
28
10
10
10
10
ENDCHAR
STARTCHAR Radical4Extens
ENCODING 39
SWIDTH 230 0
DWIDTH 2 0
BBX 3 1 -1 14
BITMAP
e0
ENDCHAR
STARTCHAR Radical5
ENCODING 40
SWIDTH 1070 0
DWIDTH 7 0
BBX 6 28 0 -13
BITMAP
04
04
04
04
04
04
04
04
04
04
04
04
04
04
04
04
44
e4
24
14
14
14
0c
0c
0c
04
04
04
ENDCHAR
STARTCHAR Radical5VertExtens
ENCODING 41
SWIDTH 1070 0
DWIDTH 7 0
BBX 1 2 5 0
BITMAP
80
80
ENDCHAR
STARTCHAR Radical5Top
ENCODING 42
SWIDTH 1070 0
DWIDTH 7 0
BBX 3 2 5 0
BITMAP
e0
80
ENDCHAR
STARTCHAR Radical5Extens
ENCODING 43
SWIDTH 230 0
DWIDTH 2 0
BBX 3 1 -1 1
BITMAP
e0
ENDCHAR
STARTCHAR FixedFreeRadical1
ENCODING 44
SWIDTH 855 0
DWIDTH 6 0
BBX 5 8 0 -6
BITMAP
08
18
10
50
f0
60
20
20
ENDCHAR
STARTCHAR FixedFreeRadical2
ENCODING 45
SWIDTH 975 0
DWIDTH 7 0
BBX 6 12 0 -7
BITMAP
04
04
0c
08
08
08
48
e8
30
30
10
10
ENDCHAR
STARTCHAR FixedFreeRadical3
ENCODING 46
SWIDTH 1115 0
DWIDTH 8 0
BBX 7 19 0 -8
BITMAP
02
02
02
04
04
04
04
04
04
08
08
08
48
c8
28
30
30
10
10
ENDCHAR
STARTCHAR FixedFreeRadical4
ENCODING 47
SWIDTH 1127 0
DWIDTH 8 0
BBX 7 26 0 -11
BITMAP
02
02
02
02
02
02
02
04
04
04
04
04
04
04
04
04
44
e4
24
24
18
18
18
08
08
08
ENDCHAR
STARTCHAR TexRad1
ENCODING 48
SWIDTH 855 0
DWIDTH 6 0
BBX 7 7 0 -6
BITMAP
0e
08
08
50
d0
30
30
ENDCHAR
STARTCHAR TexRad2
ENCODING 49
SWIDTH 975 0
DWIDTH 7 0
BBX 8 11 0 -10
BITMAP
07
04
04
08
08
08
c8
e8
30
10
10
ENDCHAR
STARTCHAR TexRad3
ENCODING 50
SWIDTH 1115 0
DWIDTH 8 0
BBX 9 20 0 -19
BITMAP
0380
0200
0200
0200
0400
0400
0400
0400
0400
0400
0400
0800
4800
c800
2800
2800
3800
1800
1000
1000
ENDCHAR
STARTCHAR TexRad4
ENCODING 51
SWIDTH 1127 0
DWIDTH 8 0
BBX 8 27 0 -26
BITMAP
07
04
04
04
04
04
04
04
08
08
08
08
08
08
08
08
48
c8
48
28
28
30
30
10
10
10
10
ENDCHAR
STARTCHAR TexRad5
ENCODING 52
SWIDTH 1070 0
DWIDTH 7 0
BBX 6 28 0 -27
BITMAP
04
04
04
04
04
04
04
04
04
04
04
04
04
04
04
04
44
e4
24
14
14
14
0c
0c
0c
04
04
04
ENDCHAR
STARTCHAR TexRad5VertExt
ENCODING 53
SWIDTH 1070 0
DWIDTH 7 0
BBX 1 3 5 -2
BITMAP
80
80
80
ENDCHAR
STARTCHAR TexRad5Top
ENCODING 54
SWIDTH 1070 0
DWIDTH 7 0
BBX 3 3 5 -2
BITMAP
e0
80
80
ENDCHAR
STARTCHAR TexRadExtens
ENCODING 55
SWIDTH 230 0
DWIDTH 2 0
BBX 3 1 -1 0
BITMAP
e0
ENDCHAR
STARTCHAR LBrace1
ENCODING 56
SWIDTH 372 0
DWIDTH 3 0
BBX 3 6 0 -1
BITMAP
60
40
40
80
40
60
ENDCHAR
STARTCHAR LBrace2
ENCODING 57
SWIDTH 384 0
DWIDTH 3 0
BBX 3 9 0 -3
BITMAP
60
40
40
40
80
40
40
40
60
ENDCHAR
STARTCHAR LBrace3
ENCODING 58
SWIDTH 484 0
DWIDTH 3 0
BBX 3 12 0 -4
BITMAP
20
40
40
40
40
40
80
40
40
40
40
20
ENDCHAR
STARTCHAR LBrace4
ENCODING 59
SWIDTH 599 0
DWIDTH 4 0
BBX 3 15 1 -6
BITMAP
20
40
40
40
40
40
40
80
40
40
40
40
40
40
20
ENDCHAR
STARTCHAR RBrace1
ENCODING 60
SWIDTH 372 0
DWIDTH 3 0
BBX 3 6 0 -1
BITMAP
c0
40
40
20
40
c0
ENDCHAR
STARTCHAR RBrace2
ENCODING 61
SWIDTH 384 0
DWIDTH 3 0
BBX 3 9 0 -3
BITMAP
c0
40
40
40
20
40
40
40
c0
ENDCHAR
STARTCHAR RBrace3
ENCODING 62
SWIDTH 484 0
DWIDTH 3 0
BBX 3 12 0 -4
BITMAP
80
40
40
40
40
40
20
40
40
40
40
80
ENDCHAR
STARTCHAR RBrace4
ENCODING 63
SWIDTH 599 0
DWIDTH 4 0
BBX 3 15 0 -6
BITMAP
80
40
40
40
40
40
40
20
40
40
40
40
40
40
80
ENDCHAR
STARTCHAR LBracket1
ENCODING 64
SWIDTH 359 0
DWIDTH 3 0
BBX 2 6 1 -1
BITMAP
c0
80
80
80
80
c0
ENDCHAR
STARTCHAR LBracket2
ENCODING 65
SWIDTH 369 0
DWIDTH 3 0
BBX 2 9 1 -3
BITMAP
c0
80
80
80
80
80
80
80
c0
ENDCHAR
STARTCHAR LBracket3
ENCODING 66
SWIDTH 379 0
DWIDTH 3 0
BBX 2 12 1 -4
BITMAP
c0
80
80
80
80
80
80
80
80
80
80
c0
ENDCHAR
STARTCHAR LBracket4
ENCODING 67
SWIDTH 389 0
DWIDTH 3 0
BBX 2 15 1 -6
BITMAP
c0
80
80
80
80
80
80
80
80
80
80
80
80
80
c0
ENDCHAR
STARTCHAR RBracket1
ENCODING 68
SWIDTH 359 0
DWIDTH 3 0
BBX 2 6 0 -1
BITMAP
c0
40
40
40
40
c0
ENDCHAR
STARTCHAR RBracket2
ENCODING 69
SWIDTH 369 0
DWIDTH 3 0
BBX 2 9 0 -3
BITMAP
c0
40
40
40
40
40
40
40
c0
ENDCHAR
STARTCHAR RBracket3
ENCODING 70
SWIDTH 379 0
DWIDTH 3 0
BBX 2 12 0 -4
BITMAP
c0
40
40
40
40
40
40
40
40
40
40
c0
ENDCHAR
STARTCHAR RBracket4
ENCODING 71
SWIDTH 389 0
DWIDTH 3 0
BBX 2 15 0 -6
BITMAP
c0
40
40
40
40
40
40
40
40
40
40
40
40
40
c0
ENDCHAR
STARTCHAR LParen1
ENCODING 72
SWIDTH 349 0
DWIDTH 2 0
BBX 2 6 1 -1
BITMAP
40
80
80
80
80
40
ENDCHAR
STARTCHAR LParen2
ENCODING 73
SWIDTH 334 0
DWIDTH 2 0
BBX 2 9 1 -3
BITMAP
40
80
80
80
80
80
80
80
40
ENDCHAR
STARTCHAR LParen3
ENCODING 74
SWIDTH 353 0
DWIDTH 2 0
BBX 2 12 1 -4
BITMAP
40
80
80
80
80
80
80
80
80
80
80
40
ENDCHAR
STARTCHAR LParen4
ENCODING 75
SWIDTH 399 0
DWIDTH 3 0
BBX 2 15 1 -6
BITMAP
40
80
80
80
80
80
80
80
80
80
80
80
80
80
40
ENDCHAR
STARTCHAR RParen1
ENCODING 76
SWIDTH 349 0
DWIDTH 2 0
BBX 2 6 -1 -1
BITMAP
80
40
40
40
40
80
ENDCHAR
STARTCHAR RParen2
ENCODING 77
SWIDTH 334 0
DWIDTH 2 0
BBX 2 9 -1 -3
BITMAP
80
80
40
40
40
40
40
80
80
ENDCHAR
STARTCHAR RParen3
ENCODING 78
SWIDTH 353 0
DWIDTH 2 0
BBX 2 12 -1 -4
BITMAP
80
80
40
40
40
40
40
40
40
40
80
80
ENDCHAR
STARTCHAR RParen4
ENCODING 79
SWIDTH 399 0
DWIDTH 3 0
BBX 2 15 0 -6
BITMAP
80
80
40
40
40
40
40
40
40
40
40
40
40
80
80
ENDCHAR
STARTCHAR DblLBracket1
ENCODING 80
SWIDTH 484 0
DWIDTH 3 0
BBX 4 6 1 -1
BITMAP
f0
a0
a0
a0
a0
f0
ENDCHAR
STARTCHAR DblLBracket2
ENCODING 81
SWIDTH 494 0
DWIDTH 3 0
BBX 4 9 1 -3
BITMAP
f0
a0
a0
a0
a0
a0
a0
a0
f0
ENDCHAR
STARTCHAR DblLBracket3
ENCODING 82
SWIDTH 504 0
DWIDTH 4 0
BBX 4 12 1 -4
BITMAP
f0
a0
a0
a0
a0
a0
a0
a0
a0
a0
a0
f0
ENDCHAR
STARTCHAR DblLBracket4
ENCODING 83
SWIDTH 514 0
DWIDTH 4 0
BBX 4 15 1 -6
BITMAP
f0
a0
a0
a0
a0
a0
a0
a0
a0
a0
a0
a0
a0
a0
f0
ENDCHAR
STARTCHAR DblRBracket1
ENCODING 84
SWIDTH 484 0
DWIDTH 3 0
BBX 4 6 -2 -1
BITMAP
f0
50
50
50
50
f0
ENDCHAR
STARTCHAR DblRBracket2
ENCODING 85
SWIDTH 494 0
DWIDTH 3 0
BBX 4 9 -2 -3
BITMAP
f0
50
50
50
50
50
50
50
f0
ENDCHAR
STARTCHAR DblRBracket3
ENCODING 86
SWIDTH 504 0
DWIDTH 4 0
BBX 4 12 -1 -4
BITMAP
f0
50
50
50
50
50
50
50
50
50
50
f0
ENDCHAR
STARTCHAR DblRBracket4
ENCODING 87
SWIDTH 514 0
DWIDTH 4 0
BBX 4 15 -1 -6
BITMAP
f0
50
50
50
50
50
50
50
50
50
50
50
50
50
f0
ENDCHAR
STARTCHAR LAngleBracket1
ENCODING 88
SWIDTH 398 0
DWIDTH 3 0
BBX 3 6 1 -1
BITMAP
20
40
c0
c0
40
20
ENDCHAR
STARTCHAR LAngleBracket2
ENCODING 89
SWIDTH 375 0
DWIDTH 3 0
BBX 2 9 1 -3
BITMAP
40
40
80
80
80
80
80
40
40
ENDCHAR
STARTCHAR LAngleBracket3
ENCODING 90
SWIDTH 378 0
DWIDTH 3 0
BBX 2 12 1 -4
BITMAP
40
40
40
80
80
80
80
80
80
40
40
40
ENDCHAR
STARTCHAR LAngleBracket4
ENCODING 91
SWIDTH 394 0
DWIDTH 3 0
BBX 2 15 1 -6
BITMAP
40
40
40
40
80
80
80
80
80
80
80
40
40
40
40
ENDCHAR
STARTCHAR RAngleBracket1
ENCODING 92
SWIDTH 398 0
DWIDTH 3 0
BBX 3 6 -1 -1
BITMAP
80
40
60
60
40
80
ENDCHAR
STARTCHAR RAngleBracket2
ENCODING 93
SWIDTH 375 0
DWIDTH 3 0
BBX 2 9 0 -3
BITMAP
80
80
40
40
40
40
40
80
80
ENDCHAR
STARTCHAR RAngleBracket3
ENCODING 94
SWIDTH 378 0
DWIDTH 3 0
BBX 2 12 0 -4
BITMAP
80
80
80
40
40
40
40
40
40
80
80
80
ENDCHAR
STARTCHAR RAngleBracket4
ENCODING 95
SWIDTH 394 0
DWIDTH 3 0
BBX 2 15 0 -6
BITMAP
80
80
80
80
40
40
40
40
40
40
40
80
80
80
80
ENDCHAR
STARTCHAR LCeiling1
ENCODING 96
SWIDTH 411 0
DWIDTH 3 0
BBX 2 7 1 -2
BITMAP
c0
80
80
80
80
80
80
ENDCHAR
STARTCHAR LCeiling2
ENCODING 97
SWIDTH 411 0
DWIDTH 3 0
BBX 2 9 1 -3
BITMAP
c0
80
80
80
80
80
80
80
80
ENDCHAR
STARTCHAR LCeiling3
ENCODING 98
SWIDTH 411 0
DWIDTH 3 0
BBX 2 13 1 -5
BITMAP
c0
80
80
80
80
80
80
80
80
80
80
80
80
ENDCHAR
STARTCHAR LCeiling4
ENCODING 99
SWIDTH 411 0
DWIDTH 3 0
BBX 2 15 1 -6
BITMAP
c0
80
80
80
80
80
80
80
80
80
80
80
80
80
80
ENDCHAR
STARTCHAR LFloor1
ENCODING 100
SWIDTH 411 0
DWIDTH 3 0
BBX 2 6 1 -1
BITMAP
80
80
80
80
80
c0
ENDCHAR
STARTCHAR LFloor2
ENCODING 101
SWIDTH 411 0
DWIDTH 3 0
BBX 2 10 1 -3
BITMAP
80
80
80
80
80
80
80
80
80
c0
ENDCHAR
STARTCHAR LFloor3
ENCODING 102
SWIDTH 411 0
DWIDTH 3 0
BBX 2 12 1 -4
BITMAP
80
80
80
80
80
80
80
80
80
80
80
c0
ENDCHAR
STARTCHAR LFloor4
ENCODING 103
SWIDTH 411 0
DWIDTH 3 0
BBX 2 16 1 -6
BITMAP
80
80
80
80
80
80
80
80
80
80
80
80
80
80
80
c0
ENDCHAR
STARTCHAR LFlrClngExtens
ENCODING 104
SWIDTH 411 0
DWIDTH 3 0
BBX 1 4 1 -1
BITMAP
80
80
80
80
ENDCHAR
STARTCHAR LParenTop
ENCODING 105
SWIDTH 421 0
DWIDTH 3 0
BBX 2 7 1 -1
BITMAP
40
80
80
80
80
80
80
ENDCHAR
STARTCHAR LParenExtens
ENCODING 106
SWIDTH 421 0
DWIDTH 3 0
BBX 1 4 1 -1
BITMAP
80
80
80
80
ENDCHAR
STARTCHAR LParenBottom
ENCODING 107
SWIDTH 421 0
DWIDTH 3 0
BBX 2 7 1 0
BITMAP
80
80
80
80
80
80
40
ENDCHAR
STARTCHAR LBraceTop
ENCODING 108
SWIDTH 597 0
DWIDTH 4 0
BBX 2 5 2 -1
BITMAP
40
80
80
80
80
ENDCHAR
STARTCHAR LBraceMiddle
ENCODING 109
SWIDTH 597 0
DWIDTH 4 0
BBX 2 6 1 -1
BITMAP
40
40
40
80
40
40
ENDCHAR
STARTCHAR LBraceBottom
ENCODING 110
SWIDTH 597 0
DWIDTH 4 0
BBX 2 5 2 0
BITMAP
80
80
80
80
40
ENDCHAR
STARTCHAR BraceExtens
ENCODING 111
SWIDTH 597 0
DWIDTH 4 0
BBX 1 4 2 -1
BITMAP
80
80
80
80
ENDCHAR
STARTCHAR RCeiling1
ENCODING 112
SWIDTH 411 0
DWIDTH 3 0
BBX 2 7 0 -2
BITMAP
c0
40
40
40
40
40
40
ENDCHAR
STARTCHAR RCeiling2
ENCODING 113
SWIDTH 411 0
DWIDTH 3 0
BBX 2 9 0 -3
BITMAP
c0
40
40
40
40
40
40
40
40
ENDCHAR
STARTCHAR RCeiling3
ENCODING 114
SWIDTH 411 0
DWIDTH 3 0
BBX 2 12 0 -4
BITMAP
c0
40
40
40
40
40
40
40
40
40
40
40
ENDCHAR
STARTCHAR RCeiling4
ENCODING 115
SWIDTH 411 0
DWIDTH 3 0
BBX 2 15 0 -6
BITMAP
c0
40
40
40
40
40
40
40
40
40
40
40
40
40
40
ENDCHAR
STARTCHAR RFloor1
ENCODING 116
SWIDTH 411 0
DWIDTH 3 0
BBX 2 6 0 -1
BITMAP
40
40
40
40
40
c0
ENDCHAR
STARTCHAR RFloor2
ENCODING 117
SWIDTH 411 0
DWIDTH 3 0
BBX 2 10 0 -3
BITMAP
40
40
40
40
40
40
40
40
40
c0
ENDCHAR
STARTCHAR RFloor3
ENCODING 118
SWIDTH 411 0
DWIDTH 3 0
BBX 2 12 0 -4
BITMAP
40
40
40
40
40
40
40
40
40
40
40
c0
ENDCHAR
STARTCHAR RFloor4
ENCODING 119
SWIDTH 411 0
DWIDTH 3 0
BBX 2 16 0 -6
BITMAP
40
40
40
40
40
40
40
40
40
40
40
40
40
40
40
c0
ENDCHAR
STARTCHAR RFlrClngExtens
ENCODING 120
SWIDTH 411 0
DWIDTH 3 0
BBX 1 4 1 -1
BITMAP
80
80
80
80
ENDCHAR
STARTCHAR RParenTop
ENCODING 121
SWIDTH 421 0
DWIDTH 3 0
BBX 2 7 0 -1
BITMAP
80
80
40
40
40
40
40
ENDCHAR
STARTCHAR RParenExtens
ENCODING 122
SWIDTH 421 0
DWIDTH 3 0
BBX 1 4 1 -1
BITMAP
80
80
80
80
ENDCHAR
STARTCHAR RParenBottom
ENCODING 123
SWIDTH 421 0
DWIDTH 3 0
BBX 2 7 0 0
BITMAP
40
40
40
40
40
80
80
ENDCHAR
STARTCHAR RBraceTop
ENCODING 124
SWIDTH 597 0
DWIDTH 4 0
BBX 2 5 1 -1
BITMAP
80
40
40
40
40
ENDCHAR
STARTCHAR RBraceMiddle
ENCODING 125
SWIDTH 597 0
DWIDTH 4 0
BBX 2 6 2 -1
BITMAP
80
80
80
40
80
80
ENDCHAR
STARTCHAR RBraceBottom
ENCODING 126
SWIDTH 597 0
DWIDTH 4 0
BBX 2 5 1 0
BITMAP
40
40
40
40
80
ENDCHAR
STARTCHAR LBracketTop
ENCODING 128
SWIDTH 389 0
DWIDTH 3 0
BBX 2 2 1 -1
BITMAP
c0
80
ENDCHAR
STARTCHAR LBracketExtens
ENCODING 129
SWIDTH 389 0
DWIDTH 3 0
BBX 1 4 1 -1
BITMAP
80
80
80
80
ENDCHAR
STARTCHAR LBracketBottom
ENCODING 130
SWIDTH 389 0
DWIDTH 3 0
BBX 2 2 1 0
BITMAP
80
c0
ENDCHAR
STARTCHAR RBracketTop
ENCODING 131
SWIDTH 389 0
DWIDTH 3 0
BBX 2 2 0 -1
BITMAP
c0
40
ENDCHAR
STARTCHAR RBracketExtens
ENCODING 132
SWIDTH 389 0
DWIDTH 3 0
BBX 1 4 1 -1
BITMAP
80
80
80
80
ENDCHAR
STARTCHAR RBracketBottom
ENCODING 133
SWIDTH 389 0
DWIDTH 3 0
BBX 2 2 0 0
BITMAP
40
c0
ENDCHAR
STARTCHAR DblLBracketBottom
ENCODING 134
SWIDTH 514 0
DWIDTH 4 0
BBX 4 2 1 0
BITMAP
a0
f0
ENDCHAR
STARTCHAR DblLBracketExtens
ENCODING 135
SWIDTH 514 0
DWIDTH 4 0
BBX 3 4 1 -1
BITMAP
a0
a0
a0
a0
ENDCHAR
STARTCHAR DblLBracketTop
ENCODING 136
SWIDTH 514 0
DWIDTH 4 0
BBX 4 2 1 -1
BITMAP
f0
a0
ENDCHAR
STARTCHAR DblRBracketBottom
ENCODING 137
SWIDTH 514 0
DWIDTH 4 0
BBX 4 2 -1 0
BITMAP
50
f0
ENDCHAR
STARTCHAR DblRBracketExtens
ENCODING 138
SWIDTH 514 0
DWIDTH 4 0
BBX 3 4 0 -1
BITMAP
a0
a0
a0
a0
ENDCHAR
STARTCHAR DblRBracketTop
ENCODING 139
SWIDTH 514 0
DWIDTH 4 0
BBX 4 2 -1 -1
BITMAP
f0
50
ENDCHAR
STARTCHAR LeftHook
ENCODING 140
SWIDTH 230 0
DWIDTH 2 0
BBX 2 6 0 0
BITMAP
c0
80
80
80
80
80
ENDCHAR
STARTCHAR HookExt
ENCODING 141
SWIDTH 200 0
DWIDTH 1 0
BBX 1 1 0 5
BITMAP
80
ENDCHAR
STARTCHAR RightHook
ENCODING 142
SWIDTH 230 0
DWIDTH 2 0
BBX 2 6 0 0
BITMAP
c0
40
40
40
40
40
ENDCHAR
STARTCHAR Radical1
ENCODING 143
SWIDTH 855 0
DWIDTH 6 0
BBX 7 8 0 -6
BITMAP
0e
08
10
50
d0
60
20
20
ENDCHAR
STARTCHAR Slash1
ENCODING 144
SWIDTH 358 0
DWIDTH 3 0
BBX 3 5 0 0
BITMAP
20
40
40
40
80
ENDCHAR
STARTCHAR Slash2
ENCODING 145
SWIDTH 493 0
DWIDTH 3 0
BBX 4 9 0 -3
BITMAP
10
30
20
20
60
40
40
c0
80
ENDCHAR
STARTCHAR Slash3
ENCODING 146
SWIDTH 632 0
DWIDTH 4 0
BBX 5 12 0 -4
BITMAP
08
18
10
10
30
20
20
60
40
40
c0
80
ENDCHAR
STARTCHAR Slash4
ENCODING 147
SWIDTH 757 0
DWIDTH 5 0
BBX 6 15 0 -6
BITMAP
04
0c
08
08
18
10
10
30
20
20
60
40
40
c0
80
ENDCHAR
STARTCHAR BackSlash1
ENCODING 148
SWIDTH 358 0
DWIDTH 3 0
BBX 3 5 0 0
BITMAP
80
40
40
40
20
ENDCHAR
STARTCHAR BackSlash2
ENCODING 149
SWIDTH 493 0
DWIDTH 3 0
BBX 4 9 0 -3
BITMAP
80
c0
40
40
60
20
20
30
10
ENDCHAR
STARTCHAR BackSlash3
ENCODING 150
SWIDTH 632 0
DWIDTH 4 0
BBX 5 12 0 -4
BITMAP
80
c0
40
40
60
20
20
30
10
10
18
08
ENDCHAR
STARTCHAR BackSlash4
ENCODING 151
SWIDTH 757 0
DWIDTH 5 0
BBX 6 15 0 -6
BITMAP
80
c0
40
40
60
20
20
30
10
10
18
08
08
0c
04
ENDCHAR
STARTCHAR ContourIntegral
ENCODING 152
SWIDTH 430 0
DWIDTH 3 0
BBX 5 9 0 -2
BITMAP
18
20
20
70
70
70
20
20
c0
ENDCHAR
STARTCHAR DblContInteg
ENCODING 153
SWIDTH 779 0
DWIDTH 5 0
BBX 7 9 0 -2
BITMAP
1e
28
28
7c
6c
7c
28
28
f0
ENDCHAR
STARTCHAR CntrClckwContInteg
ENCODING 154
SWIDTH 430 0
DWIDTH 3 0
BBX 5 9 0 -2
BITMAP
18
20
20
70
78
70
20
20
c0
ENDCHAR
STARTCHAR ClckwContInteg
ENCODING 155
SWIDTH 430 0
DWIDTH 3 0
BBX 5 9 0 -2
BITMAP
18
20
20
70
f0
70
20
20
c0
ENDCHAR
STARTCHAR SquareContInteg
ENCODING 156
SWIDTH 430 0
DWIDTH 3 0
BBX 5 9 0 -2
BITMAP
18
20
20
f8
a8
f8
20
20
c0
ENDCHAR
STARTCHAR UnionPlus
ENCODING 157
SWIDTH 893 0
DWIDTH 6 0
BBX 4 6 1 -1
BITMAP
90
90
b0
f0
b0
60
ENDCHAR
STARTCHAR SquareIntersection
ENCODING 158
SWIDTH 893 0
DWIDTH 6 0
BBX 4 6 1 -1
BITMAP
f0
90
90
90
90
90
ENDCHAR
STARTCHAR SquareUnion
ENCODING 159
SWIDTH 893 0
DWIDTH 6 0
BBX 4 6 1 -1
BITMAP
90
90
90
90
90
f0
ENDCHAR
STARTCHAR LBracketBar1
ENCODING 160
SWIDTH 272 0
DWIDTH 2 0
BBX 1 6 1 -1
BITMAP
80
80
80
80
80
80
ENDCHAR
STARTCHAR LBracketBar2
ENCODING 161
SWIDTH 272 0
DWIDTH 2 0
BBX 1 9 1 -3
BITMAP
80
80
80
80
80
80
80
80
80
ENDCHAR
STARTCHAR LBracketBar3
ENCODING 162
SWIDTH 272 0
DWIDTH 2 0
BBX 1 12 1 -4
BITMAP
80
80
80
80
80
80
80
80
80
80
80
80
ENDCHAR
STARTCHAR LBracketBar4
ENCODING 163
SWIDTH 272 0
DWIDTH 2 0
BBX 1 15 1 -6
BITMAP
80
80
80
80
80
80
80
80
80
80
80
80
80
80
80
ENDCHAR
STARTCHAR RBracketBar1
ENCODING 164
SWIDTH 272 0
DWIDTH 2 0
BBX 1 6 1 -1
BITMAP
80
80
80
80
80
80
ENDCHAR
STARTCHAR RBracketBar2
ENCODING 165
SWIDTH 272 0
DWIDTH 2 0
BBX 1 9 1 -3
BITMAP
80
80
80
80
80
80
80
80
80
ENDCHAR
STARTCHAR RBracketBar3
ENCODING 166
SWIDTH 272 0
DWIDTH 2 0
BBX 1 12 1 -4
BITMAP
80
80
80
80
80
80
80
80
80
80
80
80
ENDCHAR
STARTCHAR RBracketBar4
ENCODING 167
SWIDTH 272 0
DWIDTH 2 0
BBX 1 15 1 -6
BITMAP
80
80
80
80
80
80
80
80
80
80
80
80
80
80
80
ENDCHAR
STARTCHAR ContourIntegral2
ENCODING 168
SWIDTH 681 0
DWIDTH 5 0
BBX 7 16 0 -5
BITMAP
0e
08
10
10
10
38
54
54
54
54
38
10
10
10
a0
e0
ENDCHAR
STARTCHAR DblContInteg2
ENCODING 169
SWIDTH 1291 0
DWIDTH 9 0
BBX 11 16 0 -5
BITMAP
0ee0
0880
1100
1100
1100
3f80
5140
5140
5140
5140
3f80
1100
1100
1100
aa00
ee00
ENDCHAR
STARTCHAR CntrClckwContInteg2
ENCODING 170
SWIDTH 681 0
DWIDTH 5 0
BBX 7 16 0 -5
BITMAP
0e
08
10
10
10
38
5c
54
54
5e
38
10
10
10
a0
e0
ENDCHAR
STARTCHAR ClckwContInteg2
ENCODING 171
SWIDTH 681 0
DWIDTH 5 0
BBX 7 16 0 -5
BITMAP
0e
08
10
10
10
38
54
54
54
f4
38
10
10
10
a0
e0
ENDCHAR
STARTCHAR SquareContInteg2
ENCODING 172
SWIDTH 681 0
DWIDTH 5 0
BBX 7 16 0 -5
BITMAP
06
08
10
10
10
10
7c
54
54
54
7c
10
10
10
a0
e0
ENDCHAR
STARTCHAR UnionPlus2
ENCODING 173
SWIDTH 1295 0
DWIDTH 9 0
BBX 7 11 1 -3
BITMAP
82
82
82
82
92
92
fe
92
92
44
38
ENDCHAR
STARTCHAR SquareIntersection2
ENCODING 174
SWIDTH 1295 0
DWIDTH 9 0
BBX 7 11 1 -3
BITMAP
fe
82
82
82
82
82
82
82
82
82
82
ENDCHAR
STARTCHAR SquareUnion2
ENCODING 175
SWIDTH 1295 0
DWIDTH 9 0
BBX 7 11 1 -3
BITMAP
82
82
82
82
82
82
82
82
82
82
fe
ENDCHAR
STARTCHAR DblLBracketBar1
ENCODING 176
SWIDTH 516 0
DWIDTH 4 0
BBX 2 6 1 -1
BITMAP
c0
c0
c0
c0
c0
c0
ENDCHAR
STARTCHAR DblLBracketBar2
ENCODING 177
SWIDTH 516 0
DWIDTH 4 0
BBX 2 9 1 -3
BITMAP
c0
c0
c0
c0
c0
c0
c0
c0
c0
ENDCHAR
STARTCHAR DblLBracketBar3
ENCODING 178
SWIDTH 516 0
DWIDTH 4 0
BBX 2 12 1 -4
BITMAP
c0
c0
c0
c0
c0
c0
c0
c0
c0
c0
c0
c0
ENDCHAR
STARTCHAR DblLBracketBar4
ENCODING 179
SWIDTH 516 0
DWIDTH 4 0
BBX 2 15 1 -6
BITMAP
c0
c0
c0
c0
c0
c0
c0
c0
c0
c0
c0
c0
c0
c0
c0
ENDCHAR
STARTCHAR DblRBracketBar1
ENCODING 180
SWIDTH 516 0
DWIDTH 4 0
BBX 2 6 1 -1
BITMAP
c0
c0
c0
c0
c0
c0
ENDCHAR
STARTCHAR DblRBracketBar2
ENCODING 181
SWIDTH 516 0
DWIDTH 4 0
BBX 2 9 1 -3
BITMAP
c0
c0
c0
c0
c0
c0
c0
c0
c0
ENDCHAR
STARTCHAR DblRBracketBar3
ENCODING 182
SWIDTH 516 0
DWIDTH 4 0
BBX 2 12 1 -4
BITMAP
c0
c0
c0
c0
c0
c0
c0
c0
c0
c0
c0
c0
ENDCHAR
STARTCHAR DblRBracketBar4
ENCODING 183
SWIDTH 516 0
DWIDTH 4 0
BBX 2 15 1 -6
BITMAP
c0
c0
c0
c0
c0
c0
c0
c0
c0
c0
c0
c0
c0
c0
c0
ENDCHAR
STARTCHAR ContourIntegral3
ENCODING 184
SWIDTH 968 0
DWIDTH 7 0
BBX 10 23 1 -8
BITMAP
03c0
0240
0400
0400
0800
0800
0800
0800
1c00
2a00
4900
4900
4900
4900
4900
2a00
1c00
0800
0800
0800
1000
d000
e000
ENDCHAR
STARTCHAR DblContInteg3
ENCODING 185
SWIDTH 1887 0
DWIDTH 13 0
BBX 16 23 1 -8
BITMAP
03cf
0249
0410
0410
0820
0820
0820
0820
1ff0
2828
482c
4824
4824
4824
4824
2828
1ff0
0820
0820
0820
1040
d340
e380
ENDCHAR
STARTCHAR CntrClckwContInteg3
ENCODING 186
SWIDTH 968 0
DWIDTH 7 0
BBX 10 23 1 -8
BITMAP
03c0
0240
0400
0400
0800
0800
0800
0800
1c00
2a00
4900
4900
4980
4b40
4900
2a00
1c00
0800
0800
0800
1000
d000
e000
ENDCHAR
STARTCHAR ClckwContInteg3
ENCODING 187
SWIDTH 968 0
DWIDTH 7 0
BBX 11 23 0 -8
BITMAP
01e0
0120
0200
0200
0400
0400
0400
0400
0e00
1500
2480
2480
6480
b480
2480
1500
0e00
0400
0400
0400
0800
6800
7000
ENDCHAR
STARTCHAR SquareContInteg3
ENCODING 188
SWIDTH 968 0
DWIDTH 7 0
BBX 10 23 1 -8
BITMAP
03c0
0240
0400
0400
0800
0800
0800
0800
7f00
4900
4900
4900
4900
4900
4900
7f00
0800
0800
0800
0800
1000
d000
e000
ENDCHAR
STARTCHAR UnionPlus3
ENCODING 189
SWIDTH 1988 0
DWIDTH 14 0
BBX 12 16 1 -6
BITMAP
8010
8010
8010
8010
8010
8010
8010
8210
8210
8210
9fd0
8210
4220
6260
30c0
0f00
ENDCHAR
STARTCHAR SquareIntersection3
ENCODING 190
SWIDTH 2064 0
DWIDTH 14 0
BBX 12 16 1 -6
BITMAP
fff0
8010
8010
8010
8010
8010
8010
8010
8010
8010
8010
8010
8010
8010
8010
8010
ENDCHAR
STARTCHAR SquareUnion3
ENCODING 191
SWIDTH 2064 0
DWIDTH 14 0
BBX 12 16 1 -6
BITMAP
8010
8010
8010
8010
8010
8010
8010
8010
8010
8010
8010
8010
8010
8010
8010
fff0
ENDCHAR
STARTCHAR DblBar1
ENCODING 192
SWIDTH 516 0
DWIDTH 4 0
BBX 2 6 1 -1
BITMAP
c0
c0
c0
c0
c0
c0
ENDCHAR
STARTCHAR DblBar2
ENCODING 193
SWIDTH 516 0
DWIDTH 4 0
BBX 2 9 1 -3
BITMAP
c0
c0
c0
c0
c0
c0
c0
c0
c0
ENDCHAR
STARTCHAR DblBar3
ENCODING 194
SWIDTH 516 0
DWIDTH 4 0
BBX 2 12 1 -4
BITMAP
c0
c0
c0
c0
c0
c0
c0
c0
c0
c0
c0
c0
ENDCHAR
STARTCHAR DblBar4
ENCODING 195
SWIDTH 516 0
DWIDTH 4 0
BBX 2 15 1 -6
BITMAP
c0
c0
c0
c0
c0
c0
c0
c0
c0
c0
c0
c0
c0
c0
c0
ENDCHAR
STARTCHAR BarExt
ENCODING 196
SWIDTH 272 0
DWIDTH 2 0
BBX 1 4 1 -1
BITMAP
80
80
80
80
ENDCHAR
STARTCHAR DblBarExt
ENCODING 197
SWIDTH 516 0
DWIDTH 4 0
BBX 2 4 1 -1
BITMAP
c0
c0
c0
c0
ENDCHAR
STARTCHAR OverCircle
ENCODING 198
SWIDTH 267 0
DWIDTH 2 0
BBX 3 3 0 0
BITMAP
e0
a0
e0
ENDCHAR
STARTCHAR Hacek
ENCODING 199
SWIDTH 371 0
DWIDTH 3 0
BBX 1 1 1 1
BITMAP
80
ENDCHAR
STARTCHAR VertBar1
ENCODING 200
SWIDTH 272 0
DWIDTH 2 0
BBX 1 6 1 -1
BITMAP
80
80
80
80
80
80
ENDCHAR
STARTCHAR VertBar2
ENCODING 201
SWIDTH 272 0
DWIDTH 2 0
BBX 1 9 1 -3
BITMAP
80
80
80
80
80
80
80
80
80
ENDCHAR
STARTCHAR Nbspace
ENCODING 202
SWIDTH 189 0
DWIDTH 1 0
BBX 0 0 0 0
BITMAP
ENDCHAR
STARTCHAR VertBar3
ENCODING 203
SWIDTH 272 0
DWIDTH 2 0
BBX 1 13 1 -4
BITMAP
80
80
80
80
80
80
80
80
80
80
80
80
80
ENDCHAR
STARTCHAR VertBar4
ENCODING 204
SWIDTH 272 0
DWIDTH 2 0
BBX 1 15 1 -6
BITMAP
80
80
80
80
80
80
80
80
80
80
80
80
80
80
80
ENDCHAR
STARTCHAR FIntegral
ENCODING 205
SWIDTH 430 0
DWIDTH 3 0
BBX 5 9 0 -2
BITMAP
18
20
20
30
60
20
20
20
c0
ENDCHAR
STARTCHAR FIntegral2
ENCODING 206
SWIDTH 681 0
DWIDTH 5 0
BBX 7 16 0 -5
BITMAP
06
08
10
10
10
10
1c
70
10
10
10
10
10
10
a0
e0
ENDCHAR
STARTCHAR FIntegral3
ENCODING 207
SWIDTH 968 0
DWIDTH 7 0
BBX 10 23 1 -8
BITMAP
03c0
0240
0400
0400
0800
0800
0800
0800
0b00
1c00
6800
0800
0800
0800
0800
0800
0800
0800
0800
0800
1000
d000
e000
ENDCHAR
STARTCHAR OverDoubleDot
ENCODING 208
SWIDTH 360 0
DWIDTH 3 0
BBX 3 1 0 1
BITMAP
a0
ENDCHAR
STARTCHAR OverTripleDot
ENCODING 209
SWIDTH 579 0
DWIDTH 4 0
BBX 5 1 0 1
BITMAP
a8
ENDCHAR
STARTCHAR OverLVector
ENCODING 210
SWIDTH 467 0
DWIDTH 3 0
BBX 3 2 0 0
BITMAP
40
e0
ENDCHAR
STARTCHAR OverRVector
ENCODING 211
SWIDTH 467 0
DWIDTH 3 0
BBX 3 2 0 0
BITMAP
40
e0
ENDCHAR
STARTCHAR OverLRVector
ENCODING 212
SWIDTH 650 0
DWIDTH 5 0
BBX 5 2 0 0
BITMAP
50
f8
ENDCHAR
STARTCHAR OverLArrow
ENCODING 213
SWIDTH 428 0
DWIDTH 3 0
BBX 3 3 0 -1
BITMAP
40
e0
40
ENDCHAR
STARTCHAR OverArrowVectExt
ENCODING 214
SWIDTH 200 0
DWIDTH 1 0
BBX 1 1 0 0
BITMAP
80
ENDCHAR
STARTCHAR OverRArrow
ENCODING 215
SWIDTH 428 0
DWIDTH 3 0
BBX 3 3 0 -1
BITMAP
40
e0
40
ENDCHAR
STARTCHAR OverLRArrow
ENCODING 216
SWIDTH 572 0
DWIDTH 4 0
BBX 4 3 0 -1
BITMAP
60
f0
60
ENDCHAR
STARTCHAR Integral
ENCODING 217
SWIDTH 430 0
DWIDTH 3 0
BBX 5 9 0 -2
BITMAP
18
20
20
20
20
20
20
20
c0
ENDCHAR
STARTCHAR Summation
ENCODING 218
SWIDTH 842 0
DWIDTH 6 0
BBX 5 6 0 -1
BITMAP
f8
48
20
20
78
f8
ENDCHAR
STARTCHAR Product
ENCODING 219
SWIDTH 951 0
DWIDTH 7 0
BBX 7 6 0 -1
BITMAP
fe
44
44
44
44
ee
ENDCHAR
STARTCHAR Intersection
ENCODING 220
SWIDTH 893 0
DWIDTH 6 0
BBX 4 6 1 -1
BITMAP
90
90
90
90
90
60
ENDCHAR
STARTCHAR Union
ENCODING 221
SWIDTH 893 0
DWIDTH 6 0
BBX 4 6 1 -1
BITMAP
60
90
90
90
90
90
ENDCHAR
STARTCHAR LogicalOr
ENCODING 222
SWIDTH 669 0
DWIDTH 5 0
BBX 5 5 0 0
BITMAP
88
50
50
50
20
ENDCHAR
STARTCHAR LogicalAnd
ENCODING 223
SWIDTH 669 0
DWIDTH 5 0
BBX 5 5 0 0
BITMAP
20
50
50
50
88
ENDCHAR
STARTCHAR Integral1
ENCODING 224
SWIDTH 681 0
DWIDTH 5 0
BBX 7 16 0 -5
BITMAP
0e
08
10
10
10
10
10
10
10
10
10
10
10
10
a0
e0
ENDCHAR
STARTCHAR Integral2
ENCODING 225
SWIDTH 968 0
DWIDTH 7 0
BBX 10 23 1 -8
BITMAP
03c0
0240
0400
0400
0800
0800
0800
0800
0800
0800
0800
0800
0800
0800
0800
0800
0800
0800
0800
0800
1000
d000
e000
ENDCHAR
STARTCHAR Sum1
ENCODING 226
SWIDTH 1351 0
DWIDTH 9 0
BBX 9 11 0 -3
BITMAP
ff80
4180
2080
1000
1000
0800
1800
1000
2080
4180
ff80
ENDCHAR
STARTCHAR Sum2
ENCODING 227
SWIDTH 1918 0
DWIDTH 13 0
BBX 13 16 0 -6
BITMAP
7ff0
2030
1010
1810
0800
0400
0600
0200
0100
0200
0400
0800
1808
3008
6018
fff8
ENDCHAR
STARTCHAR Product1
ENCODING 228
SWIDTH 1361 0
DWIDTH 10 0
BBX 9 11 0 -3
BITMAP
ff80
4100
4100
4100
4100
4100
4100
4100
4100
4100
e380
ENDCHAR
STARTCHAR Product2
ENCODING 229
SWIDTH 1883 0
DWIDTH 13 0
BBX 12 16 0 -6
BITMAP
fff0
4020
4020
4020
4020
4020
4020
4020
4020
4020
4020
4020
4020
4020
4020
e070
ENDCHAR
STARTCHAR Union1
ENCODING 230
SWIDTH 1295 0
DWIDTH 9 0
BBX 7 9 1 -1
BITMAP
82
82
82
82
82
82
82
44
38
ENDCHAR
STARTCHAR Union2
ENCODING 231
SWIDTH 2064 0
DWIDTH 14 0
BBX 12 16 1 -6
BITMAP
8010
8010
8010
8010
8010
8010
8010
8010
8010
8010
8010
8010
4020
6060
30c0
0f00
ENDCHAR
STARTCHAR Intersect1
ENCODING 232
SWIDTH 1295 0
DWIDTH 9 0
BBX 7 9 1 -3
BITMAP
38
44
82
82
82
82
82
82
82
ENDCHAR
STARTCHAR Intersect2
ENCODING 233
SWIDTH 2064 0
DWIDTH 14 0
BBX 12 16 1 -5
BITMAP
0f00
30c0
6060
4020
8010
8010
8010
8010
8010
8010
8010
8010
8010
8010
8010
8010
ENDCHAR
STARTCHAR Or1
ENCODING 234
SWIDTH 840 0
DWIDTH 6 0
BBX 5 6 0 -1
BITMAP
88
88
50
50
50
20
ENDCHAR
STARTCHAR Or2
ENCODING 235
SWIDTH 1256 0
DWIDTH 9 0
BBX 9 11 0 -3
BITMAP
8080
4100
4100
4100
2200
2200
2200
1400
1400
1c00
0800
ENDCHAR
STARTCHAR And1
ENCODING 236
SWIDTH 840 0
DWIDTH 6 0
BBX 5 6 0 -1
BITMAP
20
60
50
50
90
88
ENDCHAR
STARTCHAR And2
ENCODING 237
SWIDTH 1256 0
DWIDTH 9 0
BBX 9 11 0 -3
BITMAP
0800
1c00
1400
1400
2200
2200
2200
4100
4100
4100
8080
ENDCHAR
STARTCHAR SmallVee
ENCODING 238
SWIDTH 660 0
DWIDTH 5 0
BBX 3 3 1 0
BITMAP
a0
a0
40
ENDCHAR
STARTCHAR SmallWedge
ENCODING 239
SWIDTH 660 0
DWIDTH 5 0
BBX 3 3 1 1
BITMAP
40
c0
a0
ENDCHAR
STARTCHAR DoubleGrave
ENCODING 240
SWIDTH 467 0
DWIDTH 3 0
BBX 2 1 0 1
BITMAP
c0
ENDCHAR
STARTCHAR Breve
ENCODING 241
SWIDTH 322 0
DWIDTH 2 0
BBX 2 2 0 -1
BITMAP
c0
c0
ENDCHAR
STARTCHAR DownBreve
ENCODING 242
SWIDTH 322 0
DWIDTH 2 0
BBX 2 2 0 -1
BITMAP
c0
c0
ENDCHAR
STARTCHAR OverTilde
ENCODING 243
SWIDTH 357 0
DWIDTH 2 0
BBX 4 2 0 0
BITMAP
50
b0
ENDCHAR
STARTCHAR Tilde2
ENCODING 244
SWIDTH 666 0
DWIDTH 5 0
BBX 5 2 0 1
BITMAP
48
b0
ENDCHAR
STARTCHAR Tilde3
ENCODING 245
SWIDTH 1000 0
DWIDTH 7 0
BBX 7 2 0 1
BITMAP
62
9c
ENDCHAR
STARTCHAR Tilde4
ENCODING 246
SWIDTH 1333 0
DWIDTH 9 0
BBX 9 2 0 1
BITMAP
7080
8f00
ENDCHAR
STARTCHAR BackQuote
ENCODING 247
SWIDTH 348 0
DWIDTH 2 0
BBX 2 2 0 3
BITMAP
40
80
ENDCHAR
STARTCHAR DblBackQuote
ENCODING 248
SWIDTH 577 0
DWIDTH 4 0
BBX 4 2 0 3
BITMAP
50
a0
ENDCHAR
STARTCHAR Quote
ENCODING 249
SWIDTH 348 0
DWIDTH 2 0
BBX 2 2 0 3
BITMAP
80
40
ENDCHAR
STARTCHAR DblQuote
ENCODING 250
SWIDTH 577 0
DWIDTH 4 0
BBX 4 2 0 3
BITMAP
a0
50
ENDCHAR
STARTCHAR VertBar
ENCODING 251
SWIDTH 272 0
DWIDTH 2 0
BBX 1 6 1 -1
BITMAP
80
80
80
80
80
80
ENDCHAR
STARTCHAR DblVertBar
ENCODING 252
SWIDTH 516 0
DWIDTH 4 0
BBX 2 6 1 -1
BITMAP
c0
c0
c0
c0
c0
c0
ENDCHAR
STARTCHAR VertBarExten
ENCODING 253
SWIDTH 272 0
DWIDTH 2 0
BBX 1 5 1 -1
BITMAP
80
80
80
80
80
ENDCHAR
STARTCHAR DblVertBarExten
ENCODING 254
SWIDTH 516 0
DWIDTH 4 0
BBX 2 5 1 -1
BITMAP
c0
c0
c0
c0
c0
ENDCHAR
STARTCHAR Coproduct
ENCODING 255
SWIDTH 733 0
DWIDTH 5 0
BBX 5 5 0 0
BITMAP
f8
50
50
50
f8
ENDCHAR
ENDFONT
