STARTFONT 2.1
FONT -WRI-Mathematica3Mono-Medium-R-Normal--32-320-75-75-M-180-Adobe-FontSpecific
SIZE 32 75 75
FONTBOUNDINGBOX 29 31 -1 -6
STARTPROPERTIES 16
FOUNDRY "WRI"
FAMILY_NAME "Mathematica3Mono"
WEIGHT_NAME "Medium"
SLANT "R"
SETWIDTH_NAME "Normal"
PIXEL_SIZE 32
POINT_SIZE 320
RESOLUTION_X 75
RESOLUTION_Y 75
SPACING "M"
AVERAGE_WIDTH 180
CHARSET_REGISTRY "Adobe"
CHARSET_ENCODING "FontSpecific"
FONT_DESCENT 6
FONT_ASCENT 25
DEFAULT_CHAR 32
ENDPROPERTIES
CHARS 224
STARTCHAR space
ENCODING 32
SWIDTH 263 0
DWIDTH 8 0
BBX 0 0 0 0
BITMAP
ENDCHAR
STARTCHAR Integral
ENCODING 33
SWIDTH 600 0
DWIDTH 19 0
BBX 16 26 2 -2
BITMAP
001e
0023
0040
0040
0040
00c0
0080
0080
0080
0080
0080
0080
0180
0180
0100
0100
0100
0100
0100
0100
0300
0200
0200
0600
c400
7800
ENDCHAR
STARTCHAR ContourIntegral
ENCODING 34
SWIDTH 600 0
DWIDTH 19 0
BBX 15 26 2 -2
BITMAP
001c
0062
0040
00c0
0080
0080
0080
0180
0fe0
19b0
1110
2108
2108
2108
2108
3118
1b30
0f60
0380
0200
0200
0200
0600
0400
cc00
7800
ENDCHAR
STARTCHAR DblContInteg
ENCODING 35
SWIDTH 600 0
DWIDTH 19 0
BBX 19 26 0 -2
BITMAP
0071e0
008b20
008200
010400
010400
010400
010400
010400
0ffe00
1b0f00
230880
4208c0
420840
420840
420840
620840
221880
161300
0ffe00
041000
041000
041000
041000
0c2000
8b2000
71c000
ENDCHAR
STARTCHAR CntrClckwContInteg
ENCODING 36
SWIDTH 600 0
DWIDTH 19 0
BBX 16 26 2 -2
BITMAP
001c
0062
0040
00c0
0080
0080
0080
0180
0fe0
19b0
1198
2108
2108
211e
216b
3118
1910
0f60
0380
0200
0200
0200
0200
0400
cc00
7800
ENDCHAR
STARTCHAR ClckwContInteg
ENCODING 37
SWIDTH 600 0
DWIDTH 19 0
BBX 16 26 1 -2
BITMAP
001e
0031
0020
0060
0040
0040
0040
00c0
07f0
0cd8
1888
1084
1084
7884
d684
188c
0998
0730
01c0
0100
0100
0100
0300
0200
4600
3800
ENDCHAR
STARTCHAR SquareContInteg
ENCODING 38
SWIDTH 600 0
DWIDTH 19 0
BBX 15 26 2 -2
BITMAP
001c
0022
0040
00c0
0080
0080
0080
0080
3ff8
2188
2188
2108
2108
2108
2108
2108
2308
2308
3ff8
0200
0200
0200
0600
0400
8c00
7000
ENDCHAR
STARTCHAR Intersection
ENCODING 39
SWIDTH 600 0
DWIDTH 19 0
BBX 14 18 3 0
BITMAP
0fc0
3870
6018
4008
8004
8004
8004
8004
8004
8004
8004
8004
8004
8004
8004
8004
8004
8004
ENDCHAR
STARTCHAR Union
ENCODING 40
SWIDTH 600 0
DWIDTH 19 0
BBX 14 19 3 -1
BITMAP
8004
8004
8004
8004
8004
8004
8004
8004
8004
8004
8004
8004
8004
8004
8004
4008
6018
3860
0fc0
ENDCHAR
STARTCHAR UnionPlus
ENCODING 41
SWIDTH 600 0
DWIDTH 19 0
BBX 14 19 3 -1
BITMAP
8004
8004
8004
8004
8004
8204
8204
8204
8204
bfe4
8204
8204
8204
8204
4008
4018
2030
1860
0f80
ENDCHAR
STARTCHAR SquareIntersection
ENCODING 42
SWIDTH 600 0
DWIDTH 19 0
BBX 14 18 3 0
BITMAP
fffc
8004
8004
8004
8004
8004
8004
8004
8004
8004
8004
8004
8004
8004
8004
8004
8004
8004
ENDCHAR
STARTCHAR SquareUnion
ENCODING 43
SWIDTH 600 0
DWIDTH 19 0
BBX 14 18 3 0
BITMAP
8004
8004
8004
8004
8004
8004
8004
8004
8004
8004
8004
8004
8004
8004
8004
8004
8004
fffc
ENDCHAR
STARTCHAR Wedge
ENCODING 44
SWIDTH 600 0
DWIDTH 19 0
BBX 17 18 1 0
BITMAP
008000
008000
014000
014000
036000
022000
063000
041000
041000
080800
080800
100400
100400
300600
200200
600300
400100
c00180
ENDCHAR
STARTCHAR SmallWedge
ENCODING 45
SWIDTH 600 0
DWIDTH 19 0
BBX 12 10 4 2
BITMAP
0200
0600
0f00
0900
1980
1080
30c0
2040
4020
c030
ENDCHAR
STARTCHAR Vee
ENCODING 46
SWIDTH 600 0
DWIDTH 19 0
BBX 17 18 1 0
BITMAP
c00180
400100
600300
200200
300600
100400
100400
080800
080800
041000
041000
063000
022000
036000
014000
014000
008000
008000
ENDCHAR
STARTCHAR SmallVee
ENCODING 47
SWIDTH 600 0
DWIDTH 19 0
BBX 12 10 4 2
BITMAP
c030
4020
2040
30c0
1080
1980
0900
0f00
0600
0200
ENDCHAR
STARTCHAR LTriangle
ENCODING 48
SWIDTH 600 0
DWIDTH 19 0
BBX 14 15 2 0
BITMAP
0004
001c
0074
00c4
0304
0c04
3804
e004
3804
0c04
0304
00c4
0074
001c
0004
ENDCHAR
STARTCHAR LTriangleEqual
ENCODING 49
SWIDTH 600 0
DWIDTH 19 0
BBX 13 15 3 0
BITMAP
0008
0038
00e8
0388
0e08
3008
c008
7008
1c08
0388
00e8
0038
0008
0000
fff8
ENDCHAR
STARTCHAR LTriangleBar
ENCODING 50
SWIDTH 600 0
DWIDTH 19 0
BBX 18 15 0 0
BITMAP
000400
001c40
007440
00c440
030440
0c0440
380440
e00440
380440
0c0440
030440
00c440
007440
001c40
000400
ENDCHAR
STARTCHAR NotLTriangle
ENCODING 51
SWIDTH 600 0
DWIDTH 19 0
BBX 15 20 2 -3
BITMAP
0020
0060
0040
004c
007c
00e4
0184
0684
1c84
7104
f104
1904
0704
0384
02e4
023c
060c
0402
0400
0400
ENDCHAR
STARTCHAR NotLTriangleEqual
ENCODING 52
SWIDTH 600 0
DWIDTH 19 0
BBX 13 20 3 -3
BITMAP
0040
00c0
0080
0098
00f8
01c8
0708
3908
e308
7208
1e08
0708
07c8
0438
0408
0400
fff8
0800
0800
1800
ENDCHAR
STARTCHAR NotLTriangleBar
ENCODING 53
SWIDTH 600 0
DWIDTH 19 0
BBX 18 20 0 -3
BITMAP
001800
001000
001000
001c40
003c40
006440
01a440
066440
1c4440
704440
f04440
18c440
068440
018440
00e440
013c40
010c40
010200
030000
020000
ENDCHAR
STARTCHAR Bar
ENCODING 54
SWIDTH 600 0
DWIDTH 19 0
BBX 1 18 9 0
BITMAP
80
80
80
80
80
80
80
80
80
80
80
80
80
80
80
80
80
80
ENDCHAR
STARTCHAR Parallel
ENCODING 55
SWIDTH 600 0
DWIDTH 19 0
BBX 7 18 6 0
BITMAP
82
82
82
82
82
82
82
82
82
82
82
82
82
82
82
82
82
82
ENDCHAR
STARTCHAR TrplBar
ENCODING 56
SWIDTH 600 0
DWIDTH 19 0
BBX 14 18 3 0
BITMAP
8204
8204
8204
8204
8204
8204
8204
8204
8204
8204
8204
8204
8204
8204
8204
8204
8204
8204
ENDCHAR
STARTCHAR ShortBar
ENCODING 57
SWIDTH 600 0
DWIDTH 19 0
BBX 1 14 9 0
BITMAP
80
80
80
80
80
80
80
80
80
80
80
80
80
80
ENDCHAR
STARTCHAR ShortParallelBar
ENCODING 58
SWIDTH 600 0
DWIDTH 19 0
BBX 7 14 6 0
BITMAP
82
82
82
82
82
82
82
82
82
82
82
82
82
82
ENDCHAR
STARTCHAR BarExt
ENCODING 59
SWIDTH 600 0
DWIDTH 19 0
BBX 1 6 9 0
BITMAP
80
80
80
80
80
80
ENDCHAR
STARTCHAR Tangental
ENCODING 60
SWIDTH 600 0
DWIDTH 19 0
BBX 13 18 3 0
BITMAP
0418
0410
0c10
0810
0830
0820
1820
1020
1040
1040
2040
20c0
2080
6080
4080
4180
4100
c100
ENDCHAR
STARTCHAR NotTildeFullEqual
ENCODING 61
SWIDTH 600 0
DWIDTH 19 0
BBX 14 18 2 -2
BITMAP
0040
00c0
0080
3c84
c798
41e0
0100
0100
0100
7ff8
0200
0200
0200
7ff8
0400
0400
0c00
0800
ENDCHAR
STARTCHAR TildeEqual
ENCODING 62
SWIDTH 600 0
DWIDTH 19 0
BBX 14 9 2 3
BITMAP
3804
6608
c318
40e0
0000
0000
0000
0000
7ff8
ENDCHAR
STARTCHAR EqualTilde
ENCODING 63
SWIDTH 600 0
DWIDTH 19 0
BBX 14 9 2 2
BITMAP
7ff8
0000
0000
0000
0000
3804
6608
c318
40e0
ENDCHAR
STARTCHAR RTriangle
ENCODING 64
SWIDTH 600 0
DWIDTH 19 0
BBX 14 15 3 0
BITMAP
8000
e000
b800
8c00
8300
80c0
8070
801c
8070
80c0
8300
8c00
b800
e000
8000
ENDCHAR
STARTCHAR RTriangleEqual
ENCODING 65
SWIDTH 600 0
DWIDTH 19 0
BBX 13 15 3 0
BITMAP
8000
e000
b800
8e00
8380
8060
8018
8070
81c0
8e00
b800
e000
8000
0000
fff8
ENDCHAR
STARTCHAR RTriangleBar
ENCODING 66
SWIDTH 600 0
DWIDTH 19 0
BBX 18 15 1 0
BITMAP
080000
8e0000
8b8000
88c000
883000
880c00
880700
8801c0
880700
880c00
883000
88c000
8b8000
8e0000
080000
ENDCHAR
STARTCHAR NotRTriangle
ENCODING 67
SWIDTH 600 0
DWIDTH 19 0
BBX 14 20 3 -3
BITMAP
0080
0080
0080
c180
f100
9900
8700
8380
82e0
8238
823c
8460
8580
8600
9c00
f800
c800
8800
1800
1000
ENDCHAR
STARTCHAR NotRTriangleEqual
ENCODING 68
SWIDTH 600 0
DWIDTH 19 0
BBX 13 20 3 -3
BITMAP
00c0
0080
0080
c080
f180
9d00
8300
83e0
8238
8270
83c0
8700
9c00
e400
8400
0c00
fff8
0800
1800
1000
ENDCHAR
STARTCHAR NotRTriangleBar
ENCODING 69
SWIDTH 600 0
DWIDTH 19 0
BBX 18 20 1 -3
BITMAP
001000
003000
002000
8c2000
8f2000
89c000
886000
885800
88ce00
888380
8883c0
888600
899800
896000
89c000
8f0000
8e0000
0a0000
020000
060000
ENDCHAR
STARTCHAR NotBar
ENCODING 70
SWIDTH 600 0
DWIDTH 19 0
BBX 11 18 4 0
BITMAP
0400
0400
0400
0400
0460
0480
0500
0700
0600
0c00
1c00
3400
6400
c400
0400
0400
0400
0400
ENDCHAR
STARTCHAR NotParallelBar
ENCODING 71
SWIDTH 600 0
DWIDTH 19 0
BBX 19 18 0 0
BITMAP
020860
0208c0
020980
020b00
020e00
020800
021800
023800
026800
02c800
038800
030800
020800
060800
0a0800
120800
220800
c20800
ENDCHAR
STARTCHAR NotTrplBar
ENCODING 72
SWIDTH 600 0
DWIDTH 19 0
BBX 19 18 0 0
BITMAP
104160
1041c0
104180
104300
104700
104d00
105900
107100
106100
10c100
11c100
134100
164100
1c4100
184100
304100
704100
d04100
ENDCHAR
STARTCHAR ShortNotBar
ENCODING 73
SWIDTH 600 0
DWIDTH 19 0
BBX 11 14 4 0
BITMAP
0400
0400
0460
0480
0500
0600
0400
0c00
1c00
3400
6400
c400
0400
0400
ENDCHAR
STARTCHAR ShortNotParallelBar
ENCODING 74
SWIDTH 600 0
DWIDTH 19 0
BBX 15 14 2 0
BITMAP
0826
0828
0830
0820
0860
08e0
09a0
0a20
0c20
0820
1820
3820
6820
c820
ENDCHAR
STARTCHAR ParallelExt
ENCODING 75
SWIDTH 600 0
DWIDTH 19 0
BBX 7 6 6 0
BITMAP
82
82
82
82
82
82
ENDCHAR
STARTCHAR NotTilde
ENCODING 76
SWIDTH 600 0
DWIDTH 19 0
BBX 14 14 2 0
BITMAP
0080
0080
0080
0100
0100
3d04
6708
c318
43e0
0200
0200
0400
0400
0400
ENDCHAR
STARTCHAR NotTildeTilde
ENCODING 77
SWIDTH 600 0
DWIDTH 19 0
BBX 14 16 3 -1
BITMAP
00c0
0080
0080
3d84
6708
c318
41e0
0100
0200
3e04
6608
c718
45e0
0400
0400
0c00
ENDCHAR
STARTCHAR NotTildeEqual
ENCODING 78
SWIDTH 600 0
DWIDTH 19 0
BBX 14 16 3 -1
BITMAP
00c0
0080
0080
3d84
6708
c318
41e0
0100
0200
0200
0200
7ff8
0400
0400
0400
0c00
ENDCHAR
STARTCHAR NotEqualTilde
ENCODING 79
SWIDTH 600 0
DWIDTH 19 0
BBX 14 16 3 -1
BITMAP
00c0
0080
0080
0180
7ff8
0100
0100
0300
0200
3e04
6608
c718
45e0
0400
0400
0c00
ENDCHAR
STARTCHAR HumpEqual
ENCODING 80
SWIDTH 600 0
DWIDTH 19 0
BBX 13 10 3 3
BITMAP
0780
08c0
f878
0000
0000
0000
0000
0000
0000
fff8
ENDCHAR
STARTCHAR HumpDownHump
ENCODING 81
SWIDTH 600 0
DWIDTH 19 0
BBX 13 12 3 1
BITMAP
0f80
18c0
f078
0000
0000
0000
0000
0000
0000
f078
18c0
0f80
ENDCHAR
STARTCHAR NotHumpEqual
ENCODING 82
SWIDTH 600 0
DWIDTH 19 0
BBX 13 20 3 -3
BITMAP
0040
0040
00c0
0080
0780
08c0
f978
0100
0100
0100
0200
0200
0200
fff8
0400
0400
0400
0c00
0800
0800
ENDCHAR
STARTCHAR NotHumpDownHump
ENCODING 83
SWIDTH 600 0
DWIDTH 19 0
BBX 13 20 3 -3
BITMAP
0040
0040
00c0
0080
0f80
19c0
f178
0100
0300
0200
0200
0600
0400
f478
1cc0
0f80
0800
1800
1000
1000
ENDCHAR
STARTCHAR NotCongruent
ENCODING 84
SWIDTH 600 0
DWIDTH 19 0
BBX 13 20 3 -3
BITMAP
00c0
0080
0080
0080
fff8
0100
0100
0300
0200
fff8
0200
0600
0400
0400
0400
fff8
0800
0800
0800
1800
ENDCHAR
STARTCHAR DotEqual
ENCODING 85
SWIDTH 600 0
DWIDTH 19 0
BBX 13 13 3 3
BITMAP
0700
0700
0700
0000
0000
fff8
0000
0000
0000
0000
0000
0000
fff8
ENDCHAR
STARTCHAR RoundImplies
ENCODING 86
SWIDTH 600 0
DWIDTH 19 0
BBX 14 7 3 3
BITMAP
fff0
000c
0004
0004
0004
000c
fff0
ENDCHAR
STARTCHAR Equal
ENCODING 87
SWIDTH 341 0
DWIDTH 11 0
BBX 9 8 1 3
BITMAP
ff80
0000
0000
0000
0000
0000
0000
ff80
ENDCHAR
STARTCHAR TrplEqual
ENCODING 88
SWIDTH 978 0
DWIDTH 31 0
BBX 25 8 3 3
BITMAP
fe7f3f80
00000000
00000000
00000000
00000000
00000000
00000000
fe7f3f80
ENDCHAR
STARTCHAR FrownEqual
ENCODING 89
SWIDTH 600 0
DWIDTH 19 0
BBX 13 8 3 3
BITMAP
1fe0
e038
8008
0000
0000
0000
0000
fff8
ENDCHAR
STARTCHAR SmileEqual
ENCODING 90
SWIDTH 600 0
DWIDTH 19 0
BBX 13 8 3 3
BITMAP
fff8
0000
0000
0000
0000
8008
e038
1fe0
ENDCHAR
STARTCHAR Frown
ENCODING 91
SWIDTH 600 0
DWIDTH 19 0
BBX 13 3 3 5
BITMAP
3fe0
e038
8008
ENDCHAR
STARTCHAR Smile
ENCODING 92
SWIDTH 600 0
DWIDTH 19 0
BBX 13 3 3 5
BITMAP
8008
e038
3fe0
ENDCHAR
STARTCHAR FrownSmile
ENCODING 93
SWIDTH 600 0
DWIDTH 19 0
BBX 13 10 3 2
BITMAP
3fe0
e038
8008
0000
0000
0000
0000
8008
e038
3fe0
ENDCHAR
STARTCHAR SmileFrown
ENCODING 94
SWIDTH 600 0
DWIDTH 19 0
BBX 13 10 3 2
BITMAP
8008
e038
3fe0
0000
0000
0000
0000
0000
3fe0
c018
ENDCHAR
STARTCHAR NotSmileFrown
ENCODING 95
SWIDTH 600 0
DWIDTH 19 0
BBX 14 20 3 -3
BITMAP
00c0
0080
0080
0080
0180
8104
e138
7ff0
1fc0
0200
0200
0200
0600
3fe0
c418
0400
0800
0800
0800
1800
ENDCHAR
STARTCHAR LessLess
ENCODING 96
SWIDTH 600 0
DWIDTH 19 0
BBX 18 14 0 0
BITMAP
001040
0061c0
01c300
030c00
0c1800
186000
e1c000
61c000
186000
0c1800
030c00
01c300
0061c0
001040
ENDCHAR
STARTCHAR DblLess
ENCODING 97
SWIDTH 600 0
DWIDTH 19 0
BBX 15 14 2 0
BITMAP
0004
0018
0060
0182
070c
1c30
f1c0
70c0
1c30
070c
01c2
0060
0018
0004
ENDCHAR
STARTCHAR LessSlantEqual
ENCODING 98
SWIDTH 600 0
DWIDTH 19 0
BBX 13 14 4 0
BITMAP
0018
0070
0380
0e00
7000
e000
1c00
0780
c0e0
7018
0e00
0380
0070
0018
ENDCHAR
STARTCHAR LessFullEqual
ENCODING 99
SWIDTH 600 0
DWIDTH 19 0
BBX 14 17 3 -1
BITMAP
000c
0038
00e0
0700
1c00
e000
1c00
0700
00e0
0038
0004
0000
7ffc
0000
0000
0000
7ffc
ENDCHAR
STARTCHAR LessTilde
ENCODING 100
SWIDTH 600 0
DWIDTH 19 0
BBX 14 14 2 0
BITMAP
0008
0038
01c0
0700
3800
7000
1c00
0380
00e0
0018
0004
3c04
c718
41e0
ENDCHAR
STARTCHAR NotLess
ENCODING 101
SWIDTH 600 0
DWIDTH 19 0
BBX 14 18 2 -2
BITMAP
0040
0040
0044
00d8
00e0
0180
0680
1900
7100
f100
1900
0600
0380
0260
0618
0404
0400
0400
ENDCHAR
STARTCHAR NotLessLess
ENCODING 102
SWIDTH 600 0
DWIDTH 19 0
BBX 18 21 0 -3
BITMAP
001000
001000
003000
002040
0020c0
00e180
01e600
064c00
0c7000
306000
e1c000
60c000
18e000
0c9800
038c00
018300
016180
0120c0
030000
020000
020000
ENDCHAR
STARTCHAR NotDblLess
ENCODING 103
SWIDTH 600 0
DWIDTH 19 0
BBX 15 19 2 -2
BITMAP
0060
0040
0040
004c
00d8
00e0
0184
068c
1930
e1c0
71c0
1930
060c
0382
0260
0618
0404
0400
0400
ENDCHAR
STARTCHAR NotLessEqual
ENCODING 104
SWIDTH 600 0
DWIDTH 19 0
BBX 13 20 4 -3
BITMAP
0080
0080
0080
0198
0170
0380
0f00
7300
e200
3a00
0700
05e0
0438
0408
0c00
0800
fff8
0800
1000
1000
ENDCHAR
STARTCHAR NotLessSlantEqual
ENCODING 105
SWIDTH 600 0
DWIDTH 19 0
BBX 13 20 4 -3
BITMAP
0080
0080
0080
0198
01f0
0380
1d00
7200
e200
1e00
0700
84e0
7438
1c00
0f80
08e0
0818
0800
1000
1000
ENDCHAR
STARTCHAR NotLessFullEqual
ENCODING 106
SWIDTH 600 0
DWIDTH 19 0
BBX 13 20 4 -3
BITMAP
0080
0080
00b8
01e0
0700
3d00
e100
7200
0e00
03c0
0670
0418
0400
fff8
0c00
0800
0800
fff8
1800
1000
ENDCHAR
STARTCHAR NotLessTilde
ENCODING 107
SWIDTH 600 0
DWIDTH 19 0
BBX 14 20 2 -3
BITMAP
0040
0040
00c0
0088
00f0
01c0
0f00
3900
7100
0f00
0380
02f0
0218
0600
3c04
c718
44f0
0c00
0800
0800
ENDCHAR
STARTCHAR SquareSubset
ENCODING 108
SWIDTH 600 0
DWIDTH 19 0
BBX 13 14 3 0
BITMAP
fff8
8000
8000
8000
8000
8000
8000
8000
8000
8000
8000
8000
8000
fff8
ENDCHAR
STARTCHAR SquareSubsetEqual
ENCODING 109
SWIDTH 600 0
DWIDTH 19 0
BBX 13 18 3 -2
BITMAP
fff8
8000
8000
8000
8000
8000
8000
8000
8000
8000
8000
8000
8000
fff8
0000
0000
0000
fff8
ENDCHAR
STARTCHAR NotSquareSubset
ENCODING 110
SWIDTH 600 0
DWIDTH 19 0
BBX 13 20 3 -3
BITMAP
00c0
0080
0080
fff8
8100
8100
8100
8300
8200
8200
8200
8400
8400
8400
8c00
8800
fff8
0800
1800
1000
ENDCHAR
STARTCHAR NotSquareSubsetEqual
ENCODING 111
SWIDTH 600 0
DWIDTH 19 0
BBX 13 24 3 -5
BITMAP
0040
0040
0080
fff8
8080
8180
8100
8100
8100
8300
8200
8200
8200
8400
8400
8400
fff8
0800
0800
0800
fff8
1000
1000
3000
ENDCHAR
STARTCHAR GrtrGrtr
ENCODING 112
SWIDTH 600 0
DWIDTH 19 0
BBX 18 14 1 0
BITMAP
810000
e18000
30e000
0c3000
060c00
018600
00e1c0
00e180
018600
060c00
0c3000
30e000
e18000
810000
ENDCHAR
STARTCHAR DblGrtr
ENCODING 113
SWIDTH 600 0
DWIDTH 19 0
BBX 14 14 3 0
BITMAP
8000
6000
1800
8600
c380
30e0
0e3c
0c38
30e0
c380
8e00
1800
6000
8000
ENDCHAR
STARTCHAR GrtrSlantEqual
ENCODING 114
SWIDTH 600 0
DWIDTH 19 0
BBX 13 14 3 0
BITMAP
c000
7000
0e00
0380
0070
0038
01c0
0f00
3818
c070
0380
0e00
7000
c000
ENDCHAR
STARTCHAR GrtrFullEqual
ENCODING 115
SWIDTH 600 0
DWIDTH 19 0
BBX 14 17 3 -1
BITMAP
c000
7000
1c00
0380
00e0
001c
00e0
0380
1c00
7000
8000
0000
fff8
0000
0000
0000
fff8
ENDCHAR
STARTCHAR GrtrTilde
ENCODING 116
SWIDTH 600 0
DWIDTH 19 0
BBX 14 14 2 0
BITMAP
4000
7000
0e00
0380
0070
0038
00e0
0700
1c00
6000
4000
3c04
c718
41e0
ENDCHAR
STARTCHAR NotGrtr
ENCODING 117
SWIDTH 600 0
DWIDTH 19 0
BBX 14 20 3 -3
BITMAP
00c0
0080
0080
c080
6180
1900
0700
0180
0260
0238
023c
0260
0580
0600
1c00
6c00
c800
0800
0800
1800
ENDCHAR
STARTCHAR NotGrtrGrtr
ENCODING 118
SWIDTH 600 0
DWIDTH 19 0
BBX 18 20 1 -3
BITMAP
001000
001000
813000
c12000
60e000
186000
0c7800
034c00
01c300
0061c0
00c380
038600
069800
19b000
31c000
c18000
810000
030000
020000
020000
ENDCHAR
STARTCHAR NotDblGrtr
ENCODING 119
SWIDTH 600 0
DWIDTH 19 0
BBX 14 19 3 -3
BITMAP
0080
0080
8080
6180
1900
8700
c180
32e0
0e38
0e1c
3260
c580
8600
1c00
6c00
c800
0800
0800
1800
ENDCHAR
STARTCHAR NotGrtrEqual
ENCODING 120
SWIDTH 600 0
DWIDTH 19 0
BBX 13 20 3 -3
BITMAP
0040
0040
0080
c080
7080
0f80
0380
0170
0138
03e0
0700
3e00
e200
8600
0400
0400
fff8
0800
0800
0800
ENDCHAR
STARTCHAR NotGrtrSlantEqual
ENCODING 121
SWIDTH 600 0
DWIDTH 19 0
BBX 13 20 3 -3
BITMAP
0040
0040
0080
c080
7880
0f80
01c0
0170
0138
03c0
0700
3a08
e270
05c0
0e00
3c00
cc00
0800
0800
0800
ENDCHAR
STARTCHAR NotGrtrFullEqual
ENCODING 122
SWIDTH 600 0
DWIDTH 19 0
BBX 13 20 3 -3
BITMAP
0040
0040
e080
3880
0780
01e0
0138
0170
0380
1e00
7200
c200
0600
fff8
0400
0400
0400
fff8
0800
0800
ENDCHAR
STARTCHAR NotGrtrTilde
ENCODING 123
SWIDTH 600 0
DWIDTH 19 0
BBX 14 20 2 -3
BITMAP
0040
0040
00c0
4080
3880
0e80
01c0
0170
0138
01c0
0700
3a00
6200
0600
3c04
c718
44f0
0c00
0800
0800
ENDCHAR
STARTCHAR SquareSprset
ENCODING 124
SWIDTH 600 0
DWIDTH 19 0
BBX 13 14 3 0
BITMAP
fff8
0008
0008
0008
0008
0008
0008
0008
0008
0008
0008
0008
0008
fff8
ENDCHAR
STARTCHAR SquareSprsetEqual
ENCODING 125
SWIDTH 600 0
DWIDTH 19 0
BBX 13 18 3 -2
BITMAP
fff8
0008
0008
0008
0008
0008
0008
0008
0008
0008
0008
0008
0008
fff8
0000
0000
0000
fff8
ENDCHAR
STARTCHAR NotSquareSprset
ENCODING 126
SWIDTH 600 0
DWIDTH 19 0
BBX 13 20 3 -3
BITMAP
0040
00c0
0080
fff8
0088
0108
0108
0108
0308
0208
0208
0208
0608
0408
0408
0408
fff8
0800
0800
1800
ENDCHAR
STARTCHAR DEL
ENCODING 127
SWIDTH 263 0
DWIDTH 8 0
BBX 0 0 0 0
BITMAP
ENDCHAR
STARTCHAR Prcds
ENCODING 128
SWIDTH 600 0
DWIDTH 19 0
BBX 13 14 3 0
BITMAP
0008
0018
0030
0060
0180
0e00
f800
7800
0e00
0180
0060
0030
0018
0008
ENDCHAR
STARTCHAR PrcdsEqual
ENCODING 129
SWIDTH 600 0
DWIDTH 19 0
BBX 13 15 3 0
BITMAP
0008
0018
0070
01c0
0700
fc00
3c00
0700
00c0
0070
0018
0008
0000
0000
fff8
ENDCHAR
STARTCHAR PrcdsSlantEqual
ENCODING 130
SWIDTH 600 0
DWIDTH 19 0
BBX 13 15 3 0
BITMAP
0008
0018
0060
01c0
0f00
f800
1e00
0380
e060
3c30
0708
01c0
0060
0018
0008
ENDCHAR
STARTCHAR PrcdsTilde
ENCODING 131
SWIDTH 600 0
DWIDTH 19 0
BBX 13 15 3 0
BITMAP
0008
0010
0060
01c0
0700
f800
3c00
0700
00c0
0060
0010
0008
7808
c630
81e0
ENDCHAR
STARTCHAR NotPrcds
ENCODING 132
SWIDTH 600 0
DWIDTH 19 0
BBX 13 20 3 -3
BITMAP
0040
0040
00c0
0088
0098
00b0
0160
0180
0700
3900
fa00
0700
0380
0660
0430
0418
0408
0c00
0800
0800
ENDCHAR
STARTCHAR NotPrcdsEqual
ENCODING 133
SWIDTH 600 0
DWIDTH 19 0
BBX 14 20 3 -3
BITMAP
0040
00c0
0084
0088
00b0
01e0
0380
1f00
f900
0700
03c0
0260
0218
0608
0400
0400
fff8
0800
0800
0800
ENDCHAR
STARTCHAR NotPrcdsSlantEqual
ENCODING 134
SWIDTH 600 0
DWIDTH 19 0
BBX 14 20 3 -3
BITMAP
0040
00c0
0084
0098
00b0
01e0
0380
3d00
fd00
0700
02c0
f230
0e18
0788
04e0
0430
0418
0804
0800
0800
ENDCHAR
STARTCHAR NotPrcdsTilde
ENCODING 135
SWIDTH 600 0
DWIDTH 19 0
BBX 14 20 2 -3
BITMAP
0040
0040
0044
00c8
00b8
00e0
0380
1f80
7d00
0780
01e0
0230
0208
0204
3e04
c718
45f0
0400
0c00
0800
ENDCHAR
STARTCHAR LessGrtr
ENCODING 136
SWIDTH 600 0
DWIDTH 19 0
BBX 14 20 3 -3
BITMAP
0008
0038
01c0
0700
1c00
e000
1c00
0700
00e0
4038
7008
1e00
0380
00e0
001c
00e0
0380
1e00
7000
4000
ENDCHAR
STARTCHAR NotLessGrtr
ENCODING 137
SWIDTH 600 0
DWIDTH 19 0
BBX 13 24 4 -5
BITMAP
0040
0080
0088
00b0
01c0
0700
3900
e100
7300
0e00
03c0
8270
e410
1c00
0700
0ce0
0870
09c0
0e00
3800
d000
9000
1000
2000
ENDCHAR
STARTCHAR LessEqualGrtr
ENCODING 138
SWIDTH 600 0
DWIDTH 19 0
BBX 13 26 3 -6
BITMAP
0008
0038
00e0
0700
1c00
e000
3800
0700
01c0
0070
0008
0000
0000
7ff8
0000
0000
6000
3800
0700
01e0
0038
0070
0380
0e00
7000
4000
ENDCHAR
STARTCHAR Because
ENCODING 139
SWIDTH 600 0
DWIDTH 19 0
BBX 17 15 1 0
BITMAP
600300
f00780
f00780
600300
000000
000000
000000
000000
000000
000000
000000
018000
03c000
03c000
018000
ENDCHAR
STARTCHAR NotSquareSprsetEqual
ENCODING 140
SWIDTH 600 0
DWIDTH 19 0
BBX 13 24 3 -5
BITMAP
0060
0040
0040
fff8
0088
0088
0088
0108
0108
0108
0308
0208
0208
0208
0608
0408
fff8
0400
0c00
0800
fff8
0800
1000
1000
ENDCHAR
STARTCHAR NotSubsetEqual
ENCODING 141
SWIDTH 600 0
DWIDTH 19 0
BBX 13 24 3 -5
BITMAP
0040
0040
0040
0ff8
3080
6080
4180
c100
8100
8100
8300
8200
8200
4200
6600
3400
0ff8
0400
0400
0800
7ff8
0800
1800
1000
ENDCHAR
STARTCHAR NotSprset
ENCODING 142
SWIDTH 600 0
DWIDTH 19 0
BBX 14 20 3 -3
BITMAP
0040
0040
00c0
ffc0
00b0
0198
0108
0104
0104
0304
0204
0204
020c
0608
0418
0430
ffc0
0800
0800
0800
ENDCHAR
STARTCHAR NotSprsetEqual
ENCODING 143
SWIDTH 600 0
DWIDTH 19 0
BBX 14 24 3 -5
BITMAP
0020
0040
0040
ffc0
00b0
0098
0088
018c
0104
0104
0104
0304
020c
0208
0218
0630
ffc0
0400
0400
0c00
fff8
0800
1800
1000
ENDCHAR
STARTCHAR Succds
ENCODING 144
SWIDTH 600 0
DWIDTH 19 0
BBX 13 14 3 0
BITMAP
8000
c000
6000
3000
0c00
0380
00f0
00f8
0380
0c00
3000
6000
c000
8000
ENDCHAR
STARTCHAR SuccdsEqual
ENCODING 145
SWIDTH 600 0
DWIDTH 19 0
BBX 13 15 3 0
BITMAP
8000
c000
7000
1800
0700
01f8
01e0
0700
1800
7000
c000
8000
0000
0000
fff8
ENDCHAR
STARTCHAR SuccdsSlantEqual
ENCODING 146
SWIDTH 600 0
DWIDTH 19 0
BBX 13 15 3 0
BITMAP
8000
c000
3000
1c00
0780
00f8
03c0
0e00
3018
e1e0
8700
1c00
7000
c000
8000
ENDCHAR
STARTCHAR SuccdsTilde
ENCODING 147
SWIDTH 600 0
DWIDTH 19 0
BBX 14 15 2 0
BITMAP
4000
6000
3000
1c00
0780
00f8
01f0
0700
1c00
3000
4000
4000
3c04
c718
40f0
ENDCHAR
STARTCHAR NotSuccds
ENCODING 148
SWIDTH 600 0
DWIDTH 19 0
BBX 13 20 3 -3
BITMAP
0080
0080
0080
8100
c100
6100
3100
0e00
0700
02e8
06f0
0700
0c00
3400
6c00
c800
8800
0800
1800
1000
ENDCHAR
STARTCHAR NotSuccdsEqual
ENCODING 149
SWIDTH 600 0
DWIDTH 19 0
BBX 13 20 3 -3
BITMAP
0080
0080
8100
c100
6100
3b00
0e00
03c0
02f8
0700
1c00
7400
c400
8c00
0800
0800
fff8
1000
1000
1000
ENDCHAR
STARTCHAR NotSuccdsSlantEqual
ENCODING 150
SWIDTH 600 0
DWIDTH 19 0
BBX 13 20 3 -3
BITMAP
0080
0080
8100
c100
6100
3b00
0e00
03e0
03f8
0700
1c00
7478
c7c0
8e00
3800
6800
c800
9000
1000
1000
ENDCHAR
STARTCHAR NotSuccdsTilde
ENCODING 151
SWIDTH 600 0
DWIDTH 19 0
BBX 14 20 2 -3
BITMAP
00c0
0080
4080
4180
7100
1900
0700
03e0
02f8
0780
1e00
3600
4400
4400
3c04
cf18
49f0
0800
0800
1000
ENDCHAR
STARTCHAR GrtrLess
ENCODING 152
SWIDTH 600 0
DWIDTH 19 0
BBX 14 20 3 -3
BITMAP
4000
7000
0e00
0380
00e0
001c
00e0
0380
1c00
7008
4038
01e0
0700
1c00
e000
1c00
0700
01e0
0038
0008
ENDCHAR
STARTCHAR NotGrtrLess
ENCODING 153
SWIDTH 600 0
DWIDTH 19 0
BBX 13 24 4 -5
BITMAP
0040
0080
8080
c080
3980
0f00
01c0
0170
03e0
0700
3e00
e210
8470
0780
0e00
7c00
e800
3800
0f00
19c0
1030
1008
1000
2000
ENDCHAR
STARTCHAR GrtrEqualLess
ENCODING 154
SWIDTH 600 0
DWIDTH 19 0
BBX 13 26 4 -6
BITMAP
8000
e000
3800
0700
01c0
0038
00e0
0700
1c00
7000
8000
0000
0000
fff0
0000
0000
0030
00e0
0700
3c00
e000
7000
0e00
0380
0070
0010
ENDCHAR
STARTCHAR Proportion
ENCODING 155
SWIDTH 600 0
DWIDTH 19 0
BBX 17 15 1 0
BITMAP
600300
f00780
f00780
600300
000000
000000
000000
000000
000000
000000
000000
600300
f00780
f00780
600300
ENDCHAR
STARTCHAR Member
ENCODING 156
SWIDTH 600 0
DWIDTH 19 0
BBX 14 14 3 0
BITMAP
ffc0
0030
0018
0008
0004
0004
fffc
0004
0004
000c
0008
0010
0020
ffc0
ENDCHAR
STARTCHAR NotMember
ENCODING 157
SWIDTH 600 0
DWIDTH 19 0
BBX 14 20 3 -3
BITMAP
0040
00c0
0080
ffc0
01e0
0110
0108
0108
030c
fffc
020c
020c
0608
0418
0410
0460
ffc0
0800
0800
1800
ENDCHAR
STARTCHAR CircleMinus
ENCODING 158
SWIDTH 600 0
DWIDTH 19 0
BBX 17 17 1 0
BITMAP
03e000
0c1800
300600
200200
400100
400100
800080
800080
ffff80
800080
800080
400100
400100
200200
300600
0c1800
03e000
ENDCHAR
STARTCHAR CircleDot
ENCODING 159
SWIDTH 600 0
DWIDTH 19 0
BBX 17 17 1 0
BITMAP
03e000
0c1800
300600
200200
400100
400100
800080
81c080
81c080
81c080
800080
400100
400100
200200
300600
0c1800
03e000
ENDCHAR
STARTCHAR EqualParallel
ENCODING 160
SWIDTH 600 0
DWIDTH 19 0
BBX 19 18 0 -2
BITMAP
020800
020800
020800
020800
020800
ffffe0
020800
020800
020800
020800
020800
020800
ffffe0
020800
020800
020800
020800
020800
ENDCHAR
STARTCHAR MinusPlus
ENCODING 161
SWIDTH 600 0
DWIDTH 19 0
BBX 13 16 3 0
BITMAP
fff8
0000
0000
0200
0200
0200
0200
0200
0200
fff8
0200
0200
0200
0200
0200
0200
ENDCHAR
STARTCHAR RTack
ENCODING 162
SWIDTH 600 0
DWIDTH 19 0
BBX 10 15 5 -1
BITMAP
8000
8000
8000
8000
8000
8000
8000
ffc0
8000
8000
8000
8000
8000
8000
8000
ENDCHAR
STARTCHAR DblRTack
ENCODING 163
SWIDTH 600 0
DWIDTH 19 0
BBX 10 14 5 0
BITMAP
8000
8000
8000
ffc0
8000
8000
8000
8000
8000
8000
ffc0
8000
8000
8000
ENDCHAR
STARTCHAR LTack
ENCODING 164
SWIDTH 600 0
DWIDTH 19 0
BBX 11 15 4 -1
BITMAP
0020
0020
0020
0020
0020
0020
0020
ffe0
0020
0020
0020
0020
0020
0020
0020
ENDCHAR
STARTCHAR DblLTack
ENCODING 165
SWIDTH 600 0
DWIDTH 19 0
BBX 11 14 4 0
BITMAP
0020
0020
0020
ffe0
0020
0020
0020
0020
0020
0020
ffe0
0020
0020
0020
ENDCHAR
STARTCHAR UpTee
ENCODING 166
SWIDTH 600 0
DWIDTH 19 0
BBX 15 10 2 2
BITMAP
0100
0100
0100
0100
0100
0100
0100
0100
0100
fffe
ENDCHAR
STARTCHAR DownTee
ENCODING 167
SWIDTH 600 0
DWIDTH 19 0
BBX 15 10 2 2
BITMAP
fffe
0100
0100
0100
0100
0100
0100
0100
0100
0100
ENDCHAR
STARTCHAR DownTeeLong
ENCODING 168
SWIDTH 600 0
DWIDTH 19 0
BBX 17 16 1 0
BITMAP
ffff80
008000
008000
008000
008000
008000
008000
008000
008000
008000
008000
008000
008000
008000
008000
008000
ENDCHAR
STARTCHAR Between
ENCODING 169
SWIDTH 600 0
DWIDTH 19 0
BBX 6 22 7 -4
BITMAP
48
30
30
30
30
30
78
48
cc
cc
cc
cc
cc
cc
48
78
30
30
30
30
30
48
ENDCHAR
STARTCHAR VertTilde
ENCODING 170
SWIDTH 600 0
DWIDTH 19 0
BBX 3 14 8 0
BITMAP
80
40
60
20
20
20
40
40
c0
80
80
80
40
40
ENDCHAR
STARTCHAR HorizHourglass
ENCODING 171
SWIDTH 600 0
DWIDTH 19 0
BBX 15 11 2 2
BITMAP
8002
c006
b01a
9832
86c2
8382
86c2
9832
b01a
c006
8002
ENDCHAR
STARTCHAR RightAngle
ENCODING 172
SWIDTH 600 0
DWIDTH 19 0
BBX 13 15 3 0
BITMAP
8000
8000
8000
8000
8000
8000
8000
8000
fe00
8200
8200
8200
8200
8200
fff8
ENDCHAR
STARTCHAR MeasuredAngle
ENCODING 173
SWIDTH 600 0
DWIDTH 19 0
BBX 14 15 3 0
BITMAP
0600
0400
0c00
0800
0800
1800
1000
1000
3800
2400
2200
6100
4100
4100
fffc
ENDCHAR
STARTCHAR SphericalAngle
ENCODING 174
SWIDTH 600 0
DWIDTH 19 0
BBX 13 14 3 0
BITMAP
0008
0038
00e0
0380
0e80
3840
e040
e040
3840
0e80
0380
00e0
0038
0008
ENDCHAR
STARTCHAR Diameter
ENCODING 175
SWIDTH 600 0
DWIDTH 19 0
BBX 17 17 1 0
BITMAP
03e080
0c1d00
300600
200700
400900
401180
802080
804080
808080
810080
820080
c40100
480100
700200
300400
5c1800
83e000
ENDCHAR
STARTCHAR Mho
ENCODING 176
SWIDTH 600 0
DWIDTH 19 0
BBX 17 19 1 -1
BITMAP
fc1f80
041000
041000
041000
0c1800
300600
600300
400100
800080
800080
800080
800080
800080
800080
400100
600300
300600
180c00
07f000
ENDCHAR
STARTCHAR NotExists
ENCODING 177
SWIDTH 600 0
DWIDTH 19 0
BBX 15 27 1 -5
BITMAP
0018
0010
0010
0020
fffe
0022
0042
0042
0042
0082
0082
0082
0102
07fe
0302
0202
0202
0602
0402
0402
0802
7ffe
0800
1000
1000
3000
2000
ENDCHAR
STARTCHAR CapDigamma
ENCODING 178
SWIDTH 600 0
DWIDTH 19 0
BBX 15 18 2 0
BITMAP
fffe
1002
1002
1002
1002
1002
1000
1000
1fe0
1020
1020
1020
1000
1000
1000
1000
1000
ff80
ENDCHAR
STARTCHAR CapStigma
ENCODING 179
SWIDTH 600 0
DWIDTH 19 0
BBX 16 23 3 -5
BITMAP
01ff
0700
0800
1000
2000
4000
4000
4000
8000
8000
8000
8000
8000
8000
4000
6000
1c00
03c0
0060
0020
0020
00c0
1f80
ENDCHAR
STARTCHAR CapKoppa
ENCODING 180
SWIDTH 600 0
DWIDTH 19 0
BBX 15 19 2 0
BITMAP
07e0
1830
2008
4004
c006
8002
8002
8002
8002
8002
4104
610c
3118
0fe0
0100
0100
0100
0100
0100
ENDCHAR
STARTCHAR CapSampi
ENCODING 181
SWIDTH 600 0
DWIDTH 19 0
BBX 18 19 0 0
BITMAP
01f800
060600
180300
000180
000080
0003c0
000640
000cc0
0019c0
002240
004440
018840
0310c0
066080
0cc180
198100
230600
c61c00
007000
ENDCHAR
STARTCHAR CurlyEpsilon
ENCODING 182
SWIDTH 600 0
DWIDTH 19 0
BBX 13 15 3 0
BITMAP
0fe0
3018
2000
4000
4000
4000
2000
1f00
6000
8000
8000
8000
c008
6078
3fc0
ENDCHAR
STARTCHAR FinalSigma
ENCODING 183
SWIDTH 600 0
DWIDTH 19 0
BBX 17 19 1 -4
BITMAP
01f800
060600
080100
100180
300080
200080
200080
600080
400080
400100
400100
400200
f00600
981800
87e000
800000
800000
400000
3ff800
ENDCHAR
STARTCHAR Digamma
ENCODING 184
SWIDTH 600 0
DWIDTH 19 0
BBX 16 19 2 -5
BITMAP
03ff
0600
0c00
0800
1800
1000
1000
1000
1fe0
3000
2000
2000
2000
6000
6000
4000
4000
4000
c000
ENDCHAR
STARTCHAR Stigma
ENCODING 185
SWIDTH 600 0
DWIDTH 19 0
BBX 14 19 3 -5
BITMAP
03fc
0c00
3000
6000
4000
c000
8000
8000
8000
8000
4000
7000
1e00
03c0
0060
0020
0020
0040
1f80
ENDCHAR
STARTCHAR Koppa
ENCODING 186
SWIDTH 600 0
DWIDTH 19 0
BBX 16 20 2 -5
BITMAP
03f0
0c0c
3006
6002
4001
c001
8001
8001
8001
8003
8002
4006
600c
3030
0fc0
0300
0200
0200
0200
0600
ENDCHAR
STARTCHAR Sampi
ENCODING 187
SWIDTH 600 0
DWIDTH 19 0
BBX 14 15 2 0
BITMAP
0fc0
3070
c018
4018
00ec
070c
1c3c
20ec
070c
1c08
0018
0010
0060
01c0
0f00
ENDCHAR
STARTCHAR Bet
ENCODING 188
SWIDTH 600 0
DWIDTH 19 0
BBX 15 18 2 0
BITMAP
7ff8
0020
0020
0020
0020
0020
0020
0020
0020
0020
0020
0020
0020
0020
0020
0020
0020
fffe
ENDCHAR
STARTCHAR Gimel
ENCODING 189
SWIDTH 600 0
DWIDTH 19 0
BBX 12 18 3 0
BITMAP
7e00
0300
0100
0100
0180
0080
0080
0080
00c0
0040
0040
0040
0060
0020
0020
03e0
3e20
e010
ENDCHAR
STARTCHAR Dalet
ENCODING 190
SWIDTH 600 0
DWIDTH 19 0
BBX 15 18 2 0
BITMAP
fffe
0020
0020
0020
0020
0020
0020
0020
0020
0020
0020
0020
0020
0020
0020
0020
0020
0020
ENDCHAR
STARTCHAR Aleph
ENCODING 191
SWIDTH 600 0
DWIDTH 19 0
BBX 16 14 1 0
BITMAP
7804
cc0c
0418
0230
0260
0140
0380
0280
0480
0840
1040
3020
6033
c01e
ENDCHAR
STARTCHAR CapYAcute
ENCODING 192
SWIDTH 600 0
DWIDTH 19 0
BBX 17 25 1 0
BITMAP
003c00
003000
006000
00c000
008000
010000
000000
fc1f80
300200
100400
180c00
080800
041000
041000
022000
036000
014000
008000
008000
008000
008000
008000
008000
008000
0ff800
ENDCHAR
STARTCHAR YAcute
ENCODING 193
SWIDTH 600 0
DWIDTH 19 0
BBX 18 26 0 -5
BITMAP
001c00
003000
006000
004000
008000
000000
000000
fc0fc0
300300
300200
180600
080400
0c0c00
040800
061800
021000
033000
012000
01e000
00c000
008000
008000
010000
010000
020000
ffc000
ENDCHAR
STARTCHAR CapEth
ENCODING 194
SWIDTH 600 0
DWIDTH 19 0
BBX 17 18 1 0
BITMAP
7ff800
100e00
100200
100100
100100
100080
100080
100080
ffc080
100080
100080
100080
100180
100100
100300
100200
100c00
7ff800
ENDCHAR
STARTCHAR Eth
ENCODING 195
SWIDTH 600 0
DWIDTH 19 0
BBX 15 20 2 0
BITMAP
0604
01b8
01e0
0760
1c30
0018
07e8
1834
200c
4006
c006
8002
8002
8002
8002
c006
4004
2008
1830
07c0
ENDCHAR
STARTCHAR CapThorn
ENCODING 196
SWIDTH 600 0
DWIDTH 19 0
BBX 14 18 3 0
BITMAP
fe00
1000
1000
1fe0
1038
1008
1004
1004
1004
1004
1008
1018
1fe0
1000
1000
1000
1000
ff80
ENDCHAR
STARTCHAR Thorn
ENCODING 197
SWIDTH 600 0
DWIDTH 19 0
BBX 18 25 0 -5
BITMAP
f00000
100000
100000
100000
100000
100000
10fc00
130300
140180
180080
180040
100040
100040
100040
100040
1800c0
180080
160100
130600
10fc00
100000
100000
100000
100000
7fc000
ENDCHAR
STARTCHAR CapLSlash
ENCODING 198
SWIDTH 600 0
DWIDTH 19 0
BBX 15 18 2 0
BITMAP
ff80
1000
1000
1080
1100
1200
1400
1c00
1800
1000
3002
7002
5002
9002
9002
1002
1002
fffe
ENDCHAR
STARTCHAR LSlash
ENCODING 199
SWIDTH 600 0
DWIDTH 19 0
BBX 13 20 3 0
BITMAP
fe00
0200
0200
0200
0220
0260
02c0
0280
0300
0300
0200
0600
0e00
1a00
1200
3200
0200
0200
0200
fff8
ENDCHAR
STARTCHAR DownQuestion
ENCODING 200
SWIDTH 600 0
DWIDTH 19 0
BBX 11 19 4 -5
BITMAP
0700
0f80
0f80
0700
0000
0000
0000
0200
0200
1e00
3000
4000
8000
8000
8000
8020
4020
6060
1fc0
ENDCHAR
STARTCHAR Cent
ENCODING 201
SWIDTH 600 0
DWIDTH 19 0
BBX 13 22 3 -2
BITMAP
0200
0200
0200
0200
0200
0fd0
3070
6010
4010
8000
8000
8000
8000
c000
4018
3070
0fc0
0200
0200
0200
0200
0200
ENDCHAR
STARTCHAR nbspace
ENCODING 202
SWIDTH 263 0
DWIDTH 8 0
BBX 0 0 0 0
BITMAP
ENDCHAR
STARTCHAR Sterling
ENCODING 203
SWIDTH 600 0
DWIDTH 19 0
BBX 14 20 3 0
BITMAP
07c0
0c30
1018
2008
2000
2000
2000
3000
1000
ffe0
1800
0800
0800
0800
0800
1800
1000
3000
3f0c
60f0
ENDCHAR
STARTCHAR DownExclamation
ENCODING 204
SWIDTH 600 0
DWIDTH 19 0
BBX 4 19 8 -5
BITMAP
e0
f0
f0
e0
00
00
00
c0
c0
c0
c0
c0
c0
c0
c0
c0
c0
c0
c0
ENDCHAR
STARTCHAR Section
ENCODING 205
SWIDTH 600 0
DWIDTH 19 0
BBX 11 21 4 -2
BITMAP
7fe0
c020
8020
c020
6000
3000
7800
8600
8300
81c0
40e0
4060
3020
0820
06c0
0100
8080
8040
8040
8040
ff80
ENDCHAR
STARTCHAR Paragraph
ENCODING 206
SWIDTH 600 0
DWIDTH 19 0
BBX 14 20 3 -2
BITMAP
0ffc
3120
4120
c120
8120
8120
8120
8120
4120
3120
1f20
0120
0120
0120
0120
0120
0120
0120
0120
3f3c
ENDCHAR
STARTCHAR Yen
ENCODING 207
SWIDTH 600 0
DWIDTH 19 0
BBX 17 19 1 0
BITMAP
fc1f80
200600
100400
080800
041000
063000
022000
014000
3ffe00
008000
008000
008000
3ffe00
008000
008000
008000
008000
008000
0ff800
ENDCHAR
STARTCHAR Micro
ENCODING 208
SWIDTH 600 0
DWIDTH 19 0
BBX 14 19 4 -5
BITMAP
8020
8020
8020
8020
8020
8020
8020
8020
8020
8020
8060
80e0
c3b0
be1c
8000
8000
8000
8000
8000
ENDCHAR
STARTCHAR HBar
ENCODING 209
SWIDTH 600 0
DWIDTH 19 0
BBX 17 20 0 0
BITMAP
0f8000
011800
016000
018000
0f0000
121f00
026180
028080
030080
060080
040080
040180
040100
0c0100
0c0100
080100
080300
080200
180200
fe1f80
ENDCHAR
STARTCHAR DotlessI
ENCODING 210
SWIDTH 600 0
DWIDTH 19 0
BBX 13 14 3 0
BITMAP
7e00
0200
0200
0200
0200
0200
0200
0200
0200
0200
0200
0200
0200
fff8
ENDCHAR
STARTCHAR ItalDotlessI
ENCODING 211
SWIDTH 600 0
DWIDTH 19 0
BBX 13 14 2 0
BITMAP
0fc0
00c0
0080
0080
0080
0080
0180
0100
0100
0100
0100
0200
0200
fff8
ENDCHAR
STARTCHAR DotlessJ
ENCODING 212
SWIDTH 600 0
DWIDTH 19 0
BBX 11 19 3 -5
BITMAP
7fe0
0020
0020
0020
0020
0020
0020
0020
0020
0020
0020
0020
0020
0020
0020
0020
0040
0180
ff00
ENDCHAR
STARTCHAR ItalDotlessJ
ENCODING 213
SWIDTH 600 0
DWIDTH 19 0
BBX 15 19 0 -5
BITMAP
07fe
0004
0004
0004
0004
000c
0008
0008
0008
0008
0018
0010
0010
0010
0030
0020
0060
01c0
ff00
ENDCHAR
STARTCHAR Dagger
ENCODING 214
SWIDTH 600 0
DWIDTH 19 0
BBX 9 20 5 -2
BITMAP
0800
0800
0800
0800
0800
ff80
0800
0800
0800
0800
0800
0800
0800
0800
0800
0800
0800
0800
0800
0800
ENDCHAR
STARTCHAR DoubleDagger
ENCODING 215
SWIDTH 600 0
DWIDTH 19 0
BBX 9 20 5 -2
BITMAP
0800
0800
0800
0800
0800
ff80
0800
0800
0800
0800
0800
0800
0800
ff80
0800
0800
0800
0800
0800
0800
ENDCHAR
STARTCHAR Degree
ENCODING 216
SWIDTH 600 0
DWIDTH 19 0
BBX 9 10 5 12
BITMAP
3c00
6300
4100
8080
8080
8080
8080
4100
6300
3e00
ENDCHAR
STARTCHAR Flat
ENCODING 217
SWIDTH 600 0
DWIDTH 19 0
BBX 14 20 3 0
BITMAP
8000
8000
8000
8000
8000
9fc0
e030
8018
8008
8004
8004
8004
8004
8004
8008
8018
8030
80c0
8f00
f800
ENDCHAR
STARTCHAR Natural
ENCODING 218
SWIDTH 600 0
DWIDTH 19 0
BBX 11 24 4 -5
BITMAP
8000
8000
8000
8000
8000
8060
9fe0
f020
8020
8020
8020
8020
8020
8020
8020
8020
8020
8fe0
f820
0020
0020
0020
0020
0020
ENDCHAR
STARTCHAR Sharp
ENCODING 219
SWIDTH 600 0
DWIDTH 19 0
BBX 15 24 2 -5
BITMAP
0010
1010
1010
1010
1010
101e
17f0
fc10
1010
1010
1010
1010
1010
1010
1010
1010
101e
13f8
fc10
1010
1010
1010
1010
1000
ENDCHAR
STARTCHAR QuestionBox
ENCODING 220
SWIDTH 868 0
DWIDTH 28 0
BBX 24 24 2 0
BITMAP
ffffff
ffffff
ffffff
e00007
e03e07
e0ff07
e0f387
e1e387
e1e387
e00707
e00f07
e01e07
e01c07
e01c07
e01c07
e00007
e00007
e01c07
e01c07
e01c07
e00007
ffffff
ffffff
ffffff
ENDCHAR
STARTCHAR ErrorIndicator
ENCODING 221
SWIDTH 868 0
DWIDTH 28 0
BBX 24 16 2 0
BITMAP
ffffff
ffffff
c00003
c00003
c01803
c03c03
c06603
c0e303
c1c383
c18183
c300c3
c60063
c80013
c00003
ffffff
ffffff
ENDCHAR
STARTCHAR Angstrom
ENCODING 222
SWIDTH 600 0
DWIDTH 19 0
BBX 17 20 1 0
BITMAP
01c000
022000
041000
041000
022000
01c000
014000
036000
022000
041000
041000
080800
080800
100400
1ffc00
200200
200200
600300
400100
c00180
ENDCHAR
STARTCHAR LamdaSlash
ENCODING 223
SWIDTH 600 0
DWIDTH 19 0
BBX 17 20 1 0
BITMAP
078000
00c080
002300
001c00
003000
00c800
010800
001800
001800
003800
006800
004800
00c800
008800
010800
030400
060400
040400
080200
f00180
ENDCHAR
STARTCHAR SolidSquare
ENCODING 224
SWIDTH 600 0
DWIDTH 19 0
BBX 18 18 1 0
BITMAP
ffffc0
ffffc0
ffffc0
ffffc0
ffffc0
ffffc0
ffffc0
ffffc0
ffffc0
ffffc0
ffffc0
ffffc0
ffffc0
ffffc0
ffffc0
ffffc0
ffffc0
ffffc0
ENDCHAR
STARTCHAR Square
ENCODING 225
SWIDTH 600 0
DWIDTH 19 0
BBX 17 18 1 0
BITMAP
ffff80
800080
800080
800080
800080
800080
800080
800080
800080
800080
800080
800080
800080
800080
800080
800080
800080
ffff80
ENDCHAR
STARTCHAR MedSolidSquare
ENCODING 226
SWIDTH 600 0
DWIDTH 19 0
BBX 13 12 3 3
BITMAP
fff8
fff8
fff8
fff8
fff8
fff8
fff8
fff8
fff8
fff8
fff8
fff8
ENDCHAR
STARTCHAR MedEmptySquare
ENCODING 227
SWIDTH 600 0
DWIDTH 19 0
BBX 13 14 3 2
BITMAP
fff8
8008
8008
8008
8008
8008
8008
8008
8008
8008
8008
8008
8008
fff8
ENDCHAR
STARTCHAR SmallSolidSquare
ENCODING 228
SWIDTH 600 0
DWIDTH 19 0
BBX 8 8 6 6
BITMAP
ff
ff
ff
ff
ff
ff
ff
ff
ENDCHAR
STARTCHAR SmallEmptySquare
ENCODING 229
SWIDTH 600 0
DWIDTH 19 0
BBX 8 8 6 6
BITMAP
ff
81
81
81
81
81
81
ff
ENDCHAR
STARTCHAR SolidCircle
ENCODING 230
SWIDTH 600 0
DWIDTH 19 0
BBX 19 18 0 0
BITMAP
03f800
0ffe00
1fff00
3fff80
7fffc0
7fffc0
7fffc0
ffffe0
ffffe0
ffffe0
ffffe0
7fffc0
7fffc0
7fffc0
3fff80
1fff00
0ffe00
03f800
ENDCHAR
STARTCHAR Circle
ENCODING 231
SWIDTH 600 0
DWIDTH 19 0
BBX 19 18 0 0
BITMAP
03f800
0e0e00
100100
200080
400040
400040
800020
800020
800020
800020
800020
800020
400040
400040
200080
100100
0c0600
03f800
ENDCHAR
STARTCHAR Bullet
ENCODING 232
SWIDTH 600 0
DWIDTH 19 0
BBX 13 12 3 3
BITMAP
0f80
3fe0
7ff0
7ff0
fff8
fff8
fff8
fff8
7ff0
7ff0
3fe0
0f80
ENDCHAR
STARTCHAR SmallCircle
ENCODING 233
SWIDTH 600 0
DWIDTH 19 0
BBX 13 12 3 3
BITMAP
0f80
3060
6030
4010
8008
8008
8008
8008
4010
6030
3060
0f80
ENDCHAR
STARTCHAR Dot
ENCODING 234
SWIDTH 600 0
DWIDTH 19 0
BBX 8 8 6 6
BITMAP
3c
7e
ff
ff
ff
ff
7e
3c
ENDCHAR
STARTCHAR OpenDot
ENCODING 235
SWIDTH 600 0
DWIDTH 19 0
BBX 9 9 5 5
BITMAP
3e00
6300
c180
8080
8080
8080
c180
6300
3e00
ENDCHAR
STARTCHAR MedSolidDiamond
ENCODING 236
SWIDTH 600 0
DWIDTH 19 0
BBX 18 18 0 0
BITMAP
004000
00c000
01e000
03f000
07f800
0ffc00
1ffe00
3fff00
ffffc0
7fff80
3fff00
1ffe00
0ffc00
07f800
03f000
01e000
00c000
004000
ENDCHAR
STARTCHAR MedEmptyDiamond
ENCODING 237
SWIDTH 600 0
DWIDTH 19 0
BBX 18 18 0 0
BITMAP
004000
00c000
012000
021000
040800
080400
100200
200100
c000c0
400080
200100
100200
080400
040800
021000
012000
00c000
004000
ENDCHAR
STARTCHAR SmallSolidDiamond
ENCODING 238
SWIDTH 600 0
DWIDTH 19 0
BBX 13 13 3 3
BITMAP
0200
0700
0f80
1fc0
3fe0
7ff0
fff8
7ff0
3fe0
1fc0
0f80
0700
0200
ENDCHAR
STARTCHAR SmallEmptyDiamond
ENCODING 239
SWIDTH 600 0
DWIDTH 19 0
BBX 13 13 3 3
BITMAP
0200
0700
0d80
18c0
3060
6030
c018
6030
3060
18c0
0d80
0700
0200
ENDCHAR
STARTCHAR SolidRectangle
ENCODING 240
SWIDTH 600 0
DWIDTH 19 0
BBX 12 18 4 0
BITMAP
fff0
fff0
fff0
fff0
fff0
fff0
fff0
fff0
fff0
fff0
fff0
fff0
fff0
fff0
fff0
fff0
fff0
fff0
ENDCHAR
STARTCHAR Rectangle
ENCODING 241
SWIDTH 600 0
DWIDTH 19 0
BBX 11 18 4 0
BITMAP
ffe0
8020
8020
8020
8020
8020
8020
8020
8020
8020
8020
8020
8020
8020
8020
8020
8020
ffe0
ENDCHAR
STARTCHAR SolidUpTriangle
ENCODING 242
SWIDTH 600 0
DWIDTH 19 0
BBX 18 18 1 0
BITMAP
004000
00c000
00c000
01e000
01e000
03f000
03f000
07f800
07f800
0ffc00
0ffc00
1ffe00
1ffe00
3fff00
3fff00
7fff80
7fff80
ffffc0
ENDCHAR
STARTCHAR UpTriangle
ENCODING 243
SWIDTH 600 0
DWIDTH 19 0
BBX 18 18 1 0
BITMAP
004000
00c000
00c000
01e000
012000
033000
021000
061800
040800
0c0c00
080400
180600
100200
300300
200100
600180
400080
ffffc0
ENDCHAR
STARTCHAR SolidDownTriangle
ENCODING 244
SWIDTH 600 0
DWIDTH 19 0
BBX 18 18 1 0
BITMAP
ffffc0
7fff80
7fff80
3fff00
3fff00
1ffe00
1ffe00
0ffc00
0ffc00
07f800
07f800
03f000
03f000
01e000
01e000
00c000
00c000
004000
ENDCHAR
STARTCHAR DownTriangle
ENCODING 245
SWIDTH 600 0
DWIDTH 19 0
BBX 18 18 1 0
BITMAP
ffffc0
400080
600180
200100
300300
100200
180600
080400
0c0c00
040800
061800
021000
033000
012000
01e000
00c000
00c000
004000
ENDCHAR
STARTCHAR SolidDiamond
ENCODING 246
SWIDTH 600 0
DWIDTH 19 0
BBX 12 18 3 0
BITMAP
0200
0600
0f00
0f00
1f80
3fc0
3fc0
7fe0
fff0
fff0
7fe0
3fc0
3fc0
1f80
0f00
0f00
0600
0200
ENDCHAR
STARTCHAR Star6
ENCODING 247
SWIDTH 600 0
DWIDTH 19 0
BBX 16 18 1 -1
BITMAP
0080
0180
0180
03c0
03c0
ffff
7ffe
3ffc
3ffc
1ff8
3ffc
3ffc
7ffe
ffff
03c0
03c0
0180
0080
ENDCHAR
STARTCHAR Star
ENCODING 248
SWIDTH 600 0
DWIDTH 19 0
BBX 17 18 1 0
BITMAP
008000
008000
008000
008000
01c000
01c000
01c000
ffff80
3ffe00
1ffc00
07f000
07f000
07f000
0f7800
0e3800
0c1800
100c00
100200
ENDCHAR
STARTCHAR Bullet3
ENCODING 249
SWIDTH 600 0
DWIDTH 19 0
BBX 17 18 1 0
BITMAP
ffff80
ffff80
ffff80
ffff80
ffff80
ffff80
ffff80
ffff80
ffff80
ffff80
fffe80
fffc80
fff880
fff080
ffe080
ffc080
ff8080
ffff80
ENDCHAR
STARTCHAR Bullet4
ENCODING 250
SWIDTH 600 0
DWIDTH 19 0
BBX 17 18 1 0
BITMAP
ffff80
ffff80
ffff80
ffff80
ffff80
ffff80
ffff80
ffff80
ffff80
ffff80
ffff80
ffff80
fff080
fff080
fff080
fff080
fff080
ffff80
ENDCHAR
STARTCHAR Euler
ENCODING 251
SWIDTH 600 0
DWIDTH 19 0
BBX 12 20 3 0
BITMAP
0f80
30e0
2020
4000
4000
4000
4000
2000
3000
1e00
2000
4000
8000
8000
8000
8000
8000
4010
20e0
1f80
ENDCHAR
STARTCHAR ImagJ
ENCODING 252
SWIDTH 600 0
DWIDTH 19 0
BBX 10 26 3 -5
BITMAP
0180
0180
0180
0000
0000
0000
0000
ffc0
0240
0240
0240
0240
0240
0240
0240
0240
0240
0240
0240
0240
0240
0240
0240
0680
0580
fe00
ENDCHAR
STARTCHAR DoubleGamma
ENCODING 253
SWIDTH 600 0
DWIDTH 19 0
BBX 18 20 1 -5
BITMAP
f000c0
fe0180
1b8300
06c600
036c00
012800
00b000
009000
005000
004800
00e800
00a800
012800
012800
012800
022800
023000
027000
026000
01c000
ENDCHAR
STARTCHAR DoublePi
ENCODING 254
SWIDTH 690 0
DWIDTH 22 0
BBX 20 14 1 0
BITMAP
3ffff0
032100
022100
026300
024200
064200
04c200
048200
098200
1b0200
120200
6c0100
f80100
c00080
ENDCHAR
STARTCHAR DoubleScriptCapD
ENCODING 255
SWIDTH 678 0
DWIDTH 22 0
BBX 22 18 -1 0
BITMAP
03ff00
3c00c0
c08020
048010
048008
048008
048004
048004
048004
048004
048004
048004
04800c
048008
048018
048030
048060
3fff80
ENDCHAR
ENDFONT
