STARTFONT 2.1
FONT -WRI-Mathematica5Mono-Medium-R-Normal--32-320-75-75-M-170-Adobe-FontSpecific
SIZE 32 75 75
FONTBOUNDINGBOX 98 67 -3 -26
STARTPROPERTIES 16
FOUNDRY "WRI"
FAMILY_NAME "Mathematica5Mono"
WEIGHT_NAME "Medium"
SLANT "R"
SETWIDTH_NAME "Normal"
PIXEL_SIZE 32
POINT_SIZE 320
RESOLUTION_X 75
RESOLUTION_Y 75
SPACING "M"
AVERAGE_WIDTH 170
CHARSET_REGISTRY "Adobe"
CHARSET_ENCODING "FontSpecific"
FONT_DESCENT 26
FONT_ASCENT 41
DEFAULT_CHAR 32
ENDPROPERTIES
CHARS 228
STARTCHAR Villa
ENCODING 1
SWIDTH 627 0
DWIDTH 20 0
BBX 19 27 0 -5
BITMAP
001200
003380
004a80
008680
010480
027a80
0c4940
107880
3ffe40
c800a0
087080
089880
08dc80
09fc80
090480
090480
094880
090880
090980
088900
0fff00
017800
01f800
02f800
05e800
0be800
000400
ENDCHAR
STARTCHAR Kooz
ENCODING 2
SWIDTH 746 0
DWIDTH 24 0
BBX 23 27 1 -5
BITMAP
040000
02fc00
7d3e00
032e00
0f1740
061b80
059fc0
065100
459700
240900
248200
1e66f0
771c18
23f004
660004
540286
98074c
980140
e80888
280084
280004
240004
240004
240184
040042
000024
000018
ENDCHAR
STARTCHAR Andy
ENCODING 3
SWIDTH 1000 0
DWIDTH 32 0
BBX 25 23 2 0
BITMAP
c0000000
80060000
c0060000
00060000
a0060000
a0040400
a0043800
b807c000
0ffc0000
4fc48000
c084c000
e0848000
a07f0000
00030000
c0018000
a0018000
c0070000
001e0000
40780000
c0e00000
41c00180
c0e01e00
003fe000
ENDCHAR
STARTCHAR Spooky
ENCODING 4
SWIDTH 535 0
DWIDTH 17 0
BBX 19 20 0 0
BITMAP
000200
200400
180c00
140c00
1e3c00
15ec00
0c0c00
480c00
2bf420
2bf4c0
1b3700
dac400
30cfe0
084400
7c4f00
197c00
18cc00
080c00
080800
000800
ENDCHAR
STARTCHAR space
ENCODING 32
SWIDTH 263 0
DWIDTH 8 0
BBX 0 0 0 0
BITMAP
ENDCHAR
STARTCHAR BckspcKey
ENCODING 33
SWIDTH 1981 0
DWIDTH 63 0
BBX 59 25 2 -4
BITMAP
ffffffffffffffe0
8000000000000020
8000000000000020
8000000000000020
8000000000000020
8000000000000020
8f01e30c78f83c20
884313088c8c4620
88261b1104868220
88241b2104868220
8824036180868020
886403c0c0848020
8fc4038060fc8020
886403c018808020
882403400c808020
8834032004808020
88341b3104808220
88361b1904808220
886213098c804620
8f81e30cf8803c20
8000000000000020
8000000000000020
8000000000000020
8000000000000020
ffffffffffffffe0
ENDCHAR
STARTCHAR HomeKey
ENCODING 34
SWIDTH 1603 0
DWIDTH 51 0
BBX 47 25 2 -4
BITMAP
fffffffffffe
800000000002
800000000002
800000000002
800000000002
800000000002
8811f8c033f2
88130ce03202
881204a07202
881204a05202
881204b05202
88120490d202
8ff2049093e2
881204989202
881204899202
881204891202
881204891202
88130c871202
881108861202
8810f08613f2
800000000002
800000000002
800000000002
800000000002
fffffffffffe
ENDCHAR
STARTCHAR PgupKey
ENCODING 35
SWIDTH 1444 0
DWIDTH 46 0
BBX 42 25 2 -4
BITMAP
ffffffffffc0
800000000040
800000000040
800000000040
800000000040
800000000040
8f83c204f840
88c422048c40
884c12048440
886812048640
886802048640
884802048440
88c802048c40
8f88f204f840
880812048040
880812048040
880812048040
880c12048040
880411088040
8803f0f08040
800000000040
800000000040
800000000040
800000000040
ffffffffffc0
ENDCHAR
STARTCHAR PgdwnKey
ENCODING 36
SWIDTH 1999 0
DWIDTH 64 0
BBX 60 25 2 -4
BITMAP
fffffffffffffff0
8000000000000010
8000000000000010
8000000000000010
8000000000000010
8000000000000010
8f83e3e10306c110
884632390304c110
8864120d0504e110
886c12058504a110
88680204858cb110
8868020484889110
88c8020488889110
8f88f204c8888910
8808120448d88910
8808120448508d10
880c120450508510
8804120870508710
8806121830708310
8803f3e030208310
8000000000000010
8000000000000010
8000000000000010
8000000000000010
fffffffffffffff0
ENDCHAR
STARTCHAR EndKey
ENCODING 37
SWIDTH 1187 0
DWIDTH 38 0
BBX 34 25 2 -4
BITMAP
ffffffffc0
8000000040
8000000040
8000000040
8000000040
8000000040
8fcc09f840
880e090c40
880a090440
880b090640
8809090640
8809890640
8fc8890640
8808c90640
8808490640
8808690640
8808290440
8808390440
8808190c40
8fc819f040
8000000040
8000000040
8000000040
8000000040
ffffffffc0
ENDCHAR
STARTCHAR FilledHeart
ENCODING 38
SWIDTH 605 0
DWIDTH 19 0
BBX 17 18 1 0
BITMAP
3c1e00
7e3f00
7f7f00
ffff80
ffff80
ffff80
ffff80
7fff00
7fff00
3ffe00
1ffc00
0ff800
07f000
03f000
03e000
01c000
008000
008000
ENDCHAR
STARTCHAR Euro
ENCODING 39
SWIDTH 600 0
DWIDTH 19 0
BBX 17 20 0 -1
BITMAP
01f080
060e80
0c0380
180180
100180
100080
200080
200000
fffc00
200000
200000
fff800
200000
300000
100000
100000
080080
0c0180
060700
01f800
ENDCHAR
STARTCHAR CapitalOE
ENCODING 40
SWIDTH 600 0
DWIDTH 19 0
BBX 19 18 0 0
BITMAP
07ffc0
1c2040
302040
602040
402040
c02040
802200
802200
803e00
802200
802200
802000
402000
402020
602020
302020
1c2020
07ffe0
ENDCHAR
STARTCHAR OE
ENCODING 41
SWIDTH 600 0
DWIDTH 19 0
BBX 16 14 1 0
BITMAP
3c3c
6646
4282
8101
8101
8101
81ff
8100
8100
8100
8180
4280
6641
3c3e
ENDCHAR
STARTCHAR ABar
ENCODING 42
SWIDTH 600 0
DWIDTH 19 0
BBX 16 18 2 0
BITMAP
3ffc
0000
0000
0000
0fe0
7030
0008
0008
0008
1ff8
3008
4008
8008
8008
8018
c038
60c8
3f0f
ENDCHAR
STARTCHAR ACup
ENCODING 43
SWIDTH 600 0
DWIDTH 19 0
BBX 16 19 2 0
BITMAP
1018
1830
0fe0
0000
0000
0fe0
7030
0008
0008
0008
1ff8
3008
4008
8008
8008
8018
c038
60c8
3f0f
ENDCHAR
STARTCHAR CapitalABar
ENCODING 44
SWIDTH 600 0
DWIDTH 19 0
BBX 19 22 0 0
BITMAP
0ffe00
000000
000000
000000
1fc000
00a000
00a000
011000
011000
031800
020800
020800
040400
040400
0c0600
0ffe00
080200
100100
100100
200180
200080
fc07e0
ENDCHAR
STARTCHAR CapitalACup
ENCODING 45
SWIDTH 600 0
DWIDTH 19 0
BBX 19 23 0 0
BITMAP
040400
060c00
03f800
000000
000000
1fc000
00a000
00a000
011000
011000
031800
020800
020800
040400
040400
0c0600
0ffe00
080200
100100
100100
200180
200080
fc07e0
ENDCHAR
STARTCHAR CAcute
ENCODING 46
SWIDTH 600 0
DWIDTH 19 0
BBX 15 22 2 0
BITMAP
0078
0060
00c0
0180
0300
0600
0000
0000
07e4
181c
200c
4004
c004
8000
8000
8000
8000
c000
4000
2006
1838
07e0
ENDCHAR
STARTCHAR CHacek
ENCODING 47
SWIDTH 600 0
DWIDTH 19 0
BBX 15 21 2 0
BITMAP
6008
3030
1860
0cc0
0780
0000
0000
07e4
181c
200c
4004
c004
8000
8000
8000
8000
c000
4000
2006
1838
07e0
ENDCHAR
STARTCHAR ScriptZero
ENCODING 48
SWIDTH 588 0
DWIDTH 19 0
BBX 14 18 3 0
BITMAP
03f0
0e18
1808
100c
3004
6004
4004
4004
c004
800c
8008
8008
8018
8010
c030
4060
61c0
1f00
ENDCHAR
STARTCHAR ScriptOne
ENCODING 49
SWIDTH 600 0
DWIDTH 19 0
BBX 10 18 5 0
BITMAP
0180
1f80
1180
0100
0100
0100
0300
0300
0200
0200
0200
0600
0400
0400
0400
0c00
0c00
ffc0
ENDCHAR
STARTCHAR ScriptTwo
ENCODING 50
SWIDTH 588 0
DWIDTH 19 0
BBX 14 18 2 0
BITMAP
03f0
0e18
080c
1004
0004
0004
000c
0018
0030
0060
00c0
0180
0700
0c00
1800
3000
6008
fff8
ENDCHAR
STARTCHAR ScriptThree
ENCODING 51
SWIDTH 600 0
DWIDTH 19 0
BBX 14 18 2 0
BITMAP
01f0
0608
0c04
0004
0004
000c
0008
01f0
01e0
0030
0018
0008
0008
0008
0018
4030
e060
3fc0
ENDCHAR
STARTCHAR ScriptFour
ENCODING 52
SWIDTH 600 0
DWIDTH 19 0
BBX 14 18 3 0
BITMAP
001c
0028
0048
0088
0198
0318
0610
0c10
0810
1030
3020
6020
fff0
0060
0060
0040
0040
07e0
ENDCHAR
STARTCHAR ScriptFive
ENCODING 53
SWIDTH 600 0
DWIDTH 19 0
BBX 14 18 3 0
BITMAP
07fc
0400
0c00
0c00
0800
0800
0bf0
1c18
080c
0004
0004
0004
0004
000c
0008
c030
7060
1f80
ENDCHAR
STARTCHAR ScriptSix
ENCODING 54
SWIDTH 548 0
DWIDTH 18 0
BBX 13 18 3 0
BITMAP
00f8
0380
0e00
1800
3000
6000
6000
4fc0
f860
e030
c010
8010
8010
8030
8020
c060
61c0
3f00
ENDCHAR
STARTCHAR ScriptSeven
ENCODING 55
SWIDTH 559 0
DWIDTH 18 0
BBX 13 18 4 0
BITMAP
7ff8
c010
0010
0020
0060
0040
00c0
0080
0180
0100
0300
0600
0400
0c00
0800
1800
1000
3000
ENDCHAR
STARTCHAR ScriptEight
ENCODING 56
SWIDTH 548 0
DWIDTH 18 0
BBX 13 18 3 0
BITMAP
03e0
0c10
1808
3008
2008
2008
3010
1830
1fc0
3060
4030
c010
8010
8010
8020
c060
41c0
3f00
ENDCHAR
STARTCHAR ScriptNine
ENCODING 57
SWIDTH 548 0
DWIDTH 18 0
BBX 13 18 3 0
BITMAP
03e0
0c30
1818
1008
3008
2008
2008
2018
3038
18e8
0f90
0010
0030
0060
00c0
0180
0700
f800
ENDCHAR
STARTCHAR ODoubleAcute
ENCODING 58
SWIDTH 600 0
DWIDTH 19 0
BBX 15 22 2 0
BITMAP
038e
071c
0618
0c30
1860
30c0
0000
0000
07c0
1830
2008
4004
c006
8002
8002
8002
8002
c006
4004
2008
1830
07c0
ENDCHAR
STARTCHAR CapitalODoubleAcute
ENCODING 59
SWIDTH 600 0
DWIDTH 19 0
BBX 16 27 1 -1
BITMAP
03ce
030c
0618
0c30
0820
1040
0000
0000
07e0
1c38
300c
2004
4002
4002
8001
8001
8001
8001
8001
8001
8001
4002
4002
2004
300c
1c38
07e0
ENDCHAR
STARTCHAR SHacek
ENCODING 60
SWIDTH 600 0
DWIDTH 19 0
BBX 14 21 3 0
BITMAP
6018
3030
1860
0cc0
0780
0000
0000
1fd8
3078
4018
4008
4000
6000
3f00
03f0
0008
800c
c00c
6008
7030
cfe0
ENDCHAR
STARTCHAR CapitalSHacek
ENCODING 61
SWIDTH 600 0
DWIDTH 19 0
BBX 15 26 2 0
BITMAP
1004
0808
0c10
0770
03e0
01c0
0000
07e2
1c3c
300c
2004
6004
6004
6000
2000
1800
0fc0
0078
000c
0006
8006
4006
4004
600c
7838
47e0
ENDCHAR
STARTCHAR UDoubleAcute
ENCODING 62
SWIDTH 600 0
DWIDTH 19 0
BBX 17 22 1 0
BITMAP
01c700
018e00
030c00
061800
0c3000
086000
000000
000000
f03c00
100400
100400
100400
100400
100400
100400
100400
100400
100400
100400
100c00
0c3400
07c780
ENDCHAR
STARTCHAR CapitalUDoubleAcute
ENCODING 63
SWIDTH 600 0
DWIDTH 19 0
BBX 18 27 1 -1
BITMAP
01c700
038e00
071c00
061800
0c2000
104000
000000
000000
fc1fc0
200200
200200
200200
200200
200200
200200
200200
200200
200200
200200
200200
200200
200200
200200
100400
100400
0c1800
03e000
ENDCHAR
STARTCHAR HSlash
ENCODING 64
SWIDTH 600 0
DWIDTH 19 0
BBX 17 20 0 0
BITMAP
0f0000
130000
020000
3ff000
020000
023f00
04c180
058080
060080
060080
040080
0c0100
080100
080100
080300
080300
180200
100200
100600
fe3f80
ENDCHAR
STARTCHAR ScriptCapA
ENCODING 65
SWIDTH 600 0
DWIDTH 19 0
BBX 19 19 0 -1
BITMAP
007fe0
01c3c0
060640
0c0c40
080880
081080
083080
082180
01fe80
03f080
004080
004080
00c080
008080
808080
c18080
4300c0
7e0040
3c0000
ENDCHAR
STARTCHAR ScriptCapB
ENCODING 66
SWIDTH 600 0
DWIDTH 19 0
BBX 18 19 1 0
BITMAP
00fe00
073180
0c6040
184040
10c040
2080c0
208180
218300
31fc00
111e00
010100
030080
020080
060080
040080
080100
100300
f00c00
8ff000
ENDCHAR
STARTCHAR ScriptCapC
ENCODING 67
SWIDTH 600 0
DWIDTH 19 0
BBX 17 19 2 -1
BITMAP
01f800
070600
0c0300
100100
300300
600080
400000
400000
800000
800000
800000
800000
800000
800800
c00800
400800
601000
306000
0f8000
ENDCHAR
STARTCHAR ScriptCapD
ENCODING 68
SWIDTH 600 0
DWIDTH 19 0
BBX 18 19 1 -1
BITMAP
03fc00
0cc300
308180
418080
4100c0
830040
830040
830040
830040
020040
020040
0200c0
060080
040080
0c0100
180300
300600
f80c00
8ff000
ENDCHAR
STARTCHAR ScriptCapE
ENCODING 69
SWIDTH 600 0
DWIDTH 19 0
BBX 15 19 2 0
BITMAP
03e0
0c38
180c
1004
1000
1000
1800
07c0
1f80
3000
6004
c006
8006
8006
8006
8006
c00c
6078
3fc0
ENDCHAR
STARTCHAR ScriptCapF
ENCODING 70
SWIDTH 590 0
DWIDTH 19 0
BBX 23 21 -2 -2
BITMAP
000006
07fffc
0c1870
303000
202000
406000
404000
404000
63ff00
208000
008000
008000
018000
010000
010000
030000
020000
060000
0c0000
380000
e00000
ENDCHAR
STARTCHAR ScriptCapG
ENCODING 71
SWIDTH 600 0
DWIDTH 19 0
BBX 19 23 0 -5
BITMAP
001f80
0060c0
018020
020020
040020
0c0040
080000
100000
100000
203fc0
206080
200180
200300
200d00
301900
187200
0f8200
000400
000c00
401800
c03000
706000
1f8000
ENDCHAR
STARTCHAR ScriptCapH
ENCODING 72
SWIDTH 700 0
DWIDTH 22 0
BBX 24 19 -1 0
BITMAP
001801
03f803
0e1002
383006
603004
402004
c0600c
406018
604ff8
207848
00c018
008010
008010
018010
010010
010010
020010
060010
080000
ENDCHAR
STARTCHAR ScriptCapI
ENCODING 73
SWIDTH 600 0
DWIDTH 19 0
BBX 18 19 0 0
BITMAP
000080
03ffc0
021800
003000
002000
006000
004000
004000
00c000
008000
008000
008000
008000
018000
010000
010000
020000
040000
ffe000
ENDCHAR
STARTCHAR ScriptCapJ
ENCODING 74
SWIDTH 600 0
DWIDTH 19 0
BBX 24 22 -3 -4
BITMAP
001fff
007030
00c040
0180c0
010080
010080
018180
008180
000100
000100
000100
000100
000300
000200
000200
000200
000600
400400
c00c00
601800
307000
0fc000
ENDCHAR
STARTCHAR ScriptCapK
ENCODING 75
SWIDTH 678 0
DWIDTH 22 0
BBX 24 20 -1 -1
BITMAP
007000
07f00f
1c2019
302061
6060c0
c04180
804200
80c400
c08800
40f800
01cc00
010400
010600
030600
020200
020300
060180
0c0080
180060
300000
ENDCHAR
STARTCHAR ScriptCapL
ENCODING 76
SWIDTH 638 0
DWIDTH 20 0
BBX 21 21 0 -2
BITMAP
0003c0
000660
000830
001800
001000
001000
001000
003000
002000
002000
006000
006000
004000
00c000
008000
018000
030000
3e0018
e7c030
407fe0
000fc0
ENDCHAR
STARTCHAR ScriptCapM
ENCODING 77
SWIDTH 840 0
DWIDTH 27 0
BBX 27 21 0 -2
BITMAP
00600020
00600020
00600060
007000e0
00f000c0
009001c0
00980340
01880640
01080440
010c0840
03041840
02043040
02066040
0606c040
04028040
0c030040
08030040
18020040
30020020
60000020
c0000000
ENDCHAR
STARTCHAR ScriptCapN
ENCODING 78
SWIDTH 662 0
DWIDTH 21 0
BBX 24 19 -1 -1
BITMAP
000003
018006
01800c
018008
03c018
024018
026010
062010
043030
041820
0c0c20
0c0420
080660
080340
180140
1001c0
3000c0
600080
c00000
ENDCHAR
STARTCHAR ScriptCapO
ENCODING 79
SWIDTH 600 0
DWIDTH 19 0
BBX 17 20 1 -1
BITMAP
00fc00
038600
060100
080100
100080
300080
200080
400080
400080
c00080
800180
800100
800100
800300
800200
800400
c00c00
401800
606000
1f8000
ENDCHAR
STARTCHAR ScriptCapP
ENCODING 80
SWIDTH 600 0
DWIDTH 19 0
BBX 18 20 1 -1
BITMAP
01fc00
074300
18c080
3180c0
618040
410040
810040
8300c0
830080
c20300
4e0e00
07f800
040000
040000
0c0000
080000
180000
100000
300000
600000
ENDCHAR
STARTCHAR ScriptCapQ
ENCODING 81
SWIDTH 600 0
DWIDTH 19 0
BBX 17 20 1 -1
BITMAP
00fc00
038600
060100
080100
100080
300080
200080
400080
400080
c00080
800180
800100
800100
800300
8f0200
81c400
c06c00
403800
20f800
1f8f80
ENDCHAR
STARTCHAR ScriptCapR
ENCODING 82
SWIDTH 600 0
DWIDTH 19 0
BBX 16 19 2 0
BITMAP
03fc
0ece
3901
6301
4201
c201
8202
8606
c778
47e0
0460
0420
0c30
0810
0818
1808
1004
2006
4000
ENDCHAR
STARTCHAR ScriptCapS
ENCODING 83
SWIDTH 600 0
DWIDTH 19 0
BBX 17 20 1 -1
BITMAP
007c00
018300
030180
020080
020080
020000
030000
018000
00c000
007000
001800
000400
000600
000200
800200
800200
c00600
600c00
303800
0fe000
ENDCHAR
STARTCHAR ScriptCapT
ENCODING 84
SWIDTH 626 0
DWIDTH 20 0
BBX 23 19 -1 -1
BITMAP
07f006
381ff8
603000
c06000
804000
804000
c0c000
408000
008000
018000
010000
010000
030000
020000
020000
060000
0c0000
380000
100000
ENDCHAR
STARTCHAR ScriptCapU
ENCODING 85
SWIDTH 728 0
DWIDTH 23 0
BBX 24 19 0 0
BITMAP
007002
03e003
0e2002
386006
604004
40400c
80c00c
808008
808008
408018
010030
010030
010050
0300e0
0203a0
020620
020c20
023020
01c030
ENDCHAR
STARTCHAR ScriptCapV
ENCODING 86
SWIDTH 714 0
DWIDTH 23 0
BBX 23 19 0 0
BITMAP
00e002
07e006
1c2002
302002
602004
c02004
802008
802018
c03030
403020
001040
001080
001180
001300
001e00
001c00
001800
001000
001000
ENDCHAR
STARTCHAR ScriptCapW
ENCODING 87
SWIDTH 983 0
DWIDTH 31 0
BBX 31 19 0 0
BITMAP
00200002
01e01002
0f201002
18201006
60201004
4020100c
80203008
80203010
c0305030
4030c860
00108840
00118880
00130900
00160b00
00140e00
00180c00
00180c00
00100800
00100800
ENDCHAR
STARTCHAR ScriptCapX
ENCODING 88
SWIDTH 600 0
DWIDTH 19 0
BBX 17 19 1 0
BITMAP
060180
030080
010080
010100
008200
008c00
009800
00f000
00c000
03c000
064000
0c6000
102000
202000
403000
c01000
801800
800c00
800400
ENDCHAR
STARTCHAR ScriptCapY
ENCODING 89
SWIDTH 600 0
DWIDTH 19 0
BBX 21 21 -1 -2
BITMAP
000018
010010
008010
00c020
004060
0040e0
0040c0
004140
0043c0
004680
004c80
005980
007100
006100
004300
000200
000600
c00c00
401800
303000
0fc000
ENDCHAR
STARTCHAR ScriptCapZ
ENCODING 90
SWIDTH 658 0
DWIDTH 21 0
BBX 23 20 -1 -2
BITMAP
000006
07fffc
0c0060
0800c0
000180
000300
000200
000400
000800
001800
003000
006000
00c000
018000
030000
020000
fc0000
4f8008
01f018
000fe0
ENDCHAR
STARTCHAR RightTriangleLeft
ENCODING 91
SWIDTH 600 0
DWIDTH 19 0
BBX 12 18 4 0
BITMAP
0010
0020
0060
0060
00e0
00a0
01a0
0120
0320
0620
0420
0c20
0820
1820
3020
2020
6020
ffe0
ENDCHAR
STARTCHAR RightTriangleRight
ENCODING 92
SWIDTH 600 0
DWIDTH 19 0
BBX 10 18 4 0
BITMAP
8000
8000
8000
c000
e000
a000
b000
9000
9800
8c00
8400
8600
8200
8300
8180
8080
80c0
ffc0
ENDCHAR
STARTCHAR DoubleRightTriangle
ENCODING 93
SWIDTH 600 0
DWIDTH 19 0
BBX 19 18 0 0
BITMAP
006000
00a000
00a000
01b000
01b000
02a800
02a800
04a400
04a400
0ca600
08a200
18a300
10a100
30a180
20a080
60a0c0
40a040
ffbfe0
ENDCHAR
STARTCHAR Female
ENCODING 94
SWIDTH 600 0
DWIDTH 19 0
BBX 11 18 4 0
BITMAP
1f00
3080
4040
c020
8020
8020
8020
8020
4040
60c0
1f80
0600
0600
0600
3f80
0600
0600
0600
ENDCHAR
STARTCHAR Male
ENCODING 95
SWIDTH 600 0
DWIDTH 19 0
BBX 17 18 3 0
BITMAP
000180
000380
000300
000680
0fcc00
187800
201800
400800
c00c00
800400
800400
800400
800400
c00c00
400800
201000
186000
0fc000
ENDCHAR
STARTCHAR NearlyEquals
ENCODING 96
SWIDTH 600 0
DWIDTH 19 0
BBX 13 18 3 -2
BITMAP
1800
1800
1800
0000
0000
fff8
0000
0000
0000
0000
0000
0000
fff8
0000
0000
00c0
00c0
00c0
ENDCHAR
STARTCHAR ScriptA
ENCODING 97
SWIDTH 432 0
DWIDTH 14 0
BBX 13 13 0 0
BITMAP
07f0
1820
3060
2060
4040
40c0
40c0
c0c0
c180
c788
8db8
f9e0
6180
ENDCHAR
STARTCHAR ScriptB
ENCODING 98
SWIDTH 444 0
DWIDTH 14 0
BBX 14 21 0 0
BITMAP
0200
0200
0200
0200
0200
0600
0600
0400
0438
0cc4
0984
0b04
0e04
1c08
1808
1018
1010
3030
2060
20c0
ff00
ENDCHAR
STARTCHAR ScriptC
ENCODING 99
SWIDTH 384 0
DWIDTH 12 0
BBX 11 15 0 -1
BITMAP
07c0
1c20
3000
2000
6000
4000
c000
8000
8000
8000
8000
8080
81c0
c700
7c00
ENDCHAR
STARTCHAR ScriptD
ENCODING 100
SWIDTH 507 0
DWIDTH 16 0
BBX 16 21 0 0
BITMAP
0003
0002
0006
0004
000c
000c
0008
03f8
0c38
1810
1030
2030
6030
4060
4060
80a0
8160
8240
8c40
9840
6060
ENDCHAR
STARTCHAR ScriptE
ENCODING 101
SWIDTH 365 0
DWIDTH 12 0
BBX 11 15 0 -1
BITMAP
03c0
0c20
1820
3060
20c0
4180
7e00
8000
8000
8000
8000
80c0
8180
4300
3c00
ENDCHAR
STARTCHAR ScriptF
ENCODING 102
SWIDTH 476 0
DWIDTH 15 0
BBX 17 24 0 -3
BITMAP
001f00
003180
004000
008000
018000
010000
010000
0ff000
0ff000
020000
060000
060000
040000
040000
0c0000
0c0000
080000
080000
180000
100000
100000
300000
e00000
c00000
ENDCHAR
STARTCHAR ScriptG
ENCODING 103
SWIDTH 489 0
DWIDTH 16 0
BBX 16 21 -1 -7
BITMAP
0078
00fe
0383
0606
0406
0c0c
080c
081c
1028
1068
1198
1310
1e10
0830
0020
0060
0040
00c0
4380
ff00
7c00
ENDCHAR
STARTCHAR ScriptH
ENCODING 104
SWIDTH 421 0
DWIDTH 13 0
BBX 13 20 0 0
BITMAP
0200
0200
0200
0200
0600
0400
0410
0c78
0988
0b10
0c10
1810
1030
1020
3020
2060
6060
6060
4060
c020
ENDCHAR
STARTCHAR ScriptI
ENCODING 105
SWIDTH 222 0
DWIDTH 7 0
BBX 6 19 0 0
BITMAP
04
0c
0c
00
00
18
10
30
20
20
60
40
40
40
80
80
80
80
40
ENDCHAR
STARTCHAR ScriptJ
ENCODING 106
SWIDTH 440 0
DWIDTH 14 0
BBX 14 26 0 -6
BITMAP
000c
0008
0008
0000
0000
0000
0010
0010
0030
0020
0020
0020
0020
0060
0040
0040
0040
00c0
0080
0080
0180
0100
0100
0200
c600
7800
ENDCHAR
STARTCHAR ScriptK
ENCODING 107
SWIDTH 396 0
DWIDTH 13 0
BBX 12 21 0 0
BITMAP
0400
0400
0400
0400
0400
0c00
0800
0810
0810
0820
10e0
1380
1600
1400
2400
2200
2200
6300
4180
c0c0
4040
ENDCHAR
STARTCHAR ScriptL
ENCODING 108
SWIDTH 221 0
DWIDTH 7 0
BBX 7 21 0 0
BITMAP
02
06
06
04
04
04
0c
08
08
18
10
10
10
20
20
20
60
40
40
40
c0
ENDCHAR
STARTCHAR ScriptM
ENCODING 109
SWIDTH 665 0
DWIDTH 21 0
BBX 21 14 0 0
BITMAP
100000
107878
11c9c8
170b18
1c0e18
381c30
301830
201020
203020
603040
402040
406040
c06040
804040
ENDCHAR
STARTCHAR ScriptN
ENCODING 110
SWIDTH 419 0
DWIDTH 13 0
BBX 13 14 0 0
BITMAP
0800
0838
08c8
0b08
0e18
1c10
1810
1010
2030
2020
2020
6020
4020
c020
ENDCHAR
STARTCHAR ScriptO
ENCODING 111
SWIDTH 398 0
DWIDTH 13 0
BBX 12 15 0 -1
BITMAP
03c0
0c20
1810
3010
2010
4010
4010
8010
8020
8020
8060
80c0
c180
4300
3c00
ENDCHAR
STARTCHAR ScriptP
ENCODING 112
SWIDTH 467 0
DWIDTH 15 0
BBX 14 21 0 -6
BITMAP
0400
043c
04e4
0584
0704
0e04
0c0c
0808
0808
1808
1018
1030
1060
70c0
3f00
2000
2000
6000
4000
4000
c000
ENDCHAR
STARTCHAR ScriptQ
ENCODING 113
SWIDTH 442 0
DWIDTH 14 0
BBX 13 20 0 -6
BITMAP
03f0
0618
0810
1010
2030
2030
4070
40e0
81a0
8360
8660
9c40
f040
4040
00c0
00c0
0080
0080
0180
0180
ENDCHAR
STARTCHAR ScriptR
ENCODING 114
SWIDTH 368 0
DWIDTH 12 0
BBX 11 14 0 0
BITMAP
1000
11e0
1300
1c00
1800
3000
3000
2000
2000
6000
4000
4000
4000
c000
ENDCHAR
STARTCHAR ScriptS
ENCODING 115
SWIDTH 428 0
DWIDTH 14 0
BBX 13 14 0 0
BITMAP
03e0
0c18
1000
1000
0800
0c00
0200
0180
00c0
0060
0020
0060
c1c0
3f00
ENDCHAR
STARTCHAR ScriptT
ENCODING 116
SWIDTH 267 0
DWIDTH 9 0
BBX 8 18 0 0
BITMAP
0c
08
18
10
7f
30
20
60
40
40
40
c0
80
80
82
86
9c
70
ENDCHAR
STARTCHAR ScriptU
ENCODING 117
SWIDTH 423 0
DWIDTH 14 0
BBX 13 14 0 0
BITMAP
3008
1018
1010
1010
1030
2020
2060
40e0
41a0
8340
8640
8c40
9840
6040
ENDCHAR
STARTCHAR ScriptV
ENCODING 118
SWIDTH 366 0
DWIDTH 12 0
BBX 11 14 0 0
BITMAP
4020
c020
4020
6040
2040
2080
2080
2100
3300
3200
3400
3c00
3800
3000
ENDCHAR
STARTCHAR ScriptW
ENCODING 119
SWIDTH 582 0
DWIDTH 19 0
BBX 18 14 0 0
BITMAP
c04040
40c040
40c040
41c080
414080
434100
424100
464200
4c4600
584c00
586800
707800
607000
406000
ENDCHAR
STARTCHAR ScriptX
ENCODING 120
SWIDTH 494 0
DWIDTH 16 0
BBX 15 15 0 0
BITMAP
0200
0206
0204
030c
0138
0160
01c0
0380
0680
18c0
3040
6040
4020
8030
8010
ENDCHAR
STARTCHAR ScriptY
ENCODING 121
SWIDTH 455 0
DWIDTH 15 0
BBX 15 20 -1 -6
BITMAP
0402
0402
0406
0c06
0c0c
080c
081c
183c
1068
10c8
1188
1318
1c10
0010
0020
0060
00c0
0180
8700
7c00
ENDCHAR
STARTCHAR ScriptZ
ENCODING 122
SWIDTH 471 0
DWIDTH 15 0
BBX 14 13 0 0
BITMAP
1f84
08f8
0030
0060
00c0
0180
0300
0600
0c00
1800
7800
cf84
00fc
ENDCHAR
STARTCHAR ScriptAltL
ENCODING 123
SWIDTH 385 0
DWIDTH 12 0
BBX 11 20 1 0
BITMAP
00e0
01a0
0320
0660
0640
0cc0
0c80
0900
1a00
1e00
1c00
3000
7000
f000
2000
2000
2000
2000
3000
1000
ENDCHAR
STARTCHAR LogicalNand
ENCODING 124
SWIDTH 600 0
DWIDTH 19 0
BBX 17 18 1 0
BITMAP
7fff00
000000
000000
000000
07f000
041000
081000
080800
080800
100c00
100400
100400
200600
200200
600200
400100
400100
c00180
ENDCHAR
STARTCHAR Nand2
ENCODING 125
SWIDTH 741 0
DWIDTH 24 0
BBX 22 28 1 -6
BITMAP
7ffff0
000000
000000
000000
000000
000000
01fe00
030200
020300
020100
060100
040180
040080
0c0080
0800c0
080040
080040
180040
100020
100020
300020
200010
200010
600010
400018
400008
400008
c0000c
ENDCHAR
STARTCHAR Nand3
ENCODING 126
SWIDTH 1215 0
DWIDTH 39 0
BBX 38 50 1 -16
BITMAP
3fffffffe0
0000000000
0000000000
0000000000
0000000000
0000000000
0000000000
0000000000
0000000000
0000000000
0000000000
001fffc000
0010004000
0010004000
0010006000
0030002000
0020002000
0020003000
0060001000
0040001000
0040001800
0040000800
00c0000800
0080000800
0080000400
0180000400
0100000400
0100000200
0300000200
0200000200
0200000300
0200000100
0600000100
0400000180
0400000080
0c00000080
08000000c0
0800000040
0800000040
1800000040
1000000020
1000000020
3000000020
2000000030
2000000010
2000000010
6000000018
4000000008
4000000008
c00000000c
ENDCHAR
STARTCHAR DEL
ENCODING 127
SWIDTH 263 0
DWIDTH 8 0
BBX 0 0 0 0
BITMAP
ENDCHAR
STARTCHAR LogicalNor
ENCODING 128
SWIDTH 600 0
DWIDTH 19 0
BBX 17 18 1 0
BITMAP
7fff00
000000
000000
000000
c00180
400100
600100
200300
200200
300200
100400
100400
180400
080800
080800
040800
041000
07f000
ENDCHAR
STARTCHAR Nor2
ENCODING 129
SWIDTH 741 0
DWIDTH 24 0
BBX 22 29 1 -7
BITMAP
3ffff8
000000
000000
000000
000000
000000
c0000c
400008
400008
400008
600018
200010
200010
300030
100020
100020
180020
080060
080040
080040
0400c0
040080
040080
020080
020180
020100
030100
010300
01fe00
ENDCHAR
STARTCHAR Nor3
ENCODING 130
SWIDTH 1215 0
DWIDTH 39 0
BBX 38 49 1 -16
BITMAP
1ffffffff0
0000000000
0000000000
0000000000
0000000000
0000000000
0000000000
0000000000
0000000000
0000000000
8000000004
4000000008
4000000008
4000000008
6000000018
2000000010
2000000010
3000000030
1000000020
1000000020
1800000020
0800000060
0800000040
0c00000040
04000000c0
0400000080
0600000080
0200000180
0200000100
0200000100
0100000100
0100000300
0100000200
0080000200
0080000600
0080000400
00c0000400
0040000400
0040000800
0060000800
0020000800
0020001800
0030001000
0010001000
0010003000
0018002000
0008002000
0008002000
000fffe000
ENDCHAR
STARTCHAR LogicalXor
ENCODING 131
SWIDTH 600 0
DWIDTH 19 0
BBX 17 18 1 0
BITMAP
c00180
400100
600100
200300
200200
300200
100400
100400
180400
080800
080800
040800
041000
07f000
000000
000000
000000
7fff00
ENDCHAR
STARTCHAR Xor2
ENCODING 132
SWIDTH 741 0
DWIDTH 24 0
BBX 22 29 1 -7
BITMAP
c0000c
400008
400008
400008
200018
200010
200010
300030
100020
100020
180020
080060
080040
080040
0400c0
040080
040080
020080
020180
020100
030100
010300
01fe00
000000
000000
000000
000000
000000
3ffff8
ENDCHAR
STARTCHAR Xor3
ENCODING 133
SWIDTH 1215 0
DWIDTH 39 0
BBX 38 49 1 -16
BITMAP
c00000000c
4000000008
4000000008
6000000018
2000000010
2000000010
3000000010
1000000030
1000000020
1000000020
0800000060
0800000040
0800000040
0c00000040
04000000c0
0400000080
0600000080
0200000180
0200000100
0300000100
0100000100
0100000200
0100000200
0080000200
0080000600
0080000400
0040000400
0040000c00
0040000800
0060000800
0020000800
0020001800
0030001000
0010001000
0010003000
0018002000
0008002000
0008002000
000fffe000
0000000000
0000000000
0000000000
0000000000
0000000000
0000000000
0000000000
0000000000
0000000000
1ffffffff0
ENDCHAR
STARTCHAR ConstantC
ENCODING 134
SWIDTH 600 0
DWIDTH 19 0
BBX 15 14 2 0
BITMAP
07e0
1f30
3608
6404
4800
8800
8800
8800
8800
4800
6400
3606
1f1c
07e0
ENDCHAR
STARTCHAR LongEqual
ENCODING 135
SWIDTH 798 0
DWIDTH 26 0
BBX 20 8 3 3
BITMAP
fffff0
000000
000000
000000
000000
000000
000000
fffff0
ENDCHAR
STARTCHAR Diffd2
ENCODING 136
SWIDTH 600 0
DWIDTH 19 0
BBX 19 20 2 0
BITMAP
000fe0
000fe0
000060
000040
000040
0000c0
01f0c0
07fcc0
0e0e80
180380
300180
600180
600180
600100
e00100
c00300
600700
701f00
3ff600
0f87c0
ENDCHAR
STARTCHAR Expe2
ENCODING 137
SWIDTH 600 0
DWIDTH 19 0
BBX 16 14 3 0
BITMAP
01f8
07fe
0e0e
1803
3001
6001
6001
7fff
c000
e000
6000
780e
3ff8
0fe0
ENDCHAR
STARTCHAR Imagi2
ENCODING 138
SWIDTH 600 0
DWIDTH 19 0
BBX 14 21 3 0
BITMAP
0030
0030
0070
0070
0000
0000
0000
0000
0fe0
0060
0040
00c0
00c0
00c0
0080
0180
0180
0180
0180
0100
fffc
ENDCHAR
STARTCHAR Imagj2
ENCODING 139
SWIDTH 600 0
DWIDTH 19 0
BBX 16 26 1 -5
BITMAP
0003
0007
0007
0006
0000
0000
0000
0000
0ffe
0004
000c
000c
000c
0008
0008
0018
0018
0018
0010
0030
0030
0030
0060
01c0
ff80
7f00
ENDCHAR
STARTCHAR CapitalCAcute
ENCODING 140
SWIDTH 600 0
DWIDTH 19 0
BBX 15 26 2 -1
BITMAP
0038
0070
00e0
00c0
0180
0300
0000
07e2
1c1e
300e
2006
4002
4002
8000
8000
8000
8000
8000
8000
8000
4000
4000
2000
3006
1c1c
07f0
ENDCHAR
STARTCHAR CapitalCHacek
ENCODING 141
SWIDTH 600 0
DWIDTH 19 0
BBX 15 27 2 -1
BITMAP
1004
080c
0c18
0630
0360
01c0
0000
0000
07e2
1c1e
300e
2006
4002
4002
8000
8000
8000
8000
8000
8000
8000
4000
4000
2000
3006
1c1c
07f0
ENDCHAR
STARTCHAR EBar
ENCODING 142
SWIDTH 600 0
DWIDTH 19 0
BBX 15 18 2 0
BITMAP
7ff8
0000
0000
0000
07e0
1818
200c
4004
8002
8002
fffe
8000
8000
4000
4000
2002
181c
07f0
ENDCHAR
STARTCHAR ECup
ENCODING 143
SWIDTH 600 0
DWIDTH 19 0
BBX 15 19 2 0
BITMAP
3010
1830
0fe0
0000
0000
07e0
1818
200c
4004
8002
8002
fffe
8000
8000
4000
4000
2002
181c
07f0
ENDCHAR
STARTCHAR CapitalEBar
ENCODING 144
SWIDTH 600 0
DWIDTH 19 0
BBX 15 22 2 0
BITMAP
3ff8
0000
0000
0000
fffe
1002
1002
1002
1002
1000
1020
1020
1fe0
1020
1020
1000
1002
1002
1002
1002
1002
fffe
ENDCHAR
STARTCHAR CapitalECup
ENCODING 145
SWIDTH 600 0
DWIDTH 19 0
BBX 15 23 2 0
BITMAP
1010
1830
0fe0
0000
0000
fffe
1002
1002
1002
1002
1000
1020
1020
1fe0
1020
1020
1000
1002
1002
1002
1002
1002
fffe
ENDCHAR
STARTCHAR ICup
ENCODING 146
SWIDTH 600 0
DWIDTH 19 0
BBX 13 19 3 0
BITMAP
3060
1fc0
0700
0000
0000
7e00
0200
0200
0200
0200
0200
0200
0200
0200
0200
0200
0200
0200
fff8
ENDCHAR
STARTCHAR CapitalICup
ENCODING 147
SWIDTH 600 0
DWIDTH 19 0
BBX 13 23 3 0
BITMAP
2020
3060
1fc0
0000
0000
fff8
0200
0200
0200
0200
0200
0200
0200
0200
0200
0200
0200
0200
0200
0200
0200
0200
fff8
ENDCHAR
STARTCHAR LSlash
ENCODING 148
SWIDTH 600 0
DWIDTH 19 0
BBX 13 20 3 0
BITMAP
7e00
0200
0200
0200
0200
0200
0208
0230
0240
0380
0200
0e00
3200
6200
0200
0200
0200
0200
0200
fff8
ENDCHAR
STARTCHAR CapitalLSlash
ENCODING 149
SWIDTH 600 0
DWIDTH 19 0
BBX 15 18 2 0
BITMAP
ff00
1000
1000
1000
1000
1000
1180
1200
1c00
1000
7002
9002
1002
1002
1002
1002
1002
fffe
ENDCHAR
STARTCHAR Mercury
ENCODING 150
SWIDTH 600 0
DWIDTH 19 0
BBX 9 18 5 0
BITMAP
8080
c180
4100
3e00
3e00
4100
c180
8080
8080
c100
6300
3e00
0800
0800
7f00
7f00
0800
0800
ENDCHAR
STARTCHAR Venus
ENCODING 151
SWIDTH 600 0
DWIDTH 19 0
BBX 13 18 3 0
BITMAP
0f80
38e0
6030
4010
c010
c018
c008
c018
4010
6030
3060
0f80
0200
0200
1fc0
1fc0
0200
0200
ENDCHAR
STARTCHAR Earth
ENCODING 152
SWIDTH 600 0
DWIDTH 19 0
BBX 13 18 3 0
BITMAP
0200
0200
1fc0
1fc0
0200
0200
0f80
3060
6030
4010
c018
8018
c018
4018
4010
6030
38e0
0f80
ENDCHAR
STARTCHAR Mars
ENCODING 153
SWIDTH 600 0
DWIDTH 19 0
BBX 16 15 2 0
BITMAP
003e
0007
000d
0f19
38f1
6021
4010
c010
8010
8018
4010
4010
2020
18e0
0f80
ENDCHAR
STARTCHAR Jupiter
ENCODING 154
SWIDTH 600 0
DWIDTH 19 0
BBX 16 21 2 -3
BITMAP
0001
0001
0fc1
38e1
3031
6011
6019
4009
4009
0009
0009
0019
0011
0031
0061
01c1
3f01
ffff
0001
0001
0001
ENDCHAR
STARTCHAR Saturn
ENCODING 155
SWIDTH 600 0
DWIDTH 19 0
BBX 13 18 3 0
BITMAP
6000
6000
6000
fe00
6000
6000
63e0
6c30
6818
7018
7018
6018
6010
6030
6020
6060
6040
6060
ENDCHAR
STARTCHAR Uranus
ENCODING 156
SWIDTH 600 0
DWIDTH 19 0
BBX 15 18 2 0
BITMAP
f18e
3188
3188
3188
3188
3ff8
3188
3188
3188
3188
3188
f18e
0180
06c0
0440
0440
0440
0380
ENDCHAR
STARTCHAR Neptune
ENCODING 157
SWIDTH 600 0
DWIDTH 19 0
BBX 19 21 0 -3
BITMAP
00e000
01f000
037800
006000
7863c0
dc6760
926520
106100
106100
106100
106100
186300
0c6600
07fc00
006000
006000
006000
07fc00
006000
006000
006000
ENDCHAR
STARTCHAR Pluto
ENCODING 158
SWIDTH 600 0
DWIDTH 19 0
BBX 14 21 3 -3
BITMAP
ffc0
c1f0
c018
c008
c008
c00c
c00c
c00c
c008
c018
c018
fff0
ffc0
c000
c000
c000
c000
c000
c000
c000
fff8
ENDCHAR
STARTCHAR udieresis
ENCODING 159
SWIDTH 600 0
DWIDTH 19 0
BBX 18 18 1 0
BITMAP
03f000
0c1c00
100600
200300
400180
400080
c000c0
800040
81c040
81c040
81c040
800040
c00080
400080
200100
300200
0c0c00
03f000
ENDCHAR
STARTCHAR FirstPage
ENCODING 160
SWIDTH 600 0
DWIDTH 19 0
BBX 10 14 5 1
BITMAP
c040
c080
c180
c380
c780
cf80
df80
df80
cf80
c780
c380
c180
c080
c040
ENDCHAR
STARTCHAR LastPage
ENCODING 161
SWIDTH 600 0
DWIDTH 19 0
BBX 9 14 5 1
BITMAP
8180
8180
c180
e180
f180
f980
fd80
fd80
f980
f180
e180
c180
8180
8180
ENDCHAR
STARTCHAR SolidLeftTriangle
ENCODING 162
SWIDTH 600 0
DWIDTH 19 0
BBX 18 18 1 0
BITMAP
000040
0001c0
0007c0
001fc0
007fc0
01ffc0
07ffc0
1fffc0
7fffc0
ffffc0
1fffc0
07ffc0
01ffc0
007fc0
001fc0
0007c0
0001c0
000040
ENDCHAR
STARTCHAR SolidRightTriangle
ENCODING 163
SWIDTH 600 0
DWIDTH 19 0
BBX 18 18 1 0
BITMAP
800000
e00000
f80000
fe0000
ff8000
ffe000
fff800
fffe00
ffff80
ffffc0
fffe00
fff800
ffe000
ff8000
fe0000
f80000
e00000
800000
ENDCHAR
STARTCHAR QuarterNote
ENCODING 164
SWIDTH 600 0
DWIDTH 19 0
BBX 9 20 5 -1
BITMAP
0080
0080
0080
0080
0080
0080
0080
0080
0080
0080
0080
0080
0080
0080
0080
3c80
ff80
ff80
ff80
3e00
ENDCHAR
STARTCHAR EighthNote
ENCODING 165
SWIDTH 600 0
DWIDTH 19 0
BBX 16 20 2 -1
BITMAP
0080
00e0
00f0
009c
008c
0082
0083
0080
0080
0080
0080
0080
0080
0080
0080
3c80
ff80
ff80
ff80
3e00
ENDCHAR
STARTCHAR BeamedEighthNote
ENCODING 166
SWIDTH 700 0
DWIDTH 22 0
BBX 22 20 0 -1
BITMAP
00fffc
00fffc
008004
008004
008004
008004
008004
008004
008004
008004
008004
008004
008004
008004
008004
3c81e4
ff87f4
ff87fc
ff87fc
3e01f0
ENDCHAR
STARTCHAR BeamedSixteenthNote
ENCODING 167
SWIDTH 700 0
DWIDTH 22 0
BBX 22 20 0 -1
BITMAP
00fffc
00fffc
008004
008004
00fffc
008004
008004
008004
008004
008004
008004
008004
008004
008004
008004
3c81e4
ff87f4
ff87fc
ff87fc
3e01f0
ENDCHAR
STARTCHAR EntityStart
ENCODING 168
SWIDTH 700 0
DWIDTH 22 0
BBX 21 25 1 -4
BITMAP
fffff8
800080
800080
800080
800080
800080
878080
8c4080
880080
880080
880080
840080
860080
9e1c80
913080
a1a080
a0e080
a04080
90e080
8f3c80
800080
800080
800080
800080
fffff8
ENDCHAR
STARTCHAR EntityEnd
ENCODING 169
SWIDTH 700 0
DWIDTH 22 0
BBX 21 25 1 -4
BITMAP
fffff8
080008
080008
080008
080008
080008
080008
080008
080008
080008
080008
081c08
081c08
081c08
080008
080008
080008
080008
081808
081808
081008
083008
082008
080008
fffff8
ENDCHAR
STARTCHAR trademark
ENCODING 170
SWIDTH 600 0
DWIDTH 19 0
BBX 16 17 5 3
BITMAP
0003
0006
0004
000c
0018
0030
0060
00c0
00c0
0180
e180
6300
7700
3600
3e00
1c00
0c00
ENDCHAR
STARTCHAR acute
ENCODING 171
SWIDTH 600 0
DWIDTH 19 0
BBX 19 20 1 0
BITMAP
000060
0000c0
ffff00
800380
800280
800680
800c80
801880
801880
8c3080
8e3080
8e6080
876080
83c080
83c080
818080
808080
800080
800080
ffff80
ENDCHAR
STARTCHAR dieresis
ENCODING 172
SWIDTH 364 0
DWIDTH 12 0
BBX 9 12 2 11
BITMAP
ff80
0800
0800
0800
0800
0800
0800
0800
0800
0800
0800
0800
ENDCHAR
STARTCHAR notequal
ENCODING 173
SWIDTH 364 0
DWIDTH 12 0
BBX 10 10 1 12
BITMAP
0c00
0c00
cc80
ffc0
3f00
3f00
ffc0
cc80
0c00
0c00
ENDCHAR
STARTCHAR AE
ENCODING 174
SWIDTH 364 0
DWIDTH 12 0
BBX 8 10 2 12
BITMAP
81
81
81
81
ff
81
81
81
81
81
ENDCHAR
STARTCHAR Oslash
ENCODING 175
SWIDTH 600 0
DWIDTH 19 0
BBX 8 22 9 -2
BITMAP
ff
80
80
80
80
80
80
80
80
80
80
80
80
80
80
80
80
80
80
80
80
80
ENDCHAR
STARTCHAR infinity
ENCODING 176
SWIDTH 600 0
DWIDTH 19 0
BBX 4 24 6 -5
BITMAP
10
10
10
10
10
10
10
10
f0
80
80
80
80
80
80
f0
10
10
10
10
10
10
10
10
ENDCHAR
STARTCHAR plusminus
ENCODING 177
SWIDTH 600 0
DWIDTH 19 0
BBX 8 22 9 0
BITMAP
80
80
80
80
80
80
80
80
80
80
80
80
80
80
80
80
80
80
80
80
80
ff
ENDCHAR
STARTCHAR lessequal
ENCODING 178
SWIDTH 600 0
DWIDTH 19 0
BBX 1 10 9 0
BITMAP
80
80
80
80
80
80
80
80
80
80
ENDCHAR
STARTCHAR greaterequal
ENCODING 179
SWIDTH 600 0
DWIDTH 19 0
BBX 8 26 6 -6
BITMAP
1f
10
10
10
10
10
10
10
10
f0
80
80
80
80
80
80
f0
10
10
10
10
10
10
10
10
1f
ENDCHAR
STARTCHAR yen
ENCODING 180
SWIDTH 600 0
DWIDTH 19 0
BBX 8 40 6 -13
BITMAP
1f
10
10
10
10
10
10
10
10
10
10
10
10
10
10
10
f0
80
80
80
80
80
80
f0
10
10
10
10
10
10
10
10
10
10
10
10
10
10
10
1f
ENDCHAR
STARTCHAR mu
ENCODING 181
SWIDTH 600 0
DWIDTH 19 0
BBX 10 54 6 -20
BITMAP
1fc0
1000
1000
1000
1000
1000
1000
1000
1000
1000
1000
1000
1000
1000
1000
1000
1000
1000
1000
1000
1000
1000
1000
f000
8000
8000
8000
8000
8000
8000
f000
1000
1000
1000
1000
1000
1000
1000
1000
1000
1000
1000
1000
1000
1000
1000
1000
1000
1000
1000
1000
1000
1000
1fc0
ENDCHAR
STARTCHAR partialdiff
ENCODING 182
SWIDTH 600 0
DWIDTH 19 0
BBX 11 67 6 -26
BITMAP
1fe0
1000
1000
1000
1000
1000
1000
1000
1000
1000
1000
1000
1000
1000
1000
1000
1000
1000
1000
1000
1000
1000
1000
1000
1000
1000
1000
1000
1000
1000
f000
8000
8000
8000
8000
8000
8000
f000
1000
1000
1000
1000
1000
1000
1000
1000
1000
1000
1000
1000
1000
1000
1000
1000
1000
1000
1000
1000
1000
1000
1000
1000
1000
1000
1000
1000
1fe0
ENDCHAR
STARTCHAR summation
ENCODING 183
SWIDTH 720 0
DWIDTH 23 0
BBX 21 14 1 0
BITMAP
010000
030000
060000
0c0000
180000
300000
600000
ffcf18
600000
300000
180000
040000
020000
010000
ENDCHAR
STARTCHAR product
ENCODING 184
SWIDTH 600 0
DWIDTH 19 0
BBX 14 20 3 0
BITMAP
0200
0700
0f80
1a40
3220
6218
c20c
0200
0200
0000
0000
0200
0200
0200
0200
0000
0000
0000
0200
0200
ENDCHAR
STARTCHAR pi
ENCODING 185
SWIDTH 720 0
DWIDTH 23 0
BBX 21 14 1 0
BITMAP
000400
000600
000300
000180
0000c0
000060
000030
c79ff8
000030
000060
0000c0
000100
000200
000400
ENDCHAR
STARTCHAR integral
ENCODING 186
SWIDTH 600 0
DWIDTH 19 0
BBX 13 20 3 0
BITMAP
0200
0200
0000
0000
0200
0200
0200
0200
0000
0000
0000
0200
8208
4218
6230
3260
1ac0
0f80
0700
0200
ENDCHAR
STARTCHAR ordfeminine
ENCODING 187
SWIDTH 900 0
DWIDTH 29 0
BBX 25 12 2 2
BITMAP
ffffff80
80000080
80000080
80000080
8c0c1880
8c0c1880
8c0c1880
80000080
80000080
80000080
80000080
ffffff80
ENDCHAR
STARTCHAR ordmasculine
ENCODING 188
SWIDTH 900 0
DWIDTH 29 0
BBX 11 25 9 -4
BITMAP
ffe0
8020
8020
8020
8620
8620
8620
8020
8020
8020
8020
8620
8620
8620
8020
8020
8020
8020
8020
8620
8620
8620
8020
8020
ffe0
ENDCHAR
STARTCHAR Omega
ENCODING 189
SWIDTH 900 0
DWIDTH 29 0
BBX 25 25 2 -4
BITMAP
fe000000
c1000000
c0800000
c0400000
c0200000
c0100000
c3880000
e3c40000
71020000
38010000
1c008000
0e0e6000
030e3000
018e1800
00c00c00
00600600
00301100
00187880
000c3880
00060080
00030080
0001c080
0000e080
00007080
00003f80
ENDCHAR
STARTCHAR ae
ENCODING 190
SWIDTH 364 0
DWIDTH 12 0
BBX 8 13 2 10
BITMAP
18
18
18
18
ff
18
18
18
18
18
18
18
18
ENDCHAR
STARTCHAR oslash
ENCODING 191
SWIDTH 263 0
DWIDTH 8 0
BBX 0 0 0 0
BITMAP
ENDCHAR
STARTCHAR questiondown
ENCODING 192
SWIDTH 263 0
DWIDTH 8 0
BBX 0 0 0 0
BITMAP
ENDCHAR
STARTCHAR exclamdown
ENCODING 193
SWIDTH 263 0
DWIDTH 8 0
BBX 0 0 0 0
BITMAP
ENDCHAR
STARTCHAR logicalnot
ENCODING 194
SWIDTH 263 0
DWIDTH 8 0
BBX 0 0 0 0
BITMAP
ENDCHAR
STARTCHAR radical
ENCODING 195
SWIDTH 263 0
DWIDTH 8 0
BBX 0 0 0 0
BITMAP
ENDCHAR
STARTCHAR florin
ENCODING 196
SWIDTH 263 0
DWIDTH 8 0
BBX 0 0 0 0
BITMAP
ENDCHAR
STARTCHAR approxequal
ENCODING 197
SWIDTH 263 0
DWIDTH 8 0
BBX 0 0 0 0
BITMAP
ENDCHAR
STARTCHAR Delta
ENCODING 198
SWIDTH 263 0
DWIDTH 8 0
BBX 0 0 0 0
BITMAP
ENDCHAR
STARTCHAR guillemotleft
ENCODING 199
SWIDTH 263 0
DWIDTH 8 0
BBX 0 0 0 0
BITMAP
ENDCHAR
STARTCHAR guillemotright
ENCODING 200
SWIDTH 263 0
DWIDTH 8 0
BBX 0 0 0 0
BITMAP
ENDCHAR
STARTCHAR ellipsis
ENCODING 201
SWIDTH 263 0
DWIDTH 8 0
BBX 0 0 0 0
BITMAP
ENDCHAR
STARTCHAR nbspace
ENCODING 202
SWIDTH 263 0
DWIDTH 8 0
BBX 0 0 0 0
BITMAP
ENDCHAR
STARTCHAR Agrave
ENCODING 203
SWIDTH 263 0
DWIDTH 8 0
BBX 0 0 0 0
BITMAP
ENDCHAR
STARTCHAR Atilde
ENCODING 204
SWIDTH 263 0
DWIDTH 8 0
BBX 0 0 0 0
BITMAP
ENDCHAR
STARTCHAR Otilde
ENCODING 205
SWIDTH 263 0
DWIDTH 8 0
BBX 0 0 0 0
BITMAP
ENDCHAR
STARTCHAR parenright
ENCODING 206
SWIDTH 263 0
DWIDTH 8 0
BBX 0 0 0 0
BITMAP
ENDCHAR
STARTCHAR oe
ENCODING 207
SWIDTH 263 0
DWIDTH 8 0
BBX 0 0 0 0
BITMAP
ENDCHAR
STARTCHAR endash
ENCODING 208
SWIDTH 263 0
DWIDTH 8 0
BBX 0 0 0 0
BITMAP
ENDCHAR
STARTCHAR emdash
ENCODING 209
SWIDTH 263 0
DWIDTH 8 0
BBX 0 0 0 0
BITMAP
ENDCHAR
STARTCHAR quotedblleft
ENCODING 210
SWIDTH 263 0
DWIDTH 8 0
BBX 0 0 0 0
BITMAP
ENDCHAR
STARTCHAR quotedblright
ENCODING 211
SWIDTH 263 0
DWIDTH 8 0
BBX 0 0 0 0
BITMAP
ENDCHAR
STARTCHAR quoteleft
ENCODING 212
SWIDTH 263 0
DWIDTH 8 0
BBX 0 0 0 0
BITMAP
ENDCHAR
STARTCHAR quoteright
ENCODING 213
SWIDTH 263 0
DWIDTH 8 0
BBX 0 0 0 0
BITMAP
ENDCHAR
STARTCHAR divide
ENCODING 214
SWIDTH 263 0
DWIDTH 8 0
BBX 0 0 0 0
BITMAP
ENDCHAR
STARTCHAR lozenge
ENCODING 215
SWIDTH 263 0
DWIDTH 8 0
BBX 0 0 0 0
BITMAP
ENDCHAR
STARTCHAR ydieresis
ENCODING 216
SWIDTH 263 0
DWIDTH 8 0
BBX 0 0 0 0
BITMAP
ENDCHAR
STARTCHAR Ydieresis
ENCODING 217
SWIDTH 263 0
DWIDTH 8 0
BBX 0 0 0 0
BITMAP
ENDCHAR
STARTCHAR fraction
ENCODING 218
SWIDTH 263 0
DWIDTH 8 0
BBX 0 0 0 0
BITMAP
ENDCHAR
STARTCHAR currency
ENCODING 219
SWIDTH 263 0
DWIDTH 8 0
BBX 0 0 0 0
BITMAP
ENDCHAR
STARTCHAR guilsinglleft
ENCODING 220
SWIDTH 263 0
DWIDTH 8 0
BBX 0 0 0 0
BITMAP
ENDCHAR
STARTCHAR guilsinglright
ENCODING 221
SWIDTH 263 0
DWIDTH 8 0
BBX 0 0 0 0
BITMAP
ENDCHAR
STARTCHAR fi
ENCODING 222
SWIDTH 263 0
DWIDTH 8 0
BBX 0 0 0 0
BITMAP
ENDCHAR
STARTCHAR fl
ENCODING 223
SWIDTH 263 0
DWIDTH 8 0
BBX 0 0 0 0
BITMAP
ENDCHAR
STARTCHAR daggerdbl
ENCODING 224
SWIDTH 263 0
DWIDTH 8 0
BBX 0 0 0 0
BITMAP
ENDCHAR
STARTCHAR periodcentered
ENCODING 225
SWIDTH 263 0
DWIDTH 8 0
BBX 0 0 0 0
BITMAP
ENDCHAR
STARTCHAR quotesinglbase
ENCODING 226
SWIDTH 263 0
DWIDTH 8 0
BBX 0 0 0 0
BITMAP
ENDCHAR
STARTCHAR quotedblbase
ENCODING 227
SWIDTH 263 0
DWIDTH 8 0
BBX 0 0 0 0
BITMAP
ENDCHAR
STARTCHAR perthousand
ENCODING 228
SWIDTH 263 0
DWIDTH 8 0
BBX 0 0 0 0
BITMAP
ENDCHAR
STARTCHAR Acircumflex
ENCODING 229
SWIDTH 263 0
DWIDTH 8 0
BBX 0 0 0 0
BITMAP
ENDCHAR
STARTCHAR Ecircumflex
ENCODING 230
SWIDTH 263 0
DWIDTH 8 0
BBX 0 0 0 0
BITMAP
ENDCHAR
STARTCHAR Aacute
ENCODING 231
SWIDTH 263 0
DWIDTH 8 0
BBX 0 0 0 0
BITMAP
ENDCHAR
STARTCHAR Edieresis
ENCODING 232
SWIDTH 263 0
DWIDTH 8 0
BBX 0 0 0 0
BITMAP
ENDCHAR
STARTCHAR Egrave
ENCODING 233
SWIDTH 263 0
DWIDTH 8 0
BBX 0 0 0 0
BITMAP
ENDCHAR
STARTCHAR Iacute
ENCODING 234
SWIDTH 263 0
DWIDTH 8 0
BBX 0 0 0 0
BITMAP
ENDCHAR
STARTCHAR Icircumflex
ENCODING 235
SWIDTH 263 0
DWIDTH 8 0
BBX 0 0 0 0
BITMAP
ENDCHAR
STARTCHAR Idieresis
ENCODING 236
SWIDTH 263 0
DWIDTH 8 0
BBX 0 0 0 0
BITMAP
ENDCHAR
STARTCHAR Igrave
ENCODING 237
SWIDTH 263 0
DWIDTH 8 0
BBX 0 0 0 0
BITMAP
ENDCHAR
STARTCHAR Oacute
ENCODING 238
SWIDTH 263 0
DWIDTH 8 0
BBX 0 0 0 0
BITMAP
ENDCHAR
STARTCHAR Ocircumflex
ENCODING 239
SWIDTH 263 0
DWIDTH 8 0
BBX 0 0 0 0
BITMAP
ENDCHAR
STARTCHAR apple
ENCODING 240
SWIDTH 263 0
DWIDTH 8 0
BBX 0 0 0 0
BITMAP
ENDCHAR
STARTCHAR Ograve
ENCODING 241
SWIDTH 263 0
DWIDTH 8 0
BBX 0 0 0 0
BITMAP
ENDCHAR
STARTCHAR Uacute
ENCODING 242
SWIDTH 263 0
DWIDTH 8 0
BBX 0 0 0 0
BITMAP
ENDCHAR
STARTCHAR Ucircumflex
ENCODING 243
SWIDTH 263 0
DWIDTH 8 0
BBX 0 0 0 0
BITMAP
ENDCHAR
STARTCHAR Ugrave
ENCODING 244
SWIDTH 263 0
DWIDTH 8 0
BBX 0 0 0 0
BITMAP
ENDCHAR
STARTCHAR dotlessi
ENCODING 245
SWIDTH 263 0
DWIDTH 8 0
BBX 0 0 0 0
BITMAP
ENDCHAR
STARTCHAR circumflex
ENCODING 246
SWIDTH 263 0
DWIDTH 8 0
BBX 0 0 0 0
BITMAP
ENDCHAR
STARTCHAR CurlyQuote
ENCODING 247
SWIDTH 600 0
DWIDTH 19 0
BBX 3 7 6 10
BITMAP
e0
e0
e0
60
40
c0
80
ENDCHAR
STARTCHAR CurlyDblQuote
ENCODING 248
SWIDTH 600 0
DWIDTH 19 0
BBX 10 7 4 10
BITMAP
e1c0
e1c0
e1c0
60c0
4080
c180
8100
ENDCHAR
STARTCHAR CurlyBackQuote
ENCODING 249
SWIDTH 600 0
DWIDTH 19 0
BBX 3 7 9 10
BITMAP
20
60
40
c0
e0
e0
e0
ENDCHAR
STARTCHAR CurlyDblBackQuote
ENCODING 250
SWIDTH 600 0
DWIDTH 19 0
BBX 9 7 6 10
BITMAP
2080
6180
4100
c300
e380
e380
e380
ENDCHAR
STARTCHAR StrikeCircle
ENCODING 251
SWIDTH 600 0
DWIDTH 19 0
BBX 19 18 0 0
BITMAP
03f800
0e0e00
100100
200080
400040
400040
800020
800020
800020
800020
800020
800020
400040
400040
200080
100100
0e0e00
03f800
ENDCHAR
STARTCHAR StrikeSquare
ENCODING 252
SWIDTH 600 0
DWIDTH 19 0
BBX 17 18 1 0
BITMAP
ffff80
800080
800080
800080
800080
800080
800080
800080
800080
800080
800080
800080
800080
800080
800080
800080
800080
ffff80
ENDCHAR
STARTCHAR StrikeTriangle
ENCODING 253
SWIDTH 600 0
DWIDTH 19 0
BBX 18 18 1 0
BITMAP
004000
00c000
00c000
01e000
012000
033000
021000
061800
040800
0c0c00
080400
180600
100200
300300
200100
600180
400080
ffffc0
ENDCHAR
STARTCHAR MathLogo1
ENCODING 254
SWIDTH 2776 0
DWIDTH 89 0
BBX 90 21 0 0
BITMAP
07e003f80000000000000000
00e003c00000000000000000
00e00580180800b0cc361f80
00f00580181de38f03c1e1c0
00f00b803830e0860181c0c0
01700b803860c0460181c040
017013803840c04e03818000
013033805800c00e03818000
023823805c00c00c03018200
023863008c01c00c03018400
023843008c01c00c03018400
0438c3010c01c00fff01fc00
041883010c01c00c07038400
04190703fe01c01c07038400
041d07020e01801c07030400
081e07040601801806030000
081e07040601801806030000
081c07080601801806030080
100c0708070380380e030180
38080f18070380380e070100
fe083ffe1fcfe0fe3f9fff00
ENDCHAR
STARTCHAR MathLogo2
ENCODING 255
SWIDTH 2981 0
DWIDTH 95 0
BBX 95 19 0 0
BITMAP
000000008080080007c00424
07c01f8081fff9fe1c280c56
01c01c01c187187030100c5a
01c02c01c1060c3060101e5a
01c03c02c2060460e0101e4c
02c05c02c00e0060c0082e38
02c09804c00e006180002e00
02e09804e00e006180004600
02611808e00c006180008700
04611808600c006300008700
04621808600c006300010700
0462181fe00c00e30001ff00
08741810601c00c300020300
08743820701c00c300020380
08383020301800c300240380
10383040301800c180440180
10303040301801c180c80180
303038c0383801e0c3c803c0
fc21fff0feff0ff07f3f0fe0
ENDCHAR
ENDFONT
