STARTFONT 2.1
FONT -WRI-Mathematica3-Bold-R-Normal--13-130-75-75-p-80-Adobe-FontSpecific
SIZE 13 75 75
FONTBOUNDINGBOX 16 15 -1 -4
STARTPROPERTIES 16
FOUNDRY "WRI"
FAMILY_NAME "Mathematica3"
WEIGHT_NAME "Bold"
SLANT "R"
SETWIDTH_NAME "Normal"
PIXEL_SIZE 13
POINT_SIZE 130
RESOLUTION_X 75
RESOLUTION_Y 75
SPACING "p"
AVERAGE_WIDTH 80
CHARSET_REGISTRY "Adobe"
CHARSET_ENCODING "FontSpecific"
FONT_DESCENT 4
FONT_ASCENT 11
DEFAULT_CHAR 32
ENDPROPERTIES
CHARS 224
STARTCHAR Space
ENCODING 32
SWIDTH 189 0
DWIDTH 2 0
BBX 0 0 0 0
BITMAP
ENDCHAR
STARTCHAR Integral
ENCODING 33
SWIDTH 323 0
DWIDTH 4 0
BBX 7 12 0 -1
BITMAP
0e
08
18
18
18
18
10
10
10
10
10
e0
ENDCHAR
STARTCHAR ContourIntegral
ENCODING 34
SWIDTH 323 0
DWIDTH 4 0
BBX 7 12 0 -1
BITMAP
0e
08
18
18
3c
5c
54
34
18
10
10
e0
ENDCHAR
STARTCHAR DblContInteg
ENCODING 35
SWIDTH 605 0
DWIDTH 8 0
BBX 11 12 0 -1
BITMAP
0ee0
0980
1900
1f00
3980
5940
5140
3140
1f80
1300
1200
ee00
ENDCHAR
STARTCHAR CntrClckwContInteg
ENCODING 36
SWIDTH 329 0
DWIDTH 4 0
BBX 7 12 0 -1
BITMAP
0e
08
18
18
3c
5c
56
34
18
10
10
e0
ENDCHAR
STARTCHAR ClckwContInteg
ENCODING 37
SWIDTH 329 0
DWIDTH 4 0
BBX 7 12 0 -1
BITMAP
0e
08
18
18
3c
5c
f4
54
38
10
10
e0
ENDCHAR
STARTCHAR SquareContInteg
ENCODING 38
SWIDTH 323 0
DWIDTH 4 0
BBX 7 12 0 -1
BITMAP
0e
08
18
18
7c
5c
54
54
7c
10
10
e0
ENDCHAR
STARTCHAR Intersection
ENCODING 39
SWIDTH 694 0
DWIDTH 9 0
BBX 7 8 1 0
BITMAP
38
6c
c6
82
82
82
82
82
ENDCHAR
STARTCHAR Union
ENCODING 40
SWIDTH 694 0
DWIDTH 9 0
BBX 7 8 1 0
BITMAP
82
82
82
82
82
82
c6
7c
ENDCHAR
STARTCHAR UnionPlus
ENCODING 41
SWIDTH 654 0
DWIDTH 9 0
BBX 7 8 1 0
BITMAP
82
82
92
92
fe
92
d6
7c
ENDCHAR
STARTCHAR SquareIntersection
ENCODING 42
SWIDTH 694 0
DWIDTH 9 0
BBX 7 7 1 0
BITMAP
fe
82
82
82
82
82
82
ENDCHAR
STARTCHAR SquareUnion
ENCODING 43
SWIDTH 694 0
DWIDTH 9 0
BBX 7 7 1 0
BITMAP
82
82
82
82
82
82
fe
ENDCHAR
STARTCHAR Wedge
ENCODING 44
SWIDTH 704 0
DWIDTH 9 0
BBX 7 7 1 0
BITMAP
10
28
28
6c
44
44
82
ENDCHAR
STARTCHAR SmallWedge
ENCODING 45
SWIDTH 660 0
DWIDTH 9 0
BBX 7 5 1 1
BITMAP
10
28
6c
44
82
ENDCHAR
STARTCHAR Vee
ENCODING 46
SWIDTH 704 0
DWIDTH 9 0
BBX 7 7 1 0
BITMAP
82
44
44
6c
28
28
10
ENDCHAR
STARTCHAR SmallVee
ENCODING 47
SWIDTH 660 0
DWIDTH 9 0
BBX 7 5 1 1
BITMAP
82
44
6c
28
10
ENDCHAR
STARTCHAR LTriangle
ENCODING 48
SWIDTH 681 0
DWIDTH 9 0
BBX 7 7 1 0
BITMAP
02
0e
32
c2
32
0e
02
ENDCHAR
STARTCHAR LTriangleEqual
ENCODING 49
SWIDTH 676 0
DWIDTH 9 0
BBX 7 7 1 0
BITMAP
06
3e
c2
3e
06
00
fe
ENDCHAR
STARTCHAR LTriangleBar
ENCODING 50
SWIDTH 838 0
DWIDTH 11 0
BBX 9 7 1 0
BITMAP
0280
0e80
3280
c280
3280
0e80
0280
ENDCHAR
STARTCHAR NotLTriangle
ENCODING 51
SWIDTH 681 0
DWIDTH 9 0
BBX 7 9 1 -1
BITMAP
04
0a
0e
3a
da
32
1e
32
20
ENDCHAR
STARTCHAR NotLTriangleEqual
ENCODING 52
SWIDTH 677 0
DWIDTH 9 0
BBX 7 10 1 -2
BITMAP
04
06
3e
ca
3e
16
10
fe
20
20
ENDCHAR
STARTCHAR NotLTriangleBar
ENCODING 53
SWIDTH 838 0
DWIDTH 11 0
BBX 9 10 1 -1
BITMAP
0200
0580
0680
1e80
6680
ea80
1e80
0e80
0a80
1800
ENDCHAR
STARTCHAR Bar
ENCODING 54
SWIDTH 240 0
DWIDTH 3 0
BBX 1 9 1 0
BITMAP
80
80
80
80
80
80
80
80
80
ENDCHAR
STARTCHAR Parallel
ENCODING 55
SWIDTH 478 0
DWIDTH 6 0
BBX 4 9 1 0
BITMAP
90
90
90
90
90
90
90
90
90
ENDCHAR
STARTCHAR TrplBar
ENCODING 56
SWIDTH 722 0
DWIDTH 9 0
BBX 7 9 1 0
BITMAP
92
92
92
92
92
92
92
92
92
ENDCHAR
STARTCHAR ShortBar
ENCODING 57
SWIDTH 240 0
DWIDTH 3 0
BBX 1 6 1 0
BITMAP
80
80
80
80
80
80
ENDCHAR
STARTCHAR ShortParallelBar
ENCODING 58
SWIDTH 478 0
DWIDTH 6 0
BBX 4 6 1 0
BITMAP
90
90
90
90
90
90
ENDCHAR
STARTCHAR BarExt
ENCODING 59
SWIDTH 240 0
DWIDTH 3 0
BBX 1 3 1 0
BITMAP
80
80
80
ENDCHAR
STARTCHAR Tangental
ENCODING 60
SWIDTH 574 0
DWIDTH 7 0
BBX 7 9 0 0
BITMAP
12
36
24
24
6c
48
48
d8
90
ENDCHAR
STARTCHAR NotTildeFullEqual
ENCODING 61
SWIDTH 675 0
DWIDTH 9 0
BBX 7 9 1 -2
BITMAP
68
fa
1c
10
fe
10
20
fe
20
ENDCHAR
STARTCHAR TildeEqual
ENCODING 62
SWIDTH 675 0
DWIDTH 9 0
BBX 7 5 1 1
BITMAP
62
f2
0c
00
fe
ENDCHAR
STARTCHAR EqualTilde
ENCODING 63
SWIDTH 675 0
DWIDTH 9 0
BBX 7 5 1 0
BITMAP
fe
00
62
f2
0c
ENDCHAR
STARTCHAR RTriangle
ENCODING 64
SWIDTH 681 0
DWIDTH 9 0
BBX 7 7 1 0
BITMAP
80
e0
98
86
98
e0
80
ENDCHAR
STARTCHAR RTriangleEqual
ENCODING 65
SWIDTH 676 0
DWIDTH 9 0
BBX 7 7 1 0
BITMAP
c0
f8
86
f8
c0
00
fe
ENDCHAR
STARTCHAR RTriangleBar
ENCODING 66
SWIDTH 838 0
DWIDTH 11 0
BBX 9 7 1 0
BITMAP
a000
b800
a600
a180
a600
b800
a000
ENDCHAR
STARTCHAR NotRTriangle
ENCODING 67
SWIDTH 681 0
DWIDTH 9 0
BBX 7 9 1 -1
BITMAP
08
98
f0
98
b6
b8
e0
a0
40
ENDCHAR
STARTCHAR NotRTriangleEqual
ENCODING 68
SWIDTH 676 0
DWIDTH 9 0
BBX 7 10 1 -2
BITMAP
08
c8
f8
96
f8
e0
20
fe
60
40
ENDCHAR
STARTCHAR NotRTriangleBar
ENCODING 69
SWIDTH 838 0
DWIDTH 11 0
BBX 9 10 0 -2
BITMAP
0400
a400
b800
ae00
a980
b600
b800
b000
2000
2000
ENDCHAR
STARTCHAR NotBar
ENCODING 70
SWIDTH 531 0
DWIDTH 7 0
BBX 5 9 1 0
BITMAP
20
20
28
30
20
60
a0
20
20
ENDCHAR
STARTCHAR NotParallelBar
ENCODING 71
SWIDTH 753 0
DWIDTH 10 0
BBX 8 9 1 0
BITMAP
24
27
26
2c
3c
34
64
e4
24
ENDCHAR
STARTCHAR NotTrplBar
ENCODING 72
SWIDTH 806 0
DWIDTH 10 0
BBX 9 9 1 0
BITMAP
c980
c900
cb00
cd00
c900
d900
e900
c900
c900
ENDCHAR
STARTCHAR ShortNotBar
ENCODING 73
SWIDTH 511 0
DWIDTH 7 0
BBX 5 6 1 0
BITMAP
20
28
30
60
a0
20
ENDCHAR
STARTCHAR ShortNotParallelBar
ENCODING 74
SWIDTH 598 0
DWIDTH 8 0
BBX 7 6 0 0
BITMAP
26
2c
3c
34
64
e4
ENDCHAR
STARTCHAR ParallelExt
ENCODING 75
SWIDTH 478 0
DWIDTH 6 0
BBX 4 2 1 0
BITMAP
90
90
ENDCHAR
STARTCHAR NotTilde
ENCODING 76
SWIDTH 667 0
DWIDTH 9 0
BBX 7 6 1 0
BITMAP
08
72
f2
1c
30
20
ENDCHAR
STARTCHAR NotTildeTilde
ENCODING 77
SWIDTH 667 0
DWIDTH 9 0
BBX 7 9 1 -2
BITMAP
08
6a
ba
1c
72
b2
1c
20
20
ENDCHAR
STARTCHAR NotTildeEqual
ENCODING 78
SWIDTH 675 0
DWIDTH 9 0
BBX 7 8 1 -1
BITMAP
08
6a
fa
1c
10
fe
30
20
ENDCHAR
STARTCHAR NotEqualTilde
ENCODING 79
SWIDTH 675 0
DWIDTH 9 0
BBX 7 8 1 -1
BITMAP
08
08
fe
10
72
f2
3c
20
ENDCHAR
STARTCHAR HumpEqual
ENCODING 80
SWIDTH 677 0
DWIDTH 9 0
BBX 7 5 1 1
BITMAP
38
ee
00
00
fe
ENDCHAR
STARTCHAR HumpDownHump
ENCODING 81
SWIDTH 677 0
DWIDTH 9 0
BBX 7 6 1 0
BITMAP
38
ee
00
00
ee
38
ENDCHAR
STARTCHAR NotHumpEqual
ENCODING 82
SWIDTH 677 0
DWIDTH 9 0
BBX 7 9 1 -1
BITMAP
08
18
38
fe
10
30
fe
20
20
ENDCHAR
STARTCHAR NotHumpDownHump
ENCODING 83
SWIDTH 677 0
DWIDTH 9 0
BBX 7 10 1 -2
BITMAP
08
08
38
fe
10
10
fe
38
20
20
ENDCHAR
STARTCHAR NotCongruent
ENCODING 84
SWIDTH 677 0
DWIDTH 9 0
BBX 7 10 1 -2
BITMAP
04
04
fe
08
fe
10
10
fe
20
20
ENDCHAR
STARTCHAR DotEqual
ENCODING 85
SWIDTH 677 0
DWIDTH 9 0
BBX 7 8 1 1
BITMAP
10
10
00
00
fe
00
00
fe
ENDCHAR
STARTCHAR RoundImplies
ENCODING 86
SWIDTH 657 0
DWIDTH 9 0
BBX 7 4 1 1
BITMAP
fc
02
02
fc
ENDCHAR
STARTCHAR Equal
ENCODING 87
SWIDTH 448 0
DWIDTH 6 0
BBX 4 4 1 1
BITMAP
f0
00
00
f0
ENDCHAR
STARTCHAR TrplEqual
ENCODING 88
SWIDTH 1078 0
DWIDTH 14 0
BBX 14 4 1 1
BITMAP
f7bc
0000
0000
f7bc
ENDCHAR
STARTCHAR FrownEqual
ENCODING 89
SWIDTH 690 0
DWIDTH 9 0
BBX 7 5 1 1
BITMAP
38
44
82
00
fe
ENDCHAR
STARTCHAR SmileEqual
ENCODING 90
SWIDTH 690 0
DWIDTH 9 0
BBX 7 4 1 1
BITMAP
fe
00
82
7c
ENDCHAR
STARTCHAR Frown
ENCODING 91
SWIDTH 690 0
DWIDTH 9 0
BBX 7 2 1 2
BITMAP
7c
82
ENDCHAR
STARTCHAR Smile
ENCODING 92
SWIDTH 690 0
DWIDTH 9 0
BBX 7 2 1 2
BITMAP
82
7c
ENDCHAR
STARTCHAR FrownSmile
ENCODING 93
SWIDTH 690 0
DWIDTH 9 0
BBX 7 7 1 0
BITMAP
10
7c
82
00
00
c6
38
ENDCHAR
STARTCHAR SmileFrown
ENCODING 94
SWIDTH 690 0
DWIDTH 9 0
BBX 7 6 1 0
BITMAP
82
7c
00
38
7c
82
ENDCHAR
STARTCHAR NotSmileFrown
ENCODING 95
SWIDTH 690 0
DWIDTH 9 0
BBX 7 9 1 -1
BITMAP
08
08
9a
7c
10
38
7c
a2
20
ENDCHAR
STARTCHAR LessLess
ENCODING 96
SWIDTH 1071 0
DWIDTH 14 0
BBX 12 7 1 0
BITMAP
0210
0c60
3180
c600
3180
0c60
0210
ENDCHAR
STARTCHAR DblLess
ENCODING 97
SWIDTH 839 0
DWIDTH 11 0
BBX 9 9 1 -1
BITMAP
0080
0300
1c80
6300
8400
6300
1c80
0300
0080
ENDCHAR
STARTCHAR LessSlantEqual
ENCODING 98
SWIDTH 676 0
DWIDTH 9 0
BBX 7 8 1 -1
BITMAP
06
3c
c0
3c
06
e0
1c
02
ENDCHAR
STARTCHAR LessFullEqual
ENCODING 99
SWIDTH 677 0
DWIDTH 9 0
BBX 7 10 1 -2
BITMAP
06
3c
c0
3c
06
00
fe
00
00
fe
ENDCHAR
STARTCHAR LessTilde
ENCODING 100
SWIDTH 676 0
DWIDTH 9 0
BBX 7 8 1 -1
BITMAP
06
3c
e0
78
0e
02
f2
1c
ENDCHAR
STARTCHAR NotLess
ENCODING 101
SWIDTH 681 0
DWIDTH 9 0
BBX 7 9 1 -1
BITMAP
04
0e
0c
38
d8
30
1c
32
20
ENDCHAR
STARTCHAR NotLessLess
ENCODING 102
SWIDTH 1071 0
DWIDTH 14 0
BBX 12 10 1 -2
BITMAP
0100
0310
0e70
3380
c600
7780
1ce0
0630
0c00
0800
ENDCHAR
STARTCHAR NotDblLess
ENCODING 103
SWIDTH 839 0
DWIDTH 11 0
BBX 9 10 1 -2
BITMAP
0280
0300
0c80
7f00
8400
7b00
1c80
0b00
1080
1000
ENDCHAR
STARTCHAR NotLessEqual
ENCODING 104
SWIDTH 677 0
DWIDTH 9 0
BBX 7 10 1 -2
BITMAP
04
06
3c
c8
3c
16
10
fe
20
20
ENDCHAR
STARTCHAR NotLessSlantEqual
ENCODING 105
SWIDTH 676 0
DWIDTH 9 0
BBX 7 10 1 -2
BITMAP
04
0e
3c
c8
3c
16
d0
3c
26
20
ENDCHAR
STARTCHAR NotLessFullEqual
ENCODING 106
SWIDTH 677 0
DWIDTH 9 0
BBX 7 12 1 -3
BITMAP
04
0e
3c
c8
3c
16
10
fe
20
20
fe
40
ENDCHAR
STARTCHAR NotLessTilde
ENCODING 107
SWIDTH 676 0
DWIDTH 9 0
BBX 7 10 1 -2
BITMAP
08
0e
3c
e8
78
1e
32
f2
3c
20
ENDCHAR
STARTCHAR SquareSubset
ENCODING 108
SWIDTH 673 0
DWIDTH 9 0
BBX 7 7 1 -1
BITMAP
fe
80
80
80
80
80
fe
ENDCHAR
STARTCHAR SquareSubsetEqual
ENCODING 109
SWIDTH 673 0
DWIDTH 9 0
BBX 7 9 1 -2
BITMAP
fe
80
80
80
80
80
fe
00
fe
ENDCHAR
STARTCHAR NotSquareSubset
ENCODING 110
SWIDTH 673 0
DWIDTH 9 0
BBX 7 10 1 -2
BITMAP
08
fe
90
90
90
a0
a0
fe
40
40
ENDCHAR
STARTCHAR NotSqrSubsetEqual
ENCODING 111
SWIDTH 673 0
DWIDTH 9 0
BBX 7 12 1 -3
BITMAP
08
08
fe
90
90
90
a0
a0
fe
20
fe
40
ENDCHAR
STARTCHAR GrtrGrtr
ENCODING 112
SWIDTH 1071 0
DWIDTH 14 0
BBX 12 7 1 0
BITMAP
8400
6300
18c0
0630
18c0
6300
8400
ENDCHAR
STARTCHAR DblGrtr
ENCODING 113
SWIDTH 839 0
DWIDTH 11 0
BBX 9 9 1 -1
BITMAP
8000
6000
9c00
6300
1080
6300
9c00
6000
8000
ENDCHAR
STARTCHAR GrtrSlantEqual
ENCODING 114
SWIDTH 676 0
DWIDTH 9 0
BBX 7 8 1 -1
BITMAP
c0
38
06
78
c0
0e
78
c0
ENDCHAR
STARTCHAR GrtrFullEqual
ENCODING 115
SWIDTH 677 0
DWIDTH 9 0
BBX 7 10 1 -2
BITMAP
c0
38
06
38
c0
00
fe
00
00
fe
ENDCHAR
STARTCHAR GrtrTilde
ENCODING 116
SWIDTH 676 0
DWIDTH 9 0
BBX 7 7 1 0
BITMAP
c0
38
06
38
c0
f2
9c
ENDCHAR
STARTCHAR NotGrtr
ENCODING 117
SWIDTH 681 0
DWIDTH 9 0
BBX 7 9 1 -1
BITMAP
08
88
70
18
16
18
70
a0
20
ENDCHAR
STARTCHAR NotGrtrGrtr
ENCODING 118
SWIDTH 1071 0
DWIDTH 14 0
BBX 12 10 1 -2
BITMAP
0100
8700
e700
3ac0
0630
1ce0
7780
c600
0c00
0800
ENDCHAR
STARTCHAR NotDblGrtr
ENCODING 119
SWIDTH 839 0
DWIDTH 11 0
BBX 9 10 1 -2
BITMAP
0400
e400
3c00
cf00
7980
ef00
9c00
f000
9000
1000
ENDCHAR
STARTCHAR NotGrtrEqual
ENCODING 120
SWIDTH 677 0
DWIDTH 9 0
BBX 7 10 1 -2
BITMAP
08
c8
78
16
78
e0
20
fe
40
40
ENDCHAR
STARTCHAR NotGrtrSlantEqual
ENCODING 121
SWIDTH 676 0
DWIDTH 9 0
BBX 7 10 1 -2
BITMAP
08
c8
78
16
78
e0
26
78
c0
40
ENDCHAR
STARTCHAR NotGrtrFullEqual
ENCODING 122
SWIDTH 677 0
DWIDTH 9 0
BBX 7 12 1 -3
BITMAP
08
c8
78
16
78
d0
20
fe
20
20
fe
40
ENDCHAR
STARTCHAR NotGrtrTilde
ENCODING 123
SWIDTH 676 0
DWIDTH 9 0
BBX 7 10 1 -2
BITMAP
08
d8
78
1e
3c
f0
a0
f2
3c
40
ENDCHAR
STARTCHAR SquareSprset
ENCODING 124
SWIDTH 676 0
DWIDTH 9 0
BBX 7 7 1 -1
BITMAP
fe
02
02
02
02
02
fe
ENDCHAR
STARTCHAR SquareSprsetEqual
ENCODING 125
SWIDTH 673 0
DWIDTH 9 0
BBX 7 9 1 -2
BITMAP
fe
02
02
02
02
02
fe
00
fe
ENDCHAR
STARTCHAR NotSquareSprset
ENCODING 126
SWIDTH 673 0
DWIDTH 9 0
BBX 7 10 1 -2
BITMAP
08
08
fe
90
90
90
a0
fe
fe
60
ENDCHAR
STARTCHAR DEL
ENCODING 127
SWIDTH 189 0
DWIDTH 2 0
BBX 0 0 0 0
BITMAP
ENDCHAR
STARTCHAR Prcds
ENCODING 128
SWIDTH 678 0
DWIDTH 9 0
BBX 7 8 1 -1
BITMAP
02
06
1c
e0
38
0c
02
02
ENDCHAR
STARTCHAR PrcdsEqual
ENCODING 129
SWIDTH 678 0
DWIDTH 9 0
BBX 7 8 1 0
BITMAP
02
06
3c
f8
0e
02
02
fe
ENDCHAR
STARTCHAR PrcdsSlantEqual
ENCODING 130
SWIDTH 678 0
DWIDTH 9 0
BBX 7 8 1 -1
BITMAP
06
1c
f0
1c
82
f8
0c
02
ENDCHAR
STARTCHAR PrcdsTilde
ENCODING 131
SWIDTH 665 0
DWIDTH 9 0
BBX 7 9 1 -1
BITMAP
02
06
1c
f0
1c
06
02
f2
1c
ENDCHAR
STARTCHAR NotPrcds
ENCODING 132
SWIDTH 678 0
DWIDTH 9 0
BBX 7 9 1 -1
BITMAP
08
0a
1e
1c
f0
38
3e
26
20
ENDCHAR
STARTCHAR NotPrcdsEqual
ENCODING 133
SWIDTH 678 0
DWIDTH 9 0
BBX 7 11 1 -2
BITMAP
08
0a
0e
3c
f8
1e
12
22
fe
20
60
ENDCHAR
STARTCHAR NotPrcdsSlantEqual
ENCODING 134
SWIDTH 678 0
DWIDTH 9 0
BBX 7 11 1 -2
BITMAP
08
08
0e
1c
f0
1c
92
f8
2c
22
60
ENDCHAR
STARTCHAR NotPrcdsTilde
ENCODING 135
SWIDTH 665 0
DWIDTH 9 0
BBX 7 11 1 -2
BITMAP
08
0a
0e
1c
f0
1c
16
22
f2
3c
60
ENDCHAR
STARTCHAR LessGrtr
ENCODING 136
SWIDTH 682 0
DWIDTH 9 0
BBX 7 9 1 -1
BITMAP
0e
38
c0
38
c6
78
0e
3c
e0
ENDCHAR
STARTCHAR NotLessGrtr
ENCODING 137
SWIDTH 682 0
DWIDTH 9 0
BBX 7 12 1 -3
BITMAP
08
0e
38
d8
38
d6
78
3e
3c
e0
20
60
ENDCHAR
STARTCHAR LessEqualGrtr
ENCODING 138
SWIDTH 676 0
DWIDTH 9 0
BBX 7 13 1 -3
BITMAP
06
38
c0
38
0e
00
fe
00
c0
70
0e
1c
e0
ENDCHAR
STARTCHAR Because
ENCODING 139
SWIDTH 629 0
DWIDTH 8 0
BBX 6 7 1 0
BITMAP
84
c4
00
00
00
30
30
ENDCHAR
STARTCHAR NotSqrSprsetEqual
ENCODING 140
SWIDTH 673 0
DWIDTH 9 0
BBX 7 12 1 -3
BITMAP
08
08
fe
1a
12
12
12
fe
fe
20
fe
40
ENDCHAR
STARTCHAR NotSubsetEqual
ENCODING 141
SWIDTH 697 0
DWIDTH 9 0
BBX 7 12 1 -3
BITMAP
04
08
7e
c8
88
90
90
7e
3e
20
fe
20
ENDCHAR
STARTCHAR NotSprset
ENCODING 142
SWIDTH 697 0
DWIDTH 9 0
BBX 7 10 1 -2
BITMAP
08
08
fc
0e
12
12
12
fc
f8
20
ENDCHAR
STARTCHAR NotSprsetEqual
ENCODING 143
SWIDTH 697 0
DWIDTH 9 0
BBX 7 12 1 -3
BITMAP
04
08
fc
0e
1a
12
12
fc
f8
20
fe
20
ENDCHAR
STARTCHAR Succds
ENCODING 144
SWIDTH 678 0
DWIDTH 9 0
BBX 7 7 1 0
BITMAP
80
c0
70
1e
38
e0
80
ENDCHAR
STARTCHAR SuccdsEqual
ENCODING 145
SWIDTH 678 0
DWIDTH 9 0
BBX 7 7 1 0
BITMAP
c0
78
3e
e0
80
80
fe
ENDCHAR
STARTCHAR SuccdsSlantEqual
ENCODING 146
SWIDTH 678 0
DWIDTH 9 0
BBX 7 8 1 -1
BITMAP
c0
70
3e
e0
86
be
e0
80
ENDCHAR
STARTCHAR SuccdsTilde
ENCODING 147
SWIDTH 678 0
DWIDTH 9 0
BBX 7 8 1 -1
BITMAP
c0
70
1e
e0
80
80
f2
1c
ENDCHAR
STARTCHAR NotSuccds
ENCODING 148
SWIDTH 678 0
DWIDTH 9 0
BBX 7 9 1 -1
BITMAP
08
88
d8
70
1e
38
f0
a0
20
ENDCHAR
STARTCHAR NotSuccdsEqual
ENCODING 149
SWIDTH 678 0
DWIDTH 9 0
BBX 7 11 1 -2
BITMAP
08
08
c8
78
3e
f0
90
a0
fe
20
60
ENDCHAR
STARTCHAR NotSuccdsSlantEqual
ENCODING 150
SWIDTH 678 0
DWIDTH 9 0
BBX 7 11 1 -2
BITMAP
08
08
c8
78
3e
f0
92
be
e0
a0
20
ENDCHAR
STARTCHAR NotSuccdsTilde
ENCODING 151
SWIDTH 678 0
DWIDTH 9 0
BBX 7 11 1 -2
BITMAP
08
08
c8
78
1e
f0
90
b0
f2
3c
20
ENDCHAR
STARTCHAR GrtrLess
ENCODING 152
SWIDTH 682 0
DWIDTH 9 0
BBX 7 9 1 -1
BITMAP
e0
38
0e
38
c6
3c
e0
70
0e
ENDCHAR
STARTCHAR NotGrtrLess
ENCODING 153
SWIDTH 682 0
DWIDTH 9 0
BBX 7 12 1 -3
BITMAP
08
e8
38
1e
38
d6
3c
e0
78
2e
20
40
ENDCHAR
STARTCHAR GrtrEqualLess
ENCODING 154
SWIDTH 676 0
DWIDTH 9 0
BBX 7 14 1 -4
BITMAP
c0
38
0e
38
c0
00
fe
00
06
1c
e0
70
0e
02
ENDCHAR
STARTCHAR Proportion
ENCODING 155
SWIDTH 629 0
DWIDTH 8 0
BBX 6 7 1 0
BITMAP
04
cc
00
00
00
84
c4
ENDCHAR
STARTCHAR Member
ENCODING 156
SWIDTH 697 0
DWIDTH 9 0
BBX 7 7 1 -1
BITMAP
fc
06
fe
fe
02
fc
f8
ENDCHAR
STARTCHAR NotMember
ENCODING 157
SWIDTH 697 0
DWIDTH 9 0
BBX 7 10 1 -2
BITMAP
08
08
fc
16
fe
fe
32
fc
f8
20
ENDCHAR
STARTCHAR CircleMinus
ENCODING 158
SWIDTH 835 0
DWIDTH 11 0
BBX 9 9 1 -1
BITMAP
3e00
6300
c180
8080
ff80
8080
c180
6300
3e00
ENDCHAR
STARTCHAR CircleDot
ENCODING 159
SWIDTH 835 0
DWIDTH 11 0
BBX 9 9 1 -1
BITMAP
3e00
6300
c180
8c80
8c80
8080
c180
6300
3e00
ENDCHAR
STARTCHAR EqualParallel
ENCODING 160
SWIDTH 765 0
DWIDTH 10 0
BBX 8 8 1 -1
BITMAP
24
24
ff
24
24
ff
24
24
ENDCHAR
STARTCHAR MinusPlus
ENCODING 161
SWIDTH 683 0
DWIDTH 9 0
BBX 7 8 1 -1
BITMAP
fe
00
10
10
10
fe
10
10
ENDCHAR
STARTCHAR RTack
ENCODING 162
SWIDTH 487 0
DWIDTH 6 0
BBX 5 7 1 0
BITMAP
80
80
80
f8
80
80
80
ENDCHAR
STARTCHAR DblRTack
ENCODING 163
SWIDTH 487 0
DWIDTH 6 0
BBX 5 8 1 -1
BITMAP
80
80
f8
80
80
f8
80
80
ENDCHAR
STARTCHAR LTack
ENCODING 164
SWIDTH 487 0
DWIDTH 6 0
BBX 5 7 1 0
BITMAP
08
08
08
f8
08
08
08
ENDCHAR
STARTCHAR DblLTack
ENCODING 165
SWIDTH 487 0
DWIDTH 6 0
BBX 5 8 1 -1
BITMAP
08
08
f8
08
08
f8
08
08
ENDCHAR
STARTCHAR UpTee
ENCODING 166
SWIDTH 680 0
DWIDTH 9 0
BBX 7 5 1 1
BITMAP
10
10
10
10
fe
ENDCHAR
STARTCHAR DownTee
ENCODING 167
SWIDTH 680 0
DWIDTH 9 0
BBX 7 5 1 1
BITMAP
fe
10
10
10
10
ENDCHAR
STARTCHAR DownTeeLong
ENCODING 168
SWIDTH 752 0
DWIDTH 10 0
BBX 7 7 1 0
BITMAP
fe
10
10
10
10
10
10
ENDCHAR
STARTCHAR Between
ENCODING 169
SWIDTH 450 0
DWIDTH 6 0
BBX 4 11 1 -2
BITMAP
90
60
60
f0
b0
90
90
b0
e0
60
60
ENDCHAR
STARTCHAR VertTilde
ENCODING 170
SWIDTH 305 0
DWIDTH 4 0
BBX 2 7 1 0
BITMAP
40
40
40
c0
80
80
c0
ENDCHAR
STARTCHAR HorizHourglass
ENCODING 171
SWIDTH 600 0
DWIDTH 8 0
BBX 7 5 0 1
BITMAP
82
ee
92
ee
82
ENDCHAR
STARTCHAR RightAngle
ENCODING 172
SWIDTH 505 0
DWIDTH 7 0
BBX 5 7 1 0
BITMAP
80
80
80
80
e0
a0
f8
ENDCHAR
STARTCHAR MeasuredAngle
ENCODING 173
SWIDTH 512 0
DWIDTH 7 0
BBX 5 7 1 0
BITMAP
20
20
40
40
60
90
f8
ENDCHAR
STARTCHAR SphericalAngle
ENCODING 174
SWIDTH 555 0
DWIDTH 7 0
BBX 5 7 1 -1
BITMAP
08
10
70
90
50
30
08
ENDCHAR
STARTCHAR Diameter
ENCODING 175
SWIDTH 737 0
DWIDTH 10 0
BBX 8 8 1 0
BITMAP
10
7e
c6
89
91
b3
e2
fc
ENDCHAR
STARTCHAR Mho
ENCODING 176
SWIDTH 748 0
DWIDTH 10 0
BBX 9 9 0 0
BITMAP
f380
f380
2100
6100
6180
6180
6180
2100
1e00
ENDCHAR
STARTCHAR NotExists
ENCODING 177
SWIDTH 627 0
DWIDTH 8 0
BBX 7 12 1 -2
BITMAP
08
fe
1e
16
16
7e
26
26
26
fe
40
40
ENDCHAR
STARTCHAR CapDigamma
ENCODING 178
SWIDTH 589 0
DWIDTH 8 0
BBX 7 9 0 0
BITMAP
fe
60
60
60
7c
60
60
60
60
ENDCHAR
STARTCHAR CapStigma
ENCODING 179
SWIDTH 670 0
DWIDTH 9 0
BBX 8 11 0 -2
BITMAP
0f
1f
20
40
40
c0
c0
70
3c
0c
18
ENDCHAR
STARTCHAR CapKoppa
ENCODING 180
SWIDTH 637 0
DWIDTH 8 0
BBX 8 9 0 0
BITMAP
3c
42
c3
c3
db
5a
3c
18
18
ENDCHAR
STARTCHAR CapSampi
ENCODING 181
SWIDTH 718 0
DWIDTH 9 0
BBX 8 9 1 0
BITMAP
38
c6
82
07
0f
1b
33
66
fc
ENDCHAR
STARTCHAR CurlyEpsilon
ENCODING 182
SWIDTH 513 0
DWIDTH 7 0
BBX 7 6 0 0
BITMAP
3c
66
20
70
c4
78
ENDCHAR
STARTCHAR FinalSigma
ENCODING 183
SWIDTH 539 0
DWIDTH 7 0
BBX 7 9 0 -3
BITMAP
1c
66
46
c4
c4
e8
90
f0
08
ENDCHAR
STARTCHAR Digamma
ENCODING 184
SWIDTH 490 0
DWIDTH 6 0
BBX 6 9 0 -3
BITMAP
1c
20
78
40
40
c0
c0
80
80
ENDCHAR
STARTCHAR Stigma
ENCODING 185
SWIDTH 568 0
DWIDTH 7 0
BBX 7 8 0 -2
BITMAP
3e
7e
80
c0
70
38
0c
18
ENDCHAR
STARTCHAR Koppa
ENCODING 186
SWIDTH 495 0
DWIDTH 6 0
BBX 6 7 0 -1
BITMAP
38
44
c4
cc
58
20
20
ENDCHAR
STARTCHAR Sampi
ENCODING 187
SWIDTH 440 0
DWIDTH 6 0
BBX 5 6 0 0
BITMAP
70
98
78
a8
50
20
ENDCHAR
STARTCHAR Bet
ENCODING 188
SWIDTH 651 0
DWIDTH 8 0
BBX 8 9 0 0
BITMAP
7f
7f
02
02
02
02
01
7f
ff
ENDCHAR
STARTCHAR Gimel
ENCODING 189
SWIDTH 329 0
DWIDTH 4 0
BBX 4 9 0 0
BITMAP
70
70
10
10
10
10
10
70
e0
ENDCHAR
STARTCHAR Dalet
ENCODING 190
SWIDTH 549 0
DWIDTH 7 0
BBX 7 8 0 1
BITMAP
fc
fe
04
04
04
04
02
02
ENDCHAR
STARTCHAR Aleph
ENCODING 191
SWIDTH 504 0
DWIDTH 7 0
BBX 6 6 0 0
BITMAP
24
38
10
10
30
d8
ENDCHAR
STARTCHAR CapYAcute
ENCODING 192
SWIDTH 754 0
DWIDTH 10 0
BBX 10 11 0 0
BITMAP
0200
0400
f9c0
2100
3100
1a00
0c00
0c00
0c00
0c00
0c00
ENDCHAR
STARTCHAR YAcute
ENCODING 193
SWIDTH 552 0
DWIDTH 7 0
BBX 6 12 1 -3
BITMAP
08
10
00
cc
c8
48
70
30
20
20
a0
c0
ENDCHAR
STARTCHAR CapEth
ENCODING 194
SWIDTH 762 0
DWIDTH 10 0
BBX 9 9 0 0
BITMAP
f800
6700
6180
6180
f080
6080
6180
6100
7e00
ENDCHAR
STARTCHAR Eth
ENCODING 195
SWIDTH 539 0
DWIDTH 7 0
BBX 7 9 0 0
BITMAP
60
38
58
2c
44
c6
c6
44
38
ENDCHAR
STARTCHAR CapThorn
ENCODING 196
SWIDTH 596 0
DWIDTH 8 0
BBX 8 9 0 0
BITMAP
f0
60
7e
62
63
66
7c
60
60
ENDCHAR
STARTCHAR Thorn
ENCODING 197
SWIDTH 541 0
DWIDTH 7 0
BBX 6 12 1 -3
BITMAP
c0
c0
c0
f8
c8
cc
cc
c8
d8
e0
c0
c0
ENDCHAR
STARTCHAR CapLSlash
ENCODING 198
SWIDTH 643 0
DWIDTH 8 0
BBX 7 9 1 0
BITMAP
e0
60
70
60
60
60
e0
62
fe
ENDCHAR
STARTCHAR LSlash
ENCODING 199
SWIDTH 397 0
DWIDTH 5 0
BBX 5 9 0 0
BITMAP
20
20
28
30
20
60
a0
20
30
ENDCHAR
STARTCHAR DownQuestion
ENCODING 200
SWIDTH 466 0
DWIDTH 6 0
BBX 4 9 1 -3
BITMAP
60
40
40
40
40
80
90
90
60
ENDCHAR
STARTCHAR Cent
ENCODING 201
SWIDTH 500 0
DWIDTH 7 0
BBX 6 8 0 -1
BITMAP
10
2c
44
c0
c0
44
78
10
ENDCHAR
STARTCHAR Nbspace
ENCODING 202
SWIDTH 189 0
DWIDTH 2 0
BBX 0 0 0 0
BITMAP
ENDCHAR
STARTCHAR Sterling
ENCODING 203
SWIDTH 641 0
DWIDTH 8 0
BBX 6 9 1 0
BITMAP
1c
24
20
20
f8
20
20
e4
fc
ENDCHAR
STARTCHAR DownExclamation
ENCODING 204
SWIDTH 333 0
DWIDTH 4 0
BBX 2 9 1 -3
BITMAP
c0
40
00
40
40
c0
c0
c0
c0
ENDCHAR
STARTCHAR Section
ENCODING 205
SWIDTH 496 0
DWIDTH 6 0
BBX 5 11 1 -2
BITMAP
60
b0
d0
60
90
88
c8
70
b0
d0
70
ENDCHAR
STARTCHAR Paragraph
ENCODING 206
SWIDTH 584 0
DWIDTH 8 0
BBX 6 12 1 -3
BITMAP
3c
d4
94
94
d4
74
14
14
14
14
14
14
ENDCHAR
STARTCHAR Yen
ENCODING 207
SWIDTH 645 0
DWIDTH 8 0
BBX 8 9 0 0
BITMAP
f7
62
34
34
7e
18
7e
18
18
ENDCHAR
STARTCHAR Micro
ENCODING 208
SWIDTH 555 0
DWIDTH 7 0
BBX 7 9 0 -3
BITMAP
4c
4c
4c
4c
4c
7e
40
c0
c0
ENDCHAR
STARTCHAR HBar
ENCODING 209
SWIDTH 555 0
DWIDTH 7 0
BBX 6 9 0 0
BITMAP
30
10
38
fc
34
64
6c
4c
4c
ENDCHAR
STARTCHAR DotlessI
ENCODING 210
SWIDTH 291 0
DWIDTH 4 0
BBX 2 6 1 0
BITMAP
c0
c0
c0
c0
c0
c0
ENDCHAR
STARTCHAR ItalDotlessI
ENCODING 211
SWIDTH 268 0
DWIDTH 3 0
BBX 3 6 0 0
BITMAP
60
60
60
40
40
e0
ENDCHAR
STARTCHAR DotlessJ
ENCODING 212
SWIDTH 295 0
DWIDTH 4 0
BBX 4 9 -1 -3
BITMAP
30
10
10
10
10
10
10
f0
60
ENDCHAR
STARTCHAR ItalDotlessJ
ENCODING 213
SWIDTH 410 0
DWIDTH 5 0
BBX 6 9 -1 -3
BITMAP
1c
08
08
18
18
10
10
f0
60
ENDCHAR
STARTCHAR Dagger
ENCODING 214
SWIDTH 581 0
DWIDTH 8 0
BBX 7 10 0 -1
BITMAP
18
10
10
fe
10
18
10
10
10
10
ENDCHAR
STARTCHAR DoubleDagger
ENCODING 215
SWIDTH 513 0
DWIDTH 7 0
BBX 6 11 0 -2
BITMAP
10
10
10
fc
10
30
10
fc
54
10
10
ENDCHAR
STARTCHAR Degree
ENCODING 216
SWIDTH 404 0
DWIDTH 5 0
BBX 4 4 1 5
BITMAP
e0
90
90
e0
ENDCHAR
STARTCHAR Flat
ENCODING 217
SWIDTH 396 0
DWIDTH 5 0
BBX 5 9 0 0
BITMAP
80
80
80
f0
98
98
98
90
e0
ENDCHAR
STARTCHAR Natural
ENCODING 218
SWIDTH 374 0
DWIDTH 5 0
BBX 4 12 0 -3
BITMAP
80
80
90
f0
f0
90
90
90
f0
d0
10
10
ENDCHAR
STARTCHAR Sharp
ENCODING 219
SWIDTH 419 0
DWIDTH 5 0
BBX 5 12 0 -2
BITMAP
10
50
50
78
f0
d0
50
58
78
f0
d0
50
ENDCHAR
STARTCHAR QuestionBox
ENCODING 220
SWIDTH 913 0
DWIDTH 12 0
BBX 10 10 1 0
BITMAP
ffc0
8040
8e40
9240
8440
8c40
8040
8840
8040
ffc0
ENDCHAR
STARTCHAR ErrorIndicator
ENCODING 221
SWIDTH 868 0
DWIDTH 11 0
BBX 10 7 1 0
BITMAP
ffc0
8040
8840
9440
a240
c140
ffc0
ENDCHAR
STARTCHAR Angstrom
ENCODING 222
SWIDTH 609 0
DWIDTH 8 0
BBX 7 9 0 0
BITMAP
38
28
18
18
2c
4c
74
46
86
ENDCHAR
STARTCHAR LamdaSlash
ENCODING 223
SWIDTH 523 0
DWIDTH 7 0
BBX 6 9 0 0
BITMAP
60
10
18
78
18
38
58
48
cc
ENDCHAR
STARTCHAR SolidSquare
ENCODING 224
SWIDTH 714 0
DWIDTH 9 0
BBX 8 7 1 0
BITMAP
ff
ff
ff
ff
ff
ff
ff
ENDCHAR
STARTCHAR Square
ENCODING 225
SWIDTH 714 0
DWIDTH 9 0
BBX 8 7 1 0
BITMAP
ff
81
81
81
81
81
ff
ENDCHAR
STARTCHAR MedSolidSquare
ENCODING 226
SWIDTH 519 0
DWIDTH 7 0
BBX 5 5 1 1
BITMAP
f8
f8
f8
f8
f8
ENDCHAR
STARTCHAR MedEmptySquare
ENCODING 227
SWIDTH 519 0
DWIDTH 7 0
BBX 5 5 1 1
BITMAP
f8
88
88
88
f8
ENDCHAR
STARTCHAR SmallSolidSquare
ENCODING 228
SWIDTH 374 0
DWIDTH 5 0
BBX 3 3 1 3
BITMAP
e0
e0
e0
ENDCHAR
STARTCHAR SmallEmptySquare
ENCODING 229
SWIDTH 374 0
DWIDTH 5 0
BBX 3 3 1 3
BITMAP
e0
a0
e0
ENDCHAR
STARTCHAR SolidCircle
ENCODING 230
SWIDTH 759 0
DWIDTH 10 0
BBX 9 8 1 0
BITMAP
3e00
7f00
ff80
ff80
ff80
ff80
7f00
3e00
ENDCHAR
STARTCHAR Circle
ENCODING 231
SWIDTH 759 0
DWIDTH 10 0
BBX 9 8 1 1
BITMAP
3e00
6300
8080
8080
8080
8080
6300
3e00
ENDCHAR
STARTCHAR Bullet
ENCODING 232
SWIDTH 520 0
DWIDTH 7 0
BBX 6 5 1 1
BITMAP
78
fc
fc
fc
78
ENDCHAR
STARTCHAR SmallCircle
ENCODING 233
SWIDTH 520 0
DWIDTH 7 0
BBX 6 6 1 1
BITMAP
78
cc
84
84
cc
78
ENDCHAR
STARTCHAR Dot
ENCODING 234
SWIDTH 354 0
DWIDTH 5 0
BBX 4 3 0 3
BITMAP
60
f0
60
ENDCHAR
STARTCHAR OpenDot
ENCODING 235
SWIDTH 424 0
DWIDTH 6 0
BBX 4 4 1 2
BITMAP
60
90
90
60
ENDCHAR
STARTCHAR MedSolidDiamond
ENCODING 236
SWIDTH 744 0
DWIDTH 10 0
BBX 9 7 0 0
BITMAP
0800
3e00
7f00
ff80
7f00
3e00
0800
ENDCHAR
STARTCHAR MedEmptyDiamond
ENCODING 237
SWIDTH 624 0
DWIDTH 8 0
BBX 7 7 1 0
BITMAP
10
38
6c
c6
6c
38
10
ENDCHAR
STARTCHAR SmallSolidDiamond
ENCODING 238
SWIDTH 512 0
DWIDTH 7 0
BBX 5 5 1 1
BITMAP
20
70
f8
70
20
ENDCHAR
STARTCHAR SmallEmptyDiamond
ENCODING 239
SWIDTH 512 0
DWIDTH 7 0
BBX 5 5 1 1
BITMAP
20
70
d8
70
20
ENDCHAR
STARTCHAR SolidRectangle
ENCODING 240
SWIDTH 528 0
DWIDTH 7 0
BBX 5 7 1 0
BITMAP
f8
f8
f8
f8
f8
f8
f8
ENDCHAR
STARTCHAR Rectangle
ENCODING 241
SWIDTH 528 0
DWIDTH 7 0
BBX 5 7 1 0
BITMAP
f8
88
88
88
88
88
f8
ENDCHAR
STARTCHAR SolidUpTriangle
ENCODING 242
SWIDTH 699 0
DWIDTH 9 0
BBX 9 7 0 0
BITMAP
0800
0800
1c00
3e00
3e00
7f00
ff80
ENDCHAR
STARTCHAR UpTriangle
ENCODING 243
SWIDTH 699 0
DWIDTH 9 0
BBX 9 7 0 0
BITMAP
0800
0800
1400
2200
2200
4100
ff80
ENDCHAR
STARTCHAR SolidDownTriangle
ENCODING 244
SWIDTH 699 0
DWIDTH 9 0
BBX 9 7 0 0
BITMAP
ff80
7f00
3e00
3e00
1c00
1c00
0800
ENDCHAR
STARTCHAR DownTriangle
ENCODING 245
SWIDTH 699 0
DWIDTH 9 0
BBX 9 7 1 0
BITMAP
ff80
4100
2200
2200
1400
0800
0800
ENDCHAR
STARTCHAR SolidDiamond
ENCODING 246
SWIDTH 500 0
DWIDTH 7 0
BBX 5 9 1 -1
BITMAP
20
20
70
f0
f8
f0
70
20
20
ENDCHAR
STARTCHAR Star6
ENCODING 247
SWIDTH 600 0
DWIDTH 8 0
BBX 7 7 0 0
BITMAP
10
10
fe
7c
fe
10
10
ENDCHAR
STARTCHAR Star
ENCODING 248
SWIDTH 820 0
DWIDTH 11 0
BBX 9 8 1 -1
BITMAP
0800
0800
db80
7e00
1c00
3400
2200
4000
ENDCHAR
STARTCHAR Bullet3
ENCODING 249
SWIDTH 676 0
DWIDTH 9 0
BBX 8 8 0 0
BITMAP
ff
ff
ff
ff
ff
fd
f9
ff
ENDCHAR
STARTCHAR Bullet4
ENCODING 250
SWIDTH 676 0
DWIDTH 9 0
BBX 8 8 0 0
BITMAP
ff
ff
ff
ff
ff
f9
f9
ff
ENDCHAR
STARTCHAR Euler
ENCODING 251
SWIDTH 531 0
DWIDTH 7 0
BBX 6 9 0 0
BITMAP
38
44
40
60
10
60
c0
60
7c
ENDCHAR
STARTCHAR ImagJ
ENCODING 252
SWIDTH 387 0
DWIDTH 5 0
BBX 6 12 -1 -3
BITMAP
08
08
00
3c
18
18
38
38
30
30
70
c0
ENDCHAR
STARTCHAR DoubleGamma
ENCODING 253
SWIDTH 580 0
DWIDTH 8 0
BBX 7 9 0 -3
BITMAP
72
b6
1c
18
18
10
30
70
40
ENDCHAR
STARTCHAR DoublePi
ENCODING 254
SWIDTH 620 0
DWIDTH 8 0
BBX 8 6 0 0
BITMAP
7f
b4
34
34
64
c6
ENDCHAR
STARTCHAR DoubleScriptCapD
ENCODING 255
SWIDTH 855 0
DWIDTH 11 0
BBX 11 9 0 0
BITMAP
0700
78c0
3860
5860
5060
70c0
70c0
b180
fe00
ENDCHAR
ENDFONT
