STARTFONT 2.1
FONT -WRI-Mathematica3-Bold-R-Normal--28-280-75-75-p-170-Adobe-FontSpecific
SIZE 28 75 75
FONTBOUNDINGBOX 32 32 -3 -8
STARTPROPERTIES 16
FOUNDRY "WRI"
FAMILY_NAME "Mathematica3"
WEIGHT_NAME "Bold"
SLANT "R"
SETWIDTH_NAME "Normal"
PIXEL_SIZE 28
POINT_SIZE 280
RESOLUTION_X 75
RESOLUTION_Y 75
SPACING "p"
AVERAGE_WIDTH 170
CHARSET_REGISTRY "Adobe"
CHARSET_ENCODING "FontSpecific"
FONT_DESCENT 8
FONT_ASCENT 24
DEFAULT_CHAR 32
ENDPROPERTIES
CHARS 224
STARTCHAR Space
ENCODING 32
SWIDTH 189 0
DWIDTH 5 0
BBX 0 0 0 0
BITMAP
ENDCHAR
STARTCHAR Integral
ENCODING 33
SWIDTH 323 0
DWIDTH 9 0
BBX 14 26 1 -2
BITMAP
0078
00dc
01cc
0180
0180
0380
0380
0380
0380
0380
0380
0380
0380
0780
0780
0700
0700
0700
0700
0700
0700
0700
0600
ce00
ec00
7800
ENDCHAR
STARTCHAR ContourIntegral
ENCODING 34
SWIDTH 323 0
DWIDTH 9 0
BBX 14 26 1 -2
BITMAP
0078
00dc
01cc
0180
0380
0380
0380
0380
0fc0
1fe0
37b0
7798
6798
6718
6718
3738
3f70
1fe0
0fc0
0700
0700
0600
0600
ce00
ec00
7800
ENDCHAR
STARTCHAR DblContInteg
ENCODING 35
SWIDTH 605 0
DWIDTH 17 0
BBX 22 26 1 -2
BITMAP
007878
00dcdc
01cdcc
018380
018380
038380
038380
038380
07ff80
1fffe0
3b87f0
3387b0
678798
678718
670718
370730
3f0770
1fffe0
07ff80
070700
070600
070600
060600
cecc00
ecec00
787800
ENDCHAR
STARTCHAR CntrClckwContInteg
ENCODING 36
SWIDTH 329 0
DWIDTH 9 0
BBX 14 26 1 -2
BITMAP
0078
00dc
01cc
0180
0380
0380
0380
0380
0fc0
1fe0
37b0
77b0
67b0
6738
675c
3730
3f70
1fe0
0f80
0700
0700
0600
0600
ce00
ec00
7800
ENDCHAR
STARTCHAR ClckwContInteg
ENCODING 37
SWIDTH 329 0
DWIDTH 9 0
BBX 14 26 1 -2
BITMAP
0078
00dc
01cc
0180
0380
0380
0380
0380
0f80
1fe0
33f0
27b0
6798
f798
ff18
2738
3770
1fe0
0f80
0700
0700
0600
0600
ce00
ec00
7800
ENDCHAR
STARTCHAR SquareContInteg
ENCODING 38
SWIDTH 323 0
DWIDTH 9 0
BBX 14 26 1 -2
BITMAP
0078
00dc
01cc
0180
0180
0380
0380
0380
3ff0
3ff0
33b0
33b0
37b0
3730
3730
3730
3730
3ff0
3ff0
0700
0700
0700
0600
c600
ec00
7800
ENDCHAR
STARTCHAR Intersection
ENCODING 39
SWIDTH 694 0
DWIDTH 19 0
BBX 16 17 2 0
BITMAP
03c0
0ff0
1ff8
3c3c
781e
700e
e007
e007
e007
e007
e007
e007
e007
e007
e007
e007
e007
ENDCHAR
STARTCHAR Union
ENCODING 40
SWIDTH 694 0
DWIDTH 19 0
BBX 16 16 2 0
BITMAP
e007
e007
e007
e007
e007
e007
e007
e007
e007
e007
700e
700e
3c3c
3ffc
0ff0
03c0
ENDCHAR
STARTCHAR UnionPlus
ENCODING 41
SWIDTH 654 0
DWIDTH 18 0
BBX 16 16 2 0
BITMAP
e007
e007
e007
e007
e187
e187
e187
e187
ffff
ffff
e187
718e
799e
3ffc
1ff8
07e0
ENDCHAR
STARTCHAR SquareIntersection
ENCODING 42
SWIDTH 694 0
DWIDTH 19 0
BBX 16 16 2 0
BITMAP
ffff
ffff
ffff
e007
e007
e007
e007
e007
e007
e007
e007
e007
e007
e007
e007
e007
ENDCHAR
STARTCHAR SquareUnion
ENCODING 43
SWIDTH 694 0
DWIDTH 19 0
BBX 16 16 2 0
BITMAP
e007
e007
e007
e007
e007
e007
e007
e007
e007
e007
e007
e007
e007
ffff
ffff
ffff
ENDCHAR
STARTCHAR Wedge
ENCODING 44
SWIDTH 704 0
DWIDTH 20 0
BBX 16 16 2 0
BITMAP
0180
0180
03c0
03c0
07e0
07e0
0e70
0e70
1c38
1c38
381c
381c
700e
700e
6006
e007
ENDCHAR
STARTCHAR SmallWedge
ENCODING 45
SWIDTH 660 0
DWIDTH 18 0
BBX 14 11 2 2
BITMAP
0300
0300
0780
0fc0
0fc0
1ce0
1860
3870
7038
7038
e01c
ENDCHAR
STARTCHAR Vee
ENCODING 46
SWIDTH 704 0
DWIDTH 20 0
BBX 16 16 2 0
BITMAP
e007
6006
700e
700e
381c
381c
1c38
1c38
0e70
0e70
07e0
07e0
03c0
03c0
0180
0180
ENDCHAR
STARTCHAR SmallVee
ENCODING 47
SWIDTH 660 0
DWIDTH 18 0
BBX 14 11 2 2
BITMAP
e01c
7038
7038
3870
1860
1ce0
0fc0
0fc0
0780
0300
0300
ENDCHAR
STARTCHAR LTriangle
ENCODING 48
SWIDTH 681 0
DWIDTH 19 0
BBX 15 15 2 0
BITMAP
0002
000e
007e
01fe
07ce
1f0e
7c0e
f00e
7c0e
1f0e
07ce
01fe
007e
000e
0002
ENDCHAR
STARTCHAR LTriangleEqual
ENCODING 49
SWIDTH 676 0
DWIDTH 19 0
BBX 16 17 2 -1
BITMAP
0002
001e
00fe
07fe
1f8e
fe0e
f80e
7f0e
0fee
03fe
007e
000e
0001
0000
fffe
fffe
fffe
ENDCHAR
STARTCHAR LTriangleBar
ENCODING 50
SWIDTH 838 0
DWIDTH 23 0
BBX 20 15 2 0
BITMAP
000270
000e70
007e70
01fe70
07ce70
1f0e70
7c0e70
f00e70
7c0e70
1f0e70
07ce70
01fe70
007e70
000e70
000270
ENDCHAR
STARTCHAR NotLTriangle
ENCODING 51
SWIDTH 681 0
DWIDTH 19 0
BBX 15 19 2 -2
BITMAP
0070
0060
0066
00fe
00fe
03fe
0fce
3fce
fdce
f18e
fd8e
3f8e
0fce
03fe
03fe
071e
0706
0600
0600
ENDCHAR
STARTCHAR NotLTriangleEqual
ENCODING 52
SWIDTH 677 0
DWIDTH 19 0
BBX 15 22 2 -4
BITMAP
0060
0060
00e2
00fe
00fe
03fe
1fce
ffce
f98e
7f8e
1fce
03fe
037e
030e
0702
0700
fffe
fffe
fffe
0e00
0c00
0c00
ENDCHAR
STARTCHAR NotLTriangleBar
ENCODING 53
SWIDTH 838 0
DWIDTH 23 0
BBX 20 20 2 -3
BITMAP
001c00
001c00
001a00
003e70
003e70
00fe70
03fe70
0ffe70
3e7e70
f86e70
f86e70
7eee70
1fee70
07ee70
01fe70
01fe70
018e70
018270
018000
038000
ENDCHAR
STARTCHAR Bar
ENCODING 54
SWIDTH 240 0
DWIDTH 7 0
BBX 3 19 2 0
BITMAP
e0
e0
e0
e0
e0
e0
e0
e0
e0
e0
e0
e0
e0
e0
e0
e0
e0
e0
e0
ENDCHAR
STARTCHAR Parallel
ENCODING 55
SWIDTH 478 0
DWIDTH 13 0
BBX 9 19 2 0
BITMAP
e380
e380
e380
e380
e380
e380
e380
e380
e380
e380
e380
e380
e380
e380
e380
e380
e380
e380
e380
ENDCHAR
STARTCHAR TrplBar
ENCODING 56
SWIDTH 722 0
DWIDTH 20 0
BBX 16 19 2 0
BITMAP
e1c7
e1c7
e1c7
e1c7
e1c7
e1c7
e1c7
e1c7
e1c7
e1c7
e1c7
e1c7
e1c7
e1c7
e1c7
e1c7
e1c7
e1c7
e1c7
ENDCHAR
STARTCHAR ShortBar
ENCODING 57
SWIDTH 240 0
DWIDTH 7 0
BBX 3 13 2 0
BITMAP
e0
e0
e0
e0
e0
e0
e0
e0
e0
e0
e0
e0
e0
ENDCHAR
STARTCHAR ShortParallelBar
ENCODING 58
SWIDTH 478 0
DWIDTH 13 0
BBX 9 13 2 0
BITMAP
e380
e380
e380
e380
e380
e380
e380
e380
e380
e380
e380
e380
e380
ENDCHAR
STARTCHAR BarExt
ENCODING 59
SWIDTH 240 0
DWIDTH 7 0
BBX 3 6 2 0
BITMAP
e0
e0
e0
e0
e0
e0
ENDCHAR
STARTCHAR Tangental
ENCODING 60
SWIDTH 574 0
DWIDTH 16 0
BBX 14 19 1 0
BITMAP
061c
0e1c
0e1c
0c18
1c38
1c38
1c38
1830
3870
3870
3870
3060
70e0
70e0
70e0
60c0
e1c0
e1c0
e180
ENDCHAR
STARTCHAR NotTildeFullEqual
ENCODING 61
SWIDTH 675 0
DWIDTH 19 0
BBX 15 21 2 -5
BITMAP
0070
0060
1c62
3fe2
7fe6
c3fc
81fc
01f0
0180
fffe
fffe
fffe
0300
0300
0700
fffe
fffe
fffe
0e00
0e00
0c00
ENDCHAR
STARTCHAR TildeEqual
ENCODING 62
SWIDTH 675 0
DWIDTH 19 0
BBX 15 10 2 2
BITMAP
1e02
3f02
7fc6
c3fc
81fc
00f8
0000
fffe
fffe
fffe
ENDCHAR
STARTCHAR EqualTilde
ENCODING 63
SWIDTH 675 0
DWIDTH 19 0
BBX 15 11 2 0
BITMAP
fffe
fffe
fffe
0000
0000
1e02
3f02
7fc6
c3fc
81fc
00f8
ENDCHAR
STARTCHAR RTriangle
ENCODING 64
SWIDTH 681 0
DWIDTH 19 0
BBX 15 15 2 0
BITMAP
8000
e000
fc00
ff00
e7c0
e1f0
e07c
e01e
e07c
e1f0
e7c0
ff00
fc00
e000
8000
ENDCHAR
STARTCHAR RTriangleEqual
ENCODING 65
SWIDTH 676 0
DWIDTH 19 0
BBX 15 17 2 -1
BITMAP
8000
f000
fe00
ffc0
e3f0
e0fe
e03e
e1fc
efe0
ff80
fc00
e000
8000
0000
fffe
fffe
fffe
ENDCHAR
STARTCHAR RTriangleBar
ENCODING 66
SWIDTH 838 0
DWIDTH 23 0
BBX 20 15 2 0
BITMAP
e80000
ef0000
efc000
eff000
ee7e00
ee1f80
ee07e0
ee00f0
ee07e0
ee1f80
ee7e00
eff000
efc000
ef0000
e80000
ENDCHAR
STARTCHAR NotRTriangle
ENCODING 67
SWIDTH 681 0
DWIDTH 19 0
BBX 15 19 2 -2
BITMAP
00c0
00c0
c0c0
f1c0
ff80
ff80
e7e0
e3f8
e37e
e31e
e37e
e7f8
e7e0
ff80
fe00
fe00
cc00
0c00
1c00
ENDCHAR
STARTCHAR NotRTriangleEqual
ENCODING 68
SWIDTH 676 0
DWIDTH 19 0
BBX 15 22 2 -4
BITMAP
0060
0060
80e0
f0c0
fec0
ffc0
e7f0
e1fe
e1be
e3fc
e7f0
ff80
ff00
e700
8700
0600
fffe
fffe
fffe
0c00
0c00
1c00
ENDCHAR
STARTCHAR NotRTriangleBar
ENCODING 69
SWIDTH 838 0
DWIDTH 23 0
BBX 20 21 2 -4
BITMAP
003800
003000
ec3000
ef7000
eff000
eff800
ee7e00
eeff80
eee7e0
eec1f0
eec3f0
efcfc0
efff00
effc00
eff000
efc000
ef8000
eb0000
070000
070000
070000
ENDCHAR
STARTCHAR NotBar
ENCODING 70
SWIDTH 531 0
DWIDTH 15 0
BBX 14 19 0 0
BITMAP
0380
0380
0380
039c
03bc
03f8
03f0
03e0
03c0
0780
0f80
1f80
3f80
7b80
f380
0380
0380
0380
0380
ENDCHAR
STARTCHAR NotParallelBar
ENCODING 71
SWIDTH 753 0
DWIDTH 21 0
BBX 19 19 1 0
BITMAP
071c00
071de0
071fc0
071f80
071f00
071e00
073c00
073c00
077c00
07fc00
07dc00
079c00
079c00
0f1c00
1f1c00
3f1c00
7f1c00
f71c00
071c00
ENDCHAR
STARTCHAR NotTrplBar
ENCODING 72
SWIDTH 806 0
DWIDTH 23 0
BBX 22 19 0 0
BITMAP
1c38fc
1c38f8
1c38f0
1c39e0
1c3be0
1c3fe0
1c3fe0
1c3ee0
1c3ce0
1c78e0
1cf8e0
1cf8e0
1df8e0
1fb8e0
1f38e0
1e38e0
3c38e0
7c38e0
fc38e0
ENDCHAR
STARTCHAR ShortNotBar
ENCODING 73
SWIDTH 511 0
DWIDTH 14 0
BBX 14 13 0 0
BITMAP
0380
039c
03b8
03f0
03e0
03c0
07c0
0f80
1f80
3f80
7b80
f380
0380
ENDCHAR
STARTCHAR ShortNotParallelBar
ENCODING 74
SWIDTH 598 0
DWIDTH 17 0
BBX 16 13 0 0
BITMAP
0e3f
0e3e
0e3c
0e78
0e78
0ef8
0ff8
0fb8
0f38
0f38
1e38
3e38
fe38
ENDCHAR
STARTCHAR ParallelExt
ENCODING 75
SWIDTH 478 0
DWIDTH 13 0
BBX 9 6 2 0
BITMAP
e380
e380
e380
e380
e380
e380
ENDCHAR
STARTCHAR NotTilde
ENCODING 76
SWIDTH 667 0
DWIDTH 19 0
BBX 15 13 2 0
BITMAP
00e0
00e0
00c0
1dc2
7fc2
7f86
c3fc
83fc
03f8
0300
0300
0700
0700
ENDCHAR
STARTCHAR NotTildeTilde
ENCODING 77
SWIDTH 667 0
DWIDTH 19 0
BBX 15 19 2 -3
BITMAP
0030
0070
0070
0060
1c62
7fe2
7fe6
c3fc
81fc
01f0
1dc2
7f82
7f86
c3fc
83fc
0378
0700
0700
0600
ENDCHAR
STARTCHAR NotTildeEqual
ENCODING 78
SWIDTH 675 0
DWIDTH 19 0
BBX 15 18 2 -2
BITMAP
0070
0070
0060
0060
1ce2
3fe2
7fc6
c3fc
81fc
01f8
0180
fffe
fffe
fffe
0300
0700
0700
0600
ENDCHAR
STARTCHAR NotEqualTilde
ENCODING 79
SWIDTH 675 0
DWIDTH 19 0
BBX 15 18 2 -2
BITMAP
0070
0070
0060
0060
00e0
fffe
fffe
fffe
01c0
01c0
1d82
3f82
7f86
c3fc
83fc
0778
0700
0600
ENDCHAR
STARTCHAR HumpEqual
ENCODING 80
SWIDTH 677 0
DWIDTH 19 0
BBX 15 12 2 2
BITMAP
0780
0fc0
fffe
fcfe
fc7e
0000
0000
0000
0000
fffe
fffe
fffe
ENDCHAR
STARTCHAR HumpDownHump
ENCODING 81
SWIDTH 677 0
DWIDTH 19 0
BBX 15 14 2 0
BITMAP
0380
07c0
fffe
fefe
fc7e
0000
0000
0000
0000
fc7e
fefe
fffe
07c0
0380
ENDCHAR
STARTCHAR NotHumpEqual
ENCODING 82
SWIDTH 677 0
DWIDTH 19 0
BBX 15 20 2 -2
BITMAP
00e0
00c0
00c0
00c0
0380
07c0
fffe
fdfe
ff7e
0300
0300
0300
0300
fffe
fffe
fffe
0600
0e00
0c00
0c00
ENDCHAR
STARTCHAR NotHumpDownHump
ENCODING 83
SWIDTH 677 0
DWIDTH 19 0
BBX 15 20 2 -3
BITMAP
0060
00e0
00c0
03c0
07c0
fffe
fdfe
fdfe
0180
0180
0300
0300
ff7e
ff7e
fffe
07c0
0780
0600
0e00
0c00
ENDCHAR
STARTCHAR NotCongruent
ENCODING 84
SWIDTH 677 0
DWIDTH 19 0
BBX 15 20 2 -3
BITMAP
0070
0060
00e0
fffe
fffe
fffe
01c0
0180
fffe
fffe
fffe
0300
0300
0700
fffe
fffe
fffe
0e00
0e00
0c00
ENDCHAR
STARTCHAR DotEqual
ENCODING 85
SWIDTH 677 0
DWIDTH 19 0
BBX 15 17 2 2
BITMAP
0180
03c0
03c0
0180
0000
0000
0000
fffe
fffe
fffe
0000
0000
0000
0000
fffe
fffe
fffe
ENDCHAR
STARTCHAR RoundImplies
ENCODING 86
SWIDTH 657 0
DWIDTH 18 0
BBX 15 10 2 2
BITMAP
fff0
fff8
fffc
001e
000e
000e
001e
fffc
fffc
fff0
ENDCHAR
STARTCHAR Equal
ENCODING 87
SWIDTH 448 0
DWIDTH 13 0
BBX 10 10 1 2
BITMAP
ffc0
ffc0
ffc0
0000
0000
0000
0000
ffc0
ffc0
ffc0
ENDCHAR
STARTCHAR TrplEqual
ENCODING 88
SWIDTH 1078 0
DWIDTH 30 0
BBX 28 10 1 2
BITMAP
ffbffff0
ffbffff0
ffbffff0
00000000
00000000
00000000
00000000
ffbffff0
ffbffff0
ffbffff0
ENDCHAR
STARTCHAR FrownEqual
ENCODING 89
SWIDTH 690 0
DWIDTH 19 0
BBX 15 11 2 2
BITMAP
07c0
1ff0
3ff8
701c
c006
8002
0000
0000
fffe
fffe
fffe
ENDCHAR
STARTCHAR SmileEqual
ENCODING 90
SWIDTH 690 0
DWIDTH 19 0
BBX 15 11 2 1
BITMAP
fffe
fffe
fffe
0000
0000
8002
c006
701c
3ff8
1ff0
07c0
ENDCHAR
STARTCHAR Frown
ENCODING 91
SWIDTH 690 0
DWIDTH 19 0
BBX 15 5 2 4
BITMAP
07c0
1ff0
3ff8
600c
8002
ENDCHAR
STARTCHAR Smile
ENCODING 92
SWIDTH 690 0
DWIDTH 19 0
BBX 15 5 2 4
BITMAP
8002
600c
3ff8
1ff0
07c0
ENDCHAR
STARTCHAR FrownSmile
ENCODING 93
SWIDTH 690 0
DWIDTH 19 0
BBX 16 14 2 0
BITMAP
07c0
1ff0
3ff8
701c
c006
8001
0000
0000
8001
c006
701c
3ff8
1ff0
07c0
ENDCHAR
STARTCHAR SmileFrown
ENCODING 94
SWIDTH 690 0
DWIDTH 19 0
BBX 15 13 2 0
BITMAP
8002
600c
3ff8
1ff0
07c0
0000
0000
07c0
1ff0
3ff8
701c
c006
8002
ENDCHAR
STARTCHAR NotSmileFrown
ENCODING 95
SWIDTH 690 0
DWIDTH 19 0
BBX 16 20 2 -3
BITMAP
0060
00e0
00e0
80c1
c0c6
61cc
3ff8
1ff0
07c0
0380
0380
07c0
1ff0
3ff8
771c
c606
8601
0e00
0c00
0c00
ENDCHAR
STARTCHAR LessLess
ENCODING 96
SWIDTH 1071 0
DWIDTH 30 0
BBX 26 15 2 0
BITMAP
00020040
000e01c0
003e07c0
01f83f00
07e0fc00
1f83f000
7e0fc000
f01e0000
7e0fc000
1f83f000
07e0fc00
01f83f00
003e07c0
000e01c0
00020040
ENDCHAR
STARTCHAR DblLess
ENCODING 97
SWIDTH 839 0
DWIDTH 23 0
BBX 20 19 2 -2
BITMAP
000010
000070
0003f0
000fe0
007f00
01fc10
07e0f0
3f83f0
fe0fe0
f01f00
fe0fc0
3f83f0
07e0f0
01fc10
007f00
000fe0
0003f0
000070
000010
ENDCHAR
STARTCHAR LessSlantEqual
ENCODING 98
SWIDTH 676 0
DWIDTH 19 0
BBX 15 19 2 -3
BITMAP
0002
001e
00fe
03f8
1fc0
ff00
f800
7f00
1fe0
03f8
807e
c01e
f802
7f00
1fc0
03f8
007e
001e
0002
ENDCHAR
STARTCHAR LessFullEqual
ENCODING 99
SWIDTH 677 0
DWIDTH 19 0
BBX 16 22 2 -4
BITMAP
0002
001e
00fe
03f8
1fc0
fe00
fc00
7f00
0fe0
01fc
007e
000e
0001
0000
fffe
fffe
fffe
0000
0000
fffe
fffe
fffe
ENDCHAR
STARTCHAR LessTilde
ENCODING 100
SWIDTH 676 0
DWIDTH 19 0
BBX 15 18 2 -2
BITMAP
0002
001e
00fe
07f8
1fc0
fe00
fc00
3f80
0ff0
01fc
003e
0006
1e00
3f02
7fc6
c3fc
81fc
0078
ENDCHAR
STARTCHAR NotLess
ENCODING 101
SWIDTH 681 0
DWIDTH 19 0
BBX 15 19 2 -2
BITMAP
0070
0070
0066
00fe
00fe
01f8
07e0
1fc0
7dc0
f180
7d80
1f80
07e0
03f8
037e
071e
0706
0600
0e00
ENDCHAR
STARTCHAR NotLessLess
ENCODING 102
SWIDTH 1071 0
DWIDTH 30 0
BBX 26 21 2 -3
BITMAP
00018000
00038000
00038000
000700c0
001f03c0
007f0fc0
01ff3f00
07e6fc00
1f07e000
fc1f8000
f81e0000
7e0fc000
1f9ff000
07fcfc00
01f83f00
007e0fc0
003e03c0
003a0040
00300000
00300000
00700000
ENDCHAR
STARTCHAR NotDblLess
ENCODING 103
SWIDTH 839 0
DWIDTH 23 0
BBX 21 21 2 -3
BITMAP
000c00
000c10
001c70
001ff0
001fe0
007f00
01fc10
0ff8f0
3fb3f0
fc7fc0
f07f00
fe6fe0
1fe1f0
07f070
01fc10
00ff80
01cfe0
01c1f0
018070
018008
038000
ENDCHAR
STARTCHAR NotLessEqual
ENCODING 104
SWIDTH 677 0
DWIDTH 19 0
BBX 16 22 2 -4
BITMAP
0030
0070
0072
007e
007e
03f8
1fe0
fec0
fcc0
7fc0
0fe0
01fc
03fe
038e
0301
0300
fffe
fffe
fffe
0600
0e00
0e00
ENDCHAR
STARTCHAR NotLessSlantEqual
ENCODING 105
SWIDTH 676 0
DWIDTH 19 0
BBX 16 22 2 -4
BITMAP
0030
0030
0071
006e
007e
01fc
0fe0
7fc0
f8c0
ffc0
1fc0
03f8
83fe
e39e
fb82
7f00
0fe0
07fc
067e
060e
0e01
0e00
ENDCHAR
STARTCHAR NotLessFullEqual
ENCODING 106
SWIDTH 677 0
DWIDTH 19 0
BBX 16 26 2 -6
BITMAP
0030
0071
007e
007e
03f8
1fe0
7fc0
f8c0
7fc0
0fe0
03fc
01fe
038e
0381
0300
fffe
fffe
fffe
0600
0e00
fffe
fffe
fffe
1c00
1c00
1c00
ENDCHAR
STARTCHAR NotLessTilde
ENCODING 107
SWIDTH 676 0
DWIDTH 19 0
BBX 15 22 2 -4
BITMAP
0030
0070
0072
007e
00fe
03f8
1fe0
fec0
fcc0
3fc0
0ff0
01fc
03be
0386
1f80
3f02
7f86
c7fc
87fc
0678
0e00
0e00
ENDCHAR
STARTCHAR SquareSubset
ENCODING 108
SWIDTH 673 0
DWIDTH 19 0
BBX 15 15 2 -1
BITMAP
fffe
fffe
fffe
e000
e000
e000
e000
e000
e000
e000
e000
e000
fffe
fffe
fffe
ENDCHAR
STARTCHAR SquareSubsetEqual
ENCODING 109
SWIDTH 673 0
DWIDTH 19 0
BBX 15 20 2 -4
BITMAP
fffe
fffe
fffe
e000
e000
e000
e000
e000
e000
e000
e000
e000
fffe
fffe
fffe
0000
0000
fffe
fffe
fffe
ENDCHAR
STARTCHAR NotSquareSubset
ENCODING 110
SWIDTH 673 0
DWIDTH 19 0
BBX 15 22 2 -5
BITMAP
0070
0060
0060
fffe
fffe
fffe
e0c0
e1c0
e180
e180
e380
e380
e300
e300
e700
fffe
fffe
fffe
0e00
0e00
0c00
0c00
ENDCHAR
STARTCHAR NotSqrSubsetEqual
ENCODING 111
SWIDTH 673 0
DWIDTH 19 0
BBX 15 26 2 -7
BITMAP
0030
0070
0070
fffe
fffe
fffe
e0e0
e0c0
e0c0
e1c0
e180
e180
e380
e380
e300
fffe
fffe
fffe
0600
0600
fffe
fffe
fffe
0c00
1c00
1c00
ENDCHAR
STARTCHAR GrtrGrtr
ENCODING 112
SWIDTH 1071 0
DWIDTH 30 0
BBX 26 15 2 0
BITMAP
80100000
e01c0000
f81f0000
3f07e000
0fc1f800
03f07e00
007c1f80
001e03c0
00fc1f80
03f07e00
0fc1f800
3f07e000
f81f0000
e01c0000
80100000
ENDCHAR
STARTCHAR DblGrtr
ENCODING 113
SWIDTH 839 0
DWIDTH 23 0
BBX 20 19 2 -2
BITMAP
800000
e00000
fc0000
7f0000
0fe000
83f800
f07e00
fc1fc0
7f07f0
0f80f0
3f07f0
fc1fc0
f07e00
83f800
0fe000
7f0000
fc0000
e00000
800000
ENDCHAR
STARTCHAR GrtrSlantEqual
ENCODING 114
SWIDTH 676 0
DWIDTH 19 0
BBX 16 19 2 -3
BITMAP
8000
f000
fe00
3f80
07f0
01fe
003e
01fc
0ff0
3f80
fc01
f006
803e
01fc
07f0
3f80
fc00
f000
8000
ENDCHAR
STARTCHAR GrtrFullEqual
ENCODING 115
SWIDTH 677 0
DWIDTH 19 0
BBX 15 22 2 -4
BITMAP
8000
f000
fe00
3f80
07f0
00fe
007e
01fc
0fe0
7f00
fc00
e000
8000
0000
fffe
fffe
fffe
0000
0000
fffe
fffe
fffe
ENDCHAR
STARTCHAR GrtrTilde
ENCODING 116
SWIDTH 676 0
DWIDTH 19 0
BBX 15 18 2 -2
BITMAP
8000
f000
fe00
1fc0
07f8
00fe
007e
03f8
1fc0
ff00
f800
c000
1e02
3f02
7fc6
c3fc
81fc
00f0
ENDCHAR
STARTCHAR NotGrtr
ENCODING 117
SWIDTH 681 0
DWIDTH 19 0
BBX 15 19 2 -2
BITMAP
00e0
00c0
c0c0
f1c0
fdc0
3f80
0fc0
03f0
037c
031e
077c
07f0
0fc0
3f00
fe00
fe00
cc00
0c00
1c00
ENDCHAR
STARTCHAR NotGrtrGrtr
ENCODING 118
SWIDTH 1071 0
DWIDTH 30 0
BBX 26 21 2 -3
BITMAP
00018000
00038000
00038000
c01b0000
f01f0000
fc1f8000
3f07e000
0fc7f800
01fe3e00
007e0fc0
001e07c0
00fc1f80
03fc7e00
0fddf800
3f1fe000
fc1f8000
f03c0000
80380000
00300000
00300000
00700000
ENDCHAR
STARTCHAR NotDblGrtr
ENCODING 119
SWIDTH 839 0
DWIDTH 23 0
BBX 20 21 2 -3
BITMAP
001c00
801c00
e01c00
fc1800
7f3800
0ff800
83f800
f07f00
fc7fc0
3ff3f0
0fe0f0
7fe7f0
f8ff80
e0fe00
83f800
1fc000
7fc000
f98000
e18000
838000
038000
ENDCHAR
STARTCHAR NotGrtrEqual
ENCODING 120
SWIDTH 677 0
DWIDTH 19 0
BBX 15 22 2 -4
BITMAP
00e0
00e0
80c0
f0c0
fdc0
3fc0
07f0
01fe
03fe
03fc
0fe0
7f00
ff00
e600
8600
0e00
fffe
fffe
fffe
1c00
1c00
1800
ENDCHAR
STARTCHAR NotGrtrSlantEqual
ENCODING 121
SWIDTH 676 0
DWIDTH 19 0
BBX 16 22 2 -4
BITMAP
0060
00e0
80e0
e0c0
fcc0
7fc0
0fe0
01fc
03be
03fe
07f0
3f80
ff01
f70e
863e
0ffc
0fe0
7f80
fc00
fc00
9c00
1800
ENDCHAR
STARTCHAR NotGrtrFullEqual
ENCODING 122
SWIDTH 677 0
DWIDTH 19 0
BBX 15 26 2 -6
BITMAP
00e0
80e0
e0c0
fcc0
3fc0
0ff0
01fc
01be
03fc
0fe0
7f80
ff00
e700
8600
0600
fffe
fffe
fffe
0c00
1c00
fffe
fffe
fffe
3800
3800
3000
ENDCHAR
STARTCHAR NotGrtrTilde
ENCODING 123
SWIDTH 676 0
DWIDTH 19 0
BBX 15 22 2 -4
BITMAP
00e0
00e0
80c0
f0c0
ffc0
3fc0
07f8
03fe
03fe
03f8
1fc0
ff00
ff00
c600
1e02
7f02
7fc6
cffc
8dfc
1c70
1c00
1800
ENDCHAR
STARTCHAR SquareSprset
ENCODING 124
SWIDTH 676 0
DWIDTH 19 0
BBX 15 15 2 -1
BITMAP
fffe
fffe
fffe
000e
000e
000e
000e
000e
000e
000e
000e
000e
fffe
fffe
fffe
ENDCHAR
STARTCHAR SquareSprsetEqual
ENCODING 125
SWIDTH 673 0
DWIDTH 19 0
BBX 15 20 2 -4
BITMAP
fffe
fffe
fffe
000e
000e
000e
000e
000e
000e
000e
000e
000e
fffe
fffe
fffe
0000
0000
fffe
fffe
fffe
ENDCHAR
STARTCHAR NotSquareSprset
ENCODING 126
SWIDTH 673 0
DWIDTH 19 0
BBX 15 22 2 -5
BITMAP
0070
0060
0060
fffe
fffe
fffe
e0c0
e1c0
e180
e180
e380
e380
e300
e300
e700
fffe
fffe
fffe
0e00
0e00
0c00
0c00
ENDCHAR
STARTCHAR DEL
ENCODING 127
SWIDTH 189 0
DWIDTH 5 0
BBX 0 0 0 0
BITMAP
ENDCHAR
STARTCHAR Prcds
ENCODING 128
SWIDTH 678 0
DWIDTH 19 0
BBX 16 20 2 -3
BITMAP
0001
0002
0006
000e
001e
003e
00fc
03f0
1fc0
ff00
ff00
1fe0
03f0
00fc
003e
001e
000e
0006
0002
0001
ENDCHAR
STARTCHAR PrcdsEqual
ENCODING 129
SWIDTH 678 0
DWIDTH 19 0
BBX 16 19 2 -1
BITMAP
0001
0002
0006
001e
003e
01fc
0ff0
ffc0
ffc0
0ff0
00fc
001e
000e
0002
0001
0000
fffe
fffe
fffe
ENDCHAR
STARTCHAR PrcdsSlantEqual
ENCODING 130
SWIDTH 678 0
DWIDTH 19 0
BBX 16 21 2 -4
BITMAP
0001
0002
000e
003e
00fc
0ff0
ffc0
ffc0
0ff8
00fc
003e
f80e
ff86
ffe2
0ff0
00fc
003e
001e
0006
0002
0001
ENDCHAR
STARTCHAR PrcdsTilde
ENCODING 131
SWIDTH 665 0
DWIDTH 19 0
BBX 16 19 2 -2
BITMAP
0001
0002
000e
003e
00fc
0ff0
ffc0
ffc0
0ff8
00fc
001e
000e
0002
1e01
3f82
7fc6
43fe
81fc
0078
ENDCHAR
STARTCHAR NotPrcds
ENCODING 132
SWIDTH 678 0
DWIDTH 19 0
BBX 16 21 2 -3
BITMAP
0070
0061
0062
00e6
00ee
00de
00fc
01f8
07f0
7fc0
ff80
ff80
0fe0
03f8
077c
073e
060e
0606
0e02
0e01
0c00
ENDCHAR
STARTCHAR NotPrcdsEqual
ENCODING 133
SWIDTH 678 0
DWIDTH 19 0
BBX 16 23 2 -4
BITMAP
0070
0061
0062
00e6
00fe
00fe
01fc
0ff0
ffc0
ffc0
0ff0
03fc
031e
030e
0702
0701
0600
fffe
fffe
fffe
0c00
1c00
1c00
ENDCHAR
STARTCHAR NotPrcdsSlantEqual
ENCODING 134
SWIDTH 678 0
DWIDTH 19 0
BBX 16 23 2 -4
BITMAP
0070
0061
0062
00e6
00ee
00fe
00fc
0ff0
ffc0
ffc0
0ff0
03fc
031e
fb0e
ff02
ffe1
07f0
06fc
0e3e
0e0e
0c06
0c02
1c01
ENDCHAR
STARTCHAR NotPrcdsTilde
ENCODING 135
SWIDTH 665 0
DWIDTH 19 0
BBX 16 23 2 -4
BITMAP
0070
0070
0062
0066
00ee
00fe
01fc
0ff0
ffc0
ffc0
0ff0
03fc
039e
030e
0702
1f01
3f02
7fc6
cffe
8ffc
0c78
0c00
1c00
ENDCHAR
STARTCHAR LessGrtr
ENCODING 136
SWIDTH 682 0
DWIDTH 19 0
BBX 15 21 2 -3
BITMAP
0002
001e
00fe
07f0
3f80
fe00
fc00
3f80
07f0
c0fe
f81e
fe06
1fc0
03f8
007e
00fe
07f8
1fc0
fe00
f000
8000
ENDCHAR
STARTCHAR NotLessGrtr
ENCODING 137
SWIDTH 682 0
DWIDTH 19 0
BBX 15 25 2 -5
BITMAP
0030
0070
0076
007e
01fc
07f0
3fc0
fcc0
ffc0
3fc0
07f0
c1fe
fb9e
ff86
1fc0
03f8
077e
07fe
07f8
1fc0
fe00
fc00
cc00
1c00
1c00
ENDCHAR
STARTCHAR LessEqualGrtr
ENCODING 138
SWIDTH 676 0
DWIDTH 19 0
BBX 16 30 2 -8
BITMAP
0002
001e
00fe
03f8
1fc0
fe00
fc00
7f00
0fe0
01fc
007e
000e
0001
0000
fffe
fffe
fffe
0000
8000
e000
fc00
3f80
07f0
00fe
007e
03f8
1fc0
fe00
f000
8000
ENDCHAR
STARTCHAR Because
ENCODING 139
SWIDTH 629 0
DWIDTH 18 0
BBX 14 15 2 0
BITMAP
6018
f03c
f03c
6018
0000
0000
0000
0000
0000
0000
0000
0300
0780
0780
0300
ENDCHAR
STARTCHAR NotSqrSprsetEqual
ENCODING 140
SWIDTH 673 0
DWIDTH 19 0
BBX 15 26 2 -7
BITMAP
0060
0060
00e0
fffe
fffe
fffe
01ce
01ce
018e
018e
038e
030e
030e
070e
070e
fffe
fffe
fffe
0e00
0c00
fffe
fffe
fffe
1800
1800
3800
ENDCHAR
STARTCHAR NotSubsetEqual
ENCODING 141
SWIDTH 697 0
DWIDTH 20 0
BBX 16 26 2 -7
BITMAP
0018
0038
0038
07ff
1fff
3fff
7c70
7060
f060
e0e0
e0c0
e0c0
f1c0
71c0
7d80
3fff
0fff
07ff
0300
0300
7fff
7fff
7fff
0600
0e00
0e00
ENDCHAR
STARTCHAR NotSprset
ENCODING 142
SWIDTH 697 0
DWIDTH 20 0
BBX 16 21 2 -4
BITMAP
0070
0070
0060
ffe0
fff0
fffc
00fc
00ce
01cf
0187
0187
0387
038f
030e
033e
fffc
fff8
ffe0
0600
0e00
0c00
ENDCHAR
STARTCHAR NotSprsetEqual
ENCODING 143
SWIDTH 697 0
DWIDTH 20 0
BBX 16 26 2 -7
BITMAP
0030
0070
0070
ffe0
fff0
fffc
00fc
00ce
00c7
01c7
01c7
0187
018f
038e
033e
fffc
fff8
ffe0
0600
0600
fffe
fffe
fffe
0c00
1c00
1c00
ENDCHAR
STARTCHAR Succds
ENCODING 144
SWIDTH 678 0
DWIDTH 19 0
BBX 15 20 2 -3
BITMAP
8000
8000
c000
e000
f000
f800
7e00
1f80
07f0
01fe
01fe
07f0
1f80
3e00
f800
f000
e000
c000
8000
8000
ENDCHAR
STARTCHAR SuccdsEqual
ENCODING 145
SWIDTH 678 0
DWIDTH 19 0
BBX 15 19 2 -1
BITMAP
8000
8000
c000
f000
f800
7f00
1fe0
07fe
07fe
1fe0
7e00
f000
e000
8000
8000
0000
fffe
fffe
fffe
ENDCHAR
STARTCHAR SuccdsSlantEqual
ENCODING 146
SWIDTH 678 0
DWIDTH 19 0
BBX 15 21 2 -4
BITMAP
8000
8000
e000
f800
7e00
1fe0
07fe
07fe
3fe0
7e00
f800
e03e
c3fe
8ffe
1fe0
7e00
f800
f000
c000
8000
8000
ENDCHAR
STARTCHAR SuccdsTilde
ENCODING 147
SWIDTH 678 0
DWIDTH 19 0
BBX 15 19 2 -2
BITMAP
8000
8000
e000
f800
7e00
1fe0
07fe
07fe
1fe0
7e00
f000
e000
8000
9c02
7f02
7fc6
c3fc
81fc
00f0
ENDCHAR
STARTCHAR NotSuccds
ENCODING 148
SWIDTH 678 0
DWIDTH 19 0
BBX 15 21 2 -3
BITMAP
0070
8060
8060
c0e0
e0e0
f0c0
7dc0
3fc0
1fc0
07fc
03fe
03fe
0fe0
3f00
7f00
ff00
e600
c600
8e00
8e00
0c00
ENDCHAR
STARTCHAR NotSuccdsEqual
ENCODING 149
SWIDTH 678 0
DWIDTH 19 0
BBX 15 23 2 -4
BITMAP
0070
8060
80e0
c0e0
f0e0
f8c0
7fc0
1fe0
07fe
07fe
1fe0
7f80
f300
e300
8700
8700
0600
fffe
fffe
fffe
0c00
1c00
1c00
ENDCHAR
STARTCHAR NotSuccdsSlantEqual
ENCODING 150
SWIDTH 678 0
DWIDTH 19 0
BBX 15 24 2 -5
BITMAP
0070
8060
8060
c0e0
e0e0
f8c0
7ec0
1fe0
07fe
07fe
3fc0
7f80
f300
e33e
87fe
8ffe
1fc0
7e00
fe00
ee00
cc00
8c00
9c00
1c00
ENDCHAR
STARTCHAR NotSuccdsTilde
ENCODING 151
SWIDTH 678 0
DWIDTH 19 0
BBX 15 23 2 -4
BITMAP
0070
8070
8060
c060
e0e0
f8c0
7fc0
1ff8
03fe
0ffc
3f80
ff80
f380
c300
8300
9f02
7f02
7f86
c7fc
8ffc
0c70
0c00
1c00
ENDCHAR
STARTCHAR GrtrLess
ENCODING 152
SWIDTH 682 0
DWIDTH 19 0
BBX 15 21 2 -3
BITMAP
8000
f000
fe00
1fc0
03f8
00fe
007e
03f8
1fc0
fe06
f03e
c0fe
07f0
3f80
fc00
fe00
3fc0
07f0
00fe
001e
0002
ENDCHAR
STARTCHAR NotGrtrLess
ENCODING 153
SWIDTH 682 0
DWIDTH 19 0
BBX 15 25 2 -5
BITMAP
0070
0070
c060
f860
7fe0
1fe0
03f8
00fe
01fe
07f8
1fc0
ff86
f3be
c3fe
07f0
3f80
ff00
fe00
3f80
0ff0
0efe
0c1e
0c06
1c00
1800
ENDCHAR
STARTCHAR GrtrEqualLess
ENCODING 154
SWIDTH 676 0
DWIDTH 19 0
BBX 16 30 2 -8
BITMAP
8000
f000
fe00
3f80
07f0
00fe
007e
01fc
0fe0
7f00
fc00
e000
8000
0000
fffe
fffe
fffe
0000
0001
000e
007e
03f8
1fc0
fe00
fc00
3f80
07f0
00fe
001e
0002
ENDCHAR
STARTCHAR Proportion
ENCODING 155
SWIDTH 629 0
DWIDTH 18 0
BBX 14 14 2 0
BITMAP
6018
f03c
f03c
6018
0000
0000
0000
0000
0000
0000
6018
f03c
f03c
6018
ENDCHAR
STARTCHAR Member
ENCODING 156
SWIDTH 697 0
DWIDTH 20 0
BBX 16 15 2 -1
BITMAP
ffe0
fff8
fffc
001e
000e
0007
ffff
ffff
ffff
0007
000e
001e
fffc
fff8
ffe0
ENDCHAR
STARTCHAR NotMember
ENCODING 157
SWIDTH 697 0
DWIDTH 20 0
BBX 16 21 2 -4
BITMAP
0070
0070
0060
ffe0
fff8
fffc
00de
01ce
01c7
ffff
ffff
ffff
0387
030e
071e
fffc
fff8
ffe0
0e00
0e00
0c00
ENDCHAR
STARTCHAR CircleMinus
ENCODING 158
SWIDTH 835 0
DWIDTH 23 0
BBX 20 20 2 -3
BITMAP
01f800
07fe00
1fff80
3e07c0
3801c0
7000e0
e00070
e00070
fffff0
fffff0
fffff0
e00070
e00070
7000e0
7000e0
3801c0
3e07c0
1fff80
07fe00
01f800
ENDCHAR
STARTCHAR CircleDot
ENCODING 159
SWIDTH 835 0
DWIDTH 23 0
BBX 20 20 2 -3
BITMAP
01f800
07fe00
0fff00
1e0f80
3c03c0
7801e0
7000e0
f000f0
e06070
e0f070
e0f070
e06070
e00070
7000e0
7801e0
3c03c0
1e0780
0fff00
07fe00
01f800
ENDCHAR
STARTCHAR EqualParallel
ENCODING 160
SWIDTH 765 0
DWIDTH 21 0
BBX 18 18 2 -2
BITMAP
0e3800
0e3800
0e3800
0e3800
ffffc0
ffffc0
ffffc0
0e3800
0e3800
0e3800
0e3800
ffffc0
ffffc0
ffffc0
0e3800
0e3800
0e3800
0e3800
ENDCHAR
STARTCHAR MinusPlus
ENCODING 161
SWIDTH 683 0
DWIDTH 19 0
BBX 15 17 2 -2
BITMAP
fffe
fffe
fffe
0000
0380
0380
0380
0380
0380
fffe
fffe
fffe
0380
0380
0380
0380
0380
ENDCHAR
STARTCHAR RTack
ENCODING 162
SWIDTH 487 0
DWIDTH 14 0
BBX 10 15 2 0
BITMAP
e000
e000
e000
e000
e000
e000
ffc0
ffc0
ffc0
e000
e000
e000
e000
e000
e000
ENDCHAR
STARTCHAR DblRTack
ENCODING 163
SWIDTH 487 0
DWIDTH 14 0
BBX 10 15 2 0
BITMAP
e000
e000
e000
ffc0
ffc0
ffc0
e000
e000
e000
ffc0
ffc0
ffc0
e000
e000
e000
ENDCHAR
STARTCHAR LTack
ENCODING 164
SWIDTH 487 0
DWIDTH 14 0
BBX 10 15 2 0
BITMAP
01c0
01c0
01c0
01c0
01c0
01c0
ffc0
ffc0
ffc0
01c0
01c0
01c0
01c0
01c0
01c0
ENDCHAR
STARTCHAR DblLTack
ENCODING 165
SWIDTH 487 0
DWIDTH 14 0
BBX 10 15 2 0
BITMAP
01c0
01c0
01c0
ffc0
ffc0
ffc0
01c0
01c0
01c0
ffc0
ffc0
ffc0
01c0
01c0
01c0
ENDCHAR
STARTCHAR UpTee
ENCODING 166
SWIDTH 680 0
DWIDTH 19 0
BBX 15 10 2 2
BITMAP
0380
0380
0380
0380
0380
0380
0380
fffe
fffe
fffe
ENDCHAR
STARTCHAR DownTee
ENCODING 167
SWIDTH 680 0
DWIDTH 19 0
BBX 15 10 2 2
BITMAP
fffe
fffe
fffe
0380
0380
0380
0380
0380
0380
0380
ENDCHAR
STARTCHAR DownTeeLong
ENCODING 168
SWIDTH 752 0
DWIDTH 21 0
BBX 17 15 2 0
BITMAP
ffff80
ffff80
01c000
01c000
01c000
01c000
01c000
01c000
01c000
01c000
01c000
01c000
01c000
01c000
01c000
ENDCHAR
STARTCHAR Between
ENCODING 169
SWIDTH 450 0
DWIDTH 13 0
BBX 9 24 2 -5
BITMAP
4100
3600
1c00
1c00
3e00
3600
7700
6700
e380
e380
e380
e380
e380
e380
e380
6300
6700
7700
3600
3c00
1c00
1c00
3600
4100
ENDCHAR
STARTCHAR VertTilde
ENCODING 170
SWIDTH 305 0
DWIDTH 9 0
BBX 5 16 2 0
BITMAP
40
30
30
38
38
38
78
70
70
f0
e0
e0
e0
60
70
18
ENDCHAR
STARTCHAR HorizHourglass
ENCODING 171
SWIDTH 600 0
DWIDTH 17 0
BBX 15 12 1 1
BITMAP
8002
c006
f01e
fc7e
fefe
cfe6
cfe6
fefe
fc7e
f01e
c006
8002
ENDCHAR
STARTCHAR RightAngle
ENCODING 172
SWIDTH 505 0
DWIDTH 14 0
BBX 10 15 2 0
BITMAP
c000
c000
c000
c000
c000
c000
c000
c000
fc00
fc00
cc00
cc00
cc00
ffc0
ffc0
ENDCHAR
STARTCHAR MeasuredAngle
ENCODING 173
SWIDTH 512 0
DWIDTH 14 0
BBX 10 15 2 0
BITMAP
1c00
1800
1800
1800
3800
3000
3000
3000
7800
7c00
6600
6300
e300
ffc0
ffc0
ENDCHAR
STARTCHAR SphericalAngle
ENCODING 174
SWIDTH 555 0
DWIDTH 16 0
BBX 12 14 2 -1
BITMAP
0010
0030
00f0
03e0
0f80
3ec0
78c0
f8c0
3ec0
0f80
03e0
00f0
0030
0010
ENDCHAR
STARTCHAR Diameter
ENCODING 175
SWIDTH 737 0
DWIDTH 21 0
BBX 17 18 2 -1
BITMAP
000100
07f300
1fff00
3c1e00
701f00
603f00
e07b80
c07180
c0e180
c1c180
c38180
c70180
ee0380
7e0300
7c0600
7c1e00
7ff800
43e000
ENDCHAR
STARTCHAR Mho
ENCODING 176
SWIDTH 748 0
DWIDTH 21 0
BBX 19 19 1 0
BITMAP
ff1fe0
fe0fe0
fe0fe0
840460
8c0620
1c0700
1c0700
380380
380380
7803c0
7803c0
7803c0
7803c0
7803c0
380380
3c0780
1c0700
060e00
01f800
ENDCHAR
STARTCHAR NotExists
ENCODING 177
SWIDTH 627 0
DWIDTH 18 0
BBX 15 26 1 -4
BITMAP
0070
0070
0060
fffe
00fe
00de
00de
01de
01de
01de
019e
039e
3ffe
031e
031e
071e
071e
061e
0e1e
0e1e
0e1e
fffe
1c00
1c00
1800
3800
ENDCHAR
STARTCHAR CapDigamma
ENCODING 178
SWIDTH 589 0
DWIDTH 16 0
BBX 15 19 1 0
BITMAP
fffe
3c06
3c02
3c02
3c00
3c00
3c00
3c00
3c00
3ff8
3c38
3c18
3c08
3c00
3c00
3c00
3c00
3c00
ff00
ENDCHAR
STARTCHAR CapStigma
ENCODING 179
SWIDTH 670 0
DWIDTH 19 0
BBX 17 24 1 -5
BITMAP
00ff80
03ff80
07ff00
0e0000
180000
300000
300000
600000
600000
e00000
e00000
e00000
e00000
f00000
fc0000
7f0000
3f8000
1fc000
07e000
01e000
00e000
00e000
01c000
0f0000
ENDCHAR
STARTCHAR CapKoppa
ENCODING 180
SWIDTH 637 0
DWIDTH 18 0
BBX 16 19 1 0
BITMAP
07e0
1c38
381c
700e
6006
e007
e007
e007
e007
e3c7
63ce
73ce
3bdc
0ff0
03c0
03c0
03c0
03c0
03c0
ENDCHAR
STARTCHAR CapSampi
ENCODING 181
SWIDTH 718 0
DWIDTH 20 0
BBX 18 19 1 0
BITMAP
07f000
1e1c00
380f00
300700
300780
1007c0
000fc0
001bc0
0037c0
006bc0
00dbc0
01b3c0
0363c0
06c380
0c8780
190700
330e00
661c00
eef000
ENDCHAR
STARTCHAR CurlyEpsilon
ENCODING 182
SWIDTH 513 0
DWIDTH 14 0
BBX 14 13 0 0
BITMAP
03f0
0e3c
1c1c
1c0c
1c00
0ec0
0fc0
7800
f018
f038
f070
78e0
1f80
ENDCHAR
STARTCHAR FinalSigma
ENCODING 183
SWIDTH 539 0
DWIDTH 15 0
BBX 14 19 0 -6
BITMAP
01e0
0738
0e18
1c1c
1c1c
381c
381c
7818
7838
5830
d870
dcc0
cf80
c000
e000
ff80
7fc0
3fc0
0040
ENDCHAR
STARTCHAR Digamma
ENCODING 184
SWIDTH 490 0
DWIDTH 14 0
BBX 14 19 0 -6
BITMAP
00fc
03c0
0f00
0e00
1e00
1ff0
3c00
3c00
3800
3800
3800
7800
7000
7000
7000
6000
e000
e000
e000
ENDCHAR
STARTCHAR Stigma
ENCODING 185
SWIDTH 568 0
DWIDTH 16 0
BBX 15 18 1 -5
BITMAP
07fe
1ffe
3ffc
7000
4000
c000
c000
e000
f800
fe00
7f80
1fc0
07e0
01e0
00e0
00e0
01c0
1f00
ENDCHAR
STARTCHAR Koppa
ENCODING 186
SWIDTH 495 0
DWIDTH 14 0
BBX 13 14 0 -1
BITMAP
07c0
1c70
3830
7038
f038
e038
e038
e070
60e0
71c0
1e00
1e00
1c00
1c00
ENDCHAR
STARTCHAR Sampi
ENCODING 187
SWIDTH 440 0
DWIDTH 12 0
BBX 11 13 1 0
BITMAP
3f00
e3c0
81e0
02e0
0ce0
33e0
66e0
58c0
31c0
4180
0300
0c00
7000
ENDCHAR
STARTCHAR Bet
ENCODING 188
SWIDTH 651 0
DWIDTH 18 0
BBX 17 20 1 0
BITMAP
400000
7ffe00
7fff00
7fff00
7ffe00
000600
000400
000600
000600
000600
000200
000200
000200
000200
000200
7fff80
7fff00
ffff00
fffe00
fffe00
ENDCHAR
STARTCHAR Gimel
ENCODING 189
SWIDTH 329 0
DWIDTH 9 0
BBX 8 20 0 0
BITMAP
60
7e
7f
7f
3f
0e
02
02
02
02
02
02
03
03
03
03
7f
7f
fd
fc
ENDCHAR
STARTCHAR Dalet
ENCODING 190
SWIDTH 549 0
DWIDTH 15 0
BBX 14 20 1 0
BITMAP
8000
fff8
fffc
fffc
fff8
0010
0010
0018
0018
0018
0018
0018
0018
0018
0018
0018
0018
0018
0018
0010
ENDCHAR
STARTCHAR Aleph
ENCODING 191
SWIDTH 504 0
DWIDTH 14 0
BBX 13 13 1 0
BITMAP
1c18
2e20
0e40
0e80
0780
0700
0700
0700
0f00
0b80
1390
23a0
c1c0
ENDCHAR
STARTCHAR CapYAcute
ENCODING 192
SWIDTH 754 0
DWIDTH 21 0
BBX 20 24 1 0
BITMAP
000600
000e00
001800
003000
004000
ff87f0
7c01e0
3c01c0
1e0180
0f0300
0f0600
078600
03cc00
03e800
01f800
00f000
00f000
00f000
00f000
00f000
00f000
00f000
00f000
07fe00
ENDCHAR
STARTCHAR YAcute
ENCODING 193
SWIDTH 552 0
DWIDTH 15 0
BBX 15 25 0 -6
BITMAP
0018
0038
00f0
01c0
0200
0000
fe1e
7c0c
3c0c
3c08
1e18
1e10
0f30
0f20
07e0
07e0
03c0
03c0
0180
0380
0300
6700
7e00
7c00
3800
ENDCHAR
STARTCHAR CapEth
ENCODING 194
SWIDTH 762 0
DWIDTH 21 0
BBX 19 19 1 0
BITMAP
fff000
383c00
380f00
380780
3803c0
3803c0
3801e0
3801e0
ff81e0
ff81e0
ff81e0
3801e0
3801e0
3803c0
3803c0
380780
380f00
3c1e00
fff000
ENDCHAR
STARTCHAR Eth
ENCODING 195
SWIDTH 539 0
DWIDTH 15 0
BBX 13 19 1 0
BITMAP
7000
3c60
0ff0
3f80
7bc0
23c0
0fe0
38f0
7070
6078
e038
e038
e038
e038
f038
7030
7870
3c60
0f80
ENDCHAR
STARTCHAR CapThorn
ENCODING 196
SWIDTH 596 0
DWIDTH 17 0
BBX 15 19 1 0
BITMAP
ff00
7e00
3c00
3c00
3fe0
3c78
3c3c
3c1e
3c1e
3c1e
3c1e
3c3c
3c78
3ff0
3c00
3c00
3c00
7e00
ff00
ENDCHAR
STARTCHAR Thorn
ENCODING 197
SWIDTH 541 0
DWIDTH 15 0
BBX 15 25 -1 -6
BITMAP
0c00
7c00
1c00
1c00
1c00
1c00
1cf0
1df8
1e1c
1c1e
1c0e
1c0e
1c0e
1c0e
1c0e
1c0c
1c1c
1e18
1df0
1c00
1c00
1c00
1c00
3e00
ff80
ENDCHAR
STARTCHAR CapLSlash
ENCODING 198
SWIDTH 643 0
DWIDTH 18 0
BBX 17 19 1 0
BITMAP
7f8000
3f0000
1e0000
1e0000
1e6000
1ec000
1f8000
1f0000
1e0000
1e0000
1e0000
1e0000
3e0000
7e0000
5e0000
de0080
1e0180
1e0380
7fff80
ENDCHAR
STARTCHAR LSlash
ENCODING 199
SWIDTH 397 0
DWIDTH 11 0
BBX 10 19 1 0
BITMAP
0c00
7c00
1c00
1c00
1cc0
1d80
1f00
1e00
1c00
1c00
1c00
3c00
7c00
dc00
1c00
1c00
1c00
3e00
ff80
ENDCHAR
STARTCHAR DownQuestion
ENCODING 200
SWIDTH 466 0
DWIDTH 13 0
BBX 11 19 1 -6
BITMAP
0e00
1e00
1e00
0e00
0000
0600
0e00
0c00
1c00
1800
3800
7000
6000
e0c0
e0e0
e0e0
f0e0
78c0
1f00
ENDCHAR
STARTCHAR Cent
ENCODING 201
SWIDTH 500 0
DWIDTH 14 0
BBX 12 18 1 -3
BITMAP
0300
0300
07c0
38e0
7070
6070
e000
e000
e000
e000
f010
7010
7860
3fc0
0f80
0300
0300
0300
ENDCHAR
STARTCHAR Nbspace
ENCODING 202
SWIDTH 189 0
DWIDTH 5 0
BBX 0 0 0 0
BITMAP
ENDCHAR
STARTCHAR Sterling
ENCODING 203
SWIDTH 641 0
DWIDTH 18 0
BBX 14 19 2 0
BITMAP
00f0
0318
073c
063c
0e18
0e00
0e00
0e00
7fe0
7fe0
0e00
0e00
0e00
0e00
7c04
ff1c
8ff8
9ff0
71e0
ENDCHAR
STARTCHAR DownExclamation
ENCODING 204
SWIDTH 333 0
DWIDTH 9 0
BBX 5 20 2 -7
BITMAP
30
78
78
30
00
00
10
30
30
30
30
30
78
78
78
f0
f0
f0
f0
70
ENDCHAR
STARTCHAR Section
ENCODING 205
SWIDTH 496 0
DWIDTH 14 0
BBX 11 23 1 -4
BITMAP
0f00
3980
73c0
73c0
7980
3c00
3e00
3f80
67c0
c1c0
c0e0
e0e0
e060
7860
3c40
1f80
0f80
0380
39c0
78c0
78c0
3180
1f00
ENDCHAR
STARTCHAR Paragraph
ENCODING 206
SWIDTH 584 0
DWIDTH 16 0
BBX 14 25 1 -6
BITMAP
0ffc
39fc
79cc
f1cc
f1cc
f1cc
f1cc
f1cc
71cc
79cc
3dcc
0fcc
01cc
01cc
01cc
01cc
01cc
01cc
01cc
01cc
01cc
01cc
01cc
01cc
01cc
ENDCHAR
STARTCHAR Yen
ENCODING 207
SWIDTH 645 0
DWIDTH 18 0
BBX 16 19 1 0
BITMAP
ff3f
7c0e
3c06
3e04
1e0c
1f18
0f10
07b0
07e0
3ffe
3ffe
01c0
3ffe
3ffe
01c0
01c0
01c0
03c0
0ff8
ENDCHAR
STARTCHAR Micro
ENCODING 208
SWIDTH 555 0
DWIDTH 16 0
BBX 15 19 1 -6
BITMAP
6060
e0e0
e0e0
e0e0
e0e0
e0e0
e0e0
e0e0
e0e0
e0e0
e0e2
f1e4
fe78
e000
e000
e000
e000
e000
e000
ENDCHAR
STARTCHAR HBar
ENCODING 209
SWIDTH 555 0
DWIDTH 16 0
BBX 14 19 1 0
BITMAP
1f00
0700
0700
0f60
0fc0
3e00
fe70
9ef8
1db8
3f38
3e38
3c70
7870
7870
70f0
70e0
f0e4
e0e8
e0f0
ENDCHAR
STARTCHAR DotlessI
ENCODING 210
SWIDTH 291 0
DWIDTH 8 0
BBX 7 13 1 0
BITMAP
18
f8
38
38
38
38
38
38
38
38
38
38
fe
ENDCHAR
STARTCHAR ItalDotlessI
ENCODING 211
SWIDTH 268 0
DWIDTH 8 0
BBX 6 13 1 0
BITMAP
3c
7c
3c
38
38
38
70
70
70
f0
e4
ec
70
ENDCHAR
STARTCHAR DotlessJ
ENCODING 212
SWIDTH 295 0
DWIDTH 8 0
BBX 9 19 -2 -6
BITMAP
0180
0f80
0380
0380
0380
0380
0380
0380
0380
0380
0380
0380
0380
0380
0380
e380
e300
e700
3c00
ENDCHAR
STARTCHAR ItalDotlessJ
ENCODING 213
SWIDTH 410 0
DWIDTH 11 0
BBX 11 19 -1 -6
BITMAP
00e0
03e0
00e0
01e0
01c0
01c0
01c0
01c0
0380
0380
0380
0380
0700
0700
0700
c600
ee00
cc00
7800
ENDCHAR
STARTCHAR Dagger
ENCODING 214
SWIDTH 581 0
DWIDTH 16 0
BBX 14 23 1 -4
BITMAP
0380
0380
0380
0380
0100
f93c
fffc
f93c
0100
0100
0380
0380
0380
0380
0300
0100
0100
0100
0100
0100
0100
0100
0100
ENDCHAR
STARTCHAR DoubleDagger
ENCODING 215
SWIDTH 513 0
DWIDTH 14 0
BBX 13 23 0 -4
BITMAP
0700
0700
0700
0700
0200
7278
fff8
7278
0200
0300
0700
0780
0700
0300
0200
7278
fff8
7278
0200
0700
0700
0700
0700
ENDCHAR
STARTCHAR Degree
ENCODING 216
SWIDTH 404 0
DWIDTH 11 0
BBX 9 10 1 10
BITMAP
3e00
7f00
6300
c180
c180
c180
c180
6300
7f00
3e00
ENDCHAR
STARTCHAR Flat
ENCODING 217
SWIDTH 396 0
DWIDTH 11 0
BBX 9 22 1 -1
BITMAP
4000
c000
c000
c000
c000
c000
c000
c000
de00
ff00
e780
c380
c380
c380
c380
c380
c700
c700
ce00
dc00
f800
e000
ENDCHAR
STARTCHAR Natural
ENCODING 218
SWIDTH 374 0
DWIDTH 10 0
BBX 9 26 1 -6
BITMAP
4000
c000
c000
c000
c000
c080
c780
ff80
ff80
ff80
f180
c180
c180
c180
c180
c180
c380
df80
ff80
ff80
f980
c180
0180
0180
0180
0180
ENDCHAR
STARTCHAR Sharp
ENCODING 219
SWIDTH 419 0
DWIDTH 12 0
BBX 11 28 1 -6
BITMAP
0080
0180
2180
6180
6180
61a0
61c0
6fc0
7fc0
ff80
ff80
e180
e180
6180
6180
6180
61c0
63c0
7fc0
ffc0
ff80
f980
e180
6180
6180
6100
6000
4000
ENDCHAR
STARTCHAR QuestionBox
ENCODING 220
SWIDTH 913 0
DWIDTH 26 0
BBX 21 21 2 0
BITMAP
fffff8
fffff8
c00018
c07c18
c0ff18
c1c718
c1c318
c00f18
c01c18
c01818
c03018
c03018
c03018
c00018
c00018
c00018
c03018
c03018
c00018
fffff8
fffff8
ENDCHAR
STARTCHAR ErrorIndicator
ENCODING 221
SWIDTH 868 0
DWIDTH 24 0
BBX 21 14 2 0
BITMAP
fffff8
fffff8
c00018
c02018
c07018
c0d818
c18c18
c10418
c30618
c60318
cc0198
c00018
fffff8
fffff8
ENDCHAR
STARTCHAR Angstrom
ENCODING 222
SWIDTH 609 0
DWIDTH 17 0
BBX 15 20 1 0
BITMAP
0300
0cc0
0cc0
0cc0
0780
0300
0300
0380
0780
05c0
0dc0
09e0
19e0
1ff0
30f0
2078
6078
403c
403c
c01e
ENDCHAR
STARTCHAR LamdaSlash
ENCODING 223
SWIDTH 523 0
DWIDTH 15 0
BBX 14 19 1 0
BITMAP
1e00
2700
0700
0388
03f8
03c0
1fc0
33c0
03c0
07c0
05c0
09c0
09c0
11c0
31c0
21c0
60e0
e0e4
e078
ENDCHAR
STARTCHAR SolidSquare
ENCODING 224
SWIDTH 714 0
DWIDTH 20 0
BBX 16 15 2 0
BITMAP
ffff
ffff
ffff
ffff
ffff
ffff
ffff
ffff
ffff
ffff
ffff
ffff
ffff
ffff
ffff
ENDCHAR
STARTCHAR Square
ENCODING 225
SWIDTH 714 0
DWIDTH 20 0
BBX 16 15 2 0
BITMAP
ffff
ffff
c003
c003
c003
c003
c003
c003
c003
c003
c003
c003
c003
ffff
ffff
ENDCHAR
STARTCHAR MedSolidSquare
ENCODING 226
SWIDTH 519 0
DWIDTH 15 0
BBX 11 11 2 2
BITMAP
ffe0
ffe0
ffe0
ffe0
ffe0
ffe0
ffe0
ffe0
ffe0
ffe0
ffe0
ENDCHAR
STARTCHAR MedEmptySquare
ENCODING 227
SWIDTH 519 0
DWIDTH 15 0
BBX 11 11 2 2
BITMAP
ffe0
ffe0
c060
c060
c060
c060
c060
c060
c060
ffe0
ffe0
ENDCHAR
STARTCHAR SmallSolidSquare
ENCODING 228
SWIDTH 374 0
DWIDTH 10 0
BBX 7 7 2 5
BITMAP
fe
fe
fe
fe
fe
fe
fe
ENDCHAR
STARTCHAR SmallEmptySquare
ENCODING 229
SWIDTH 374 0
DWIDTH 10 0
BBX 7 7 2 5
BITMAP
fe
fe
c6
c6
c6
fe
fe
ENDCHAR
STARTCHAR SolidCircle
ENCODING 230
SWIDTH 759 0
DWIDTH 21 0
BBX 18 17 1 0
BITMAP
03f000
0ffc00
3fff00
7fff80
7fff80
ffffc0
ffffc0
ffffc0
ffffc0
ffffc0
ffffc0
ffffc0
7fff80
7fff80
3fff00
0ffc00
03f000
ENDCHAR
STARTCHAR Circle
ENCODING 231
SWIDTH 759 0
DWIDTH 21 0
BBX 19 18 1 -1
BITMAP
03f800
0ffe00
1e0f00
380380
7001c0
6000c0
e000e0
c00060
c00060
c00060
c00060
e000e0
6000c0
7001c0
380380
1e0f00
0ffe00
03f800
ENDCHAR
STARTCHAR Bullet
ENCODING 232
SWIDTH 520 0
DWIDTH 15 0
BBX 12 11 1 2
BITMAP
1f80
3fc0
7fe0
fff0
fff0
fff0
fff0
fff0
7fe0
3fc0
1f80
ENDCHAR
STARTCHAR SmallCircle
ENCODING 233
SWIDTH 520 0
DWIDTH 15 0
BBX 12 12 1 2
BITMAP
1f80
3fc0
70e0
e070
c030
c030
c030
c030
e070
70e0
3fc0
1f80
ENDCHAR
STARTCHAR Dot
ENCODING 234
SWIDTH 354 0
DWIDTH 10 0
BBX 8 7 1 5
BITMAP
3c
7e
ff
ff
ff
7e
3c
ENDCHAR
STARTCHAR OpenDot
ENCODING 235
SWIDTH 424 0
DWIDTH 12 0
BBX 10 9 1 4
BITMAP
1e00
7f80
e1c0
c0c0
c0c0
c0c0
e1c0
7f80
1e00
ENDCHAR
STARTCHAR MedSolidDiamond
ENCODING 236
SWIDTH 744 0
DWIDTH 21 0
BBX 18 16 1 0
BITMAP
00c000
01e000
03f000
07f800
0ffc00
1ffe00
7fff80
ffffc0
ffffc0
3fff00
1ffe00
0ffc00
07f800
03f000
01e000
00c000
ENDCHAR
STARTCHAR MedEmptyDiamond
ENCODING 237
SWIDTH 624 0
DWIDTH 17 0
BBX 15 16 1 0
BITMAP
0100
0380
07c0
0ee0
1c70
3838
701c
e00e
e00e
701c
3838
1c70
0ee0
07c0
0380
0100
ENDCHAR
STARTCHAR SmallSolidDiamond
ENCODING 238
SWIDTH 512 0
DWIDTH 14 0
BBX 12 12 1 2
BITMAP
0600
0f00
1f80
3fc0
7fe0
fff0
fff0
7fe0
3fc0
1f80
0f00
0600
ENDCHAR
STARTCHAR SmallEmptyDiamond
ENCODING 239
SWIDTH 512 0
DWIDTH 14 0
BBX 12 12 1 2
BITMAP
0600
0f00
1f80
39c0
70e0
e070
e070
70e0
39c0
1f80
0f00
0600
ENDCHAR
STARTCHAR SolidRectangle
ENCODING 240
SWIDTH 528 0
DWIDTH 15 0
BBX 11 15 2 0
BITMAP
ffe0
ffe0
ffe0
ffe0
ffe0
ffe0
ffe0
ffe0
ffe0
ffe0
ffe0
ffe0
ffe0
ffe0
ffe0
ENDCHAR
STARTCHAR Rectangle
ENCODING 241
SWIDTH 528 0
DWIDTH 15 0
BBX 11 15 2 0
BITMAP
ffe0
ffe0
c060
c060
c060
c060
c060
c060
c060
c060
c060
c060
c060
ffe0
ffe0
ENDCHAR
STARTCHAR SolidUpTriangle
ENCODING 242
SWIDTH 699 0
DWIDTH 20 0
BBX 17 16 1 0
BITMAP
008000
008000
01c000
01c000
03e000
03e000
07f000
0ff800
0ff800
1ffc00
1ffc00
3ffe00
3ffe00
7fff00
7fff00
ffff80
ENDCHAR
STARTCHAR UpTriangle
ENCODING 243
SWIDTH 699 0
DWIDTH 20 0
BBX 17 16 1 0
BITMAP
008000
008000
01c000
01c000
03e000
036000
077000
0e3800
0e3800
1c1c00
180c00
380e00
300600
700700
7fff00
ffff80
ENDCHAR
STARTCHAR SolidDownTriangle
ENCODING 244
SWIDTH 699 0
DWIDTH 20 0
BBX 17 15 1 0
BITMAP
ffff80
7fff00
7fff00
3ffe00
3ffe00
1ffc00
0ff800
0ff800
07f000
07f000
03e000
03e000
01c000
008000
008000
ENDCHAR
STARTCHAR DownTriangle
ENCODING 245
SWIDTH 699 0
DWIDTH 20 0
BBX 17 15 1 0
BITMAP
ffff80
7fff00
700700
300600
380e00
1c1c00
0c1800
0e3800
063000
077000
03e000
03e000
01c000
008000
008000
ENDCHAR
STARTCHAR SolidDiamond
ENCODING 246
SWIDTH 500 0
DWIDTH 14 0
BBX 11 17 1 -1
BITMAP
0400
0600
0e00
1f00
1f80
3f80
7fc0
ffe0
ffe0
ffe0
7fc0
3f80
1f80
1f00
0e00
0600
0400
ENDCHAR
STARTCHAR Star6
ENCODING 247
SWIDTH 600 0
DWIDTH 17 0
BBX 15 17 1 -2
BITMAP
0100
0100
0380
07c0
fffe
7ffc
7ffc
3ff8
3ff8
7ffc
7ffc
fffe
07c0
0380
0380
0100
0100
ENDCHAR
STARTCHAR Star
ENCODING 248
SWIDTH 820 0
DWIDTH 23 0
BBX 20 18 1 -1
BITMAP
002000
002000
006000
006000
006000
00f000
00f000
fffff0
3fffc0
0fff00
03fc00
03fc00
03fc00
03fc00
070e00
060600
0c0300
080080
ENDCHAR
STARTCHAR Bullet3
ENCODING 249
SWIDTH 676 0
DWIDTH 19 0
BBX 17 17 1 0
BITMAP
ffff80
ffff80
ffff80
ffff80
ffff80
ffff80
ffff80
ffff80
ffff80
fffe80
fffc80
fff880
fff080
ffe080
ffc080
ff8080
ffff80
ENDCHAR
STARTCHAR Bullet4
ENCODING 250
SWIDTH 676 0
DWIDTH 19 0
BBX 17 17 1 0
BITMAP
ffff80
ffff80
ffff80
ffff80
ffff80
ffff80
ffff80
ffff80
ffff80
ffff80
ffff80
ffe080
ffe080
ffe080
ffe080
ffe080
ffff80
ENDCHAR
STARTCHAR Euler
ENCODING 251
SWIDTH 531 0
DWIDTH 15 0
BBX 13 19 1 0
BITMAP
0fc0
1870
3030
7010
7000
7000
7000
3800
1e00
1f00
7800
7000
f000
f000
f000
f008
7818
3c70
0fe0
ENDCHAR
STARTCHAR ImagJ
ENCODING 252
SWIDTH 387 0
DWIDTH 11 0
BBX 13 24 -3 -6
BITMAP
0020
0070
0070
0020
0000
0000
00f8
03e8
01d0
01d0
01d0
01d0
0390
03a0
03a0
03a0
0720
0740
0740
0f40
0e80
cd00
de00
7c00
ENDCHAR
STARTCHAR DoubleGamma
ENCODING 253
SWIDTH 580 0
DWIDTH 16 0
BBX 16 18 0 -6
BITMAP
1e03
3f0e
7e8e
c75c
8758
0378
0370
0360
0340
0340
0340
0680
0e80
0e80
1f00
3d00
3e00
3c00
ENDCHAR
STARTCHAR DoublePi
ENCODING 254
SWIDTH 620 0
DWIDTH 17 0
BBX 17 13 0 0
BITMAP
1fff80
7fff80
4e9800
8d1800
0d3800
1d3800
193000
1a7000
3a7000
747800
f47c00
e87c00
f03c00
ENDCHAR
STARTCHAR DoubleScriptCapD
ENCODING 255
SWIDTH 855 0
DWIDTH 24 0
BBX 23 19 0 0
BITMAP
00ffc0
0f00f0
186078
05e03c
05e01c
05e01e
07c01e
0bc01e
0bc01e
0b801e
0f801e
17803c
17803c
170078
2f0078
2f00f0
2f01c0
5f0780
fffc00
ENDCHAR
ENDFONT
