STARTFONT 2.1
FONT -WRI-Mathematica6Mono-Medium-R-Normal--20-200-75-75-M-60-Adobe-FontSpecific
SIZE 20 75 75
FONTBOUNDINGBOX 14 17 0 -4
STARTPROPERTIES 16
FOUNDRY "WRI"
FAMILY_NAME "Mathematica6Mono"
WEIGHT_NAME "Medium"
SLANT "R"
SETWIDTH_NAME "Normal"
PIXEL_SIZE 20
POINT_SIZE 200
RESOLUTION_X 75
RESOLUTION_Y 75
SPACING "M"
AVERAGE_WIDTH 60
CHARSET_REGISTRY "Adobe"
CHARSET_ENCODING "FontSpecific"
FONT_DESCENT 4
FONT_ASCENT 13
DEFAULT_CHAR 32
ENDPROPERTIES
CHARS 224
STARTCHAR space
ENCODING 32
SWIDTH 263 0
DWIDTH 5 0
BBX 0 0 0 0
BITMAP
ENDCHAR
STARTCHAR exclam
ENCODING 33
SWIDTH 263 0
DWIDTH 5 0
BBX 0 0 0 0
BITMAP
ENDCHAR
STARTCHAR quotedbl
ENCODING 34
SWIDTH 263 0
DWIDTH 5 0
BBX 0 0 0 0
BITMAP
ENDCHAR
STARTCHAR numbersign
ENCODING 35
SWIDTH 263 0
DWIDTH 5 0
BBX 0 0 0 0
BITMAP
ENDCHAR
STARTCHAR dollar
ENCODING 36
SWIDTH 263 0
DWIDTH 5 0
BBX 0 0 0 0
BITMAP
ENDCHAR
STARTCHAR percent
ENCODING 37
SWIDTH 263 0
DWIDTH 5 0
BBX 0 0 0 0
BITMAP
ENDCHAR
STARTCHAR ampersand
ENCODING 38
SWIDTH 263 0
DWIDTH 5 0
BBX 0 0 0 0
BITMAP
ENDCHAR
STARTCHAR quotesingle
ENCODING 39
SWIDTH 263 0
DWIDTH 5 0
BBX 0 0 0 0
BITMAP
ENDCHAR
STARTCHAR parenleft
ENCODING 40
SWIDTH 263 0
DWIDTH 5 0
BBX 0 0 0 0
BITMAP
ENDCHAR
STARTCHAR parenright
ENCODING 41
SWIDTH 263 0
DWIDTH 5 0
BBX 0 0 0 0
BITMAP
ENDCHAR
STARTCHAR asterisk
ENCODING 42
SWIDTH 263 0
DWIDTH 5 0
BBX 0 0 0 0
BITMAP
ENDCHAR
STARTCHAR plus
ENCODING 43
SWIDTH 263 0
DWIDTH 5 0
BBX 0 0 0 0
BITMAP
ENDCHAR
STARTCHAR comma
ENCODING 44
SWIDTH 263 0
DWIDTH 5 0
BBX 0 0 0 0
BITMAP
ENDCHAR
STARTCHAR hyphen
ENCODING 45
SWIDTH 263 0
DWIDTH 5 0
BBX 0 0 0 0
BITMAP
ENDCHAR
STARTCHAR period
ENCODING 46
SWIDTH 263 0
DWIDTH 5 0
BBX 0 0 0 0
BITMAP
ENDCHAR
STARTCHAR slash
ENCODING 47
SWIDTH 263 0
DWIDTH 5 0
BBX 0 0 0 0
BITMAP
ENDCHAR
STARTCHAR GothicZero
ENCODING 48
SWIDTH 564 0
DWIDTH 11 0
BBX 8 12 2 0
BITMAP
3c
66
42
81
81
81
81
81
81
42
66
3c
ENDCHAR
STARTCHAR GothicOne
ENCODING 49
SWIDTH 564 0
DWIDTH 11 0
BBX 5 12 3 0
BITMAP
60
a0
20
20
20
20
20
20
20
20
20
f8
ENDCHAR
STARTCHAR GothicTwo
ENCODING 50
SWIDTH 564 0
DWIDTH 11 0
BBX 7 12 2 0
BITMAP
38
44
42
02
02
04
08
10
30
60
40
fe
ENDCHAR
STARTCHAR GothicThree
ENCODING 51
SWIDTH 564 0
DWIDTH 11 0
BBX 7 12 2 0
BITMAP
38
44
02
02
04
18
04
02
02
02
84
78
ENDCHAR
STARTCHAR GothicFour
ENCODING 52
SWIDTH 564 0
DWIDTH 11 0
BBX 7 12 2 0
BITMAP
0c
14
14
24
24
44
44
84
fe
04
04
1e
ENDCHAR
STARTCHAR GothicFive
ENCODING 53
SWIDTH 564 0
DWIDTH 11 0
BBX 8 11 2 0
BITMAP
7e
40
40
7c
42
01
01
01
03
c6
3c
ENDCHAR
STARTCHAR GothicSix
ENCODING 54
SWIDTH 564 0
DWIDTH 11 0
BBX 6 12 3 0
BITMAP
10
10
20
40
40
70
c8
84
84
84
48
30
ENDCHAR
STARTCHAR GothicSeven
ENCODING 55
SWIDTH 564 0
DWIDTH 11 0
BBX 8 12 2 0
BITMAP
ff
01
02
02
02
04
04
04
08
08
10
10
ENDCHAR
STARTCHAR GothicEight
ENCODING 56
SWIDTH 564 0
DWIDTH 11 0
BBX 8 12 2 0
BITMAP
18
24
42
42
66
1c
66
81
81
83
66
3c
ENDCHAR
STARTCHAR GothicNine
ENCODING 57
SWIDTH 564 0
DWIDTH 11 0
BBX 6 12 3 0
BITMAP
30
48
84
84
84
cc
74
08
08
10
10
20
ENDCHAR
STARTCHAR colon
ENCODING 58
SWIDTH 263 0
DWIDTH 5 0
BBX 0 0 0 0
BITMAP
ENDCHAR
STARTCHAR semicolon
ENCODING 59
SWIDTH 263 0
DWIDTH 5 0
BBX 0 0 0 0
BITMAP
ENDCHAR
STARTCHAR less
ENCODING 60
SWIDTH 263 0
DWIDTH 5 0
BBX 0 0 0 0
BITMAP
ENDCHAR
STARTCHAR equal
ENCODING 61
SWIDTH 263 0
DWIDTH 5 0
BBX 0 0 0 0
BITMAP
ENDCHAR
STARTCHAR greater
ENCODING 62
SWIDTH 263 0
DWIDTH 5 0
BBX 0 0 0 0
BITMAP
ENDCHAR
STARTCHAR question
ENCODING 63
SWIDTH 263 0
DWIDTH 5 0
BBX 0 0 0 0
BITMAP
ENDCHAR
STARTCHAR at
ENCODING 64
SWIDTH 263 0
DWIDTH 5 0
BBX 0 0 0 0
BITMAP
ENDCHAR
STARTCHAR GothicCapA
ENCODING 65
SWIDTH 591 0
DWIDTH 12 0
BBX 10 12 1 0
BITMAP
7c00
9380
2080
2080
2080
2080
7c80
2080
2080
2080
2080
1040
ENDCHAR
STARTCHAR GothicCapB
ENCODING 66
SWIDTH 582 0
DWIDTH 12 0
BBX 10 12 1 0
BITMAP
fe00
2100
2080
2100
3f00
2080
2040
2040
2040
e080
3180
0e00
ENDCHAR
STARTCHAR GothicCapC
ENCODING 67
SWIDTH 545 0
DWIDTH 11 0
BBX 9 11 1 0
BITMAP
1c00
6380
8000
8000
8000
8000
8000
8000
4000
2180
1e00
ENDCHAR
STARTCHAR GothicCapD
ENCODING 68
SWIDTH 631 0
DWIDTH 13 0
BBX 11 12 1 0
BITMAP
7e00
9180
1040
1020
1020
1020
1020
1020
1020
a040
6080
1f00
ENDCHAR
STARTCHAR GothicCapE
ENCODING 69
SWIDTH 535 0
DWIDTH 11 0
BBX 9 11 1 0
BITMAP
1c00
6380
8000
8000
8080
bf00
c000
8000
4000
2180
1e00
ENDCHAR
STARTCHAR GothicCapF
ENCODING 70
SWIDTH 538 0
DWIDTH 11 0
BBX 10 14 1 -2
BITMAP
f800
0fc0
1000
1000
1000
2000
7f00
1000
1000
1000
1000
1000
1000
1000
ENDCHAR
STARTCHAR GothicCapG
ENCODING 71
SWIDTH 543 0
DWIDTH 11 0
BBX 10 11 1 0
BITMAP
3e00
4180
8000
8000
8000
8f80
8040
8040
4080
2300
1c00
ENDCHAR
STARTCHAR GothicCapH
ENCODING 72
SWIDTH 567 0
DWIDTH 11 0
BBX 10 12 1 0
BITMAP
8300
4080
4080
4080
4080
7f80
4080
4080
4080
4080
4080
3040
ENDCHAR
STARTCHAR GothicCapI
ENCODING 73
SWIDTH 310 0
DWIDTH 6 0
BBX 5 12 1 0
BITMAP
f0
18
10
10
10
10
10
10
10
10
30
08
ENDCHAR
STARTCHAR GothicCapJ
ENCODING 74
SWIDTH 537 0
DWIDTH 11 0
BBX 9 11 1 0
BITMAP
7880
0700
0100
0200
0200
8200
8200
8200
4400
7800
2000
ENDCHAR
STARTCHAR GothicCapK
ENCODING 75
SWIDTH 608 0
DWIDTH 12 0
BBX 11 12 1 0
BITMAP
f060
1880
1100
1300
1200
1f00
1100
1100
1080
2080
2080
1840
ENDCHAR
STARTCHAR GothicCapL
ENCODING 76
SWIDTH 600 0
DWIDTH 12 0
BBX 10 12 1 0
BITMAP
0600
0900
1080
1100
1000
1000
0800
1000
1000
2000
f840
0780
ENDCHAR
STARTCHAR GothicCapM
ENCODING 77
SWIDTH 674 0
DWIDTH 13 0
BBX 12 12 1 0
BITMAP
5040
69c0
4620
4210
4210
4210
4210
4210
4210
8210
8210
6210
ENDCHAR
STARTCHAR GothicCapN
ENCODING 78
SWIDTH 449 0
DWIDTH 9 0
BBX 7 11 1 0
BITMAP
90
e8
86
82
82
82
82
82
82
82
42
ENDCHAR
STARTCHAR GothicCapO
ENCODING 79
SWIDTH 609 0
DWIDTH 12 0
BBX 11 11 1 0
BITMAP
3f00
6080
4040
8020
8020
8020
8020
8020
40c0
2100
1e00
ENDCHAR
STARTCHAR GothicCapP
ENCODING 80
SWIDTH 536 0
DWIDTH 11 0
BBX 9 12 1 0
BITMAP
3e00
4100
a080
2080
2080
2100
3e00
2000
2000
2000
2000
1000
ENDCHAR
STARTCHAR GothicCapQ
ENCODING 81
SWIDTH 662 0
DWIDTH 13 0
BBX 12 11 1 0
BITMAP
3f00
6080
4040
8020
8020
8020
8020
9c20
43c0
3180
0e70
ENDCHAR
STARTCHAR GothicCapR
ENCODING 82
SWIDTH 630 0
DWIDTH 13 0
BBX 11 12 1 0
BITMAP
3f00
4080
a080
2080
2100
2f00
2100
2080
2080
2040
2040
1020
ENDCHAR
STARTCHAR GothicCapS
ENCODING 83
SWIDTH 559 0
DWIDTH 11 0
BBX 10 11 1 0
BITMAP
0c00
33c0
4000
4000
4780
3840
8040
4040
20c0
1300
0c00
ENDCHAR
STARTCHAR GothicCapT
ENCODING 84
SWIDTH 727 0
DWIDTH 15 0
BBX 13 11 1 0
BITMAP
3c08
43f0
8200
8200
4200
0200
0200
0200
0400
0400
0300
ENDCHAR
STARTCHAR GothicCapU
ENCODING 85
SWIDTH 547 0
DWIDTH 11 0
BBX 9 12 1 0
BITMAP
8100
4080
4080
4080
4080
4080
4080
4080
4080
4180
2680
1880
ENDCHAR
STARTCHAR GothicCapV
ENCODING 86
SWIDTH 492 0
DWIDTH 10 0
BBX 8 12 1 0
BITMAP
82
41
41
41
41
41
41
41
41
42
24
18
ENDCHAR
STARTCHAR GothicCapW
ENCODING 87
SWIDTH 742 0
DWIDTH 15 0
BBX 13 12 1 0
BITMAP
8110
4208
4208
4208
4208
4208
4208
4208
4208
4610
3920
10c0
ENDCHAR
STARTCHAR GothicCapX
ENCODING 88
SWIDTH 562 0
DWIDTH 11 0
BBX 10 12 1 0
BITMAP
6380
2080
1100
0a00
0c00
ff80
1400
3200
2100
c100
4080
2040
ENDCHAR
STARTCHAR GothicCapY
ENCODING 89
SWIDTH 472 0
DWIDTH 9 0
BBX 8 12 1 0
BITMAP
86
41
41
41
41
41
43
35
0d
01
66
18
ENDCHAR
STARTCHAR GothicCapZ
ENCODING 90
SWIDTH 646 0
DWIDTH 13 0
BBX 12 11 1 0
BITMAP
3e00
01f0
0040
0080
0d00
13c0
0400
0800
1000
7800
87e0
ENDCHAR
STARTCHAR bracketleft
ENCODING 91
SWIDTH 263 0
DWIDTH 5 0
BBX 0 0 0 0
BITMAP
ENDCHAR
STARTCHAR backslash
ENCODING 92
SWIDTH 263 0
DWIDTH 5 0
BBX 0 0 0 0
BITMAP
ENDCHAR
STARTCHAR bracketright
ENCODING 93
SWIDTH 263 0
DWIDTH 5 0
BBX 0 0 0 0
BITMAP
ENDCHAR
STARTCHAR asciicircum
ENCODING 94
SWIDTH 263 0
DWIDTH 5 0
BBX 0 0 0 0
BITMAP
ENDCHAR
STARTCHAR underscore
ENCODING 95
SWIDTH 263 0
DWIDTH 5 0
BBX 0 0 0 0
BITMAP
ENDCHAR
STARTCHAR grave
ENCODING 96
SWIDTH 263 0
DWIDTH 5 0
BBX 0 0 0 0
BITMAP
ENDCHAR
STARTCHAR GothicA
ENCODING 97
SWIDTH 373 0
DWIDTH 7 0
BBX 6 9 0 0
BITMAP
30
cc
84
84
84
84
84
dc
24
ENDCHAR
STARTCHAR GothicB
ENCODING 98
SWIDTH 377 0
DWIDTH 8 0
BBX 6 13 0 0
BITMAP
80
80
80
80
b0
cc
84
84
84
84
c4
e8
90
ENDCHAR
STARTCHAR GothicC
ENCODING 99
SWIDTH 331 0
DWIDTH 7 0
BBX 5 9 0 0
BITMAP
20
d8
80
80
80
80
80
48
30
ENDCHAR
STARTCHAR GothicD
ENCODING 100
SWIDTH 382 0
DWIDTH 8 0
BBX 6 13 0 0
BITMAP
04
04
04
04
34
cc
84
84
84
84
8c
54
24
ENDCHAR
STARTCHAR GothicE
ENCODING 101
SWIDTH 320 0
DWIDTH 6 0
BBX 5 9 0 0
BITMAP
20
d0
98
a0
c0
80
80
c8
30
ENDCHAR
STARTCHAR GothicF
ENCODING 102
SWIDTH 308 0
DWIDTH 6 0
BBX 6 14 0 -2
BITMAP
10
6c
40
40
f8
40
40
40
40
40
40
40
40
40
ENDCHAR
STARTCHAR GothicG
ENCODING 103
SWIDTH 392 0
DWIDTH 8 0
BBX 6 13 0 -4
BITMAP
30
4c
84
84
84
84
84
5c
24
04
84
58
20
ENDCHAR
STARTCHAR GothicH
ENCODING 104
SWIDTH 393 0
DWIDTH 8 0
BBX 6 12 0 0
BITMAP
80
80
80
80
b8
c4
84
84
84
84
84
84
ENDCHAR
STARTCHAR GothicI
ENCODING 105
SWIDTH 163 0
DWIDTH 3 0
BBX 2 12 0 0
BITMAP
80
00
00
80
80
80
80
80
80
80
80
40
ENDCHAR
STARTCHAR GothicJ
ENCODING 106
SWIDTH 235 0
DWIDTH 5 0
BBX 3 16 0 -4
BITMAP
20
00
00
20
20
20
20
20
20
20
20
20
20
40
40
80
ENDCHAR
STARTCHAR GothicK
ENCODING 107
SWIDTH 339 0
DWIDTH 7 0
BBX 5 12 0 0
BITMAP
80
80
80
90
f0
88
b0
d8
88
88
88
88
ENDCHAR
STARTCHAR GothicL
ENCODING 108
SWIDTH 163 0
DWIDTH 3 0
BBX 2 12 0 0
BITMAP
40
40
40
40
40
40
40
40
40
80
80
40
ENDCHAR
STARTCHAR GothicM
ENCODING 109
SWIDTH 606 0
DWIDTH 12 0
BBX 10 8 1 0
BITMAP
b100
cec0
8440
8440
8440
8440
8440
8440
ENDCHAR
STARTCHAR GothicN
ENCODING 110
SWIDTH 428 0
DWIDTH 9 0
BBX 6 8 1 0
BITMAP
b0
cc
84
84
84
84
84
84
ENDCHAR
STARTCHAR GothicO
ENCODING 111
SWIDTH 364 0
DWIDTH 7 0
BBX 6 9 0 0
BITMAP
30
48
84
84
84
84
84
c8
30
ENDCHAR
STARTCHAR GothicP
ENCODING 112
SWIDTH 366 0
DWIDTH 7 0
BBX 6 13 0 -4
BITMAP
30
cc
84
84
84
84
84
ec
b0
80
80
80
80
ENDCHAR
STARTCHAR GothicQ
ENCODING 113
SWIDTH 369 0
DWIDTH 7 0
BBX 6 13 0 -4
BITMAP
30
cc
84
84
84
84
84
dc
24
04
04
04
04
ENDCHAR
STARTCHAR GothicR
ENCODING 114
SWIDTH 343 0
DWIDTH 7 0
BBX 5 9 1 0
BITMAP
90
f8
80
80
80
80
80
80
80
ENDCHAR
STARTCHAR GothicS
ENCODING 115
SWIDTH 449 0
DWIDTH 9 0
BBX 8 9 0 0
BITMAP
1c
63
40
4e
32
41
e1
26
18
ENDCHAR
STARTCHAR GothicT
ENCODING 116
SWIDTH 323 0
DWIDTH 6 0
BBX 5 10 0 0
BITMAP
20
20
f8
20
20
20
20
20
20
10
ENDCHAR
STARTCHAR GothicU
ENCODING 117
SWIDTH 407 0
DWIDTH 8 0
BBX 6 8 1 0
BITMAP
84
84
84
84
84
84
cc
34
ENDCHAR
STARTCHAR GothicV
ENCODING 118
SWIDTH 389 0
DWIDTH 8 0
BBX 5 8 1 0
BITMAP
88
88
88
88
88
88
d0
20
ENDCHAR
STARTCHAR GothicW
ENCODING 119
SWIDTH 600 0
DWIDTH 12 0
BBX 10 8 1 0
BITMAP
8440
8440
8440
8440
8440
8440
dc80
2300
ENDCHAR
STARTCHAR GothicX
ENCODING 120
SWIDTH 454 0
DWIDTH 9 0
BBX 8 9 0 0
BITMAP
c4
22
14
79
9e
24
44
82
41
ENDCHAR
STARTCHAR GothicY
ENCODING 121
SWIDTH 412 0
DWIDTH 8 0
BBX 6 13 1 -4
BITMAP
44
44
44
44
44
44
44
3c
14
04
84
78
30
ENDCHAR
STARTCHAR GothicZ
ENCODING 122
SWIDTH 453 0
DWIDTH 9 0
BBX 8 9 0 0
BITMAP
3d
02
02
04
3e
18
30
f0
0f
ENDCHAR
STARTCHAR braceleft
ENCODING 123
SWIDTH 263 0
DWIDTH 5 0
BBX 0 0 0 0
BITMAP
ENDCHAR
STARTCHAR bar
ENCODING 124
SWIDTH 263 0
DWIDTH 5 0
BBX 0 0 0 0
BITMAP
ENDCHAR
STARTCHAR braceright
ENCODING 125
SWIDTH 263 0
DWIDTH 5 0
BBX 0 0 0 0
BITMAP
ENDCHAR
STARTCHAR asciitilde
ENCODING 126
SWIDTH 263 0
DWIDTH 5 0
BBX 0 0 0 0
BITMAP
ENDCHAR
STARTCHAR DEL
ENCODING 127
SWIDTH 263 0
DWIDTH 5 0
BBX 0 0 0 0
BITMAP
ENDCHAR
STARTCHAR Adieresis
ENCODING 128
SWIDTH 263 0
DWIDTH 5 0
BBX 0 0 0 0
BITMAP
ENDCHAR
STARTCHAR Aring
ENCODING 129
SWIDTH 263 0
DWIDTH 5 0
BBX 0 0 0 0
BITMAP
ENDCHAR
STARTCHAR Ccedilla
ENCODING 130
SWIDTH 263 0
DWIDTH 5 0
BBX 0 0 0 0
BITMAP
ENDCHAR
STARTCHAR Eacute
ENCODING 131
SWIDTH 263 0
DWIDTH 5 0
BBX 0 0 0 0
BITMAP
ENDCHAR
STARTCHAR Ntilde
ENCODING 132
SWIDTH 263 0
DWIDTH 5 0
BBX 0 0 0 0
BITMAP
ENDCHAR
STARTCHAR Odieresis
ENCODING 133
SWIDTH 263 0
DWIDTH 5 0
BBX 0 0 0 0
BITMAP
ENDCHAR
STARTCHAR Udieresis
ENCODING 134
SWIDTH 263 0
DWIDTH 5 0
BBX 0 0 0 0
BITMAP
ENDCHAR
STARTCHAR aacute
ENCODING 135
SWIDTH 263 0
DWIDTH 5 0
BBX 0 0 0 0
BITMAP
ENDCHAR
STARTCHAR agrave
ENCODING 136
SWIDTH 263 0
DWIDTH 5 0
BBX 0 0 0 0
BITMAP
ENDCHAR
STARTCHAR acircumflex
ENCODING 137
SWIDTH 263 0
DWIDTH 5 0
BBX 0 0 0 0
BITMAP
ENDCHAR
STARTCHAR adieresis
ENCODING 138
SWIDTH 263 0
DWIDTH 5 0
BBX 0 0 0 0
BITMAP
ENDCHAR
STARTCHAR atilde
ENCODING 139
SWIDTH 263 0
DWIDTH 5 0
BBX 0 0 0 0
BITMAP
ENDCHAR
STARTCHAR aring
ENCODING 140
SWIDTH 263 0
DWIDTH 5 0
BBX 0 0 0 0
BITMAP
ENDCHAR
STARTCHAR ccedilla
ENCODING 141
SWIDTH 263 0
DWIDTH 5 0
BBX 0 0 0 0
BITMAP
ENDCHAR
STARTCHAR eacute
ENCODING 142
SWIDTH 263 0
DWIDTH 5 0
BBX 0 0 0 0
BITMAP
ENDCHAR
STARTCHAR egrave
ENCODING 143
SWIDTH 263 0
DWIDTH 5 0
BBX 0 0 0 0
BITMAP
ENDCHAR
STARTCHAR ecircumflex
ENCODING 144
SWIDTH 263 0
DWIDTH 5 0
BBX 0 0 0 0
BITMAP
ENDCHAR
STARTCHAR edieresis
ENCODING 145
SWIDTH 263 0
DWIDTH 5 0
BBX 0 0 0 0
BITMAP
ENDCHAR
STARTCHAR iacute
ENCODING 146
SWIDTH 263 0
DWIDTH 5 0
BBX 0 0 0 0
BITMAP
ENDCHAR
STARTCHAR igrave
ENCODING 147
SWIDTH 263 0
DWIDTH 5 0
BBX 0 0 0 0
BITMAP
ENDCHAR
STARTCHAR icircumflex
ENCODING 148
SWIDTH 263 0
DWIDTH 5 0
BBX 0 0 0 0
BITMAP
ENDCHAR
STARTCHAR idieresis
ENCODING 149
SWIDTH 263 0
DWIDTH 5 0
BBX 0 0 0 0
BITMAP
ENDCHAR
STARTCHAR ntilde
ENCODING 150
SWIDTH 263 0
DWIDTH 5 0
BBX 0 0 0 0
BITMAP
ENDCHAR
STARTCHAR oacute
ENCODING 151
SWIDTH 263 0
DWIDTH 5 0
BBX 0 0 0 0
BITMAP
ENDCHAR
STARTCHAR ograve
ENCODING 152
SWIDTH 263 0
DWIDTH 5 0
BBX 0 0 0 0
BITMAP
ENDCHAR
STARTCHAR ocircumflex
ENCODING 153
SWIDTH 263 0
DWIDTH 5 0
BBX 0 0 0 0
BITMAP
ENDCHAR
STARTCHAR odieresis
ENCODING 154
SWIDTH 263 0
DWIDTH 5 0
BBX 0 0 0 0
BITMAP
ENDCHAR
STARTCHAR otilde
ENCODING 155
SWIDTH 263 0
DWIDTH 5 0
BBX 0 0 0 0
BITMAP
ENDCHAR
STARTCHAR uacute
ENCODING 156
SWIDTH 263 0
DWIDTH 5 0
BBX 0 0 0 0
BITMAP
ENDCHAR
STARTCHAR ugrave
ENCODING 157
SWIDTH 263 0
DWIDTH 5 0
BBX 0 0 0 0
BITMAP
ENDCHAR
STARTCHAR ucircumflex
ENCODING 158
SWIDTH 263 0
DWIDTH 5 0
BBX 0 0 0 0
BITMAP
ENDCHAR
STARTCHAR udieresis
ENCODING 159
SWIDTH 263 0
DWIDTH 5 0
BBX 0 0 0 0
BITMAP
ENDCHAR
STARTCHAR dagger
ENCODING 160
SWIDTH 263 0
DWIDTH 5 0
BBX 0 0 0 0
BITMAP
ENDCHAR
STARTCHAR degree
ENCODING 161
SWIDTH 263 0
DWIDTH 5 0
BBX 0 0 0 0
BITMAP
ENDCHAR
STARTCHAR cent
ENCODING 162
SWIDTH 263 0
DWIDTH 5 0
BBX 0 0 0 0
BITMAP
ENDCHAR
STARTCHAR sterling
ENCODING 163
SWIDTH 263 0
DWIDTH 5 0
BBX 0 0 0 0
BITMAP
ENDCHAR
STARTCHAR section
ENCODING 164
SWIDTH 263 0
DWIDTH 5 0
BBX 0 0 0 0
BITMAP
ENDCHAR
STARTCHAR bullet
ENCODING 165
SWIDTH 263 0
DWIDTH 5 0
BBX 0 0 0 0
BITMAP
ENDCHAR
STARTCHAR paragraph
ENCODING 166
SWIDTH 263 0
DWIDTH 5 0
BBX 0 0 0 0
BITMAP
ENDCHAR
STARTCHAR germandbls
ENCODING 167
SWIDTH 263 0
DWIDTH 5 0
BBX 0 0 0 0
BITMAP
ENDCHAR
STARTCHAR registered
ENCODING 168
SWIDTH 263 0
DWIDTH 5 0
BBX 0 0 0 0
BITMAP
ENDCHAR
STARTCHAR copyright
ENCODING 169
SWIDTH 263 0
DWIDTH 5 0
BBX 0 0 0 0
BITMAP
ENDCHAR
STARTCHAR trademark
ENCODING 170
SWIDTH 263 0
DWIDTH 5 0
BBX 0 0 0 0
BITMAP
ENDCHAR
STARTCHAR acute
ENCODING 171
SWIDTH 263 0
DWIDTH 5 0
BBX 0 0 0 0
BITMAP
ENDCHAR
STARTCHAR dieresis
ENCODING 172
SWIDTH 263 0
DWIDTH 5 0
BBX 0 0 0 0
BITMAP
ENDCHAR
STARTCHAR notequal
ENCODING 173
SWIDTH 263 0
DWIDTH 5 0
BBX 0 0 0 0
BITMAP
ENDCHAR
STARTCHAR AE
ENCODING 174
SWIDTH 263 0
DWIDTH 5 0
BBX 0 0 0 0
BITMAP
ENDCHAR
STARTCHAR Oslash
ENCODING 175
SWIDTH 263 0
DWIDTH 5 0
BBX 0 0 0 0
BITMAP
ENDCHAR
STARTCHAR infinity
ENCODING 176
SWIDTH 263 0
DWIDTH 5 0
BBX 0 0 0 0
BITMAP
ENDCHAR
STARTCHAR plusminus
ENCODING 177
SWIDTH 263 0
DWIDTH 5 0
BBX 0 0 0 0
BITMAP
ENDCHAR
STARTCHAR lessequal
ENCODING 178
SWIDTH 263 0
DWIDTH 5 0
BBX 0 0 0 0
BITMAP
ENDCHAR
STARTCHAR greaterequal
ENCODING 179
SWIDTH 263 0
DWIDTH 5 0
BBX 0 0 0 0
BITMAP
ENDCHAR
STARTCHAR yen
ENCODING 180
SWIDTH 263 0
DWIDTH 5 0
BBX 0 0 0 0
BITMAP
ENDCHAR
STARTCHAR mu
ENCODING 181
SWIDTH 263 0
DWIDTH 5 0
BBX 0 0 0 0
BITMAP
ENDCHAR
STARTCHAR partialdiff
ENCODING 182
SWIDTH 263 0
DWIDTH 5 0
BBX 0 0 0 0
BITMAP
ENDCHAR
STARTCHAR summation
ENCODING 183
SWIDTH 263 0
DWIDTH 5 0
BBX 0 0 0 0
BITMAP
ENDCHAR
STARTCHAR product
ENCODING 184
SWIDTH 263 0
DWIDTH 5 0
BBX 0 0 0 0
BITMAP
ENDCHAR
STARTCHAR pi
ENCODING 185
SWIDTH 263 0
DWIDTH 5 0
BBX 0 0 0 0
BITMAP
ENDCHAR
STARTCHAR integral
ENCODING 186
SWIDTH 263 0
DWIDTH 5 0
BBX 0 0 0 0
BITMAP
ENDCHAR
STARTCHAR ordfeminine
ENCODING 187
SWIDTH 263 0
DWIDTH 5 0
BBX 0 0 0 0
BITMAP
ENDCHAR
STARTCHAR ordmasculine
ENCODING 188
SWIDTH 263 0
DWIDTH 5 0
BBX 0 0 0 0
BITMAP
ENDCHAR
STARTCHAR Omega
ENCODING 189
SWIDTH 263 0
DWIDTH 5 0
BBX 0 0 0 0
BITMAP
ENDCHAR
STARTCHAR ae
ENCODING 190
SWIDTH 263 0
DWIDTH 5 0
BBX 0 0 0 0
BITMAP
ENDCHAR
STARTCHAR oslash
ENCODING 191
SWIDTH 263 0
DWIDTH 5 0
BBX 0 0 0 0
BITMAP
ENDCHAR
STARTCHAR questiondown
ENCODING 192
SWIDTH 263 0
DWIDTH 5 0
BBX 0 0 0 0
BITMAP
ENDCHAR
STARTCHAR exclamdown
ENCODING 193
SWIDTH 263 0
DWIDTH 5 0
BBX 0 0 0 0
BITMAP
ENDCHAR
STARTCHAR logicalnot
ENCODING 194
SWIDTH 263 0
DWIDTH 5 0
BBX 0 0 0 0
BITMAP
ENDCHAR
STARTCHAR radical
ENCODING 195
SWIDTH 263 0
DWIDTH 5 0
BBX 0 0 0 0
BITMAP
ENDCHAR
STARTCHAR florin
ENCODING 196
SWIDTH 263 0
DWIDTH 5 0
BBX 0 0 0 0
BITMAP
ENDCHAR
STARTCHAR approxequal
ENCODING 197
SWIDTH 263 0
DWIDTH 5 0
BBX 0 0 0 0
BITMAP
ENDCHAR
STARTCHAR Delta
ENCODING 198
SWIDTH 263 0
DWIDTH 5 0
BBX 0 0 0 0
BITMAP
ENDCHAR
STARTCHAR guillemotleft
ENCODING 199
SWIDTH 263 0
DWIDTH 5 0
BBX 0 0 0 0
BITMAP
ENDCHAR
STARTCHAR guillemotright
ENCODING 200
SWIDTH 263 0
DWIDTH 5 0
BBX 0 0 0 0
BITMAP
ENDCHAR
STARTCHAR ellipsis
ENCODING 201
SWIDTH 263 0
DWIDTH 5 0
BBX 0 0 0 0
BITMAP
ENDCHAR
STARTCHAR nbspace
ENCODING 202
SWIDTH 263 0
DWIDTH 5 0
BBX 0 0 0 0
BITMAP
ENDCHAR
STARTCHAR Agrave
ENCODING 203
SWIDTH 263 0
DWIDTH 5 0
BBX 0 0 0 0
BITMAP
ENDCHAR
STARTCHAR Atilde
ENCODING 204
SWIDTH 263 0
DWIDTH 5 0
BBX 0 0 0 0
BITMAP
ENDCHAR
STARTCHAR Otilde
ENCODING 205
SWIDTH 263 0
DWIDTH 5 0
BBX 0 0 0 0
BITMAP
ENDCHAR
STARTCHAR OE
ENCODING 206
SWIDTH 263 0
DWIDTH 5 0
BBX 0 0 0 0
BITMAP
ENDCHAR
STARTCHAR oe
ENCODING 207
SWIDTH 263 0
DWIDTH 5 0
BBX 0 0 0 0
BITMAP
ENDCHAR
STARTCHAR endash
ENCODING 208
SWIDTH 263 0
DWIDTH 5 0
BBX 0 0 0 0
BITMAP
ENDCHAR
STARTCHAR emdash
ENCODING 209
SWIDTH 263 0
DWIDTH 5 0
BBX 0 0 0 0
BITMAP
ENDCHAR
STARTCHAR quotedblleft
ENCODING 210
SWIDTH 263 0
DWIDTH 5 0
BBX 0 0 0 0
BITMAP
ENDCHAR
STARTCHAR quotedblright
ENCODING 211
SWIDTH 263 0
DWIDTH 5 0
BBX 0 0 0 0
BITMAP
ENDCHAR
STARTCHAR quoteleft
ENCODING 212
SWIDTH 263 0
DWIDTH 5 0
BBX 0 0 0 0
BITMAP
ENDCHAR
STARTCHAR quoteright
ENCODING 213
SWIDTH 263 0
DWIDTH 5 0
BBX 0 0 0 0
BITMAP
ENDCHAR
STARTCHAR divide
ENCODING 214
SWIDTH 263 0
DWIDTH 5 0
BBX 0 0 0 0
BITMAP
ENDCHAR
STARTCHAR lozenge
ENCODING 215
SWIDTH 263 0
DWIDTH 5 0
BBX 0 0 0 0
BITMAP
ENDCHAR
STARTCHAR ydieresis
ENCODING 216
SWIDTH 263 0
DWIDTH 5 0
BBX 0 0 0 0
BITMAP
ENDCHAR
STARTCHAR Ydieresis
ENCODING 217
SWIDTH 263 0
DWIDTH 5 0
BBX 0 0 0 0
BITMAP
ENDCHAR
STARTCHAR fraction
ENCODING 218
SWIDTH 263 0
DWIDTH 5 0
BBX 0 0 0 0
BITMAP
ENDCHAR
STARTCHAR currency
ENCODING 219
SWIDTH 263 0
DWIDTH 5 0
BBX 0 0 0 0
BITMAP
ENDCHAR
STARTCHAR guilsinglleft
ENCODING 220
SWIDTH 263 0
DWIDTH 5 0
BBX 0 0 0 0
BITMAP
ENDCHAR
STARTCHAR guilsinglright
ENCODING 221
SWIDTH 263 0
DWIDTH 5 0
BBX 0 0 0 0
BITMAP
ENDCHAR
STARTCHAR fi
ENCODING 222
SWIDTH 263 0
DWIDTH 5 0
BBX 0 0 0 0
BITMAP
ENDCHAR
STARTCHAR fl
ENCODING 223
SWIDTH 263 0
DWIDTH 5 0
BBX 0 0 0 0
BITMAP
ENDCHAR
STARTCHAR daggerdbl
ENCODING 224
SWIDTH 263 0
DWIDTH 5 0
BBX 0 0 0 0
BITMAP
ENDCHAR
STARTCHAR periodcentered
ENCODING 225
SWIDTH 263 0
DWIDTH 5 0
BBX 0 0 0 0
BITMAP
ENDCHAR
STARTCHAR quotesinglbase
ENCODING 226
SWIDTH 263 0
DWIDTH 5 0
BBX 0 0 0 0
BITMAP
ENDCHAR
STARTCHAR quotedblbase
ENCODING 227
SWIDTH 263 0
DWIDTH 5 0
BBX 0 0 0 0
BITMAP
ENDCHAR
STARTCHAR perthousand
ENCODING 228
SWIDTH 263 0
DWIDTH 5 0
BBX 0 0 0 0
BITMAP
ENDCHAR
STARTCHAR Acircumflex
ENCODING 229
SWIDTH 263 0
DWIDTH 5 0
BBX 0 0 0 0
BITMAP
ENDCHAR
STARTCHAR Ecircumflex
ENCODING 230
SWIDTH 263 0
DWIDTH 5 0
BBX 0 0 0 0
BITMAP
ENDCHAR
STARTCHAR Aacute
ENCODING 231
SWIDTH 263 0
DWIDTH 5 0
BBX 0 0 0 0
BITMAP
ENDCHAR
STARTCHAR Edieresis
ENCODING 232
SWIDTH 263 0
DWIDTH 5 0
BBX 0 0 0 0
BITMAP
ENDCHAR
STARTCHAR Egrave
ENCODING 233
SWIDTH 263 0
DWIDTH 5 0
BBX 0 0 0 0
BITMAP
ENDCHAR
STARTCHAR Iacute
ENCODING 234
SWIDTH 263 0
DWIDTH 5 0
BBX 0 0 0 0
BITMAP
ENDCHAR
STARTCHAR Icircumflex
ENCODING 235
SWIDTH 263 0
DWIDTH 5 0
BBX 0 0 0 0
BITMAP
ENDCHAR
STARTCHAR Idieresis
ENCODING 236
SWIDTH 263 0
DWIDTH 5 0
BBX 0 0 0 0
BITMAP
ENDCHAR
STARTCHAR Igrave
ENCODING 237
SWIDTH 263 0
DWIDTH 5 0
BBX 0 0 0 0
BITMAP
ENDCHAR
STARTCHAR Oacute
ENCODING 238
SWIDTH 263 0
DWIDTH 5 0
BBX 0 0 0 0
BITMAP
ENDCHAR
STARTCHAR Ocircumflex
ENCODING 239
SWIDTH 263 0
DWIDTH 5 0
BBX 0 0 0 0
BITMAP
ENDCHAR
STARTCHAR apple
ENCODING 240
SWIDTH 263 0
DWIDTH 5 0
BBX 0 0 0 0
BITMAP
ENDCHAR
STARTCHAR Ograve
ENCODING 241
SWIDTH 263 0
DWIDTH 5 0
BBX 0 0 0 0
BITMAP
ENDCHAR
STARTCHAR Uacute
ENCODING 242
SWIDTH 263 0
DWIDTH 5 0
BBX 0 0 0 0
BITMAP
ENDCHAR
STARTCHAR Ucircumflex
ENCODING 243
SWIDTH 263 0
DWIDTH 5 0
BBX 0 0 0 0
BITMAP
ENDCHAR
STARTCHAR Ugrave
ENCODING 244
SWIDTH 263 0
DWIDTH 5 0
BBX 0 0 0 0
BITMAP
ENDCHAR
STARTCHAR dotlessi
ENCODING 245
SWIDTH 263 0
DWIDTH 5 0
BBX 0 0 0 0
BITMAP
ENDCHAR
STARTCHAR circumflex
ENCODING 246
SWIDTH 263 0
DWIDTH 5 0
BBX 0 0 0 0
BITMAP
ENDCHAR
STARTCHAR tilde
ENCODING 247
SWIDTH 263 0
DWIDTH 5 0
BBX 0 0 0 0
BITMAP
ENDCHAR
STARTCHAR macron
ENCODING 248
SWIDTH 263 0
DWIDTH 5 0
BBX 0 0 0 0
BITMAP
ENDCHAR
STARTCHAR breve
ENCODING 249
SWIDTH 263 0
DWIDTH 5 0
BBX 0 0 0 0
BITMAP
ENDCHAR
STARTCHAR dotaccent
ENCODING 250
SWIDTH 263 0
DWIDTH 5 0
BBX 0 0 0 0
BITMAP
ENDCHAR
STARTCHAR ring
ENCODING 251
SWIDTH 263 0
DWIDTH 5 0
BBX 0 0 0 0
BITMAP
ENDCHAR
STARTCHAR cedilla
ENCODING 252
SWIDTH 263 0
DWIDTH 5 0
BBX 0 0 0 0
BITMAP
ENDCHAR
STARTCHAR hungarumlaut
ENCODING 253
SWIDTH 263 0
DWIDTH 5 0
BBX 0 0 0 0
BITMAP
ENDCHAR
STARTCHAR ogonek
ENCODING 254
SWIDTH 263 0
DWIDTH 5 0
BBX 0 0 0 0
BITMAP
ENDCHAR
STARTCHAR caron
ENCODING 255
SWIDTH 263 0
DWIDTH 5 0
BBX 0 0 0 0
BITMAP
ENDCHAR
ENDFONT
