STARTFONT 2.1
FONT -DEC-Terminal-Bold-R-Narrow--28-280-75-75-C-120-DEC-DECtech
SIZE 28 75 75
FONTBOUNDINGBOX 12 28 0 -4

STARTPROPERTIES 24
FOUNDRY "DEC"
FAMILY_NAME "Terminal"
WEIGHT_NAME "Bold"
SLANT "R"
SETWIDTH_NAME "Narrow"
ADD_STYLE_NAME ""
PIXEL_SIZE 28
POINT_SIZE 280
RESOLUTION_X 75
RESOLUTION_Y 75
SPACING "C"
AVERAGE_WIDTH 120
CHARSET_REGISTRY "DEC"
CHARSET_ENCODING "DECtech"
CAP_HEIGHT 16
COPYRIGHT "Copyright (c) 1991 Digital Equipment Corporation. All Rights Reserved."
_DEC_PRODUCTINFO "DECterm Fonts V2.2, 11-Nov-1991"
FULL_NAME "Terminal Bold Narrow DECtech"
WEIGHT 10
X_HEIGHT -1
QUAD_WIDTH 12
DEFAULT_CHAR 159
FONT_DESCENT 4
FONT_ASCENT 24
ENDPROPERTIES

CHARS 182

STARTCHAR space
ENCODING 32
SWIDTH 430 0
DWIDTH 12 0
BBX 12 28 0 -4
BITMAP
0000
0000
0000
0000
0000
0000
0000
0000
0000
0000
0000
0000
0000
0000
0000
0000
0000
0000
0000
0000
0000
0000
0000
0000
0000
0000
0000
0000
ENDCHAR

STARTCHAR exclam
ENCODING 33
SWIDTH 430 0
DWIDTH 12 0
BBX 12 28 0 -4
BITMAP
0000
0000
0000
0000
0000
0000
0000
0000
0E00
0E00
0E00
0E00
0E00
0E00
0E00
0E00
0E00
0E00
0E00
0E00
0000
0E00
0E00
0E00
0000
0000
0000
0000
ENDCHAR

STARTCHAR quotedbl
ENCODING 34
SWIDTH 430 0
DWIDTH 12 0
BBX 12 28 0 -4
BITMAP
0000
0000
0000
0000
0000
0000
39C0
39C0
39C0
39C0
39C0
39C0
0000
0000
0000
0000
0000
0000
0000
0000
0000
0000
0000
0000
0000
0000
0000
0000
ENDCHAR

STARTCHAR numbersign
ENCODING 35
SWIDTH 430 0
DWIDTH 12 0
BBX 12 28 0 -4
BITMAP
0000
0000
0000
0000
0000
0000
0000
0000
0000
39C0
39C0
39C0
39C0
7FE0
7FE0
39C0
39C0
7FE0
7FE0
39C0
39C0
39C0
39C0
0000
0000
0000
0000
0000
ENDCHAR

STARTCHAR dollar
ENCODING 36
SWIDTH 430 0
DWIDTH 12 0
BBX 12 28 0 -4
BITMAP
0000
0000
0000
0000
0000
0000
0000
0600
0600
1F80
3FC0
76E0
76E0
7660
7E00
3F80
1FC0
07E0
66E0
76E0
76E0
3FC0
1F80
0600
0600
0000
0000
0000
ENDCHAR

STARTCHAR percent
ENCODING 37
SWIDTH 430 0
DWIDTH 12 0
BBX 12 28 0 -4
BITMAP
0000
0000
0000
0000
0000
0000
0000
0000
1800
3C00
7670
76F0
3DF0
1BE0
07C0
0F80
1F00
3E00
7D80
7BC0
7760
0760
03C0
0180
0000
0000
0000
0000
ENDCHAR

STARTCHAR ampersand
ENCODING 38
SWIDTH 430 0
DWIDTH 12 0
BBX 12 28 0 -4
BITMAP
0000
0000
0000
0000
0000
0000
0000
0000
0F00
1F80
1980
1980
1980
1F80
0F00
1E00
3F60
7BE0
71C0
7180
7380
7FC0
3EE0
1E60
0000
0000
0000
0000
ENDCHAR

STARTCHAR quoteright
ENCODING 39
SWIDTH 430 0
DWIDTH 12 0
BBX 12 28 0 -4
BITMAP
0000
0000
0000
0000
0000
0000
0700
0700
0700
0E00
0C00
0000
0000
0000
0000
0000
0000
0000
0000
0000
0000
0000
0000
0000
0000
0000
0000
0000
ENDCHAR

STARTCHAR parenleft
ENCODING 40
SWIDTH 430 0
DWIDTH 12 0
BBX 12 28 0 -4
BITMAP
0000
0000
0000
0000
0000
0000
01C0
0380
0700
0700
0E00
0E00
1C00
1C00
1C00
1C00
1C00
1C00
1C00
1C00
0E00
0E00
0700
0700
0380
01C0
0000
0000
ENDCHAR

STARTCHAR parenright
ENCODING 41
SWIDTH 430 0
DWIDTH 12 0
BBX 12 28 0 -4
BITMAP
0000
0000
0000
0000
0000
0000
1C00
0E00
0700
0700
0380
0380
01C0
01C0
01C0
01C0
01C0
01C0
01C0
01C0
0380
0380
0700
0700
0E00
1C00
0000
0000
ENDCHAR

STARTCHAR asterisk
ENCODING 42
SWIDTH 430 0
DWIDTH 12 0
BBX 12 28 0 -4
BITMAP
0000
0000
0000
0000
0000
0000
0000
0000
0600
36C0
3FC0
3FC0
0F00
0F00
3FC0
3FC0
36C0
0600
0000
0000
0000
0000
0000
0000
0000
0000
0000
0000
ENDCHAR

STARTCHAR plus
ENCODING 43
SWIDTH 430 0
DWIDTH 12 0
BBX 12 28 0 -4
BITMAP
0000
0000
0000
0000
0000
0000
0000
0000
0000
0000
0E00
0E00
0E00
0E00
FFE0
FFE0
FFE0
0E00
0E00
0E00
0E00
0000
0000
0000
0000
0000
0000
0000
ENDCHAR

STARTCHAR comma
ENCODING 44
SWIDTH 430 0
DWIDTH 12 0
BBX 12 28 0 -4
BITMAP
0000
0000
0000
0000
0000
0000
0000
0000
0000
0000
0000
0000
0000
0000
0000
0000
0000
0000
0000
0000
0000
0380
0380
0380
0700
0E00
0000
0000
ENDCHAR

STARTCHAR minus
ENCODING 45
SWIDTH 430 0
DWIDTH 12 0
BBX 12 28 0 -4
BITMAP
0000
0000
0000
0000
0000
0000
0000
0000
0000
0000
0000
0000
0000
0000
7FE0
7FE0
7FE0
0000
0000
0000
0000
0000
0000
0000
0000
0000
0000
0000
ENDCHAR

STARTCHAR period
ENCODING 46
SWIDTH 430 0
DWIDTH 12 0
BBX 12 28 0 -4
BITMAP
0000
0000
0000
0000
0000
0000
0000
0000
0000
0000
0000
0000
0000
0000
0000
0000
0000
0000
0000
0000
0000
0E00
0E00
0E00
0000
0000
0000
0000
ENDCHAR

STARTCHAR slash
ENCODING 47
SWIDTH 430 0
DWIDTH 12 0
BBX 12 28 0 -4
BITMAP
0000
0000
0000
0000
0000
0000
0000
00E0
00E0
01E0
01C0
01C0
0380
0380
0700
0700
0E00
0E00
1C00
1C00
3800
3800
7800
7000
7000
0000
0000
0000
ENDCHAR

STARTCHAR zero
ENCODING 48
SWIDTH 430 0
DWIDTH 12 0
BBX 12 28 0 -4
BITMAP
0000
0000
0000
0000
0000
0000
0000
0000
0F00
1F80
39C0
39C0
70E0
70E0
70E0
70E0
70E0
70E0
70E0
70E0
39C0
39C0
1F80
0F00
0000
0000
0000
0000
ENDCHAR

STARTCHAR one
ENCODING 49
SWIDTH 430 0
DWIDTH 12 0
BBX 12 28 0 -4
BITMAP
0000
0000
0000
0000
0000
0000
0000
0000
0600
0E00
1E00
3E00
7E00
6E00
0E00
0E00
0E00
0E00
0E00
0E00
0E00
0E00
7FC0
7FC0
0000
0000
0000
0000
ENDCHAR

STARTCHAR two
ENCODING 50
SWIDTH 430 0
DWIDTH 12 0
BBX 12 28 0 -4
BITMAP
0000
0000
0000
0000
0000
0000
0000
0000
1F00
3F80
71C0
71C0
71C0
01C0
03C0
0780
0F00
0E00
1C00
3C00
3800
79C0
7FC0
7FC0
0000
0000
0000
0000
ENDCHAR

STARTCHAR three
ENCODING 51
SWIDTH 430 0
DWIDTH 12 0
BBX 12 28 0 -4
BITMAP
0000
0000
0000
0000
0000
0000
0000
0000
1F00
3F80
73C0
71C0
01C0
03C0
1F80
1F80
03C0
01C0
01C0
01C0
71C0
73C0
3F80
1F00
0000
0000
0000
0000
ENDCHAR

STARTCHAR four
ENCODING 52
SWIDTH 430 0
DWIDTH 12 0
BBX 12 28 0 -4
BITMAP
0000
0000
0000
0000
0000
0000
0000
0000
03C0
03C0
07C0
07C0
0FC0
0DC0
1DC0
1DC0
19C0
39C0
3FE0
3FE0
01C0
01C0
01C0
01C0
0000
0000
0000
0000
ENDCHAR

STARTCHAR five
ENCODING 53
SWIDTH 430 0
DWIDTH 12 0
BBX 12 28 0 -4
BITMAP
0000
0000
0000
0000
0000
0000
0000
0000
7FC0
7FC0
7000
7000
7000
7F00
7F80
73C0
61C0
01C0
01C0
01C0
71C0
73C0
3F80
1F00
0000
0000
0000
0000
ENDCHAR

STARTCHAR six
ENCODING 54
SWIDTH 430 0
DWIDTH 12 0
BBX 12 28 0 -4
BITMAP
0000
0000
0000
0000
0000
0000
0000
0000
1F00
3F80
39C0
71C0
7000
7000
7F00
7F80
7BC0
71C0
71C0
71C0
71C0
7BC0
3F80
1F00
0000
0000
0000
0000
ENDCHAR

STARTCHAR seven
ENCODING 55
SWIDTH 430 0
DWIDTH 12 0
BBX 12 28 0 -4
BITMAP
0000
0000
0000
0000
0000
0000
0000
0000
3FE0
3FE0
00E0
00E0
01C0
01C0
0380
0380
0700
0700
0E00
0E00
1C00
1C00
3800
3800
0000
0000
0000
0000
ENDCHAR

STARTCHAR eight
ENCODING 56
SWIDTH 430 0
DWIDTH 12 0
BBX 12 28 0 -4
BITMAP
0000
0000
0000
0000
0000
0000
0000
0000
1F00
3F80
71C0
71C0
71C0
71C0
3F80
3F80
7BC0
71C0
71C0
71C0
71C0
7BC0
3F80
1F00
0000
0000
0000
0000
ENDCHAR

STARTCHAR nine
ENCODING 57
SWIDTH 430 0
DWIDTH 12 0
BBX 12 28 0 -4
BITMAP
0000
0000
0000
0000
0000
0000
0000
0000
1F00
3F80
7BC0
71C0
71C0
71C0
71C0
7BC0
3FC0
1FC0
01C0
01C0
71C0
7380
3F80
1F00
0000
0000
0000
0000
ENDCHAR

STARTCHAR colon
ENCODING 58
SWIDTH 430 0
DWIDTH 12 0
BBX 12 28 0 -4
BITMAP
0000
0000
0000
0000
0000
0000
0000
0000
0000
0000
0000
0000
0000
0000
0E00
0E00
0E00
0000
0000
0000
0000
0E00
0E00
0E00
0000
0000
0000
0000
ENDCHAR

STARTCHAR semicolon
ENCODING 59
SWIDTH 430 0
DWIDTH 12 0
BBX 12 28 0 -4
BITMAP
0000
0000
0000
0000
0000
0000
0000
0000
0000
0000
0000
0000
0000
0000
0E00
0E00
0E00
0000
0000
0000
0000
0E00
0E00
0E00
1C00
3800
0000
0000
ENDCHAR

STARTCHAR less
ENCODING 60
SWIDTH 430 0
DWIDTH 12 0
BBX 12 28 0 -4
BITMAP
0000
0000
0000
0000
0000
0000
0000
0000
0000
0000
01E0
03C0
0780
0F00
1E00
3C00
7800
7800
3C00
1E00
0F00
0780
03C0
01E0
0000
0000
0000
0000
ENDCHAR

STARTCHAR equal
ENCODING 61
SWIDTH 430 0
DWIDTH 12 0
BBX 12 28 0 -4
BITMAP
0000
0000
0000
0000
0000
0000
0000
0000
0000
0000
0000
0000
7FE0
7FE0
7FE0
0000
0000
7FE0
7FE0
7FE0
0000
0000
0000
0000
0000
0000
0000
0000
ENDCHAR

STARTCHAR greater
ENCODING 62
SWIDTH 430 0
DWIDTH 12 0
BBX 12 28 0 -4
BITMAP
0000
0000
0000
0000
0000
0000
0000
0000
0000
0000
7800
3C00
1E00
0F00
0780
03C0
01E0
01E0
03C0
0780
0F00
1E00
3C00
7800
0000
0000
0000
0000
ENDCHAR

STARTCHAR question
ENCODING 63
SWIDTH 430 0
DWIDTH 12 0
BBX 12 28 0 -4
BITMAP
0000
0000
0000
0000
0000
0000
0000
0000
1F80
3FC0
79E0
70E0
70E0
01E0
03C0
0780
0F00
0E00
0E00
0E00
0000
0E00
0E00
0E00
0000
0000
0000
0000
ENDCHAR

STARTCHAR at
ENCODING 64
SWIDTH 430 0
DWIDTH 12 0
BBX 12 28 0 -4
BITMAP
0000
0000
0000
0000
0000
0000
0000
0000
1F80
3FC0
79E0
70F0
73F0
77F0
7670
7670
7670
77F0
73F0
7000
7000
7800
3F80
1F80
0000
0000
0000
0000
ENDCHAR

STARTCHAR A
ENCODING 65
SWIDTH 430 0
DWIDTH 12 0
BBX 12 28 0 -4
BITMAP
0000
0000
0000
0000
0000
0000
0000
0000
0600
0600
0F00
1F80
1F80
39C0
39C0
30C0
70E0
7FE0
7FE0
70E0
70E0
70E0
70E0
70E0
0000
0000
0000
0000
ENDCHAR

STARTCHAR B
ENCODING 66
SWIDTH 430 0
DWIDTH 12 0
BBX 12 28 0 -4
BITMAP
0000
0000
0000
0000
0000
0000
0000
0000
7F80
7FC0
71E0
70E0
70E0
71E0
7FC0
7FC0
71E0
70E0
70E0
70E0
70E0
71E0
7FC0
7F80
0000
0000
0000
0000
ENDCHAR

STARTCHAR C
ENCODING 67
SWIDTH 430 0
DWIDTH 12 0
BBX 12 28 0 -4
BITMAP
0000
0000
0000
0000
0000
0000
0000
0000
1F80
3FC0
79E0
70E0
7000
7000
7000
7000
7000
7000
7000
7000
70E0
79E0
3FC0
1F80
0000
0000
0000
0000
ENDCHAR

STARTCHAR D
ENCODING 68
SWIDTH 430 0
DWIDTH 12 0
BBX 12 28 0 -4
BITMAP
0000
0000
0000
0000
0000
0000
0000
0000
7F80
7FC0
71E0
70E0
70E0
70E0
70E0
70E0
70E0
70E0
70E0
70E0
70E0
71E0
7FC0
7F80
0000
0000
0000
0000
ENDCHAR

STARTCHAR E
ENCODING 69
SWIDTH 430 0
DWIDTH 12 0
BBX 12 28 0 -4
BITMAP
0000
0000
0000
0000
0000
0000
0000
0000
7FE0
7FE0
7000
7000
7000
7000
7000
7F80
7F80
7000
7000
7000
7000
7000
7FE0
7FE0
0000
0000
0000
0000
ENDCHAR

STARTCHAR F
ENCODING 70
SWIDTH 430 0
DWIDTH 12 0
BBX 12 28 0 -4
BITMAP
0000
0000
0000
0000
0000
0000
0000
0000
7FE0
7FE0
7000
7000
7000
7000
7000
7F80
7F80
7000
7000
7000
7000
7000
7000
7000
0000
0000
0000
0000
ENDCHAR

STARTCHAR G
ENCODING 71
SWIDTH 430 0
DWIDTH 12 0
BBX 12 28 0 -4
BITMAP
0000
0000
0000
0000
0000
0000
0000
0000
1F80
3FC0
79E0
70E0
7000
7000
7000
7000
71E0
71E0
70E0
70E0
70E0
79E0
3FC0
1F80
0000
0000
0000
0000
ENDCHAR

STARTCHAR H
ENCODING 72
SWIDTH 430 0
DWIDTH 12 0
BBX 12 28 0 -4
BITMAP
0000
0000
0000
0000
0000
0000
0000
0000
70E0
70E0
70E0
70E0
70E0
70E0
70E0
7FE0
7FE0
70E0
70E0
70E0
70E0
70E0
70E0
70E0
0000
0000
0000
0000
ENDCHAR

STARTCHAR I
ENCODING 73
SWIDTH 430 0
DWIDTH 12 0
BBX 12 28 0 -4
BITMAP
0000
0000
0000
0000
0000
0000
0000
0000
3FE0
3FE0
0700
0700
0700
0700
0700
0700
0700
0700
0700
0700
0700
0700
3FE0
3FE0
0000
0000
0000
0000
ENDCHAR

STARTCHAR J
ENCODING 74
SWIDTH 430 0
DWIDTH 12 0
BBX 12 28 0 -4
BITMAP
0000
0000
0000
0000
0000
0000
0000
0000
07E0
07E0
01C0
01C0
01C0
01C0
01C0
01C0
01C0
01C0
71C0
71C0
71C0
7BC0
3F80
1F00
0000
0000
0000
0000
ENDCHAR

STARTCHAR K
ENCODING 75
SWIDTH 430 0
DWIDTH 12 0
BBX 12 28 0 -4
BITMAP
0000
0000
0000
0000
0000
0000
0000
0000
7070
70F0
71E0
73C0
7780
7F00
7E00
7C00
7C00
7E00
7F00
7780
73C0
71E0
70F0
7070
0000
0000
0000
0000
ENDCHAR

STARTCHAR L
ENCODING 76
SWIDTH 430 0
DWIDTH 12 0
BBX 12 28 0 -4
BITMAP
0000
0000
0000
0000
0000
0000
0000
0000
7000
7000
7000
7000
7000
7000
7000
7000
7000
7000
7000
7000
7000
7000
7FE0
7FE0
0000
0000
0000
0000
ENDCHAR

STARTCHAR M
ENCODING 77
SWIDTH 430 0
DWIDTH 12 0
BBX 12 28 0 -4
BITMAP
0000
0000
0000
0000
0000
0000
0000
0000
70E0
70E0
70E0
79E0
79E0
7FE0
7FE0
76E0
76E0
70E0
70E0
70E0
70E0
70E0
70E0
70E0
0000
0000
0000
0000
ENDCHAR

STARTCHAR N
ENCODING 78
SWIDTH 430 0
DWIDTH 12 0
BBX 12 28 0 -4
BITMAP
0000
0000
0000
0000
0000
0000
0000
0000
70E0
70E0
78E0
78E0
7CE0
7CE0
7CE0
76E0
76E0
73E0
73E0
73E0
71E0
71E0
70E0
70E0
0000
0000
0000
0000
ENDCHAR

STARTCHAR O
ENCODING 79
SWIDTH 430 0
DWIDTH 12 0
BBX 12 28 0 -4
BITMAP
0000
0000
0000
0000
0000
0000
0000
0000
1F80
3FC0
79E0
70E0
70E0
70E0
70E0
70E0
70E0
70E0
70E0
70E0
70E0
79E0
3FC0
1F80
0000
0000
0000
0000
ENDCHAR

STARTCHAR P
ENCODING 80
SWIDTH 430 0
DWIDTH 12 0
BBX 12 28 0 -4
BITMAP
0000
0000
0000
0000
0000
0000
0000
0000
7F80
7FC0
71E0
70E0
70E0
70E0
70E0
71E0
7FC0
7F80
7000
7000
7000
7000
7000
7000
0000
0000
0000
0000
ENDCHAR

STARTCHAR Q
ENCODING 81
SWIDTH 430 0
DWIDTH 12 0
BBX 12 28 0 -4
BITMAP
0000
0000
0000
0000
0000
0000
0000
0000
1F80
3FC0
79E0
70E0
70E0
70E0
70E0
70E0
70E0
70E0
70E0
70E0
76E0
7FE0
3FC0
1F80
01C0
00E0
0000
0000
ENDCHAR

STARTCHAR R
ENCODING 82
SWIDTH 430 0
DWIDTH 12 0
BBX 12 28 0 -4
BITMAP
0000
0000
0000
0000
0000
0000
0000
0000
7F80
7FC0
71E0
70E0
70E0
70E0
70E0
71E0
7FC0
7F80
7700
7380
73C0
71C0
71E0
70F0
0000
0000
0000
0000
ENDCHAR

STARTCHAR S
ENCODING 83
SWIDTH 430 0
DWIDTH 12 0
BBX 12 28 0 -4
BITMAP
0000
0000
0000
0000
0000
0000
0000
0000
1F80
3FC0
79E0
70E0
7000
7800
7F80
3FC0
1FE0
01E0
00E0
00E0
70E0
79E0
3FC0
1F80
0000
0000
0000
0000
ENDCHAR

STARTCHAR T
ENCODING 84
SWIDTH 430 0
DWIDTH 12 0
BBX 12 28 0 -4
BITMAP
0000
0000
0000
0000
0000
0000
0000
0000
3FE0
3FE0
0700
0700
0700
0700
0700
0700
0700
0700
0700
0700
0700
0700
0700
0700
0000
0000
0000
0000
ENDCHAR

STARTCHAR U
ENCODING 85
SWIDTH 430 0
DWIDTH 12 0
BBX 12 28 0 -4
BITMAP
0000
0000
0000
0000
0000
0000
0000
0000
70E0
70E0
70E0
70E0
70E0
70E0
70E0
70E0
70E0
70E0
70E0
70E0
70E0
79E0
3FC0
1F80
0000
0000
0000
0000
ENDCHAR

STARTCHAR V
ENCODING 86
SWIDTH 430 0
DWIDTH 12 0
BBX 12 28 0 -4
BITMAP
0000
0000
0000
0000
0000
0000
0000
0000
70E0
70E0
70E0
70E0
70E0
70E0
70E0
70E0
70E0
70E0
39C0
3FC0
1F80
0F00
0600
0600
0000
0000
0000
0000
ENDCHAR

STARTCHAR W
ENCODING 87
SWIDTH 430 0
DWIDTH 12 0
BBX 12 28 0 -4
BITMAP
0000
0000
0000
0000
0000
0000
0000
0000
70E0
70E0
70E0
70E0
70E0
70E0
76E0
76E0
76E0
76E0
76E0
76E0
76E0
7FE0
7FE0
39C0
0000
0000
0000
0000
ENDCHAR

STARTCHAR X
ENCODING 88
SWIDTH 430 0
DWIDTH 12 0
BBX 12 28 0 -4
BITMAP
0000
0000
0000
0000
0000
0000
0000
0000
70E0
70E0
70E0
39C0
39C0
1F80
1F80
0F00
0F00
1F80
1F80
39C0
39C0
70E0
70E0
70E0
0000
0000
0000
0000
ENDCHAR

STARTCHAR Y
ENCODING 89
SWIDTH 430 0
DWIDTH 12 0
BBX 12 28 0 -4
BITMAP
0000
0000
0000
0000
0000
0000
0000
0000
70E0
70E0
70E0
70E0
70E0
79E0
39C0
3FC0
1F80
0F00
0F00
0F00
0F00
0F00
0F00
0F00
0000
0000
0000
0000
ENDCHAR

STARTCHAR Z
ENCODING 90
SWIDTH 430 0
DWIDTH 12 0
BBX 12 28 0 -4
BITMAP
0000
0000
0000
0000
0000
0000
0000
0000
7FE0
7FE0
00E0
00E0
01E0
03C0
0780
0700
0E00
1E00
3C00
7800
7000
7000
7FE0
7FE0
0000
0000
0000
0000
ENDCHAR

STARTCHAR bracketleft
ENCODING 91
SWIDTH 430 0
DWIDTH 12 0
BBX 12 28 0 -4
BITMAP
0000
0000
0000
0000
0000
0000
1FC0
1FC0
1C00
1C00
1C00
1C00
1C00
1C00
1C00
1C00
1C00
1C00
1C00
1C00
1C00
1C00
1C00
1C00
1FC0
1FC0
0000
0000
ENDCHAR

STARTCHAR backslash
ENCODING 92
SWIDTH 430 0
DWIDTH 12 0
BBX 12 28 0 -4
BITMAP
0000
0000
0000
0000
0000
0000
0000
7000
7000
7800
3800
3800
1C00
1C00
0E00
0E00
0700
0700
0380
0380
01C0
01C0
01E0
00E0
00E0
0000
0000
0000
ENDCHAR

STARTCHAR bracketright
ENCODING 93
SWIDTH 430 0
DWIDTH 12 0
BBX 12 28 0 -4
BITMAP
0000
0000
0000
0000
0000
0000
3F80
3F80
0380
0380
0380
0380
0380
0380
0380
0380
0380
0380
0380
0380
0380
0380
0380
0380
3F80
3F80
0000
0000
ENDCHAR

STARTCHAR asciicircum
ENCODING 94
SWIDTH 430 0
DWIDTH 12 0
BBX 12 28 0 -4
BITMAP
0000
0000
0000
0000
0000
0000
0000
0000
0000
0000
0000
0000
0600
0F00
1F80
3FC0
79E0
70E0
0000
0000
0000
0000
0000
0000
0000
0000
0000
0000
ENDCHAR

STARTCHAR ldblank
ENCODING 95
SWIDTH 430 0
DWIDTH 12 0
BBX 12 28 0 -4
BITMAP
0000
0000
0000
0000
0000
0000
0000
0000
0000
0000
0000
0000
0000
0000
0000
0000
0000
0000
0000
0000
0000
0000
0000
0000
0000
0000
0000
0000
ENDCHAR

STARTCHAR diamond
ENCODING 96
SWIDTH 430 0
DWIDTH 12 0
BBX 12 28 0 -4
BITMAP
0000
0000
0000
0000
0000
0000
0000
0000
0000
0000
0000
0000
0600
0F00
1F80
3FC0
7FE0
7FE0
3FC0
1F80
0F00
0600
0000
0000
0000
0000
0000
0000
ENDCHAR

STARTCHAR checkerboard
ENCODING 97
SWIDTH 430 0
DWIDTH 12 0
BBX 12 28 0 -4
BITMAP
AAA0
FFF0
AAA0
FFF0
AAA0
FFF0
AAA0
FFF0
AAA0
FFF0
AAA0
FFF0
AAA0
FFF0
AAA0
FFF0
AAA0
FFF0
AAA0
FFF0
AAA0
FFF0
AAA0
FFF0
AAA0
FFF0
AAA0
FFF0
ENDCHAR

STARTCHAR HT
ENCODING 98
SWIDTH 430 0
DWIDTH 12 0
BBX 12 28 0 -4
BITMAP
0000
0000
0000
0000
0000
0000
0000
3300
3300
3300
3F00
3F00
3300
3300
3300
0000
0000
07E0
07E0
0180
0180
0180
0180
0180
0180
0000
0000
0000
ENDCHAR

STARTCHAR FF
ENCODING 99
SWIDTH 430 0
DWIDTH 12 0
BBX 12 28 0 -4
BITMAP
0000
0000
0000
0000
0000
0000
0000
1E00
1E00
1800
1E00
1E00
1800
1800
1800
0000
0000
07C0
07C0
0600
0780
0780
0600
0600
0600
0000
0000
0000
ENDCHAR

STARTCHAR CR
ENCODING 100
SWIDTH 430 0
DWIDTH 12 0
BBX 12 28 0 -4
BITMAP
0000
0000
0000
0000
0000
0000
0000
0F00
1F80
3980
3000
3000
3980
1F80
0F00
0000
0000
1F00
1F80
1980
1980
1F00
1F80
19C0
18C0
0000
0000
0000
ENDCHAR

STARTCHAR LF
ENCODING 101
SWIDTH 430 0
DWIDTH 12 0
BBX 12 28 0 -4
BITMAP
0000
0000
0000
0000
0000
0000
0000
1800
1800
1800
1800
1800
1800
1F00
1F00
0000
0000
07C0
07C0
0600
0780
0780
0600
0600
0600
0000
0000
0000
ENDCHAR

STARTCHAR degree
ENCODING 102
SWIDTH 430 0
DWIDTH 12 0
BBX 12 28 0 -4
BITMAP
0000
0000
0000
0000
0000
0000
0600
0F00
1980
1980
0F00
0600
0000
0000
0000
0000
0000
0000
0000
0000
0000
0000
0000
0000
0000
0000
0000
0000
ENDCHAR

STARTCHAR plusminus
ENCODING 103
SWIDTH 430 0
DWIDTH 12 0
BBX 12 28 0 -4
BITMAP
0000
0000
0000
0000
0000
0000
0000
0000
0000
0E00
0E00
0E00
0E00
7FC0
7FC0
7FC0
0E00
0E00
0E00
0E00
0000
7FC0
7FC0
7FC0
0000
0000
0000
0000
ENDCHAR

STARTCHAR NL
ENCODING 104
SWIDTH 430 0
DWIDTH 12 0
BBX 12 28 0 -4
BITMAP
0000
0000
0000
0000
0000
0000
0000
30C0
38C0
3CC0
3EC0
37C0
33C0
31C0
30C0
0000
0000
0C00
0C00
0C00
0C00
0C00
0C00
0FC0
0FC0
0000
0000
0000
ENDCHAR

STARTCHAR VT
ENCODING 105
SWIDTH 430 0
DWIDTH 12 0
BBX 12 28 0 -4
BITMAP
0000
0000
0000
0000
0000
0000
0000
30C0
30C0
30C0
39C0
1980
1F80
0F00
0600
0000
0000
1FC0
1FC0
0700
0700
0700
0700
0700
0700
0000
0000
0000
ENDCHAR

STARTCHAR ldcornsqlr
ENCODING 106
SWIDTH 430 0
DWIDTH 12 0
BBX 12 28 0 -4
BITMAP
0E00
0E00
0E00
0E00
0E00
0E00
0E00
0E00
0E00
0E00
0E00
0E00
0E00
FE00
FE00
FE00
0000
0000
0000
0000
0000
0000
0000
0000
0000
0000
0000
0000
ENDCHAR

STARTCHAR ldcornsqur
ENCODING 107
SWIDTH 430 0
DWIDTH 12 0
BBX 12 28 0 -4
BITMAP
0000
0000
0000
0000
0000
0000
0000
0000
0000
0000
0000
0000
0000
FE00
FE00
FE00
0E00
0E00
0E00
0E00
0E00
0E00
0E00
0E00
0E00
0E00
0E00
0E00
ENDCHAR

STARTCHAR ldcornsqul
ENCODING 108
SWIDTH 430 0
DWIDTH 12 0
BBX 12 28 0 -4
BITMAP
0000
0000
0000
0000
0000
0000
0000
0000
0000
0000
0000
0000
0000
0FF0
0FF0
0FF0
0E00
0E00
0E00
0E00
0E00
0E00
0E00
0E00
0E00
0E00
0E00
0E00
ENDCHAR

STARTCHAR ldcornsqll
ENCODING 109
SWIDTH 430 0
DWIDTH 12 0
BBX 12 28 0 -4
BITMAP
0E00
0E00
0E00
0E00
0E00
0E00
0E00
0E00
0E00
0E00
0E00
0E00
0E00
0FF0
0FF0
0FF0
0000
0000
0000
0000
0000
0000
0000
0000
0000
0000
0000
0000
ENDCHAR

STARTCHAR ldcross
ENCODING 110
SWIDTH 430 0
DWIDTH 12 0
BBX 12 28 0 -4
BITMAP
0E00
0E00
0E00
0E00
0E00
0E00
0E00
0E00
0E00
0E00
0E00
0E00
0E00
FFF0
FFF0
FFF0
0E00
0E00
0E00
0E00
0E00
0E00
0E00
0E00
0E00
0E00
0E00
0E00
ENDCHAR

STARTCHAR ldscan1
ENCODING 111
SWIDTH 430 0
DWIDTH 12 0
BBX 12 28 0 -4
BITMAP
FFF0
FFF0
FFF0
0000
0000
0000
0000
0000
0000
0000
0000
0000
0000
0000
0000
0000
0000
0000
0000
0000
0000
0000
0000
0000
0000
0000
0000
0000
ENDCHAR

STARTCHAR ldscan3
ENCODING 112
SWIDTH 430 0
DWIDTH 12 0
BBX 12 28 0 -4
BITMAP
0000
0000
0000
0000
0000
0000
FFF0
FFF0
FFF0
0000
0000
0000
0000
0000
0000
0000
0000
0000
0000
0000
0000
0000
0000
0000
0000
0000
0000
0000
ENDCHAR

STARTCHAR ldhorizontal
ENCODING 113
SWIDTH 430 0
DWIDTH 12 0
BBX 12 28 0 -4
BITMAP
0000
0000
0000
0000
0000
0000
0000
0000
0000
0000
0000
0000
0000
FFF0
FFF0
FFF0
0000
0000
0000
0000
0000
0000
0000
0000
0000
0000
0000
0000
ENDCHAR

STARTCHAR ldscan7
ENCODING 114
SWIDTH 430 0
DWIDTH 12 0
BBX 12 28 0 -4
BITMAP
0000
0000
0000
0000
0000
0000
0000
0000
0000
0000
0000
0000
0000
0000
0000
0000
0000
0000
0000
FFF0
FFF0
FFF0
0000
0000
0000
0000
0000
0000
ENDCHAR

STARTCHAR ldscan9
ENCODING 115
SWIDTH 430 0
DWIDTH 12 0
BBX 12 28 0 -4
BITMAP
0000
0000
0000
0000
0000
0000
0000
0000
0000
0000
0000
0000
0000
0000
0000
0000
0000
0000
0000
0000
0000
0000
0000
0000
0000
FFF0
FFF0
FFF0
ENDCHAR

STARTCHAR ldteelft
ENCODING 116
SWIDTH 430 0
DWIDTH 12 0
BBX 12 28 0 -4
BITMAP
0E00
0E00
0E00
0E00
0E00
0E00
0E00
0E00
0E00
0E00
0E00
0E00
0E00
0FF0
0FF0
0FF0
0E00
0E00
0E00
0E00
0E00
0E00
0E00
0E00
0E00
0E00
0E00
0E00
ENDCHAR

STARTCHAR ldteert
ENCODING 117
SWIDTH 430 0
DWIDTH 12 0
BBX 12 28 0 -4
BITMAP
0E00
0E00
0E00
0E00
0E00
0E00
0E00
0E00
0E00
0E00
0E00
0E00
0E00
FE00
FE00
FE00
0E00
0E00
0E00
0E00
0E00
0E00
0E00
0E00
0E00
0E00
0E00
0E00
ENDCHAR

STARTCHAR ldteebt
ENCODING 118
SWIDTH 430 0
DWIDTH 12 0
BBX 12 28 0 -4
BITMAP
0E00
0E00
0E00
0E00
0E00
0E00
0E00
0E00
0E00
0E00
0E00
0E00
0E00
FFF0
FFF0
FFF0
0000
0000
0000
0000
0000
0000
0000
0000
0000
0000
0000
0000
ENDCHAR

STARTCHAR ldteetp
ENCODING 119
SWIDTH 430 0
DWIDTH 12 0
BBX 12 28 0 -4
BITMAP
0000
0000
0000
0000
0000
0000
0000
0000
0000
0000
0000
0000
0000
FFF0
FFF0
FFF0
0E00
0E00
0E00
0E00
0E00
0E00
0E00
0E00
0E00
0E00
0E00
0E00
ENDCHAR

STARTCHAR ldvertical
ENCODING 120
SWIDTH 430 0
DWIDTH 12 0
BBX 12 28 0 -4
BITMAP
0E00
0E00
0E00
0E00
0E00
0E00
0E00
0E00
0E00
0E00
0E00
0E00
0E00
0E00
0E00
0E00
0E00
0E00
0E00
0E00
0E00
0E00
0E00
0E00
0E00
0E00
0E00
0E00
ENDCHAR

STARTCHAR lessequal
ENCODING 121
SWIDTH 430 0
DWIDTH 12 0
BBX 12 28 0 -4
BITMAP
0000
0000
0000
0000
0000
0000
0000
0000
0000
03C0
0780
0F00
1E00
3C00
3C00
1E00
0F00
0780
03C0
0000
0000
3FE0
3FE0
3FE0
0000
0000
0000
0000
ENDCHAR

STARTCHAR greaterequal
ENCODING 122
SWIDTH 430 0
DWIDTH 12 0
BBX 12 28 0 -4
BITMAP
0000
0000
0000
0000
0000
0000
0000
0000
0000
1E00
0F00
0780
03C0
01E0
01E0
03C0
0780
0F00
1E00
0000
0000
3FE0
3FE0
3FE0
0000
0000
0000
0000
ENDCHAR

STARTCHAR pi
ENCODING 123
SWIDTH 430 0
DWIDTH 12 0
BBX 12 28 0 -4
BITMAP
0000
0000
0000
0000
0000
0000
0000
0000
0000
0000
0000
0000
7FE0
7FE0
39C0
39C0
39C0
39C0
39C0
39C0
39C0
39C0
71C0
61C0
0000
0000
0000
0000
ENDCHAR

STARTCHAR notequal
ENCODING 124
SWIDTH 430 0
DWIDTH 12 0
BBX 12 28 0 -4
BITMAP
0000
0000
0000
0000
0000
0000
0000
0000
0000
0000
0180
0180
7FE0
7FE0
7FE0
0600
0600
7FE0
7FE0
7FE0
1800
1800
0000
0000
0000
0000
0000
0000
ENDCHAR

STARTCHAR sterling
ENCODING 125
SWIDTH 430 0
DWIDTH 12 0
BBX 12 28 0 -4
BITMAP
0000
0000
0000
0000
0000
0000
0000
0000
0780
0FC0
0EE0
1CE0
1C00
1C00
1C00
7F80
7F80
1C00
1C00
1C00
1C00
1E60
3FE0
67C0
0000
0000
0000
0000
ENDCHAR

STARTCHAR periodcentered
ENCODING 126
SWIDTH 430 0
DWIDTH 12 0
BBX 12 28 0 -4
BITMAP
0000
0000
0000
0000
0000
0000
0000
0000
0000
0000
0000
0000
0000
0000
0E00
0E00
0E00
0000
0000
0000
0000
0000
0000
0000
0000
0000
0000
0000
ENDCHAR

STARTCHAR Error
ENCODING 159
SWIDTH 430 0
DWIDTH 12 0
BBX 12 28 0 -4
BITMAP
0F80
3FC0
7FE0
7FE0
FFF0
FDF0
F8F0
F8F0
FC00
FC00
7E00
3F00
1F00
0F80
0F80
0F80
0F80
0F80
0F80
0000
0000
0F80
0F80
0F80
0F80
0F80
0F80
0F80
ENDCHAR

STARTCHAR space
ENCODING 160
SWIDTH 430 0
DWIDTH 12 0
BBX 12 28 0 -4
BITMAP
0000
0000
0000
0000
0000
0000
0000
0000
0000
0000
0000
0000
0000
0000
0000
0000
0000
0000
0000
0000
0000
0000
0000
0000
0000
0000
0000
0000
ENDCHAR

STARTCHAR ldradicalbt
ENCODING 161
SWIDTH 430 0
DWIDTH 12 0
BBX 12 28 0 -4
BITMAP
0F00
0F00
0F00
0F00
0F00
0F00
0F00
0F00
0F00
0F00
0F00
0F00
0F00
0F00
0F00
FF00
FF00
FF00
FF00
1F00
0F00
0700
0300
0000
0000
0000
0000
0000
ENDCHAR

STARTCHAR ldradicaltp
ENCODING 162
SWIDTH 430 0
DWIDTH 12 0
BBX 12 28 0 -4
BITMAP
0000
0000
0000
0000
0000
0000
0000
0000
0000
0000
0000
0000
0FF0
0FF0
0FF0
0FF0
0F00
0F00
0F00
0F00
0F00
0F00
0F00
0F00
0F00
0F00
0F00
0F00
ENDCHAR

STARTCHAR ldhorizontal
ENCODING 163
SWIDTH 430 0
DWIDTH 12 0
BBX 12 28 0 -4
BITMAP
0000
0000
0000
0000
0000
0000
0000
0000
0000
0000
0000
0000
FFF0
FFF0
FFF0
FFF0
0000
0000
0000
0000
0000
0000
0000
0000
0000
0000
0000
0000
ENDCHAR

STARTCHAR ldintegraltp
ENCODING 164
SWIDTH 430 0
DWIDTH 12 0
BBX 12 28 0 -4
BITMAP
0000
0000
0000
03C0
07E0
07E0
0FF0
0F30
0F30
0F00
0F00
0F00
0F00
0F00
0F00
0F00
0F00
0F00
0F00
0F00
0F00
0F00
0F00
0F00
0F00
0F00
0F00
0F00
ENDCHAR

STARTCHAR ldintegralbt
ENCODING 165
SWIDTH 430 0
DWIDTH 12 0
BBX 12 28 0 -4
BITMAP
0F00
0F00
0F00
0F00
0F00
0F00
0F00
0F00
0F00
0F00
0F00
0F00
0F00
0F00
0F00
0F00
0F00
0F00
0F00
0F00
CF00
CF00
FF00
7E00
7E00
3C00
0000
0000
ENDCHAR

STARTCHAR ldvertical
ENCODING 166
SWIDTH 430 0
DWIDTH 12 0
BBX 12 28 0 -4
BITMAP
0F00
0F00
0F00
0F00
0F00
0F00
0F00
0F00
0F00
0F00
0F00
0F00
0F00
0F00
0F00
0F00
0F00
0F00
0F00
0F00
0F00
0F00
0F00
0F00
0F00
0F00
0F00
0F00
ENDCHAR

STARTCHAR ldbracketlfttp
ENCODING 167
SWIDTH 430 0
DWIDTH 12 0
BBX 12 28 0 -4
BITMAP
0000
0000
0000
0FF0
0FF0
0FF0
0FF0
0F00
0F00
0F00
0F00
0F00
0F00
0F00
0F00
0F00
0F00
0F00
0F00
0F00
0F00
0F00
0F00
0F00
0F00
0F00
0F00
0F00
ENDCHAR

STARTCHAR ldbracketlftbt
ENCODING 168
SWIDTH 430 0
DWIDTH 12 0
BBX 12 28 0 -4
BITMAP
0F00
0F00
0F00
0F00
0F00
0F00
0F00
0F00
0F00
0F00
0F00
0F00
0F00
0F00
0F00
0F00
0F00
0F00
0F00
0F00
0F00
0F00
0FF0
0FF0
0FF0
0FF0
0000
0000
ENDCHAR

STARTCHAR ldbracketrttp
ENCODING 169
SWIDTH 430 0
DWIDTH 12 0
BBX 12 28 0 -4
BITMAP
0000
0000
FF00
FF00
FF00
FF00
0F00
0F00
0F00
0F00
0F00
0F00
0F00
0F00
0F00
0F00
0F00
0F00
0F00
0F00
0F00
0F00
0F00
0F00
0F00
0F00
0F00
0F00
ENDCHAR

STARTCHAR ldbracketrtbt
ENCODING 170
SWIDTH 430 0
DWIDTH 12 0
BBX 12 28 0 -4
BITMAP
0F00
0F00
0F00
0F00
0F00
0F00
0F00
0F00
0F00
0F00
0F00
0F00
0F00
0F00
0F00
0F00
0F00
0F00
0F00
0F00
0F00
0F00
FF00
FF00
FF00
FF00
0000
0000
ENDCHAR

STARTCHAR ldbracelfttp
ENCODING 171
SWIDTH 430 0
DWIDTH 12 0
BBX 12 28 0 -4
BITMAP
0000
0000
03F0
07F0
0FF0
0FF0
0F00
0F00
0F00
0F00
0F00
0F00
0F00
0F00
0F00
0F00
0F00
0F00
0F00
0F00
0F00
0F00
0F00
0F00
0F00
0F00
0F00
0F00
ENDCHAR

STARTCHAR ldbracelftbt
ENCODING 172
SWIDTH 430 0
DWIDTH 12 0
BBX 12 28 0 -4
BITMAP
0F00
0F00
0F00
0F00
0F00
0F00
0F00
0F00
0F00
0F00
0F00
0F00
0F00
0F00
0F00
0F00
0F00
0F00
0F00
0F00
0F00
0F00
0FF0
0FF0
07F0
03F0
0000
0000
ENDCHAR

STARTCHAR ldbracerttp
ENCODING 173
SWIDTH 430 0
DWIDTH 12 0
BBX 12 28 0 -4
BITMAP
0000
0000
FC00
FE00
FF00
FF00
0F00
0F00
0F00
0F00
0F00
0F00
0F00
0F00
0F00
0F00
0F00
0F00
0F00
0F00
0F00
0F00
0F00
0F00
0F00
0F00
0F00
0F00
ENDCHAR

STARTCHAR ldbracertbt
ENCODING 174
SWIDTH 430 0
DWIDTH 12 0
BBX 12 28 0 -4
BITMAP
0F00
0F00
0F00
0F00
0F00
0F00
0F00
0F00
0F00
0F00
0F00
0F00
0F00
0F00
0F00
0F00
0F00
0F00
0F00
0F00
0F00
0F00
FF00
FF00
FE00
FC00
0000
0000
ENDCHAR

STARTCHAR ldbracelftmid
ENCODING 175
SWIDTH 430 0
DWIDTH 12 0
BBX 12 28 0 -4
BITMAP
0F00
0F00
0F00
0F00
0F00
0F00
0F00
0F00
0F00
0F00
1F00
3E00
7C00
F800
F800
7C00
3E00
1F00
0F00
0F00
0F00
0F00
0F00
0F00
0F00
0F00
0F00
0F00
ENDCHAR

STARTCHAR ldbracertmid
ENCODING 176
SWIDTH 430 0
DWIDTH 12 0
BBX 12 28 0 -4
BITMAP
0F00
0F00
0F00
0F00
0F00
0F00
0F00
0F00
0F00
0F00
0F80
07C0
03E0
01F0
01F0
03E0
07C0
0F80
0F00
0F00
0F00
0F00
0F00
0F00
0F00
0F00
0F00
0F00
ENDCHAR

STARTCHAR ldsigmalfttp
ENCODING 177
SWIDTH 430 0
DWIDTH 12 0
BBX 12 28 0 -4
BITMAP
0000
0000
0000
0000
0000
0000
0000
0000
0000
0000
0000
0000
0FF0
0FF0
0FF0
0FF0
0700
0780
0380
03C0
01C0
01E0
00E0
00F0
0070
0070
0030
0030
ENDCHAR

STARTCHAR ldsigmalftbt
ENCODING 178
SWIDTH 430 0
DWIDTH 12 0
BBX 12 28 0 -4
BITMAP
0030
0030
0070
0070
00F0
00E0
01E0
01C0
03C0
0380
0780
0700
0FF0
0FF0
0FF0
0FF0
0000
0000
0000
0000
0000
0000
0000
0000
0000
0000
0000
0000
ENDCHAR

STARTCHAR ldbackslash
ENCODING 179
SWIDTH 430 0
DWIDTH 12 0
BBX 12 28 0 -4
BITMAP
8000
C000
C000
E000
E000
F000
7000
7800
3800
3C00
1C00
1E00
0E00
0E00
0700
0700
0380
0380
01C0
01C0
01E0
00E0
00F0
0070
0070
0030
0030
0010
ENDCHAR

STARTCHAR ldslash
ENCODING 180
SWIDTH 430 0
DWIDTH 12 0
BBX 12 28 0 -4
BITMAP
0010
0030
0030
0070
0070
00F0
00E0
00E0
01C0
01C0
0380
0380
0700
0700
0F00
0E00
1E00
1C00
3C00
3800
7800
7000
F000
E000
E000
C000
C000
8000
ENDCHAR

STARTCHAR ldsigmarttp
ENCODING 181
SWIDTH 430 0
DWIDTH 12 0
BBX 12 28 0 -4
BITMAP
0000
0000
0000
0000
0000
0000
0000
0000
0000
0000
0000
0000
FFC0
FFC0
FFC0
FFC0
03C0
03C0
0000
0000
0000
0000
0000
0000
0000
0000
0000
0000
ENDCHAR

STARTCHAR ldsigmartbt
ENCODING 182
SWIDTH 430 0
DWIDTH 12 0
BBX 12 28 0 -4
BITMAP
0000
0000
0000
0000
0000
0000
0000
0000
0000
0000
03C0
03C0
FFC0
FFC0
FFC0
FFC0
0000
0000
0000
0000
0000
0000
0000
0000
0000
0000
0000
0000
ENDCHAR

STARTCHAR ldsigmamid
ENCODING 183
SWIDTH 430 0
DWIDTH 12 0
BBX 12 28 0 -4
BITMAP
C000
C000
E000
E000
7000
7000
3800
3800
1C00
1C00
0E00
0E00
0700
0700
0700
0700
0E00
0E00
1C00
1C00
3800
3800
7000
7000
E000
E000
C000
C000
ENDCHAR

STARTCHAR lessequal
ENCODING 188
SWIDTH 430 0
DWIDTH 12 0
BBX 12 28 0 -4
BITMAP
0000
0000
0000
0000
0000
0000
0000
0000
0000
03C0
0780
0F00
1E00
3C00
3C00
1E00
0F00
0780
03C0
0000
0000
3FE0
3FE0
3FE0
0000
0000
0000
0000
ENDCHAR

STARTCHAR notequal
ENCODING 189
SWIDTH 430 0
DWIDTH 12 0
BBX 12 28 0 -4
BITMAP
0000
0000
0000
0000
0000
0000
0000
0000
0000
0000
0180
0180
7FE0
7FE0
7FE0
0600
0600
7FE0
7FE0
7FE0
1800
1800
0000
0000
0000
0000
0000
0000
ENDCHAR

STARTCHAR greaterequal
ENCODING 190
SWIDTH 430 0
DWIDTH 12 0
BBX 12 28 0 -4
BITMAP
0000
0000
0000
0000
0000
0000
0000
0000
0000
1E00
0F00
0780
03C0
01E0
01E0
03C0
0780
0F00
1E00
0000
0000
3FE0
3FE0
3FE0
0000
0000
0000
0000
ENDCHAR

STARTCHAR integral
ENCODING 191
SWIDTH 430 0
DWIDTH 12 0
BBX 12 28 0 -4
BITMAP
0000
0000
0000
0000
0000
0380
07C0
07E0
0E60
0E60
0E00
0E00
0E00
0E00
0E00
0E00
0E00
0E00
0E00
0E00
0E00
0E00
CE00
CE00
FC00
7C00
3800
0000
ENDCHAR

STARTCHAR therefore
ENCODING 192
SWIDTH 430 0
DWIDTH 12 0
BBX 12 28 0 -4
BITMAP
0000
0000
0000
0000
0000
0000
0000
0000
0F00
0F00
0F00
0F00
0000
0000
0000
0000
F0F0
F0F0
F0F0
F0F0
0000
0000
0000
0000
0000
0000
0000
0000
ENDCHAR

STARTCHAR proportional
ENCODING 193
SWIDTH 430 0
DWIDTH 12 0
BBX 12 28 0 -4
BITMAP
0000
0000
0000
0000
0000
0000
0000
0000
0000
0000
1CE0
3FF0
77B0
7380
7380
7380
7380
7380
7380
77B0
3FF0
1CE0
0000
0000
0000
0000
0000
0000
ENDCHAR

STARTCHAR infinity
ENCODING 194
SWIDTH 430 0
DWIDTH 12 0
BBX 12 28 0 -4
BITMAP
0000
0000
0000
0000
0000
0000
0000
0000
0000
0000
39C0
7FE0
EF70
E670
E670
E670
E670
E670
E670
EF70
7FE0
39C0
0000
0000
0000
0000
0000
0000
ENDCHAR

STARTCHAR divide
ENCODING 195
SWIDTH 430 0
DWIDTH 12 0
BBX 12 28 0 -4
BITMAP
0000
0000
0000
0000
0000
0000
0000
0000
0000
0F00
0F00
0F00
0000
0000
7FE0
7FE0
7FE0
0000
0000
0F00
0F00
0F00
0000
0000
0000
0000
0000
0000
ENDCHAR

STARTCHAR Delta
ENCODING 196
SWIDTH 430 0
DWIDTH 12 0
BBX 12 28 0 -4
BITMAP
0000
0000
0000
0000
0000
0000
0000
0000
0000
0000
0600
0F00
1F80
39C0
70E0
6060
6060
6060
7FE0
7FE0
7FE0
0000
0000
0000
0000
0000
0000
0000
ENDCHAR

STARTCHAR gradient
ENCODING 197
SWIDTH 430 0
DWIDTH 12 0
BBX 12 28 0 -4
BITMAP
0000
0000
0000
0000
0000
0000
0000
0000
0000
0000
7FE0
7FE0
7FE0
6060
6060
6060
6060
70E0
39C0
1F80
0F00
0600
0000
0000
0000
0000
0000
0000
ENDCHAR

STARTCHAR Phi
ENCODING 198
SWIDTH 430 0
DWIDTH 12 0
BBX 12 28 0 -4
BITMAP
0000
0000
0000
0000
0000
0000
0000
0000
3FC0
3FC0
0F00
0F00
3FC0
7FE0
CF30
CF30
CF30
7FE0
3FC0
0F00
0F00
0F00
3FC0
3FC0
0000
0000
0000
0000
ENDCHAR

STARTCHAR Gamma
ENCODING 199
SWIDTH 430 0
DWIDTH 12 0
BBX 12 28 0 -4
BITMAP
0000
0000
0000
0000
0000
0000
0000
0000
7FF0
7FF0
1E30
1E30
1E00
1E00
1E00
1E00
1E00
1E00
1E00
1E00
1E00
1E00
7F80
7F80
0000
0000
0000
0000
ENDCHAR

STARTCHAR similar
ENCODING 200
SWIDTH 430 0
DWIDTH 12 0
BBX 12 28 0 -4
BITMAP
0000
0000
0000
0000
0000
0000
0000
0000
0000
0000
0000
1830
3C30
3E30
7F70
77F0
63E0
61E0
60C0
0000
0000
0000
0000
0000
0000
0000
0000
0000
ENDCHAR

STARTCHAR approxequal
ENCODING 201
SWIDTH 430 0
DWIDTH 12 0
BBX 12 28 0 -4
BITMAP
0000
0000
0000
0000
0000
0000
0000
0000
0000
0000
1830
3C30
3E30
7F70
77F0
63E0
61E0
60C0
0000
0000
7FF0
7FF0
7FF0
0000
0000
0000
0000
0000
ENDCHAR

STARTCHAR Theta
ENCODING 202
SWIDTH 430 0
DWIDTH 12 0
BBX 12 28 0 -4
BITMAP
0000
0000
0000
0000
0000
0000
0000
0000
0F00
1F80
3FC0
70E0
6060
6060
6960
6F60
6F60
6960
6060
6060
70E0
3FC0
1F80
0F00
0000
0000
0000
0000
ENDCHAR

STARTCHAR multiply
ENCODING 203
SWIDTH 430 0
DWIDTH 12 0
BBX 12 28 0 -4
BITMAP
0000
0000
0000
0000
0000
0000
0000
0000
0000
0000
0000
70E0
70E0
39C0
1F80
0F00
0F00
1F80
39C0
70E0
70E0
0000
0000
0000
0000
0000
0000
0000
ENDCHAR

STARTCHAR Lambda
ENCODING 204
SWIDTH 430 0
DWIDTH 12 0
BBX 12 28 0 -4
BITMAP
0000
0000
0000
0000
0000
0000
0000
0000
0600
0F00
0F00
1F80
1980
39C0
39C0
39C0
39C0
79E0
70E0
70E0
70E0
70E0
70E0
70E0
0000
0000
0000
0000
ENDCHAR

STARTCHAR arrowdblboth
ENCODING 205
SWIDTH 430 0
DWIDTH 12 0
BBX 12 28 0 -4
BITMAP
0000
0000
0000
0000
0000
0000
1980
1980
39C0
30C0
3FC0
7FE0
7FE0
FFF0
C030
C030
FFF0
7FE0
7FE0
3FC0
30C0
39C0
1980
1980
0000
0000
0000
0000
ENDCHAR

STARTCHAR arrowdblright
ENCODING 206
SWIDTH 430 0
DWIDTH 12 0
BBX 12 28 0 -4
BITMAP
0000
0000
0000
0000
0000
0000
0600
0600
0300
0300
7F80
7F80
7FC0
7FC0
00E0
00E0
7FC0
7FC0
7F80
7F80
0300
0300
0600
0600
0000
0000
0000
0000
ENDCHAR

STARTCHAR equivalence
ENCODING 207
SWIDTH 430 0
DWIDTH 12 0
BBX 12 28 0 -4
BITMAP
0000
0000
0000
0000
0000
0000
0000
0000
7FE0
7FE0
7FE0
0000
0000
0000
7FE0
7FE0
7FE0
0000
0000
0000
7FE0
7FE0
7FE0
0000
0000
0000
0000
0000
ENDCHAR

STARTCHAR Pi
ENCODING 208
SWIDTH 430 0
DWIDTH 12 0
BBX 12 28 0 -4
BITMAP
0000
0000
0000
0000
0000
0000
0000
0000
FFF0
FFF0
FFF0
FFF0
39C0
39C0
39C0
39C0
39C0
39C0
39C0
39C0
39C0
39C0
39C0
39C0
0000
0000
0000
0000
ENDCHAR

STARTCHAR Psi
ENCODING 209
SWIDTH 430 0
DWIDTH 12 0
BBX 12 28 0 -4
BITMAP
0000
0000
0000
0000
0000
0000
0000
0000
6030
6030
6730
6730
6730
6730
6730
6730
6730
6730
3FE0
1FC0
0700
0700
1FC0
1FC0
0000
0000
0000
0000
ENDCHAR

STARTCHAR Sigma
ENCODING 211
SWIDTH 430 0
DWIDTH 12 0
BBX 12 28 0 -4
BITMAP
0000
0000
0000
0000
0000
0000
0000
0000
3FE0
3FE0
3FE0
3C60
1E60
0F00
0780
03C0
0780
0F00
1E00
3C60
3860
3FE0
3FE0
3FE0
0000
0000
0000
0000
ENDCHAR

STARTCHAR radical
ENCODING 214
SWIDTH 430 0
DWIDTH 12 0
BBX 12 28 0 -4
BITMAP
0000
0000
0000
0000
0000
0000
0070
0070
0070
00F0
00F0
00E0
01E0
01E0
01E0
E1C0
E3C0
F3C0
F3C0
7F80
3F80
3F80
0F00
0700
0000
0000
0000
0000
ENDCHAR

STARTCHAR Omega
ENCODING 215
SWIDTH 430 0
DWIDTH 12 0
BBX 12 28 0 -4
BITMAP
0000
0000
0000
0000
0000
0000
0000
0000
1F80
3FC0
3FC0
79E0
70E0
70E0
70E0
70E0
70E0
39C0
39C0
1980
79E0
79E0
79E0
79E0
0000
0000
0000
0000
ENDCHAR

STARTCHAR Xi
ENCODING 216
SWIDTH 430 0
DWIDTH 12 0
BBX 12 28 0 -4
BITMAP
0000
0000
0000
0000
0000
0000
0000
0000
7FE0
7FE0
7FE0
7FE0
0000
0000
1F80
1F80
1F80
1F80
0000
0000
7FE0
7FE0
7FE0
7FE0
0000
0000
0000
0000
ENDCHAR

STARTCHAR Upsilon1
ENCODING 217
SWIDTH 430 0
DWIDTH 12 0
BBX 12 28 0 -4
BITMAP
0000
0000
0000
0000
0000
0000
0000
0000
70E0
70E0
70E0
70E0
70E0
79E0
39C0
3FC0
1F80
0F00
0F00
0F00
0F00
0F00
0F00
0F00
0000
0000
0000
0000
ENDCHAR

STARTCHAR propersubset
ENCODING 218
SWIDTH 430 0
DWIDTH 12 0
BBX 12 28 0 -4
BITMAP
0000
0000
0000
0000
0000
0000
0000
0000
0000
0FE0
3FE0
3FE0
7800
7000
7000
7000
7000
7000
7800
3FE0
3FE0
0FE0
0000
0000
0000
0000
0000
0000
ENDCHAR

STARTCHAR propersuperset
ENCODING 219
SWIDTH 430 0
DWIDTH 12 0
BBX 12 28 0 -4
BITMAP
0000
0000
0000
0000
0000
0000
0000
0000
0000
7F00
7FC0
7FC0
01E0
00E0
00E0
00E0
00E0
00E0
01E0
7FC0
7FC0
7F00
0000
0000
0000
0000
0000
0000
ENDCHAR

STARTCHAR intersection
ENCODING 220
SWIDTH 430 0
DWIDTH 12 0
BBX 12 28 0 -4
BITMAP
0000
0000
0000
0000
0000
0000
0000
0000
0000
0000
0F80
3FE0
3FE0
78F0
7070
7070
7070
7070
7070
7070
7070
7070
7070
0000
0000
0000
0000
0000
ENDCHAR

STARTCHAR union
ENCODING 221
SWIDTH 430 0
DWIDTH 12 0
BBX 12 28 0 -4
BITMAP
0000
0000
0000
0000
0000
0000
0000
0000
0000
0000
7070
7070
7070
7070
7070
7070
7070
7070
7070
78F0
3FE0
3FE0
0F80
0000
0000
0000
0000
0000
ENDCHAR

STARTCHAR logicaland
ENCODING 222
SWIDTH 430 0
DWIDTH 12 0
BBX 12 28 0 -4
BITMAP
0000
0000
0000
0000
0000
0000
0000
0000
0000
0600
0F00
1F80
3FC0
3FC0
79E0
79E0
70E0
70E0
70E0
70E0
70E0
70E0
0000
0000
0000
0000
0000
0000
ENDCHAR

STARTCHAR logicalor
ENCODING 223
SWIDTH 430 0
DWIDTH 12 0
BBX 12 28 0 -4
BITMAP
0000
0000
0000
0000
0000
0000
0000
0000
0000
70E0
70E0
70E0
70E0
70E0
70E0
79E0
39C0
3FC0
3FC0
1F80
0F00
0600
0000
0000
0000
0000
0000
0000
ENDCHAR

STARTCHAR logicalnot
ENCODING 224
SWIDTH 430 0
DWIDTH 12 0
BBX 12 28 0 -4
BITMAP
0000
0000
0000
0000
0000
0000
0000
0000
0000
0000
0000
0000
0000
7FE0
7FE0
7FE0
01E0
01E0
0000
0000
0000
0000
0000
0000
0000
0000
0000
0000
ENDCHAR

STARTCHAR alpha
ENCODING 225
SWIDTH 430 0
DWIDTH 12 0
BBX 12 28 0 -4
BITMAP
0000
0000
0000
0000
0000
0000
0000
0000
0000
0000
0000
0000
1F30
3FF0
7BF0
71C0
71C0
71C0
71C0
71C0
71C0
7BF0
3FF0
1F30
0000
0000
0000
0000
ENDCHAR

STARTCHAR beta
ENCODING 226
SWIDTH 430 0
DWIDTH 12 0
BBX 12 28 0 -4
BITMAP
0000
0000
0000
0000
0000
0000
03E0
07F0
07F0
0E30
0E30
1C70
1CE0
1FC0
1F80
3FC0
39C0
39C0
39C0
71C0
71C0
7380
FF80
FF00
C000
C000
0000
0000
ENDCHAR

STARTCHAR chi
ENCODING 227
SWIDTH 430 0
DWIDTH 12 0
BBX 12 28 0 -4
BITMAP
0000
0000
0000
0000
0000
0000
0000
0000
0000
0000
0000
0000
7070
70F0
70E0
39E0
39C0
1F80
1F00
0F00
1F80
3F80
39C0
71C0
70E0
E0E0
E0E0
E0E0
ENDCHAR

STARTCHAR delta
ENCODING 228
SWIDTH 430 0
DWIDTH 12 0
BBX 12 28 0 -4
BITMAP
0000
0000
0000
0000
0000
0000
0000
0000
0780
0FE0
1CE0
1C00
0E00
1F80
3FC0
79E0
70E0
70E0
70E0
70E0
70E0
79E0
3FC0
1F80
0000
0000
0000
0000
ENDCHAR

STARTCHAR epsilon
ENCODING 229
SWIDTH 430 0
DWIDTH 12 0
BBX 12 28 0 -4
BITMAP
0000
0000
0000
0000
0000
0000
0000
0000
0000
0000
0000
0000
1FE0
3FE0
3FE0
7000
7000
7F80
7F80
7000
7000
3FE0
3FE0
1FE0
0000
0000
0000
0000
ENDCHAR

STARTCHAR phi
ENCODING 230
SWIDTH 430 0
DWIDTH 12 0
BBX 12 28 0 -4
BITMAP
0000
0000
0000
0000
0000
0000
0000
0000
0000
0060
0060
00C0
0FC0
3FC0
3FC0
73E0
72E0
76E0
74E0
74E0
7CE0
3FC0
3FC0
3F00
3000
6000
6000
0000
ENDCHAR

STARTCHAR gamma
ENCODING 231
SWIDTH 430 0
DWIDTH 12 0
BBX 12 28 0 -4
BITMAP
0000
0000
0000
0000
0000
0000
0000
0000
0000
0000
0000
1800
F870
FC70
3C70
1C70
1E70
1EE0
0EE0
0FC0
07C0
0780
0780
0F00
0E00
1C00
3C00
3800
ENDCHAR

STARTCHAR eta
ENCODING 232
SWIDTH 430 0
DWIDTH 12 0
BBX 12 28 0 -4
BITMAP
0000
0000
0000
0000
0000
0000
0000
0000
0000
0000
0000
0000
E780
EFC0
7FE0
79E0
70E0
70E0
70E0
70E0
70E0
70E0
70E0
70E0
00E0
00E0
00E0
00E0
ENDCHAR

STARTCHAR iota
ENCODING 233
SWIDTH 430 0
DWIDTH 12 0
BBX 12 28 0 -4
BITMAP
0000
0000
0000
0000
0000
0000
0000
0000
0000
0000
0000
0000
3800
3800
3800
3800
3800
3830
3830
3830
3C70
1FF0
1FE0
0780
0000
0000
0000
0000
ENDCHAR

STARTCHAR theta
ENCODING 234
SWIDTH 430 0
DWIDTH 12 0
BBX 12 28 0 -4
BITMAP
0000
0000
0000
0000
0000
0000
0000
0000
1F80
3FC0
39C0
70E0
70E0
70E0
7FE0
7FE0
70E0
70E0
70E0
70E0
70E0
39C0
3FC0
1F80
0000
0000
0000
0000
ENDCHAR

STARTCHAR kappa
ENCODING 235
SWIDTH 430 0
DWIDTH 12 0
BBX 12 28 0 -4
BITMAP
0000
0000
0000
0000
0000
0000
0000
0000
0000
0000
0000
0000
7070
78F0
38E0
39C0
3BC0
3F80
3F00
3F80
3BC0
39E0
39E0
38F0
0000
0000
0000
0000
ENDCHAR

STARTCHAR lambda
ENCODING 236
SWIDTH 430 0
DWIDTH 12 0
BBX 12 28 0 -4
BITMAP
0000
0000
0000
0000
0000
0000
0000
0000
7800
3800
3C00
1C00
1E00
0E00
0F00
0F00
1F80
1F80
1DC0
39C0
39E0
78E0
70E0
70E0
0000
0000
0000
0000
ENDCHAR

STARTCHAR nu
ENCODING 238
SWIDTH 430 0
DWIDTH 12 0
BBX 12 28 0 -4
BITMAP
0000
0000
0000
0000
0000
0000
0000
0000
0000
0000
0000
0000
70E0
78E0
38E0
38E0
38E0
38E0
38E0
39E0
39C0
1FC0
1F80
0E00
0000
0000
0000
0000
ENDCHAR

STARTCHAR partialdiff
ENCODING 239
SWIDTH 430 0
DWIDTH 12 0
BBX 12 28 0 -4
BITMAP
0000
0000
0000
0000
0000
0000
0000
1C00
3F00
7F80
6380
01C0
07C0
1FE0
3FE0
39E0
70E0
70E0
70E0
70E0
79C0
3FC0
3FC0
0F00
0000
0000
0000
0000
ENDCHAR

STARTCHAR pi
ENCODING 240
SWIDTH 430 0
DWIDTH 12 0
BBX 12 28 0 -4
BITMAP
0000
0000
0000
0000
0000
0000
0000
0000
0000
0000
0000
0000
7FE0
7FE0
39C0
39C0
39C0
39C0
39C0
39C0
39C0
39C0
71C0
61C0
0000
0000
0000
0000
ENDCHAR

STARTCHAR psi
ENCODING 241
SWIDTH 430 0
DWIDTH 12 0
BBX 12 28 0 -4
BITMAP
0000
0000
0000
0000
0000
0000
0000
0000
0000
0000
0600
0600
E670
E670
E670
E670
E670
E670
E670
E670
E670
7FE0
3FC0
0600
0600
0600
0000
0000
ENDCHAR

STARTCHAR rho
ENCODING 242
SWIDTH 430 0
DWIDTH 12 0
BBX 12 28 0 -4
BITMAP
0000
0000
0000
0000
0000
0000
0000
0000
0000
0000
0000
0000
0F80
3FC0
3FC0
79E0
70E0
70E0
70E0
79E0
7FC0
7FC0
7780
7000
7000
7000
7000
0000
ENDCHAR

STARTCHAR sigma
ENCODING 243
SWIDTH 430 0
DWIDTH 12 0
BBX 12 28 0 -4
BITMAP
0000
0000
0000
0000
0000
0000
0000
0000
0000
0000
0000
0FE0
0FE0
3FE0
3F80
79C0
70E0
70E0
70E0
70E0
79E0
3FC0
3FC0
0F00
0000
0000
0000
0000
ENDCHAR

STARTCHAR tau
ENCODING 244
SWIDTH 430 0
DWIDTH 12 0
BBX 12 28 0 -4
BITMAP
0000
0000
0000
0000
0000
0000
0000
0000
0000
0000
0030
0030
1FF0
3FE0
7FC0
6700
6700
0700
0700
0700
0700
0700
07C0
03C0
0000
0000
0000
0000
ENDCHAR

STARTCHAR florin
ENCODING 246
SWIDTH 430 0
DWIDTH 12 0
BBX 12 28 0 -4
BITMAP
0000
0000
0000
0000
0000
0000
01C0
03E0
03F0
0730
0730
0700
0700
3FE0
3FE0
0700
0700
0700
0700
0700
0700
0700
6700
6700
7E00
3E00
1C00
0000
ENDCHAR

STARTCHAR omega
ENCODING 247
SWIDTH 430 0
DWIDTH 12 0
BBX 12 28 0 -4
BITMAP
0000
0000
0000
0000
0000
0000
0000
0000
0000
0000
0000
0000
30C0
70E0
70E0
E070
E070
E670
E670
E670
E670
7FE0
7FE0
39C0
0000
0000
0000
0000
ENDCHAR

STARTCHAR xi
ENCODING 248
SWIDTH 430 0
DWIDTH 12 0
BBX 12 28 0 -4
BITMAP
0000
0000
0000
0000
3000
7000
6000
7FC0
3FE0
1FE0
3C60
3800
3800
3C00
1FC0
3FC0
3800
7000
7000
7000
7800
7FC0
3FE0
0FE0
00E0
03C0
0380
0000
ENDCHAR

STARTCHAR upsilon
ENCODING 249
SWIDTH 430 0
DWIDTH 12 0
BBX 12 28 0 -4
BITMAP
0000
0000
0000
0000
0000
0000
0000
0000
0000
0000
0000
0000
71C0
F9C0
B8E0
38E0
38E0
38E0
38E0
38E0
38E0
3DE0
1FC0
0F80
0000
0000
0000
0000
ENDCHAR

STARTCHAR zeta
ENCODING 250
SWIDTH 430 0
DWIDTH 12 0
BBX 12 28 0 -4
BITMAP
0000
0000
0000
1800
3800
3000
38C0
1FE0
0FE0
01E0
03C0
0780
0F00
0E00
1E00
3C00
3800
7800
7000
7000
7800
7FC0
7FE0
3FE0
00E0
03C0
0380
0000
ENDCHAR

STARTCHAR arrowleft
ENCODING 251
SWIDTH 430 0
DWIDTH 12 0
BBX 12 28 0 -4
BITMAP
0000
0000
0000
0000
0000
0000
0000
0000
0000
0100
0300
0700
0F00
1F00
3FF0
7FF0
3FF0
1F00
0F00
0700
0300
0100
0000
0000
0000
0000
0000
0000
ENDCHAR

STARTCHAR arrowup
ENCODING 252
SWIDTH 430 0
DWIDTH 12 0
BBX 12 28 0 -4
BITMAP
0000
0000
0000
0000
0000
0000
0000
0000
0200
0700
0F80
1FC0
3FE0
7FF0
0F80
0F80
0F80
0F80
0F80
0F80
0F80
0F80
0F80
0000
0000
0000
0000
0000
ENDCHAR

STARTCHAR arrowright
ENCODING 253
SWIDTH 430 0
DWIDTH 12 0
BBX 12 28 0 -4
BITMAP
0000
0000
0000
0000
0000
0000
0000
0000
0000
0800
0C00
0E00
0F00
0F80
FFC0
FFE0
FFC0
0F80
0F00
0E00
0C00
0800
0000
0000
0000
0000
0000
0000
ENDCHAR

STARTCHAR arrowdown
ENCODING 254
SWIDTH 430 0
DWIDTH 12 0
BBX 12 28 0 -4
BITMAP
0000
0000
0000
0000
0000
0000
0000
0000
0F80
0F80
0F80
0F80
0F80
0F80
0F80
0F80
0F80
7FF0
3FE0
1FC0
0F80
0700
0200
0000
0000
0000
0000
0000
ENDCHAR

ENDFONT
