STARTFONT 2.1
FONT -HP-HP User-Medium-R-Normal--23-179-85-85-M-120-ISO8859-5
SIZE 17 85 85
FONTBOUNDINGBOX 12 23 0 -5

STARTPROPERTIES 9
POINT_SIZE 170
WEIGHT 10
RESOLUTION_X 85
RESOLUTION_Y 85
X_HEIGHT 9
QUAD_WIDTH 12
DEFAULT_CHAR 32
FONT_DESCENT 5
FONT_ASCENT 18
ENDPROPERTIES

CHARS 224

STARTCHAR c0764
ENCODING 0
SWIDTH 602 0
DWIDTH 12 0
BBX 12 23 0 -5
BITMAP
0000
0000
4800
6800
6800
5800
5800
4800
0000
0900
0900
0900
0900
0900
0600
0000
0100
0100
0100
0100
0100
01E0
0000
ENDCHAR

STARTCHAR c0765
ENCODING 1
SWIDTH 602 0
DWIDTH 12 0
BBX 12 23 0 -5
BITMAP
0000
0000
3800
4000
3000
0800
4800
3000
0000
0600
0900
0900
0900
0900
0600
0000
0120
0120
01E0
0120
0120
0120
0000
ENDCHAR

STARTCHAR c0766
ENCODING 2
SWIDTH 602 0
DWIDTH 12 0
BBX 12 23 0 -5
BITMAP
0000
0000
3800
4000
3000
0800
4800
3000
0000
1F00
0400
0400
0400
0400
0400
0000
0120
0120
00C0
00C0
0120
0120
0000
ENDCHAR

STARTCHAR c0767
ENCODING 3
SWIDTH 602 0
DWIDTH 12 0
BBX 12 23 0 -5
BITMAP
0000
0000
7800
4000
7000
4000
4000
7800
0000
0F80
0200
0200
0200
0200
0200
0000
0120
0120
00C0
00C0
0120
0120
0000
ENDCHAR

STARTCHAR c0768
ENCODING 4
SWIDTH 602 0
DWIDTH 12 0
BBX 12 23 0 -5
BITMAP
0000
0000
7800
4000
7000
4000
4000
7800
0000
0600
0900
0900
0900
0900
0600
0000
01F0
0040
0040
0040
0040
0040
0000
ENDCHAR

STARTCHAR c0769
ENCODING 5
SWIDTH 602 0
DWIDTH 12 0
BBX 12 23 0 -5
BITMAP
0000
0000
7800
4000
7000
4000
4000
7800
0000
0900
0D00
0D00
0B00
0B00
0900
0000
00C0
0120
0120
0120
0120
00C0
0060
ENDCHAR

STARTCHAR c0770
ENCODING 6
SWIDTH 602 0
DWIDTH 12 0
BBX 12 23 0 -5
BITMAP
0000
0000
3000
4800
4800
7800
4800
4800
0000
0600
0900
0800
0800
0900
0600
0000
0120
0140
0180
0140
0140
0120
0000
ENDCHAR

STARTCHAR c0796
ENCODING 7
SWIDTH 602 0
DWIDTH 12 0
BBX 12 23 0 -5
BITMAP
0000
0000
0000
0700
0880
1040
1040
1040
1040
2020
2020
2020
2020
2020
2020
4010
4010
7FF0
0040
0040
0060
0000
0000
ENDCHAR

STARTCHAR c0772
ENCODING 8
SWIDTH 602 0
DWIDTH 12 0
BBX 12 23 0 -5
BITMAP
0000
0000
7800
4400
4400
7800
4400
4400
4400
7800
0000
01C0
0220
0200
01C0
0020
0020
0220
01C0
0000
0000
0000
0000
ENDCHAR

STARTCHAR c0773
ENCODING 9
SWIDTH 602 0
DWIDTH 12 0
BBX 12 23 0 -5
BITMAP
0000
0000
4400
4400
4400
7C00
4400
4400
4400
4400
0000
03E0
0080
0080
0080
0080
0080
0080
0080
0000
0000
0000
0000
ENDCHAR

STARTCHAR c0774
ENCODING 10
SWIDTH 602 0
DWIDTH 12 0
BBX 12 23 0 -5
BITMAP
0000
0000
4000
4000
4000
4000
4000
4000
4000
7C00
0000
03E0
0200
0200
03C0
0200
0200
0200
0200
0000
0000
0000
0000
ENDCHAR

STARTCHAR c0775
ENCODING 11
SWIDTH 602 0
DWIDTH 12 0
BBX 12 23 0 -5
BITMAP
0000
0000
4400
4400
4400
2800
2800
2800
1000
1000
0000
03E0
0080
0080
0080
0080
0080
0080
0080
0000
0000
0000
0000
ENDCHAR

STARTCHAR c0776
ENCODING 12
SWIDTH 602 0
DWIDTH 12 0
BBX 12 23 0 -5
BITMAP
0000
0000
7C00
4000
4000
7800
4000
4000
4000
4000
0000
03E0
0200
0200
03C0
0200
0200
0200
0200
0000
0000
0000
0000
ENDCHAR

STARTCHAR c0777
ENCODING 13
SWIDTH 602 0
DWIDTH 12 0
BBX 12 23 0 -5
BITMAP
0000
0000
3800
4400
4000
4000
4000
4000
4400
3800
0000
03C0
0220
0220
0220
03C0
0240
0240
0220
0000
0000
0000
0000
ENDCHAR

STARTCHAR c0778
ENCODING 14
SWIDTH 602 0
DWIDTH 12 0
BBX 12 23 0 -5
BITMAP
0000
0000
3800
4400
4000
3800
0400
0400
4400
3800
0000
01C0
0220
0220
0220
0220
0220
0220
01C0
0000
0000
0000
0000
ENDCHAR

STARTCHAR c0779
ENCODING 15
SWIDTH 602 0
DWIDTH 12 0
BBX 12 23 0 -5
BITMAP
0000
0000
3800
4400
4000
3800
0400
0400
4400
3800
0000
01C0
0080
0080
0080
0080
0080
0080
01C0
0000
0000
0000
0000
ENDCHAR

STARTCHAR c0794
ENCODING 16
SWIDTH 602 0
DWIDTH 12 0
BBX 12 23 0 -5
BITMAP
0000
0000
7000
4800
4800
4800
4800
7000
0000
0800
0800
0800
0800
0800
0F00
0000
01E0
0100
01C0
0100
0100
01E0
0000
ENDCHAR

STARTCHAR c0780
ENCODING 17
SWIDTH 602 0
DWIDTH 12 0
BBX 12 23 0 -5
BITMAP
0000
0000
7000
4800
4800
4800
4800
7000
0000
0600
0900
0800
0800
0900
0600
0000
0040
00C0
0040
0040
0040
00E0
0000
ENDCHAR

STARTCHAR c0781
ENCODING 18
SWIDTH 602 0
DWIDTH 12 0
BBX 12 23 0 -5
BITMAP
0000
0000
7000
4800
4800
4800
4800
7000
0000
0600
0900
0800
0800
0900
0600
0000
00C0
0120
0020
0040
0080
01E0
0000
ENDCHAR

STARTCHAR c0782
ENCODING 19
SWIDTH 602 0
DWIDTH 12 0
BBX 12 23 0 -5
BITMAP
0000
0000
7000
4800
4800
4800
4800
7000
0000
0600
0900
0800
0800
0900
0600
0000
00C0
0120
0040
0020
0120
00C0
0000
ENDCHAR

STARTCHAR c0783
ENCODING 20
SWIDTH 602 0
DWIDTH 12 0
BBX 12 23 0 -5
BITMAP
0000
0000
7000
4800
4800
4800
4800
7000
0000
0600
0900
0800
0800
0900
0600
0000
0040
00C0
0140
01E0
0040
0040
0000
ENDCHAR

STARTCHAR c0784
ENCODING 21
SWIDTH 602 0
DWIDTH 12 0
BBX 12 23 0 -5
BITMAP
0000
0000
4800
6800
6800
5800
5800
4800
0000
0600
0900
0900
0F00
0900
0900
0000
0120
0140
0180
0140
0140
0120
0000
ENDCHAR

STARTCHAR c0795
ENCODING 22
SWIDTH 602 0
DWIDTH 12 0
BBX 12 23 0 -5
BITMAP
0000
0000
3800
4000
3000
0800
4800
3000
0000
0880
0500
0200
0200
0200
0200
0000
0120
01A0
01A0
0160
0160
0120
0000
ENDCHAR

STARTCHAR c0785
ENCODING 23
SWIDTH 602 0
DWIDTH 12 0
BBX 12 23 0 -5
BITMAP
0000
0000
7800
4000
7000
4000
4000
7800
0000
0F80
0200
0200
0200
0200
0200
0000
01C0
0120
01C0
0120
0120
01C0
0000
ENDCHAR

STARTCHAR c0786
ENCODING 24
SWIDTH 602 0
DWIDTH 12 0
BBX 12 23 0 -5
BITMAP
0000
0000
3000
4800
4000
4000
4800
3000
0000
0600
0900
0900
0F00
0900
0900
0000
0120
01A0
01A0
0160
0160
0120
0000
ENDCHAR

STARTCHAR c0787
ENCODING 25
SWIDTH 602 0
DWIDTH 12 0
BBX 12 23 0 -5
BITMAP
0000
0000
7C00
4000
4000
7800
4000
4000
4000
7C00
0000
0220
0360
0360
02A0
02A0
0220
0220
0220
0000
0000
0000
0000
ENDCHAR

STARTCHAR c0788
ENCODING 26
SWIDTH 602 0
DWIDTH 12 0
BBX 12 23 0 -5
BITMAP
0000
0000
3800
4000
3000
0800
4800
3000
0000
0900
0900
0900
0900
0900
0600
0000
01C0
0120
01C0
0120
0120
01C0
0000
ENDCHAR

STARTCHAR c0789
ENCODING 27
SWIDTH 602 0
DWIDTH 12 0
BBX 12 23 0 -5
BITMAP
0000
0000
7800
4000
7000
4000
4000
7800
0000
0700
0800
0600
0100
0900
0600
0000
00C0
0120
0100
0100
0120
00C0
0000
ENDCHAR

STARTCHAR c0790
ENCODING 28
SWIDTH 602 0
DWIDTH 12 0
BBX 12 23 0 -5
BITMAP
0000
0000
7C00
4000
4000
7800
4000
4000
4000
4000
0000
01C0
0220
0200
01C0
0020
0020
0220
01C0
0000
0000
0000
0000
ENDCHAR

STARTCHAR c0791
ENCODING 29
SWIDTH 602 0
DWIDTH 12 0
BBX 12 23 0 -5
BITMAP
0000
0000
3800
4400
4000
4000
4C00
4400
4400
3800
0000
01C0
0220
0200
01C0
0020
0020
0220
01C0
0000
0000
0000
0000
ENDCHAR

STARTCHAR c0792
ENCODING 30
SWIDTH 602 0
DWIDTH 12 0
BBX 12 23 0 -5
BITMAP
0000
0000
7800
4400
4400
4400
7800
4800
4400
4400
0000
01C0
0220
0200
01C0
0020
0020
0220
01C0
0000
0000
0000
0000
ENDCHAR

STARTCHAR c0793
ENCODING 31
SWIDTH 602 0
DWIDTH 12 0
BBX 12 23 0 -5
BITMAP
0000
0000
4400
4400
4400
4400
4400
4400
4400
3800
0000
01C0
0220
0200
01C0
0020
0020
0220
01C0
0000
0000
0000
0000
ENDCHAR

STARTCHAR space
ENCODING 32
SWIDTH 602 0
DWIDTH 12 0
BBX 12 23 0 -5
BITMAP
0000
0000
0000
0000
0000
0000
0000
0000
0000
0000
0000
0000
0000
0000
0000
0000
0000
0000
0000
0000
0000
0000
0000
ENDCHAR

STARTCHAR exclam
ENCODING 33
SWIDTH 602 0
DWIDTH 12 0
BBX 12 23 0 -5
BITMAP
0000
0000
0000
0600
0F00
0F00
0F00
0F00
0F00
0600
0600
0600
0600
0000
0000
0600
0F00
0F00
0600
0000
0000
0000
0000
ENDCHAR

STARTCHAR quotedbl
ENCODING 34
SWIDTH 602 0
DWIDTH 12 0
BBX 12 23 0 -5
BITMAP
0000
0000
0000
39C0
39C0
39C0
39C0
1080
1080
1080
0000
0000
0000
0000
0000
0000
0000
0000
0000
0000
0000
0000
0000
ENDCHAR

STARTCHAR numbersign
ENCODING 35
SWIDTH 602 0
DWIDTH 12 0
BBX 12 23 0 -5
BITMAP
0000
0000
0000
1980
1980
1980
1980
7FE0
7FE0
1980
1980
1980
1980
7FE0
7FE0
1980
1980
1980
1980
0000
0000
0000
0000
ENDCHAR

STARTCHAR dollar
ENCODING 36
SWIDTH 602 0
DWIDTH 12 0
BBX 12 23 0 -5
BITMAP
0000
0000
0600
0600
1F80
31C0
60C0
6040
7000
3800
1E00
0780
01C0
00E0
4060
6060
70C0
3F80
0600
0600
0000
0000
0000
ENDCHAR

STARTCHAR percent
ENCODING 37
SWIDTH 602 0
DWIDTH 12 0
BBX 12 23 0 -5
BITMAP
0000
0000
0000
3C60
6660
66C0
66C0
3D80
0180
0300
0300
0600
0600
0C00
0DE0
1B30
1B30
3330
31E0
0000
0000
0000
0000
ENDCHAR

STARTCHAR ampersand
ENCODING 38
SWIDTH 602 0
DWIDTH 12 0
BBX 12 23 0 -5
BITMAP
0000
0000
0000
0E00
1B00
3180
3180
3180
3180
1B00
0E00
1C00
3620
6360
6340
61C0
6180
33C0
1E60
0000
0000
0000
0000
ENDCHAR

STARTCHAR quoteright
ENCODING 39
SWIDTH 602 0
DWIDTH 12 0
BBX 12 23 0 -5
BITMAP
0000
0000
0000
0600
0F00
0F00
0700
0600
0C00
1800
0000
0000
0000
0000
0000
0000
0000
0000
0000
0000
0000
0000
0000
ENDCHAR

STARTCHAR parenleft
ENCODING 40
SWIDTH 602 0
DWIDTH 12 0
BBX 12 23 0 -5
BITMAP
0000
0000
00C0
0180
0300
0600
0600
0C00
0C00
0C00
0C00
0C00
0C00
0C00
0C00
0600
0600
0300
0180
00C0
0000
0000
0000
ENDCHAR

STARTCHAR parenright
ENCODING 41
SWIDTH 602 0
DWIDTH 12 0
BBX 12 23 0 -5
BITMAP
0000
0000
1800
0C00
0600
0300
0300
0180
0180
0180
0180
0180
0180
0180
0180
0300
0300
0600
0C00
1800
0000
0000
0000
ENDCHAR

STARTCHAR asterisk
ENCODING 42
SWIDTH 602 0
DWIDTH 12 0
BBX 12 23 0 -5
BITMAP
0000
0000
0000
0000
0000
0000
0600
0600
6660
76E0
0F00
0F00
76E0
6660
0600
0600
0000
0000
0000
0000
0000
0000
0000
ENDCHAR

STARTCHAR plus
ENCODING 43
SWIDTH 602 0
DWIDTH 12 0
BBX 12 23 0 -5
BITMAP
0000
0000
0000
0000
0000
0000
0600
0600
0600
0600
7FE0
7FE0
0600
0600
0600
0600
0000
0000
0000
0000
0000
0000
0000
ENDCHAR

STARTCHAR comma
ENCODING 44
SWIDTH 602 0
DWIDTH 12 0
BBX 12 23 0 -5
BITMAP
0000
0000
0000
0000
0000
0000
0000
0000
0000
0000
0000
0000
0000
0000
0600
0F00
0F00
0700
0600
0C00
1800
0000
0000
ENDCHAR

STARTCHAR hyphen
ENCODING 45
SWIDTH 602 0
DWIDTH 12 0
BBX 12 23 0 -5
BITMAP
0000
0000
0000
0000
0000
0000
0000
0000
0000
0000
7FE0
7FE0
0000
0000
0000
0000
0000
0000
0000
0000
0000
0000
0000
ENDCHAR

STARTCHAR period
ENCODING 46
SWIDTH 602 0
DWIDTH 12 0
BBX 12 23 0 -5
BITMAP
0000
0000
0000
0000
0000
0000
0000
0000
0000
0000
0000
0000
0000
0000
0600
0F00
0F00
0600
0000
0000
0000
0000
0000
ENDCHAR

STARTCHAR c1224
ENCODING 47
SWIDTH 602 0
DWIDTH 12 0
BBX 12 23 0 -5
BITMAP
0000
0000
0060
0060
00C0
00C0
0180
0180
0300
0300
0600
0600
0C00
0C00
1800
1800
3000
3000
6000
6000
0000
0000
0000
ENDCHAR

STARTCHAR zero
ENCODING 48
SWIDTH 602 0
DWIDTH 12 0
BBX 12 23 0 -5
BITMAP
0000
0000
0000
0000
0F00
39C0
30C0
6060
6060
6060
6660
6660
6060
6060
6060
30C0
39C0
0F00
0000
0000
0000
0000
0000
ENDCHAR

STARTCHAR one
ENCODING 49
SWIDTH 602 0
DWIDTH 12 0
BBX 12 23 0 -5
BITMAP
0000
0000
0000
0000
0300
0F00
1B00
0300
0300
0300
0300
0300
0300
0300
0300
0300
0300
0300
0000
0000
0000
0000
0000
ENDCHAR

STARTCHAR two
ENCODING 50
SWIDTH 602 0
DWIDTH 12 0
BBX 12 23 0 -5
BITMAP
0000
0000
0000
0000
0F80
18C0
3060
3060
0060
00C0
0180
0300
0600
0C00
1800
3020
3060
3FE0
0000
0000
0000
0000
0000
ENDCHAR

STARTCHAR three
ENCODING 51
SWIDTH 602 0
DWIDTH 12 0
BBX 12 23 0 -5
BITMAP
0000
0000
0000
0000
3FE0
0060
00C0
0180
0300
0600
0F80
00C0
0060
0060
0060
0060
30C0
1F80
0000
0000
0000
0000
0000
ENDCHAR

STARTCHAR four
ENCODING 52
SWIDTH 602 0
DWIDTH 12 0
BBX 12 23 0 -5
BITMAP
0000
0000
0000
0000
0300
0300
0600
0600
0C00
0CC0
18C0
18C0
30C0
30C0
3FF0
00C0
00C0
00C0
0000
0000
0000
0000
0000
ENDCHAR

STARTCHAR five
ENCODING 53
SWIDTH 602 0
DWIDTH 12 0
BBX 12 23 0 -5
BITMAP
0000
0000
0000
0000
1FC0
1800
1800
1800
1800
1F80
00C0
0060
0060
0060
0060
0060
30C0
1F80
0000
0000
0000
0000
0000
ENDCHAR

STARTCHAR six
ENCODING 54
SWIDTH 602 0
DWIDTH 12 0
BBX 12 23 0 -5
BITMAP
0000
0000
0000
0000
01C0
0700
0C00
1800
1800
3000
3780
38C0
3060
3060
3060
3060
18C0
0F80
0000
0000
0000
0000
0000
ENDCHAR

STARTCHAR seven
ENCODING 55
SWIDTH 602 0
DWIDTH 12 0
BBX 12 23 0 -5
BITMAP
0000
0000
0000
0000
3FE0
0060
00C0
00C0
0180
0180
0300
0300
0300
0600
0600
0600
0C00
0C00
0000
0000
0000
0000
0000
ENDCHAR

STARTCHAR eight
ENCODING 56
SWIDTH 602 0
DWIDTH 12 0
BBX 12 23 0 -5
BITMAP
0000
0000
0000
0000
0F80
18C0
3060
3060
3060
18C0
0F80
18C0
3060
3060
3060
3060
18C0
0F80
0000
0000
0000
0000
0000
ENDCHAR

STARTCHAR nine
ENCODING 57
SWIDTH 602 0
DWIDTH 12 0
BBX 12 23 0 -5
BITMAP
0000
0000
0000
0000
0F80
18C0
3060
3060
3060
3060
18E0
0F60
0060
00C0
00C0
0180
0700
1C00
0000
0000
0000
0000
0000
ENDCHAR

STARTCHAR colon
ENCODING 58
SWIDTH 602 0
DWIDTH 12 0
BBX 12 23 0 -5
BITMAP
0000
0000
0000
0000
0000
0000
0000
0000
0600
0F00
0F00
0600
0000
0000
0600
0F00
0F00
0600
0000
0000
0000
0000
0000
ENDCHAR

STARTCHAR semicolon
ENCODING 59
SWIDTH 602 0
DWIDTH 12 0
BBX 12 23 0 -5
BITMAP
0000
0000
0000
0000
0000
0000
0000
0000
0600
0F00
0F00
0600
0000
0000
0600
0F00
0F00
0700
0600
0C00
1800
0000
0000
ENDCHAR

STARTCHAR less
ENCODING 60
SWIDTH 602 0
DWIDTH 12 0
BBX 12 23 0 -5
BITMAP
0000
0000
0000
0000
0000
0020
00E0
03C0
0F00
3C00
7000
7000
3C00
0F00
03C0
00E0
0020
0000
0000
0000
0000
0000
0000
ENDCHAR

STARTCHAR equal
ENCODING 61
SWIDTH 602 0
DWIDTH 12 0
BBX 12 23 0 -5
BITMAP
0000
0000
0000
0000
0000
0000
0000
0000
7FE0
7FE0
0000
0000
7FE0
7FE0
0000
0000
0000
0000
0000
0000
0000
0000
0000
ENDCHAR

STARTCHAR greater
ENCODING 62
SWIDTH 602 0
DWIDTH 12 0
BBX 12 23 0 -5
BITMAP
0000
0000
0000
0000
0000
4000
7000
3C00
0F00
03C0
00E0
00E0
03C0
0F00
3C00
7000
4000
0000
0000
0000
0000
0000
0000
ENDCHAR

STARTCHAR question
ENCODING 63
SWIDTH 602 0
DWIDTH 12 0
BBX 12 23 0 -5
BITMAP
0000
0000
0000
0F80
39C0
38E0
30E0
00E0
01C0
0380
0700
0600
0600
0000
0000
0600
0F00
0F00
0600
0000
0000
0000
0000
ENDCHAR

STARTCHAR at
ENCODING 64
SWIDTH 602 0
DWIDTH 12 0
BBX 12 23 0 -5
BITMAP
0000
0000
0000
0F80
38C0
3060
6060
6060
63E0
6660
6660
6660
6660
6660
63B0
6000
3000
3860
0FC0
0000
0000
0000
0000
ENDCHAR

STARTCHAR A
ENCODING 65
SWIDTH 602 0
DWIDTH 12 0
BBX 12 23 0 -5
BITMAP
0000
0000
0000
0000
0600
0600
0F00
0F00
1980
1980
1980
30C0
30C0
3FC0
6060
6060
6060
F0F0
0000
0000
0000
0000
0000
ENDCHAR

STARTCHAR B
ENCODING 66
SWIDTH 602 0
DWIDTH 12 0
BBX 12 23 0 -5
BITMAP
0000
0000
0000
0000
7F00
3180
30C0
30C0
30C0
3180
3F80
30C0
3060
3060
3060
3060
30C0
7F80
0000
0000
0000
0000
0000
ENDCHAR

STARTCHAR C
ENCODING 67
SWIDTH 602 0
DWIDTH 12 0
BBX 12 23 0 -5
BITMAP
0000
0000
0000
0000
0FA0
18E0
3060
3020
6000
6000
6000
6000
6000
6020
3060
3060
18C0
0F80
0000
0000
0000
0000
0000
ENDCHAR

STARTCHAR D
ENCODING 68
SWIDTH 602 0
DWIDTH 12 0
BBX 12 23 0 -5
BITMAP
0000
0000
0000
0000
7F00
31C0
3060
3060
3030
3030
3030
3030
3030
3030
3060
3060
31C0
7F00
0000
0000
0000
0000
0000
ENDCHAR

STARTCHAR E
ENCODING 69
SWIDTH 602 0
DWIDTH 12 0
BBX 12 23 0 -5
BITMAP
0000
0000
0000
0000
7FE0
3060
3020
3020
3100
3100
3F00
3100
3100
3000
3020
3020
3060
7FE0
0000
0000
0000
0000
0000
ENDCHAR

STARTCHAR F
ENCODING 70
SWIDTH 602 0
DWIDTH 12 0
BBX 12 23 0 -5
BITMAP
0000
0000
0000
0000
7FE0
3060
3020
3020
3100
3100
3F00
3100
3100
3000
3000
3000
3000
7C00
0000
0000
0000
0000
0000
ENDCHAR

STARTCHAR G
ENCODING 71
SWIDTH 602 0
DWIDTH 12 0
BBX 12 23 0 -5
BITMAP
0000
0000
0000
0000
0FA0
18E0
3060
3020
6000
6000
6000
61F0
6060
6060
3060
3060
18E0
0F80
0000
0000
0000
0000
0000
ENDCHAR

STARTCHAR H
ENCODING 72
SWIDTH 602 0
DWIDTH 12 0
BBX 12 23 0 -5
BITMAP
0000
0000
0000
0000
78F0
3060
3060
3060
3060
3060
3FE0
3060
3060
3060
3060
3060
3060
78F0
0000
0000
0000
0000
0000
ENDCHAR

STARTCHAR I
ENCODING 73
SWIDTH 602 0
DWIDTH 12 0
BBX 12 23 0 -5
BITMAP
0000
0000
0000
0000
3FC0
0600
0600
0600
0600
0600
0600
0600
0600
0600
0600
0600
0600
3FC0
0000
0000
0000
0000
0000
ENDCHAR

STARTCHAR J
ENCODING 74
SWIDTH 602 0
DWIDTH 12 0
BBX 12 23 0 -5
BITMAP
0000
0000
0000
0000
0FE0
0180
0180
0180
0180
0180
0180
0180
0180
0180
6180
6180
3300
1E00
0000
0000
0000
0000
0000
ENDCHAR

STARTCHAR K
ENCODING 75
SWIDTH 602 0
DWIDTH 12 0
BBX 12 23 0 -5
BITMAP
0000
0000
0000
0000
78F0
3060
30C0
3180
3300
3600
3E00
3B00
3300
3180
3180
30C0
30E0
7870
0000
0000
0000
0000
0000
ENDCHAR

STARTCHAR L
ENCODING 76
SWIDTH 602 0
DWIDTH 12 0
BBX 12 23 0 -5
BITMAP
0000
0000
0000
0000
7800
3000
3000
3000
3000
3000
3000
3000
3000
3000
3020
3020
3060
7FE0
0000
0000
0000
0000
0000
ENDCHAR

STARTCHAR M
ENCODING 77
SWIDTH 602 0
DWIDTH 12 0
BBX 12 23 0 -5
BITMAP
0000
0000
0000
0000
7070
3060
38E0
38E0
3DE0
3560
3760
3260
3260
3060
3060
3060
3060
78F0
0000
0000
0000
0000
0000
ENDCHAR

STARTCHAR N
ENCODING 78
SWIDTH 602 0
DWIDTH 12 0
BBX 12 23 0 -5
BITMAP
0000
0000
0000
0000
70F0
3860
3860
3C60
3460
3660
3660
3360
3360
3160
31E0
30E0
30E0
7860
0000
0000
0000
0000
0000
ENDCHAR

STARTCHAR O
ENCODING 79
SWIDTH 602 0
DWIDTH 12 0
BBX 12 23 0 -5
BITMAP
0000
0000
0000
0000
0F80
18C0
3060
3060
6030
6030
6030
6030
6030
6030
3060
3060
18C0
0F80
0000
0000
0000
0000
0000
ENDCHAR

STARTCHAR P
ENCODING 80
SWIDTH 602 0
DWIDTH 12 0
BBX 12 23 0 -5
BITMAP
0000
0000
0000
0000
7F80
30C0
3060
3060
3060
3060
30C0
3F80
3000
3000
3000
3000
3000
7C00
0000
0000
0000
0000
0000
ENDCHAR

STARTCHAR Q
ENCODING 81
SWIDTH 602 0
DWIDTH 12 0
BBX 12 23 0 -5
BITMAP
0000
0000
0000
0000
0F80
18C0
3060
3060
6030
6030
6030
6030
6030
6030
3060
3060
18C0
0F80
0180
00C0
0070
0020
0000
ENDCHAR

STARTCHAR R
ENCODING 82
SWIDTH 602 0
DWIDTH 12 0
BBX 12 23 0 -5
BITMAP
0000
0000
0000
0000
7F80
30C0
3060
3060
3060
3060
30C0
3F80
3300
3180
3180
30C0
30E0
7870
0000
0000
0000
0000
0000
ENDCHAR

STARTCHAR S
ENCODING 83
SWIDTH 602 0
DWIDTH 12 0
BBX 12 23 0 -5
BITMAP
0000
0000
0000
0000
1F40
31C0
60C0
6040
6000
3800
1E00
0780
01C0
0060
4060
6060
70C0
5F80
0000
0000
0000
0000
0000
ENDCHAR

STARTCHAR T
ENCODING 84
SWIDTH 602 0
DWIDTH 12 0
BBX 12 23 0 -5
BITMAP
0000
0000
0000
0000
7FE0
6660
4620
4620
0600
0600
0600
0600
0600
0600
0600
0600
0600
1F80
0000
0000
0000
0000
0000
ENDCHAR

STARTCHAR U
ENCODING 85
SWIDTH 602 0
DWIDTH 12 0
BBX 12 23 0 -5
BITMAP
0000
0000
0000
0000
78F0
3060
3060
3060
3060
3060
3060
3060
3060
3060
3060
3060
18C0
0F80
0000
0000
0000
0000
0000
ENDCHAR

STARTCHAR V
ENCODING 86
SWIDTH 602 0
DWIDTH 12 0
BBX 12 23 0 -5
BITMAP
0000
0000
0000
0000
F0F0
6060
6060
30C0
30C0
30C0
30C0
1980
1980
1980
0F00
0F00
0600
0600
0000
0000
0000
0000
0000
ENDCHAR

STARTCHAR W
ENCODING 87
SWIDTH 602 0
DWIDTH 12 0
BBX 12 23 0 -5
BITMAP
0000
0000
0000
0000
78F0
3060
3060
3060
3260
3260
3760
3760
3560
1DC0
1DC0
18C0
18C0
18C0
0000
0000
0000
0000
0000
ENDCHAR

STARTCHAR X
ENCODING 88
SWIDTH 602 0
DWIDTH 12 0
BBX 12 23 0 -5
BITMAP
0000
0000
0000
0000
78F0
3060
18C0
18C0
0D80
0D80
0700
0700
0D80
0D80
18C0
18C0
3060
78F0
0000
0000
0000
0000
0000
ENDCHAR

STARTCHAR Y
ENCODING 89
SWIDTH 602 0
DWIDTH 12 0
BBX 12 23 0 -5
BITMAP
0000
0000
0000
0000
F0F0
6060
30C0
30C0
1980
1980
0F00
0F00
0600
0600
0600
0600
0600
1F80
0000
0000
0000
0000
0000
ENDCHAR

STARTCHAR Z
ENCODING 90
SWIDTH 602 0
DWIDTH 12 0
BBX 12 23 0 -5
BITMAP
0000
0000
0000
0000
7FE0
6060
40C0
4180
0180
0300
0600
0600
0C00
1800
1820
3020
6060
7FE0
0000
0000
0000
0000
0000
ENDCHAR

STARTCHAR bracketleft
ENCODING 91
SWIDTH 602 0
DWIDTH 12 0
BBX 12 23 0 -5
BITMAP
0000
0000
07C0
0600
0600
0600
0600
0600
0600
0600
0600
0600
0600
0600
0600
0600
0600
0600
0600
07C0
0000
0000
0000
ENDCHAR

STARTCHAR c4540
ENCODING 92
SWIDTH 602 0
DWIDTH 12 0
BBX 12 23 0 -5
BITMAP
0000
0000
6000
6000
3000
3000
1800
1800
0C00
0C00
0600
0600
0300
0300
0180
0180
00C0
00C0
0060
0060
0000
0000
0000
ENDCHAR

STARTCHAR bracketright
ENCODING 93
SWIDTH 602 0
DWIDTH 12 0
BBX 12 23 0 -5
BITMAP
0000
0000
1F00
0300
0300
0300
0300
0300
0300
0300
0300
0300
0300
0300
0300
0300
0300
0300
0300
1F00
0000
0000
0000
ENDCHAR

STARTCHAR asciicircum
ENCODING 94
SWIDTH 602 0
DWIDTH 12 0
BBX 12 23 0 -5
BITMAP
0000
0000
0000
0000
0600
0F00
1980
1080
2040
0000
0000
0000
0000
0000
0000
0000
0000
0000
0000
0000
0000
0000
0000
ENDCHAR

STARTCHAR underscore
ENCODING 95
SWIDTH 602 0
DWIDTH 12 0
BBX 12 23 0 -5
BITMAP
0000
0000
0000
0000
0000
0000
0000
0000
0000
0000
0000
0000
0000
0000
0000
0000
0000
0000
FFF0
FFF0
0000
0000
0000
ENDCHAR

STARTCHAR quoteleft
ENCODING 96
SWIDTH 602 0
DWIDTH 12 0
BBX 12 23 0 -5
BITMAP
0000
0000
0000
0180
0300
0600
0E00
0F00
0F00
0600
0000
0000
0000
0000
0000
0000
0000
0000
0000
0000
0000
0000
0000
ENDCHAR

STARTCHAR a
ENCODING 97
SWIDTH 602 0
DWIDTH 12 0
BBX 12 23 0 -5
BITMAP
0000
0000
0000
0000
0000
0000
0000
0000
0000
0F80
39C0
30C0
00C0
1FC0
30C0
60C0
73E0
3EC0
0000
0000
0000
0000
0000
ENDCHAR

STARTCHAR b
ENCODING 98
SWIDTH 602 0
DWIDTH 12 0
BBX 12 23 0 -5
BITMAP
0000
0000
0000
0000
3000
7000
3000
3000
3000
3780
3CE0
3860
3030
3030
3030
3860
3CE0
3780
0000
0000
0000
0000
0000
ENDCHAR

STARTCHAR c
ENCODING 99
SWIDTH 602 0
DWIDTH 12 0
BBX 12 23 0 -5
BITMAP
0000
0000
0000
0000
0000
0000
0000
0000
0000
07E0
1C60
1860
3000
3000
3000
1860
1CE0
0780
0000
0000
0000
0000
0000
ENDCHAR

STARTCHAR d
ENCODING 100
SWIDTH 602 0
DWIDTH 12 0
BBX 12 23 0 -5
BITMAP
0000
0000
0000
0000
0060
00E0
0060
0060
0060
0F60
39E0
30E0
6060
6060
6060
30E0
39F0
0F60
0000
0000
0000
0000
0000
ENDCHAR

STARTCHAR e
ENCODING 101
SWIDTH 602 0
DWIDTH 12 0
BBX 12 23 0 -5
BITMAP
0000
0000
0000
0000
0000
0000
0000
0000
0000
0F00
39C0
30C0
6060
7FE0
6000
3060
38E0
0F80
0000
0000
0000
0000
0000
ENDCHAR

STARTCHAR f
ENCODING 102
SWIDTH 602 0
DWIDTH 12 0
BBX 12 23 0 -5
BITMAP
0000
0000
0000
0000
03C0
0660
0C00
0C00
0C00
7FC0
0C00
0C00
0C00
0C00
0C00
0C00
0C00
7FC0
0000
0000
0000
0000
0000
ENDCHAR

STARTCHAR g
ENCODING 103
SWIDTH 602 0
DWIDTH 12 0
BBX 12 23 0 -5
BITMAP
0000
0000
0000
0000
0000
0000
0000
0000
0000
1F00
31E0
60C0
60C0
3180
1F00
3000
1FC0
3060
6060
6060
30C0
1F80
0000
ENDCHAR

STARTCHAR h
ENCODING 104
SWIDTH 602 0
DWIDTH 12 0
BBX 12 23 0 -5
BITMAP
0000
0000
0000
0000
3000
7000
3000
3000
3000
3780
39C0
30C0
30C0
30C0
30C0
30C0
30C0
79E0
0000
0000
0000
0000
0000
ENDCHAR

STARTCHAR i
ENCODING 105
SWIDTH 602 0
DWIDTH 12 0
BBX 12 23 0 -5
BITMAP
0000
0000
0000
0000
0300
0780
0300
0000
0000
0300
1F00
0300
0300
0300
0300
0300
0300
1FE0
0000
0000
0000
0000
0000
ENDCHAR

STARTCHAR j
ENCODING 106
SWIDTH 602 0
DWIDTH 12 0
BBX 12 23 0 -5
BITMAP
0000
0000
0000
0000
0300
0780
0300
0000
0000
0300
1F00
0300
0300
0300
0300
0300
0300
0300
0300
C300
E600
3C00
0000
ENDCHAR

STARTCHAR k
ENCODING 107
SWIDTH 602 0
DWIDTH 12 0
BBX 12 23 0 -5
BITMAP
0000
0000
0000
0000
3000
7000
3000
3000
3000
33E0
3180
3300
3600
3E00
3300
3180
30D0
7860
0000
0000
0000
0000
0000
ENDCHAR

STARTCHAR l
ENCODING 108
SWIDTH 602 0
DWIDTH 12 0
BBX 12 23 0 -5
BITMAP
0000
0000
0000
0000
0600
1E00
0600
0600
0600
0600
0600
0600
0600
0600
0600
0600
0600
3FC0
0000
0000
0000
0000
0000
ENDCHAR

STARTCHAR m
ENCODING 109
SWIDTH 602 0
DWIDTH 12 0
BBX 12 23 0 -5
BITMAP
0000
0000
0000
0000
0000
0000
0000
0000
0000
6CC0
F760
6660
6660
6660
6660
6660
6660
EEF0
0000
0000
0000
0000
0000
ENDCHAR

STARTCHAR n
ENCODING 110
SWIDTH 602 0
DWIDTH 12 0
BBX 12 23 0 -5
BITMAP
0000
0000
0000
0000
0000
0000
0000
0000
0000
3780
79C0
30C0
30C0
30C0
30C0
30C0
30C0
79E0
0000
0000
0000
0000
0000
ENDCHAR

STARTCHAR o
ENCODING 111
SWIDTH 602 0
DWIDTH 12 0
BBX 12 23 0 -5
BITMAP
0000
0000
0000
0000
0000
0000
0000
0000
0000
0F00
39C0
30C0
6060
6060
6060
30C0
39C0
0F00
0000
0000
0000
0000
0000
ENDCHAR

STARTCHAR p
ENCODING 112
SWIDTH 602 0
DWIDTH 12 0
BBX 12 23 0 -5
BITMAP
0000
0000
0000
0000
0000
0000
0000
0000
0000
3780
7CE0
3860
3030
3030
3030
3860
3CE0
3780
3000
3000
3000
7C00
0000
ENDCHAR

STARTCHAR q
ENCODING 113
SWIDTH 602 0
DWIDTH 12 0
BBX 12 23 0 -5
BITMAP
0000
0000
0000
0000
0000
0000
0000
0000
0000
0F20
39E0
30E0
6060
6060
6060
30E0
39E0
0F60
0060
0060
0060
01F0
0000
ENDCHAR

STARTCHAR r
ENCODING 114
SWIDTH 602 0
DWIDTH 12 0
BBX 12 23 0 -5
BITMAP
0000
0000
0000
0000
0000
0000
0000
0000
0000
19C0
7AE0
1CC0
1800
1800
1800
1800
1800
7F00
0000
0000
0000
0000
0000
ENDCHAR

STARTCHAR s
ENCODING 115
SWIDTH 602 0
DWIDTH 12 0
BBX 12 23 0 -5
BITMAP
0000
0000
0000
0000
0000
0000
0000
0000
0000
0F80
38E0
3060
1C00
0F80
01C0
3060
38E0
0F80
0000
0000
0000
0000
0000
ENDCHAR

STARTCHAR t
ENCODING 116
SWIDTH 602 0
DWIDTH 12 0
BBX 12 23 0 -5
BITMAP
0000
0000
0000
0000
0000
0000
0C00
0C00
0C00
7FC0
0C00
0C00
0C00
0C00
0C00
0C00
0C60
07C0
0000
0000
0000
0000
0000
ENDCHAR

STARTCHAR u
ENCODING 117
SWIDTH 602 0
DWIDTH 12 0
BBX 12 23 0 -5
BITMAP
0000
0000
0000
0000
0000
0000
0000
0000
0000
30C0
71C0
30C0
30C0
30C0
30C0
30C0
39E0
1EC0
0000
0000
0000
0000
0000
ENDCHAR

STARTCHAR v
ENCODING 118
SWIDTH 602 0
DWIDTH 12 0
BBX 12 23 0 -5
BITMAP
0000
0000
0000
0000
0000
0000
0000
0000
0000
78F0
3060
18C0
18C0
0D80
0D80
0700
0700
0200
0000
0000
0000
0000
0000
ENDCHAR

STARTCHAR w
ENCODING 119
SWIDTH 602 0
DWIDTH 12 0
BBX 12 23 0 -5
BITMAP
0000
0000
0000
0000
0000
0000
0000
0000
0000
78F0
3060
3260
3260
3760
1540
1DC0
18C0
18C0
0000
0000
0000
0000
0000
ENDCHAR

STARTCHAR x
ENCODING 120
SWIDTH 602 0
DWIDTH 12 0
BBX 12 23 0 -5
BITMAP
0000
0000
0000
0000
0000
0000
0000
0000
0000
79E0
30C0
1980
0F00
0600
0F00
1980
30C0
79E0
0000
0000
0000
0000
0000
ENDCHAR

STARTCHAR y
ENCODING 121
SWIDTH 602 0
DWIDTH 12 0
BBX 12 23 0 -5
BITMAP
0000
0000
0000
0000
0000
0000
0000
0000
0000
78F0
3060
18C0
18C0
0D80
0D80
0700
0700
0200
0600
6400
6C00
3800
0000
ENDCHAR

STARTCHAR z
ENCODING 122
SWIDTH 602 0
DWIDTH 12 0
BBX 12 23 0 -5
BITMAP
0000
0000
0000
0000
0000
0000
0000
0000
0000
3FC0
30C0
2180
0300
0600
0C00
1840
30C0
3FC0
0000
0000
0000
0000
0000
ENDCHAR

STARTCHAR braceleft
ENCODING 123
SWIDTH 602 0
DWIDTH 12 0
BBX 12 23 0 -5
BITMAP
0000
0000
01C0
0300
0300
0300
0300
0300
0300
0600
1C00
0600
0300
0300
0300
0300
0300
0300
0300
01C0
0000
0000
0000
ENDCHAR

STARTCHAR bar
ENCODING 124
SWIDTH 602 0
DWIDTH 12 0
BBX 12 23 0 -5
BITMAP
0000
0000
0000
0600
0600
0600
0600
0600
0600
0600
0600
0600
0600
0600
0600
0600
0600
0600
0600
0000
0000
0000
0000
ENDCHAR

STARTCHAR braceright
ENCODING 125
SWIDTH 602 0
DWIDTH 12 0
BBX 12 23 0 -5
BITMAP
0000
0000
1C00
0600
0600
0600
0600
0600
0600
0300
01C0
0300
0600
0600
0600
0600
0600
0600
0600
1C00
0000
0000
0000
ENDCHAR

STARTCHAR asciitilde
ENCODING 126
SWIDTH 602 0
DWIDTH 12 0
BBX 12 23 0 -5
BITMAP
0000
0000
0000
0000
0000
0000
0000
0000
0000
1C60
3E60
67C0
6380
0000
0000
0000
0000
0000
0000
0000
0000
0000
0000
ENDCHAR

STARTCHAR c0594
ENCODING 127
SWIDTH 602 0
DWIDTH 12 0
BBX 12 23 0 -5
BITMAP
E380
E380
E380
1C70
1C70
1C70
E380
E380
E380
1C70
1C70
1C70
E380
E380
E380
1C70
1C70
1C70
E380
E380
E380
1C70
1C70
ENDCHAR

STARTCHAR NoBreakSpace
ENCODING 160
SWIDTH 602 0
DWIDTH 12 0
BBX 12 23 0 -5
BITMAP
0000
0000
0000
0000
0000
0000
0000
0000
0000
0000
0000
0000
0000
0000
0000
0000
0000
0000
0000
0000
0000
0000
0000
ENDCHAR

STARTCHAR CyrillicIo
ENCODING 161
SWIDTH 602 0
DWIDTH 12 0
BBX 12 23 0 -5
BITMAP
30C0
79E0
30C0
0000
7FE0
3060
3020
3020
3100
3100
3F00
3100
3100
3000
3020
3020
3060
7FE0
0000
0000
0000
0000
0000
ENDCHAR

STARTCHAR SerboCroatDje
ENCODING 162
SWIDTH 602 0
DWIDTH 12 0
BBX 12 23 0 -5
BITMAP
0000
0000
0000
0000
7FC0
6CC0
4C40
0C00
0C00
0DE0
0F70
0E30
0C30
0C30
0C30
0C30
0C30
1E30
0030
0060
00C0
0000
0000
ENDCHAR

STARTCHAR MacedonianGje
ENCODING 163
SWIDTH 602 0
DWIDTH 12 0
BBX 12 23 0 -5
BITMAP
01C0
0380
0600
0000
7FE0
3060
3020
3020
3000
3000
3000
3000
3000
3000
3000
3000
3000
7E00
0000
0000
0000
0000
0000
ENDCHAR

STARTCHAR UkrainianIe
ENCODING 164
SWIDTH 602 0
DWIDTH 12 0
BBX 12 23 0 -5
BITMAP
0000
0000
0000
0000
0FA0
18E0
3060
3020
6020
6000
7F00
6000
6000
6000
3020
3060
18C0
0F80
0000
0000
0000
0000
0000
ENDCHAR

STARTCHAR MacedonianDze
ENCODING 165
SWIDTH 602 0
DWIDTH 12 0
BBX 12 23 0 -5
BITMAP
0000
0000
0000
0000
1FA0
38E0
3060
3020
1C20
1C00
0700
0700
01C0
21C0
2060
3060
38E0
2FC0
0000
0000
0000
0000
0000
ENDCHAR

STARTCHAR ByeloRuUkrainI
ENCODING 166
SWIDTH 602 0
DWIDTH 12 0
BBX 12 23 0 -5
BITMAP
0000
0000
0000
0000
3FC0
0600
0600
0600
0600
0600
0600
0600
0600
0600
0600
0600
0600
3FC0
0000
0000
0000
0000
0000
ENDCHAR

STARTCHAR UkrainianYi
ENCODING 167
SWIDTH 602 0
DWIDTH 12 0
BBX 12 23 0 -5
BITMAP
30C0
79E0
30C0
0000
3FC0
0600
0600
0600
0600
0600
0600
0600
0600
0600
0600
0600
0600
3FC0
0000
0000
0000
0000
0000
ENDCHAR

STARTCHAR CyrillicJe
ENCODING 168
SWIDTH 602 0
DWIDTH 12 0
BBX 12 23 0 -5
BITMAP
0000
0000
0000
0000
0FE0
0180
0180
0180
0180
0180
0180
0180
0180
0180
6180
6180
3300
1E00
0000
0000
0000
0000
0000
ENDCHAR

STARTCHAR CyrillicLje
ENCODING 169
SWIDTH 602 0
DWIDTH 12 0
BBX 12 23 0 -5
BITMAP
0000
0000
0000
0000
7FC0
1300
1300
1300
1300
1300
13E0
1330
1330
1330
1330
1330
7330
67E0
0000
0000
0000
0000
0000
ENDCHAR

STARTCHAR CyrillicNje
ENCODING 170
SWIDTH 602 0
DWIDTH 12 0
BBX 12 23 0 -5
BITMAP
0000
0000
0000
0000
7B80
3300
3300
3300
3300
3300
3FE0
3330
3330
3330
3330
3330
3330
7BE0
0000
0000
0000
0000
0000
ENDCHAR

STARTCHAR SerboCroatTshe
ENCODING 171
SWIDTH 602 0
DWIDTH 12 0
BBX 12 23 0 -5
BITMAP
0000
0000
0000
0000
7FC0
6CC0
4C40
4C40
0C00
0DC0
0E60
0C60
0C60
0C60
0C60
0C60
0C60
1EF0
0000
0000
0000
0000
0000
ENDCHAR

STARTCHAR MacedonianKje
ENCODING 172
SWIDTH 602 0
DWIDTH 12 0
BBX 12 23 0 -5
BITMAP
01C0
0380
0600
0000
78E0
31B0
3130
3100
3100
3300
3F00
3380
3180
31C0
30C0
30E0
3060
7870
0000
0000
0000
0000
0000
ENDCHAR

STARTCHAR SoftHyphen
ENCODING 173
SWIDTH 602 0
DWIDTH 12 0
BBX 12 23 0 -5
BITMAP
0000
0000
0000
0000
0000
0000
0000
0000
0000
0000
1F80
1F80
0000
0000
0000
0000
0000
0000
0000
0000
0000
0000
0000
ENDCHAR

STARTCHAR ByeloRusShortU
ENCODING 174
SWIDTH 602 0
DWIDTH 12 0
BBX 12 23 0 -5
BITMAP
18C0
18C0
0F80
0000
78F0
3060
3060
18C0
18C0
0D80
0D80
0700
0700
0600
6600
6C00
4C00
3800
0000
0000
0000
0000
0000
ENDCHAR

STARTCHAR CyrillicDzhe
ENCODING 175
SWIDTH 602 0
DWIDTH 12 0
BBX 12 23 0 -5
BITMAP
0000
0000
0000
0000
78F0
3060
3060
3060
3060
3060
3060
3060
3060
3060
3060
3060
3060
7FF0
0700
0200
0200
0000
0000
ENDCHAR

STARTCHAR CyrillicA
ENCODING 176
SWIDTH 602 0
DWIDTH 12 0
BBX 12 23 0 -5
BITMAP
0000
0000
0000
0000
0600
0600
0600
0F00
0F00
0B00
1980
1980
30C0
3FC0
30C0
6060
6060
F0F0
0000
0000
0000
0000
0000
ENDCHAR

STARTCHAR CyrillicBe
ENCODING 177
SWIDTH 602 0
DWIDTH 12 0
BBX 12 23 0 -5
BITMAP
0000
0000
0000
0000
7FC0
3060
3030
3010
3000
3000
3FC0
3060
3030
3030
3030
3030
3060
7FC0
0000
0000
0000
0000
0000
ENDCHAR

STARTCHAR CyrillicVe
ENCODING 178
SWIDTH 602 0
DWIDTH 12 0
BBX 12 23 0 -5
BITMAP
0000
0000
0000
0000
7F80
30C0
3060
3060
3060
30C0
3FC0
3060
3030
3030
3030
3030
3060
7FC0
0000
0000
0000
0000
0000
ENDCHAR

STARTCHAR CyrillicGhe
ENCODING 179
SWIDTH 602 0
DWIDTH 12 0
BBX 12 23 0 -5
BITMAP
0000
0000
0000
0000
7FE0
3060
3020
3020
3000
3000
3000
3000
3000
3000
3000
3000
3000
7E00
0000
0000
0000
0000
0000
ENDCHAR

STARTCHAR CyrillicDe
ENCODING 180
SWIDTH 602 0
DWIDTH 12 0
BBX 12 23 0 -5
BITMAP
0000
0000
0000
0000
3FF0
08C0
08C0
08C0
08C0
08C0
08C0
18C0
10C0
10C0
30C0
20C0
20C0
7FF0
4030
4010
4010
0000
0000
ENDCHAR

STARTCHAR CyrillicIe
ENCODING 181
SWIDTH 602 0
DWIDTH 12 0
BBX 12 23 0 -5
BITMAP
0000
0000
0000
0000
7FE0
3060
3020
3020
3100
3100
3F00
3100
3100
3000
3020
3020
3060
7FE0
0000
0000
0000
0000
0000
ENDCHAR

STARTCHAR CyrillicZhe
ENCODING 182
SWIDTH 602 0
DWIDTH 12 0
BBX 12 23 0 -5
BITMAP
0000
0000
0000
0000
CF30
E670
2640
2640
2640
36C0
1F80
3FC0
36C0
36C0
6660
6660
6660
EF70
0000
0000
0000
0000
0000
ENDCHAR

STARTCHAR CyrillicZe
ENCODING 183
SWIDTH 602 0
DWIDTH 12 0
BBX 12 23 0 -5
BITMAP
0000
0000
0000
0000
2F80
38C0
3060
2060
2060
00C0
0FC0
00C0
0060
0060
2060
3060
18C0
0F80
0000
0000
0000
0000
0000
ENDCHAR

STARTCHAR CyrillicI
ENCODING 184
SWIDTH 602 0
DWIDTH 12 0
BBX 12 23 0 -5
BITMAP
0000
0000
0000
0000
78F0
3060
30E0
30E0
31E0
3160
3360
3660
3460
3C60
3860
3860
3060
78F0
0000
0000
0000
0000
0000
ENDCHAR

STARTCHAR CyrillicShortI
ENCODING 185
SWIDTH 602 0
DWIDTH 12 0
BBX 12 23 0 -5
BITMAP
18C0
18C0
0F80
0000
78F0
3060
30E0
30E0
31E0
3160
3360
3660
3460
3C60
3860
3860
3060
78F0
0000
0000
0000
0000
0000
ENDCHAR

STARTCHAR CyrillicKa
ENCODING 186
SWIDTH 602 0
DWIDTH 12 0
BBX 12 23 0 -5
BITMAP
0000
0000
0000
0000
78E0
31B0
3130
3100
3100
3300
3F00
3380
3180
31C0
30C0
30E0
3060
7870
0000
0000
0000
0000
0000
ENDCHAR

STARTCHAR CyrillicEl
ENCODING 187
SWIDTH 602 0
DWIDTH 12 0
BBX 12 23 0 -5
BITMAP
0000
0000
0000
0000
3FF0
0860
0860
0860
0860
0860
0860
0860
0860
0860
0860
1860
7060
60F0
0000
0000
0000
0000
0000
ENDCHAR

STARTCHAR CyrillicEm
ENCODING 188
SWIDTH 602 0
DWIDTH 12 0
BBX 12 23 0 -5
BITMAP
0000
0000
0000
0000
E070
6060
60E0
70E0
71E0
71E0
7960
5B60
5B60
5E60
4E60
4E60
4C60
E4F0
0000
0000
0000
0000
0000
ENDCHAR

STARTCHAR CyrillicEn
ENCODING 189
SWIDTH 602 0
DWIDTH 12 0
BBX 12 23 0 -5
BITMAP
0000
0000
0000
0000
78F0
3060
3060
3060
3060
3060
3FE0
3060
3060
3060
3060
3060
3060
78F0
0000
0000
0000
0000
0000
ENDCHAR

STARTCHAR CyrillicO
ENCODING 190
SWIDTH 602 0
DWIDTH 12 0
BBX 12 23 0 -5
BITMAP
0000
0000
0000
0000
0F80
18C0
3060
3060
6030
6030
6030
6030
6030
6030
3060
3060
18C0
0F80
0000
0000
0000
0000
0000
ENDCHAR

STARTCHAR CyrillicPe
ENCODING 191
SWIDTH 602 0
DWIDTH 12 0
BBX 12 23 0 -5
BITMAP
0000
0000
0000
0000
7FF0
3060
3060
3060
3060
3060
3060
3060
3060
3060
3060
3060
3060
78F0
0000
0000
0000
0000
0000
ENDCHAR

STARTCHAR CyrillicEr
ENCODING 192
SWIDTH 602 0
DWIDTH 12 0
BBX 12 23 0 -5
BITMAP
0000
0000
0000
0000
7F80
30C0
3060
3060
3060
3060
3060
30C0
3F80
3000
3000
3000
3000
7C00
0000
0000
0000
0000
0000
ENDCHAR

STARTCHAR CyrillicEs
ENCODING 193
SWIDTH 602 0
DWIDTH 12 0
BBX 12 23 0 -5
BITMAP
0000
0000
0000
0000
0FA0
18E0
3060
3020
6020
6000
6000
6000
6000
6020
3060
3060
18C0
0F80
0000
0000
0000
0000
0000
ENDCHAR

STARTCHAR CyrillicTe
ENCODING 194
SWIDTH 602 0
DWIDTH 12 0
BBX 12 23 0 -5
BITMAP
0000
0000
0000
0000
7FE0
6660
4620
4620
0600
0600
0600
0600
0600
0600
0600
0600
0600
1F80
0000
0000
0000
0000
0000
ENDCHAR

STARTCHAR CyrillicU
ENCODING 195
SWIDTH 602 0
DWIDTH 12 0
BBX 12 23 0 -5
BITMAP
0000
0000
0000
0000
78F0
3060
3060
18C0
18C0
0D80
0D80
0700
0700
0600
6600
6C00
4C00
3800
0000
0000
0000
0000
0000
ENDCHAR

STARTCHAR CyrillicEf
ENCODING 196
SWIDTH 602 0
DWIDTH 12 0
BBX 12 23 0 -5
BITMAP
0000
0000
0000
0000
0F00
0600
0600
1F80
36C0
6660
6660
6660
6660
36C0
1F80
0600
0600
0F00
0000
0000
0000
0000
0000
ENDCHAR

STARTCHAR CyrillicHa
ENCODING 197
SWIDTH 602 0
DWIDTH 12 0
BBX 12 23 0 -5
BITMAP
0000
0000
0000
0000
78F0
3060
18C0
18C0
0D80
0D80
0700
0700
0D80
0D80
18C0
18C0
3060
78F0
0000
0000
0000
0000
0000
ENDCHAR

STARTCHAR CyrillicTse
ENCODING 198
SWIDTH 602 0
DWIDTH 12 0
BBX 12 23 0 -5
BITMAP
0000
0000
0000
0000
F1E0
60C0
60C0
60C0
60C0
60C0
60C0
60C0
60C0
60C0
60C0
60C0
60C0
FFF0
0030
0010
0010
0000
0000
ENDCHAR

STARTCHAR CyrillicChe
ENCODING 199
SWIDTH 602 0
DWIDTH 12 0
BBX 12 23 0 -5
BITMAP
0000
0000
0000
0000
78F0
3060
3060
3060
3060
30E0
39E0
1F60
0060
0060
0060
0060
0060
01F0
0000
0000
0000
0000
0000
ENDCHAR

STARTCHAR CyrillicSha
ENCODING 200
SWIDTH 602 0
DWIDTH 12 0
BBX 12 23 0 -5
BITMAP
0000
0000
0000
0000
F770
6660
6660
6660
6660
6660
6660
6660
6660
6660
6660
6660
6660
FFF0
0000
0000
0000
0000
0000
ENDCHAR

STARTCHAR CyrillicShcha
ENCODING 201
SWIDTH 602 0
DWIDTH 12 0
BBX 12 23 0 -5
BITMAP
0000
0000
0000
0000
F770
6660
6660
6660
6660
6660
6660
6660
6660
6660
6660
6660
6660
FFF0
0030
0010
0010
0000
0000
ENDCHAR

STARTCHAR CyrillHardSign
ENCODING 202
SWIDTH 602 0
DWIDTH 12 0
BBX 12 23 0 -5
BITMAP
0000
0000
0000
0000
7F00
6600
4600
4600
0600
07C0
0660
0630
0630
0630
0630
0630
0660
0FC0
0000
0000
0000
0000
0000
ENDCHAR

STARTCHAR CyrillicYeru
ENCODING 203
SWIDTH 602 0
DWIDTH 12 0
BBX 12 23 0 -5
BITMAP
0000
0000
0000
0000
78F0
3060
3060
3060
3060
3E60
3360
3360
3360
3360
3360
3360
3360
7EF0
0000
0000
0000
0000
0000
ENDCHAR

STARTCHAR CyrillSoftSign
ENCODING 204
SWIDTH 602 0
DWIDTH 12 0
BBX 12 23 0 -5
BITMAP
0000
0000
0000
0000
7C00
3000
3000
3000
3000
3F80
30C0
3060
3060
3060
3060
3060
30C0
7F80
0000
0000
0000
0000
0000
ENDCHAR

STARTCHAR CyrillicE
ENCODING 205
SWIDTH 602 0
DWIDTH 12 0
BBX 12 23 0 -5
BITMAP
0000
0000
0000
0000
5F00
7180
60C0
40C0
4060
0060
0FE0
0060
0060
0060
40C0
60C0
3180
1F00
0000
0000
0000
0000
0000
ENDCHAR

STARTCHAR CyrillicYu
ENCODING 206
SWIDTH 602 0
DWIDTH 12 0
BBX 12 23 0 -5
BITMAP
0000
0000
0000
0000
79C0
3360
3360
3630
3630
3630
3E30
3630
3630
3630
3630
3360
3360
79C0
0000
0000
0000
0000
0000
ENDCHAR

STARTCHAR CyrillicYa
ENCODING 207
SWIDTH 602 0
DWIDTH 12 0
BBX 12 23 0 -5
BITMAP
0000
0000
0000
0000
0FF0
1860
3060
3060
3060
3060
1860
0FE0
0C60
0C60
1860
1860
3060
71F0
0000
0000
0000
0000
0000
ENDCHAR

STARTCHAR cyrillicA
ENCODING 208
SWIDTH 602 0
DWIDTH 12 0
BBX 12 23 0 -5
BITMAP
0000
0000
0000
0000
0000
0000
0000
0000
0000
1F80
38C0
30C0
07C0
3CC0
70C0
61C0
77C0
3CE0
0000
0000
0000
0000
0000
ENDCHAR

STARTCHAR cyrillicBe
ENCODING 209
SWIDTH 602 0
DWIDTH 12 0
BBX 12 23 0 -5
BITMAP
0000
0000
0000
0020
07E0
1FC0
3800
2000
6000
4F00
79C0
70C0
6060
6060
6060
30C0
39C0
0F00
0000
0000
0000
0000
0000
ENDCHAR

STARTCHAR cyrillicVe
ENCODING 210
SWIDTH 602 0
DWIDTH 12 0
BBX 12 23 0 -5
BITMAP
0000
0000
0000
0000
0000
0000
0000
0000
0000
7F00
3180
3180
3180
3FC0
3060
3060
3060
7FC0
0000
0000
0000
0000
0000
ENDCHAR

STARTCHAR cyrillicGhe
ENCODING 211
SWIDTH 602 0
DWIDTH 12 0
BBX 12 23 0 -5
BITMAP
0000
0000
0000
0000
0000
0000
0000
0000
0000
3FE0
1860
1820
1820
1800
1800
1800
1800
3E00
0000
0000
0000
0000
0000
ENDCHAR

STARTCHAR cyrillicDe
ENCODING 212
SWIDTH 602 0
DWIDTH 12 0
BBX 12 23 0 -5
BITMAP
0000
0000
0000
0000
0000
0000
0000
0000
0000
3FF0
08C0
08C0
08C0
18C0
10C0
30C0
20C0
7FF0
6030
4010
4010
0000
0000
ENDCHAR

STARTCHAR cyrillicIe
ENCODING 213
SWIDTH 602 0
DWIDTH 12 0
BBX 12 23 0 -5
BITMAP
0000
0000
0000
0000
0000
0000
0000
0000
0000
1F80
30C0
6060
7FE0
6000
6000
3060
38E0
0F80
0000
0000
0000
0000
0000
ENDCHAR

STARTCHAR cyrillicZhe
ENCODING 214
SWIDTH 602 0
DWIDTH 12 0
BBX 12 23 0 -5
BITMAP
0000
0000
0000
0000
0000
0000
0000
0000
0000
CF30
E670
2640
36C0
1F80
36C0
6660
6660
EF70
0000
0000
0000
0000
0000
ENDCHAR

STARTCHAR cyrillicZe
ENCODING 215
SWIDTH 602 0
DWIDTH 12 0
BBX 12 23 0 -5
BITMAP
0000
0000
0000
0000
0000
0000
0000
0000
0000
2F80
38C0
3060
2060
07C0
0060
2060
30C0
1F80
0000
0000
0000
0000
0000
ENDCHAR

STARTCHAR cyrillicI
ENCODING 216
SWIDTH 602 0
DWIDTH 12 0
BBX 12 23 0 -5
BITMAP
0000
0000
0000
0000
0000
0000
0000
0000
0000
78F0
3060
30E0
31E0
3760
3C60
3860
3060
78F0
0000
0000
0000
0000
0000
ENDCHAR

STARTCHAR cyrillicShortI
ENCODING 217
SWIDTH 602 0
DWIDTH 12 0
BBX 12 23 0 -5
BITMAP
0000
0000
0000
0000
18C0
18C0
0F80
0000
0000
78F0
3060
30E0
31E0
3760
3C60
3860
3060
78F0
0000
0000
0000
0000
0000
ENDCHAR

STARTCHAR cyrillicKa
ENCODING 218
SWIDTH 602 0
DWIDTH 12 0
BBX 12 23 0 -5
BITMAP
0000
0000
0000
0000
0000
0000
0000
0000
0000
78E0
3160
3100
3300
3E00
3700
3380
31C0
78E0
0000
0000
0000
0000
0000
ENDCHAR

STARTCHAR cyrillicEl
ENCODING 219
SWIDTH 602 0
DWIDTH 12 0
BBX 12 23 0 -5
BITMAP
0000
0000
0000
0000
0000
0000
0000
0000
0000
3FE0
10C0
10C0
10C0
10C0
10C0
10C0
70C0
61E0
0000
0000
0000
0000
0000
ENDCHAR

STARTCHAR cyrillicEm
ENCODING 220
SWIDTH 602 0
DWIDTH 12 0
BBX 12 23 0 -5
BITMAP
0000
0000
0000
0000
0000
0000
0000
0000
0000
7070
3060
38E0
38E0
3DE0
2D60
2F60
2660
76F0
0000
0000
0000
0000
0000
ENDCHAR

STARTCHAR cyrillicEn
ENCODING 221
SWIDTH 602 0
DWIDTH 12 0
BBX 12 23 0 -5
BITMAP
0000
0000
0000
0000
0000
0000
0000
0000
0000
78F0
3060
3060
3060
3FE0
3060
3060
3060
78F0
0000
0000
0000
0000
0000
ENDCHAR

STARTCHAR cyrillicO
ENCODING 222
SWIDTH 602 0
DWIDTH 12 0
BBX 12 23 0 -5
BITMAP
0000
0000
0000
0000
0000
0000
0000
0000
0000
0F00
39C0
30C0
6060
6060
6060
30C0
39C0
0F00
0000
0000
0000
0000
0000
ENDCHAR

STARTCHAR cyrillicPe
ENCODING 223
SWIDTH 602 0
DWIDTH 12 0
BBX 12 23 0 -5
BITMAP
0000
0000
0000
0000
0000
0000
0000
0000
0000
7FF0
3060
3060
3060
3060
3060
3060
3060
78F0
0000
0000
0000
0000
0000
ENDCHAR

STARTCHAR cyrillicEr
ENCODING 224
SWIDTH 602 0
DWIDTH 12 0
BBX 12 23 0 -5
BITMAP
0000
0000
0000
0000
0000
0000
0000
0000
0000
3780
7CE0
3860
3030
3030
3030
3860
3CE0
3780
3000
3000
3000
7800
0000
ENDCHAR

STARTCHAR cyrillicEs
ENCODING 225
SWIDTH 602 0
DWIDTH 12 0
BBX 12 23 0 -5
BITMAP
0000
0000
0000
0000
0000
0000
0000
0000
0000
0FA0
18E0
3060
3020
3000
3000
3020
1860
0FC0
0000
0000
0000
0000
0000
ENDCHAR

STARTCHAR cyrillicTe
ENCODING 226
SWIDTH 602 0
DWIDTH 12 0
BBX 12 23 0 -5
BITMAP
0000
0000
0000
0000
0000
0000
0000
0000
0000
7FE0
6660
4620
4620
0600
0600
0600
0600
1F80
0000
0000
0000
0000
0000
ENDCHAR

STARTCHAR cyrillicU
ENCODING 227
SWIDTH 602 0
DWIDTH 12 0
BBX 12 23 0 -5
BITMAP
0000
0000
0000
0000
0000
0000
0000
0000
0000
78F0
3060
3060
18C0
18C0
0D80
0D80
0700
0700
6600
6600
4C00
3800
0000
ENDCHAR

STARTCHAR cyrillicEf
ENCODING 228
SWIDTH 602 0
DWIDTH 12 0
BBX 12 23 0 -5
BITMAP
0000
0000
0000
0000
0600
1E00
0600
0600
0600
76E0
DFB0
8F10
8610
8610
8610
8F10
DFB0
76E0
0600
0600
0600
0F00
0000
ENDCHAR

STARTCHAR cyrillicHa
ENCODING 229
SWIDTH 602 0
DWIDTH 12 0
BBX 12 23 0 -5
BITMAP
0000
0000
0000
0000
0000
0000
0000
0000
0000
79E0
30C0
1980
0F00
0600
0F00
1980
30C0
79E0
0000
0000
0000
0000
0000
ENDCHAR

STARTCHAR cyrillicTse
ENCODING 230
SWIDTH 602 0
DWIDTH 12 0
BBX 12 23 0 -5
BITMAP
0000
0000
0000
0000
0000
0000
0000
0000
0000
79E0
30C0
30C0
30C0
30C0
30C0
30C0
30C0
7FF0
0030
0010
0010
0000
0000
ENDCHAR

STARTCHAR cyrillicChe
ENCODING 231
SWIDTH 602 0
DWIDTH 12 0
BBX 12 23 0 -5
BITMAP
0000
0000
0000
0000
0000
0000
0000
0000
0000
79E0
30C0
30C0
30C0
39C0
1EC0
00C0
00C0
01E0
0000
0000
0000
0000
0000
ENDCHAR

STARTCHAR cyrillicSha
ENCODING 232
SWIDTH 602 0
DWIDTH 12 0
BBX 12 23 0 -5
BITMAP
0000
0000
0000
0000
0000
0000
0000
0000
0000
F770
6660
6660
6660
6660
6660
6660
6660
FFF0
0000
0000
0000
0000
0000
ENDCHAR

STARTCHAR cyrillicShcha
ENCODING 233
SWIDTH 602 0
DWIDTH 12 0
BBX 12 23 0 -5
BITMAP
0000
0000
0000
0000
0000
0000
0000
0000
0000
F770
6660
6660
6660
6660
6660
6660
6660
FFF0
0030
0010
0010
0000
0000
ENDCHAR

STARTCHAR cyrillHardSign
ENCODING 234
SWIDTH 602 0
DWIDTH 12 0
BBX 12 23 0 -5
BITMAP
0000
0000
0000
0000
0000
0000
0000
0000
0000
7F00
6600
4600
47E0
0630
0630
0630
0630
0FE0
0000
0000
0000
0000
0000
ENDCHAR

STARTCHAR cyrillicYeru
ENCODING 235
SWIDTH 602 0
DWIDTH 12 0
BBX 12 23 0 -5
BITMAP
0000
0000
0000
0000
0000
0000
0000
0000
0000
78F0
3060
3060
3E60
3360
3360
3360
3360
7EF0
0000
0000
0000
0000
0000
ENDCHAR

STARTCHAR cyrillSoftSign
ENCODING 236
SWIDTH 602 0
DWIDTH 12 0
BBX 12 23 0 -5
BITMAP
0000
0000
0000
0000
0000
0000
0000
0000
0000
3E00
1800
1800
1FC0
1860
1860
1860
1860
3FC0
0000
0000
0000
0000
0000
ENDCHAR

STARTCHAR cyrillicE
ENCODING 237
SWIDTH 602 0
DWIDTH 12 0
BBX 12 23 0 -5
BITMAP
0000
0000
0000
0000
0000
0000
0000
0000
0000
2F80
38C0
3060
2060
07E0
0060
2060
30C0
1F80
0000
0000
0000
0000
0000
ENDCHAR

STARTCHAR cyrillicYu
ENCODING 238
SWIDTH 602 0
DWIDTH 12 0
BBX 12 23 0 -5
BITMAP
0000
0000
0000
0000
0000
0000
0000
0000
0000
79C0
3360
3630
3630
3E30
3630
3630
3360
79C0
0000
0000
0000
0000
0000
ENDCHAR

STARTCHAR cyrillicYa
ENCODING 239
SWIDTH 602 0
DWIDTH 12 0
BBX 12 23 0 -5
BITMAP
0000
0000
0000
0000
0000
0000
0000
0000
0000
1FE0
30C0
30C0
30C0
1FC0
0CC0
18C0
30C0
79E0
0000
0000
0000
0000
0000
ENDCHAR

STARTCHAR NumberAcronym
ENCODING 240
SWIDTH 602 0
DWIDTH 12 0
BBX 12 23 0 -5
BITMAP
0000
0000
0000
0000
C300
6300
6260
72F0
7290
7A90
5AF0
5E60
4E00
4EF0
4600
46F0
C200
C200
0000
0000
0000
0000
0000
ENDCHAR

STARTCHAR cyrillicIo
ENCODING 241
SWIDTH 602 0
DWIDTH 12 0
BBX 12 23 0 -5
BITMAP
0000
0000
0000
0000
30C0
79E0
30C0
0000
0000
1FC0
30E0
6060
7FE0
6000
6000
3060
38E0
0F80
0000
0000
0000
0000
0000
ENDCHAR

STARTCHAR serboCroatDje
ENCODING 242
SWIDTH 602 0
DWIDTH 12 0
BBX 12 23 0 -5
BITMAP
0000
0000
0000
0000
1800
3800
1800
3F80
1800
1BC0
1EE0
1C60
1860
1860
1860
1860
1860
3C60
0060
00C0
0180
0000
0000
ENDCHAR

STARTCHAR macedonianGje
ENCODING 243
SWIDTH 602 0
DWIDTH 12 0
BBX 12 23 0 -5
BITMAP
0000
0000
0000
0000
01C0
0380
0600
0000
0000
3FE0
1860
1820
1820
1800
1800
1800
1800
3E00
0000
0000
0000
0000
0000
ENDCHAR

STARTCHAR ukrainianIe
ENCODING 244
SWIDTH 602 0
DWIDTH 12 0
BBX 12 23 0 -5
BITMAP
0000
0000
0000
0000
0000
0000
0000
0000
0000
0FA0
18E0
3060
3020
3F00
3000
3020
1860
0FC0
0000
0000
0000
0000
0000
ENDCHAR

STARTCHAR macedonianDze
ENCODING 245
SWIDTH 602 0
DWIDTH 12 0
BBX 12 23 0 -5
BITMAP
0000
0000
0000
0000
0000
0000
0000
0000
0000
0FA0
18E0
1C60
0E20
0780
11C0
18E0
1C60
17C0
0000
0000
0000
0000
0000
ENDCHAR

STARTCHAR byeloRuUkrainI
ENCODING 246
SWIDTH 602 0
DWIDTH 12 0
BBX 12 23 0 -5
BITMAP
0000
0000
0000
0000
0300
0780
0300
0000
0000
0300
1F00
0300
0300
0300
0300
0300
0300
1FE0
0000
0000
0000
0000
0000
ENDCHAR

STARTCHAR ukrainianYi
ENCODING 247
SWIDTH 602 0
DWIDTH 12 0
BBX 12 23 0 -5
BITMAP
0000
0000
0000
0000
30C0
79E0
30C0
0000
0000
0600
3E00
0600
0600
0600
0600
0600
0600
3FC0
0000
0000
0000
0000
0000
ENDCHAR

STARTCHAR cyrillicJe
ENCODING 248
SWIDTH 602 0
DWIDTH 12 0
BBX 12 23 0 -5
BITMAP
0000
0000
0000
0000
0300
0780
0300
0000
0000
0300
1F00
0300
0300
0300
0300
0300
0300
0300
0300
C300
E600
3C00
0000
ENDCHAR

STARTCHAR cyrillicLje
ENCODING 249
SWIDTH 602 0
DWIDTH 12 0
BBX 12 23 0 -5
BITMAP
0000
0000
0000
0000
0000
0000
0000
0000
0000
3F80
1300
1300
13E0
1330
1330
1330
7330
67E0
0000
0000
0000
0000
0000
ENDCHAR

STARTCHAR cyrillicNje
ENCODING 250
SWIDTH 602 0
DWIDTH 12 0
BBX 12 23 0 -5
BITMAP
0000
0000
0000
0000
0000
0000
0000
0000
0000
7BC0
3180
3180
3FE0
31B0
3190
3190
31B0
7BE0
0000
0000
0000
0000
0000
ENDCHAR

STARTCHAR serboCroatTshe
ENCODING 251
SWIDTH 602 0
DWIDTH 12 0
BBX 12 23 0 -5
BITMAP
0000
0000
0000
0000
3000
7000
3000
7F00
3000
3780
3DC0
38C0
30C0
30C0
30C0
30C0
30C0
79E0
0000
0000
0000
0000
0000
ENDCHAR

STARTCHAR macedonianKje
ENCODING 252
SWIDTH 602 0
DWIDTH 12 0
BBX 12 23 0 -5
BITMAP
0000
0000
0000
0000
01C0
0380
0600
0000
0000
78E0
3160
3100
3300
3E00
3700
3380
31C0
78E0
0000
0000
0000
0000
0000
ENDCHAR

STARTCHAR ParagraphSign
ENCODING 253
SWIDTH 602 0
DWIDTH 12 0
BBX 12 23 0 -5
BITMAP
0000
0000
0FC0
1860
1820
1C60
0E60
0F00
1B80
11C0
18E0
1C60
0E20
0760
03C0
19C0
18E0
1060
1860
0FC0
0000
0000
0000
ENDCHAR

STARTCHAR byeloRusShortU
ENCODING 254
SWIDTH 602 0
DWIDTH 12 0
BBX 12 23 0 -5
BITMAP
0000
0000
0000
0000
18C0
18C0
0F80
0000
0000
78F0
3060
3060
18C0
18C0
0D80
0D80
0700
0700
6600
6600
4C00
3800
0000
ENDCHAR

STARTCHAR cyrillicDzhe
ENCODING 255
SWIDTH 602 0
DWIDTH 12 0
BBX 12 23 0 -5
BITMAP
0000
0000
0000
0000
0000
0000
0000
0000
0000
78F0
3060
3060
3060
3060
3060
3060
3060
7FF0
0700
0200
0200
0000
0000
ENDCHAR

ENDFONT
