STARTFONT 2.1
FONT -SGI-Screen-Medium-R-Normal--18-180-72-72-M-90-ISO8859-1
SIZE 18 72 72
FONTBOUNDINGBOX 9 18 0 -5

STARTPROPERTIES 25
_DEC_DEVICE_FONTNAMES "FM=Screen"
FONTNAME_REGISTRY ""
FAMILY_NAME "Screen"
FOUNDRY "SGI"
WEIGHT_NAME "Medium"
SLANT "R"
SETWIDTH_NAME "Normal"
ADD_STYLE_NAME ""
PIXEL_SIZE 18
POINT_SIZE 180
RESOLUTION_X 72
RESOLUTION_Y 72
SPACING "M"
AVERAGE_WIDTH 90
CHARSET_REGISTRY "ISO8859"
CHARSET_ENCODING "1"
CHARSET_COLLECTIONS "ASCII ISO8859-1 ADOBE-STANDARD"
FULL_NAME "Screen"
CAP_HEIGHT 12
X_HEIGHT 9
WEIGHT 10
QUAD_WIDTH 9
DEFAULT_CHAR 0
FONT_DESCENT 5
FONT_ASCENT 13
ENDPROPERTIES

CHARS 190

STARTCHAR space
ENCODING 32
SWIDTH 500 0
DWIDTH 9 0
BBX 9 18 0 -5
BITMAP
0000
0000
0000
0000
0000
0000
0000
0000
0000
0000
0000
0000
0000
0000
0000
0000
0000
0000
ENDCHAR

STARTCHAR exclam
ENCODING 33
SWIDTH 500 0
DWIDTH 9 0
BBX 9 18 0 -5
BITMAP
0000
0800
0800
0800
0800
0800
0800
0800
0800
0000
0000
0800
0800
0000
0000
0000
0000
0000
ENDCHAR

STARTCHAR quotedbl
ENCODING 34
SWIDTH 500 0
DWIDTH 9 0
BBX 9 18 0 -5
BITMAP
0000
2400
2400
2400
2400
2400
0000
0000
0000
0000
0000
0000
0000
0000
0000
0000
0000
0000
ENDCHAR

STARTCHAR numbersign
ENCODING 35
SWIDTH 500 0
DWIDTH 9 0
BBX 9 18 0 -5
BITMAP
0000
1200
1200
1200
7F00
2400
2400
2400
2400
FE00
4800
4800
4800
0000
0000
0000
0000
0000
ENDCHAR

STARTCHAR dollar
ENCODING 36
SWIDTH 500 0
DWIDTH 9 0
BBX 9 18 0 -5
BITMAP
0800
0800
1C00
2A00
4900
4900
2800
1C00
0A00
4900
4900
2A00
1C00
0800
0800
0000
0000
0000
ENDCHAR

STARTCHAR percent
ENCODING 37
SWIDTH 500 0
DWIDTH 9 0
BBX 9 18 0 -5
BITMAP
0000
3100
4A00
4A00
3400
0400
0800
0800
1000
1600
2900
2900
4600
0000
0000
0000
0000
0000
ENDCHAR

STARTCHAR ampersand
ENCODING 38
SWIDTH 500 0
DWIDTH 9 0
BBX 9 18 0 -5
BITMAP
0000
3000
4800
4800
3000
2000
5000
4800
8580
8200
8200
8500
7880
0000
0000
0000
0000
0000
ENDCHAR

STARTCHAR quoteright
ENCODING 39
SWIDTH 500 0
DWIDTH 9 0
BBX 9 18 0 -5
BITMAP
0000
0C00
0C00
0C00
0800
1000
0000
0000
0000
0000
0000
0000
0000
0000
0000
0000
0000
0000
ENDCHAR

STARTCHAR parenleft
ENCODING 40
SWIDTH 500 0
DWIDTH 9 0
BBX 9 18 0 -5
BITMAP
0200
0400
0800
1000
1000
2000
2000
2000
2000
2000
2000
1000
1000
0800
0400
0200
0000
0000
ENDCHAR

STARTCHAR parenright
ENCODING 41
SWIDTH 500 0
DWIDTH 9 0
BBX 9 18 0 -5
BITMAP
2000
1000
0800
0400
0400
0200
0200
0200
0200
0200
0200
0400
0400
0800
1000
2000
0000
0000
ENDCHAR

STARTCHAR asterisk
ENCODING 42
SWIDTH 500 0
DWIDTH 9 0
BBX 9 18 0 -5
BITMAP
0000
0000
0000
0800
4900
2A00
1C00
1C00
2A00
4900
0800
0000
0000
0000
0000
0000
0000
0000
ENDCHAR

STARTCHAR plus
ENCODING 43
SWIDTH 500 0
DWIDTH 9 0
BBX 9 18 0 -5
BITMAP
0000
0000
0000
0000
0800
0800
0800
7F00
0800
0800
0800
0000
0000
0000
0000
0000
0000
0000
ENDCHAR

STARTCHAR comma
ENCODING 44
SWIDTH 500 0
DWIDTH 9 0
BBX 9 18 0 -5
BITMAP
0000
0000
0000
0000
0000
0000
0000
0000
0000
0000
0000
0C00
0C00
0400
0800
1000
0000
0000
ENDCHAR

STARTCHAR minus
ENCODING 45
SWIDTH 500 0
DWIDTH 9 0
BBX 9 18 0 -5
BITMAP
0000
0000
0000
0000
0000
0000
0000
7E00
0000
0000
0000
0000
0000
0000
0000
0000
0000
0000
ENDCHAR

STARTCHAR period
ENCODING 46
SWIDTH 500 0
DWIDTH 9 0
BBX 9 18 0 -5
BITMAP
0000
0000
0000
0000
0000
0000
0000
0000
0000
0000
0000
1800
1800
0000
0000
0000
0000
0000
ENDCHAR

STARTCHAR slash
ENCODING 47
SWIDTH 500 0
DWIDTH 9 0
BBX 9 18 0 -5
BITMAP
0100
0100
0200
0200
0400
0400
0800
0800
1000
1000
2000
2000
4000
4000
0000
0000
0000
0000
ENDCHAR

STARTCHAR zero
ENCODING 48
SWIDTH 500 0
DWIDTH 9 0
BBX 9 18 0 -5
BITMAP
0000
1C00
2200
4100
4300
4500
4900
5100
6100
4100
4100
2200
1C00
0000
0000
0000
0000
0000
ENDCHAR

STARTCHAR one
ENCODING 49
SWIDTH 500 0
DWIDTH 9 0
BBX 9 18 0 -5
BITMAP
0000
0400
0C00
1400
0400
0400
0400
0400
0400
0400
0400
0400
1E00
0000
0000
0000
0000
0000
ENDCHAR

STARTCHAR two
ENCODING 50
SWIDTH 500 0
DWIDTH 9 0
BBX 9 18 0 -5
BITMAP
0000
1C00
2200
4100
4100
0100
0200
0400
0800
1000
2000
4000
7F00
0000
0000
0000
0000
0000
ENDCHAR

STARTCHAR three
ENCODING 51
SWIDTH 500 0
DWIDTH 9 0
BBX 9 18 0 -5
BITMAP
0000
1C00
2200
4100
0100
0200
1C00
0200
0100
0100
4100
2200
1C00
0000
0000
0000
0000
0000
ENDCHAR

STARTCHAR four
ENCODING 52
SWIDTH 500 0
DWIDTH 9 0
BBX 9 18 0 -5
BITMAP
0000
0200
0600
0A00
1200
2200
2200
4200
7F00
0200
0200
0200
0200
0000
0000
0000
0000
0000
ENDCHAR

STARTCHAR five
ENCODING 53
SWIDTH 500 0
DWIDTH 9 0
BBX 9 18 0 -5
BITMAP
0000
7F00
4000
4000
4000
7C00
0200
0100
0100
0100
4100
2200
1C00
0000
0000
0000
0000
0000
ENDCHAR

STARTCHAR six
ENCODING 54
SWIDTH 500 0
DWIDTH 9 0
BBX 9 18 0 -5
BITMAP
0000
1C00
2200
4000
4000
5C00
6200
4100
4100
4100
4100
2200
1C00
0000
0000
0000
0000
0000
ENDCHAR

STARTCHAR seven
ENCODING 55
SWIDTH 500 0
DWIDTH 9 0
BBX 9 18 0 -5
BITMAP
0000
7F00
0100
0200
0200
0400
0400
0800
0800
1000
1000
1000
1000
0000
0000
0000
0000
0000
ENDCHAR

STARTCHAR eight
ENCODING 56
SWIDTH 500 0
DWIDTH 9 0
BBX 9 18 0 -5
BITMAP
0000
1C00
2200
4100
4100
2200
1C00
2200
4100
4100
4100
2200
1C00
0000
0000
0000
0000
0000
ENDCHAR

STARTCHAR nine
ENCODING 57
SWIDTH 500 0
DWIDTH 9 0
BBX 9 18 0 -5
BITMAP
0000
1C00
2200
4100
4100
4100
2300
1D00
0100
0100
0100
4200
3C00
0000
0000
0000
0000
0000
ENDCHAR

STARTCHAR colon
ENCODING 58
SWIDTH 500 0
DWIDTH 9 0
BBX 9 18 0 -5
BITMAP
0000
0000
0000
0000
0000
1800
1800
0000
0000
0000
0000
1800
1800
0000
0000
0000
0000
0000
ENDCHAR

STARTCHAR semicolon
ENCODING 59
SWIDTH 500 0
DWIDTH 9 0
BBX 9 18 0 -5
BITMAP
0000
0000
0000
0000
0000
1800
1800
0000
0000
0000
0000
1800
1800
0800
1000
2000
0000
0000
ENDCHAR

STARTCHAR less
ENCODING 60
SWIDTH 500 0
DWIDTH 9 0
BBX 9 18 0 -5
BITMAP
0000
0100
0200
0400
0800
1000
2000
4000
2000
1000
0800
0400
0200
0100
0000
0000
0000
0000
ENDCHAR

STARTCHAR equal
ENCODING 61
SWIDTH 500 0
DWIDTH 9 0
BBX 9 18 0 -5
BITMAP
0000
0000
0000
0000
7F00
0000
0000
0000
7F00
0000
0000
0000
0000
0000
0000
0000
0000
0000
ENDCHAR

STARTCHAR greater
ENCODING 62
SWIDTH 500 0
DWIDTH 9 0
BBX 9 18 0 -5
BITMAP
0000
4000
2000
1000
0800
0400
0200
0100
0200
0400
0800
1000
2000
4000
0000
0000
0000
0000
ENDCHAR

STARTCHAR question
ENCODING 63
SWIDTH 500 0
DWIDTH 9 0
BBX 9 18 0 -5
BITMAP
0000
1C00
2200
4100
4100
0100
0200
0400
0800
0800
0000
0800
0800
0000
0000
0000
0000
0000
ENDCHAR

STARTCHAR at
ENCODING 64
SWIDTH 500 0
DWIDTH 9 0
BBX 9 18 0 -5
BITMAP
0000
1C00
2200
4100
4700
4900
5100
5100
4900
4600
4000
2100
1E00
0000
0000
0000
0000
0000
ENDCHAR

STARTCHAR A
ENCODING 65
SWIDTH 500 0
DWIDTH 9 0
BBX 9 18 0 -5
BITMAP
0000
0800
0800
0800
1400
1400
1400
2200
2200
3E00
4100
4100
4100
0000
0000
0000
0000
0000
ENDCHAR

STARTCHAR B
ENCODING 66
SWIDTH 500 0
DWIDTH 9 0
BBX 9 18 0 -5
BITMAP
0000
7C00
4200
4100
4100
4200
7C00
4200
4100
4100
4100
4200
7C00
0000
0000
0000
0000
0000
ENDCHAR

STARTCHAR C
ENCODING 67
SWIDTH 500 0
DWIDTH 9 0
BBX 9 18 0 -5
BITMAP
0000
1C00
2200
4100
4000
4000
4000
4000
4000
4000
4100
2200
1C00
0000
0000
0000
0000
0000
ENDCHAR

STARTCHAR D
ENCODING 68
SWIDTH 500 0
DWIDTH 9 0
BBX 9 18 0 -5
BITMAP
0000
7C00
4200
4100
4100
4100
4100
4100
4100
4100
4100
4200
7C00
0000
0000
0000
0000
0000
ENDCHAR

STARTCHAR E
ENCODING 69
SWIDTH 500 0
DWIDTH 9 0
BBX 9 18 0 -5
BITMAP
0000
7F00
4000
4000
4000
4000
7E00
4000
4000
4000
4000
4000
7F00
0000
0000
0000
0000
0000
ENDCHAR

STARTCHAR F
ENCODING 70
SWIDTH 500 0
DWIDTH 9 0
BBX 9 18 0 -5
BITMAP
0000
7F00
4000
4000
4000
4000
7E00
4000
4000
4000
4000
4000
4000
0000
0000
0000
0000
0000
ENDCHAR

STARTCHAR G
ENCODING 71
SWIDTH 500 0
DWIDTH 9 0
BBX 9 18 0 -5
BITMAP
0000
1C00
2200
4100
4000
4000
4000
4700
4100
4100
4100
2300
1D00
0000
0000
0000
0000
0000
ENDCHAR

STARTCHAR H
ENCODING 72
SWIDTH 500 0
DWIDTH 9 0
BBX 9 18 0 -5
BITMAP
0000
4100
4100
4100
4100
4100
7F00
4100
4100
4100
4100
4100
4100
0000
0000
0000
0000
0000
ENDCHAR

STARTCHAR I
ENCODING 73
SWIDTH 500 0
DWIDTH 9 0
BBX 9 18 0 -5
BITMAP
0000
1C00
0800
0800
0800
0800
0800
0800
0800
0800
0800
0800
1C00
0000
0000
0000
0000
0000
ENDCHAR

STARTCHAR J
ENCODING 74
SWIDTH 500 0
DWIDTH 9 0
BBX 9 18 0 -5
BITMAP
0000
0200
0200
0200
0200
0200
0200
0200
0200
4200
4200
2400
1800
0000
0000
0000
0000
0000
ENDCHAR

STARTCHAR K
ENCODING 75
SWIDTH 500 0
DWIDTH 9 0
BBX 9 18 0 -5
BITMAP
0000
4100
4200
4400
4800
5000
6000
5000
4800
4400
4200
4100
4100
0000
0000
0000
0000
0000
ENDCHAR

STARTCHAR L
ENCODING 76
SWIDTH 500 0
DWIDTH 9 0
BBX 9 18 0 -5
BITMAP
0000
4000
4000
4000
4000
4000
4000
4000
4000
4000
4000
4000
7F00
0000
0000
0000
0000
0000
ENDCHAR

STARTCHAR M
ENCODING 77
SWIDTH 500 0
DWIDTH 9 0
BBX 9 18 0 -5
BITMAP
0000
4100
4100
6300
6300
5500
5500
4900
4900
4100
4100
4100
4100
0000
0000
0000
0000
0000
ENDCHAR

STARTCHAR N
ENCODING 78
SWIDTH 500 0
DWIDTH 9 0
BBX 9 18 0 -5
BITMAP
0000
4100
6100
6100
5100
5100
4900
4900
4500
4500
4300
4300
4100
0000
0000
0000
0000
0000
ENDCHAR

STARTCHAR O
ENCODING 79
SWIDTH 500 0
DWIDTH 9 0
BBX 9 18 0 -5
BITMAP
0000
1C00
2200
4100
4100
4100
4100
4100
4100
4100
4100
2200
1C00
0000
0000
0000
0000
0000
ENDCHAR

STARTCHAR P
ENCODING 80
SWIDTH 500 0
DWIDTH 9 0
BBX 9 18 0 -5
BITMAP
0000
7C00
4200
4100
4100
4100
4200
7C00
4000
4000
4000
4000
4000
0000
0000
0000
0000
0000
ENDCHAR

STARTCHAR Q
ENCODING 81
SWIDTH 500 0
DWIDTH 9 0
BBX 9 18 0 -5
BITMAP
0000
1C00
2200
4100
4100
4100
4100
4100
4100
4100
4100
2A00
1C00
0400
0200
0100
0000
0000
ENDCHAR

STARTCHAR R
ENCODING 82
SWIDTH 500 0
DWIDTH 9 0
BBX 9 18 0 -5
BITMAP
0000
7C00
4200
4100
4100
4100
4200
7C00
4800
4400
4200
4100
4100
0000
0000
0000
0000
0000
ENDCHAR

STARTCHAR S
ENCODING 83
SWIDTH 500 0
DWIDTH 9 0
BBX 9 18 0 -5
BITMAP
0000
1C00
2200
4100
4000
2000
1C00
0200
0100
0100
4100
2200
1C00
0000
0000
0000
0000
0000
ENDCHAR

STARTCHAR T
ENCODING 84
SWIDTH 500 0
DWIDTH 9 0
BBX 9 18 0 -5
BITMAP
0000
7F00
0800
0800
0800
0800
0800
0800
0800
0800
0800
0800
0800
0000
0000
0000
0000
0000
ENDCHAR

STARTCHAR U
ENCODING 85
SWIDTH 500 0
DWIDTH 9 0
BBX 9 18 0 -5
BITMAP
0000
4100
4100
4100
4100
4100
4100
4100
4100
4100
4100
2200
1C00
0000
0000
0000
0000
0000
ENDCHAR

STARTCHAR V
ENCODING 86
SWIDTH 500 0
DWIDTH 9 0
BBX 9 18 0 -5
BITMAP
0000
4100
4100
4100
2200
2200
2200
1400
1400
1400
0800
0800
0800
0000
0000
0000
0000
0000
ENDCHAR

STARTCHAR W
ENCODING 87
SWIDTH 500 0
DWIDTH 9 0
BBX 9 18 0 -5
BITMAP
0000
4100
4100
4900
4900
4900
5500
5500
5500
2200
2200
2200
2200
0000
0000
0000
0000
0000
ENDCHAR

STARTCHAR X
ENCODING 88
SWIDTH 500 0
DWIDTH 9 0
BBX 9 18 0 -5
BITMAP
0000
4100
4100
2200
2200
1400
0800
0800
1400
2200
2200
4100
4100
0000
0000
0000
0000
0000
ENDCHAR

STARTCHAR Y
ENCODING 89
SWIDTH 500 0
DWIDTH 9 0
BBX 9 18 0 -5
BITMAP
0000
4100
4100
2200
2200
1400
1400
0800
0800
0800
0800
0800
0800
0000
0000
0000
0000
0000
ENDCHAR

STARTCHAR Z
ENCODING 90
SWIDTH 500 0
DWIDTH 9 0
BBX 9 18 0 -5
BITMAP
0000
7F00
0100
0200
0200
0400
0800
0800
1000
2000
2000
4000
7F00
0000
0000
0000
0000
0000
ENDCHAR

STARTCHAR bracketleft
ENCODING 91
SWIDTH 500 0
DWIDTH 9 0
BBX 9 18 0 -5
BITMAP
1E00
1000
1000
1000
1000
1000
1000
1000
1000
1000
1000
1000
1000
1000
1000
1E00
0000
0000
ENDCHAR

STARTCHAR backslash
ENCODING 92
SWIDTH 500 0
DWIDTH 9 0
BBX 9 18 0 -5
BITMAP
4000
4000
2000
2000
1000
1000
0800
0800
0400
0400
0200
0200
0100
0100
0000
0000
0000
0000
ENDCHAR

STARTCHAR bracketright
ENCODING 93
SWIDTH 500 0
DWIDTH 9 0
BBX 9 18 0 -5
BITMAP
3C00
0400
0400
0400
0400
0400
0400
0400
0400
0400
0400
0400
0400
0400
0400
3C00
0000
0000
ENDCHAR

STARTCHAR asciicircum
ENCODING 94
SWIDTH 500 0
DWIDTH 9 0
BBX 9 18 0 -5
BITMAP
0000
0800
1400
2200
4100
0000
0000
0000
0000
0000
0000
0000
0000
0000
0000
0000
0000
0000
ENDCHAR

STARTCHAR underscore
ENCODING 95
SWIDTH 500 0
DWIDTH 9 0
BBX 9 18 0 -5
BITMAP
0000
0000
0000
0000
0000
0000
0000
0000
0000
0000
0000
0000
0000
0000
0000
0000
FF80
0000
ENDCHAR

STARTCHAR quoteleft
ENCODING 96
SWIDTH 500 0
DWIDTH 9 0
BBX 9 18 0 -5
BITMAP
0000
1800
1800
1800
0800
0400
0000
0000
0000
0000
0000
0000
0000
0000
0000
0000
0000
0000
ENDCHAR

STARTCHAR a
ENCODING 97
SWIDTH 500 0
DWIDTH 9 0
BBX 9 18 0 -5
BITMAP
0000
0000
0000
0000
3C00
4200
0200
1E00
2200
4200
4200
4600
3900
0000
0000
0000
0000
0000
ENDCHAR

STARTCHAR b
ENCODING 98
SWIDTH 500 0
DWIDTH 9 0
BBX 9 18 0 -5
BITMAP
0000
4000
4000
4000
5C00
6200
4100
4100
4100
4100
4100
6200
5C00
0000
0000
0000
0000
0000
ENDCHAR

STARTCHAR c
ENCODING 99
SWIDTH 500 0
DWIDTH 9 0
BBX 9 18 0 -5
BITMAP
0000
0000
0000
0000
1C00
2200
4100
4000
4000
4000
4100
2200
1C00
0000
0000
0000
0000
0000
ENDCHAR

STARTCHAR d
ENCODING 100
SWIDTH 500 0
DWIDTH 9 0
BBX 9 18 0 -5
BITMAP
0000
0100
0100
0100
1D00
2300
4100
4100
4100
4100
4100
2300
1D00
0000
0000
0000
0000
0000
ENDCHAR

STARTCHAR e
ENCODING 101
SWIDTH 500 0
DWIDTH 9 0
BBX 9 18 0 -5
BITMAP
0000
0000
0000
0000
1C00
2200
4100
4100
7F00
4000
4000
2100
1E00
0000
0000
0000
0000
0000
ENDCHAR

STARTCHAR f
ENCODING 102
SWIDTH 500 0
DWIDTH 9 0
BBX 9 18 0 -5
BITMAP
0000
0F00
1000
1000
7E00
1000
1000
1000
1000
1000
1000
1000
1000
0000
0000
0000
0000
0000
ENDCHAR

STARTCHAR g
ENCODING 103
SWIDTH 500 0
DWIDTH 9 0
BBX 9 18 0 -5
BITMAP
0000
0000
0000
0000
1D00
2300
4100
4100
4100
4100
4100
2300
1D00
0100
0100
4200
3C00
0000
ENDCHAR

STARTCHAR h
ENCODING 104
SWIDTH 500 0
DWIDTH 9 0
BBX 9 18 0 -5
BITMAP
0000
4000
4000
4000
5C00
6200
4100
4100
4100
4100
4100
4100
4100
0000
0000
0000
0000
0000
ENDCHAR

STARTCHAR i
ENCODING 105
SWIDTH 500 0
DWIDTH 9 0
BBX 9 18 0 -5
BITMAP
0000
0400
0400
0000
1C00
0400
0400
0400
0400
0400
0400
0400
0400
0000
0000
0000
0000
0000
ENDCHAR

STARTCHAR j
ENCODING 106
SWIDTH 500 0
DWIDTH 9 0
BBX 9 18 0 -5
BITMAP
0000
0200
0200
0000
0E00
0200
0200
0200
0200
0200
0200
0200
0200
0200
0200
4400
3800
0000
ENDCHAR

STARTCHAR k
ENCODING 107
SWIDTH 500 0
DWIDTH 9 0
BBX 9 18 0 -5
BITMAP
0000
4000
4000
4000
4200
4400
4800
5000
7000
4800
4400
4200
4100
0000
0000
0000
0000
0000
ENDCHAR

STARTCHAR l
ENCODING 108
SWIDTH 500 0
DWIDTH 9 0
BBX 9 18 0 -5
BITMAP
0000
1C00
0400
0400
0400
0400
0400
0400
0400
0400
0400
0400
0400
0000
0000
0000
0000
0000
ENDCHAR

STARTCHAR m
ENCODING 109
SWIDTH 500 0
DWIDTH 9 0
BBX 9 18 0 -5
BITMAP
0000
0000
0000
0000
7600
4900
4900
4900
4900
4900
4900
4900
4900
0000
0000
0000
0000
0000
ENDCHAR

STARTCHAR n
ENCODING 110
SWIDTH 500 0
DWIDTH 9 0
BBX 9 18 0 -5
BITMAP
0000
0000
0000
0000
5C00
6200
4100
4100
4100
4100
4100
4100
4100
0000
0000
0000
0000
0000
ENDCHAR

STARTCHAR o
ENCODING 111
SWIDTH 500 0
DWIDTH 9 0
BBX 9 18 0 -5
BITMAP
0000
0000
0000
0000
1C00
2200
4100
4100
4100
4100
4100
2200
1C00
0000
0000
0000
0000
0000
ENDCHAR

STARTCHAR p
ENCODING 112
SWIDTH 500 0
DWIDTH 9 0
BBX 9 18 0 -5
BITMAP
0000
0000
0000
0000
5C00
6200
4100
4100
4100
4100
4100
6200
5C00
4000
4000
4000
4000
0000
ENDCHAR

STARTCHAR q
ENCODING 113
SWIDTH 500 0
DWIDTH 9 0
BBX 9 18 0 -5
BITMAP
0000
0000
0000
0000
1D00
2300
4100
4100
4100
4100
4100
2300
1D00
0100
0100
0100
0100
0000
ENDCHAR

STARTCHAR r
ENCODING 114
SWIDTH 500 0
DWIDTH 9 0
BBX 9 18 0 -5
BITMAP
0000
0000
0000
0000
5C00
6200
4000
4000
4000
4000
4000
4000
4000
0000
0000
0000
0000
0000
ENDCHAR

STARTCHAR s
ENCODING 115
SWIDTH 500 0
DWIDTH 9 0
BBX 9 18 0 -5
BITMAP
0000
0000
0000
0000
3E00
4100
4000
3C00
0200
0100
0100
4200
3C00
0000
0000
0000
0000
0000
ENDCHAR

STARTCHAR t
ENCODING 116
SWIDTH 500 0
DWIDTH 9 0
BBX 9 18 0 -5
BITMAP
0000
0000
1000
1000
7C00
1000
1000
1000
1000
1000
1000
0800
0600
0000
0000
0000
0000
0000
ENDCHAR

STARTCHAR u
ENCODING 117
SWIDTH 500 0
DWIDTH 9 0
BBX 9 18 0 -5
BITMAP
0000
0000
0000
0000
4100
4100
4100
4100
4100
4100
4100
2300
1D00
0000
0000
0000
0000
0000
ENDCHAR

STARTCHAR v
ENCODING 118
SWIDTH 500 0
DWIDTH 9 0
BBX 9 18 0 -5
BITMAP
0000
0000
0000
0000
4100
4100
4100
2200
2200
1400
1400
0800
0800
0000
0000
0000
0000
0000
ENDCHAR

STARTCHAR w
ENCODING 119
SWIDTH 500 0
DWIDTH 9 0
BBX 9 18 0 -5
BITMAP
0000
0000
0000
0000
4100
4100
4100
4900
4900
5500
5500
2200
2200
0000
0000
0000
0000
0000
ENDCHAR

STARTCHAR x
ENCODING 120
SWIDTH 500 0
DWIDTH 9 0
BBX 9 18 0 -5
BITMAP
0000
0000
0000
0000
4100
4100
2200
1400
0800
1400
2200
4100
4100
0000
0000
0000
0000
0000
ENDCHAR

STARTCHAR y
ENCODING 121
SWIDTH 500 0
DWIDTH 9 0
BBX 9 18 0 -5
BITMAP
0000
0000
0000
0000
4100
4100
4100
4100
4100
4100
4100
2300
1D00
0100
0100
4200
3C00
0000
ENDCHAR

STARTCHAR z
ENCODING 122
SWIDTH 500 0
DWIDTH 9 0
BBX 9 18 0 -5
BITMAP
0000
0000
0000
0000
7F00
0100
0200
0400
0800
1000
2000
4000
7F00
0000
0000
0000
0000
0000
ENDCHAR

STARTCHAR braceleft
ENCODING 123
SWIDTH 500 0
DWIDTH 9 0
BBX 9 18 0 -5
BITMAP
0700
0800
0800
0800
0800
0800
0800
0800
3000
0800
0800
0800
0800
0800
0800
0800
0700
0000
ENDCHAR

STARTCHAR bar
ENCODING 124
SWIDTH 500 0
DWIDTH 9 0
BBX 9 18 0 -5
BITMAP
0800
0800
0800
0800
0800
0800
0800
0800
0800
0800
0800
0800
0800
0800
0800
0800
0800
0000
ENDCHAR

STARTCHAR braceright
ENCODING 125
SWIDTH 500 0
DWIDTH 9 0
BBX 9 18 0 -5
BITMAP
7000
0800
0800
0800
0800
0800
0800
0800
0600
0800
0800
0800
0800
0800
0800
0800
7000
0000
ENDCHAR

STARTCHAR asciitilde
ENCODING 126
SWIDTH 500 0
DWIDTH 9 0
BBX 9 18 0 -5
BITMAP
0000
0000
0000
0000
0000
0000
3100
4900
4600
0000
0000
0000
0000
0000
0000
0000
0000
0000
ENDCHAR

STARTCHAR exclamdown
ENCODING 161
SWIDTH 500 0
DWIDTH 9 0
BBX 9 18 0 -5
BITMAP
0000
0000
0000
0000
0800
0800
0000
0000
0800
0800
0800
0800
0800
0800
0800
0800
0000
0000
ENDCHAR

STARTCHAR cent
ENCODING 162
SWIDTH 500 0
DWIDTH 9 0
BBX 9 18 0 -5
BITMAP
0000
0800
0800
1C00
2200
4100
4000
4000
4100
2200
1C00
0800
0800
0000
0000
0000
0000
0000
ENDCHAR

STARTCHAR sterling
ENCODING 163
SWIDTH 500 0
DWIDTH 9 0
BBX 9 18 0 -5
BITMAP
0000
3C00
4200
4000
4000
4000
2000
F800
2000
2000
4000
4100
BE00
0000
0000
0000
0000
0000
ENDCHAR

STARTCHAR currency
ENCODING 164
SWIDTH 500 0
DWIDTH 9 0
BBX 9 18 0 -5
BITMAP
0000
0000
5A00
2400
4200
4200
2400
5A00
0000
0000
0000
0000
0000
0000
0000
0000
0000
0000
ENDCHAR

STARTCHAR yen
ENCODING 165
SWIDTH 500 0
DWIDTH 9 0
BBX 9 18 0 -5
BITMAP
0000
4100
4100
2200
2200
1400
1400
7F00
0800
7F00
0800
0800
1C00
0000
0000
0000
0000
0000
ENDCHAR

STARTCHAR brokenbar
ENCODING 166
SWIDTH 500 0
DWIDTH 9 0
BBX 9 18 0 -5
BITMAP
0800
0800
0800
0800
0800
0800
0800
0000
0000
0000
0800
0800
0800
0800
0800
0800
0800
0000
ENDCHAR

STARTCHAR section
ENCODING 167
SWIDTH 500 0
DWIDTH 9 0
BBX 9 18 0 -5
BITMAP
0000
3C00
4200
4100
4000
3800
4400
4200
4100
2100
1100
0E00
0100
4100
2100
1E00
0000
0000
ENDCHAR

STARTCHAR dieresis
ENCODING 168
SWIDTH 500 0
DWIDTH 9 0
BBX 9 18 0 -5
BITMAP
0000
3600
0000
0000
0000
0000
0000
0000
0000
0000
0000
0000
0000
0000
0000
0000
0000
0000
ENDCHAR

STARTCHAR copyright
ENCODING 169
SWIDTH 500 0
DWIDTH 9 0
BBX 9 18 0 -5
BITMAP
0000
0000
0000
3C00
4200
9900
A500
A100
A100
A500
9900
4200
3C00
0000
0000
0000
0000
0000
ENDCHAR

STARTCHAR ordfeminine
ENCODING 170
SWIDTH 500 0
DWIDTH 9 0
BBX 9 18 0 -5
BITMAP
0000
1C00
0200
1E00
2200
2200
1D00
0000
3F00
0000
0000
0000
0000
0000
0000
0000
0000
0000
ENDCHAR

STARTCHAR guillemotleft
ENCODING 171
SWIDTH 500 0
DWIDTH 9 0
BBX 9 18 0 -5
BITMAP
0000
0000
0000
0000
0900
1200
2400
4800
9000
4800
2400
1200
0900
0000
0000
0000
0000
0000
ENDCHAR

STARTCHAR logicalnot
ENCODING 172
SWIDTH 500 0
DWIDTH 9 0
BBX 9 18 0 -5
BITMAP
0000
0000
0000
0000
0000
0000
0000
7F00
0100
0100
0000
0000
0000
0000
0000
0000
0000
0000
ENDCHAR

STARTCHAR hyphen
ENCODING 173
SWIDTH 500 0
DWIDTH 9 0
BBX 9 18 0 -5
BITMAP
0000
0000
0000
0000
0000
0000
0000
7E00
0000
0000
0000
0000
0000
0000
0000
0000
0000
0000
ENDCHAR

STARTCHAR registered
ENCODING 174
SWIDTH 500 0
DWIDTH 9 0
BBX 9 18 0 -5
BITMAP
0000
0000
0000
3C00
4200
B900
A500
A500
B900
A500
A500
4200
3C00
0000
0000
0000
0000
0000
ENDCHAR

STARTCHAR macron
ENCODING 175
SWIDTH 500 0
DWIDTH 9 0
BBX 9 18 0 -5
BITMAP
0000
3E00
0000
0000
0000
0000
0000
0000
0000
0000
0000
0000
0000
0000
0000
0000
0000
0000
ENDCHAR

STARTCHAR degree
ENCODING 176
SWIDTH 500 0
DWIDTH 9 0
BBX 9 18 0 -5
BITMAP
0000
0000
0000
1C00
2200
2200
2200
1C00
0000
0000
0000
0000
0000
0000
0000
0000
0000
0000
ENDCHAR

STARTCHAR plusminus
ENCODING 177
SWIDTH 500 0
DWIDTH 9 0
BBX 9 18 0 -5
BITMAP
0000
0000
0000
0000
0800
0800
0800
7F00
0800
0800
0800
0000
7F00
0000
0000
0000
0000
0000
ENDCHAR

STARTCHAR twosuperior
ENCODING 178
SWIDTH 500 0
DWIDTH 9 0
BBX 9 18 0 -5
BITMAP
0000
1C00
2200
0200
0C00
1000
2000
3E00
0000
0000
0000
0000
0000
0000
0000
0000
0000
0000
ENDCHAR

STARTCHAR threesuperior
ENCODING 179
SWIDTH 500 0
DWIDTH 9 0
BBX 9 18 0 -5
BITMAP
0000
1C00
2200
0200
0C00
0200
2200
1C00
0000
0000
0000
0000
0000
0000
0000
0000
0000
0000
ENDCHAR

STARTCHAR acute
ENCODING 180
SWIDTH 500 0
DWIDTH 9 0
BBX 9 18 0 -5
BITMAP
0000
0800
1000
0000
0000
0000
0000
0000
0000
0000
0000
0000
0000
0000
0000
0000
0000
0000
ENDCHAR

STARTCHAR mu
ENCODING 181
SWIDTH 500 0
DWIDTH 9 0
BBX 9 18 0 -5
BITMAP
0000
0000
0000
0000
4200
4200
4200
4200
4200
4200
4200
6600
5900
4000
4000
4000
0000
0000
ENDCHAR

STARTCHAR paragraph
ENCODING 182
SWIDTH 500 0
DWIDTH 9 0
BBX 9 18 0 -5
BITMAP
0000
3F80
5100
9100
9100
9100
5100
3100
1100
1100
1100
1100
1100
1100
1100
0000
0000
0000
ENDCHAR

STARTCHAR periodcentered
ENCODING 183
SWIDTH 500 0
DWIDTH 9 0
BBX 9 18 0 -5
BITMAP
0000
0000
0000
0000
0000
0000
0000
1800
1800
0000
0000
0000
0000
0000
0000
0000
0000
0000
ENDCHAR

STARTCHAR cedilla
ENCODING 184
SWIDTH 500 0
DWIDTH 9 0
BBX 9 18 0 -5
BITMAP
0000
0000
0000
0000
0000
0000
0000
0000
0000
0000
0000
0000
0000
0800
0C00
0200
1C00
0000
ENDCHAR

STARTCHAR onesuperior
ENCODING 185
SWIDTH 500 0
DWIDTH 9 0
BBX 9 18 0 -5
BITMAP
0000
0800
1800
0800
0800
0800
0800
1C00
0000
0000
0000
0000
0000
0000
0000
0000
0000
0000
ENDCHAR

STARTCHAR ordmasculine
ENCODING 186
SWIDTH 500 0
DWIDTH 9 0
BBX 9 18 0 -5
BITMAP
0000
1E00
2100
2100
2100
2100
1E00
0000
3F00
0000
0000
0000
0000
0000
0000
0000
0000
0000
ENDCHAR

STARTCHAR guillemotright
ENCODING 187
SWIDTH 500 0
DWIDTH 9 0
BBX 9 18 0 -5
BITMAP
0000
0000
0000
0000
9000
4800
2400
1200
0900
1200
2400
4800
9000
0000
0000
0000
0000
0000
ENDCHAR

STARTCHAR onequarter
ENCODING 188
SWIDTH 500 0
DWIDTH 9 0
BBX 9 18 0 -5
BITMAP
0000
2000
6000
2000
2000
2100
2200
7500
0B00
1500
2900
5100
1F80
0100
0100
0000
0000
0000
ENDCHAR

STARTCHAR onehalf
ENCODING 189
SWIDTH 500 0
DWIDTH 9 0
BBX 9 18 0 -5
BITMAP
0000
2000
6000
2000
2000
2100
2200
7400
0800
1000
2E00
5100
0100
0600
0800
1000
1F00
0000
ENDCHAR

STARTCHAR threequarters
ENCODING 190
SWIDTH 500 0
DWIDTH 9 0
BBX 9 18 0 -5
BITMAP
0000
3800
4400
0400
1800
0500
4600
3D00
0B00
1500
2900
5100
1F80
0100
0100
0000
0000
0000
ENDCHAR

STARTCHAR questiondown
ENCODING 191
SWIDTH 500 0
DWIDTH 9 0
BBX 9 18 0 -5
BITMAP
0000
0000
0000
0000
0800
0800
0000
0800
0800
0800
1000
2000
4000
4100
4100
2200
1C00
0000
ENDCHAR

STARTCHAR Agrave
ENCODING 192
SWIDTH 500 0
DWIDTH 9 0
BBX 9 18 0 -5
BITMAP
1000
0800
0000
0800
0800
1400
1400
2200
2200
3E00
4100
4100
4100
0000
0000
0000
0000
0000
ENDCHAR

STARTCHAR Aacute
ENCODING 193
SWIDTH 500 0
DWIDTH 9 0
BBX 9 18 0 -5
BITMAP
0400
0800
0000
0800
0800
1400
1400
2200
2200
3E00
4100
4100
4100
0000
0000
0000
0000
0000
ENDCHAR

STARTCHAR Acircumflex
ENCODING 194
SWIDTH 500 0
DWIDTH 9 0
BBX 9 18 0 -5
BITMAP
0800
1400
0000
0800
0800
1400
1400
2200
2200
3E00
4100
4100
4100
0000
0000
0000
0000
0000
ENDCHAR

STARTCHAR Atilde
ENCODING 195
SWIDTH 500 0
DWIDTH 9 0
BBX 9 18 0 -5
BITMAP
1900
2600
0000
0800
0800
1400
1400
2200
2200
3E00
4100
4100
4100
0000
0000
0000
0000
0000
ENDCHAR

STARTCHAR Adieresis
ENCODING 196
SWIDTH 500 0
DWIDTH 9 0
BBX 9 18 0 -5
BITMAP
0000
3600
0000
0800
0800
1400
1400
2200
2200
3E00
4100
4100
4100
0000
0000
0000
0000
0000
ENDCHAR

STARTCHAR Aring
ENCODING 197
SWIDTH 500 0
DWIDTH 9 0
BBX 9 18 0 -5
BITMAP
0800
1400
1400
0800
0800
1400
1400
2200
2200
3E00
4100
4100
4100
0000
0000
0000
0000
0000
ENDCHAR

STARTCHAR AE
ENCODING 198
SWIDTH 500 0
DWIDTH 9 0
BBX 9 18 0 -5
BITMAP
0000
0F00
1800
1800
2800
2800
2E00
4800
4800
7800
8800
8800
8F00
0000
0000
0000
0000
0000
ENDCHAR

STARTCHAR Ccedilla
ENCODING 199
SWIDTH 500 0
DWIDTH 9 0
BBX 9 18 0 -5
BITMAP
0000
1C00
2200
4100
4000
4000
4000
4000
4000
4000
4100
2200
1C00
0800
0C00
0200
1C00
0000
ENDCHAR

STARTCHAR Egrave
ENCODING 200
SWIDTH 500 0
DWIDTH 9 0
BBX 9 18 0 -5
BITMAP
1000
0800
0000
7F00
4000
4000
4000
7E00
4000
4000
4000
4000
7F00
0000
0000
0000
0000
0000
ENDCHAR

STARTCHAR Eacute
ENCODING 201
SWIDTH 500 0
DWIDTH 9 0
BBX 9 18 0 -5
BITMAP
0400
0800
0000
7F00
4000
4000
4000
7E00
4000
4000
4000
4000
7F00
0000
0000
0000
0000
0000
ENDCHAR

STARTCHAR Ecircumflex
ENCODING 202
SWIDTH 500 0
DWIDTH 9 0
BBX 9 18 0 -5
BITMAP
0800
1400
0000
7F00
4000
4000
4000
7E00
4000
4000
4000
4000
7F00
0000
0000
0000
0000
0000
ENDCHAR

STARTCHAR Edieresis
ENCODING 203
SWIDTH 500 0
DWIDTH 9 0
BBX 9 18 0 -5
BITMAP
0000
3600
0000
7F00
4000
4000
4000
7E00
4000
4000
4000
4000
7F00
0000
0000
0000
0000
0000
ENDCHAR

STARTCHAR Igrave
ENCODING 204
SWIDTH 500 0
DWIDTH 9 0
BBX 9 18 0 -5
BITMAP
2000
1000
0000
1C00
0800
0800
0800
0800
0800
0800
0800
0800
1C00
0000
0000
0000
0000
0000
ENDCHAR

STARTCHAR Iacute
ENCODING 205
SWIDTH 500 0
DWIDTH 9 0
BBX 9 18 0 -5
BITMAP
0400
0800
0000
1C00
0800
0800
0800
0800
0800
0800
0800
0800
1C00
0000
0000
0000
0000
0000
ENDCHAR

STARTCHAR Icircumflex
ENCODING 206
SWIDTH 500 0
DWIDTH 9 0
BBX 9 18 0 -5
BITMAP
0800
1400
0000
1C00
0800
0800
0800
0800
0800
0800
0800
0800
1C00
0000
0000
0000
0000
0000
ENDCHAR

STARTCHAR Idieresis
ENCODING 207
SWIDTH 500 0
DWIDTH 9 0
BBX 9 18 0 -5
BITMAP
0000
3600
0000
1C00
0800
0800
0800
0800
0800
0800
0800
0800
1C00
0000
0000
0000
0000
0000
ENDCHAR

STARTCHAR Eth
ENCODING 208
SWIDTH 500 0
DWIDTH 9 0
BBX 9 18 0 -5
BITMAP
0000
7C00
4200
4100
4100
4100
F100
4100
4100
4100
4100
4200
7C00
0000
0000
0000
0000
0000
ENDCHAR

STARTCHAR Ntilde
ENCODING 209
SWIDTH 500 0
DWIDTH 9 0
BBX 9 18 0 -5
BITMAP
1900
2600
0000
4100
6100
6100
5100
5100
4900
4500
4500
4300
4100
0000
0000
0000
0000
0000
ENDCHAR

STARTCHAR Ograve
ENCODING 210
SWIDTH 500 0
DWIDTH 9 0
BBX 9 18 0 -5
BITMAP
1000
0800
0000
1C00
2200
4100
4100
4100
4100
4100
4100
2200
1C00
0000
0000
0000
0000
0000
ENDCHAR

STARTCHAR Oacute
ENCODING 211
SWIDTH 500 0
DWIDTH 9 0
BBX 9 18 0 -5
BITMAP
0400
0800
0000
1C00
2200
4100
4100
4100
4100
4100
4100
2200
1C00
0000
0000
0000
0000
0000
ENDCHAR

STARTCHAR Ocircumflex
ENCODING 212
SWIDTH 500 0
DWIDTH 9 0
BBX 9 18 0 -5
BITMAP
0800
1400
0000
1C00
2200
4100
4100
4100
4100
4100
4100
2200
1C00
0000
0000
0000
0000
0000
ENDCHAR

STARTCHAR Otilde
ENCODING 213
SWIDTH 500 0
DWIDTH 9 0
BBX 9 18 0 -5
BITMAP
1900
2600
0000
1C00
2200
4100
4100
4100
4100
4100
4100
2200
1C00
0000
0000
0000
0000
0000
ENDCHAR

STARTCHAR Odieresis
ENCODING 214
SWIDTH 500 0
DWIDTH 9 0
BBX 9 18 0 -5
BITMAP
0000
3600
0000
1C00
2200
4100
4100
4100
4100
4100
4100
2200
1C00
0000
0000
0000
0000
0000
ENDCHAR

STARTCHAR multiply
ENCODING 215
SWIDTH 500 0
DWIDTH 9 0
BBX 9 18 0 -5
BITMAP
0000
0000
0000
0000
8100
4200
2400
1800
1800
2400
4200
8100
0000
0000
0000
0000
0000
0000
ENDCHAR

STARTCHAR Oslash
ENCODING 216
SWIDTH 500 0
DWIDTH 9 0
BBX 9 18 0 -5
BITMAP
0000
1D00
2200
4300
4500
4500
4900
4900
5100
5100
6100
2200
5C00
0000
0000
0000
0000
0000
ENDCHAR

STARTCHAR Ugrave
ENCODING 217
SWIDTH 500 0
DWIDTH 9 0
BBX 9 18 0 -5
BITMAP
1000
0800
0000
4100
4100
4100
4100
4100
4100
4100
4100
2200
1C00
0000
0000
0000
0000
0000
ENDCHAR

STARTCHAR Uacute
ENCODING 218
SWIDTH 500 0
DWIDTH 9 0
BBX 9 18 0 -5
BITMAP
0400
0800
0000
4100
4100
4100
4100
4100
4100
4100
4100
2200
1C00
0000
0000
0000
0000
0000
ENDCHAR

STARTCHAR Ucircumflex
ENCODING 219
SWIDTH 500 0
DWIDTH 9 0
BBX 9 18 0 -5
BITMAP
0800
1400
0000
4100
4100
4100
4100
4100
4100
4100
4100
2200
1C00
0000
0000
0000
0000
0000
ENDCHAR

STARTCHAR Udieresis
ENCODING 220
SWIDTH 500 0
DWIDTH 9 0
BBX 9 18 0 -5
BITMAP
0000
3600
0000
4100
4100
4100
4100
4100
4100
4100
4100
2200
1C00
0000
0000
0000
0000
0000
ENDCHAR

STARTCHAR Yacute
ENCODING 221
SWIDTH 500 0
DWIDTH 9 0
BBX 9 18 0 -5
BITMAP
0400
0800
0000
4100
4100
2200
2200
1400
0800
0800
0800
0800
0800
0000
0000
0000
0000
0000
ENDCHAR

STARTCHAR Thorn
ENCODING 222
SWIDTH 500 0
DWIDTH 9 0
BBX 9 18 0 -5
BITMAP
0000
E000
4000
4000
7C00
4200
4100
4100
4200
7C00
4000
4000
E000
0000
0000
0000
0000
0000
ENDCHAR

STARTCHAR germandbls
ENCODING 223
SWIDTH 500 0
DWIDTH 9 0
BBX 9 18 0 -5
BITMAP
0000
1800
2400
4200
4200
4400
4800
4600
4100
4100
4100
5200
4C00
0000
0000
0000
0000
0000
ENDCHAR

STARTCHAR agrave
ENCODING 224
SWIDTH 500 0
DWIDTH 9 0
BBX 9 18 0 -5
BITMAP
0000
1000
0800
0000
3C00
4200
0200
1E00
2200
4200
4200
4600
3900
0000
0000
0000
0000
0000
ENDCHAR

STARTCHAR aacute
ENCODING 225
SWIDTH 500 0
DWIDTH 9 0
BBX 9 18 0 -5
BITMAP
0000
0400
0800
0000
3C00
4200
0200
1E00
2200
4200
4200
4600
3900
0000
0000
0000
0000
0000
ENDCHAR

STARTCHAR acircumflex
ENCODING 226
SWIDTH 500 0
DWIDTH 9 0
BBX 9 18 0 -5
BITMAP
0000
0800
1400
0000
3C00
4200
0200
1E00
2200
4200
4200
4600
3900
0000
0000
0000
0000
0000
ENDCHAR

STARTCHAR atilde
ENCODING 227
SWIDTH 500 0
DWIDTH 9 0
BBX 9 18 0 -5
BITMAP
0000
3200
4C00
0000
3C00
4200
0200
1E00
2200
4200
4200
4600
3900
0000
0000
0000
0000
0000
ENDCHAR

STARTCHAR adieresis
ENCODING 228
SWIDTH 500 0
DWIDTH 9 0
BBX 9 18 0 -5
BITMAP
0000
0000
3600
0000
3C00
4200
0200
1E00
2200
4200
4200
4600
3900
0000
0000
0000
0000
0000
ENDCHAR

STARTCHAR aring
ENCODING 229
SWIDTH 500 0
DWIDTH 9 0
BBX 9 18 0 -5
BITMAP
0800
1400
1400
0800
3C00
4200
0200
1E00
2200
4200
4200
4600
3900
0000
0000
0000
0000
0000
ENDCHAR

STARTCHAR ae
ENCODING 230
SWIDTH 500 0
DWIDTH 9 0
BBX 9 18 0 -5
BITMAP
0000
0000
0000
0000
7700
8880
0880
3F80
4800
8800
8800
8880
7700
0000
0000
0000
0000
0000
ENDCHAR

STARTCHAR ccedilla
ENCODING 231
SWIDTH 500 0
DWIDTH 9 0
BBX 9 18 0 -5
BITMAP
0000
0000
0000
0000
1C00
2200
4100
4000
4000
4000
4100
2200
1C00
0800
0C00
0200
1C00
0000
ENDCHAR

STARTCHAR egrave
ENCODING 232
SWIDTH 500 0
DWIDTH 9 0
BBX 9 18 0 -5
BITMAP
0000
1000
0800
0000
1C00
2200
4100
4100
7F00
4000
4000
2100
1E00
0000
0000
0000
0000
0000
ENDCHAR

STARTCHAR eacute
ENCODING 233
SWIDTH 500 0
DWIDTH 9 0
BBX 9 18 0 -5
BITMAP
0000
0400
0800
0000
1C00
2200
4100
4100
7F00
4000
4000
2100
1E00
0000
0000
0000
0000
0000
ENDCHAR

STARTCHAR ecircumflex
ENCODING 234
SWIDTH 500 0
DWIDTH 9 0
BBX 9 18 0 -5
BITMAP
0000
0800
1400
0000
1C00
2200
4100
4100
7F00
4000
4000
2100
1E00
0000
0000
0000
0000
0000
ENDCHAR

STARTCHAR edieresis
ENCODING 235
SWIDTH 500 0
DWIDTH 9 0
BBX 9 18 0 -5
BITMAP
0000
0000
3600
0000
1C00
2200
4100
4100
7F00
4000
4000
2100
1E00
0000
0000
0000
0000
0000
ENDCHAR

STARTCHAR igrave
ENCODING 236
SWIDTH 500 0
DWIDTH 9 0
BBX 9 18 0 -5
BITMAP
0000
1000
0800
0000
1C00
0400
0400
0400
0400
0400
0400
0400
0400
0000
0000
0000
0000
0000
ENDCHAR

STARTCHAR iacute
ENCODING 237
SWIDTH 500 0
DWIDTH 9 0
BBX 9 18 0 -5
BITMAP
0000
0400
0800
0000
1C00
0400
0400
0400
0400
0400
0400
0400
0400
0000
0000
0000
0000
0000
ENDCHAR

STARTCHAR icircumflex
ENCODING 238
SWIDTH 500 0
DWIDTH 9 0
BBX 9 18 0 -5
BITMAP
0000
0800
1400
0000
1C00
0400
0400
0400
0400
0400
0400
0400
0400
0000
0000
0000
0000
0000
ENDCHAR

STARTCHAR idieresis
ENCODING 239
SWIDTH 500 0
DWIDTH 9 0
BBX 9 18 0 -5
BITMAP
0000
0000
1B00
0000
1C00
0400
0400
0400
0400
0400
0400
0400
0400
0000
0000
0000
0000
0000
ENDCHAR

STARTCHAR eth
ENCODING 240
SWIDTH 500 0
DWIDTH 9 0
BBX 9 18 0 -5
BITMAP
0000
3D80
0200
0D00
0100
1D00
2300
4100
4100
4100
4100
2200
1C00
0000
0000
0000
0000
0000
ENDCHAR

STARTCHAR ntilde
ENCODING 241
SWIDTH 500 0
DWIDTH 9 0
BBX 9 18 0 -5
BITMAP
0000
3200
4C00
0000
5C00
6200
4100
4100
4100
4100
4100
4100
4100
0000
0000
0000
0000
0000
ENDCHAR

STARTCHAR ograve
ENCODING 242
SWIDTH 500 0
DWIDTH 9 0
BBX 9 18 0 -5
BITMAP
0000
1000
0800
0000
1C00
2200
4100
4100
4100
4100
4100
2200
1C00
0000
0000
0000
0000
0000
ENDCHAR

STARTCHAR oacute
ENCODING 243
SWIDTH 500 0
DWIDTH 9 0
BBX 9 18 0 -5
BITMAP
0000
0400
0800
0000
1C00
2200
4100
4100
4100
4100
4100
2200
1C00
0000
0000
0000
0000
0000
ENDCHAR

STARTCHAR ocircumflex
ENCODING 244
SWIDTH 500 0
DWIDTH 9 0
BBX 9 18 0 -5
BITMAP
0000
0800
1400
0000
1C00
2200
4100
4100
4100
4100
4100
2200
1C00
0000
0000
0000
0000
0000
ENDCHAR

STARTCHAR otilde
ENCODING 245
SWIDTH 500 0
DWIDTH 9 0
BBX 9 18 0 -5
BITMAP
0000
1900
2600
0000
1C00
2200
4100
4100
4100
4100
4100
2200
1C00
0000
0000
0000
0000
0000
ENDCHAR

STARTCHAR odieresis
ENCODING 246
SWIDTH 500 0
DWIDTH 9 0
BBX 9 18 0 -5
BITMAP
0000
0000
3600
0000
1C00
2200
4100
4100
4100
4100
4100
2200
1C00
0000
0000
0000
0000
0000
ENDCHAR

STARTCHAR divide
ENCODING 247
SWIDTH 500 0
DWIDTH 9 0
BBX 9 18 0 -5
BITMAP
0000
0000
0000
1800
0000
0000
0000
FF00
0000
0000
0000
1800
0000
0000
0000
0000
0000
0000
ENDCHAR

STARTCHAR oslash
ENCODING 248
SWIDTH 500 0
DWIDTH 9 0
BBX 9 18 0 -5
BITMAP
0000
0000
0000
0000
1D00
2200
4300
4500
4900
5100
6100
2200
5C00
0000
0000
0000
0000
0000
ENDCHAR

STARTCHAR ugrave
ENCODING 249
SWIDTH 500 0
DWIDTH 9 0
BBX 9 18 0 -5
BITMAP
0000
1000
0800
0000
4100
4100
4100
4100
4100
4100
4100
2300
1D00
0000
0000
0000
0000
0000
ENDCHAR

STARTCHAR uacute
ENCODING 250
SWIDTH 500 0
DWIDTH 9 0
BBX 9 18 0 -5
BITMAP
0000
0400
0800
0000
4100
4100
4100
4100
4100
4100
4100
2300
1D00
0000
0000
0000
0000
0000
ENDCHAR

STARTCHAR ucircumflex
ENCODING 251
SWIDTH 500 0
DWIDTH 9 0
BBX 9 18 0 -5
BITMAP
0000
0800
1400
0000
4100
4100
4100
4100
4100
4100
4100
2300
1D00
0000
0000
0000
0000
0000
ENDCHAR

STARTCHAR udieresis
ENCODING 252
SWIDTH 500 0
DWIDTH 9 0
BBX 9 18 0 -5
BITMAP
0000
0000
3600
0000
4100
4100
4100
4100
4100
4100
4100
2300
1D00
0000
0000
0000
0000
0000
ENDCHAR

STARTCHAR yacute
ENCODING 253
SWIDTH 500 0
DWIDTH 9 0
BBX 9 18 0 -5
BITMAP
0000
0400
0800
0000
4100
4100
4100
4100
4100
4100
4100
2300
1D00
0100
0100
4200
3C00
0000
ENDCHAR

STARTCHAR thorn
ENCODING 254
SWIDTH 500 0
DWIDTH 9 0
BBX 9 18 0 -5
BITMAP
0000
C000
4000
4000
5C00
6200
4100
4100
4100
4100
4100
6200
5C00
4000
4000
4000
E000
0000
ENDCHAR

STARTCHAR ydieresis
ENCODING 255
SWIDTH 500 0
DWIDTH 9 0
BBX 9 18 0 -5
BITMAP
0000
0000
3600
0000
4100
4100
4100
4100
4100
4100
4100
2300
1D00
0100
0100
4200
3C00
0000
ENDCHAR

ENDFONT
