STARTFONT 2.1
FONT -Bitstream-Terminal-Medium-R-Wide--18-140-100-100-C-140-ISO8859-1
SIZE 14 100 100
FONTBOUNDINGBOX 14 19 0 -4

STARTPROPERTIES 25
CHARSET_REGISTRY "ISO8859"
CHARSET_ENCODING "1"
CAP_HEIGHT 11
X_HEIGHT 9
AVERAGE_WIDTH 140
FONTNAME_REGISTRY ""
FAMILY_NAME "Terminal"
FOUNDRY "Bitstream"
WEIGHT_NAME "Medium"
SETWIDTH_NAME "Wide"
SLANT "R"
ADD_STYLE_NAME ""
PIXEL_SIZE 18
POINT_SIZE 140
RESOLUTION_X 100
RESOLUTION_Y 100
SPACING "C"
CHARSET_COLLECTIONS "ASCII ISO8859-1"
FULL_NAME "Terminal Wide"
COPYRIGHT "Copyright (c) 1988 Bitstream, Inc., Copyright 1990 Digital Equipment Corp. All rights reserved."
WEIGHT 10
QUAD_WIDTH 14
DEFAULT_CHAR 159
FONT_DESCENT 5
FONT_ASCENT 15
ENDPROPERTIES

CHARS 194

STARTCHAR space
ENCODING 32
SWIDTH 720 0
DWIDTH 14 0
BBX 1 1 0 0
BITMAP
00
ENDCHAR

STARTCHAR exclam
ENCODING 33
SWIDTH 720 0
DWIDTH 14 0
BBX 6 11 4 0
BITMAP
30
30
30
30
30
30
30
00
30
FC
30
ENDCHAR

STARTCHAR quotedbl
ENCODING 34
SWIDTH 720 0
DWIDTH 14 0
BBX 6 4 4 7
BITMAP
CC
CC
CC
CC
ENDCHAR

STARTCHAR numbersign
ENCODING 35
SWIDTH 720 0
DWIDTH 14 0
BBX 12 12 1 -1
BITMAP
1980
1980
1980
1980
FFF0
1980
1980
FFF0
1980
1980
1980
1980
ENDCHAR

STARTCHAR dollar
ENCODING 36
SWIDTH 720 0
DWIDTH 14 0
BBX 10 15 2 -3
BITMAP
0C00
0C00
7EC0
E1C0
C0C0
E000
7C00
0780
00C0
C0C0
E1C0
DF80
0C00
0C00
0C00
ENDCHAR

STARTCHAR percent
ENCODING 37
SWIDTH 720 0
DWIDTH 14 0
BBX 12 13 1 -1
BITMAP
7C00
C600
C600
C600
7C60
01C0
0F00
3800
63E0
0630
0630
0630
03E0
ENDCHAR

STARTCHAR ampersand
ENCODING 38
SWIDTH 720 0
DWIDTH 14 0
BBX 10 11 2 0
BITMAP
1F00
3300
3000
3000
1800
78C0
CC80
C780
C300
E780
7CC0
ENDCHAR

STARTCHAR quoteright
ENCODING 39
SWIDTH 720 0
DWIDTH 14 0
BBX 5 4 4 7
BITMAP
38
70
60
C0
ENDCHAR

STARTCHAR parenleft
ENCODING 40
SWIDTH 720 0
DWIDTH 14 0
BBX 6 16 4 -3
BITMAP
0C
18
30
60
60
C0
C0
C0
C0
C0
C0
60
60
30
18
0C
ENDCHAR

STARTCHAR parenright
ENCODING 41
SWIDTH 720 0
DWIDTH 14 0
BBX 6 16 4 -3
BITMAP
C0
60
30
18
18
0C
0C
0C
0C
0C
0C
18
18
30
60
C0
ENDCHAR

STARTCHAR asterisk
ENCODING 42
SWIDTH 720 0
DWIDTH 14 0
BBX 10 6 2 3
BITMAP
0C00
CCC0
3F00
0C00
3300
C0C0
ENDCHAR

STARTCHAR plus
ENCODING 43
SWIDTH 720 0
DWIDTH 14 0
BBX 10 7 2 2
BITMAP
0C00
0C00
0C00
FFC0
0C00
0C00
0C00
ENDCHAR

STARTCHAR comma
ENCODING 44
SWIDTH 720 0
DWIDTH 14 0
BBX 7 4 3 -2
BITMAP
1E
38
70
C0
ENDCHAR

STARTCHAR minus
ENCODING 45
SWIDTH 720 0
DWIDTH 14 0
BBX 10 1 2 5
BITMAP
FFC0
ENDCHAR

STARTCHAR period
ENCODING 46
SWIDTH 720 0
DWIDTH 14 0
BBX 6 3 4 0
BITMAP
30
FC
30
ENDCHAR

STARTCHAR slash
ENCODING 47
SWIDTH 720 0
DWIDTH 14 0
BBX 7 13 4 -1
BITMAP
06
06
0C
0C
18
18
18
30
30
60
60
C0
C0
ENDCHAR

STARTCHAR zero
ENCODING 48
SWIDTH 720 0
DWIDTH 14 0
BBX 8 11 3 0
BITMAP
3C
66
42
C3
C3
C3
C3
C3
42
66
3C
ENDCHAR

STARTCHAR one
ENCODING 49
SWIDTH 720 0
DWIDTH 14 0
BBX 8 11 3 0
BITMAP
18
38
58
98
18
18
18
18
18
18
FF
ENDCHAR

STARTCHAR two
ENCODING 50
SWIDTH 720 0
DWIDTH 14 0
BBX 9 11 2 0
BITMAP
7E00
C300
C180
0180
0300
0600
0C00
1800
3000
6180
FF80
ENDCHAR

STARTCHAR three
ENCODING 51
SWIDTH 720 0
DWIDTH 14 0
BBX 9 11 2 0
BITMAP
3E00
C300
0180
0180
0300
1E00
0300
0180
0180
C300
3E00
ENDCHAR

STARTCHAR four
ENCODING 52
SWIDTH 720 0
DWIDTH 14 0
BBX 10 11 2 0
BITMAP
0700
0F00
1B00
3300
3300
6300
C300
FFC0
0300
0300
1FC0
ENDCHAR

STARTCHAR five
ENCODING 53
SWIDTH 720 0
DWIDTH 14 0
BBX 9 11 3 0
BITMAP
FF80
C000
C000
C000
FE00
C300
0180
0180
0180
C300
3E00
ENDCHAR

STARTCHAR six
ENCODING 54
SWIDTH 720 0
DWIDTH 14 0
BBX 9 11 3 0
BITMAP
0E00
3000
6000
4000
DE00
E300
C180
C180
C180
6300
3E00
ENDCHAR

STARTCHAR seven
ENCODING 55
SWIDTH 720 0
DWIDTH 14 0
BBX 9 11 3 0
BITMAP
FF80
C180
0300
0300
0600
0C00
0C00
1800
3000
3000
6000
ENDCHAR

STARTCHAR eight
ENCODING 56
SWIDTH 720 0
DWIDTH 14 0
BBX 9 11 3 0
BITMAP
3E00
6300
C180
C180
6300
3E00
6300
C180
C180
6300
3E00
ENDCHAR

STARTCHAR nine
ENCODING 57
SWIDTH 720 0
DWIDTH 14 0
BBX 9 11 2 0
BITMAP
3E00
6300
C180
C180
C180
6380
3D80
0100
0300
0600
7800
ENDCHAR

STARTCHAR colon
ENCODING 58
SWIDTH 720 0
DWIDTH 14 0
BBX 6 8 4 0
BITMAP
30
FC
30
00
00
30
FC
30
ENDCHAR

STARTCHAR semicolon
ENCODING 59
SWIDTH 720 0
DWIDTH 14 0
BBX 7 10 3 -2
BITMAP
18
7E
18
00
00
00
1E
38
70
C0
ENDCHAR

STARTCHAR less
ENCODING 60
SWIDTH 720 0
DWIDTH 14 0
BBX 10 9 2 1
BITMAP
00C0
0300
0C00
3000
C000
3000
0C00
0300
00C0
ENDCHAR

STARTCHAR equal
ENCODING 61
SWIDTH 720 0
DWIDTH 14 0
BBX 10 4 2 4
BITMAP
FFC0
0000
0000
FFC0
ENDCHAR

STARTCHAR greater
ENCODING 62
SWIDTH 720 0
DWIDTH 14 0
BBX 10 9 2 1
BITMAP
C000
3000
0C00
0300
00C0
0300
0C00
3000
C000
ENDCHAR

STARTCHAR question
ENCODING 63
SWIDTH 720 0
DWIDTH 14 0
BBX 10 11 2 0
BITMAP
3F80
C0C0
C0C0
01C0
0700
0C00
0C00
0000
0C00
3F00
0C00
ENDCHAR

STARTCHAR at
ENCODING 64
SWIDTH 720 0
DWIDTH 14 0
BBX 12 14 1 -2
BITMAP
3F80
60C0
C0C0
C0C0
C7C0
CCC0
CCC0
CCC0
CCC0
C7F0
C000
6000
7030
1FC0
ENDCHAR

STARTCHAR A
ENCODING 65
SWIDTH 720 0
DWIDTH 14 0
BBX 14 11 0 0
BITMAP
0780
0780
0CC0
0CC0
0CC0
1860
1860
1FE0
3030
3030
FCFC
ENDCHAR

STARTCHAR B
ENCODING 66
SWIDTH 720 0
DWIDTH 14 0
BBX 12 11 1 0
BITMAP
FFE0
3030
3030
3030
3030
3FE0
3030
3030
3030
3030
FFE0
ENDCHAR

STARTCHAR C
ENCODING 67
SWIDTH 720 0
DWIDTH 14 0
BBX 10 11 2 0
BITMAP
3EC0
61C0
C0C0
C000
C000
C000
C000
C000
C000
60C0
3F00
ENDCHAR

STARTCHAR D
ENCODING 68
SWIDTH 720 0
DWIDTH 14 0
BBX 12 11 1 0
BITMAP
FFC0
3060
3030
3030
3030
3030
3030
3030
3030
3060
FFC0
ENDCHAR

STARTCHAR E
ENCODING 69
SWIDTH 720 0
DWIDTH 14 0
BBX 12 11 1 0
BITMAP
FFF0
3030
3030
3000
3080
3F80
3080
3000
3030
3030
FFF0
ENDCHAR

STARTCHAR F
ENCODING 70
SWIDTH 720 0
DWIDTH 14 0
BBX 12 11 1 0
BITMAP
FFF0
3030
3030
3000
3080
3F80
3080
3000
3000
3000
FC00
ENDCHAR

STARTCHAR G
ENCODING 71
SWIDTH 720 0
DWIDTH 14 0
BBX 11 11 1 0
BITMAP
3EC0
61C0
C0C0
C000
C000
C000
C3E0
C0C0
C0C0
60C0
3F80
ENDCHAR

STARTCHAR H
ENCODING 72
SWIDTH 720 0
DWIDTH 14 0
BBX 14 11 0 0
BITMAP
FCFC
3030
3030
3030
3030
3FF0
3030
3030
3030
3030
FCFC
ENDCHAR

STARTCHAR I
ENCODING 73
SWIDTH 720 0
DWIDTH 14 0
BBX 10 11 2 0
BITMAP
FFC0
0C00
0C00
0C00
0C00
0C00
0C00
0C00
0C00
0C00
FFC0
ENDCHAR

STARTCHAR J
ENCODING 74
SWIDTH 720 0
DWIDTH 14 0
BBX 12 11 1 0
BITMAP
0FF0
00C0
00C0
00C0
00C0
00C0
C0C0
C0C0
C0C0
E180
3F00
ENDCHAR

STARTCHAR K
ENCODING 75
SWIDTH 720 0
DWIDTH 14 0
BBX 14 11 0 0
BITMAP
FC70
30E0
3180
3300
3700
3D80
38C0
3060
3060
3030
FC3C
ENDCHAR

STARTCHAR L
ENCODING 76
SWIDTH 720 0
DWIDTH 14 0
BBX 12 11 1 0
BITMAP
FC00
3000
3000
3000
3000
3000
3000
3030
3030
3030
FFF0
ENDCHAR

STARTCHAR M
ENCODING 77
SWIDTH 720 0
DWIDTH 14 0
BBX 14 11 0 0
BITMAP
F03C
3030
3870
3870
34B0
34B0
3330
3330
3030
3030
FCFC
ENDCHAR

STARTCHAR N
ENCODING 78
SWIDTH 720 0
DWIDTH 14 0
BBX 14 11 0 0
BITMAP
F8FC
3830
3C30
3630
3230
3330
31B0
30B0
30F0
3070
FC30
ENDCHAR

STARTCHAR O
ENCODING 79
SWIDTH 720 0
DWIDTH 14 0
BBX 10 11 2 0
BITMAP
3F00
6180
C0C0
C0C0
C0C0
C0C0
C0C0
C0C0
C0C0
6180
3F00
ENDCHAR

STARTCHAR P
ENCODING 80
SWIDTH 720 0
DWIDTH 14 0
BBX 12 11 1 0
BITMAP
FFE0
3030
3030
3030
3030
3030
3FE0
3000
3000
3000
FF00
ENDCHAR

STARTCHAR Q
ENCODING 81
SWIDTH 720 0
DWIDTH 14 0
BBX 10 14 2 -3
BITMAP
3F00
6180
C0C0
C0C0
C0C0
C0C0
C0C0
C0C0
C0C0
6180
3F00
1000
7CC0
C780
ENDCHAR

STARTCHAR R
ENCODING 82
SWIDTH 720 0
DWIDTH 14 0
BBX 14 11 0 0
BITMAP
FFE0
3030
3030
3030
3030
3FE0
30C0
3060
3060
3030
FC3C
ENDCHAR

STARTCHAR S
ENCODING 83
SWIDTH 720 0
DWIDTH 14 0
BBX 10 11 2 0
BITMAP
3EC0
E1C0
C0C0
C000
E000
7F80
01C0
C0C0
C0C0
E1C0
DF80
ENDCHAR

STARTCHAR T
ENCODING 84
SWIDTH 720 0
DWIDTH 14 0
BBX 12 11 1 0
BITMAP
FFF0
C630
C630
C630
0600
0600
0600
0600
0600
0600
3FC0
ENDCHAR

STARTCHAR U
ENCODING 85
SWIDTH 720 0
DWIDTH 14 0
BBX 14 11 0 0
BITMAP
FCFC
3030
3030
3030
3030
3030
3030
3030
3030
1860
0FC0
ENDCHAR

STARTCHAR V
ENCODING 86
SWIDTH 720 0
DWIDTH 14 0
BBX 14 11 0 0
BITMAP
FCFC
3030
3030
1860
1860
1860
0CC0
0CC0
0480
0780
0300
ENDCHAR

STARTCHAR W
ENCODING 87
SWIDTH 720 0
DWIDTH 14 0
BBX 14 11 0 0
BITMAP
F03C
C00C
C30C
C30C
C78C
6498
6CD8
6858
7878
3030
3030
ENDCHAR

STARTCHAR X
ENCODING 88
SWIDTH 720 0
DWIDTH 14 0
BBX 14 11 0 0
BITMAP
F03C
3030
1860
0CC0
0780
0300
0780
0CC0
1860
3030
F03C
ENDCHAR

STARTCHAR Y
ENCODING 89
SWIDTH 720 0
DWIDTH 14 0
BBX 14 11 0 0
BITMAP
FCFC
3030
1860
1860
0CC0
0480
0780
0300
0300
0300
0FC0
ENDCHAR

STARTCHAR Z
ENCODING 90
SWIDTH 720 0
DWIDTH 14 0
BBX 10 11 2 0
BITMAP
FFC0
C0C0
C180
C300
0600
0C00
1800
30C0
60C0
C0C0
FFC0
ENDCHAR

STARTCHAR bracketleft
ENCODING 91
SWIDTH 720 0
DWIDTH 14 0
BBX 6 16 4 -3
BITMAP
FC
C0
C0
C0
C0
C0
C0
C0
C0
C0
C0
C0
C0
C0
C0
FC
ENDCHAR

STARTCHAR backslash
ENCODING 92
SWIDTH 720 0
DWIDTH 14 0
BBX 8 13 2 -1
BITMAP
C0
E0
60
70
30
38
18
1C
0C
0E
06
07
03
ENDCHAR

STARTCHAR bracketright
ENCODING 93
SWIDTH 720 0
DWIDTH 14 0
BBX 6 16 4 -3
BITMAP
FC
0C
0C
0C
0C
0C
0C
0C
0C
0C
0C
0C
0C
0C
0C
FC
ENDCHAR

STARTCHAR asciicircum
ENCODING 94
SWIDTH 720 0
DWIDTH 14 0
BBX 10 3 2 6
BITMAP
0C00
3F00
C0C0
ENDCHAR

STARTCHAR underscore
ENCODING 95
SWIDTH 720 0
DWIDTH 14 0
BBX 14 1 0 0
BITMAP
FFFC
ENDCHAR

STARTCHAR quoteleft
ENCODING 96
SWIDTH 720 0
DWIDTH 14 0
BBX 6 4 4 9
BITMAP
E0
30
18
0C
ENDCHAR

STARTCHAR a
ENCODING 97
SWIDTH 720 0
DWIDTH 14 0
BBX 12 9 1 0
BITMAP
3F80
C0C0
00C0
3FC0
60C0
C0C0
C0C0
E3C0
7CF0
ENDCHAR

STARTCHAR b
ENCODING 98
SWIDTH 720 0
DWIDTH 14 0
BBX 12 12 1 0
BITMAP
F000
3000
3000
37C0
3860
3030
3030
3030
3030
3030
3860
F7C0
ENDCHAR

STARTCHAR c
ENCODING 99
SWIDTH 720 0
DWIDTH 14 0
BBX 10 9 2 0
BITMAP
3EC0
61C0
C0C0
C000
C000
C000
C000
60C0
3F00
ENDCHAR

STARTCHAR d
ENCODING 100
SWIDTH 720 0
DWIDTH 14 0
BBX 12 12 1 0
BITMAP
03C0
00C0
00C0
3EC0
61C0
C0C0
C0C0
C0C0
C0C0
C0C0
61C0
3EF0
ENDCHAR

STARTCHAR e
ENCODING 101
SWIDTH 720 0
DWIDTH 14 0
BBX 10 9 2 0
BITMAP
3F00
6180
C0C0
C0C0
FFC0
C000
C000
60C0
3F00
ENDCHAR

STARTCHAR f
ENCODING 102
SWIDTH 720 0
DWIDTH 14 0
BBX 10 12 2 0
BITMAP
0FC0
1800
1800
FFC0
1800
1800
1800
1800
1800
1800
1800
FF80
ENDCHAR

STARTCHAR g
ENCODING 103
SWIDTH 720 0
DWIDTH 14 0
BBX 12 13 1 -4
BITMAP
3EF0
61C0
C0C0
C0C0
C0C0
C0C0
C0C0
61C0
3EC0
00C0
00C0
0180
FF00
ENDCHAR

STARTCHAR h
ENCODING 104
SWIDTH 720 0
DWIDTH 14 0
BBX 14 12 0 0
BITMAP
F000
3000
3000
33E0
3C70
3030
3030
3030
3030
3030
3030
FCFC
ENDCHAR

STARTCHAR i
ENCODING 105
SWIDTH 720 0
DWIDTH 14 0
BBX 10 13 2 0
BITMAP
0C00
0C00
0000
0000
FC00
0C00
0C00
0C00
0C00
0C00
0C00
0C00
FFC0
ENDCHAR

STARTCHAR j
ENCODING 106
SWIDTH 720 0
DWIDTH 14 0
BBX 8 17 3 -4
BITMAP
03
03
00
00
FF
03
03
03
03
03
03
03
03
03
03
06
FC
ENDCHAR

STARTCHAR k
ENCODING 107
SWIDTH 720 0
DWIDTH 14 0
BBX 12 12 1 0
BITMAP
F000
3000
3000
30F0
3180
3300
3E00
3600
3300
3180
30C0
F0F0
ENDCHAR

STARTCHAR l
ENCODING 108
SWIDTH 720 0
DWIDTH 14 0
BBX 10 12 2 0
BITMAP
FC00
0C00
0C00
0C00
0C00
0C00
0C00
0C00
0C00
0C00
0C00
FFC0
ENDCHAR

STARTCHAR m
ENCODING 109
SWIDTH 720 0
DWIDTH 14 0
BBX 14 9 0 0
BITMAP
F6E0
3BB0
3330
3330
3330
3330
3330
3330
F3BC
ENDCHAR

STARTCHAR n
ENCODING 110
SWIDTH 720 0
DWIDTH 14 0
BBX 14 9 0 0
BITMAP
F3E0
3C70
3030
3030
3030
3030
3030
3030
FCFC
ENDCHAR

STARTCHAR o
ENCODING 111
SWIDTH 720 0
DWIDTH 14 0
BBX 10 9 2 0
BITMAP
3F00
6180
C0C0
C0C0
C0C0
C0C0
C0C0
6180
3F00
ENDCHAR

STARTCHAR p
ENCODING 112
SWIDTH 720 0
DWIDTH 14 0
BBX 12 13 1 -4
BITMAP
F7C0
3860
3030
3030
3030
3030
3030
3860
37C0
3000
3000
3000
FF00
ENDCHAR

STARTCHAR q
ENCODING 113
SWIDTH 720 0
DWIDTH 14 0
BBX 12 13 1 -4
BITMAP
3EF0
61C0
C0C0
C0C0
C0C0
C0C0
C0C0
61C0
3EC0
00C0
00C0
00C0
0FF0
ENDCHAR

STARTCHAR r
ENCODING 114
SWIDTH 720 0
DWIDTH 14 0
BBX 12 9 1 0
BITMAP
F3E0
3C70
3000
3000
3000
3000
3000
3000
FF80
ENDCHAR

STARTCHAR s
ENCODING 115
SWIDTH 720 0
DWIDTH 14 0
BBX 10 9 2 0
BITMAP
3EC0
E1C0
C0C0
C000
7F80
00C0
C0C0
E0C0
DF80
ENDCHAR

STARTCHAR t
ENCODING 116
SWIDTH 720 0
DWIDTH 14 0
BBX 12 11 1 0
BITMAP
3000
3000
FFC0
3000
3000
3000
3000
3000
3000
3870
0FC0
ENDCHAR

STARTCHAR u
ENCODING 117
SWIDTH 720 0
DWIDTH 14 0
BBX 14 9 0 0
BITMAP
F0F0
3030
3030
3030
3030
3030
3030
18F0
0F3C
ENDCHAR

STARTCHAR v
ENCODING 118
SWIDTH 720 0
DWIDTH 14 0
BBX 14 9 0 0
BITMAP
FCFC
3030
3030
1860
1860
0CC0
0CC0
0780
0300
ENDCHAR

STARTCHAR w
ENCODING 119
SWIDTH 720 0
DWIDTH 14 0
BBX 14 9 0 0
BITMAP
F03C
C00C
C00C
4308
6318
6798
6CD8
3870
3030
ENDCHAR

STARTCHAR x
ENCODING 120
SWIDTH 720 0
DWIDTH 14 0
BBX 12 9 1 0
BITMAP
F0F0
30C0
1980
0F00
0600
0F00
1980
30C0
F0F0
ENDCHAR

STARTCHAR y
ENCODING 121
SWIDTH 720 0
DWIDTH 14 0
BBX 14 13 0 -4
BITMAP
FCFC
3030
3030
1860
1860
0CC0
0CC0
0780
0300
0300
0600
0600
1F80
ENDCHAR

STARTCHAR z
ENCODING 122
SWIDTH 720 0
DWIDTH 14 0
BBX 10 9 2 0
BITMAP
FFC0
C180
C300
0600
0C00
1800
30C0
60C0
FFC0
ENDCHAR

STARTCHAR braceleft
ENCODING 123
SWIDTH 720 0
DWIDTH 14 0
BBX 7 16 3 -3
BITMAP
0E
18
18
18
18
18
18
F0
18
18
18
18
18
18
18
0E
ENDCHAR

STARTCHAR bar
ENCODING 124
SWIDTH 720 0
DWIDTH 14 0
BBX 2 15 6 -2
BITMAP
C0
C0
C0
C0
C0
C0
C0
C0
C0
C0
C0
C0
C0
C0
C0
ENDCHAR

STARTCHAR braceright
ENCODING 125
SWIDTH 720 0
DWIDTH 14 0
BBX 7 16 3 -3
BITMAP
E0
30
30
30
30
30
30
1E
30
30
30
30
30
30
30
E0
ENDCHAR

STARTCHAR asciitilde
ENCODING 126
SWIDTH 720 0
DWIDTH 14 0
BBX 10 3 2 6
BITMAP
70C0
CCC0
C380
ENDCHAR

STARTCHAR OE
ENCODING 128
SWIDTH 720 0
DWIDTH 14 0
BBX 14 11 0 0
BITMAP
3FFC
630C
C30C
C300
C310
C3F0
C310
C300
C30C
630C
3FFC
ENDCHAR

STARTCHAR oe
ENCODING 129
SWIDTH 720 0
DWIDTH 14 0
BBX 14 9 0 0
BITMAP
3CF0
630C
C30C
C30C
C3FC
C300
C300
630C
3CF0
ENDCHAR

STARTCHAR Ydieresis
ENCODING 130
SWIDTH 720 0
DWIDTH 14 0
BBX 14 15 0 0
BITMAP
3030
3030
0000
0000
FCFC
3030
1860
1860
0CC0
0480
0780
0300
0300
0300
3FF0
ENDCHAR

STARTCHAR Error
ENCODING 159
SWIDTH 720 0
DWIDTH 14 0
BBX 12 19 1 -4
BITMAP
1FC0
7FE0
F0F0
E070
E070
F000
7800
3C00
1E00
0F00
0700
0700
0700
0000
0000
0700
1FC0
1FC0
0700
ENDCHAR

STARTCHAR exclamdown
ENCODING 161
SWIDTH 720 0
DWIDTH 14 0
BBX 6 12 4 -1
BITMAP
30
FC
30
00
30
30
30
30
30
30
30
30
ENDCHAR

STARTCHAR cent
ENCODING 162
SWIDTH 720 0
DWIDTH 14 0
BBX 10 12 2 -1
BITMAP
0C00
0C00
3EC0
61C0
C0C0
C000
C000
C000
61C0
3F00
0C00
0C00
ENDCHAR

STARTCHAR sterling
ENCODING 163
SWIDTH 720 0
DWIDTH 14 0
BBX 12 11 1 0
BITMAP
0700
1CC0
18C0
1800
0800
7FC0
0C00
0C00
0C00
3F30
C3E0
ENDCHAR

STARTCHAR currency
ENCODING 164
SWIDTH 720 0
DWIDTH 14 0
BBX 10 7 2 2
BITMAP
C0C0
3F00
C0C0
C0C0
C0C0
3F00
C0C0
ENDCHAR

STARTCHAR yen
ENCODING 165
SWIDTH 720 0
DWIDTH 14 0
BBX 14 11 0 0
BITMAP
FCFC
3030
1860
F87C
0CC0
0480
FFFC
0300
0300
0300
3FF0
ENDCHAR

STARTCHAR brokenbar
ENCODING 166
SWIDTH 720 0
DWIDTH 14 0
BBX 2 15 6 -2
BITMAP
C0
C0
C0
C0
C0
C0
00
00
00
C0
C0
C0
C0
C0
C0
ENDCHAR

STARTCHAR section
ENCODING 167
SWIDTH 720 0
DWIDTH 14 0
BBX 10 13 2 -2
BITMAP
0FC0
30C0
3000
3000
DC00
C700
C1C0
70C0
1CC0
0700
0300
C300
FE00
ENDCHAR

STARTCHAR dieresis
ENCODING 168
SWIDTH 720 0
DWIDTH 14 0
BBX 10 2 2 11
BITMAP
C0C0
C0C0
ENDCHAR

STARTCHAR copyright
ENCODING 169
SWIDTH 720 0
DWIDTH 14 0
BBX 14 10 0 0
BITMAP
0FC0
3030
C78C
CC4C
CC0C
CC0C
CC4C
C78C
3030
0FC0
ENDCHAR

STARTCHAR ordfeminine
ENCODING 170
SWIDTH 720 0
DWIDTH 14 0
BBX 10 9 2 2
BITMAP
3F00
00C0
3FC0
C0C0
C3C0
7CC0
0000
0000
FFC0
ENDCHAR

STARTCHAR guillemotleft
ENCODING 171
SWIDTH 720 0
DWIDTH 14 0
BBX 11 7 1 0
BITMAP
1860
30C0
6180
E380
6180
30C0
1860
ENDCHAR

STARTCHAR logicalnot
ENCODING 172
SWIDTH 720 0
DWIDTH 14 0
BBX 10 4 2 3
BITMAP
FFC0
00C0
00C0
00C0
ENDCHAR

STARTCHAR hyphen
ENCODING 173
SWIDTH 720 0
DWIDTH 14 0
BBX 10 1 2 4
BITMAP
FFC0
ENDCHAR

STARTCHAR registered
ENCODING 174
SWIDTH 720 0
DWIDTH 14 0
BBX 14 10 0 0
BITMAP
0FC0
3030
CF8C
CCCC
CCCC
CF0C
CCCC
CCCC
3030
0FC0
ENDCHAR

STARTCHAR macron
ENCODING 175
SWIDTH 720 0
DWIDTH 14 0
BBX 6 1 4 11
BITMAP
FC
ENDCHAR

STARTCHAR degree
ENCODING 176
SWIDTH 720 0
DWIDTH 14 0
BBX 8 4 3 7
BITMAP
7E
C3
C3
7E
ENDCHAR

STARTCHAR plusminus
ENCODING 177
SWIDTH 720 0
DWIDTH 14 0
BBX 10 10 2 0
BITMAP
0C00
0C00
0C00
FFC0
0C00
0C00
0C00
0000
0000
FFC0
ENDCHAR

STARTCHAR twosuperior
ENCODING 178
SWIDTH 720 0
DWIDTH 14 0
BBX 10 7 2 4
BITMAP
3F00
C0C0
00C0
0300
0C00
30C0
FFC0
ENDCHAR

STARTCHAR threesuperior
ENCODING 179
SWIDTH 720 0
DWIDTH 14 0
BBX 10 7 2 4
BITMAP
3F00
C0C0
00C0
0F00
00C0
C0C0
3F00
ENDCHAR

STARTCHAR acute
ENCODING 180
SWIDTH 720 0
DWIDTH 14 0
BBX 7 3 3 11
BITMAP
0E
38
C0
ENDCHAR

STARTCHAR mu
ENCODING 181
SWIDTH 720 0
DWIDTH 14 0
BBX 11 13 1 -4
BITMAP
1860
1860
1860
30C0
30C0
30C0
6180
6180
7EE0
4000
C000
C000
C000
ENDCHAR

STARTCHAR paragraph
ENCODING 182
SWIDTH 720 0
DWIDTH 14 0
BBX 12 13 1 -2
BITMAP
3FF0
7CC0
FCC0
FCC0
FCC0
7CC0
3CC0
0CC0
0CC0
0CC0
0CC0
0CC0
3CF0
ENDCHAR

STARTCHAR periodcentered
ENCODING 183
SWIDTH 720 0
DWIDTH 14 0
BBX 6 3 4 4
BITMAP
30
FC
30
ENDCHAR

STARTCHAR cedilla
ENCODING 184
SWIDTH 720 0
DWIDTH 14 0
BBX 7 4 3 -4
BITMAP
60
7C
06
FC
ENDCHAR

STARTCHAR onesuperior
ENCODING 185
SWIDTH 720 0
DWIDTH 14 0
BBX 6 7 4 4
BITMAP
F0
30
30
30
30
30
FC
ENDCHAR

STARTCHAR ordmasculine
ENCODING 186
SWIDTH 720 0
DWIDTH 14 0
BBX 10 9 2 2
BITMAP
3F00
C0C0
C0C0
C0C0
C0C0
3F00
0000
0000
FFC0
ENDCHAR

STARTCHAR guillemotright
ENCODING 187
SWIDTH 720 0
DWIDTH 14 0
BBX 11 7 1 0
BITMAP
C300
6180
30C0
38E0
30C0
6180
C300
ENDCHAR

STARTCHAR onequarter
ENCODING 188
SWIDTH 720 0
DWIDTH 14 0
BBX 11 14 1 -2
BITMAP
F000
3000
3000
3000
3000
FC60
0380
1C00
E1C0
02C0
04C0
0FE0
00C0
00C0
ENDCHAR

STARTCHAR onehalf
ENCODING 189
SWIDTH 720 0
DWIDTH 14 0
BBX 12 14 1 -2
BITMAP
F000
3000
3000
3000
3000
FC60
0380
1C00
E3C0
0C30
0030
00C0
0300
0FF0
ENDCHAR

STARTCHAR threequarters
ENCODING 190
SWIDTH 720 0
DWIDTH 14 0
BBX 13 14 0 -2
BITMAP
3C00
C300
0C00
0300
C300
3C18
00E0
0700
3870
00B0
0130
03F8
0030
0030
ENDCHAR

STARTCHAR questiondown
ENCODING 191
SWIDTH 720 0
DWIDTH 14 0
BBX 10 12 2 -1
BITMAP
0C00
3F00
0C00
0000
0C00
0C00
3800
7000
C000
C0C0
C0C0
7F00
ENDCHAR

STARTCHAR Agrave
ENCODING 192
SWIDTH 720 0
DWIDTH 14 0
BBX 14 15 0 0
BITMAP
1C00
0700
00C0
0000
0780
0780
0CC0
0CC0
0CC0
1860
1860
1FE0
3030
3030
FCFC
ENDCHAR

STARTCHAR Aacute
ENCODING 193
SWIDTH 720 0
DWIDTH 14 0
BBX 14 15 0 0
BITMAP
00E0
0380
0C00
0000
0780
0780
0CC0
0CC0
0CC0
1860
1860
1FE0
3030
3030
FCFC
ENDCHAR

STARTCHAR Acircumflex
ENCODING 194
SWIDTH 720 0
DWIDTH 14 0
BBX 14 15 0 0
BITMAP
0300
0CC0
3030
0000
0780
0780
0CC0
0CC0
0CC0
1860
1860
1FE0
3030
3030
FCFC
ENDCHAR

STARTCHAR Atilde
ENCODING 195
SWIDTH 720 0
DWIDTH 14 0
BBX 14 15 0 0
BITMAP
0E30
31C0
0000
0000
0780
0780
0CC0
0CC0
0CC0
1860
1860
1FE0
3030
3030
FCFC
ENDCHAR

STARTCHAR Adieresis
ENCODING 196
SWIDTH 720 0
DWIDTH 14 0
BBX 14 15 0 0
BITMAP
3030
3030
0000
0000
0780
0780
0CC0
0CC0
0CC0
1860
1860
1FE0
3030
3030
FCFC
ENDCHAR

STARTCHAR Aring
ENCODING 197
SWIDTH 720 0
DWIDTH 14 0
BBX 14 15 0 0
BITMAP
0780
0840
0840
0780
0780
0780
0CC0
0CC0
0CC0
1860
1860
1FE0
3030
3030
FCFC
ENDCHAR

STARTCHAR AE
ENCODING 198
SWIDTH 720 0
DWIDTH 14 0
BBX 14 11 0 0
BITMAP
1FFC
1B0C
1B0C
1B00
3310
33F0
3F10
3300
630C
630C
E7FC
ENDCHAR

STARTCHAR Ccedilla
ENCODING 199
SWIDTH 720 0
DWIDTH 14 0
BBX 10 15 2 -4
BITMAP
3EC0
61C0
C0C0
C000
C000
C000
C000
C000
C000
60C0
3F00
0C00
0F80
00C0
1F80
ENDCHAR

STARTCHAR Egrave
ENCODING 200
SWIDTH 720 0
DWIDTH 14 0
BBX 12 15 1 0
BITMAP
1C00
0700
00C0
0000
FFF0
3030
3030
3000
3080
3F80
3080
3000
3030
3030
FFF0
ENDCHAR

STARTCHAR Eacute
ENCODING 201
SWIDTH 720 0
DWIDTH 14 0
BBX 12 15 1 0
BITMAP
01C0
0700
1800
0000
FFF0
3030
3030
3000
3080
3F80
3080
3000
3030
3030
FFF0
ENDCHAR

STARTCHAR Ecircumflex
ENCODING 202
SWIDTH 720 0
DWIDTH 14 0
BBX 12 15 1 0
BITMAP
0600
1980
6060
0000
FFF0
3030
3030
3000
3080
3F80
3080
3000
3030
3030
FFF0
ENDCHAR

STARTCHAR Edieresis
ENCODING 203
SWIDTH 720 0
DWIDTH 14 0
BBX 12 15 1 0
BITMAP
3030
3030
0000
0000
FFF0
3030
3030
3000
3080
3F80
3080
3000
3030
3030
FFF0
ENDCHAR

STARTCHAR Igrave
ENCODING 204
SWIDTH 720 0
DWIDTH 14 0
BBX 10 15 2 0
BITMAP
3800
0E00
0180
0000
FFC0
0C00
0C00
0C00
0C00
0C00
0C00
0C00
0C00
0C00
FFC0
ENDCHAR

STARTCHAR Iacute
ENCODING 205
SWIDTH 720 0
DWIDTH 14 0
BBX 10 15 2 0
BITMAP
0380
0E00
3000
0000
FFC0
0C00
0C00
0C00
0C00
0C00
0C00
0C00
0C00
0C00
FFC0
ENDCHAR

STARTCHAR Icircumflex
ENCODING 206
SWIDTH 720 0
DWIDTH 14 0
BBX 10 15 2 0
BITMAP
0C00
3300
C0C0
0000
FFC0
0C00
0C00
0C00
0C00
0C00
0C00
0C00
0C00
0C00
FFC0
ENDCHAR

STARTCHAR Idieresis
ENCODING 207
SWIDTH 720 0
DWIDTH 14 0
BBX 10 15 2 0
BITMAP
C0C0
C0C0
0000
0000
FFC0
0C00
0C00
0C00
0C00
0C00
0C00
0C00
0C00
0C00
FFC0
ENDCHAR

STARTCHAR Eth
ENCODING 208
SWIDTH 720 0
DWIDTH 14 0
BBX 12 11 1 0
BITMAP
FFC0
3060
3030
3030
3030
FF30
3030
3030
3030
3060
FFC0
ENDCHAR

STARTCHAR Ntilde
ENCODING 209
SWIDTH 720 0
DWIDTH 14 0
BBX 14 15 0 0
BITMAP
0E30
31C0
0000
0000
F8FC
3830
3C30
3630
3230
3330
31B0
30B0
30F0
3070
FC30
ENDCHAR

STARTCHAR Ograve
ENCODING 210
SWIDTH 720 0
DWIDTH 14 0
BBX 10 15 2 0
BITMAP
7000
1C00
0300
0000
3F00
C0C0
C0C0
C0C0
C0C0
C0C0
C0C0
C0C0
C0C0
C0C0
3F00
ENDCHAR

STARTCHAR Oacute
ENCODING 211
SWIDTH 720 0
DWIDTH 14 0
BBX 10 15 2 0
BITMAP
0380
0E00
3000
0000
3F00
6180
C0C0
C0C0
C0C0
C0C0
C0C0
C0C0
C0C0
6180
3F00
ENDCHAR

STARTCHAR Ocircumflex
ENCODING 212
SWIDTH 720 0
DWIDTH 14 0
BBX 10 15 2 0
BITMAP
0C00
3300
C0C0
0000
3F00
6180
C0C0
C0C0
C0C0
C0C0
C0C0
C0C0
C0C0
6180
3F00
ENDCHAR

STARTCHAR Otilde
ENCODING 213
SWIDTH 720 0
DWIDTH 14 0
BBX 10 15 2 0
BITMAP
38C0
C700
0000
0000
3F00
6180
C0C0
C0C0
C0C0
C0C0
C0C0
C0C0
C0C0
6180
3F00
ENDCHAR

STARTCHAR Odieresis
ENCODING 214
SWIDTH 720 0
DWIDTH 14 0
BBX 10 15 2 0
BITMAP
C0C0
C0C0
0000
0000
3F00
6180
C0C0
C0C0
C0C0
C0C0
C0C0
C0C0
C0C0
6180
3F00
ENDCHAR

STARTCHAR multiply
ENCODING 215
SWIDTH 720 0
DWIDTH 14 0
BBX 10 6 2 2
BITMAP
C0C0
3300
0C00
0C00
3300
C0C0
ENDCHAR

STARTCHAR Oslash
ENCODING 216
SWIDTH 720 0
DWIDTH 14 0
BBX 12 13 1 -1
BITMAP
0030
1FE0
30E0
61E0
6160
6360
6660
6460
6C60
7860
70C0
7F80
C000
ENDCHAR

STARTCHAR Ugrave
ENCODING 217
SWIDTH 720 0
DWIDTH 14 0
BBX 14 15 0 0
BITMAP
1C00
0700
00C0
0000
FCFC
3030
3030
3030
3030
3030
3030
3030
3030
1860
0FC0
ENDCHAR

STARTCHAR Uacute
ENCODING 218
SWIDTH 720 0
DWIDTH 14 0
BBX 14 15 0 0
BITMAP
00E0
0380
0C00
0000
FCFC
3030
3030
3030
3030
3030
3030
3030
3030
1860
0FC0
ENDCHAR

STARTCHAR Ucircumflex
ENCODING 219
SWIDTH 720 0
DWIDTH 14 0
BBX 14 15 0 0
BITMAP
0300
0CC0
3030
0000
FCFC
3030
3030
3030
3030
3030
3030
3030
3030
1860
0FC0
ENDCHAR

STARTCHAR Udieresis
ENCODING 220
SWIDTH 720 0
DWIDTH 14 0
BBX 14 15 0 0
BITMAP
3030
3030
0000
0000
FCFC
3030
3030
3030
3030
3030
3030
3030
3030
1860
0FC0
ENDCHAR

STARTCHAR Yacute
ENCODING 221
SWIDTH 720 0
DWIDTH 14 0
BBX 14 15 0 0
BITMAP
00E0
0380
0C00
0000
FCFC
3030
1860
1860
0CC0
0480
0780
0300
0300
0300
3FF0
ENDCHAR

STARTCHAR Thorn
ENCODING 222
SWIDTH 720 0
DWIDTH 14 0
BBX 10 11 2 0
BITMAP
FC00
3000
3F80
30C0
30C0
30C0
30C0
30C0
3F80
3000
FC00
ENDCHAR

STARTCHAR germandbls
ENCODING 223
SWIDTH 720 0
DWIDTH 14 0
BBX 12 12 1 0
BITMAP
0FC0
3030
3030
3030
3020
33C0
3030
3030
3030
3030
3030
F3C0
ENDCHAR

STARTCHAR agrave
ENCODING 224
SWIDTH 720 0
DWIDTH 14 0
BBX 12 14 1 0
BITMAP
3800
0E00
0180
0000
0000
3F80
C0C0
00C0
3FC0
60C0
C0C0
C0C0
E3C0
7CF0
ENDCHAR

STARTCHAR aacute
ENCODING 225
SWIDTH 720 0
DWIDTH 14 0
BBX 12 14 1 0
BITMAP
01C0
0700
1800
0000
0000
3F80
C0C0
00C0
3FC0
60C0
C0C0
C0C0
E3C0
7CF0
ENDCHAR

STARTCHAR acircumflex
ENCODING 226
SWIDTH 720 0
DWIDTH 14 0
BBX 12 14 1 0
BITMAP
0600
1980
6060
0000
0000
3F80
C0C0
00C0
3FC0
60C0
C0C0
C0C0
E3C0
7CF0
ENDCHAR

STARTCHAR atilde
ENCODING 227
SWIDTH 720 0
DWIDTH 14 0
BBX 12 13 1 0
BITMAP
38C0
C700
0000
0000
3F80
C0C0
00C0
3FC0
60C0
C0C0
C0C0
E3C0
7CF0
ENDCHAR

STARTCHAR adieresis
ENCODING 228
SWIDTH 720 0
DWIDTH 14 0
BBX 12 13 1 0
BITMAP
6060
6060
0000
0000
3F80
C0C0
00C0
3FC0
60C0
C0C0
C0C0
E3C0
7CF0
ENDCHAR

STARTCHAR aring
ENCODING 229
SWIDTH 720 0
DWIDTH 14 0
BBX 12 14 1 0
BITMAP
0F00
30C0
30C0
0F00
0000
3F80
C0C0
00C0
3FC0
60C0
C0C0
C0C0
E3C0
7CF0
ENDCHAR

STARTCHAR ae
ENCODING 230
SWIDTH 720 0
DWIDTH 14 0
BBX 14 9 0 0
BITMAP
3CF0
C30C
030C
030C
3FFC
C300
C300
C30C
3CF0
ENDCHAR

STARTCHAR ccedilla
ENCODING 231
SWIDTH 720 0
DWIDTH 14 0
BBX 10 13 2 -4
BITMAP
3EC0
61C0
C0C0
C000
C000
C000
C000
60C0
3F00
0C00
0F80
00C0
1F80
ENDCHAR

STARTCHAR egrave
ENCODING 232
SWIDTH 720 0
DWIDTH 14 0
BBX 10 14 2 0
BITMAP
7000
1C00
0300
0000
0000
3F00
6180
C0C0
C0C0
FFC0
C000
C000
60C0
3F00
ENDCHAR

STARTCHAR eacute
ENCODING 233
SWIDTH 720 0
DWIDTH 14 0
BBX 10 14 2 0
BITMAP
0380
0E00
3000
0000
0000
3F00
6180
C0C0
C0C0
FFC0
C000
C000
60C0
3F00
ENDCHAR

STARTCHAR ecircumflex
ENCODING 234
SWIDTH 720 0
DWIDTH 14 0
BBX 10 14 2 0
BITMAP
0C00
3300
C0C0
0000
0000
3F00
6180
C0C0
C0C0
FFC0
C000
C000
60C0
3F00
ENDCHAR

STARTCHAR edieresis
ENCODING 235
SWIDTH 720 0
DWIDTH 14 0
BBX 10 13 2 0
BITMAP
C0C0
C0C0
0000
0000
3F00
6180
C0C0
C0C0
FFC0
C000
C000
60C0
3F00
ENDCHAR

STARTCHAR igrave
ENCODING 236
SWIDTH 720 0
DWIDTH 14 0
BBX 10 14 2 0
BITMAP
7000
1C00
0300
0000
0000
FC00
0C00
0C00
0C00
0C00
0C00
0C00
0C00
FFC0
ENDCHAR

STARTCHAR iacute
ENCODING 237
SWIDTH 720 0
DWIDTH 14 0
BBX 10 14 2 0
BITMAP
0380
0E00
3000
0000
0000
FC00
0C00
0C00
0C00
0C00
0C00
0C00
0C00
FFC0
ENDCHAR

STARTCHAR icircumflex
ENCODING 238
SWIDTH 720 0
DWIDTH 14 0
BBX 11 14 1 0
BITMAP
0C00
3300
C0C0
0000
0000
7E00
0600
0600
0600
0600
0600
0600
0600
7FE0
ENDCHAR

STARTCHAR idieresis
ENCODING 239
SWIDTH 720 0
DWIDTH 14 0
BBX 10 13 2 0
BITMAP
C0C0
C0C0
0000
0000
FC00
0C00
0C00
0C00
0C00
0C00
0C00
0C00
FFC0
ENDCHAR

STARTCHAR eth
ENCODING 240
SWIDTH 720 0
DWIDTH 14 0
BBX 10 12 2 0
BITMAP
3CC0
0F00
3180
0180
3EC0
61C0
C0C0
C0C0
C0C0
C0C0
6180
3F00
ENDCHAR

STARTCHAR ntilde
ENCODING 241
SWIDTH 720 0
DWIDTH 14 0
BBX 14 13 0 0
BITMAP
0E30
31C0
0000
0000
F3E0
3C70
3030
3030
3030
3030
3030
3030
FCFC
ENDCHAR

STARTCHAR ograve
ENCODING 242
SWIDTH 720 0
DWIDTH 14 0
BBX 10 14 2 0
BITMAP
7000
1C00
0300
0000
0000
3F00
6180
C0C0
C0C0
C0C0
C0C0
C0C0
6180
3F00
ENDCHAR

STARTCHAR oacute
ENCODING 243
SWIDTH 720 0
DWIDTH 14 0
BBX 10 14 2 0
BITMAP
0380
0E00
3000
0000
0000
3F00
6180
C0C0
C0C0
C0C0
C0C0
C0C0
6180
3F00
ENDCHAR

STARTCHAR ocircumflex
ENCODING 244
SWIDTH 720 0
DWIDTH 14 0
BBX 10 14 2 0
BITMAP
0C00
3300
C0C0
0000
0000
3F00
6180
C0C0
C0C0
C0C0
C0C0
C0C0
6180
3F00
ENDCHAR

STARTCHAR otilde
ENCODING 245
SWIDTH 720 0
DWIDTH 14 0
BBX 10 13 2 0
BITMAP
38C0
C700
0000
0000
3F00
6180
C0C0
C0C0
C0C0
C0C0
C0C0
6180
3F00
ENDCHAR

STARTCHAR odieresis
ENCODING 246
SWIDTH 720 0
DWIDTH 14 0
BBX 10 13 2 0
BITMAP
C0C0
C0C0
0000
0000
3F00
6180
C0C0
C0C0
C0C0
C0C0
C0C0
6180
3F00
ENDCHAR

STARTCHAR divide
ENCODING 247
SWIDTH 720 0
DWIDTH 14 0
BBX 10 7 2 2
BITMAP
0C00
0C00
0000
FFC0
0000
0C00
0C00
ENDCHAR

STARTCHAR oslash
ENCODING 248
SWIDTH 720 0
DWIDTH 14 0
BBX 12 9 1 0
BITMAP
1FB0
30E0
61E0
6360
6660
6C60
7860
70C0
DF80
ENDCHAR

STARTCHAR ugrave
ENCODING 249
SWIDTH 720 0
DWIDTH 14 0
BBX 14 14 0 0
BITMAP
1C00
0700
00C0
0000
0000
F0F0
3030
3030
3030
3030
3030
3030
18F0
0F3C
ENDCHAR

STARTCHAR uacute
ENCODING 250
SWIDTH 720 0
DWIDTH 14 0
BBX 14 14 0 0
BITMAP
00E0
0380
0C00
0000
0000
F0F0
3030
3030
3030
3030
3030
3030
18F0
0F3C
ENDCHAR

STARTCHAR ucircumflex
ENCODING 251
SWIDTH 720 0
DWIDTH 14 0
BBX 14 14 0 0
BITMAP
0300
0CC0
3030
0000
0000
F0F0
3030
3030
3030
3030
3030
3030
18F0
0F3C
ENDCHAR

STARTCHAR udieresis
ENCODING 252
SWIDTH 720 0
DWIDTH 14 0
BBX 14 13 0 0
BITMAP
3030
3030
0000
0000
F0F0
3030
3030
3030
3030
3030
3030
18F0
0F3C
ENDCHAR

STARTCHAR yacute
ENCODING 253
SWIDTH 720 0
DWIDTH 14 0
BBX 14 18 0 -4
BITMAP
00E0
0380
0C00
0000
0000
FCFC
3030
3030
1860
1860
0CC0
0CC0
0780
0300
0300
0600
0600
7F80
ENDCHAR

STARTCHAR thorn
ENCODING 254
SWIDTH 720 0
DWIDTH 14 0
BBX 12 16 1 -4
BITMAP
F000
3000
3000
37C0
3860
3030
3030
3030
3030
3030
3860
37C0
3000
3000
3000
FF00
ENDCHAR

STARTCHAR ydieresis
ENCODING 255
SWIDTH 720 0
DWIDTH 14 0
BBX 14 17 0 -4
BITMAP
3030
3030
0000
0000
FCFC
3030
3030
1860
1860
0CC0
0CC0
0780
0300
0300
0600
0600
7F80
ENDCHAR

ENDFONT
