STARTFONT 2.1
FONT -ADECW-Screen-Medium-R-Normal--24-240-75-75-P-120-TIS620.2533-1
SIZE 24 75 75
FONTBOUNDINGBOX 22 24 -10 -4

STARTPROPERTIES 26
FONTNAME_REGISTRY ""
FAMILY_NAME "Screen"
FOUNDRY "ADECW"
WEIGHT_NAME "Medium"
SLANT "R"
SETWIDTH_NAME "Normal"
ADD_STYLE_NAME ""
PIXEL_SIZE 24
POINT_SIZE 240
RESOLUTION_X 75
RESOLUTION_Y 75
SPACING "P"
AVERAGE_WIDTH 120
CHARSET_REGISTRY "TIS620.2533"
CHARSET_ENCODING "1"
DEVICE_FONT_NAME "Screen-TIS620.2533-1"
CHARSET_COLLECTIONS "TIS620.2533-1"
FULL_NAME "Screen TIS620.2533-1"
COPYRIGHT "Copyright (c) 1992 Digital Equipment Corporation"
CAP_HEIGHT 17
X_HEIGHT 12
WEIGHT 10
QUAD_WIDTH 6
DEFAULT_CHAR 32
FONT_DESCENT 4
FONT_ASCENT 20
ENDPROPERTIES

CHARS 185

STARTCHAR C20
ENCODING 32
SWIDTH 500 0
DWIDTH 12 0
BBX 12 24 0 -4
BITMAP
0000
0000
0000
0000
0000
0000
0000
0000
0000
0000
0000
0000
0000
0000
0000
0000
0000
0000
0000
0000
0000
0000
0000
0000
ENDCHAR

STARTCHAR C21
ENCODING 33
SWIDTH 500 0
DWIDTH 12 0
BBX 12 24 0 -4
BITMAP
0000
0000
0400
0E00
0E00
0E00
0E00
0E00
0E00
0E00
0400
0400
0400
0400
0400
0000
0000
0400
0E00
0400
0000
0000
0000
0000
ENDCHAR

STARTCHAR C22
ENCODING 34
SWIDTH 500 0
DWIDTH 12 0
BBX 12 24 0 -4
BITMAP
0000
3300
3B80
1980
1100
2200
0000
0000
0000
0000
0000
0000
0000
0000
0000
0000
0000
0000
0000
0000
0000
0000
0000
0000
ENDCHAR

STARTCHAR C23
ENCODING 35
SWIDTH 500 0
DWIDTH 12 0
BBX 12 24 0 -4
BITMAP
0000
0000
0100
0900
0900
0900
09C0
0FC0
3F00
3900
0900
0900
0900
0900
09C0
0FC0
3F00
3900
0900
0900
0900
0800
0000
0000
ENDCHAR

STARTCHAR C24
ENCODING 36
SWIDTH 500 0
DWIDTH 12 0
BBX 12 24 0 -4
BITMAP
0000
0400
0400
1F00
3580
24C0
64C0
6400
6400
2400
1C00
0700
0580
04C0
04C0
04C0
64C0
6480
3580
1F00
0400
0400
0000
0000
ENDCHAR

STARTCHAR C25
ENCODING 37
SWIDTH 500 0
DWIDTH 12 0
BBX 12 24 0 -4
BITMAP
0000
0000
0000
1820
2460
2440
24C0
2480
1980
0100
0300
0200
0600
0400
0CC0
0920
1920
1120
3120
20C0
0000
0000
0000
0000
ENDCHAR

STARTCHAR C26
ENCODING 38
SWIDTH 500 0
DWIDTH 12 0
BBX 12 24 0 -4
BITMAP
0000
0000
0000
0E00
1100
3180
3180
3100
1900
1A00
0CE0
1C40
2C40
6680
6680
6300
6320
6320
25A0
18C0
0000
0000
0000
0000
ENDCHAR

STARTCHAR C27
ENCODING 39
SWIDTH 500 0
DWIDTH 12 0
BBX 12 24 0 -4
BITMAP
0000
3000
3800
1800
1800
1000
2000
0000
0000
0000
0000
0000
0000
0000
0000
0000
0000
0000
0000
0000
0000
0000
0000
0000
ENDCHAR

STARTCHAR C28
ENCODING 40
SWIDTH 500 0
DWIDTH 12 0
BBX 12 24 0 -4
BITMAP
0000
0040
0080
0180
0100
0100
0300
0200
0200
0600
0600
0600
0600
0600
0600
0200
0200
0300
0100
0100
0180
0080
0040
0000
ENDCHAR

STARTCHAR C29
ENCODING 41
SWIDTH 500 0
DWIDTH 12 0
BBX 12 24 0 -4
BITMAP
0000
2000
1000
1800
0800
0800
0C00
0400
0400
0600
0600
0600
0600
0600
0600
0400
0400
0C00
0800
0800
1800
1000
2000
0000
ENDCHAR

STARTCHAR C2a
ENCODING 42
SWIDTH 500 0
DWIDTH 12 0
BBX 12 24 0 -4
BITMAP
0000
0000
0000
0000
0000
0000
0400
0E00
0E00
64C0
75C0
0E00
0E00
75C0
64C0
0E00
0E00
0400
0000
0000
0000
0000
0000
0000
ENDCHAR

STARTCHAR C2b
ENCODING 43
SWIDTH 500 0
DWIDTH 12 0
BBX 12 24 0 -4
BITMAP
0000
0000
0000
0000
0400
0400
0400
0400
0400
0400
0400
7FC0
0400
0400
0400
0400
0400
0400
0400
0000
0000
0000
0000
0000
ENDCHAR

STARTCHAR C2c
ENCODING 44
SWIDTH 500 0
DWIDTH 12 0
BBX 12 24 0 -4
BITMAP
0000
0000
0000
0000
0000
0000
0000
0000
0000
0000
0000
0000
0000
0000
0000
0000
0000
3000
3800
1800
1800
1000
2000
0000
ENDCHAR

STARTCHAR C2d
ENCODING 45
SWIDTH 500 0
DWIDTH 12 0
BBX 12 24 0 -4
BITMAP
0000
0000
0000
0000
0000
0000
0000
0000
0000
0000
0000
3FC0
0000
0000
0000
0000
0000
0000
0000
0000
0000
0000
0000
0000
ENDCHAR

STARTCHAR C2e
ENCODING 46
SWIDTH 500 0
DWIDTH 12 0
BBX 12 24 0 -4
BITMAP
0000
0000
0000
0000
0000
0000
0000
0000
0000
0000
0000
0000
0000
0000
0000
0000
1800
3C00
3C00
1800
0000
0000
0000
0000
ENDCHAR

STARTCHAR C2f
ENCODING 47
SWIDTH 500 0
DWIDTH 12 0
BBX 12 24 0 -4
BITMAP
0000
0020
0020
0040
0040
0080
0080
0100
0100
0100
0200
0200
0400
0400
0800
0800
0800
1000
1000
2000
2000
4000
4000
0000
ENDCHAR

STARTCHAR C30
ENCODING 48
SWIDTH 500 0
DWIDTH 12 0
BBX 12 24 0 -4
BITMAP
0000
0000
0040
0F40
10C0
1080
20C0
2140
6160
6160
6260
6260
6460
6460
6860
2840
2840
1080
1080
2F00
2000
0000
0000
0000
ENDCHAR

STARTCHAR C31
ENCODING 49
SWIDTH 500 0
DWIDTH 12 0
BBX 12 24 0 -4
BITMAP
0000
0000
0000
0200
0600
3E00
0600
0600
0600
0600
0600
0600
0600
0600
0600
0600
0600
0600
0600
3FC0
0000
0000
0000
0000
ENDCHAR

STARTCHAR C32
ENCODING 50
SWIDTH 500 0
DWIDTH 12 0
BBX 12 24 0 -4
BITMAP
0000
0000
0000
0F00
30C0
2060
4060
0060
0060
0060
00C0
00C0
0180
0100
0200
0400
0820
1020
3FE0
7FE0
0000
0000
0000
0000
ENDCHAR

STARTCHAR C33
ENCODING 51
SWIDTH 500 0
DWIDTH 12 0
BBX 12 24 0 -4
BITMAP
0000
0000
0000
0780
18C0
1060
2060
0060
0040
0080
0700
0F80
00C0
0060
0060
0060
0060
40C0
2180
1F00
0000
0000
0000
0000
ENDCHAR

STARTCHAR C34
ENCODING 52
SWIDTH 500 0
DWIDTH 12 0
BBX 12 24 0 -4
BITMAP
0000
0000
0000
0180
0180
0380
0380
0580
0580
0980
0980
1180
1180
2180
2180
7FE0
0180
0180
0180
07E0
0000
0000
0000
0000
ENDCHAR

STARTCHAR C35
ENCODING 53
SWIDTH 500 0
DWIDTH 12 0
BBX 12 24 0 -4
BITMAP
0000
0000
0000
7FC0
7FC0
4000
4000
4000
4000
4F80
58C0
6040
4060
0060
0060
0060
0060
40C0
2180
1F00
0000
0000
0000
0000
ENDCHAR

STARTCHAR C36
ENCODING 54
SWIDTH 500 0
DWIDTH 12 0
BBX 12 24 0 -4
BITMAP
0000
0000
0000
0F80
1840
3020
2000
6000
6000
6000
6F80
70C0
6060
6060
6060
6060
2060
3040
18C0
0F80
0000
0000
0000
0000
ENDCHAR

STARTCHAR C37
ENCODING 55
SWIDTH 500 0
DWIDTH 12 0
BBX 12 24 0 -4
BITMAP
0000
0000
0000
7FE0
7FE0
6020
4040
4040
0080
0080
0180
0100
0300
0300
0300
0600
0600
0600
0600
0600
0000
0000
0000
0000
ENDCHAR

STARTCHAR C38
ENCODING 56
SWIDTH 500 0
DWIDTH 12 0
BBX 12 24 0 -4
BITMAP
0000
0000
0000
0F00
30C0
6060
6060
6060
6060
3040
1C80
0F00
1380
20C0
6060
6060
6060
6060
30C0
0F00
0000
0000
0000
0000
ENDCHAR

STARTCHAR C39
ENCODING 57
SWIDTH 500 0
DWIDTH 12 0
BBX 12 24 0 -4
BITMAP
0000
0000
0000
1F00
3180
60C0
60C0
6060
6060
6060
6060
30E0
1F60
0060
0060
0060
0040
40C0
2180
1F00
0000
0000
0000
0000
ENDCHAR

STARTCHAR C3a
ENCODING 58
SWIDTH 500 0
DWIDTH 12 0
BBX 12 24 0 -4
BITMAP
0000
0000
0000
0000
0000
0000
0000
0600
0F00
0F00
0600
0000
0000
0000
0000
0000
0600
0F00
0F00
0600
0000
0000
0000
0000
ENDCHAR

STARTCHAR C3b
ENCODING 59
SWIDTH 500 0
DWIDTH 12 0
BBX 12 24 0 -4
BITMAP
0000
0000
0000
0000
0000
0000
0C00
1E00
1E00
0C00
0000
0000
0000
0000
0000
0000
0C00
1E00
1E00
0600
0600
0400
1800
0000
ENDCHAR

STARTCHAR C3c
ENCODING 60
SWIDTH 500 0
DWIDTH 12 0
BBX 12 24 0 -4
BITMAP
0000
0000
0000
0040
0080
0100
0200
0400
0800
1000
2000
4000
2000
1000
0800
0400
0200
0100
0080
0040
0000
0000
0000
0000
ENDCHAR

STARTCHAR C3d
ENCODING 61
SWIDTH 500 0
DWIDTH 12 0
BBX 12 24 0 -4
BITMAP
0000
0000
0000
0000
0000
0000
0000
0000
0000
3FC0
0000
0000
0000
3FC0
0000
0000
0000
0000
0000
0000
0000
0000
0000
0000
ENDCHAR

STARTCHAR C3e
ENCODING 62
SWIDTH 500 0
DWIDTH 12 0
BBX 12 24 0 -4
BITMAP
0000
0000
0000
4000
2000
1000
0800
0400
0200
0100
0080
0040
0080
0100
0200
0400
0800
1000
2000
4000
0000
0000
0000
0000
ENDCHAR

STARTCHAR C3f
ENCODING 63
SWIDTH 500 0
DWIDTH 12 0
BBX 12 24 0 -4
BITMAP
0000
0000
0000
0F00
30C0
6060
6060
7060
3060
00C0
0180
0300
0200
0200
0200
0000
0000
0200
0700
0200
0000
0000
0000
0000
ENDCHAR

STARTCHAR C40
ENCODING 64
SWIDTH 500 0
DWIDTH 12 0
BBX 12 24 0 -4
BITMAP
0000
0000
0000
0700
1880
3040
2040
46A0
49A0
49A0
59A0
59A0
59A0
59A0
49A0
46C0
2000
2020
1040
0F80
0000
0000
0000
0000
ENDCHAR

STARTCHAR C41
ENCODING 65
SWIDTH 500 0
DWIDTH 12 0
BBX 12 24 0 -4
BITMAP
0000
0000
0000
0600
0600
0600
0600
0B00
0B00
0B00
0B00
1180
1180
1180
1F80
20C0
20C0
20C0
20C0
71E0
0000
0000
0000
0000
ENDCHAR

STARTCHAR C42
ENCODING 66
SWIDTH 500 0
DWIDTH 12 0
BBX 12 24 0 -4
BITMAP
0000
0000
0000
7E00
3180
3080
30C0
30C0
30C0
3080
3100
3F00
30C0
3040
3060
3060
3060
3040
30C0
7F00
0000
0000
0000
0000
ENDCHAR

STARTCHAR C43
ENCODING 67
SWIDTH 500 0
DWIDTH 12 0
BBX 12 24 0 -4
BITMAP
0000
0000
0000
0720
18A0
1060
3020
2020
6000
6000
6000
6000
6000
6000
6000
2000
3020
1020
1840
0780
0000
0000
0000
0000
ENDCHAR

STARTCHAR C44
ENCODING 68
SWIDTH 500 0
DWIDTH 12 0
BBX 12 24 0 -4
BITMAP
0000
0000
0000
7E00
3180
3080
30C0
3040
3060
3060
3060
3060
3060
3060
3060
3040
30C0
3080
3180
7E00
0000
0000
0000
0000
ENDCHAR

STARTCHAR C45
ENCODING 69
SWIDTH 500 0
DWIDTH 12 0
BBX 12 24 0 -4
BITMAP
0000
0000
0000
7FC0
3040
3020
3000
3000
3000
3080
3080
3F80
3080
3080
3000
3000
3000
3020
3040
7FC0
0000
0000
0000
0000
ENDCHAR

STARTCHAR C46
ENCODING 70
SWIDTH 500 0
DWIDTH 12 0
BBX 12 24 0 -4
BITMAP
0000
0000
0000
7FC0
3040
3020
3000
3000
3000
3080
3080
3F80
3080
3080
3000
3000
3000
3000
3000
7800
0000
0000
0000
0000
ENDCHAR

STARTCHAR C47
ENCODING 71
SWIDTH 500 0
DWIDTH 12 0
BBX 12 24 0 -4
BITMAP
0000
0000
0000
0E40
1140
30C0
2040
6040
6000
6000
6000
6000
61E0
60C0
60C0
60C0
20C0
30C0
1140
0E40
0000
0000
0000
0000
ENDCHAR

STARTCHAR C48
ENCODING 72
SWIDTH 500 0
DWIDTH 12 0
BBX 12 24 0 -4
BITMAP
0000
0000
0000
79E0
30C0
30C0
30C0
30C0
30C0
30C0
30C0
3FC0
30C0
30C0
30C0
30C0
30C0
30C0
30C0
79E0
0000
0000
0000
0000
ENDCHAR

STARTCHAR C49
ENCODING 73
SWIDTH 500 0
DWIDTH 12 0
BBX 12 24 0 -4
BITMAP
0000
0000
0000
1F80
0600
0600
0600
0600
0600
0600
0600
0600
0600
0600
0600
0600
0600
0600
0600
1F80
0000
0000
0000
0000
ENDCHAR

STARTCHAR C4a
ENCODING 74
SWIDTH 500 0
DWIDTH 12 0
BBX 12 24 0 -4
BITMAP
0000
0000
0000
07E0
0180
0180
0180
0180
0180
0180
0180
0180
0180
0180
0180
3180
7180
6100
2300
1C00
0000
0000
0000
0000
ENDCHAR

STARTCHAR C4b
ENCODING 75
SWIDTH 500 0
DWIDTH 12 0
BBX 12 24 0 -4
BITMAP
0000
0000
0000
79E0
30C0
3080
3100
3100
3200
3200
3600
3600
3B00
3300
3180
3180
30C0
30C0
30C0
79E0
0000
0000
0000
0000
ENDCHAR

STARTCHAR C4c
ENCODING 76
SWIDTH 500 0
DWIDTH 12 0
BBX 12 24 0 -4
BITMAP
0000
0000
0000
7800
3000
3000
3000
3000
3000
3000
3000
3000
3000
3000
3000
3000
3000
3020
3040
7FC0
0000
0000
0000
0000
ENDCHAR

STARTCHAR C4d
ENCODING 77
SWIDTH 500 0
DWIDTH 12 0
BBX 12 24 0 -4
BITMAP
0000
0000
0000
6060
6060
6060
6060
70E0
70E0
70E0
5160
5160
5960
5A60
4A60
4A60
4C60
4C60
4C60
4C60
0000
0000
0000
0000
ENDCHAR

STARTCHAR C4e
ENCODING 78
SWIDTH 500 0
DWIDTH 12 0
BBX 12 24 0 -4
BITMAP
0000
0000
0000
70E0
3040
3840
3840
3840
2C40
2C40
2640
2640
2340
2340
21C0
21C0
20C0
20C0
2040
7040
0000
0000
0000
0000
ENDCHAR

STARTCHAR C4f
ENCODING 79
SWIDTH 500 0
DWIDTH 12 0
BBX 12 24 0 -4
BITMAP
0000
0000
0000
0F00
1080
30C0
2040
6060
6060
6060
6060
6060
6060
6060
6060
6060
2040
30C0
1080
0F00
0000
0000
0000
0000
ENDCHAR

STARTCHAR C50
ENCODING 80
SWIDTH 500 0
DWIDTH 12 0
BBX 12 24 0 -4
BITMAP
0000
0000
0000
7F00
30C0
3040
3060
3060
3060
3040
30C0
3F00
3000
3000
3000
3000
3000
3000
3000
7800
0000
0000
0000
0000
ENDCHAR

STARTCHAR C51
ENCODING 81
SWIDTH 500 0
DWIDTH 12 0
BBX 12 24 0 -4
BITMAP
0000
0000
0000
0F00
1080
30C0
2040
6060
6060
6060
6060
6060
6060
6060
6060
6060
2640
2940
1080
0F80
00A0
0040
0000
0000
ENDCHAR

STARTCHAR C52
ENCODING 82
SWIDTH 500 0
DWIDTH 12 0
BBX 12 24 0 -4
BITMAP
0000
0000
0000
7E00
3180
3080
30C0
30C0
30C0
3080
3180
3E00
3200
3100
3100
3180
3180
31A0
30A0
78C0
0000
0000
0000
0000
ENDCHAR

STARTCHAR C53
ENCODING 83
SWIDTH 500 0
DWIDTH 12 0
BBX 12 24 0 -4
BITMAP
0000
0000
0000
0F20
30A0
2060
6020
6020
6000
3000
1E00
0780
00C0
0040
0060
4060
4060
6060
50C0
4F00
0000
0000
0000
0000
ENDCHAR

STARTCHAR C54
ENCODING 84
SWIDTH 500 0
DWIDTH 12 0
BBX 12 24 0 -4
BITMAP
0000
0000
0000
3FC0
2640
4620
0600
0600
0600
0600
0600
0600
0600
0600
0600
0600
0600
0600
0600
0F00
0000
0000
0000
0000
ENDCHAR

STARTCHAR C55
ENCODING 85
SWIDTH 500 0
DWIDTH 12 0
BBX 12 24 0 -4
BITMAP
0000
0000
0000
78E0
3040
3040
3040
3040
3040
3040
3040
3040
3040
3040
3040
3040
3040
1040
1880
0700
0000
0000
0000
0000
ENDCHAR

STARTCHAR C56
ENCODING 86
SWIDTH 500 0
DWIDTH 12 0
BBX 12 24 0 -4
BITMAP
0000
0000
0000
78E0
3040
3040
3040
3040
1880
1880
1880
1880
0D00
0D00
0D00
0D00
0600
0600
0600
0600
0000
0000
0000
0000
ENDCHAR

STARTCHAR C57
ENCODING 87
SWIDTH 500 0
DWIDTH 12 0
BBX 12 24 0 -4
BITMAP
0000
0000
0000
6620
6620
6620
6620
6620
6620
6620
6B40
6B40
6B40
6B40
6B40
3180
3180
3180
3180
3180
0000
0000
0000
0000
ENDCHAR

STARTCHAR C58
ENCODING 88
SWIDTH 500 0
DWIDTH 12 0
BBX 12 24 0 -4
BITMAP
0000
0000
0000
78E0
3040
3040
1880
1880
0D00
0D00
0600
0600
0600
0B00
0B00
1180
1180
20C0
20C0
71E0
0000
0000
0000
0000
ENDCHAR

STARTCHAR C59
ENCODING 89
SWIDTH 500 0
DWIDTH 12 0
BBX 12 24 0 -4
BITMAP
0000
0000
0000
78E0
3040
3040
3040
1880
1880
1880
0D00
0D00
0D00
0600
0600
0600
0600
0600
0600
0F00
0000
0000
0000
0000
ENDCHAR

STARTCHAR C5a
ENCODING 90
SWIDTH 500 0
DWIDTH 12 0
BBX 12 24 0 -4
BITMAP
0000
0000
0000
3FE0
20C0
40C0
0180
0180
0300
0300
0600
0600
0C00
0C00
1800
1800
3000
3020
6040
7FC0
0000
0000
0000
0000
ENDCHAR

STARTCHAR C5b
ENCODING 91
SWIDTH 500 0
DWIDTH 12 0
BBX 12 24 0 -4
BITMAP
0000
03C0
0200
0200
0200
0200
0200
0200
0200
0200
0200
0200
0200
0200
0200
0200
0200
0200
0200
0200
0200
0200
03C0
0000
ENDCHAR

STARTCHAR C5c
ENCODING 92
SWIDTH 500 0
DWIDTH 12 0
BBX 12 24 0 -4
BITMAP
0000
4000
4000
2000
2000
1000
1000
0800
0800
0800
0400
0400
0200
0200
0100
0100
0100
0080
0080
0040
0040
0020
0020
0000
ENDCHAR

STARTCHAR C5d
ENCODING 93
SWIDTH 500 0
DWIDTH 12 0
BBX 12 24 0 -4
BITMAP
0000
3C00
0400
0400
0400
0400
0400
0400
0400
0400
0400
0400
0400
0400
0400
0400
0400
0400
0400
0400
0400
0400
3C00
0000
ENDCHAR

STARTCHAR C5e
ENCODING 94
SWIDTH 500 0
DWIDTH 12 0
BBX 12 24 0 -4
BITMAP
0000
0400
0A00
1100
2080
4040
0000
0000
0000
0000
0000
0000
0000
0000
0000
0000
0000
0000
0000
0000
0000
0000
0000
0000
ENDCHAR

STARTCHAR C5f
ENCODING 95
SWIDTH 500 0
DWIDTH 12 0
BBX 12 24 0 -4
BITMAP
0000
0000
0000
0000
0000
0000
0000
0000
0000
0000
0000
0000
0000
0000
0000
0000
0000
0000
0000
0000
0000
0000
7FE0
0000
ENDCHAR

STARTCHAR C60
ENCODING 96
SWIDTH 500 0
DWIDTH 12 0
BBX 12 24 0 -4
BITMAP
0000
3800
1C00
0E00
0300
0080
0000
0000
0000
0000
0000
0000
0000
0000
0000
0000
0000
0000
0000
0000
0000
0000
0000
0000
ENDCHAR

STARTCHAR C61
ENCODING 97
SWIDTH 500 0
DWIDTH 12 0
BBX 12 24 0 -4
BITMAP
0000
0000
0000
0000
0000
0000
0000
0000
1E00
2100
6180
6180
0180
0780
1980
3180
6180
6180
63A0
3CC0
0000
0000
0000
0000
ENDCHAR

STARTCHAR C62
ENCODING 98
SWIDTH 500 0
DWIDTH 12 0
BBX 12 24 0 -4
BITMAP
0000
0000
0000
1000
7000
3000
3000
3000
3700
38C0
3040
3060
3060
3060
3060
3060
3060
3040
38C0
2700
0000
0000
0000
0000
ENDCHAR

STARTCHAR C63
ENCODING 99
SWIDTH 500 0
DWIDTH 12 0
BBX 12 24 0 -4
BITMAP
0000
0000
0000
0000
0000
0000
0000
0000
0E00
3180
20C0
60C0
6000
6000
6000
6000
6000
2040
3080
0F00
0000
0000
0000
0000
ENDCHAR

STARTCHAR C64
ENCODING 100
SWIDTH 500 0
DWIDTH 12 0
BBX 12 24 0 -4
BITMAP
0000
0000
0000
0040
01C0
00C0
00C0
00C0
0EC0
31C0
20C0
60C0
60C0
60C0
60C0
60C0
60C0
20C0
31C0
0E60
0000
0000
0000
0000
ENDCHAR

STARTCHAR C65
ENCODING 101
SWIDTH 500 0
DWIDTH 12 0
BBX 12 24 0 -4
BITMAP
0000
0000
0000
0000
0000
0000
0000
0000
0E00
3180
2080
60C0
60C0
7FC0
6000
6000
6000
2040
3080
0F00
0000
0000
0000
0000
ENDCHAR

STARTCHAR C66
ENCODING 102
SWIDTH 500 0
DWIDTH 12 0
BBX 12 24 0 -4
BITMAP
0000
0000
0000
0380
04C0
04C0
0C00
0C00
0C00
3F80
0C00
0C00
0C00
0C00
0C00
0C00
0C00
0C00
0C00
3F00
0000
0000
0000
0000
ENDCHAR

STARTCHAR C67
ENCODING 103
SWIDTH 500 0
DWIDTH 12 0
BBX 12 24 0 -4
BITMAP
0000
0000
0000
0000
0000
0000
0000
0040
0EA0
1180
3180
3180
3180
1100
0E00
1000
3000
1F00
27C0
6060
6060
30C0
0F00
0000
ENDCHAR

STARTCHAR C68
ENCODING 104
SWIDTH 500 0
DWIDTH 12 0
BBX 12 24 0 -4
BITMAP
0000
0000
0000
1000
7000
3000
3000
3000
3700
3880
30C0
30C0
30C0
30C0
30C0
30C0
30C0
30C0
30C0
79E0
0000
0000
0000
0000
ENDCHAR

STARTCHAR C69
ENCODING 105
SWIDTH 500 0
DWIDTH 12 0
BBX 12 24 0 -4
BITMAP
0000
0000
0000
0600
0600
0000
0000
0000
1E00
0600
0600
0600
0600
0600
0600
0600
0600
0600
0600
3FC0
0000
0000
0000
0000
ENDCHAR

STARTCHAR C6a
ENCODING 106
SWIDTH 500 0
DWIDTH 12 0
BBX 12 24 0 -4
BITMAP
0000
0000
0000
0180
0180
0000
0000
0000
0780
0180
0180
0180
0180
0180
0180
0180
0180
0180
0180
0180
3100
3300
1C00
0000
ENDCHAR

STARTCHAR C6b
ENCODING 107
SWIDTH 500 0
DWIDTH 12 0
BBX 12 24 0 -4
BITMAP
0000
0000
0000
1000
7000
3000
3000
3000
31E0
3080
3100
3200
3600
3B00
3300
3180
3180
30C0
30C0
79E0
0000
0000
0000
0000
ENDCHAR

STARTCHAR C6c
ENCODING 108
SWIDTH 500 0
DWIDTH 12 0
BBX 12 24 0 -4
BITMAP
0000
0000
0000
1E00
0600
0600
0600
0600
0600
0600
0600
0600
0600
0600
0600
0600
0600
0600
0600
1F80
0000
0000
0000
0000
ENDCHAR

STARTCHAR C6d
ENCODING 109
SWIDTH 500 0
DWIDTH 12 0
BBX 12 24 0 -4
BITMAP
0000
0000
0000
0000
0000
0000
0000
0000
6CC0
7760
6660
6660
6660
6660
6660
6660
6660
6660
6660
6660
0000
0000
0000
0000
ENDCHAR

STARTCHAR C6e
ENCODING 110
SWIDTH 500 0
DWIDTH 12 0
BBX 12 24 0 -4
BITMAP
0000
0000
0000
0000
0000
0000
0000
0000
3700
7880
30C0
30C0
30C0
30C0
30C0
30C0
30C0
30C0
30C0
79E0
0000
0000
0000
0000
ENDCHAR

STARTCHAR C6f
ENCODING 111
SWIDTH 500 0
DWIDTH 12 0
BBX 12 24 0 -4
BITMAP
0000
0000
0000
0000
0000
0000
0000
0000
0F00
30C0
2040
6060
6060
6060
6060
6060
6060
2040
30C0
0F00
0000
0000
0000
0000
ENDCHAR

STARTCHAR C70
ENCODING 112
SWIDTH 500 0
DWIDTH 12 0
BBX 12 24 0 -4
BITMAP
0000
0000
0000
0000
0000
0000
0000
0000
1700
78C0
3040
3060
3060
3060
3060
3060
3060
3040
38C0
3700
3000
3000
7800
0000
ENDCHAR

STARTCHAR C71
ENCODING 113
SWIDTH 500 0
DWIDTH 12 0
BBX 12 24 0 -4
BITMAP
0000
0000
0000
0000
0000
0000
0000
0000
0E40
31C0
20C0
60C0
60C0
60C0
60C0
60C0
60C0
20C0
31C0
0EC0
00C0
00C0
01E0
0000
ENDCHAR

STARTCHAR C72
ENCODING 114
SWIDTH 500 0
DWIDTH 12 0
BBX 12 24 0 -4
BITMAP
0000
0000
0000
0000
0000
0000
0000
0000
1380
77C0
38C0
3000
3000
3000
3000
3000
3000
3000
3000
7800
0000
0000
0000
0000
ENDCHAR

STARTCHAR C73
ENCODING 115
SWIDTH 500 0
DWIDTH 12 0
BBX 12 24 0 -4
BITMAP
0000
0000
0000
0000
0000
0000
0000
0000
0F40
10C0
3040
3000
3800
1E00
0780
01C0
00C0
20C0
3080
2F00
0000
0000
0000
0000
ENDCHAR

STARTCHAR C74
ENCODING 116
SWIDTH 500 0
DWIDTH 12 0
BBX 12 24 0 -4
BITMAP
0000
0000
0000
0000
0000
0C00
0C00
0C00
0C00
3F80
0C00
0C00
0C00
0C00
0C00
0C00
0C00
0C40
0480
0300
0000
0000
0000
0000
ENDCHAR

STARTCHAR C75
ENCODING 117
SWIDTH 500 0
DWIDTH 12 0
BBX 12 24 0 -4
BITMAP
0000
0000
0000
0000
0000
0000
0000
0000
1040
71C0
30C0
30C0
30C0
30C0
30C0
30C0
30C0
30C0
11C0
0E60
0000
0000
0000
0000
ENDCHAR

STARTCHAR C76
ENCODING 118
SWIDTH 500 0
DWIDTH 12 0
BBX 12 24 0 -4
BITMAP
0000
0000
0000
0000
0000
0000
0000
0000
78E0
3040
3040
3040
1880
1880
1880
0D00
0D00
0D00
0600
0600
0000
0000
0000
0000
ENDCHAR

STARTCHAR C77
ENCODING 119
SWIDTH 500 0
DWIDTH 12 0
BBX 12 24 0 -4
BITMAP
0000
0000
0000
0000
0000
0000
0000
0000
6620
6620
6620
6620
6620
6B40
6B40
6B40
3180
3180
3180
3180
0000
0000
0000
0000
ENDCHAR

STARTCHAR C78
ENCODING 120
SWIDTH 500 0
DWIDTH 12 0
BBX 12 24 0 -4
BITMAP
0000
0000
0000
0000
0000
0000
0000
0000
79C0
3080
3080
1900
0D00
0600
0600
0B00
1180
10C0
20C0
71E0
0000
0000
0000
0000
ENDCHAR

STARTCHAR C79
ENCODING 121
SWIDTH 500 0
DWIDTH 12 0
BBX 12 24 0 -4
BITMAP
0000
0000
0000
0000
0000
0000
0000
0000
78E0
3040
3040
3040
1880
1880
1880
0D00
0D00
0D00
0600
0600
6400
6400
3800
0000
ENDCHAR

STARTCHAR C7a
ENCODING 122
SWIDTH 500 0
DWIDTH 12 0
BBX 12 24 0 -4
BITMAP
0000
0000
0000
0000
0000
0000
0000
0000
3FC0
20C0
4180
0300
0300
0600
0C00
1800
1800
3040
6080
7F80
0000
0000
0000
0000
ENDCHAR

STARTCHAR C7b
ENCODING 123
SWIDTH 500 0
DWIDTH 12 0
BBX 12 24 0 -4
BITMAP
0000
0040
0080
0080
0080
0080
0080
0080
0180
0100
0100
0200
0100
0100
0180
0080
0080
0080
0080
0080
0080
0080
0040
0000
ENDCHAR

STARTCHAR C7c
ENCODING 124
SWIDTH 500 0
DWIDTH 12 0
BBX 12 24 0 -4
BITMAP
0000
0400
0400
0400
0400
0400
0400
0400
0400
0400
0000
0000
0000
0000
0400
0400
0400
0400
0400
0400
0400
0400
0400
0000
ENDCHAR

STARTCHAR C7d
ENCODING 125
SWIDTH 500 0
DWIDTH 12 0
BBX 12 24 0 -4
BITMAP
0000
2000
1000
1000
1000
1000
1000
1000
1800
0800
0800
0400
0800
0800
1800
1000
1000
1000
1000
1000
1000
1000
2000
0000
ENDCHAR

STARTCHAR C7e
ENCODING 126
SWIDTH 500 0
DWIDTH 12 0
BBX 12 24 0 -4
BITMAP
0000
0C80
1300
0000
0000
0000
0000
0000
0000
0000
0000
0000
0000
0000
0000
0000
0000
0000
0000
0000
0000
0000
0000
0000
ENDCHAR

STARTCHAR C7f
ENCODING 127
SWIDTH 500 0
DWIDTH 12 0
BBX 12 24 0 -4
BITMAP
0000
0000
0000
0000
0000
0000
0000
0000
0000
0000
0000
0000
0000
0000
0000
0000
0000
0000
0000
0000
0000
0000
0000
0000
ENDCHAR

STARTCHAR no_break_space
ENCODING 160
SWIDTH 0 0
DWIDTH 0 0
BBX 1 1 0 0
BITMAP
00
ENDCHAR

STARTCHAR kokai
ENCODING 161
SWIDTH 1000 0
DWIDTH 12 0
BBX 10 10 1 0
BITMAP
3F80
61C0
C0C0
E0C0
60C0
60C0
60C0
60C0
60C0
60C0
ENDCHAR

STARTCHAR khokhai
ENCODING 162
SWIDTH 1000 0
DWIDTH 12 0
BBX 7 10 3 0
BITMAP
66
B6
B6
76
26
66
66
66
6C
38
ENDCHAR

STARTCHAR khokhuat
ENCODING 163
SWIDTH 1000 0
DWIDTH 12 0
BBX 10 10 1 0
BITMAP
6CC0
D6C0
66C0
0CC0
18C0
30C0
30C0
3180
1B00
0E00
ENDCHAR

STARTCHAR khokhwai
ENCODING 164
SWIDTH 1000 0
DWIDTH 12 0
BBX 10 10 1 0
BITMAP
3F80
61C0
C0C0
CCC0
DAC0
FCC0
E0C0
E0C0
C0C0
C0C0
ENDCHAR

STARTCHAR khokhon
ENCODING 165
SWIDTH 1000 0
DWIDTH 12 0
BBX 10 10 1 0
BITMAP
3B80
65C0
C0C0
CCC0
DAC0
DCC0
F0C0
E0C0
E0C0
C0C0
ENDCHAR

STARTCHAR khorakhang
ENCODING 166
SWIDTH 1000 0
DWIDTH 12 0
BBX 10 10 1 0
BITMAP
6CC0
D6C0
66C0
06C0
0CC0
18C0
78C0
BCC0
B7C0
6380
ENDCHAR

STARTCHAR ngongu
ENCODING 167
SWIDTH 1000 0
DWIDTH 12 0
BBX 9 10 2 0
BITMAP
0300
0580
0580
8380
C180
6180
3180
1980
0F80
0700
ENDCHAR

STARTCHAR chochan
ENCODING 168
SWIDTH 1000 0
DWIDTH 12 0
BBX 10 10 1 0
BITMAP
3F80
61C0
C0C0
88C0
14C0
16C0
0BC0
01C0
01C0
00C0
ENDCHAR

STARTCHAR choching
ENCODING 169
SWIDTH 1000 0
DWIDTH 12 0
BBX 11 10 1 0
BITMAP
3F00
6380
C180
3180
5980
5980
3BC0
1F60
1D60
19C0
ENDCHAR

STARTCHAR chochang
ENCODING 170
SWIDTH 1000 0
DWIDTH 12 0
BBX 8 12 2 0
BITMAP
03
03
63
B6
BC
66
26
66
66
66
6C
38
ENDCHAR

STARTCHAR soso
ENCODING 171
SWIDTH 1000 0
DWIDTH 12 0
BBX 10 12 1 0
BITMAP
00C0
00C0
68C0
D580
6F00
1980
3180
3180
3180
3300
1600
0C00
ENDCHAR

STARTCHAR chochoe
ENCODING 172
SWIDTH 1000 0
DWIDTH 12 0
BBX 11 10 1 0
BITMAP
7E60
C360
E360
4360
C360
C360
C760
AB60
ABE0
44E0
ENDCHAR

STARTCHAR yoying
ENCODING 173
SWIDTH 1000 0
DWIDTH 12 0
BBX 10 14 1 -4
BITMAP
7CC0
C6C0
E6C0
46C0
C6C0
C6C0
C6C0
A6C0
A6C0
47C0
0000
0240
0540
0380
ENDCHAR

STARTCHAR dochada
ENCODING 174
SWIDTH 1000 0
DWIDTH 12 0
BBX 10 14 1 -4
BITMAP
3F00
6180
C0C0
F0C0
30C0
30C0
70C0
B0C0
B0C0
62C0
02C0
0EC0
13C0
0DC0
ENDCHAR

STARTCHAR topatak
ENCODING 175
SWIDTH 1000 0
DWIDTH 12 0
BBX 10 14 1 -4
BITMAP
3F00
6180
C0C0
F0C0
30C0
30C0
70C0
B0C0
B0C0
68C0
0AC0
3AC0
4BC0
34C0
ENDCHAR

STARTCHAR thothan
ENCODING 176
SWIDTH 1000 0
DWIDTH 12 0
BBX 10 14 1 -4
BITMAP
3EC0
4100
FFC0
00C0
06C0
0AC0
0BC0
05C0
00C0
0000
10C0
5540
B4C0
4BC0
ENDCHAR

STARTCHAR thonangmontho
ENCODING 177
SWIDTH 1000 0
DWIDTH 12 0
BBX 10 10 1 0
BITMAP
5980
AAC0
4CC0
18C0
30C0
30C0
30C0
30C0
30C0
30C0
ENDCHAR

STARTCHAR thophuthao
ENCODING 178
SWIDTH 1000 0
DWIDTH 12 0
BBX 11 10 1 0
BITMAP
6E60
D360
C360
D360
EB60
DB60
D360
F560
E5E0
C260
ENDCHAR

STARTCHAR nonen
ENCODING 179
SWIDTH 1000 0
DWIDTH 12 0
BBX 11 10 1 0
BITMAP
7CC0
C6C0
E6C0
46C0
C6C0
C6C0
C6C0
A7A0
A7A0
4640
ENDCHAR

STARTCHAR dodek
ENCODING 180
SWIDTH 1000 0
DWIDTH 12 0
BBX 10 10 1 0
BITMAP
3F00
6180
C0C0
C8C0
D4C0
D4C0
CCC0
D8C0
F0C0
E0C0
ENDCHAR

STARTCHAR totao
ENCODING 181
SWIDTH 1000 0
DWIDTH 12 0
BBX 10 10 1 0
BITMAP
7B80
C4C0
C4C0
C8C0
D4C0
D4C0
CCC0
D8C0
F0C0
E0C0
ENDCHAR

STARTCHAR thothung
ENCODING 182
SWIDTH 1000 0
DWIDTH 12 0
BBX 10 10 1 0
BITMAP
7F80
C1C0
E0C0
40C0
C0C0
C0C0
E0C0
D0C0
D0C0
60C0
ENDCHAR

STARTCHAR thothahan
ENCODING 183
SWIDTH 1000 0
DWIDTH 12 0
BBX 10 10 1 0
BITMAP
6380
B6C0
BCC0
78C0
30C0
30C0
30C0
30C0
30C0
30C0
ENDCHAR

STARTCHAR thothong
ENCODING 184
SWIDTH 1000 0
DWIDTH 12 0
BBX 10 10 1 0
BITMAP
3EC0
6100
C000
FFC0
00C0
60C0
60C0
60C0
61C0
7F80
ENDCHAR

STARTCHAR nonu
ENCODING 185
SWIDTH 1000 0
DWIDTH 12 0
BBX 10 10 1 0
BITMAP
6180
B180
B180
7180
3180
3180
3380
3740
3D40
3980
ENDCHAR

STARTCHAR bobaimai
ENCODING 186
SWIDTH 1000 0
DWIDTH 12 0
BBX 10 10 1 0
BITMAP
60C0
B0C0
B0C0
70C0
30C0
30C0
30C0
30C0
30C0
3FC0
ENDCHAR

STARTCHAR popla
ENCODING 187
SWIDTH 1000 0
DWIDTH 12 0
BBX 10 13 1 0
BITMAP
00C0
00C0
00C0
60C0
B0C0
B0C0
70C0
30C0
30C0
30C0
30C0
30C0
3FC0
ENDCHAR

STARTCHAR phophung
ENCODING 188
SWIDTH 1000 0
DWIDTH 12 0
BBX 10 10 1 0
BITMAP
60C0
D0C0
D0C0
E0C0
C0C0
C4C0
CCC0
DEC0
7380
2100
ENDCHAR

STARTCHAR fofa
ENCODING 189
SWIDTH 1000 0
DWIDTH 12 0
BBX 10 12 1 0
BITMAP
00C0
00C0
60C0
D0C0
D0C0
E0C0
C0C0
C4C0
CCC0
DEC0
7380
2100
ENDCHAR

STARTCHAR phosamphao
ENCODING 190
SWIDTH 1000 0
DWIDTH 12 0
BBX 11 10 1 0
BITMAP
6260
B260
B260
7760
3760
3DE0
38E0
38E0
3060
3060
ENDCHAR

STARTCHAR moma
ENCODING 191
SWIDTH 1000 0
DWIDTH 12 0
BBX 11 12 1 0
BITMAP
0060
0060
6260
B260
B260
7760
3760
3DE0
38E0
38E0
3060
3060
ENDCHAR

STARTCHAR yoyak
ENCODING 192
SWIDTH 1000 0
DWIDTH 12 0
BBX 10 10 1 0
BITMAP
3F80
61C0
C0C0
F0C0
30C0
30C0
70C0
B0C0
B0C0
60C0
ENDCHAR

STARTCHAR moma
ENCODING 193
SWIDTH 1000 0
DWIDTH 12 0
BBX 10 10 1 0
BITMAP
60C0
B0C0
B0C0
70C0
30C0
30C0
78C0
BEC0
B7C0
61C0
ENDCHAR

STARTCHAR yoyak
ENCODING 194
SWIDTH 1000 0
DWIDTH 12 0
BBX 10 10 1 0
BITMAP
60C0
D0C0
D0C0
E0C0
C0C0
78C0
C0C0
C0C0
E1C0
7F80
ENDCHAR

STARTCHAR rorua
ENCODING 195
SWIDTH 1000 0
DWIDTH 12 0
BBX 10 10 1 0
BITMAP
3EC0
6100
C000
FF80
0180
0180
0380
0580
0580
0300
ENDCHAR

STARTCHAR ru
ENCODING 196
SWIDTH 1000 0
DWIDTH 12 0
BBX 10 14 1 -4
BITMAP
7F80
C1C0
E0C0
40C0
C0C0
C0C0
E0C0
D0C0
D0C0
60C0
00C0
00C0
00C0
00C0
ENDCHAR

STARTCHAR loling
ENCODING 197
SWIDTH 1000 0
DWIDTH 12 0
BBX 10 10 1 0
BITMAP
7F80
E1C0
C0C0
00C0
7CC0
C6C0
E3C0
D1C0
D1C0
60C0
ENDCHAR

STARTCHAR lu
ENCODING 198
SWIDTH 1000 0
DWIDTH 12 0
BBX 10 14 1 -4
BITMAP
3F80
61C0
C0C0
F0C0
30C0
30C0
70C0
B0C0
B0C0
60C0
00C0
00C0
00C0
00C0
ENDCHAR

STARTCHAR wowaen
ENCODING 199
SWIDTH 1000 0
DWIDTH 12 0
BBX 10 10 1 0
BITMAP
7F80
E1C0
C0C0
00C0
00C0
00C0
01C0
02C0
02C0
0180
ENDCHAR

STARTCHAR sosala
ENCODING 200
SWIDTH 1000 0
DWIDTH 12 0
BBX 10 12 1 0
BITMAP
00C0
0180
3F00
6180
C0C0
CCC0
DAC0
DAC0
F4C0
E0C0
E0C0
C0C0
ENDCHAR

STARTCHAR sorusi
ENCODING 201
SWIDTH 1000 0
DWIDTH 12 0
BBX 11 10 1 0
BITMAP
60C0
B0C0
B0C0
74C0
3AC0
37E0
30C0
30C0
30C0
3FC0
ENDCHAR

STARTCHAR sosua
ENCODING 202
SWIDTH 1000 0
DWIDTH 12 0
BBX 11 12 1 0
BITMAP
0060
00C0
7F80
E180
C0C0
78C0
FCC0
C6C0
E3C0
D1C0
D1C0
60C0
ENDCHAR

STARTCHAR hohip
ENCODING 203
SWIDTH 1000 0
DWIDTH 12 0
BBX 10 10 1 0
BITMAP
6180
B240
B240
7180
33C0
36C0
3CC0
38C0
38C0
30C0
ENDCHAR

STARTCHAR lochula
ENCODING 204
SWIDTH 1000 0
DWIDTH 12 0
BBX 11 12 1 0
BITMAP
00A0
0160
6140
B0C0
B0C0
76C0
36C0
3FC0
39C0
39C0
30C0
30C0
ENDCHAR

STARTCHAR oang
ENCODING 205
SWIDTH 1000 0
DWIDTH 12 0
BBX 10 10 1 0
BITMAP
7F80
E1C0
C0C0
60C0
D0C0
D0C0
E0C0
C0C0
E1C0
7F80
ENDCHAR

STARTCHAR honokhuk
ENCODING 206
SWIDTH 1000 0
DWIDTH 12 0
BBX 10 12 1 0
BITMAP
00C0
0180
7F80
C3C0
7EC0
60C0
D0C0
D0C0
E0C0
C0C0
E1C0
7F80
ENDCHAR

STARTCHAR paiyannoi
ENCODING 207
SWIDTH 1000 0
DWIDTH 12 0
BBX 10 10 1 0
BITMAP
60C0
D1C0
D3C0
7EC0
00C0
00C0
00C0
00C0
00C0
00C0
ENDCHAR

STARTCHAR sara_a
ENCODING 208
SWIDTH 1000 0
DWIDTH 12 0
BBX 9 9 2 1
BITMAP
6180
D300
D600
7C00
0000
6180
D300
D600
7C00
ENDCHAR

STARTCHAR maihunakat
ENCODING 209
SWIDTH 1000 0
DWIDTH 0 0
BBX 9 4 -10 11
BITMAP
6180
D300
D600
7C00
ENDCHAR

STARTCHAR sara_aa
ENCODING 210
SWIDTH 1000 0
DWIDTH 12 0
BBX 10 10 1 0
BITMAP
7F80
E1C0
C0C0
00C0
00C0
00C0
00C0
00C0
00C0
00C0
ENDCHAR

STARTCHAR sara_am
ENCODING 211
SWIDTH 1000 0
DWIDTH 12 0
BBX 11 14 0 0
BITMAP
6000
9000
6000
0000
1FC0
30E0
3060
0060
0060
0060
0060
0060
0060
0060
ENDCHAR

STARTCHAR sara_i
ENCODING 212
SWIDTH 1000 0
DWIDTH 0 0
BBX 9 3 -10 11
BITMAP
3E00
C180
FF80
ENDCHAR

STARTCHAR sara_ii
ENCODING 213
SWIDTH 1000 0
DWIDTH 0 0
BBX 9 4 -10 11
BITMAP
0080
3E80
C180
FF80
ENDCHAR

STARTCHAR sara_ue
ENCODING 214
SWIDTH 1000 0
DWIDTH 0 0
BBX 9 4 -10 11
BITMAP
0100
3E80
C380
FF80
ENDCHAR

STARTCHAR sara_uee
ENCODING 215
SWIDTH 1000 0
DWIDTH 0 0
BBX 9 4 -10 11
BITMAP
0280
3E80
C380
FF80
ENDCHAR

STARTCHAR sara_u
ENCODING 216
SWIDTH 1000 0
DWIDTH 0 0
BBX 4 4 -5 -4
BITMAP
60
B0
70
30
ENDCHAR

STARTCHAR sara_uu
ENCODING 217
SWIDTH 1000 0
DWIDTH 0 0
BBX 6 4 -7 -4
BITMAP
4C
AC
6C
3C
ENDCHAR

STARTCHAR phinthu
ENCODING 218
SWIDTH 1000 0
DWIDTH 0 0
BBX 2 2 -3 -3
BITMAP
C0
C0
ENDCHAR

STARTCHAR Word_Separator
ENCODING 220
SWIDTH 500 0
DWIDTH 0 0
BBX 12 24 0 -4
BITMAP
0000
0000
0000
0000
0000
0000
0000
0000
0000
0000
0000
0000
0000
0000
0000
0000
0000
0000
0000
0000
0000
0000
0000
0000
ENDCHAR

STARTCHAR baht
ENCODING 223
SWIDTH 1000 0
DWIDTH 12 0
BBX 10 13 1 0
BITMAP
0200
FF80
65C0
64C0
64C0
6580
7F00
6980
68C0
68C0
69C0
FF80
1000
ENDCHAR

STARTCHAR sara_e
ENCODING 224
SWIDTH 1000 0
DWIDTH 12 0
BBX 4 10 4 0
BITMAP
C0
C0
C0
C0
C0
C0
E0
D0
D0
60
ENDCHAR

STARTCHAR sara_ae
ENCODING 225
SWIDTH 1000 0
DWIDTH 12 0
BBX 10 10 1 0
BITMAP
C300
C300
C300
C300
C300
C300
E380
D340
D340
6180
ENDCHAR

STARTCHAR sara_o
ENCODING 226
SWIDTH 1000 0
DWIDTH 12 0
BBX 10 16 1 0
BITMAP
7EC0
E100
C000
7E00
0600
0600
0600
0600
0600
0600
0600
0600
0700
0680
0680
0300
ENDCHAR

STARTCHAR maimuan
ENCODING 227
SWIDTH 1000 0
DWIDTH 12 0
BBX 10 16 1 0
BITMAP
7E00
C300
8300
BB00
EB00
7B00
0300
0300
0300
0300
0300
0300
0300
03C0
0340
0180
ENDCHAR

STARTCHAR maimalai
ENCODING 228
SWIDTH 1000 0
DWIDTH 12 0
BBX 10 16 1 0
BITMAP
8600
4F00
3B00
1300
0300
0300
0300
0300
0300
0300
0300
0300
0300
0380
0340
0180
ENDCHAR

STARTCHAR lakkhangyao
ENCODING 229
SWIDTH 1000 0
DWIDTH 12 0
BBX 10 14 1 -4
BITMAP
7F80
E1C0
C0C0
00C0
00C0
00C0
00C0
00C0
00C0
00C0
00C0
00C0
00C0
00C0
ENDCHAR

STARTCHAR maiyamok
ENCODING 230
SWIDTH 1000 0
DWIDTH 12 0
BBX 10 14 1 -4
BITMAP
7B80
D5C0
D4C0
60C0
00C0
00C0
00C0
00C0
00C0
00C0
00C0
00C0
00C0
00C0
ENDCHAR

STARTCHAR maitaikhu
ENCODING 231
SWIDTH 1000 0
DWIDTH 0 0
BBX 7 4 -8 15
BITMAP
7A
C4
D6
6E
ENDCHAR

STARTCHAR maiek
ENCODING 232
SWIDTH 1000 0
DWIDTH 0 0
BBX 2 3 -5 16
BITMAP
C0
C0
C0
ENDCHAR

STARTCHAR maitho
ENCODING 233
SWIDTH 1000 0
DWIDTH 0 0
BBX 8 4 -9 15
BITMAP
40
A3
66
FC
ENDCHAR

STARTCHAR maitri
ENCODING 234
SWIDTH 1000 0
DWIDTH 0 0
BBX 9 4 -9 15
BITMAP
7480
CA80
EB00
6200
ENDCHAR

STARTCHAR maichattawa
ENCODING 235
SWIDTH 1000 0
DWIDTH 0 0
BBX 5 3 -7 15
BITMAP
20
F8
20
ENDCHAR

STARTCHAR thanthakhat
ENCODING 236
SWIDTH 1000 0
DWIDTH 0 0
BBX 6 4 -8 15
BITMAP
04
78
D0
60
ENDCHAR

STARTCHAR nikhahit
ENCODING 237
SWIDTH 1000 0
DWIDTH 0 0
BBX 4 3 -6 16
BITMAP
60
90
60
ENDCHAR

STARTCHAR yamakkan
ENCODING 238
SWIDTH 1000 0
DWIDTH 0 0
BBX 6 5 -8 11
BITMAP
1C
20
70
80
60
ENDCHAR

STARTCHAR fongman
ENCODING 239
SWIDTH 1000 0
DWIDTH 12 0
BBX 10 10 1 0
BITMAP
3F00
6180
C0C0
8C40
9240
9240
8C40
C0C0
6180
3F00
ENDCHAR

STARTCHAR thaizero
ENCODING 240
SWIDTH 1000 0
DWIDTH 12 0
BBX 10 9 1 0
BITMAP
3F00
4080
C0C0
C0C0
C0C0
C0C0
C0C0
4080
3F00
ENDCHAR

STARTCHAR thaione
ENCODING 241
SWIDTH 1000 0
DWIDTH 12 0
BBX 10 9 1 0
BITMAP
3F00
6180
C0C0
CCC0
D6C0
CEC0
66C0
3CC0
0180
ENDCHAR

STARTCHAR thaitwo
ENCODING 242
SWIDTH 1000 0
DWIDTH 12 0
BBX 10 11 1 0
BITMAP
8000
C000
CD80
DAC0
D8C0
DCC0
DAC0
CCC0
C0C0
E1C0
7F80
ENDCHAR

STARTCHAR thaithree
ENCODING 243
SWIDTH 1000 0
DWIDTH 12 0
BBX 10 9 1 0
BITMAP
7380
CCC0
CCC0
CCC0
C0C0
C0C0
E0C0
D0C0
60C0
ENDCHAR

STARTCHAR thaifour
ENCODING 244
SWIDTH 1000 0
DWIDTH 12 0
BBX 11 11 1 0
BITMAP
0060
00C0
3F80
6000
C000
C600
CD00
CE00
CC00
6780
3CC0
ENDCHAR

STARTCHAR thaifive
ENCODING 245
SWIDTH 1000 0
DWIDTH 12 0
BBX 11 11 1 0
BITMAP
0E60
0AC0
3F80
6000
C000
C600
CD00
CE00
CC00
6780
3CC0
ENDCHAR

STARTCHAR thaisix
ENCODING 246
SWIDTH 1000 0
DWIDTH 12 0
BBX 10 11 1 0
BITMAP
8000
8000
DF00
7180
20C0
00C0
30C0
68C0
71C0
6380
3F00
ENDCHAR

STARTCHAR thaiseven
ENCODING 247
SWIDTH 1000 0
DWIDTH 12 0
BBX 11 11 1 0
BITMAP
00C0
0060
7660
FF60
CB60
CB60
C360
E360
D360
D3C0
6180
ENDCHAR

STARTCHAR thaieight
ENCODING 248
SWIDTH 1000 0
DWIDTH 12 0
BBX 11 11 1 0
BITMAP
0060
00C0
3D80
6300
C000
C000
C980
CAC0
C9C0
7CC0
3780
ENDCHAR

STARTCHAR thainine
ENCODING 249
SWIDTH 1000 0
DWIDTH 12 0
BBX 10 10 1 0
BITMAP
00C0
0CC0
7F80
F300
9800
8C00
E600
D300
5000
2000
ENDCHAR

STARTCHAR angkhankhu
ENCODING 250
SWIDTH 1000 0
DWIDTH 12 0
BBX 9 10 1 0
BITMAP
4680
A680
AE80
CE80
7680
0680
0680
0680
0680
0C80
ENDCHAR

STARTCHAR khomut
ENCODING 251
SWIDTH 1000 0
DWIDTH 12 0
BBX 12 9 0 0
BITMAP
2000
5000
8800
AD40
AD50
AD60
B580
4A00
3000
ENDCHAR

ENDFONT
