STARTFONT 2.1
FONT -Monotype-Arial-Regular-R-Normal--14-140-75-75-P-69-iso8859-5
SIZE 14 75 75
FONTBOUNDINGBOX 17 17 -1 -3

STARTPROPERTIES 24
FOUNDRY "Monotype"
FAMILY_NAME "Arial"
WEIGHT_NAME "Regular"
SLANT "R"
SETWIDTH_NAME "Normal"
ADD_STYLE_NAME ""
PIXEL_SIZE 14
POINT_SIZE 140
RESOLUTION_X 75
RESOLUTION_Y 75
SPACING "P"
AVERAGE_WIDTH 69
CHARSET_REGISTRY "iso8859"
CHARSET_ENCODING "5"
FACE_NAME "Arial ISO Latin Cyrillic"
_DEC_DEVICE_FONTNAMES "PS=arial-latcyrillic"
COPYRIGHT "Copyright (c) 1994 Monotype Typography Ltd."
CAP_HEIGHT 12
X_HEIGHT 8
WEIGHT 10
QUAD_WIDTH 10
DEFAULT_CHAR 160
FONT_DESCENT 3
FONT_ASCENT 14
ENDPROPERTIES

CHARS 191

STARTCHAR space
ENCODING 32
SWIDTH 278 0
DWIDTH 5 0
BBX 0 0 0 0
BITMAP
ENDCHAR

STARTCHAR exclam
ENCODING 33
SWIDTH 278 0
DWIDTH 3 0
BBX 1 11 1 0
BITMAP
80
80
80
80
80
80
80
80
00
80
80
ENDCHAR

STARTCHAR quotedbl
ENCODING 34
SWIDTH 355 0
DWIDTH 5 0
BBX 5 4 0 7
BITMAP
D8
D8
D8
48
ENDCHAR

STARTCHAR numbersign
ENCODING 35
SWIDTH 556 0
DWIDTH 8 0
BBX 8 11 0 0
BITMAP
12
12
12
7F
24
24
24
FE
48
48
48
ENDCHAR

STARTCHAR dollar
ENCODING 36
SWIDTH 556 0
DWIDTH 8 0
BBX 7 15 1 -2
BITMAP
10
10
7C
92
92
90
90
7C
12
12
92
92
7C
10
10
ENDCHAR

STARTCHAR percent
ENCODING 37
SWIDTH 889 0
DWIDTH 13 0
BBX 11 12 1 -1
BITMAP
6080
9100
9100
9200
9200
6400
08C0
0920
1120
1120
2120
00C0
ENDCHAR

STARTCHAR ampersand
ENCODING 38
SWIDTH 667 0
DWIDTH 10 0
BBX 9 11 1 0
BITMAP
3800
6400
4400
6C00
3800
7800
CD00
8600
8600
C780
7900
ENDCHAR

STARTCHAR quoteright
ENCODING 39
SWIDTH 222 0
DWIDTH 3 0
BBX 2 4 0 7
BITMAP
C0
C0
C0
40
ENDCHAR

STARTCHAR parenleft
ENCODING 40
SWIDTH 333 0
DWIDTH 5 0
BBX 3 14 1 -3
BITMAP
20
40
40
C0
80
80
80
80
80
80
C0
40
60
20
ENDCHAR

STARTCHAR parenright
ENCODING 41
SWIDTH 333 0
DWIDTH 5 0
BBX 3 14 1 -3
BITMAP
80
40
40
60
20
20
20
20
20
20
60
40
40
80
ENDCHAR

STARTCHAR asterisk
ENCODING 42
SWIDTH 389 0
DWIDTH 6 0
BBX 5 5 0 6
BITMAP
20
A8
70
70
A8
ENDCHAR

STARTCHAR plus
ENCODING 43
SWIDTH 584 0
DWIDTH 9 0
BBX 7 7 1 2
BITMAP
10
10
10
FE
10
10
10
ENDCHAR

STARTCHAR comma
ENCODING 44
SWIDTH 278 0
DWIDTH 4 0
BBX 2 4 1 -2
BITMAP
C0
40
40
80
ENDCHAR

STARTCHAR minus
ENCODING 45
SWIDTH 584 0
DWIDTH 9 0
BBX 7 1 1 5
BITMAP
FE
ENDCHAR

STARTCHAR period
ENCODING 46
SWIDTH 278 0
DWIDTH 4 0
BBX 1 2 1 0
BITMAP
80
80
ENDCHAR

STARTCHAR slash
ENCODING 47
SWIDTH 278 0
DWIDTH 4 0
BBX 4 11 0 0
BITMAP
10
10
30
20
20
60
40
40
C0
80
80
ENDCHAR

STARTCHAR zero
ENCODING 48
SWIDTH 556 0
DWIDTH 8 0
BBX 6 11 1 0
BITMAP
78
CC
84
84
84
84
84
84
84
CC
78
ENDCHAR

STARTCHAR one
ENCODING 49
SWIDTH 556 0
DWIDTH 8 0
BBX 4 11 2 0
BITMAP
10
30
70
90
10
10
10
10
10
10
10
ENDCHAR

STARTCHAR two
ENCODING 50
SWIDTH 556 0
DWIDTH 8 0
BBX 6 11 1 0
BITMAP
78
84
84
04
08
08
10
20
20
40
FC
ENDCHAR

STARTCHAR three
ENCODING 51
SWIDTH 556 0
DWIDTH 8 0
BBX 6 11 1 0
BITMAP
78
8C
84
04
08
38
04
04
84
8C
78
ENDCHAR

STARTCHAR four
ENCODING 52
SWIDTH 556 0
DWIDTH 8 0
BBX 8 11 0 0
BITMAP
02
06
0A
1A
12
22
42
FF
02
02
02
ENDCHAR

STARTCHAR five
ENCODING 53
SWIDTH 556 0
DWIDTH 8 0
BBX 6 11 1 0
BITMAP
7C
40
40
80
F8
8C
04
04
84
8C
78
ENDCHAR

STARTCHAR six
ENCODING 54
SWIDTH 556 0
DWIDTH 8 0
BBX 6 11 1 0
BITMAP
78
CC
80
80
B8
CC
84
84
84
CC
78
ENDCHAR

STARTCHAR seven
ENCODING 55
SWIDTH 556 0
DWIDTH 8 0
BBX 7 11 1 0
BITMAP
FE
04
08
18
10
30
20
20
60
40
40
ENDCHAR

STARTCHAR eight
ENCODING 56
SWIDTH 556 0
DWIDTH 8 0
BBX 6 11 1 0
BITMAP
78
CC
84
84
CC
78
CC
84
84
CC
78
ENDCHAR

STARTCHAR nine
ENCODING 57
SWIDTH 556 0
DWIDTH 8 0
BBX 6 11 1 0
BITMAP
78
CC
84
84
84
CC
74
04
84
CC
78
ENDCHAR

STARTCHAR colon
ENCODING 58
SWIDTH 278 0
DWIDTH 4 0
BBX 1 8 1 0
BITMAP
80
80
00
00
00
00
80
80
ENDCHAR

STARTCHAR semicolon
ENCODING 59
SWIDTH 278 0
DWIDTH 4 0
BBX 2 10 1 -2
BITMAP
80
80
00
00
00
00
C0
40
40
80
ENDCHAR

STARTCHAR less
ENCODING 60
SWIDTH 584 0
DWIDTH 9 0
BBX 7 6 1 2
BITMAP
06
18
E0
E0
18
06
ENDCHAR

STARTCHAR equal
ENCODING 61
SWIDTH 584 0
DWIDTH 9 0
BBX 7 4 1 3
BITMAP
FE
00
00
FE
ENDCHAR

STARTCHAR greater
ENCODING 62
SWIDTH 584 0
DWIDTH 9 0
BBX 7 6 1 2
BITMAP
C0
30
0E
0E
30
C0
ENDCHAR

STARTCHAR question
ENCODING 63
SWIDTH 556 0
DWIDTH 8 0
BBX 6 11 1 0
BITMAP
78
CC
84
04
0C
18
30
20
00
20
20
ENDCHAR

STARTCHAR at
ENCODING 64
SWIDTH 1015 0
DWIDTH 15 0
BBX 13 14 1 -3
BITMAP
0F80
3060
4010
4750
8CC8
98C8
9088
9088
9190
99B0
4EE0
4008
3030
0FC0
ENDCHAR

STARTCHAR A
ENCODING 65
SWIDTH 667 0
DWIDTH 11 0
BBX 9 11 1 0
BITMAP
0800
0800
1400
1400
2200
2200
7E00
4100
4100
8080
8080
ENDCHAR

STARTCHAR B
ENCODING 66
SWIDTH 667 0
DWIDTH 9 0
BBX 7 11 1 0
BITMAP
FC
82
82
82
82
FC
82
82
82
82
FC
ENDCHAR

STARTCHAR C
ENCODING 67
SWIDTH 722 0
DWIDTH 11 0
BBX 9 11 1 0
BITMAP
1F00
6180
4080
8000
8000
8000
8000
8000
4080
6180
1F00
ENDCHAR

STARTCHAR D
ENCODING 68
SWIDTH 722 0
DWIDTH 10 0
BBX 8 11 1 0
BITMAP
F8
86
82
81
81
81
81
81
82
86
F8
ENDCHAR

STARTCHAR E
ENCODING 69
SWIDTH 667 0
DWIDTH 10 0
BBX 8 11 1 0
BITMAP
FF
80
80
80
80
FE
80
80
80
80
FF
ENDCHAR

STARTCHAR F
ENCODING 70
SWIDTH 611 0
DWIDTH 9 0
BBX 7 11 1 0
BITMAP
FE
80
80
80
80
FC
80
80
80
80
80
ENDCHAR

STARTCHAR G
ENCODING 71
SWIDTH 778 0
DWIDTH 11 0
BBX 9 11 1 0
BITMAP
1F00
6180
4080
8000
8000
8000
8780
8080
4080
6180
1F00
ENDCHAR

STARTCHAR H
ENCODING 72
SWIDTH 722 0
DWIDTH 10 0
BBX 8 11 1 0
BITMAP
81
81
81
81
81
FF
81
81
81
81
81
ENDCHAR

STARTCHAR I
ENCODING 73
SWIDTH 278 0
DWIDTH 5 0
BBX 1 11 2 0
BITMAP
80
80
80
80
80
80
80
80
80
80
80
ENDCHAR

STARTCHAR J
ENCODING 74
SWIDTH 500 0
DWIDTH 8 0
BBX 6 11 1 0
BITMAP
04
04
04
04
04
04
04
04
84
CC
78
ENDCHAR

STARTCHAR K
ENCODING 75
SWIDTH 667 0
DWIDTH 10 0
BBX 9 11 1 0
BITMAP
8100
8200
8400
8800
9000
B000
C800
8400
8200
8100
8080
ENDCHAR

STARTCHAR L
ENCODING 76
SWIDTH 556 0
DWIDTH 8 0
BBX 7 11 1 0
BITMAP
80
80
80
80
80
80
80
80
80
80
FE
ENDCHAR

STARTCHAR M
ENCODING 77
SWIDTH 833 0
DWIDTH 13 0
BBX 11 11 1 0
BITMAP
C060
C060
A0A0
A0A0
9120
9120
9120
8A20
8A20
8420
8420
ENDCHAR

STARTCHAR N
ENCODING 78
SWIDTH 722 0
DWIDTH 10 0
BBX 8 11 1 0
BITMAP
81
C1
C1
A1
91
91
89
85
85
83
81
ENDCHAR

STARTCHAR O
ENCODING 79
SWIDTH 778 0
DWIDTH 11 0
BBX 9 11 1 0
BITMAP
1C00
6300
4100
8080
8080
8080
8080
8080
4100
6300
1C00
ENDCHAR

STARTCHAR P
ENCODING 80
SWIDTH 667 0
DWIDTH 9 0
BBX 7 11 1 0
BITMAP
FC
82
82
82
82
FC
80
80
80
80
80
ENDCHAR

STARTCHAR Q
ENCODING 81
SWIDTH 778 0
DWIDTH 11 0
BBX 9 12 1 -1
BITMAP
1C00
6300
4100
8080
8080
8080
8080
8080
4900
6500
1E00
0300
ENDCHAR

STARTCHAR R
ENCODING 82
SWIDTH 722 0
DWIDTH 10 0
BBX 8 11 1 0
BITMAP
FE
81
81
81
81
FE
90
88
84
82
81
ENDCHAR

STARTCHAR S
ENCODING 83
SWIDTH 667 0
DWIDTH 9 0
BBX 7 11 1 0
BITMAP
7C
C2
82
C0
60
38
0C
06
82
86
7C
ENDCHAR

STARTCHAR T
ENCODING 84
SWIDTH 611 0
DWIDTH 9 0
BBX 9 11 0 0
BITMAP
FF80
0800
0800
0800
0800
0800
0800
0800
0800
0800
0800
ENDCHAR

STARTCHAR U
ENCODING 85
SWIDTH 722 0
DWIDTH 10 0
BBX 8 11 1 0
BITMAP
81
81
81
81
81
81
81
81
81
42
3C
ENDCHAR

STARTCHAR V
ENCODING 86
SWIDTH 667 0
DWIDTH 11 0
BBX 9 11 1 0
BITMAP
8080
8080
4100
4100
2200
2200
2200
1400
1400
0800
0800
ENDCHAR

STARTCHAR W
ENCODING 87
SWIDTH 944 0
DWIDTH 15 0
BBX 13 11 1 0
BITMAP
8208
8208
4210
4510
4510
2520
28A0
28A0
18C0
1040
1040
ENDCHAR

STARTCHAR X
ENCODING 88
SWIDTH 667 0
DWIDTH 10 0
BBX 8 11 1 0
BITMAP
81
42
42
24
24
18
24
24
42
42
81
ENDCHAR

STARTCHAR Y
ENCODING 89
SWIDTH 667 0
DWIDTH 9 0
BBX 9 11 0 0
BITMAP
8080
4100
4100
2200
1400
1400
0800
0800
0800
0800
0800
ENDCHAR

STARTCHAR Z
ENCODING 90
SWIDTH 611 0
DWIDTH 9 0
BBX 7 11 1 0
BITMAP
FE
02
04
08
08
10
20
20
40
80
FE
ENDCHAR

STARTCHAR bracketleft
ENCODING 91
SWIDTH 278 0
DWIDTH 4 0
BBX 3 14 1 -3
BITMAP
E0
80
80
80
80
80
80
80
80
80
80
80
80
E0
ENDCHAR

STARTCHAR backslash
ENCODING 92
SWIDTH 278 0
DWIDTH 4 0
BBX 4 11 0 0
BITMAP
80
80
80
40
40
40
20
20
20
10
10
ENDCHAR

STARTCHAR bracketright
ENCODING 93
SWIDTH 278 0
DWIDTH 4 0
BBX 3 14 0 -3
BITMAP
E0
20
20
20
20
20
20
20
20
20
20
20
20
E0
ENDCHAR

STARTCHAR asciicircum
ENCODING 94
SWIDTH 469 0
DWIDTH 7 0
BBX 7 6 0 5
BITMAP
10
38
28
6C
44
C6
ENDCHAR

STARTCHAR underscore
ENCODING 95
SWIDTH 556 0
DWIDTH 8 0
BBX 8 1 0 -2
BITMAP
FF
ENDCHAR

STARTCHAR quoteleft
ENCODING 96
SWIDTH 222 0
DWIDTH 3 0
BBX 2 4 1 7
BITMAP
40
80
80
C0
ENDCHAR

STARTCHAR a
ENCODING 97
SWIDTH 556 0
DWIDTH 8 0
BBX 7 8 1 0
BITMAP
78
84
04
7C
84
84
8C
76
ENDCHAR

STARTCHAR b
ENCODING 98
SWIDTH 556 0
DWIDTH 8 0
BBX 6 11 1 0
BITMAP
80
80
80
B8
CC
84
84
84
84
CC
B8
ENDCHAR

STARTCHAR c
ENCODING 99
SWIDTH 500 0
DWIDTH 8 0
BBX 6 8 1 0
BITMAP
78
CC
80
80
80
80
CC
78
ENDCHAR

STARTCHAR d
ENCODING 100
SWIDTH 556 0
DWIDTH 8 0
BBX 6 11 1 0
BITMAP
04
04
04
74
CC
84
84
84
84
CC
74
ENDCHAR

STARTCHAR e
ENCODING 101
SWIDTH 556 0
DWIDTH 8 0
BBX 6 8 1 0
BITMAP
78
84
84
FC
80
80
CC
78
ENDCHAR

STARTCHAR f
ENCODING 102
SWIDTH 278 0
DWIDTH 3 0
BBX 4 11 0 0
BITMAP
30
40
40
F0
40
40
40
40
40
40
40
ENDCHAR

STARTCHAR g
ENCODING 103
SWIDTH 556 0
DWIDTH 8 0
BBX 6 11 1 -3
BITMAP
74
CC
84
84
84
84
CC
74
04
88
70
ENDCHAR

STARTCHAR h
ENCODING 104
SWIDTH 556 0
DWIDTH 8 0
BBX 6 11 1 0
BITMAP
80
80
80
B8
CC
84
84
84
84
84
84
ENDCHAR

STARTCHAR i
ENCODING 105
SWIDTH 222 0
DWIDTH 3 0
BBX 1 11 1 0
BITMAP
80
80
00
80
80
80
80
80
80
80
80
ENDCHAR

STARTCHAR j
ENCODING 106
SWIDTH 222 0
DWIDTH 3 0
BBX 3 14 -1 -3
BITMAP
20
20
00
20
20
20
20
20
20
20
20
20
20
C0
ENDCHAR

STARTCHAR k
ENCODING 107
SWIDTH 500 0
DWIDTH 8 0
BBX 6 11 1 0
BITMAP
80
80
80
84
88
90
E0
A0
90
88
84
ENDCHAR

STARTCHAR l
ENCODING 108
SWIDTH 222 0
DWIDTH 3 0
BBX 1 11 1 0
BITMAP
80
80
80
80
80
80
80
80
80
80
80
ENDCHAR

STARTCHAR m
ENCODING 109
SWIDTH 833 0
DWIDTH 13 0
BBX 11 8 1 0
BITMAP
BBC0
CC60
8420
8420
8420
8420
8420
8420
ENDCHAR

STARTCHAR n
ENCODING 110
SWIDTH 556 0
DWIDTH 8 0
BBX 6 8 1 0
BITMAP
B8
CC
84
84
84
84
84
84
ENDCHAR

STARTCHAR o
ENCODING 111
SWIDTH 556 0
DWIDTH 8 0
BBX 6 8 1 0
BITMAP
78
CC
84
84
84
84
CC
78
ENDCHAR

STARTCHAR p
ENCODING 112
SWIDTH 556 0
DWIDTH 8 0
BBX 6 11 1 -3
BITMAP
B8
CC
84
84
84
84
CC
B8
80
80
80
ENDCHAR

STARTCHAR q
ENCODING 113
SWIDTH 556 0
DWIDTH 8 0
BBX 6 11 1 -3
BITMAP
74
CC
84
84
84
84
CC
74
04
04
04
ENDCHAR

STARTCHAR r
ENCODING 114
SWIDTH 333 0
DWIDTH 5 0
BBX 4 8 1 0
BITMAP
B0
C0
80
80
80
80
80
80
ENDCHAR

STARTCHAR s
ENCODING 115
SWIDTH 500 0
DWIDTH 8 0
BBX 6 8 1 0
BITMAP
78
84
80
60
18
04
84
78
ENDCHAR

STARTCHAR t
ENCODING 116
SWIDTH 278 0
DWIDTH 4 0
BBX 4 11 0 0
BITMAP
40
40
40
F0
40
40
40
40
40
40
30
ENDCHAR

STARTCHAR u
ENCODING 117
SWIDTH 556 0
DWIDTH 8 0
BBX 6 8 1 0
BITMAP
84
84
84
84
84
84
CC
74
ENDCHAR

STARTCHAR v
ENCODING 118
SWIDTH 500 0
DWIDTH 7 0
BBX 7 8 0 0
BITMAP
82
82
44
44
28
38
10
10
ENDCHAR

STARTCHAR w
ENCODING 119
SWIDTH 722 0
DWIDTH 11 0
BBX 11 8 0 0
BITMAP
8420
8420
4A40
4A40
4A40
3180
3180
3180
ENDCHAR

STARTCHAR x
ENCODING 120
SWIDTH 500 0
DWIDTH 8 0
BBX 6 8 1 0
BITMAP
84
48
48
30
30
48
48
84
ENDCHAR

STARTCHAR y
ENCODING 121
SWIDTH 500 0
DWIDTH 7 0
BBX 7 11 0 -3
BITMAP
82
82
44
44
28
28
10
10
20
20
C0
ENDCHAR

STARTCHAR z
ENCODING 122
SWIDTH 500 0
DWIDTH 7 0
BBX 7 8 0 0
BITMAP
FE
04
08
10
10
20
40
FE
ENDCHAR

STARTCHAR braceleft
ENCODING 123
SWIDTH 334 0
DWIDTH 5 0
BBX 5 14 0 -3
BITMAP
18
20
20
20
20
20
C0
C0
20
20
20
20
20
18
ENDCHAR

STARTCHAR bar
ENCODING 124
SWIDTH 260 0
DWIDTH 3 0
BBX 1 14 1 -3
BITMAP
80
80
80
80
80
80
80
80
80
80
80
80
80
80
ENDCHAR

STARTCHAR braceright
ENCODING 125
SWIDTH 334 0
DWIDTH 5 0
BBX 5 14 0 -3
BITMAP
C0
20
20
20
20
20
18
18
20
20
20
20
20
C0
ENDCHAR

STARTCHAR asciitilde
ENCODING 126
SWIDTH 584 0
DWIDTH 9 0
BBX 7 2 1 4
BITMAP
72
9C
ENDCHAR

STARTCHAR space
ENCODING 160
SWIDTH 278 0
DWIDTH 5 0
BBX 0 0 0 0
BITMAP
ENDCHAR

STARTCHAR afii10023
ENCODING 161
SWIDTH 667 0
DWIDTH 10 0
BBX 8 14 1 0
BITMAP
24
24
00
FF
80
80
80
80
FF
80
80
80
80
FF
ENDCHAR

STARTCHAR afii10051
ENCODING 162
SWIDTH 865 0
DWIDTH 13 0
BBX 12 11 0 0
BITMAP
FF80
0800
0800
0800
0BE0
0C10
0810
0810
0810
0810
09E0
ENDCHAR

STARTCHAR afii10052
ENCODING 163
SWIDTH 567 0
DWIDTH 9 0
BBX 7 14 1 0
BITMAP
08
10
00
FE
80
80
80
80
80
80
80
80
80
80
ENDCHAR

STARTCHAR afii10053
ENCODING 164
SWIDTH 717 0
DWIDTH 11 0
BBX 9 11 1 0
BITMAP
1F00
6180
4080
8000
8000
F800
8000
8000
4080
6180
1E00
ENDCHAR

STARTCHAR afii10054
ENCODING 165
SWIDTH 667 0
DWIDTH 10 0
BBX 7 11 2 0
BITMAP
7C
C2
82
C0
60
38
0C
06
82
86
7C
ENDCHAR

STARTCHAR afii10055
ENCODING 166
SWIDTH 278 0
DWIDTH 5 0
BBX 1 11 2 0
BITMAP
80
80
80
80
80
80
80
80
80
80
80
ENDCHAR

STARTCHAR afii10056
ENCODING 167
SWIDTH 278 0
DWIDTH 5 0
BBX 3 14 1 0
BITMAP
A0
A0
00
40
40
40
40
40
40
40
40
40
40
40
ENDCHAR

STARTCHAR afii10057
ENCODING 168
SWIDTH 500 0
DWIDTH 8 0
BBX 6 11 1 0
BITMAP
04
04
04
04
04
04
04
04
84
CC
78
ENDCHAR

STARTCHAR afii10058
ENCODING 169
SWIDTH 1105 0
DWIDTH 17 0
BBX 16 11 0 0
BITMAP
3F80
2080
2080
2080
2080
20FE
2081
2081
2081
2081
C0FE
ENDCHAR

STARTCHAR afii10059
ENCODING 170
SWIDTH 1009 0
DWIDTH 15 0
BBX 13 11 1 0
BITMAP
8400
8400
8400
8400
8400
FFF0
8408
8408
8408
8408
87F0
ENDCHAR

STARTCHAR afii10060
ENCODING 171
SWIDTH 867 0
DWIDTH 13 0
BBX 12 11 0 0
BITMAP
FF80
0800
0800
0800
0BE0
0C10
0810
0810
0810
0810
0810
ENDCHAR

STARTCHAR afii10061
ENCODING 172
SWIDTH 584 0
DWIDTH 9 0
BBX 8 14 1 0
BITMAP
08
10
00
83
84
88
90
A0
C0
A0
90
88
84
82
ENDCHAR

STARTCHAR hyphen
ENCODING 173
SWIDTH 333 0
DWIDTH 5 0
BBX 4 1 1 3
BITMAP
F0
ENDCHAR

STARTCHAR afii10062
ENCODING 174
SWIDTH 635 0
DWIDTH 10 0
BBX 8 14 1 0
BITMAP
42
3C
00
81
81
42
42
24
24
18
18
08
10
60
ENDCHAR

STARTCHAR afii10145
ENCODING 175
SWIDTH 723 0
DWIDTH 10 0
BBX 8 14 1 -3
BITMAP
81
81
81
81
81
81
81
81
81
81
FF
10
10
10
ENDCHAR

STARTCHAR afii10017
ENCODING 176
SWIDTH 667 0
DWIDTH 11 0
BBX 9 11 1 0
BITMAP
0800
0800
1400
1400
2200
2200
7E00
4100
4100
8080
8080
ENDCHAR

STARTCHAR afii10018
ENCODING 177
SWIDTH 655 0
DWIDTH 10 0
BBX 8 11 1 0
BITMAP
FE
80
80
80
80
FE
81
81
81
81
FE
ENDCHAR

STARTCHAR afii10019
ENCODING 178
SWIDTH 667 0
DWIDTH 10 0
BBX 7 11 2 0
BITMAP
FC
82
82
82
82
FC
82
82
82
82
FC
ENDCHAR

STARTCHAR afii10020
ENCODING 179
SWIDTH 567 0
DWIDTH 9 0
BBX 7 11 1 0
BITMAP
FE
80
80
80
80
80
80
80
80
80
80
ENDCHAR

STARTCHAR afii10021
ENCODING 180
SWIDTH 677 0
DWIDTH 10 0
BBX 9 14 0 -3
BITMAP
3F00
2100
2100
2100
2100
2100
2100
4100
4100
4100
FF80
8080
8080
8080
ENDCHAR

STARTCHAR afii10022
ENCODING 181
SWIDTH 667 0
DWIDTH 10 0
BBX 8 11 1 0
BITMAP
FF
80
80
80
80
FE
80
80
80
80
FF
ENDCHAR

STARTCHAR afii10024
ENCODING 182
SWIDTH 923 0
DWIDTH 14 0
BBX 13 11 0 0
BITMAP
C218
4210
2220
2220
1240
1FC0
1240
2220
2220
4218
C208
ENDCHAR

STARTCHAR afii10025
ENCODING 183
SWIDTH 604 0
DWIDTH 9 0
BBX 7 11 1 0
BITMAP
7C
C2
82
02
04
18
04
02
82
C2
7C
ENDCHAR

STARTCHAR afii10026
ENCODING 184
SWIDTH 722 0
DWIDTH 10 0
BBX 8 11 1 0
BITMAP
81
83
85
85
89
91
91
A1
C1
C1
81
ENDCHAR

STARTCHAR afii10027
ENCODING 185
SWIDTH 722 0
DWIDTH 10 0
BBX 8 13 1 0
BITMAP
22
1C
81
83
85
85
89
91
91
A1
C1
C1
81
ENDCHAR

STARTCHAR afii10028
ENCODING 186
SWIDTH 584 0
DWIDTH 9 0
BBX 8 11 1 0
BITMAP
83
84
88
90
A0
C0
A0
90
88
84
82
ENDCHAR

STARTCHAR afii10029
ENCODING 187
SWIDTH 705 0
DWIDTH 11 0
BBX 10 11 0 0
BITMAP
3FC0
2040
2040
2040
2040
2040
2040
2040
2040
2040
C040
ENDCHAR

STARTCHAR afii10030
ENCODING 188
SWIDTH 833 0
DWIDTH 13 0
BBX 11 11 1 0
BITMAP
C060
C060
A0A0
A0A0
9120
9120
9120
8A20
8A20
8420
8420
ENDCHAR

STARTCHAR afii10031
ENCODING 189
SWIDTH 722 0
DWIDTH 10 0
BBX 8 11 1 0
BITMAP
81
81
81
81
81
FF
81
81
81
81
81
ENDCHAR

STARTCHAR afii10032
ENCODING 190
SWIDTH 778 0
DWIDTH 12 0
BBX 10 11 1 0
BITMAP
1E00
6180
4080
8040
8040
8040
8040
8040
4080
6180
1E00
ENDCHAR

STARTCHAR afii10033
ENCODING 191
SWIDTH 723 0
DWIDTH 10 0
BBX 8 11 1 0
BITMAP
FF
81
81
81
81
81
81
81
81
81
81
ENDCHAR

STARTCHAR afii10034
ENCODING 192
SWIDTH 667 0
DWIDTH 10 0
BBX 8 11 1 0
BITMAP
FE
81
81
81
81
FE
80
80
80
80
80
ENDCHAR

STARTCHAR afii10035
ENCODING 193
SWIDTH 722 0
DWIDTH 11 0
BBX 9 11 1 0
BITMAP
1F00
6180
4080
8000
8000
8000
8000
8000
4080
6180
1F00
ENDCHAR

STARTCHAR afii10036
ENCODING 194
SWIDTH 611 0
DWIDTH 9 0
BBX 9 11 0 0
BITMAP
FF80
0800
0800
0800
0800
0800
0800
0800
0800
0800
0800
ENDCHAR

STARTCHAR afii10037
ENCODING 195
SWIDTH 635 0
DWIDTH 10 0
BBX 9 11 1 0
BITMAP
8080
8100
4100
2200
2200
1400
0C00
0800
0800
1000
6000
ENDCHAR

STARTCHAR afii10038
ENCODING 196
SWIDTH 760 0
DWIDTH 11 0
BBX 9 11 1 0
BITMAP
0800
0800
7F00
8880
8880
8880
8880
8880
7F00
0800
0800
ENDCHAR

STARTCHAR afii10039
ENCODING 197
SWIDTH 667 0
DWIDTH 10 0
BBX 8 11 1 0
BITMAP
81
42
42
24
24
18
24
24
42
42
81
ENDCHAR

STARTCHAR afii10040
ENCODING 198
SWIDTH 740 0
DWIDTH 11 0
BBX 9 14 1 -3
BITMAP
8100
8100
8100
8100
8100
8100
8100
8100
8100
8100
FF80
0080
0080
0080
ENDCHAR

STARTCHAR afii10041
ENCODING 199
SWIDTH 684 0
DWIDTH 10 0
BBX 8 11 1 0
BITMAP
81
81
81
81
81
C3
7D
01
01
01
01
ENDCHAR

STARTCHAR afii10042
ENCODING 200
SWIDTH 920 0
DWIDTH 13 0
BBX 11 11 1 0
BITMAP
8420
8420
8420
8420
8420
8420
8420
8420
8420
8420
FFE0
ENDCHAR

STARTCHAR afii10043
ENCODING 201
SWIDTH 939 0
DWIDTH 14 0
BBX 12 14 1 -3
BITMAP
8420
8420
8420
8420
8420
8420
8420
8420
8420
8420
FFF0
0010
0010
0010
ENDCHAR

STARTCHAR afii10044
ENCODING 202
SWIDTH 793 0
DWIDTH 12 0
BBX 10 11 1 0
BITMAP
F000
1000
1000
1000
1000
1F80
1040
1040
1040
1040
1F80
ENDCHAR

STARTCHAR afii10045
ENCODING 203
SWIDTH 883 0
DWIDTH 13 0
BBX 10 11 2 0
BITMAP
8040
8040
8040
8040
8040
FC40
8240
8240
8240
8240
FC40
ENDCHAR

STARTCHAR afii10046
ENCODING 204
SWIDTH 655 0
DWIDTH 10 0
BBX 8 11 1 0
BITMAP
80
80
80
80
80
FE
81
81
81
81
FE
ENDCHAR

STARTCHAR afii10047
ENCODING 205
SWIDTH 717 0
DWIDTH 11 0
BBX 9 11 1 0
BITMAP
3C00
6300
C100
0080
0080
0F80
0080
0080
C100
6300
3C00
ENDCHAR

STARTCHAR afii10048
ENCODING 206
SWIDTH 1006 0
DWIDTH 15 0
BBX 13 11 1 0
BITMAP
83C0
8C30
8810
9008
9008
F008
9008
9008
8810
8C30
83C0
ENDCHAR

STARTCHAR afii10049
ENCODING 207
SWIDTH 722 0
DWIDTH 11 0
BBX 9 11 1 0
BITMAP
3F80
4080
4080
4080
4080
3F80
0880
1080
2080
4080
8080
ENDCHAR

STARTCHAR afii10065
ENCODING 208
SWIDTH 556 0
DWIDTH 8 0
BBX 7 8 1 0
BITMAP
78
84
04
7C
84
84
8C
76
ENDCHAR

STARTCHAR afii10066
ENCODING 209
SWIDTH 573 0
DWIDTH 9 0
BBX 7 11 1 0
BITMAP
1E
60
40
BC
C6
C2
82
82
82
C6
7C
ENDCHAR

STARTCHAR afii10067
ENCODING 210
SWIDTH 531 0
DWIDTH 8 0
BBX 6 8 1 0
BITMAP
F8
84
84
F8
84
84
84
F8
ENDCHAR

STARTCHAR afii10068
ENCODING 211
SWIDTH 383 0
DWIDTH 6 0
BBX 5 8 1 0
BITMAP
F8
80
80
80
80
80
80
80
ENDCHAR

STARTCHAR afii10069
ENCODING 212
SWIDTH 583 0
DWIDTH 9 0
BBX 8 10 0 -2
BITMAP
3E
22
22
22
22
42
42
FF
81
81
ENDCHAR

STARTCHAR afii10070
ENCODING 213
SWIDTH 556 0
DWIDTH 8 0
BBX 6 8 1 0
BITMAP
78
CC
84
FC
80
80
CC
78
ENDCHAR

STARTCHAR afii10072
ENCODING 214
SWIDTH 669 0
DWIDTH 10 0
BBX 11 8 0 0
BITMAP
64C0
2480
1500
1E00
3580
2480
64C0
C460
ENDCHAR

STARTCHAR afii10073
ENCODING 215
SWIDTH 458 0
DWIDTH 7 0
BBX 5 8 1 0
BITMAP
70
88
08
30
08
08
88
70
ENDCHAR

STARTCHAR afii10074
ENCODING 216
SWIDTH 559 0
DWIDTH 8 0
BBX 6 8 1 0
BITMAP
84
8C
8C
94
A4
C4
C4
84
ENDCHAR

STARTCHAR afii10075
ENCODING 217
SWIDTH 559 0
DWIDTH 8 0
BBX 6 11 1 0
BITMAP
CC
78
00
84
8C
8C
94
A4
C4
C4
84
ENDCHAR

STARTCHAR afii10076
ENCODING 218
SWIDTH 437 0
DWIDTH 7 0
BBX 5 8 1 0
BITMAP
98
A0
A0
C0
A0
90
90
88
ENDCHAR

STARTCHAR afii10077
ENCODING 219
SWIDTH 571 0
DWIDTH 9 0
BBX 8 8 0 0
BITMAP
3F
21
21
21
21
21
21
C1
ENDCHAR

STARTCHAR afii10078
ENCODING 220
SWIDTH 683 0
DWIDTH 10 0
BBX 8 8 1 0
BITMAP
81
C3
C3
A5
A5
99
99
99
ENDCHAR

STARTCHAR afii10079
ENCODING 221
SWIDTH 552 0
DWIDTH 8 0
BBX 6 8 1 0
BITMAP
84
84
84
FC
84
84
84
84
ENDCHAR

STARTCHAR afii10080
ENCODING 222
SWIDTH 556 0
DWIDTH 8 0
BBX 6 8 1 0
BITMAP
78
CC
84
84
84
84
CC
78
ENDCHAR

STARTCHAR afii10081
ENCODING 223
SWIDTH 542 0
DWIDTH 8 0
BBX 6 8 1 0
BITMAP
FC
84
84
84
84
84
84
84
ENDCHAR

STARTCHAR afii10082
ENCODING 224
SWIDTH 556 0
DWIDTH 8 0
BBX 6 11 1 -3
BITMAP
B8
CC
84
84
84
84
CC
B8
80
80
80
ENDCHAR

STARTCHAR afii10083
ENCODING 225
SWIDTH 500 0
DWIDTH 8 0
BBX 6 8 1 0
BITMAP
78
CC
80
80
80
80
CC
78
ENDCHAR

STARTCHAR afii10084
ENCODING 226
SWIDTH 458 0
DWIDTH 7 0
BBX 7 8 0 0
BITMAP
FE
10
10
10
10
10
10
10
ENDCHAR

STARTCHAR afii10085
ENCODING 227
SWIDTH 500 0
DWIDTH 8 0
BBX 6 11 1 -3
BITMAP
84
84
88
48
50
50
30
20
20
40
80
ENDCHAR

STARTCHAR afii10086
ENCODING 228
SWIDTH 823 0
DWIDTH 12 0
BBX 11 14 1 -3
BITMAP
0400
0400
0400
75C0
8E20
8420
8420
8420
8420
8E20
75C0
0400
0400
0400
ENDCHAR

STARTCHAR afii10087
ENCODING 229
SWIDTH 500 0
DWIDTH 8 0
BBX 6 8 1 0
BITMAP
84
48
48
30
30
48
48
84
ENDCHAR

STARTCHAR afii10088
ENCODING 230
SWIDTH 562 0
DWIDTH 8 0
BBX 7 11 1 -3
BITMAP
84
84
84
84
84
84
84
FE
02
02
02
ENDCHAR

STARTCHAR afii10089
ENCODING 231
SWIDTH 533 0
DWIDTH 8 0
BBX 6 8 1 0
BITMAP
84
84
84
8C
74
04
04
04
ENDCHAR

STARTCHAR afii10090
ENCODING 232
SWIDTH 802 0
DWIDTH 11 0
BBX 9 8 1 0
BITMAP
8880
8880
8880
8880
8880
8880
8880
FF80
ENDCHAR

STARTCHAR afii10091
ENCODING 233
SWIDTH 823 0
DWIDTH 12 0
BBX 10 11 1 -3
BITMAP
8880
8880
8880
8880
8880
8880
8880
FFC0
0040
0040
0040
ENDCHAR

STARTCHAR afii10092
ENCODING 234
SWIDTH 620 0
DWIDTH 9 0
BBX 9 8 0 0
BITMAP
F000
1000
1000
1F00
1080
1080
1080
1F00
ENDCHAR

STARTCHAR afii10093
ENCODING 235
SWIDTH 717 0
DWIDTH 10 0
BBX 8 8 1 0
BITMAP
81
81
81
F9
85
85
85
F9
ENDCHAR

STARTCHAR afii10094
ENCODING 236
SWIDTH 523 0
DWIDTH 8 0
BBX 6 8 1 0
BITMAP
80
80
80
F8
84
84
84
F8
ENDCHAR

STARTCHAR afii10095
ENCODING 237
SWIDTH 510 0
DWIDTH 8 0
BBX 6 8 1 0
BITMAP
78
8C
04
3C
04
04
8C
78
ENDCHAR

STARTCHAR afii10096
ENCODING 238
SWIDTH 744 0
DWIDTH 11 0
BBX 9 8 1 0
BITMAP
8F00
9980
9080
F080
9080
9080
9980
8F00
ENDCHAR

STARTCHAR afii10097
ENCODING 239
SWIDTH 542 0
DWIDTH 8 0
BBX 7 8 0 0
BITMAP
3E
42
42
42
3E
22
42
82
ENDCHAR

STARTCHAR afii61352
ENCODING 240
SWIDTH 1073 0
DWIDTH 16 0
BBX 14 11 1 0
BITMAP
8100
C100
C138
A144
9144
9144
8944
8538
8500
837C
8100
ENDCHAR

STARTCHAR afii10071
ENCODING 241
SWIDTH 556 0
DWIDTH 8 0
BBX 6 11 1 0
BITMAP
48
48
00
78
CC
84
FC
80
80
CC
78
ENDCHAR

STARTCHAR afii10099
ENCODING 242
SWIDTH 556 0
DWIDTH 8 0
BBX 7 14 0 -3
BITMAP
40
F8
40
5C
66
42
42
42
42
42
42
02
02
0C
ENDCHAR

STARTCHAR afii10100
ENCODING 243
SWIDTH 383 0
DWIDTH 6 0
BBX 4 11 1 0
BITMAP
20
40
00
F0
80
80
80
80
80
80
80
ENDCHAR

STARTCHAR afii10101
ENCODING 244
SWIDTH 510 0
DWIDTH 8 0
BBX 6 8 1 0
BITMAP
78
CC
84
F0
80
84
CC
78
ENDCHAR

STARTCHAR afii10102
ENCODING 245
SWIDTH 500 0
DWIDTH 8 0
BBX 6 8 1 0
BITMAP
78
84
80
60
18
04
84
78
ENDCHAR

STARTCHAR afii10103
ENCODING 246
SWIDTH 222 0
DWIDTH 3 0
BBX 1 11 1 0
BITMAP
80
80
00
80
80
80
80
80
80
80
80
ENDCHAR

STARTCHAR afii10104
ENCODING 247
SWIDTH 278 0
DWIDTH 3 0
BBX 3 11 0 0
BITMAP
A0
A0
00
40
40
40
40
40
40
40
40
ENDCHAR

STARTCHAR afii10105
ENCODING 248
SWIDTH 222 0
DWIDTH 3 0
BBX 3 14 -1 -3
BITMAP
20
20
00
20
20
20
20
20
20
20
20
20
20
C0
ENDCHAR

STARTCHAR afii10106
ENCODING 249
SWIDTH 873 0
DWIDTH 13 0
BBX 13 8 0 0
BITMAP
3F00
2100
2100
21F0
2108
2108
2108
C1F0
ENDCHAR

STARTCHAR afii10107
ENCODING 250
SWIDTH 811 0
DWIDTH 12 0
BBX 10 8 1 0
BITMAP
8800
8800
8800
8800
FF80
8840
8840
8F80
ENDCHAR

STARTCHAR afii10108
ENCODING 251
SWIDTH 556 0
DWIDTH 8 0
BBX 7 11 0 0
BITMAP
40
F8
40
5C
66
42
42
42
42
42
42
ENDCHAR

STARTCHAR afii10109
ENCODING 252
SWIDTH 437 0
DWIDTH 7 0
BBX 6 11 1 0
BITMAP
10
20
00
8C
90
A0
C0
A0
90
90
88
ENDCHAR

STARTCHAR section
ENCODING 253
SWIDTH 556 0
DWIDTH 8 0
BBX 7 14 1 -3
BITMAP
3C
46
42
60
78
8C
86
C2
72
3C
0C
84
C4
78
ENDCHAR

STARTCHAR afii10110
ENCODING 254
SWIDTH 500 0
DWIDTH 8 0
BBX 6 14 1 -3
BITMAP
CC
78
00
84
84
48
48
58
30
30
20
20
40
80
ENDCHAR

STARTCHAR afii10193
ENCODING 255
SWIDTH 542 0
DWIDTH 8 0
BBX 6 11 1 -3
BITMAP
84
84
84
84
84
84
84
FC
20
20
20
ENDCHAR

ENDFONT
