STARTFONT 2.1
FONT -Monotype-Arial Narrow-Regular-R-Normal--18-180-75-75-P-72-iso8859-2
SIZE 18 75 75
FONTBOUNDINGBOX 19 22 -3 -4

STARTPROPERTIES 24
FOUNDRY "Monotype"
FAMILY_NAME "Arial Narrow"
WEIGHT_NAME "Regular"
SLANT "R"
SETWIDTH_NAME "Normal"
ADD_STYLE_NAME ""
PIXEL_SIZE 18
POINT_SIZE 180
RESOLUTION_X 75
RESOLUTION_Y 75
SPACING "P"
AVERAGE_WIDTH 72
CHARSET_REGISTRY "iso8859"
CHARSET_ENCODING "2"
FACE_NAME "Arial Narrow ISO Latin2"
_DEC_DEVICE_FONTNAMES "PS=arialnarrow-lat2"
COPYRIGHT "Copyright (c) 1994 Monotype Typography Ltd."
CAP_HEIGHT 15
X_HEIGHT 11
WEIGHT 10
QUAD_WIDTH 9
DEFAULT_CHAR 160
FONT_DESCENT 4
FONT_ASCENT 18
ENDPROPERTIES

CHARS 191

STARTCHAR space
ENCODING 32
SWIDTH 228 0
DWIDTH 4 0
BBX 0 0 0 0
BITMAP
ENDCHAR

STARTCHAR exclam
ENCODING 33
SWIDTH 228 0
DWIDTH 4 0
BBX 2 14 1 0
BITMAP
C0
C0
C0
C0
C0
C0
C0
C0
C0
C0
C0
00
C0
C0
ENDCHAR

STARTCHAR quotedbl
ENCODING 34
SWIDTH 291 0
DWIDTH 6 0
BBX 5 5 1 9
BITMAP
D8
D8
D8
D8
D8
ENDCHAR

STARTCHAR numbersign
ENCODING 35
SWIDTH 456 0
DWIDTH 9 0
BBX 9 14 0 0
BITMAP
3300
3300
3300
FF80
FF80
6600
6600
6600
FF80
FF80
6600
6600
6600
6600
ENDCHAR

STARTCHAR dollar
ENCODING 36
SWIDTH 456 0
DWIDTH 9 0
BBX 7 17 1 -2
BITMAP
10
7C
FE
D6
D0
D0
F0
78
1C
16
16
D6
D6
FE
7C
10
10
ENDCHAR

STARTCHAR percent
ENCODING 37
SWIDTH 729 0
DWIDTH 14 0
BBX 12 14 1 0
BITMAP
70C0
F8C0
D980
D980
DB00
FB00
7300
06E0
07F0
0DB0
0DB0
19B0
19F0
30E0
ENDCHAR

STARTCHAR ampersand
ENCODING 38
SWIDTH 547 0
DWIDTH 10 0
BBX 10 14 0 0
BITMAP
1C00
3E00
3600
3600
3600
1C00
3800
6D80
CD80
C780
C300
C380
7EC0
3CC0
ENDCHAR

STARTCHAR quoteright
ENCODING 39
SWIDTH 182 0
DWIDTH 3 0
BBX 2 5 1 9
BITMAP
C0
C0
40
40
80
ENDCHAR

STARTCHAR parenleft
ENCODING 40
SWIDTH 273 0
DWIDTH 5 0
BBX 4 18 1 -4
BITMAP
30
60
60
C0
C0
C0
C0
C0
C0
C0
C0
C0
C0
C0
C0
60
60
30
ENDCHAR

STARTCHAR parenright
ENCODING 41
SWIDTH 273 0
DWIDTH 5 0
BBX 4 18 1 -4
BITMAP
C0
60
60
30
30
30
30
30
30
30
30
30
30
30
30
60
60
C0
ENDCHAR

STARTCHAR asterisk
ENCODING 42
SWIDTH 319 0
DWIDTH 6 0
BBX 5 6 1 8
BITMAP
30
30
F8
F8
70
D8
ENDCHAR

STARTCHAR plus
ENCODING 43
SWIDTH 479 0
DWIDTH 9 0
BBX 8 8 1 3
BITMAP
18
18
18
FF
FF
18
18
18
ENDCHAR

STARTCHAR comma
ENCODING 44
SWIDTH 228 0
DWIDTH 4 0
BBX 2 5 1 -3
BITMAP
C0
C0
40
40
80
ENDCHAR

STARTCHAR minus
ENCODING 45
SWIDTH 479 0
DWIDTH 9 0
BBX 7 2 1 6
BITMAP
FE
FE
ENDCHAR

STARTCHAR period
ENCODING 46
SWIDTH 228 0
DWIDTH 4 0
BBX 2 2 1 0
BITMAP
C0
C0
ENDCHAR

STARTCHAR slash
ENCODING 47
SWIDTH 228 0
DWIDTH 4 0
BBX 5 15 0 -1
BITMAP
18
18
18
18
30
30
30
30
60
60
60
60
C0
C0
C0
ENDCHAR

STARTCHAR zero
ENCODING 48
SWIDTH 456 0
DWIDTH 9 0
BBX 7 14 1 0
BITMAP
38
7C
C6
C6
C6
C6
C6
C6
C6
C6
C6
C6
7C
38
ENDCHAR

STARTCHAR one
ENCODING 49
SWIDTH 456 0
DWIDTH 9 0
BBX 5 14 2 0
BITMAP
18
38
78
D8
98
18
18
18
18
18
18
18
18
18
ENDCHAR

STARTCHAR two
ENCODING 50
SWIDTH 456 0
DWIDTH 9 0
BBX 7 14 1 0
BITMAP
38
7C
C6
C6
06
06
0C
0C
18
30
60
C0
FE
FE
ENDCHAR

STARTCHAR three
ENCODING 51
SWIDTH 456 0
DWIDTH 9 0
BBX 7 14 1 0
BITMAP
38
7C
C6
C6
06
06
3C
3E
06
06
C6
C6
7C
38
ENDCHAR

STARTCHAR four
ENCODING 52
SWIDTH 456 0
DWIDTH 9 0
BBX 8 14 1 0
BITMAP
06
0E
0E
1E
36
36
66
66
C6
FF
FF
06
06
06
ENDCHAR

STARTCHAR five
ENCODING 53
SWIDTH 456 0
DWIDTH 9 0
BBX 7 14 1 0
BITMAP
7E
7E
60
60
C0
F8
FC
C6
06
06
06
C6
FC
78
ENDCHAR

STARTCHAR six
ENCODING 54
SWIDTH 456 0
DWIDTH 9 0
BBX 7 14 1 0
BITMAP
3C
7E
66
C0
C0
D8
FC
E6
C6
C6
C6
C6
7C
38
ENDCHAR

STARTCHAR seven
ENCODING 55
SWIDTH 456 0
DWIDTH 9 0
BBX 7 14 1 0
BITMAP
FE
FE
06
06
0C
0C
18
18
30
30
30
60
60
60
ENDCHAR

STARTCHAR eight
ENCODING 56
SWIDTH 456 0
DWIDTH 9 0
BBX 7 14 1 0
BITMAP
38
7C
C6
C6
C6
6C
38
6C
C6
C6
C6
C6
7C
38
ENDCHAR

STARTCHAR nine
ENCODING 57
SWIDTH 456 0
DWIDTH 9 0
BBX 7 14 1 0
BITMAP
38
7C
C6
C6
C6
C6
CE
7E
36
06
06
CC
FC
78
ENDCHAR

STARTCHAR colon
ENCODING 58
SWIDTH 228 0
DWIDTH 4 0
BBX 2 10 1 0
BITMAP
C0
C0
00
00
00
00
00
00
C0
C0
ENDCHAR

STARTCHAR semicolon
ENCODING 59
SWIDTH 228 0
DWIDTH 4 0
BBX 2 13 1 -3
BITMAP
C0
C0
00
00
00
00
00
00
C0
C0
40
40
80
ENDCHAR

STARTCHAR less
ENCODING 60
SWIDTH 479 0
DWIDTH 9 0
BBX 8 8 1 3
BITMAP
03
0F
3C
F0
F0
3C
0F
03
ENDCHAR

STARTCHAR equal
ENCODING 61
SWIDTH 479 0
DWIDTH 9 0
BBX 7 6 1 4
BITMAP
FE
FE
00
00
FE
FE
ENDCHAR

STARTCHAR greater
ENCODING 62
SWIDTH 479 0
DWIDTH 9 0
BBX 8 8 1 3
BITMAP
C0
F0
3C
0F
0F
3C
F0
C0
ENDCHAR

STARTCHAR question
ENCODING 63
SWIDTH 456 0
DWIDTH 9 0
BBX 7 14 1 0
BITMAP
38
7C
C6
C6
06
06
0C
0C
18
18
18
00
18
18
ENDCHAR

STARTCHAR at
ENCODING 64
SWIDTH 832 0
DWIDTH 16 0
BBX 14 18 1 -4
BITMAP
0FC0
1FF0
3018
6018
676C
CFEC
CCCC
D8CC
D8CC
D8CC
D8D8
D998
CFF0
6EE0
600C
3018
1FF0
0FE0
ENDCHAR

STARTCHAR A
ENCODING 65
SWIDTH 547 0
DWIDTH 10 0
BBX 10 14 0 0
BITMAP
0C00
0C00
1E00
1E00
3300
3300
3300
6180
7F80
7F80
6180
C0C0
C0C0
C0C0
ENDCHAR

STARTCHAR B
ENCODING 66
SWIDTH 547 0
DWIDTH 10 0
BBX 8 14 1 0
BITMAP
F8
FC
C6
C6
C6
C6
FC
FE
C3
C3
C3
C3
FE
FC
ENDCHAR

STARTCHAR C
ENCODING 67
SWIDTH 592 0
DWIDTH 11 0
BBX 9 14 1 0
BITMAP
1E00
3F00
6180
6180
C000
C000
C000
C000
C000
C000
6180
6180
3F00
1E00
ENDCHAR

STARTCHAR D
ENCODING 68
SWIDTH 592 0
DWIDTH 11 0
BBX 9 14 1 0
BITMAP
FC00
FE00
C300
C300
C180
C180
C180
C180
C180
C180
C300
C300
FE00
FC00
ENDCHAR

STARTCHAR E
ENCODING 69
SWIDTH 547 0
DWIDTH 10 0
BBX 8 14 1 0
BITMAP
FF
FF
C0
C0
C0
C0
FE
FE
C0
C0
C0
C0
FF
FF
ENDCHAR

STARTCHAR F
ENCODING 70
SWIDTH 501 0
DWIDTH 9 0
BBX 7 14 1 0
BITMAP
FE
FE
C0
C0
C0
C0
FC
FC
C0
C0
C0
C0
C0
C0
ENDCHAR

STARTCHAR G
ENCODING 71
SWIDTH 638 0
DWIDTH 12 0
BBX 10 14 1 0
BITMAP
1F00
3F80
60C0
60C0
C000
C000
C000
C3C0
C3C0
C0C0
60C0
60C0
3F80
1F00
ENDCHAR

STARTCHAR H
ENCODING 72
SWIDTH 592 0
DWIDTH 11 0
BBX 9 14 1 0
BITMAP
C180
C180
C180
C180
C180
C180
FF80
FF80
C180
C180
C180
C180
C180
C180
ENDCHAR

STARTCHAR I
ENCODING 73
SWIDTH 228 0
DWIDTH 4 0
BBX 2 14 1 0
BITMAP
C0
C0
C0
C0
C0
C0
C0
C0
C0
C0
C0
C0
C0
C0
ENDCHAR

STARTCHAR J
ENCODING 74
SWIDTH 410 0
DWIDTH 8 0
BBX 7 14 0 0
BITMAP
06
06
06
06
06
06
06
06
06
06
C6
C6
7C
38
ENDCHAR

STARTCHAR K
ENCODING 75
SWIDTH 547 0
DWIDTH 10 0
BBX 9 14 1 0
BITMAP
C180
C300
C600
CC00
D800
F800
F800
EC00
CC00
C600
C600
C300
C300
C180
ENDCHAR

STARTCHAR L
ENCODING 76
SWIDTH 456 0
DWIDTH 9 0
BBX 7 14 1 0
BITMAP
C0
C0
C0
C0
C0
C0
C0
C0
C0
C0
C0
C0
FE
FE
ENDCHAR

STARTCHAR M
ENCODING 77
SWIDTH 683 0
DWIDTH 14 0
BBX 12 14 1 0
BITMAP
E070
E070
F0F0
F0F0
D9B0
D9B0
D9B0
D9B0
D9B0
CF30
CF30
C630
C630
C630
ENDCHAR

STARTCHAR N
ENCODING 78
SWIDTH 592 0
DWIDTH 11 0
BBX 9 14 1 0
BITMAP
C180
E180
E180
F180
F180
D980
CD80
CD80
C780
C780
C380
C380
C180
C180
ENDCHAR

STARTCHAR O
ENCODING 79
SWIDTH 638 0
DWIDTH 12 0
BBX 10 14 1 0
BITMAP
1E00
3F00
6180
6180
C0C0
C0C0
C0C0
C0C0
C0C0
C0C0
6180
6180
3F00
1E00
ENDCHAR

STARTCHAR P
ENCODING 80
SWIDTH 547 0
DWIDTH 10 0
BBX 8 14 1 0
BITMAP
FC
FE
C3
C3
C3
C3
FE
FC
C0
C0
C0
C0
C0
C0
ENDCHAR

STARTCHAR Q
ENCODING 81
SWIDTH 638 0
DWIDTH 12 0
BBX 10 15 1 -1
BITMAP
1E00
3F00
6180
6180
C0C0
C0C0
C0C0
C0C0
C0C0
C0C0
6D80
6780
3F00
1F80
0180
ENDCHAR

STARTCHAR R
ENCODING 82
SWIDTH 592 0
DWIDTH 11 0
BBX 10 14 1 0
BITMAP
FE00
FF00
C180
C180
C180
C300
FF00
FC00
C600
C600
C300
C180
C180
C0C0
ENDCHAR

STARTCHAR S
ENCODING 83
SWIDTH 547 0
DWIDTH 10 0
BBX 8 14 1 0
BITMAP
3C
7E
C3
C3
C0
F0
7C
1E
07
03
C3
C3
7E
3C
ENDCHAR

STARTCHAR T
ENCODING 84
SWIDTH 501 0
DWIDTH 10 0
BBX 10 14 0 0
BITMAP
FFC0
FFC0
0C00
0C00
0C00
0C00
0C00
0C00
0C00
0C00
0C00
0C00
0C00
0C00
ENDCHAR

STARTCHAR U
ENCODING 85
SWIDTH 592 0
DWIDTH 11 0
BBX 9 14 1 0
BITMAP
C180
C180
C180
C180
C180
C180
C180
C180
C180
C180
C180
C180
7F00
3E00
ENDCHAR

STARTCHAR V
ENCODING 86
SWIDTH 547 0
DWIDTH 10 0
BBX 10 14 0 0
BITMAP
C0C0
C0C0
C0C0
6180
6180
6180
3300
3300
3300
3300
1E00
1E00
0C00
0C00
ENDCHAR

STARTCHAR W
ENCODING 87
SWIDTH 774 0
DWIDTH 15 0
BBX 15 14 0 0
BITMAP
C386
C386
C386
66CC
66CC
66CC
36D8
36D8
36D8
3C78
3C78
1830
1830
1830
ENDCHAR

STARTCHAR X
ENCODING 88
SWIDTH 547 0
DWIDTH 10 0
BBX 10 14 0 0
BITMAP
C0C0
6180
3300
3300
1E00
1E00
0C00
1E00
1E00
3300
3300
6180
C0C0
C0C0
ENDCHAR

STARTCHAR Y
ENCODING 89
SWIDTH 547 0
DWIDTH 10 0
BBX 10 14 0 0
BITMAP
C0C0
C0C0
6180
6180
3300
3300
1E00
1E00
0C00
0C00
0C00
0C00
0C00
0C00
ENDCHAR

STARTCHAR Z
ENCODING 90
SWIDTH 501 0
DWIDTH 10 0
BBX 8 14 1 0
BITMAP
FF
FF
03
06
06
0C
18
18
30
30
60
C0
FF
FF
ENDCHAR

STARTCHAR bracketleft
ENCODING 91
SWIDTH 228 0
DWIDTH 4 0
BBX 4 18 0 -4
BITMAP
F0
F0
C0
C0
C0
C0
C0
C0
C0
C0
C0
C0
C0
C0
C0
C0
F0
F0
ENDCHAR

STARTCHAR backslash
ENCODING 92
SWIDTH 228 0
DWIDTH 4 0
BBX 5 15 0 -1
BITMAP
C0
C0
C0
60
60
60
60
30
30
30
30
18
18
18
18
ENDCHAR

STARTCHAR bracketright
ENCODING 93
SWIDTH 228 0
DWIDTH 4 0
BBX 4 18 0 -4
BITMAP
F0
F0
30
30
30
30
30
30
30
30
30
30
30
30
30
30
F0
F0
ENDCHAR

STARTCHAR asciicircum
ENCODING 94
SWIDTH 385 0
DWIDTH 7 0
BBX 7 8 0 6
BITMAP
18
18
38
6C
6C
6C
C6
C6
ENDCHAR

STARTCHAR underscore
ENCODING 95
SWIDTH 456 0
DWIDTH 9 0
BBX 9 2 0 -3
BITMAP
FF80
FF80
ENDCHAR

STARTCHAR quoteleft
ENCODING 96
SWIDTH 182 0
DWIDTH 3 0
BBX 2 5 1 9
BITMAP
40
80
80
C0
C0
ENDCHAR

STARTCHAR a
ENCODING 97
SWIDTH 456 0
DWIDTH 9 0
BBX 8 10 1 0
BITMAP
7C
FE
C6
06
7E
FE
C6
CE
FE
77
ENDCHAR

STARTCHAR b
ENCODING 98
SWIDTH 456 0
DWIDTH 9 0
BBX 7 14 1 0
BITMAP
C0
C0
C0
C0
D8
FC
EC
C6
C6
C6
C6
EC
FC
D8
ENDCHAR

STARTCHAR c
ENCODING 99
SWIDTH 410 0
DWIDTH 8 0
BBX 7 10 1 0
BITMAP
3C
7E
66
C0
C0
C0
C0
66
7E
3C
ENDCHAR

STARTCHAR d
ENCODING 100
SWIDTH 456 0
DWIDTH 9 0
BBX 7 14 1 0
BITMAP
06
06
06
06
36
7E
6E
C6
C6
C6
C6
6E
7E
36
ENDCHAR

STARTCHAR e
ENCODING 101
SWIDTH 456 0
DWIDTH 9 0
BBX 7 10 1 0
BITMAP
38
7C
66
C6
FE
FE
C0
66
7C
38
ENDCHAR

STARTCHAR f
ENCODING 102
SWIDTH 228 0
DWIDTH 4 0
BBX 5 14 0 0
BITMAP
18
38
60
60
F8
F8
60
60
60
60
60
60
60
60
ENDCHAR

STARTCHAR g
ENCODING 103
SWIDTH 456 0
DWIDTH 9 0
BBX 7 14 1 -4
BITMAP
36
7E
6E
C6
C6
C6
C6
6E
7E
36
06
CC
FC
78
ENDCHAR

STARTCHAR h
ENCODING 104
SWIDTH 456 0
DWIDTH 9 0
BBX 7 14 1 0
BITMAP
C0
C0
C0
C0
DC
FE
E6
C6
C6
C6
C6
C6
C6
C6
ENDCHAR

STARTCHAR i
ENCODING 105
SWIDTH 182 0
DWIDTH 4 0
BBX 2 14 1 0
BITMAP
C0
C0
00
00
C0
C0
C0
C0
C0
C0
C0
C0
C0
C0
ENDCHAR

STARTCHAR j
ENCODING 106
SWIDTH 182 0
DWIDTH 4 0
BBX 4 18 -1 -4
BITMAP
30
30
00
00
30
30
30
30
30
30
30
30
30
30
30
30
F0
E0
ENDCHAR

STARTCHAR k
ENCODING 107
SWIDTH 410 0
DWIDTH 8 0
BBX 7 14 1 0
BITMAP
C0
C0
C0
C0
C6
CC
D8
F0
F0
D8
D8
CC
CC
C6
ENDCHAR

STARTCHAR l
ENCODING 108
SWIDTH 182 0
DWIDTH 4 0
BBX 2 14 1 0
BITMAP
C0
C0
C0
C0
C0
C0
C0
C0
C0
C0
C0
C0
C0
C0
ENDCHAR

STARTCHAR m
ENCODING 109
SWIDTH 683 0
DWIDTH 12 0
BBX 10 10 1 0
BITMAP
D980
FFC0
EEC0
CCC0
CCC0
CCC0
CCC0
CCC0
CCC0
CCC0
ENDCHAR

STARTCHAR n
ENCODING 110
SWIDTH 456 0
DWIDTH 9 0
BBX 7 10 1 0
BITMAP
DC
FE
E6
C6
C6
C6
C6
C6
C6
C6
ENDCHAR

STARTCHAR o
ENCODING 111
SWIDTH 456 0
DWIDTH 9 0
BBX 7 10 1 0
BITMAP
38
7C
6C
C6
C6
C6
C6
6C
7C
38
ENDCHAR

STARTCHAR p
ENCODING 112
SWIDTH 456 0
DWIDTH 9 0
BBX 7 14 1 -4
BITMAP
D8
FC
EC
C6
C6
C6
C6
EC
FC
D8
C0
C0
C0
C0
ENDCHAR

STARTCHAR q
ENCODING 113
SWIDTH 456 0
DWIDTH 9 0
BBX 7 14 1 -4
BITMAP
36
7E
6E
C6
C6
C6
C6
6E
7E
36
06
06
06
06
ENDCHAR

STARTCHAR r
ENCODING 114
SWIDTH 273 0
DWIDTH 5 0
BBX 5 10 1 0
BITMAP
D8
F8
E0
C0
C0
C0
C0
C0
C0
C0
ENDCHAR

STARTCHAR s
ENCODING 115
SWIDTH 410 0
DWIDTH 8 0
BBX 6 10 1 0
BITMAP
78
FC
CC
C0
F8
7C
0C
CC
FC
78
ENDCHAR

STARTCHAR t
ENCODING 116
SWIDTH 228 0
DWIDTH 4 0
BBX 4 14 0 0
BITMAP
60
60
60
60
F0
F0
60
60
60
60
60
60
70
30
ENDCHAR

STARTCHAR u
ENCODING 117
SWIDTH 456 0
DWIDTH 9 0
BBX 7 10 1 0
BITMAP
C6
C6
C6
C6
C6
C6
C6
CE
FE
76
ENDCHAR

STARTCHAR v
ENCODING 118
SWIDTH 410 0
DWIDTH 8 0
BBX 8 10 0 0
BITMAP
C3
C3
C3
66
66
66
3C
3C
18
18
ENDCHAR

STARTCHAR w
ENCODING 119
SWIDTH 592 0
DWIDTH 11 0
BBX 11 10 0 0
BITMAP
CE60
CE60
CE60
5B40
5B40
7BC0
3180
3180
3180
3180
ENDCHAR

STARTCHAR x
ENCODING 120
SWIDTH 410 0
DWIDTH 8 0
BBX 8 10 0 0
BITMAP
C3
66
66
3C
18
18
3C
66
66
C3
ENDCHAR

STARTCHAR y
ENCODING 121
SWIDTH 410 0
DWIDTH 8 0
BBX 8 14 0 -4
BITMAP
C3
C3
66
66
6C
2C
3C
38
18
18
30
30
E0
C0
ENDCHAR

STARTCHAR z
ENCODING 122
SWIDTH 410 0
DWIDTH 7 0
BBX 7 10 0 0
BITMAP
FE
FE
0C
0C
18
30
30
60
FE
FE
ENDCHAR

STARTCHAR braceleft
ENCODING 123
SWIDTH 274 0
DWIDTH 5 0
BBX 5 18 0 -4
BITMAP
18
30
30
30
30
30
30
60
C0
C0
60
30
30
30
30
30
30
18
ENDCHAR

STARTCHAR bar
ENCODING 124
SWIDTH 213 0
DWIDTH 4 0
BBX 2 18 1 -4
BITMAP
C0
C0
C0
C0
C0
C0
C0
C0
C0
C0
C0
C0
C0
C0
C0
C0
C0
C0
ENDCHAR

STARTCHAR braceright
ENCODING 125
SWIDTH 274 0
DWIDTH 5 0
BBX 5 18 0 -4
BITMAP
C0
60
60
60
60
60
60
30
18
18
30
60
60
60
60
60
60
C0
ENDCHAR

STARTCHAR asciitilde
ENCODING 126
SWIDTH 479 0
DWIDTH 9 0
BBX 7 3 1 5
BITMAP
E2
FE
8E
ENDCHAR

STARTCHAR space
ENCODING 160
SWIDTH 228 0
DWIDTH 5 0
BBX 0 0 0 0
BITMAP
ENDCHAR

STARTCHAR Aogonek
ENCODING 161
SWIDTH 547 0
DWIDTH 10 0
BBX 11 17 0 -3
BITMAP
0C00
0C00
1E00
1E00
3300
3300
3300
6180
7F80
7F80
6180
C0C0
C0C0
C0C0
00C0
00E0
0060
ENDCHAR

STARTCHAR breve
ENCODING 162
SWIDTH 273 0
DWIDTH 5 0
BBX 5 3 0 11
BITMAP
D8
F8
70
ENDCHAR

STARTCHAR Lslash
ENCODING 163
SWIDTH 456 0
DWIDTH 9 0
BBX 8 14 0 0
BITMAP
60
60
60
68
78
70
60
E0
E0
60
60
60
7F
7F
ENDCHAR

STARTCHAR currency
ENCODING 164
SWIDTH 456 0
DWIDTH 9 0
BBX 8 10 1 2
BITMAP
42
DB
7E
66
42
42
66
7E
DB
42
ENDCHAR

STARTCHAR Lcaron
ENCODING 165
SWIDTH 456 0
DWIDTH 9 0
BBX 7 14 1 0
BITMAP
CC
CC
C4
C8
C0
C0
C0
C0
C0
C0
C0
C0
FE
FE
ENDCHAR

STARTCHAR Sacute
ENCODING 166
SWIDTH 547 0
DWIDTH 10 0
BBX 8 18 1 0
BITMAP
06
0C
18
00
3C
7E
C3
C3
C0
F0
7C
1E
07
03
C3
C3
7E
3C
ENDCHAR

STARTCHAR section
ENCODING 167
SWIDTH 456 0
DWIDTH 9 0
BBX 7 18 1 -4
BITMAP
38
7C
C6
C0
70
38
6C
C6
C6
C6
6C
38
1C
0E
06
C6
FC
78
ENDCHAR

STARTCHAR dieresis
ENCODING 168
SWIDTH 273 0
DWIDTH 5 0
BBX 5 2 0 12
BITMAP
D8
D8
ENDCHAR

STARTCHAR Scaron
ENCODING 169
SWIDTH 547 0
DWIDTH 10 0
BBX 8 18 1 0
BITMAP
36
1C
08
00
3C
7E
C3
C3
C0
F0
7C
1E
07
03
C3
C3
7E
3C
ENDCHAR

STARTCHAR Scommaaccent
ENCODING 170
SWIDTH 547 0
DWIDTH 10 0
BBX 8 18 1 -4
BITMAP
3C
7E
C3
C3
C0
F0
7C
1E
07
03
C3
C3
7E
3C
00
18
18
30
ENDCHAR

STARTCHAR Tcaron
ENCODING 171
SWIDTH 501 0
DWIDTH 10 0
BBX 10 18 0 0
BITMAP
1B00
0E00
0400
0000
FFC0
FFC0
0C00
0C00
0C00
0C00
0C00
0C00
0C00
0C00
0C00
0C00
0C00
0C00
ENDCHAR

STARTCHAR Zacute
ENCODING 172
SWIDTH 501 0
DWIDTH 10 0
BBX 8 18 1 0
BITMAP
06
0C
18
00
FF
FF
03
06
06
0C
18
18
30
30
60
C0
FF
FF
ENDCHAR

STARTCHAR hyphen
ENCODING 173
SWIDTH 273 0
DWIDTH 5 0
BBX 4 2 1 3
BITMAP
F0
F0
ENDCHAR

STARTCHAR Zcaron
ENCODING 174
SWIDTH 501 0
DWIDTH 10 0
BBX 8 18 1 0
BITMAP
6C
38
10
00
FF
FF
03
06
06
0C
18
18
30
30
60
C0
FF
FF
ENDCHAR

STARTCHAR Zdotaccent
ENCODING 175
SWIDTH 501 0
DWIDTH 10 0
BBX 8 17 1 0
BITMAP
18
18
00
FF
FF
03
06
06
0C
18
18
30
30
60
C0
FF
FF
ENDCHAR

STARTCHAR degree
ENCODING 176
SWIDTH 328 0
DWIDTH 6 0
BBX 5 4 1 10
BITMAP
70
D8
D8
70
ENDCHAR

STARTCHAR aogonek
ENCODING 177
SWIDTH 456 0
DWIDTH 9 0
BBX 8 14 1 -4
BITMAP
7C
FE
C6
06
7E
FE
C6
CE
FE
77
06
06
07
03
ENDCHAR

STARTCHAR ogonek
ENCODING 178
SWIDTH 273 0
DWIDTH 5 0
BBX 3 4 1 -4
BITMAP
C0
C0
E0
60
ENDCHAR

STARTCHAR lslash
ENCODING 179
SWIDTH 182 0
DWIDTH 4 0
BBX 4 14 0 0
BITMAP
60
60
60
60
60
70
70
E0
E0
60
60
60
60
60
ENDCHAR

STARTCHAR acute
ENCODING 180
SWIDTH 273 0
DWIDTH 5 0
BBX 4 3 1 11
BITMAP
30
60
C0
ENDCHAR

STARTCHAR lcaron
ENCODING 181
SWIDTH 239 0
DWIDTH 5 0
BBX 5 14 1 0
BITMAP
D8
D8
C8
D0
C0
C0
C0
C0
C0
C0
C0
C0
C0
C0
ENDCHAR

STARTCHAR sacute
ENCODING 182
SWIDTH 410 0
DWIDTH 8 0
BBX 6 14 1 0
BITMAP
0C
18
30
00
78
FC
CC
C0
F8
3C
0C
CC
FC
78
ENDCHAR

STARTCHAR caron
ENCODING 183
SWIDTH 273 0
DWIDTH 5 0
BBX 5 3 0 11
BITMAP
D8
70
20
ENDCHAR

STARTCHAR commaaccent
ENCODING 184
SWIDTH 331 0
DWIDTH 6 0
BBX 3 3 1 -4
BITMAP
60
60
C0
ENDCHAR

STARTCHAR scaron
ENCODING 185
SWIDTH 410 0
DWIDTH 8 0
BBX 6 14 1 0
BITMAP
6C
38
10
00
78
FC
CC
C0
F8
3C
0C
CC
FC
78
ENDCHAR

STARTCHAR scommaaccent
ENCODING 186
SWIDTH 410 0
DWIDTH 8 0
BBX 6 14 1 -4
BITMAP
78
FC
CC
C0
F8
3C
0C
CC
FC
78
00
30
30
60
ENDCHAR

STARTCHAR tcaron
ENCODING 187
SWIDTH 307 0
DWIDTH 6 0
BBX 6 14 0 0
BITMAP
6C
6C
64
68
F0
F0
60
60
60
60
60
60
70
30
ENDCHAR

STARTCHAR zacute
ENCODING 188
SWIDTH 410 0
DWIDTH 7 0
BBX 7 14 0 0
BITMAP
0C
18
30
00
FE
FE
0C
0C
18
30
30
60
FE
FE
ENDCHAR

STARTCHAR hungarumlaut
ENCODING 189
SWIDTH 273 0
DWIDTH 5 0
BBX 7 3 0 11
BITMAP
36
6C
D8
ENDCHAR

STARTCHAR zcaron
ENCODING 190
SWIDTH 410 0
DWIDTH 7 0
BBX 7 14 0 0
BITMAP
6C
38
10
00
FE
FE
0C
0C
18
30
30
60
FE
FE
ENDCHAR

STARTCHAR zdotaccent
ENCODING 191
SWIDTH 410 0
DWIDTH 7 0
BBX 7 13 0 0
BITMAP
30
30
00
FE
FE
0C
0C
18
30
30
60
FE
FE
ENDCHAR

STARTCHAR Racute
ENCODING 192
SWIDTH 592 0
DWIDTH 11 0
BBX 10 18 1 0
BITMAP
0600
0C00
1800
0000
FE00
FF00
C180
C180
C180
C300
FF00
FC00
C600
C600
C300
C180
C180
C0C0
ENDCHAR

STARTCHAR Aacute
ENCODING 193
SWIDTH 547 0
DWIDTH 10 0
BBX 10 18 0 0
BITMAP
0300
0600
0C00
0000
0C00
0C00
1E00
1E00
3300
3300
3300
6180
7F80
7F80
6180
C0C0
C0C0
C0C0
ENDCHAR

STARTCHAR Acircumflex
ENCODING 194
SWIDTH 547 0
DWIDTH 10 0
BBX 10 18 0 0
BITMAP
0400
0E00
1B00
0000
0C00
0C00
1E00
1E00
3300
3300
3300
6180
7F80
7F80
6180
C0C0
C0C0
C0C0
ENDCHAR

STARTCHAR Abreve
ENCODING 195
SWIDTH 547 0
DWIDTH 10 0
BBX 10 18 0 0
BITMAP
6300
7F00
3E00
0000
0C00
0C00
1E00
1E00
3300
3300
3300
6180
7F80
7F80
6180
C0C0
C0C0
C0C0
ENDCHAR

STARTCHAR Adieresis
ENCODING 196
SWIDTH 547 0
DWIDTH 10 0
BBX 10 17 0 0
BITMAP
3300
3300
0000
0C00
0C00
1E00
1E00
3300
3300
3300
6180
7F80
7F80
6180
C0C0
C0C0
C0C0
ENDCHAR

STARTCHAR Lacute
ENCODING 197
SWIDTH 456 0
DWIDTH 9 0
BBX 7 18 1 0
BITMAP
06
0C
18
00
C0
C0
C0
C0
C0
C0
C0
C0
C0
C0
C0
C0
FE
FE
ENDCHAR

STARTCHAR Cacute
ENCODING 198
SWIDTH 592 0
DWIDTH 11 0
BBX 9 18 1 0
BITMAP
0300
0600
0C00
0000
1E00
3F00
6180
6180
C000
C000
C000
C000
C000
C000
6180
6180
3F00
1E00
ENDCHAR

STARTCHAR Ccedilla
ENCODING 199
SWIDTH 592 0
DWIDTH 11 0
BBX 9 18 1 -4
BITMAP
1E00
3F00
6180
6180
C000
C000
C000
C000
C000
C000
6180
6180
3F00
1E00
0C00
0E00
0600
1C00
ENDCHAR

STARTCHAR Ccaron
ENCODING 200
SWIDTH 592 0
DWIDTH 11 0
BBX 9 18 1 0
BITMAP
3600
1C00
0800
0000
1E00
3F00
6180
6180
C000
C000
C000
C000
C000
C000
6180
6180
3F00
1E00
ENDCHAR

STARTCHAR Eacute
ENCODING 201
SWIDTH 547 0
DWIDTH 10 0
BBX 8 18 1 0
BITMAP
06
0C
18
00
FF
FF
C0
C0
C0
C0
FE
FE
C0
C0
C0
C0
FF
FF
ENDCHAR

STARTCHAR Eogonek
ENCODING 202
SWIDTH 547 0
DWIDTH 10 0
BBX 8 18 1 -4
BITMAP
FF
FF
C0
C0
C0
C0
FE
FE
C0
C0
C0
C0
FF
FF
0C
0C
0E
06
ENDCHAR

STARTCHAR Edieresis
ENCODING 203
SWIDTH 547 0
DWIDTH 10 0
BBX 8 17 1 0
BITMAP
36
36
00
FF
FF
C0
C0
C0
C0
FE
FE
C0
C0
C0
C0
FF
FF
ENDCHAR

STARTCHAR Ecaron
ENCODING 204
SWIDTH 547 0
DWIDTH 10 0
BBX 8 18 1 0
BITMAP
36
1C
08
00
FF
FF
C0
C0
C0
C0
FE
FE
C0
C0
C0
C0
FF
FF
ENDCHAR

STARTCHAR Iacute
ENCODING 205
SWIDTH 228 0
DWIDTH 4 0
BBX 4 18 1 0
BITMAP
30
60
C0
00
C0
C0
C0
C0
C0
C0
C0
C0
C0
C0
C0
C0
C0
C0
ENDCHAR

STARTCHAR Icircumflex
ENCODING 206
SWIDTH 228 0
DWIDTH 4 0
BBX 5 18 0 0
BITMAP
20
70
D8
00
60
60
60
60
60
60
60
60
60
60
60
60
60
60
ENDCHAR

STARTCHAR Dcaron
ENCODING 207
SWIDTH 592 0
DWIDTH 11 0
BBX 9 18 1 0
BITMAP
6C00
3800
1000
0000
FC00
FE00
C300
C300
C180
C180
C180
C180
C180
C180
C300
C300
FE00
FC00
ENDCHAR

STARTCHAR Dcroat
ENCODING 208
SWIDTH 592 0
DWIDTH 11 0
BBX 10 14 0 0
BITMAP
7E00
7F00
6180
6180
60C0
60C0
FCC0
FCC0
60C0
60C0
6180
6180
7F00
7E00
ENDCHAR

STARTCHAR Nacute
ENCODING 209
SWIDTH 592 0
DWIDTH 11 0
BBX 9 18 1 0
BITMAP
0600
0C00
1800
0000
C180
E180
E180
F180
F180
D980
CD80
CD80
C780
C780
C380
C380
C180
C180
ENDCHAR

STARTCHAR Ncaron
ENCODING 210
SWIDTH 592 0
DWIDTH 11 0
BBX 9 18 1 0
BITMAP
3600
1C00
0800
0000
C180
E180
E180
F180
F180
D980
CD80
CD80
C780
C780
C380
C380
C180
C180
ENDCHAR

STARTCHAR Oacute
ENCODING 211
SWIDTH 638 0
DWIDTH 12 0
BBX 10 18 1 0
BITMAP
0300
0600
0C00
0000
1E00
3F00
6180
6180
C0C0
C0C0
C0C0
C0C0
C0C0
C0C0
6180
6180
3F00
1E00
ENDCHAR

STARTCHAR Ocircumflex
ENCODING 212
SWIDTH 638 0
DWIDTH 12 0
BBX 10 18 1 0
BITMAP
0400
0E00
1B00
0000
1E00
3F00
6180
6180
C0C0
C0C0
C0C0
C0C0
C0C0
C0C0
6180
6180
3F00
1E00
ENDCHAR

STARTCHAR Ohungarumlaut
ENCODING 213
SWIDTH 638 0
DWIDTH 12 0
BBX 10 18 1 0
BITMAP
0CC0
1980
3300
0000
1E00
3F00
6180
6180
C0C0
C0C0
C0C0
C0C0
C0C0
C0C0
6180
6180
3F00
1E00
ENDCHAR

STARTCHAR Odieresis
ENCODING 214
SWIDTH 638 0
DWIDTH 12 0
BBX 10 17 1 0
BITMAP
3300
3300
0000
1E00
3F00
6180
6180
C0C0
C0C0
C0C0
C0C0
C0C0
C0C0
6180
6180
3F00
1E00
ENDCHAR

STARTCHAR multiply
ENCODING 215
SWIDTH 479 0
DWIDTH 9 0
BBX 7 8 1 3
BITMAP
C6
C6
6C
38
38
6C
C6
C6
ENDCHAR

STARTCHAR Rcaron
ENCODING 216
SWIDTH 592 0
DWIDTH 11 0
BBX 10 18 1 0
BITMAP
3600
1C00
0800
0000
FE00
FF00
C180
C180
C180
C300
FF00
FC00
C600
C600
C300
C180
C180
C0C0
ENDCHAR

STARTCHAR Uring
ENCODING 217
SWIDTH 592 0
DWIDTH 11 0
BBX 9 18 1 0
BITMAP
1C00
3600
3600
1C00
C180
C180
C180
C180
C180
C180
C180
C180
C180
C180
C180
C180
7F00
3E00
ENDCHAR

STARTCHAR Uacute
ENCODING 218
SWIDTH 592 0
DWIDTH 11 0
BBX 9 18 1 0
BITMAP
0600
0C00
1800
0000
C180
C180
C180
C180
C180
C180
C180
C180
C180
C180
C180
C180
7F00
3E00
ENDCHAR

STARTCHAR Uhungarumlaut
ENCODING 219
SWIDTH 592 0
DWIDTH 11 0
BBX 9 18 1 0
BITMAP
0D80
1B00
3600
0000
C180
C180
C180
C180
C180
C180
C180
C180
C180
C180
C180
C180
7F00
3E00
ENDCHAR

STARTCHAR Udieresis
ENCODING 220
SWIDTH 592 0
DWIDTH 11 0
BBX 9 17 1 0
BITMAP
3600
3600
0000
C180
C180
C180
C180
C180
C180
C180
C180
C180
C180
C180
C180
7F00
3E00
ENDCHAR

STARTCHAR Yacute
ENCODING 221
SWIDTH 547 0
DWIDTH 10 0
BBX 10 18 0 0
BITMAP
0300
0600
0C00
0000
C0C0
C0C0
6180
6180
3300
3300
1E00
1E00
0C00
0C00
0C00
0C00
0C00
0C00
ENDCHAR

STARTCHAR Tcommaaccent
ENCODING 222
SWIDTH 501 0
DWIDTH 10 0
BBX 10 18 0 -4
BITMAP
FFC0
FFC0
0C00
0C00
0C00
0C00
0C00
0C00
0C00
0C00
0C00
0C00
0C00
0C00
0000
0C00
0C00
1800
ENDCHAR

STARTCHAR germandbls
ENCODING 223
SWIDTH 501 0
DWIDTH 10 0
BBX 8 14 1 0
BITMAP
78
FC
C6
C6
C6
CC
CC
C6
C6
C3
C3
DB
DF
CE
ENDCHAR

STARTCHAR racute
ENCODING 224
SWIDTH 273 0
DWIDTH 5 0
BBX 5 14 1 0
BITMAP
18
30
60
00
D8
F8
E0
C0
C0
C0
C0
C0
C0
C0
ENDCHAR

STARTCHAR aacute
ENCODING 225
SWIDTH 456 0
DWIDTH 9 0
BBX 8 14 1 0
BITMAP
06
0C
18
00
7C
FE
C6
06
7E
FE
C6
CE
FE
77
ENDCHAR

STARTCHAR acircumflex
ENCODING 226
SWIDTH 456 0
DWIDTH 9 0
BBX 8 14 1 0
BITMAP
10
38
6C
00
7C
FE
C6
06
7E
FE
C6
CE
FE
77
ENDCHAR

STARTCHAR abreve
ENCODING 227
SWIDTH 456 0
DWIDTH 9 0
BBX 8 14 1 0
BITMAP
6C
7C
38
00
7C
FE
C6
06
7E
FE
C6
CE
FE
77
ENDCHAR

STARTCHAR adieresis
ENCODING 228
SWIDTH 456 0
DWIDTH 9 0
BBX 8 13 1 0
BITMAP
6C
6C
00
7C
FE
C6
06
7E
FE
C6
CE
FE
77
ENDCHAR

STARTCHAR lacute
ENCODING 229
SWIDTH 182 0
DWIDTH 4 0
BBX 4 18 1 0
BITMAP
30
60
C0
00
C0
C0
C0
C0
C0
C0
C0
C0
C0
C0
C0
C0
C0
C0
ENDCHAR

STARTCHAR cacute
ENCODING 230
SWIDTH 410 0
DWIDTH 8 0
BBX 7 14 1 0
BITMAP
06
0C
18
00
3C
7E
66
C0
C0
C0
C0
66
7E
3C
ENDCHAR

STARTCHAR ccedilla
ENCODING 231
SWIDTH 410 0
DWIDTH 8 0
BBX 7 14 1 -4
BITMAP
3C
7E
66
C0
C0
C0
C0
66
7E
3C
18
0C
0C
38
ENDCHAR

STARTCHAR ccaron
ENCODING 232
SWIDTH 410 0
DWIDTH 8 0
BBX 7 14 1 0
BITMAP
6C
38
10
00
3C
7E
66
C0
C0
C0
C0
66
7E
3C
ENDCHAR

STARTCHAR eacute
ENCODING 233
SWIDTH 456 0
DWIDTH 9 0
BBX 7 14 1 0
BITMAP
0C
18
30
00
38
7C
66
C6
FE
FE
C0
66
7C
38
ENDCHAR

STARTCHAR eogonek
ENCODING 234
SWIDTH 456 0
DWIDTH 9 0
BBX 7 14 1 -4
BITMAP
38
7C
66
C6
FE
FE
C0
66
7C
38
18
0C
0C
38
ENDCHAR

STARTCHAR edieresis
ENCODING 235
SWIDTH 456 0
DWIDTH 9 0
BBX 7 13 1 0
BITMAP
6C
6C
00
38
7C
66
C6
FE
FE
C0
66
7C
38
ENDCHAR

STARTCHAR ecaron
ENCODING 236
SWIDTH 456 0
DWIDTH 9 0
BBX 7 14 1 0
BITMAP
6C
38
10
00
38
7C
66
C6
FE
FE
C0
66
7C
38
ENDCHAR

STARTCHAR iacute
ENCODING 237
SWIDTH 228 0
DWIDTH 4 0
BBX 4 15 1 0
BITMAP
30
60
C0
00
00
C0
C0
C0
C0
C0
C0
C0
C0
C0
C0
ENDCHAR

STARTCHAR icircumflex
ENCODING 238
SWIDTH 228 0
DWIDTH 4 0
BBX 5 14 0 0
BITMAP
20
70
D8
00
60
60
60
60
60
60
60
60
60
60
ENDCHAR

STARTCHAR dcaron
ENCODING 239
SWIDTH 504 0
DWIDTH 10 0
BBX 10 14 1 0
BITMAP
06C0
06C0
0640
0680
3600
7E00
6E00
C600
C600
C600
C600
6E00
7E00
3600
ENDCHAR

STARTCHAR dcroat
ENCODING 240
SWIDTH 456 0
DWIDTH 9 0
BBX 8 14 1 0
BITMAP
06
1F
1F
06
36
7E
6E
C6
C6
C6
C6
6E
7E
36
ENDCHAR

STARTCHAR nacute
ENCODING 241
SWIDTH 456 0
DWIDTH 9 0
BBX 7 14 1 0
BITMAP
06
0C
18
00
DC
FE
E6
C6
C6
C6
C6
C6
C6
C6
ENDCHAR

STARTCHAR ncaron
ENCODING 242
SWIDTH 456 0
DWIDTH 9 0
BBX 7 14 1 0
BITMAP
6C
38
10
00
DC
FE
E6
C6
C6
C6
C6
C6
C6
C6
ENDCHAR

STARTCHAR oacute
ENCODING 243
SWIDTH 456 0
DWIDTH 9 0
BBX 7 14 1 0
BITMAP
0C
18
30
00
38
7C
6C
C6
C6
C6
C6
6C
7C
38
ENDCHAR

STARTCHAR ocircumflex
ENCODING 244
SWIDTH 456 0
DWIDTH 9 0
BBX 7 14 1 0
BITMAP
10
38
6C
00
38
7C
6C
C6
C6
C6
C6
6C
7C
38
ENDCHAR

STARTCHAR ohungarumlaut
ENCODING 245
SWIDTH 456 0
DWIDTH 9 0
BBX 8 14 1 0
BITMAP
1B
36
6C
00
38
7C
6C
C6
C6
C6
C6
6C
7C
38
ENDCHAR

STARTCHAR odieresis
ENCODING 246
SWIDTH 456 0
DWIDTH 9 0
BBX 7 13 1 0
BITMAP
6C
6C
00
38
7C
6C
C6
C6
C6
C6
6C
7C
38
ENDCHAR

STARTCHAR divide
ENCODING 247
SWIDTH 479 0
DWIDTH 9 0
BBX 8 8 1 3
BITMAP
18
18
00
FF
FF
00
18
18
ENDCHAR

STARTCHAR rcaron
ENCODING 248
SWIDTH 273 0
DWIDTH 5 0
BBX 6 14 0 0
BITMAP
D8
70
20
00
6C
7C
70
60
60
60
60
60
60
60
ENDCHAR

STARTCHAR uring
ENCODING 249
SWIDTH 456 0
DWIDTH 9 0
BBX 7 15 1 0
BITMAP
38
6C
6C
38
00
C6
C6
C6
C6
C6
C6
C6
CE
FE
76
ENDCHAR

STARTCHAR uacute
ENCODING 250
SWIDTH 456 0
DWIDTH 9 0
BBX 7 14 1 0
BITMAP
0C
18
30
00
C6
C6
C6
C6
C6
C6
C6
CE
FE
76
ENDCHAR

STARTCHAR uhungarumlaut
ENCODING 251
SWIDTH 456 0
DWIDTH 9 0
BBX 8 14 1 0
BITMAP
1B
36
6C
00
C6
C6
C6
C6
C6
C6
C6
CE
FE
76
ENDCHAR

STARTCHAR udieresis
ENCODING 252
SWIDTH 456 0
DWIDTH 9 0
BBX 7 13 1 0
BITMAP
6C
6C
00
C6
C6
C6
C6
C6
C6
C6
CE
FE
76
ENDCHAR

STARTCHAR yacute
ENCODING 253
SWIDTH 410 0
DWIDTH 8 0
BBX 8 18 0 -4
BITMAP
06
0C
18
00
C3
C3
66
66
6C
2C
3C
38
18
18
30
30
E0
C0
ENDCHAR

STARTCHAR tcommaaccent
ENCODING 254
SWIDTH 228 0
DWIDTH 4 0
BBX 4 18 0 -4
BITMAP
60
60
60
60
F0
F0
60
60
60
60
60
60
70
30
00
30
30
60
ENDCHAR

STARTCHAR dotaccent
ENCODING 255
SWIDTH 273 0
DWIDTH 5 0
BBX 2 2 2 11
BITMAP
C0
C0
ENDCHAR

ENDFONT
