STARTFONT 2.1
FONT -Monotype-Century Schoolbook-Regular-I-Normal--12-120-75-75-P-65-iso8859-9
SIZE 12 75 75
FONTBOUNDINGBOX 16 16 -2 -3

STARTPROPERTIES 24
FOUNDRY "Monotype"
FAMILY_NAME "Century Schoolbook"
WEIGHT_NAME "Regular"
SLANT "I"
SETWIDTH_NAME "Normal"
ADD_STYLE_NAME ""
PIXEL_SIZE 12
POINT_SIZE 120
RESOLUTION_X 75
RESOLUTION_Y 75
SPACING "P"
AVERAGE_WIDTH 65
CHARSET_REGISTRY "iso8859"
CHARSET_ENCODING "9"
FACE_NAME "Century Schoolbook it ISO Latin5"
_DEC_DEVICE_FONTNAMES "PS=centuryschoolbook-italic-lat5"
COPYRIGHT "Copyright (c) 1994 Monotype Typography Ltd."
CAP_HEIGHT 11
X_HEIGHT 7
WEIGHT 10
QUAD_WIDTH 7
DEFAULT_CHAR 160
FONT_DESCENT 3
FONT_ASCENT 13
ENDPROPERTIES

CHARS 191

STARTCHAR space
ENCODING 32
SWIDTH 278 0
DWIDTH 4 0
BBX 0 0 0 0
BITMAP
ENDCHAR

STARTCHAR exclam
ENCODING 33
SWIDTH 333 0
DWIDTH 4 0
BBX 3 9 1 0
BITMAP
20
20
20
40
40
40
00
00
80
ENDCHAR

STARTCHAR quotedbl
ENCODING 34
SWIDTH 400 0
DWIDTH 5 0
BBX 5 4 2 5
BITMAP
48
48
90
90
ENDCHAR

STARTCHAR numbersign
ENCODING 35
SWIDTH 606 0
DWIDTH 8 0
BBX 8 9 1 0
BITMAP
12
12
7F
24
24
FE
48
48
48
ENDCHAR

STARTCHAR dollar
ENCODING 36
SWIDTH 556 0
DWIDTH 7 0
BBX 6 12 1 -2
BITMAP
10
38
54
54
50
30
28
A8
A8
70
40
40
ENDCHAR

STARTCHAR percent
ENCODING 37
SWIDTH 833 0
DWIDTH 11 0
BBX 9 9 2 0
BITMAP
2200
5200
9400
A800
4900
1280
2480
2500
4200
ENDCHAR

STARTCHAR ampersand
ENCODING 38
SWIDTH 852 0
DWIDTH 11 0
BBX 9 9 1 0
BITMAP
0C00
1200
1200
1C00
3380
5100
8A00
8E80
7B00
ENDCHAR

STARTCHAR quoteright
ENCODING 39
SWIDTH 204 0
DWIDTH 3 0
BBX 2 4 2 5
BITMAP
40
40
80
80
ENDCHAR

STARTCHAR parenleft
ENCODING 40
SWIDTH 333 0
DWIDTH 4 0
BBX 4 12 1 -3
BITMAP
10
20
40
40
80
80
80
80
80
80
40
20
ENDCHAR

STARTCHAR parenright
ENCODING 41
SWIDTH 333 0
DWIDTH 4 0
BBX 4 12 0 -3
BITMAP
40
20
10
10
10
10
10
10
20
20
40
80
ENDCHAR

STARTCHAR asterisk
ENCODING 42
SWIDTH 500 0
DWIDTH 7 0
BBX 5 5 2 4
BITMAP
20
20
F8
50
50
ENDCHAR

STARTCHAR plus
ENCODING 43
SWIDTH 606 0
DWIDTH 8 0
BBX 7 7 1 1
BITMAP
10
10
10
FE
10
10
10
ENDCHAR

STARTCHAR comma
ENCODING 44
SWIDTH 278 0
DWIDTH 4 0
BBX 2 3 1 -2
BITMAP
40
40
80
ENDCHAR

STARTCHAR minus
ENCODING 45
SWIDTH 606 0
DWIDTH 8 0
BBX 7 1 1 4
BITMAP
FE
ENDCHAR

STARTCHAR period
ENCODING 46
SWIDTH 278 0
DWIDTH 4 0
BBX 1 1 1 0
BITMAP
80
ENDCHAR

STARTCHAR slash
ENCODING 47
SWIDTH 606 0
DWIDTH 8 0
BBX 5 9 2 0
BITMAP
08
08
10
10
20
40
40
80
80
ENDCHAR

STARTCHAR zero
ENCODING 48
SWIDTH 556 0
DWIDTH 7 0
BBX 6 9 1 0
BITMAP
18
24
44
44
84
88
88
90
60
ENDCHAR

STARTCHAR one
ENCODING 49
SWIDTH 556 0
DWIDTH 7 0
BBX 5 9 1 0
BITMAP
08
38
08
10
10
10
20
20
F8
ENDCHAR

STARTCHAR two
ENCODING 50
SWIDTH 556 0
DWIDTH 7 0
BBX 7 9 0 0
BITMAP
1C
22
22
02
04
18
20
44
F8
ENDCHAR

STARTCHAR three
ENCODING 51
SWIDTH 556 0
DWIDTH 7 0
BBX 6 9 1 0
BITMAP
38
44
44
08
30
08
88
88
70
ENDCHAR

STARTCHAR four
ENCODING 52
SWIDTH 556 0
DWIDTH 7 0
BBX 6 9 1 0
BITMAP
04
0C
14
28
48
88
FC
10
7C
ENDCHAR

STARTCHAR five
ENCODING 53
SWIDTH 556 0
DWIDTH 7 0
BBX 7 9 1 0
BITMAP
1E
10
20
38
44
04
84
88
70
ENDCHAR

STARTCHAR six
ENCODING 54
SWIDTH 556 0
DWIDTH 7 0
BBX 6 9 1 0
BITMAP
18
24
40
70
88
88
88
90
60
ENDCHAR

STARTCHAR seven
ENCODING 55
SWIDTH 556 0
DWIDTH 7 0
BBX 6 9 2 0
BITMAP
7C
48
88
10
10
20
20
40
40
ENDCHAR

STARTCHAR eight
ENCODING 56
SWIDTH 556 0
DWIDTH 7 0
BBX 7 9 0 0
BITMAP
1C
22
22
14
38
48
84
84
78
ENDCHAR

STARTCHAR nine
ENCODING 57
SWIDTH 556 0
DWIDTH 7 0
BBX 6 9 1 0
BITMAP
18
24
44
44
44
38
88
90
60
ENDCHAR

STARTCHAR colon
ENCODING 58
SWIDTH 278 0
DWIDTH 4 0
BBX 2 6 1 0
BITMAP
40
00
00
00
00
80
ENDCHAR

STARTCHAR semicolon
ENCODING 59
SWIDTH 278 0
DWIDTH 4 0
BBX 3 8 1 -2
BITMAP
20
00
00
00
00
40
40
80
ENDCHAR

STARTCHAR less
ENCODING 60
SWIDTH 606 0
DWIDTH 8 0
BBX 7 7 1 1
BITMAP
02
0C
30
C0
30
0C
02
ENDCHAR

STARTCHAR equal
ENCODING 61
SWIDTH 606 0
DWIDTH 8 0
BBX 7 3 1 3
BITMAP
FE
00
FE
ENDCHAR

STARTCHAR greater
ENCODING 62
SWIDTH 606 0
DWIDTH 8 0
BBX 7 7 1 1
BITMAP
80
60
18
06
18
60
80
ENDCHAR

STARTCHAR question
ENCODING 63
SWIDTH 444 0
DWIDTH 6 0
BBX 4 9 2 0
BITMAP
60
90
10
60
80
A0
40
00
80
ENDCHAR

STARTCHAR at
ENCODING 64
SWIDTH 747 0
DWIDTH 10 0
BBX 9 11 1 -2
BITMAP
1E00
6100
4E80
9280
9280
A480
AD00
B680
4080
6300
1C00
ENDCHAR

STARTCHAR A
ENCODING 65
SWIDTH 704 0
DWIDTH 9 0
BBX 8 9 1 0
BITMAP
06
06
0A
12
12
3E
22
42
E7
ENDCHAR

STARTCHAR B
ENCODING 66
SWIDTH 722 0
DWIDTH 9 0
BBX 9 9 0 0
BITMAP
3F00
1080
1080
2100
3F00
2080
4080
4100
FE00
ENDCHAR

STARTCHAR C
ENCODING 67
SWIDTH 722 0
DWIDTH 9 0
BBX 8 9 2 0
BITMAP
1D
23
42
40
80
80
82
84
78
ENDCHAR

STARTCHAR D
ENCODING 68
SWIDTH 778 0
DWIDTH 10 0
BBX 9 9 1 0
BITMAP
3F00
1080
1080
2080
2080
2100
4100
4200
FC00
ENDCHAR

STARTCHAR E
ENCODING 69
SWIDTH 722 0
DWIDTH 9 0
BBX 9 9 1 0
BITMAP
3F80
1080
1080
2200
3C00
2400
4100
4100
FE00
ENDCHAR

STARTCHAR F
ENCODING 70
SWIDTH 667 0
DWIDTH 9 0
BBX 9 9 1 0
BITMAP
3F80
1080
1080
2200
3C00
2400
4000
4000
E000
ENDCHAR

STARTCHAR G
ENCODING 71
SWIDTH 778 0
DWIDTH 10 0
BBX 8 9 2 0
BITMAP
1D
23
42
40
80
87
82
86
7A
ENDCHAR

STARTCHAR H
ENCODING 72
SWIDTH 833 0
DWIDTH 11 0
BBX 11 9 1 0
BITMAP
38E0
1040
1040
2080
3F80
2080
4100
4100
E380
ENDCHAR

STARTCHAR I
ENCODING 73
SWIDTH 407 0
DWIDTH 5 0
BBX 5 9 1 0
BITMAP
38
10
10
20
20
20
40
40
E0
ENDCHAR

STARTCHAR J
ENCODING 74
SWIDTH 611 0
DWIDTH 8 0
BBX 8 9 1 0
BITMAP
07
02
02
04
04
44
88
88
70
ENDCHAR

STARTCHAR K
ENCODING 75
SWIDTH 741 0
DWIDTH 10 0
BBX 9 9 1 0
BITMAP
3B80
1100
1200
2400
2800
3400
4200
4100
E380
ENDCHAR

STARTCHAR L
ENCODING 76
SWIDTH 667 0
DWIDTH 9 0
BBX 8 9 1 0
BITMAP
38
10
10
20
20
20
41
41
FF
ENDCHAR

STARTCHAR M
ENCODING 77
SWIDTH 944 0
DWIDTH 12 0
BBX 13 9 1 0
BITMAP
3038
1830
1850
28A0
24A0
2520
4640
4640
E4E0
ENDCHAR

STARTCHAR N
ENCODING 78
SWIDTH 815 0
DWIDTH 11 0
BBX 11 9 1 0
BITMAP
30E0
1040
1840
2880
2480
2480
4300
4300
E100
ENDCHAR

STARTCHAR O
ENCODING 79
SWIDTH 778 0
DWIDTH 10 0
BBX 8 9 2 0
BITMAP
1E
21
41
41
81
82
82
84
78
ENDCHAR

STARTCHAR P
ENCODING 80
SWIDTH 667 0
DWIDTH 9 0
BBX 9 9 1 0
BITMAP
3F00
1080
1080
2100
3E00
2000
4000
4000
E000
ENDCHAR

STARTCHAR Q
ENCODING 81
SWIDTH 778 0
DWIDTH 10 0
BBX 8 11 2 -2
BITMAP
1E
21
41
41
81
B2
CA
84
7C
05
02
ENDCHAR

STARTCHAR R
ENCODING 82
SWIDTH 741 0
DWIDTH 10 0
BBX 9 9 1 0
BITMAP
3F00
1080
1080
2100
3E00
2200
4200
4280
E100
ENDCHAR

STARTCHAR S
ENCODING 83
SWIDTH 667 0
DWIDTH 9 0
BBX 8 9 2 0
BITMAP
3D
43
41
20
18
04
82
C2
BC
ENDCHAR

STARTCHAR T
ENCODING 84
SWIDTH 685 0
DWIDTH 9 0
BBX 9 9 2 0
BITMAP
7F80
4880
8900
9100
1000
1000
2000
2000
7000
ENDCHAR

STARTCHAR U
ENCODING 85
SWIDTH 815 0
DWIDTH 11 0
BBX 10 9 2 0
BITMAP
71C0
2080
2080
4100
4100
8200
8200
8400
7800
ENDCHAR

STARTCHAR V
ENCODING 86
SWIDTH 704 0
DWIDTH 9 0
BBX 9 9 2 0
BITMAP
E380
4100
4200
4400
4800
4800
5000
6000
4000
ENDCHAR

STARTCHAR W
ENCODING 87
SWIDTH 926 0
DWIDTH 12 0
BBX 12 9 2 0
BITMAP
EE70
4420
4440
4C40
5480
5500
6500
4600
4400
ENDCHAR

STARTCHAR X
ENCODING 88
SWIDTH 704 0
DWIDTH 9 0
BBX 9 9 1 0
BITMAP
7380
2100
1200
1400
0800
1400
2400
4200
E700
ENDCHAR

STARTCHAR Y
ENCODING 89
SWIDTH 685 0
DWIDTH 9 0
BBX 9 9 2 0
BITMAP
E380
4100
4200
2400
2400
1800
1000
1000
3800
ENDCHAR

STARTCHAR Z
ENCODING 90
SWIDTH 667 0
DWIDTH 9 0
BBX 9 9 1 0
BITMAP
1F80
2100
0200
0400
0800
1000
2100
4200
FE00
ENDCHAR

STARTCHAR bracketleft
ENCODING 91
SWIDTH 333 0
DWIDTH 4 0
BBX 6 12 0 -3
BITMAP
1C
10
10
20
20
20
40
40
40
80
80
E0
ENDCHAR

STARTCHAR backslash
ENCODING 92
SWIDTH 606 0
DWIDTH 8 0
BBX 1 12 4 -3
BITMAP
80
80
80
80
80
80
80
80
80
80
80
80
ENDCHAR

STARTCHAR bracketright
ENCODING 93
SWIDTH 333 0
DWIDTH 4 0
BBX 6 12 -1 -3
BITMAP
1C
04
04
08
08
08
10
10
10
20
20
E0
ENDCHAR

STARTCHAR asciicircum
ENCODING 94
SWIDTH 606 0
DWIDTH 8 0
BBX 5 4 2 5
BITMAP
20
50
88
88
ENDCHAR

STARTCHAR underscore
ENCODING 95
SWIDTH 500 0
DWIDTH 7 0
BBX 7 1 0 -2
BITMAP
FE
ENDCHAR

STARTCHAR quoteleft
ENCODING 96
SWIDTH 204 0
DWIDTH 3 0
BBX 2 3 1 6
BITMAP
40
80
80
ENDCHAR

STARTCHAR a
ENCODING 97
SWIDTH 574 0
DWIDTH 7 0
BBX 7 6 1 0
BITMAP
34
4C
84
88
9A
6C
ENDCHAR

STARTCHAR b
ENCODING 98
SWIDTH 556 0
DWIDTH 7 0
BBX 6 9 1 0
BITMAP
60
20
20
58
64
44
84
88
70
ENDCHAR

STARTCHAR c
ENCODING 99
SWIDTH 444 0
DWIDTH 6 0
BBX 5 6 1 0
BITMAP
38
48
80
80
90
60
ENDCHAR

STARTCHAR d
ENCODING 100
SWIDTH 611 0
DWIDTH 8 0
BBX 7 9 1 0
BITMAP
06
02
02
34
4C
84
88
9A
6C
ENDCHAR

STARTCHAR e
ENCODING 101
SWIDTH 444 0
DWIDTH 6 0
BBX 5 6 1 0
BITMAP
30
48
F8
80
90
60
ENDCHAR

STARTCHAR f
ENCODING 102
SWIDTH 333 0
DWIDTH 4 0
BBX 6 12 0 -3
BITMAP
0C
14
20
78
20
20
40
40
40
80
80
80
ENDCHAR

STARTCHAR g
ENCODING 103
SWIDTH 537 0
DWIDTH 7 0
BBX 8 8 0 -2
BITMAP
1D
22
22
3C
70
88
84
78
ENDCHAR

STARTCHAR h
ENCODING 104
SWIDTH 611 0
DWIDTH 8 0
BBX 7 9 1 0
BITMAP
60
20
20
58
64
44
48
8A
84
ENDCHAR

STARTCHAR i
ENCODING 105
SWIDTH 333 0
DWIDTH 4 0
BBX 3 9 1 0
BITMAP
20
00
00
C0
40
40
80
A0
C0
ENDCHAR

STARTCHAR j
ENCODING 106
SWIDTH 315 0
DWIDTH 4 0
BBX 5 11 0 -2
BITMAP
08
00
00
30
10
10
10
20
20
A0
C0
ENDCHAR

STARTCHAR k
ENCODING 107
SWIDTH 556 0
DWIDTH 7 0
BBX 6 9 1 0
BITMAP
60
20
20
4C
54
64
58
94
88
ENDCHAR

STARTCHAR l
ENCODING 108
SWIDTH 333 0
DWIDTH 4 0
BBX 3 9 1 0
BITMAP
60
20
20
40
40
40
80
A0
C0
ENDCHAR

STARTCHAR m
ENCODING 109
SWIDTH 889 0
DWIDTH 12 0
BBX 11 6 1 0
BITMAP
DB80
6640
4440
4480
88A0
8840
ENDCHAR

STARTCHAR n
ENCODING 110
SWIDTH 611 0
DWIDTH 8 0
BBX 7 6 1 0
BITMAP
D8
64
44
48
8A
84
ENDCHAR

STARTCHAR o
ENCODING 111
SWIDTH 500 0
DWIDTH 7 0
BBX 6 6 1 0
BITMAP
38
44
84
84
88
70
ENDCHAR

STARTCHAR p
ENCODING 112
SWIDTH 574 0
DWIDTH 7 0
BBX 8 8 -1 -2
BITMAP
36
19
11
21
22
5C
40
E0
ENDCHAR

STARTCHAR q
ENCODING 113
SWIDTH 556 0
DWIDTH 7 0
BBX 6 8 1 -2
BITMAP
34
4C
88
88
90
70
10
38
ENDCHAR

STARTCHAR r
ENCODING 114
SWIDTH 444 0
DWIDTH 6 0
BBX 5 6 1 0
BITMAP
D8
68
40
40
80
80
ENDCHAR

STARTCHAR s
ENCODING 115
SWIDTH 444 0
DWIDTH 6 0
BBX 6 6 0 0
BITMAP
3C
44
70
08
88
F0
ENDCHAR

STARTCHAR t
ENCODING 116
SWIDTH 352 0
DWIDTH 5 0
BBX 4 9 1 0
BITMAP
20
20
20
F0
40
40
80
A0
C0
ENDCHAR

STARTCHAR u
ENCODING 117
SWIDTH 611 0
DWIDTH 8 0
BBX 7 6 1 0
BITMAP
C4
44
48
88
9A
64
ENDCHAR

STARTCHAR v
ENCODING 118
SWIDTH 519 0
DWIDTH 7 0
BBX 6 6 1 0
BITMAP
C8
44
44
84
88
70
ENDCHAR

STARTCHAR w
ENCODING 119
SWIDTH 778 0
DWIDTH 9 0
BBX 8 6 1 0
BITMAP
CA
49
49
92
92
6C
ENDCHAR

STARTCHAR x
ENCODING 120
SWIDTH 500 0
DWIDTH 7 0
BBX 7 6 0 0
BITMAP
26
58
10
10
34
C8
ENDCHAR

STARTCHAR y
ENCODING 121
SWIDTH 500 0
DWIDTH 7 0
BBX 7 8 0 -2
BITMAP
22
52
14
0C
08
08
90
60
ENDCHAR

STARTCHAR z
ENCODING 122
SWIDTH 463 0
DWIDTH 6 0
BBX 7 6 0 0
BITMAP
36
4C
10
20
44
B8
ENDCHAR

STARTCHAR braceleft
ENCODING 123
SWIDTH 333 0
DWIDTH 4 0
BBX 5 12 1 -3
BITMAP
18
20
20
20
40
80
40
40
80
80
80
60
ENDCHAR

STARTCHAR bar
ENCODING 124
SWIDTH 606 0
DWIDTH 8 0
BBX 1 13 4 -3
BITMAP
80
80
80
80
80
80
80
80
80
80
80
80
80
ENDCHAR

STARTCHAR braceright
ENCODING 125
SWIDTH 333 0
DWIDTH 4 0
BBX 5 12 -1 -3
BITMAP
30
08
08
08
10
10
08
10
20
20
20
C0
ENDCHAR

STARTCHAR asciitilde
ENCODING 126
SWIDTH 606 0
DWIDTH 8 0
BBX 7 2 1 3
BITMAP
72
9C
ENDCHAR

STARTCHAR space
ENCODING 160
SWIDTH 278 0
DWIDTH 4 0
BBX 0 0 0 0
BITMAP
ENDCHAR

STARTCHAR exclamdown
ENCODING 161
SWIDTH 333 0
DWIDTH 4 0
BBX 3 9 1 -3
BITMAP
20
00
00
40
40
40
80
80
80
ENDCHAR

STARTCHAR cent
ENCODING 162
SWIDTH 556 0
DWIDTH 7 0
BBX 5 10 1 -2
BITMAP
10
10
38
58
90
A0
A8
70
40
40
ENDCHAR

STARTCHAR sterling
ENCODING 163
SWIDTH 556 0
DWIDTH 7 0
BBX 8 9 0 0
BITMAP
0E
13
11
10
7C
10
72
92
6C
ENDCHAR

STARTCHAR currency
ENCODING 164
SWIDTH 606 0
DWIDTH 8 0
BBX 6 6 1 1
BITMAP
B4
48
84
84
48
B4
ENDCHAR

STARTCHAR yen
ENCODING 165
SWIDTH 556 0
DWIDTH 7 0
BBX 9 9 0 0
BITMAP
3B80
1100
1200
1400
7F00
1800
FE00
1000
3800
ENDCHAR

STARTCHAR brokenbar
ENCODING 166
SWIDTH 606 0
DWIDTH 8 0
BBX 1 12 4 -3
BITMAP
80
80
80
80
80
00
00
80
80
80
80
80
ENDCHAR

STARTCHAR section
ENCODING 167
SWIDTH 500 0
DWIDTH 7 0
BBX 6 11 1 -2
BITMAP
1C
24
20
30
48
48
48
48
28
90
E0
ENDCHAR

STARTCHAR dieresis
ENCODING 168
SWIDTH 333 0
DWIDTH 4 0
BBX 4 1 1 7
BITMAP
90
ENDCHAR

STARTCHAR copyright
ENCODING 169
SWIDTH 747 0
DWIDTH 10 0
BBX 10 9 0 0
BITMAP
1E00
6180
4E80
9240
9040
9240
4C80
6180
1E00
ENDCHAR

STARTCHAR ordfeminine
ENCODING 170
SWIDTH 422 0
DWIDTH 5 0
BBX 4 4 2 5
BITMAP
70
90
B0
50
ENDCHAR

STARTCHAR guillemotleft
ENCODING 171
SWIDTH 426 0
DWIDTH 6 0
BBX 6 4 1 1
BITMAP
24
48
D8
48
ENDCHAR

STARTCHAR logicalnot
ENCODING 172
SWIDTH 606 0
DWIDTH 8 0
BBX 7 4 1 2
BITMAP
FE
02
02
02
ENDCHAR

STARTCHAR hyphen
ENCODING 173
SWIDTH 333 0
DWIDTH 4 0
BBX 3 1 1 2
BITMAP
E0
ENDCHAR

STARTCHAR registered
ENCODING 174
SWIDTH 747 0
DWIDTH 10 0
BBX 10 9 0 0
BITMAP
1E00
6180
5C80
9240
9C40
9240
5280
6180
1E00
ENDCHAR

STARTCHAR macron
ENCODING 175
SWIDTH 333 0
DWIDTH 4 0
BBX 5 1 0 7
BITMAP
F8
ENDCHAR

STARTCHAR degree
ENCODING 176
SWIDTH 400 0
DWIDTH 5 0
BBX 4 4 2 5
BITMAP
60
90
90
60
ENDCHAR

STARTCHAR plusminus
ENCODING 177
SWIDTH 606 0
DWIDTH 8 0
BBX 7 9 1 0
BITMAP
10
10
10
FE
10
10
10
00
FE
ENDCHAR

STARTCHAR twosuperior
ENCODING 178
SWIDTH 333 0
DWIDTH 4 0
BBX 4 5 1 4
BITMAP
20
50
20
40
E0
ENDCHAR

STARTCHAR threesuperior
ENCODING 179
SWIDTH 333 0
DWIDTH 4 0
BBX 4 5 1 4
BITMAP
70
10
20
10
E0
ENDCHAR

STARTCHAR acute
ENCODING 180
SWIDTH 333 0
DWIDTH 4 0
BBX 2 2 2 7
BITMAP
40
80
ENDCHAR

STARTCHAR mu
ENCODING 181
SWIDTH 611 0
DWIDTH 8 0
BBX 8 8 0 -2
BITMAP
12
12
22
24
2D
56
40
C0
ENDCHAR

STARTCHAR paragraph
ENCODING 182
SWIDTH 650 0
DWIDTH 8 0
BBX 7 12 1 -3
BITMAP
7E
F4
F4
F4
74
14
14
14
14
14
14
14
ENDCHAR

STARTCHAR periodcentered
ENCODING 183
SWIDTH 278 0
DWIDTH 4 0
BBX 1 1 2 4
BITMAP
80
ENDCHAR

STARTCHAR cedilla
ENCODING 184
SWIDTH 333 0
DWIDTH 4 0
BBX 3 3 0 -3
BITMAP
40
20
C0
ENDCHAR

STARTCHAR onesuperior
ENCODING 185
SWIDTH 333 0
DWIDTH 4 0
BBX 3 5 1 4
BITMAP
60
20
40
40
E0
ENDCHAR

STARTCHAR ordmasculine
ENCODING 186
SWIDTH 372 0
DWIDTH 5 0
BBX 5 5 0 4
BITMAP
30
48
88
90
60
ENDCHAR

STARTCHAR guillemotright
ENCODING 187
SWIDTH 426 0
DWIDTH 6 0
BBX 6 4 0 1
BITMAP
48
6C
48
90
ENDCHAR

STARTCHAR onequarter
ENCODING 188
SWIDTH 834 0
DWIDTH 11 0
BBX 10 9 1 0
BITMAP
6100
2100
4200
4400
E480
0980
1280
17C0
2100
ENDCHAR

STARTCHAR onehalf
ENCODING 189
SWIDTH 834 0
DWIDTH 11 0
BBX 9 9 1 0
BITMAP
6100
2100
4200
4400
E500
0A80
1100
1200
2700
ENDCHAR

STARTCHAR threequarters
ENCODING 190
SWIDTH 834 0
DWIDTH 11 0
BBX 10 9 1 0
BITMAP
7100
1100
2200
1400
E480
0980
1280
17C0
2100
ENDCHAR

STARTCHAR questiondown
ENCODING 191
SWIDTH 444 0
DWIDTH 6 0
BBX 4 9 2 -2
BITMAP
10
00
20
50
10
60
80
90
60
ENDCHAR

STARTCHAR Agrave
ENCODING 192
SWIDTH 704 0
DWIDTH 9 0
BBX 8 12 1 0
BITMAP
04
02
00
06
06
0A
12
12
3E
22
42
E7
ENDCHAR

STARTCHAR Aacute
ENCODING 193
SWIDTH 704 0
DWIDTH 9 0
BBX 8 12 1 0
BITMAP
01
02
00
06
06
0A
12
12
3E
22
42
E7
ENDCHAR

STARTCHAR Acircumflex
ENCODING 194
SWIDTH 704 0
DWIDTH 9 0
BBX 8 12 1 0
BITMAP
02
05
00
06
06
0A
12
12
3E
22
42
E7
ENDCHAR

STARTCHAR Atilde
ENCODING 195
SWIDTH 704 0
DWIDTH 9 0
BBX 9 12 1 0
BITMAP
0680
0B00
0000
0600
0600
0A00
1200
1200
3E00
2200
4200
E700
ENDCHAR

STARTCHAR Adieresis
ENCODING 196
SWIDTH 704 0
DWIDTH 9 0
BBX 9 11 1 0
BITMAP
0480
0000
0600
0600
0A00
1200
1200
3E00
2200
4200
E700
ENDCHAR

STARTCHAR Aring
ENCODING 197
SWIDTH 704 0
DWIDTH 9 0
BBX 8 13 1 0
BITMAP
02
05
02
00
06
06
0A
12
12
3E
22
42
E7
ENDCHAR

STARTCHAR AE
ENCODING 198
SWIDTH 870 0
DWIDTH 11 0
BBX 12 10 0 0
BITMAP
07F0
0310
0510
0A40
0BC0
1280
3C00
2420
4420
EFC0
ENDCHAR

STARTCHAR Ccedilla
ENCODING 199
SWIDTH 722 0
DWIDTH 9 0
BBX 8 12 2 -3
BITMAP
1D
23
42
40
80
80
82
84
78
20
10
60
ENDCHAR

STARTCHAR Egrave
ENCODING 200
SWIDTH 722 0
DWIDTH 9 0
BBX 9 12 1 0
BITMAP
0800
0400
0000
3F80
1080
1080
2200
3C00
2400
4100
4100
FE00
ENDCHAR

STARTCHAR Eacute
ENCODING 201
SWIDTH 722 0
DWIDTH 9 0
BBX 9 12 1 0
BITMAP
0200
0400
0000
3F80
1080
1080
2200
3C00
2400
4100
4100
FE00
ENDCHAR

STARTCHAR Ecircumflex
ENCODING 202
SWIDTH 722 0
DWIDTH 9 0
BBX 9 12 1 0
BITMAP
0200
0500
0000
3F80
1080
1080
2200
3C00
2400
4100
4100
FE00
ENDCHAR

STARTCHAR Edieresis
ENCODING 203
SWIDTH 722 0
DWIDTH 9 0
BBX 9 11 1 0
BITMAP
0900
0000
3F80
1080
1080
2200
3C00
2400
4100
4100
FE00
ENDCHAR

STARTCHAR Igrave
ENCODING 204
SWIDTH 407 0
DWIDTH 5 0
BBX 5 12 1 0
BITMAP
10
08
00
38
10
10
20
20
20
40
40
E0
ENDCHAR

STARTCHAR Iacute
ENCODING 205
SWIDTH 407 0
DWIDTH 5 0
BBX 6 12 1 0
BITMAP
04
08
00
38
10
10
20
20
20
40
40
E0
ENDCHAR

STARTCHAR Icircumflex
ENCODING 206
SWIDTH 407 0
DWIDTH 5 0
BBX 6 12 1 0
BITMAP
08
14
00
38
10
10
20
20
20
40
40
E0
ENDCHAR

STARTCHAR Idieresis
ENCODING 207
SWIDTH 407 0
DWIDTH 5 0
BBX 6 11 1 0
BITMAP
24
00
38
10
10
20
20
20
40
40
E0
ENDCHAR

STARTCHAR Gbreve
ENCODING 208
SWIDTH 778 0
DWIDTH 10 0
BBX 8 12 2 0
BITMAP
12
0C
00
1D
23
42
40
80
87
82
86
7A
ENDCHAR

STARTCHAR Ntilde
ENCODING 209
SWIDTH 815 0
DWIDTH 11 0
BBX 11 12 1 0
BITMAP
0340
0580
0000
30E0
1040
1840
2880
2480
2480
4300
4300
E100
ENDCHAR

STARTCHAR Ograve
ENCODING 210
SWIDTH 778 0
DWIDTH 10 0
BBX 8 12 2 0
BITMAP
08
04
00
1E
21
41
41
81
82
82
84
78
ENDCHAR

STARTCHAR Oacute
ENCODING 211
SWIDTH 778 0
DWIDTH 10 0
BBX 8 12 2 0
BITMAP
02
04
00
1E
21
41
41
81
82
82
84
78
ENDCHAR

STARTCHAR Ocircumflex
ENCODING 212
SWIDTH 778 0
DWIDTH 10 0
BBX 8 12 2 0
BITMAP
04
0A
00
1E
21
41
41
81
82
82
84
78
ENDCHAR

STARTCHAR Otilde
ENCODING 213
SWIDTH 778 0
DWIDTH 10 0
BBX 8 12 2 0
BITMAP
0D
16
00
1E
21
41
41
81
82
82
84
78
ENDCHAR

STARTCHAR Odieresis
ENCODING 214
SWIDTH 778 0
DWIDTH 10 0
BBX 8 11 2 0
BITMAP
09
00
1E
21
41
41
81
82
82
84
78
ENDCHAR

STARTCHAR multiply
ENCODING 215
SWIDTH 606 0
DWIDTH 8 0
BBX 7 7 1 1
BITMAP
82
44
28
10
28
44
82
ENDCHAR

STARTCHAR Oslash
ENCODING 216
SWIDTH 778 0
DWIDTH 10 0
BBX 8 9 2 0
BITMAP
1D
23
45
49
91
92
A2
C4
B8
ENDCHAR

STARTCHAR Ugrave
ENCODING 217
SWIDTH 815 0
DWIDTH 11 0
BBX 10 12 2 0
BITMAP
0800
0400
0000
71C0
2080
2080
4100
4100
8200
8200
8400
7800
ENDCHAR

STARTCHAR Uacute
ENCODING 218
SWIDTH 815 0
DWIDTH 11 0
BBX 10 12 2 0
BITMAP
0200
0400
0000
71C0
2080
2080
4100
4100
8200
8200
8400
7800
ENDCHAR

STARTCHAR Ucircumflex
ENCODING 219
SWIDTH 815 0
DWIDTH 11 0
BBX 10 12 2 0
BITMAP
0200
0500
0000
71C0
2080
2080
4100
4100
8200
8200
8400
7800
ENDCHAR

STARTCHAR Udieresis
ENCODING 220
SWIDTH 815 0
DWIDTH 11 0
BBX 10 11 2 0
BITMAP
0900
0000
71C0
2080
2080
4100
4100
8200
8200
8400
7800
ENDCHAR

STARTCHAR Idotaccent
ENCODING 221
SWIDTH 407 0
DWIDTH 5 0
BBX 5 11 1 0
BITMAP
08
00
38
10
10
20
20
20
40
40
E0
ENDCHAR

STARTCHAR Scedilla
ENCODING 222
SWIDTH 667 0
DWIDTH 9 0
BBX 8 12 2 -3
BITMAP
3D
43
41
20
18
04
82
C2
BC
10
08
30
ENDCHAR

STARTCHAR germandbls
ENCODING 223
SWIDTH 556 0
DWIDTH 7 0
BBX 8 11 0 -2
BITMAP
0E
11
12
24
22
22
42
52
4C
80
80
ENDCHAR

STARTCHAR agrave
ENCODING 224
SWIDTH 574 0
DWIDTH 7 0
BBX 7 9 1 0
BITMAP
20
10
00
34
4C
84
88
9A
6C
ENDCHAR

STARTCHAR aacute
ENCODING 225
SWIDTH 574 0
DWIDTH 7 0
BBX 7 9 1 0
BITMAP
08
10
00
34
4C
84
88
9A
6C
ENDCHAR

STARTCHAR acircumflex
ENCODING 226
SWIDTH 574 0
DWIDTH 7 0
BBX 7 9 1 0
BITMAP
08
14
00
34
4C
84
88
9A
6C
ENDCHAR

STARTCHAR atilde
ENCODING 227
SWIDTH 574 0
DWIDTH 7 0
BBX 7 9 1 0
BITMAP
1A
2C
00
34
4C
84
88
9A
6C
ENDCHAR

STARTCHAR adieresis
ENCODING 228
SWIDTH 574 0
DWIDTH 7 0
BBX 7 8 1 0
BITMAP
24
00
34
4C
84
88
9A
6C
ENDCHAR

STARTCHAR aring
ENCODING 229
SWIDTH 574 0
DWIDTH 7 0
BBX 7 10 1 0
BITMAP
08
14
08
00
34
4C
84
88
9A
6C
ENDCHAR

STARTCHAR ae
ENCODING 230
SWIDTH 722 0
DWIDTH 9 0
BBX 9 6 0 0
BITMAP
3700
4C80
8F80
8800
9900
6600
ENDCHAR

STARTCHAR ccedilla
ENCODING 231
SWIDTH 444 0
DWIDTH 6 0
BBX 5 9 1 -3
BITMAP
38
48
80
80
90
60
40
20
C0
ENDCHAR

STARTCHAR egrave
ENCODING 232
SWIDTH 444 0
DWIDTH 6 0
BBX 5 9 1 0
BITMAP
20
10
00
30
48
F8
80
90
60
ENDCHAR

STARTCHAR eacute
ENCODING 233
SWIDTH 444 0
DWIDTH 6 0
BBX 5 9 1 0
BITMAP
08
10
00
30
48
F8
80
90
60
ENDCHAR

STARTCHAR ecircumflex
ENCODING 234
SWIDTH 444 0
DWIDTH 6 0
BBX 5 9 1 0
BITMAP
10
28
00
30
48
F8
80
90
60
ENDCHAR

STARTCHAR edieresis
ENCODING 235
SWIDTH 444 0
DWIDTH 6 0
BBX 5 8 1 0
BITMAP
48
00
30
48
F8
80
90
60
ENDCHAR

STARTCHAR igrave
ENCODING 236
SWIDTH 333 0
DWIDTH 4 0
BBX 3 9 1 0
BITMAP
80
40
00
C0
40
40
80
A0
C0
ENDCHAR

STARTCHAR iacute
ENCODING 237
SWIDTH 333 0
DWIDTH 4 0
BBX 3 9 1 0
BITMAP
20
40
00
C0
40
40
80
A0
C0
ENDCHAR

STARTCHAR icircumflex
ENCODING 238
SWIDTH 333 0
DWIDTH 4 0
BBX 3 9 1 0
BITMAP
40
A0
00
C0
40
40
80
A0
C0
ENDCHAR

STARTCHAR idieresis
ENCODING 239
SWIDTH 333 0
DWIDTH 4 0
BBX 4 8 1 0
BITMAP
90
00
C0
40
40
80
A0
C0
ENDCHAR

STARTCHAR gbreve
ENCODING 240
SWIDTH 537 0
DWIDTH 7 0
BBX 8 11 0 -2
BITMAP
12
0C
00
1D
22
22
3C
70
88
84
78
ENDCHAR

STARTCHAR ntilde
ENCODING 241
SWIDTH 611 0
DWIDTH 8 0
BBX 7 9 1 0
BITMAP
1A
2C
00
D8
64
44
48
8A
84
ENDCHAR

STARTCHAR ograve
ENCODING 242
SWIDTH 500 0
DWIDTH 7 0
BBX 6 9 1 0
BITMAP
20
10
00
38
44
84
84
88
70
ENDCHAR

STARTCHAR oacute
ENCODING 243
SWIDTH 500 0
DWIDTH 7 0
BBX 6 9 1 0
BITMAP
08
10
00
38
44
84
84
88
70
ENDCHAR

STARTCHAR ocircumflex
ENCODING 244
SWIDTH 500 0
DWIDTH 7 0
BBX 6 9 1 0
BITMAP
08
14
00
38
44
84
84
88
70
ENDCHAR

STARTCHAR otilde
ENCODING 245
SWIDTH 500 0
DWIDTH 7 0
BBX 7 9 1 0
BITMAP
1A
2C
00
38
44
84
84
88
70
ENDCHAR

STARTCHAR odieresis
ENCODING 246
SWIDTH 500 0
DWIDTH 7 0
BBX 6 8 1 0
BITMAP
24
00
38
44
84
84
88
70
ENDCHAR

STARTCHAR divide
ENCODING 247
SWIDTH 606 0
DWIDTH 8 0
BBX 7 7 1 1
BITMAP
10
00
00
FE
00
00
10
ENDCHAR

STARTCHAR oslash
ENCODING 248
SWIDTH 500 0
DWIDTH 7 0
BBX 6 6 1 0
BITMAP
34
4C
94
A4
C8
B0
ENDCHAR

STARTCHAR ugrave
ENCODING 249
SWIDTH 611 0
DWIDTH 8 0
BBX 7 9 1 0
BITMAP
20
10
00
C4
44
48
88
9A
64
ENDCHAR

STARTCHAR uacute
ENCODING 250
SWIDTH 611 0
DWIDTH 8 0
BBX 7 9 1 0
BITMAP
08
10
00
C4
44
48
88
9A
64
ENDCHAR

STARTCHAR ucircumflex
ENCODING 251
SWIDTH 611 0
DWIDTH 8 0
BBX 7 9 1 0
BITMAP
10
28
00
C4
44
48
88
9A
64
ENDCHAR

STARTCHAR udieresis
ENCODING 252
SWIDTH 611 0
DWIDTH 8 0
BBX 7 8 1 0
BITMAP
24
00
C4
44
48
88
9A
64
ENDCHAR

STARTCHAR dotlessi
ENCODING 253
SWIDTH 333 0
DWIDTH 4 0
BBX 3 6 1 0
BITMAP
C0
40
40
80
A0
C0
ENDCHAR

STARTCHAR scedilla
ENCODING 254
SWIDTH 444 0
DWIDTH 6 0
BBX 6 9 0 -3
BITMAP
3C
44
70
08
88
F0
20
10
60
ENDCHAR

STARTCHAR ydieresis
ENCODING 255
SWIDTH 500 0
DWIDTH 7 0
BBX 7 10 0 -2
BITMAP
12
00
22
52
14
0C
08
08
90
60
ENDCHAR

ENDFONT
