STARTFONT 2.1
FONT -Monotype-Courier-Bold-I-Normal--36-360-75-75-M-192-iso8859-9
SIZE 36 75 75
FONTBOUNDINGBOX 29 39 -1 -8

STARTPROPERTIES 24
FOUNDRY "Monotype"
FAMILY_NAME "Courier"
WEIGHT_NAME "Bold"
SLANT "I"
SETWIDTH_NAME "Normal"
ADD_STYLE_NAME ""
PIXEL_SIZE 36
POINT_SIZE 360
RESOLUTION_X 75
RESOLUTION_Y 75
SPACING "M"
AVERAGE_WIDTH 192
CHARSET_REGISTRY "iso8859"
CHARSET_ENCODING "9"
FACE_NAME "Courier Bold Italic ISO Latin5"
_DEC_DEVICE_FONTNAMES "PS=courier-bit-lat5"
COPYRIGHT "Copyright (c) 1994 Monotype Typography Ltd."
CAP_HEIGHT 23
X_HEIGHT 17
WEIGHT 10
QUAD_WIDTH 23
DEFAULT_CHAR 160
FONT_DESCENT 8
FONT_ASCENT 31
ENDPROPERTIES

CHARS 191

STARTCHAR space
ENCODING 32
SWIDTH 600 0
DWIDTH 23 0
BBX 0 0 0 0
BITMAP
ENDCHAR

STARTCHAR exclam
ENCODING 33
SWIDTH 600 0
DWIDTH 23 0
BBX 10 25 9 0
BITMAP
0380
07C0
0FC0
0FC0
1F80
1F80
1F80
1F80
1F00
1F00
1F00
1E00
1E00
3E00
3C00
3C00
3C00
1800
0000
0000
0000
7000
F800
F800
7000
ENDCHAR

STARTCHAR quotedbl
ENCODING 34
SWIDTH 600 0
DWIDTH 23 0
BBX 14 10 9 13
BITMAP
7C7C
7878
7878
78F0
F0F0
F0F0
E0E0
E0E0
E0E0
C0C0
ENDCHAR

STARTCHAR numbersign
ENCODING 35
SWIDTH 600 0
DWIDTH 23 0
BBX 20 30 4 -4
BITMAP
0070C0
00F1E0
00F1E0
00F3C0
01E3C0
01E3C0
01E380
01C780
03C780
1FFFE0
3FFFF0
3FFFE0
1FFFE0
078E00
071E00
0F1E00
0F1C00
7FFF80
FFFF80
FFFF80
FFFF00
1E7800
3C7800
3C7800
3CF000
38F000
78F000
78E000
78E000
70C000
ENDCHAR

STARTCHAR dollar
ENCODING 36
SWIDTH 600 0
DWIDTH 23 0
BBX 20 31 3 -5
BITMAP
000E00
001E00
001E00
007F00
01FFF0
03FFF0
07FFE0
0781E0
0F01E0
0F00C0
0F0000
0FE000
07FE00
07FF80
01FF80
003FC0
0003C0
3803C0
3803C0
780780
7C0F80
7FFF00
FFFE00
7FFC00
27E000
03C000
03C000
03C000
038000
038000
010000
ENDCHAR

STARTCHAR percent
ENCODING 37
SWIDTH 600 0
DWIDTH 23 0
BBX 19 24 4 0
BITMAP
01F000
07F800
0E1C00
0C0C00
180C00
181C00
181800
1E7800
0FF0E0
0787E0
007F80
07F800
3F8000
FE7C00
E1FE00
03CF00
030700
070300
060300
060700
070600
079E00
03FC00
01F000
ENDCHAR

STARTCHAR ampersand
ENCODING 38
SWIDTH 600 0
DWIDTH 23 0
BBX 18 22 5 0
BITMAP
003D00
00FF80
01FF80
03FF80
03C600
078000
078000
078000
07C000
03C000
0FE000
1FE3C0
3FF7C0
7CF7C0
78FF80
F0FF00
F07E00
F87C00
FFFF00
7FFF80
3FFF00
1F9E00
ENDCHAR

STARTCHAR quoteright
ENCODING 39
SWIDTH 600 0
DWIDTH 23 0
BBX 10 11 9 12
BITMAP
07C0
0780
0F80
0F00
1E00
1C00
3C00
3800
7000
6000
E000
ENDCHAR

STARTCHAR parenleft
ENCODING 40
SWIDTH 600 0
DWIDTH 23 0
BBX 12 31 12 -6
BITMAP
0060
00F0
01F0
03E0
03C0
0780
0F80
0F00
1E00
3E00
3C00
3C00
7800
7800
7800
F800
F000
F000
F000
F000
F000
F000
F000
F800
F800
7800
7800
7C00
3C00
3C00
1800
ENDCHAR

STARTCHAR parenright
ENCODING 41
SWIDTH 600 0
DWIDTH 23 0
BBX 12 31 3 -6
BITMAP
0180
03C0
03E0
03E0
01E0
01E0
01F0
00F0
00F0
00F0
00F0
00F0
00F0
00F0
00F0
01F0
01E0
01E0
01E0
03C0
03C0
07C0
0780
0F00
1F00
1E00
3E00
7C00
F800
F000
6000
ENDCHAR

STARTCHAR asterisk
ENCODING 42
SWIDTH 600 0
DWIDTH 23 0
BBX 16 16 7 9
BITMAP
00E0
01E0
01E0
01E0
01C0
FBCF
FFFF
FFFF
7FFE
0FE0
0FE0
1FE0
3EF0
7CF0
78F0
7060
ENDCHAR

STARTCHAR plus
ENCODING 43
SWIDTH 600 0
DWIDTH 23 0
BBX 20 22 4 0
BITMAP
001800
003C00
003800
007800
007800
007800
007800
007000
00F000
7FFFE0
FFFFF0
FFFFE0
FFFFC0
01E000
01E000
01E000
01C000
03C000
03C000
03C000
038000
018000
ENDCHAR

STARTCHAR comma
ENCODING 44
SWIDTH 600 0
DWIDTH 23 0
BBX 10 11 7 -6
BITMAP
0FC0
0F80
1F00
1E00
3C00
3C00
7800
7000
E000
E000
C000
ENDCHAR

STARTCHAR minus
ENCODING 45
SWIDTH 600 0
DWIDTH 23 0
BBX 20 4 4 9
BITMAP
7FFFE0
FFFFF0
FFFFE0
FFFFC0
ENDCHAR

STARTCHAR period
ENCODING 46
SWIDTH 600 0
DWIDTH 23 0
BBX 6 5 9 0
BITMAP
78
7C
FC
F8
70
ENDCHAR

STARTCHAR slash
ENCODING 47
SWIDTH 600 0
DWIDTH 23 0
BBX 22 31 3 -4
BITMAP
00001C
00003C
00003C
000078
0000F8
0000F0
0001E0
0003C0
0003C0
000780
000F00
001F00
001E00
003C00
007C00
007800
00F000
01F000
01E000
03C000
07C000
078000
0F0000
1E0000
3E0000
3C0000
780000
F80000
F00000
E00000
C00000
ENDCHAR

STARTCHAR zero
ENCODING 48
SWIDTH 600 0
DWIDTH 23 0
BBX 18 25 5 0
BITMAP
007C00
01FF00
03FF80
07FF80
0F87C0
1E07C0
1E03C0
3C03C0
3C03C0
3803C0
7803C0
780380
780780
700780
F00780
F00780
F00F00
F00F00
F01E00
F83E00
787C00
7FF800
7FF000
3FE000
0F8000
ENDCHAR

STARTCHAR one
ENCODING 49
SWIDTH 600 0
DWIDTH 23 0
BBX 16 25 4 0
BITMAP
0006
007C
07FC
0FFC
1FFC
0F38
0078
0078
0078
0078
0070
00F0
00F0
00F0
00F0
01E0
01E0
01E0
01E0
01C0
03C0
FFFF
FFFF
FFFF
FFFE
ENDCHAR

STARTCHAR two
ENCODING 50
SWIDTH 600 0
DWIDTH 23 0
BBX 21 25 2 0
BITMAP
001F80
007FE0
01FFF0
03FFF0
07E0F8
078078
0F0078
070078
0000F8
0000F0
0001E0
0007E0
000FC0
001F00
007E00
00FC00
01F800
07E000
0FC000
1F8000
7C0080
7FFFC0
FFFFC0
FFFF80
FFFF80
ENDCHAR

STARTCHAR three
ENCODING 51
SWIDTH 600 0
DWIDTH 23 0
BBX 21 25 3 0
BITMAP
001F80
00FFE0
01FFF0
03FFF8
03C0F8
038078
000078
000078
0000F0
0003F0
007FE0
00FF80
00FFC0
003FE0
0007E0
0001E0
0001E0
0001E0
0001E0
0003C0
700FC0
FFFF80
FFFF00
7FFC00
0FE000
ENDCHAR

STARTCHAR four
ENCODING 52
SWIDTH 600 0
DWIDTH 23 0
BBX 18 25 4 0
BITMAP
0007C0
000FC0
001FC0
003F80
007F80
007F80
00F780
01F780
03EF00
03CF00
078F00
0F0F00
1F0E00
3E1E00
3C1E00
7FFF00
FFFF80
FFFF80
FFFF00
003C00
003C00
03FE00
03FF00
03FF00
03FE00
ENDCHAR

STARTCHAR five
ENCODING 53
SWIDTH 600 0
DWIDTH 23 0
BBX 20 25 3 0
BITMAP
03FFF0
03FFF0
03FFF0
03FFE0
078000
078000
078000
078000
077E00
0FFF80
0FFFC0
0FFFC0
0F03E0
0001E0
0001E0
0001E0
0001E0
0001C0
0003C0
6007C0
F80F80
FFFF00
FFFE00
7FFC00
0FE000
ENDCHAR

STARTCHAR six
ENCODING 54
SWIDTH 600 0
DWIDTH 23 0
BBX 19 25 6 0
BITMAP
000F80
007FE0
00FFE0
03FFC0
07E000
0F8000
1F0000
1E0000
3C0000
3CF000
7BFC00
7FFE00
7FFE00
FE1F00
FC0F00
F80F00
F00F00
F00F00
F00E00
F01E00
F83E00
7FFC00
7FF800
3FF000
0F8000
ENDCHAR

STARTCHAR seven
ENCODING 55
SWIDTH 600 0
DWIDTH 23 0
BBX 17 25 7 0
BITMAP
7FFF80
7FFF80
FFFF80
FFF780
F00F00
E00F00
001E00
001E00
003C00
003C00
007800
007800
00F000
00F000
01E000
03E000
03C000
078000
078000
0F0000
0F0000
1E0000
1E0000
1C0000
180000
ENDCHAR

STARTCHAR eight
ENCODING 56
SWIDTH 600 0
DWIDTH 23 0
BBX 19 25 4 0
BITMAP
003E00
01FF80
03FFC0
07FFE0
0F83E0
0F01E0
1E01E0
1E01E0
1E03C0
1F07C0
1FFF80
0FFE00
1FFF00
3FFF00
3E1F80
7C0780
780780
F00780
F00780
F00F00
F81F00
7FFE00
7FFC00
3FF800
0FC000
ENDCHAR

STARTCHAR nine
ENCODING 57
SWIDTH 600 0
DWIDTH 23 0
BBX 19 25 4 0
BITMAP
003E00
00FF80
01FFC0
03FFC0
07C3E0
0F03E0
0F01E0
0E01E0
1E01E0
1E01E0
1E03E0
1E07E0
1F0FE0
0FFFC0
0FFFC0
07FBC0
01E780
000780
001F00
003E00
00FC00
7FF800
FFF000
FFC000
3E0000
ENDCHAR

STARTCHAR colon
ENCODING 58
SWIDTH 600 0
DWIDTH 23 0
BBX 9 17 9 0
BITMAP
0F00
0F80
1F80
1F00
0E00
0000
0000
0000
0000
0000
0000
0000
3800
7C00
FC00
F800
7000
ENDCHAR

STARTCHAR semicolon
ENCODING 59
SWIDTH 600 0
DWIDTH 23 0
BBX 12 21 5 -4
BITMAP
01E0
01F0
03F0
03E0
01C0
0000
0000
0000
0000
0000
0000
0F80
1F00
1E00
3C00
3800
7800
7000
E000
C000
8000
ENDCHAR

STARTCHAR less
ENCODING 60
SWIDTH 600 0
DWIDTH 23 0
BBX 24 22 2 0
BITMAP
000006
00001F
00007E
0001FE
0007F8
001FE0
007F80
01FE00
07F800
1FE000
7F8000
FF0000
3FC000
0FE000
07F800
01FE00
00FF00
003FC0
001FE0
0007F0
0001F0
0000E0
ENDCHAR

STARTCHAR equal
ENCODING 61
SWIDTH 600 0
DWIDTH 23 0
BBX 23 11 2 5
BITMAP
1FFFFE
3FFFFE
3FFFFE
3FFFFC
000000
000000
000000
7FFFF8
FFFFFC
FFFFF8
7FFFF0
ENDCHAR

STARTCHAR greater
ENCODING 62
SWIDTH 600 0
DWIDTH 23 0
BBX 24 22 2 0
BITMAP
020000
0F0000
0FC000
0FF000
07F800
01FE00
00FF00
003FC0
001FE0
0007F8
0000FF
0001FE
0007F8
001FE0
007F80
01FE00
07F800
1FE000
7F8000
FE0000
F80000
E00000
ENDCHAR

STARTCHAR question
ENCODING 63
SWIDTH 600 0
DWIDTH 23 0
BBX 16 23 7 0
BITMAP
03F0
1FFC
7FFE
7FFF
781F
F00F
F00F
600F
001E
007E
01FC
07F8
0FE0
0F80
0F00
0600
0000
0000
0000
1E00
3E00
3E00
3C00
ENDCHAR

STARTCHAR at
ENCODING 64
SWIDTH 600 0
DWIDTH 23 0
BBX 18 28 4 -3
BITMAP
003E00
00FF00
03FF80
07C3C0
0701C0
0E01C0
1C01C0
1C01C0
380F80
383F80
387F80
30F380
71C380
738700
738700
738700
63C700
E1FF00
E1FF00
E07E00
E00000
E00000
E00000
700800
783C00
7FF800
3FF000
0F8000
ENDCHAR

STARTCHAR A
ENCODING 65
SWIDTH 600 0
DWIDTH 23 0
BBX 24 23 0 0
BITMAP
00FFC0
01FFE0
01FFE0
00EFE0
001FE0
001EE0
003DF0
003CF0
0078F0
00F8F0
00F0F0
01E0F0
01C078
03FFF8
07FFF8
07FFF8
0FFFF8
0F007C
1E003C
7F81FF
FFC3FF
FFC3FF
FF83FE
ENDCHAR

STARTCHAR B
ENCODING 66
SWIDTH 600 0
DWIDTH 23 0
BBX 23 23 1 0
BITMAP
07FFE0
0FFFF8
0FFFFC
0FFFFE
01E03E
01C01E
03C01E
03C01E
03C03C
0380FC
07FFF8
07FFF0
07FFF8
07FFFC
07007C
0F003C
0F003C
0E003C
0E0078
7FFFF8
FFFFF0
FFFFC0
7FFF00
ENDCHAR

STARTCHAR C
ENCODING 67
SWIDTH 600 0
DWIDTH 23 0
BBX 22 23 3 0
BITMAP
003F80
00FFEC
03FFFC
07FFFC
0FC0FC
1F007C
1E0038
3C0038
780030
780000
780000
700000
F00000
F00000
F00000
F00000
F80040
7800F0
7E03E0
3FFFE0
3FFFC0
0FFF00
03F800
ENDCHAR

STARTCHAR D
ENCODING 68
SWIDTH 600 0
DWIDTH 23 0
BBX 23 23 2 0
BITMAP
07FFC0
0FFFF0
0FFFF8
07FFFC
03C07C
03C03E
03801E
07801E
07801E
07801E
07801E
0F001E
0F001C
0F003C
0F003C
0E0078
1E0078
1E00F0
1E03F0
7FFFE0
FFFF80
FFFF00
7FF800
ENDCHAR

STARTCHAR E
ENCODING 69
SWIDTH 600 0
DWIDTH 23 0
BBX 24 23 1 0
BITMAP
07FFFF
0FFFFF
0FFFFE
0FFFFE
01C01E
03C01E
03C11C
03C79C
038780
07FF00
07FF00
07FF00
07FF00
070F00
0F0E18
0F0C38
0F0038
0F0078
0E0078
7FFFF8
FFFFF8
FFFFF0
7FFFF0
ENDCHAR

STARTCHAR F
ENCODING 70
SWIDTH 600 0
DWIDTH 23 0
BBX 25 23 2 0
BITMAP
07FFFF80
0FFFFF80
0FFFFF80
07FFFF00
01E00F00
01C00F00
03C10F00
03C38E00
03C78000
03FF8000
03FF0000
07FF0000
07FF0000
078F0000
078F0000
0F0E0000
0F000000
0F000000
0F000000
7FF80000
FFFC0000
FFF80000
7FF80000
ENDCHAR

STARTCHAR G
ENCODING 71
SWIDTH 600 0
DWIDTH 23 0
BBX 22 23 3 0
BITMAP
001F84
00FFFC
01FFFC
07FFFC
0FC07C
1F003C
1E0038
3C0030
3C0000
780000
780000
780000
F01FF8
F03FFC
F03FF8
F03FF0
F000E0
F801E0
7C03E0
7FFFE0
3FFFE0
1FFF00
03F800
ENDCHAR

STARTCHAR H
ENCODING 72
SWIDTH 600 0
DWIDTH 23 0
BBX 25 23 1 0
BITMAP
03FC7F00
07FCFF80
07FCFF80
07F8DF00
01C03C00
03C03C00
03C03C00
03C03C00
03C03800
07807800
07FFF800
07FFF800
07FFF800
07FFF000
0F00F000
0F00F000
0F00F000
0F00F000
0E01E000
7FC7F800
FFCFFC00
FFCFF800
7F8FF000
ENDCHAR

STARTCHAR I
ENCODING 73
SWIDTH 600 0
DWIDTH 23 0
BBX 20 23 4 0
BITMAP
07FFF0
0FFFF0
0FFFF0
0FBFE0
007800
007800
007800
007800
007000
00F000
00F000
00F000
00F000
01E000
01E000
01E000
01E000
01C000
03C000
FFFF00
FFFF00
FFFF00
FFFE00
ENDCHAR

STARTCHAR J
ENCODING 74
SWIDTH 600 0
DWIDTH 23 0
BBX 25 23 3 0
BITMAP
003FFF00
007FFF80
007FFF80
003FFF00
0000E000
0001E000
0001E000
0001E000
0001E000
0001C000
0003C000
0003C000
3803C000
7803C000
78078000
70078000
F0078000
F00F0000
F83F0000
FFFE0000
FFFC0000
3FF00000
07C00000
ENDCHAR

STARTCHAR K
ENCODING 75
SWIDTH 600 0
DWIDTH 23 0
BBX 26 23 1 0
BITMAP
07FC3F80
0FFE7FC0
0FFE7F80
0DFC7F00
03C0FC00
03C1F800
03C7E000
03CFC000
03DF8000
07FE0000
07FE0000
07FF0000
07FF8000
07CFC000
0F87C000
0F03C000
0F03E000
0F01E000
0E01E000
7FC1FC00
FFE0FC00
FFE0FC00
FFC0F800
ENDCHAR

STARTCHAR L
ENCODING 76
SWIDTH 600 0
DWIDTH 23 0
BBX 22 23 2 0
BITMAP
07FF80
0FFF80
0FFF80
0FFF00
00F000
00E000
01E000
01E000
01E000
01E000
01C000
03C000
03C000
03C038
03C03C
038038
078078
078078
078078
7FFFF8
FFFFF0
FFFFF0
FFFFF0
ENDCHAR

STARTCHAR M
ENCODING 77
SWIDTH 600 0
DWIDTH 23 0
BBX 28 23 0 0
BITMAP
07E007E0
0FE00FF0
0FF00FE0
0BF01FE0
07F01F80
07F03F80
07F87F80
07F87F80
07B8F700
0F79F700
0F7DEF00
0F3DCF00
0F3FCF00
0E3F8E00
1E3F1E00
1E1F1E00
1E1E1E00
1E001C00
1C003C00
7F81FF00
FFC3FF00
FFC3FF00
FF81FE00
ENDCHAR

STARTCHAR N
ENCODING 78
SWIDTH 600 0
DWIDTH 23 0
BBX 26 23 1 0
BITMAP
0FE07F80
1FE0FFC0
1FE0FFC0
1FF0FF80
03F01E00
07F81E00
07F81E00
07BC1C00
07BC3C00
073C3C00
0F3E3C00
0F1E3C00
0F1F3800
0F1F7800
0E0F7800
1E0FB800
1E07F800
1E07F000
1C03F000
7FC3F000
FFC3F000
FFC1E000
FF81E000
ENDCHAR

STARTCHAR O
ENCODING 79
SWIDTH 600 0
DWIDTH 23 0
BBX 22 23 3 0
BITMAP
003F00
00FFC0
03FFF0
07FFF0
0FC1F8
1F0078
1E007C
3C003C
78003C
78003C
70003C
F0003C
F00038
F00078
F00078
F000F0
F801E0
7C03E0
7E0FC0
3FFF80
1FFE00
0FFC00
03E000
ENDCHAR

STARTCHAR P
ENCODING 80
SWIDTH 600 0
DWIDTH 23 0
BBX 23 23 1 0
BITMAP
07FFE0
0FFFF8
0FFFFC
07FFFE
01E03E
01C01E
03C01E
03C01E
03C03C
03C07C
0380F8
07FFF8
07FFE0
07FFC0
07FE00
070000
0F0000
0F0000
0F0000
7FF800
FFFC00
FFF800
7FF000
ENDCHAR

STARTCHAR Q
ENCODING 81
SWIDTH 600 0
DWIDTH 23 0
BBX 22 28 3 -5
BITMAP
003F00
00FFC0
03FFE0
07FFF0
0FC1F8
1F0078
1E007C
3C003C
78003C
78003C
70003C
F0003C
F00038
F00078
F00078
F000F0
F801F0
7C03E0
7E0FC0
3FFF80
1FFF00
07FC00
0F8000
1FF0E0
3FFFE0
7FFFC0
7FFF80
701E00
ENDCHAR

STARTCHAR R
ENCODING 82
SWIDTH 600 0
DWIDTH 23 0
BBX 23 23 1 0
BITMAP
07FFE0
0FFFF8
0FFFFC
07FFFE
01E03E
01C01E
03C01E
03C01E
03C03C
0380FC
03FFF8
07FFE0
07FF80
07FFC0
0707E0
0F03E0
0F01F0
0F00F0
0F00F8
7FE07E
FFE07E
FFE03E
7FC03C
ENDCHAR

STARTCHAR S
ENCODING 83
SWIDTH 600 0
DWIDTH 23 0
BBX 22 23 2 0
BITMAP
001F80
00FFFC
01FFFC
03FFFC
07C0FC
078078
0F0078
0F0038
0F8000
0FF000
07FF00
03FFC0
01FFE0
000FF0
0001F0
3800F0
7800F0
7801E0
7E07E0
7FFFC0
FFFF80
77FE00
03F800
ENDCHAR

STARTCHAR T
ENCODING 84
SWIDTH 600 0
DWIDTH 23 0
BBX 21 23 5 0
BITMAP
7FFFF8
7FFFF8
7FFFF8
7FFFF0
F0F0F0
F0F0F0
F0F0F0
F0E0E0
E1E1E0
E1E0E0
01E000
01E000
01C000
03C000
03C000
03C000
03C000
038000
078000
7FF800
FFFC00
FFFC00
FFF800
ENDCHAR

STARTCHAR U
ENCODING 85
SWIDTH 600 0
DWIDTH 23 0
BBX 23 23 4 0
BITMAP
3FC3FC
7FE7FE
7FE7FE
5FC7FC
3C00F0
3C00F0
3C00E0
3C01E0
3801E0
7801E0
7801E0
7803C0
7803C0
7003C0
F003C0
F00380
F00780
F80F00
FC3F00
7FFE00
3FFC00
1FF000
07C000
ENDCHAR

STARTCHAR V
ENCODING 86
SWIDTH 600 0
DWIDTH 23 0
BBX 25 23 3 0
BITMAP
3FC0FF80
7FE1FF80
FFE1FF80
7FC1BF00
1E007C00
1E007800
1E00F000
1F00F000
0F01E000
0F03E000
0F03C000
0F078000
0F8F8000
078F0000
079E0000
079E0000
07BC0000
07FC0000
03F80000
03F00000
03F00000
03E00000
03C00000
ENDCHAR

STARTCHAR W
ENCODING 87
SWIDTH 600 0
DWIDTH 23 0
BBX 24 23 4 0
BITMAP
7FC3FE
FFC3FF
FFC7FE
FF83BE
780078
780078
787878
78F8F0
78F8F0
79F8F0
7BFDE0
73FDE0
77BDE0
F7BFC0
F73DC0
FF3FC0
FE3F80
FE3F80
FC1F80
FC1F00
F81F00
F81F00
F01E00
ENDCHAR

STARTCHAR X
ENCODING 88
SWIDTH 600 0
DWIDTH 23 0
BBX 25 23 1 0
BITMAP
07F03F80
0FF87F80
0FF87F80
07F03F00
03E07C00
01F0F800
00F1F000
00FBE000
007FC000
007F8000
003F0000
003F0000
007F0000
00FF8000
01F78000
03E7C000
07C3E000
0F83E000
1E01F000
7F83FC00
FF87FC00
FF87FC00
FF07F800
ENDCHAR

STARTCHAR Y
ENCODING 89
SWIDTH 600 0
DWIDTH 23 0
BBX 22 23 5 0
BITMAP
7F03F8
FF87FC
FF87F8
7F03F0
1E07C0
1F0780
1F0F00
0F9E00
0FBE00
07FC00
07F800
03F000
01E000
03C000
03C000
03C000
03C000
038000
078000
7FF800
FFFC00
FFFC00
FFF800
ENDCHAR

STARTCHAR Z
ENCODING 90
SWIDTH 600 0
DWIDTH 23 0
BBX 21 23 3 0
BITMAP
07FFF8
07FFF8
07FFF8
07FFF0
0F01F0
0F03E0
0F07C0
0F0F80
0E1F00
003E00
007C00
00F800
01F000
03E000
07C1E0
0F81E0
1F01E0
3E03C0
7C03C0
7FFFC0
FFFFC0
FFFF80
FFFF80
ENDCHAR

STARTCHAR bracketleft
ENCODING 91
SWIDTH 600 0
DWIDTH 23 0
BBX 15 30 8 -5
BITMAP
03FC
03FE
03FE
03FC
0380
0780
0780
0780
0780
0700
0F00
0F00
0F00
0F00
1E00
1E00
1E00
1E00
1C00
3C00
3C00
3C00
3C00
3800
7800
7800
7F80
7F80
FF80
FF00
ENDCHAR

STARTCHAR backslash
ENCODING 92
SWIDTH 600 0
DWIDTH 23 0
BBX 11 31 8 -4
BITMAP
3000
7000
F800
7800
7800
7800
7C00
3C00
3C00
3C00
3E00
1E00
1E00
1E00
1F00
0F00
0F00
0F80
0780
0780
0780
07C0
03C0
03C0
03C0
03E0
01E0
01E0
01E0
01E0
00C0
ENDCHAR

STARTCHAR bracketright
ENCODING 93
SWIDTH 600 0
DWIDTH 23 0
BBX 14 30 4 -5
BITMAP
03FC
03FC
07FC
03FC
003C
0078
0078
0078
0078
0070
00F0
00F0
00F0
00F0
00E0
01E0
01E0
01E0
01E0
01C0
03C0
03C0
03C0
0380
0780
0780
7F80
FF80
FF00
FF00
ENDCHAR

STARTCHAR asciicircum
ENCODING 94
SWIDTH 600 0
DWIDTH 23 0
BBX 17 12 6 13
BITMAP
002000
007000
00F000
01F800
03FC00
07FC00
0FBE00
1F3F00
3E1F00
7C0F80
F80F80
F00700
ENDCHAR

STARTCHAR underscore
ENCODING 95
SWIDTH 600 0
DWIDTH 23 0
BBX 23 2 0 -5
BITMAP
FFFFFE
FFFFFE
ENDCHAR

STARTCHAR quoteleft
ENCODING 96
SWIDTH 600 0
DWIDTH 23 0
BBX 6 11 13 12
BITMAP
F8
F8
78
78
78
38
38
38
1C
1C
18
ENDCHAR

STARTCHAR a
ENCODING 97
SWIDTH 600 0
DWIDTH 23 0
BBX 20 17 2 0
BITMAP
007F00
07FFC0
0FFFC0
0FFFE0
0601E0
0001E0
01FFE0
0FFFC0
1FFFC0
3FFFC0
7C03C0
F003C0
F01F80
FFFFF0
7FFFF0
3FFBF0
0F87E0
ENDCHAR

STARTCHAR b
ENCODING 98
SWIDTH 600 0
DWIDTH 23 0
BBX 24 25 0 0
BITMAP
03F000
07F000
07F000
07E000
01E000
01E000
01E000
01E000
03C7F0
03DFF8
03FFFC
03FFFE
03F03F
07E01F
07C00F
07800F
07800F
07000F
0F801E
0F803E
0FC07C
7FFFF8
FFFFF0
FEFFC0
7E3E00
ENDCHAR

STARTCHAR c
ENCODING 99
SWIDTH 600 0
DWIDTH 23 0
BBX 20 17 4 0
BITMAP
007E30
03FFF0
07FFF0
1FFFF0
3F01F0
3C00E0
7800E0
780000
F00000
F00000
F00000
F000C0
FC03E0
7FFFE0
3FFFC0
1FFF00
07F800
ENDCHAR

STARTCHAR d
ENCODING 100
SWIDTH 600 0
DWIDTH 23 0
BBX 23 25 3 0
BITMAP
0000FE
0001FC
0001FC
0000FC
00003C
00003C
000038
000078
00FE78
03FFB8
0FFFF8
1FFFF0
3F03F0
3C01F0
7801F0
7800E0
F001E0
F001E0
F001E0
F003E0
F80FC0
7FFFF8
3FFFF8
1FFDF8
07E3F0
ENDCHAR

STARTCHAR e
ENCODING 101
SWIDTH 600 0
DWIDTH 23 0
BBX 20 17 3 0
BITMAP
007E00
03FF80
0FFFC0
1FFFE0
3E01F0
7800F0
7FFFF0
FFFFF0
FFFFF0
FFFFF0
F00000
F80000
7C03E0
7FFFE0
3FFFC0
1FFF80
07F800
ENDCHAR

STARTCHAR f
ENCODING 102
SWIDTH 600 0
DWIDTH 23 0
BBX 23 25 3 0
BITMAP
0003F8
000FFE
003FFE
003FFE
007C0C
007800
00F000
00F000
0FFFF0
0FFFF0
1FFFF0
0FFFE0
01E000
01E000
01E000
01C000
03C000
03C000
03C000
03C000
078000
7FFF00
FFFF80
FFFF80
7FFF00
ENDCHAR

STARTCHAR g
ENCODING 103
SWIDTH 600 0
DWIDTH 23 0
BBX 23 25 3 -8
BITMAP
00FCFE
03FFFE
0FFFFE
1FFFFC
3F07E0
3C03E0
7801E0
7001E0
F001C0
F003C0
F003C0
F807C0
FC1FC0
7FFF80
3FFF80
1FFB80
0FE780
000700
000F00
000F00
003E00
3FFE00
7FFC00
7FF000
3FC000
ENDCHAR

STARTCHAR h
ENCODING 104
SWIDTH 600 0
DWIDTH 23 0
BBX 22 25 1 0
BITMAP
07F000
0FE000
0FE000
07E000
01E000
01E000
01C000
03C000
03CFE0
03FFF0
03FFF0
07FFF8
07E078
07C078
078078
078078
0F00F0
0F00F0
0F00F0
0F00F0
0E00E0
7F87F8
FFCFFC
FFCFF8
7F87F8
ENDCHAR

STARTCHAR i
ENCODING 105
SWIDTH 600 0
DWIDTH 23 0
BBX 18 25 3 0
BITMAP
003E00
003E00
003C00
003C00
000000
000000
000000
000000
07FC00
0FFC00
0FF800
07F800
007800
007800
007800
00F000
00F000
00F000
00F000
00E000
01E000
7FFF80
FFFFC0
FFFFC0
FFFF80
ENDCHAR

STARTCHAR j
ENCODING 106
SWIDTH 600 0
DWIDTH 23 0
BBX 19 33 2 -8
BITMAP
0003C0
0007C0
0007C0
0007C0
000000
000000
000000
000000
07FFE0
07FFE0
07FFE0
07FFC0
0003C0
0003C0
0003C0
000380
000780
000780
000780
000780
000700
000F00
000F00
000F00
000F00
000E00
001E00
001E00
007C00
7FFC00
FFF800
FFE000
FF8000
ENDCHAR

STARTCHAR k
ENCODING 107
SWIDTH 600 0
DWIDTH 23 0
BBX 21 25 2 0
BITMAP
07E000
0FE000
0FE000
0FE000
01E000
03C000
03C000
03C000
03C7F8
03CFF8
078FF8
078FF0
07BF00
07BE00
07FC00
0FF000
0FF800
0FFC00
0F7E00
0E3F00
1E1F00
7E0FF0
FE1FF0
FE1FF0
FC1FE0
ENDCHAR

STARTCHAR l
ENCODING 108
SWIDTH 600 0
DWIDTH 23 0
BBX 18 25 3 0
BITMAP
01FE00
03FE00
03FE00
03FE00
001E00
003C00
003C00
003C00
003C00
003C00
007800
007800
007800
007800
007000
00F000
00F000
00F000
00F000
00E000
01E000
7FFFC0
FFFFC0
FFFFC0
FFFF80
ENDCHAR

STARTCHAR m
ENCODING 109
SWIDTH 600 0
DWIDTH 23 0
BBX 24 17 0 0
BITMAP
1FBC3C
3FBEFE
3FFFFF
1FCFCF
0F8F8F
0F0F0F
0F0F0E
1E1E1E
1E1E1E
1E1E1E
1E1E1E
1C1C1C
3C3C3C
7F3F3F
FF3F3F
FF3F3F
FE7E7E
ENDCHAR

STARTCHAR n
ENCODING 110
SWIDTH 600 0
DWIDTH 23 0
BBX 21 17 1 0
BITMAP
0FC7C0
0FDFF0
0FFFF8
0FF8F8
07E078
078078
078078
070070
0F00F0
0F00F0
0F00F0
0F00F0
0E00E0
7F83F8
FFC7F8
FFC7F8
7F87F0
ENDCHAR

STARTCHAR o
ENCODING 111
SWIDTH 600 0
DWIDTH 23 0
BBX 20 17 3 0
BITMAP
007E00
03FF80
07FFC0
1FFFE0
1F03E0
3C01F0
7800F0
7800F0
F000F0
F000F0
F001E0
F803E0
7C0FC0
7FFF80
3FFF00
1FFC00
07E000
ENDCHAR

STARTCHAR p
ENCODING 112
SWIDTH 600 0
DWIDTH 23 0
BBX 25 25 -1 -8
BITMAP
07E1F000
0FEFFC00
0FFFFE00
0FFE3F00
01F80F80
01E00780
03E00780
03C00780
03C00780
03C00F80
07C00F00
07E01F00
07F07E00
07FFFC00
07FFF800
0F7FE000
0F1F0000
0F000000
0F000000
0E000000
1E000000
7FE00000
FFE00000
FFE00000
FFC00000
ENDCHAR

STARTCHAR q
ENCODING 113
SWIDTH 600 0
DWIDTH 23 0
BBX 24 25 3 -8
BITMAP
007C7E
03FF7F
07FFFE
1FFFFE
3F07F0
3C03F0
7801F0
7801E0
F001E0
F001E0
F003E0
F807C0
7C0FC0
7FFFC0
3FFFC0
1FFBC0
03E380
000780
000780
000780
000780
007FE0
00FFE0
01FFE0
00FFC0
ENDCHAR

STARTCHAR r
ENCODING 114
SWIDTH 600 0
DWIDTH 23 0
BBX 23 17 2 0
BITMAP
07F0F0
0FF3FC
0FF7FE
06FFFE
01FF1C
01FC00
01F000
01E000
01C000
03C000
03C000
03C000
038000
7FFF80
7FFF80
FFFF80
7FFF00
ENDCHAR

STARTCHAR s
ENCODING 115
SWIDTH 600 0
DWIDTH 23 0
BBX 19 17 3 0
BITMAP
007E60
03FFE0
07FFE0
0FFFE0
1F01E0
1E01C0
1FF000
0FFE00
0FFF80
01FFC0
0007C0
7003C0
7807C0
7EFF80
FFFF00
FFFE00
C7F000
ENDCHAR

STARTCHAR t
ENCODING 116
SWIDTH 600 0
DWIDTH 23 0
BBX 18 23 5 0
BITMAP
018000
038000
078000
078000
078000
078000
7FFF80
7FFFC0
FFFFC0
7FFF80
0F0000
0E0000
1E0000
1E0000
1E0000
1C0000
3C0000
3C0080
3C07C0
3FFFC0
3FFF80
1FFE00
07E000
ENDCHAR

STARTCHAR u
ENCODING 117
SWIDTH 600 0
DWIDTH 23 0
BBX 19 17 4 0
BITMAP
7F0FE0
FE0FE0
FE1FE0
7E0FE0
1E01E0
1C01C0
3C03C0
3C03C0
3C03C0
3C0380
380780
780780
781F80
7C7FC0
7FFFE0
3FFFC0
0F8FC0
ENDCHAR

STARTCHAR v
ENCODING 118
SWIDTH 600 0
DWIDTH 23 0
BBX 23 17 3 0
BITMAP
7FC3FE
FFC7FE
FFC7FE
7F87FC
1E01E0
1F03C0
0F07C0
0F0780
0F0F00
0F9F00
079E00
07BC00
07FC00
03F800
03F000
03E000
03E000
ENDCHAR

STARTCHAR w
ENCODING 119
SWIDTH 600 0
DWIDTH 23 0
BBX 23 17 3 0
BITMAP
7F01FE
FF81FE
FF83FE
7F017C
3C78F0
3CF8F0
3CF8E0
3DFDE0
3DFDE0
3DFDC0
3FDFC0
3FBF80
3F3F80
3F1F00
3E1F00
3E1E00
3C1E00
ENDCHAR

STARTCHAR x
ENCODING 120
SWIDTH 600 0
DWIDTH 23 0
BBX 24 17 1 0
BITMAP
07F0FE
0FF1FF
0FF1FE
0FE1FC
03F3F0
01FBE0
00FF80
007F00
007E00
00FF00
03FF80
07E7C0
1F03E0
7F87F8
FFCFFC
FF8FF8
7F07F0
ENDCHAR

STARTCHAR y
ENCODING 121
SWIDTH 600 0
DWIDTH 23 0
BBX 26 25 -1 -8
BITMAP
03F81FC0
07FC3FC0
07F83FC0
07F02F80
01E01F00
01E03E00
01F03C00
00F07800
00F0F800
00F0F000
00F9E000
007BC000
007BC000
007F8000
003F0000
003F0000
003E0000
003C0000
00780000
00F80000
00F00000
3FF80000
7FFC0000
FFFC0000
7FF80000
ENDCHAR

STARTCHAR z
ENCODING 122
SWIDTH 600 0
DWIDTH 23 0
BBX 20 17 3 0
BITMAP
0FFFF0
0FFFF0
0FFFF0
0FF7E0
1E0FC0
1E1F80
0C3E00
007C00
01F800
03F000
07C000
0F8180
3E03C0
7FFFC0
7FFF80
7FFF80
FFFF80
ENDCHAR

STARTCHAR braceleft
ENCODING 123
SWIDTH 600 0
DWIDTH 23 0
BBX 13 30 8 -5
BITMAP
0070
01F8
03F0
03F0
0780
0780
0780
0700
0F00
0F00
0F00
0F00
1E00
7E00
FC00
FC00
FC00
3C00
3C00
3C00
3C00
3800
7800
7800
7800
7800
7E00
7E00
3E00
1C00
ENDCHAR

STARTCHAR bar
ENCODING 124
SWIDTH 600 0
DWIDTH 23 0
BBX 4 30 9 -5
BITMAP
60
F0
F0
F0
F0
F0
F0
F0
F0
F0
F0
F0
F0
F0
F0
F0
F0
F0
F0
F0
F0
F0
F0
F0
F0
F0
F0
F0
F0
60
ENDCHAR

STARTCHAR braceright
ENCODING 125
SWIDTH 600 0
DWIDTH 23 0
BBX 13 30 5 -5
BITMAP
01C0
03E0
03F0
03F0
00F0
00F0
00F0
00F0
00E0
01E0
01E0
01E0
01E0
01F8
01F8
01F8
03F0
03C0
0780
0780
0780
0780
0700
0F00
0F00
0F00
7E00
FC00
F800
7000
ENDCHAR

STARTCHAR asciitilde
ENCODING 126
SWIDTH 600 0
DWIDTH 23 0
BBX 19 8 4 7
BITMAP
078000
1FC040
3FE1E0
7FF3E0
F9FFC0
70FF80
607F00
001C00
ENDCHAR

STARTCHAR space
ENCODING 160
SWIDTH 600 0
DWIDTH 23 0
BBX 0 0 0 0
BITMAP
ENDCHAR

STARTCHAR exclamdown
ENCODING 161
SWIDTH 600 0
DWIDTH 23 0
BBX 10 24 7 -8
BITMAP
0380
07C0
07C0
0380
0000
0000
0000
0600
0F00
0F00
1F00
1F00
1E00
1E00
3E00
3E00
3E00
7E00
7E00
7E00
FC00
FC00
7800
3000
ENDCHAR

STARTCHAR cent
ENCODING 162
SWIDTH 600 0
DWIDTH 23 0
BBX 17 28 5 -1
BITMAP
001000
003800
007800
007800
007800
007000
00FC00
03FF80
0FFF80
1FFF80
3E0F80
7C0780
780700
700200
F00000
F00000
F00000
F80E00
FC1E00
7FFE00
7FFC00
3FF800
0FC000
078000
070000
0F0000
0F0000
060000
ENDCHAR

STARTCHAR sterling
ENCODING 163
SWIDTH 600 0
DWIDTH 23 0
BBX 20 23 2 0
BITMAP
000F80
003FC0
00FFE0
00FFF0
01E1E0
01C0E0
03C000
03C000
03C000
03C000
3FFE00
3FFE00
7FFE00
3FFC00
03C000
03C000
038000
078020
0F00F0
7FFFF0
7FFFE0
FFFFE0
7FFF80
ENDCHAR

STARTCHAR currency
ENCODING 164
SWIDTH 600 0
DWIDTH 23 0
BBX 20 17 3 3
BITMAP
0E0070
0F7CF0
1FFFF0
0FFFE0
07FFC0
0F87C0
0F03C0
1E03C0
1E03C0
1E03C0
1E0780
1F0F00
1FFF00
3FFF80
7FFFC0
F9E780
700380
ENDCHAR

STARTCHAR yen
ENCODING 165
SWIDTH 600 0
DWIDTH 23 0
BBX 22 22 5 0
BITMAP
7F03F8
FF87FC
FF87F8
7F07F0
1E07C0
1F0F80
0F1F00
0F9E00
07BC00
07F800
03F000
3FFE00
3DFE00
03C000
03C000
7FFE00
7FFC00
038000
3FF800
7FF800
7FF800
7FF000
ENDCHAR

STARTCHAR brokenbar
ENCODING 166
SWIDTH 600 0
DWIDTH 23 0
BBX 4 30 9 -5
BITMAP
60
F0
F0
F0
F0
F0
F0
F0
F0
F0
F0
F0
60
00
00
00
00
60
F0
F0
F0
F0
F0
F0
F0
F0
F0
F0
F0
60
ENDCHAR

STARTCHAR section
ENCODING 167
SWIDTH 600 0
DWIDTH 23 0
BBX 22 28 3 -3
BITMAP
001FFC
007FFC
00FFF8
01E038
018038
038038
038010
0FC000
1FE000
1EF800
387C00
383F00
3C1F80
1E07E0
0F03E0
0FC0F0
03E070
01F870
00FFE0
003FE0
001F80
300E00
700E00
700E00
701C00
7FF800
FFF000
FFC000
ENDCHAR

STARTCHAR dieresis
ENCODING 168
SWIDTH 600 0
DWIDTH 23 0
BBX 12 4 10 20
BITMAP
7070
F0F0
F0F0
6060
ENDCHAR

STARTCHAR copyright
ENCODING 169
SWIDTH 600 0
DWIDTH 23 0
BBX 23 23 2 0
BITMAP
00FE00
03FF80
07C3E0
1E00F0
1C0078
380038
707D1C
61FF8C
E1C38E
E38186
C30106
C30006
C30006
C30006
E3800E
61C38E
70FF1C
307E1C
380038
1E00F0
0F83E0
03FF80
00FE00
ENDCHAR

STARTCHAR ordfeminine
ENCODING 170
SWIDTH 600 0
DWIDTH 23 0
BBX 13 10 8 15
BITMAP
0FF0
1FF8
1C38
0038
1FF0
3FF0
7070
E0F0
7FF8
3F78
ENDCHAR

STARTCHAR guillemotleft
ENCODING 171
SWIDTH 600 0
DWIDTH 23 0
BBX 21 15 3 1
BITMAP
001018
007038
00E0F0
03C1E0
0783C0
1F0F80
3E1E00
F87C00
7C7C00
3E1E00
1E0F00
0F0780
0783C0
03C1C0
0180C0
ENDCHAR

STARTCHAR logicalnot
ENCODING 172
SWIDTH 600 0
DWIDTH 23 0
BBX 22 13 2 0
BITMAP
7FFFFC
FFFFFC
FFFFFC
FFFFB8
000078
000078
000078
000078
0000F0
0000F0
0000F0
0000E0
000060
ENDCHAR

STARTCHAR hyphen
ENCODING 173
SWIDTH 600 0
DWIDTH 23 0
BBX 17 3 5 9
BITMAP
7FFF80
7FFF80
FFFF00
ENDCHAR

STARTCHAR registered
ENCODING 174
SWIDTH 600 0
DWIDTH 23 0
BBX 23 23 2 0
BITMAP
01FE00
07FF80
0F83E0
1E00F0
3C0078
380038
77FC1C
63FE0C
E1870E
C18306
C18706
C1FE06
C1FC06
C18E06
E1870E
61830C
77E3DC
37E1D8
380038
1C00F0
0F83E0
07FF80
00FE00
ENDCHAR

STARTCHAR macron
ENCODING 175
SWIDTH 600 0
DWIDTH 23 0
BBX 12 2 10 20
BITMAP
FFF0
FFE0
ENDCHAR

STARTCHAR degree
ENCODING 176
SWIDTH 600 0
DWIDTH 23 0
BBX 12 12 10 16
BITMAP
1F80
3FC0
7FE0
F8F0
F0F0
E070
E070
F0F0
79F0
7FE0
3FC0
0F80
ENDCHAR

STARTCHAR plusminus
ENCODING 177
SWIDTH 600 0
DWIDTH 23 0
BBX 22 27 2 0
BITMAP
000600
000F00
000E00
001E00
001E00
001E00
001E00
001C00
003C00
1FFFF8
3FFFFC
3FFFF8
3FFFF0
007800
007800
007800
007000
00F000
00F000
00F000
00E000
004000
000000
7FFFE0
FFFFE0
FFFFE0
FFFFC0
ENDCHAR

STARTCHAR twosuperior
ENCODING 178
SWIDTH 600 0
DWIDTH 23 0
BBX 13 13 6 12
BITMAP
03E0
0FF0
1E38
1838
0038
0070
01E0
03C0
0F00
1E00
7800
FFE0
FFE0
ENDCHAR

STARTCHAR threesuperior
ENCODING 179
SWIDTH 600 0
DWIDTH 23 0
BBX 13 13 6 12
BITMAP
03E0
0FF8
1C38
0038
0070
07F0
07E0
00F0
0070
0070
60E0
FFC0
7F80
ENDCHAR

STARTCHAR acute
ENCODING 180
SWIDTH 600 0
DWIDTH 23 0
BBX 7 6 13 19
BITMAP
06
0E
3C
70
E0
C0
ENDCHAR

STARTCHAR mu
ENCODING 181
SWIDTH 600 0
DWIDTH 23 0
BBX 21 25 2 -8
BITMAP
1F83F8
3F87F8
3F87F8
3F07F0
0F00F0
0F00F0
0F00F0
0F00F0
0E01E0
1E01E0
1E01E0
1E01E0
1E07C0
3E1FF0
3FFFF0
3FFFF0
3FFBE0
3BE000
780000
780000
780000
780000
700000
F00000
600000
ENDCHAR

STARTCHAR paragraph
ENCODING 182
SWIDTH 600 0
DWIDTH 23 0
BBX 21 28 5 -3
BITMAP
00FFF8
03FFF8
0FFFF0
1FBB80
3E3B80
3C3380
7C7380
787300
787700
787700
7C6700
3F6700
3FE600
0FEE00
01EE00
00CE00
01CC00
01DC00
01DC00
019C00
039C00
039800
03B800
03B800
033800
7FBE00
FFFF00
7F7E00
ENDCHAR

STARTCHAR periodcentered
ENCODING 183
SWIDTH 600 0
DWIDTH 23 0
BBX 6 5 11 9
BITMAP
78
7C
FC
F8
70
ENDCHAR

STARTCHAR cedilla
ENCODING 184
SWIDTH 600 0
DWIDTH 23 0
BBX 7 8 7 -7
BITMAP
0C
1C
18
1E
1E
EE
FC
38
ENDCHAR

STARTCHAR onesuperior
ENCODING 185
SWIDTH 600 0
DWIDTH 23 0
BBX 10 13 7 12
BITMAP
0180
1F80
3B00
1700
0700
0700
0600
0E00
0E00
0E00
0C00
FFC0
FF80
ENDCHAR

STARTCHAR ordmasculine
ENCODING 186
SWIDTH 600 0
DWIDTH 23 0
BBX 13 11 9 14
BITMAP
07C0
1FF0
3C70
7038
6038
E038
E030
E070
71E0
7FC0
1F00
ENDCHAR

STARTCHAR guillemotright
ENCODING 187
SWIDTH 600 0
DWIDTH 23 0
BBX 20 15 3 1
BITMAP
101800
381C00
1C1E00
1E0F00
0F0780
0783C0
03C1E0
01F1F0
03E3E0
0F87C0
1F0F00
3C1E00
707800
E0F000
80C000
ENDCHAR

STARTCHAR onequarter
ENCODING 188
SWIDTH 600 0
DWIDTH 23 0
BBX 23 25 2 0
BITMAP
018000
1F8000
3F0000
170000
070000
070000
060000
0E0008
0E003C
0E007C
0C01F8
7F83E0
FF8F80
003F3E
007C3C
01F07C
03E0EC
0F81D8
0603B8
000638
000FFC
001FBC
000070
0001F8
0001F8
ENDCHAR

STARTCHAR onehalf
ENCODING 189
SWIDTH 600 0
DWIDTH 23 0
BBX 24 25 2 0
BITMAP
018000
1F8000
1F0000
130000
070000
070000
070000
060010
0E0078
0E01F0
0C03E0
FFCF80
FF9E7C
007DFE
01FBCF
03E307
0FC107
1F000E
1E003C
000078
0001E0
0003C0
000F00
001FFC
001FFC
ENDCHAR

STARTCHAR threequarters
ENCODING 190
SWIDTH 600 0
DWIDTH 23 0
BBX 24 25 1 0
BITMAP
07E000
0FF800
1C3800
003800
007000
03F000
07E000
00F00E
00703C
00707C
60E1F0
FFE3E0
7F8F8F
1E1F1E
007C3E
00F87E
03E0F6
0781EC
0701DC
00031C
0007FE
000FDE
000038
0000FC
0000FC
ENDCHAR

STARTCHAR questiondown
ENCODING 191
SWIDTH 600 0
DWIDTH 23 0
BBX 16 24 3 -8
BITMAP
003C
007C
007C
0078
0000
0000
0000
0060
00F0
00F0
01F0
07E0
1FE0
3F80
7E00
7800
F000
F00F
F00E
F81E
FFFE
7FFE
3FF8
0FC0
ENDCHAR

STARTCHAR Agrave
ENCODING 192
SWIDTH 600 0
DWIDTH 23 0
BBX 24 31 0 0
BITMAP
000200
000600
000700
000380
0001C0
0000E0
000040
000000
00FFC0
01FFE0
01FFE0
00EFE0
001FE0
001EE0
003DF0
003CF0
0078F0
00F8F0
00F0F0
01E0F0
01C078
03FFF8
07FFF8
07FFF8
0FFFF8
0F007C
1E003C
7F81FF
FFC3FF
FFC3FF
FF83FE
ENDCHAR

STARTCHAR Aacute
ENCODING 193
SWIDTH 600 0
DWIDTH 23 0
BBX 24 30 0 0
BITMAP
000038
000070
0001E0
000380
000700
000400
000000
00FFC0
01FFE0
01FFE0
00EFE0
001FE0
001EE0
003DF0
003CF0
0078F0
00F8F0
00F0F0
01E0F0
01C078
03FFF8
07FFF8
07FFF8
0FFFF8
0F007C
1E003C
7F81FF
FFC3FF
FFC3FF
FF83FE
ENDCHAR

STARTCHAR Acircumflex
ENCODING 194
SWIDTH 600 0
DWIDTH 23 0
BBX 24 30 0 0
BITMAP
000080
0003E0
000FF0
001E78
00383C
003008
000000
00FFC0
01FFE0
01FFE0
00EFE0
001FE0
001EE0
003DF0
003CF0
0078F0
00F8F0
00F0F0
01E0F0
01C078
03FFF8
07FFF8
07FFF8
0FFFF8
0F007C
1E003C
7F81FF
FFC3FF
FFC3FF
FF83FE
ENDCHAR

STARTCHAR Atilde
ENCODING 195
SWIDTH 600 0
DWIDTH 23 0
BBX 24 28 0 0
BITMAP
000F00
003F8C
0031FC
0000F0
000000
00FFC0
01FFE0
01FFE0
00EFE0
001FE0
001EE0
003DF0
003CF0
0078F0
00F8F0
00F0F0
01E0F0
01C078
03FFF8
07FFF8
07FFF8
0FFFF8
0F007C
1E003C
7F81FF
FFC3FF
FFC3FF
FF83FE
ENDCHAR

STARTCHAR Adieresis
ENCODING 196
SWIDTH 600 0
DWIDTH 23 0
BBX 25 29 -1 0
BITMAP
000E0E00
001E1E00
001E1E00
000C1C00
00000000
00000000
007FE000
00FFE000
00FFF000
00F7F000
000FF000
000F7000
001EF000
003EF800
003C7800
00787800
00787800
00F07800
01E07C00
01FFFC00
03FFFC00
03FFFC00
07FFFC00
0F803C00
0F001E00
7FC0FF80
FFE1FF80
FFC1FF80
7F81FF00
ENDCHAR

STARTCHAR Aring
ENCODING 197
SWIDTH 600 0
DWIDTH 23 0
BBX 25 31 -1 0
BITMAP
0000E000
0001F000
00021800
00061800
00063000
0003E000
0001C000
00000000
007FE000
00FFF000
00FFF000
00FFF000
000FF000
000F7000
001EF800
003EF800
003C7800
00787800
00787800
00F07C00
01E07C00
01FFFC00
03FFFC00
07FFFC00
07FFFC00
0F003E00
0E001E00
7FC0FF80
FFE1FF80
FFC1FF80
7F81FF00
ENDCHAR

STARTCHAR AE
ENCODING 198
SWIDTH 600 0
DWIDTH 23 0
BBX 28 23 0 0
BITMAP
007FFFF0
00FFFFE0
00FFFFE0
00FDFFE0
003BC1E0
003BC1E0
0073C1C0
00739BC0
00E7BD80
00E7BC00
01C7F800
01C7F800
0387F800
03FF7800
07FF7000
07FF2000
0E0E0380
0E1E0780
1C1E0780
7F7FFF00
FFFFFF00
FFFFFF00
FEFFFF00
ENDCHAR

STARTCHAR Ccedilla
ENCODING 199
SWIDTH 600 0
DWIDTH 23 0
BBX 22 29 3 -6
BITMAP
003F80
00FFEC
03FFFC
07FFFC
0FC0FC
1F007C
1E003C
3C0038
780030
780000
780000
700000
F00000
F00000
F00000
F00000
F80040
F800F0
7E03E0
3FFFE0
3FFFC0
0FFF00
03F800
01C000
01E000
01E000
0CE000
0FE000
07C000
ENDCHAR

STARTCHAR Egrave
ENCODING 200
SWIDTH 600 0
DWIDTH 23 0
BBX 24 31 1 0
BITMAP
000200
000600
000700
000380
0001C0
0000E0
000040
000000
07FFFF
0FFFFF
0FFFFE
0FFFFE
01C01E
03C01E
03C11C
03C79C
038780
07FF00
07FF00
07FF00
07FF00
070F00
0F0E18
0F0C38
0F0038
0F0078
0E0078
7FFFF8
FFFFF8
FFFFF0
7FFFF0
ENDCHAR

STARTCHAR Eacute
ENCODING 201
SWIDTH 600 0
DWIDTH 23 0
BBX 24 30 1 0
BITMAP
000038
000070
0001E0
000380
000700
000600
000000
07FFFF
0FFFFF
0FFFFE
0FFFFE
01C01E
03C01E
03C11C
03C79C
038780
07FF00
07FF00
07FF00
07FF00
070F00
0F0E18
0F0C38
0F0038
0F0078
0E0078
7FFFF8
FFFFF8
FFFFF0
7FFFF0
ENDCHAR

STARTCHAR Ecircumflex
ENCODING 202
SWIDTH 600 0
DWIDTH 23 0
BBX 24 30 1 0
BITMAP
0000C0
0003E0
0007F0
001E78
00381C
003008
000000
07FFFF
0FFFFF
0FFFFE
0FFFFE
01C01E
03C01E
03C11C
03C79C
038780
07FF00
07FF00
07FF00
07FF00
070F00
0F0E18
0F0C38
0F0038
0F0078
0E0078
7FFFF8
FFFFF8
FFFFF0
7FFFF0
ENDCHAR

STARTCHAR Edieresis
ENCODING 203
SWIDTH 600 0
DWIDTH 23 0
BBX 24 29 1 0
BITMAP
001C1C
003C3C
003C3C
001838
000000
000000
07FFFF
0FFFFE
0FFFFE
0FFFFE
03C01E
03C01E
03C31C
03871C
078F00
07FF00
07FF00
07FF00
07EE00
0F1E00
0F1E38
0F0C38
0E0078
1E0078
1E0078
7FFFF0
FFFFF0
FFFFF0
FFFFF0
ENDCHAR

STARTCHAR Igrave
ENCODING 204
SWIDTH 600 0
DWIDTH 23 0
BBX 20 31 4 0
BITMAP
002000
007000
007800
003C00
001E00
000E00
000400
000000
07FFF0
0FFFF0
0FFFF0
0FBFE0
007800
007800
007800
007800
007000
00F000
00F000
00F000
00F000
01E000
01E000
01E000
01E000
01C000
03C000
FFFF00
FFFF00
FFFF00
FFFE00
ENDCHAR

STARTCHAR Iacute
ENCODING 205
SWIDTH 600 0
DWIDTH 23 0
BBX 20 30 4 0
BITMAP
000180
000780
000E00
003C00
007000
002000
000000
07FFF0
0FFFF0
0FFFF0
0FBFE0
007800
007800
007800
007800
007000
00F000
00F000
00F000
00F000
01E000
01E000
01E000
01E000
01C000
03C000
FFFF00
FFFF00
FFFF00
FFFE00
ENDCHAR

STARTCHAR Icircumflex
ENCODING 206
SWIDTH 600 0
DWIDTH 23 0
BBX 20 30 4 0
BITMAP
000C00
001E00
007F80
01E3C0
03C1C0
0100C0
000000
07FFF0
0FFFF0
0FFFF0
0FBFE0
007800
007800
007800
007800
007000
00F000
00F000
00F000
00F000
01E000
01E000
01E000
01E000
01C000
03C000
FFFF00
FFFF00
FFFF00
FFFE00
ENDCHAR

STARTCHAR Idieresis
ENCODING 207
SWIDTH 600 0
DWIDTH 23 0
BBX 21 29 4 0
BITMAP
00E0E0
01E1E0
01E1E0
00C1C0
000000
000000
07FFF0
0FFFF8
0FFFF0
0FFFE0
003C00
007800
007800
007800
007800
007000
00F000
00F000
00F000
00F000
00E000
01E000
01E000
01E000
01E000
7FFF00
FFFF80
FFFF00
FFFE00
ENDCHAR

STARTCHAR Gbreve
ENCODING 208
SWIDTH 600 0
DWIDTH 23 0
BBX 22 29 3 0
BITMAP
00380C
00381C
001C38
001FF0
000FC0
000000
001FC4
00FFFC
03FFFC
07FFFC
0FC07C
1F003C
1E0038
3C0030
3C0000
780000
780000
780000
F01FF8
F03FFC
F03FF8
F03FF0
F000E0
F801E0
7C03E0
7FFFE0
3FFFE0
1FFF00
03F800
ENDCHAR

STARTCHAR Ntilde
ENCODING 209
SWIDTH 600 0
DWIDTH 23 0
BBX 26 28 1 0
BITMAP
00078000
001FC700
0018FE00
00007800
00000000
0FE07F80
1FE0FFC0
1FE0FFC0
1FF0FF80
03F01E00
07F81E00
07F81E00
07BC1C00
07BC3C00
073C3C00
0F3E3C00
0F1E3C00
0F1F3800
0F1F7800
0E0F7800
1E0FF800
1E07F800
1E07F000
1C03F000
7FC3F000
FFC3F000
FFC1E000
FF81E000
ENDCHAR

STARTCHAR Ograve
ENCODING 210
SWIDTH 600 0
DWIDTH 23 0
BBX 22 30 3 0
BITMAP
000C00
000E00
000F00
000780
0003C0
0001C0
000000
003F00
00FFC0
03FFF0
07FFF0
0FC1F8
1F0078
1E007C
3C003C
78003C
78003C
70003C
F0003C
F00038
F00078
F00078
F000F0
F801E0
7C03E0
7E0FC0
3FFF80
1FFE00
0FFC00
03E000
ENDCHAR

STARTCHAR Oacute
ENCODING 211
SWIDTH 600 0
DWIDTH 23 0
BBX 22 30 3 0
BITMAP
000030
000070
0001E0
000380
000F00
000E00
000000
003F00
00FFC0
03FFF0
07FFF0
0FC1F8
1F0078
1E007C
3C003C
78003C
78003C
70003C
F0003C
F00038
F00078
F00078
F000F0
F801E0
7C03E0
7E0FC0
3FFF80
1FFE00
0FFC00
03E000
ENDCHAR

STARTCHAR Ocircumflex
ENCODING 212
SWIDTH 600 0
DWIDTH 23 0
BBX 22 29 3 0
BITMAP
000380
0007C0
001EF0
007878
007038
000000
003F00
00FFC0
03FFF0
07FFF0
0FC1F8
1F0078
1E007C
3C003C
78003C
78003C
70003C
F0003C
F00038
F00078
F00078
F000F0
F801E0
7C03E0
7E0FC0
3FFF80
1FFE00
0FFC00
03E000
ENDCHAR

STARTCHAR Otilde
ENCODING 213
SWIDTH 600 0
DWIDTH 23 0
BBX 22 28 3 0
BITMAP
001E00
007F1C
0073F8
0001E0
000000
003F80
00FFE0
03FFF0
07FFF0
0FC1F8
1F0078
3E007C
3C003C
78003C
78003C
70003C
F0003C
F00038
F00078
F00078
F000F0
F801E0
7C03E0
7E0FC0
3FFF80
1FFE00
0FFC00
03E000
ENDCHAR

STARTCHAR Odieresis
ENCODING 214
SWIDTH 600 0
DWIDTH 23 0
BBX 22 29 3 0
BITMAP
003838
007878
007878
003070
000000
000000
003F00
00FFC0
03FFE0
07FFF0
0F81F8
1F00F8
3E007C
3C003C
78003C
78003C
70003C
F0003C
F00078
F00078
F000F8
F000F0
F801E0
7803E0
7E0FC0
3FFF80
1FFE00
0FFC00
03E000
ENDCHAR

STARTCHAR multiply
ENCODING 215
SWIDTH 600 0
DWIDTH 23 0
BBX 16 15 6 3
BITMAP
380F
7C1F
3E3E
3E7C
1FF8
0FF0
07C0
07E0
0FF0
1FF0
3EF8
7C7C
F83C
F03C
E018
ENDCHAR

STARTCHAR Oslash
ENCODING 216
SWIDTH 600 0
DWIDTH 23 0
BBX 27 26 0 -2
BITMAP
000000E0
0007E1E0
001FFBE0
007FFFC0
00FFFF80
01F81F00
03E03F00
07C07F80
0780FF80
0F01F780
0F03E780
0E07C780
1E0F8780
1E1F0700
1E3E0F00
1E7C0F00
1EF81E00
1FF03C00
0FE07C00
0FC1F800
0FFFF000
1FFFC000
3DFF8000
787C0000
F8000000
60000000
ENDCHAR

STARTCHAR Ugrave
ENCODING 217
SWIDTH 600 0
DWIDTH 23 0
BBX 23 31 4 0
BITMAP
001000
007000
003800
001C00
000E00
000700
000200
000000
3FC3FC
7FE7FE
7FE7FE
5FC7FC
3C00F0
3C00F0
3C00E0
3C01E0
3801E0
7801E0
7801E0
7803C0
7803C0
7003C0
F003C0
F00380
F00780
F80F00
FC3F00
7FFE00
3FFC00
1FF000
07C000
ENDCHAR

STARTCHAR Uacute
ENCODING 218
SWIDTH 600 0
DWIDTH 23 0
BBX 23 30 4 0
BITMAP
0001C0
000380
000F00
001C00
003800
002000
000000
3FC3FC
7FE7FE
7FE7FE
5FC7FC
3C00F0
3C00F0
3C00E0
3C01E0
3801E0
7801E0
7801E0
7803C0
7803C0
7003C0
F003C0
F00380
F00780
F80F00
FC3F00
7FFE00
3FFC00
1FF000
07C000
ENDCHAR

STARTCHAR Ucircumflex
ENCODING 219
SWIDTH 600 0
DWIDTH 23 0
BBX 23 30 4 0
BITMAP
000400
001F00
007F80
00F3C0
01C1E0
010040
000000
3FC3FC
7FE7FE
7FE7FE
5FC7FC
3C00F0
3C00F0
3C00E0
3C01E0
3801E0
7801E0
7801E0
7803C0
7803C0
7003C0
F003C0
F00380
F00780
F80F00
FC3F00
7FFE00
3FFC00
1FF000
07C000
ENDCHAR

STARTCHAR Udieresis
ENCODING 220
SWIDTH 600 0
DWIDTH 23 0
BBX 23 29 4 0
BITMAP
00E0E0
01E1E0
01E1E0
00C1C0
000000
000000
3FC7FC
7FE7FE
7FCFFC
5F87F8
3C00F0
3C00E0
3C01E0
3C01E0
3801E0
7801E0
7801C0
7803C0
7803C0
7003C0
F003C0
F00780
F00780
F80F00
FC3F00
7FFE00
3FFC00
1FF000
07C000
ENDCHAR

STARTCHAR Idotaccent
ENCODING 221
SWIDTH 600 0
DWIDTH 23 0
BBX 21 30 3 0
BITMAP
000600
000F00
001F00
001E00
000C00
000000
000000
07FFF8
0FFFF8
0FFFF8
07FFF0
003C00
003C00
003C00
003800
007800
007800
007800
007800
007000
00F000
00F000
00F000
00F000
00E000
01E000
7FFF80
7FFF80
FFFF80
7FFF00
ENDCHAR

STARTCHAR Scedilla
ENCODING 222
SWIDTH 600 0
DWIDTH 23 0
BBX 22 30 2 -7
BITMAP
001F80
007FFC
01FFFC
03FFFC
07E0FC
078078
0F0078
0F0078
0F0030
0FC000
07FE00
07FFC0
03FFE0
007FF0
0003F0
0000F0
3800F0
7800F0
7C01E0
7E07E0
7FFFC0
FFFF80
77FE00
01F000
00C000
00F000
00F000
067000
07F000
03E000
ENDCHAR

STARTCHAR germandbls
ENCODING 223
SWIDTH 600 0
DWIDTH 23 0
BBX 21 25 1 0
BITMAP
000F80
003FC0
00FFE0
00FFF0
01E1F0
01E0F0
03C0F0
03C1F0
03C7E0
03DFE0
03BFC0
07BFE0
078FF0
0781F0
0780F8
0F0078
0F0078
0F0078
0F3078
0F78F0
1E79F0
7F7FE0
FFBFC0
FF7F80
FE1E00
ENDCHAR

STARTCHAR agrave
ENCODING 224
SWIDTH 600 0
DWIDTH 23 0
BBX 20 25 2 0
BITMAP
001800
001C00
001E00
000F00
000780
000380
000000
000000
007F00
07FFC0
0FFFC0
0FFFE0
0601E0
0001E0
01FFE0
0FFFC0
1FFFC0
3FFFC0
7C03C0
F003C0
F01F80
FFFFF0
7FFFF0
3FFBF0
0F87E0
ENDCHAR

STARTCHAR aacute
ENCODING 225
SWIDTH 600 0
DWIDTH 23 0
BBX 20 25 2 0
BITMAP
000020
0000E0
0001C0
000780
000E00
001C00
000000
000000
007F00
07FFC0
0FFFC0
0FFFE0
0601E0
0001E0
01FFE0
0FFFC0
1FFFC0
3FFFC0
7C03C0
F003C0
F01F80
FFFFF0
7FFFF0
3FFBF0
0F87E0
ENDCHAR

STARTCHAR acircumflex
ENCODING 226
SWIDTH 600 0
DWIDTH 23 0
BBX 20 24 2 0
BITMAP
000300
000F80
003FE0
0078F0
00E070
004010
000000
007F00
07FFC0
0FFFC0
0FFFE0
0601E0
0001E0
01FFE0
0FFFC0
1FFFC0
3FFFC0
7C03C0
F003C0
F01F80
FFFFF0
7FFFF0
3FFBF0
0F87E0
ENDCHAR

STARTCHAR atilde
ENCODING 227
SWIDTH 600 0
DWIDTH 23 0
BBX 21 23 2 0
BITMAP
003C00
00FF38
00E7F0
0003E0
000000
000000
01FF00
07FFC0
0FFFE0
0FFFE0
0601E0
0001E0
01FFE0
0FFFC0
1FFFC0
3FFFC0
7C03C0
F003C0
F01F80
FFFFF0
7FFFF0
3FFBF0
0F87E0
ENDCHAR

STARTCHAR adieresis
ENCODING 228
SWIDTH 600 0
DWIDTH 23 0
BBX 20 24 3 0
BITMAP
007070
00F0F0
00F0F0
0060E0
000000
000000
000000
00FF00
07FFC0
0FFFC0
0FFFE0
0603E0
0001E0
01FFE0
0FFFC0
1FFFC0
3FFBC0
7C07C0
F007C0
F01F80
FFFFF0
7FFFF0
3FF7F0
1F8FE0
ENDCHAR

STARTCHAR aring
ENCODING 229
SWIDTH 600 0
DWIDTH 23 0
BBX 20 26 3 0
BITMAP
000700
000F80
0018C0
0030C0
0030C0
003180
001F00
000E00
000000
00FF00
07FFC0
0FFFC0
0FFFE0
0603E0
0001E0
01FFE0
0FFFC0
1FFFC0
3FFFC0
7C07C0
F007C0
F03F80
FFFFF0
7FFFF0
3FF7F0
1F8FE0
ENDCHAR

STARTCHAR ae
ENCODING 230
SWIDTH 600 0
DWIDTH 23 0
BBX 25 17 0 0
BITMAP
00F83C00
07FEFE00
0FFFFF00
0FFFFF00
060FCF80
000F8780
01FF0780
0FFFFF80
3FFFFF80
7FFFFF80
F81FFF00
F01E0000
F87E0E00
FFFFFF00
7FFFFE00
3FFFFC00
0F01E000
ENDCHAR

STARTCHAR ccedilla
ENCODING 231
SWIDTH 600 0
DWIDTH 23 0
BBX 20 24 4 -7
BITMAP
007E20
03FFF0
07FFF0
0FFFF0
1F01E0
3C01E0
7801E0
7800C0
F00000
F00000
F00000
F00000
F800C0
FC03E0
7FFFC0
3FFF80
1FFF00
07F000
018000
03C000
03C000
1CC000
1FC000
0F0000
ENDCHAR

STARTCHAR egrave
ENCODING 232
SWIDTH 600 0
DWIDTH 23 0
BBX 20 25 3 0
BITMAP
001800
001C00
001E00
000F00
000780
000380
000000
000000
007E00
03FF80
0FFFC0
1FFFE0
3E01F0
7800F0
7FFFF0
FFFFF0
FFFFF0
FFFFF0
F00000
F80000
7C03E0
7FFFE0
3FFFC0
1FFF80
07F800
ENDCHAR

STARTCHAR eacute
ENCODING 233
SWIDTH 600 0
DWIDTH 23 0
BBX 20 25 3 0
BITMAP
000060
0000E0
0003C0
000780
000E00
001C00
000000
000000
007E00
03FF80
0FFFC0
1FFFE0
3E01F0
7800F0
7FFFF0
FFFFF0
FFFFF0
FFFFF0
F00000
F80000
7C03E0
7FFFE0
3FFFC0
1FFF80
07F800
ENDCHAR

STARTCHAR ecircumflex
ENCODING 234
SWIDTH 600 0
DWIDTH 23 0
BBX 20 24 3 0
BITMAP
000300
000F80
003FC0
0078F0
00E070
004020
000000
007E00
03FF80
0FFFC0
1FFFE0
3E01F0
7800F0
7FFFF0
FFFFF0
FFFFF0
FFFFF0
F00000
F80000
7C03E0
7FFFE0
3FFFC0
1FFF80
07F800
ENDCHAR

STARTCHAR edieresis
ENCODING 235
SWIDTH 600 0
DWIDTH 23 0
BBX 21 24 3 0
BITMAP
003030
007878
007870
007070
000000
000000
000000
007E00
03FFC0
0FFFE0
1FFFF0
3F01F0
7800F0
7FFFF0
FFFFF0
FFFFF0
FFFFF0
F00000
F80000
7C03E0
7FFFE0
3FFFE0
1FFF80
03F800
ENDCHAR

STARTCHAR igrave
ENCODING 236
SWIDTH 600 0
DWIDTH 23 0
BBX 18 25 3 0
BITMAP
007000
003800
003C00
000E00
000700
000200
000000
000000
07FC00
0FFC00
0FF800
07F800
007800
007800
007800
00F000
00F000
00F000
00F000
00E000
01E000
7FFF80
FFFFC0
FFFFC0
FFFF80
ENDCHAR

STARTCHAR iacute
ENCODING 237
SWIDTH 600 0
DWIDTH 23 0
BBX 18 25 3 0
BITMAP
0001C0
000380
000F00
001E00
003800
003000
000000
000000
07FC00
0FFC00
0FF800
07F800
007800
007800
007800
00F000
00F000
00F000
00F000
00E000
01E000
7FFF80
FFFFC0
FFFFC0
FFFF80
ENDCHAR

STARTCHAR icircumflex
ENCODING 238
SWIDTH 600 0
DWIDTH 23 0
BBX 19 25 3 0
BITMAP
000400
000E00
003F80
00F3C0
01E1E0
0180C0
000000
000000
07FC00
0FFC00
0FF800
07F800
007800
007800
007800
00F000
00F000
00F000
00F000
00E000
01E000
7FFF80
FFFFC0
FFFFC0
FFFF80
ENDCHAR

STARTCHAR idieresis
ENCODING 239
SWIDTH 600 0
DWIDTH 23 0
BBX 19 24 3 0
BITMAP
00E0E0
01E1E0
01E1E0
00C1C0
000000
000000
000000
07FC00
0FF800
0FF800
0FF800
007800
007800
007000
00F000
00F000
00F000
00F000
01E000
01E000
7FFF80
FFFFC0
FFFF80
FFFF80
ENDCHAR

STARTCHAR gbreve
ENCODING 240
SWIDTH 600 0
DWIDTH 23 0
BBX 23 32 3 -8
BITMAP
00180C
00380C
001C38
001FF0
0007E0
000000
000000
00FCFE
03FFFE
0FFFFE
1FFFFC
3F07E0
3C03E0
7801E0
7001E0
F001C0
F003C0
F003C0
F807C0
FC1FC0
7FFF80
3FFF80
1FFB80
0FE780
000700
000F00
000F00
003E00
3FFE00
7FFC00
7FF000
3FC000
ENDCHAR

STARTCHAR ntilde
ENCODING 241
SWIDTH 600 0
DWIDTH 23 0
BBX 21 22 1 0
BITMAP
001E00
007F18
0063F8
0001E0
000000
000780
0FDFE0
0FFFF0
0FFFF8
0FF0F8
07E078
078078
078078
070070
0F00F0
0F00F0
0F00F0
0E00E0
3F83F8
7FC7F8
FFC7F8
7F87F0
ENDCHAR

STARTCHAR ograve
ENCODING 242
SWIDTH 600 0
DWIDTH 23 0
BBX 20 25 3 0
BITMAP
001000
001C00
001E00
000F00
000780
000380
000000
000000
007E00
03FF80
07FFC0
1FFFE0
1F03E0
3C01F0
7800F0
7800F0
F000F0
F000F0
F001E0
F803E0
7C0FC0
7FFF80
3FFF00
1FFC00
07E000
ENDCHAR

STARTCHAR oacute
ENCODING 243
SWIDTH 600 0
DWIDTH 23 0
BBX 20 25 3 0
BITMAP
000060
0000E0
0003C0
000780
000E00
001C00
000000
000000
007E00
03FF80
07FFC0
1FFFE0
1F03E0
3C01F0
7800F0
7800F0
F000F0
F000F0
F001E0
F803E0
7C0FC0
7FFF80
3FFF00
1FFC00
07E000
ENDCHAR

STARTCHAR ocircumflex
ENCODING 244
SWIDTH 600 0
DWIDTH 23 0
BBX 20 24 3 0
BITMAP
000300
000F80
003FC0
0078F0
00E070
004020
000000
007E00
03FF80
07FFC0
1FFFE0
1F03E0
3C01F0
7800F0
7800F0
F000F0
F000F0
F001E0
F803E0
7C0FC0
7FFF80
3FFF00
1FFC00
07E000
ENDCHAR

STARTCHAR otilde
ENCODING 245
SWIDTH 600 0
DWIDTH 23 0
BBX 21 23 3 0
BITMAP
003C00
00FE38
00C7F0
0003C0
000000
000000
00FF00
03FF80
0FFFC0
1FFFE0
3F03F0
3C01F0
7800F0
7800F0
F000F0
F000F0
F001E0
F803E0
7C0FC0
7FFF80
3FFF00
1FFC00
07E000
ENDCHAR

STARTCHAR odieresis
ENCODING 246
SWIDTH 600 0
DWIDTH 23 0
BBX 20 24 3 0
BITMAP
007070
00F0F0
00F0F0
0060E0
000000
000000
000000
007E00
03FF80
07FFC0
1FFFE0
3F03E0
3C01F0
7800F0
7000F0
F000F0
F001F0
F001E0
F803C0
7C0FC0
7FFF80
3FFE00
1FFC00
07E000
ENDCHAR

STARTCHAR divide
ENCODING 247
SWIDTH 600 0
DWIDTH 23 0
BBX 20 22 4 0
BITMAP
001C00
003C00
003C00
001800
000000
000000
000000
000000
000000
7FFFE0
FFFFF0
FFFFE0
FFFFC0
000000
000000
000000
000000
000000
01C000
03C000
03C000
018000
ENDCHAR

STARTCHAR oslash
ENCODING 248
SWIDTH 600 0
DWIDTH 23 0
BBX 25 20 1 -2
BITMAP
00000380
001FCF80
00FFFF80
01FFFE00
07FEFC00
07C1FE00
0F03FE00
1E07DE00
1E1F9E00
3C3F1E00
3C7C1E00
3DF83C00
3FF07C00
1FC1F800
1FFFF000
3FFFC000
7FFF8000
F8FC0000
F0000000
E0000000
ENDCHAR

STARTCHAR ugrave
ENCODING 249
SWIDTH 600 0
DWIDTH 23 0
BBX 19 25 4 0
BITMAP
003800
003C00
001E00
000F00
000700
000300
000000
000000
7E0FE0
FE1FE0
FE1FE0
DC0FC0
3C03C0
3C03C0
3C03C0
380380
780780
780780
780780
781F00
787FC0
7FFFC0
7FFFC0
3FEF80
0F0000
ENDCHAR

STARTCHAR uacute
ENCODING 250
SWIDTH 600 0
DWIDTH 23 0
BBX 19 25 4 0
BITMAP
0000C0
0001C0
000780
000E00
001C00
001000
000000
000000
7E0FE0
FE1FE0
FE1FE0
DC0FC0
3C03C0
3C03C0
3C03C0
380380
780780
780780
780780
781F00
787FC0
7FFFC0
7FFFC0
3FEF80
0F0000
ENDCHAR

STARTCHAR ucircumflex
ENCODING 251
SWIDTH 600 0
DWIDTH 23 0
BBX 19 25 4 0
BITMAP
000200
000F00
003F80
007BE0
01E0E0
00C060
000000
000000
7E0FE0
FE1FE0
FE1FE0
DC0FC0
3C03C0
3C03C0
3C03C0
380380
780780
780780
780780
781F00
787FC0
7FFFC0
7FFFC0
3FEF80
0F0000
ENDCHAR

STARTCHAR udieresis
ENCODING 252
SWIDTH 600 0
DWIDTH 23 0
BBX 20 24 4 0
BITMAP
007070
00F0F0
00F0F0
006060
000000
000000
000000
7E0FE0
FE1FE0
FE1FE0
7E0FE0
1C01C0
3C03C0
3C03C0
3C03C0
380380
780780
780780
780F80
7C7FC0
7FFFE0
7FFFC0
3FF7C0
0F8000
ENDCHAR

STARTCHAR dotlessi
ENCODING 253
SWIDTH 600 0
DWIDTH 23 0
BBX 18 17 3 0
BITMAP
07FC00
0FFC00
0FF800
07F800
007800
007800
007800
00F000
00F000
00F000
00F000
00E000
01E000
7FFF80
FFFFC0
FFFFC0
FFFF80
ENDCHAR

STARTCHAR scedilla
ENCODING 254
SWIDTH 600 0
DWIDTH 23 0
BBX 19 24 3 -7
BITMAP
007E60
03FFE0
07FFE0
0FFFE0
1F01E0
1E01C0
1F8000
1FFC00
0FFF00
07FF80
003FC0
7003C0
7003C0
FC07C0
FFFF80
FFFF00
FFFE00
07F000
018000
01C000
01E000
0EE000
0FC000
078000
ENDCHAR

STARTCHAR ydieresis
ENCODING 255
SWIDTH 600 0
DWIDTH 23 0
BBX 26 32 0 -8
BITMAP
000E0E00
001E1E00
001E1E00
000C1C00
00000000
00000000
00000000
07F03F80
0FF87FC0
0FF87F80
07F05F00
03C03E00
03C03C00
03E07800
01E0F800
01E1F000
01F1E000
00F3C000
00F7C000
00FB8000
007F0000
007F0000
007E0000
003C0000
00780000
00F80000
00F00000
01E00000
7FF80000
FFF80000
FFF80000
FFF00000
ENDCHAR

ENDFONT
