STARTFONT 2.1
FONT -Monotype-Courier-Bold-R-Normal--12-120-75-75-M-58-iso8859-7
SIZE 12 75 75
FONTBOUNDINGBOX 9 13 -1 -3

STARTPROPERTIES 24
FOUNDRY "Monotype"
FAMILY_NAME "Courier"
WEIGHT_NAME "Bold"
SLANT "R"
SETWIDTH_NAME "Normal"
ADD_STYLE_NAME ""
PIXEL_SIZE 12
POINT_SIZE 120
RESOLUTION_X 75
RESOLUTION_Y 75
SPACING "M"
AVERAGE_WIDTH 58
CHARSET_REGISTRY "iso8859"
CHARSET_ENCODING "7"
FACE_NAME "Courier Bold ISO Latin Greek"
_DEC_DEVICE_FONTNAMES "PS=courier-b-latgreek"
COPYRIGHT "Copyright (c) 1994 Monotype Typography Ltd."
CAP_HEIGHT 8
X_HEIGHT 6
WEIGHT 10
QUAD_WIDTH 7
DEFAULT_CHAR 160
FONT_DESCENT 3
FONT_ASCENT 11
ENDPROPERTIES

CHARS 185

STARTCHAR space
ENCODING 32
SWIDTH 600 0
DWIDTH 7 0
BBX 0 0 0 0
BITMAP
ENDCHAR

STARTCHAR exclam
ENCODING 33
SWIDTH 600 0
DWIDTH 7 0
BBX 2 9 3 0
BITMAP
C0
C0
C0
C0
C0
C0
00
C0
C0
ENDCHAR

STARTCHAR quotedbl
ENCODING 34
SWIDTH 600 0
DWIDTH 7 0
BBX 3 4 2 5
BITMAP
A0
A0
A0
A0
ENDCHAR

STARTCHAR numbersign
ENCODING 35
SWIDTH 600 0
DWIDTH 7 0
BBX 6 9 1 -1
BITMAP
28
28
28
FC
50
F8
50
50
50
ENDCHAR

STARTCHAR dollar
ENCODING 36
SWIDTH 600 0
DWIDTH 8 0
BBX 6 10 1 -1
BITMAP
10
78
CC
E0
78
1C
CC
78
10
10
ENDCHAR

STARTCHAR percent
ENCODING 37
SWIDTH 600 0
DWIDTH 7 0
BBX 8 8 0 0
BITMAP
60
D0
D6
78
66
0D
0D
06
ENDCHAR

STARTCHAR ampersand
ENCODING 38
SWIDTH 600 0
DWIDTH 7 0
BBX 6 7 1 0
BITMAP
34
68
60
6C
D0
D0
68
ENDCHAR

STARTCHAR quoteright
ENCODING 39
SWIDTH 600 0
DWIDTH 7 0
BBX 2 4 3 5
BITMAP
C0
C0
80
80
ENDCHAR

STARTCHAR parenleft
ENCODING 40
SWIDTH 600 0
DWIDTH 7 0
BBX 3 11 2 -2
BITMAP
20
60
40
C0
C0
C0
C0
C0
40
60
20
ENDCHAR

STARTCHAR parenright
ENCODING 41
SWIDTH 600 0
DWIDTH 7 0
BBX 3 11 2 -2
BITMAP
80
C0
40
60
60
60
60
60
40
C0
80
ENDCHAR

STARTCHAR asterisk
ENCODING 42
SWIDTH 600 0
DWIDTH 7 0
BBX 5 5 1 4
BITMAP
20
A8
70
50
88
ENDCHAR

STARTCHAR plus
ENCODING 43
SWIDTH 600 0
DWIDTH 7 0
BBX 6 5 1 1
BITMAP
30
30
FC
30
30
ENDCHAR

STARTCHAR comma
ENCODING 44
SWIDTH 600 0
DWIDTH 7 0
BBX 3 3 1 -2
BITMAP
60
60
C0
ENDCHAR

STARTCHAR minus
ENCODING 45
SWIDTH 600 0
DWIDTH 7 0
BBX 6 1 1 3
BITMAP
FC
ENDCHAR

STARTCHAR period
ENCODING 46
SWIDTH 600 0
DWIDTH 7 0
BBX 2 2 2 0
BITMAP
C0
C0
ENDCHAR

STARTCHAR slash
ENCODING 47
SWIDTH 600 0
DWIDTH 7 0
BBX 5 11 1 -2
BITMAP
18
18
18
30
30
60
60
60
C0
C0
C0
ENDCHAR

STARTCHAR zero
ENCODING 48
SWIDTH 600 0
DWIDTH 7 0
BBX 6 8 1 0
BITMAP
78
CC
CC
CC
CC
CC
CC
78
ENDCHAR

STARTCHAR one
ENCODING 49
SWIDTH 600 0
DWIDTH 7 0
BBX 6 8 1 0
BITMAP
70
B0
30
30
30
30
30
FC
ENDCHAR

STARTCHAR two
ENCODING 50
SWIDTH 600 0
DWIDTH 7 0
BBX 5 8 1 0
BITMAP
70
98
18
18
30
60
C0
F8
ENDCHAR

STARTCHAR three
ENCODING 51
SWIDTH 600 0
DWIDTH 7 0
BBX 5 8 1 0
BITMAP
70
98
18
30
10
18
98
70
ENDCHAR

STARTCHAR four
ENCODING 52
SWIDTH 600 0
DWIDTH 7 0
BBX 6 8 1 0
BITMAP
18
38
58
58
98
FC
18
3C
ENDCHAR

STARTCHAR five
ENCODING 53
SWIDTH 600 0
DWIDTH 7 0
BBX 6 8 1 0
BITMAP
7C
60
60
78
0C
0C
CC
78
ENDCHAR

STARTCHAR six
ENCODING 54
SWIDTH 600 0
DWIDTH 7 0
BBX 6 8 1 0
BITMAP
38
60
C0
F8
CC
CC
CC
78
ENDCHAR

STARTCHAR seven
ENCODING 55
SWIDTH 600 0
DWIDTH 7 0
BBX 6 8 1 0
BITMAP
FC
FC
08
18
10
30
20
20
ENDCHAR

STARTCHAR eight
ENCODING 56
SWIDTH 600 0
DWIDTH 7 0
BBX 6 8 1 0
BITMAP
78
CC
CC
78
CC
CC
CC
78
ENDCHAR

STARTCHAR nine
ENCODING 57
SWIDTH 600 0
DWIDTH 7 0
BBX 6 8 1 0
BITMAP
78
CC
CC
CC
7C
0C
18
70
ENDCHAR

STARTCHAR colon
ENCODING 58
SWIDTH 600 0
DWIDTH 7 0
BBX 2 6 3 0
BITMAP
C0
C0
00
00
C0
C0
ENDCHAR

STARTCHAR semicolon
ENCODING 59
SWIDTH 600 0
DWIDTH 7 0
BBX 3 8 2 -2
BITMAP
60
60
00
00
00
60
60
C0
ENDCHAR

STARTCHAR less
ENCODING 60
SWIDTH 600 0
DWIDTH 7 0
BBX 6 7 1 0
BITMAP
0C
38
60
C0
60
38
0C
ENDCHAR

STARTCHAR equal
ENCODING 61
SWIDTH 600 0
DWIDTH 7 0
BBX 6 3 1 2
BITMAP
FC
00
FC
ENDCHAR

STARTCHAR greater
ENCODING 62
SWIDTH 600 0
DWIDTH 7 0
BBX 6 7 1 0
BITMAP
C0
70
18
0C
18
70
C0
ENDCHAR

STARTCHAR question
ENCODING 63
SWIDTH 600 0
DWIDTH 7 0
BBX 5 9 1 0
BITMAP
70
D8
D8
18
30
60
60
00
60
ENDCHAR

STARTCHAR at
ENCODING 64
SWIDTH 600 0
DWIDTH 7 0
BBX 6 10 1 -1
BITMAP
70
88
88
98
A8
A8
9C
80
88
70
ENDCHAR

STARTCHAR A
ENCODING 65
SWIDTH 600 0
DWIDTH 7 0
BBX 7 8 0 0
BITMAP
70
38
38
6C
6C
7C
C6
C6
ENDCHAR

STARTCHAR B
ENCODING 66
SWIDTH 600 0
DWIDTH 7 0
BBX 7 8 0 0
BITMAP
FC
66
66
7C
66
66
66
FC
ENDCHAR

STARTCHAR C
ENCODING 67
SWIDTH 600 0
DWIDTH 7 0
BBX 6 8 1 0
BITMAP
74
CC
C4
C0
C0
C0
CC
78
ENDCHAR

STARTCHAR D
ENCODING 68
SWIDTH 600 0
DWIDTH 7 0
BBX 7 8 0 0
BITMAP
FC
66
66
66
66
66
66
FC
ENDCHAR

STARTCHAR E
ENCODING 69
SWIDTH 600 0
DWIDTH 7 0
BBX 6 8 1 0
BITMAP
FC
64
68
78
68
60
64
FC
ENDCHAR

STARTCHAR F
ENCODING 70
SWIDTH 600 0
DWIDTH 7 0
BBX 6 8 1 0
BITMAP
FC
64
68
78
68
60
60
F0
ENDCHAR

STARTCHAR G
ENCODING 71
SWIDTH 600 0
DWIDTH 7 0
BBX 6 8 1 0
BITMAP
74
CC
C4
C0
DC
CC
CC
78
ENDCHAR

STARTCHAR H
ENCODING 72
SWIDTH 600 0
DWIDTH 7 0
BBX 8 8 0 0
BITMAP
E7
66
66
7E
66
66
66
E7
ENDCHAR

STARTCHAR I
ENCODING 73
SWIDTH 600 0
DWIDTH 7 0
BBX 6 8 1 0
BITMAP
FC
30
30
30
30
30
30
FC
ENDCHAR

STARTCHAR J
ENCODING 74
SWIDTH 600 0
DWIDTH 7 0
BBX 6 8 1 0
BITMAP
3C
18
18
18
98
98
D8
70
ENDCHAR

STARTCHAR K
ENCODING 75
SWIDTH 600 0
DWIDTH 7 0
BBX 7 8 0 0
BITMAP
E6
6C
6C
78
78
6C
6C
E6
ENDCHAR

STARTCHAR L
ENCODING 76
SWIDTH 600 0
DWIDTH 7 0
BBX 6 8 1 0
BITMAP
F0
60
60
60
60
64
64
FC
ENDCHAR

STARTCHAR M
ENCODING 77
SWIDTH 600 0
DWIDTH 7 0
BBX 7 8 0 0
BITMAP
82
C6
EE
D6
D6
C6
C6
EE
ENDCHAR

STARTCHAR N
ENCODING 78
SWIDTH 600 0
DWIDTH 7 0
BBX 7 8 0 0
BITMAP
E6
74
74
7C
5C
5C
4C
CC
ENDCHAR

STARTCHAR O
ENCODING 79
SWIDTH 600 0
DWIDTH 7 0
BBX 6 8 1 0
BITMAP
78
CC
CC
CC
CC
CC
CC
78
ENDCHAR

STARTCHAR P
ENCODING 80
SWIDTH 600 0
DWIDTH 7 0
BBX 7 8 0 0
BITMAP
FC
66
66
66
7C
60
60
F8
ENDCHAR

STARTCHAR Q
ENCODING 81
SWIDTH 600 0
DWIDTH 7 0
BBX 6 10 1 -2
BITMAP
78
CC
CC
CC
CC
CC
CC
78
10
0C
ENDCHAR

STARTCHAR R
ENCODING 82
SWIDTH 600 0
DWIDTH 7 0
BBX 7 8 0 0
BITMAP
FC
66
66
66
7C
6C
6C
E6
ENDCHAR

STARTCHAR S
ENCODING 83
SWIDTH 600 0
DWIDTH 7 0
BBX 6 8 1 0
BITMAP
74
DC
C4
70
38
8C
EC
B8
ENDCHAR

STARTCHAR T
ENCODING 84
SWIDTH 600 0
DWIDTH 7 0
BBX 6 8 1 0
BITMAP
FC
B4
B4
30
30
30
30
78
ENDCHAR

STARTCHAR U
ENCODING 85
SWIDTH 600 0
DWIDTH 7 0
BBX 8 8 0 0
BITMAP
E7
66
66
66
66
66
66
3C
ENDCHAR

STARTCHAR V
ENCODING 86
SWIDTH 600 0
DWIDTH 7 0
BBX 7 8 1 0
BITMAP
E6
E4
6C
68
78
38
30
30
ENDCHAR

STARTCHAR W
ENCODING 87
SWIDTH 600 0
DWIDTH 7 0
BBX 7 8 0 0
BITMAP
C2
C2
DA
DA
7E
66
64
64
ENDCHAR

STARTCHAR X
ENCODING 88
SWIDTH 600 0
DWIDTH 7 0
BBX 7 8 0 0
BITMAP
EE
64
38
30
18
38
4C
EE
ENDCHAR

STARTCHAR Y
ENCODING 89
SWIDTH 600 0
DWIDTH 7 0
BBX 7 8 0 0
BITMAP
E6
66
24
3C
18
18
18
7E
ENDCHAR

STARTCHAR Z
ENCODING 90
SWIDTH 600 0
DWIDTH 7 0
BBX 6 8 1 0
BITMAP
FC
8C
0C
18
30
60
C4
FC
ENDCHAR

STARTCHAR bracketleft
ENCODING 91
SWIDTH 600 0
DWIDTH 7 0
BBX 4 11 2 -2
BITMAP
F0
C0
C0
C0
C0
C0
C0
C0
C0
C0
F0
ENDCHAR

STARTCHAR backslash
ENCODING 92
SWIDTH 600 0
DWIDTH 7 0
BBX 5 11 1 -2
BITMAP
C0
C0
C0
60
60
30
30
30
18
18
18
ENDCHAR

STARTCHAR bracketright
ENCODING 93
SWIDTH 600 0
DWIDTH 7 0
BBX 4 11 1 -2
BITMAP
F0
30
30
30
30
30
30
30
30
30
F0
ENDCHAR

STARTCHAR asciicircum
ENCODING 94
SWIDTH 600 0
DWIDTH 7 0
BBX 6 3 1 6
BITMAP
30
78
CC
ENDCHAR

STARTCHAR underscore
ENCODING 95
SWIDTH 600 0
DWIDTH 7 0
BBX 7 1 0 -2
BITMAP
FE
ENDCHAR

STARTCHAR quoteleft
ENCODING 96
SWIDTH 600 0
DWIDTH 7 0
BBX 2 4 3 5
BITMAP
C0
C0
40
40
ENDCHAR

STARTCHAR a
ENCODING 97
SWIDTH 600 0
DWIDTH 7 0
BBX 7 6 1 0
BITMAP
78
0C
7C
CC
CC
7E
ENDCHAR

STARTCHAR b
ENCODING 98
SWIDTH 600 0
DWIDTH 7 0
BBX 7 9 0 0
BITMAP
E0
60
60
6C
76
66
66
76
EC
ENDCHAR

STARTCHAR c
ENCODING 99
SWIDTH 600 0
DWIDTH 7 0
BBX 6 6 1 0
BITMAP
78
CC
C0
C0
CC
78
ENDCHAR

STARTCHAR d
ENCODING 100
SWIDTH 600 0
DWIDTH 7 0
BBX 6 9 1 0
BITMAP
1C
0C
0C
6C
DC
CC
CC
DC
6C
ENDCHAR

STARTCHAR e
ENCODING 101
SWIDTH 600 0
DWIDTH 7 0
BBX 6 6 1 0
BITMAP
78
CC
FC
C0
CC
78
ENDCHAR

STARTCHAR f
ENCODING 102
SWIDTH 600 0
DWIDTH 7 0
BBX 5 9 1 0
BITMAP
38
60
60
F8
60
60
60
60
F8
ENDCHAR

STARTCHAR g
ENCODING 103
SWIDTH 600 0
DWIDTH 7 0
BBX 7 8 1 -2
BITMAP
6E
DC
CC
CC
DC
6C
0C
78
ENDCHAR

STARTCHAR h
ENCODING 104
SWIDTH 600 0
DWIDTH 7 0
BBX 7 9 0 0
BITMAP
E0
60
60
6C
76
66
66
66
E6
ENDCHAR

STARTCHAR i
ENCODING 105
SWIDTH 600 0
DWIDTH 7 0
BBX 6 9 1 0
BITMAP
30
30
00
F0
30
30
30
30
FC
ENDCHAR

STARTCHAR j
ENCODING 106
SWIDTH 600 0
DWIDTH 7 0
BBX 5 11 1 -2
BITMAP
18
18
00
F8
18
18
18
18
18
18
F0
ENDCHAR

STARTCHAR k
ENCODING 107
SWIDTH 600 0
DWIDTH 7 0
BBX 7 9 0 0
BITMAP
E0
60
60
6E
78
70
78
6C
E6
ENDCHAR

STARTCHAR l
ENCODING 108
SWIDTH 600 0
DWIDTH 7 0
BBX 6 9 1 0
BITMAP
F0
30
30
30
30
30
30
30
FC
ENDCHAR

STARTCHAR m
ENCODING 109
SWIDTH 600 0
DWIDTH 7 0
BBX 7 6 0 0
BITMAP
F4
6A
6A
6A
6A
EA
ENDCHAR

STARTCHAR n
ENCODING 110
SWIDTH 600 0
DWIDTH 7 0
BBX 7 6 0 0
BITMAP
DC
66
66
66
66
E6
ENDCHAR

STARTCHAR o
ENCODING 111
SWIDTH 600 0
DWIDTH 7 0
BBX 6 6 1 0
BITMAP
78
CC
CC
CC
CC
78
ENDCHAR

STARTCHAR p
ENCODING 112
SWIDTH 600 0
DWIDTH 7 0
BBX 7 8 0 -2
BITMAP
EC
76
66
66
76
6C
60
F0
ENDCHAR

STARTCHAR q
ENCODING 113
SWIDTH 600 0
DWIDTH 7 0
BBX 7 8 1 -2
BITMAP
6E
DC
CC
CC
DC
6C
0C
1E
ENDCHAR

STARTCHAR r
ENCODING 114
SWIDTH 600 0
DWIDTH 7 0
BBX 6 6 1 0
BITMAP
EC
70
60
60
60
F8
ENDCHAR

STARTCHAR s
ENCODING 115
SWIDTH 600 0
DWIDTH 7 0
BBX 6 6 1 0
BITMAP
7C
C4
F8
7C
9C
F8
ENDCHAR

STARTCHAR t
ENCODING 116
SWIDTH 600 0
DWIDTH 7 0
BBX 6 8 1 0
BITMAP
60
60
F8
60
60
60
64
38
ENDCHAR

STARTCHAR u
ENCODING 117
SWIDTH 600 0
DWIDTH 7 0
BBX 7 6 0 0
BITMAP
EE
66
66
66
66
3A
ENDCHAR

STARTCHAR v
ENCODING 118
SWIDTH 600 0
DWIDTH 7 0
BBX 7 6 1 0
BITMAP
CE
C4
68
78
30
30
ENDCHAR

STARTCHAR w
ENCODING 119
SWIDTH 600 0
DWIDTH 7 0
BBX 8 6 0 0
BITMAP
E3
69
6A
3E
34
34
ENDCHAR

STARTCHAR x
ENCODING 120
SWIDTH 600 0
DWIDTH 7 0
BBX 6 6 1 0
BITMAP
CC
78
30
30
78
CC
ENDCHAR

STARTCHAR y
ENCODING 121
SWIDTH 600 0
DWIDTH 7 0
BBX 7 8 0 -2
BITMAP
EE
66
6C
38
18
30
30
78
ENDCHAR

STARTCHAR z
ENCODING 122
SWIDTH 600 0
DWIDTH 7 0
BBX 6 6 1 0
BITMAP
FC
8C
18
30
64
FC
ENDCHAR

STARTCHAR braceleft
ENCODING 123
SWIDTH 600 0
DWIDTH 7 0
BBX 4 11 2 -2
BITMAP
30
60
60
60
60
C0
60
60
60
60
30
ENDCHAR

STARTCHAR bar
ENCODING 124
SWIDTH 600 0
DWIDTH 7 0
BBX 2 11 3 -2
BITMAP
C0
C0
C0
C0
C0
C0
C0
C0
C0
C0
C0
ENDCHAR

STARTCHAR braceright
ENCODING 125
SWIDTH 600 0
DWIDTH 7 0
BBX 4 11 1 -2
BITMAP
C0
60
60
60
60
30
60
60
60
60
C0
ENDCHAR

STARTCHAR asciitilde
ENCODING 126
SWIDTH 600 0
DWIDTH 7 0
BBX 6 2 1 3
BITMAP
74
D8
ENDCHAR

STARTCHAR space
ENCODING 160
SWIDTH 600 0
DWIDTH 8 0
BBX 0 0 0 0
BITMAP
ENDCHAR

STARTCHAR quoteleft
ENCODING 161
SWIDTH 600 0
DWIDTH 7 0
BBX 2 4 3 5
BITMAP
C0
C0
40
40
ENDCHAR

STARTCHAR quoteright
ENCODING 162
SWIDTH 600 0
DWIDTH 7 0
BBX 2 4 3 5
BITMAP
C0
C0
80
80
ENDCHAR

STARTCHAR sterling
ENCODING 163
SWIDTH 600 0
DWIDTH 7 0
BBX 6 8 1 0
BITMAP
78
C0
60
F8
60
60
C4
FC
ENDCHAR

STARTCHAR brokenbar
ENCODING 166
SWIDTH 600 0
DWIDTH 7 0
BBX 1 11 3 -3
BITMAP
80
80
80
80
80
00
80
80
80
80
80
ENDCHAR

STARTCHAR section
ENCODING 167
SWIDTH 600 0
DWIDTH 7 0
BBX 6 9 1 -1
BITMAP
3C
64
60
D8
CC
6C
18
98
F0
ENDCHAR

STARTCHAR dieresis
ENCODING 168
SWIDTH 600 0
DWIDTH 7 0
BBX 4 1 2 7
BITMAP
90
ENDCHAR

STARTCHAR copyright
ENCODING 169
SWIDTH 600 0
DWIDTH 7 0
BBX 8 8 0 0
BITMAP
3C
42
9D
B5
B1
9D
42
3C
ENDCHAR

STARTCHAR guillemotleft
ENCODING 171
SWIDTH 600 0
DWIDTH 7 0
BBX 6 6 1 0
BITMAP
24
48
D8
D8
48
24
ENDCHAR

STARTCHAR logicalnot
ENCODING 172
SWIDTH 600 0
DWIDTH 7 0
BBX 7 4 0 0
BITMAP
FE
06
06
06
ENDCHAR

STARTCHAR hyphen
ENCODING 173
SWIDTH 600 0
DWIDTH 7 0
BBX 6 1 1 3
BITMAP
FC
ENDCHAR

STARTCHAR endash
ENCODING 175
SWIDTH 600 0
DWIDTH 7 0
BBX 5 1 1 3
BITMAP
F8
ENDCHAR

STARTCHAR degree
ENCODING 176
SWIDTH 600 0
DWIDTH 7 0
BBX 4 4 2 5
BITMAP
60
90
90
60
ENDCHAR

STARTCHAR plusminus
ENCODING 177
SWIDTH 600 0
DWIDTH 7 0
BBX 6 9 1 0
BITMAP
30
30
30
FC
30
30
30
00
FC
ENDCHAR

STARTCHAR twosuperior
ENCODING 178
SWIDTH 600 0
DWIDTH 7 0
BBX 3 4 2 4
BITMAP
C0
60
40
E0
ENDCHAR

STARTCHAR threesuperior
ENCODING 179
SWIDTH 600 0
DWIDTH 7 0
BBX 3 4 2 4
BITMAP
C0
60
20
C0
ENDCHAR

STARTCHAR acute
ENCODING 180
SWIDTH 600 0
DWIDTH 7 0
BBX 2 2 3 7
BITMAP
40
80
ENDCHAR

STARTCHAR dieresisacute
ENCODING 181
SWIDTH 600 0
DWIDTH 7 0
BBX 4 2 2 7
BITMAP
20
D0
ENDCHAR

STARTCHAR afii9936
ENCODING 182
SWIDTH 600 0
DWIDTH 7 0
BBX 8 8 -1 0
BITMAP
B8
9C
9C
36
36
3E
63
63
ENDCHAR

STARTCHAR periodcentered
ENCODING 183
SWIDTH 600 0
DWIDTH 7 0
BBX 2 2 3 3
BITMAP
C0
C0
ENDCHAR

STARTCHAR afii9937
ENCODING 184
SWIDTH 600 0
DWIDTH 7 0
BBX 7 8 0 0
BITMAP
BE
B2
B4
3C
34
30
32
7E
ENDCHAR

STARTCHAR afii9938
ENCODING 185
SWIDTH 600 0
DWIDTH 7 0
BBX 9 8 -1 0
BITMAP
B380
B300
B300
3F00
3300
3300
3300
7380
ENDCHAR

STARTCHAR afii9939
ENCODING 186
SWIDTH 600 0
DWIDTH 7 0
BBX 8 8 -1 0
BITMAP
BF
8C
8C
0C
0C
0C
0C
3F
ENDCHAR

STARTCHAR guillemotright
ENCODING 187
SWIDTH 600 0
DWIDTH 7 0
BBX 6 6 1 0
BITMAP
90
48
6C
6C
48
90
ENDCHAR

STARTCHAR afii9940
ENCODING 188
SWIDTH 600 0
DWIDTH 7 0
BBX 8 8 -1 0
BITMAP
9E
B3
B3
33
33
33
33
1E
ENDCHAR

STARTCHAR onehalf
ENCODING 189
SWIDTH 600 0
DWIDTH 7 0
BBX 8 8 0 0
BITMAP
E0
60
62
FC
3E
43
06
0F
ENDCHAR

STARTCHAR afii9941
ENCODING 190
SWIDTH 600 0
DWIDTH 7 0
BBX 8 8 -1 0
BITMAP
B3
B3
92
1E
0C
0C
0C
3F
ENDCHAR

STARTCHAR afii9942
ENCODING 191
SWIDTH 600 0
DWIDTH 7 0
BBX 8 8 -1 0
BITMAP
9E
B3
B3
33
33
33
12
33
ENDCHAR

STARTCHAR afii9977
ENCODING 192
SWIDTH 600 0
DWIDTH 7 0
BBX 4 9 2 0
BITMAP
20
D0
00
C0
C0
C0
C0
C0
70
ENDCHAR

STARTCHAR afii9793
ENCODING 193
SWIDTH 600 0
DWIDTH 7 0
BBX 7 8 0 0
BITMAP
70
38
38
6C
6C
7C
C6
C6
ENDCHAR

STARTCHAR afii9794
ENCODING 194
SWIDTH 600 0
DWIDTH 7 0
BBX 7 8 0 0
BITMAP
FC
66
66
7C
66
66
66
FC
ENDCHAR

STARTCHAR afii9796
ENCODING 195
SWIDTH 600 0
DWIDTH 7 0
BBX 7 8 0 0
BITMAP
FE
66
66
60
60
60
60
F0
ENDCHAR

STARTCHAR afii9797
ENCODING 196
SWIDTH 600 0
DWIDTH 7 0
BBX 7 8 0 0
BITMAP
10
38
38
6C
6C
C6
C6
FE
ENDCHAR

STARTCHAR afii9798
ENCODING 197
SWIDTH 600 0
DWIDTH 7 0
BBX 6 8 1 0
BITMAP
FC
64
68
78
68
60
64
FC
ENDCHAR

STARTCHAR afii9801
ENCODING 198
SWIDTH 600 0
DWIDTH 7 0
BBX 6 8 1 0
BITMAP
FC
8C
0C
18
30
60
C4
FC
ENDCHAR

STARTCHAR afii9802
ENCODING 199
SWIDTH 600 0
DWIDTH 7 0
BBX 8 8 0 0
BITMAP
E7
66
66
7E
66
66
66
E7
ENDCHAR

STARTCHAR afii9803
ENCODING 200
SWIDTH 600 0
DWIDTH 7 0
BBX 6 8 1 0
BITMAP
78
CC
CC
FC
CC
CC
CC
78
ENDCHAR

STARTCHAR afii9804
ENCODING 201
SWIDTH 600 0
DWIDTH 7 0
BBX 6 8 1 0
BITMAP
FC
30
30
30
30
30
30
FC
ENDCHAR

STARTCHAR afii9805
ENCODING 202
SWIDTH 600 0
DWIDTH 7 0
BBX 7 8 0 0
BITMAP
E6
6C
6C
78
78
6C
6C
E6
ENDCHAR

STARTCHAR afii9806
ENCODING 203
SWIDTH 600 0
DWIDTH 7 0
BBX 7 8 0 0
BITMAP
70
38
38
6C
6C
C6
C6
C6
ENDCHAR

STARTCHAR afii9807
ENCODING 204
SWIDTH 600 0
DWIDTH 7 0
BBX 7 8 0 0
BITMAP
82
C6
EE
D6
D6
C6
C6
EE
ENDCHAR

STARTCHAR afii9808
ENCODING 205
SWIDTH 600 0
DWIDTH 7 0
BBX 7 8 0 0
BITMAP
E6
74
74
7C
5C
5C
4C
CC
ENDCHAR

STARTCHAR afii9809
ENCODING 206
SWIDTH 600 0
DWIDTH 7 0
BBX 6 8 1 0
BITMAP
FC
CC
00
48
78
00
CC
FC
ENDCHAR

STARTCHAR afii9810
ENCODING 207
SWIDTH 600 0
DWIDTH 7 0
BBX 6 8 1 0
BITMAP
78
CC
CC
CC
CC
CC
CC
78
ENDCHAR

STARTCHAR afii9811
ENCODING 208
SWIDTH 600 0
DWIDTH 7 0
BBX 8 8 0 0
BITMAP
FF
66
66
66
66
66
66
E7
ENDCHAR

STARTCHAR afii9813
ENCODING 209
SWIDTH 600 0
DWIDTH 7 0
BBX 7 8 0 0
BITMAP
FC
66
66
66
7C
60
60
F8
ENDCHAR

STARTCHAR afii9814
ENCODING 211
SWIDTH 600 0
DWIDTH 7 0
BBX 6 8 1 0
BITMAP
FC
C4
64
30
30
64
C4
FC
ENDCHAR

STARTCHAR afii9816
ENCODING 212
SWIDTH 600 0
DWIDTH 7 0
BBX 6 8 1 0
BITMAP
FC
B4
B4
30
30
30
30
78
ENDCHAR

STARTCHAR afii9817
ENCODING 213
SWIDTH 600 0
DWIDTH 7 0
BBX 7 8 0 0
BITMAP
E6
66
24
3C
18
18
18
7E
ENDCHAR

STARTCHAR afii9818
ENCODING 214
SWIDTH 600 0
DWIDTH 7 0
BBX 7 8 0 0
BITMAP
10
7C
D6
D6
D6
7C
10
38
ENDCHAR

STARTCHAR afii9819
ENCODING 215
SWIDTH 600 0
DWIDTH 7 0
BBX 7 8 0 0
BITMAP
EE
64
38
30
18
38
4C
EE
ENDCHAR

STARTCHAR afii9820
ENCODING 216
SWIDTH 600 0
DWIDTH 7 0
BBX 7 8 0 0
BITMAP
D6
D6
D6
D6
7C
10
10
38
ENDCHAR

STARTCHAR afii9821
ENCODING 217
SWIDTH 600 0
DWIDTH 7 0
BBX 8 8 -1 0
BITMAP
9E
B3
B3
33
33
33
12
33
ENDCHAR

STARTCHAR afii9943
ENCODING 218
SWIDTH 600 0
DWIDTH 7 0
BBX 6 10 1 0
BITMAP
48
00
FC
30
30
30
30
30
30
FC
ENDCHAR

STARTCHAR afii9944
ENCODING 219
SWIDTH 600 0
DWIDTH 7 0
BBX 7 10 0 0
BITMAP
24
00
E6
66
24
3C
18
18
18
7E
ENDCHAR

STARTCHAR afii9968
ENCODING 220
SWIDTH 600 0
DWIDTH 7 0
BBX 7 9 1 0
BITMAP
10
20
00
72
DE
CC
CC
DC
76
ENDCHAR

STARTCHAR afii9969
ENCODING 221
SWIDTH 600 0
DWIDTH 7 0
BBX 6 9 1 0
BITMAP
08
10
00
78
CC
60
C0
CC
78
ENDCHAR

STARTCHAR afii9970
ENCODING 222
SWIDTH 600 0
DWIDTH 7 0
BBX 7 11 0 -2
BITMAP
08
10
00
DC
66
66
66
66
E6
06
06
ENDCHAR

STARTCHAR afii9971
ENCODING 223
SWIDTH 600 0
DWIDTH 7 0
BBX 4 9 2 0
BITMAP
20
40
00
C0
C0
C0
C0
C0
70
ENDCHAR

STARTCHAR afii9978
ENCODING 224
SWIDTH 600 0
DWIDTH 7 0
BBX 8 9 0 0
BITMAP
08
34
00
E7
66
66
66
66
3C
ENDCHAR

STARTCHAR afii9825
ENCODING 225
SWIDTH 600 0
DWIDTH 7 0
BBX 7 6 1 0
BITMAP
72
DE
CC
CC
DC
76
ENDCHAR

STARTCHAR afii9826
ENCODING 226
SWIDTH 600 0
DWIDTH 7 0
BBX 6 11 1 -2
BITMAP
38
6C
CC
CC
D8
CC
CC
EC
D8
C0
C0
ENDCHAR

STARTCHAR afii9828
ENCODING 227
SWIDTH 600 0
DWIDTH 7 0
BBX 8 9 0 -3
BITMAP
E7
66
24
3C
18
18
18
18
18
ENDCHAR

STARTCHAR afii9829
ENCODING 228
SWIDTH 600 0
DWIDTH 7 0
BBX 6 9 1 0
BITMAP
FC
60
30
78
CC
CC
CC
CC
78
ENDCHAR

STARTCHAR afii9830
ENCODING 229
SWIDTH 600 0
DWIDTH 7 0
BBX 6 6 1 0
BITMAP
78
CC
60
C0
CC
78
ENDCHAR

STARTCHAR afii9833
ENCODING 230
SWIDTH 600 0
DWIDTH 7 0
BBX 5 12 1 -3
BITMAP
78
18
30
60
C0
C0
C0
C0
70
18
18
30
ENDCHAR

STARTCHAR afii9834
ENCODING 231
SWIDTH 600 0
DWIDTH 7 0
BBX 7 8 0 -2
BITMAP
DC
66
66
66
66
E6
06
06
ENDCHAR

STARTCHAR afii9835
ENCODING 232
SWIDTH 600 0
DWIDTH 7 0
BBX 6 9 1 0
BITMAP
78
CC
CC
CC
FC
CC
CC
CC
78
ENDCHAR

STARTCHAR afii9836
ENCODING 233
SWIDTH 600 0
DWIDTH 7 0
BBX 4 6 2 0
BITMAP
C0
C0
C0
C0
C0
70
ENDCHAR

STARTCHAR afii9837
ENCODING 234
SWIDTH 600 0
DWIDTH 7 0
BBX 7 6 0 0
BITMAP
EE
6C
78
78
6C
E6
ENDCHAR

STARTCHAR afii9838
ENCODING 235
SWIDTH 600 0
DWIDTH 7 0
BBX 7 9 0 0
BITMAP
60
30
30
18
38
38
6C
6C
EE
ENDCHAR

STARTCHAR afii9839
ENCODING 236
SWIDTH 600 0
DWIDTH 7 0
BBX 8 8 0 -2
BITMAP
E7
66
66
66
66
7B
60
60
ENDCHAR

STARTCHAR afii9840
ENCODING 237
SWIDTH 600 0
DWIDTH 7 0
BBX 7 6 0 0
BITMAP
EC
66
76
36
3C
18
ENDCHAR

STARTCHAR afii9841
ENCODING 238
SWIDTH 600 0
DWIDTH 7 0
BBX 5 12 1 -3
BITMAP
F8
30
60
30
60
C0
C0
C0
60
30
30
60
ENDCHAR

STARTCHAR afii9842
ENCODING 239
SWIDTH 600 0
DWIDTH 7 0
BBX 6 6 1 0
BITMAP
78
CC
CC
CC
CC
78
ENDCHAR

STARTCHAR afii9843
ENCODING 240
SWIDTH 600 0
DWIDTH 7 0
BBX 8 6 0 0
BITMAP
FF
66
66
66
66
E7
ENDCHAR

STARTCHAR afii9845
ENCODING 241
SWIDTH 600 0
DWIDTH 7 0
BBX 6 8 1 -2
BITMAP
78
CC
CC
CC
EC
D8
C0
C0
ENDCHAR

STARTCHAR afii9847
ENCODING 242
SWIDTH 600 0
DWIDTH 7 0
BBX 6 9 1 -3
BITMAP
3C
6C
C0
C0
60
38
0C
0C
18
ENDCHAR

STARTCHAR afii9846
ENCODING 243
SWIDTH 600 0
DWIDTH 7 0
BBX 7 6 1 0
BITMAP
7E
D8
CC
CC
CC
78
ENDCHAR

STARTCHAR afii9848
ENCODING 244
SWIDTH 600 0
DWIDTH 7 0
BBX 6 6 0 0
BITMAP
FC
30
30
30
30
1C
ENDCHAR

STARTCHAR afii9849
ENCODING 245
SWIDTH 600 0
DWIDTH 7 0
BBX 8 6 0 0
BITMAP
E7
66
66
66
66
3C
ENDCHAR

STARTCHAR afii9850
ENCODING 246
SWIDTH 600 0
DWIDTH 7 0
BBX 7 8 0 -2
BITMAP
4C
DE
D6
D6
D6
7C
10
10
ENDCHAR

STARTCHAR afii9851
ENCODING 247
SWIDTH 600 0
DWIDTH 7 0
BBX 7 8 0 -2
BITMAP
C4
6C
6C
38
38
6C
6C
46
ENDCHAR

STARTCHAR afii9852
ENCODING 248
SWIDTH 600 0
DWIDTH 7 0
BBX 7 10 0 -2
BITMAP
10
10
D6
D6
D6
D6
D6
7C
10
10
ENDCHAR

STARTCHAR afii9853
ENCODING 249
SWIDTH 600 0
DWIDTH 7 0
BBX 7 6 0 0
BITMAP
6C
C6
C6
D6
D6
6C
ENDCHAR

STARTCHAR afii9975
ENCODING 250
SWIDTH 600 0
DWIDTH 7 0
BBX 4 8 2 0
BITMAP
90
00
C0
C0
C0
C0
C0
70
ENDCHAR

STARTCHAR afii9976
ENCODING 251
SWIDTH 600 0
DWIDTH 7 0
BBX 8 8 0 0
BITMAP
24
00
E7
66
66
66
66
3C
ENDCHAR

STARTCHAR afii9972
ENCODING 252
SWIDTH 600 0
DWIDTH 7 0
BBX 6 9 1 0
BITMAP
10
20
00
78
CC
CC
CC
CC
78
ENDCHAR

STARTCHAR afii9973
ENCODING 253
SWIDTH 600 0
DWIDTH 7 0
BBX 8 9 0 0
BITMAP
08
10
00
E7
66
66
66
66
3C
ENDCHAR

STARTCHAR afii9974
ENCODING 254
SWIDTH 600 0
DWIDTH 7 0
BBX 7 9 0 0
BITMAP
08
10
00
6C
C6
C6
D6
D6
6C
ENDCHAR

ENDFONT
