STARTFONT 2.1
FONT -Monotype-Courier-Regular-I-Normal--8-80-75-75-M-42-iso8859-2
SIZE 8 75 75
FONTBOUNDINGBOX 8 11 -1 -3

STARTPROPERTIES 24
FOUNDRY "Monotype"
FAMILY_NAME "Courier"
WEIGHT_NAME "Regular"
SLANT "I"
SETWIDTH_NAME "Normal"
ADD_STYLE_NAME ""
PIXEL_SIZE 8
POINT_SIZE 80
RESOLUTION_X 75
RESOLUTION_Y 75
SPACING "M"
AVERAGE_WIDTH 42
CHARSET_REGISTRY "iso8859"
CHARSET_ENCODING "2"
FACE_NAME "Courier Italic ISO Latin2"
_DEC_DEVICE_FONTNAMES "PS=courier-it-lat2"
COPYRIGHT "Copyright (c) 1994 Monotype Typography Ltd."
CAP_HEIGHT 6
X_HEIGHT 4
WEIGHT 10
QUAD_WIDTH 6
DEFAULT_CHAR 160
FONT_DESCENT 3
FONT_ASCENT 8
ENDPROPERTIES

CHARS 191

STARTCHAR space
ENCODING 32
SWIDTH 600 0
DWIDTH 5 0
BBX 0 0 0 0
BITMAP
ENDCHAR

STARTCHAR exclam
ENCODING 33
SWIDTH 600 0
DWIDTH 5 0
BBX 2 6 2 0
BITMAP
40
40
80
80
00
80
ENDCHAR

STARTCHAR quotedbl
ENCODING 34
SWIDTH 600 0
DWIDTH 5 0
BBX 5 3 0 3
BITMAP
48
D8
90
ENDCHAR

STARTCHAR numbersign
ENCODING 35
SWIDTH 600 0
DWIDTH 5 0
BBX 5 6 0 -1
BITMAP
50
78
50
F0
A0
A0
ENDCHAR

STARTCHAR dollar
ENCODING 36
SWIDTH 600 0
DWIDTH 5 0
BBX 4 7 1 -1
BITMAP
20
30
40
60
20
C0
40
ENDCHAR

STARTCHAR percent
ENCODING 37
SWIDTH 600 0
DWIDTH 5 0
BBX 4 5 0 0
BITMAP
C0
90
60
B0
10
ENDCHAR

STARTCHAR ampersand
ENCODING 38
SWIDTH 600 0
DWIDTH 5 0
BBX 4 5 1 0
BITMAP
30
40
50
A0
70
ENDCHAR

STARTCHAR quoteright
ENCODING 39
SWIDTH 600 0
DWIDTH 5 0
BBX 2 2 2 4
BITMAP
40
80
ENDCHAR

STARTCHAR parenleft
ENCODING 40
SWIDTH 600 0
DWIDTH 5 0
BBX 3 7 1 -1
BITMAP
20
40
40
80
80
80
40
ENDCHAR

STARTCHAR parenright
ENCODING 41
SWIDTH 600 0
DWIDTH 5 0
BBX 3 7 1 -1
BITMAP
40
20
20
20
40
40
80
ENDCHAR

STARTCHAR asterisk
ENCODING 42
SWIDTH 600 0
DWIDTH 5 0
BBX 3 4 1 1
BITMAP
40
E0
40
A0
ENDCHAR

STARTCHAR plus
ENCODING 43
SWIDTH 600 0
DWIDTH 5 0
BBX 4 3 1 1
BITMAP
20
F0
40
ENDCHAR

STARTCHAR comma
ENCODING 44
SWIDTH 600 0
DWIDTH 5 0
BBX 2 2 1 -1
BITMAP
40
80
ENDCHAR

STARTCHAR minus
ENCODING 45
SWIDTH 600 0
DWIDTH 5 0
BBX 3 1 1 2
BITMAP
E0
ENDCHAR

STARTCHAR period
ENCODING 46
SWIDTH 600 0
DWIDTH 5 0
BBX 1 1 2 0
BITMAP
80
ENDCHAR

STARTCHAR slash
ENCODING 47
SWIDTH 600 0
DWIDTH 5 0
BBX 4 7 1 -1
BITMAP
10
10
20
40
40
80
80
ENDCHAR

STARTCHAR zero
ENCODING 48
SWIDTH 600 0
DWIDTH 5 0
BBX 4 5 1 0
BITMAP
70
90
90
90
E0
ENDCHAR

STARTCHAR one
ENCODING 49
SWIDTH 600 0
DWIDTH 5 0
BBX 3 5 1 0
BITMAP
60
20
40
40
E0
ENDCHAR

STARTCHAR two
ENCODING 50
SWIDTH 600 0
DWIDTH 5 0
BBX 4 5 1 0
BITMAP
60
10
60
80
E0
ENDCHAR

STARTCHAR three
ENCODING 51
SWIDTH 600 0
DWIDTH 5 0
BBX 4 5 1 0
BITMAP
70
10
20
90
60
ENDCHAR

STARTCHAR four
ENCODING 52
SWIDTH 600 0
DWIDTH 5 0
BBX 4 5 1 0
BITMAP
20
60
A0
F0
40
ENDCHAR

STARTCHAR five
ENCODING 53
SWIDTH 600 0
DWIDTH 5 0
BBX 4 5 1 0
BITMAP
70
40
60
10
E0
ENDCHAR

STARTCHAR six
ENCODING 54
SWIDTH 600 0
DWIDTH 5 0
BBX 4 5 1 0
BITMAP
30
40
E0
90
60
ENDCHAR

STARTCHAR seven
ENCODING 55
SWIDTH 600 0
DWIDTH 5 0
BBX 3 5 2 0
BITMAP
E0
A0
40
80
80
ENDCHAR

STARTCHAR eight
ENCODING 56
SWIDTH 600 0
DWIDTH 5 0
BBX 5 5 0 0
BITMAP
30
48
70
90
60
ENDCHAR

STARTCHAR nine
ENCODING 57
SWIDTH 600 0
DWIDTH 5 0
BBX 4 5 1 0
BITMAP
60
90
70
20
C0
ENDCHAR

STARTCHAR colon
ENCODING 58
SWIDTH 600 0
DWIDTH 5 0
BBX 2 4 2 0
BITMAP
40
00
00
80
ENDCHAR

STARTCHAR semicolon
ENCODING 59
SWIDTH 600 0
DWIDTH 5 0
BBX 3 5 1 -1
BITMAP
20
00
00
40
80
ENDCHAR

STARTCHAR less
ENCODING 60
SWIDTH 600 0
DWIDTH 5 0
BBX 4 5 1 0
BITMAP
10
60
80
60
10
ENDCHAR

STARTCHAR equal
ENCODING 61
SWIDTH 600 0
DWIDTH 5 0
BBX 5 3 0 1
BITMAP
78
00
F0
ENDCHAR

STARTCHAR greater
ENCODING 62
SWIDTH 600 0
DWIDTH 5 0
BBX 4 5 1 0
BITMAP
80
60
10
60
80
ENDCHAR

STARTCHAR question
ENCODING 63
SWIDTH 600 0
DWIDTH 5 0
BBX 3 6 2 0
BITMAP
C0
20
20
40
00
80
ENDCHAR

STARTCHAR at
ENCODING 64
SWIDTH 600 0
DWIDTH 5 0
BBX 4 6 1 -1
BITMAP
20
50
60
A0
80
60
ENDCHAR

STARTCHAR A
ENCODING 65
SWIDTH 600 0
DWIDTH 5 0
BBX 5 5 0 0
BITMAP
30
10
30
70
D8
ENDCHAR

STARTCHAR B
ENCODING 66
SWIDTH 600 0
DWIDTH 5 0
BBX 5 5 0 0
BITMAP
70
28
70
48
F0
ENDCHAR

STARTCHAR C
ENCODING 67
SWIDTH 600 0
DWIDTH 5 0
BBX 5 5 1 0
BITMAP
38
48
80
90
60
ENDCHAR

STARTCHAR D
ENCODING 68
SWIDTH 600 0
DWIDTH 5 0
BBX 5 5 0 0
BITMAP
70
28
48
50
E0
ENDCHAR

STARTCHAR E
ENCODING 69
SWIDTH 600 0
DWIDTH 5 0
BBX 5 5 0 0
BITMAP
78
28
60
50
F0
ENDCHAR

STARTCHAR F
ENCODING 70
SWIDTH 600 0
DWIDTH 5 0
BBX 5 5 0 0
BITMAP
78
28
60
40
E0
ENDCHAR

STARTCHAR G
ENCODING 71
SWIDTH 600 0
DWIDTH 5 0
BBX 5 5 1 0
BITMAP
38
40
B0
90
60
ENDCHAR

STARTCHAR H
ENCODING 72
SWIDTH 600 0
DWIDTH 5 0
BBX 6 5 0 0
BITMAP
6C
28
78
50
D8
ENDCHAR

STARTCHAR I
ENCODING 73
SWIDTH 600 0
DWIDTH 5 0
BBX 4 5 1 0
BITMAP
70
20
40
40
E0
ENDCHAR

STARTCHAR J
ENCODING 74
SWIDTH 600 0
DWIDTH 5 0
BBX 5 5 1 0
BITMAP
38
10
20
A0
40
ENDCHAR

STARTCHAR K
ENCODING 75
SWIDTH 600 0
DWIDTH 5 0
BBX 5 5 0 0
BITMAP
68
30
60
50
D8
ENDCHAR

STARTCHAR L
ENCODING 76
SWIDTH 600 0
DWIDTH 5 0
BBX 5 5 0 0
BITMAP
70
20
40
48
F8
ENDCHAR

STARTCHAR M
ENCODING 77
SWIDTH 600 0
DWIDTH 5 0
BBX 5 5 0 0
BITMAP
48
78
A8
90
90
ENDCHAR

STARTCHAR N
ENCODING 78
SWIDTH 600 0
DWIDTH 5 0
BBX 5 5 0 0
BITMAP
48
68
D8
90
90
ENDCHAR

STARTCHAR O
ENCODING 79
SWIDTH 600 0
DWIDTH 5 0
BBX 5 5 0 0
BITMAP
30
48
88
90
60
ENDCHAR

STARTCHAR P
ENCODING 80
SWIDTH 600 0
DWIDTH 5 0
BBX 5 5 0 0
BITMAP
70
28
70
40
E0
ENDCHAR

STARTCHAR Q
ENCODING 81
SWIDTH 600 0
DWIDTH 5 0
BBX 5 6 0 -1
BITMAP
30
48
88
90
60
58
ENDCHAR

STARTCHAR R
ENCODING 82
SWIDTH 600 0
DWIDTH 5 0
BBX 5 5 0 0
BITMAP
70
28
70
48
E8
ENDCHAR

STARTCHAR S
ENCODING 83
SWIDTH 600 0
DWIDTH 5 0
BBX 5 5 0 0
BITMAP
38
40
30
10
E0
ENDCHAR

STARTCHAR T
ENCODING 84
SWIDTH 600 0
DWIDTH 5 0
BBX 5 5 0 0
BITMAP
F8
A8
20
40
E0
ENDCHAR

STARTCHAR U
ENCODING 85
SWIDTH 600 0
DWIDTH 5 0
BBX 6 5 0 0
BITMAP
6C
48
90
90
60
ENDCHAR

STARTCHAR V
ENCODING 86
SWIDTH 600 0
DWIDTH 5 0
BBX 5 5 0 0
BITMAP
D8
50
50
60
40
ENDCHAR

STARTCHAR W
ENCODING 87
SWIDTH 600 0
DWIDTH 5 0
BBX 5 5 0 0
BITMAP
D8
88
A8
F0
A0
ENDCHAR

STARTCHAR X
ENCODING 88
SWIDTH 600 0
DWIDTH 5 0
BBX 5 5 0 0
BITMAP
C8
50
20
50
98
ENDCHAR

STARTCHAR Y
ENCODING 89
SWIDTH 600 0
DWIDTH 5 0
BBX 5 5 1 0
BITMAP
D8
50
20
40
E0
ENDCHAR

STARTCHAR Z
ENCODING 90
SWIDTH 600 0
DWIDTH 5 0
BBX 5 5 0 0
BITMAP
78
50
20
50
F0
ENDCHAR

STARTCHAR bracketleft
ENCODING 91
SWIDTH 600 0
DWIDTH 5 0
BBX 3 7 1 -1
BITMAP
60
40
40
80
80
80
C0
ENDCHAR

STARTCHAR backslash
ENCODING 92
SWIDTH 600 0
DWIDTH 5 0
BBX 4 7 1 -1
BITMAP
80
40
40
20
20
10
10
ENDCHAR

STARTCHAR bracketright
ENCODING 93
SWIDTH 600 0
DWIDTH 5 0
BBX 3 7 1 -1
BITMAP
60
20
20
40
40
40
C0
ENDCHAR

STARTCHAR asciicircum
ENCODING 94
SWIDTH 600 0
DWIDTH 5 0
BBX 3 2 2 3
BITMAP
60
A0
ENDCHAR

STARTCHAR underscore
ENCODING 95
SWIDTH 600 0
DWIDTH 5 0
BBX 5 1 0 -1
BITMAP
F8
ENDCHAR

STARTCHAR quoteleft
ENCODING 96
SWIDTH 600 0
DWIDTH 5 0
BBX 2 2 2 4
BITMAP
80
40
ENDCHAR

STARTCHAR a
ENCODING 97
SWIDTH 600 0
DWIDTH 5 0
BBX 4 4 1 0
BITMAP
E0
70
A0
F0
ENDCHAR

STARTCHAR b
ENCODING 98
SWIDTH 600 0
DWIDTH 5 0
BBX 5 6 0 0
BITMAP
60
20
30
48
48
F0
ENDCHAR

STARTCHAR c
ENCODING 99
SWIDTH 600 0
DWIDTH 5 0
BBX 4 4 1 0
BITMAP
30
50
80
60
ENDCHAR

STARTCHAR d
ENCODING 100
SWIDTH 600 0
DWIDTH 5 0
BBX 4 6 1 0
BITMAP
30
10
70
A0
A0
70
ENDCHAR

STARTCHAR e
ENCODING 101
SWIDTH 600 0
DWIDTH 5 0
BBX 4 4 1 0
BITMAP
30
70
C0
60
ENDCHAR

STARTCHAR f
ENCODING 102
SWIDTH 600 0
DWIDTH 5 0
BBX 5 6 1 0
BITMAP
18
20
F0
40
40
E0
ENDCHAR

STARTCHAR g
ENCODING 103
SWIDTH 600 0
DWIDTH 5 0
BBX 5 6 1 -2
BITMAP
38
50
90
60
20
C0
ENDCHAR

STARTCHAR h
ENCODING 104
SWIDTH 600 0
DWIDTH 5 0
BBX 5 6 0 0
BITMAP
60
20
30
48
50
D8
ENDCHAR

STARTCHAR i
ENCODING 105
SWIDTH 600 0
DWIDTH 5 0
BBX 3 6 2 0
BITMAP
20
00
60
40
40
C0
ENDCHAR

STARTCHAR j
ENCODING 106
SWIDTH 600 0
DWIDTH 5 0
BBX 3 8 1 -2
BITMAP
20
00
60
20
20
40
40
80
ENDCHAR

STARTCHAR k
ENCODING 107
SWIDTH 600 0
DWIDTH 5 0
BBX 5 6 0 0
BITMAP
60
20
38
60
50
D8
ENDCHAR

STARTCHAR l
ENCODING 108
SWIDTH 600 0
DWIDTH 5 0
BBX 3 6 1 0
BITMAP
60
20
20
40
40
E0
ENDCHAR

STARTCHAR m
ENCODING 109
SWIDTH 600 0
DWIDTH 5 0
BBX 6 4 0 0
BITMAP
78
54
A8
A8
ENDCHAR

STARTCHAR n
ENCODING 110
SWIDTH 600 0
DWIDTH 5 0
BBX 5 4 0 0
BITMAP
58
68
50
D8
ENDCHAR

STARTCHAR o
ENCODING 111
SWIDTH 600 0
DWIDTH 5 0
BBX 4 4 1 0
BITMAP
70
90
90
E0
ENDCHAR

STARTCHAR p
ENCODING 112
SWIDTH 600 0
DWIDTH 5 0
BBX 5 6 0 -2
BITMAP
70
28
28
50
40
E0
ENDCHAR

STARTCHAR q
ENCODING 113
SWIDTH 600 0
DWIDTH 5 0
BBX 5 6 1 -2
BITMAP
68
90
90
60
20
70
ENDCHAR

STARTCHAR r
ENCODING 114
SWIDTH 600 0
DWIDTH 5 0
BBX 5 4 1 0
BITMAP
58
20
40
E0
ENDCHAR

STARTCHAR s
ENCODING 115
SWIDTH 600 0
DWIDTH 5 0
BBX 4 4 1 0
BITMAP
30
40
30
E0
ENDCHAR

STARTCHAR t
ENCODING 116
SWIDTH 600 0
DWIDTH 5 0
BBX 4 5 1 0
BITMAP
20
F0
40
80
60
ENDCHAR

STARTCHAR u
ENCODING 117
SWIDTH 600 0
DWIDTH 5 0
BBX 5 4 1 0
BITMAP
D8
50
B0
D0
ENDCHAR

STARTCHAR v
ENCODING 118
SWIDTH 600 0
DWIDTH 5 0
BBX 5 4 1 0
BITMAP
D8
50
60
40
ENDCHAR

STARTCHAR w
ENCODING 119
SWIDTH 600 0
DWIDTH 5 0
BBX 5 4 0 0
BITMAP
D8
48
70
50
ENDCHAR

STARTCHAR x
ENCODING 120
SWIDTH 600 0
DWIDTH 5 0
BBX 5 4 0 0
BITMAP
58
20
20
D0
ENDCHAR

STARTCHAR y
ENCODING 121
SWIDTH 600 0
DWIDTH 5 0
BBX 5 6 0 -2
BITMAP
D8
50
60
20
40
E0
ENDCHAR

STARTCHAR z
ENCODING 122
SWIDTH 600 0
DWIDTH 5 0
BBX 4 4 1 0
BITMAP
70
20
40
E0
ENDCHAR

STARTCHAR braceleft
ENCODING 123
SWIDTH 600 0
DWIDTH 5 0
BBX 3 7 1 -1
BITMAP
20
60
40
C0
40
40
20
ENDCHAR

STARTCHAR bar
ENCODING 124
SWIDTH 600 0
DWIDTH 5 0
BBX 1 7 2 -1
BITMAP
80
80
80
80
80
80
80
ENDCHAR

STARTCHAR braceright
ENCODING 125
SWIDTH 600 0
DWIDTH 5 0
BBX 3 7 3 -1
BITMAP
80
40
40
60
40
C0
80
ENDCHAR

STARTCHAR asciitilde
ENCODING 126
SWIDTH 600 0
DWIDTH 5 0
BBX 4 2 1 2
BITMAP
D0
B0
ENDCHAR

STARTCHAR space
ENCODING 160
SWIDTH 600 0
DWIDTH 7 0
BBX 0 0 0 0
BITMAP
ENDCHAR

STARTCHAR Aogonek
ENCODING 161
SWIDTH 600 0
DWIDTH 5 0
BBX 5 7 0 -2
BITMAP
30
10
30
70
D8
10
18
ENDCHAR

STARTCHAR breve
ENCODING 162
SWIDTH 600 0
DWIDTH 5 0
BBX 4 2 1 5
BITMAP
90
60
ENDCHAR

STARTCHAR Lslash
ENCODING 163
SWIDTH 600 0
DWIDTH 5 0
BBX 5 5 0 0
BITMAP
70
20
F0
48
F8
ENDCHAR

STARTCHAR currency
ENCODING 164
SWIDTH 600 0
DWIDTH 5 0
BBX 5 5 0 0
BITMAP
88
70
50
70
88
ENDCHAR

STARTCHAR Lcaron
ENCODING 165
SWIDTH 600 0
DWIDTH 5 0
BBX 6 5 0 0
BITMAP
74
28
40
48
F8
ENDCHAR

STARTCHAR Sacute
ENCODING 166
SWIDTH 600 0
DWIDTH 5 0
BBX 5 8 0 0
BITMAP
08
10
00
38
40
30
10
E0
ENDCHAR

STARTCHAR section
ENCODING 167
SWIDTH 600 0
DWIDTH 5 0
BBX 4 7 1 -1
BITMAP
30
40
A0
90
50
20
C0
ENDCHAR

STARTCHAR dieresis
ENCODING 168
SWIDTH 600 0
DWIDTH 5 0
BBX 3 1 2 5
BITMAP
A0
ENDCHAR

STARTCHAR Scaron
ENCODING 169
SWIDTH 600 0
DWIDTH 5 0
BBX 5 8 0 0
BITMAP
28
10
00
38
40
30
10
E0
ENDCHAR

STARTCHAR Scommaaccent
ENCODING 170
SWIDTH 600 0
DWIDTH 5 0
BBX 5 8 0 -3
BITMAP
38
40
30
10
E0
00
40
80
ENDCHAR

STARTCHAR Tcaron
ENCODING 171
SWIDTH 600 0
DWIDTH 5 0
BBX 5 8 0 0
BITMAP
50
20
00
F8
A8
20
40
E0
ENDCHAR

STARTCHAR Zacute
ENCODING 172
SWIDTH 600 0
DWIDTH 5 0
BBX 5 8 0 0
BITMAP
10
20
00
78
50
20
50
F0
ENDCHAR

STARTCHAR hyphen
ENCODING 173
SWIDTH 600 0
DWIDTH 5 0
BBX 3 1 1 2
BITMAP
E0
ENDCHAR

STARTCHAR Zcaron
ENCODING 174
SWIDTH 600 0
DWIDTH 5 0
BBX 5 8 0 0
BITMAP
28
10
00
78
50
20
50
F0
ENDCHAR

STARTCHAR Zdotaccent
ENCODING 175
SWIDTH 600 0
DWIDTH 5 0
BBX 5 7 0 0
BITMAP
10
00
78
50
20
50
F0
ENDCHAR

STARTCHAR degree
ENCODING 176
SWIDTH 600 0
DWIDTH 5 0
BBX 3 3 2 3
BITMAP
60
A0
C0
ENDCHAR

STARTCHAR aogonek
ENCODING 177
SWIDTH 600 0
DWIDTH 5 0
BBX 4 6 1 -2
BITMAP
E0
70
A0
F0
20
30
ENDCHAR

STARTCHAR ogonek
ENCODING 178
SWIDTH 600 0
DWIDTH 5 0
BBX 2 2 2 -2
BITMAP
80
C0
ENDCHAR

STARTCHAR lslash
ENCODING 179
SWIDTH 600 0
DWIDTH 5 0
BBX 4 6 1 0
BITMAP
60
30
20
C0
40
E0
ENDCHAR

STARTCHAR acute
ENCODING 180
SWIDTH 600 0
DWIDTH 5 0
BBX 2 2 2 5
BITMAP
40
80
ENDCHAR

STARTCHAR lcaron
ENCODING 181
SWIDTH 600 0
DWIDTH 5 0
BBX 5 6 1 0
BITMAP
68
30
20
40
40
E0
ENDCHAR

STARTCHAR sacute
ENCODING 182
SWIDTH 600 0
DWIDTH 5 0
BBX 4 7 1 0
BITMAP
10
20
00
30
40
30
E0
ENDCHAR

STARTCHAR caron
ENCODING 183
SWIDTH 600 0
DWIDTH 5 0
BBX 3 2 2 5
BITMAP
A0
40
ENDCHAR

STARTCHAR commaaccent
ENCODING 184
SWIDTH 600 0
DWIDTH 5 0
BBX 2 2 1 -3
BITMAP
40
80
ENDCHAR

STARTCHAR scaron
ENCODING 185
SWIDTH 600 0
DWIDTH 5 0
BBX 5 7 1 0
BITMAP
28
10
00
30
40
30
E0
ENDCHAR

STARTCHAR scommaaccent
ENCODING 186
SWIDTH 600 0
DWIDTH 5 0
BBX 4 7 1 -3
BITMAP
30
40
30
E0
00
40
80
ENDCHAR

STARTCHAR tcaron
ENCODING 187
SWIDTH 600 0
DWIDTH 5 0
BBX 5 6 1 0
BITMAP
08
28
F0
40
80
60
ENDCHAR

STARTCHAR zacute
ENCODING 188
SWIDTH 600 0
DWIDTH 5 0
BBX 4 7 1 0
BITMAP
10
20
00
70
20
40
E0
ENDCHAR

STARTCHAR hungarumlaut
ENCODING 189
SWIDTH 600 0
DWIDTH 5 0
BBX 4 2 1 5
BITMAP
50
A0
ENDCHAR

STARTCHAR zcaron
ENCODING 190
SWIDTH 600 0
DWIDTH 5 0
BBX 4 7 1 0
BITMAP
50
20
00
70
20
40
E0
ENDCHAR

STARTCHAR zdotaccent
ENCODING 191
SWIDTH 600 0
DWIDTH 5 0
BBX 4 6 1 0
BITMAP
10
00
70
20
40
E0
ENDCHAR

STARTCHAR Racute
ENCODING 192
SWIDTH 600 0
DWIDTH 5 0
BBX 5 8 0 0
BITMAP
08
10
00
70
28
70
48
E8
ENDCHAR

STARTCHAR Aacute
ENCODING 193
SWIDTH 600 0
DWIDTH 5 0
BBX 5 8 0 0
BITMAP
08
10
00
30
10
30
70
D8
ENDCHAR

STARTCHAR Acircumflex
ENCODING 194
SWIDTH 600 0
DWIDTH 5 0
BBX 5 8 0 0
BITMAP
10
28
00
30
10
30
70
D8
ENDCHAR

STARTCHAR Abreve
ENCODING 195
SWIDTH 600 0
DWIDTH 5 0
BBX 6 8 0 0
BITMAP
24
18
00
30
10
30
70
D8
ENDCHAR

STARTCHAR Adieresis
ENCODING 196
SWIDTH 600 0
DWIDTH 5 0
BBX 5 7 0 0
BITMAP
28
00
30
10
30
70
D8
ENDCHAR

STARTCHAR Lacute
ENCODING 197
SWIDTH 600 0
DWIDTH 5 0
BBX 5 8 0 0
BITMAP
08
10
00
70
20
40
48
F8
ENDCHAR

STARTCHAR Cacute
ENCODING 198
SWIDTH 600 0
DWIDTH 5 0
BBX 5 8 1 0
BITMAP
08
10
00
38
48
80
90
60
ENDCHAR

STARTCHAR Ccedilla
ENCODING 199
SWIDTH 600 0
DWIDTH 5 0
BBX 5 8 1 -3
BITMAP
38
48
80
90
60
40
20
C0
ENDCHAR

STARTCHAR Ccaron
ENCODING 200
SWIDTH 600 0
DWIDTH 5 0
BBX 5 8 1 0
BITMAP
28
10
00
38
48
80
90
60
ENDCHAR

STARTCHAR Eacute
ENCODING 201
SWIDTH 600 0
DWIDTH 5 0
BBX 5 8 0 0
BITMAP
08
10
00
78
28
60
50
F0
ENDCHAR

STARTCHAR Eogonek
ENCODING 202
SWIDTH 600 0
DWIDTH 5 0
BBX 5 7 0 -2
BITMAP
78
28
60
50
F0
10
18
ENDCHAR

STARTCHAR Edieresis
ENCODING 203
SWIDTH 600 0
DWIDTH 5 0
BBX 5 7 0 0
BITMAP
28
00
78
28
60
50
F0
ENDCHAR

STARTCHAR Ecaron
ENCODING 204
SWIDTH 600 0
DWIDTH 5 0
BBX 5 8 0 0
BITMAP
28
10
00
78
28
60
50
F0
ENDCHAR

STARTCHAR Iacute
ENCODING 205
SWIDTH 600 0
DWIDTH 5 0
BBX 4 8 1 0
BITMAP
10
20
00
70
20
40
40
E0
ENDCHAR

STARTCHAR Icircumflex
ENCODING 206
SWIDTH 600 0
DWIDTH 5 0
BBX 5 8 1 0
BITMAP
10
28
00
70
20
40
40
E0
ENDCHAR

STARTCHAR Dcaron
ENCODING 207
SWIDTH 600 0
DWIDTH 5 0
BBX 5 8 0 0
BITMAP
28
10
00
70
28
48
50
E0
ENDCHAR

STARTCHAR Dcroat
ENCODING 208
SWIDTH 600 0
DWIDTH 5 0
BBX 5 5 0 0
BITMAP
70
28
E8
50
E0
ENDCHAR

STARTCHAR Nacute
ENCODING 209
SWIDTH 600 0
DWIDTH 5 0
BBX 5 8 0 0
BITMAP
08
10
00
48
68
D8
90
90
ENDCHAR

STARTCHAR Ncaron
ENCODING 210
SWIDTH 600 0
DWIDTH 5 0
BBX 5 8 0 0
BITMAP
28
10
00
48
68
D8
90
90
ENDCHAR

STARTCHAR Oacute
ENCODING 211
SWIDTH 600 0
DWIDTH 5 0
BBX 5 8 0 0
BITMAP
08
10
00
30
48
88
90
60
ENDCHAR

STARTCHAR Ocircumflex
ENCODING 212
SWIDTH 600 0
DWIDTH 5 0
BBX 5 8 0 0
BITMAP
10
28
00
30
48
88
90
60
ENDCHAR

STARTCHAR Ohungarumlaut
ENCODING 213
SWIDTH 600 0
DWIDTH 5 0
BBX 6 8 0 0
BITMAP
14
28
00
30
48
88
90
60
ENDCHAR

STARTCHAR Odieresis
ENCODING 214
SWIDTH 600 0
DWIDTH 5 0
BBX 5 7 0 0
BITMAP
28
00
30
48
88
90
60
ENDCHAR

STARTCHAR multiply
ENCODING 215
SWIDTH 600 0
DWIDTH 5 0
BBX 3 3 1 1
BITMAP
A0
40
A0
ENDCHAR

STARTCHAR Rcaron
ENCODING 216
SWIDTH 600 0
DWIDTH 5 0
BBX 5 8 0 0
BITMAP
28
10
00
70
28
70
48
E8
ENDCHAR

STARTCHAR Uring
ENCODING 217
SWIDTH 600 0
DWIDTH 5 0
BBX 6 8 0 0
BITMAP
10
28
10
6C
48
90
90
60
ENDCHAR

STARTCHAR Uacute
ENCODING 218
SWIDTH 600 0
DWIDTH 5 0
BBX 6 8 0 0
BITMAP
08
10
00
6C
48
90
90
60
ENDCHAR

STARTCHAR Uhungarumlaut
ENCODING 219
SWIDTH 600 0
DWIDTH 5 0
BBX 6 8 0 0
BITMAP
14
28
00
6C
48
90
90
60
ENDCHAR

STARTCHAR Udieresis
ENCODING 220
SWIDTH 600 0
DWIDTH 5 0
BBX 6 7 0 0
BITMAP
28
00
6C
48
90
90
60
ENDCHAR

STARTCHAR Yacute
ENCODING 221
SWIDTH 600 0
DWIDTH 5 0
BBX 5 8 1 0
BITMAP
10
20
00
D8
50
20
40
E0
ENDCHAR

STARTCHAR Tcommaaccent
ENCODING 222
SWIDTH 600 0
DWIDTH 5 0
BBX 5 8 0 -3
BITMAP
F8
A8
20
40
E0
00
40
80
ENDCHAR

STARTCHAR germandbls
ENCODING 223
SWIDTH 600 0
DWIDTH 5 0
BBX 5 6 0 0
BITMAP
10
28
30
48
48
D0
ENDCHAR

STARTCHAR racute
ENCODING 224
SWIDTH 600 0
DWIDTH 5 0
BBX 5 7 1 0
BITMAP
08
10
00
58
20
40
E0
ENDCHAR

STARTCHAR aacute
ENCODING 225
SWIDTH 600 0
DWIDTH 5 0
BBX 4 7 1 0
BITMAP
10
20
00
E0
70
A0
F0
ENDCHAR

STARTCHAR acircumflex
ENCODING 226
SWIDTH 600 0
DWIDTH 5 0
BBX 4 7 1 0
BITMAP
20
50
00
E0
70
A0
F0
ENDCHAR

STARTCHAR abreve
ENCODING 227
SWIDTH 600 0
DWIDTH 5 0
BBX 4 7 1 0
BITMAP
90
60
00
E0
70
A0
F0
ENDCHAR

STARTCHAR adieresis
ENCODING 228
SWIDTH 600 0
DWIDTH 5 0
BBX 4 6 1 0
BITMAP
50
00
E0
70
A0
F0
ENDCHAR

STARTCHAR lacute
ENCODING 229
SWIDTH 600 0
DWIDTH 5 0
BBX 4 8 1 0
BITMAP
10
20
60
20
20
40
40
E0
ENDCHAR

STARTCHAR cacute
ENCODING 230
SWIDTH 600 0
DWIDTH 5 0
BBX 5 7 1 0
BITMAP
08
10
00
30
50
80
60
ENDCHAR

STARTCHAR ccedilla
ENCODING 231
SWIDTH 600 0
DWIDTH 5 0
BBX 4 7 1 -3
BITMAP
30
50
80
60
40
20
C0
ENDCHAR

STARTCHAR ccaron
ENCODING 232
SWIDTH 600 0
DWIDTH 5 0
BBX 5 7 1 0
BITMAP
28
10
00
30
50
80
60
ENDCHAR

STARTCHAR eacute
ENCODING 233
SWIDTH 600 0
DWIDTH 5 0
BBX 5 7 1 0
BITMAP
08
10
00
30
70
C0
60
ENDCHAR

STARTCHAR eogonek
ENCODING 234
SWIDTH 600 0
DWIDTH 5 0
BBX 4 6 1 -2
BITMAP
30
70
C0
60
40
60
ENDCHAR

STARTCHAR edieresis
ENCODING 235
SWIDTH 600 0
DWIDTH 5 0
BBX 5 6 1 0
BITMAP
28
00
30
70
C0
60
ENDCHAR

STARTCHAR ecaron
ENCODING 236
SWIDTH 600 0
DWIDTH 5 0
BBX 5 7 1 0
BITMAP
28
10
00
30
70
C0
60
ENDCHAR

STARTCHAR iacute
ENCODING 237
SWIDTH 600 0
DWIDTH 5 0
BBX 4 7 2 0
BITMAP
10
20
00
60
40
40
C0
ENDCHAR

STARTCHAR icircumflex
ENCODING 238
SWIDTH 600 0
DWIDTH 5 0
BBX 4 7 2 0
BITMAP
20
50
00
60
40
40
C0
ENDCHAR

STARTCHAR dcaron
ENCODING 239
SWIDTH 600 0
DWIDTH 5 0
BBX 6 6 1 0
BITMAP
34
18
70
A0
A0
70
ENDCHAR

STARTCHAR dcroat
ENCODING 240
SWIDTH 600 0
DWIDTH 5 0
BBX 5 6 1 0
BITMAP
38
10
70
A0
A0
70
ENDCHAR

STARTCHAR nacute
ENCODING 241
SWIDTH 600 0
DWIDTH 5 0
BBX 5 7 0 0
BITMAP
08
10
00
58
68
50
D8
ENDCHAR

STARTCHAR ncaron
ENCODING 242
SWIDTH 600 0
DWIDTH 5 0
BBX 5 7 0 0
BITMAP
28
10
00
58
68
50
D8
ENDCHAR

STARTCHAR oacute
ENCODING 243
SWIDTH 600 0
DWIDTH 5 0
BBX 4 7 1 0
BITMAP
10
20
00
70
90
90
E0
ENDCHAR

STARTCHAR ocircumflex
ENCODING 244
SWIDTH 600 0
DWIDTH 5 0
BBX 4 7 1 0
BITMAP
20
50
00
70
90
90
E0
ENDCHAR

STARTCHAR ohungarumlaut
ENCODING 245
SWIDTH 600 0
DWIDTH 5 0
BBX 5 7 1 0
BITMAP
28
50
00
70
90
90
E0
ENDCHAR

STARTCHAR odieresis
ENCODING 246
SWIDTH 600 0
DWIDTH 5 0
BBX 4 6 1 0
BITMAP
50
00
70
90
90
E0
ENDCHAR

STARTCHAR divide
ENCODING 247
SWIDTH 600 0
DWIDTH 5 0
BBX 4 5 1 0
BITMAP
20
00
F0
00
40
ENDCHAR

STARTCHAR rcaron
ENCODING 248
SWIDTH 600 0
DWIDTH 5 0
BBX 5 7 1 0
BITMAP
28
10
00
58
20
40
E0
ENDCHAR

STARTCHAR uring
ENCODING 249
SWIDTH 600 0
DWIDTH 5 0
BBX 5 8 1 0
BITMAP
20
50
20
00
D8
50
B0
D0
ENDCHAR

STARTCHAR uacute
ENCODING 250
SWIDTH 600 0
DWIDTH 5 0
BBX 5 7 1 0
BITMAP
10
20
00
D8
50
B0
D0
ENDCHAR

STARTCHAR uhungarumlaut
ENCODING 251
SWIDTH 600 0
DWIDTH 5 0
BBX 5 7 1 0
BITMAP
28
50
00
D8
50
B0
D0
ENDCHAR

STARTCHAR udieresis
ENCODING 252
SWIDTH 600 0
DWIDTH 5 0
BBX 5 6 1 0
BITMAP
50
00
D8
50
B0
D0
ENDCHAR

STARTCHAR yacute
ENCODING 253
SWIDTH 600 0
DWIDTH 5 0
BBX 5 9 0 -2
BITMAP
10
20
00
D8
50
60
20
40
E0
ENDCHAR

STARTCHAR tcommaaccent
ENCODING 254
SWIDTH 600 0
DWIDTH 5 0
BBX 4 8 1 -3
BITMAP
20
F0
40
80
60
00
40
80
ENDCHAR

STARTCHAR dotaccent
ENCODING 255
SWIDTH 600 0
DWIDTH 5 0
BBX 1 1 3 5
BITMAP
80
ENDCHAR

ENDFONT
