STARTFONT 2.1
FONT -ETL&COMPAQ-Fixed-Bold-I-Normal--24-240-72-72-C-120-ISO8859-1
SIZE 24 72 72
FONTBOUNDINGBOX 12 24 0 -4

STARTPROPERTIES 22
FONTNAME_REGISTRY ""
FOUNDRY "ETL&COMPAQ"
FAMILY_NAME "Fixed"
WEIGHT_NAME "Bold"
SLANT "I"
SETWIDTH_NAME "Normal"
ADD_STYLE_NAME ""
PIXEL_SIZE 24
POINT_SIZE 240
RESOLUTION_X 72
RESOLUTION_Y 72
SPACING "C"
AVERAGE_WIDTH 120
CHARSET_REGISTRY "ISO8859"
CHARSET_ENCODING "1"
_MULE_BASELINE_OFFSET -3
WEIGHT 10
X_HEIGHT 0
QUAD_WIDTH 12
DEFAULT_CHAR 32
FONT_DESCENT 4
FONT_ASCENT 20
ENDPROPERTIES

CHARS 191

STARTCHAR SPACE
ENCODING 32
SWIDTH 500 0
DWIDTH 12 0
BBX 12 24 0 -4
BITMAP
0000
0000
0000
0000
0000
0000
0000
0000
0000
0000
0000
0000
0000
0000
0000
0000
0000
0000
0000
0000
0000
0000
0000
0000
ENDCHAR

STARTCHAR EXCLAMATION
ENCODING 33
SWIDTH 500 0
DWIDTH 12 0
BBX 12 24 0 -4
BITMAP
0000
0000
0000
0000
0000
0380
0380
0380
0700
0700
0700
0700
0E00
0E00
0E00
0000
0000
1C00
3E00
1C00
0000
0000
0000
0000
ENDCHAR

STARTCHAR QUOTATION
ENCODING 34
SWIDTH 500 0
DWIDTH 12 0
BBX 12 24 0 -4
BITMAP
0000
0000
0000
0000
0EE0
0EE0
0EE0
0EE0
1DC0
0000
0000
0000
0000
0000
0000
0000
0000
0000
0000
0000
0000
0000
0000
0000
ENDCHAR

STARTCHAR NUMBER
ENCODING 35
SWIDTH 500 0
DWIDTH 12 0
BBX 12 24 0 -4
BITMAP
0000
0000
0000
0000
0000
0770
0770
0770
3FF0
3FF0
1DC0
1DC0
3B80
3B80
FFC0
FFC0
EE00
EE00
EE00
0000
0000
0000
0000
0000
ENDCHAR

STARTCHAR DOLLAR
ENCODING 36
SWIDTH 500 0
DWIDTH 12 0
BBX 12 24 0 -4
BITMAP
0000
0000
0000
0000
0000
0380
0FE0
1FF0
7770
7700
3F00
1FC0
0FC0
0EE0
0EE0
EEE0
FF80
FF00
1C00
0000
0000
0000
0000
0000
ENDCHAR

STARTCHAR PERCENT
ENCODING 37
SWIDTH 500 0
DWIDTH 12 0
BBX 12 24 0 -4
BITMAP
0000
0000
0000
0000
0000
1E70
3F70
3FE0
7FC0
3F80
0380
0700
0E00
1C00
1FC0
3FE0
7FC0
EFC0
E780
0000
0000
0000
0000
0000
ENDCHAR

STARTCHAR AMPERSAND
ENCODING 38
SWIDTH 500 0
DWIDTH 12 0
BBX 12 24 0 -4
BITMAP
0000
0000
0000
0000
0000
03C0
07E0
0FF0
1CE0
1DC0
0FC0
1F80
7E00
F7E0
E3E0
E3C0
C700
FFC0
7DC0
0000
0000
0000
0000
0000
ENDCHAR

STARTCHAR APOSTROPHE
ENCODING 39
SWIDTH 500 0
DWIDTH 12 0
BBX 12 24 0 -4
BITMAP
0000
0000
0000
01C0
07C0
07C0
01C0
01C0
0700
0E00
0000
0000
0000
0000
0000
0000
0000
0000
0000
0000
0000
0000
0000
0000
ENDCHAR

STARTCHAR LEFT
ENCODING 40
SWIDTH 500 0
DWIDTH 12 0
BBX 12 24 0 -4
BITMAP
0000
0000
0000
0000
0000
00E0
01C0
03C0
0700
0F00
0E00
0E00
1C00
1C00
1E00
0E00
1E00
0E00
0700
0000
0000
0000
0000
0000
ENDCHAR

STARTCHAR RIGHT
ENCODING 41
SWIDTH 500 0
DWIDTH 12 0
BBX 12 24 0 -4
BITMAP
0000
0000
0000
0000
0000
0E00
0700
0780
0700
0780
0380
0380
0700
0700
0F00
0E00
3C00
3800
7000
0000
0000
0000
0000
0000
ENDCHAR

STARTCHAR ASTERISK
ENCODING 42
SWIDTH 500 0
DWIDTH 12 0
BBX 12 24 0 -4
BITMAP
0000
0000
0000
0000
0000
0000
0000
0380
0700
7770
7FF0
1FC0
0E00
3F80
FFE0
EEE0
1C00
1C00
0000
0000
0000
0000
0000
0000
ENDCHAR

STARTCHAR PLUS
ENCODING 43
SWIDTH 500 0
DWIDTH 12 0
BBX 12 24 0 -4
BITMAP
0000
0000
0000
0000
0000
0000
0000
0000
0700
0700
0700
0700
FFE0
FFE0
0E00
0E00
1C00
1C00
0000
0000
0000
0000
0000
0000
ENDCHAR

STARTCHAR COMMA
ENCODING 44
SWIDTH 500 0
DWIDTH 12 0
BBX 12 24 0 -4
BITMAP
0000
0000
0000
0000
0000
0000
0000
0000
0000
0000
0000
0000
0000
0000
0000
0E00
3E00
3E00
0E00
0E00
1C00
3800
0000
0000
ENDCHAR

STARTCHAR HYPHEN,
ENCODING 45
SWIDTH 500 0
DWIDTH 12 0
BBX 12 24 0 -4
BITMAP
0000
0000
0000
0000
0000
0000
0000
0000
0000
0000
0000
0000
FFE0
FFE0
0000
0000
0000
0000
0000
0000
0000
0000
0000
0000
ENDCHAR

STARTCHAR FULL
ENCODING 46
SWIDTH 500 0
DWIDTH 12 0
BBX 12 24 0 -4
BITMAP
0000
0000
0000
0000
0000
0000
0000
0000
0000
0000
0000
0000
0000
0000
0000
0E00
3E00
3E00
1C00
0000
0000
0000
0000
0000
ENDCHAR

STARTCHAR SOLIDUS
ENCODING 47
SWIDTH 500 0
DWIDTH 12 0
BBX 12 24 0 -4
BITMAP
0000
0000
0000
0000
0000
0070
0070
00E0
01C0
0380
0380
0700
0E00
1C00
1C00
3800
7000
E000
E000
0000
0000
0000
0000
0000
ENDCHAR

STARTCHAR DIGIT
ENCODING 48
SWIDTH 500 0
DWIDTH 12 0
BBX 12 24 0 -4
BITMAP
0000
0000
0000
0000
0000
07C0
0FE0
1EF0
38E0
39E0
3BE0
3FE0
7DC0
79C0
71C0
71C0
F780
7F00
3E00
0000
0000
0000
0000
0000
ENDCHAR

STARTCHAR DIGIT
ENCODING 49
SWIDTH 500 0
DWIDTH 12 0
BBX 12 24 0 -4
BITMAP
0000
0000
0000
0000
0000
0380
0780
0F80
3F00
0700
0700
0700
0E00
0E00
0E00
0E00
1C00
FF80
FF80
0000
0000
0000
0000
0000
ENDCHAR

STARTCHAR DIGIT
ENCODING 50
SWIDTH 500 0
DWIDTH 12 0
BBX 12 24 0 -4
BITMAP
0000
0000
0000
0000
0000
0FC0
1FE0
38F0
70E0
00E0
01C0
0380
0E00
1C00
3800
7000
C000
FF80
FF80
0000
0000
0000
0000
0000
ENDCHAR

STARTCHAR DIGIT
ENCODING 51
SWIDTH 500 0
DWIDTH 12 0
BBX 12 24 0 -4
BITMAP
0000
0000
0000
0000
0000
0FC0
1FE0
38F0
70E0
00E0
01C0
0F80
1F80
01C0
01C0
E1C0
C780
FF00
7E00
0000
0000
0000
0000
0000
ENDCHAR

STARTCHAR DIGIT
ENCODING 52
SWIDTH 500 0
DWIDTH 12 0
BBX 12 24 0 -4
BITMAP
0000
0000
0000
0000
0000
0380
0380
0700
0E00
1F80
1F80
3B80
7700
E700
FFC0
FFC0
0E00
0E00
0E00
0000
0000
0000
0000
0000
ENDCHAR

STARTCHAR DIGIT
ENCODING 53
SWIDTH 500 0
DWIDTH 12 0
BBX 12 24 0 -4
BITMAP
0000
0000
0000
0000
0000
3FE0
3FE0
3800
7000
7000
7F80
7FC0
03C0
01C0
01C0
E1C0
C780
FF00
7E00
0000
0000
0000
0000
0000
ENDCHAR

STARTCHAR DIGIT
ENCODING 54
SWIDTH 500 0
DWIDTH 12 0
BBX 12 24 0 -4
BITMAP
0000
0000
0000
0000
0000
0FC0
1FE0
3C70
70E0
7000
7F80
7FC0
F3C0
E1C0
E1C0
E1C0
E780
FF00
7E00
0000
0000
0000
0000
0000
ENDCHAR

STARTCHAR DIGIT
ENCODING 55
SWIDTH 500 0
DWIDTH 12 0
BBX 12 24 0 -4
BITMAP
0000
0000
0000
0000
0000
3FF0
3FF0
00E0
01C0
0380
0380
0700
0E00
1C00
1C00
3800
7000
E000
E000
0000
0000
0000
0000
0000
ENDCHAR

STARTCHAR DIGIT
ENCODING 56
SWIDTH 500 0
DWIDTH 12 0
BBX 12 24 0 -4
BITMAP
0000
0000
0000
0000
0000
07C0
0FE0
1C70
38E0
38E0
1FC0
1FC0
7BC0
F1E0
E0E0
E0E0
E3C0
FF80
7F00
0000
0000
0000
0000
0000
ENDCHAR

STARTCHAR DIGIT
ENCODING 57
SWIDTH 500 0
DWIDTH 12 0
BBX 12 24 0 -4
BITMAP
0000
0000
0000
0000
0000
0FC0
1FE0
3CF0
70E0
70E0
79E0
3FE0
3FC0
01C0
01C0
E1C0
C780
FF00
7E00
0000
0000
0000
0000
0000
ENDCHAR

STARTCHAR COLON
ENCODING 58
SWIDTH 500 0
DWIDTH 12 0
BBX 12 24 0 -4
BITMAP
0000
0000
0000
0000
0000
0000
0000
0000
0700
0F80
0F80
0700
0000
0000
0000
0E00
3E00
3E00
1C00
0000
0000
0000
0000
0000
ENDCHAR

STARTCHAR SEMICOLON
ENCODING 59
SWIDTH 500 0
DWIDTH 12 0
BBX 12 24 0 -4
BITMAP
0000
0000
0000
0000
0000
0000
0000
0000
0700
0F80
0F80
0700
0000
0000
0000
0E00
3E00
3E00
0E00
0E00
1C00
3800
0000
0000
ENDCHAR

STARTCHAR LESS-THAN
ENCODING 60
SWIDTH 500 0
DWIDTH 12 0
BBX 12 24 0 -4
BITMAP
0000
0000
0000
0000
0000
0000
0000
0000
0070
01E0
0780
1F00
F800
F800
3E00
0F80
0780
01C0
0000
0000
0000
0000
0000
0000
ENDCHAR

STARTCHAR EQUALS
ENCODING 61
SWIDTH 500 0
DWIDTH 12 0
BBX 12 24 0 -4
BITMAP
0000
0000
0000
0000
0000
0000
0000
0000
0000
0000
7FF0
7FF0
0000
0000
FFE0
FFE0
0000
0000
0000
0000
0000
0000
0000
0000
ENDCHAR

STARTCHAR GREATER-THAN
ENCODING 62
SWIDTH 500 0
DWIDTH 12 0
BBX 12 24 0 -4
BITMAP
0000
0000
0000
0000
0000
0000
0000
0000
7000
3C00
0F00
07C0
03E0
03E0
0F80
1E00
F000
C000
0000
0000
0000
0000
0000
0000
ENDCHAR

STARTCHAR QUESTION
ENCODING 63
SWIDTH 500 0
DWIDTH 12 0
BBX 12 24 0 -4
BITMAP
0000
0000
0000
0000
0000
07C0
0FE0
1EF0
30E0
00E0
01C0
0380
0E00
0E00
0E00
0000
0000
1C00
3E00
1C00
0000
0000
0000
0000
ENDCHAR

STARTCHAR COMMERCIAL
ENCODING 64
SWIDTH 500 0
DWIDTH 12 0
BBX 12 24 0 -4
BITMAP
0000
0000
0000
0000
0000
0FC0
1FE0
3C70
70E0
77E0
7FE0
7EE0
FDC0
FDC0
FFC0
EF80
E000
FF80
7F80
0000
0000
0000
0000
0000
ENDCHAR

STARTCHAR CAPITAL
ENCODING 65
SWIDTH 500 0
DWIDTH 12 0
BBX 12 24 0 -4
BITMAP
0000
0000
0000
0000
0000
07E0
0FF0
1E70
3870
3870
3870
3FF0
7FE0
70E0
70E0
70E0
E1C0
E1C0
E1C0
0000
0000
0000
0000
0000
ENDCHAR

STARTCHAR CAPITAL
ENCODING 66
SWIDTH 500 0
DWIDTH 12 0
BBX 12 24 0 -4
BITMAP
0000
0000
0000
0000
0000
1FC0
1FE0
1CF0
38E0
38E0
39C0
3FC0
7FC0
71C0
70E0
70E0
E3C0
FF80
FF00
0000
0000
0000
0000
0000
ENDCHAR

STARTCHAR CAPITAL
ENCODING 67
SWIDTH 500 0
DWIDTH 12 0
BBX 12 24 0 -4
BITMAP
0000
0000
0000
0000
0000
0FC0
1FE0
3CF0
70E0
7000
7000
7000
E000
E000
E000
E1C0
E780
FF00
7E00
0000
0000
0000
0000
0000
ENDCHAR

STARTCHAR CAPITAL
ENCODING 68
SWIDTH 500 0
DWIDTH 12 0
BBX 12 24 0 -4
BITMAP
0000
0000
0000
0000
0000
1FE0
1FF0
1C70
3870
3870
3870
3870
70E0
70E0
70E0
F0E0
E3C0
FF80
FF00
0000
0000
0000
0000
0000
ENDCHAR

STARTCHAR CAPITAL
ENCODING 69
SWIDTH 500 0
DWIDTH 12 0
BBX 12 24 0 -4
BITMAP
0000
0000
0000
0000
0000
1FF0
1FF0
1C00
3800
3800
3800
3FC0
7F80
7000
7000
7000
E000
FFC0
FFC0
0000
0000
0000
0000
0000
ENDCHAR

STARTCHAR CAPITAL
ENCODING 70
SWIDTH 500 0
DWIDTH 12 0
BBX 12 24 0 -4
BITMAP
0000
0000
0000
0000
0000
1FF0
1FF0
1C00
3800
3800
3800
3FC0
7F80
7000
7000
7000
E000
E000
E000
0000
0000
0000
0000
0000
ENDCHAR

STARTCHAR CAPITAL
ENCODING 71
SWIDTH 500 0
DWIDTH 12 0
BBX 12 24 0 -4
BITMAP
0000
0000
0000
0000
0000
07E0
0FF0
1E70
3870
3800
3800
3800
73E0
73E0
70E0
70E0
73C0
7F80
3F00
0000
0000
0000
0000
0000
ENDCHAR

STARTCHAR CAPITAL
ENCODING 72
SWIDTH 500 0
DWIDTH 12 0
BBX 12 24 0 -4
BITMAP
0000
0000
0000
0000
0000
1C70
1C70
1C70
38E0
38E0
38E0
3FE0
7FC0
71C0
71C0
71C0
E380
E380
E380
0000
0000
0000
0000
0000
ENDCHAR

STARTCHAR CAPITAL
ENCODING 73
SWIDTH 500 0
DWIDTH 12 0
BBX 12 24 0 -4
BITMAP
0000
0000
0000
0000
0000
0FE0
0FE0
0380
0700
0700
0700
0700
0E00
0E00
0E00
0E00
1C00
7F00
7F00
0000
0000
0000
0000
0000
ENDCHAR

STARTCHAR CAPITAL
ENCODING 74
SWIDTH 500 0
DWIDTH 12 0
BBX 12 24 0 -4
BITMAP
0000
0000
0000
0000
0000
0070
0070
0070
00E0
00E0
00E0
00E0
01C0
01C0
01C0
E1C0
C780
FF00
7E00
0000
0000
0000
0000
0000
ENDCHAR

STARTCHAR CAPITAL
ENCODING 75
SWIDTH 500 0
DWIDTH 12 0
BBX 12 24 0 -4
BITMAP
0000
0000
0000
0000
0000
1C30
1C70
1CE0
3B80
3F00
3E00
3C00
7C00
7E00
7700
7380
E380
E1C0
E0C0
0000
0000
0000
0000
0000
ENDCHAR

STARTCHAR CAPITAL
ENCODING 76
SWIDTH 500 0
DWIDTH 12 0
BBX 12 24 0 -4
BITMAP
0000
0000
0000
0000
0000
1C00
1C00
1C00
3800
3800
3800
3800
7000
7000
7000
7000
E000
FFC0
FFC0
0000
0000
0000
0000
0000
ENDCHAR

STARTCHAR CAPITAL
ENCODING 77
SWIDTH 500 0
DWIDTH 12 0
BBX 12 24 0 -4
BITMAP
0000
0000
0000
0000
0000
3870
3CF0
3CF0
7FE0
7FE0
7FE0
7FE0
EDC0
E1C0
E1C0
E1C0
C380
C380
C380
0000
0000
0000
0000
0000
ENDCHAR

STARTCHAR CAPITAL
ENCODING 78
SWIDTH 500 0
DWIDTH 12 0
BBX 12 24 0 -4
BITMAP
0000
0000
0000
0000
0000
3870
3C70
3C70
7CE0
7CE0
7EE0
7EE0
EFC0
EFC0
E7C0
E7C0
C780
C780
C380
0000
0000
0000
0000
0000
ENDCHAR

STARTCHAR CAPITAL
ENCODING 79
SWIDTH 500 0
DWIDTH 12 0
BBX 12 24 0 -4
BITMAP
0000
0000
0000
0000
0000
0FC0
1FE0
3CF0
3870
3070
7070
70E0
70E0
E0E0
E0C0
E1C0
F3C0
7F80
3F00
0000
0000
0000
0000
0000
ENDCHAR

STARTCHAR CAPITAL
ENCODING 80
SWIDTH 500 0
DWIDTH 12 0
BBX 12 24 0 -4
BITMAP
0000
0000
0000
0000
0000
1FE0
1FF0
1C70
3870
3870
38F0
3FE0
7F80
7000
7000
7000
E000
E000
E000
0000
0000
0000
0000
0000
ENDCHAR

STARTCHAR CAPITAL
ENCODING 81
SWIDTH 500 0
DWIDTH 12 0
BBX 12 24 0 -4
BITMAP
0000
0000
0000
0000
0000
07E0
0FF0
1E70
3870
3870
3870
3870
70E0
70E0
70E0
73E0
77C0
7F80
3FC0
00C0
0000
0000
0000
0000
ENDCHAR

STARTCHAR CAPITAL
ENCODING 82
SWIDTH 500 0
DWIDTH 12 0
BBX 12 24 0 -4
BITMAP
0000
0000
0000
0000
0000
1FE0
1FF0
1C70
3870
3870
38F0
3FE0
7F80
7380
7380
71C0
E380
E1C0
E1C0
0000
0000
0000
0000
0000
ENDCHAR

STARTCHAR CAPITAL
ENCODING 83
SWIDTH 500 0
DWIDTH 12 0
BBX 12 24 0 -4
BITMAP
0000
0000
0000
0000
0000
0FC0
1FE0
38F0
70E0
7000
7800
3F80
3F80
03C0
01C0
E1C0
C780
FF00
FE00
0000
0000
0000
0000
0000
ENDCHAR

STARTCHAR CAPITAL
ENCODING 84
SWIDTH 500 0
DWIDTH 12 0
BBX 12 24 0 -4
BITMAP
0000
0000
0000
0000
0000
7FF0
7FF0
0700
0E00
0E00
0E00
0E00
1C00
1C00
1C00
1C00
3800
3800
3800
0000
0000
0000
0000
0000
ENDCHAR

STARTCHAR CAPITAL
ENCODING 85
SWIDTH 500 0
DWIDTH 12 0
BBX 12 24 0 -4
BITMAP
0000
0000
0000
0000
0000
3870
3870
3870
70E0
70E0
70E0
70E0
E1C0
E1C0
E1C0
E1C0
E780
FF00
7E00
0000
0000
0000
0000
0000
ENDCHAR

STARTCHAR CAPITAL
ENCODING 86
SWIDTH 500 0
DWIDTH 12 0
BBX 12 24 0 -4
BITMAP
0000
0000
0000
0000
0000
E070
E070
E0E0
E0E0
E1C0
71C0
7380
7700
7700
7600
3E00
3C00
3800
3800
0000
0000
0000
0000
0000
ENDCHAR

STARTCHAR CAPITAL
ENCODING 87
SWIDTH 500 0
DWIDTH 12 0
BBX 12 24 0 -4
BITMAP
0000
0000
0000
0000
0000
3870
3870
3870
70E0
70E0
70E0
76E0
FFC0
FFC0
FFC0
FFC0
E780
E780
C380
0000
0000
0000
0000
0000
ENDCHAR

STARTCHAR CAPITAL
ENCODING 88
SWIDTH 500 0
DWIDTH 12 0
BBX 12 24 0 -4
BITMAP
0000
0000
0000
0000
0000
3870
3870
1CE0
39C0
1F80
1F80
0F00
1E00
3F00
3F00
7380
E700
C380
C380
0000
0000
0000
0000
0000
ENDCHAR

STARTCHAR CAPITAL
ENCODING 89
SWIDTH 500 0
DWIDTH 12 0
BBX 12 24 0 -4
BITMAP
0000
0000
0000
0000
0000
E030
E070
70E0
71C0
3B80
3F00
1E00
1C00
1C00
1C00
1C00
3800
3800
3800
0000
0000
0000
0000
0000
ENDCHAR

STARTCHAR CAPITAL
ENCODING 90
SWIDTH 500 0
DWIDTH 12 0
BBX 12 24 0 -4
BITMAP
0000
0000
0000
0000
0000
3FF0
3FF0
0030
00F0
01E0
03C0
0780
1E00
3C00
7800
F000
C000
FFC0
FFC0
0000
0000
0000
0000
0000
ENDCHAR

STARTCHAR LEFT
ENCODING 91
SWIDTH 500 0
DWIDTH 12 0
BBX 12 24 0 -4
BITMAP
0000
0000
0000
0000
0FC0
0FC0
0E00
0E00
1C00
1C00
1C00
1C00
3800
3800
3800
3800
7000
7E00
7E00
0000
0000
0000
0000
0000
ENDCHAR

STARTCHAR REVERSE
ENCODING 92
SWIDTH 500 0
DWIDTH 12 0
BBX 12 24 0 -4
BITMAP
0000
0000
0000
0000
0000
1C00
1C00
0E00
1C00
0E00
0E00
0700
0E00
0700
0700
0380
0700
0380
0380
0000
0000
0000
0000
0000
ENDCHAR

STARTCHAR RIGHT
ENCODING 93
SWIDTH 500 0
DWIDTH 12 0
BBX 12 24 0 -4
BITMAP
0000
0000
0000
0000
0FC0
0FC0
01C0
01C0
0380
0380
0380
0380
0700
0700
0700
0700
0E00
7E00
7E00
0000
0000
0000
0000
0000
ENDCHAR

STARTCHAR CIRCUMFLEX
ENCODING 94
SWIDTH 500 0
DWIDTH 12 0
BBX 12 24 0 -4
BITMAP
0000
0000
0000
0000
0300
0780
0FC0
1CE0
70E0
0000
0000
0000
0000
0000
0000
0000
0000
0000
0000
0000
0000
0000
0000
0000
ENDCHAR

STARTCHAR LOW
ENCODING 95
SWIDTH 500 0
DWIDTH 12 0
BBX 12 24 0 -4
BITMAP
0000
0000
0000
0000
0000
0000
0000
0000
0000
0000
0000
0000
0000
0000
0000
0000
0000
0000
0000
0000
FFC0
FFC0
0000
0000
ENDCHAR

STARTCHAR GRAVE
ENCODING 96
SWIDTH 500 0
DWIDTH 12 0
BBX 12 24 0 -4
BITMAP
0000
0000
0000
00E0
0380
0700
0700
07C0
0F80
0700
0000
0000
0000
0000
0000
0000
0000
0000
0000
0000
0000
0000
0000
0000
ENDCHAR

STARTCHAR SMALL
ENCODING 97
SWIDTH 500 0
DWIDTH 12 0
BBX 12 24 0 -4
BITMAP
0000
0000
0000
0000
0000
0000
0000
0000
07C0
0FE0
1C70
0070
0FE0
3FE0
70E0
F1E0
E7C0
FFC0
7DC0
0000
0000
0000
0000
0000
ENDCHAR

STARTCHAR SMALL
ENCODING 98
SWIDTH 500 0
DWIDTH 12 0
BBX 12 24 0 -4
BITMAP
0000
0000
0000
0000
0000
1C00
1C00
1C00
3800
3BC0
3FE0
3EF0
78E0
70E0
70E0
78E0
FBC0
FF80
EF00
0000
0000
0000
0000
0000
ENDCHAR

STARTCHAR SMALL
ENCODING 99
SWIDTH 500 0
DWIDTH 12 0
BBX 12 24 0 -4
BITMAP
0000
0000
0000
0000
0000
0000
0000
0000
0000
0FE0
1FE0
3C70
70E0
7000
7000
7000
71C0
7FC0
3F80
0000
0000
0000
0000
0000
ENDCHAR

STARTCHAR SMALL
ENCODING 100
SWIDTH 500 0
DWIDTH 12 0
BBX 12 24 0 -4
BITMAP
0000
0000
0000
0000
0000
0070
0070
0070
00E0
1FE0
3FE0
79E0
E1C0
E1C0
E1C0
E3C0
EF80
FF80
7B80
0000
0000
0000
0000
0000
ENDCHAR

STARTCHAR SMALL
ENCODING 101
SWIDTH 500 0
DWIDTH 12 0
BBX 12 24 0 -4
BITMAP
0000
0000
0000
0000
0000
0000
0000
0000
0000
0FC0
1FE0
3C70
70E0
7FE0
FFE0
F000
E1C0
7FC0
3F80
0000
0000
0000
0000
0000
ENDCHAR

STARTCHAR SMALL
ENCODING 102
SWIDTH 500 0
DWIDTH 12 0
BBX 12 24 0 -4
BITMAP
0000
0000
0000
0000
0000
03C0
07C0
0700
0E00
0E00
3F80
3F80
1C00
1C00
1C00
1C00
3800
3800
3800
0000
0000
0000
0000
0000
ENDCHAR

STARTCHAR SMALL
ENCODING 103
SWIDTH 500 0
DWIDTH 12 0
BBX 12 24 0 -4
BITMAP
0000
0000
0000
0000
0000
0000
0000
0000
0000
1EE0
3FE0
7BE0
E3C0
E1C0
E1C0
E1C0
E780
FF80
7F80
0380
0380
0380
7F00
3E00
ENDCHAR

STARTCHAR SMALL
ENCODING 104
SWIDTH 500 0
DWIDTH 12 0
BBX 12 24 0 -4
BITMAP
0000
0000
0000
0000
0000
1C00
1C00
1C00
3800
3BC0
3FE0
3EF0
78E0
70E0
70E0
70E0
E1C0
E1C0
E1C0
0000
0000
0000
0000
0000
ENDCHAR

STARTCHAR SMALL
ENCODING 105
SWIDTH 500 0
DWIDTH 12 0
BBX 12 24 0 -4
BITMAP
0000
0000
0000
0000
0000
0380
0380
0000
0000
0700
0700
0700
0E00
0E00
0E00
0E00
1C00
1C00
1C00
0000
0000
0000
0000
0000
ENDCHAR

STARTCHAR SMALL
ENCODING 106
SWIDTH 500 0
DWIDTH 12 0
BBX 12 24 0 -4
BITMAP
0000
0000
0000
0000
0000
01C0
01C0
0000
0000
0380
0380
0380
0700
0700
0700
0700
0E00
0E00
0E00
1E00
1C00
7C00
7800
0000
ENDCHAR

STARTCHAR SMALL
ENCODING 107
SWIDTH 500 0
DWIDTH 12 0
BBX 12 24 0 -4
BITMAP
0000
0000
0000
0000
0000
0000
1C00
1C00
38E0
39E0
3BC0
3F80
7E00
7C00
7E00
7F00
EF00
E780
E380
0000
0000
0000
0000
0000
ENDCHAR

STARTCHAR SMALL
ENCODING 108
SWIDTH 500 0
DWIDTH 12 0
BBX 12 24 0 -4
BITMAP
0000
0000
0000
0000
0000
0380
0380
0380
0700
0700
0700
0700
0E00
0E00
0E00
0E00
1C00
1F00
0F00
0000
0000
0000
0000
0000
ENDCHAR

STARTCHAR SMALL
ENCODING 109
SWIDTH 500 0
DWIDTH 12 0
BBX 12 24 0 -4
BITMAP
0000
0000
0000
0000
0000
0000
0000
0000
3800
3FF0
3FF0
3BB0
7770
7770
7770
7770
EEE0
EEE0
EEE0
0000
0000
0000
0000
0000
ENDCHAR

STARTCHAR SMALL
ENCODING 110
SWIDTH 500 0
DWIDTH 12 0
BBX 12 24 0 -4
BITMAP
0000
0000
0000
0000
0000
0000
0000
0000
0000
3BC0
3FE0
3E70
78F0
70E0
70E0
70E0
E1C0
E1C0
E1C0
0000
0000
0000
0000
0000
ENDCHAR

STARTCHAR SMALL
ENCODING 111
SWIDTH 500 0
DWIDTH 12 0
BBX 12 24 0 -4
BITMAP
0000
0000
0000
0000
0000
0000
0000
0000
0000
0FC0
1FE0
3CF0
70E0
70E0
70E0
70E0
73C0
7F80
3F00
0000
0000
0000
0000
0000
ENDCHAR

STARTCHAR SMALL
ENCODING 112
SWIDTH 500 0
DWIDTH 12 0
BBX 12 24 0 -4
BITMAP
0000
0000
0000
0000
0000
0000
0000
0000
0000
3BC0
3FE0
3EE0
78E0
70E0
70E0
78E0
7BC0
7F80
6F00
E000
E000
E000
E000
0000
ENDCHAR

STARTCHAR SMALL
ENCODING 113
SWIDTH 500 0
DWIDTH 12 0
BBX 12 24 0 -4
BITMAP
0000
0000
0000
0000
0000
0000
0000
0000
0000
0F70
1FF0
3DF0
71E0
70E0
70E0
71E0
77C0
7FC0
3DC0
01C0
0380
0380
0380
0000
ENDCHAR

STARTCHAR SMALL
ENCODING 114
SWIDTH 500 0
DWIDTH 12 0
BBX 12 24 0 -4
BITMAP
0000
0000
0000
0000
0000
0000
0000
0000
0000
3BC0
3FE0
3E70
78E0
7000
7000
7000
E000
E000
E000
0000
0000
0000
0000
0000
ENDCHAR

STARTCHAR SMALL
ENCODING 115
SWIDTH 500 0
DWIDTH 12 0
BBX 12 24 0 -4
BITMAP
0000
0000
0000
0000
0000
0000
0000
0000
0000
1FE0
3FF0
3830
7000
3F80
1FC0
00E0
E1C0
FFC0
7F80
0000
0000
0000
0000
0000
ENDCHAR

STARTCHAR SMALL
ENCODING 116
SWIDTH 500 0
DWIDTH 12 0
BBX 12 24 0 -4
BITMAP
0000
0000
0000
0000
0000
0000
0700
0700
0E00
3F80
3F80
0E00
1C00
1C00
1C00
1C00
3800
3E00
1E00
0000
0000
0000
0000
0000
ENDCHAR

STARTCHAR SMALL
ENCODING 117
SWIDTH 500 0
DWIDTH 12 0
BBX 12 24 0 -4
BITMAP
0000
0000
0000
0000
0000
0000
0000
0000
0000
70E0
70E0
70E0
E1C0
E1C0
E1C0
E3C0
EF80
FF80
7B80
0000
0000
0000
0000
0000
ENDCHAR

STARTCHAR SMALL
ENCODING 118
SWIDTH 500 0
DWIDTH 12 0
BBX 12 24 0 -4
BITMAP
0000
0000
0000
0000
0000
0000
0000
0000
0000
7070
7070
38E0
71C0
3B80
3B80
1F00
3E00
1C00
1C00
0000
0000
0000
0000
0000
ENDCHAR

STARTCHAR SMALL
ENCODING 119
SWIDTH 500 0
DWIDTH 12 0
BBX 12 24 0 -4
BITMAP
0000
0000
0000
0000
0000
0000
0000
0000
0000
3870
3870
3870
70E0
76E0
7FE0
FFE0
FFC0
F3C0
E1C0
0000
0000
0000
0000
0000
ENDCHAR

STARTCHAR SMALL
ENCODING 120
SWIDTH 500 0
DWIDTH 12 0
BBX 12 24 0 -4
BITMAP
0000
0000
0000
0000
0000
0000
0000
0000
0000
70E0
70E0
39C0
3F00
1E00
1E00
3F00
E700
C380
C380
0000
0000
0000
0000
0000
ENDCHAR

STARTCHAR SMALL
ENCODING 121
SWIDTH 500 0
DWIDTH 12 0
BBX 12 24 0 -4
BITMAP
0000
0000
0000
0000
0000
0000
0000
0000
0000
3870
3870
3870
70E0
70E0
70E0
70E0
63C0
7FC0
3FC0
01C0
0380
0780
FF00
7E00
ENDCHAR

STARTCHAR SMALL
ENCODING 122
SWIDTH 500 0
DWIDTH 12 0
BBX 12 24 0 -4
BITMAP
0000
0000
0000
0000
0000
0000
0000
0000
0000
3FF0
3FF0
00E0
0380
0700
0E00
1C00
7000
FFC0
FFC0
0000
0000
0000
0000
0000
ENDCHAR

STARTCHAR LEFT
ENCODING 123
SWIDTH 500 0
DWIDTH 12 0
BBX 12 24 0 -4
BITMAP
0000
0000
0000
0000
01E0
0380
0380
0380
0700
0700
0E00
1E00
1C00
0E00
0E00
0E00
1C00
1C00
0F00
0000
0000
0000
0000
0000
ENDCHAR

STARTCHAR VERTICAL
ENCODING 124
SWIDTH 500 0
DWIDTH 12 0
BBX 12 24 0 -4
BITMAP
0000
01C0
01C0
01C0
0380
0380
0380
0380
0700
0700
0700
0700
0E00
0E00
0E00
0E00
1C00
1C00
1C00
1C00
3800
3800
3800
0000
ENDCHAR

STARTCHAR RIGHT
ENCODING 125
SWIDTH 500 0
DWIDTH 12 0
BBX 12 24 0 -4
BITMAP
0000
0000
0000
0000
0F00
0380
0380
0380
0700
0700
0380
03C0
0700
0E00
0E00
0E00
1C00
1C00
7800
0000
0000
0000
0000
0000
ENDCHAR

STARTCHAR TILDE
ENCODING 126
SWIDTH 500 0
DWIDTH 12 0
BBX 12 24 0 -4
BITMAP
0000
0000
0000
0000
1E30
3F70
37F0
71E0
0000
0000
0000
0000
0000
0000
0000
0000
0000
0000
0000
0000
0000
0000
0000
0000
ENDCHAR

STARTCHAR NO-BREAK
ENCODING 160
SWIDTH 500 0
DWIDTH 12 0
BBX 12 24 0 -4
BITMAP
0000
0000
0000
0000
0000
0000
0000
0000
0000
0000
0000
0000
0000
0000
0000
0000
0000
0000
0000
0000
0000
0000
0000
0000
ENDCHAR

STARTCHAR INVERTED
ENCODING 161
SWIDTH 500 0
DWIDTH 12 0
BBX 12 24 0 -4
BITMAP
0000
0000
0000
0000
0380
07C0
0380
0000
0000
0700
0700
0700
0E00
0E00
0E00
0E00
1C00
1C00
1C00
0000
0000
0000
0000
0000
ENDCHAR

STARTCHAR CENT
ENCODING 162
SWIDTH 500 0
DWIDTH 12 0
BBX 12 24 0 -4
BITMAP
0000
0000
0000
0000
0000
0380
0380
0FC0
3FC0
7FE0
77E0
7700
EE00
EFC0
FFC0
7F80
7E00
1C00
1C00
0000
0000
0000
0000
0000
ENDCHAR

STARTCHAR POUND
ENCODING 163
SWIDTH 500 0
DWIDTH 12 0
BBX 12 24 0 -4
BITMAP
0000
0000
0000
0000
0000
07C0
0FE0
1EE0
3800
3800
3C00
7FC0
FF80
3800
3800
7F00
FF00
E780
C380
0000
0000
0000
0000
0000
ENDCHAR

STARTCHAR CURRENCY
ENCODING 164
SWIDTH 500 0
DWIDTH 12 0
BBX 12 24 0 -4
BITMAP
0000
0000
0000
0000
0000
0000
0000
3830
7FF0
3FE0
1DC0
38E0
71C0
3B80
7FC0
FFE0
C1C0
0000
0000
0000
0000
0000
0000
0000
ENDCHAR

STARTCHAR YEN
ENCODING 165
SWIDTH 500 0
DWIDTH 12 0
BBX 12 24 0 -4
BITMAP
0000
0000
0000
0000
0000
1C70
1EF0
0EE0
1FC0
0F80
3FE0
3FE0
0E00
7FC0
7FC0
0E00
1C00
1C00
1C00
0000
0000
0000
0000
0000
ENDCHAR

STARTCHAR BROKEN
ENCODING 166
SWIDTH 500 0
DWIDTH 12 0
BBX 12 24 0 -4
BITMAP
0000
01C0
01C0
01C0
0380
0380
0380
0380
0700
0700
0700
0000
0000
0E00
0E00
0E00
1C00
1C00
1C00
1C00
3800
3C00
3800
0000
ENDCHAR

STARTCHAR PARAGRAPH
ENCODING 167
SWIDTH 500 0
DWIDTH 12 0
BBX 12 24 0 -4
BITMAP
0000
0000
0000
0000
0FC0
1FE0
3CF0
3870
7800
3F80
3FC0
70E0
E1C0
7F80
3F80
03C0
C380
E780
FF00
7E00
0000
0000
0000
0000
ENDCHAR

STARTCHAR DIAERESIS
ENCODING 168
SWIDTH 500 0
DWIDTH 12 0
BBX 12 24 0 -4
BITMAP
0000
0E70
0E70
0000
0000
0000
0000
0000
0000
0000
0000
0000
0000
0000
0000
0000
0000
0000
0000
0000
0000
0000
0000
0000
ENDCHAR

STARTCHAR COPYRIGHT
ENCODING 169
SWIDTH 500 0
DWIDTH 12 0
BBX 12 24 0 -4
BITMAP
0000
0000
0000
0000
0FC0
1FE0
3870
3030
EF70
FFF0
F9F0
F870
F3E0
FFE0
DEE0
C0E0
C380
FF00
7E00
0000
0000
0000
0000
0000
ENDCHAR

STARTCHAR FEMININE
ENCODING 170
SWIDTH 500 0
DWIDTH 12 0
BBX 12 24 0 -4
BITMAP
07E0
0FF0
0E70
03F0
0FE0
1CE0
1FE0
0FE0
0000
3FC0
3FC0
0000
0000
0000
0000
0000
0000
0000
0000
0000
0000
0000
0000
0000
ENDCHAR

STARTCHAR LEFT
ENCODING 171
SWIDTH 500 0
DWIDTH 12 0
BBX 12 24 0 -4
BITMAP
0000
0000
0000
0000
03B0
0770
0770
0EE0
1DC0
3B80
3B80
7700
EE00
7700
7700
3B80
7700
3B80
3B80
1DC0
0000
0000
0000
0000
ENDCHAR

STARTCHAR NOT
ENCODING 172
SWIDTH 500 0
DWIDTH 12 0
BBX 12 24 0 -4
BITMAP
0000
0000
0000
0000
0000
0000
0000
0000
0000
0000
0000
7FF0
FFE0
00E0
00E0
00E0
0000
0000
0000
0000
0000
0000
0000
0000
ENDCHAR

STARTCHAR SOFT
ENCODING 173
SWIDTH 500 0
DWIDTH 12 0
BBX 12 24 0 -4
BITMAP
0000
0000
0000
0000
0000
0000
0000
0000
0000
0000
0000
0000
FFE0
FFE0
0000
0000
0000
0000
0000
0000
0000
0000
0000
0000
ENDCHAR

STARTCHAR REGISTERED
ENCODING 174
SWIDTH 500 0
DWIDTH 12 0
BBX 12 24 0 -4
BITMAP
0000
0000
0000
0000
0FC0
1FE0
3CF0
3870
FF70
DFF0
D9F0
DF70
BEE0
B3E0
F3E0
E1E0
E780
FF00
7E00
0000
0000
0000
0000
0000
ENDCHAR

STARTCHAR MACRON
ENCODING 175
SWIDTH 500 0
DWIDTH 12 0
BBX 12 24 0 -4
BITMAP
1FF0
1FF0
0000
0000
0000
0000
0000
0000
0000
0000
0000
0000
0000
0000
0000
0000
0000
0000
0000
0000
0000
0000
0000
0000
ENDCHAR

STARTCHAR DEGREE
ENCODING 176
SWIDTH 500 0
DWIDTH 12 0
BBX 12 24 0 -4
BITMAP
01E0
03F0
03F0
01E0
0000
0000
0000
0000
0000
0000
0000
0000
0000
0000
0000
0000
0000
0000
0000
0000
0000
0000
0000
0000
ENDCHAR

STARTCHAR PLUS-MINUS
ENCODING 177
SWIDTH 500 0
DWIDTH 12 0
BBX 12 24 0 -4
BITMAP
0000
0000
0000
0000
0000
0000
0380
0380
0700
3FE0
3FE0
0700
0E00
0E00
0000
0000
FF80
FF80
0000
0000
0000
0000
0000
0000
ENDCHAR

STARTCHAR SUPERSCRIPT
ENCODING 178
SWIDTH 500 0
DWIDTH 12 0
BBX 12 24 0 -4
BITMAP
03F0
07F0
0730
0070
01E0
03C0
0780
0F00
1FE0
1FE0
0000
0000
0000
0000
0000
0000
0000
0000
0000
0000
0000
0000
0000
0000
ENDCHAR

STARTCHAR SUPERSCRIPT
ENCODING 179
SWIDTH 500 0
DWIDTH 12 0
BBX 12 24 0 -4
BITMAP
03F0
07F0
0730
0030
03F0
03F0
0070
0E70
1FE0
0FC0
0000
0000
0000
0000
0000
0000
0000
0000
0000
0000
0000
0000
0000
0000
ENDCHAR

STARTCHAR ACUTE
ENCODING 180
SWIDTH 500 0
DWIDTH 12 0
BBX 12 24 0 -4
BITMAP
00E0
01E0
0380
0000
0000
0000
0000
0000
0000
0000
0000
0000
0000
0000
0000
0000
0000
0000
0000
0000
0000
0000
0000
0000
ENDCHAR

STARTCHAR MICRO
ENCODING 181
SWIDTH 500 0
DWIDTH 12 0
BBX 12 24 0 -4
BITMAP
0000
0000
0000
0000
0000
0000
0000
0000
0000
0770
0770
0F70
0EE0
0EE0
1DE0
1DC0
3FC0
3FC0
71E0
7000
7000
E000
E000
E000
ENDCHAR

STARTCHAR PILCROW
ENCODING 182
SWIDTH 500 0
DWIDTH 12 0
BBX 12 24 0 -4
BITMAP
0000
0000
0000
0000
0000
0FF0
1FB0
3FB0
7F60
7F60
7F60
3EE0
3EC0
02C0
02C0
05C0
0580
0580
0780
0000
0000
0000
0000
0000
ENDCHAR

STARTCHAR MIDDLE
ENCODING 183
SWIDTH 500 0
DWIDTH 12 0
BBX 12 24 0 -4
BITMAP
0000
0000
0000
0000
0000
0000
0000
0000
0000
0000
0700
0F80
1F00
0E00
0000
0000
0000
0000
0000
0000
0000
0000
0000
0000
ENDCHAR

STARTCHAR CEDILLA
ENCODING 184
SWIDTH 500 0
DWIDTH 12 0
BBX 12 24 0 -4
BITMAP
0000
0000
0000
0000
0000
0000
0000
0000
0000
0000
0000
0000
0000
0000
0000
0000
0000
0000
1C00
1C00
1E00
0700
3F00
3E00
ENDCHAR

STARTCHAR SUPERSCRIPT
ENCODING 185
SWIDTH 500 0
DWIDTH 12 0
BBX 12 24 0 -4
BITMAP
01C0
03C0
07C0
01C0
0380
0380
0380
0380
1FC0
1FC0
0000
0000
0000
0000
0000
0000
0000
0000
0000
0000
0000
0000
0000
0000
ENDCHAR

STARTCHAR MASCULINE
ENCODING 186
SWIDTH 500 0
DWIDTH 12 0
BBX 12 24 0 -4
BITMAP
03F0
07F0
0730
0730
0E70
0E70
0FF0
07E0
0000
1FE0
1FE0
0000
0000
0000
0000
0000
0000
0000
0000
0000
0000
0000
0000
0000
ENDCHAR

STARTCHAR RIGHT
ENCODING 187
SWIDTH 500 0
DWIDTH 12 0
BBX 12 24 0 -4
BITMAP
0000
0000
0000
0000
3B80
1DC0
1DC0
0EE0
1DC0
0EE0
0EE0
0770
0EE0
1DC0
1DC0
3B80
7700
EE00
EE00
DC00
0000
0000
0000
0000
ENDCHAR

STARTCHAR VULGAR
ENCODING 188
SWIDTH 500 0
DWIDTH 12 0
BBX 12 24 0 -4
BITMAP
0000
0000
0700
0F00
0E00
0E00
0E00
0E30
3EF0
3FE0
03C0
0780
1E00
3DC0
7BC0
F7C0
DF80
1FC0
1FC0
0380
0380
0000
0000
0000
ENDCHAR

STARTCHAR VULGAR
ENCODING 189
SWIDTH 500 0
DWIDTH 12 0
BBX 12 24 0 -4
BITMAP
0000
0000
0700
0F00
0E00
0E00
0E00
0E30
3EF0
3FE0
03C0
0780
1E00
3FC0
7FE0
F7E0
C1C0
0380
0700
0FC0
0FC0
0000
0000
0000
ENDCHAR

STARTCHAR VULGAR
ENCODING 190
SWIDTH 500 0
DWIDTH 12 0
BBX 12 24 0 -4
BITMAP
0000
0000
0F80
0FC0
0380
0F00
0F00
03B0
3FF0
3FE0
03C0
0780
1E00
3DC0
7BC0
F7C0
DF80
1FC0
1FC0
0380
0380
0000
0000
0000
ENDCHAR

STARTCHAR INVERTED
ENCODING 191
SWIDTH 500 0
DWIDTH 12 0
BBX 12 24 0 -4
BITMAP
0000
0000
0000
0000
0380
07C0
0380
0000
0000
0700
0700
0700
1C00
3800
7000
70C0
F780
7F00
3E00
0000
0000
0000
0000
0000
ENDCHAR

STARTCHAR CAPITAL
ENCODING 192
SWIDTH 500 0
DWIDTH 12 0
BBX 12 24 0 -4
BITMAP
01C0
01E0
0070
0000
0000
07E0
0FF0
1E70
3870
3870
3870
3FF0
7FE0
70E0
70E0
70E0
E1C0
E1C0
E1C0
0000
0000
0000
0000
0000
ENDCHAR

STARTCHAR CAPITAL
ENCODING 193
SWIDTH 500 0
DWIDTH 12 0
BBX 12 24 0 -4
BITMAP
00E0
01E0
0380
0000
0000
07E0
0FF0
1E70
3870
3870
3870
3FF0
7FE0
70E0
70E0
70E0
E1C0
E1C0
E1C0
0000
0000
0000
0000
0000
ENDCHAR

STARTCHAR CAPITAL
ENCODING 194
SWIDTH 500 0
DWIDTH 12 0
BBX 12 24 0 -4
BITMAP
03C0
07E0
0E70
0000
0000
07E0
0FF0
1E70
3870
3870
3870
3FF0
7FE0
70E0
70E0
70E0
E1C0
61C0
E1C0
0000
0000
0000
0000
0000
ENDCHAR

STARTCHAR CAPITAL
ENCODING 195
SWIDTH 500 0
DWIDTH 12 0
BBX 12 24 0 -4
BITMAP
0F10
1FB0
19F0
0000
0000
07E0
0FF0
1E70
3870
3870
3870
3FF0
7FE0
70E0
70E0
70E0
E1C0
E1C0
E1C0
0000
0000
0000
0000
0000
ENDCHAR

STARTCHAR CAPITAL
ENCODING 196
SWIDTH 500 0
DWIDTH 12 0
BBX 12 24 0 -4
BITMAP
0000
0E70
0E70
0000
0000
07E0
0FF0
1E70
3870
3870
3870
3FF0
7FE0
70E0
70E0
70E0
E1C0
E1C0
E1C0
0000
0000
0000
0000
0000
ENDCHAR

STARTCHAR CAPITAL
ENCODING 197
SWIDTH 500 0
DWIDTH 12 0
BBX 12 24 0 -4
BITMAP
03C0
07E0
0660
07E0
03C0
07E0
0FF0
1E70
3870
3870
3870
3FF0
7FE0
70E0
70E0
70E0
E1C0
E1C0
E1C0
0000
0000
0000
0000
0000
ENDCHAR

STARTCHAR CAPITAL
ENCODING 198
SWIDTH 500 0
DWIDTH 12 0
BBX 12 24 0 -4
BITMAP
0000
0000
0000
0000
0000
0FF0
0FF0
1DC0
3B80
7380
73F0
7FF0
FF00
E700
E700
E700
CE00
CFC0
CFC0
0000
0000
0000
0000
0000
ENDCHAR

STARTCHAR CAPITAL
ENCODING 199
SWIDTH 500 0
DWIDTH 12 0
BBX 12 24 0 -4
BITMAP
0000
0000
0000
0000
0000
0FC0
1FE0
3CF0
70E0
7000
7000
7000
E000
E000
E000
E1C0
E780
FF00
7E00
3800
3C00
0E00
7E00
7C00
ENDCHAR

STARTCHAR CAPITAL
ENCODING 200
SWIDTH 500 0
DWIDTH 12 0
BBX 12 24 0 -4
BITMAP
0380
03C0
00E0
0000
0000
1FF0
1FF0
1C00
3800
3800
3800
3FC0
7F80
7000
7000
7000
E000
FFC0
FFC0
0000
0000
0000
0000
0000
ENDCHAR

STARTCHAR CAPITAL
ENCODING 201
SWIDTH 500 0
DWIDTH 12 0
BBX 12 24 0 -4
BITMAP
01C0
03C0
0700
0000
0000
1FF0
1FF0
1C00
3800
3800
3800
3FC0
7F80
7000
7000
7000
E000
FFC0
FFC0
0000
0000
0000
0000
0000
ENDCHAR

STARTCHAR CAPITAL
ENCODING 202
SWIDTH 500 0
DWIDTH 12 0
BBX 12 24 0 -4
BITMAP
03C0
07E0
0E70
0000
0000
1FF0
1FF0
1C00
3800
3800
3800
3FC0
7F80
7000
7000
7000
E000
FFC0
FFC0
0000
0000
0000
0000
0000
ENDCHAR

STARTCHAR CAPITAL
ENCODING 203
SWIDTH 500 0
DWIDTH 12 0
BBX 12 24 0 -4
BITMAP
0000
0E70
0E70
0000
0000
1FF0
1FF0
1C00
3800
3800
3800
3FC0
7F80
7000
7000
7000
E000
FFC0
FFC0
0000
0000
0000
0000
0000
ENDCHAR

STARTCHAR CAPITAL
ENCODING 204
SWIDTH 500 0
DWIDTH 12 0
BBX 12 24 0 -4
BITMAP
0380
03C0
00E0
0000
0000
0FE0
0FE0
0380
0700
0700
0700
0700
0E00
0E00
0E00
0E00
1C00
7F00
7F00
0000
0000
0000
0000
0000
ENDCHAR

STARTCHAR CAPITAL
ENCODING 205
SWIDTH 500 0
DWIDTH 12 0
BBX 12 24 0 -4
BITMAP
00E0
01E0
0380
0000
0000
0FE0
0FE0
0380
0700
0700
0700
0700
0E00
0E00
0E00
0E00
1C00
7F00
7F00
0000
0000
0000
0000
0000
ENDCHAR

STARTCHAR CAPITAL
ENCODING 206
SWIDTH 500 0
DWIDTH 12 0
BBX 12 24 0 -4
BITMAP
01C0
03E0
0770
0000
0000
0FE0
0FE0
0380
0700
0700
0700
0700
0E00
0E00
0E00
0E00
1C00
7F00
7F00
0000
0000
0000
0000
0000
ENDCHAR

STARTCHAR CAPITAL
ENCODING 207
SWIDTH 500 0
DWIDTH 12 0
BBX 12 24 0 -4
BITMAP
0000
0770
0770
0000
0000
0FE0
0FE0
0380
0700
0700
0700
0700
0E00
0E00
0E00
0E00
1C00
7F00
7F00
0000
0000
0000
0000
0000
ENDCHAR

STARTCHAR CAPITAL
ENCODING 208
SWIDTH 500 0
DWIDTH 12 0
BBX 12 24 0 -4
BITMAP
0000
0000
0000
0000
0000
1FE0
1FF0
1C70
3870
3870
3870
7F70
7EE0
70E0
70E0
70E0
E3C0
FF80
FF00
0000
0000
0000
0000
0000
ENDCHAR

STARTCHAR CAPITAL
ENCODING 209
SWIDTH 500 0
DWIDTH 12 0
BBX 12 24 0 -4
BITMAP
0F10
1FB0
19F0
0000
0000
3870
3C70
3C70
7CE0
7CE0
7EE0
7EE0
EFC0
EFC0
E7C0
E7C0
C780
C780
C380
0000
0000
0000
0000
0000
ENDCHAR

STARTCHAR CAPITAL
ENCODING 210
SWIDTH 500 0
DWIDTH 12 0
BBX 12 24 0 -4
BITMAP
0380
03C0
00E0
0000
0000
0FC0
1FE0
3CF0
70E0
70E0
70E0
70E0
E1C0
E1C0
E1C0
E1C0
E780
FF00
7E00
0000
0000
0000
0000
0000
ENDCHAR

STARTCHAR CAPITAL
ENCODING 211
SWIDTH 500 0
DWIDTH 12 0
BBX 12 24 0 -4
BITMAP
01C0
03C0
0700
0000
0000
0FC0
1FE0
3CF0
70E0
70E0
70E0
70E0
E1C0
E1C0
E1C0
E1C0
E780
FF00
7E00
0000
0000
0000
0000
0000
ENDCHAR

STARTCHAR CAPITAL
ENCODING 212
SWIDTH 500 0
DWIDTH 12 0
BBX 12 24 0 -4
BITMAP
03C0
07E0
0E70
0000
0000
0FC0
1FE0
3CF0
70E0
70E0
70E0
70E0
E1C0
E1C0
E1C0
E1C0
E780
FF00
7E00
0000
0000
0000
0000
0000
ENDCHAR

STARTCHAR CAPITAL
ENCODING 213
SWIDTH 500 0
DWIDTH 12 0
BBX 12 24 0 -4
BITMAP
0F10
1FB0
19F0
0000
0000
0FC0
1FE0
3CF0
70E0
70E0
70E0
70E0
E1C0
E1C0
E1C0
E1C0
E780
FF00
7E00
0000
0000
0000
0000
0000
ENDCHAR

STARTCHAR CAPITAL
ENCODING 214
SWIDTH 500 0
DWIDTH 12 0
BBX 12 24 0 -4
BITMAP
0000
0E70
0E70
0000
0000
0FC0
1FE0
3CF0
70E0
70E0
70E0
70E0
E1C0
E1C0
E1C0
E1C0
E780
FF00
7E00
0000
0000
0000
0000
0000
ENDCHAR

STARTCHAR MULTIPLICATION
ENCODING 215
SWIDTH 500 0
DWIDTH 12 0
BBX 12 24 0 -4
BITMAP
0000
0000
0000
0000
0000
0000
0000
0000
70E0
79E0
3FC0
1F80
1E00
3F00
7F80
F3C0
C380
0000
0000
0000
0000
0000
0000
0000
ENDCHAR

STARTCHAR CAPITAL
ENCODING 216
SWIDTH 500 0
DWIDTH 12 0
BBX 12 24 0 -4
BITMAP
0000
0000
0000
0000
0000
0FF0
1FF0
3CF0
71E0
73E0
73E0
77E0
FDC0
F9C0
F9C0
F1C0
E780
FF00
FE00
0000
0000
0000
0000
0000
ENDCHAR

STARTCHAR CAPITAL
ENCODING 217
SWIDTH 500 0
DWIDTH 12 0
BBX 12 24 0 -4
BITMAP
0380
03C0
00E0
0000
0000
3870
3870
3870
70E0
70E0
70E0
70E0
E1C0
E1C0
E1C0
E1C0
E780
FF00
7E00
0000
0000
0000
0000
0000
ENDCHAR

STARTCHAR CAPITAL
ENCODING 218
SWIDTH 500 0
DWIDTH 12 0
BBX 12 24 0 -4
BITMAP
01C0
03C0
0700
0000
0000
3870
3870
3870
70E0
70E0
70E0
70E0
E1C0
E1C0
E1C0
E1C0
E780
FF00
7E00
0000
0000
0000
0000
0000
ENDCHAR

STARTCHAR CAPITAL
ENCODING 219
SWIDTH 500 0
DWIDTH 12 0
BBX 12 24 0 -4
BITMAP
03C0
07E0
0E70
0000
0000
3870
3870
3870
70E0
70E0
70E0
70E0
E1C0
E1C0
E1C0
E1C0
E780
FF00
7E00
0000
0000
0000
0000
0000
ENDCHAR

STARTCHAR CAPITAL
ENCODING 220
SWIDTH 500 0
DWIDTH 12 0
BBX 12 24 0 -4
BITMAP
0000
0E70
0E70
0000
0000
3870
3870
3870
70E0
70E0
70E0
70E0
E1C0
E1C0
E1C0
E1C0
E780
FF00
7E00
0000
0000
0000
0000
0000
ENDCHAR

STARTCHAR CAPITAL
ENCODING 221
SWIDTH 500 0
DWIDTH 12 0
BBX 12 24 0 -4
BITMAP
01C0
03C0
0700
0000
0000
7070
7070
38E0
71C0
3B80
3F80
1F00
1C00
1C00
1C00
1C00
3800
3800
3800
0000
0000
0000
0000
0000
ENDCHAR

STARTCHAR CAPITAL
ENCODING 222
SWIDTH 500 0
DWIDTH 12 0
BBX 12 24 0 -4
BITMAP
0000
0000
0000
0000
0000
1CE0
1DF0
1FB0
3E70
3C70
3870
3870
78E0
7CE0
7EE0
77C0
E700
E000
E000
C000
8000
0000
0000
0000
ENDCHAR

STARTCHAR SMALL
ENCODING 223
SWIDTH 500 0
DWIDTH 12 0
BBX 12 24 0 -4
BITMAP
0000
0000
0000
0000
0000
07E0
0FF0
1E70
3870
3870
38F0
3BE0
77E0
71E0
70E0
70E0
E3C0
EF80
EF00
0000
0000
0000
0000
0000
ENDCHAR

STARTCHAR SMALL
ENCODING 224
SWIDTH 500 0
DWIDTH 12 0
BBX 12 24 0 -4
BITMAP
0000
0000
0000
01C0
03C0
00E0
0000
0000
07C0
0FE0
1C70
0070
0FE0
3FE0
70E0
F1E0
E7C0
FFC0
7DC0
0000
0000
0000
0000
0000
ENDCHAR

STARTCHAR SMALL
ENCODING 225
SWIDTH 500 0
DWIDTH 12 0
BBX 12 24 0 -4
BITMAP
0000
0000
0000
0070
01E0
0380
0000
0000
07C0
0FE0
1C70
0070
0FE0
3FE0
70E0
F1E0
E7C0
FFC0
7DC0
0000
0000
0000
0000
0000
ENDCHAR

STARTCHAR SMALL
ENCODING 226
SWIDTH 500 0
DWIDTH 12 0
BBX 12 24 0 -4
BITMAP
0000
0000
0000
01E0
07E0
0E70
0000
0000
07C0
0FE0
1C70
0070
0FE0
3FE0
70E0
F1E0
E7C0
FFC0
7DC0
0000
0000
0000
0000
0000
ENDCHAR

STARTCHAR SMALL
ENCODING 227
SWIDTH 500 0
DWIDTH 12 0
BBX 12 24 0 -4
BITMAP
0000
0000
0000
0F10
3F70
33E0
0000
0000
07C0
0FE0
1C70
0070
0FE0
3FE0
70E0
F1E0
E7C0
FFC0
7DC0
0000
0000
0000
0000
0000
ENDCHAR

STARTCHAR SMALL
ENCODING 228
SWIDTH 500 0
DWIDTH 12 0
BBX 12 24 0 -4
BITMAP
0000
0000
0000
0000
0770
0770
0000
0000
07C0
0FE0
1C70
0070
0FE0
3FE0
70E0
F1E0
E7C0
FFC0
7DC0
0000
0000
0000
0000
0000
ENDCHAR

STARTCHAR SMALL
ENCODING 229
SWIDTH 500 0
DWIDTH 12 0
BBX 12 24 0 -4
BITMAP
0000
0000
0000
03C0
07E0
07E0
03C0
0000
07C0
0FE0
1C70
0070
0FE0
3FE0
70E0
F1E0
E7C0
FFC0
7DC0
0000
0000
0000
0000
0000
ENDCHAR

STARTCHAR SMALL
ENCODING 230
SWIDTH 500 0
DWIDTH 12 0
BBX 12 24 0 -4
BITMAP
0000
0000
0000
0000
0000
0000
0000
0000
3DE0
7FF0
6770
0770
3FE0
7FC0
EE00
EE00
DDC0
FFC0
FF80
0000
0000
0000
0000
0000
ENDCHAR

STARTCHAR SMALL
ENCODING 231
SWIDTH 500 0
DWIDTH 12 0
BBX 12 24 0 -4
BITMAP
0000
0000
0000
0000
0000
0000
0000
0000
0000
0FC0
3FC0
78E0
E1C0
E000
E000
E000
E380
FF80
7F00
3800
3C00
0E00
7E00
7C00
ENDCHAR

STARTCHAR SMALL
ENCODING 232
SWIDTH 500 0
DWIDTH 12 0
BBX 12 24 0 -4
BITMAP
0000
0000
0000
0000
0380
03C0
00E0
0000
0000
0FC0
1FE0
3C70
70E0
7FE0
FFE0
F000
E1C0
7FC0
3F80
0000
0000
0000
0000
0000
ENDCHAR

STARTCHAR SMALL
ENCODING 233
SWIDTH 500 0
DWIDTH 12 0
BBX 12 24 0 -4
BITMAP
0000
0000
0000
0000
01C0
03C0
0700
0000
0000
0FC0
1FE0
3C70
70E0
7FE0
FFE0
F000
E1C0
7FC0
3F80
0000
0000
0000
0000
0000
ENDCHAR

STARTCHAR SMALL
ENCODING 234
SWIDTH 500 0
DWIDTH 12 0
BBX 12 24 0 -4
BITMAP
0000
0000
0000
0000
03C0
07E0
0E70
0000
0000
0FC0
1FE0
3C70
70E0
7FE0
FFE0
F000
E1C0
7FC0
3F80
0000
0000
0000
0000
0000
ENDCHAR

STARTCHAR SMALL
ENCODING 235
SWIDTH 500 0
DWIDTH 12 0
BBX 12 24 0 -4
BITMAP
0000
0000
0000
0000
0000
0E70
0E70
0000
0000
0FC0
1FE0
3C70
70E0
7FE0
FFE0
F000
E1C0
7FC0
3F80
0000
0000
0000
0000
0000
ENDCHAR

STARTCHAR SMALL
ENCODING 236
SWIDTH 500 0
DWIDTH 12 0
BBX 12 24 0 -4
BITMAP
0000
0000
0000
0000
0700
0780
01C0
0000
0000
0700
0700
0700
0E00
0E00
0E00
0E00
1C00
1C00
1C00
0000
0000
0000
0000
0000
ENDCHAR

STARTCHAR SMALL
ENCODING 237
SWIDTH 500 0
DWIDTH 12 0
BBX 12 24 0 -4
BITMAP
0000
0000
0000
0000
01C0
03C0
0700
0000
0000
0700
0700
0700
0E00
0E00
0E00
0E00
1C00
1C00
1C00
0000
0000
0000
0000
0000
ENDCHAR

STARTCHAR SMALL
ENCODING 238
SWIDTH 500 0
DWIDTH 12 0
BBX 12 24 0 -4
BITMAP
0000
0000
0000
0000
0380
07C0
0EE0
0000
0000
0700
0700
0700
0E00
0E00
0E00
0E00
1C00
1C00
1C00
0000
0000
0000
0000
0000
ENDCHAR

STARTCHAR SMALL
ENCODING 239
SWIDTH 500 0
DWIDTH 12 0
BBX 12 24 0 -4
BITMAP
0000
0000
0000
0000
0000
0EE0
0EE0
0000
0000
0700
0700
0700
0E00
0E00
0E00
0E00
1C00
1C00
1C00
0000
0000
0000
0000
0000
ENDCHAR

STARTCHAR SMALL
ENCODING 240
SWIDTH 500 0
DWIDTH 12 0
BBX 12 24 0 -4
BITMAP
0000
0000
0000
0000
0000
1EF0
1FF0
03C0
1FC0
7DE0
70E0
1FE0
7FC0
F1C0
E1C0
E1C0
E780
FF00
7E00
0000
0000
0000
0000
0000
ENDCHAR

STARTCHAR SMALL
ENCODING 241
SWIDTH 500 0
DWIDTH 12 0
BBX 12 24 0 -4
BITMAP
0000
0000
0000
0000
1E30
3F70
33E0
0000
0000
3BC0
3FE0
3E70
78E0
70E0
70E0
70E0
E1C0
E1C0
E1C0
0000
0000
0000
0000
0000
ENDCHAR

STARTCHAR SMALL
ENCODING 242
SWIDTH 500 0
DWIDTH 12 0
BBX 12 24 0 -4
BITMAP
0000
0000
0000
0000
0380
03C0
00E0
0000
0000
0FC0
1FE0
3CF0
70E0
70E0
70E0
70E0
73C0
7F80
3F00
0000
0000
0000
0000
0000
ENDCHAR

STARTCHAR SMALL
ENCODING 243
SWIDTH 500 0
DWIDTH 12 0
BBX 12 24 0 -4
BITMAP
0000
0000
0000
0000
01C0
03C0
0700
0000
0000
0FC0
1FE0
3CF0
70E0
70E0
70E0
70E0
73C0
7F80
3F00
0000
0000
0000
0000
0000
ENDCHAR

STARTCHAR SMALL
ENCODING 244
SWIDTH 500 0
DWIDTH 12 0
BBX 12 24 0 -4
BITMAP
0000
0000
0000
0000
03C0
07E0
0E70
0000
0000
0FC0
1FE0
3CF0
70E0
70E0
70E0
70E0
73C0
7F80
3F00
0000
0000
0000
0000
0000
ENDCHAR

STARTCHAR SMALL
ENCODING 245
SWIDTH 500 0
DWIDTH 12 0
BBX 12 24 0 -4
BITMAP
0000
0000
0000
0000
1E30
3F70
33E0
0000
0000
0FC0
1FE0
3CF0
70E0
70E0
70E0
70E0
73C0
7F80
3F00
0000
0000
0000
0000
0000
ENDCHAR

STARTCHAR SMALL
ENCODING 246
SWIDTH 500 0
DWIDTH 12 0
BBX 12 24 0 -4
BITMAP
0000
0000
0000
0000
0000
0E70
0E70
0000
0000
0FC0
1FE0
3CF0
70E0
70E0
70E0
70E0
73C0
7F80
3F00
0000
0000
0000
0000
0000
ENDCHAR

STARTCHAR DIVISION
ENCODING 247
SWIDTH 500 0
DWIDTH 12 0
BBX 12 24 0 -4
BITMAP
0000
0000
0000
0000
0000
0000
0000
0380
0F80
0700
0000
7FF0
FFE0
0000
0E00
1F00
1C00
0000
0000
0000
0000
0000
0000
0000
ENDCHAR

STARTCHAR SMALL
ENCODING 248
SWIDTH 500 0
DWIDTH 12 0
BBX 12 24 0 -4
BITMAP
0000
0000
0000
0000
0000
0000
0000
0000
0000
1FE0
3FE0
7BC0
EFC0
EFC0
FFC0
FDC0
F780
FF00
FE00
0000
0000
0000
0000
0000
ENDCHAR

STARTCHAR SMALL
ENCODING 249
SWIDTH 500 0
DWIDTH 12 0
BBX 12 24 0 -4
BITMAP
0000
0000
0000
0000
0380
03C0
00E0
0000
0000
3870
3870
3870
70E0
70E0
70E0
71E0
77C0
7FC0
3DC0
0000
0000
0000
0000
0000
ENDCHAR

STARTCHAR SMALL
ENCODING 250
SWIDTH 500 0
DWIDTH 12 0
BBX 12 24 0 -4
BITMAP
0000
0000
0000
0000
01C0
03C0
0700
0000
0000
3870
3870
3870
70E0
70E0
70E0
71E0
77C0
7FC0
3DC0
0000
0000
0000
0000
0000
ENDCHAR

STARTCHAR SMALL
ENCODING 251
SWIDTH 500 0
DWIDTH 12 0
BBX 12 24 0 -4
BITMAP
0000
0000
0000
0000
03C0
07E0
0E70
0000
0000
3870
3870
3870
70E0
70E0
70E0
71E0
77C0
7FC0
3DC0
0000
0000
0000
0000
0000
ENDCHAR

STARTCHAR SMALL
ENCODING 252
SWIDTH 500 0
DWIDTH 12 0
BBX 12 24 0 -4
BITMAP
0000
0000
0000
0000
0000
0E70
0E70
0000
0000
3870
3870
3870
70E0
70E0
70E0
71E0
77C0
7FC0
3DC0
0000
0000
0000
0000
0000
ENDCHAR

STARTCHAR SMALL
ENCODING 253
SWIDTH 500 0
DWIDTH 12 0
BBX 12 24 0 -4
BITMAP
0000
0000
0000
0000
00E0
01E0
0380
0000
0000
3870
3870
3870
70E0
70E0
70E0
70E0
73C0
7FC0
3FC0
01C0
0380
0780
FF00
7E00
ENDCHAR

STARTCHAR SMALL
ENCODING 254
SWIDTH 500 0
DWIDTH 12 0
BBX 12 24 0 -4
BITMAP
0000
0000
0000
0000
0000
0E00
0E00
0E00
1C00
1DE0
1FF0
1F70
3C70
3870
3870
38F0
73C0
7F80
7F00
7000
E000
E000
E000
E000
ENDCHAR

STARTCHAR SMALL
ENCODING 255
SWIDTH 500 0
DWIDTH 12 0
BBX 12 24 0 -4
BITMAP
0000
0000
0000
0000
0000
0E70
0E70
0000
0000
3870
3870
3870
70E0
70E0
70E0
70E0
73C0
7FC0
3FC0
01C0
03C0
0780
FF00
7E00
ENDCHAR

ENDFONT
