STARTFONT 2.1
FONT -Monotype-Plantin-Bold-I-Normal--12-120-75-75-P-81-iso8859-5
SIZE 12 75 75
FONTBOUNDINGBOX 20 15 -3 -3

STARTPROPERTIES 24
FOUNDRY "Monotype"
FAMILY_NAME "Plantin"
WEIGHT_NAME "Bold"
SLANT "I"
SETWIDTH_NAME "Normal"
ADD_STYLE_NAME ""
PIXEL_SIZE 12
POINT_SIZE 120
RESOLUTION_X 75
RESOLUTION_Y 75
SPACING "P"
AVERAGE_WIDTH 81
CHARSET_REGISTRY "iso8859"
CHARSET_ENCODING "5"
FACE_NAME "Plantin Bold Inclined ISO Latin Cyrillic"
_DEC_DEVICE_FONTNAMES "PS=plantin-bin-latcyrillic"
COPYRIGHT "Copyright (c) 1994 Monotype Typography Ltd."
CAP_HEIGHT 10
X_HEIGHT 6
WEIGHT 10
QUAD_WIDTH 10
DEFAULT_CHAR 160
FONT_DESCENT 3
FONT_ASCENT 12
ENDPROPERTIES

CHARS 191

STARTCHAR space
ENCODING 32
SWIDTH 250 0
DWIDTH 3 0
BBX 0 0 0 0
BITMAP
ENDCHAR

STARTCHAR exclam
ENCODING 33
SWIDTH 365 0
DWIDTH 5 0
BBX 4 9 1 0
BITMAP
30
30
20
60
60
40
00
C0
C0
ENDCHAR

STARTCHAR quotedbl
ENCODING 34
SWIDTH 552 0
DWIDTH 7 0
BBX 5 4 2 5
BITMAP
D8
D8
90
90
ENDCHAR

STARTCHAR numbersign
ENCODING 35
SWIDTH 500 0
DWIDTH 7 0
BBX 7 10 0 -1
BITMAP
14
14
14
7E
28
28
FC
50
50
50
ENDCHAR

STARTCHAR dollar
ENCODING 36
SWIDTH 542 0
DWIDTH 7 0
BBX 7 10 0 -1
BITMAP
08
1C
2A
28
18
1C
94
D4
78
10
ENDCHAR

STARTCHAR percent
ENCODING 37
SWIDTH 833 0
DWIDTH 11 0
BBX 11 9 0 0
BITMAP
3080
5900
DA00
D200
64C0
0960
1360
1340
2180
ENDCHAR

STARTCHAR ampersand
ENCODING 38
SWIDTH 958 0
DWIDTH 12 0
BBX 12 9 1 0
BITMAP
1E00
3300
3020
3B10
64D0
C2E0
C080
6100
3E00
ENDCHAR

STARTCHAR quoteright
ENCODING 39
SWIDTH 365 0
DWIDTH 5 0
BBX 3 3 1 6
BITMAP
60
60
C0
ENDCHAR

STARTCHAR parenleft
ENCODING 40
SWIDTH 437 0
DWIDTH 6 0
BBX 6 12 1 -3
BITMAP
0C
10
30
60
60
C0
C0
C0
C0
C0
40
20
ENDCHAR

STARTCHAR parenright
ENCODING 41
SWIDTH 437 0
DWIDTH 6 0
BBX 6 12 0 -3
BITMAP
10
08
0C
0C
0C
0C
0C
18
18
30
20
C0
ENDCHAR

STARTCHAR asterisk
ENCODING 42
SWIDTH 510 0
DWIDTH 7 0
BBX 5 6 1 3
BITMAP
20
A8
70
70
A8
20
ENDCHAR

STARTCHAR plus
ENCODING 43
SWIDTH 667 0
DWIDTH 9 0
BBX 7 7 1 1
BITMAP
10
10
10
FE
10
10
10
ENDCHAR

STARTCHAR comma
ENCODING 44
SWIDTH 365 0
DWIDTH 5 0
BBX 3 4 1 -2
BITMAP
60
60
40
80
ENDCHAR

STARTCHAR minus
ENCODING 45
SWIDTH 667 0
DWIDTH 9 0
BBX 7 1 1 4
BITMAP
FE
ENDCHAR

STARTCHAR period
ENCODING 46
SWIDTH 292 0
DWIDTH 4 0
BBX 2 2 1 0
BITMAP
C0
C0
ENDCHAR

STARTCHAR slash
ENCODING 47
SWIDTH 281 0
DWIDTH 4 0
BBX 6 9 -1 0
BITMAP
04
04
08
10
10
20
40
40
80
ENDCHAR

STARTCHAR zero
ENCODING 48
SWIDTH 542 0
DWIDTH 7 0
BBX 7 9 0 0
BITMAP
1C
26
66
C6
C6
C6
CC
C8
70
ENDCHAR

STARTCHAR one
ENCODING 49
SWIDTH 542 0
DWIDTH 7 0
BBX 5 9 1 0
BITMAP
08
38
18
30
30
30
60
60
F0
ENDCHAR

STARTCHAR two
ENCODING 50
SWIDTH 542 0
DWIDTH 7 0
BBX 7 9 0 0
BITMAP
3C
46
06
06
0C
18
20
44
F8
ENDCHAR

STARTCHAR three
ENCODING 51
SWIDTH 542 0
DWIDTH 7 0
BBX 8 9 -1 0
BITMAP
0E
13
03
06
1C
06
06
84
78
ENDCHAR

STARTCHAR four
ENCODING 52
SWIDTH 542 0
DWIDTH 7 0
BBX 7 9 0 0
BITMAP
06
0E
16
2C
4C
FE
FE
18
18
ENDCHAR

STARTCHAR five
ENCODING 53
SWIDTH 542 0
DWIDTH 7 0
BBX 7 9 0 0
BITMAP
1E
3C
20
38
0C
0C
0C
98
70
ENDCHAR

STARTCHAR six
ENCODING 54
SWIDTH 542 0
DWIDTH 7 0
BBX 7 9 1 0
BITMAP
1E
30
60
78
CC
CC
CC
48
30
ENDCHAR

STARTCHAR seven
ENCODING 55
SWIDTH 542 0
DWIDTH 7 0
BBX 6 9 1 0
BITMAP
7C
FC
98
10
30
30
20
60
40
ENDCHAR

STARTCHAR eight
ENCODING 56
SWIDTH 542 0
DWIDTH 7 0
BBX 7 9 0 0
BITMAP
0C
12
32
34
38
5C
8C
88
70
ENDCHAR

STARTCHAR nine
ENCODING 57
SWIDTH 542 0
DWIDTH 7 0
BBX 7 9 0 0
BITMAP
18
24
66
66
66
3C
0C
18
F0
ENDCHAR

STARTCHAR colon
ENCODING 58
SWIDTH 365 0
DWIDTH 5 0
BBX 3 6 1 0
BITMAP
60
60
00
00
C0
C0
ENDCHAR

STARTCHAR semicolon
ENCODING 59
SWIDTH 365 0
DWIDTH 5 0
BBX 4 8 0 -2
BITMAP
30
30
00
00
60
60
40
80
ENDCHAR

STARTCHAR less
ENCODING 60
SWIDTH 667 0
DWIDTH 9 0
BBX 7 7 1 1
BITMAP
02
0E
38
E0
38
0E
02
ENDCHAR

STARTCHAR equal
ENCODING 61
SWIDTH 667 0
DWIDTH 9 0
BBX 7 3 1 3
BITMAP
FE
00
FE
ENDCHAR

STARTCHAR greater
ENCODING 62
SWIDTH 667 0
DWIDTH 9 0
BBX 7 7 1 1
BITMAP
80
E0
38
0E
38
E0
80
ENDCHAR

STARTCHAR question
ENCODING 63
SWIDTH 510 0
DWIDTH 7 0
BBX 6 9 1 0
BITMAP
38
6C
04
0C
38
60
00
C0
C0
ENDCHAR

STARTCHAR at
ENCODING 64
SWIDTH 833 0
DWIDTH 11 0
BBX 11 12 0 -3
BITMAP
0F00
30C0
4040
47A0
99A0
9B20
B320
B640
5BA0
4020
30C0
0F00
ENDCHAR

STARTCHAR A
ENCODING 65
SWIDTH 708 0
DWIDTH 9 0
BBX 10 9 -1 0
BITMAP
0080
0180
0380
0580
0980
1F80
2180
4180
E3C0
ENDCHAR

STARTCHAR B
ENCODING 66
SWIDTH 750 0
DWIDTH 10 0
BBX 9 9 1 0
BITMAP
7F00
3180
3180
3300
3E00
6300
6300
6600
FC00
ENDCHAR

STARTCHAR C
ENCODING 67
SWIDTH 750 0
DWIDTH 10 0
BBX 9 9 1 0
BITMAP
0F80
3180
6100
C000
C000
C000
C100
4300
3E00
ENDCHAR

STARTCHAR D
ENCODING 68
SWIDTH 802 0
DWIDTH 10 0
BBX 9 9 1 0
BITMAP
7E00
3300
3180
3180
3180
6180
6180
6300
FC00
ENDCHAR

STARTCHAR E
ENCODING 69
SWIDTH 740 0
DWIDTH 10 0
BBX 9 9 1 0
BITMAP
7F80
3180
3100
3000
3E00
6000
6100
6300
FE00
ENDCHAR

STARTCHAR F
ENCODING 70
SWIDTH 667 0
DWIDTH 9 0
BBX 8 9 1 0
BITMAP
7F
33
32
30
3C
60
60
60
F0
ENDCHAR

STARTCHAR G
ENCODING 71
SWIDTH 833 0
DWIDTH 11 0
BBX 10 9 1 0
BITMAP
0FC0
30C0
6080
C000
C3C0
C180
C180
6300
3C00
ENDCHAR

STARTCHAR H
ENCODING 72
SWIDTH 844 0
DWIDTH 11 0
BBX 10 9 1 0
BITMAP
7BC0
3180
3180
3180
3F80
6300
6300
6300
F780
ENDCHAR

STARTCHAR I
ENCODING 73
SWIDTH 417 0
DWIDTH 5 0
BBX 5 9 1 0
BITMAP
78
30
30
30
30
60
60
60
F0
ENDCHAR

STARTCHAR J
ENCODING 74
SWIDTH 396 0
DWIDTH 5 0
BBX 9 12 -3 -3
BITMAP
0780
0300
0300
0300
0600
0600
0600
0600
0C00
0C00
D800
7000
ENDCHAR

STARTCHAR K
ENCODING 75
SWIDTH 740 0
DWIDTH 10 0
BBX 11 9 0 0
BITMAP
79E0
30C0
3100
3200
3E00
6700
6300
6380
F1C0
ENDCHAR

STARTCHAR L
ENCODING 76
SWIDTH 667 0
DWIDTH 9 0
BBX 8 9 1 0
BITMAP
78
30
30
30
30
60
61
63
FE
ENDCHAR

STARTCHAR M
ENCODING 77
SWIDTH 979 0
DWIDTH 13 0
BBX 13 9 0 0
BITMAP
3878
1870
18B0
2CB0
2D30
2E60
4E60
4460
E4F0
ENDCHAR

STARTCHAR N
ENCODING 78
SWIDTH 812 0
DWIDTH 11 0
BBX 10 9 1 0
BITMAP
71C0
3080
3880
3880
2D00
4D00
4700
4700
E300
ENDCHAR

STARTCHAR O
ENCODING 79
SWIDTH 854 0
DWIDTH 11 0
BBX 10 9 1 0
BITMAP
0F00
3180
60C0
C0C0
C0C0
C0C0
C180
6300
3C00
ENDCHAR

STARTCHAR P
ENCODING 80
SWIDTH 677 0
DWIDTH 9 0
BBX 9 9 1 0
BITMAP
7F00
3180
3180
3180
3600
6000
6000
6000
F000
ENDCHAR

STARTCHAR Q
ENCODING 81
SWIDTH 854 0
DWIDTH 11 0
BBX 10 12 1 -3
BITMAP
0F80
31C0
60C0
C0C0
C0C0
C0C0
C180
6300
3C00
1800
0E00
0380
ENDCHAR

STARTCHAR R
ENCODING 82
SWIDTH 781 0
DWIDTH 10 0
BBX 9 9 1 0
BITMAP
7F00
3180
3180
3300
3E00
6600
6600
6300
F380
ENDCHAR

STARTCHAR S
ENCODING 83
SWIDTH 625 0
DWIDTH 8 0
BBX 7 9 1 0
BITMAP
3E
66
64
70
38
1C
8C
CC
78
ENDCHAR

STARTCHAR T
ENCODING 84
SWIDTH 729 0
DWIDTH 9 0
BBX 10 9 1 0
BITMAP
7FC0
CC80
0C00
0C00
0C00
1800
1800
1800
3C00
ENDCHAR

STARTCHAR U
ENCODING 85
SWIDTH 792 0
DWIDTH 10 0
BBX 10 9 1 0
BITMAP
F1C0
6080
6080
6100
C100
C200
C200
C400
7800
ENDCHAR

STARTCHAR V
ENCODING 86
SWIDTH 719 0
DWIDTH 9 0
BBX 9 9 1 0
BITMAP
F380
6100
6200
6400
6400
6800
7000
7000
6000
ENDCHAR

STARTCHAR W
ENCODING 87
SWIDTH 969 0
DWIDTH 13 0
BBX 13 9 1 0
BITMAP
F7B8
6310
6720
6720
6B40
6B40
7380
7380
6300
ENDCHAR

STARTCHAR X
ENCODING 88
SWIDTH 771 0
DWIDTH 10 0
BBX 11 9 0 0
BITMAP
3DE0
1880
0D00
0E00
0600
0B00
1300
2180
F3C0
ENDCHAR

STARTCHAR Y
ENCODING 89
SWIDTH 677 0
DWIDTH 9 0
BBX 9 9 1 0
BITMAP
F380
6100
6200
3400
3800
3000
3000
3000
7800
ENDCHAR

STARTCHAR Z
ENCODING 90
SWIDTH 687 0
DWIDTH 9 0
BBX 10 9 0 0
BITMAP
1FC0
2180
0300
0600
0C00
1800
3000
6080
FF00
ENDCHAR

STARTCHAR bracketleft
ENCODING 91
SWIDTH 385 0
DWIDTH 5 0
BBX 7 12 0 -3
BITMAP
1E
18
18
30
30
30
60
60
60
C0
C0
F0
ENDCHAR

STARTCHAR backslash
ENCODING 92
SWIDTH 281 0
DWIDTH 4 0
BBX 3 9 1 0
BITMAP
80
80
C0
C0
40
60
60
20
20
ENDCHAR

STARTCHAR bracketright
ENCODING 93
SWIDTH 385 0
DWIDTH 5 0
BBX 7 12 -2 -3
BITMAP
1E
06
06
0C
0C
0C
18
18
18
30
30
F0
ENDCHAR

STARTCHAR asciicircum
ENCODING 94
SWIDTH 573 0
DWIDTH 7 0
BBX 6 5 1 4
BITMAP
20
30
70
48
CC
ENDCHAR

STARTCHAR underscore
ENCODING 95
SWIDTH 500 0
DWIDTH 7 0
BBX 7 1 0 -3
BITMAP
FE
ENDCHAR

STARTCHAR quoteleft
ENCODING 96
SWIDTH 365 0
DWIDTH 5 0
BBX 3 3 2 6
BITMAP
60
C0
C0
ENDCHAR

STARTCHAR a
ENCODING 97
SWIDTH 594 0
DWIDTH 8 0
BBX 8 6 1 0
BITMAP
3B
66
C6
CC
DD
6E
ENDCHAR

STARTCHAR b
ENCODING 98
SWIDTH 615 0
DWIDTH 8 0
BBX 7 9 1 0
BITMAP
10
70
30
6C
76
66
C6
CC
78
ENDCHAR

STARTCHAR c
ENCODING 99
SWIDTH 500 0
DWIDTH 7 0
BBX 6 6 1 0
BITMAP
3C
64
C0
C0
C8
70
ENDCHAR

STARTCHAR d
ENCODING 100
SWIDTH 625 0
DWIDTH 8 0
BBX 8 9 1 0
BITMAP
01
07
03
36
4E
C6
CC
CC
76
ENDCHAR

STARTCHAR e
ENCODING 101
SWIDTH 510 0
DWIDTH 7 0
BBX 6 6 1 0
BITMAP
18
2C
68
F0
C4
78
ENDCHAR

STARTCHAR f
ENCODING 102
SWIDTH 333 0
DWIDTH 4 0
BBX 9 12 -2 -3
BITMAP
0380
0680
0C00
1E00
0C00
0C00
1800
1800
1800
3000
A000
C000
ENDCHAR

STARTCHAR g
ENCODING 103
SWIDTH 594 0
DWIDTH 8 0
BBX 9 9 -1 -3
BITMAP
1E80
3300
3300
3300
1E00
3800
7E00
C300
7E00
ENDCHAR

STARTCHAR h
ENCODING 104
SWIDTH 625 0
DWIDTH 8 0
BBX 7 9 1 0
BITMAP
10
70
30
6C
76
66
CC
CC
C6
ENDCHAR

STARTCHAR i
ENCODING 105
SWIDTH 333 0
DWIDTH 4 0
BBX 5 9 0 0
BITMAP
18
18
00
60
B0
30
60
68
30
ENDCHAR

STARTCHAR j
ENCODING 106
SWIDTH 323 0
DWIDTH 4 0
BBX 7 12 -2 -3
BITMAP
06
06
00
18
2C
0C
0C
18
18
18
B0
60
ENDCHAR

STARTCHAR k
ENCODING 107
SWIDTH 625 0
DWIDTH 8 0
BBX 7 9 1 0
BITMAP
10
70
30
7C
66
6C
F0
DA
CC
ENDCHAR

STARTCHAR l
ENCODING 108
SWIDTH 302 0
DWIDTH 4 0
BBX 4 9 0 0
BITMAP
10
70
30
60
60
60
C0
D0
60
ENDCHAR

STARTCHAR m
ENCODING 109
SWIDTH 1000 0
DWIDTH 13 0
BBX 13 6 0 0
BITMAP
6EE0
B3B0
3330
3360
6668
6670
ENDCHAR

STARTCHAR n
ENCODING 110
SWIDTH 635 0
DWIDTH 8 0
BBX 9 6 0 0
BITMAP
7600
BB00
3300
3600
6680
6700
ENDCHAR

STARTCHAR o
ENCODING 111
SWIDTH 573 0
DWIDTH 7 0
BBX 7 6 0 0
BITMAP
3C
66
C6
C6
CC
78
ENDCHAR

STARTCHAR p
ENCODING 112
SWIDTH 615 0
DWIDTH 8 0
BBX 9 10 -1 -3
BITMAP
1800
3F00
5980
1980
3180
3300
3C00
6000
6000
F000
ENDCHAR

STARTCHAR q
ENCODING 113
SWIDTH 594 0
DWIDTH 8 0
BBX 7 9 1 -3
BITMAP
1A
66
C6
CC
CC
7C
18
18
3C
ENDCHAR

STARTCHAR r
ENCODING 114
SWIDTH 479 0
DWIDTH 6 0
BBX 7 6 0 0
BITMAP
6E
BA
30
30
60
60
ENDCHAR

STARTCHAR s
ENCODING 115
SWIDTH 490 0
DWIDTH 6 0
BBX 6 6 0 0
BITMAP
3C
64
70
38
98
F0
ENDCHAR

STARTCHAR t
ENCODING 116
SWIDTH 365 0
DWIDTH 5 0
BBX 5 8 1 0
BITMAP
10
30
F8
60
60
C0
D0
60
ENDCHAR

STARTCHAR u
ENCODING 117
SWIDTH 635 0
DWIDTH 8 0
BBX 9 6 0 0
BITMAP
6300
B300
3300
6600
6E80
3B00
ENDCHAR

STARTCHAR v
ENCODING 118
SWIDTH 573 0
DWIDTH 7 0
BBX 8 6 -1 0
BITMAP
7A
9B
31
31
32
1C
ENDCHAR

STARTCHAR w
ENCODING 119
SWIDTH 854 0
DWIDTH 11 0
BBX 12 6 -1 0
BITMAP
7A20
9B30
3110
3310
37A0
1CC0
ENDCHAR

STARTCHAR x
ENCODING 120
SWIDTH 615 0
DWIDTH 8 0
BBX 8 6 0 0
BITMAP
33
55
18
18
AA
CC
ENDCHAR

STARTCHAR y
ENCODING 121
SWIDTH 552 0
DWIDTH 7 0
BBX 8 9 -1 -3
BITMAP
32
59
19
1A
0C
0C
08
D0
60
ENDCHAR

STARTCHAR z
ENCODING 122
SWIDTH 500 0
DWIDTH 7 0
BBX 7 6 0 0
BITMAP
3A
4C
18
30
64
B8
ENDCHAR

STARTCHAR braceleft
ENCODING 123
SWIDTH 396 0
DWIDTH 5 0
BBX 5 12 1 -3
BITMAP
18
30
60
60
20
C0
60
60
C0
C0
C0
60
ENDCHAR

STARTCHAR bar
ENCODING 124
SWIDTH 219 0
DWIDTH 3 0
BBX 1 12 1 -3
BITMAP
80
80
80
80
80
80
80
80
80
80
80
80
ENDCHAR

STARTCHAR braceright
ENCODING 125
SWIDTH 396 0
DWIDTH 5 0
BBX 5 12 0 -3
BITMAP
30
18
18
18
30
30
18
20
30
30
60
C0
ENDCHAR

STARTCHAR asciitilde
ENCODING 126
SWIDTH 573 0
DWIDTH 7 0
BBX 6 2 1 3
BITMAP
74
B8
ENDCHAR

STARTCHAR space
ENCODING 160
SWIDTH 250 0
DWIDTH 4 0
BBX 0 0 0 0
BITMAP
ENDCHAR

STARTCHAR afii10023
ENCODING 161
SWIDTH 740 0
DWIDTH 10 0
BBX 9 12 1 0
BITMAP
1980
1980
0000
7F80
3180
3100
3000
3E00
6000
6100
6300
FE00
ENDCHAR

STARTCHAR afii10051
ENCODING 162
SWIDTH 865 0
DWIDTH 11 0
BBX 11 9 0 0
BITMAP
7FC0
CC80
0C00
0DC0
0E60
1860
1860
1940
3D80
ENDCHAR

STARTCHAR afii10052
ENCODING 163
SWIDTH 656 0
DWIDTH 9 0
BBX 9 12 1 0
BITMAP
0600
0C00
0000
7F80
3180
3100
3000
3000
6000
6000
6000
F000
ENDCHAR

STARTCHAR afii10053
ENCODING 164
SWIDTH 771 0
DWIDTH 10 0
BBX 10 9 1 0
BITMAP
0F80
30C0
6040
C000
FE00
C000
C080
6300
1C00
ENDCHAR

STARTCHAR afii10054
ENCODING 165
SWIDTH 625 0
DWIDTH 8 0
BBX 7 9 1 0
BITMAP
3E
66
64
70
38
1C
8C
CC
78
ENDCHAR

STARTCHAR afii10055
ENCODING 166
SWIDTH 417 0
DWIDTH 5 0
BBX 5 9 1 0
BITMAP
78
30
30
30
30
60
60
60
F0
ENDCHAR

STARTCHAR afii10056
ENCODING 167
SWIDTH 417 0
DWIDTH 5 0
BBX 6 12 1 0
BITMAP
CC
CC
00
78
30
30
30
30
60
60
60
F0
ENDCHAR

STARTCHAR afii10057
ENCODING 168
SWIDTH 396 0
DWIDTH 5 0
BBX 9 12 -3 -3
BITMAP
0780
0300
0300
0300
0600
0600
0600
0600
0C00
0C00
D800
7000
ENDCHAR

STARTCHAR afii10058
ENCODING 169
SWIDTH 1099 0
DWIDTH 14 0
BBX 14 9 0 0
BITMAP
0FE0
04C0
04C0
08C0
08F8
098C
118C
D198
63F0
ENDCHAR

STARTCHAR afii10059
ENCODING 170
SWIDTH 1125 0
DWIDTH 14 0
BBX 13 9 1 0
BITMAP
7BC0
3180
3180
3180
3FF0
6318
6318
6330
F7E0
ENDCHAR

STARTCHAR afii10060
ENCODING 171
SWIDTH 906 0
DWIDTH 11 0
BBX 10 9 0 0
BITMAP
7FC0
CC80
0C00
0F80
0CC0
18C0
1980
1980
3DC0
ENDCHAR

STARTCHAR afii10061
ENCODING 172
SWIDTH 723 0
DWIDTH 9 0
BBX 10 12 1 0
BITMAP
0300
0600
0000
78C0
3140
3200
3400
3C00
6600
6600
6300
F380
ENDCHAR

STARTCHAR hyphen
ENCODING 173
SWIDTH 458 0
DWIDTH 6 0
BBX 4 1 1 3
BITMAP
F0
ENDCHAR

STARTCHAR afii10062
ENCODING 174
SWIDTH 719 0
DWIDTH 9 0
BBX 10 12 0 0
BITMAP
0880
0700
0000
79C0
3080
3100
1900
1A00
1C00
0C00
D800
7000
ENDCHAR

STARTCHAR afii10145
ENCODING 175
SWIDTH 844 0
DWIDTH 11 0
BBX 10 11 1 -2
BITMAP
7BC0
3180
3180
3180
3180
6300
6300
6300
FF80
1800
1800
ENDCHAR

STARTCHAR afii10017
ENCODING 176
SWIDTH 708 0
DWIDTH 9 0
BBX 10 9 -1 0
BITMAP
0080
0180
0380
0580
0980
1F80
2180
4180
E3C0
ENDCHAR

STARTCHAR afii10018
ENCODING 177
SWIDTH 729 0
DWIDTH 9 0
BBX 9 9 1 0
BITMAP
7F80
3180
3100
3000
3E00
6300
6300
6600
FC00
ENDCHAR

STARTCHAR afii10019
ENCODING 178
SWIDTH 750 0
DWIDTH 10 0
BBX 9 9 1 0
BITMAP
7F00
3180
3180
3300
3E00
6300
6300
6600
FC00
ENDCHAR

STARTCHAR afii10020
ENCODING 179
SWIDTH 633 0
DWIDTH 9 0
BBX 9 9 1 0
BITMAP
7F80
3180
3100
3000
3000
6000
6000
6000
F000
ENDCHAR

STARTCHAR afii10021
ENCODING 180
SWIDTH 719 0
DWIDTH 9 0
BBX 11 11 -1 -2
BITMAP
1FE0
08C0
08C0
10C0
10C0
1180
2180
2180
7F80
C0C0
8040
ENDCHAR

STARTCHAR afii10022
ENCODING 181
SWIDTH 740 0
DWIDTH 10 0
BBX 9 9 1 0
BITMAP
7F80
3180
3100
3000
3E00
6000
6100
6300
FE00
ENDCHAR

STARTCHAR afii10024
ENCODING 182
SWIDTH 915 0
DWIDTH 12 0
BBX 15 9 -2 0
BITMAP
19E6
14CA
04D0
0590
0FE0
0DB0
19B0
3318
E79E
ENDCHAR

STARTCHAR afii10025
ENCODING 183
SWIDTH 656 0
DWIDTH 8 0
BBX 8 9 0 0
BITMAP
1E
33
03
02
1C
06
06
CC
78
ENDCHAR

STARTCHAR afii10026
ENCODING 184
SWIDTH 844 0
DWIDTH 11 0
BBX 10 9 1 0
BITMAP
7BC0
3180
3380
3580
3980
7300
6300
6300
F780
ENDCHAR

STARTCHAR afii10027
ENCODING 185
SWIDTH 844 0
DWIDTH 11 0
BBX 10 12 1 0
BITMAP
1100
0E00
0000
7BC0
3180
3380
3580
3980
7300
6300
6300
F780
ENDCHAR

STARTCHAR afii10028
ENCODING 186
SWIDTH 723 0
DWIDTH 9 0
BBX 10 9 1 0
BITMAP
78C0
3140
3200
3400
3C00
6600
6600
6300
F380
ENDCHAR

STARTCHAR afii10029
ENCODING 187
SWIDTH 835 0
DWIDTH 11 0
BBX 11 9 0 0
BITMAP
0FE0
04C0
04C0
08C0
08C0
0980
1180
D180
63C0
ENDCHAR

STARTCHAR afii10030
ENCODING 188
SWIDTH 979 0
DWIDTH 13 0
BBX 13 9 0 0
BITMAP
3878
1870
18B0
2CB0
2D30
2E60
4E60
4460
E4F0
ENDCHAR

STARTCHAR afii10031
ENCODING 189
SWIDTH 844 0
DWIDTH 11 0
BBX 10 9 1 0
BITMAP
7BC0
3180
3180
3180
3F80
6300
6300
6300
F780
ENDCHAR

STARTCHAR afii10032
ENCODING 190
SWIDTH 854 0
DWIDTH 11 0
BBX 10 9 1 0
BITMAP
0F00
3180
60C0
C0C0
C0C0
C0C0
C180
6300
3C00
ENDCHAR

STARTCHAR afii10033
ENCODING 191
SWIDTH 854 0
DWIDTH 11 0
BBX 10 9 1 0
BITMAP
7FC0
3180
3180
3180
3180
6300
6300
6300
F780
ENDCHAR

STARTCHAR afii10034
ENCODING 192
SWIDTH 677 0
DWIDTH 9 0
BBX 9 9 1 0
BITMAP
7F00
3180
3180
3180
3600
6000
6000
6000
F000
ENDCHAR

STARTCHAR afii10035
ENCODING 193
SWIDTH 750 0
DWIDTH 10 0
BBX 9 9 1 0
BITMAP
0F80
3180
6100
C000
C000
C000
C100
4300
3E00
ENDCHAR

STARTCHAR afii10036
ENCODING 194
SWIDTH 729 0
DWIDTH 9 0
BBX 10 9 1 0
BITMAP
7FC0
CC80
0C00
0C00
0C00
1800
1800
1800
3C00
ENDCHAR

STARTCHAR afii10037
ENCODING 195
SWIDTH 719 0
DWIDTH 9 0
BBX 10 9 0 0
BITMAP
79C0
3080
3100
1900
1A00
1C00
0C00
D800
7000
ENDCHAR

STARTCHAR afii10038
ENCODING 196
SWIDTH 1021 0
DWIDTH 13 0
BBX 12 9 1 0
BITMAP
0780
0300
3FE0
6630
C630
C660
7FC0
0C00
1E00
ENDCHAR

STARTCHAR afii10039
ENCODING 197
SWIDTH 771 0
DWIDTH 10 0
BBX 11 9 0 0
BITMAP
3DE0
1880
0D00
0E00
0600
0B00
1300
2180
F3C0
ENDCHAR

STARTCHAR afii10040
ENCODING 198
SWIDTH 844 0
DWIDTH 11 0
BBX 10 11 1 -2
BITMAP
7BC0
3180
3180
3180
3180
6300
6300
6300
FF80
0180
0080
ENDCHAR

STARTCHAR afii10041
ENCODING 199
SWIDTH 802 0
DWIDTH 10 0
BBX 10 9 1 0
BITMAP
F3C0
6180
6180
C380
C580
7B00
0300
0300
0780
ENDCHAR

STARTCHAR afii10042
ENCODING 200
SWIDTH 1083 0
DWIDTH 14 0
BBX 13 9 1 0
BITMAP
7B78
3330
3330
3330
3330
6660
6660
6660
FFF0
ENDCHAR

STARTCHAR afii10043
ENCODING 201
SWIDTH 1083 0
DWIDTH 14 0
BBX 13 11 1 -2
BITMAP
7B78
3330
3330
3330
3330
6660
6660
6660
FFF0
0030
0010
ENDCHAR

STARTCHAR afii10044
ENCODING 202
SWIDTH 823 0
DWIDTH 10 0
BBX 10 9 0 0
BITMAP
7E00
CC00
0C00
0C00
0F80
18C0
18C0
1980
3F00
ENDCHAR

STARTCHAR afii10045
ENCODING 203
SWIDTH 1050 0
DWIDTH 14 0
BBX 13 9 1 0
BITMAP
7878
3030
3030
3030
3E30
6360
6360
6660
FCF0
ENDCHAR

STARTCHAR afii10046
ENCODING 204
SWIDTH 719 0
DWIDTH 9 0
BBX 8 9 1 0
BITMAP
78
30
30
30
3E
63
63
66
FC
ENDCHAR

STARTCHAR afii10047
ENCODING 205
SWIDTH 777 0
DWIDTH 10 0
BBX 10 9 1 0
BITMAP
3F00
6180
40C0
00C0
1FC0
00C0
8180
6300
1C00
ENDCHAR

STARTCHAR afii10048
ENCODING 206
SWIDTH 1250 0
DWIDTH 17 0
BBX 16 9 1 0
BITMAP
783C
30C6
3183
3303
3F03
6303
6306
618C
F0F0
ENDCHAR

STARTCHAR afii10049
ENCODING 207
SWIDTH 792 0
DWIDTH 10 0
BBX 10 9 0 0
BITMAP
1FC0
3180
3180
1980
0F00
1B00
3300
6300
E780
ENDCHAR

STARTCHAR afii10065
ENCODING 208
SWIDTH 585 0
DWIDTH 8 0
BBX 8 6 1 0
BITMAP
3B
66
C6
CC
DD
6E
ENDCHAR

STARTCHAR afii10066
ENCODING 209
SWIDTH 573 0
DWIDTH 8 0
BBX 7 9 1 0
BITMAP
0E
38
40
DC
E6
C6
C6
4C
38
ENDCHAR

STARTCHAR afii10067
ENCODING 210
SWIDTH 514 0
DWIDTH 7 0
BBX 6 6 1 0
BITMAP
3C
64
F8
CC
CC
78
ENDCHAR

STARTCHAR afii10068
ENCODING 211
SWIDTH 378 0
DWIDTH 5 0
BBX 5 6 0 0
BITMAP
70
18
30
60
D0
60
ENDCHAR

STARTCHAR afii10069
ENCODING 212
SWIDTH 568 0
DWIDTH 8 0
BBX 7 9 1 0
BITMAP
38
04
06
36
6E
C6
C6
CC
78
ENDCHAR

STARTCHAR afii10070
ENCODING 213
SWIDTH 517 0
DWIDTH 7 0
BBX 6 6 1 0
BITMAP
18
2C
68
F0
C4
78
ENDCHAR

STARTCHAR afii10072
ENCODING 214
SWIDTH 1083 0
DWIDTH 14 0
BBX 14 6 0 0
BITMAP
399C
4DA4
0FE0
1B60
B368
6330
ENDCHAR

STARTCHAR afii10073
ENCODING 215
SWIDTH 407 0
DWIDTH 5 0
BBX 6 6 0 0
BITMAP
38
0C
30
18
98
70
ENDCHAR

STARTCHAR afii10074
ENCODING 216
SWIDTH 635 0
DWIDTH 8 0
BBX 9 6 0 0
BITMAP
6300
B300
3300
6600
6E80
3B00
ENDCHAR

STARTCHAR afii10075
ENCODING 217
SWIDTH 635 0
DWIDTH 8 0
BBX 9 9 0 0
BITMAP
2200
1C00
0000
6300
B300
3300
6600
6E80
3B00
ENDCHAR

STARTCHAR afii10076
ENCODING 218
SWIDTH 563 0
DWIDTH 7 0
BBX 8 6 0 0
BITMAP
73
34
38
6C
6C
E6
ENDCHAR

STARTCHAR afii10077
ENCODING 219
SWIDTH 594 0
DWIDTH 8 0
BBX 8 6 0 0
BITMAP
02
0E
16
2C
6D
C6
ENDCHAR

STARTCHAR afii10078
ENCODING 220
SWIDTH 729 0
DWIDTH 9 0
BBX 10 6 -1 0
BITMAP
1980
1980
1B80
2D00
2B40
CB80
ENDCHAR

STARTCHAR afii10079
ENCODING 221
SWIDTH 635 0
DWIDTH 8 0
BBX 8 6 1 0
BITMAP
E6
66
7C
CC
CD
C6
ENDCHAR

STARTCHAR afii10080
ENCODING 222
SWIDTH 573 0
DWIDTH 7 0
BBX 7 6 0 0
BITMAP
3C
66
C6
C6
CC
78
ENDCHAR

STARTCHAR afii10081
ENCODING 223
SWIDTH 635 0
DWIDTH 8 0
BBX 9 6 0 0
BITMAP
7600
BB00
3300
3600
6680
6700
ENDCHAR

STARTCHAR afii10082
ENCODING 224
SWIDTH 612 0
DWIDTH 8 0
BBX 9 10 -1 -3
BITMAP
1800
3F00
5980
1980
3180
3300
3C00
6000
6000
F000
ENDCHAR

STARTCHAR afii10083
ENCODING 225
SWIDTH 506 0
DWIDTH 7 0
BBX 6 6 1 0
BITMAP
3C
64
C0
C0
C8
70
ENDCHAR

STARTCHAR afii10084
ENCODING 226
SWIDTH 1000 0
DWIDTH 13 0
BBX 13 6 0 0
BITMAP
6EE0
B3B0
3330
3360
6668
6670
ENDCHAR

STARTCHAR afii10085
ENCODING 227
SWIDTH 552 0
DWIDTH 7 0
BBX 8 9 -1 -3
BITMAP
32
59
19
1A
0C
0C
08
D0
60
ENDCHAR

STARTCHAR afii10086
ENCODING 228
SWIDTH 781 0
DWIDTH 10 0
BBX 10 12 0 -3
BITMAP
0180
02C0
0600
3F80
6CC0
CCC0
CCC0
CD80
7F00
1800
D000
6000
ENDCHAR

STARTCHAR afii10087
ENCODING 229
SWIDTH 615 0
DWIDTH 8 0
BBX 8 6 0 0
BITMAP
33
55
18
18
AA
CC
ENDCHAR

STARTCHAR afii10088
ENCODING 230
SWIDTH 625 0
DWIDTH 8 0
BBX 9 8 0 -2
BITMAP
6300
B300
3300
6600
6E80
3B00
0300
0600
ENDCHAR

STARTCHAR afii10089
ENCODING 231
SWIDTH 615 0
DWIDTH 8 0
BBX 8 6 0 0
BITMAP
73
B3
36
1E
0D
06
ENDCHAR

STARTCHAR afii10090
ENCODING 232
SWIDTH 1000 0
DWIDTH 13 0
BBX 14 6 0 0
BITMAP
7318
B318
3330
6630
6E74
3BB8
ENDCHAR

STARTCHAR afii10091
ENCODING 233
SWIDTH 1000 0
DWIDTH 13 0
BBX 14 8 0 -2
BITMAP
7318
B318
3330
6630
6E74
3BB8
0030
0060
ENDCHAR

STARTCHAR afii10092
ENCODING 234
SWIDTH 521 0
DWIDTH 7 0
BBX 8 6 -1 0
BITMAP
78
98
1E
33
33
1E
ENDCHAR

STARTCHAR afii10093
ENCODING 235
SWIDTH 781 0
DWIDTH 10 0
BBX 10 6 0 0
BITMAP
E1C0
60C0
78C0
CD80
CD80
78C0
ENDCHAR

STARTCHAR afii10094
ENCODING 236
SWIDTH 510 0
DWIDTH 7 0
BBX 6 6 1 0
BITMAP
E0
60
78
CC
CC
78
ENDCHAR

STARTCHAR afii10095
ENCODING 237
SWIDTH 483 0
DWIDTH 6 0
BBX 6 6 0 0
BITMAP
38
4C
1C
0C
98
70
ENDCHAR

STARTCHAR afii10096
ENCODING 238
SWIDTH 867 0
DWIDTH 11 0
BBX 12 6 0 0
BITMAP
79E0
3330
3E30
6630
6660
F3C0
ENDCHAR

STARTCHAR afii10097
ENCODING 239
SWIDTH 603 0
DWIDTH 8 0
BBX 9 6 0 0
BITMAP
3F00
6300
6300
3E00
6680
C700
ENDCHAR

STARTCHAR afii61352
ENCODING 240
SWIDTH 1135 0
DWIDTH 15 0
BBX 16 9 -1 0
BITMAP
1C30
0C60
0E46
0E4B
0B5B
0B5A
138C
D180
611F
ENDCHAR

STARTCHAR afii10071
ENCODING 241
SWIDTH 517 0
DWIDTH 7 0
BBX 7 9 1 0
BITMAP
66
66
00
18
2C
68
F0
C4
78
ENDCHAR

STARTCHAR afii10099
ENCODING 242
SWIDTH 631 0
DWIDTH 8 0
BBX 7 12 1 -3
BITMAP
10
7E
30
6C
76
66
C6
CC
CC
0C
18
10
ENDCHAR

STARTCHAR afii10100
ENCODING 243
SWIDTH 512 0
DWIDTH 7 0
BBX 7 9 0 0
BITMAP
0C
18
00
7E
32
30
60
60
F0
ENDCHAR

STARTCHAR afii10101
ENCODING 244
SWIDTH 547 0
DWIDTH 6 0
BBX 6 6 0 0
BITMAP
38
64
C0
E0
C8
70
ENDCHAR

STARTCHAR afii10102
ENCODING 245
SWIDTH 490 0
DWIDTH 6 0
BBX 6 6 0 0
BITMAP
3C
64
70
38
98
F0
ENDCHAR

STARTCHAR afii10103
ENCODING 246
SWIDTH 333 0
DWIDTH 4 0
BBX 5 9 0 0
BITMAP
18
18
00
60
B0
30
60
68
30
ENDCHAR

STARTCHAR afii10104
ENCODING 247
SWIDTH 333 0
DWIDTH 4 0
BBX 6 9 0 0
BITMAP
CC
CC
00
60
B0
30
60
68
30
ENDCHAR

STARTCHAR afii10105
ENCODING 248
SWIDTH 323 0
DWIDTH 4 0
BBX 7 12 -2 -3
BITMAP
06
06
00
18
2C
0C
0C
18
18
18
B0
60
ENDCHAR

STARTCHAR afii10106
ENCODING 249
SWIDTH 771 0
DWIDTH 10 0
BBX 10 6 0 0
BITMAP
0F00
1300
1380
26C0
66C0
C780
ENDCHAR

STARTCHAR afii10107
ENCODING 250
SWIDTH 823 0
DWIDTH 11 0
BBX 10 6 1 0
BITMAP
EE00
6600
7F80
CCC0
CCC0
C780
ENDCHAR

STARTCHAR afii10108
ENCODING 251
SWIDTH 625 0
DWIDTH 8 0
BBX 7 9 1 0
BITMAP
10
7E
30
6C
76
66
CC
CC
C6
ENDCHAR

STARTCHAR afii10109
ENCODING 252
SWIDTH 563 0
DWIDTH 7 0
BBX 8 9 0 0
BITMAP
06
0C
00
73
34
38
6C
6C
E6
ENDCHAR

STARTCHAR section
ENCODING 253
SWIDTH 594 0
DWIDTH 8 0
BBX 9 12 0 -3
BITMAP
0700
1980
1880
2800
2C00
3400
1600
1A00
0A00
8C00
CC00
7000
ENDCHAR

STARTCHAR afii10110
ENCODING 254
SWIDTH 552 0
DWIDTH 7 0
BBX 8 12 -1 -3
BITMAP
11
0E
00
32
59
19
1A
0C
0C
08
D0
60
ENDCHAR

STARTCHAR afii10193
ENCODING 255
SWIDTH 635 0
DWIDTH 8 0
BBX 9 8 0 -2
BITMAP
6300
B300
3300
6600
6E80
3B00
3000
6000
ENDCHAR

ENDFONT
