STARTFONT 2.1
FONT -Monotype-Plantin-Regular-I-Normal--18-180-75-75-P-104-iso8859-5
SIZE 18 75 75
FONTBOUNDINGBOX 24 22 -2 -5

STARTPROPERTIES 24
FOUNDRY "Monotype"
FAMILY_NAME "Plantin"
WEIGHT_NAME "Regular"
SLANT "I"
SETWIDTH_NAME "Normal"
ADD_STYLE_NAME ""
PIXEL_SIZE 18
POINT_SIZE 180
RESOLUTION_X 75
RESOLUTION_Y 75
SPACING "P"
AVERAGE_WIDTH 104
CHARSET_REGISTRY "iso8859"
CHARSET_ENCODING "5"
FACE_NAME "Plantin Inclined ISO Latin Cyrillic"
_DEC_DEVICE_FONTNAMES "PS=plantin-in-latcyrillic"
COPYRIGHT "Copyright (c) 1994 Monotype Typography Ltd."
CAP_HEIGHT 15
X_HEIGHT 9
WEIGHT 10
QUAD_WIDTH 13
DEFAULT_CHAR 160
FONT_DESCENT 5
FONT_ASCENT 17
ENDPROPERTIES

CHARS 191

STARTCHAR space
ENCODING 32
SWIDTH 250 0
DWIDTH 5 0
BBX 0 0 0 0
BITMAP
ENDCHAR

STARTCHAR exclam
ENCODING 33
SWIDTH 312 0
DWIDTH 6 0
BBX 5 14 1 0
BITMAP
08
18
18
18
18
18
30
30
30
20
00
00
C0
C0
ENDCHAR

STARTCHAR quotedbl
ENCODING 34
SWIDTH 417 0
DWIDTH 8 0
BBX 5 6 2 8
BITMAP
48
D8
D8
D8
90
90
ENDCHAR

STARTCHAR numbersign
ENCODING 35
SWIDTH 500 0
DWIDTH 10 0
BBX 11 14 0 0
BITMAP
0880
0880
0880
0880
7FE0
1100
1100
1100
1100
FFC0
2200
2200
2200
2200
ENDCHAR

STARTCHAR dollar
ENCODING 36
SWIDTH 490 0
DWIDTH 9 0
BBX 9 16 1 -2
BITMAP
0200
0F00
1580
3480
3400
3400
3C00
1C00
0E00
1600
1600
9600
D600
7C00
1000
1000
ENDCHAR

STARTCHAR percent
ENCODING 37
SWIDTH 729 0
DWIDTH 14 0
BBX 13 14 1 0
BITMAP
3010
5820
D840
D880
D880
D100
6200
0430
0858
10D8
10D8
20D8
40D0
8060
ENDCHAR

STARTCHAR ampersand
ENCODING 38
SWIDTH 948 0
DWIDTH 18 0
BBX 18 14 1 0
BITMAP
07C000
0C6000
180000
180000
1C0180
0E78C0
308E40
610780
C18400
C0C400
C00800
600800
703000
1FE000
ENDCHAR

STARTCHAR quoteright
ENCODING 39
SWIDTH 313 0
DWIDTH 6 0
BBX 4 4 1 10
BITMAP
30
30
20
C0
ENDCHAR

STARTCHAR parenleft
ENCODING 40
SWIDTH 448 0
DWIDTH 9 0
BBX 7 18 3 -4
BITMAP
02
04
08
18
30
20
60
60
C0
C0
C0
C0
C0
C0
C0
C0
40
20
ENDCHAR

STARTCHAR parenright
ENCODING 41
SWIDTH 437 0
DWIDTH 9 0
BBX 7 18 0 -4
BITMAP
08
04
06
06
06
06
06
06
06
06
0C
0C
08
18
30
20
40
80
ENDCHAR

STARTCHAR asterisk
ENCODING 42
SWIDTH 521 0
DWIDTH 10 0
BBX 9 7 1 7
BITMAP
0800
0800
FF80
1800
3C00
4400
8200
ENDCHAR

STARTCHAR plus
ENCODING 43
SWIDTH 667 0
DWIDTH 13 0
BBX 11 11 1 1
BITMAP
0400
0400
0400
0400
0400
FFE0
0400
0400
0400
0400
0400
ENDCHAR

STARTCHAR comma
ENCODING 44
SWIDTH 313 0
DWIDTH 6 0
BBX 4 4 1 -2
BITMAP
30
30
20
C0
ENDCHAR

STARTCHAR minus
ENCODING 45
SWIDTH 667 0
DWIDTH 13 0
BBX 10 1 2 6
BITMAP
FFC0
ENDCHAR

STARTCHAR period
ENCODING 46
SWIDTH 312 0
DWIDTH 6 0
BBX 2 2 2 0
BITMAP
C0
C0
ENDCHAR

STARTCHAR slash
ENCODING 47
SWIDTH 281 0
DWIDTH 5 0
BBX 7 14 -1 0
BITMAP
02
02
06
04
0C
08
18
10
30
20
60
40
C0
80
ENDCHAR

STARTCHAR zero
ENCODING 48
SWIDTH 521 0
DWIDTH 10 0
BBX 8 14 1 0
BITMAP
0C
12
23
63
63
C3
C3
C3
C3
C6
C6
C4
48
30
ENDCHAR

STARTCHAR one
ENCODING 49
SWIDTH 521 0
DWIDTH 10 0
BBX 6 14 2 0
BITMAP
04
3C
0C
0C
0C
18
18
18
18
18
30
30
30
FC
ENDCHAR

STARTCHAR two
ENCODING 50
SWIDTH 521 0
DWIDTH 10 0
BBX 9 14 1 0
BITMAP
1F00
2380
0180
0180
0180
0180
0300
0600
0800
1000
2000
4100
FF00
FE00
ENDCHAR

STARTCHAR three
ENCODING 51
SWIDTH 521 0
DWIDTH 10 0
BBX 9 14 1 0
BITMAP
1F00
2380
0180
0180
0180
0300
3E00
0600
0300
0300
0300
0300
8600
7C00
ENDCHAR

STARTCHAR four
ENCODING 52
SWIDTH 521 0
DWIDTH 10 0
BBX 9 14 1 0
BITMAP
0080
0180
0380
0700
0B00
1300
2600
4600
FF80
FF00
0C00
0C00
0C00
0C00
ENDCHAR

STARTCHAR five
ENCODING 53
SWIDTH 521 0
DWIDTH 10 0
BBX 10 14 1 0
BITMAP
0FC0
0F80
0C00
1800
1800
1C00
2600
0300
0300
0300
0300
0300
8600
7C00
ENDCHAR

STARTCHAR six
ENCODING 54
SWIDTH 521 0
DWIDTH 10 0
BBX 9 14 1 0
BITMAP
0380
0C00
1800
3000
6000
6E00
F300
C300
C300
C300
C600
C600
4400
3800
ENDCHAR

STARTCHAR seven
ENCODING 55
SWIDTH 521 0
DWIDTH 10 0
BBX 10 14 1 0
BITMAP
7FC0
FF80
8100
0300
0200
0600
0400
0C00
0800
1800
1000
3000
2000
6000
ENDCHAR

STARTCHAR eight
ENCODING 56
SWIDTH 521 0
DWIDTH 10 0
BBX 9 14 1 0
BITMAP
0E00
1B00
3180
3180
3180
1B00
1E00
3600
6300
C300
C300
C300
6600
3C00
ENDCHAR

STARTCHAR nine
ENCODING 57
SWIDTH 521 0
DWIDTH 10 0
BBX 9 14 1 0
BITMAP
0E00
1100
3180
3180
6180
6180
6180
6780
3B00
0300
0600
0C00
1800
E000
ENDCHAR

STARTCHAR colon
ENCODING 58
SWIDTH 312 0
DWIDTH 6 0
BBX 4 8 1 0
BITMAP
30
30
00
00
00
00
C0
C0
ENDCHAR

STARTCHAR semicolon
ENCODING 59
SWIDTH 312 0
DWIDTH 6 0
BBX 6 10 0 -2
BITMAP
0C
0C
00
00
00
00
30
30
20
C0
ENDCHAR

STARTCHAR less
ENCODING 60
SWIDTH 667 0
DWIDTH 13 0
BBX 10 9 2 2
BITMAP
00C0
0380
0E00
3800
E000
3800
0E00
0380
00C0
ENDCHAR

STARTCHAR equal
ENCODING 61
SWIDTH 667 0
DWIDTH 13 0
BBX 10 5 2 4
BITMAP
FFC0
0000
0000
0000
FFC0
ENDCHAR

STARTCHAR greater
ENCODING 62
SWIDTH 667 0
DWIDTH 13 0
BBX 10 9 2 2
BITMAP
C000
7000
1C00
0700
01C0
0700
1C00
7000
C000
ENDCHAR

STARTCHAR question
ENCODING 63
SWIDTH 406 0
DWIDTH 8 0
BBX 6 14 1 0
BITMAP
38
6C
0C
0C
0C
1C
78
70
40
40
00
00
C0
C0
ENDCHAR

STARTCHAR at
ENCODING 64
SWIDTH 917 0
DWIDTH 17 0
BBX 16 18 1 -4
BITMAP
03E0
0C18
1004
2002
4002
40D2
4331
8631
8C61
8C62
8CE2
8D6C
4671
4001
2002
1004
0C18
03E0
ENDCHAR

STARTCHAR A
ENCODING 65
SWIDTH 729 0
DWIDTH 14 0
BBX 15 14 -1 0
BITMAP
0004
0004
000C
001C
002C
004C
008C
010C
03F8
0418
0818
1018
2018
F87E
ENDCHAR

STARTCHAR B
ENCODING 66
SWIDTH 698 0
DWIDTH 13 0
BBX 13 14 0 0
BITMAP
3FE0
0C30
0C18
0C18
0C18
1830
1FC0
1860
1830
3030
3030
3030
3060
FF80
ENDCHAR

STARTCHAR C
ENCODING 67
SWIDTH 708 0
DWIDTH 13 0
BBX 13 14 1 0
BITMAP
07F8
1818
3010
6000
6000
C000
C000
C000
C000
C000
C000
6020
3060
1FC0
ENDCHAR

STARTCHAR D
ENCODING 68
SWIDTH 781 0
DWIDTH 15 0
BBX 14 14 1 0
BITMAP
3FE0
0C38
0C1C
0C0C
0C0C
180C
180C
180C
180C
3018
3018
3030
3060
FF80
ENDCHAR

STARTCHAR E
ENCODING 69
SWIDTH 656 0
DWIDTH 12 0
BBX 14 14 0 0
BITMAP
3FFC
0C0C
0C08
0C00
0C20
1820
1FE0
1840
1840
3000
3000
3010
3030
FFE0
ENDCHAR

STARTCHAR F
ENCODING 70
SWIDTH 635 0
DWIDTH 12 0
BBX 13 14 1 0
BITMAP
3FF8
0C18
0C10
0C00
0C40
1840
1FC0
1880
1880
3000
3000
3000
3000
FC00
ENDCHAR

STARTCHAR G
ENCODING 71
SWIDTH 792 0
DWIDTH 15 0
BBX 14 14 2 0
BITMAP
07F8
1818
3010
6000
6000
C000
C000
C0FC
C030
C030
C030
6060
3060
1FC0
ENDCHAR

STARTCHAR H
ENCODING 72
SWIDTH 823 0
DWIDTH 16 0
BBX 16 14 1 0
BITMAP
3F3F
0C0C
0C0C
0C0C
0C0C
1818
1FF8
1818
1818
1830
3030
3030
3030
FCFC
ENDCHAR

STARTCHAR I
ENCODING 73
SWIDTH 375 0
DWIDTH 8 0
BBX 8 14 1 0
BITMAP
3F
0C
0C
0C
0C
18
18
18
18
30
30
30
30
FC
ENDCHAR

STARTCHAR J
ENCODING 74
SWIDTH 479 0
DWIDTH 9 0
BBX 12 18 -1 -4
BITMAP
0E30
13A0
11C0
18C0
08C0
0180
07E0
0180
0180
0180
0300
0300
0300
0600
0600
0400
C800
7000
ENDCHAR

STARTCHAR K
ENCODING 75
SWIDTH 771 0
DWIDTH 15 0
BBX 16 14 0 0
BITMAP
3F1F
0C0C
0C10
0C60
0C80
1900
1B00
1F00
1980
31C0
30E0
3070
3038
FC1E
ENDCHAR

STARTCHAR L
ENCODING 76
SWIDTH 646 0
DWIDTH 12 0
BBX 12 14 0 0
BITMAP
3F00
0C00
0C00
0C00
0C00
1800
1800
1800
1800
3000
3000
3010
3030
FFE0
ENDCHAR

STARTCHAR M
ENCODING 77
SWIDTH 979 0
DWIDTH 18 0
BBX 18 14 1 0
BITMAP
3C03C0
0C0300
0E0700
0E0700
0E0B00
0E0B00
161600
162600
172600
174600
238C00
238C00
230C00
FB3F00
ENDCHAR

STARTCHAR N
ENCODING 78
SWIDTH 812 0
DWIDTH 15 0
BBX 17 14 0 0
BITMAP
3C0F80
0C0200
0E0200
070200
0B0200
098400
118400
10C400
10C400
106800
206800
203800
203800
F81C00
ENDCHAR

STARTCHAR O
ENCODING 79
SWIDTH 792 0
DWIDTH 15 0
BBX 13 14 2 0
BITMAP
07C0
1820
3010
6018
6018
C018
C018
C018
C018
C030
C030
4060
20C0
1F00
ENDCHAR

STARTCHAR P
ENCODING 80
SWIDTH 615 0
DWIDTH 12 0
BBX 13 14 0 0
BITMAP
3FE0
0C30
0C18
0C18
0C18
1818
1830
19E0
1800
3000
3000
3000
3000
FC00
ENDCHAR

STARTCHAR Q
ENCODING 81
SWIDTH 792 0
DWIDTH 15 0
BBX 13 18 2 -4
BITMAP
07C0
1820
3010
6018
6018
C018
C018
C018
C018
C030
C030
4060
20C0
1F00
0400
0C10
33E0
C1C0
ENDCHAR

STARTCHAR R
ENCODING 82
SWIDTH 698 0
DWIDTH 13 0
BBX 13 14 0 0
BITMAP
3FE0
0C30
0C18
0C18
0C18
1818
1830
1FC0
1B80
19C0
30C0
30E0
3070
FC38
ENDCHAR

STARTCHAR S
ENCODING 83
SWIDTH 604 0
DWIDTH 11 0
BBX 11 14 1 0
BITMAP
0FC0
1860
3020
3000
3000
3800
1E00
0F00
0380
0180
0180
8180
C300
7E00
ENDCHAR

STARTCHAR T
ENCODING 84
SWIDTH 667 0
DWIDTH 13 0
BBX 13 14 2 0
BITMAP
7FF8
C618
8610
0600
0600
0C00
0C00
0C00
0C00
1800
1800
1800
1800
7E00
ENDCHAR

STARTCHAR U
ENCODING 85
SWIDTH 771 0
DWIDTH 15 0
BBX 14 14 2 0
BITMAP
FC7C
3010
3010
3010
6010
6020
6020
6020
6020
C020
C040
C040
6080
3F00
ENDCHAR

STARTCHAR V
ENCODING 86
SWIDTH 719 0
DWIDTH 14 0
BBX 14 14 2 0
BITMAP
FC7C
3018
3010
3020
3040
3040
3080
3100
3200
3200
3400
3800
3000
2000
ENDCHAR

STARTCHAR W
ENCODING 87
SWIDTH 979 0
DWIDTH 19 0
BBX 21 14 1 0
BITMAP
FBDEF8
318C60
318840
319080
319100
31A100
31C200
318400
318800
339000
35A000
39C000
318000
210000
ENDCHAR

STARTCHAR X
ENCODING 88
SWIDTH 781 0
DWIDTH 15 0
BBX 17 14 0 0
BITMAP
3F1F80
0C0600
0C0400
060800
061000
032000
01C000
018000
02C000
04C000
086000
106000
303000
FCFC00
ENDCHAR

STARTCHAR Y
ENCODING 89
SWIDTH 719 0
DWIDTH 14 0
BBX 14 14 2 0
BITMAP
FCFC
3030
3020
3040
1840
1880
1900
0E00
0C00
0C00
0C00
1800
1800
7E00
ENDCHAR

STARTCHAR Z
ENCODING 90
SWIDTH 625 0
DWIDTH 12 0
BBX 13 14 0 0
BITMAP
1FF8
3038
2070
00E0
01C0
0380
0700
0600
0E00
1C00
3800
7020
E060
FFC0
ENDCHAR

STARTCHAR bracketleft
ENCODING 91
SWIDTH 375 0
DWIDTH 7 0
BBX 7 18 0 -4
BITMAP
1E
18
18
18
18
30
30
30
30
30
60
60
60
60
C0
C0
C0
F0
ENDCHAR

STARTCHAR backslash
ENCODING 92
SWIDTH 281 0
DWIDTH 5 0
BBX 4 14 0 0
BITMAP
80
80
80
C0
C0
40
60
60
20
20
30
30
10
10
ENDCHAR

STARTCHAR bracketright
ENCODING 93
SWIDTH 375 0
DWIDTH 7 0
BBX 7 18 0 -4
BITMAP
1E
06
06
06
06
0C
0C
0C
0C
18
18
18
18
30
30
30
30
F0
ENDCHAR

STARTCHAR asciicircum
ENCODING 94
SWIDTH 427 0
DWIDTH 8 0
BBX 9 7 0 7
BITMAP
0800
0800
1400
3600
2200
4100
8080
ENDCHAR

STARTCHAR underscore
ENCODING 95
SWIDTH 500 0
DWIDTH 10 0
BBX 10 1 0 -5
BITMAP
FFC0
ENDCHAR

STARTCHAR quoteleft
ENCODING 96
SWIDTH 312 0
DWIDTH 6 0
BBX 4 4 2 10
BITMAP
30
40
C0
C0
ENDCHAR

STARTCHAR a
ENCODING 97
SWIDTH 521 0
DWIDTH 10 0
BBX 9 9 1 0
BITMAP
1D00
2300
6300
6300
C300
C600
C600
CE80
7300
ENDCHAR

STARTCHAR b
ENCODING 98
SWIDTH 469 0
DWIDTH 9 0
BBX 8 14 1 0
BITMAP
10
70
30
30
30
6E
73
63
63
C3
C6
C6
C4
78
ENDCHAR

STARTCHAR c
ENCODING 99
SWIDTH 385 0
DWIDTH 7 0
BBX 7 9 1 0
BITMAP
1C
32
60
60
C0
C0
C0
E8
70
ENDCHAR

STARTCHAR d
ENCODING 100
SWIDTH 500 0
DWIDTH 10 0
BBX 9 14 1 0
BITMAP
0080
0380
0180
0180
0180
1D80
2300
6300
6300
C300
C600
C600
CE80
7300
ENDCHAR

STARTCHAR e
ENCODING 101
SWIDTH 385 0
DWIDTH 7 0
BBX 7 9 0 0
BITMAP
0C
36
66
7C
C0
C0
C0
E4
78
ENDCHAR

STARTCHAR f
ENCODING 102
SWIDTH 281 0
DWIDTH 6 0
BBX 10 18 -1 -4
BITMAP
0180
0240
0600
0600
0600
3F80
0C00
0C00
0C00
0C00
1800
1800
1800
1800
3000
3000
B000
6000
ENDCHAR

STARTCHAR g
ENCODING 103
SWIDTH 448 0
DWIDTH 9 0
BBX 10 13 1 -4
BITMAP
0EC0
1300
3300
3300
6300
6600
7800
8000
7800
FE00
C700
C600
7C00
ENDCHAR

STARTCHAR h
ENCODING 104
SWIDTH 521 0
DWIDTH 10 0
BBX 9 14 1 0
BITMAP
1000
7000
3000
3000
3000
6E00
7300
6300
6300
6300
C600
C600
C680
C300
ENDCHAR

STARTCHAR i
ENCODING 105
SWIDTH 271 0
DWIDTH 5 0
BBX 5 14 0 0
BITMAP
18
18
00
00
00
60
B0
30
30
30
60
60
68
30
ENDCHAR

STARTCHAR j
ENCODING 106
SWIDTH 240 0
DWIDTH 5 0
BBX 7 18 -1 -4
BITMAP
06
06
00
00
00
18
2C
0C
0C
0C
18
18
18
18
30
30
B0
60
ENDCHAR

STARTCHAR k
ENCODING 107
SWIDTH 521 0
DWIDTH 10 0
BBX 8 14 1 0
BITMAP
10
70
30
30
30
6E
73
63
66
7C
D8
CC
CD
C6
ENDCHAR

STARTCHAR l
ENCODING 108
SWIDTH 240 0
DWIDTH 5 0
BBX 4 14 1 0
BITMAP
10
70
30
30
30
60
60
60
60
C0
C0
C0
D0
60
ENDCHAR

STARTCHAR m
ENCODING 109
SWIDTH 771 0
DWIDTH 14 0
BBX 13 9 1 0
BITMAP
7760
BBB0
3330
3330
3330
6660
6660
6668
6630
ENDCHAR

STARTCHAR n
ENCODING 110
SWIDTH 531 0
DWIDTH 10 0
BBX 9 9 1 0
BITMAP
7600
BB00
3300
3300
3300
6600
6600
6680
6300
ENDCHAR

STARTCHAR o
ENCODING 111
SWIDTH 448 0
DWIDTH 9 0
BBX 8 9 1 0
BITMAP
1C
22
43
C3
C3
C3
C2
44
38
ENDCHAR

STARTCHAR p
ENCODING 112
SWIDTH 490 0
DWIDTH 9 0
BBX 10 14 -1 -4
BITMAP
0800
0F00
3C80
4CC0
0CC0
18C0
18C0
18C0
1980
1E00
3000
3000
3000
FC00
ENDCHAR

STARTCHAR q
ENCODING 113
SWIDTH 448 0
DWIDTH 9 0
BBX 8 13 1 -4
BITMAP
1D
26
66
C6
C6
CC
CC
DC
6C
18
18
18
7E
ENDCHAR

STARTCHAR r
ENCODING 114
SWIDTH 344 0
DWIDTH 7 0
BBX 7 9 1 0
BITMAP
6E
B2
30
30
30
60
60
60
60
ENDCHAR

STARTCHAR s
ENCODING 115
SWIDTH 333 0
DWIDTH 6 0
BBX 5 9 1 0
BITMAP
38
68
60
60
30
30
30
B0
E0
ENDCHAR

STARTCHAR t
ENCODING 116
SWIDTH 292 0
DWIDTH 6 0
BBX 5 11 1 0
BITMAP
20
60
F8
60
60
60
C0
C0
C0
D0
60
ENDCHAR

STARTCHAR u
ENCODING 117
SWIDTH 531 0
DWIDTH 10 0
BBX 9 9 1 0
BITMAP
6300
B300
3300
3300
6600
6600
6600
6E80
3700
ENDCHAR

STARTCHAR v
ENCODING 118
SWIDTH 521 0
DWIDTH 10 0
BBX 9 9 1 0
BITMAP
7900
9980
1880
3080
6080
6100
6100
6200
3C00
ENDCHAR

STARTCHAR w
ENCODING 119
SWIDTH 688 0
DWIDTH 13 0
BBX 12 9 1 0
BITMAP
7920
9930
1910
3210
6220
6220
6620
6A40
3180
ENDCHAR

STARTCHAR x
ENCODING 120
SWIDTH 490 0
DWIDTH 9 0
BBX 9 9 0 0
BITMAP
3180
5A80
1C00
1800
0C00
0C00
1C00
A500
C200
ENDCHAR

STARTCHAR y
ENCODING 121
SWIDTH 479 0
DWIDTH 9 0
BBX 10 13 -2 -4
BITMAP
1880
2CC0
0C40
0C40
0C40
0680
0680
0700
0300
0600
0600
8C00
7800
ENDCHAR

STARTCHAR z
ENCODING 122
SWIDTH 490 0
DWIDTH 9 0
BBX 9 9 0 0
BITMAP
1C80
2F00
0300
0600
0C00
1800
3000
7A00
9C00
ENDCHAR

STARTCHAR braceleft
ENCODING 123
SWIDTH 479 0
DWIDTH 9 0
BBX 7 18 2 -4
BITMAP
06
08
10
30
30
30
30
60
80
40
C0
C0
C0
C0
C0
C0
40
20
ENDCHAR

STARTCHAR bar
ENCODING 124
SWIDTH 198 0
DWIDTH 4 0
BBX 1 18 2 -4
BITMAP
80
80
80
80
80
80
80
80
80
80
80
80
80
80
80
80
80
80
ENDCHAR

STARTCHAR braceright
ENCODING 125
SWIDTH 479 0
DWIDTH 9 0
BBX 7 18 0 -4
BITMAP
08
04
06
06
06
06
06
06
04
02
0C
18
18
18
18
10
20
C0
ENDCHAR

STARTCHAR asciitilde
ENCODING 126
SWIDTH 542 0
DWIDTH 10 0
BBX 10 3 0 5
BITMAP
7840
CCC0
8780
ENDCHAR

STARTCHAR space
ENCODING 160
SWIDTH 250 0
DWIDTH 6 0
BBX 0 0 0 0
BITMAP
ENDCHAR

STARTCHAR afii10023
ENCODING 161
SWIDTH 656 0
DWIDTH 12 0
BBX 14 17 0 0
BITMAP
0330
0330
0000
3FFC
0C0C
0C08
0C00
0C20
1820
1FE0
1840
1840
3000
3000
3010
3030
FFE0
ENDCHAR

STARTCHAR afii10051
ENCODING 162
SWIDTH 771 0
DWIDTH 14 0
BBX 13 14 1 0
BITMAP
7FF8
C618
8610
0600
0600
0DE0
0E30
0C18
0C18
0C18
1818
1818
1890
7E60
ENDCHAR

STARTCHAR afii10052
ENCODING 163
SWIDTH 563 0
DWIDTH 11 0
BBX 13 17 1 0
BITMAP
00C0
0180
0000
3FF8
0C18
0C10
0C00
0C00
1800
1800
1800
1800
3000
3000
3000
3000
FC00
ENDCHAR

STARTCHAR afii10053
ENCODING 164
SWIDTH 708 0
DWIDTH 14 0
BBX 12 14 2 0
BITMAP
07C0
1870
3030
6010
6000
C000
FF00
C000
C000
C000
C000
6040
70C0
1F00
ENDCHAR

STARTCHAR afii10054
ENCODING 165
SWIDTH 604 0
DWIDTH 11 0
BBX 11 14 1 0
BITMAP
0FC0
1860
3020
3000
3000
3800
1E00
0F00
0380
0180
0180
8180
C300
7E00
ENDCHAR

STARTCHAR afii10055
ENCODING 166
SWIDTH 375 0
DWIDTH 8 0
BBX 8 14 1 0
BITMAP
3F
0C
0C
0C
0C
18
18
18
18
30
30
30
30
FC
ENDCHAR

STARTCHAR afii10056
ENCODING 167
SWIDTH 375 0
DWIDTH 8 0
BBX 9 17 1 0
BITMAP
1980
1980
0000
3F00
0C00
0C00
0C00
0C00
1800
1800
1800
1800
3000
3000
3000
3000
FC00
ENDCHAR

STARTCHAR afii10057
ENCODING 168
SWIDTH 479 0
DWIDTH 9 0
BBX 12 18 -1 -4
BITMAP
0E30
13A0
11C0
18C0
08C0
0180
07E0
0180
0180
0180
0300
0300
0300
0600
0600
0400
C800
7000
ENDCHAR

STARTCHAR afii10058
ENCODING 169
SWIDTH 927 0
DWIDTH 18 0
BBX 19 14 -1 0
BITMAP
07FE00
011800
011800
011800
021800
023000
023F80
0430C0
043060
046060
086060
886060
9060C0
61FF00
ENDCHAR

STARTCHAR afii10059
ENCODING 170
SWIDTH 970 0
DWIDTH 20 0
BBX 19 14 1 0
BITMAP
3F7E00
0C1800
0C1800
0C1800
0C1800
183000
1FFF80
1830C0
183060
183060
306060
306060
3060C0
FDFF00
ENDCHAR

STARTCHAR afii10060
ENCODING 171
SWIDTH 802 0
DWIDTH 15 0
BBX 14 14 1 0
BITMAP
7FF0
C630
8620
0600
0600
0DF0
0E18
0C18
0C18
1818
1830
1830
1830
7EFC
ENDCHAR

STARTCHAR afii10061
ENCODING 172
SWIDTH 708 0
DWIDTH 13 0
BBX 14 17 0 0
BITMAP
00C0
0180
0000
3F0C
0C14
0C10
0C20
0C20
1840
1F80
1980
1980
30C0
30C0
3060
3070
FC38
ENDCHAR

STARTCHAR hyphen
ENCODING 173
SWIDTH 365 0
DWIDTH 7 0
BBX 6 1 1 4
BITMAP
FC
ENDCHAR

STARTCHAR afii10062
ENCODING 174
SWIDTH 688 0
DWIDTH 13 0
BBX 14 17 2 0
BITMAP
0CC0
0780
0000
FC7C
3010
3030
3020
3040
1840
1880
1900
0A00
0E00
0C00
8800
9000
6000
ENDCHAR

STARTCHAR afii10145
ENCODING 175
SWIDTH 813 0
DWIDTH 16 0
BBX 16 16 1 -2
BITMAP
3F3F
0C0C
0C0C
0C0C
0C0C
1818
1818
1818
1818
1830
3030
3030
3030
FFFC
0300
0300
ENDCHAR

STARTCHAR afii10017
ENCODING 176
SWIDTH 729 0
DWIDTH 14 0
BBX 15 14 -1 0
BITMAP
0004
0004
000C
001C
002C
004C
008C
010C
03F8
0418
0818
1018
2018
F87E
ENDCHAR

STARTCHAR afii10018
ENCODING 177
SWIDTH 688 0
DWIDTH 13 0
BBX 12 14 1 0
BITMAP
3FF0
0C30
0C20
0C00
0C00
1800
1FC0
1860
1830
3030
3030
3030
3060
FF80
ENDCHAR

STARTCHAR afii10019
ENCODING 178
SWIDTH 698 0
DWIDTH 13 0
BBX 13 14 0 0
BITMAP
3FE0
0C30
0C18
0C18
0C18
1830
1FC0
1860
1830
3030
3030
3030
3060
FF80
ENDCHAR

STARTCHAR afii10020
ENCODING 179
SWIDTH 563 0
DWIDTH 11 0
BBX 13 14 1 0
BITMAP
3FF8
0C18
0C10
0C00
0C00
1800
1800
1800
1800
3000
3000
3000
3000
FC00
ENDCHAR

STARTCHAR afii10021
ENCODING 180
SWIDTH 677 0
DWIDTH 13 0
BBX 14 16 0 -2
BITMAP
1FFC
0430
0430
0430
0430
0860
0860
0860
0860
10C0
10C0
20C0
20C0
FFF0
C030
8020
ENDCHAR

STARTCHAR afii10022
ENCODING 181
SWIDTH 656 0
DWIDTH 12 0
BBX 14 14 0 0
BITMAP
3FFC
0C0C
0C08
0C00
0C20
1820
1FE0
1840
1840
3000
3000
3010
3030
FFE0
ENDCHAR

STARTCHAR afii10024
ENCODING 182
SWIDTH 969 0
DWIDTH 18 0
BBX 20 14 0 0
BITMAP
1C7E70
121890
021880
021880
023100
013100
03FE00
036C00
066C00
066600
0CC600
18C300
B0C340
63F180
ENDCHAR

STARTCHAR afii10025
ENCODING 183
SWIDTH 569 0
DWIDTH 11 0
BBX 10 14 1 0
BITMAP
0F00
3080
20C0
00C0
00C0
00C0
0180
1E00
0100
0180
0180
8180
C300
3C00
ENDCHAR

STARTCHAR afii10026
ENCODING 184
SWIDTH 813 0
DWIDTH 16 0
BBX 16 14 1 0
BITMAP
3F3F
0C0C
0C0C
0C1C
0C2C
1858
1898
1918
1A18
1C30
3830
3030
3030
FCFC
ENDCHAR

STARTCHAR afii10027
ENCODING 185
SWIDTH 813 0
DWIDTH 16 0
BBX 16 17 1 0
BITMAP
0330
01E0
0000
3F3F
0C0C
0C0C
0C1C
0C2C
1858
1898
1918
1A18
1C30
3830
3030
3030
FCFC
ENDCHAR

STARTCHAR afii10028
ENCODING 186
SWIDTH 708 0
DWIDTH 13 0
BBX 14 14 0 0
BITMAP
3F0C
0C14
0C10
0C20
0C20
1840
1F80
1980
1980
30C0
30C0
3060
3070
FC38
ENDCHAR

STARTCHAR afii10029
ENCODING 187
SWIDTH 718 0
DWIDTH 14 0
BBX 15 14 0 0
BITMAP
0FFE
0218
0218
0218
0418
0430
0430
0830
0830
0860
1060
9060
9060
61F8
ENDCHAR

STARTCHAR afii10030
ENCODING 188
SWIDTH 979 0
DWIDTH 18 0
BBX 18 14 1 0
BITMAP
3C03C0
0C0300
0E0700
0E0700
0E0B00
0E0B00
161600
162600
172600
174600
238C00
238C00
230C00
FB3F00
ENDCHAR

STARTCHAR afii10031
ENCODING 189
SWIDTH 823 0
DWIDTH 16 0
BBX 16 14 1 0
BITMAP
3F3F
0C0C
0C0C
0C0C
0C0C
1818
1FF8
1818
1818
1830
3030
3030
3030
FCFC
ENDCHAR

STARTCHAR afii10032
ENCODING 190
SWIDTH 792 0
DWIDTH 15 0
BBX 13 14 2 0
BITMAP
07C0
1820
3010
6018
6018
C018
C018
C018
C018
C030
C030
4060
20C0
1F00
ENDCHAR

STARTCHAR afii10033
ENCODING 191
SWIDTH 813 0
DWIDTH 16 0
BBX 16 14 1 0
BITMAP
3FFF
0C0C
0C0C
0C0C
0C0C
1818
1818
1818
1818
1830
3030
3030
3030
FCFC
ENDCHAR

STARTCHAR afii10034
ENCODING 192
SWIDTH 615 0
DWIDTH 12 0
BBX 13 14 0 0
BITMAP
3FE0
0C30
0C18
0C18
0C18
1818
1830
19E0
1800
3000
3000
3000
3000
FC00
ENDCHAR

STARTCHAR afii10035
ENCODING 193
SWIDTH 708 0
DWIDTH 13 0
BBX 13 14 1 0
BITMAP
07F8
1818
3010
6000
6000
C000
C000
C000
C000
C000
C000
6020
3060
1FC0
ENDCHAR

STARTCHAR afii10036
ENCODING 194
SWIDTH 667 0
DWIDTH 13 0
BBX 13 14 2 0
BITMAP
7FF8
C618
8610
0600
0600
0C00
0C00
0C00
0C00
1800
1800
1800
1800
7E00
ENDCHAR

STARTCHAR afii10037
ENCODING 195
SWIDTH 688 0
DWIDTH 13 0
BBX 14 14 2 0
BITMAP
FC7C
3010
3030
3020
3040
1840
1880
1900
0A00
0E00
0C00
8800
9000
6000
ENDCHAR

STARTCHAR afii10038
ENCODING 196
SWIDTH 917 0
DWIDTH 17 0
BBX 16 14 2 0
BITMAP
03F0
00C0
0FF8
30C6
60C3
C183
C183
C183
C183
6306
330C
0FF0
0300
0FC0
ENDCHAR

STARTCHAR afii10039
ENCODING 197
SWIDTH 781 0
DWIDTH 15 0
BBX 17 14 0 0
BITMAP
3F1F80
0C0600
0C0400
060800
061000
032000
01C000
018000
02C000
04C000
086000
106000
303000
FCFC00
ENDCHAR

STARTCHAR afii10040
ENCODING 198
SWIDTH 813 0
DWIDTH 16 0
BBX 16 16 1 -2
BITMAP
3F3F
0C0C
0C0C
0C0C
0C0C
1818
1818
1818
1818
1830
3030
3030
3030
FFFC
000C
0008
ENDCHAR

STARTCHAR afii10041
ENCODING 199
SWIDTH 771 0
DWIDTH 14 0
BBX 14 14 1 0
BITMAP
FCFC
3030
3030
3030
3030
6060
6060
60E0
3160
1E60
00C0
00C0
00C0
03F0
ENDCHAR

STARTCHAR afii10042
ENCODING 200
SWIDTH 1000 0
DWIDTH 19 0
BBX 20 14 0 0
BITMAP
3F7BF0
0C30C0
0C30C0
0C30C0
0C30C0
186180
186180
186180
186180
30C300
30C300
30C300
30C300
FFFFC0
ENDCHAR

STARTCHAR afii10043
ENCODING 201
SWIDTH 1000 0
DWIDTH 19 0
BBX 20 16 0 -2
BITMAP
3F7BF0
0C30C0
0C30C0
0C30C0
0C30C0
186180
186180
186180
186180
30C300
30C300
30C300
30C300
FFFFC0
0000C0
000080
ENDCHAR

STARTCHAR afii10044
ENCODING 202
SWIDTH 741 0
DWIDTH 14 0
BBX 13 14 1 0
BITMAP
7F80
C600
8600
0600
0600
0C00
0FE0
0C30
0C18
0C18
1818
1818
1830
7FC0
ENDCHAR

STARTCHAR afii10045
ENCODING 203
SWIDTH 979 0
DWIDTH 20 0
BBX 20 14 1 0
BITMAP
3F03F0
0C00C0
0C00C0
0C00C0
0C00C0
180180
1FC180
186180
183180
303300
303300
303300
306300
FF8FC0
ENDCHAR

STARTCHAR afii10046
ENCODING 204
SWIDTH 642 0
DWIDTH 13 0
BBX 12 14 1 0
BITMAP
3F00
0C00
0C00
0C00
0C00
1800
1FC0
1860
1830
3030
3030
3030
3060
FF80
ENDCHAR

STARTCHAR afii10047
ENCODING 205
SWIDTH 708 0
DWIDTH 14 0
BBX 12 14 2 0
BITMAP
0F80
30E0
2060
0030
0030
0030
07F0
0030
0030
0060
8060
C0C0
E180
3E00
ENDCHAR

STARTCHAR afii10048
ENCODING 206
SWIDTH 1135 0
DWIDTH 22 0
BBX 21 14 1 0
BITMAP
3F07C0
0C1820
0C3010
0C6018
186018
18C018
1FC018
18C018
18C018
30C030
30C030
304060
3020C0
FC1F00
ENDCHAR

STARTCHAR afii10049
ENCODING 207
SWIDTH 698 0
DWIDTH 13 0
BBX 15 14 0 0
BITMAP
03FE
0C18
1818
1818
1818
1830
0C30
03F0
0630
0C60
1860
3060
6060
E1F8
ENDCHAR

STARTCHAR afii10065
ENCODING 208
SWIDTH 521 0
DWIDTH 10 0
BBX 9 9 1 0
BITMAP
1D00
2300
6300
6300
C300
C600
C600
CE80
7300
ENDCHAR

STARTCHAR afii10066
ENCODING 209
SWIDTH 448 0
DWIDTH 9 0
BBX 9 14 1 0
BITMAP
0080
0100
0600
1800
2000
6E00
5300
E300
C300
C300
C200
C600
4C00
3000
ENDCHAR

STARTCHAR afii10067
ENCODING 210
SWIDTH 385 0
DWIDTH 7 0
BBX 6 9 1 0
BITMAP
18
2C
6C
48
F0
C8
CC
C8
70
ENDCHAR

STARTCHAR afii10068
ENCODING 211
SWIDTH 302 0
DWIDTH 6 0
BBX 5 9 1 0
BITMAP
30
58
18
18
30
40
C0
D0
60
ENDCHAR

STARTCHAR afii10069
ENCODING 212
SWIDTH 449 0
DWIDTH 9 0
BBX 8 14 1 0
BITMAP
10
08
04
06
02
1B
27
63
43
C3
C2
C6
CC
78
ENDCHAR

STARTCHAR afii10070
ENCODING 213
SWIDTH 385 0
DWIDTH 7 0
BBX 7 9 0 0
BITMAP
0C
36
66
7C
C0
C0
C0
E4
78
ENDCHAR

STARTCHAR afii10072
ENCODING 214
SWIDTH 875 0
DWIDTH 17 0
BBX 17 9 0 0
BITMAP
1C6780
266C80
466C00
06CC00
07F800
0CD800
0D9880
999900
F18E00
ENDCHAR

STARTCHAR afii10073
ENCODING 215
SWIDTH 365 0
DWIDTH 7 0
BBX 7 9 0 0
BITMAP
1C
26
06
04
18
0C
0C
98
70
ENDCHAR

STARTCHAR afii10074
ENCODING 216
SWIDTH 531 0
DWIDTH 10 0
BBX 9 9 1 0
BITMAP
6300
B300
3300
3300
6600
6600
6600
6E80
3700
ENDCHAR

STARTCHAR afii10075
ENCODING 217
SWIDTH 531 0
DWIDTH 10 0
BBX 9 12 1 0
BITMAP
3300
1E00
0000
6300
B300
3300
3300
6600
6600
6600
6E80
3700
ENDCHAR

STARTCHAR afii10076
ENCODING 218
SWIDTH 489 0
DWIDTH 9 0
BBX 9 9 1 0
BITMAP
7180
3280
3200
3400
7800
6C00
6C00
C600
C600
ENDCHAR

STARTCHAR afii10077
ENCODING 219
SWIDTH 490 0
DWIDTH 9 0
BBX 10 9 -1 0
BITMAP
01C0
02C0
04C0
0580
0980
0980
0B00
D340
6180
ENDCHAR

STARTCHAR afii10078
ENCODING 220
SWIDTH 586 0
DWIDTH 11 0
BBX 12 9 -1 0
BITMAP
0210
0630
0670
0EB0
0EB0
1760
1660
D6D0
64E0
ENDCHAR

STARTCHAR afii10079
ENCODING 221
SWIDTH 525 0
DWIDTH 9 0
BBX 8 9 1 0
BITMAP
E6
66
66
66
7E
CC
CC
CD
CE
ENDCHAR

STARTCHAR afii10080
ENCODING 222
SWIDTH 448 0
DWIDTH 9 0
BBX 8 9 1 0
BITMAP
1C
22
43
C3
C3
C3
C2
44
38
ENDCHAR

STARTCHAR afii10081
ENCODING 223
SWIDTH 531 0
DWIDTH 10 0
BBX 9 9 1 0
BITMAP
7600
BB00
3300
3300
3300
6600
6600
6680
6300
ENDCHAR

STARTCHAR afii10082
ENCODING 224
SWIDTH 490 0
DWIDTH 9 0
BBX 10 14 -1 -4
BITMAP
0800
0F00
3C80
4CC0
0CC0
18C0
18C0
18C0
1980
1E00
3000
3000
3000
FC00
ENDCHAR

STARTCHAR afii10083
ENCODING 225
SWIDTH 385 0
DWIDTH 7 0
BBX 7 9 1 0
BITMAP
1C
32
60
60
C0
C0
C0
E8
70
ENDCHAR

STARTCHAR afii10084
ENCODING 226
SWIDTH 771 0
DWIDTH 14 0
BBX 13 9 1 0
BITMAP
7760
BBB0
3330
3330
3330
6660
6660
6668
6630
ENDCHAR

STARTCHAR afii10085
ENCODING 227
SWIDTH 479 0
DWIDTH 9 0
BBX 10 13 -2 -4
BITMAP
1880
2CC0
0C40
0C40
0C40
0680
0680
0700
0300
0600
0600
8C00
7800
ENDCHAR

STARTCHAR afii10086
ENCODING 228
SWIDTH 625 0
DWIDTH 11 0
BBX 10 18 1 -4
BITMAP
00C0
0140
0300
0300
0600
0600
1F80
66C0
CCC0
CCC0
CCC0
CCC0
D980
7E00
1800
1800
B000
E000
ENDCHAR

STARTCHAR afii10087
ENCODING 229
SWIDTH 490 0
DWIDTH 9 0
BBX 9 9 0 0
BITMAP
3180
5A80
1C00
1800
0C00
0C00
1C00
A500
C200
ENDCHAR

STARTCHAR afii10088
ENCODING 230
SWIDTH 521 0
DWIDTH 10 0
BBX 9 11 1 -2
BITMAP
6300
B300
3300
3300
6600
6600
6600
6E80
3700
0400
0C00
ENDCHAR

STARTCHAR afii10089
ENCODING 231
SWIDTH 490 0
DWIDTH 9 0
BBX 8 9 0 0
BITMAP
73
B3
33
66
66
3C
0C
0D
06
ENDCHAR

STARTCHAR afii10090
ENCODING 232
SWIDTH 792 0
DWIDTH 13 0
BBX 12 9 2 0
BITMAP
6240
B260
3220
6420
C440
C440
CC40
D4D0
6360
ENDCHAR

STARTCHAR afii10091
ENCODING 233
SWIDTH 792 0
DWIDTH 13 0
BBX 12 11 2 -2
BITMAP
6240
B260
3220
6420
C440
C440
CC40
D4D0
6360
0040
00C0
ENDCHAR

STARTCHAR afii10092
ENCODING 234
SWIDTH 396 0
DWIDTH 8 0
BBX 8 9 0 0
BITMAP
7C
CC
88
18
1C
32
33
32
1C
ENDCHAR

STARTCHAR afii10093
ENCODING 235
SWIDTH 624 0
DWIDTH 12 0
BBX 11 9 1 0
BITMAP
71C0
30C0
30C0
60C0
70C0
C980
CD80
C9A0
70C0
ENDCHAR

STARTCHAR afii10094
ENCODING 236
SWIDTH 406 0
DWIDTH 7 0
BBX 6 9 1 0
BITMAP
70
30
30
60
70
C8
CC
C8
70
ENDCHAR

STARTCHAR afii10095
ENCODING 237
SWIDTH 396 0
DWIDTH 8 0
BBX 8 9 0 0
BITMAP
3C
42
03
03
1F
06
86
CC
38
ENDCHAR

STARTCHAR afii10096
ENCODING 238
SWIDTH 667 0
DWIDTH 13 0
BBX 12 9 1 0
BITMAP
E1C0
6220
6430
6C30
7C30
CC30
CC20
C440
C380
ENDCHAR

STARTCHAR afii10097
ENCODING 239
SWIDTH 542 0
DWIDTH 10 0
BBX 10 9 0 0
BITMAP
07C0
0980
1980
1980
0F00
1B00
1B00
D340
6180
ENDCHAR

STARTCHAR afii61352
ENCODING 240
SWIDTH 1031 0
DWIDTH 20 0
BBX 18 14 1 0
BITMAP
380700
0C0D00
0C0800
0C0800
061180
0612C0
0B16C0
0B26C0
09A6C0
11E680
10C300
10C000
B04000
E04F00
ENDCHAR

STARTCHAR afii10071
ENCODING 241
SWIDTH 385 0
DWIDTH 7 0
BBX 8 12 0 0
BITMAP
33
33
00
0C
36
66
7C
C0
C0
C0
E4
78
ENDCHAR

STARTCHAR afii10099
ENCODING 242
SWIDTH 510 0
DWIDTH 10 0
BBX 8 17 1 -3
BITMAP
10
70
30
7F
30
6E
73
63
63
63
C6
C6
C6
C6
06
04
08
ENDCHAR

STARTCHAR afii10100
ENCODING 243
SWIDTH 448 0
DWIDTH 7 0
BBX 8 12 0 0
BITMAP
06
0C
00
7F
33
32
30
30
60
60
60
F0
ENDCHAR

STARTCHAR afii10101
ENCODING 244
SWIDTH 406 0
DWIDTH 9 0
BBX 8 9 1 0
BITMAP
1E
21
60
60
F8
C0
C2
C6
78
ENDCHAR

STARTCHAR afii10102
ENCODING 245
SWIDTH 333 0
DWIDTH 6 0
BBX 5 9 1 0
BITMAP
38
68
60
60
30
30
30
B0
E0
ENDCHAR

STARTCHAR afii10103
ENCODING 246
SWIDTH 271 0
DWIDTH 5 0
BBX 5 14 0 0
BITMAP
18
18
00
00
00
60
B0
30
30
30
60
60
68
30
ENDCHAR

STARTCHAR afii10104
ENCODING 247
SWIDTH 271 0
DWIDTH 5 0
BBX 6 12 0 0
BITMAP
CC
CC
00
60
B0
30
30
30
60
60
68
30
ENDCHAR

STARTCHAR afii10105
ENCODING 248
SWIDTH 240 0
DWIDTH 5 0
BBX 7 18 -1 -4
BITMAP
06
06
00
00
00
18
2C
0C
0C
0C
18
18
18
18
30
30
B0
60
ENDCHAR

STARTCHAR afii10106
ENCODING 249
SWIDTH 663 0
DWIDTH 12 0
BBX 13 9 -1 0
BITMAP
01E0
0260
0460
08C0
08F0
1198
1190
2190
C0E0
ENDCHAR

STARTCHAR afii10107
ENCODING 250
SWIDTH 691 0
DWIDTH 11 0
BBX 10 9 1 0
BITMAP
E700
6300
6300
6600
7F00
CC80
CCC0
CC80
C700
ENDCHAR

STARTCHAR afii10108
ENCODING 251
SWIDTH 500 0
DWIDTH 10 0
BBX 9 14 1 0
BITMAP
1000
7000
3000
7F00
3000
6E00
7300
6300
6300
6300
C600
C600
C680
C300
ENDCHAR

STARTCHAR afii10109
ENCODING 252
SWIDTH 489 0
DWIDTH 9 0
BBX 9 12 1 0
BITMAP
0600
0C00
0000
7180
3280
3200
3400
7800
6C00
6C00
C600
C600
ENDCHAR

STARTCHAR section
ENCODING 253
SWIDTH 458 0
DWIDTH 9 0
BBX 9 18 0 -4
BITMAP
0700
0980
1080
1080
2800
2800
2C00
2400
3400
1400
1600
1200
1A00
0A00
8C00
8C00
C800
7000
ENDCHAR

STARTCHAR afii10110
ENCODING 254
SWIDTH 479 0
DWIDTH 9 0
BBX 10 16 -2 -4
BITMAP
0CC0
0780
0000
1880
2CC0
0C40
0C40
0C40
0680
0680
0700
0300
0600
0600
8C00
7800
ENDCHAR

STARTCHAR afii10193
ENCODING 255
SWIDTH 531 0
DWIDTH 10 0
BBX 9 11 1 -2
BITMAP
6300
B300
3300
3300
6600
6600
6600
6E80
3700
2000
6000
ENDCHAR

ENDFONT
