STARTFONT 2.1
FONT -Monotype-Plantin-Regular-R-Normal--36-360-75-75-P-203-iso8859-5
SIZE 36 75 75
FONTBOUNDINGBOX 45 42 -2 -9

STARTPROPERTIES 24
FOUNDRY "Monotype"
FAMILY_NAME "Plantin"
WEIGHT_NAME "Regular"
SLANT "R"
SETWIDTH_NAME "Normal"
ADD_STYLE_NAME ""
PIXEL_SIZE 36
POINT_SIZE 360
RESOLUTION_X 75
RESOLUTION_Y 75
SPACING "P"
AVERAGE_WIDTH 203
CHARSET_REGISTRY "iso8859"
CHARSET_ENCODING "5"
FACE_NAME "Plantin ISO Latin Cyrillic"
_DEC_DEVICE_FONTNAMES "PS=plantin-latcyrillic"
COPYRIGHT "Copyright (c) 1993 Monotype Typography Ltd."
CAP_HEIGHT 28
X_HEIGHT 18
WEIGHT 10
QUAD_WIDTH 26
DEFAULT_CHAR 160
FONT_DESCENT 9
FONT_ASCENT 33
ENDPROPERTIES

CHARS 191

STARTCHAR space
ENCODING 32
SWIDTH 250 0
DWIDTH 10 0
BBX 0 0 0 0
BITMAP
ENDCHAR

STARTCHAR exclam
ENCODING 33
SWIDTH 292 0
DWIDTH 11 0
BBX 5 26 3 0
BITMAP
78
78
78
78
78
78
78
78
78
30
30
30
30
30
30
30
30
30
10
00
00
70
F8
F8
F8
70
ENDCHAR

STARTCHAR quotedbl
ENCODING 34
SWIDTH 406 0
DWIDTH 15 0
BBX 11 11 2 15
BITMAP
60C0
F1E0
F1E0
F1E0
F1E0
61E0
60C0
60C0
60C0
60C0
60C0
ENDCHAR

STARTCHAR numbersign
ENCODING 35
SWIDTH 500 0
DWIDTH 19 0
BBX 17 27 1 0
BITMAP
030300
030300
030200
020200
020600
060600
060600
060400
040400
FFFF80
0C0C00
0C0C00
0C0800
080800
081800
181800
181800
FFFF80
101000
103000
303000
303000
302000
202000
206000
606000
606000
ENDCHAR

STARTCHAR dollar
ENCODING 36
SWIDTH 552 0
DWIDTH 21 0
BBX 16 30 2 -4
BITMAP
0420
07E0
1FF8
7C3C
642E
C42F
C426
E420
E420
F420
7E20
3FA0
1FF0
07FC
05FE
043E
042F
0427
0423
4423
E423
E427
F426
7C2C
3FF8
07E0
0420
0420
0420
0420
ENDCHAR

STARTCHAR percent
ENCODING 37
SWIDTH 875 0
DWIDTH 33 0
BBX 31 27 1 -1
BITMAP
1F000180
31800100
60C00300
60C00600
E0E00400
E0E00C00
E0E01800
E0E01000
E0E03000
60C06000
70C04000
3180C000
1F018000
00010000
000301F0
00060318
0006060C
000C060C
00180E0E
00180E0E
00300E0E
00600E0E
00600E0E
00C0060C
0180060C
01800318
030001F0
ENDCHAR

STARTCHAR ampersand
ENCODING 38
SWIDTH 750 0
DWIDTH 29 0
BBX 27 27 1 0
BITMAP
003C0000
00FE0000
038F0000
07078000
06038000
0E038000
0F030000
0F870000
07DC0000
07F80000
03F01FE0
01F81FC0
077C0700
0E7E0600
183F0600
381F0C00
700F8C00
7007D800
F007F000
F003E000
F001F000
F800F800
7C01F800
7F077E00
3FFE3F80
1FFC1FC0
07E007C0
ENDCHAR

STARTCHAR quoteright
ENCODING 39
SWIDTH 292 0
DWIDTH 11 0
BBX 6 10 3 16
BITMAP
70
F8
FC
7C
0C
0C
0C
18
70
E0
ENDCHAR

STARTCHAR parenleft
ENCODING 40
SWIDTH 385 0
DWIDTH 15 0
BBX 10 33 4 -7
BITMAP
00C0
01C0
0380
0600
0C00
1C00
3800
3000
7000
6000
6000
E000
E000
C000
C000
C000
C000
C000
C000
C000
E000
E000
6000
7000
7000
3000
1800
1C00
0E00
0700
0380
01C0
0080
ENDCHAR

STARTCHAR parenright
ENCODING 41
SWIDTH 385 0
DWIDTH 15 0
BBX 10 33 1 -7
BITMAP
E000
7000
3800
1C00
0E00
0600
0700
0300
0380
0180
0180
01C0
00C0
00C0
00C0
00C0
00C0
00C0
00C0
00C0
01C0
01C0
0180
0380
0300
0700
0600
0E00
1C00
3800
7000
E000
4000
ENDCHAR

STARTCHAR asterisk
ENCODING 42
SWIDTH 500 0
DWIDTH 19 0
BBX 16 16 1 12
BITMAP
0180
0180
0180
0180
01C0
01CF
FFFE
FFFC
1FF0
03E0
07F0
07F0
0F78
0E38
181C
100C
ENDCHAR

STARTCHAR plus
ENCODING 43
SWIDTH 667 0
DWIDTH 25 0
BBX 21 21 2 2
BITMAP
007000
007000
007000
007000
007000
007000
007000
007000
007000
FFFFF8
FFFFF8
FFFFF8
007000
007000
007000
007000
007000
007000
007000
007000
007000
ENDCHAR

STARTCHAR comma
ENCODING 44
SWIDTH 292 0
DWIDTH 11 0
BBX 7 12 2 -6
BITMAP
78
7C
7E
7E
0E
06
06
06
0C
1C
F8
C0
ENDCHAR

STARTCHAR minus
ENCODING 45
SWIDTH 667 0
DWIDTH 25 0
BBX 20 3 3 11
BITMAP
FFFFF0
FFFFF0
FFFFF0
ENDCHAR

STARTCHAR period
ENCODING 46
SWIDTH 292 0
DWIDTH 11 0
BBX 5 5 3 0
BITMAP
70
F8
F8
F8
70
ENDCHAR

STARTCHAR slash
ENCODING 47
SWIDTH 281 0
DWIDTH 11 0
BBX 11 27 0 -1
BITMAP
0060
0040
00C0
0080
0080
0180
0100
0300
0300
0200
0600
0600
0400
0C00
0C00
0800
1800
1800
1000
3000
3000
2000
6000
6000
4000
C000
C000
ENDCHAR

STARTCHAR zero
ENCODING 48
SWIDTH 552 0
DWIDTH 21 0
BBX 18 25 2 0
BITMAP
01E000
07F800
0C1C00
1C0E00
180700
380780
700780
700380
700380
7003C0
F003C0
F003C0
F003C0
F003C0
F003C0
F003C0
700380
700380
780380
780300
380700
1C0600
1E0C00
0F1800
03F000
ENDCHAR

STARTCHAR one
ENCODING 49
SWIDTH 552 0
DWIDTH 21 0
BBX 10 25 6 0
BITMAP
0600
1E00
FE00
3E00
1E00
1E00
1E00
1E00
1E00
1E00
1E00
1E00
1E00
1E00
1E00
1E00
1E00
1E00
1E00
1E00
1E00
1E00
1E00
3F00
FFC0
ENDCHAR

STARTCHAR two
ENCODING 50
SWIDTH 552 0
DWIDTH 21 0
BBX 17 25 2 0
BITMAP
03E000
0FF800
1FFC00
383E00
701E00
600F00
C00F00
C00F00
000F00
000E00
000E00
001C00
003C00
007800
006000
00C000
018000
030000
060000
0C0180
100100
300300
7FFF00
FFFF00
FFFE00
ENDCHAR

STARTCHAR three
ENCODING 51
SWIDTH 552 0
DWIDTH 21 0
BBX 17 25 1 0
BITMAP
03F800
0FFC00
1E3E00
381E00
600E00
400E00
001E00
001C00
003800
007000
01FC00
03FE00
061F00
000780
000780
000380
000380
000380
000780
000700
000F00
001E00
C07C00
7FF000
0F8000
ENDCHAR

STARTCHAR four
ENCODING 52
SWIDTH 552 0
DWIDTH 21 0
BBX 18 25 2 0
BITMAP
003C00
003C00
007C00
00DC00
00BC00
01BC00
033C00
023C00
063C00
0C3C00
183C00
183C00
303C00
603C00
403CC0
803D80
FFFF80
FFFF80
003C00
003C00
003C00
003C00
003C00
007E00
01FF80
ENDCHAR

STARTCHAR five
ENCODING 53
SWIDTH 552 0
DWIDTH 21 0
BBX 16 25 2 0
BITMAP
1FFF
1FFF
1FFE
3000
2000
2000
2000
6FC0
7FF0
7FF8
E07C
403E
001E
000F
000F
000F
000F
000F
000E
001E
003C
0078
00F0
FFE0
3F00
ENDCHAR

STARTCHAR six
ENCODING 54
SWIDTH 552 0
DWIDTH 21 0
BBX 17 25 2 0
BITMAP
001E00
00F800
03C000
070000
0E0000
1C0000
3C0000
380000
78F000
73FC00
761E00
F80F00
F00F00
F00780
F00780
F00780
F00780
700780
700700
780700
380700
1C0E00
0E1C00
07F800
01E000
ENDCHAR

STARTCHAR seven
ENCODING 55
SWIDTH 552 0
DWIDTH 21 0
BBX 16 25 2 0
BITMAP
7FFF
7FFF
7FFF
6003
C006
C004
000C
000C
0018
0018
0030
0030
0070
0060
00E0
00E0
01E0
01C0
01C0
03C0
03C0
03C0
0380
0380
0380
ENDCHAR

STARTCHAR eight
ENCODING 56
SWIDTH 552 0
DWIDTH 21 0
BBX 17 25 2 0
BITMAP
03E000
0FF800
1C1C00
380E00
700700
700700
700700
780700
7C0E00
3E0C00
1FD800
0FF000
07F800
1CFE00
383E00
700F00
E00780
E00380
E00380
E00380
F00380
700300
780600
1E1C00
0FF000
ENDCHAR

STARTCHAR nine
ENCODING 57
SWIDTH 552 0
DWIDTH 21 0
BBX 17 25 2 0
BITMAP
03C000
0FF000
1C3C00
381E00
700E00
700F00
700700
F00700
F00780
F00780
F00780
700780
780780
780F80
3C3B00
1FE700
078F00
000E00
001E00
001C00
003800
007000
01E000
1F8000
1C0000
ENDCHAR

STARTCHAR colon
ENCODING 58
SWIDTH 292 0
DWIDTH 11 0
BBX 5 18 3 0
BITMAP
70
F8
F8
F8
70
00
00
00
00
00
00
00
00
70
F8
F8
F8
70
ENDCHAR

STARTCHAR semicolon
ENCODING 59
SWIDTH 292 0
DWIDTH 11 0
BBX 7 23 2 -5
BITMAP
38
7C
7C
7C
38
00
00
00
00
00
00
10
7C
7C
7E
3E
06
06
06
06
0C
38
F0
ENDCHAR

STARTCHAR less
ENCODING 60
SWIDTH 667 0
DWIDTH 25 0
BBX 20 19 3 3
BITMAP
000030
0000F0
0007F0
001FC0
00FF00
03FC00
0FE000
7F8000
FC0000
E00000
FC0000
7F0000
1FE000
03F800
00FE00
003FC0
0007F0
0001F0
000030
ENDCHAR

STARTCHAR equal
ENCODING 61
SWIDTH 667 0
DWIDTH 25 0
BBX 20 12 3 6
BITMAP
FFFFF0
FFFFF0
FFFFF0
000000
000000
000000
000000
000000
000000
FFFFF0
FFFFF0
FFFFF0
ENDCHAR

STARTCHAR greater
ENCODING 62
SWIDTH 667 0
DWIDTH 25 0
BBX 20 19 3 3
BITMAP
800000
F00000
FC0000
7F0000
1FE000
03F800
00FF00
001FC0
0007F0
0000F0
0003F0
001FC0
007F00
03FC00
0FE000
7F8000
FE0000
F00000
C00000
ENDCHAR

STARTCHAR question
ENCODING 63
SWIDTH 385 0
DWIDTH 15 0
BBX 12 26 1 0
BITMAP
7C00
FE00
FF80
6380
00C0
0060
0060
0030
0030
0030
0070
01F0
0FF0
3FE0
3F80
3E00
1800
1000
1000
0000
0000
3800
7C00
7C00
7C00
3800
ENDCHAR

STARTCHAR at
ENCODING 64
SWIDTH 917 0
DWIDTH 35 0
BBX 33 35 1 -9
BITMAP
0003FC0000
001C038000
007000C000
00C0002000
0380001000
0700000800
0E00000C00
0C00000400
1800000400
1800F38600
30038B0200
30060B0200
600E070200
601C0E0200
60180E0200
C0380E0200
C0700E0200
C0701C0600
C0601C0400
C0E03C0C00
C0E0280800
C0E0581800
40E0B83000
60F3386000
607E38C180
203C1F0300
3000000200
1000000600
1800000C00
0C00000800
0600003000
0300006000
00C001C000
00380F0000
000FF80000
ENDCHAR

STARTCHAR A
ENCODING 65
SWIDTH 719 0
DWIDTH 27 0
BBX 27 26 0 0
BITMAP
001E0000
001F0000
001F0000
001F0000
00378000
00378000
0063C000
0063C000
0043E000
00C1E000
00C1E000
0180F000
0180F000
01007800
03FFF800
03FFFC00
06003C00
06003C00
04001E00
0C001E00
0C001F00
1C000F00
1C000F80
3C001F80
FF807FE0
FF807FE0
ENDCHAR

STARTCHAR B
ENCODING 66
SWIDTH 688 0
DWIDTH 26 0
BBX 23 26 1 0
BITMAP
FFFFC0
3F07F0
1F01F8
0F00F8
0F007C
0F007C
0F007C
0F007C
0F0078
0F00F0
0F01E0
0FFF80
0FFFC0
0F01F0
0F00F8
0F007C
0F003C
0F003E
0F003E
0F003E
0F003E
0F003C
0F007C
1F80F8
FFFFE0
FFFF80
ENDCHAR

STARTCHAR C
ENCODING 67
SWIDTH 781 0
DWIDTH 30 0
BBX 25 26 2 0
BITMAP
000FE000
00FFFE00
03E01F00
07800F00
0F000380
1E000380
3C000180
3C000080
78000000
78000000
78000000
F8000000
F8000000
F8000000
F8000000
F8000000
78000000
7C000000
7C000080
3E000180
1E000180
1F000380
07C00780
03F01F80
00FFFE00
001FC000
ENDCHAR

STARTCHAR D
ENCODING 68
SWIDTH 844 0
DWIDTH 32 0
BBX 29 26 1 0
BITMAP
FFFFF000
3F01FC00
1F003F00
0F000F80
0F0007C0
0F0003E0
0F0003E0
0F0001F0
0F0001F0
0F0000F8
0F0000F8
0F0000F8
0F0000F8
0F0000F8
0F0000F8
0F0000F8
0F0000F0
0F0000F0
0F0001E0
0F0001E0
0F0003C0
0F000780
0F800F00
1FC03E00
FFFFF800
FFFFC000
ENDCHAR

STARTCHAR E
ENCODING 69
SWIDTH 677 0
DWIDTH 26 0
BBX 24 26 1 0
BITMAP
FFFFFC
3F007C
1F001C
0F000C
0F000C
0F0000
0F0000
0F0000
0F0030
0F0030
0F0070
0FFFF0
0FFFF0
0F00F0
0F0070
0F0030
0F0030
0F0000
0F0000
0F0003
0F0003
0F0006
0F800E
1FC03E
FFFFFE
FFFFFC
ENDCHAR

STARTCHAR F
ENCODING 70
SWIDTH 656 0
DWIDTH 25 0
BBX 23 26 1 0
BITMAP
FFFFFE
3F003E
1F001E
0F000E
0F0006
0F0002
0F0000
0F0000
0F0030
0F0030
0F0070
0FFFF0
0FFFF0
0F00F0
0F0070
0F0030
0F0030
0F0000
0F0000
0F0000
0F0000
0F0000
0F0000
1F8000
3FC000
FFF800
ENDCHAR

STARTCHAR G
ENCODING 71
SWIDTH 833 0
DWIDTH 32 0
BBX 30 26 2 0
BITMAP
000FF000
007FFF00
01E01F80
03C00780
0F000380
1E0001C0
3E0000C0
3C0000C0
7C000000
78000000
78000000
F8000000
F8000000
F8007FFC
F8000FF0
F80007E0
780003C0
7C0003C0
7C0003C0
3E0003C0
1F0003C0
1F8003C0
07C003C0
03F00FC0
00FFFF00
000FE000
ENDCHAR

STARTCHAR H
ENCODING 72
SWIDTH 854 0
DWIDTH 32 0
BBX 30 26 1 0
BITMAP
FFF03FFC
3FC00FF0
1F8007E0
0F0003C0
0F0003C0
0F0003C0
0F0003C0
0F0003C0
0F0003C0
0F0003C0
0F0003C0
0F0003C0
0FFFFFC0
0FFFFFC0
0F0003C0
0F0003C0
0F0003C0
0F0003C0
0F0003C0
0F0003C0
0F0003C0
0F0003C0
0F0003C0
1F8007E0
3FC00FF0
FFF03FFC
ENDCHAR

STARTCHAR I
ENCODING 73
SWIDTH 375 0
DWIDTH 14 0
BBX 12 26 1 0
BITMAP
FFF0
3FC0
1F80
0F00
0F00
0F00
0F00
0F00
0F00
0F00
0F00
0F00
0F00
0F00
0F00
0F00
0F00
0F00
0F00
0F00
0F00
0F00
0F00
1F80
3FC0
FFF0
ENDCHAR

STARTCHAR J
ENCODING 74
SWIDTH 354 0
DWIDTH 13 0
BBX 15 32 -2 -6
BITMAP
1FFE
07F8
03F0
01E0
01E0
01E0
01E0
01E0
01E0
01E0
01E0
01E0
01E0
01E0
01E0
01E0
01E0
01E0
01E0
01E0
01E0
01E0
01E0
01E0
01E0
01E0
01C0
01C0
71C0
F980
7F00
3C00
ENDCHAR

STARTCHAR K
ENCODING 75
SWIDTH 802 0
DWIDTH 30 0
BBX 30 26 1 0
BITMAP
FFF0FFE0
3FC03FC0
1F801E00
0F003C00
0F003800
0F007000
0F00C000
0F018000
0F030000
0F0E0000
0F1C0000
0F380000
0F7C0000
0F7E0000
0F3F0000
0F0F8000
0F07E000
0F03F000
0F01F800
0F00FC00
0F007E00
0F003F00
0F001F80
1F800FE0
3FC007F8
FFF003FC
ENDCHAR

STARTCHAR L
ENCODING 76
SWIDTH 677 0
DWIDTH 26 0
BBX 25 26 1 0
BITMAP
FFF00000
3FC00000
1F800000
0F000000
0F000000
0F000000
0F000000
0F000000
0F000000
0F000000
0F000000
0F000000
0F000000
0F000000
0F000000
0F000000
0F000000
0F000000
0F000000
0F000080
0F000180
0F000380
0F800780
1FC00F00
FFFFFF00
FFFFFF00
ENDCHAR

STARTCHAR M
ENCODING 77
SWIDTH 1010 0
DWIDTH 38 0
BBX 37 26 1 0
BITMAP
1FC0003FC0
0FE0003F00
07E0003E00
03E0003E00
03E0003E00
02F0007E00
06F0006E00
06F000DE00
067800DE00
0678009E00
047C019F00
043C018F00
0C3E030F00
0C1E030F00
0C1F060F00
0C0F060F00
0C0F8C0F00
08078C0F80
0807D80F80
1803D80780
1803F00780
1801F00780
1801E00780
3C01E00FC0
7E00E01FF0
FF80C07FF8
ENDCHAR

STARTCHAR N
ENCODING 78
SWIDTH 844 0
DWIDTH 32 0
BBX 31 26 0 0
BITMAP
FE0007FE
7F0001FC
1F8000F0
0FC00070
07E00060
07F00060
06F80060
06FC0060
067E0060
063F0060
061F8020
060FC020
0607E020
0603F020
0601F820
0600FC20
06007E20
06003F20
06001F20
02000FA0
02000FF0
060007F0
070003F0
070001F0
1FC000F0
7FF00070
ENDCHAR

STARTCHAR O
ENCODING 79
SWIDTH 812 0
DWIDTH 31 0
BBX 27 26 2 0
BITMAP
001F0000
01FFF000
0780F800
0F003E00
1E001F00
3C000F00
38000F80
780007C0
780007C0
F00003C0
F00003E0
F00003E0
F00003E0
F00003E0
F80003E0
F80003E0
F80003C0
F80003C0
7C0003C0
7C000780
3E000700
1F000E00
0F801C00
07C07800
01FFE000
003E0000
ENDCHAR

STARTCHAR P
ENCODING 80
SWIDTH 635 0
DWIDTH 24 0
BBX 22 26 1 0
BITMAP
FFFFC0
3F07E0
1F01F0
0F00F8
0F007C
0F007C
0F007C
0F007C
0F007C
0F00F8
0F00F8
0F03F0
0F3FC0
0F3F00
0F0000
0F0000
0F0000
0F0000
0F0000
0F0000
0F0000
0F0000
0F0000
1F8000
3FC000
FFF000
ENDCHAR

STARTCHAR Q
ENCODING 81
SWIDTH 812 0
DWIDTH 31 0
BBX 28 34 3 -8
BITMAP
003F0000
01FFE000
0780F800
0F007C00
1E003E00
3C001F00
38000F00
78000F80
78000780
F00007C0
F00007C0
F00003C0
F00003C0
F00003C0
F00003C0
F80003C0
F80003C0
F80003C0
F8000780
7C000780
7C000700
3E000F00
1F000E00
0F801C00
07C07800
01FFE000
007F0000
001FC000
000FF000
0003FE00
0000FFF0
00003FF0
00000FF0
00000070
ENDCHAR

STARTCHAR R
ENCODING 82
SWIDTH 719 0
DWIDTH 27 0
BBX 27 26 1 0
BITMAP
FFFF8000
FFFFF000
1F01F800
0F007C00
0F007C00
0F003E00
0F003E00
0F003E00
0F003E00
0F003C00
0F007800
0F01F000
0FFFE000
0FFF0000
0F1F8000
0F07C000
0F07C000
0F03E000
0F01F000
0F00F800
0F007C00
0F007E00
0F003F00
1F801F80
3FC00FE0
FFF007E0
ENDCHAR

STARTCHAR S
ENCODING 83
SWIDTH 594 0
DWIDTH 23 0
BBX 19 26 1 0
BITMAP
01F800
0FFF00
1E07C0
3C01C0
3801C0
7800C0
7800C0
7C00C0
3E0000
3F8000
1FE000
0FF800
03FC00
01FF00
007F80
001FC0
0007C0
0003E0
C001E0
E001E0
E001E0
F001E0
7803C0
7C0F80
7FFE00
07F800
ENDCHAR

STARTCHAR T
ENCODING 84
SWIDTH 760 0
DWIDTH 29 0
BBX 28 26 0 0
BITMAP
FFFFFFF0
F80F03F0
F00F00F0
E00F0070
C00F0030
C00F0030
000F0000
000F0000
000F0000
000F0000
000F0000
000F0000
000F0000
000F0000
000F0000
000F0000
000F0000
000F0000
000F0000
000F0000
000F0000
000F0000
000F0000
001F8000
003FC000
00FFF000
ENDCHAR

STARTCHAR U
ENCODING 85
SWIDTH 833 0
DWIDTH 32 0
BBX 30 26 1 0
BITMAP
FFF00FFC
3FC003F0
1F8001E0
0F0000C0
0F0000C0
0F0000C0
0F0000C0
0F0000C0
0F0000C0
0F0000C0
0F0000C0
0F0000C0
0F0000C0
0F0000C0
0F0000C0
0F0000C0
0F0000C0
0F0000C0
0F0000C0
0F000180
07800180
07C00380
03E00700
01F83E00
00FFFC00
003FF000
ENDCHAR

STARTCHAR V
ENCODING 86
SWIDTH 708 0
DWIDTH 27 0
BBX 27 26 0 0
BITMAP
FFC03FE0
FFC03FE0
3F000780
1E000700
1F000700
0F000600
0F800600
07800C00
07C00C00
03C00800
03E01800
01E01800
01F03000
00F03000
00F06000
00F86000
00784000
007CC000
003CC000
003F8000
001F8000
001F0000
000F0000
000F0000
00060000
00060000
ENDCHAR

STARTCHAR W
ENCODING 87
SWIDTH 1000 0
DWIDTH 38 0
BBX 38 26 0 0
BITMAP
FFBFE7F3FC
FFBFE7F3FC
7E0FC1C0F0
3E07C1C0E0
3E07C180C0
1E03C300C0
1F03E300C0
0F01E60180
0F81F60180
0780FC0300
07C0FC0300
03C0780200
03C07C0600
01E03C0400
01E03E0C00
00F07E0C00
00F05F1800
00F8CF1800
00788FB000
007D87B000
003D07E000
003F03E000
001E03C000
001E01C000
000C01C000
000C018000
ENDCHAR

STARTCHAR X
ENCODING 88
SWIDTH 781 0
DWIDTH 30 0
BBX 30 26 0 0
BITMAP
FFF83FF0
FFF83FF0
0FC00F80
07C00F00
03E00E00
03E00C00
01F01800
00F83000
007C6000
003EC000
001FC000
001F8000
000F8000
0007C000
000FE000
0019F000
0030F800
0060FC00
00E07C00
00C03E00
01801F00
03000F80
07000FC0
1F800FE0
7FE07FFC
7FE07FFC
ENDCHAR

STARTCHAR Y
ENCODING 89
SWIDTH 719 0
DWIDTH 27 0
BBX 26 26 1 0
BITMAP
FFE07FC0
FFE07FC0
3F001F00
1F000E00
0F000E00
0F800C00
07C01800
03E03000
03E03000
01F06000
00F8C000
00F8C000
007D8000
003F0000
001F0000
001E0000
001E0000
001E0000
001E0000
001E0000
001E0000
001E0000
001E0000
003F0000
007F8000
01FFE000
ENDCHAR

STARTCHAR Z
ENCODING 90
SWIDTH 677 0
DWIDTH 26 0
BBX 24 26 1 0
BITMAP
3FFFFE
3E007C
3800F8
3000F8
3001F0
2003E0
0007C0
0007C0
000F80
001F00
003E00
003E00
007C00
00F800
01F000
01F000
03E000
07C000
0F8000
0F8003
1F0006
3E000E
3C001E
78007C
FFFFFC
FFFFFC
ENDCHAR

STARTCHAR bracketleft
ENCODING 91
SWIDTH 375 0
DWIDTH 14 0
BBX 8 33 5 -7
BITMAP
FF
F0
E0
E0
E0
E0
E0
E0
E0
E0
E0
E0
E0
E0
E0
E0
E0
E0
E0
E0
E0
E0
E0
E0
E0
E0
E0
E0
E0
E0
E0
F8
FF
ENDCHAR

STARTCHAR backslash
ENCODING 92
SWIDTH 281 0
DWIDTH 11 0
BBX 11 27 0 -1
BITMAP
C000
4000
6000
6000
2000
3000
3000
1000
1800
1800
0800
0C00
0C00
0400
0600
0600
0200
0300
0300
0100
0180
0180
0080
00C0
0040
0040
0060
ENDCHAR

STARTCHAR bracketright
ENCODING 93
SWIDTH 375 0
DWIDTH 14 0
BBX 8 33 1 -7
BITMAP
FF
0F
07
07
07
07
07
07
07
07
07
07
07
07
07
07
07
07
07
07
07
07
07
07
07
07
07
07
07
07
07
1F
FF
ENDCHAR

STARTCHAR asciicircum
ENCODING 94
SWIDTH 469 0
DWIDTH 18 0
BBX 16 14 1 12
BITMAP
0080
0180
03C0
0340
0660
0420
0C30
1818
1818
300C
2004
6006
C003
C003
ENDCHAR

STARTCHAR underscore
ENCODING 95
SWIDTH 500 0
DWIDTH 19 0
BBX 19 1 0 -7
BITMAP
FFFFE0
ENDCHAR

STARTCHAR quoteleft
ENCODING 96
SWIDTH 292 0
DWIDTH 11 0
BBX 6 10 3 16
BITMAP
1C
38
60
C0
C0
C0
F8
FC
7C
38
ENDCHAR

STARTCHAR a
ENCODING 97
SWIDTH 479 0
DWIDTH 18 0
BBX 16 18 2 0
BITMAP
07C0
3FF0
7078
E038
F038
F038
6038
0078
03F8
1F38
3838
7038
E038
E038
F0F8
FFBF
7F3E
1C1C
ENDCHAR

STARTCHAR b
ENCODING 98
SWIDTH 562 0
DWIDTH 21 0
BBX 20 27 0 0
BITMAP
040000
3C0000
FC0000
7C0000
1C0000
1C0000
1C0000
1C0000
1C0000
1C3E00
1CFF80
1DFFC0
1F07E0
1E01E0
1C00F0
1C00F0
1C00F0
1C0070
1C0070
1C0070
1C0070
1C00E0
1E00E0
1E01C0
1F0380
0FFE00
00F800
ENDCHAR

STARTCHAR c
ENCODING 99
SWIDTH 469 0
DWIDTH 18 0
BBX 15 18 2 0
BITMAP
03F0
0FFC
1C1E
300E
700E
6000
E000
E000
E000
E000
F000
F000
F800
7806
3E0C
3FFC
1FF8
07E0
ENDCHAR

STARTCHAR d
ENCODING 100
SWIDTH 573 0
DWIDTH 22 0
BBX 19 27 2 0
BITMAP
000100
001F00
003F00
000F00
000700
000700
000700
000700
000700
01E700
0FFF00
1C1F00
380F00
700F00
600700
E00700
E00700
E00700
E00700
E00700
F00700
F00700
780700
7C1F00
3FF7E0
1FE7E0
070600
ENDCHAR

STARTCHAR e
ENCODING 101
SWIDTH 469 0
DWIDTH 18 0
BBX 15 18 2 0
BITMAP
07E0
1CF0
3038
603C
603C
E01C
FFFE
E000
E000
E000
E000
E000
F000
7806
7C0C
3FF8
1FF0
07C0
ENDCHAR

STARTCHAR f
ENCODING 102
SWIDTH 312 0
DWIDTH 12 0
BBX 14 27 1 0
BITMAP
00F0
03FC
063C
0E1C
1C00
1C00
1C00
1C00
1C00
FFE0
FFE0
1C00
1C00
1C00
1C00
1C00
1C00
1C00
1C00
1C00
1C00
1C00
1C00
1C00
1E00
7F00
FFC0
ENDCHAR

STARTCHAR g
ENCODING 103
SWIDTH 500 0
DWIDTH 19 0
BBX 18 25 1 -7
BITMAP
07C000
1FFFC0
3C3FC0
381EC0
701E00
700E00
700E00
780E00
781E00
381C00
1E3800
0FE000
180000
300000
780000
7FFF00
3FFF80
1FFF80
3003C0
6001C0
E00180
E00380
F80F00
7FFC00
0FE000
ENDCHAR

STARTCHAR h
ENCODING 104
SWIDTH 562 0
DWIDTH 21 0
BBX 21 27 0 0
BITMAP
040000
3C0000
FC0000
7C0000
1C0000
1C0000
1C0000
1C0000
1C0000
1C1E00
1CFF80
1DFF80
1F07C0
1C03C0
1C01C0
1C01C0
1C01C0
1C01C0
1C01C0
1C01C0
1C01C0
1C01C0
1C01C0
1C01C0
1E03C0
7F07F0
FF8FF8
ENDCHAR

STARTCHAR i
ENCODING 105
SWIDTH 271 0
DWIDTH 10 0
BBX 8 26 1 0
BITMAP
18
3C
3C
18
00
00
00
00
0C
3C
FC
7C
1C
1C
1C
1C
1C
1C
1C
1C
1C
1C
1C
1C
7F
FF
ENDCHAR

STARTCHAR j
ENCODING 106
SWIDTH 260 0
DWIDTH 10 0
BBX 6 33 1 -7
BITMAP
18
3C
3C
18
00
00
00
00
0C
7C
FC
7C
1C
1C
1C
1C
1C
1C
1C
1C
1C
1C
1C
1C
1C
1C
3C
38
38
70
60
C0
80
ENDCHAR

STARTCHAR k
ENCODING 107
SWIDTH 510 0
DWIDTH 19 0
BBX 18 28 2 0
BITMAP
080000
780000
F80000
F80000
380000
380000
380000
380000
380000
380000
38FF80
387F00
383C00
383800
387000
38C000
398000
3B0000
3B8000
3BC000
39F000
38F800
387C00
383E00
381F00
780F80
FE07C0
FF03C0
ENDCHAR

STARTCHAR l
ENCODING 108
SWIDTH 271 0
DWIDTH 10 0
BBX 8 26 1 0
BITMAP
1C
7C
FC
3C
1C
1C
1C
1C
1C
1C
1C
1C
1C
1C
1C
1C
1C
1C
1C
1C
1C
1C
1C
1C
7E
FF
ENDCHAR

STARTCHAR m
ENCODING 109
SWIDTH 865 0
DWIDTH 33 0
BBX 31 18 1 0
BITMAP
0C3C0780
3CFF1FE0
FDFFBFF0
7F07E0F0
1C038070
1C038070
1C038070
1C038070
1C038070
1C038070
1C038070
1C038070
1C038070
1C038070
1C038070
1E038078
7F0FE1FC
FF9FF3FE
ENDCHAR

STARTCHAR n
ENCODING 110
SWIDTH 573 0
DWIDTH 22 0
BBX 21 18 0 0
BITMAP
0C3E00
7CFF80
FDFF80
7F83C0
1E03C0
1C01C0
1C01C0
1C01C0
1C01C0
1C01C0
1C01C0
1C01C0
1C01C0
1C01C0
1C01C0
1E03C0
7F07F0
FF8FF8
ENDCHAR

STARTCHAR o
ENCODING 111
SWIDTH 542 0
DWIDTH 21 0
BBX 17 18 2 0
BITMAP
07F000
0E3C00
381E00
380F00
700700
700780
F00780
F00380
F00380
F00380
F00380
700380
780380
780300
3C0700
1E0E00
0F3C00
03F000
ENDCHAR

STARTCHAR p
ENCODING 112
SWIDTH 562 0
DWIDTH 21 0
BBX 19 25 0 -7
BITMAP
0C3C00
3CFF00
FDFF80
3F07C0
1C03C0
1C01E0
1C01E0
1C00E0
1C00E0
1C00E0
1C00E0
1C00E0
1C00C0
1E01C0
1E0180
1F0700
1FFE00
1CF800
1C0000
1C0000
1C0000
1C0000
3C0000
7E0000
FF8000
ENDCHAR

STARTCHAR q
ENCODING 113
SWIDTH 562 0
DWIDTH 21 0
BBX 20 25 1 -7
BITMAP
07FC80
0E1F80
180F80
300780
700780
600380
E00380
E00380
E00380
E00380
F00380
F00380
F80380
780780
7E0F80
3FFB80
1FF380
07C380
000380
000380
000380
000380
0007C0
000FE0
001FF0
ENDCHAR

STARTCHAR r
ENCODING 114
SWIDTH 375 0
DWIDTH 14 0
BBX 14 18 1 0
BITMAP
0C70
3CF8
FDFC
7F38
1E18
1C00
1C00
1C00
1C00
1C00
1C00
1C00
1C00
1C00
1C00
1E00
7F00
FFC0
ENDCHAR

STARTCHAR s
ENCODING 115
SWIDTH 396 0
DWIDTH 15 0
BBX 12 18 2 0
BITMAP
1F80
71E0
60E0
E060
E060
F060
7800
7E00
3F80
0FC0
03E0
00F0
4070
4070
6070
6060
79E0
3F80
ENDCHAR

STARTCHAR t
ENCODING 116
SWIDTH 333 0
DWIDTH 13 0
BBX 11 21 1 0
BITMAP
0C00
1C00
3C00
7FE0
FFE0
1C00
1C00
1C00
1C00
1C00
1C00
1C00
1C00
1C00
1C00
1C00
1C00
1C00
1E00
1FE0
0FE0
ENDCHAR

STARTCHAR u
ENCODING 117
SWIDTH 573 0
DWIDTH 22 0
BBX 20 18 1 0
BITMAP
FC1F80
FC1F80
3C0780
1C0380
1C0380
1C0380
1C0380
1C0380
1C0380
1C0380
1C0380
1C0380
1C0380
1E0780
1E0F80
0FFBF0
0FF3F0
03C300
ENDCHAR

STARTCHAR v
ENCODING 118
SWIDTH 479 0
DWIDTH 18 0
BBX 18 18 0 0
BITMAP
FF1FC0
FF1FC0
380700
3C0200
1C0600
1C0600
1E0400
0E0C00
0F0800
071800
071000
07B000
03A000
03E000
01E000
01C000
01C000
008000
ENDCHAR

STARTCHAR w
ENCODING 119
SWIDTH 729 0
DWIDTH 28 0
BBX 27 18 0 0
BITMAP
FE3FC7E0
7C1F83C0
380F0180
38070180
3C070100
1C078300
1C0F8300
1E0B8200
0E1BC600
0F11C400
0731CC00
0731EC00
07E0E800
03E0F800
03C07000
01C07000
01807000
01802000
ENDCHAR

STARTCHAR x
ENCODING 120
SWIDTH 500 0
DWIDTH 19 0
BBX 19 18 0 0
BITMAP
FF1FC0
FF1FC0
3C0700
1E0600
1F0C00
0F1800
07B000
03E000
00E000
01F000
03F800
077C00
063C00
0C1E00
180F00
380F80
FE3FE0
FE3FE0
ENDCHAR

STARTCHAR y
ENCODING 121
SWIDTH 479 0
DWIDTH 18 0
BBX 18 25 0 -7
BITMAP
FF1FC0
7C0780
3C0300
3C0200
1C0600
1E0600
0E0400
0F0C00
070800
070800
079800
039000
03F000
01F000
01E000
00E000
00C000
00C000
00C000
008000
018000
710000
7F0000
7E0000
380000
ENDCHAR

STARTCHAR z
ENCODING 122
SWIDTH 437 0
DWIDTH 17 0
BBX 15 19 1 0
BITMAP
4000
7FFE
781C
603C
4078
00F0
00F0
01E0
03C0
03C0
0780
0F00
0F00
1E02
3C06
3C06
780E
F07E
FFFC
ENDCHAR

STARTCHAR braceleft
ENCODING 123
SWIDTH 479 0
DWIDTH 18 0
BBX 10 34 4 -8
BITMAP
01C0
0200
0400
0C00
0C00
1C00
1C00
1C00
1E00
0E00
0E00
0E00
0C00
0C00
0800
3000
C000
6000
1800
0800
0C00
0E00
0E00
0E00
1E00
1C00
1C00
1C00
1C00
0C00
0C00
0600
0300
00C0
ENDCHAR

STARTCHAR bar
ENCODING 124
SWIDTH 198 0
DWIDTH 8 0
BBX 2 34 3 -8
BITMAP
C0
C0
C0
C0
C0
C0
C0
C0
C0
C0
C0
C0
C0
C0
C0
C0
C0
C0
C0
C0
C0
C0
C0
C0
C0
C0
C0
C0
C0
C0
C0
C0
C0
C0
ENDCHAR

STARTCHAR braceright
ENCODING 125
SWIDTH 479 0
DWIDTH 18 0
BBX 10 34 4 -8
BITMAP
E000
1000
0800
0C00
0C00
0E00
0E00
0E00
0E00
1C00
1C00
1C00
0C00
0C00
0400
0300
00C0
0180
0200
0400
0C00
0C00
1C00
1C00
1C00
0E00
0E00
0E00
0E00
0C00
0C00
1800
3000
C000
ENDCHAR

STARTCHAR asciitilde
ENCODING 126
SWIDTH 542 0
DWIDTH 21 0
BBX 19 6 1 10
BITMAP
1E0020
3F8060
7FF040
C1FFC0
807F80
800E00
ENDCHAR

STARTCHAR space
ENCODING 160
SWIDTH 250 0
DWIDTH 11 0
BBX 0 0 0 0
BITMAP
ENDCHAR

STARTCHAR afii10023
ENCODING 161
SWIDTH 677 0
DWIDTH 26 0
BBX 24 32 1 0
BITMAP
0781E0
0781E0
0781E0
0780E0
000000
000000
FFFFFC
3F007C
1F001C
0F000C
0F000C
0F0000
0F0000
0F0000
0F0030
0F0030
0F0070
0FFFF0
0FFFF0
0F0070
0F0030
0F0030
0F0010
0F0000
0F0000
0F0003
0F0003
0F0007
0F800E
1FC03E
FFFFFE
FFFFFE
ENDCHAR

STARTCHAR afii10051
ENCODING 162
SWIDTH 823 0
DWIDTH 31 0
BBX 29 26 1 0
BITMAP
FFFFFC00
F8787C00
E0781C00
C0780C00
C0780600
80780600
00780000
00780000
00780000
00780000
00783E00
0079FF80
007BFFE0
007E03F0
007C01F0
007800F8
007800F8
00780078
00780078
00780078
00780078
00781070
007878F0
00FC78E0
01FE3FC0
07FF0E00
ENDCHAR

STARTCHAR afii10052
ENCODING 163
SWIDTH 635 0
DWIDTH 24 0
BBX 22 33 1 0
BITMAP
003F00
007C00
00F000
00E000
018000
000000
000000
FFFFFC
3FC1FC
1F807C
0F003C
0F001C
0F000C
0F0004
0F0000
0F0000
0F0000
0F0000
0F0000
0F0000
0F0000
0F0000
0F0000
0F0000
0F0000
0F0000
0F0000
0F0000
0F0000
0F0000
1F8000
3FC000
FFF800
ENDCHAR

STARTCHAR afii10053
ENCODING 164
SWIDTH 729 0
DWIDTH 28 0
BBX 25 26 2 0
BITMAP
001FE000
00FFFE00
03C03F00
07800F00
1E000700
1E000300
3C000180
78000000
78000000
F8000000
F8000000
F8000000
FFFF8000
F8000000
F8000000
F8000000
F8000000
78000000
7C000000
3C000300
3E000780
1F000F80
0F801F80
03E03F00
00FFFC00
001FC000
ENDCHAR

STARTCHAR afii10054
ENCODING 165
SWIDTH 594 0
DWIDTH 23 0
BBX 19 26 1 0
BITMAP
01F800
0FFF00
1E07C0
3C01C0
3801C0
7800C0
7800C0
7C00C0
3E0000
3F8000
1FE000
0FF800
03FC00
01FF00
007F80
001FC0
0007C0
0003E0
C001E0
E001E0
E001E0
F001E0
7803C0
7C0F80
7FFE00
07F800
ENDCHAR

STARTCHAR afii10055
ENCODING 166
SWIDTH 375 0
DWIDTH 14 0
BBX 12 26 1 0
BITMAP
FFF0
3FC0
1F80
0F00
0F00
0F00
0F00
0F00
0F00
0F00
0F00
0F00
0F00
0F00
0F00
0F00
0F00
0F00
0F00
0F00
0F00
0F00
0F00
1F80
3FC0
FFF0
ENDCHAR

STARTCHAR afii10056
ENCODING 167
SWIDTH 375 0
DWIDTH 14 0
BBX 14 32 0 0
BITMAP
F03C
F03C
F03C
703C
0000
0000
7FF8
1FE0
0FC0
0780
0780
0780
0780
0780
0780
0780
0780
0780
0780
0780
0780
0780
0780
0780
0780
0780
0780
0780
0780
0FC0
1FE0
7FF8
ENDCHAR

STARTCHAR afii10057
ENCODING 168
SWIDTH 354 0
DWIDTH 13 0
BBX 15 32 -2 -6
BITMAP
1FFE
07F8
03F0
01E0
01E0
01E0
01E0
01E0
01E0
01E0
01E0
01E0
01E0
01E0
01E0
01E0
01E0
01E0
01E0
01E0
01E0
01E0
01E0
01E0
01E0
01E0
01C0
01C0
71C0
F980
7F00
3C00
ENDCHAR

STARTCHAR afii10058
ENCODING 169
SWIDTH 986 0
DWIDTH 37 0
BBX 37 26 0 0
BITMAP
07FFFFE000
01F07F8000
00E03E0000
00401E0000
00401E0000
00401E0000
00401E0000
00401E0000
00401E0000
00401E0000
00401E0000
00401FFE00
00401FFF80
00401E07E0
00401E01F0
00401E01F0
00401E00F0
00C01E00F8
00C01E00F8
00C01E00F8
00801E00F8
41801E00F0
F1803E01F0
FF007F03E0
7E01FF8FC0
3801FFFF00
ENDCHAR

STARTCHAR afii10059
ENCODING 170
SWIDTH 1015 0
DWIDTH 39 0
BBX 37 26 1 0
BITMAP
FFF1FFC000
FFF1FFC000
1F807E0000
0F003C0000
0F003C0000
0F003C0000
0F003C0000
0F003C0000
0F003C0000
0F003C0000
0F003C0000
0F003C0000
0FFFFFFE00
0FFFFFFFC0
0F003C07E0
0F003C01F0
0F003C01F0
0F003C00F8
0F003C00F8
0F003C00F8
0F003C00F8
0F003C00F0
0F003C01F0
0F007E03E0
3FC0FF0FC0
FFF1FFFF00
ENDCHAR

STARTCHAR afii10060
ENCODING 171
SWIDTH 823 0
DWIDTH 31 0
BBX 30 26 1 0
BITMAP
FFFFFC00
F8787C00
E0781C00
C0780C00
C0780C00
80780400
00780000
00780000
00780000
00780000
00780000
00787C00
0079FF00
007BFF80
007E0FC0
007C07C0
007803C0
007803C0
007803C0
007803C0
007803C0
007803C0
007803C0
00FC07E0
01FE0FF0
07FF1FFC
ENDCHAR

STARTCHAR afii10061
ENCODING 172
SWIDTH 750 0
DWIDTH 29 0
BBX 27 33 1 0
BITMAP
000FC000
001F0000
001E0000
00380000
00700000
00000000
00000000
FFF00F80
3FC01FC0
1F803FC0
0F003180
0F002000
0F006000
0F004000
0F004000
0F00C000
0F008000
0F018000
0F030000
0FFF0000
0F0F8000
0F07C000
0F03E000
0F01E000
0F01F000
0F00F800
0F007800
0F007C00
0F003E00
0F001E00
1F800F00
3FC00FC0
FFF007E0
ENDCHAR

STARTCHAR hyphen
ENCODING 173
SWIDTH 365 0
DWIDTH 14 0
BBX 12 3 1 8
BITMAP
FFF0
FFF0
FFF0
ENDCHAR

STARTCHAR afii10062
ENCODING 174
SWIDTH 750 0
DWIDTH 29 0
BBX 29 33 0 0
BITMAP
00600E00
00F00E00
00F81E00
007C7C00
001FF800
00000000
00000000
FFE007F8
FFE007F8
3F0001E0
1F8001C0
0F800180
07C00100
07C00300
03E00200
01E00600
01F00400
00F80C00
00780800
007C1800
003E1000
001E3000
001F6000
000FC000
0007C000
00078000
00038000
00010000
02030000
07860000
07CE0000
07FC0000
03F00000
ENDCHAR

STARTCHAR afii10145
ENCODING 175
SWIDTH 854 0
DWIDTH 32 0
BBX 30 32 1 -6
BITMAP
FFF03FFC
3FC00FF0
1F8007E0
0F0003C0
0F0003C0
0F0003C0
0F0003C0
0F0003C0
0F0003C0
0F0003C0
0F0003C0
0F0003C0
0F0003C0
0F0003C0
0F0003C0
0F0003C0
0F0003C0
0F0003C0
0F0003C0
0F0003C0
0F0003C0
0F0003C0
0F0003C0
1F8007E0
3FC00FF0
FFFFFFFC
00078000
00078000
00078000
00078000
00078000
00078000
ENDCHAR

STARTCHAR afii10017
ENCODING 176
SWIDTH 719 0
DWIDTH 27 0
BBX 27 26 0 0
BITMAP
001E0000
001F0000
001F0000
001F0000
00378000
00378000
0063C000
0063C000
0043E000
00C1E000
00C1E000
0180F000
0180F000
01007800
03FFF800
03FFFC00
06003C00
06003C00
04001E00
0C001E00
0C001F00
1C000F00
1C000F80
3C001F80
FF807FE0
FF807FE0
ENDCHAR

STARTCHAR afii10018
ENCODING 177
SWIDTH 656 0
DWIDTH 25 0
BBX 22 26 1 0
BITMAP
FFFFE0
3FC7E0
1F81F0
0F0070
0F0070
0F0030
0F0010
0F0000
0F0000
0F0000
0F0000
0F0000
0FFF00
0FFFC0
0F03F0
0F00F8
0F00F8
0F007C
0F007C
0F007C
0F007C
0F007C
0F00F8
1F81F0
3FC3E0
FFFF80
ENDCHAR

STARTCHAR afii10019
ENCODING 178
SWIDTH 688 0
DWIDTH 26 0
BBX 23 26 1 0
BITMAP
FFFFC0
3F07F0
1F01F8
0F00F8
0F007C
0F007C
0F007C
0F007C
0F0078
0F00F0
0F01E0
0FFF80
0FFFC0
0F01F0
0F00F8
0F007C
0F003C
0F003E
0F003E
0F003E
0F003E
0F003C
0F007C
1F80F8
FFFFE0
FFFF80
ENDCHAR

STARTCHAR afii10020
ENCODING 179
SWIDTH 635 0
DWIDTH 24 0
BBX 22 26 1 0
BITMAP
FFFFFC
3FC1FC
1F807C
0F003C
0F001C
0F000C
0F0004
0F0000
0F0000
0F0000
0F0000
0F0000
0F0000
0F0000
0F0000
0F0000
0F0000
0F0000
0F0000
0F0000
0F0000
0F0000
0F0000
1F8000
3FC000
FFF800
ENDCHAR

STARTCHAR afii10021
ENCODING 180
SWIDTH 792 0
DWIDTH 30 0
BBX 29 32 0 -6
BITMAP
07FFFFF8
01F83FC0
00E01F80
00600F00
00600F00
00400F00
00400F00
00400F00
00400F00
00400F00
00400F00
00400F00
00400F00
00400F00
00400F00
00C00F00
00C00F00
00C00F00
00800F00
00800F00
00800F00
01800F00
01800F00
03801F80
07C03FC0
FFFFFFF8
FC0001F8
F0000078
E0000038
C0000018
C0000018
C0000018
ENDCHAR

STARTCHAR afii10022
ENCODING 181
SWIDTH 677 0
DWIDTH 26 0
BBX 24 26 1 0
BITMAP
FFFFFC
3F007C
1F001C
0F000C
0F000C
0F0000
0F0000
0F0000
0F0030
0F0030
0F0070
0FFFF0
0FFFF0
0F00F0
0F0070
0F0030
0F0030
0F0000
0F0000
0F0003
0F0003
0F0006
0F800E
1FC03E
FFFFFE
FFFFFC
ENDCHAR

STARTCHAR afii10024
ENCODING 182
SWIDTH 1031 0
DWIDTH 39 0
BBX 38 26 1 0
BITMAP
3C07FF80F0
7F01FE03F8
7F00FC03F8
3180780630
0080780400
00C0780C00
00C0780C00
0040780800
0060781800
0060781800
0030783000
0018786000
001FFFE000
003E79F000
007C78F800
00F8787C00
00F0783C00
01F0781E00
03E0781F00
03C0780F00
0780780780
0F807807C0
1F007803E0
1E00FC01F0
7C01FE00F8
FC07FF80FC
ENDCHAR

STARTCHAR afii10025
ENCODING 183
SWIDTH 667 0
DWIDTH 25 0
BBX 23 26 1 0
BITMAP
01FE00
1FFFC0
3F01F0
3C0078
38007C
38003C
30003C
30003C
00007C
000078
0000F0
00FF80
00FFE0
0000F8
00007C
00003C
00003E
00003E
70003E
F8003E
F8003C
FC007C
7C00F8
3F03F0
0FFFC0
00FC00
ENDCHAR

STARTCHAR afii10026
ENCODING 184
SWIDTH 854 0
DWIDTH 32 0
BBX 30 26 1 0
BITMAP
FFF03FFC
3FC00FF0
1F8007E0
0F0003C0
0F0007C0
0F000FC0
0F000BC0
0F001BC0
0F0033C0
0F0063C0
0F00C3C0
0F0183C0
0F0103C0
0F0203C0
0F0603C0
0F0C03C0
0F1803C0
0F3003C0
0F6003C0
0F4003C0
0F8003C0
0F8003C0
0F0003C0
1F8007E0
3FC00FF0
FFF03FFC
ENDCHAR

STARTCHAR afii10027
ENCODING 185
SWIDTH 854 0
DWIDTH 32 0
BBX 30 33 1 0
BITMAP
00C00C00
01E01C00
00F03C00
00F87C00
003FF000
00000000
00000000
FFF03FFC
3FC00FF0
1F8007E0
0F0003C0
0F0007C0
0F000FC0
0F000BC0
0F001BC0
0F0033C0
0F0063C0
0F00C3C0
0F0183C0
0F0103C0
0F0203C0
0F0603C0
0F0C03C0
0F1803C0
0F3003C0
0F6003C0
0F4003C0
0F8003C0
0F8003C0
0F0003C0
1F8007E0
3FC00FF0
FFF03FFC
ENDCHAR

STARTCHAR afii10028
ENCODING 186
SWIDTH 750 0
DWIDTH 29 0
BBX 27 26 1 0
BITMAP
FFF00F80
3FC01FC0
1F803FC0
0F003180
0F002000
0F006000
0F004000
0F004000
0F00C000
0F008000
0F018000
0F030000
0FFF0000
0F0F8000
0F07C000
0F03E000
0F01E000
0F01F000
0F00F800
0F007800
0F007C00
0F003E00
0F001E00
1F800F00
3FC00FC0
FFF007E0
ENDCHAR

STARTCHAR afii10029
ENCODING 187
SWIDTH 760 0
DWIDTH 29 0
BBX 28 26 0 0
BITMAP
07FFFFF0
01F03FC0
00E01F80
00400F00
00400F00
00400F00
00400F00
00400F00
00400F00
00400F00
00400F00
00400F00
00400F00
00400F00
00400F00
00400F00
00400F00
00400F00
00C00F00
00C00F00
00800F00
00800F00
E1800F00
F3001F80
FE003FC0
7C00FFF0
ENDCHAR

STARTCHAR afii10030
ENCODING 188
SWIDTH 1010 0
DWIDTH 38 0
BBX 37 26 1 0
BITMAP
1FC0003FC0
0FE0003F00
07E0003E00
03E0003E00
03E0003E00
02F0007E00
06F0006E00
06F000DE00
067800DE00
0678009E00
047C019F00
043C018F00
0C3E030F00
0C1E030F00
0C1F060F00
0C0F060F00
0C0F8C0F00
08078C0F80
0807D80F80
1803D80780
1803F00780
1801F00780
1801E00780
3C01E00FC0
7E00E01FF0
FF80C07FF8
ENDCHAR

STARTCHAR afii10031
ENCODING 189
SWIDTH 854 0
DWIDTH 32 0
BBX 30 26 1 0
BITMAP
FFF03FFC
3FC00FF0
1F8007E0
0F0003C0
0F0003C0
0F0003C0
0F0003C0
0F0003C0
0F0003C0
0F0003C0
0F0003C0
0F0003C0
0FFFFFC0
0FFFFFC0
0F0003C0
0F0003C0
0F0003C0
0F0003C0
0F0003C0
0F0003C0
0F0003C0
0F0003C0
0F0003C0
1F8007E0
3FC00FF0
FFF03FFC
ENDCHAR

STARTCHAR afii10032
ENCODING 190
SWIDTH 813 0
DWIDTH 31 0
BBX 27 26 2 0
BITMAP
001F0000
01FFF000
0780F800
0F003E00
1E001F00
3C000F00
38000F80
780007C0
780007C0
F00003C0
F00003E0
F00003E0
F00003E0
F00003E0
F80003E0
F80003E0
F80003C0
F80003C0
7C0003C0
7C000780
3E000700
1F000E00
0F801C00
07C07800
01FFE000
003E0000
ENDCHAR

STARTCHAR afii10033
ENCODING 191
SWIDTH 854 0
DWIDTH 32 0
BBX 30 26 1 0
BITMAP
FFFFFFFC
3FC00FF0
1F8007E0
0F0003C0
0F0003C0
0F0003C0
0F0003C0
0F0003C0
0F0003C0
0F0003C0
0F0003C0
0F0003C0
0F0003C0
0F0003C0
0F0003C0
0F0003C0
0F0003C0
0F0003C0
0F0003C0
0F0003C0
0F0003C0
0F0003C0
0F0003C0
1F8007E0
3FC00FF0
FFF03FFC
ENDCHAR

STARTCHAR afii10034
ENCODING 192
SWIDTH 635 0
DWIDTH 24 0
BBX 22 26 1 0
BITMAP
FFFFC0
3F07E0
1F01F0
0F00F8
0F007C
0F007C
0F007C
0F007C
0F007C
0F00F8
0F00F8
0F03F0
0F3FC0
0F3F00
0F0000
0F0000
0F0000
0F0000
0F0000
0F0000
0F0000
0F0000
0F0000
1F8000
3FC000
FFF000
ENDCHAR

STARTCHAR afii10035
ENCODING 193
SWIDTH 781 0
DWIDTH 30 0
BBX 25 26 2 0
BITMAP
000FE000
00FFFE00
03E01F00
07800F00
0F000380
1E000380
3C000180
3C000080
78000000
78000000
78000000
F8000000
F8000000
F8000000
F8000000
F8000000
78000000
7C000000
7C000080
3E000180
1E000180
1F000380
07C00780
03F01F80
00FFFE00
001FC000
ENDCHAR

STARTCHAR afii10036
ENCODING 194
SWIDTH 760 0
DWIDTH 29 0
BBX 28 26 0 0
BITMAP
FFFFFFF0
F80F03F0
F00F00F0
E00F0070
C00F0030
C00F0030
000F0000
000F0000
000F0000
000F0000
000F0000
000F0000
000F0000
000F0000
000F0000
000F0000
000F0000
000F0000
000F0000
000F0000
000F0000
000F0000
000F0000
001F8000
003FC000
00FFF000
ENDCHAR

STARTCHAR afii10037
ENCODING 195
SWIDTH 750 0
DWIDTH 29 0
BBX 29 26 0 0
BITMAP
FFE007F8
FFE007F8
3F0001E0
1F8001C0
0F800180
07C00100
07C00300
03E00200
01E00600
01F00400
00F80C00
00780800
007C1800
003E1000
001E3000
001F6000
000FC000
0007C000
00078000
00038000
00010000
02030000
07860000
07CE0000
07FC0000
03F00000
ENDCHAR

STARTCHAR afii10038
ENCODING 196
SWIDTH 974 0
DWIDTH 37 0
BBX 34 26 1 0
BITMAP
001FFE0000
0007F00000
0001E00000
0001E00000
003FFF0000
03FFFFF000
0F81E03C00
3E01E01F00
7C01E00F80
7801E00780
F801E003C0
F001E003C0
F001E003C0
F001E003C0
F001E003C0
F801E007C0
7801E00780
3C01E00F00
1E01E01E00
0F81E07C00
03FFFFE000
001FFE0000
0001E00000
0003F00000
0007F80000
001FFE0000
ENDCHAR

STARTCHAR afii10039
ENCODING 197
SWIDTH 781 0
DWIDTH 30 0
BBX 30 26 0 0
BITMAP
FFF83FF0
FFF83FF0
1FC00F80
07C00F00
03E00E00
03E00C00
01F01800
00F83000
007C6000
003EC000
001FC000
001F8000
000F8000
0007C000
000FE000
0019F000
0030F800
0060FC00
00E07C00
00C03E00
01801F00
03000F80
07000FC0
1F800FE0
7FE07FFC
7FE07FFC
ENDCHAR

STARTCHAR afii10040
ENCODING 198
SWIDTH 854 0
DWIDTH 32 0
BBX 31 32 1 -6
BITMAP
FFF03FFC
3FC00FF0
1F8007E0
0F0003C0
0F0003C0
0F0003C0
0F0003C0
0F0003C0
0F0003C0
0F0003C0
0F0003C0
0F0003C0
0F0003C0
0F0003C0
0F0003C0
0F0003C0
0F0003C0
0F0003C0
0F0003C0
0F0003C0
0F0003C0
0F0003C0
0F0003C0
1F8007E0
3FC00FF0
FFFFFFFE
0000003E
0000001E
0000000E
00000006
00000006
00000006
ENDCHAR

STARTCHAR afii10041
ENCODING 199
SWIDTH 854 0
DWIDTH 32 0
BBX 30 26 1 0
BITMAP
FFF03FFC
3FC00FF0
1F8007E0
0F0003C0
0F0003C0
0F0003C0
0F0003C0
0F0003C0
0F0003C0
0F0003C0
0F0003C0
0F0003C0
0F8007C0
07800FC0
07C01BC0
03F033C0
00FFE3C0
003F03C0
000003C0
000003C0
000003C0
000003C0
000003C0
000007E0
00000FF0
00003FFC
ENDCHAR

STARTCHAR afii10042
ENCODING 200
SWIDTH 1052 0
DWIDTH 40 0
BBX 36 26 2 0
BITMAP
FFC7FE3FF0
FFC7FE3FF0
3F01F80FC0
1E00F00780
1E00F00780
1E00F00780
1E00F00780
1E00F00780
1E00F00780
1E00F00780
1E00F00780
1E00F00780
1E00F00780
1E00F00780
1E00F00780
1E00F00780
1E00F00780
1E00F00780
1E00F00780
1E00F00780
1E00F00780
1E00F00780
1E00F00780
3F01F80FC0
7F83FC1FE0
FFFFFFFFF0
ENDCHAR

STARTCHAR afii10043
ENCODING 201
SWIDTH 1052 0
DWIDTH 40 0
BBX 37 32 2 -6
BITMAP
FFC7FE3FF0
FFC7FE3FF0
3F01F80FC0
1E00F00780
1E00F00780
1E00F00780
1E00F00780
1E00F00780
1E00F00780
1E00F00780
1E00F00780
1E00F00780
1E00F00780
1E00F00780
1E00F00780
1E00F00780
1E00F00780
1E00F00780
1E00F00780
1E00F00780
1E00F00780
1E00F00780
1E00F00780
3F01F80FC0
7F83FC1FE0
FFFFFFFFF8
00000000F8
0000000078
0000000038
0000000018
0000000018
0000000018
ENDCHAR

STARTCHAR afii10044
ENCODING 202
SWIDTH 775 0
DWIDTH 29 0
BBX 28 26 1 0
BITMAP
7FFFC000
7C3F0000
F83E0000
F03C0000
E03C0000
C03C0000
803C0000
003C0000
003C0000
003C0000
003C0000
003C0000
003FFC00
003FFF80
003C0FC0
003C03E0
003C03E0
003C01F0
003C01F0
003C01F0
003C01F0
003C01F0
003C03E0
007E07C0
00FF0F80
03FFFE00
ENDCHAR

STARTCHAR afii10045
ENCODING 203
SWIDTH 1031 0
DWIDTH 39 0
BBX 37 26 1 0
BITMAP
FFF0007FF8
3FC0001FE0
1F80000FC0
0F00000780
0F00000780
0F00000780
0F00000780
0F00000780
0F00000780
0F00000780
0F00000780
0F00000780
0FFF000780
0FFFC00780
0F03F00780
0F00F80780
0F00F80780
0F007C0780
0F007C0780
0F007C0780
0F007C0780
0F007C0780
0F00F80780
1F81F00FC0
3FC3E01FE0
FFFF807FF8
ENDCHAR

STARTCHAR afii10046
ENCODING 204
SWIDTH 632 0
DWIDTH 24 0
BBX 22 26 1 0
BITMAP
FFF000
3FC000
1F8000
0F0000
0F0000
0F0000
0F0000
0F0000
0F0000
0F0000
0F0000
0F0000
0FFF00
0FFFC0
0F03F0
0F00F8
0F00F8
0F007C
0F007C
0F007C
0F007C
0F007C
0F00F8
1F81F0
3FC3E0
FFFF80
ENDCHAR

STARTCHAR afii10047
ENCODING 205
SWIDTH 719 0
DWIDTH 27 0
BBX 25 26 1 0
BITMAP
03FC0000
3FFF8000
7E03E000
7800F000
70003C00
60003C00
C0001E00
00001F00
00000F00
00000F80
00000F80
00000F80
00FFFF80
00000F80
00000F80
00000F80
00000F80
00000F00
00001F00
E0001E00
F0003E00
F8007C00
FC00F800
7E03E000
1FFF8000
01FC0000
ENDCHAR

STARTCHAR afii10048
ENCODING 206
SWIDTH 1177 0
DWIDTH 45 0
BBX 42 26 1 0
BITMAP
FFF0003F0000
3FC003FFC000
1F800701F000
0F001E007800
0F003C003C00
0F0078001E00
0F0070001F00
0F00F0000F80
0F00F0000F80
0F00F0000780
0F01F00007C0
0F01E00007C0
0FFFF00007C0
0FFFF00007C0
0F01F00007C0
0F01F00007C0
0F01F0000780
0F00F0000780
0F00F8000780
0F00F8000F00
0F007C000E00
0F003E001E00
0F001F003800
1F800F80F000
3FC003FFC000
FFF0007E0000
ENDCHAR

STARTCHAR afii10049
ENCODING 207
SWIDTH 740 0
DWIDTH 28 0
BBX 26 26 1 0
BITMAP
00FFFFC0
03F83F00
07C03E00
0F803C00
0F803C00
0F003C00
0F003C00
0F003C00
0F803C00
07803C00
03C03C00
01F03C00
001FFC00
003E3C00
007C3C00
00FC3C00
00F83C00
01F03C00
03E03C00
07C03C00
0FC03C00
0F803C00
1F003C00
3E007E00
FC00FF00
F803FFC0
ENDCHAR

STARTCHAR afii10065
ENCODING 208
SWIDTH 479 0
DWIDTH 18 0
BBX 16 18 2 0
BITMAP
07C0
3FF0
7078
E038
F038
F038
6038
0078
03F8
1F38
3838
7038
E038
E038
F0F8
FFBF
7F3E
1C1C
ENDCHAR

STARTCHAR afii10066
ENCODING 209
SWIDTH 542 0
DWIDTH 21 0
BBX 17 26 2 0
BITMAP
000180
03FF00
0FFF00
1FFE00
3F0000
300000
600000
400000
43F000
CE3C00
D81E00
B80F00
B00700
F00780
F00780
F00380
F00380
F00380
700380
700380
780380
380700
3C0700
1C0E00
0F3C00
07F000
ENDCHAR

STARTCHAR afii10067
ENCODING 210
SWIDTH 552 0
DWIDTH 21 0
BBX 19 18 1 0
BITMAP
FFFF00
3F0780
1C03C0
1C01C0
1C01C0
1C01C0
1C0380
1C0F00
1FFC00
1C0F00
1C03C0
1C01C0
1C01E0
1C01E0
1C01E0
3C03C0
7F0780
FFFF00
ENDCHAR

STARTCHAR afii10068
ENCODING 211
SWIDTH 438 0
DWIDTH 17 0
BBX 16 18 0 0
BITMAP
FFFE
7F1F
1C07
1C03
1C03
1C00
1C00
1C00
1C00
1C00
1C00
1C00
1C00
1C00
1C00
3E00
FF80
FF80
ENDCHAR

STARTCHAR afii10069
ENCODING 212
SWIDTH 542 0
DWIDTH 21 0
BBX 20 23 0 -5
BITMAP
1FFFF0
0F0FE0
0607C0
020380
020380
020380
020380
020380
060380
060380
040380
040380
040380
0C0380
0C0380
1C0780
7C0FE0
FFFFF0
F800F0
E00070
C00030
C00030
C00010
ENDCHAR

STARTCHAR afii10070
ENCODING 213
SWIDTH 469 0
DWIDTH 18 0
BBX 15 18 2 0
BITMAP
07E0
1CF0
3078
603C
603C
E01C
FFFE
E000
E000
E000
E000
E000
F000
7806
7C0C
3FF8
1FF0
07C0
ENDCHAR

STARTCHAR afii10072
ENCODING 214
SWIDTH 854 0
DWIDTH 32 0
BBX 31 18 1 0
BITMAP
701FF018
7C1FF07E
7C07C07C
7603805C
060380C0
02038080
02038080
03038180
01FFFF00
03E38F80
078383C0
070381C0
0F0381E0
0E0380E0
1C038070
3C07C078
F81FF03E
F81FF03E
ENDCHAR

STARTCHAR afii10073
ENCODING 215
SWIDTH 469 0
DWIDTH 18 0
BBX 16 18 0 0
BITMAP
0FF8
3E3C
780E
300F
300F
300F
000E
003C
03F0
003C
001E
000F
000F
700F
F00F
781E
7C7C
1FF0
ENDCHAR

STARTCHAR afii10074
ENCODING 216
SWIDTH 583 0
DWIDTH 22 0
BBX 21 18 1 0
BITMAP
FF8FF8
FF8FF8
3E01E0
1C03C0
1C07C0
1C0DC0
1C09C0
1C19C0
1C31C0
1C61C0
1CC1C0
1D81C0
1D01C0
1F01C0
1C01C0
3E03E0
FF8FF8
FF8FF8
ENDCHAR

STARTCHAR afii10075
ENCODING 217
SWIDTH 583 0
DWIDTH 22 0
BBX 20 26 1 0
BITMAP
0E0700
0E0700
0E0700
070E00
01F800
000000
000000
000000
FF9FF0
FF9FF0
3E03C0
1C0780
1C0780
1C0B80
1C1B80
1C3380
1C6380
1C4380
1CC380
1D8380
1F0380
1E0380
1C0380
3E07C0
FF9FF0
FF9FF0
ENDCHAR

STARTCHAR afii10076
ENCODING 218
SWIDTH 573 0
DWIDTH 22 0
BBX 20 18 1 0
BITMAP
FF80E0
FF81F0
3E03F0
1C0360
1C0200
1C0600
1C0400
1C0C00
1FF800
1C3C00
1C1E00
1C0F00
1C0700
1C0780
1C0380
3E03C0
FF81F0
FF81F0
ENDCHAR

STARTCHAR afii10077
ENCODING 219
SWIDTH 573 0
DWIDTH 22 0
BBX 20 18 1 0
BITMAP
1FFFF0
0F8FE0
0703C0
020380
020380
020380
020380
020380
020380
020380
020380
020380
020380
020380
460380
E407C0
FC1FF0
F81FF0
ENDCHAR

STARTCHAR afii10078
ENCODING 220
SWIDTH 625 0
DWIDTH 24 0
BBX 22 18 1 0
BITMAP
3F03F8
3F03F8
1B82E0
0B86E0
0B85E0
1B84E0
19CCE0
11CCE0
11C8E0
11C8F0
10F8F0
30F070
30F070
20F070
307070
706078
F861FC
F821FC
ENDCHAR

STARTCHAR afii10079
ENCODING 221
SWIDTH 563 0
DWIDTH 21 0
BBX 21 18 0 0
BITMAP
FF8FF8
FF8FF8
3E03E0
1C01C0
1C01C0
1C01C0
1C01C0
1C01C0
1FFFC0
1C01C0
1C01C0
1C01C0
1C01C0
1C01C0
1C01C0
3E03E0
FF8FF8
FF8FF8
ENDCHAR

STARTCHAR afii10080
ENCODING 222
SWIDTH 542 0
DWIDTH 21 0
BBX 17 18 2 0
BITMAP
07F000
0E3C00
381E00
380F00
700700
700780
F00780
F00380
F00380
F00380
F00380
700380
780380
780300
3C0700
1E0E00
0F3C00
03F000
ENDCHAR

STARTCHAR afii10081
ENCODING 223
SWIDTH 573 0
DWIDTH 22 0
BBX 21 18 0 0
BITMAP
FFFFF8
7F07F0
1E03E0
1C01C0
1C01C0
1C01C0
1C01C0
1C01C0
1C01C0
1C01C0
1C01C0
1C01C0
1C01C0
1C01C0
1C01C0
3E03E0
FF8FF8
FF8FF8
ENDCHAR

STARTCHAR afii10082
ENCODING 224
SWIDTH 562 0
DWIDTH 21 0
BBX 19 25 0 -7
BITMAP
0C3C00
3CFF00
FDFF80
3F07C0
1C03C0
1C01E0
1C01E0
1C00E0
1C00E0
1C00E0
1C00E0
1C00E0
1C00C0
1E01C0
1E0180
1F0700
1FFE00
1CF800
1C0000
1C0000
1C0000
1C0000
3C0000
7E0000
FF8000
ENDCHAR

STARTCHAR afii10083
ENCODING 225
SWIDTH 469 0
DWIDTH 18 0
BBX 15 18 2 0
BITMAP
03F0
0FFC
1C1E
300E
700E
6000
E000
E000
E000
E000
F000
F000
F800
7806
3E0C
3FFC
1FF8
07E0
ENDCHAR

STARTCHAR afii10084
ENCODING 226
SWIDTH 458 0
DWIDTH 17 0
BBX 15 18 1 0
BITMAP
FFFE
FBBE
E38E
C386
8382
0380
0380
0380
0380
0380
0380
0380
0380
0380
0380
07C0
1FF8
1FF8
ENDCHAR

STARTCHAR afii10085
ENCODING 227
SWIDTH 479 0
DWIDTH 18 0
BBX 18 25 0 -7
BITMAP
FF1FC0
7C0780
3C0300
3C0200
1C0600
1E0600
0E0400
0F0C00
070800
070800
079800
039000
03F000
01F000
01E000
00E000
00C000
00C000
00C000
008000
018000
710000
7F0000
7E0000
380000
ENDCHAR

STARTCHAR afii10086
ENCODING 228
SWIDTH 750 0
DWIDTH 29 0
BBX 25 34 2 -7
BITMAP
000C0000
007C0000
00FC0000
003C0000
001C0000
001C0000
001C0000
001C0000
001C0000
0F9CF800
3C6D1E00
383E0E00
701C0700
701C0780
F01C0380
E01C0380
E01C0380
E01C0380
E01C0380
E01C0380
E01C0380
F01C0780
701C0700
701C0700
383E0E00
1CED1C00
0F9CF800
001C0000
001C0000
001C0000
001C0000
003C0000
007F0000
00FF8000
ENDCHAR

STARTCHAR afii10087
ENCODING 229
SWIDTH 500 0
DWIDTH 19 0
BBX 19 18 0 0
BITMAP
FF1FC0
FF1FC0
3C0700
1E0600
1F0C00
0F1800
07B000
03E000
00E000
01F000
03F800
077C00
063C00
0C1E00
180F00
380F80
FE3FE0
FE3FE0
ENDCHAR

STARTCHAR afii10088
ENCODING 230
SWIDTH 573 0
DWIDTH 22 0
BBX 21 23 1 -5
BITMAP
FF8FF8
FF8FF8
3E03E0
1C01C0
1C01C0
1C01C0
1C01C0
1C01C0
1C01C0
1C01C0
1C01C0
1C01C0
1C01C0
1C01C0
1C01C0
3E03C0
7F07E0
FFFFF8
000078
000038
000018
000018
000018
ENDCHAR

STARTCHAR afii10089
ENCODING 231
SWIDTH 573 0
DWIDTH 22 0
BBX 21 18 0 0
BITMAP
FF8FF8
FF8FF8
3E03E0
1C01C0
1C01C0
1C01C0
1C01C0
1C01C0
1C03C0
0E07C0
0FFDC0
03E1C0
0001C0
0001C0
0001C0
0003E0
000FF8
000FF8
ENDCHAR

STARTCHAR afii10090
ENCODING 232
SWIDTH 854 0
DWIDTH 32 0
BBX 31 18 1 0
BITMAP
FF9FF3FE
FF9FF3FE
3E07C0F8
1C038070
1C038070
1C038070
1C038070
1C038070
1C038070
1C038070
1C038070
1C038070
1C038070
1C038070
1C038070
1E03C0F0
7F0FE1FC
FFFFFFFE
ENDCHAR

STARTCHAR afii10091
ENCODING 233
SWIDTH 854 0
DWIDTH 32 0
BBX 31 23 1 -5
BITMAP
FF9FF3FE
FF9FF3FE
3E07C0F8
1C038070
1C038070
1C038070
1C038070
1C038070
1C038070
1C038070
1C038070
1C038070
1C038070
1C038070
1C038070
1E03C0F0
7F0FE1F8
FFFFFFFE
0000001E
0000000E
00000006
00000006
00000006
ENDCHAR

STARTCHAR afii10092
ENCODING 234
SWIDTH 638 0
DWIDTH 24 0
BBX 22 18 1 0
BITMAP
FFF800
F1F000
C1C000
C1C000
01C000
01C000
01C000
01C000
01FFE0
01C1F0
01C078
01C03C
01C03C
01C03C
01C03C
03C078
07E1F0
0FFFE0
ENDCHAR

STARTCHAR afii10093
ENCODING 235
SWIDTH 792 0
DWIDTH 30 0
BBX 29 18 1 0
BITMAP
FF800FF8
FF800FF8
3E0003E0
1C0001C0
1C0001C0
1C0001C0
1C0001C0
1C0001C0
1FFE01C0
1C1F01C0
1C0781C0
1C03C1C0
1C03C1C0
1C03C1C0
1C03C1C0
3C0783E0
7E1F07F0
FFFE0FF8
ENDCHAR

STARTCHAR afii10094
ENCODING 236
SWIDTH 485 0
DWIDTH 18 0
BBX 15 18 2 0
BITMAP
FF00
FF00
7C00
3800
3800
3800
3800
3800
3FF0
3878
381C
381E
381E
381E
381E
383C
FC78
FFF0
ENDCHAR

STARTCHAR afii10095
ENCODING 237
SWIDTH 490 0
DWIDTH 19 0
BBX 16 18 1 0
BITMAP
1FE0
7C78
F03C
601C
601E
400E
000F
000F
03FF
000F
000F
000E
000E
701E
F01C
7838
7C70
1FE0
ENDCHAR

STARTCHAR afii10096
ENCODING 238
SWIDTH 813 0
DWIDTH 31 0
BBX 28 18 1 0
BITMAP
FF80FE00
FF81C780
3E0303C0
1C0601E0
1C0E00E0
1C0E00F0
1C0E00F0
1C1E00F0
1C1E0070
1FFE0070
1C1E0070
1C1E0070
1C0F0070
1C0F0060
1C0700E0
3E0381C0
FF81E380
FF80FE00
ENDCHAR

STARTCHAR afii10097
ENCODING 239
SWIDTH 563 0
DWIDTH 21 0
BBX 20 18 1 0
BITMAP
07FFF0
1F0FE0
1C03C0
3C0380
3C0380
3C0380
1C0380
0E0380
05FF80
03C380
078380
070380
0F0380
0E0380
1E0380
3C07C0
F81FF0
F81FF0
ENDCHAR

STARTCHAR afii61352
ENCODING 240
SWIDTH 1031 0
DWIDTH 39 0
BBX 38 26 0 0
BITMAP
1FC000F000
1FE003F800
07E003F800
03F0060000
0370040000
0378040000
037C040000
033C0407E0
031E040C70
031F041C38
030F041838
030F84381C
030786381C
0303C6381C
0303E6381C
0301E6381C
0300F61C18
0300F61C38
01007E0E70
01007E07E0
01003E0000
01001E0000
03001E0000
FE000E1FF8
FE00061FF8
7800061FF8
ENDCHAR

STARTCHAR afii10071
ENCODING 241
SWIDTH 469 0
DWIDTH 18 0
BBX 14 25 2 0
BITMAP
1860
3CF0
3CF0
1860
0000
0000
0000
0FC0
1CF0
3078
7038
603C
E03C
FFFC
E000
E000
E000
E000
F000
F000
7804
7C1C
3FF8
1FF0
07C0
ENDCHAR

STARTCHAR afii10099
ENCODING 242
SWIDTH 513 0
DWIDTH 19 0
BBX 17 34 1 -7
BITMAP
040000
3C0000
FC0000
7C0000
1C0000
1C0000
FFFE00
1C0000
1C0000
1C0000
1C0000
1C7C00
1DFE00
1D8F00
1E0700
1C0780
1C0380
1C0380
1C0380
1C0380
1C0380
1C0380
1C0380
1C0300
3E0700
FF8700
FF8600
000600
000C00
000C00
001800
003000
002000
004000
ENDCHAR

STARTCHAR afii10100
ENCODING 243
SWIDTH 458 0
DWIDTH 17 0
BBX 16 27 1 0
BITMAP
0040
00F0
01E0
01C0
0180
0300
0000
0000
0000
FFFE
7F1F
1C07
1C03
1C03
1C00
1C00
1C00
1C00
1C00
1C00
1C00
1C00
1C00
1C00
3E00
FF80
FF80
ENDCHAR

STARTCHAR afii10101
ENCODING 244
SWIDTH 490 0
DWIDTH 19 0
BBX 15 18 2 0
BITMAP
0FF0
1E3C
381E
700E
7004
F004
F000
F000
FFC0
F000
F000
F000
F000
700E
701E
381E
1E7C
07F0
ENDCHAR

STARTCHAR afii10102
ENCODING 245
SWIDTH 396 0
DWIDTH 15 0
BBX 12 18 2 0
BITMAP
1F80
71E0
60E0
E060
E060
F060
7800
7E00
3F80
0FC0
03E0
00F0
4070
4070
6070
6060
79E0
3F80
ENDCHAR

STARTCHAR afii10103
ENCODING 246
SWIDTH 271 0
DWIDTH 10 0
BBX 8 26 1 0
BITMAP
18
3C
3C
18
00
00
00
00
0C
3C
FC
7C
1C
1C
1C
1C
1C
1C
1C
1C
1C
1C
1C
1C
7F
FF
ENDCHAR

STARTCHAR afii10104
ENCODING 247
SWIDTH 271 0
DWIDTH 10 0
BBX 10 25 0 0
BITMAP
6180
F3C0
F3C0
6180
0000
0000
0000
0600
3E00
7E00
3E00
0E00
0E00
0E00
0E00
0E00
0E00
0E00
0E00
0E00
0E00
0E00
0E00
3F00
7F80
ENDCHAR

STARTCHAR afii10105
ENCODING 248
SWIDTH 260 0
DWIDTH 10 0
BBX 6 33 1 -7
BITMAP
18
3C
3C
18
00
00
00
00
0C
7C
FC
7C
1C
1C
1C
1C
1C
1C
1C
1C
1C
1C
1C
1C
1C
1C
3C
38
38
70
60
C0
80
ENDCHAR

STARTCHAR afii10106
ENCODING 249
SWIDTH 831 0
DWIDTH 32 0
BBX 29 18 1 0
BITMAP
1FFFF000
0F8FE000
0707C000
02038000
02038000
02038000
02038000
02038000
0203FFC0
020381E0
020380F0
02038078
02038078
02038078
E6038078
FC0780F0
FC1FE3E0
701FFFC0
ENDCHAR

STARTCHAR afii10107
ENCODING 250
SWIDTH 814 0
DWIDTH 31 0
BBX 29 18 0 0
BITMAP
FF9FF000
FF9FF000
3E07C000
1C038000
1C038000
1C038000
1C038000
1C038000
1FFFFFC0
1C0381E0
1C0380F0
1C038078
1C038078
1C038078
1C038078
3E0780F0
7F0FE3E0
FF9FFFC0
ENDCHAR

STARTCHAR afii10108
ENCODING 251
SWIDTH 573 0
DWIDTH 22 0
BBX 20 26 1 0
BITMAP
1C0000
FC0000
7C0000
3C0000
1C0000
1C0000
1C0000
1C0000
FFFF00
1C0000
1C0000
1C0000
1C3C00
1CFF00
1DFF00
1F0780
1C0380
1C0380
1C0380
1C0380
1C0380
1C0380
1C0380
3E03C0
FF9FE0
FF9FF0
ENDCHAR

STARTCHAR afii10109
ENCODING 252
SWIDTH 573 0
DWIDTH 22 0
BBX 20 26 1 0
BITMAP
001C00
003C00
003800
003000
006000
004000
000000
000000
FF80E0
FF81F0
3E03F0
1C0360
1C0200
1C0600
1C0400
1C0C00
1FF800
1C3C00
1C1E00
1C0F00
1C0700
1C0780
1C0380
3E03C0
FF81F0
FF81F0
ENDCHAR

STARTCHAR section
ENCODING 253
SWIDTH 427 0
DWIDTH 16 0
BBX 13 34 2 -8
BITMAP
03C0
0FF0
18F0
3070
7000
5800
D800
CC00
CC00
C600
C600
C300
C380
6180
61C0
60C0
3060
3060
1830
1C30
0C30
0E18
0618
0318
0398
0198
00D8
00D8
0050
0070
7070
78E0
7FC0
1E00
ENDCHAR

STARTCHAR afii10110
ENCODING 254
SWIDTH 479 0
DWIDTH 18 0
BBX 19 33 0 -7
BITMAP
0E0700
0E0700
0E0700
070E00
01F800
000000
000000
000000
FF8FE0
3E03C0
1E0180
1E0100
0E0300
0F0300
0F0200
070600
078400
038C00
03CC00
01C800
01F800
00F800
00F000
00F000
006000
006000
006000
004000
00C000
318000
3F8000
3F0000
1C0000
ENDCHAR

STARTCHAR afii10193
ENCODING 255
SWIDTH 573 0
DWIDTH 22 0
BBX 21 23 0 -5
BITMAP
FF8FF8
FF8FF8
3E03E0
1C01C0
1C01C0
1C01C0
1C01C0
1C01C0
1C01C0
1C01C0
1C01C0
1C01C0
1C01C0
1C01C0
1C01C0
3E03C0
7F07F0
FFFFF8
007000
007000
007000
007000
007000
ENDCHAR

ENDFONT
