STARTFONT 2.1
FONT -DEC-Terminal-Medium-R-Normal--18-180-75-75-C-110-ISO8859-8
SIZE 18 75 75
FONTBOUNDINGBOX 11 20 0 -5

STARTPROPERTIES 25
FONTNAME_REGISTRY ""
FAMILY_NAME "Terminal"
FOUNDRY "DEC"
WEIGHT_NAME "Medium"
SETWIDTH_NAME "Normal"
SLANT "R"
ADD_STYLE_NAME ""
PIXEL_SIZE 18
RESOLUTION_X 75
RESOLUTION_Y 75
SPACING "C"
AVERAGE_WIDTH 110
CHARSET_REGISTRY "ISO8859"
CHARSET_ENCODING "8"
CHARSET_COLLECTIONS "ASCII ISO8859-8"
FULL_NAME "Terminal"
COPYRIGHT "Digital Israel"
CAP_HEIGHT 11
X_HEIGHT 9
QUAD_WIDTH 11
POINT_SIZE 180
WEIGHT 10
DEFAULT_CHAR 0
FONT_DESCENT 5
FONT_ASCENT 15
ENDPROPERTIES

CHARS 157

STARTCHAR space
ENCODING 32
SWIDTH 587 0
DWIDTH 11 0
BBX 11 20 0 -5
BITMAP
0000
0000
0000
0000
0000
0000
0000
0000
0000
0000
0000
0000
0000
0000
0000
0000
0000
0000
0000
0000
ENDCHAR

STARTCHAR exclam
ENCODING 33
SWIDTH 587 0
DWIDTH 11 0
BBX 11 20 0 -5
BITMAP
0000
0000
0000
0000
0600
0600
0600
0600
0600
0600
0600
0000
0600
0F00
0600
0000
0000
0000
0000
0000
ENDCHAR

STARTCHAR quotedbl
ENCODING 34
SWIDTH 587 0
DWIDTH 11 0
BBX 11 20 0 -5
BITMAP
0000
0000
1980
1980
1980
1980
1980
0000
0000
0000
0000
0000
0000
0000
0000
0000
0000
0000
0000
0000
ENDCHAR

STARTCHAR numbersign
ENCODING 35
SWIDTH 587 0
DWIDTH 11 0
BBX 11 20 0 -5
BITMAP
0000
0000
0000
0000
1980
1980
1980
1980
1980
FFE0
3300
3300
FFE0
3300
3300
3300
3300
3300
0000
0000
ENDCHAR

STARTCHAR dollar
ENCODING 36
SWIDTH 587 0
DWIDTH 11 0
BBX 11 20 0 -5
BITMAP
0000
0000
0200
0200
1EC0
39C0
30C0
3000
3800
1F80
00C0
00C0
30C0
38C0
3780
0400
0400
0400
0000
0000
ENDCHAR

STARTCHAR percent
ENCODING 37
SWIDTH 587 0
DWIDTH 11 0
BBX 11 20 0 -5
BITMAP
0000
0000
0000
0000
3800
6C00
4400
6C00
3980
0E00
3380
06C0
0440
06C0
0380
0000
0000
0000
0000
0000
ENDCHAR

STARTCHAR ampersand
ENCODING 38
SWIDTH 587 0
DWIDTH 11 0
BBX 11 20 0 -5
BITMAP
0000
0000
0000
0000
0D00
1B00
1000
1800
0800
1D80
3500
3700
3300
3300
1D80
0000
0000
0000
0000
0000
ENDCHAR

STARTCHAR quoteright
ENCODING 39
SWIDTH 587 0
DWIDTH 11 0
BBX 11 20 0 -5
BITMAP
0000
0000
0700
0600
0600
0C00
0400
0000
0000
0000
0000
0000
0000
0000
0000
0000
0000
0000
0000
0000
ENDCHAR

STARTCHAR parenleft
ENCODING 40
SWIDTH 587 0
DWIDTH 11 0
BBX 11 20 0 -5
BITMAP
0000
0000
0000
0100
0200
0600
0400
0C00
0C00
0C00
0C00
0C00
0C00
0C00
0400
0600
0200
0100
0000
0000
ENDCHAR

STARTCHAR parenright
ENCODING 41
SWIDTH 587 0
DWIDTH 11 0
BBX 11 20 0 -5
BITMAP
0000
0000
0000
0800
0400
0600
0200
0300
0300
0300
0300
0300
0300
0300
0200
0600
0400
0800
0000
0000
ENDCHAR

STARTCHAR asterisk
ENCODING 42
SWIDTH 587 0
DWIDTH 11 0
BBX 11 20 0 -5
BITMAP
0000
0000
0000
0000
0000
0000
0600
0600
36C0
1F80
0F00
0F00
1980
1980
0000
0000
0000
0000
0000
0000
ENDCHAR

STARTCHAR plus
ENCODING 43
SWIDTH 587 0
DWIDTH 11 0
BBX 11 20 0 -5
BITMAP
0000
0000
0000
0000
0000
0600
0600
0600
0600
3FC0
3FC0
0600
0600
0600
0600
0000
0000
0000
0000
0000
ENDCHAR

STARTCHAR comma
ENCODING 44
SWIDTH 587 0
DWIDTH 11 0
BBX 11 20 0 -5
BITMAP
0000
0000
0000
0000
0000
0000
0000
0000
0000
0000
0000
0000
0700
0700
0600
0600
0C00
0400
0000
0000
ENDCHAR

STARTCHAR minus
ENCODING 45
SWIDTH 587 0
DWIDTH 11 0
BBX 11 20 0 -5
BITMAP
0000
0000
0000
0000
0000
0000
0000
0000
0000
7FC0
7FC0
0000
0000
0000
0000
0000
0000
0000
0000
0000
ENDCHAR

STARTCHAR period
ENCODING 46
SWIDTH 587 0
DWIDTH 11 0
BBX 11 20 0 -5
BITMAP
0000
0000
0000
0000
0000
0000
0000
0000
0000
0000
0000
0000
0600
0F00
0600
0000
0000
0000
0000
0000
ENDCHAR

STARTCHAR slash
ENCODING 47
SWIDTH 587 0
DWIDTH 11 0
BBX 11 20 0 -5
BITMAP
0000
0000
0000
00C0
0080
0180
0100
0300
0200
0600
0400
0C00
0800
1800
1000
3000
0000
0000
0000
0000
ENDCHAR

STARTCHAR zero
ENCODING 48
SWIDTH 587 0
DWIDTH 11 0
BBX 11 20 0 -5
BITMAP
0000
0000
0000
0000
0F00
1980
1080
30C0
30C0
30C0
30C0
30C0
1080
1980
0F00
0000
0000
0000
0000
0000
ENDCHAR

STARTCHAR one
ENCODING 49
SWIDTH 587 0
DWIDTH 11 0
BBX 11 20 0 -5
BITMAP
0000
0000
0000
0000
0E00
3E00
0600
0600
0600
0600
0600
0600
0600
0600
3FC0
0000
0000
0000
0000
0000
ENDCHAR

STARTCHAR two
ENCODING 50
SWIDTH 587 0
DWIDTH 11 0
BBX 11 20 0 -5
BITMAP
0000
0000
0000
0000
1F80
31C0
30C0
00C0
00C0
0180
0300
0600
0C00
18C0
3FC0
0000
0000
0000
0000
0000
ENDCHAR

STARTCHAR three
ENCODING 51
SWIDTH 587 0
DWIDTH 11 0
BBX 11 20 0 -5
BITMAP
0000
0000
0000
0000
1F80
31C0
00C0
00C0
0180
0700
0180
00C0
00C0
30C0
1F80
0000
0000
0000
0000
0000
ENDCHAR

STARTCHAR four
ENCODING 52
SWIDTH 587 0
DWIDTH 11 0
BBX 11 20 0 -5
BITMAP
0000
0000
0000
0000
0380
0380
0580
0D80
0980
1180
3180
3FC0
0180
0180
07C0
0000
0000
0000
0000
0000
ENDCHAR

STARTCHAR five
ENCODING 53
SWIDTH 587 0
DWIDTH 11 0
BBX 11 20 0 -5
BITMAP
0000
0000
0000
0000
3F80
3000
3000
3000
3F00
3180
00C0
00C0
00C0
3180
1F00
0000
0000
0000
0000
0000
ENDCHAR

STARTCHAR six
ENCODING 54
SWIDTH 587 0
DWIDTH 11 0
BBX 11 20 0 -5
BITMAP
0000
0000
0000
0000
03C0
0E00
1800
1800
3700
3980
30C0
30C0
30C0
1980
0F00
0000
0000
0000
0000
0000
ENDCHAR

STARTCHAR seven
ENCODING 55
SWIDTH 587 0
DWIDTH 11 0
BBX 11 20 0 -5
BITMAP
0000
0000
0000
0000
3FC0
30C0
00C0
0180
0180
0100
0300
0300
0200
0600
0600
0000
0000
0000
0000
0000
ENDCHAR

STARTCHAR eight
ENCODING 56
SWIDTH 587 0
DWIDTH 11 0
BBX 11 20 0 -5
BITMAP
0000
0000
0000
0000
0F00
1980
30C0
30C0
1980
0F00
1980
30C0
30C0
1980
0F00
0000
0000
0000
0000
0000
ENDCHAR

STARTCHAR nine
ENCODING 57
SWIDTH 587 0
DWIDTH 11 0
BBX 11 20 0 -5
BITMAP
0000
0000
0000
0000
0F00
1980
30C0
30C0
30C0
19C0
0EC0
0180
0180
0700
3C00
0000
0000
0000
0000
0000
ENDCHAR

STARTCHAR colon
ENCODING 58
SWIDTH 587 0
DWIDTH 11 0
BBX 11 20 0 -5
BITMAP
0000
0000
0000
0000
0000
0000
0600
0F00
0600
0000
0000
0000
0600
0F00
0600
0000
0000
0000
0000
0000
ENDCHAR

STARTCHAR semicolon
ENCODING 59
SWIDTH 587 0
DWIDTH 11 0
BBX 11 20 0 -5
BITMAP
0000
0000
0000
0000
0000
0000
0600
0F00
0600
0000
0000
0000
0E00
0E00
0C00
0C00
1800
0800
0000
0000
ENDCHAR

STARTCHAR less
ENCODING 60
SWIDTH 587 0
DWIDTH 11 0
BBX 11 20 0 -5
BITMAP
0000
0000
0000
0000
0000
00C0
03C0
0F00
3C00
7000
3C00
0F00
03C0
00C0
0000
0000
0000
0000
0000
0000
ENDCHAR

STARTCHAR equal
ENCODING 61
SWIDTH 587 0
DWIDTH 11 0
BBX 11 20 0 -5
BITMAP
0000
0000
0000
0000
0000
0000
0000
3FC0
3FC0
0000
0000
3FC0
3FC0
0000
0000
0000
0000
0000
0000
0000
ENDCHAR

STARTCHAR greater
ENCODING 62
SWIDTH 587 0
DWIDTH 11 0
BBX 11 20 0 -5
BITMAP
0000
0000
0000
0000
0000
6000
7800
1E00
0780
01C0
0780
1E00
7800
6000
0000
0000
0000
0000
0000
0000
ENDCHAR

STARTCHAR question
ENCODING 63
SWIDTH 587 0
DWIDTH 11 0
BBX 11 20 0 -5
BITMAP
0000
0000
0000
0000
1F80
30C0
00C0
00C0
0380
0E00
0C00
0000
0C00
1E00
0C00
0000
0000
0000
0000
0000
ENDCHAR

STARTCHAR at
ENCODING 64
SWIDTH 587 0
DWIDTH 11 0
BBX 11 20 0 -5
BITMAP
0000
0000
0000
0E00
3180
2080
60C0
63C0
64C0
6CC0
6CC0
6CC0
67E0
6000
3000
3840
0F80
0000
0000
0000
ENDCHAR

STARTCHAR A
ENCODING 65
SWIDTH 587 0
DWIDTH 11 0
BBX 11 20 0 -5
BITMAP
0000
0000
0000
0000
0E00
0E00
1B00
1B00
1B00
3180
3180
3F80
60C0
60C0
FBE0
0000
0000
0000
0000
0000
ENDCHAR

STARTCHAR B
ENCODING 66
SWIDTH 587 0
DWIDTH 11 0
BBX 11 20 0 -5
BITMAP
0000
0000
0000
0000
7F00
3180
3180
3180
3100
3F80
30C0
30C0
30C0
30C0
7F80
0000
0000
0000
0000
0000
ENDCHAR

STARTCHAR C
ENCODING 67
SWIDTH 587 0
DWIDTH 11 0
BBX 11 20 0 -5
BITMAP
0000
0000
0000
0000
1F40
31C0
60C0
60C0
6000
6000
6000
6000
6040
30C0
1F80
0000
0000
0000
0000
0000
ENDCHAR

STARTCHAR D
ENCODING 68
SWIDTH 587 0
DWIDTH 11 0
BBX 11 20 0 -5
BITMAP
0000
0000
0000
0000
7F00
3180
30C0
30C0
30C0
30C0
30C0
30C0
30C0
3180
7F00
0000
0000
0000
0000
0000
ENDCHAR

STARTCHAR E
ENCODING 69
SWIDTH 587 0
DWIDTH 11 0
BBX 11 20 0 -5
BITMAP
0000
0000
0000
0000
7FC0
1840
1840
1900
1900
1F00
1900
1840
1840
1840
7FC0
0000
0000
0000
0000
0000
ENDCHAR

STARTCHAR F
ENCODING 70
SWIDTH 587 0
DWIDTH 11 0
BBX 11 20 0 -5
BITMAP
0000
0000
0000
0000
7FC0
1840
1840
1900
1900
1F00
1900
1900
1800
1800
7E00
0000
0000
0000
0000
0000
ENDCHAR

STARTCHAR G
ENCODING 71
SWIDTH 587 0
DWIDTH 11 0
BBX 11 20 0 -5
BITMAP
0000
0000
0000
0000
1F40
31C0
60C0
60C0
6000
6000
63E0
60C0
60C0
30C0
1F80
0000
0000
0000
0000
0000
ENDCHAR

STARTCHAR H
ENCODING 72
SWIDTH 587 0
DWIDTH 11 0
BBX 11 20 0 -5
BITMAP
0000
0000
0000
0000
7BC0
3180
3180
3180
3180
3F80
3180
3180
3180
3180
7BC0
0000
0000
0000
0000
0000
ENDCHAR

STARTCHAR I
ENCODING 73
SWIDTH 587 0
DWIDTH 11 0
BBX 11 20 0 -5
BITMAP
0000
0000
0000
0000
3FC0
0600
0600
0600
0600
0600
0600
0600
0600
0600
3FC0
0000
0000
0000
0000
0000
ENDCHAR

STARTCHAR J
ENCODING 74
SWIDTH 587 0
DWIDTH 11 0
BBX 11 20 0 -5
BITMAP
0000
0000
0000
0000
1FC0
0300
0300
0300
0300
0300
4300
4300
4300
6300
3E00
0000
0000
0000
0000
0000
ENDCHAR

STARTCHAR K
ENCODING 75
SWIDTH 587 0
DWIDTH 11 0
BBX 11 20 0 -5
BITMAP
0000
0000
0000
0000
7BC0
3180
3300
3600
3C00
3E00
3300
3300
3180
3180
79C0
0000
0000
0000
0000
0000
ENDCHAR

STARTCHAR L
ENCODING 76
SWIDTH 587 0
DWIDTH 11 0
BBX 11 20 0 -5
BITMAP
0000
0000
0000
0000
7E00
1800
1800
1800
1800
1800
1800
1840
1840
1840
7FC0
0000
0000
0000
0000
0000
ENDCHAR

STARTCHAR M
ENCODING 77
SWIDTH 587 0
DWIDTH 11 0
BBX 11 20 0 -5
BITMAP
0000
0000
0000
0000
F1E0
71C0
6AC0
6AC0
6AC0
6AC0
64C0
64C0
60C0
60C0
F1E0
0000
0000
0000
0000
0000
ENDCHAR

STARTCHAR N
ENCODING 78
SWIDTH 587 0
DWIDTH 11 0
BBX 11 20 0 -5
BITMAP
0000
0000
0000
0000
71E0
38C0
38C0
34C0
34C0
32C0
32C0
31C0
31C0
30C0
7CC0
0000
0000
0000
0000
0000
ENDCHAR

STARTCHAR O
ENCODING 79
SWIDTH 587 0
DWIDTH 11 0
BBX 11 20 0 -5
BITMAP
0000
0000
0000
0000
1F00
3180
60C0
60C0
60C0
60C0
60C0
60C0
60C0
3180
1F00
0000
0000
0000
0000
0000
ENDCHAR

STARTCHAR P
ENCODING 80
SWIDTH 587 0
DWIDTH 11 0
BBX 11 20 0 -5
BITMAP
0000
0000
0000
0000
7F80
18C0
18C0
18C0
18C0
18C0
1F80
1800
1800
1800
7E00
0000
0000
0000
0000
0000
ENDCHAR

STARTCHAR Q
ENCODING 81
SWIDTH 587 0
DWIDTH 11 0
BBX 11 20 0 -5
BITMAP
0000
0000
0000
0000
1F00
3180
60C0
60C0
60C0
60C0
60C0
60C0
60C0
3180
1F00
0800
1760
19C0
0000
0000
ENDCHAR

STARTCHAR R
ENCODING 82
SWIDTH 587 0
DWIDTH 11 0
BBX 11 20 0 -5
BITMAP
0000
0000
0000
0000
7F80
31C0
30C0
30C0
3180
3F00
3180
3180
30C0
30C0
78E0
0000
0000
0000
0000
0000
ENDCHAR

STARTCHAR S
ENCODING 83
SWIDTH 587 0
DWIDTH 11 0
BBX 11 20 0 -5
BITMAP
0000
0000
0000
0000
0EC0
39C0
30C0
3000
3800
1F80
01C0
00C0
30C0
39C0
3700
0000
0000
0000
0000
0000
ENDCHAR

STARTCHAR T
ENCODING 84
SWIDTH 587 0
DWIDTH 11 0
BBX 11 20 0 -5
BITMAP
0000
0000
0000
0000
7FE0
4620
4620
4620
4620
0600
0600
0600
0600
0600
1F80
0000
0000
0000
0000
0000
ENDCHAR

STARTCHAR U
ENCODING 85
SWIDTH 587 0
DWIDTH 11 0
BBX 11 20 0 -5
BITMAP
0000
0000
0000
0000
79E0
30C0
30C0
30C0
30C0
30C0
30C0
30C0
30C0
1980
0F00
0000
0000
0000
0000
0000
ENDCHAR

STARTCHAR V
ENCODING 86
SWIDTH 587 0
DWIDTH 11 0
BBX 11 20 0 -5
BITMAP
0000
0000
0000
0000
F1E0
60C0
60C0
3180
3180
3180
1B00
1B00
0A00
0E00
0400
0000
0000
0000
0000
0000
ENDCHAR

STARTCHAR W
ENCODING 87
SWIDTH 587 0
DWIDTH 11 0
BBX 11 20 0 -5
BITMAP
0000
0000
0000
0000
F1E0
60C0
60C0
64C0
64C0
6EC0
6AC0
2A80
3B80
3180
3180
0000
0000
0000
0000
0000
ENDCHAR

STARTCHAR X
ENCODING 88
SWIDTH 587 0
DWIDTH 11 0
BBX 11 20 0 -5
BITMAP
0000
0000
0000
0000
7BC0
3180
1B00
1B00
0E00
0E00
0E00
1B00
1B00
3180
7BC0
0000
0000
0000
0000
0000
ENDCHAR

STARTCHAR Y
ENCODING 89
SWIDTH 587 0
DWIDTH 11 0
BBX 11 20 0 -5
BITMAP
0000
0000
0000
0000
79E0
30C0
1080
1980
0900
0F00
0600
0600
0600
0600
1F80
0000
0000
0000
0000
0000
ENDCHAR

STARTCHAR Z
ENCODING 90
SWIDTH 587 0
DWIDTH 11 0
BBX 11 20 0 -5
BITMAP
0000
0000
0000
0000
3FC0
20C0
2180
0180
0300
0300
0600
0C00
0C40
1840
3FC0
0000
0000
0000
0000
0000
ENDCHAR

STARTCHAR bracketleft
ENCODING 91
SWIDTH 587 0
DWIDTH 11 0
BBX 11 20 0 -5
BITMAP
0000
0000
0F00
0C00
0C00
0C00
0C00
0C00
0C00
0C00
0C00
0C00
0C00
0C00
0C00
0F00
0000
0000
0000
0000
ENDCHAR

STARTCHAR backslash
ENCODING 92
SWIDTH 587 0
DWIDTH 11 0
BBX 11 20 0 -5
BITMAP
0000
0000
0000
3000
1000
1800
0800
0C00
0400
0600
0200
0300
0100
0180
0080
00C0
0000
0000
0000
0000
ENDCHAR

STARTCHAR bracketright
ENCODING 93
SWIDTH 587 0
DWIDTH 11 0
BBX 11 20 0 -5
BITMAP
0000
0000
0F00
0300
0300
0300
0300
0300
0300
0300
0300
0300
0300
0300
0300
0F00
0000
0000
0000
0000
ENDCHAR

STARTCHAR asciicircum
ENCODING 94
SWIDTH 587 0
DWIDTH 11 0
BBX 11 20 0 -5
BITMAP
0000
0000
0400
0E00
1B00
3180
0000
0000
0000
0000
0000
0000
0000
0000
0000
0000
0000
0000
0000
0000
ENDCHAR

STARTCHAR underscore
ENCODING 95
SWIDTH 587 0
DWIDTH 11 0
BBX 11 20 0 -5
BITMAP
0000
0000
0000
0000
0000
0000
0000
0000
0000
0000
0000
0000
0000
7FE0
7FE0
0000
0000
0000
0000
0000
ENDCHAR

STARTCHAR quoteleft
ENCODING 96
SWIDTH 587 0
DWIDTH 11 0
BBX 11 20 0 -5
BITMAP
0000
0000
1800
1C00
0600
0300
0080
0000
0000
0000
0000
0000
0000
0000
0000
0000
0000
0000
0000
0000
ENDCHAR

STARTCHAR a
ENCODING 97
SWIDTH 587 0
DWIDTH 11 0
BBX 11 20 0 -5
BITMAP
0000
0000
0000
0000
0000
0000
1F00
3180
0180
1F80
3180
6180
6180
7380
3DC0
0000
0000
0000
0000
0000
ENDCHAR

STARTCHAR b
ENCODING 98
SWIDTH 587 0
DWIDTH 11 0
BBX 11 20 0 -5
BITMAP
0000
0000
0000
7000
3000
3000
3700
3980
30C0
30C0
30C0
30C0
30C0
3980
7700
0000
0000
0000
0000
0000
ENDCHAR

STARTCHAR c
ENCODING 99
SWIDTH 587 0
DWIDTH 11 0
BBX 11 20 0 -5
BITMAP
0000
0000
0000
0000
0000
0000
0F40
19C0
30C0
3040
3000
3000
3040
18C0
0F80
0000
0000
0000
0000
0000
ENDCHAR

STARTCHAR d
ENCODING 100
SWIDTH 587 0
DWIDTH 11 0
BBX 11 20 0 -5
BITMAP
0000
0000
0000
0780
0180
0180
1D80
3380
6180
6180
6180
6180
6180
3380
1DC0
0000
0000
0000
0000
0000
ENDCHAR

STARTCHAR e
ENCODING 101
SWIDTH 587 0
DWIDTH 11 0
BBX 11 20 0 -5
BITMAP
0000
0000
0000
0000
0000
0000
1F00
3180
60C0
60C0
7FC0
6000
6000
30C0
1F00
0000
0000
0000
0000
0000
ENDCHAR

STARTCHAR f
ENCODING 102
SWIDTH 587 0
DWIDTH 11 0
BBX 11 20 0 -5
BITMAP
0000
0000
0000
0FC0
1800
1800
7F80
1800
1800
1800
1800
1800
1800
1800
7F80
0000
0000
0000
0000
0000
ENDCHAR

STARTCHAR g
ENCODING 103
SWIDTH 587 0
DWIDTH 11 0
BBX 11 20 0 -5
BITMAP
0000
0000
0000
0000
0000
0000
1DC0
3380
6180
6180
6180
6180
6180
3380
1D80
0180
0180
3F00
0000
0000
ENDCHAR

STARTCHAR h
ENCODING 104
SWIDTH 587 0
DWIDTH 11 0
BBX 11 20 0 -5
BITMAP
0000
0000
0000
7000
3000
3000
3700
3980
3180
3180
3180
3180
3180
3180
7BC0
0000
0000
0000
0000
0000
ENDCHAR

STARTCHAR i
ENCODING 105
SWIDTH 587 0
DWIDTH 11 0
BBX 11 20 0 -5
BITMAP
0000
0000
0600
0600
0000
0000
1E00
0600
0600
0600
0600
0600
0600
0600
3FC0
0000
0000
0000
0000
0000
ENDCHAR

STARTCHAR j
ENCODING 106
SWIDTH 587 0
DWIDTH 11 0
BBX 11 20 0 -5
BITMAP
0000
0000
0180
0180
0000
0000
1F80
0180
0180
0180
0180
0180
0180
0180
0180
0180
0180
1F00
0000
0000
ENDCHAR

STARTCHAR k
ENCODING 107
SWIDTH 587 0
DWIDTH 11 0
BBX 11 20 0 -5
BITMAP
0000
0000
0000
7000
3000
3000
33C0
3300
3600
3C00
3C00
3600
3300
3180
73C0
0000
0000
0000
0000
0000
ENDCHAR

STARTCHAR l
ENCODING 108
SWIDTH 587 0
DWIDTH 11 0
BBX 11 20 0 -5
BITMAP
0000
0000
0000
3C00
0C00
0C00
0C00
0C00
0C00
0C00
0C00
0C00
0C00
0C00
7FC0
0000
0000
0000
0000
0000
ENDCHAR

STARTCHAR m
ENCODING 109
SWIDTH 587 0
DWIDTH 11 0
BBX 11 20 0 -5
BITMAP
0000
0000
0000
0000
0000
0000
5DC0
6660
6660
6660
6660
6660
6660
6660
6660
0000
0000
0000
0000
0000
ENDCHAR

STARTCHAR n
ENCODING 110
SWIDTH 587 0
DWIDTH 11 0
BBX 11 20 0 -5
BITMAP
0000
0000
0000
0000
0000
0000
7700
3980
3180
3180
3180
3180
3180
3180
7BC0
0000
0000
0000
0000
0000
ENDCHAR

STARTCHAR o
ENCODING 111
SWIDTH 587 0
DWIDTH 11 0
BBX 11 20 0 -5
BITMAP
0000
0000
0000
0000
0000
0000
1F00
3180
60C0
60C0
60C0
60C0
60C0
3180
1F00
0000
0000
0000
0000
0000
ENDCHAR

STARTCHAR p
ENCODING 112
SWIDTH 587 0
DWIDTH 11 0
BBX 11 20 0 -5
BITMAP
0000
0000
0000
0000
0000
0000
7700
3980
30C0
30C0
30C0
30C0
30C0
3980
3700
3000
3000
7C00
0000
0000
ENDCHAR

STARTCHAR q
ENCODING 113
SWIDTH 587 0
DWIDTH 11 0
BBX 11 20 0 -5
BITMAP
0000
0000
0000
0000
0000
0000
1DC0
3380
6180
6180
6180
6180
6180
3380
1D80
0180
0180
07C0
0000
0000
ENDCHAR

STARTCHAR r
ENCODING 114
SWIDTH 587 0
DWIDTH 11 0
BBX 11 20 0 -5
BITMAP
0000
0000
0000
0000
0000
0000
79C0
1EC0
1800
1800
1800
1800
1800
1800
7F00
0000
0000
0000
0000
0000
ENDCHAR

STARTCHAR s
ENCODING 115
SWIDTH 587 0
DWIDTH 11 0
BBX 11 20 0 -5
BITMAP
0000
0000
0000
0000
0000
0000
1EC0
31C0
30C0
3000
1F80
00C0
30C0
38C0
3780
0000
0000
0000
0000
0000
ENDCHAR

STARTCHAR t
ENCODING 116
SWIDTH 587 0
DWIDTH 11 0
BBX 11 20 0 -5
BITMAP
0000
0000
0000
1800
1800
1800
7F80
1800
1800
1800
1800
1800
1800
18C0
0F00
0000
0000
0000
0000
0000
ENDCHAR

STARTCHAR u
ENCODING 117
SWIDTH 587 0
DWIDTH 11 0
BBX 11 20 0 -5
BITMAP
0000
0000
0000
0000
0000
0000
7380
3180
3180
3180
3180
3180
3180
3380
1DC0
0000
0000
0000
0000
0000
ENDCHAR

STARTCHAR v
ENCODING 118
SWIDTH 587 0
DWIDTH 11 0
BBX 11 20 0 -5
BITMAP
0000
0000
0000
0000
0000
0000
79E0
30C0
1080
1980
1980
0900
0F00
0600
0600
0000
0000
0000
0000
0000
ENDCHAR

STARTCHAR w
ENCODING 119
SWIDTH 587 0
DWIDTH 11 0
BBX 11 20 0 -5
BITMAP
0000
0000
0000
0000
0000
0000
F1E0
C060
4440
64C0
6EC0
6AC0
3B80
3180
3180
0000
0000
0000
0000
0000
ENDCHAR

STARTCHAR x
ENCODING 120
SWIDTH 587 0
DWIDTH 11 0
BBX 11 20 0 -5
BITMAP
0000
0000
0000
0000
0000
0000
7BC0
3180
1B00
0A00
0E00
1B00
1100
3180
7BC0
0000
0000
0000
0000
0000
ENDCHAR

STARTCHAR y
ENCODING 121
SWIDTH 587 0
DWIDTH 11 0
BBX 11 20 0 -5
BITMAP
0000
0000
0000
0000
0000
0000
79E0
30C0
1080
1980
1980
0900
0F00
0600
0600
0400
0C00
3E00
0000
0000
ENDCHAR

STARTCHAR z
ENCODING 122
SWIDTH 587 0
DWIDTH 11 0
BBX 11 20 0 -5
BITMAP
0000
0000
0000
0000
0000
0000
3F80
2180
2300
0600
0400
0C00
1880
3080
3F80
0000
0000
0000
0000
0000
ENDCHAR

STARTCHAR braceleft
ENCODING 123
SWIDTH 587 0
DWIDTH 11 0
BBX 11 20 0 -5
BITMAP
0000
0000
0380
0600
0600
0600
0600
0600
0C00
1800
0C00
0600
0600
0600
0600
0600
0380
0000
0000
0000
ENDCHAR

STARTCHAR bar
ENCODING 124
SWIDTH 587 0
DWIDTH 11 0
BBX 11 20 0 -5
BITMAP
0000
0600
0600
0600
0600
0600
0600
0600
0600
0600
0600
0600
0600
0600
0600
0600
0600
0600
0600
0000
ENDCHAR

STARTCHAR braceright
ENCODING 125
SWIDTH 587 0
DWIDTH 11 0
BBX 11 20 0 -5
BITMAP
0000
0000
1C00
0600
0600
0600
0600
0600
0300
0180
0300
0600
0600
0600
0600
0600
1C00
0000
0000
0000
ENDCHAR

STARTCHAR asciitilde
ENCODING 126
SWIDTH 587 0
DWIDTH 11 0
BBX 11 20 0 -5
BITMAP
0000
0000
1880
2E80
2300
0000
0000
0000
0000
0000
0000
0000
0000
0000
0000
0000
0000
0000
0000
0000
ENDCHAR

STARTCHAR unknown_0x80
ENCODING 128
SWIDTH 587 0
DWIDTH 11 0
BBX 11 20 0 -5
BITMAP
0000
0000
0000
0000
3FE0
6620
C620
C6A0
C680
C780
C680
C620
C620
6620
3FE0
0000
0000
0000
0000
0000
ENDCHAR

STARTCHAR unknown_0x81
ENCODING 129
SWIDTH 587 0
DWIDTH 11 0
BBX 11 20 0 -5
BITMAP
0000
0000
0000
0000
0000
0000
39C0
6F60
C660
C660
C7E0
C600
C600
6F60
39C0
0000
0000
0000
0000
0000
ENDCHAR

STARTCHAR unknown_0x82
ENCODING 130
SWIDTH 587 0
DWIDTH 11 0
BBX 11 20 0 -5
BITMAP
1980
1980
0000
0000
79E0
30C0
1080
1980
0900
0F00
0600
0600
0600
0600
1F80
0000
0000
0000
0000
0000
ENDCHAR

STARTCHAR unknown_0xa1
ENCODING 161
SWIDTH 587 0
DWIDTH 11 0
BBX 11 20 0 -5
BITMAP
0000
0000
0000
0000
0600
0F00
0600
0000
0600
0600
0600
0600
0600
0600
0600
0000
0000
0000
0000
0000
ENDCHAR

STARTCHAR cent
ENCODING 162
SWIDTH 587 0
DWIDTH 11 0
BBX 11 20 0 -5
BITMAP
0000
0000
0000
0200
0200
0200
0FC0
18C0
3040
3000
3000
3000
18C0
0F80
0400
0400
0000
0000
0000
0000
ENDCHAR

STARTCHAR sterling
ENCODING 163
SWIDTH 587 0
DWIDTH 11 0
BBX 11 20 0 -5
BITMAP
0000
0000
0000
0000
0FC0
18C0
1840
1800
0C00
3F80
0C00
0C00
1800
3E40
23C0
0000
0000
0000
0000
0000
ENDCHAR

STARTCHAR currency
ENCODING 164
SWIDTH 587 0
DWIDTH 11 0
BBX 11 20 0 -5
BITMAP
0000
0000
0000
0000
0000
0000
6060
3FC0
1980
1080
1080
1980
3FC0
6060
0000
0000
0000
0000
0000
0000
ENDCHAR

STARTCHAR yen
ENCODING 165
SWIDTH 587 0
DWIDTH 11 0
BBX 11 20 0 -5
BITMAP
0000
0000
0000
0000
79E0
30C0
1080
79E0
0900
0F00
7FE0
0600
0600
0600
1F80
0000
0000
0000
0000
0000
ENDCHAR

STARTCHAR brokenbar
ENCODING 166
SWIDTH 587 0
DWIDTH 11 0
BBX 11 20 0 -5
BITMAP
0000
0000
0600
0600
0600
0600
0600
0600
0600
0000
0000
0000
0600
0600
0600
0600
0600
0600
0600
0000
ENDCHAR

STARTCHAR section
ENCODING 167
SWIDTH 587 0
DWIDTH 11 0
BBX 11 20 0 -5
BITMAP
0000
0000
0000
0000
1F80
3180
3180
7800
4C00
6700
3180
18C0
0E40
03C0
3180
3180
3F00
0000
0000
0000
ENDCHAR

STARTCHAR dieresis
ENCODING 168
SWIDTH 587 0
DWIDTH 11 0
BBX 11 20 0 -5
BITMAP
0000
0000
3180
3180
0000
0000
0000
0000
0000
0000
0000
0000
0000
0000
0000
0000
0000
0000
0000
0000
ENDCHAR

STARTCHAR copyright
ENCODING 169
SWIDTH 587 0
DWIDTH 11 0
BBX 11 20 0 -5
BITMAP
0000
0000
0000
0000
1F00
60C0
4E40
D160
D060
D060
D060
D160
4E40
60C0
1F00
0000
0000
0000
0000
0000
ENDCHAR

STARTCHAR multiply
ENCODING 170
SWIDTH 587 0
DWIDTH 11 0
BBX 11 20 0 -5
BITMAP
0000
0000
0000
0000
0000
0000
2080
3180
1B00
0E00
0E00
1B00
3180
2080
0000
0000
0000
0000
0000
0000
ENDCHAR

STARTCHAR guillemotleft
ENCODING 171
SWIDTH 587 0
DWIDTH 11 0
BBX 11 20 0 -5
BITMAP
0000
0000
0000
0000
0000
0000
0000
0000
0880
1980
3300
3300
3300
1980
0880
0000
0000
0000
0000
0000
ENDCHAR

STARTCHAR logicalnot
ENCODING 172
SWIDTH 587 0
DWIDTH 11 0
BBX 11 20 0 -5
BITMAP
0000
0000
0000
0000
0000
0000
0000
0000
3FC0
3FC0
00C0
00C0
00C0
0000
0000
0000
0000
0000
0000
0000
ENDCHAR

STARTCHAR hyphen
ENCODING 173
SWIDTH 587 0
DWIDTH 11 0
BBX 11 20 0 -5
BITMAP
0000
0000
0000
0000
0000
0000
0000
0000
0000
7FC0
7FC0
0000
0000
0000
0000
0000
0000
0000
0000
0000
ENDCHAR

STARTCHAR registered
ENCODING 174
SWIDTH 587 0
DWIDTH 11 0
BBX 11 20 0 -5
BITMAP
0000
0000
0000
0000
1F00
60C0
5E40
D160
D160
DE60
D160
D160
5140
60C0
1F00
0000
0000
0000
0000
0000
ENDCHAR

STARTCHAR macron
ENCODING 175
SWIDTH 587 0
DWIDTH 11 0
BBX 11 20 0 -5
BITMAP
0000
0000
0000
3F80
0000
0000
0000
0000
0000
0000
0000
0000
0000
0000
0000
0000
0000
0000
0000
0000
ENDCHAR

STARTCHAR degree
ENCODING 176
SWIDTH 587 0
DWIDTH 11 0
BBX 11 20 0 -5
BITMAP
0000
0000
0F00
1980
1080
1080
1980
0F00
0000
0000
0000
0000
0000
0000
0000
0000
0000
0000
0000
0000
ENDCHAR

STARTCHAR plusminus
ENCODING 177
SWIDTH 587 0
DWIDTH 11 0
BBX 11 20 0 -5
BITMAP
0000
0000
0000
0000
0600
0600
0600
3FC0
3FC0
0600
0600
0600
0000
3FC0
3FC0
0000
0000
0000
0000
0000
ENDCHAR

STARTCHAR twosuperior
ENCODING 178
SWIDTH 587 0
DWIDTH 11 0
BBX 11 20 0 -5
BITMAP
0000
0000
0E00
1300
0300
0600
0C00
1900
1F00
0000
0000
0000
0000
0000
0000
0000
0000
0000
0000
0000
ENDCHAR

STARTCHAR threesuperior
ENCODING 179
SWIDTH 587 0
DWIDTH 11 0
BBX 11 20 0 -5
BITMAP
0000
0000
0E00
1300
0300
0600
0300
1300
0E00
0000
0000
0000
0000
0000
0000
0000
0000
0000
0000
0000
ENDCHAR

STARTCHAR acute
ENCODING 180
SWIDTH 587 0
DWIDTH 11 0
BBX 11 20 0 -5
BITMAP
0000
0000
0700
0C00
1000
0000
0000
0000
0000
0000
0000
0000
0000
0000
0000
0000
0000
0000
0000
0000
ENDCHAR

STARTCHAR mu
ENCODING 181
SWIDTH 587 0
DWIDTH 11 0
BBX 11 20 0 -5
BITMAP
0000
0000
0000
0000
0000
0000
3860
1860
1860
1840
10C0
30C0
30C0
31C0
3EE0
2000
6000
6000
6000
0000
ENDCHAR

STARTCHAR paragraph
ENCODING 182
SWIDTH 587 0
DWIDTH 11 0
BBX 11 20 0 -5
BITMAP
0000
0000
0000
0000
1FC0
3D00
7D00
7D00
7D00
3D00
1D00
0500
0500
0500
0500
0500
1DC0
0000
0000
0000
ENDCHAR

STARTCHAR periodcentered
ENCODING 183
SWIDTH 587 0
DWIDTH 11 0
BBX 11 20 0 -5
BITMAP
0000
0000
0000
0000
0000
0000
0000
0000
0600
0F00
0F00
0600
0000
0000
0000
0000
0000
0000
0000
0000
ENDCHAR

STARTCHAR cedilla
ENCODING 184
SWIDTH 587 0
DWIDTH 11 0
BBX 11 20 0 -5
BITMAP
0000
0000
0000
0000
0000
0000
0000
0000
0000
0000
0000
0000
0000
0000
0000
0400
0700
0180
1180
0F00
ENDCHAR

STARTCHAR onesuperior
ENCODING 185
SWIDTH 587 0
DWIDTH 11 0
BBX 11 20 0 -5
BITMAP
0000
0000
1E00
0600
0600
0600
0600
0600
1F80
0000
0000
0000
0000
0000
0000
0000
0000
0000
0000
0000
ENDCHAR

STARTCHAR divide
ENCODING 186
SWIDTH 587 0
DWIDTH 11 0
BBX 11 20 0 -5
BITMAP
0000
0000
0000
0000
0000
0000
0600
0600
0000
3FC0
3FC0
0000
0600
0600
0000
0000
0000
0000
0000
0000
ENDCHAR

STARTCHAR guillemotright
ENCODING 187
SWIDTH 587 0
DWIDTH 11 0
BBX 11 20 0 -5
BITMAP
0000
0000
0000
0000
0000
0000
0000
0000
2200
3300
1980
1980
1980
3300
2200
0000
0000
0000
0000
0000
ENDCHAR

STARTCHAR onequarter
ENCODING 188
SWIDTH 587 0
DWIDTH 11 0
BBX 11 20 0 -5
BITMAP
0000
0000
0000
0000
7000
3000
3000
3000
3000
3060
79C0
0700
1CC0
71C0
42C0
04C0
0FE0
00C0
00C0
0000
ENDCHAR

STARTCHAR onehalf
ENCODING 189
SWIDTH 587 0
DWIDTH 11 0
BBX 11 20 0 -5
BITMAP
0000
0000
0000
0000
7000
3000
3000
3000
3000
3060
79C0
0700
1DC0
7260
4060
00C0
0180
0320
03E0
0000
ENDCHAR

STARTCHAR threequarters
ENCODING 190
SWIDTH 587 0
DWIDTH 11 0
BBX 11 20 0 -5
BITMAP
0000
0000
0000
0000
3800
4C00
0C00
1800
0C00
4C60
39C0
0700
1CC0
71C0
42C0
04C0
0FE0
00C0
00C0
0000
ENDCHAR

STARTCHAR unknown_0xbf
ENCODING 191
SWIDTH 587 0
DWIDTH 11 0
BBX 11 20 0 -5
BITMAP
0000
0000
0000
0000
0300
0780
0300
0000
0300
0700
1C00
3000
3000
30C0
1F80
0000
0000
0000
0000
0000
ENDCHAR

STARTCHAR dblunderscore
ENCODING 223
SWIDTH 587 0
DWIDTH 11 0
BBX 11 20 0 -5
BITMAP
0000
0000
0000
0000
0000
0000
0000
0000
0000
0000
0000
0000
0000
7FE0
7FE0
0000
0000
7FE0
7FE0
0000
ENDCHAR

STARTCHAR aleph
ENCODING 224
SWIDTH 587 0
DWIDTH 11 0
BBX 11 20 0 -5
BITMAP
0000
0000
0000
0000
0000
60C0
30C0
18C0
1CC0
3780
3300
6180
6180
60C0
60C0
0000
0000
0000
0000
0000
ENDCHAR

STARTCHAR beth
ENCODING 225
SWIDTH 587 0
DWIDTH 11 0
BBX 11 20 0 -5
BITMAP
0000
0000
0000
0000
0000
3E00
0300
0300
0300
0300
0300
0300
0300
0300
3FC0
0000
0000
0000
0000
0000
ENDCHAR

STARTCHAR gimmel
ENCODING 226
SWIDTH 587 0
DWIDTH 11 0
BBX 11 20 0 -5
BITMAP
0000
0000
0000
0000
0000
1E00
0300
0300
0300
0300
0300
0700
0F00
1B00
3300
0000
0000
0000
0000
0000
ENDCHAR

STARTCHAR daleth
ENCODING 227
SWIDTH 587 0
DWIDTH 11 0
BBX 11 20 0 -5
BITMAP
0000
0000
0000
0000
0000
FF80
0600
0600
0600
0600
0600
0600
0600
0600
0600
0000
0000
0000
0000
0000
ENDCHAR

STARTCHAR he
ENCODING 228
SWIDTH 587 0
DWIDTH 11 0
BBX 11 20 0 -5
BITMAP
0000
0000
0000
0000
0000
7F00
0180
0180
6180
6180
6180
6180
6180
6180
6180
0000
0000
0000
0000
0000
ENDCHAR

STARTCHAR waw
ENCODING 229
SWIDTH 587 0
DWIDTH 11 0
BBX 11 20 0 -5
BITMAP
0000
0000
0000
0000
0000
3E00
0600
0600
0600
0600
0600
0600
0600
0600
0600
0000
0000
0000
0000
0000
ENDCHAR

STARTCHAR zayin
ENCODING 230
SWIDTH 587 0
DWIDTH 11 0
BBX 11 20 0 -5
BITMAP
0000
0000
0000
0000
0000
3F00
0C00
0C00
0C00
0C00
0600
0600
0600
0600
0600
0000
0000
0000
0000
0000
ENDCHAR

STARTCHAR het
ENCODING 231
SWIDTH 587 0
DWIDTH 11 0
BBX 11 20 0 -5
BITMAP
0000
0000
0000
0000
0000
7F00
6180
6180
6180
6180
6180
6180
6180
6180
6180
0000
0000
0000
0000
0000
ENDCHAR

STARTCHAR teth
ENCODING 232
SWIDTH 587 0
DWIDTH 11 0
BBX 11 20 0 -5
BITMAP
0000
0000
0000
0000
0000
6380
64C0
64C0
60C0
60C0
60C0
60C0
60C0
3180
1F00
0000
0000
0000
0000
0000
ENDCHAR

STARTCHAR yod
ENCODING 233
SWIDTH 587 0
DWIDTH 11 0
BBX 11 20 0 -5
BITMAP
0000
0000
0000
0000
0000
1F00
0300
0300
0300
0300
0300
0000
0000
0000
0000
0000
0000
0000
0000
0000
ENDCHAR

STARTCHAR kaphfinal
ENCODING 234
SWIDTH 587 0
DWIDTH 11 0
BBX 11 20 0 -5
BITMAP
0000
0000
0000
0000
0000
3F00
0180
0180
0180
0180
0180
0180
0180
0180
0180
0180
0180
0180
0000
0000
ENDCHAR

STARTCHAR kaph
ENCODING 235
SWIDTH 587 0
DWIDTH 11 0
BBX 11 20 0 -5
BITMAP
0000
0000
0000
0000
0000
3E00
0300
0180
0180
0180
0180
0180
0180
0300
3E00
0000
0000
0000
0000
0000
ENDCHAR

STARTCHAR lamed
ENCODING 236
SWIDTH 587 0
DWIDTH 11 0
BBX 11 20 0 -5
BITMAP
0000
0000
6000
6000
6000
7F00
0180
0180
0180
0300
0300
0600
0600
0C00
0C00
0000
0000
0000
0000
0000
ENDCHAR

STARTCHAR memfinal
ENCODING 237
SWIDTH 587 0
DWIDTH 11 0
BBX 11 20 0 -5
BITMAP
0000
0000
0000
0000
0000
7F00
6180
6180
6180
6180
6180
6180
6180
6180
7F80
0000
0000
0000
0000
0000
ENDCHAR

STARTCHAR mem
ENCODING 238
SWIDTH 587 0
DWIDTH 11 0
BBX 11 20 0 -5
BITMAP
0000
0000
0000
0000
0000
6700
6D80
68C0
30C0
30C0
30C0
20C0
60C0
6180
6F00
0000
0000
0000
0000
0000
ENDCHAR

STARTCHAR nunfinal
ENCODING 239
SWIDTH 587 0
DWIDTH 11 0
BBX 11 20 0 -5
BITMAP
0000
0000
0000
0000
0000
0F00
0300
0300
0300
0300
0300
0300
0300
0300
0300
0300
0300
0300
0300
0000
ENDCHAR

STARTCHAR nun
ENCODING 240
SWIDTH 587 0
DWIDTH 11 0
BBX 11 20 0 -5
BITMAP
0000
0000
0000
0000
0000
0E00
0300
0300
0300
0300
0300
0300
0300
0300
1F00
0000
0000
0000
0000
0000
ENDCHAR

STARTCHAR samekh
ENCODING 241
SWIDTH 587 0
DWIDTH 11 0
BBX 11 20 0 -5
BITMAP
0000
0000
0000
0000
0000
7F00
6180
6180
6180
6180
6180
6180
6180
3300
1E00
0000
0000
0000
0000
0000
ENDCHAR

STARTCHAR ayin
ENCODING 242
SWIDTH 587 0
DWIDTH 11 0
BBX 11 20 0 -5
BITMAP
0000
0000
0000
0000
0000
3180
3180
3180
3180
3180
3180
3180
3180
3300
7E00
0000
0000
0000
0000
0000
ENDCHAR

STARTCHAR pefinal
ENCODING 243
SWIDTH 587 0
DWIDTH 11 0
BBX 11 20 0 -5
BITMAP
0000
0000
0000
0000
0000
3F00
6180
6180
6180
6180
6180
3980
0180
0180
0180
0180
0180
0180
0180
0000
ENDCHAR

STARTCHAR pe
ENCODING 244
SWIDTH 587 0
DWIDTH 11 0
BBX 11 20 0 -5
BITMAP
0000
0000
0000
0000
0000
3E00
6300
6180
6180
6180
3980
0180
0180
0180
7F00
0000
0000
0000
0000
0000
ENDCHAR

STARTCHAR zadikfinal
ENCODING 245
SWIDTH 587 0
DWIDTH 11 0
BBX 11 20 0 -5
BITMAP
0000
0000
0000
0000
0000
30C0
30C0
30C0
30C0
3180
3700
3C00
3000
3000
3000
3000
3000
3000
3000
0000
ENDCHAR

STARTCHAR zadik
ENCODING 246
SWIDTH 587 0
DWIDTH 11 0
BBX 11 20 0 -5
BITMAP
0000
0000
0000
0000
0000
30C0
30C0
18C0
1980
0D80
0F00
0600
0300
0180
7F80
0000
0000
0000
0000
0000
ENDCHAR

STARTCHAR kof
ENCODING 247
SWIDTH 587 0
DWIDTH 11 0
BBX 11 20 0 -5
BITMAP
0000
0000
0000
0000
0000
7F80
00C0
00C0
30C0
30C0
30C0
3180
3180
3300
3600
3000
3000
3000
3000
0000
ENDCHAR

STARTCHAR resh
ENCODING 248
SWIDTH 587 0
DWIDTH 11 0
BBX 11 20 0 -5
BITMAP
0000
0000
0000
0000
0000
3F00
0180
0180
0180
0180
0180
0180
0180
0180
0180
0000
0000
0000
0000
0000
ENDCHAR

STARTCHAR shin
ENCODING 249
SWIDTH 587 0
DWIDTH 11 0
BBX 11 20 0 -5
BITMAP
0000
0000
0000
0000
0000
CCC0
CCC0
CCC0
CCC0
CCC0
CCC0
CCC0
CCC0
6D80
3F00
0000
0000
0000
0000
0000
ENDCHAR

STARTCHAR taf
ENCODING 250
SWIDTH 587 0
DWIDTH 11 0
BBX 11 20 0 -5
BITMAP
0000
0000
0000
0000
0000
FF00
3180
3180
3180
3180
3180
3180
3180
3180
E180
0000
0000
0000
0000
0000
ENDCHAR

ENDFONT
