STARTFONT 2.1
FONT -Monotype-Times New Roman-Bold-I-Normal--36-360-75-75-P-198-iso8859-7
SIZE 36 75 75
FONTBOUNDINGBOX 47 43 -6 -9

STARTPROPERTIES 24
FOUNDRY "Monotype"
FAMILY_NAME "Times New Roman"
WEIGHT_NAME "Bold"
SLANT "I"
SETWIDTH_NAME "Normal"
ADD_STYLE_NAME ""
PIXEL_SIZE 36
POINT_SIZE 360
RESOLUTION_X 75
RESOLUTION_Y 75
SPACING "P"
AVERAGE_WIDTH 198
CHARSET_REGISTRY "iso8859"
CHARSET_ENCODING "7"
FACE_NAME "Times New Roman Bold Inclined ISO Latin Greek"
_DEC_DEVICE_FONTNAMES "PS=timesnewroman-bin-latgreek"
COPYRIGHT "Copyright (c) 1993 Monotype Typography Ltd."
CAP_HEIGHT 29
X_HEIGHT 19
WEIGHT 10
QUAD_WIDTH 23
DEFAULT_CHAR 160
FONT_DESCENT 9
FONT_ASCENT 34
ENDPROPERTIES

CHARS 185

STARTCHAR space
ENCODING 32
SWIDTH 250 0
DWIDTH 10 0
BBX 0 0 0 0
BITMAP
ENDCHAR

STARTCHAR exclam
ENCODING 33
SWIDTH 271 0
DWIDTH 10 0
BBX 11 27 0 0
BITMAP
00E0
01E0
03E0
03E0
03E0
03E0
03C0
03C0
0380
0780
0700
0700
0600
0600
0600
0400
0400
0800
0800
0000
0000
7800
FC00
FC00
FC00
FC00
7800
ENDCHAR

STARTCHAR quotedbl
ENCODING 34
SWIDTH 552 0
DWIDTH 21 0
BBX 14 13 6 13
BITMAP
7038
F87C
F87C
F87C
F87C
F87C
F87C
7038
7038
7038
7038
2010
2010
ENDCHAR

STARTCHAR numbersign
ENCODING 35
SWIDTH 667 0
DWIDTH 25 0
BBX 22 26 2 -3
BITMAP
01E078
01C070
01C070
03C0F0
03C0F0
0380F0
0380E0
FFFFFC
FFFFFC
FFFFFC
0701C0
0701C0
0F01C0
0F03C0
0F03C0
0E0380
FFFFFC
FFFFFC
FFFFFC
1C0780
1C0700
1C0700
3C0F00
3C0F00
380F00
380E00
ENDCHAR

STARTCHAR dollar
ENCODING 36
SWIDTH 500 0
DWIDTH 19 0
BBX 18 31 1 -3
BITMAP
000C00
003C00
03FF00
071BC0
0F1980
0E1180
1E1180
1E3100
1E3100
1F2000
0FE000
0FE000
0FE000
07F000
03F800
01FC00
00FE00
01BE00
01BF00
011F00
010F00
430F00
420F00
E20F00
E61E00
F61C00
FC7800
3FE000
0C0000
080000
080000
ENDCHAR

STARTCHAR percent
ENCODING 37
SWIDTH 875 0
DWIDTH 33 0
BBX 30 28 2 -1
BITMAP
0380001C
04400038
0C600070
186000E0
386001C0
38E00380
70E00700
70E00E00
71C01C00
61C03800
61807000
6300E000
2201C000
1C0380E0
00070110
000E0318
001C0618
00380E18
00700E38
00E01C38
01C01C38
03801C70
07001870
0E001860
1C0018C0
30000880
60000700
C0000000
ENDCHAR

STARTCHAR ampersand
ENCODING 38
SWIDTH 719 0
DWIDTH 27 0
BBX 25 27 2 0
BITMAP
0007E000
000EF000
001C7800
00387800
00387800
00787800
0078F000
0078F000
007DE000
007D8000
007E0000
007C0000
00FC3F80
03FE3F00
0F7E1C00
1E3E1C00
3C3F1800
783F3000
F81FA000
F81FE000
FC0FC000
FC0FC000
FE0FE000
FF0FF880
7FFBFF00
3FF1FE00
1F807C00
ENDCHAR

STARTCHAR quoteright
ENCODING 39
SWIDTH 271 0
DWIDTH 10 0
BBX 8 12 4 15
BITMAP
0C
3E
3F
3F
3F
1F
0E
0E
0C
18
30
C0
ENDCHAR

STARTCHAR parenleft
ENCODING 40
SWIDTH 500 0
DWIDTH 19 0
BBX 15 34 4 -7
BITMAP
0002
000C
0018
0070
00E0
01C0
03C0
0780
0F80
0F00
1F00
3E00
3E00
7C00
7C00
7C00
7800
F800
F800
F800
F000
F000
F000
7000
7000
7000
7000
3000
3000
1000
1800
0800
0800
0800
ENDCHAR

STARTCHAR parenright
ENCODING 41
SWIDTH 500 0
DWIDTH 19 0
BBX 15 34 0 -7
BITMAP
0020
0020
0020
0030
0010
0018
0018
001C
001C
001C
001C
001E
001E
001E
001E
003E
003E
003E
007C
007C
007C
00F8
00F8
00F0
01F0
01E0
03C0
0380
0780
0E00
1C00
3800
6000
8000
ENDCHAR

STARTCHAR asterisk
ENCODING 42
SWIDTH 500 0
DWIDTH 19 0
BBX 14 14 6 13
BITMAP
0300
0780
0780
0780
E31C
F33C
F97C
FFFC
0300
0480
1CE0
3CF0
3CF0
3870
ENDCHAR

STARTCHAR plus
ENCODING 43
SWIDTH 667 0
DWIDTH 25 0
BBX 20 20 3 0
BITMAP
00F000
00F000
00F000
00F000
00F000
00F000
00F000
00F000
FFFFF0
FFFFF0
FFFFF0
FFFFF0
00F000
00F000
00F000
00F000
00F000
00F000
00F000
00F000
ENDCHAR

STARTCHAR comma
ENCODING 44
SWIDTH 271 0
DWIDTH 10 0
BBX 8 12 0 -7
BITMAP
0C
3E
3F
3F
3F
1F
0E
0E
0C
18
30
C0
ENDCHAR

STARTCHAR minus
ENCODING 45
SWIDTH 667 0
DWIDTH 25 0
BBX 21 4 2 8
BITMAP
FFFFF8
FFFFF8
FFFFF8
FFFFF8
ENDCHAR

STARTCHAR period
ENCODING 46
SWIDTH 271 0
DWIDTH 10 0
BBX 6 6 2 0
BITMAP
78
FC
FC
FC
FC
78
ENDCHAR

STARTCHAR slash
ENCODING 47
SWIDTH 281 0
DWIDTH 11 0
BBX 10 27 1 0
BITMAP
03C0
03C0
07C0
0780
0780
0780
0F80
0F00
0F00
0F00
1F00
1E00
1E00
1E00
3E00
3E00
3C00
3C00
3C00
7C00
7800
7800
7800
F800
F000
F000
F000
ENDCHAR

STARTCHAR zero
ENCODING 48
SWIDTH 500 0
DWIDTH 19 0
BBX 18 27 1 0
BITMAP
003C00
00E700
01C380
038380
078380
0F03C0
0F03C0
1F03C0
1E03C0
3E07C0
3E07C0
7C07C0
7C0F80
7C0F80
7C0F80
F80F80
F81F00
F81F00
F01E00
F03E00
F03C00
F03C00
707800
707000
30E000
39C000
0F0000
ENDCHAR

STARTCHAR one
ENCODING 49
SWIDTH 500 0
DWIDTH 19 0
BBX 16 27 1 0
BITMAP
0003
003E
07FE
007E
007E
007C
007C
007C
0078
00F8
00F8
00F8
01F0
01F0
01F0
01E0
03E0
03E0
03E0
03C0
07C0
07C0
07C0
0F80
0F80
1FC0
FFF8
ENDCHAR

STARTCHAR two
ENCODING 50
SWIDTH 500 0
DWIDTH 19 0
BBX 17 27 1 0
BITMAP
00F800
03FE00
07FF00
07FF00
0C3F80
180F80
080F80
000780
000780
000780
000780
000F00
000F00
001E00
001C00
003800
007000
00E000
00C000
018000
030300
060600
0C3E00
1FFC00
3FFC00
7FFC00
FFF800
ENDCHAR

STARTCHAR three
ENCODING 51
SWIDTH 500 0
DWIDTH 19 0
BBX 17 27 1 0
BITMAP
007C00
00FF00
01FF00
021F80
040F80
000F80
000F80
000F00
000E00
001C00
002800
01F000
0FF800
01FC00
007E00
003E00
003E00
003E00
001E00
001E00
001E00
001C00
003C00
703800
F83000
FCE000
7F8000
ENDCHAR

STARTCHAR four
ENCODING 52
SWIDTH 500 0
DWIDTH 19 0
BBX 18 27 1 0
BITMAP
0001C0
0003C0
000780
000F80
000F80
001F00
003F00
006F00
00DF00
01BE00
033E00
063E00
043C00
0C7C00
187C00
307C00
60F800
40F800
FFFF00
FFFF00
FFFF00
01F000
01F000
03E000
03E000
03E000
07C000
ENDCHAR

STARTCHAR five
ENCODING 53
SWIDTH 500 0
DWIDTH 19 0
BBX 18 27 1 0
BITMAP
00FFC0
01FF80
01FF80
03FF80
020000
060000
040000
0FC000
0FE000
1FF800
1FF800
01FC00
00FE00
007E00
003E00
003E00
001E00
001E00
001E00
001C00
001C00
001800
403800
F03000
F86000
FF8000
7E0000
ENDCHAR

STARTCHAR six
ENCODING 54
SWIDTH 500 0
DWIDTH 19 0
BBX 20 27 1 0
BITMAP
000070
000780
001E00
007800
00F000
03E000
07C000
0F8000
0F8000
1F0000
3EF800
3FFE00
7E1F00
7C0F00
7C0F80
FC0F80
F80F80
F80F80
F80F80
F81F80
F01F00
F01F00
703E00
703C00
307800
18F000
07C000
ENDCHAR

STARTCHAR seven
ENCODING 55
SWIDTH 500 0
DWIDTH 19 0
BBX 17 27 3 0
BITMAP
1FFF80
1FFF80
3FFF00
3FFF00
700600
C00E00
000C00
001800
001800
003000
007000
006000
00C000
00C000
018000
018000
030000
060000
060000
0C0000
0C0000
180000
380000
300000
600000
E00000
400000
ENDCHAR

STARTCHAR eight
ENCODING 56
SWIDTH 500 0
DWIDTH 19 0
BBX 18 27 1 0
BITMAP
00FC00
01C700
038380
0783C0
0783C0
0F83C0
0F83C0
0F83C0
0FC780
07C700
07EE00
03F800
01F800
07FC00
0CFC00
3C7E00
387E00
783F00
F81F00
F01F00
F01F00
F01F00
F01E00
703E00
703C00
38F000
0FC000
ENDCHAR

STARTCHAR nine
ENCODING 57
SWIDTH 500 0
DWIDTH 19 0
BBX 19 27 0 0
BITMAP
007E00
01E380
03E180
07C1C0
07C1E0
0F81E0
0F81E0
0F83E0
1F03E0
1F03E0
1F03E0
1F07E0
1F07C0
0F07C0
0F8FC0
07FF80
01EF80
001F00
003F00
003E00
007C00
00F800
01F000
03E000
078000
1E0000
E00000
ENDCHAR

STARTCHAR colon
ENCODING 58
SWIDTH 333 0
DWIDTH 13 0
BBX 9 17 2 0
BITMAP
0F00
1F80
1F80
1F80
1F80
0600
0000
0000
0000
0000
0000
7800
FC00
FC00
FC00
FC00
7800
ENDCHAR

STARTCHAR semicolon
ENCODING 59
SWIDTH 333 0
DWIDTH 13 0
BBX 11 24 0 -7
BITMAP
03C0
07E0
07E0
07E0
07E0
03C0
0000
0000
0000
0000
0000
0000
0000
1E00
3F00
3F00
3F00
3F00
1E00
0E00
0C00
1800
3000
E000
ENDCHAR

STARTCHAR less
ENCODING 60
SWIDTH 667 0
DWIDTH 25 0
BBX 20 21 3 0
BITMAP
000010
000030
0001F0
0007F0
003FF0
00FFC0
03FF00
1FF800
7FE000
FF0000
F80000
FE0000
FFC000
3FF000
07FE00
01FF80
003FF0
000FF0
0003F0
000070
000010
ENDCHAR

STARTCHAR equal
ENCODING 61
SWIDTH 667 0
DWIDTH 25 0
BBX 20 13 3 4
BITMAP
FFFFF0
FFFFF0
FFFFF0
FFFFF0
000000
000000
000000
000000
000000
FFFFF0
FFFFF0
FFFFF0
FFFFF0
ENDCHAR

STARTCHAR greater
ENCODING 62
SWIDTH 667 0
DWIDTH 25 0
BBX 20 21 3 0
BITMAP
800000
E00000
F80000
FE0000
FFC000
3FF000
07FE00
01FF80
003FE0
000FF0
0001F0
0007F0
001FF0
00FFC0
03FE00
1FF800
7FE000
FF0000
FC0000
E00000
800000
ENDCHAR

STARTCHAR question
ENCODING 63
SWIDTH 385 0
DWIDTH 15 0
BBX 14 27 2 0
BITMAP
03E0
0670
0E38
1E3C
1F3C
1F3C
0F3C
0E7C
007C
00F8
01F0
01E0
0380
0700
0E00
0C00
1800
1000
1000
0000
0000
7800
FC00
FC00
FC00
FC00
7800
ENDCHAR

STARTCHAR at
ENCODING 64
SWIDTH 927 0
DWIDTH 35 0
BBX 34 36 1 -9
BITMAP
0007FE0000
001E038000
0070006000
01C0003000
0380001800
0700000C00
0E00000400
1C00000200
1800000200
3801E38300
3007B78100
700F178100
601E1F0100
603E1F0100
E03C1F0100
C07C1F0100
C0783E0100
C0F83E0300
C0F83E0200
C0F07C0200
C1F07C0600
C1F0BC0400
C1F17C0800
41FB781800
61FE7830C0
60FC7CC080
20F83F0180
3000000100
1000000200
1800000600
0C00000C00
0600001800
0300007000
00C001C000
00380F0000
000FF80000
ENDCHAR

STARTCHAR A
ENCODING 65
SWIDTH 719 0
DWIDTH 27 0
BBX 24 27 0 0
BITMAP
000003
000002
000006
00000E
00001E
00003E
00003E
00007E
0000FE
0001BE
00037E
00067E
00047E
000C7E
00187E
00307C
00607C
007FFC
00C07C
01807C
03007C
06007C
04007C
0C007C
1C00FC
3C00FE
FF07FF
ENDCHAR

STARTCHAR B
ENCODING 66
SWIDTH 667 0
DWIDTH 25 0
BBX 26 27 0 0
BITMAP
01FFFE00
003F3F00
003E1F80
003E0FC0
007E0FC0
007E0FC0
007C0FC0
00FC0F80
00FC1F80
00FC1F00
00F83E00
01F8F800
01FFC000
01FFF000
03F07C00
03F07E00
03F03E00
03F03F00
07E03F00
07E03F00
07E03F00
07C07F00
0FC07E00
0FC0FE00
0FC1FC00
1F87F000
FFFFC000
ENDCHAR

STARTCHAR C
ENCODING 67
SWIDTH 719 0
DWIDTH 27 0
BBX 27 27 3 0
BITMAP
0001F820
001FFFE0
007E03E0
00F801C0
03F000C0
07E000C0
0FC00040
1F800040
3F800000
3F000000
7F000000
7E000000
7E000000
FE000000
FC000000
FC000000
FC000000
FC000000
FC000000
FC000000
7E000000
7E000600
3F000800
1F801800
0FE0E000
07FFC000
00FE0000
ENDCHAR

STARTCHAR D
ENCODING 68
SWIDTH 771 0
DWIDTH 29 0
BBX 28 27 1 0
BITMAP
03FFF000
007FFE00
007E1F00
007E0F80
007C07C0
00FC07E0
00FC07E0
00FC03F0
00F803F0
01F803F0
01F803F0
01F003F0
01F003F0
03F003F0
03F003F0
03E007F0
07E007E0
07E007E0
07C00FC0
07C00FC0
0FC01F80
0FC01F00
0F803E00
1F807C00
1F81F800
3FC7E000
FFFF0000
ENDCHAR

STARTCHAR E
ENCODING 69
SWIDTH 667 0
DWIDTH 25 0
BBX 26 27 1 0
BITMAP
03FFFFC0
00FE0FC0
007C0380
00FC0180
00FC0180
00FC0080
00F80000
01F80000
01F80800
01F01000
01F03000
03F0F000
03FFF000
03E0E000
07E06000
07E06000
07E04000
07C00000
0FC00000
0FC00000
0F800200
0F800C00
1F801C00
1F803C00
1F80F800
3FC7F800
FFFFF000
ENDCHAR

STARTCHAR F
ENCODING 70
SWIDTH 604 0
DWIDTH 23 0
BBX 25 27 1 0
BITMAP
07FFFF80
00FE3F00
00FC0F00
00FC0700
00FC0200
00F80200
01F80000
01F80000
01F82000
01F06000
03F0C000
03F7C000
03FFC000
03E3C000
07E18000
07E08000
07C08000
0FC00000
0FC00000
0FC00000
0F800000
1F800000
1F800000
1F800000
3F000000
3F800000
FFF00000
ENDCHAR

STARTCHAR G
ENCODING 71
SWIDTH 719 0
DWIDTH 27 0
BBX 27 27 1 0
BITMAP
0007FE20
003F8FE0
00FC03E0
01F801C0
07F000C0
0FE000C0
1FC00040
1F800040
3F000000
7F000000
7E000000
7E000000
FE000000
FC000000
FC01FF80
FC007F00
FC007E00
FC007E00
FC007E00
7C007C00
7C00FC00
3E00FC00
3E00F800
1F01F800
0F81F800
03E3F800
00FFC000
ENDCHAR

STARTCHAR H
ENCODING 72
SWIDTH 823 0
DWIDTH 31 0
BBX 33 27 1 0
BITMAP
03FFE7FF80
00FE00FE00
007E00FC00
007C00FC00
00FC00F800
00FC01F800
00F801F800
01F801F800
01F801F000
01F803F000
01F003F000
03F003E000
03FFFFE000
03E007E000
03E007E000
07E007C000
07E00FC000
07C00FC000
0FC00FC000
0FC00F8000
0F801F8000
0F801F8000
1F801F0000
1F803F0000
1F803F0000
3F807F8000
FFE3FFE000
ENDCHAR

STARTCHAR I
ENCODING 73
SWIDTH 385 0
DWIDTH 15 0
BBX 17 27 1 0
BITMAP
07FF80
00FE00
00FC00
00FC00
00F800
01F800
01F800
01F800
01F000
03F000
03F000
03E000
07E000
07E000
07E000
07C000
0FC000
0FC000
0F8000
1F8000
1F8000
1F8000
1F0000
3F0000
3F0000
7F8000
FFE000
ENDCHAR

STARTCHAR J
ENCODING 74
SWIDTH 500 0
DWIDTH 19 0
BBX 21 27 1 0
BITMAP
007FF8
000FE0
000FE0
000FC0
000FC0
000FC0
000F80
001F80
001F80
001F00
003F00
003F00
003F00
003E00
007E00
007E00
007C00
00FC00
00FC00
00FC00
70F800
79F800
F9F000
F9F000
F3E000
7FC000
1F0000
ENDCHAR

STARTCHAR K
ENCODING 75
SWIDTH 719 0
DWIDTH 27 0
BBX 31 27 0 0
BITMAP
01FFE7FE
007F83F0
003F03C0
003E0380
007E0700
007E0C00
007C1800
007C3000
00FC6000
00FCC000
00F9C000
01FFC000
01FBE000
01F7E000
01F3E000
03F3F000
03F3F000
03E1F000
07E1F800
07E1F800
07E0F800
07C0FC00
0FC0FC00
0FC07C00
0FC07E00
1FC0FF00
FFFBFF80
ENDCHAR

STARTCHAR L
ENCODING 76
SWIDTH 667 0
DWIDTH 25 0
BBX 23 27 1 0
BITMAP
03FFC0
00FF00
007E00
007C00
00FC00
00FC00
00FC00
00F800
01F800
01F800
01F000
01F000
03F000
03F000
03E000
07E000
07E000
07E000
07C000
0FC000
0FC002
0F8006
0F800C
1F803C
1F807C
3FC7F8
FFFFF8
ENDCHAR

STARTCHAR M
ENCODING 77
SWIDTH 990 0
DWIDTH 38 0
BBX 41 27 0 0
BITMAP
01FF0000FF80
007F0001FC00
003F0001F800
003F0003F800
006F8006F800
006F800DF000
005F800FF000
004F801BF000
00CF8033F000
00CF8023E000
008F8067E000
018FC0C7E000
018FC187C000
010FC187C000
0107C30FC000
0307C60FC000
0307C40F8000
0207CC1F8000
0607D81F8000
0607F01F8000
0407F01F0000
0403E03F0000
0C03C03F0000
0C03803E0000
1C03807E0000
3E03007F0000
FF8203FFC000
ENDCHAR

STARTCHAR N
ENCODING 78
SWIDTH 771 0
DWIDTH 29 0
BBX 33 27 0 0
BITMAP
01FE007F80
007F001E00
003F000C00
007F000800
006F801800
005F801800
004FC01000
00CFC01000
0087E03000
0087E03000
0183F02000
0183F02000
0101F86000
0101F84000
0300FC4000
0200FCC000
02007EC000
06007E8000
06003F8000
04003F8000
04001F0000
0C001F0000
0C000F0000
08000F0000
1C00060000
3C00060000
FF00020000
ENDCHAR

STARTCHAR O
ENCODING 79
SWIDTH 771 0
DWIDTH 29 0
BBX 27 27 3 0
BITMAP
0007FC00
001E3E00
00780F80
01F00F80
03E007C0
07C007C0
0FC007E0
0F8007E0
1F8007E0
3F0007E0
3F0007E0
7F000FE0
7E000FE0
7E000FC0
FE000FC0
FE001FC0
FC001F80
FC001F80
FC003F00
FC003E00
FC007E00
7C007C00
7C00F800
3E01E000
1E03C000
0F8F0000
03FC0000
ENDCHAR

STARTCHAR P
ENCODING 80
SWIDTH 667 0
DWIDTH 25 0
BBX 25 27 1 0
BITMAP
07FFF800
00FFFE00
00FC3F00
00FC1F00
00FC1F80
00FC1F80
00F81F80
01F81F80
01F81F80
01F03F00
03F03F00
03F07E00
03E0FC00
03FFF000
07FF8000
07E00000
07E00000
07C00000
0FC00000
0FC00000
0F800000
1F800000
1F800000
1F800000
3F000000
3F800000
FFF00000
ENDCHAR

STARTCHAR Q
ENCODING 81
SWIDTH 771 0
DWIDTH 29 0
BBX 27 35 3 -8
BITMAP
0007FC00
001E3E00
00780F00
01F00F80
03E007C0
07E007C0
0FC007E0
0F8007E0
1F8007E0
3F0007E0
3F0007E0
7F000FE0
7E000FE0
7E000FC0
FE000FC0
FE001FC0
FC001F80
FC001F80
FC003F00
FC003E00
FC007E00
7C007C00
7C00F800
3E01E000
1E03C000
0F8F0000
03FC0000
00C00000
01800000
03000040
06F800C0
1FFF8380
3FFFFF00
7FFFFC00
007FF000
ENDCHAR

STARTCHAR R
ENCODING 82
SWIDTH 719 0
DWIDTH 27 0
BBX 26 27 0 0
BITMAP
03FFFE00
007E3F00
007E1F80
007E0FC0
007E0FC0
007C0FC0
00FC0FC0
00FC0FC0
00F81FC0
01F81F80
01F83F00
01F87E00
01F0FC00
03FFC000
03F7E000
03F3E000
03E3E000
07E3F000
07E1F000
07C1F000
0FC1F800
0FC0F800
0FC0F800
0F80FC00
1F807C00
3FC07E00
FFF07F80
ENDCHAR

STARTCHAR S
ENCODING 83
SWIDTH 604 0
DWIDTH 23 0
BBX 24 27 1 0
BITMAP
001F81
007FFF
00F83E
01F01E
03E00E
03E006
03E006
03F004
03F004
03F800
01FC00
01FE00
00FF00
007F80
003FC0
001FE0
000FF0
0007F0
2003F0
2001F0
3001F0
7001F0
7001F0
7803E0
7C07C0
FF1F80
C3FE00
ENDCHAR

STARTCHAR T
ENCODING 84
SWIDTH 667 0
DWIDTH 25 0
BBX 24 27 4 0
BITMAP
0FFFFF
1FFFFF
1F1F1E
1C3F0E
183F06
303F04
203E04
007E00
007E00
007C00
00FC00
00FC00
00FC00
00F800
01F800
01F800
01F000
03F000
03F000
03F000
03E000
07E000
07E000
07E000
0FC000
0FE000
FFFC00
ENDCHAR

STARTCHAR U
ENCODING 85
SWIDTH 771 0
DWIDTH 29 0
BBX 27 27 5 0
BITMAP
7FFC1FE0
0FE007C0
0FC00380
0FC00300
0F800300
1F800200
1F800600
1F800600
1F000400
3F000400
3F000C00
3E000800
7E000800
7E001800
7E001800
7C001000
FC001000
FC003000
FC003000
F8002000
F8006000
F8004000
FC00C000
7C018000
3F070000
1FFC0000
07F00000
ENDCHAR

STARTCHAR V
ENCODING 86
SWIDTH 719 0
DWIDTH 27 0
BBX 23 27 7 0
BITMAP
FFC0FE
3F003C
3F0038
3F0030
3F0060
3E0060
3E00C0
3E0180
3E0300
3E0200
3E0600
7E0C00
7E1800
7E3000
7E2000
7E6000
7EC000
7F8000
7F0000
7E0000
7C0000
7C0000
780000
700000
600000
400000
400000
ENDCHAR

STARTCHAR W
ENCODING 87
SWIDTH 990 0
DWIDTH 38 0
BBX 35 27 6 0
BITMAP
FFC7FE0FE0
7F01F80380
3E01F80300
3E01F00300
3E01F00600
3E01F00400
3E01F00C00
7E03F01800
7E07F03000
7E05F02000
7E0DF06000
7E19F0C000
7E31F08000
7E21F18000
7E61F30000
7EC3F60000
7E83F40000
7D03FC0000
7F03F80000
7E03F00000
7C03F00000
7C03E00000
7803C00000
7003800000
6003800000
6003000000
4002000000
ENDCHAR

STARTCHAR X
ENCODING 88
SWIDTH 719 0
DWIDTH 27 0
BBX 30 27 0 0
BITMAP
03FF83FC
00FE00F8
007E00E0
007E00C0
003E0180
003F0300
003F0600
001F0C00
001F9800
001FB000
000FE000
000FC000
000FC000
0007E000
0007E000
000FE000
001BF000
0033F000
0061F000
00C1F800
01C1F800
0380F800
0700FC00
0E00FC00
1E00FE00
3E00FE00
FF83FF80
ENDCHAR

STARTCHAR Y
ENCODING 89
SWIDTH 719 0
DWIDTH 27 0
BBX 24 27 6 0
BITMAP
FFF07F
3F801E
3F801C
1F8018
1F8018
0F8030
0F8060
0FC0C0
0FC180
07C180
07E300
07E600
03EC00
03F800
03F800
03F000
03F000
03E000
07E000
07E000
07E000
07C000
0FC000
0FC000
0FC000
1FC000
FFF800
ENDCHAR

STARTCHAR Z
ENCODING 90
SWIDTH 719 0
DWIDTH 27 0
BBX 29 27 1 0
BITMAP
00FFFFF8
01FC07F0
01E00FE0
01801FC0
03003F80
02003F80
00007F00
0000FE00
0001FC00
0003F800
0007F000
0007F000
000FE000
001FC000
003F8000
007F0000
00FF0000
01FE0000
01FC0000
03F80000
07F00100
0FE00300
1FE00600
3FC01E00
3F803E00
7F03FC00
FFFFFC00
ENDCHAR

STARTCHAR bracketleft
ENCODING 91
SWIDTH 500 0
DWIDTH 19 0
BBX 19 33 2 -6
BITMAP
007FE0
007E00
007C00
007800
00F800
00F800
00F800
01F000
01F000
01F000
01E000
03E000
03E000
03C000
07C000
07C000
07C000
078000
0F8000
0F8000
0F0000
1F0000
1F0000
1F0000
1E0000
3E0000
3E0000
3C0000
7C0000
7C0000
7C0000
7C0000
FFC000
ENDCHAR

STARTCHAR backslash
ENCODING 92
SWIDTH 281 0
DWIDTH 11 0
BBX 10 27 1 0
BITMAP
F000
F000
F000
F800
7800
7800
7800
7C00
3C00
3C00
3C00
3E00
1E00
1E00
1E00
1F00
1F00
0F00
0F00
0F80
0F80
0780
0780
07C0
07C0
03C0
03C0
ENDCHAR

STARTCHAR bracketright
ENCODING 93
SWIDTH 500 0
DWIDTH 19 0
BBX 18 33 0 -6
BITMAP
007FC0
000FC0
0007C0
0007C0
000780
000F80
000F80
000F00
001F00
001F00
001F00
001E00
003E00
003E00
003C00
007C00
007C00
007C00
00F800
00F800
00F800
00F000
01F000
01F000
01F000
03E000
03E000
03E000
03C000
07C000
07C000
0FC000
FF8000
ENDCHAR

STARTCHAR asciicircum
ENCODING 94
SWIDTH 573 0
DWIDTH 22 0
BBX 16 14 3 12
BITMAP
0180
0180
03C0
07C0
07E0
0EF0
0E70
1C78
1C38
381C
781C
700E
F00F
E007
ENDCHAR

STARTCHAR underscore
ENCODING 95
SWIDTH 500 0
DWIDTH 19 0
BBX 19 2 0 -5
BITMAP
FFFFE0
FFFFE0
ENDCHAR

STARTCHAR quoteleft
ENCODING 96
SWIDTH 271 0
DWIDTH 10 0
BBX 8 12 4 15
BITMAP
01
06
18
30
70
70
F8
FC
FC
FC
7C
38
ENDCHAR

STARTCHAR a
ENCODING 97
SWIDTH 500 0
DWIDTH 19 0
BBX 18 17 1 0
BITMAP
00F7C0
0397C0
070F80
0F0F80
1E0F80
1E0F00
3C1F00
7C1F00
7C3E00
783E00
F87E00
F85C00
F8BC40
F97C80
FF7D80
7E7F00
3C3C00
ENDCHAR

STARTCHAR b
ENCODING 98
SWIDTH 500 0
DWIDTH 19 0
BBX 17 27 1 0
BITMAP
007000
0FF000
07E000
03E000
03E000
03E000
03C000
07C000
07C000
078000
0F9E00
0FBF00
0F7F00
1F8F80
1F0F80
1F0F80
3E0F80
3E0F80
3E0F80
7C1F00
7C1F00
7C3E00
F83E00
F87C00
F87800
F1E000
1F8000
ENDCHAR

STARTCHAR c
ENCODING 99
SWIDTH 438 0
DWIDTH 17 0
BBX 15 17 2 0
BITMAP
0078
038C
071E
0E3E
1E3C
3C1C
3C00
7800
7800
F800
F800
F800
F808
7C10
7FE0
3FC0
0F00
ENDCHAR

STARTCHAR d
ENCODING 100
SWIDTH 500 0
DWIDTH 19 0
BBX 21 27 1 0
BITMAP
000038
0007F8
0003F0
0001F0
0001F0
0001E0
0003E0
0003E0
0003C0
0007C0
00F7C0
038FC0
070F80
0F0F80
1E0F80
3E0F00
3C1F00
7C1F00
7C1E00
783E00
F87E00
F85E00
F8BC40
F97C80
FF7D80
7E7F00
3C3C00
ENDCHAR

STARTCHAR e
ENCODING 101
SWIDTH 438 0
DWIDTH 17 0
BBX 15 17 1 0
BITMAP
007C
039E
071E
0E1E
1E1E
3C3C
7C78
7870
F9C0
FE00
F000
F000
F808
F818
FC70
7FC0
3F00
ENDCHAR

STARTCHAR f
ENCODING 102
SWIDTH 333 0
DWIDTH 13 0
BBX 26 35 -6 -8
BITMAP
00000F80
000039C0
0000F3C0
0001E3C0
0001E180
0003C000
0003C000
0007C000
000F8000
001F8000
003FE000
007FE000
001F0000
001F0000
001F0000
003E0000
003E0000
003E0000
003E0000
007C0000
007C0000
007C0000
007C0000
00F80000
00F80000
00F80000
00F00000
01F00000
01E00000
01E00000
01C00000
73C00000
F3800000
E7000000
7C000000
ENDCHAR

STARTCHAR g
ENCODING 103
SWIDTH 500 0
DWIDTH 19 0
BBX 21 25 -1 -8
BITMAP
007E00
01E3F8
03C3F0
07C3C0
0F87C0
0F87C0
0F87C0
0F0F80
070F80
039E00
01F800
060000
0E0000
1F0000
1FF000
1FFC00
07FE00
0FFF00
707F00
E01F00
E00F00
E00E00
F00E00
383800
0FE000
ENDCHAR

STARTCHAR h
ENCODING 104
SWIDTH 500 0
DWIDTH 19 0
BBX 18 27 0 0
BITMAP
003800
07F800
03F000
01F000
01F000
01E000
03E000
03E000
03C000
07C100
07C7C0
078FC0
0F9FC0
0FA7C0
0FC7C0
1F4780
1F8F80
1F0F80
1F0F00
3E1F00
3E1F00
3C1E00
7C3E40
7C3E80
7C3F80
F83F00
F81C00
ENDCHAR

STARTCHAR i
ENCODING 105
SWIDTH 271 0
DWIDTH 10 0
BBX 11 27 1 0
BITMAP
0180
03C0
07E0
07E0
03C0
03C0
0000
0000
0000
0000
0780
7F80
1F00
1F00
1F00
1E00
3E00
3E00
3C00
7C00
7C00
7800
F880
F900
FA00
FC00
F800
ENDCHAR

STARTCHAR j
ENCODING 106
SWIDTH 271 0
DWIDTH 10 0
BBX 18 35 -6 -8
BITMAP
000300
000780
000FC0
000FC0
000780
000780
000000
000000
000000
000000
000780
00FF00
003F00
001F00
001E00
003E00
003E00
003E00
007C00
007C00
007C00
007800
00F800
00F800
00F800
00F000
01F000
01F000
01E000
01E000
03C000
73C000
F78000
E70000
7C0000
ENDCHAR

STARTCHAR k
ENCODING 107
SWIDTH 552 0
DWIDTH 21 0
BBX 20 27 0 0
BITMAP
003800
03F800
01F800
01F000
01F000
01F000
01E000
03E000
03E000
03C000
07C7F0
07C1C0
078180
0F8300
0F8400
0F9800
1F3C00
1F7C00
1F7C00
1F3C00
3E3E00
3E3E00
3C3E20
7C1E20
7C1FC0
7C1F80
F80E00
ENDCHAR

STARTCHAR l
ENCODING 108
SWIDTH 271 0
DWIDTH 10 0
BBX 12 27 1 0
BITMAP
0070
0FE0
07E0
03E0
03E0
07C0
07C0
07C0
0780
0F80
0F80
0F00
1F00
1F00
1E00
3E00
3E00
3E00
7C00
7C00
7C00
7800
F900
F900
FE00
FC00
7000
ENDCHAR

STARTCHAR m
ENCODING 109
SWIDTH 771 0
DWIDTH 29 0
BBX 29 17 0 0
BITMAP
01C1C070
3FC7E1F8
0FCFE3F8
0F93E6F8
0FA3E8F8
0FC3D0F0
0F47E1F0
1F87E1F0
1F07C1F0
1F0F83E0
3E0F83E0
3E0F83E0
3C1F07C8
7C1F07C8
7C1F07D0
7C1E07E0
F83E03C0
ENDCHAR

STARTCHAR n
ENCODING 110
SWIDTH 500 0
DWIDTH 19 0
BBX 18 17 0 0
BITMAP
01C380
3FCFC0
0F9FC0
0FB7C0
0FA7C0
0F4780
1F8F80
1F0F80
1F0F00
3E1F00
3E1F00
3E1F00
7C3E40
7C3E40
7C3E80
F83F00
F81E00
ENDCHAR

STARTCHAR o
ENCODING 111
SWIDTH 500 0
DWIDTH 19 0
BBX 17 17 1 0
BITMAP
00FC00
038F00
070780
0F0780
1E0780
3E0F80
7C0F80
7C0F80
F80F80
F81F00
F81F00
F83E00
F03C00
F07800
707000
78E000
1F0000
ENDCHAR

STARTCHAR p
ENCODING 112
SWIDTH 500 0
DWIDTH 19 0
BBX 22 24 -4 -7
BITMAP
001E70
01FDF8
00FFFC
007C7C
00F87C
00F87C
00F87C
01F078
01F078
01F0F8
03E0F0
03E0F0
03E1E0
03C1C0
07C380
07C700
07BC00
0F8000
0F8000
0F0000
1F0000
1F0000
3F0000
FFC000
ENDCHAR

STARTCHAR q
ENCODING 113
SWIDTH 500 0
DWIDTH 19 0
BBX 18 25 1 -8
BITMAP
00F7C0
039780
070F80
0F0F80
1E0F00
3E1F00
3C1F00
7C1F00
7C3E00
783E00
F87E00
F87C00
F8BC00
F97C00
FF7800
7EF800
3CF800
00F000
01F000
01F000
01E000
03E000
03E000
07F000
1FFC00
ENDCHAR

STARTCHAR r
ENCODING 114
SWIDTH 385 0
DWIDTH 15 0
BBX 14 17 1 0
BITMAP
0E38
7E7C
3E7C
3CF8
3CB8
3DB0
3D00
3D00
3E00
7A00
7C00
7800
7C00
F800
F800
F800
F000
ENDCHAR

STARTCHAR s
ENCODING 115
SWIDTH 385 0
DWIDTH 15 0
BBX 14 17 0 0
BITMAP
03E4
0E3C
1E1C
1E08
1F08
1F88
0FC0
0FC0
07E0
03F0
03F0
41F0
40F0
60F0
60E0
F1C0
8F00
ENDCHAR

STARTCHAR t
ENCODING 116
SWIDTH 333 0
DWIDTH 13 0
BBX 11 22 2 0
BITMAP
0040
00C0
0380
0780
1F80
7FE0
7FE0
1F00
1F00
1E00
3E00
3E00
3E00
3C00
7C00
7C00
7800
7880
F900
FA00
FC00
7800
ENDCHAR

STARTCHAR u
ENCODING 117
SWIDTH 500 0
DWIDTH 19 0
BBX 18 17 1 0
BITMAP
0387C0
7F8780
1F0F80
1F0F80
1F0F80
1E1F00
3E1F00
3E1F00
3C3E00
7C3E00
7C5E00
78BC00
F8FC80
FB7D00
FE7D00
FC7E00
787C00
ENDCHAR

STARTCHAR v
ENCODING 118
SWIDTH 438 0
DWIDTH 17 0
BBX 14 17 2 0
BITMAP
1C38
FC7C
3C7C
3E3C
3E3C
3E18
3E18
3E10
3E30
1E20
1E40
1E80
1F00
1E00
1C00
1800
2000
ENDCHAR

STARTCHAR w
ENCODING 119
SWIDTH 667 0
DWIDTH 25 0
BBX 22 17 3 0
BITMAP
180438
FC0C7C
7C1C7C
7C1C3C
7C3C1C
3C7C18
3C7C18
3CBE10
3D3E30
3D3E20
3E3E40
3C3E80
383F00
383E00
301C00
201800
201000
ENDCHAR

STARTCHAR x
ENCODING 120
SWIDTH 552 0
DWIDTH 21 0
BBX 19 17 1 0
BITMAP
03C1E0
1FC3E0
03E7E0
03EEC0
01E800
01F000
01F000
01F000
01F000
00F000
00F000
017800
02F840
F67880
FC7F00
F83E00
F01C00
ENDCHAR

STARTCHAR y
ENCODING 121
SWIDTH 500 0
DWIDTH 19 0
BBX 20 25 -2 -8
BITMAP
00C0E0
0FE1F0
03E1F0
01E0F0
01F070
01F030
01F020
01F060
01F040
01F080
00F180
00F100
00F200
00F400
00F400
00F800
00F000
00E000
00E000
00C000
608000
F10000
FE0000
FC0000
700000
ENDCHAR

STARTCHAR z
ENCODING 122
SWIDTH 438 0
DWIDTH 17 0
BBX 16 20 1 -3
BITMAP
1FFF
1FFC
1FF8
1FD8
3030
2060
0040
0080
0100
0200
0400
0C00
1800
3C00
3E1C
7E3C
FF3C
0F3C
07B8
01E0
ENDCHAR

STARTCHAR braceleft
ENCODING 123
SWIDTH 396 0
DWIDTH 15 0
BBX 11 34 3 -7
BITMAP
0020
03C0
0700
0E00
1E00
1E00
1E00
1E00
1F00
0F00
0F00
0F00
0F00
0E00
0E00
1C00
F000
E000
1800
1E00
0E00
0F00
0F00
0F00
0F00
1F00
1F00
1E00
1E00
1E00
0E00
0700
0380
00E0
ENDCHAR

STARTCHAR bar
ENCODING 124
SWIDTH 219 0
DWIDTH 8 0
BBX 4 32 3 -5
BITMAP
F0
F0
F0
F0
F0
F0
F0
F0
F0
F0
F0
F0
F0
F0
F0
F0
F0
F0
F0
F0
F0
F0
F0
F0
F0
F0
F0
F0
F0
F0
F0
F0
ENDCHAR

STARTCHAR braceright
ENCODING 125
SWIDTH 396 0
DWIDTH 15 0
BBX 11 34 2 -7
BITMAP
8000
7800
1C00
0E00
0F00
0F00
0F00
0F00
1F00
1E00
1E00
1E00
1E00
0E00
0E00
0700
01C0
00E0
0300
0F00
0E00
1E00
1E00
1E00
1E00
1F00
0F00
0F00
0F00
0F00
0E00
1C00
3800
E000
ENDCHAR

STARTCHAR asciitilde
ENCODING 126
SWIDTH 573 0
DWIDTH 22 0
BBX 21 6 1 7
BITMAP
1F8018
7FE010
7FFC70
E1FFF0
C07FE0
C00FC0
ENDCHAR

STARTCHAR space
ENCODING 160
SWIDTH 250 0
DWIDTH 11 0
BBX 0 0 0 0
BITMAP
ENDCHAR

STARTCHAR quoteleft
ENCODING 161
SWIDTH 271 0
DWIDTH 10 0
BBX 8 12 4 15
BITMAP
01
06
18
30
70
70
F8
FC
FC
FC
7C
38
ENDCHAR

STARTCHAR quoteright
ENCODING 162
SWIDTH 271 0
DWIDTH 10 0
BBX 8 12 4 15
BITMAP
0C
3E
3F
3F
3F
1F
0E
0E
0C
18
30
C0
ENDCHAR

STARTCHAR sterling
ENCODING 163
SWIDTH 500 0
DWIDTH 19 0
BBX 18 27 1 0
BITMAP
000F80
003BC0
0073C0
00E3C0
01E180
01E000
03E000
03E000
03C000
07C000
07C000
07C000
3FFC00
7FFC00
7FF800
078000
070000
0F0000
0F0000
0E0000
0E0000
7F0000
FFC000
EFF300
9FFE00
9BFC00
71F800
ENDCHAR

STARTCHAR brokenbar
ENCODING 166
SWIDTH 220 0
DWIDTH 8 0
BBX 2 34 3 -8
BITMAP
C0
C0
C0
C0
C0
C0
C0
C0
C0
C0
C0
C0
00
00
00
00
00
00
00
00
00
00
00
C0
C0
C0
C0
C0
C0
C0
C0
C0
C0
C0
ENDCHAR

STARTCHAR section
ENCODING 167
SWIDTH 604 0
DWIDTH 23 0
BBX 21 34 3 -7
BITMAP
003F80
00F1E0
01C070
01C078
03C078
03C078
03C078
03E030
03F000
01F800
03FE00
067F00
0C3F80
1C1F80
1C0FC0
1C07C0
3C03C0
3E03C0
3F01C0
1F01C0
1F8180
0FC380
07E700
03F600
01F800
00FC00
007C00
F03C00
F03C00
F03C00
F03800
703800
387000
0FC000
ENDCHAR

STARTCHAR dieresis
ENCODING 168
SWIDTH 333 0
DWIDTH 13 0
BBX 12 5 4 20
BITMAP
70E0
F9F0
F9F0
F9F0
70E0
ENDCHAR

STARTCHAR copyright
ENCODING 169
SWIDTH 750 0
DWIDTH 29 0
BBX 28 27 1 0
BITMAP
003FC000
00FFF000
03C01C00
07000600
0C000300
181F8980
307878C0
20F01860
61E01860
61E00820
C3C00030
C3C00030
C3C00030
C3C00030
C3C00030
C3C00030
43E00020
61E01060
60F01060
307860C0
181F80C0
1C000180
0E000300
07000E00
01C03C00
00FFF000
001F8000
ENDCHAR

STARTCHAR guillemotleft
ENCODING 171
SWIDTH 500 0
DWIDTH 19 0
BBX 17 17 1 1
BITMAP
018180
030300
070700
0E0E00
1E1E00
3C3C00
3C7800
78F800
F8F000
F8F800
787800
387800
383800
181800
181800
0C0800
0C0C00
ENDCHAR

STARTCHAR logicalnot
ENCODING 172
SWIDTH 667 0
DWIDTH 25 0
BBX 21 13 3 4
BITMAP
FFFFF8
FFFFF8
FFFFF8
FFFFF8
000078
000078
000078
000078
000078
000078
000078
000078
000078
ENDCHAR

STARTCHAR hyphen
ENCODING 173
SWIDTH 333 0
DWIDTH 13 0
BBX 11 4 1 7
BITMAP
FFE0
FFE0
FFE0
FFE0
ENDCHAR

STARTCHAR endash
ENCODING 175
SWIDTH 500 0
DWIDTH 19 0
BBX 19 2 0 8
BITMAP
FFFFE0
FFFFE0
ENDCHAR

STARTCHAR degree
ENCODING 176
SWIDTH 396 0
DWIDTH 15 0
BBX 12 12 5 13
BITMAP
1F80
3FC0
78E0
E070
E030
C030
C030
E070
E070
79E0
3FC0
1F80
ENDCHAR

STARTCHAR plusminus
ENCODING 177
SWIDTH 667 0
DWIDTH 25 0
BBX 20 27 3 0
BITMAP
00F000
00F000
00F000
00F000
00F000
00F000
00F000
00F000
FFFFF0
FFFFF0
FFFFF0
FFFFF0
00F000
00F000
00F000
00F000
00F000
00F000
00F000
00F000
000000
000000
000000
FFFFF0
FFFFF0
FFFFF0
FFFFF0
ENDCHAR

STARTCHAR twosuperior
ENCODING 178
SWIDTH 292 0
DWIDTH 11 0
BBX 11 13 1 14
BITMAP
0780
1FC0
31E0
00E0
00E0
00C0
01C0
0380
0700
0C40
18C0
3F80
FF80
ENDCHAR

STARTCHAR threesuperior
ENCODING 179
SWIDTH 292 0
DWIDTH 11 0
BBX 10 14 2 13
BITMAP
0780
0FC0
11C0
01C0
0380
0600
3F00
0780
0380
0380
0380
0300
E600
FC00
ENDCHAR

STARTCHAR acute
ENCODING 180
SWIDTH 333 0
DWIDTH 13 0
BBX 8 7 8 19
BITMAP
3F
3E
7C
78
70
E0
C0
ENDCHAR

STARTCHAR dieresisacute
ENCODING 181
SWIDTH 333 0
DWIDTH 13 0
BBX 12 7 4 20
BITMAP
0780
0700
0700
6660
F6F0
F4F0
6460
ENDCHAR

STARTCHAR afii9936
ENCODING 182
SWIDTH 708 0
DWIDTH 27 0
BBX 24 27 0 0
BITMAP
003F02
003E06
003C0E
00781E
00701E
00603E
00C07E
0000FE
0001BE
0001BE
00037E
00067E
000C7C
00187C
00187C
00307C
00607C
00FFFC
00807C
01807C
03007C
06007C
0C00FC
0C00FC
1800FC
3C01FC
FE07FF
ENDCHAR

STARTCHAR periodcentered
ENCODING 183
SWIDTH 271 0
DWIDTH 10 0
BBX 6 6 3 10
BITMAP
78
FC
FC
FC
FC
78
ENDCHAR

STARTCHAR afii9937
ENCODING 184
SWIDTH 714 0
DWIDTH 27 0
BBX 29 27 0 0
BITMAP
7E7FFFF8
7C1F81F0
781F8070
F01F8030
E01F8030
C01F0010
003F0000
003F0000
003E0300
003E0200
007E0600
007E1E00
007FFC00
00FC3C00
00FC0C00
00FC0800
00F80800
01F80000
01F80000
01F00000
01F00040
03F00180
03F00380
03E00F00
07F01F00
07F8FF00
1FFFFE00
ENDCHAR

STARTCHAR afii9938
ENCODING 185
SWIDTH 871 0
DWIDTH 33 0
BBX 36 27 0 0
BITMAP
3E7FFCFFF0
7C1FC03FC0
781F801F80
701F801F80
E01F801F00
E01F803F00
C01F003F00
003F003E00
003F003E00
003E007E00
007E007E00
007E007C00
007E00FC00
007FFFFC00
00FC00F800
00FC00F800
00F801F800
00F801F800
01F801F000
01F803F000
01F003F000
03F003F000
03F003E000
03F007E000
07E007E000
07F00FE000
3FFC7FFC00
ENDCHAR

STARTCHAR afii9939
ENCODING 186
SWIDTH 457 0
DWIDTH 17 0
BBX 21 27 0 0
BITMAP
3E7FF8
7C1FE0
780FC0
700F80
E01F80
C01F80
C01F80
001F00
003F00
003F00
003E00
007E00
007E00
007E00
007C00
00FC00
00FC00
00F800
00F800
01F800
01F800
01F000
03F000
03F000
03F000
07F000
1FFE00
ENDCHAR

STARTCHAR guillemotright
ENCODING 187
SWIDTH 500 0
DWIDTH 19 0
BBX 17 17 2 1
BITMAP
081800
0C0C00
0C0C00
0E0E00
0E0E00
0F0F00
0F0F00
078780
078F80
0F0F00
1E1E00
1C1C00
383800
303000
606000
404000
C08000
ENDCHAR

STARTCHAR afii9940
ENCODING 188
SWIDTH 781 0
DWIDTH 30 0
BBX 29 27 2 0
BITMAP
3F01FF00
3E078F80
3C1E03E0
787C03E0
70F801F0
61F001F0
C3F001F8
03E001F8
07E001F8
0FC001F8
0FC001F8
1FC003F8
1F8003F8
1F8003F0
3F8003F0
3F8007F0
3F0007E0
3F0007E0
3F000FC0
3F000F80
3F001F80
1F001F00
1F003E00
0F807800
0780F000
03E3C000
00FF0000
ENDCHAR

STARTCHAR onehalf
ENCODING 189
SWIDTH 875 0
DWIDTH 33 0
BBX 32 28 0 -1
BITMAP
0020000E
0FE0001C
01E00038
01C00070
01C000E0
03C001C0
03800380
03800700
07800E00
07001C00
07003800
0F007000
0E00E000
7F81C03C
000380FE
0007018F
000E0087
001C0007
00380007
0070000E
00E0000C
01C00018
03800030
07000062
0E00008E
1C0001FC
380007FC
F0000000
ENDCHAR

STARTCHAR afii9941
ENCODING 190
SWIDTH 803 0
DWIDTH 31 0
BBX 34 27 0 0
BITMAP
3E7FF83FC0
7C1FE00F00
780FC00600
700FC00E00
E00FC00C00
C007C01800
8007E03000
0007E06000
0003E06000
0003F0C000
0003F18000
0001F30000
0001FF0000
0001FE0000
0000FC0000
0001F80000
0001F80000
0001F80000
0001F00000
0003F00000
0003F00000
0003F00000
0003E00000
0007E00000
0007E00000
000FE00000
007FFC0000
ENDCHAR

STARTCHAR afii9942
ENCODING 191
SWIDTH 795 0
DWIDTH 30 0
BBX 29 27 1 0
BITMAP
3E03FE00
7C1F8F80
787E03C0
70FC01E0
E1F801F0
C3F801F0
83F001F8
07F001F8
07E001F8
0FE001F8
0FE003F8
0FC003F8
0FC003F0
0FC003F0
0FC007E0
07C007E0
07C00FC0
03C00F80
03E01F00
10F07C20
10387020
10104040
3FF0FFC0
3FF0FFC0
3FF0FF80
7FF1FF80
7FE1FF80
ENDCHAR

STARTCHAR afii9977
ENCODING 192
SWIDTH 271 0
DWIDTH 10 0
BBX 13 28 0 -1
BITMAP
03C0
0380
0380
3330
7B78
7B78
3230
0000
0000
0000
0380
3F80
1F80
0F00
1F00
1F00
1E00
1E00
3E00
3E00
3C00
7C00
7C00
7880
F900
FE00
FC00
7800
ENDCHAR

STARTCHAR afii9793
ENCODING 193
SWIDTH 719 0
DWIDTH 27 0
BBX 24 27 0 0
BITMAP
000003
000002
000006
00000E
00001E
00003E
00003E
00007E
0000FE
0001BE
00037E
00067E
00047E
000C7E
00187E
00307C
00607C
007FFC
00C07C
01807C
03007C
06007C
04007C
0C007C
1C00FC
3C00FE
FF07FF
ENDCHAR

STARTCHAR afii9794
ENCODING 194
SWIDTH 667 0
DWIDTH 25 0
BBX 26 27 0 0
BITMAP
01FFFE00
003F3F00
003E1F80
003E0FC0
007E0FC0
007E0FC0
007C0FC0
00FC0F80
00FC1F80
00FC1F00
00F83E00
01F8F800
01FFC000
01FFF000
03F07C00
03F07E00
03F03E00
03F03F00
07E03F00
07E03F00
07E03F00
07C07F00
0FC07E00
0FC0FE00
0FC1FC00
1F87F000
FFFFC000
ENDCHAR

STARTCHAR afii9796
ENCODING 195
SWIDTH 667 0
DWIDTH 25 0
BBX 28 27 1 0
BITMAP
03FFFFF0
007E03E0
007E00E0
007E00E0
007E0040
007C0040
00FC0000
00FC0000
00F80000
01F80000
01F80000
01F80000
01F00000
03F00000
03F00000
03E00000
03E00000
07E00000
07E00000
07C00000
0FC00000
0FC00000
0F800000
0F800000
1F800000
3FC00000
FFF00000
ENDCHAR

STARTCHAR afii9797
ENCODING 196
SWIDTH 667 0
DWIDTH 25 0
BBX 22 27 1 0
BITMAP
000004
00000C
00001C
00003C
00003C
00007C
0000F8
0001F8
0003F8
000378
0006F8
000CF8
0018F8
0030F8
0031F8
0061F8
00C1F8
0181F8
0301F8
0301F8
0601F0
0C01F0
1801F0
3801F0
2001F0
7FFFF0
FFFFF0
ENDCHAR

STARTCHAR afii9798
ENCODING 197
SWIDTH 667 0
DWIDTH 25 0
BBX 26 27 1 0
BITMAP
03FFFFC0
00FE0FC0
007C0380
00FC0180
00FC0180
00FC0080
00F80000
01F80000
01F80800
01F01000
01F03000
03F0F000
03FFF000
03E0E000
07E06000
07E06000
07E04000
07C00000
0FC00000
0FC00000
0F800200
0F800C00
1F801C00
1F803C00
1F80F800
3FC7F800
FFFFF000
ENDCHAR

STARTCHAR afii9801
ENCODING 198
SWIDTH 719 0
DWIDTH 27 0
BBX 29 27 1 0
BITMAP
00FFFFF8
01FC07F0
01E00FE0
01801FC0
03003F80
02003F80
00007F00
0000FE00
0001FC00
0003F800
0007F000
0007F000
000FE000
001FC000
003F8000
007F0000
00FF0000
01FE0000
01FC0000
03F80000
07F00100
0FE00300
1FE00600
3FC01E00
3F803E00
7F03FC00
FFFFFC00
ENDCHAR

STARTCHAR afii9802
ENCODING 199
SWIDTH 823 0
DWIDTH 31 0
BBX 33 27 1 0
BITMAP
03FFE7FF80
00FE00FE00
007E00FC00
007C00FC00
00FC00F800
00FC00F800
00F801F800
00F801F800
01F801F000
01F803F000
01F003F000
03F003F000
03F003E000
03FFFFE000
03E007E000
07E007C000
07E00FC000
07C00FC000
0FC00FC000
0FC00F8000
0FC01F8000
0F801F8000
1F801F0000
1F803F0000
1F803F0000
3F807F8000
FFE3FFE000
ENDCHAR

STARTCHAR afii9803
ENCODING 200
SWIDTH 770 0
DWIDTH 29 0
BBX 27 27 3 0
BITMAP
0007FC00
001E3E00
00780F80
01F00F80
03E007C0
07E007C0
0FC007E0
0F8007E0
1F8007E0
3F8007E0
3F3027E0
7F30CFE0
7F3FCFE0
7E3FCFC0
FE7F8FC0
FE7F9FC0
FC419F80
FC811F80
FC003F00
FC003F00
FC007E00
7C007C00
7C00F800
3E01F000
1E03C000
0F8F0000
07FC0000
ENDCHAR

STARTCHAR afii9804
ENCODING 201
SWIDTH 385 0
DWIDTH 15 0
BBX 17 27 1 0
BITMAP
07FF80
00FE00
00FC00
00FC00
00F800
01F800
01F800
01F800
01F000
03F000
03F000
03E000
07E000
07E000
07E000
07C000
0FC000
0FC000
0F8000
1F8000
1F8000
1F8000
1F0000
3F0000
3F0000
7F8000
FFE000
ENDCHAR

STARTCHAR afii9805
ENCODING 202
SWIDTH 719 0
DWIDTH 27 0
BBX 31 27 0 0
BITMAP
01FFE7FE
007F83F0
003F03C0
003E0380
007E0700
007E0C00
007C1800
007C3000
00FC6000
00FCC000
00F9C000
01FFC000
01FBE000
01F7E000
01F3E000
03F3F000
03F3F000
03E1F000
07E1F800
07E1F800
07E0F800
07C0FC00
0FC0FC00
0FC07C00
0FC07E00
1FC0FF00
FFFBFF80
ENDCHAR

STARTCHAR afii9806
ENCODING 203
SWIDTH 719 0
DWIDTH 27 0
BBX 23 27 1 0
BITMAP
000002
000006
00000E
00001E
00003E
00003C
00007C
0000FC
0001FC
00037C
00027C
00067C
000CFC
0018FC
0030FC
0020FC
0060FC
00C0FC
0180FC
0300F8
0600F8
0400F8
0C00F8
1800F8
3801F8
7801FC
FE0FFE
ENDCHAR

STARTCHAR afii9807
ENCODING 204
SWIDTH 990 0
DWIDTH 38 0
BBX 41 27 0 0
BITMAP
01FF0000FF80
007F0001FC00
003F0001F800
003F0003F800
006F8006F800
006F800DF000
005F800FF000
004F801BF000
00CF8033F000
00CF8023E000
008F8067E000
018FC0C7E000
018FC187C000
010FC187C000
0107C30FC000
0307C60FC000
0307C40F8000
0207CC1F8000
0607D81F8000
0607F01F8000
0407F01F0000
0403E03F0000
0C03C03F0000
0C03803E0000
1C03807E0000
3E03007F0000
FF8203FFC000
ENDCHAR

STARTCHAR afii9808
ENCODING 205
SWIDTH 771 0
DWIDTH 29 0
BBX 33 27 0 0
BITMAP
01FE007F80
007F001E00
003F000C00
007F000800
006F801800
005F801800
004FC01000
00CFC01000
0087E03000
0087E03000
0183F02000
0183F02000
0101F86000
0101F84000
0300FC4000
0200FCC000
02007EC000
06007E8000
06003F8000
04003F8000
04001F0000
0C001F0000
0C000F0000
08000F0000
1C00060000
3C00060000
FF00020000
ENDCHAR

STARTCHAR afii9809
ENCODING 206
SWIDTH 667 0
DWIDTH 25 0
BBX 27 27 1 0
BITMAP
01FFFFE0
01FFFFE0
01FFFFE0
01FFFFC0
03FFFFC0
020000C0
02000040
04000080
00000000
00400800
00601800
007FF800
007FF000
00FFF000
00FFF000
00806000
01002000
01002000
20000200
20000200
20000200
60000400
7FFFFC00
7FFFFC00
FFFFFC00
FFFFF800
FFFFF800
ENDCHAR

STARTCHAR afii9810
ENCODING 207
SWIDTH 771 0
DWIDTH 29 0
BBX 27 27 3 0
BITMAP
0007FC00
001E3E00
00780F80
01F00F80
03E007C0
07C007C0
0FC007E0
0F8007E0
1F8007E0
3F0007E0
3F0007E0
7F000FE0
7E000FE0
7E000FC0
FE000FC0
FE001FC0
FC001F80
FC001F80
FC003F00
FC003E00
FC007E00
7C007C00
7C00F800
3E01E000
1E03C000
0F8F0000
03FC0000
ENDCHAR

STARTCHAR afii9811
ENCODING 208
SWIDTH 823 0
DWIDTH 31 0
BBX 34 27 1 0
BITMAP
03FFFFFFC0
00FFFFFE00
007E007E00
007E00FC00
00FC00FC00
00FC00F800
00FC00F800
00F801F800
01F801F800
01F801F000
01F803F000
03F003F000
03F003E000
03F003E000
03E007E000
07E007E000
07E007C000
07C00FC000
0FC00FC000
0FC00F8000
0FC01F8000
0F801F8000
1F801F8000
1F801F0000
1F803F0000
3F807F8000
FFE3FFE000
ENDCHAR

STARTCHAR afii9813
ENCODING 209
SWIDTH 667 0
DWIDTH 25 0
BBX 25 27 1 0
BITMAP
07FFF800
00FFFE00
00FC3F00
00FC1F00
00FC1F80
00FC1F80
00F81F80
01F81F80
01F81F80
01F03F00
03F03F00
03F07E00
03E0FC00
03FFF000
07FF8000
07E00000
07E00000
07C00000
0FC00000
0FC00000
0F800000
1F800000
1F800000
1F800000
3F000000
3F800000
FFF00000
ENDCHAR

STARTCHAR afii9814
ENCODING 211
SWIDTH 719 0
DWIDTH 27 0
BBX 28 27 1 0
BITMAP
01FFFFF0
00F800F0
00FC0070
007C0020
007E0020
003E0020
003F0000
003F0000
001F8000
001F8000
000FC000
000F8000
00070000
00060000
000C0000
00180000
00300000
00600000
00C00100
01800200
07000200
0C000E00
1FFFFC00
3FFFFC00
7FFFFC00
FFFFF800
FFFFF800
ENDCHAR

STARTCHAR afii9816
ENCODING 212
SWIDTH 667 0
DWIDTH 25 0
BBX 24 27 4 0
BITMAP
0FFFFF
1FFFFF
1F1F1E
1C3F0E
183F06
303F04
203E04
007E00
007E00
007C00
00FC00
00FC00
00FC00
00F800
01F800
01F800
01F000
03F000
03F000
03F000
03E000
07E000
07E000
07E000
0FC000
0FE000
FFFC00
ENDCHAR

STARTCHAR afii9817
ENCODING 213
SWIDTH 719 0
DWIDTH 27 0
BBX 24 27 6 0
BITMAP
FFF07F
3F801E
3F801C
1F8018
1F8018
0F8030
0F8060
0FC0C0
0FC180
07C180
07E300
07E600
03EC00
03F800
03F800
03F000
03F000
03E000
07E000
07E000
07E000
07C000
0FC000
0FC000
0FC000
1FC000
FFF800
ENDCHAR

STARTCHAR afii9818
ENCODING 214
SWIDTH 771 0
DWIDTH 29 0
BBX 27 27 2 0
BITMAP
001FFF00
0007F000
0003F000
0007E000
0007E000
00FFFC00
07E7CF00
0F8FC780
1F0FC3C0
3E0F83E0
7E1F83E0
7C1F83E0
FC1F83E0
FC3F07E0
FC3F07E0
F83F07E0
F83E0FC0
F87E0FC0
787E1F80
3C7E3E00
1EFCF800
07FFC000
00FC0000
00F80000
01F80000
03FC0000
1FFF8000
ENDCHAR

STARTCHAR afii9819
ENCODING 215
SWIDTH 719 0
DWIDTH 27 0
BBX 30 27 0 0
BITMAP
03FF83FC
00FE00F8
007E00E0
007E00C0
003E0180
003F0300
003F0600
001F0C00
001F9800
001FB000
000FE000
000FC000
000FC000
0007E000
0007E000
000FE000
001BF000
0033F000
0061F000
00C1F800
01C1F800
0380F800
0700FC00
0E00FC00
1E00FE00
3E00FE00
FF83FF80
ENDCHAR

STARTCHAR afii9820
ENCODING 216
SWIDTH 823 0
DWIDTH 31 0
BBX 29 28 5 0
BITMAP
40000018
78FFF0F0
3C1FC3F0
3E1F87E0
7E1F87E0
7E1F0FC0
7E3F0FC0
FE3F0FC0
FC3F1FC0
FC3E1F80
FC7E1F80
FC7E3F80
F87C3F00
78FC3E00
3CFC7C00
1CF8F000
07FFC000
01F80000
01F80000
01F00000
03F00000
03F00000
03F00000
03E00000
07E00000
07E00000
0FE00000
7FFC0000
ENDCHAR

STARTCHAR afii9821
ENCODING 217
SWIDTH 771 0
DWIDTH 29 0
BBX 28 27 1 0
BITMAP
0007FC00
003F1F00
00FC0780
01F803C0
03F003E0
07F003E0
07E003F0
0FE003F0
0FC003F0
1FC003F0
1FC007F0
1F8007F0
1F8007E0
1F8007E0
1F800FC0
0F800FC0
0F801F80
07801F00
07C03E00
21E0F840
2070E040
20208080
7FE1FF80
7FE1FF80
7FE1FF00
FFE3FF00
FFC3FF00
ENDCHAR

STARTCHAR afii9943
ENCODING 218
SWIDTH 385 0
DWIDTH 15 0
BBX 19 34 1 0
BITMAP
0381C0
07C3E0
07C3E0
07C3E0
0381C0
000000
000000
07FF80
00FE00
00FC00
00FC00
00F800
00F800
01F800
01F000
01F000
03F000
03F000
03E000
03E000
07E000
07E000
07C000
0FC000
0FC000
0F8000
0F8000
1F8000
1F8000
1F0000
3F0000
3F0000
7F8000
FFE000
ENDCHAR

STARTCHAR afii9944
ENCODING 219
SWIDTH 719 0
DWIDTH 27 0
BBX 25 34 5 0
BITMAP
00E07000
01F0F800
01F0F800
01F0F800
00E07000
00000000
00000000
FFF87F80
3FC01E00
1FC00E00
0FC01C00
0FC01800
0FC03000
07C06000
07E06000
07E0C000
03E18000
03E30000
03F30000
03F60000
01FC0000
01F80000
01F80000
01F00000
03F00000
03F00000
03F00000
03E00000
07E00000
07E00000
07C00000
0FC00000
1FE00000
7FF80000
ENDCHAR

STARTCHAR afii9968
ENCODING 220
SWIDTH 500 0
DWIDTH 19 0
BBX 17 26 1 0
BITMAP
001F80
001E00
003C00
003800
003000
006000
000000
000000
000000
03EF80
0F2F80
1E1780
3E1F00
3C1F00
7C1F00
7C3E00
783E00
F83E00
F83C00
F87C00
F07800
707880
70F480
70E780
31C700
0F0300
ENDCHAR

STARTCHAR afii9969
ENCODING 221
SWIDTH 385 0
DWIDTH 15 0
BBX 15 26 1 0
BITMAP
007E
00F8
00F0
00E0
01C0
0180
0000
0000
0000
03F0
0F38
1E3C
1E3C
1C18
1C00
0C40
07C0
3C00
7800
F800
F830
F070
F0F8
F0F0
79E0
1FC0
ENDCHAR

STARTCHAR afii9970
ENCODING 222
SWIDTH 500 0
DWIDTH 19 0
BBX 18 34 1 -8
BITMAP
001F80
001E00
001C00
003800
003000
006000
000000
000000
020100
1F0780
3F8FC0
2F9FC0
4FA7C0
0F47C0
1F8F80
1F8F80
1F0F80
3F0F00
3E1F00
3E1F00
7C1E00
7C3E00
7C3E00
783E00
F87C00
F87C00
007C00
007800
00F800
00F800
00F800
00F000
01F000
01F000
ENDCHAR

STARTCHAR afii9971
ENCODING 223
SWIDTH 271 0
DWIDTH 10 0
BBX 13 26 0 0
BITMAP
01F8
01F0
01E0
03C0
0380
0300
0600
0000
0000
0380
7F80
1F80
1F00
1F00
1F00
1E00
3E00
3E00
3C00
7C00
7C00
7880
F900
FB00
FE00
7800
ENDCHAR

STARTCHAR afii9978
ENCODING 224
SWIDTH 438 0
DWIDTH 17 0
BBX 15 27 1 0
BITMAP
00F0
00E0
00E0
0CCC
1EDE
1E9E
0C8C
0000
0000
3C60
7E38
7E1C
3E0C
3E0E
3E0E
3E0E
7E0E
7C0E
7C1E
FC1C
F81C
F838
F838
F070
70E0
39C0
1F00
ENDCHAR

STARTCHAR afii9825
ENCODING 225
SWIDTH 500 0
DWIDTH 19 0
BBX 17 17 1 0
BITMAP
03EF80
0F2F80
1E1780
3E1F00
3C1F00
7C1F00
7C3E00
783E00
F83E00
F83C00
F87C00
F07800
707880
70F480
70E780
31C700
0F0300
ENDCHAR

STARTCHAR afii9826
ENCODING 226
SWIDTH 500 0
DWIDTH 19 0
BBX 22 35 -1 -7
BITMAP
0003E0
000E78
001C3C
003C3C
00783C
00783C
00F07C
00F07C
00F078
01F0F8
01E0F0
01EFC0
01E780
03E1C0
03C1E0
03C1E0
03C1E0
07C1E0
0783E0
0783E0
0F83E0
0F83E0
0F07C0
0F07C0
1F0F80
1F1F00
1F7E00
1E7800
3E0000
3E0000
3E0000
3C0000
7C0000
7C0000
F80000
ENDCHAR

STARTCHAR afii9828
ENCODING 227
SWIDTH 438 0
DWIDTH 17 0
BBX 14 26 2 -9
BITMAP
3818
7C3C
FC3C
FC3C
8E1C
861C
0618
0618
0630
0630
0660
0640
04C0
0580
0700
0600
0C00
1C00
3C00
7C00
7C00
FC00
F800
F800
F000
2000
ENDCHAR

STARTCHAR afii9829
ENCODING 228
SWIDTH 500 0
DWIDTH 19 0
BBX 18 27 1 0
BITMAP
007F00
00CF80
0087C0
0083C0
00C180
00E000
007000
007800
003C00
001E00
007F00
01DF00
078F80
0F0F80
1E0F80
3E0F80
7C0F80
7C0F80
780F00
F81F00
F81F00
F83E00
F83C00
787800
787000
38E000
1F8000
ENDCHAR

STARTCHAR afii9830
ENCODING 229
SWIDTH 385 0
DWIDTH 15 0
BBX 14 17 1 0
BITMAP
03F0
0F38
1E3C
1E3C
1C18
1C00
0C40
07C0
3C00
7800
F800
F830
F070
F0F8
F0F0
79E0
1FC0
ENDCHAR

STARTCHAR afii9833
ENCODING 230
SWIDTH 438 0
DWIDTH 17 0
BBX 17 34 2 -7
BITMAP
01C000
030380
060780
061F80
073F00
03FE00
00F000
018000
030000
060000
060000
0C0000
1C0000
180000
380000
300000
700000
700000
600000
E00000
E00000
E00000
F00000
FFE000
FFF800
FFF800
7FFC00
1FFC00
000C00
000800
070800
0FF000
0FE000
078000
ENDCHAR

STARTCHAR afii9834
ENCODING 231
SWIDTH 500 0
DWIDTH 19 0
BBX 18 26 1 -8
BITMAP
020100
1F0780
3F8FC0
2F9FC0
4FA7C0
0F47C0
1F8F80
1F8F80
1F0F80
3F0F00
3E1F00
3E1F00
7C1E00
7C3E00
7C3E00
783E00
F87C00
F87C00
007C00
007800
00F800
00F800
00F800
00F000
01F000
01F000
ENDCHAR

STARTCHAR afii9835
ENCODING 232
SWIDTH 500 0
DWIDTH 19 0
BBX 18 27 2 0
BITMAP
003E00
00E700
01C380
0383C0
0783C0
0703C0
0F03C0
1F03C0
1E07C0
1E07C0
3E07C0
3E07C0
3C0F80
7FFF80
7C0F80
7C0F00
F81F00
F81F00
F81E00
F03E00
F03C00
F03C00
F07800
707000
70E000
39C000
1F0000
ENDCHAR

STARTCHAR afii9836
ENCODING 233
SWIDTH 271 0
DWIDTH 10 0
BBX 9 17 0 0
BITMAP
0380
7F80
1F80
1F00
1F00
1F00
1E00
3E00
3E00
3C00
7C00
7C00
7880
F900
FB00
FE00
7800
ENDCHAR

STARTCHAR afii9837
ENCODING 234
SWIDTH 552 0
DWIDTH 21 0
BBX 21 17 0 0
BITMAP
01E078
3FC0F8
0FC1F8
0F8238
0F8400
0F8800
0F1800
1F7C00
1F7C00
1FBC00
3E3E00
3E3E00
3E3E00
7C1F10
7C1F20
7C0FC0
F80F80
ENDCHAR

STARTCHAR afii9838
ENCODING 235
SWIDTH 500 0
DWIDTH 19 0
BBX 17 27 1 0
BITMAP
00F000
00F800
01F800
011800
020800
000800
000800
000800
000800
000800
001800
001800
003800
007800
007800
00F800
01F800
03F800
03E800
07C800
0FC800
1F8800
1F0880
3F0C80
7E0F80
7C0F80
FC0700
ENDCHAR

STARTCHAR afii9839
ENCODING 236
SWIDTH 552 0
DWIDTH 21 0
BBX 22 25 -2 -8
BITMAP
00F87C
00F87C
01F0F8
01F0F8
01F0F8
03E0F0
03E1F0
03E1F0
07C1E0
07C3E0
07C3E0
0F87C0
0F87C0
0F8BC4
0FF3C8
1BE3F0
1BC1E0
380000
380000
780000
780000
700000
F00000
F00000
200000
ENDCHAR

STARTCHAR afii9840
ENCODING 237
SWIDTH 438 0
DWIDTH 17 0
BBX 14 17 2 0
BITMAP
FC3C
7C3C
3C3C
3E3C
3E1C
3E18
3E18
1E10
1E30
1E20
1E60
1E40
1E80
1F00
1E00
1E00
1C00
ENDCHAR

STARTCHAR afii9841
ENCODING 238
SWIDTH 500 0
DWIDTH 19 0
BBX 18 32 1 -5
BITMAP
01C1C0
0307C0
031F80
01BF00
007E00
00C000
008000
010000
011F00
007F80
01FF00
063E00
0C0000
180000
300000
700000
600000
E00000
E00000
E00000
F00000
FC0000
FFF800
7FFC00
7FFE00
1FFE00
000600
000200
000200
01E400
03FC00
01F000
ENDCHAR

STARTCHAR afii9842
ENCODING 239
SWIDTH 500 0
DWIDTH 19 0
BBX 17 17 1 0
BITMAP
00FC00
038F00
070780
0F0780
1E0780
3E0F80
7C0F80
7C0F80
F80F80
F81F00
F81F00
F83E00
F03C00
F07800
707000
78E000
1F0000
ENDCHAR

STARTCHAR afii9843
ENCODING 240
SWIDTH 552 0
DWIDTH 21 0
BBX 21 17 1 0
BITMAP
0FFFF8
3FFFF0
7FFFF0
7FFFE0
438700
C78F00
078E00
070E00
071E00
0F1E00
0E1C00
1E3C00
3E3C00
3C3C20
7C3FC0
781FC0
781F00
ENDCHAR

STARTCHAR afii9845
ENCODING 241
SWIDTH 500 0
DWIDTH 19 0
BBX 21 25 -2 -8
BITMAP
000FC0
0038F0
00F8F0
00F0F8
01F0F8
01F0F8
03E0F8
03E0F8
03E1F0
07C1F0
07C1E0
07C3E0
0F83C0
0F8780
0F0700
0F8E00
1F7800
1F0000
1E0000
3E0000
3E0000
3E0000
7C0000
7C0000
F80000
ENDCHAR

STARTCHAR afii9847
ENCODING 242
SWIDTH 438 0
DWIDTH 17 0
BBX 16 24 1 -7
BITMAP
01FC
07FE
0E7F
181F
3006
2000
6000
4000
C000
C000
C000
C000
E000
FFC0
7FF0
7FF8
3FF8
0FF8
0018
0010
0410
0FE0
0FC0
0700
ENDCHAR

STARTCHAR afii9846
ENCODING 243
SWIDTH 552 0
DWIDTH 21 0
BBX 20 17 1 0
BITMAP
00FFF0
07FFF0
0FFFF0
1FFFE0
3F8800
7E0C00
7C0E00
780F00
F81F00
F81F00
F01F00
F03E00
703E00
707C00
307800
18F000
0FC000
ENDCHAR

STARTCHAR afii9848
ENCODING 244
SWIDTH 438 0
DWIDTH 17 0
BBX 16 17 0 0
BITMAP
1FFF
3FFE
7FFE
7FFE
41C0
83C0
0380
0380
0780
0700
0700
0F00
0F08
0F18
0FF0
07E0
03C0
ENDCHAR

STARTCHAR afii9849
ENCODING 245
SWIDTH 438 0
DWIDTH 17 0
BBX 15 18 1 0
BITMAP
3860
7E38
7E1C
3E0C
3E0E
3E0E
3E0E
7C0E
7C0E
7C1E
FC1C
F81C
F838
F838
F070
70E0
39C0
1F00
ENDCHAR

STARTCHAR afii9850
ENCODING 246
SWIDTH 552 0
DWIDTH 21 0
BBX 19 26 1 -9
BITMAP
00C700
079FC0
0F3FE0
1E39E0
3C71E0
7C71E0
7C71E0
7863E0
F8E3E0
F8E3C0
F8E3C0
F1C780
F1C780
F1CF00
738E00
739C00
3BB800
1FE000
070000
070000
070000
0E0000
0E0000
0E0000
0C0000
1C0000
ENDCHAR

STARTCHAR afii9851
ENCODING 247
SWIDTH 500 0
DWIDTH 19 0
BBX 22 25 -2 -8
BITMAP
01C0FC
03E0F8
07E1F8
0463F0
0023E0
0037E0
0037C0
001F80
001F80
003F00
003E00
007E00
00FC00
01F800
01F000
03F000
07F000
07D000
0FD800
1F9800
1F0800
3F0C40
7E0FC0
7C0F80
FC0700
ENDCHAR

STARTCHAR afii9852
ENCODING 248
SWIDTH 719 0
DWIDTH 27 0
BBX 24 25 3 -8
BITMAP
F01C0F
3C3C1E
3C3C3C
3C387C
7C387C
7C78F8
7C70F8
7C71F8
F8F1F0
F8E1F0
F8E3E0
F1E3E0
F1E7C0
71C780
73CF00
3BCE00
1FF800
038000
078000
070000
070000
0F0000
0E0000
0E0000
1E0000
ENDCHAR

STARTCHAR afii9853
ENCODING 249
SWIDTH 719 0
DWIDTH 27 0
BBX 25 18 1 0
BITMAP
00E07000
03801C00
0F060E00
1E0F0700
3E1F0780
7C1F0780
7C1E0780
F80E0780
F81C0F80
F8180F80
F8180F80
F0101F00
F0101F00
F0303E00
F0303E00
70507C00
3888F800
1F07E000
ENDCHAR

STARTCHAR afii9975
ENCODING 250
SWIDTH 271 0
DWIDTH 10 0
BBX 14 25 0 0
BITMAP
1C38
3E7C
3E7C
3E7C
1C38
0000
0000
0000
03C0
7F80
1F80
1F80
1F00
1F00
1F00
3E00
3E00
3E00
7C00
7C00
7C80
F980
FB00
FE00
7800
ENDCHAR

STARTCHAR afii9976
ENCODING 251
SWIDTH 438 0
DWIDTH 17 0
BBX 15 26 1 0
BITMAP
0E1C
1F3E
1F3E
1F3E
0E1C
0000
0000
0000
3C60
7E38
7E1C
3E0C
3E0E
3E0E
3E0E
7E0E
7C0E
7C1E
FC1C
F81C
F838
F838
F070
70E0
39C0
1F00
ENDCHAR

STARTCHAR afii9972
ENCODING 252
SWIDTH 500 0
DWIDTH 19 0
BBX 17 26 1 0
BITMAP
001F80
001E00
003C00
003800
003000
006000
000000
000000
000000
00FC00
038F00
070780
0F0780
1E0780
3E0F80
7C0F80
7C0F80
F80F80
F81F00
F81F00
F83E00
F03C00
F07800
707000
78E000
1F0000
ENDCHAR

STARTCHAR afii9973
ENCODING 253
SWIDTH 438 0
DWIDTH 17 0
BBX 15 26 1 0
BITMAP
007E
0078
00F0
00E0
00C0
0180
0000
0000
3860
7E38
7E1C
3E0C
3E0E
3E0E
3E0E
7C0E
7C0E
7C1E
FC1C
F81C
F838
F838
F070
70E0
39C0
1F00
ENDCHAR

STARTCHAR afii9974
ENCODING 254
SWIDTH 719 0
DWIDTH 27 0
BBX 25 26 1 0
BITMAP
0001F800
0001E000
0003C000
00038000
00030000
00060000
00000000
00000000
00E07000
03801C00
0F060E00
1E0F0700
3E1F0780
7C1F0780
7C1E0780
F80E0780
F81C0F80
F8180F80
F8180F80
F0101F00
F0101F00
F0303E00
F0303E00
70507C00
3888F800
1F07E000
ENDCHAR

ENDFONT
