STARTFONT 2.1
FONT -Monotype-Times New Roman-Bold-R-Normal--24-240-75-75-P-132-iso8859-5
SIZE 24 75 75
FONTBOUNDINGBOX 28 29 0 -6

STARTPROPERTIES 24
FOUNDRY "Monotype"
FAMILY_NAME "Times New Roman"
WEIGHT_NAME "Bold"
SLANT "R"
SETWIDTH_NAME "Normal"
ADD_STYLE_NAME ""
PIXEL_SIZE 24
POINT_SIZE 240
RESOLUTION_X 75
RESOLUTION_Y 75
SPACING "P"
AVERAGE_WIDTH 132
CHARSET_REGISTRY "iso8859"
CHARSET_ENCODING "5"
FACE_NAME "Times New Roman Bold ISO Latin Cyrillic"
_DEC_DEVICE_FONTNAMES "PS=timesnewroman-b-latcyrillic"
COPYRIGHT "Copyright (c) 1993 Monotype Typography Ltd."
CAP_HEIGHT 19
X_HEIGHT 13
WEIGHT 10
QUAD_WIDTH 17
DEFAULT_CHAR 160
FONT_DESCENT 6
FONT_ASCENT 23
ENDPROPERTIES

CHARS 191

STARTCHAR space
ENCODING 32
SWIDTH 250 0
DWIDTH 6 0
BBX 0 0 0 0
BITMAP
ENDCHAR

STARTCHAR exclam
ENCODING 33
SWIDTH 271 0
DWIDTH 7 0
BBX 4 18 1 0
BITMAP
60
F0
F0
F0
F0
70
60
60
60
60
20
20
00
00
60
F0
F0
60
ENDCHAR

STARTCHAR quotedbl
ENCODING 34
SWIDTH 552 0
DWIDTH 14 0
BBX 10 9 2 9
BITMAP
4100
F3C0
F3C0
F3C0
6180
6180
6180
6180
2080
ENDCHAR

STARTCHAR numbersign
ENCODING 35
SWIDTH 667 0
DWIDTH 17 0
BBX 15 18 1 0
BITMAP
061C
0E18
0E18
0C18
0C38
FFFE
FFFE
1830
1830
1870
1860
FFFE
FFFE
3060
30E0
70C0
70C0
60C0
ENDCHAR

STARTCHAR dollar
ENCODING 36
SWIDTH 500 0
DWIDTH 13 0
BBX 11 19 1 -1
BITMAP
0400
1F80
64C0
6440
E440
E440
FC00
7E00
3F00
1F80
07C0
07E0
05E0
44E0
44E0
44C0
65C0
3F00
0400
ENDCHAR

STARTCHAR percent
ENCODING 37
SWIDTH 875 0
DWIDTH 22 0
BBX 19 19 1 -1
BITMAP
380100
640300
C60600
C60400
C60C00
C60800
C61800
C63000
6C2000
186180
004240
00C660
018660
010660
030660
060660
040240
0C0180
080000
ENDCHAR

STARTCHAR ampersand
ENCODING 38
SWIDTH 771 0
DWIDTH 19 0
BBX 17 18 1 0
BITMAP
03E000
067000
063000
0E3000
0E3000
0F6000
0FC000
070F80
1F8700
37C600
63C400
E1E400
F1F800
F0F800
F87C00
FC7E80
7FDF00
1F1E00
ENDCHAR

STARTCHAR quoteright
ENCODING 39
SWIDTH 271 0
DWIDTH 7 0
BBX 4 8 1 10
BITMAP
E0
F0
F0
F0
10
30
20
C0
ENDCHAR

STARTCHAR parenleft
ENCODING 40
SWIDTH 333 0
DWIDTH 8 0
BBX 7 23 1 -5
BITMAP
02
04
18
18
30
70
70
E0
E0
E0
E0
E0
E0
E0
E0
E0
70
70
30
10
18
0C
02
ENDCHAR

STARTCHAR parenright
ENCODING 41
SWIDTH 333 0
DWIDTH 8 0
BBX 7 23 0 -5
BITMAP
80
40
30
30
18
1C
1C
0E
0E
0E
0E
0E
0E
0E
0E
0E
0C
1C
18
18
30
60
80
ENDCHAR

STARTCHAR asterisk
ENCODING 42
SWIDTH 500 0
DWIDTH 13 0
BBX 9 10 2 8
BITMAP
0800
1C00
0800
C980
FF80
0800
1400
7700
6700
2200
ENDCHAR

STARTCHAR plus
ENCODING 43
SWIDTH 667 0
DWIDTH 17 0
BBX 13 13 2 2
BITMAP
0700
0700
0700
0700
0700
FFF8
FFF8
FFF8
0700
0700
0700
0700
0700
ENDCHAR

STARTCHAR comma
ENCODING 44
SWIDTH 271 0
DWIDTH 7 0
BBX 4 8 1 -4
BITMAP
E0
F0
F0
F0
10
30
20
C0
ENDCHAR

STARTCHAR minus
ENCODING 45
SWIDTH 667 0
DWIDTH 17 0
BBX 13 3 2 7
BITMAP
FFF8
FFF8
FFF8
ENDCHAR

STARTCHAR period
ENCODING 46
SWIDTH 271 0
DWIDTH 7 0
BBX 4 4 1 0
BITMAP
60
F0
F0
60
ENDCHAR

STARTCHAR slash
ENCODING 47
SWIDTH 281 0
DWIDTH 7 0
BBX 7 18 0 0
BITMAP
0E
0E
0C
1C
1C
1C
1C
38
38
38
38
30
70
70
70
60
E0
E0
ENDCHAR

STARTCHAR zero
ENCODING 48
SWIDTH 500 0
DWIDTH 13 0
BBX 12 18 0 0
BITMAP
0F00
19C0
30C0
70E0
70E0
F0F0
F0F0
F0F0
F0F0
F0F0
F0F0
F0F0
F0F0
70E0
70E0
30C0
1980
0F00
ENDCHAR

STARTCHAR one
ENCODING 49
SWIDTH 500 0
DWIDTH 13 0
BBX 9 18 1 0
BITMAP
0200
1E00
FE00
1E00
1E00
1E00
1E00
1E00
1E00
1E00
1E00
1E00
1E00
1E00
1E00
1E00
1E00
FF80
ENDCHAR

STARTCHAR two
ENCODING 50
SWIDTH 500 0
DWIDTH 13 0
BBX 12 18 0 0
BITMAP
0F00
3FC0
3FC0
43E0
41E0
01E0
01E0
01C0
01C0
0380
0300
0600
0400
0810
1020
3FE0
7FE0
FFE0
ENDCHAR

STARTCHAR three
ENCODING 51
SWIDTH 500 0
DWIDTH 13 0
BBX 11 18 1 0
BITMAP
1F00
3FC0
67C0
83C0
01C0
01C0
0300
0780
1FC0
07E0
03E0
01E0
00E0
00E0
00C0
E0C0
F100
7E00
ENDCHAR

STARTCHAR four
ENCODING 52
SWIDTH 500 0
DWIDTH 13 0
BBX 11 18 1 0
BITMAP
00C0
01C0
03C0
03C0
05C0
0BC0
1BC0
13C0
23C0
43C0
83C0
FFE0
FFE0
FFE0
03C0
03C0
03C0
03C0
ENDCHAR

STARTCHAR five
ENCODING 53
SWIDTH 500 0
DWIDTH 13 0
BBX 11 18 1 0
BITMAP
1FE0
3FE0
3FC0
2000
6000
7C00
7F00
FF80
FFC0
07E0
01E0
00E0
0060
0060
0040
E0C0
F980
7E00
ENDCHAR

STARTCHAR six
ENCODING 54
SWIDTH 500 0
DWIDTH 13 0
BBX 12 18 0 0
BITMAP
0070
0380
0E00
1C00
3C00
3800
7000
7FC0
F1E0
F1E0
F0F0
F0F0
F0F0
F0F0
70E0
38E0
38C0
0F00
ENDCHAR

STARTCHAR seven
ENCODING 55
SWIDTH 500 0
DWIDTH 13 0
BBX 12 18 0 0
BITMAP
7FF0
7FF0
7FE0
6060
8060
00C0
00C0
00C0
0180
0180
0180
0300
0300
0300
0600
0600
0600
0C00
ENDCHAR

STARTCHAR eight
ENCODING 56
SWIDTH 500 0
DWIDTH 13 0
BBX 11 18 1 0
BITMAP
1F00
71C0
E0E0
E0E0
F0E0
F8E0
7DC0
7F00
1F80
1FC0
77E0
E3E0
E1E0
E0E0
E0E0
E0C0
71C0
1F00
ENDCHAR

STARTCHAR nine
ENCODING 57
SWIDTH 500 0
DWIDTH 13 0
BBX 12 18 0 0
BITMAP
0F00
31C0
71E0
70E0
F0F0
F0F0
F0F0
F0F0
78F0
78F0
1F60
01E0
01C0
03C0
0380
0E00
3C00
C000
ENDCHAR

STARTCHAR colon
ENCODING 58
SWIDTH 271 0
DWIDTH 7 0
BBX 4 12 1 0
BITMAP
60
F0
F0
60
00
00
00
00
60
F0
F0
60
ENDCHAR

STARTCHAR semicolon
ENCODING 59
SWIDTH 271 0
DWIDTH 7 0
BBX 4 16 1 -4
BITMAP
60
F0
F0
60
00
00
00
00
E0
F0
F0
F0
10
30
20
C0
ENDCHAR

STARTCHAR less
ENCODING 60
SWIDTH 667 0
DWIDTH 17 0
BBX 13 13 2 2
BITMAP
0018
00F8
03F8
0FC0
7F00
FC00
F000
FC00
3F00
0FE0
01F8
0078
0018
ENDCHAR

STARTCHAR equal
ENCODING 61
SWIDTH 667 0
DWIDTH 17 0
BBX 13 9 2 4
BITMAP
FFF8
FFF8
FFF8
0000
0000
0000
FFF8
FFF8
FFF8
ENDCHAR

STARTCHAR greater
ENCODING 62
SWIDTH 667 0
DWIDTH 17 0
BBX 13 13 2 2
BITMAP
C000
F000
FE00
3F80
07E0
01F8
0078
01F8
0FE0
3F80
FC00
F000
8000
ENDCHAR

STARTCHAR question
ENCODING 63
SWIDTH 385 0
DWIDTH 10 0
BBX 9 18 0 0
BITMAP
3E00
4F00
E780
E780
E780
4780
0700
0600
0C00
0800
0800
0800
0000
0000
1800
3C00
3C00
1800
ENDCHAR

STARTCHAR at
ENCODING 64
SWIDTH 958 0
DWIDTH 24 0
BBX 22 24 1 -6
BITMAP
007E00
038180
060040
0C0020
100010
300010
603B88
40EB08
C1C708
C18F08
838E08
838E08
870E08
870E10
872C10
C75C20
47DCC4
438F08
600008
200010
100020
0C0040
030380
00FC00
ENDCHAR

STARTCHAR A
ENCODING 65
SWIDTH 719 0
DWIDTH 18 0
BBX 18 18 0 0
BITMAP
004000
00C000
00C000
00E000
01E000
01E000
02F000
02F000
02F800
047800
047800
083C00
0FFC00
183E00
101E00
101F00
300F00
FC3FC0
ENDCHAR

STARTCHAR B
ENCODING 66
SWIDTH 667 0
DWIDTH 17 0
BBX 15 18 1 0
BITMAP
FFC0
3CF8
3C3C
3C3C
3C3C
3C3C
3C3C
3C50
3FE0
3C78
3C3C
3C1E
3C1E
3C1E
3C1E
3C3C
3C7C
FFF0
ENDCHAR

STARTCHAR C
ENCODING 67
SWIDTH 719 0
DWIDTH 18 0
BBX 16 18 1 0
BITMAP
03F1
0F0F
1C07
3C03
7801
7801
F000
F000
F000
F000
F000
F800
F800
7800
7C02
3C02
0F0C
03F0
ENDCHAR

STARTCHAR D
ENCODING 68
SWIDTH 771 0
DWIDTH 19 0
BBX 17 18 1 0
BITMAP
FFE000
3C3C00
3C1E00
3C0F00
3C0F00
3C0F80
3C0780
3C0780
3C0780
3C0780
3C0780
3C0780
3C0780
3C0F00
3C0F00
3C1E00
3C3C00
FFF000
ENDCHAR

STARTCHAR E
ENCODING 69
SWIDTH 667 0
DWIDTH 17 0
BBX 15 18 1 0
BITMAP
FFFC
3C0C
3C04
3C04
3C44
3C40
3C40
3CC0
3FC0
3CC0
3C40
3C40
3C42
3C02
3C02
3C06
3C0E
FFFE
ENDCHAR

STARTCHAR F
ENCODING 70
SWIDTH 604 0
DWIDTH 15 0
BBX 14 18 1 0
BITMAP
FFFC
3C0C
3C04
3C04
3C24
3C20
3C20
3C60
3FE0
3C60
3C20
3C20
3C20
3C00
3C00
3C00
3C00
FF80
ENDCHAR

STARTCHAR G
ENCODING 71
SWIDTH 771 0
DWIDTH 19 0
BBX 18 18 1 0
BITMAP
03F100
0E0F00
1C0700
3C0300
780100
780100
F80000
F00000
F00000
F00000
F03FC0
F80F00
F80F00
780F00
780F00
3C0F00
0E0F00
03F800
ENDCHAR

STARTCHAR H
ENCODING 72
SWIDTH 823 0
DWIDTH 21 0
BBX 19 18 1 0
BITMAP
FF1FE0
3C0780
3C0780
3C0780
3C0780
3C0780
3C0780
3C0780
3FFF80
3C0780
3C0780
3C0780
3C0780
3C0780
3C0780
3C0780
3C0780
FF1FE0
ENDCHAR

STARTCHAR I
ENCODING 73
SWIDTH 385 0
DWIDTH 10 0
BBX 8 18 1 0
BITMAP
FF
3C
3C
3C
3C
3C
3C
3C
3C
3C
3C
3C
3C
3C
3C
3C
3C
FF
ENDCHAR

STARTCHAR J
ENCODING 74
SWIDTH 552 0
DWIDTH 14 0
BBX 13 18 0 0
BITMAP
0FF8
01E0
01E0
01E0
01E0
01E0
01E0
01E0
01E0
01E0
01E0
01E0
21E0
F1E0
F1E0
E1C0
63C0
1F00
ENDCHAR

STARTCHAR K
ENCODING 75
SWIDTH 719 0
DWIDTH 18 0
BBX 17 18 1 0
BITMAP
FF3F00
3C1C00
3C1800
3C1000
3C2000
3C4000
3C8000
3DC000
3DC000
3FE000
3DF000
3CF000
3CF800
3C7800
3C3C00
3C3E00
3C1E00
FF7F80
ENDCHAR

STARTCHAR L
ENCODING 76
SWIDTH 667 0
DWIDTH 17 0
BBX 16 18 0 0
BITMAP
FFC0
1E00
1E00
1E00
1E00
1E00
1E00
1E00
1E00
1E00
1E00
1E00
1E01
1E01
1E01
1E03
1E07
FFFE
ENDCHAR

STARTCHAR M
ENCODING 77
SWIDTH 990 0
DWIDTH 25 0
BBX 24 18 0 0
BITMAP
FE007F
3E007C
2F00DC
2F00BC
2F80BC
27813C
27C13C
23C23C
23C23C
23E43C
21E43C
21F83C
20F83C
20F83C
20703C
20703C
20203C
F821FF
ENDCHAR

STARTCHAR N
ENCODING 78
SWIDTH 771 0
DWIDTH 19 0
BBX 18 18 1 0
BITMAP
FC07C0
7C0100
3E0100
2F0100
2F8100
27C100
23E100
23F100
21F100
20F900
207D00
203F00
201F00
200F00
200F00
200700
200300
FC0100
ENDCHAR

STARTCHAR O
ENCODING 79
SWIDTH 823 0
DWIDTH 21 0
BBX 18 18 1 0
BITMAP
03F000
0E1C00
3C0F00
380780
780780
F807C0
F003C0
F003C0
F003C0
F003C0
F003C0
F003C0
F807C0
780780
380700
3C0F00
0E1C00
03F000
ENDCHAR

STARTCHAR P
ENCODING 80
SWIDTH 667 0
DWIDTH 17 0
BBX 15 18 1 0
BITMAP
FFF0
3C3C
3C3C
3C1E
3C1E
3C1E
3C1E
3C3C
3C78
3FF0
3C00
3C00
3C00
3C00
3C00
3C00
3C00
FF00
ENDCHAR

STARTCHAR Q
ENCODING 81
SWIDTH 823 0
DWIDTH 21 0
BBX 18 22 1 -4
BITMAP
03F000
0E1C00
3C0F00
780780
780780
F807C0
F003C0
F003C0
F003C0
F003C0
F003C0
F803C0
F807C0
780780
380700
1C0E00
0F1C00
01E000
01F000
00F000
007C00
001F80
ENDCHAR

STARTCHAR R
ENCODING 82
SWIDTH 719 0
DWIDTH 18 0
BBX 17 18 1 0
BITMAP
FFF000
3C7C00
3C3C00
3C1E00
3C1E00
3C1E00
3C1E00
3C3C00
3C7800
3FE000
3DF000
3CF000
3C7800
3C7C00
3C3C00
3C3E00
3C1F00
FF8F80
ENDCHAR

STARTCHAR S
ENCODING 83
SWIDTH 604 0
DWIDTH 15 0
BBX 14 18 1 0
BITMAP
1F88
3078
6018
E008
E008
F008
7E00
7FC0
3FF0
0FF8
03F8
007C
803C
801C
C01C
E018
F030
8FC0
ENDCHAR

STARTCHAR T
ENCODING 84
SWIDTH 667 0
DWIDTH 17 0
BBX 16 18 0 0
BITMAP
FFFF
C3C3
83C1
83C1
83C1
03C0
03C0
03C0
03C0
03C0
03C0
03C0
03C0
03C0
03C0
03C0
03C0
0FF0
ENDCHAR

STARTCHAR U
ENCODING 85
SWIDTH 771 0
DWIDTH 19 0
BBX 18 18 1 0
BITMAP
FF07C0
3C0100
3C0100
3C0100
3C0100
3C0100
3C0100
3C0100
3C0100
3C0100
3C0100
3C0100
3C0100
3C0100
3C0200
1E0200
0F0C00
03F000
ENDCHAR

STARTCHAR V
ENCODING 86
SWIDTH 719 0
DWIDTH 18 0
BBX 18 18 0 0
BITMAP
FF0FC0
3C0300
3E0200
1E0200
1E0200
0F0400
0F0400
0F8800
078800
079000
03D000
03D000
01E000
01E000
01C000
00C000
00C000
004000
ENDCHAR

STARTCHAR W
ENCODING 87
SWIDTH 990 0
DWIDTH 25 0
BBX 24 18 0 0
BITMAP
FEFF0F
7C3E02
7C1E02
3C1E04
3C0F04
1E0F08
1E1F08
1E1788
0F1790
0F27D0
07A3D0
07C3E0
07C3E0
03C1C0
0381C0
0380C0
010080
010080
ENDCHAR

STARTCHAR X
ENCODING 88
SWIDTH 719 0
DWIDTH 18 0
BBX 18 18 0 0
BITMAP
FF9F80
3E0600
1E0400
1F0800
0F9800
079000
07E000
03E000
01E000
01F000
01F000
037800
027C00
043C00
083E00
181F00
381F00
FE3FC0
ENDCHAR

STARTCHAR Y
ENCODING 89
SWIDTH 719 0
DWIDTH 18 0
BBX 17 18 0 0
BITMAP
FF0F80
3C0300
3E0200
1E0200
1F0400
0F0400
078800
078800
03D000
03F000
01E000
01E000
01E000
01E000
01E000
01E000
01E000
0FFC00
ENDCHAR

STARTCHAR Z
ENCODING 90
SWIDTH 719 0
DWIDTH 18 0
BBX 16 18 1 0
BITMAP
3FFE
303C
607C
4078
40F8
01F0
01E0
03E0
03C0
07C0
0F80
0F00
1F01
3E01
3C01
7C03
780F
FFFF
ENDCHAR

STARTCHAR bracketleft
ENCODING 91
SWIDTH 271 0
DWIDTH 7 0
BBX 5 22 2 -4
BITMAP
F8
E0
E0
E0
E0
E0
E0
E0
E0
E0
E0
E0
E0
E0
E0
E0
E0
E0
E0
E0
E0
F8
ENDCHAR

STARTCHAR backslash
ENCODING 92
SWIDTH 281 0
DWIDTH 7 0
BBX 7 18 0 0
BITMAP
E0
E0
60
70
70
70
70
38
38
38
38
18
1C
1C
1C
0C
0E
0E
ENDCHAR

STARTCHAR bracketright
ENCODING 93
SWIDTH 271 0
DWIDTH 7 0
BBX 5 22 0 -4
BITMAP
F8
38
38
38
38
38
38
38
38
38
38
38
38
38
38
38
38
38
38
38
38
F8
ENDCHAR

STARTCHAR asciicircum
ENCODING 94
SWIDTH 510 0
DWIDTH 13 0
BBX 11 9 1 9
BITMAP
0400
0E00
0E00
1B00
1B00
3180
6180
60C0
C0E0
ENDCHAR

STARTCHAR underscore
ENCODING 95
SWIDTH 500 0
DWIDTH 13 0
BBX 13 1 0 -3
BITMAP
FFF8
ENDCHAR

STARTCHAR quoteleft
ENCODING 96
SWIDTH 271 0
DWIDTH 7 0
BBX 4 8 1 9
BITMAP
30
40
C0
80
F0
F0
F0
70
ENDCHAR

STARTCHAR a
ENCODING 97
SWIDTH 500 0
DWIDTH 13 0
BBX 11 12 1 0
BITMAP
1F00
6780
E380
F380
6380
0D80
3380
7380
E380
F780
FBE0
73C0
ENDCHAR

STARTCHAR b
ENCODING 98
SWIDTH 500 0
DWIDTH 13 0
BBX 11 18 1 0
BITMAP
F000
7000
7000
7000
7000
7000
7780
7BC0
71C0
71E0
71E0
71E0
71E0
71E0
71C0
71C0
7B80
4F00
ENDCHAR

STARTCHAR c
ENCODING 99
SWIDTH 437 0
DWIDTH 11 0
BBX 10 12 1 0
BITMAP
1F00
3380
63C0
E180
E000
E000
E000
F000
F000
7840
3F80
1E00
ENDCHAR

STARTCHAR d
ENCODING 100
SWIDTH 500 0
DWIDTH 13 0
BBX 12 18 0 0
BITMAP
07C0
01C0
01C0
01C0
01C0
01C0
3DC0
73C0
71C0
F1C0
F1C0
F1C0
F1C0
F1C0
71C0
73C0
3EF0
1900
ENDCHAR

STARTCHAR e
ENCODING 101
SWIDTH 437 0
DWIDTH 11 0
BBX 10 12 1 0
BITMAP
1E00
3300
6180
E180
E1C0
FFC0
E000
F000
F040
7880
7F00
1E00
ENDCHAR

STARTCHAR f
ENCODING 102
SWIDTH 333 0
DWIDTH 8 0
BBX 9 18 1 0
BITMAP
0F00
1B80
3B80
3800
3800
3800
FC00
3800
3800
3800
3800
3800
3800
3800
3800
3800
3800
FE00
ENDCHAR

STARTCHAR g
ENCODING 103
SWIDTH 500 0
DWIDTH 13 0
BBX 11 18 1 -6
BITMAP
1E00
73E0
F180
E1C0
E1C0
E1C0
F1C0
5380
3E00
6000
E000
FFC0
FFE0
3FE0
E060
C060
E0C0
3F00
ENDCHAR

STARTCHAR h
ENCODING 104
SWIDTH 500 0
DWIDTH 13 0
BBX 11 18 1 0
BITMAP
F000
7000
7000
7000
7000
7000
7380
77C0
79C0
71C0
71C0
71C0
71C0
71C0
71C0
71C0
71C0
FBE0
ENDCHAR

STARTCHAR i
ENCODING 105
SWIDTH 271 0
DWIDTH 7 0
BBX 6 18 0 0
BITMAP
18
3C
3C
18
00
00
F8
38
38
38
38
38
38
38
38
38
38
FC
ENDCHAR

STARTCHAR j
ENCODING 106
SWIDTH 271 0
DWIDTH 7 0
BBX 5 23 0 -5
BITMAP
30
78
78
30
00
00
F8
38
38
38
38
38
38
38
38
38
38
38
38
18
98
D0
E0
ENDCHAR

STARTCHAR k
ENCODING 107
SWIDTH 552 0
DWIDTH 14 0
BBX 13 18 0 0
BITMAP
F800
3800
3800
3800
3800
3800
39F0
3840
3880
3980
3900
3B80
3F80
3BC0
39E0
38F0
38F0
FEF8
ENDCHAR

STARTCHAR l
ENCODING 108
SWIDTH 271 0
DWIDTH 7 0
BBX 7 18 0 0
BITMAP
F8
38
38
38
38
38
38
38
38
38
38
38
38
38
38
38
38
FE
ENDCHAR

STARTCHAR m
ENCODING 109
SWIDTH 771 0
DWIDTH 19 0
BBX 18 12 1 0
BITMAP
F38700
77DF80
79E380
71E380
71E380
71E380
71E380
71E380
71E380
71E380
71E380
FBF7C0
ENDCHAR

STARTCHAR n
ENCODING 110
SWIDTH 500 0
DWIDTH 13 0
BBX 11 12 1 0
BITMAP
F380
77C0
79C0
71C0
71C0
71C0
71C0
71C0
71C0
71C0
71C0
FBE0
ENDCHAR

STARTCHAR o
ENCODING 111
SWIDTH 500 0
DWIDTH 13 0
BBX 12 12 0 0
BITMAP
0F00
39C0
70E0
70E0
F0F0
F0F0
F0F0
F0F0
70E0
70E0
39C0
0F00
ENDCHAR

STARTCHAR p
ENCODING 112
SWIDTH 500 0
DWIDTH 13 0
BBX 12 17 0 -5
BITMAP
FBC0
3DE0
38E0
38F0
38F0
38F0
38F0
38F0
38E0
38E0
3CC0
3B80
3800
3800
3800
3800
FE00
ENDCHAR

STARTCHAR q
ENCODING 113
SWIDTH 505 0
DWIDTH 13 0
BBX 12 17 1 -5
BITMAP
1E40
3BC0
71C0
71C0
F1C0
F1C0
F1C0
F1C0
F1C0
71C0
7BC0
3DC0
01C0
01C0
01C0
01C0
03F0
ENDCHAR

STARTCHAR r
ENCODING 114
SWIDTH 385 0
DWIDTH 10 0
BBX 8 12 1 0
BITMAP
F7
77
7B
70
70
70
70
70
70
70
70
FC
ENDCHAR

STARTCHAR s
ENCODING 115
SWIDTH 385 0
DWIDTH 10 0
BBX 9 12 1 0
BITMAP
3D00
E300
C100
E100
FC00
7E00
3F00
0F80
8380
8380
E300
9E00
ENDCHAR

STARTCHAR t
ENCODING 116
SWIDTH 333 0
DWIDTH 8 0
BBX 8 16 0 0
BITMAP
08
08
18
38
FF
38
38
38
38
38
38
38
38
38
3D
1E
ENDCHAR

STARTCHAR u
ENCODING 117
SWIDTH 500 0
DWIDTH 13 0
BBX 11 12 1 0
BITMAP
F3C0
71C0
71C0
71C0
71C0
71C0
71C0
71C0
71C0
73C0
7EC0
39E0
ENDCHAR

STARTCHAR v
ENCODING 118
SWIDTH 437 0
DWIDTH 11 0
BBX 10 12 1 0
BITMAP
F9C0
7080
7880
3900
3900
3D00
1E00
1E00
1C00
0C00
0C00
0400
ENDCHAR

STARTCHAR w
ENCODING 119
SWIDTH 667 0
DWIDTH 17 0
BBX 16 12 0 0
BITMAP
FBF7
79E2
78E2
39F4
3D74
3D74
1E78
1E78
1C38
0C30
0C30
0810
ENDCHAR

STARTCHAR x
ENCODING 120
SWIDTH 552 0
DWIDTH 14 0
BBX 14 12 0 0
BITMAP
FE78
3C20
3C40
1EC0
0F80
0F80
0780
07C0
09E0
11F0
30F0
F9FC
ENDCHAR

STARTCHAR y
ENCODING 121
SWIDTH 500 0
DWIDTH 13 0
BBX 12 17 0 -5
BITMAP
FCF0
7860
3C40
3C40
1C40
1E80
0E80
0F00
0F00
0700
0600
0200
0200
6400
7400
7800
3000
ENDCHAR

STARTCHAR z
ENCODING 122
SWIDTH 437 0
DWIDTH 11 0
BBX 11 12 0 0
BITMAP
7FE0
63C0
4380
4780
0F00
0F00
1E00
1E00
3C40
3840
78C0
FFC0
ENDCHAR

STARTCHAR braceleft
ENCODING 123
SWIDTH 396 0
DWIDTH 10 0
BBX 6 22 2 -4
BITMAP
04
18
30
70
70
30
38
38
38
30
60
80
60
30
38
38
38
70
70
70
30
1C
ENDCHAR

STARTCHAR bar
ENCODING 124
SWIDTH 219 0
DWIDTH 5 0
BBX 3 23 1 -5
BITMAP
E0
E0
E0
E0
E0
E0
E0
E0
E0
E0
E0
E0
E0
E0
E0
E0
E0
E0
E0
E0
E0
E0
E0
ENDCHAR

STARTCHAR braceright
ENCODING 125
SWIDTH 396 0
DWIDTH 10 0
BBX 6 22 2 -4
BITMAP
80
60
30
38
38
78
70
70
70
30
18
04
18
30
70
70
30
38
38
38
30
E0
ENDCHAR

STARTCHAR asciitilde
ENCODING 126
SWIDTH 667 0
DWIDTH 17 0
BBX 13 4 2 7
BITMAP
7C08
FF18
87F0
81F0
ENDCHAR

STARTCHAR space
ENCODING 160
SWIDTH 250 0
DWIDTH 7 0
BBX 0 0 0 0
BITMAP
ENDCHAR

STARTCHAR afii10023
ENCODING 161
SWIDTH 667 0
DWIDTH 17 0
BBX 15 23 1 0
BITMAP
1860
3CF0
3CF0
1860
0000
FFFC
3C1C
3C0C
3C04
3C44
3C40
3C40
3CC0
3FC0
3CC0
3C40
3C40
3C42
3C02
3C04
3C0C
3C1C
FFFC
ENDCHAR

STARTCHAR afii10051
ENCODING 162
SWIDTH 823 0
DWIDTH 21 0
BBX 19 18 0 0
BITMAP
FFFE00
C78E00
878600
878200
878200
078000
079F00
07BFC0
07C3C0
0783E0
0781E0
0781E0
0781E0
0781E0
0781E0
0781C0
078380
1FEF00
ENDCHAR

STARTCHAR afii10052
ENCODING 163
SWIDTH 646 0
DWIDTH 16 0
BBX 16 22 0 0
BITMAP
03F0
0380
0600
0000
FFFF
1E03
1E01
1E01
1E01
1E00
1E00
1E00
1E00
1E00
1E00
1E00
1E00
1E00
1E00
1E00
1E00
FFC0
ENDCHAR

STARTCHAR afii10053
ENCODING 164
SWIDTH 698 0
DWIDTH 17 0
BBX 16 18 1 0
BITMAP
07F2
1E0E
3C06
7802
7802
F800
F000
F000
FFE0
F000
F000
F800
F800
7800
3801
3C02
0E0C
03F0
ENDCHAR

STARTCHAR afii10054
ENCODING 165
SWIDTH 604 0
DWIDTH 15 0
BBX 14 18 1 0
BITMAP
1F88
3078
6018
E008
E008
F008
7E00
7FC0
3FF0
0FF8
03F8
007C
803C
801C
C01C
E018
F030
8FC0
ENDCHAR

STARTCHAR afii10055
ENCODING 166
SWIDTH 385 0
DWIDTH 10 0
BBX 8 18 1 0
BITMAP
FF
3C
3C
3C
3C
3C
3C
3C
3C
3C
3C
3C
3C
3C
3C
3C
3C
FF
ENDCHAR

STARTCHAR afii10056
ENCODING 167
SWIDTH 385 0
DWIDTH 10 0
BBX 10 23 0 0
BITMAP
6180
F3C0
F3C0
6180
0000
7F80
1E00
1E00
1E00
1E00
1E00
1E00
1E00
1E00
1E00
1E00
1E00
1E00
1E00
1E00
1E00
1E00
7F80
ENDCHAR

STARTCHAR afii10057
ENCODING 168
SWIDTH 552 0
DWIDTH 14 0
BBX 13 18 0 0
BITMAP
0FF8
01E0
01E0
01E0
01E0
01E0
01E0
01E0
01E0
01E0
01E0
01E0
21E0
F1E0
F1E0
E1C0
63C0
1F00
ENDCHAR

STARTCHAR afii10058
ENCODING 169
SWIDTH 979 0
DWIDTH 24 0
BBX 24 18 0 0
BITMAP
07FFC0
010F00
010F00
010F00
010F00
010F00
010F00
010F00
010FF0
010F3C
010F1E
010F0F
010F0F
030F0F
620F0F
E20F1F
F40F1E
783FF8
ENDCHAR

STARTCHAR afii10059
ENCODING 170
SWIDTH 1000 0
DWIDTH 25 0
BBX 24 18 0 0
BITMAP
FF7F80
3C1E00
3C1E00
3C1E00
3C1E00
3C1E00
3C1E00
3C1E00
3FFFF8
3C1E3E
3C1E1F
3C1E1F
3C1E0F
3C1E0F
3C1E1F
3C1E1F
3C1E3E
FF7FF8
ENDCHAR

STARTCHAR afii10060
ENCODING 171
SWIDTH 823 0
DWIDTH 21 0
BBX 20 18 0 0
BITMAP
FFFC00
C78C00
878400
878400
078000
078000
079F00
07BF80
07C7C0
0783C0
0783C0
0783C0
0783C0
0783C0
0783C0
0783C0
0783C0
1FEFF0
ENDCHAR

STARTCHAR afii10061
ENCODING 172
SWIDTH 756 0
DWIDTH 19 0
BBX 18 22 1 0
BITMAP
01F800
03C000
030000
000000
FF0780
3C0D80
3C1B80
3C1180
3C1000
3C1000
3C2000
3C6000
3FC000
3DF000
3CF000
3C7800
3C7C00
3C3C00
3C3E00
3C1E00
3C0F00
FF0FC0
ENDCHAR

STARTCHAR hyphen
ENCODING 173
SWIDTH 333 0
DWIDTH 8 0
BBX 7 3 1 4
BITMAP
FE
FE
FE
ENDCHAR

STARTCHAR afii10062
ENCODING 174
SWIDTH 760 0
DWIDTH 19 0
BBX 19 23 0 0
BITMAP
010200
030E00
038E00
01F800
000000
FF07E0
3E0180
3E0080
1F0100
0F0100
0F8200
078200
07C400
03C400
01E800
01F800
00F000
00F000
006000
0C2000
0E4000
0EC000
0F8000
ENDCHAR

STARTCHAR afii10145
ENCODING 175
SWIDTH 833 0
DWIDTH 21 0
BBX 19 23 1 -5
BITMAP
FF1FE0
3C0780
3C0780
3C0780
3C0780
3C0780
3C0780
3C0780
3C0780
3C0780
3C0780
3C0780
3C0780
3C0780
3C0780
3C0780
3C0780
FFFFE0
01F000
00E000
004000
004000
004000
ENDCHAR

STARTCHAR afii10017
ENCODING 176
SWIDTH 719 0
DWIDTH 18 0
BBX 18 18 0 0
BITMAP
004000
00C000
00C000
00E000
01E000
01E000
02F000
02F000
02F800
047800
047800
083C00
0FFC00
183E00
101E00
101F00
300F00
FC3FC0
ENDCHAR

STARTCHAR afii10018
ENCODING 177
SWIDTH 668 0
DWIDTH 17 0
BBX 15 18 1 0
BITMAP
FFFC
3C0C
3C04
3C04
3C04
3C00
3C00
3C00
3FF0
3CF8
3C3C
3C1E
3C1E
3C1E
3C1E
3C3E
3C7C
FFF0
ENDCHAR

STARTCHAR afii10019
ENCODING 178
SWIDTH 677 0
DWIDTH 17 0
BBX 15 18 1 0
BITMAP
FFC0
3CF8
3C3C
3C3C
3C3C
3C3C
3C3C
3C50
3FE0
3C78
3C3C
3C1E
3C1E
3C1E
3C1E
3C3C
3C7C
FFF0
ENDCHAR

STARTCHAR afii10020
ENCODING 179
SWIDTH 646 0
DWIDTH 16 0
BBX 16 18 0 0
BITMAP
FFFF
1E03
1E01
1E01
1E01
1E00
1E00
1E00
1E00
1E00
1E00
1E00
1E00
1E00
1E00
1E00
1E00
FFC0
ENDCHAR

STARTCHAR afii10021
ENCODING 180
SWIDTH 719 0
DWIDTH 18 0
BBX 18 23 0 -5
BITMAP
0FFFC0
020E00
020E00
020E00
020E00
020E00
020E00
020E00
020E00
020E00
060E00
040E00
040E00
040E00
080E00
180E00
300E00
FFFFC0
F003C0
C000C0
C00040
800040
800040
ENDCHAR

STARTCHAR afii10022
ENCODING 181
SWIDTH 667 0
DWIDTH 17 0
BBX 15 18 1 0
BITMAP
FFFC
3C0C
3C04
3C04
3C44
3C40
3C40
3CC0
3FC0
3CC0
3C40
3C40
3C42
3C02
3C02
3C06
3C0E
FFFC
ENDCHAR

STARTCHAR afii10024
ENCODING 182
SWIDTH 980 0
DWIDTH 24 0
BBX 24 18 0 0
BITMAP
78FF1E
7C3C3F
E43C27
643C26
043C20
023C40
023C40
033CC0
01FF80
07BDE0
073CE0
0F3CF0
0F3C70
1E3C78
1E3C7C
3C3C3C
7C3C3E
F8FF1F
ENDCHAR

STARTCHAR afii10025
ENCODING 183
SWIDTH 546 0
DWIDTH 14 0
BBX 12 18 1 0
BITMAP
BF00
E3C0
C1E0
81E0
81E0
01E0
03C0
0280
1F00
03C0
01E0
00F0
00F0
00F0
00F0
81F0
63E0
1F80
ENDCHAR

STARTCHAR afii10026
ENCODING 184
SWIDTH 833 0
DWIDTH 21 0
BBX 19 18 1 0
BITMAP
FF1FE0
3C0780
3C0780
3C0780
3C0F80
3C1B80
3C3780
3C2780
3C4780
3CC780
3C8780
3D0780
3F0780
3E0780
3C0780
3C0780
3C0780
FF1FE0
ENDCHAR

STARTCHAR afii10027
ENCODING 185
SWIDTH 833 0
DWIDTH 21 0
BBX 19 23 1 0
BITMAP
020400
070C00
071C00
01F800
000000
FF1FE0
3C0780
3C0780
3C0F80
3C0B80
3C1780
3C3780
3C2780
3C4780
3C4780
3C8780
3D8780
3D0780
3E0780
3E0780
3C0780
3C0780
FF1FE0
ENDCHAR

STARTCHAR afii10028
ENCODING 186
SWIDTH 756 0
DWIDTH 19 0
BBX 18 18 1 0
BITMAP
FF0780
3C0D80
3C1B80
3C1180
3C1000
3C1000
3C2000
3C6000
3FC000
3DF000
3CF000
3C7800
3C7C00
3C3C00
3C3E00
3C1E00
3C0F00
FF0FC0
ENDCHAR

STARTCHAR afii10029
ENCODING 187
SWIDTH 720 0
DWIDTH 18 0
BBX 17 18 0 0
BITMAP
0FFF80
021E00
021E00
021E00
021E00
021E00
021E00
021E00
021E00
021E00
021E00
021E00
021E00
021E00
E41E00
E41E00
EC1E00
787F80
ENDCHAR

STARTCHAR afii10030
ENCODING 188
SWIDTH 990 0
DWIDTH 25 0
BBX 24 18 0 0
BITMAP
FE007F
3E007C
2F00DC
2F00BC
2F80BC
27813C
27C13C
23C23C
23C23C
23E43C
21E43C
21F83C
20F83C
20F83C
20703C
20703C
20203C
F821FF
ENDCHAR

STARTCHAR afii10031
ENCODING 189
SWIDTH 823 0
DWIDTH 21 0
BBX 19 18 1 0
BITMAP
FF1FE0
3C0780
3C0780
3C0780
3C0780
3C0780
3C0780
3C0780
3FFF80
3C0780
3C0780
3C0780
3C0780
3C0780
3C0780
3C0780
3C0780
FF1FE0
ENDCHAR

STARTCHAR afii10032
ENCODING 190
SWIDTH 823 0
DWIDTH 21 0
BBX 18 18 1 0
BITMAP
03F000
0E1C00
3C0F00
380780
780780
F807C0
F003C0
F003C0
F003C0
F003C0
F003C0
F003C0
F807C0
780780
380700
3C0F00
0E1C00
03F000
ENDCHAR

STARTCHAR afii10033
ENCODING 191
SWIDTH 833 0
DWIDTH 21 0
BBX 19 18 1 0
BITMAP
FFFFE0
3C0780
3C0780
3C0780
3C0780
3C0780
3C0780
3C0780
3C0780
3C0780
3C0780
3C0780
3C0780
3C0780
3C0780
3C0780
3C0780
FF1FE0
ENDCHAR

STARTCHAR afii10034
ENCODING 192
SWIDTH 667 0
DWIDTH 17 0
BBX 15 18 1 0
BITMAP
FFF0
3C3C
3C3C
3C1E
3C1E
3C1E
3C1E
3C3C
3C78
3FF0
3C00
3C00
3C00
3C00
3C00
3C00
3C00
FF00
ENDCHAR

STARTCHAR afii10035
ENCODING 193
SWIDTH 719 0
DWIDTH 18 0
BBX 16 18 1 0
BITMAP
03F1
0F0F
1C07
3C03
7801
7801
F000
F000
F000
F000
F000
F800
F800
7800
7C02
3C02
0F0C
03F0
ENDCHAR

STARTCHAR afii10036
ENCODING 194
SWIDTH 667 0
DWIDTH 17 0
BBX 16 18 0 0
BITMAP
FFFF
C3C3
83C1
83C1
83C1
03C0
03C0
03C0
03C0
03C0
03C0
03C0
03C0
03C0
03C0
03C0
03C0
0FF0
ENDCHAR

STARTCHAR afii10037
ENCODING 195
SWIDTH 760 0
DWIDTH 19 0
BBX 19 18 0 0
BITMAP
FF07E0
3E0180
3E0080
1F0100
0F0100
0F8200
078200
07C400
03C400
01E800
01F800
00F000
00F000
006000
0C2000
0E4000
0EC000
0F8000
ENDCHAR

STARTCHAR afii10038
ENCODING 196
SWIDTH 878 0
DWIDTH 22 0
BBX 20 18 1 0
BITMAP
03FC00
00F000
00F000
1FFF80
38F1C0
78F1E0
F0F0F0
F0F0F0
F0F0F0
F0F0F0
F0F0F0
70F0E0
78F1E0
3CF3C0
0FFF00
00F000
00F000
03FC00
ENDCHAR

STARTCHAR afii10039
ENCODING 197
SWIDTH 719 0
DWIDTH 18 0
BBX 18 18 0 0
BITMAP
FF9F80
3E0600
1E0400
1F0800
0F9800
079000
07E000
03E000
01E000
01F000
01F000
037800
027C00
043C00
083E00
181F00
381F00
FE3FC0
ENDCHAR

STARTCHAR afii10040
ENCODING 198
SWIDTH 833 0
DWIDTH 21 0
BBX 19 23 1 -5
BITMAP
FF1FE0
3C0780
3C0780
3C0780
3C0780
3C0780
3C0780
3C0780
3C0780
3C0780
3C0780
3C0780
3C0780
3C0780
3C0780
3C0780
3C0780
FFFFC0
0000E0
000060
000020
000020
000020
ENDCHAR

STARTCHAR afii10041
ENCODING 199
SWIDTH 771 0
DWIDTH 19 0
BBX 18 18 1 0
BITMAP
FF3FC0
3C0F00
3C0F00
3C0F00
3C0F00
3C0F00
3C0F00
3C0F00
3C1F00
1FEF00
0F8F00
000F00
000F00
000F00
000F00
000F00
000F00
003FC0
ENDCHAR

STARTCHAR afii10042
ENCODING 200
SWIDTH 1096 0
DWIDTH 27 0
BBX 27 18 0 0
BITMAP
FF3F8FE0
3C0F0780
3C0F0780
3C0F0780
3C0F0780
3C0F0780
3C0F0780
3C0F0780
3C0F0780
3C0F0780
3C0F0780
3C0F0780
3C0F0780
3C0F0780
3C0F0780
3C0F0780
3C0F0780
FFFFFFE0
ENDCHAR

STARTCHAR afii10043
ENCODING 201
SWIDTH 1096 0
DWIDTH 27 0
BBX 27 23 0 -5
BITMAP
FF3F8FE0
3C0F0780
3C0F0780
3C0F0780
3C0F0780
3C0F0780
3C0F0780
3C0F0780
3C0F0780
3C0F0780
3C0F0780
3C0F0780
3C0F0780
3C0F0780
3C0F0780
3C0F0780
3C0F0780
FFFFFFC0
000001E0
00000060
00000020
00000020
00000020
ENDCHAR

STARTCHAR afii10044
ENCODING 202
SWIDTH 771 0
DWIDTH 19 0
BBX 18 18 0 0
BITMAP
FFE000
C78000
878000
878000
878000
078000
078000
078000
07FE00
079F80
078780
0787C0
0783C0
0783C0
0783C0
0787C0
078F80
1FFE00
ENDCHAR

STARTCHAR afii10045
ENCODING 203
SWIDTH 1000 0
DWIDTH 25 0
BBX 23 18 1 0
BITMAP
FF01FE
3C0078
3C0078
3C0078
3C0078
3C0078
3C0078
3C0078
3FF078
3C7C78
3C3E78
3C1E78
3C1E78
3C1E78
3C1E78
3C3C78
3E7878
FFE1FE
ENDCHAR

STARTCHAR afii10046
ENCODING 204
SWIDTH 667 0
DWIDTH 17 0
BBX 15 18 1 0
BITMAP
FF00
3C00
3C00
3C00
3C00
3C00
3C00
3C00
3FF0
3C7C
3C3E
3C3E
3C1E
3C1E
3C1E
3C3C
3C7C
FFF0
ENDCHAR

STARTCHAR afii10047
ENCODING 205
SWIDTH 698 0
DWIDTH 17 0
BBX 16 18 0 0
BITMAP
4FE0
7078
603C
401E
401E
000F
000F
000F
07FF
000F
000F
000F
001F
001E
801C
403C
3070
0FC0
ENDCHAR

STARTCHAR afii10048
ENCODING 206
SWIDTH 1152 0
DWIDTH 29 0
BBX 27 18 1 0
BITMAP
FF01F800
3C070E00
3C1E0780
3C3C03C0
3C3C03C0
3C7803E0
3C7801E0
3C7801E0
3FF801E0
3C7801E0
3C7801E0
3C7801E0
3C7C03E0
3C3C03C0
3C1C0780
3C0E0700
3C070E00
FF01F800
ENDCHAR

STARTCHAR afii10049
ENCODING 207
SWIDTH 719 0
DWIDTH 18 0
BBX 17 18 0 0
BITMAP
07FF80
1F1E00
1E1E00
3C1E00
3C1E00
3C1E00
3C1E00
1E1E00
0F1E00
07FE00
07DE00
079E00
0F1E00
1F1E00
1E1E00
3C1E00
7C1E00
F8FF80
ENDCHAR

STARTCHAR afii10065
ENCODING 208
SWIDTH 500 0
DWIDTH 13 0
BBX 11 12 1 0
BITMAP
1F00
6780
E380
F380
6380
0D80
3380
7380
E380
F780
FBE0
73C0
ENDCHAR

STARTCHAR afii10066
ENCODING 209
SWIDTH 500 0
DWIDTH 13 0
BBX 12 18 0 0
BITMAP
0FF0
1FE0
3FC0
3000
6000
4000
4F80
B9C0
B0E0
F0E0
F0F0
F0F0
F0F0
F0F0
70E0
70E0
39C0
0F00
ENDCHAR

STARTCHAR afii10067
ENCODING 210
SWIDTH 507 0
DWIDTH 13 0
BBX 11 12 1 0
BITMAP
FF00
73C0
71C0
71C0
73C0
7F00
73C0
71E0
71E0
71E0
73C0
FF80
ENDCHAR

STARTCHAR afii10068
ENCODING 211
SWIDTH 423 0
DWIDTH 11 0
BBX 9 12 1 0
BITMAP
FF80
7080
7080
7000
7000
7000
7000
7000
7000
7000
7000
F800
ENDCHAR

STARTCHAR afii10069
ENCODING 212
SWIDTH 515 0
DWIDTH 13 0
BBX 12 15 0 -3
BITMAP
3FF0
08E0
08E0
08E0
08E0
08E0
08E0
10E0
10E0
10E0
20E0
FFF0
C010
8010
8010
ENDCHAR

STARTCHAR afii10070
ENCODING 213
SWIDTH 437 0
DWIDTH 11 0
BBX 10 12 1 0
BITMAP
1E00
3300
6180
E180
E1C0
FFC0
E000
F000
F040
7880
7F00
1E00
ENDCHAR

STARTCHAR afii10072
ENCODING 214
SWIDTH 719 0
DWIDTH 18 0
BBX 17 12 0 0
BITMAP
73E300
F1C580
E9C780
09C900
05C800
0FF800
1DDC00
3DDE00
39CE00
79CF00
71C700
F3E780
ENDCHAR

STARTCHAR afii10073
ENCODING 215
SWIDTH 417 0
DWIDTH 10 0
BBX 10 12 0 0
BITMAP
7F00
4780
4380
4380
0780
0C00
0780
03C0
03C0
83C0
4780
3F00
ENDCHAR

STARTCHAR afii10074
ENCODING 216
SWIDTH 545 0
DWIDTH 14 0
BBX 12 12 1 0
BITMAP
F9F0
70E0
70E0
71E0
72E0
72E0
74E0
74E0
78E0
70E0
70E0
F9F0
ENDCHAR

STARTCHAR afii10075
ENCODING 217
SWIDTH 545 0
DWIDTH 14 0
BBX 12 17 1 0
BITMAP
2040
30C0
30C0
0F00
0000
F9F0
70E0
70E0
71E0
72E0
72E0
74E0
74E0
78E0
70E0
70E0
F9F0
ENDCHAR

STARTCHAR afii10076
ENCODING 218
SWIDTH 560 0
DWIDTH 14 0
BBX 13 12 1 0
BITMAP
F8F0
70B0
7130
7130
7200
7E00
7780
73C0
73C0
71E0
70E0
F8F8
ENDCHAR

STARTCHAR afii10077
ENCODING 219
SWIDTH 542 0
DWIDTH 14 0
BBX 12 12 0 0
BITMAP
1FF0
08E0
08E0
08E0
08E0
08E0
08E0
08E0
C8E0
E8E0
F0E0
61F0
ENDCHAR

STARTCHAR afii10078
ENCODING 220
SWIDTH 647 0
DWIDTH 16 0
BBX 14 12 1 0
BITMAP
F83C
7878
5858
5C78
5CB8
5CB8
5F38
4F38
4E38
4638
4638
E47C
ENDCHAR

STARTCHAR afii10079
ENCODING 221
SWIDTH 543 0
DWIDTH 14 0
BBX 12 12 1 0
BITMAP
F9F0
70E0
70E0
70E0
70E0
7FE0
70E0
70E0
70E0
70E0
70E0
F9F0
ENDCHAR

STARTCHAR afii10080
ENCODING 222
SWIDTH 500 0
DWIDTH 13 0
BBX 12 12 0 0
BITMAP
0F00
39C0
70E0
70E0
F0F0
F0F0
F0F0
F0F0
70E0
70E0
39C0
0F00
ENDCHAR

STARTCHAR afii10081
ENCODING 223
SWIDTH 549 0
DWIDTH 14 0
BBX 12 12 1 0
BITMAP
FFF0
70E0
70E0
70E0
70E0
70E0
70E0
70E0
70E0
70E0
78E0
F9F0
ENDCHAR

STARTCHAR afii10082
ENCODING 224
SWIDTH 500 0
DWIDTH 13 0
BBX 12 17 0 -5
BITMAP
FBC0
3DE0
38E0
38F0
38F0
38F0
38F0
38F0
38E0
38E0
3CC0
3B80
3800
3800
3800
3800
FE00
ENDCHAR

STARTCHAR afii10083
ENCODING 225
SWIDTH 437 0
DWIDTH 11 0
BBX 10 12 1 0
BITMAP
1F00
3380
63C0
E180
E000
E000
E000
F000
F000
7840
3F80
1E00
ENDCHAR

STARTCHAR afii10084
ENCODING 226
SWIDTH 490 0
DWIDTH 12 0
BBX 11 12 1 0
BITMAP
FFE0
8E20
8E20
0E00
0E00
0E00
0E00
0E00
0E00
0E00
0E00
3F80
ENDCHAR

STARTCHAR afii10085
ENCODING 227
SWIDTH 500 0
DWIDTH 13 0
BBX 12 17 0 -5
BITMAP
FCF0
7860
3C40
3C40
1C40
1E80
0E80
0F00
0F00
0700
0600
0200
0200
6400
7400
7800
3000
ENDCHAR

STARTCHAR afii10086
ENCODING 228
SWIDTH 667 0
DWIDTH 17 0
BBX 15 23 1 -5
BITMAP
0780
0380
0380
0380
0380
0380
3DF8
73DC
F39E
E38E
E38E
E38E
E38E
E38E
E38E
F39E
77DC
3BB8
0380
0380
0380
0380
07C0
ENDCHAR

STARTCHAR afii10087
ENCODING 229
SWIDTH 552 0
DWIDTH 14 0
BBX 14 12 0 0
BITMAP
FE78
3C20
3C40
1EC0
0F80
0F80
0780
07C0
09E0
11F0
30F0
F9FC
ENDCHAR

STARTCHAR afii10088
ENCODING 230
SWIDTH 552 0
DWIDTH 14 0
BBX 13 15 1 -3
BITMAP
F9F0
70E0
70E0
70E0
70E0
70E0
70E0
70E0
70E0
70E0
70E0
FFF8
0018
0008
0008
ENDCHAR

STARTCHAR afii10089
ENCODING 231
SWIDTH 515 0
DWIDTH 13 0
BBX 11 12 1 0
BITMAP
FBE0
71C0
71C0
71C0
71C0
71C0
3EC0
01C0
01C0
01C0
01C0
03E0
ENDCHAR

STARTCHAR afii10090
ENCODING 232
SWIDTH 814 0
DWIDTH 20 0
BBX 19 12 1 0
BITMAP
F9F3E0
70E1C0
70E1C0
70E1C0
70E1C0
70E1C0
70E1C0
70E1C0
70E1C0
70E1C0
70E1C0
FFFFE0
ENDCHAR

STARTCHAR afii10091
ENCODING 233
SWIDTH 816 0
DWIDTH 20 0
BBX 20 15 1 -3
BITMAP
F9F3E0
70E1C0
70E1C0
70E1C0
70E1C0
70E1C0
70E1C0
70E1C0
70E1C0
70E1C0
70E1C0
FFFFF0
000030
000010
000010
ENDCHAR

STARTCHAR afii10092
ENCODING 234
SWIDTH 552 0
DWIDTH 14 0
BBX 13 12 0 0
BITMAP
FE00
9C00
9C00
1C00
1C00
1FC0
1CF0
1C78
1C78
1C78
1CF0
3FC0
ENDCHAR

STARTCHAR afii10093
ENCODING 235
SWIDTH 734 0
DWIDTH 18 0
BBX 16 12 1 0
BITMAP
F81F
700E
700E
700E
700E
7F0E
73CE
71EE
71EE
71EE
73CE
FF1F
ENDCHAR

STARTCHAR afii10094
ENCODING 236
SWIDTH 501 0
DWIDTH 13 0
BBX 11 12 1 0
BITMAP
F800
7000
7000
7000
7000
7F00
73C0
71E0
71E0
71E0
73C0
FF80
ENDCHAR

STARTCHAR afii10095
ENCODING 237
SWIDTH 437 0
DWIDTH 11 0
BBX 10 12 0 0
BITMAP
7E00
4700
4380
43C0
03C0
1FC0
03C0
03C0
0380
8380
4700
3E00
ENDCHAR

STARTCHAR afii10096
ENCODING 238
SWIDTH 771 0
DWIDTH 19 0
BBX 18 12 1 0
BITMAP
FC3C00
70E300
71C380
71C3C0
71C3C0
7FC3C0
71C3C0
71C3C0
71C380
70E380
70E700
FC3C00
ENDCHAR

STARTCHAR afii10097
ENCODING 239
SWIDTH 499 0
DWIDTH 12 0
BBX 11 12 1 0
BITMAP
3FE0
71C0
F1C0
F1C0
F1C0
79C0
1FC0
3DC0
39C0
39C0
79C0
F3E0
ENDCHAR

STARTCHAR afii61352
ENCODING 240
SWIDTH 1052 0
DWIDTH 26 0
BBX 25 18 1 0
BITMAP
3F81E000
0F837000
07C27000
07C26000
05E20000
05F21E00
04F23300
04FA3380
047A7380
043E7380
043E7380
041E3380
041E3300
040E1C00
E4060000
E4060000
F8027F80
70027F80
ENDCHAR

STARTCHAR afii10071
ENCODING 241
SWIDTH 437 0
DWIDTH 11 0
BBX 10 17 1 0
BITMAP
7380
7380
7380
0000
0000
1E00
3300
6180
E180
E1C0
FFC0
E000
F000
F040
7880
7F80
1E00
ENDCHAR

STARTCHAR afii10099
ENCODING 242
SWIDTH 494 0
DWIDTH 12 0
BBX 11 23 1 -5
BITMAP
F000
7000
7000
FF80
7000
7000
7780
79C0
71C0
71E0
71E0
71E0
71E0
71E0
71E0
71E0
71E0
F9C0
01C0
01C0
0180
0300
0600
ENDCHAR

STARTCHAR afii10100
ENCODING 243
SWIDTH 422 0
DWIDTH 11 0
BBX 9 18 1 0
BITMAP
0F00
0C00
1800
1800
0000
0000
FF80
7080
7080
7000
7000
7000
7000
7000
7000
7000
7000
F800
ENDCHAR

STARTCHAR afii10101
ENCODING 244
SWIDTH 437 0
DWIDTH 11 0
BBX 9 12 1 0
BITMAP
1E80
7180
F080
E000
E000
FC00
E000
E000
F000
7080
3880
1F00
ENDCHAR

STARTCHAR afii10102
ENCODING 245
SWIDTH 385 0
DWIDTH 10 0
BBX 9 12 1 0
BITMAP
3D00
E300
C100
E100
FC00
7E00
3F00
0F80
8380
8380
E300
9E00
ENDCHAR

STARTCHAR afii10103
ENCODING 246
SWIDTH 271 0
DWIDTH 7 0
BBX 6 18 0 0
BITMAP
18
3C
3C
18
00
00
F8
38
38
38
38
38
38
38
38
38
38
FC
ENDCHAR

STARTCHAR afii10104
ENCODING 247
SWIDTH 271 0
DWIDTH 7 0
BBX 7 17 0 0
BITMAP
EE
EE
EE
00
00
F8
38
38
38
38
38
38
38
38
38
38
FC
ENDCHAR

STARTCHAR afii10105
ENCODING 248
SWIDTH 271 0
DWIDTH 7 0
BBX 5 23 0 -5
BITMAP
30
78
78
30
00
00
F8
38
38
38
38
38
38
38
38
38
38
38
38
18
98
D0
E0
ENDCHAR

STARTCHAR afii10106
ENCODING 249
SWIDTH 771 0
DWIDTH 19 0
BBX 19 12 0 0
BITMAP
1FF800
087000
087000
087000
087000
087F00
0873C0
0871E0
4871E0
E871E0
F0F3C0
61FF80
ENDCHAR

STARTCHAR afii10107
ENCODING 250
SWIDTH 776 0
DWIDTH 19 0
BBX 18 12 1 0
BITMAP
F9F000
70E000
70E000
70E000
70E000
7FFE00
70E780
70E3C0
70E3C0
70E3C0
70E780
F9FE00
ENDCHAR

STARTCHAR afii10108
ENCODING 251
SWIDTH 499 0
DWIDTH 12 0
BBX 11 18 1 0
BITMAP
F000
7000
7000
FF80
7000
7000
7380
77C0
79C0
71C0
71C0
71C0
71C0
71C0
71C0
71C0
71C0
FBE0
ENDCHAR

STARTCHAR afii10109
ENCODING 252
SWIDTH 559 0
DWIDTH 14 0
BBX 13 18 1 0
BITMAP
0780
0700
0600
0C00
0800
0000
F8F0
70B0
7130
7130
7200
7E00
7780
73C0
73C0
71E0
70E0
F8F8
ENDCHAR

STARTCHAR section
ENCODING 253
SWIDTH 500 0
DWIDTH 13 0
BBX 10 23 1 -5
BITMAP
1F00
3380
6380
6380
7000
7800
3E00
3F00
6F80
C3C0
C1C0
E0C0
E0C0
78C0
7D80
3F00
0F00
0780
2380
7180
7180
3300
1E00
ENDCHAR

STARTCHAR afii10110
ENCODING 254
SWIDTH 500 0
DWIDTH 13 0
BBX 12 23 0 -5
BITMAP
1040
38E0
18C0
0F80
0000
0000
FCF0
7860
3C40
3C40
1C40
1E80
0E80
0F00
0F00
0700
0600
0200
0200
6400
7400
7800
3000
ENDCHAR

STARTCHAR afii10193
ENCODING 255
SWIDTH 536 0
DWIDTH 13 0
BBX 11 15 1 -3
BITMAP
FBE0
71C0
71C0
71C0
71C0
71C0
71C0
71C0
71C0
71C0
71C0
FFE0
0400
0400
0400
ENDCHAR

ENDFONT
