STARTFONT 2.1
FONT -DEC-Terminal-Bold-R-Normal--18-180-75-75-C-110-iso8859-9
SIZE 18 75 75
FONTBOUNDINGBOX 11 20 0 -5

STARTPROPERTIES 24
FOUNDRY "Monotype"
FAMILY_NAME "VT"
WEIGHT_NAME "Bold"
SLANT "R"
SETWIDTH_NAME "Normal"
ADD_STYLE_NAME ""
PIXEL_SIZE 18
POINT_SIZE 180
RESOLUTION_X 75
RESOLUTION_Y 75
SPACING "C"
AVERAGE_WIDTH 110
CHARSET_REGISTRY "iso8859"
CHARSET_ENCODING "9"
FACE_NAME "VT Bold ISO Latin5"
_DEC_DEVICE_FONTNAMES "PS=vt-bold-isolatin5"
COPYRIGHT "Copyright (c) 1993 Monotype Typography Ltd."
CAP_HEIGHT 11
X_HEIGHT 8
WEIGHT 10
QUAD_WIDTH 11
DEFAULT_CHAR 160
FONT_DESCENT 5
FONT_ASCENT 15
ENDPROPERTIES

CHARS 191

STARTCHAR space
ENCODING 32
SWIDTH 568 0
DWIDTH 11 0
BBX 11 20 0 -5
BITMAP
0000
0000
0000
0000
0000
0000
0000
0000
0000
0000
0000
0000
0000
0000
0000
0000
0000
0000
0000
0000
ENDCHAR

STARTCHAR exclam
ENCODING 33
SWIDTH 568 0
DWIDTH 11 0
BBX 11 20 0 -5
BITMAP
0000
0000
0000
0000
0E00
0E00
0E00
0E00
0E00
0E00
0E00
0000
0E00
1F00
0E00
0000
0000
0000
0000
0000
ENDCHAR

STARTCHAR quotedbl
ENCODING 34
SWIDTH 568 0
DWIDTH 11 0
BBX 11 20 0 -5
BITMAP
0000
0000
1980
1980
1980
1980
1980
1980
0000
0000
0000
0000
0000
0000
0000
0000
0000
0000
0000
0000
ENDCHAR

STARTCHAR numbersign
ENCODING 35
SWIDTH 568 0
DWIDTH 11 0
BBX 11 20 0 -5
BITMAP
0000
0000
0000
0000
39C0
39C0
39C0
39C0
FFE0
FFE0
7380
7380
FFE0
FFE0
7380
7380
7380
7380
0000
0000
ENDCHAR

STARTCHAR dollar
ENCODING 36
SWIDTH 568 0
DWIDTH 11 0
BBX 11 20 0 -5
BITMAP
0000
0000
0600
0600
1EC0
3FC0
71C0
70C0
7C00
3F00
07C0
61C0
71C0
7FC0
6F80
0C00
0C00
0C00
0000
0000
ENDCHAR

STARTCHAR percent
ENCODING 37
SWIDTH 568 0
DWIDTH 11 0
BBX 11 20 0 -5
BITMAP
0000
0000
0000
0000
3C00
7E00
6600
7E60
3DC0
0600
3BC0
67E0
0660
07E0
03C0
0000
0000
0000
0000
0000
ENDCHAR

STARTCHAR ampersand
ENCODING 38
SWIDTH 568 0
DWIDTH 11 0
BBX 11 20 0 -5
BITMAP
0000
0000
0000
0000
1E80
3F80
3980
3800
1CC0
3EC0
7780
7780
7380
7FC0
3EC0
0000
0000
0000
0000
0000
ENDCHAR

STARTCHAR quoteright
ENCODING 39
SWIDTH 568 0
DWIDTH 11 0
BBX 11 20 0 -5
BITMAP
0000
0000
0000
0F00
0E00
0C00
1C00
1800
0000
0000
0000
0000
0000
0000
0000
0000
0000
0000
0000
0000
ENDCHAR

STARTCHAR parenleft
ENCODING 40
SWIDTH 568 0
DWIDTH 11 0
BBX 11 20 0 -5
BITMAP
0000
0000
0000
0180
0300
0700
0E00
0E00
1C00
1C00
1C00
1C00
1C00
1C00
0E00
0E00
0700
0300
0180
0000
ENDCHAR

STARTCHAR parenright
ENCODING 41
SWIDTH 568 0
DWIDTH 11 0
BBX 11 20 0 -5
BITMAP
0000
0000
0000
1800
0C00
0E00
0700
0700
0380
0380
0380
0380
0380
0380
0700
0700
0E00
0C00
1800
0000
ENDCHAR

STARTCHAR asterisk
ENCODING 42
SWIDTH 568 0
DWIDTH 11 0
BBX 11 20 0 -5
BITMAP
0000
0000
0000
0000
0000
0000
0E00
0E00
6EC0
7FC0
1F00
3B80
3180
0000
0000
0000
0000
0000
0000
0000
ENDCHAR

STARTCHAR plus
ENCODING 43
SWIDTH 568 0
DWIDTH 11 0
BBX 11 20 0 -5
BITMAP
0000
0000
0000
0000
0000
0E00
0E00
0E00
0E00
7FC0
7FC0
0E00
0E00
0E00
0E00
0000
0000
0000
0000
0000
ENDCHAR

STARTCHAR comma
ENCODING 44
SWIDTH 568 0
DWIDTH 11 0
BBX 11 20 0 -5
BITMAP
0000
0000
0000
0000
0000
0000
0000
0000
0000
0000
0000
0000
0F00
0E00
0E00
1C00
1C00
1800
0000
0000
ENDCHAR

STARTCHAR minus
ENCODING 45
SWIDTH 568 0
DWIDTH 11 0
BBX 11 20 0 -5
BITMAP
0000
0000
0000
0000
0000
0000
0000
0000
0000
0000
7FC0
7FC0
0000
0000
0000
0000
0000
0000
0000
0000
ENDCHAR

STARTCHAR period
ENCODING 46
SWIDTH 568 0
DWIDTH 11 0
BBX 11 20 0 -5
BITMAP
0000
0000
0000
0000
0000
0000
0000
0000
0000
0000
0000
0600
0F00
0F00
0600
0000
0000
0000
0000
0000
ENDCHAR

STARTCHAR slash
ENCODING 47
SWIDTH 568 0
DWIDTH 11 0
BBX 11 20 0 -5
BITMAP
0000
0000
0000
00C0
01C0
0180
0380
0300
0700
0600
0600
0E00
0C00
1C00
1800
3800
3000
0000
0000
0000
ENDCHAR

STARTCHAR zero
ENCODING 48
SWIDTH 568 0
DWIDTH 11 0
BBX 11 20 0 -5
BITMAP
0000
0000
0000
0000
0F00
3FC0
39C0
70E0
70E0
70E0
70E0
70E0
39C0
3FC0
0F00
0000
0000
0000
0000
0000
ENDCHAR

STARTCHAR one
ENCODING 49
SWIDTH 568 0
DWIDTH 11 0
BBX 11 20 0 -5
BITMAP
0000
0000
0000
0000
0E00
7E00
7E00
0E00
0E00
0E00
0E00
0E00
0E00
7FC0
7FC0
0000
0000
0000
0000
0000
ENDCHAR

STARTCHAR two
ENCODING 50
SWIDTH 568 0
DWIDTH 11 0
BBX 11 20 0 -5
BITMAP
0000
0000
0000
0000
1F00
7FC0
71C0
61C0
01C0
0380
0F00
1E00
38C0
7FC0
7FC0
0000
0000
0000
0000
0000
ENDCHAR

STARTCHAR three
ENCODING 51
SWIDTH 568 0
DWIDTH 11 0
BBX 11 20 0 -5
BITMAP
0000
0000
0000
0000
1F00
7FC0
61C0
01C0
0F80
0F80
01C0
01C0
61C0
7FC0
3F00
0000
0000
0000
0000
0000
ENDCHAR

STARTCHAR four
ENCODING 52
SWIDTH 568 0
DWIDTH 11 0
BBX 11 20 0 -5
BITMAP
0000
0000
0000
0000
0F80
0F80
1F80
1B80
3380
7380
7FC0
7FC0
0380
0FC0
0FC0
0000
0000
0000
0000
0000
ENDCHAR

STARTCHAR five
ENCODING 53
SWIDTH 568 0
DWIDTH 11 0
BBX 11 20 0 -5
BITMAP
0000
0000
0000
0000
7FC0
7FC0
7000
7000
7F80
7FC0
61C0
01C0
61C0
7FC0
3F80
0000
0000
0000
0000
0000
ENDCHAR

STARTCHAR six
ENCODING 54
SWIDTH 568 0
DWIDTH 11 0
BBX 11 20 0 -5
BITMAP
0000
0000
0000
0000
0FC0
3FC0
3800
7000
7780
7FC0
79C0
71C0
79C0
3F80
1F00
0000
0000
0000
0000
0000
ENDCHAR

STARTCHAR seven
ENCODING 55
SWIDTH 568 0
DWIDTH 11 0
BBX 11 20 0 -5
BITMAP
0000
0000
0000
0000
7FC0
7FC0
61C0
0380
0380
0700
0700
0E00
0E00
1C00
1C00
0000
0000
0000
0000
0000
ENDCHAR

STARTCHAR eight
ENCODING 56
SWIDTH 568 0
DWIDTH 11 0
BBX 11 20 0 -5
BITMAP
0000
0000
0000
0000
1F00
3F80
71C0
71C0
3F80
3F80
71C0
71C0
71C0
3F80
1F00
0000
0000
0000
0000
0000
ENDCHAR

STARTCHAR nine
ENCODING 57
SWIDTH 568 0
DWIDTH 11 0
BBX 11 20 0 -5
BITMAP
0000
0000
0000
0000
1F00
3F80
73C0
71C0
73C0
7FC0
3DC0
01C0
0380
7F80
7E00
0000
0000
0000
0000
0000
ENDCHAR

STARTCHAR colon
ENCODING 58
SWIDTH 568 0
DWIDTH 11 0
BBX 11 20 0 -5
BITMAP
0000
0000
0000
0000
0000
0000
0600
0F00
0F00
0600
0000
0600
0F00
0F00
0600
0000
0000
0000
0000
0000
ENDCHAR

STARTCHAR semicolon
ENCODING 59
SWIDTH 568 0
DWIDTH 11 0
BBX 11 20 0 -5
BITMAP
0000
0000
0000
0000
0000
0000
0300
0780
0780
0300
0000
0000
0F00
0E00
0E00
1C00
1C00
1800
0000
0000
ENDCHAR

STARTCHAR less
ENCODING 60
SWIDTH 568 0
DWIDTH 11 0
BBX 11 20 0 -5
BITMAP
0000
0000
0000
0000
0000
00C0
03C0
0F80
3E00
7800
3E00
0F80
03C0
00C0
0000
0000
0000
0000
0000
0000
ENDCHAR

STARTCHAR equal
ENCODING 61
SWIDTH 568 0
DWIDTH 11 0
BBX 11 20 0 -5
BITMAP
0000
0000
0000
0000
0000
0000
0000
7FC0
7FC0
0000
0000
7FC0
7FC0
0000
0000
0000
0000
0000
0000
0000
ENDCHAR

STARTCHAR greater
ENCODING 62
SWIDTH 568 0
DWIDTH 11 0
BBX 11 20 0 -5
BITMAP
0000
0000
0000
0000
0000
6000
7800
3E00
0F80
03C0
0F80
3E00
7800
6000
0000
0000
0000
0000
0000
0000
ENDCHAR

STARTCHAR question
ENCODING 63
SWIDTH 568 0
DWIDTH 11 0
BBX 11 20 0 -5
BITMAP
0000
0000
0000
0000
1F80
3FC0
39C0
01C0
0780
0F00
0E00
0000
0E00
1F00
0E00
0000
0000
0000
0000
0000
ENDCHAR

STARTCHAR at
ENCODING 64
SWIDTH 568 0
DWIDTH 11 0
BBX 11 20 0 -5
BITMAP
0000
0000
0000
0F00
3F80
31C0
70C0
67C0
6FC0
6CC0
6CC0
6FE0
6760
7000
3800
3F80
0F80
0000
0000
0000
ENDCHAR

STARTCHAR A
ENCODING 65
SWIDTH 568 0
DWIDTH 11 0
BBX 11 20 0 -5
BITMAP
0000
0000
0000
0000
0F00
0F00
0F00
1F80
1980
1980
3FC0
3FC0
30C0
79E0
79E0
0000
0000
0000
0000
0000
ENDCHAR

STARTCHAR B
ENCODING 66
SWIDTH 568 0
DWIDTH 11 0
BBX 11 20 0 -5
BITMAP
0000
0000
0000
0000
7F80
7FC0
39C0
39C0
3F80
3FC0
38E0
38E0
38E0
7FC0
7F80
0000
0000
0000
0000
0000
ENDCHAR

STARTCHAR C
ENCODING 67
SWIDTH 568 0
DWIDTH 11 0
BBX 11 20 0 -5
BITMAP
0000
0000
0000
0000
0EC0
3FC0
39C0
70C0
7000
7000
7000
7000
38E0
3FE0
0F80
0000
0000
0000
0000
0000
ENDCHAR

STARTCHAR D
ENCODING 68
SWIDTH 568 0
DWIDTH 11 0
BBX 11 20 0 -5
BITMAP
0000
0000
0000
0000
7F00
7FC0
39C0
38E0
38E0
38E0
38E0
38E0
39C0
7FC0
7F00
0000
0000
0000
0000
0000
ENDCHAR

STARTCHAR E
ENCODING 69
SWIDTH 568 0
DWIDTH 11 0
BBX 11 20 0 -5
BITMAP
0000
0000
0000
0000
7FE0
7FE0
3860
3B60
3F00
3F00
3B00
3860
3860
7FE0
7FE0
0000
0000
0000
0000
0000
ENDCHAR

STARTCHAR F
ENCODING 70
SWIDTH 568 0
DWIDTH 11 0
BBX 11 20 0 -5
BITMAP
0000
0000
0000
0000
7FE0
7FE0
3860
3B60
3F00
3F00
3B00
3800
3800
7C00
7C00
0000
0000
0000
0000
0000
ENDCHAR

STARTCHAR G
ENCODING 71
SWIDTH 568 0
DWIDTH 11 0
BBX 11 20 0 -5
BITMAP
0000
0000
0000
0000
0F60
3FE0
38E0
7060
7000
73E0
73E0
70E0
38E0
3FE0
0F80
0000
0000
0000
0000
0000
ENDCHAR

STARTCHAR H
ENCODING 72
SWIDTH 568 0
DWIDTH 11 0
BBX 11 20 0 -5
BITMAP
0000
0000
0000
0000
79E0
79E0
39C0
39C0
3FC0
3FC0
39C0
39C0
39C0
79E0
79E0
0000
0000
0000
0000
0000
ENDCHAR

STARTCHAR I
ENCODING 73
SWIDTH 568 0
DWIDTH 11 0
BBX 11 20 0 -5
BITMAP
0000
0000
0000
0000
7FC0
7FC0
0E00
0E00
0E00
0E00
0E00
0E00
0E00
7FC0
7FC0
0000
0000
0000
0000
0000
ENDCHAR

STARTCHAR J
ENCODING 74
SWIDTH 568 0
DWIDTH 11 0
BBX 11 20 0 -5
BITMAP
0000
0000
0000
0000
0FE0
0FE0
0380
0380
0380
0380
6380
6380
7380
7F80
3F00
0000
0000
0000
0000
0000
ENDCHAR

STARTCHAR K
ENCODING 75
SWIDTH 568 0
DWIDTH 11 0
BBX 11 20 0 -5
BITMAP
0000
0000
0000
0000
79E0
79E0
3B80
3B00
3E00
3F00
3F00
3B80
3B80
79E0
79E0
0000
0000
0000
0000
0000
ENDCHAR

STARTCHAR L
ENCODING 76
SWIDTH 568 0
DWIDTH 11 0
BBX 11 20 0 -5
BITMAP
0000
0000
0000
0000
7C00
7C00
3800
3800
3800
3800
38C0
38C0
38C0
7FC0
7FC0
0000
0000
0000
0000
0000
ENDCHAR

STARTCHAR M
ENCODING 77
SWIDTH 568 0
DWIDTH 11 0
BBX 11 20 0 -5
BITMAP
0000
0000
0000
0000
70E0
70E0
39C0
39C0
3FC0
3FC0
36C0
36C0
30C0
70E0
70E0
0000
0000
0000
0000
0000
ENDCHAR

STARTCHAR N
ENCODING 78
SWIDTH 568 0
DWIDTH 11 0
BBX 11 20 0 -5
BITMAP
0000
0000
0000
0000
79E0
79E0
39C0
3DC0
3DC0
3FC0
3BC0
3BC0
39C0
79E0
79E0
0000
0000
0000
0000
0000
ENDCHAR

STARTCHAR O
ENCODING 79
SWIDTH 568 0
DWIDTH 11 0
BBX 11 20 0 -5
BITMAP
0000
0000
0000
0000
0F00
3FC0
39C0
70E0
70E0
70E0
70E0
70E0
39C0
3FC0
0F00
0000
0000
0000
0000
0000
ENDCHAR

STARTCHAR P
ENCODING 80
SWIDTH 568 0
DWIDTH 11 0
BBX 11 20 0 -5
BITMAP
0000
0000
0000
0000
7F80
7FC0
39C0
39C0
39C0
3FC0
3F80
3800
3800
7C00
7C00
0000
0000
0000
0000
0000
ENDCHAR

STARTCHAR Q
ENCODING 81
SWIDTH 568 0
DWIDTH 11 0
BBX 11 20 0 -5
BITMAP
0000
0000
0000
0000
0F00
3FC0
39C0
70E0
70E0
70E0
70E0
70E0
39C0
3FC0
0F00
0C00
1FE0
1BC0
0000
0000
ENDCHAR

STARTCHAR R
ENCODING 82
SWIDTH 568 0
DWIDTH 11 0
BBX 11 20 0 -5
BITMAP
0000
0000
0000
0000
7F80
7FC0
39C0
39C0
3F80
3F00
3B80
3B80
3980
79E0
79E0
0000
0000
0000
0000
0000
ENDCHAR

STARTCHAR S
ENCODING 83
SWIDTH 568 0
DWIDTH 11 0
BBX 11 20 0 -5
BITMAP
0000
0000
0000
0000
0EC0
3FC0
39C0
38C0
3E00
1F80
03C0
31C0
39C0
3FC0
3780
0000
0000
0000
0000
0000
ENDCHAR

STARTCHAR T
ENCODING 84
SWIDTH 568 0
DWIDTH 11 0
BBX 11 20 0 -5
BITMAP
0000
0000
0000
0000
FFE0
FFE0
CE60
CE60
CE60
0E00
0E00
0E00
0E00
3F80
3F80
0000
0000
0000
0000
0000
ENDCHAR

STARTCHAR U
ENCODING 85
SWIDTH 568 0
DWIDTH 11 0
BBX 11 20 0 -5
BITMAP
0000
0000
0000
0000
79E0
79E0
39C0
39C0
39C0
39C0
39C0
39C0
39C0
3FC0
1F80
0000
0000
0000
0000
0000
ENDCHAR

STARTCHAR V
ENCODING 86
SWIDTH 568 0
DWIDTH 11 0
BBX 11 20 0 -5
BITMAP
0000
0000
0000
0000
79E0
79E0
39C0
39C0
39C0
1980
1980
1F80
0F00
0F00
0600
0000
0000
0000
0000
0000
ENDCHAR

STARTCHAR W
ENCODING 87
SWIDTH 568 0
DWIDTH 11 0
BBX 11 20 0 -5
BITMAP
0000
0000
0000
0000
79E0
79E0
30C0
30C0
36C0
36C0
3FC0
3FC0
39C0
1980
1980
0000
0000
0000
0000
0000
ENDCHAR

STARTCHAR X
ENCODING 88
SWIDTH 568 0
DWIDTH 11 0
BBX 11 20 0 -5
BITMAP
0000
0000
0000
0000
79E0
79E0
39C0
1F80
0F00
0F00
0F00
1F80
39C0
79E0
79E0
0000
0000
0000
0000
0000
ENDCHAR

STARTCHAR Y
ENCODING 89
SWIDTH 568 0
DWIDTH 11 0
BBX 11 20 0 -5
BITMAP
0000
0000
0000
0000
71C0
71C0
3B80
3B80
1F00
1F00
0E00
0E00
0E00
3F80
3F80
0000
0000
0000
0000
0000
ENDCHAR

STARTCHAR Z
ENCODING 90
SWIDTH 568 0
DWIDTH 11 0
BBX 11 20 0 -5
BITMAP
0000
0000
0000
0000
3FC0
3FC0
3380
3380
0700
0700
0E00
0EC0
1CC0
1FC0
3FC0
0000
0000
0000
0000
0000
ENDCHAR

STARTCHAR bracketleft
ENCODING 91
SWIDTH 568 0
DWIDTH 11 0
BBX 11 20 0 -5
BITMAP
0000
0000
1F00
1F00
1C00
1C00
1C00
1C00
1C00
1C00
1C00
1C00
1C00
1C00
1C00
1F00
1F00
0000
0000
0000
ENDCHAR

STARTCHAR backslash
ENCODING 92
SWIDTH 568 0
DWIDTH 11 0
BBX 11 20 0 -5
BITMAP
0000
0000
0000
3000
3800
1800
1C00
0C00
0E00
0600
0600
0700
0300
0380
0180
01C0
00C0
0000
0000
0000
ENDCHAR

STARTCHAR bracketright
ENCODING 93
SWIDTH 568 0
DWIDTH 11 0
BBX 11 20 0 -5
BITMAP
0000
0000
1F00
1F00
0700
0700
0700
0700
0700
0700
0700
0700
0700
0700
0700
1F00
1F00
0000
0000
0000
ENDCHAR

STARTCHAR asciicircum
ENCODING 94
SWIDTH 568 0
DWIDTH 11 0
BBX 11 20 0 -5
BITMAP
0000
0000
0600
0F00
1F80
30C0
0000
0000
0000
0000
0000
0000
0000
0000
0000
0000
0000
0000
0000
0000
ENDCHAR

STARTCHAR underscore
ENCODING 95
SWIDTH 568 0
DWIDTH 11 0
BBX 11 20 0 -5
BITMAP
0000
0000
0000
0000
0000
0000
0000
0000
0000
0000
0000
0000
0000
7FE0
7FE0
0000
0000
0000
0000
0000
ENDCHAR

STARTCHAR quoteleft
ENCODING 96
SWIDTH 568 0
DWIDTH 11 0
BBX 11 20 0 -5
BITMAP
0000
0000
1800
1C00
0E00
0600
0300
0000
0000
0000
0000
0000
0000
0000
0000
0000
0000
0000
0000
0000
ENDCHAR

STARTCHAR a
ENCODING 97
SWIDTH 568 0
DWIDTH 11 0
BBX 11 20 0 -5
BITMAP
0000
0000
0000
0000
0000
0000
1F80
3FC0
01C0
1FC0
3FC0
71C0
73C0
7FE0
3DE0
0000
0000
0000
0000
0000
ENDCHAR

STARTCHAR b
ENCODING 98
SWIDTH 568 0
DWIDTH 11 0
BBX 11 20 0 -5
BITMAP
0000
0000
0000
7800
7800
3800
3B80
3FC0
3DE0
38E0
38E0
38E0
3DE0
7FC0
7B80
0000
0000
0000
0000
0000
ENDCHAR

STARTCHAR c
ENCODING 99
SWIDTH 568 0
DWIDTH 11 0
BBX 11 20 0 -5
BITMAP
0000
0000
0000
0000
0000
0000
1F60
3FE0
79E0
70E0
7000
7000
78E0
3FE0
1F80
0000
0000
0000
0000
0000
ENDCHAR

STARTCHAR d
ENCODING 100
SWIDTH 568 0
DWIDTH 11 0
BBX 11 20 0 -5
BITMAP
0000
0000
0000
03C0
03C0
01C0
1DC0
3FC0
7BC0
71C0
71C0
71C0
7BC0
3FE0
1DE0
0000
0000
0000
0000
0000
ENDCHAR

STARTCHAR e
ENCODING 101
SWIDTH 568 0
DWIDTH 11 0
BBX 11 20 0 -5
BITMAP
0000
0000
0000
0000
0000
0000
1F80
3FC0
70E0
7FE0
7FE0
7000
78E0
3FE0
1F80
0000
0000
0000
0000
0000
ENDCHAR

STARTCHAR f
ENCODING 102
SWIDTH 568 0
DWIDTH 11 0
BBX 11 20 0 -5
BITMAP
0000
0000
0000
0FC0
1FC0
1C00
7F80
7F80
1C00
1C00
1C00
1C00
1C00
7F80
7F80
0000
0000
0000
0000
0000
ENDCHAR

STARTCHAR g
ENCODING 103
SWIDTH 568 0
DWIDTH 11 0
BBX 11 20 0 -5
BITMAP
0000
0000
0000
0000
0000
0000
1DE0
3FE0
7BC0
71C0
71C0
71C0
7BC0
3FC0
1DC0
01C0
01C0
3F80
3F00
0000
ENDCHAR

STARTCHAR h
ENCODING 104
SWIDTH 568 0
DWIDTH 11 0
BBX 11 20 0 -5
BITMAP
0000
0000
0000
7800
7800
3800
3B80
3FC0
3DC0
39C0
39C0
39C0
39C0
79E0
79E0
0000
0000
0000
0000
0000
ENDCHAR

STARTCHAR i
ENCODING 105
SWIDTH 568 0
DWIDTH 11 0
BBX 11 20 0 -5
BITMAP
0000
0000
0E00
0E00
0E00
0000
3E00
3E00
0E00
0E00
0E00
0E00
0E00
7FC0
7FC0
0000
0000
0000
0000
0000
ENDCHAR

STARTCHAR j
ENCODING 106
SWIDTH 568 0
DWIDTH 11 0
BBX 11 20 0 -5
BITMAP
0000
0000
0380
0380
0380
0000
1F80
1F80
0380
0380
0380
0380
0380
0380
0380
0380
0380
3F00
3E00
0000
ENDCHAR

STARTCHAR k
ENCODING 107
SWIDTH 568 0
DWIDTH 11 0
BBX 11 20 0 -5
BITMAP
0000
0000
0000
7800
7800
3800
39E0
39E0
3B80
3F00
3E00
3B00
3B80
79E0
79E0
0000
0000
0000
0000
0000
ENDCHAR

STARTCHAR l
ENCODING 108
SWIDTH 568 0
DWIDTH 11 0
BBX 11 20 0 -5
BITMAP
0000
0000
0000
3E00
3E00
0E00
0E00
0E00
0E00
0E00
0E00
0E00
0E00
7FC0
7FC0
0000
0000
0000
0000
0000
ENDCHAR

STARTCHAR m
ENCODING 109
SWIDTH 568 0
DWIDTH 11 0
BBX 11 20 0 -5
BITMAP
0000
0000
0000
0000
0000
0000
6EC0
7FE0
76E0
76E0
76E0
76E0
76E0
76E0
70E0
0000
0000
0000
0000
0000
ENDCHAR

STARTCHAR n
ENCODING 110
SWIDTH 568 0
DWIDTH 11 0
BBX 11 20 0 -5
BITMAP
0000
0000
0000
0000
0000
0000
7B80
7FC0
3DC0
39C0
39C0
39C0
39C0
79E0
79E0
0000
0000
0000
0000
0000
ENDCHAR

STARTCHAR o
ENCODING 111
SWIDTH 568 0
DWIDTH 11 0
BBX 11 20 0 -5
BITMAP
0000
0000
0000
0000
0000
0000
1F80
3FC0
79E0
70E0
70E0
70E0
79E0
3FC0
1F80
0000
0000
0000
0000
0000
ENDCHAR

STARTCHAR p
ENCODING 112
SWIDTH 568 0
DWIDTH 11 0
BBX 11 20 0 -5
BITMAP
0000
0000
0000
0000
0000
0000
7B80
7FC0
3DE0
38E0
38E0
38E0
39E0
3FC0
3B80
3800
3800
7E00
7E00
0000
ENDCHAR

STARTCHAR q
ENCODING 113
SWIDTH 568 0
DWIDTH 11 0
BBX 11 20 0 -5
BITMAP
0000
0000
0000
0000
0000
0000
1DE0
3FE0
7BC0
71C0
71C0
71C0
7BC0
3FC0
1DC0
01C0
01C0
07E0
07E0
0000
ENDCHAR

STARTCHAR r
ENCODING 114
SWIDTH 568 0
DWIDTH 11 0
BBX 11 20 0 -5
BITMAP
0000
0000
0000
0000
0000
0000
7BC0
7FE0
1CC0
1C00
1C00
1C00
1C00
7F80
7F80
0000
0000
0000
0000
0000
ENDCHAR

STARTCHAR s
ENCODING 115
SWIDTH 568 0
DWIDTH 11 0
BBX 11 20 0 -5
BITMAP
0000
0000
0000
0000
0000
0000
1EC0
3FC0
38C0
3C00
1F80
03C0
31C0
3FC0
3780
0000
0000
0000
0000
0000
ENDCHAR

STARTCHAR t
ENCODING 116
SWIDTH 568 0
DWIDTH 11 0
BBX 11 20 0 -5
BITMAP
0000
0000
0000
1C00
1C00
1C00
7FC0
7FC0
1C00
1C00
1C00
1C00
1C60
1FE0
0F80
0000
0000
0000
0000
0000
ENDCHAR

STARTCHAR u
ENCODING 117
SWIDTH 568 0
DWIDTH 11 0
BBX 11 20 0 -5
BITMAP
0000
0000
0000
0000
0000
0000
7BC0
7BC0
39C0
39C0
39C0
39C0
3BC0
3FE0
1DE0
0000
0000
0000
0000
0000
ENDCHAR

STARTCHAR v
ENCODING 118
SWIDTH 568 0
DWIDTH 11 0
BBX 11 20 0 -5
BITMAP
0000
0000
0000
0000
0000
0000
79E0
79E0
39C0
39C0
1980
1F80
0F00
0F00
0600
0000
0000
0000
0000
0000
ENDCHAR

STARTCHAR w
ENCODING 119
SWIDTH 568 0
DWIDTH 11 0
BBX 11 20 0 -5
BITMAP
0000
0000
0000
0000
0000
0000
70E0
70E0
36C0
36C0
36C0
3FC0
3FC0
1980
1980
0000
0000
0000
0000
0000
ENDCHAR

STARTCHAR x
ENCODING 120
SWIDTH 568 0
DWIDTH 11 0
BBX 11 20 0 -5
BITMAP
0000
0000
0000
0000
0000
0000
79E0
79E0
1980
1F80
0F00
0F00
1980
79E0
79E0
0000
0000
0000
0000
0000
ENDCHAR

STARTCHAR y
ENCODING 121
SWIDTH 568 0
DWIDTH 11 0
BBX 11 20 0 -5
BITMAP
0000
0000
0000
0000
0000
0000
79E0
79E0
39C0
39C0
1980
1F80
0F00
0F00
0600
0E00
0C00
3F00
3F00
0000
ENDCHAR

STARTCHAR z
ENCODING 122
SWIDTH 568 0
DWIDTH 11 0
BBX 11 20 0 -5
BITMAP
0000
0000
0000
0000
0000
0000
3FC0
3FC0
3380
3700
0600
0EC0
1CC0
3FC0
3FC0
0000
0000
0000
0000
0000
ENDCHAR

STARTCHAR braceleft
ENCODING 123
SWIDTH 568 0
DWIDTH 11 0
BBX 11 20 0 -5
BITMAP
0000
0000
0780
0F80
0E00
0E00
0E00
0E00
1C00
3800
1C00
0E00
0E00
0E00
0E00
0E00
0F80
0780
0000
0000
ENDCHAR

STARTCHAR bar
ENCODING 124
SWIDTH 568 0
DWIDTH 11 0
BBX 11 20 0 -5
BITMAP
0000
0E00
0E00
0E00
0E00
0E00
0E00
0E00
0E00
0E00
0E00
0E00
0E00
0E00
0E00
0E00
0E00
0E00
0E00
0000
ENDCHAR

STARTCHAR braceright
ENCODING 125
SWIDTH 568 0
DWIDTH 11 0
BBX 11 20 0 -5
BITMAP
0000
0000
3C00
3E00
0E00
0E00
0E00
0E00
0700
0380
0700
0E00
0E00
0E00
0E00
0E00
3E00
3C00
0000
0000
ENDCHAR

STARTCHAR asciitilde
ENCODING 126
SWIDTH 568 0
DWIDTH 11 0
BBX 11 20 0 -5
BITMAP
0000
0000
3C20
7FE0
43C0
0000
0000
0000
0000
0000
0000
0000
0000
0000
0000
0000
0000
0000
0000
0000
ENDCHAR

STARTCHAR space
ENCODING 160
SWIDTH 568 0
DWIDTH 11 0
BBX 11 20 0 -5
BITMAP
0000
0000
0000
0000
0000
0000
0000
0000
0000
0000
0000
0000
0000
0000
0000
0000
0000
0000
0000
0000
ENDCHAR

STARTCHAR exclamdown
ENCODING 161
SWIDTH 568 0
DWIDTH 11 0
BBX 11 20 0 -5
BITMAP
0000
0000
0000
0000
0E00
1F00
0E00
0000
0E00
0E00
0E00
0E00
0E00
0E00
0E00
0000
0000
0000
0000
0000
ENDCHAR

STARTCHAR cent
ENCODING 162
SWIDTH 568 0
DWIDTH 11 0
BBX 11 20 0 -5
BITMAP
0000
0000
0000
0000
0600
0600
1FC0
3FC0
78C0
7000
7000
78C0
3FC0
1F80
0600
0600
0000
0000
0000
0000
ENDCHAR

STARTCHAR sterling
ENCODING 163
SWIDTH 568 0
DWIDTH 11 0
BBX 11 20 0 -5
BITMAP
0000
0000
0000
0000
0F80
1FC0
1CC0
1C00
7F80
7F80
0C00
0E00
0E00
3FE0
3BC0
0000
0000
0000
0000
0000
ENDCHAR

STARTCHAR currency
ENCODING 164
SWIDTH 568 0
DWIDTH 11 0
BBX 11 20 0 -5
BITMAP
0000
0000
0000
0000
0000
6060
36C0
1F80
39C0
39C0
39C0
1F80
36C0
6060
0000
0000
0000
0000
0000
0000
ENDCHAR

STARTCHAR yen
ENCODING 165
SWIDTH 568 0
DWIDTH 11 0
BBX 11 20 0 -5
BITMAP
0000
0000
0000
0000
FBE0
FBE0
71C0
FBE0
FBE0
1B00
FFE0
FFE0
0E00
3F80
3F80
0000
0000
0000
0000
0000
ENDCHAR

STARTCHAR brokenbar
ENCODING 166
SWIDTH 568 0
DWIDTH 11 0
BBX 11 20 0 -5
BITMAP
0000
0000
0E00
0E00
0E00
0E00
0E00
0E00
0E00
0000
0000
0000
0E00
0E00
0E00
0E00
0E00
0E00
0E00
0000
ENDCHAR

STARTCHAR section
ENCODING 167
SWIDTH 568 0
DWIDTH 11 0
BBX 11 20 0 -5
BITMAP
0000
0000
0000
0000
0FC0
1FC0
38C0
7C00
6E00
7780
79C0
1EE0
0F60
03E0
31C0
3FC0
3F00
0000
0000
0000
ENDCHAR

STARTCHAR dieresis
ENCODING 168
SWIDTH 568 0
DWIDTH 11 0
BBX 11 20 0 -5
BITMAP
0000
30C0
79E0
30C0
0000
0000
0000
0000
0000
0000
0000
0000
0000
0000
0000
0000
0000
0000
0000
0000
ENDCHAR

STARTCHAR copyright
ENCODING 169
SWIDTH 568 0
DWIDTH 11 0
BBX 11 20 0 -5
BITMAP
0000
0000
0000
1F00
7FC0
60C0
CE60
DE60
D860
D860
DE60
CE60
60C0
7FC0
1F00
0000
0000
0000
0000
0000
ENDCHAR

STARTCHAR ordfeminine
ENCODING 170
SWIDTH 568 0
DWIDTH 11 0
BBX 11 20 0 -5
BITMAP
0000
0000
1F00
3F80
0380
1F80
3F80
3B80
3FC0
1EC0
0000
3FC0
3FC0
0000
0000
0000
0000
0000
0000
0000
ENDCHAR

STARTCHAR guillemotleft
ENCODING 171
SWIDTH 568 0
DWIDTH 11 0
BBX 11 20 0 -5
BITMAP
0000
0000
0000
0000
0000
0000
0000
0000
0880
1980
3B80
3300
3B80
1980
0880
0000
0000
0000
0000
0000
ENDCHAR

STARTCHAR logicalnot
ENCODING 172
SWIDTH 568 0
DWIDTH 11 0
BBX 11 20 0 -5
BITMAP
0000
0000
0000
0000
0000
0000
0000
7FC0
7FC0
01C0
01C0
01C0
01C0
0000
0000
0000
0000
0000
0000
0000
ENDCHAR

STARTCHAR hyphen
ENCODING 173
SWIDTH 568 0
DWIDTH 11 0
BBX 11 20 0 -5
BITMAP
0000
0000
0000
0000
0000
0000
0000
0000
0000
0000
7FC0
7FC0
0000
0000
0000
0000
0000
0000
0000
0000
ENDCHAR

STARTCHAR registered
ENCODING 174
SWIDTH 568 0
DWIDTH 11 0
BBX 11 20 0 -5
BITMAP
0000
0000
0000
1F00
7FC0
60C0
DE60
DF60
DB60
DE60
DF60
DB60
60C0
7FC0
1F00
0000
0000
0000
0000
0000
ENDCHAR

STARTCHAR macron
ENCODING 175
SWIDTH 568 0
DWIDTH 11 0
BBX 11 20 0 -5
BITMAP
0000
0000
3F80
3F80
0000
0000
0000
0000
0000
0000
0000
0000
0000
0000
0000
0000
0000
0000
0000
0000
ENDCHAR

STARTCHAR degree
ENCODING 176
SWIDTH 568 0
DWIDTH 11 0
BBX 11 20 0 -5
BITMAP
0000
0000
0F00
1F80
1980
1980
1F80
0F00
0000
0000
0000
0000
0000
0000
0000
0000
0000
0000
0000
0000
ENDCHAR

STARTCHAR plusminus
ENCODING 177
SWIDTH 568 0
DWIDTH 11 0
BBX 11 20 0 -5
BITMAP
0000
0000
0000
0E00
0E00
0E00
0E00
7FC0
7FC0
0E00
0E00
0E00
0000
7FC0
7FC0
0000
0000
0000
0000
0000
ENDCHAR

STARTCHAR twosuperior
ENCODING 178
SWIDTH 568 0
DWIDTH 11 0
BBX 11 20 0 -5
BITMAP
0000
0000
0F00
1F80
0380
0700
0E00
1F80
1F80
0000
0000
0000
0000
0000
0000
0000
0000
0000
0000
0000
ENDCHAR

STARTCHAR threesuperior
ENCODING 179
SWIDTH 568 0
DWIDTH 11 0
BBX 11 20 0 -5
BITMAP
0000
0000
0F00
1F80
0380
0700
0380
1F80
0F00
0000
0000
0000
0000
0000
0000
0000
0000
0000
0000
0000
ENDCHAR

STARTCHAR acute
ENCODING 180
SWIDTH 568 0
DWIDTH 11 0
BBX 11 20 0 -5
BITMAP
0000
0700
0E00
1800
0000
0000
0000
0000
0000
0000
0000
0000
0000
0000
0000
0000
0000
0000
0000
0000
ENDCHAR

STARTCHAR mu
ENCODING 181
SWIDTH 568 0
DWIDTH 11 0
BBX 11 20 0 -5
BITMAP
0000
0000
0000
0000
0000
0000
38E0
38E0
38E0
38E0
39C0
71C0
73C0
7FE0
7CE0
7000
7000
7000
7000
0000
ENDCHAR

STARTCHAR paragraph
ENCODING 182
SWIDTH 568 0
DWIDTH 11 0
BBX 11 20 0 -5
BITMAP
0000
0000
0000
0000
1FE0
3FE0
7EC0
7EC0
7EC0
3EC0
1EC0
06C0
06C0
06C0
06C0
0EE0
0EE0
0000
0000
0000
ENDCHAR

STARTCHAR periodcentered
ENCODING 183
SWIDTH 568 0
DWIDTH 11 0
BBX 11 20 0 -5
BITMAP
0000
0000
0000
0000
0000
0000
0000
0000
0600
0F00
0F00
0600
0000
0000
0000
0000
0000
0000
0000
0000
ENDCHAR

STARTCHAR cedilla
ENCODING 184
SWIDTH 568 0
DWIDTH 11 0
BBX 11 20 0 -5
BITMAP
0000
0000
0000
0000
0000
0000
0000
0000
0000
0000
0000
0000
0000
0000
0000
0C00
0700
0180
1F80
0F00
ENDCHAR

STARTCHAR onesuperior
ENCODING 185
SWIDTH 568 0
DWIDTH 11 0
BBX 11 20 0 -5
BITMAP
0000
0000
0E00
0E00
0600
0600
0600
0F00
0F00
0000
0000
0000
0000
0000
0000
0000
0000
0000
0000
0000
ENDCHAR

STARTCHAR ordmasculine
ENCODING 186
SWIDTH 568 0
DWIDTH 11 0
BBX 11 20 0 -5
BITMAP
0000
0000
0F00
1F80
39C0
39C0
39C0
39C0
1F80
0F00
0000
3FC0
3FC0
0000
0000
0000
0000
0000
0000
0000
ENDCHAR

STARTCHAR guillemotright
ENCODING 187
SWIDTH 568 0
DWIDTH 11 0
BBX 11 20 0 -5
BITMAP
0000
0000
0000
0000
0000
0000
0000
0000
2200
3300
3B80
1980
3B80
3300
2200
0000
0000
0000
0000
0000
ENDCHAR

STARTCHAR onequarter
ENCODING 188
SWIDTH 568 0
DWIDTH 11 0
BBX 11 20 0 -5
BITMAP
0000
0000
0000
7000
7000
3000
3000
3000
7840
79C0
0780
1E00
78C0
61C0
03C0
06E0
07E0
00C0
00C0
0000
ENDCHAR

STARTCHAR onehalf
ENCODING 189
SWIDTH 568 0
DWIDTH 11 0
BBX 11 20 0 -5
BITMAP
0000
0000
0000
7000
7000
3000
3000
3000
7840
79C0
0780
1E00
79C0
63E0
0060
00C0
0180
03E0
03E0
0000
ENDCHAR

STARTCHAR threequarters
ENCODING 190
SWIDTH 568 0
DWIDTH 11 0
BBX 11 20 0 -5
BITMAP
0000
0000
0000
3800
7C00
0C00
1800
0C00
7C40
39C0
0780
1E00
78C0
61C0
03C0
06E0
07E0
00C0
00C0
0000
ENDCHAR

STARTCHAR questiondown
ENCODING 191
SWIDTH 568 0
DWIDTH 11 0
BBX 11 20 0 -5
BITMAP
0000
0000
0000
0000
0700
0F80
0700
0000
0700
0F00
1E00
3800
39C0
3FC0
1F80
0000
0000
0000
0000
0000
ENDCHAR

STARTCHAR Agrave
ENCODING 192
SWIDTH 568 0
DWIDTH 11 0
BBX 11 20 0 -5
BITMAP
1C00
0E00
0300
0000
0F00
0F00
0F00
1F80
1980
1980
3FC0
3FC0
30C0
79E0
79E0
0000
0000
0000
0000
0000
ENDCHAR

STARTCHAR Aacute
ENCODING 193
SWIDTH 568 0
DWIDTH 11 0
BBX 11 20 0 -5
BITMAP
0380
0700
0C00
0000
0F00
0F00
0F00
1F80
1980
1980
3FC0
3FC0
30C0
79E0
79E0
0000
0000
0000
0000
0000
ENDCHAR

STARTCHAR Acircumflex
ENCODING 194
SWIDTH 568 0
DWIDTH 11 0
BBX 11 20 0 -5
BITMAP
0600
1F80
39C0
0000
0F00
0F00
0F00
1F80
1980
1980
3FC0
3FC0
30C0
79E0
79E0
0000
0000
0000
0000
0000
ENDCHAR

STARTCHAR Atilde
ENCODING 195
SWIDTH 568 0
DWIDTH 11 0
BBX 11 20 0 -5
BITMAP
1C40
3FC0
2380
0000
0F00
0F00
0F00
1F80
1980
1980
3FC0
3FC0
30C0
79E0
79E0
0000
0000
0000
0000
0000
ENDCHAR

STARTCHAR Adieresis
ENCODING 196
SWIDTH 568 0
DWIDTH 11 0
BBX 11 20 0 -5
BITMAP
0000
39C0
39C0
0000
0F00
0F00
0F00
1F80
1980
1980
3FC0
3FC0
30C0
79E0
79E0
0000
0000
0000
0000
0000
ENDCHAR

STARTCHAR Aring
ENCODING 197
SWIDTH 568 0
DWIDTH 11 0
BBX 11 20 0 -5
BITMAP
0F00
1F80
1980
1980
0F00
0F00
0F00
1F80
1980
1980
3FC0
3FC0
30C0
79E0
79E0
0000
0000
0000
0000
0000
ENDCHAR

STARTCHAR AE
ENCODING 198
SWIDTH 568 0
DWIDTH 11 0
BBX 11 20 0 -5
BITMAP
0000
0000
0000
0000
3FE0
3FE0
3720
3720
37C0
37C0
3F00
7F00
7720
77E0
77E0
0000
0000
0000
0000
0000
ENDCHAR

STARTCHAR Ccedilla
ENCODING 199
SWIDTH 568 0
DWIDTH 11 0
BBX 11 20 0 -5
BITMAP
0000
0000
0000
0000
0EC0
3FC0
39C0
70C0
7000
7000
7000
7000
38E0
3FE0
0F80
0600
0700
3F00
1E00
0000
ENDCHAR

STARTCHAR Egrave
ENCODING 200
SWIDTH 568 0
DWIDTH 11 0
BBX 11 20 0 -5
BITMAP
1C00
0E00
0300
0000
7FE0
7FE0
3860
3B60
3F00
3F00
3B00
3860
3860
7FE0
7FE0
0000
0000
0000
0000
0000
ENDCHAR

STARTCHAR Eacute
ENCODING 201
SWIDTH 568 0
DWIDTH 11 0
BBX 11 20 0 -5
BITMAP
0380
0700
0C00
0000
7FE0
7FE0
3860
3B60
3F00
3F00
3B00
3860
3860
7FE0
7FE0
0000
0000
0000
0000
0000
ENDCHAR

STARTCHAR Ecircumflex
ENCODING 202
SWIDTH 568 0
DWIDTH 11 0
BBX 11 20 0 -5
BITMAP
0600
1F80
39C0
0000
7FE0
7FE0
3860
3B60
3F00
3F00
3B00
3860
3860
7FE0
7FE0
0000
0000
0000
0000
0000
ENDCHAR

STARTCHAR Edieresis
ENCODING 203
SWIDTH 568 0
DWIDTH 11 0
BBX 11 20 0 -5
BITMAP
0000
1DC0
1DC0
0000
7FE0
7FE0
3860
3B60
3F00
3F00
3B00
3860
3860
7FE0
7FE0
0000
0000
0000
0000
0000
ENDCHAR

STARTCHAR Igrave
ENCODING 204
SWIDTH 568 0
DWIDTH 11 0
BBX 11 20 0 -5
BITMAP
1C00
0E00
0300
0000
7FC0
7FC0
0E00
0E00
0E00
0E00
0E00
0E00
0E00
7FC0
7FC0
0000
0000
0000
0000
0000
ENDCHAR

STARTCHAR Iacute
ENCODING 205
SWIDTH 568 0
DWIDTH 11 0
BBX 11 20 0 -5
BITMAP
0380
0700
0C00
0000
7FC0
7FC0
0E00
0E00
0E00
0E00
0E00
0E00
0E00
7FC0
7FC0
0000
0000
0000
0000
0000
ENDCHAR

STARTCHAR Icircumflex
ENCODING 206
SWIDTH 568 0
DWIDTH 11 0
BBX 11 20 0 -5
BITMAP
0600
1F80
39C0
0000
7FC0
7FC0
0E00
0E00
0E00
0E00
0E00
0E00
0E00
7FC0
7FC0
0000
0000
0000
0000
0000
ENDCHAR

STARTCHAR Idieresis
ENCODING 207
SWIDTH 568 0
DWIDTH 11 0
BBX 11 20 0 -5
BITMAP
0000
39C0
39C0
0000
7FC0
7FC0
0E00
0E00
0E00
0E00
0E00
0E00
0E00
7FC0
7FC0
0000
0000
0000
0000
0000
ENDCHAR

STARTCHAR Gbreve
ENCODING 208
SWIDTH 568 0
DWIDTH 11 0
BBX 11 20 0 -5
BITMAP
39C0
1F80
0F00
0000
0F60
3FE0
38E0
7060
7000
73E0
73E0
70E0
38E0
3FE0
0F80
0000
0000
0000
0000
0000
ENDCHAR

STARTCHAR Ntilde
ENCODING 209
SWIDTH 568 0
DWIDTH 11 0
BBX 11 20 0 -5
BITMAP
1C40
3FC0
2380
0000
79E0
79E0
39C0
3DC0
3DC0
3FC0
3BC0
3BC0
39C0
79E0
79E0
0000
0000
0000
0000
0000
ENDCHAR

STARTCHAR Ograve
ENCODING 210
SWIDTH 568 0
DWIDTH 11 0
BBX 11 20 0 -5
BITMAP
1C00
0E00
0300
0000
0F00
3FC0
39C0
70E0
70E0
70E0
70E0
70E0
39C0
3FC0
0F00
0000
0000
0000
0000
0000
ENDCHAR

STARTCHAR Oacute
ENCODING 211
SWIDTH 568 0
DWIDTH 11 0
BBX 11 20 0 -5
BITMAP
0380
0700
0C00
0000
0F00
3FC0
39C0
70E0
70E0
70E0
70E0
70E0
39C0
3FC0
0F00
0000
0000
0000
0000
0000
ENDCHAR

STARTCHAR Ocircumflex
ENCODING 212
SWIDTH 568 0
DWIDTH 11 0
BBX 11 20 0 -5
BITMAP
0600
1F80
39C0
0000
0F00
3FC0
39C0
70E0
70E0
70E0
70E0
70E0
39C0
3FC0
0F00
0000
0000
0000
0000
0000
ENDCHAR

STARTCHAR Otilde
ENCODING 213
SWIDTH 568 0
DWIDTH 11 0
BBX 11 20 0 -5
BITMAP
1C40
3FC0
2380
0000
0F00
3FC0
39C0
70E0
70E0
70E0
70E0
70E0
39C0
3FC0
0F00
0000
0000
0000
0000
0000
ENDCHAR

STARTCHAR Odieresis
ENCODING 214
SWIDTH 568 0
DWIDTH 11 0
BBX 11 20 0 -5
BITMAP
0000
39C0
39C0
0000
0F00
3FC0
39C0
70E0
70E0
70E0
70E0
70E0
39C0
3FC0
0F00
0000
0000
0000
0000
0000
ENDCHAR

STARTCHAR multiply
ENCODING 215
SWIDTH 568 0
DWIDTH 11 0
BBX 11 20 0 -5
BITMAP
0000
0000
0000
0000
0000
0000
1080
39C0
1F80
0F00
0F00
1F80
39C0
1080
0000
0000
0000
0000
0000
0000
ENDCHAR

STARTCHAR Oslash
ENCODING 216
SWIDTH 568 0
DWIDTH 11 0
BBX 11 20 0 -5
BITMAP
0000
0000
0000
0000
0F60
3FE0
39C0
73E0
73E0
76E0
76E0
7CE0
39C0
7FC0
6F00
0000
0000
0000
0000
0000
ENDCHAR

STARTCHAR Ugrave
ENCODING 217
SWIDTH 568 0
DWIDTH 11 0
BBX 11 20 0 -5
BITMAP
1C00
0E00
0300
0000
79E0
79E0
39C0
39C0
39C0
39C0
39C0
39C0
39C0
3FC0
1F80
0000
0000
0000
0000
0000
ENDCHAR

STARTCHAR Uacute
ENCODING 218
SWIDTH 568 0
DWIDTH 11 0
BBX 11 20 0 -5
BITMAP
0380
0700
0C00
0000
79E0
79E0
39C0
39C0
39C0
39C0
39C0
39C0
39C0
3FC0
1F80
0000
0000
0000
0000
0000
ENDCHAR

STARTCHAR Ucircumflex
ENCODING 219
SWIDTH 568 0
DWIDTH 11 0
BBX 11 20 0 -5
BITMAP
0600
1F80
39C0
0000
79E0
79E0
39C0
39C0
39C0
39C0
39C0
39C0
39C0
3FC0
1F80
0000
0000
0000
0000
0000
ENDCHAR

STARTCHAR Udieresis
ENCODING 220
SWIDTH 568 0
DWIDTH 11 0
BBX 11 20 0 -5
BITMAP
0000
39C0
39C0
0000
79E0
79E0
39C0
39C0
39C0
39C0
39C0
39C0
39C0
3FC0
1F80
0000
0000
0000
0000
0000
ENDCHAR

STARTCHAR Idotaccent
ENCODING 221
SWIDTH 568 0
DWIDTH 11 0
BBX 11 20 0 -5
BITMAP
0000
0E00
0E00
0000
7FC0
7FC0
0E00
0E00
0E00
0E00
0E00
0E00
0E00
7FC0
7FC0
0000
0000
0000
0000
0000
ENDCHAR

STARTCHAR Scedilla
ENCODING 222
SWIDTH 568 0
DWIDTH 11 0
BBX 11 20 0 -5
BITMAP
0000
0000
0000
0000
0EC0
3FC0
39C0
38C0
3E00
1F80
03C0
31C0
39C0
3FC0
3780
0600
0380
00C0
0FC0
0780
ENDCHAR

STARTCHAR germandbls
ENCODING 223
SWIDTH 568 0
DWIDTH 11 0
BBX 11 20 0 -5
BITMAP
0000
0000
0000
1F80
3FC0
39C0
39C0
3B80
3BC0
38E0
38E0
38E0
38E0
7BE0
7BC0
0000
0000
0000
0000
0000
ENDCHAR

STARTCHAR agrave
ENCODING 224
SWIDTH 568 0
DWIDTH 11 0
BBX 11 20 0 -5
BITMAP
0000
0000
0E00
0700
0180
0000
1F80
3FC0
01C0
1FC0
3FC0
71C0
73C0
7FE0
3DE0
0000
0000
0000
0000
0000
ENDCHAR

STARTCHAR aacute
ENCODING 225
SWIDTH 568 0
DWIDTH 11 0
BBX 11 20 0 -5
BITMAP
0000
0000
0380
0700
0600
0000
1F80
3FC0
01C0
1FC0
3FC0
71C0
73C0
7FE0
3DE0
0000
0000
0000
0000
0000
ENDCHAR

STARTCHAR acircumflex
ENCODING 226
SWIDTH 568 0
DWIDTH 11 0
BBX 11 20 0 -5
BITMAP
0000
0000
0600
1F80
39C0
0000
1F80
3FC0
01C0
1FC0
3FC0
71C0
73C0
7FE0
3DE0
0000
0000
0000
0000
0000
ENDCHAR

STARTCHAR atilde
ENCODING 227
SWIDTH 568 0
DWIDTH 11 0
BBX 11 20 0 -5
BITMAP
0000
0000
1C40
3FC0
2380
0000
1F80
3FC0
01C0
1FC0
3FC0
71C0
73C0
7FE0
3DE0
0000
0000
0000
0000
0000
ENDCHAR

STARTCHAR adieresis
ENCODING 228
SWIDTH 568 0
DWIDTH 11 0
BBX 11 20 0 -5
BITMAP
0000
0000
0000
39C0
39C0
0000
1F80
3FC0
01C0
1FC0
3FC0
71C0
73C0
7FE0
3DE0
0000
0000
0000
0000
0000
ENDCHAR

STARTCHAR aring
ENCODING 229
SWIDTH 568 0
DWIDTH 11 0
BBX 11 20 0 -5
BITMAP
0F00
1980
1980
1980
0F00
0000
1F80
3FC0
01C0
1FC0
3FC0
71C0
73C0
7FE0
3DE0
0000
0000
0000
0000
0000
ENDCHAR

STARTCHAR ae
ENCODING 230
SWIDTH 568 0
DWIDTH 11 0
BBX 11 20 0 -5
BITMAP
0000
0000
0000
0000
0000
0000
3DC0
3FE0
0760
3FE0
7FE0
6700
6760
7FE0
39C0
0000
0000
0000
0000
0000
ENDCHAR

STARTCHAR ccedilla
ENCODING 231
SWIDTH 568 0
DWIDTH 11 0
BBX 11 20 0 -5
BITMAP
0000
0000
0000
0000
0000
0000
1F60
3FE0
79E0
70E0
7000
7000
78E0
3FE0
1F80
0C00
0E00
7E00
3C00
0000
ENDCHAR

STARTCHAR egrave
ENCODING 232
SWIDTH 568 0
DWIDTH 11 0
BBX 11 20 0 -5
BITMAP
0000
0000
1C00
0E00
0300
0000
1F80
3FC0
70E0
7FE0
7FE0
7000
78E0
3FE0
1F80
0000
0000
0000
0000
0000
ENDCHAR

STARTCHAR eacute
ENCODING 233
SWIDTH 568 0
DWIDTH 11 0
BBX 11 20 0 -5
BITMAP
0000
0000
0380
0700
0C00
0000
1F80
3FC0
70E0
7FE0
7FE0
7000
78E0
3FE0
1F80
0000
0000
0000
0000
0000
ENDCHAR

STARTCHAR ecircumflex
ENCODING 234
SWIDTH 568 0
DWIDTH 11 0
BBX 11 20 0 -5
BITMAP
0000
0000
0600
1F80
39C0
0000
1F80
3FC0
70E0
7FE0
7FE0
7000
78E0
3FE0
1F80
0000
0000
0000
0000
0000
ENDCHAR

STARTCHAR edieresis
ENCODING 235
SWIDTH 568 0
DWIDTH 11 0
BBX 11 20 0 -5
BITMAP
0000
0000
0000
39C0
39C0
0000
1F80
3FC0
70E0
7FE0
7FE0
7000
78E0
3FE0
1F80
0000
0000
0000
0000
0000
ENDCHAR

STARTCHAR igrave
ENCODING 236
SWIDTH 568 0
DWIDTH 11 0
BBX 11 20 0 -5
BITMAP
0000
0000
3800
1C00
0600
0000
3E00
3E00
0E00
0E00
0E00
0E00
0E00
7FC0
7FC0
0000
0000
0000
0000
0000
ENDCHAR

STARTCHAR iacute
ENCODING 237
SWIDTH 568 0
DWIDTH 11 0
BBX 11 20 0 -5
BITMAP
0000
0000
0700
0E00
1800
0000
3E00
3E00
0E00
0E00
0E00
0E00
0E00
7FC0
7FC0
0000
0000
0000
0000
0000
ENDCHAR

STARTCHAR icircumflex
ENCODING 238
SWIDTH 568 0
DWIDTH 11 0
BBX 11 20 0 -5
BITMAP
0000
0000
0C00
3F00
7380
0000
3E00
3E00
0E00
0E00
0E00
0E00
0E00
7FC0
7FC0
0000
0000
0000
0000
0000
ENDCHAR

STARTCHAR idieresis
ENCODING 239
SWIDTH 568 0
DWIDTH 11 0
BBX 11 20 0 -5
BITMAP
0000
0000
0000
7380
7380
0000
3E00
3E00
0E00
0E00
0E00
0E00
0E00
7FC0
7FC0
0000
0000
0000
0000
0000
ENDCHAR

STARTCHAR gbreve
ENCODING 240
SWIDTH 568 0
DWIDTH 11 0
BBX 11 20 0 -5
BITMAP
0000
0000
39C0
1F80
0F00
0000
1DE0
3FE0
7BC0
71C0
71C0
71C0
7BC0
3FC0
1DC0
01C0
01C0
3F80
3F00
0000
ENDCHAR

STARTCHAR ntilde
ENCODING 241
SWIDTH 568 0
DWIDTH 11 0
BBX 11 20 0 -5
BITMAP
0000
0000
1C40
3FC0
2380
0000
7B80
7FC0
3DC0
39C0
39C0
39C0
39C0
79E0
79E0
0000
0000
0000
0000
0000
ENDCHAR

STARTCHAR ograve
ENCODING 242
SWIDTH 568 0
DWIDTH 11 0
BBX 11 20 0 -5
BITMAP
0000
0000
1C00
0E00
0300
0000
1F80
3FC0
79E0
70E0
70E0
70E0
79E0
3FC0
1F80
0000
0000
0000
0000
0000
ENDCHAR

STARTCHAR oacute
ENCODING 243
SWIDTH 568 0
DWIDTH 11 0
BBX 11 20 0 -5
BITMAP
0000
0000
0380
0700
0C00
0000
1F80
3FC0
79E0
70E0
70E0
70E0
79E0
3FC0
1F80
0000
0000
0000
0000
0000
ENDCHAR

STARTCHAR ocircumflex
ENCODING 244
SWIDTH 568 0
DWIDTH 11 0
BBX 11 20 0 -5
BITMAP
0000
0000
0600
1F80
39C0
0000
1F80
3FC0
79E0
70E0
70E0
70E0
79E0
3FC0
1F80
0000
0000
0000
0000
0000
ENDCHAR

STARTCHAR otilde
ENCODING 245
SWIDTH 568 0
DWIDTH 11 0
BBX 11 20 0 -5
BITMAP
0000
0000
1C40
3FC0
2380
0000
1F80
3FC0
79E0
70E0
70E0
70E0
79E0
3FC0
1F80
0000
0000
0000
0000
0000
ENDCHAR

STARTCHAR odieresis
ENCODING 246
SWIDTH 568 0
DWIDTH 11 0
BBX 11 20 0 -5
BITMAP
0000
0000
0000
39C0
39C0
0000
1F80
3FC0
79E0
70E0
70E0
70E0
79E0
3FC0
1F80
0000
0000
0000
0000
0000
ENDCHAR

STARTCHAR divide
ENCODING 247
SWIDTH 568 0
DWIDTH 11 0
BBX 11 20 0 -5
BITMAP
0000
0000
0000
0000
0000
0600
0F00
0600
0000
7FE0
7FE0
0000
0600
0F00
0600
0000
0000
0000
0000
0000
ENDCHAR

STARTCHAR oslash
ENCODING 248
SWIDTH 568 0
DWIDTH 11 0
BBX 11 20 0 -5
BITMAP
0000
0000
0000
0000
0000
0000
1F60
3FC0
79E0
73E0
76E0
7CE0
79E0
7FC0
DF80
0000
0000
0000
0000
0000
ENDCHAR

STARTCHAR ugrave
ENCODING 249
SWIDTH 568 0
DWIDTH 11 0
BBX 11 20 0 -5
BITMAP
0000
0000
3800
1C00
0600
0000
7BC0
7BC0
39C0
39C0
39C0
39C0
3BC0
3FE0
1DE0
0000
0000
0000
0000
0000
ENDCHAR

STARTCHAR uacute
ENCODING 250
SWIDTH 568 0
DWIDTH 11 0
BBX 11 20 0 -5
BITMAP
0000
0000
0700
0E00
1800
0000
7BC0
7BC0
39C0
39C0
39C0
39C0
3BC0
3FE0
1DE0
0000
0000
0000
0000
0000
ENDCHAR

STARTCHAR ucircumflex
ENCODING 251
SWIDTH 568 0
DWIDTH 11 0
BBX 11 20 0 -5
BITMAP
0000
0000
0600
1F80
39C0
0000
7BC0
7BC0
39C0
39C0
39C0
39C0
3BC0
3FE0
1DE0
0000
0000
0000
0000
0000
ENDCHAR

STARTCHAR udieresis
ENCODING 252
SWIDTH 568 0
DWIDTH 11 0
BBX 11 20 0 -5
BITMAP
0000
0000
0000
39C0
39C0
0000
7BC0
7BC0
39C0
39C0
39C0
39C0
3BC0
3FE0
1DE0
0000
0000
0000
0000
0000
ENDCHAR

STARTCHAR dotlessi
ENCODING 253
SWIDTH 568 0
DWIDTH 11 0
BBX 11 20 0 -5
BITMAP
0000
0000
0000
0000
0000
0000
3E00
3E00
0E00
0E00
0E00
0E00
0E00
7FC0
7FC0
0000
0000
0000
0000
0000
ENDCHAR

STARTCHAR scedilla
ENCODING 254
SWIDTH 568 0
DWIDTH 11 0
BBX 11 20 0 -5
BITMAP
0000
0000
0000
0000
0000
0000
1EC0
3FC0
38C0
3C00
1F80
03C0
31C0
3FC0
3780
0600
0380
00C0
0FC0
0780
ENDCHAR

STARTCHAR ydieresis
ENCODING 255
SWIDTH 568 0
DWIDTH 11 0
BBX 11 20 0 -5
BITMAP
0000
0000
0000
39C0
39C0
0000
79E0
79E0
39C0
39C0
1980
1F80
0F00
0F00
0600
0E00
0C00
3F00
3F00
0000
ENDCHAR

ENDFONT
