STARTFONT 2.1
FONT -DEC-Terminal-Bold-R-Double Wide--18-180-75-75-C-220-iso8859-7
SIZE 18 75 75
FONTBOUNDINGBOX 22 20 0 -5

STARTPROPERTIES 24
FOUNDRY "Monotype"
FAMILY_NAME "VT"
WEIGHT_NAME "Bold"
SLANT "R"
SETWIDTH_NAME "Double Wide"
ADD_STYLE_NAME ""
PIXEL_SIZE 18
POINT_SIZE 180
RESOLUTION_X 75
RESOLUTION_Y 75
SPACING "C"
AVERAGE_WIDTH 220
CHARSET_REGISTRY "iso8859"
CHARSET_ENCODING "7"
FACE_NAME "VT DoubleWide Bold ISO Latin Greek"
_DEC_DEVICE_FONTNAMES "PS=vt-dblwide-bold-isolatingreek"
COPYRIGHT "Copyright (c) 1993 Monotype Typography Ltd."
CAP_HEIGHT 11
X_HEIGHT 8
WEIGHT 10
QUAD_WIDTH 22
DEFAULT_CHAR 160
FONT_DESCENT 5
FONT_ASCENT 15
ENDPROPERTIES

CHARS 185

STARTCHAR space
ENCODING 32
SWIDTH 1136 0
DWIDTH 22 0
BBX 22 20 0 -5
BITMAP
000000
000000
000000
000000
000000
000000
000000
000000
000000
000000
000000
000000
000000
000000
000000
000000
000000
000000
000000
000000
ENDCHAR

STARTCHAR exclam
ENCODING 33
SWIDTH 1136 0
DWIDTH 22 0
BBX 22 20 0 -5
BITMAP
000000
000000
000000
000000
01FC00
01FC00
01FC00
01FC00
01FC00
01FC00
01FC00
000000
01FC00
03FE00
01FC00
000000
000000
000000
000000
000000
ENDCHAR

STARTCHAR quotedbl
ENCODING 34
SWIDTH 1136 0
DWIDTH 22 0
BBX 22 20 0 -5
BITMAP
000000
000000
078780
078780
078780
078780
078780
078780
000000
000000
000000
000000
000000
000000
000000
000000
000000
000000
000000
000000
ENDCHAR

STARTCHAR numbersign
ENCODING 35
SWIDTH 1136 0
DWIDTH 22 0
BBX 22 20 0 -5
BITMAP
000000
000000
000000
000000
0FE3F0
0FE3F0
0FE3F0
0FE3F0
FFFFFC
FFFFFC
3F0FC0
3F0FC0
FFFFFC
FFFFFC
3F0FC0
3F0FC0
3F0FC0
3F0FC0
000000
000000
ENDCHAR

STARTCHAR dollar
ENCODING 36
SWIDTH 1136 0
DWIDTH 22 0
BBX 22 20 0 -5
BITMAP
000000
000000
003C00
003C00
07FCF0
1FFFF0
3F03F0
3F00F0
1FF000
0FFF00
003FE0
3C03F0
3F03F0
3FFFF0
3CFFC0
00F000
00F000
00F000
000000
000000
ENDCHAR

STARTCHAR percent
ENCODING 37
SWIDTH 1136 0
DWIDTH 22 0
BBX 22 20 0 -5
BITMAP
000000
000000
000000
000000
1FE000
7FF800
787860
7FFBE0
1FEF00
007800
03DFE0
1F7FF8
1C7878
007FF8
001FE0
000000
000000
000000
000000
000000
ENDCHAR

STARTCHAR ampersand
ENCODING 38
SWIDTH 1136 0
DWIDTH 22 0
BBX 22 20 0 -5
BITMAP
000000
000000
000000
000000
03FCC0
07FFC0
0FC3C0
07C000
03E0F0
0FF8F0
1F7CC0
3F1FC0
3F0FC0
1FFFF0
0FFCF0
000000
000000
000000
000000
000000
ENDCHAR

STARTCHAR quoteright
ENCODING 39
SWIDTH 1136 0
DWIDTH 22 0
BBX 22 20 0 -5
BITMAP
000000
000000
00FF00
00FC00
00F000
03F000
03C000
000000
000000
000000
000000
000000
000000
000000
000000
000000
000000
000000
000000
000000
ENDCHAR

STARTCHAR parenleft
ENCODING 40
SWIDTH 1136 0
DWIDTH 22 0
BBX 22 20 0 -5
BITMAP
000000
000000
000000
000F00
003C00
00F800
01F000
03F000
03E000
07E000
07E000
07E000
07E000
03E000
03F000
01F000
00F800
003C00
000F00
000000
ENDCHAR

STARTCHAR parenright
ENCODING 41
SWIDTH 1136 0
DWIDTH 22 0
BBX 22 20 0 -5
BITMAP
000000
000000
000000
078000
01E000
00F800
007C00
007E00
003E00
003F00
003F00
003F00
003F00
003E00
007E00
007C00
00F800
01E000
078000
000000
ENDCHAR

STARTCHAR asterisk
ENCODING 42
SWIDTH 1136 0
DWIDTH 22 0
BBX 22 20 0 -5
BITMAP
000000
000000
000000
000000
000000
000000
00FC00
00FC00
3CFCF0
3FFFF0
03FF00
0FCF80
0F0780
000000
000000
000000
000000
000000
000000
000000
ENDCHAR

STARTCHAR plus
ENCODING 43
SWIDTH 1136 0
DWIDTH 22 0
BBX 22 20 0 -5
BITMAP
000000
000000
000000
000000
000000
00FC00
00FC00
00FC00
00FC00
3FFFF0
3FFFF0
00FC00
00FC00
00FC00
00FC00
000000
000000
000000
000000
000000
ENDCHAR

STARTCHAR comma
ENCODING 44
SWIDTH 1136 0
DWIDTH 22 0
BBX 22 20 0 -5
BITMAP
000000
000000
000000
000000
000000
000000
000000
000000
000000
000000
000000
000000
00FF00
00FE00
00FE00
03F800
03F800
03C000
000000
000000
ENDCHAR

STARTCHAR minus
ENCODING 45
SWIDTH 1136 0
DWIDTH 22 0
BBX 22 20 0 -5
BITMAP
000000
000000
000000
000000
000000
000000
000000
000000
000000
000000
3FFFF0
3FFFF0
000000
000000
000000
000000
000000
000000
000000
000000
ENDCHAR

STARTCHAR period
ENCODING 46
SWIDTH 1136 0
DWIDTH 22 0
BBX 22 20 0 -5
BITMAP
000000
000000
000000
000000
000000
000000
000000
000000
000000
000000
000000
007800
01FE00
01FE00
007800
000000
000000
000000
000000
000000
ENDCHAR

STARTCHAR slash
ENCODING 47
SWIDTH 1136 0
DWIDTH 22 0
BBX 22 20 0 -5
BITMAP
000000
000000
000000
0001F0
0003E0
0007C0
000F80
001F00
003E00
007C00
00F800
01F000
03E000
07C000
0F8000
1F0000
3E0000
000000
000000
000000
ENDCHAR

STARTCHAR zero
ENCODING 48
SWIDTH 1136 0
DWIDTH 22 0
BBX 22 20 0 -5
BITMAP
000000
000000
000000
000000
07FF80
1FFFE0
3F03F0
3E01F0
7E01F8
7E01F8
7E01F8
3E01F0
3F03F0
1FFFE0
07FF80
000000
000000
000000
000000
000000
ENDCHAR

STARTCHAR one
ENCODING 49
SWIDTH 1136 0
DWIDTH 22 0
BBX 22 20 0 -5
BITMAP
000000
000000
000000
000000
00FC00
3FFC00
3FFC00
00FC00
00FC00
00FC00
00FC00
00FC00
00FC00
3FFFF0
3FFFF0
000000
000000
000000
000000
000000
ENDCHAR

STARTCHAR two
ENCODING 50
SWIDTH 1136 0
DWIDTH 22 0
BBX 22 20 0 -5
BITMAP
000000
000000
000000
000000
07FF80
3FFFE0
3C03F0
3C03F0
0007E0
001F80
00FE00
03F000
0FC0F0
3FFFF0
3FFFF0
000000
000000
000000
000000
000000
ENDCHAR

STARTCHAR three
ENCODING 51
SWIDTH 1136 0
DWIDTH 22 0
BBX 22 20 0 -5
BITMAP
000000
000000
000000
000000
07FF80
1FFFE0
1C03F0
0003E0
00FF80
00FFE0
0003F0
0003F0
1E03F0
1FFFE0
07FF80
000000
000000
000000
000000
000000
ENDCHAR

STARTCHAR four
ENCODING 52
SWIDTH 1136 0
DWIDTH 22 0
BBX 22 20 0 -5
BITMAP
000000
000000
000000
000000
00FFC0
01FFC0
03CFC0
078FC0
0F0FC0
1E0FC0
3FFFF0
3FFFF0
000FC0
00FFF0
00FFF0
000000
000000
000000
000000
000000
ENDCHAR

STARTCHAR five
ENCODING 53
SWIDTH 1136 0
DWIDTH 22 0
BBX 22 20 0 -5
BITMAP
000000
000000
000000
000000
3FFFF0
3FFFF0
3F0000
3F0000
3FFFC0
3FFFF0
3803F0
0003F0
3C03F0
3FFFF0
1FFFC0
000000
000000
000000
000000
000000
ENDCHAR

STARTCHAR six
ENCODING 54
SWIDTH 1136 0
DWIDTH 22 0
BBX 22 20 0 -5
BITMAP
000000
000000
000000
000000
01FFF0
07FFF0
0FC000
1F0000
1F3F80
3FFFE0
3F83F0
3F01F0
3F83F0
1FFFE0
07FF80
000000
000000
000000
000000
000000
ENDCHAR

STARTCHAR seven
ENCODING 55
SWIDTH 1136 0
DWIDTH 22 0
BBX 22 20 0 -5
BITMAP
000000
000000
000000
000000
3FFFF0
3FFFF0
3C03F0
0007E0
000FC0
001F80
003F00
007E00
00FC00
01F800
03F000
000000
000000
000000
000000
000000
ENDCHAR

STARTCHAR eight
ENCODING 56
SWIDTH 1136 0
DWIDTH 22 0
BBX 22 20 0 -5
BITMAP
000000
000000
000000
000000
07FF80
1FFFE0
1F03E0
1F03E0
0FFFC0
1FFFE0
3F03F0
3F03F0
3F03F0
1FFFE0
07FF80
000000
000000
000000
000000
000000
ENDCHAR

STARTCHAR nine
ENCODING 57
SWIDTH 1136 0
DWIDTH 22 0
BBX 22 20 0 -5
BITMAP
000000
000000
000000
000000
07FF80
1FFFE0
3F07F0
3E03F0
3F07F0
1FFFF0
07F3E0
0003E0
000FC0
3FFF80
3FFE00
000000
000000
000000
000000
000000
ENDCHAR

STARTCHAR colon
ENCODING 58
SWIDTH 1136 0
DWIDTH 22 0
BBX 22 20 0 -5
BITMAP
000000
000000
000000
000000
000000
000000
007800
01FE00
01FE00
007800
000000
007800
01FE00
01FE00
007800
000000
000000
000000
000000
000000
ENDCHAR

STARTCHAR semicolon
ENCODING 59
SWIDTH 1136 0
DWIDTH 22 0
BBX 22 20 0 -5
BITMAP
000000
000000
000000
000000
000000
000000
003C00
00FF00
00FF00
003C00
000000
000000
00FF00
00FC00
00FC00
03F000
03F000
03C000
000000
000000
ENDCHAR

STARTCHAR less
ENCODING 60
SWIDTH 1136 0
DWIDTH 22 0
BBX 22 20 0 -5
BITMAP
000000
000000
000000
000000
000000
0000F0
000FF0
00FFC0
0FFC00
3FC000
0FFC00
00FFC0
000FF0
0000F0
000000
000000
000000
000000
000000
000000
ENDCHAR

STARTCHAR equal
ENCODING 61
SWIDTH 1136 0
DWIDTH 22 0
BBX 22 20 0 -5
BITMAP
000000
000000
000000
000000
000000
000000
000000
3FFFF0
3FFFF0
000000
000000
3FFFF0
3FFFF0
000000
000000
000000
000000
000000
000000
000000
ENDCHAR

STARTCHAR greater
ENCODING 62
SWIDTH 1136 0
DWIDTH 22 0
BBX 22 20 0 -5
BITMAP
000000
000000
000000
000000
000000
3C0000
3FC000
0FFC00
00FFC0
000FF0
00FFC0
0FFC00
3FC000
3C0000
000000
000000
000000
000000
000000
000000
ENDCHAR

STARTCHAR question
ENCODING 63
SWIDTH 1136 0
DWIDTH 22 0
BBX 22 20 0 -5
BITMAP
000000
000000
000000
000000
07FF80
1FFFE0
1F87E0
0007E0
007F80
01FE00
01F800
000000
01F800
07FE00
01FC00
000000
000000
000000
000000
000000
ENDCHAR

STARTCHAR at
ENCODING 64
SWIDTH 1136 0
DWIDTH 22 0
BBX 22 20 0 -5
BITMAP
000000
000000
000000
07FF00
1FFFC0
3E03E0
7C01E0
787FE0
79FFE0
79E1E0
79E1E0
79FFF8
787E78
7C0000
3E0000
1FFFC0
07FFC0
000000
000000
000000
ENDCHAR

STARTCHAR A
ENCODING 65
SWIDTH 1136 0
DWIDTH 22 0
BBX 22 20 0 -5
BITMAP
000000
000000
000000
000000
01FE00
01FE00
03FF00
03CF00
07CF80
078780
0FFFC0
1FFFE0
1E01E0
7F87F8
7F87F8
000000
000000
000000
000000
000000
ENDCHAR

STARTCHAR B
ENCODING 66
SWIDTH 1136 0
DWIDTH 22 0
BBX 22 20 0 -5
BITMAP
000000
000000
000000
000000
7FFF80
7FFFE0
1F87E0
1F87E0
1FFF80
1FFFE0
1F81F8
1F81F8
1F81F8
7FFFF0
7FFFC0
000000
000000
000000
000000
000000
ENDCHAR

STARTCHAR C
ENCODING 67
SWIDTH 1136 0
DWIDTH 22 0
BBX 22 20 0 -5
BITMAP
000000
000000
000000
000000
03FE78
1FFFF8
3F01F8
7E0078
7E0000
7E0000
7E0000
7E0000
3F0078
1FFFF8
03FF80
000000
000000
000000
000000
000000
ENDCHAR

STARTCHAR D
ENCODING 68
SWIDTH 1136 0
DWIDTH 22 0
BBX 22 20 0 -5
BITMAP
000000
000000
000000
000000
7FFF80
7FFFE0
1F83F0
1F81F8
1F81F8
1F81F8
1F81F8
1F81F8
1F83F0
7FFFE0
7FFF80
000000
000000
000000
000000
000000
ENDCHAR

STARTCHAR E
ENCODING 69
SWIDTH 1136 0
DWIDTH 22 0
BBX 22 20 0 -5
BITMAP
000000
000000
000000
000000
7FFFF8
7FFFF8
1F8078
1F9E78
1FFE00
1FFE00
1F9E00
1F8078
1F8078
7FFFF8
7FFFF8
000000
000000
000000
000000
000000
ENDCHAR

STARTCHAR F
ENCODING 70
SWIDTH 1136 0
DWIDTH 22 0
BBX 22 20 0 -5
BITMAP
000000
000000
000000
000000
7FFFF8
7FFFF8
1F8078
1F9E78
1FFE00
1FFE00
1F9E00
1F8000
1F8000
7FE000
7FE000
000000
000000
000000
000000
000000
ENDCHAR

STARTCHAR G
ENCODING 71
SWIDTH 1136 0
DWIDTH 22 0
BBX 22 20 0 -5
BITMAP
000000
000000
000000
000000
03FE78
1FFFF8
3F01F8
7E0078
7E0000
7E1FF8
7E1FF8
7E01F8
3F01F8
1FFFF8
03FFC0
000000
000000
000000
000000
000000
ENDCHAR

STARTCHAR H
ENCODING 72
SWIDTH 1136 0
DWIDTH 22 0
BBX 22 20 0 -5
BITMAP
000000
000000
000000
000000
7F87F8
7F87F8
1F87E0
1F87E0
1FFFE0
1FFFE0
1F87E0
1F87E0
1F87E0
7F87F8
7F87F8
000000
000000
000000
000000
000000
ENDCHAR

STARTCHAR I
ENCODING 73
SWIDTH 1136 0
DWIDTH 22 0
BBX 22 20 0 -5
BITMAP
000000
000000
000000
000000
3FFFF0
3FFFF0
00FC00
00FC00
00FC00
00FC00
00FC00
00FC00
00FC00
3FFFF0
3FFFF0
000000
000000
000000
000000
000000
ENDCHAR

STARTCHAR J
ENCODING 74
SWIDTH 1136 0
DWIDTH 22 0
BBX 22 20 0 -5
BITMAP
000000
000000
000000
000000
01FFF8
01FFF8
001F80
001F80
001F80
001F80
781F80
781F80
7C1F80
7FFF00
1FFE00
000000
000000
000000
000000
000000
ENDCHAR

STARTCHAR K
ENCODING 75
SWIDTH 1136 0
DWIDTH 22 0
BBX 22 20 0 -5
BITMAP
000000
000000
000000
000000
7F87F8
7F87F8
1F8F80
1F9E00
1FBC00
1FFE00
1FFE00
1F8F00
1F8F80
7F87F8
7F87F8
000000
000000
000000
000000
000000
ENDCHAR

STARTCHAR L
ENCODING 76
SWIDTH 1136 0
DWIDTH 22 0
BBX 22 20 0 -5
BITMAP
000000
000000
000000
000000
3FF000
3FF000
0FC000
0FC000
0FC000
0FC000
0FC0F0
0FC0F0
0FC0F0
3FFFF0
3FFFF0
000000
000000
000000
000000
000000
ENDCHAR

STARTCHAR M
ENCODING 77
SWIDTH 1136 0
DWIDTH 22 0
BBX 22 20 0 -5
BITMAP
000000
000000
000000
000000
7E01F8
7F03F8
1F03E0
1F87E0
1FCFE0
1EFDE0
1F7BE0
1F33E0
1F03E0
7F03F8
7F03F8
000000
000000
000000
000000
000000
ENDCHAR

STARTCHAR N
ENCODING 78
SWIDTH 1136 0
DWIDTH 22 0
BBX 22 20 0 -5
BITMAP
000000
000000
000000
000000
7F87F8
7F87F8
1FC7E0
1FE7E0
1FF7E0
1FBFE0
1F9FE0
1F8FE0
1F87E0
7F87E0
7F87E0
000000
000000
000000
000000
000000
ENDCHAR

STARTCHAR O
ENCODING 79
SWIDTH 1136 0
DWIDTH 22 0
BBX 22 20 0 -5
BITMAP
000000
000000
000000
000000
03FF00
1FFFE0
3F03F0
7E01F8
7E01F8
7E01F8
7E01F8
7E01F8
3F03F0
1FFFE0
03FF00
000000
000000
000000
000000
000000
ENDCHAR

STARTCHAR P
ENCODING 80
SWIDTH 1136 0
DWIDTH 22 0
BBX 22 20 0 -5
BITMAP
000000
000000
000000
000000
3FFFC0
3FFFE0
0FC3F0
0FC3F0
0FC3F0
0FFFE0
0FFFC0
0FC000
0FC000
3FF000
3FF000
000000
000000
000000
000000
000000
ENDCHAR

STARTCHAR Q
ENCODING 81
SWIDTH 1136 0
DWIDTH 22 0
BBX 22 20 0 -5
BITMAP
000000
000000
000000
000000
03FF00
1FFFE0
3F03F0
7E01F8
7E01F8
7E01F8
7E01F8
7E01F8
3F03F0
1FFFE0
03FF00
00E000
01E038
07FFF8
079FE0
000000
ENDCHAR

STARTCHAR R
ENCODING 82
SWIDTH 1136 0
DWIDTH 22 0
BBX 22 20 0 -5
BITMAP
000000
000000
000000
000000
7FFFC0
7FFFE0
1F87E0
1F87E0
1FFFC0
1FFF00
1F9F00
1F8F80
1F8780
7F87F0
7F83F0
000000
000000
000000
000000
000000
ENDCHAR

STARTCHAR S
ENCODING 83
SWIDTH 1136 0
DWIDTH 22 0
BBX 22 20 0 -5
BITMAP
000000
000000
000000
000000
03F9E0
0FFFE0
1F83E0
1F81E0
0FF000
07FF80
003FE0
1E07E0
1F07E0
1FFFC0
1E7F00
000000
000000
000000
000000
000000
ENDCHAR

STARTCHAR T
ENCODING 84
SWIDTH 1136 0
DWIDTH 22 0
BBX 22 20 0 -5
BITMAP
000000
000000
000000
000000
7FFFF8
7FFFF8
78FC78
78FC78
78FC78
00FC00
00FC00
00FC00
00FC00
03FF00
03FF00
000000
000000
000000
000000
000000
ENDCHAR

STARTCHAR U
ENCODING 85
SWIDTH 1136 0
DWIDTH 22 0
BBX 22 20 0 -5
BITMAP
000000
000000
000000
000000
7F87F8
7F87F8
1F87E0
1F87E0
1F87E0
1F87E0
1F87E0
1F87E0
1F87E0
0FFFC0
07FF80
000000
000000
000000
000000
000000
ENDCHAR

STARTCHAR V
ENCODING 86
SWIDTH 1136 0
DWIDTH 22 0
BBX 22 20 0 -5
BITMAP
000000
000000
000000
000000
7F03F8
7F03F8
1F03E0
0F87C0
0F87C0
07CF80
07CF80
03FF00
01FE00
01FE00
00FC00
000000
000000
000000
000000
000000
ENDCHAR

STARTCHAR W
ENCODING 87
SWIDTH 1136 0
DWIDTH 22 0
BBX 22 20 0 -5
BITMAP
000000
000000
000000
000000
7F87F8
7F87F8
1E01E0
1E31E0
1E79E0
1E79E0
1EFDE0
0FCFC0
0FCFC0
078780
078780
000000
000000
000000
000000
000000
ENDCHAR

STARTCHAR X
ENCODING 88
SWIDTH 1136 0
DWIDTH 22 0
BBX 22 20 0 -5
BITMAP
000000
000000
000000
000000
7F03F8
7F87F8
0FCFC0
07FF80
03FF00
01FE00
03FF00
07FF80
0FCFC0
7F87F8
7F03F8
000000
000000
000000
000000
000000
ENDCHAR

STARTCHAR Y
ENCODING 89
SWIDTH 1136 0
DWIDTH 22 0
BBX 22 20 0 -5
BITMAP
000000
000000
000000
000000
3F87F0
3F87F0
0FCFC0
07CF80
03FF00
01FE00
00FC00
00FC00
00FC00
0FFFC0
0FFFC0
000000
000000
000000
000000
000000
ENDCHAR

STARTCHAR Z
ENCODING 90
SWIDTH 1136 0
DWIDTH 22 0
BBX 22 20 0 -5
BITMAP
000000
000000
000000
000000
1FFF80
1FFF80
1E3F00
1E7E00
00FC00
01F800
03F000
07E3C0
0FC3C0
1FFFC0
1FFFC0
000000
000000
000000
000000
000000
ENDCHAR

STARTCHAR bracketleft
ENCODING 91
SWIDTH 1136 0
DWIDTH 22 0
BBX 22 20 0 -5
BITMAP
000000
000000
03FF00
03FF00
03F000
03F000
03F000
03F000
03F000
03F000
03F000
03F000
03F000
03F000
03F000
03FF00
03FF00
000000
000000
000000
ENDCHAR

STARTCHAR backslash
ENCODING 92
SWIDTH 1136 0
DWIDTH 22 0
BBX 22 20 0 -5
BITMAP
000000
000000
000000
3E0000
1F0000
0F8000
07C000
03E000
01F000
00F800
007C00
003E00
001F00
000F80
0007C0
0003E0
0001F0
000000
000000
000000
ENDCHAR

STARTCHAR bracketright
ENCODING 93
SWIDTH 1136 0
DWIDTH 22 0
BBX 22 20 0 -5
BITMAP
000000
000000
03FF00
03FF00
003F00
003F00
003F00
003F00
003F00
003F00
003F00
003F00
003F00
003F00
003F00
03FF00
03FF00
000000
000000
000000
ENDCHAR

STARTCHAR asciicircum
ENCODING 94
SWIDTH 1136 0
DWIDTH 22 0
BBX 22 20 0 -5
BITMAP
000000
000000
007800
01FE00
07FF80
1E01E0
000000
000000
000000
000000
000000
000000
000000
000000
000000
000000
000000
000000
000000
000000
ENDCHAR

STARTCHAR underscore
ENCODING 95
SWIDTH 1136 0
DWIDTH 22 0
BBX 22 20 0 -5
BITMAP
000000
000000
000000
000000
000000
000000
000000
000000
000000
000000
000000
000000
000000
3FFFF0
3FFFF0
000000
000000
000000
000000
000000
ENDCHAR

STARTCHAR quoteleft
ENCODING 96
SWIDTH 1136 0
DWIDTH 22 0
BBX 22 20 0 -5
BITMAP
000000
000000
03FC00
00FC00
003C00
003F00
000F00
000000
000000
000000
000000
000000
000000
000000
000000
000000
000000
000000
000000
000000
ENDCHAR

STARTCHAR a
ENCODING 97
SWIDTH 1136 0
DWIDTH 22 0
BBX 22 20 0 -5
BITMAP
000000
000000
000000
000000
000000
000000
07FFC0
1FFFE0
0007E0
0FFFE0
3FFFE0
7E07E0
7E07E0
3FFFF8
1FE7F8
000000
000000
000000
000000
000000
ENDCHAR

STARTCHAR b
ENCODING 98
SWIDTH 1136 0
DWIDTH 22 0
BBX 22 20 0 -5
BITMAP
000000
000000
000000
7F8000
7F8000
1F8000
1F9FC0
1FFFF0
1FC3F0
1F81F8
1F81F8
1F81F8
1FC3F0
7FFFF0
7F9FC0
000000
000000
000000
000000
000000
ENDCHAR

STARTCHAR c
ENCODING 99
SWIDTH 1136 0
DWIDTH 22 0
BBX 22 20 0 -5
BITMAP
000000
000000
000000
000000
000000
000000
0FFE78
3FFFF8
3F01F8
7E0078
7E0000
7E0000
3F0078
3FFFF8
0FFF80
000000
000000
000000
000000
000000
ENDCHAR

STARTCHAR d
ENCODING 100
SWIDTH 1136 0
DWIDTH 22 0
BBX 22 20 0 -5
BITMAP
000000
000000
000000
000FE0
000FE0
0007E0
0FE7E0
3FFFE0
3F0FE0
7E07E0
7E07E0
7E07E0
3F0FE0
3FFFF8
0FE7F8
000000
000000
000000
000000
000000
ENDCHAR

STARTCHAR e
ENCODING 101
SWIDTH 1136 0
DWIDTH 22 0
BBX 22 20 0 -5
BITMAP
000000
000000
000000
000000
000000
000000
0FFFC0
3FFFF0
3E00F8
7FFFF8
7FFFF8
7E0000
3F0078
3FFFF8
0FFFC0
000000
000000
000000
000000
000000
ENDCHAR

STARTCHAR f
ENCODING 102
SWIDTH 1136 0
DWIDTH 22 0
BBX 22 20 0 -5
BITMAP
000000
000000
000000
01FFF0
03FFF0
03F000
3FFFC0
3FFFC0
03F000
03F000
03F000
03F000
03F000
3FFFC0
3FFFC0
000000
000000
000000
000000
000000
ENDCHAR

STARTCHAR g
ENCODING 103
SWIDTH 1136 0
DWIDTH 22 0
BBX 22 20 0 -5
BITMAP
000000
000000
000000
000000
000000
000000
0FE7F8
3FFFF8
3F0FE0
7E07E0
7E07E0
7E07E0
3F0FE0
3FFFE0
0FE7E0
0007E0
0007E0
1FFFC0
1FFF80
000000
ENDCHAR

STARTCHAR h
ENCODING 104
SWIDTH 1136 0
DWIDTH 22 0
BBX 22 20 0 -5
BITMAP
000000
000000
000000
7F8000
7F8000
1F8000
1F9FC0
1FFFE0
1FE7E0
1F87E0
1F87E0
1F87E0
1F87E0
7F87F8
7F87F8
000000
000000
000000
000000
000000
ENDCHAR

STARTCHAR i
ENCODING 105
SWIDTH 1136 0
DWIDTH 22 0
BBX 22 20 0 -5
BITMAP
000000
000000
00FC00
00FC00
00FC00
000000
0FFC00
0FFC00
0FFC00
00FC00
00FC00
00FC00
00FC00
3FFFF0
3FFFF0
000000
000000
000000
000000
000000
ENDCHAR

STARTCHAR j
ENCODING 106
SWIDTH 1136 0
DWIDTH 22 0
BBX 22 20 0 -5
BITMAP
000000
000000
000FC0
000FC0
000FC0
000000
03FFC0
03FFC0
000FC0
000FC0
000FC0
000FC0
000FC0
000FC0
000FC0
000FC0
000FC0
0FFF80
0FFF00
000000
ENDCHAR

STARTCHAR k
ENCODING 107
SWIDTH 1136 0
DWIDTH 22 0
BBX 22 20 0 -5
BITMAP
000000
000000
000000
7F8000
7F8000
1F8000
1F8FF0
1F8FF0
1F9F00
1FBC00
1FFC00
1FFE00
1F8F80
7F87F8
7F83F8
000000
000000
000000
000000
000000
ENDCHAR

STARTCHAR l
ENCODING 108
SWIDTH 1136 0
DWIDTH 22 0
BBX 22 20 0 -5
BITMAP
000000
000000
000000
0FFC00
0FFC00
00FC00
00FC00
00FC00
00FC00
00FC00
00FC00
00FC00
00FC00
3FFFF0
3FFFF0
000000
000000
000000
000000
000000
ENDCHAR

STARTCHAR m
ENCODING 109
SWIDTH 1136 0
DWIDTH 22 0
BBX 22 20 0 -5
BITMAP
000000
000000
000000
000000
000000
000000
79F3F0
7FFFF8
7E79F8
7E79F8
7E79F8
7E79F8
7E79F8
7E79F8
7E01F8
000000
000000
000000
000000
000000
ENDCHAR

STARTCHAR n
ENCODING 110
SWIDTH 1136 0
DWIDTH 22 0
BBX 22 20 0 -5
BITMAP
000000
000000
000000
000000
000000
000000
7F9FC0
7FFFE0
1FE7E0
1F87E0
1F87E0
1F87E0
1F87E0
7F87F8
7F87F8
000000
000000
000000
000000
000000
ENDCHAR

STARTCHAR o
ENCODING 111
SWIDTH 1136 0
DWIDTH 22 0
BBX 22 20 0 -5
BITMAP
000000
000000
000000
000000
000000
000000
0FFFC0
3FFFF0
3F03F0
7E01F8
7E01F8
7E01F8
3F03F0
3FFFF0
0FFFC0
000000
000000
000000
000000
000000
ENDCHAR

STARTCHAR p
ENCODING 112
SWIDTH 1136 0
DWIDTH 22 0
BBX 22 20 0 -5
BITMAP
000000
000000
000000
000000
000000
000000
7F9FC0
7FFFF0
1FC3F0
1F81F8
1F81F8
1F81F8
1FC3F0
1FFFF0
1F9FE0
1F8000
1F8000
7FF800
7FF800
000000
ENDCHAR

STARTCHAR q
ENCODING 113
SWIDTH 1136 0
DWIDTH 22 0
BBX 22 20 0 -5
BITMAP
000000
000000
000000
000000
000000
000000
0FE7F8
3FFFF8
3F0FE0
7E07E0
7E07E0
7E07E0
3F0FE0
3FFFE0
0FE7E0
0007E0
0007E0
007FF8
007FF8
000000
ENDCHAR

STARTCHAR r
ENCODING 114
SWIDTH 1136 0
DWIDTH 22 0
BBX 22 20 0 -5
BITMAP
000000
000000
000000
000000
000000
000000
7F9FE0
7FFFF8
07E078
07E000
07E000
07E000
07E000
7FFF80
7FFF80
000000
000000
000000
000000
000000
ENDCHAR

STARTCHAR s
ENCODING 115
SWIDTH 1136 0
DWIDTH 22 0
BBX 22 20 0 -5
BITMAP
000000
000000
000000
000000
000000
000000
07FBC0
1FFFC0
1F83C0
1FF000
07FF80
003FE0
1E07E0
1FFFE0
1EFF80
000000
000000
000000
000000
000000
ENDCHAR

STARTCHAR t
ENCODING 116
SWIDTH 1136 0
DWIDTH 22 0
BBX 22 20 0 -5
BITMAP
000000
000000
000000
07E000
07E000
07E000
7FFFE0
7FFFE0
07E000
07E000
07E000
07E000
07E078
07FFF8
01FF80
000000
000000
000000
000000
000000
ENDCHAR

STARTCHAR u
ENCODING 117
SWIDTH 1136 0
DWIDTH 22 0
BBX 22 20 0 -5
BITMAP
000000
000000
000000
000000
000000
000000
7F9FE0
7F9FE0
1F87E0
1F87E0
1F87E0
1F87E0
1F9FE0
1FFFF8
07E7F8
000000
000000
000000
000000
000000
ENDCHAR

STARTCHAR v
ENCODING 118
SWIDTH 1136 0
DWIDTH 22 0
BBX 22 20 0 -5
BITMAP
000000
000000
000000
000000
000000
000000
7E01F8
7F03F8
1F87E0
0FCFC0
07FF80
03FF00
01FE00
00FC00
007800
000000
000000
000000
000000
000000
ENDCHAR

STARTCHAR w
ENCODING 119
SWIDTH 1136 0
DWIDTH 22 0
BBX 22 20 0 -5
BITMAP
000000
000000
000000
000000
000000
000000
7E01F8
7E01F8
1E31E0
1E79E0
1E79E0
0FFFC0
0FCFC0
078780
078780
000000
000000
000000
000000
000000
ENDCHAR

STARTCHAR x
ENCODING 120
SWIDTH 1136 0
DWIDTH 22 0
BBX 22 20 0 -5
BITMAP
000000
000000
000000
000000
000000
000000
7F03F8
7F87F8
07CF80
03FF00
01FE00
03FF00
07CF80
7F87F8
7F03F8
000000
000000
000000
000000
000000
ENDCHAR

STARTCHAR y
ENCODING 121
SWIDTH 1136 0
DWIDTH 22 0
BBX 22 20 0 -5
BITMAP
000000
000000
000000
000000
000000
000000
7F03F8
7F03F8
1F87E0
0F87C0
07CF80
03FF00
01FE00
00FC00
007C00
007800
00F800
1FFE00
1FFE00
000000
ENDCHAR

STARTCHAR z
ENCODING 122
SWIDTH 1136 0
DWIDTH 22 0
BBX 22 20 0 -5
BITMAP
000000
000000
000000
000000
000000
000000
1FFFE0
1FFFE0
1E0F80
1E3E00
007C00
01F1E0
07C1E0
1FFFE0
1FFFE0
000000
000000
000000
000000
000000
ENDCHAR

STARTCHAR braceleft
ENCODING 123
SWIDTH 1136 0
DWIDTH 22 0
BBX 22 20 0 -5
BITMAP
000000
000000
003FC0
00FFC0
00FC00
00FC00
00FC00
00FC00
01F000
0FC000
01F000
00FC00
00FC00
00FC00
00FC00
00FC00
00FFC0
003FC0
000000
000000
ENDCHAR

STARTCHAR bar
ENCODING 124
SWIDTH 1136 0
DWIDTH 22 0
BBX 22 20 0 -5
BITMAP
000000
000000
00FC00
00FC00
00FC00
00FC00
00FC00
00FC00
00FC00
00FC00
00FC00
00FC00
00FC00
00FC00
00FC00
00FC00
00FC00
00FC00
000000
000000
ENDCHAR

STARTCHAR braceright
ENCODING 125
SWIDTH 1136 0
DWIDTH 22 0
BBX 22 20 0 -5
BITMAP
000000
000000
0FF000
0FFC00
00FC00
00FC00
00FC00
00FC00
003E00
000FC0
003E00
00FC00
00FC00
00FC00
00FC00
00FC00
0FFC00
0FF000
000000
000000
ENDCHAR

STARTCHAR asciitilde
ENCODING 126
SWIDTH 1136 0
DWIDTH 22 0
BBX 22 20 0 -5
BITMAP
000000
000000
1FE018
7FFFF8
601FE0
000000
000000
000000
000000
000000
000000
000000
000000
000000
000000
000000
000000
000000
000000
000000
ENDCHAR

STARTCHAR space
ENCODING 160
SWIDTH 1136 0
DWIDTH 22 0
BBX 22 20 0 -5
BITMAP
000000
000000
000000
000000
000000
000000
000000
000000
000000
000000
000000
000000
000000
000000
000000
000000
000000
000000
000000
000000
ENDCHAR

STARTCHAR quoteleft
ENCODING 161
SWIDTH 1136 0
DWIDTH 22 0
BBX 22 20 0 -5
BITMAP
000000
000000
03FC00
00FC00
003C00
003F00
000F00
000000
000000
000000
000000
000000
000000
000000
000000
000000
000000
000000
000000
000000
ENDCHAR

STARTCHAR quoteright
ENCODING 162
SWIDTH 1136 0
DWIDTH 22 0
BBX 22 20 0 -5
BITMAP
000000
000000
00FF00
00FC00
00F000
03F000
03C000
000000
000000
000000
000000
000000
000000
000000
000000
000000
000000
000000
000000
000000
ENDCHAR

STARTCHAR sterling
ENCODING 163
SWIDTH 1136 0
DWIDTH 22 0
BBX 22 20 0 -5
BITMAP
000000
000000
000000
000000
00FFC0
03FFF0
03F0F0
03F000
7FFF80
7FFF80
01F000
01F000
01F838
1FFFF8
1F8FE0
000000
000000
000000
000000
000000
ENDCHAR

STARTCHAR brokenbar
ENCODING 166
SWIDTH 1136 0
DWIDTH 22 0
BBX 22 20 0 -5
BITMAP
000000
000000
00FC00
00FC00
00FC00
00FC00
00FC00
00FC00
00FC00
000000
000000
000000
00FC00
00FC00
00FC00
00FC00
00FC00
00FC00
00FC00
000000
ENDCHAR

STARTCHAR section
ENCODING 167
SWIDTH 1136 0
DWIDTH 22 0
BBX 22 20 0 -5
BITMAP
000000
000000
000000
000000
01FFE0
07FFE0
1F81E0
7FE000
79F800
7E3F00
3F87E0
0FF9F8
00FE78
001FF8
1E07F0
1FFFF0
1FFFC0
000000
000000
000000
ENDCHAR

STARTCHAR dieresis
ENCODING 168
SWIDTH 1136 0
DWIDTH 22 0
BBX 22 20 0 -5
BITMAP
000000
000000
3C03C0
7E07E0
3C03C0
000000
000000
000000
000000
000000
000000
000000
000000
000000
000000
000000
000000
000000
000000
000000
ENDCHAR

STARTCHAR copyright
ENCODING 169
SWIDTH 1136 0
DWIDTH 22 0
BBX 22 20 0 -5
BITMAP
000000
000000
000000
07FF80
3FFFF0
3C00F0
F0FC3C
F3FC3C
F3C03C
F3C03C
F3FC3C
F0FC3C
3C00F0
3FFFF0
07FF80
000000
000000
000000
000000
000000
ENDCHAR

STARTCHAR guillemotleft
ENCODING 171
SWIDTH 1136 0
DWIDTH 22 0
BBX 22 20 0 -5
BITMAP
000000
000000
000000
000000
000000
000000
000000
000000
00C0C0
03C3C0
0FCFC0
0F0F00
0FCFC0
03C3C0
00C0C0
000000
000000
000000
000000
000000
ENDCHAR

STARTCHAR logicalnot
ENCODING 172
SWIDTH 1136 0
DWIDTH 22 0
BBX 22 20 0 -5
BITMAP
000000
000000
000000
000000
000000
000000
3FFFF0
3FFFF0
0001F0
0001F0
0001F0
0001F0
0001F0
000000
000000
000000
000000
000000
000000
000000
ENDCHAR

STARTCHAR hyphen
ENCODING 173
SWIDTH 1136 0
DWIDTH 22 0
BBX 22 20 0 -5
BITMAP
000000
000000
000000
000000
000000
000000
000000
000000
000000
000000
3FFFF0
3FFFF0
000000
000000
000000
000000
000000
000000
000000
000000
ENDCHAR

STARTCHAR endash
ENCODING 175
SWIDTH 1136 0
DWIDTH 22 0
BBX 22 20 0 -5
BITMAP
000000
000000
000000
000000
000000
000000
000000
000000
000000
000000
FFFFFC
FFFFFC
000000
000000
000000
000000
000000
000000
000000
000000
ENDCHAR

STARTCHAR degree
ENCODING 176
SWIDTH 1136 0
DWIDTH 22 0
BBX 22 20 0 -5
BITMAP
000000
000000
000000
000000
01FE00
07FF80
078780
078780
07FF80
01FE00
000000
000000
000000
000000
000000
000000
000000
000000
000000
000000
ENDCHAR

STARTCHAR plusminus
ENCODING 177
SWIDTH 1136 0
DWIDTH 22 0
BBX 22 20 0 -5
BITMAP
000000
000000
000000
000000
00FC00
00FC00
00FC00
3FFFF0
3FFFF0
00FC00
00FC00
00FC00
000000
3FFFF0
3FFFF0
000000
000000
000000
000000
000000
ENDCHAR

STARTCHAR twosuperior
ENCODING 178
SWIDTH 1136 0
DWIDTH 22 0
BBX 22 20 0 -5
BITMAP
000000
000000
000000
000000
01FE00
07FF80
001F80
007E00
01F800
07FF80
07FF80
000000
000000
000000
000000
000000
000000
000000
000000
000000
ENDCHAR

STARTCHAR threesuperior
ENCODING 179
SWIDTH 1136 0
DWIDTH 22 0
BBX 22 20 0 -5
BITMAP
000000
000000
000000
000000
01FE00
07FF80
001F80
007E00
001F80
07FF80
01FE00
000000
000000
000000
000000
000000
000000
000000
000000
000000
ENDCHAR

STARTCHAR acute
ENCODING 180
SWIDTH 1136 0
DWIDTH 22 0
BBX 22 20 0 -5
BITMAP
000000
000000
003F00
00FC00
03E000
000000
000000
000000
000000
000000
000000
000000
000000
000000
000000
000000
000000
000000
000000
000000
ENDCHAR

STARTCHAR dieresisacute
ENCODING 181
SWIDTH 1136 0
DWIDTH 22 0
BBX 22 20 0 -5
BITMAP
000000
000000
000000
001800
033600
036600
000000
000000
000000
000000
000000
000000
000000
000000
000000
000000
000000
000000
000000
000000
ENDCHAR

STARTCHAR afii9936
ENCODING 182
SWIDTH 1136 0
DWIDTH 22 0
BBX 22 20 0 -5
BITMAP
000000
000000
000000
000000
71FE00
E1FE00
C3FF00
03CF00
07CF80
078780
0FFFC0
1FFFE0
1E01E0
7F87F8
7F87F8
000000
000000
000000
000000
000000
ENDCHAR

STARTCHAR periodcentered
ENCODING 183
SWIDTH 1136 0
DWIDTH 22 0
BBX 22 20 0 -5
BITMAP
000000
000000
000000
000000
000000
000000
000000
000000
007800
01FE00
01FE00
007800
000000
000000
000000
000000
000000
000000
000000
000000
ENDCHAR

STARTCHAR afii9937
ENCODING 184
SWIDTH 1136 0
DWIDTH 22 0
BBX 22 20 0 -5
BITMAP
000000
000000
000000
000000
7FFFFC
EFFFFC
CFC03C
0FCF3C
0FFF00
0FFF00
0FCF00
0FC03C
0FC03C
3FFFFC
3FFFFC
000000
000000
000000
000000
000000
ENDCHAR

STARTCHAR afii9938
ENCODING 185
SWIDTH 1136 0
DWIDTH 22 0
BBX 22 20 0 -5
BITMAP
000000
000000
000000
000000
7FC3FC
EFC3FC
CFC3F0
0FC3F0
0FFFF0
0FFFF0
0FC3F0
0FC3F0
0FC3F0
3FC3FC
3FC3FC
000000
000000
000000
000000
000000
ENDCHAR

STARTCHAR afii9939
ENCODING 186
SWIDTH 1136 0
DWIDTH 22 0
BBX 22 20 0 -5
BITMAP
000000
000000
000000
000000
6FFFFC
EFFFFC
C03F00
003F00
003F00
003F00
003F00
003F00
003F00
0FFFFC
0FFFFC
000000
000000
000000
000000
000000
ENDCHAR

STARTCHAR guillemotright
ENCODING 187
SWIDTH 1136 0
DWIDTH 22 0
BBX 22 20 0 -5
BITMAP
000000
000000
000000
000000
000000
000000
000000
000000
0C0C00
0F0F00
0FCFC0
03C3C0
0FCFC0
0F0F00
0C0C00
000000
000000
000000
000000
000000
ENDCHAR

STARTCHAR afii9940
ENCODING 188
SWIDTH 1136 0
DWIDTH 22 0
BBX 22 20 0 -5
BITMAP
000000
000000
000000
000000
71FF80
EFFFF0
DF81F8
3F00FC
3F00FC
3F00FC
3F00FC
3F00FC
1F81F8
0FFFF0
01FF80
000000
000000
000000
000000
000000
ENDCHAR

STARTCHAR onehalf
ENCODING 189
SWIDTH 1136 0
DWIDTH 22 0
BBX 22 20 0 -5
BITMAP
000000
000000
000000
7E0000
7E0000
1E0000
1E0000
1E0000
7F8060
7F87E0
007F80
07F800
7F87E0
781FF8
000078
0001E0
000780
001FF8
001FF8
000000
ENDCHAR

STARTCHAR afii9941
ENCODING 190
SWIDTH 1136 0
DWIDTH 22 0
BBX 22 20 0 -5
BITMAP
000000
000000
000000
000000
7FE1FC
EFE1FC
C3F3F0
01F3E0
00FFC0
007F80
003F00
003F00
003F00
03FFF0
03FFF0
000000
000000
000000
000000
000000
ENDCHAR

STARTCHAR afii9942
ENCODING 191
SWIDTH 1136 0
DWIDTH 22 0
BBX 22 20 0 -5
BITMAP
000000
000000
000000
000000
71FF80
EFFFF0
DF81F8
3F00FC
3F00FC
3F00FC
1F00F8
0F81F0
03C3C0
03C3C0
3FC3FC
000000
000000
000000
000000
000000
ENDCHAR

STARTCHAR afii9977
ENCODING 192
SWIDTH 1136 0
DWIDTH 22 0
BBX 22 20 0 -5
BITMAP
000000
000000
001800
033600
036600
000000
0FFC00
0FFC00
0FFC00
00FC00
00FC00
00FC00
00FC00
3FFFF0
3FFFF0
000000
000000
000000
000000
000000
ENDCHAR

STARTCHAR afii9793
ENCODING 193
SWIDTH 1136 0
DWIDTH 22 0
BBX 22 20 0 -5
BITMAP
000000
000000
000000
000000
01FE00
01FE00
03FF00
03CF00
07CF80
078780
0FFFC0
1FFFE0
1E01E0
7F87F8
7F87F8
000000
000000
000000
000000
000000
ENDCHAR

STARTCHAR afii9794
ENCODING 194
SWIDTH 1136 0
DWIDTH 22 0
BBX 22 20 0 -5
BITMAP
000000
000000
000000
000000
7FFF80
7FFFE0
1F87E0
1F87E0
1FFF80
1FFFE0
1F81F8
1F81F8
1F81F8
7FFFF0
7FFFC0
000000
000000
000000
000000
000000
ENDCHAR

STARTCHAR afii9796
ENCODING 195
SWIDTH 1136 0
DWIDTH 22 0
BBX 22 20 0 -5
BITMAP
000000
000000
000000
000000
3FFFF0
3FFFF0
0FC0F0
0FC0F0
0FC0F0
0FC000
0FC000
0FC000
0FC000
3FF000
3FF000
000000
000000
000000
000000
000000
ENDCHAR

STARTCHAR afii9797
ENCODING 196
SWIDTH 1136 0
DWIDTH 22 0
BBX 22 20 0 -5
BITMAP
000000
000000
000000
000000
00FC00
01FE00
03DF00
078F80
0F8FC0
1F07C0
1F07E0
3E03E0
7E03F0
FFFFF8
FFFFF8
000000
000000
000000
000000
000000
ENDCHAR

STARTCHAR afii9798
ENCODING 197
SWIDTH 1136 0
DWIDTH 22 0
BBX 22 20 0 -5
BITMAP
000000
000000
000000
000000
7FFFF8
7FFFF8
1F8078
1F9E78
1FFE00
1FFE00
1F9E00
1F8078
1F8078
7FFFF8
7FFFF8
000000
000000
000000
000000
000000
ENDCHAR

STARTCHAR afii9801
ENCODING 198
SWIDTH 1136 0
DWIDTH 22 0
BBX 22 20 0 -5
BITMAP
000000
000000
000000
000000
1FFF80
1FFF80
1E3F00
1E7E00
00FC00
01F800
03F000
07E3C0
0FC3C0
1FFFC0
1FFFC0
000000
000000
000000
000000
000000
ENDCHAR

STARTCHAR afii9802
ENCODING 199
SWIDTH 1136 0
DWIDTH 22 0
BBX 22 20 0 -5
BITMAP
000000
000000
000000
000000
7F87F8
7F87F8
1F87E0
1F87E0
1FFFE0
1FFFE0
1F87E0
1F87E0
1F87E0
7F87F8
7F87F8
000000
000000
000000
000000
000000
ENDCHAR

STARTCHAR afii9803
ENCODING 200
SWIDTH 1136 0
DWIDTH 22 0
BBX 22 20 0 -5
BITMAP
000000
000000
000000
000000
03FF00
1FFFE0
3F03F0
7E85F8
7EFDF8
7EFDF8
7E85F8
7E01F8
3F03F0
1FFFE0
03FF00
000000
000000
000000
000000
000000
ENDCHAR

STARTCHAR afii9804
ENCODING 201
SWIDTH 1136 0
DWIDTH 22 0
BBX 22 20 0 -5
BITMAP
000000
000000
000000
000000
3FFFF0
3FFFF0
00FC00
00FC00
00FC00
00FC00
00FC00
00FC00
00FC00
3FFFF0
3FFFF0
000000
000000
000000
000000
000000
ENDCHAR

STARTCHAR afii9805
ENCODING 202
SWIDTH 1136 0
DWIDTH 22 0
BBX 22 20 0 -5
BITMAP
000000
000000
000000
000000
7F87F8
7F87F8
1F8F80
1F9E00
1FBC00
1FFE00
1FFE00
1F8F00
1F8F80
7F87F8
7F87F8
000000
000000
000000
000000
000000
ENDCHAR

STARTCHAR afii9806
ENCODING 203
SWIDTH 1136 0
DWIDTH 22 0
BBX 22 20 0 -5
BITMAP
000000
000000
000000
000000
00FC00
01FE00
01FE00
03FF00
07CF80
07CF80
0F87C0
0F87C0
1F03E0
7F03F8
7F03F8
000000
000000
000000
000000
000000
ENDCHAR

STARTCHAR afii9807
ENCODING 204
SWIDTH 1136 0
DWIDTH 22 0
BBX 22 20 0 -5
BITMAP
000000
000000
000000
000000
7E01F8
7F03F8
1F03E0
1F87E0
1FCFE0
1EFDE0
1F7BE0
1F33E0
1F03E0
7F03F8
7F03F8
000000
000000
000000
000000
000000
ENDCHAR

STARTCHAR afii9808
ENCODING 205
SWIDTH 1136 0
DWIDTH 22 0
BBX 22 20 0 -5
BITMAP
000000
000000
000000
000000
7F87F8
7F87F8
1FC7E0
1FE7E0
1FF7E0
1FBFE0
1F9FE0
1F8FE0
1F87E0
7F87E0
7F87E0
000000
000000
000000
000000
000000
ENDCHAR

STARTCHAR afii9809
ENCODING 206
SWIDTH 1136 0
DWIDTH 22 0
BBX 22 20 0 -5
BITMAP
000000
000000
000000
000000
3FFFF0
3FFFF0
3FFFF0
3C00F0
03FF00
03FF00
03FF00
3C00F0
3FFFF0
3FFFF0
3FFFF0
000000
000000
000000
000000
000000
ENDCHAR

STARTCHAR afii9810
ENCODING 207
SWIDTH 1136 0
DWIDTH 22 0
BBX 22 20 0 -5
BITMAP
000000
000000
000000
000000
03FF00
1FFFE0
3F03F0
7E01F8
7E01F8
7E01F8
7E01F8
7E01F8
3F03F0
1FFFE0
03FF00
000000
000000
000000
000000
000000
ENDCHAR

STARTCHAR afii9811
ENCODING 208
SWIDTH 1136 0
DWIDTH 22 0
BBX 22 20 0 -5
BITMAP
000000
000000
000000
000000
7FFFF8
7FFFF8
1F87E0
1F87E0
1F87E0
1F87E0
1F87E0
1F87E0
1F87E0
7F87F8
7F87F8
000000
000000
000000
000000
000000
ENDCHAR

STARTCHAR afii9813
ENCODING 209
SWIDTH 1136 0
DWIDTH 22 0
BBX 22 20 0 -5
BITMAP
000000
000000
000000
000000
3FFFC0
3FFFE0
0FC3F0
0FC3F0
0FC3F0
0FFFE0
0FFFC0
0FC000
0FC000
3FF000
3FF000
000000
000000
000000
000000
000000
ENDCHAR

STARTCHAR afii9814
ENCODING 211
SWIDTH 1136 0
DWIDTH 22 0
BBX 22 20 0 -5
BITMAP
000000
000000
000000
000000
3FFFE0
3FFFE0
1F01E0
0FC1E0
07E000
01F800
07E000
0FC1E0
1F81E0
3FFFE0
3FFFE0
000000
000000
000000
000000
000000
ENDCHAR

STARTCHAR afii9816
ENCODING 212
SWIDTH 1136 0
DWIDTH 22 0
BBX 22 20 0 -5
BITMAP
000000
000000
000000
000000
7FFFF8
7FFFF8
78FC78
78FC78
78FC78
00FC00
00FC00
00FC00
00FC00
03FF00
03FF00
000000
000000
000000
000000
000000
ENDCHAR

STARTCHAR afii9817
ENCODING 213
SWIDTH 1136 0
DWIDTH 22 0
BBX 22 20 0 -5
BITMAP
000000
000000
000000
000000
3F87F0
3F87F0
0FCFC0
07CF80
03FF00
01FE00
00FC00
00FC00
00FC00
0FFFC0
0FFFC0
000000
000000
000000
000000
000000
ENDCHAR

STARTCHAR afii9818
ENCODING 214
SWIDTH 1136 0
DWIDTH 22 0
BBX 22 20 0 -5
BITMAP
000000
000000
000000
000000
01FF80
007C00
07FFE0
3F7DF8
7E7CFC
7E7CFC
7E7CFC
3F7DF8
07FFC0
007C00
03FF80
000000
000000
000000
000000
000000
ENDCHAR

STARTCHAR afii9819
ENCODING 215
SWIDTH 1136 0
DWIDTH 22 0
BBX 22 20 0 -5
BITMAP
000000
000000
000000
000000
7F03F8
7F87F8
0FCFC0
07FF80
03FF00
01FE00
03FF00
07FF80
0FCFC0
7F87F8
7F03F8
000000
000000
000000
000000
000000
ENDCHAR

STARTCHAR afii9820
ENCODING 216
SWIDTH 1125 0
DWIDTH 22 0
BBX 22 20 0 -5
BITMAP
000000
000000
000000
000000
FDFEFC
FCFCFC
FCFCFC
FCFCFC
FCFCFC
7EFDF8
1FFFC0
00FC00
00FC00
00FC00
01FE00
000000
000000
000000
000000
000000
ENDCHAR

STARTCHAR afii9821
ENCODING 217
SWIDTH 1136 0
DWIDTH 22 0
BBX 22 20 0 -5
BITMAP
000000
000000
000000
000000
03FF00
1FFFE0
3F03F0
7E01F8
7E01F8
7E01F8
3E01F0
1F03E0
078780
078780
7F87F8
000000
000000
000000
000000
000000
ENDCHAR

STARTCHAR afii9943
ENCODING 218
SWIDTH 1136 0
DWIDTH 22 0
BBX 22 20 0 -5
BITMAP
1E01E0
3F03F0
1E01E0
000000
3FFFF0
3FFFF0
00FC00
00FC00
00FC00
00FC00
00FC00
00FC00
00FC00
3FFFF0
3FFFF0
000000
000000
000000
000000
000000
ENDCHAR

STARTCHAR afii9944
ENCODING 219
SWIDTH 1136 0
DWIDTH 22 0
BBX 22 20 0 -5
BITMAP
1E01E0
3F03F0
1E01E0
000000
3F87F0
3F87F0
0FCFC0
07CF80
03FF00
01FE00
00FC00
00FC00
00FC00
0FFFC0
0FFFC0
000000
000000
000000
000000
000000
ENDCHAR

STARTCHAR afii9968
ENCODING 220
SWIDTH 1136 0
DWIDTH 22 0
BBX 22 20 0 -5
BITMAP
000000
000000
001F80
007E00
01F000
000000
0FFCFC
3FFFFC
7E07F8
FC03F0
FC03F0
FC03F0
7E07F8
3FFFFC
0FFCFC
000000
000000
000000
000000
000000
ENDCHAR

STARTCHAR afii9969
ENCODING 221
SWIDTH 1136 0
DWIDTH 22 0
BBX 22 20 0 -5
BITMAP
000000
000000
0007E0
001F80
007C00
000000
01FFC0
07E3E0
0FC1C0
07C000
03F000
07C000
0FC1C0
07E3E0
01FFC0
000000
000000
000000
000000
000000
ENDCHAR

STARTCHAR afii9970
ENCODING 222
SWIDTH 1136 0
DWIDTH 22 0
BBX 22 20 0 -5
BITMAP
000000
000000
000FC0
003F00
00F800
000000
1F9FC0
1FFFE0
1FE7E0
1F87E0
1F87E0
1F87E0
1F87E0
1F87E0
1F87E0
0007E0
0007E0
0007E0
0007E0
000000
ENDCHAR

STARTCHAR afii9971
ENCODING 223
SWIDTH 1136 0
DWIDTH 22 0
BBX 22 20 0 -5
BITMAP
000000
000000
001F80
007E00
01F000
000000
0FFC00
0FFC00
0FFC00
00FC00
00FC00
00FC00
00FC00
3FFFF0
3FFFF0
000000
000000
000000
000000
000000
ENDCHAR

STARTCHAR afii9978
ENCODING 224
SWIDTH 1136 0
DWIDTH 22 0
BBX 22 20 0 -5
BITMAP
000000
000000
000C00
019B00
01B300
000000
1F87E0
1F87E0
1F87E0
1F87E0
1F87E0
1F87E0
1F87E0
0FFFC0
03FF00
000000
000000
000000
000000
000000
ENDCHAR

STARTCHAR afii9825
ENCODING 225
SWIDTH 1136 0
DWIDTH 22 0
BBX 22 20 0 -5
BITMAP
000000
000000
000000
000000
000000
000000
0FFCFC
3FFFFC
7E07F8
FC03F0
FC03F0
FC03F0
7E07F8
3FFFFC
0FFCFC
000000
000000
000000
000000
000000
ENDCHAR

STARTCHAR afii9826
ENCODING 226
SWIDTH 1136 0
DWIDTH 22 0
BBX 22 20 0 -5
BITMAP
000000
000000
000000
01FF00
078FC0
0F8FC0
1F8FC0
1F9F80
1FBF00
1F8FC0
1F87E0
1F87E0
1F87E0
1FCFC0
1FFF80
1F8000
1F8000
1F8000
1F8000
000000
ENDCHAR

STARTCHAR afii9828
ENCODING 227
SWIDTH 1136 0
DWIDTH 22 0
BBX 22 20 0 -5
BITMAP
000000
000000
000000
000000
000000
000000
7E01F8
7E01F8
3F03F0
3F07E0
1F8FC0
1F9F80
0FDF00
07FE00
03FC00
01F800
01F800
01F800
01F800
000000
ENDCHAR

STARTCHAR afii9829
ENCODING 228
SWIDTH 1136 0
DWIDTH 22 0
BBX 22 20 0 -5
BITMAP
000000
000000
000000
0FFFC0
0F8000
01E000
0FFFC0
3FFFF0
3F03F0
7E01F8
7E01F8
7E01F8
3F03F0
3FFFF0
0FFFC0
000000
000000
000000
000000
000000
ENDCHAR

STARTCHAR afii9830
ENCODING 229
SWIDTH 1136 0
DWIDTH 22 0
BBX 22 20 0 -5
BITMAP
000000
000000
000000
000000
000000
000000
01FFC0
07E3E0
0FC1C0
07C000
03F000
07C000
0FC1C0
07E3E0
01FFC0
000000
000000
000000
000000
000000
ENDCHAR

STARTCHAR afii9833
ENCODING 230
SWIDTH 1136 0
DWIDTH 22 0
BBX 22 20 0 -5
BITMAP
000000
000000
000000
01FFC0
001F80
003F00
007E00
00FC00
01F800
03F000
07E000
07E000
07E000
03E000
01FC00
003FC0
0007E0
0007E0
001F80
000000
ENDCHAR

STARTCHAR afii9834
ENCODING 231
SWIDTH 1136 0
DWIDTH 22 0
BBX 22 20 0 -5
BITMAP
000000
000000
000000
000000
000000
000000
1F9FC0
1FFFE0
1FE7E0
1F87E0
1F87E0
1F87E0
1F87E0
1F87E0
1F87E0
0007E0
0007E0
0007E0
0007E0
000000
ENDCHAR

STARTCHAR afii9835
ENCODING 232
SWIDTH 1136 0
DWIDTH 22 0
BBX 22 20 0 -5
BITMAP
000000
000000
000000
000000
03FF00
1FFFE0
3F03F0
7E01F8
7E01F8
7FFFF8
7E01F8
7E01F8
3F03F0
1FFFE0
03FF00
000000
000000
000000
000000
000000
ENDCHAR

STARTCHAR afii9836
ENCODING 233
SWIDTH 1136 0
DWIDTH 22 0
BBX 22 20 0 -5
BITMAP
000000
000000
000000
000000
000000
000000
0FFC00
0FFC00
0FFC00
00FC00
00FC00
00FC00
00FC00
3FFFF0
3FFFF0
000000
000000
000000
000000
000000
ENDCHAR

STARTCHAR afii9837
ENCODING 234
SWIDTH 1125 0
DWIDTH 22 0
BBX 22 20 0 -5
BITMAP
000000
000000
000000
000000
000000
000000
1F8FF0
1F8FF0
1F9F00
1FBC00
1FFC00
1FFE00
1F8F80
1F87F8
1F83F8
000000
000000
000000
000000
000000
ENDCHAR

STARTCHAR afii9838
ENCODING 235
SWIDTH 1136 0
DWIDTH 22 0
BBX 22 20 0 -5
BITMAP
000000
000000
000000
0FC000
07E000
03F000
01F800
01FC00
03FE00
07FF00
0FCF80
1F8FC0
3F07E0
7E03F0
7E03F0
000000
000000
000000
000000
000000
ENDCHAR

STARTCHAR afii9839
ENCODING 236
SWIDTH 1136 0
DWIDTH 22 0
BBX 22 20 0 -5
BITMAP
000000
000000
000000
000000
000000
000000
1F87E0
1F87E0
1F87E0
1F87E0
1F87E0
1F87E0
1F8FE0
1FFFE0
1FF7E0
1F8000
1F8000
1F8000
1F8000
000000
ENDCHAR

STARTCHAR afii9840
ENCODING 237
SWIDTH 1136 0
DWIDTH 22 0
BBX 22 20 0 -5
BITMAP
000000
000000
000000
000000
000000
000000
7E01F8
7F03F8
1F87E0
0FCFC0
07FF80
03FF00
01FE00
00FC00
007800
000000
000000
000000
000000
000000
ENDCHAR

STARTCHAR afii9841
ENCODING 238
SWIDTH 1136 0
DWIDTH 22 0
BBX 22 20 0 -5
BITMAP
000000
000000
000000
00FFC0
01F800
03F000
03F000
01F800
003F00
01F800
03F000
07E000
07E000
03F000
007F00
0007E0
0007E0
003F80
000000
000000
ENDCHAR

STARTCHAR afii9842
ENCODING 239
SWIDTH 1136 0
DWIDTH 22 0
BBX 22 20 0 -5
BITMAP
000000
000000
000000
000000
000000
000000
0FFFC0
3FFFF0
3F03F0
7E01F8
7E01F8
7E01F8
3F03F0
3FFFF0
0FFFC0
000000
000000
000000
000000
000000
ENDCHAR

STARTCHAR afii9843
ENCODING 240
SWIDTH 1136 0
DWIDTH 22 0
BBX 22 20 0 -5
BITMAP
000000
000000
000000
000000
000000
000000
7FFFF8
7FFFF8
1F87E0
1F87E0
1F87E0
1F87E0
1F87E0
7F87F8
7F87F8
000000
000000
000000
000000
000000
ENDCHAR

STARTCHAR afii9845
ENCODING 241
SWIDTH 1136 0
DWIDTH 22 0
BBX 22 20 0 -5
BITMAP
000000
000000
000000
000000
000000
000000
01FFC0
07FFF0
0FC3F0
1F81F8
1F81F8
1F81F8
1FC3F0
1FFFF0
1F9FE0
1F8000
1F8000
1F8000
1F8000
000000
ENDCHAR

STARTCHAR afii9847
ENCODING 242
SWIDTH 1136 0
DWIDTH 22 0
BBX 22 20 0 -5
BITMAP
000000
000000
000000
000000
000000
000000
0FFE78
3FFFF8
3F01F8
7E0078
7E0000
7E0000
3F0000
3FF800
0FFE00
00FF00
000FC0
0007C0
007F00
000000
ENDCHAR

STARTCHAR afii9846
ENCODING 243
SWIDTH 1136 0
DWIDTH 22 0
BBX 22 20 0 -5
BITMAP
000000
000000
000000
000000
000000
000000
1FFFFC
7FFFFC
7E07E0
FC03F0
FC03F0
FC03F0
7E07E0
7FFFE0
1FFF80
000000
000000
000000
000000
000000
ENDCHAR

STARTCHAR afii9848
ENCODING 244
SWIDTH 1136 0
DWIDTH 22 0
BBX 22 20 0 -5
BITMAP
000000
000000
000000
000000
000000
000000
3FFFC0
01F800
01F800
01F800
01F800
01F800
01F800
01F800
01F800
000000
000000
000000
000000
000000
ENDCHAR

STARTCHAR afii9849
ENCODING 245
SWIDTH 1136 0
DWIDTH 22 0
BBX 22 20 0 -5
BITMAP
000000
000000
000000
000000
000000
000000
1F87E0
1F87E0
1F87E0
1F87E0
1F87E0
1F87E0
1F87E0
0FFFC0
03FF00
000000
000000
000000
000000
000000
ENDCHAR

STARTCHAR afii9850
ENCODING 246
SWIDTH 1136 0
DWIDTH 22 0
BBX 22 20 0 -5
BITMAP
000000
000000
000000
000000
000000
000000
0F1FC0
3E79F0
7CF8F8
7CF8F8
7CF8F8
7CF8F8
7CF8F8
3CF9F0
1FFFC0
00F800
00F800
00F800
00F800
000000
ENDCHAR

STARTCHAR afii9851
ENCODING 247
SWIDTH 1136 0
DWIDTH 22 0
BBX 22 20 0 -5
BITMAP
000000
000000
000000
000000
000000
000000
3F03F0
3F03F0
1F87E0
0FCFC0
07FF80
03FF00
01FE00
01FE00
03FF00
07FF80
0FCFC0
1F87E0
3F03F0
000000
ENDCHAR

STARTCHAR afii9852
ENCODING 248
SWIDTH 1136 0
DWIDTH 22 0
BBX 22 20 0 -5
BITMAP
000000
000000
000000
000000
000000
000000
7CFCF8
7CFCF8
7CFCF8
7CFCF8
7CFCF8
7CFCF8
7CFCF8
3EFDF0
0FFFC0
00FC00
00FC00
00FC00
00FC00
000000
ENDCHAR

STARTCHAR afii9853
ENCODING 249
SWIDTH 1136 0
DWIDTH 22 0
BBX 22 20 0 -5
BITMAP
000000
000000
000000
000000
000000
000000
1F8FC0
3F07E0
7E03F0
7E01F8
7E79F8
7E79F8
7E79F8
3F7BF0
0FCFC0
000000
000000
000000
000000
000000
ENDCHAR

STARTCHAR afii9975
ENCODING 250
SWIDTH 1136 0
DWIDTH 22 0
BBX 22 20 0 -5
BITMAP
000000
000000
1E01E0
3F03F0
1E01E0
000000
0FFC00
0FFC00
0FFC00
00FC00
00FC00
00FC00
00FC00
3FFFF0
3FFFF0
000000
000000
000000
000000
000000
ENDCHAR

STARTCHAR afii9976
ENCODING 251
SWIDTH 1136 0
DWIDTH 22 0
BBX 22 20 0 -5
BITMAP
000000
000000
0F03C0
1F87E0
0F03C0
000000
1F87E0
1F87E0
1F87E0
1F87E0
1F87E0
1F87E0
1F87E0
0FFFC0
03FF00
000000
000000
000000
000000
000000
ENDCHAR

STARTCHAR afii9972
ENCODING 252
SWIDTH 1136 0
DWIDTH 22 0
BBX 22 20 0 -5
BITMAP
000000
000000
001F80
007E00
01F000
000000
0FFFC0
3FFFF0
3F03F0
7E01F8
7E01F8
7E01F8
3F03F0
3FFFF0
0FFFC0
000000
000000
000000
000000
000000
ENDCHAR

STARTCHAR afii9973
ENCODING 253
SWIDTH 1136 0
DWIDTH 22 0
BBX 22 20 0 -5
BITMAP
000000
000000
001F80
007E00
01F000
000000
1F87E0
1F87E0
1F87E0
1F87E0
1F87E0
1F87E0
1F87E0
0FFFC0
03FF00
000000
000000
000000
000000
000000
ENDCHAR

STARTCHAR afii9974
ENCODING 254
SWIDTH 1136 0
DWIDTH 22 0
BBX 22 20 0 -5
BITMAP
000000
000000
001F80
007E00
01F000
000000
1F8FC0
3F07E0
7E03F0
7E01F8
7E79F8
7E79F8
7E79F8
3F7BF0
0FCFC0
000000
000000
000000
000000
000000
ENDCHAR

ENDFONT
