STARTFONT 2.1
FONT -SGI-Fixed-Bold-R-Normal--15-140-75-75-C-90-ISO8859-2
SIZE 14 75 75
FONTBOUNDINGBOX 9 15 0 -3

STARTPROPERTIES 21
FONTNAME_REGISTRY ""
FOUNDRY "SGI"
FAMILY_NAME "Fixed"
WEIGHT_NAME "Medium"
SLANT "R"
SETWIDTH_NAME "Normal"
ADD_STYLE_NAME ""
PIXEL_SIZE 15
POINT_SIZE 140
RESOLUTION_X 75
RESOLUTION_Y 75
SPACING "C"
AVERAGE_WIDTH 90
CHARSET_REGISTRY "ISO8859"
CHARSET_ENCODING "2"
X_HEIGHT 8
WEIGHT 10
QUAD_WIDTH 9
DEFAULT_CHAR 0
FONT_DESCENT 3
FONT_ASCENT 12
ENDPROPERTIES

CHARS 190

STARTCHAR SPACE
ENCODING 32
SWIDTH 714 0
DWIDTH 9 0
BBX 9 15 0 -3
BITMAP
0000
0000
0000
0000
0000
0000
0000
0000
0000
0000
0000
0000
0000
0000
0000
ENDCHAR

STARTCHAR !
ENCODING 33
SWIDTH 714 0
DWIDTH 9 0
BBX 9 15 0 -3
BITMAP
0000
0000
0C00
0C00
0C00
0C00
0C00
0C00
0C00
0C00
0000
0C00
0000
0000
0000
ENDCHAR

STARTCHAR "
ENCODING 34
SWIDTH 714 0
DWIDTH 9 0
BBX 9 15 0 -3
BITMAP
0000
0000
1B00
1B00
1B00
0000
0000
0000
0000
0000
0000
0000
0000
0000
0000
ENDCHAR

STARTCHAR #
ENCODING 35
SWIDTH 714 0
DWIDTH 9 0
BBX 9 15 0 -3
BITMAP
0000
0000
0000
3600
3600
7F00
3600
3600
7F00
3600
3600
0000
0000
0000
0000
ENDCHAR

STARTCHAR $
ENCODING 36
SWIDTH 714 0
DWIDTH 9 0
BBX 9 15 0 -3
BITMAP
0000
0000
0000
0C00
3F00
6C00
6C00
3F00
0D80
0D80
3F00
0C00
0000
0000
0000
ENDCHAR

STARTCHAR %
ENCODING 37
SWIDTH 714 0
DWIDTH 9 0
BBX 9 15 0 -3
BITMAP
0000
0000
3180
7B00
7B00
3600
0C00
0C00
1B00
3780
3780
6300
0000
0000
0000
ENDCHAR

STARTCHAR &
ENCODING 38
SWIDTH 714 0
DWIDTH 9 0
BBX 9 15 0 -3
BITMAP
0000
0000
3C00
6600
6600
6600
3C00
6600
6780
6300
6700
3D80
0000
0000
0000
ENDCHAR

STARTCHAR '
ENCODING 39
SWIDTH 714 0
DWIDTH 9 0
BBX 9 15 0 -3
BITMAP
0000
0000
0F00
0E00
1800
0000
0000
0000
0000
0000
0000
0000
0000
0000
0000
ENDCHAR

STARTCHAR (
ENCODING 40
SWIDTH 714 0
DWIDTH 9 0
BBX 9 15 0 -3
BITMAP
0000
0000
0600
0C00
0C00
1800
1800
1800
1800
0C00
0C00
0600
0000
0000
0000
ENDCHAR

STARTCHAR )
ENCODING 41
SWIDTH 714 0
DWIDTH 9 0
BBX 9 15 0 -3
BITMAP
0000
0000
1800
0C00
0C00
0600
0600
0600
0600
0C00
0C00
1800
0000
0000
0000
ENDCHAR

STARTCHAR *
ENCODING 42
SWIDTH 714 0
DWIDTH 9 0
BBX 9 15 0 -3
BITMAP
0000
0000
0000
0000
0000
3300
1E00
7F80
1E00
3300
0000
0000
0000
0000
0000
ENDCHAR

STARTCHAR +
ENCODING 43
SWIDTH 714 0
DWIDTH 9 0
BBX 9 15 0 -3
BITMAP
0000
0000
0000
0000
0C00
0C00
0C00
7F80
0C00
0C00
0C00
0000
0000
0000
0000
ENDCHAR

STARTCHAR ,
ENCODING 44
SWIDTH 714 0
DWIDTH 9 0
BBX 9 15 0 -3
BITMAP
0000
0000
0000
0000
0000
0000
0000
0000
0000
0000
1E00
1C00
3000
0000
0000
ENDCHAR

STARTCHAR -
ENCODING 45
SWIDTH 714 0
DWIDTH 9 0
BBX 9 15 0 -3
BITMAP
0000
0000
0000
0000
0000
0000
0000
7F80
0000
0000
0000
0000
0000
0000
0000
ENDCHAR

STARTCHAR .
ENCODING 46
SWIDTH 714 0
DWIDTH 9 0
BBX 9 15 0 -3
BITMAP
0000
0000
0000
0000
0000
0000
0000
0000
0000
0000
0C00
1E00
0C00
0000
0000
ENDCHAR

STARTCHAR /
ENCODING 47
SWIDTH 714 0
DWIDTH 9 0
BBX 9 15 0 -3
BITMAP
0000
0000
0180
0300
0300
0600
0C00
0C00
1800
3000
3000
6000
0000
0000
0000
ENDCHAR

STARTCHAR 0
ENCODING 48
SWIDTH 714 0
DWIDTH 9 0
BBX 9 15 0 -3
BITMAP
0000
0000
1E00
3300
6180
6180
6180
6180
6180
6180
3300
1E00
0000
0000
0000
ENDCHAR

STARTCHAR 1
ENCODING 49
SWIDTH 714 0
DWIDTH 9 0
BBX 9 15 0 -3
BITMAP
0000
0000
0C00
1C00
3C00
0C00
0C00
0C00
0C00
0C00
0C00
3F00
0000
0000
0000
ENDCHAR

STARTCHAR 2
ENCODING 50
SWIDTH 714 0
DWIDTH 9 0
BBX 9 15 0 -3
BITMAP
0000
0000
3F00
6180
6180
0180
0300
0600
1C00
3000
6000
7F80
0000
0000
0000
ENDCHAR

STARTCHAR 3
ENCODING 51
SWIDTH 714 0
DWIDTH 9 0
BBX 9 15 0 -3
BITMAP
0000
0000
7F80
0180
0300
0600
0F00
0180
0180
0180
6180
3F00
0000
0000
0000
ENDCHAR

STARTCHAR 4
ENCODING 52
SWIDTH 714 0
DWIDTH 9 0
BBX 9 15 0 -3
BITMAP
0000
0000
0300
0700
0F00
1B00
3300
6300
7F80
0300
0300
0300
0000
0000
0000
ENDCHAR

STARTCHAR 5
ENCODING 53
SWIDTH 714 0
DWIDTH 9 0
BBX 9 15 0 -3
BITMAP
0000
0000
7F80
6000
6000
7F00
7180
0180
0180
0180
6180
3F00
0000
0000
0000
ENDCHAR

STARTCHAR 6
ENCODING 54
SWIDTH 714 0
DWIDTH 9 0
BBX 9 15 0 -3
BITMAP
0000
0000
1F00
3000
6000
6000
7F00
7180
6180
6180
6180
3F00
0000
0000
0000
ENDCHAR

STARTCHAR 7
ENCODING 55
SWIDTH 714 0
DWIDTH 9 0
BBX 9 15 0 -3
BITMAP
0000
0000
7F80
0180
0180
0300
0600
0C00
1800
1800
3000
3000
0000
0000
0000
ENDCHAR

STARTCHAR 8
ENCODING 56
SWIDTH 714 0
DWIDTH 9 0
BBX 9 15 0 -3
BITMAP
0000
0000
3F00
6180
6180
6180
3F00
6180
6180
6180
6180
3F00
0000
0000
0000
ENDCHAR

STARTCHAR 9
ENCODING 57
SWIDTH 714 0
DWIDTH 9 0
BBX 9 15 0 -3
BITMAP
0000
0000
3F00
6180
6180
6180
6380
3F80
0180
0180
0300
3E00
0000
0000
0000
ENDCHAR

STARTCHAR :
ENCODING 58
SWIDTH 714 0
DWIDTH 9 0
BBX 9 15 0 -3
BITMAP
0000
0000
0000
0000
0000
0C00
1E00
0C00
0000
0000
0C00
1E00
0C00
0000
0000
ENDCHAR

STARTCHAR ;
ENCODING 59
SWIDTH 714 0
DWIDTH 9 0
BBX 9 15 0 -3
BITMAP
0000
0000
0000
0000
0000
0C00
1E00
0C00
0000
0000
1E00
1C00
3000
0000
0000
ENDCHAR

STARTCHAR <
ENCODING 60
SWIDTH 714 0
DWIDTH 9 0
BBX 9 15 0 -3
BITMAP
0000
0000
0300
0600
0C00
1800
3000
3000
1800
0C00
0600
0300
0000
0000
0000
ENDCHAR

STARTCHAR =
ENCODING 61
SWIDTH 714 0
DWIDTH 9 0
BBX 9 15 0 -3
BITMAP
0000
0000
0000
0000
0000
0000
7F80
0000
0000
7F80
0000
0000
0000
0000
0000
ENDCHAR

STARTCHAR >
ENCODING 62
SWIDTH 714 0
DWIDTH 9 0
BBX 9 15 0 -3
BITMAP
0000
0000
3000
1800
0C00
0600
0300
0300
0600
0C00
1800
3000
0000
0000
0000
ENDCHAR

STARTCHAR ?
ENCODING 63
SWIDTH 714 0
DWIDTH 9 0
BBX 9 15 0 -3
BITMAP
0000
0000
3F00
6180
6180
0180
0300
0600
0C00
0C00
0000
0C00
0000
0000
0000
ENDCHAR

STARTCHAR @
ENCODING 64
SWIDTH 714 0
DWIDTH 9 0
BBX 9 15 0 -3
BITMAP
0000
0000
3F00
6180
6180
6F80
7980
7B80
6F80
6000
6000
3F00
0000
0000
0000
ENDCHAR

STARTCHAR A
ENCODING 65
SWIDTH 714 0
DWIDTH 9 0
BBX 9 15 0 -3
BITMAP
0000
0000
0C00
1E00
3300
6180
6180
6180
7F80
6180
6180
6180
0000
0000
0000
ENDCHAR

STARTCHAR B
ENCODING 66
SWIDTH 714 0
DWIDTH 9 0
BBX 9 15 0 -3
BITMAP
0000
0000
7F00
3180
3180
3180
3F00
3180
3180
3180
3180
7F00
0000
0000
0000
ENDCHAR

STARTCHAR C
ENCODING 67
SWIDTH 714 0
DWIDTH 9 0
BBX 9 15 0 -3
BITMAP
0000
0000
3F00
6180
6000
6000
6000
6000
6000
6000
6180
3F00
0000
0000
0000
ENDCHAR

STARTCHAR D
ENCODING 68
SWIDTH 714 0
DWIDTH 9 0
BBX 9 15 0 -3
BITMAP
0000
0000
7F00
3180
3180
3180
3180
3180
3180
3180
3180
7F00
0000
0000
0000
ENDCHAR

STARTCHAR E
ENCODING 69
SWIDTH 714 0
DWIDTH 9 0
BBX 9 15 0 -3
BITMAP
0000
0000
7F80
3000
3000
3000
3E00
3000
3000
3000
3000
7F80
0000
0000
0000
ENDCHAR

STARTCHAR F
ENCODING 70
SWIDTH 714 0
DWIDTH 9 0
BBX 9 15 0 -3
BITMAP
0000
0000
7F80
3000
3000
3000
3E00
3000
3000
3000
3000
3000
0000
0000
0000
ENDCHAR

STARTCHAR G
ENCODING 71
SWIDTH 714 0
DWIDTH 9 0
BBX 9 15 0 -3
BITMAP
0000
0000
3F00
6180
6000
6000
6000
6780
6180
6180
6180
3F00
0000
0000
0000
ENDCHAR

STARTCHAR H
ENCODING 72
SWIDTH 714 0
DWIDTH 9 0
BBX 9 15 0 -3
BITMAP
0000
0000
6180
6180
6180
6180
7F80
6180
6180
6180
6180
6180
0000
0000
0000
ENDCHAR

STARTCHAR I
ENCODING 73
SWIDTH 714 0
DWIDTH 9 0
BBX 9 15 0 -3
BITMAP
0000
0000
3F00
0C00
0C00
0C00
0C00
0C00
0C00
0C00
0C00
3F00
0000
0000
0000
ENDCHAR

STARTCHAR J
ENCODING 74
SWIDTH 714 0
DWIDTH 9 0
BBX 9 15 0 -3
BITMAP
0000
0000
0F80
0300
0300
0300
0300
0300
0300
0300
6300
3E00
0000
0000
0000
ENDCHAR

STARTCHAR K
ENCODING 75
SWIDTH 714 0
DWIDTH 9 0
BBX 9 15 0 -3
BITMAP
0000
0000
6180
6300
6600
6C00
7800
7800
6C00
6600
6300
6180
0000
0000
0000
ENDCHAR

STARTCHAR L
ENCODING 76
SWIDTH 714 0
DWIDTH 9 0
BBX 9 15 0 -3
BITMAP
0000
0000
6000
6000
6000
6000
6000
6000
6000
6000
6000
7F80
0000
0000
0000
ENDCHAR

STARTCHAR M
ENCODING 77
SWIDTH 714 0
DWIDTH 9 0
BBX 9 15 0 -3
BITMAP
0000
0000
6180
6180
7380
7F80
7F80
6D80
6D80
6180
6180
6180
0000
0000
0000
ENDCHAR

STARTCHAR N
ENCODING 78
SWIDTH 714 0
DWIDTH 9 0
BBX 9 15 0 -3
BITMAP
0000
0000
6180
6180
7180
7980
6D80
6780
6380
6180
6180
6180
0000
0000
0000
ENDCHAR

STARTCHAR O
ENCODING 79
SWIDTH 714 0
DWIDTH 9 0
BBX 9 15 0 -3
BITMAP
0000
0000
3F00
6180
6180
6180
6180
6180
6180
6180
6180
3F00
0000
0000
0000
ENDCHAR

STARTCHAR P
ENCODING 80
SWIDTH 714 0
DWIDTH 9 0
BBX 9 15 0 -3
BITMAP
0000
0000
7F00
6180
6180
6180
7F00
6000
6000
6000
6000
6000
0000
0000
0000
ENDCHAR

STARTCHAR Q
ENCODING 81
SWIDTH 714 0
DWIDTH 9 0
BBX 9 15 0 -3
BITMAP
0000
0000
3F00
6180
6180
6180
6180
6180
6180
6D80
6780
3F00
0180
0000
0000
ENDCHAR

STARTCHAR R
ENCODING 82
SWIDTH 714 0
DWIDTH 9 0
BBX 9 15 0 -3
BITMAP
0000
0000
7F00
6180
6180
6180
7F00
6C00
6600
6300
6180
6180
0000
0000
0000
ENDCHAR

STARTCHAR S
ENCODING 83
SWIDTH 714 0
DWIDTH 9 0
BBX 9 15 0 -3
BITMAP
0000
0000
3F00
6180
6000
6000
3F00
0180
0180
0180
6180
3F00
0000
0000
0000
ENDCHAR

STARTCHAR T
ENCODING 84
SWIDTH 714 0
DWIDTH 9 0
BBX 9 15 0 -3
BITMAP
0000
0000
7F80
0C00
0C00
0C00
0C00
0C00
0C00
0C00
0C00
0C00
0000
0000
0000
ENDCHAR

STARTCHAR U
ENCODING 85
SWIDTH 714 0
DWIDTH 9 0
BBX 9 15 0 -3
BITMAP
0000
0000
6180
6180
6180
6180
6180
6180
6180
6180
6180
3F00
0000
0000
0000
ENDCHAR

STARTCHAR V
ENCODING 86
SWIDTH 714 0
DWIDTH 9 0
BBX 9 15 0 -3
BITMAP
0000
0000
6180
6180
6180
3300
3300
3300
1E00
1E00
1E00
0C00
0000
0000
0000
ENDCHAR

STARTCHAR W
ENCODING 87
SWIDTH 714 0
DWIDTH 9 0
BBX 9 15 0 -3
BITMAP
0000
0000
6180
6180
6180
6180
6D80
6D80
6D80
6D80
7F80
3300
0000
0000
0000
ENDCHAR

STARTCHAR X
ENCODING 88
SWIDTH 714 0
DWIDTH 9 0
BBX 9 15 0 -3
BITMAP
0000
0000
6180
6180
3300
1E00
0C00
0C00
1E00
3300
6180
6180
0000
0000
0000
ENDCHAR

STARTCHAR Y
ENCODING 89
SWIDTH 714 0
DWIDTH 9 0
BBX 9 15 0 -3
BITMAP
0000
0000
6180
6180
3300
1E00
0C00
0C00
0C00
0C00
0C00
0C00
0000
0000
0000
ENDCHAR

STARTCHAR Z
ENCODING 90
SWIDTH 714 0
DWIDTH 9 0
BBX 9 15 0 -3
BITMAP
0000
0000
7F80
0180
0300
0600
0C00
1800
3000
6000
6000
7F80
0000
0000
0000
ENDCHAR

STARTCHAR [
ENCODING 91
SWIDTH 714 0
DWIDTH 9 0
BBX 9 15 0 -3
BITMAP
0000
0000
1F00
1800
1800
1800
1800
1800
1800
1800
1800
1F00
0000
0000
0000
ENDCHAR

STARTCHAR \
ENCODING 92
SWIDTH 714 0
DWIDTH 9 0
BBX 9 15 0 -3
BITMAP
0000
0000
6000
3000
3000
1800
0C00
0C00
0600
0300
0300
0180
0000
0000
0000
ENDCHAR

STARTCHAR ]
ENCODING 93
SWIDTH 714 0
DWIDTH 9 0
BBX 9 15 0 -3
BITMAP
0000
0000
3E00
0600
0600
0600
0600
0600
0600
0600
0600
3E00
0000
0000
0000
ENDCHAR

STARTCHAR ^
ENCODING 94
SWIDTH 714 0
DWIDTH 9 0
BBX 9 15 0 -3
BITMAP
0000
0000
0C00
1E00
3300
6180
0000
0000
0000
0000
0000
0000
0000
0000
0000
ENDCHAR

STARTCHAR _
ENCODING 95
SWIDTH 714 0
DWIDTH 9 0
BBX 9 15 0 -3
BITMAP
0000
0000
0000
0000
0000
0000
0000
0000
0000
0000
0000
0000
FF80
0000
0000
ENDCHAR

STARTCHAR `
ENCODING 96
SWIDTH 714 0
DWIDTH 9 0
BBX 9 15 0 -3
BITMAP
0000
0000
3C00
1C00
0600
0000
0000
0000
0000
0000
0000
0000
0000
0000
0000
ENDCHAR

STARTCHAR a
ENCODING 97
SWIDTH 714 0
DWIDTH 9 0
BBX 9 15 0 -3
BITMAP
0000
0000
0000
0000
0000
3F00
0180
0180
3F80
6180
6380
3F80
0000
0000
0000
ENDCHAR

STARTCHAR b
ENCODING 98
SWIDTH 714 0
DWIDTH 9 0
BBX 9 15 0 -3
BITMAP
0000
0000
6000
6000
6000
7F00
7180
6180
6180
6180
7180
7F00
0000
0000
0000
ENDCHAR

STARTCHAR c
ENCODING 99
SWIDTH 714 0
DWIDTH 9 0
BBX 9 15 0 -3
BITMAP
0000
0000
0000
0000
0000
3F00
6180
6000
6000
6000
6180
3F00
0000
0000
0000
ENDCHAR

STARTCHAR d
ENCODING 100
SWIDTH 714 0
DWIDTH 9 0
BBX 9 15 0 -3
BITMAP
0000
0000
0180
0180
0180
3F80
6380
6180
6180
6180
6380
3F80
0000
0000
0000
ENDCHAR

STARTCHAR e
ENCODING 101
SWIDTH 714 0
DWIDTH 9 0
BBX 9 15 0 -3
BITMAP
0000
0000
0000
0000
0000
3F00
6180
6180
7F80
6000
6000
3F00
0000
0000
0000
ENDCHAR

STARTCHAR f
ENCODING 102
SWIDTH 714 0
DWIDTH 9 0
BBX 9 15 0 -3
BITMAP
0000
0000
0F00
1980
1980
1800
1800
7E00
1800
1800
1800
1800
0000
0000
0000
ENDCHAR

STARTCHAR g
ENCODING 103
SWIDTH 714 0
DWIDTH 9 0
BBX 9 15 0 -3
BITMAP
0000
0000
0000
0000
0000
3F80
6300
6300
6300
3E00
6000
3F00
6180
6180
3F00
ENDCHAR

STARTCHAR h
ENCODING 104
SWIDTH 714 0
DWIDTH 9 0
BBX 9 15 0 -3
BITMAP
0000
0000
6000
6000
6000
7F00
7180
6180
6180
6180
6180
6180
0000
0000
0000
ENDCHAR

STARTCHAR i
ENCODING 105
SWIDTH 714 0
DWIDTH 9 0
BBX 9 15 0 -3
BITMAP
0000
0000
0000
0C00
0000
1C00
0C00
0C00
0C00
0C00
0C00
3F00
0000
0000
0000
ENDCHAR

STARTCHAR j
ENCODING 106
SWIDTH 714 0
DWIDTH 9 0
BBX 9 15 0 -3
BITMAP
0000
0000
0000
0300
0000
0F00
0300
0300
0300
0300
0300
6300
6300
6300
3E00
ENDCHAR

STARTCHAR k
ENCODING 107
SWIDTH 714 0
DWIDTH 9 0
BBX 9 15 0 -3
BITMAP
0000
0000
6000
6000
6000
6180
6700
7C00
7000
7C00
6700
6180
0000
0000
0000
ENDCHAR

STARTCHAR l
ENCODING 108
SWIDTH 714 0
DWIDTH 9 0
BBX 9 15 0 -3
BITMAP
0000
0000
1C00
0C00
0C00
0C00
0C00
0C00
0C00
0C00
0C00
3F00
0000
0000
0000
ENDCHAR

STARTCHAR m
ENCODING 109
SWIDTH 714 0
DWIDTH 9 0
BBX 9 15 0 -3
BITMAP
0000
0000
0000
0000
0000
7F00
6D80
6D80
6D80
6D80
6D80
6180
0000
0000
0000
ENDCHAR

STARTCHAR n
ENCODING 110
SWIDTH 714 0
DWIDTH 9 0
BBX 9 15 0 -3
BITMAP
0000
0000
0000
0000
0000
7F00
7180
6180
6180
6180
6180
6180
0000
0000
0000
ENDCHAR

STARTCHAR o
ENCODING 111
SWIDTH 714 0
DWIDTH 9 0
BBX 9 15 0 -3
BITMAP
0000
0000
0000
0000
0000
3F00
6180
6180
6180
6180
6180
3F00
0000
0000
0000
ENDCHAR

STARTCHAR p
ENCODING 112
SWIDTH 714 0
DWIDTH 9 0
BBX 9 15 0 -3
BITMAP
0000
0000
0000
0000
0000
7F00
7180
6180
6180
6180
7180
7F00
6000
6000
6000
ENDCHAR

STARTCHAR q
ENCODING 113
SWIDTH 714 0
DWIDTH 9 0
BBX 9 15 0 -3
BITMAP
0000
0000
0000
0000
0000
3F80
6380
6180
6180
6180
6380
3F80
0180
0180
0180
ENDCHAR

STARTCHAR r
ENCODING 114
SWIDTH 714 0
DWIDTH 9 0
BBX 9 15 0 -3
BITMAP
0000
0000
0000
0000
0000
6F00
3980
3180
3000
3000
3000
3000
0000
0000
0000
ENDCHAR

STARTCHAR s
ENCODING 115
SWIDTH 714 0
DWIDTH 9 0
BBX 9 15 0 -3
BITMAP
0000
0000
0000
0000
0000
3F00
6180
6000
3F00
0180
6180
3F00
0000
0000
0000
ENDCHAR

STARTCHAR t
ENCODING 116
SWIDTH 714 0
DWIDTH 9 0
BBX 9 15 0 -3
BITMAP
0000
0000
0000
1800
1800
7F00
1800
1800
1800
1800
1980
0F00
0000
0000
0000
ENDCHAR

STARTCHAR u
ENCODING 117
SWIDTH 714 0
DWIDTH 9 0
BBX 9 15 0 -3
BITMAP
0000
0000
0000
0000
0000
6300
6300
6300
6300
6300
6300
3F80
0000
0000
0000
ENDCHAR

STARTCHAR v
ENCODING 118
SWIDTH 714 0
DWIDTH 9 0
BBX 9 15 0 -3
BITMAP
0000
0000
0000
0000
0000
6180
6180
3300
3300
1E00
1E00
0C00
0000
0000
0000
ENDCHAR

STARTCHAR w
ENCODING 119
SWIDTH 714 0
DWIDTH 9 0
BBX 9 15 0 -3
BITMAP
0000
0000
0000
0000
0000
6180
6180
6D80
6D80
6D80
7F80
3300
0000
0000
0000
ENDCHAR

STARTCHAR x
ENCODING 120
SWIDTH 714 0
DWIDTH 9 0
BBX 9 15 0 -3
BITMAP
0000
0000
0000
0000
0000
6180
3300
1E00
0C00
1E00
3300
6180
0000
0000
0000
ENDCHAR

STARTCHAR y
ENCODING 121
SWIDTH 714 0
DWIDTH 9 0
BBX 9 15 0 -3
BITMAP
0000
0000
0000
0000
0000
6300
6300
6300
6300
6300
6700
3F00
0300
6300
3E00
ENDCHAR

STARTCHAR z
ENCODING 122
SWIDTH 714 0
DWIDTH 9 0
BBX 9 15 0 -3
BITMAP
0000
0000
0000
0000
0000
7F80
0300
0600
0C00
1800
3000
7F80
0000
0000
0000
ENDCHAR

STARTCHAR {
ENCODING 123
SWIDTH 714 0
DWIDTH 9 0
BBX 9 15 0 -3
BITMAP
0000
0000
0780
0C00
0C00
0600
1C00
1C00
0600
0C00
0C00
0780
0000
0000
0000
ENDCHAR

STARTCHAR |
ENCODING 124
SWIDTH 714 0
DWIDTH 9 0
BBX 9 15 0 -3
BITMAP
0000
0000
0C00
0C00
0C00
0C00
0C00
0C00
0C00
0C00
0C00
0C00
0000
0000
0000
ENDCHAR

STARTCHAR }
ENCODING 125
SWIDTH 714 0
DWIDTH 9 0
BBX 9 15 0 -3
BITMAP
0000
0000
7800
0C00
0C00
1800
0E00
0E00
1800
0C00
0C00
7800
0000
0000
0000
ENDCHAR

STARTCHAR ~
ENCODING 126
SWIDTH 714 0
DWIDTH 9 0
BBX 9 15 0 -3
BITMAP
0000
0000
3980
6D80
6700
0000
0000
0000
0000
0000
0000
0000
0000
0000
0000
ENDCHAR

STARTCHAR A_ogonek
ENCODING 161
SWIDTH 714 0
DWIDTH 9 0
BBX 9 15 0 -3
BITMAP
0000
0000
0C00
1E00
3300
6180
6180
6180
7F80
6180
6180
6180
0300
0600
0380
ENDCHAR

STARTCHAR breve
ENCODING 162
SWIDTH 714 0
DWIDTH 9 0
BBX 9 15 0 -3
BITMAP
0000
3300
1E00
0000
0000
0000
0000
0000
0000
0000
0000
0000
0000
0000
0000
ENDCHAR

STARTCHAR L_stroke
ENCODING 163
SWIDTH 714 0
DWIDTH 9 0
BBX 9 15 0 -3
BITMAP
0000
0000
6000
6000
7800
7000
6000
E000
6000
6000
6000
7F80
0000
0000
0000
ENDCHAR

STARTCHAR currency
ENCODING 164
SWIDTH 714 0
DWIDTH 9 0
BBX 9 15 0 -3
BITMAP
0000
0000
0000
6180
3F00
3300
3300
3F00
6180
0000
0000
0000
0000
0000
0000
ENDCHAR

STARTCHAR L_caron
ENCODING 165
SWIDTH 714 0
DWIDTH 9 0
BBX 9 15 0 -3
BITMAP
0000
1980
6F00
6600
6000
6000
6000
6000
6000
6000
6000
7F80
0000
0000
0000
ENDCHAR

STARTCHAR S_acute
ENCODING 166
SWIDTH 714 0
DWIDTH 9 0
BBX 9 15 0 -3
BITMAP
0000
0600
1C00
0000
3F00
6180
6000
3F00
0180
0180
6180
3F00
0000
0000
0000
ENDCHAR

STARTCHAR paragraph
ENCODING 167
SWIDTH 714 0
DWIDTH 9 0
BBX 9 15 0 -3
BITMAP
0000
0000
1E00
3300
3000
1E00
3300
3300
3300
1E00
0300
3300
1E00
0000
0000
ENDCHAR

STARTCHAR diaeresis
ENCODING 168
SWIDTH 714 0
DWIDTH 9 0
BBX 9 15 0 -3
BITMAP
0000
1E00
1E00
0000
0000
0000
0000
0000
0000
0000
0000
0000
0000
0000
0000
ENDCHAR

STARTCHAR S_caron
ENCODING 169
SWIDTH 714 0
DWIDTH 9 0
BBX 9 15 0 -3
BITMAP
0000
3300
1E00
0C00
3F00
6180
6000
3F00
0180
0180
6180
3F00
0000
0000
0000
ENDCHAR

STARTCHAR S_cedilla
ENCODING 170
SWIDTH 714 0
DWIDTH 9 0
BBX 9 15 0 -3
BITMAP
0000
0000
3F00
6180
6000
6000
3F00
0180
0180
0180
6180
3F00
0E00
3600
1C00
ENDCHAR

STARTCHAR T_caron
ENCODING 171
SWIDTH 714 0
DWIDTH 9 0
BBX 9 15 0 -3
BITMAP
0000
3300
1E00
0C00
7F80
0C00
0C00
0C00
0C00
0C00
0C00
0C00
0000
0000
0000
ENDCHAR

STARTCHAR Z_acute
ENCODING 172
SWIDTH 714 0
DWIDTH 9 0
BBX 9 15 0 -3
BITMAP
0000
0600
1C00
0000
7F80
0300
0600
0C00
1800
3000
6000
7F80
0000
0000
0000
ENDCHAR

STARTCHAR hyphen
ENCODING 173
SWIDTH 714 0
DWIDTH 9 0
BBX 9 15 0 -3
BITMAP
0000
0000
0000
0000
0000
0000
0000
7F00
0000
0000
0000
0000
0000
0000
0000
ENDCHAR

STARTCHAR Z_caron
ENCODING 174
SWIDTH 714 0
DWIDTH 9 0
BBX 9 15 0 -3
BITMAP
0000
3300
1E00
0C00
7F80
0300
0600
0C00
1800
3000
6000
7F80
0000
0000
0000
ENDCHAR

STARTCHAR Z_above
ENCODING 175
SWIDTH 714 0
DWIDTH 9 0
BBX 9 15 0 -3
BITMAP
0000
1C00
1C00
0000
7F80
0300
0600
0C00
1800
3000
6000
7F80
0000
0000
0000
ENDCHAR

STARTCHAR degree
ENCODING 176
SWIDTH 714 0
DWIDTH 9 0
BBX 9 15 0 -3
BITMAP
0000
0000
0E00
1B00
1B00
0E00
0000
0000
0000
0000
0000
0000
0000
0000
0000
ENDCHAR

STARTCHAR a_ogonek
ENCODING 177
SWIDTH 714 0
DWIDTH 9 0
BBX 9 15 0 -3
BITMAP
0000
0000
0000
0000
0000
3F00
0180
0180
3F80
6180
6380
3F80
0300
0600
0380
ENDCHAR

STARTCHAR ogonek
ENCODING 178
SWIDTH 714 0
DWIDTH 9 0
BBX 9 15 0 -3
BITMAP
0000
0000
0000
0000
0000
0000
0000
0000
0000
0000
0000
0000
0300
0600
0380
ENDCHAR

STARTCHAR l_stroke
ENCODING 179
SWIDTH 714 0
DWIDTH 9 0
BBX 9 15 0 -3
BITMAP
0000
0000
1C00
0C00
0F00
0E00
0C00
1C00
3C00
0C00
0C00
3F00
0000
0000
0000
ENDCHAR

STARTCHAR acute
ENCODING 180
SWIDTH 714 0
DWIDTH 9 0
BBX 9 15 0 -3
BITMAP
0000
0600
1C00
0000
0000
0000
0000
0000
0000
0000
0000
0000
0000
0000
0000
ENDCHAR

STARTCHAR l_caron
ENCODING 181
SWIDTH 714 0
DWIDTH 9 0
BBX 9 15 0 -3
BITMAP
0000
1980
7F00
3600
3000
3000
3000
3000
3000
3000
3000
FC00
0000
0000
0000
ENDCHAR

STARTCHAR s_acute
ENCODING 182
SWIDTH 714 0
DWIDTH 9 0
BBX 9 15 0 -3
BITMAP
0000
0600
1C00
0000
0000
3F00
6180
6000
3F00
0180
6180
3F00
0000
0000
0000
ENDCHAR

STARTCHAR caron
ENCODING 183
SWIDTH 714 0
DWIDTH 9 0
BBX 9 15 0 -3
BITMAP
0000
3300
1E00
0C00
0000
0000
0000
0000
0000
0000
0000
0000
0000
0000
0000
ENDCHAR

STARTCHAR cedilla
ENCODING 184
SWIDTH 714 0
DWIDTH 9 0
BBX 9 15 0 -3
BITMAP
0000
0000
0000
0000
0000
0000
0000
0000
0000
0000
0000
0000
0E00
3600
1C00
ENDCHAR

STARTCHAR s_caron
ENCODING 185
SWIDTH 714 0
DWIDTH 9 0
BBX 9 15 0 -3
BITMAP
0000
3300
1E00
0C00
0000
3F00
6180
6000
3F00
0180
6180
3F00
0000
0000
0000
ENDCHAR

STARTCHAR s_cedilla
ENCODING 186
SWIDTH 714 0
DWIDTH 9 0
BBX 9 15 0 -3
BITMAP
0000
0000
0000
0000
0000
3F00
6180
6000
3F00
0180
6180
3F00
0E00
3600
1C00
ENDCHAR

STARTCHAR t_caron
ENCODING 187
SWIDTH 714 0
DWIDTH 9 0
BBX 9 15 0 -3
BITMAP
0000
1980
0F00
1E00
1800
7F00
1800
1800
1800
1800
1980
0F00
0000
0000
0000
ENDCHAR

STARTCHAR z_acute
ENCODING 188
SWIDTH 714 0
DWIDTH 9 0
BBX 9 15 0 -3
BITMAP
0000
0600
1C00
0000
0000
7F80
0300
0600
0C00
1800
3000
7F80
0000
0000
0000
ENDCHAR

STARTCHAR double_acute
ENCODING 189
SWIDTH 714 0
DWIDTH 9 0
BBX 9 15 0 -3
BITMAP
0000
1B00
3600
0000
0000
0000
0000
0000
0000
0000
0000
0000
0000
0000
0000
ENDCHAR

STARTCHAR z_caron
ENCODING 190
SWIDTH 714 0
DWIDTH 9 0
BBX 9 15 0 -3
BITMAP
0000
3300
1E00
0C00
0000
7F80
0300
0600
0C00
1800
3000
7F80
0000
0000
0000
ENDCHAR

STARTCHAR z_dot_above
ENCODING 191
SWIDTH 714 0
DWIDTH 9 0
BBX 9 15 0 -3
BITMAP
0000
1C00
1C00
0000
0000
7F80
0300
0600
0C00
1800
3000
7F80
0000
0000
0000
ENDCHAR

STARTCHAR R_acute
ENCODING 192
SWIDTH 714 0
DWIDTH 9 0
BBX 9 15 0 -3
BITMAP
0000
0600
1C00
0000
7F00
6180
6180
7F00
6C00
6600
6300
6180
0000
0000
0000
ENDCHAR

STARTCHAR A_acute
ENCODING 193
SWIDTH 714 0
DWIDTH 9 0
BBX 9 15 0 -3
BITMAP
0000
0600
1C00
0000
1E00
3300
6180
6180
7F80
6180
6180
6180
0000
0000
0000
ENDCHAR

STARTCHAR A_circumflex
ENCODING 194
SWIDTH 714 0
DWIDTH 9 0
BBX 9 15 0 -3
BITMAP
0000
1E00
3300
0000
1E00
3300
6180
6180
7F80
6180
6180
6180
0000
0000
0000
ENDCHAR

STARTCHAR A_breve
ENCODING 195
SWIDTH 714 0
DWIDTH 9 0
BBX 9 15 0 -3
BITMAP
0000
3300
1E00
0000
1E00
3300
6180
6180
7F80
6180
6180
6180
0000
0000
0000
ENDCHAR

STARTCHAR A_diaeresis
ENCODING 196
SWIDTH 714 0
DWIDTH 9 0
BBX 9 15 0 -3
BITMAP
0000
1E00
1E00
0000
1E00
3300
6180
6180
7F80
6180
6180
6180
0000
0000
0000
ENDCHAR

STARTCHAR L_acute
ENCODING 197
SWIDTH 714 0
DWIDTH 9 0
BBX 9 15 0 -3
BITMAP
0000
0300
6E00
6000
6000
6000
6000
6000
6000
6000
6000
7F80
0000
0000
0000
ENDCHAR

STARTCHAR C_acute
ENCODING 198
SWIDTH 714 0
DWIDTH 9 0
BBX 9 15 0 -3
BITMAP
0000
0600
1C00
0000
3F00
6180
6000
6000
6000
6000
6180
3F00
0000
0000
0000
ENDCHAR

STARTCHAR C_cedilla
ENCODING 199
SWIDTH 714 0
DWIDTH 9 0
BBX 9 15 0 -3
BITMAP
0000
0000
3F00
6180
6000
6000
6000
6000
6000
6000
6180
3F00
0E00
3600
1C00
ENDCHAR

STARTCHAR C_caron
ENCODING 200
SWIDTH 714 0
DWIDTH 9 0
BBX 9 15 0 -3
BITMAP
0000
3300
1E00
0C00
3F00
6180
6000
6000
6000
6000
6180
3F00
0000
0000
0000
ENDCHAR

STARTCHAR E_acute
ENCODING 201
SWIDTH 714 0
DWIDTH 9 0
BBX 9 15 0 -3
BITMAP
0000
0600
1C00
0000
7F80
3000
3000
3E00
3000
3000
3000
7F80
0000
0000
0000
ENDCHAR

STARTCHAR E_ogonek
ENCODING 202
SWIDTH 714 0
DWIDTH 9 0
BBX 9 15 0 -3
BITMAP
0000
0000
7F80
3000
3000
3000
3E00
3000
3000
3000
3000
7F80
0300
0600
0380
ENDCHAR

STARTCHAR E_diaeresis
ENCODING 203
SWIDTH 714 0
DWIDTH 9 0
BBX 9 15 0 -3
BITMAP
0000
1E00
1E00
0000
7F80
3000
3000
3E00
3000
3000
3000
7F80
0000
0000
0000
ENDCHAR

STARTCHAR E_caron
ENCODING 204
SWIDTH 714 0
DWIDTH 9 0
BBX 9 15 0 -3
BITMAP
0000
3300
1E00
0C00
7F80
3000
3000
3E00
3000
3000
3000
7F80
0000
0000
0000
ENDCHAR

STARTCHAR I_acute
ENCODING 205
SWIDTH 714 0
DWIDTH 9 0
BBX 9 15 0 -3
BITMAP
0000
0600
1C00
0000
3F00
0C00
0C00
0C00
0C00
0C00
0C00
3F00
0000
0000
0000
ENDCHAR

STARTCHAR I_circumflex
ENCODING 206
SWIDTH 714 0
DWIDTH 9 0
BBX 9 15 0 -3
BITMAP
0000
1E00
3300
0000
3F00
0C00
0C00
0C00
0C00
0C00
0C00
3F00
0000
0000
0000
ENDCHAR

STARTCHAR D_caron
ENCODING 207
SWIDTH 714 0
DWIDTH 9 0
BBX 9 15 0 -3
BITMAP
0000
3300
1E00
0C00
7F00
3180
3180
3180
3180
3180
3180
7F00
0000
0000
0000
ENDCHAR

STARTCHAR ETH
ENCODING 208
SWIDTH 714 0
DWIDTH 9 0
BBX 9 15 0 -3
BITMAP
0000
0000
7F00
3180
3180
3180
7D80
3180
3180
3180
3180
7F00
0000
0000
0000
ENDCHAR

STARTCHAR N_acute
ENCODING 209
SWIDTH 714 0
DWIDTH 9 0
BBX 9 15 0 -3
BITMAP
0000
0600
1C00
0000
6180
7180
7980
6D80
6D80
6780
6380
6180
0000
0000
0000
ENDCHAR

STARTCHAR N_caron
ENCODING 210
SWIDTH 714 0
DWIDTH 9 0
BBX 9 15 0 -3
BITMAP
0000
3300
1E00
0C00
6180
7180
7980
6D80
6D80
6780
6380
6180
0000
0000
0000
ENDCHAR

STARTCHAR O_acute
ENCODING 211
SWIDTH 714 0
DWIDTH 9 0
BBX 9 15 0 -3
BITMAP
0000
0600
1C00
0000
3F00
6180
6180
6180
6180
6180
6180
3F00
0000
0000
0000
ENDCHAR

STARTCHAR O_circumflex
ENCODING 212
SWIDTH 714 0
DWIDTH 9 0
BBX 9 15 0 -3
BITMAP
0000
1E00
3300
0000
3F00
6180
6180
6180
6180
6180
6180
3F00
0000
0000
0000
ENDCHAR

STARTCHAR O_double_acute
ENCODING 213
SWIDTH 714 0
DWIDTH 9 0
BBX 9 15 0 -3
BITMAP
0000
1B00
3600
0000
3F00
6180
6180
6180
6180
6180
6180
3F00
0000
0000
0000
ENDCHAR

STARTCHAR O_diaeresis
ENCODING 214
SWIDTH 714 0
DWIDTH 9 0
BBX 9 15 0 -3
BITMAP
0000
1E00
1E00
0000
3F00
6180
6180
6180
6180
6180
6180
3F00
0000
0000
0000
ENDCHAR

STARTCHAR multiply
ENCODING 215
SWIDTH 714 0
DWIDTH 9 0
BBX 9 15 0 -3
BITMAP
0000
0000
0000
0000
6180
3300
1E00
0C00
1E00
3300
6180
0000
0000
0000
0000
ENDCHAR

STARTCHAR R_caron
ENCODING 216
SWIDTH 714 0
DWIDTH 9 0
BBX 9 15 0 -3
BITMAP
0000
3300
1E00
0C00
7F00
6180
6180
7F00
6C00
6600
6300
6180
0000
0000
0000
ENDCHAR

STARTCHAR U_ring_above
ENCODING 217
SWIDTH 714 0
DWIDTH 9 0
BBX 9 15 0 -3
BITMAP
0000
0C00
1E00
0C00
6180
6180
6180
6180
6180
6180
6180
3F00
0000
0000
0000
ENDCHAR

STARTCHAR U_acute
ENCODING 218
SWIDTH 714 0
DWIDTH 9 0
BBX 9 15 0 -3
BITMAP
0000
0600
1C00
0000
6180
6180
6180
6180
6180
6180
6180
3F00
0000
0000
0000
ENDCHAR

STARTCHAR U_double_acute
ENCODING 219
SWIDTH 714 0
DWIDTH 9 0
BBX 9 15 0 -3
BITMAP
0000
1B00
3600
0000
6180
6180
6180
6180
6180
6180
6180
3F00
0000
0000
0000
ENDCHAR

STARTCHAR U_diaeresis
ENCODING 220
SWIDTH 714 0
DWIDTH 9 0
BBX 9 15 0 -3
BITMAP
0000
1E00
1E00
0000
6180
6180
6180
6180
6180
6180
6180
3F00
0000
0000
0000
ENDCHAR

STARTCHAR Y_acute
ENCODING 221
SWIDTH 714 0
DWIDTH 9 0
BBX 9 15 0 -3
BITMAP
0000
0600
1C00
0000
6180
6180
3300
1E00
0C00
0C00
0C00
0C00
0000
0000
0000
ENDCHAR

STARTCHAR T_cedilla
ENCODING 222
SWIDTH 714 0
DWIDTH 9 0
BBX 9 15 0 -3
BITMAP
0000
0000
7F80
0C00
0C00
0C00
0C00
0C00
0C00
0C00
0C00
0C00
0C00
0C00
3800
ENDCHAR

STARTCHAR ssharp
ENCODING 223
SWIDTH 714 0
DWIDTH 9 0
BBX 9 15 0 -3
BITMAP
0000
0000
0000
0000
3F00
6180
6180
7F00
6180
6180
7180
7F00
6000
0000
0000
ENDCHAR

STARTCHAR r_acute
ENCODING 224
SWIDTH 714 0
DWIDTH 9 0
BBX 9 15 0 -3
BITMAP
0000
0600
1C00
0000
0000
6F00
3980
3180
3000
3000
3000
3000
0000
0000
0000
ENDCHAR

STARTCHAR a_acute
ENCODING 225
SWIDTH 714 0
DWIDTH 9 0
BBX 9 15 0 -3
BITMAP
0000
0600
1C00
0000
0000
3F00
0180
0180
3F80
6180
6380
3F80
0000
0000
0000
ENDCHAR

STARTCHAR a_circumflex
ENCODING 226
SWIDTH 714 0
DWIDTH 9 0
BBX 9 15 0 -3
BITMAP
0000
1E00
3300
0000
0000
3F00
0180
0180
3F80
6180
6380
3F80
0000
0000
0000
ENDCHAR

STARTCHAR a_breve
ENCODING 227
SWIDTH 714 0
DWIDTH 9 0
BBX 9 15 0 -3
BITMAP
0000
3300
1E00
0000
0000
3F00
0180
0180
3F80
6180
6380
3F80
0000
0000
0000
ENDCHAR

STARTCHAR a_diaeresis
ENCODING 228
SWIDTH 714 0
DWIDTH 9 0
BBX 9 15 0 -3
BITMAP
0000
1E00
1E00
0000
0000
3F00
0180
0180
3F80
6180
6380
3F80
0000
0000
0000
ENDCHAR

STARTCHAR l_acute
ENCODING 229
SWIDTH 714 0
DWIDTH 9 0
BBX 9 15 0 -3
BITMAP
0000
0180
3F00
1800
1800
1800
1800
1800
1800
1800
1800
7E00
0000
0000
0000
ENDCHAR

STARTCHAR c_acute
ENCODING 230
SWIDTH 714 0
DWIDTH 9 0
BBX 9 15 0 -3
BITMAP
0000
0600
1C00
0000
0000
3F00
6180
6000
6000
6000
6180
3F00
0000
0000
0000
ENDCHAR

STARTCHAR c_cedilla
ENCODING 231
SWIDTH 714 0
DWIDTH 9 0
BBX 9 15 0 -3
BITMAP
0000
0000
0000
0000
0000
3F00
6180
6000
6000
6000
6180
3F00
0E00
3600
1C00
ENDCHAR

STARTCHAR c_caron
ENCODING 232
SWIDTH 714 0
DWIDTH 9 0
BBX 9 15 0 -3
BITMAP
0000
3300
1E00
0C00
0000
3F00
6180
6000
6000
6000
6180
3F00
0000
0000
0000
ENDCHAR

STARTCHAR e_acute
ENCODING 233
SWIDTH 714 0
DWIDTH 9 0
BBX 9 15 0 -3
BITMAP
0000
0600
1C00
0000
0000
3F00
6180
6180
7F80
6000
6000
3F00
0000
0000
0000
ENDCHAR

STARTCHAR e_ogonek
ENCODING 234
SWIDTH 714 0
DWIDTH 9 0
BBX 9 15 0 -3
BITMAP
0000
0000
0000
0000
0000
3F00
6180
6180
7F80
6000
6000
3F00
0300
0600
0380
ENDCHAR

STARTCHAR e_diaeresis
ENCODING 235
SWIDTH 714 0
DWIDTH 9 0
BBX 9 15 0 -3
BITMAP
0000
1E00
1E00
0000
0000
3F00
6180
6180
7F80
6000
6000
3F00
0000
0000
0000
ENDCHAR

STARTCHAR e_caron
ENCODING 236
SWIDTH 714 0
DWIDTH 9 0
BBX 9 15 0 -3
BITMAP
0000
3300
1E00
0C00
0000
3F00
6180
6180
7F80
6000
6000
3F00
0000
0000
0000
ENDCHAR

STARTCHAR i_acute
ENCODING 237
SWIDTH 714 0
DWIDTH 9 0
BBX 9 15 0 -3
BITMAP
0000
0600
1C00
0000
0000
1C00
0C00
0C00
0C00
0C00
0C00
3F00
0000
0000
0000
ENDCHAR

STARTCHAR i_circumflex
ENCODING 238
SWIDTH 714 0
DWIDTH 9 0
BBX 9 15 0 -3
BITMAP
0000
1C00
3600
0000
0000
1C00
0C00
0C00
0C00
0C00
0C00
3F00
0000
0000
0000
ENDCHAR

STARTCHAR d_caron
ENCODING 239
SWIDTH 714 0
DWIDTH 9 0
BBX 9 15 0 -3
BITMAP
0000
6600
3D80
1980
0180
3F80
6380
6180
6180
6180
6380
3F80
0000
0000
0000
ENDCHAR

STARTCHAR d_stroke
ENCODING 240
SWIDTH 714 0
DWIDTH 9 0
BBX 9 15 0 -3
BITMAP
0000
0000
0180
0380
0180
3F80
6380
6180
6180
6180
6380
3F80
0000
0000
0000
ENDCHAR

STARTCHAR n_acute
ENCODING 241
SWIDTH 714 0
DWIDTH 9 0
BBX 9 15 0 -3
BITMAP
0000
0600
1C00
0000
0000
7F00
7180
6180
6180
6180
6180
6180
0000
0000
0000
ENDCHAR

STARTCHAR n_caron
ENCODING 242
SWIDTH 714 0
DWIDTH 9 0
BBX 9 15 0 -3
BITMAP
0000
3300
1E00
0C00
0000
7F00
7180
6180
6180
6180
6180
6180
0000
0000
0000
ENDCHAR

STARTCHAR o_acute
ENCODING 243
SWIDTH 714 0
DWIDTH 9 0
BBX 9 15 0 -3
BITMAP
0000
0600
1C00
0000
0000
3F00
6180
6180
6180
6180
6180
3F00
0000
0000
0000
ENDCHAR

STARTCHAR o_circumflex
ENCODING 244
SWIDTH 714 0
DWIDTH 9 0
BBX 9 15 0 -3
BITMAP
0000
1E00
3300
0000
0000
3F00
6180
6180
6180
6180
6180
3F00
0000
0000
0000
ENDCHAR

STARTCHAR o_double_acute
ENCODING 245
SWIDTH 714 0
DWIDTH 9 0
BBX 9 15 0 -3
BITMAP
0000
1B00
3600
0000
0000
3F00
6180
6180
6180
6180
6180
3F00
0000
0000
0000
ENDCHAR

STARTCHAR o_diaeresis
ENCODING 246
SWIDTH 714 0
DWIDTH 9 0
BBX 9 15 0 -3
BITMAP
0000
1E00
1E00
0000
0000
3F00
6180
6180
6180
6180
6180
3F00
0000
0000
0000
ENDCHAR

STARTCHAR division
ENCODING 247
SWIDTH 714 0
DWIDTH 9 0
BBX 9 15 0 -3
BITMAP
0000
0000
0180
0300
0300
0600
0C00
0C00
1800
3000
3000
6000
0000
0000
0000
ENDCHAR

STARTCHAR r_caron
ENCODING 248
SWIDTH 714 0
DWIDTH 9 0
BBX 9 15 0 -3
BITMAP
0000
3300
1E00
0C00
0000
6F00
3980
3180
3000
3000
3000
3000
0000
0000
0000
ENDCHAR

STARTCHAR u_ring_above
ENCODING 249
SWIDTH 714 0
DWIDTH 9 0
BBX 9 15 0 -3
BITMAP
0000
0C00
1E00
0C00
0000
6300
6300
6300
6300
6300
6300
3F80
0000
0000
0000
ENDCHAR

STARTCHAR u_acute
ENCODING 250
SWIDTH 714 0
DWIDTH 9 0
BBX 9 15 0 -3
BITMAP
0000
0600
1C00
0000
0000
6300
6300
6300
6300
6300
6300
3F80
0000
0000
0000
ENDCHAR

STARTCHAR u_double_acute
ENCODING 251
SWIDTH 714 0
DWIDTH 9 0
BBX 9 15 0 -3
BITMAP
0000
1B00
3600
0000
0000
6300
6300
6300
6300
6300
6300
3F80
0000
0000
0000
ENDCHAR

STARTCHAR u_diaeresis
ENCODING 252
SWIDTH 714 0
DWIDTH 9 0
BBX 9 15 0 -3
BITMAP
0000
1E00
1E00
0000
0000
6300
6300
6300
6300
6300
6300
3F80
0000
0000
0000
ENDCHAR

STARTCHAR y_acute
ENCODING 253
SWIDTH 714 0
DWIDTH 9 0
BBX 9 15 0 -3
BITMAP
0000
0600
1C00
0000
0000
6300
6300
6300
6300
6300
6700
3F00
0300
6300
3E00
ENDCHAR

STARTCHAR t_cedilla
ENCODING 254
SWIDTH 714 0
DWIDTH 9 0
BBX 9 15 0 -3
BITMAP
0000
0000
0000
1800
1800
7F00
1800
1800
1800
1800
1980
0F00
0600
0600
1C00
ENDCHAR

STARTCHAR dot_above
ENCODING 255
SWIDTH 714 0
DWIDTH 9 0
BBX 9 15 0 -3
BITMAP
0000
1C00
1C00
0000
0000
0000
0000
0000
0000
0000
0000
0000
0000
0000
0000
ENDCHAR

ENDFONT
