STARTFONT 2.1
FONT -Monotype-Century Schoolbook-Regular-R-Normal--14-140-75-75-P-70-iso8859-2
SIZE 14 75 75
FONTBOUNDINGBOX 17 19 -2 -4

STARTPROPERTIES 22
FOUNDRY "Monotype"
FAMILY_NAME "Century Schoolbook"
WEIGHT_NAME "Regular"
SLANT "R"
SETWIDTH_NAME "Normal"
ADD_STYLE_NAME ""
PIXEL_SIZE 14
POINT_SIZE 140
RESOLUTION_X 75
RESOLUTION_Y 75
SPACING "P"
AVERAGE_WIDTH 70
CHARSET_REGISTRY "iso8859"
CHARSET_ENCODING "2"
COPYRIGHT "Copyright (c) 1996 Monotype Typography Ltd."
CAP_HEIGHT 13
X_HEIGHT 8
WEIGHT 10
QUAD_WIDTH 9
DEFAULT_CHAR 160
FONT_DESCENT 4
FONT_ASCENT 15
ENDPROPERTIES

CHARS 191

STARTCHAR space
ENCODING 32
SWIDTH 278 0
DWIDTH 4 0
BBX 0 0 0 0
BITMAP
ENDCHAR

STARTCHAR exclam
ENCODING 33
SWIDTH 296 0
DWIDTH 4 0
BBX 1 11 1 0
BITMAP
80
80
80
80
80
80
80
00
00
80
80
ENDCHAR

STARTCHAR quotedbl
ENCODING 34
SWIDTH 389 0
DWIDTH 6 0
BBX 4 4 1 7
BITMAP
90
90
90
90
ENDCHAR

STARTCHAR numbersign
ENCODING 35
SWIDTH 556 0
DWIDTH 8 0
BBX 8 11 0 0
BITMAP
12
12
12
7F
24
24
24
FE
48
48
48
ENDCHAR

STARTCHAR dollar
ENCODING 36
SWIDTH 556 0
DWIDTH 8 0
BBX 6 15 1 -2
BITMAP
10
10
78
94
94
90
70
18
14
14
94
94
78
10
10
ENDCHAR

STARTCHAR percent
ENCODING 37
SWIDTH 833 0
DWIDTH 12 0
BBX 11 11 1 0
BITMAP
6080
9080
9100
9200
9200
64C0
0920
0920
1120
2120
20C0
ENDCHAR

STARTCHAR ampersand
ENCODING 38
SWIDTH 815 0
DWIDTH 11 0
BBX 9 11 1 0
BITMAP
3800
4400
4400
4400
4800
3380
5100
8900
8600
8680
7900
ENDCHAR

STARTCHAR quoteright
ENCODING 39
SWIDTH 204 0
DWIDTH 3 0
BBX 2 4 0 7
BITMAP
C0
40
40
80
ENDCHAR

STARTCHAR parenleft
ENCODING 40
SWIDTH 333 0
DWIDTH 5 0
BBX 4 14 1 -3
BITMAP
10
20
40
40
80
80
80
80
80
80
40
40
20
10
ENDCHAR

STARTCHAR parenright
ENCODING 41
SWIDTH 333 0
DWIDTH 5 0
BBX 4 14 0 -3
BITMAP
80
40
20
20
10
10
10
10
10
10
20
20
40
80
ENDCHAR

STARTCHAR asterisk
ENCODING 42
SWIDTH 500 0
DWIDTH 8 0
BBX 7 6 0 5
BITMAP
10
10
FE
28
6C
28
ENDCHAR

STARTCHAR plus
ENCODING 43
SWIDTH 606 0
DWIDTH 9 0
BBX 9 9 0 1
BITMAP
0800
0800
0800
0800
FF80
0800
0800
0800
0800
ENDCHAR

STARTCHAR comma
ENCODING 44
SWIDTH 278 0
DWIDTH 4 0
BBX 2 4 1 -2
BITMAP
C0
40
40
80
ENDCHAR

STARTCHAR minus
ENCODING 45
SWIDTH 606 0
DWIDTH 9 0
BBX 8 1 1 5
BITMAP
FF
ENDCHAR

STARTCHAR period
ENCODING 46
SWIDTH 278 0
DWIDTH 4 0
BBX 1 2 1 0
BITMAP
80
80
ENDCHAR

STARTCHAR slash
ENCODING 47
SWIDTH 278 0
DWIDTH 4 0
BBX 4 11 0 0
BITMAP
10
10
10
20
20
40
40
40
80
80
80
ENDCHAR

STARTCHAR zero
ENCODING 48
SWIDTH 556 0
DWIDTH 8 0
BBX 6 11 1 0
BITMAP
30
48
84
84
84
84
84
84
84
48
30
ENDCHAR

STARTCHAR one
ENCODING 49
SWIDTH 556 0
DWIDTH 8 0
BBX 5 11 2 0
BITMAP
20
E0
20
20
20
20
20
20
20
20
F8
ENDCHAR

STARTCHAR two
ENCODING 50
SWIDTH 556 0
DWIDTH 8 0
BBX 6 11 1 0
BITMAP
78
84
84
44
04
08
10
20
44
84
FC
ENDCHAR

STARTCHAR three
ENCODING 51
SWIDTH 556 0
DWIDTH 8 0
BBX 6 11 1 0
BITMAP
78
84
84
04
04
38
04
04
84
84
78
ENDCHAR

STARTCHAR four
ENCODING 52
SWIDTH 556 0
DWIDTH 8 0
BBX 8 11 0 0
BITMAP
04
0C
14
24
44
44
84
FF
04
04
1F
ENDCHAR

STARTCHAR five
ENCODING 53
SWIDTH 556 0
DWIDTH 8 0
BBX 6 11 1 0
BITMAP
7C
40
40
40
F8
84
04
04
84
84
78
ENDCHAR

STARTCHAR six
ENCODING 54
SWIDTH 556 0
DWIDTH 8 0
BBX 6 11 1 0
BITMAP
38
44
84
80
B8
C4
84
84
84
84
78
ENDCHAR

STARTCHAR seven
ENCODING 55
SWIDTH 556 0
DWIDTH 8 0
BBX 7 11 1 0
BITMAP
7E
84
84
08
08
10
10
10
20
20
20
ENDCHAR

STARTCHAR eight
ENCODING 56
SWIDTH 556 0
DWIDTH 8 0
BBX 6 11 1 0
BITMAP
78
84
84
84
84
78
84
84
84
84
78
ENDCHAR

STARTCHAR nine
ENCODING 57
SWIDTH 556 0
DWIDTH 8 0
BBX 6 11 1 0
BITMAP
78
84
84
84
84
8C
74
04
84
88
70
ENDCHAR

STARTCHAR colon
ENCODING 58
SWIDTH 278 0
DWIDTH 4 0
BBX 1 7 1 0
BITMAP
80
80
00
00
00
80
80
ENDCHAR

STARTCHAR semicolon
ENCODING 59
SWIDTH 278 0
DWIDTH 4 0
BBX 2 9 0 -2
BITMAP
40
40
00
00
00
C0
40
40
80
ENDCHAR

STARTCHAR less
ENCODING 60
SWIDTH 606 0
DWIDTH 9 0
BBX 8 8 1 1
BITMAP
03
0C
30
C0
C0
30
0C
03
ENDCHAR

STARTCHAR equal
ENCODING 61
SWIDTH 606 0
DWIDTH 9 0
BBX 8 4 1 3
BITMAP
FF
00
00
FF
ENDCHAR

STARTCHAR greater
ENCODING 62
SWIDTH 606 0
DWIDTH 9 0
BBX 8 8 1 1
BITMAP
C0
30
0C
03
03
0C
30
C0
ENDCHAR

STARTCHAR question
ENCODING 63
SWIDTH 444 0
DWIDTH 7 0
BBX 5 11 1 0
BITMAP
70
88
88
08
08
10
20
20
00
20
20
ENDCHAR

STARTCHAR at
ENCODING 64
SWIDTH 737 0
DWIDTH 11 0
BBX 11 12 0 -1
BITMAP
0E00
3180
4040
4540
8B20
8920
9220
96C0
5B20
4040
30C0
0F00
ENDCHAR

STARTCHAR A
ENCODING 65
SWIDTH 722 0
DWIDTH 11 0
BBX 11 11 0 0
BITMAP
0400
0400
0A00
0A00
1100
1100
3F80
2080
4040
4040
E0E0
ENDCHAR

STARTCHAR B
ENCODING 66
SWIDTH 722 0
DWIDTH 11 0
BBX 9 11 1 0
BITMAP
FF00
4080
4080
4080
4080
7F00
4080
4080
4080
4080
FF00
ENDCHAR

STARTCHAR C
ENCODING 67
SWIDTH 722 0
DWIDTH 11 0
BBX 9 11 1 0
BITMAP
1E80
2180
4080
8080
8000
8000
8000
8080
4080
2100
1E00
ENDCHAR

STARTCHAR D
ENCODING 68
SWIDTH 778 0
DWIDTH 12 0
BBX 10 11 1 0
BITMAP
FE00
4100
4080
4040
4040
4040
4040
4040
4080
4100
FE00
ENDCHAR

STARTCHAR E
ENCODING 69
SWIDTH 722 0
DWIDTH 11 0
BBX 9 11 1 0
BITMAP
FF80
4080
4080
4400
4400
7C00
4400
4400
4080
4080
FF80
ENDCHAR

STARTCHAR F
ENCODING 70
SWIDTH 667 0
DWIDTH 10 0
BBX 8 11 1 0
BITMAP
FF
41
41
44
44
7C
44
44
40
40
F0
ENDCHAR

STARTCHAR G
ENCODING 71
SWIDTH 778 0
DWIDTH 12 0
BBX 11 11 1 0
BITMAP
1E80
2180
4080
8080
8000
8000
83E0
8080
4080
2180
1E80
ENDCHAR

STARTCHAR H
ENCODING 72
SWIDTH 833 0
DWIDTH 12 0
BBX 10 11 1 0
BITMAP
E1C0
4080
4080
4080
4080
7F80
4080
4080
4080
4080
E1C0
ENDCHAR

STARTCHAR I
ENCODING 73
SWIDTH 407 0
DWIDTH 5 0
BBX 3 11 1 0
BITMAP
E0
40
40
40
40
40
40
40
40
40
E0
ENDCHAR

STARTCHAR J
ENCODING 74
SWIDTH 556 0
DWIDTH 8 0
BBX 6 11 1 0
BITMAP
1C
08
08
08
08
08
08
48
88
88
70
ENDCHAR

STARTCHAR K
ENCODING 75
SWIDTH 778 0
DWIDTH 12 0
BBX 10 11 1 0
BITMAP
E3C0
4100
4200
4400
4800
5800
6400
4200
4100
4080
E1C0
ENDCHAR

STARTCHAR L
ENCODING 76
SWIDTH 667 0
DWIDTH 10 0
BBX 9 11 1 0
BITMAP
E000
4000
4000
4000
4000
4000
4000
4000
4080
4080
FF80
ENDCHAR

STARTCHAR M
ENCODING 77
SWIDTH 944 0
DWIDTH 15 0
BBX 13 11 1 0
BITMAP
E038
6030
5050
5050
4890
4890
4890
4510
4510
4210
E238
ENDCHAR

STARTCHAR N
ENCODING 78
SWIDTH 815 0
DWIDTH 12 0
BBX 10 11 1 0
BITMAP
C1C0
6080
5080
5080
4880
4880
4480
4280
4280
4180
E080
ENDCHAR

STARTCHAR O
ENCODING 79
SWIDTH 778 0
DWIDTH 12 0
BBX 10 11 1 0
BITMAP
1E00
2100
4080
8040
8040
8040
8040
8040
4080
2100
1E00
ENDCHAR

STARTCHAR P
ENCODING 80
SWIDTH 667 0
DWIDTH 10 0
BBX 8 11 1 0
BITMAP
FE
41
41
41
41
7E
40
40
40
40
F0
ENDCHAR

STARTCHAR Q
ENCODING 81
SWIDTH 778 0
DWIDTH 12 0
BBX 10 14 1 -3
BITMAP
1E00
2100
4080
8040
8040
8040
8040
8C40
5280
3100
1F00
0140
01C0
0080
ENDCHAR

STARTCHAR R
ENCODING 82
SWIDTH 722 0
DWIDTH 11 0
BBX 10 11 1 0
BITMAP
FF00
4080
4080
4080
4080
7F00
4400
4200
4200
4240
F180
ENDCHAR

STARTCHAR S
ENCODING 83
SWIDTH 630 0
DWIDTH 9 0
BBX 7 11 1 0
BITMAP
3A
46
82
82
60
18
04
82
82
C2
BC
ENDCHAR

STARTCHAR T
ENCODING 84
SWIDTH 667 0
DWIDTH 9 0
BBX 9 11 0 0
BITMAP
7F00
C980
8880
8880
0800
0800
0800
0800
0800
0800
1C00
ENDCHAR

STARTCHAR U
ENCODING 85
SWIDTH 815 0
DWIDTH 12 0
BBX 10 11 1 0
BITMAP
E1C0
4080
4080
4080
4080
4080
4080
4080
4080
2100
1E00
ENDCHAR

STARTCHAR V
ENCODING 86
SWIDTH 722 0
DWIDTH 11 0
BBX 9 11 1 0
BITMAP
E380
4100
4100
2200
2200
2200
1400
1400
1400
0800
0800
ENDCHAR

STARTCHAR W
ENCODING 87
SWIDTH 981 0
DWIDTH 15 0
BBX 15 11 0 0
BITMAP
E38E
4104
4104
4284
2288
2288
2448
1450
1450
0820
0820
ENDCHAR

STARTCHAR X
ENCODING 88
SWIDTH 704 0
DWIDTH 10 0
BBX 10 11 0 0
BITMAP
E1C0
4080
2100
1200
0C00
0C00
0C00
1200
2100
4080
E1C0
ENDCHAR

STARTCHAR Y
ENCODING 89
SWIDTH 704 0
DWIDTH 11 0
BBX 9 11 1 0
BITMAP
E380
4100
2200
2200
1400
1400
0800
0800
0800
0800
1C00
ENDCHAR

STARTCHAR Z
ENCODING 90
SWIDTH 611 0
DWIDTH 10 0
BBX 8 11 1 0
BITMAP
FF
82
84
04
08
10
10
20
41
41
FF
ENDCHAR

STARTCHAR bracketleft
ENCODING 91
SWIDTH 333 0
DWIDTH 5 0
BBX 3 14 1 -3
BITMAP
E0
80
80
80
80
80
80
80
80
80
80
80
80
E0
ENDCHAR

STARTCHAR backslash
ENCODING 92
SWIDTH 606 0
DWIDTH 9 0
BBX 9 11 0 0
BITMAP
8000
4000
2000
2000
1000
0800
0800
0400
0200
0100
0080
ENDCHAR

STARTCHAR bracketright
ENCODING 93
SWIDTH 333 0
DWIDTH 5 0
BBX 3 14 0 -3
BITMAP
E0
20
20
20
20
20
20
20
20
20
20
20
20
E0
ENDCHAR

STARTCHAR asciicircum
ENCODING 94
SWIDTH 606 0
DWIDTH 9 0
BBX 7 5 1 6
BITMAP
10
38
28
44
82
ENDCHAR

STARTCHAR underscore
ENCODING 95
SWIDTH 500 0
DWIDTH 8 0
BBX 8 1 0 -2
BITMAP
FF
ENDCHAR

STARTCHAR quoteleft
ENCODING 96
SWIDTH 204 0
DWIDTH 3 0
BBX 2 4 0 7
BITMAP
40
80
80
C0
ENDCHAR

STARTCHAR a
ENCODING 97
SWIDTH 556 0
DWIDTH 8 0
BBX 7 7 0 0
BITMAP
78
84
04
7C
84
84
7A
ENDCHAR

STARTCHAR b
ENCODING 98
SWIDTH 556 0
DWIDTH 8 0
BBX 7 11 0 0
BITMAP
C0
40
40
40
58
64
42
42
42
64
58
ENDCHAR

STARTCHAR c
ENCODING 99
SWIDTH 444 0
DWIDTH 7 0
BBX 6 7 0 0
BITMAP
3C
44
80
80
80
44
38
ENDCHAR

STARTCHAR d
ENCODING 100
SWIDTH 574 0
DWIDTH 9 0
BBX 8 11 0 0
BITMAP
06
02
02
02
3A
46
82
82
82
46
3B
ENDCHAR

STARTCHAR e
ENCODING 101
SWIDTH 500 0
DWIDTH 8 0
BBX 7 7 0 0
BITMAP
38
44
82
FE
80
42
3C
ENDCHAR

STARTCHAR f
ENCODING 102
SWIDTH 333 0
DWIDTH 5 0
BBX 5 11 1 0
BITMAP
30
48
40
40
E0
40
40
40
40
40
E0
ENDCHAR

STARTCHAR g
ENCODING 103
SWIDTH 537 0
DWIDTH 8 0
BBX 7 10 1 -3
BITMAP
76
88
88
88
70
80
78
84
84
78
ENDCHAR

STARTCHAR h
ENCODING 104
SWIDTH 611 0
DWIDTH 9 0
BBX 8 11 0 0
BITMAP
C0
40
40
40
5C
62
42
42
42
42
E7
ENDCHAR

STARTCHAR i
ENCODING 105
SWIDTH 315 0
DWIDTH 5 0
BBX 3 11 1 0
BITMAP
40
40
00
00
C0
40
40
40
40
40
E0
ENDCHAR

STARTCHAR j
ENCODING 106
SWIDTH 296 0
DWIDTH 4 0
BBX 4 14 -2 -3
BITMAP
10
10
00
00
30
10
10
10
10
10
10
10
90
60
ENDCHAR

STARTCHAR k
ENCODING 107
SWIDTH 593 0
DWIDTH 9 0
BBX 8 11 0 0
BITMAP
C0
40
40
40
4F
44
48
70
48
44
EF
ENDCHAR

STARTCHAR l
ENCODING 108
SWIDTH 315 0
DWIDTH 4 0
BBX 3 11 1 0
BITMAP
C0
40
40
40
40
40
40
40
40
40
E0
ENDCHAR

STARTCHAR m
ENCODING 109
SWIDTH 889 0
DWIDTH 12 0
BBX 11 7 0 0
BITMAP
DD80
6640
4440
4440
4440
4440
E660
ENDCHAR

STARTCHAR n
ENCODING 110
SWIDTH 611 0
DWIDTH 9 0
BBX 8 7 0 0
BITMAP
DC
62
42
42
42
42
E7
ENDCHAR

STARTCHAR o
ENCODING 111
SWIDTH 500 0
DWIDTH 8 0
BBX 7 7 0 0
BITMAP
38
44
82
82
82
44
38
ENDCHAR

STARTCHAR p
ENCODING 112
SWIDTH 574 0
DWIDTH 9 0
BBX 8 10 0 -3
BITMAP
DC
62
41
41
41
62
5C
40
40
E0
ENDCHAR

STARTCHAR q
ENCODING 113
SWIDTH 556 0
DWIDTH 8 0
BBX 7 10 0 -3
BITMAP
34
4C
84
84
84
4C
34
04
04
0E
ENDCHAR

STARTCHAR r
ENCODING 114
SWIDTH 444 0
DWIDTH 7 0
BBX 7 7 0 0
BITMAP
CC
52
60
40
40
40
E0
ENDCHAR

STARTCHAR s
ENCODING 115
SWIDTH 463 0
DWIDTH 7 0
BBX 6 7 0 0
BITMAP
74
8C
80
78
04
C4
B8
ENDCHAR

STARTCHAR t
ENCODING 116
SWIDTH 389 0
DWIDTH 6 0
BBX 5 10 0 0
BITMAP
40
40
40
F0
40
40
40
48
48
30
ENDCHAR

STARTCHAR u
ENCODING 117
SWIDTH 611 0
DWIDTH 9 0
BBX 8 7 0 0
BITMAP
C6
42
42
42
42
46
3B
ENDCHAR

STARTCHAR v
ENCODING 118
SWIDTH 537 0
DWIDTH 8 0
BBX 9 7 -1 0
BITMAP
E380
4100
2200
2200
1400
1400
0800
ENDCHAR

STARTCHAR w
ENCODING 119
SWIDTH 778 0
DWIDTH 12 0
BBX 11 7 0 0
BITMAP
EEE0
4440
4440
2A80
2A80
1100
1100
ENDCHAR

STARTCHAR x
ENCODING 120
SWIDTH 537 0
DWIDTH 8 0
BBX 7 7 0 0
BITMAP
EE
44
28
10
28
44
EE
ENDCHAR

STARTCHAR y
ENCODING 121
SWIDTH 537 0
DWIDTH 8 0
BBX 8 10 0 -3
BITMAP
E7
42
22
24
14
14
08
08
50
60
ENDCHAR

STARTCHAR z
ENCODING 122
SWIDTH 481 0
DWIDTH 7 0
BBX 6 7 0 0
BITMAP
FC
84
88
10
24
44
FC
ENDCHAR

STARTCHAR braceleft
ENCODING 123
SWIDTH 333 0
DWIDTH 5 0
BBX 4 14 0 -3
BITMAP
10
20
20
40
40
40
40
80
40
40
40
20
20
10
ENDCHAR

STARTCHAR bar
ENCODING 124
SWIDTH 606 0
DWIDTH 9 0
BBX 1 14 4 -3
BITMAP
80
80
80
80
80
80
80
80
80
80
80
80
80
80
ENDCHAR

STARTCHAR braceright
ENCODING 125
SWIDTH 333 0
DWIDTH 5 0
BBX 4 14 0 -3
BITMAP
80
40
40
20
20
20
10
20
20
20
20
40
40
80
ENDCHAR

STARTCHAR asciitilde
ENCODING 126
SWIDTH 606 0
DWIDTH 9 0
BBX 7 2 1 4
BITMAP
72
9C
ENDCHAR

STARTCHAR space
ENCODING 160
SWIDTH 278 0
DWIDTH 5 0
BBX 0 0 0 0
BITMAP
ENDCHAR

STARTCHAR Aogonek
ENCODING 161
SWIDTH 722 0
DWIDTH 11 0
BBX 11 13 0 -2
BITMAP
0400
0400
0A00
0A00
1100
1100
3F80
2080
4040
4040
E0E0
0080
0060
ENDCHAR

STARTCHAR breve
ENCODING 162
SWIDTH 333 0
DWIDTH 5 0
BBX 5 2 0 8
BITMAP
88
70
ENDCHAR

STARTCHAR Lslash
ENCODING 163
SWIDTH 667 0
DWIDTH 10 0
BBX 9 11 1 0
BITMAP
E000
4000
4000
4800
5000
6000
C000
4000
4080
4080
FF80
ENDCHAR

STARTCHAR currency
ENCODING 164
SWIDTH 606 0
DWIDTH 9 0
BBX 7 7 1 1
BITMAP
BA
44
82
82
82
44
BA
ENDCHAR

STARTCHAR Lcaron
ENCODING 165
SWIDTH 667 0
DWIDTH 10 0
BBX 9 11 1 0
BITMAP
E600
4200
4200
4400
4000
4000
4000
4000
4080
4080
FF80
ENDCHAR

STARTCHAR Sacute
ENCODING 166
SWIDTH 630 0
DWIDTH 9 0
BBX 7 14 1 0
BITMAP
0C
10
00
3A
46
82
82
60
18
04
82
82
C2
BC
ENDCHAR

STARTCHAR section
ENCODING 167
SWIDTH 500 0
DWIDTH 8 0
BBX 5 14 1 -3
BITMAP
70
88
88
C0
60
B0
98
C8
68
30
18
88
88
70
ENDCHAR

STARTCHAR dieresis
ENCODING 168
SWIDTH 333 0
DWIDTH 5 0
BBX 5 1 0 8
BITMAP
D8
ENDCHAR

STARTCHAR Scaron
ENCODING 169
SWIDTH 630 0
DWIDTH 9 0
BBX 7 14 1 0
BITMAP
24
18
00
3A
46
82
82
60
18
04
82
82
C2
BC
ENDCHAR

STARTCHAR Scommaaccent
ENCODING 170
SWIDTH 630 0
DWIDTH 9 0
BBX 7 15 1 -4
BITMAP
3A
46
82
82
60
18
04
82
82
C2
BC
00
18
08
10
ENDCHAR

STARTCHAR Tcaron
ENCODING 171
SWIDTH 667 0
DWIDTH 9 0
BBX 9 14 0 0
BITMAP
1200
0C00
0000
7F00
C980
8880
8880
0800
0800
0800
0800
0800
0800
1C00
ENDCHAR

STARTCHAR Zacute
ENCODING 172
SWIDTH 611 0
DWIDTH 10 0
BBX 8 14 1 0
BITMAP
06
08
00
FF
82
84
04
08
10
10
20
41
41
FF
ENDCHAR

STARTCHAR hyphen
ENCODING 173
SWIDTH 333 0
DWIDTH 5 0
BBX 3 1 1 3
BITMAP
E0
ENDCHAR

STARTCHAR Zcaron
ENCODING 174
SWIDTH 611 0
DWIDTH 10 0
BBX 8 14 1 0
BITMAP
24
18
00
FF
82
84
04
08
10
10
20
41
41
FF
ENDCHAR

STARTCHAR Zdotaccent
ENCODING 175
SWIDTH 611 0
DWIDTH 10 0
BBX 8 13 1 0
BITMAP
18
00
FF
82
84
04
08
10
10
20
41
41
FF
ENDCHAR

STARTCHAR degree
ENCODING 176
SWIDTH 400 0
DWIDTH 6 0
BBX 5 5 0 6
BITMAP
70
88
88
88
70
ENDCHAR

STARTCHAR aogonek
ENCODING 177
SWIDTH 556 0
DWIDTH 8 0
BBX 9 9 0 -2
BITMAP
7800
8400
0400
7C00
8400
8400
7A00
0200
0180
ENDCHAR

STARTCHAR ogonek
ENCODING 178
SWIDTH 333 0
DWIDTH 5 0
BBX 3 2 1 -2
BITMAP
80
60
ENDCHAR

STARTCHAR lslash
ENCODING 179
SWIDTH 315 0
DWIDTH 4 0
BBX 3 11 1 0
BITMAP
C0
40
40
40
60
40
C0
40
40
40
E0
ENDCHAR

STARTCHAR acute
ENCODING 180
SWIDTH 333 0
DWIDTH 5 0
BBX 3 2 1 8
BITMAP
60
80
ENDCHAR

STARTCHAR lcaron
ENCODING 181
SWIDTH 385 0
DWIDTH 4 0
BBX 4 11 1 0
BITMAP
F0
50
50
60
40
40
40
40
40
40
E0
ENDCHAR

STARTCHAR sacute
ENCODING 182
SWIDTH 463 0
DWIDTH 7 0
BBX 6 10 0 0
BITMAP
18
20
00
74
8C
80
78
04
C4
B8
ENDCHAR

STARTCHAR caron
ENCODING 183
SWIDTH 333 0
DWIDTH 5 0
BBX 4 2 0 8
BITMAP
90
60
ENDCHAR

STARTCHAR commaaccent
ENCODING 184
SWIDTH 333 0
DWIDTH 5 0
BBX 2 3 1 -4
BITMAP
C0
40
80
ENDCHAR

STARTCHAR scaron
ENCODING 185
SWIDTH 463 0
DWIDTH 7 0
BBX 6 10 0 0
BITMAP
48
30
00
74
8C
80
78
04
C4
B8
ENDCHAR

STARTCHAR scommaaccent
ENCODING 186
SWIDTH 463 0
DWIDTH 7 0
BBX 6 11 0 -4
BITMAP
74
8C
80
78
04
C4
B8
00
30
10
20
ENDCHAR

STARTCHAR tcaron
ENCODING 187
SWIDTH 461 0
DWIDTH 6 0
BBX 5 11 0 0
BITMAP
18
48
48
50
F0
40
40
40
48
48
30
ENDCHAR

STARTCHAR zacute
ENCODING 188
SWIDTH 481 0
DWIDTH 7 0
BBX 6 10 0 0
BITMAP
18
20
00
FC
84
88
10
24
44
FC
ENDCHAR

STARTCHAR hungarumlaut
ENCODING 189
SWIDTH 333 0
DWIDTH 5 0
BBX 7 2 0 8
BITMAP
66
88
ENDCHAR

STARTCHAR zcaron
ENCODING 190
SWIDTH 481 0
DWIDTH 7 0
BBX 6 10 0 0
BITMAP
48
30
00
FC
84
88
10
24
44
FC
ENDCHAR

STARTCHAR zdotaccent
ENCODING 191
SWIDTH 481 0
DWIDTH 7 0
BBX 6 9 0 0
BITMAP
30
00
FC
84
88
10
24
44
FC
ENDCHAR

STARTCHAR Racute
ENCODING 192
SWIDTH 722 0
DWIDTH 11 0
BBX 10 14 1 0
BITMAP
0600
0800
0000
FF00
4080
4080
4080
4080
7F00
4400
4200
4200
4240
F180
ENDCHAR

STARTCHAR Aacute
ENCODING 193
SWIDTH 722 0
DWIDTH 11 0
BBX 11 14 0 0
BITMAP
0300
0400
0000
0400
0400
0A00
0A00
1100
1100
3F80
2080
4040
4040
E0E0
ENDCHAR

STARTCHAR Acircumflex
ENCODING 194
SWIDTH 722 0
DWIDTH 11 0
BBX 11 14 0 0
BITMAP
0600
0900
0000
0400
0400
0A00
0A00
1100
1100
3F80
2080
4040
4040
E0E0
ENDCHAR

STARTCHAR Abreve
ENCODING 195
SWIDTH 722 0
DWIDTH 11 0
BBX 11 14 0 0
BITMAP
1100
0E00
0000
0400
0400
0A00
0A00
1100
1100
3F80
2080
4040
4040
E0E0
ENDCHAR

STARTCHAR Adieresis
ENCODING 196
SWIDTH 722 0
DWIDTH 11 0
BBX 11 13 0 0
BITMAP
1B00
0000
0400
0400
0A00
0A00
1100
1100
3F80
2080
4040
4040
E0E0
ENDCHAR

STARTCHAR Lacute
ENCODING 197
SWIDTH 667 0
DWIDTH 10 0
BBX 9 14 1 0
BITMAP
1800
2000
0000
E000
4000
4000
4000
4000
4000
4000
4000
4080
4080
FF80
ENDCHAR

STARTCHAR Cacute
ENCODING 198
SWIDTH 722 0
DWIDTH 11 0
BBX 9 14 1 0
BITMAP
0600
0800
0000
1E80
2180
4080
8080
8000
8000
8000
8080
4080
2100
1E00
ENDCHAR

STARTCHAR Ccedilla
ENCODING 199
SWIDTH 722 0
DWIDTH 11 0
BBX 9 14 1 -3
BITMAP
1E80
2180
4080
8080
8000
8000
8000
8080
4080
2100
1E00
0800
0400
1800
ENDCHAR

STARTCHAR Ccaron
ENCODING 200
SWIDTH 722 0
DWIDTH 11 0
BBX 9 14 1 0
BITMAP
1200
0C00
0000
1E80
2180
4080
8080
8000
8000
8000
8080
4080
2100
1E00
ENDCHAR

STARTCHAR Eacute
ENCODING 201
SWIDTH 722 0
DWIDTH 11 0
BBX 9 14 1 0
BITMAP
0600
0800
0000
FF80
4080
4080
4400
4400
7C00
4400
4400
4080
4080
FF80
ENDCHAR

STARTCHAR Eogonek
ENCODING 202
SWIDTH 722 0
DWIDTH 11 0
BBX 9 13 1 -2
BITMAP
FF80
4080
4080
4400
4400
7C00
4400
4400
4080
4080
FF80
0200
0180
ENDCHAR

STARTCHAR Edieresis
ENCODING 203
SWIDTH 722 0
DWIDTH 11 0
BBX 9 13 1 0
BITMAP
3600
0000
FF80
4080
4080
4400
4400
7C00
4400
4400
4080
4080
FF80
ENDCHAR

STARTCHAR Ecaron
ENCODING 204
SWIDTH 722 0
DWIDTH 11 0
BBX 9 14 1 0
BITMAP
1200
0C00
0000
FF80
4080
4080
4400
4400
7C00
4400
4400
4080
4080
FF80
ENDCHAR

STARTCHAR Iacute
ENCODING 205
SWIDTH 407 0
DWIDTH 5 0
BBX 4 14 1 0
BITMAP
30
40
00
E0
40
40
40
40
40
40
40
40
40
E0
ENDCHAR

STARTCHAR Icircumflex
ENCODING 206
SWIDTH 407 0
DWIDTH 5 0
BBX 4 14 1 0
BITMAP
60
90
00
E0
40
40
40
40
40
40
40
40
40
E0
ENDCHAR

STARTCHAR Dcaron
ENCODING 207
SWIDTH 778 0
DWIDTH 12 0
BBX 10 14 1 0
BITMAP
1200
0C00
0000
FE00
4100
4080
4040
4040
4040
4040
4040
4080
4100
FE00
ENDCHAR

STARTCHAR Dcroat
ENCODING 208
SWIDTH 778 0
DWIDTH 12 0
BBX 10 11 1 0
BITMAP
FE00
4100
4080
4040
4040
F840
4040
4040
4080
4100
FE00
ENDCHAR

STARTCHAR Nacute
ENCODING 209
SWIDTH 815 0
DWIDTH 12 0
BBX 10 14 1 0
BITMAP
0600
0800
0000
C1C0
6080
5080
5080
4880
4880
4480
4280
4280
4180
E080
ENDCHAR

STARTCHAR Ncaron
ENCODING 210
SWIDTH 815 0
DWIDTH 12 0
BBX 10 14 1 0
BITMAP
1200
0C00
0000
C1C0
6080
5080
5080
4880
4880
4480
4280
4280
4180
E080
ENDCHAR

STARTCHAR Oacute
ENCODING 211
SWIDTH 778 0
DWIDTH 12 0
BBX 10 14 1 0
BITMAP
0600
0800
0000
1E00
2100
4080
8040
8040
8040
8040
8040
4080
2100
1E00
ENDCHAR

STARTCHAR Ocircumflex
ENCODING 212
SWIDTH 778 0
DWIDTH 12 0
BBX 10 14 1 0
BITMAP
0C00
1200
0000
1E00
2100
4080
8040
8040
8040
8040
8040
4080
2100
1E00
ENDCHAR

STARTCHAR Ohungarumlaut
ENCODING 213
SWIDTH 778 0
DWIDTH 12 0
BBX 10 14 1 0
BITMAP
1980
2200
0000
1E00
2100
4080
8040
8040
8040
8040
8040
4080
2100
1E00
ENDCHAR

STARTCHAR Odieresis
ENCODING 214
SWIDTH 778 0
DWIDTH 12 0
BBX 10 13 1 0
BITMAP
1B00
0000
1E00
2100
4080
8040
8040
8040
8040
8040
4080
2100
1E00
ENDCHAR

STARTCHAR multiply
ENCODING 215
SWIDTH 606 0
DWIDTH 9 0
BBX 7 8 1 1
BITMAP
82
44
28
38
38
28
44
82
ENDCHAR

STARTCHAR Rcaron
ENCODING 216
SWIDTH 722 0
DWIDTH 11 0
BBX 10 14 1 0
BITMAP
1200
0C00
0000
FF00
4080
4080
4080
4080
7F00
4400
4200
4200
4240
F180
ENDCHAR

STARTCHAR Uring
ENCODING 217
SWIDTH 815 0
DWIDTH 12 0
BBX 10 15 1 0
BITMAP
0C00
1200
0C00
0000
E1C0
4080
4080
4080
4080
4080
4080
4080
4080
2100
1E00
ENDCHAR

STARTCHAR Uacute
ENCODING 218
SWIDTH 815 0
DWIDTH 12 0
BBX 10 14 1 0
BITMAP
0600
0800
0000
E1C0
4080
4080
4080
4080
4080
4080
4080
4080
2100
1E00
ENDCHAR

STARTCHAR Uhungarumlaut
ENCODING 219
SWIDTH 815 0
DWIDTH 12 0
BBX 10 14 1 0
BITMAP
1980
2200
0000
E1C0
4080
4080
4080
4080
4080
4080
4080
4080
2100
1E00
ENDCHAR

STARTCHAR Udieresis
ENCODING 220
SWIDTH 815 0
DWIDTH 12 0
BBX 10 13 1 0
BITMAP
1B00
0000
E1C0
4080
4080
4080
4080
4080
4080
4080
4080
2100
1E00
ENDCHAR

STARTCHAR Yacute
ENCODING 221
SWIDTH 704 0
DWIDTH 11 0
BBX 9 14 1 0
BITMAP
0600
0800
0000
E380
4100
2200
2200
1400
1400
0800
0800
0800
0800
1C00
ENDCHAR

STARTCHAR Tcommaaccent
ENCODING 222
SWIDTH 667 0
DWIDTH 9 0
BBX 9 15 0 -4
BITMAP
7F00
C980
8880
8880
0800
0800
0800
0800
0800
0800
1C00
0000
1800
0800
1000
ENDCHAR

STARTCHAR germandbls
ENCODING 223
SWIDTH 574 0
DWIDTH 9 0
BBX 7 11 1 0
BITMAP
3C
62
42
42
4C
44
42
42
42
52
CC
ENDCHAR

STARTCHAR racute
ENCODING 224
SWIDTH 444 0
DWIDTH 7 0
BBX 7 10 0 0
BITMAP
18
20
00
CC
52
60
40
40
40
E0
ENDCHAR

STARTCHAR aacute
ENCODING 225
SWIDTH 556 0
DWIDTH 8 0
BBX 7 10 0 0
BITMAP
18
20
00
78
84
04
7C
84
84
7A
ENDCHAR

STARTCHAR acircumflex
ENCODING 226
SWIDTH 556 0
DWIDTH 8 0
BBX 7 10 0 0
BITMAP
30
48
00
78
84
04
7C
84
84
7A
ENDCHAR

STARTCHAR abreve
ENCODING 227
SWIDTH 556 0
DWIDTH 8 0
BBX 7 10 0 0
BITMAP
44
38
00
78
84
04
7C
84
84
7A
ENDCHAR

STARTCHAR adieresis
ENCODING 228
SWIDTH 556 0
DWIDTH 8 0
BBX 7 9 0 0
BITMAP
6C
00
78
84
04
7C
84
84
7A
ENDCHAR

STARTCHAR lacute
ENCODING 229
SWIDTH 315 0
DWIDTH 4 0
BBX 4 14 1 0
BITMAP
30
40
00
C0
40
40
40
40
40
40
40
40
40
E0
ENDCHAR

STARTCHAR cacute
ENCODING 230
SWIDTH 444 0
DWIDTH 7 0
BBX 6 10 0 0
BITMAP
0C
10
00
3C
44
80
80
80
44
38
ENDCHAR

STARTCHAR ccedilla
ENCODING 231
SWIDTH 444 0
DWIDTH 7 0
BBX 6 10 0 -3
BITMAP
3C
44
80
80
80
44
38
10
08
30
ENDCHAR

STARTCHAR ccaron
ENCODING 232
SWIDTH 444 0
DWIDTH 7 0
BBX 6 10 0 0
BITMAP
24
18
00
3C
44
80
80
80
44
38
ENDCHAR

STARTCHAR eacute
ENCODING 233
SWIDTH 500 0
DWIDTH 8 0
BBX 7 10 0 0
BITMAP
0C
10
00
38
44
82
FE
80
42
3C
ENDCHAR

STARTCHAR eogonek
ENCODING 234
SWIDTH 500 0
DWIDTH 8 0
BBX 7 9 0 -2
BITMAP
38
44
82
FE
80
42
3C
10
0C
ENDCHAR

STARTCHAR edieresis
ENCODING 235
SWIDTH 500 0
DWIDTH 8 0
BBX 7 9 0 0
BITMAP
6C
00
38
44
82
FE
80
42
3C
ENDCHAR

STARTCHAR ecaron
ENCODING 236
SWIDTH 500 0
DWIDTH 8 0
BBX 7 10 0 0
BITMAP
24
18
00
38
44
82
FE
80
42
3C
ENDCHAR

STARTCHAR iacute
ENCODING 237
SWIDTH 315 0
DWIDTH 5 0
BBX 4 10 1 0
BITMAP
30
40
00
C0
40
40
40
40
40
E0
ENDCHAR

STARTCHAR icircumflex
ENCODING 238
SWIDTH 315 0
DWIDTH 5 0
BBX 4 10 1 0
BITMAP
60
90
00
C0
40
40
40
40
40
E0
ENDCHAR

STARTCHAR dcaron
ENCODING 239
SWIDTH 651 0
DWIDTH 9 0
BBX 10 11 0 0
BITMAP
06C0
0240
0240
0280
3A00
4600
8200
8200
8200
4600
3B00
ENDCHAR

STARTCHAR dcroat
ENCODING 240
SWIDTH 574 0
DWIDTH 9 0
BBX 8 11 0 0
BITMAP
06
02
0F
02
3A
46
82
82
82
46
3B
ENDCHAR

STARTCHAR nacute
ENCODING 241
SWIDTH 611 0
DWIDTH 9 0
BBX 8 10 0 0
BITMAP
0C
10
00
DC
62
42
42
42
42
E7
ENDCHAR

STARTCHAR ncaron
ENCODING 242
SWIDTH 611 0
DWIDTH 9 0
BBX 8 10 0 0
BITMAP
24
18
00
DC
62
42
42
42
42
E7
ENDCHAR

STARTCHAR oacute
ENCODING 243
SWIDTH 500 0
DWIDTH 8 0
BBX 7 10 0 0
BITMAP
0C
10
00
38
44
82
82
82
44
38
ENDCHAR

STARTCHAR ocircumflex
ENCODING 244
SWIDTH 500 0
DWIDTH 8 0
BBX 7 10 0 0
BITMAP
18
24
00
38
44
82
82
82
44
38
ENDCHAR

STARTCHAR ohungarumlaut
ENCODING 245
SWIDTH 500 0
DWIDTH 8 0
BBX 7 10 0 0
BITMAP
66
88
00
38
44
82
82
82
44
38
ENDCHAR

STARTCHAR odieresis
ENCODING 246
SWIDTH 500 0
DWIDTH 8 0
BBX 7 9 0 0
BITMAP
6C
00
38
44
82
82
82
44
38
ENDCHAR

STARTCHAR divide
ENCODING 247
SWIDTH 606 0
DWIDTH 9 0
BBX 7 7 1 2
BITMAP
10
00
00
FE
00
00
10
ENDCHAR

STARTCHAR rcaron
ENCODING 248
SWIDTH 444 0
DWIDTH 7 0
BBX 7 10 0 0
BITMAP
48
30
00
CC
52
60
40
40
40
E0
ENDCHAR

STARTCHAR uring
ENCODING 249
SWIDTH 611 0
DWIDTH 9 0
BBX 8 11 0 0
BITMAP
18
24
18
00
C6
42
42
42
42
46
3B
ENDCHAR

STARTCHAR uacute
ENCODING 250
SWIDTH 611 0
DWIDTH 9 0
BBX 8 10 0 0
BITMAP
0C
10
00
C6
42
42
42
42
46
3B
ENDCHAR

STARTCHAR uhungarumlaut
ENCODING 251
SWIDTH 611 0
DWIDTH 9 0
BBX 8 10 0 0
BITMAP
33
44
00
C6
42
42
42
42
46
3B
ENDCHAR

STARTCHAR udieresis
ENCODING 252
SWIDTH 611 0
DWIDTH 9 0
BBX 8 9 0 0
BITMAP
36
00
C6
42
42
42
42
46
3B
ENDCHAR

STARTCHAR yacute
ENCODING 253
SWIDTH 537 0
DWIDTH 8 0
BBX 8 13 0 -3
BITMAP
0C
10
00
E7
42
22
24
14
14
08
08
50
60
ENDCHAR

STARTCHAR tcommaaccent
ENCODING 254
SWIDTH 389 0
DWIDTH 6 0
BBX 5 14 0 -4
BITMAP
40
40
40
F0
40
40
40
48
48
30
00
30
10
20
ENDCHAR

STARTCHAR dotaccent
ENCODING 255
SWIDTH 333 0
DWIDTH 5 0
BBX 2 1 1 8
BITMAP
C0
ENDCHAR

ENDFONT
