STARTFONT 2.1
FONT -URW-ITC Avant Garde-Demi-R-Normal-Sans-10-100-72-72-P-56-ISO8859-1
SIZE 10 72 72
FONTBOUNDINGBOX 15 13 -2 -3

STARTPROPERTIES 22
FONTNAME_REGISTRY "-"
FOUNDRY "URW"
FAMILY_NAME "ITC Avant Garde"
WEIGHT_NAME "Demi"
SLANT "R"
SETWIDTH_NAME "Normal"
ADD_STYLE_NAME "Sans"
PIXEL_SIZE 10
POINT_SIZE 100
RESOLUTION_X 72
RESOLUTION_Y 72
SPACING "P"
CHARSET_REGISTRY "ISO8859"
CHARSET_ENCODING "1"
FULL_NAME "AvantGarde-Demi"
AVERAGE_WIDTH 56
WEIGHT 10
X_HEIGHT 6
QUAD_WIDTH 6
DEFAULT_CHAR 32
FONT_DESCENT 3
FONT_ASCENT 10
ENDPROPERTIES

CHARS 190

STARTCHAR space
ENCODING 32
SWIDTH 280 0
DWIDTH 3 0
BBX 1 1 0 0
BITMAP
00
ENDCHAR

STARTCHAR exclam
ENCODING 33
SWIDTH 280 0
DWIDTH 3 0
BBX 1 8 1 0
BITMAP
80
80
80
80
80
80
00
80
ENDCHAR

STARTCHAR quotedbl
ENCODING 34
SWIDTH 360 0
DWIDTH 4 0
BBX 2 2 1 6
BITMAP
C0
C0
ENDCHAR

STARTCHAR numbersign
ENCODING 35
SWIDTH 560 0
DWIDTH 6 0
BBX 5 8 1 0
BITMAP
50
50
F8
50
F8
50
50
50
ENDCHAR

STARTCHAR dollar
ENCODING 36
SWIDTH 560 0
DWIDTH 6 0
BBX 3 9 1 -1
BITMAP
40
40
A0
80
60
20
A0
40
40
ENDCHAR

STARTCHAR percent
ENCODING 37
SWIDTH 860 0
DWIDTH 9 0
BBX 9 8 0 0
BITMAP
6400
9400
9800
6800
1300
1480
2480
2300
ENDCHAR

STARTCHAR ampersand
ENCODING 38
SWIDTH 680 0
DWIDTH 7 0
BBX 5 8 1 0
BITMAP
20
50
50
20
68
B0
90
68
ENDCHAR

STARTCHAR quoteright
ENCODING 39
SWIDTH 280 0
DWIDTH 3 0
BBX 1 3 1 5
BITMAP
80
80
80
ENDCHAR

STARTCHAR parenleft
ENCODING 40
SWIDTH 380 0
DWIDTH 4 0
BBX 2 10 1 -2
BITMAP
40
40
80
80
80
80
80
80
40
40
ENDCHAR

STARTCHAR parenright
ENCODING 41
SWIDTH 380 0
DWIDTH 4 0
BBX 2 10 1 -2
BITMAP
80
80
40
40
40
40
40
40
80
80
ENDCHAR

STARTCHAR asterisk
ENCODING 42
SWIDTH 440 0
DWIDTH 4 0
BBX 3 3 1 4
BITMAP
E0
E0
40
ENDCHAR

STARTCHAR plus
ENCODING 43
SWIDTH 600 0
DWIDTH 6 0
BBX 3 3 2 1
BITMAP
40
E0
40
ENDCHAR

STARTCHAR comma
ENCODING 44
SWIDTH 280 0
DWIDTH 3 0
BBX 1 3 1 -2
BITMAP
80
80
80
ENDCHAR

STARTCHAR minus
ENCODING 45
SWIDTH 600 0
DWIDTH 6 0
BBX 5 1 1 3
BITMAP
F8
ENDCHAR

STARTCHAR period
ENCODING 46
SWIDTH 280 0
DWIDTH 3 0
BBX 1 1 1 0
BITMAP
80
ENDCHAR

STARTCHAR slash
ENCODING 47
SWIDTH 460 0
DWIDTH 5 0
BBX 4 10 0 -2
BITMAP
10
10
20
20
20
40
40
40
80
80
ENDCHAR

STARTCHAR zero
ENCODING 48
SWIDTH 560 0
DWIDTH 6 0
BBX 5 8 0 0
BITMAP
70
88
88
88
88
88
88
70
ENDCHAR

STARTCHAR one
ENCODING 49
SWIDTH 560 0
DWIDTH 6 0
BBX 2 8 2 0
BITMAP
C0
40
40
40
40
40
40
40
ENDCHAR

STARTCHAR two
ENCODING 50
SWIDTH 560 0
DWIDTH 6 0
BBX 5 8 0 0
BITMAP
70
88
08
08
10
20
40
F8
ENDCHAR

STARTCHAR three
ENCODING 51
SWIDTH 560 0
DWIDTH 6 0
BBX 5 8 0 0
BITMAP
60
10
10
20
10
08
88
70
ENDCHAR

STARTCHAR four
ENCODING 52
SWIDTH 560 0
DWIDTH 6 0
BBX 5 8 0 0
BITMAP
10
30
30
50
50
90
F8
10
ENDCHAR

STARTCHAR five
ENCODING 53
SWIDTH 560 0
DWIDTH 6 0
BBX 5 8 0 0
BITMAP
70
40
80
F0
88
08
88
70
ENDCHAR

STARTCHAR six
ENCODING 54
SWIDTH 560 0
DWIDTH 6 0
BBX 5 8 0 0
BITMAP
10
20
40
70
88
88
88
70
ENDCHAR

STARTCHAR seven
ENCODING 55
SWIDTH 560 0
DWIDTH 6 0
BBX 4 8 1 0
BITMAP
F0
10
10
20
20
40
40
80
ENDCHAR

STARTCHAR eight
ENCODING 56
SWIDTH 560 0
DWIDTH 6 0
BBX 5 8 0 0
BITMAP
70
88
88
70
88
88
88
70
ENDCHAR

STARTCHAR nine
ENCODING 57
SWIDTH 560 0
DWIDTH 6 0
BBX 5 8 0 0
BITMAP
70
88
88
88
70
10
20
40
ENDCHAR

STARTCHAR colon
ENCODING 58
SWIDTH 280 0
DWIDTH 3 0
BBX 1 6 1 0
BITMAP
80
00
00
00
00
80
ENDCHAR

STARTCHAR semicolon
ENCODING 59
SWIDTH 280 0
DWIDTH 3 0
BBX 1 8 1 -2
BITMAP
80
00
00
00
00
80
80
80
ENDCHAR

STARTCHAR less
ENCODING 60
SWIDTH 600 0
DWIDTH 6 0
BBX 5 6 1 0
BITMAP
08
30
C0
C0
30
08
ENDCHAR

STARTCHAR equal
ENCODING 61
SWIDTH 600 0
DWIDTH 6 0
BBX 5 3 1 2
BITMAP
F8
00
F8
ENDCHAR

STARTCHAR greater
ENCODING 62
SWIDTH 600 0
DWIDTH 6 0
BBX 5 6 1 0
BITMAP
80
60
18
18
60
80
ENDCHAR

STARTCHAR question
ENCODING 63
SWIDTH 560 0
DWIDTH 6 0
BBX 4 8 1 0
BITMAP
60
90
10
20
40
40
00
40
ENDCHAR

STARTCHAR at
ENCODING 64
SWIDTH 740 0
DWIDTH 7 0
BBX 8 8 0 0
BITMAP
3C
42
99
A5
A5
9E
42
3C
ENDCHAR

STARTCHAR A
ENCODING 65
SWIDTH 740 0
DWIDTH 7 0
BBX 7 8 0 0
BITMAP
10
18
28
28
2C
7C
44
C6
ENDCHAR

STARTCHAR B
ENCODING 66
SWIDTH 580 0
DWIDTH 6 0
BBX 4 8 1 0
BITMAP
E0
90
90
E0
90
90
90
E0
ENDCHAR

STARTCHAR C
ENCODING 67
SWIDTH 780 0
DWIDTH 8 0
BBX 7 8 0 0
BITMAP
3C
42
80
80
80
80
42
3C
ENDCHAR

STARTCHAR D
ENCODING 68
SWIDTH 700 0
DWIDTH 7 0
BBX 6 8 1 0
BITMAP
F0
88
84
84
84
84
88
F0
ENDCHAR

STARTCHAR E
ENCODING 69
SWIDTH 520 0
DWIDTH 5 0
BBX 4 8 1 0
BITMAP
F0
80
80
F0
80
80
80
F0
ENDCHAR

STARTCHAR F
ENCODING 70
SWIDTH 480 0
DWIDTH 5 0
BBX 3 8 1 0
BITMAP
E0
80
80
E0
80
80
80
80
ENDCHAR

STARTCHAR G
ENCODING 71
SWIDTH 840 0
DWIDTH 8 0
BBX 8 8 0 0
BITMAP
3C
43
80
80
9F
81
42
3C
ENDCHAR

STARTCHAR H
ENCODING 72
SWIDTH 680 0
DWIDTH 7 0
BBX 5 8 1 0
BITMAP
88
88
88
F8
88
88
88
88
ENDCHAR

STARTCHAR I
ENCODING 73
SWIDTH 280 0
DWIDTH 3 0
BBX 1 8 1 0
BITMAP
80
80
80
80
80
80
80
80
ENDCHAR

STARTCHAR J
ENCODING 74
SWIDTH 480 0
DWIDTH 5 0
BBX 4 8 0 0
BITMAP
10
10
10
10
10
10
10
E0
ENDCHAR

STARTCHAR K
ENCODING 75
SWIDTH 620 0
DWIDTH 6 0
BBX 5 8 1 0
BITMAP
88
90
A0
C0
C0
A0
90
88
ENDCHAR

STARTCHAR L
ENCODING 76
SWIDTH 440 0
DWIDTH 4 0
BBX 3 8 1 0
BITMAP
80
80
80
80
80
80
80
E0
ENDCHAR

STARTCHAR M
ENCODING 77
SWIDTH 900 0
DWIDTH 9 0
BBX 7 8 1 0
BITMAP
C6
C6
C6
AA
AA
AA
92
92
ENDCHAR

STARTCHAR N
ENCODING 78
SWIDTH 740 0
DWIDTH 7 0
BBX 6 8 1 0
BITMAP
C4
C4
A4
A4
94
94
8C
8C
ENDCHAR

STARTCHAR O
ENCODING 79
SWIDTH 840 0
DWIDTH 8 0
BBX 7 8 1 0
BITMAP
38
44
82
82
82
82
44
38
ENDCHAR

STARTCHAR P
ENCODING 80
SWIDTH 560 0
DWIDTH 6 0
BBX 4 8 1 0
BITMAP
E0
90
90
90
E0
80
80
80
ENDCHAR

STARTCHAR Q
ENCODING 81
SWIDTH 840 0
DWIDTH 8 0
BBX 7 8 1 0
BITMAP
38
44
82
82
F2
8A
44
3A
ENDCHAR

STARTCHAR R
ENCODING 82
SWIDTH 580 0
DWIDTH 6 0
BBX 5 8 1 0
BITMAP
F0
88
88
88
F0
A0
90
88
ENDCHAR

STARTCHAR S
ENCODING 83
SWIDTH 520 0
DWIDTH 5 0
BBX 4 8 1 0
BITMAP
60
90
80
60
10
10
90
60
ENDCHAR

STARTCHAR T
ENCODING 84
SWIDTH 420 0
DWIDTH 4 0
BBX 3 8 1 0
BITMAP
E0
40
40
40
40
40
40
40
ENDCHAR

STARTCHAR U
ENCODING 85
SWIDTH 640 0
DWIDTH 6 0
BBX 5 8 1 0
BITMAP
88
88
88
88
88
88
88
70
ENDCHAR

STARTCHAR V
ENCODING 86
SWIDTH 700 0
DWIDTH 7 0
BBX 7 8 0 0
BITMAP
86
44
44
48
28
28
30
10
ENDCHAR

STARTCHAR W
ENCODING 87
SWIDTH 900 0
DWIDTH 9 0
BBX 9 8 0 0
BITMAP
8880
C900
5900
5500
5500
3600
3600
2200
ENDCHAR

STARTCHAR X
ENCODING 88
SWIDTH 680 0
DWIDTH 7 0
BBX 7 8 0 0
BITMAP
C6
4C
28
10
30
28
44
C6
ENDCHAR

STARTCHAR Y
ENCODING 89
SWIDTH 620 0
DWIDTH 6 0
BBX 5 8 1 0
BITMAP
88
50
50
50
20
20
20
20
ENDCHAR

STARTCHAR Z
ENCODING 90
SWIDTH 500 0
DWIDTH 5 0
BBX 5 8 0 0
BITMAP
F0
10
20
20
40
40
80
F8
ENDCHAR

STARTCHAR bracketleft
ENCODING 91
SWIDTH 320 0
DWIDTH 3 0
BBX 2 10 1 -2
BITMAP
40
C0
80
80
80
80
80
80
C0
40
ENDCHAR

STARTCHAR backslash
ENCODING 92
SWIDTH 640 0
DWIDTH 6 0
BBX 4 8 1 0
BITMAP
80
40
40
40
20
20
10
10
ENDCHAR

STARTCHAR bracketright
ENCODING 93
SWIDTH 320 0
DWIDTH 3 0
BBX 2 10 0 -2
BITMAP
80
C0
40
40
40
40
40
40
C0
80
ENDCHAR

STARTCHAR asciicircum
ENCODING 94
SWIDTH 600 0
DWIDTH 6 0
BBX 5 4 1 4
BITMAP
20
50
50
88
ENDCHAR

STARTCHAR underscore
ENCODING 95
SWIDTH 500 0
DWIDTH 5 0
BBX 5 1 0 -2
BITMAP
F8
ENDCHAR

STARTCHAR quoteleft
ENCODING 96
SWIDTH 280 0
DWIDTH 3 0
BBX 1 3 1 5
BITMAP
80
80
80
ENDCHAR

STARTCHAR a
ENCODING 97
SWIDTH 660 0
DWIDTH 7 0
BBX 6 6 0 0
BITMAP
74
8C
84
84
8C
74
ENDCHAR

STARTCHAR b
ENCODING 98
SWIDTH 660 0
DWIDTH 7 0
BBX 6 8 0 0
BITMAP
80
80
B8
C4
84
84
C4
B8
ENDCHAR

STARTCHAR c
ENCODING 99
SWIDTH 640 0
DWIDTH 6 0
BBX 5 6 1 0
BITMAP
70
88
80
80
88
70
ENDCHAR

STARTCHAR d
ENCODING 100
SWIDTH 660 0
DWIDTH 7 0
BBX 6 8 0 0
BITMAP
04
04
74
8C
84
84
8C
74
ENDCHAR

STARTCHAR e
ENCODING 101
SWIDTH 640 0
DWIDTH 6 0
BBX 5 6 1 0
BITMAP
70
88
F8
80
88
70
ENDCHAR

STARTCHAR f
ENCODING 102
SWIDTH 280 0
DWIDTH 3 0
BBX 3 8 0 0
BITMAP
60
40
E0
40
40
40
40
40
ENDCHAR

STARTCHAR g
ENCODING 103
SWIDTH 660 0
DWIDTH 7 0
BBX 5 8 1 -2
BITMAP
78
88
88
88
88
78
88
70
ENDCHAR

STARTCHAR h
ENCODING 104
SWIDTH 600 0
DWIDTH 6 0
BBX 5 8 0 0
BITMAP
80
80
F0
88
88
88
88
88
ENDCHAR

STARTCHAR i
ENCODING 105
SWIDTH 240 0
DWIDTH 2 0
BBX 1 8 1 0
BITMAP
80
00
80
80
80
80
80
80
ENDCHAR

STARTCHAR j
ENCODING 106
SWIDTH 260 0
DWIDTH 3 0
BBX 1 10 1 -2
BITMAP
80
00
80
80
80
80
80
80
80
80
ENDCHAR

STARTCHAR k
ENCODING 107
SWIDTH 580 0
DWIDTH 6 0
BBX 4 8 1 0
BITMAP
80
80
90
A0
C0
C0
A0
90
ENDCHAR

STARTCHAR l
ENCODING 108
SWIDTH 240 0
DWIDTH 2 0
BBX 1 8 1 0
BITMAP
80
80
80
80
80
80
80
80
ENDCHAR

STARTCHAR m
ENCODING 109
SWIDTH 940 0
DWIDTH 9 0
BBX 7 6 1 0
BITMAP
EC
92
92
92
92
92
ENDCHAR

STARTCHAR n
ENCODING 110
SWIDTH 600 0
DWIDTH 6 0
BBX 5 6 0 0
BITMAP
F0
88
88
88
88
88
ENDCHAR

STARTCHAR o
ENCODING 111
SWIDTH 640 0
DWIDTH 6 0
BBX 6 6 0 0
BITMAP
30
48
84
84
48
30
ENDCHAR

STARTCHAR p
ENCODING 112
SWIDTH 660 0
DWIDTH 7 0
BBX 6 8 0 -2
BITMAP
B0
C8
84
84
C8
B0
80
80
ENDCHAR

STARTCHAR q
ENCODING 113
SWIDTH 660 0
DWIDTH 7 0
BBX 6 8 0 -2
BITMAP
34
4C
84
84
4C
34
04
04
ENDCHAR

STARTCHAR r
ENCODING 114
SWIDTH 320 0
DWIDTH 3 0
BBX 2 6 1 0
BITMAP
C0
80
80
80
80
80
ENDCHAR

STARTCHAR s
ENCODING 115
SWIDTH 440 0
DWIDTH 4 0
BBX 3 6 1 0
BITMAP
60
80
40
20
20
C0
ENDCHAR

STARTCHAR t
ENCODING 116
SWIDTH 300 0
DWIDTH 3 0
BBX 3 8 0 0
BITMAP
40
40
E0
40
40
40
40
40
ENDCHAR

STARTCHAR u
ENCODING 117
SWIDTH 600 0
DWIDTH 6 0
BBX 5 6 1 0
BITMAP
88
88
88
88
88
78
ENDCHAR

STARTCHAR v
ENCODING 118
SWIDTH 560 0
DWIDTH 6 0
BBX 5 6 0 0
BITMAP
88
48
50
50
30
20
ENDCHAR

STARTCHAR w
ENCODING 119
SWIDTH 800 0
DWIDTH 8 0
BBX 8 6 0 0
BITMAP
9B
5A
5A
6C
24
24
ENDCHAR

STARTCHAR x
ENCODING 120
SWIDTH 560 0
DWIDTH 6 0
BBX 5 6 0 0
BITMAP
88
50
20
20
50
88
ENDCHAR

STARTCHAR y
ENCODING 121
SWIDTH 580 0
DWIDTH 6 0
BBX 5 8 0 -2
BITMAP
C8
48
50
50
20
20
20
40
ENDCHAR

STARTCHAR z
ENCODING 122
SWIDTH 460 0
DWIDTH 5 0
BBX 4 6 0 0
BITMAP
F0
10
20
40
80
F0
ENDCHAR

STARTCHAR braceleft
ENCODING 123
SWIDTH 340 0
DWIDTH 3 0
BBX 2 10 1 -2
BITMAP
40
40
40
40
40
C0
40
40
40
40
ENDCHAR

STARTCHAR bar
ENCODING 124
SWIDTH 600 0
DWIDTH 6 0
BBX 1 8 3 0
BITMAP
80
80
80
80
80
80
80
80
ENDCHAR

STARTCHAR braceright
ENCODING 125
SWIDTH 340 0
DWIDTH 3 0
BBX 2 10 1 -2
BITMAP
80
80
80
80
80
C0
80
80
80
80
ENDCHAR

STARTCHAR asciitilde
ENCODING 126
SWIDTH 600 0
DWIDTH 6 0
BBX 5 2 1 2
BITMAP
E8
B8
ENDCHAR

STARTCHAR exclamdown
ENCODING 161
SWIDTH 280 0
DWIDTH 3 0
BBX 1 8 1 -2
BITMAP
80
00
80
80
80
80
80
80
ENDCHAR

STARTCHAR cent
ENCODING 162
SWIDTH 560 0
DWIDTH 6 0
BBX 4 5 1 3
BITMAP
20
F0
80
F0
20
ENDCHAR

STARTCHAR sterling
ENCODING 163
SWIDTH 560 0
DWIDTH 6 0
BBX 4 8 1 0
BITMAP
60
90
80
E0
40
40
90
F0
ENDCHAR

STARTCHAR currency
ENCODING 164
SWIDTH 560 0
DWIDTH 6 0
BBX 5 5 1 1
BITMAP
F8
88
88
88
F8
ENDCHAR

STARTCHAR yen
ENCODING 165
SWIDTH 560 0
DWIDTH 6 0
BBX 5 8 0 0
BITMAP
88
58
50
50
D8
20
F8
20
ENDCHAR

STARTCHAR brokenbar
ENCODING 166
SWIDTH 600 0
DWIDTH 6 0
BBX 1 8 3 0
BITMAP
80
80
80
80
00
80
80
80
ENDCHAR

STARTCHAR section
ENCODING 167
SWIDTH 560 0
DWIDTH 6 0
BBX 4 10 1 -2
BITMAP
60
90
40
60
90
D0
20
10
90
60
ENDCHAR

STARTCHAR dieresis
ENCODING 168
SWIDTH 500 0
DWIDTH 5 0
BBX 3 1 1 7
BITMAP
A0
ENDCHAR

STARTCHAR copyright
ENCODING 169
SWIDTH 740 0
DWIDTH 7 0
BBX 8 8 0 0
BITMAP
3C
42
9D
A1
A1
9D
42
3C
ENDCHAR

STARTCHAR ordfeminine
ENCODING 170
SWIDTH 360 0
DWIDTH 4 0
BBX 3 5 0 3
BITMAP
E0
A0
A0
60
E0
ENDCHAR

STARTCHAR guillemotleft
ENCODING 171
SWIDTH 460 0
DWIDTH 5 0
BBX 5 4 0 1
BITMAP
48
D8
D8
48
ENDCHAR

STARTCHAR logicalnot
ENCODING 172
SWIDTH 600 0
DWIDTH 6 0
BBX 5 2 1 2
BITMAP
F8
08
ENDCHAR

STARTCHAR hyphen
ENCODING 173
SWIDTH 420 0
DWIDTH 4 0
BBX 3 1 1 2
BITMAP
E0
ENDCHAR

STARTCHAR registered
ENCODING 174
SWIDTH 740 0
DWIDTH 7 0
BBX 8 8 0 0
BITMAP
3C
42
9D
95
9D
95
42
3C
ENDCHAR

STARTCHAR macron
ENCODING 175
SWIDTH 420 0
DWIDTH 4 0
BBX 3 1 1 7
BITMAP
E0
ENDCHAR

STARTCHAR degree
ENCODING 176
SWIDTH 400 0
DWIDTH 6 0
BBX 3 3 1 4
BITMAP
E0
A0
E0
ENDCHAR

STARTCHAR plusminus
ENCODING 177
SWIDTH 600 0
DWIDTH 6 0
BBX 5 6 1 0
BITMAP
20
F8
20
00
00
F8
ENDCHAR

STARTCHAR twosuperior
ENCODING 178
SWIDTH 336 0
DWIDTH 3 0
BBX 3 4 -1 4
BITMAP
C0
20
40
E0
ENDCHAR

STARTCHAR threesuperior
ENCODING 179
SWIDTH 336 0
DWIDTH 3 0
BBX 3 4 -1 4
BITMAP
E0
40
20
E0
ENDCHAR

STARTCHAR acute
ENCODING 180
SWIDTH 420 0
DWIDTH 4 0
BBX 3 2 1 6
BITMAP
60
C0
ENDCHAR

STARTCHAR mu
ENCODING 181
SWIDTH 576 0
DWIDTH 6 0
BBX 5 8 1 -2
BITMAP
88
88
88
88
88
F8
80
80
ENDCHAR

STARTCHAR paragraph
ENCODING 182
SWIDTH 600 0
DWIDTH 6 0
BBX 5 10 0 -2
BITMAP
78
E8
E8
68
28
28
28
28
28
28
ENDCHAR

STARTCHAR periodcentered
ENCODING 183
SWIDTH 280 0
DWIDTH 3 0
BBX 1 1 1 3
BITMAP
80
ENDCHAR

STARTCHAR cedilla
ENCODING 184
SWIDTH 340 0
DWIDTH 3 0
BBX 2 3 1 -3
BITMAP
80
C0
C0
ENDCHAR

STARTCHAR onesuperior
ENCODING 185
SWIDTH 336 0
DWIDTH 3 0
BBX 2 4 -2 4
BITMAP
C0
40
40
40
ENDCHAR

STARTCHAR ordmasculine
ENCODING 186
SWIDTH 360 0
DWIDTH 4 0
BBX 3 5 0 3
BITMAP
40
A0
A0
40
E0
ENDCHAR

STARTCHAR guillemotright
ENCODING 187
SWIDTH 460 0
DWIDTH 5 0
BBX 5 4 0 1
BITMAP
90
D8
D8
90
ENDCHAR

STARTCHAR onequarter
ENCODING 188
SWIDTH 840 0
DWIDTH 8 0
BBX 8 8 3 0
BITMAP
C8
48
50
50
26
2A
2F
42
ENDCHAR

STARTCHAR onehalf
ENCODING 189
SWIDTH 840 0
DWIDTH 8 0
BBX 7 8 3 0
BITMAP
C8
48
50
50
2C
22
24
4E
ENDCHAR

STARTCHAR threequarters
ENCODING 190
SWIDTH 840 0
DWIDTH 8 0
BBX 9 8 4 0
BITMAP
E400
4400
2800
E800
1300
1500
1780
2100
ENDCHAR

STARTCHAR questiondown
ENCODING 191
SWIDTH 560 0
DWIDTH 6 0
BBX 4 8 1 -2
BITMAP
40
00
40
40
80
80
90
60
ENDCHAR

STARTCHAR Agrave
ENCODING 192
SWIDTH 740 0
DWIDTH 7 0
BBX 7 10 0 0
BITMAP
30
18
10
18
28
28
2C
7C
44
C6
ENDCHAR

STARTCHAR Aacute
ENCODING 193
SWIDTH 740 0
DWIDTH 7 0
BBX 7 10 0 0
BITMAP
18
30
10
18
28
28
2C
7C
44
C6
ENDCHAR

STARTCHAR Acircumflex
ENCODING 194
SWIDTH 740 0
DWIDTH 7 0
BBX 7 10 0 0
BITMAP
18
3C
10
18
28
28
2C
7C
44
C6
ENDCHAR

STARTCHAR Atilde
ENCODING 195
SWIDTH 740 0
DWIDTH 7 0
BBX 7 9 0 0
BITMAP
38
10
18
28
28
2C
7C
44
C6
ENDCHAR

STARTCHAR Adieresis
ENCODING 196
SWIDTH 740 0
DWIDTH 7 0
BBX 7 9 0 0
BITMAP
28
10
18
28
28
2C
7C
44
C6
ENDCHAR

STARTCHAR Aring
ENCODING 197
SWIDTH 740 0
DWIDTH 7 0
BBX 7 10 0 0
BITMAP
18
18
10
18
28
28
2C
7C
44
C6
ENDCHAR

STARTCHAR AE
ENCODING 198
SWIDTH 900 0
DWIDTH 9 0
BBX 8 8 0 0
BITMAP
07
0C
1C
17
3C
24
44
C7
ENDCHAR

STARTCHAR Ccedilla
ENCODING 199
SWIDTH 780 0
DWIDTH 8 0
BBX 7 11 0 -3
BITMAP
3C
42
80
80
80
80
42
3C
20
10
30
ENDCHAR

STARTCHAR Egrave
ENCODING 200
SWIDTH 520 0
DWIDTH 5 0
BBX 4 10 1 0
BITMAP
C0
60
F0
80
80
F0
80
80
80
F0
ENDCHAR

STARTCHAR Eacute
ENCODING 201
SWIDTH 520 0
DWIDTH 5 0
BBX 4 10 1 0
BITMAP
60
C0
F0
80
80
F0
80
80
80
F0
ENDCHAR

STARTCHAR Ecircumflex
ENCODING 202
SWIDTH 520 0
DWIDTH 5 0
BBX 4 10 1 0
BITMAP
60
90
F0
80
80
F0
80
80
80
F0
ENDCHAR

STARTCHAR Edieresis
ENCODING 203
SWIDTH 520 0
DWIDTH 5 0
BBX 4 9 1 0
BITMAP
A0
F0
80
80
F0
80
80
80
F0
ENDCHAR

STARTCHAR Igrave
ENCODING 204
SWIDTH 280 0
DWIDTH 3 0
BBX 3 10 2 0
BITMAP
C0
60
40
40
40
40
40
40
40
40
ENDCHAR

STARTCHAR Iacute
ENCODING 205
SWIDTH 280 0
DWIDTH 3 0
BBX 3 10 2 0
BITMAP
60
C0
40
40
40
40
40
40
40
40
ENDCHAR

STARTCHAR Icircumflex
ENCODING 206
SWIDTH 280 0
DWIDTH 3 0
BBX 4 10 2 0
BITMAP
60
F0
40
40
40
40
40
40
40
40
ENDCHAR

STARTCHAR Idieresis
ENCODING 207
SWIDTH 280 0
DWIDTH 3 0
BBX 3 9 2 0
BITMAP
A0
40
40
40
40
40
40
40
40
ENDCHAR

STARTCHAR Eth
ENCODING 208
SWIDTH 742 0
DWIDTH 7 0
BBX 7 8 0 0
BITMAP
78
44
42
E2
42
42
44
78
ENDCHAR

STARTCHAR Ntilde
ENCODING 209
SWIDTH 740 0
DWIDTH 7 0
BBX 6 9 1 0
BITMAP
38
C4
C4
A4
A4
94
94
8C
8C
ENDCHAR

STARTCHAR Ograve
ENCODING 210
SWIDTH 840 0
DWIDTH 8 0
BBX 7 10 1 0
BITMAP
30
18
38
44
82
82
82
82
44
38
ENDCHAR

STARTCHAR Oacute
ENCODING 211
SWIDTH 840 0
DWIDTH 8 0
BBX 7 10 1 0
BITMAP
18
30
38
44
82
82
82
82
44
38
ENDCHAR

STARTCHAR Ocircumflex
ENCODING 212
SWIDTH 840 0
DWIDTH 8 0
BBX 7 10 1 0
BITMAP
18
3C
38
44
82
82
82
82
44
38
ENDCHAR

STARTCHAR Otilde
ENCODING 213
SWIDTH 840 0
DWIDTH 8 0
BBX 7 9 1 0
BITMAP
38
38
44
82
82
82
82
44
38
ENDCHAR

STARTCHAR Odieresis
ENCODING 214
SWIDTH 840 0
DWIDTH 8 0
BBX 7 9 1 0
BITMAP
28
38
44
82
82
82
82
44
38
ENDCHAR

STARTCHAR multiply
ENCODING 215
SWIDTH 600 0
DWIDTH 6 0
BBX 4 4 1 1
BITMAP
90
60
60
90
ENDCHAR

STARTCHAR Oslash
ENCODING 216
SWIDTH 840 0
DWIDTH 8 0
BBX 7 8 1 0
BITMAP
3A
44
8A
92
92
A2
44
B8
ENDCHAR

STARTCHAR Ugrave
ENCODING 217
SWIDTH 640 0
DWIDTH 6 0
BBX 5 10 1 0
BITMAP
60
30
88
88
88
88
88
88
88
70
ENDCHAR

STARTCHAR Uacute
ENCODING 218
SWIDTH 640 0
DWIDTH 6 0
BBX 5 10 1 0
BITMAP
30
60
88
88
88
88
88
88
88
70
ENDCHAR

STARTCHAR Ucircumflex
ENCODING 219
SWIDTH 640 0
DWIDTH 6 0
BBX 5 10 1 0
BITMAP
30
48
00
88
88
88
88
88
88
70
ENDCHAR

STARTCHAR Udieresis
ENCODING 220
SWIDTH 640 0
DWIDTH 6 0
BBX 5 9 1 0
BITMAP
50
88
88
88
88
88
88
88
70
ENDCHAR

STARTCHAR Yacute
ENCODING 221
SWIDTH 620 0
DWIDTH 6 0
BBX 5 10 1 0
BITMAP
30
60
88
50
50
50
20
20
20
20
ENDCHAR

STARTCHAR Thorn
ENCODING 222
SWIDTH 560 0
DWIDTH 6 0
BBX 4 8 1 0
BITMAP
80
E0
90
90
90
E0
80
80
ENDCHAR

STARTCHAR germandbls
ENCODING 223
SWIDTH 600 0
DWIDTH 6 0
BBX 5 8 1 0
BITMAP
60
90
90
B0
88
88
C8
B0
ENDCHAR

STARTCHAR agrave
ENCODING 224
SWIDTH 660 0
DWIDTH 7 0
BBX 6 8 0 0
BITMAP
30
18
74
8C
C4
84
8C
74
ENDCHAR

STARTCHAR aacute
ENCODING 225
SWIDTH 660 0
DWIDTH 7 0
BBX 6 8 0 0
BITMAP
18
30
74
8C
84
84
8C
74
ENDCHAR

STARTCHAR acircumflex
ENCODING 226
SWIDTH 660 0
DWIDTH 7 0
BBX 6 8 0 0
BITMAP
30
48
74
8C
84
84
8C
74
ENDCHAR

STARTCHAR atilde
ENCODING 227
SWIDTH 660 0
DWIDTH 7 0
BBX 6 7 0 0
BITMAP
38
74
8C
84
84
8C
74
ENDCHAR

STARTCHAR adieresis
ENCODING 228
SWIDTH 660 0
DWIDTH 7 0
BBX 6 7 0 0
BITMAP
28
74
8C
84
84
8C
74
ENDCHAR

STARTCHAR aring
ENCODING 229
SWIDTH 660 0
DWIDTH 7 0
BBX 6 8 0 0
BITMAP
30
30
74
8C
84
84
8C
74
ENDCHAR

STARTCHAR ae
ENCODING 230
SWIDTH 1080 0
DWIDTH 11 0
BBX 9 6 1 0
BITMAP
6F00
9880
8F80
8800
9C80
6B00
ENDCHAR

STARTCHAR ccedilla
ENCODING 231
SWIDTH 640 0
DWIDTH 6 0
BBX 5 9 1 -3
BITMAP
70
88
80
80
88
70
20
10
30
ENDCHAR

STARTCHAR egrave
ENCODING 232
SWIDTH 640 0
DWIDTH 6 0
BBX 5 8 1 0
BITMAP
60
30
70
88
F8
80
88
70
ENDCHAR

STARTCHAR eacute
ENCODING 233
SWIDTH 640 0
DWIDTH 6 0
BBX 5 8 1 0
BITMAP
30
60
70
88
F8
80
88
70
ENDCHAR

STARTCHAR ecircumflex
ENCODING 234
SWIDTH 640 0
DWIDTH 6 0
BBX 5 8 1 0
BITMAP
30
48
70
88
F8
80
88
70
ENDCHAR

STARTCHAR edieresis
ENCODING 235
SWIDTH 640 0
DWIDTH 6 0
BBX 5 7 1 0
BITMAP
50
70
88
F8
80
88
70
ENDCHAR

STARTCHAR igrave
ENCODING 236
SWIDTH 240 0
DWIDTH 2 0
BBX 3 8 2 0
BITMAP
C0
60
40
40
40
40
40
40
ENDCHAR

STARTCHAR iacute
ENCODING 237
SWIDTH 240 0
DWIDTH 2 0
BBX 3 8 2 0
BITMAP
60
C0
40
40
40
40
40
40
ENDCHAR

STARTCHAR icircumflex
ENCODING 238
SWIDTH 240 0
DWIDTH 2 0
BBX 4 8 2 0
BITMAP
60
90
40
40
40
40
40
40
ENDCHAR

STARTCHAR idieresis
ENCODING 239
SWIDTH 240 0
DWIDTH 2 0
BBX 3 7 2 0
BITMAP
A0
40
40
40
40
40
40
ENDCHAR

STARTCHAR eth
ENCODING 240
SWIDTH 640 0
DWIDTH 6 0
BBX 6 8 0 0
BITMAP
70
30
38
44
84
84
48
30
ENDCHAR

STARTCHAR ntilde
ENCODING 241
SWIDTH 600 0
DWIDTH 6 0
BBX 5 7 0 0
BITMAP
70
F0
88
88
88
88
88
ENDCHAR

STARTCHAR ograve
ENCODING 242
SWIDTH 640 0
DWIDTH 6 0
BBX 6 8 0 0
BITMAP
60
10
30
48
84
84
48
30
ENDCHAR

STARTCHAR oacute
ENCODING 243
SWIDTH 640 0
DWIDTH 6 0
BBX 6 8 0 0
BITMAP
30
40
30
48
84
84
48
30
ENDCHAR

STARTCHAR ocircumflex
ENCODING 244
SWIDTH 640 0
DWIDTH 6 0
BBX 6 8 0 0
BITMAP
30
48
30
48
84
84
48
30
ENDCHAR

STARTCHAR otilde
ENCODING 245
SWIDTH 640 0
DWIDTH 6 0
BBX 6 7 0 0
BITMAP
70
30
48
84
84
48
30
ENDCHAR

STARTCHAR odieresis
ENCODING 246
SWIDTH 640 0
DWIDTH 6 0
BBX 6 7 0 0
BITMAP
50
30
48
84
84
48
30
ENDCHAR

STARTCHAR divide
ENCODING 247
SWIDTH 600 0
DWIDTH 6 0
BBX 5 5 1 1
BITMAP
20
00
F8
00
20
ENDCHAR

STARTCHAR oslash
ENCODING 248
SWIDTH 660 0
DWIDTH 6 0
BBX 6 6 0 0
BITMAP
34
48
94
A4
48
B0
ENDCHAR

STARTCHAR ugrave
ENCODING 249
SWIDTH 600 0
DWIDTH 6 0
BBX 5 8 1 0
BITMAP
60
30
88
88
88
88
88
78
ENDCHAR

STARTCHAR uacute
ENCODING 250
SWIDTH 600 0
DWIDTH 6 0
BBX 5 8 1 0
BITMAP
30
60
88
88
88
88
88
78
ENDCHAR

STARTCHAR ucircumflex
ENCODING 251
SWIDTH 600 0
DWIDTH 6 0
BBX 5 8 1 0
BITMAP
30
78
88
88
88
88
88
78
ENDCHAR

STARTCHAR udieresis
ENCODING 252
SWIDTH 600 0
DWIDTH 6 0
BBX 5 7 1 0
BITMAP
50
88
88
88
88
88
78
ENDCHAR

STARTCHAR yacute
ENCODING 253
SWIDTH 580 0
DWIDTH 6 0
BBX 5 10 0 -2
BITMAP
30
60
88
48
50
50
20
20
20
40
ENDCHAR

STARTCHAR thorn
ENCODING 254
SWIDTH 660 0
DWIDTH 7 0
BBX 5 10 1 -2
BITMAP
80
80
F0
88
88
88
88
F0
80
80
ENDCHAR

STARTCHAR ydieresis
ENCODING 255
SWIDTH 580 0
DWIDTH 6 0
BBX 5 9 0 -2
BITMAP
50
00
88
50
50
20
20
20
40
ENDCHAR

ENDFONT
