STARTFONT 2.1
FONT -Monotype-Bembo-Medium-I-Normal--10-100-72-72-P-45-ISO8859-1
SIZE 10 72 72
FONTBOUNDINGBOX 15 12 -4 -3

STARTPROPERTIES 22
FOUNDRY "Monotype"
FAMILY_NAME "Bembo"
WEIGHT_NAME "Medium"
SLANT "I"
SETWIDTH_NAME "Normal"
ADD_STYLE_NAME ""
PIXEL_SIZE 10
POINT_SIZE 100
RESOLUTION_X 72
RESOLUTION_Y 72
SPACING "P"
AVERAGE_WIDTH 45
CHARSET_REGISTRY "ISO8859"
CHARSET_ENCODING "1"
FULL_NAME "Bembo-Italic"
COPYRIGHT "Copyright (c) 1991 The Monotype Corporation plc."
WEIGHT 10
X_HEIGHT 5
QUAD_WIDTH 6
DEFAULT_CHAR 32
FONT_DESCENT 3
FONT_ASCENT 9
ENDPROPERTIES

CHARS 190

STARTCHAR space
ENCODING 32
SWIDTH 278 0
DWIDTH 3 0
BBX 1 1 0 0
BITMAP
00
ENDCHAR

STARTCHAR exclam
ENCODING 33
SWIDTH 292 0
DWIDTH 3 0
BBX 2 7 1 0
BITMAP
40
40
40
40
40
00
80
ENDCHAR

STARTCHAR quotedbl
ENCODING 34
SWIDTH 417 0
DWIDTH 4 0
BBX 3 3 2 4
BITMAP
A0
A0
A0
ENDCHAR

STARTCHAR numbersign
ENCODING 35
SWIDTH 668 0
DWIDTH 7 0
BBX 6 7 1 0
BITMAP
28
68
FC
48
FC
50
90
ENDCHAR

STARTCHAR dollar
ENCODING 36
SWIDTH 458 0
DWIDTH 5 0
BBX 4 8 1 -1
BITMAP
20
70
70
60
60
E0
E0
40
ENDCHAR

STARTCHAR percent
ENCODING 37
SWIDTH 823 0
DWIDTH 8 0
BBX 7 7 1 0
BITMAP
62
A4
CE
16
26
46
C4
ENDCHAR

STARTCHAR ampersand
ENCODING 38
SWIDTH 708 0
DWIDTH 7 0
BBX 7 7 1 0
BITMAP
70
48
62
9C
94
84
78
ENDCHAR

STARTCHAR quoteright
ENCODING 39
SWIDTH 292 0
DWIDTH 3 0
BBX 2 3 1 4
BITMAP
40
80
80
ENDCHAR

STARTCHAR parenleft
ENCODING 40
SWIDTH 281 0
DWIDTH 3 0
BBX 3 9 1 -2
BITMAP
20
40
40
80
80
80
80
80
80
ENDCHAR

STARTCHAR parenright
ENCODING 41
SWIDTH 281 0
DWIDTH 3 0
BBX 3 9 0 -2
BITMAP
20
20
20
20
20
20
40
40
80
ENDCHAR

STARTCHAR asterisk
ENCODING 42
SWIDTH 500 0
DWIDTH 5 0
BBX 5 5 2 2
BITMAP
10
90
78
70
10
ENDCHAR

STARTCHAR plus
ENCODING 43
SWIDTH 667 0
DWIDTH 7 0
BBX 5 5 1 1
BITMAP
20
20
F8
20
20
ENDCHAR

STARTCHAR comma
ENCODING 44
SWIDTH 292 0
DWIDTH 3 0
BBX 2 3 1 -2
BITMAP
40
C0
80
ENDCHAR

STARTCHAR minus
ENCODING 45
SWIDTH 667 0
DWIDTH 7 0
BBX 5 1 1 3
BITMAP
F8
ENDCHAR

STARTCHAR period
ENCODING 46
SWIDTH 292 0
DWIDTH 3 0
BBX 1 1 1 0
BITMAP
80
ENDCHAR

STARTCHAR slash
ENCODING 47
SWIDTH 458 0
DWIDTH 3 0
BBX 5 9 0 -2
BITMAP
18
10
20
20
20
40
40
80
80
ENDCHAR

STARTCHAR zero
ENCODING 48
SWIDTH 510 0
DWIDTH 5 0
BBX 4 7 1 0
BITMAP
30
50
90
90
90
B0
60
ENDCHAR

STARTCHAR one
ENCODING 49
SWIDTH 510 0
DWIDTH 5 0
BBX 3 7 2 0
BITMAP
60
A0
40
40
40
40
C0
ENDCHAR

STARTCHAR two
ENCODING 50
SWIDTH 510 0
DWIDTH 5 0
BBX 5 7 1 0
BITMAP
30
58
10
10
20
50
F0
ENDCHAR

STARTCHAR three
ENCODING 51
SWIDTH 510 0
DWIDTH 5 0
BBX 4 7 1 0
BITMAP
30
70
10
70
10
10
E0
ENDCHAR

STARTCHAR four
ENCODING 52
SWIDTH 510 0
DWIDTH 5 0
BBX 4 7 1 0
BITMAP
10
30
70
60
F0
20
20
ENDCHAR

STARTCHAR five
ENCODING 53
SWIDTH 510 0
DWIDTH 5 0
BBX 5 7 1 0
BITMAP
38
40
60
10
10
20
C0
ENDCHAR

STARTCHAR six
ENCODING 54
SWIDTH 510 0
DWIDTH 5 0
BBX 4 7 1 0
BITMAP
30
20
60
90
90
A0
E0
ENDCHAR

STARTCHAR seven
ENCODING 55
SWIDTH 510 0
DWIDTH 5 0
BBX 4 7 1 0
BITMAP
F0
90
20
20
40
40
80
ENDCHAR

STARTCHAR eight
ENCODING 56
SWIDTH 510 0
DWIDTH 5 0
BBX 4 7 1 0
BITMAP
70
50
70
60
B0
90
E0
ENDCHAR

STARTCHAR nine
ENCODING 57
SWIDTH 510 0
DWIDTH 5 0
BBX 4 7 1 0
BITMAP
30
50
50
70
10
60
80
ENDCHAR

STARTCHAR colon
ENCODING 58
SWIDTH 292 0
DWIDTH 3 0
BBX 1 5 1 0
BITMAP
80
00
00
00
80
ENDCHAR

STARTCHAR semicolon
ENCODING 59
SWIDTH 292 0
DWIDTH 3 0
BBX 2 6 1 -1
BITMAP
40
00
00
40
C0
80
ENDCHAR

STARTCHAR less
ENCODING 60
SWIDTH 667 0
DWIDTH 7 0
BBX 5 5 1 1
BITMAP
18
70
80
70
18
ENDCHAR

STARTCHAR equal
ENCODING 61
SWIDTH 667 0
DWIDTH 7 0
BBX 5 3 1 2
BITMAP
F8
00
F8
ENDCHAR

STARTCHAR greater
ENCODING 62
SWIDTH 667 0
DWIDTH 7 0
BBX 5 5 1 1
BITMAP
C0
30
08
30
C0
ENDCHAR

STARTCHAR question
ENCODING 63
SWIDTH 396 0
DWIDTH 4 0
BBX 3 7 1 0
BITMAP
60
20
20
40
40
00
80
ENDCHAR

STARTCHAR at
ENCODING 64
SWIDTH 917 0
DWIDTH 9 0
BBX 9 9 1 -2
BITMAP
1E00
6500
5D00
B500
A500
BE80
8100
4200
3C00
ENDCHAR

STARTCHAR A
ENCODING 65
SWIDTH 698 0
DWIDTH 7 0
BBX 7 7 0 0
BITMAP
04
0C
14
3C
44
44
CE
ENDCHAR

STARTCHAR B
ENCODING 66
SWIDTH 615 0
DWIDTH 6 0
BBX 6 7 0 0
BITMAP
78
24
38
48
44
4C
F8
ENDCHAR

STARTCHAR C
ENCODING 67
SWIDTH 729 0
DWIDTH 7 0
BBX 7 7 1 0
BITMAP
3C
46
84
80
84
CC
78
ENDCHAR

STARTCHAR D
ENCODING 68
SWIDTH 760 0
DWIDTH 8 0
BBX 7 7 0 0
BITMAP
7C
22
22
42
42
46
F8
ENDCHAR

STARTCHAR E
ENCODING 69
SWIDTH 625 0
DWIDTH 6 0
BBX 6 7 0 0
BITMAP
7C
24
38
48
40
44
F8
ENDCHAR

STARTCHAR F
ENCODING 70
SWIDTH 563 0
DWIDTH 6 0
BBX 6 7 0 0
BITMAP
7C
24
38
48
40
40
E0
ENDCHAR

STARTCHAR G
ENCODING 71
SWIDTH 781 0
DWIDTH 8 0
BBX 7 7 1 0
BITMAP
3C
42
82
80
86
C4
7C
ENDCHAR

STARTCHAR H
ENCODING 72
SWIDTH 760 0
DWIDTH 8 0
BBX 8 7 0 0
BITMAP
73
22
3E
22
44
44
EE
ENDCHAR

STARTCHAR I
ENCODING 73
SWIDTH 323 0
DWIDTH 3 0
BBX 4 7 0 0
BITMAP
70
20
20
40
40
40
E0
ENDCHAR

STARTCHAR J
ENCODING 74
SWIDTH 302 0
DWIDTH 3 0
BBX 6 9 -1 -2
BITMAP
1C
08
08
10
10
10
10
10
E0
ENDCHAR

STARTCHAR K
ENCODING 75
SWIDTH 708 0
DWIDTH 7 0
BBX 8 7 0 0
BITMAP
77
24
38
70
48
4C
E6
ENDCHAR

STARTCHAR L
ENCODING 76
SWIDTH 583 0
DWIDTH 6 0
BBX 6 7 0 0
BITMAP
70
20
20
40
40
44
F8
ENDCHAR

STARTCHAR M
ENCODING 77
SWIDTH 854 0
DWIDTH 9 0
BBX 9 7 0 0
BITMAP
6180
5300
5300
5500
5D00
5A00
D700
ENDCHAR

STARTCHAR N
ENCODING 78
SWIDTH 771 0
DWIDTH 8 0
BBX 8 7 0 0
BITMAP
63
21
52
5A
4E
46
C4
ENDCHAR

STARTCHAR O
ENCODING 79
SWIDTH 792 0
DWIDTH 8 0
BBX 7 7 1 0
BITMAP
3C
44
82
82
82
84
78
ENDCHAR

STARTCHAR P
ENCODING 80
SWIDTH 563 0
DWIDTH 6 0
BBX 6 7 0 0
BITMAP
78
24
4C
58
40
40
E0
ENDCHAR

STARTCHAR Q
ENCODING 81
SWIDTH 792 0
DWIDTH 8 0
BBX 7 9 1 -2
BITMAP
38
44
82
82
82
84
78
10
0E
ENDCHAR

STARTCHAR R
ENCODING 82
SWIDTH 698 0
DWIDTH 7 0
BBX 7 7 0 0
BITMAP
78
24
24
38
50
48
E6
ENDCHAR

STARTCHAR S
ENCODING 83
SWIDTH 531 0
DWIDTH 5 0
BBX 5 7 1 0
BITMAP
38
48
40
30
90
90
70
ENDCHAR

STARTCHAR T
ENCODING 84
SWIDTH 656 0
DWIDTH 7 0
BBX 6 7 1 0
BITMAP
FC
94
20
20
20
20
60
ENDCHAR

STARTCHAR U
ENCODING 85
SWIDTH 729 0
DWIDTH 7 0
BBX 7 7 1 0
BITMAP
E6
44
84
84
84
88
78
ENDCHAR

STARTCHAR V
ENCODING 86
SWIDTH 698 0
DWIDTH 7 0
BBX 7 7 2 0
BITMAP
C6
48
48
50
60
40
40
ENDCHAR

STARTCHAR W
ENCODING 87
SWIDTH 958 0
DWIDTH 10 0
BBX 9 7 1 0
BITMAP
CC80
4880
4900
5A00
6A00
4C00
8800
ENDCHAR

STARTCHAR X
ENCODING 88
SWIDTH 688 0
DWIDTH 7 0
BBX 8 7 0 0
BITMAP
77
36
18
18
2C
44
CE
ENDCHAR

STARTCHAR Y
ENCODING 89
SWIDTH 625 0
DWIDTH 6 0
BBX 6 7 1 0
BITMAP
CC
44
58
20
20
60
60
ENDCHAR

STARTCHAR Z
ENCODING 90
SWIDTH 688 0
DWIDTH 7 0
BBX 7 7 1 0
BITMAP
7E
44
08
10
20
44
FC
ENDCHAR

STARTCHAR bracketleft
ENCODING 91
SWIDTH 302 0
DWIDTH 3 0
BBX 4 9 1 -2
BITMAP
70
40
40
40
C0
80
80
80
C0
ENDCHAR

STARTCHAR backslash
ENCODING 92
SWIDTH 219 0
DWIDTH 2 0
BBX 2 7 1 0
BITMAP
80
80
80
80
80
80
40
ENDCHAR

STARTCHAR bracketright
ENCODING 93
SWIDTH 302 0
DWIDTH 3 0
BBX 4 9 0 -2
BITMAP
30
10
10
20
20
20
20
60
C0
ENDCHAR

STARTCHAR asciicircum
ENCODING 94
SWIDTH 427 0
DWIDTH 4 0
BBX 4 4 1 3
BITMAP
20
60
50
90
ENDCHAR

STARTCHAR underscore
ENCODING 95
SWIDTH 500 0
DWIDTH 5 0
BBX 5 1 0 -2
BITMAP
F8
ENDCHAR

STARTCHAR quoteleft
ENCODING 96
SWIDTH 292 0
DWIDTH 3 0
BBX 2 3 2 4
BITMAP
C0
80
80
ENDCHAR

STARTCHAR a
ENCODING 97
SWIDTH 406 0
DWIDTH 4 0
BBX 3 5 0 0
BITMAP
60
A0
A0
E0
E0
ENDCHAR

STARTCHAR b
ENCODING 98
SWIDTH 406 0
DWIDTH 4 0
BBX 3 7 1 0
BITMAP
40
40
60
60
A0
A0
C0
ENDCHAR

STARTCHAR c
ENCODING 99
SWIDTH 271 0
DWIDTH 3 0
BBX 3 5 0 0
BITMAP
60
80
80
80
C0
ENDCHAR

STARTCHAR d
ENCODING 100
SWIDTH 438 0
DWIDTH 4 0
BBX 4 7 1 0
BITMAP
30
10
60
A0
A0
E0
E0
ENDCHAR

STARTCHAR e
ENCODING 101
SWIDTH 344 0
DWIDTH 3 0
BBX 3 5 0 0
BITMAP
60
E0
80
A0
C0
ENDCHAR

STARTCHAR f
ENCODING 102
SWIDTH 229 0
DWIDTH 2 0
BBX 6 9 -1 -2
BITMAP
0C
10
38
10
20
20
20
20
C0
ENDCHAR

STARTCHAR g
ENCODING 103
SWIDTH 375 0
DWIDTH 4 0
BBX 5 7 0 -2
BITMAP
38
48
48
50
20
F0
F0
ENDCHAR

STARTCHAR h
ENCODING 104
SWIDTH 458 0
DWIDTH 5 0
BBX 5 7 0 0
BITMAP
40
40
70
50
50
98
B0
ENDCHAR

STARTCHAR i
ENCODING 105
SWIDTH 240 0
DWIDTH 2 0
BBX 2 7 1 0
BITMAP
40
00
80
80
80
C0
80
ENDCHAR

STARTCHAR j
ENCODING 106
SWIDTH 240 0
DWIDTH 2 0
BBX 4 9 0 -2
BITMAP
10
00
20
60
20
20
20
20
C0
ENDCHAR

STARTCHAR k
ENCODING 107
SWIDTH 458 0
DWIDTH 5 0
BBX 4 7 1 0
BITMAP
40
40
70
50
70
E0
B0
ENDCHAR

STARTCHAR l
ENCODING 108
SWIDTH 229 0
DWIDTH 2 0
BBX 2 7 1 0
BITMAP
40
C0
80
80
80
C0
80
ENDCHAR

STARTCHAR m
ENCODING 109
SWIDTH 677 0
DWIDTH 7 0
BBX 7 5 1 0
BITMAP
B4
DC
D4
96
A4
ENDCHAR

STARTCHAR n
ENCODING 110
SWIDTH 469 0
DWIDTH 5 0
BBX 5 5 2 0
BITMAP
38
F8
68
48
50
ENDCHAR

STARTCHAR o
ENCODING 111
SWIDTH 396 0
DWIDTH 4 0
BBX 3 5 1 0
BITMAP
60
A0
A0
A0
C0
ENDCHAR

STARTCHAR p
ENCODING 112
SWIDTH 438 0
DWIDTH 4 0
BBX 5 7 0 -2
BITMAP
38
E8
28
48
70
40
C0
ENDCHAR

STARTCHAR q
ENCODING 113
SWIDTH 417 0
DWIDTH 4 0
BBX 4 7 0 -2
BITMAP
70
A0
A0
A0
E0
40
60
ENDCHAR

STARTCHAR r
ENCODING 114
SWIDTH 271 0
DWIDTH 3 0
BBX 3 5 0 0
BITMAP
A0
A0
C0
80
80
ENDCHAR

STARTCHAR s
ENCODING 115
SWIDTH 302 0
DWIDTH 3 0
BBX 3 5 0 0
BITMAP
60
40
40
40
C0
ENDCHAR

STARTCHAR t
ENCODING 116
SWIDTH 260 0
DWIDTH 3 0
BBX 2 6 1 0
BITMAP
40
40
80
80
C0
80
ENDCHAR

STARTCHAR u
ENCODING 117
SWIDTH 469 0
DWIDTH 5 0
BBX 5 5 1 0
BITMAP
90
90
A0
E8
F0
ENDCHAR

STARTCHAR v
ENCODING 118
SWIDTH 406 0
DWIDTH 4 0
BBX 5 5 1 0
BITMAP
48
C8
50
50
60
ENDCHAR

STARTCHAR w
ENCODING 119
SWIDTH 604 0
DWIDTH 6 0
BBX 7 5 1 0
BITMAP
4A
CA
52
54
68
ENDCHAR

STARTCHAR x
ENCODING 120
SWIDTH 490 0
DWIDTH 5 0
BBX 5 5 0 0
BITMAP
58
F0
20
F0
D0
ENDCHAR

STARTCHAR y
ENCODING 121
SWIDTH 438 0
DWIDTH 4 0
BBX 4 7 0 -2
BITMAP
50
D0
50
20
40
C0
C0
ENDCHAR

STARTCHAR z
ENCODING 122
SWIDTH 500 0
DWIDTH 5 0
BBX 6 5 1 0
BITMAP
3C
10
20
68
98
ENDCHAR

STARTCHAR braceleft
ENCODING 123
SWIDTH 396 0
DWIDTH 4 0
BBX 4 9 1 -2
BITMAP
10
20
20
C0
C0
80
80
80
80
ENDCHAR

STARTCHAR bar
ENCODING 124
SWIDTH 510 0
DWIDTH 5 0
BBX 3 9 2 -2
BITMAP
20
20
60
40
40
40
C0
80
80
ENDCHAR

STARTCHAR braceright
ENCODING 125
SWIDTH 396 0
DWIDTH 4 0
BBX 4 9 0 -2
BITMAP
10
10
10
10
30
30
20
40
C0
ENDCHAR

STARTCHAR asciitilde
ENCODING 126
SWIDTH 542 0
DWIDTH 5 0
BBX 5 2 1 4
BITMAP
E8
B8
ENDCHAR

STARTCHAR exclamdown
ENCODING 161
SWIDTH 292 0
DWIDTH 3 0
BBX 2 7 1 -2
BITMAP
40
00
80
80
80
80
80
ENDCHAR

STARTCHAR cent
ENCODING 162
SWIDTH 271 0
DWIDTH 3 0
BBX 3 9 0 -2
BITMAP
20
20
60
C0
C0
80
E0
80
80
ENDCHAR

STARTCHAR sterling
ENCODING 163
SWIDTH 729 0
DWIDTH 7 0
BBX 7 9 0 -2
BITMAP
06
08
10
10
20
74
24
74
9C
ENDCHAR

STARTCHAR currency
ENCODING 164
SWIDTH 667 0
DWIDTH 7 0
BBX 5 5 1 1
BITMAP
F8
88
88
88
F8
ENDCHAR

STARTCHAR yen
ENCODING 165
SWIDTH 500 0
DWIDTH 5 0
BBX 6 7 0 0
BITMAP
6C
FC
F8
20
20
20
60
ENDCHAR

STARTCHAR brokenbar
ENCODING 166
SWIDTH 510 0
DWIDTH 5 0
BBX 3 9 2 -2
BITMAP
20
20
20
40
00
40
C0
80
80
ENDCHAR

STARTCHAR section
ENCODING 167
SWIDTH 479 0
DWIDTH 5 0
BBX 6 9 0 -2
BITMAP
1C
30
10
30
30
30
30
30
E0
ENDCHAR

STARTCHAR dieresis
ENCODING 168
SWIDTH 333 0
DWIDTH 3 0
BBX 3 1 1 5
BITMAP
A0
ENDCHAR

STARTCHAR copyright
ENCODING 169
SWIDTH 760 0
DWIDTH 8 0
BBX 8 7 0 0
BITMAP
3C
66
A1
A1
A5
5A
3C
ENDCHAR

STARTCHAR ordfeminine
ENCODING 170
SWIDTH 260 0
DWIDTH 3 0
BBX 2 3 1 4
BITMAP
C0
C0
C0
ENDCHAR

STARTCHAR guillemotleft
ENCODING 171
SWIDTH 438 0
DWIDTH 4 0
BBX 4 4 1 1
BITMAP
60
70
A0
40
ENDCHAR

STARTCHAR logicalnot
ENCODING 172
SWIDTH 667 0
DWIDTH 7 0
BBX 5 3 1 2
BITMAP
F8
08
08
ENDCHAR

STARTCHAR hyphen
ENCODING 173
SWIDTH 333 0
DWIDTH 3 0
BBX 2 1 1 2
BITMAP
C0
ENDCHAR

STARTCHAR registered
ENCODING 174
SWIDTH 760 0
DWIDTH 8 0
BBX 8 7 0 0
BITMAP
7C
6A
B9
A9
F5
42
3C
ENDCHAR

STARTCHAR macron
ENCODING 175
SWIDTH 333 0
DWIDTH 3 0
BBX 3 1 1 6
BITMAP
E0
ENDCHAR

STARTCHAR degree
ENCODING 176
SWIDTH 396 0
DWIDTH 4 0
BBX 4 3 1 4
BITMAP
60
90
60
ENDCHAR

STARTCHAR plusminus
ENCODING 177
SWIDTH 667 0
DWIDTH 7 0
BBX 5 7 1 0
BITMAP
20
20
F8
20
20
00
F8
ENDCHAR

STARTCHAR twosuperior
ENCODING 178
SWIDTH 313 0
DWIDTH 3 0
BBX 3 5 -3 2
BITMAP
60
60
60
80
C0
ENDCHAR

STARTCHAR threesuperior
ENCODING 179
SWIDTH 313 0
DWIDTH 3 0
BBX 2 5 -3 2
BITMAP
40
40
40
40
C0
ENDCHAR

STARTCHAR acute
ENCODING 180
SWIDTH 333 0
DWIDTH 3 0
BBX 2 2 2 5
BITMAP
40
80
ENDCHAR

STARTCHAR mu
ENCODING 181
SWIDTH 500 0
DWIDTH 5 0
BBX 5 7 0 -2
BITMAP
28
48
48
58
68
80
80
ENDCHAR

STARTCHAR paragraph
ENCODING 182
SWIDTH 448 0
DWIDTH 5 0
BBX 5 9 1 -2
BITMAP
78
E8
F0
F0
70
70
60
60
E0
ENDCHAR

STARTCHAR periodcentered
ENCODING 183
SWIDTH 292 0
DWIDTH 3 0
BBX 1 1 1 2
BITMAP
80
ENDCHAR

STARTCHAR cedilla
ENCODING 184
SWIDTH 333 0
DWIDTH 3 0
BBX 2 3 0 -2
BITMAP
40
40
80
ENDCHAR

STARTCHAR onesuperior
ENCODING 185
SWIDTH 313 0
DWIDTH 3 0
BBX 2 5 -4 2
BITMAP
40
80
80
80
80
ENDCHAR

STARTCHAR ordmasculine
ENCODING 186
SWIDTH 260 0
DWIDTH 3 0
BBX 2 3 1 4
BITMAP
C0
C0
C0
ENDCHAR

STARTCHAR guillemotright
ENCODING 187
SWIDTH 438 0
DWIDTH 4 0
BBX 4 3 1 2
BITMAP
50
A0
A0
ENDCHAR

STARTCHAR onequarter
ENCODING 188
SWIDTH 823 0
DWIDTH 8 0
BBX 8 7 3 0
BITMAP
43
86
87
8A
92
26
42
ENDCHAR

STARTCHAR onehalf
ENCODING 189
SWIDTH 823 0
DWIDTH 8 0
BBX 8 7 3 0
BITMAP
43
86
87
8B
93
24
46
ENDCHAR

STARTCHAR threequarters
ENCODING 190
SWIDTH 823 0
DWIDTH 8 0
BBX 8 7 3 0
BITMAP
43
46
47
4A
D2
26
42
ENDCHAR

STARTCHAR questiondown
ENCODING 191
SWIDTH 396 0
DWIDTH 4 0
BBX 3 7 1 -2
BITMAP
20
00
40
40
80
80
C0
ENDCHAR

STARTCHAR Agrave
ENCODING 192
SWIDTH 698 0
DWIDTH 7 0
BBX 7 9 0 0
BITMAP
04
04
06
0C
14
3C
44
44
CE
ENDCHAR

STARTCHAR Aacute
ENCODING 193
SWIDTH 698 0
DWIDTH 7 0
BBX 7 9 0 0
BITMAP
02
04
04
0C
14
3C
44
44
CE
ENDCHAR

STARTCHAR Acircumflex
ENCODING 194
SWIDTH 698 0
DWIDTH 7 0
BBX 7 9 0 0
BITMAP
04
0C
04
0C
14
3C
44
44
CE
ENDCHAR

STARTCHAR Atilde
ENCODING 195
SWIDTH 698 0
DWIDTH 7 0
BBX 7 9 0 0
BITMAP
0E
0E
04
0C
14
3C
44
44
CE
ENDCHAR

STARTCHAR Adieresis
ENCODING 196
SWIDTH 698 0
DWIDTH 7 0
BBX 7 8 0 0
BITMAP
0A
04
0C
14
3C
44
44
CE
ENDCHAR

STARTCHAR Aring
ENCODING 197
SWIDTH 698 0
DWIDTH 7 0
BBX 7 9 0 0
BITMAP
0E
0E
04
0C
14
3C
44
44
CE
ENDCHAR

STARTCHAR AE
ENCODING 198
SWIDTH 948 0
DWIDTH 9 0
BBX 10 7 0 0
BITMAP
0FC0
0C40
1780
3C80
4400
4880
CF80
ENDCHAR

STARTCHAR Ccedilla
ENCODING 199
SWIDTH 729 0
DWIDTH 7 0
BBX 7 10 1 -3
BITMAP
3C
46
84
80
84
CC
78
20
20
40
ENDCHAR

STARTCHAR Egrave
ENCODING 200
SWIDTH 625 0
DWIDTH 6 0
BBX 6 9 0 0
BITMAP
08
08
7C
24
38
48
40
44
F8
ENDCHAR

STARTCHAR Eacute
ENCODING 201
SWIDTH 625 0
DWIDTH 6 0
BBX 6 9 0 0
BITMAP
04
08
7C
24
38
48
40
44
F8
ENDCHAR

STARTCHAR Ecircumflex
ENCODING 202
SWIDTH 625 0
DWIDTH 6 0
BBX 6 9 0 0
BITMAP
04
0C
7C
24
38
48
40
44
F8
ENDCHAR

STARTCHAR Edieresis
ENCODING 203
SWIDTH 625 0
DWIDTH 6 0
BBX 6 8 0 0
BITMAP
14
7C
24
38
48
40
44
F8
ENDCHAR

STARTCHAR Igrave
ENCODING 204
SWIDTH 323 0
DWIDTH 3 0
BBX 4 9 0 0
BITMAP
20
20
70
20
20
40
40
40
E0
ENDCHAR

STARTCHAR Iacute
ENCODING 205
SWIDTH 323 0
DWIDTH 3 0
BBX 5 9 0 0
BITMAP
08
10
70
20
20
40
40
40
E0
ENDCHAR

STARTCHAR Icircumflex
ENCODING 206
SWIDTH 323 0
DWIDTH 3 0
BBX 4 9 0 0
BITMAP
10
30
70
20
20
40
40
40
E0
ENDCHAR

STARTCHAR Idieresis
ENCODING 207
SWIDTH 323 0
DWIDTH 3 0
BBX 5 8 0 0
BITMAP
28
70
20
20
40
40
40
E0
ENDCHAR

STARTCHAR Eth
ENCODING 208
SWIDTH 760 0
DWIDTH 8 0
BBX 7 7 0 0
BITMAP
7C
22
F2
42
42
46
F8
ENDCHAR

STARTCHAR Ntilde
ENCODING 209
SWIDTH 771 0
DWIDTH 8 0
BBX 8 9 0 0
BITMAP
0E
0E
63
21
52
5A
4E
46
C4
ENDCHAR

STARTCHAR Ograve
ENCODING 210
SWIDTH 792 0
DWIDTH 8 0
BBX 7 9 1 0
BITMAP
08
08
3C
44
82
82
82
84
78
ENDCHAR

STARTCHAR Oacute
ENCODING 211
SWIDTH 792 0
DWIDTH 8 0
BBX 7 9 1 0
BITMAP
04
08
3C
44
82
82
82
84
78
ENDCHAR

STARTCHAR Ocircumflex
ENCODING 212
SWIDTH 792 0
DWIDTH 8 0
BBX 7 9 1 0
BITMAP
04
0C
3C
44
82
82
82
84
78
ENDCHAR

STARTCHAR Otilde
ENCODING 213
SWIDTH 792 0
DWIDTH 8 0
BBX 7 9 1 0
BITMAP
1C
1C
3C
44
82
82
82
84
78
ENDCHAR

STARTCHAR Odieresis
ENCODING 214
SWIDTH 792 0
DWIDTH 8 0
BBX 7 8 1 0
BITMAP
14
3C
44
82
82
82
84
78
ENDCHAR

STARTCHAR multiply
ENCODING 215
SWIDTH 668 0
DWIDTH 7 0
BBX 5 5 1 1
BITMAP
88
50
20
50
88
ENDCHAR

STARTCHAR Oslash
ENCODING 216
SWIDTH 792 0
DWIDTH 8 0
BBX 7 7 1 0
BITMAP
3E
44
8A
8A
92
A4
78
ENDCHAR

STARTCHAR Ugrave
ENCODING 217
SWIDTH 729 0
DWIDTH 7 0
BBX 7 9 1 0
BITMAP
10
10
EE
44
84
84
84
88
78
ENDCHAR

STARTCHAR Uacute
ENCODING 218
SWIDTH 729 0
DWIDTH 7 0
BBX 7 9 1 0
BITMAP
04
08
E6
44
84
84
84
88
78
ENDCHAR

STARTCHAR Ucircumflex
ENCODING 219
SWIDTH 729 0
DWIDTH 7 0
BBX 7 9 1 0
BITMAP
08
18
E6
44
84
84
84
88
78
ENDCHAR

STARTCHAR Udieresis
ENCODING 220
SWIDTH 729 0
DWIDTH 7 0
BBX 7 8 1 0
BITMAP
14
E6
44
84
84
84
88
78
ENDCHAR

STARTCHAR Yacute
ENCODING 221
SWIDTH 625 0
DWIDTH 6 0
BBX 6 9 1 0
BITMAP
08
10
CC
44
58
20
20
60
60
ENDCHAR

STARTCHAR Thorn
ENCODING 222
SWIDTH 563 0
DWIDTH 6 0
BBX 5 7 0 0
BITMAP
60
20
38
48
48
78
E0
ENDCHAR

STARTCHAR germandbls
ENCODING 223
SWIDTH 438 0
DWIDTH 4 0
BBX 7 9 -1 -2
BITMAP
0C
16
1C
14
14
14
28
20
C0
ENDCHAR

STARTCHAR agrave
ENCODING 224
SWIDTH 406 0
DWIDTH 4 0
BBX 3 7 0 0
BITMAP
40
40
60
A0
A0
E0
E0
ENDCHAR

STARTCHAR aacute
ENCODING 225
SWIDTH 406 0
DWIDTH 4 0
BBX 4 7 0 0
BITMAP
10
20
60
A0
A0
E0
E0
ENDCHAR

STARTCHAR acircumflex
ENCODING 226
SWIDTH 406 0
DWIDTH 4 0
BBX 3 7 0 0
BITMAP
20
60
60
A0
A0
E0
E0
ENDCHAR

STARTCHAR atilde
ENCODING 227
SWIDTH 406 0
DWIDTH 4 0
BBX 4 7 0 0
BITMAP
70
70
60
A0
A0
E0
E0
ENDCHAR

STARTCHAR adieresis
ENCODING 228
SWIDTH 406 0
DWIDTH 4 0
BBX 4 6 0 0
BITMAP
50
60
A0
A0
E0
E0
ENDCHAR

STARTCHAR aring
ENCODING 229
SWIDTH 406 0
DWIDTH 4 0
BBX 4 7 0 0
BITMAP
70
70
60
A0
A0
E0
E0
ENDCHAR

STARTCHAR ae
ENCODING 230
SWIDTH 573 0
DWIDTH 6 0
BBX 5 5 0 0
BITMAP
78
98
B0
A0
F8
ENDCHAR

STARTCHAR ccedilla
ENCODING 231
SWIDTH 271 0
DWIDTH 3 0
BBX 3 8 0 -3
BITMAP
60
80
80
80
C0
40
40
80
ENDCHAR

STARTCHAR egrave
ENCODING 232
SWIDTH 344 0
DWIDTH 3 0
BBX 3 7 0 0
BITMAP
40
40
60
E0
80
A0
C0
ENDCHAR

STARTCHAR eacute
ENCODING 233
SWIDTH 344 0
DWIDTH 3 0
BBX 3 7 0 0
BITMAP
20
40
60
E0
80
A0
C0
ENDCHAR

STARTCHAR ecircumflex
ENCODING 234
SWIDTH 344 0
DWIDTH 3 0
BBX 3 7 0 0
BITMAP
20
60
60
E0
80
A0
C0
ENDCHAR

STARTCHAR edieresis
ENCODING 235
SWIDTH 344 0
DWIDTH 3 0
BBX 4 6 0 0
BITMAP
50
60
E0
80
A0
C0
ENDCHAR

STARTCHAR igrave
ENCODING 236
SWIDTH 240 0
DWIDTH 2 0
BBX 3 7 1 0
BITMAP
40
40
A0
80
80
C0
80
ENDCHAR

STARTCHAR iacute
ENCODING 237
SWIDTH 240 0
DWIDTH 2 0
BBX 3 7 1 0
BITMAP
20
40
80
80
80
C0
80
ENDCHAR

STARTCHAR icircumflex
ENCODING 238
SWIDTH 240 0
DWIDTH 2 0
BBX 2 7 1 0
BITMAP
40
C0
80
80
80
C0
80
ENDCHAR

STARTCHAR idieresis
ENCODING 239
SWIDTH 240 0
DWIDTH 2 0
BBX 3 6 1 0
BITMAP
A0
80
80
80
C0
80
ENDCHAR

STARTCHAR eth
ENCODING 240
SWIDTH 417 0
DWIDTH 4 0
BBX 4 7 0 0
BITMAP
20
30
60
A0
A0
A0
C0
ENDCHAR

STARTCHAR ntilde
ENCODING 241
SWIDTH 469 0
DWIDTH 5 0
BBX 5 7 2 0
BITMAP
38
38
38
F8
68
48
50
ENDCHAR

STARTCHAR ograve
ENCODING 242
SWIDTH 396 0
DWIDTH 4 0
BBX 3 7 1 0
BITMAP
40
40
60
A0
A0
A0
C0
ENDCHAR

STARTCHAR oacute
ENCODING 243
SWIDTH 396 0
DWIDTH 4 0
BBX 4 7 1 0
BITMAP
10
20
60
A0
A0
A0
C0
ENDCHAR

STARTCHAR ocircumflex
ENCODING 244
SWIDTH 396 0
DWIDTH 4 0
BBX 3 7 1 0
BITMAP
20
60
60
A0
A0
A0
C0
ENDCHAR

STARTCHAR otilde
ENCODING 245
SWIDTH 396 0
DWIDTH 4 0
BBX 4 7 1 0
BITMAP
70
70
60
A0
A0
A0
C0
ENDCHAR

STARTCHAR odieresis
ENCODING 246
SWIDTH 396 0
DWIDTH 4 0
BBX 4 6 1 0
BITMAP
50
60
A0
A0
A0
C0
ENDCHAR

STARTCHAR divide
ENCODING 247
SWIDTH 668 0
DWIDTH 7 0
BBX 5 5 1 1
BITMAP
20
00
F8
00
20
ENDCHAR

STARTCHAR oslash
ENCODING 248
SWIDTH 396 0
DWIDTH 4 0
BBX 4 5 1 0
BITMAP
70
A0
E0
A0
C0
ENDCHAR

STARTCHAR ugrave
ENCODING 249
SWIDTH 469 0
DWIDTH 5 0
BBX 5 7 1 0
BITMAP
20
20
90
90
A0
E8
F0
ENDCHAR

STARTCHAR uacute
ENCODING 250
SWIDTH 469 0
DWIDTH 5 0
BBX 5 7 1 0
BITMAP
10
20
90
90
A0
E8
F0
ENDCHAR

STARTCHAR ucircumflex
ENCODING 251
SWIDTH 469 0
DWIDTH 5 0
BBX 5 7 1 0
BITMAP
20
60
90
90
A0
E8
F0
ENDCHAR

STARTCHAR udieresis
ENCODING 252
SWIDTH 469 0
DWIDTH 5 0
BBX 5 6 1 0
BITMAP
50
90
90
A0
E8
F0
ENDCHAR

STARTCHAR yacute
ENCODING 253
SWIDTH 438 0
DWIDTH 4 0
BBX 4 9 0 -2
BITMAP
10
20
50
D0
50
20
40
C0
C0
ENDCHAR

STARTCHAR thorn
ENCODING 254
SWIDTH 438 0
DWIDTH 4 0
BBX 5 9 0 -2
BITMAP
20
20
38
28
28
48
70
40
C0
ENDCHAR

STARTCHAR ydieresis
ENCODING 255
SWIDTH 438 0
DWIDTH 4 0
BBX 4 8 0 -2
BITMAP
50
50
D0
50
20
40
C0
C0
ENDCHAR

ENDFONT
