STARTFONT 2.1
FONT -URW-ITC Bookman-Light-I-Normal--12-120-72-72-P-66-ISO8859-1
SIZE 12 72 72
FONTBOUNDINGBOX 22 16 -6 -3

STARTPROPERTIES 22
FONTNAME_REGISTRY "-"
FOUNDRY "URW"
FAMILY_NAME "ITC Bookman"
WEIGHT_NAME "Light"
SLANT "I"
SETWIDTH_NAME "Normal"
ADD_STYLE_NAME ""
PIXEL_SIZE 12
POINT_SIZE 120
RESOLUTION_X 72
RESOLUTION_Y 72
SPACING "P"
CHARSET_REGISTRY "ISO8859"
CHARSET_ENCODING "1"
FULL_NAME "Bookman-LightItalic"
AVERAGE_WIDTH 66
WEIGHT 10
X_HEIGHT 6
QUAD_WIDTH 9
DEFAULT_CHAR 32
FONT_DESCENT 2
FONT_ASCENT 11
ENDPROPERTIES

CHARS 190

STARTCHAR space
ENCODING 32
SWIDTH 300 0
DWIDTH 4 0
BBX 1 1 0 0
BITMAP
00
ENDCHAR

STARTCHAR exclam
ENCODING 33
SWIDTH 320 0
DWIDTH 4 0
BBX 3 9 1 0
BITMAP
60
60
60
40
40
40
40
00
C0
ENDCHAR

STARTCHAR quotedbl
ENCODING 34
SWIDTH 360 0
DWIDTH 4 0
BBX 4 3 1 6
BITMAP
70
A0
A0
ENDCHAR

STARTCHAR numbersign
ENCODING 35
SWIDTH 620 0
DWIDTH 7 0
BBX 6 9 1 0
BITMAP
28
28
28
FC
48
FC
50
50
50
ENDCHAR

STARTCHAR dollar
ENCODING 36
SWIDTH 620 0
DWIDTH 7 0
BBX 6 11 1 -1
BITMAP
08
3C
54
54
78
24
24
A4
AC
78
20
ENDCHAR

STARTCHAR percent
ENCODING 37
SWIDTH 800 0
DWIDTH 10 0
BBX 9 9 1 0
BITMAP
7200
5600
9400
9C00
9B80
7C80
1480
3480
2700
ENDCHAR

STARTCHAR ampersand
ENCODING 38
SWIDTH 820 0
DWIDTH 10 0
BBX 9 9 1 0
BITMAP
1C00
2400
2C00
3300
4900
8E00
8680
C680
7B80
ENDCHAR

STARTCHAR quoteright
ENCODING 39
SWIDTH 280 0
DWIDTH 3 0
BBX 2 2 2 7
BITMAP
C0
80
ENDCHAR

STARTCHAR parenleft
ENCODING 40
SWIDTH 280 0
DWIDTH 3 0
BBX 3 11 1 -2
BITMAP
20
40
40
40
C0
80
80
80
80
80
40
ENDCHAR

STARTCHAR parenright
ENCODING 41
SWIDTH 280 0
DWIDTH 3 0
BBX 3 11 0 -2
BITMAP
20
20
20
20
20
20
20
20
40
40
80
ENDCHAR

STARTCHAR asterisk
ENCODING 42
SWIDTH 440 0
DWIDTH 5 0
BBX 4 6 2 3
BITMAP
20
B0
70
D0
50
40
ENDCHAR

STARTCHAR plus
ENCODING 43
SWIDTH 600 0
DWIDTH 7 0
BBX 7 5 1 1
BITMAP
10
10
FE
10
10
ENDCHAR

STARTCHAR comma
ENCODING 44
SWIDTH 300 0
DWIDTH 4 0
BBX 2 2 1 -1
BITMAP
C0
80
ENDCHAR

STARTCHAR minus
ENCODING 45
SWIDTH 600 0
DWIDTH 7 0
BBX 6 1 1 4
BITMAP
FC
ENDCHAR

STARTCHAR period
ENCODING 46
SWIDTH 300 0
DWIDTH 4 0
BBX 2 1 1 0
BITMAP
C0
ENDCHAR

STARTCHAR slash
ENCODING 47
SWIDTH 600 0
DWIDTH 7 0
BBX 6 11 1 -2
BITMAP
0C
08
18
10
10
20
20
40
40
40
80
ENDCHAR

STARTCHAR zero
ENCODING 48
SWIDTH 620 0
DWIDTH 7 0
BBX 7 9 1 0
BITMAP
3C
64
46
C6
86
84
84
C8
70
ENDCHAR

STARTCHAR one
ENCODING 49
SWIDTH 620 0
DWIDTH 7 0
BBX 4 9 2 0
BITMAP
70
10
10
20
20
20
20
20
F0
ENDCHAR

STARTCHAR two
ENCODING 50
SWIDTH 620 0
DWIDTH 7 0
BBX 7 9 1 0
BITMAP
1C
66
46
46
0C
18
30
66
FC
ENDCHAR

STARTCHAR three
ENCODING 51
SWIDTH 620 0
DWIDTH 7 0
BBX 7 9 1 0
BITMAP
3C
66
44
1C
06
06
84
8C
78
ENDCHAR

STARTCHAR four
ENCODING 52
SWIDTH 620 0
DWIDTH 7 0
BBX 7 9 1 0
BITMAP
0C
1C
1C
28
48
C8
FE
08
3C
ENDCHAR

STARTCHAR five
ENCODING 53
SWIDTH 620 0
DWIDTH 7 0
BBX 7 9 1 0
BITMAP
7E
40
40
7C
44
04
84
8C
70
ENDCHAR

STARTCHAR six
ENCODING 54
SWIDTH 620 0
DWIDTH 7 0
BBX 7 9 1 0
BITMAP
1C
22
40
C0
FC
C4
84
8C
78
ENDCHAR

STARTCHAR seven
ENCODING 55
SWIDTH 620 0
DWIDTH 7 0
BBX 6 9 2 0
BITMAP
7C
84
08
10
30
20
60
40
C0
ENDCHAR

STARTCHAR eight
ENCODING 56
SWIDTH 620 0
DWIDTH 7 0
BBX 7 9 1 0
BITMAP
1C
22
62
7C
6C
86
86
84
78
ENDCHAR

STARTCHAR nine
ENCODING 57
SWIDTH 620 0
DWIDTH 7 0
BBX 7 9 1 0
BITMAP
3C
66
42
C6
46
7C
04
88
70
ENDCHAR

STARTCHAR colon
ENCODING 58
SWIDTH 300 0
DWIDTH 4 0
BBX 2 6 1 0
BITMAP
40
00
00
00
00
C0
ENDCHAR

STARTCHAR semicolon
ENCODING 59
SWIDTH 300 0
DWIDTH 4 0
BBX 2 7 1 -1
BITMAP
40
00
00
00
00
C0
80
ENDCHAR

STARTCHAR less
ENCODING 60
SWIDTH 600 0
DWIDTH 7 0
BBX 6 6 1 0
BITMAP
04
38
E0
E0
38
04
ENDCHAR

STARTCHAR equal
ENCODING 61
SWIDTH 600 0
DWIDTH 7 0
BBX 6 4 1 2
BITMAP
FC
00
00
FC
ENDCHAR

STARTCHAR greater
ENCODING 62
SWIDTH 600 0
DWIDTH 7 0
BBX 6 6 1 0
BITMAP
80
70
1C
1C
70
80
ENDCHAR

STARTCHAR question
ENCODING 63
SWIDTH 540 0
DWIDTH 6 0
BBX 6 9 1 0
BITMAP
78
8C
84
0C
18
20
20
00
40
ENDCHAR

STARTCHAR at
ENCODING 64
SWIDTH 780 0
DWIDTH 9 0
BBX 8 9 1 0
BITMAP
3C
42
99
A7
A5
A5
AD
7F
3E
ENDCHAR

STARTCHAR A
ENCODING 65
SWIDTH 700 0
DWIDTH 8 0
BBX 9 9 0 0
BITMAP
0600
0A00
0A00
1200
1200
3E00
2300
4100
E380
ENDCHAR

STARTCHAR B
ENCODING 66
SWIDTH 720 0
DWIDTH 9 0
BBX 9 9 0 0
BITMAP
7F00
3180
2180
2100
3F00
2100
6100
6300
FE00
ENDCHAR

STARTCHAR C
ENCODING 67
SWIDTH 720 0
DWIDTH 9 0
BBX 8 9 1 0
BITMAP
1D
63
41
C0
80
80
81
42
3C
ENDCHAR

STARTCHAR D
ENCODING 68
SWIDTH 740 0
DWIDTH 9 0
BBX 9 9 0 0
BITMAP
7F00
3180
2080
2080
2080
2080
6100
4300
FC00
ENDCHAR

STARTCHAR E
ENCODING 69
SWIDTH 680 0
DWIDTH 8 0
BBX 9 9 0 0
BITMAP
7F00
3100
2080
2400
3C00
2800
6100
6300
FE00
ENDCHAR

STARTCHAR F
ENCODING 70
SWIDTH 620 0
DWIDTH 7 0
BBX 9 9 0 0
BITMAP
7F00
3100
2480
2400
3C00
2400
6000
4000
F000
ENDCHAR

STARTCHAR G
ENCODING 71
SWIDTH 760 0
DWIDTH 9 0
BBX 9 9 1 0
BITMAP
1D00
6300
4100
C000
8000
8780
8300
4200
3E00
ENDCHAR

STARTCHAR H
ENCODING 72
SWIDTH 800 0
DWIDTH 10 0
BBX 10 9 0 0
BITMAP
79C0
3080
2080
2080
3F80
2100
6100
4100
F780
ENDCHAR

STARTCHAR I
ENCODING 73
SWIDTH 320 0
DWIDTH 4 0
BBX 5 9 0 0
BITMAP
78
30
20
20
20
20
60
40
E0
ENDCHAR

STARTCHAR J
ENCODING 74
SWIDTH 560 0
DWIDTH 7 0
BBX 8 9 0 0
BITMAP
07
02
06
04
04
C4
84
8C
70
ENDCHAR

STARTCHAR K
ENCODING 75
SWIDTH 720 0
DWIDTH 9 0
BBX 9 9 0 0
BITMAP
7B80
3100
2600
3C00
3400
2400
6200
6200
E780
ENDCHAR

STARTCHAR L
ENCODING 76
SWIDTH 580 0
DWIDTH 7 0
BBX 8 9 0 0
BITMAP
78
30
20
20
20
20
63
66
FE
ENDCHAR

STARTCHAR M
ENCODING 77
SWIDTH 860 0
DWIDTH 10 0
BBX 11 9 0 0
BITMAP
70E0
30C0
3940
39C0
2A80
2E80
4C80
4C80
EBC0
ENDCHAR

STARTCHAR N
ENCODING 78
SWIDTH 720 0
DWIDTH 9 0
BBX 10 9 0 0
BITMAP
71C0
3880
2900
2900
2500
2500
4500
4200
E200
ENDCHAR

STARTCHAR O
ENCODING 79
SWIDTH 760 0
DWIDTH 9 0
BBX 9 9 1 0
BITMAP
1E00
2300
4100
C180
8180
8100
8300
4600
3C00
ENDCHAR

STARTCHAR P
ENCODING 80
SWIDTH 600 0
DWIDTH 7 0
BBX 8 9 0 0
BITMAP
7E
33
21
21
22
3C
60
40
F0
ENDCHAR

STARTCHAR Q
ENCODING 81
SWIDTH 780 0
DWIDTH 9 0
BBX 9 12 1 -3
BITMAP
1E00
3100
6080
4080
C080
C180
C100
5F00
BE00
8200
C600
3C00
ENDCHAR

STARTCHAR R
ENCODING 82
SWIDTH 700 0
DWIDTH 8 0
BBX 9 9 0 0
BITMAP
7F00
3100
2100
2180
2300
3E00
6400
4200
F380
ENDCHAR

STARTCHAR S
ENCODING 83
SWIDTH 640 0
DWIDTH 8 0
BBX 7 9 1 0
BITMAP
3E
62
42
60
1C
82
82
C6
BC
ENDCHAR

STARTCHAR T
ENCODING 84
SWIDTH 600 0
DWIDTH 7 0
BBX 8 9 1 0
BITMAP
7F
C9
99
10
10
10
10
30
78
ENDCHAR

STARTCHAR U
ENCODING 85
SWIDTH 720 0
DWIDTH 9 0
BBX 9 9 1 0
BITMAP
E380
4100
4200
4200
C200
8200
8200
C400
7800
ENDCHAR

STARTCHAR V
ENCODING 86
SWIDTH 680 0
DWIDTH 8 0
BBX 9 9 1 0
BITMAP
E380
4100
4200
6200
2400
2400
2800
2800
3000
ENDCHAR

STARTCHAR W
ENCODING 87
SWIDTH 960 0
DWIDTH 12 0
BBX 12 9 1 0
BITMAP
EE70
4620
4660
6640
6AC0
2A80
3380
3300
2300
ENDCHAR

STARTCHAR X
ENCODING 88
SWIDTH 700 0
DWIDTH 8 0
BBX 10 9 0 0
BITMAP
39C0
1180
0B00
0E00
0C00
1600
2200
6300
E780
ENDCHAR

STARTCHAR Y
ENCODING 89
SWIDTH 660 0
DWIDTH 8 0
BBX 9 9 1 0
BITMAP
E380
4200
2400
2C00
1800
1000
3000
3000
7800
ENDCHAR

STARTCHAR Z
ENCODING 90
SWIDTH 580 0
DWIDTH 7 0
BBX 8 9 0 0
BITMAP
3F
22
46
0C
18
10
21
42
FE
ENDCHAR

STARTCHAR bracketleft
ENCODING 91
SWIDTH 260 0
DWIDTH 3 0
BBX 4 11 1 -2
BITMAP
30
20
40
40
40
40
40
40
80
80
C0
ENDCHAR

STARTCHAR backslash
ENCODING 92
SWIDTH 600 0
DWIDTH 7 0
BBX 6 11 1 -2
BITMAP
80
40
40
40
20
20
10
10
18
08
0C
ENDCHAR

STARTCHAR bracketright
ENCODING 93
SWIDTH 260 0
DWIDTH 3 0
BBX 4 11 0 -2
BITMAP
30
20
20
20
20
20
20
40
40
40
C0
ENDCHAR

STARTCHAR asciicircum
ENCODING 94
SWIDTH 600 0
DWIDTH 7 0
BBX 6 5 1 4
BITMAP
30
30
48
48
84
ENDCHAR

STARTCHAR underscore
ENCODING 95
SWIDTH 500 0
DWIDTH 6 0
BBX 6 1 0 -2
BITMAP
FC
ENDCHAR

STARTCHAR quoteleft
ENCODING 96
SWIDTH 280 0
DWIDTH 3 0
BBX 2 2 2 7
BITMAP
40
C0
ENDCHAR

STARTCHAR a
ENCODING 97
SWIDTH 620 0
DWIDTH 7 0
BBX 7 6 1 0
BITMAP
3C
44
C4
8C
8C
76
ENDCHAR

STARTCHAR b
ENCODING 98
SWIDTH 600 0
DWIDTH 7 0
BBX 6 9 1 0
BITMAP
E0
40
40
5C
64
44
C4
8C
F8
ENDCHAR

STARTCHAR c
ENCODING 99
SWIDTH 480 0
DWIDTH 6 0
BBX 5 6 1 0
BITMAP
38
48
C8
80
C8
70
ENDCHAR

STARTCHAR d
ENCODING 100
SWIDTH 640 0
DWIDTH 8 0
BBX 8 9 1 0
BITMAP
06
02
02
3C
44
84
84
9D
76
ENDCHAR

STARTCHAR e
ENCODING 101
SWIDTH 540 0
DWIDTH 6 0
BBX 6 6 1 0
BITMAP
3C
44
CC
F8
80
7C
ENDCHAR

STARTCHAR f
ENCODING 102
SWIDTH 340 0
DWIDTH 4 0
BBX 9 12 -1 -3
BITMAP
0380
0400
0400
1E00
0C00
0800
0800
0800
0800
1800
1000
E000
ENDCHAR

STARTCHAR g
ENCODING 103
SWIDTH 560 0
DWIDTH 7 0
BBX 7 9 0 -3
BITMAP
3E
62
44
44
4C
74
0C
08
F0
ENDCHAR

STARTCHAR h
ENCODING 104
SWIDTH 620 0
DWIDTH 7 0
BBX 7 9 1 0
BITMAP
E0
40
40
7C
64
44
C4
88
8E
ENDCHAR

STARTCHAR i
ENCODING 105
SWIDTH 280 0
DWIDTH 3 0
BBX 4 9 1 0
BITMAP
60
00
00
C0
40
40
C0
90
E0
ENDCHAR

STARTCHAR j
ENCODING 106
SWIDTH 280 0
DWIDTH 3 0
BBX 6 12 -1 -3
BITMAP
04
00
00
1C
08
08
08
08
08
18
10
E0
ENDCHAR

STARTCHAR k
ENCODING 107
SWIDTH 600 0
DWIDTH 7 0
BBX 7 9 1 0
BITMAP
E0
40
40
4E
50
70
D0
D8
8E
ENDCHAR

STARTCHAR l
ENCODING 108
SWIDTH 280 0
DWIDTH 3 0
BBX 3 9 1 0
BITMAP
C0
40
40
40
40
80
80
80
E0
ENDCHAR

STARTCHAR m
ENCODING 109
SWIDTH 880 0
DWIDTH 11 0
BBX 10 6 1 0
BITMAP
FF80
4480
4C80
4880
8880
88C0
ENDCHAR

STARTCHAR n
ENCODING 110
SWIDTH 620 0
DWIDTH 7 0
BBX 7 6 1 0
BITMAP
DC
64
44
44
88
86
ENDCHAR

STARTCHAR o
ENCODING 111
SWIDTH 540 0
DWIDTH 6 0
BBX 6 6 1 0
BITMAP
38
44
84
84
88
70
ENDCHAR

STARTCHAR p
ENCODING 112
SWIDTH 600 0
DWIDTH 7 0
BBX 8 9 0 -3
BITMAP
7E
33
31
23
26
3C
40
40
E0
ENDCHAR

STARTCHAR q
ENCODING 113
SWIDTH 560 0
DWIDTH 7 0
BBX 6 9 1 -3
BITMAP
3C
44
84
8C
98
78
08
08
1C
ENDCHAR

STARTCHAR r
ENCODING 114
SWIDTH 400 0
DWIDTH 5 0
BBX 5 6 1 0
BITMAP
F8
40
40
40
80
80
ENDCHAR

STARTCHAR s
ENCODING 115
SWIDTH 540 0
DWIDTH 6 0
BBX 6 6 1 0
BITMAP
78
4C
60
18
88
78
ENDCHAR

STARTCHAR t
ENCODING 116
SWIDTH 340 0
DWIDTH 4 0
BBX 4 9 1 0
BITMAP
20
20
40
F0
40
40
C0
90
E0
ENDCHAR

STARTCHAR u
ENCODING 117
SWIDTH 620 0
DWIDTH 7 0
BBX 8 6 1 0
BITMAP
C4
44
44
4C
89
FE
ENDCHAR

STARTCHAR v
ENCODING 118
SWIDTH 540 0
DWIDTH 6 0
BBX 6 6 1 0
BITMAP
C8
44
44
44
88
70
ENDCHAR

STARTCHAR w
ENCODING 119
SWIDTH 880 0
DWIDTH 11 0
BBX 10 6 1 0
BITMAP
C480
4440
4440
CC40
8C80
FF00
ENDCHAR

STARTCHAR x
ENCODING 120
SWIDTH 540 0
DWIDTH 6 0
BBX 7 6 0 0
BITMAP
66
1C
18
28
28
CE
ENDCHAR

STARTCHAR y
ENCODING 121
SWIDTH 600 0
DWIDTH 7 0
BBX 7 9 1 -3
BITMAP
C6
44
44
44
4C
74
0C
08
F0
ENDCHAR

STARTCHAR z
ENCODING 122
SWIDTH 520 0
DWIDTH 6 0
BBX 6 6 0 0
BITMAP
7C
48
10
20
44
FC
ENDCHAR

STARTCHAR braceleft
ENCODING 123
SWIDTH 360 0
DWIDTH 4 0
BBX 4 11 2 -2
BITMAP
30
20
40
40
40
80
80
80
80
80
40
ENDCHAR

STARTCHAR bar
ENCODING 124
SWIDTH 600 0
DWIDTH 7 0
BBX 1 9 4 0
BITMAP
80
80
80
80
80
80
80
80
80
ENDCHAR

STARTCHAR braceright
ENCODING 125
SWIDTH 380 0
DWIDTH 5 0
BBX 4 11 0 -2
BITMAP
20
10
20
20
20
10
20
20
40
40
C0
ENDCHAR

STARTCHAR asciitilde
ENCODING 126
SWIDTH 600 0
DWIDTH 7 0
BBX 6 2 1 2
BITMAP
64
98
ENDCHAR

STARTCHAR exclamdown
ENCODING 161
SWIDTH 320 0
DWIDTH 4 0
BBX 3 9 1 -3
BITMAP
60
00
40
40
40
40
C0
C0
80
ENDCHAR

STARTCHAR cent
ENCODING 162
SWIDTH 620 0
DWIDTH 7 0
BBX 5 9 2 0
BITMAP
10
78
68
A8
A0
A8
70
40
40
ENDCHAR

STARTCHAR sterling
ENCODING 163
SWIDTH 620 0
DWIDTH 7 0
BBX 8 9 0 0
BITMAP
0F
19
11
10
7C
10
16
F1
EE
ENDCHAR

STARTCHAR currency
ENCODING 164
SWIDTH 620 0
DWIDTH 7 0
BBX 6 6 1 1
BITMAP
B4
48
84
84
48
B4
ENDCHAR

STARTCHAR yen
ENCODING 165
SWIDTH 620 0
DWIDTH 7 0
BBX 8 9 1 0
BITMAP
77
22
24
EE
30
FE
10
20
70
ENDCHAR

STARTCHAR brokenbar
ENCODING 166
SWIDTH 600 0
DWIDTH 7 0
BBX 1 9 4 0
BITMAP
80
80
80
00
00
80
80
80
80
ENDCHAR

STARTCHAR section
ENCODING 167
SWIDTH 620 0
DWIDTH 7 0
BBX 7 12 0 -3
BITMAP
1C
62
22
30
4C
42
42
32
0C
84
84
78
ENDCHAR

STARTCHAR dieresis
ENCODING 168
SWIDTH 420 0
DWIDTH 5 0
BBX 3 1 2 8
BITMAP
A0
ENDCHAR

STARTCHAR copyright
ENCODING 169
SWIDTH 740 0
DWIDTH 9 0
BBX 9 9 0 0
BITMAP
3E00
6300
DD80
B280
A080
A080
F380
7F00
3E00
ENDCHAR

STARTCHAR ordfeminine
ENCODING 170
SWIDTH 440 0
DWIDTH 5 0
BBX 5 5 1 4
BITMAP
78
50
50
78
F8
ENDCHAR

STARTCHAR guillemotleft
ENCODING 171
SWIDTH 300 0
DWIDTH 4 0
BBX 3 4 1 1
BITMAP
60
C0
C0
C0
ENDCHAR

STARTCHAR logicalnot
ENCODING 172
SWIDTH 600 0
DWIDTH 7 0
BBX 6 4 1 1
BITMAP
FC
04
04
04
ENDCHAR

STARTCHAR hyphen
ENCODING 173
SWIDTH 320 0
DWIDTH 4 0
BBX 3 1 1 3
BITMAP
E0
ENDCHAR

STARTCHAR registered
ENCODING 174
SWIDTH 740 0
DWIDTH 9 0
BBX 9 9 0 0
BITMAP
3E00
6300
FF80
9280
9E80
9680
FB80
6300
3E00
ENDCHAR

STARTCHAR macron
ENCODING 175
SWIDTH 440 0
DWIDTH 5 0
BBX 4 1 2 7
BITMAP
F0
ENDCHAR

STARTCHAR degree
ENCODING 176
SWIDTH 400 0
DWIDTH 4 0
BBX 4 5 1 4
BITMAP
60
90
90
90
60
ENDCHAR

STARTCHAR plusminus
ENCODING 177
SWIDTH 600 0
DWIDTH 7 0
BBX 7 6 1 0
BITMAP
10
10
FE
10
10
FE
ENDCHAR

STARTCHAR twosuperior
ENCODING 178
SWIDTH 372 0
DWIDTH 4 0
BBX 4 5 -5 4
BITMAP
70
50
10
60
F0
ENDCHAR

STARTCHAR threesuperior
ENCODING 179
SWIDTH 372 0
DWIDTH 4 0
BBX 4 5 -5 4
BITMAP
70
50
30
90
E0
ENDCHAR

STARTCHAR acute
ENCODING 180
SWIDTH 320 0
DWIDTH 4 0
BBX 2 2 2 7
BITMAP
40
80
ENDCHAR

STARTCHAR mu
ENCODING 181
SWIDTH 620 0
DWIDTH 7 0
BBX 8 9 0 -3
BITMAP
62
66
44
44
4D
76
40
80
80
ENDCHAR

STARTCHAR paragraph
ENCODING 182
SWIDTH 620 0
DWIDTH 7 0
BBX 7 9 1 0
BITMAP
7E
F4
F4
F4
64
24
28
28
7C
ENDCHAR

STARTCHAR periodcentered
ENCODING 183
SWIDTH 300 0
DWIDTH 6 0
BBX 2 2 2 3
BITMAP
C0
C0
ENDCHAR

STARTCHAR cedilla
ENCODING 184
SWIDTH 320 0
DWIDTH 4 0
BBX 2 2 1 -3
BITMAP
40
C0
ENDCHAR

STARTCHAR onesuperior
ENCODING 185
SWIDTH 372 0
DWIDTH 4 0
BBX 2 5 -6 4
BITMAP
40
40
40
40
C0
ENDCHAR

STARTCHAR ordmasculine
ENCODING 186
SWIDTH 400 0
DWIDTH 5 0
BBX 4 5 1 4
BITMAP
70
50
70
00
F0
ENDCHAR

STARTCHAR guillemotright
ENCODING 187
SWIDTH 300 0
DWIDTH 4 0
BBX 3 4 1 1
BITMAP
60
60
A0
C0
ENDCHAR

STARTCHAR onequarter
ENCODING 188
SWIDTH 930 0
DWIDTH 9 0
BBX 8 9 -6 0
BITMAP
46
44
48
58
D3
26
66
4F
86
ENDCHAR

STARTCHAR onehalf
ENCODING 189
SWIDTH 930 0
DWIDTH 9 0
BBX 8 9 -6 0
BITMAP
46
44
48
58
D7
25
61
46
8F
ENDCHAR

STARTCHAR threequarters
ENCODING 190
SWIDTH 930 0
DWIDTH 9 0
BBX 9 9 -5 0
BITMAP
7300
5200
3400
9C00
E980
1300
3300
2780
4300
ENDCHAR

STARTCHAR questiondown
ENCODING 191
SWIDTH 540 0
DWIDTH 6 0
BBX 6 9 0 -3
BITMAP
08
00
10
10
60
C0
84
CC
78
ENDCHAR

STARTCHAR Agrave
ENCODING 192
SWIDTH 700 0
DWIDTH 8 0
BBX 9 12 0 0
BITMAP
0400
0200
0000
0600
0A00
0A00
1200
1200
3E00
2300
4100
E380
ENDCHAR

STARTCHAR Aacute
ENCODING 193
SWIDTH 700 0
DWIDTH 8 0
BBX 9 12 0 0
BITMAP
0200
0400
0000
0600
0A00
0A00
1200
1200
3E00
2300
4100
E380
ENDCHAR

STARTCHAR Acircumflex
ENCODING 194
SWIDTH 700 0
DWIDTH 8 0
BBX 9 12 0 0
BITMAP
0400
0B00
0000
0600
0A00
0A00
1200
1200
3E00
2300
4100
E380
ENDCHAR

STARTCHAR Atilde
ENCODING 195
SWIDTH 700 0
DWIDTH 8 0
BBX 9 11 0 0
BITMAP
0F00
0000
0600
0A00
0A00
1200
1200
3E00
2300
4100
E380
ENDCHAR

STARTCHAR Adieresis
ENCODING 196
SWIDTH 700 0
DWIDTH 8 0
BBX 9 11 0 0
BITMAP
0A00
0000
0600
0A00
0A00
1200
1200
3E00
2300
4100
E380
ENDCHAR

STARTCHAR Aring
ENCODING 197
SWIDTH 700 0
DWIDTH 8 0
BBX 9 13 0 0
BITMAP
0600
0600
0600
0000
0600
0A00
0A00
1200
1200
3E00
2300
4100
E380
ENDCHAR

STARTCHAR AE
ENCODING 198
SWIDTH 1220 0
DWIDTH 15 0
BBX 16 9 0 0
BITMAP
007E
00E3
0141
0248
07F8
0848
1042
20C6
F1FC
ENDCHAR

STARTCHAR Ccedilla
ENCODING 199
SWIDTH 720 0
DWIDTH 9 0
BBX 8 12 1 -3
BITMAP
1D
63
41
C0
80
80
81
42
3C
00
10
30
ENDCHAR

STARTCHAR Egrave
ENCODING 200
SWIDTH 680 0
DWIDTH 8 0
BBX 9 12 0 0
BITMAP
0800
0400
0000
7F00
3100
2080
2400
3C00
2800
6100
6300
FE00
ENDCHAR

STARTCHAR Eacute
ENCODING 201
SWIDTH 680 0
DWIDTH 8 0
BBX 9 12 0 0
BITMAP
0400
0800
0000
7F00
3100
2080
2400
3C00
2800
6100
6300
FE00
ENDCHAR

STARTCHAR Ecircumflex
ENCODING 202
SWIDTH 680 0
DWIDTH 8 0
BBX 9 12 0 0
BITMAP
0800
1600
0000
7F00
3100
2080
2400
3C00
2800
6100
6300
FE00
ENDCHAR

STARTCHAR Edieresis
ENCODING 203
SWIDTH 680 0
DWIDTH 8 0
BBX 9 11 0 0
BITMAP
0A00
0000
7F00
3100
2080
2400
3C00
2800
6100
6300
FE00
ENDCHAR

STARTCHAR Igrave
ENCODING 204
SWIDTH 320 0
DWIDTH 4 0
BBX 5 12 0 0
BITMAP
20
10
00
78
30
20
20
20
20
60
40
E0
ENDCHAR

STARTCHAR Iacute
ENCODING 205
SWIDTH 320 0
DWIDTH 4 0
BBX 5 12 0 0
BITMAP
10
20
00
78
30
20
20
20
20
60
40
E0
ENDCHAR

STARTCHAR Icircumflex
ENCODING 206
SWIDTH 320 0
DWIDTH 4 0
BBX 5 12 0 0
BITMAP
20
58
00
78
30
20
20
20
20
60
40
E0
ENDCHAR

STARTCHAR Idieresis
ENCODING 207
SWIDTH 320 0
DWIDTH 4 0
BBX 5 11 0 0
BITMAP
50
00
78
30
20
20
20
20
60
40
E0
ENDCHAR

STARTCHAR Eth
ENCODING 208
SWIDTH 740 0
DWIDTH 9 0
BBX 9 9 0 0
BITMAP
7F00
3180
2080
2080
2080
7880
2100
4300
FC00
ENDCHAR

STARTCHAR Ntilde
ENCODING 209
SWIDTH 720 0
DWIDTH 9 0
BBX 10 11 0 0
BITMAP
0F00
0000
71C0
3880
2900
2900
2500
2500
4500
4200
E200
ENDCHAR

STARTCHAR Ograve
ENCODING 210
SWIDTH 760 0
DWIDTH 9 0
BBX 9 12 1 0
BITMAP
0800
0400
0000
1E00
2300
4100
C180
8180
8100
8300
4600
3C00
ENDCHAR

STARTCHAR Oacute
ENCODING 211
SWIDTH 760 0
DWIDTH 9 0
BBX 9 12 1 0
BITMAP
0400
0800
0000
1E00
2300
4100
C180
8180
8100
8300
4600
3C00
ENDCHAR

STARTCHAR Ocircumflex
ENCODING 212
SWIDTH 760 0
DWIDTH 9 0
BBX 9 12 1 0
BITMAP
0800
1600
0000
1E00
2300
4100
C180
8180
8100
8300
4600
3C00
ENDCHAR

STARTCHAR Otilde
ENCODING 213
SWIDTH 760 0
DWIDTH 9 0
BBX 9 11 1 0
BITMAP
1E00
0000
1E00
2300
4100
C180
8180
8100
8300
4600
3C00
ENDCHAR

STARTCHAR Odieresis
ENCODING 214
SWIDTH 760 0
DWIDTH 9 0
BBX 9 11 1 0
BITMAP
1400
0000
1E00
2300
4100
C180
8180
8100
8300
4600
3C00
ENDCHAR

STARTCHAR multiply
ENCODING 215
SWIDTH 600 0
DWIDTH 7 0
BBX 5 5 2 2
BITMAP
88
50
20
50
88
ENDCHAR

STARTCHAR Oslash
ENCODING 216
SWIDTH 760 0
DWIDTH 9 0
BBX 9 9 1 0
BITMAP
1F80
2300
4300
C580
8D80
9900
9300
6600
7C00
ENDCHAR

STARTCHAR Ugrave
ENCODING 217
SWIDTH 720 0
DWIDTH 9 0
BBX 9 12 1 0
BITMAP
1000
0800
0000
E380
4100
4200
4200
C200
8200
8200
C400
7800
ENDCHAR

STARTCHAR Uacute
ENCODING 218
SWIDTH 720 0
DWIDTH 9 0
BBX 9 12 1 0
BITMAP
0800
1000
0000
E380
4100
4200
4200
C200
8200
8200
C400
7800
ENDCHAR

STARTCHAR Ucircumflex
ENCODING 219
SWIDTH 720 0
DWIDTH 9 0
BBX 9 12 1 0
BITMAP
1000
2C00
0000
E380
4100
4200
4200
C200
8200
8200
C400
7800
ENDCHAR

STARTCHAR Udieresis
ENCODING 220
SWIDTH 720 0
DWIDTH 9 0
BBX 9 11 1 0
BITMAP
1400
0000
E380
4100
4200
4200
C200
8200
8200
C400
7800
ENDCHAR

STARTCHAR Yacute
ENCODING 221
SWIDTH 660 0
DWIDTH 8 0
BBX 9 12 1 0
BITMAP
0800
1000
0000
E380
4200
2400
2C00
1800
1000
3000
3000
7800
ENDCHAR

STARTCHAR Thorn
ENCODING 222
SWIDTH 600 0
DWIDTH 7 0
BBX 8 9 0 0
BITMAP
78
30
3E
23
23
23
62
7C
E0
ENDCHAR

STARTCHAR germandbls
ENCODING 223
SWIDTH 620 0
DWIDTH 7 0
BBX 9 10 0 -1
BITMAP
0780
0C80
0980
1A00
0980
0880
1080
1180
1F00
E000
ENDCHAR

STARTCHAR agrave
ENCODING 224
SWIDTH 620 0
DWIDTH 7 0
BBX 7 9 1 0
BITMAP
10
08
00
3C
44
C4
8C
8C
76
ENDCHAR

STARTCHAR aacute
ENCODING 225
SWIDTH 620 0
DWIDTH 7 0
BBX 7 9 1 0
BITMAP
08
10
00
3C
44
C4
8C
8C
76
ENDCHAR

STARTCHAR acircumflex
ENCODING 226
SWIDTH 620 0
DWIDTH 7 0
BBX 7 9 1 0
BITMAP
10
2C
00
3C
44
C4
8C
8C
76
ENDCHAR

STARTCHAR atilde
ENCODING 227
SWIDTH 620 0
DWIDTH 7 0
BBX 7 8 1 0
BITMAP
3C
00
3C
44
C4
8C
8C
76
ENDCHAR

STARTCHAR adieresis
ENCODING 228
SWIDTH 620 0
DWIDTH 7 0
BBX 7 8 1 0
BITMAP
14
00
3C
44
C4
8C
8C
76
ENDCHAR

STARTCHAR aring
ENCODING 229
SWIDTH 620 0
DWIDTH 7 0
BBX 7 10 1 0
BITMAP
18
18
18
00
3C
44
C4
8C
8C
76
ENDCHAR

STARTCHAR ae
ENCODING 230
SWIDTH 880 0
DWIDTH 11 0
BBX 10 6 1 0
BITMAP
3BC0
4640
4440
7F80
88C0
F780
ENDCHAR

STARTCHAR ccedilla
ENCODING 231
SWIDTH 480 0
DWIDTH 6 0
BBX 5 9 1 -3
BITMAP
38
48
C8
80
C8
70
00
20
60
ENDCHAR

STARTCHAR egrave
ENCODING 232
SWIDTH 540 0
DWIDTH 6 0
BBX 6 9 1 0
BITMAP
10
08
00
3C
44
CC
F8
80
7C
ENDCHAR

STARTCHAR eacute
ENCODING 233
SWIDTH 540 0
DWIDTH 6 0
BBX 6 9 1 0
BITMAP
08
10
00
3C
44
CC
F8
80
7C
ENDCHAR

STARTCHAR ecircumflex
ENCODING 234
SWIDTH 540 0
DWIDTH 6 0
BBX 6 9 1 0
BITMAP
10
2C
00
3C
44
CC
F8
80
7C
ENDCHAR

STARTCHAR edieresis
ENCODING 235
SWIDTH 540 0
DWIDTH 6 0
BBX 6 8 1 0
BITMAP
28
00
3C
44
CC
F8
80
7C
ENDCHAR

STARTCHAR igrave
ENCODING 236
SWIDTH 280 0
DWIDTH 3 0
BBX 4 9 1 0
BITMAP
40
20
00
C0
40
40
C0
90
E0
ENDCHAR

STARTCHAR iacute
ENCODING 237
SWIDTH 280 0
DWIDTH 3 0
BBX 4 9 1 0
BITMAP
20
40
00
C0
40
40
C0
90
E0
ENDCHAR

STARTCHAR icircumflex
ENCODING 238
SWIDTH 280 0
DWIDTH 3 0
BBX 4 9 1 0
BITMAP
40
B0
00
C0
40
40
C0
90
E0
ENDCHAR

STARTCHAR idieresis
ENCODING 239
SWIDTH 280 0
DWIDTH 3 0
BBX 4 8 1 0
BITMAP
A0
00
C0
40
40
C0
90
E0
ENDCHAR

STARTCHAR eth
ENCODING 240
SWIDTH 540 0
DWIDTH 6 0
BBX 6 10 1 0
BITMAP
18
30
38
2C
3C
44
84
84
88
70
ENDCHAR

STARTCHAR ntilde
ENCODING 241
SWIDTH 620 0
DWIDTH 7 0
BBX 7 8 1 0
BITMAP
3C
00
DC
64
44
44
88
86
ENDCHAR

STARTCHAR ograve
ENCODING 242
SWIDTH 540 0
DWIDTH 6 0
BBX 6 9 1 0
BITMAP
10
08
00
38
44
84
84
88
70
ENDCHAR

STARTCHAR oacute
ENCODING 243
SWIDTH 540 0
DWIDTH 6 0
BBX 6 9 1 0
BITMAP
08
10
00
38
44
84
84
88
70
ENDCHAR

STARTCHAR ocircumflex
ENCODING 244
SWIDTH 540 0
DWIDTH 6 0
BBX 6 9 1 0
BITMAP
10
2C
00
38
44
84
84
88
70
ENDCHAR

STARTCHAR otilde
ENCODING 245
SWIDTH 540 0
DWIDTH 6 0
BBX 6 8 1 0
BITMAP
3C
00
38
44
84
84
88
70
ENDCHAR

STARTCHAR odieresis
ENCODING 246
SWIDTH 540 0
DWIDTH 6 0
BBX 6 8 1 0
BITMAP
28
00
38
44
84
84
88
70
ENDCHAR

STARTCHAR divide
ENCODING 247
SWIDTH 600 0
DWIDTH 7 0
BBX 5 7 2 1
BITMAP
20
00
00
F8
00
00
20
ENDCHAR

STARTCHAR oslash
ENCODING 248
SWIDTH 540 0
DWIDTH 6 0
BBX 6 6 1 0
BITMAP
3C
4C
94
A4
C8
F0
ENDCHAR

STARTCHAR ugrave
ENCODING 249
SWIDTH 620 0
DWIDTH 7 0
BBX 8 9 1 0
BITMAP
10
08
00
C4
44
44
4C
89
FE
ENDCHAR

STARTCHAR uacute
ENCODING 250
SWIDTH 620 0
DWIDTH 7 0
BBX 8 9 1 0
BITMAP
08
10
00
C4
44
44
4C
89
FE
ENDCHAR

STARTCHAR ucircumflex
ENCODING 251
SWIDTH 620 0
DWIDTH 7 0
BBX 8 9 1 0
BITMAP
10
2C
00
C4
44
44
4C
89
FE
ENDCHAR

STARTCHAR udieresis
ENCODING 252
SWIDTH 620 0
DWIDTH 7 0
BBX 8 8 1 0
BITMAP
28
00
C4
44
44
4C
89
FE
ENDCHAR

STARTCHAR yacute
ENCODING 253
SWIDTH 600 0
DWIDTH 7 0
BBX 7 12 1 -3
BITMAP
08
10
00
C6
44
44
44
4C
74
0C
08
F0
ENDCHAR

STARTCHAR thorn
ENCODING 254
SWIDTH 600 0
DWIDTH 7 0
BBX 8 12 0 -3
BITMAP
30
10
10
3E
3B
31
23
26
3C
40
40
E0
ENDCHAR

STARTCHAR ydieresis
ENCODING 255
SWIDTH 600 0
DWIDTH 7 0
BBX 7 11 1 -3
BITMAP
14
00
C6
44
44
44
4C
74
0C
08
F0
ENDCHAR

ENDFONT
