STARTFONT 2.1
FONT -Monotype-Gill Sans-Bold-R-Normal--14-140-72-72-P-73-ISO8859-1
SIZE 14 72 72
FONTBOUNDINGBOX 21 17 -5 -3

STARTPROPERTIES 22
FOUNDRY "Monotype"
FAMILY_NAME "Gill Sans"
WEIGHT_NAME "Bold"
SLANT "R"
SETWIDTH_NAME "Normal"
ADD_STYLE_NAME ""
PIXEL_SIZE 14
POINT_SIZE 140
RESOLUTION_X 72
RESOLUTION_Y 72
SPACING "P"
AVERAGE_WIDTH 73
CHARSET_REGISTRY "ISO8859"
CHARSET_ENCODING "1"
FULL_NAME "GillSans-Bold"
COPYRIGHT "Copyright (c) 1991 The Monotype Corporation plc."
WEIGHT 10
X_HEIGHT 7
QUAD_WIDTH 10
DEFAULT_CHAR 32
FONT_DESCENT 4
FONT_ASCENT 13
ENDPROPERTIES

CHARS 190

STARTCHAR space
ENCODING 32
SWIDTH 278 0
DWIDTH 4 0
BBX 1 1 0 0
BITMAP
00
ENDCHAR

STARTCHAR exclam
ENCODING 33
SWIDTH 271 0
DWIDTH 4 0
BBX 2 10 1 0
BITMAP
C0
C0
C0
C0
C0
C0
80
00
00
C0
ENDCHAR

STARTCHAR quotedbl
ENCODING 34
SWIDTH 479 0
DWIDTH 7 0
BBX 5 2 1 8
BITMAP
D8
D8
ENDCHAR

STARTCHAR numbersign
ENCODING 35
SWIDTH 584 0
DWIDTH 9 0
BBX 8 11 0 -1
BITMAP
33
33
33
FF
66
66
66
FF
6C
6C
CC
ENDCHAR

STARTCHAR dollar
ENCODING 36
SWIDTH 542 0
DWIDTH 8 0
BBX 6 12 1 -2
BITMAP
7C
E4
E0
E0
F0
78
2C
2C
AC
F8
20
20
ENDCHAR

STARTCHAR percent
ENCODING 37
SWIDTH 719 0
DWIDTH 10 0
BBX 10 10 0 0
BITMAP
7180
D900
DA00
7600
0400
0B80
1EC0
16C0
26C0
6380
ENDCHAR

STARTCHAR ampersand
ENCODING 38
SWIDTH 750 0
DWIDTH 11 0
BBX 10 10 0 0
BITMAP
3C00
6600
6600
7E00
3C00
79C0
FD80
CF00
C780
79C0
ENDCHAR

STARTCHAR quoteright
ENCODING 39
SWIDTH 271 0
DWIDTH 4 0
BBX 2 4 1 6
BITMAP
C0
C0
C0
80
ENDCHAR

STARTCHAR parenleft
ENCODING 40
SWIDTH 385 0
DWIDTH 5 0
BBX 4 13 1 -3
BITMAP
30
60
60
40
C0
C0
C0
C0
C0
C0
60
60
30
ENDCHAR

STARTCHAR parenright
ENCODING 41
SWIDTH 385 0
DWIDTH 5 0
BBX 4 13 0 -3
BITMAP
C0
60
60
20
30
30
30
30
30
30
60
60
C0
ENDCHAR

STARTCHAR asterisk
ENCODING 42
SWIDTH 469 0
DWIDTH 7 0
BBX 6 6 0 4
BITMAP
30
B4
DC
30
EC
30
ENDCHAR

STARTCHAR plus
ENCODING 43
SWIDTH 584 0
DWIDTH 8 0
BBX 8 8 0 1
BITMAP
18
18
18
FF
FF
18
18
18
ENDCHAR

STARTCHAR comma
ENCODING 44
SWIDTH 271 0
DWIDTH 4 0
BBX 2 4 1 -3
BITMAP
C0
C0
C0
80
ENDCHAR

STARTCHAR minus
ENCODING 45
SWIDTH 584 0
DWIDTH 8 0
BBX 7 2 1 4
BITMAP
FE
FE
ENDCHAR

STARTCHAR period
ENCODING 46
SWIDTH 271 0
DWIDTH 4 0
BBX 2 2 1 0
BITMAP
C0
C0
ENDCHAR

STARTCHAR slash
ENCODING 47
SWIDTH 281 0
DWIDTH 5 0
BBX 5 13 0 -3
BITMAP
18
10
30
30
20
20
60
60
40
40
C0
C0
80
ENDCHAR

STARTCHAR zero
ENCODING 48
SWIDTH 552 0
DWIDTH 8 0
BBX 6 10 1 0
BITMAP
38
48
CC
CC
CC
CC
CC
CC
48
78
ENDCHAR

STARTCHAR one
ENCODING 49
SWIDTH 552 0
DWIDTH 8 0
BBX 2 10 3 0
BITMAP
C0
C0
C0
C0
C0
C0
C0
C0
C0
C0
ENDCHAR

STARTCHAR two
ENCODING 50
SWIDTH 552 0
DWIDTH 8 0
BBX 6 10 1 0
BITMAP
F8
8C
0C
0C
0C
18
38
30
60
FC
ENDCHAR

STARTCHAR three
ENCODING 51
SWIDTH 552 0
DWIDTH 8 0
BBX 5 10 1 0
BITMAP
F0
98
18
18
30
18
18
18
98
F0
ENDCHAR

STARTCHAR four
ENCODING 52
SWIDTH 552 0
DWIDTH 8 0
BBX 7 10 0 0
BITMAP
0C
0C
1C
3C
3C
6C
CC
FE
0C
0C
ENDCHAR

STARTCHAR five
ENCODING 53
SWIDTH 552 0
DWIDTH 8 0
BBX 5 10 1 0
BITMAP
F8
C0
C0
C0
F0
38
18
18
98
F0
ENDCHAR

STARTCHAR six
ENCODING 54
SWIDTH 552 0
DWIDTH 8 0
BBX 6 10 1 0
BITMAP
18
30
70
60
F8
FC
CC
CC
CC
78
ENDCHAR

STARTCHAR seven
ENCODING 55
SWIDTH 552 0
DWIDTH 8 0
BBX 7 10 1 0
BITMAP
FE
0C
0C
1C
18
18
30
30
70
20
ENDCHAR

STARTCHAR eight
ENCODING 56
SWIDTH 552 0
DWIDTH 8 0
BBX 6 10 1 0
BITMAP
78
CC
CC
CC
78
CC
CC
CC
CC
78
ENDCHAR

STARTCHAR nine
ENCODING 57
SWIDTH 552 0
DWIDTH 8 0
BBX 6 10 1 0
BITMAP
78
4C
CC
CC
CC
FC
78
18
30
70
ENDCHAR

STARTCHAR colon
ENCODING 58
SWIDTH 271 0
DWIDTH 4 0
BBX 2 7 1 0
BITMAP
C0
C0
00
00
00
C0
C0
ENDCHAR

STARTCHAR semicolon
ENCODING 59
SWIDTH 271 0
DWIDTH 4 0
BBX 2 8 1 -1
BITMAP
C0
C0
00
00
C0
C0
C0
80
ENDCHAR

STARTCHAR less
ENCODING 60
SWIDTH 584 0
DWIDTH 8 0
BBX 7 9 1 1
BITMAP
02
0E
3E
F0
C0
F0
3E
0E
02
ENDCHAR

STARTCHAR equal
ENCODING 61
SWIDTH 584 0
DWIDTH 8 0
BBX 7 5 1 2
BITMAP
FE
FE
00
FE
FE
ENDCHAR

STARTCHAR greater
ENCODING 62
SWIDTH 584 0
DWIDTH 8 0
BBX 7 9 1 1
BITMAP
80
E0
F8
1E
06
1E
F8
E0
80
ENDCHAR

STARTCHAR question
ENCODING 63
SWIDTH 375 0
DWIDTH 5 0
BBX 3 10 1 0
BITMAP
C0
60
60
E0
C0
80
80
00
00
C0
ENDCHAR

STARTCHAR at
ENCODING 64
SWIDTH 979 0
DWIDTH 14 0
BBX 14 13 0 -3
BITMAP
0FE0
1830
77F8
6C6C
CC6C
D84C
D84C
D8D8
D8D8
6FEC
6008
3830
0FC0
ENDCHAR

STARTCHAR A
ENCODING 65
SWIDTH 781 0
DWIDTH 11 0
BBX 11 10 0 0
BITMAP
0E00
1E00
1A00
1B00
3300
3180
3180
7FC0
60C0
E0E0
ENDCHAR

STARTCHAR B
ENCODING 66
SWIDTH 698 0
DWIDTH 10 0
BBX 8 10 1 0
BITMAP
FC
C6
C6
C6
FC
C3
C3
C3
C3
FE
ENDCHAR

STARTCHAR C
ENCODING 67
SWIDTH 771 0
DWIDTH 11 0
BBX 9 10 1 0
BITMAP
1F80
3080
6000
C000
C000
C000
C000
6000
7080
1F80
ENDCHAR

STARTCHAR D
ENCODING 68
SWIDTH 802 0
DWIDTH 11 0
BBX 9 10 1 0
BITMAP
FC00
C300
C100
C180
C180
C180
C180
C300
C700
FC00
ENDCHAR

STARTCHAR E
ENCODING 69
SWIDTH 635 0
DWIDTH 9 0
BBX 6 10 2 0
BITMAP
FC
C0
C0
C0
FC
C0
C0
C0
C0
FC
ENDCHAR

STARTCHAR F
ENCODING 70
SWIDTH 604 0
DWIDTH 8 0
BBX 6 10 1 0
BITMAP
FC
C0
C0
C0
FC
C0
C0
C0
C0
C0
ENDCHAR

STARTCHAR G
ENCODING 71
SWIDTH 813 0
DWIDTH 11 0
BBX 8 10 2 0
BITMAP
1F
61
60
C0
C0
C0
C7
63
63
3E
ENDCHAR

STARTCHAR H
ENCODING 72
SWIDTH 833 0
DWIDTH 12 0
BBX 9 10 1 0
BITMAP
C180
C180
C180
C180
FF80
C180
C180
C180
C180
C180
ENDCHAR

STARTCHAR I
ENCODING 73
SWIDTH 333 0
DWIDTH 5 0
BBX 2 10 1 0
BITMAP
C0
C0
C0
C0
C0
C0
C0
C0
C0
C0
ENDCHAR

STARTCHAR J
ENCODING 74
SWIDTH 333 0
DWIDTH 5 0
BBX 4 13 0 -3
BITMAP
30
30
30
30
30
30
30
30
30
30
30
30
E0
ENDCHAR

STARTCHAR K
ENCODING 75
SWIDTH 719 0
DWIDTH 10 0
BBX 9 10 1 0
BITMAP
C700
CE00
CC00
D800
F800
D800
DC00
CE00
C700
C380
ENDCHAR

STARTCHAR L
ENCODING 76
SWIDTH 615 0
DWIDTH 9 0
BBX 7 10 1 0
BITMAP
C0
C0
C0
C0
C0
C0
C0
C0
C0
FE
ENDCHAR

STARTCHAR M
ENCODING 77
SWIDTH 885 0
DWIDTH 12 0
BBX 10 10 1 0
BITMAP
C0C0
E1C0
F3C0
F3C0
DEC0
CCC0
C8C0
C0C0
C0C0
C0C0
ENDCHAR

STARTCHAR N
ENCODING 78
SWIDTH 844 0
DWIDTH 12 0
BBX 9 10 1 0
BITMAP
C180
E180
F180
F980
D980
CD80
C780
C780
C380
C180
ENDCHAR

STARTCHAR O
ENCODING 79
SWIDTH 875 0
DWIDTH 12 0
BBX 10 10 1 0
BITMAP
1E00
6180
6180
C0C0
C0C0
C0C0
C0C0
6180
6180
1E00
ENDCHAR

STARTCHAR P
ENCODING 80
SWIDTH 656 0
DWIDTH 9 0
BBX 7 10 1 0
BITMAP
FC
C6
C6
C6
FC
C0
C0
C0
C0
C0
ENDCHAR

STARTCHAR Q
ENCODING 81
SWIDTH 875 0
DWIDTH 12 0
BBX 10 12 1 -2
BITMAP
1E00
6180
6180
C0C0
C0C0
C0C0
C0C0
6180
6180
3F00
0F00
03C0
ENDCHAR

STARTCHAR R
ENCODING 82
SWIDTH 677 0
DWIDTH 9 0
BBX 8 10 1 0
BITMAP
FC
C6
C6
C6
FC
C8
CC
C6
C6
C7
ENDCHAR

STARTCHAR S
ENCODING 83
SWIDTH 604 0
DWIDTH 8 0
BBX 6 10 1 0
BITMAP
7C
C4
C0
E0
F8
3C
0C
0C
8C
F8
ENDCHAR

STARTCHAR T
ENCODING 84
SWIDTH 719 0
DWIDTH 10 0
BBX 8 10 1 0
BITMAP
FF
18
18
18
18
18
18
18
18
18
ENDCHAR

STARTCHAR U
ENCODING 85
SWIDTH 823 0
DWIDTH 12 0
BBX 9 10 1 0
BITMAP
C180
C180
C180
C180
C180
C180
C180
C180
6300
3E00
ENDCHAR

STARTCHAR V
ENCODING 86
SWIDTH 719 0
DWIDTH 10 0
BBX 10 10 0 0
BITMAP
E1C0
6180
7180
3300
3300
1F00
1E00
0E00
0C00
0400
ENDCHAR

STARTCHAR W
ENCODING 87
SWIDTH 1167 0
DWIDTH 16 0
BBX 16 10 0 0
BITMAP
E183
61C6
63C6
336E
366C
1E7C
1E38
1C38
0C18
0810
ENDCHAR

STARTCHAR X
ENCODING 88
SWIDTH 813 0
DWIDTH 11 0
BBX 11 10 0 0
BITMAP
E0E0
3180
3B80
1F00
0E00
0E00
1F00
3B80
71C0
E0E0
ENDCHAR

STARTCHAR Y
ENCODING 89
SWIDTH 708 0
DWIDTH 10 0
BBX 10 10 0 0
BITMAP
E1C0
7380
3300
1E00
0C00
0C00
0C00
0C00
0C00
0C00
ENDCHAR

STARTCHAR Z
ENCODING 90
SWIDTH 698 0
DWIDTH 10 0
BBX 9 10 0 0
BITMAP
FF80
0300
0600
0E00
0C00
1800
1800
3000
7000
7F80
ENDCHAR

STARTCHAR bracketleft
ENCODING 91
SWIDTH 438 0
DWIDTH 6 0
BBX 5 13 1 -3
BITMAP
F8
C0
C0
C0
C0
C0
C0
C0
C0
C0
C0
C0
F8
ENDCHAR

STARTCHAR backslash
ENCODING 92
SWIDTH 281 0
DWIDTH 4 0
BBX 4 10 0 0
BITMAP
C0
C0
C0
40
60
60
60
20
30
30
ENDCHAR

STARTCHAR bracketright
ENCODING 93
SWIDTH 438 0
DWIDTH 6 0
BBX 5 13 0 -3
BITMAP
F8
18
18
18
18
18
18
18
18
18
18
18
F8
ENDCHAR

STARTCHAR asciicircum
ENCODING 94
SWIDTH 584 0
DWIDTH 8 0
BBX 7 5 1 5
BITMAP
38
38
6C
6C
C6
ENDCHAR

STARTCHAR underscore
ENCODING 95
SWIDTH 500 0
DWIDTH 8 0
BBX 8 1 0 -3
BITMAP
FF
ENDCHAR

STARTCHAR quoteleft
ENCODING 96
SWIDTH 271 0
DWIDTH 4 0
BBX 2 4 1 6
BITMAP
40
C0
C0
C0
ENDCHAR

STARTCHAR a
ENCODING 97
SWIDTH 531 0
DWIDTH 7 0
BBX 7 7 0 0
BITMAP
F8
8C
1C
7C
CC
CC
7E
ENDCHAR

STARTCHAR b
ENCODING 98
SWIDTH 583 0
DWIDTH 8 0
BBX 7 10 1 0
BITMAP
C0
C0
C0
F8
CC
C6
C6
C6
CC
FC
ENDCHAR

STARTCHAR c
ENCODING 99
SWIDTH 500 0
DWIDTH 7 0
BBX 6 7 1 0
BITMAP
3C
64
C0
C0
C0
64
3C
ENDCHAR

STARTCHAR d
ENCODING 100
SWIDTH 583 0
DWIDTH 8 0
BBX 7 10 0 0
BITMAP
06
06
06
3E
66
C6
C6
C6
E6
7E
ENDCHAR

STARTCHAR e
ENCODING 101
SWIDTH 552 0
DWIDTH 8 0
BBX 7 7 0 0
BITMAP
38
44
C6
FE
C0
62
3C
ENDCHAR

STARTCHAR f
ENCODING 102
SWIDTH 302 0
DWIDTH 4 0
BBX 5 10 0 0
BITMAP
38
60
60
F0
60
60
60
60
60
60
ENDCHAR

STARTCHAR g
ENCODING 103
SWIDTH 542 0
DWIDTH 8 0
BBX 7 10 0 -3
BITMAP
7E
CC
CC
CC
78
60
7C
CC
CC
78
ENDCHAR

STARTCHAR h
ENCODING 104
SWIDTH 583 0
DWIDTH 8 0
BBX 6 10 1 0
BITMAP
C0
C0
C0
F8
CC
CC
CC
CC
CC
CC
ENDCHAR

STARTCHAR i
ENCODING 105
SWIDTH 271 0
DWIDTH 4 0
BBX 2 10 1 0
BITMAP
C0
00
00
C0
C0
C0
C0
C0
C0
C0
ENDCHAR

STARTCHAR j
ENCODING 106
SWIDTH 271 0
DWIDTH 4 0
BBX 3 13 0 -3
BITMAP
60
00
00
60
60
60
60
60
60
60
60
E0
C0
ENDCHAR

STARTCHAR k
ENCODING 107
SWIDTH 552 0
DWIDTH 8 0
BBX 7 10 1 0
BITMAP
C0
C0
C0
CE
DC
F8
F0
F8
DC
CE
ENDCHAR

STARTCHAR l
ENCODING 108
SWIDTH 271 0
DWIDTH 4 0
BBX 2 10 1 0
BITMAP
C0
C0
C0
C0
C0
C0
C0
C0
C0
C0
ENDCHAR

STARTCHAR m
ENCODING 109
SWIDTH 958 0
DWIDTH 13 0
BBX 12 7 1 0
BITMAP
FDE0
C730
C630
C630
C630
C630
C630
ENDCHAR

STARTCHAR n
ENCODING 110
SWIDTH 583 0
DWIDTH 8 0
BBX 6 7 1 0
BITMAP
F8
CC
CC
CC
CC
CC
CC
ENDCHAR

STARTCHAR o
ENCODING 111
SWIDTH 594 0
DWIDTH 8 0
BBX 7 7 1 0
BITMAP
38
44
C6
C6
C6
44
38
ENDCHAR

STARTCHAR p
ENCODING 112
SWIDTH 583 0
DWIDTH 8 0
BBX 7 10 1 -3
BITMAP
FC
CC
C6
C6
C6
CC
FC
C0
C0
C0
ENDCHAR

STARTCHAR q
ENCODING 113
SWIDTH 583 0
DWIDTH 8 0
BBX 7 10 0 -3
BITMAP
7E
66
C6
C6
C6
E6
7E
06
06
06
ENDCHAR

STARTCHAR r
ENCODING 114
SWIDTH 448 0
DWIDTH 6 0
BBX 5 7 1 0
BITMAP
D8
E0
C0
C0
C0
C0
C0
ENDCHAR

STARTCHAR s
ENCODING 115
SWIDTH 427 0
DWIDTH 6 0
BBX 5 7 1 0
BITMAP
78
C8
E0
70
38
98
F0
ENDCHAR

STARTCHAR t
ENCODING 116
SWIDTH 406 0
DWIDTH 6 0
BBX 5 9 0 0
BITMAP
20
60
F8
60
60
60
60
60
38
ENDCHAR

STARTCHAR u
ENCODING 117
SWIDTH 583 0
DWIDTH 8 0
BBX 6 7 1 0
BITMAP
CC
CC
CC
CC
CC
CC
7C
ENDCHAR

STARTCHAR v
ENCODING 118
SWIDTH 510 0
DWIDTH 7 0
BBX 7 7 0 0
BITMAP
C6
6C
6C
3C
38
38
10
ENDCHAR

STARTCHAR w
ENCODING 119
SWIDTH 781 0
DWIDTH 11 0
BBX 11 7 0 0
BITMAP
C460
6EC0
6EC0
7B80
3B80
3380
1100
ENDCHAR

STARTCHAR x
ENCODING 120
SWIDTH 552 0
DWIDTH 8 0
BBX 8 7 0 0
BITMAP
E7
7E
3C
18
3C
6E
E7
ENDCHAR

STARTCHAR y
ENCODING 121
SWIDTH 510 0
DWIDTH 7 0
BBX 7 10 0 -3
BITMAP
C6
6C
6C
3C
38
38
30
30
60
60
ENDCHAR

STARTCHAR z
ENCODING 122
SWIDTH 521 0
DWIDTH 7 0
BBX 7 7 0 0
BITMAP
FC
1C
18
30
30
60
FE
ENDCHAR

STARTCHAR braceleft
ENCODING 123
SWIDTH 385 0
DWIDTH 5 0
BBX 5 13 0 -3
BITMAP
18
30
30
30
30
30
20
F0
30
30
30
30
18
ENDCHAR

STARTCHAR bar
ENCODING 124
SWIDTH 281 0
DWIDTH 4 0
BBX 2 13 1 -3
BITMAP
C0
C0
C0
C0
C0
C0
C0
C0
C0
C0
C0
C0
C0
ENDCHAR

STARTCHAR braceright
ENCODING 125
SWIDTH 385 0
DWIDTH 5 0
BBX 5 13 0 -3
BITMAP
C0
60
60
60
60
60
20
78
60
60
60
60
C0
ENDCHAR

STARTCHAR asciitilde
ENCODING 126
SWIDTH 584 0
DWIDTH 8 0
BBX 7 2 1 5
BITMAP
F2
9E
ENDCHAR

STARTCHAR exclamdown
ENCODING 161
SWIDTH 271 0
DWIDTH 4 0
BBX 2 10 1 -3
BITMAP
C0
00
00
40
C0
C0
C0
C0
C0
C0
ENDCHAR

STARTCHAR cent
ENCODING 162
SWIDTH 500 0
DWIDTH 7 0
BBX 6 13 1 -3
BITMAP
04
0C
0C
3C
68
C8
D8
D0
D0
7C
20
60
40
ENDCHAR

STARTCHAR sterling
ENCODING 163
SWIDTH 521 0
DWIDTH 7 0
BBX 7 10 0 0
BITMAP
0E
18
18
30
30
30
F8
60
60
FE
ENDCHAR

STARTCHAR currency
ENCODING 164
SWIDTH 552 0
DWIDTH 8 0
BBX 8 8 0 1
BITMAP
42
FF
66
66
66
66
FF
42
ENDCHAR

STARTCHAR yen
ENCODING 165
SWIDTH 552 0
DWIDTH 8 0
BBX 8 10 0 0
BITMAP
C3
66
66
3C
FF
18
18
FF
18
18
ENDCHAR

STARTCHAR brokenbar
ENCODING 166
SWIDTH 281 0
DWIDTH 4 0
BBX 2 13 1 -3
BITMAP
C0
C0
C0
C0
C0
00
00
C0
C0
C0
C0
C0
C0
ENDCHAR

STARTCHAR section
ENCODING 167
SWIDTH 521 0
DWIDTH 7 0
BBX 8 13 0 -3
BITMAP
3E
60
70
38
5E
C7
C3
E3
7A
1C
0E
06
7C
ENDCHAR

STARTCHAR dieresis
ENCODING 168
SWIDTH 333 0
DWIDTH 5 0
BBX 5 2 0 8
BITMAP
D8
D8
ENDCHAR

STARTCHAR copyright
ENCODING 169
SWIDTH 740 0
DWIDTH 10 0
BBX 10 10 0 0
BITMAP
1E00
6180
4E80
9140
9040
9040
9140
4E80
6180
1E00
ENDCHAR

STARTCHAR ordfeminine
ENCODING 170
SWIDTH 354 0
DWIDTH 5 0
BBX 5 4 0 6
BITMAP
F0
B0
F0
F8
ENDCHAR

STARTCHAR guillemotleft
ENCODING 171
SWIDTH 594 0
DWIDTH 8 0
BBX 7 7 1 0
BITMAP
D8
6C
7E
36
7E
6C
D8
ENDCHAR

STARTCHAR logicalnot
ENCODING 172
SWIDTH 584 0
DWIDTH 8 0
BBX 7 5 1 2
BITMAP
FE
FE
06
06
06
ENDCHAR

STARTCHAR hyphen
ENCODING 173
SWIDTH 333 0
DWIDTH 5 0
BBX 4 1 0 2
BITMAP
F0
ENDCHAR

STARTCHAR registered
ENCODING 174
SWIDTH 740 0
DWIDTH 10 0
BBX 10 10 0 0
BITMAP
1E00
6180
5E80
9240
9E40
9440
9640
5280
6180
1E00
ENDCHAR

STARTCHAR macron
ENCODING 175
SWIDTH 333 0
DWIDTH 5 0
BBX 5 1 0 9
BITMAP
F8
ENDCHAR

STARTCHAR degree
ENCODING 176
SWIDTH 396 0
DWIDTH 6 0
BBX 4 4 1 6
BITMAP
60
90
90
60
ENDCHAR

STARTCHAR plusminus
ENCODING 177
SWIDTH 584 0
DWIDTH 8 0
BBX 8 10 0 0
BITMAP
18
18
FF
FF
18
18
18
18
FF
FF
ENDCHAR

STARTCHAR twosuperior
ENCODING 178
SWIDTH 333 0
DWIDTH 5 0
BBX 3 6 -4 4
BITMAP
E0
20
20
20
40
E0
ENDCHAR

STARTCHAR threesuperior
ENCODING 179
SWIDTH 333 0
DWIDTH 5 0
BBX 3 6 -4 4
BITMAP
E0
20
40
20
20
E0
ENDCHAR

STARTCHAR acute
ENCODING 180
SWIDTH 333 0
DWIDTH 5 0
BBX 3 2 1 8
BITMAP
60
80
ENDCHAR

STARTCHAR mu
ENCODING 181
SWIDTH 615 0
DWIDTH 9 0
BBX 7 10 1 -3
BITMAP
C6
C6
C6
C6
C6
C6
FE
C0
C0
C0
ENDCHAR

STARTCHAR paragraph
ENCODING 182
SWIDTH 552 0
DWIDTH 8 0
BBX 8 13 0 -3
BITMAP
7F
F6
F6
F6
76
36
36
36
36
36
36
36
36
ENDCHAR

STARTCHAR periodcentered
ENCODING 183
SWIDTH 271 0
DWIDTH 4 0
BBX 2 2 1 3
BITMAP
C0
C0
ENDCHAR

STARTCHAR cedilla
ENCODING 184
SWIDTH 333 0
DWIDTH 5 0
BBX 4 3 1 -3
BITMAP
60
30
F0
ENDCHAR

STARTCHAR onesuperior
ENCODING 185
SWIDTH 333 0
DWIDTH 5 0
BBX 1 6 -5 4
BITMAP
80
80
80
80
80
80
ENDCHAR

STARTCHAR ordmasculine
ENCODING 186
SWIDTH 396 0
DWIDTH 6 0
BBX 5 4 0 6
BITMAP
70
D8
D8
70
ENDCHAR

STARTCHAR guillemotright
ENCODING 187
SWIDTH 594 0
DWIDTH 8 0
BBX 7 7 1 0
BITMAP
36
6C
FC
D8
FC
6C
36
ENDCHAR

STARTCHAR onequarter
ENCODING 188
SWIDTH 896 0
DWIDTH 12 0
BBX 10 10 4 0
BITMAP
8300
8200
8600
8C00
8840
9040
30C0
2140
41C0
C040
ENDCHAR

STARTCHAR onehalf
ENCODING 189
SWIDTH 896 0
DWIDTH 12 0
BBX 10 10 4 0
BITMAP
8300
8200
8600
8C00
89C0
9040
3040
2040
4080
C1C0
ENDCHAR

STARTCHAR threequarters
ENCODING 190
SWIDTH 896 0
DWIDTH 12 0
BBX 11 10 5 0
BITMAP
E180
2100
4300
2600
2420
E820
1860
10A0
20E0
6020
ENDCHAR

STARTCHAR questiondown
ENCODING 191
SWIDTH 375 0
DWIDTH 5 0
BBX 3 10 1 -3
BITMAP
60
00
00
20
20
60
E0
C0
E0
60
ENDCHAR

STARTCHAR Agrave
ENCODING 192
SWIDTH 781 0
DWIDTH 11 0
BBX 11 13 0 0
BITMAP
1800
0400
0000
0E00
1E00
1A00
1B00
3300
3180
3180
7FC0
60C0
E0E0
ENDCHAR

STARTCHAR Aacute
ENCODING 193
SWIDTH 781 0
DWIDTH 11 0
BBX 11 13 0 0
BITMAP
0600
0800
0000
0E00
1E00
1A00
1B00
3300
3180
3180
7FC0
60C0
E0E0
ENDCHAR

STARTCHAR Acircumflex
ENCODING 194
SWIDTH 781 0
DWIDTH 11 0
BBX 11 13 0 0
BITMAP
0E00
1B00
0000
0E00
1E00
1A00
1B00
3300
3180
3180
7FC0
60C0
E0E0
ENDCHAR

STARTCHAR Atilde
ENCODING 195
SWIDTH 781 0
DWIDTH 11 0
BBX 11 12 0 0
BITMAP
1F00
0000
0E00
1E00
1A00
1B00
3300
3180
3180
7FC0
60C0
E0E0
ENDCHAR

STARTCHAR Adieresis
ENCODING 196
SWIDTH 781 0
DWIDTH 11 0
BBX 11 13 0 0
BITMAP
1B00
1B00
0000
0E00
1E00
1A00
1B00
3300
3180
3180
7FC0
60C0
E0E0
ENDCHAR

STARTCHAR Aring
ENCODING 197
SWIDTH 781 0
DWIDTH 11 0
BBX 11 14 0 0
BITMAP
0E00
0A00
0E00
0000
0E00
1E00
1A00
1B00
3300
3180
3180
7FC0
60C0
E0E0
ENDCHAR

STARTCHAR AE
ENCODING 198
SWIDTH 1073 0
DWIDTH 15 0
BBX 13 11 1 0
BITMAP
0100
07F8
0580
0D80
0D80
1FF8
1980
3180
3180
7180
E1F8
ENDCHAR

STARTCHAR Ccedilla
ENCODING 199
SWIDTH 771 0
DWIDTH 11 0
BBX 9 13 1 -3
BITMAP
1F80
3080
6000
C000
C000
C000
C000
6000
7080
1F80
0C00
0600
1E00
ENDCHAR

STARTCHAR Egrave
ENCODING 200
SWIDTH 635 0
DWIDTH 9 0
BBX 6 13 2 0
BITMAP
60
10
00
FC
C0
C0
C0
FC
C0
C0
C0
C0
FC
ENDCHAR

STARTCHAR Eacute
ENCODING 201
SWIDTH 635 0
DWIDTH 9 0
BBX 6 13 2 0
BITMAP
18
20
00
FC
C0
C0
C0
FC
C0
C0
C0
C0
FC
ENDCHAR

STARTCHAR Ecircumflex
ENCODING 202
SWIDTH 635 0
DWIDTH 9 0
BBX 6 13 2 0
BITMAP
70
D8
00
FC
C0
C0
C0
FC
C0
C0
C0
C0
FC
ENDCHAR

STARTCHAR Edieresis
ENCODING 203
SWIDTH 635 0
DWIDTH 9 0
BBX 6 13 2 0
BITMAP
D8
D8
00
FC
C0
C0
C0
FC
C0
C0
C0
C0
FC
ENDCHAR

STARTCHAR Igrave
ENCODING 204
SWIDTH 333 0
DWIDTH 5 0
BBX 3 13 2 0
BITMAP
C0
20
00
60
60
60
60
60
60
60
60
60
60
ENDCHAR

STARTCHAR Iacute
ENCODING 205
SWIDTH 333 0
DWIDTH 5 0
BBX 3 13 1 0
BITMAP
60
80
00
C0
C0
C0
C0
C0
C0
C0
C0
C0
C0
ENDCHAR

STARTCHAR Icircumflex
ENCODING 206
SWIDTH 333 0
DWIDTH 5 0
BBX 5 13 3 0
BITMAP
70
D8
00
30
30
30
30
30
30
30
30
30
30
ENDCHAR

STARTCHAR Idieresis
ENCODING 207
SWIDTH 333 0
DWIDTH 5 0
BBX 5 13 3 0
BITMAP
D8
D8
00
30
30
30
30
30
30
30
30
30
30
ENDCHAR

STARTCHAR Eth
ENCODING 208
SWIDTH 802 0
DWIDTH 11 0
BBX 10 10 0 0
BITMAP
7E00
6180
6080
60C0
F8C0
60C0
60C0
6180
6380
7E00
ENDCHAR

STARTCHAR Ntilde
ENCODING 209
SWIDTH 844 0
DWIDTH 12 0
BBX 9 12 1 0
BITMAP
3E00
0000
C180
E180
F180
F980
D980
CD80
C780
C780
C380
C180
ENDCHAR

STARTCHAR Ograve
ENCODING 210
SWIDTH 875 0
DWIDTH 12 0
BBX 10 13 1 0
BITMAP
1800
0400
0000
1E00
6180
6180
C0C0
C0C0
C0C0
C0C0
6180
6180
1E00
ENDCHAR

STARTCHAR Oacute
ENCODING 211
SWIDTH 875 0
DWIDTH 12 0
BBX 10 13 1 0
BITMAP
0600
0800
0000
1E00
6180
6180
C0C0
C0C0
C0C0
C0C0
6180
6180
1E00
ENDCHAR

STARTCHAR Ocircumflex
ENCODING 212
SWIDTH 875 0
DWIDTH 12 0
BBX 10 13 1 0
BITMAP
1C00
3600
0000
1E00
6180
6180
C0C0
C0C0
C0C0
C0C0
6180
6180
1E00
ENDCHAR

STARTCHAR Otilde
ENCODING 213
SWIDTH 875 0
DWIDTH 12 0
BBX 10 12 1 0
BITMAP
1F00
0000
1E00
6180
6180
C0C0
C0C0
C0C0
C0C0
6180
6180
1E00
ENDCHAR

STARTCHAR Odieresis
ENCODING 214
SWIDTH 875 0
DWIDTH 12 0
BBX 10 13 1 0
BITMAP
3600
3600
0000
1E00
6180
6180
C0C0
C0C0
C0C0
C0C0
6180
6180
1E00
ENDCHAR

STARTCHAR multiply
ENCODING 215
SWIDTH 584 0
DWIDTH 8 0
BBX 7 7 1 2
BITMAP
44
EE
7C
38
7C
EE
44
ENDCHAR

STARTCHAR Oslash
ENCODING 216
SWIDTH 875 0
DWIDTH 12 0
BBX 11 10 1 0
BITMAP
1E60
61E0
61C0
C3C0
C6C0
CCC0
D8C0
7180
E180
DE00
ENDCHAR

STARTCHAR Ugrave
ENCODING 217
SWIDTH 823 0
DWIDTH 12 0
BBX 9 13 1 0
BITMAP
3000
0800
0000
C180
C180
C180
C180
C180
C180
C180
C180
6300
3E00
ENDCHAR

STARTCHAR Uacute
ENCODING 218
SWIDTH 823 0
DWIDTH 12 0
BBX 9 13 1 0
BITMAP
0600
0800
0000
C180
C180
C180
C180
C180
C180
C180
C180
6300
3E00
ENDCHAR

STARTCHAR Ucircumflex
ENCODING 219
SWIDTH 823 0
DWIDTH 12 0
BBX 9 13 1 0
BITMAP
1C00
3600
0000
C180
C180
C180
C180
C180
C180
C180
C180
6300
3E00
ENDCHAR

STARTCHAR Udieresis
ENCODING 220
SWIDTH 823 0
DWIDTH 12 0
BBX 9 13 1 0
BITMAP
3600
3600
0000
C180
C180
C180
C180
C180
C180
C180
C180
6300
3E00
ENDCHAR

STARTCHAR Yacute
ENCODING 221
SWIDTH 708 0
DWIDTH 10 0
BBX 10 13 0 0
BITMAP
0600
0800
0000
E1C0
7380
3300
1E00
0C00
0C00
0C00
0C00
0C00
0C00
ENDCHAR

STARTCHAR Thorn
ENCODING 222
SWIDTH 656 0
DWIDTH 9 0
BBX 7 10 1 0
BITMAP
C0
C0
C0
FC
C6
C6
C6
FC
C0
C0
ENDCHAR

STARTCHAR germandbls
ENCODING 223
SWIDTH 604 0
DWIDTH 8 0
BBX 7 10 1 0
BITMAP
7C
C6
C6
DE
CC
C6
C6
C6
CE
DC
ENDCHAR

STARTCHAR agrave
ENCODING 224
SWIDTH 531 0
DWIDTH 7 0
BBX 7 10 0 0
BITMAP
60
10
00
F8
8C
1C
7C
CC
CC
7E
ENDCHAR

STARTCHAR aacute
ENCODING 225
SWIDTH 531 0
DWIDTH 7 0
BBX 7 10 0 0
BITMAP
18
20
00
F8
8C
1C
7C
CC
CC
7E
ENDCHAR

STARTCHAR acircumflex
ENCODING 226
SWIDTH 531 0
DWIDTH 7 0
BBX 7 10 0 0
BITMAP
38
6C
00
F8
8C
1C
7C
CC
CC
7E
ENDCHAR

STARTCHAR atilde
ENCODING 227
SWIDTH 531 0
DWIDTH 7 0
BBX 7 9 0 0
BITMAP
7C
00
F8
8C
1C
7C
CC
CC
7E
ENDCHAR

STARTCHAR adieresis
ENCODING 228
SWIDTH 531 0
DWIDTH 7 0
BBX 7 10 0 0
BITMAP
6C
6C
00
F8
8C
1C
7C
CC
CC
7E
ENDCHAR

STARTCHAR aring
ENCODING 229
SWIDTH 531 0
DWIDTH 7 0
BBX 7 11 0 0
BITMAP
38
28
38
00
F8
8C
1C
7C
CC
CC
7E
ENDCHAR

STARTCHAR ae
ENCODING 230
SWIDTH 781 0
DWIDTH 11 0
BBX 10 7 0 0
BITMAP
F780
8C80
1CC0
7FC0
CC00
CC40
7780
ENDCHAR

STARTCHAR ccedilla
ENCODING 231
SWIDTH 500 0
DWIDTH 7 0
BBX 6 10 1 -3
BITMAP
3C
64
C0
C0
C0
64
3C
30
18
78
ENDCHAR

STARTCHAR egrave
ENCODING 232
SWIDTH 552 0
DWIDTH 8 0
BBX 7 10 0 0
BITMAP
60
10
00
38
44
C6
FE
C0
62
3C
ENDCHAR

STARTCHAR eacute
ENCODING 233
SWIDTH 552 0
DWIDTH 8 0
BBX 7 10 0 0
BITMAP
0C
10
00
38
44
C6
FE
C0
62
3C
ENDCHAR

STARTCHAR ecircumflex
ENCODING 234
SWIDTH 552 0
DWIDTH 8 0
BBX 7 10 0 0
BITMAP
38
6C
00
38
44
C6
FE
C0
62
3C
ENDCHAR

STARTCHAR edieresis
ENCODING 235
SWIDTH 552 0
DWIDTH 8 0
BBX 7 10 0 0
BITMAP
6C
6C
00
38
44
C6
FE
C0
62
3C
ENDCHAR

STARTCHAR igrave
ENCODING 236
SWIDTH 271 0
DWIDTH 4 0
BBX 3 10 2 0
BITMAP
C0
20
00
60
60
60
60
60
60
60
ENDCHAR

STARTCHAR iacute
ENCODING 237
SWIDTH 271 0
DWIDTH 4 0
BBX 3 10 1 0
BITMAP
60
80
00
C0
C0
C0
C0
C0
C0
C0
ENDCHAR

STARTCHAR icircumflex
ENCODING 238
SWIDTH 271 0
DWIDTH 4 0
BBX 5 10 3 0
BITMAP
70
D8
00
30
30
30
30
30
30
30
ENDCHAR

STARTCHAR idieresis
ENCODING 239
SWIDTH 271 0
DWIDTH 4 0
BBX 5 10 3 0
BITMAP
D8
D8
00
30
30
30
30
30
30
30
ENDCHAR

STARTCHAR eth
ENCODING 240
SWIDTH 615 0
DWIDTH 9 0
BBX 7 10 1 0
BITMAP
3C
78
0C
7C
46
C6
C6
C6
4C
38
ENDCHAR

STARTCHAR ntilde
ENCODING 241
SWIDTH 583 0
DWIDTH 8 0
BBX 6 9 1 0
BITMAP
7C
00
F8
CC
CC
CC
CC
CC
CC
ENDCHAR

STARTCHAR ograve
ENCODING 242
SWIDTH 594 0
DWIDTH 8 0
BBX 7 10 1 0
BITMAP
60
10
00
38
44
C6
C6
C6
44
38
ENDCHAR

STARTCHAR oacute
ENCODING 243
SWIDTH 594 0
DWIDTH 8 0
BBX 7 10 1 0
BITMAP
0C
10
00
38
44
C6
C6
C6
44
38
ENDCHAR

STARTCHAR ocircumflex
ENCODING 244
SWIDTH 594 0
DWIDTH 8 0
BBX 7 10 1 0
BITMAP
38
6C
00
38
44
C6
C6
C6
44
38
ENDCHAR

STARTCHAR otilde
ENCODING 245
SWIDTH 594 0
DWIDTH 8 0
BBX 7 9 1 0
BITMAP
7C
00
38
44
C6
C6
C6
44
38
ENDCHAR

STARTCHAR odieresis
ENCODING 246
SWIDTH 594 0
DWIDTH 8 0
BBX 7 10 1 0
BITMAP
6C
6C
00
38
44
C6
C6
C6
44
38
ENDCHAR

STARTCHAR divide
ENCODING 247
SWIDTH 584 0
DWIDTH 8 0
BBX 7 8 1 2
BITMAP
30
30
00
FE
FE
00
30
30
ENDCHAR

STARTCHAR oslash
ENCODING 248
SWIDTH 594 0
DWIDTH 8 0
BBX 7 7 1 0
BITMAP
3A
44
CE
D6
E6
44
B8
ENDCHAR

STARTCHAR ugrave
ENCODING 249
SWIDTH 583 0
DWIDTH 8 0
BBX 6 10 1 0
BITMAP
60
10
00
CC
CC
CC
CC
CC
CC
7C
ENDCHAR

STARTCHAR uacute
ENCODING 250
SWIDTH 583 0
DWIDTH 8 0
BBX 6 10 1 0
BITMAP
18
20
00
CC
CC
CC
CC
CC
CC
7C
ENDCHAR

STARTCHAR ucircumflex
ENCODING 251
SWIDTH 583 0
DWIDTH 8 0
BBX 6 10 1 0
BITMAP
38
6C
00
CC
CC
CC
CC
CC
CC
7C
ENDCHAR

STARTCHAR udieresis
ENCODING 252
SWIDTH 583 0
DWIDTH 8 0
BBX 6 10 1 0
BITMAP
6C
6C
00
CC
CC
CC
CC
CC
CC
7C
ENDCHAR

STARTCHAR yacute
ENCODING 253
SWIDTH 510 0
DWIDTH 7 0
BBX 7 13 0 -3
BITMAP
0C
10
00
C6
6C
6C
3C
38
38
30
30
60
60
ENDCHAR

STARTCHAR thorn
ENCODING 254
SWIDTH 583 0
DWIDTH 8 0
BBX 7 13 1 -3
BITMAP
C0
C0
C0
FC
CC
C6
C6
C6
CC
FC
C0
C0
C0
ENDCHAR

STARTCHAR ydieresis
ENCODING 255
SWIDTH 510 0
DWIDTH 7 0
BBX 7 13 0 -3
BITMAP
6C
6C
00
C6
6C
6C
3C
38
38
30
30
60
60
ENDCHAR

ENDFONT
