STARTFONT 2.1
FONT -Linotype-Helvetica-Medium-O-Narrow-Sans-14-140-72-72-P-62-ISO8859-1
SIZE 14 72 72
FONTBOUNDINGBOX 14 18 -2 -3

STARTPROPERTIES 22
FONTNAME_REGISTRY "-"
FOUNDRY "Linotype"
FAMILY_NAME "Helvetica"
WEIGHT_NAME "Medium"
SLANT "O"
SETWIDTH_NAME "Narrow"
ADD_STYLE_NAME "Sans"
SPACING "P"
CHARSET_REGISTRY "ISO8859"
CHARSET_ENCODING "1"
PIXEL_SIZE 14
POINT_SIZE 140
RESOLUTION_X 72
RESOLUTION_Y 72
AVERAGE_WIDTH 62
FULL_NAME "Helvetica-Narrow-Oblique"
WEIGHT 10
X_HEIGHT 8
QUAD_WIDTH 7
DEFAULT_CHAR 32
FONT_DESCENT 3
FONT_ASCENT 15
ENDPROPERTIES

CHARS 190

STARTCHAR space
ENCODING 32
SWIDTH 228 0
DWIDTH 3 0
BBX 1 1 0 0
BITMAP
00
ENDCHAR

STARTCHAR exclam
ENCODING 33
SWIDTH 228 0
DWIDTH 3 0
BBX 3 11 0 0
BITMAP
20
20
20
20
40
40
40
40
00
80
80
ENDCHAR

STARTCHAR quotedbl
ENCODING 34
SWIDTH 291 0
DWIDTH 4 0
BBX 3 3 1 8
BITMAP
A0
A0
A0
ENDCHAR

STARTCHAR numbersign
ENCODING 35
SWIDTH 456 0
DWIDTH 6 0
BBX 7 11 0 0
BITMAP
14
14
14
7E
28
28
28
FC
50
50
50
ENDCHAR

STARTCHAR dollar
ENCODING 36
SWIDTH 456 0
DWIDTH 6 0
BBX 6 13 0 -1
BITMAP
10
38
54
54
50
50
30
28
28
A8
A8
70
20
ENDCHAR

STARTCHAR percent
ENCODING 37
SWIDTH 729 0
DWIDTH 10 0
BBX 9 11 0 0
BITMAP
6100
9200
9200
9400
6400
0800
1300
1480
2480
2480
4300
ENDCHAR

STARTCHAR ampersand
ENCODING 38
SWIDTH 547 0
DWIDTH 8 0
BBX 7 11 0 0
BITMAP
18
24
24
28
10
30
52
8A
84
8C
72
ENDCHAR

STARTCHAR quoteright
ENCODING 39
SWIDTH 182 0
DWIDTH 3 0
BBX 2 4 0 7
BITMAP
40
40
40
80
ENDCHAR

STARTCHAR parenleft
ENCODING 40
SWIDTH 273 0
DWIDTH 4 0
BBX 4 14 0 -3
BITMAP
10
20
20
40
40
80
80
80
80
80
80
80
40
40
ENDCHAR

STARTCHAR parenright
ENCODING 41
SWIDTH 273 0
DWIDTH 4 0
BBX 4 14 -1 -3
BITMAP
20
20
10
10
10
10
10
10
10
20
20
40
40
80
ENDCHAR

STARTCHAR asterisk
ENCODING 42
SWIDTH 319 0
DWIDTH 4 0
BBX 3 4 1 6
BITMAP
40
E0
40
A0
ENDCHAR

STARTCHAR plus
ENCODING 43
SWIDTH 479 0
DWIDTH 7 0
BBX 5 7 1 0
BITMAP
20
20
20
F8
20
20
20
ENDCHAR

STARTCHAR comma
ENCODING 44
SWIDTH 228 0
DWIDTH 3 0
BBX 2 4 0 -2
BITMAP
40
40
40
80
ENDCHAR

STARTCHAR minus
ENCODING 45
SWIDTH 479 0
DWIDTH 7 0
BBX 6 1 1 3
BITMAP
FC
ENDCHAR

STARTCHAR period
ENCODING 46
SWIDTH 228 0
DWIDTH 3 0
BBX 1 2 1 0
BITMAP
80
80
ENDCHAR

STARTCHAR slash
ENCODING 47
SWIDTH 228 0
DWIDTH 3 0
BBX 5 11 0 0
BITMAP
08
08
10
10
20
20
20
40
40
80
80
ENDCHAR

STARTCHAR zero
ENCODING 48
SWIDTH 456 0
DWIDTH 6 0
BBX 6 11 0 0
BITMAP
18
24
44
44
44
44
88
88
88
90
60
ENDCHAR

STARTCHAR one
ENCODING 49
SWIDTH 456 0
DWIDTH 6 0
BBX 3 11 2 0
BITMAP
20
20
E0
20
20
20
40
40
40
40
40
ENDCHAR

STARTCHAR two
ENCODING 50
SWIDTH 456 0
DWIDTH 6 0
BBX 6 11 0 0
BITMAP
38
44
44
04
08
10
20
40
80
80
F8
ENDCHAR

STARTCHAR three
ENCODING 51
SWIDTH 456 0
DWIDTH 6 0
BBX 6 11 0 0
BITMAP
38
44
44
08
08
30
08
08
88
90
60
ENDCHAR

STARTCHAR four
ENCODING 52
SWIDTH 456 0
DWIDTH 6 0
BBX 6 11 0 0
BITMAP
04
0C
14
24
28
48
88
FC
10
10
10
ENDCHAR

STARTCHAR five
ENCODING 53
SWIDTH 456 0
DWIDTH 6 0
BBX 6 11 0 0
BITMAP
3C
20
20
40
70
48
08
08
88
90
60
ENDCHAR

STARTCHAR six
ENCODING 54
SWIDTH 456 0
DWIDTH 6 0
BBX 6 11 0 0
BITMAP
18
24
44
40
50
68
88
88
88
90
70
ENDCHAR

STARTCHAR seven
ENCODING 55
SWIDTH 456 0
DWIDTH 6 0
BBX 6 11 0 0
BITMAP
7C
08
08
10
10
20
20
40
40
80
80
ENDCHAR

STARTCHAR eight
ENCODING 56
SWIDTH 456 0
DWIDTH 6 0
BBX 6 11 0 0
BITMAP
18
24
44
44
48
30
48
88
88
88
70
ENDCHAR

STARTCHAR nine
ENCODING 57
SWIDTH 456 0
DWIDTH 6 0
BBX 6 11 0 0
BITMAP
38
24
44
44
44
48
38
08
88
90
60
ENDCHAR

STARTCHAR colon
ENCODING 58
SWIDTH 228 0
DWIDTH 3 0
BBX 2 8 1 0
BITMAP
40
40
00
00
00
00
80
80
ENDCHAR

STARTCHAR semicolon
ENCODING 59
SWIDTH 228 0
DWIDTH 3 0
BBX 3 10 0 -2
BITMAP
20
20
00
00
00
00
40
40
40
80
ENDCHAR

STARTCHAR less
ENCODING 60
SWIDTH 479 0
DWIDTH 7 0
BBX 6 7 0 0
BITMAP
04
18
60
80
60
10
08
ENDCHAR

STARTCHAR equal
ENCODING 61
SWIDTH 479 0
DWIDTH 7 0
BBX 6 4 0 2
BITMAP
FC
00
00
FC
ENDCHAR

STARTCHAR greater
ENCODING 62
SWIDTH 479 0
DWIDTH 7 0
BBX 6 7 0 0
BITMAP
40
30
08
04
18
60
80
ENDCHAR

STARTCHAR question
ENCODING 63
SWIDTH 456 0
DWIDTH 6 0
BBX 5 11 1 0
BITMAP
70
88
88
08
10
20
40
40
00
80
80
ENDCHAR

STARTCHAR at
ENCODING 64
SWIDTH 832 0
DWIDTH 12 0
BBX 11 14 0 -3
BITMAP
0780
0840
1020
26A0
4920
5120
9120
A220
A240
A640
9980
4000
4200
3C00
ENDCHAR

STARTCHAR A
ENCODING 65
SWIDTH 547 0
DWIDTH 8 0
BBX 7 11 0 0
BITMAP
08
08
08
14
14
24
24
7C
42
82
82
ENDCHAR

STARTCHAR B
ENCODING 66
SWIDTH 547 0
DWIDTH 8 0
BBX 7 11 0 0
BITMAP
7C
42
42
42
44
7C
82
82
82
84
F8
ENDCHAR

STARTCHAR C
ENCODING 67
SWIDTH 592 0
DWIDTH 8 0
BBX 7 11 0 0
BITMAP
1C
22
42
40
80
80
80
84
84
88
70
ENDCHAR

STARTCHAR D
ENCODING 68
SWIDTH 592 0
DWIDTH 8 0
BBX 7 11 0 0
BITMAP
78
44
42
42
42
42
82
84
84
88
F0
ENDCHAR

STARTCHAR E
ENCODING 69
SWIDTH 547 0
DWIDTH 8 0
BBX 7 11 0 0
BITMAP
7E
40
40
40
40
7C
80
80
80
80
FC
ENDCHAR

STARTCHAR F
ENCODING 70
SWIDTH 501 0
DWIDTH 7 0
BBX 6 11 0 0
BITMAP
7C
40
40
40
40
78
80
80
80
80
80
ENDCHAR

STARTCHAR G
ENCODING 71
SWIDTH 638 0
DWIDTH 9 0
BBX 8 11 0 0
BITMAP
1E
21
41
40
80
8F
81
81
82
46
3A
ENDCHAR

STARTCHAR H
ENCODING 72
SWIDTH 592 0
DWIDTH 8 0
BBX 7 11 0 0
BITMAP
42
42
42
42
42
7C
84
84
84
84
84
ENDCHAR

STARTCHAR I
ENCODING 73
SWIDTH 228 0
DWIDTH 3 0
BBX 2 11 0 0
BITMAP
40
40
40
40
40
40
80
80
80
80
80
ENDCHAR

STARTCHAR J
ENCODING 74
SWIDTH 410 0
DWIDTH 6 0
BBX 5 11 0 0
BITMAP
08
08
08
08
08
10
10
10
90
90
60
ENDCHAR

STARTCHAR K
ENCODING 75
SWIDTH 547 0
DWIDTH 8 0
BBX 8 11 0 0
BITMAP
41
42
44
48
50
70
88
88
84
84
82
ENDCHAR

STARTCHAR L
ENCODING 76
SWIDTH 456 0
DWIDTH 6 0
BBX 5 11 0 0
BITMAP
40
40
40
40
40
40
80
80
80
80
F8
ENDCHAR

STARTCHAR M
ENCODING 77
SWIDTH 683 0
DWIDTH 10 0
BBX 9 11 0 0
BITMAP
4080
4080
4180
6180
6280
A500
A500
9500
9900
9900
9100
ENDCHAR

STARTCHAR N
ENCODING 78
SWIDTH 592 0
DWIDTH 8 0
BBX 7 11 0 0
BITMAP
42
42
62
62
52
54
94
8C
84
84
84
ENDCHAR

STARTCHAR O
ENCODING 79
SWIDTH 638 0
DWIDTH 9 0
BBX 8 11 0 0
BITMAP
1E
22
41
41
81
81
81
82
82
44
78
ENDCHAR

STARTCHAR P
ENCODING 80
SWIDTH 547 0
DWIDTH 8 0
BBX 7 11 0 0
BITMAP
7C
42
42
42
44
7C
80
80
80
80
80
ENDCHAR

STARTCHAR Q
ENCODING 81
SWIDTH 638 0
DWIDTH 9 0
BBX 8 11 0 0
BITMAP
1E
22
41
41
81
81
81
8A
84
46
79
ENDCHAR

STARTCHAR R
ENCODING 82
SWIDTH 592 0
DWIDTH 8 0
BBX 7 11 0 0
BITMAP
7C
42
42
42
44
78
88
84
84
84
84
ENDCHAR

STARTCHAR S
ENCODING 83
SWIDTH 547 0
DWIDTH 8 0
BBX 7 11 0 0
BITMAP
1C
22
42
40
60
18
04
04
84
88
70
ENDCHAR

STARTCHAR T
ENCODING 84
SWIDTH 501 0
DWIDTH 7 0
BBX 7 11 0 0
BITMAP
FE
10
10
10
10
10
20
20
20
20
20
ENDCHAR

STARTCHAR U
ENCODING 85
SWIDTH 592 0
DWIDTH 8 0
BBX 7 11 0 0
BITMAP
42
42
42
42
42
42
84
84
84
84
78
ENDCHAR

STARTCHAR V
ENCODING 86
SWIDTH 547 0
DWIDTH 8 0
BBX 7 11 1 0
BITMAP
82
82
84
84
48
48
48
50
30
20
20
ENDCHAR

STARTCHAR W
ENCODING 87
SWIDTH 774 0
DWIDTH 11 0
BBX 11 11 0 0
BITMAP
8420
8420
8440
8C40
4A40
5280
5280
6280
6100
4100
4100
ENDCHAR

STARTCHAR X
ENCODING 88
SWIDTH 547 0
DWIDTH 8 0
BBX 7 11 0 0
BITMAP
42
24
24
18
10
18
28
24
44
42
82
ENDCHAR

STARTCHAR Y
ENCODING 89
SWIDTH 547 0
DWIDTH 8 0
BBX 7 11 1 0
BITMAP
82
84
48
48
50
20
20
20
40
40
40
ENDCHAR

STARTCHAR Z
ENCODING 90
SWIDTH 501 0
DWIDTH 7 0
BBX 6 11 0 0
BITMAP
7C
04
08
08
10
10
20
40
40
80
FC
ENDCHAR

STARTCHAR bracketleft
ENCODING 91
SWIDTH 228 0
DWIDTH 3 0
BBX 4 14 0 -3
BITMAP
30
20
20
20
40
40
40
40
40
80
80
80
80
C0
ENDCHAR

STARTCHAR backslash
ENCODING 92
SWIDTH 228 0
DWIDTH 3 0
BBX 2 11 0 0
BITMAP
80
80
80
80
80
80
40
40
40
40
40
ENDCHAR

STARTCHAR bracketright
ENCODING 93
SWIDTH 228 0
DWIDTH 3 0
BBX 4 14 0 -3
BITMAP
30
10
10
10
10
20
20
20
20
20
40
40
40
C0
ENDCHAR

STARTCHAR asciicircum
ENCODING 94
SWIDTH 385 0
DWIDTH 5 0
BBX 4 6 1 5
BITMAP
30
30
50
50
90
90
ENDCHAR

STARTCHAR underscore
ENCODING 95
SWIDTH 456 0
DWIDTH 6 0
BBX 6 1 0 -3
BITMAP
FC
ENDCHAR

STARTCHAR quoteleft
ENCODING 96
SWIDTH 182 0
DWIDTH 3 0
BBX 2 4 2 7
BITMAP
40
80
80
80
ENDCHAR

STARTCHAR a
ENCODING 97
SWIDTH 456 0
DWIDTH 6 0
BBX 5 8 0 0
BITMAP
30
48
08
38
48
90
90
E8
ENDCHAR

STARTCHAR b
ENCODING 98
SWIDTH 456 0
DWIDTH 6 0
BBX 5 11 0 0
BITMAP
20
20
20
30
48
48
48
88
90
D0
A0
ENDCHAR

STARTCHAR c
ENCODING 99
SWIDTH 410 0
DWIDTH 6 0
BBX 5 8 0 0
BITMAP
30
48
48
80
80
88
90
60
ENDCHAR

STARTCHAR d
ENCODING 100
SWIDTH 456 0
DWIDTH 6 0
BBX 6 11 0 0
BITMAP
04
04
04
38
48
48
88
88
90
B0
50
ENDCHAR

STARTCHAR e
ENCODING 101
SWIDTH 456 0
DWIDTH 6 0
BBX 5 8 0 0
BITMAP
30
48
48
F8
80
88
90
60
ENDCHAR

STARTCHAR f
ENCODING 102
SWIDTH 228 0
DWIDTH 3 0
BBX 4 11 0 0
BITMAP
30
20
40
E0
40
40
40
80
80
80
80
ENDCHAR

STARTCHAR g
ENCODING 103
SWIDTH 456 0
DWIDTH 6 0
BBX 5 11 0 -3
BITMAP
38
48
48
88
90
90
90
70
10
A0
C0
ENDCHAR

STARTCHAR h
ENCODING 104
SWIDTH 456 0
DWIDTH 6 0
BBX 5 11 0 0
BITMAP
20
20
20
30
48
48
48
90
90
90
90
ENDCHAR

STARTCHAR i
ENCODING 105
SWIDTH 182 0
DWIDTH 3 0
BBX 3 11 0 0
BITMAP
20
20
00
40
40
40
40
80
80
80
80
ENDCHAR

STARTCHAR j
ENCODING 106
SWIDTH 182 0
DWIDTH 3 0
BBX 4 14 -1 -3
BITMAP
10
10
00
20
20
20
20
20
40
40
40
40
40
80
ENDCHAR

STARTCHAR k
ENCODING 107
SWIDTH 410 0
DWIDTH 6 0
BBX 6 11 0 0
BITMAP
20
20
20
44
48
50
70
90
90
88
88
ENDCHAR

STARTCHAR l
ENCODING 108
SWIDTH 182 0
DWIDTH 3 0
BBX 3 11 0 0
BITMAP
20
20
20
40
40
40
40
80
80
80
80
ENDCHAR

STARTCHAR m
ENCODING 109
SWIDTH 683 0
DWIDTH 9 0
BBX 8 8 0 0
BITMAP
5B
6D
49
49
49
92
92
92
ENDCHAR

STARTCHAR n
ENCODING 110
SWIDTH 456 0
DWIDTH 6 0
BBX 5 8 0 0
BITMAP
58
68
48
48
48
90
90
90
ENDCHAR

STARTCHAR o
ENCODING 111
SWIDTH 456 0
DWIDTH 6 0
BBX 5 8 0 0
BITMAP
30
48
48
88
88
90
90
60
ENDCHAR

STARTCHAR p
ENCODING 112
SWIDTH 456 0
DWIDTH 6 0
BBX 6 11 -1 -3
BITMAP
38
24
24
24
44
48
48
70
80
80
80
ENDCHAR

STARTCHAR q
ENCODING 113
SWIDTH 456 0
DWIDTH 6 0
BBX 5 11 0 -3
BITMAP
38
48
48
88
90
90
B0
50
20
20
20
ENDCHAR

STARTCHAR r
ENCODING 114
SWIDTH 273 0
DWIDTH 4 0
BBX 4 8 0 0
BITMAP
50
60
40
40
80
80
80
80
ENDCHAR

STARTCHAR s
ENCODING 115
SWIDTH 410 0
DWIDTH 6 0
BBX 5 8 0 0
BITMAP
30
48
40
60
10
90
90
60
ENDCHAR

STARTCHAR t
ENCODING 116
SWIDTH 228 0
DWIDTH 3 0
BBX 4 10 0 0
BITMAP
20
20
F0
40
40
40
80
80
80
C0
ENDCHAR

STARTCHAR u
ENCODING 117
SWIDTH 456 0
DWIDTH 6 0
BBX 5 8 0 0
BITMAP
48
48
48
48
90
90
B0
D0
ENDCHAR

STARTCHAR v
ENCODING 118
SWIDTH 410 0
DWIDTH 6 0
BBX 5 8 0 0
BITMAP
88
88
90
90
A0
60
40
40
ENDCHAR

STARTCHAR w
ENCODING 119
SWIDTH 592 0
DWIDTH 8 0
BBX 7 8 0 0
BITMAP
92
92
92
B4
6C
48
48
48
ENDCHAR

STARTCHAR x
ENCODING 120
SWIDTH 410 0
DWIDTH 6 0
BBX 5 8 0 0
BITMAP
48
48
30
20
30
50
48
88
ENDCHAR

STARTCHAR y
ENCODING 121
SWIDTH 410 0
DWIDTH 6 0
BBX 6 11 -1 -3
BITMAP
44
44
48
28
28
30
20
20
20
40
80
ENDCHAR

STARTCHAR z
ENCODING 122
SWIDTH 410 0
DWIDTH 6 0
BBX 5 8 0 0
BITMAP
78
10
10
20
20
40
40
F8
ENDCHAR

STARTCHAR braceleft
ENCODING 123
SWIDTH 274 0
DWIDTH 4 0
BBX 4 14 0 -3
BITMAP
10
20
20
40
40
40
80
40
40
80
80
80
80
40
ENDCHAR

STARTCHAR bar
ENCODING 124
SWIDTH 213 0
DWIDTH 3 0
BBX 3 14 0 -3
BITMAP
20
20
20
20
20
40
40
40
40
40
80
80
80
80
ENDCHAR

STARTCHAR braceright
ENCODING 125
SWIDTH 274 0
DWIDTH 4 0
BBX 4 14 0 -3
BITMAP
20
10
10
10
20
20
10
20
20
20
20
40
40
80
ENDCHAR

STARTCHAR asciitilde
ENCODING 126
SWIDTH 479 0
DWIDTH 7 0
BBX 5 2 2 4
BITMAP
68
B8
ENDCHAR

STARTCHAR exclamdown
ENCODING 161
SWIDTH 273 0
DWIDTH 4 0
BBX 3 11 1 -3
BITMAP
20
20
00
40
40
40
40
80
80
80
80
ENDCHAR

STARTCHAR cent
ENCODING 162
SWIDTH 456 0
DWIDTH 6 0
BBX 5 12 0 -2
BITMAP
10
10
30
58
68
A0
A0
A8
B0
60
40
40
ENDCHAR

STARTCHAR sterling
ENCODING 163
SWIDTH 456 0
DWIDTH 6 0
BBX 6 11 0 0
BITMAP
18
24
44
40
20
78
20
20
40
80
F8
ENDCHAR

STARTCHAR currency
ENCODING 164
SWIDTH 456 0
DWIDTH 6 0
BBX 6 5 0 3
BITMAP
54
68
48
58
A8
ENDCHAR

STARTCHAR yen
ENCODING 165
SWIDTH 456 0
DWIDTH 6 0
BBX 6 11 0 0
BITMAP
44
44
28
28
30
F8
20
F8
20
20
20
ENDCHAR

STARTCHAR brokenbar
ENCODING 166
SWIDTH 213 0
DWIDTH 3 0
BBX 3 14 0 -3
BITMAP
20
20
20
40
40
40
00
00
40
40
40
80
80
80
ENDCHAR

STARTCHAR section
ENCODING 167
SWIDTH 456 0
DWIDTH 6 0
BBX 6 14 0 -3
BITMAP
1C
24
24
20
50
48
48
48
28
10
10
90
90
60
ENDCHAR

STARTCHAR dieresis
ENCODING 168
SWIDTH 273 0
DWIDTH 4 0
BBX 3 1 0 10
BITMAP
A0
ENDCHAR

STARTCHAR copyright
ENCODING 169
SWIDTH 604 0
DWIDTH 8 0
BBX 8 11 0 0
BITMAP
1C
22
4D
55
A1
A1
A5
A6
9A
44
38
ENDCHAR

STARTCHAR ordfeminine
ENCODING 170
SWIDTH 303 0
DWIDTH 4 0
BBX 4 7 0 4
BITMAP
70
10
60
A0
E0
00
E0
ENDCHAR

STARTCHAR guillemotleft
ENCODING 171
SWIDTH 456 0
DWIDTH 6 0
BBX 5 6 1 1
BITMAP
28
50
A0
A0
50
50
ENDCHAR

STARTCHAR logicalnot
ENCODING 172
SWIDTH 479 0
DWIDTH 7 0
BBX 6 4 0 1
BITMAP
FC
04
08
08
ENDCHAR

STARTCHAR hyphen
ENCODING 173
SWIDTH 273 0
DWIDTH 4 0
BBX 3 1 0 3
BITMAP
E0
ENDCHAR

STARTCHAR registered
ENCODING 174
SWIDTH 604 0
DWIDTH 8 0
BBX 8 11 0 0
BITMAP
1C
22
59
55
95
B9
A9
AA
A6
44
38
ENDCHAR

STARTCHAR macron
ENCODING 175
SWIDTH 273 0
DWIDTH 4 0
BBX 3 1 1 10
BITMAP
E0
ENDCHAR

STARTCHAR degree
ENCODING 176
SWIDTH 328 0
DWIDTH 7 0
BBX 4 5 2 6
BITMAP
60
50
90
A0
60
ENDCHAR

STARTCHAR plusminus
ENCODING 177
SWIDTH 479 0
DWIDTH 7 0
BBX 6 11 0 0
BITMAP
08
08
08
10
7C
10
20
20
20
00
F8
ENDCHAR

STARTCHAR twosuperior
ENCODING 178
SWIDTH 273 0
DWIDTH 4 0
BBX 4 6 0 5
BITMAP
70
50
10
60
80
E0
ENDCHAR

STARTCHAR threesuperior
ENCODING 179
SWIDTH 273 0
DWIDTH 4 0
BBX 4 6 0 5
BITMAP
60
10
60
10
A0
C0
ENDCHAR

STARTCHAR acute
ENCODING 180
SWIDTH 273 0
DWIDTH 4 0
BBX 2 2 1 9
BITMAP
40
80
ENDCHAR

STARTCHAR mu
ENCODING 181
SWIDTH 456 0
DWIDTH 6 0
BBX 6 11 -1 -3
BITMAP
24
24
24
24
48
48
58
68
80
80
80
ENDCHAR

STARTCHAR paragraph
ENCODING 182
SWIDTH 440 0
DWIDTH 6 0
BBX 5 14 1 -3
BITMAP
38
68
68
E8
E8
E8
E8
68
50
50
50
50
50
50
ENDCHAR

STARTCHAR periodcentered
ENCODING 183
SWIDTH 228 0
DWIDTH 6 0
BBX 1 2 3 4
BITMAP
80
80
ENDCHAR

STARTCHAR cedilla
ENCODING 184
SWIDTH 273 0
DWIDTH 4 0
BBX 3 3 0 -3
BITMAP
40
20
C0
ENDCHAR

STARTCHAR onesuperior
ENCODING 185
SWIDTH 273 0
DWIDTH 4 0
BBX 2 6 1 5
BITMAP
40
C0
40
80
80
80
ENDCHAR

STARTCHAR ordmasculine
ENCODING 186
SWIDTH 299 0
DWIDTH 4 0
BBX 4 7 0 4
BITMAP
20
50
90
A0
40
00
E0
ENDCHAR

STARTCHAR guillemotright
ENCODING 187
SWIDTH 456 0
DWIDTH 6 0
BBX 5 6 1 1
BITMAP
50
50
28
28
50
A0
ENDCHAR

STARTCHAR onequarter
ENCODING 188
SWIDTH 684 0
DWIDTH 10 0
BBX 8 11 0 0
BITMAP
44
C4
48
88
90
91
13
23
25
4F
42
ENDCHAR

STARTCHAR onehalf
ENCODING 189
SWIDTH 684 0
DWIDTH 10 0
BBX 9 11 0 0
BITMAP
4400
C400
4800
8800
9000
9180
1280
2080
2300
4400
4700
ENDCHAR

STARTCHAR threequarters
ENCODING 190
SWIDTH 684 0
DWIDTH 10 0
BBX 9 11 0 0
BITMAP
6200
1200
6400
2400
A800
C880
0980
1180
1280
2780
2100
ENDCHAR

STARTCHAR questiondown
ENCODING 191
SWIDTH 501 0
DWIDTH 7 0
BBX 5 11 1 -3
BITMAP
08
08
00
10
10
20
40
80
88
88
70
ENDCHAR

STARTCHAR Agrave
ENCODING 192
SWIDTH 547 0
DWIDTH 8 0
BBX 7 14 0 0
BITMAP
08
04
00
08
08
08
14
14
24
24
7C
42
82
82
ENDCHAR

STARTCHAR Aacute
ENCODING 193
SWIDTH 547 0
DWIDTH 8 0
BBX 7 14 0 0
BITMAP
04
08
00
08
08
08
14
14
34
24
7C
42
82
82
ENDCHAR

STARTCHAR Acircumflex
ENCODING 194
SWIDTH 547 0
DWIDTH 8 0
BBX 7 14 0 0
BITMAP
08
14
00
08
08
08
14
14
24
24
7C
42
82
82
ENDCHAR

STARTCHAR Atilde
ENCODING 195
SWIDTH 547 0
DWIDTH 8 0
BBX 7 14 0 0
BITMAP
0A
14
00
08
08
08
14
14
24
24
7C
42
82
82
ENDCHAR

STARTCHAR Adieresis
ENCODING 196
SWIDTH 547 0
DWIDTH 8 0
BBX 7 13 0 0
BITMAP
14
00
08
08
08
14
14
24
24
7C
42
82
82
ENDCHAR

STARTCHAR Aring
ENCODING 197
SWIDTH 547 0
DWIDTH 8 0
BBX 7 15 0 0
BITMAP
08
14
08
00
08
08
08
14
14
24
24
7C
42
82
82
ENDCHAR

STARTCHAR AE
ENCODING 198
SWIDTH 820 0
DWIDTH 11 0
BBX 11 11 0 0
BITMAP
07E0
0A00
0A00
1200
1200
23C0
2400
7C00
4400
8400
87C0
ENDCHAR

STARTCHAR Ccedilla
ENCODING 199
SWIDTH 592 0
DWIDTH 8 0
BBX 7 14 0 -3
BITMAP
1C
22
42
40
80
80
80
84
84
88
70
20
10
60
ENDCHAR

STARTCHAR Egrave
ENCODING 200
SWIDTH 547 0
DWIDTH 8 0
BBX 7 14 0 0
BITMAP
10
08
00
7E
40
40
40
40
7C
80
80
80
80
FC
ENDCHAR

STARTCHAR Eacute
ENCODING 201
SWIDTH 547 0
DWIDTH 8 0
BBX 7 14 0 0
BITMAP
08
10
00
7E
40
40
40
40
7C
80
80
80
80
FC
ENDCHAR

STARTCHAR Ecircumflex
ENCODING 202
SWIDTH 547 0
DWIDTH 8 0
BBX 7 14 0 0
BITMAP
08
14
00
7E
40
40
40
40
7C
80
80
80
80
FC
ENDCHAR

STARTCHAR Edieresis
ENCODING 203
SWIDTH 547 0
DWIDTH 8 0
BBX 7 13 0 0
BITMAP
14
00
7E
40
40
40
40
7C
80
80
80
80
FC
ENDCHAR

STARTCHAR Igrave
ENCODING 204
SWIDTH 228 0
DWIDTH 3 0
BBX 3 14 0 0
BITMAP
40
20
00
40
40
40
40
40
40
80
80
80
80
80
ENDCHAR

STARTCHAR Iacute
ENCODING 205
SWIDTH 228 0
DWIDTH 3 0
BBX 3 14 0 0
BITMAP
20
40
00
40
40
40
40
40
80
80
80
80
80
80
ENDCHAR

STARTCHAR Icircumflex
ENCODING 206
SWIDTH 228 0
DWIDTH 3 0
BBX 3 14 0 0
BITMAP
40
A0
00
40
40
40
40
40
40
80
80
80
80
80
ENDCHAR

STARTCHAR Idieresis
ENCODING 207
SWIDTH 228 0
DWIDTH 3 0
BBX 3 13 0 0
BITMAP
A0
00
40
40
40
40
40
40
80
80
80
80
80
ENDCHAR

STARTCHAR Eth
ENCODING 208
SWIDTH 592 0
DWIDTH 8 0
BBX 7 11 0 0
BITMAP
78
44
42
42
42
F2
42
84
84
88
F0
ENDCHAR

STARTCHAR Ntilde
ENCODING 209
SWIDTH 592 0
DWIDTH 8 0
BBX 7 14 0 0
BITMAP
0A
14
00
42
42
62
62
52
54
94
8C
84
84
84
ENDCHAR

STARTCHAR Ograve
ENCODING 210
SWIDTH 638 0
DWIDTH 9 0
BBX 8 14 0 0
BITMAP
10
08
00
1E
22
41
41
81
81
81
82
82
44
78
ENDCHAR

STARTCHAR Oacute
ENCODING 211
SWIDTH 638 0
DWIDTH 9 0
BBX 8 14 0 0
BITMAP
04
08
00
1E
22
41
41
81
81
81
82
82
44
78
ENDCHAR

STARTCHAR Ocircumflex
ENCODING 212
SWIDTH 638 0
DWIDTH 9 0
BBX 8 14 0 0
BITMAP
04
0A
00
1E
22
41
41
81
81
81
82
82
44
78
ENDCHAR

STARTCHAR Otilde
ENCODING 213
SWIDTH 638 0
DWIDTH 9 0
BBX 8 14 0 0
BITMAP
0A
14
00
1E
22
41
41
81
81
81
82
82
44
78
ENDCHAR

STARTCHAR Odieresis
ENCODING 214
SWIDTH 638 0
DWIDTH 9 0
BBX 8 13 0 0
BITMAP
14
00
1E
22
41
41
81
81
81
82
82
44
78
ENDCHAR

STARTCHAR multiply
ENCODING 215
SWIDTH 479 0
DWIDTH 7 0
BBX 6 7 1 0
BITMAP
44
48
30
30
30
48
88
ENDCHAR

STARTCHAR Oslash
ENCODING 216
SWIDTH 638 0
DWIDTH 9 0
BBX 8 11 -1 0
BITMAP
1F
22
43
45
89
89
91
A2
C2
44
F8
ENDCHAR

STARTCHAR Ugrave
ENCODING 217
SWIDTH 592 0
DWIDTH 8 0
BBX 7 14 0 0
BITMAP
10
08
00
42
42
42
42
42
42
84
84
84
84
78
ENDCHAR

STARTCHAR Uacute
ENCODING 218
SWIDTH 592 0
DWIDTH 8 0
BBX 7 14 0 0
BITMAP
08
10
00
42
42
42
42
42
42
84
84
84
84
78
ENDCHAR

STARTCHAR Ucircumflex
ENCODING 219
SWIDTH 592 0
DWIDTH 8 0
BBX 7 14 0 0
BITMAP
08
14
00
42
42
42
42
42
42
84
84
84
84
78
ENDCHAR

STARTCHAR Udieresis
ENCODING 220
SWIDTH 592 0
DWIDTH 8 0
BBX 7 13 0 0
BITMAP
14
00
42
42
42
42
42
42
84
84
84
84
78
ENDCHAR

STARTCHAR Yacute
ENCODING 221
SWIDTH 547 0
DWIDTH 8 0
BBX 7 14 1 0
BITMAP
08
10
00
82
84
48
48
50
20
20
20
40
40
40
ENDCHAR

STARTCHAR Thorn
ENCODING 222
SWIDTH 547 0
DWIDTH 8 0
BBX 7 11 0 0
BITMAP
40
40
7C
42
42
42
84
F8
80
80
80
ENDCHAR

STARTCHAR germandbls
ENCODING 223
SWIDTH 501 0
DWIDTH 7 0
BBX 6 11 0 0
BITMAP
18
24
44
44
48
50
88
84
84
88
B0
ENDCHAR

STARTCHAR agrave
ENCODING 224
SWIDTH 456 0
DWIDTH 6 0
BBX 6 11 0 0
BITMAP
10
08
00
30
48
08
38
48
90
90
EC
ENDCHAR

STARTCHAR aacute
ENCODING 225
SWIDTH 456 0
DWIDTH 6 0
BBX 5 11 0 0
BITMAP
08
10
00
30
48
08
38
48
90
90
E8
ENDCHAR

STARTCHAR acircumflex
ENCODING 226
SWIDTH 456 0
DWIDTH 6 0
BBX 5 11 0 0
BITMAP
10
28
00
30
48
08
38
48
90
90
E8
ENDCHAR

STARTCHAR atilde
ENCODING 227
SWIDTH 456 0
DWIDTH 6 0
BBX 5 11 0 0
BITMAP
28
50
00
30
48
08
38
48
90
90
E8
ENDCHAR

STARTCHAR adieresis
ENCODING 228
SWIDTH 456 0
DWIDTH 6 0
BBX 5 10 0 0
BITMAP
28
00
30
48
08
38
48
90
90
E8
ENDCHAR

STARTCHAR aring
ENCODING 229
SWIDTH 456 0
DWIDTH 6 0
BBX 5 12 0 0
BITMAP
10
28
10
00
30
48
08
38
48
90
90
E8
ENDCHAR

STARTCHAR ae
ENCODING 230
SWIDTH 729 0
DWIDTH 10 0
BBX 9 8 0 0
BITMAP
3B00
4480
0480
3F80
4800
8880
9900
E600
ENDCHAR

STARTCHAR ccedilla
ENCODING 231
SWIDTH 410 0
DWIDTH 6 0
BBX 5 11 0 -3
BITMAP
30
48
48
80
80
88
90
60
40
20
C0
ENDCHAR

STARTCHAR egrave
ENCODING 232
SWIDTH 456 0
DWIDTH 6 0
BBX 5 11 0 0
BITMAP
20
10
00
30
48
48
F8
80
88
90
60
ENDCHAR

STARTCHAR eacute
ENCODING 233
SWIDTH 456 0
DWIDTH 6 0
BBX 5 11 0 0
BITMAP
08
10
00
30
48
48
F8
80
88
90
60
ENDCHAR

STARTCHAR ecircumflex
ENCODING 234
SWIDTH 456 0
DWIDTH 6 0
BBX 5 11 0 0
BITMAP
10
28
00
30
48
48
F8
80
88
90
60
ENDCHAR

STARTCHAR edieresis
ENCODING 235
SWIDTH 456 0
DWIDTH 6 0
BBX 5 10 0 0
BITMAP
28
00
30
48
48
F8
80
88
90
60
ENDCHAR

STARTCHAR igrave
ENCODING 236
SWIDTH 228 0
DWIDTH 3 0
BBX 3 11 0 0
BITMAP
40
20
00
40
40
40
40
80
80
80
80
ENDCHAR

STARTCHAR iacute
ENCODING 237
SWIDTH 228 0
DWIDTH 3 0
BBX 3 11 0 0
BITMAP
20
40
00
40
40
40
40
80
80
80
80
ENDCHAR

STARTCHAR icircumflex
ENCODING 238
SWIDTH 228 0
DWIDTH 3 0
BBX 3 11 0 0
BITMAP
40
A0
00
40
40
40
40
80
80
80
80
ENDCHAR

STARTCHAR idieresis
ENCODING 239
SWIDTH 228 0
DWIDTH 3 0
BBX 3 10 0 0
BITMAP
A0
00
40
40
40
40
80
80
80
80
ENDCHAR

STARTCHAR eth
ENCODING 240
SWIDTH 456 0
DWIDTH 6 0
BBX 5 11 0 0
BITMAP
68
30
48
38
48
48
88
88
90
90
60
ENDCHAR

STARTCHAR ntilde
ENCODING 241
SWIDTH 456 0
DWIDTH 6 0
BBX 6 11 0 0
BITMAP
14
28
00
58
68
48
48
48
90
90
90
ENDCHAR

STARTCHAR ograve
ENCODING 242
SWIDTH 456 0
DWIDTH 6 0
BBX 5 11 0 0
BITMAP
20
10
00
30
48
48
88
88
90
90
60
ENDCHAR

STARTCHAR oacute
ENCODING 243
SWIDTH 456 0
DWIDTH 6 0
BBX 5 11 0 0
BITMAP
08
10
00
30
48
48
88
88
90
90
60
ENDCHAR

STARTCHAR ocircumflex
ENCODING 244
SWIDTH 456 0
DWIDTH 6 0
BBX 5 11 0 0
BITMAP
10
28
00
30
48
48
88
88
90
90
60
ENDCHAR

STARTCHAR otilde
ENCODING 245
SWIDTH 456 0
DWIDTH 6 0
BBX 6 11 0 0
BITMAP
14
28
00
30
48
48
88
88
90
90
60
ENDCHAR

STARTCHAR odieresis
ENCODING 246
SWIDTH 456 0
DWIDTH 6 0
BBX 5 10 0 0
BITMAP
28
00
30
48
48
88
88
90
90
60
ENDCHAR

STARTCHAR divide
ENCODING 247
SWIDTH 479 0
DWIDTH 7 0
BBX 6 7 0 0
BITMAP
10
00
00
FC
00
00
20
ENDCHAR

STARTCHAR oslash
ENCODING 248
SWIDTH 501 0
DWIDTH 6 0
BBX 5 8 0 0
BITMAP
38
58
58
A8
A8
D0
D0
E0
ENDCHAR

STARTCHAR ugrave
ENCODING 249
SWIDTH 456 0
DWIDTH 6 0
BBX 5 11 0 0
BITMAP
20
10
00
48
48
48
48
90
90
B0
D0
ENDCHAR

STARTCHAR uacute
ENCODING 250
SWIDTH 456 0
DWIDTH 6 0
BBX 5 11 0 0
BITMAP
08
10
00
48
48
48
48
90
90
B0
D0
ENDCHAR

STARTCHAR ucircumflex
ENCODING 251
SWIDTH 456 0
DWIDTH 6 0
BBX 5 11 0 0
BITMAP
10
28
00
48
48
48
48
90
90
B0
D0
ENDCHAR

STARTCHAR udieresis
ENCODING 252
SWIDTH 456 0
DWIDTH 6 0
BBX 5 10 0 0
BITMAP
28
00
48
48
48
48
90
90
B0
D0
ENDCHAR

STARTCHAR yacute
ENCODING 253
SWIDTH 410 0
DWIDTH 6 0
BBX 6 14 -1 -3
BITMAP
08
10
00
44
44
48
28
28
30
20
20
20
40
80
ENDCHAR

STARTCHAR thorn
ENCODING 254
SWIDTH 456 0
DWIDTH 5 0
BBX 6 14 -1 -3
BITMAP
20
20
20
38
24
44
44
44
48
48
70
80
80
80
ENDCHAR

STARTCHAR ydieresis
ENCODING 255
SWIDTH 410 0
DWIDTH 6 0
BBX 6 13 -1 -3
BITMAP
28
00
44
44
48
28
28
30
20
20
20
40
80
ENDCHAR

ENDFONT
