STARTFONT 2.1
FONT -B&H-Lucida Bright-DemiBold-R-Normal--10-100-72-72-P-60-ISO8859-1
SIZE 10 72 72
FONTBOUNDINGBOX 16 12 -5 -2

STARTPROPERTIES 22
FONTNAME_REGISTRY "-"
FOUNDRY "B&H"
FAMILY_NAME "Lucida Bright"
WEIGHT_NAME "DemiBold"
SLANT "R"
SETWIDTH_NAME "Normal"
ADD_STYLE_NAME ""
PIXEL_SIZE 10
POINT_SIZE 100
RESOLUTION_X 72
RESOLUTION_Y 72
SPACING "P"
CHARSET_REGISTRY "ISO8859"
CHARSET_ENCODING "1"
FULL_NAME "LucidaBright-Demi"
AVERAGE_WIDTH 60
WEIGHT 10
X_HEIGHT 5
QUAD_WIDTH 6
DEFAULT_CHAR 32
FONT_DESCENT 1
FONT_ASCENT 9
ENDPROPERTIES

CHARS 190

STARTCHAR space
ENCODING 32
SWIDTH 333 0
DWIDTH 3 0
BBX 1 1 0 0
BITMAP
00
ENDCHAR

STARTCHAR exclam
ENCODING 33
SWIDTH 265 0
DWIDTH 3 0
BBX 2 8 0 0
BITMAP
C0
C0
C0
C0
40
40
C0
C0
ENDCHAR

STARTCHAR quotedbl
ENCODING 34
SWIDTH 461 0
DWIDTH 5 0
BBX 4 3 0 5
BITMAP
F0
50
50
ENDCHAR

STARTCHAR numbersign
ENCODING 35
SWIDTH 663 0
DWIDTH 7 0
BBX 6 8 0 0
BITMAP
3C
28
28
FC
28
FC
50
50
ENDCHAR

STARTCHAR dollar
ENCODING 36
SWIDTH 623 0
DWIDTH 6 0
BBX 5 10 1 -1
BITMAP
20
78
E8
E0
60
30
38
B8
F0
20
ENDCHAR

STARTCHAR percent
ENCODING 37
SWIDTH 759 0
DWIDTH 8 0
BBX 6 8 1 0
BITMAP
E4
A8
B8
F0
3C
74
54
9C
ENDCHAR

STARTCHAR ampersand
ENCODING 38
SWIDTH 765 0
DWIDTH 8 0
BBX 8 8 0 0
BITMAP
38
6C
6C
70
DF
DA
CC
7F
ENDCHAR

STARTCHAR quoteright
ENCODING 39
SWIDTH 265 0
DWIDTH 3 0
BBX 2 4 0 4
BITMAP
C0
C0
C0
80
ENDCHAR

STARTCHAR parenleft
ENCODING 40
SWIDTH 327 0
DWIDTH 3 0
BBX 3 10 0 -2
BITMAP
20
40
40
C0
C0
C0
C0
40
40
20
ENDCHAR

STARTCHAR parenright
ENCODING 41
SWIDTH 327 0
DWIDTH 3 0
BBX 3 10 0 -2
BITMAP
80
40
40
60
60
60
60
40
40
80
ENDCHAR

STARTCHAR asterisk
ENCODING 42
SWIDTH 434 0
DWIDTH 4 0
BBX 4 3 0 4
BITMAP
40
F0
E0
ENDCHAR

STARTCHAR plus
ENCODING 43
SWIDTH 623 0
DWIDTH 6 0
BBX 7 7 0 0
BITMAP
10
10
10
FE
10
10
10
ENDCHAR

STARTCHAR comma
ENCODING 44
SWIDTH 265 0
DWIDTH 3 0
BBX 2 4 0 -2
BITMAP
C0
C0
40
80
ENDCHAR

STARTCHAR minus
ENCODING 45
SWIDTH 623 0
DWIDTH 6 0
BBX 6 1 0 2
BITMAP
FC
ENDCHAR

STARTCHAR period
ENCODING 46
SWIDTH 265 0
DWIDTH 3 0
BBX 2 2 0 0
BITMAP
C0
C0
ENDCHAR

STARTCHAR slash
ENCODING 47
SWIDTH 527 0
DWIDTH 5 0
BBX 5 10 0 -2
BITMAP
08
08
10
10
20
20
60
40
40
80
ENDCHAR

STARTCHAR zero
ENCODING 48
SWIDTH 623 0
DWIDTH 6 0
BBX 6 8 0 0
BITMAP
78
48
CC
CC
CC
CC
48
78
ENDCHAR

STARTCHAR one
ENCODING 49
SWIDTH 623 0
DWIDTH 6 0
BBX 4 8 1 0
BITMAP
E0
60
60
60
60
60
60
F0
ENDCHAR

STARTCHAR two
ENCODING 50
SWIDTH 623 0
DWIDTH 6 0
BBX 5 8 0 0
BITMAP
F0
98
18
18
20
40
F8
F8
ENDCHAR

STARTCHAR three
ENCODING 51
SWIDTH 623 0
DWIDTH 6 0
BBX 5 8 1 0
BITMAP
F0
98
18
70
18
18
98
F0
ENDCHAR

STARTCHAR four
ENCODING 52
SWIDTH 623 0
DWIDTH 6 0
BBX 6 8 0 0
BITMAP
18
38
38
58
D8
FC
18
3C
ENDCHAR

STARTCHAR five
ENCODING 53
SWIDTH 623 0
DWIDTH 6 0
BBX 5 8 1 0
BITMAP
F8
80
80
F0
18
18
98
F0
ENDCHAR

STARTCHAR six
ENCODING 54
SWIDTH 623 0
DWIDTH 6 0
BBX 6 8 0 0
BITMAP
78
48
C0
F8
CC
CC
CC
78
ENDCHAR

STARTCHAR seven
ENCODING 55
SWIDTH 623 0
DWIDTH 6 0
BBX 5 8 1 0
BITMAP
F8
F8
10
30
60
60
C0
C0
ENDCHAR

STARTCHAR eight
ENCODING 56
SWIDTH 623 0
DWIDTH 6 0
BBX 6 8 0 0
BITMAP
78
CC
CC
78
DC
CC
CC
78
ENDCHAR

STARTCHAR nine
ENCODING 57
SWIDTH 623 0
DWIDTH 6 0
BBX 6 8 0 0
BITMAP
78
CC
CC
CC
7C
0C
98
F0
ENDCHAR

STARTCHAR colon
ENCODING 58
SWIDTH 265 0
DWIDTH 3 0
BBX 2 5 0 0
BITMAP
C0
C0
00
C0
C0
ENDCHAR

STARTCHAR semicolon
ENCODING 59
SWIDTH 265 0
DWIDTH 3 0
BBX 2 7 0 -2
BITMAP
C0
C0
00
C0
C0
C0
80
ENDCHAR

STARTCHAR less
ENCODING 60
SWIDTH 623 0
DWIDTH 6 0
BBX 6 5 0 0
BITMAP
0C
38
C0
38
0C
ENDCHAR

STARTCHAR equal
ENCODING 61
SWIDTH 623 0
DWIDTH 6 0
BBX 6 3 0 2
BITMAP
FC
00
FC
ENDCHAR

STARTCHAR greater
ENCODING 62
SWIDTH 623 0
DWIDTH 6 0
BBX 6 5 0 0
BITMAP
C0
70
0C
70
C0
ENDCHAR

STARTCHAR question
ENCODING 63
SWIDTH 505 0
DWIDTH 5 0
BBX 5 8 0 0
BITMAP
F0
98
18
10
20
60
60
60
ENDCHAR

STARTCHAR at
ENCODING 64
SWIDTH 861 0
DWIDTH 9 0
BBX 8 8 0 0
BITMAP
1C
62
41
9D
A9
BA
EE
78
ENDCHAR

STARTCHAR A
ENCODING 65
SWIDTH 795 0
DWIDTH 8 0
BBX 8 8 0 0
BITMAP
18
18
28
2C
6C
7E
46
C7
ENDCHAR

STARTCHAR B
ENCODING 66
SWIDTH 639 0
DWIDTH 6 0
BBX 6 8 0 0
BITMAP
FC
6C
6C
7C
6C
6C
6C
F8
ENDCHAR

STARTCHAR C
ENCODING 67
SWIDTH 711 0
DWIDTH 7 0
BBX 6 8 1 0
BITMAP
3C
64
C0
C0
C0
C0
64
3C
ENDCHAR

STARTCHAR D
ENCODING 68
SWIDTH 794 0
DWIDTH 8 0
BBX 8 8 0 0
BITMAP
FC
66
63
63
63
63
66
FC
ENDCHAR

STARTCHAR E
ENCODING 69
SWIDTH 601 0
DWIDTH 6 0
BBX 6 8 0 0
BITMAP
FC
60
60
7C
60
60
60
FC
ENDCHAR

STARTCHAR F
ENCODING 70
SWIDTH 584 0
DWIDTH 6 0
BBX 5 8 0 0
BITMAP
F8
60
60
78
60
60
60
F0
ENDCHAR

STARTCHAR G
ENCODING 71
SWIDTH 753 0
DWIDTH 8 0
BBX 8 8 0 0
BITMAP
3E
62
C0
C0
C0
CF
66
3E
ENDCHAR

STARTCHAR H
ENCODING 72
SWIDTH 798 0
DWIDTH 8 0
BBX 8 8 0 0
BITMAP
FF
66
66
7E
66
66
66
FF
ENDCHAR

STARTCHAR I
ENCODING 73
SWIDTH 349 0
DWIDTH 3 0
BBX 4 8 0 0
BITMAP
F0
60
60
60
60
60
60
F0
ENDCHAR

STARTCHAR J
ENCODING 74
SWIDTH 452 0
DWIDTH 5 0
BBX 5 10 0 -2
BITMAP
78
30
30
30
30
30
30
30
B0
E0
ENDCHAR

STARTCHAR K
ENCODING 75
SWIDTH 747 0
DWIDTH 7 0
BBX 10 8 0 0
BITMAP
F380
6200
6400
6800
7800
6600
6300
F7C0
ENDCHAR

STARTCHAR L
ENCODING 76
SWIDTH 584 0
DWIDTH 6 0
BBX 6 8 0 0
BITMAP
F0
60
60
60
60
60
64
FC
ENDCHAR

STARTCHAR M
ENCODING 77
SWIDTH 904 0
DWIDTH 9 0
BBX 9 8 0 0
BITMAP
E380
6300
7700
7700
5B00
5B00
5B00
E780
ENDCHAR

STARTCHAR N
ENCODING 78
SWIDTH 788 0
DWIDTH 8 0
BBX 8 8 0 0
BITMAP
E7
62
72
5A
5A
4E
46
E6
ENDCHAR

STARTCHAR O
ENCODING 79
SWIDTH 810 0
DWIDTH 8 0
BBX 8 8 0 0
BITMAP
3C
66
C3
C3
C3
C3
66
3C
ENDCHAR

STARTCHAR P
ENCODING 80
SWIDTH 614 0
DWIDTH 6 0
BBX 6 8 0 0
BITMAP
F8
6C
6C
6C
78
60
60
F0
ENDCHAR

STARTCHAR Q
ENCODING 81
SWIDTH 810 0
DWIDTH 8 0
BBX 9 10 0 -2
BITMAP
3C00
6600
C300
C300
C300
C300
6700
3E00
0400
0380
ENDCHAR

STARTCHAR R
ENCODING 82
SWIDTH 720 0
DWIDTH 7 0
BBX 7 8 0 0
BITMAP
F8
6C
6C
6C
78
6C
6C
F6
ENDCHAR

STARTCHAR S
ENCODING 83
SWIDTH 556 0
DWIDTH 6 0
BBX 5 8 0 0
BITMAP
70
D0
C0
F0
38
18
98
F0
ENDCHAR

STARTCHAR T
ENCODING 84
SWIDTH 714 0
DWIDTH 7 0
BBX 6 8 1 0
BITMAP
FC
B4
30
30
30
30
30
78
ENDCHAR

STARTCHAR U
ENCODING 85
SWIDTH 747 0
DWIDTH 7 0
BBX 8 8 0 0
BITMAP
F7
62
62
62
62
62
62
3C
ENDCHAR

STARTCHAR V
ENCODING 86
SWIDTH 753 0
DWIDTH 8 0
BBX 8 8 0 0
BITMAP
E7
62
62
64
34
34
18
18
ENDCHAR

STARTCHAR W
ENCODING 87
SWIDTH 955 0
DWIDTH 10 0
BBX 10 8 0 0
BITMAP
ECC0
CC80
4C80
6C80
7700
7700
3300
2200
ENDCHAR

STARTCHAR X
ENCODING 88
SWIDTH 702 0
DWIDTH 7 0
BBX 7 8 0 0
BITMAP
E6
64
7C
38
38
4C
CC
CE
ENDCHAR

STARTCHAR Y
ENCODING 89
SWIDTH 717 0
DWIDTH 7 0
BBX 8 8 0 0
BITMAP
F7
62
34
3C
18
18
18
3C
ENDCHAR

STARTCHAR Z
ENCODING 90
SWIDTH 639 0
DWIDTH 6 0
BBX 6 8 0 0
BITMAP
FC
9C
18
30
30
60
E4
FC
ENDCHAR

STARTCHAR bracketleft
ENCODING 91
SWIDTH 327 0
DWIDTH 3 0
BBX 3 10 0 -2
BITMAP
E0
C0
C0
C0
C0
C0
C0
C0
C0
E0
ENDCHAR

STARTCHAR backslash
ENCODING 92
SWIDTH 527 0
DWIDTH 5 0
BBX 5 10 0 -2
BITMAP
80
40
40
60
20
20
10
10
08
08
ENDCHAR

STARTCHAR bracketright
ENCODING 93
SWIDTH 327 0
DWIDTH 3 0
BBX 3 10 0 -2
BITMAP
E0
60
60
60
60
60
60
60
60
E0
ENDCHAR

STARTCHAR asciicircum
ENCODING 94
SWIDTH 623 0
DWIDTH 6 0
BBX 6 7 0 1
BITMAP
10
30
30
48
48
48
84
ENDCHAR

STARTCHAR underscore
ENCODING 95
SWIDTH 500 0
DWIDTH 5 0
BBX 4 1 1 0
BITMAP
F0
ENDCHAR

STARTCHAR quoteleft
ENCODING 96
SWIDTH 265 0
DWIDTH 3 0
BBX 2 3 0 5
BITMAP
C0
C0
C0
ENDCHAR

STARTCHAR a
ENCODING 97
SWIDTH 556 0
DWIDTH 6 0
BBX 6 5 0 0
BITMAP
78
18
F8
D8
EC
ENDCHAR

STARTCHAR b
ENCODING 98
SWIDTH 640 0
DWIDTH 6 0
BBX 7 8 0 0
BITMAP
E0
60
60
7C
66
66
66
7C
ENDCHAR

STARTCHAR c
ENCODING 99
SWIDTH 541 0
DWIDTH 5 0
BBX 5 5 0 0
BITMAP
78
C8
C0
C0
78
ENDCHAR

STARTCHAR d
ENCODING 100
SWIDTH 652 0
DWIDTH 7 0
BBX 7 8 0 0
BITMAP
1C
0C
0C
7C
CC
CC
CC
7E
ENDCHAR

STARTCHAR e
ENCODING 101
SWIDTH 568 0
DWIDTH 6 0
BBX 5 5 0 0
BITMAP
70
D8
F8
C0
78
ENDCHAR

STARTCHAR f
ENCODING 102
SWIDTH 416 0
DWIDTH 4 0
BBX 5 8 0 0
BITMAP
38
68
60
F0
60
60
60
F0
ENDCHAR

STARTCHAR g
ENCODING 103
SWIDTH 599 0
DWIDTH 6 0
BBX 6 7 0 -2
BITMAP
7C
D8
F8
40
FC
CC
F8
ENDCHAR

STARTCHAR h
ENCODING 104
SWIDTH 654 0
DWIDTH 7 0
BBX 7 8 0 0
BITMAP
E0
60
60
7C
6C
6C
6C
FE
ENDCHAR

STARTCHAR i
ENCODING 105
SWIDTH 325 0
DWIDTH 3 0
BBX 4 8 0 0
BITMAP
60
60
00
E0
60
60
60
F0
ENDCHAR

STARTCHAR j
ENCODING 106
SWIDTH 355 0
DWIDTH 4 0
BBX 4 10 0 -2
BITMAP
30
30
00
70
30
30
30
30
B0
E0
ENDCHAR

STARTCHAR k
ENCODING 107
SWIDTH 654 0
DWIDTH 7 0
BBX 7 8 0 0
BITMAP
E0
60
60
6E
6C
78
7C
FE
ENDCHAR

STARTCHAR l
ENCODING 108
SWIDTH 325 0
DWIDTH 3 0
BBX 4 8 0 0
BITMAP
E0
60
60
60
60
60
60
F0
ENDCHAR

STARTCHAR m
ENCODING 109
SWIDTH 967 0
DWIDTH 10 0
BBX 10 5 0 0
BITMAP
FF80
6D80
6D80
6D80
FFC0
ENDCHAR

STARTCHAR n
ENCODING 110
SWIDTH 654 0
DWIDTH 7 0
BBX 7 5 0 0
BITMAP
FC
6C
6C
6C
FE
ENDCHAR

STARTCHAR o
ENCODING 111
SWIDTH 617 0
DWIDTH 6 0
BBX 6 5 0 0
BITMAP
78
CC
CC
CC
78
ENDCHAR

STARTCHAR p
ENCODING 112
SWIDTH 652 0
DWIDTH 7 0
BBX 7 7 0 -2
BITMAP
FC
66
66
66
7C
60
F0
ENDCHAR

STARTCHAR q
ENCODING 113
SWIDTH 640 0
DWIDTH 6 0
BBX 7 7 0 -2
BITMAP
7C
CC
CC
CC
7C
0C
1E
ENDCHAR

STARTCHAR r
ENCODING 114
SWIDTH 462 0
DWIDTH 5 0
BBX 5 5 0 0
BITMAP
F8
68
60
60
F0
ENDCHAR

STARTCHAR s
ENCODING 115
SWIDTH 525 0
DWIDTH 5 0
BBX 5 5 0 0
BITMAP
F0
C0
F8
18
F0
ENDCHAR

STARTCHAR t
ENCODING 116
SWIDTH 389 0
DWIDTH 4 0
BBX 4 6 0 0
BITMAP
60
F0
60
60
60
70
ENDCHAR

STARTCHAR u
ENCODING 117
SWIDTH 654 0
DWIDTH 7 0
BBX 7 5 0 0
BITMAP
FC
6C
6C
6C
7E
ENDCHAR

STARTCHAR v
ENCODING 118
SWIDTH 657 0
DWIDTH 7 0
BBX 7 5 0 0
BITMAP
E6
64
68
38
30
ENDCHAR

STARTCHAR w
ENCODING 119
SWIDTH 880 0
DWIDTH 9 0
BBX 9 5 0 0
BITMAP
E980
CD00
7500
7600
2200
ENDCHAR

STARTCHAR x
ENCODING 120
SWIDTH 608 0
DWIDTH 6 0
BBX 6 5 0 0
BITMAP
EC
68
30
5C
DC
ENDCHAR

STARTCHAR y
ENCODING 121
SWIDTH 654 0
DWIDTH 7 0
BBX 7 7 0 -2
BITMAP
E6
E4
6C
68
30
30
60
ENDCHAR

STARTCHAR z
ENCODING 122
SWIDTH 584 0
DWIDTH 6 0
BBX 5 5 0 0
BITMAP
F8
B0
70
E8
F8
ENDCHAR

STARTCHAR braceleft
ENCODING 123
SWIDTH 366 0
DWIDTH 4 0
BBX 3 10 0 -2
BITMAP
60
C0
C0
C0
C0
C0
C0
C0
C0
E0
ENDCHAR

STARTCHAR bar
ENCODING 124
SWIDTH 259 0
DWIDTH 3 0
BBX 1 10 1 -2
BITMAP
80
80
80
80
80
80
80
80
80
80
ENDCHAR

STARTCHAR braceright
ENCODING 125
SWIDTH 366 0
DWIDTH 4 0
BBX 3 10 6 -2
BITMAP
C0
60
60
60
60
60
60
60
60
E0
ENDCHAR

STARTCHAR asciitilde
ENCODING 126
SWIDTH 623 0
DWIDTH 6 0
BBX 6 2 0 2
BITMAP
E4
9C
ENDCHAR

STARTCHAR exclamdown
ENCODING 161
SWIDTH 265 0
DWIDTH 3 0
BBX 2 7 0 -2
BITMAP
C0
C0
40
40
C0
C0
C0
ENDCHAR

STARTCHAR cent
ENCODING 162
SWIDTH 623 0
DWIDTH 6 0
BBX 5 8 0 0
BITMAP
20
78
E8
E0
E0
E0
78
20
ENDCHAR

STARTCHAR sterling
ENCODING 163
SWIDTH 623 0
DWIDTH 6 0
BBX 5 8 1 0
BITMAP
38
68
60
60
F0
60
E0
F8
ENDCHAR

STARTCHAR currency
ENCODING 164
SWIDTH 623 0
DWIDTH 6 0
BBX 7 7 0 -1
BITMAP
82
7C
44
44
44
7C
82
ENDCHAR

STARTCHAR yen
ENCODING 165
SWIDTH 623 0
DWIDTH 6 0
BBX 7 8 0 0
BITMAP
EE
C4
68
70
78
78
30
78
ENDCHAR

STARTCHAR brokenbar
ENCODING 166
SWIDTH 259 0
DWIDTH 3 0
BBX 1 10 1 -2
BITMAP
80
80
80
80
80
00
80
80
80
80
ENDCHAR

STARTCHAR section
ENCODING 167
SWIDTH 623 0
DWIDTH 6 0
BBX 6 10 0 -2
BITMAP
78
C8
C0
70
B8
E8
70
1C
8C
F8
ENDCHAR

STARTCHAR dieresis
ENCODING 168
SWIDTH 617 0
DWIDTH 6 0
BBX 3 1 2 7
BITMAP
A0
ENDCHAR

STARTCHAR copyright
ENCODING 169
SWIDTH 855 0
DWIDTH 9 0
BBX 8 8 0 0
BITMAP
3C
42
9D
A5
A1
A1
5E
3C
ENDCHAR

STARTCHAR ordfeminine
ENCODING 170
SWIDTH 488 0
DWIDTH 5 0
BBX 5 5 0 3
BITMAP
F0
98
78
D8
F8
ENDCHAR

STARTCHAR guillemotleft
ENCODING 171
SWIDTH 566 0
DWIDTH 6 0
BBX 4 5 1 0
BITMAP
50
A0
A0
A0
50
ENDCHAR

STARTCHAR logicalnot
ENCODING 172
SWIDTH 623 0
DWIDTH 6 0
BBX 6 3 0 2
BITMAP
FC
04
04
ENDCHAR

STARTCHAR hyphen
ENCODING 173
SWIDTH 289 0
DWIDTH 3 0
BBX 2 1 0 3
BITMAP
C0
ENDCHAR

STARTCHAR registered
ENCODING 174
SWIDTH 623 0
DWIDTH 6 0
BBX 6 6 0 2
BITMAP
78
FC
AC
B4
EC
78
ENDCHAR

STARTCHAR macron
ENCODING 175
SWIDTH 617 0
DWIDTH 6 0
BBX 3 1 2 7
BITMAP
E0
ENDCHAR

STARTCHAR degree
ENCODING 176
SWIDTH 259 0
DWIDTH 3 0
BBX 2 3 0 5
BITMAP
C0
C0
C0
ENDCHAR

STARTCHAR plusminus
ENCODING 177
SWIDTH 623 0
DWIDTH 6 0
BBX 7 6 0 0
BITMAP
10
10
FE
10
10
FE
ENDCHAR

STARTCHAR twosuperior
ENCODING 178
SWIDTH 374 0
DWIDTH 4 0
BBX 3 4 -5 4
BITMAP
E0
A0
40
E0
ENDCHAR

STARTCHAR threesuperior
ENCODING 179
SWIDTH 374 0
DWIDTH 4 0
BBX 3 4 -5 4
BITMAP
E0
E0
A0
E0
ENDCHAR

STARTCHAR acute
ENCODING 180
SWIDTH 617 0
DWIDTH 6 0
BBX 2 1 2 7
BITMAP
C0
ENDCHAR

STARTCHAR mu
ENCODING 181
SWIDTH 705 0
DWIDTH 7 0
BBX 7 7 0 -2
BITMAP
FC
6C
6C
6C
7E
60
60
ENDCHAR

STARTCHAR paragraph
ENCODING 182
SWIDTH 623 0
DWIDTH 6 0
BBX 4 10 1 -2
BITMAP
F0
D0
D0
D0
50
50
50
50
50
50
ENDCHAR

STARTCHAR periodcentered
ENCODING 183
SWIDTH 623 0
DWIDTH 6 0
BBX 2 2 2 2
BITMAP
C0
C0
ENDCHAR

STARTCHAR cedilla
ENCODING 184
SWIDTH 617 0
DWIDTH 6 0
BBX 2 2 2 -2
BITMAP
C0
C0
ENDCHAR

STARTCHAR onesuperior
ENCODING 185
SWIDTH 374 0
DWIDTH 4 0
BBX 3 4 -5 4
BITMAP
C0
40
40
E0
ENDCHAR

STARTCHAR ordmasculine
ENCODING 186
SWIDTH 488 0
DWIDTH 5 0
BBX 5 4 0 4
BITMAP
70
D8
D8
70
ENDCHAR

STARTCHAR guillemotright
ENCODING 187
SWIDTH 566 0
DWIDTH 6 0
BBX 4 5 1 0
BITMAP
A0
50
50
50
A0
ENDCHAR

STARTCHAR onequarter
ENCODING 188
SWIDTH 803 0
DWIDTH 8 0
BBX 8 8 -5 0
BITMAP
C3
46
44
E8
1B
13
27
61
ENDCHAR

STARTCHAR onehalf
ENCODING 189
SWIDTH 803 0
DWIDTH 8 0
BBX 8 8 -5 0
BITMAP
C3
46
44
E8
1F
15
22
67
ENDCHAR

STARTCHAR threequarters
ENCODING 190
SWIDTH 803 0
DWIDTH 8 0
BBX 8 8 -5 0
BITMAP
E3
E6
A4
E8
1B
13
27
61
ENDCHAR

STARTCHAR questiondown
ENCODING 191
SWIDTH 505 0
DWIDTH 5 0
BBX 5 7 0 -2
BITMAP
30
30
30
20
40
C8
78
ENDCHAR

STARTCHAR Agrave
ENCODING 192
SWIDTH 795 0
DWIDTH 8 0
BBX 8 9 0 0
BITMAP
18
18
18
28
2C
6C
7E
46
C7
ENDCHAR

STARTCHAR Aacute
ENCODING 193
SWIDTH 795 0
DWIDTH 8 0
BBX 8 9 0 0
BITMAP
18
18
18
28
2C
6C
7E
46
C7
ENDCHAR

STARTCHAR Acircumflex
ENCODING 194
SWIDTH 795 0
DWIDTH 8 0
BBX 8 10 0 0
BITMAP
10
28
18
18
28
2C
6C
7E
46
C7
ENDCHAR

STARTCHAR Atilde
ENCODING 195
SWIDTH 795 0
DWIDTH 8 0
BBX 8 9 0 0
BITMAP
3C
18
18
28
2C
6C
7E
46
C7
ENDCHAR

STARTCHAR Adieresis
ENCODING 196
SWIDTH 795 0
DWIDTH 8 0
BBX 8 9 0 0
BITMAP
28
18
18
28
2C
6C
7E
46
C7
ENDCHAR

STARTCHAR Aring
ENCODING 197
SWIDTH 795 0
DWIDTH 8 0
BBX 8 10 0 0
BITMAP
18
18
18
18
28
2C
6C
7E
46
C7
ENDCHAR

STARTCHAR AE
ENCODING 198
SWIDTH 959 0
DWIDTH 10 0
BBX 10 8 0 0
BITMAP
0FC0
0E00
1E00
37C0
3E00
4600
8600
CFC0
ENDCHAR

STARTCHAR Ccedilla
ENCODING 199
SWIDTH 711 0
DWIDTH 7 0
BBX 6 10 1 -2
BITMAP
3C
64
C0
C0
C0
C0
64
3C
30
30
ENDCHAR

STARTCHAR Egrave
ENCODING 200
SWIDTH 601 0
DWIDTH 6 0
BBX 6 9 0 0
BITMAP
10
FC
60
60
7C
60
60
60
FC
ENDCHAR

STARTCHAR Eacute
ENCODING 201
SWIDTH 601 0
DWIDTH 6 0
BBX 6 9 0 0
BITMAP
20
FC
60
60
7C
60
60
60
FC
ENDCHAR

STARTCHAR Ecircumflex
ENCODING 202
SWIDTH 601 0
DWIDTH 6 0
BBX 6 10 0 0
BITMAP
10
28
FC
60
60
7C
60
60
60
FC
ENDCHAR

STARTCHAR Edieresis
ENCODING 203
SWIDTH 601 0
DWIDTH 6 0
BBX 6 9 0 0
BITMAP
28
FC
60
60
7C
60
60
60
FC
ENDCHAR

STARTCHAR Igrave
ENCODING 204
SWIDTH 349 0
DWIDTH 3 0
BBX 4 9 0 0
BITMAP
20
F0
60
60
60
60
60
60
F0
ENDCHAR

STARTCHAR Iacute
ENCODING 205
SWIDTH 349 0
DWIDTH 3 0
BBX 4 9 0 0
BITMAP
40
F0
60
60
60
60
60
60
F0
ENDCHAR

STARTCHAR Icircumflex
ENCODING 206
SWIDTH 349 0
DWIDTH 3 0
BBX 4 10 0 0
BITMAP
40
A0
F0
60
60
60
60
60
60
F0
ENDCHAR

STARTCHAR Idieresis
ENCODING 207
SWIDTH 349 0
DWIDTH 3 0
BBX 4 9 0 0
BITMAP
A0
F0
60
60
60
60
60
60
F0
ENDCHAR

STARTCHAR Eth
ENCODING 208
SWIDTH 794 0
DWIDTH 8 0
BBX 8 8 0 0
BITMAP
FC
66
63
63
FB
63
66
FC
ENDCHAR

STARTCHAR Ntilde
ENCODING 209
SWIDTH 788 0
DWIDTH 8 0
BBX 8 9 0 0
BITMAP
3C
E7
62
72
5A
5A
4E
46
E6
ENDCHAR

STARTCHAR Ograve
ENCODING 210
SWIDTH 810 0
DWIDTH 8 0
BBX 8 9 0 0
BITMAP
08
3C
66
C3
C3
C3
C3
66
3C
ENDCHAR

STARTCHAR Oacute
ENCODING 211
SWIDTH 810 0
DWIDTH 8 0
BBX 8 9 0 0
BITMAP
10
3C
66
C3
C3
C3
C3
66
3C
ENDCHAR

STARTCHAR Ocircumflex
ENCODING 212
SWIDTH 810 0
DWIDTH 8 0
BBX 8 10 0 0
BITMAP
10
28
3C
66
C3
C3
C3
C3
66
3C
ENDCHAR

STARTCHAR Otilde
ENCODING 213
SWIDTH 810 0
DWIDTH 8 0
BBX 8 9 0 0
BITMAP
3C
3C
66
C3
C3
C3
C3
66
3C
ENDCHAR

STARTCHAR Odieresis
ENCODING 214
SWIDTH 810 0
DWIDTH 8 0
BBX 8 9 0 0
BITMAP
28
3C
66
C3
C3
C3
C3
66
3C
ENDCHAR

STARTCHAR multiply
ENCODING 215
SWIDTH 623 0
DWIDTH 6 0
BBX 5 5 1 0
BITMAP
88
50
20
50
88
ENDCHAR

STARTCHAR Oslash
ENCODING 216
SWIDTH 810 0
DWIDTH 8 0
BBX 9 8 0 0
BITMAP
3D80
6600
C700
CF00
CB00
D300
6600
7C00
ENDCHAR

STARTCHAR Ugrave
ENCODING 217
SWIDTH 747 0
DWIDTH 7 0
BBX 8 9 0 0
BITMAP
08
F7
62
62
62
62
62
62
3C
ENDCHAR

STARTCHAR Uacute
ENCODING 218
SWIDTH 747 0
DWIDTH 7 0
BBX 8 9 0 0
BITMAP
18
F7
62
62
62
62
62
62
3C
ENDCHAR

STARTCHAR Ucircumflex
ENCODING 219
SWIDTH 747 0
DWIDTH 7 0
BBX 8 10 0 0
BITMAP
08
14
F7
62
62
62
62
62
62
3C
ENDCHAR

STARTCHAR Udieresis
ENCODING 220
SWIDTH 747 0
DWIDTH 7 0
BBX 8 9 0 0
BITMAP
14
F7
62
62
62
62
62
62
3C
ENDCHAR

STARTCHAR Yacute
ENCODING 221
SWIDTH 717 0
DWIDTH 7 0
BBX 8 9 0 0
BITMAP
18
F7
62
34
3C
18
18
18
3C
ENDCHAR

STARTCHAR Thorn
ENCODING 222
SWIDTH 614 0
DWIDTH 6 0
BBX 6 8 0 0
BITMAP
F0
60
78
6C
6C
6C
78
F0
ENDCHAR

STARTCHAR germandbls
ENCODING 223
SWIDTH 700 0
DWIDTH 7 0
BBX 7 8 0 0
BITMAP
3C
66
64
68
6C
66
6E
FE
ENDCHAR

STARTCHAR agrave
ENCODING 224
SWIDTH 556 0
DWIDTH 6 0
BBX 6 6 0 0
BITMAP
10
78
18
F8
D8
EC
ENDCHAR

STARTCHAR aacute
ENCODING 225
SWIDTH 556 0
DWIDTH 6 0
BBX 6 6 0 0
BITMAP
20
78
18
F8
D8
EC
ENDCHAR

STARTCHAR acircumflex
ENCODING 226
SWIDTH 556 0
DWIDTH 6 0
BBX 6 7 0 0
BITMAP
20
50
78
18
F8
D8
EC
ENDCHAR

STARTCHAR atilde
ENCODING 227
SWIDTH 556 0
DWIDTH 6 0
BBX 6 6 0 0
BITMAP
78
78
18
F8
D8
EC
ENDCHAR

STARTCHAR adieresis
ENCODING 228
SWIDTH 556 0
DWIDTH 6 0
BBX 6 6 0 0
BITMAP
50
78
18
F8
D8
EC
ENDCHAR

STARTCHAR aring
ENCODING 229
SWIDTH 556 0
DWIDTH 6 0
BBX 6 7 0 0
BITMAP
30
30
78
18
F8
D8
EC
ENDCHAR

STARTCHAR ae
ENCODING 230
SWIDTH 858 0
DWIDTH 9 0
BBX 8 5 0 0
BITMAP
76
5B
FF
D8
EF
ENDCHAR

STARTCHAR ccedilla
ENCODING 231
SWIDTH 541 0
DWIDTH 5 0
BBX 5 7 0 -2
BITMAP
78
C8
C0
C0
78
30
30
ENDCHAR

STARTCHAR egrave
ENCODING 232
SWIDTH 568 0
DWIDTH 6 0
BBX 5 6 0 0
BITMAP
20
70
D8
F8
C0
78
ENDCHAR

STARTCHAR eacute
ENCODING 233
SWIDTH 568 0
DWIDTH 6 0
BBX 5 6 0 0
BITMAP
20
70
D8
F8
C0
78
ENDCHAR

STARTCHAR ecircumflex
ENCODING 234
SWIDTH 568 0
DWIDTH 6 0
BBX 5 7 0 0
BITMAP
20
50
70
D8
F8
C0
78
ENDCHAR

STARTCHAR edieresis
ENCODING 235
SWIDTH 568 0
DWIDTH 6 0
BBX 5 6 0 0
BITMAP
50
70
D8
F8
C0
78
ENDCHAR

STARTCHAR igrave
ENCODING 236
SWIDTH 325 0
DWIDTH 3 0
BBX 4 6 0 0
BITMAP
20
E0
60
60
60
F0
ENDCHAR

STARTCHAR iacute
ENCODING 237
SWIDTH 325 0
DWIDTH 3 0
BBX 4 6 0 0
BITMAP
40
E0
60
60
60
F0
ENDCHAR

STARTCHAR icircumflex
ENCODING 238
SWIDTH 325 0
DWIDTH 3 0
BBX 4 7 0 0
BITMAP
40
A0
E0
60
60
60
F0
ENDCHAR

STARTCHAR idieresis
ENCODING 239
SWIDTH 325 0
DWIDTH 3 0
BBX 4 6 0 0
BITMAP
A0
E0
60
60
60
F0
ENDCHAR

STARTCHAR eth
ENCODING 240
SWIDTH 652 0
DWIDTH 7 0
BBX 6 8 0 0
BITMAP
F0
70
98
7C
CC
CC
CC
78
ENDCHAR

STARTCHAR ntilde
ENCODING 241
SWIDTH 654 0
DWIDTH 7 0
BBX 7 6 0 0
BITMAP
78
FC
6C
6C
6C
FE
ENDCHAR

STARTCHAR ograve
ENCODING 242
SWIDTH 617 0
DWIDTH 6 0
BBX 6 6 0 0
BITMAP
10
78
CC
CC
CC
78
ENDCHAR

STARTCHAR oacute
ENCODING 243
SWIDTH 617 0
DWIDTH 6 0
BBX 6 6 0 0
BITMAP
20
78
CC
CC
CC
78
ENDCHAR

STARTCHAR ocircumflex
ENCODING 244
SWIDTH 617 0
DWIDTH 6 0
BBX 6 7 0 0
BITMAP
20
50
78
CC
CC
CC
78
ENDCHAR

STARTCHAR otilde
ENCODING 245
SWIDTH 617 0
DWIDTH 6 0
BBX 6 6 0 0
BITMAP
78
78
CC
CC
CC
78
ENDCHAR

STARTCHAR odieresis
ENCODING 246
SWIDTH 617 0
DWIDTH 6 0
BBX 6 6 0 0
BITMAP
50
78
CC
CC
CC
78
ENDCHAR

STARTCHAR divide
ENCODING 247
SWIDTH 623 0
DWIDTH 6 0
BBX 5 5 1 0
BITMAP
20
00
F8
00
20
ENDCHAR

STARTCHAR oslash
ENCODING 248
SWIDTH 617 0
DWIDTH 6 0
BBX 7 5 0 0
BITMAP
7E
DC
FC
EC
F8
ENDCHAR

STARTCHAR ugrave
ENCODING 249
SWIDTH 654 0
DWIDTH 7 0
BBX 7 6 0 0
BITMAP
10
FC
6C
6C
6C
7E
ENDCHAR

STARTCHAR uacute
ENCODING 250
SWIDTH 654 0
DWIDTH 7 0
BBX 7 6 0 0
BITMAP
10
FC
6C
6C
6C
7E
ENDCHAR

STARTCHAR ucircumflex
ENCODING 251
SWIDTH 654 0
DWIDTH 7 0
BBX 7 7 0 0
BITMAP
10
28
FC
6C
6C
6C
7E
ENDCHAR

STARTCHAR udieresis
ENCODING 252
SWIDTH 654 0
DWIDTH 7 0
BBX 7 6 0 0
BITMAP
28
FC
6C
6C
6C
7E
ENDCHAR

STARTCHAR yacute
ENCODING 253
SWIDTH 654 0
DWIDTH 7 0
BBX 7 8 0 -2
BITMAP
18
E6
E4
6C
68
30
30
60
ENDCHAR

STARTCHAR thorn
ENCODING 254
SWIDTH 652 0
DWIDTH 7 0
BBX 7 8 0 -2
BITMAP
E0
7C
66
66
66
7C
60
F0
ENDCHAR

STARTCHAR ydieresis
ENCODING 255
SWIDTH 654 0
DWIDTH 7 0
BBX 7 8 0 -2
BITMAP
28
E6
E4
6C
68
30
30
60
ENDCHAR

ENDFONT
