STARTFONT 2.1
FONT -B&H-Lucida Sans Typewriter-Medium-R-Normal-Sans-17-170-72-72-M-100-ISO8859-1
SIZE 17 72 72
FONTBOUNDINGBOX 10 20 0 -4

STARTPROPERTIES 22
FONTNAME_REGISTRY "-"
FOUNDRY "B&H"
FAMILY_NAME "Lucida Sans Typewriter"
WEIGHT_NAME "Medium"
SLANT "R"
SETWIDTH_NAME "Normal"
ADD_STYLE_NAME "Sans"
SPACING "M"
CHARSET_REGISTRY "ISO8859"
CHARSET_ENCODING "1"
PIXEL_SIZE 17
POINT_SIZE 170
RESOLUTION_X 72
RESOLUTION_Y 72
AVERAGE_WIDTH 100
FULL_NAME "LucidaSans-Typewriter"
WEIGHT 10
X_HEIGHT 9
QUAD_WIDTH 10
DEFAULT_CHAR 32
FONT_DESCENT 4
FONT_ASCENT 16
ENDPROPERTIES

CHARS 190

STARTCHAR space
ENCODING 32
SWIDTH 602 0
DWIDTH 10 0
BBX 10 20 0 -4
ATTRIBUTES   E4
BITMAP
0000
0000
0000
0000
0000
0000
0000
0000
0000
0000
0000
0000
0000
0000
0000
0000
0000
0000
0000
0000
ENDCHAR

STARTCHAR exclam
ENCODING 33
SWIDTH 602 0
DWIDTH 10 0
BBX 10 20 0 -4
ATTRIBUTES   E4
BITMAP
0000
0000
0000
0000
0400
0400
0400
0400
0400
0400
0400
0400
0400
0000
0000
0400
0000
0000
0000
0000
ENDCHAR

STARTCHAR quotedbl
ENCODING 34
SWIDTH 602 0
DWIDTH 10 0
BBX 10 20 0 -4
ATTRIBUTES   E4
BITMAP
0000
0000
0000
0000
3300
3300
3300
2200
2200
0000
0000
0000
0000
0000
0000
0000
0000
0000
0000
0000
ENDCHAR

STARTCHAR numbersign
ENCODING 35
SWIDTH 602 0
DWIDTH 10 0
BBX 10 20 0 -4
ATTRIBUTES   E4
BITMAP
0000
0000
0000
0000
0900
0900
1100
7F80
1200
1200
2200
FF80
2400
2400
4400
4800
0000
0000
0000
0000
ENDCHAR

STARTCHAR dollar
ENCODING 36
SWIDTH 602 0
DWIDTH 10 0
BBX 10 20 0 -4
ATTRIBUTES   E4
BITMAP
0000
0000
0000
0000
1F80
3400
2400
2400
1400
0C00
0700
0580
0480
0480
2580
3F00
0400
0000
0000
0000
ENDCHAR

STARTCHAR percent
ENCODING 37
SWIDTH 602 0
DWIDTH 10 0
BBX 10 20 0 -4
ATTRIBUTES   E4
BITMAP
0000
0000
0000
0000
00C0
7080
8900
8A00
8E00
7400
0800
1B80
1440
2440
4440
C380
0000
0000
0000
0000
ENDCHAR

STARTCHAR ampersand
ENCODING 38
SWIDTH 602 0
DWIDTH 10 0
BBX 10 20 0 -4
ATTRIBUTES   E4
BITMAP
0000
0000
0000
0000
0C00
1200
1200
1200
1400
3880
4880
4480
4680
4300
2300
3D80
0000
0000
0000
0000
ENDCHAR

STARTCHAR quoteright
ENCODING 39
SWIDTH 602 0
DWIDTH 10 0
BBX 10 20 0 -4
ATTRIBUTES   E4
BITMAP
0000
0000
0000
0000
0C00
0400
0400
0800
0000
0000
0000
0000
0000
0000
0000
0000
0000
0000
0000
0000
ENDCHAR

STARTCHAR parenleft
ENCODING 40
SWIDTH 602 0
DWIDTH 10 0
BBX 10 20 0 -4
ATTRIBUTES   E4
BITMAP
0000
0000
0000
0000
0180
0600
0C00
0800
1000
1000
1000
1000
1000
1000
0800
0400
0200
0180
0000
0000
ENDCHAR

STARTCHAR parenright
ENCODING 41
SWIDTH 602 0
DWIDTH 10 0
BBX 10 20 0 -4
ATTRIBUTES   E4
BITMAP
0000
0000
0000
0000
3000
1800
0400
0400
0200
0200
0200
0200
0200
0200
0400
0400
1800
2000
0000
0000
ENDCHAR

STARTCHAR asterisk
ENCODING 42
SWIDTH 602 0
DWIDTH 10 0
BBX 10 20 0 -4
ATTRIBUTES   E4
BITMAP
0000
0000
0000
0000
0C00
2900
7780
1400
1C00
3600
2300
0000
0000
0000
0000
0000
0000
0000
0000
0000
ENDCHAR

STARTCHAR plus
ENCODING 43
SWIDTH 602 0
DWIDTH 10 0
BBX 10 20 0 -4
ATTRIBUTES   E4
BITMAP
0000
0000
0000
0000
0000
0000
0000
0400
0400
0400
0400
7FC0
0400
0400
0400
0400
0000
0000
0000
0000
ENDCHAR

STARTCHAR comma
ENCODING 44
SWIDTH 602 0
DWIDTH 10 0
BBX 10 20 0 -4
ATTRIBUTES   E4
BITMAP
0000
0000
0000
0000
0000
0000
0000
0000
0000
0000
0000
0000
0000
0C00
0C00
0C00
0400
0800
0000
0000
ENDCHAR

STARTCHAR minus
ENCODING 45
SWIDTH 602 0
DWIDTH 10 0
BBX 10 20 0 -4
ATTRIBUTES   E4
BITMAP
0000
0000
0000
0000
0000
0000
0000
0000
0000
0000
0000
7FC0
0000
0000
0000
0000
0000
0000
0000
0000
ENDCHAR

STARTCHAR period
ENCODING 46
SWIDTH 602 0
DWIDTH 10 0
BBX 10 20 0 -4
ATTRIBUTES   E4
BITMAP
0000
0000
0000
0000
0000
0000
0000
0000
0000
0000
0000
0000
0000
0000
0C00
0C00
0000
0000
0000
0000
ENDCHAR

STARTCHAR slash
ENCODING 47
SWIDTH 602 0
DWIDTH 10 0
BBX 10 20 0 -4
ATTRIBUTES   E4
BITMAP
0000
0000
0000
0000
00C0
0080
0180
0100
0200
0200
0400
0400
0800
0800
1000
3000
2000
6000
0000
0000
ENDCHAR

STARTCHAR zero
ENCODING 48
SWIDTH 602 0
DWIDTH 10 0
BBX 10 20 0 -4
ATTRIBUTES   E4
BITMAP
0000
0000
0000
0000
1E00
2100
2100
4080
4080
4080
4080
4080
4080
2100
2100
1E00
0000
0000
0000
0000
ENDCHAR

STARTCHAR one
ENCODING 49
SWIDTH 602 0
DWIDTH 10 0
BBX 10 20 0 -4
ATTRIBUTES   E4
BITMAP
0000
0000
0000
0000
0400
1C00
2400
0400
0400
0400
0400
0400
0400
0400
0400
3F80
0000
0000
0000
0000
ENDCHAR

STARTCHAR two
ENCODING 50
SWIDTH 602 0
DWIDTH 10 0
BBX 10 20 0 -4
ATTRIBUTES   E4
BITMAP
0000
0000
0000
0000
3E00
2300
0100
0100
0100
0200
0600
0C00
1800
1000
3000
3F00
0000
0000
0000
0000
ENDCHAR

STARTCHAR three
ENCODING 51
SWIDTH 602 0
DWIDTH 10 0
BBX 10 20 0 -4
ATTRIBUTES   E4
BITMAP
0000
0000
0000
0000
3E00
2300
0100
0100
0200
1C00
0200
0100
0100
0100
2200
3C00
0000
0000
0000
0000
ENDCHAR

STARTCHAR four
ENCODING 52
SWIDTH 602 0
DWIDTH 10 0
BBX 10 20 0 -4
ATTRIBUTES   E4
BITMAP
0000
0000
0000
0000
0600
0600
0E00
0A00
1200
3200
2200
4200
7F80
0200
0200
0200
0000
0000
0000
0000
ENDCHAR

STARTCHAR five
ENCODING 53
SWIDTH 602 0
DWIDTH 10 0
BBX 10 20 0 -4
ATTRIBUTES   E4
BITMAP
0000
0000
0000
0000
1F00
1000
1000
1000
1C00
0200
0100
0100
0100
0100
1200
1C00
0000
0000
0000
0000
ENDCHAR

STARTCHAR six
ENCODING 54
SWIDTH 602 0
DWIDTH 10 0
BBX 10 20 0 -4
ATTRIBUTES   E4
BITMAP
0000
0000
0000
0000
0F00
1100
1000
2000
2E00
3100
2080
2080
2080
2080
1100
0E00
0000
0000
0000
0000
ENDCHAR

STARTCHAR seven
ENCODING 55
SWIDTH 602 0
DWIDTH 10 0
BBX 10 20 0 -4
ATTRIBUTES   E4
BITMAP
0000
0000
0000
0000
3F80
0180
0300
0300
0600
0400
0400
0800
0800
1000
1000
1000
0000
0000
0000
0000
ENDCHAR

STARTCHAR eight
ENCODING 56
SWIDTH 602 0
DWIDTH 10 0
BBX 10 20 0 -4
ATTRIBUTES   E4
BITMAP
0000
0000
0000
0000
0F00
1180
1080
1080
0900
0E00
1300
2180
2080
2080
3100
1E00
0000
0000
0000
0000
ENDCHAR

STARTCHAR nine
ENCODING 57
SWIDTH 602 0
DWIDTH 10 0
BBX 10 20 0 -4
ATTRIBUTES   E4
BITMAP
0000
0000
0000
0000
0E00
1100
2080
2080
2080
2080
1180
0E80
0080
0100
1100
1E00
0000
0000
0000
0000
ENDCHAR

STARTCHAR colon
ENCODING 58
SWIDTH 602 0
DWIDTH 10 0
BBX 10 20 0 -4
ATTRIBUTES   E4
BITMAP
0000
0000
0000
0000
0000
0000
0000
0C00
0C00
0000
0000
0000
0000
0000
0C00
0C00
0000
0000
0000
0000
ENDCHAR

STARTCHAR semicolon
ENCODING 59
SWIDTH 602 0
DWIDTH 10 0
BBX 10 20 0 -4
ATTRIBUTES   E4
BITMAP
0000
0000
0000
0000
0000
0000
0000
0C00
0C00
0000
0000
0000
0000
0C00
0C00
0C00
0400
0800
0000
0000
ENDCHAR

STARTCHAR less
ENCODING 60
SWIDTH 602 0
DWIDTH 10 0
BBX 10 20 0 -4
ATTRIBUTES   E4
BITMAP
0000
0000
0000
0000
0000
0000
0000
0040
01C0
0700
1C00
7000
1C00
0700
01C0
0040
0000
0000
0000
0000
ENDCHAR

STARTCHAR equal
ENCODING 61
SWIDTH 602 0
DWIDTH 10 0
BBX 10 20 0 -4
ATTRIBUTES   E4
BITMAP
0000
0000
0000
0000
0000
0000
0000
0000
0000
0000
7FC0
0000
0000
7FC0
0000
0000
0000
0000
0000
0000
ENDCHAR

STARTCHAR greater
ENCODING 62
SWIDTH 602 0
DWIDTH 10 0
BBX 10 20 0 -4
ATTRIBUTES   E4
BITMAP
0000
0000
0000
0000
0000
0000
0000
4000
7000
1C00
0700
01C0
0700
1C00
7000
4000
0000
0000
0000
0000
ENDCHAR

STARTCHAR question
ENCODING 63
SWIDTH 602 0
DWIDTH 10 0
BBX 10 20 0 -4
ATTRIBUTES   E4
BITMAP
0000
0000
0000
0000
3F00
2180
2080
0080
0100
0200
0400
0800
0800
0000
0000
0800
0000
0000
0000
0000
ENDCHAR

STARTCHAR at
ENCODING 64
SWIDTH 602 0
DWIDTH 10 0
BBX 10 20 0 -4
ATTRIBUTES   E4
BITMAP
0000
0000
0000
0000
0F00
1080
2380
6480
4880
4880
4980
4980
4B80
26C0
3100
1F00
0000
0000
0000
0000
ENDCHAR

STARTCHAR A
ENCODING 65
SWIDTH 602 0
DWIDTH 10 0
BBX 10 20 0 -4
ATTRIBUTES   E4
BITMAP
0000
0000
0000
0000
0C00
0C00
0C00
1200
1200
1200
2100
2100
7F00
4080
4080
8080
0040
0000
0000
0000
ENDCHAR

STARTCHAR B
ENCODING 66
SWIDTH 602 0
DWIDTH 10 0
BBX 10 20 0 -4
ATTRIBUTES   E4
BITMAP
0000
0000
0000
0000
3F00
2180
2080
2080
2100
3E00
2300
2080
2080
2080
2180
3F00
0000
0000
0000
0000
ENDCHAR

STARTCHAR C
ENCODING 67
SWIDTH 602 0
DWIDTH 10 0
BBX 10 20 0 -4
ATTRIBUTES   E4
BITMAP
0000
0000
0000
0000
0F80
1080
2000
4000
4000
4000
4000
4000
4000
2000
1080
0F80
0000
0000
0000
0000
ENDCHAR

STARTCHAR D
ENCODING 68
SWIDTH 602 0
DWIDTH 10 0
BBX 10 20 0 -4
ATTRIBUTES   E4
BITMAP
0000
0000
0000
0000
7E00
4300
4100
4080
4080
4080
4080
4080
4080
4100
4300
7C00
0000
0000
0000
0000
ENDCHAR

STARTCHAR E
ENCODING 69
SWIDTH 602 0
DWIDTH 10 0
BBX 10 20 0 -4
ATTRIBUTES   E4
BITMAP
0000
0000
0000
0000
3F80
2000
2000
2000
2000
3F00
2000
2000
2000
2000
2000
3F80
0000
0000
0000
0000
ENDCHAR

STARTCHAR F
ENCODING 70
SWIDTH 602 0
DWIDTH 10 0
BBX 10 20 0 -4
ATTRIBUTES   E4
BITMAP
0000
0000
0000
0000
3F80
2000
2000
2000
2000
3F00
2000
2000
2000
2000
2000
2000
0000
0000
0000
0000
ENDCHAR

STARTCHAR G
ENCODING 71
SWIDTH 602 0
DWIDTH 10 0
BBX 10 20 0 -4
ATTRIBUTES   E4
BITMAP
0000
0000
0000
0000
0F80
1080
2000
4000
4000
4000
4000
4080
4080
2080
1080
0F80
0000
0000
0000
0000
ENDCHAR

STARTCHAR H
ENCODING 72
SWIDTH 602 0
DWIDTH 10 0
BBX 10 20 0 -4
ATTRIBUTES   E4
BITMAP
0000
0000
0000
0000
2080
2080
2080
2080
2080
3F80
2080
2080
2080
2080
2080
2080
0000
0000
0000
0000
ENDCHAR

STARTCHAR I
ENCODING 73
SWIDTH 602 0
DWIDTH 10 0
BBX 10 20 0 -4
ATTRIBUTES   E4
BITMAP
0000
0000
0000
0000
3F80
0400
0400
0400
0400
0400
0400
0400
0400
0400
0400
3F80
0000
0000
0000
0000
ENDCHAR

STARTCHAR J
ENCODING 74
SWIDTH 602 0
DWIDTH 10 0
BBX 10 20 0 -4
ATTRIBUTES   E4
BITMAP
0000
0000
0000
0000
3E00
0200
0200
0200
0200
0200
0200
0200
0200
0200
2600
3C00
0000
0000
0000
0000
ENDCHAR

STARTCHAR K
ENCODING 75
SWIDTH 602 0
DWIDTH 10 0
BBX 10 20 0 -4
ATTRIBUTES   E4
BITMAP
0000
0000
0000
0000
2180
2100
2200
2400
2C00
2800
3800
2400
2200
2300
2100
20C0
0000
0000
0000
0000
ENDCHAR

STARTCHAR L
ENCODING 76
SWIDTH 602 0
DWIDTH 10 0
BBX 10 20 0 -4
ATTRIBUTES   E4
BITMAP
0000
0000
0000
0000
2000
2000
2000
2000
2000
2000
2000
2000
2000
2000
2000
3F80
0000
0000
0000
0000
ENDCHAR

STARTCHAR M
ENCODING 77
SWIDTH 602 0
DWIDTH 10 0
BBX 10 20 0 -4
ATTRIBUTES   E4
BITMAP
0000
0000
0000
0000
6180
6180
6180
7380
5280
5280
5280
4C80
4C80
4C80
4C80
4080
0000
0000
0000
0000
ENDCHAR

STARTCHAR N
ENCODING 78
SWIDTH 602 0
DWIDTH 10 0
BBX 10 20 0 -4
ATTRIBUTES   E4
BITMAP
0000
0000
0000
0000
2080
3080
3080
2880
2880
2480
2480
2280
2280
2180
2180
2080
0000
0000
0000
0000
ENDCHAR

STARTCHAR O
ENCODING 79
SWIDTH 602 0
DWIDTH 10 0
BBX 10 20 0 -4
ATTRIBUTES   E4
BITMAP
0000
0000
0000
0000
1E00
2100
2100
4080
4080
4080
4080
4080
4080
2100
2100
1E00
0000
0000
0000
0000
ENDCHAR

STARTCHAR P
ENCODING 80
SWIDTH 602 0
DWIDTH 10 0
BBX 10 20 0 -4
ATTRIBUTES   E4
BITMAP
0000
0000
0000
0000
3F00
2180
2080
2080
2080
2100
3E00
2000
2000
2000
2000
2000
0000
0000
0000
0000
ENDCHAR

STARTCHAR Q
ENCODING 81
SWIDTH 602 0
DWIDTH 10 0
BBX 10 20 0 -4
ATTRIBUTES   E4
BITMAP
0000
0000
0000
0000
1E00
2100
2100
4080
4080
4080
4080
4080
4080
2100
2100
1E00
0380
00C0
0000
0000
ENDCHAR

STARTCHAR R
ENCODING 82
SWIDTH 602 0
DWIDTH 10 0
BBX 10 20 0 -4
ATTRIBUTES   E4
BITMAP
0000
0000
0000
0000
3E00
2300
2100
2100
2100
2200
3C00
2400
2200
2200
2100
2180
0000
0000
0000
0000
ENDCHAR

STARTCHAR S
ENCODING 83
SWIDTH 602 0
DWIDTH 10 0
BBX 10 20 0 -4
ATTRIBUTES   E4
BITMAP
0000
0000
0000
0000
1F00
2100
2000
2000
1000
0C00
0300
0180
0080
0080
2100
3E00
0000
0000
0000
0000
ENDCHAR

STARTCHAR T
ENCODING 84
SWIDTH 602 0
DWIDTH 10 0
BBX 10 20 0 -4
ATTRIBUTES   E4
BITMAP
0000
0000
0000
0000
7FC0
0400
0400
0400
0400
0400
0400
0400
0400
0400
0400
0400
0000
0000
0000
0000
ENDCHAR

STARTCHAR U
ENCODING 85
SWIDTH 602 0
DWIDTH 10 0
BBX 10 20 0 -4
ATTRIBUTES   E4
BITMAP
0000
0000
0000
0000
2080
2080
2080
2080
2080
2080
2080
2080
2080
2080
1100
0F00
0000
0000
0000
0000
ENDCHAR

STARTCHAR V
ENCODING 86
SWIDTH 602 0
DWIDTH 10 0
BBX 10 20 0 -4
ATTRIBUTES   E4
BITMAP
0000
0000
0000
0000
C040
4080
4080
2080
2100
2100
1100
1200
1200
0E00
0C00
0C00
0000
0000
0000
0000
ENDCHAR

STARTCHAR W
ENCODING 87
SWIDTH 602 0
DWIDTH 10 0
BBX 10 20 0 -4
ATTRIBUTES   E4
BITMAP
0000
0000
0000
0000
8040
CC40
CCC0
CCC0
4C80
5680
5680
5280
5280
7380
7300
6300
0000
0000
0000
0000
ENDCHAR

STARTCHAR X
ENCODING 88
SWIDTH 602 0
DWIDTH 10 0
BBX 10 20 0 -4
ATTRIBUTES   E4
BITMAP
0000
0000
0000
0000
40C0
2180
2100
1200
0A00
0C00
0C00
1E00
1200
2100
4180
C0C0
0000
0000
0000
0000
ENDCHAR

STARTCHAR Y
ENCODING 89
SWIDTH 602 0
DWIDTH 10 0
BBX 10 20 0 -4
ATTRIBUTES   E4
BITMAP
0000
0000
0000
0000
60C0
2080
1180
1100
0A00
0A00
0400
0400
0400
0400
0400
0400
0000
0000
0000
0000
ENDCHAR

STARTCHAR Z
ENCODING 90
SWIDTH 602 0
DWIDTH 10 0
BBX 10 20 0 -4
ATTRIBUTES   E4
BITMAP
0000
0000
0000
0000
7FC0
0080
0100
0300
0200
0400
0C00
0800
1000
2000
2000
7FC0
0000
0000
0000
0000
ENDCHAR

STARTCHAR bracketleft
ENCODING 91
SWIDTH 602 0
DWIDTH 10 0
BBX 10 20 0 -4
ATTRIBUTES   E4
BITMAP
0000
0000
0000
0000
0F80
0800
0800
0800
0800
0800
0800
0800
0800
0800
0800
0800
0800
0F80
0000
0000
ENDCHAR

STARTCHAR backslash
ENCODING 92
SWIDTH 602 0
DWIDTH 10 0
BBX 10 20 0 -4
ATTRIBUTES   E4
BITMAP
0000
0000
0000
0000
6000
2000
3000
1000
0800
0800
0400
0400
0200
0200
0100
0180
0080
00C0
0000
0000
ENDCHAR

STARTCHAR bracketright
ENCODING 93
SWIDTH 602 0
DWIDTH 10 0
BBX 10 20 0 -4
ATTRIBUTES   E4
BITMAP
0000
0000
0000
0000
3E00
0200
0200
0200
0200
0200
0200
0200
0200
0200
0200
0200
0200
3E00
0000
0000
ENDCHAR

STARTCHAR asciicircum
ENCODING 94
SWIDTH 602 0
DWIDTH 10 0
BBX 10 20 0 -4
ATTRIBUTES   E4
BITMAP
0000
0000
0000
0000
0400
0400
0400
0A00
0A00
1100
1100
2080
2080
4040
0000
0000
0000
0000
0000
0000
ENDCHAR

STARTCHAR underscore
ENCODING 95
SWIDTH 602 0
DWIDTH 10 0
BBX 10 20 0 -4
ATTRIBUTES   E4
BITMAP
0000
0000
0000
0000
0000
0000
0000
0000
0000
0000
0000
0000
0000
0000
0000
0000
FFC0
0000
0000
0000
ENDCHAR

STARTCHAR quoteleft
ENCODING 96
SWIDTH 602 0
DWIDTH 10 0
BBX 10 20 0 -4
ATTRIBUTES   E4
BITMAP
0000
0000
0000
0000
0400
0800
0800
0C00
0C00
0000
0000
0000
0000
0000
0000
0000
0000
0000
0000
0000
ENDCHAR

STARTCHAR a
ENCODING 97
SWIDTH 602 0
DWIDTH 10 0
BBX 10 20 0 -4
ATTRIBUTES   E4
BITMAP
0000
0000
0000
0000
0000
0000
0000
3E00
2100
0100
0100
1F00
6100
4100
4300
3D80
0000
0000
0000
0000
ENDCHAR

STARTCHAR b
ENCODING 98
SWIDTH 602 0
DWIDTH 10 0
BBX 10 20 0 -4
ATTRIBUTES   E4
BITMAP
0000
0000
0000
0000
2000
2000
2000
2F00
3100
2080
2080
2080
2080
2080
3100
2E00
0000
0000
0000
0000
ENDCHAR

STARTCHAR c
ENCODING 99
SWIDTH 602 0
DWIDTH 10 0
BBX 10 20 0 -4
ATTRIBUTES   E4
BITMAP
0000
0000
0000
0000
0000
0000
0000
0F80
1080
2000
2000
2000
2000
2000
1080
0F80
0000
0000
0000
0000
ENDCHAR

STARTCHAR d
ENCODING 100
SWIDTH 602 0
DWIDTH 10 0
BBX 10 20 0 -4
ATTRIBUTES   E4
BITMAP
0000
0000
0000
0000
0080
0080
0080
0E80
1180
2080
2080
2080
2080
2080
1180
1E80
0000
0000
0000
0000
ENDCHAR

STARTCHAR e
ENCODING 101
SWIDTH 602 0
DWIDTH 10 0
BBX 10 20 0 -4
ATTRIBUTES   E4
BITMAP
0000
0000
0000
0000
0000
0000
0000
0F00
1100
2080
2080
3F80
2000
2000
1080
0F80
0000
0000
0000
0000
ENDCHAR

STARTCHAR f
ENCODING 102
SWIDTH 602 0
DWIDTH 10 0
BBX 10 20 0 -4
ATTRIBUTES   E4
BITMAP
0000
0000
0000
0000
0780
0800
0800
3F80
0800
0800
0800
0800
0800
0800
0800
0800
0000
0000
0000
0000
ENDCHAR

STARTCHAR g
ENCODING 103
SWIDTH 602 0
DWIDTH 10 0
BBX 10 20 0 -4
ATTRIBUTES   E4
BITMAP
0000
0000
0000
0000
0000
0000
0000
1D00
2300
4100
4100
4100
4100
4100
2300
3D00
0100
2200
3E00
0000
ENDCHAR

STARTCHAR h
ENCODING 104
SWIDTH 602 0
DWIDTH 10 0
BBX 10 20 0 -4
ATTRIBUTES   E4
BITMAP
0000
0000
0000
0000
2000
2000
2000
2700
3880
2080
2080
2080
2080
2080
2080
2080
0000
0000
0000
0000
ENDCHAR

STARTCHAR i
ENCODING 105
SWIDTH 602 0
DWIDTH 10 0
BBX 10 20 0 -4
ATTRIBUTES   E4
BITMAP
0000
0000
0000
0000
0400
0000
0000
3C00
0400
0400
0400
0400
0400
0400
0400
0400
0000
0000
0000
0000
ENDCHAR

STARTCHAR j
ENCODING 106
SWIDTH 602 0
DWIDTH 10 0
BBX 10 20 0 -4
ATTRIBUTES   E4
BITMAP
0000
0000
0000
0000
0200
0000
0000
3E00
0200
0200
0200
0200
0200
0200
0200
0200
0200
2200
3C00
0000
ENDCHAR

STARTCHAR k
ENCODING 107
SWIDTH 602 0
DWIDTH 10 0
BBX 10 20 0 -4
ATTRIBUTES   E4
BITMAP
0000
0000
0000
0000
2000
2000
2000
2180
2200
2400
2800
3800
2400
2200
2100
20C0
0000
0000
0000
0000
ENDCHAR

STARTCHAR l
ENCODING 108
SWIDTH 602 0
DWIDTH 10 0
BBX 10 20 0 -4
ATTRIBUTES   E4
BITMAP
0000
0000
0000
0000
3C00
0400
0400
0400
0400
0400
0400
0400
0400
0400
0400
0400
0000
0000
0000
0000
ENDCHAR

STARTCHAR m
ENCODING 109
SWIDTH 602 0
DWIDTH 10 0
BBX 10 20 0 -4
ATTRIBUTES   E4
BITMAP
0000
0000
0000
0000
0000
0000
0000
5DC0
6640
4440
4440
4440
4440
4440
4440
4440
0000
0000
0000
0000
ENDCHAR

STARTCHAR n
ENCODING 110
SWIDTH 602 0
DWIDTH 10 0
BBX 10 20 0 -4
ATTRIBUTES   E4
BITMAP
0000
0000
0000
0000
0000
0000
0000
2700
3880
2080
2080
2080
2080
2080
2080
2080
0000
0000
0000
0000
ENDCHAR

STARTCHAR o
ENCODING 111
SWIDTH 602 0
DWIDTH 10 0
BBX 10 20 0 -4
ATTRIBUTES   E4
BITMAP
0000
0000
0000
0000
0000
0000
0000
1E00
2100
4080
4080
4080
4080
4080
2100
1E00
0000
0000
0000
0000
ENDCHAR

STARTCHAR p
ENCODING 112
SWIDTH 602 0
DWIDTH 10 0
BBX 10 20 0 -4
ATTRIBUTES   E4
BITMAP
0000
0000
0000
0000
0000
0000
0000
2F00
3100
2080
2080
2080
2080
2080
3100
2E00
2000
2000
2000
0000
ENDCHAR

STARTCHAR q
ENCODING 113
SWIDTH 602 0
DWIDTH 10 0
BBX 10 20 0 -4
ATTRIBUTES   E4
BITMAP
0000
0000
0000
0000
0000
0000
0000
1D00
2300
4100
4100
4100
4100
4100
2300
3D00
0100
0100
0100
0000
ENDCHAR

STARTCHAR r
ENCODING 114
SWIDTH 602 0
DWIDTH 10 0
BBX 10 20 0 -4
ATTRIBUTES   E4
BITMAP
0000
0000
0000
0000
0000
0000
0000
1780
1C80
1000
1000
1000
1000
1000
1000
1000
0000
0000
0000
0000
ENDCHAR

STARTCHAR s
ENCODING 115
SWIDTH 602 0
DWIDTH 10 0
BBX 10 20 0 -4
ATTRIBUTES   E4
BITMAP
0000
0000
0000
0000
0000
0000
0000
1F00
2000
2000
3000
0E00
0300
0100
0100
3E00
0000
0000
0000
0000
ENDCHAR

STARTCHAR t
ENCODING 116
SWIDTH 602 0
DWIDTH 10 0
BBX 10 20 0 -4
ATTRIBUTES   E4
BITMAP
0000
0000
0000
0000
0000
0800
0800
3F80
0800
0800
0800
0800
0800
0800
0800
0780
0000
0000
0000
0000
ENDCHAR

STARTCHAR u
ENCODING 117
SWIDTH 602 0
DWIDTH 10 0
BBX 10 20 0 -4
ATTRIBUTES   E4
BITMAP
0000
0000
0000
0000
0000
0000
0000
2080
2080
2080
2080
2080
2080
2080
2380
1C80
0000
0000
0000
0000
ENDCHAR

STARTCHAR v
ENCODING 118
SWIDTH 602 0
DWIDTH 10 0
BBX 10 20 0 -4
ATTRIBUTES   E4
BITMAP
0000
0000
0000
0000
0000
0000
0000
6040
2080
2080
1180
1100
0900
0A00
0E00
0400
0000
0000
0000
0000
ENDCHAR

STARTCHAR w
ENCODING 119
SWIDTH 602 0
DWIDTH 10 0
BBX 10 20 0 -4
ATTRIBUTES   E4
BITMAP
0000
0000
0000
0000
0000
0000
0000
C040
CC40
CCC0
4C80
5280
5280
7280
7380
2100
0000
0000
0000
0000
ENDCHAR

STARTCHAR x
ENCODING 120
SWIDTH 602 0
DWIDTH 10 0
BBX 10 20 0 -4
ATTRIBUTES   E4
BITMAP
0000
0000
0000
0000
0000
0000
0000
6080
1100
1A00
0E00
0400
0E00
1300
3100
6080
0000
0000
0000
0000
ENDCHAR

STARTCHAR y
ENCODING 121
SWIDTH 602 0
DWIDTH 10 0
BBX 10 20 0 -4
ATTRIBUTES   E4
BITMAP
0000
0000
0000
0000
0000
0000
0000
60C0
2080
2080
1100
1100
0A00
0A00
0600
0400
0C00
0800
7000
0000
ENDCHAR

STARTCHAR z
ENCODING 122
SWIDTH 602 0
DWIDTH 10 0
BBX 10 20 0 -4
ATTRIBUTES   E4
BITMAP
0000
0000
0000
0000
0000
0000
0000
7F80
0100
0200
0400
0C00
1800
3000
2000
7F80
0000
0000
0000
0000
ENDCHAR

STARTCHAR braceleft
ENCODING 123
SWIDTH 602 0
DWIDTH 10 0
BBX 10 20 0 -4
ATTRIBUTES   E4
BITMAP
0000
0000
0000
0000
0700
0800
0800
0800
0800
0800
3800
0800
0800
0800
0800
0800
0800
0700
0000
0000
ENDCHAR

STARTCHAR bar
ENCODING 124
SWIDTH 602 0
DWIDTH 10 0
BBX 10 20 0 -4
ATTRIBUTES   E4
BITMAP
0000
0000
0000
0000
0400
0400
0400
0400
0400
0400
0400
0400
0400
0400
0400
0400
0400
0400
0000
0000
ENDCHAR

STARTCHAR braceright
ENCODING 125
SWIDTH 602 0
DWIDTH 10 0
BBX 10 20 0 -4
ATTRIBUTES   E4
BITMAP
0000
0000
0000
0000
3800
0400
0400
0400
0400
0400
0780
0400
0400
0400
0400
0400
0400
3800
0000
0000
ENDCHAR

STARTCHAR asciitilde
ENCODING 126
SWIDTH 602 0
DWIDTH 10 0
BBX 10 20 0 -4
ATTRIBUTES   E4
BITMAP
0000
0000
0000
0000
0000
0000
0000
0000
0000
0000
0000
3C40
4780
0000
0000
0000
0000
0000
0000
0000
ENDCHAR

STARTCHAR exclamdown
ENCODING 161
SWIDTH 602 0
DWIDTH 10 0
BBX 10 20 0 -4
ATTRIBUTES   E4
BITMAP
0000
0000
0000
0000
0000
0000
0000
0400
0000
0000
0400
0400
0400
0400
0400
0400
0400
0400
0400
0000
ENDCHAR

STARTCHAR cent
ENCODING 162
SWIDTH 602 0
DWIDTH 10 0
BBX 10 20 0 -4
ATTRIBUTES   E4
BITMAP
0000
0000
0000
0000
0400
0F00
1400
2400
2400
2400
2400
2400
1500
1F00
0400
0400
0000
0000
0000
0000
ENDCHAR

STARTCHAR sterling
ENCODING 163
SWIDTH 602 0
DWIDTH 10 0
BBX 10 20 0 -4
ATTRIBUTES   E4
BITMAP
0000
0000
0000
0000
0700
0800
0800
0800
0800
1E00
0800
0800
0800
0800
3000
3F00
0000
0000
0000
0000
ENDCHAR

STARTCHAR currency
ENCODING 164
SWIDTH 602 0
DWIDTH 10 0
BBX 10 20 0 -4
ATTRIBUTES   E4
BITMAP
0000
0000
0000
0000
0000
0000
4080
3F00
1200
2100
2100
1200
2D00
4080
0000
0000
0000
0000
0000
0000
ENDCHAR

STARTCHAR yen
ENCODING 165
SWIDTH 602 0
DWIDTH 10 0
BBX 10 20 0 -4
ATTRIBUTES   E4
BITMAP
0000
0000
0000
0000
60C0
2080
1100
0900
0A00
0400
1F00
0400
1F00
0400
0400
0400
0000
0000
0000
0000
ENDCHAR

STARTCHAR brokenbar
ENCODING 166
SWIDTH 602 0
DWIDTH 10 0
BBX 10 20 0 -4
ATTRIBUTES   E4
BITMAP
0000
0000
0000
0000
0400
0400
0400
0400
0400
0000
0000
0000
0400
0400
0400
0400
0400
0400
0000
0000
ENDCHAR

STARTCHAR section
ENCODING 167
SWIDTH 602 0
DWIDTH 10 0
BBX 10 20 0 -4
ATTRIBUTES   E4
BITMAP
0000
0000
0000
0000
1F00
2100
2000
3000
1C00
2200
2100
3100
0F00
0200
0100
0100
2100
3E00
0000
0000
ENDCHAR

STARTCHAR dieresis
ENCODING 168
SWIDTH 602 0
DWIDTH 10 0
BBX 10 20 0 -4
ATTRIBUTES   E4
BITMAP
0000
0000
0000
0000
1200
0000
0000
0000
0000
0000
0000
0000
0000
0000
0000
0000
0000
0000
0000
0000
ENDCHAR

STARTCHAR copyright
ENCODING 169
SWIDTH 602 0
DWIDTH 10 0
BBX 10 20 0 -4
ATTRIBUTES   E4
BITMAP
0000
0000
0000
0000
1F00
3180
2080
4F40
5940
5040
5040
5040
5840
2F80
3180
1F00
0000
0000
0000
0000
ENDCHAR

STARTCHAR ordfeminine
ENCODING 170
SWIDTH 602 0
DWIDTH 10 0
BBX 10 20 0 -4
ATTRIBUTES   E4
BITMAP
0000
0000
0000
0000
3C00
2200
1E00
2200
2200
1F00
0000
0000
0000
0000
0000
0000
0000
0000
0000
0000
ENDCHAR

STARTCHAR guillemotleft
ENCODING 171
SWIDTH 602 0
DWIDTH 10 0
BBX 10 20 0 -4
ATTRIBUTES   E4
BITMAP
0000
0000
0000
0000
0000
0000
0000
0000
0440
0880
3300
6600
3300
1980
0440
0000
0000
0000
0000
0000
ENDCHAR

STARTCHAR logicalnot
ENCODING 172
SWIDTH 602 0
DWIDTH 10 0
BBX 10 20 0 -4
ATTRIBUTES   E4
BITMAP
0000
0000
0000
0000
0000
0000
0000
0000
0000
0000
7FC0
0040
0040
0040
0000
0000
0000
0000
0000
0000
ENDCHAR

STARTCHAR hyphen
ENCODING 173
SWIDTH 602 0
DWIDTH 10 0
BBX 10 20 0 -4
ATTRIBUTES   E4
BITMAP
0000
0000
0000
0000
0000
0000
0000
0000
0000
0000
0000
3F80
0000
0000
0000
0000
0000
0000
0000
0000
ENDCHAR

STARTCHAR registered
ENCODING 174
SWIDTH 602 0
DWIDTH 10 0
BBX 10 20 0 -4
ATTRIBUTES   E4
BITMAP
0000
0000
0000
0000
0E00
1F00
2A80
2C80
2A80
1100
0E00
0000
0000
0000
0000
0000
0000
0000
0000
0000
ENDCHAR

STARTCHAR macron
ENCODING 175
SWIDTH 602 0
DWIDTH 10 0
BBX 10 20 0 -4
ATTRIBUTES   E4
BITMAP
0000
0000
0000
0000
1F00
0000
0000
0000
0000
0000
0000
0000
0000
0000
0000
0000
0000
0000
0000
0000
ENDCHAR

STARTCHAR degree
ENCODING 176
SWIDTH 602 0
DWIDTH 10 0
BBX 10 20 0 -4
ATTRIBUTES   E4
BITMAP
0000
0000
0000
0000
0E00
0A00
0E00
0000
0000
0000
0000
0000
0000
0000
0000
0000
0000
0000
0000
0000
ENDCHAR

STARTCHAR plusminus
ENCODING 177
SWIDTH 602 0
DWIDTH 10 0
BBX 10 20 0 -4
ATTRIBUTES   E4
BITMAP
0000
0000
0000
0000
0000
0000
0000
0400
0400
0400
7FC0
0400
0400
0400
0000
7FC0
0000
0000
0000
0000
ENDCHAR

STARTCHAR twosuperior
ENCODING 178
SWIDTH 602 0
DWIDTH 10 0
BBX 10 20 0 -4
ATTRIBUTES   E4
BITMAP
0000
0000
0000
0000
1C00
0200
0200
0400
0800
1000
1E00
0000
0000
0000
0000
0000
0000
0000
0000
0000
ENDCHAR

STARTCHAR threesuperior
ENCODING 179
SWIDTH 602 0
DWIDTH 10 0
BBX 10 20 0 -4
ATTRIBUTES   E4
BITMAP
0000
0000
0000
0000
1E00
0200
0200
0C00
0200
0200
1C00
0000
0000
0000
0000
0000
0000
0000
0000
0000
ENDCHAR

STARTCHAR acute
ENCODING 180
SWIDTH 602 0
DWIDTH 10 0
BBX 10 20 0 -4
ATTRIBUTES   E4
BITMAP
0000
0000
0000
0000
0600
1800
0000
0000
0000
0000
0000
0000
0000
0000
0000
0000
0000
0000
0000
0000
ENDCHAR

STARTCHAR mu
ENCODING 181
SWIDTH 602 0
DWIDTH 10 0
BBX 10 20 0 -4
ATTRIBUTES   E4
BITMAP
0000
0000
0000
0000
0000
0000
0000
2080
2080
2080
2080
2080
2080
2080
2380
3C80
2000
2000
0000
0000
ENDCHAR

STARTCHAR paragraph
ENCODING 182
SWIDTH 602 0
DWIDTH 10 0
BBX 10 20 0 -4
ATTRIBUTES   E4
BITMAP
0000
0000
0000
0000
1E00
3A00
3A00
3A00
3A00
1A00
0A00
0A00
0A00
0A00
0A00
0A00
0A00
0A00
0000
0000
ENDCHAR

STARTCHAR periodcentered
ENCODING 183
SWIDTH 602 0
DWIDTH 10 0
BBX 10 20 0 -4
ATTRIBUTES   E4
BITMAP
0000
0000
0000
0000
0000
0000
0000
0000
0000
0000
0000
0000
0400
0000
0000
0000
0000
0000
0000
0000
ENDCHAR

STARTCHAR cedilla
ENCODING 184
SWIDTH 602 0
DWIDTH 10 0
BBX 10 20 0 -4
ATTRIBUTES   E4
BITMAP
0000
0000
0000
0000
0000
0000
0000
0000
0000
0000
0000
0000
0000
0000
0000
0800
0C00
0400
0C00
0000
ENDCHAR

STARTCHAR onesuperior
ENCODING 185
SWIDTH 602 0
DWIDTH 10 0
BBX 10 20 0 -4
ATTRIBUTES   E4
BITMAP
0000
0000
0000
0000
3800
0800
0800
0800
0800
0800
3E00
0000
0000
0000
0000
0000
0000
0000
0000
0000
ENDCHAR

STARTCHAR ordmasculine
ENCODING 186
SWIDTH 602 0
DWIDTH 10 0
BBX 10 20 0 -4
ATTRIBUTES   E4
BITMAP
0000
0000
0000
0000
1E00
3300
2100
2100
3300
1E00
0000
0000
0000
0000
0000
0000
0000
0000
0000
0000
ENDCHAR

STARTCHAR guillemotright
ENCODING 187
SWIDTH 602 0
DWIDTH 10 0
BBX 10 20 0 -4
ATTRIBUTES   E4
BITMAP
0000
0000
0000
0000
0000
0000
0000
0000
4400
2200
1980
0CC0
1980
3300
4400
0000
0000
0000
0000
0000
ENDCHAR

STARTCHAR onequarter
ENCODING 188
SWIDTH 602 0
DWIDTH 10 0
BBX 10 20 0 -4
ATTRIBUTES   E4
BITMAP
0000
0000
0000
0000
E040
2080
2100
2300
2200
2580
F980
1A80
1680
27C0
4080
C080
0000
0000
0000
0000
ENDCHAR

STARTCHAR onehalf
ENCODING 189
SWIDTH 602 0
DWIDTH 10 0
BBX 10 20 0 -4
ATTRIBUTES   E4
BITMAP
0000
0000
0000
0000
E040
2080
2100
2300
2200
2780
F840
1840
1080
2100
4200
C3C0
0000
0000
0000
0000
ENDCHAR

STARTCHAR threequarters
ENCODING 190
SWIDTH 602 0
DWIDTH 10 0
BBX 10 20 0 -4
ATTRIBUTES   E4
BITMAP
0000
0000
0000
0000
F040
1080
1100
6300
1200
1580
E980
1A80
1680
27C0
4080
C080
0000
0000
0000
0000
ENDCHAR

STARTCHAR questiondown
ENCODING 191
SWIDTH 602 0
DWIDTH 10 0
BBX 10 20 0 -4
ATTRIBUTES   E4
BITMAP
0000
0000
0000
0000
0000
0000
0000
0200
0000
0000
0200
0200
0400
0800
1000
2000
2080
3080
1F80
0000
ENDCHAR

STARTCHAR Agrave
ENCODING 192
SWIDTH 602 0
DWIDTH 10 0
BBX 10 20 0 -4
ATTRIBUTES   E4
BITMAP
0000
1800
0600
0000
0C00
0C00
0C00
1200
1200
1200
2100
2100
7F00
4080
4080
8080
0040
0000
0000
0000
ENDCHAR

STARTCHAR Aacute
ENCODING 193
SWIDTH 602 0
DWIDTH 10 0
BBX 10 20 0 -4
ATTRIBUTES   E4
BITMAP
0000
0600
1800
0000
0C00
0C00
0C00
1200
1200
1200
2100
2100
7F00
4080
4080
8080
0040
0000
0000
0000
ENDCHAR

STARTCHAR Acircumflex
ENCODING 194
SWIDTH 602 0
DWIDTH 10 0
BBX 10 20 0 -4
ATTRIBUTES   E4
BITMAP
0C00
1200
3300
0000
0C00
0C00
0C00
1200
1200
1200
2100
2100
7F00
4080
4080
8080
0040
0000
0000
0000
ENDCHAR

STARTCHAR Atilde
ENCODING 195
SWIDTH 602 0
DWIDTH 10 0
BBX 10 20 0 -4
ATTRIBUTES   E4
BITMAP
0000
0000
1F00
0000
0C00
0C00
0C00
1200
1200
1200
2100
2100
7F00
4080
4080
8080
0040
0000
0000
0000
ENDCHAR

STARTCHAR Adieresis
ENCODING 196
SWIDTH 602 0
DWIDTH 10 0
BBX 10 20 0 -4
ATTRIBUTES   E4
BITMAP
0000
0000
1200
0000
0C00
0C00
0C00
1200
1200
1200
2100
2100
7F00
4080
4080
8080
0040
0000
0000
0000
ENDCHAR

STARTCHAR Aring
ENCODING 197
SWIDTH 602 0
DWIDTH 10 0
BBX 10 20 0 -4
ATTRIBUTES   E4
BITMAP
0000
0E00
0E00
0000
0C00
0C00
0C00
1200
1200
1200
2100
2100
7F00
4080
4080
8080
0040
0000
0000
0000
ENDCHAR

STARTCHAR AE
ENCODING 198
SWIDTH 602 0
DWIDTH 10 0
BBX 10 20 0 -4
ATTRIBUTES   E4
BITMAP
0000
0000
0000
0000
0F80
0C00
0C00
1C00
1400
1700
2400
2400
7C00
4400
4400
8780
0000
0000
0000
0000
ENDCHAR

STARTCHAR Ccedilla
ENCODING 199
SWIDTH 602 0
DWIDTH 10 0
BBX 10 20 0 -4
ATTRIBUTES   E4
BITMAP
0000
0000
0000
0000
0F80
1080
2000
4000
4000
4000
4000
4000
4000
2000
1080
0F80
0800
0C00
0400
0C00
ENDCHAR

STARTCHAR Egrave
ENCODING 200
SWIDTH 602 0
DWIDTH 10 0
BBX 10 20 0 -4
ATTRIBUTES   E4
BITMAP
0000
1800
0600
0000
3F80
2000
2000
2000
2000
3F00
2000
2000
2000
2000
2000
3F80
0000
0000
0000
0000
ENDCHAR

STARTCHAR Eacute
ENCODING 201
SWIDTH 602 0
DWIDTH 10 0
BBX 10 20 0 -4
ATTRIBUTES   E4
BITMAP
0000
0600
1800
0000
3F80
2000
2000
2000
2000
3F00
2000
2000
2000
2000
2000
3F80
0000
0000
0000
0000
ENDCHAR

STARTCHAR Ecircumflex
ENCODING 202
SWIDTH 602 0
DWIDTH 10 0
BBX 10 20 0 -4
ATTRIBUTES   E4
BITMAP
0C00
1200
3300
0000
3F80
2000
2000
2000
2000
3F00
2000
2000
2000
2000
2000
3F80
0000
0000
0000
0000
ENDCHAR

STARTCHAR Edieresis
ENCODING 203
SWIDTH 602 0
DWIDTH 10 0
BBX 10 20 0 -4
ATTRIBUTES   E4
BITMAP
0000
0000
1200
0000
3F80
2000
2000
2000
2000
3F00
2000
2000
2000
2000
2000
3F80
0000
0000
0000
0000
ENDCHAR

STARTCHAR Igrave
ENCODING 204
SWIDTH 602 0
DWIDTH 10 0
BBX 10 20 0 -4
ATTRIBUTES   E4
BITMAP
0000
0C00
0300
0000
3F80
0400
0400
0400
0400
0400
0400
0400
0400
0400
0400
3F80
0000
0000
0000
0000
ENDCHAR

STARTCHAR Iacute
ENCODING 205
SWIDTH 602 0
DWIDTH 10 0
BBX 10 20 0 -4
ATTRIBUTES   E4
BITMAP
0000
0600
1800
0000
3F80
0400
0400
0400
0400
0400
0400
0400
0400
0400
0400
3F80
0000
0000
0000
0000
ENDCHAR

STARTCHAR Icircumflex
ENCODING 206
SWIDTH 602 0
DWIDTH 10 0
BBX 10 20 0 -4
ATTRIBUTES   E4
BITMAP
0C00
1200
3300
0000
3F80
0400
0400
0400
0400
0400
0400
0400
0400
0400
0400
3F80
0000
0000
0000
0000
ENDCHAR

STARTCHAR Idieresis
ENCODING 207
SWIDTH 602 0
DWIDTH 10 0
BBX 10 20 0 -4
ATTRIBUTES   E4
BITMAP
0000
0000
1200
0000
3F80
0400
0400
0400
0400
0400
0400
0400
0400
0400
0400
3F80
0000
0000
0000
0000
ENDCHAR

STARTCHAR Eth
ENCODING 208
SWIDTH 602 0
DWIDTH 10 0
BBX 10 20 0 -4
ATTRIBUTES   E4
BITMAP
0000
0000
0000
0000
7E00
4300
4100
4080
4080
F080
4080
4080
4080
4100
4300
7C00
0000
0000
0000
0000
ENDCHAR

STARTCHAR Ntilde
ENCODING 209
SWIDTH 602 0
DWIDTH 10 0
BBX 10 20 0 -4
ATTRIBUTES   E4
BITMAP
0000
0000
1F00
0000
2080
3080
3080
2880
2880
2480
2480
2280
2280
2180
2180
2080
0000
0000
0000
0000
ENDCHAR

STARTCHAR Ograve
ENCODING 210
SWIDTH 602 0
DWIDTH 10 0
BBX 10 20 0 -4
ATTRIBUTES   E4
BITMAP
0000
1800
0600
0000
1E00
2100
2100
4080
4080
4080
4080
4080
4080
2100
2100
1E00
0000
0000
0000
0000
ENDCHAR

STARTCHAR Oacute
ENCODING 211
SWIDTH 602 0
DWIDTH 10 0
BBX 10 20 0 -4
ATTRIBUTES   E4
BITMAP
0000
0600
1800
0000
1E00
2100
2100
4080
4080
4080
4080
4080
4080
2100
2100
1E00
0000
0000
0000
0000
ENDCHAR

STARTCHAR Ocircumflex
ENCODING 212
SWIDTH 602 0
DWIDTH 10 0
BBX 10 20 0 -4
ATTRIBUTES   E4
BITMAP
0C00
1200
3300
0000
1E00
2100
2100
4080
4080
4080
4080
4080
4080
2100
2100
1E00
0000
0000
0000
0000
ENDCHAR

STARTCHAR Otilde
ENCODING 213
SWIDTH 602 0
DWIDTH 10 0
BBX 10 20 0 -4
ATTRIBUTES   E4
BITMAP
0000
0000
1F00
0000
1E00
2100
2100
4080
4080
4080
4080
4080
4080
2100
2100
1E00
0000
0000
0000
0000
ENDCHAR

STARTCHAR Odieresis
ENCODING 214
SWIDTH 602 0
DWIDTH 10 0
BBX 10 20 0 -4
ATTRIBUTES   E4
BITMAP
0000
0000
1200
0000
1E00
2100
2100
4080
4080
4080
4080
4080
4080
2100
2100
1E00
0000
0000
0000
0000
ENDCHAR

STARTCHAR multiply
ENCODING 215
SWIDTH 602 0
DWIDTH 10 0
BBX 10 20 0 -4
ATTRIBUTES   E4
BITMAP
0000
0000
0000
0000
0000
0000
0000
4040
20C0
1100
0A00
0400
0A00
1100
2080
40C0
0000
0000
0000
0000
ENDCHAR

STARTCHAR Oslash
ENCODING 216
SWIDTH 602 0
DWIDTH 10 0
BBX 10 20 0 -4
ATTRIBUTES   E4
BITMAP
0000
0000
0000
0000
1E40
2180
2100
4180
4280
4680
4480
4880
5880
3100
2100
7E00
0000
0000
0000
0000
ENDCHAR

STARTCHAR Ugrave
ENCODING 217
SWIDTH 602 0
DWIDTH 10 0
BBX 10 20 0 -4
ATTRIBUTES   E4
BITMAP
0000
0C00
0300
0000
2080
2080
2080
2080
2080
2080
2080
2080
2080
2080
1100
0F00
0000
0000
0000
0000
ENDCHAR

STARTCHAR Uacute
ENCODING 218
SWIDTH 602 0
DWIDTH 10 0
BBX 10 20 0 -4
ATTRIBUTES   E4
BITMAP
0000
0600
1800
0000
2080
2080
2080
2080
2080
2080
2080
2080
2080
2080
1100
0F00
0000
0000
0000
0000
ENDCHAR

STARTCHAR Ucircumflex
ENCODING 219
SWIDTH 602 0
DWIDTH 10 0
BBX 10 20 0 -4
ATTRIBUTES   E4
BITMAP
0C00
1200
3300
0000
2080
2080
2080
2080
2080
2080
2080
2080
2080
2080
1100
0F00
0000
0000
0000
0000
ENDCHAR

STARTCHAR Udieresis
ENCODING 220
SWIDTH 602 0
DWIDTH 10 0
BBX 10 20 0 -4
ATTRIBUTES   E4
BITMAP
0000
0000
1200
0000
2080
2080
2080
2080
2080
2080
2080
2080
2080
2080
1100
0F00
0000
0000
0000
0000
ENDCHAR

STARTCHAR Yacute
ENCODING 221
SWIDTH 602 0
DWIDTH 10 0
BBX 10 20 0 -4
ATTRIBUTES   E4
BITMAP
0000
0600
1800
0000
60C0
2080
1180
1100
0A00
0A00
0400
0400
0400
0400
0400
0400
0000
0000
0000
0000
ENDCHAR

STARTCHAR Thorn
ENCODING 222
SWIDTH 602 0
DWIDTH 10 0
BBX 10 20 0 -4
ATTRIBUTES   E4
BITMAP
0000
0000
0000
0000
2000
2000
3F00
2180
2080
2080
2080
2100
3E00
2000
2000
2000
0000
0000
0000
0000
ENDCHAR

STARTCHAR germandbls
ENCODING 223
SWIDTH 602 0
DWIDTH 10 0
BBX 10 20 0 -4
ATTRIBUTES   E4
BITMAP
0000
0000
0000
0000
1E00
2100
2100
2200
2600
2400
2600
2180
20C0
2040
2440
2780
0000
0000
0000
0000
ENDCHAR

STARTCHAR agrave
ENCODING 224
SWIDTH 602 0
DWIDTH 10 0
BBX 10 20 0 -4
ATTRIBUTES   E4
BITMAP
0000
0000
0000
0000
1800
0600
0000
3E00
2100
0100
0100
1F00
6100
4100
4300
3D80
0000
0000
0000
0000
ENDCHAR

STARTCHAR aacute
ENCODING 225
SWIDTH 602 0
DWIDTH 10 0
BBX 10 20 0 -4
ATTRIBUTES   E4
BITMAP
0000
0000
0000
0000
0C00
3000
0000
3E00
2100
0100
0100
1F00
6100
4100
4300
3D80
0000
0000
0000
0000
ENDCHAR

STARTCHAR acircumflex
ENCODING 226
SWIDTH 602 0
DWIDTH 10 0
BBX 10 20 0 -4
ATTRIBUTES   E4
BITMAP
0000
0000
0000
0C00
1200
3300
0000
3E00
2100
0100
0100
1F00
6100
4100
4300
3D80
0000
0000
0000
0000
ENDCHAR

STARTCHAR atilde
ENCODING 227
SWIDTH 602 0
DWIDTH 10 0
BBX 10 20 0 -4
ATTRIBUTES   E4
BITMAP
0000
0000
0000
0000
0000
3E00
0000
3E00
2100
0100
0100
1F00
6100
4100
4300
3D80
0000
0000
0000
0000
ENDCHAR

STARTCHAR adieresis
ENCODING 228
SWIDTH 602 0
DWIDTH 10 0
BBX 10 20 0 -4
ATTRIBUTES   E4
BITMAP
0000
0000
0000
0000
0000
1200
0000
3E00
2100
0100
0100
1F00
6100
4100
4300
3D80
0000
0000
0000
0000
ENDCHAR

STARTCHAR aring
ENCODING 229
SWIDTH 602 0
DWIDTH 10 0
BBX 10 20 0 -4
ATTRIBUTES   E4
BITMAP
0000
0000
0000
0000
1C00
1C00
0000
3E00
2100
0100
0100
1F00
6100
4100
4300
3D80
0000
0000
0000
0000
ENDCHAR

STARTCHAR ae
ENCODING 230
SWIDTH 602 0
DWIDTH 10 0
BBX 10 20 0 -4
ATTRIBUTES   E4
BITMAP
0000
0000
0000
0000
0000
0000
0000
3F80
0640
0440
0440
3FC0
6400
4400
4440
3BC0
0000
0000
0000
0000
ENDCHAR

STARTCHAR ccedilla
ENCODING 231
SWIDTH 602 0
DWIDTH 10 0
BBX 10 20 0 -4
ATTRIBUTES   E4
BITMAP
0000
0000
0000
0000
0000
0000
0000
0F80
1080
2000
2000
2000
2000
2000
1080
0F80
0400
0600
0200
0600
ENDCHAR

STARTCHAR egrave
ENCODING 232
SWIDTH 602 0
DWIDTH 10 0
BBX 10 20 0 -4
ATTRIBUTES   E4
BITMAP
0000
0000
0000
0000
0C00
0300
0000
0F00
1100
2080
2080
3F80
2000
2000
1080
0F80
0000
0000
0000
0000
ENDCHAR

STARTCHAR eacute
ENCODING 233
SWIDTH 602 0
DWIDTH 10 0
BBX 10 20 0 -4
ATTRIBUTES   E4
BITMAP
0000
0000
0000
0000
0600
1800
0000
0F00
1100
2080
2080
3F80
2000
2000
1080
0F80
0000
0000
0000
0000
ENDCHAR

STARTCHAR ecircumflex
ENCODING 234
SWIDTH 602 0
DWIDTH 10 0
BBX 10 20 0 -4
ATTRIBUTES   E4
BITMAP
0000
0000
0000
0C00
1200
3300
0000
0F00
1100
2080
2080
3F80
2000
2000
1080
0F80
0000
0000
0000
0000
ENDCHAR

STARTCHAR edieresis
ENCODING 235
SWIDTH 602 0
DWIDTH 10 0
BBX 10 20 0 -4
ATTRIBUTES   E4
BITMAP
0000
0000
0000
0000
0000
1200
0000
0F00
1100
2080
2080
3F80
2000
2000
1080
0F80
0000
0000
0000
0000
ENDCHAR

STARTCHAR igrave
ENCODING 236
SWIDTH 602 0
DWIDTH 10 0
BBX 10 20 0 -4
ATTRIBUTES   E4
BITMAP
0000
0000
0000
0000
1800
0600
0000
3C00
0400
0400
0400
0400
0400
0400
0400
0400
0000
0000
0000
0000
ENDCHAR

STARTCHAR iacute
ENCODING 237
SWIDTH 602 0
DWIDTH 10 0
BBX 10 20 0 -4
ATTRIBUTES   E4
BITMAP
0000
0000
0000
0000
0600
1800
0000
3C00
0400
0400
0400
0400
0400
0400
0400
0400
0000
0000
0000
0000
ENDCHAR

STARTCHAR icircumflex
ENCODING 238
SWIDTH 602 0
DWIDTH 10 0
BBX 10 20 0 -4
ATTRIBUTES   E4
BITMAP
0000
0000
0000
0C00
1200
3300
0000
3C00
0400
0400
0400
0400
0400
0400
0400
0400
0000
0000
0000
0000
ENDCHAR

STARTCHAR idieresis
ENCODING 239
SWIDTH 602 0
DWIDTH 10 0
BBX 10 20 0 -4
ATTRIBUTES   E4
BITMAP
0000
0000
0000
0000
0000
1200
0000
3C00
0400
0400
0400
0400
0400
0400
0400
0400
0000
0000
0000
0000
ENDCHAR

STARTCHAR eth
ENCODING 240
SWIDTH 602 0
DWIDTH 10 0
BBX 10 20 0 -4
ATTRIBUTES   E4
BITMAP
0000
0000
0000
0000
7E00
0C00
3600
2300
1F00
2180
4080
4080
4080
4080
2100
1E00
0000
0000
0000
0000
ENDCHAR

STARTCHAR ntilde
ENCODING 241
SWIDTH 602 0
DWIDTH 10 0
BBX 10 20 0 -4
ATTRIBUTES   E4
BITMAP
0000
0000
0000
0000
0000
1F00
0000
2700
3880
2080
2080
2080
2080
2080
2080
2080
0000
0000
0000
0000
ENDCHAR

STARTCHAR ograve
ENCODING 242
SWIDTH 602 0
DWIDTH 10 0
BBX 10 20 0 -4
ATTRIBUTES   E4
BITMAP
0000
0000
0000
0000
1800
0600
0000
1E00
2100
4080
4080
4080
4080
4080
2100
1E00
0000
0000
0000
0000
ENDCHAR

STARTCHAR oacute
ENCODING 243
SWIDTH 602 0
DWIDTH 10 0
BBX 10 20 0 -4
ATTRIBUTES   E4
BITMAP
0000
0000
0000
0000
0600
1800
0000
1E00
2100
4080
4080
4080
4080
4080
2100
1E00
0000
0000
0000
0000
ENDCHAR

STARTCHAR ocircumflex
ENCODING 244
SWIDTH 602 0
DWIDTH 10 0
BBX 10 20 0 -4
ATTRIBUTES   E4
BITMAP
0000
0000
0000
0C00
1200
3300
0000
1E00
2100
4080
4080
4080
4080
4080
2100
1E00
0000
0000
0000
0000
ENDCHAR

STARTCHAR otilde
ENCODING 245
SWIDTH 602 0
DWIDTH 10 0
BBX 10 20 0 -4
ATTRIBUTES   E4
BITMAP
0000
0000
0000
0000
0000
1F00
0000
1E00
2100
4080
4080
4080
4080
4080
2100
1E00
0000
0000
0000
0000
ENDCHAR

STARTCHAR odieresis
ENCODING 246
SWIDTH 602 0
DWIDTH 10 0
BBX 10 20 0 -4
ATTRIBUTES   E4
BITMAP
0000
0000
0000
0000
0000
1200
0000
1E00
2100
4080
4080
4080
4080
4080
2100
1E00
0000
0000
0000
0000
ENDCHAR

STARTCHAR divide
ENCODING 247
SWIDTH 602 0
DWIDTH 10 0
BBX 10 20 0 -4
ATTRIBUTES   E4
BITMAP
0000
0000
0000
0000
0000
0000
0000
0400
0000
0000
0000
3F80
0000
0000
0000
0400
0000
0000
0000
0000
ENDCHAR

STARTCHAR oslash
ENCODING 248
SWIDTH 602 0
DWIDTH 10 0
BBX 10 20 0 -4
ATTRIBUTES   E4
BITMAP
0000
0000
0000
0000
0000
0000
0000
1E80
2100
4280
4680
4480
4880
5080
3100
7E00
0000
0000
0000
0000
ENDCHAR

STARTCHAR ugrave
ENCODING 249
SWIDTH 602 0
DWIDTH 10 0
BBX 10 20 0 -4
ATTRIBUTES   E4
BITMAP
0000
0000
0000
0000
0C00
0300
0000
2080
2080
2080
2080
2080
2080
2080
2380
1C80
0000
0000
0000
0000
ENDCHAR

STARTCHAR uacute
ENCODING 250
SWIDTH 602 0
DWIDTH 10 0
BBX 10 20 0 -4
ATTRIBUTES   E4
BITMAP
0000
0000
0000
0000
0600
1800
0000
2080
2080
2080
2080
2080
2080
2080
2380
1C80
0000
0000
0000
0000
ENDCHAR

STARTCHAR ucircumflex
ENCODING 251
SWIDTH 602 0
DWIDTH 10 0
BBX 10 20 0 -4
ATTRIBUTES   E4
BITMAP
0000
0000
0000
0600
0900
1980
0000
2080
2080
2080
2080
2080
2080
2080
2380
1C80
0000
0000
0000
0000
ENDCHAR

STARTCHAR udieresis
ENCODING 252
SWIDTH 602 0
DWIDTH 10 0
BBX 10 20 0 -4
ATTRIBUTES   E4
BITMAP
0000
0000
0000
0000
0000
0900
0000
2080
2080
2080
2080
2080
2080
2080
2380
1C80
0000
0000
0000
0000
ENDCHAR

STARTCHAR yacute
ENCODING 253
SWIDTH 602 0
DWIDTH 10 0
BBX 10 20 0 -4
ATTRIBUTES   E4
BITMAP
0000
0000
0000
0000
0600
1800
0000
60C0
2080
2080
1100
1100
0A00
0A00
0600
0400
0C00
0800
7000
0000
ENDCHAR

STARTCHAR thorn
ENCODING 254
SWIDTH 602 0
DWIDTH 10 0
BBX 10 20 0 -4
ATTRIBUTES   E4
BITMAP
0000
0000
0000
0000
0000
2000
2000
2F00
3100
2080
2080
2080
2080
2080
3100
2E00
2000
2000
2000
0000
ENDCHAR

STARTCHAR ydieresis
ENCODING 255
SWIDTH 602 0
DWIDTH 10 0
BBX 10 20 0 -4
ATTRIBUTES   E4
BITMAP
0000
0000
0000
0000
0000
1200
0000
60C0
2080
2080
1100
1100
0A00
0A00
0600
0400
0C00
0800
7000
0000
ENDCHAR

ENDFONT
