STARTFONT 2.1
FONT -Linotype-Times-Medium-I-Normal--14-140-72-72-P-72-ISO8859-1
SIZE 14 72 72
FONTBOUNDINGBOX 17 18 -4 -4

STARTPROPERTIES 22
FONTNAME_REGISTRY "-"
FOUNDRY "Linotype"
FAMILY_NAME "Times"
WEIGHT_NAME "Medium"
SLANT "I"
SETWIDTH_NAME "Normal"
ADD_STYLE_NAME ""
PIXEL_SIZE 14
POINT_SIZE 140
RESOLUTION_X 72
RESOLUTION_Y 72
SPACING "P"
CHARSET_REGISTRY "ISO8859"
CHARSET_ENCODING "1"
FULL_NAME "Times-Italic"
AVERAGE_WIDTH 72
WEIGHT 10
X_HEIGHT 7
QUAD_WIDTH 8
DEFAULT_CHAR 32
FONT_DESCENT 3
FONT_ASCENT 12
ENDPROPERTIES

CHARS 190

STARTCHAR space
ENCODING 32
SWIDTH 250 0
DWIDTH 4 0
BBX 1 1 0 0
BITMAP
00
ENDCHAR

STARTCHAR exclam
ENCODING 33
SWIDTH 333 0
DWIDTH 5 0
BBX 3 10 1 0
BITMAP
20
20
20
40
40
40
40
00
00
80
ENDCHAR

STARTCHAR quotedbl
ENCODING 34
SWIDTH 420 0
DWIDTH 6 0
BBX 4 3 2 7
BITMAP
50
A0
A0
ENDCHAR

STARTCHAR numbersign
ENCODING 35
SWIDTH 500 0
DWIDTH 7 0
BBX 7 10 0 0
BITMAP
12
12
24
7E
24
48
FC
48
90
90
ENDCHAR

STARTCHAR dollar
ENCODING 36
SWIDTH 500 0
DWIDTH 7 0
BBX 7 12 0 -1
BITMAP
04
3C
4A
48
30
30
18
2C
24
A4
F8
40
ENDCHAR

STARTCHAR percent
ENCODING 37
SWIDTH 833 0
DWIDTH 12 0
BBX 9 10 1 0
BITMAP
7100
9E00
9200
B400
E800
0B80
1680
3480
2580
4700
ENDCHAR

STARTCHAR ampersand
ENCODING 38
SWIDTH 778 0
DWIDTH 11 0
BBX 9 10 1 0
BITMAP
0600
0A00
0A00
0C00
3B80
6900
C900
8600
C400
7B80
ENDCHAR

STARTCHAR quoteright
ENCODING 39
SWIDTH 333 0
DWIDTH 5 0
BBX 2 3 1 7
BITMAP
C0
40
80
ENDCHAR

STARTCHAR parenleft
ENCODING 40
SWIDTH 333 0
DWIDTH 5 0
BBX 4 13 1 -3
BITMAP
10
20
40
40
80
80
80
80
80
80
80
80
40
ENDCHAR

STARTCHAR parenright
ENCODING 41
SWIDTH 333 0
DWIDTH 5 0
BBX 4 13 0 -3
BITMAP
20
10
10
10
10
10
10
10
10
20
20
40
80
ENDCHAR

STARTCHAR asterisk
ENCODING 42
SWIDTH 500 0
DWIDTH 7 0
BBX 5 5 1 4
BITMAP
20
F8
70
F8
20
ENDCHAR

STARTCHAR plus
ENCODING 43
SWIDTH 675 0
DWIDTH 9 0
BBX 7 7 1 0
BITMAP
10
10
10
FE
10
10
10
ENDCHAR

STARTCHAR comma
ENCODING 44
SWIDTH 250 0
DWIDTH 4 0
BBX 2 3 1 -3
BITMAP
C0
40
80
ENDCHAR

STARTCHAR minus
ENCODING 45
SWIDTH 675 0
DWIDTH 9 0
BBX 7 1 1 3
BITMAP
FE
ENDCHAR

STARTCHAR period
ENCODING 46
SWIDTH 250 0
DWIDTH 4 0
BBX 1 1 1 0
BITMAP
80
ENDCHAR

STARTCHAR slash
ENCODING 47
SWIDTH 278 0
DWIDTH 4 0
BBX 4 10 0 0
BITMAP
10
10
20
20
20
40
40
40
80
80
ENDCHAR

STARTCHAR zero
ENCODING 48
SWIDTH 500 0
DWIDTH 7 0
BBX 6 10 0 0
BITMAP
38
64
44
C4
84
84
8C
88
98
70
ENDCHAR

STARTCHAR one
ENCODING 49
SWIDTH 500 0
DWIDTH 7 0
BBX 5 10 0 0
BITMAP
38
08
10
10
10
20
20
20
40
E0
ENDCHAR

STARTCHAR two
ENCODING 50
SWIDTH 500 0
DWIDTH 7 0
BBX 6 10 0 0
BITMAP
38
4C
04
04
04
08
10
20
44
F8
ENDCHAR

STARTCHAR three
ENCODING 51
SWIDTH 500 0
DWIDTH 7 0
BBX 6 10 0 0
BITMAP
1C
24
04
08
38
0C
04
04
08
F0
ENDCHAR

STARTCHAR four
ENCODING 52
SWIDTH 500 0
DWIDTH 7 0
BBX 6 10 0 0
BITMAP
04
0C
14
34
28
48
88
FC
10
10
ENDCHAR

STARTCHAR five
ENCODING 53
SWIDTH 500 0
DWIDTH 7 0
BBX 7 10 0 0
BITMAP
1E
20
60
18
0C
04
04
04
08
F0
ENDCHAR

STARTCHAR six
ENCODING 54
SWIDTH 500 0
DWIDTH 7 0
BBX 7 10 0 0
BITMAP
06
18
20
78
4C
84
84
84
88
70
ENDCHAR

STARTCHAR seven
ENCODING 55
SWIDTH 500 0
DWIDTH 7 0
BBX 6 10 1 0
BITMAP
7C
84
08
08
10
10
20
20
40
40
ENDCHAR

STARTCHAR eight
ENCODING 56
SWIDTH 500 0
DWIDTH 7 0
BBX 6 10 0 0
BITMAP
18
24
24
28
30
48
84
84
84
78
ENDCHAR

STARTCHAR nine
ENCODING 57
SWIDTH 500 0
DWIDTH 7 0
BBX 6 10 0 0
BITMAP
18
24
44
44
44
44
38
08
30
C0
ENDCHAR

STARTCHAR colon
ENCODING 58
SWIDTH 333 0
DWIDTH 5 0
BBX 2 7 2 0
BITMAP
40
00
00
00
00
00
80
ENDCHAR

STARTCHAR semicolon
ENCODING 59
SWIDTH 333 0
DWIDTH 5 0
BBX 2 8 1 -1
BITMAP
40
00
00
00
00
C0
40
80
ENDCHAR

STARTCHAR less
ENCODING 60
SWIDTH 675 0
DWIDTH 9 0
BBX 7 7 1 0
BITMAP
06
18
60
80
60
18
06
ENDCHAR

STARTCHAR equal
ENCODING 61
SWIDTH 675 0
DWIDTH 9 0
BBX 7 4 1 2
BITMAP
FE
00
00
FE
ENDCHAR

STARTCHAR greater
ENCODING 62
SWIDTH 675 0
DWIDTH 9 0
BBX 7 7 1 0
BITMAP
C0
30
0C
02
0C
30
C0
ENDCHAR

STARTCHAR question
ENCODING 63
SWIDTH 500 0
DWIDTH 7 0
BBX 4 10 1 0
BITMAP
60
90
90
10
20
40
80
80
00
80
ENDCHAR

STARTCHAR at
ENCODING 64
SWIDTH 920 0
DWIDTH 13 0
BBX 12 13 1 -3
BITMAP
07C0
1820
2390
4490
4890
9110
9110
9120
9320
9DC0
4000
60C0
1F00
ENDCHAR

STARTCHAR A
ENCODING 65
SWIDTH 611 0
DWIDTH 9 0
BBX 9 10 0 0
BITMAP
0400
0400
0E00
0A00
1200
1200
3F00
2100
4100
E380
ENDCHAR

STARTCHAR B
ENCODING 66
SWIDTH 611 0
DWIDTH 9 0
BBX 8 10 0 0
BITMAP
3E
11
11
13
3E
23
21
41
43
FE
ENDCHAR

STARTCHAR C
ENCODING 67
SWIDTH 667 0
DWIDTH 9 0
BBX 9 10 0 0
BITMAP
0F80
3100
6100
4000
C000
C000
8000
C200
4600
3C00
ENDCHAR

STARTCHAR D
ENCODING 68
SWIDTH 722 0
DWIDTH 10 0
BBX 10 10 0 0
BITMAP
3F00
1180
10C0
10C0
20C0
20C0
2080
6180
4300
FC00
ENDCHAR

STARTCHAR E
ENCODING 69
SWIDTH 611 0
DWIDTH 9 0
BBX 9 10 0 0
BITMAP
3F80
1080
1080
1200
3E00
2400
2000
6100
4300
FE00
ENDCHAR

STARTCHAR F
ENCODING 70
SWIDTH 611 0
DWIDTH 9 0
BBX 9 10 0 0
BITMAP
3F80
1080
1080
1200
3E00
2400
2000
6000
4000
E000
ENDCHAR

STARTCHAR G
ENCODING 71
SWIDTH 722 0
DWIDTH 10 0
BBX 9 10 0 0
BITMAP
1F80
3180
6080
4000
C000
C380
8100
C200
4200
3E00
ENDCHAR

STARTCHAR H
ENCODING 72
SWIDTH 722 0
DWIDTH 10 0
BBX 11 10 0 0
BITMAP
38E0
1040
1040
1080
3F80
2080
2080
4100
4100
E380
ENDCHAR

STARTCHAR I
ENCODING 73
SWIDTH 333 0
DWIDTH 5 0
BBX 5 10 0 0
BITMAP
38
10
10
10
20
20
20
40
40
E0
ENDCHAR

STARTCHAR J
ENCODING 74
SWIDTH 444 0
DWIDTH 6 0
BBX 7 10 0 0
BITMAP
0E
04
08
08
08
10
10
10
20
E0
ENDCHAR

STARTCHAR K
ENCODING 75
SWIDTH 667 0
DWIDTH 9 0
BBX 10 10 0 0
BITMAP
39C0
1100
1200
1C00
2800
2800
2400
4600
4200
E780
ENDCHAR

STARTCHAR L
ENCODING 76
SWIDTH 556 0
DWIDTH 8 0
BBX 8 10 0 0
BITMAP
38
10
10
10
20
20
20
41
42
FE
ENDCHAR

STARTCHAR M
ENCODING 77
SWIDTH 833 0
DWIDTH 12 0
BBX 12 10 0 0
BITMAP
3830
1860
28A0
28A0
2940
2B40
4A40
4C80
4C80
E9C0
ENDCHAR

STARTCHAR N
ENCODING 78
SWIDTH 667 0
DWIDTH 9 0
BBX 10 10 0 0
BITMAP
30C0
1840
2880
2880
2480
2480
4300
4300
4100
E100
ENDCHAR

STARTCHAR O
ENCODING 79
SWIDTH 722 0
DWIDTH 10 0
BBX 9 10 1 0
BITMAP
0E00
3100
6180
4080
C180
C180
8100
8300
C600
7800
ENDCHAR

STARTCHAR P
ENCODING 80
SWIDTH 611 0
DWIDTH 9 0
BBX 8 10 0 0
BITMAP
3F
11
11
13
3E
20
20
60
40
E0
ENDCHAR

STARTCHAR Q
ENCODING 81
SWIDTH 722 0
DWIDTH 10 0
BBX 9 13 1 -3
BITMAP
0E00
3100
2180
4080
C180
C180
8100
8200
C600
7800
2000
7080
8F00
ENDCHAR

STARTCHAR R
ENCODING 82
SWIDTH 611 0
DWIDTH 9 0
BBX 8 10 0 0
BITMAP
3F
11
11
33
3E
24
24
64
42
E3
ENDCHAR

STARTCHAR S
ENCODING 83
SWIDTH 500 0
DWIDTH 7 0
BBX 7 10 0 0
BITMAP
3E
64
44
20
10
08
8C
84
8C
F8
ENDCHAR

STARTCHAR T
ENCODING 84
SWIDTH 556 0
DWIDTH 8 0
BBX 8 10 0 0
BITMAP
7F
89
91
10
10
20
20
20
40
F0
ENDCHAR

STARTCHAR U
ENCODING 85
SWIDTH 722 0
DWIDTH 10 0
BBX 9 10 1 0
BITMAP
F380
4100
4100
4100
8200
8200
8200
8200
C400
7800
ENDCHAR

STARTCHAR V
ENCODING 86
SWIDTH 611 0
DWIDTH 9 0
BBX 9 10 1 0
BITMAP
E380
4100
4200
4200
6400
2800
2800
3000
3000
2000
ENDCHAR

STARTCHAR W
ENCODING 87
SWIDTH 833 0
DWIDTH 12 0
BBX 12 10 0 0
BITMAP
EF70
4420
4640
4640
6E80
2A80
3300
3300
2200
2200
ENDCHAR

STARTCHAR X
ENCODING 88
SWIDTH 611 0
DWIDTH 9 0
BBX 9 10 0 0
BITMAP
7980
1100
1200
1A00
0C00
0800
1C00
2400
4600
EF00
ENDCHAR

STARTCHAR Y
ENCODING 89
SWIDTH 556 0
DWIDTH 8 0
BBX 8 10 1 0
BITMAP
E7
42
44
28
30
20
20
20
60
F0
ENDCHAR

STARTCHAR Z
ENCODING 90
SWIDTH 556 0
DWIDTH 8 0
BBX 8 10 0 0
BITMAP
3F
42
44
04
08
10
20
21
43
FE
ENDCHAR

STARTCHAR bracketleft
ENCODING 91
SWIDTH 389 0
DWIDTH 5 0
BBX 5 13 0 -3
BITMAP
38
20
20
20
40
40
40
40
40
80
80
80
E0
ENDCHAR

STARTCHAR backslash
ENCODING 92
SWIDTH 278 0
DWIDTH 4 0
BBX 4 10 0 0
BITMAP
80
80
40
40
40
20
20
20
10
10
ENDCHAR

STARTCHAR bracketright
ENCODING 93
SWIDTH 389 0
DWIDTH 5 0
BBX 5 13 0 -3
BITMAP
38
08
08
08
10
10
10
10
10
20
20
20
E0
ENDCHAR

STARTCHAR asciicircum
ENCODING 94
SWIDTH 422 0
DWIDTH 6 0
BBX 7 6 0 4
BITMAP
10
28
28
44
44
82
ENDCHAR

STARTCHAR underscore
ENCODING 95
SWIDTH 500 0
DWIDTH 7 0
BBX 7 1 0 -4
BITMAP
FE
ENDCHAR

STARTCHAR quoteleft
ENCODING 96
SWIDTH 333 0
DWIDTH 5 0
BBX 2 3 2 7
BITMAP
40
80
C0
ENDCHAR

STARTCHAR a
ENCODING 97
SWIDTH 500 0
DWIDTH 7 0
BBX 6 7 0 0
BITMAP
1C
64
44
8C
88
9C
EC
ENDCHAR

STARTCHAR b
ENCODING 98
SWIDTH 500 0
DWIDTH 7 0
BBX 6 10 0 0
BITMAP
60
20
20
5C
64
44
44
8C
98
F0
ENDCHAR

STARTCHAR c
ENCODING 99
SWIDTH 444 0
DWIDTH 6 0
BBX 5 7 0 0
BITMAP
38
68
40
80
80
88
70
ENDCHAR

STARTCHAR d
ENCODING 100
SWIDTH 500 0
DWIDTH 7 0
BBX 7 10 0 0
BITMAP
06
02
06
1C
64
44
88
88
9A
EC
ENDCHAR

STARTCHAR e
ENCODING 101
SWIDTH 444 0
DWIDTH 6 0
BBX 5 7 0 0
BITMAP
38
48
48
F0
80
88
70
ENDCHAR

STARTCHAR f
ENCODING 102
SWIDTH 278 0
DWIDTH 4 0
BBX 8 13 -1 -3
BITMAP
03
04
08
1C
08
08
10
10
10
10
20
20
C0
ENDCHAR

STARTCHAR g
ENCODING 103
SWIDTH 500 0
DWIDTH 7 0
BBX 7 10 0 -3
BITMAP
18
26
44
4C
38
40
70
88
88
70
ENDCHAR

STARTCHAR h
ENCODING 104
SWIDTH 500 0
DWIDTH 7 0
BBX 7 10 0 0
BITMAP
70
20
20
3C
64
44
48
48
8A
8C
ENDCHAR

STARTCHAR i
ENCODING 105
SWIDTH 278 0
DWIDTH 4 0
BBX 3 10 1 0
BITMAP
20
00
00
C0
40
40
40
80
A0
C0
ENDCHAR

STARTCHAR j
ENCODING 106
SWIDTH 278 0
DWIDTH 4 0
BBX 6 13 -1 -3
BITMAP
0C
00
00
18
08
10
10
10
10
10
20
20
C0
ENDCHAR

STARTCHAR k
ENCODING 107
SWIDTH 444 0
DWIDTH 6 0
BBX 6 10 0 0
BITMAP
70
20
20
2C
48
50
60
50
94
98
ENDCHAR

STARTCHAR l
ENCODING 108
SWIDTH 278 0
DWIDTH 4 0
BBX 3 10 1 0
BITMAP
60
20
20
40
40
40
40
80
A0
C0
ENDCHAR

STARTCHAR m
ENCODING 109
SWIDTH 722 0
DWIDTH 10 0
BBX 10 7 0 0
BITMAP
6D80
3680
4480
4880
4900
8940
9980
ENDCHAR

STARTCHAR n
ENCODING 110
SWIDTH 500 0
DWIDTH 7 0
BBX 7 7 0 0
BITMAP
DC
24
44
48
48
8A
8C
ENDCHAR

STARTCHAR o
ENCODING 111
SWIDTH 500 0
DWIDTH 7 0
BBX 6 7 0 0
BITMAP
38
64
C4
84
8C
88
70
ENDCHAR

STARTCHAR p
ENCODING 112
SWIDTH 500 0
DWIDTH 7 0
BBX 8 10 0 -3
BITMAP
3E
13
11
22
22
24
78
40
40
E0
ENDCHAR

STARTCHAR q
ENCODING 113
SWIDTH 500 0
DWIDTH 7 0
BBX 7 10 0 -3
BITMAP
1E
24
44
84
88
98
E8
10
10
38
ENDCHAR

STARTCHAR r
ENCODING 114
SWIDTH 389 0
DWIDTH 5 0
BBX 5 7 0 0
BITMAP
58
20
20
40
40
80
80
ENDCHAR

STARTCHAR s
ENCODING 115
SWIDTH 389 0
DWIDTH 5 0
BBX 5 7 0 0
BITMAP
38
48
28
20
90
90
F0
ENDCHAR

STARTCHAR t
ENCODING 116
SWIDTH 278 0
DWIDTH 4 0
BBX 4 9 1 0
BITMAP
20
20
F0
40
40
40
80
A0
C0
ENDCHAR

STARTCHAR u
ENCODING 117
SWIDTH 500 0
DWIDTH 7 0
BBX 6 7 1 0
BITMAP
C4
44
48
48
98
AC
C8
ENDCHAR

STARTCHAR v
ENCODING 118
SWIDTH 444 0
DWIDTH 6 0
BBX 6 7 0 0
BITMAP
CC
44
48
48
30
20
20
ENDCHAR

STARTCHAR w
ENCODING 119
SWIDTH 667 0
DWIDTH 9 0
BBX 9 7 0 0
BITMAP
8980
C880
5C80
5500
6600
6600
4400
ENDCHAR

STARTCHAR x
ENCODING 120
SWIDTH 444 0
DWIDTH 6 0
BBX 7 7 0 0
BITMAP
36
58
10
10
30
2A
CC
ENDCHAR

STARTCHAR y
ENCODING 121
SWIDTH 444 0
DWIDTH 6 0
BBX 7 10 0 -3
BITMAP
66
22
24
14
14
18
18
10
20
C0
ENDCHAR

STARTCHAR z
ENCODING 122
SWIDTH 389 0
DWIDTH 5 0
BBX 5 7 0 0
BITMAP
78
48
10
20
40
98
F0
ENDCHAR

STARTCHAR braceleft
ENCODING 123
SWIDTH 400 0
DWIDTH 6 0
BBX 5 13 1 -3
BITMAP
18
20
20
20
20
40
80
40
40
40
80
80
C0
ENDCHAR

STARTCHAR bar
ENCODING 124
SWIDTH 275 0
DWIDTH 4 0
BBX 4 13 0 -3
BITMAP
10
10
20
20
20
20
40
40
40
40
80
80
80
ENDCHAR

STARTCHAR braceright
ENCODING 125
SWIDTH 400 0
DWIDTH 6 0
BBX 5 13 0 -3
BITMAP
18
08
08
10
10
10
08
10
20
20
20
20
C0
ENDCHAR

STARTCHAR asciitilde
ENCODING 126
SWIDTH 541 0
DWIDTH 8 0
BBX 7 2 0 3
BITMAP
72
9C
ENDCHAR

STARTCHAR exclamdown
ENCODING 161
SWIDTH 389 0
DWIDTH 5 0
BBX 3 9 1 -2
BITMAP
20
00
00
40
40
40
80
80
80
ENDCHAR

STARTCHAR cent
ENCODING 162
SWIDTH 500 0
DWIDTH 7 0
BBX 5 11 1 -2
BITMAP
08
10
38
58
F0
A0
A0
C8
70
40
C0
ENDCHAR

STARTCHAR sterling
ENCODING 163
SWIDTH 500 0
DWIDTH 7 0
BBX 7 10 0 0
BITMAP
0E
18
10
10
78
30
20
60
A2
DC
ENDCHAR

STARTCHAR currency
ENCODING 164
SWIDTH 500 0
DWIDTH 7 0
BBX 8 8 0 1
BITMAP
81
5A
24
42
42
24
5A
81
ENDCHAR

STARTCHAR yen
ENCODING 165
SWIDTH 500 0
DWIDTH 7 0
BBX 8 10 0 0
BITMAP
E7
43
26
24
28
FC
F8
20
20
F0
ENDCHAR

STARTCHAR brokenbar
ENCODING 166
SWIDTH 275 0
DWIDTH 4 0
BBX 4 13 0 -3
BITMAP
10
10
10
20
20
20
00
40
40
40
80
80
80
ENDCHAR

STARTCHAR section
ENCODING 167
SWIDTH 500 0
DWIDTH 7 0
BBX 6 13 1 -3
BITMAP
18
24
24
20
70
58
48
68
30
10
90
90
60
ENDCHAR

STARTCHAR dieresis
ENCODING 168
SWIDTH 333 0
DWIDTH 5 0
BBX 3 1 2 7
BITMAP
A0
ENDCHAR

STARTCHAR copyright
ENCODING 169
SWIDTH 760 0
DWIDTH 11 0
BBX 10 10 0 0
BITMAP
3F00
4080
9F40
A140
A040
A040
A140
9E40
4080
3F00
ENDCHAR

STARTCHAR ordfeminine
ENCODING 170
SWIDTH 276 0
DWIDTH 4 0
BBX 4 5 0 5
BITMAP
60
A0
D0
00
E0
ENDCHAR

STARTCHAR guillemotleft
ENCODING 171
SWIDTH 500 0
DWIDTH 7 0
BBX 5 5 1 1
BITMAP
28
50
A0
50
50
ENDCHAR

STARTCHAR logicalnot
ENCODING 172
SWIDTH 675 0
DWIDTH 9 0
BBX 7 4 1 1
BITMAP
FE
02
02
02
ENDCHAR

STARTCHAR hyphen
ENCODING 173
SWIDTH 333 0
DWIDTH 5 0
BBX 3 1 1 3
BITMAP
E0
ENDCHAR

STARTCHAR registered
ENCODING 174
SWIDTH 760 0
DWIDTH 11 0
BBX 10 10 0 0
BITMAP
3F00
4080
BE40
9240
9E40
9440
9240
BB40
4080
3F00
ENDCHAR

STARTCHAR macron
ENCODING 175
SWIDTH 333 0
DWIDTH 5 0
BBX 4 1 2 7
BITMAP
F0
ENDCHAR

STARTCHAR degree
ENCODING 176
SWIDTH 400 0
DWIDTH 7 0
BBX 4 4 1 6
BITMAP
60
90
90
60
ENDCHAR

STARTCHAR plusminus
ENCODING 177
SWIDTH 675 0
DWIDTH 8 0
BBX 7 9 0 0
BITMAP
10
10
10
FE
10
10
10
00
FE
ENDCHAR

STARTCHAR twosuperior
ENCODING 178
SWIDTH 300 0
DWIDTH 4 0
BBX 3 6 -3 4
BITMAP
60
20
20
40
80
E0
ENDCHAR

STARTCHAR threesuperior
ENCODING 179
SWIDTH 300 0
DWIDTH 4 0
BBX 4 6 -3 4
BITMAP
60
10
60
20
20
C0
ENDCHAR

STARTCHAR acute
ENCODING 180
SWIDTH 333 0
DWIDTH 5 0
BBX 3 3 2 7
BITMAP
20
40
80
ENDCHAR

STARTCHAR mu
ENCODING 181
SWIDTH 500 0
DWIDTH 7 0
BBX 8 10 0 -3
BITMAP
62
22
22
44
44
4D
76
80
80
80
ENDCHAR

STARTCHAR paragraph
ENCODING 182
SWIDTH 523 0
DWIDTH 7 0
BBX 6 13 1 -3
BITMAP
34
74
E8
E8
E8
E8
50
50
50
50
A0
A0
A0
ENDCHAR

STARTCHAR periodcentered
ENCODING 183
SWIDTH 250 0
DWIDTH 7 0
BBX 1 1 3 4
BITMAP
80
ENDCHAR

STARTCHAR cedilla
ENCODING 184
SWIDTH 333 0
DWIDTH 5 0
BBX 3 4 0 -3
BITMAP
20
60
20
E0
ENDCHAR

STARTCHAR onesuperior
ENCODING 185
SWIDTH 300 0
DWIDTH 4 0
BBX 2 6 -4 4
BITMAP
40
40
40
80
80
80
ENDCHAR

STARTCHAR ordmasculine
ENCODING 186
SWIDTH 310 0
DWIDTH 4 0
BBX 4 5 1 5
BITMAP
60
90
60
00
E0
ENDCHAR

STARTCHAR guillemotright
ENCODING 187
SWIDTH 500 0
DWIDTH 7 0
BBX 5 5 1 1
BITMAP
50
50
28
50
A0
ENDCHAR

STARTCHAR onequarter
ENCODING 188
SWIDTH 750 0
DWIDTH 11 0
BBX 10 10 0 0
BITMAP
4100
4200
4400
8400
8840
90C0
2140
2280
47C0
8080
ENDCHAR

STARTCHAR onehalf
ENCODING 189
SWIDTH 750 0
DWIDTH 11 0
BBX 9 10 0 0
BITMAP
4100
4200
4400
8400
8980
9080
2080
2100
4200
8380
ENDCHAR

STARTCHAR threequarters
ENCODING 190
SWIDTH 750 0
DWIDTH 11 0
BBX 10 10 0 0
BITMAP
6080
1100
6200
2200
2440
C8C0
1140
1280
27C0
4080
ENDCHAR

STARTCHAR questiondown
ENCODING 191
SWIDTH 500 0
DWIDTH 7 0
BBX 4 10 1 -3
BITMAP
10
00
10
10
20
40
80
90
90
60
ENDCHAR

STARTCHAR Agrave
ENCODING 192
SWIDTH 611 0
DWIDTH 9 0
BBX 9 13 0 0
BITMAP
0400
0200
0000
0400
0400
0600
0A00
1A00
1200
3E00
2100
4100
E380
ENDCHAR

STARTCHAR Aacute
ENCODING 193
SWIDTH 611 0
DWIDTH 9 0
BBX 9 14 0 0
BITMAP
0100
0200
0400
0000
0400
0400
0600
0A00
1A00
1200
3E00
2100
4100
E380
ENDCHAR

STARTCHAR Acircumflex
ENCODING 194
SWIDTH 611 0
DWIDTH 9 0
BBX 9 14 0 0
BITMAP
0600
0600
0900
0000
0400
0400
0600
0A00
1A00
1200
3E00
2100
4100
E380
ENDCHAR

STARTCHAR Atilde
ENCODING 195
SWIDTH 611 0
DWIDTH 9 0
BBX 9 13 0 0
BITMAP
0600
0580
0000
0400
0400
0600
0A00
1A00
1200
3E00
2100
4100
E380
ENDCHAR

STARTCHAR Adieresis
ENCODING 196
SWIDTH 611 0
DWIDTH 9 0
BBX 9 12 0 0
BITMAP
0500
0000
0400
0400
0600
0A00
1A00
1200
3E00
2100
4100
E380
ENDCHAR

STARTCHAR Aring
ENCODING 197
SWIDTH 611 0
DWIDTH 9 0
BBX 9 14 0 0
BITMAP
0700
0500
0700
0000
0400
0400
0600
0A00
1A00
1200
3E00
2100
4100
E380
ENDCHAR

STARTCHAR AE
ENCODING 198
SWIDTH 889 0
DWIDTH 12 0
BBX 13 10 0 0
BITMAP
03F8
0388
0308
0520
09E0
1220
3E00
6218
4610
CFF0
ENDCHAR

STARTCHAR Ccedilla
ENCODING 199
SWIDTH 667 0
DWIDTH 9 0
BBX 9 14 0 -4
BITMAP
0F80
3100
6100
4000
C000
C000
8000
C200
4600
3C00
1000
3000
1000
7000
ENDCHAR

STARTCHAR Egrave
ENCODING 200
SWIDTH 611 0
DWIDTH 9 0
BBX 9 13 0 0
BITMAP
0400
0200
0000
3F80
1080
1080
1200
3E00
2400
2000
6100
4300
FE00
ENDCHAR

STARTCHAR Eacute
ENCODING 201
SWIDTH 611 0
DWIDTH 9 0
BBX 9 14 0 0
BITMAP
0100
0200
0400
0000
3F80
1080
1080
1200
3E00
2400
2000
6100
4300
FE00
ENDCHAR

STARTCHAR Ecircumflex
ENCODING 202
SWIDTH 611 0
DWIDTH 9 0
BBX 9 14 0 0
BITMAP
0600
0600
0900
0000
3F80
1080
1080
1200
3E00
2400
2000
6100
4300
FE00
ENDCHAR

STARTCHAR Edieresis
ENCODING 203
SWIDTH 611 0
DWIDTH 9 0
BBX 9 12 0 0
BITMAP
0500
0000
3F80
1080
1080
1200
3E00
2400
2000
6100
4300
FE00
ENDCHAR

STARTCHAR Igrave
ENCODING 204
SWIDTH 333 0
DWIDTH 5 0
BBX 5 13 0 0
BITMAP
10
08
00
38
10
10
10
20
20
20
60
40
E0
ENDCHAR

STARTCHAR Iacute
ENCODING 205
SWIDTH 333 0
DWIDTH 5 0
BBX 6 14 0 0
BITMAP
04
08
10
00
38
10
10
10
20
20
20
60
40
E0
ENDCHAR

STARTCHAR Icircumflex
ENCODING 206
SWIDTH 333 0
DWIDTH 5 0
BBX 6 14 0 0
BITMAP
18
18
24
00
38
10
10
10
20
20
20
60
40
E0
ENDCHAR

STARTCHAR Idieresis
ENCODING 207
SWIDTH 333 0
DWIDTH 5 0
BBX 6 12 0 0
BITMAP
14
00
38
10
10
10
20
20
20
60
40
E0
ENDCHAR

STARTCHAR Eth
ENCODING 208
SWIDTH 722 0
DWIDTH 10 0
BBX 10 10 0 0
BITMAP
3F00
1180
10C0
20C0
7CC0
20C0
2080
2180
4300
FC00
ENDCHAR

STARTCHAR Ntilde
ENCODING 209
SWIDTH 667 0
DWIDTH 9 0
BBX 10 13 0 0
BITMAP
0600
0580
0000
30C0
1840
2880
2880
2480
2500
2300
4300
4300
E200
ENDCHAR

STARTCHAR Ograve
ENCODING 210
SWIDTH 722 0
DWIDTH 10 0
BBX 9 13 1 0
BITMAP
0400
0200
0000
0E00
3100
6180
4180
C180
C180
8300
8200
C600
7800
ENDCHAR

STARTCHAR Oacute
ENCODING 211
SWIDTH 722 0
DWIDTH 10 0
BBX 9 14 1 0
BITMAP
0100
0200
0400
0000
0E00
3100
6180
4180
C180
C180
8300
8200
C600
7800
ENDCHAR

STARTCHAR Ocircumflex
ENCODING 212
SWIDTH 722 0
DWIDTH 10 0
BBX 9 14 1 0
BITMAP
0600
0600
0900
0000
0E00
3100
6180
4180
C180
C180
8300
8200
C600
7800
ENDCHAR

STARTCHAR Otilde
ENCODING 213
SWIDTH 722 0
DWIDTH 10 0
BBX 9 13 1 0
BITMAP
0C00
0B00
0000
0E00
3100
6180
4180
C180
C180
8300
8200
C600
7800
ENDCHAR

STARTCHAR Odieresis
ENCODING 214
SWIDTH 722 0
DWIDTH 10 0
BBX 9 12 1 0
BITMAP
0A00
0000
0E00
3100
6180
4180
C180
C180
8300
8200
C600
7800
ENDCHAR

STARTCHAR multiply
ENCODING 215
SWIDTH 675 0
DWIDTH 9 0
BBX 6 7 2 0
BITMAP
84
48
30
00
30
48
84
ENDCHAR

STARTCHAR Oslash
ENCODING 216
SWIDTH 722 0
DWIDTH 10 0
BBX 9 12 1 -1
BITMAP
0080
0F00
3300
6380
4580
C980
C980
9300
A200
E600
7800
8000
ENDCHAR

STARTCHAR Ugrave
ENCODING 217
SWIDTH 722 0
DWIDTH 10 0
BBX 9 13 1 0
BITMAP
0800
0400
0000
F380
6100
4100
4100
4100
C200
8200
8200
C400
7800
ENDCHAR

STARTCHAR Uacute
ENCODING 218
SWIDTH 722 0
DWIDTH 10 0
BBX 9 14 1 0
BITMAP
0200
0400
0800
0000
F380
6100
4100
4100
4100
C200
8200
8200
C400
7800
ENDCHAR

STARTCHAR Ucircumflex
ENCODING 219
SWIDTH 722 0
DWIDTH 10 0
BBX 9 14 1 0
BITMAP
0C00
0C00
1200
0000
F380
6100
4100
4100
4100
C200
8200
8200
C400
7800
ENDCHAR

STARTCHAR Udieresis
ENCODING 220
SWIDTH 722 0
DWIDTH 10 0
BBX 9 12 1 0
BITMAP
0A00
0000
F380
6100
4100
4100
4100
C200
8200
8200
C400
7800
ENDCHAR

STARTCHAR Yacute
ENCODING 221
SWIDTH 556 0
DWIDTH 8 0
BBX 8 14 1 0
BITMAP
04
08
10
00
E7
42
24
28
30
30
20
20
60
F0
ENDCHAR

STARTCHAR Thorn
ENCODING 222
SWIDTH 611 0
DWIDTH 9 0
BBX 8 10 0 0
BITMAP
38
10
1E
23
23
23
26
7C
40
E0
ENDCHAR

STARTCHAR germandbls
ENCODING 223
SWIDTH 500 0
DWIDTH 7 0
BBX 9 13 -1 -3
BITMAP
0380
0480
0880
0B00
0880
0880
1080
1080
1100
1600
1000
2000
C000
ENDCHAR

STARTCHAR agrave
ENCODING 224
SWIDTH 500 0
DWIDTH 7 0
BBX 6 10 0 0
BITMAP
10
08
00
1C
64
44
8C
88
9C
EC
ENDCHAR

STARTCHAR aacute
ENCODING 225
SWIDTH 500 0
DWIDTH 7 0
BBX 6 11 0 0
BITMAP
04
08
10
00
1C
64
44
8C
88
9C
EC
ENDCHAR

STARTCHAR acircumflex
ENCODING 226
SWIDTH 500 0
DWIDTH 7 0
BBX 6 11 0 0
BITMAP
18
18
24
00
1C
64
44
8C
88
9C
EC
ENDCHAR

STARTCHAR atilde
ENCODING 227
SWIDTH 500 0
DWIDTH 7 0
BBX 7 10 0 0
BITMAP
18
16
00
1C
64
44
8C
88
9C
EC
ENDCHAR

STARTCHAR adieresis
ENCODING 228
SWIDTH 500 0
DWIDTH 7 0
BBX 6 9 0 0
BITMAP
14
00
1C
64
44
8C
88
9C
EC
ENDCHAR

STARTCHAR aring
ENCODING 229
SWIDTH 500 0
DWIDTH 7 0
BBX 7 11 0 0
BITMAP
0E
0A
0E
00
1C
64
44
8C
88
9C
EC
ENDCHAR

STARTCHAR ae
ENCODING 230
SWIDTH 667 0
DWIDTH 9 0
BBX 9 7 0 0
BITMAP
1F00
2C80
4B00
CC00
8800
9900
EE00
ENDCHAR

STARTCHAR ccedilla
ENCODING 231
SWIDTH 444 0
DWIDTH 6 0
BBX 5 11 0 -4
BITMAP
38
68
40
80
80
88
70
20
60
20
E0
ENDCHAR

STARTCHAR egrave
ENCODING 232
SWIDTH 444 0
DWIDTH 6 0
BBX 5 10 0 0
BITMAP
10
08
00
38
48
58
E0
80
98
70
ENDCHAR

STARTCHAR eacute
ENCODING 233
SWIDTH 444 0
DWIDTH 6 0
BBX 6 11 0 0
BITMAP
04
08
10
00
38
48
58
E0
80
98
70
ENDCHAR

STARTCHAR ecircumflex
ENCODING 234
SWIDTH 444 0
DWIDTH 6 0
BBX 6 11 0 0
BITMAP
18
18
24
00
38
48
58
E0
80
98
70
ENDCHAR

STARTCHAR edieresis
ENCODING 235
SWIDTH 444 0
DWIDTH 6 0
BBX 5 9 0 0
BITMAP
28
00
38
48
58
E0
80
98
70
ENDCHAR

STARTCHAR igrave
ENCODING 236
SWIDTH 278 0
DWIDTH 4 0
BBX 3 10 1 0
BITMAP
40
20
00
C0
40
40
40
80
E0
C0
ENDCHAR

STARTCHAR iacute
ENCODING 237
SWIDTH 278 0
DWIDTH 4 0
BBX 4 11 1 0
BITMAP
10
20
40
00
C0
40
40
40
80
E0
C0
ENDCHAR

STARTCHAR icircumflex
ENCODING 238
SWIDTH 278 0
DWIDTH 4 0
BBX 4 11 1 0
BITMAP
60
60
90
00
C0
40
40
40
80
E0
C0
ENDCHAR

STARTCHAR idieresis
ENCODING 239
SWIDTH 278 0
DWIDTH 4 0
BBX 4 9 1 0
BITMAP
50
00
C0
40
40
40
80
E0
C0
ENDCHAR

STARTCHAR eth
ENCODING 240
SWIDTH 500 0
DWIDTH 7 0
BBX 6 10 0 0
BITMAP
2C
30
68
3C
44
C4
84
84
88
70
ENDCHAR

STARTCHAR ntilde
ENCODING 241
SWIDTH 500 0
DWIDTH 7 0
BBX 7 10 0 0
BITMAP
30
2C
00
7C
64
64
48
48
8A
8C
ENDCHAR

STARTCHAR ograve
ENCODING 242
SWIDTH 500 0
DWIDTH 7 0
BBX 6 10 0 0
BITMAP
10
08
00
38
64
C4
84
8C
88
70
ENDCHAR

STARTCHAR oacute
ENCODING 243
SWIDTH 500 0
DWIDTH 7 0
BBX 6 11 0 0
BITMAP
04
08
10
00
38
64
C4
84
8C
88
70
ENDCHAR

STARTCHAR ocircumflex
ENCODING 244
SWIDTH 500 0
DWIDTH 7 0
BBX 6 11 0 0
BITMAP
18
18
24
00
38
64
C4
84
8C
88
70
ENDCHAR

STARTCHAR otilde
ENCODING 245
SWIDTH 500 0
DWIDTH 7 0
BBX 6 10 0 0
BITMAP
30
2C
00
38
64
C4
84
8C
88
70
ENDCHAR

STARTCHAR odieresis
ENCODING 246
SWIDTH 500 0
DWIDTH 7 0
BBX 6 9 0 0
BITMAP
14
00
38
64
C4
84
8C
88
70
ENDCHAR

STARTCHAR divide
ENCODING 247
SWIDTH 675 0
DWIDTH 9 0
BBX 7 5 1 2
BITMAP
10
00
FE
00
10
ENDCHAR

STARTCHAR oslash
ENCODING 248
SWIDTH 500 0
DWIDTH 7 0
BBX 6 8 0 0
BITMAP
04
38
6C
D4
A4
AC
C8
F0
ENDCHAR

STARTCHAR ugrave
ENCODING 249
SWIDTH 500 0
DWIDTH 7 0
BBX 6 10 1 0
BITMAP
10
08
00
C4
44
48
48
98
AC
C8
ENDCHAR

STARTCHAR uacute
ENCODING 250
SWIDTH 500 0
DWIDTH 7 0
BBX 6 11 1 0
BITMAP
04
08
10
00
C4
44
48
48
98
AC
C8
ENDCHAR

STARTCHAR ucircumflex
ENCODING 251
SWIDTH 500 0
DWIDTH 7 0
BBX 6 11 1 0
BITMAP
18
18
24
00
C4
44
48
48
98
AC
C8
ENDCHAR

STARTCHAR udieresis
ENCODING 252
SWIDTH 500 0
DWIDTH 7 0
BBX 6 9 1 0
BITMAP
14
00
C4
44
48
48
98
AC
C8
ENDCHAR

STARTCHAR yacute
ENCODING 253
SWIDTH 444 0
DWIDTH 6 0
BBX 6 14 0 -3
BITMAP
04
08
10
00
64
24
24
14
14
18
18
10
20
C0
ENDCHAR

STARTCHAR thorn
ENCODING 254
SWIDTH 500 0
DWIDTH 7 0
BBX 8 13 0 -3
BITMAP
18
08
10
1E
13
13
22
22
24
78
40
40
E0
ENDCHAR

STARTCHAR ydieresis
ENCODING 255
SWIDTH 444 0
DWIDTH 6 0
BBX 6 12 0 -3
BITMAP
14
00
64
24
24
14
14
18
18
10
20
C0
ENDCHAR

ENDFONT
