STARTFONT 2.1
FONT -Monotype-Bookman Old Style-Regular-R-Normal--10-100-75-75-P-49-iso8859-9
SIZE 10 75 75
FONTBOUNDINGBOX 14 13 -1 -3

STARTPROPERTIES 21
FOUNDRY "Monotype"
FAMILY_NAME "Bookman Old Style"
WEIGHT_NAME "Regular"
SLANT "R"
SETWIDTH_NAME "Normal"
ADD_STYLE_NAME ""
PIXEL_SIZE 10
POINT_SIZE 100
RESOLUTION_X 75
RESOLUTION_Y 75
SPACING "P"
AVERAGE_WIDTH 49
CHARSET_REGISTRY "iso8859"
CHARSET_ENCODING "9"
COPYRIGHT "Copyright (c) 1996 Monotype Typography Ltd."
CAP_HEIGHT 8
X_HEIGHT 6
WEIGHT 10
QUAD_WIDTH 7
FONT_DESCENT 3
FONT_ASCENT 10
ENDPROPERTIES

CHARS 191

STARTCHAR space
ENCODING 32
SWIDTH 320 0
DWIDTH 3 0
BBX 0 0 0 0
BITMAP
ENDCHAR

STARTCHAR exclam
ENCODING 33
SWIDTH 300 0
DWIDTH 3 0
BBX 1 7 1 0
BITMAP
80
80
80
80
80
00
80
ENDCHAR

STARTCHAR quotedbl
ENCODING 34
SWIDTH 380 0
DWIDTH 4 0
BBX 3 3 1 4
BITMAP
A0
A0
A0
ENDCHAR

STARTCHAR numbersign
ENCODING 35
SWIDTH 600 0
DWIDTH 6 0
BBX 6 7 0 0
BITMAP
28
28
FC
28
FC
50
50
ENDCHAR

STARTCHAR dollar
ENCODING 36
SWIDTH 620 0
DWIDTH 6 0
BBX 5 9 1 -1
BITMAP
20
78
A8
A0
70
28
A8
F0
20
ENDCHAR

STARTCHAR percent
ENCODING 37
SWIDTH 900 0
DWIDTH 9 0
BBX 9 7 0 0
BITMAP
6200
9400
9400
6B00
1480
1480
2300
ENDCHAR

STARTCHAR ampersand
ENCODING 38
SWIDTH 800 0
DWIDTH 8 0
BBX 8 7 1 0
BITMAP
30
48
77
92
8C
8D
72
ENDCHAR

STARTCHAR quoteright
ENCODING 39
SWIDTH 220 0
DWIDTH 2 0
BBX 2 3 0 4
BITMAP
C0
40
80
ENDCHAR

STARTCHAR parenleft
ENCODING 40
SWIDTH 300 0
DWIDTH 3 0
BBX 2 9 1 -2
BITMAP
40
80
80
80
80
80
80
80
40
ENDCHAR

STARTCHAR parenright
ENCODING 41
SWIDTH 300 0
DWIDTH 3 0
BBX 2 9 1 -2
BITMAP
80
40
40
40
40
40
40
40
80
ENDCHAR

STARTCHAR asterisk
ENCODING 42
SWIDTH 440 0
DWIDTH 4 0
BBX 3 3 1 4
BITMAP
E0
40
A0
ENDCHAR

STARTCHAR plus
ENCODING 43
SWIDTH 600 0
DWIDTH 6 0
BBX 5 5 1 1
BITMAP
20
20
F8
20
20
ENDCHAR

STARTCHAR comma
ENCODING 44
SWIDTH 320 0
DWIDTH 3 0
BBX 2 3 1 -2
BITMAP
C0
40
80
ENDCHAR

STARTCHAR minus
ENCODING 45
SWIDTH 600 0
DWIDTH 6 0
BBX 4 1 1 3
BITMAP
F0
ENDCHAR

STARTCHAR period
ENCODING 46
SWIDTH 320 0
DWIDTH 3 0
BBX 1 1 1 0
BITMAP
80
ENDCHAR

STARTCHAR slash
ENCODING 47
SWIDTH 600 0
DWIDTH 6 0
BBX 4 9 1 -2
BITMAP
10
10
20
20
20
40
40
80
80
ENDCHAR

STARTCHAR zero
ENCODING 48
SWIDTH 620 0
DWIDTH 6 0
BBX 5 7 1 0
BITMAP
70
88
88
88
88
88
70
ENDCHAR

STARTCHAR one
ENCODING 49
SWIDTH 620 0
DWIDTH 6 0
BBX 3 7 2 0
BITMAP
C0
40
40
40
40
40
E0
ENDCHAR

STARTCHAR two
ENCODING 50
SWIDTH 620 0
DWIDTH 6 0
BBX 5 7 1 0
BITMAP
70
88
88
08
30
48
F8
ENDCHAR

STARTCHAR three
ENCODING 51
SWIDTH 620 0
DWIDTH 6 0
BBX 5 7 1 0
BITMAP
30
48
08
30
08
88
70
ENDCHAR

STARTCHAR four
ENCODING 52
SWIDTH 620 0
DWIDTH 6 0
BBX 5 7 1 0
BITMAP
10
30
50
90
F8
10
10
ENDCHAR

STARTCHAR five
ENCODING 53
SWIDTH 620 0
DWIDTH 6 0
BBX 5 7 1 0
BITMAP
78
40
70
08
08
88
70
ENDCHAR

STARTCHAR six
ENCODING 54
SWIDTH 620 0
DWIDTH 6 0
BBX 5 7 1 0
BITMAP
70
80
B0
C8
88
88
70
ENDCHAR

STARTCHAR seven
ENCODING 55
SWIDTH 620 0
DWIDTH 6 0
BBX 5 7 1 0
BITMAP
F8
90
10
20
20
40
40
ENDCHAR

STARTCHAR eight
ENCODING 56
SWIDTH 620 0
DWIDTH 6 0
BBX 5 7 1 0
BITMAP
70
88
88
70
88
88
70
ENDCHAR

STARTCHAR nine
ENCODING 57
SWIDTH 620 0
DWIDTH 6 0
BBX 5 7 1 0
BITMAP
70
88
88
98
68
08
70
ENDCHAR

STARTCHAR colon
ENCODING 58
SWIDTH 320 0
DWIDTH 3 0
BBX 1 5 1 0
BITMAP
80
00
00
00
80
ENDCHAR

STARTCHAR semicolon
ENCODING 59
SWIDTH 320 0
DWIDTH 3 0
BBX 2 7 1 -2
BITMAP
40
00
00
00
C0
40
80
ENDCHAR

STARTCHAR less
ENCODING 60
SWIDTH 600 0
DWIDTH 6 0
BBX 4 4 1 1
BITMAP
30
C0
C0
30
ENDCHAR

STARTCHAR equal
ENCODING 61
SWIDTH 600 0
DWIDTH 6 0
BBX 4 3 1 2
BITMAP
F0
00
F0
ENDCHAR

STARTCHAR greater
ENCODING 62
SWIDTH 600 0
DWIDTH 6 0
BBX 4 4 1 1
BITMAP
C0
30
30
C0
ENDCHAR

STARTCHAR question
ENCODING 63
SWIDTH 540 0
DWIDTH 5 0
BBX 5 7 0 0
BITMAP
70
88
08
70
40
00
40
ENDCHAR

STARTCHAR at
ENCODING 64
SWIDTH 820 0
DWIDTH 8 0
BBX 9 9 0 -2
BITMAP
1F00
6080
4E80
9280
A480
AD00
5680
6100
1E00
ENDCHAR

STARTCHAR A
ENCODING 65
SWIDTH 680 0
DWIDTH 6 0
BBX 7 7 0 0
BITMAP
10
10
28
28
7C
44
EE
ENDCHAR

STARTCHAR B
ENCODING 66
SWIDTH 740 0
DWIDTH 8 0
BBX 7 7 1 0
BITMAP
FC
42
42
7C
42
42
FC
ENDCHAR

STARTCHAR C
ENCODING 67
SWIDTH 740 0
DWIDTH 7 0
BBX 6 7 1 0
BITMAP
38
4C
80
80
80
44
38
ENDCHAR

STARTCHAR D
ENCODING 68
SWIDTH 800 0
DWIDTH 8 0
BBX 7 7 1 0
BITMAP
F8
44
42
42
42
44
F8
ENDCHAR

STARTCHAR E
ENCODING 69
SWIDTH 720 0
DWIDTH 7 0
BBX 7 7 1 0
BITMAP
FC
42
48
78
48
42
FC
ENDCHAR

STARTCHAR F
ENCODING 70
SWIDTH 640 0
DWIDTH 7 0
BBX 7 7 1 0
BITMAP
FC
42
48
78
48
40
E0
ENDCHAR

STARTCHAR G
ENCODING 71
SWIDTH 800 0
DWIDTH 8 0
BBX 7 7 1 0
BITMAP
38
4C
80
8E
84
4C
34
ENDCHAR

STARTCHAR H
ENCODING 72
SWIDTH 800 0
DWIDTH 8 0
BBX 7 7 1 0
BITMAP
EE
44
44
7C
44
44
EE
ENDCHAR

STARTCHAR I
ENCODING 73
SWIDTH 340 0
DWIDTH 4 0
BBX 3 7 1 0
BITMAP
E0
40
40
40
40
40
E0
ENDCHAR

STARTCHAR J
ENCODING 74
SWIDTH 600 0
DWIDTH 6 0
BBX 6 7 0 0
BITMAP
1C
08
08
08
88
88
70
ENDCHAR

STARTCHAR K
ENCODING 75
SWIDTH 720 0
DWIDTH 7 0
BBX 7 7 1 0
BITMAP
EE
44
48
50
68
44
EE
ENDCHAR

STARTCHAR L
ENCODING 76
SWIDTH 600 0
DWIDTH 6 0
BBX 6 7 1 0
BITMAP
E0
40
40
40
40
44
F8
ENDCHAR

STARTCHAR M
ENCODING 77
SWIDTH 920 0
DWIDTH 10 0
BBX 9 7 1 0
BITMAP
E380
6300
5500
5500
5500
4900
EB80
ENDCHAR

STARTCHAR N
ENCODING 78
SWIDTH 740 0
DWIDTH 8 0
BBX 7 7 1 0
BITMAP
EE
64
54
54
4C
4C
E4
ENDCHAR

STARTCHAR O
ENCODING 79
SWIDTH 800 0
DWIDTH 8 0
BBX 7 7 1 0
BITMAP
38
44
82
82
82
44
38
ENDCHAR

STARTCHAR P
ENCODING 80
SWIDTH 620 0
DWIDTH 7 0
BBX 6 7 1 0
BITMAP
F8
44
44
78
40
40
E0
ENDCHAR

STARTCHAR Q
ENCODING 81
SWIDTH 820 0
DWIDTH 8 0
BBX 7 9 1 -2
BITMAP
38
44
82
82
82
44
38
10
0E
ENDCHAR

STARTCHAR R
ENCODING 82
SWIDTH 720 0
DWIDTH 7 0
BBX 7 7 1 0
BITMAP
F8
44
44
78
50
48
EE
ENDCHAR

STARTCHAR S
ENCODING 83
SWIDTH 660 0
DWIDTH 7 0
BBX 6 7 1 0
BITMAP
78
8C
80
78
04
C4
78
ENDCHAR

STARTCHAR T
ENCODING 84
SWIDTH 620 0
DWIDTH 6 0
BBX 7 7 0 0
BITMAP
7C
92
10
10
10
10
38
ENDCHAR

STARTCHAR U
ENCODING 85
SWIDTH 780 0
DWIDTH 8 0
BBX 7 7 1 0
BITMAP
EE
44
44
44
44
44
38
ENDCHAR

STARTCHAR V
ENCODING 86
SWIDTH 700 0
DWIDTH 6 0
BBX 7 7 0 0
BITMAP
EE
44
44
28
28
10
10
ENDCHAR

STARTCHAR W
ENCODING 87
SWIDTH 960 0
DWIDTH 9 0
BBX 10 7 0 0
BITMAP
EDC0
4880
4C80
2D00
2B00
1200
1200
ENDCHAR

STARTCHAR X
ENCODING 88
SWIDTH 720 0
DWIDTH 6 0
BBX 7 7 0 0
BITMAP
EE
44
28
10
28
44
EE
ENDCHAR

STARTCHAR Y
ENCODING 89
SWIDTH 640 0
DWIDTH 6 0
BBX 7 7 0 0
BITMAP
EE
44
28
10
10
10
38
ENDCHAR

STARTCHAR Z
ENCODING 90
SWIDTH 640 0
DWIDTH 6 0
BBX 6 7 0 0
BITMAP
7C
88
10
20
20
44
F8
ENDCHAR

STARTCHAR bracketleft
ENCODING 91
SWIDTH 300 0
DWIDTH 3 0
BBX 2 9 1 -2
BITMAP
C0
80
80
80
80
80
80
80
C0
ENDCHAR

STARTCHAR backslash
ENCODING 92
SWIDTH 600 0
DWIDTH 6 0
BBX 4 9 1 -2
BITMAP
80
80
40
40
20
20
20
10
10
ENDCHAR

STARTCHAR bracketright
ENCODING 93
SWIDTH 300 0
DWIDTH 3 0
BBX 2 9 1 -2
BITMAP
C0
40
40
40
40
40
40
40
C0
ENDCHAR

STARTCHAR asciicircum
ENCODING 94
SWIDTH 600 0
DWIDTH 6 0
BBX 6 4 0 3
BITMAP
30
30
48
84
ENDCHAR

STARTCHAR underscore
ENCODING 95
SWIDTH 500 0
DWIDTH 5 0
BBX 5 1 0 -2
BITMAP
F8
ENDCHAR

STARTCHAR quoteleft
ENCODING 96
SWIDTH 220 0
DWIDTH 2 0
BBX 2 3 0 4
BITMAP
40
80
C0
ENDCHAR

STARTCHAR a
ENCODING 97
SWIDTH 580 0
DWIDTH 6 0
BBX 5 5 1 0
BITMAP
60
90
70
90
68
ENDCHAR

STARTCHAR b
ENCODING 98
SWIDTH 620 0
DWIDTH 6 0
BBX 5 7 0 0
BITMAP
C0
40
70
48
48
48
70
ENDCHAR

STARTCHAR c
ENCODING 99
SWIDTH 520 0
DWIDTH 6 0
BBX 4 5 1 0
BITMAP
60
90
80
90
60
ENDCHAR

STARTCHAR d
ENCODING 100
SWIDTH 620 0
DWIDTH 6 0
BBX 5 7 1 0
BITMAP
30
10
70
90
90
90
78
ENDCHAR

STARTCHAR e
ENCODING 101
SWIDTH 520 0
DWIDTH 6 0
BBX 4 5 1 0
BITMAP
60
90
F0
80
70
ENDCHAR

STARTCHAR f
ENCODING 102
SWIDTH 320 0
DWIDTH 3 0
BBX 4 7 0 0
BITMAP
30
40
E0
40
40
40
E0
ENDCHAR

STARTCHAR g
ENCODING 103
SWIDTH 540 0
DWIDTH 5 0
BBX 5 7 0 -2
BITMAP
68
90
90
60
F0
88
70
ENDCHAR

STARTCHAR h
ENCODING 104
SWIDTH 660 0
DWIDTH 6 0
BBX 6 7 0 0
BITMAP
C0
40
58
68
48
48
EC
ENDCHAR

STARTCHAR i
ENCODING 105
SWIDTH 300 0
DWIDTH 3 0
BBX 3 7 0 0
BITMAP
40
00
C0
40
40
40
E0
ENDCHAR

STARTCHAR j
ENCODING 106
SWIDTH 300 0
DWIDTH 3 0
BBX 3 9 -1 -2
BITMAP
20
00
60
20
20
20
20
20
C0
ENDCHAR

STARTCHAR k
ENCODING 107
SWIDTH 620 0
DWIDTH 6 0
BBX 6 7 0 0
BITMAP
C0
40
4C
50
70
48
EC
ENDCHAR

STARTCHAR l
ENCODING 108
SWIDTH 300 0
DWIDTH 3 0
BBX 3 7 0 0
BITMAP
C0
40
40
40
40
40
E0
ENDCHAR

STARTCHAR m
ENCODING 109
SWIDTH 940 0
DWIDTH 9 0
BBX 9 5 0 0
BITMAP
DB00
6D00
4900
4900
DD80
ENDCHAR

STARTCHAR n
ENCODING 110
SWIDTH 660 0
DWIDTH 6 0
BBX 6 5 0 0
BITMAP
D8
68
48
48
EC
ENDCHAR

STARTCHAR o
ENCODING 111
SWIDTH 560 0
DWIDTH 6 0
BBX 4 5 1 0
BITMAP
60
90
90
90
60
ENDCHAR

STARTCHAR p
ENCODING 112
SWIDTH 620 0
DWIDTH 6 0
BBX 5 7 0 -2
BITMAP
F0
48
48
48
70
40
E0
ENDCHAR

STARTCHAR q
ENCODING 113
SWIDTH 580 0
DWIDTH 6 0
BBX 5 7 1 -2
BITMAP
70
90
90
90
70
10
38
ENDCHAR

STARTCHAR r
ENCODING 114
SWIDTH 440 0
DWIDTH 4 0
BBX 4 5 0 0
BITMAP
D0
60
40
40
E0
ENDCHAR

STARTCHAR s
ENCODING 115
SWIDTH 520 0
DWIDTH 6 0
BBX 4 5 1 0
BITMAP
70
80
60
10
E0
ENDCHAR

STARTCHAR t
ENCODING 116
SWIDTH 380 0
DWIDTH 4 0
BBX 4 6 0 0
BITMAP
40
E0
40
40
40
30
ENDCHAR

STARTCHAR u
ENCODING 117
SWIDTH 680 0
DWIDTH 6 0
BBX 6 5 0 0
BITMAP
D8
48
48
58
6C
ENDCHAR

STARTCHAR v
ENCODING 118
SWIDTH 520 0
DWIDTH 5 0
BBX 5 5 0 0
BITMAP
D8
48
50
20
20
ENDCHAR

STARTCHAR w
ENCODING 119
SWIDTH 780 0
DWIDTH 8 0
BBX 8 5 0 0
BITMAP
DB
49
52
2C
24
ENDCHAR

STARTCHAR x
ENCODING 120
SWIDTH 560 0
DWIDTH 5 0
BBX 5 5 0 0
BITMAP
D8
50
20
50
D8
ENDCHAR

STARTCHAR y
ENCODING 121
SWIDTH 540 0
DWIDTH 5 0
BBX 5 7 0 -2
BITMAP
D8
50
50
50
20
20
C0
ENDCHAR

STARTCHAR z
ENCODING 122
SWIDTH 480 0
DWIDTH 5 0
BBX 5 5 0 0
BITMAP
78
90
20
48
F0
ENDCHAR

STARTCHAR braceleft
ENCODING 123
SWIDTH 280 0
DWIDTH 3 0
BBX 3 9 0 -2
BITMAP
20
40
40
40
80
40
40
40
20
ENDCHAR

STARTCHAR bar
ENCODING 124
SWIDTH 600 0
DWIDTH 6 0
BBX 1 9 3 -2
BITMAP
80
80
80
80
80
80
80
80
80
ENDCHAR

STARTCHAR braceright
ENCODING 125
SWIDTH 280 0
DWIDTH 3 0
BBX 3 9 0 -2
BITMAP
80
40
40
40
20
40
40
40
80
ENDCHAR

STARTCHAR asciitilde
ENCODING 126
SWIDTH 600 0
DWIDTH 6 0
BBX 4 2 1 2
BITMAP
D0
B0
ENDCHAR

STARTCHAR space
ENCODING 160
SWIDTH 320 0
DWIDTH 3 0
BBX 0 0 0 0
BITMAP
ENDCHAR

STARTCHAR exclamdown
ENCODING 161
SWIDTH 300 0
DWIDTH 3 0
BBX 1 7 1 -2
BITMAP
80
00
80
80
80
80
80
ENDCHAR

STARTCHAR cent
ENCODING 162
SWIDTH 620 0
DWIDTH 6 0
BBX 4 7 1 0
BITMAP
20
70
A0
A0
F0
20
20
ENDCHAR

STARTCHAR sterling
ENCODING 163
SWIDTH 620 0
DWIDTH 6 0
BBX 6 7 0 0
BITMAP
38
48
F0
20
64
A4
58
ENDCHAR

STARTCHAR currency
ENCODING 164
SWIDTH 600 0
DWIDTH 6 0
BBX 5 5 1 1
BITMAP
A8
50
88
50
A8
ENDCHAR

STARTCHAR yen
ENCODING 165
SWIDTH 620 0
DWIDTH 6 0
BBX 7 7 0 0
BITMAP
EE
44
28
7C
10
10
38
ENDCHAR

STARTCHAR brokenbar
ENCODING 166
SWIDTH 600 0
DWIDTH 6 0
BBX 1 9 3 -2
BITMAP
80
80
80
80
00
80
80
80
80
ENDCHAR

STARTCHAR section
ENCODING 167
SWIDTH 520 0
DWIDTH 5 0
BBX 5 9 0 -2
BITMAP
70
88
E0
58
88
68
18
88
70
ENDCHAR

STARTCHAR dieresis
ENCODING 168
SWIDTH 420 0
DWIDTH 4 0
BBX 3 1 1 6
BITMAP
A0
ENDCHAR

STARTCHAR copyright
ENCODING 169
SWIDTH 740 0
DWIDTH 7 0
BBX 7 7 0 0
BITMAP
38
74
AA
C2
AA
54
38
ENDCHAR

STARTCHAR ordfeminine
ENCODING 170
SWIDTH 420 0
DWIDTH 4 0
BBX 4 4 0 3
BITMAP
C0
60
A0
50
ENDCHAR

STARTCHAR guillemotleft
ENCODING 171
SWIDTH 360 0
DWIDTH 4 0
BBX 4 3 0 1
BITMAP
50
A0
50
ENDCHAR

STARTCHAR logicalnot
ENCODING 172
SWIDTH 600 0
DWIDTH 6 0
BBX 5 2 1 3
BITMAP
F8
08
ENDCHAR

STARTCHAR hyphen
ENCODING 173
SWIDTH 400 0
DWIDTH 4 0
BBX 2 1 1 2
BITMAP
C0
ENDCHAR

STARTCHAR registered
ENCODING 174
SWIDTH 740 0
DWIDTH 7 0
BBX 7 7 -1 0
BITMAP
38
74
AA
BA
AA
6E
38
ENDCHAR

STARTCHAR macron
ENCODING 175
SWIDTH 440 0
DWIDTH 4 0
BBX 3 1 1 6
BITMAP
E0
ENDCHAR

STARTCHAR degree
ENCODING 176
SWIDTH 400 0
DWIDTH 4 0
BBX 3 3 0 4
BITMAP
40
A0
40
ENDCHAR

STARTCHAR plusminus
ENCODING 177
SWIDTH 600 0
DWIDTH 6 0
BBX 5 6 1 0
BITMAP
20
20
F8
20
00
F8
ENDCHAR

STARTCHAR twosuperior
ENCODING 178
SWIDTH 372 0
DWIDTH 4 0
BBX 3 4 0 3
BITMAP
40
A0
40
E0
ENDCHAR

STARTCHAR threesuperior
ENCODING 179
SWIDTH 372 0
DWIDTH 4 0
BBX 3 4 1 3
BITMAP
E0
40
A0
40
ENDCHAR

STARTCHAR acute
ENCODING 180
SWIDTH 340 0
DWIDTH 3 0
BBX 2 2 1 6
BITMAP
40
80
ENDCHAR

STARTCHAR mu
ENCODING 181
SWIDTH 680 0
DWIDTH 7 0
BBX 6 6 1 -1
BITMAP
48
48
48
5C
A8
80
ENDCHAR

STARTCHAR paragraph
ENCODING 182
SWIDTH 600 0
DWIDTH 6 0
BBX 5 9 1 -2
BITMAP
78
D0
D0
D0
50
50
50
50
50
ENDCHAR

STARTCHAR periodcentered
ENCODING 183
SWIDTH 320 0
DWIDTH 3 0
BBX 1 1 1 3
BITMAP
80
ENDCHAR

STARTCHAR cedilla
ENCODING 184
SWIDTH 320 0
DWIDTH 3 0
BBX 3 3 0 -2
BITMAP
40
20
C0
ENDCHAR

STARTCHAR onesuperior
ENCODING 185
SWIDTH 372 0
DWIDTH 4 0
BBX 3 4 0 3
BITMAP
C0
40
40
E0
ENDCHAR

STARTCHAR ordmasculine
ENCODING 186
SWIDTH 420 0
DWIDTH 4 0
BBX 4 4 0 3
BITMAP
60
90
90
60
ENDCHAR

STARTCHAR guillemotright
ENCODING 187
SWIDTH 360 0
DWIDTH 4 0
BBX 4 3 0 1
BITMAP
A0
50
A0
ENDCHAR

STARTCHAR onequarter
ENCODING 188
SWIDTH 930 0
DWIDTH 9 0
BBX 9 7 0 0
BITMAP
C200
4400
4800
E900
1300
2780
2100
ENDCHAR

STARTCHAR onehalf
ENCODING 189
SWIDTH 930 0
DWIDTH 9 0
BBX 8 7 1 0
BITMAP
C2
44
48
EE
19
22
47
ENDCHAR

STARTCHAR threequarters
ENCODING 190
SWIDTH 930 0
DWIDTH 9 0
BBX 9 7 1 0
BITMAP
E200
4200
A400
4900
1300
1780
2100
ENDCHAR

STARTCHAR questiondown
ENCODING 191
SWIDTH 540 0
DWIDTH 5 0
BBX 5 7 0 -2
BITMAP
10
00
70
C0
80
88
70
ENDCHAR

STARTCHAR Agrave
ENCODING 192
SWIDTH 680 0
DWIDTH 6 0
BBX 7 10 0 0
BITMAP
20
10
00
10
10
28
28
7C
44
EE
ENDCHAR

STARTCHAR Aacute
ENCODING 193
SWIDTH 680 0
DWIDTH 6 0
BBX 7 10 0 0
BITMAP
08
10
00
10
10
28
28
7C
44
EE
ENDCHAR

STARTCHAR Acircumflex
ENCODING 194
SWIDTH 680 0
DWIDTH 6 0
BBX 7 10 0 0
BITMAP
10
28
00
10
10
28
28
7C
44
EE
ENDCHAR

STARTCHAR Atilde
ENCODING 195
SWIDTH 680 0
DWIDTH 6 0
BBX 7 10 0 0
BITMAP
14
28
00
10
10
28
28
7C
44
EE
ENDCHAR

STARTCHAR Adieresis
ENCODING 196
SWIDTH 680 0
DWIDTH 6 0
BBX 7 9 0 0
BITMAP
28
00
10
10
28
28
7C
44
EE
ENDCHAR

STARTCHAR Aring
ENCODING 197
SWIDTH 680 0
DWIDTH 6 0
BBX 7 10 0 0
BITMAP
10
28
28
10
10
28
28
7C
44
EE
ENDCHAR

STARTCHAR AE
ENCODING 198
SWIDTH 1260 0
DWIDTH 13 0
BBX 12 7 1 0
BITMAP
0FE0
1210
1240
3FC0
4240
4210
C7E0
ENDCHAR

STARTCHAR Ccedilla
ENCODING 199
SWIDTH 740 0
DWIDTH 7 0
BBX 6 10 1 -3
BITMAP
38
4C
80
80
80
44
38
10
08
30
ENDCHAR

STARTCHAR Egrave
ENCODING 200
SWIDTH 720 0
DWIDTH 7 0
BBX 7 10 1 0
BITMAP
20
10
00
FC
42
48
78
48
42
FC
ENDCHAR

STARTCHAR Eacute
ENCODING 201
SWIDTH 720 0
DWIDTH 7 0
BBX 7 10 1 0
BITMAP
08
10
00
FC
42
48
78
48
42
FC
ENDCHAR

STARTCHAR Ecircumflex
ENCODING 202
SWIDTH 720 0
DWIDTH 7 0
BBX 7 10 1 0
BITMAP
10
28
00
FC
42
48
78
48
42
FC
ENDCHAR

STARTCHAR Edieresis
ENCODING 203
SWIDTH 720 0
DWIDTH 7 0
BBX 7 9 1 0
BITMAP
28
00
FC
42
48
78
48
42
FC
ENDCHAR

STARTCHAR Igrave
ENCODING 204
SWIDTH 340 0
DWIDTH 4 0
BBX 3 10 1 0
BITMAP
80
40
00
E0
40
40
40
40
40
E0
ENDCHAR

STARTCHAR Iacute
ENCODING 205
SWIDTH 340 0
DWIDTH 4 0
BBX 3 10 1 0
BITMAP
20
40
00
E0
40
40
40
40
40
E0
ENDCHAR

STARTCHAR Icircumflex
ENCODING 206
SWIDTH 340 0
DWIDTH 4 0
BBX 3 10 1 0
BITMAP
40
A0
00
E0
40
40
40
40
40
E0
ENDCHAR

STARTCHAR Idieresis
ENCODING 207
SWIDTH 340 0
DWIDTH 4 0
BBX 3 9 1 0
BITMAP
A0
00
E0
40
40
40
40
40
E0
ENDCHAR

STARTCHAR Gbreve
ENCODING 208
SWIDTH 800 0
DWIDTH 8 0
BBX 7 10 1 0
BITMAP
28
10
00
38
4C
80
8E
84
4C
34
ENDCHAR

STARTCHAR Ntilde
ENCODING 209
SWIDTH 740 0
DWIDTH 7 0
BBX 7 10 0 0
BITMAP
14
28
00
EE
64
54
54
4C
4C
E4
ENDCHAR

STARTCHAR Ograve
ENCODING 210
SWIDTH 800 0
DWIDTH 8 0
BBX 7 10 1 0
BITMAP
20
10
00
38
44
82
82
82
44
38
ENDCHAR

STARTCHAR Oacute
ENCODING 211
SWIDTH 800 0
DWIDTH 8 0
BBX 7 10 1 0
BITMAP
08
10
00
38
44
82
82
82
44
38
ENDCHAR

STARTCHAR Ocircumflex
ENCODING 212
SWIDTH 800 0
DWIDTH 8 0
BBX 7 10 1 0
BITMAP
10
28
00
38
44
82
82
82
44
38
ENDCHAR

STARTCHAR Otilde
ENCODING 213
SWIDTH 800 0
DWIDTH 8 0
BBX 7 10 1 0
BITMAP
14
28
00
38
44
82
82
82
44
38
ENDCHAR

STARTCHAR Odieresis
ENCODING 214
SWIDTH 800 0
DWIDTH 8 0
BBX 7 9 1 0
BITMAP
28
00
38
44
82
82
82
44
38
ENDCHAR

STARTCHAR multiply
ENCODING 215
SWIDTH 600 0
DWIDTH 6 0
BBX 4 4 1 1
BITMAP
90
60
60
90
ENDCHAR

STARTCHAR Oslash
ENCODING 216
SWIDTH 800 0
DWIDTH 8 0
BBX 7 7 1 0
BITMAP
3A
44
8A
92
A2
44
B8
ENDCHAR

STARTCHAR Ugrave
ENCODING 217
SWIDTH 780 0
DWIDTH 8 0
BBX 7 10 1 0
BITMAP
20
10
00
EE
44
44
44
44
44
38
ENDCHAR

STARTCHAR Uacute
ENCODING 218
SWIDTH 780 0
DWIDTH 8 0
BBX 7 10 1 0
BITMAP
08
10
00
EE
44
44
44
44
44
38
ENDCHAR

STARTCHAR Ucircumflex
ENCODING 219
SWIDTH 780 0
DWIDTH 8 0
BBX 7 10 1 0
BITMAP
10
28
00
EE
44
44
44
44
44
38
ENDCHAR

STARTCHAR Udieresis
ENCODING 220
SWIDTH 780 0
DWIDTH 8 0
BBX 7 9 1 0
BITMAP
28
00
EE
44
44
44
44
44
38
ENDCHAR

STARTCHAR Idotaccent
ENCODING 221
SWIDTH 340 0
DWIDTH 4 0
BBX 3 9 1 0
BITMAP
40
00
E0
40
40
40
40
40
E0
ENDCHAR

STARTCHAR Scedilla
ENCODING 222
SWIDTH 660 0
DWIDTH 7 0
BBX 6 10 1 -3
BITMAP
78
8C
80
78
04
C4
78
20
10
60
ENDCHAR

STARTCHAR germandbls
ENCODING 223
SWIDTH 660 0
DWIDTH 7 0
BBX 6 8 1 0
BITMAP
30
48
58
E0
58
44
64
D8
ENDCHAR

STARTCHAR agrave
ENCODING 224
SWIDTH 580 0
DWIDTH 6 0
BBX 5 8 1 0
BITMAP
40
20
00
60
90
70
90
68
ENDCHAR

STARTCHAR aacute
ENCODING 225
SWIDTH 580 0
DWIDTH 6 0
BBX 5 8 1 0
BITMAP
10
20
00
60
90
70
90
68
ENDCHAR

STARTCHAR acircumflex
ENCODING 226
SWIDTH 580 0
DWIDTH 6 0
BBX 5 8 1 0
BITMAP
20
50
00
60
90
70
90
68
ENDCHAR

STARTCHAR atilde
ENCODING 227
SWIDTH 580 0
DWIDTH 6 0
BBX 5 8 1 0
BITMAP
28
50
00
60
90
70
90
68
ENDCHAR

STARTCHAR adieresis
ENCODING 228
SWIDTH 580 0
DWIDTH 6 0
BBX 5 7 1 0
BITMAP
50
00
60
90
70
90
68
ENDCHAR

STARTCHAR aring
ENCODING 229
SWIDTH 580 0
DWIDTH 6 0
BBX 5 8 1 0
BITMAP
20
50
20
60
90
70
90
68
ENDCHAR

STARTCHAR ae
ENCODING 230
SWIDTH 860 0
DWIDTH 9 0
BBX 7 5 1 0
BITMAP
EC
12
7C
92
6C
ENDCHAR

STARTCHAR ccedilla
ENCODING 231
SWIDTH 520 0
DWIDTH 6 0
BBX 4 8 1 -3
BITMAP
60
90
80
90
60
40
20
C0
ENDCHAR

STARTCHAR egrave
ENCODING 232
SWIDTH 520 0
DWIDTH 6 0
BBX 4 8 1 0
BITMAP
40
20
00
60
90
F0
80
70
ENDCHAR

STARTCHAR eacute
ENCODING 233
SWIDTH 520 0
DWIDTH 6 0
BBX 4 8 1 0
BITMAP
10
20
00
60
90
F0
80
70
ENDCHAR

STARTCHAR ecircumflex
ENCODING 234
SWIDTH 520 0
DWIDTH 6 0
BBX 4 8 1 0
BITMAP
20
50
00
60
90
F0
80
70
ENDCHAR

STARTCHAR edieresis
ENCODING 235
SWIDTH 520 0
DWIDTH 6 0
BBX 4 7 1 0
BITMAP
50
00
60
90
F0
80
70
ENDCHAR

STARTCHAR igrave
ENCODING 236
SWIDTH 300 0
DWIDTH 3 0
BBX 3 8 0 0
BITMAP
80
40
00
C0
40
40
40
E0
ENDCHAR

STARTCHAR iacute
ENCODING 237
SWIDTH 300 0
DWIDTH 3 0
BBX 3 8 0 0
BITMAP
20
40
00
C0
40
40
40
E0
ENDCHAR

STARTCHAR icircumflex
ENCODING 238
SWIDTH 300 0
DWIDTH 3 0
BBX 3 8 0 0
BITMAP
40
A0
00
C0
40
40
40
E0
ENDCHAR

STARTCHAR idieresis
ENCODING 239
SWIDTH 300 0
DWIDTH 3 0
BBX 3 7 0 0
BITMAP
A0
00
C0
40
40
40
E0
ENDCHAR

STARTCHAR gbreve
ENCODING 240
SWIDTH 540 0
DWIDTH 5 0
BBX 5 10 0 -2
BITMAP
50
20
00
68
90
90
60
F0
88
70
ENDCHAR

STARTCHAR ntilde
ENCODING 241
SWIDTH 660 0
DWIDTH 6 0
BBX 6 8 0 0
BITMAP
28
50
00
D8
68
48
48
EC
ENDCHAR

STARTCHAR ograve
ENCODING 242
SWIDTH 560 0
DWIDTH 6 0
BBX 4 8 1 0
BITMAP
40
20
00
60
90
90
90
60
ENDCHAR

STARTCHAR oacute
ENCODING 243
SWIDTH 560 0
DWIDTH 6 0
BBX 4 8 1 0
BITMAP
10
20
00
60
90
90
90
60
ENDCHAR

STARTCHAR ocircumflex
ENCODING 244
SWIDTH 560 0
DWIDTH 6 0
BBX 4 8 1 0
BITMAP
20
50
00
60
90
90
90
60
ENDCHAR

STARTCHAR otilde
ENCODING 245
SWIDTH 560 0
DWIDTH 6 0
BBX 5 8 1 0
BITMAP
28
50
00
60
90
90
90
60
ENDCHAR

STARTCHAR odieresis
ENCODING 246
SWIDTH 560 0
DWIDTH 6 0
BBX 4 7 1 0
BITMAP
50
00
60
90
90
90
60
ENDCHAR

STARTCHAR divide
ENCODING 247
SWIDTH 600 0
DWIDTH 6 0
BBX 5 5 0 1
BITMAP
20
00
F8
00
20
ENDCHAR

STARTCHAR oslash
ENCODING 248
SWIDTH 560 0
DWIDTH 6 0
BBX 5 5 1 0
BITMAP
68
98
A8
48
B0
ENDCHAR

STARTCHAR ugrave
ENCODING 249
SWIDTH 680 0
DWIDTH 7 0
BBX 6 8 0 0
BITMAP
20
10
00
D8
48
48
58
6C
ENDCHAR

STARTCHAR uacute
ENCODING 250
SWIDTH 680 0
DWIDTH 7 0
BBX 6 8 0 0
BITMAP
10
20
00
D8
48
48
58
6C
ENDCHAR

STARTCHAR ucircumflex
ENCODING 251
SWIDTH 680 0
DWIDTH 7 0
BBX 6 8 0 0
BITMAP
10
28
00
D8
48
48
58
6C
ENDCHAR

STARTCHAR udieresis
ENCODING 252
SWIDTH 680 0
DWIDTH 7 0
BBX 6 7 0 0
BITMAP
28
00
D8
48
48
58
6C
ENDCHAR

STARTCHAR dotlessi
ENCODING 253
SWIDTH 300 0
DWIDTH 3 0
BBX 3 5 0 0
BITMAP
C0
40
40
40
E0
ENDCHAR

STARTCHAR scedilla
ENCODING 254
SWIDTH 520 0
DWIDTH 6 0
BBX 4 8 1 -3
BITMAP
70
80
60
10
E0
40
20
C0
ENDCHAR

STARTCHAR ydieresis
ENCODING 255
SWIDTH 540 0
DWIDTH 5 0
BBX 5 9 0 -2
BITMAP
50
00
D8
50
50
50
20
20
C0
ENDCHAR

ENDFONT
