STARTFONT 2.1
FONT -Monotype-Century Gothic-Bold-I-Normal--10-100-75-75-P-52-iso8859-9
SIZE 10 75 75
FONTBOUNDINGBOX 11 13 -1 -3

STARTPROPERTIES 21
FOUNDRY "Monotype"
FAMILY_NAME "Century Gothic"
WEIGHT_NAME "Bold"
SLANT "I"
SETWIDTH_NAME "Normal"
ADD_STYLE_NAME ""
PIXEL_SIZE 10
POINT_SIZE 100
RESOLUTION_X 75
RESOLUTION_Y 75
SPACING "P"
AVERAGE_WIDTH 52
CHARSET_REGISTRY "iso8859"
CHARSET_ENCODING "9"
COPYRIGHT "Copyright (c) 1996 Monotype Typography Ltd."
CAP_HEIGHT 9
X_HEIGHT 6
WEIGHT 10
QUAD_WIDTH 6
FONT_DESCENT 3
FONT_ASCENT 10
ENDPROPERTIES

CHARS 191

STARTCHAR space
ENCODING 32
SWIDTH 280 0
DWIDTH 3 0
BBX 0 0 0 0
BITMAP
ENDCHAR

STARTCHAR exclam
ENCODING 33
SWIDTH 280 0
DWIDTH 3 0
BBX 3 7 1 0
BITMAP
60
60
60
C0
C0
00
C0
ENDCHAR

STARTCHAR quotedbl
ENCODING 34
SWIDTH 360 0
DWIDTH 4 0
BBX 3 3 1 4
BITMAP
A0
A0
A0
ENDCHAR

STARTCHAR numbersign
ENCODING 35
SWIDTH 600 0
DWIDTH 6 0
BBX 5 8 1 0
BITMAP
28
28
F8
50
F8
A0
A0
A0
ENDCHAR

STARTCHAR dollar
ENCODING 36
SWIDTH 560 0
DWIDTH 6 0
BBX 6 9 0 -1
BITMAP
10
38
6C
60
30
18
D8
70
20
ENDCHAR

STARTCHAR percent
ENCODING 37
SWIDTH 860 0
DWIDTH 9 0
BBX 9 8 0 0
BITMAP
7700
DA00
D600
6400
0B80
1680
3680
4300
ENDCHAR

STARTCHAR ampersand
ENCODING 38
SWIDTH 680 0
DWIDTH 7 0
BBX 6 7 1 0
BITMAP
18
28
30
70
DC
C8
74
ENDCHAR

STARTCHAR quoteright
ENCODING 39
SWIDTH 280 0
DWIDTH 3 0
BBX 2 3 1 4
BITMAP
40
40
80
ENDCHAR

STARTCHAR parenleft
ENCODING 40
SWIDTH 380 0
DWIDTH 4 0
BBX 3 10 1 -2
BITMAP
20
60
60
C0
C0
C0
C0
C0
40
40
ENDCHAR

STARTCHAR parenright
ENCODING 41
SWIDTH 380 0
DWIDTH 4 0
BBX 3 10 1 -2
BITMAP
40
40
60
60
60
60
60
40
C0
80
ENDCHAR

STARTCHAR asterisk
ENCODING 42
SWIDTH 440 0
DWIDTH 4 0
BBX 4 4 0 3
BITMAP
40
70
E0
20
ENDCHAR

STARTCHAR plus
ENCODING 43
SWIDTH 600 0
DWIDTH 6 0
BBX 5 5 1 1
BITMAP
20
20
F8
20
20
ENDCHAR

STARTCHAR comma
ENCODING 44
SWIDTH 280 0
DWIDTH 3 0
BBX 2 3 1 -1
BITMAP
40
40
80
ENDCHAR

STARTCHAR minus
ENCODING 45
SWIDTH 600 0
DWIDTH 6 0
BBX 5 1 1 3
BITMAP
F8
ENDCHAR

STARTCHAR period
ENCODING 46
SWIDTH 280 0
DWIDTH 3 0
BBX 2 1 1 0
BITMAP
C0
ENDCHAR

STARTCHAR slash
ENCODING 47
SWIDTH 460 0
DWIDTH 5 0
BBX 4 9 1 -1
BITMAP
10
10
30
20
60
40
C0
80
80
ENDCHAR

STARTCHAR zero
ENCODING 48
SWIDTH 560 0
DWIDTH 6 0
BBX 5 7 1 0
BITMAP
30
68
C8
D8
98
B0
60
ENDCHAR

STARTCHAR one
ENCODING 49
SWIDTH 560 0
DWIDTH 6 0
BBX 3 7 2 0
BITMAP
E0
60
60
60
C0
C0
C0
ENDCHAR

STARTCHAR two
ENCODING 50
SWIDTH 560 0
DWIDTH 6 0
BBX 5 7 1 0
BITMAP
70
D8
18
18
30
60
F0
ENDCHAR

STARTCHAR three
ENCODING 51
SWIDTH 560 0
DWIDTH 6 0
BBX 6 7 0 0
BITMAP
38
6C
0C
38
18
D8
70
ENDCHAR

STARTCHAR four
ENCODING 52
SWIDTH 560 0
DWIDTH 6 0
BBX 6 7 1 0
BITMAP
18
38
58
98
FC
30
30
ENDCHAR

STARTCHAR five
ENCODING 53
SWIDTH 560 0
DWIDTH 6 0
BBX 6 7 0 0
BITMAP
3C
20
70
08
18
D8
70
ENDCHAR

STARTCHAR six
ENCODING 54
SWIDTH 560 0
DWIDTH 6 0
BBX 5 7 1 0
BITMAP
18
30
60
F0
C8
98
70
ENDCHAR

STARTCHAR seven
ENCODING 55
SWIDTH 560 0
DWIDTH 6 0
BBX 5 7 1 0
BITMAP
78
18
30
30
60
60
C0
ENDCHAR

STARTCHAR eight
ENCODING 56
SWIDTH 560 0
DWIDTH 6 0
BBX 5 7 1 0
BITMAP
30
68
68
70
98
98
70
ENDCHAR

STARTCHAR nine
ENCODING 57
SWIDTH 560 0
DWIDTH 6 0
BBX 5 7 1 0
BITMAP
70
C8
98
78
30
60
C0
ENDCHAR

STARTCHAR colon
ENCODING 58
SWIDTH 280 0
DWIDTH 3 0
BBX 3 5 0 0
BITMAP
60
00
00
00
C0
ENDCHAR

STARTCHAR semicolon
ENCODING 59
SWIDTH 280 0
DWIDTH 3 0
BBX 3 6 0 -1
BITMAP
60
00
00
40
40
80
ENDCHAR

STARTCHAR less
ENCODING 60
SWIDTH 600 0
DWIDTH 6 0
BBX 5 5 1 1
BITMAP
38
E0
80
40
30
ENDCHAR

STARTCHAR equal
ENCODING 61
SWIDTH 600 0
DWIDTH 6 0
BBX 4 3 1 2
BITMAP
F0
00
F0
ENDCHAR

STARTCHAR greater
ENCODING 62
SWIDTH 600 0
DWIDTH 6 0
BBX 5 5 1 1
BITMAP
60
10
08
38
E0
ENDCHAR

STARTCHAR question
ENCODING 63
SWIDTH 560 0
DWIDTH 6 0
BBX 5 8 1 0
BITMAP
70
C8
18
30
20
00
00
60
ENDCHAR

STARTCHAR at
ENCODING 64
SWIDTH 740 0
DWIDTH 7 0
BBX 8 8 0 0
BITMAP
7E
C3
9D
B5
B5
9E
C0
7C
ENDCHAR

STARTCHAR A
ENCODING 65
SWIDTH 740 0
DWIDTH 7 0
BBX 7 7 0 0
BITMAP
0C
1C
36
36
7E
66
C6
ENDCHAR

STARTCHAR B
ENCODING 66
SWIDTH 580 0
DWIDTH 6 0
BBX 6 7 1 0
BITMAP
78
6C
6C
F8
D8
D8
F0
ENDCHAR

STARTCHAR C
ENCODING 67
SWIDTH 780 0
DWIDTH 8 0
BBX 7 7 1 0
BITMAP
1C
66
60
C0
C0
CC
78
ENDCHAR

STARTCHAR D
ENCODING 68
SWIDTH 700 0
DWIDTH 7 0
BBX 6 7 1 0
BITMAP
78
6C
6C
CC
D8
D8
E0
ENDCHAR

STARTCHAR E
ENCODING 69
SWIDTH 520 0
DWIDTH 5 0
BBX 5 7 1 0
BITMAP
78
60
60
F0
C0
C0
F0
ENDCHAR

STARTCHAR F
ENCODING 70
SWIDTH 480 0
DWIDTH 5 0
BBX 5 7 1 0
BITMAP
78
60
60
F0
C0
C0
C0
ENDCHAR

STARTCHAR G
ENCODING 71
SWIDTH 840 0
DWIDTH 8 0
BBX 7 7 1 0
BITMAP
1C
66
60
CE
C6
CC
78
ENDCHAR

STARTCHAR H
ENCODING 72
SWIDTH 680 0
DWIDTH 7 0
BBX 6 7 1 0
BITMAP
6C
6C
6C
FC
D8
D8
D8
ENDCHAR

STARTCHAR I
ENCODING 73
SWIDTH 280 0
DWIDTH 4 0
BBX 3 7 1 0
BITMAP
60
60
60
60
C0
C0
C0
ENDCHAR

STARTCHAR J
ENCODING 74
SWIDTH 480 0
DWIDTH 5 0
BBX 5 7 0 0
BITMAP
18
18
18
30
30
B0
60
ENDCHAR

STARTCHAR K
ENCODING 75
SWIDTH 620 0
DWIDTH 6 0
BBX 6 7 1 0
BITMAP
6C
6C
78
F0
F0
D8
D8
ENDCHAR

STARTCHAR L
ENCODING 76
SWIDTH 440 0
DWIDTH 5 0
BBX 4 7 1 0
BITMAP
60
60
60
C0
C0
C0
F0
ENDCHAR

STARTCHAR M
ENCODING 77
SWIDTH 900 0
DWIDTH 9 0
BBX 9 7 0 0
BITMAP
3080
3180
3B80
6B80
6D80
CD80
C980
ENDCHAR

STARTCHAR N
ENCODING 78
SWIDTH 740 0
DWIDTH 8 0
BBX 7 7 1 0
BITMAP
66
66
76
D6
DC
CC
CC
ENDCHAR

STARTCHAR O
ENCODING 79
SWIDTH 840 0
DWIDTH 8 0
BBX 7 7 1 0
BITMAP
1C
66
66
C6
CC
CC
70
ENDCHAR

STARTCHAR P
ENCODING 80
SWIDTH 560 0
DWIDTH 6 0
BBX 6 7 1 0
BITMAP
78
6C
6C
F8
C0
C0
C0
ENDCHAR

STARTCHAR Q
ENCODING 81
SWIDTH 840 0
DWIDTH 8 0
BBX 7 7 1 0
BITMAP
1C
66
66
C6
DC
CC
76
ENDCHAR

STARTCHAR R
ENCODING 82
SWIDTH 580 0
DWIDTH 7 0
BBX 6 7 1 0
BITMAP
78
6C
6C
F8
F0
D8
CC
ENDCHAR

STARTCHAR S
ENCODING 83
SWIDTH 520 0
DWIDTH 5 0
BBX 6 7 0 0
BITMAP
38
6C
60
30
18
D8
70
ENDCHAR

STARTCHAR T
ENCODING 84
SWIDTH 420 0
DWIDTH 4 0
BBX 6 7 0 0
BITMAP
FC
30
30
30
60
60
60
ENDCHAR

STARTCHAR U
ENCODING 85
SWIDTH 640 0
DWIDTH 7 0
BBX 6 7 1 0
BITMAP
6C
6C
6C
CC
D8
D8
70
ENDCHAR

STARTCHAR V
ENCODING 86
SWIDTH 700 0
DWIDTH 7 0
BBX 7 7 1 0
BITMAP
C6
C6
6C
6C
78
38
30
ENDCHAR

STARTCHAR W
ENCODING 87
SWIDTH 900 0
DWIDTH 9 0
BBX 9 7 1 0
BITMAP
C980
C980
DB00
EB00
EE00
6600
6600
ENDCHAR

STARTCHAR X
ENCODING 88
SWIDTH 680 0
DWIDTH 6 0
BBX 7 7 0 0
BITMAP
C6
6C
6C
38
70
D8
D8
ENDCHAR

STARTCHAR Y
ENCODING 89
SWIDTH 620 0
DWIDTH 6 0
BBX 6 7 1 0
BITMAP
CC
CC
78
30
30
60
60
ENDCHAR

STARTCHAR Z
ENCODING 90
SWIDTH 500 0
DWIDTH 4 0
BBX 5 7 0 0
BITMAP
78
18
30
30
60
60
F0
ENDCHAR

STARTCHAR bracketleft
ENCODING 91
SWIDTH 320 0
DWIDTH 3 0
BBX 3 9 1 -2
BITMAP
60
40
40
C0
C0
C0
80
80
C0
ENDCHAR

STARTCHAR backslash
ENCODING 92
SWIDTH 640 0
DWIDTH 6 0
BBX 4 9 1 -1
BITMAP
80
80
C0
40
60
20
30
10
10
ENDCHAR

STARTCHAR bracketright
ENCODING 93
SWIDTH 320 0
DWIDTH 3 0
BBX 3 9 0 -2
BITMAP
60
20
20
60
60
60
40
40
C0
ENDCHAR

STARTCHAR asciicircum
ENCODING 94
SWIDTH 600 0
DWIDTH 6 0
BBX 5 6 1 1
BITMAP
20
70
50
D8
88
88
ENDCHAR

STARTCHAR underscore
ENCODING 95
SWIDTH 500 0
DWIDTH 5 0
BBX 5 1 0 -2
BITMAP
F8
ENDCHAR

STARTCHAR quoteleft
ENCODING 96
SWIDTH 280 0
DWIDTH 3 0
BBX 2 3 1 4
BITMAP
40
80
80
ENDCHAR

STARTCHAR a
ENCODING 97
SWIDTH 660 0
DWIDTH 7 0
BBX 6 5 1 0
BITMAP
34
6C
CC
DC
68
ENDCHAR

STARTCHAR b
ENCODING 98
SWIDTH 660 0
DWIDTH 7 0
BBX 6 7 1 0
BITMAP
60
60
78
EC
CC
C8
F0
ENDCHAR

STARTCHAR c
ENCODING 99
SWIDTH 640 0
DWIDTH 5 0
BBX 5 5 1 0
BITMAP
30
68
C0
D0
60
ENDCHAR

STARTCHAR d
ENCODING 100
SWIDTH 660 0
DWIDTH 7 0
BBX 7 7 1 0
BITMAP
06
06
36
6C
CC
DC
6C
ENDCHAR

STARTCHAR e
ENCODING 101
SWIDTH 640 0
DWIDTH 6 0
BBX 5 5 1 0
BITMAP
30
68
F8
C0
70
ENDCHAR

STARTCHAR f
ENCODING 102
SWIDTH 280 0
DWIDTH 4 0
BBX 4 7 1 0
BITMAP
70
60
F0
60
C0
C0
C0
ENDCHAR

STARTCHAR g
ENCODING 103
SWIDTH 660 0
DWIDTH 7 0
BBX 6 7 1 -2
BITMAP
34
6C
CC
CC
78
98
70
ENDCHAR

STARTCHAR h
ENCODING 104
SWIDTH 600 0
DWIDTH 6 0
BBX 5 7 1 0
BITMAP
60
60
78
68
D8
D8
D0
ENDCHAR

STARTCHAR i
ENCODING 105
SWIDTH 240 0
DWIDTH 3 0
BBX 3 7 1 0
BITMAP
60
00
60
60
C0
C0
C0
ENDCHAR

STARTCHAR j
ENCODING 106
SWIDTH 260 0
DWIDTH 3 0
BBX 5 9 -1 -2
BITMAP
18
00
18
18
30
30
30
20
E0
ENDCHAR

STARTCHAR k
ENCODING 107
SWIDTH 580 0
DWIDTH 6 0
BBX 6 7 1 0
BITMAP
60
60
6C
D8
F0
D8
CC
ENDCHAR

STARTCHAR l
ENCODING 108
SWIDTH 240 0
DWIDTH 3 0
BBX 3 7 1 0
BITMAP
60
60
60
C0
C0
C0
C0
ENDCHAR

STARTCHAR m
ENCODING 109
SWIDTH 940 0
DWIDTH 9 0
BBX 8 5 1 0
BITMAP
76
6D
DB
DB
92
ENDCHAR

STARTCHAR n
ENCODING 110
SWIDTH 600 0
DWIDTH 6 0
BBX 5 5 1 0
BITMAP
70
68
D8
D8
90
ENDCHAR

STARTCHAR o
ENCODING 111
SWIDTH 640 0
DWIDTH 6 0
BBX 5 5 1 0
BITMAP
70
C8
D8
98
70
ENDCHAR

STARTCHAR p
ENCODING 112
SWIDTH 660 0
DWIDTH 7 0
BBX 6 7 1 -2
BITMAP
78
64
6C
CC
F8
C0
C0
ENDCHAR

STARTCHAR q
ENCODING 113
SWIDTH 660 0
DWIDTH 7 0
BBX 6 7 1 -2
BITMAP
3C
6C
CC
DC
78
18
18
ENDCHAR

STARTCHAR r
ENCODING 114
SWIDTH 320 0
DWIDTH 4 0
BBX 5 5 0 0
BITMAP
68
78
60
C0
C0
ENDCHAR

STARTCHAR s
ENCODING 115
SWIDTH 440 0
DWIDTH 4 0
BBX 5 5 0 0
BITMAP
38
60
30
30
E0
ENDCHAR

STARTCHAR t
ENCODING 116
SWIDTH 300 0
DWIDTH 3 0
BBX 5 7 0 0
BITMAP
30
30
F8
60
60
60
60
ENDCHAR

STARTCHAR u
ENCODING 117
SWIDTH 600 0
DWIDTH 6 0
BBX 5 5 1 0
BITMAP
48
D8
D8
90
60
ENDCHAR

STARTCHAR v
ENCODING 118
SWIDTH 560 0
DWIDTH 5 0
BBX 5 5 1 0
BITMAP
C8
D8
D0
70
60
ENDCHAR

STARTCHAR w
ENCODING 119
SWIDTH 800 0
DWIDTH 7 0
BBX 7 5 1 0
BITMAP
D2
D6
FC
EC
C8
ENDCHAR

STARTCHAR x
ENCODING 120
SWIDTH 560 0
DWIDTH 6 0
BBX 6 5 1 0
BITMAP
CC
78
20
70
D8
ENDCHAR

STARTCHAR y
ENCODING 121
SWIDTH 580 0
DWIDTH 6 0
BBX 6 7 0 -2
BITMAP
6C
6C
68
38
30
60
C0
ENDCHAR

STARTCHAR z
ENCODING 122
SWIDTH 460 0
DWIDTH 4 0
BBX 5 5 0 0
BITMAP
78
18
30
60
F0
ENDCHAR

STARTCHAR braceleft
ENCODING 123
SWIDTH 340 0
DWIDTH 3 0
BBX 4 10 0 -2
BITMAP
10
30
20
60
40
C0
40
40
60
20
ENDCHAR

STARTCHAR bar
ENCODING 124
SWIDTH 600 0
DWIDTH 6 0
BBX 1 9 2 -2
BITMAP
80
80
80
80
80
80
80
80
80
ENDCHAR

STARTCHAR braceright
ENCODING 125
SWIDTH 340 0
DWIDTH 3 0
BBX 4 10 0 -2
BITMAP
40
60
20
20
30
20
60
40
C0
80
ENDCHAR

STARTCHAR asciitilde
ENCODING 126
SWIDTH 600 0
DWIDTH 6 0
BBX 5 2 1 3
BITMAP
E8
B8
ENDCHAR

STARTCHAR space
ENCODING 160
SWIDTH 280 0
DWIDTH 3 0
BBX 0 0 0 0
BITMAP
ENDCHAR

STARTCHAR exclamdown
ENCODING 161
SWIDTH 280 0
DWIDTH 3 0
BBX 3 7 0 -2
BITMAP
60
00
60
60
C0
C0
C0
ENDCHAR

STARTCHAR cent
ENCODING 162
SWIDTH 560 0
DWIDTH 6 0
BBX 5 7 1 -1
BITMAP
08
30
58
A0
D0
60
80
ENDCHAR

STARTCHAR sterling
ENCODING 163
SWIDTH 560 0
DWIDTH 6 0
BBX 5 7 1 0
BITMAP
30
58
40
F0
40
58
F0
ENDCHAR

STARTCHAR currency
ENCODING 164
SWIDTH 600 0
DWIDTH 6 0
BBX 6 4 0 2
BITMAP
B4
D8
6C
B4
ENDCHAR

STARTCHAR yen
ENCODING 165
SWIDTH 560 0
DWIDTH 6 0
BBX 6 7 0 0
BITMAP
64
6C
28
7C
30
F8
30
ENDCHAR

STARTCHAR brokenbar
ENCODING 166
SWIDTH 600 0
DWIDTH 6 0
BBX 1 9 3 -2
BITMAP
80
80
80
00
00
00
80
80
80
ENDCHAR

STARTCHAR section
ENCODING 167
SWIDTH 560 0
DWIDTH 6 0
BBX 6 10 0 -2
BITMAP
18
2C
20
30
58
68
30
10
D0
60
ENDCHAR

STARTCHAR dieresis
ENCODING 168
SWIDTH 500 0
DWIDTH 5 0
BBX 5 1 0 6
BITMAP
D8
ENDCHAR

STARTCHAR copyright
ENCODING 169
SWIDTH 740 0
DWIDTH 7 0
BBX 8 7 0 0
BITMAP
3C
5A
A5
A1
A5
5A
3C
ENDCHAR

STARTCHAR ordfeminine
ENCODING 170
SWIDTH 360 0
DWIDTH 4 0
BBX 3 4 1 3
BITMAP
60
A0
A0
60
ENDCHAR

STARTCHAR guillemotleft
ENCODING 171
SWIDTH 460 0
DWIDTH 5 0
BBX 5 5 0 0
BITMAP
28
50
A0
F0
50
ENDCHAR

STARTCHAR logicalnot
ENCODING 172
SWIDTH 600 0
DWIDTH 6 0
BBX 5 3 1 2
BITMAP
F8
08
08
ENDCHAR

STARTCHAR hyphen
ENCODING 173
SWIDTH 420 0
DWIDTH 4 0
BBX 3 1 1 2
BITMAP
E0
ENDCHAR

STARTCHAR registered
ENCODING 174
SWIDTH 740 0
DWIDTH 7 0
BBX 7 8 0 -1
BITMAP
38
44
BA
AA
B2
AA
44
38
ENDCHAR

STARTCHAR macron
ENCODING 175
SWIDTH 420 0
DWIDTH 4 0
BBX 3 1 1 6
BITMAP
E0
ENDCHAR

STARTCHAR degree
ENCODING 176
SWIDTH 400 0
DWIDTH 4 0
BBX 4 4 0 3
BITMAP
60
90
90
60
ENDCHAR

STARTCHAR plusminus
ENCODING 177
SWIDTH 600 0
DWIDTH 6 0
BBX 5 7 1 0
BITMAP
20
20
F8
20
20
00
F8
ENDCHAR

STARTCHAR twosuperior
ENCODING 178
SWIDTH 336 0
DWIDTH 3 0
BBX 3 4 0 3
BITMAP
60
20
40
E0
ENDCHAR

STARTCHAR threesuperior
ENCODING 179
SWIDTH 336 0
DWIDTH 3 0
BBX 3 4 0 3
BITMAP
60
60
20
C0
ENDCHAR

STARTCHAR acute
ENCODING 180
SWIDTH 420 0
DWIDTH 4 0
BBX 3 2 1 6
BITMAP
60
C0
ENDCHAR

STARTCHAR mu
ENCODING 181
SWIDTH 576 0
DWIDTH 6 0
BBX 6 7 0 -2
BITMAP
24
24
6C
48
78
80
80
ENDCHAR

STARTCHAR paragraph
ENCODING 182
SWIDTH 600 0
DWIDTH 6 0
BBX 6 9 0 -1
BITMAP
7C
E8
E8
68
28
28
28
28
28
ENDCHAR

STARTCHAR periodcentered
ENCODING 183
SWIDTH 280 0
DWIDTH 3 0
BBX 2 1 1 3
BITMAP
C0
ENDCHAR

STARTCHAR cedilla
ENCODING 184
SWIDTH 340 0
DWIDTH 3 0
BBX 2 2 1 -2
BITMAP
40
C0
ENDCHAR

STARTCHAR onesuperior
ENCODING 185
SWIDTH 336 0
DWIDTH 3 0
BBX 2 4 1 3
BITMAP
40
C0
80
80
ENDCHAR

STARTCHAR ordmasculine
ENCODING 186
SWIDTH 360 0
DWIDTH 4 0
BBX 3 4 1 3
BITMAP
60
A0
A0
C0
ENDCHAR

STARTCHAR guillemotright
ENCODING 187
SWIDTH 460 0
DWIDTH 5 0
BBX 5 5 0 0
BITMAP
50
78
28
50
A0
ENDCHAR

STARTCHAR onequarter
ENCODING 188
SWIDTH 840 0
DWIDTH 8 0
BBX 7 8 1 -1
BITMAP
48
C8
90
A2
26
4E
84
80
ENDCHAR

STARTCHAR onehalf
ENCODING 189
SWIDTH 840 0
DWIDTH 8 0
BBX 7 8 1 -1
BITMAP
48
C8
90
A6
22
44
8E
80
ENDCHAR

STARTCHAR threequarters
ENCODING 190
SWIDTH 840 0
DWIDTH 8 0
BBX 8 8 0 -1
BITMAP
64
64
28
D1
13
27
42
40
ENDCHAR

STARTCHAR questiondown
ENCODING 191
SWIDTH 560 0
DWIDTH 6 0
BBX 5 8 1 -2
BITMAP
30
00
00
20
60
C0
98
70
ENDCHAR

STARTCHAR Agrave
ENCODING 192
SWIDTH 740 0
DWIDTH 7 0
BBX 7 10 0 0
BITMAP
18
0C
00
0C
1C
36
36
7E
66
C6
ENDCHAR

STARTCHAR Aacute
ENCODING 193
SWIDTH 740 0
DWIDTH 7 0
BBX 7 10 0 0
BITMAP
06
0C
00
0C
1C
36
36
7E
66
C6
ENDCHAR

STARTCHAR Acircumflex
ENCODING 194
SWIDTH 740 0
DWIDTH 7 0
BBX 8 10 0 0
BITMAP
0E
1B
00
0C
1C
36
36
7E
66
C6
ENDCHAR

STARTCHAR Atilde
ENCODING 195
SWIDTH 740 0
DWIDTH 7 0
BBX 8 10 0 0
BITMAP
0D
16
00
0C
1C
36
36
7E
66
C6
ENDCHAR

STARTCHAR Adieresis
ENCODING 196
SWIDTH 740 0
DWIDTH 7 0
BBX 8 9 0 0
BITMAP
1B
00
0C
1C
36
36
7E
66
C6
ENDCHAR

STARTCHAR Aring
ENCODING 197
SWIDTH 740 0
DWIDTH 7 0
BBX 7 10 0 0
BITMAP
0C
12
12
0C
1C
36
36
7E
66
C6
ENDCHAR

STARTCHAR AE
ENCODING 198
SWIDTH 900 0
DWIDTH 9 0
BBX 9 7 0 0
BITMAP
0F80
1E00
3600
6F00
7C00
CC00
CF00
ENDCHAR

STARTCHAR Ccedilla
ENCODING 199
SWIDTH 780 0
DWIDTH 8 0
BBX 7 10 1 -3
BITMAP
1C
66
60
C0
C0
CC
78
30
18
70
ENDCHAR

STARTCHAR Egrave
ENCODING 200
SWIDTH 520 0
DWIDTH 5 0
BBX 5 10 1 0
BITMAP
30
18
00
78
60
60
F0
C0
C0
F0
ENDCHAR

STARTCHAR Eacute
ENCODING 201
SWIDTH 520 0
DWIDTH 5 0
BBX 5 10 1 0
BITMAP
18
30
00
78
60
60
F0
C0
C0
F0
ENDCHAR

STARTCHAR Ecircumflex
ENCODING 202
SWIDTH 520 0
DWIDTH 5 0
BBX 6 10 1 0
BITMAP
38
6C
00
78
60
60
F0
C0
C0
F0
ENDCHAR

STARTCHAR Edieresis
ENCODING 203
SWIDTH 520 0
DWIDTH 5 0
BBX 6 9 1 0
BITMAP
6C
00
78
60
60
F0
C0
C0
F0
ENDCHAR

STARTCHAR Igrave
ENCODING 204
SWIDTH 280 0
DWIDTH 4 0
BBX 3 10 1 0
BITMAP
C0
60
00
60
60
60
60
C0
C0
C0
ENDCHAR

STARTCHAR Iacute
ENCODING 205
SWIDTH 280 0
DWIDTH 4 0
BBX 4 10 1 0
BITMAP
30
60
00
60
60
60
60
C0
C0
C0
ENDCHAR

STARTCHAR Icircumflex
ENCODING 206
SWIDTH 280 0
DWIDTH 4 0
BBX 5 10 1 0
BITMAP
70
D8
00
60
60
60
60
C0
C0
C0
ENDCHAR

STARTCHAR Idieresis
ENCODING 207
SWIDTH 280 0
DWIDTH 4 0
BBX 5 9 1 0
BITMAP
D8
00
60
60
60
60
C0
C0
C0
ENDCHAR

STARTCHAR Gbreve
ENCODING 208
SWIDTH 840 0
DWIDTH 8 0
BBX 8 10 1 0
BITMAP
33
1E
00
1C
66
60
CE
C6
CC
78
ENDCHAR

STARTCHAR Ntilde
ENCODING 209
SWIDTH 740 0
DWIDTH 8 0
BBX 7 10 1 0
BITMAP
1A
2C
00
66
66
76
D6
DC
CC
CC
ENDCHAR

STARTCHAR Ograve
ENCODING 210
SWIDTH 840 0
DWIDTH 8 0
BBX 7 10 1 0
BITMAP
18
0C
00
1C
66
66
C6
CC
CC
70
ENDCHAR

STARTCHAR Oacute
ENCODING 211
SWIDTH 840 0
DWIDTH 8 0
BBX 7 10 1 0
BITMAP
0C
18
00
1C
66
66
C6
CC
CC
70
ENDCHAR

STARTCHAR Ocircumflex
ENCODING 212
SWIDTH 840 0
DWIDTH 8 0
BBX 7 10 1 0
BITMAP
1C
36
00
1C
66
66
C6
CC
CC
70
ENDCHAR

STARTCHAR Otilde
ENCODING 213
SWIDTH 840 0
DWIDTH 8 0
BBX 7 10 1 0
BITMAP
1A
2C
00
1C
66
66
C6
CC
CC
70
ENDCHAR

STARTCHAR Odieresis
ENCODING 214
SWIDTH 840 0
DWIDTH 8 0
BBX 7 9 1 0
BITMAP
36
00
1C
66
66
C6
CC
CC
70
ENDCHAR

STARTCHAR multiply
ENCODING 215
SWIDTH 600 0
DWIDTH 6 0
BBX 4 5 1 1
BITMAP
90
F0
60
F0
90
ENDCHAR

STARTCHAR Oslash
ENCODING 216
SWIDTH 840 0
DWIDTH 8 0
BBX 7 7 1 0
BITMAP
1E
66
4A
D6
A4
CC
F0
ENDCHAR

STARTCHAR Ugrave
ENCODING 217
SWIDTH 640 0
DWIDTH 7 0
BBX 6 10 1 0
BITMAP
30
18
00
6C
6C
6C
CC
D8
D8
70
ENDCHAR

STARTCHAR Uacute
ENCODING 218
SWIDTH 640 0
DWIDTH 7 0
BBX 6 10 1 0
BITMAP
0C
18
00
6C
6C
6C
CC
D8
D8
70
ENDCHAR

STARTCHAR Ucircumflex
ENCODING 219
SWIDTH 640 0
DWIDTH 7 0
BBX 7 10 1 0
BITMAP
1C
36
00
6C
6C
6C
CC
D8
D8
70
ENDCHAR

STARTCHAR Udieresis
ENCODING 220
SWIDTH 640 0
DWIDTH 7 0
BBX 6 9 1 0
BITMAP
6C
00
6C
6C
6C
CC
D8
D8
70
ENDCHAR

STARTCHAR Idotaccent
ENCODING 221
SWIDTH 280 0
DWIDTH 4 0
BBX 3 9 1 0
BITMAP
60
00
60
60
60
60
C0
C0
C0
ENDCHAR

STARTCHAR Scedilla
ENCODING 222
SWIDTH 520 0
DWIDTH 5 0
BBX 6 10 0 -3
BITMAP
38
6C
60
30
18
D8
70
30
18
70
ENDCHAR

STARTCHAR germandbls
ENCODING 223
SWIDTH 600 0
DWIDTH 6 0
BBX 6 8 1 0
BITMAP
38
6C
6C
6C
C8
CC
CC
D8
ENDCHAR

STARTCHAR agrave
ENCODING 224
SWIDTH 660 0
DWIDTH 7 0
BBX 6 8 1 0
BITMAP
30
18
00
34
6C
CC
DC
68
ENDCHAR

STARTCHAR aacute
ENCODING 225
SWIDTH 660 0
DWIDTH 7 0
BBX 6 8 1 0
BITMAP
0C
18
00
34
6C
CC
DC
68
ENDCHAR

STARTCHAR acircumflex
ENCODING 226
SWIDTH 660 0
DWIDTH 7 0
BBX 7 8 1 0
BITMAP
1C
36
00
34
6C
CC
DC
68
ENDCHAR

STARTCHAR atilde
ENCODING 227
SWIDTH 660 0
DWIDTH 7 0
BBX 7 8 1 0
BITMAP
1A
2C
00
34
6C
CC
DC
68
ENDCHAR

STARTCHAR adieresis
ENCODING 228
SWIDTH 660 0
DWIDTH 7 0
BBX 7 7 1 0
BITMAP
66
00
34
6C
CC
DC
68
ENDCHAR

STARTCHAR aring
ENCODING 229
SWIDTH 660 0
DWIDTH 7 0
BBX 6 9 1 0
BITMAP
18
24
24
18
34
6C
CC
DC
68
ENDCHAR

STARTCHAR ae
ENCODING 230
SWIDTH 1080 0
DWIDTH 9 0
BBX 8 5 1 0
BITMAP
36
6D
CF
D8
6E
ENDCHAR

STARTCHAR ccedilla
ENCODING 231
SWIDTH 640 0
DWIDTH 5 0
BBX 5 8 1 -3
BITMAP
30
68
C0
D0
60
60
30
E0
ENDCHAR

STARTCHAR egrave
ENCODING 232
SWIDTH 640 0
DWIDTH 6 0
BBX 5 8 1 0
BITMAP
60
30
00
30
68
F8
C0
70
ENDCHAR

STARTCHAR eacute
ENCODING 233
SWIDTH 640 0
DWIDTH 6 0
BBX 5 8 1 0
BITMAP
18
30
00
30
68
F8
C0
70
ENDCHAR

STARTCHAR ecircumflex
ENCODING 234
SWIDTH 640 0
DWIDTH 6 0
BBX 6 8 1 0
BITMAP
38
6C
00
30
68
F8
C0
70
ENDCHAR

STARTCHAR edieresis
ENCODING 235
SWIDTH 640 0
DWIDTH 6 0
BBX 6 7 1 0
BITMAP
6C
00
30
68
F8
C0
70
ENDCHAR

STARTCHAR igrave
ENCODING 236
SWIDTH 240 0
DWIDTH 3 0
BBX 3 8 1 0
BITMAP
C0
60
00
60
60
C0
C0
C0
ENDCHAR

STARTCHAR iacute
ENCODING 237
SWIDTH 240 0
DWIDTH 3 0
BBX 4 8 1 0
BITMAP
30
60
00
60
60
C0
C0
C0
ENDCHAR

STARTCHAR icircumflex
ENCODING 238
SWIDTH 240 0
DWIDTH 3 0
BBX 4 8 1 0
BITMAP
60
90
00
60
60
C0
C0
C0
ENDCHAR

STARTCHAR idieresis
ENCODING 239
SWIDTH 240 0
DWIDTH 3 0
BBX 5 7 1 0
BITMAP
D8
00
60
60
C0
C0
C0
ENDCHAR

STARTCHAR gbreve
ENCODING 240
SWIDTH 660 0
DWIDTH 7 0
BBX 7 10 1 -2
BITMAP
66
3C
00
34
6C
CC
CC
78
98
70
ENDCHAR

STARTCHAR ntilde
ENCODING 241
SWIDTH 600 0
DWIDTH 6 0
BBX 6 8 1 0
BITMAP
34
58
00
70
68
D8
D8
90
ENDCHAR

STARTCHAR ograve
ENCODING 242
SWIDTH 640 0
DWIDTH 6 0
BBX 5 8 1 0
BITMAP
60
30
00
70
C8
D8
98
70
ENDCHAR

STARTCHAR oacute
ENCODING 243
SWIDTH 640 0
DWIDTH 6 0
BBX 5 8 1 0
BITMAP
18
30
00
70
C8
D8
98
70
ENDCHAR

STARTCHAR ocircumflex
ENCODING 244
SWIDTH 640 0
DWIDTH 6 0
BBX 6 8 1 0
BITMAP
38
6C
00
70
C8
D8
98
70
ENDCHAR

STARTCHAR otilde
ENCODING 245
SWIDTH 640 0
DWIDTH 6 0
BBX 5 8 1 0
BITMAP
68
B0
00
70
C8
D8
98
70
ENDCHAR

STARTCHAR odieresis
ENCODING 246
SWIDTH 640 0
DWIDTH 6 0
BBX 6 7 1 0
BITMAP
6C
00
70
C8
D8
98
70
ENDCHAR

STARTCHAR divide
ENCODING 247
SWIDTH 600 0
DWIDTH 6 0
BBX 6 5 0 1
BITMAP
30
00
FC
00
30
ENDCHAR

STARTCHAR oslash
ENCODING 248
SWIDTH 660 0
DWIDTH 7 0
BBX 5 7 1 -1
BITMAP
08
78
D8
A8
D8
F0
80
ENDCHAR

STARTCHAR ugrave
ENCODING 249
SWIDTH 600 0
DWIDTH 6 0
BBX 5 8 1 0
BITMAP
60
30
00
48
D8
D8
90
60
ENDCHAR

STARTCHAR uacute
ENCODING 250
SWIDTH 600 0
DWIDTH 6 0
BBX 5 8 1 0
BITMAP
18
30
00
48
D8
D8
90
60
ENDCHAR

STARTCHAR ucircumflex
ENCODING 251
SWIDTH 600 0
DWIDTH 6 0
BBX 6 8 1 0
BITMAP
38
6C
00
48
D8
D8
90
60
ENDCHAR

STARTCHAR udieresis
ENCODING 252
SWIDTH 600 0
DWIDTH 6 0
BBX 6 7 1 0
BITMAP
6C
00
48
D8
D8
90
60
ENDCHAR

STARTCHAR dotlessi
ENCODING 253
SWIDTH 240 0
DWIDTH 3 0
BBX 3 5 1 0
BITMAP
60
60
C0
C0
C0
ENDCHAR

STARTCHAR scedilla
ENCODING 254
SWIDTH 440 0
DWIDTH 4 0
BBX 5 8 0 -3
BITMAP
38
60
30
30
E0
60
30
E0
ENDCHAR

STARTCHAR ydieresis
ENCODING 255
SWIDTH 580 0
DWIDTH 6 0
BBX 6 9 0 -2
BITMAP
6C
00
6C
6C
68
38
30
60
C0
ENDCHAR

ENDFONT
