STARTFONT 2.1
FONT -Adobe-ITC Lubalin Graph-Book-O-Normal--33-240-100-100-P-181-ISO8859-1
SIZE 24 100 100
FONTBOUNDINGBOX 44 37 -5 -7

STARTPROPERTIES 30
FOUNDRY "Adobe"
FAMILY_NAME "ITC Lubalin Graph"
WEIGHT_NAME "Book"
SLANT "O"
SETWIDTH_NAME "Normal"
ADD_STYLE_NAME ""
PIXEL_SIZE 33
POINT_SIZE 240
RESOLUTION_X 100
RESOLUTION_Y 100
SPACING "P"
AVERAGE_WIDTH 181
CHARSET_REGISTRY "ISO8859"
CHARSET_ENCODING "1"
CAP_HEIGHT 23
X_HEIGHT 17
FACE_NAME "ITC Lubalin Graph Book Oblique"
COPYRIGHT "Copyright (c) 1984, 1987 Adobe Systems Incorporated. All Rights Reserved. Copyright (c) 1988, 1991 Digital Equipment Corporation. All Rights Reserved."
NOTICE "ITC Lubalin Graph is a registered trademark of International Typeface Corporation."
_DEC_DEVICE_FONTNAMES "PS=LubalinGraph-BookOblique"
_DEC_PRODUCTINFO "DECwindows Fonts V2.2, 07-Nov-1991"
RELATIVE_SETWIDTH 50
RELATIVE_WEIGHT 40
CHARSET_COLLECTIONS "ASCII ISO8859-1 ADOBE-STANDARD"
FULL_NAME "ITC Lubalin Graph Book Oblique"
WEIGHT 10
QUAD_WIDTH 19
DEFAULT_CHAR 32
FONT_DESCENT 7
FONT_ASCENT 27
ENDPROPERTIES

CHARS 191

STARTCHAR space
ENCODING 32
SWIDTH 300 0
DWIDTH 10 0
BBX 1 1 0 0
BITMAP
00
ENDCHAR

STARTCHAR exclam
ENCODING 33
SWIDTH 140 0
DWIDTH 4 0
BBX 6 23 1 0
BITMAP
0C
0C
0C
18
18
18
18
18
30
30
30
30
30
30
60
60
60
00
00
00
C0
C0
C0
ENDCHAR

STARTCHAR quotedbl
ENCODING 34
SWIDTH 280 0
DWIDTH 9 0
BBX 7 7 4 16
BITMAP
66
66
66
44
CC
CC
CC
ENDCHAR

STARTCHAR numbersign
ENCODING 35
SWIDTH 580 0
DWIDTH 19 0
BBX 17 23 3 0
BITMAP
00C300
00C300
00C300
018600
018600
018600
030C00
030C00
7FFF80
7FFF80
061800
061800
0C3000
FFFF00
FFFF00
186000
186000
186000
30C000
30C000
30C000
618000
618000
ENDCHAR

STARTCHAR dollar
ENCODING 36
SWIDTH 580 0
DWIDTH 18 0
BBX 17 29 2 -3
BITMAP
001800
001800
001800
00F980
03FD80
073700
0C3300
1C3300
183300
186000
186000
1C6000
0EE000
07E000
01F800
00DC00
00CE00
00C600
018600
018600
618600
618E00
718C00
79B800
DFF000
C7C000
030000
030000
030000
ENDCHAR

STARTCHAR percent
ENCODING 37
SWIDTH 800 0
DWIDTH 25 0
BBX 22 23 4 0
BITMAP
078030
1FC060
38E0C0
606180
C06180
C06300
C0C600
61C600
7F8C00
1E1800
001800
003000
003000
0060E0
00C3F8
018718
018C0C
03180C
03180C
061818
0C1C38
0C0FF0
1807C0
ENDCHAR

STARTCHAR ampersand
ENCODING 38
SWIDTH 720 0
DWIDTH 23 0
BBX 22 23 2 0
BITMAP
00F800
03FC00
070E00
0E0600
0C0600
0C0600
0C0600
060C00
071800
03F03C
03C07C
07C060
1C60C0
387180
703980
601F00
C00E00
C00F00
C01B80
E039C0
7070E0
3FE070
0F8020
ENDCHAR

STARTCHAR quoteright
ENCODING 39
SWIDTH 200 0
DWIDTH 6 0
BBX 6 6 4 17
BITMAP
1C
18
30
60
60
C0
ENDCHAR

STARTCHAR parenleft
ENCODING 40
SWIDTH 340 0
DWIDTH 11 0
BBX 11 27 3 -4
BITMAP
0020
0060
01C0
0380
0700
0E00
0C00
1800
3800
3000
7000
6000
6000
C000
C000
C000
C000
C000
6000
6000
7000
3000
3800
1C00
0E00
0600
0200
ENDCHAR

STARTCHAR parenright
ENCODING 41
SWIDTH 340 0
DWIDTH 11 0
BBX 11 27 0 -4
BITMAP
0400
0600
0700
0380
0180
00C0
00C0
00E0
0060
0060
0060
0060
0060
0060
00E0
00C0
00C0
0180
0180
0300
0700
0E00
1C00
3800
7000
C000
8000
ENDCHAR

STARTCHAR asterisk
ENCODING 42
SWIDTH 340 0
DWIDTH 11 0
BBX 9 7 5 15
BITMAP
3300
1600
1C00
FF80
1C00
3400
6600
ENDCHAR

STARTCHAR plus
ENCODING 43
SWIDTH 660 0
DWIDTH 21 0
BBX 16 16 4 3
BITMAP
00C0
00C0
00C0
00C0
0180
0180
0180
FFFF
FFFF
0180
0180
0180
0300
0300
0300
0300
ENDCHAR

STARTCHAR comma
ENCODING 44
SWIDTH 300 0
DWIDTH 9 0
BBX 6 6 2 -3
BITMAP
1C
18
30
30
60
E0
ENDCHAR

STARTCHAR minus
ENCODING 45
SWIDTH 660 0
DWIDTH 21 0
BBX 16 2 5 10
BITMAP
FFFF
FFFF
ENDCHAR

STARTCHAR period
ENCODING 46
SWIDTH 300 0
DWIDTH 9 0
BBX 2 3 4 0
BITMAP
C0
C0
C0
ENDCHAR

STARTCHAR slash
ENCODING 47
SWIDTH 580 0
DWIDTH 19 0
BBX 21 29 0 -6
BITMAP
000018
000030
000060
000060
0000C0
000180
000180
000300
000600
000600
000C00
001800
001800
003000
006000
006000
00C000
018000
018000
030000
060000
060000
0C0000
180000
180000
300000
600000
E00000
C00000
ENDCHAR

STARTCHAR zero
ENCODING 48
SWIDTH 580 0
DWIDTH 18 0
BBX 18 23 2 0
BITMAP
00FC00
03FE00
070780
0C0180
1801C0
3800C0
3000C0
3000C0
3001C0
600180
600180
600180
600180
600180
E00380
C00300
C00300
C00300
E00600
600C00
383800
1FF000
0FC000
ENDCHAR

STARTCHAR one
ENCODING 49
SWIDTH 580 0
DWIDTH 18 0
BBX 9 23 6 0
BITMAP
3F80
3F80
0180
0180
0300
0300
0300
0300
0300
0600
0600
0600
0600
0600
0E00
0C00
0C00
0C00
0C00
1800
1800
FF80
FF00
ENDCHAR

STARTCHAR two
ENCODING 50
SWIDTH 580 0
DWIDTH 18 0
BBX 17 23 2 0
BITMAP
00FC00
03FE00
070700
0E0380
0C0180
180180
180180
180180
000300
000300
000600
000C00
003800
007000
00E000
01C000
030000
0E0000
1C0600
380600
700C00
FFFC00
FFFC00
ENDCHAR

STARTCHAR three
ENCODING 51
SWIDTH 580 0
DWIDTH 18 0
BBX 15 23 3 0
BITMAP
01F8
03FC
060E
0C06
0C06
0006
000E
000C
0018
01F0
01F0
0038
001C
001C
000C
000C
C00C
C01C
E018
6038
70F0
3FC0
1F00
ENDCHAR

STARTCHAR four
ENCODING 52
SWIDTH 580 0
DWIDTH 18 0
BBX 17 23 2 0
BITMAP
000700
000F00
001E00
003E00
003600
006600
00C600
018600
030600
060C00
0C0C00
180C00
180C00
300C00
600C00
FFFF80
FFFF80
001800
001800
001800
001800
01FE00
01FE00
ENDCHAR

STARTCHAR five
ENCODING 53
SWIDTH 580 0
DWIDTH 18 0
BBX 17 23 2 0
BITMAP
03FF80
03FF80
030000
060000
060000
040000
0C0000
0C0000
19F000
1FFC00
1C0E00
380600
000700
000300
000300
000300
000300
C00600
E00600
600C00
783800
3FF000
0FC000
ENDCHAR

STARTCHAR six
ENCODING 54
SWIDTH 580 0
DWIDTH 18 0
BBX 16 23 2 0
BITMAP
001C
0038
0070
00E0
00C0
0180
0380
0700
0E70
1FFC
1E0E
3806
7003
6003
E003
C003
C003
C006
6006
700C
3838
3FF0
0FC0
ENDCHAR

STARTCHAR seven
ENCODING 55
SWIDTH 580 0
DWIDTH 18 0
BBX 16 23 4 0
BITMAP
3FFF
3FFE
3006
600E
600C
6018
0038
0030
0060
0060
00C0
01C0
0180
0300
0700
0600
0C00
0C00
1800
3800
3000
6000
E000
ENDCHAR

STARTCHAR eight
ENCODING 56
SWIDTH 580 0
DWIDTH 18 0
BBX 15 23 3 0
BITMAP
00F0
03FC
070E
0C06
1806
1806
1806
1C0C
0E38
07F0
0FE0
1C30
3018
700C
600C
C00C
C00C
C00C
C018
E038
7070
3FE0
0F80
ENDCHAR

STARTCHAR nine
ENCODING 57
SWIDTH 580 0
DWIDTH 18 0
BBX 16 23 4 0
BITMAP
03F0
0FF8
1C1C
380E
6006
6007
C003
C003
C007
C006
C006
E00C
601C
30F8
3FF0
0E60
00E0
01C0
0380
0700
0E00
1C00
3800
ENDCHAR

STARTCHAR colon
ENCODING 58
SWIDTH 300 0
DWIDTH 9 0
BBX 4 14 4 0
BITMAP
30
30
30
00
00
00
00
00
00
00
00
C0
C0
C0
ENDCHAR

STARTCHAR semicolon
ENCODING 59
SWIDTH 300 0
DWIDTH 9 0
BBX 7 17 1 -3
BITMAP
06
06
06
00
00
00
00
00
00
00
00
1C
18
38
30
60
C0
ENDCHAR

STARTCHAR less
ENCODING 60
SWIDTH 660 0
DWIDTH 21 0
BBX 19 17 4 3
BITMAP
000060
0001C0
000780
001E00
00F000
03C000
0F0000
780000
E00000
F00000
7C0000
0F0000
03C000
00F000
003C00
000F00
000300
ENDCHAR

STARTCHAR equal
ENCODING 61
SWIDTH 660 0
DWIDTH 21 0
BBX 16 7 4 8
BITMAP
FFFF
FFFF
0000
0000
0000
FFFF
FFFF
ENDCHAR

STARTCHAR greater
ENCODING 62
SWIDTH 660 0
DWIDTH 21 0
BBX 19 17 2 3
BITMAP
100000
1C0000
0F0000
03C000
00F000
003C00
000F00
0003C0
0000E0
0001E0
000780
003E00
00F000
07C000
1F0000
780000
C00000
ENDCHAR

STARTCHAR question
ENCODING 63
SWIDTH 520 0
DWIDTH 16 0
BBX 14 24 4 0
BITMAP
07E0
0FF0
3C38
301C
600C
E00C
C00C
000C
001C
0038
0070
00E0
01C0
0380
0700
0600
0C00
0C00
0800
0000
0000
1800
1800
1800
ENDCHAR

STARTCHAR at
ENCODING 64
SWIDTH 900 0
DWIDTH 29 0
BBX 25 23 4 0
BITMAP
001FE000
007FF800
01E01C00
07000600
0E000300
180F8300
3038D180
60606180
60C06180
6180C180
C180C180
C300C300
C3018300
C3018600
C3030C00
C3031800
618F7000
60F1C000
30000C00
38001800
0E00F000
07FFC000
01FE0000
ENDCHAR

STARTCHAR A
ENCODING 65
SWIDTH 820 0
DWIDTH 26 0
BBX 25 23 1 0
BITMAP
001F8000
001FC000
0003C000
0006C000
000CC000
000CE000
00186000
00186000
00306000
00607000
00603000
00C03000
00C03000
01803800
03FFF800
03FFF800
06001800
0E001C00
0C000C00
18000C00
18000C00
FE007F80
FE007F80
ENDCHAR

STARTCHAR B
ENCODING 66
SWIDTH 580 0
DWIDTH 18 0
BBX 19 23 1 0
BITMAP
0FFF80
0FFFC0
0180E0
038060
030060
030060
030060
0300C0
0700C0
060380
07FF00
07FF00
060380
0601C0
0E00C0
0C00C0
0C00C0
0C00C0
0C01C0
0C0180
1C0700
FFFE00
FFF800
ENDCHAR

STARTCHAR C
ENCODING 67
SWIDTH 740 0
DWIDTH 23 0
BBX 23 23 3 0
BITMAP
003FC6
00FFF6
03C07E
07001E
0E000C
18000C
300000
700000
600000
600000
C00000
C00000
C00000
C00000
C00000
C00000
E00000
600038
700070
3800E0
1E07C0
0FFF00
03FC00
ENDCHAR

STARTCHAR D
ENCODING 68
SWIDTH 720 0
DWIDTH 23 0
BBX 23 23 1 0
BITMAP
0FFF80
0FFFF0
018078
03001C
03000C
03000E
030006
030006
070006
060006
060006
060006
060006
06000E
0E000C
0C001C
0C0018
0C0030
0C0070
0C00E0
1C03C0
FFFF00
FFFC00
ENDCHAR

STARTCHAR E
ENCODING 69
SWIDTH 560 0
DWIDTH 18 0
BBX 20 23 1 0
BITMAP
0FFFF0
0FFFF0
018030
038070
030060
030060
030000
030000
070000
060000
07FF00
07FF00
060000
060000
0E0000
0C0000
0C0000
0C0180
0C0180
0C0180
1C0380
FFFF00
FFFF00
ENDCHAR

STARTCHAR F
ENCODING 70
SWIDTH 560 0
DWIDTH 18 0
BBX 20 23 1 0
BITMAP
0FFFF0
0FFFF0
038030
038060
030060
030060
030000
030000
070000
060000
060000
07FF00
07FF00
060000
0E0000
0C0000
0C0000
0C0000
0C0000
0C0000
1C0000
FF8000
FF0000
ENDCHAR

STARTCHAR G
ENCODING 71
SWIDTH 780 0
DWIDTH 25 0
BBX 24 23 3 0
BITMAP
003F83
00FFE3
03C07B
07001E
0C000E
180006
300000
700000
600000
E00000
C00000
C00000
C07FFE
C07FFE
C0000C
C0001C
E0001C
60003C
70006C
3801CC
1E0798
0FFE18
03F818
ENDCHAR

STARTCHAR H
ENCODING 72
SWIDTH 720 0
DWIDTH 23 0
BBX 25 23 1 0
BITMAP
0FF07F80
0FF07F80
01800C00
03001800
03001800
03001800
03001800
03001800
07001800
06003000
07FFF000
07FFF000
06003000
06003000
0E007000
0C006000
0C006000
0C006000
0C006000
0C006000
1800E000
FF07F800
FF07F800
ENDCHAR

STARTCHAR I
ENCODING 73
SWIDTH 300 0
DWIDTH 10 0
BBX 12 23 1 0
BITMAP
0FF0
0FF0
0180
0300
0300
0300
0300
0300
0700
0600
0600
0600
0600
0600
0E00
0C00
0C00
0C00
0C00
0C00
1C00
FF00
FF00
ENDCHAR

STARTCHAR J
ENCODING 74
SWIDTH 520 0
DWIDTH 16 0
BBX 18 23 2 0
BITMAP
003FC0
003FC0
000600
000C00
000C00
000C00
000C00
000C00
001C00
001800
001800
001800
001800
001800
003800
003000
003000
C03000
C07000
E06000
F1C000
7F8000
1F0000
ENDCHAR

STARTCHAR K
ENCODING 75
SWIDTH 700 0
DWIDTH 22 0
BBX 24 23 1 0
BITMAP
0FF0FF
0FF0FF
038038
030060
0301C0
030380
030700
030C00
071800
067000
06E000
07C000
06E000
067000
0E3000
0C1800
0C1C00
0C0E00
0C0700
0C0380
1C01C0
FF07F8
FF0FF8
ENDCHAR

STARTCHAR L
ENCODING 76
SWIDTH 520 0
DWIDTH 16 0
BBX 16 23 1 0
BITMAP
0FF0
0FF0
0180
0380
0300
0300
0300
0300
0700
0600
0600
0600
0600
0600
0E00
0C00
0C00
0C03
0C03
0C03
1C07
FFFE
FFFE
ENDCHAR

STARTCHAR M
ENCODING 77
SWIDTH 980 0
DWIDTH 31 0
BBX 34 23 1 0
BITMAP
0FC0000FC0
0FE0001FC0
01E0003E00
03E0003C00
0360006C00
037000EC00
033000CC00
0330018C00
0730039C00
0638031800
0618061800
0618061800
06180C1800
061C181800
0E0C183800
0C0C303000
0C0C703000
0C0E603000
0C06C03000
0C07C03000
1C07807000
FF0703FC00
FF0303FC00
ENDCHAR

STARTCHAR N
ENCODING 78
SWIDTH 800 0
DWIDTH 25 0
BBX 28 23 1 0
BITMAP
0F800FF0
0FC00FF0
01C00180
03E00300
03700300
03300300
03380300
03180300
071C0700
060C0600
060E0600
06060600
06070600
06030600
0E038E00
0C018C00
0C01CC00
0C00CC00
0C00EC00
0C007C00
1C003C00
FF003800
FF001800
ENDCHAR

STARTCHAR O
ENCODING 79
SWIDTH 800 0
DWIDTH 25 0
BBX 24 23 3 0
BITMAP
003FC0
00FFF0
03E078
07001C
0E000E
180006
300007
700003
600003
600003
C00003
C00003
C00003
C00007
C00006
C0000E
E0000C
600018
700070
3800E0
1E03C0
0FFF00
03FC00
ENDCHAR

STARTCHAR P
ENCODING 80
SWIDTH 580 0
DWIDTH 18 0
BBX 20 23 1 0
BITMAP
0FFF00
0FFFC0
0180E0
030070
030070
030030
030030
030030
070070
0600E0
0601C0
060780
07FF00
07FC00
0E0000
0C0000
0C0000
0C0000
0C0000
0C0000
1C0000
FF0000
FF0000
ENDCHAR

STARTCHAR Q
ENCODING 81
SWIDTH 860 0
DWIDTH 27 0
BBX 25 23 3 0
BITMAP
003FC000
00FFF000
03C07800
07001C00
0E000E00
18000600
30000700
70000300
60000300
E0000300
C0000300
C0000300
C0000300
CFC00700
FFF00600
E01C0C00
E0070C00
60039800
7001F000
3800F180
1E03F100
0FFF3F00
03FC0F00
ENDCHAR

STARTCHAR R
ENCODING 82
SWIDTH 640 0
DWIDTH 20 0
BBX 21 23 1 0
BITMAP
0FFF80
0FFFE0
0180F0
030030
030038
030018
030018
030018
070038
060030
060070
0600E0
0603C0
067F80
0E3C00
0C1800
0C1C00
0C0C00
0C0E00
0C0600
1C0700
FF03E0
FF03E0
ENDCHAR

STARTCHAR S
ENCODING 83
SWIDTH 500 0
DWIDTH 16 0
BBX 17 23 1 0
BITMAP
00F980
03FF80
070700
0C0300
1C0300
180000
180000
180000
1C0000
0E0000
07E000
01F800
003C00
000E00
000600
000600
600600
600600
600E00
701C00
783800
DFF000
C7C000
ENDCHAR

STARTCHAR T
ENCODING 84
SWIDTH 540 0
DWIDTH 17 0
BBX 17 23 4 0
BITMAP
7FFF80
7FFF80
60C180
40C100
C18300
C18300
C18300
018000
018000
030000
030000
030000
030000
030000
060000
060000
060000
060000
0C0000
0C0000
0C0000
7F8000
7F8000
ENDCHAR

STARTCHAR U
ENCODING 85
SWIDTH 700 0
DWIDTH 22 0
BBX 20 23 5 0
BITMAP
FE0FF0
FE0FF0
180180
300300
300300
300300
300300
300300
700300
600600
600600
600600
600600
600600
E00E00
C00C00
C00C00
C00C00
E01800
E03800
707000
3FE000
1F8000
ENDCHAR

STARTCHAR V
ENCODING 86
SWIDTH 780 0
DWIDTH 25 0
BBX 25 23 4 0
BITMAP
FF007F80
FF007F80
18001C00
18001800
18003000
1C003000
0C006000
0C00E000
0C00C000
0E01C000
0E018000
06030000
06030000
06060000
070E0000
030C0000
03180000
03180000
03B00000
03F00000
01E00000
01E00000
01C00000
ENDCHAR

STARTCHAR W
ENCODING 87
SWIDTH 1040 0
DWIDTH 33 0
BBX 33 23 4 0
BITMAP
FF00C07F80
FF01C07F80
1801C01C00
1803C01800
1803C01800
1806C03000
1806C03000
180CC06000
180CC06000
1C18E0C000
1C1860C000
0C18618000
0C30618000
0C30618000
0C60630000
0C60630000
0CC0660000
0CC0660000
0F806C0000
0F807C0000
0700380000
0700380000
0600300000
ENDCHAR

STARTCHAR X
ENCODING 88
SWIDTH 740 0
DWIDTH 23 0
BBX 25 23 1 0
BITMAP
0FF07F80
0FF07F80
01C00C00
00C01800
00E03000
00606000
0070E000
0031C000
003B8000
001F0000
000E0000
000E0000
001E0000
00370000
00630000
00C38000
01C18000
0381C000
0700C000
0E006000
1C006000
FF03FC00
FF03FC00
ENDCHAR

STARTCHAR Y
ENCODING 89
SWIDTH 680 0
DWIDTH 22 0
BBX 21 23 4 0
BITMAP
FF07F8
FF07F8
1800C0
180180
0C0180
0C0300
0C0600
060600
060C00
061800
031800
033000
036000
01E000
01C000
018000
018000
018000
018000
018000
038000
1FF000
1FF000
ENDCHAR

STARTCHAR Z
ENCODING 90
SWIDTH 520 0
DWIDTH 17 0
BBX 18 23 1 0
BITMAP
0FFFC0
0FFFC0
0C0180
080300
180700
180E00
000C00
001800
003800
007000
006000
00C000
018000
038000
070000
060000
0C0000
180300
380300
700300
600200
FFFE00
FFFE00
ENDCHAR

STARTCHAR bracketleft
ENCODING 91
SWIDTH 300 0
DWIDTH 10 0
BBX 12 27 1 -4
BITMAP
07F0
07F0
0600
0E00
0C00
0C00
0C00
0C00
1C00
1800
1800
1800
1800
1800
3800
3000
3000
3000
3000
3000
7000
6000
6000
6000
6000
FE00
FE00
ENDCHAR

STARTCHAR backslash
ENCODING 92
SWIDTH 580 0
DWIDTH 19 0
BBX 7 24 7 0
BITMAP
C0
C0
C0
60
60
60
60
30
30
30
30
18
18
18
18
0C
0C
0C
0C
0C
06
06
06
06
ENDCHAR

STARTCHAR bracketright
ENCODING 93
SWIDTH 300 0
DWIDTH 10 0
BBX 11 27 1 -4
BITMAP
0FE0
0FE0
0060
00E0
00C0
00C0
00C0
00C0
01C0
0180
0180
0180
0180
0180
0380
0300
0300
0300
0300
0300
0700
0600
0600
0600
0600
FE00
FC00
ENDCHAR

STARTCHAR asciicircum
ENCODING 94
SWIDTH 660 0
DWIDTH 21 0
BBX 18 17 2 6
BITMAP
001800
003800
003C00
006C00
00CC00
00C600
018600
038600
030200
060300
060300
0C0300
180180
180180
300180
7000C0
E000C0
ENDCHAR

STARTCHAR underscore
ENCODING 95
SWIDTH 500 0
DWIDTH 16 0
BBX 16 2 0 -4
BITMAP
FFFF
FFFF
ENDCHAR

STARTCHAR quoteleft
ENCODING 96
SWIDTH 200 0
DWIDTH 6 0
BBX 3 6 6 17
BITMAP
C0
C0
C0
40
60
60
ENDCHAR

STARTCHAR a
ENCODING 97
SWIDTH 660 0
DWIDTH 21 0
BBX 21 17 3 0
BITMAP
03F0F8
0FFCF8
1C0CC0
380780
300380
600380
600180
C00180
C00380
C00300
C00300
C00700
C00F00
E01F00
707300
3FE7C0
0F87C0
ENDCHAR

STARTCHAR b
ENCODING 98
SWIDTH 660 0
DWIDTH 21 0
BBX 21 23 0 0
BITMAP
0F8000
0F8000
018000
030000
030000
030000
030F80
033FE0
0370E0
07C030
078030
070038
060018
060018
040018
0C0018
0C0038
0E0030
0E0070
0F00E0
1BC3C0
F8FF00
F87C00
ENDCHAR

STARTCHAR c
ENCODING 99
SWIDTH 560 0
DWIDTH 18 0
BBX 16 17 3 0
BITMAP
01F3
07FF
1C0E
3806
7006
6000
E000
C000
C000
C000
C000
C000
C006
600C
7838
3FF0
0FC0
ENDCHAR

STARTCHAR d
ENCODING 100
SWIDTH 660 0
DWIDTH 21 0
BBX 19 23 3 0
BITMAP
0003E0
0003E0
000060
000040
0000C0
0000C0
03E0C0
0FF8C0
1C1CC0
380780
300380
600380
600180
C00180
C00100
C00300
C00300
C00700
C00F00
601F00
707200
3FE7C0
0F87C0
ENDCHAR

STARTCHAR e
ENCODING 101
SWIDTH 580 0
DWIDTH 18 0
BBX 17 17 2 0
BITMAP
01F000
07FC00
1E0E00
380300
300380
600180
600180
C00180
FFFF80
FFFF80
C00000
C00000
E00300
600600
701C00
3FF800
0FE000
ENDCHAR

STARTCHAR f
ENCODING 102
SWIDTH 300 0
DWIDTH 10 0
BBX 12 23 1 0
BITMAP
0070
01F0
0380
0300
0600
0600
3FC0
3FC0
0C00
0C00
0C00
0C00
0C00
0C00
1800
1800
1800
1800
1800
1800
1800
FE00
FE00
ENDCHAR

STARTCHAR g
ENCODING 103
SWIDTH 660 0
DWIDTH 21 0
BBX 22 24 1 -7
BITMAP
00FC3C
03FF3C
0F03B0
1C01E0
3800E0
300060
700060
6000E0
6000C0
6000C0
6000C0
6000C0
7001C0
3007C0
3C0F80
1FFD80
07F180
000180
800300
C00600
E00E00
783C00
3FF000
0FC000
ENDCHAR

STARTCHAR h
ENCODING 104
SWIDTH 640 0
DWIDTH 20 0
BBX 21 23 0 0
BITMAP
0F8000
0F8000
018000
030000
030000
030000
031F80
037FC0
03E0E0
078070
070070
060030
060030
060030
060030
0C0060
0C0060
0C0060
1800C0
1800C0
1800C0
FF07F8
FF07F8
ENDCHAR

STARTCHAR i
ENCODING 105
SWIDTH 260 0
DWIDTH 8 0
BBX 9 23 0 0
BITMAP
0180
0180
0180
0000
0000
0000
1F00
1F00
0300
0600
0600
0600
0600
0600
0C00
0C00
0C00
0C00
0C00
1800
1800
FF00
FF00
ENDCHAR

STARTCHAR j
ENCODING 106
SWIDTH 240 0
DWIDTH 8 0
BBX 10 30 0 -7
BITMAP
00C0
00C0
00C0
0000
0000
0000
0F80
0F80
0180
0300
0300
0300
0300
0300
0300
0600
0600
0600
0600
0600
0600
0C00
0C00
0C00
0C00
1800
1800
3000
F000
C000
ENDCHAR

STARTCHAR k
ENCODING 107
SWIDTH 580 0
DWIDTH 19 0
BBX 19 23 0 0
BITMAP
0F8000
0F8000
018000
030000
030000
030000
030FE0
030FE0
030700
060C00
063800
067000
06C000
078000
07C000
0CC000
0C6000
0C3000
0C3800
181800
180C00
FF3F80
FF3F80
ENDCHAR

STARTCHAR l
ENCODING 108
SWIDTH 280 0
DWIDTH 9 0
BBX 9 23 0 0
BITMAP
0F80
0F80
0180
0180
0300
0300
0300
0300
0300
0600
0600
0600
0600
0600
0C00
0C00
0C00
0C00
1800
1800
1800
FF00
FF00
ENDCHAR

STARTCHAR m
ENCODING 109
SWIDTH 980 0
DWIDTH 31 0
BBX 30 17 0 0
BITMAP
1E1E03C0
1E7F0FF0
06C39870
0781F038
0700E018
0600C018
0600C018
0600C018
0C018030
0C018030
0C018030
0C018030
18030060
18030060
18030060
FF1FE3FC
FF1FE3FC
ENDCHAR

STARTCHAR n
ENCODING 110
SWIDTH 660 0
DWIDTH 21 0
BBX 21 17 0 0
BITMAP
1F1F00
1F7FC0
03E0E0
038070
070030
060030
060030
060030
060060
0C0060
0C0060
0C0060
0C0060
1800C0
1800C0
FF07F8
FF07F8
ENDCHAR

STARTCHAR o
ENCODING 111
SWIDTH 580 0
DWIDTH 19 0
BBX 17 17 2 0
BITMAP
01F800
07FE00
1E0F00
380300
700380
600180
E00180
C00180
C00180
C00180
C00300
C00300
E00700
600E00
783C00
3FF000
0FC000
ENDCHAR

STARTCHAR p
ENCODING 112
SWIDTH 660 0
DWIDTH 21 0
BBX 22 23 -1 -6
BITMAP
1F0FC0
1F3FF0
037038
03C018
07800C
07000C
06000C
06000C
0C000C
0C000C
0C0018
0E0018
0E0030
1B0070
19C1E0
18FF80
183E00
180000
180000
300000
300000
FE0000
FE0000
ENDCHAR

STARTCHAR q
ENCODING 113
SWIDTH 660 0
DWIDTH 21 0
BBX 20 23 3 -6
BITMAP
03F0F0
0FFCF0
1C0EC0
3003C0
3003C0
600180
600180
C00180
C00180
C00300
C00300
C00300
C00700
600F00
703B00
3FF600
0FC600
000600
000600
000C00
000C00
007F00
007F00
ENDCHAR

STARTCHAR r
ENCODING 114
SWIDTH 360 0
DWIDTH 11 0
BBX 13 17 0 0
BITMAP
1F18
1F78
03E0
0380
0700
0600
0600
0600
0C00
0C00
0C00
0C00
0C00
1800
1800
FF00
FF00
ENDCHAR

STARTCHAR s
ENCODING 115
SWIDTH 420 0
DWIDTH 13 0
BBX 14 17 1 0
BITMAP
03CC
0FFC
1C18
3818
3000
3000
3C00
1F80
03E0
00F0
0038
0018
6018
6038
7070
DFE0
CF80
ENDCHAR

STARTCHAR t
ENCODING 116
SWIDTH 320 0
DWIDTH 10 0
BBX 9 23 3 0
BITMAP
0600
0600
0600
0C00
0C00
0C00
7F80
7F80
1800
1800
1800
1800
1800
3000
3000
3000
3000
6000
6000
6000
6000
FE00
FE00
ENDCHAR

STARTCHAR u
ENCODING 117
SWIDTH 640 0
DWIDTH 20 0
BBX 17 17 3 0
BITMAP
F80F80
F80F80
180180
180180
300300
300300
300300
300300
600600
600600
600600
600E00
600C00
701C00
387C00
1FEF80
078F80
ENDCHAR

STARTCHAR v
ENCODING 118
SWIDTH 640 0
DWIDTH 20 0
BBX 19 17 3 0
BITMAP
FE0FE0
FE0FE0
180300
180300
180600
1C0600
0C0C00
0C1800
0C1800
0C3000
063000
066000
066000
06C000
078000
038000
030000
ENDCHAR

STARTCHAR w
ENCODING 119
SWIDTH 900 0
DWIDTH 29 0
BBX 28 17 3 0
BITMAP
FE0007F0
FE0007F0
18060180
18060180
180E0300
180F0300
181B0600
0C1B0600
0C330C00
0C630C00
0C619800
0CC1B000
0EC1B000
0781E000
0701C000
0701C000
06018000
ENDCHAR

STARTCHAR x
ENCODING 120
SWIDTH 600 0
DWIDTH 19 0
BBX 20 17 1 0
BITMAP
3FC7F0
3FC7F0
060180
070300
038600
018C00
00D800
00F000
006000
00F000
01B800
031800
060C00
0C0E00
180700
FE3FC0
FE3FC0
ENDCHAR

STARTCHAR y
ENCODING 121
SWIDTH 640 0
DWIDTH 20 0
BBX 19 23 3 -6
BITMAP
FE0FE0
FE0FE0
180300
180300
180600
180600
0C0C00
0C1800
0C1800
0C3000
0C3000
066000
06C000
06C000
078000
038000
030000
060000
060000
0C0000
0C0000
7F0000
7F0000
ENDCHAR

STARTCHAR z
ENCODING 122
SWIDTH 420 0
DWIDTH 13 0
BBX 15 17 1 0
BITMAP
3FFE
3FFE
301C
3038
3070
00E0
00C0
0180
0300
0600
0E00
1C00
3818
7018
E018
FFF8
FFF8
ENDCHAR

STARTCHAR braceleft
ENCODING 123
SWIDTH 300 0
DWIDTH 10 0
BBX 10 29 3 -5
BITMAP
0040
0380
0600
0600
0400
0C00
0C00
0C00
0C00
0C00
1800
1800
1800
3000
C000
3000
3000
3000
3000
3000
3000
6000
6000
6000
6000
6000
6000
3000
0800
ENDCHAR

STARTCHAR bar
ENCODING 124
SWIDTH 660 0
DWIDTH 21 0
BBX 6 24 9 -1
BITMAP
0C
0C
0C
0C
18
18
18
18
18
30
30
30
30
30
30
60
60
60
60
60
60
C0
C0
C0
ENDCHAR

STARTCHAR braceright
ENCODING 125
SWIDTH 300 0
DWIDTH 10 0
BBX 9 29 1 -5
BITMAP
0800
0600
0300
0300
0300
0300
0300
0300
0300
0300
0600
0600
0600
0300
0180
0600
0400
0C00
0C00
0C00
0C00
1800
1800
1800
1800
1800
3000
6000
8000
ENDCHAR

STARTCHAR asciitilde
ENCODING 126
SWIDTH 660 0
DWIDTH 21 0
BBX 18 4 4 9
BITMAP
1E0080
3F81C0
E1FF80
403E00
ENDCHAR

STARTCHAR space
ENCODING 160
SWIDTH 300 0
DWIDTH 10 0
BBX 1 1 0 0
BITMAP
00
ENDCHAR

STARTCHAR exclamdown
ENCODING 161
SWIDTH 140 0
DWIDTH 4 0
BBX 6 23 0 -6
BITMAP
0C
0C
0C
00
00
18
18
18
38
30
30
30
30
30
60
60
60
60
60
60
C0
C0
C0
ENDCHAR

STARTCHAR cent
ENCODING 162
SWIDTH 580 0
DWIDTH 19 0
BBX 14 20 5 1
BITMAP
00C0
00C0
01C0
07CC
1FFC
39B8
7198
6100
C300
C300
C300
C300
C600
E638
76E0
3FC0
1F00
0C00
0C00
0C00
ENDCHAR

STARTCHAR sterling
ENCODING 163
SWIDTH 640 0
DWIDTH 19 0
BBX 19 23 2 0
BITMAP
007820
01FE60
0787E0
0E01C0
0C00C0
1800C0
180000
180000
180000
180000
180000
FFF800
FFF800
060000
060000
030180
030180
030180
030300
060300
0C0E00
FFFE00
FFF800
ENDCHAR

STARTCHAR currency
ENCODING 164
SWIDTH 560 0
DWIDTH 19 0
BBX 17 15 3 3
BITMAP
11F100
3FFF80
1E0E00
180600
300300
300300
600300
600300
600600
600600
600600
300C00
783C00
EFEE00
87C400
ENDCHAR

STARTCHAR yen
ENCODING 165
SWIDTH 740 0
DWIDTH 19 0
BBX 18 23 3 0
BITMAP
7E0FC0
7E0FC0
180300
180600
080600
0C0C00
0C0C00
0C1800
043000
063000
FE7F00
066000
03C000
FFFF00
038000
030000
030000
030000
060000
060000
060000
3F8000
3F8000
ENDCHAR

STARTCHAR brokenbar
ENCODING 166
SWIDTH 660 0
DWIDTH 21 0
BBX 6 23 9 0
BITMAP
0C
0C
0C
0C
18
18
18
18
00
00
00
00
00
00
60
60
60
60
60
C0
C0
C0
C0
ENDCHAR

STARTCHAR section
ENCODING 167
SWIDTH 440 0
DWIDTH 14 0
BBX 15 27 1 -4
BITMAP
01F0
03FC
060E
0C06
0C00
0C00
0E00
0700
03C0
07F0
0C38
1818
380C
300C
301C
3838
1FF0
07C0
01E0
0070
0030
0030
C030
C060
E0E0
7FC0
1F00
ENDCHAR

STARTCHAR dieresis
ENCODING 168
SWIDTH 340 0
DWIDTH 11 0
BBX 6 4 6 20
BITMAP
CC
CC
CC
CC
ENDCHAR

STARTCHAR copyright
ENCODING 169
SWIDTH 820 0
DWIDTH 26 0
BBX 23 23 4 0
BITMAP
007F80
01FFE0
038070
0E0018
181F0C
30738C
30C0C6
6180C6
630006
C70006
C60006
C60006
C60006
C60006
C7018C
C3030C
63CE18
60F818
600030
300060
1C01C0
0FFF80
03FE00
ENDCHAR

STARTCHAR ordfeminine
ENCODING 170
SWIDTH 420 0
DWIDTH 13 0
BBX 14 13 3 10
BITMAP
079C
1CF0
3070
6030
6030
6060
6060
60E0
31E0
1F70
0000
FFF0
FFF0
ENDCHAR

STARTCHAR guillemotleft
ENCODING 171
SWIDTH 320 0
DWIDTH 10 0
BBX 9 11 2 3
BITMAP
0880
1980
3300
2200
6600
CC00
CC00
6600
6600
2200
2200
ENDCHAR

STARTCHAR logicalnot
ENCODING 172
SWIDTH 660 0
DWIDTH 21 0
BBX 20 10 3 5
BITMAP
FFFFF0
FFFFF0
000030
000030
000030
000030
000030
000030
000030
000030
ENDCHAR

STARTCHAR hyphen
ENCODING 173
SWIDTH 300 0
DWIDTH 10 0
BBX 8 2 2 9
BITMAP
FF
FF
ENDCHAR

STARTCHAR registered
ENCODING 174
SWIDTH 820 0
DWIDTH 26 0
BBX 24 23 3 0
BITMAP
007FC0
01FFF0
078038
0E000C
18FF86
30FFC6
30C0E3
60C063
60C063
C0C0E3
C1FFC3
C1FF03
C18603
C18603
C30306
C30306
630186
6301CC
30001C
380038
1E00F0
07FFC0
01FF00
ENDCHAR

STARTCHAR macron
ENCODING 175
SWIDTH 460 0
DWIDTH 15 0
BBX 10 2 6 21
BITMAP
FFC0
FFC0
ENDCHAR

STARTCHAR degree
ENCODING 176
SWIDTH 400 0
DWIDTH 13 0
BBX 9 9 5 14
BITMAP
1F00
7180
4180
C080
8080
C180
C100
6700
3C00
ENDCHAR

STARTCHAR plusminus
ENCODING 177
SWIDTH 660 0
DWIDTH 21 0
BBX 17 16 4 3
BITMAP
006000
006000
006000
006000
006000
7FFF80
7FFF80
00C000
00C000
00C000
00C000
00C000
000000
000000
FFFF00
FFFF00
ENDCHAR

STARTCHAR twosuperior
ENCODING 178
SWIDTH 348 0
DWIDTH 11 0
BBX 11 14 3 9
BITMAP
0FC0
18E0
3060
30E0
00C0
0180
0300
0700
0E00
1C00
1800
3180
6180
FF80
ENDCHAR

STARTCHAR threesuperior
ENCODING 179
SWIDTH 348 0
DWIDTH 11 0
BBX 10 14 3 9
BITMAP
0F80
19C0
30C0
00C0
0380
0F00
0180
00C0
00C0
00C0
C0C0
6180
7380
1E00
ENDCHAR

STARTCHAR acute
ENCODING 180
SWIDTH 420 0
DWIDTH 13 0
BBX 9 6 6 19
BITMAP
0080
0380
0F00
3C00
F000
C000
ENDCHAR

STARTCHAR mu
ENCODING 181
SWIDTH 640 0
DWIDTH 20 0
BBX 18 23 2 -6
BITMAP
7C07C0
7C07C0
0C00C0
0C00C0
180180
180180
180180
180180
180180
300300
300300
300300
300700
380E00
7C1E00
7FF780
67C780
600000
600000
600000
C00000
C00000
C00000
ENDCHAR

STARTCHAR paragraph
ENCODING 182
SWIDTH 500 0
DWIDTH 16 0
BBX 15 27 4 -4
BITMAP
07FE
1FFE
3F18
7F18
7F18
FF18
FE30
FE30
7E30
7E30
3E30
0C60
0C60
0C60
0C60
0C60
0C40
18C0
18C0
18C0
18C0
1880
3180
3180
3180
3180
3180
ENDCHAR

STARTCHAR periodcentered
ENCODING 183
SWIDTH 300 0
DWIDTH 10 0
BBX 3 3 6 10
BITMAP
E0
E0
E0
ENDCHAR

STARTCHAR cedilla
ENCODING 184
SWIDTH 320 0
DWIDTH 10 0
BBX 5 7 2 -7
BITMAP
30
60
F0
18
08
98
F0
ENDCHAR

STARTCHAR onesuperior
ENCODING 185
SWIDTH 348 0
DWIDTH 11 0
BBX 6 14 5 9
BITMAP
7C
0C
0C
0C
0C
18
18
18
18
30
30
30
30
FC
ENDCHAR

STARTCHAR ordmasculine
ENCODING 186
SWIDTH 340 0
DWIDTH 11 0
BBX 11 13 3 10
BITMAP
0780
18C0
3060
3060
6060
6060
6060
60C0
3180
1F00
0000
FFC0
FFC0
ENDCHAR

STARTCHAR guillemotright
ENCODING 187
SWIDTH 320 0
DWIDTH 10 0
BBX 9 11 2 3
BITMAP
2200
2200
3300
3300
1980
1980
1980
3300
6600
CC00
8800
ENDCHAR

STARTCHAR onequarter
ENCODING 188
SWIDTH 870 0
DWIDTH 28 0
BBX 22 23 5 0
BITMAP
7C00C0
0C00C0
0C0180
0C0300
180300
180600
180600
180C00
181800
30180C
30301C
306038
306078
FCC0D8
018198
018318
030630
030C30
061830
0C1FFC
1C0030
180030
3000F8
ENDCHAR

STARTCHAR onehalf
ENCODING 189
SWIDTH 870 0
DWIDTH 28 0
BBX 23 23 5 0
BITMAP
7C0060
0C00C0
0C0180
0C0180
0C0300
180200
180600
180C00
180C00
3018FC
30318E
303306
30630E
FC600C
00C018
018030
018070
0300E0
0600C0
0601C0
0C038C
1C070C
180FFC
ENDCHAR

STARTCHAR threequarters
ENCODING 190
SWIDTH 870 0
DWIDTH 28 0
BBX 25 23 3 0
BITMAP
0F801C00
19C01800
30C03000
00C03000
01806000
0F00C000
0180C000
00C18000
00C18000
00C30180
C0C60380
61860700
738C0F00
1E181B00
00183300
00306300
0070C600
00618600
00C30600
00C3FF80
01800600
03800600
03001F00
ENDCHAR

STARTCHAR questiondown
ENCODING 191
SWIDTH 520 0
DWIDTH 16 0
BBX 14 24 1 -7
BITMAP
0060
0060
0060
0000
0000
00C0
00C0
0180
0180
0300
0700
0E00
1C00
3800
7000
E000
E000
C00C
C01C
C018
E038
70F0
3FE0
1F80
ENDCHAR

STARTCHAR Agrave
ENCODING 192
SWIDTH 820 0
DWIDTH 26 0
BBX 25 30 1 0
BITMAP
00100000
003C0000
001E0000
00078000
0001C000
00008000
00000000
001F8000
001FC000
0003C000
0006C000
000CC000
000CE000
00186000
00186000
00306000
00607000
00603000
00C03000
00C03000
01803800
03FFF800
03FFF800
06001800
0E001C00
0C000C00
18000C00
18000C00
FE007F80
FE007F80
ENDCHAR

STARTCHAR Aacute
ENCODING 193
SWIDTH 820 0
DWIDTH 26 0
BBX 25 30 1 0
BITMAP
00001800
00007800
0000E000
00038000
000F0000
000C0000
00000000
001F8000
001FC000
0003C000
0006C000
000CC000
000CE000
00186000
00186000
00306000
00607000
00603000
00C03000
00C03000
01803800
03FFF800
03FFF800
06001800
0E001C00
0C000C00
18000C00
18000C00
FE007F80
FE007F80
ENDCHAR

STARTCHAR Acircumflex
ENCODING 194
SWIDTH 820 0
DWIDTH 26 0
BBX 25 30 1 0
BITMAP
00018000
0007C000
000E6000
00383000
00601800
00000000
00000000
001F8000
001FC000
0003C000
0006C000
000CC000
000CE000
00186000
00186000
00306000
00607000
00603000
00C03000
00C03000
01803800
03FFF800
03FFF800
06001800
0E001C00
0C000C00
18000C00
18000C00
FE007F80
FE007F80
ENDCHAR

STARTCHAR Atilde
ENCODING 195
SWIDTH 820 0
DWIDTH 26 0
BBX 25 28 1 0
BITMAP
001E2000
003FF000
0011E000
00000000
00000000
001F8000
001FC000
0003C000
0006C000
000CC000
000CE000
00186000
00186000
00306000
00607000
00603000
00C03000
00C03000
01803800
03FFF800
03FFF800
06001800
0E001C00
0C000C00
18000C00
18000C00
FE007F80
FE007F80
ENDCHAR

STARTCHAR Adieresis
ENCODING 196
SWIDTH 820 0
DWIDTH 26 0
BBX 25 29 1 0
BITMAP
00066000
00066000
00066000
00066000
00000000
00000000
001F8000
001FC000
0003C000
0006C000
000CC000
000CE000
00186000
00186000
00306000
00607000
00603000
00C03000
00C03000
01803800
03FFF800
03FFF800
06001800
0E001C00
0C000C00
18000C00
18000C00
FE007F80
FE007F80
ENDCHAR

STARTCHAR Aring
ENCODING 197
SWIDTH 820 0
DWIDTH 26 0
BBX 25 30 1 0
BITMAP
00038000
0004C000
00084000
00084000
000C8000
00070000
00000000
001F8000
001FC000
0003C000
0006C000
000CC000
000CE000
00186000
00186000
00306000
00607000
00603000
00C03000
00C03000
01803800
03FFF800
03FFF800
06001800
0E001C00
0C000C00
18000C00
18000C00
FE007F80
FE007F80
ENDCHAR

STARTCHAR AE
ENCODING 198
SWIDTH 1000 0
DWIDTH 32 0
BBX 34 23 1 0
BITMAP
0000FFFFC0
0000FFFFC0
00003E00C0
00003E01C0
00006C0180
0000CC0180
00018C0000
00030C0000
00071C0000
000E180000
000C1FFC00
00181FFC00
0030180000
0060180000
00FFF80000
01FFF00000
0380300000
0300300600
0600300600
0C00300600
1800700E00
FF03FFFC00
FF03FFFC00
ENDCHAR

STARTCHAR Ccedilla
ENCODING 199
SWIDTH 740 0
DWIDTH 24 0
BBX 23 30 3 -7
BITMAP
003FC6
00FFF6
03C07E
07001C
0E000C
18000C
300000
700000
600000
600000
C00000
C00000
C00000
C00000
C00000
C00000
E00000
600038
700070
3800E0
1E07C0
0FFF00
03FC00
00C000
018000
03C000
006000
002000
066000
03C000
ENDCHAR

STARTCHAR Egrave
ENCODING 200
SWIDTH 560 0
DWIDTH 18 0
BBX 20 30 1 0
BITMAP
002000
007800
003C00
000F00
000380
000100
000000
0FFFF0
0FFFF0
018030
038070
030060
030060
030000
030000
070000
060000
07FF00
07FF00
060000
060000
0E0000
0C0000
0C0000
0C0180
0C0180
0C0180
1C0380
FFFF00
FFFF00
ENDCHAR

STARTCHAR Eacute
ENCODING 201
SWIDTH 560 0
DWIDTH 18 0
BBX 20 30 1 0
BITMAP
000060
0001E0
000380
000E00
003C00
003000
000000
0FFFF0
0FFFF0
018030
038070
030060
030060
030000
030000
070000
060000
07FF00
07FF00
060000
060000
0E0000
0C0000
0C0000
0C0180
0C0180
0C0180
1C0380
FFFF00
FFFF00
ENDCHAR

STARTCHAR Ecircumflex
ENCODING 202
SWIDTH 560 0
DWIDTH 18 0
BBX 20 30 1 0
BITMAP
000600
001F00
003980
00E0C0
018060
000000
000000
0FFFF0
0FFFF0
018030
038070
030060
030060
030000
030000
070000
060000
07FF00
07FF00
060000
060000
0E0000
0C0000
0C0000
0C0180
0C0180
0C0180
1C0380
FFFF00
FFFF00
ENDCHAR

STARTCHAR Edieresis
ENCODING 203
SWIDTH 560 0
DWIDTH 18 0
BBX 20 29 1 0
BITMAP
001980
001980
001980
001980
000000
000000
0FFFF0
0FFFF0
018030
038070
030060
030060
030000
030000
070000
060000
07FF00
07FF00
060000
060000
0E0000
0C0000
0C0000
0C0180
0C0180
0C0180
1C0380
FFFF00
FFFF00
ENDCHAR

STARTCHAR Igrave
ENCODING 204
SWIDTH 300 0
DWIDTH 10 0
BBX 12 30 1 0
BITMAP
0400
0F00
0780
01E0
0070
0020
0000
0FF0
0FF0
0180
0300
0300
0300
0300
0300
0700
0600
0600
0600
0600
0600
0E00
0C00
0C00
0C00
0C00
0C00
1C00
FF00
FF00
ENDCHAR

STARTCHAR Iacute
ENCODING 205
SWIDTH 300 0
DWIDTH 10 0
BBX 14 30 1 0
BITMAP
000C
003C
0070
01C0
0780
0600
0000
0FF0
0FF0
0180
0300
0300
0300
0300
0300
0700
0600
0600
0600
0600
0600
0E00
0C00
0C00
0C00
0C00
0C00
1C00
FF00
FF00
ENDCHAR

STARTCHAR Icircumflex
ENCODING 206
SWIDTH 300 0
DWIDTH 10 0
BBX 15 30 1 0
BITMAP
0060
01F0
0398
0E0C
1806
0000
0000
0FF0
0FF0
0180
0300
0300
0300
0300
0300
0700
0600
0600
0600
0600
0600
0E00
0C00
0C00
0C00
0C00
0C00
1C00
FF00
FF00
ENDCHAR

STARTCHAR Idieresis
ENCODING 207
SWIDTH 300 0
DWIDTH 10 0
BBX 12 29 1 0
BITMAP
0330
0330
0330
0330
0000
0000
0FF0
0FF0
0180
0300
0300
0300
0300
0300
0700
0600
0600
0600
0600
0600
0E00
0C00
0C00
0C00
0C00
0C00
1C00
FF00
FF00
ENDCHAR

STARTCHAR Eth
ENCODING 208
SWIDTH 720 0
DWIDTH 23 0
BBX 23 23 1 0
BITMAP
0FFF80
0FFFF0
018078
03001C
03000C
03000E
030006
030006
070006
060006
3FF006
3FF006
060006
06000E
0E000C
0C001C
0C0018
0C0030
0C0070
0C00E0
1C0380
FFFF00
FFFC00
ENDCHAR

STARTCHAR Ntilde
ENCODING 209
SWIDTH 800 0
DWIDTH 25 0
BBX 28 28 1 0
BITMAP
000F1000
001FF800
0008F000
00000000
00000000
0F800FF0
0FC00FF0
01C00180
03E00300
03700300
03300300
03380300
03180300
071C0700
060C0600
060E0600
06060600
06070600
06030600
0E038E00
0C018C00
0C01CC00
0C00CC00
0C00EC00
0C007C00
1C003C00
FF003800
FF001800
ENDCHAR

STARTCHAR Ograve
ENCODING 210
SWIDTH 800 0
DWIDTH 25 0
BBX 24 30 3 0
BITMAP
000800
001E00
000F00
0003C0
0000E0
000040
000000
003FC0
00FFF0
03E078
07001C
0E000E
180006
300007
700003
600003
600003
C00003
C00003
C00003
C00007
C00006
C0000E
E0000C
600018
700070
3800E0
1E03C0
0FFF00
03FC00
ENDCHAR

STARTCHAR Oacute
ENCODING 211
SWIDTH 800 0
DWIDTH 25 0
BBX 24 30 3 0
BITMAP
000030
0000F0
0001C0
000700
001E00
001800
000000
003FC0
00FFF0
03E078
07001C
0E000E
180006
300007
700003
600003
600003
C00003
C00003
C00003
C00007
C00006
C0000E
E0000C
600018
700070
3800E0
1E03C0
0FFF00
03FC00
ENDCHAR

STARTCHAR Ocircumflex
ENCODING 212
SWIDTH 800 0
DWIDTH 25 0
BBX 24 30 3 0
BITMAP
000180
0007C0
000E60
003830
006018
000000
000000
003FC0
00FFF0
03E078
07001C
0E000E
180006
300007
700003
600003
600003
C00003
C00003
C00003
C00007
C00006
C0000E
E0000C
600018
700070
3800E0
1E03C0
0FFF00
03FC00
ENDCHAR

STARTCHAR Otilde
ENCODING 213
SWIDTH 800 0
DWIDTH 25 0
BBX 24 28 3 0
BITMAP
003C40
007FE0
0023C0
000000
000000
003FC0
00FFF0
03E078
07001C
0E000E
180006
300007
700003
600003
600003
C00003
C00003
C00003
C00007
C00006
C0000E
E0000C
600018
700070
3800E0
1E03C0
0FFF00
03FC00
ENDCHAR

STARTCHAR Odieresis
ENCODING 214
SWIDTH 800 0
DWIDTH 25 0
BBX 24 29 3 0
BITMAP
001980
001980
001980
001980
000000
000000
003FC0
00FFF0
03E078
07001C
0E000E
180006
300007
700003
600003
600003
C00003
C00003
C00003
C00007
C00006
C0000E
E0000C
600018
700070
3800E0
1E03C0
0FFF00
03FC00
ENDCHAR

STARTCHAR multiply
ENCODING 215
SWIDTH 660 0
DWIDTH 21 0
BBX 16 14 5 4
BITMAP
1002
3807
1C0E
0C1C
0630
0760
03C0
0380
06C0
0C60
3830
7038
E01C
C008
ENDCHAR

STARTCHAR Oslash
ENCODING 216
SWIDTH 800 0
DWIDTH 26 0
BBX 26 25 2 -1
BITMAP
000000C0
001FE180
007FFB00
01F03E00
03800E00
07001F00
0C003300
1C006380
3800C180
30018180
30030180
60060180
600C0180
60180180
60300380
60600300
60C00700
71800600
33000C00
3E003800
1C007000
1F01E000
3FFF8000
61FE0000
C0000000
ENDCHAR

STARTCHAR Ugrave
ENCODING 217
SWIDTH 700 0
DWIDTH 22 0
BBX 20 30 5 0
BITMAP
020000
078000
03C000
00F000
003800
001000
000000
FE0FF0
FE0FF0
180180
300300
300300
300300
300300
300300
700300
600600
600600
600600
600600
600600
E00E00
C00C00
C00C00
C00C00
E01800
E03800
707000
3FE000
1F8000
ENDCHAR

STARTCHAR Uacute
ENCODING 218
SWIDTH 700 0
DWIDTH 22 0
BBX 20 30 5 0
BITMAP
000180
000780
000E00
003800
00F000
00C000
000000
FE0FF0
FE0FF0
180180
300300
300300
300300
300300
300300
700300
600600
600600
600600
600600
600600
E00E00
C00C00
C00C00
C00C00
E01800
E03800
707000
3FE000
1F8000
ENDCHAR

STARTCHAR Ucircumflex
ENCODING 219
SWIDTH 700 0
DWIDTH 22 0
BBX 20 30 5 0
BITMAP
003000
00F800
01CC00
070600
0C0300
000000
000000
FE0FF0
FE0FF0
180180
300300
300300
300300
300300
300300
700300
600600
600600
600600
600600
600600
E00E00
C00C00
C00C00
C00C00
E01800
E03800
707000
3FE000
1F8000
ENDCHAR

STARTCHAR Udieresis
ENCODING 220
SWIDTH 700 0
DWIDTH 22 0
BBX 20 29 5 0
BITMAP
019800
019800
019800
019800
000000
000000
FE0FF0
FE0FF0
180180
300300
300300
300300
300300
300300
700300
600600
600600
600600
600600
600600
E00E00
C00C00
C00C00
C00C00
E01800
E03800
707000
3FE000
1F8000
ENDCHAR

STARTCHAR Yacute
ENCODING 221
SWIDTH 680 0
DWIDTH 22 0
BBX 21 30 4 0
BITMAP
0000C0
0003C0
000700
001C00
007800
006000
000000
FF07F8
FF07F8
1800C0
180180
0C0180
0C0300
0C0600
060600
060C00
061800
031800
033000
036000
01E000
01C000
018000
018000
018000
018000
018000
038000
1FF000
1FF000
ENDCHAR

STARTCHAR Thorn
ENCODING 222
SWIDTH 580 0
DWIDTH 19 0
BBX 19 23 1 0
BITMAP
0FF000
0FF000
038000
030000
030000
03FF00
03FFC0
0301C0
0700E0
060060
060060
060060
060060
0600C0
0E01C0
0C0380
0FFF00
0FF800
0C0000
0C0000
1C0000
FF0000
FF0000
ENDCHAR

STARTCHAR germandbls
ENCODING 223
SWIDTH 580 0
DWIDTH 19 0
BBX 19 24 0 -1
BITMAP
001F00
007FC0
00E1C0
01C0E0
018060
030060
030060
0300E0
0300C0
060380
061E00
061F80
0601C0
0600E0
0E0060
0C0060
0C0060
0C0060
0C0060
0C00C0
1C01C0
F8C380
F8FF00
007C00
ENDCHAR

STARTCHAR agrave
ENCODING 224
SWIDTH 660 0
DWIDTH 21 0
BBX 20 25 3 0
BITMAP
008000
01E000
007000
003C00
000F00
000200
000000
000000
01F0F0
0FFCF0
1C0CC0
380780
700780
600380
E00180
C00180
C00180
C00300
C00300
C00700
C00F00
E01F00
707300
3FE7C0
0F87C0
ENDCHAR

STARTCHAR aacute
ENCODING 225
SWIDTH 660 0
DWIDTH 21 0
BBX 20 25 3 0
BITMAP
000100
000700
001E00
007800
01E000
018000
000000
000000
03F0F0
0FFCF0
1C0CC0
3807C0
700380
600380
E00180
C00180
C00180
C00300
C00300
C00700
C00F00
E01F00
707300
3FE7C0
0F87C0
ENDCHAR

STARTCHAR acircumflex
ENCODING 226
SWIDTH 660 0
DWIDTH 21 0
BBX 20 24 3 0
BITMAP
003000
00F800
01CC00
070700
0E0380
000000
000000
03F0F0
0FFCF0
1C0CC0
380780
700380
600380
E00180
C00180
C00180
C00300
C00300
C00700
C00F00
E01F00
707300
3FE7C0
0F87C0
ENDCHAR

STARTCHAR atilde
ENCODING 227
SWIDTH 660 0
DWIDTH 21 0
BBX 20 22 3 0
BITMAP
01E200
03FF00
011E00
000000
000000
03F0F0
0FFCF0
1C0EC0
3807C0
7003C0
600180
E00180
C00180
C00180
C00380
C00300
C00700
C00F00
E01F00
707300
3FE7C0
0FC7C0
ENDCHAR

STARTCHAR adieresis
ENCODING 228
SWIDTH 660 0
DWIDTH 21 0
BBX 20 23 3 0
BITMAP
00CC00
00CC00
00CC00
00CC00
000000
000000
03F0F0
0FFCF0
1E0CC0
380780
700380
600380
C00180
C00180
C00180
C00300
C00300
C00700
C00F00
E01F00
707300
3FE7C0
0F87C0
ENDCHAR

STARTCHAR aring
ENCODING 229
SWIDTH 660 0
DWIDTH 21 0
BBX 20 25 3 0
BITMAP
001C00
002600
004200
004200
006400
003800
000000
000000
03F0F0
0FFCF0
1C0EC0
380780
700380
600380
600180
C00180
C00180
C00380
C00300
C00700
C00F00
601F00
707300
3FE7C0
0F87C0
ENDCHAR

STARTCHAR ae
ENCODING 230
SWIDTH 1060 0
DWIDTH 34 0
BBX 33 17 2 0
BITMAP
01F0C3F000
07FCCFFC00
1C0EDC0E00
3807F00700
6003C00300
6003C00380
C001800180
C001FFFF80
C001FFFF80
C003800000
C003800000
C007800000
C00F800E00
601BC01C00
7073707800
3FE63FE000
0F860F8000
ENDCHAR

STARTCHAR ccedilla
ENCODING 231
SWIDTH 560 0
DWIDTH 18 0
BBX 17 24 2 -7
BITMAP
00F180
03FD80
0F0F00
1C0300
380300
700000
600000
E00000
C00000
C00000
C00000
C00300
E00600
700C00
383800
1FF000
07C000
030000
060000
0F0000
018000
008000
198000
0F0000
ENDCHAR

STARTCHAR egrave
ENCODING 232
SWIDTH 580 0
DWIDTH 19 0
BBX 18 25 1 0
BITMAP
004000
00F000
003800
001E00
000780
000100
000000
000000
01FC00
07FF00
0F0780
1C0180
3800C0
7000C0
6000C0
C000C0
FFFFC0
FFFFC0
C00000
C00000
600180
700300
380E00
1FFC00
07F000
ENDCHAR

STARTCHAR eacute
ENCODING 233
SWIDTH 580 0
DWIDTH 19 0
BBX 18 25 1 0
BITMAP
000080
000380
000F00
003C00
00F000
00C000
000000
000000
00FC00
03FF00
0F0780
1C0180
3800C0
7000C0
6000C0
E000C0
FFFFC0
FFFFC0
C00000
C00000
600380
700700
380E00
1FFC00
07F000
ENDCHAR

STARTCHAR ecircumflex
ENCODING 234
SWIDTH 580 0
DWIDTH 19 0
BBX 18 24 1 0
BITMAP
001800
007C00
00C600
038380
0701C0
000000
000000
00FC00
03FE00
0F0780
1C0180
3800C0
7000C0
6000C0
E000C0
FFFFC0
FFFFC0
C00000
C00000
600180
700700
381E00
1FF800
07E000
ENDCHAR

STARTCHAR edieresis
ENCODING 235
SWIDTH 580 0
DWIDTH 19 0
BBX 18 23 1 0
BITMAP
00CC00
00CC00
00CC00
00CC00
000000
000000
00FC00
03FE00
0F0780
1C0180
3800C0
7000C0
6000C0
E000C0
FFFFC0
FFFFC0
C00000
C00000
600380
700700
381E00
1FFC00
07F000
ENDCHAR

STARTCHAR igrave
ENCODING 236
SWIDTH 260 0
DWIDTH 8 0
BBX 12 25 0 0
BITMAP
0800
1E00
0700
03C0
00F0
0020
0000
0000
1F00
1F00
0300
0600
0600
0600
0600
0600
0C00
0C00
0C00
0C00
0C00
1800
1800
FF00
FF00
ENDCHAR

STARTCHAR iacute
ENCODING 237
SWIDTH 260 0
DWIDTH 8 0
BBX 12 25 0 0
BITMAP
0010
0070
01E0
0780
1E00
1800
0000
0000
1F00
1F00
0300
0600
0600
0600
0600
0600
0C00
0C00
0C00
0C00
0C00
1800
1800
FF00
FF00
ENDCHAR

STARTCHAR icircumflex
ENCODING 238
SWIDTH 260 0
DWIDTH 8 0
BBX 14 24 0 0
BITMAP
0180
03C0
0E60
3838
701C
0000
0000
1F00
1F00
0300
0600
0600
0600
0600
0600
0C00
0C00
0C00
0C00
0C00
1800
1800
FF00
FF00
ENDCHAR

STARTCHAR idieresis
ENCODING 239
SWIDTH 260 0
DWIDTH 8 0
BBX 10 23 0 0
BITMAP
0CC0
0CC0
0CC0
0CC0
0000
0000
1F00
1F00
0300
0600
0600
0600
0600
0600
0C00
0C00
0C00
0C00
0C00
1800
1800
FF00
FF00
ENDCHAR

STARTCHAR eth
ENCODING 240
SWIDTH 580 0
DWIDTH 19 0
BBX 18 24 2 0
BITMAP
1C0000
070180
018F80
03FC00
0FE000
7C7000
603800
00FC00
03FE00
0F0700
1C0380
380180
7001C0
6000C0
E000C0
C000C0
C001C0
C00180
C00380
C00700
600E00
783C00
3FF000
0FC000
ENDCHAR

STARTCHAR ntilde
ENCODING 241
SWIDTH 660 0
DWIDTH 21 0
BBX 21 22 0 0
BITMAP
003C40
007FE0
0023C0
000000
000000
1F1F00
1F7FC0
03E0E0
078070
070030
060030
060030
060030
0C0060
0C0060
0C0060
0C0060
0C0060
1800C0
1800C0
FF07F8
FF07F8
ENDCHAR

STARTCHAR ograve
ENCODING 242
SWIDTH 580 0
DWIDTH 19 0
BBX 17 25 2 0
BITMAP
020000
078000
01C000
00F000
003C00
000800
000000
000000
01F800
07FE00
1E0F00
380300
700380
600180
E00180
C00180
C00180
C00180
C00380
C00300
E00700
600E00
783C00
3FF000
0FC000
ENDCHAR

STARTCHAR oacute
ENCODING 243
SWIDTH 580 0
DWIDTH 19 0
BBX 17 25 2 0
BITMAP
000100
000700
001E00
007800
01E000
018000
000000
000000
01F800
07FE00
1E0F00
380300
700380
600180
E00180
C00180
C00180
C00180
C00380
C00300
E00700
E00E00
783C00
3FF000
0FC000
ENDCHAR

STARTCHAR ocircumflex
ENCODING 244
SWIDTH 580 0
DWIDTH 19 0
BBX 17 24 2 0
BITMAP
003000
00F800
01CE00
070700
0E0380
000000
000000
01F800
07FE00
1E0F00
380300
700380
600180
E00180
C00180
C00180
C00180
C00380
C00300
E00700
600E00
783C00
3FF000
0FC000
ENDCHAR

STARTCHAR otilde
ENCODING 245
SWIDTH 580 0
DWIDTH 19 0
BBX 17 22 2 0
BITMAP
01E200
03FF00
011E00
000000
000000
01F800
07FE00
1E0F00
380300
700380
600180
E00180
C00180
C00180
C00180
C00380
C00300
E00700
600E00
783C00
3FF000
0FC000
ENDCHAR

STARTCHAR odieresis
ENCODING 246
SWIDTH 580 0
DWIDTH 19 0
BBX 17 23 2 0
BITMAP
019800
019800
019800
019800
000000
000000
01F800
07FE00
1E0F00
380300
700380
600180
E00180
C00180
C00180
C00180
C00380
C00300
E00700
600E00
783C00
3FF000
0FC000
ENDCHAR

STARTCHAR divide
ENCODING 247
SWIDTH 660 0
DWIDTH 21 0
BBX 16 14 5 4
BITMAP
00C0
00C0
00C0
0000
0000
0000
FFFF
FFFF
0000
0000
0000
0300
0300
0300
ENDCHAR

STARTCHAR oslash
ENCODING 248
SWIDTH 580 0
DWIDTH 19 0
BBX 18 19 2 -1
BITMAP
0000C0
00F980
03FF00
0E0700
1C0780
300D80
301980
6030C0
6060C0
C0C0C0
C18180
C30180
660300
6C0300
7C0E00
381C00
3FF800
67C000
C00000
ENDCHAR

STARTCHAR ugrave
ENCODING 249
SWIDTH 640 0
DWIDTH 20 0
BBX 17 25 3 0
BITMAP
080000
1E0000
070000
03C000
00F000
002000
000000
000000
F80F80
F80F80
180180
180180
300300
300300
300300
300300
600600
600600
600600
600600
600E00
701E00
387C00
1FEF80
0F8F80
ENDCHAR

STARTCHAR uacute
ENCODING 250
SWIDTH 640 0
DWIDTH 20 0
BBX 17 25 3 0
BITMAP
000100
000700
001E00
007800
01E000
018000
000000
000000
F80F80
F80F80
180180
180180
300300
300300
300300
300300
600200
600600
600600
600E00
600E00
701C00
387C00
1FEF80
0F8F80
ENDCHAR

STARTCHAR ucircumflex
ENCODING 251
SWIDTH 640 0
DWIDTH 20 0
BBX 17 24 3 0
BITMAP
003000
007800
01CC00
070700
0E0380
000000
000000
F80F80
F80F80
180180
180180
300300
300300
300300
300300
200200
600600
600600
600600
600E00
701C00
383C00
1FEF80
0F8F80
ENDCHAR

STARTCHAR udieresis
ENCODING 252
SWIDTH 640 0
DWIDTH 20 0
BBX 17 23 3 0
BITMAP
019800
019800
019800
019800
000000
000000
F80F80
F80F80
180180
180180
300300
300300
300300
300300
600200
600600
600600
600E00
600E00
701C00
383C00
1FEF80
0F8F80
ENDCHAR

STARTCHAR yacute
ENCODING 253
SWIDTH 640 0
DWIDTH 20 0
BBX 19 31 3 -6
BITMAP
000100
000700
001E00
007800
01E000
018000
000000
000000
FE0FE0
FE0FE0
180300
180300
180600
180600
0C0C00
0C1800
0C1800
0C3000
0C3000
066000
06C000
06C000
078000
038000
030000
060000
060000
0C0000
0C0000
7F0000
7F0000
ENDCHAR

STARTCHAR thorn
ENCODING 254
SWIDTH 660 0
DWIDTH 21 0
BBX 23 29 -1 -6
BITMAP
07C000
07C000
00C000
00C000
018000
018000
0187E0
019FF8
01B81C
03E00C
03C00E
038006
030006
030006
020006
060006
06000E
07000C
07001C
078038
0CC0F0
0C7FC0
0C1F00
0C0000
0C0000
180000
180000
FF0000
FF0000
ENDCHAR

STARTCHAR ydieresis
ENCODING 255
SWIDTH 640 0
DWIDTH 20 0
BBX 19 29 3 -6
BITMAP
00CC00
00CC00
00CC00
00CC00
000000
000000
FF0FE0
FE0FE0
180300
180300
180600
180600
0C0C00
0C1800
0C1800
0C3000
0C3000
066000
06C000
06C000
078000
038000
030000
060000
060000
0C0000
0C0000
7F0000
7F0000
ENDCHAR

ENDFONT
