STARTFONT 2.1
FONT -DEC-Present Bullets-Medium-R-Normal--48-480-100-100-P-609-DEC-FontSpecific
SIZE 48 100 100
FONTBOUNDINGBOX 83 58 0 -6

STARTPROPERTIES 10
COPYRIGHT "Copyright 1990,  Digital Equipment Corporation Created by Loree Nelson, The Artis Consultancy"
POINT_SIZE 480
WEIGHT 10
RESOLUTION_X 100
RESOLUTION_Y 100
X_HEIGHT 46
QUAD_WIDTH 55
DEFAULT_CHAR 0
FONT_DESCENT 7
FONT_ASCENT 57
ENDPROPERTIES

CHARS 59

STARTCHAR space
ENCODING 32
SWIDTH 250 0
DWIDTH 16 0
BBX 0 0 0 0
BITMAP
ENDCHAR

STARTCHAR A
ENCODING 65
SWIDTH 704 0
DWIDTH 45 0
BBX 32 41 0 6
BITMAP
00000010
00000038
000000F8
000001F8
000001F8
000003F8
000003F8
000007F8
000007E0
00000FC0
00000FC0
FFFFFFFF
80000F83
80001F03
80001F03
80001E03
80003E03
80003C03
80803C03
81807803
80C07803
80C07003
80E0F003
80E0E003
80F1E003
81F1E003
81F1C003
83FBC003
81FB8003
80FF8003
807F8003
803F0003
803F0003
801F0003
800F0003
800E0003
80060003
80000003
80000003
FFFFFFFF
FFFFFFFF
ENDCHAR

STARTCHAR B
ENCODING 66
SWIDTH 616 0
DWIDTH 39 0
BBX 29 48 2 2
BITMAP
00000030
00000070
000000F0
000000F0
000001F0
000003F0
000003F0
000007F0
000007F8
00000FF8
00000FF8
00001FF8
00001FF0
00001FF0
00003FE0
00003FC0
00007F80
00007F00
00007F00
0000FE00
0000FC00
0000F800
0001F800
0001F000
0003F000
2003E000
3003E000
3007C000
38078000
38078000
3C0F0000
3C0F0000
3C1E0000
3E1E0000
7E1E0000
7F3C0000
FF3C0000
7FFC0000
3FF80000
1FF80000
0FF80000
07F00000
07F00000
03F00000
01F00000
01E00000
00E00000
00E00000
ENDCHAR

STARTCHAR C
ENCODING 67
SWIDTH 740 0
DWIDTH 47 0
BBX 33 41 0 4
BITMAP
8000000000
E000000000
F800000000
FC00000000
7F00000000
3FC0000000
0FE0000000
03F8000000
01FE000000
007F000000
001FC00000
000FF00000
0003F80000
0000FE0000
00003F8000
00001FE000
000007F000
000001FC00
000000FF00
0000003F80
0000007F00
000001FE00
000003F800
00000FF000
00001FC000
00007F0000
0000FE0000
0003F80000
0007F00000
001FC00000
003F800000
00FE000000
03FC000000
07F0000000
1FE0000000
3F80000000
FE00000000
FC00000000
F000000000
E000000000
8000000000
ENDCHAR

STARTCHAR D
ENCODING 68
SWIDTH 953 0
DWIDTH 61 0
BBX 54 51 3 0
BITMAP
00000010000000
00000030000000
00000030000000
00000078000000
00000078000000
000000FC000000
000000FC000000
000000CE000000
000001CE000000
00000186000000
00000387000000
00000303000000
00000703800000
00000601800000
00000E01C00000
00000C00C00000
00001C00E00000
0000F8007C0000
1FFFF8007FFFE0
FFFFF0003FFFFC
3C0000000000F8
1C0000000000E0
0E0000000001C0
07000000000380
03C00000000F00
00E00000001C00
00700000003800
00380000007000
001E000000E000
0007000003C000
00038000070000
00018000060000
00018000060000
00018000070000
00030000030000
00030000030000
00030000038000
00060000018000
00060010018000
000E007800C000
000C01FE00C000
000C07CF80C000
00181F03E06000
00187C00F86000
0018F8007C6000
0033E0001F3000
003F800007F000
003E000001F800
00780000007800
00600000001800
00800000000400
ENDCHAR

STARTCHAR E
ENCODING 69
SWIDTH 1048 0
DWIDTH 67 0
BBX 55 52 3 0
BITMAP
00000010000000
00000010000000
00000030000000
00000038000000
00000078000000
0000007C000000
000000FC000000
000000FE000000
000001FE000000
000001FF000000
000001FF000000
000003FF800000
000003FF800000
000007FFC00000
000007FFC00000
00000FFFE00000
00000FFFE00000
00001FFFFC0000
007FFFFFFFFF80
FFFFFFFFFFFFFE
7FFFFFFFFFFFFC
3FFFFFFFFFFFF8
1FFFFFFFFFFFF0
07FFFFFFFFFFC0
03FFFFFFFFFF80
01FFFFFFFFFF00
00FFFFFFFFFE00
003FFFFFFFFC00
001FFFFFFFF800
000FFFFFFFE000
0007FFFFFFC000
0001FFFFFF8000
0001FFFFFF0000
0001FFFFFF0000
0001FFFFFF8000
0003FFFFFF8000
0003FFFFFF8000
0003FFFFFFC000
0007FFFFFFC000
0007FFFFFFC000
0007FFFFFFE000
000FFFFFFFE000
000FFFCFFFE000
001FFF03FFF000
001FFC00FFF000
001FF0003FF000
003FE0000FF800
003F800003F800
003E0000007C00
00780000001C00
00600000000400
00400000000100
ENDCHAR

STARTCHAR F
ENCODING 70
SWIDTH 732 0
DWIDTH 47 0
BBX 38 51 0 0
BITMAP
0000080000
0000080000
00000C0000
00000C0000
00000E0000
00000F0000
00000F0000
00000F8000
00000FC000
00000FE000
00000FE000
00000FF000
00000FF800
FFFFFFF800
FFFFFFFC00
FFFFFFFE00
FFFFFFFE00
FFFFFFFF00
FFFFFFFF80
FFFFFFFF80
FFFFFFFFC0
FFFFFFFFE0
FFFFFFFFF0
FFFFFFFFF0
FFFFFFFFF8
FFFFFFFFFC
FFFFFFFFF8
FFFFFFFFF0
FFFFFFFFF0
FFFFFFFFE0
FFFFFFFFC0
FFFFFFFFC0
FFFFFFFF80
FFFFFFFF00
FFFFFFFF00
FFFFFFFE00
FFFFFFFC00
FFFFFFF800
FFFFFFF800
00000FF000
00000FE000
00000FE000
00000FC000
00000F8000
00000F8000
00000F0000
00000E0000
00000C0000
00000C0000
0000080000
0000080000
ENDCHAR

STARTCHAR G
ENCODING 71
SWIDTH 732 0
DWIDTH 47 0
BBX 37 51 0 0
BITMAP
0000080000
0000080000
00000C0000
00000C0000
00000A0000
00000B0000
0000098000
0000088000
000008C000
0000086000
0000082000
0000083000
0000081800
FFFFF80800
8000000C00
8000000600
8000000200
8000000300
8000000180
80000000C0
80000000C0
8000000060
8000000030
8000000030
8000000018
8000000038
8000000078
8000000070
80000000E0
80000001E0
80000003C0
8000000380
8000000780
8000000F00
8000000E00
8000001E00
FFFFF83C00
FFFFF87800
FFFFF87800
000008F000
000009E000
000009E000
00000BC000
00000F8000
00000F8000
00000F0000
00000E0000
00000C0000
00000C0000
0000080000
0000080000
ENDCHAR

STARTCHAR H
ENCODING 72
SWIDTH 1000 0
DWIDTH 64 0
BBX 66 7 0 3
BITMAP
00000001FFFFFFFFC0
00000000FFFFFFFFC0
000000000000000000
000000000000000000
FFFFFFFFFFFFFFFFC0
FFFFFFFFFFFFFFFFC0
FFFFFFFFFFFFFFFFC0
ENDCHAR

STARTCHAR I
ENCODING 73
SWIDTH 787 0
DWIDTH 50 0
BBX 35 48 0 0
BITMAP
FC00000000
FFE0000000
FFF8000000
FFFF000000
FFFFC00000
FFFFE00000
FFFFF80000
FFFFFC0000
07FFFE0000
01FFFF0000
007FFF8000
001FFFC000
000FFFE000
0003FFF000
0001FFF800
0000FFF800
00007FFC00
00003FFE00
00001FFE00
00000FFF00
00000FFF00
000007FF00
000003FF80
000003FF80
000001FFC0
000001FFC0
000001FFC0
000000FFC0
000000FFE0
000000FFE0
000000FFE0
0000007FE0
0000007FE0
0000007FE0
0000007FE0
0000007FE0
0000007FE0
0000007FE0
0000007FE0
0000007FE0
0000007FE0
0000007FE0
000000FFE0
000000FFE0
000000FFC0
000000FFC0
000001FFC0
000001FFC0
ENDCHAR

STARTCHAR J
ENCODING 74
SWIDTH 756 0
DWIDTH 48 0
BBX 32 49 2 -6
BITMAP
70000000
78000000
FC000000
7E000000
3F00001E
3F80003F
1F80007F
0FC000FE
07C001FC
07E003FC
03F003F8
01F007F0
00F807E0
00FC0FE0
007C1FC0
003E1F80
003F3F00
001FFF00
001FFE00
000FFC00
0007F800
0007F800
0007F000
0007F000
000FF000
000FF800
001FF800
003F7C00
003E7C00
007E3E00
007C3E00
00FC1F00
01F81F00
01F80F80
03F00F80
07F007C0
07E007C0
0FE007E0
1FC003E0
1F8003F0
3F8003F0
3F0001F0
3E0001F8
080000F8
000000F8
000000F8
0000007C
00000078
00000038
ENDCHAR

STARTCHAR K
ENCODING 75
SWIDTH 935 0
DWIDTH 60 0
BBX 42 51 3 0
BITMAP
FF0000003F80
FF8000007F80
7FC00000FF00
3FC00000FE00
3FE00001FE00
1FF00003FC00
0FF00007F800
07F80007F000
07FC000FF000
03FC001FE000
01FE001FC000
01FE003FC000
00FF007F8000
007F807F0000
007F80FF0000
003FC1FE0000
001FE3FC0000
001FE3FC0000
000FF7F80000
0007FFF00000
0003FFE00000
0003FFE00000
0001FFC00000
0000FF800000
0000FF800000
0000FF800000
0000FF800000
0001FFC00000
0003FFE00000
0003FFE00000
0007FFF00000
000FF7F80000
000FF3FC0000
001FE3FC0000
003FC1FE0000
003FC0FF0000
007F80FF0000
00FF007F8000
00FF003FC000
01FE003FE000
03FE001FE000
03FC000FF000
07F8000FF800
0FF80007F800
0FF00003FC00
1FE00003FE00
3FE00001FE00
3FC00000FF00
7FC00000FF80
FF8000007FC0
FF0000003FC0
ENDCHAR

STARTCHAR L
ENCODING 76
SWIDTH 1000 0
DWIDTH 64 0
BBX 57 41 0 3
BITMAP
0070000000000000
0194000000000000
021E000000000000
0429800000000000
0828400000000000
1050500000000000
20F05C0000000000
41A0720000000000
4340A18000000000
4680A04000000000
CD01403000000000
7602800800000000
3807E00600000000
100F300300000000
08360C00C0000000
06E8060060000000
0130018018000000
00C000C00C000000
0020003003000000
0018001801800000
0006000600600000
0001000300300000
0000C00080080000
0000200060060000
0000180010010000
000004000C00C000
0000030002004000
0000008001806000
000000600040D000
0000001000305000
0000000C0009C800
0000000200070800
0000000180030400
0000000040060400
0000000030080200
0000000008180200
0000000006100200
0000000001200700
0000000000E00700
000000000003EF80
0000000000000380
ENDCHAR

STARTCHAR M
ENCODING 77
SWIDTH 1440 0
DWIDTH 92 0
BBX 79 36 0 -1
BITMAP
0000003FFFFFFF000000
000007FFFFFFFFF00000
00007FFFFFFFFFFE0000
0001FFFFFFFFFFFF0000
0003FFFFFFFFFFFFC000
000FFFFFFFFFFFFFF000
003FFE000000003FF800
007FFEFFFFFFFFBFFE00
01FFFEFFFFFFFFBFFF00
07FFFEFFFFFFFFBFFFC0
0FFFFEFFFFFFFFBFFFF0
3FFFFEFFFC1FFFBFFFF8
FFFFFEFF8000FFBFFFFE
FFFFFEF800001FBFFFFE
FFFFFEF000000FBFFFFE
FFFFFCE00000079FFFFE
FFFFF9E0000003CFFFFE
FFFFF7C0000001E7FFFE
FFFFCFC0000001F9FFFE
FFFF9FC0000001FCFFFE
FFFF7FE0000003FE7FFE
7FFCFFE0000003FF9FFC
3FFBFFE0000003FFCFF8
1FE7FFF000000FFFE3F0
07CFFFFC00003FFFF9E0
03BFFFFF8000FFFFFCC0
007FFFFFF80FFFFFFE00
01FFFFFFFFFFFFFFFF80
01FFFFFFFFFFFFFFFF80
01FFFFFFFFFFFFFFFF80
01FFFFFFFFFFFFFFFF80
01FFFFFFFFFFFFFFFF80
01FFFFFFFFFFFFFFFF80
01FFFFFFFFFFFFFFFF80
01FFFFFFFFFFFFFFFF80
01FFFFFFFFFFFFFFFF80
ENDCHAR

STARTCHAR N
ENCODING 78
SWIDTH 1292 0
DWIDTH 83 0
BBX 63 41 1 -1
BITMAP
000003FFFFE00000
00FFFFFFFFFFF800
0FFFFFFFFFFFFF80
1FFFFFFFFFFFFFE0
3FFFFFFFFFFFFFF0
7FFFC1FFFF07FFF8
7FFFFDFFFF77FFFC
FFFFFDFFFF77FFFC
FFFDFFFFFFFE7FFE
FFFDFFFFFFFF7FFE
FFFBFFFFFFFF3FFE
FFFFF808207FBFFE
FFF7FFFFFFFF9FFE
FFFFF018203FDFFE
7F8FF018203FEFFC
7C1FFFFFFFFFE3FC
001FE018301FF01C
003FFFFFFFFFF000
003FC010100FF800
007FC010100FFC00
007FFFFFFFFFFC00
00FF80000007FE00
00FF80000007FE00
01FF80000003FF00
01FFFFFFFFFFFF80
01FFFFFFFFFFFF80
03FFFFFFFFFFFF40
03FFFFFFFFFFFF80
03FFFFFFFFFFFFC0
03FFFFFFFFFFFFC0
03FFFFFFFFFFFFC0
03FFFFFFFFFFFFC0
03FFFFFFFFFFFFC0
03FFFFFFFFFFFFC0
03FFFFFFFFFFFFC0
03FFFFFFFFFFFFC0
03FFFFFFFFFFFFC0
03FFFFFFFFFFFFC0
01FFFFFFFFFFFF80
01FFFFFFFFFFFF00
0007F000000FE000
ENDCHAR

STARTCHAR O
ENCODING 79
SWIDTH 1488 0
DWIDTH 95 0
BBX 83 36 0 4
BITMAP
0000000003FFFFFFFFFFE0
0000C03FFC000000001840
001FFFC000000000000FC0
00E0880000000000000100
0080880000000000000200
010088000000000003FC00
01010800000000001C0000
010108000000001FE00000
0201080000000020000000
02011000000003C0000000
0201100000001E00000000
0401100000402100000000
0401100000204100000000
0401100000118080000000
04021000001E4040000000
0802100000142020000000
08021000000A2020000000
10021000000A1020000000
10021FE0000A2020000000
1002111000042020000000
2002110800064040000000
2002110400018080000000
2004110300008100000000
20042100F0004200000000
400422000E002400000000
4004220001801C00000000
4004240000600400000000
4004280000100200000000
42042800000C0180000000
8504300000038F80000000
98886000000060C0000000
8908400000001040000000
8608800000000C40000000
40098000000003A0000000
403E000000000060000000
7FC0000000000000000000
ENDCHAR

STARTCHAR P
ENCODING 80
SWIDTH 1292 0
DWIDTH 83 0
BBX 63 26 0 8
BITMAP
000003FF80000000
00000C007FFFFFF8
0000700010000004
000380000C000002
000C000003000002
FE70000000800004
8280000000600008
82800000001FFFF8
8280001F00100000
82800020E0200000
828000401FE00000
828000403FF00000
82800080C00C0000
8280030300030000
82800C0100020000
82FFF00080040000
828000007FF80000
82800000C0380000
8280000300060000
8280000100040000
82800000800C0000
828000007FF00000
8280000060C00000
8278000180300000
FE07FFFFC0600000
000000003F800000
ENDCHAR

STARTCHAR Q
ENCODING 81
SWIDTH 844 0
DWIDTH 54 0
BBX 41 41 0 5
BITMAP
003E00000000
003F00000000
003F00000000
001F80000000
001F80000000
001FC0000000
001FC0000000
000FE0000000
000FF0000000
000FF0000000
0007F8000000
0007F8000000
0007FC000000
0003FC000000
E003FE000000
7003FF000000
7803FF000000
7801FF800000
7C01FF800000
7FFFFFFFFE00
3FFFFFFFFF00
3FFFFFFFFF80
3FFFFFFFFF00
7FFFFFFFFE00
7C01FF800000
7801FF800000
7001FF000000
F003FE000000
0003FE000000
0003FC000000
0007F8000000
0007F8000000
0007F0000000
000FF0000000
000FE0000000
001FC0000000
001FC0000000
001F80000000
003F00000000
003F00000000
003E00000000
ENDCHAR

STARTCHAR R
ENCODING 82
SWIDTH 1195 0
DWIDTH 76 0
BBX 47 41 1 0
BITMAP
001FFFFFF800
007FFFFFFC00
00FFFFFFFE00
00F800001E00
00F000000F00
01E000000F00
01E000000F80
03E000000780
03E000000780
03C0000007C0
07C0000007C0
07C0000003E0
0FC0000003E0
0FFFFFFFFFE0
1FFFFFFFFFF0
7FFFFFFFFFFC
7FFFFFFFFFFC
7C3FFFFFFC3C
F81FFFFFF81E
F81FFFFFF81E
F81FFFFFF81E
F81FFFFFF81E
FC3FFFFFFC3E
FFFFFFFFFFFE
FFFFFFFFFFFE
FFFFFFFFFFFE
FFFFFFFFFFFE
FFFFFFFFFFFE
FFFFFFFFFFFE
FFFFFFFFFFFE
FFFFFFFFFFFE
FFFFFFFFFFFE
1F80000007E0
1F80000007E0
1F80000007E0
1F80000007E0
1F80000007E0
1F80000007E0
1F80000007E0
1F80000007E0
0F00000003C0
ENDCHAR

STARTCHAR S
ENCODING 83
SWIDTH 1376 0
DWIDTH 88 0
BBX 76 37 0 2
BITMAP
FFFFFFFFFFFFFFFFFFF0
C0000000000000000030
B00000000000000000D0
88000000000000000110
86000000000000000610
81800000000000001810
80400000000000002010
8030000000000000C010
80080000000000010010
80060000000000060010
80010000000000080010
8000C000000000300010
80003000000000C00010
80000800000001000010
80000600000006000010
80000100000008000010
800000C0000030000010
80000130000048000010
8000020E000784000010
80000401E07802000010
800008001F8001000010
80003000000000C00010
80004000000000200010
80008000000000100010
80010000000000080010
80020000000000040010
800C0000000000030010
80100000000000008010
80200000000000004010
80400000000000002010
80800000000000001010
83000000000000000C10
84000000000000000210
88000000000000000110
90000000000000000090
A0000000000000000050
FFFFFFFFFFFFFFFFFFF0
ENDCHAR

STARTCHAR T
ENCODING 84
SWIDTH 1098 0
DWIDTH 70 0
BBX 51 52 2 -1
BITMAP
00800402004000
00400801008000
00201000808000
00201000410000
00102000210000
00084000220020
C00840000201C0
380000007C0E00
0707F001FE7000
000FF807FF0000
001FFE07FF8000
003FFC03FF8000
007FE3F8FFC000
007F1FFFBFC000
00F83FFFCFC000
00C0FFC3F3C000
0003FC103CC000
0007F87C1E0000
000FF07C0F0000
001FC07C038000
003F803801C000
007F003800C000
007F003800C000
00FF003800C000
00FF003800E000
00FE0038006000
00FE0010006000
00FE0010006000
00FE0010006000
00FE0010006000
00FE0008006000
00FF000E00E000
007F000700C000
007F0007C0C000
003F8003C18000
001FC003C30000
001FE000070000
000FE000060000
0007F0000C0000
0001F800188000
0002FF81F30000
00037FFFEE0000
0001BFFFDC0000
0000E7FF7C0000
0000FC003E0000
0001F8001F0000
0001F0000FC000
000FF00007C000
000FE00003C000
0007C00001C000
00078000000000
00078000000000
ENDCHAR

STARTCHAR U
ENCODING 85
SWIDTH 992 0
DWIDTH 63 0
BBX 47 49 3 2
BITMAP
000000800000
000000800000
000000800000
000000800000
000000800000
000000800000
008000000000
004000000600
002000000800
001800001000
000407E02000
000038180000
000060060000
000180030000
000300008000
00060000C000
000400004000
000C00006000
000800002002
00180000203C
F81001801040
0F100EF01000
001034261000
0010180C1000
001018181000
00100C101000
00100C303000
00080C302000
00080C302000
000C0C304000
00060C30C000
00030C308000
00018C310000
0000EC360000
00002C340000
00002C340000
00002C340000
00002C340000
00002C340000
00002C340000
00002C340000
00002C340000
00002C340000
00003FFC0000
000000000000
00001FF80000
000000000000
00001FF80000
00000FF00000
ENDCHAR

STARTCHAR V
ENCODING 86
SWIDTH 1175 0
DWIDTH 75 0
BBX 56 49 1 0
BITMAP
07FFFFFFFC0000
0FFFFFFFFE0000
0FFFFFFFFE0000
0F8000003E0000
0F0000001E0000
0F0000001E0000
0F0000001E0000
0F0000001E0000
0F0000001E0000
0F0000001E0000
0F0000001E0000
0F0000001E0000
0F0000001E0000
0F0000001E0000
0F0000001E0000
0F0000001E0000
0F0000001E0000
0F0000001E0000
0F0000001E0000
0F0000001E0000
0F0000001E0000
0F0000001E0000
0F0000001E0000
0F0000001E0000
0F8000003E0000
0FFFFFFFFE0000
0FFFFFFFFE0000
0FFFFFFFFE0000
07FFFFFFFC0000
001FFFFE000000
00000000000000
00000000000300
0FFFFFFFFFFFF0
0FFFFFFFFE0018
0FFFFFFFFE0004
0FFFFFFFFE0004
0FFFFFFFFE0004
0FFFFFFFFE0018
0FFFFFFFFE01F0
0FFFFFFFFE0E00
0FFFFFFFFE0800
1FFFFFFFFF0780
1800001F030040
3800001F038000
3000001F81C07E
7000001F81C0FF
7000001F80E0FF
FFFFFFFFFFE07E
FFFFFFFFFFF000
ENDCHAR

STARTCHAR W
ENCODING 87
SWIDTH 790 0
DWIDTH 51 0
BBX 37 42 1 1
BITMAP
0000C00000
0003F80000
000E0E0000
003803C000
00E0007000
0780001C00
1C00000780
70000000E0
C000000038
F0000000F8
BE000003D8
8780000F18
81F0003C18
803C00F018
800F83C018
8003EE0018
8000780018
8000300018
8000300018
8000300018
8000300018
8000300018
8000300018
8000300018
8000300018
8000300018
8000300018
8000300018
8000300018
8000300018
8000300018
8000300018
6000300078
18003001E0
0600300380
0180300F00
0060303C00
001830F000
000731C000
0003F70000
0000FC0000
0000300000
ENDCHAR

STARTCHAR X
ENCODING 88
SWIDTH 860 0
DWIDTH 55 0
BBX 39 42 1 1
BITMAP
FFFFFFFFFE
FFFFFFFFFE
FFFFFFFFFE
FFFFFFFFFE
FFFFF7FFFE
FFFFF3FFFE
FFFFF1FFFE
FFFFF0FFFE
FFFFF0FFFE
FFFFF07FFE
FFFFF03FFE
0000001FFE
0000000FFE
0000000FFE
00000007FE
00000003FE
00000001FE
00000000FE
000000007E
000000007E
000000003E
000000007E
000000007E
00000000FE
00000001FE
00000003FE
00000003FE
00000007FE
0000000FFE
0000001FFE
0000001FFE
FFFFF03FFE
FFFFF07FFE
FFFFF0FFFE
FFFFF0FFFE
FFFFF1FFFE
FFFFF3FFFE
FFFFF7FFFE
FFFFF7FFFE
FFFFFFFFFE
FFFFFFFFFE
FFFFFFFFFE
ENDCHAR

STARTCHAR Y
ENCODING 89
SWIDTH 804 0
DWIDTH 51 0
BBX 39 48 1 0
BITMAP
0000040000
0000040000
0000060000
0000070000
0000050000
0000048000
000004C000
0000046000
0000043000
0000051000
0000051800
0000058C00
0000054600
0000056600
FFFFFD2300
8000011180
BFFFFF18C0
A000000CE0
A000000460
A000000630
A000000318
A00000019C
A00000008C
A0000000C6
A000000046
A000000084
A000000108
A000000218
A000000230
A000000420
A000000840
BFFFFF10C0
8000011180
FFFFFD2100
0000054200
0000054600
0000058C00
0000051800
0000051000
0000043000
0000046000
000004C000
0000048000
0000050000
0000070000
0000060000
0000040000
0000040000
ENDCHAR

STARTCHAR Z
ENCODING 90
SWIDTH 1220 0
DWIDTH 78 0
BBX 58 42 1 0
BITMAP
8000000000000000
7000000000000000
2E00000000000000
1180000000000000
0830000000000000
0406000000000000
0200C00000000000
0100380000000000
0080070000000000
004000E000000000
0020001800000000
0030000300000000
0018000060000000
000C00000C000000
0006000001800000
0003000000300000
0001800000060000
0000C0000000C000
0000600000003000
0000300000000600
00001FFFFFFFFFC0
00001FFFFFFFFFC0
00003FFFFFFFFE00
00007FFFFFFFF800
0000FFFFFFFFC000
0001FFFFFFFE0000
0001FFFFFFF00000
0003FFFFFF800000
0007FFFFFC000000
000FFFFFE0000000
001FFFFF80000000
003FFFFC00000000
007FFFE000000000
00FFFF0000000000
01FFF80000000000
03FFC00000000000
07FF000000000000
0FF8000000000000
1FC0000000000000
3E00000000000000
7000000000000000
8000000000000000
ENDCHAR

STARTCHAR bracketleft
ENCODING 91
SWIDTH 1260 0
DWIDTH 81 0
BBX 61 25 0 7
BITMAP
0000000010000000
000000000C000000
0000000007000000
0000000003C00000
0000000001F80000
0000000000FE0000
00000000007F8000
00000000003FE000
00000000001FFC00
00000000000FFF00
FFFFFFFFFFFFFFC0
FFFFFFFFFFFFFFF0
FFFFFFFFFFFFFFF8
FFFFFFFFFFFFFFE0
00000000000FFF80
00000000001FFE00
00000000003FF000
00000000007FC000
0000000000FF0000
0000000001FC0000
0000000001F00000
0000000003C00000
0000000007000000
000000000C000000
0000000010000000
ENDCHAR

STARTCHAR backslash
ENCODING 92
SWIDTH 915 0
DWIDTH 59 0
BBX 42 41 1 2
BITMAP
00000C000000
00008C400000
00004C800000
00602D030000
00601E030000
00600C030000
02608C41B000
01664C99E000
00E74CB9C000
1FE36DB1FC00
1FF32D33FC00
003BBF770000
001D9E6E0000
018FDEFC4000
01F7DEFBE000
42FFCCFFE100
E39FEDFEF380
71E7EDF9E300
3878FFC78600
1C1E3F1E0C00
FFFFFFFFFFC0
FFFFFFFFFFC0
181F3F3E0600
30F87F8FC300
E3E3EDF1F180
430FCCFC6100
007FDEFF8000
01C39E71E000
0005BF680000
000BBF740000
1C132D320C00
1FE34CB1FC00
01E64C99C000
03E68C59E000
03608C41B000
00600C012000
00601E010000
00403F010000
00006D800000
0000CCC00000
00000C000000
ENDCHAR

STARTCHAR bracketright
ENCODING 93
SWIDTH 1292 0
DWIDTH 83 0
BBX 64 26 0 8
BITMAP
000007FFDFFF0000
00003FFFE7FFFFFE
0001FFFFFBFFFFFE
0007FFFFFEFFFFFF
001FFFFFFFBFFFFE
FC3FFFFFFFCFFFFE
FCFFFFFFFFF00000
FCFFFFFFFFF80000
FCFFFFE0FFF00000
FCFFFFDFBFE00000
FCFFFFFFCFE00000
FCFFFFBEFFF80000
FCFFFE79FFFE0000
FCFFF9F9FFFE0000
FCFFE7F9FFFE0000
FC807FFEFFF80000
FCFFFFFEFFF00000
FCFFFFF9FFFC0000
FCFFFFF9FFFC0000
FCFFFFFCFFF80000
FCFFFFFF7FC00000
FCFFFFFEFFE00000
FC7FFFFFFFF00000
FC1FFFFFFFF00000
0003FFFF00000000
00007FFC00000000
ENDCHAR

STARTCHAR asciicircum
ENCODING 94
SWIDTH 940 0
DWIDTH 60 0
BBX 34 2 12 18
BITMAP
FFFFFFFFC0
FFFFFFFFC0
ENDCHAR

STARTCHAR underscore
ENCODING 95
SWIDTH 1164 0
DWIDTH 74 0
BBX 58 2 8 18
BITMAP
FFFFFFFFFFFFFFC0
FFFFFFFFFFFFFFC0
ENDCHAR

STARTCHAR grave
ENCODING 96
SWIDTH 720 0
DWIDTH 46 0
BBX 32 32 0 8
BITMAP
0007F000
003C1E00
00C00380
018000C0
06000020
0C000010
08000008
1000000C
30000006
20000002
60000002
40000001
40000001
40000001
C0000001
C0000001
C0000001
C0000001
40000001
40000001
40000001
40000002
20000002
20000006
10000004
18000008
0C000018
06000030
03000060
00C00180
00780F00
000FF800
ENDCHAR

STARTCHAR a
ENCODING 97
SWIDTH 720 0
DWIDTH 46 0
BBX 31 31 4 8
BITMAP
000FE000
007FF800
01FFFE00
03FFFF80
07FFFFC0
0FFFFFE0
1FFFFFF0
1FFFFFF0
3FFFFFF8
7FFFFFF8
7FFFFFFC
7FFFFFFC
7FFFFFFC
FFFFFFFC
FFFFFFFE
FFFFFFFE
FFFFFFFE
FFFFFFFC
FFFFFFFC
7FFFFFFC
7FFFFFFC
7FFFFFF8
3FFFFFF8
3FFFFFF0
1FFFFFF0
0FFFFFE0
07FFFFC0
03FFFF80
01FFFF00
007FFC00
001FF000
ENDCHAR

STARTCHAR b
ENCODING 98
SWIDTH 1272 0
DWIDTH 81 0
BBX 69 28 3 7
BITMAP
0000000000001FE000
000000000000FFF800
000000000003FFFE00
000000000007FFFF00
00000000000FFFFFC0
000001F8001FFFFFC0
000007FE003FFFFFE0
0F000FFF003FFFFFF0
3FC01FFF807FFFFFF0
7FE03FFFC07FFFFFF8
7FE03FFFC0FFFFFFF8
FFF07FFFE0FFFFFFF8
FFF07FFFE0FFFFFFF8
FFF07FFFE0FFFFFFF8
FFF07FFFE0FFFFFFF8
FFF07FFFE0FFFFFFF8
7FE07FFFC0FFFFFFF8
3FC03FFFC0FFFFFFF8
1F803FFF807FFFFFF8
00001FFF807FFFFFF0
00000FFE003FFFFFF0
000003F8003FFFFFE0
00000000001FFFFFC0
00000000000FFFFFC0
000000000007FFFF00
000000000003FFFE00
000000000000FFF800
0000000000003FE000
ENDCHAR

STARTCHAR c
ENCODING 99
SWIDTH 556 0
DWIDTH 36 0
BBX 23 46 0 0
BITMAP
F00000
FE0000
FFC000
FFE000
FFF800
FFFC00
FFFE00
FFFF00
FFFF80
FFFFC0
FFFFE0
FFFFE0
FFFFF0
FFFFF0
FFFFF8
FFFFF8
FFFFFC
FFFFFC
FFFFFC
FFFFFE
FFFFFE
FFFFFE
FFFFFE
FFFFFE
FFFFFE
FFFFFE
FFFFFE
FFFFFC
FFFFFC
FFFFFC
FFFFF8
FFFFF8
FFFFF0
FFFFF0
FFFFE0
FFFFC0
FFFFC0
FFFF80
FFFF00
FFFE00
FFFC00
FFF800
FFE000
FFC000
FF0000
F80000
ENDCHAR

STARTCHAR d
ENCODING 100
SWIDTH 616 0
DWIDTH 39 0
BBX 26 49 3 1
BITMAP
80000000
30000000
0C000000
03800000
00E00000
00780000
001C0000
000F0000
0007C000
0003E000
0001F000
0000F800
00007800
00003C00
00003E00
00001E00
00001F00
00000F00
00000F80
00000F80
00000F80
00000F80
00000F80
00000FC0
00001FC0
00001F80
00003F80
00003F80
00007F80
00007F80
0000FF80
0001FF00
0003FF00
0007FF00
000FFE00
001FFE00
007FFC00
01FFF800
07FFF800
7FFFF000
7FFFE000
7FFFC000
7FFF8000
7FFF0000
7FFE0000
7FF80000
7FE00000
7F800000
7C000000
ENDCHAR

STARTCHAR e
ENCODING 101
SWIDTH 956 0
DWIDTH 61 0
BBX 49 47 1 0
BITMAP
00000E00000000
00000380000000
000000E0000000
00000038000000
0000000E000000
00000007800000
00000001E00000
00000000700000
000000001C0000
00000000070000
0000000001C000
0000000000F000
00000000003C00
00000000000F00
00000000000380
00000000000780
00000000000F00
00000000001E00
00000000007C00
0000000000F800
0000000003F000
0000000007E000
000000001FC000
000000003F8000
00000000FF8000
00000001FF0000
00000007FE0000
0000000FFC0000
0000003FF80000
0000007FF00000
000000FFE00000
000003FFC00000
000007FF800000
00001FFF000000
00003FFE000000
0000FFFC000000
0001FFFC000000
0007FFF8000000
000FFFF0000000
003FFFE0000000
007FFFC0000000
01FFFF80000000
03FFFF00000000
07FFFE00000000
1FFFFC00000000
3FFFF800000000
FFFFF000000000
ENDCHAR

STARTCHAR f
ENCODING 102
SWIDTH 932 0
DWIDTH 60 0
BBX 47 48 3 0
BITMAP
000003000000
000003000000
000007800000
000007800000
00000FC00000
00000FC00000
00001FE00000
00001FE00000
00003FF00000
00003FF00000
00007FF80000
00007F380000
0000FF3C0000
0000FF1C0000
0000FE1E0000
0001FE0E0000
0001FE0F0000
0003FC070000
0003FC078000
0007FC038000
0007FC03C000
000FF801C000
000FF801E000
001FF800E000
001FF000F000
003FF0007000
003FF0007800
007FE0003800
007FE0003C00
00FFE0001C00
00FFC0001E00
01FFC0000E00
01FFC0000F00
03FF80000700
03FF80000780
07FF80000380
07FF800003C0
07FF000001C0
0FFF000001E0
0FFF000000E0
1FFE000000F0
1FFE00000070
3FFE00000078
3FFC00000038
7FFC0000003C
7FFC0000001C
FFF80000001E
FFFFFFFFFFFE
ENDCHAR

STARTCHAR g
ENCODING 103
SWIDTH 956 0
DWIDTH 61 0
BBX 50 35 4 6
BITMAP
000000C0000000
000001C0000000
000001E0000000
000003F0000000
000007F8000000
000007F8000000
00000FFC000000
00001FFE000000
00003FFF000000
00003FFF000000
00007FFF800000
0000FFFFC00000
0000FFFFC00000
0001FFFFE00000
0003FFFFF00000
0007FFFFF80000
0007FFFFF80000
000FFFFFFC0000
001FFFFFFE0000
001FFFFFFE0000
003FFFFFFF0000
007FFFFFFF8000
00FFFFFFFFC000
00FFFFFFFFC000
01FFFFFFFFE000
03FFFFFFFFF000
03FFFFFFFFF000
07FFFFFFFFF800
0FFFFFFFFFFC00
1FFFFFFFFFFE00
1FFFFFFFFFFE00
3FFFFFFFFFFF00
7FFFFFFFFFFF80
7FFFFFFFFFFFC0
FFFFFFFFFFFFC0
ENDCHAR

STARTCHAR h
ENCODING 104
SWIDTH 620 0
DWIDTH 40 0
BBX 30 42 3 4
BITMAP
00010000
00038000
0007C000
000FE000
000FE000
001FF000
003FF800
007FFC00
00FFFC00
00FFFE00
01FFFF00
03FFFF80
07FFFF80
0FFFFFC0
0FFFFFE0
1FFFFFE0
3FFFFFF0
7FFFFFF8
FFFFFFFC
FFFFFFFC
FFFFFFFC
7FFFFFF8
3FFFFFF8
3FFFFFF0
1FFFFFE0
0FFFFFE0
0FFFFFC0
07FFFFC0
03FFFF80
03FFFF00
01FFFF00
00FFFE00
007FFC00
007FFC00
003FF800
001FF000
001FF000
000FE000
0007C000
0007C000
00038000
00018000
ENDCHAR

STARTCHAR i
ENCODING 105
SWIDTH 620 0
DWIDTH 40 0
BBX 30 42 3 4
BITMAP
00010000
00038000
0007C000
000FE000
000FE000
001F7000
003F3800
007E1C00
00FE1C00
00FC0E00
01FC0700
03F80780
07F80380
0FF001C0
0FF000E0
1FE000E0
3FE00070
7FE00038
FFC0001C
FFC0001C
FFC0001C
7FC00038
3FE00038
3FE00070
1FE00060
0FF000E0
0FF001C0
07F801C0
03F80380
03F80700
01FC0700
00FC0E00
007E1C00
007E1C00
003E3800
001F7000
001F7000
000FE000
0007C000
0007C000
00038000
00018000
ENDCHAR

STARTCHAR j
ENCODING 106
SWIDTH 1023 0
DWIDTH 65 0
BBX 59 34 4 8
BITMAP
0000000E00000000
0000003F00000000
000000FFC0000000
000001FFF0000000
000007FFF8000000
00001FFFFE000000
00007FFFFF800000
0001FFFFFFC00000
0001FFFFFFF00000
000FFFFFFFF80000
003FFFFFFFFE0000
007FFFFFFFFF8000
01FFFFFFFFFFC000
07FFFFFFFFFFF000
1FFFFFFFFFFFFC00
7FFFFFFFFFFFFE00
FFFFFFFFFFFFFF80
7FFFFFFFFFFFFFE0
1FFFFFFFFFFFFF80
0FFFFFFFFFFFFE00
03FFFFFFFFFFF800
00FFFFFFFFFFE000
007FFFFFFFFFC000
001FFFFFFFFF0000
0007FFFFFFFC0000
0003FFFFFFF00000
0000FFFFFFE00000
00007FFFFF800000
00001FFFFE000000
000007FFF8000000
000003FFF0000000
000000FFC0000000
0000003F00000000
0000001C00000000
ENDCHAR

STARTCHAR k
ENCODING 107
SWIDTH 930 0
DWIDTH 60 0
BBX 54 51 3 0
BITMAP
00000020000000
00000020000000
00000020000000
00000020000000
00000020000000
00000030000000
00000030000000
00000070000000
00000070000000
00000070000000
000000F8000000
000000F8000000
000001FC000000
000001FC000000
000003FE000000
000003FE000000
000007FF000000
00000FFF800000
00001FFFC00000
00003FFFE00000
00007FFFF00000
0001FFFFFC0000
0003FFFFFF0000
000FFFFFFFC000
00FFFFFFFFF800
FFFFFFFFFFFFFC
00FFFFFFFFF000
001FFFFFFF8000
0007FFFFFE0000
0001FFFFF80000
0000FFFFF00000
00007FFFE00000
00003FFFC00000
00001FFF800000
00000FFF800000
000007FF000000
000003FE000000
000003FE000000
000001FC000000
000001FC000000
000000F8000000
000000F8000000
00000078000000
00000070000000
00000070000000
00000070000000
00000030000000
00000030000000
00000020000000
00000020000000
00000020000000
ENDCHAR

STARTCHAR l
ENCODING 108
SWIDTH 548 0
DWIDTH 35 0
BBX 20 46 3 0
BITMAP
C00000
E00000
F00000
F80000
F80000
FC0000
FE0000
FF0000
FF8000
FFC000
FFE000
FFF000
FFF800
FFFC00
FFFE00
FFFF00
FFFF00
FFFF80
FFFFC0
FFFFE0
FFFFF0
FFFFF0
FFFFF0
FFFFE0
FFFFC0
FFFF80
FFFF00
FFFF00
FFFE00
FFFC00
FFF800
FFF800
FFF000
FFE000
FFC000
FFC000
FF8000
FF0000
FE0000
FC0000
FC0000
F80000
F00000
E00000
E00000
C00000
ENDCHAR

STARTCHAR m
ENCODING 109
SWIDTH 896 0
DWIDTH 57 0
BBX 45 16 5 13
BITMAP
FFFFFFFFFFF8
FFFFFFFFFFC0
7FFFFFFFFF00
7FFFFFFFFC00
3FFFFFFFE000
1FFFFFFF8000
1FFFFFFE0000
0FFFFFF00000
0FFFFFC00000
07FFFF000000
03FFF8000000
03FFE0000000
01FF80000000
01FE00000000
00F000000000
00C000000000
ENDCHAR

STARTCHAR n
ENCODING 110
SWIDTH 1000 0
DWIDTH 64 0
BBX 57 27 2 10
BITMAP
8000000000000000
7800000000000000
0F80000000000000
01F8000000000000
007FC00000000000
000FFC0000000000
0003FFC000000000
00007FFE00000000
00001FFFE0000000
000007FFFE000000
000000FFFFF00000
0000003FFFFF0000
00000007FFFFF000
00000001FFFFFF80
000000007FFFFE00
000000000FFFF000
0000000003FF8000
0000000007FC0000
000000001FE00000
000000007F000000
00000003F8000000
0000000F80000000
0000003C00000000
000000E000000000
0000070000000000
0000180000000000
0000600000000000
ENDCHAR

STARTCHAR o
ENCODING 111
SWIDTH 1000 0
DWIDTH 64 0
BBX 62 19 0 14
BITMAP
0000000060000000
0000000070000000
000000007C000000
000000007E000000
000000007F800000
000000007FC00000
000000007FF00000
000000007FF80000
000000007FFE0000
FFFFFFFFFFFF0000
FFFFFFFFFFFFC000
FFFFFFFFFFFFE000
FFFFFFFFFFFFF800
FFFFFFFFFFFFFC00
FFFFFFFFFFFFFF00
FFFFFFFFFFFFFF80
FFFFFFFFFFFFFFE0
FFFFFFFFFFFFFFF0
FFFFFFFFFFFFFFFC
ENDCHAR

STARTCHAR p
ENCODING 112
SWIDTH 1096 0
DWIDTH 70 0
BBX 62 19 1 12
BITMAP
0007FFFFFFFFFFFC
0007FFFFFFFFFFFC
000FFFFFFFFFFFF8
001FFFFFFFFFFFF0
003FFFFFFFFFFFF0
003FFFFFFFFFFFE0
007FFFFFFFFFFFC0
00FFFFFFFFFFFFC0
01FFFFFFFFFFFF80
01FFFFFFFFFFFF00
03FFFFFFFFFFFF00
07FFFFFFFFFFFE00
0FFFFFFFFFFFFC00
0FFFFFFFFFFFF800
1FFFFFFFFFFFF800
3FFFFFFFFFFFF000
7FFFFFFFFFFFE000
7FFFFFFFFFFFE000
FFFFFFFFFFFFC000
ENDCHAR

STARTCHAR q
ENCODING 113
SWIDTH 704 0
DWIDTH 45 0
BBX 38 51 0 0
BITMAP
000007FFEC
000007FFE8
00000FFFC8
00000FFFD0
00000FFF90
00001FFFB0
00001FFF20
00003FFF60
00003FFF40
00007FFE40
00007FFE80
00007FFC80
0000FFFD80
0000FFFD00
0001FFF900
0001FFFA00
0001FFF200
0003FFF600
0003FFF400
0007FFEC00
0007FFE800
0007FFC800
000FFFD800
000FFFD000
001FFFB000
001FFFA000
003FFF2000
003FFF6000
003FFE4000
007FFEC000
007FFE8000
00FFFD8000
00FFFD0000
00FFF90000
01FFFB0000
01FFFA0000
03FFF60000
03FFF40000
07FFE40000
07FFEC0000
07FFE80000
0FFFD80000
0FFFD00000
1FFFB00000
1FFFB00000
1FFFA00000
3FFF600000
3FFF400000
7FFEC00000
7FFE800000
FFFD800000
ENDCHAR

STARTCHAR r
ENCODING 114
SWIDTH 1036 0
DWIDTH 66 0
BBX 62 51 0 0
BITMAP
000000000000007C
00000000000000F8
00000000000000F8
00000000000001F0
00000000000001F0
00000000000003F0
00000000000003E0
00000000000007E0
00000000000007E0
0000000000000FC0
0000000000000FC0
0000000000001F80
0000000000001F80
0000000000003F80
0000000000003F00
0000000000007F00
0000000000007F00
000000000000FE00
000000000000FE00
000000000001FC00
000000000001FC00
000000000003FC00
000000000007F800
000000000007F800
00000000000FF800
00000000000FF000
00000000001FF000
00000000001FF000
00000000003FE000
00000000003FE000
00000000007FC000
00000000007FC000
0000000000FFC000
0000000000FF8000
0000000001FF8000
0000000001FF8000
0000000003FF0000
0000000003FF0000
0000000007FE0000
0000000007FE0000
000000000FFE0000
000000000FFC0000
000000001FFC0000
000000001FFC0000
00FFFFFFFFF80000
01FFFFFFFFF80000
03FFFFFFFFF00000
0FFFFFFFFFF00000
1FFFFFFFFFF00000
7FFFFFFFFFE00000
FFFFFFFFFFE00000
ENDCHAR

STARTCHAR s
ENCODING 115
SWIDTH 1264 0
DWIDTH 81 0
BBX 68 49 3 0
BITMAP
000000000000000010
000000000000000030
000000000000000030
000000000000000070
000000000000000070
0000000000000000F0
0000000000000000F0
0000000000000001F0
0000000000000001F0
0000000000000003F0
0000000000000003F0
0000000000000007F0
0000000000000007F0
000000000000000FF0
000000000000000FF0
000000000000001FF0
000000000000001FF0
000000000000003FF0
000000000000007FF0
00000000000000FFF0
00000000000001FFF0
00000000000003FFF0
00000000000007FFF0
0000000000000FFFF0
0000000000001FFFF0
0000000000003FFFF0
0000000000007FFFF0
000000000000FFFFF0
000000000001FFFFF0
000000000003FFFFF0
000000000007FFFFF0
00000000000FFFFFF0
00000000001FFFFFF0
00000000007FFFFFF0
0000000000FFFFFFF0
0000000001FFFFFFF0
0000000007FFFFFFF0
000000000FFFFFFFF0
000000003FFFFFFFF0
00000000FFFFFFFFF0
00000003FFFFFFFFF0
0000000FFFFFFFFFF0
0000003FFFFFFFFFF0
000001FFFFFFFFFFF0
00000FFFFFFFFFFFF0
0000FFFFFFFFFFFFF0
001FFFFFFFFFFFFFF0
01FFFFFFFFFFFFFFF0
FFFFFFFFFFFFFFFFF0
ENDCHAR

STARTCHAR t
ENCODING 116
SWIDTH 884 0
DWIDTH 57 0
BBX 38 32 3 6
BITMAP
FFFFFFFF00
8000000180
80000001C0
80000001E0
80000001F0
80000001F8
80000001FC
80000001FC
80000001FC
80000001FC
80000001FC
80000001FC
80000001FC
80000001FC
80000001FC
80000001FC
80000001FC
80000001FC
80000001FC
80000001FC
80000001FC
80000001FC
80000001FC
80000001FC
80000001FC
80000001FC
7FFFFFFFFC
3FFFFFFFFC
0FFFFFFFFC
07FFFFFFFC
03FFFFFFFC
01FFFFFFFC
ENDCHAR

STARTCHAR u
ENCODING 117
SWIDTH 844 0
DWIDTH 54 0
BBX 34 30 4 10
BITMAP
FFFFFFFFC0
FFFFFFFFC0
FFFFFFFFC0
FFFFFFFFC0
FFFFFFFFC0
FFFFFFFFC0
FFFFFFFFC0
FFFFFFFFC0
FFFFFFFFC0
FFFFFFFFC0
FFFFFFFFC0
FFFFFFFFC0
FFFFFFFFC0
FFFFFFFFC0
FFFFFFFFC0
FFFFFFFFC0
FFFFFFFFC0
FFFFFFFFC0
FFFFFFFFC0
FFFFFFFFC0
FFFFFFFFC0
FFFFFFFFC0
FFFFFFFFC0
FFFFFFFFC0
FFFFFFFFC0
FFFFFFFFC0
FFFFFFFFC0
FFFFFFFFC0
FFFFFFFFC0
FFFFFFFFC0
ENDCHAR

STARTCHAR v
ENCODING 118
SWIDTH 1176 0
DWIDTH 75 0
BBX 58 25 3 10
BITMAP
FFFFFFFFFFFFFFC0
FFFFFFFFFFFFFFC0
FFFFFFFFFFFFFFC0
FFFFFFFFFFFFFFC0
FFFFFFFFFFFFFFC0
FFFFFFFFFFFFFFC0
FFFFFFFFFFFFFFC0
FFFFFFFFFFFFFFC0
FFFFFFFFFFFFFFC0
FFFFFFFFFFFFFFC0
FFFFFFFFFFFFFFC0
FFFFFFFFFFFFFFC0
FFFFFFFFFFFFFFC0
FFFFFFFFFFFFFFC0
FFFFFFFFFFFFFFC0
FFFFFFFFFFFFFFC0
FFFFFFFFFFFFFFC0
FFFFFFFFFFFFFFC0
FFFFFFFFFFFFFFC0
FFFFFFFFFFFFFFC0
FFFFFFFFFFFFFFC0
FFFFFFFFFFFFFFC0
FFFFFFFFFFFFFFC0
FFFFFFFFFFFFFFC0
FFFFFFFFFFFFFFC0
ENDCHAR

STARTCHAR w
ENCODING 119
SWIDTH 1252 0
DWIDTH 80 0
BBX 64 29 0 7
BITMAP
FFFFFFFFCFFCFCF3
FFFFFFFFCFFCFCF3
FFFFFFFFCFFCFCF3
FFFFFFFFCFFCFCF3
FFFFFFFFCFFCFCF3
FFFFFFFFCFFCFCF3
FFFFFFFFCFFCFCF3
FFFFFFFFCFFCFCF3
FFFFFFFFCFFCFCF3
FFFFFFFFCFFCFCF3
FFFFFFFFCFFCFCF3
FFFFFFFFCFFCFCF3
FFFFFFFFCFFCFCF3
FFFFFFFFCFFCFCF3
FFFFFFFFCFFCFCF3
FFFFFFFFCFFCFCF3
FFFFFFFFCFFCFCF3
FFFFFFFFCFFCFCF3
FFFFFFFFCFFCFCF3
FFFFFFFFCFFCFCF3
FFFFFFFFCFFCFCF3
FFFFFFFFCFFCFCF3
FFFFFFFFCFFCFCF3
FFFFFFFFCFFCFCF3
FFFFFFFFCFFCFCF3
FFFFFFFFCFFCFCF3
FFFFFFFFCFFCFCF3
FFFFFFFFCFFCFCF3
FFFFFFFFCFFCFCF3
ENDCHAR

STARTCHAR x
ENCODING 120
SWIDTH 1244 0
DWIDTH 80 0
BBX 67 49 0 -3
BITMAP
000000000000100000
000000000000100000
000000000000100000
000000000000180000
0000000000001C0000
0000000000001C0000
0000000000001E0000
0000000000001F0000
0000000000001F0000
CF3F3FF3FFFFFF8000
CF3F3FF3FFFFFFC000
CF3F3FF3FFFFFFC000
CF3F3FF3FFFFFFE000
CF3F3FF3FFFFFFF000
CF3F3FF3FFFFFFF800
CF3F3FF3FFFFFFF800
CF3F3FF3FFFFFFFC00
CF3F3FF3FFFFFFFE00
CF3F3FF3FFFFFFFE00
CF3F3FF3FFFFFFFF00
CF3F3FF3FFFFFFFF80
CF3F3FF3FFFFFFFF80
CF3F3FF3FFFFFFFFC0
CF3F3FF3FFFFFFFFE0
CF3F3FF3FFFFFFFFE0
CF3F3FF3FFFFFFFFE0
CF3F3FF3FFFFFFFFC0
CF3F3FF3FFFFFFFFC0
CF3F3FF3FFFFFFFF80
CF3F3FF3FFFFFFFF00
CF3F3FF3FFFFFFFF00
CF3F3FF3FFFFFFFE00
CF3F3FF3FFFFFFFC00
CF3F3FF3FFFFFFF800
CF3F3FF3FFFFFFF800
CF3F3FF3FFFFFFF000
CF3F3FF3FFFFFFE000
CF3F3FF3FFFFFFE000
CF3F3FF3FFFFFFC000
0000000000001F8000
0000000000001F8000
0000000000001F0000
0000000000001E0000
0000000000001C0000
0000000000001C0000
000000000000180000
000000000000100000
000000000000100000
000000000000100000
ENDCHAR

STARTCHAR y
ENCODING 121
SWIDTH 864 0
DWIDTH 55 0
BBX 41 28 0 8
BITMAP
FFFFFFFFFC80
8003FFFFFC80
8003FFFFFC80
8003FFFFFC80
8003FFFFFC80
8003FFFFFC80
8003FFFFFC80
8003FFFFFC80
8003FFFFFC80
8003FFFFFC80
8003FFFFFC80
8003FFFFFC80
8003FFFFFC80
8003FFFFFC80
8003FFFFFC80
8003FFFFFC80
8003FFFFFC80
8003FFFFFC80
8003FFFFFC80
8003FFFFFC80
8003FFFFFC80
8003FFFFFC80
8003FFFFFC80
8003FFFFFC80
8003FFFFFC80
8003FFFFFC80
8003FFFFFC80
FFFFFFFFFC80
ENDCHAR

STARTCHAR z
ENCODING 122
SWIDTH 704 0
DWIDTH 45 0
BBX 31 28 0 8
BITMAP
FFFFFFFE
80000002
80000002
80000002
80000002
80000002
80000002
80000002
80000002
80000002
80000002
80000002
80000002
80000002
80000002
80000002
80000002
80000002
80000002
80000002
80000002
80000002
80000002
80000002
80000002
80000002
80000002
FFFFFFFE
ENDCHAR

ENDFONT
