STARTFONT 2.1
FONT -Adobe-ITC Souvenir-Light-I-Normal--20-140-100-100-P-104-ISO8859-1
SIZE 14 100 100
FONTBOUNDINGBOX 27 22 -3 -4

STARTPROPERTIES 30
FOUNDRY "Adobe"
FAMILY_NAME "ITC Souvenir"
WEIGHT_NAME "Light"
SLANT "I"
SETWIDTH_NAME "Normal"
ADD_STYLE_NAME ""
PIXEL_SIZE 20
POINT_SIZE 140
RESOLUTION_X 100
RESOLUTION_Y 100
SPACING "P"
AVERAGE_WIDTH 104
CHARSET_REGISTRY "ISO8859"
CHARSET_ENCODING "1"
CAP_HEIGHT 14
X_HEIGHT 9
FACE_NAME "ITC Souvenir Light Italic"
COPYRIGHT "Copyright (c) 1984, 1987 Adobe Systems Incorporated. All Rights Reserved. Copyright (c) 1988, 1991 Digital Equipment Corporation. All Rights Reserved."
NOTICE "ITC Souvenir is a registered trademark of International Typeface Corporation.  "
_DEC_DEVICE_FONTNAMES "PS=Souvenir-LightItalic"
_DEC_PRODUCTINFO "DECwindows Fonts V2.2, 07-Nov-1991"
RELATIVE_SETWIDTH 50
RELATIVE_WEIGHT 30
CHARSET_COLLECTIONS "ASCII ISO8859-1 ADOBE-STANDARD"
FULL_NAME "ITC Souvenir Light Italic"
WEIGHT 10
QUAD_WIDTH 12
DEFAULT_CHAR 32
FONT_DESCENT 4
FONT_ASCENT 16
ENDPROPERTIES

CHARS 191

STARTCHAR space
ENCODING 32
SWIDTH 300 0
DWIDTH 6 0
BBX 1 1 0 0
BITMAP
00
ENDCHAR

STARTCHAR exclam
ENCODING 33
SWIDTH 300 0
DWIDTH 6 0
BBX 4 14 1 0
BITMAP
30
30
30
30
20
60
60
60
60
40
40
00
C0
C0
ENDCHAR

STARTCHAR quotedbl
ENCODING 34
SWIDTH 360 0
DWIDTH 7 0
BBX 5 5 2 9
BITMAP
48
48
90
90
90
ENDCHAR

STARTCHAR numbersign
ENCODING 35
SWIDTH 600 0
DWIDTH 11 0
BBX 9 14 1 0
BITMAP
0880
0880
1100
1100
7F80
1100
2200
2200
FF00
4400
4400
8800
8800
8800
ENDCHAR

STARTCHAR dollar
ENCODING 36
SWIDTH 600 0
DWIDTH 11 0
BBX 9 17 1 -2
BITMAP
0200
0200
0F00
1980
3180
3000
3800
1C00
0E00
0700
0300
C300
C300
6600
3C00
1000
1000
ENDCHAR

STARTCHAR percent
ENCODING 37
SWIDTH 900 0
DWIDTH 17 0
BBX 15 14 1 0
BITMAP
3810
6430
4620
C640
C640
C480
4DB8
3964
0246
06C6
04C6
08C4
184C
1038
ENDCHAR

STARTCHAR ampersand
ENCODING 38
SWIDTH 820 0
DWIDTH 15 0
BBX 14 14 1 0
BITMAP
0780
0EC0
1860
1860
18C0
0D80
0E3C
3E18
6310
C130
C1A0
C0C0
E3E0
7E38
ENDCHAR

STARTCHAR quoteright
ENCODING 39
SWIDTH 300 0
DWIDTH 6 0
BBX 2 4 4 10
BITMAP
C0
C0
40
80
ENDCHAR

STARTCHAR parenleft
ENCODING 40
SWIDTH 260 0
DWIDTH 6 0
BBX 5 17 1 -3
BITMAP
08
10
30
20
60
40
40
C0
C0
C0
C0
C0
40
40
60
20
20
ENDCHAR

STARTCHAR parenright
ENCODING 41
SWIDTH 260 0
DWIDTH 6 0
BBX 5 17 0 -3
BITMAP
20
20
10
10
18
18
18
18
18
10
30
30
30
20
40
40
80
ENDCHAR

STARTCHAR asterisk
ENCODING 42
SWIDTH 540 0
DWIDTH 10 0
BBX 7 7 2 7
BITMAP
18
52
D6
38
D6
94
30
ENDCHAR

STARTCHAR plus
ENCODING 43
SWIDTH 660 0
DWIDTH 11 0
BBX 11 11 0 0
BITMAP
0400
0400
0400
0400
0400
FFE0
0400
0400
0400
0400
0400
ENDCHAR

STARTCHAR comma
ENCODING 44
SWIDTH 300 0
DWIDTH 6 0
BBX 3 4 1 -2
BITMAP
60
60
20
C0
ENDCHAR

STARTCHAR minus
ENCODING 45
SWIDTH 660 0
DWIDTH 11 0
BBX 10 1 0 5
BITMAP
FFC0
ENDCHAR

STARTCHAR period
ENCODING 46
SWIDTH 300 0
DWIDTH 6 0
BBX 2 2 2 0
BITMAP
C0
C0
ENDCHAR

STARTCHAR slash
ENCODING 47
SWIDTH 220 0
DWIDTH 5 0
BBX 9 17 -2 -3
BITMAP
0080
0180
0100
0300
0200
0600
0400
0C00
0800
1800
1000
3000
2000
6000
4000
C000
8000
ENDCHAR

STARTCHAR zero
ENCODING 48
SWIDTH 600 0
DWIDTH 11 0
BBX 10 14 1 0
BITMAP
0F00
1980
3080
20C0
60C0
60C0
40C0
C080
C180
C180
C100
4300
6600
3C00
ENDCHAR

STARTCHAR one
ENCODING 49
SWIDTH 600 0
DWIDTH 11 0
BBX 7 14 2 0
BITMAP
02
0E
3C
0C
0C
0C
08
18
18
18
18
30
30
FC
ENDCHAR

STARTCHAR two
ENCODING 50
SWIDTH 600 0
DWIDTH 11 0
BBX 10 14 1 0
BITMAP
0F00
3180
60C0
60C0
60C0
0180
0300
0600
1C00
3000
6000
4080
FF80
FF00
ENDCHAR

STARTCHAR three
ENCODING 51
SWIDTH 600 0
DWIDTH 11 0
BBX 10 14 1 0
BITMAP
0F00
1980
30C0
30C0
00C0
0180
0E00
0300
0180
0180
C180
C180
6300
3E00
ENDCHAR

STARTCHAR four
ENCODING 52
SWIDTH 600 0
DWIDTH 11 0
BBX 10 14 1 0
BITMAP
00C0
03C0
06C0
0C80
1880
3180
6180
4100
C300
FFC0
0300
0200
0600
0F00
ENDCHAR

STARTCHAR five
ENCODING 53
SWIDTH 600 0
DWIDTH 11 0
BBX 10 14 1 0
BITMAP
1FC0
1F00
1000
1000
3000
3E00
3300
2180
0180
0180
C180
C100
6300
3C00
ENDCHAR

STARTCHAR six
ENCODING 54
SWIDTH 600 0
DWIDTH 11 0
BBX 9 14 1 0
BITMAP
0380
0E00
1800
3000
2000
6E00
7300
E180
C180
C180
C180
C300
6600
3C00
ENDCHAR

STARTCHAR seven
ENCODING 55
SWIDTH 600 0
DWIDTH 11 0
BBX 9 14 2 0
BITMAP
FF80
FF00
8300
0200
0600
0400
0C00
0800
1800
3000
3000
6000
6000
C000
ENDCHAR

STARTCHAR eight
ENCODING 56
SWIDTH 600 0
DWIDTH 11 0
BBX 10 14 0 0
BITMAP
0F80
18C0
3040
3040
30C0
1980
0E00
3F00
6180
C0C0
C0C0
C0C0
6180
3E00
ENDCHAR

STARTCHAR nine
ENCODING 57
SWIDTH 600 0
DWIDTH 11 0
BBX 10 14 1 0
BITMAP
1F00
3180
6080
40C0
C0C0
C0C0
C1C0
6780
3D80
0100
0300
0600
1C00
F000
ENDCHAR

STARTCHAR colon
ENCODING 58
SWIDTH 300 0
DWIDTH 6 0
BBX 3 7 2 0
BITMAP
60
60
00
00
00
C0
C0
ENDCHAR

STARTCHAR semicolon
ENCODING 59
SWIDTH 300 0
DWIDTH 6 0
BBX 4 9 1 -2
BITMAP
30
30
00
00
00
60
60
20
C0
ENDCHAR

STARTCHAR less
ENCODING 60
SWIDTH 660 0
DWIDTH 12 0
BBX 10 11 1 0
BITMAP
0040
01C0
0700
1C00
7000
C000
7000
1C00
0600
0380
0080
ENDCHAR

STARTCHAR equal
ENCODING 61
SWIDTH 660 0
DWIDTH 11 0
BBX 10 4 0 3
BITMAP
FFC0
0000
0000
FFC0
ENDCHAR

STARTCHAR greater
ENCODING 62
SWIDTH 660 0
DWIDTH 12 0
BBX 10 11 1 0
BITMAP
4000
7000
1800
0E00
0380
00C0
0380
0E00
3800
E000
8000
ENDCHAR

STARTCHAR question
ENCODING 63
SWIDTH 420 0
DWIDTH 8 0
BBX 8 14 1 0
BITMAP
3C
C6
C3
03
03
06
1C
30
20
40
40
00
C0
C0
ENDCHAR

STARTCHAR at
ENCODING 64
SWIDTH 820 0
DWIDTH 16 0
BBX 14 14 1 0
BITMAP
07C0
1C70
3018
6348
44CC
CC44
8844
88CC
8888
CDD8
4770
6000
3860
0FC0
ENDCHAR

STARTCHAR A
ENCODING 65
SWIDTH 740 0
DWIDTH 14 0
BBX 14 14 -1 0
BITMAP
0040
00C0
01E0
0360
0220
0630
0C30
0830
1FF0
3018
3018
6018
6018
F03C
ENDCHAR

STARTCHAR B
ENCODING 66
SWIDTH 680 0
DWIDTH 13 0
BBX 12 14 0 0
BITMAP
3FE0
1870
1830
1830
1030
3060
3380
3C60
3030
2030
6030
6030
6060
FF80
ENDCHAR

STARTCHAR C
ENCODING 67
SWIDTH 720 0
DWIDTH 14 0
BBX 13 14 1 0
BITMAP
07E0
1C38
3018
6008
6000
C000
C000
C000
C000
C000
C000
6020
78E0
1F80
ENDCHAR

STARTCHAR D
ENCODING 68
SWIDTH 760 0
DWIDTH 14 0
BBX 14 14 0 0
BITMAP
3FC0
1870
1818
1808
100C
300C
300C
300C
300C
2018
6018
6030
60E0
FF80
ENDCHAR

STARTCHAR E
ENCODING 69
SWIDTH 660 0
DWIDTH 12 0
BBX 12 14 0 0
BITMAP
3FF0
1830
1800
1800
1000
3080
3F80
3080
3000
2000
6000
6020
6060
FFC0
ENDCHAR

STARTCHAR F
ENCODING 70
SWIDTH 580 0
DWIDTH 11 0
BBX 12 14 0 0
BITMAP
3FF0
1830
1800
1800
1000
3080
3F80
3080
3000
2000
6000
6000
6000
F000
ENDCHAR

STARTCHAR G
ENCODING 71
SWIDTH 760 0
DWIDTH 15 0
BBX 13 14 1 0
BITMAP
07E0
1C38
3018
6008
6000
C000
C000
C0F8
C018
C010
C010
6030
7870
1FC0
ENDCHAR

STARTCHAR H
ENCODING 72
SWIDTH 820 0
DWIDTH 15 0
BBX 15 14 0 0
BITMAP
3C1E
180C
180C
180C
1008
3018
3FF8
3018
3018
2010
6030
6030
6030
F078
ENDCHAR

STARTCHAR I
ENCODING 73
SWIDTH 300 0
DWIDTH 6 0
BBX 6 14 0 0
BITMAP
3C
18
18
18
10
30
30
30
30
20
60
60
60
F0
ENDCHAR

STARTCHAR J
ENCODING 74
SWIDTH 500 0
DWIDTH 11 0
BBX 11 14 0 0
BITMAP
01E0
00C0
00C0
0080
0180
0180
0180
0180
0100
6300
A300
8300
C600
7C00
ENDCHAR

STARTCHAR K
ENCODING 75
SWIDTH 700 0
DWIDTH 13 0
BBX 14 14 0 0
BITMAP
3C3C
1818
1830
1860
10C0
3180
3300
3780
38C0
2040
6060
6060
6060
F0F0
ENDCHAR

STARTCHAR L
ENCODING 76
SWIDTH 640 0
DWIDTH 12 0
BBX 11 14 0 0
BITMAP
3C00
1800
1800
1800
3000
3000
3000
3000
3000
3000
6000
6020
60E0
FFC0
ENDCHAR

STARTCHAR M
ENCODING 77
SWIDTH 880 0
DWIDTH 17 0
BBX 17 14 0 0
BITMAP
3C0780
1C0700
140B00
160B00
361200
262600
232600
234600
234600
618400
418C00
410C00
400C00
E01E00
ENDCHAR

STARTCHAR N
ENCODING 78
SWIDTH 780 0
DWIDTH 15 0
BBX 15 14 0 0
BITMAP
380E
1C04
1604
1704
130C
3188
2188
20C8
2068
6068
4030
4030
4030
E010
ENDCHAR

STARTCHAR O
ENCODING 79
SWIDTH 780 0
DWIDTH 15 0
BBX 13 14 1 0
BITMAP
07C0
1870
3030
6018
6018
C018
C018
C018
C018
C030
C030
6060
70C0
1F00
ENDCHAR

STARTCHAR P
ENCODING 80
SWIDTH 640 0
DWIDTH 12 0
BBX 13 14 0 0
BITMAP
3FE0
1830
1818
1818
1018
3030
30E0
3F80
3000
2000
6000
6000
6000
F000
ENDCHAR

STARTCHAR Q
ENCODING 81
SWIDTH 780 0
DWIDTH 15 0
BBX 13 16 1 -2
BITMAP
07C0
1870
3030
6018
6018
C018
C018
C018
C018
C030
C430
6460
74C0
1F00
03C0
00C0
ENDCHAR

STARTCHAR R
ENCODING 82
SWIDTH 700 0
DWIDTH 13 0
BBX 13 14 0 0
BITMAP
3FE0
1830
1818
1818
1018
3030
30C0
3F80
30C0
2040
6060
6060
6060
F0F0
ENDCHAR

STARTCHAR S
ENCODING 83
SWIDTH 620 0
DWIDTH 12 0
BBX 11 14 0 0
BITMAP
0780
1CE0
3060
3020
3000
3800
1F00
07C0
00E0
4060
E060
C040
61C0
3F00
ENDCHAR

STARTCHAR T
ENCODING 84
SWIDTH 660 0
DWIDTH 12 0
BBX 12 14 1 0
BITMAP
7FE0
C630
8610
0600
0400
0C00
0C00
0C00
0C00
0800
1800
1800
1800
3C00
ENDCHAR

STARTCHAR U
ENCODING 85
SWIDTH 760 0
DWIDTH 15 0
BBX 14 14 1 0
BITMAP
783C
3018
3018
2018
6010
6030
6030
4030
C030
C020
C060
C060
71C0
3F80
ENDCHAR

STARTCHAR V
ENCODING 86
SWIDTH 700 0
DWIDTH 13 0
BBX 13 14 1 0
BITMAP
F038
6010
6030
6020
6020
6060
2040
30C0
3180
3100
1B00
1E00
0C00
0800
ENDCHAR

STARTCHAR W
ENCODING 87
SWIDTH 980 0
DWIDTH 18 0
BBX 18 14 1 0
BITMAP
F1E1C0
60C080
60C080
60C180
61C100
614100
614300
234200
326600
366400
346C00
383800
183000
102000
ENDCHAR

STARTCHAR X
ENCODING 88
SWIDTH 740 0
DWIDTH 14 0
BBX 15 14 0 0
BITMAP
3C1E
180C
1818
0C30
0C60
06C0
0380
0380
06C0
0C60
1860
3030
6030
F078
ENDCHAR

STARTCHAR Y
ENCODING 89
SWIDTH 740 0
DWIDTH 14 0
BBX 14 14 1 0
BITMAP
F03C
6018
6030
3020
3060
18C0
1D80
0F00
0600
0600
0400
0C00
0C00
1E00
ENDCHAR

STARTCHAR Z
ENCODING 90
SWIDTH 580 0
DWIDTH 11 0
BBX 11 14 0 0
BITMAP
1FE0
3860
2060
00C0
0180
0300
0600
0C00
1800
3000
6000
C040
C1C0
FF80
ENDCHAR

STARTCHAR bracketleft
ENCODING 91
SWIDTH 220 0
DWIDTH 5 0
BBX 7 17 -1 -3
BITMAP
1E
18
18
18
10
30
30
30
30
20
60
60
60
60
C0
C0
F0
ENDCHAR

STARTCHAR backslash
ENCODING 92
SWIDTH 600 0
DWIDTH 11 0
BBX 5 14 3 0
BITMAP
80
80
C0
40
40
60
20
20
30
10
10
18
08
08
ENDCHAR

STARTCHAR bracketright
ENCODING 93
SWIDTH 220 0
DWIDTH 5 0
BBX 6 17 -1 -3
BITMAP
1C
0C
0C
08
18
18
18
10
30
30
30
30
20
60
60
60
E0
ENDCHAR

STARTCHAR asciicircum
ENCODING 94
SWIDTH 660 0
DWIDTH 11 0
BBX 9 10 1 4
BITMAP
0800
1C00
1400
3600
2200
6300
4100
C180
8080
8080
ENDCHAR

STARTCHAR underscore
ENCODING 95
SWIDTH 500 0
DWIDTH 9 0
BBX 9 1 0 -3
BITMAP
FF80
ENDCHAR

STARTCHAR quoteleft
ENCODING 96
SWIDTH 300 0
DWIDTH 5 0
BBX 2 4 2 10
BITMAP
40
80
C0
C0
ENDCHAR

STARTCHAR a
ENCODING 97
SWIDTH 520 0
DWIDTH 10 0
BBX 9 9 0 0
BITMAP
1E80
3380
6180
4180
C100
C300
C300
6580
3D00
ENDCHAR

STARTCHAR b
ENCODING 98
SWIDTH 540 0
DWIDTH 10 0
BBX 9 14 0 0
BITMAP
3000
7000
3000
3000
3000
6700
6980
7180
6180
6180
C180
C300
E700
BC00
ENDCHAR

STARTCHAR c
ENCODING 99
SWIDTH 460 0
DWIDTH 9 0
BBX 8 9 0 0
BITMAP
1E
33
63
C0
C0
C0
C0
66
3C
ENDCHAR

STARTCHAR d
ENCODING 100
SWIDTH 580 0
DWIDTH 10 0
BBX 10 14 0 0
BITMAP
00C0
01C0
00C0
0080
0180
1D80
3780
6300
6300
C300
C300
C600
CB80
7300
ENDCHAR

STARTCHAR e
ENCODING 101
SWIDTH 500 0
DWIDTH 10 0
BBX 9 9 0 0
BITMAP
1E00
3380
6180
C700
FC00
C000
C180
E300
7C00
ENDCHAR

STARTCHAR f
ENCODING 102
SWIDTH 360 0
DWIDTH 6 0
BBX 9 18 -2 -4
BITMAP
0380
0680
0600
0600
0400
1F00
0400
0C00
0C00
0C00
0C00
0800
1800
1800
1800
1000
B000
E000
ENDCHAR

STARTCHAR g
ENCODING 103
SWIDTH 520 0
DWIDTH 9 0
BBX 10 12 -1 -3
BITMAP
1FC0
3100
2180
6180
6180
6180
6300
3C00
0600
6300
C300
7E00
ENDCHAR

STARTCHAR h
ENCODING 104
SWIDTH 580 0
DWIDTH 10 0
BBX 9 14 0 0
BITMAP
3000
7000
3000
3000
2000
6F00
7380
6180
6180
6180
4100
C300
C380
C300
ENDCHAR

STARTCHAR i
ENCODING 105
SWIDTH 280 0
DWIDTH 6 0
BBX 3 12 1 0
BITMAP
60
60
00
60
E0
60
60
40
C0
C0
E0
C0
ENDCHAR

STARTCHAR j
ENCODING 106
SWIDTH 260 0
DWIDTH 5 0
BBX 6 16 -2 -4
BITMAP
0C
0C
00
0C
3C
0C
08
18
18
18
18
10
10
30
E0
C0
ENDCHAR

STARTCHAR k
ENCODING 107
SWIDTH 560 0
DWIDTH 10 0
BBX 9 14 0 0
BITMAP
3000
7000
3000
3000
2000
6300
6780
6C00
6800
7800
4C00
CC00
C780
C300
ENDCHAR

STARTCHAR l
ENCODING 108
SWIDTH 300 0
DWIDTH 6 0
BBX 4 14 1 0
BITMAP
30
70
30
20
60
60
60
60
60
40
C0
C0
E0
C0
ENDCHAR

STARTCHAR m
ENCODING 109
SWIDTH 880 0
DWIDTH 15 0
BBX 13 9 0 0
BITMAP
4C70
F6B8
6318
6318
4210
C630
C630
C638
C630
ENDCHAR

STARTCHAR n
ENCODING 110
SWIDTH 600 0
DWIDTH 10 0
BBX 9 9 0 0
BITMAP
4F00
F380
6180
6180
6180
4100
C300
C380
C300
ENDCHAR

STARTCHAR o
ENCODING 111
SWIDTH 560 0
DWIDTH 11 0
BBX 10 9 0 0
BITMAP
0F00
3180
60C0
C0C0
C0C0
C0C0
C180
6300
3C00
ENDCHAR

STARTCHAR p
ENCODING 112
SWIDTH 580 0
DWIDTH 10 0
BBX 10 13 -1 -4
BITMAP
2700
6D80
38C0
30C0
30C0
30C0
3080
2380
2E00
6000
6000
6000
F000
ENDCHAR

STARTCHAR q
ENCODING 113
SWIDTH 560 0
DWIDTH 10 0
BBX 9 13 0 -4
BITMAP
1E80
3380
6180
C100
C300
C300
C300
6E00
3A00
0200
0600
0600
0F00
ENDCHAR

STARTCHAR r
ENCODING 114
SWIDTH 400 0
DWIDTH 7 0
BBX 7 9 0 0
BITMAP
6E
F6
60
60
40
40
C0
C0
C0
ENDCHAR

STARTCHAR s
ENCODING 115
SWIDTH 420 0
DWIDTH 9 0
BBX 8 9 0 0
BITMAP
1E
23
63
70
3C
0E
C6
C6
7C
ENDCHAR

STARTCHAR t
ENCODING 116
SWIDTH 360 0
DWIDTH 7 0
BBX 5 12 1 0
BITMAP
10
10
30
F8
60
60
60
40
C0
D0
F0
C0
ENDCHAR

STARTCHAR u
ENCODING 117
SWIDTH 580 0
DWIDTH 10 0
BBX 9 9 0 0
BITMAP
6180
E180
6180
4100
C300
C300
C700
EB80
7300
ENDCHAR

STARTCHAR v
ENCODING 118
SWIDTH 480 0
DWIDTH 9 0
BBX 8 9 0 0
BITMAP
66
E7
63
43
C2
C2
C6
EC
78
ENDCHAR

STARTCHAR w
ENCODING 119
SWIDTH 720 0
DWIDTH 13 0
BBX 12 9 0 0
BITMAP
6330
E330
4210
4210
C630
C620
CA60
FBC0
7180
ENDCHAR

STARTCHAR x
ENCODING 120
SWIDTH 540 0
DWIDTH 10 0
BBX 10 9 -1 0
BITMAP
31C0
7B80
1A00
0C00
0E00
0E00
1B00
E3C0
6180
ENDCHAR

STARTCHAR y
ENCODING 121
SWIDTH 500 0
DWIDTH 9 0
BBX 9 13 -1 -4
BITMAP
3100
7380
2180
2180
6100
6100
6200
3600
1C00
0400
1800
F000
6000
ENDCHAR

STARTCHAR z
ENCODING 122
SWIDTH 460 0
DWIDTH 9 0
BBX 8 9 0 0
BITMAP
3F
63
66
0C
18
30
61
E3
FE
ENDCHAR

STARTCHAR braceleft
ENCODING 123
SWIDTH 300 0
DWIDTH 7 0
BBX 7 17 0 -3
BITMAP
06
0C
18
18
18
10
30
30
E0
30
30
20
60
60
40
60
30
ENDCHAR

STARTCHAR bar
ENCODING 124
SWIDTH 660 0
DWIDTH 12 0
BBX 1 14 5 0
BITMAP
80
80
80
80
80
80
80
80
80
80
80
80
80
80
ENDCHAR

STARTCHAR braceright
ENCODING 125
SWIDTH 300 0
DWIDTH 7 0
BBX 7 17 -1 -3
BITMAP
18
04
06
06
06
04
0C
0C
06
0C
08
08
18
18
18
30
C0
ENDCHAR

STARTCHAR asciitilde
ENCODING 126
SWIDTH 660 0
DWIDTH 11 0
BBX 10 3 0 4
BITMAP
3840
4C80
8700
ENDCHAR

STARTCHAR space
ENCODING 160
SWIDTH 300 0
DWIDTH 6 0
BBX 1 1 0 0
BITMAP
00
ENDCHAR

STARTCHAR exclamdown
ENCODING 161
SWIDTH 300 0
DWIDTH 6 0
BBX 4 15 1 -4
BITMAP
30
30
00
20
20
20
60
60
60
60
40
C0
C0
C0
C0
ENDCHAR

STARTCHAR cent
ENCODING 162
SWIDTH 600 0
DWIDTH 11 0
BBX 8 13 2 0
BITMAP
04
04
1E
33
63
C0
C0
C0
C0
C6
7C
20
20
ENDCHAR

STARTCHAR sterling
ENCODING 163
SWIDTH 600 0
DWIDTH 11 0
BBX 10 14 0 0
BITMAP
0780
18C0
10C0
3000
3000
3000
3000
7E00
3000
3000
2000
6080
F980
9F00
ENDCHAR

STARTCHAR currency
ENCODING 164
SWIDTH 740 0
DWIDTH 11 0
BBX 10 10 0 2
BITMAP
8C40
FFC0
6180
4080
C0C0
C0C0
4080
6180
FFC0
8C40
ENDCHAR

STARTCHAR yen
ENCODING 165
SWIDTH 800 0
DWIDTH 11 0
BBX 12 14 0 0
BITMAP
F0F0
6060
60C0
3180
3180
1B00
1A00
3F80
0C00
7F80
0800
1800
1800
3C00
ENDCHAR

STARTCHAR brokenbar
ENCODING 166
SWIDTH 660 0
DWIDTH 12 0
BBX 1 14 5 0
BITMAP
80
80
80
80
80
00
00
00
80
80
80
80
80
80
ENDCHAR

STARTCHAR section
ENCODING 167
SWIDTH 560 0
DWIDTH 11 0
BBX 11 17 0 -3
BITMAP
0780
0CC0
1860
1840
1C00
0F00
3780
61C0
60C0
70C0
3D80
0F00
0600
C300
C300
6600
3C00
ENDCHAR

STARTCHAR dieresis
ENCODING 168
SWIDTH 360 0
DWIDTH 7 0
BBX 6 2 1 10
BITMAP
CC
CC
ENDCHAR

STARTCHAR copyright
ENCODING 169
SWIDTH 820 0
DWIDTH 16 0
BBX 14 14 1 0
BITMAP
0FC0
3870
6018
43C8
C44C
8C44
8804
8804
8844
CC8C
4788
6018
3870
0FC0
ENDCHAR

STARTCHAR ordfeminine
ENCODING 170
SWIDTH 400 0
DWIDTH 8 0
BBX 6 8 1 6
BITMAP
34
5C
88
88
D0
78
00
F8
ENDCHAR

STARTCHAR guillemotleft
ENCODING 171
SWIDTH 360 0
DWIDTH 7 0
BBX 7 7 0 1
BITMAP
12
24
6C
D8
D8
48
24
ENDCHAR

STARTCHAR logicalnot
ENCODING 172
SWIDTH 660 0
DWIDTH 12 0
BBX 10 6 1 1
BITMAP
FFC0
0040
0040
0040
0040
0040
ENDCHAR

STARTCHAR hyphen
ENCODING 173
SWIDTH 260 0
DWIDTH 5 0
BBX 4 1 0 5
BITMAP
F0
ENDCHAR

STARTCHAR registered
ENCODING 174
SWIDTH 820 0
DWIDTH 15 0
BBX 14 14 1 0
BITMAP
0FC0
3870
6018
4FC8
C66C
8464
8444
8F84
8884
C8CC
5868
6018
3870
0FC0
ENDCHAR

STARTCHAR macron
ENCODING 175
SWIDTH 300 0
DWIDTH 6 0
BBX 5 1 1 10
BITMAP
F8
ENDCHAR

STARTCHAR degree
ENCODING 176
SWIDTH 400 0
DWIDTH 7 0
BBX 6 6 1 8
BITMAP
78
CC
84
84
CC
78
ENDCHAR

STARTCHAR plusminus
ENCODING 177
SWIDTH 660 0
DWIDTH 11 0
BBX 11 11 0 0
BITMAP
0400
0400
0400
0400
FFE0
0400
0400
0400
0400
0000
FFE0
ENDCHAR

STARTCHAR twosuperior
ENCODING 178
SWIDTH 360 0
DWIDTH 6 0
BBX 6 8 0 6
BITMAP
38
4C
0C
08
10
20
64
FC
ENDCHAR

STARTCHAR threesuperior
ENCODING 179
SWIDTH 360 0
DWIDTH 6 0
BBX 6 8 0 6
BITMAP
38
4C
0C
38
0C
0C
98
70
ENDCHAR

STARTCHAR acute
ENCODING 180
SWIDTH 280 0
DWIDTH 5 0
BBX 4 3 1 10
BITMAP
30
60
80
ENDCHAR

STARTCHAR mu
ENCODING 181
SWIDTH 580 0
DWIDTH 10 0
BBX 11 13 -2 -4
BITMAP
1860
3860
1860
1040
30C0
30C0
31C0
7AE0
6CC0
6000
4000
C000
C000
ENDCHAR

STARTCHAR paragraph
ENCODING 182
SWIDTH 680 0
DWIDTH 13 0
BBX 12 17 1 -3
BITMAP
1FF0
6120
C120
C360
C360
C240
6240
3EC0
06C0
0480
0480
0D80
0D80
0900
0900
1B00
1B00
ENDCHAR

STARTCHAR periodcentered
ENCODING 183
SWIDTH 300 0
DWIDTH 6 0
BBX 2 2 2 4
BITMAP
C0
C0
ENDCHAR

STARTCHAR cedilla
ENCODING 184
SWIDTH 380 0
DWIDTH 7 0
BBX 4 5 0 -4
BITMAP
40
40
30
90
60
ENDCHAR

STARTCHAR onesuperior
ENCODING 185
SWIDTH 360 0
DWIDTH 6 0
BBX 3 8 2 6
BITMAP
20
E0
20
60
40
40
40
E0
ENDCHAR

STARTCHAR ordmasculine
ENCODING 186
SWIDTH 400 0
DWIDTH 8 0
BBX 6 8 1 6
BITMAP
38
4C
84
84
C8
70
00
F8
ENDCHAR

STARTCHAR guillemotright
ENCODING 187
SWIDTH 360 0
DWIDTH 8 0
BBX 7 7 0 1
BITMAP
48
24
36
36
6C
48
90
ENDCHAR

STARTCHAR onequarter
ENCODING 188
SWIDTH 900 0
DWIDTH 16 0
BBX 12 14 2 0
BITMAP
2080
E080
2100
6100
4200
4200
4420
E460
08A0
0960
1240
13F0
2040
20E0
ENDCHAR

STARTCHAR onehalf
ENCODING 189
SWIDTH 900 0
DWIDTH 16 0
BBX 12 14 2 0
BITMAP
2080
E080
2100
6100
4200
4200
44E0
E530
0830
0820
1040
1080
2190
23F0
ENDCHAR

STARTCHAR threequarters
ENCODING 190
SWIDTH 900 0
DWIDTH 16 0
BBX 14 14 0 0
BITMAP
3820
4C20
0C40
3840
0C80
0C80
9908
7118
0228
0258
0490
04FC
0810
0838
ENDCHAR

STARTCHAR questiondown
ENCODING 191
SWIDTH 420 0
DWIDTH 9 0
BBX 8 15 0 -4
BITMAP
03
03
00
02
02
04
0C
38
60
C0
C0
C0
C6
66
3C
ENDCHAR

STARTCHAR Agrave
ENCODING 192
SWIDTH 740 0
DWIDTH 14 0
BBX 14 18 -1 0
BITMAP
0180
00C0
0020
0000
0040
00C0
01E0
0360
0220
0630
0C30
0830
1FF0
3018
3018
6018
6018
F03C
ENDCHAR

STARTCHAR Aacute
ENCODING 193
SWIDTH 740 0
DWIDTH 14 0
BBX 14 18 -1 0
BITMAP
0030
0060
0080
0000
0040
00C0
01E0
0360
0220
0630
0C30
0830
1FF0
3018
3018
6018
6018
F03C
ENDCHAR

STARTCHAR Acircumflex
ENCODING 194
SWIDTH 740 0
DWIDTH 14 0
BBX 14 18 -1 0
BITMAP
0040
00E0
0110
0000
0040
00C0
01E0
0360
0220
0630
0C30
0830
1FF0
3018
3018
6018
6018
F03C
ENDCHAR

STARTCHAR Atilde
ENCODING 195
SWIDTH 740 0
DWIDTH 14 0
BBX 14 17 -1 0
BITMAP
00E8
0130
0000
0040
00C0
01E0
0360
0220
0630
0C30
0830
1FF0
3018
3018
6018
6018
F03C
ENDCHAR

STARTCHAR Adieresis
ENCODING 196
SWIDTH 740 0
DWIDTH 14 0
BBX 14 17 -1 0
BITMAP
0198
0198
0000
0040
00C0
01E0
0360
0220
0630
0C30
0830
1FF0
3018
3018
6018
6018
F03C
ENDCHAR

STARTCHAR Aring
ENCODING 197
SWIDTH 740 0
DWIDTH 14 0
BBX 14 18 -1 0
BITMAP
0060
0090
0090
0060
0040
00C0
01E0
0360
0220
0630
0C30
0830
1FF0
3018
3018
6018
6018
F03C
ENDCHAR

STARTCHAR AE
ENCODING 198
SWIDTH 960 0
DWIDTH 19 0
BBX 20 14 -1 0
BITMAP
00FFF0
006830
00D800
019800
031000
061080
063F80
0C3080
1FF000
182000
306000
306020
606060
F0FFC0
ENDCHAR

STARTCHAR Ccedilla
ENCODING 199
SWIDTH 720 0
DWIDTH 14 0
BBX 13 18 1 -4
BITMAP
07E0
1C38
3018
6008
6000
C000
C000
C000
C000
C000
C000
6020
78E0
1F80
0400
0300
0900
0600
ENDCHAR

STARTCHAR Egrave
ENCODING 200
SWIDTH 660 0
DWIDTH 12 0
BBX 12 18 0 0
BITMAP
0600
0300
0080
0000
3FF0
1830
1800
1800
1000
3080
3F80
3080
3000
2000
6000
6020
6060
FFC0
ENDCHAR

STARTCHAR Eacute
ENCODING 201
SWIDTH 660 0
DWIDTH 12 0
BBX 12 18 0 0
BITMAP
00C0
0180
0200
0000
3FF0
1830
1800
1800
1000
3080
3F80
3080
3000
2000
6000
6020
6060
FFC0
ENDCHAR

STARTCHAR Ecircumflex
ENCODING 202
SWIDTH 660 0
DWIDTH 12 0
BBX 12 18 0 0
BITMAP
0100
0380
0440
0000
3FF0
1830
1800
1800
1000
3080
3F80
3080
3000
2000
6000
6020
6060
FFC0
ENDCHAR

STARTCHAR Edieresis
ENCODING 203
SWIDTH 660 0
DWIDTH 12 0
BBX 12 17 0 0
BITMAP
0660
0660
0000
3FF0
1830
1800
1800
1000
3080
3F80
3080
3000
2000
6000
6020
6060
FFC0
ENDCHAR

STARTCHAR Igrave
ENCODING 204
SWIDTH 300 0
DWIDTH 6 0
BBX 6 18 0 0
BITMAP
30
18
04
00
3C
18
18
18
10
30
30
30
30
20
60
60
60
F0
ENDCHAR

STARTCHAR Iacute
ENCODING 205
SWIDTH 300 0
DWIDTH 6 0
BBX 8 18 0 0
BITMAP
03
06
08
00
3C
18
18
18
10
30
30
30
30
20
60
60
60
F0
ENDCHAR

STARTCHAR Icircumflex
ENCODING 206
SWIDTH 300 0
DWIDTH 6 0
BBX 7 18 0 0
BITMAP
08
1C
22
00
3C
18
18
18
10
30
30
30
30
20
60
60
60
F0
ENDCHAR

STARTCHAR Idieresis
ENCODING 207
SWIDTH 300 0
DWIDTH 6 0
BBX 8 17 0 0
BITMAP
33
33
00
3C
18
18
18
10
30
30
30
30
20
60
60
60
F0
ENDCHAR

STARTCHAR Eth
ENCODING 208
SWIDTH 760 0
DWIDTH 14 0
BBX 14 14 0 0
BITMAP
3FC0
1870
1818
1808
100C
300C
FE0C
300C
300C
2018
6018
6030
60E0
FF80
ENDCHAR

STARTCHAR Ntilde
ENCODING 209
SWIDTH 780 0
DWIDTH 15 0
BBX 15 17 0 0
BITMAP
01D0
0260
0000
380E
1C04
1604
1704
130C
3188
20C8
20C8
2068
6068
4030
4030
4030
E010
ENDCHAR

STARTCHAR Ograve
ENCODING 210
SWIDTH 780 0
DWIDTH 15 0
BBX 13 18 1 0
BITMAP
0600
0300
0080
0000
07C0
1870
3030
6018
6018
C018
C018
C018
C018
C030
C030
6060
70C0
1F00
ENDCHAR

STARTCHAR Oacute
ENCODING 211
SWIDTH 780 0
DWIDTH 15 0
BBX 13 18 1 0
BITMAP
00C0
0180
0200
0000
07C0
1870
3030
6018
6018
C018
C018
C018
C018
C030
C030
6060
70C0
1F00
ENDCHAR

STARTCHAR Ocircumflex
ENCODING 212
SWIDTH 780 0
DWIDTH 15 0
BBX 13 18 1 0
BITMAP
0100
0380
0440
0000
07C0
1870
3030
6018
6018
C018
C018
C018
C018
C030
C030
6060
70C0
1F00
ENDCHAR

STARTCHAR Otilde
ENCODING 213
SWIDTH 780 0
DWIDTH 15 0
BBX 13 17 1 0
BITMAP
03A0
04C0
0000
07C0
1870
3030
6018
6018
C018
C018
C018
C018
C030
C030
6060
70C0
1F00
ENDCHAR

STARTCHAR Odieresis
ENCODING 214
SWIDTH 780 0
DWIDTH 15 0
BBX 13 17 1 0
BITMAP
0660
0660
0000
07C0
1870
3030
6018
6018
C018
C018
C018
C018
C030
C030
6060
70C0
1F00
ENDCHAR

STARTCHAR multiply
ENCODING 215
SWIDTH 660 0
DWIDTH 11 0
BBX 11 10 0 0
BITMAP
C060
60C0
3180
1B00
0E00
0E00
1B00
3180
60C0
C060
ENDCHAR

STARTCHAR Oslash
ENCODING 216
SWIDTH 780 0
DWIDTH 15 0
BBX 13 14 1 0
BITMAP
07C8
1870
3030
6058
6098
C118
C218
C218
C418
C830
D030
6060
70C0
9F00
ENDCHAR

STARTCHAR Ugrave
ENCODING 217
SWIDTH 760 0
DWIDTH 15 0
BBX 14 18 1 0
BITMAP
0600
0300
0080
0000
783C
3018
3018
2018
6010
6030
6030
4030
C030
C020
C060
C060
71C0
3F80
ENDCHAR

STARTCHAR Uacute
ENCODING 218
SWIDTH 760 0
DWIDTH 15 0
BBX 14 18 1 0
BITMAP
0060
00C0
0100
0000
783C
3018
3018
2018
6010
6030
6030
4030
C030
C020
C060
C060
71C0
3F80
ENDCHAR

STARTCHAR Ucircumflex
ENCODING 219
SWIDTH 760 0
DWIDTH 15 0
BBX 14 18 1 0
BITMAP
0100
0380
0440
0000
783C
3018
3018
2018
6010
6030
6030
4030
C030
C020
C060
C060
71C0
3F80
ENDCHAR

STARTCHAR Udieresis
ENCODING 220
SWIDTH 760 0
DWIDTH 15 0
BBX 14 17 1 0
BITMAP
0660
0660
0000
783C
3018
3018
2018
6010
6030
6030
4030
C030
C020
C060
C060
71C0
3F80
ENDCHAR

STARTCHAR Yacute
ENCODING 221
SWIDTH 740 0
DWIDTH 14 0
BBX 14 18 1 0
BITMAP
00C0
0180
0200
0000
F03C
6018
6030
3020
3060
18C0
1D80
0F00
0600
0600
0400
0C00
0C00
1E00
ENDCHAR

STARTCHAR Thorn
ENCODING 222
SWIDTH 640 0
DWIDTH 12 0
BBX 12 14 0 0
BITMAP
3C00
1800
1800
1FC0
1060
3030
3030
3030
3060
21C0
7F00
6000
6000
F000
ENDCHAR

STARTCHAR germandbls
ENCODING 223
SWIDTH 540 0
DWIDTH 10 0
BBX 10 14 0 0
BITMAP
0780
19C0
18C0
10C0
3180
3200
3200
3100
2180
6180
6180
6180
6D00
EE00
ENDCHAR

STARTCHAR agrave
ENCODING 224
SWIDTH 520 0
DWIDTH 10 0
BBX 9 13 0 0
BITMAP
1800
0C00
0200
0000
1E80
3380
6180
C180
C100
C300
C300
6780
3D00
ENDCHAR

STARTCHAR aacute
ENCODING 225
SWIDTH 520 0
DWIDTH 10 0
BBX 9 13 0 0
BITMAP
0180
0300
0400
0000
1E80
3380
6180
C180
C100
C300
C300
6780
3D00
ENDCHAR

STARTCHAR acircumflex
ENCODING 226
SWIDTH 520 0
DWIDTH 10 0
BBX 9 13 0 0
BITMAP
0400
0E00
1100
0000
1E80
3380
6180
C180
C100
C300
C300
6780
3D00
ENDCHAR

STARTCHAR atilde
ENCODING 227
SWIDTH 520 0
DWIDTH 10 0
BBX 9 12 0 0
BITMAP
0E80
1300
0000
1E80
3380
6180
C180
C100
C300
C300
6780
3D00
ENDCHAR

STARTCHAR adieresis
ENCODING 228
SWIDTH 520 0
DWIDTH 10 0
BBX 9 12 0 0
BITMAP
3300
3300
0000
1E80
3380
6180
C180
C100
C300
C300
6780
3D00
ENDCHAR

STARTCHAR aring
ENCODING 229
SWIDTH 520 0
DWIDTH 10 0
BBX 9 14 0 0
BITMAP
0600
0900
0900
0600
0000
0E80
3B80
6180
6180
C100
C100
C300
6780
3D00
ENDCHAR

STARTCHAR ae
ENCODING 230
SWIDTH 820 0
DWIDTH 17 0
BBX 16 9 0 0
BITMAP
3E3E
6367
0183
078E
39F8
4180
C183
E7E6
7C78
ENDCHAR

STARTCHAR ccedilla
ENCODING 231
SWIDTH 460 0
DWIDTH 9 0
BBX 8 13 0 -4
BITMAP
1E
33
63
C0
C0
C0
C0
C6
7C
20
18
48
30
ENDCHAR

STARTCHAR egrave
ENCODING 232
SWIDTH 500 0
DWIDTH 10 0
BBX 9 13 0 0
BITMAP
3000
1800
0400
0000
1F00
7380
4180
C700
FC00
C000
C180
7300
3C00
ENDCHAR

STARTCHAR eacute
ENCODING 233
SWIDTH 500 0
DWIDTH 10 0
BBX 9 13 0 0
BITMAP
0300
0600
0800
0000
1F00
7380
4180
C700
FC00
C000
C180
7300
3C00
ENDCHAR

STARTCHAR ecircumflex
ENCODING 234
SWIDTH 500 0
DWIDTH 10 0
BBX 9 13 0 0
BITMAP
0400
0E00
1100
0000
1F00
7380
4180
C700
FC00
C000
C180
7300
3C00
ENDCHAR

STARTCHAR edieresis
ENCODING 235
SWIDTH 500 0
DWIDTH 10 0
BBX 9 12 0 0
BITMAP
3300
3300
0000
1F00
7380
4180
C700
FC00
C000
C180
7300
3C00
ENDCHAR

STARTCHAR igrave
ENCODING 236
SWIDTH 280 0
DWIDTH 5 0
BBX 4 13 1 0
BITMAP
C0
60
10
00
60
E0
60
60
40
C0
C0
E0
E0
ENDCHAR

STARTCHAR iacute
ENCODING 237
SWIDTH 280 0
DWIDTH 5 0
BBX 5 13 1 0
BITMAP
18
30
40
00
60
E0
60
60
40
C0
C0
E0
E0
ENDCHAR

STARTCHAR icircumflex
ENCODING 238
SWIDTH 280 0
DWIDTH 5 0
BBX 5 13 1 0
BITMAP
20
70
88
00
60
E0
60
60
40
C0
C0
E0
E0
ENDCHAR

STARTCHAR idieresis
ENCODING 239
SWIDTH 280 0
DWIDTH 5 0
BBX 6 12 0 0
BITMAP
CC
CC
00
30
70
30
30
20
60
60
70
70
ENDCHAR

STARTCHAR eth
ENCODING 240
SWIDTH 560 0
DWIDTH 11 0
BBX 10 14 0 0
BITMAP
0300
7600
1E00
3300
0180
0F80
31C0
60C0
C0C0
C0C0
C0C0
C180
6300
3C00
ENDCHAR

STARTCHAR ntilde
ENCODING 241
SWIDTH 600 0
DWIDTH 11 0
BBX 9 12 0 0
BITMAP
0E80
1300
0000
4F00
F380
6180
6180
6180
4100
C300
C380
C300
ENDCHAR

STARTCHAR ograve
ENCODING 242
SWIDTH 560 0
DWIDTH 11 0
BBX 10 13 0 0
BITMAP
1800
0C00
0200
0000
1F00
6180
60C0
C0C0
C0C0
C0C0
C180
6180
3E00
ENDCHAR

STARTCHAR oacute
ENCODING 243
SWIDTH 560 0
DWIDTH 11 0
BBX 10 13 0 0
BITMAP
0180
0300
0400
0000
1F00
6180
60C0
C0C0
C0C0
C0C0
C180
6180
3E00
ENDCHAR

STARTCHAR ocircumflex
ENCODING 244
SWIDTH 560 0
DWIDTH 11 0
BBX 10 13 0 0
BITMAP
0400
0E00
1100
0000
1F00
6180
60C0
C0C0
C0C0
C0C0
C180
6180
3E00
ENDCHAR

STARTCHAR otilde
ENCODING 245
SWIDTH 560 0
DWIDTH 11 0
BBX 10 12 0 0
BITMAP
0E80
1300
0000
1F00
6180
60C0
C0C0
C0C0
C0C0
C180
6180
3E00
ENDCHAR

STARTCHAR odieresis
ENCODING 246
SWIDTH 560 0
DWIDTH 11 0
BBX 10 12 0 0
BITMAP
1980
1980
0000
1F00
6180
60C0
C0C0
C0C0
C0C0
C180
6180
3E00
ENDCHAR

STARTCHAR divide
ENCODING 247
SWIDTH 660 0
DWIDTH 11 0
BBX 10 9 0 1
BITMAP
0C00
0C00
0000
0000
FFC0
0000
0000
0C00
0C00
ENDCHAR

STARTCHAR oslash
ENCODING 248
SWIDTH 560 0
DWIDTH 11 0
BBX 10 9 0 0
BITMAP
1F40
6180
61C0
C2C0
CCC0
D0C0
E180
6180
BE00
ENDCHAR

STARTCHAR ugrave
ENCODING 249
SWIDTH 580 0
DWIDTH 11 0
BBX 9 13 1 0
BITMAP
3000
1800
0400
0000
6180
E180
6180
4100
C300
C300
C700
EB80
7300
ENDCHAR

STARTCHAR uacute
ENCODING 250
SWIDTH 580 0
DWIDTH 11 0
BBX 9 13 1 0
BITMAP
0300
0600
0800
0000
6180
E180
6180
4100
C300
C300
C700
EB80
7300
ENDCHAR

STARTCHAR ucircumflex
ENCODING 251
SWIDTH 580 0
DWIDTH 11 0
BBX 9 13 1 0
BITMAP
0400
0E00
1100
0000
6180
E180
6180
4100
C300
C300
C700
EB80
7300
ENDCHAR

STARTCHAR udieresis
ENCODING 252
SWIDTH 580 0
DWIDTH 11 0
BBX 9 12 1 0
BITMAP
3300
3300
0000
6180
E180
6180
4100
C300
C300
C700
EB80
7300
ENDCHAR

STARTCHAR yacute
ENCODING 253
SWIDTH 500 0
DWIDTH 9 0
BBX 9 17 -1 -4
BITMAP
0180
0300
0400
0000
3100
7380
2180
2180
6100
6100
6200
3600
1C00
0400
1800
F000
6000
ENDCHAR

STARTCHAR thorn
ENCODING 254
SWIDTH 580 0
DWIDTH 10 0
BBX 10 18 -1 -4
BITMAP
0C00
1C00
0C00
0800
1800
1B80
14C0
18C0
30C0
30C0
30C0
3180
2380
2E00
6000
6000
6000
F000
ENDCHAR

STARTCHAR ydieresis
ENCODING 255
SWIDTH 500 0
DWIDTH 9 0
BBX 9 16 0 -4
BITMAP
3300
3300
0000
2100
E380
2180
2180
6100
6300
6200
3600
1C00
0400
1800
F000
6000
ENDCHAR

ENDFONT
