STARTFONT 2.1
FONT -DEC-Terminal-Medium-R-Narrow--14-100-100-100-C-60-DEC-DECtech
SIZE 10 100 100
FONTBOUNDINGBOX 6 14 0 -2

STARTPROPERTIES 24
FOUNDRY "DEC"
FAMILY_NAME "Terminal"
WEIGHT_NAME "Medium"
SLANT "R"
SETWIDTH_NAME "Narrow"
ADD_STYLE_NAME ""
PIXEL_SIZE 14
POINT_SIZE 100
RESOLUTION_X 100
RESOLUTION_Y 100
SPACING "C"
AVERAGE_WIDTH 60
CHARSET_REGISTRY "DEC"
CHARSET_ENCODING "DECtech"
CAP_HEIGHT 9
COPYRIGHT "Copyright (c) 1991 Digital Equipment Corporation. All Rights Reserved."
_DEC_PRODUCTINFO "DECterm Fonts V2.2, 11-Nov-1991"
FULL_NAME "Terminal Narrow"
WEIGHT 10
X_HEIGHT -1
QUAD_WIDTH 6
DEFAULT_CHAR 159
FONT_DESCENT 2
FONT_ASCENT 12
ENDPROPERTIES

CHARS 182

STARTCHAR space
ENCODING 32
SWIDTH 430 0
DWIDTH 6 0
BBX 6 14 0 -2
BITMAP
00
00
00
00
00
00
00
00
00
00
00
00
00
00
ENDCHAR

STARTCHAR exclam
ENCODING 33
SWIDTH 430 0
DWIDTH 6 0
BBX 6 14 0 -2
BITMAP
00
00
00
10
10
10
10
10
10
00
10
10
00
00
ENDCHAR

STARTCHAR quotedbl
ENCODING 34
SWIDTH 430 0
DWIDTH 6 0
BBX 6 14 0 -2
BITMAP
00
00
28
28
28
00
00
00
00
00
00
00
00
00
ENDCHAR

STARTCHAR numbersign
ENCODING 35
SWIDTH 430 0
DWIDTH 6 0
BBX 6 14 0 -2
BITMAP
00
00
00
00
28
28
7C
28
7C
28
28
00
00
00
ENDCHAR

STARTCHAR dollar
ENCODING 36
SWIDTH 430 0
DWIDTH 6 0
BBX 6 14 0 -2
BITMAP
00
00
00
10
38
54
50
38
14
54
38
10
00
00
ENDCHAR

STARTCHAR percent
ENCODING 37
SWIDTH 430 0
DWIDTH 6 0
BBX 6 14 0 -2
BITMAP
00
00
00
44
A4
A8
50
10
28
54
54
88
00
00
ENDCHAR

STARTCHAR ampersand
ENCODING 38
SWIDTH 430 0
DWIDTH 6 0
BBX 6 14 0 -2
BITMAP
00
00
00
30
48
40
60
34
5C
48
48
34
00
00
ENDCHAR

STARTCHAR quoteright
ENCODING 39
SWIDTH 430 0
DWIDTH 6 0
BBX 6 14 0 -2
BITMAP
00
00
08
10
00
00
00
00
00
00
00
00
00
00
ENDCHAR

STARTCHAR parenleft
ENCODING 40
SWIDTH 430 0
DWIDTH 6 0
BBX 6 14 0 -2
BITMAP
00
00
08
10
10
20
20
20
20
20
10
10
08
00
ENDCHAR

STARTCHAR parenright
ENCODING 41
SWIDTH 430 0
DWIDTH 6 0
BBX 6 14 0 -2
BITMAP
00
00
20
10
10
08
08
08
08
08
10
10
20
00
ENDCHAR

STARTCHAR asterisk
ENCODING 42
SWIDTH 430 0
DWIDTH 6 0
BBX 6 14 0 -2
BITMAP
00
00
00
10
54
38
38
54
10
00
00
00
00
00
ENDCHAR

STARTCHAR plus
ENCODING 43
SWIDTH 430 0
DWIDTH 6 0
BBX 6 14 0 -2
BITMAP
00
00
00
00
00
10
10
7C
10
10
00
00
00
00
ENDCHAR

STARTCHAR comma
ENCODING 44
SWIDTH 430 0
DWIDTH 6 0
BBX 6 14 0 -2
BITMAP
00
00
00
00
00
00
00
00
00
00
10
10
20
00
ENDCHAR

STARTCHAR minus
ENCODING 45
SWIDTH 430 0
DWIDTH 6 0
BBX 6 14 0 -2
BITMAP
00
00
00
00
00
00
00
7C
00
00
00
00
00
00
ENDCHAR

STARTCHAR period
ENCODING 46
SWIDTH 430 0
DWIDTH 6 0
BBX 6 14 0 -2
BITMAP
00
00
00
00
00
00
00
00
00
00
10
10
00
00
ENDCHAR

STARTCHAR slash
ENCODING 47
SWIDTH 430 0
DWIDTH 6 0
BBX 6 14 0 -2
BITMAP
00
00
08
08
08
10
10
10
20
20
40
40
40
00
ENDCHAR

STARTCHAR zero
ENCODING 48
SWIDTH 430 0
DWIDTH 6 0
BBX 6 14 0 -2
BITMAP
00
00
00
30
48
48
48
48
48
48
48
30
00
00
ENDCHAR

STARTCHAR one
ENCODING 49
SWIDTH 430 0
DWIDTH 6 0
BBX 6 14 0 -2
BITMAP
00
00
00
10
30
10
10
10
10
10
10
38
00
00
ENDCHAR

STARTCHAR two
ENCODING 50
SWIDTH 430 0
DWIDTH 6 0
BBX 6 14 0 -2
BITMAP
00
00
00
30
48
08
08
10
20
20
40
78
00
00
ENDCHAR

STARTCHAR three
ENCODING 51
SWIDTH 430 0
DWIDTH 6 0
BBX 6 14 0 -2
BITMAP
00
00
00
30
48
08
08
30
08
08
48
30
00
00
ENDCHAR

STARTCHAR four
ENCODING 52
SWIDTH 430 0
DWIDTH 6 0
BBX 6 14 0 -2
BITMAP
00
00
00
08
18
18
28
28
48
7C
08
08
00
00
ENDCHAR

STARTCHAR five
ENCODING 53
SWIDTH 430 0
DWIDTH 6 0
BBX 6 14 0 -2
BITMAP
00
00
00
78
40
40
70
48
08
08
48
30
00
00
ENDCHAR

STARTCHAR six
ENCODING 54
SWIDTH 430 0
DWIDTH 6 0
BBX 6 14 0 -2
BITMAP
00
00
00
30
40
40
70
48
48
48
48
30
00
00
ENDCHAR

STARTCHAR seven
ENCODING 55
SWIDTH 430 0
DWIDTH 6 0
BBX 6 14 0 -2
BITMAP
00
00
00
78
08
08
10
10
10
20
20
20
00
00
ENDCHAR

STARTCHAR eight
ENCODING 56
SWIDTH 430 0
DWIDTH 6 0
BBX 6 14 0 -2
BITMAP
00
00
00
30
48
48
48
30
48
48
48
30
00
00
ENDCHAR

STARTCHAR nine
ENCODING 57
SWIDTH 430 0
DWIDTH 6 0
BBX 6 14 0 -2
BITMAP
00
00
00
30
48
48
48
48
38
08
08
30
00
00
ENDCHAR

STARTCHAR colon
ENCODING 58
SWIDTH 430 0
DWIDTH 6 0
BBX 6 14 0 -2
BITMAP
00
00
00
00
00
00
10
10
00
00
10
10
00
00
ENDCHAR

STARTCHAR semicolon
ENCODING 59
SWIDTH 430 0
DWIDTH 6 0
BBX 6 14 0 -2
BITMAP
00
00
00
00
00
00
10
10
00
00
10
10
20
00
ENDCHAR

STARTCHAR less
ENCODING 60
SWIDTH 430 0
DWIDTH 6 0
BBX 6 14 0 -2
BITMAP
00
00
00
00
00
08
10
20
40
20
10
08
00
00
ENDCHAR

STARTCHAR equal
ENCODING 61
SWIDTH 430 0
DWIDTH 6 0
BBX 6 14 0 -2
BITMAP
00
00
00
00
00
00
00
7C
00
7C
00
00
00
00
ENDCHAR

STARTCHAR greater
ENCODING 62
SWIDTH 430 0
DWIDTH 6 0
BBX 6 14 0 -2
BITMAP
00
00
00
00
00
20
10
08
04
08
10
20
00
00
ENDCHAR

STARTCHAR question
ENCODING 63
SWIDTH 430 0
DWIDTH 6 0
BBX 6 14 0 -2
BITMAP
00
00
00
38
44
04
08
10
10
00
10
10
00
00
ENDCHAR

STARTCHAR at
ENCODING 64
SWIDTH 430 0
DWIDTH 6 0
BBX 6 14 0 -2
BITMAP
00
00
00
38
44
44
4C
54
54
4C
40
3C
00
00
ENDCHAR

STARTCHAR A
ENCODING 65
SWIDTH 430 0
DWIDTH 6 0
BBX 6 14 0 -2
BITMAP
00
00
00
10
28
28
44
44
7C
44
44
44
00
00
ENDCHAR

STARTCHAR B
ENCODING 66
SWIDTH 430 0
DWIDTH 6 0
BBX 6 14 0 -2
BITMAP
00
00
00
78
44
44
44
78
44
44
44
78
00
00
ENDCHAR

STARTCHAR C
ENCODING 67
SWIDTH 430 0
DWIDTH 6 0
BBX 6 14 0 -2
BITMAP
00
00
00
38
44
40
40
40
40
40
44
38
00
00
ENDCHAR

STARTCHAR D
ENCODING 68
SWIDTH 430 0
DWIDTH 6 0
BBX 6 14 0 -2
BITMAP
00
00
00
78
44
44
44
44
44
44
44
78
00
00
ENDCHAR

STARTCHAR E
ENCODING 69
SWIDTH 430 0
DWIDTH 6 0
BBX 6 14 0 -2
BITMAP
00
00
00
3C
20
20
20
38
20
20
20
3C
00
00
ENDCHAR

STARTCHAR F
ENCODING 70
SWIDTH 430 0
DWIDTH 6 0
BBX 6 14 0 -2
BITMAP
00
00
00
3C
20
20
20
20
38
20
20
20
00
00
ENDCHAR

STARTCHAR G
ENCODING 71
SWIDTH 430 0
DWIDTH 6 0
BBX 6 14 0 -2
BITMAP
00
00
00
38
44
40
40
40
4C
44
44
3C
00
00
ENDCHAR

STARTCHAR H
ENCODING 72
SWIDTH 430 0
DWIDTH 6 0
BBX 6 14 0 -2
BITMAP
00
00
00
44
44
44
44
7C
44
44
44
44
00
00
ENDCHAR

STARTCHAR I
ENCODING 73
SWIDTH 430 0
DWIDTH 6 0
BBX 6 14 0 -2
BITMAP
00
00
00
7C
10
10
10
10
10
10
10
7C
00
00
ENDCHAR

STARTCHAR J
ENCODING 74
SWIDTH 430 0
DWIDTH 6 0
BBX 6 14 0 -2
BITMAP
00
00
00
3C
08
08
08
08
08
08
48
30
00
00
ENDCHAR

STARTCHAR K
ENCODING 75
SWIDTH 430 0
DWIDTH 6 0
BBX 6 14 0 -2
BITMAP
00
00
00
44
48
50
60
60
50
48
44
44
00
00
ENDCHAR

STARTCHAR L
ENCODING 76
SWIDTH 430 0
DWIDTH 6 0
BBX 6 14 0 -2
BITMAP
00
00
00
20
20
20
20
20
20
20
20
3C
00
00
ENDCHAR

STARTCHAR M
ENCODING 77
SWIDTH 430 0
DWIDTH 6 0
BBX 6 14 0 -2
BITMAP
00
00
00
44
6C
6C
54
54
44
44
44
44
00
00
ENDCHAR

STARTCHAR N
ENCODING 78
SWIDTH 430 0
DWIDTH 6 0
BBX 6 14 0 -2
BITMAP
00
00
00
44
44
64
54
54
54
4C
44
44
00
00
ENDCHAR

STARTCHAR O
ENCODING 79
SWIDTH 430 0
DWIDTH 6 0
BBX 6 14 0 -2
BITMAP
00
00
00
38
44
44
44
44
44
44
44
38
00
00
ENDCHAR

STARTCHAR P
ENCODING 80
SWIDTH 430 0
DWIDTH 6 0
BBX 6 14 0 -2
BITMAP
00
00
00
78
44
44
44
78
40
40
40
40
00
00
ENDCHAR

STARTCHAR Q
ENCODING 81
SWIDTH 430 0
DWIDTH 6 0
BBX 6 14 0 -2
BITMAP
00
00
00
38
44
44
44
44
44
44
54
38
04
00
ENDCHAR

STARTCHAR R
ENCODING 82
SWIDTH 430 0
DWIDTH 6 0
BBX 6 14 0 -2
BITMAP
00
00
00
78
44
44
44
78
50
48
44
44
00
00
ENDCHAR

STARTCHAR S
ENCODING 83
SWIDTH 430 0
DWIDTH 6 0
BBX 6 14 0 -2
BITMAP
00
00
00
38
44
40
40
38
04
04
44
38
00
00
ENDCHAR

STARTCHAR T
ENCODING 84
SWIDTH 430 0
DWIDTH 6 0
BBX 6 14 0 -2
BITMAP
00
00
00
7C
10
10
10
10
10
10
10
10
00
00
ENDCHAR

STARTCHAR U
ENCODING 85
SWIDTH 430 0
DWIDTH 6 0
BBX 6 14 0 -2
BITMAP
00
00
00
44
44
44
44
44
44
44
44
38
00
00
ENDCHAR

STARTCHAR V
ENCODING 86
SWIDTH 430 0
DWIDTH 6 0
BBX 6 14 0 -2
BITMAP
00
00
00
44
44
44
44
28
28
10
10
10
00
00
ENDCHAR

STARTCHAR W
ENCODING 87
SWIDTH 430 0
DWIDTH 6 0
BBX 6 14 0 -2
BITMAP
00
00
00
44
44
44
54
54
54
28
28
28
00
00
ENDCHAR

STARTCHAR X
ENCODING 88
SWIDTH 430 0
DWIDTH 6 0
BBX 6 14 0 -2
BITMAP
00
00
00
44
44
28
28
10
28
28
44
44
00
00
ENDCHAR

STARTCHAR Y
ENCODING 89
SWIDTH 430 0
DWIDTH 6 0
BBX 6 14 0 -2
BITMAP
00
00
00
44
44
44
28
28
10
10
10
10
00
00
ENDCHAR

STARTCHAR Z
ENCODING 90
SWIDTH 430 0
DWIDTH 6 0
BBX 6 14 0 -2
BITMAP
00
00
00
7C
04
08
08
10
20
20
40
7C
00
00
ENDCHAR

STARTCHAR bracketleft
ENCODING 91
SWIDTH 430 0
DWIDTH 6 0
BBX 6 14 0 -2
BITMAP
00
00
38
20
20
20
20
20
20
20
20
20
38
00
ENDCHAR

STARTCHAR backslash
ENCODING 92
SWIDTH 430 0
DWIDTH 6 0
BBX 6 14 0 -2
BITMAP
00
00
40
40
40
20
20
20
10
10
08
08
08
00
ENDCHAR

STARTCHAR bracketright
ENCODING 93
SWIDTH 430 0
DWIDTH 6 0
BBX 6 14 0 -2
BITMAP
00
00
38
08
08
08
08
08
08
08
08
08
38
00
ENDCHAR

STARTCHAR asciicircum
ENCODING 94
SWIDTH 430 0
DWIDTH 6 0
BBX 6 14 0 -2
BITMAP
00
00
00
00
00
10
28
44
00
00
00
00
00
00
ENDCHAR

STARTCHAR ldblank
ENCODING 95
SWIDTH 430 0
DWIDTH 6 0
BBX 6 14 0 -2
BITMAP
00
00
00
00
00
00
00
00
00
00
00
00
00
00
ENDCHAR

STARTCHAR diamond
ENCODING 96
SWIDTH 430 0
DWIDTH 6 0
BBX 6 14 0 -2
BITMAP
00
00
00
00
00
10
38
7C
38
10
00
00
00
00
ENDCHAR

STARTCHAR checkerboard
ENCODING 97
SWIDTH 430 0
DWIDTH 6 0
BBX 6 14 0 -2
BITMAP
54
A8
54
A8
54
A8
54
A8
54
A8
54
A8
54
A8
ENDCHAR

STARTCHAR HT
ENCODING 98
SWIDTH 430 0
DWIDTH 6 0
BBX 6 14 0 -2
BITMAP
00
00
48
48
78
48
48
00
38
10
10
10
10
00
ENDCHAR

STARTCHAR FF
ENCODING 99
SWIDTH 430 0
DWIDTH 6 0
BBX 6 14 0 -2
BITMAP
00
00
70
40
60
40
40
00
38
20
30
20
20
00
ENDCHAR

STARTCHAR CR
ENCODING 100
SWIDTH 430 0
DWIDTH 6 0
BBX 6 14 0 -2
BITMAP
00
00
30
48
40
48
30
00
38
28
30
28
24
00
ENDCHAR

STARTCHAR LF
ENCODING 101
SWIDTH 430 0
DWIDTH 6 0
BBX 6 14 0 -2
BITMAP
00
00
40
40
40
40
70
00
38
20
30
20
20
00
ENDCHAR

STARTCHAR degree
ENCODING 102
SWIDTH 430 0
DWIDTH 6 0
BBX 6 14 0 -2
BITMAP
00
00
30
48
48
30
00
00
00
00
00
00
00
00
ENDCHAR

STARTCHAR plusminus
ENCODING 103
SWIDTH 430 0
DWIDTH 6 0
BBX 6 14 0 -2
BITMAP
00
00
00
00
00
10
10
7C
10
10
00
7C
00
00
ENDCHAR

STARTCHAR NL
ENCODING 104
SWIDTH 430 0
DWIDTH 6 0
BBX 6 14 0 -2
BITMAP
00
00
48
68
68
58
48
00
20
20
20
20
38
00
ENDCHAR

STARTCHAR VT
ENCODING 105
SWIDTH 430 0
DWIDTH 6 0
BBX 6 14 0 -2
BITMAP
00
00
48
48
48
30
30
00
38
10
10
10
10
00
ENDCHAR

STARTCHAR ldcornsqlr
ENCODING 106
SWIDTH 430 0
DWIDTH 6 0
BBX 6 14 0 -2
BITMAP
20
20
20
20
20
20
20
E0
00
00
00
00
00
00
ENDCHAR

STARTCHAR ldcornsqur
ENCODING 107
SWIDTH 430 0
DWIDTH 6 0
BBX 6 14 0 -2
BITMAP
00
00
00
00
00
00
00
E0
20
20
20
20
20
20
ENDCHAR

STARTCHAR ldcornsqul
ENCODING 108
SWIDTH 430 0
DWIDTH 6 0
BBX 6 14 0 -2
BITMAP
00
00
00
00
00
00
00
3C
20
20
20
20
20
20
ENDCHAR

STARTCHAR ldcornsqll
ENCODING 109
SWIDTH 430 0
DWIDTH 6 0
BBX 6 14 0 -2
BITMAP
20
20
20
20
20
20
20
3C
00
00
00
00
00
00
ENDCHAR

STARTCHAR ldcross
ENCODING 110
SWIDTH 430 0
DWIDTH 6 0
BBX 6 14 0 -2
BITMAP
20
20
20
20
20
20
20
FC
20
20
20
20
20
20
ENDCHAR

STARTCHAR ldscan1
ENCODING 111
SWIDTH 430 0
DWIDTH 6 0
BBX 6 14 0 -2
BITMAP
00
FC
00
00
00
00
00
00
00
00
00
00
00
00
ENDCHAR

STARTCHAR ldscan3
ENCODING 112
SWIDTH 430 0
DWIDTH 6 0
BBX 6 14 0 -2
BITMAP
00
00
00
00
FC
00
00
00
00
00
00
00
00
00
ENDCHAR

STARTCHAR ldhorizontal
ENCODING 113
SWIDTH 430 0
DWIDTH 6 0
BBX 6 14 0 -2
BITMAP
00
00
00
00
00
00
00
FC
00
00
00
00
00
00
ENDCHAR

STARTCHAR ldscan7
ENCODING 114
SWIDTH 430 0
DWIDTH 6 0
BBX 6 14 0 -2
BITMAP
00
00
00
00
00
00
00
00
00
00
FC
00
00
00
ENDCHAR

STARTCHAR ldscan9
ENCODING 115
SWIDTH 430 0
DWIDTH 6 0
BBX 6 14 0 -2
BITMAP
00
00
00
00
00
00
00
00
00
00
00
00
00
FC
ENDCHAR

STARTCHAR ldteelft
ENCODING 116
SWIDTH 430 0
DWIDTH 6 0
BBX 6 14 0 -2
BITMAP
20
20
20
20
20
20
20
3C
20
20
20
20
20
20
ENDCHAR

STARTCHAR ldteert
ENCODING 117
SWIDTH 430 0
DWIDTH 6 0
BBX 6 14 0 -2
BITMAP
20
20
20
20
20
20
20
E0
20
20
20
20
20
20
ENDCHAR

STARTCHAR ldteebt
ENCODING 118
SWIDTH 430 0
DWIDTH 6 0
BBX 6 14 0 -2
BITMAP
20
20
20
20
20
20
20
FC
00
00
00
00
00
00
ENDCHAR

STARTCHAR ldteetp
ENCODING 119
SWIDTH 430 0
DWIDTH 6 0
BBX 6 14 0 -2
BITMAP
00
00
00
00
00
00
00
FC
20
20
20
20
20
20
ENDCHAR

STARTCHAR ldvertical
ENCODING 120
SWIDTH 430 0
DWIDTH 6 0
BBX 6 14 0 -2
BITMAP
20
20
20
20
20
20
20
20
20
20
20
20
20
20
ENDCHAR

STARTCHAR lessequal
ENCODING 121
SWIDTH 430 0
DWIDTH 6 0
BBX 6 14 0 -2
BITMAP
00
00
00
00
08
10
20
40
20
10
08
7C
00
00
ENDCHAR

STARTCHAR greaterequal
ENCODING 122
SWIDTH 430 0
DWIDTH 6 0
BBX 6 14 0 -2
BITMAP
00
00
00
00
20
10
08
04
08
10
20
7C
00
00
ENDCHAR

STARTCHAR pi
ENCODING 123
SWIDTH 430 0
DWIDTH 6 0
BBX 6 14 0 -2
BITMAP
00
00
00
00
00
7C
28
28
28
28
28
48
00
00
ENDCHAR

STARTCHAR notequal
ENCODING 124
SWIDTH 430 0
DWIDTH 6 0
BBX 6 14 0 -2
BITMAP
00
00
00
00
00
00
08
7C
10
7C
20
00
00
00
ENDCHAR

STARTCHAR sterling
ENCODING 125
SWIDTH 430 0
DWIDTH 6 0
BBX 6 14 0 -2
BITMAP
00
00
00
18
24
20
20
70
20
20
24
58
00
00
ENDCHAR

STARTCHAR periodcentered
ENCODING 126
SWIDTH 430 0
DWIDTH 6 0
BBX 6 14 0 -2
BITMAP
00
00
00
00
00
00
00
10
10
00
00
00
00
00
ENDCHAR

STARTCHAR Error
ENCODING 159
SWIDTH 430 0
DWIDTH 6 0
BBX 6 14 0 -2
BITMAP
78
FC
CC
CC
C0
C0
60
30
30
30
00
30
30
30
ENDCHAR

STARTCHAR space
ENCODING 160
SWIDTH 430 0
DWIDTH 6 0
BBX 6 14 0 -2
BITMAP
00
00
00
00
00
00
00
00
00
00
00
00
00
00
ENDCHAR

STARTCHAR ldradicalbt
ENCODING 161
SWIDTH 430 0
DWIDTH 6 0
BBX 6 14 0 -2
BITMAP
10
10
10
10
10
10
10
10
10
D0
30
10
00
00
ENDCHAR

STARTCHAR ldradicaltp
ENCODING 162
SWIDTH 430 0
DWIDTH 6 0
BBX 6 14 0 -2
BITMAP
00
00
00
00
00
00
00
1C
10
10
10
10
10
10
ENDCHAR

STARTCHAR ldhorizontal
ENCODING 163
SWIDTH 430 0
DWIDTH 6 0
BBX 6 14 0 -2
BITMAP
00
00
00
00
00
00
00
FC
00
00
00
00
00
00
ENDCHAR

STARTCHAR ldintegraltp
ENCODING 164
SWIDTH 430 0
DWIDTH 6 0
BBX 6 14 0 -2
BITMAP
00
00
08
14
10
10
10
10
10
10
10
10
10
10
ENDCHAR

STARTCHAR ldintegralbt
ENCODING 165
SWIDTH 430 0
DWIDTH 6 0
BBX 6 14 0 -2
BITMAP
10
10
10
10
10
10
10
10
10
10
10
50
20
00
ENDCHAR

STARTCHAR ldvertical
ENCODING 166
SWIDTH 430 0
DWIDTH 6 0
BBX 6 14 0 -2
BITMAP
10
10
10
10
10
10
10
10
10
10
10
10
10
10
ENDCHAR

STARTCHAR ldbracketlfttp
ENCODING 167
SWIDTH 430 0
DWIDTH 6 0
BBX 6 14 0 -2
BITMAP
00
00
1C
10
10
10
10
10
10
10
10
10
10
10
ENDCHAR

STARTCHAR ldbracketlftbt
ENCODING 168
SWIDTH 430 0
DWIDTH 6 0
BBX 6 14 0 -2
BITMAP
10
10
10
10
10
10
10
10
10
10
10
10
1C
00
ENDCHAR

STARTCHAR ldbracketrttp
ENCODING 169
SWIDTH 430 0
DWIDTH 6 0
BBX 6 14 0 -2
BITMAP
00
00
70
10
10
10
10
10
10
10
10
10
10
10
ENDCHAR

STARTCHAR ldbracketrtbt
ENCODING 170
SWIDTH 430 0
DWIDTH 6 0
BBX 6 14 0 -2
BITMAP
10
10
10
10
10
10
10
10
10
10
10
10
70
00
ENDCHAR

STARTCHAR ldbracelfttp
ENCODING 171
SWIDTH 430 0
DWIDTH 6 0
BBX 6 14 0 -2
BITMAP
00
00
0C
10
10
10
10
10
10
10
10
10
10
10
ENDCHAR

STARTCHAR ldbracelftbt
ENCODING 172
SWIDTH 430 0
DWIDTH 6 0
BBX 6 14 0 -2
BITMAP
10
10
10
10
10
10
10
10
10
10
10
10
0C
00
ENDCHAR

STARTCHAR ldbracerttp
ENCODING 173
SWIDTH 430 0
DWIDTH 6 0
BBX 6 14 0 -2
BITMAP
00
00
60
10
10
10
10
10
10
10
10
10
10
10
ENDCHAR

STARTCHAR ldbracertbt
ENCODING 174
SWIDTH 430 0
DWIDTH 6 0
BBX 6 14 0 -2
BITMAP
10
10
10
10
10
10
10
10
10
10
10
10
60
00
ENDCHAR

STARTCHAR ldbracelftmid
ENCODING 175
SWIDTH 430 0
DWIDTH 6 0
BBX 6 14 0 -2
BITMAP
10
10
10
10
10
10
20
40
20
10
10
10
10
10
ENDCHAR

STARTCHAR ldbracertmid
ENCODING 176
SWIDTH 430 0
DWIDTH 6 0
BBX 6 14 0 -2
BITMAP
10
10
10
10
10
10
08
04
08
10
10
10
10
10
ENDCHAR

STARTCHAR ldsigmalfttp
ENCODING 177
SWIDTH 430 0
DWIDTH 6 0
BBX 6 14 0 -2
BITMAP
00
00
00
00
00
00
00
3C
20
10
10
08
08
04
ENDCHAR

STARTCHAR ldsigmalftbt
ENCODING 178
SWIDTH 430 0
DWIDTH 6 0
BBX 6 14 0 -2
BITMAP
04
08
08
10
10
20
20
3C
00
00
00
00
00
00
ENDCHAR

STARTCHAR ldbackslash
ENCODING 179
SWIDTH 430 0
DWIDTH 6 0
BBX 6 14 0 -2
BITMAP
80
80
40
40
60
20
20
10
10
18
08
08
04
04
ENDCHAR

STARTCHAR ldslash
ENCODING 180
SWIDTH 430 0
DWIDTH 6 0
BBX 6 14 0 -2
BITMAP
04
04
08
08
18
10
10
20
20
60
40
40
80
80
ENDCHAR

STARTCHAR ldsigmarttp
ENCODING 181
SWIDTH 430 0
DWIDTH 6 0
BBX 6 14 0 -2
BITMAP
00
00
00
00
00
00
00
F8
08
08
00
00
00
00
ENDCHAR

STARTCHAR ldsigmartbt
ENCODING 182
SWIDTH 430 0
DWIDTH 6 0
BBX 6 14 0 -2
BITMAP
00
00
00
00
00
08
08
F8
00
00
00
00
00
00
ENDCHAR

STARTCHAR ldsigmamid
ENCODING 183
SWIDTH 430 0
DWIDTH 6 0
BBX 6 14 0 -2
BITMAP
80
80
40
40
20
20
10
10
20
20
40
40
80
80
ENDCHAR

STARTCHAR lessequal
ENCODING 188
SWIDTH 430 0
DWIDTH 6 0
BBX 6 14 0 -2
BITMAP
00
00
00
00
08
10
20
40
20
10
08
7C
00
00
ENDCHAR

STARTCHAR notequal
ENCODING 189
SWIDTH 430 0
DWIDTH 6 0
BBX 6 14 0 -2
BITMAP
00
00
00
00
00
00
08
7C
10
7C
20
00
00
00
ENDCHAR

STARTCHAR greaterequal
ENCODING 190
SWIDTH 430 0
DWIDTH 6 0
BBX 6 14 0 -2
BITMAP
00
00
00
00
20
10
08
04
08
10
20
7C
00
00
ENDCHAR

STARTCHAR integral
ENCODING 191
SWIDTH 430 0
DWIDTH 6 0
BBX 6 14 0 -2
BITMAP
00
00
08
14
10
10
10
10
10
10
10
50
20
00
ENDCHAR

STARTCHAR therefore
ENCODING 192
SWIDTH 430 0
DWIDTH 6 0
BBX 6 14 0 -2
BITMAP
00
00
00
00
00
10
00
00
00
44
00
00
00
00
ENDCHAR

STARTCHAR proportional
ENCODING 193
SWIDTH 430 0
DWIDTH 6 0
BBX 6 14 0 -2
BITMAP
00
00
00
00
00
28
54
50
50
54
28
00
00
00
ENDCHAR

STARTCHAR infinity
ENCODING 194
SWIDTH 430 0
DWIDTH 6 0
BBX 6 14 0 -2
BITMAP
00
00
00
00
00
28
54
54
54
54
28
00
00
00
ENDCHAR

STARTCHAR divide
ENCODING 195
SWIDTH 430 0
DWIDTH 6 0
BBX 6 14 0 -2
BITMAP
00
00
00
00
00
10
00
7C
00
10
00
00
00
00
ENDCHAR

STARTCHAR Delta
ENCODING 196
SWIDTH 430 0
DWIDTH 6 0
BBX 6 14 0 -2
BITMAP
00
00
00
00
00
10
28
44
44
7C
00
00
00
00
ENDCHAR

STARTCHAR gradient
ENCODING 197
SWIDTH 430 0
DWIDTH 6 0
BBX 6 14 0 -2
BITMAP
00
00
00
00
00
7C
44
44
28
10
00
00
00
00
ENDCHAR

STARTCHAR Phi
ENCODING 198
SWIDTH 430 0
DWIDTH 6 0
BBX 6 14 0 -2
BITMAP
00
00
00
38
10
38
54
54
54
38
10
38
00
00
ENDCHAR

STARTCHAR Gamma
ENCODING 199
SWIDTH 430 0
DWIDTH 6 0
BBX 6 14 0 -2
BITMAP
00
00
00
7C
24
20
20
20
20
20
20
70
00
00
ENDCHAR

STARTCHAR similar
ENCODING 200
SWIDTH 430 0
DWIDTH 6 0
BBX 6 14 0 -2
BITMAP
00
00
00
00
00
00
24
54
54
48
00
00
00
00
ENDCHAR

STARTCHAR approxequal
ENCODING 201
SWIDTH 430 0
DWIDTH 6 0
BBX 6 14 0 -2
BITMAP
00
00
00
00
00
24
54
54
48
00
7C
00
00
00
ENDCHAR

STARTCHAR Theta
ENCODING 202
SWIDTH 430 0
DWIDTH 6 0
BBX 6 14 0 -2
BITMAP
00
00
00
10
28
44
44
6C
44
44
28
10
00
00
ENDCHAR

STARTCHAR multiply
ENCODING 203
SWIDTH 430 0
DWIDTH 6 0
BBX 6 14 0 -2
BITMAP
00
00
00
00
00
44
28
10
28
44
00
00
00
00
ENDCHAR

STARTCHAR Lambda
ENCODING 204
SWIDTH 430 0
DWIDTH 6 0
BBX 6 14 0 -2
BITMAP
00
00
00
10
10
28
28
28
44
44
44
7C
00
00
ENDCHAR

STARTCHAR arrowdblboth
ENCODING 205
SWIDTH 430 0
DWIDTH 6 0
BBX 6 14 0 -2
BITMAP
00
00
00
00
48
84
FC
00
FC
84
48
00
00
00
ENDCHAR

STARTCHAR arrowdblright
ENCODING 206
SWIDTH 430 0
DWIDTH 6 0
BBX 6 14 0 -2
BITMAP
00
00
00
00
20
10
78
04
78
10
20
00
00
00
ENDCHAR

STARTCHAR equivalence
ENCODING 207
SWIDTH 430 0
DWIDTH 6 0
BBX 6 14 0 -2
BITMAP
00
00
00
00
00
7C
00
7C
00
7C
00
00
00
00
ENDCHAR

STARTCHAR Pi
ENCODING 208
SWIDTH 430 0
DWIDTH 6 0
BBX 6 14 0 -2
BITMAP
00
00
00
7C
28
28
28
28
28
28
28
28
00
00
ENDCHAR

STARTCHAR Psi
ENCODING 209
SWIDTH 430 0
DWIDTH 6 0
BBX 6 14 0 -2
BITMAP
00
00
00
44
54
54
54
54
54
38
10
38
00
00
ENDCHAR

STARTCHAR Sigma
ENCODING 211
SWIDTH 430 0
DWIDTH 6 0
BBX 6 14 0 -2
BITMAP
00
00
00
7C
44
24
10
08
10
20
44
7C
00
00
ENDCHAR

STARTCHAR radical
ENCODING 214
SWIDTH 430 0
DWIDTH 6 0
BBX 6 14 0 -2
BITMAP
00
00
04
04
08
08
08
10
D0
50
20
20
00
00
ENDCHAR

STARTCHAR Omega
ENCODING 215
SWIDTH 430 0
DWIDTH 6 0
BBX 6 14 0 -2
BITMAP
00
00
00
38
44
44
44
44
44
28
28
6C
00
00
ENDCHAR

STARTCHAR Xi
ENCODING 216
SWIDTH 430 0
DWIDTH 6 0
BBX 6 14 0 -2
BITMAP
00
00
00
7C
00
00
00
38
00
00
00
7C
00
00
ENDCHAR

STARTCHAR Upsilon1
ENCODING 217
SWIDTH 430 0
DWIDTH 6 0
BBX 6 14 0 -2
BITMAP
00
00
00
44
44
44
28
28
10
10
10
10
00
00
ENDCHAR

STARTCHAR propersubset
ENCODING 218
SWIDTH 430 0
DWIDTH 6 0
BBX 6 14 0 -2
BITMAP
00
00
00
00
00
3C
40
40
40
3C
00
00
00
00
ENDCHAR

STARTCHAR propersuperset
ENCODING 219
SWIDTH 430 0
DWIDTH 6 0
BBX 6 14 0 -2
BITMAP
00
00
00
00
00
78
04
04
04
78
00
00
00
00
ENDCHAR

STARTCHAR intersection
ENCODING 220
SWIDTH 430 0
DWIDTH 6 0
BBX 6 14 0 -2
BITMAP
00
00
00
00
00
38
44
44
44
44
00
00
00
00
ENDCHAR

STARTCHAR union
ENCODING 221
SWIDTH 430 0
DWIDTH 6 0
BBX 6 14 0 -2
BITMAP
00
00
00
00
00
44
44
44
44
38
00
00
00
00
ENDCHAR

STARTCHAR logicaland
ENCODING 222
SWIDTH 430 0
DWIDTH 6 0
BBX 6 14 0 -2
BITMAP
00
00
00
00
00
10
38
28
44
44
00
00
00
00
ENDCHAR

STARTCHAR logicalor
ENCODING 223
SWIDTH 430 0
DWIDTH 6 0
BBX 6 14 0 -2
BITMAP
00
00
00
00
00
44
44
28
38
10
00
00
00
00
ENDCHAR

STARTCHAR logicalnot
ENCODING 224
SWIDTH 430 0
DWIDTH 6 0
BBX 6 14 0 -2
BITMAP
00
00
00
00
00
00
00
7C
04
04
00
00
00
00
ENDCHAR

STARTCHAR alpha
ENCODING 225
SWIDTH 430 0
DWIDTH 6 0
BBX 6 14 0 -2
BITMAP
00
00
00
00
00
10
2C
48
48
48
48
34
00
00
ENDCHAR

STARTCHAR beta
ENCODING 226
SWIDTH 430 0
DWIDTH 6 0
BBX 6 14 0 -2
BITMAP
00
00
00
18
14
24
24
38
48
48
C8
F0
00
00
ENDCHAR

STARTCHAR chi
ENCODING 227
SWIDTH 430 0
DWIDTH 6 0
BBX 6 14 0 -2
BITMAP
00
00
00
00
00
40
44
24
28
18
10
28
44
44
ENDCHAR

STARTCHAR delta
ENCODING 228
SWIDTH 430 0
DWIDTH 6 0
BBX 6 14 0 -2
BITMAP
00
00
00
18
24
24
10
28
44
44
44
38
00
00
ENDCHAR

STARTCHAR epsilon
ENCODING 229
SWIDTH 430 0
DWIDTH 6 0
BBX 6 14 0 -2
BITMAP
00
00
00
00
00
00
3C
40
78
40
40
3C
00
00
ENDCHAR

STARTCHAR phi
ENCODING 230
SWIDTH 430 0
DWIDTH 6 0
BBX 6 14 0 -2
BITMAP
00
00
00
00
00
04
38
4C
54
54
64
38
40
00
ENDCHAR

STARTCHAR gamma
ENCODING 231
SWIDTH 430 0
DWIDTH 6 0
BBX 6 14 0 -2
BITMAP
00
00
00
00
40
A4
24
28
18
10
10
30
20
20
ENDCHAR

STARTCHAR eta
ENCODING 232
SWIDTH 430 0
DWIDTH 6 0
BBX 6 14 0 -2
BITMAP
00
00
00
00
00
D8
64
44
44
44
44
44
04
04
ENDCHAR

STARTCHAR iota
ENCODING 233
SWIDTH 430 0
DWIDTH 6 0
BBX 6 14 0 -2
BITMAP
00
00
00
00
00
60
20
20
20
20
24
18
00
00
ENDCHAR

STARTCHAR theta
ENCODING 234
SWIDTH 430 0
DWIDTH 6 0
BBX 6 14 0 -2
BITMAP
00
00
00
18
24
24
44
7C
44
48
48
30
00
00
ENDCHAR

STARTCHAR kappa
ENCODING 235
SWIDTH 430 0
DWIDTH 6 0
BBX 6 14 0 -2
BITMAP
00
00
00
40
20
24
24
28
30
30
28
24
00
00
ENDCHAR

STARTCHAR lambda
ENCODING 236
SWIDTH 430 0
DWIDTH 6 0
BBX 6 14 0 -2
BITMAP
00
00
00
40
20
10
10
18
28
28
44
44
00
00
ENDCHAR

STARTCHAR nu
ENCODING 238
SWIDTH 430 0
DWIDTH 6 0
BBX 6 14 0 -2
BITMAP
00
00
00
00
00
44
24
24
24
24
28
70
00
00
ENDCHAR

STARTCHAR partialdiff
ENCODING 239
SWIDTH 430 0
DWIDTH 6 0
BBX 6 14 0 -2
BITMAP
00
00
00
00
00
70
08
1C
24
44
44
38
00
00
ENDCHAR

STARTCHAR pi
ENCODING 240
SWIDTH 430 0
DWIDTH 6 0
BBX 6 14 0 -2
BITMAP
00
00
00
00
00
7C
28
28
28
28
28
48
00
00
ENDCHAR

STARTCHAR psi
ENCODING 241
SWIDTH 430 0
DWIDTH 6 0
BBX 6 14 0 -2
BITMAP
00
00
00
00
10
10
54
54
54
38
10
10
10
00
ENDCHAR

STARTCHAR rho
ENCODING 242
SWIDTH 430 0
DWIDTH 6 0
BBX 6 14 0 -2
BITMAP
00
00
00
00
00
18
24
24
44
44
48
70
40
40
ENDCHAR

STARTCHAR sigma
ENCODING 243
SWIDTH 430 0
DWIDTH 6 0
BBX 6 14 0 -2
BITMAP
00
00
00
00
00
1C
28
44
44
44
44
38
00
00
ENDCHAR

STARTCHAR tau
ENCODING 244
SWIDTH 430 0
DWIDTH 6 0
BBX 6 14 0 -2
BITMAP
00
00
00
00
04
78
90
10
10
10
10
08
00
00
ENDCHAR

STARTCHAR florin
ENCODING 246
SWIDTH 430 0
DWIDTH 6 0
BBX 6 14 0 -2
BITMAP
00
00
00
08
14
10
10
38
10
10
10
10
50
20
ENDCHAR

STARTCHAR omega
ENCODING 247
SWIDTH 430 0
DWIDTH 6 0
BBX 6 14 0 -2
BITMAP
00
00
00
00
00
28
44
44
54
54
6C
28
00
00
ENDCHAR

STARTCHAR xi
ENCODING 248
SWIDTH 430 0
DWIDTH 6 0
BBX 6 14 0 -2
BITMAP
00
00
00
78
98
20
20
38
40
40
40
38
10
20
ENDCHAR

STARTCHAR upsilon
ENCODING 249
SWIDTH 430 0
DWIDTH 6 0
BBX 6 14 0 -2
BITMAP
00
00
00
00
80
44
44
44
44
48
48
30
00
00
ENDCHAR

STARTCHAR zeta
ENCODING 250
SWIDTH 430 0
DWIDTH 6 0
BBX 6 14 0 -2
BITMAP
00
00
00
78
98
20
20
40
40
40
40
38
10
20
ENDCHAR

STARTCHAR arrowleft
ENCODING 251
SWIDTH 430 0
DWIDTH 6 0
BBX 6 14 0 -2
BITMAP
00
00
00
00
00
10
20
7C
20
10
00
00
00
00
ENDCHAR

STARTCHAR arrowup
ENCODING 252
SWIDTH 430 0
DWIDTH 6 0
BBX 6 14 0 -2
BITMAP
00
00
00
00
00
10
38
54
10
10
10
00
00
00
ENDCHAR

STARTCHAR arrowright
ENCODING 253
SWIDTH 430 0
DWIDTH 6 0
BBX 6 14 0 -2
BITMAP
00
00
00
00
00
20
10
F8
10
20
00
00
00
00
ENDCHAR

STARTCHAR arrowdown
ENCODING 254
SWIDTH 430 0
DWIDTH 6 0
BBX 6 14 0 -2
BITMAP
00
00
00
00
00
10
10
10
54
38
10
00
00
00
ENDCHAR

ENDFONT
