STARTFONT 2.1
FONT -DEC-Terminal-Medium-R-Double Wide--14-100-100-100-C-160-DEC-DECtech
SIZE 10 100 100
FONTBOUNDINGBOX 16 15 0 -3

STARTPROPERTIES 24
FOUNDRY "DEC"
FAMILY_NAME "Terminal"
WEIGHT_NAME "Medium"
SLANT "R"
SETWIDTH_NAME "Double Wide"
ADD_STYLE_NAME ""
PIXEL_SIZE 14
POINT_SIZE 100
RESOLUTION_X 100
RESOLUTION_Y 100
SPACING "C"
AVERAGE_WIDTH 160
CHARSET_REGISTRY "DEC"
CHARSET_ENCODING "DECtech"
CAP_HEIGHT 10
COPYRIGHT "Copyright (c) 1991 Digital Equipment Corporation. All Rights Reserved."
_DEC_PRODUCTINFO "DECterm Fonts V2.2, 11-Nov-1991"
FULL_NAME "Terminal Double Wide"
WEIGHT 10
X_HEIGHT -2
QUAD_WIDTH 16
DEFAULT_CHAR 159
FONT_DESCENT 3
FONT_ASCENT 12
ENDPROPERTIES

CHARS 182

STARTCHAR space
ENCODING 32
SWIDTH 1140 0
DWIDTH 16 0
BBX 16 15 0 -3
BITMAP
0000
0000
0000
0000
0000
0000
0000
0000
0000
0000
0000
0000
0000
0000
0000
ENDCHAR

STARTCHAR exclam
ENCODING 33
SWIDTH 1140 0
DWIDTH 16 0
BBX 16 15 0 -3
BITMAP
0000
0000
0180
0180
0180
0180
0180
0180
0180
0000
0180
0180
0000
0000
0000
ENDCHAR

STARTCHAR quotedbl
ENCODING 34
SWIDTH 1140 0
DWIDTH 16 0
BBX 16 15 0 -3
BITMAP
0000
0660
0660
0660
0660
0000
0000
0000
0000
0000
0000
0000
0000
0000
0000
ENDCHAR

STARTCHAR numbersign
ENCODING 35
SWIDTH 1140 0
DWIDTH 16 0
BBX 16 15 0 -3
BITMAP
0000
0000
0000
0C30
0C30
3FFC
0C30
0C30
3FFC
0C30
0C30
0000
0000
0000
0000
ENDCHAR

STARTCHAR dollar
ENCODING 36
SWIDTH 1140 0
DWIDTH 16 0
BBX 16 15 0 -3
BITMAP
0000
00C0
00C0
07F8
0E1C
0E00
07F8
01FC
001C
0E1C
07F8
00C0
00C0
0000
0000
ENDCHAR

STARTCHAR percent
ENCODING 37
SWIDTH 1140 0
DWIDTH 16 0
BBX 16 15 0 -3
BITMAP
0000
0000
1E0C
3318
3330
1E60
00C0
0180
033C
0666
0C66
183C
0000
0000
0000
ENDCHAR

STARTCHAR ampersand
ENCODING 38
SWIDTH 1140 0
DWIDTH 16 0
BBX 16 15 0 -3
BITMAP
0000
0000
07C0
0E60
0C60
0CE0
07C0
0F8C
1CF8
3870
3CFC
1FCF
0000
0000
0000
ENDCHAR

STARTCHAR quoteright
ENCODING 39
SWIDTH 1140 0
DWIDTH 16 0
BBX 16 15 0 -3
BITMAP
0000
03C0
0300
0600
0000
0000
0000
0000
0000
0000
0000
0000
0000
0000
0000
ENDCHAR

STARTCHAR parenleft
ENCODING 40
SWIDTH 1140 0
DWIDTH 16 0
BBX 16 15 0 -3
BITMAP
0000
0030
0060
00E0
00C0
01C0
01C0
01C0
01C0
00C0
00E0
0060
0030
0000
0000
ENDCHAR

STARTCHAR parenright
ENCODING 41
SWIDTH 1140 0
DWIDTH 16 0
BBX 16 15 0 -3
BITMAP
0000
0C00
0600
0700
0300
0380
0380
0380
0380
0300
0700
0600
0C00
0000
0000
ENDCHAR

STARTCHAR asterisk
ENCODING 42
SWIDTH 1140 0
DWIDTH 16 0
BBX 16 15 0 -3
BITMAP
0000
0000
0C30
03C0
1FF8
03C0
0C30
0000
0000
0000
0000
0000
0000
0000
0000
ENDCHAR

STARTCHAR plus
ENCODING 43
SWIDTH 1140 0
DWIDTH 16 0
BBX 16 15 0 -3
BITMAP
0000
0000
0000
0000
0180
0180
0180
1FF8
0180
0180
0180
0000
0000
0000
0000
ENDCHAR

STARTCHAR comma
ENCODING 44
SWIDTH 1140 0
DWIDTH 16 0
BBX 16 15 0 -3
BITMAP
0000
0000
0000
0000
0000
0000
0000
0000
0000
0000
01C0
0180
0300
0600
0000
ENDCHAR

STARTCHAR minus
ENCODING 45
SWIDTH 1140 0
DWIDTH 16 0
BBX 16 15 0 -3
BITMAP
0000
0000
0000
0000
0000
0000
0000
1FF8
0000
0000
0000
0000
0000
0000
0000
ENDCHAR

STARTCHAR period
ENCODING 46
SWIDTH 1140 0
DWIDTH 16 0
BBX 16 15 0 -3
BITMAP
0000
0000
0000
0000
0000
0000
0000
0000
0000
0000
0380
0380
0000
0000
0000
ENDCHAR

STARTCHAR slash
ENCODING 47
SWIDTH 1140 0
DWIDTH 16 0
BBX 16 15 0 -3
BITMAP
0000
0038
0038
0070
0060
00E0
01C0
0380
0700
0600
0E00
1C00
1C00
0000
0000
ENDCHAR

STARTCHAR zero
ENCODING 48
SWIDTH 1140 0
DWIDTH 16 0
BBX 16 15 0 -3
BITMAP
0000
0000
03C0
0E70
0C30
1C38
1C38
1C38
1C38
0C30
0E70
03C0
0000
0000
0000
ENDCHAR

STARTCHAR one
ENCODING 49
SWIDTH 1140 0
DWIDTH 16 0
BBX 16 15 0 -3
BITMAP
0000
0000
01C0
03C0
07C0
0DC0
01C0
01C0
01C0
01C0
01C0
0FF8
0000
0000
0000
ENDCHAR

STARTCHAR two
ENCODING 50
SWIDTH 1140 0
DWIDTH 16 0
BBX 16 15 0 -3
BITMAP
0000
0000
0FF0
1C38
0038
0078
00F0
03C0
0700
0E18
1C18
1FF8
0000
0000
0000
ENDCHAR

STARTCHAR three
ENCODING 51
SWIDTH 1140 0
DWIDTH 16 0
BBX 16 15 0 -3
BITMAP
0000
0000
0FF0
1C78
0038
0070
03C0
0070
0038
1838
1C78
0FF0
0000
0000
0000
ENDCHAR

STARTCHAR four
ENCODING 52
SWIDTH 1140 0
DWIDTH 16 0
BBX 16 15 0 -3
BITMAP
0000
0000
0070
00F0
01F0
0370
0670
0C70
1870
1FFC
0070
0070
0000
0000
0000
ENDCHAR

STARTCHAR five
ENCODING 53
SWIDTH 1140 0
DWIDTH 16 0
BBX 16 15 0 -3
BITMAP
0000
0000
0FF8
0E18
0E00
0E00
0FF0
0E78
0038
0038
0E78
07F0
0000
0000
0000
ENDCHAR

STARTCHAR six
ENCODING 54
SWIDTH 1140 0
DWIDTH 16 0
BBX 16 15 0 -3
BITMAP
0000
0000
01F0
0738
0E00
1C00
1DF8
1E3C
1C1C
1C1C
0E38
07F0
0000
0000
0000
ENDCHAR

STARTCHAR seven
ENCODING 55
SWIDTH 1140 0
DWIDTH 16 0
BBX 16 15 0 -3
BITMAP
0000
0000
1FFC
183C
1878
00F0
00E0
01E0
03C0
03C0
0780
0780
0000
0000
0000
ENDCHAR

STARTCHAR eight
ENCODING 56
SWIDTH 1140 0
DWIDTH 16 0
BBX 16 15 0 -3
BITMAP
0000
0000
0FF0
1E78
1C38
0E70
07E0
0E70
1C38
1C38
1E78
0FF0
0000
0000
0000
ENDCHAR

STARTCHAR nine
ENCODING 57
SWIDTH 1140 0
DWIDTH 16 0
BBX 16 15 0 -3
BITMAP
0000
0000
0FE0
3C70
3838
3838
1C78
0FB8
0038
0070
1CE0
0F80
0000
0000
0000
ENDCHAR

STARTCHAR colon
ENCODING 58
SWIDTH 1140 0
DWIDTH 16 0
BBX 16 15 0 -3
BITMAP
0000
0000
0000
0000
0000
0380
0380
0000
0000
0000
0380
0380
0000
0000
0000
ENDCHAR

STARTCHAR semicolon
ENCODING 59
SWIDTH 1140 0
DWIDTH 16 0
BBX 16 15 0 -3
BITMAP
0000
0000
0000
0000
0000
0380
0380
0000
0000
0000
0380
0300
0600
0C00
0000
ENDCHAR

STARTCHAR less
ENCODING 60
SWIDTH 1140 0
DWIDTH 16 0
BBX 16 15 0 -3
BITMAP
0000
0000
0070
00E0
01C0
0380
0700
0700
0380
01C0
00E0
0070
0000
0000
0000
ENDCHAR

STARTCHAR equal
ENCODING 61
SWIDTH 1140 0
DWIDTH 16 0
BBX 16 15 0 -3
BITMAP
0000
0000
0000
0000
0000
0000
1FF8
0000
0000
1FF8
0000
0000
0000
0000
0000
ENDCHAR

STARTCHAR greater
ENCODING 62
SWIDTH 1140 0
DWIDTH 16 0
BBX 16 15 0 -3
BITMAP
0000
0000
0700
0380
01C0
00E0
0070
0070
00E0
01C0
0380
0700
0000
0000
0000
ENDCHAR

STARTCHAR question
ENCODING 63
SWIDTH 1140 0
DWIDTH 16 0
BBX 16 15 0 -3
BITMAP
0000
0000
0FF0
1C38
1838
0070
00E0
01C0
0180
0000
0180
0180
0000
0000
0000
ENDCHAR

STARTCHAR at
ENCODING 64
SWIDTH 1140 0
DWIDTH 16 0
BBX 16 15 0 -3
BITMAP
0000
0000
03FC
0E0E
1C07
38FF
3987
39CF
38F7
3800
1C00
07F8
0000
0000
0000
ENDCHAR

STARTCHAR A
ENCODING 65
SWIDTH 1140 0
DWIDTH 16 0
BBX 16 15 0 -3
BITMAP
0000
0000
00C0
01E0
03F0
0330
0738
0E1C
0FFC
1C0E
1C0E
3E1F
0000
0000
0000
ENDCHAR

STARTCHAR B
ENCODING 66
SWIDTH 1140 0
DWIDTH 16 0
BBX 16 15 0 -3
BITMAP
0000
0000
3FFC
1C1E
1C0E
1C1C
1FF8
1C1C
1C0E
1C0E
1C1E
3FFC
0000
0000
0000
ENDCHAR

STARTCHAR C
ENCODING 67
SWIDTH 1140 0
DWIDTH 16 0
BBX 16 15 0 -3
BITMAP
0000
0000
07FC
1E0E
1C06
3800
3800
3800
3802
1C06
1F0E
07FC
0000
0000
0000
ENDCHAR

STARTCHAR D
ENCODING 68
SWIDTH 1140 0
DWIDTH 16 0
BBX 16 15 0 -3
BITMAP
0000
0000
7FF0
1C3C
1C1C
1C0E
1C0E
1C0E
1C0E
1C1C
1C3C
7FF0
0000
0000
0000
ENDCHAR

STARTCHAR E
ENCODING 69
SWIDTH 1140 0
DWIDTH 16 0
BBX 16 15 0 -3
BITMAP
0000
0000
3FFC
0E0C
0E04
0E00
0FF0
0E00
0E00
0E04
0E0C
3FFC
0000
0000
0000
ENDCHAR

STARTCHAR F
ENCODING 70
SWIDTH 1140 0
DWIDTH 16 0
BBX 16 15 0 -3
BITMAP
0000
0000
1FFE
0706
0702
0700
0700
07F8
0700
0700
0700
1FC0
0000
0000
0000
ENDCHAR

STARTCHAR G
ENCODING 71
SWIDTH 1140 0
DWIDTH 16 0
BBX 16 15 0 -3
BITMAP
0000
0000
03FC
0E0C
1C04
3800
3800
383E
3806
1C06
1E0E
07FC
0000
0000
0000
ENDCHAR

STARTCHAR H
ENCODING 72
SWIDTH 1140 0
DWIDTH 16 0
BBX 16 15 0 -3
BITMAP
0000
0000
3E3E
1C1C
1C1C
1C1C
1FFC
1C1C
1C1C
1C1C
1C1C
3E3E
0000
0000
0000
ENDCHAR

STARTCHAR I
ENCODING 73
SWIDTH 1140 0
DWIDTH 16 0
BBX 16 15 0 -3
BITMAP
0000
0000
0FF8
01C0
01C0
01C0
01C0
01C0
01C0
01C0
01C0
0FF8
0000
0000
0000
ENDCHAR

STARTCHAR J
ENCODING 74
SWIDTH 1140 0
DWIDTH 16 0
BBX 16 15 0 -3
BITMAP
0000
0000
07F8
0038
0038
0038
0038
0038
0038
1838
1C78
0FF0
0000
0000
0000
ENDCHAR

STARTCHAR K
ENCODING 75
SWIDTH 1140 0
DWIDTH 16 0
BBX 16 15 0 -3
BITMAP
0000
0000
3F0E
0E1C
0E38
0E70
0EE0
0FF0
0E78
0E3C
0E1E
3F0F
0000
0000
0000
ENDCHAR

STARTCHAR L
ENCODING 76
SWIDTH 1140 0
DWIDTH 16 0
BBX 16 15 0 -3
BITMAP
0000
0000
1FC0
0700
0700
0700
0700
0700
0702
0706
070E
1FFE
0000
0000
0000
ENDCHAR

STARTCHAR M
ENCODING 77
SWIDTH 1140 0
DWIDTH 16 0
BBX 16 15 0 -3
BITMAP
0000
0000
3C0F
1E1E
1F3E
1D2E
1DEE
1CCE
1CCE
1CCE
1C0E
3C0F
0000
0000
0000
ENDCHAR

STARTCHAR N
ENCODING 78
SWIDTH 1140 0
DWIDTH 16 0
BBX 16 15 0 -3
BITMAP
0000
0000
3C0F
1E0E
1F0E
1D8E
1DCE
1CEE
1C6E
1C3E
1C1E
3C0E
0000
0000
0000
ENDCHAR

STARTCHAR O
ENCODING 79
SWIDTH 1140 0
DWIDTH 16 0
BBX 16 15 0 -3
BITMAP
0000
0000
07F0
1E3C
1C1C
380E
380E
380E
380E
1C1C
1E3C
07F0
0000
0000
0000
ENDCHAR

STARTCHAR P
ENCODING 80
SWIDTH 1140 0
DWIDTH 16 0
BBX 16 15 0 -3
BITMAP
0000
0000
3FFC
0E0E
0E07
0E07
0E07
0E0E
0FFC
0E00
0E00
3F80
0000
0000
0000
ENDCHAR

STARTCHAR Q
ENCODING 81
SWIDTH 1140 0
DWIDTH 16 0
BBX 16 15 0 -3
BITMAP
0000
0000
07F0
1C3C
181C
380E
380E
380E
380E
1C6C
1E3C
07F8
000E
0000
0000
ENDCHAR

STARTCHAR R
ENCODING 82
SWIDTH 1140 0
DWIDTH 16 0
BBX 16 15 0 -3
BITMAP
0000
0000
3FFC
0E1E
0E0E
0E0E
0E1C
0FF0
0E78
0E3C
0E1E
3F8F
0000
0000
0000
ENDCHAR

STARTCHAR S
ENCODING 83
SWIDTH 1140 0
DWIDTH 16 0
BBX 16 15 0 -3
BITMAP
0000
0000
03F8
0E0C
1C0C
1E00
0FF8
07FC
001E
180E
1C1C
0FF0
0000
0000
0000
ENDCHAR

STARTCHAR T
ENCODING 84
SWIDTH 1140 0
DWIDTH 16 0
BBX 16 15 0 -3
BITMAP
0000
0000
3FFE
31C6
21C2
01C0
01C0
01C0
01C0
01C0
01C0
07F0
0000
0000
0000
ENDCHAR

STARTCHAR U
ENCODING 85
SWIDTH 1140 0
DWIDTH 16 0
BBX 16 15 0 -3
BITMAP
0000
0000
3E3E
1C1C
1C1C
1C1C
1C1C
1C1C
1C1C
1C1C
0E38
07F0
0000
0000
0000
ENDCHAR

STARTCHAR V
ENCODING 86
SWIDTH 1140 0
DWIDTH 16 0
BBX 16 15 0 -3
BITMAP
0000
0000
780F
380E
1C1C
1C1C
0E38
0E38
0770
03E0
01C0
0080
0000
0000
0000
ENDCHAR

STARTCHAR W
ENCODING 87
SWIDTH 1140 0
DWIDTH 16 0
BBX 16 15 0 -3
BITMAP
0000
0000
F00F
F00F
718E
399C
3BDC
3BDC
1E78
1E78
1C38
1C38
0000
0000
0000
ENDCHAR

STARTCHAR X
ENCODING 88
SWIDTH 1140 0
DWIDTH 16 0
BBX 16 15 0 -3
BITMAP
0000
0000
781E
1C38
0E70
07E0
03C0
03C0
07E0
0E70
1C38
781E
0000
0000
0000
ENDCHAR

STARTCHAR Y
ENCODING 89
SWIDTH 1140 0
DWIDTH 16 0
BBX 16 15 0 -3
BITMAP
0000
0000
780F
1C1C
0E38
0770
0360
01C0
01C0
01C0
01C0
03E0
0000
0000
0000
ENDCHAR

STARTCHAR Z
ENCODING 90
SWIDTH 1140 0
DWIDTH 16 0
BBX 16 15 0 -3
BITMAP
0000
0000
1FFC
183C
1078
00F0
01E0
03C0
0780
0F04
1E0C
1FFC
0000
0000
0000
ENDCHAR

STARTCHAR bracketleft
ENCODING 91
SWIDTH 1140 0
DWIDTH 16 0
BBX 16 15 0 -3
BITMAP
0000
01F8
01C0
01C0
01C0
01C0
01C0
01C0
01C0
01C0
01C0
01C0
01F8
0000
0000
ENDCHAR

STARTCHAR backslash
ENCODING 92
SWIDTH 1140 0
DWIDTH 16 0
BBX 16 15 0 -3
BITMAP
0000
1C00
1C00
0E00
0600
0700
0380
01C0
00E0
0060
0070
0038
0038
0000
0000
ENDCHAR

STARTCHAR bracketright
ENCODING 93
SWIDTH 1140 0
DWIDTH 16 0
BBX 16 15 0 -3
BITMAP
0000
1F80
0380
0380
0380
0380
0380
0380
0380
0380
0380
0380
1F80
0000
0000
ENDCHAR

STARTCHAR asciicircum
ENCODING 94
SWIDTH 1140 0
DWIDTH 16 0
BBX 16 15 0 -3
BITMAP
0000
0000
0000
0000
01C0
03E0
0770
0E38
0000
0000
0000
0000
0000
0000
0000
ENDCHAR

STARTCHAR ldblank
ENCODING 95
SWIDTH 1140 0
DWIDTH 16 0
BBX 16 15 0 -3
BITMAP
0000
0000
0000
0000
0000
0000
0000
0000
0000
0000
0000
0000
0000
0000
0000
ENDCHAR

STARTCHAR diamond
ENCODING 96
SWIDTH 1140 0
DWIDTH 16 0
BBX 16 15 0 -3
BITMAP
0000
0000
0000
0000
0000
0000
0180
07E0
1FF8
7FFE
1FF8
07E0
0180
0000
0000
ENDCHAR

STARTCHAR checkerboard
ENCODING 97
SWIDTH 1140 0
DWIDTH 16 0
BBX 16 15 0 -3
BITMAP
3333
CCCC
3333
CCCC
3333
CCCC
3333
CCCC
3333
CCCC
3333
CCCC
3333
CCCC
3333
ENDCHAR

STARTCHAR HT
ENCODING 98
SWIDTH 1140 0
DWIDTH 16 0
BBX 16 15 0 -3
BITMAP
0000
30C0
30C0
3FC0
30C0
30C0
30C0
0000
0FFC
00C0
00C0
00C0
00C0
00C0
0000
ENDCHAR

STARTCHAR FF
ENCODING 99
SWIDTH 1140 0
DWIDTH 16 0
BBX 16 15 0 -3
BITMAP
0000
3F00
3000
3000
3F00
3000
3000
30FC
00C0
00C0
00FC
00C0
00C0
00C0
0000
ENDCHAR

STARTCHAR CR
ENCODING 100
SWIDTH 1140 0
DWIDTH 16 0
BBX 16 15 0 -3
BITMAP
0000
1FC0
3060
3000
3060
1FC0
0000
0FF8
0C0C
0C0C
0FF8
0C30
0C0C
0000
0000
ENDCHAR

STARTCHAR LF
ENCODING 101
SWIDTH 1140 0
DWIDTH 16 0
BBX 16 15 0 -3
BITMAP
0000
3000
3000
3000
3000
3000
3FC0
0000
03FC
0300
0300
03FC
0300
0300
0000
ENDCHAR

STARTCHAR degree
ENCODING 102
SWIDTH 1140 0
DWIDTH 16 0
BBX 16 15 0 -3
BITMAP
0000
0000
07E0
0C30
0C30
07E0
0000
0000
0000
0000
0000
0000
0000
0000
0000
ENDCHAR

STARTCHAR plusminus
ENCODING 103
SWIDTH 1140 0
DWIDTH 16 0
BBX 16 15 0 -3
BITMAP
0000
0000
0000
0180
0180
0180
1FF8
0180
0180
0180
0000
1FF8
0000
0000
0000
ENDCHAR

STARTCHAR NL
ENCODING 104
SWIDTH 1140 0
DWIDTH 16 0
BBX 16 15 0 -3
BITMAP
0000
0000
3830
3E30
3330
31F0
3070
0000
0300
0300
0300
0300
03FC
0000
0000
ENDCHAR

STARTCHAR VT
ENCODING 105
SWIDTH 1140 0
DWIDTH 16 0
BBX 16 15 0 -3
BITMAP
0000
0000
3030
3030
3030
1CE0
0780
0000
0FFC
00C0
00C0
00C0
00C0
0000
0000
ENDCHAR

STARTCHAR ldcornsqlr
ENCODING 106
SWIDTH 1140 0
DWIDTH 16 0
BBX 16 15 0 -3
BITMAP
0180
0180
0180
0180
0180
0180
0180
FF80
0000
0000
0000
0000
0000
0000
0000
ENDCHAR

STARTCHAR ldcornsqur
ENCODING 107
SWIDTH 1140 0
DWIDTH 16 0
BBX 16 15 0 -3
BITMAP
0000
0000
0000
0000
0000
0000
0000
FF80
0180
0180
0180
0180
0180
0180
0180
ENDCHAR

STARTCHAR ldcornsqul
ENCODING 108
SWIDTH 1140 0
DWIDTH 16 0
BBX 16 15 0 -3
BITMAP
0000
0000
0000
0000
0000
0000
0000
01FF
0180
0180
0180
0180
0180
0180
0180
ENDCHAR

STARTCHAR ldcornsqll
ENCODING 109
SWIDTH 1140 0
DWIDTH 16 0
BBX 16 15 0 -3
BITMAP
0180
0180
0180
0180
0180
0180
0180
01FF
0000
0000
0000
0000
0000
0000
0000
ENDCHAR

STARTCHAR ldcross
ENCODING 110
SWIDTH 1140 0
DWIDTH 16 0
BBX 16 15 0 -3
BITMAP
0180
0180
0180
0180
0180
0180
0180
FFFF
0180
0180
0180
0180
0180
0180
0180
ENDCHAR

STARTCHAR ldscan1
ENCODING 111
SWIDTH 1140 0
DWIDTH 16 0
BBX 16 15 0 -3
BITMAP
0000
FFFF
0000
0000
0000
0000
0000
0000
0000
0000
0000
0000
0000
0000
0000
ENDCHAR

STARTCHAR ldscan3
ENCODING 112
SWIDTH 1140 0
DWIDTH 16 0
BBX 16 15 0 -3
BITMAP
0000
0000
0000
0000
FFFF
0000
0000
0000
0000
0000
0000
0000
0000
0000
0000
ENDCHAR

STARTCHAR ldhorizontal
ENCODING 113
SWIDTH 1140 0
DWIDTH 16 0
BBX 16 15 0 -3
BITMAP
0000
0000
0000
0000
0000
0000
0000
FFFF
0000
0000
0000
0000
0000
0000
0000
ENDCHAR

STARTCHAR ldscan7
ENCODING 114
SWIDTH 1140 0
DWIDTH 16 0
BBX 16 15 0 -3
BITMAP
0000
0000
0000
0000
0000
0000
0000
0000
0000
0000
0000
FFFF
0000
0000
0000
ENDCHAR

STARTCHAR ldscan9
ENCODING 115
SWIDTH 1140 0
DWIDTH 16 0
BBX 16 15 0 -3
BITMAP
0000
0000
0000
0000
0000
0000
0000
0000
0000
0000
0000
0000
0000
0000
FFFF
ENDCHAR

STARTCHAR ldteelft
ENCODING 116
SWIDTH 1140 0
DWIDTH 16 0
BBX 16 15 0 -3
BITMAP
0180
0180
0180
0180
0180
0180
0180
01FF
0180
0180
0180
0180
0180
0180
0180
ENDCHAR

STARTCHAR ldteert
ENCODING 117
SWIDTH 1140 0
DWIDTH 16 0
BBX 16 15 0 -3
BITMAP
0180
0180
0180
0180
0180
0180
0180
FF80
0180
0180
0180
0180
0180
0180
0180
ENDCHAR

STARTCHAR ldteebt
ENCODING 118
SWIDTH 1140 0
DWIDTH 16 0
BBX 16 15 0 -3
BITMAP
0180
0180
0180
0180
0180
0180
0180
FFFF
0000
0000
0000
0000
0000
0000
0000
ENDCHAR

STARTCHAR ldteetp
ENCODING 119
SWIDTH 1140 0
DWIDTH 16 0
BBX 16 15 0 -3
BITMAP
0000
0000
0000
0000
0000
0000
0000
FFFF
0180
0180
0180
0180
0180
0180
0180
ENDCHAR

STARTCHAR ldvertical
ENCODING 120
SWIDTH 1140 0
DWIDTH 16 0
BBX 16 15 0 -3
BITMAP
0180
0180
0180
0180
0180
0180
0180
0180
0180
0180
0180
0180
0180
0180
0180
ENDCHAR

STARTCHAR lessequal
ENCODING 121
SWIDTH 1140 0
DWIDTH 16 0
BBX 16 15 0 -3
BITMAP
0000
0000
0000
0078
01E0
0700
1E00
0700
01E0
0078
0000
1FF8
0000
0000
0000
ENDCHAR

STARTCHAR greaterequal
ENCODING 122
SWIDTH 1140 0
DWIDTH 16 0
BBX 16 15 0 -3
BITMAP
0000
0000
0000
1E00
0780
00E0
0078
00E0
0780
1E00
0000
1FF8
0000
0000
0000
ENDCHAR

STARTCHAR pi
ENCODING 123
SWIDTH 1140 0
DWIDTH 16 0
BBX 16 15 0 -3
BITMAP
0000
0000
0000
0000
3FFE
0E38
0E38
0E38
0E38
0E38
0E38
3C38
0000
0000
0000
ENDCHAR

STARTCHAR notequal
ENCODING 124
SWIDTH 1140 0
DWIDTH 16 0
BBX 16 15 0 -3
BITMAP
0000
0000
0000
0018
0030
0060
1FF8
0180
0300
1FF8
0600
0C00
1800
0000
0000
ENDCHAR

STARTCHAR sterling
ENCODING 125
SWIDTH 1140 0
DWIDTH 16 0
BBX 16 15 0 -3
BITMAP
0000
0000
01F0
03D8
0380
0380
0FF0
0380
0380
0380
07DC
0E78
0000
0000
0000
ENDCHAR

STARTCHAR periodcentered
ENCODING 126
SWIDTH 1140 0
DWIDTH 16 0
BBX 16 15 0 -3
BITMAP
0000
0000
0000
0000
0000
0000
0180
0180
0000
0000
0000
0000
0000
0000
0000
ENDCHAR

STARTCHAR Error
ENCODING 159
SWIDTH 1140 0
DWIDTH 16 0
BBX 16 15 0 -3
BITMAP
07E0
1FF8
3C7C
3C3C
3E00
1F00
0F80
0780
07C0
03C0
03C0
0000
03C0
03C0
03C0
ENDCHAR

STARTCHAR space
ENCODING 160
SWIDTH 1140 0
DWIDTH 16 0
BBX 16 15 0 -3
BITMAP
0000
0000
0000
0000
0000
0000
0000
0000
0000
0000
0000
0000
0000
0000
0000
ENDCHAR

STARTCHAR ldradicalbt
ENCODING 161
SWIDTH 1140 0
DWIDTH 16 0
BBX 16 15 0 -3
BITMAP
0180
0180
0180
0180
0180
0180
0180
3980
0D80
0380
0180
0080
0000
0000
0000
ENDCHAR

STARTCHAR ldradicaltp
ENCODING 162
SWIDTH 1140 0
DWIDTH 16 0
BBX 16 15 0 -3
BITMAP
0000
0000
0000
0000
0000
0000
0000
0000
01FF
0180
0180
0180
0180
0180
0180
ENDCHAR

STARTCHAR ldhorizontal
ENCODING 163
SWIDTH 1140 0
DWIDTH 16 0
BBX 16 15 0 -3
BITMAP
0000
0000
0000
0000
0000
0000
0000
FFFF
0000
0000
0000
0000
0000
0000
0000
ENDCHAR

STARTCHAR ldintegraltp
ENCODING 164
SWIDTH 1140 0
DWIDTH 16 0
BBX 16 15 0 -3
BITMAP
0000
0000
0000
0000
0078
00CC
0180
0180
0180
0180
0180
0180
0180
0180
0180
ENDCHAR

STARTCHAR ldintegralbt
ENCODING 165
SWIDTH 1140 0
DWIDTH 16 0
BBX 16 15 0 -3
BITMAP
0180
0180
0180
0180
0180
0180
0180
0180
0180
1980
0F00
0000
0000
0000
0000
ENDCHAR

STARTCHAR ldvertical
ENCODING 166
SWIDTH 1140 0
DWIDTH 16 0
BBX 16 15 0 -3
BITMAP
0180
0180
0180
0180
0180
0180
0180
0180
0180
0180
0180
0180
0180
0180
0180
ENDCHAR

STARTCHAR ldbracketlfttp
ENCODING 167
SWIDTH 1140 0
DWIDTH 16 0
BBX 16 15 0 -3
BITMAP
0000
01FE
0180
0180
0180
0180
0180
0180
0180
0180
0180
0180
0180
0180
0180
ENDCHAR

STARTCHAR ldbracketlftbt
ENCODING 168
SWIDTH 1140 0
DWIDTH 16 0
BBX 16 15 0 -3
BITMAP
0180
0180
0180
0180
0180
0180
0180
0180
0180
0180
0180
0180
0180
01FE
0000
ENDCHAR

STARTCHAR ldbracketrttp
ENCODING 169
SWIDTH 1140 0
DWIDTH 16 0
BBX 16 15 0 -3
BITMAP
0000
1F80
0180
0180
0180
0180
0180
0180
0180
0180
0180
0180
0180
0180
0180
ENDCHAR

STARTCHAR ldbracketrtbt
ENCODING 170
SWIDTH 1140 0
DWIDTH 16 0
BBX 16 15 0 -3
BITMAP
0180
0180
0180
0180
0180
0180
0180
0180
0180
0180
0180
0180
0180
1F80
0000
ENDCHAR

STARTCHAR ldbracelfttp
ENCODING 171
SWIDTH 1140 0
DWIDTH 16 0
BBX 16 15 0 -3
BITMAP
0000
007C
00C0
0180
0180
0180
0180
0180
0180
0180
0180
0180
0180
0180
0180
ENDCHAR

STARTCHAR ldbracelftbt
ENCODING 172
SWIDTH 1140 0
DWIDTH 16 0
BBX 16 15 0 -3
BITMAP
0180
0180
0180
0180
0180
0180
0180
0180
0180
0180
0180
0180
00C0
007C
0000
ENDCHAR

STARTCHAR ldbracerttp
ENCODING 173
SWIDTH 1140 0
DWIDTH 16 0
BBX 16 15 0 -3
BITMAP
0000
3E00
0300
0180
0180
0180
0180
0180
0180
0180
0180
0180
0180
0180
0180
ENDCHAR

STARTCHAR ldbracertbt
ENCODING 174
SWIDTH 1140 0
DWIDTH 16 0
BBX 16 15 0 -3
BITMAP
0180
0180
0180
0180
0180
0180
0180
0180
0180
0180
0180
0180
0300
3E00
0000
ENDCHAR

STARTCHAR ldbracelftmid
ENCODING 175
SWIDTH 1140 0
DWIDTH 16 0
BBX 16 15 0 -3
BITMAP
0180
0180
0180
0180
0180
0300
0600
0300
0180
0180
0180
0180
0180
0180
0180
ENDCHAR

STARTCHAR ldbracertmid
ENCODING 176
SWIDTH 1140 0
DWIDTH 16 0
BBX 16 15 0 -3
BITMAP
0180
0180
0180
0180
0180
00C0
0060
00C0
0180
0180
0180
0180
0180
0180
0180
ENDCHAR

STARTCHAR ldsigmalfttp
ENCODING 177
SWIDTH 1140 0
DWIDTH 16 0
BBX 16 15 0 -3
BITMAP
0000
0000
0000
0000
0000
0000
0000
007F
0060
0030
0018
000C
0006
0003
0001
ENDCHAR

STARTCHAR ldsigmalftbt
ENCODING 178
SWIDTH 1140 0
DWIDTH 16 0
BBX 16 15 0 -3
BITMAP
0001
0003
0006
000C
0018
0030
0060
007F
0000
0000
0000
0000
0000
0000
0000
ENDCHAR

STARTCHAR ldbackslash
ENCODING 179
SWIDTH 1140 0
DWIDTH 16 0
BBX 16 15 0 -3
BITMAP
C000
6000
3000
1800
0C00
0600
0380
01C0
0060
0030
0018
000C
0006
0003
0001
ENDCHAR

STARTCHAR ldslash
ENCODING 180
SWIDTH 1140 0
DWIDTH 16 0
BBX 16 15 0 -3
BITMAP
0001
0003
0006
000C
0018
0030
00E0
01C0
0300
0600
0C00
1800
3000
6000
C000
ENDCHAR

STARTCHAR ldsigmarttp
ENCODING 181
SWIDTH 1140 0
DWIDTH 16 0
BBX 16 15 0 -3
BITMAP
0000
0000
0000
0000
0000
0000
0000
FFF8
0018
0018
0000
0000
0000
0000
0000
ENDCHAR

STARTCHAR ldsigmartbt
ENCODING 182
SWIDTH 1140 0
DWIDTH 16 0
BBX 16 15 0 -3
BITMAP
0000
0000
0000
0000
0000
0018
0018
FFF8
0000
0000
0000
0000
0000
0000
0000
ENDCHAR

STARTCHAR ldsigmamid
ENCODING 183
SWIDTH 1140 0
DWIDTH 16 0
BBX 16 15 0 -3
BITMAP
C000
6000
3000
1800
0C00
0600
0300
0300
0300
0600
0C00
1800
3000
6000
C000
ENDCHAR

STARTCHAR lessequal
ENCODING 188
SWIDTH 1140 0
DWIDTH 16 0
BBX 16 15 0 -3
BITMAP
0000
0000
0000
0078
01E0
0700
1E00
0700
01E0
0078
0000
1FF8
0000
0000
0000
ENDCHAR

STARTCHAR notequal
ENCODING 189
SWIDTH 1140 0
DWIDTH 16 0
BBX 16 15 0 -3
BITMAP
0000
0000
0000
0018
0030
0060
1FF8
0180
0300
1FF8
0600
0C00
1800
0000
0000
ENDCHAR

STARTCHAR greaterequal
ENCODING 190
SWIDTH 1140 0
DWIDTH 16 0
BBX 16 15 0 -3
BITMAP
0000
0000
0000
1E00
0780
00E0
0078
00E0
0780
1E00
0000
1FF8
0000
0000
0000
ENDCHAR

STARTCHAR integral
ENCODING 191
SWIDTH 1140 0
DWIDTH 16 0
BBX 16 15 0 -3
BITMAP
0000
01F0
0398
0380
0380
0380
0380
0380
0380
0380
0380
3380
1F00
0000
0000
ENDCHAR

STARTCHAR therefore
ENCODING 192
SWIDTH 1140 0
DWIDTH 16 0
BBX 16 15 0 -3
BITMAP
0000
0000
0000
0000
0180
0180
0000
0000
0000
1818
1818
0000
0000
0000
0000
ENDCHAR

STARTCHAR proportional
ENCODING 193
SWIDTH 1140 0
DWIDTH 16 0
BBX 16 15 0 -3
BITMAP
0000
0000
0000
0000
0000
1E78
3BD8
3180
3BD8
1E78
0000
0000
0000
0000
0000
ENDCHAR

STARTCHAR infinity
ENCODING 194
SWIDTH 1140 0
DWIDTH 16 0
BBX 16 15 0 -3
BITMAP
0000
0000
0000
0000
0000
1E78
3BDC
318C
3BDC
1E78
0000
0000
0000
0000
0000
ENDCHAR

STARTCHAR divide
ENCODING 195
SWIDTH 1140 0
DWIDTH 16 0
BBX 16 15 0 -3
BITMAP
0000
0000
0000
0000
0180
0180
0000
1FF8
0000
0180
0180
0000
0000
0000
0000
ENDCHAR

STARTCHAR Delta
ENCODING 196
SWIDTH 1140 0
DWIDTH 16 0
BBX 16 15 0 -3
BITMAP
0000
0000
0000
0000
0180
03C0
0660
0C30
1818
1818
1FF8
0000
0000
0000
0000
ENDCHAR

STARTCHAR gradient
ENCODING 197
SWIDTH 1140 0
DWIDTH 16 0
BBX 16 15 0 -3
BITMAP
0000
0000
0000
0000
1FF8
1818
1818
0C30
0660
03C0
0180
0000
0000
0000
0000
ENDCHAR

STARTCHAR Phi
ENCODING 198
SWIDTH 1140 0
DWIDTH 16 0
BBX 16 15 0 -3
BITMAP
0000
0000
07E0
0180
0FF0
1998
1998
1998
1998
0FF0
0180
07E0
0000
0000
0000
ENDCHAR

STARTCHAR Gamma
ENCODING 199
SWIDTH 1140 0
DWIDTH 16 0
BBX 16 15 0 -3
BITMAP
0000
0000
1FF8
0618
0608
0600
0600
0600
0600
0600
0600
1F80
0000
0000
0000
ENDCHAR

STARTCHAR similar
ENCODING 200
SWIDTH 1140 0
DWIDTH 16 0
BBX 16 15 0 -3
BITMAP
0000
0000
0000
0000
0000
0000
0706
0FCC
19F8
3070
0000
0000
0000
0000
0000
ENDCHAR

STARTCHAR approxequal
ENCODING 201
SWIDTH 1140 0
DWIDTH 16 0
BBX 16 15 0 -3
BITMAP
0000
0000
0000
0000
0000
0706
0FCC
19F8
3070
0000
3FFE
0000
0000
0000
0000
ENDCHAR

STARTCHAR Theta
ENCODING 202
SWIDTH 1140 0
DWIDTH 16 0
BBX 16 15 0 -3
BITMAP
0000
0000
0FF0
1C38
1818
381C
3A5C
3A5C
381C
1818
1C38
0FF0
0000
0000
0000
ENDCHAR

STARTCHAR multiply
ENCODING 203
SWIDTH 1140 0
DWIDTH 16 0
BBX 16 15 0 -3
BITMAP
0000
0000
0000
0000
0000
0000
1C38
07E0
0180
07E0
1C38
0000
0000
0000
0000
ENDCHAR

STARTCHAR Lambda
ENCODING 204
SWIDTH 1140 0
DWIDTH 16 0
BBX 16 15 0 -3
BITMAP
0000
0000
03C0
0E70
0C30
1C38
1C38
1C38
1C38
1C38
1C38
7C3E
0000
0000
0000
ENDCHAR

STARTCHAR arrowdblboth
ENCODING 205
SWIDTH 1140 0
DWIDTH 16 0
BBX 16 15 0 -3
BITMAP
0000
0000
0000
0000
0810
1008
3FFC
700E
3FFC
1008
0810
0000
0000
0000
0000
ENDCHAR

STARTCHAR arrowdblright
ENCODING 206
SWIDTH 1140 0
DWIDTH 16 0
BBX 16 15 0 -3
BITMAP
0000
0000
0000
0000
0010
0008
1FFC
000E
1FFC
0008
0010
0000
0000
0000
0000
ENDCHAR

STARTCHAR equivalence
ENCODING 207
SWIDTH 1140 0
DWIDTH 16 0
BBX 16 15 0 -3
BITMAP
0000
0000
0000
0000
0000
3FFC
0000
3FFC
0000
3FFC
0000
0000
0000
0000
0000
ENDCHAR

STARTCHAR Pi
ENCODING 208
SWIDTH 1140 0
DWIDTH 16 0
BBX 16 15 0 -3
BITMAP
0000
0000
7FFC
1C70
1C70
1C70
1C70
1C70
1C70
1C70
1C70
3C78
0000
0000
0000
ENDCHAR

STARTCHAR Psi
ENCODING 209
SWIDTH 1140 0
DWIDTH 16 0
BBX 16 15 0 -3
BITMAP
0000
0000
799E
399C
399C
399C
399C
1998
0FF0
0180
0180
07E0
0000
0000
0000
ENDCHAR

STARTCHAR Sigma
ENCODING 211
SWIDTH 1140 0
DWIDTH 16 0
BBX 16 15 0 -3
BITMAP
0000
0000
3FFC
1C0C
0E04
0700
0380
0380
0700
0E04
1C0C
3FFC
0000
0000
0000
ENDCHAR

STARTCHAR radical
ENCODING 214
SWIDTH 1140 0
DWIDTH 16 0
BBX 16 15 0 -3
BITMAP
0007
000E
001C
0038
0070
00E0
31C0
7B80
1F00
1E00
0C00
0000
0000
0000
0000
ENDCHAR

STARTCHAR Omega
ENCODING 215
SWIDTH 1140 0
DWIDTH 16 0
BBX 16 15 0 -3
BITMAP
0000
0000
07E0
1E78
1C38
381C
381C
1C38
1E78
0660
2664
3E7C
0000
0000
0000
ENDCHAR

STARTCHAR Xi
ENCODING 216
SWIDTH 1140 0
DWIDTH 16 0
BBX 16 15 0 -3
BITMAP
0000
0000
1FF8
1FF8
0000
0000
0FF0
0FF0
0000
0000
1FF8
1FF8
0000
0000
0000
ENDCHAR

STARTCHAR Upsilon1
ENCODING 217
SWIDTH 1140 0
DWIDTH 16 0
BBX 16 15 0 -3
BITMAP
0000
0000
780F
1C1C
0E38
0770
0360
01C0
01C0
01C0
01C0
03E0
0000
0000
0000
ENDCHAR

STARTCHAR propersubset
ENCODING 218
SWIDTH 1140 0
DWIDTH 16 0
BBX 16 15 0 -3
BITMAP
0000
0000
0000
0000
0FF8
1C00
1C00
1C00
1C00
1C00
0FF8
0000
0000
0000
0000
ENDCHAR

STARTCHAR propersuperset
ENCODING 219
SWIDTH 1140 0
DWIDTH 16 0
BBX 16 15 0 -3
BITMAP
0000
0000
0000
0000
1FF0
0038
0038
0038
0038
0038
1FF0
0000
0000
0000
0000
ENDCHAR

STARTCHAR intersection
ENCODING 220
SWIDTH 1140 0
DWIDTH 16 0
BBX 16 15 0 -3
BITMAP
0000
0000
0000
0000
0FF8
1C1C
1C1C
1C1C
1C1C
1C1C
1C1C
0000
0000
0000
0000
ENDCHAR

STARTCHAR union
ENCODING 221
SWIDTH 1140 0
DWIDTH 16 0
BBX 16 15 0 -3
BITMAP
0000
0000
0000
0000
1C1C
1C1C
1C1C
1C1C
1C1C
1C1C
0FF8
0000
0000
0000
0000
ENDCHAR

STARTCHAR logicaland
ENCODING 222
SWIDTH 1140 0
DWIDTH 16 0
BBX 16 15 0 -3
BITMAP
0000
0000
0000
0000
0180
03C0
0660
0C30
1C38
1818
1818
0000
0000
0000
0000
ENDCHAR

STARTCHAR logicalor
ENCODING 223
SWIDTH 1140 0
DWIDTH 16 0
BBX 16 15 0 -3
BITMAP
0000
0000
0000
0000
1818
1818
1C38
0C30
0660
03C0
0180
0000
0000
0000
0000
ENDCHAR

STARTCHAR logicalnot
ENCODING 224
SWIDTH 1140 0
DWIDTH 16 0
BBX 16 15 0 -3
BITMAP
0000
0000
0000
0000
0000
0000
0000
1FF8
0018
0018
0000
0000
0000
0000
0000
ENDCHAR

STARTCHAR alpha
ENCODING 225
SWIDTH 1140 0
DWIDTH 16 0
BBX 16 15 0 -3
BITMAP
0000
0000
0000
0000
078E
1CDC
3878
3870
3870
3878
1CDC
0F8E
0000
0000
0000
ENDCHAR

STARTCHAR beta
ENCODING 226
SWIDTH 1140 0
DWIDTH 16 0
BBX 16 15 0 -3
BITMAP
0000
0000
01F8
039C
071C
0738
0FF0
0E38
1E18
1E1C
3F3C
3BF8
0000
0000
0000
ENDCHAR

STARTCHAR chi
ENCODING 227
SWIDTH 1140 0
DWIDTH 16 0
BBX 16 15 0 -3
BITMAP
0000
0000
0000
0000
0F07
1F8E
19DC
00F8
0070
00F0
01D8
039C
070C
0E0E
1C0E
ENDCHAR

STARTCHAR delta
ENCODING 228
SWIDTH 1140 0
DWIDTH 16 0
BBX 16 15 0 -3
BITMAP
0000
07F0
0E38
0700
0780
1CE0
3870
3870
3870
3870
1CE0
0FC0
0000
0000
0000
ENDCHAR

STARTCHAR epsilon
ENCODING 229
SWIDTH 1140 0
DWIDTH 16 0
BBX 16 15 0 -3
BITMAP
0000
0000
0000
0000
0FF8
1C00
1C00
1FF8
1C00
1C00
1C00
0FF8
0000
0000
0000
ENDCHAR

STARTCHAR phi
ENCODING 230
SWIDTH 1140 0
DWIDTH 16 0
BBX 16 15 0 -3
BITMAP
0000
0000
0030
0030
0FF0
18D8
38DC
399C
399C
3B1C
1B18
0FF0
0C00
0C00
0000
ENDCHAR

STARTCHAR gamma
ENCODING 231
SWIDTH 1140 0
DWIDTH 16 0
BBX 16 15 0 -3
BITMAP
0000
0000
0000
0000
0F0E
1F0E
338E
018C
01CC
00D8
00F0
00E0
01C0
0780
0700
ENDCHAR

STARTCHAR eta
ENCODING 232
SWIDTH 1140 0
DWIDTH 16 0
BBX 16 15 0 -3
BITMAP
0000
0000
0000
0000
39F8
0F3C
0E1C
0E1C
0E1C
0E1C
0E1C
0E1C
001C
001C
001C
ENDCHAR

STARTCHAR iota
ENCODING 233
SWIDTH 1140 0
DWIDTH 16 0
BBX 16 15 0 -3
BITMAP
0000
0000
0000
0000
0700
0700
0700
0700
0700
0700
0738
03E0
0000
0000
0000
ENDCHAR

STARTCHAR theta
ENCODING 234
SWIDTH 1140 0
DWIDTH 16 0
BBX 16 15 0 -3
BITMAP
0000
01F0
0718
0E1C
1C1C
1C1C
3FFC
3838
3878
3870
18E0
0F80
0000
0000
0000
ENDCHAR

STARTCHAR kappa
ENCODING 235
SWIDTH 1140 0
DWIDTH 16 0
BBX 16 15 0 -3
BITMAP
0000
0000
3E00
0E00
0E1C
0E38
0EE0
0FE0
0EF0
0E78
0E3C
0E1E
0000
0000
0000
ENDCHAR

STARTCHAR lambda
ENCODING 236
SWIDTH 1140 0
DWIDTH 16 0
BBX 16 15 0 -3
BITMAP
0000
0000
0380
01C0
00E0
00E0
01F0
03B0
0738
0E38
1C1C
381C
0000
0000
0000
ENDCHAR

STARTCHAR nu
ENCODING 238
SWIDTH 1140 0
DWIDTH 16 0
BBX 16 15 0 -3
BITMAP
0000
0000
0000
0000
3E1C
0E1C
0E1C
0E38
0738
0770
03E0
0380
0000
0000
0000
ENDCHAR

STARTCHAR partialdiff
ENCODING 239
SWIDTH 1140 0
DWIDTH 16 0
BBX 16 15 0 -3
BITMAP
0000
0F80
01E0
0070
01F8
0738
0E1C
0E1C
0E1C
0E1C
0738
03F0
0000
0000
0000
ENDCHAR

STARTCHAR pi
ENCODING 240
SWIDTH 1140 0
DWIDTH 16 0
BBX 16 15 0 -3
BITMAP
0000
0000
0000
0000
3FFE
0E38
0E38
0E38
0E38
0E38
0E38
3C38
0000
0000
0000
ENDCHAR

STARTCHAR psi
ENCODING 241
SWIDTH 1140 0
DWIDTH 16 0
BBX 16 15 0 -3
BITMAP
0000
0000
0000
0000
799E
399C
399C
399C
399C
1DB8
07E0
0180
0180
0180
0000
ENDCHAR

STARTCHAR rho
ENCODING 242
SWIDTH 1140 0
DWIDTH 16 0
BBX 16 15 0 -3
BITMAP
0000
0000
0000
0000
07C0
0CE0
1C70
1C70
1C70
1CE0
1FC0
1C00
1C00
1C00
0000
ENDCHAR

STARTCHAR sigma
ENCODING 243
SWIDTH 1140 0
DWIDTH 16 0
BBX 16 15 0 -3
BITMAP
0000
0000
0000
0000
07F8
1CE0
3870
3870
3870
3870
1CE0
0FC0
0000
0000
0000
ENDCHAR

STARTCHAR tau
ENCODING 244
SWIDTH 1140 0
DWIDTH 16 0
BBX 16 15 0 -3
BITMAP
0000
0000
0000
0018
1FF0
3380
0380
0380
0380
0380
0380
03C0
0000
0000
0000
ENDCHAR

STARTCHAR florin
ENCODING 246
SWIDTH 1140 0
DWIDTH 16 0
BBX 16 15 0 -3
BITMAP
0000
0000
007C
00CE
01C0
01C0
07F8
01C0
01C0
01C0
01C0
19C0
1980
0700
0000
ENDCHAR

STARTCHAR omega
ENCODING 247
SWIDTH 1140 0
DWIDTH 16 0
BBX 16 15 0 -3
BITMAP
0000
0000
0000
0000
381C
318C
718E
718E
718E
718E
3BDC
1E78
0000
0000
0000
ENDCHAR

STARTCHAR xi
ENCODING 248
SWIDTH 1140 0
DWIDTH 16 0
BBX 16 15 0 -3
BITMAP
0000
0300
0670
03F0
00C0
0180
01C0
07E0
0F00
0E00
0E00
07E0
0070
01E0
0000
ENDCHAR

STARTCHAR upsilon
ENCODING 249
SWIDTH 1140 0
DWIDTH 16 0
BBX 16 15 0 -3
BITMAP
0000
0000
0000
0000
3C1C
0E1C
0E1C
0E1C
0E1C
0E1C
0738
03E0
0000
0000
0000
ENDCHAR

STARTCHAR zeta
ENCODING 250
SWIDTH 1140 0
DWIDTH 16 0
BBX 16 15 0 -3
BITMAP
0000
0600
0C70
07F0
0180
0700
0E00
1E00
1C00
1C00
1E00
0FE0
0070
01E0
0000
ENDCHAR

STARTCHAR arrowleft
ENCODING 251
SWIDTH 1140 0
DWIDTH 16 0
BBX 16 15 0 -3
BITMAP
0000
0000
0000
0600
0C00
1800
3FFC
3FFC
1800
0C00
0600
0000
0000
0000
0000
ENDCHAR

STARTCHAR arrowup
ENCODING 252
SWIDTH 1140 0
DWIDTH 16 0
BBX 16 15 0 -3
BITMAP
0000
0000
0000
0180
03C0
07E0
0DB0
1998
0180
0180
0180
0180
0180
0000
0000
ENDCHAR

STARTCHAR arrowright
ENCODING 253
SWIDTH 1140 0
DWIDTH 16 0
BBX 16 15 0 -3
BITMAP
0000
0000
0000
0060
0030
0018
3FFC
3FFC
0018
0030
0060
0000
0000
0000
0000
ENDCHAR

STARTCHAR arrowdown
ENCODING 254
SWIDTH 1140 0
DWIDTH 16 0
BBX 16 15 0 -3
BITMAP
0000
0000
0000
0180
0180
0180
0180
0180
1998
0DB0
07E0
03C0
0180
0000
0000
ENDCHAR

ENDFONT
