STARTFONT 2.1
FONT chs-s50
SIZE 48 75 75
FONTBOUNDINGBOX 50 50 0 -10

STARTPROPERTIES 10
COPYRIGHT "Public domain font.  Share and enjoy."
POINT_SIZE 480
WEIGHT 10
RESOLUTION_X 75
RESOLUTION_Y 75
X_HEIGHT 40
QUAD_WIDTH 24
DEFAULT_CHAR 0
FONT_DESCENT 10
FONT_ASCENT 40
ENDPROPERTIES

CHARS 35

STARTCHAR C040
ENCODING 32
SWIDTH 1041 0
DWIDTH 50 0
BBX 50 50 0 -10
BITMAP
00000000000000
00000000000000
00000000000000
00000000000000
00000000000000
00000000000000
00000000000000
00000000000000
00000000000000
00000000000000
00000000000000
00000000000000
00000000000000
00000000000000
00000000000000
00000000000000
00000000000000
00000000000000
00000000000000
00000000000000
00000000000000
00000000000000
00000000000000
00000000000000
00000000000000
00000000000000
00000000000000
00000000000000
00000000000000
00000000000000
00000000000000
00000000000000
00000000000000
00000000000000
00000000000000
00000000000000
00000000000000
00000000000000
00000000000000
00000000000000
00000000000000
00000000000000
00000000000000
00000000000000
00000000000000
00000000000000
00000000000000
00000000000000
00000000000000
00000000000000
ENDCHAR

STARTCHAR 0
ENCODING 48
SWIDTH 1041 0
DWIDTH 50 0
BBX 50 50 0 -10
BITMAP
00000000000000
00000000000000
00000000000000
00000000000000
00000000000000
00000000000000
00000000000000
00000000000000
00000000000000
00000000000000
00000000000000
00000000000000
00000000000000
00000000000000
00000000000000
00000000000000
00000000000000
00000000000000
00000000000000
00000000000000
00000000000000
00000000000000
00000000000000
00000000000000
00000000000000
00000000000000
00000000000000
00000000000000
00000000000000
00000000000000
00000000000000
00000000000000
00000000000000
00000000000000
00000000000000
00000000000000
00000000000000
00000000000000
00000000000000
00000000000000
00000000000000
00000000000000
00000000000000
00000000000000
00000000000000
00000000000000
00000000000000
00000000000000
00000000000000
00000000000000
ENDCHAR

STARTCHAR 1
ENCODING 49
SWIDTH 1041 0
DWIDTH 50 0
BBX 50 50 0 -10
BITMAP
C0300C0300C000
80601806018040
00C0300C0300C0
01806018060180
0300C0300C0300
06018060180600
0C0300C0300C00
18060180601800
300C0300C03000
60180601806000
C0300C0300C000
80601806018040
00C0300C0300C0
01806018060180
0300C0300C0300
06018060180600
0C0300C0300C00
18060180601800
300C0300C03000
60180601806000
C0300C0300C000
80601806018040
00C0300C0300C0
01806018060180
0300C0300C0300
06018060180600
0C0300C0300C00
18060180601800
300C0300C03000
60180601806000
C0300C0300C000
80601806018040
00C0300C0300C0
01806018060180
0300C0300C0300
06018060180600
0C0300C0300C00
18060180601800
300C0300C03000
60180601806000
C0300C0300C000
80601806018040
00C0300C0300C0
01806018060180
0300C0300C0300
06018060180600
0C0300C0300C00
18060180601800
300C0300C03000
60180601806000
ENDCHAR

STARTCHAR 2
ENCODING 50
SWIDTH 145 0
DWIDTH 7 0
BBX 7 50 0 -10
BITMAP
00
00
00
00
00
00
00
00
00
00
00
00
00
00
00
00
00
00
00
00
00
00
00
00
00
00
00
00
00
00
00
00
00
00
00
00
00
00
00
00
00
00
00
FE
FE
FE
FE
F0
F0
F0
ENDCHAR

STARTCHAR 3
ENCODING 51
SWIDTH 1041 0
DWIDTH 50 0
BBX 50 50 0 -10
BITMAP
00000000000000
00000000000000
00000000000000
00000000000000
00000000000000
00000000000000
00000000000000
00000000000000
00000000000000
00000000000000
00000000000000
00000000000000
00000000000000
00000000000000
00000000000000
00000000000000
00000000000000
00000000000000
00000000000000
00000000000000
00000000000000
00000000000000
00000000000000
00000000000000
00000000000000
00000000000000
00000000000000
00000000000000
00000000000000
00000000000000
00000000000000
00000000000000
00000000000000
00000000000000
00000000000000
00000000000000
00000000000000
00000000000000
00000000000000
00000000000000
00000000000000
00000000000000
00000000000000
FFFFFFFFFFFFC0
FFFFFFFFFFFFC0
FFFFFFFFFFFFC0
FFFFFFFFFFFFC0
00000000000000
00000000000000
00000000000000
ENDCHAR

STARTCHAR 4
ENCODING 52
SWIDTH 145 0
DWIDTH 7 0
BBX 7 50 0 -10
BITMAP
00
00
00
00
00
00
00
00
00
00
00
00
00
00
00
00
00
00
00
00
00
00
00
00
00
00
00
00
00
00
00
00
00
00
00
00
00
00
00
00
00
00
00
FE
FE
FE
FE
1E
1E
1E
ENDCHAR

STARTCHAR 5
ENCODING 53
SWIDTH 145 0
DWIDTH 7 0
BBX 7 50 0 -10
BITMAP
F0
F0
F0
F0
F0
F0
F0
F0
F0
F0
F0
F0
F0
F0
F0
F0
F0
F0
F0
F0
F0
F0
F0
F0
F0
F0
F0
F0
F0
F0
F0
F0
F0
F0
F0
F0
F0
F0
F0
F0
F0
F0
F0
F0
F0
F0
F0
F0
F0
F0
ENDCHAR

STARTCHAR 6
ENCODING 54
SWIDTH 145 0
DWIDTH 7 0
BBX 7 50 0 -10
BITMAP
1E
1E
1E
FE
FE
FE
FE
00
00
00
00
00
00
00
00
00
00
00
00
00
00
00
00
00
00
00
00
00
00
00
00
00
00
00
00
00
00
00
00
00
00
00
00
00
00
00
00
00
00
00
ENDCHAR

STARTCHAR 7
ENCODING 55
SWIDTH 1041 0
DWIDTH 50 0
BBX 50 50 0 -10
BITMAP
00000000000000
00000000000000
00000000000000
FFFFFFFFFFFFC0
FFFFFFFFFFFFC0
FFFFFFFFFFFFC0
FFFFFFFFFFFFC0
00000000000000
00000000000000
00000000000000
00000000000000
00000000000000
00000000000000
00000000000000
00000000000000
00000000000000
00000000000000
00000000000000
00000000000000
00000000000000
00000000000000
00000000000000
00000000000000
00000000000000
00000000000000
00000000000000
00000000000000
00000000000000
00000000000000
00000000000000
00000000000000
00000000000000
00000000000000
00000000000000
00000000000000
00000000000000
00000000000000
00000000000000
00000000000000
00000000000000
00000000000000
00000000000000
00000000000000
00000000000000
00000000000000
00000000000000
00000000000000
00000000000000
00000000000000
00000000000000
ENDCHAR

STARTCHAR 8
ENCODING 56
SWIDTH 145 0
DWIDTH 7 0
BBX 7 50 0 -10
BITMAP
F0
F0
F0
FE
FE
FE
FE
00
00
00
00
00
00
00
00
00
00
00
00
00
00
00
00
00
00
00
00
00
00
00
00
00
00
00
00
00
00
00
00
00
00
00
00
00
00
00
00
00
00
00
ENDCHAR

STARTCHAR 9
ENCODING 57
SWIDTH 145 0
DWIDTH 7 0
BBX 7 50 0 -10
BITMAP
F0
F0
F0
F0
F0
F0
F0
F0
F0
F0
F0
F0
F0
F0
F0
F0
F0
F0
F0
F0
F0
F0
F0
F0
F0
F0
F0
F0
F0
F0
F0
F0
F0
F0
F0
F0
F0
F0
F0
F0
F0
F0
F0
F0
F0
F0
F0
F0
F0
F0
ENDCHAR

STARTCHAR @
ENCODING 64
SWIDTH 1041 0
DWIDTH 50 0
BBX 50 50 0 -10
BITMAP
00000000000000
00000000000000
00000000000000
00000000000000
00000000000000
00000000000000
00007800000000
00004800000000
00004800000000
00004800000000
0007CF80000000
00040080000000
00040080000000
0007CF80000000
00004800000000
00704838000000
01FE49FE000000
0707CF83800000
0C01CE00C00000
18007800600000
30003000300000
20003000100000
60003000180000
C00030000C0000
C00030000C0000
80003000040000
80780078040000
804C00C8040000
C0C4008C0C0000
41860186080000
41020102080000
61020102180000
21830306100000
20810204100000
30C1020C300000
10410208200000
1FFFFFFFE00000
0FFFFFFFC00000
0C000000C00000
0C000000C00000
0C303030C00000
0C303030C00000
0C000000C00000
0C000000C00000
0FFFFFFFC00000
0FFFFFFFC00000
00000000000000
00000000000000
00000000000000
00000000000000
ENDCHAR

STARTCHAR A
ENCODING 65
SWIDTH 1041 0
DWIDTH 50 0
BBX 50 50 0 -10
BITMAP
C0300C0300C000
80601806018040
00C0300C0300C0
01806018060180
0300C0000C0300
06018000180600
0C0301E0300C00
18060120601800
300C0120C03000
60180120006000
C0301F3E00C000
80601002018040
00C010020300C0
01801F3E060180
03000120000300
0601C120E00600
0C07F927F80C00
181C1F3E0E1800
30300738031000
606001E0018000
C0C000C000C000
808000C0004040
018000C00060C0
030000C0003180
030000C0003300
020000C0001200
0201E001E01000
12013003201000
33031002303000
61061806182000
C1040804082000
81840804086040
00860C0C1840C0
00820408104180
00C3040830C300
06410408208600
0C7FFFFFFF8C00
183FFFFFFF1800
30300000033000
60300000032000
C030C0C0C30000
8030C0C0C30040
003000000300C0
01300000030180
033FFFFFFF0300
063FFFFFFF0600
0C000000000C00
18000000001800
300C0300C03000
60180601806000
ENDCHAR

STARTCHAR B
ENCODING 66
SWIDTH 1041 0
DWIDTH 50 0
BBX 50 50 0 -10
BITMAP
00000000000000
00000000000000
00000000000000
00000000000000
00000000000000
00000000000000
00000000000000
00000000000000
00000000000000
00000000000000
00000000000000
00000000000000
00000000000000
E0000000700000
B0000000D00000
D8000001B00000
68180181600000
28180181400000
280C0301400000
280E0701400000
280A0501400000
2C0A0503400000
240A0502400000
340A0502C00000
140A0502800000
140A0502800000
140A0502800000
160B0D06800000
12090904800000
1A0D0B05800000
0A050A05000000
0A05FA05000000
0B1FFF8D000000
097801E9000000
09E00079000000
0FFFFFFF000000
0FFFFFFF000000
0C000003000000
0C000003000000
0C000003000000
0C3060C3000000
0C3060C3000000
0C000003000000
0C000003000000
0FFFFFFF000000
0FFFFFFF000000
00000000000000
00000000000000
00000000000000
00000000000000
ENDCHAR

STARTCHAR C
ENCODING 67
SWIDTH 1041 0
DWIDTH 50 0
BBX 50 50 0 -10
BITMAP
C0300C0300C000
80601806018040
00C0300C0300C0
01806018060180
0300C0300C0300
06018060180600
0C0300C0300C00
18060180601800
300C0300C03000
60000601800000
C0000C03000000
80000000000040
000000000000C0
01C0000000E180
0160000001A100
01B00000036000
00D0300302C000
10503003028000
30501806028000
60501C0E028000
C050140A028000
8058140A068040
0048140A0480C0
0068140A058180
0028140A050300
0028140A050600
0828140A050400
182C161A0D0000
30241212090000
60341A160B0000
C0140A140A0000
80140BF40A0040
00163FFF1A00C0
0012F003D20180
0013C000F20300
001FFFFFFE0600
081FFFFFFE0C00
18180000060800
30180000060000
60180000060000
C01860C1860000
801860C1860040
001800000600C0
00180000060180
001FFFFFFE0300
001FFFFFFE0600
0C000000000C00
18000000001800
30000000003000
60180601806000
ENDCHAR

STARTCHAR D
ENCODING 68
SWIDTH 1041 0
DWIDTH 50 0
BBX 50 50 0 -10
BITMAP
00000000000000
00000000000000
00000000000000
00000000000000
00000000000000
00000000000000
00000000000000
00000000000000
00000000000000
00000000000000
1F0FC3E0000000
11084220000000
11F87E20000000
10000020000000
10000020000000
10000020000000
10000020000000
10000020000000
1FFFFFE0000000
00601800000000
00601800000000
00C00C00000000
00C00C00000000
01800600000000
01800600000000
03000300000000
03000300000000
06000180000000
06000180000000
0C0000C0000000
0C0000C0000000
18000060000000
18000060000000
30000030000000
30000030000000
60000018000000
60000018000000
C000000C000000
C000000C000000
80000004000000
FFFFFFFC000000
80000004000000
80000004000000
80000004000000
FFFFFFFC000000
FFFFFFFC000000
00000000000000
00000000000000
00000000000000
00000000000000
ENDCHAR

STARTCHAR E
ENCODING 69
SWIDTH 1041 0
DWIDTH 50 0
BBX 50 50 0 -10
BITMAP
C0300C0300C000
80601806018040
00C0300C0300C0
01806018060180
0300C0300C0300
06000000000600
0C000000000C00
18000000001800
30000000003000
60000000002000
C007C3F0F80000
80044210880040
00047E1F8800C0
01040000080180
03040000080300
06040000080600
0C040000080C00
18040000081800
3007FFFFF83000
60001806006000
C0001806004000
80003003000040
008030030000C0
01806001800180
03006001800300
0600C000C00600
0C00C000C00C00
18018000601800
30018000603000
60030000306000
C0030000304000
80060000180040
000600001800C0
000C00000C0180
000C00000C0300
04180000060600
0C180000060400
18300000030000
30300000030000
60200000010000
C03FFFFFFF0000
80200000010040
002000000100C0
00200000010180
003FFFFFFF0300
003FFFFFFF0600
08000000000C00
18000000001800
30000000003000
60180601806000
ENDCHAR

STARTCHAR F
ENCODING 70
SWIDTH 1041 0
DWIDTH 50 0
BBX 50 50 0 -10
BITMAP
00000000000000
00000000000000
00000000000000
00000000000000
00000000000000
00000000000000
00000000000000
0000C000000000
0001E000000000
00033000000000
00061800000000
000C0C00000000
00180600000000
00300300000000
00600600000000
00400C00000000
00C01800000000
00803000000000
008060C0000000
018043C0000000
01004E60000000
01007820000000
01000020000000
01800060000000
00800040000000
00800040000000
0080C040000000
0080C040000000
00C3F0C0000000
0043F080000000
0040C080000000
0040C080000000
0060C180000000
00200100000000
00200100000000
00300300000000
00100200000000
00180600000000
00080400000000
000C0C00000000
00040800000000
00061800000000
00021000000000
0003F000000000
FFFFFFFFC00000
FFFFFFFFC00000
00000000000000
00000000000000
00000000000000
00000000000000
ENDCHAR

STARTCHAR G
ENCODING 71
SWIDTH 1041 0
DWIDTH 50 0
BBX 50 50 0 -10
BITMAP
C0300C0300C000
80601806018040
00C0300C0300C0
01806000060180
0300C0000C0300
06018000180600
0C030000300C00
180600C0001800
300C01E0003000
60180330006000
C030061800C000
80600C0C018040
00C018060300C0
01803003020180
03006006000300
0600400C000600
0C00C018000C00
18008030001800
30008060C03000
60018043C06000
C021004E60C000
80610078218040
00C100002100C0
01818000600180
03008000400300
06008000400600
0C0080C0400C00
180080C0401800
3000C3F0C03000
601043F0806000
C03040C080C000
806040C0818040
00C060C18300C0
01802001020180
03002001000300
06003003000600
0C001002000C00
18001806001800
30000804003000
60000C0C006000
C0000408000000
80000618000040
000002100000C0
000003F0000180
00FFFFFFFFC300
00FFFFFFFFC200
00000000000000
10000000000000
30000000000000
60180601806000
ENDCHAR

STARTCHAR H
ENCODING 72
SWIDTH 1041 0
DWIDTH 50 0
BBX 50 50 0 -10
BITMAP
00000000000000
00000000000000
00000000000000
00000000000000
00000000000000
00000000000000
00000000000000
00000000000000
00000000000000
001C0000000000
001F0000000000
0019C000000000
00087000000000
00081C00000000
00180600000000
00300300000000
00600180000000
00C600C0000000
01840060000000
03000020000000
06000030000000
04000018000000
0C00000C000000
18000004000000
30000006000000
20038002000000
600EC003000000
40186001000000
C0706001800000
C3C06000800000
7E00C000800000
38018000C00000
00030000400000
00060000400000
001C0000600000
00300000600000
00E00000600000
01800000600000
03000000600000
0E000000600000
18000000600000
30000000600000
60000000600000
60000000600000
7FFFFFFFE00000
7FFFFFFFE00000
00000000000000
00000000000000
00000000000000
00000000000000
ENDCHAR

STARTCHAR I
ENCODING 73
SWIDTH 1041 0
DWIDTH 50 0
BBX 50 50 0 -10
BITMAP
C0300C0300C000
80601806018040
00C0300C0300C0
01806018060180
0300C0300C0300
06018060180600
0C030000300C00
18060000601800
300C0000C03000
60183800006000
C0303E0000C000
80603380018040
00C010E00300C0
01801038060180
0300300C040300
06006006000600
0C00C003000C00
18018C01801800
30030800C03000
60060000406000
C00C0000604000
80080000300040
001800001800C0
00300000080180
006000000C0300
00400700040600
00C01D80060C00
008030C0020800
2180E0C0030000
618780C0010000
C0FC0180010000
80700300018040
000006000080C0
00000C00008180
0000380000C300
0000600000C200
0801C00000C000
1803000000C000
3006000000C000
601C000000C000
C030000000C000
8060000000C040
00C0000000C0C0
00C0000000C180
00FFFFFFFFC300
00FFFFFFFFC200
00000000000000
10000000000000
30000000000000
60180601806000
ENDCHAR

STARTCHAR J
ENCODING 74
SWIDTH 1041 0
DWIDTH 50 0
BBX 50 50 0 -10
BITMAP
00000000000000
00000000000000
00000000000000
00000000000000
00000000000000
00000000000000
00000000000000
00000000000000
00000000000000
00000000000000
00000000000000
00000000000000
00000000000000
00030000000000
000FC000000000
00387000000000
00601800000000
00400800000000
00C00C00000000
00800400000000
01800600000000
01800600000000
00800400000000
00C00C00000000
00400800000000
00601800000000
00387000000000
001FE000000000
00102000000000
00102000000000
00303000000000
00303000000000
00201000000000
00201000000000
00601800000000
00400800000000
00400800000000
00400800000000
01C00E00000000
07000380000000
1C0000E0000000
70000038000000
C000000C000000
C000000C000000
FFFFFFFC000000
FFFFFFFC000000
00000000000000
00000000000000
00000000000000
00000000000000
ENDCHAR

STARTCHAR K
ENCODING 75
SWIDTH 1041 0
DWIDTH 50 0
BBX 50 50 0 -10
BITMAP
C0300C0300C000
80601806018040
00C0300C0300C0
01806018060180
0300C0300C0300
06018060180600
0C0300C0300C00
18060180601800
300C0300C03000
60180601806000
C030000100C000
80600000018040
00C000000300C0
018000C0060180
030003F00C0300
06000E1C080600
0C001806000C00
18041002001800
300C3003003000
60182001006000
C030600180C000
80606001818040
00C020010300C0
01803003060180
03001002040300
06001806000600
0C000E1C000C00
180407F8001800
300C0408003000
60180408006000
C0300C0C00C000
80600C0C018040
00C008040300C0
01800804060180
03001806040300
06001002000600
0C001002000C00
18001002001800
30007003801000
6001C000E00000
C0070000380000
801C00000E0040
003000000300C0
00300000030180
003FFFFFFF0300
043FFFFFFF0600
0C000000000C00
18000000001800
30000000003000
60180601806000
ENDCHAR

STARTCHAR `
ENCODING 96
SWIDTH 1041 0
DWIDTH 50 0
BBX 50 50 0 -10
BITMAP
00000000000000
00000000000000
00000000000000
00000000000000
00000000000000
00000000000000
00000000000000
00003000000000
00003000000000
00003000000000
00003000000000
0003FF00000000
0003FF00000000
00003000000000
00003000000000
00703038000000
01FE31FE000000
07FFB7FF800000
0FFFFFFFC00000
1FFFFFFFE00000
3FFFCFFFF00000
3FFFCFFFF00000
7FFFCFFFF80000
FFFFCFFFFC0000
FFFFCFFFFC0000
FFFFCFFFFC0000
FF87FF87FC0000
FF83FF07FC0000
FF03FF03FC0000
7E01FE01F80000
7E01FE01F80000
7E01FE01F80000
3E00FC01F00000
3F00FC03F00000
3F00FC03F00000
1F80FC07E00000
1FFFFFFFE00000
0FFFFFFFC00000
0FFFFFFFC00000
0FFFFFFFC00000
0FCFCFCFC00000
0FCFCFCFC00000
0FFFFFFFC00000
0FFFFFFFC00000
0FFFFFFFC00000
0FFFFFFFC00000
00000000000000
00000000000000
00000000000000
00000000000000
ENDCHAR

STARTCHAR a
ENCODING 97
SWIDTH 1041 0
DWIDTH 50 0
BBX 50 50 0 -10
BITMAP
C0300C0300C000
80601806018040
00C0300C0300C0
01806000060180
0300C0000C0300
06018000180600
0C030000300C00
180600C0001800
300C00C0003000
601800C0006000
C03000C0004000
80600FFC000040
00C00FFC0000C0
018000C0000180
030000C0000300
0601C0C0E00200
0C07F8C7F80000
181FFEDFFE0000
303FFFFFFF0000
607FFFFFFF8000
C0FFFF3FFFC000
80FFFF3FFFC040
01FFFF3FFFE0C0
03FFFF3FFFF080
03FFFF3FFFF000
03FFFF3FFFF000
03FE1FFE1FF000
03FE0FFC1FF000
23FC0FFC0FF000
61F807F807E000
C1F807F807E000
81F807F807E040
00F803F007C0C0
00FC03F00FC180
00FC03F00FC300
007E03F01F8200
087FFFFFFF8000
183FFFFFFF0000
30300000030000
60300000030000
C030C0C0C30000
8030C0C0C30040
003000000300C0
00300000030180
003FFFFFFF0300
043FFFFFFF0600
0C000000000C00
18000000001800
30000000003000
60180601806000
ENDCHAR

STARTCHAR b
ENCODING 98
SWIDTH 1041 0
DWIDTH 50 0
BBX 50 50 0 -10
BITMAP
00000000000000
00000000000000
00000000000000
00000000000000
00000000000000
00000000000000
00000000000000
00000000000000
00000000000000
00000000000000
00000000000000
00000000000000
00000000000000
E0000000700000
F0000000F00000
F8000001F00000
78180181E00000
78180181E00000
380C0301C00000
380E0701C00000
380E0701C00000
3C0E0703C00000
3C0E0703C00000
3C0E0703C00000
1C0E0703800000
1C0E0703800000
1C0E0703800000
1E0F0F07800000
1E0F0F07800000
1E0F0F07800000
0E070E07000000
0E07FE07000000
0F1FFF8F000000
0F7801EF000000
0FE0007F000000
0FFFFFFF000000
0FFFFFFF000000
0FFFFFFF000000
0FFFFFFF000000
0FFFFFFF000000
0FCF9F3F000000
0FCF9F3F000000
0FFFFFFF000000
0FFFFFFF000000
0FFFFFFF000000
0FFFFFFF000000
00000000000000
00000000000000
00000000000000
00000000000000
ENDCHAR

STARTCHAR c
ENCODING 99
SWIDTH 1041 0
DWIDTH 50 0
BBX 50 50 0 -10
BITMAP
C0300C0300C000
80601806018040
00C0300C0300C0
01806018060180
0300C0300C0300
06018060180600
0C0300C0300C00
18060180601800
300C0300C03000
60000601800000
C0000C03000000
80000000000040
000000000000C0
01C0000000E180
01E0000001E100
01F0000003E000
00F0300303C000
10F0300303C000
30701806038000
60701C0E038000
C0701C0E038000
80781C0E078040
00781C0E0780C0
00781C0E078180
00381C0E070300
00381C0E070600
08381C0E070400
183C1E1E0F0000
303C1E1E0F0000
603C1E1E0F0000
C01C0E1C0E0000
801C0FFC0E0040
001E3FFF1E00C0
001EF003DE0180
001FC000FE0300
001FFFFFFE0600
081FFFFFFE0C00
181FFFFFFE0800
301FFFFFFE0000
601FFFFFFE0000
C01F9F3E7E0000
801F9F3E7E0040
001FFFFFFE00C0
001FFFFFFE0180
001FFFFFFE0300
001FFFFFFE0600
0C000000000C00
18000000001800
30000000003000
60180601806000
ENDCHAR

STARTCHAR d
ENCODING 100
SWIDTH 1041 0
DWIDTH 50 0
BBX 50 50 0 -10
BITMAP
00000000000000
00000000000000
00000000000000
00000000000000
00000000000000
00000000000000
00000000000000
00000000000000
00000000000000
00000000000000
1F0FC3E0000000
1F0FC3E0000000
1FFFFFE0000000
1FFFFFE0000000
1FF7FFE0000000
1FFFFDE0000000
1F7FFFE0000000
1FFFBFE0000000
1FFFFFE0000000
007FF800000000
0077F800000000
00FFFC00000000
00FFBC00000000
01FFFE00000000
01F7FE00000000
03FFFF00000000
03FFEF00000000
07FFFF80000000
07DFFF80000000
0FFFFFC0000000
0FFFF7C0000000
1FFFFFE0000000
1F7DFFE0000000
3FFFFFF0000000
3FFFFEF0000000
7DFFFFF8000000
7FFFFFF8000000
FFFFFFFC000000
FFFFFFFC000000
C000000C000000
C000000C000000
C000000C000000
FFFFFFFC000000
FFFFFFFC000000
FFFFFFFC000000
FFFFFFFC000000
00000000000000
00000000000000
00000000000000
00000000000000
ENDCHAR

STARTCHAR e
ENCODING 101
SWIDTH 1041 0
DWIDTH 50 0
BBX 50 50 0 -10
BITMAP
C0300C0300C000
80601806018040
00C0300C0300C0
01806018060180
0300C0300C0300
06018060180600
0C000000000C00
18000000001800
30000000003000
60000000002000
C007C3F0F80000
8007C3F0F80040
0007FFFFF800C0
0107FFFFF80180
0307FDFFF80300
0607FFFF780600
0C07DFFFF80C00
1807FFEFF81800
3007FFFFF81000
60001FFE000000
C0001DFE000000
80003FFF000040
00803FEF0000C0
01807FFF800180
03007DFF800300
0600FFFFC00600
0C00FFFBC00C00
1801FFFFE01800
3001F7FFE01000
6003FFFFF00000
C003FFFDF00000
8007FFFFF80040
0007DF7FF800C0
000FFFFFFC0180
000FFFFFBC0300
041F7FFFFE0600
0C1FFFFFFE0C00
183FFFFFFF0800
303FFFFFFF0000
60300000030000
C0300000030000
80300000030040
003FFFFFFF00C0
003FFFFFFF0180
003FFFFFFF0300
003FFFFFFF0600
0C000000000C00
18000000001800
30000000003000
60180601806000
ENDCHAR

STARTCHAR f
ENCODING 102
SWIDTH 1041 0
DWIDTH 50 0
BBX 50 50 0 -10
BITMAP
00000000000000
00000000000000
00000000000000
00000000000000
00000000000000
00000000000000
00000000000000
0000C000000000
0001E000000000
0003F000000000
0007F800000000
000FFC00000000
001FFE00000000
003FFF00000000
007FFE00000000
007FFC00000000
00FFF800000000
00FFF000000000
00FFE0C0000000
01FFC3C0000000
01FFCFE0000000
01FFFFE0000000
01FFFFE0000000
01FFFFE0000000
00FFFFC0000000
00FFFFC0000000
00FF3FC0000000
00FF3FC0000000
00FC0FC0000000
007C0F80000000
007F3F80000000
007F3F80000000
007F3F80000000
003FFF00000000
003FFF00000000
003FFF00000000
001FFE00000000
001FFE00000000
000FFC00000000
000FFC00000000
0007F800000000
0007F800000000
0003F000000000
0003F000000000
FFFFFFFFC00000
FFFFFFFFC00000
00000000000000
00000000000000
00000000000000
00000000000000
ENDCHAR

STARTCHAR g
ENCODING 103
SWIDTH 1041 0
DWIDTH 50 0
BBX 50 50 0 -10
BITMAP
C0300C0300C000
80601806018040
00C0300C0300C0
01806000060180
0300C0000C0300
06018000180600
0C030000300C00
180600C0001800
300C01E0003000
601803F0006000
C03007F800C000
80600FFC018040
00C01FFE0300C0
01803FFF020180
03007FFE000300
06007FFC000600
0C00FFF8000C00
1800FFF0001800
3000FFE0C03000
6001FFC3C06000
C021FFCFE0C000
8061FFFFE18040
00C1FFFFE100C0
0181FFFFE00180
0300FFFFC00300
0600FFFFC00600
0C00FF3FC00C00
1800FF3FC01800
3000FC0FC03000
60107C0F806000
C0307F3F80C000
80607F3F818040
00C07F3F8300C0
01803FFF020180
03003FFF000300
06003FFF000600
0C001FFE000C00
18001FFE001800
30000FFC003000
60000FFC006000
C00007F8000000
800007F8000040
000003F00000C0
000003F0000180
00FFFFFFFFC300
00FFFFFFFFC200
00000000000000
10000000000000
30000000000000
60180601806000
ENDCHAR

STARTCHAR h
ENCODING 104
SWIDTH 1041 0
DWIDTH 50 0
BBX 50 50 0 -10
BITMAP
00000000000000
00000000000000
00000000000000
00000000000000
00000000000000
00000000000000
00000000000000
00000000000000
00000000000000
001C0000000000
001F0000000000
001FC000000000
000FF000000000
000EFC00000000
001FFE00000000
003FFB00000000
007FFF80000000
00F3FFC0000000
01F7BFE0000000
03FFFFE0000000
07FFFFF0000000
07FFFFF8000000
0FFFFBFC000000
1FEFFFFC000000
3DFFFFFE000000
3FFFFFFE000000
7FFEFFEF000000
7FF87BFF000000
EFF07FFF800000
FFC07FFF800000
7E00FFFF800000
3801FFFFC00000
0003FDFFC00000
0007FFFFC00000
001FFFFFE00000
003FFFFDE00000
00FEFFBFE00000
01FFFFFFE00000
03EFEFFFE00000
0FFFFFFFE00000
1FFFFFFFE00000
3FFFFFFFE00000
60000000600000
60000000600000
7FFFFFFFE00000
7FFFFFFFE00000
00000000000000
00000000000000
00000000000000
00000000000000
ENDCHAR

STARTCHAR i
ENCODING 105
SWIDTH 1041 0
DWIDTH 50 0
BBX 50 50 0 -10
BITMAP
C0300C0300C000
80601806018040
00C0300C0300C0
01806018060180
0300C0300C0300
06018060180600
0C030000300C00
18060000601800
300C0000C03000
60183800806000
C0303E0000C000
80603F80018040
00C01FE00300C0
01801DF8060180
03003FFC040300
06007FF6000600
0C00FFFF000C00
1801E7FF801800
3003EF7FC03000
6007FFFFC06000
C00FFFFFE04000
800FFFFFF00040
001FFFF7F800C0
003FDFFFF80180
007BFFFFFC0300
007FFFFFFC0600
00FFFDFFDE0C00
00FFF0F7FE0800
21DFE0FFFF0000
61FF80FFFF0000
C0FC01FFFF0000
807003FFFF8040
000007FBFF80C0
00000FFFFF8180
00003FFFFFC300
00007FFFFBC200
0801FDFF7FC000
1803FFFFFFC000
3007DFDFFFC000
601FFFFFFFC000
C03FFFFFFFC000
807FFFFFFFC040
00C0000000C0C0
00C0000000C180
00FFFFFFFFC300
00FFFFFFFFC200
00000000000000
10000000000000
30000000000000
60180601806000
ENDCHAR

STARTCHAR j
ENCODING 106
SWIDTH 1041 0
DWIDTH 50 0
BBX 50 50 0 -10
BITMAP
00000000000000
00000000000000
00000000000000
00000000000000
00000000000000
00000000000000
00000000000000
00000000000000
00000000000000
00000000000000
00000000000000
00000000000000
00000000000000
00030000000000
000FC000000000
003FF000000000
007FF800000000
007FF800000000
00FFFC00000000
00FFFC00000000
01FFFE00000000
01FFFE00000000
00FFFC00000000
00FFFC00000000
007FF800000000
007FF800000000
003FF000000000
001FE000000000
001FE000000000
001FE000000000
003FF000000000
003FF000000000
003FF000000000
003FF000000000
007FF800000000
007FF800000000
007FF800000000
007FF800000000
01FFFE00000000
07FFFF80000000
1FFFFFE0000000
7C0000F8000000
F000003C000000
FFFFFFFC000000
FFFFFFFC000000
FFFFFFFC000000
00000000000000
00000000000000
00000000000000
00000000000000
ENDCHAR

STARTCHAR k
ENCODING 107
SWIDTH 1041 0
DWIDTH 50 0
BBX 50 50 0 -10
BITMAP
C0300C0300C000
80601806018040
00C0300C0300C0
01806018060180
0300C0700C0300
060180C0180600
0C030180300C00
18060300601800
300C0600C03000
60180C01806000
C030180100C000
80600000018040
00C000000300C0
018000C0060180
030003F00C0300
06000FFC080600
0C001FFE000C00
18001FFE001800
30083FFF003000
60183FFF006000
C0307FFF80C000
80607FFF818040
00C03FFF0300C0
01803FFF060180
03001FFE040300
06001FFE000600
0C000FFC000C00
180007F8001800
300807F8003000
601807F8006000
C0300FFC00C000
80600FFC018040
00C00FFC0300C0
01800FFC060180
03001FFE040300
06001FFE000600
0C001FFE000C00
18001FFE001800
30007FFF801000
6001FFFFE00000
C007FFFFF80000
801F00003E0040
003C00000F00C0
003FFFFFFF0180
003FFFFFFF0300
043FFFFFFF0600
0C000000000C00
18000000001800
30000000003000
60180601806000
ENDCHAR

ENDFONT
