STARTFONT 2.1
FONT cyr-s30
SIZE 36 75 75
FONTBOUNDINGBOX 37 38 0 -8

STARTPROPERTIES 10
COPYRIGHT "Public domain font.  Share and enjoy."
POINT_SIZE 360
WEIGHT 10
RESOLUTION_X 75
RESOLUTION_Y 75
X_HEIGHT 30
QUAD_WIDTH 25
DEFAULT_CHAR 0
FONT_DESCENT 8
FONT_ASCENT 30
ENDPROPERTIES

CHARS 67

STARTCHAR C001
ENCODING 1
SWIDTH 750 0
DWIDTH 27 0
BBX 27 38 0 -8
BITMAP
00000000
00000000
00000000
00000000
00000000
00000000
00000000
00000000
00000000
00000000
00000000
00000000
00000000
F87F0000
FE7F3F80
FE7F3F80
3E3E1E00
1E1E1C00
0F1E3800
071E7000
039EE000
03FFE000
07FFF000
0F3EF000
0F3E7800
1E3C7C00
3C3C3C00
7C3E3F00
FE7F3F80
FE7F3F80
00000000
00000000
00000000
00000000
00000000
00000000
00000000
00000000
ENDCHAR

STARTCHAR C004
ENCODING 4
SWIDTH 472 0
DWIDTH 17 0
BBX 17 38 0 -8
BITMAP
000000
000000
000000
000000
000000
000000
000000
000000
000000
000000
000000
000000
000000
7E0000
FE0000
FE0000
FC0000
7C0000
7C0000
7C0000
7FF000
7FF800
787C00
783C00
781C00
783E00
783E00
FFFC00
FFF800
FFF000
000000
000000
000000
000000
000000
000000
000000
000000
ENDCHAR

STARTCHAR C020
ENCODING 16
SWIDTH 972 0
DWIDTH 35 0
BBX 35 38 0 -8
BITMAP
0000000000
0000000000
0000000000
0000000000
0000000000
7F003F8000
FF00FFC000
FF03FFF000
3E07C1F800
3E0F007800
3E0F007C00
3E1E003C00
3C1C003E00
3C3C001E00
3C3C001F00
3C78000F00
3FF8000F00
3CF8000F00
3C78000F00
3C78000F00
3C78000F00
3C38001F00
3C38001E00
3C3C001E00
3C1C001E00
3C1E003C00
3C0E007800
3C0781F000
FF03FFE000
7E01FFC000
00007E0000
0000000000
0000000000
0000000000
0000000000
0000000000
0000000000
0000000000
ENDCHAR

STARTCHAR C021
ENCODING 17
SWIDTH 638 0
DWIDTH 23 0
BBX 23 38 0 -8
BITMAP
000000
000000
000000
000000
000000
03FFF8
07FFF8
0F8FF0
1F01E0
3E01E0
3C01C0
7C01E0
7801E0
7801E0
3801E0
3C01E0
3C03E0
1F03E0
0FFFE0
03FFE0
03E3E0
03C3E0
07C3C0
0783E0
0703E0
0F03E0
1E03E0
3E0FE0
3C0FF8
780FF0
F00000
E00000
E00000
000000
000000
000000
000000
000000
ENDCHAR

STARTCHAR C022
ENCODING 18
SWIDTH 611 0
DWIDTH 22 0
BBX 22 38 0 -8
BITMAP
000000
000000
000000
000000
000000
000000
FF8000
FE0000
7E0000
7E0000
3C0000
3C0000
3C0000
3C0000
3C0000
3FF800
3FFC00
3FFF00
3C03C0
3C01C0
3C01E0
3C01E0
3C00F0
3C01F0
3801F0
3801E0
3C01E0
3C03C0
7FFF80
FFFE00
000000
000000
000000
000000
000000
000000
000000
000000
ENDCHAR

STARTCHAR C023
ENCODING 19
SWIDTH 638 0
DWIDTH 23 0
BBX 23 38 0 -8
BITMAP
000000
000000
000000
000000
1FF800
7FFC00
7FFF00
FFFF00
FC0F80
F807C0
F003E0
F001F0
6001F0
0001F8
03E1F8
07F1F8
0FFFF8
1FFFF8
1FFEF8
187EF8
0001F8
0001F8
8001F8
C003F0
E003F0
F00FE0
F81FC0
FFFF80
FFFE00
7FFC00
000000
000000
000000
000000
000000
000000
000000
000000
ENDCHAR

STARTCHAR C026
ENCODING 22
SWIDTH 722 0
DWIDTH 26 0
BBX 26 38 0 -8
BITMAP
00000000
00000000
00000000
00000000
00000000
00000000
00000000
00000000
00000000
00000000
00000000
00000000
00000000
00000000
7E7F3F00
FE7F3F00
FC3F3F00
7C3C3E00
7C3C1E00
7C3C1E00
7C3C1E00
7C3C1E00
7C3C1E00
7C3C1E00
7C3C1E00
7C3C1E00
7C3C3E00
7C3C3E00
FFFFFE00
FFFFFF00
00000000
00000000
00000000
00000000
00000000
00000000
00000000
00000000
ENDCHAR

STARTCHAR C031
ENCODING 25
SWIDTH 555 0
DWIDTH 20 0
BBX 20 38 0 -8
BITMAP
000000
000000
000000
000000
000000
000000
000000
000000
000000
000000
000000
000000
FE1F00
FF7F80
FE7F80
7C3F00
7C3E00
7C3E00
7C3E00
7C3E00
7C3E00
7C3E00
7C3E00
7C3E00
7C3E00
7C3E00
7C3E00
FC3E00
FFFF80
FFFF80
000FC0
0003C0
0003C0
000180
000000
000000
000000
000000
ENDCHAR

STARTCHAR C036
ENCODING 30
SWIDTH 833 0
DWIDTH 30 0
BBX 30 38 0 -8
BITMAP
00000000
00000000
00000000
00000000
7F000FF0
FF801FF0
FF801FE0
7E0007C0
7E0007C0
3C0007C0
3C0007C0
3C0007C0
3E0007C0
3E0007C0
3FFC07C0
3FFE07C0
3C0F87C0
3C07C7C0
3C03C7C0
3C01E7C0
3C01E7C0
3C01E7C0
3C01E3C0
3C01E3C0
3C01E3C0
3C03E3C0
3C03C3C0
3C0787C0
3FFF0FE0
FFFC0FF0
FFF80000
00000000
00000000
00000000
00000000
00000000
00000000
00000000
ENDCHAR

STARTCHAR C037
ENCODING 31
SWIDTH 472 0
DWIDTH 17 0
BBX 17 38 0 -8
BITMAP
000000
000000
000000
000000
000000
000000
000000
000000
000000
000000
000000
000000
000000
0F0000
3FE000
7FF000
7C7800
783C00
303C00
0FBE00
3FFE00
3FFE00
1FFE00
003E00
003E00
403C00
F07C00
FCF800
7FF800
1FC000
000000
000000
000000
000000
000000
000000
000000
000000
ENDCHAR

STARTCHAR C040
ENCODING 32
SWIDTH 472 0
DWIDTH 17 0
BBX 17 38 0 -8
BITMAP
000000
000000
000000
000000
000000
000000
000000
000000
000000
000000
000000
000000
000000
000000
000000
000000
000000
000000
000000
000000
000000
000000
000000
000000
000000
000000
000000
000000
000000
000000
000000
000000
000000
000000
000000
000000
000000
000000
ENDCHAR

STARTCHAR "
ENCODING 34
SWIDTH 472 0
DWIDTH 17 0
BBX 17 38 0 -8
BITMAP
000000
000000
000000
000000
000000
000000
000000
000000
000000
000000
000000
000000
000000
FEFC00
FEFE00
FCFC00
7C7C00
787800
787800
787800
787800
787800
7FF800
3FF800
107800
007800
007800
00FC00
01FC00
00FC00
000000
000000
000000
000000
000000
000000
000000
000000
ENDCHAR

STARTCHAR #
ENCODING 35
SWIDTH 638 0
DWIDTH 23 0
BBX 23 38 0 -8
BITMAP
000000
000000
000000
000000
000000
FF07F8
FF07F8
FF07F8
7E03E0
7C03E0
7C01E0
7C01E0
7C01E0
7C01E0
7C01E0
7C03E0
7C03E0
7C03E0
3C03E0
3FFFE0
1FFFE0
0FC3E0
0003E0
0003E0
0003E0
0003E0
0003E0
0003E0
000FF0
000FF0
000000
000000
000000
000000
000000
000000
000000
000000
ENDCHAR

STARTCHAR $
ENCODING 36
SWIDTH 472 0
DWIDTH 17 0
BBX 17 38 0 -8
BITMAP
000000
000000
000000
000000
000000
0C6000
1FF000
3FF000
3FF800
1EF000
006000
000000
000000
07C000
1FE000
3C7000
787800
703C00
703C00
F03C00
FFFE00
F81C00
F00000
F00000
F80000
F80000
7C0C00
7E1E00
3FFC00
0FF000
000000
000000
000000
000000
000000
000000
000000
000000
ENDCHAR

STARTCHAR %
ENCODING 37
SWIDTH 583 0
DWIDTH 21 0
BBX 21 38 0 -8
BITMAP
000000
07DE00
07FE00
07FE00
079E00
7FFF80
FFFFC0
FE07C0
7E03E0
3E00E0
3E0040
3E0000
3E0000
3E0200
3E0700
3E0700
3FFF00
3FFF00
3C0700
3C0700
3C0600
3C0000
3C0000
3C0000
3C0060
3C0060
3C00E0
3C00E0
7FFFE0
FFFFE0
000000
000000
000000
000000
000000
000000
000000
000000
ENDCHAR

STARTCHAR &
ENCODING 38
SWIDTH 1027 0
DWIDTH 37 0
BBX 37 38 0 -8
BITMAP
0000000000
0000000000
0000000000
0000000000
7F8FF3FC00
FF9FF3FE00
FF1FF3FE00
7E07C1FE00
3E07C0F800
3E07C0F800
3E07C0F800
3E07C0F800
3E07C0F800
3E07C0F800
3E07C0F800
3E07C0F800
3E0780F800
3E0780F800
3E0780F800
3E0780F800
3E0780F800
3E0780F800
3E0780F800
3C0780F800
3C0780F800
3C0780F800
3C0780F800
7FFFFFFC00
FFFFFFFF00
FFFFFFFF80
0000001F80
0000000780
0000000780
00000007C0
00000003C0
0000000180
0000000000
0000000000
ENDCHAR

STARTCHAR '
ENCODING 39
SWIDTH 777 0
DWIDTH 28 0
BBX 28 38 0 -8
BITMAP
00000000
00000000
00000000
00000000
00000000
7FFE0000
7FFE0000
F8FE0000
F0F80000
E0F80000
C0F80000
00F80000
00F80000
00F80000
00FFF000
00FFF800
00787E00
00701F00
00700F80
007007C0
00F007C0
00F007C0
00F007C0
00F007C0
00F007C0
00F00FC0
01F81F80
03FFFF00
03FFFE00
03FFFC00
00000000
00000000
00000000
00000000
00000000
00000000
00000000
00000000
ENDCHAR

STARTCHAR +
ENCODING 43
SWIDTH 777 0
DWIDTH 28 0
BBX 28 38 0 -8
BITMAP
00000000
00000000
00000000
00000000
00000000
00000000
00000000
00000000
00000000
00000000
00000000
00000000
3C787E00
7EFEFF00
FEFEFF00
FCFCFE00
FC7C7C00
FC7C7C00
7C7C7C00
787C7C00
787C3C00
787C3C00
787C3C00
787C3C00
787C3C00
787C3C00
787C3C00
F87C3C00
FFFFFF00
FFFFFF80
000FFF80
00000780
00000780
00000380
00000180
00000000
00000000
00000000
ENDCHAR

STARTCHAR <
ENCODING 60
SWIDTH 694 0
DWIDTH 25 0
BBX 25 38 0 -8
BITMAP
00000000
00000000
00000000
00000000
00000000
00000000
00000000
00000000
00000000
00000000
00000000
00000000
00000000
FC0FC000
FE1FE000
FC3EF000
78787C00
78F03C00
78E01E00
7CE01E00
7FE01E00
7FE01E00
79E01E00
79E01E00
79E01E00
78E03E00
78F03C00
FC7C7800
FC3FF000
381FE000
00000000
00000000
00000000
00000000
00000000
00000000
00000000
00000000
ENDCHAR

STARTCHAR =
ENCODING 61
SWIDTH 638 0
DWIDTH 23 0
BBX 23 38 0 -8
BITMAP
000000
000000
000000
000000
000000
000000
000000
000000
000000
000000
000000
000000
7E03F0
FE07F8
FE07F8
7C03F8
7C03F0
7C03F0
7C03F0
7F81F0
7FE1F0
7FF9F0
783DF0
783DF0
781FF0
783FF0
783FF0
7FFFF0
FFFFF8
FFF3F8
0003F8
000000
000000
000000
000000
000000
000000
000000
ENDCHAR

STARTCHAR >
ENCODING 62
SWIDTH 500 0
DWIDTH 18 0
BBX 18 38 0 -8
BITMAP
000000
000000
000000
000000
000000
000000
000000
000000
000000
000000
000000
000000
000000
03FC00
1FFF00
3FFF00
3E3F00
7C3E00
783E00
781C00
781C00
3FFC00
0FFC00
0F3C00
0E3C00
1E3C00
3C3C00
3C3C00
F8FF00
F87F00
000000
000000
000000
000000
000000
000000
000000
000000
ENDCHAR

STARTCHAR @
ENCODING 64
SWIDTH 944 0
DWIDTH 34 0
BBX 34 38 0 -8
BITMAP
0000000000
0000000000
0000000000
0000000000
0000000000
0000000000
7F9FE3FE00
FF9FF3FE00
7F0FE1FE00
3E07C0FC00
3E0780F800
3E0780F800
3E0780F800
3E0780F800
3E0780F800
3E0780F800
3E0780F800
3E0780F800
3E0780F800
3C0780F800
3C0780F800
3C0780F800
3E0780F000
3E0780F000
3E0780F800
3E0780F800
3E0780F800
3E0F80F800
FFFFFFFC00
FFFFFFFC00
0000000000
0000000000
0000000000
0000000000
0000000000
0000000000
0000000000
0000000000
ENDCHAR

STARTCHAR A
ENCODING 65
SWIDTH 694 0
DWIDTH 25 0
BBX 25 38 0 -8
BITMAP
00000000
00000000
00000000
00000000
00180000
00780000
00780000
00FC0000
03FC0000
03FC0000
01FE0000
01FE0000
01DE0000
01CE0000
018F0000
038F0000
03070000
03078000
07078000
07038000
0F038000
0FFFC000
0FFFC000
0E03C000
1C01E000
1C01E000
1C01F000
3C01F800
7C03FC00
FE07FE00
00000000
00000000
00000000
00000000
00000000
00000000
00000000
00000000
ENDCHAR

STARTCHAR B
ENCODING 66
SWIDTH 583 0
DWIDTH 21 0
BBX 21 38 0 -8
BITMAP
000000
000000
000000
000000
000000
007C00
FFFF00
FFFF00
FC1F80
7C0780
7C0380
7C0000
7C0000
7C0000
7C0000
7FF800
7FFE00
781F00
780780
7807C0
7803C0
7803E0
7803E0
7801E0
7803E0
7803E0
7803C0
7C0FC0
7FFF00
FFFE00
000000
000000
000000
000000
000000
000000
000000
000000
ENDCHAR

STARTCHAR D
ENCODING 68
SWIDTH 750 0
DWIDTH 27 0
BBX 27 38 0 -8
BITMAP
00000000
00000000
00000000
00000000
00000000
07FFFC00
0FFFFC00
0FF9F800
07C0F800
0380F000
0380F000
0380F000
0380F000
0380F000
0380F000
0380F000
0380F000
0380F000
0300F000
0300F000
0700F000
0700F000
0700F000
0600F000
0600F000
0E00F000
0C00F000
0C007800
1FFFFF00
FFFFFF00
FC001F80
F0000780
E0000380
C0000180
00000000
00000000
00000000
00000000
ENDCHAR

STARTCHAR E
ENCODING 69
SWIDTH 583 0
DWIDTH 21 0
BBX 21 38 0 -8
BITMAP
000000
000000
000000
000000
000000
000000
FFFF80
FFFFC0
7E0FC0
3E03E0
3E00E0
3C0040
3C0000
3C0200
3C0700
3E0700
3FFF00
3FFF00
3E1F00
3E0700
3C0200
3C0000
3C0000
3C0000
3C0000
3C0060
3C00E0
3E01E0
7FFFE0
FFFFC0
000000
000000
000000
000000
000000
000000
000000
000000
ENDCHAR

STARTCHAR F
ENCODING 70
SWIDTH 722 0
DWIDTH 26 0
BBX 26 38 0 -8
BITMAP
00000000
00000000
00000000
00000000
00000000
01FE0000
01FF0000
01FE0000
00FC0000
03FF0000
0FFFE000
1FF9F800
3E387C00
7C383E00
78381E00
F0381E00
F0381E00
F0381F00
F0381F00
F0381E00
F0381E00
F8381E00
78383C00
3E38F800
1FFFF000
0FFFC000
007C0000
007E0000
00FF0000
00040000
00000000
00000000
00000000
00000000
00000000
00000000
00000000
00000000
ENDCHAR

STARTCHAR G
ENCODING 71
SWIDTH 527 0
DWIDTH 19 0
BBX 19 38 0 -8
BITMAP
000000
000000
000000
000000
000700
7FFF00
FFFF80
FE0780
7C0780
3C0380
3C0180
3C0000
3C0000
3C0000
3C0000
3C0000
3C0000
3C0000
3C0000
3C0000
3C0000
3C0000
3C0000
3C0000
3C0000
3C0000
3E0000
3E0000
7F8000
FF8000
000000
000000
000000
000000
000000
000000
000000
000000
ENDCHAR

STARTCHAR H
ENCODING 72
SWIDTH 666 0
DWIDTH 24 0
BBX 24 38 0 -8
BITMAP
000000
000000
000000
000000
000000
7F87F8
FF87F8
7F87F8
7F83C0
1F83C0
0F8780
07C700
07CE00
03EE00
01FC00
01FC00
00FC00
00FC00
00FC00
00FE00
01FE00
019F00
038F80
078F80
0F07C0
0F07C0
1E03E0
7E03F8
FF07FC
FF07F8
000000
000000
000000
000000
000000
000000
000000
000000
ENDCHAR

STARTCHAR I
ENCODING 73
SWIDTH 722 0
DWIDTH 26 0
BBX 26 38 0 -8
BITMAP
00000000
00000000
00000000
00000000
00000000
00007E00
FF03FE00
FF01FC00
FE00F800
3C007800
3C007800
3C00F800
3C00F800
3C01F800
3C037800
3C077800
3C0E7800
3C1C7800
3C387800
3C387800
3C607800
3CC07800
3D807800
3F807800
3E007800
3E007800
3E007800
3E007C00
3F01FE00
FF81FE00
00000000
00000000
00000000
00000000
00000000
00000000
00000000
00000000
ENDCHAR

STARTCHAR K
ENCODING 75
SWIDTH 694 0
DWIDTH 25 0
BBX 25 38 0 -8
BITMAP
00000000
00000000
00000000
00000000
00000000
7F87F800
FF87FC00
FF8FF800
3F07E000
3E07C000
3E078000
3E0F0000
3E1E0000
3E3C0000
3E380000
3E780000
3E780000
3EF80000
3FF80000
3F7C0000
3E7C0000
3E1E0000
3E1F0000
3E0F0000
3E0F8000
3E078000
1E03C000
3E01E000
7F80E000
FF807800
00003C00
00001E00
00001E00
00000C00
00000000
00000000
00000000
00000000
ENDCHAR

STARTCHAR L
ENCODING 76
SWIDTH 694 0
DWIDTH 25 0
BBX 25 38 0 -8
BITMAP
00000000
00000000
00000000
00000000
00000000
0003FC00
07FFFC00
0FF1F800
07E0F800
01E07800
01E07000
01C07000
01C07800
01C07800
01C07800
01C07800
01C07800
01C07800
01C07800
01C07800
01C07800
01C07800
01C07800
01807800
7B807800
FB807800
FB807800
FB007C00
FF00FC00
FE01FE00
7C000000
38000000
00000000
00000000
00000000
00000000
00000000
00000000
ENDCHAR

STARTCHAR M
ENCODING 77
SWIDTH 805 0
DWIDTH 29 0
BBX 29 38 0 -8
BITMAP
00000000
00000000
00000000
00000000
0F803F00
1FC03F00
0FC07E00
07C07C00
07E07C00
07E07C00
07E0FC00
07E0FC00
0EF0FE00
0EF0DE00
0EF1DE00
0EF9DE00
0E799E00
0C7B9E00
1C7F9F00
1C3F0F00
1C3E0F00
1C3E0F00
183E0F00
181E0F00
381E0F00
381C0F00
38080F80
78000F80
FE003FE0
FC001FC0
00000000
00000000
00000000
00000000
00000000
00000000
00000000
00000000
ENDCHAR

STARTCHAR N
ENCODING 78
SWIDTH 722 0
DWIDTH 26 0
BBX 26 38 0 -8
BITMAP
00000000
00000000
00000000
00000000
00000000
7F01FE00
FF00FE00
7E00FC00
3E007800
3E007800
3C007800
3C007800
3C007800
3C007800
3C007800
3FFFF800
3FFFF800
3FFC7800
3E007800
3C007800
3C007800
3C007800
3C007800
3C007800
3C007C00
3E007C00
3E007C00
3E007C00
7E00FE00
FF81FF00
00000000
00000000
00000000
00000000
00000000
00000000
00000000
00000000
ENDCHAR

STARTCHAR O
ENCODING 79
SWIDTH 694 0
DWIDTH 25 0
BBX 25 38 0 -8
BITMAP
00000000
00000000
00000000
00000000
00000000
00FE0000
03FF0000
07DFC000
0F01E000
1C00F000
3C007800
78007800
70007C00
70003C00
F0003C00
F0003C00
F0003E00
F0003E00
F0003E00
F0003E00
F0001E00
F0003E00
F8003C00
F8003C00
78007C00
3C007800
1E00F000
1F03E000
07FFC000
01FF0000
00000000
00000000
00000000
00000000
00000000
00000000
00000000
00000000
ENDCHAR

STARTCHAR P
ENCODING 80
SWIDTH 694 0
DWIDTH 25 0
BBX 25 38 0 -8
BITMAP
00000000
00000000
00000000
00000000
00000000
00000000
FFFEFE00
FFFFFE00
FFC0FE00
7E007C00
3E007C00
3E007C00
3E007C00
3E007C00
3E007C00
3E007800
3E007800
3E007800
3E007800
3E007C00
3E007C00
3E007C00
3E007C00
3E007C00
3E007C00
3E007C00
3E007C00
3F007C00
7F80FE00
7F80FE00
00000000
00000000
00000000
00000000
00000000
00000000
00000000
00000000
ENDCHAR

STARTCHAR R
ENCODING 82
SWIDTH 611 0
DWIDTH 22 0
BBX 22 38 0 -8
BITMAP
000000
000000
000000
000000
7FFC00
FFFF00
FFFF00
7E07C0
7E03E0
3C03E0
3C01F0
3C01F0
3C01F0
3C01F0
3C01F0
3C01F0
3C01E0
3C03C0
3FFFC0
3FFF80
3FFE00
7E0000
7E0000
7E0000
7E0000
7E0000
7E0000
FF0000
FF8000
7F8000
000000
000000
000000
000000
000000
000000
000000
000000
ENDCHAR

STARTCHAR S
ENCODING 83
SWIDTH 611 0
DWIDTH 22 0
BBX 22 38 0 -8
BITMAP
000000
000000
000000
000000
007F80
01FFC0
07FFF0
0F83F0
1F01F0
1E00F0
1C0070
780000
780000
F80000
F80000
F80000
F80000
F00000
F00000
F00000
F00000
F80000
780030
7C0070
3C0070
3E00F0
1F00F0
0FFFF0
07FFE0
00FF00
000000
000000
000000
000000
000000
000000
000000
000000
ENDCHAR

STARTCHAR T
ENCODING 84
SWIDTH 583 0
DWIDTH 21 0
BBX 21 38 0 -8
BITMAP
000000
000000
000000
000000
000000
000000
7F87E0
FFFFE0
FDF3E0
F1F1E0
E1F0E0
C1F060
01F000
01F000
01F000
01F000
01F000
01F000
01F000
01F000
01F000
01F000
01F000
01F000
01F000
01F000
01F000
01F000
07F800
07FC00
000000
000000
000000
000000
000000
000000
000000
000000
ENDCHAR

STARTCHAR U
ENCODING 85
SWIDTH 722 0
DWIDTH 26 0
BBX 26 38 0 -8
BITMAP
00000000
00000000
00000000
00000000
FF80FE00
FF80FE00
FF80FF00
FF007E00
3F007800
1F807800
1F80F000
0FC0F000
0FC0E000
07E1E000
07E1E000
03E3C000
03F3C000
01F3C000
01FF8000
00FF0000
00FF0000
1E7E0000
3E3E0000
3E3E0000
3E3C0000
3E3C0000
3E380000
3EF80000
1FF00000
07C00000
00000000
00000000
00000000
00000000
00000000
00000000
00000000
00000000
ENDCHAR

STARTCHAR V
ENCODING 86
SWIDTH 583 0
DWIDTH 21 0
BBX 21 38 0 -8
BITMAP
000000
000000
000000
000000
000000
7FFC00
FFFE00
FE0700
7C0780
7C03C0
7C03C0
7C03C0
3C03C0
3803C0
380380
3C0780
3C3E00
3FFE00
3DFF80
3807C0
3801E0
3C01E0
3C01E0
3C00E0
3C00E0
3C01E0
3C01E0
7C0FC0
FFFF80
FFFE00
000000
000000
000000
000000
000000
000000
000000
000000
ENDCHAR

STARTCHAR Y
ENCODING 89
SWIDTH 694 0
DWIDTH 25 0
BBX 25 38 0 -8
BITMAP
00CF0000
01EF0000
03EF0000
03CF0000
01FF1000
FFFFFE00
FF03FE00
FE00F800
7C007800
3C007800
3C007800
3C00F800
3C01F800
3C03F800
3C077800
3C0E7800
3C0C7800
3C3C7800
3C307800
3C607800
3CE07800
3CC07800
3F807800
3F007800
3E007800
3E007800
3E007C00
3E007C00
7F01FE00
7F010000
00000000
00000000
00000000
00000000
00000000
00000000
00000000
00000000
ENDCHAR

STARTCHAR Z
ENCODING 90
SWIDTH 555 0
DWIDTH 20 0
BBX 20 38 0 -8
BITMAP
000000
000000
000000
000000
07E000
1FF800
7C3C00
F81E00
F00F00
F00F00
600F00
400F00
000F00
000F00
003E00
07F800
0FF800
0E3E00
001F00
000F80
000780
0007C0
0007C0
C00780
E00780
E00F80
F01F00
FFFF00
7FFE00
3FF000
000000
000000
000000
000000
000000
000000
000000
000000
ENDCHAR

STARTCHAR ^
ENCODING 94
SWIDTH 972 0
DWIDTH 35 0
BBX 35 38 0 -8
BITMAP
0000000000
0000000000
0000000000
0000000000
0000000000
0000000000
FF0FF1FE00
FF1FF1FF00
FF1FE1FE00
3E0FC0FC00
3E07C0F000
1E07C0E000
0707C1C000
0387C38000
03C7C30000
01E7C70000
00E7CE0000
00F7DE0000
01FFFF0000
01FFFF0000
01EFEF0000
01C7C78000
03C3C78000
0383C3C000
078383C000
070381E000
0E0780E000
0E07C07000
1C07C07800
381FE03C00
780FE03C00
F000001E00
E000000F00
E000000700
0000000000
0000000000
0000000000
0000000000
ENDCHAR

STARTCHAR _
ENCODING 95
SWIDTH 777 0
DWIDTH 28 0
BBX 28 38 0 -8
BITMAP
00000000
00000000
00000000
00000000
7F81F800
FFC3FE00
FF83FE00
7F01FC00
3E00F800
3E00F800
3E00F800
3E00F800
3E00F800
3E00F800
3E00F800
3E00F800
3E00F800
3E00F800
3E00F800
3E00F800
3E00F800
3E00F800
3E00F800
3E00F800
3E00F800
3E00F800
3E00F800
FFFFFE00
FFFFFF00
F9FFFF80
00001F80
00000F80
00000780
00000780
00000780
00000380
00000000
00000000
ENDCHAR

STARTCHAR `
ENCODING 96
SWIDTH 555 0
DWIDTH 20 0
BBX 20 38 0 -8
BITMAP
000000
000000
000000
000000
000000
000000
000000
000000
000000
000000
000000
000000
3FE000
7FF000
FFF000
FFE000
F7C000
F7C000
E7C000
07FC00
07FF00
07FF80
0787C0
0783C0
0783C0
0783C0
0787C0
0FFF80
1FFF80
1FFE00
000000
000000
000000
000000
000000
000000
000000
000000
ENDCHAR

STARTCHAR a
ENCODING 97
SWIDTH 416 0
DWIDTH 15 0
BBX 15 38 0 -8
BITMAP
0000
0000
0000
0000
0000
0000
0000
0000
0000
0000
0000
0000
0000
0FC0
1FE0
3CF0
78F0
7870
7070
3070
01F0
07F0
1C70
7870
E070
E070
E078
E0F8
FFFC
7F7C
0000
0000
0000
0000
0000
0000
0000
0000
ENDCHAR

STARTCHAR b
ENCODING 98
SWIDTH 500 0
DWIDTH 18 0
BBX 18 38 0 -8
BITMAP
000000
000000
000000
000000
000400
000E00
003E00
01FC00
07F800
0FF000
1FC000
3E0000
380000
7FE000
7C7000
FC3C00
F81E00
F00E00
F00E00
F00F00
F00F00
F00F00
F00F00
F00F00
F00F00
700E00
781E00
3C1C00
1FFC00
0FF000
000000
000000
000000
000000
000000
000000
000000
000000
ENDCHAR

STARTCHAR d
ENCODING 100
SWIDTH 555 0
DWIDTH 20 0
BBX 20 38 0 -8
BITMAP
000000
000000
000000
000000
000000
000000
000000
000000
000000
000000
000000
000000
000000
1FFF00
1FFF00
1FFF00
1F3E00
0F1E00
071E00
071E00
0F1E00
0F1E00
0E1E00
0E1E00
0E1E00
0E1E00
0C1E00
1C1E00
3FFF80
7FFF80
FC0F80
F007C0
E003C0
E003C0
C00180
000000
000000
000000
ENDCHAR

STARTCHAR e
ENCODING 101
SWIDTH 416 0
DWIDTH 15 0
BBX 15 38 0 -8
BITMAP
0000
0000
0000
0000
0000
0000
0000
0000
0000
0000
0000
0000
0000
0780
1FE0
3FF0
3870
7078
F078
F03C
FFFC
FFFC
F000
F000
F800
F804
781C
3E3C
1FF8
0FF0
0000
0000
0000
0000
0000
0000
0000
0000
ENDCHAR

STARTCHAR f
ENCODING 102
SWIDTH 638 0
DWIDTH 23 0
BBX 23 38 0 -8
BITMAP
000000
000000
000000
000000
000000
000000
007000
00F000
03F000
03F000
01F000
00F000
00F000
0FF000
1FFFC0
3FFFC0
78F0E0
70F0F0
F070F0
F07070
E07078
F07078
F07078
F07078
F07070
F07070
F07070
7870E0
3FFFE0
1FFF80
04F800
00F800
00F800
00F800
00F800
01F800
01FC00
000000
ENDCHAR

STARTCHAR g
ENCODING 103
SWIDTH 388 0
DWIDTH 14 0
BBX 14 38 0 -8
BITMAP
0000
0000
0000
0000
0000
0000
0000
0000
0000
0000
0000
0000
FFF0
FFF0
FFF8
7C78
7C78
7C78
7C30
7C00
7C00
7C00
7C00
7C00
7C00
7C00
7C00
7C00
FE00
7C00
0000
0000
0000
0000
0000
0000
0000
0000
ENDCHAR

STARTCHAR h
ENCODING 104
SWIDTH 500 0
DWIDTH 18 0
BBX 18 38 0 -8
BITMAP
000000
000000
000000
000000
000000
000000
000000
000000
000000
000000
000000
000000
000000
7F7F00
7F7F00
7F7E00
3F3C00
0F3000
0FF000
07E000
07C000
03C000
07E000
07F000
0EF800
1E7C00
3E7C00
FE7F00
FE7F00
FE7F00
000000
000000
000000
000000
000000
000000
000000
000000
ENDCHAR

STARTCHAR i
ENCODING 105
SWIDTH 500 0
DWIDTH 18 0
BBX 18 38 0 -8
BITMAP
000000
000000
000000
000000
000000
000000
000000
000000
000000
000000
000000
000000
000000
FC7F00
FE7F00
FE7F00
7C3E00
7C3E00
783E00
383E00
387E00
38DE00
3D9E00
3F9E00
3F1E00
3C1E00
3C1E00
7C1E00
7C3F00
FE7F00
000000
000000
000000
000000
000000
000000
000000
000000
ENDCHAR

STARTCHAR k
ENCODING 107
SWIDTH 527 0
DWIDTH 19 0
BBX 19 38 0 -8
BITMAP
000000
000000
000000
000000
000000
000000
000000
000000
000000
000000
000000
000000
000000
FC3F00
FF7F00
FE7F00
7C7800
7C7800
7CF000
7DE000
7DC000
7FE000
7FE000
7CF000
7C7800
7C7C00
7C3C00
7C3C00
FE7F00
FE7F80
000000
000000
000000
000000
000000
000000
000000
000000
ENDCHAR

STARTCHAR l
ENCODING 108
SWIDTH 527 0
DWIDTH 19 0
BBX 19 38 0 -8
BITMAP
000000
000000
000000
000000
000000
000000
000000
000000
000000
000000
000000
000000
040000
0FFF00
1FFF00
0F9F00
079E00
079E00
079E00
079E00
079E00
071E00
071E00
071F00
671F00
F71F00
FF1F00
FE1F00
FE1F80
FC3F80
7C3F00
000000
000000
000000
000000
000000
000000
000000
ENDCHAR

STARTCHAR m
ENCODING 109
SWIDTH 583 0
DWIDTH 21 0
BBX 21 38 0 -8
BITMAP
000000
000000
000000
000000
000000
000000
000000
000000
000000
000000
000000
000000
000000
7C03C0
FC07E0
7E07C0
7E0FC0
7E0FC0
7F0F80
7F1F80
7F1F80
7F9B80
739B80
73B380
73F380
73F380
71E7C0
71E7C0
79E7C0
78CFE0
000000
000000
000000
000000
000000
000000
000000
000000
ENDCHAR

STARTCHAR n
ENCODING 110
SWIDTH 500 0
DWIDTH 18 0
BBX 18 38 0 -8
BITMAP
000000
000000
000000
000000
000000
000000
000000
000000
000000
000000
000000
000000
000000
FC7F00
FF7F00
FE3F00
7C3E00
3C1E00
3C1E00
3C1E00
3C1E00
3FFE00
3C1E00
3C1E00
3C1E00
3C1E00
3C1E00
3C1E00
3C1E00
FE7F00
7E3F00
000000
000000
000000
000000
000000
000000
000000
ENDCHAR

STARTCHAR o
ENCODING 111
SWIDTH 500 0
DWIDTH 18 0
BBX 18 38 0 -8
BITMAP
000000
000000
000000
000000
000000
000000
000000
000000
000000
000000
000000
000000
000000
07E000
1FF800
3C7800
783C00
701E00
F00E00
F00F00
F00F00
F00F00
F00F00
F00F00
F01E00
701E00
781E00
3FF800
0FF000
03C000
000000
000000
000000
000000
000000
000000
000000
000000
ENDCHAR

STARTCHAR p
ENCODING 112
SWIDTH 472 0
DWIDTH 17 0
BBX 17 38 0 -8
BITMAP
000000
000000
000000
000000
000000
000000
000000
000000
000000
000000
000000
000000
000000
000000
E7FE00
FFFE00
F87C00
F87800
F87800
787800
F87C00
F87800
F87800
F87800
F87800
F87800
F87C00
F87C00
FC7C00
7CFE00
000000
000000
000000
000000
000000
000000
000000
000000
ENDCHAR

STARTCHAR r
ENCODING 114
SWIDTH 500 0
DWIDTH 18 0
BBX 18 38 0 -8
BITMAP
000000
000000
000000
000000
000000
000000
000000
000000
000000
000000
000000
000000
19E000
3FF000
FFF800
FC3C00
781E00
781E00
780F00
380F00
380F00
380F00
380F00
380F00
381E00
381E00
3C1C00
3C3C00
3FF800
7CE000
7C0000
7C0000
7C0000
7C0000
7C0000
FE0000
FE0000
000000
ENDCHAR

STARTCHAR s
ENCODING 115
SWIDTH 416 0
DWIDTH 15 0
BBX 15 38 0 -8
BITMAP
0000
0000
0000
0000
0000
0000
0000
0000
0000
0000
0000
0000
0780
0FF0
3FF0
3EFC
7C7C
787C
F87C
F838
F800
F800
F800
F800
F800
FC00
7C7C
3FFC
3FFC
0FF0
0000
0000
0000
0000
0000
0000
0000
0000
ENDCHAR

STARTCHAR t
ENCODING 116
SWIDTH 472 0
DWIDTH 17 0
BBX 17 38 0 -8
BITMAP
000000
000000
000000
000000
000000
000000
000000
000000
000000
000000
000000
000000
000000
7FFC00
FFFE00
FFFE00
F7DE00
E7DE00
E7CE00
07C400
07C000
07C000
07C000
07C000
07C000
07C000
07C000
1FE000
1FE000
0FC000
000000
000000
000000
000000
000000
000000
000000
000000
ENDCHAR

STARTCHAR u
ENCODING 117
SWIDTH 555 0
DWIDTH 20 0
BBX 20 38 0 -8
BITMAP
000000
000000
000000
000000
000000
000000
000000
000000
000000
000000
000000
000000
000000
7E03C0
FF0FC0
FF1FC0
7F1FC0
3E0F80
3E0F00
1F1E00
1F1E00
0F9E00
0F9C00
0FFC00
07F800
07F800
03F800
03F800
01F000
01F000
01E000
01E000
11E000
3FC000
7FC000
7FC000
7F8000
3F0000
ENDCHAR

STARTCHAR v
ENCODING 118
SWIDTH 472 0
DWIDTH 17 0
BBX 17 38 0 -8
BITMAP
000000
000000
000000
000000
000000
000000
000000
000000
000000
000000
000000
000000
000000
FFE000
FFF800
FFF800
783C00
783C00
783C00
783C00
787800
7FF000
787C00
781C00
381E00
381E00
381E00
383E00
FFF800
FFF000
000000
000000
000000
000000
000000
000000
000000
000000
ENDCHAR

STARTCHAR y
ENCODING 121
SWIDTH 500 0
DWIDTH 18 0
BBX 18 38 0 -8
BITMAP
000000
000000
000000
000000
000000
000000
1CF000
3EF000
1EF000
1EF000
1FF000
0FE000
038000
FC7E00
FE7F00
FC7E00
783C00
783C00
787800
786000
78F000
39B800
3B3C00
3F3C00
3E3C00
7C3C00
783C00
7C3C00
FC3E00
FE7E00
000000
000000
000000
000000
000000
000000
000000
000000
ENDCHAR

STARTCHAR z
ENCODING 122
SWIDTH 388 0
DWIDTH 14 0
BBX 14 38 0 -8
BITMAP
0000
0000
0000
0000
0000
0000
0000
0000
0000
0000
0000
0000
3F00
7FC0
7FE0
F8F0
F0F0
F0F0
E0F0
61F0
1FE0
1FE0
1FF0
00F8
C078
E078
F078
FDF0
FFF0
FFC0
0000
0000
0000
0000
0000
0000
0000
0000
ENDCHAR

ENDFONT
