STARTFONT 2.1
FONT fg-20
SIZE 19 75 75
FONTBOUNDINGBOX 12 20 0 -5

STARTPROPERTIES 10
COPYRIGHT "Public domain font.  Share and enjoy."
POINT_SIZE 190
WEIGHT 10
RESOLUTION_X 75
RESOLUTION_Y 75
X_HEIGHT 15
QUAD_WIDTH 12
DEFAULT_CHAR 0
FONT_DESCENT 5
FONT_ASCENT 15
ENDPROPERTIES

CHARS 123

STARTCHAR C001
ENCODING 1
SWIDTH 631 0
DWIDTH 12 0
BBX 12 20 0 -5
BITMAP
0C00
0C00
0C00
0C00
0C00
0C00
0C00
0C00
0C00
8C40
CCC0
6D80
3F00
1E00
0C00
0000
0000
0000
0000
0000
ENDCHAR

STARTCHAR C002
ENCODING 2
SWIDTH 631 0
DWIDTH 12 0
BBX 12 20 0 -5
BITMAP
0000
0000
0000
0000
0000
1840
3CC0
6780
C300
C300
C300
C300
6780
3CC0
1840
0000
0000
0000
0000
0000
ENDCHAR

STARTCHAR C003
ENCODING 3
SWIDTH 631 0
DWIDTH 12 0
BBX 12 20 0 -5
BITMAP
0600
0F00
1980
18C0
30C0
3180
3F00
6380
60C0
60C0
60C0
E380
FE00
C000
C000
0000
0000
0000
0000
0000
ENDCHAR

STARTCHAR C004
ENCODING 4
SWIDTH 631 0
DWIDTH 12 0
BBX 12 20 0 -5
BITMAP
0000
0000
0000
0000
0000
0C00
0C00
1E00
1200
3300
2100
6180
4080
C0C0
8040
0000
0000
0000
0000
0000
ENDCHAR

STARTCHAR C005
ENCODING 5
SWIDTH 631 0
DWIDTH 12 0
BBX 12 20 0 -5
BITMAP
0000
0000
0000
0000
0000
0000
0000
0000
FFC0
FFC0
00C0
00C0
00C0
0000
0000
0000
0000
0000
0000
0000
ENDCHAR

STARTCHAR C006
ENCODING 6
SWIDTH 631 0
DWIDTH 12 0
BBX 12 20 0 -5
BITMAP
0000
0000
0000
0000
0000
1E00
3800
6000
C000
C000
FC00
C000
C000
6000
3800
1E00
0000
0000
0000
0000
ENDCHAR

STARTCHAR C007
ENCODING 7
SWIDTH 631 0
DWIDTH 12 0
BBX 12 20 0 -5
BITMAP
0000
0000
0000
0000
0000
FE00
FF80
63C0
6300
6300
6300
6300
6300
6300
E3C0
0000
0000
0000
0000
0000
ENDCHAR

STARTCHAR C010
ENCODING 8
SWIDTH 631 0
DWIDTH 12 0
BBX 12 20 0 -5
BITMAP
0000
0000
E000
3000
1800
0C00
0C00
0E00
0E00
1B00
3300
6180
C180
C0C0
80C0
0000
0000
0000
0000
0000
ENDCHAR

STARTCHAR C013
ENCODING 11
SWIDTH 631 0
DWIDTH 12 0
BBX 12 20 0 -5
BITMAP
0C00
1E00
3F00
6D80
CCC0
8C40
0C00
0C00
0C00
0C00
0C00
0C00
0C00
0C00
0C00
0000
0000
0000
0000
0000
ENDCHAR

STARTCHAR C015
ENCODING 13
SWIDTH 631 0
DWIDTH 12 0
BBX 12 20 0 -5
BITMAP
0000
0000
0000
0000
FF80
FFC0
01C0
0380
C700
CE00
DC00
F800
F000
FE00
FE00
0000
0000
0000
0000
0000
ENDCHAR

STARTCHAR C016
ENCODING 14
SWIDTH 631 0
DWIDTH 12 0
BBX 12 20 0 -5
BITMAP
0000
0000
0000
0000
0000
0000
0000
7380
F3C0
CCC0
CCC0
CCC0
F3C0
7380
0000
0000
0000
0000
0000
0000
ENDCHAR

STARTCHAR C017
ENCODING 15
SWIDTH 631 0
DWIDTH 12 0
BBX 12 20 0 -5
BITMAP
3000
1C00
0600
0300
0300
0180
0F80
3F80
7380
C180
C180
C380
C700
7E00
3800
0000
0000
0000
0000
0000
ENDCHAR

STARTCHAR C020
ENCODING 16
SWIDTH 631 0
DWIDTH 12 0
BBX 12 20 0 -5
BITMAP
0000
0000
0000
0000
0000
1FC0
3FC0
7000
E000
C000
C000
E000
7000
3FC0
1FC0
0000
0000
0000
0000
0000
ENDCHAR

STARTCHAR C021
ENCODING 17
SWIDTH 631 0
DWIDTH 12 0
BBX 12 20 0 -5
BITMAP
0000
0000
0000
0000
0000
FE00
FF00
0380
01C0
00C0
00C0
01C0
0380
FF00
FE00
0000
0000
0000
0000
0000
ENDCHAR

STARTCHAR C022
ENCODING 18
SWIDTH 631 0
DWIDTH 12 0
BBX 12 20 0 -5
BITMAP
3F00
7F80
E1C0
C0C0
C0C0
C0C0
C0C0
C0C0
C0C0
C0C0
C0C0
C0C0
C0C0
C0C0
C0C0
0000
0000
0000
0000
0000
ENDCHAR

STARTCHAR C023
ENCODING 19
SWIDTH 631 0
DWIDTH 12 0
BBX 12 20 0 -5
BITMAP
C0C0
C0C0
C0C0
C0C0
C0C0
C0C0
C0C0
C0C0
C0C0
C0C0
C0C0
C0C0
E1C0
7F80
3F00
0000
0000
0000
0000
0000
ENDCHAR

STARTCHAR C024
ENCODING 20
SWIDTH 631 0
DWIDTH 12 0
BBX 12 20 0 -5
BITMAP
C0C0
C0C0
C0C0
C0C0
7F80
7F80
6180
3300
3300
3300
1200
1E00
1E00
0C00
0C00
0000
0000
0000
0000
0000
ENDCHAR

STARTCHAR C025
ENCODING 21
SWIDTH 631 0
DWIDTH 12 0
BBX 12 20 0 -5
BITMAP
FFC0
FF80
0180
0180
0180
0180
1F80
1F80
0180
0180
0180
0180
0180
FF80
FFC0
0000
0000
0000
0000
0000
ENDCHAR

STARTCHAR C026
ENCODING 22
SWIDTH 631 0
DWIDTH 12 0
BBX 12 20 0 -5
BITMAP
0000
0000
0000
0000
0000
3F00
6180
E1C0
B340
9E40
8C40
9E40
F3C0
6180
3F00
0000
0000
0000
0000
0000
ENDCHAR

STARTCHAR C027
ENCODING 23
SWIDTH 631 0
DWIDTH 12 0
BBX 12 20 0 -5
BITMAP
0000
0000
0000
0000
0000
0000
1200
2100
6180
FFC0
FFC0
6180
2100
1200
0000
0000
0000
0000
0000
0000
ENDCHAR

STARTCHAR C030
ENCODING 24
SWIDTH 631 0
DWIDTH 12 0
BBX 12 20 0 -5
BITMAP
0000
0000
0000
0000
0000
0000
1000
3000
6000
FFC0
FFC0
6000
3000
1000
0000
0000
0000
0000
0000
0000
ENDCHAR

STARTCHAR C031
ENCODING 25
SWIDTH 631 0
DWIDTH 12 0
BBX 12 20 0 -5
BITMAP
0000
0000
0000
0000
0000
0000
0600
0300
0180
FFC0
FFC0
0180
0300
0600
0000
0000
0000
0000
0000
0000
ENDCHAR

STARTCHAR C032
ENCODING 26
SWIDTH 631 0
DWIDTH 12 0
BBX 12 20 0 -5
BITMAP
0000
0000
0000
0000
0000
00C0
0180
FFC0
FFC0
0E00
1C00
FFC0
FFC0
6000
C000
0000
0000
0000
0000
0000
ENDCHAR

STARTCHAR C033
ENCODING 27
SWIDTH 631 0
DWIDTH 12 0
BBX 12 20 0 -5
BITMAP
0000
0C00
0C00
1E00
1E00
3300
6180
E1C0
6180
3300
1E00
1E00
0C00
0C00
0000
0000
0000
0000
0000
0000
ENDCHAR

STARTCHAR C034
ENCODING 28
SWIDTH 631 0
DWIDTH 12 0
BBX 12 20 0 -5
BITMAP
0000
00C0
0380
0F00
3C00
F000
F000
3C00
0F00
0380
00C0
0000
0000
FFC0
FFC0
0000
0000
0000
0000
0000
ENDCHAR

STARTCHAR C035
ENCODING 29
SWIDTH 631 0
DWIDTH 12 0
BBX 12 20 0 -5
BITMAP
0000
C000
7000
3C00
0F00
03C0
03C0
0F00
3C00
7000
C000
0000
0000
FFC0
FFC0
0000
0000
0000
0000
0000
ENDCHAR

STARTCHAR C036
ENCODING 30
SWIDTH 631 0
DWIDTH 12 0
BBX 12 20 0 -5
BITMAP
0000
0000
0000
0000
0000
FF80
FF80
0000
0000
FF80
FF80
0000
0000
FF80
FF80
0000
0000
0000
0000
0000
ENDCHAR

STARTCHAR C037
ENCODING 31
SWIDTH 631 0
DWIDTH 12 0
BBX 12 20 0 -5
BITMAP
0000
0000
0000
0000
0000
8040
C0C0
4080
6180
2100
3300
1200
1E00
0C00
0C00
0000
0000
0000
0000
0000
ENDCHAR

STARTCHAR C040
ENCODING 32
SWIDTH 631 0
DWIDTH 12 0
BBX 12 20 0 -5
BITMAP
0000
0000
0000
0000
0000
0000
0000
0000
0000
0000
0000
0000
0000
0000
0000
0000
0000
0000
0000
0000
ENDCHAR

STARTCHAR !
ENCODING 33
SWIDTH 631 0
DWIDTH 12 0
BBX 12 20 0 -5
BITMAP
C000
C000
C000
C000
C000
C000
C000
C000
C000
C000
C000
0000
0000
C000
C000
0000
0000
0000
0000
0000
ENDCHAR

STARTCHAR "
ENCODING 34
SWIDTH 631 0
DWIDTH 12 0
BBX 12 20 0 -5
BITMAP
CC00
CC00
CC00
CC00
CC00
CC00
0000
0000
0000
0000
0000
0000
0000
0000
0000
0000
0000
0000
0000
0000
ENDCHAR

STARTCHAR #
ENCODING 35
SWIDTH 631 0
DWIDTH 12 0
BBX 12 20 0 -5
BITMAP
0660
0660
0660
0CC0
3FE0
3FE0
1980
1980
3300
3300
FF80
FF80
6600
CC00
CC00
0000
0000
0000
0000
0000
ENDCHAR

STARTCHAR $
ENCODING 36
SWIDTH 631 0
DWIDTH 12 0
BBX 12 20 0 -5
BITMAP
0C00
3F00
7F80
CDC0
CCC0
CC00
7C00
3F00
0F80
0CC0
0CC0
CCC0
FF80
7F00
0C00
0000
0000
0000
0000
0000
ENDCHAR

STARTCHAR %
ENCODING 37
SWIDTH 631 0
DWIDTH 12 0
BBX 12 20 0 -5
BITMAP
70C0
8980
8980
8B00
7300
0600
0600
0C00
1800
1800
3380
3440
6440
6440
C380
0000
0000
0000
0000
0000
ENDCHAR

STARTCHAR &
ENCODING 38
SWIDTH 631 0
DWIDTH 12 0
BBX 12 20 0 -5
BITMAP
0E00
1F00
3180
3180
3180
1F00
3C00
7C00
EE00
C6C0
C3C0
C380
C300
7FC0
3CC0
0000
0000
0000
0000
0000
ENDCHAR

STARTCHAR '
ENCODING 39
SWIDTH 631 0
DWIDTH 12 0
BBX 12 20 0 -5
BITMAP
6000
F000
F000
3000
3000
6000
C000
8000
0000
0000
0000
0000
0000
0000
0000
0000
0000
0000
0000
0000
ENDCHAR

STARTCHAR (
ENCODING 40
SWIDTH 631 0
DWIDTH 12 0
BBX 12 20 0 -5
BITMAP
1800
3000
7000
6000
E000
C000
C000
C000
C000
C000
E000
6000
7000
3000
1800
0000
0000
0000
0000
0000
ENDCHAR

STARTCHAR )
ENCODING 41
SWIDTH 631 0
DWIDTH 12 0
BBX 12 20 0 -5
BITMAP
C000
6000
7000
3000
3800
1800
1800
1800
1800
1800
3800
3000
7000
6000
C000
0000
0000
0000
0000
0000
ENDCHAR

STARTCHAR *
ENCODING 42
SWIDTH 631 0
DWIDTH 12 0
BBX 12 20 0 -5
BITMAP
0000
0000
0000
0000
1E00
0C00
CCC0
EDC0
3300
0000
3300
EDC0
CCC0
0C00
1E00
0000
0000
0000
0000
0000
ENDCHAR

STARTCHAR +
ENCODING 43
SWIDTH 631 0
DWIDTH 12 0
BBX 12 20 0 -5
BITMAP
0000
0000
0000
0000
0000
0C00
0C00
0C00
0C00
FFC0
FFC0
0C00
0C00
0C00
0C00
0000
0000
0000
0000
0000
ENDCHAR

STARTCHAR ,
ENCODING 44
SWIDTH 631 0
DWIDTH 12 0
BBX 12 20 0 -5
BITMAP
0000
0000
0000
0000
0000
0000
0000
0000
0000
0000
0000
0000
6000
F000
F000
3000
3000
6000
C000
8000
ENDCHAR

STARTCHAR -
ENCODING 45
SWIDTH 631 0
DWIDTH 12 0
BBX 12 20 0 -5
BITMAP
0000
0000
0000
0000
0000
0000
0000
0000
0000
FFC0
FFC0
0000
0000
0000
0000
0000
0000
0000
0000
0000
ENDCHAR

STARTCHAR .
ENCODING 46
SWIDTH 631 0
DWIDTH 12 0
BBX 12 20 0 -5
BITMAP
0000
0000
0000
0000
0000
0000
0000
0000
0000
0000
0000
6000
F000
F000
6000
0000
0000
0000
0000
0000
ENDCHAR

STARTCHAR /
ENCODING 47
SWIDTH 631 0
DWIDTH 12 0
BBX 12 20 0 -5
BITMAP
00C0
0180
0180
0300
0300
0600
0600
0C00
1800
1800
3000
3000
6000
6000
C000
0000
0000
0000
0000
0000
ENDCHAR

STARTCHAR 0
ENCODING 48
SWIDTH 631 0
DWIDTH 12 0
BBX 12 20 0 -5
BITMAP
1E00
3F00
7380
61C0
61C0
6380
6780
6D80
7980
7180
E180
E180
7380
3F00
1E00
0000
0000
0000
0000
0000
ENDCHAR

STARTCHAR 1
ENCODING 49
SWIDTH 631 0
DWIDTH 12 0
BBX 12 20 0 -5
BITMAP
1800
3800
7800
1800
1800
1800
1800
1800
1800
1800
1800
1800
1800
FF00
FF00
0000
0000
0000
0000
0000
ENDCHAR

STARTCHAR 2
ENCODING 50
SWIDTH 631 0
DWIDTH 12 0
BBX 12 20 0 -5
BITMAP
3E00
7F00
C180
C180
0180
0180
0300
0600
0C00
1800
3000
6000
C000
FF80
FF80
0000
0000
0000
0000
0000
ENDCHAR

STARTCHAR 3
ENCODING 51
SWIDTH 631 0
DWIDTH 12 0
BBX 12 20 0 -5
BITMAP
3E00
7F00
C380
C180
0180
0300
1E00
1F00
0180
0180
0180
C180
C380
7F00
3E00
0000
0000
0000
0000
0000
ENDCHAR

STARTCHAR 4
ENCODING 52
SWIDTH 631 0
DWIDTH 12 0
BBX 12 20 0 -5
BITMAP
0C00
0C00
1800
1800
3000
3600
6600
6600
C600
C600
FF80
FF80
0600
0600
0600
0000
0000
0000
0000
0000
ENDCHAR

STARTCHAR 5
ENCODING 53
SWIDTH 631 0
DWIDTH 12 0
BBX 12 20 0 -5
BITMAP
FF00
FF00
C000
C000
C000
C000
FE00
FF00
0380
0180
0180
C180
C380
7F00
3E00
0000
0000
0000
0000
0000
ENDCHAR

STARTCHAR 6
ENCODING 54
SWIDTH 631 0
DWIDTH 12 0
BBX 12 20 0 -5
BITMAP
3E00
7F00
C180
C180
C000
C000
DE00
FF00
E380
C180
C180
C180
E380
7F00
3E00
0000
0000
0000
0000
0000
ENDCHAR

STARTCHAR 7
ENCODING 55
SWIDTH 631 0
DWIDTH 12 0
BBX 12 20 0 -5
BITMAP
FF80
FF80
0180
0300
0300
0600
0600
0C00
0C00
1800
1800
3000
3000
6000
6000
0000
0000
0000
0000
0000
ENDCHAR

STARTCHAR 8
ENCODING 56
SWIDTH 631 0
DWIDTH 12 0
BBX 12 20 0 -5
BITMAP
1E00
3F00
6180
6180
6180
3300
1E00
3F00
7380
E1C0
C0C0
C0C0
E1C0
7F80
3F00
0000
0000
0000
0000
0000
ENDCHAR

STARTCHAR 9
ENCODING 57
SWIDTH 631 0
DWIDTH 12 0
BBX 12 20 0 -5
BITMAP
3E00
7F00
E380
C180
C180
C180
E380
7F80
3D80
0180
0180
C180
C380
7F00
3E00
0000
0000
0000
0000
0000
ENDCHAR

STARTCHAR :
ENCODING 58
SWIDTH 631 0
DWIDTH 12 0
BBX 12 20 0 -5
BITMAP
0000
0000
0000
0000
0000
6000
F000
F000
6000
0000
0000
6000
F000
F000
6000
0000
0000
0000
0000
0000
ENDCHAR

STARTCHAR ;
ENCODING 59
SWIDTH 631 0
DWIDTH 12 0
BBX 12 20 0 -5
BITMAP
0000
0000
0000
0000
0000
0000
6000
F000
F000
6000
0000
0000
6000
F000
F000
3000
3000
6000
C000
8000
ENDCHAR

STARTCHAR <
ENCODING 60
SWIDTH 631 0
DWIDTH 12 0
BBX 12 20 0 -5
BITMAP
0000
0000
0000
0000
0000
00C0
0380
0E00
3C00
F000
F000
3C00
0E00
0380
00C0
0000
0000
0000
0000
0000
ENDCHAR

STARTCHAR =
ENCODING 61
SWIDTH 631 0
DWIDTH 12 0
BBX 12 20 0 -5
BITMAP
0000
0000
0000
0000
0000
0000
0000
FF80
FF80
0000
0000
FF80
FF80
0000
0000
0000
0000
0000
0000
0000
ENDCHAR

STARTCHAR >
ENCODING 62
SWIDTH 631 0
DWIDTH 12 0
BBX 12 20 0 -5
BITMAP
0000
0000
0000
0000
0000
C000
7000
3C00
0F00
03C0
03C0
0F00
3C00
7000
C000
0000
0000
0000
0000
0000
ENDCHAR

STARTCHAR ?
ENCODING 63
SWIDTH 631 0
DWIDTH 12 0
BBX 12 20 0 -5
BITMAP
3C00
7E00
E700
8300
0300
0300
0600
0C00
1800
3000
3000
0000
0000
3000
3000
0000
0000
0000
0000
0000
ENDCHAR

STARTCHAR @
ENCODING 64
SWIDTH 631 0
DWIDTH 12 0
BBX 12 20 0 -5
BITMAP
0000
0000
0000
1F00
7F80
60C0
C0C0
CE40
DF40
D940
D940
CFC0
C000
6000
7FC0
1FC0
0000
0000
0000
0000
ENDCHAR

STARTCHAR A
ENCODING 65
SWIDTH 631 0
DWIDTH 12 0
BBX 12 20 0 -5
BITMAP
3E00
7F00
E380
C180
C180
C180
C180
FF80
FF80
C180
C180
C180
C180
C180
C180
0000
0000
0000
0000
0000
ENDCHAR

STARTCHAR B
ENCODING 66
SWIDTH 631 0
DWIDTH 12 0
BBX 12 20 0 -5
BITMAP
FC00
FE00
C700
C300
C300
C600
FE00
FF00
C300
C180
C180
C180
C380
FF00
FC00
0000
0000
0000
0000
0000
ENDCHAR

STARTCHAR C
ENCODING 67
SWIDTH 631 0
DWIDTH 12 0
BBX 12 20 0 -5
BITMAP
3E00
7F00
E380
C180
C000
C000
C000
C000
C000
C000
C000
C180
E380
7F00
3E00
0000
0000
0000
0000
0000
ENDCHAR

STARTCHAR D
ENCODING 68
SWIDTH 631 0
DWIDTH 12 0
BBX 12 20 0 -5
BITMAP
FE00
FF00
C380
C180
C180
C180
C180
C180
C180
C180
C180
C180
C380
FF00
FE00
0000
0000
0000
0000
0000
ENDCHAR

STARTCHAR E
ENCODING 69
SWIDTH 631 0
DWIDTH 12 0
BBX 12 20 0 -5
BITMAP
FF80
FF80
C000
C000
C000
C000
FE00
FE00
C000
C000
C000
C000
C000
FF80
FF80
0000
0000
0000
0000
0000
ENDCHAR

STARTCHAR F
ENCODING 70
SWIDTH 631 0
DWIDTH 12 0
BBX 12 20 0 -5
BITMAP
FF80
FF80
C000
C000
C000
C000
C000
FE00
FE00
C000
C000
C000
C000
C000
C000
0000
0000
0000
0000
0000
ENDCHAR

STARTCHAR G
ENCODING 71
SWIDTH 631 0
DWIDTH 12 0
BBX 12 20 0 -5
BITMAP
3E00
7F00
E380
C180
C000
C000
C000
C000
C780
C780
C180
C180
E380
7F00
3E00
0000
0000
0000
0000
0000
ENDCHAR

STARTCHAR H
ENCODING 72
SWIDTH 631 0
DWIDTH 12 0
BBX 12 20 0 -5
BITMAP
C180
C180
C180
C180
C180
C180
FF80
FF80
C180
C180
C180
C180
C180
C180
C180
0000
0000
0000
0000
0000
ENDCHAR

STARTCHAR I
ENCODING 73
SWIDTH 631 0
DWIDTH 12 0
BBX 12 20 0 -5
BITMAP
FC00
FC00
3000
3000
3000
3000
3000
3000
3000
3000
3000
3000
3000
FC00
FC00
0000
0000
0000
0000
0000
ENDCHAR

STARTCHAR J
ENCODING 74
SWIDTH 631 0
DWIDTH 12 0
BBX 12 20 0 -5
BITMAP
0180
0180
0180
0180
0180
0180
0180
0180
0180
0180
0180
C180
C380
7F00
3E00
0000
0000
0000
0000
0000
ENDCHAR

STARTCHAR K
ENCODING 75
SWIDTH 631 0
DWIDTH 12 0
BBX 12 20 0 -5
BITMAP
C180
C300
C600
CC00
D800
F000
E000
E000
F000
D800
CC00
C600
C300
C180
C080
0000
0000
0000
0000
0000
ENDCHAR

STARTCHAR L
ENCODING 76
SWIDTH 631 0
DWIDTH 12 0
BBX 12 20 0 -5
BITMAP
C000
C000
C000
C000
C000
C000
C000
C000
C000
C000
C000
C000
C000
FF80
FF80
0000
0000
0000
0000
0000
ENDCHAR

STARTCHAR M
ENCODING 77
SWIDTH 631 0
DWIDTH 12 0
BBX 12 20 0 -5
BITMAP
C180
E380
F780
D580
DD80
DD80
C980
C180
C180
C180
C180
C180
C180
C180
C180
0000
0000
0000
0000
0000
ENDCHAR

STARTCHAR N
ENCODING 78
SWIDTH 631 0
DWIDTH 12 0
BBX 12 20 0 -5
BITMAP
C180
E180
E180
F180
F180
D980
D980
DD80
CD80
CD80
C780
C780
C380
C380
C180
0000
0000
0000
0000
0000
ENDCHAR

STARTCHAR O
ENCODING 79
SWIDTH 631 0
DWIDTH 12 0
BBX 12 20 0 -5
BITMAP
3E00
7F00
E380
C180
C180
C180
C180
C180
C180
C180
C180
C180
E380
7F00
3E00
0000
0000
0000
0000
0000
ENDCHAR

STARTCHAR P
ENCODING 80
SWIDTH 631 0
DWIDTH 12 0
BBX 12 20 0 -5
BITMAP
FE00
FF00
C380
C180
C180
C180
C380
FF00
FE00
C000
C000
C000
C000
C000
C000
0000
0000
0000
0000
0000
ENDCHAR

STARTCHAR Q
ENCODING 81
SWIDTH 631 0
DWIDTH 12 0
BBX 12 20 0 -5
BITMAP
3E00
7F00
E380
C180
C180
C180
C180
C180
C180
C180
C180
C780
E780
7F00
3FC0
00C0
0000
0000
0000
0000
ENDCHAR

STARTCHAR R
ENCODING 82
SWIDTH 631 0
DWIDTH 12 0
BBX 12 20 0 -5
BITMAP
FE00
FF00
C380
C180
C180
C380
FF00
FE00
CC00
C600
C600
C300
C300
C180
C180
0000
0000
0000
0000
0000
ENDCHAR

STARTCHAR S
ENCODING 83
SWIDTH 631 0
DWIDTH 12 0
BBX 12 20 0 -5
BITMAP
3E00
7F00
C380
C180
C000
C000
7E00
3F00
0380
0180
0180
C180
C380
FF00
7E00
0000
0000
0000
0000
0000
ENDCHAR

STARTCHAR T
ENCODING 84
SWIDTH 631 0
DWIDTH 12 0
BBX 12 20 0 -5
BITMAP
FFC0
FFC0
0C00
0C00
0C00
0C00
0C00
0C00
0C00
0C00
0C00
0C00
0C00
0C00
0C00
0000
0000
0000
0000
0000
ENDCHAR

STARTCHAR U
ENCODING 85
SWIDTH 631 0
DWIDTH 12 0
BBX 12 20 0 -5
BITMAP
C180
C180
C180
C180
C180
C180
C180
C180
C180
C180
C180
C180
E380
7F00
3E00
0000
0000
0000
0000
0000
ENDCHAR

STARTCHAR V
ENCODING 86
SWIDTH 631 0
DWIDTH 12 0
BBX 12 20 0 -5
BITMAP
C0C0
C0C0
C0C0
C0C0
6180
6180
6180
3300
3300
3300
1200
1E00
1E00
0C00
0C00
0000
0000
0000
0000
0000
ENDCHAR

STARTCHAR W
ENCODING 87
SWIDTH 631 0
DWIDTH 12 0
BBX 12 20 0 -5
BITMAP
C180
C180
C180
C180
C180
C180
C180
C180
C980
DD80
D580
D580
F780
E380
C180
0000
0000
0000
0000
0000
ENDCHAR

STARTCHAR X
ENCODING 88
SWIDTH 631 0
DWIDTH 12 0
BBX 12 20 0 -5
BITMAP
C180
C180
6300
6300
3600
3600
1C00
1C00
1C00
3600
3600
6300
6300
C180
C180
0000
0000
0000
0000
0000
ENDCHAR

STARTCHAR Y
ENCODING 89
SWIDTH 631 0
DWIDTH 12 0
BBX 12 20 0 -5
BITMAP
C0C0
C0C0
6180
6180
3300
3300
1E00
1E00
0C00
0C00
0C00
0C00
0C00
0C00
0C00
0000
0000
0000
0000
0000
ENDCHAR

STARTCHAR Z
ENCODING 90
SWIDTH 631 0
DWIDTH 12 0
BBX 12 20 0 -5
BITMAP
FFC0
FFC0
00C0
01C0
0380
0700
0E00
1C00
3800
7000
E000
C000
C000
FFC0
FFC0
0000
0000
0000
0000
0000
ENDCHAR

STARTCHAR [
ENCODING 91
SWIDTH 631 0
DWIDTH 12 0
BBX 12 20 0 -5
BITMAP
F800
F800
C000
C000
C000
C000
C000
C000
C000
C000
C000
C000
C000
F800
F800
0000
0000
0000
0000
0000
ENDCHAR

STARTCHAR \
ENCODING 92
SWIDTH 631 0
DWIDTH 12 0
BBX 12 20 0 -5
BITMAP
C000
C000
6000
6000
3000
3000
1800
1800
0C00
0600
0600
0300
0300
0180
0180
0000
0000
0000
0000
0000
ENDCHAR

STARTCHAR ]
ENCODING 93
SWIDTH 631 0
DWIDTH 12 0
BBX 12 20 0 -5
BITMAP
F800
F800
1800
1800
1800
1800
1800
1800
1800
1800
1800
1800
1800
F800
F800
0000
0000
0000
0000
0000
ENDCHAR

STARTCHAR ^
ENCODING 94
SWIDTH 631 0
DWIDTH 12 0
BBX 12 20 0 -5
BITMAP
0800
1C00
3600
6300
C180
0000
0000
0000
0000
0000
0000
0000
0000
0000
0000
0000
0000
0000
0000
0000
ENDCHAR

STARTCHAR _
ENCODING 95
SWIDTH 631 0
DWIDTH 12 0
BBX 12 20 0 -5
BITMAP
0000
0000
0000
0000
0000
0000
0000
0000
0000
0000
0000
0000
0000
0000
0000
0000
FFF0
FFF0
0000
0000
ENDCHAR

STARTCHAR `
ENCODING 96
SWIDTH 631 0
DWIDTH 12 0
BBX 12 20 0 -5
BITMAP
2000
6000
C000
C000
F000
F000
6000
0000
0000
0000
0000
0000
0000
0000
0000
0000
0000
0000
0000
0000
ENDCHAR

STARTCHAR a
ENCODING 97
SWIDTH 631 0
DWIDTH 12 0
BBX 12 20 0 -5
BITMAP
0000
0000
0000
0000
1E00
3F00
6180
0180
1F80
7F80
C180
C380
C780
FD80
7980
0000
0000
0000
0000
0000
ENDCHAR

STARTCHAR b
ENCODING 98
SWIDTH 631 0
DWIDTH 12 0
BBX 12 20 0 -5
BITMAP
0000
C000
C000
C000
C000
CE00
DF00
F380
E180
C180
C180
E180
F380
DF00
CE00
0000
0000
0000
0000
0000
ENDCHAR

STARTCHAR c
ENCODING 99
SWIDTH 631 0
DWIDTH 12 0
BBX 12 20 0 -5
BITMAP
0000
0000
0000
0000
0000
1F00
7F00
E180
C180
C000
C000
C000
E180
7F80
3F00
0000
0000
0000
0000
0000
ENDCHAR

STARTCHAR d
ENCODING 100
SWIDTH 631 0
DWIDTH 12 0
BBX 12 20 0 -5
BITMAP
0000
0180
0180
0180
0180
3D80
7F80
E380
C180
C180
C180
C380
C780
7D80
3980
0000
0000
0000
0000
0000
ENDCHAR

STARTCHAR e
ENCODING 101
SWIDTH 631 0
DWIDTH 12 0
BBX 12 20 0 -5
BITMAP
0000
0000
0000
0000
0000
3E00
7F00
E180
C180
FF80
FF80
C000
C180
7F80
3F00
0000
0000
0000
0000
0000
ENDCHAR

STARTCHAR f
ENCODING 102
SWIDTH 631 0
DWIDTH 12 0
BBX 12 20 0 -5
BITMAP
0000
1C00
3C00
3000
3000
3000
FC00
FC00
3000
3000
3000
3000
3000
3000
3000
0000
0000
0000
0000
0000
ENDCHAR

STARTCHAR g
ENCODING 103
SWIDTH 631 0
DWIDTH 12 0
BBX 12 20 0 -5
BITMAP
0000
0000
0000
0000
0000
3980
7D80
E780
C380
C180
C180
C180
E380
7F80
3F80
0180
0180
0180
3F00
1E00
ENDCHAR

STARTCHAR h
ENCODING 104
SWIDTH 631 0
DWIDTH 12 0
BBX 12 20 0 -5
BITMAP
0000
C000
C000
C000
C000
CE00
DF00
F380
E180
C180
C180
C180
C180
C180
C180
0000
0000
0000
0000
0000
ENDCHAR

STARTCHAR i
ENCODING 105
SWIDTH 631 0
DWIDTH 12 0
BBX 12 20 0 -5
BITMAP
0000
C000
C000
0000
0000
C000
C000
C000
C000
C000
C000
C000
C000
C000
C000
0000
0000
0000
0000
0000
ENDCHAR

STARTCHAR j
ENCODING 106
SWIDTH 631 0
DWIDTH 12 0
BBX 12 20 0 -5
BITMAP
0000
1800
1800
0000
0000
1800
1800
1800
1800
1800
1800
1800
1800
1800
1800
1800
1800
F800
F000
0000
ENDCHAR

STARTCHAR k
ENCODING 107
SWIDTH 631 0
DWIDTH 12 0
BBX 12 20 0 -5
BITMAP
0000
0000
C000
C000
C300
C700
CE00
DC00
F800
F000
F800
DC00
CE00
C700
C300
0000
0000
0000
0000
0000
ENDCHAR

STARTCHAR l
ENCODING 108
SWIDTH 631 0
DWIDTH 12 0
BBX 12 20 0 -5
BITMAP
0000
C000
C000
C000
C000
C000
C000
C000
C000
C000
C000
C000
C000
C000
C000
0000
0000
0000
0000
0000
ENDCHAR

STARTCHAR m
ENCODING 109
SWIDTH 631 0
DWIDTH 12 0
BBX 12 20 0 -5
BITMAP
0000
0000
0000
0000
C000
DB80
FFC0
CCC0
CCC0
CCC0
CCC0
CCC0
CCC0
CCC0
CCC0
0000
0000
0000
0000
0000
ENDCHAR

STARTCHAR n
ENCODING 110
SWIDTH 631 0
DWIDTH 12 0
BBX 12 20 0 -5
BITMAP
0000
0000
0000
0000
0000
CE00
DF00
F180
E180
C180
C180
C180
C180
C180
C180
0000
0000
0000
0000
0000
ENDCHAR

STARTCHAR o
ENCODING 111
SWIDTH 631 0
DWIDTH 12 0
BBX 12 20 0 -5
BITMAP
0000
0000
0000
0000
0000
3E00
7F00
E380
C180
C180
C180
C180
E380
7F00
3E00
0000
0000
0000
0000
0000
ENDCHAR

STARTCHAR p
ENCODING 112
SWIDTH 631 0
DWIDTH 12 0
BBX 12 20 0 -5
BITMAP
0000
0000
0000
0000
0000
CE00
DF00
F380
E180
C180
C180
E180
F380
DF00
CE00
C000
C000
C000
C000
0000
ENDCHAR

STARTCHAR q
ENCODING 113
SWIDTH 631 0
DWIDTH 12 0
BBX 12 20 0 -5
BITMAP
0000
0000
0000
0000
0000
3980
7D80
E780
C380
C180
C180
C380
E780
7D80
3980
0180
0180
0180
0180
0000
ENDCHAR

STARTCHAR r
ENCODING 114
SWIDTH 631 0
DWIDTH 12 0
BBX 12 20 0 -5
BITMAP
0000
0000
0000
0000
0000
CE00
DF00
F180
E180
C000
C000
C000
C000
C000
C000
0000
0000
0000
0000
0000
ENDCHAR

STARTCHAR s
ENCODING 115
SWIDTH 631 0
DWIDTH 12 0
BBX 12 20 0 -5
BITMAP
0000
0000
0000
0000
0000
7F00
FF80
C080
C000
7E00
3F00
0180
C180
FF80
7F00
0000
0000
0000
0000
0000
ENDCHAR

STARTCHAR t
ENCODING 116
SWIDTH 631 0
DWIDTH 12 0
BBX 12 20 0 -5
BITMAP
0000
0000
3000
3000
3000
FC00
FC00
3000
3000
3000
3000
3000
3000
3C00
1C00
0000
0000
0000
0000
0000
ENDCHAR

STARTCHAR u
ENCODING 117
SWIDTH 631 0
DWIDTH 12 0
BBX 12 20 0 -5
BITMAP
0000
0000
0000
0000
0000
C180
C180
C180
C180
C180
C180
C380
E780
7D80
3980
0000
0000
0000
0000
0000
ENDCHAR

STARTCHAR v
ENCODING 118
SWIDTH 631 0
DWIDTH 12 0
BBX 12 20 0 -5
BITMAP
0000
0000
0000
0000
0000
C0C0
C0C0
6180
6180
3300
3300
1E00
1E00
0C00
0C00
0000
0000
0000
0000
0000
ENDCHAR

STARTCHAR w
ENCODING 119
SWIDTH 631 0
DWIDTH 12 0
BBX 12 20 0 -5
BITMAP
0000
0000
0000
0000
0000
C180
C180
C180
C180
C980
DD80
DD80
F780
E380
C180
0000
0000
0000
0000
0000
ENDCHAR

STARTCHAR x
ENCODING 120
SWIDTH 631 0
DWIDTH 12 0
BBX 12 20 0 -5
BITMAP
0000
0000
0000
0000
0000
C180
C180
6300
3600
1C00
1C00
3E00
6300
C180
C180
0000
0000
0000
0000
0000
ENDCHAR

STARTCHAR y
ENCODING 121
SWIDTH 631 0
DWIDTH 12 0
BBX 12 20 0 -5
BITMAP
0000
0000
0000
0000
0000
C180
C180
C180
C180
C180
C180
C180
C180
7F80
3F80
0180
0180
0180
7F00
3E00
ENDCHAR

STARTCHAR z
ENCODING 122
SWIDTH 631 0
DWIDTH 12 0
BBX 12 20 0 -5
BITMAP
0000
0000
0000
0000
0000
FF80
FF80
0300
0600
0C00
1800
3000
6000
FF80
FF80
0000
0000
0000
0000
0000
ENDCHAR

STARTCHAR {
ENCODING 123
SWIDTH 631 0
DWIDTH 12 0
BBX 12 20 0 -5
BITMAP
3800
6000
6000
3000
3000
3000
6000
E000
6000
3000
3000
3000
6000
6000
3800
0000
0000
0000
0000
0000
ENDCHAR

STARTCHAR |
ENCODING 124
SWIDTH 631 0
DWIDTH 12 0
BBX 12 20 0 -5
BITMAP
C000
C000
C000
C000
C000
C000
C000
C000
C000
C000
C000
C000
C000
C000
C000
C000
C000
C000
C000
C000
ENDCHAR

STARTCHAR }
ENCODING 125
SWIDTH 631 0
DWIDTH 12 0
BBX 12 20 0 -5
BITMAP
E000
3000
3000
6000
6000
6000
3000
3800
3000
6000
6000
6000
3000
3000
E000
0000
0000
0000
0000
0000
ENDCHAR

STARTCHAR ~
ENCODING 126
SWIDTH 631 0
DWIDTH 12 0
BBX 12 20 0 -5
BITMAP
0000
0000
0000
0000
0000
0000
0000
0000
3840
7CC0
6D80
CF80
8700
0000
0000
0000
0000
0000
0000
0000
ENDCHAR

ENDFONT
