STARTFONT 2.1
FONT fg-30
SIZE 28 75 75
FONTBOUNDINGBOX 19 30 0 -5

STARTPROPERTIES 10
COPYRIGHT "Public domain font.  Share and enjoy."
POINT_SIZE 280
WEIGHT 10
RESOLUTION_X 75
RESOLUTION_Y 75
X_HEIGHT 25
QUAD_WIDTH 19
DEFAULT_CHAR 0
FONT_DESCENT 5
FONT_ASCENT 25
ENDPROPERTIES

CHARS 127

STARTCHAR C001
ENCODING 1
SWIDTH 678 0
DWIDTH 19 0
BBX 19 30 0 -5
BITMAP
030000
030000
030000
030000
030000
030000
030000
030000
030000
030000
030000
030000
030000
C30C00
E31C00
E31C00
733800
733800
3B7000
1FE000
1FE000
0FC000
078000
030000
000000
000000
000000
000000
000000
000000
ENDCHAR

STARTCHAR C002
ENCODING 2
SWIDTH 678 0
DWIDTH 19 0
BBX 19 30 0 -5
BITMAP
000000
000000
000000
000000
000000
000000
000000
000000
000700
1F0600
3F8E00
7FCC00
407C00
C07800
C07800
C03800
C03800
C03800
C03800
C07800
407C00
60CC00
3F8F00
1F0100
000000
000000
000000
000000
000000
000000
ENDCHAR

STARTCHAR C003
ENCODING 3
SWIDTH 678 0
DWIDTH 19 0
BBX 19 30 0 -5
BITMAP
003C00
00FC00
01FE00
03FF00
070700
0E0700
0C0700
180600
180E00
300C00
301800
303000
707000
703E00
F00E00
F00780
F00780
F00780
F00780
F00780
FC0700
FFFE00
FFFC00
E7F800
E00000
E00000
E00000
E00000
E00000
E00000
ENDCHAR

STARTCHAR C004
ENCODING 4
SWIDTH 678 0
DWIDTH 19 0
BBX 19 30 0 -5
BITMAP
000000
000000
000000
000000
000000
000000
000000
000000
000000
01C000
03E000
063000
063000
0E3800
0C1800
1C1C00
180C00
380E00
300600
700700
600300
E00380
C00180
C00180
000000
000000
000000
000000
000000
000000
ENDCHAR

STARTCHAR C005
ENCODING 5
SWIDTH 678 0
DWIDTH 19 0
BBX 19 30 0 -5
BITMAP
000000
000000
000000
000000
000000
000000
000000
000000
000000
000000
000000
000000
FFFF00
FFFF00
000300
000300
000300
000300
000300
000000
000000
000000
000000
000000
000000
000000
000000
000000
000000
000000
ENDCHAR

STARTCHAR C006
ENCODING 6
SWIDTH 678 0
DWIDTH 19 0
BBX 19 30 0 -5
BITMAP
000000
000000
000000
000000
000000
000000
000000
000000
000000
07E000
1E0000
380000
700000
600000
E00000
E00000
FF0000
E00000
E00000
600000
700000
380000
1E0000
07E000
000000
000000
000000
000000
000000
000000
ENDCHAR

STARTCHAR C007
ENCODING 7
SWIDTH 678 0
DWIDTH 19 0
BBX 19 30 0 -5
BITMAP
000000
000000
000000
000000
000000
000000
000000
000000
000300
FFFF00
FFFF00
CE3C00
8E3800
0E3800
0C3800
1C3800
1C1800
181800
181C00
300C00
300C00
300E00
300600
300600
000000
000000
000000
000000
000000
000000
ENDCHAR

STARTCHAR C010
ENCODING 8
SWIDTH 678 0
DWIDTH 19 0
BBX 19 30 0 -5
BITMAP
000000
000000
000000
7E0000
7F0000
070000
038000
018000
01C000
00C000
00E000
00E000
00E000
00F000
01F000
03F000
073800
0F1800
1E1C00
3C0C00
380E00
600600
E00700
E00780
000000
000000
000000
000000
000000
000000
ENDCHAR

STARTCHAR C011
ENCODING 9
SWIDTH 678 0
DWIDTH 19 0
BBX 19 30 0 -5
BITMAP
000000
000000
000000
000000
000300
E00700
F00F00
781E00
3C3C00
1E7800
0FF000
03E000
03C000
03C000
03C000
03E000
03E000
03E000
03E000
03E000
01E000
01C000
000000
000000
000000
000000
000000
000000
000000
000000
ENDCHAR

STARTCHAR C012
ENCODING 10
SWIDTH 678 0
DWIDTH 19 0
BBX 19 30 0 -5
BITMAP
000000
000000
000000
000000
07F000
1FFE00
3FFE00
300E00
300000
380000
3E0000
07C000
07F000
1FF800
3FFC00
781C00
E00C00
E00C00
E00C00
E01C00
783C00
7FF800
7FF800
0FE000
000000
000000
000000
000000
000000
000000
ENDCHAR

STARTCHAR C013
ENCODING 11
SWIDTH 678 0
DWIDTH 19 0
BBX 19 30 0 -5
BITMAP
030000
078000
0FC000
1FE000
1FE000
3B7000
733800
733800
E31C00
E31C00
C30C00
830400
030000
030000
030000
030000
030000
030000
030000
030000
030000
030000
030000
030000
000000
000000
000000
000000
000000
000000
ENDCHAR

STARTCHAR C014
ENCODING 12
SWIDTH 678 0
DWIDTH 19 0
BBX 19 30 0 -5
BITMAP
000000
018000
018000
018000
018000
018000
018000
018000
FFFF00
FFFF00
FFFF00
018000
018000
018000
018000
018000
018000
018000
000000
000000
FFFF00
FFFF00
FFFF00
000000
000000
000000
000000
000000
000000
000000
ENDCHAR

STARTCHAR C015
ENCODING 13
SWIDTH 678 0
DWIDTH 19 0
BBX 19 30 0 -5
BITMAP
000000
000000
000000
000000
000000
03E000
0FF800
1DDC00
39CE00
61C300
61C300
C1C180
FFFF80
FFFF80
FFFF80
C1C180
61C300
61C300
39CE00
1DDC00
0FF800
03E000
000000
000000
000000
000000
000000
000000
000000
000000
ENDCHAR

STARTCHAR C016
ENCODING 14
SWIDTH 678 0
DWIDTH 19 0
BBX 19 30 0 -5
BITMAP
000000
000000
000000
000000
000000
000000
000000
000000
000000
000000
000000
3C1E00
7E3F00
E3E180
E1C180
E1C180
E1C180
E1C180
E3E180
7E3F00
3C1E00
000000
000000
000000
000000
000000
000000
000000
000000
000000
ENDCHAR

STARTCHAR C017
ENCODING 15
SWIDTH 678 0
DWIDTH 19 0
BBX 19 30 0 -5
BITMAP
078000
1FE000
1FF000
1C1C00
000C00
000C00
000C00
000C00
000C00
000C00
000C00
1F8C00
3FFC00
7FFC00
E01C00
E01C00
E01C00
E01C00
E01C00
E01800
607000
7FE000
7FC000
0F8000
000000
000000
000000
000000
000000
000000
ENDCHAR

STARTCHAR C020
ENCODING 16
SWIDTH 678 0
DWIDTH 19 0
BBX 19 30 0 -5
BITMAP
000000
000000
000000
000000
000000
000000
000000
000000
03FF00
0FFF00
1FFF00
780000
700000
E00000
C00000
C00000
C00000
C00000
E00000
F00000
780000
3FFF00
0FFF00
03FF00
000000
000000
000000
000000
000000
000000
ENDCHAR

STARTCHAR C021
ENCODING 17
SWIDTH 678 0
DWIDTH 19 0
BBX 19 30 0 -5
BITMAP
000000
000000
000000
000000
000000
000000
000000
000000
FFE000
FFF000
FFFC00
001E00
000F00
000780
000380
000380
000380
000380
000780
000F00
001E00
FFFC00
FFF800
FFE000
000000
000000
000000
000000
000000
000000
ENDCHAR

STARTCHAR C022
ENCODING 18
SWIDTH 678 0
DWIDTH 19 0
BBX 19 30 0 -5
BITMAP
000000
000000
000000
000000
078000
1FE000
387000
F03C00
E01C00
E01C00
E01C00
E01C00
E01C00
E01C00
E01C00
E01C00
E01C00
E01C00
E01C00
E01C00
E01C00
E01C00
E01C00
E01C00
000000
000000
000000
000000
000000
000000
ENDCHAR

STARTCHAR C023
ENCODING 19
SWIDTH 678 0
DWIDTH 19 0
BBX 19 30 0 -5
BITMAP
000000
000000
000000
000000
E01C00
E01C00
E01C00
E01C00
E01C00
E01C00
E01C00
E01C00
E01C00
E01C00
E01C00
E01C00
E01C00
E01C00
E01C00
E01C00
F03C00
387000
1FE000
078000
000000
000000
000000
000000
000000
000000
ENDCHAR

STARTCHAR C024
ENCODING 20
SWIDTH 678 0
DWIDTH 19 0
BBX 19 30 0 -5
BITMAP
C00300
C00300
E00700
600600
600600
700600
300C00
300C00
3FFC00
1FF800
1FF800
1C3800
1C3800
0E7000
0E7000
0E7000
066000
07E000
03C000
03C000
03C000
018000
018000
018000
000000
000000
000000
000000
000000
000000
ENDCHAR

STARTCHAR C025
ENCODING 21
SWIDTH 678 0
DWIDTH 19 0
BBX 19 30 0 -5
BITMAP
FFFF80
FFFF00
000700
000700
000700
000700
000700
000700
000700
000700
000700
03FF00
03FF00
000700
000700
000700
000700
000700
000700
000700
000700
000700
FFFF00
FFFF80
000000
000000
000000
000000
000000
000000
ENDCHAR

STARTCHAR C026
ENCODING 22
SWIDTH 678 0
DWIDTH 19 0
BBX 19 30 0 -5
BITMAP
000000
000000
000000
000000
000000
000000
000000
000000
000000
03E000
0FF800
180C00
3C1E00
663100
67F100
E3E180
E1C180
E3E180
67F100
7E3F00
3C1E00
180C00
0FF800
03E000
000000
000000
000000
000000
000000
000000
ENDCHAR

STARTCHAR C027
ENCODING 23
SWIDTH 678 0
DWIDTH 19 0
BBX 19 30 0 -5
BITMAP
000000
000000
000000
000000
000000
000000
000000
000000
000000
000000
0C1800
1C1C00
180E00
300600
7FFF00
FFFF80
7FFF00
300600
180E00
1C1C00
0C1800
000000
000000
000000
000000
000000
000000
000000
000000
000000
ENDCHAR

STARTCHAR C030
ENCODING 24
SWIDTH 678 0
DWIDTH 19 0
BBX 19 30 0 -5
BITMAP
000000
000000
000000
000000
000000
000000
000000
000000
000000
000000
0C0000
180000
300000
600000
FFFF00
FFFF00
FFFF00
600000
300000
180000
0C0000
000000
000000
000000
000000
000000
000000
000000
000000
000000
ENDCHAR

STARTCHAR C031
ENCODING 25
SWIDTH 678 0
DWIDTH 19 0
BBX 19 30 0 -5
BITMAP
000000
000000
000000
000000
000000
000000
000000
000000
000000
000000
003800
001C00
000E00
000700
FFFF80
FFFF80
FFFF80
000700
000E00
001C00
003800
000000
000000
000000
000000
000000
000000
000000
000000
000000
ENDCHAR

STARTCHAR C032
ENCODING 26
SWIDTH 678 0
DWIDTH 19 0
BBX 19 30 0 -5
BITMAP
000000
000000
000000
000000
000000
000000
000000
000000
000000
001C00
003800
007000
FFFC00
FFFC00
01C000
038000
038000
FFFC00
FFFC00
380000
700000
E00000
000000
000000
000000
000000
000000
000000
000000
000000
ENDCHAR

STARTCHAR C033
ENCODING 27
SWIDTH 678 0
DWIDTH 19 0
BBX 19 30 0 -5
BITMAP
000000
000000
000000
030000
030000
078000
078000
0FC000
1FE000
3CF000
787800
F03C00
F03C00
F03C00
787800
3CF000
1FE000
0FC000
078000
078000
030000
030000
000000
000000
000000
000000
000000
000000
000000
000000
ENDCHAR

STARTCHAR C034
ENCODING 28
SWIDTH 678 0
DWIDTH 19 0
BBX 19 30 0 -5
BITMAP
000000
000000
000000
000000
000000
000C00
003C00
00F000
03E000
0F8000
3E0000
F80000
F80000
3E0000
1F0000
07C000
01F000
007C00
000C00
000000
000000
000000
FFFC00
FFFC00
000000
000000
000000
000000
000000
000000
ENDCHAR

STARTCHAR C035
ENCODING 29
SWIDTH 678 0
DWIDTH 19 0
BBX 19 30 0 -5
BITMAP
000000
000000
000000
000000
000000
C00000
F00000
3C0000
1F0000
07C000
01F000
007C00
007C00
01F000
03E000
0F8000
3E0000
F80000
C00000
000000
000000
000000
FFFC00
FFFC00
000000
000000
000000
000000
000000
000000
ENDCHAR

STARTCHAR C036
ENCODING 30
SWIDTH 678 0
DWIDTH 19 0
BBX 19 30 0 -5
BITMAP
000000
000000
000000
000000
000000
000000
000000
000000
000000
000000
FFFC00
FFFC00
000000
000000
000000
FFFC00
FFFC00
000000
000000
000000
FFFC00
FFFC00
000000
000000
000000
000000
000000
000000
000000
000000
ENDCHAR

STARTCHAR C037
ENCODING 31
SWIDTH 678 0
DWIDTH 19 0
BBX 19 30 0 -5
BITMAP
000000
000000
000000
000000
000000
000000
000000
000000
000000
C00180
C00180
E00380
600300
700700
300600
380E00
180C00
1C1C00
0C1800
0E3800
063000
063000
03E000
01C000
000000
000000
000000
000000
000000
000000
ENDCHAR

STARTCHAR C040
ENCODING 32
SWIDTH 678 0
DWIDTH 19 0
BBX 19 30 0 -5
BITMAP
000000
000000
000000
000000
000000
000000
000000
000000
000000
000000
000000
000000
000000
000000
000000
000000
000000
000000
000000
000000
000000
000000
000000
000000
000000
000000
000000
000000
000000
000000
ENDCHAR

STARTCHAR !
ENCODING 33
SWIDTH 678 0
DWIDTH 19 0
BBX 19 30 0 -5
BITMAP
C00000
C00000
C00000
C00000
C00000
C00000
C00000
C00000
C00000
C00000
C00000
C00000
C00000
C00000
C00000
C00000
C00000
000000
000000
000000
C00000
C00000
C00000
C00000
000000
000000
000000
000000
000000
000000
ENDCHAR

STARTCHAR "
ENCODING 34
SWIDTH 678 0
DWIDTH 19 0
BBX 19 30 0 -5
BITMAP
E38000
E38000
E38000
E38000
E38000
E38000
E38000
E38000
E38000
E38000
000000
000000
000000
000000
000000
000000
000000
000000
000000
000000
000000
000000
000000
000000
000000
000000
000000
000000
000000
000000
ENDCHAR

STARTCHAR #
ENCODING 35
SWIDTH 678 0
DWIDTH 19 0
BBX 19 30 0 -5
BITMAP
030300
030300
030300
070300
0E0700
0E0700
7FFF00
7FFF00
1C0C00
1C0C00
1C0C00
1C0C00
303800
303800
303800
303800
FFFE00
FFFE00
E07000
E07000
C0E000
C0C000
C0C000
C0C000
000000
000000
000000
000000
000000
000000
ENDCHAR

STARTCHAR $
ENCODING 36
SWIDTH 678 0
DWIDTH 19 0
BBX 19 30 0 -5
BITMAP
0CC000
0CC000
1FE000
3FF000
7CF800
ECFC00
ECCC00
ECC000
ECC000
FCC000
7CC000
3FC000
1FF000
0CF800
0CFC00
0CDC00
0CDC00
CCDC00
ECDC00
7CF800
3FF000
1FE000
0CC000
0CC000
000000
000000
000000
000000
000000
000000
ENDCHAR

STARTCHAR %
ENCODING 37
SWIDTH 678 0
DWIDTH 19 0
BBX 19 30 0 -5
BITMAP
000700
000700
3E0600
7F0E00
E30C00
E31C00
E31800
7F3000
3E3000
007000
006000
00E000
00C000
01C000
018000
038000
031E00
073F00
066180
0C6180
0C6180
186100
183E00
181C00
000000
000000
000000
000000
000000
000000
ENDCHAR

STARTCHAR &
ENCODING 38
SWIDTH 678 0
DWIDTH 19 0
BBX 19 30 0 -5
BITMAP
01E000
0FF000
0E3800
0C1C00
1C1C00
1C1C00
1C3800
0E7800
07C000
07C000
1F8000
3F8000
73C000
E1E000
E0E300
E0F300
E07B00
E07B00
E03E00
F03E00
783F00
7FFF00
3FE300
0FC000
000000
000000
000000
000000
000000
000000
ENDCHAR

STARTCHAR '
ENCODING 39
SWIDTH 678 0
DWIDTH 19 0
BBX 19 30 0 -5
BITMAP
780000
FC0000
FC0000
7C0000
3C0000
3C0000
380000
300000
200000
000000
000000
000000
000000
000000
000000
000000
000000
000000
000000
000000
000000
000000
000000
000000
000000
000000
000000
000000
000000
000000
ENDCHAR

STARTCHAR (
ENCODING 40
SWIDTH 678 0
DWIDTH 19 0
BBX 19 30 0 -5
BITMAP
0E0000
1C0000
380000
300000
700000
700000
700000
700000
F00000
F00000
F00000
F00000
F00000
F00000
F00000
F00000
700000
700000
700000
700000
300000
380000
1C0000
0E0000
000000
000000
000000
000000
000000
000000
ENDCHAR

STARTCHAR )
ENCODING 41
SWIDTH 678 0
DWIDTH 19 0
BBX 19 30 0 -5
BITMAP
E00000
700000
380000
180000
1C0000
1C0000
1C0000
1C0000
1E0000
1E0000
1E0000
1E0000
1E0000
1E0000
1E0000
1E0000
1C0000
1C0000
1C0000
1C0000
180000
380000
700000
E00000
000000
000000
000000
000000
000000
000000
ENDCHAR

STARTCHAR *
ENCODING 42
SWIDTH 678 0
DWIDTH 19 0
BBX 19 30 0 -5
BITMAP
000000
000000
000000
000000
000000
000000
018000
03C000
C3C300
E18700
F18F00
F18F00
3FFC00
1FF800
0FF000
0FF000
1FF800
3FFC00
F18F00
F18F00
E18700
C1C300
03C000
018000
000000
000000
000000
000000
000000
000000
ENDCHAR

STARTCHAR +
ENCODING 43
SWIDTH 678 0
DWIDTH 19 0
BBX 19 30 0 -5
BITMAP
000000
000000
000000
000000
000000
000000
000000
018000
018000
018000
018000
018000
018000
018000
FFFF00
FFFF00
FFFF00
018000
018000
018000
018000
018000
018000
018000
000000
000000
000000
000000
000000
000000
ENDCHAR

STARTCHAR ,
ENCODING 44
SWIDTH 678 0
DWIDTH 19 0
BBX 19 30 0 -5
BITMAP
000000
000000
000000
000000
000000
000000
000000
000000
000000
000000
000000
000000
000000
000000
000000
000000
000000
000000
000000
000000
780000
FC0000
FC0000
7C0000
3C0000
380000
300000
200000
000000
000000
ENDCHAR

STARTCHAR -
ENCODING 45
SWIDTH 678 0
DWIDTH 19 0
BBX 19 30 0 -5
BITMAP
000000
000000
000000
000000
000000
000000
000000
000000
000000
000000
000000
000000
000000
000000
FFFC00
FFFC00
FFFC00
000000
000000
000000
000000
000000
000000
000000
000000
000000
000000
000000
000000
000000
ENDCHAR

STARTCHAR .
ENCODING 46
SWIDTH 678 0
DWIDTH 19 0
BBX 19 30 0 -5
BITMAP
000000
000000
000000
000000
000000
000000
000000
000000
000000
000000
000000
000000
000000
000000
000000
000000
000000
000000
780000
FC0000
FC0000
FC0000
FC0000
780000
000000
000000
000000
000000
000000
000000
ENDCHAR

STARTCHAR /
ENCODING 47
SWIDTH 678 0
DWIDTH 19 0
BBX 19 30 0 -5
BITMAP
001E00
001C00
001C00
003800
003800
007000
007000
00E000
00E000
01C000
01C000
038000
038000
070000
070000
0E0000
0E0000
1C0000
1C0000
380000
380000
700000
F00000
E00000
000000
000000
000000
000000
000000
000000
ENDCHAR

STARTCHAR 0
ENCODING 48
SWIDTH 678 0
DWIDTH 19 0
BBX 19 30 0 -5
BITMAP
07F000
0FF800
1FFC00
3C1F80
380F80
300F80
300F00
701F00
703F00
707F00
70F700
71E700
73C700
778700
7F0700
7E0700
7C0700
780700
F80600
F80E00
FC1E00
1FFC00
0FF800
07F000
000000
000000
000000
000000
000000
000000
ENDCHAR

STARTCHAR 1
ENCODING 49
SWIDTH 678 0
DWIDTH 19 0
BBX 19 30 0 -5
BITMAP
1E0000
3E0000
7E0000
EE0000
0E0000
0E0000
0E0000
0E0000
0E0000
0E0000
0E0000
0E0000
0E0000
0E0000
0E0000
0E0000
0E0000
0E0000
0E0000
0E0000
0E0000
0E0000
FFF000
FFF000
000000
000000
000000
000000
000000
000000
ENDCHAR

STARTCHAR 2
ENCODING 50
SWIDTH 678 0
DWIDTH 19 0
BBX 19 30 0 -5
BITMAP
1FF000
7FFC00
7FFC00
C00E00
C00600
C00600
000600
000600
000E00
001800
003000
006000
00C000
018000
038000
060000
0C0000
180000
300000
600000
E00000
FFFE00
FFFE00
FFFE00
000000
000000
000000
000000
000000
000000
ENDCHAR

STARTCHAR 3
ENCODING 51
SWIDTH 678 0
DWIDTH 19 0
BBX 19 30 0 -5
BITMAP
0FF000
3FFE00
3FFE00
600600
E00700
E00700
000700
000600
000E00
000C00
001800
03F800
03F800
001800
000C00
000E00
000600
000700
E00700
E00700
600600
3FFE00
3FFE00
0FF000
000000
000000
000000
000000
000000
000000
ENDCHAR

STARTCHAR 4
ENCODING 52
SWIDTH 678 0
DWIDTH 19 0
BBX 19 30 0 -5
BITMAP
018000
038000
038000
070000
060000
0E0000
0C0000
1C0000
187000
387000
307000
607000
607000
C07000
C07000
C07000
FFFE00
FFFE00
007000
007000
007000
007000
007000
007000
000000
000000
000000
000000
000000
000000
ENDCHAR

STARTCHAR 5
ENCODING 53
SWIDTH 678 0
DWIDTH 19 0
BBX 19 30 0 -5
BITMAP
FFFE00
FFFE00
FFFE00
E00000
E00000
E00000
E00000
E00000
E00000
E00000
E00000
FFF000
FFFE00
000E00
000600
000700
000700
000700
E00700
E00700
600600
3FFE00
3FFE00
0FF000
000000
000000
000000
000000
000000
000000
ENDCHAR

STARTCHAR 6
ENCODING 54
SWIDTH 678 0
DWIDTH 19 0
BBX 19 30 0 -5
BITMAP
1FE000
7FFC00
7FFC00
E00C00
C00600
C00600
C00000
C00000
C00000
C00000
C00000
C78000
DFE000
FFFC00
F01C00
E00C00
C00E00
C00E00
C00E00
C00E00
E00C00
7FFC00
7FFC00
1FE000
000000
000000
000000
000000
000000
000000
ENDCHAR

STARTCHAR 7
ENCODING 55
SWIDTH 678 0
DWIDTH 19 0
BBX 19 30 0 -5
BITMAP
FFFE00
FFFE00
000E00
000E00
000C00
000C00
001800
003800
003000
007000
006000
00E000
00C000
01C000
018000
038000
030000
070000
060000
0E0000
0C0000
1C0000
1C0000
1C0000
000000
000000
000000
000000
000000
000000
ENDCHAR

STARTCHAR 8
ENCODING 56
SWIDTH 678 0
DWIDTH 19 0
BBX 19 30 0 -5
BITMAP
0FC000
3FF000
3FF000
701800
601800
601800
601800
303000
387000
3FF000
0FC000
078000
1FE000
FFFC00
F03C00
C00C00
C00C00
C00C00
C00C00
C00C00
C00C00
FFFC00
FFFC00
1FE000
000000
000000
000000
000000
000000
000000
ENDCHAR

STARTCHAR 9
ENCODING 57
SWIDTH 678 0
DWIDTH 19 0
BBX 19 30 0 -5
BITMAP
0FF000
3FFE00
3FFE00
600600
600700
600700
600700
600700
600700
381F00
3FFF00
0FF700
03C700
000700
000700
000700
000700
000700
E00700
E00700
600600
3FFE00
3FFE00
0FF000
000000
000000
000000
000000
000000
000000
ENDCHAR

STARTCHAR :
ENCODING 58
SWIDTH 678 0
DWIDTH 19 0
BBX 19 30 0 -5
BITMAP
000000
000000
000000
000000
000000
000000
000000
000000
000000
780000
FC0000
FC0000
FC0000
780000
000000
000000
000000
000000
000000
780000
FC0000
FC0000
FC0000
780000
000000
000000
000000
000000
000000
000000
ENDCHAR

STARTCHAR ;
ENCODING 59
SWIDTH 678 0
DWIDTH 19 0
BBX 19 30 0 -5
BITMAP
000000
000000
000000
000000
000000
000000
000000
000000
000000
000000
780000
FC0000
FC0000
FC0000
780000
000000
000000
000000
000000
780000
FC0000
FC0000
7C0000
3C0000
3C0000
380000
300000
200000
000000
000000
ENDCHAR

STARTCHAR <
ENCODING 60
SWIDTH 678 0
DWIDTH 19 0
BBX 19 30 0 -5
BITMAP
000000
000000
000000
000000
000000
000000
000000
000000
000C00
001C00
007C00
01F000
078000
3E0000
F80000
F80000
F80000
3E0000
078000
01F000
007C00
001C00
000C00
000000
000000
000000
000000
000000
000000
000000
ENDCHAR

STARTCHAR =
ENCODING 61
SWIDTH 678 0
DWIDTH 19 0
BBX 19 30 0 -5
BITMAP
000000
000000
000000
000000
000000
000000
000000
000000
000000
000000
000000
000000
FFFC00
FFFC00
000000
000000
000000
FFFC00
FFFC00
000000
000000
000000
000000
000000
000000
000000
000000
000000
000000
000000
ENDCHAR

STARTCHAR >
ENCODING 62
SWIDTH 678 0
DWIDTH 19 0
BBX 19 30 0 -5
BITMAP
000000
000000
000000
000000
000000
000000
000000
000000
C00000
E00000
F80000
3E0000
078000
01F000
007C00
007C00
007C00
01F000
078000
3E0000
F80000
E00000
C00000
000000
000000
000000
000000
000000
000000
000000
ENDCHAR

STARTCHAR ?
ENCODING 63
SWIDTH 678 0
DWIDTH 19 0
BBX 19 30 0 -5
BITMAP
0FE000
1FF000
3FF800
781C00
F00E00
E00E00
000E00
000E00
000E00
001C00
003800
007000
00E000
01C000
078000
070000
070000
070000
000000
000000
078000
078000
078000
078000
000000
000000
000000
000000
000000
000000
ENDCHAR

STARTCHAR @
ENCODING 64
SWIDTH 678 0
DWIDTH 19 0
BBX 19 30 0 -5
BITMAP
000000
000000
000000
000000
000000
000000
000000
000000
07F800
3FFE00
700F00
E00780
E00380
E3E380
E7FB80
E61B80
E61B80
E7FF00
E3FE00
E00000
F00000
780780
3FFF00
0FFC00
000000
000000
000000
000000
000000
000000
ENDCHAR

STARTCHAR A
ENCODING 65
SWIDTH 678 0
DWIDTH 19 0
BBX 19 30 0 -5
BITMAP
010000
038000
038000
07C000
07C000
0EE000
0EE000
0C6000
1C7000
1C7000
183000
381800
381800
381800
7FFC00
7FFC00
7FFC00
600C00
600C00
E00E00
C00600
C00600
C00600
C00600
000000
000000
000000
000000
000000
000000
ENDCHAR

STARTCHAR B
ENCODING 66
SWIDTH 678 0
DWIDTH 19 0
BBX 19 30 0 -5
BITMAP
FFE000
FFFC00
E01C00
E00C00
E00C00
E00C00
E00C00
E00C00
E00C00
E00C00
E01C00
FFFC00
FFFC00
E00E00
E00600
E00700
E00700
E00700
E00700
E00700
E00600
E00E00
FFFE00
FFF000
000000
000000
000000
000000
000000
000000
ENDCHAR

STARTCHAR C
ENCODING 67
SWIDTH 678 0
DWIDTH 19 0
BBX 19 30 0 -5
BITMAP
1FE000
7FFC00
7FFC00
E00C00
C00600
C00600
C00000
C00000
C00000
C00000
C00000
C00000
C00000
C00000
C00000
C00000
C00000
C00000
C00600
C00600
E00C00
7FFC00
7FFC00
1FE000
000000
000000
000000
000000
000000
000000
ENDCHAR

STARTCHAR D
ENCODING 68
SWIDTH 678 0
DWIDTH 19 0
BBX 19 30 0 -5
BITMAP
FFF000
FFFE00
E00E00
E00600
E00700
E00700
E00700
E00700
E00700
E00700
E00700
E00700
E00700
E00700
E00700
E00700
E00700
E00700
E00700
E00700
E00600
E00E00
FFFE00
FFF000
000000
000000
000000
000000
000000
000000
ENDCHAR

STARTCHAR E
ENCODING 69
SWIDTH 678 0
DWIDTH 19 0
BBX 19 30 0 -5
BITMAP
FFFE00
FFFE00
C00000
C00000
C00000
C00000
C00000
C00000
C00000
C00000
C00000
FFF800
FFF800
C00000
C00000
C00000
C00000
C00000
C00000
C00000
C00000
C00000
FFFE00
FFFE00
000000
000000
000000
000000
000000
000000
ENDCHAR

STARTCHAR F
ENCODING 70
SWIDTH 678 0
DWIDTH 19 0
BBX 19 30 0 -5
BITMAP
FFFE00
FFFE00
C00000
C00000
C00000
C00000
C00000
C00000
C00000
C00000
C00000
FFF800
FFF800
C00000
C00000
C00000
C00000
C00000
C00000
C00000
C00000
C00000
C00000
C00000
000000
000000
000000
000000
000000
000000
ENDCHAR

STARTCHAR G
ENCODING 71
SWIDTH 678 0
DWIDTH 19 0
BBX 19 30 0 -5
BITMAP
1FE000
7FFC00
7FFC00
E00C00
C00600
C00600
C00000
C00000
C00000
C00000
C00000
C00000
C00000
C07E00
C07E00
C07E00
C00600
C00600
C00600
C00600
E00C00
7FFC00
7FFC00
1FE000
000000
000000
000000
000000
000000
000000
ENDCHAR

STARTCHAR H
ENCODING 72
SWIDTH 678 0
DWIDTH 19 0
BBX 19 30 0 -5
BITMAP
C00600
C00600
C00600
C00600
C00600
C00600
C00600
C00600
C00600
C00600
C00600
FFFE00
FFFE00
C00600
C00600
C00600
C00600
C00600
C00600
C00600
C00600
C00600
C00600
C00600
000000
000000
000000
000000
000000
000000
ENDCHAR

STARTCHAR I
ENCODING 73
SWIDTH 678 0
DWIDTH 19 0
BBX 19 30 0 -5
BITMAP
FF0000
FF0000
180000
180000
180000
180000
180000
180000
180000
180000
180000
180000
180000
180000
180000
180000
180000
180000
180000
180000
180000
180000
FF0000
FF0000
000000
000000
000000
000000
000000
000000
ENDCHAR

STARTCHAR J
ENCODING 74
SWIDTH 678 0
DWIDTH 19 0
BBX 19 30 0 -5
BITMAP
000600
000600
000600
000600
000600
000600
000600
000600
000600
000600
000600
000600
000600
000600
000600
000600
000600
000600
C00600
C00600
C00600
7FFC00
7FFC00
1FF000
000000
000000
000000
000000
000000
000000
ENDCHAR

STARTCHAR K
ENCODING 75
SWIDTH 678 0
DWIDTH 19 0
BBX 19 30 0 -5
BITMAP
C00600
C00E00
C01E00
C03C00
C07800
C0F000
C1E000
C3C000
C78000
CF0000
FE0000
FC0000
F80000
F80000
FC0000
CE0000
C70000
C38000
C1C000
C0E000
C07000
C03C00
C01C00
C00C00
000000
000000
000000
000000
000000
000000
ENDCHAR

STARTCHAR L
ENCODING 76
SWIDTH 678 0
DWIDTH 19 0
BBX 19 30 0 -5
BITMAP
C00000
C00000
C00000
C00000
C00000
C00000
C00000
C00000
C00000
C00000
C00000
C00000
C00000
C00000
C00000
C00000
C00000
C00000
C00000
C00000
C00000
C00000
FFFE00
FFFE00
000000
000000
000000
000000
000000
000000
ENDCHAR

STARTCHAR M
ENCODING 77
SWIDTH 678 0
DWIDTH 19 0
BBX 19 30 0 -5
BITMAP
C00600
E00E00
F01E00
F83E00
FC7E00
DEF600
CEE600
C7C600
C38600
C10600
C00600
C00600
C00600
C00600
C00600
C00600
C00600
C00600
C00600
C00600
C00600
C00600
C00600
C00600
000000
000000
000000
000000
000000
000000
ENDCHAR

STARTCHAR N
ENCODING 78
SWIDTH 678 0
DWIDTH 19 0
BBX 19 30 0 -5
BITMAP
E00600
E00600
F00600
F00600
F80600
D80600
DC0600
CE0600
C60600
C60600
C30600
C30600
C18600
C18600
C0C600
C0C600
C0E600
C06600
C07600
C03E00
C01E00
C01E00
C00E00
C00E00
000000
000000
000000
000000
000000
000000
ENDCHAR

STARTCHAR O
ENCODING 79
SWIDTH 678 0
DWIDTH 19 0
BBX 19 30 0 -5
BITMAP
1FE000
FFFC00
FFFC00
C00C00
C00C00
C00C00
C00C00
C00C00
C00C00
C00C00
C00C00
C00C00
C00C00
C00C00
C00C00
C00C00
C00C00
C00C00
C00C00
C00C00
C00C00
FFFC00
FFFC00
1FE000
000000
000000
000000
000000
000000
000000
ENDCHAR

STARTCHAR P
ENCODING 80
SWIDTH 678 0
DWIDTH 19 0
BBX 19 30 0 -5
BITMAP
FFF000
FFFE00
E00E00
E00600
E00700
E00700
E00700
E00700
E00700
E00600
E00E00
FFFE00
FFF000
E00000
E00000
E00000
E00000
E00000
E00000
E00000
E00000
E00000
E00000
E00000
000000
000000
000000
000000
000000
000000
ENDCHAR

STARTCHAR Q
ENCODING 81
SWIDTH 678 0
DWIDTH 19 0
BBX 19 30 0 -5
BITMAP
1FE000
7FFC00
601C00
C00C00
C00E00
C00E00
C00E00
C00E00
C00E00
C00E00
C00E00
C00E00
C00E00
C00E00
C00E00
C00E00
C00E00
C00E00
C07E00
C07E00
603C00
7FFE00
7FFF00
000700
000300
000000
000000
000000
000000
000000
ENDCHAR

STARTCHAR R
ENCODING 82
SWIDTH 678 0
DWIDTH 19 0
BBX 19 30 0 -5
BITMAP
FFF000
FFFC00
C01C00
C00C00
C00600
C00600
C00600
C00600
C00600
C00E00
C00C00
FFFC00
FFF000
C01800
C01800
C01800
C01C00
C00C00
C00C00
C00C00
C00C00
C00E00
C00600
C00600
000000
000000
000000
000000
000000
000000
ENDCHAR

STARTCHAR S
ENCODING 83
SWIDTH 678 0
DWIDTH 19 0
BBX 19 30 0 -5
BITMAP
0FE000
7FFC00
7FFC00
600E00
C00600
C00600
C00000
C00000
C00000
E00000
700000
7FF800
1FFC00
001C00
000E00
000600
000600
000600
C00600
C00600
E00C00
7FFC00
7FFC00
0FE000
000000
000000
000000
000000
000000
000000
ENDCHAR

STARTCHAR T
ENCODING 84
SWIDTH 678 0
DWIDTH 19 0
BBX 19 30 0 -5
BITMAP
FFFC00
FFFC00
030000
030000
030000
030000
030000
030000
030000
030000
030000
030000
030000
030000
030000
030000
030000
030000
030000
030000
030000
030000
030000
030000
000000
000000
000000
000000
000000
000000
ENDCHAR

STARTCHAR U
ENCODING 85
SWIDTH 678 0
DWIDTH 19 0
BBX 19 30 0 -5
BITMAP
C00600
C00600
C00600
C00600
C00600
C00600
C00600
C00600
C00600
C00600
C00600
C00600
C00600
C00600
C00600
C00600
C00600
C00600
C00600
C00600
C00600
7FFC00
7FFC00
1FF000
000000
000000
000000
000000
000000
000000
ENDCHAR

STARTCHAR V
ENCODING 86
SWIDTH 678 0
DWIDTH 19 0
BBX 19 30 0 -5
BITMAP
C00600
C00600
C00600
600C00
600C00
701C00
301800
301800
383800
383800
183000
1C7000
0C7000
0C6000
0EE000
06C000
06C000
07C000
038000
038000
038000
010000
010000
010000
000000
000000
000000
000000
000000
000000
ENDCHAR

STARTCHAR W
ENCODING 87
SWIDTH 678 0
DWIDTH 19 0
BBX 19 30 0 -5
BITMAP
C00600
C00600
C00600
C00600
C00600
C00600
C00600
C00600
C00600
C00600
C00600
C00600
C00600
C00600
C10600
C38600
C7C600
CFE600
DEF600
FC7E00
F83E00
F01E00
E00E00
C00600
000000
000000
000000
000000
000000
000000
ENDCHAR

STARTCHAR X
ENCODING 88
SWIDTH 678 0
DWIDTH 19 0
BBX 19 30 0 -5
BITMAP
C00600
C00600
E00E00
600C00
701C00
301800
383800
183000
1C7000
0C6000
0FE000
0FE000
0FE000
0FE000
0C6000
1C7000
183000
383800
301800
701C00
600C00
E00E00
C00600
C00600
000000
000000
000000
000000
000000
000000
ENDCHAR

STARTCHAR Y
ENCODING 89
SWIDTH 678 0
DWIDTH 19 0
BBX 19 30 0 -5
BITMAP
800400
800400
C00C00
C00C00
E01C00
601800
703800
303000
387000
186000
1FE000
0FC000
078000
030000
030000
030000
030000
030000
030000
030000
030000
030000
030000
030000
000000
000000
000000
000000
000000
000000
ENDCHAR

STARTCHAR Z
ENCODING 90
SWIDTH 678 0
DWIDTH 19 0
BBX 19 30 0 -5
BITMAP
FFFE00
FFFE00
000E00
000E00
000C00
003800
003800
007000
006000
00E000
01C000
018000
030000
070000
0E0000
0C0000
1C0000
380000
380000
600000
E00000
E00000
FFFE00
FFFE00
000000
000000
000000
000000
000000
000000
ENDCHAR

STARTCHAR [
ENCODING 91
SWIDTH 678 0
DWIDTH 19 0
BBX 19 30 0 -5
BITMAP
FE0000
FE0000
C00000
C00000
C00000
C00000
C00000
C00000
C00000
C00000
C00000
C00000
C00000
C00000
C00000
C00000
C00000
C00000
C00000
C00000
C00000
C00000
FE0000
FE0000
000000
000000
000000
000000
000000
000000
ENDCHAR

STARTCHAR \
ENCODING 92
SWIDTH 678 0
DWIDTH 19 0
BBX 19 30 0 -5
BITMAP
F00000
700000
700000
380000
380000
1C0000
1C0000
0E0000
0E0000
070000
070000
038000
038000
01C000
01C000
00E000
00E000
007000
007000
003800
003800
001C00
001E00
000E00
000000
000000
000000
000000
000000
000000
ENDCHAR

STARTCHAR ]
ENCODING 93
SWIDTH 678 0
DWIDTH 19 0
BBX 19 30 0 -5
BITMAP
FF0000
FF0000
070000
070000
070000
070000
070000
070000
070000
070000
070000
070000
070000
070000
070000
070000
070000
070000
070000
070000
070000
070000
FF0000
FF0000
000000
000000
000000
000000
000000
000000
ENDCHAR

STARTCHAR ^
ENCODING 94
SWIDTH 678 0
DWIDTH 19 0
BBX 19 30 0 -5
BITMAP
008000
01C000
03E000
07F000
0E3800
1C1C00
380E00
700700
E00380
000000
000000
000000
000000
000000
000000
000000
000000
000000
000000
000000
000000
000000
000000
000000
000000
000000
000000
000000
000000
000000
ENDCHAR

STARTCHAR _
ENCODING 95
SWIDTH 678 0
DWIDTH 19 0
BBX 19 30 0 -5
BITMAP
000000
000000
000000
000000
000000
000000
000000
000000
000000
000000
000000
000000
000000
000000
000000
000000
000000
000000
000000
000000
000000
000000
000000
000000
000000
000000
FFFFE0
FFFFE0
FFFFE0
000000
ENDCHAR

STARTCHAR `
ENCODING 96
SWIDTH 678 0
DWIDTH 19 0
BBX 19 30 0 -5
BITMAP
100000
300000
700000
F00000
F00000
F80000
FC0000
FC0000
780000
000000
000000
000000
000000
000000
000000
000000
000000
000000
000000
000000
000000
000000
000000
000000
000000
000000
000000
000000
000000
000000
ENDCHAR

STARTCHAR a
ENCODING 97
SWIDTH 678 0
DWIDTH 19 0
BBX 19 30 0 -5
BITMAP
000000
000000
000000
000000
000000
000000
000000
000000
1FF800
3FFC00
700E00
700E00
000E00
003E00
00FE00
07FE00
7F0E00
F00E00
E00E00
E00E00
E01E00
E03E00
7FEE00
3FCE00
000000
000000
000000
000000
000000
000000
ENDCHAR

STARTCHAR b
ENCODING 98
SWIDTH 678 0
DWIDTH 19 0
BBX 19 30 0 -5
BITMAP
000000
000000
000000
000000
E00000
E00000
E00000
E00000
E00000
E3E000
EFF800
F81C00
F00C00
E00E00
E00E00
E00E00
E00E00
E00E00
E00E00
F00E00
F80C00
FFFC00
EFF800
E3E000
000000
000000
000000
000000
000000
000000
ENDCHAR

STARTCHAR c
ENCODING 99
SWIDTH 678 0
DWIDTH 19 0
BBX 19 30 0 -5
BITMAP
000000
000000
000000
000000
000000
000000
000000
000000
000000
0FF000
3FF800
700E00
600E00
E00000
E00000
E00000
E00000
E00000
E00000
E00E00
600E00
700E00
3FFC00
0FF000
000000
000000
000000
000000
000000
000000
ENDCHAR

STARTCHAR d
ENCODING 100
SWIDTH 678 0
DWIDTH 19 0
BBX 19 30 0 -5
BITMAP
000000
000000
000E00
000E00
000E00
000E00
000E00
000E00
000E00
3FCE00
7FFE00
603E00
E01E00
E00E00
E00E00
E00E00
E00E00
E00E00
E00E00
E01E00
603E00
7FFE00
3FCE00
000E00
000000
000000
000000
000000
000000
000000
ENDCHAR

STARTCHAR e
ENCODING 101
SWIDTH 678 0
DWIDTH 19 0
BBX 19 30 0 -5
BITMAP
000000
000000
000000
000000
000000
000000
000000
000000
000000
0FE000
3FF800
701800
600C00
E00E00
E00E00
FFFE00
FFFE00
E00000
E00000
E00E00
600E00
700E00
3FF800
0FF000
000000
000000
000000
000000
000000
000000
ENDCHAR

STARTCHAR f
ENCODING 102
SWIDTH 678 0
DWIDTH 19 0
BBX 19 30 0 -5
BITMAP
000000
000000
03E000
07E000
0FE000
0C0000
0C0000
0C0000
0C0000
FFE000
FFE000
FFE000
0C0000
0C0000
0C0000
0C0000
0C0000
0C0000
0C0000
0C0000
0C0000
0C0000
0C0000
0C0000
000000
000000
000000
000000
000000
000000
ENDCHAR

STARTCHAR g
ENCODING 103
SWIDTH 678 0
DWIDTH 19 0
BBX 19 30 0 -5
BITMAP
000000
000000
000000
000000
000000
000000
000000
000000
000E00
1FCE00
7FFE00
703E00
E01E00
E00E00
E00E00
E00E00
E00E00
E00E00
E00E00
E01E00
603E00
7FFE00
3FCE00
0F0E00
000E00
000E00
701C00
7FF800
7FF800
1FE000
ENDCHAR

STARTCHAR h
ENCODING 104
SWIDTH 678 0
DWIDTH 19 0
BBX 19 30 0 -5
BITMAP
000000
000000
C00000
C00000
C00000
C00000
C00000
C00000
C00000
CFF000
FFF800
F01800
E00C00
C00C00
C00C00
C00C00
C00C00
C00C00
C00C00
C00C00
C00C00
C00C00
C00C00
C00C00
000000
000000
000000
000000
000000
000000
ENDCHAR

STARTCHAR i
ENCODING 105
SWIDTH 678 0
DWIDTH 19 0
BBX 19 30 0 -5
BITMAP
000000
E00000
E00000
E00000
E00000
000000
000000
000000
600000
600000
600000
600000
600000
600000
600000
600000
600000
600000
600000
600000
600000
600000
600000
600000
000000
000000
000000
000000
000000
000000
ENDCHAR

STARTCHAR j
ENCODING 106
SWIDTH 678 0
DWIDTH 19 0
BBX 19 30 0 -5
BITMAP
000000
000000
0F0000
0F0000
0F0000
0F0000
000000
000000
000000
070000
070000
070000
070000
070000
070000
070000
070000
070000
070000
070000
070000
070000
070000
070000
070000
070000
070000
7E0000
FC0000
F80000
ENDCHAR

STARTCHAR k
ENCODING 107
SWIDTH 678 0
DWIDTH 19 0
BBX 19 30 0 -5
BITMAP
000000
000000
C00000
C00000
C00000
C00000
C00000
C00000
C00000
C0E000
C3C000
C78000
CF0000
DE0000
FE0000
FF0000
FF8000
C3C000
C1E000
C0F000
C07800
C03C00
C01C00
C00C00
000000
000000
000000
000000
000000
000000
ENDCHAR

STARTCHAR l
ENCODING 108
SWIDTH 678 0
DWIDTH 19 0
BBX 19 30 0 -5
BITMAP
000000
C00000
C00000
C00000
C00000
C00000
C00000
C00000
C00000
C00000
C00000
C00000
C00000
C00000
C00000
C00000
C00000
C00000
C00000
C00000
C00000
C00000
C00000
C00000
000000
000000
000000
000000
000000
000000
ENDCHAR

STARTCHAR m
ENCODING 109
SWIDTH 678 0
DWIDTH 19 0
BBX 19 30 0 -5
BITMAP
000000
000000
000000
000000
000000
000000
000000
C00000
C00000
DE7800
FEFC00
C30C00
C30C00
C30C00
C30C00
C30C00
C30C00
C30C00
C30C00
C30C00
C30C00
C30C00
C30C00
C30C00
000000
000000
000000
000000
000000
000000
ENDCHAR

STARTCHAR n
ENCODING 110
SWIDTH 678 0
DWIDTH 19 0
BBX 19 30 0 -5
BITMAP
000000
000000
000000
000000
000000
000000
000000
000000
C00000
CFF000
FFFC00
F01C00
E00C00
C00C00
C00C00
C00C00
C00C00
C00C00
C00C00
C00C00
C00C00
C00C00
C00C00
C00C00
000000
000000
000000
000000
000000
000000
ENDCHAR

STARTCHAR o
ENCODING 111
SWIDTH 678 0
DWIDTH 19 0
BBX 19 30 0 -5
BITMAP
000000
000000
000000
000000
000000
000000
000000
000000
000000
1FE000
3FF000
703800
E01C00
E01C00
E01C00
E01C00
E01C00
E01C00
E01C00
E01C00
E01C00
703800
3FF000
1FE000
000000
000000
000000
000000
000000
000000
ENDCHAR

STARTCHAR p
ENCODING 112
SWIDTH 678 0
DWIDTH 19 0
BBX 19 30 0 -5
BITMAP
000000
000000
000000
000000
000000
000000
000000
E00000
E00000
E7F800
FFFC00
F00C00
E00E00
E00E00
E00E00
E00E00
E00E00
E00E00
E00E00
F00E00
F80C00
FE1C00
E7F800
E1E000
E00000
E00000
E00000
E00000
E00000
E00000
ENDCHAR

STARTCHAR q
ENCODING 113
SWIDTH 678 0
DWIDTH 19 0
BBX 19 30 0 -5
BITMAP
000000
000000
000000
000000
000000
000000
000000
000000
000E00
3FCE00
7FFE00
603E00
E01E00
E00E00
E00E00
E00E00
E00E00
E00E00
E00E00
E01E00
603E00
7FFE00
3FCE00
000E00
000E00
000E00
000E00
000E00
000E00
000E00
ENDCHAR

STARTCHAR r
ENCODING 114
SWIDTH 678 0
DWIDTH 19 0
BBX 19 30 0 -5
BITMAP
000000
000000
000000
000000
000000
000000
000000
000000
E00000
E7E000
FFF800
FC3C00
F01C00
E00000
E00000
E00000
E00000
E00000
E00000
E00000
E00000
E00000
E00000
E00000
000000
000000
000000
000000
000000
000000
ENDCHAR

STARTCHAR s
ENCODING 115
SWIDTH 678 0
DWIDTH 19 0
BBX 19 30 0 -5
BITMAP
000000
000000
000000
000000
000000
000000
000000
000000
000000
3FE000
7FF000
C01800
C01800
C00000
C00000
FFE000
7FF000
001800
001800
C01800
C01800
C01800
7FF000
3FE000
000000
000000
000000
000000
000000
000000
ENDCHAR

STARTCHAR t
ENCODING 116
SWIDTH 678 0
DWIDTH 19 0
BBX 19 30 0 -5
BITMAP
000000
000000
0C0000
0C0000
0C0000
0C0000
0C0000
0C0000
FFE000
FFE000
FFE000
0C0000
0C0000
0C0000
0C0000
0C0000
0C0000
0C0000
0C0000
0C0000
0C0000
0FE000
07E000
03E000
000000
000000
000000
000000
000000
000000
ENDCHAR

STARTCHAR u
ENCODING 117
SWIDTH 678 0
DWIDTH 19 0
BBX 19 30 0 -5
BITMAP
000000
000000
000000
000000
000000
000000
000000
000000
C00C00
C00C00
C00C00
C00C00
C00C00
C00C00
C00C00
C00C00
C00C00
C00C00
C00C00
C01C00
603C00
7FFC00
3FCC00
000C00
000000
000000
000000
000000
000000
000000
ENDCHAR

STARTCHAR v
ENCODING 118
SWIDTH 678 0
DWIDTH 19 0
BBX 19 30 0 -5
BITMAP
000000
000000
000000
000000
000000
000000
000000
000000
C00C00
C00C00
C00C00
E01C00
703800
703800
387000
387000
1CE000
1CE000
0FE000
0FC000
078000
078000
030000
030000
000000
000000
000000
000000
000000
000000
ENDCHAR

STARTCHAR w
ENCODING 119
SWIDTH 678 0
DWIDTH 19 0
BBX 19 30 0 -5
BITMAP
000000
000000
000000
000000
000000
000000
000000
000000
C00C00
C00C00
C00C00
C00C00
C00C00
C00C00
C00C00
C00C00
C00C00
C78C00
CFCC00
CCCC00
F87C00
F03C00
E01C00
C00C00
000000
000000
000000
000000
000000
000000
ENDCHAR

STARTCHAR x
ENCODING 120
SWIDTH 678 0
DWIDTH 19 0
BBX 19 30 0 -5
BITMAP
000000
000000
000000
000000
000000
000000
000000
000000
000000
800400
C00C00
E01C00
703800
387000
1FE000
0FC000
0FC000
0FC000
1FE000
387000
703800
E01C00
C00C00
800400
000000
000000
000000
000000
000000
000000
ENDCHAR

STARTCHAR y
ENCODING 121
SWIDTH 678 0
DWIDTH 19 0
BBX 19 30 0 -5
BITMAP
000000
000000
000000
000000
000000
000000
000000
000000
C00C00
C00C00
C00C00
C00C00
C00C00
C00C00
C00C00
C00C00
C00C00
C00C00
C00C00
C01C00
607C00
7FFC00
7FDC00
0F1C00
001C00
001C00
601800
7FF800
7FF000
3FC000
ENDCHAR

STARTCHAR z
ENCODING 122
SWIDTH 678 0
DWIDTH 19 0
BBX 19 30 0 -5
BITMAP
000000
000000
000000
000000
000000
000000
000000
000000
FFFC00
FFFC00
FFFC00
003800
007000
00E000
01C000
038000
070000
0E0000
1C0000
380000
700000
FFFC00
FFFC00
FFFC00
000000
000000
000000
000000
000000
000000
ENDCHAR

STARTCHAR {
ENCODING 123
SWIDTH 678 0
DWIDTH 19 0
BBX 19 30 0 -5
BITMAP
0E0000
180000
300000
700000
700000
300000
300000
300000
300000
300000
700000
F00000
F00000
700000
300000
300000
300000
300000
300000
700000
700000
300000
180000
0E0000
000000
000000
000000
000000
000000
000000
ENDCHAR

STARTCHAR |
ENCODING 124
SWIDTH 678 0
DWIDTH 19 0
BBX 19 30 0 -5
BITMAP
C00000
C00000
C00000
C00000
C00000
C00000
C00000
C00000
C00000
C00000
C00000
C00000
C00000
C00000
C00000
C00000
C00000
C00000
C00000
C00000
C00000
C00000
C00000
C00000
C00000
C00000
C00000
C00000
C00000
C00000
ENDCHAR

STARTCHAR }
ENCODING 125
SWIDTH 678 0
DWIDTH 19 0
BBX 19 30 0 -5
BITMAP
E00000
300000
180000
1C0000
1C0000
180000
180000
180000
180000
180000
1C0000
1E0000
1E0000
1C0000
180000
180000
180000
180000
180000
1C0000
1C0000
180000
300000
E00000
000000
000000
000000
000000
000000
000000
ENDCHAR

STARTCHAR ~
ENCODING 126
SWIDTH 678 0
DWIDTH 19 0
BBX 19 30 0 -5
BITMAP
000000
000000
000000
000000
000000
000000
000000
000000
000000
000000
000000
000000
0E0080
1F0080
3F8180
7FC300
61FF00
C0FE00
C07C00
803800
000000
000000
000000
000000
000000
000000
000000
000000
000000
000000
ENDCHAR

STARTCHAR C177
ENCODING 127
SWIDTH 678 0
DWIDTH 19 0
BBX 19 30 0 -5
BITMAP
001E00
003F00
007300
00F300
00F300
00E000
00E000
00C000
01C000
01C000
018000
018000
018000
018000
018000
038000
038000
030000
030000
030000
030000
030000
070000
070000
CE0000
CE0000
CE0000
CE0000
7C0000
380000
ENDCHAR

ENDFONT
