STARTFONT 2.1
FONT hp8.8x16i
SIZE 14 80 80
FONTBOUNDINGBOX 8 16 0 -4

STARTPROPERTIES 9
POINT_SIZE 140
WEIGHT 10
RESOLUTION_X 80
RESOLUTION_Y 80
X_HEIGHT -3
QUAD_WIDTH 8
DEFAULT_CHAR 32
FONT_DESCENT 4
FONT_ASCENT 12
ENDPROPERTIES

CHARS 96

STARTCHAR onx32
ENCODING 32
SWIDTH 500 0
DWIDTH 8 0
BBX 8 16 0 -4
BITMAP
00
00
00
00
00
00
00
00
00
00
00
00
00
00
00
00
ENDCHAR

STARTCHAR onx33
ENCODING 33
SWIDTH 500 0
DWIDTH 8 0
BBX 8 16 0 -4
BITMAP
00
00
04
04
08
08
08
10
10
00
20
20
00
00
00
00
ENDCHAR

STARTCHAR onx34
ENCODING 34
SWIDTH 500 0
DWIDTH 8 0
BBX 8 16 0 -4
BITMAP
00
00
12
12
24
24
00
00
00
00
00
00
00
00
00
00
ENDCHAR

STARTCHAR onx35
ENCODING 35
SWIDTH 500 0
DWIDTH 8 0
BBX 8 16 0 -4
BITMAP
00
00
00
12
12
72
1C
23
C4
38
4E
48
48
00
00
00
ENDCHAR

STARTCHAR onx36
ENCODING 36
SWIDTH 500 0
DWIDTH 8 0
BBX 8 16 0 -4
BITMAP
00
00
04
0E
11
23
20
1C
02
62
44
38
10
10
00
00
ENDCHAR

STARTCHAR onx37
ENCODING 37
SWIDTH 500 0
DWIDTH 8 0
BBX 8 16 0 -4
BITMAP
00
00
02
6E
94
94
68
10
16
29
29
46
00
00
00
00
ENDCHAR

STARTCHAR onx38
ENCODING 38
SWIDTH 500 0
DWIDTH 8 0
BBX 8 16 0 -4
BITMAP
00
00
0C
12
12
0C
18
28
45
46
44
3B
00
00
00
00
ENDCHAR

STARTCHAR onx39
ENCODING 39
SWIDTH 500 0
DWIDTH 8 0
BBX 8 16 0 -4
BITMAP
00
00
08
08
10
10
00
00
00
00
00
00
00
00
00
00
ENDCHAR

STARTCHAR onx40
ENCODING 40
SWIDTH 500 0
DWIDTH 8 0
BBX 8 16 0 -4
BITMAP
00
00
02
04
08
10
10
20
20
20
20
20
20
10
00
00
ENDCHAR

STARTCHAR onx41
ENCODING 41
SWIDTH 500 0
DWIDTH 8 0
BBX 8 16 0 -4
BITMAP
00
00
08
04
04
04
04
04
04
08
08
10
20
40
00
00
ENDCHAR

STARTCHAR onx42
ENCODING 42
SWIDTH 500 0
DWIDTH 8 0
BBX 8 16 0 -4
BITMAP
00
00
08
28
1E
08
14
24
00
00
00
00
00
00
00
00
ENDCHAR

STARTCHAR onx43
ENCODING 43
SWIDTH 500 0
DWIDTH 8 0
BBX 8 16 0 -4
BITMAP
00
00
00
00
04
04
08
7F
08
10
10
00
00
00
00
00
ENDCHAR

STARTCHAR onx44
ENCODING 44
SWIDTH 500 0
DWIDTH 8 0
BBX 8 16 0 -4
BITMAP
00
00
00
00
00
00
00
00
00
00
18
18
08
10
20
00
ENDCHAR

STARTCHAR onx45
ENCODING 45
SWIDTH 500 0
DWIDTH 8 0
BBX 8 16 0 -4
BITMAP
00
00
00
00
00
00
00
7E
00
00
00
00
00
00
00
00
ENDCHAR

STARTCHAR onx46
ENCODING 46
SWIDTH 500 0
DWIDTH 8 0
BBX 8 16 0 -4
BITMAP
00
00
00
00
00
00
00
00
00
00
18
18
00
00
00
00
ENDCHAR

STARTCHAR onx47
ENCODING 47
SWIDTH 500 0
DWIDTH 8 0
BBX 8 16 0 -4
BITMAP
00
00
02
02
04
04
08
08
10
10
20
20
40
40
00
00
ENDCHAR

STARTCHAR onx48
ENCODING 48
SWIDTH 500 0
DWIDTH 8 0
BBX 8 16 0 -4
BITMAP
00
00
0C
12
22
22
42
42
44
44
48
30
00
00
00
00
ENDCHAR

STARTCHAR onx49
ENCODING 49
SWIDTH 500 0
DWIDTH 8 0
BBX 8 16 0 -4
BITMAP
00
00
04
1C
04
08
08
08
08
10
10
10
00
00
00
00
ENDCHAR

STARTCHAR onx50
ENCODING 50
SWIDTH 500 0
DWIDTH 8 0
BBX 8 16 0 -4
BITMAP
00
00
1C
22
42
02
0C
10
20
40
42
7C
00
00
00
00
ENDCHAR

STARTCHAR onx51
ENCODING 51
SWIDTH 500 0
DWIDTH 8 0
BBX 8 16 0 -4
BITMAP
00
00
3E
42
02
04
18
04
04
84
88
70
00
00
00
00
ENDCHAR

STARTCHAR onx52
ENCODING 52
SWIDTH 500 0
DWIDTH 8 0
BBX 8 16 0 -4
BITMAP
00
00
02
06
0A
12
24
44
7E
08
08
08
00
00
00
00
ENDCHAR

STARTCHAR onx53
ENCODING 53
SWIDTH 500 0
DWIDTH 8 0
BBX 8 16 0 -4
BITMAP
00
00
1F
10
10
20
3C
02
02
42
44
38
00
00
00
00
ENDCHAR

STARTCHAR onx54
ENCODING 54
SWIDTH 500 0
DWIDTH 8 0
BBX 8 16 0 -4
BITMAP
00
00
0C
12
20
20
5C
62
42
42
44
38
00
00
00
00
ENDCHAR

STARTCHAR onx55
ENCODING 55
SWIDTH 500 0
DWIDTH 8 0
BBX 8 16 0 -4
BITMAP
00
00
3E
42
42
04
08
10
10
20
20
20
00
00
00
00
ENDCHAR

STARTCHAR onx56
ENCODING 56
SWIDTH 500 0
DWIDTH 8 0
BBX 8 16 0 -4
BITMAP
00
00
1C
22
22
24
18
18
24
44
44
38
00
00
00
00
ENDCHAR

STARTCHAR onx57
ENCODING 57
SWIDTH 500 0
DWIDTH 8 0
BBX 8 16 0 -4
BITMAP
00
00
1C
22
42
42
46
3A
04
04
48
30
00
00
00
00
ENDCHAR

STARTCHAR onx58
ENCODING 58
SWIDTH 500 0
DWIDTH 8 0
BBX 8 16 0 -4
BITMAP
00
00
00
00
00
00
18
18
00
00
30
30
00
00
00
00
ENDCHAR

STARTCHAR onx59
ENCODING 59
SWIDTH 500 0
DWIDTH 8 0
BBX 8 16 0 -4
BITMAP
00
00
00
00
00
00
0C
0C
00
00
18
18
08
10
20
00
ENDCHAR

STARTCHAR onx60
ENCODING 60
SWIDTH 500 0
DWIDTH 8 0
BBX 8 16 0 -4
BITMAP
00
00
00
00
02
0C
30
10
08
00
00
00
00
00
00
00
ENDCHAR

STARTCHAR onx61
ENCODING 61
SWIDTH 500 0
DWIDTH 8 0
BBX 8 16 0 -4
BITMAP
00
00
00
00
00
3F
00
00
7E
00
00
00
00
00
00
00
ENDCHAR

STARTCHAR onx62
ENCODING 62
SWIDTH 500 0
DWIDTH 8 0
BBX 8 16 0 -4
BITMAP
00
00
00
00
08
04
06
18
20
00
00
00
00
00
00
00
ENDCHAR

STARTCHAR onx63
ENCODING 63
SWIDTH 500 0
DWIDTH 8 0
BBX 8 16 0 -4
BITMAP
00
00
1C
22
22
02
04
08
10
00
10
30
00
00
00
00
ENDCHAR

STARTCHAR onx64
ENCODING 64
SWIDTH 500 0
DWIDTH 8 0
BBX 8 16 0 -4
BITMAP
00
00
0E
11
21
47
4A
92
92
8D
80
40
30
00
00
00
ENDCHAR

STARTCHAR onx65
ENCODING 65
SWIDTH 500 0
DWIDTH 8 0
BBX 8 16 0 -4
BITMAP
00
00
06
0A
0A
12
12
3E
22
42
42
42
00
00
00
00
ENDCHAR

STARTCHAR onx66
ENCODING 66
SWIDTH 500 0
DWIDTH 8 0
BBX 8 16 0 -4
BITMAP
00
00
1E
11
11
22
3E
21
21
41
42
7C
00
00
00
00
ENDCHAR

STARTCHAR onx67
ENCODING 67
SWIDTH 500 0
DWIDTH 8 0
BBX 8 16 0 -4
BITMAP
00
00
0E
11
21
20
40
40
40
40
42
3C
00
00
00
00
ENDCHAR

STARTCHAR onx68
ENCODING 68
SWIDTH 500 0
DWIDTH 8 0
BBX 8 16 0 -4
BITMAP
00
00
1E
11
11
21
21
22
22
42
44
78
00
00
00
00
ENDCHAR

STARTCHAR onx69
ENCODING 69
SWIDTH 500 0
DWIDTH 8 0
BBX 8 16 0 -4
BITMAP
00
00
1F
10
10
20
3C
20
20
40
40
7C
00
00
00
00
ENDCHAR

STARTCHAR onx70
ENCODING 70
SWIDTH 500 0
DWIDTH 8 0
BBX 8 16 0 -4
BITMAP
00
00
1F
10
10
20
3C
20
20
40
40
40
00
00
00
00
ENDCHAR

STARTCHAR onx71
ENCODING 71
SWIDTH 500 0
DWIDTH 8 0
BBX 8 16 0 -4
BITMAP
00
00
0E
11
21
20
40
40
47
42
42
3C
00
00
00
00
ENDCHAR

STARTCHAR onx72
ENCODING 72
SWIDTH 500 0
DWIDTH 8 0
BBX 8 16 0 -4
BITMAP
00
00
21
21
21
42
7E
42
42
84
84
84
00
00
00
00
ENDCHAR

STARTCHAR onx73
ENCODING 73
SWIDTH 500 0
DWIDTH 8 0
BBX 8 16 0 -4
BITMAP
00
00
04
04
04
08
08
08
08
10
10
10
00
00
00
00
ENDCHAR

STARTCHAR onx74
ENCODING 74
SWIDTH 500 0
DWIDTH 8 0
BBX 8 16 0 -4
BITMAP
00
00
02
02
02
04
04
04
44
88
88
70
00
00
00
00
ENDCHAR

STARTCHAR onx75
ENCODING 75
SWIDTH 500 0
DWIDTH 8 0
BBX 8 16 0 -4
BITMAP
00
00
11
11
12
24
38
28
24
44
44
44
00
00
00
00
ENDCHAR

STARTCHAR onx76
ENCODING 76
SWIDTH 500 0
DWIDTH 8 0
BBX 8 16 0 -4
BITMAP
00
00
10
10
10
20
20
20
20
40
40
7C
00
00
00
00
ENDCHAR

STARTCHAR onx77
ENCODING 77
SWIDTH 500 0
DWIDTH 8 0
BBX 8 16 0 -4
BITMAP
00
00
21
33
2D
4A
4A
42
42
84
84
84
00
00
00
00
ENDCHAR

STARTCHAR onx78
ENCODING 78
SWIDTH 500 0
DWIDTH 8 0
BBX 8 16 0 -4
BITMAP
00
00
11
11
11
2A
2A
2A
2A
44
44
44
00
00
00
00
ENDCHAR

STARTCHAR onx79
ENCODING 79
SWIDTH 500 0
DWIDTH 8 0
BBX 8 16 0 -4
BITMAP
00
00
0E
11
21
21
41
41
42
42
44
38
00
00
00
00
ENDCHAR

STARTCHAR onx80
ENCODING 80
SWIDTH 500 0
DWIDTH 8 0
BBX 8 16 0 -4
BITMAP
00
00
1E
11
11
21
22
3C
20
40
40
40
00
00
00
00
ENDCHAR

STARTCHAR onx81
ENCODING 81
SWIDTH 500 0
DWIDTH 8 0
BBX 8 16 0 -4
BITMAP
00
00
0E
11
21
21
41
41
42
52
4C
38
04
00
00
00
ENDCHAR

STARTCHAR onx82
ENCODING 82
SWIDTH 500 0
DWIDTH 8 0
BBX 8 16 0 -4
BITMAP
00
00
1E
11
11
21
22
3C
24
42
44
44
00
00
00
00
ENDCHAR

STARTCHAR onx83
ENCODING 83
SWIDTH 500 0
DWIDTH 8 0
BBX 8 16 0 -4
BITMAP
00
00
0E
11
21
20
1C
02
02
42
44
38
00
00
00
00
ENDCHAR

STARTCHAR onx84
ENCODING 84
SWIDTH 500 0
DWIDTH 8 0
BBX 8 16 0 -4
BITMAP
00
00
7F
08
08
10
10
10
10
20
20
20
00
00
00
00
ENDCHAR

STARTCHAR onx85
ENCODING 85
SWIDTH 500 0
DWIDTH 8 0
BBX 8 16 0 -4
BITMAP
00
00
21
21
21
42
42
42
42
84
84
78
00
00
00
00
ENDCHAR

STARTCHAR onx86
ENCODING 86
SWIDTH 500 0
DWIDTH 8 0
BBX 8 16 0 -4
BITMAP
00
00
21
21
21
22
22
24
24
28
28
30
00
00
00
00
ENDCHAR

STARTCHAR onx87
ENCODING 87
SWIDTH 500 0
DWIDTH 8 0
BBX 8 16 0 -4
BITMAP
00
00
21
21
21
42
42
52
52
B4
CC
84
00
00
00
00
ENDCHAR

STARTCHAR onx88
ENCODING 88
SWIDTH 500 0
DWIDTH 8 0
BBX 8 16 0 -4
BITMAP
00
00
21
21
22
14
08
14
22
42
42
42
00
00
00
00
ENDCHAR

STARTCHAR onx89
ENCODING 89
SWIDTH 500 0
DWIDTH 8 0
BBX 8 16 0 -4
BITMAP
00
00
21
21
21
22
14
08
08
10
10
10
00
00
00
00
ENDCHAR

STARTCHAR onx90
ENCODING 90
SWIDTH 500 0
DWIDTH 8 0
BBX 8 16 0 -4
BITMAP
00
00
3F
01
02
04
08
10
20
40
80
FC
00
00
00
00
ENDCHAR

STARTCHAR onx91
ENCODING 91
SWIDTH 500 0
DWIDTH 8 0
BBX 8 16 0 -4
BITMAP
00
00
0E
08
08
10
10
10
20
20
20
40
40
70
00
00
ENDCHAR

STARTCHAR onx92
ENCODING 92
SWIDTH 500 0
DWIDTH 8 0
BBX 8 16 0 -4
BITMAP
00
00
40
40
20
20
10
10
08
08
04
04
02
02
00
00
ENDCHAR

STARTCHAR onx93
ENCODING 93
SWIDTH 500 0
DWIDTH 8 0
BBX 8 16 0 -4
BITMAP
00
00
0E
02
02
04
04
04
08
08
08
10
10
70
00
00
ENDCHAR

STARTCHAR onx94
ENCODING 94
SWIDTH 500 0
DWIDTH 8 0
BBX 8 16 0 -4
BITMAP
00
00
08
14
22
41
00
00
00
00
00
00
00
00
00
00
ENDCHAR

STARTCHAR onx95
ENCODING 95
SWIDTH 500 0
DWIDTH 8 0
BBX 8 16 0 -4
BITMAP
00
00
00
00
00
00
00
00
00
00
00
00
00
00
00
FF
ENDCHAR

STARTCHAR onx96
ENCODING 96
SWIDTH 500 0
DWIDTH 8 0
BBX 8 16 0 -4
BITMAP
00
00
20
10
08
04
00
00
00
00
00
00
00
00
00
00
ENDCHAR

STARTCHAR onx97
ENCODING 97
SWIDTH 500 0
DWIDTH 8 0
BBX 8 16 0 -4
BITMAP
00
00
00
00
00
00
1D
22
42
44
45
3A
00
00
00
00
ENDCHAR

STARTCHAR onx98
ENCODING 98
SWIDTH 500 0
DWIDTH 8 0
BBX 8 16 0 -4
BITMAP
00
00
10
10
10
20
3C
22
42
42
64
58
00
00
00
00
ENDCHAR

STARTCHAR onx99
ENCODING 99
SWIDTH 500 0
DWIDTH 8 0
BBX 8 16 0 -4
BITMAP
00
00
00
00
00
00
1C
22
40
40
44
38
00
00
00
00
ENDCHAR

STARTCHAR onx100
ENCODING 100
SWIDTH 500 0
DWIDTH 8 0
BBX 8 16 0 -4
BITMAP
00
00
01
01
01
02
1E
22
42
44
44
3A
00
00
00
00
ENDCHAR

STARTCHAR onx101
ENCODING 101
SWIDTH 500 0
DWIDTH 8 0
BBX 8 16 0 -4
BITMAP
00
00
00
00
00
00
1C
22
44
58
62
3C
00
00
00
00
ENDCHAR

STARTCHAR onx102
ENCODING 102
SWIDTH 500 0
DWIDTH 8 0
BBX 8 16 0 -4
BITMAP
00
00
00
06
09
08
3E
08
08
08
08
10
10
90
60
00
ENDCHAR

STARTCHAR onx103
ENCODING 103
SWIDTH 500 0
DWIDTH 8 0
BBX 8 16 0 -4
BITMAP
00
00
00
00
00
00
1D
22
42
46
4C
34
04
88
70
00
ENDCHAR

STARTCHAR onx104
ENCODING 104
SWIDTH 500 0
DWIDTH 8 0
BBX 8 16 0 -4
BITMAP
00
00
10
10
10
20
2C
32
22
44
45
46
00
00
00
00
ENDCHAR

STARTCHAR onx105
ENCODING 105
SWIDTH 500 0
DWIDTH 8 0
BBX 8 16 0 -4
BITMAP
00
00
04
04
00
00
18
28
08
10
14
18
00
00
00
00
ENDCHAR

STARTCHAR onx106
ENCODING 106
SWIDTH 500 0
DWIDTH 8 0
BBX 8 16 0 -4
BITMAP
00
00
02
02
00
00
0C
14
04
04
08
48
88
90
60
00
ENDCHAR

STARTCHAR onx107
ENCODING 107
SWIDTH 500 0
DWIDTH 8 0
BBX 8 16 0 -4
BITMAP
00
00
10
10
10
20
22
2C
30
48
44
46
00
00
00
00
ENDCHAR

STARTCHAR onx108
ENCODING 108
SWIDTH 500 0
DWIDTH 8 0
BBX 8 16 0 -4
BITMAP
00
00
04
08
08
08
10
10
20
24
28
10
00
00
00
00
ENDCHAR

STARTCHAR onx109
ENCODING 109
SWIDTH 500 0
DWIDTH 8 0
BBX 8 16 0 -4
BITMAP
00
00
00
00
00
00
52
6D
49
49
92
92
00
00
00
00
ENDCHAR

STARTCHAR onx110
ENCODING 110
SWIDTH 500 0
DWIDTH 8 0
BBX 8 16 0 -4
BITMAP
00
00
00
00
00
00
2C
32
22
44
45
46
00
00
00
00
ENDCHAR

STARTCHAR onx111
ENCODING 111
SWIDTH 500 0
DWIDTH 8 0
BBX 8 16 0 -4
BITMAP
00
00
00
00
00
00
1C
22
42
42
44
38
00
00
00
00
ENDCHAR

STARTCHAR onx112
ENCODING 112
SWIDTH 500 0
DWIDTH 8 0
BBX 8 16 0 -4
BITMAP
00
00
00
00
00
00
2E
31
21
21
22
5C
40
40
40
00
ENDCHAR

STARTCHAR onx113
ENCODING 113
SWIDTH 500 0
DWIDTH 8 0
BBX 8 16 0 -4
BITMAP
00
00
00
00
00
00
1A
26
42
42
44
3C
04
08
08
00
ENDCHAR

STARTCHAR onx114
ENCODING 114
SWIDTH 500 0
DWIDTH 8 0
BBX 8 16 0 -4
BITMAP
00
00
00
00
00
00
36
19
10
20
20
20
00
00
00
00
ENDCHAR

STARTCHAR onx115
ENCODING 115
SWIDTH 500 0
DWIDTH 8 0
BBX 8 16 0 -4
BITMAP
00
00
00
00
00
00
1C
22
10
08
44
38
00
00
00
00
ENDCHAR

STARTCHAR onx116
ENCODING 116
SWIDTH 500 0
DWIDTH 8 0
BBX 8 16 0 -4
BITMAP
00
00
00
08
08
08
7F
10
10
20
24
18
00
00
00
00
ENDCHAR

STARTCHAR onx117
ENCODING 117
SWIDTH 500 0
DWIDTH 8 0
BBX 8 16 0 -4
BITMAP
00
00
00
00
00
00
62
22
24
44
4C
32
00
00
00
00
ENDCHAR

STARTCHAR onx118
ENCODING 118
SWIDTH 500 0
DWIDTH 8 0
BBX 8 16 0 -4
BITMAP
00
00
00
00
00
00
24
22
22
44
48
70
00
00
00
00
ENDCHAR

STARTCHAR onx119
ENCODING 119
SWIDTH 500 0
DWIDTH 8 0
BBX 8 16 0 -4
BITMAP
00
00
00
00
00
00
42
21
49
91
92
6C
00
00
00
00
ENDCHAR

STARTCHAR onx120
ENCODING 120
SWIDTH 500 0
DWIDTH 8 0
BBX 8 16 0 -4
BITMAP
00
00
00
00
00
00
66
19
08
10
98
66
00
00
00
00
ENDCHAR

STARTCHAR onx121
ENCODING 121
SWIDTH 500 0
DWIDTH 8 0
BBX 8 16 0 -4
BITMAP
00
00
00
00
00
00
62
22
22
44
4C
34
04
88
70
00
ENDCHAR

STARTCHAR onx122
ENCODING 122
SWIDTH 500 0
DWIDTH 8 0
BBX 8 16 0 -4
BITMAP
00
00
00
00
00
00
3A
44
08
10
22
5C
00
00
00
00
ENDCHAR

STARTCHAR onx123
ENCODING 123
SWIDTH 500 0
DWIDTH 8 0
BBX 8 16 0 -4
BITMAP
00
00
06
08
08
08
10
60
20
10
10
20
20
18
00
00
ENDCHAR

STARTCHAR onx124
ENCODING 124
SWIDTH 500 0
DWIDTH 8 0
BBX 8 16 0 -4
BITMAP
00
00
08
08
08
08
08
08
08
08
08
08
08
08
08
00
ENDCHAR

STARTCHAR onx125
ENCODING 125
SWIDTH 500 0
DWIDTH 8 0
BBX 8 16 0 -4
BITMAP
00
00
18
04
04
08
08
04
06
08
10
10
10
60
00
00
ENDCHAR

STARTCHAR onx126
ENCODING 126
SWIDTH 500 0
DWIDTH 8 0
BBX 8 16 0 -4
BITMAP
00
00
30
49
86
00
00
00
00
00
00
00
00
00
00
00
ENDCHAR

STARTCHAR onx127
ENCODING 127
SWIDTH 500 0
DWIDTH 8 0
BBX 8 16 0 -4
BITMAP
00
00
00
00
00
00
00
00
00
00
00
00
00
00
00
00
ENDCHAR

ENDFONT
