STARTFONT 2.1
FONT vr-25
SIZE 24 75 75
FONTBOUNDINGBOX 25 25 0 -4

STARTPROPERTIES 10
COPYRIGHT "Public domain font.  Share and enjoy."
POINT_SIZE 240
WEIGHT 10
RESOLUTION_X 75
RESOLUTION_Y 75
X_HEIGHT 21
QUAD_WIDTH 13
DEFAULT_CHAR 0
FONT_DESCENT 4
FONT_ASCENT 21
ENDPROPERTIES

CHARS 123

STARTCHAR C001
ENCODING 1
SWIDTH 583 0
DWIDTH 14 0
BBX 14 25 0 -4
BITMAP
0000
0600
0600
0600
0600
0600
0600
0600
0600
0600
0600
0600
0600
0600
0600
C630
6660
36C0
1F80
0F00
0600
0000
0000
0000
0000
ENDCHAR

STARTCHAR C002
ENCODING 2
SWIDTH 916 0
DWIDTH 22 0
BBX 22 25 0 -4
BITMAP
000000
000000
000000
000000
000000
000000
000000
000060
0000C0
000180
000180
1C0300
3F0600
61CE00
C07C00
C03C00
C03000
40E000
61D830
3F0E60
1E07C0
000000
000000
000000
000000
ENDCHAR

STARTCHAR C003
ENCODING 3
SWIDTH 833 0
DWIDTH 20 0
BBX 20 25 0 -4
BITMAP
000000
000000
001E00
003300
006380
00C180
018180
038300
030600
020600
060C00
061800
0C3C00
0C0C00
180E00
180700
300380
300180
720300
638600
61FC00
E00000
C00000
C00000
C00000
ENDCHAR

STARTCHAR C004
ENCODING 4
SWIDTH 708 0
DWIDTH 17 0
BBX 17 25 0 -4
BITMAP
000000
000000
000000
000000
000000
000000
010000
038000
06C000
06C000
0C6000
0C6000
183000
183000
301800
301800
600C00
600C00
C00600
C00600
000000
000000
000000
000000
000000
ENDCHAR

STARTCHAR C005
ENCODING 5
SWIDTH 500 0
DWIDTH 12 0
BBX 12 25 0 -4
BITMAP
0000
0000
0000
0000
0000
0000
0000
0000
0000
0000
0000
FFC0
FFC0
00C0
00C0
00C0
00C0
0000
0000
0000
0000
0000
0000
0000
0000
ENDCHAR

STARTCHAR C006
ENCODING 6
SWIDTH 500 0
DWIDTH 12 0
BBX 12 25 0 -4
BITMAP
0000
0000
0000
0000
0380
0600
0C00
1800
3000
6000
6000
E000
FF80
E000
6000
6000
3000
1800
0E00
0380
0000
0000
0000
0000
0000
ENDCHAR

STARTCHAR C007
ENCODING 7
SWIDTH 666 0
DWIDTH 16 0
BBX 16 25 0 -4
BITMAP
0000
0000
0000
0000
0000
0000
0000
FFC0
FFF8
307C
3060
3060
3060
3060
3060
3060
3060
3060
3060
F060
003C
0000
0000
0000
0000
ENDCHAR

STARTCHAR C010
ENCODING 8
SWIDTH 625 0
DWIDTH 15 0
BBX 15 25 0 -4
BITMAP
0000
0000
0000
C000
F000
7800
1800
0C00
0C00
0600
0600
0600
0F00
1B00
3180
3180
60C0
E0C0
C060
8038
0018
0000
0000
0000
0000
ENDCHAR

STARTCHAR C013
ENCODING 11
SWIDTH 583 0
DWIDTH 14 0
BBX 14 25 0 -4
BITMAP
0000
0600
0F00
1F80
36C0
6660
C630
0600
0600
0600
0600
0600
0600
0600
0600
0600
0600
0600
0600
0600
0600
0000
0000
0000
0000
ENDCHAR

STARTCHAR C014
ENCODING 12
SWIDTH 666 0
DWIDTH 16 0
BBX 16 25 0 -4
BITMAP
0000
0000
0300
0300
0300
0300
0300
0300
FFFC
FFFC
0300
0300
0300
0300
0300
0300
0000
0000
FFFC
FFFC
0000
0000
0000
0000
0000
ENDCHAR

STARTCHAR C016
ENCODING 14
SWIDTH 958 0
DWIDTH 23 0
BBX 23 25 0 -4
BITMAP
000000
000000
000000
000000
000000
000000
000000
1E0780
330CC0
619860
C0F030
C06030
C06030
C06030
C06030
C0F030
619860
339CC0
1F0F80
000000
000000
000000
000000
000000
000000
ENDCHAR

STARTCHAR C017
ENCODING 15
SWIDTH 625 0
DWIDTH 15 0
BBX 15 25 0 -4
BITMAP
0000
1C00
0600
0300
0380
0180
00C0
0060
0060
0030
1F30
3FF0
6078
4038
C018
C018
C018
4030
6030
2060
1FC0
0000
0000
0000
0000
ENDCHAR

STARTCHAR C020
ENCODING 16
SWIDTH 750 0
DWIDTH 18 0
BBX 18 25 0 -4
BITMAP
000000
000000
000000
000000
000000
000000
000000
1FFE00
3FFE00
700000
E00000
C00000
C00000
C00000
E00000
700000
3FFE00
1FFE00
000000
000000
000000
000000
000000
000000
000000
ENDCHAR

STARTCHAR C021
ENCODING 17
SWIDTH 833 0
DWIDTH 20 0
BBX 20 25 0 -4
BITMAP
000000
000000
000000
000000
000000
000000
000000
FFE000
FFF000
001C00
000E00
000600
000600
000600
000E00
001C00
FFF800
FFE000
000000
000000
000000
000000
000000
000000
000000
ENDCHAR

STARTCHAR C022
ENCODING 18
SWIDTH 583 0
DWIDTH 14 0
BBX 14 25 0 -4
BITMAP
0000
0000
1F80
30C0
6060
C030
C030
C030
C030
C030
C030
C030
C030
C030
C030
C030
C030
C030
C030
C030
C030
0000
0000
0000
0000
ENDCHAR

STARTCHAR C023
ENCODING 19
SWIDTH 583 0
DWIDTH 14 0
BBX 14 25 0 -4
BITMAP
0000
0000
C030
C030
C030
C030
C030
C030
C030
C030
C030
C030
C030
C030
C030
C030
C030
C030
E070
70E0
3FC0
0000
0000
0000
0000
ENDCHAR

STARTCHAR C024
ENCODING 20
SWIDTH 708 0
DWIDTH 17 0
BBX 17 25 0 -4
BITMAP
000000
000000
C00600
C00600
600C00
600C00
600C00
3FF800
301800
301800
183000
183000
183000
0C6000
0C6000
0C6000
06C000
06C000
06C000
038000
010000
000000
000000
000000
000000
ENDCHAR

STARTCHAR C025
ENCODING 21
SWIDTH 708 0
DWIDTH 17 0
BBX 17 25 0 -4
BITMAP
000000
000000
FFFE00
FFF800
801800
801800
001800
001800
001800
011800
019800
01F800
019800
011800
001800
001800
001800
801800
801800
FFF800
FFFE00
000000
000000
000000
000000
ENDCHAR

STARTCHAR C026
ENCODING 22
SWIDTH 666 0
DWIDTH 16 0
BBX 16 25 0 -4
BITMAP
0000
0000
0000
0000
0000
0000
1FC0
3060
7070
F078
98C8
8D88
8708
8708
8D88
98C8
F078
7070
3060
1FC0
0000
0000
0000
0000
0000
ENDCHAR

STARTCHAR C027
ENCODING 23
SWIDTH 750 0
DWIDTH 18 0
BBX 18 25 0 -4
BITMAP
000000
000000
000000
000000
000000
000000
000000
000000
0C3000
181800
300C00
600600
FFFF00
FFFF00
600600
300C00
181800
0C3000
000000
000000
000000
000000
000000
000000
000000
ENDCHAR

STARTCHAR C030
ENCODING 24
SWIDTH 750 0
DWIDTH 18 0
BBX 18 25 0 -4
BITMAP
000000
000000
000000
000000
000000
000000
000000
040000
0C0000
180000
300000
600000
FFFF00
FFFF00
600000
300000
180000
0C0000
040000
000000
000000
000000
000000
000000
000000
ENDCHAR

STARTCHAR C031
ENCODING 25
SWIDTH 750 0
DWIDTH 18 0
BBX 18 25 0 -4
BITMAP
000000
000000
000000
000000
000000
000000
000000
002000
003000
001800
000C00
000600
FFFF00
FFFF00
000600
000C00
001800
003000
002000
000000
000000
000000
000000
000000
000000
ENDCHAR

STARTCHAR C032
ENCODING 26
SWIDTH 500 0
DWIDTH 12 0
BBX 12 25 0 -4
BITMAP
0000
0000
0000
0040
00C0
00C0
0180
0180
0300
FFC0
FFC0
0600
0C00
FFC0
FFC0
3000
6000
6000
C000
8000
8000
0000
0000
0000
0000
ENDCHAR

STARTCHAR C033
ENCODING 27
SWIDTH 666 0
DWIDTH 16 0
BBX 16 25 0 -4
BITMAP
0000
0000
0000
0000
0000
0000
0000
0000
0000
1C04
3E04
7F0C
6798
C3F8
81F0
80E0
0000
0000
0000
0000
0000
0000
0000
0000
0000
ENDCHAR

STARTCHAR C034
ENCODING 28
SWIDTH 500 0
DWIDTH 12 0
BBX 12 25 0 -4
BITMAP
0000
0000
00C0
0180
0300
0600
0C00
1800
3000
6000
C000
6000
3000
1800
0C00
0600
0300
0180
00C0
0000
FFC0
FFC0
0000
0000
0000
ENDCHAR

STARTCHAR C035
ENCODING 29
SWIDTH 500 0
DWIDTH 12 0
BBX 12 25 0 -4
BITMAP
0000
0000
C000
6000
3000
1800
0C00
0600
0300
0180
00C0
0180
0300
0600
0C00
1800
3000
6000
C000
0000
FFC0
FFC0
0000
0000
0000
ENDCHAR

STARTCHAR C036
ENCODING 30
SWIDTH 500 0
DWIDTH 12 0
BBX 12 25 0 -4
BITMAP
0000
0000
0000
0000
0000
0000
0000
FFC0
FFC0
0000
0000
FFC0
FFC0
0000
0000
FFC0
FFC0
0000
0000
0000
0000
0000
0000
0000
0000
ENDCHAR

STARTCHAR C037
ENCODING 31
SWIDTH 708 0
DWIDTH 17 0
BBX 17 25 0 -4
BITMAP
000000
000000
000000
000000
000000
000000
C00600
C00600
600C00
600C00
301800
301800
183000
183000
0C6000
0C6000
06C000
06C000
038000
010000
000000
000000
000000
000000
000000
ENDCHAR

STARTCHAR C040
ENCODING 32
SWIDTH 416 0
DWIDTH 10 0
BBX 10 25 0 -4
BITMAP
0000
0000
0000
0000
0000
0000
0000
0000
0000
0000
0000
0000
0000
0000
0000
0000
0000
0000
0000
0000
0000
0000
0000
0000
0000
ENDCHAR

STARTCHAR !
ENCODING 33
SWIDTH 291 0
DWIDTH 7 0
BBX 7 25 0 -4
BITMAP
00
00
60
F0
F0
F0
F0
F0
60
60
60
60
60
60
00
00
00
60
F0
F0
60
00
00
00
00
ENDCHAR

STARTCHAR "
ENCODING 34
SWIDTH 458 0
DWIDTH 11 0
BBX 11 25 0 -4
BITMAP
0000
E700
E700
E700
E700
E700
E700
4200
0000
0000
0000
0000
0000
0000
0000
0000
0000
0000
0000
0000
0000
0000
0000
0000
0000
ENDCHAR

STARTCHAR #
ENCODING 35
SWIDTH 541 0
DWIDTH 13 0
BBX 13 25 0 -4
BITMAP
0000
0000
0000
0000
0000
0000
0000
0000
1980
1980
1980
FFF0
FFF0
1980
1980
FFF0
FFF0
1980
1980
1980
0000
0000
0000
0000
0000
ENDCHAR

STARTCHAR $
ENCODING 36
SWIDTH 541 0
DWIDTH 13 0
BBX 13 25 0 -4
BITMAP
0000
0900
0F80
39C0
2940
6960
6960
6960
7900
7D00
3F00
1F80
0BC0
09E0
6960
E920
E960
4960
69C0
3F80
0900
0900
0900
0000
0000
ENDCHAR

STARTCHAR %
ENCODING 37
SWIDTH 625 0
DWIDTH 15 0
BBX 15 25 0 -4
BITMAP
0000
0000
0038
7830
FC30
CC60
CC60
CCC0
FCC0
7980
0180
0300
0300
0600
06F0
0DF8
0D98
1998
1998
31F8
30F0
0000
0000
0000
0000
ENDCHAR

STARTCHAR &
ENCODING 38
SWIDTH 791 0
DWIDTH 19 0
BBX 19 25 0 -4
BITMAP
000000
000000
03C000
0EF000
0C7000
183800
1C3000
1C7000
0EE000
0F8000
0F0F80
3F0200
738200
61C200
E1C600
E0E400
E0E400
F07800
F03800
787C00
3FCF00
0E0000
000000
000000
000000
ENDCHAR

STARTCHAR '
ENCODING 39
SWIDTH 291 0
DWIDTH 7 0
BBX 7 25 0 -4
BITMAP
00
00
F0
F8
D8
08
18
30
60
00
00
00
00
00
00
00
00
00
00
00
00
00
00
00
00
ENDCHAR

STARTCHAR (
ENCODING 40
SWIDTH 333 0
DWIDTH 8 0
BBX 8 25 0 -4
BITMAP
00
08
18
30
20
60
60
40
C0
C0
C0
80
80
80
C0
C0
C0
40
60
60
20
30
18
08
00
ENDCHAR

STARTCHAR )
ENCODING 41
SWIDTH 333 0
DWIDTH 8 0
BBX 8 25 0 -4
BITMAP
00
80
C0
60
20
30
30
10
18
18
18
08
08
08
18
18
18
10
30
30
20
60
C0
80
00
ENDCHAR

STARTCHAR *
ENCODING 42
SWIDTH 708 0
DWIDTH 17 0
BBX 17 25 0 -4
BITMAP
000000
000000
000000
000000
000000
038000
038000
E10E00
F11E00
311800
0D6000
038000
010000
038000
0D6000
311800
F11E00
E10E00
038000
038000
000000
000000
000000
000000
000000
ENDCHAR

STARTCHAR +
ENCODING 43
SWIDTH 541 0
DWIDTH 13 0
BBX 13 25 0 -4
BITMAP
0000
0000
0000
0000
0000
0000
0000
0000
0000
0C00
0C00
0C00
0C00
FFC0
FFC0
0C00
0C00
0C00
0C00
0000
0000
0000
0000
0000
0000
ENDCHAR

STARTCHAR ,
ENCODING 44
SWIDTH 250 0
DWIDTH 6 0
BBX 6 25 0 -4
BITMAP
00
00
00
00
00
00
00
00
00
00
00
00
00
00
00
00
00
60
F0
F0
10
10
30
60
60
ENDCHAR

STARTCHAR -
ENCODING 45
SWIDTH 541 0
DWIDTH 13 0
BBX 13 25 0 -4
BITMAP
0000
0000
0000
0000
0000
0000
0000
0000
0000
0000
0000
0000
0000
0000
FFC0
FFC0
0000
0000
0000
0000
0000
0000
0000
0000
0000
ENDCHAR

STARTCHAR .
ENCODING 46
SWIDTH 250 0
DWIDTH 6 0
BBX 6 25 0 -4
BITMAP
00
00
00
00
00
00
00
00
00
00
00
00
00
00
00
00
00
00
E0
F0
E0
00
00
00
00
ENDCHAR

STARTCHAR /
ENCODING 47
SWIDTH 541 0
DWIDTH 13 0
BBX 13 25 0 -4
BITMAP
0000
00C0
01C0
0180
0180
0380
0300
0300
0700
0600
0600
0E00
0C00
0C00
1C00
1800
1800
3800
3000
3000
7000
6000
6000
E000
C000
ENDCHAR

STARTCHAR 0
ENCODING 48
SWIDTH 541 0
DWIDTH 13 0
BBX 13 25 0 -4
BITMAP
0000
0000
0C00
1F00
3180
71C0
60C0
E0E0
E0E0
E0E0
E0E0
E0E0
E0E0
E0E0
E0E0
E0E0
60C0
70C0
3180
3980
1F00
0000
0000
0000
0000
ENDCHAR

STARTCHAR 1
ENCODING 49
SWIDTH 541 0
DWIDTH 13 0
BBX 13 25 0 -4
BITMAP
0000
0000
0000
3C00
7C00
FC00
1C00
1C00
1C00
1C00
1C00
1C00
1C00
1C00
1C00
1C00
1C00
1C00
1C00
1C00
FF80
0000
0000
0000
0000
ENDCHAR

STARTCHAR 2
ENCODING 50
SWIDTH 541 0
DWIDTH 13 0
BBX 13 25 0 -4
BITMAP
0000
0000
0000
3F00
6780
43C0
41C0
71C0
71C0
71C0
01C0
0380
0300
0600
0400
0800
1860
3060
7060
FFE0
FFE0
0000
0000
0000
0000
ENDCHAR

STARTCHAR 3
ENCODING 51
SWIDTH 541 0
DWIDTH 13 0
BBX 13 25 0 -4
BITMAP
0000
0000
0E00
3B80
3180
71C0
60C0
00C0
01C0
0380
0300
3F00
03C0
01E0
00E0
00E0
40E0
E0E0
E1C0
61C0
7F00
0000
0000
0000
0000
ENDCHAR

STARTCHAR 4
ENCODING 52
SWIDTH 541 0
DWIDTH 13 0
BBX 13 25 0 -4
BITMAP
0000
0000
0000
0100
0300
0300
0700
0F00
0B00
1B00
1300
3300
2300
6320
4320
FFE0
0320
0320
0300
0300
0FC0
0000
0000
0000
0000
ENDCHAR

STARTCHAR 5
ENCODING 53
SWIDTH 541 0
DWIDTH 13 0
BBX 13 25 0 -4
BITMAP
0000
0000
0080
3F80
7F80
6000
6000
6000
6000
6000
7F00
6780
03C0
01C0
01E0
01E0
E1C0
E1C0
E1C0
C380
7F00
0000
0000
0000
0000
ENDCHAR

STARTCHAR 6
ENCODING 54
SWIDTH 541 0
DWIDTH 13 0
BBX 13 25 0 -4
BITMAP
0000
0000
00E0
03C0
0E00
1C00
3800
3800
7000
7F00
7B80
F1C0
F0E0
E0E0
E0E0
E0E0
60E0
70E0
71C0
31C0
1F80
0000
0000
0000
0000
ENDCHAR

STARTCHAR 7
ENCODING 55
SWIDTH 541 0
DWIDTH 13 0
BBX 13 25 0 -4
BITMAP
0000
0000
7FC0
7FC0
7FC0
4080
C080
C180
0180
0100
0100
0300
0300
0200
0200
0600
0E00
0E00
0F00
0F00
0700
0000
0000
0000
0000
ENDCHAR

STARTCHAR 8
ENCODING 56
SWIDTH 541 0
DWIDTH 13 0
BBX 13 25 0 -4
BITMAP
0000
0000
1F00
39C0
70E0
70E0
70E0
70E0
70E0
71C0
3F80
1F80
79C0
70E0
F0E0
E0E0
E0E0
F0E0
70E0
79C0
1F80
0000
0000
0000
0000
ENDCHAR

STARTCHAR 9
ENCODING 57
SWIDTH 541 0
DWIDTH 13 0
BBX 13 25 0 -4
BITMAP
0000
0000
0E00
3F80
71C0
E1C0
E0C0
E0E0
E0E0
E0E0
E0E0
E0E0
F1E0
71E0
1FE0
00C0
01C0
0380
0700
0E00
3800
6000
0000
0000
0000
ENDCHAR

STARTCHAR :
ENCODING 58
SWIDTH 291 0
DWIDTH 7 0
BBX 7 25 0 -4
BITMAP
00
00
00
00
00
00
00
00
00
60
F0
F0
60
00
00
00
00
60
F0
F0
60
00
00
00
00
ENDCHAR

STARTCHAR ;
ENCODING 59
SWIDTH 291 0
DWIDTH 7 0
BBX 7 25 0 -4
BITMAP
00
00
00
00
00
00
00
00
00
00
60
F0
F0
60
00
00
00
60
F0
F0
90
10
30
60
60
ENDCHAR

STARTCHAR <
ENCODING 60
SWIDTH 500 0
DWIDTH 12 0
BBX 12 25 0 -4
BITMAP
0000
0000
0000
0000
00C0
0180
0300
0600
0C00
1800
3000
6000
C000
6000
3000
1800
0C00
0600
0300
0180
00C0
0000
0000
0000
0000
ENDCHAR

STARTCHAR =
ENCODING 61
SWIDTH 500 0
DWIDTH 12 0
BBX 12 25 0 -4
BITMAP
0000
0000
0000
0000
0000
0000
0000
0000
0000
0000
FFC0
FFC0
0000
0000
FFC0
FFC0
0000
0000
0000
0000
0000
0000
0000
0000
0000
ENDCHAR

STARTCHAR >
ENCODING 62
SWIDTH 500 0
DWIDTH 12 0
BBX 12 25 0 -4
BITMAP
0000
0000
0000
0000
C000
6000
3000
1800
0C00
0600
0300
0180
00C0
0180
0300
0600
0C00
1800
3000
6000
C000
0000
0000
0000
0000
ENDCHAR

STARTCHAR ?
ENCODING 63
SWIDTH 458 0
DWIDTH 11 0
BBX 11 25 0 -4
BITMAP
0000
0000
3E00
6700
C100
E180
E380
4380
0780
0F00
1E00
1C00
1800
1000
1000
1000
0000
0000
1800
3C00
1800
0000
0000
0000
0000
ENDCHAR

STARTCHAR @
ENCODING 64
SWIDTH 833 0
DWIDTH 20 0
BBX 20 25 0 -4
BITMAP
000000
000000
000000
000000
000000
000000
0FFC00
1FFE00
300F00
700300
63E180
C7F180
CE3980
CC1980
CC1980
CC1980
CC1B00
CE3F00
C7FC00
C00080
7FFF80
3FFF00
000000
000000
000000
ENDCHAR

STARTCHAR A
ENCODING 65
SWIDTH 791 0
DWIDTH 19 0
BBX 19 25 0 -4
BITMAP
000000
000000
008000
00C000
00C000
01C000
01E000
01E000
03F000
037000
027000
067000
063800
0C3800
0FFC00
0C1C00
081C00
180E00
180E00
100E00
FE7F80
000000
000000
000000
000000
ENDCHAR

STARTCHAR B
ENCODING 66
SWIDTH 750 0
DWIDTH 18 0
BBX 18 25 0 -4
BITMAP
000000
000000
FFE000
1C7000
1C3800
1C3800
1C1800
1C3800
1C3800
1C7000
1DE000
1FF000
1C3800
1C1C00
1C0E00
1C0E00
1C0E00
1C0E00
1C1C00
1C3800
FFF000
000000
000000
000000
000000
ENDCHAR

STARTCHAR C
ENCODING 67
SWIDTH 750 0
DWIDTH 18 0
BBX 18 25 0 -4
BITMAP
000000
01C000
07FA00
1C1E00
1C0600
380600
780200
700200
E00000
E00000
E00000
E00000
E00000
E00000
700000
700100
700300
380700
1C0700
0E1F00
03F300
000000
000000
000000
000000
ENDCHAR

STARTCHAR D
ENCODING 68
SWIDTH 875 0
DWIDTH 21 0
BBX 21 25 0 -4
BITMAP
000000
000000
FFF800
1C1E00
1C0700
1C0380
1C0380
1C01C0
1C01C0
1C00E0
1C00E0
1C00E0
1C00E0
1C00E0
1C00C0
1C01C0
1C01C0
1C0380
1C0700
1C1E00
FFF800
000000
000000
000000
000000
ENDCHAR

STARTCHAR E
ENCODING 69
SWIDTH 750 0
DWIDTH 18 0
BBX 18 25 0 -4
BITMAP
000000
000000
FFFE00
1C0600
1C0600
1C0600
1C0000
1C2000
1C2000
1C6000
1CE000
1FE000
1CE000
1C6000
1C2000
1C2000
1C0100
1C0300
1C0300
1C0700
FFFF00
000000
000000
000000
000000
ENDCHAR

STARTCHAR F
ENCODING 70
SWIDTH 666 0
DWIDTH 16 0
BBX 16 25 0 -4
BITMAP
0000
0000
FFFC
1C1C
1C0C
1C04
1C04
1C44
1C40
1CC0
1DC0
1FC0
1CC0
1C40
1C40
1C40
1C00
1C00
1C00
1C00
FF80
0000
0000
0000
0000
ENDCHAR

STARTCHAR G
ENCODING 71
SWIDTH 791 0
DWIDTH 19 0
BBX 19 25 0 -4
BITMAP
000000
000000
03E000
0E7C00
181C00
380C00
700C00
700400
E00400
E00000
E00000
E00000
E00000
E00000
E07F80
701C00
701C00
781C00
383800
1C7800
07E000
000000
000000
000000
000000
ENDCHAR

STARTCHAR H
ENCODING 72
SWIDTH 833 0
DWIDTH 20 0
BBX 20 25 0 -4
BITMAP
000000
000000
FF7FC0
1C0E00
1C0E00
1C0E00
1C0E00
1C0E00
1C0E00
1C0E00
1FFE00
1FFE00
1C0E00
1C0E00
1C0E00
1C0E00
1C0E00
1C0E00
1C0E00
1C0E00
FF7FC0
000000
000000
000000
000000
ENDCHAR

STARTCHAR I
ENCODING 73
SWIDTH 458 0
DWIDTH 11 0
BBX 11 25 0 -4
BITMAP
0000
0000
FF80
1C00
1C00
1C00
1C00
1C00
1C00
1C00
1C00
1C00
1C00
1C00
1C00
1C00
1C00
1C00
1C00
1C00
FF80
0000
0000
0000
0000
ENDCHAR

STARTCHAR J
ENCODING 74
SWIDTH 583 0
DWIDTH 14 0
BBX 14 25 0 -4
BITMAP
0000
0000
1FF0
0380
0380
0380
0380
0380
0380
0380
0380
0380
0380
0380
0380
0380
0380
0380
0380
E380
E380
7700
3E00
0000
0000
ENDCHAR

STARTCHAR K
ENCODING 75
SWIDTH 833 0
DWIDTH 20 0
BBX 20 25 0 -4
BITMAP
000000
000000
FF7F00
1C0800
1C1000
1C3000
1C6000
1C4000
1C8000
1F8000
1F8000
1F8000
1FC000
1DE000
1CE000
1C7000
1C3800
1C3800
1C1C00
1C1E00
FF7FC0
000000
000000
000000
000000
ENDCHAR

STARTCHAR L
ENCODING 76
SWIDTH 666 0
DWIDTH 16 0
BBX 16 25 0 -4
BITMAP
0000
0000
FF80
1C00
1C00
1C00
1C00
1C00
1C00
1C00
1C00
1C00
1C00
1C00
1C00
1C04
1C04
1C0C
1C0C
1C1C
FFFC
0000
0000
0000
0000
ENDCHAR

STARTCHAR M
ENCODING 77
SWIDTH 958 0
DWIDTH 23 0
BBX 23 25 0 -4
BITMAP
000000
000000
FC01F8
3E03C0
3E03C0
3E03C0
2F03C0
2707C0
2787C0
2385C0
238DC0
2389C0
23C9C0
21D9C0
21D9C0
21F1C0
20F1C0
20E1C0
2061C0
2061C0
FC4FF8
000000
000000
000000
000000
ENDCHAR

STARTCHAR N
ENCODING 78
SWIDTH 875 0
DWIDTH 21 0
BBX 21 25 0 -4
BITMAP
000000
000000
FC07E0
3E0100
2E0100
2F0100
270100
238100
238100
21C100
20E100
20E100
207100
207900
203900
201D00
200F00
200F00
200700
200300
FC0300
000000
000000
000000
000000
ENDCHAR

STARTCHAR O
ENCODING 79
SWIDTH 750 0
DWIDTH 18 0
BBX 18 25 0 -4
BITMAP
000000
000000
03E000
0E7000
381800
300C00
600600
600600
E00700
E00700
E00700
E00700
E00700
E00700
E00700
E00700
600600
700E00
381C00
1C3800
07E000
000000
000000
000000
000000
ENDCHAR

STARTCHAR P
ENCODING 80
SWIDTH 708 0
DWIDTH 17 0
BBX 17 25 0 -4
BITMAP
000000
000000
FFC000
1CE000
1C3800
1C1C00
1C1C00
1C1C00
1C1C00
1C1C00
1C3800
1DE000
1FC000
1C0000
1C0000
1C0000
1C0000
1C0000
1C0000
1C0000
FF8000
000000
000000
000000
000000
ENDCHAR

STARTCHAR Q
ENCODING 81
SWIDTH 750 0
DWIDTH 18 0
BBX 18 25 0 -4
BITMAP
000000
000000
03E000
0E7000
381800
300C00
600600
600600
E00700
E00700
E00700
E00700
E00700
E00700
E00700
E00700
600600
700E00
381C00
1C3800
07E000
038000
03C000
01C000
00F000
ENDCHAR

STARTCHAR R
ENCODING 82
SWIDTH 791 0
DWIDTH 19 0
BBX 19 25 0 -4
BITMAP
000000
000000
FFE000
1C7800
1C3C00
1C1C00
1C1C00
1C1C00
1C3C00
1C3800
1FF000
1FE000
1C7000
1C7800
1C3800
1C1C00
1C1C00
1C1C00
1C1C00
1C0E00
FF8F80
000000
000000
000000
000000
ENDCHAR

STARTCHAR S
ENCODING 83
SWIDTH 583 0
DWIDTH 14 0
BBX 14 25 0 -4
BITMAP
0000
0000
3F20
71E0
C0E0
C060
C020
E020
F800
7E00
1F00
0F80
07E0
01E0
0070
8070
8020
C020
E060
F0C0
9F80
0000
0000
0000
0000
ENDCHAR

STARTCHAR T
ENCODING 84
SWIDTH 791 0
DWIDTH 19 0
BBX 19 25 0 -4
BITMAP
000000
000000
FFFF80
F1C780
E1C380
C1C180
81C080
81C080
81C080
01C000
01C000
01C000
01C000
01C000
01C000
01C000
01C000
01C000
01C000
01C000
0FF800
000000
000000
000000
000000
ENDCHAR

STARTCHAR U
ENCODING 85
SWIDTH 791 0
DWIDTH 19 0
BBX 19 25 0 -4
BITMAP
000000
000000
FF1F80
1C0200
1C0200
1C0200
1C0200
1C0200
1C0200
1C0200
1C0200
1C0200
1C0200
1C0200
1C0200
1C0200
1C0200
1C0200
0E0600
0E0C00
07F800
000000
000000
000000
000000
ENDCHAR

STARTCHAR V
ENCODING 86
SWIDTH 791 0
DWIDTH 19 0
BBX 19 25 0 -4
BITMAP
000000
000000
FF9F80
1C0600
1C0600
1C0400
0E0400
0E0C00
0E0C00
070800
071800
071800
039000
03B000
03B000
01E000
01E000
01E000
00C000
00C000
00C000
00C000
000000
000000
000000
ENDCHAR

STARTCHAR W
ENCODING 87
SWIDTH 1041 0
DWIDTH 25 0
BBX 25 25 0 -4
BITMAP
00000000
00000000
FFFFBE00
38E60800
38E41800
38E41000
1C641000
1C7C3000
1C783000
0E386000
0E386000
0E384000
063C4000
063C4000
07BCC000
07FE8000
03EF8000
03870000
01870000
01870000
00820000
00000000
00000000
00000000
00000000
ENDCHAR

STARTCHAR X
ENCODING 88
SWIDTH 833 0
DWIDTH 20 0
BBX 20 25 0 -4
BITMAP
000000
000000
FF9FC0
1C0600
0E0400
0E0C00
070800
039800
039000
01F000
01E000
00E000
01E000
01F000
037000
023800
063800
0C1C00
080E00
180E00
FE3FC0
000000
000000
000000
000000
ENDCHAR

STARTCHAR Y
ENCODING 89
SWIDTH 833 0
DWIDTH 20 0
BBX 20 25 0 -4
BITMAP
000000
000000
FF9FC0
1C0200
1E0600
0E0400
0F0C00
070800
079800
039000
03F000
01E000
00E000
00E000
00E000
00E000
00E000
00E000
00E000
00E000
07FC00
000000
000000
000000
000000
ENDCHAR

STARTCHAR Z
ENCODING 90
SWIDTH 666 0
DWIDTH 16 0
BBX 16 25 0 -4
BITMAP
0000
0000
7FFC
701C
6038
4070
4070
C0E0
01C0
01C0
0380
0380
0700
0E00
0E00
1C00
1C04
3804
700C
701C
FFFC
0000
0000
0000
0000
ENDCHAR

STARTCHAR [
ENCODING 91
SWIDTH 416 0
DWIDTH 10 0
BBX 10 25 0 -4
BITMAP
FE00
FE00
E000
C000
C000
C000
C000
C000
C000
C000
C000
C000
C000
C000
C000
C000
C000
C000
C000
C000
C000
C000
E000
FE00
FE00
ENDCHAR

STARTCHAR \
ENCODING 92
SWIDTH 541 0
DWIDTH 13 0
BBX 13 25 0 -4
BITMAP
0000
C000
E000
6000
6000
7000
3000
3000
3800
1800
1800
1C00
0C00
0C00
0E00
0600
0600
0700
0300
0300
0380
0180
0180
01C0
00C0
ENDCHAR

STARTCHAR ]
ENCODING 93
SWIDTH 416 0
DWIDTH 10 0
BBX 10 25 0 -4
BITMAP
FE00
FE00
0E00
0600
0600
0600
0600
0600
0600
0600
0600
0600
0600
0600
0600
0600
0600
0600
0600
0600
0600
0600
0E00
FE00
FE00
ENDCHAR

STARTCHAR ^
ENCODING 94
SWIDTH 666 0
DWIDTH 16 0
BBX 16 25 0 -4
BITMAP
0180
03C0
07E0
0E70
1C38
381C
700E
E007
0000
0000
0000
0000
0000
0000
0000
0000
0000
0000
0000
0000
0000
0000
0000
0000
0000
ENDCHAR

STARTCHAR _
ENCODING 95
SWIDTH 500 0
DWIDTH 12 0
BBX 12 25 0 -4
BITMAP
0000
0000
0000
0000
0000
0000
0000
0000
0000
0000
0000
0000
0000
0000
0000
0000
0000
0000
0000
0000
0000
FFF0
FFF0
0000
0000
ENDCHAR

STARTCHAR `
ENCODING 96
SWIDTH 291 0
DWIDTH 7 0
BBX 7 25 0 -4
BITMAP
00
00
70
F8
F0
80
C0
60
30
18
00
00
00
00
00
00
00
00
00
00
00
00
00
00
00
ENDCHAR

STARTCHAR a
ENCODING 97
SWIDTH 541 0
DWIDTH 13 0
BBX 13 25 0 -4
BITMAP
0000
0000
0000
0000
0000
0000
0000
0000
0000
1F00
3380
61C0
61C0
01C0
0FC0
39C0
71C0
E1C0
F1C0
7FE0
3CE0
0000
0000
0000
0000
ENDCHAR

STARTCHAR b
ENCODING 98
SWIDTH 625 0
DWIDTH 15 0
BBX 15 25 0 -4
BITMAP
0000
0000
F800
3800
3800
3800
3800
3800
3800
3980
3FC0
3C60
3870
3870
3878
3878
3878
3870
3C70
3E60
FBC0
0000
0000
0000
0000
ENDCHAR

STARTCHAR c
ENCODING 99
SWIDTH 500 0
DWIDTH 12 0
BBX 12 25 0 -4
BITMAP
0000
0000
0000
0000
0000
0000
0000
0000
0000
0400
1F80
71C0
71C0
E080
E000
E000
E000
E040
70C0
3180
1F00
0000
0000
0000
0000
ENDCHAR

STARTCHAR d
ENCODING 100
SWIDTH 583 0
DWIDTH 14 0
BBX 14 25 0 -4
BITMAP
0000
0000
07C0
01C0
01C0
01C0
01C0
01C0
01C0
01C0
3FC0
63C0
61C0
E1C0
E1C0
E1C0
E1C0
E1C0
61C0
63C0
3FF0
0000
0000
0000
0000
ENDCHAR

STARTCHAR e
ENCODING 101
SWIDTH 500 0
DWIDTH 12 0
BBX 12 25 0 -4
BITMAP
0000
0000
0000
0000
0000
0000
0000
0000
0000
0E00
3B80
7180
60C0
E0C0
FFC0
E000
E000
E040
70C0
3180
1F00
0000
0000
0000
0000
ENDCHAR

STARTCHAR f
ENCODING 102
SWIDTH 458 0
DWIDTH 11 0
BBX 11 25 0 -4
BITMAP
0000
0000
0F00
0980
1980
1900
3800
3800
3800
3800
FF00
3800
3800
3800
3800
3800
3800
3800
3800
3800
FE00
0000
0000
0000
0000
ENDCHAR

STARTCHAR g
ENCODING 103
SWIDTH 625 0
DWIDTH 15 0
BBX 15 25 0 -4
BITMAP
0000
0000
0000
0000
0000
0000
0000
0000
0000
0FB8
18F8
38C0
38E0
38E0
38C0
19C0
3F00
6000
6000
7F80
3FE0
6020
C020
E060
7FC0
ENDCHAR

STARTCHAR h
ENCODING 104
SWIDTH 625 0
DWIDTH 15 0
BBX 15 25 0 -4
BITMAP
0000
0000
F000
7000
7000
7000
7000
7000
7000
7000
77C0
74C0
7CC0
78E0
70E0
70E0
70E0
70E0
70E0
70E0
F9F0
0000
0000
0000
0000
ENDCHAR

STARTCHAR i
ENCODING 105
SWIDTH 333 0
DWIDTH 8 0
BBX 8 25 0 -4
BITMAP
00
00
00
00
30
38
00
00
00
00
F0
30
30
30
30
30
30
30
30
30
FC
00
00
00
00
ENDCHAR

STARTCHAR j
ENCODING 106
SWIDTH 333 0
DWIDTH 8 0
BBX 8 25 0 -4
BITMAP
00
00
00
00
0C
0E
00
00
00
00
7C
0C
0C
0C
0C
0C
0C
0C
0C
0C
0C
0C
8C
D8
F0
ENDCHAR

STARTCHAR k
ENCODING 107
SWIDTH 625 0
DWIDTH 15 0
BBX 15 25 0 -4
BITMAP
0000
0000
F000
7000
7000
7000
7000
7000
7000
7000
77E0
7100
7300
7600
7C00
7E00
7700
7380
71C0
70E0
F9F0
0000
0000
0000
0000
ENDCHAR

STARTCHAR l
ENCODING 108
SWIDTH 333 0
DWIDTH 8 0
BBX 8 25 0 -4
BITMAP
00
00
F0
30
30
30
30
30
30
30
30
30
30
30
30
30
30
30
30
30
FC
00
00
00
00
ENDCHAR

STARTCHAR m
ENCODING 109
SWIDTH 875 0
DWIDTH 21 0
BBX 21 25 0 -4
BITMAP
000000
000000
000000
000000
000000
000000
000000
000000
000000
000000
F7CF80
74FBC0
7CF1C0
78E1C0
70E1C0
70E1C0
70E1C0
70E1C0
70E1C0
70E1C0
F9F3E0
000000
000000
000000
000000
ENDCHAR

STARTCHAR n
ENCODING 110
SWIDTH 583 0
DWIDTH 14 0
BBX 14 25 0 -4
BITMAP
0000
0000
0000
0000
0000
0000
0000
0000
0000
0000
F780
7CC0
78E0
78E0
70E0
70E0
70E0
70E0
70E0
70E0
F9F0
0000
0000
0000
0000
ENDCHAR

STARTCHAR o
ENCODING 111
SWIDTH 541 0
DWIDTH 13 0
BBX 13 25 0 -4
BITMAP
0000
0000
0000
0000
0000
0000
0000
0000
0000
0E00
1F80
31C0
60C0
60E0
E0E0
E0E0
E0E0
60C0
61C0
3180
1F00
0000
0000
0000
0000
ENDCHAR

STARTCHAR p
ENCODING 112
SWIDTH 583 0
DWIDTH 14 0
BBX 14 25 0 -4
BITMAP
0000
0000
0000
0000
0000
0000
0000
0000
0000
F9C0
3BE0
3E60
3C70
3870
3870
3870
3870
3860
3C60
3BC0
3980
3800
3800
3800
FE00
ENDCHAR

STARTCHAR q
ENCODING 113
SWIDTH 583 0
DWIDTH 14 0
BBX 14 25 0 -4
BITMAP
0000
0000
0000
0000
0000
0000
0000
0000
0000
19F0
7FC0
63C0
E1C0
E1C0
E1C0
E1C0
E1C0
E3C0
67C0
3DC0
19C0
01C0
01C0
01C0
07F0
ENDCHAR

STARTCHAR r
ENCODING 114
SWIDTH 500 0
DWIDTH 12 0
BBX 12 25 0 -4
BITMAP
0000
0000
0000
0000
0000
0000
0000
0000
0000
0000
F9C0
3FC0
3CC0
3C00
3800
3800
3800
3800
3800
3800
FE00
0000
0000
0000
0000
ENDCHAR

STARTCHAR s
ENCODING 115
SWIDTH 458 0
DWIDTH 11 0
BBX 11 25 0 -4
BITMAP
0000
0000
0000
0000
0000
0000
0000
0000
0000
1900
7F00
4300
C100
E000
FC00
7E00
1F80
8380
C180
E100
BF00
0000
0000
0000
0000
ENDCHAR

STARTCHAR t
ENCODING 116
SWIDTH 458 0
DWIDTH 11 0
BBX 11 25 0 -4
BITMAP
0000
0000
0000
0000
0000
0000
0800
1800
3800
3800
FF00
3800
3800
3800
3800
3800
3800
3880
3980
3F00
1C00
0000
0000
0000
0000
ENDCHAR

STARTCHAR u
ENCODING 117
SWIDTH 666 0
DWIDTH 16 0
BBX 16 25 0 -4
BITMAP
0000
0000
0000
0000
0000
0000
0000
0000
0000
0000
F9F0
3870
3870
3870
3870
3870
3870
3870
38F0
19F0
0F7C
0000
0000
0000
0000
ENDCHAR

STARTCHAR v
ENCODING 118
SWIDTH 583 0
DWIDTH 14 0
BBX 14 25 0 -4
BITMAP
0000
0000
0000
0000
0000
0000
0000
0000
0000
0000
FDF0
3040
3840
38C0
1C80
1C80
1D80
0F00
0700
0600
0200
0000
0000
0000
0000
ENDCHAR

STARTCHAR w
ENCODING 119
SWIDTH 791 0
DWIDTH 19 0
BBX 19 25 0 -4
BITMAP
000000
000000
000000
000000
000000
000000
000000
000000
000000
000000
FC4780
38C300
38E200
39E200
3DF600
3D7400
1F7400
1E7C00
0E3800
0C3800
0C3000
000000
000000
000000
000000
ENDCHAR

STARTCHAR x
ENCODING 120
SWIDTH 583 0
DWIDTH 14 0
BBX 14 25 0 -4
BITMAP
0000
0000
0000
0000
0000
0000
0000
0000
0000
0000
FBE0
3180
3900
1F00
1E00
0E00
0F00
1B80
1180
31C0
FBF0
0000
0000
0000
0000
ENDCHAR

STARTCHAR y
ENCODING 121
SWIDTH 583 0
DWIDTH 14 0
BBX 14 25 0 -4
BITMAP
0000
0000
0000
0000
0000
0000
0000
0000
0000
0000
FCF0
7060
3040
3840
38C0
1C80
1E80
0F80
0F00
0700
0700
0600
0400
0C00
7800
ENDCHAR

STARTCHAR z
ENCODING 122
SWIDTH 500 0
DWIDTH 12 0
BBX 12 25 0 -4
BITMAP
0000
0000
0000
0000
0000
0000
0000
0000
0000
0000
FF80
C380
C700
8E00
0E00
1C00
1C40
38C0
38C0
F1C0
FFC0
0000
0000
0000
0000
ENDCHAR

STARTCHAR {
ENCODING 123
SWIDTH 458 0
DWIDTH 11 0
BBX 11 25 0 -4
BITMAP
0F00
1C00
3000
3000
3000
3800
1800
1800
1800
1000
2000
6000
E000
6000
2000
1000
1800
1800
1800
3800
3000
3000
3000
1C00
0F00
ENDCHAR

STARTCHAR |
ENCODING 124
SWIDTH 250 0
DWIDTH 6 0
BBX 6 25 0 -4
BITMAP
00
80
80
80
80
80
80
80
80
80
80
80
80
80
80
80
80
80
80
80
80
80
80
80
80
ENDCHAR

STARTCHAR }
ENCODING 125
SWIDTH 458 0
DWIDTH 11 0
BBX 11 25 0 -4
BITMAP
F000
3800
0C00
0C00
0C00
1C00
1800
1800
1800
0800
0400
0600
0700
0600
0400
0800
1800
1800
1800
1C00
0C00
0C00
0C00
3800
F000
ENDCHAR

STARTCHAR ~
ENCODING 126
SWIDTH 666 0
DWIDTH 16 0
BBX 16 25 0 -4
BITMAP
0000
0000
0000
0000
0000
0000
0000
0000
0000
1C04
3E04
7F0C
6798
C3F8
81F0
80E0
0000
0000
0000
0000
0000
0000
0000
0000
0000
ENDCHAR

ENDFONT
