STARTFONT 2.1
FONT vri-30
SIZE 28 75 75
FONTBOUNDINGBOX 30 30 0 -8

STARTPROPERTIES 10
COPYRIGHT "Public domain font.  Share and enjoy."
POINT_SIZE 280
WEIGHT 10
RESOLUTION_X 75
RESOLUTION_Y 75
X_HEIGHT 22
QUAD_WIDTH 16
DEFAULT_CHAR 0
FONT_DESCENT 8
FONT_ASCENT 22
ENDPROPERTIES

CHARS 122

STARTCHAR C001
ENCODING 1
SWIDTH 500 0
DWIDTH 14 0
BBX 14 30 0 -8
BITMAP
0000
0000
0600
0600
0600
0600
0600
0600
0600
0600
0600
0600
0600
0600
0600
0600
C630
6660
36C0
1F80
0F00
0600
0000
0000
0000
0000
0000
0000
0000
0000
ENDCHAR

STARTCHAR C002
ENCODING 2
SWIDTH 821 0
DWIDTH 23 0
BBX 23 30 0 -8
BITMAP
000000
000000
000000
000000
000000
000000
000000
000000
000060
0000C0
000180
000180
1C0300
3F0600
61CE00
C07C00
C03C00
C03000
40E000
61D830
3F0E60
1E07C0
000000
000000
000000
000000
000000
000000
000000
000000
ENDCHAR

STARTCHAR C003
ENCODING 3
SWIDTH 750 0
DWIDTH 21 0
BBX 21 30 0 -8
BITMAP
000000
000000
000000
000F00
001980
0031C0
0060C0
00C0C0
01C180
018300
010300
030600
030C00
061E00
060600
0C0700
0C0380
1801C0
1800C0
390180
31C300
30FE00
700000
600000
600000
600000
E00000
000000
000000
000000
ENDCHAR

STARTCHAR C004
ENCODING 4
SWIDTH 642 0
DWIDTH 18 0
BBX 18 30 0 -8
BITMAP
000000
000000
000000
000000
000000
000000
000000
010000
038000
06C000
06C000
0C6000
0C6000
183000
183000
301800
301800
600C00
600C00
C00600
C00600
000000
000000
000000
000000
000000
000000
000000
000000
000000
ENDCHAR

STARTCHAR C005
ENCODING 5
SWIDTH 714 0
DWIDTH 20 0
BBX 20 30 0 -8
BITMAP
000000
000000
000000
000000
000000
000000
000000
000000
000000
000000
000000
000000
000000
000000
000000
FFFFF0
FFFFF0
000000
000000
000000
000000
000000
000000
000000
000000
000000
000000
000000
000000
000000
ENDCHAR

STARTCHAR C006
ENCODING 6
SWIDTH 428 0
DWIDTH 12 0
BBX 12 30 0 -8
BITMAP
0000
0000
0000
0000
0000
0000
0780
0C00
1800
3000
6000
6000
E000
FF80
E000
6000
6000
3000
1800
0C00
0780
0000
0000
0000
0000
0000
0000
0000
0000
0000
ENDCHAR

STARTCHAR C007
ENCODING 7
SWIDTH 607 0
DWIDTH 17 0
BBX 17 30 0 -8
BITMAP
000000
000000
000000
000000
000000
000000
000000
000000
000000
FFC000
FFF800
307C00
306000
306000
306000
306000
306000
306000
306000
306000
306000
F06000
003C00
000000
000000
000000
000000
000000
000000
000000
ENDCHAR

STARTCHAR C010
ENCODING 8
SWIDTH 571 0
DWIDTH 16 0
BBX 16 30 0 -8
BITMAP
0000
0000
0000
0000
C000
F000
7800
1800
0C00
0C00
0600
0600
0600
0F00
1B00
3180
3180
60C0
E0C0
C060
8038
0018
0000
0000
0000
0000
0000
0000
0000
0000
ENDCHAR

STARTCHAR C013
ENCODING 11
SWIDTH 535 0
DWIDTH 15 0
BBX 15 30 0 -8
BITMAP
0000
0000
0600
0F00
1F80
36C0
6660
C630
0600
0600
0600
0600
0600
0600
0600
0600
0600
0600
0600
0600
0600
0600
0000
0000
0000
0000
0000
0000
0000
0000
ENDCHAR

STARTCHAR C014
ENCODING 12
SWIDTH 607 0
DWIDTH 17 0
BBX 17 30 0 -8
BITMAP
000000
000000
000000
030000
030000
030000
030000
030000
030000
FFFC00
FFFC00
030000
030000
030000
030000
030000
030000
000000
000000
FFFC00
FFFC00
000000
000000
000000
000000
000000
000000
000000
000000
000000
ENDCHAR

STARTCHAR C016
ENCODING 14
SWIDTH 1000 0
DWIDTH 28 0
BBX 28 30 0 -8
BITMAP
00000000
00000000
00078F00
000FDF80
0018F1C0
001860C0
003060C0
0030E180
0070C180
03FFFF80
03FFFF80
0060C300
00618300
00618300
00C18300
00C18600
00C18600
00C30600
00C30640
00C30CC0
01830F80
01830700
01860000
01860000
01860000
03060000
030C0000
C30C0000
7FF80000
7CF00000
ENDCHAR

STARTCHAR C017
ENCODING 15
SWIDTH 571 0
DWIDTH 16 0
BBX 16 30 0 -8
BITMAP
0000
0000
1C00
0600
0300
0380
0180
00C0
0060
0060
0030
1F30
3FF0
6078
4038
C018
C018
C018
4030
6030
2060
1FC0
0000
0000
0000
0000
0000
0000
0000
0000
ENDCHAR

STARTCHAR C020
ENCODING 16
SWIDTH 607 0
DWIDTH 17 0
BBX 17 30 0 -8
BITMAP
000000
000000
000000
000000
000000
000000
000000
000000
1FFC00
3FFC00
700000
E00000
C00000
C00000
C00000
E00000
700000
3FFC00
1FFC00
000000
000000
000000
000000
000000
000000
000000
000000
000000
000000
000000
ENDCHAR

STARTCHAR C021
ENCODING 17
SWIDTH 607 0
DWIDTH 17 0
BBX 17 30 0 -8
BITMAP
000000
000000
000000
000000
000000
000000
000000
000000
FFE000
FFF000
003800
001C00
000C00
000C00
000C00
001C00
003800
FFF000
FFE000
000000
000000
000000
000000
000000
000000
000000
000000
000000
000000
000000
ENDCHAR

STARTCHAR C022
ENCODING 18
SWIDTH 500 0
DWIDTH 14 0
BBX 14 30 0 -8
BITMAP
0000
0000
0000
0000
0000
0000
0000
1F00
3F80
71C0
E0E0
C060
C060
C060
C060
C060
C060
C060
C060
C060
C060
C060
0000
0000
0000
0000
0000
0000
0000
0000
ENDCHAR

STARTCHAR C023
ENCODING 19
SWIDTH 500 0
DWIDTH 14 0
BBX 14 30 0 -8
BITMAP
0000
0000
0000
0000
0000
0000
0000
C060
C060
C060
C060
C060
C060
C060
C060
C060
C060
C060
E0E0
71C0
3F80
1F00
0000
0000
0000
0000
0000
0000
0000
0000
ENDCHAR

STARTCHAR C024
ENCODING 20
SWIDTH 642 0
DWIDTH 18 0
BBX 18 30 0 -8
BITMAP
000000
F00F80
600700
300700
180600
180600
180E00
0C0E00
0C0C00
0FFC00
07F800
061800
061800
033000
033000
036000
03C000
03C000
03C000
018000
018000
030000
000000
000000
000000
000000
000000
000000
000000
000000
ENDCHAR

STARTCHAR C025
ENCODING 21
SWIDTH 642 0
DWIDTH 18 0
BBX 18 30 0 -8
BITMAP
000000
000000
1FFF00
1FFF00
100700
000700
000600
000600
000E00
000E00
000C00
03FC00
03FC00
000C00
000C00
001C00
001C00
001800
001800
801800
FFF800
FFF800
000000
000000
000000
000000
000000
000000
000000
000000
ENDCHAR

STARTCHAR C026
ENCODING 22
SWIDTH 607 0
DWIDTH 17 0
BBX 17 30 0 -8
BITMAP
000000
000000
000000
000000
000000
000000
000000
078000
1FE000
201000
787800
4CC800
C78C00
C30C00
C78C00
4CC800
787800
303000
1FE000
078000
000000
000000
000000
000000
000000
000000
000000
000000
000000
000000
ENDCHAR

STARTCHAR C027
ENCODING 23
SWIDTH 678 0
DWIDTH 19 0
BBX 19 30 0 -8
BITMAP
000000
000000
000000
000000
000000
000000
000000
000000
000000
0C3000
181800
300C00
600600
FFFF00
FFFF00
600600
300C00
181800
0C3000
000000
000000
000000
000000
000000
000000
000000
000000
000000
000000
000000
ENDCHAR

STARTCHAR C030
ENCODING 24
SWIDTH 678 0
DWIDTH 19 0
BBX 19 30 0 -8
BITMAP
000000
000000
000000
000000
000000
000000
000000
000000
040000
0C0000
180000
300000
600000
FFFF00
FFFF00
600000
300000
180000
0C0000
040000
000000
000000
000000
000000
000000
000000
000000
000000
000000
000000
ENDCHAR

STARTCHAR C031
ENCODING 25
SWIDTH 678 0
DWIDTH 19 0
BBX 19 30 0 -8
BITMAP
000000
000000
000000
000000
000000
000000
000000
000000
002000
003000
001800
000C00
000600
FFFF00
FFFF00
000600
000C00
001800
003000
002000
000000
000000
000000
000000
000000
000000
000000
000000
000000
000000
ENDCHAR

STARTCHAR C032
ENCODING 26
SWIDTH 928 0
DWIDTH 26 0
BBX 26 30 0 -8
BITMAP
00000000
00000000
00070600
000FDF00
0018F180
00306180
00306000
0060C000
0060C000
03FFFF00
03FFFF00
00618300
00618300
00E18300
00C18300
00C18600
00C30600
00C30600
00C30C40
01830CC0
01830F80
01830700
01860000
01860000
03060000
03060000
030C0000
C7180000
FDF00000
38E00000
ENDCHAR

STARTCHAR C034
ENCODING 28
SWIDTH 535 0
DWIDTH 15 0
BBX 15 30 0 -8
BITMAP
0000
0000
0000
0000
0000
0000
0030
00F0
03C0
0F00
3C00
F000
F000
3C00
0F00
03C0
00F0
0030
0000
0000
FFF0
FFF0
0000
0000
0000
0000
0000
0000
0000
0000
ENDCHAR

STARTCHAR C035
ENCODING 29
SWIDTH 928 0
DWIDTH 26 0
BBX 26 30 0 -8
BITMAP
00000000
00000000
0007CF00
000FDF80
00187980
00187000
00306000
00306000
0030E000
01FFF800
01FFF800
0060C000
0060C000
0061C000
00618000
00618000
00C18000
00C18000
00C30000
00C30000
01830000
01830000
01830000
01860000
01860000
03060000
03060000
C30C0000
FFF80000
79F00000
ENDCHAR

STARTCHAR C036
ENCODING 30
SWIDTH 714 0
DWIDTH 20 0
BBX 20 30 0 -8
BITMAP
000000
000000
0003C0
0007E0
000C60
001800
001800
003000
003000
01FFC0
01FFC0
0070C0
0060C0
0060C0
0060C0
006180
00E180
00C180
00C300
00C360
00C3E0
0183C0
018000
018000
018000
030000
030000
C30000
7E0000
7C0000
ENDCHAR

STARTCHAR C037
ENCODING 31
SWIDTH 785 0
DWIDTH 22 0
BBX 22 30 0 -8
BITMAP
000000
000000
0001E0
0007F8
000638
000C18
000C38
001830
001870
00FFE0
00FFE0
003060
0030E0
0030C0
0060C0
0060C0
006180
006180
00C1B0
00C1B0
00C1E0
00C0C0
008000
018000
018000
018000
030000
C30000
7E0000
3C0000
ENDCHAR

STARTCHAR C040
ENCODING 32
SWIDTH 357 0
DWIDTH 10 0
BBX 10 30 0 -8
BITMAP
0000
0000
0000
0000
0000
0000
0000
0000
0000
0000
0000
0000
0000
0000
0000
0000
0000
0000
0000
0000
0000
0000
0000
0000
0000
0000
0000
0000
0000
0000
ENDCHAR

STARTCHAR !
ENCODING 33
SWIDTH 392 0
DWIDTH 11 0
BBX 11 30 0 -8
BITMAP
0000
0000
0180
0180
0380
0380
0380
0700
0700
0600
0600
0E00
0C00
0C00
1800
1800
1800
0000
0000
C000
F000
6000
0000
0000
0000
0000
0000
0000
0000
0000
ENDCHAR

STARTCHAR "
ENCODING 34
SWIDTH 392 0
DWIDTH 11 0
BBX 11 30 0 -8
BITMAP
0000
0000
E700
E700
E700
E700
E700
E700
4200
0000
0000
0000
0000
0000
0000
0000
0000
0000
0000
0000
0000
0000
0000
0000
0000
0000
0000
0000
0000
0000
ENDCHAR

STARTCHAR #
ENCODING 35
SWIDTH 607 0
DWIDTH 17 0
BBX 17 30 0 -8
BITMAP
000000
000000
000000
000000
000000
000000
000000
000000
000000
033000
077000
066000
3FFC00
7FF800
0CC000
0CC000
198000
7FF000
FFE000
330000
770000
660000
000000
000000
000000
000000
000000
000000
000000
000000
ENDCHAR

STARTCHAR $
ENCODING 36
SWIDTH 642 0
DWIDTH 18 0
BBX 18 30 0 -8
BITMAP
01B000
01B000
03F000
0FF800
19BC00
31BE00
333600
336000
3B6000
1E6000
0FE000
07E000
07E000
06F000
06F800
0CD800
0D9800
D99800
D9B800
FFF000
7FE000
1B0000
330000
330000
000000
000000
000000
000000
000000
000000
ENDCHAR

STARTCHAR %
ENCODING 37
SWIDTH 571 0
DWIDTH 16 0
BBX 16 30 0 -8
BITMAP
0000
0000
0000
03F8
0630
7C30
8860
8860
88C0
70C0
0180
0180
0300
0300
0600
0600
0C00
0C70
1888
1888
3088
3070
0000
0000
0000
0000
0000
0000
0000
0000
ENDCHAR

STARTCHAR &
ENCODING 38
SWIDTH 928 0
DWIDTH 26 0
BBX 26 30 0 -8
BITMAP
00000000
00000000
07000000
0F803C00
19807E00
30006600
30000600
30000600
36000E00
3E0FFE00
7E1FF800
6038C000
C030C000
C030C000
C038C000
C038C000
E000C000
7001C000
78038000
3FFF8000
0FFE0000
03F00000
00000000
00000000
00000000
00000000
00000000
00000000
00000000
00000000
ENDCHAR

STARTCHAR '
ENCODING 39
SWIDTH 250 0
DWIDTH 7 0
BBX 7 30 0 -8
BITMAP
30
78
78
38
18
30
60
C0
00
00
00
00
00
00
00
00
00
00
00
00
00
00
00
00
00
00
00
00
00
00
ENDCHAR

STARTCHAR (
ENCODING 40
SWIDTH 392 0
DWIDTH 11 0
BBX 11 30 0 -8
BITMAP
0180
0300
0600
0C00
0C00
1800
1800
3000
3000
6000
6000
6000
6000
C000
C000
C000
C000
C000
6000
6000
6000
6000
3000
3000
1800
1800
0000
0000
0000
0000
ENDCHAR

STARTCHAR )
ENCODING 41
SWIDTH 392 0
DWIDTH 11 0
BBX 11 30 0 -8
BITMAP
0C00
0C00
0600
0600
0300
0300
0300
0300
0180
0180
0180
0180
0180
0300
0300
0300
0300
0600
0600
0C00
0C00
1800
1800
3000
6000
C000
0000
0000
0000
0000
ENDCHAR

STARTCHAR *
ENCODING 42
SWIDTH 500 0
DWIDTH 14 0
BBX 14 30 0 -8
BITMAP
0000
0000
0000
0000
0000
0000
0000
0600
0600
0600
4620
E070
70E0
0900
0600
3180
E0E0
4440
0600
0600
0600
0000
0000
0000
0000
0000
0000
0000
0000
0000
ENDCHAR

STARTCHAR +
ENCODING 43
SWIDTH 464 0
DWIDTH 13 0
BBX 13 30 0 -8
BITMAP
0000
0000
0000
0000
0000
0000
0000
0000
0000
0C00
0C00
0C00
0C00
FFC0
FFC0
0C00
0C00
0C00
0C00
0000
0000
0000
0000
0000
0000
0000
0000
0000
0000
0000
ENDCHAR

STARTCHAR ,
ENCODING 44
SWIDTH 357 0
DWIDTH 10 0
BBX 10 30 0 -8
BITMAP
0000
0000
0000
0000
0000
0000
0000
0000
0000
0000
0000
0000
0000
0000
0000
0000
0000
0000
0000
3000
7800
3800
1800
3000
6000
C000
0000
0000
0000
0000
ENDCHAR

STARTCHAR -
ENCODING 45
SWIDTH 321 0
DWIDTH 9 0
BBX 9 30 0 -8
BITMAP
0000
0000
0000
0000
0000
0000
0000
0000
0000
0000
0000
0000
FE00
FE00
0000
0000
0000
0000
0000
0000
0000
0000
0000
0000
0000
0000
0000
0000
0000
0000
ENDCHAR

STARTCHAR .
ENCODING 46
SWIDTH 214 0
DWIDTH 6 0
BBX 6 30 0 -8
BITMAP
00
00
00
00
00
00
00
00
00
00
00
00
00
00
00
00
00
00
00
60
F0
60
00
00
00
00
00
00
00
00
ENDCHAR

STARTCHAR /
ENCODING 47
SWIDTH 357 0
DWIDTH 10 0
BBX 10 30 0 -8
BITMAP
0000
0000
0600
0600
0600
0C00
0C00
0C00
0C00
1800
1800
1800
1800
3000
3000
3000
3000
6000
6000
6000
6000
C000
C000
C000
C000
0000
0000
0000
0000
0000
ENDCHAR

STARTCHAR 0
ENCODING 48
SWIDTH 607 0
DWIDTH 17 0
BBX 17 30 0 -8
BITMAP
000000
000000
01E000
07F000
0E3800
181800
381C00
300C00
701C00
601C00
601C00
E01800
E01800
C03800
C03800
C07000
C06000
C0E000
C0C000
E18000
7F0000
3E0000
000000
000000
000000
000000
000000
000000
000000
000000
ENDCHAR

STARTCHAR 1
ENCODING 49
SWIDTH 428 0
DWIDTH 12 0
BBX 12 30 0 -8
BITMAP
0000
0000
00C0
0780
0F80
0380
0380
0380
0300
0300
0700
0700
0600
0600
0E00
0C00
0C00
1C00
1C00
1C00
3C00
FF00
0000
0000
0000
0000
0000
0000
0000
0000
ENDCHAR

STARTCHAR 2
ENCODING 50
SWIDTH 607 0
DWIDTH 17 0
BBX 17 30 0 -8
BITMAP
000000
000000
03E000
07F800
0E7800
081C00
181C00
100C00
001C00
001C00
003800
003000
006000
00C000
018000
030000
060000
0C0000
181800
301800
7FF800
FFF000
000000
000000
000000
000000
000000
000000
000000
000000
ENDCHAR

STARTCHAR 3
ENCODING 51
SWIDTH 642 0
DWIDTH 18 0
BBX 18 30 0 -8
BITMAP
000000
000000
00E000
03F800
03FC00
020E00
000600
000600
000C00
001800
07F000
07F000
003800
003800
001800
003800
007000
00E000
01C000
078000
1E0000
F80000
000000
000000
000000
000000
000000
000000
000000
000000
ENDCHAR

STARTCHAR 4
ENCODING 52
SWIDTH 535 0
DWIDTH 15 0
BBX 15 30 0 -8
BITMAP
0000
0000
0018
0038
0070
00F0
01B0
0370
0660
0C60
1860
30E0
60C0
FFF8
FFF8
0180
0180
0180
0380
0300
0300
0700
0000
0000
0000
0000
0000
0000
0000
0000
ENDCHAR

STARTCHAR 5
ENCODING 53
SWIDTH 607 0
DWIDTH 17 0
BBX 17 30 0 -8
BITMAP
000000
000000
060400
07F800
07F000
0F8000
0C0000
0C0000
1FC000
1FE000
00F000
003000
003000
003000
003000
006000
00E000
01C000
038000
0F0000
3C0000
F00000
000000
000000
000000
000000
000000
000000
000000
000000
ENDCHAR

STARTCHAR 6
ENCODING 54
SWIDTH 607 0
DWIDTH 17 0
BBX 17 30 0 -8
BITMAP
000000
000000
001C00
007000
01C000
038000
070000
0E0000
1C0000
180000
31C000
73E000
E67000
EC3000
C03000
C03000
C03000
C07000
C06000
E0E000
7FC000
3F0000
000000
000000
000000
000000
000000
000000
000000
000000
ENDCHAR

STARTCHAR 7
ENCODING 55
SWIDTH 500 0
DWIDTH 14 0
BBX 14 30 0 -8
BITMAP
0000
6000
7FF0
7FF0
6030
C030
C060
0060
00C0
00C0
0180
0380
0300
0700
0E00
0C00
1800
3800
3000
7000
6000
E000
0000
0000
0000
0000
0000
0000
0000
0000
ENDCHAR

STARTCHAR 8
ENCODING 56
SWIDTH 607 0
DWIDTH 17 0
BBX 17 30 0 -8
BITMAP
000000
000000
01F000
07F800
0E1C00
0C0C00
1C0C00
1C0C00
0C0C00
0E1800
0F3000
07E000
0FC000
31E000
60E000
C07000
C07000
C07000
C07000
E0E000
7FC000
3F8000
000000
000000
000000
000000
000000
000000
000000
000000
ENDCHAR

STARTCHAR 9
ENCODING 57
SWIDTH 571 0
DWIDTH 16 0
BBX 16 30 0 -8
BITMAP
0000
0000
03E0
0FF0
1C38
3818
180C
700C
700C
700C
7018
3198
3B30
0E70
0060
00C0
0180
0700
0E00
1800
3000
C000
0000
0000
0000
0000
0000
0000
0000
0000
ENDCHAR

STARTCHAR :
ENCODING 58
SWIDTH 321 0
DWIDTH 9 0
BBX 9 30 0 -8
BITMAP
0000
0000
0000
0000
0000
0000
0000
0000
0000
0000
0C00
1E00
0C00
0000
0000
0000
0000
0000
0000
6000
F000
6000
0000
0000
0000
0000
0000
0000
0000
0000
ENDCHAR

STARTCHAR ;
ENCODING 59
SWIDTH 321 0
DWIDTH 9 0
BBX 9 30 0 -8
BITMAP
0000
0000
0000
0000
0000
0000
0000
0000
0000
0000
0600
0F00
0600
0000
0000
0000
0000
0000
0000
3000
7800
3800
1800
3000
6000
C000
0000
0000
0000
0000
ENDCHAR

STARTCHAR <
ENCODING 60
SWIDTH 535 0
DWIDTH 15 0
BBX 15 30 0 -8
BITMAP
0000
0000
0000
0000
0000
0000
0030
00F0
03C0
0F00
3C00
F000
F000
3C00
0F00
03C0
00F0
0030
0000
0000
0000
0000
0000
0000
0000
0000
0000
0000
0000
0000
ENDCHAR

STARTCHAR =
ENCODING 61
SWIDTH 607 0
DWIDTH 17 0
BBX 17 30 0 -8
BITMAP
000000
000000
000000
000000
000000
000000
000000
000000
000000
000000
000000
FFF800
FFF800
000000
000000
FFF800
FFF800
000000
000000
000000
000000
000000
000000
000000
000000
000000
000000
000000
000000
000000
ENDCHAR

STARTCHAR >
ENCODING 62
SWIDTH 535 0
DWIDTH 15 0
BBX 15 30 0 -8
BITMAP
0000
0000
0000
0000
0000
0000
C000
F000
3C00
0F00
03C0
00F0
00F0
03C0
0F00
3C00
F000
C000
0000
0000
0000
0000
0000
0000
0000
0000
0000
0000
0000
0000
ENDCHAR

STARTCHAR ?
ENCODING 63
SWIDTH 392 0
DWIDTH 11 0
BBX 11 30 0 -8
BITMAP
0000
0000
3E00
7F00
C180
CD80
CD80
FD80
7980
0380
0700
0E00
1C00
3800
3000
6000
6000
0000
0000
6000
F000
6000
0000
0000
0000
0000
0000
0000
0000
0000
ENDCHAR

STARTCHAR @
ENCODING 64
SWIDTH 678 0
DWIDTH 19 0
BBX 19 30 0 -8
BITMAP
000000
000000
000000
000000
000000
000000
0FFC00
1FFE00
300F00
600300
47C180
CFE180
9C7180
983180
983180
983180
983300
9C7F00
8FFE00
C00000
600000
3FFF80
000000
000000
000000
000000
000000
000000
000000
000000
ENDCHAR

STARTCHAR A
ENCODING 65
SWIDTH 714 0
DWIDTH 20 0
BBX 20 30 0 -8
BITMAP
000000
000000
000180
000380
000380
000780
000D80
001B80
001B80
003380
006380
006700
00C700
01FF00
03FF00
030700
060700
0C0700
0C0700
180E00
301F00
FC3F80
000000
000000
000000
000000
000000
000000
000000
000000
ENDCHAR

STARTCHAR B
ENCODING 66
SWIDTH 714 0
DWIDTH 20 0
BBX 20 30 0 -8
BITMAP
000000
000000
0FF800
0FFE00
03C700
038380
038380
038380
038380
070380
070700
07FE00
07FE00
0E0700
0E0380
0C0380
1C0380
1C0700
180F00
381E00
3FFC00
FFF000
000000
000000
000000
000000
000000
000000
000000
000000
ENDCHAR

STARTCHAR C
ENCODING 67
SWIDTH 678 0
DWIDTH 19 0
BBX 19 30 0 -8
BITMAP
000000
000000
00F000
03FC00
070700
0E0300
1C0100
380100
380100
700000
700000
700000
E00000
E00000
E00000
E00200
E00200
E00400
600C00
701C00
1FF400
0FC000
000000
000000
000000
000000
000000
000000
000000
000000
ENDCHAR

STARTCHAR D
ENCODING 68
SWIDTH 821 0
DWIDTH 23 0
BBX 23 30 0 -8
BITMAP
000000
000000
0FF800
0FFE00
03C380
0381C0
0380E0
038060
070070
070070
070070
060070
0E0070
0E0070
0C00F0
0C00E0
1C00E0
1C01C0
180380
380700
3FFC00
FFE000
000000
000000
000000
000000
000000
000000
000000
000000
ENDCHAR

STARTCHAR E
ENCODING 69
SWIDTH 750 0
DWIDTH 21 0
BBX 21 30 0 -8
BITMAP
000000
000000
07FFC0
03FFC0
01C0C0
038040
038040
030400
030400
070C00
07FC00
07F800
061800
0E1800
0E1000
1C0000
1C0080
1C0180
380180
3C0300
FFFF00
FFFF00
000000
000000
000000
000000
000000
000000
000000
000000
ENDCHAR

STARTCHAR F
ENCODING 70
SWIDTH 785 0
DWIDTH 22 0
BBX 22 30 0 -8
BITMAP
000000
000000
0FFF80
0FFFC0
03C0C0
038060
038060
038000
038000
070400
070C00
07FC00
07F800
0E1800
0E1000
0C1000
1C0000
1C0000
380000
380000
7C0000
FE0000
000000
000000
000000
000000
000000
000000
000000
000000
ENDCHAR

STARTCHAR G
ENCODING 71
SWIDTH 750 0
DWIDTH 21 0
BBX 21 30 0 -8
BITMAP
000000
000000
007800
01FE00
038340
0701C0
0E0080
1C0080
1C0080
380080
380000
700000
700000
F00F80
E00F80
E00380
E00380
600700
700700
381E00
1FF800
07C000
000000
000000
000000
000000
000000
000000
000000
000000
ENDCHAR

STARTCHAR H
ENCODING 72
SWIDTH 964 0
DWIDTH 27 0
BBX 27 30 0 -8
BITMAP
00000000
00000000
07F07F00
03E03E00
01C01C00
01801C00
03801C00
03801800
03803800
07003800
07003000
07FFF000
07FFF000
0E007000
0E007000
1C00E000
1C00E000
1801E000
1801C000
3801C000
7C07E000
FE0FF000
00000000
00000000
00000000
00000000
00000000
00000000
00000000
00000000
ENDCHAR

STARTCHAR I
ENCODING 73
SWIDTH 428 0
DWIDTH 12 0
BBX 12 30 0 -8
BITMAP
0000
0000
0F80
0F80
0700
0700
0700
0600
0E00
0E00
0C00
1C00
1C00
1C00
1800
3800
3800
3800
7000
7000
F800
F800
0000
0000
0000
0000
0000
0000
0000
0000
ENDCHAR

STARTCHAR J
ENCODING 74
SWIDTH 750 0
DWIDTH 21 0
BBX 21 30 0 -8
BITMAP
000000
000000
003FC0
001F80
000F00
000E00
000E00
001C00
001C00
001C00
001800
003800
003800
003800
003000
007000
007000
006000
00E000
00E000
00C000
01C000
01C000
038000
038000
C70000
C70000
FE0000
7C0000
380000
ENDCHAR

STARTCHAR K
ENCODING 75
SWIDTH 857 0
DWIDTH 24 0
BBX 24 30 0 -8
BITMAP
000000
000000
07E1F8
038060
0380C0
038180
038300
030600
070C00
071800
073000
07E000
07C000
0FE000
0C7000
1C3800
1C3800
1C1C00
380E00
380700
380780
FE1FE0
000000
000000
000000
000000
000000
000000
000000
000000
ENDCHAR

STARTCHAR L
ENCODING 76
SWIDTH 642 0
DWIDTH 18 0
BBX 18 30 0 -8
BITMAP
000000
000000
1FC000
070000
070000
070000
0E0000
0E0000
0E0000
0E0000
1C0000
1C0000
1C0000
380000
380000
380000
300100
700100
700200
700600
FFFE00
FFFC00
000000
000000
000000
000000
000000
000000
000000
000000
ENDCHAR

STARTCHAR M
ENCODING 77
SWIDTH 1071 0
DWIDTH 30 0
BBX 30 30 0 -8
BITMAP
00000000
00000000
03E001E0
00E00380
00E00780
01E00F80
01E01B80
03E01B00
03603700
03606700
06706700
0670C700
06718600
0C318E00
0C330E00
0C360E00
183C0C00
183C1C00
18381C00
38381C00
38301C00
F8207F00
00000000
00000000
00000000
00000000
00000000
00000000
00000000
00000000
ENDCHAR

STARTCHAR N
ENCODING 78
SWIDTH 1000 0
DWIDTH 28 0
BBX 28 30 0 -8
BITMAP
00000000
00000000
07803F80
01C00E00
01C00C00
01E00C00
03E00C00
03700C00
03701800
03381800
06381800
061C3000
061C3000
0C0E3000
0C0E6000
0C066000
18076000
1803C000
1803C000
3001C000
3001C000
FC008000
00000000
00000000
00000000
00000000
00000000
00000000
00000000
00000000
ENDCHAR

STARTCHAR O
ENCODING 79
SWIDTH 750 0
DWIDTH 21 0
BBX 21 30 0 -8
BITMAP
000000
000000
00FC00
03FE00
060700
0C0380
180380
3803C0
3803C0
7001C0
6001C0
E003C0
E00380
E00380
E00380
E00300
E00700
E00E00
701C00
783800
3FE000
0F8000
000000
000000
000000
000000
000000
000000
000000
000000
ENDCHAR

STARTCHAR P
ENCODING 80
SWIDTH 785 0
DWIDTH 22 0
BBX 22 30 0 -8
BITMAP
000000
000000
07FF00
03FF80
0381C0
0380C0
0380E0
0380E0
0701C0
0703C0
070700
07FE00
07FC00
0E0000
0E0000
0E0000
1C0000
1C0000
380000
380000
380000
FE0000
000000
000000
000000
000000
000000
000000
000000
000000
ENDCHAR

STARTCHAR Q
ENCODING 81
SWIDTH 750 0
DWIDTH 21 0
BBX 21 30 0 -8
BITMAP
000000
000000
00FC00
03FE00
060700
0C0380
180380
3803C0
3803C0
7001C0
6001C0
E003C0
E00380
E00380
E00380
E00300
E00700
E00E00
701C00
783800
3FE000
0F8000
060000
0C0000
7FE000
E07800
001FE0
000FE0
0003E0
0001C0
ENDCHAR

STARTCHAR R
ENCODING 82
SWIDTH 821 0
DWIDTH 23 0
BBX 23 30 0 -8
BITMAP
000000
000000
07FF00
01FFC0
01C0E0
01C070
01C070
038070
0380E0
0380C0
030380
07FF00
07FC00
070600
0E0600
0E0600
0E0700
1C0700
1C0700
1C03B0
3801F0
FE00E0
000000
000000
000000
000000
000000
000000
000000
000000
ENDCHAR

STARTCHAR S
ENCODING 83
SWIDTH 642 0
DWIDTH 18 0
BBX 18 30 0 -8
BITMAP
000000
000000
01F000
07FA00
0E1C00
1C0C00
1C0C00
1E0400
0F0000
078000
03C000
01E000
00E000
00F000
007000
403800
403800
C03800
C07000
E0E000
BFC000
1F8000
000000
000000
000000
000000
000000
000000
000000
000000
ENDCHAR

STARTCHAR T
ENCODING 84
SWIDTH 750 0
DWIDTH 21 0
BBX 21 30 0 -8
BITMAP
000000
000000
7FFFC0
FFFFC0
E1C1C0
C1C0C0
81C040
018000
038000
038000
038000
030000
070000
070000
070000
060000
0E0000
0E0000
0E0000
1C0000
1C0000
7F0000
000000
000000
000000
000000
000000
000000
000000
000000
ENDCHAR

STARTCHAR U
ENCODING 85
SWIDTH 785 0
DWIDTH 22 0
BBX 22 30 0 -8
BITMAP
000000
000000
FF07E0
3C01C0
380180
380180
380180
300180
700300
700300
700300
600300
E00600
C00600
C00600
C00C00
C00C00
C01800
E03000
706000
1FC000
0F0000
000000
000000
000000
000000
000000
000000
000000
000000
ENDCHAR

STARTCHAR V
ENCODING 86
SWIDTH 714 0
DWIDTH 20 0
BBX 20 30 0 -8
BITMAP
000000
000000
FE1F80
380700
380600
380C00
380C00
301800
303000
303000
306000
70C000
718000
618000
630000
660000
FC0000
F80000
F00000
E00000
C00000
800000
000000
000000
000000
000000
000000
000000
000000
000000
ENDCHAR

STARTCHAR W
ENCODING 87
SWIDTH 1071 0
DWIDTH 30 0
BBX 30 30 0 -8
BITMAP
00000000
00000000
FF1FC7E0
3C070180
380E0180
380E0300
381E0300
383E0300
38360600
38660600
38660C00
38C60C00
38C61800
39863000
39863000
3B066000
3E06C000
3C07C000
38078000
38070000
30070000
20060000
00000000
00000000
00000000
00000000
00000000
00000000
00000000
00000000
ENDCHAR

STARTCHAR X
ENCODING 88
SWIDTH 821 0
DWIDTH 23 0
BBX 23 30 0 -8
BITMAP
000000
000000
1FC3F0
0700C0
0300C0
038180
038180
01C300
01C300
01C600
00EC00
00FC00
007800
00F000
01B800
039800
071C00
071C00
0E0C00
1C0E00
380E00
FC1F80
000000
000000
000000
000000
000000
000000
000000
000000
ENDCHAR

STARTCHAR Y
ENCODING 89
SWIDTH 678 0
DWIDTH 19 0
BBX 19 30 0 -8
BITMAP
000000
000000
F81F00
700600
380C00
381800
381800
183000
1C3000
1C6000
1CC000
0F8000
0F0000
0F0000
1E0000
1C0000
1C0000
180000
380000
380000
300000
F80000
000000
000000
000000
000000
000000
000000
000000
000000
ENDCHAR

STARTCHAR Z
ENCODING 90
SWIDTH 642 0
DWIDTH 18 0
BBX 18 30 0 -8
BITMAP
000000
000000
0FFF00
0FFF00
180E00
101C00
103C00
203800
007000
007000
00E000
01C000
038000
070000
070000
0E0000
1C0000
380200
700600
701C00
FFFC00
FFF800
000000
000000
000000
000000
000000
000000
000000
000000
ENDCHAR

STARTCHAR [
ENCODING 91
SWIDTH 571 0
DWIDTH 16 0
BBX 16 30 0 -8
BITMAP
0000
0000
00F8
01F8
01C0
01C0
0180
0380
0380
0380
0700
0700
0600
0E00
0E00
1C00
1C00
1C00
3800
3800
3800
7000
7000
7000
E000
E000
F800
0000
0000
0000
ENDCHAR

STARTCHAR \
ENCODING 92
SWIDTH 500 0
DWIDTH 14 0
BBX 14 30 0 -8
BITMAP
0000
0000
C000
E000
6000
6000
7000
3000
3000
3800
1800
1800
1C00
0C00
0C00
0E00
0600
0600
0700
0300
0300
0380
0180
0180
01C0
00C0
00C0
0000
0000
0000
ENDCHAR

STARTCHAR ]
ENCODING 93
SWIDTH 571 0
DWIDTH 16 0
BBX 16 30 0 -8
BITMAP
0000
0000
00F8
00F8
0038
0038
0030
0070
0070
0060
00E0
00C0
01C0
01C0
0180
0380
0380
0300
0700
0700
0600
0E00
0E00
0C00
1C00
3C00
F800
0000
0000
0000
ENDCHAR

STARTCHAR ^
ENCODING 94
SWIDTH 500 0
DWIDTH 11 0
BBX 14 30 0 -8
BITMAP
0000
0000
0C00
1E00
3300
6180
C0C0
8040
0000
0000
0000
0000
0000
0000
0000
0000
0000
0000
0000
0000
0000
0000
0000
0000
0000
0000
0000
0000
0000
0000
ENDCHAR

STARTCHAR _
ENCODING 95
SWIDTH 571 0
DWIDTH 16 0
BBX 16 30 0 -8
BITMAP
0000
0000
0000
0000
0000
0000
0000
0000
0000
0000
0000
0000
0000
0000
0000
0000
0000
0000
0000
0000
0000
0000
FFFF
0000
0000
0000
0000
0000
0000
0000
ENDCHAR

STARTCHAR `
ENCODING 96
SWIDTH 250 0
DWIDTH 7 0
BBX 7 30 0 -8
BITMAP
18
30
60
C0
E0
F0
F0
60
00
00
00
00
00
00
00
00
00
00
00
00
00
00
00
00
00
00
00
00
00
00
ENDCHAR

STARTCHAR a
ENCODING 97
SWIDTH 535 0
DWIDTH 15 0
BBX 15 30 0 -8
BITMAP
0000
0000
0000
0000
0000
0000
0000
0000
07B0
0FF0
18F0
3060
7060
60C0
E0C0
C0C0
C180
C188
C398
E7B0
7DE0
31C0
0000
0000
0000
0000
0000
0000
0000
0000
ENDCHAR

STARTCHAR b
ENCODING 98
SWIDTH 428 0
DWIDTH 12 0
BBX 12 30 0 -8
BITMAP
0000
0000
3C00
1C00
1C00
1800
1800
3800
3000
3380
3FC0
78C0
70C0
60C0
60C0
C0C0
C180
C180
C300
C600
FC00
7800
0000
0000
0000
0000
0000
0000
0000
0000
ENDCHAR

STARTCHAR c
ENCODING 99
SWIDTH 392 0
DWIDTH 11 0
BBX 11 30 0 -8
BITMAP
0000
0000
0000
0000
0000
0000
0000
0000
0780
0F80
1880
3180
6000
6000
E000
C000
C000
C000
C100
C300
FE00
7C00
0000
0000
0000
0000
0000
0000
0000
0000
ENDCHAR

STARTCHAR d
ENCODING 100
SWIDTH 607 0
DWIDTH 17 0
BBX 17 30 0 -8
BITMAP
000000
000000
003E00
000E00
000C00
000C00
001C00
001800
001800
07B800
0CF800
187000
307000
706000
706000
E06000
E0C000
C0C400
E1CC00
E2D800
7CF000
38E000
000000
000000
000000
000000
000000
000000
000000
000000
ENDCHAR

STARTCHAR e
ENCODING 101
SWIDTH 428 0
DWIDTH 12 0
BBX 12 30 0 -8
BITMAP
0000
0000
0000
0000
0000
0000
0000
0000
0180
07C0
0CC0
18C0
38C0
3180
7F00
7E00
E000
E000
E180
6300
7E00
3C00
0000
0000
0000
0000
0000
0000
0000
0000
ENDCHAR

STARTCHAR f
ENCODING 102
SWIDTH 785 0
DWIDTH 22 0
BBX 22 30 0 -8
BITMAP
000000
000000
0001E0
0003F0
000618
000600
000C00
000C00
000C00
001C00
00FF00
00FF00
001800
003000
003000
003000
006000
006000
006000
00C000
00C000
00C000
008000
018000
018000
018000
030000
C30000
7E0000
3C0000
ENDCHAR

STARTCHAR g
ENCODING 103
SWIDTH 571 0
DWIDTH 16 0
BBX 16 30 0 -8
BITMAP
0000
0000
0000
0000
0000
0000
0000
0000
03C6
07FE
0C32
0830
1830
1830
1860
1CE0
1FC0
0F80
1800
3000
7000
7F00
3FC0
03E0
C0E0
C060
C060
E0E0
7FC0
1F80
ENDCHAR

STARTCHAR h
ENCODING 104
SWIDTH 535 0
DWIDTH 15 0
BBX 15 30 0 -8
BITMAP
0000
0000
07C0
0780
0180
0180
0300
0300
0600
0600
0CE0
0DF0
1B30
1E30
1C30
3870
3060
3060
30C0
60C8
60D8
C0F0
0000
0000
0000
0000
0000
0000
0000
0000
ENDCHAR

STARTCHAR i
ENCODING 105
SWIDTH 321 0
DWIDTH 9 0
BBX 9 30 0 -8
BITMAP
0000
0000
0000
0000
0C00
1E00
0C00
0000
0000
7800
D800
1800
3800
3000
3000
6000
6000
E000
C600
CC00
F800
F000
0000
0000
0000
0000
0000
0000
0000
0000
ENDCHAR

STARTCHAR j
ENCODING 106
SWIDTH 571 0
DWIDTH 16 0
BBX 16 30 0 -8
BITMAP
0000
0000
0000
0000
000C
001E
000C
0000
0000
0038
0078
00D8
0098
0030
0030
0030
0060
0060
0060
00C0
00C0
00C0
0080
0180
0180
0180
0300
C300
7E00
3C00
ENDCHAR

STARTCHAR k
ENCODING 107
SWIDTH 535 0
DWIDTH 15 0
BBX 15 30 0 -8
BITMAP
0000
0000
1E00
1E00
0600
0600
0C00
0C00
0C00
19C0
1BE0
1C60
1860
38C0
3180
3F00
3F00
3180
6198
6198
C1B0
C1E0
0000
0000
0000
0000
0000
0000
0000
0000
ENDCHAR

STARTCHAR l
ENCODING 108
SWIDTH 321 0
DWIDTH 9 0
BBX 9 30 0 -8
BITMAP
0000
0000
1E00
0E00
0600
0E00
0C00
0C00
1C00
1800
1800
3800
3000
3000
6000
6000
C000
C000
C000
CC00
D800
F000
0000
0000
0000
0000
0000
0000
0000
0000
ENDCHAR

STARTCHAR m
ENCODING 109
SWIDTH 750 0
DWIDTH 21 0
BBX 21 30 0 -8
BITMAP
000000
000000
000000
000000
000000
000000
000000
000000
30E180
79F7C0
DB3CC0
9E38C0
1E78C0
1C7180
186180
386180
30C180
30C300
30C320
618360
6183E0
4103C0
000000
000000
000000
000000
000000
000000
000000
000000
ENDCHAR

STARTCHAR n
ENCODING 110
SWIDTH 607 0
DWIDTH 17 0
BBX 17 30 0 -8
BITMAP
000000
000000
000000
000000
000000
000000
000000
000000
38F000
7DF800
CF1800
8E1800
0E1800
0C1800
1C3000
183000
183000
186000
306000
306600
307C00
607800
000000
000000
000000
000000
000000
000000
000000
000000
ENDCHAR

STARTCHAR o
ENCODING 111
SWIDTH 428 0
DWIDTH 12 0
BBX 12 30 0 -8
BITMAP
0000
0000
0000
0000
0000
0000
0000
0000
0F00
1F80
31C0
30C0
60C0
60C0
C0C0
C0C0
C0C0
C180
C180
C300
FE00
7C00
0000
0000
0000
0000
0000
0000
0000
0000
ENDCHAR

STARTCHAR p
ENCODING 112
SWIDTH 607 0
DWIDTH 17 0
BBX 17 30 0 -8
BITMAP
000000
000000
000000
000000
00C000
00C000
018000
018000
018000
03BC00
077E00
0FC600
1B8600
330600
660600
060E00
060C00
0C1C00
0C1800
0C3000
0FE000
1BC000
180000
180000
100000
300000
300000
300000
700000
F80000
ENDCHAR

STARTCHAR q
ENCODING 113
SWIDTH 500 0
DWIDTH 14 0
BBX 14 30 0 -8
BITMAP
0000
0000
0000
0000
0000
0000
0000
0000
0730
0FF0
18E0
3060
3060
60E0
60C0
C0C0
C1C0
C180
C380
C380
FF80
7F80
0300
0300
0700
0700
0600
0600
0E00
3F80
ENDCHAR

STARTCHAR r
ENCODING 114
SWIDTH 428 0
DWIDTH 12 0
BBX 12 30 0 -8
BITMAP
0000
0000
0000
0000
0000
0000
0000
0000
30C0
79C0
DB40
9E00
1C00
1C00
1800
1800
3000
3000
3000
7000
6000
6000
0000
0000
0000
0000
0000
0000
0000
0000
ENDCHAR

STARTCHAR s
ENCODING 115
SWIDTH 428 0
DWIDTH 12 0
BBX 12 30 0 -8
BITMAP
0000
0000
0000
0000
0000
0000
0000
0000
0780
0FC0
1980
1800
1800
0C00
0C00
0600
0700
0300
0300
C700
FE00
7C00
0000
0000
0000
0000
0000
0000
0000
0000
ENDCHAR

STARTCHAR t
ENCODING 116
SWIDTH 357 0
DWIDTH 10 0
BBX 10 30 0 -8
BITMAP
0000
0000
0000
0000
0000
0600
0600
0C00
7F00
7F00
1800
1800
3000
3000
3000
6000
6000
6000
6400
CC00
F800
7000
0000
0000
0000
0000
0000
0000
0000
0000
ENDCHAR

STARTCHAR u
ENCODING 117
SWIDTH 607 0
DWIDTH 17 0
BBX 17 30 0 -8
BITMAP
000000
000000
000000
000000
000000
000000
000000
000000
380C00
7C1800
CC1800
8C1800
183000
183000
183000
306000
306000
30E000
71E600
636600
7E6C00
3C7800
000000
000000
000000
000000
000000
000000
000000
000000
ENDCHAR

STARTCHAR v
ENCODING 118
SWIDTH 500 0
DWIDTH 14 0
BBX 14 30 0 -8
BITMAP
0000
0000
0000
0000
0000
0000
0000
0000
0470
6C70
FC30
8C30
0C30
1830
1830
3060
3060
60C0
60C0
6180
7F00
3E00
0000
0000
0000
0000
0000
0000
0000
0000
ENDCHAR

STARTCHAR w
ENCODING 119
SWIDTH 714 0
DWIDTH 20 0
BBX 20 30 0 -8
BITMAP
000000
000000
000000
000000
000000
000000
000000
000000
060180
662180
FC6180
8C6180
186180
186180
306180
30C300
30C300
60C300
61C600
61C600
7EFC00
3C7800
000000
000000
000000
000000
000000
000000
000000
000000
ENDCHAR

STARTCHAR x
ENCODING 120
SWIDTH 535 0
DWIDTH 15 0
BBX 15 30 0 -8
BITMAP
0000
0000
0000
0000
0000
0000
0000
0000
3018
7838
D878
CCD8
0D80
0F00
0700
0600
0600
0F00
DB30
F1B0
E1E0
C0C0
0000
0000
0000
0000
0000
0000
0000
0000
ENDCHAR

STARTCHAR y
ENCODING 121
SWIDTH 464 0
DWIDTH 13 0
BBX 13 30 0 -8
BITMAP
0000
0000
0000
0000
0000
0000
0000
0000
31C0
78C0
D860
DC60
CC60
CC60
CC60
0660
0660
06C0
06C0
06C0
0780
0380
0700
0600
0600
0C00
1800
3000
E000
C000
ENDCHAR

STARTCHAR z
ENCODING 122
SWIDTH 464 0
DWIDTH 13 0
BBX 13 30 0 -8
BITMAP
0000
0000
0000
0000
0000
0000
0000
0000
1860
3E60
67C0
60C0
0180
0300
0600
0C00
0C00
1800
3000
7E60
67C0
C380
0000
0000
0000
0000
0000
0000
0000
0000
ENDCHAR

STARTCHAR {
ENCODING 123
SWIDTH 392 0
DWIDTH 11 0
BBX 11 30 0 -8
BITMAP
0000
0000
0F00
1C00
3000
3000
3000
3800
1800
1800
1800
1000
2000
6000
E000
6000
2000
1000
1800
1800
1800
3800
3000
3000
3000
1C00
0F00
0000
0000
0000
ENDCHAR

STARTCHAR |
ENCODING 124
SWIDTH 214 0
DWIDTH 6 0
BBX 6 30 0 -8
BITMAP
00
00
C0
C0
C0
C0
C0
C0
C0
C0
C0
C0
C0
C0
C0
C0
C0
C0
C0
C0
C0
C0
C0
C0
C0
C0
C0
00
00
00
ENDCHAR

STARTCHAR }
ENCODING 125
SWIDTH 392 0
DWIDTH 11 0
BBX 11 30 0 -8
BITMAP
0000
0000
F000
3800
0C00
0C00
0C00
1C00
1800
1800
1800
0800
0400
0600
0700
0600
0400
0800
1800
1800
1800
1C00
0C00
0C00
0C00
3800
F000
0000
0000
0000
ENDCHAR

STARTCHAR ~
ENCODING 126
SWIDTH 607 0
DWIDTH 17 0
BBX 17 30 0 -8
BITMAP
000000
000000
000000
000000
000000
000000
000000
000000
000000
000000
1C0400
3E0400
7F0C00
679800
C3F800
81F000
80E000
000000
000000
000000
000000
000000
000000
000000
000000
000000
000000
000000
000000
000000
ENDCHAR

ENDFONT
