STARTFONT 2.1
FONT vsgn-57
SIZE 54 75 75
FONTBOUNDINGBOX 95 57 0 -7

STARTPROPERTIES 10
COPYRIGHT "Public domain font.  Share and enjoy."
POINT_SIZE 540
WEIGHT 10
RESOLUTION_X 75
RESOLUTION_Y 75
X_HEIGHT 50
QUAD_WIDTH 50
DEFAULT_CHAR 0
FONT_DESCENT 7
FONT_ASCENT 50
ENDPROPERTIES

CHARS 51

STARTCHAR C030
ENCODING 24
SWIDTH 833 0
DWIDTH 45 0
BBX 45 57 0 -7
BITMAP
000000000000
000000000000
000000000000
000000000000
000000000000
000000000000
000000000000
000000800000
000001800000
000003800000
000007800000
00001F800000
00003F800000
0000FF800000
0001FF800000
0007FF800000
001FFFFFFF00
007FFFFFFF00
01FFFFFFFF00
07FFFFFFFF00
3C0000000000
E00000000000
E00000000000
3C0000000000
07FFFFFFFF00
01FFFFFFFF00
007FFFFFFF00
001FFFFFFF00
0007FF800000
0001FF800000
0000FF800000
00003F800000
00001F800000
000007800000
000003800000
000001800000
000000800000
000000000000
000000000000
000000000000
000000000000
000000000000
000000000000
000000000000
000000000000
000000000000
000000000000
000000000000
000000000000
000000000000
000000000000
000000000000
000000000000
000000000000
000000000000
000000000000
000000000000
ENDCHAR

STARTCHAR C031
ENCODING 25
SWIDTH 833 0
DWIDTH 45 0
BBX 45 57 0 -7
BITMAP
000000000000
000000000000
000000000000
000000000000
000000000000
000000000000
000000000000
000100000000
000180000000
0001C0000000
0001E0000000
0001F8000000
0001FC000000
0001FF000000
0001FF800000
0001FFE00000
FFFFFFF80000
FFFFFFFE0000
FFFFFFFF8000
FFFFFFFFE000
000000003C00
000000000700
000000000700
000000003C00
FFFFFFFFE000
FFFFFFFF8000
FFFFFFFE0000
FFFFFFF80000
0001FFE00000
0001FF800000
0001FF000000
0001FC000000
0001F8000000
0001E0000000
0001C0000000
000180000000
000100000000
000000000000
000000000000
000000000000
000000000000
000000000000
000000000000
000000000000
000000000000
000000000000
000000000000
000000000000
000000000000
000000000000
000000000000
000000000000
000000000000
000000000000
000000000000
000000000000
000000000000
ENDCHAR

STARTCHAR C040
ENCODING 32
SWIDTH 740 0
DWIDTH 40 0
BBX 40 57 0 -7
BITMAP
0000000000
0000000000
0000000000
0000000000
0000000000
0000000000
0000000000
0000000000
0000000000
0000000000
0000000000
0000000000
0000000000
0000000000
0000000000
0000000000
0000000000
0000000000
0000000000
0000000000
0000000000
0000000000
0000000000
0000000000
0000000000
0000000000
0000000000
0000000000
0000000000
0000000000
0000000000
0000000000
0000000000
0000000000
0000000000
0000000000
0000000000
0000000000
0000000000
0000000000
0000000000
0000000000
0000000000
0000000000
0000000000
0000000000
0000000000
0000000000
0000000000
0000000000
0000000000
0000000000
0000000000
0000000000
0000000000
0000000000
0000000000
ENDCHAR

STARTCHAR !
ENCODING 33
SWIDTH 370 0
DWIDTH 20 0
BBX 20 57 0 -7
BITMAP
0FC000
1FE000
3FF000
7FF800
FFFC00
FFFC00
FFFC00
FFFC00
FFFC00
FFFC00
FFFC00
FFFC00
7FF800
7FF800
7FF800
7FF800
7FF800
7FF800
7FF800
3FF000
3FF000
3FF000
3FF000
3FF000
3FF000
3FF000
1FE000
1FE000
1FE000
1FE000
1FE000
1FE000
1FE000
1FE000
0FC000
078000
000000
000000
000000
078000
0FC000
186000
387000
387000
387000
387000
186000
0FC000
078000
000000
000000
000000
000000
000000
000000
000000
000000
ENDCHAR

STARTCHAR '
ENCODING 39
SWIDTH 259 0
DWIDTH 14 0
BBX 14 57 0 -7
BITMAP
FFC0
FFC0
E1C0
E1C0
E1C0
E1C0
E1C0
E1C0
FFC0
FFC0
1E00
1E00
1E00
1E00
0C00
0C00
0C00
0C00
0000
0000
0000
0000
0000
0000
0000
0000
0000
0000
0000
0000
0000
0000
0000
0000
0000
0000
0000
0000
0000
0000
0000
0000
0000
0000
0000
0000
0000
0000
0000
0000
0000
0000
0000
0000
0000
0000
0000
ENDCHAR

STARTCHAR *
ENCODING 42
SWIDTH 500 0
DWIDTH 27 0
BBX 27 57 0 -7
BITMAP
00000000
00000000
00000000
00000000
00000000
00000000
00000000
00000000
00000000
00000000
00000000
00000000
00000000
00000000
00000000
00F00000
00F00000
00F00000
00600000
E0607000
F060F000
FC63F000
0E670000
036C0000
01F80000
01F80000
036C0000
0E670000
FC63F000
F060F000
E0607000
00600000
00F00000
00F00000
00F00000
00000000
00000000
00000000
00000000
00000000
00000000
00000000
00000000
00000000
00000000
00000000
00000000
00000000
00000000
00000000
00000000
00000000
00000000
00000000
00000000
00000000
00000000
ENDCHAR

STARTCHAR ,
ENCODING 44
SWIDTH 259 0
DWIDTH 14 0
BBX 14 57 0 -7
BITMAP
0000
0000
0000
0000
0000
0000
0000
0000
0000
0000
0000
0000
0000
0000
0000
0000
0000
0000
0000
0000
0000
0000
0000
0000
0000
0000
0000
0000
0000
0000
0000
0000
0000
0000
0000
0000
0000
0000
0000
0000
FFC0
FFC0
E1C0
E1C0
E1C0
E1C0
E1C0
E1C0
FFC0
FFC0
03C0
03C0
0180
0180
0300
0600
0C00
ENDCHAR

STARTCHAR -
ENCODING 45
SWIDTH 462 0
DWIDTH 25 0
BBX 25 57 0 -7
BITMAP
00000000
00000000
00000000
00000000
00000000
00000000
00000000
00000000
00000000
00000000
00000000
00000000
00000000
00000000
00000000
00000000
00000000
00000000
00000000
00000000
00000000
00000000
FFFF8000
FFFF8000
FFFF8000
FFFF8000
00000000
00000000
00000000
00000000
00000000
00000000
00000000
00000000
00000000
00000000
00000000
00000000
00000000
00000000
00000000
00000000
00000000
00000000
00000000
00000000
00000000
00000000
00000000
00000000
00000000
00000000
00000000
00000000
00000000
00000000
00000000
ENDCHAR

STARTCHAR .
ENCODING 46
SWIDTH 259 0
DWIDTH 14 0
BBX 14 57 0 -7
BITMAP
0000
0000
0000
0000
0000
0000
0000
0000
0000
0000
0000
0000
0000
0000
0000
0000
0000
0000
0000
0000
0000
0000
0000
0000
0000
0000
0000
0000
0000
0000
0000
0000
0000
0000
0000
0000
0000
0000
0000
0000
1E00
3F00
6180
E1C0
E1C0
E1C0
E1C0
6180
3F00
1E00
0000
0000
0000
0000
0000
0000
0000
ENDCHAR

STARTCHAR /
ENCODING 47
SWIDTH 685 0
DWIDTH 37 0
BBX 37 57 0 -7
BITMAP
0000007800
000000F000
000000F000
000001E000
000001E000
000003C000
000003C000
0000078000
0000078000
00000F0000
00000F0000
00001E0000
00001E0000
00003C0000
00003C0000
0000780000
0000780000
0000F00000
0000F00000
0001E00000
0001E00000
0003C00000
0003C00000
0007800000
0007800000
000F000000
000F000000
001E000000
001E000000
003C000000
003C000000
0078000000
0078000000
00F0000000
00F0000000
01E0000000
01E0000000
03C0000000
03C0000000
0780000000
0780000000
0F00000000
0F00000000
1E00000000
1E00000000
3C00000000
3C00000000
7800000000
7800000000
F000000000
0000000000
0000000000
0000000000
0000000000
0000000000
0000000000
0000000000
ENDCHAR

STARTCHAR 0
ENCODING 48
SWIDTH 925 0
DWIDTH 50 0
BBX 50 57 0 -7
BITMAP
00FFFFFC000000
01FFFFFE000000
03FFFFFF000000
07C0001F800000
0F80001FC00000
1F00003BE00000
3E000079F00000
7C000070F80000
F80000E0FC0000
F00001E0FE0000
F00001C1FE0000
F0000381DE0000
F00007839E0000
F00007079E0000
F0000E071E0000
F0001E0E1E0000
F0001C1E1E0000
F000381C1E0000
F00078381E0000
F00070781E0000
F000E0701E0000
F001E0E01E0000
F001C1E01E0000
F00381C01E0000
F00783801E0000
F00707801E0000
F00E07001E0000
F01E0E001E0000
F01C1E001E0000
F0381C001E0000
F07838001E0000
F07078001E0000
F0E070001E0000
F1E0E0001E0000
F1C1E0001E0000
F381C0001E0000
F78380001E0000
F70780001E0000
F60700001E0000
FE0E00001E0000
FC1E00003E0000
FC1C00007C0000
7C380000F80000
3E780001F00000
1FF00003E00000
0FE00007C00000
07E0000F800000
03FFFFFF000000
01FFFFFE000000
00FFFFFC000000
00000000000000
00000000000000
00000000000000
00000000000000
00000000000000
00000000000000
00000000000000
ENDCHAR

STARTCHAR 1
ENCODING 49
SWIDTH 925 0
DWIDTH 50 0
BBX 50 57 0 -7
BITMAP
00040000000000
00040000000000
000C0000000000
000C0000000000
001C0000000000
003C0000000000
007C0000000000
00FC0000000000
01FC0000000000
03FC0000000000
0FDC0000000000
3F9C0000000000
FF1C0000000000
071C0000000000
071C0000000000
071C0000000000
071C0000000000
071C0000000000
071C0000000000
071C0000000000
071C0000000000
071C0000000000
071C0000000000
071C0000000000
071C0000000000
071C0000000000
071C0000000000
071C0000000000
071C0000000000
071C0000000000
071C0000000000
071C0000000000
071C0000000000
071C0000000000
071C0000000000
071C0000000000
071C0000000000
071C0000000000
071C0000000000
071C0000000000
071C0000000000
071C0000000000
071C0000000000
071C0000000000
071C0000000000
071C0000000000
071C0000000000
FFFFE000000000
FFFFE000000000
FFFFE000000000
00000000000000
00000000000000
00000000000000
00000000000000
00000000000000
00000000000000
00000000000000
ENDCHAR

STARTCHAR 2
ENCODING 50
SWIDTH 925 0
DWIDTH 50 0
BBX 50 57 0 -7
BITMAP
003FFFF0000000
007FFFF8000000
00FFFFFC000000
01FFFFFE000000
03E0001F000000
07C0000F800000
0F800007C00000
1F000003E00000
3E000001F00000
7C000000F80000
F80000007C0000
F00000003C0000
E00000007C0000
C0000000FC0000
80000001FC0000
80000003DC0000
000000079C0000
0000000F1C0000
0000001E1C0000
0000003C3C0000
00000078780000
000000F0F00000
000001E1E00000
000003C3C00000
00000787800000
00000F0F000000
00001E1E000000
00003C3C000000
00007878000000
0000F0F0000000
0001E1E0000000
0003C3C0000000
00078780000000
000F0F00000000
001E1E00000000
003C3C00000000
00787800000000
00F0F000000000
01E1E000000000
03C3C000000000
07878000000000
0F0F0000000000
1E1E0000000000
3C3C0000000000
78780000000000
F0F00000000000
FFFFFFFFFC0000
FFFFFFFFFC0000
FFFFFFFFFC0000
FFFFFFFFFC0000
00000000000000
00000000000000
00000000000000
00000000000000
00000000000000
00000000000000
00000000000000
ENDCHAR

STARTCHAR 3
ENCODING 51
SWIDTH 925 0
DWIDTH 50 0
BBX 50 57 0 -7
BITMAP
01FFFFF8000000
03FFFFFE000000
07FFFFFF800000
0F00000FC00000
1E00000FE00000
3C00000EF00000
7800000E780000
F000000E380000
E000000E380000
C000000E380000
8000000E380000
8000000E380000
0000000E380000
0000000E380000
0000000E380000
0000000E380000
0000000E380000
0000000E380000
0000000E380000
0000000E780000
0000000EF00000
0000000FE00000
0000000FC00000
0000FFFF800000
0001FFFF000000
0001FFFF000000
0000FFFF800000
0000000FC00000
0000000FE00000
0000000EF00000
0000000E780000
0000000E380000
0000000E380000
0000000E380000
0000000E380000
0000000E380000
0000000E380000
0000000E380000
8000000E380000
8000000E380000
C000000E380000
E000000E380000
F000000E380000
7800000E780000
3C00000EF00000
1E00000FE00000
0F00000FC00000
07FFFFFF800000
03FFFFFE000000
01FFFFF8000000
00000000000000
00000000000000
00000000000000
00000000000000
00000000000000
00000000000000
00000000000000
ENDCHAR

STARTCHAR 4
ENCODING 52
SWIDTH 925 0
DWIDTH 50 0
BBX 50 57 0 -7
BITMAP
00000FFC000000
00001FFC000000
00003FFC000000
00003F1C000000
00007F1C000000
0000FF1C000000
0000F71C000000
0001E71C000000
0003C71C000000
0003C71C000000
0007871C000000
000F071C000000
000F071C000000
001E071C000000
003C071C000000
003C071C000000
0078071C000000
00F0071C000000
00F0071C000000
01E0071C000000
03C0071C000000
03C0071C000000
0780071C000000
0F00071C000000
0F00071C000000
1E00071C000000
3C00071C000000
3C00071C000000
7800071C000000
F000071C000000
FFFFFFFFFC0000
FFFFFFFFFC0000
FFFFFFFFFC0000
FFFFFFFFFC0000
0000071C000000
0000071C000000
0000071C000000
0000071C000000
0000071C000000
0000071C000000
0000071C000000
0000071C000000
0000071C000000
0000071C000000
0000071C000000
0000071C000000
0000071C000000
0000FFFFE00000
0000FFFFE00000
0000FFFFE00000
00000000000000
00000000000000
00000000000000
00000000000000
00000000000000
00000000000000
00000000000000
ENDCHAR

STARTCHAR 5
ENCODING 53
SWIDTH 925 0
DWIDTH 50 0
BBX 50 57 0 -7
BITMAP
7FFFFFFF800000
7FFFFFFF800000
7FFFFFFF800000
71C00000000000
71C00000000000
71C00000000000
71C00000000000
71C00000000000
71C00000000000
71C00000000000
71C00000000000
71C00000000000
71C00000000000
71C00000000000
71C00000000000
71CFFE00000000
71FFFFC0000000
71FFFFF0000000
73F001FC000000
77C0007E000000
7F00001F000000
7C00000F800000
78000007800000
70000003C00000
60000001C00000
40000001E00000
00000000E00000
00000000F00000
00000000700000
00000000700000
00000000700000
00000000700000
00000000700000
00000000700000
00000000700000
00000000700000
00000000700000
00000000700000
E0000000F00000
F0000000E00000
F0000001E00000
70000001C00000
38000003800000
3C000007800000
1E00000F000000
0F80003E000000
07E000FC000000
01FFFFF0000000
00FFFF80000000
001FFE00000000
00000000000000
00000000000000
00000000000000
00000000000000
00000000000000
00000000000000
00000000000000
ENDCHAR

STARTCHAR 6
ENCODING 54
SWIDTH 925 0
DWIDTH 50 0
BBX 50 57 0 -7
BITMAP
03FFFFFC000000
07FFFFFE000000
0FFFFFFF000000
1F00000F800000
3E000007C00000
7C000003E00000
F8000001F00000
F0000000F80000
E0000000780000
E0000000380000
E0000000180000
E0000000080000
E0000000080000
E0000000000000
E0000000000000
E0000000000000
E0000000000000
E0000000000000
E0000000000000
E0000000000000
E0000000000000
E0000000000000
E0000000000000
E0FFFFF8000000
E3FFFFFC000000
EFFFFFFE000000
FFFFFFFF000000
FF800007800000
FB800003C00000
F3800001E00000
E3800000F00000
E3800000780000
E3800000380000
E3800000380000
E3800000380000
E3800000380000
E3800000380000
E3800000380000
E3800000380000
E3800000380000
E3800000380000
E3800000380000
E3800000780000
F3800000F00000
7B800001E00000
3F800003C00000
1F800007800000
0FFFFFFF000000
03FFFFFE000000
00FFFFFC000000
00000000000000
00000000000000
00000000000000
00000000000000
00000000000000
00000000000000
00000000000000
ENDCHAR

STARTCHAR 7
ENCODING 55
SWIDTH 925 0
DWIDTH 50 0
BBX 50 57 0 -7
BITMAP
FFFFFFFFFC0000
FFFFFFFFFC0000
FFFFFFFFFC0000
F80000000C0000
F00000001C0000
E00000003C0000
C0000000780000
C0000000F00000
80000001E00000
80000003C00000
00000007800000
0000000F000000
0000001E000000
0000003C000000
00000078000000
000000F0000000
000001E0000000
000003C0000000
00000780000000
00000F00000000
00001E00000000
00003E00000000
00007E00000000
0000FE00000000
0001EE00000000
0003CE00000000
00038E00000000
00038E00000000
00038E00000000
00038E00000000
00038E00000000
00038E00000000
00038E00000000
00038E00000000
00038E00000000
00038E00000000
00038E00000000
00038E00000000
00038E00000000
00038E00000000
00038E00000000
00038E00000000
00038E00000000
00038E00000000
00038E00000000
00038E00000000
00038E00000000
007FFFF0000000
007FFFF0000000
007FFFF0000000
00000000000000
00000000000000
00000000000000
00000000000000
00000000000000
00000000000000
00000000000000
ENDCHAR

STARTCHAR 8
ENCODING 56
SWIDTH 925 0
DWIDTH 50 0
BBX 50 57 0 -7
BITMAP
00FFFFFC000000
03FFFFFE000000
0FFFFFFF000000
1F80000F800000
3F800007C00000
7B800003E00000
F3800001F00000
E3800000F80000
E3800000780000
E3800000380000
E3800000380000
E3800000380000
E3800000380000
E3800000380000
E3800000380000
E3800000380000
E3800000380000
E3800000380000
E3800000780000
F3800000F00000
7B800001E00000
3F800003C00000
1F800007800000
0FFFFFFF000000
07FFFFFE000000
07FFFFFE000000
0FFFFFFF000000
1F800007800000
3F800003C00000
7B800001E00000
F3800000F00000
E3800000780000
E3800000380000
E3800000380000
E3800000380000
E3800000380000
E3800000380000
E3800000380000
E3800000380000
E3800000380000
E3800000380000
E3800000380000
E3800000780000
F3800000F00000
7B800001E00000
3F800003C00000
1F800007800000
0FFFFFFF000000
03FFFFFE000000
00FFFFFC000000
00000000000000
00000000000000
00000000000000
00000000000000
00000000000000
00000000000000
00000000000000
ENDCHAR

STARTCHAR 9
ENCODING 57
SWIDTH 925 0
DWIDTH 50 0
BBX 50 57 0 -7
BITMAP
01FFFFF8000000
03FFFFFE000000
07FFFFFF800000
0F00000FC00000
1E00000FE00000
3C00000EF00000
7800000E780000
F000000E380000
E000000E380000
E000000E380000
E000000E380000
E000000E380000
E000000E380000
E000000E380000
E000000E380000
E000000E380000
E000000E380000
E000000E380000
F000000E380000
7800000E380000
3C00000E780000
1E00000EF80000
0F00000FF80000
07FFFFFFF80000
03FFFFFFB80000
01FFFFFE380000
00FFFFF8380000
00000000380000
00000000380000
00000000380000
00000000380000
00000000380000
00000000380000
00000000380000
00000000380000
00000000380000
00000000380000
80000000380000
80000000380000
C0000000380000
E0000000380000
F0000000380000
F8000000780000
7C000000F80000
3E000001F00000
1F000003E00000
0F800007C00000
07FFFFFF800000
03FFFFFF000000
01FFFFFE000000
00000000000000
00000000000000
00000000000000
00000000000000
00000000000000
00000000000000
00000000000000
ENDCHAR

STARTCHAR :
ENCODING 58
SWIDTH 259 0
DWIDTH 14 0
BBX 14 57 0 -7
BITMAP
0000
0000
0000
0000
0000
0000
0000
0000
0000
0000
0000
0000
0000
0000
0000
0000
1E00
3F00
6180
E1C0
E1C0
E1C0
E1C0
6180
3F00
1E00
0000
0000
0000
0000
0000
0000
0000
0000
0000
1E00
3F00
6180
E1C0
E1C0
E1C0
E1C0
6180
3F00
1E00
0000
0000
0000
0000
0000
0000
0000
0000
0000
0000
0000
0000
ENDCHAR

STARTCHAR ;
ENCODING 59
SWIDTH 259 0
DWIDTH 14 0
BBX 14 57 0 -7
BITMAP
0000
0000
0000
0000
0000
0000
0000
0000
0000
0000
0000
0000
0000
0000
0000
0000
0000
0000
0000
0000
0000
1E00
3F00
6180
E1C0
E1C0
E1C0
E1C0
6180
3F00
1E00
0000
0000
0000
0000
0000
0000
0000
0000
0000
FFC0
FFC0
E1C0
E1C0
E1C0
E1C0
E1C0
E1C0
FFC0
FFC0
03C0
03C0
0180
0180
0300
0600
0C00
ENDCHAR

STARTCHAR =
ENCODING 61
SWIDTH 462 0
DWIDTH 25 0
BBX 25 57 0 -7
BITMAP
00000000
00000000
00000000
00000000
00000000
00000000
00000000
00000000
00000000
00000000
00000000
00000000
00000000
00000000
00000000
00000000
FFFFFF80
FFFFFF80
FFFFFF80
FFFFFF80
00000000
00000000
00000000
00000000
FFFFFF80
FFFFFF80
FFFFFF80
FFFFFF80
00000000
00000000
00000000
00000000
00000000
00000000
00000000
00000000
00000000
00000000
00000000
00000000
00000000
00000000
00000000
00000000
00000000
00000000
00000000
00000000
00000000
00000000
00000000
00000000
00000000
00000000
00000000
00000000
00000000
ENDCHAR

STARTCHAR A
ENCODING 65
SWIDTH 1111 0
DWIDTH 60 0
BBX 60 57 0 -7
BITMAP
00000FFC00000000
00000FFC00000000
00001FFE00000000
000018E600000000
000018E600000000
000038E700000000
000030E700000000
000031C700000000
000071C780000000
000061C380000000
0000618380000000
0000E383C0000000
0000C381C0000000
0000C301C0000000
0001C701E0000000
00018700E0000000
00018600E0000000
00038E00F0000000
00030E0070000000
00030C0070000000
00071C0078000000
00061C0038000000
0006180038000000
000E38003C000000
000C38001C000000
000C30001C000000
001C70001E000000
001870000E000000
001860000E000000
0038FFFFFF000000
0030FFFFFF000000
0030FFFFFF000000
0071FFFFFF800000
0061800003800000
0061800003800000
00E3800003C00000
00C3000001C00000
00C3000001C00000
01C7000001E00000
0186000000E00000
0186000000E00000
038E000000F00000
030C000000700000
030C000000700000
071C000000780000
0618000000380000
0618000000380000
FFFFC00007FFC000
FFFFC00007FFC000
FFFFC00007FFC000
0000000000000000
0000000000000000
0000000000000000
0000000000000000
0000000000000000
0000000000000000
0000000000000000
ENDCHAR

STARTCHAR B
ENCODING 66
SWIDTH 925 0
DWIDTH 50 0
BBX 50 57 0 -7
BITMAP
FFFFFFFF000000
FFFFFFFFC00000
FFFFFFFFF00000
071C0003F80000
071C0000FC0000
071C00003E0000
071C00001F0000
071C00000F0000
071C0000078000
071C0000078000
071C000003C000
071C000003C000
071C000003C000
071C000003C000
071C000003C000
071C000003C000
071C0000078000
071C0000078000
071C00000F0000
071C00001F0000
071C00003E0000
071C0000FC0000
071C0003F80000
071FFFFFE00000
071FFFFFC00000
071FFFFFC00000
071FFFFFE00000
071C0003F80000
071C0000FC0000
071C00003E0000
071C00001F0000
071C00000F0000
071C0000078000
071C0000078000
071C000003C000
071C000003C000
071C000003C000
071C000003C000
071C000003C000
071C000003C000
071C0000078000
071C0000078000
071C00000F0000
071C00001F0000
071C00003E0000
071C0000FC0000
071C0003F80000
FFFFFFFFF00000
FFFFFFFFC00000
FFFFFFFF000000
00000000000000
00000000000000
00000000000000
00000000000000
00000000000000
00000000000000
00000000000000
ENDCHAR

STARTCHAR C
ENCODING 67
SWIDTH 870 0
DWIDTH 47 0
BBX 47 57 0 -7
BITMAP
00FFFFFF0000
01FFFFFF8000
03FFFFFFC000
07E00003E000
0FC00001F000
1F800000F800
3F8000007C00
7F8000003C00
FB8000001C00
F38000000C00
E38000000C00
E38000000400
E38000000400
E38000000000
E38000000000
E38000000000
E38000000000
E38000000000
E38000000000
E38000000000
E38000000000
E38000000000
E38000000000
E38000000000
E38000000000
E38000000000
E38000000000
E38000000000
E38000000000
E38000000000
E38000000000
E38000000000
E38000000000
E38000000000
E38000000000
E38000000000
E38000000000
E38000000400
E38000000400
E38000000C00
F38000000C00
FB8000001C00
7F8000003C00
3F8000007C00
1F800000F800
0FC00001F000
07E00003E000
03FFFFFFC000
01FFFFFF8000
00FFFFFF0000
000000000000
000000000000
000000000000
000000000000
000000000000
000000000000
000000000000
ENDCHAR

STARTCHAR D
ENCODING 68
SWIDTH 925 0
DWIDTH 50 0
BBX 50 57 0 -7
BITMAP
FFFFFFFF000000
FFFFFFFFC00000
FFFFFFFFF00000
071C0003F80000
071C0000FC0000
071C00003E0000
071C00001F0000
071C00000F0000
071C0000078000
071C0000078000
071C000003C000
071C000003C000
071C000003C000
071C000003C000
071C000003C000
071C000003C000
071C000003C000
071C000003C000
071C000003C000
071C000003C000
071C000003C000
071C000003C000
071C000003C000
071C000003C000
071C000003C000
071C000003C000
071C000003C000
071C000003C000
071C000003C000
071C000003C000
071C000003C000
071C000003C000
071C000003C000
071C000003C000
071C000003C000
071C000003C000
071C000003C000
071C000003C000
071C000003C000
071C000003C000
071C0000078000
071C0000078000
071C00000F0000
071C00001F0000
071C00003E0000
071C0000FC0000
071C0003F80000
FFFFFFFFF00000
FFFFFFFFC00000
FFFFFFFF000000
00000000000000
00000000000000
00000000000000
00000000000000
00000000000000
00000000000000
00000000000000
ENDCHAR

STARTCHAR E
ENCODING 69
SWIDTH 925 0
DWIDTH 50 0
BBX 50 57 0 -7
BITMAP
FFFFFFFFFF8000
FFFFFFFFFF8000
FFFFFFFFFF8000
071C00000F8000
071C0000078000
071C0000038000
071C0000018000
071C0000018000
071C0000008000
071C0000008000
071C0000000000
071C0000000000
071C0000000000
071C0000000000
071C0000000000
071C0000000000
071C0000000000
071C0000000000
071C0000000000
071C0080000000
071C0080000000
071C0180000000
071C0380000000
071FFF80000000
071FFF80000000
071FFF80000000
071FFF80000000
071C0380000000
071C0180000000
071C0080000000
071C0080000000
071C0000000000
071C0000000000
071C0000000000
071C0000000000
071C0000000000
071C0000000000
071C0000000000
071C0000000000
071C0000000000
071C0000008000
071C0000008000
071C0000018000
071C0000018000
071C0000038000
071C0000078000
071C00000F8000
FFFFFFFFFF8000
FFFFFFFFFF8000
FFFFFFFFFF8000
00000000000000
00000000000000
00000000000000
00000000000000
00000000000000
00000000000000
00000000000000
ENDCHAR

STARTCHAR F
ENCODING 70
SWIDTH 925 0
DWIDTH 50 0
BBX 50 57 0 -7
BITMAP
FFFFFFFFFF8000
FFFFFFFFFF8000
FFFFFFFFFF8000
071C00001F8000
071C0000078000
071C0000038000
071C0000018000
071C0000018000
071C0000008000
071C0000008000
071C0000000000
071C0000000000
071C0000000000
071C0000000000
071C0000000000
071C0000000000
071C0000000000
071C0000000000
071C0000000000
071C0080000000
071C0080000000
071C0180000000
071C0380000000
071FFF80000000
071FFF80000000
071FFF80000000
071FFF80000000
071C0380000000
071C0180000000
071C0080000000
071C0080000000
071C0000000000
071C0000000000
071C0000000000
071C0000000000
071C0000000000
071C0000000000
071C0000000000
071C0000000000
071C0000000000
071C0000000000
071C0000000000
071C0000000000
071C0000000000
071C0000000000
071C0000000000
071C0000000000
FFFFE000000000
FFFFE000000000
FFFFE000000000
00000000000000
00000000000000
00000000000000
00000000000000
00000000000000
00000000000000
00000000000000
ENDCHAR

STARTCHAR G
ENCODING 71
SWIDTH 870 0
DWIDTH 47 0
BBX 47 57 0 -7
BITMAP
00FFFFFF0000
01FFFFFF8000
03FFFFFFC000
07E00003E000
0FC00001F000
1F800000F800
3F8000007C00
7F8000003C00
FB8000001C00
F38000000C00
E38000000C00
E38000000400
E38000000400
E38000000000
E38000000000
E38000000000
E38000000000
E38000000000
E38000000000
E38000000000
E38000000000
E38000000000
E38000000000
E38000000000
E38000000000
E38000000000
E38000000000
E38000000000
E38003FFFC00
E38003FFFC00
E38003FFFC00
E38003FFFC00
E38000003C00
E38000003C00
E38000003C00
E38000003C00
E38000003C00
E38000003C00
E38000003C00
E38000003C00
F38000003C00
FB8000003C00
7F8000003C00
3F8000007C00
1F800000F800
0FC00001F000
07E00003E000
03FFFFFFC000
01FFFFFF8000
00FFFFFF0000
000000000000
000000000000
000000000000
000000000000
000000000000
000000000000
000000000000
ENDCHAR

STARTCHAR H
ENCODING 72
SWIDTH 1037 0
DWIDTH 56 0
BBX 56 57 0 -7
BITMAP
FFFFE0007FFE00
FFFFE0007FFE00
FFFFE0007FFE00
071C000003C000
071C000003C000
071C000003C000
071C000003C000
071C000003C000
071C000003C000
071C000003C000
071C000003C000
071C000003C000
071C000003C000
071C000003C000
071C000003C000
071C000003C000
071C000003C000
071C000003C000
071C000003C000
071C000003C000
071C000003C000
071C000003C000
071C000003C000
071FFFFFFFC000
071FFFFFFFC000
071FFFFFFFC000
071FFFFFFFC000
071C000003C000
071C000003C000
071C000003C000
071C000003C000
071C000003C000
071C000003C000
071C000003C000
071C000003C000
071C000003C000
071C000003C000
071C000003C000
071C000003C000
071C000003C000
071C000003C000
071C000003C000
071C000003C000
071C000003C000
071C000003C000
071C000003C000
071C000003C000
FFFFE0007FFE00
FFFFE0007FFE00
FFFFE0007FFE00
00000000000000
00000000000000
00000000000000
00000000000000
00000000000000
00000000000000
00000000000000
ENDCHAR

STARTCHAR I
ENCODING 73
SWIDTH 500 0
DWIDTH 27 0
BBX 27 57 0 -7
BITMAP
FFFFE000
FFFFE000
FFFFE000
071C0000
071C0000
071C0000
071C0000
071C0000
071C0000
071C0000
071C0000
071C0000
071C0000
071C0000
071C0000
071C0000
071C0000
071C0000
071C0000
071C0000
071C0000
071C0000
071C0000
071C0000
071C0000
071C0000
071C0000
071C0000
071C0000
071C0000
071C0000
071C0000
071C0000
071C0000
071C0000
071C0000
071C0000
071C0000
071C0000
071C0000
071C0000
071C0000
071C0000
071C0000
071C0000
071C0000
071C0000
FFFFE000
FFFFE000
FFFFE000
00000000
00000000
00000000
00000000
00000000
00000000
00000000
ENDCHAR

STARTCHAR J
ENCODING 74
SWIDTH 925 0
DWIDTH 50 0
BBX 50 57 0 -7
BITMAP
000003FFFF8000
000003FFFF8000
000003FFFF8000
0000001C700000
0000001C700000
0000001C700000
0000001C700000
0000001C700000
0000001C700000
0000001C700000
0000001C700000
0000001C700000
0000001C700000
0000001C700000
0000001C700000
0000001C700000
0000001C700000
0000001C700000
0000001C700000
0000001C700000
0000001C700000
0000001C700000
0000001C700000
0000001C700000
0000001C700000
0000001C700000
0000001C700000
0000001C700000
0000001C700000
0000001C700000
0000001C700000
0000001C700000
0000001C700000
0000001C700000
0000001C700000
FFFC001C700000
FFFC001C700000
FFFC001C700000
0780001C700000
0780001CF00000
0780001DE00000
03C0001FC00000
01E0001FC00000
01E0001F800000
00F0001F000000
0070001F000000
0078003E000000
003FFFFC000000
003FFFFC000000
001FFFF8000000
00000000000000
00000000000000
00000000000000
00000000000000
00000000000000
00000000000000
00000000000000
ENDCHAR

STARTCHAR K
ENCODING 75
SWIDTH 1055 0
DWIDTH 57 0
BBX 57 57 0 -7
BITMAP
FFFFE0007FFF0000
FFFFE0007FFF0000
FFFFE0007FFF0000
071C000003C00000
071C000007800000
071C00000F000000
071C00001E000000
071C00003C000000
071C000078000000
071C0000F0000000
071C0001E0000000
071C0003C0000000
071C000780000000
071C000F00000000
071C001E00000000
071C003C00000000
071C007800000000
071C00F000000000
071C01E000000000
071C03C000000000
071C078000000000
071C0F0000000000
071C1E0000000000
071C3C0000000000
071C780000000000
071CF80000000000
071DFC0000000000
071FDE0000000000
071F8F0000000000
071F078000000000
071E03C000000000
071C01E000000000
071C00F000000000
071C007800000000
071C003C00000000
071C001E00000000
071C000F00000000
071C000780000000
071C0003C0000000
071C0001E0000000
071C0000F0000000
071C000078000000
071C00003C000000
071C00001E000000
071C00000F000000
071C000007800000
071C000003C00000
FFFFE0007FFF0000
FFFFE0007FFF0000
FFFFE0007FFF0000
0000000000000000
0000000000000000
0000000000000000
0000000000000000
0000000000000000
0000000000000000
0000000000000000
ENDCHAR

STARTCHAR L
ENCODING 76
SWIDTH 925 0
DWIDTH 50 0
BBX 50 57 0 -7
BITMAP
FFFFE000000000
FFFFE000000000
FFFFE000000000
071C0000000000
071C0000000000
071C0000000000
071C0000000000
071C0000000000
071C0000000000
071C0000000000
071C0000000000
071C0000000000
071C0000000000
071C0000000000
071C0000000000
071C0000000000
071C0000000000
071C0000000000
071C0000000000
071C0000000000
071C0000000000
071C0000000000
071C0000000000
071C0000000000
071C0000000000
071C0000000000
071C0000000000
071C0000000000
071C0000000000
071C0000000000
071C0000000000
071C0000000000
071C0000000000
071C0000000000
071C0000000000
071C0000000000
071C0000000000
071C0000000000
071C0000000000
071C0000000000
071C0000008000
071C0000008000
071C0000018000
071C0000018000
071C0000038000
071C0000078000
071C00000F8000
FFFFFFFFFF8000
FFFFFFFFFF8000
FFFFFFFFFF8000
00000000000000
00000000000000
00000000000000
00000000000000
00000000000000
00000000000000
00000000000000
ENDCHAR

STARTCHAR M
ENCODING 77
SWIDTH 1425 0
DWIDTH 77 0
BBX 77 57 0 -7
BITMAP
FFFFE000000007FFF000
FFFFE000000007FFF000
FFFFE000000007FFF000
071E00000000003E0000
071F00000000007E0000
071F00000000007E0000
071F8000000000FE0000
071F8000000000FE0000
071DC000000001DE0000
071DC000000001DE0000
071CE0000000039E0000
071CE0000000039E0000
071C70000000071E0000
071C70000000071E0000
071C380000000E1E0000
071C380000000E1E0000
071C1C0000001C1E0000
071C1C0000001C1E0000
071C0E000000381E0000
071C0E000000381E0000
071C07000000701E0000
071C07000000701E0000
071C03800000E01E0000
071C03800000E01E0000
071C01C00001C01E0000
071C01C00001C01E0000
071C00E00003801E0000
071C00E00003801E0000
071C00700007001E0000
071C00700007001E0000
071C0038000E001E0000
071C0038000E001E0000
071C001C001C001E0000
071C001C001C001E0000
071C000E0038001E0000
071C000E0038001E0000
071C00070070001E0000
071C00070070001E0000
071C000380E0001E0000
071C000380E0001E0000
071C0001C1C0001E0000
071C0001C1C0001E0000
071C0000E380001E0000
071C0000E380001E0000
071C00007F00001E0000
071C00007F00001E0000
071C00003E00001E0000
FFFFE0003E0003FFF000
FFFFE000000003FFF000
FFFFE000000003FFF000
00000000000000000000
00000000000000000000
00000000000000000000
00000000000000000000
00000000000000000000
00000000000000000000
00000000000000000000
ENDCHAR

STARTCHAR N
ENCODING 78
SWIDTH 1203 0
DWIDTH 65 0
BBX 65 57 0 -7
BITMAP
FFFFE000007FFF0000
FFFFE000007FFF0000
FFFFE000007FFF0000
071E00000001E00000
071F00000001E00000
071F80000001E00000
071FC0000001E00000
071FE0000001E00000
071DF0000001E00000
071CF8000001E00000
071C78000001E00000
071C3C000001E00000
071C3E000001E00000
071C1E000001E00000
071C0F000001E00000
071C0F800001E00000
071C07C00001E00000
071C03E00001E00000
071C01E00001E00000
071C00F00001E00000
071C00F80001E00000
071C007C0001E00000
071C003C0001E00000
071C001E0001E00000
071C001F0001E00000
071C000F8001E00000
071C00078001E00000
071C0003C001E00000
071C0003E001E00000
071C0001F001E00000
071C0000F001E00000
071C00007801E00000
071C00007C01E00000
071C00003E01E00000
071C00001E01E00000
071C00000F01E00000
071C00000F81E00000
071C000007C1E00000
071C000003C1E00000
071C000001E1E00000
071C000001F1E00000
071C000000F9E00000
071C00000079E00000
071C0000003DE00000
071C0000003FE00000
071C0000001FE00000
071C0000000FE00000
FFFFE0000007E00000
FFFFE0000003E00000
FFFFE0000003E00000
000000000000000000
000000000000000000
000000000000000000
000000000000000000
000000000000000000
000000000000000000
000000000000000000
ENDCHAR

STARTCHAR O
ENCODING 79
SWIDTH 925 0
DWIDTH 50 0
BBX 50 57 0 -7
BITMAP
00FFFFFF000000
01FFFFFF800000
03FFFFFFC00000
07E00003E00000
0FC00001F00000
1F800000F80000
3F8000007C0000
7F8000003E0000
FB8000001F0000
F38000000F8000
E3800000078000
E3800000078000
E3800000078000
E3800000078000
E3800000078000
E3800000078000
E3800000078000
E3800000078000
E3800000078000
E3800000078000
E3800000078000
E3800000078000
E3800000078000
E3800000078000
E3800000078000
E3800000078000
E3800000078000
E3800000078000
E3800000078000
E3800000078000
E3800000078000
E3800000078000
E3800000078000
E3800000078000
E3800000078000
E3800000078000
E3800000078000
E3800000078000
E3800000078000
E3800000078000
F38000000F8000
FB8000001F0000
7F8000003E0000
3F8000007C0000
1F800000F80000
0FC00001F00000
07E00003E00000
03FFFFFFC00000
01FFFFFF800000
00FFFFFF000000
00000000000000
00000000000000
00000000000000
00000000000000
00000000000000
00000000000000
00000000000000
ENDCHAR

STARTCHAR P
ENCODING 80
SWIDTH 925 0
DWIDTH 50 0
BBX 50 57 0 -7
BITMAP
FFFFFFFF000000
FFFFFFFFC00000
FFFFFFFFF00000
071C0003F80000
071C0000FC0000
071C00003E0000
071C00001F0000
071C00000F0000
071C0000078000
071C0000078000
071C000003C000
071C000003C000
071C000003C000
071C000003C000
071C000003C000
071C000003C000
071C0000078000
071C0000078000
071C00000F0000
071C00001F0000
071C00003E0000
071C0000FC0000
071C0003F80000
071FFFFFE00000
071FFFFFC00000
071FFFFF000000
071FFFFC000000
071C0000000000
071C0000000000
071C0000000000
071C0000000000
071C0000000000
071C0000000000
071C0000000000
071C0000000000
071C0000000000
071C0000000000
071C0000000000
071C0000000000
071C0000000000
071C0000000000
071C0000000000
071C0000000000
071C0000000000
071C0000000000
071C0000000000
071C0000000000
FFFFF000000000
FFFFF000000000
FFFFF000000000
00000000000000
00000000000000
00000000000000
00000000000000
00000000000000
00000000000000
00000000000000
ENDCHAR

STARTCHAR Q
ENCODING 81
SWIDTH 925 0
DWIDTH 50 0
BBX 50 57 0 -7
BITMAP
00FFFFFF000000
01FFFFFF800000
03FFFFFFC00000
07E00003E00000
0FC00001F00000
1F800000F80000
3F8000007C0000
7F8000003E0000
FB8000001F0000
F38000000F8000
E3800000078000
E3800000078000
E3800000078000
E3800000078000
E3800000078000
E3800000078000
E3800000078000
E3800000078000
E3800000078000
E3800000078000
E3800000078000
E3800000078000
E3800000078000
E3800000078000
E3800000078000
E3800000078000
E3800000078000
E3800000078000
E3800000078000
E3800000078000
E3800000078000
E3800000078000
E3800000078000
E3800000078000
E3800000078000
E3800000078000
E3800000078000
E3800078078000
E380003C078000
E380001E078000
F380000F0F8000
FB8000079F0000
7F800003FE0000
3F800001FC0000
1F800000F80000
0FC00001F80000
07E00003FC0000
03FFFFFFDE0000
01FFFFFF8F0000
00FFFFFF078000
0000000003C000
0000000001E000
00000000000000
00000000000000
00000000000000
00000000000000
00000000000000
ENDCHAR

STARTCHAR R
ENCODING 82
SWIDTH 925 0
DWIDTH 50 0
BBX 50 57 0 -7
BITMAP
FFFFFFFF000000
FFFFFFFFC00000
FFFFFFFFF00000
071C0003F80000
071C0000FC0000
071C00003E0000
071C00001F0000
071C00000F0000
071C0000078000
071C0000078000
071C000003C000
071C000003C000
071C000003C000
071C000003C000
071C000003C000
071C000003C000
071C0000078000
071C0000078000
071C00000F0000
071C00001F0000
071C00003E0000
071C0000FC0000
071C0003F80000
071FFFFFE00000
071FFFFFC00000
071FFFFF800000
071FFFFFE00000
071C0003F00000
071C0001F80000
071C00007C0000
071C00003C0000
071C00001E0000
071C00001E0000
071C00000F0000
071C00000F0000
071C00000F0000
071C00000F0000
071C00000F0000
071C00000F0000
071C00000F0000
071C00000F0000
071C00000F0000
071C00000F0000
071C00000F0000
071C00000F0000
071C00000F0000
071C00000F0000
FFFFF0000F8000
FFFFF0000FC000
FFFFF0000FF000
00000000000000
00000000000000
00000000000000
00000000000000
00000000000000
00000000000000
00000000000000
ENDCHAR

STARTCHAR S
ENCODING 83
SWIDTH 851 0
DWIDTH 46 0
BBX 46 57 0 -7
BITMAP
00FFFFFC0000
03FFFFFE0000
0FFFFFFF0000
1F80000F8000
3F800007C000
7B800003E000
F3800001F000
E3800000F800
E38000007800
E38000003800
E38000001800
E38000001800
E38000000800
E38000000800
E38000000000
E38000000000
E38000000000
E38000000000
E38000000000
F38000000000
7B8000000000
3F8000000000
1F8000000000
0FFFFFF80000
07FFFFFC0000
01FFFFFF0000
00FFFFFF8000
0000000FC000
0000000FE000
0000000EF000
0000000E7800
0000000E3800
0000000E3800
0000000E3800
0000000E3800
0000000E3800
8000000E3800
8000000E3800
C000000E3800
C000000E3800
E000000E3800
F000000E3800
F800000E3800
7C00000E7800
3E00000EF000
1F00000FE000
0F80000FC000
07FFFFFF8000
03FFFFFE0000
01FFFFF80000
000000000000
000000000000
000000000000
000000000000
000000000000
000000000000
000000000000
ENDCHAR

STARTCHAR T
ENCODING 84
SWIDTH 1000 0
DWIDTH 54 0
BBX 54 57 0 -7
BITMAP
FFFFFFFFFFF800
FFFFFFFFFFF800
FFFFFFFFFFF800
FC0038E001F800
F00038E0007800
E00038E0003800
C00038E0001800
C00038E0001800
800038E0000800
800038E0000800
000038E0000000
000038E0000000
000038E0000000
000038E0000000
000038E0000000
000038E0000000
000038E0000000
000038E0000000
000038E0000000
000038E0000000
000038E0000000
000038E0000000
000038E0000000
000038E0000000
000038E0000000
000038E0000000
000038E0000000
000038E0000000
000038E0000000
000038E0000000
000038E0000000
000038E0000000
000038E0000000
000038E0000000
000038E0000000
000038E0000000
000038E0000000
000038E0000000
000038E0000000
000038E0000000
000038E0000000
000038E0000000
000038E0000000
000038E0000000
000038E0000000
000038E0000000
000038E0000000
0007FFFF000000
0007FFFF000000
0007FFFF000000
00000000000000
00000000000000
00000000000000
00000000000000
00000000000000
00000000000000
00000000000000
ENDCHAR

STARTCHAR U
ENCODING 85
SWIDTH 981 0
DWIDTH 53 0
BBX 53 57 0 -7
BITMAP
FFFFE0007FFE00
FFFFE0007FFE00
FFFFE0007FFE00
071C000003C000
071C000003C000
071C000003C000
071C000003C000
071C000003C000
071C000003C000
071C000003C000
071C000003C000
071C000003C000
071C000003C000
071C000003C000
071C000003C000
071C000003C000
071C000003C000
071C000003C000
071C000003C000
071C000003C000
071C000003C000
071C000003C000
071C000003C000
071C000003C000
071C000003C000
071C000003C000
071C000003C000
071C000003C000
071C000003C000
071C000003C000
071C000003C000
071C000003C000
071C000003C000
071C000003C000
071C000003C000
071C000003C000
071C000003C000
071C000003C000
071C000003C000
071C000003C000
079C000003C000
07DC000007C000
03FC00000F8000
01FC00001F0000
00FC00003E0000
007E00007C0000
003F0000F80000
001FFFFFF00000
000FFFFFE00000
0007FFFFC00000
00000000000000
00000000000000
00000000000000
00000000000000
00000000000000
00000000000000
00000000000000
ENDCHAR

STARTCHAR V
ENCODING 86
SWIDTH 1092 0
DWIDTH 59 0
BBX 59 57 0 -7
BITMAP
FFFFF80007FFC000
FFFFF80007FFC000
FFFFF80007FFC000
078F000000380000
0387000000380000
0387000000380000
03C7800000780000
01C3800000700000
01C3800000700000
01E3C00000F00000
00E1C00000E00000
00E1C00000E00000
00F1E00001E00000
0070E00001C00000
0070E00001C00000
0078F00003C00000
0038700003800000
0038700003800000
003C780007800000
001C380007000000
001C380007000000
001E3C000F000000
000E1C000E000000
000E1C000E000000
000F1E001E000000
00070E001C000000
00070E001C000000
00078F003C000000
0003870038000000
0003870038000000
0003C78078000000
0001C38070000000
0001C38070000000
0001E3C0F0000000
0000E1C0E0000000
0000E1C0E0000000
0000F1E1E0000000
000070E1C0000000
000070E1C0000000
000078F3C0000000
0000387380000000
0000387380000000
00003C7F80000000
00001C3F00000000
00001C3F00000000
00001E3F00000000
00000E1E00000000
0001FFFFF0000000
0001FFFFF0000000
0001FFFFF0000000
0000000000000000
0000000000000000
0000000000000000
0000000000000000
0000000000000000
0000000000000000
0000000000000000
ENDCHAR

STARTCHAR W
ENCODING 87
SWIDTH 1759 0
DWIDTH 95 0
BBX 95 57 0 -7
BITMAP
FFFFF8000000000000FFFC00
FFFFF800001F800000FFFC00
FFFFF800001FC00000FFFC00
078F0000003FC00000078000
03870000003FC00000070000
03870000003FE00000070000
03C780000079E000000F0000
01C380000071E000000E0000
01C380000071F000000E0000
01E3C00000F0F000001E0000
00E1C00000E0F000001C0000
00E1C00000E0F800001C0000
00F1E00001E07800003C0000
0070E00001C0780000380000
0070E00001C07C0000380000
0078F00003C03C0000780000
0038700003803C0000700000
0038700003803E0000700000
003C780007801E0000F00000
001C380007001E0000E00000
001C380007001F0000E00000
001E3C000F000F0001E00000
000E1C000E000F0001C00000
000E1C000E000F8001C00000
000F1E001E00078003C00000
00070E001C00078003800000
00070E001C0007C003800000
00078F003C0003C007800000
00038700380003C007000000
00038700380003E007000000
0003C780780001E00F000000
0001C380700001E00E000000
0001C380700001F00E000000
0001E3C0F00000F01E000000
0000E1C0E00000F01C000000
0000E1C0E00000F81C000000
0000F1E1E00000783C000000
000070E1C000007838000000
000070E1C000007C38000000
000078F3C000003C78000000
000038738000003C70000000
000038738000003E70000000
00003C7F8000001E70000000
00001C3F0000001FE0000000
00001C3F0000001FE0000000
00001E3F0000000FE0000000
00000E1E0000000FC0000000
0001FFFFF00001FFFE000000
0001FFFFF00001FFFE000000
0001FFFFF00001FFFE000000
000000000000000000000000
000000000000000000000000
000000000000000000000000
000000000000000000000000
000000000000000000000000
000000000000000000000000
000000000000000000000000
ENDCHAR

STARTCHAR X
ENCODING 88
SWIDTH 1129 0
DWIDTH 61 0
BBX 61 57 0 -7
BITMAP
7FFF0000FFFFF000
7FFF0000FFFFF000
7FFF0000FFFFF000
03C00000071E0000
01E00000071C0000
00F000000F1C0000
007800001E380000
007800003C380000
003C000038780000
001E000078F00000
000F0000F1E00000
00078001E1C00000
0007C001C3C00000
0003C003C7800000
0001E0078F000000
0000F00F0E000000
0000780E1E000000
00003C1E3C000000
00003E3C78000000
00001E7870000000
00000F70F0000000
000007F1E0000000
000003E3C0000000
000003C380000000
0000078780000000
0000070F00000000
00000E1E00000000
00001E3C00000000
00003C7E00000000
0000387F00000000
000078FF80000000
0000F1E780000000
0001E3C3C0000000
0001C381E0000000
0003C780F0000000
00078F0078000000
000F1E007C000000
000E1C003C000000
001E3C001E000000
003C78000F000000
0078F00007800000
0070E00003C00000
00F1E00003E00000
01E3C00001E00000
03C7800000F00000
038F000000780000
078E0000003C0000
FFFFF00007FFE000
FFFFF00007FFE000
FFFFF00007FFE000
0000000000000000
0000000000000000
0000000000000000
0000000000000000
0000000000000000
0000000000000000
0000000000000000
ENDCHAR

STARTCHAR Y
ENCODING 89
SWIDTH 944 0
DWIDTH 51 0
BBX 51 57 0 -7
BITMAP
FFFFE007FFC000
FFFFE007FFC000
FFFFE007FFC000
071C0000380000
078E0000380000
038F0000780000
01C70000F00000
01E38000F00000
00E3C001E00000
0071E003C00000
0078E003C00000
0038F007800000
001C780F000000
001E380F000000
000E1C1E000000
00071E3C000000
00078E3C000000
00038778000000
0001C7F0000000
0001E3F0000000
0000E3E0000000
000077C0000000
00007FC0000000
00003F80000000
00001F00000000
00001F00000000
00000F00000000
00000F00000000
00000F00000000
00000F00000000
00000F00000000
00000F00000000
00000F00000000
00000F00000000
00000F00000000
00000F00000000
00000F00000000
00000F00000000
00000F00000000
00000F00000000
00000F00000000
00000F00000000
00000F00000000
00000F00000000
00000F00000000
00000F00000000
00000F00000000
0001FFF8000000
0001FFF8000000
0001FFF8000000
00000000000000
00000000000000
00000000000000
00000000000000
00000000000000
00000000000000
00000000000000
ENDCHAR

STARTCHAR Z
ENCODING 90
SWIDTH 1037 0
DWIDTH 56 0
BBX 56 57 0 -7
BITMAP
FFFFFFFFFFFE00
FFFFFFFFFFFE00
FFFFFFFFFFFE00
F800000000F600
F000000001E600
E000000003C600
C0000000078600
C00000000F0E00
800000001E1E00
800000003C3C00
00000000787800
00000000F0F000
00000001E1E000
00000003C3C000
00000007878000
0000000F0F0000
0000001E1E0000
0000003C3C0000
00000078780000
000000F0F00000
000001E1E00000
000003C3C00000
00000787800000
0003FF0FFC0000
0007FE1FF80000
000FFC3FF00000
001FF87FE00000
0000F0F0000000
0001E1E0000000
0003C3C0000000
00078780000000
000F0F00000000
001E1E00000000
003C3C00000000
00787800000000
00F0F000000000
01E1E000000000
03C3C000000000
07878000000000
0F0F0000000000
1E1E0000000200
3C3C0000000200
78780000000600
F0F00000000600
E1E00000000E00
C3C00000001E00
C7800000003E00
FFFFFFFFFFFE00
FFFFFFFFFFFE00
FFFFFFFFFFFE00
00000000000000
00000000000000
00000000000000
00000000000000
00000000000000
00000000000000
00000000000000
ENDCHAR

STARTCHAR l
ENCODING 108
SWIDTH 851 0
DWIDTH 46 0
BBX 46 57 0 -7
BITMAP
C18306000000
C18306000000
60C183000000
60C183000000
3060C1800000
3870E1C00000
1C3870E00000
0E1C38700000
070E1C380000
03870E1C0000
01C3870E0000
00E1C3870000
0070E1C38000
003C78F1E000
000F1E3C7800
0003870E1C00
0003FFFFFF80
0003FFFFFF80
0003FFFFFF80
0003FFFFFF80
000000000000
000000000000
000000000000
000000000000
0003FFFFFF80
0003FFFFFF80
0003FFFFFF80
0003FFFFFF80
0003870E1C00
000F1E3C7800
003C78F1E000
0070E1C38000
00E1C3870000
01C3870E0000
03870E1C0000
070E1C380000
0E1C38700000
1C3870E00000
3870E1C00000
3060C1800000
60C183000000
60C183000000
C18306000000
C18306000000
000000000000
000000000000
000000000000
000000000000
000000000000
000000000000
000000000000
000000000000
000000000000
000000000000
000000000000
000000000000
000000000000
ENDCHAR

STARTCHAR r
ENCODING 114
SWIDTH 870 0
DWIDTH 47 0
BBX 47 57 0 -7
BITMAP
00003060C180
00003060C180
000060C18300
000060C18300
0000C1830600
0001C3870E00
0003870E1C00
00070E1C3800
000E1C387000
001C3870E000
003870E1C000
0070E1C38000
00E1C3870000
03C78F1E0000
0F1E3C780000
1C3870E00000
FFFFFFE00000
FFFFFFE00000
FFFFFFE00000
FFFFFFE00000
000000000000
000000000000
000000000000
000000000000
FFFFFFE00000
FFFFFFE00000
FFFFFFE00000
FFFFFFE00000
1C3870E00000
0F1E3C780000
03878F1E0000
00E1C3870000
0070E1C38000
003870E1C000
001C3870E000
000E1C387000
00070E1C3800
0003870E1C00
0001C3870E00
0000C1830600
000060C18300
000060C18300
00003060C180
00003060C180
000000000000
000000000000
000000000000
000000000000
000000000000
000000000000
000000000000
000000000000
000000000000
000000000000
000000000000
000000000000
000000000000
ENDCHAR

ENDFONT
